<svg width="55" height="55" viewBox="0 0 55 55" fill="none" xmlns="http://www.w3.org/2000/svg">
<path fill-rule="evenodd" clip-rule="evenodd" d="M35.0836 36.15V39.6142C35.0836 44.0556 31.4832 47.656 27.0418 47.656C22.6004 47.656 19 44.0556 19 39.6142V36.15C21.0138 38.2895 23.8718 39.6253 27.0418 39.6253C30.2118 39.6253 33.0698 38.2895 35.0836 36.15ZM35.0836 28.5835V14.6978C35.0836 10.2564 31.4832 6.65601 27.0418 6.65601C22.6004 6.65601 19 10.2564 19 14.6978V28.5835C19 33.0249 22.6004 36.6253 27.0418 36.6253C31.4832 36.6253 35.0836 33.0249 35.0836 28.5835ZM38.0836 28.5835V39.6142C38.0836 45.7124 33.14 50.656 27.0418 50.656C20.9436 50.656 16 45.7124 16 39.6142V28.5835V14.6978C16 12.0214 16.9523 9.56731 18.5365 7.65601C18.8698 7.2538 19.2312 6.87562 19.6175 6.52447C21.5784 4.74224 24.1833 3.65601 27.0418 3.65601C33.14 3.65601 38.0836 8.59959 38.0836 14.6978V28.5835Z" fill="#30373E"/>
</svg>
