<svg width="340" height="266" viewBox="0 0 340 266" fill="none" xmlns="http://www.w3.org/2000/svg">

<path d="M161.62 192V193.5H164.036L162.964 191.335L161.62 192ZM136.6 192L135.25 192.654L135.66 193.5H136.6V192ZM114.1 145.56L115.45 144.906L115.04 144.06H114.1V145.56ZM97.18 145.56V144.06H95.68V145.56H97.18ZM97.18 192V193.5H98.68V192H97.18ZM74.32 192H72.82V193.5H74.32V192ZM74.32 66V64.5H72.82V66H74.32ZM143.62 76.44L142.595 77.5354L143.62 76.44ZM135.88 139.98L135.199 138.644L133.878 139.317L134.536 140.645L135.88 139.98ZM97.18 86.88V85.38H95.68V86.88H97.18ZM97.18 125.58H95.68V127.08H97.18V125.58ZM126.88 91.2L125.904 92.3389L126.88 91.2ZM161.62 190.5H136.6V193.5H161.62V190.5ZM137.95 191.346L115.45 144.906L112.75 146.214L135.25 192.654L137.95 191.346ZM114.1 144.06H97.18V147.06H114.1V144.06ZM95.68 145.56V192H98.68V145.56H95.68ZM97.18 190.5H74.32V193.5H97.18V190.5ZM75.82 192V66H72.82V192H75.82ZM74.32 67.5H112.84V64.5H74.32V67.5ZM112.84 67.5C125.651 67.5 135.505 70.9029 142.595 77.5354L144.645 75.3446C136.855 68.0571 126.189 64.5 112.84 64.5V67.5ZM142.595 77.5354C149.669 84.1526 153.28 93.3797 153.28 105.42H156.28C156.28 92.7402 152.451 82.6474 144.645 75.3446L142.595 77.5354ZM153.28 105.42C153.28 113.381 151.7 120.141 148.606 125.756L151.234 127.204C154.62 121.059 156.28 113.779 156.28 105.42H153.28ZM148.606 125.756C145.515 131.367 141.058 135.657 135.199 138.644L136.561 141.316C142.942 138.063 147.845 133.353 151.234 127.204L148.606 125.756ZM134.536 140.645L160.276 192.665L162.964 191.335L137.224 139.315L134.536 140.645ZM95.68 86.88V125.58H98.68V86.88H95.68ZM97.18 127.08H114.82V124.08H97.18V127.08ZM114.82 127.08C120.504 127.08 125.128 125.493 128.481 122.141L126.359 120.019C123.712 122.667 119.936 124.08 114.82 124.08V127.08ZM128.481 122.141C131.827 118.794 133.42 114.235 133.42 108.66H130.42C130.42 113.645 129.013 117.366 126.359 120.019L128.481 122.141ZM133.42 108.66V103.26H130.42V108.66H133.42ZM133.42 103.26C133.42 97.7426 131.605 93.2746 127.856 90.0611L125.904 92.3389C128.875 94.8854 130.42 98.4574 130.42 103.26H133.42ZM127.856 90.0611C124.141 86.8765 119.07 85.38 112.84 85.38V88.38C118.61 88.38 122.899 89.7635 125.904 92.3389L127.856 90.0611ZM112.84 85.38H97.18V88.38H112.84V85.38ZM238.272 192V193.5H239.772V192H238.272ZM169.872 192H168.372V193.5H169.872V192ZM169.872 171.66V170.16H168.372V171.66H169.872ZM194.352 171.66V173.16H195.852V171.66H194.352ZM194.352 86.34H195.852V84.84H194.352V86.34ZM174.552 86.34H173.052V87.84H174.552V86.34ZM174.552 66V64.5H173.052V66H174.552ZM216.492 66H217.992V64.5H216.492V66ZM216.492 171.66H214.992V173.16H216.492V171.66ZM238.272 171.66H239.772V170.16H238.272V171.66ZM238.272 190.5H169.872V193.5H238.272V190.5ZM171.372 192V171.66H168.372V192H171.372ZM169.872 173.16H194.352V170.16H169.872V173.16ZM195.852 171.66V86.34H192.852V171.66H195.852ZM194.352 84.84H174.552V87.84H194.352V84.84ZM176.052 86.34V66H173.052V86.34H176.052ZM174.552 67.5H216.492V64.5H174.552V67.5ZM214.992 66V171.66H217.992V66H214.992ZM216.492 173.16H238.272V170.16H216.492V173.16ZM236.772 171.66V192H239.772V171.66H236.772ZM266.141 190.02L265.507 191.379L265.52 191.386L265.534 191.392L266.141 190.02ZM248.501 175.98L247.573 174.801L246.415 175.714L247.307 176.888L248.501 175.98ZM265.421 162.66L266.612 161.747L265.687 160.542L264.493 161.481L265.421 162.66ZM276.041 171.12L275.401 172.476L275.416 172.484L275.432 172.491L276.041 171.12ZM305.021 170.04L304.153 168.817L304.144 168.823L304.134 168.83L305.021 170.04ZM305.561 146.1L306.537 144.961L305.561 146.1ZM288.281 138.18L287.854 139.618L287.858 139.619L288.281 138.18ZM262.181 123.78L261.055 124.771L262.181 123.78ZM264.881 72.84L265.884 73.9559L265.894 73.9465L264.881 72.84ZM313.841 67.26L313.214 68.6227L313.226 68.6279L313.237 68.633L313.841 67.26ZM328.421 78.6L329.349 79.7786L330.505 78.8687L329.618 77.6953L328.421 78.6ZM311.501 91.92L310.335 92.8638L311.266 94.0139L312.429 93.0986L311.501 91.92ZM303.761 86.16L303.112 87.5123L303.144 87.5276L303.177 87.5415L303.761 86.16ZM281.261 87.96L282.226 89.1086L282.239 89.0975L282.252 89.0861L281.261 87.96ZM280.541 111.18L279.456 112.216L279.48 112.241L279.506 112.265L280.541 111.18ZM294.221 117.84L294.655 116.404L294.647 116.402L294.221 117.84ZM324.281 133.5L323.21 134.55L324.281 133.5ZM321.941 185.16L322.909 186.306L322.919 186.298L321.941 185.16ZM289.721 193.38C281.52 193.38 273.868 191.8 266.748 188.648L265.534 191.392C273.055 194.72 281.123 196.38 289.721 196.38V193.38ZM266.776 188.661C259.784 185.398 254.1 180.868 249.695 175.072L247.307 176.888C252.022 183.092 258.099 187.922 265.507 191.379L266.776 188.661ZM249.429 177.159L266.349 163.839L264.493 161.481L247.573 174.801L249.429 177.159ZM264.231 163.573C267.144 167.372 270.877 170.34 275.401 172.476L276.682 169.764C272.566 167.82 269.219 165.148 266.612 161.747L264.231 163.573ZM275.432 172.491C279.952 174.499 284.78 175.5 289.901 175.5V172.5C285.182 172.5 280.771 171.581 276.65 169.749L275.432 172.491ZM289.901 175.5C296.562 175.5 301.958 174.146 305.908 171.25L304.134 168.83C300.884 171.214 296.201 172.5 289.901 172.5V175.5ZM305.889 171.263C310.018 168.333 312.101 164.211 312.101 159.06H309.101C309.101 163.269 307.465 166.467 304.153 168.817L305.889 171.263ZM312.101 159.06V157.44H309.101V159.06H312.101ZM312.101 157.44C312.101 152.351 310.251 148.144 306.537 144.961L304.585 147.239C307.591 149.816 309.101 153.169 309.101 157.44H312.101ZM306.537 144.961C302.928 141.867 296.915 139.156 288.704 136.741L287.858 139.619C295.968 142.004 301.474 144.573 304.585 147.239L306.537 144.961ZM288.708 136.742C276.715 133.18 268.322 128.488 263.307 122.789L261.055 124.771C266.6 131.072 275.607 135.98 287.854 139.618L288.708 136.742ZM263.307 122.789C258.329 117.132 255.761 109.419 255.761 99.48H252.761C252.761 109.941 255.474 118.428 261.055 124.771L263.307 122.789ZM255.761 99.48C255.761 88.4139 259.183 79.9753 265.884 73.9559L263.879 71.7241C256.42 78.4247 252.761 87.7461 252.761 99.48H255.761ZM265.894 73.9465C272.62 67.7905 282.056 64.62 294.401 64.62V61.62C281.547 61.62 271.303 64.9295 263.869 71.7335L265.894 73.9465ZM294.401 64.62C301.157 64.62 307.422 65.958 313.214 68.6227L314.468 65.8973C308.261 63.042 301.566 61.62 294.401 61.62V64.62ZM313.237 68.633C319.018 71.1766 323.669 74.8016 327.225 79.5047L329.618 77.6953C325.734 72.5584 320.664 68.6234 314.445 65.887L313.237 68.633ZM327.493 77.4214L310.573 90.7414L312.429 93.0986L329.349 79.7786L327.493 77.4214ZM312.667 90.9762C310.465 88.2561 307.682 86.19 304.346 84.7785L303.177 87.5415C306.081 88.77 308.457 90.5439 310.335 92.8638L312.667 90.9762ZM304.41 84.8077C301.198 83.266 297.735 82.5 294.041 82.5V85.5C297.307 85.5 300.324 86.174 303.112 87.5123L304.41 84.8077ZM294.041 82.5C288.296 82.5 283.633 83.8746 280.27 86.8339L282.252 89.0861C284.889 86.7654 288.747 85.5 294.041 85.5V82.5ZM280.296 86.8114C276.9 89.6646 275.261 93.6576 275.261 98.58H278.261C278.261 94.3823 279.623 91.2954 282.226 89.1086L280.296 86.8114ZM275.261 98.58V100.2H278.261V98.58H275.261ZM275.261 100.2C275.261 105.153 276.601 109.224 279.456 112.216L281.626 110.144C279.442 107.856 278.261 104.607 278.261 100.2H275.261ZM279.506 112.265C282.409 115.036 287.25 117.339 293.795 119.278L294.647 116.402C288.233 114.501 283.954 112.364 281.577 110.095L279.506 112.265ZM293.788 119.276C307.608 123.446 317.348 128.573 323.21 134.55L325.352 132.45C318.975 125.947 308.674 120.634 294.655 116.404L293.788 119.276ZM323.21 134.55C329.013 140.467 331.961 148.228 331.961 157.98H334.961C334.961 147.572 331.79 139.013 325.352 132.45L323.21 134.55ZM331.961 157.98C331.961 169.13 328.264 177.748 320.964 184.022L322.919 186.298C330.978 179.372 334.961 169.87 334.961 157.98H331.961ZM320.974 184.014C313.651 190.193 303.299 193.38 289.721 193.38V196.38C303.743 196.38 314.872 193.087 322.909 186.306L320.974 184.014Z" fill="#F4AE3D"/>
</svg>
