<svg width="55" height="55" viewBox="0 0 55 55" fill="none" xmlns="http://www.w3.org/2000/svg">
<path fill-rule="evenodd" clip-rule="evenodd" d="M27.5 12.5C19.1904 12.5 12.5 19.1904 12.5 27.5C12.5 35.8096 19.1904 42.5 27.5 42.5C35.8096 42.5 42.5 35.8096 42.5 27.5C42.5 19.1904 35.8096 12.5 27.5 12.5ZM10 27.5C10 17.8096 17.8096 10 27.5 10C37.1904 10 45 17.8096 45 27.5C45 37.1904 37.1904 45 27.5 45C17.8096 45 10 37.1904 10 27.5Z" fill="#30373E"/>
<path d="M25.9512 39.9008V26.463H33.1812L25.9512 39.9008Z" fill="#30373E"/>
<path d="M29.0484 15.0994V28.5371H21.8184L29.0484 15.0994Z" fill="#30373E"/>
</svg>
