<svg width="55" height="55" viewBox="0 0 55 55" fill="none" xmlns="http://www.w3.org/2000/svg">
<path d="M27.5002 9.73999C17.681 9.73999 9.74023 17.7661 9.74023 27.5C9.74023 37.2338 17.681 45.26 27.5002 45.26C37.3195 45.26 45.2602 37.2338 45.2602 27.5C45.2602 17.7661 37.3195 9.73999 27.5002 9.73999ZM24.7252 45.0465V41.5884C24.7252 40.3504 23.9568 39.1977 22.8041 38.7281C18.4922 36.8923 15.3756 32.5377 15.3756 27.5427C15.3756 20.8827 20.7975 15.4181 27.5002 15.4181C34.2029 15.4181 39.6248 20.9254 39.6248 27.5427C39.6248 35.3981 33.5198 42.7838 24.7252 45.0465Z" fill="#30373E"/>
</svg>
