<svg xmlns="http://www.w3.org/2000/svg" width="654" height="239.108" viewBox="0 0 654 239.108"><g id="f6371b8f-ad5f-4dc8-9488-dee06fdb713b" data-name="below"><path d="M87.3,104a163.458,163.458,0,0,1,29.345-3.648c16.6-.579,119.5-3.5,185.14-2.53s156.567,1.351,190.352,1.544,36.68-6.178,64.094-25.483l-.52-4.161" style="fill:none;stroke:#a6abb0;stroke-linecap:round;stroke-linejoin:round"/><path d="M117.448,2.9c15.465,13.39,13.231,17.068,35.4,20.11C187.8,28.276,222.8,33.8,257.873,38.163a128.414,128.414,0,0,0,21.043.613.753.753,0,0,1,.712.329l1.544,2.317a.757.757,0,0,1,.125.366c.289,4.288.587,8.574.985,12.842,1.044,7.549.947,18.589,9.361,21.654,3.955,1.413,8.3,1.531,12.5,1.806l51.511,3.136c47.216,2.657,94.4,6.221,141.662,7.8a48.865,48.865,0,0,0,12.644-.951,78.872,78.872,0,0,0,12.071-4.149c8.776-3.487,26.618-11.937,35.318-15.762,27.252-12.4,66.933-30.567,94.442-41.638C625.461,39.8,585.323,57.165,557.971,69.535c-8.737,4-26.9,12.257-35.369,15.775a80.268,80.268,0,0,1-12.3,4.222,50.277,50.277,0,0,1-13.008.99C450,88.948,402.8,85.381,355.564,82.724l-51.509-3.137c-4.342-.286-8.753-.4-12.939-1.9-9.157-3.332-9.282-14.8-10.327-22.916-.4-4.3-.7-8.591-.989-12.884l.124.366-1.544-2.317.707.33c-14.348,1.019-28.468-1.17-42.485-3.022-31.543-4.625-63.181-8.661-94.512-14.588a28,28,0,0,1-9.964-4.271c-5.765-4.276-10.4-9.77-14.678-15.491Z" style="fill:#a6abb0"/><path d="M123.324,2.271c4.352,4.253,8.347,9.031,13.6,12.194,5.322,3.074,11.56,3.774,17.529,4.835l12.1,1.919c23.31,3.618,49.24,7.394,72.733,10.72,12.126,1.661,24.269,3.511,36.531,3.428a44.073,44.073,0,0,0,12.063-1.475,57.153,57.153,0,0,0,21.624-10.9.25.25,0,1,1,.31.392,57.186,57.186,0,0,1-27.846,12.19c-14.315,1.139-28.608-1.264-42.751-3.137-23.533-3.334-49.387-7.1-72.74-10.722l-12.105-1.92c-6-1.063-12.324-1.784-17.7-4.9-5.3-3.21-9.254-8.092-13.348-12.625Z" style="fill:#a6abb0"/><path d="M126.807,2.883c1.045,1.028,3.2,2.95,4.316,3.9a45.533,45.533,0,0,0,4.578,3.5c6.553,4.128,14.638,4.611,22.122,5.978,19.069,3,38.5,5.85,57.575,8.641,7.593,1.1,27.22,3.926,34.585,4.895a194.752,194.752,0,0,0,23.136,1.957,50.231,50.231,0,0,0,11.486-.786,55.249,55.249,0,0,0,21.079-8.994.5.5,0,1,1,.57.822A56.245,56.245,0,0,1,284.8,31.943a51.725,51.725,0,0,1-11.694.812,195.5,195.5,0,0,1-23.258-1.921c-7.282-.943-27.076-3.755-34.609-4.829-19.069-2.768-38.519-5.7-57.578-8.727-13.779-2.294-21.568-2.535-30.852-14.395Z" style="fill:#a6abb0"/><path d="M87.3,104l.962-5.591A18.31,18.31,0,0,1,89.6,94.016L126.3,12.3" style="fill:none;stroke:#a6abb0;stroke-linecap:round;stroke-linejoin:round;stroke-width:0.5px"/><path d="M278.414,39.574c2.328,31.705.986,38.305,23.564,39.637" style="fill:none;stroke:#a6abb0;stroke-linecap:round;stroke-linejoin:round;stroke-width:0.5px"/><path d="M9.472,3.948A383.393,383.393,0,0,0,31.6,58.828c8.876,17.545,17.831,35.383,28.912,51.6,11.739,15.783,26.375,29.382,40.555,42.979,13.8,13.2,31.067,27.191,44.752,38.265l18.919,2.317c12.5-4.127,28.3-9.873,42.594-11.956,14.778-2.264,29.707-1.944,44.518-2.014q89,.225,177.985,1.661c14.811.213,29.731.451,44.48,2.619,14.791,1.975,29.076,6.879,42.52,13.228l-.313-.069h11.959c-.912.162,26.24-7.067,26.071-7.052.176-.076,97.685,0,97.881-.026a.75.75,0,0,1,0,1.5H554.751l.2-.026c-.2.026-26.272,7.131-26.46,7.1h-11.96c-13.533-6.178-27.594-11.259-42.425-13.175-14.63-2.15-29.459-2.391-44.287-2.6q-88.968-1.3-177.96-1.661c-14.816.068-29.691-.243-44.292,2-14.62,2.128-28.529,7.5-42.683,11.932a.791.791,0,0,1-.319.03l-18.919-2.317a584.987,584.987,0,0,1-45.823-38.41C85.5,141.037,70.9,127.5,58.994,111.526c-5.831-8.115-10.467-16.917-15.252-25.566A513.035,513.035,0,0,1,18.012,32.4c-3.654-9.194-7.137-18.591-8.54-28.453Z" style="fill:#a6abb0"/><path d="M24.617,15.653,20.435,16.92l-1.177,3.888a123.339,123.339,0,0,0,5.767,19.654c20.949,32.247,58.61,74.027,63.553,79.559s5.531,5.531,15.182,9.3a151.575,151.575,0,0,0,26.951,7.885c7.768,1.413,10.71,1.648,17.654-.47s10.945-5.3,4.943-6.826-40.486-9.063-49.077-11.534-11.416-2.942-15.535-7.179l-4.355-4.825L87.3,104l.749-4.352" style="fill:none;stroke:#a6abb0;stroke-linecap:round;stroke-linejoin:round"/><path d="M21.532,3.591a142.646,142.646,0,0,0,4.524,13.993c3.664,9.137,9.373,17.225,15.377,24.968C56.48,61.974,72.391,80.717,88.239,99.488a.25.25,0,0,1-.38.325C71.889,81.132,56.018,62.346,40.994,42.887,31.925,31.349,23.78,18.343,21.532,3.591Z" style="fill:#a6abb0"/><path d="M17.433,4.428c1.386,4.96,2.164,10.045,3.844,14.921C24.39,29.174,29.8,38.042,35.985,46.228c15.5,20.532,32.081,40.223,48.547,59.979a.25.25,0,0,1-.382.323c-16.59-19.668-33.137-39.4-48.611-59.972-9.454-12.222-16.4-26.65-18.106-42.13Z" style="fill:#a6abb0"/><polyline points="25.025 40.462 24.847 43.189 28.261 53.79" style="fill:none;stroke:#a6abb0;stroke-linecap:round;stroke-linejoin:round"/><path d="M153.308,129.907c8.383,2.023,12.244,6.914,2.205,11.032a81.866,81.866,0,0,1-9,3.253" style="fill:none;stroke:#a6abb0;stroke-linecap:round;stroke-linejoin:round;stroke-width:0.5px"/><path d="M80.352,118c-10.89-12.311-38.613-44.181-55.5-74.81" style="fill:none;stroke:#a6abb0;stroke-linecap:round;stroke-linejoin:round;stroke-width:0.5px"/><polyline points="143.764 137.899 146.513 144.191 182.798 169.769 197.148 172.72" style="fill:none;stroke:#a6abb0;stroke-linecap:round;stroke-linejoin:round"/><path d="M180.246,167.97c-3,.517-8.572,1.524-15.975,3.073-9.211,1.927-12.78,2.617-24.267-4.237S100.428,142.1,97.243,139.1s-7.085-5.915-7.976-8.634a118.049,118.049,0,0,1-3.734-13.857L80.352,118a90.927,90.927,0,0,0,4.76,15.99" style="fill:none;stroke:#a6abb0;stroke-linecap:round;stroke-linejoin:round;stroke-width:0.5px"/><path d="M92.4,114.245s1.322-2.531,9.826-3.036c41.185-2.445,137.713-2.719,516.615.9,20.207.193,33.72.193,33.72.193" style="fill:none;stroke:#a6abb0;stroke-linecap:round;stroke-linejoin:round;stroke-width:0.5px"/><path d="M31.067,59.625c9.263,18.152,26.31,41.481,33.839,51.327s11.236,15.443,22.78,25.676c16.989,15.058,37.048,26.727,51.527,35.221s16.1,7.176,29.17,4.741c18.662-3.475,24.325-4.762,78.51-4.762s165.882,1.2,208.885,2.188c50.581,1.159,70.272,10.039,70.272,10.039H652.308" style="fill:none;stroke:#a6abb0;stroke-linecap:round;stroke-linejoin:round"/><path d="M81.837,135.975c9.279,9.651,33.392,27.23,44.847,34.438s24.067,13.9,29.344,15.83,6.435,2.317,9.009,1.416,12.356-4.119,22.278-6.508c16.571-3.991,21.75-4.762,70.2-4.762s148.322,1.2,186.773,2.188c45.226,1.158,62.833,10.038,62.833,10.038a205.668,205.668,0,0,1,21.366,9.6" style="fill:none;stroke:#a6abb0;stroke-linecap:round;stroke-linejoin:round;stroke-width:0.5px"/><path d="M566.335,183.84c13.538-8.034,25.912-18.485,34.168-32.037,8.114-13.553,14.312-28.171,20.273-42.778.145-.118,12.158-29.3,12.437-29.287l19.224-5.467-19.081,5.946c.678-.931-12.311,29.226-12.116,29-3.944,9.772-8.077,19.491-12.782,28.933-4.593,9.483-9.856,18.791-17.092,26.54-7.132,7.827-15.741,14.133-24.775,19.584a.249.249,0,0,1-.343-.084.254.254,0,0,1,.087-.346Z" style="fill:#a6abb0"/><line x1="557.196" y1="184.055" x2="554.751" y2="191.134" style="fill:none;stroke:#a6abb0;stroke-linecap:round;stroke-linejoin:round;stroke-width:0.5px"/><polyline points="166.946 176.862 173.406 184.967 186.457 187.71" style="fill:none;stroke:#a6abb0;stroke-linecap:round;stroke-linejoin:round;stroke-width:0.5px"/><path d="M217.818,181.576l-4.549-2.379a124.393,124.393,0,0,0-35.118,6.767" style="fill:none;stroke:#a6abb0;stroke-linecap:round;stroke-linejoin:round;stroke-width:0.5px"/><line x1="171.965" y1="178.381" x2="175.465" y2="182.772" style="fill:none;stroke:#a6abb0;stroke-linecap:round;stroke-linejoin:round;stroke-width:0.5px"/><line x1="172.972" y1="178.132" x2="176.471" y2="182.522" style="fill:none;stroke:#a6abb0;stroke-linecap:round;stroke-linejoin:round;stroke-width:0.5px"/><line x1="173.979" y1="177.882" x2="177.478" y2="182.272" style="fill:none;stroke:#a6abb0;stroke-linecap:round;stroke-linejoin:round;stroke-width:0.5px"/><path d="M498.821,190.93c-.23,12.82-2.983,18.107-15.2,23.885-17.546,8.3-42.641,21.236-143.022,21.236s-125.475-12.934-143.021-21.236c-12.813-6.062-15.214-11.583-15.214-25.827" style="fill:none;stroke:#a6abb0;stroke-linecap:round;stroke-linejoin:round;stroke-width:1.5px"/><path d="M342.459,194.029c54.958,0,98.917,6.838,98.917,15.324,0,14.544-97.319,15.823-102.078,15.823-54.958,0-98.918-6.838-98.918-15.323C240.38,195.308,337.7,194.029,342.459,194.029Z" style="fill:none;stroke:#a6abb0;stroke-linecap:round;stroke-linejoin:round"/><path d="M264.952,215.25c-4.132-.652-8.252-1.414-12.318-2.456-4.071-1.168-8.3-2.165-11.585-5.1a.5.5,0,1,1,.71-.7c2.887,2.828,7.2,4.08,11.01,5.325,4,1.2,8.08,2.122,12.183,2.938Z" style="fill:#a6abb0"/><path d="M308.677,219.7c-8.007-.235-16.014-.637-24.01-1.284a.5.5,0,0,1,.081-1c7.948.976,15.931,1.713,23.929,2.281Z" style="fill:#a6abb0"/><path d="M358.677,219.817a187.462,187.462,0,0,1-34.581.279c4.154-.222,8.815-.267,12.973-.264,7.2.009,14.4-.352,21.608-.015Z" style="fill:#a6abb0"/><path d="M349.817,213.019a54.655,54.655,0,0,1-14.979.181,54.655,54.655,0,0,1,14.979-.181Z" style="fill:#a6abb0"/><path d="M397.9,217.951l-25.27,1.372,25.172-2.367a.5.5,0,1,1,.1,1Z" style="fill:#a6abb0"/><path d="M440.72,207.446c-2.945,2.913-6.934,3.915-10.741,5.023a113.494,113.494,0,0,1-11.535,2.3,113.276,113.276,0,0,0,11.4-2.777c3.541-1.181,7.558-2.425,10.12-5.193a.5.5,0,1,1,.759.65Z" style="fill:#a6abb0"/><path d="M202.7,206.812c1.139-7.929,24.48-11.855,31.441-13.335,58-9.511,117.38-9.47,175.867-4.966,17.527,1.716,35.2,3.628,52.152,8.617,4.3,1.476,13.932,4.321,13.664,9.684-.031-5.056-9.839-7.793-13.812-9.207-16.907-4.976-34.554-6.887-52.048-8.6-58.432-4.5-117.787-4.552-175.734,4.945-7.209,1.479-29.8,5.524-31.53,12.862Z" style="fill:#a6abb0"/><path d="M202.7,209.854c3.122,13.1,53.213,18.811,65.908,20.311a705.276,705.276,0,0,0,141.975.319c17.6-2.027,35.414-4.279,52.184-10.191,4.509-1.857,12.943-4.887,13.057-10.439.34,5.854-8.412,9.094-12.882,10.907-16.823,5.931-34.672,8.185-52.307,10.216a705.729,705.729,0,0,1-142.08-.331c-12.481-1.5-64.1-7.276-65.855-20.792Z" style="fill:#a6abb0"/><path d="M533.386,3.1a11.739,11.739,0,0,1,2.064,3.864c1.649,4.023,3.471,7.975,5.315,11.913,7.542,15.688,15.922,30.979,24.71,46a.5.5,0,0,1-.855.518,481.476,481.476,0,0,1-24.847-46.051c-1.814-3.971-3.606-7.955-5.225-12.011A11.745,11.745,0,0,1,533.386,3.1Z" style="fill:#a6abb0"/><path d="M575.335,60.7C590.226,74.5,612.2,77.53,631.692,79.347c6.724.621,13.472.854,20.228,1.34a193.95,193.95,0,0,1-40.485-2.844,99.564,99.564,0,0,1-19.609-5.5c-1.354-.5-3.346-1.487-4.667-2.091a52.125,52.125,0,0,1-12.516-8.835.5.5,0,0,1,.692-.721Z" style="fill:#a6abb0"/><path d="M280.74,44.651a19.706,19.706,0,0,1-.515-5.516.51.51,0,0,1,.447-.51c11.858-1.879,24.71-4.656,33.217-13.773a.5.5,0,0,1,.726.688c-8.674,9.226-21.665,12.5-33.807,14.106l.447-.511a19.706,19.706,0,0,1-.515,5.516Z" style="fill:#a6abb0"/><line x1="281.236" y1="60.329" x2="302.353" y2="60.863" style="fill:none;stroke:#a6abb0;stroke-linecap:round;stroke-linejoin:round"/><path d="M328.01,68.067l26.484.671a5.939,5.939,0,0,0,2.842-.644l2.894-1.472a5.94,5.94,0,0,1,2.692-.646h65.116" style="fill:none;stroke:#a6abb0;stroke-linecap:round;stroke-linejoin:round;stroke-width:0.5px"/><line x1="283.42" y1="66.938" x2="297.653" y2="67.299" style="fill:none;stroke:#a6abb0;stroke-linecap:round;stroke-linejoin:round;stroke-width:0.5px"/><path d="M332.71,61.632l19.5.493a5.938,5.938,0,0,0,2.842-.643l2.894-1.472a5.927,5.927,0,0,1,2.692-.646h48.837" style="fill:none;stroke:#a6abb0;stroke-linecap:round;stroke-linejoin:round"/><line x1="281.236" y1="45.44" x2="313.804" y2="45.184" style="fill:none;stroke:#a6abb0;stroke-linecap:round;stroke-linejoin:round;stroke-width:0.5px"/><path d="M344.9,44.94l7.334-.058a5.943,5.943,0,0,0,2.82-.737l2.843-1.568a5.943,5.943,0,0,1,2.669-.734l1.929-.064" style="fill:none;stroke:#a6abb0;stroke-linecap:round;stroke-linejoin:round;stroke-width:0.5px"/><line x1="350.082" y1="37.844" x2="319.465" y2="79.768" style="fill:none;stroke:#a6abb0;stroke-linecap:round;stroke-linejoin:round;stroke-width:1.5px"/><line x1="290.757" y1="76.741" x2="325.479" y2="29.198" style="fill:none;stroke:#a6abb0;stroke-linecap:round;stroke-linejoin:round;stroke-width:1.5px"/><path d="M338.053,53.449c-2.012,2.755-7.968,1.829-13.3-2.068s-8.031-9.289-6.019-12.044" style="fill:none;stroke:#a6abb0;stroke-linecap:round;stroke-linejoin:round;stroke-width:0.5px"/><path d="M525.55,184.055c11.455,5.277,14.836,6.821,29.345,6.821" style="fill:none;stroke:#a6abb0;stroke-linecap:round;stroke-linejoin:round;stroke-width:0.5px"/><path d="M530.88,184.055a64.939,64.939,0,0,0,8.279,3.289v-3.289" style="fill:none;stroke:#a6abb0;stroke-linecap:round;stroke-linejoin:round;stroke-width:0.5px"/><path d="M93.93,130.275c1.672,3.457,2.83,6.739,7.946,10.407s29.73,19.885,36.873,23.842,13.074,7.241,18.727,6.275c6.44-1.1,20.781-4.231,20.781-4.231" style="fill:none;stroke:#a6abb0;stroke-linecap:round;stroke-linejoin:round;stroke-width:0.5px"/><path d="M91.211,214.189c-2.95,7.477-5.683,15.1-6.5,23.149a31.916,31.916,0,0,1,.011-6.127,52.244,52.244,0,0,1,5.113-17.625l1.373.6Z" style="fill:#a6abb0"/><path d="M75.214,237.338c-.8-9.5,1.928-19.032,5.927-27.574l1.373.6c-3.5,8.672-6.415,17.612-7.3,26.971Z" style="fill:#a6abb0"/><path d="M135.6,143.833c-3.988,5.9-10.989,16.027-13.651,18.761-3.572,3.668-7.723,7.625-9.75,11.39C110.58,177,101.7,195.95,98.24,203.358a43.48,43.48,0,0,1-3.194,5.674l-3.689,5.524c-1.727,2.355-11.34-1.182-10.228-4.913l1.694-6.632a43.03,43.03,0,0,1,2.406-6.9c3.136-7.012,10.209-22.87,11.628-26.378a101.5,101.5,0,0,0,3.957-11.777c.738-2.843,2.317-6.95,6.564-13.031,2.694-3.858,5.2-7.467,6.675-9.591" style="fill:#f4f4f4;stroke:#a6abb0;stroke-linejoin:round;stroke-width:1.5px"/><path d="M106.1,152.161a1.955,1.955,0,0,1,2.611-.925l3.122,1.493a1.07,1.07,0,0,1,.485,1.466,73.712,73.712,0,0,0-3.141,7.43.848.848,0,0,1-1.1.5l-.055-.021c-.421-.16-.434.266-.617.678l-1.063,2.4a.915.915,0,0,1-1.229.456l-2.432-1.153a1.4,1.4,0,0,1-.74-1.662A75.628,75.628,0,0,1,106.1,152.161Z" style="fill:#f4f4f4;stroke:#a6abb0;stroke-linecap:round;stroke-linejoin:round;stroke-width:0.75px"/><line x1="102.004" y1="162.338" x2="104.834" y2="163.667" style="fill:none;stroke:#a6abb0;stroke-linecap:round;stroke-linejoin:round;stroke-width:0.5px"/><line x1="102.482" y1="160.951" x2="105.309" y2="162.278" style="fill:none;stroke:#a6abb0;stroke-linecap:round;stroke-linejoin:round;stroke-width:0.5px"/><line x1="102.983" y1="159.565" x2="105.808" y2="160.892" style="fill:none;stroke:#a6abb0;stroke-linecap:round;stroke-linejoin:round;stroke-width:0.5px"/><line x1="103.503" y1="158.192" x2="106.325" y2="159.516" style="fill:none;stroke:#a6abb0;stroke-linecap:round;stroke-linejoin:round;stroke-width:0.5px"/><line x1="104.037" y1="156.838" x2="106.855" y2="158.162" style="fill:none;stroke:#a6abb0;stroke-linecap:round;stroke-linejoin:round;stroke-width:0.5px"/><line x1="104.578" y1="155.514" x2="107.394" y2="156.836" style="fill:none;stroke:#a6abb0;stroke-linecap:round;stroke-linejoin:round;stroke-width:0.5px"/><line x1="105.122" y1="154.229" x2="107.935" y2="155.55" style="fill:none;stroke:#a6abb0;stroke-linecap:round;stroke-linejoin:round;stroke-width:0.5px"/><line x1="105.663" y1="152.992" x2="108.474" y2="154.311" style="fill:none;stroke:#a6abb0;stroke-linecap:round;stroke-linejoin:round;stroke-width:0.5px"/><line x1="106.197" y1="151.811" x2="109.004" y2="153.129" style="fill:none;stroke:#a6abb0;stroke-linecap:round;stroke-linejoin:round;stroke-width:0.5px"/><path d="M90.454,184.392c-1.386,3.119-2.014,8.346,1.08,9.874,8.9,4.4,13.4-5.181,15.2-8.99" style="fill:none;stroke:#a6abb0;stroke-linecap:round;stroke-linejoin:round;stroke-width:0.5px"/><path d="M128.4,140.994c-2.185,3.158-6.071,8.7-9.236,12.854a67.679,67.679,0,0,0-6.779,11.066" style="fill:none;stroke:#a6abb0;stroke-linecap:round;stroke-linejoin:round;stroke-width:0.5px"/><line x1="109.909" y1="151.814" x2="119.646" y2="137.543" style="fill:none;stroke:#a6abb0;stroke-linecap:round;stroke-linejoin:round;stroke-width:0.5px"/><line x1="104.508" y1="165.347" x2="87.59" y2="203.862" style="fill:none;stroke:#a6abb0;stroke-linecap:round;stroke-linejoin:round;stroke-width:0.5px"/><path d="M84.261,199.767c-1.406,3.137,11.157,8.212,12.053,6.292" style="fill:none;stroke:#a6abb0;stroke-linecap:round;stroke-linejoin:round;stroke-width:0.5px"/><path d="M81.811,207.117c-.361,1.086.329,2.206,1.514,3.181" style="fill:none;stroke:#a6abb0;stroke-linecap:round;stroke-linejoin:round;stroke-width:0.5px"/><path d="M86.877,212.284c2.5.964,5.116,1.245,5.822.2" style="fill:none;stroke:#a6abb0;stroke-linecap:round;stroke-linejoin:round;stroke-width:0.5px"/><path d="M82.494,204.591c-1.307,3.54,10.2,8.018,11.547,5.816" style="fill:none;stroke:#a6abb0;stroke-linecap:round;stroke-linejoin:round;stroke-width:0.5px"/><path d="M83.176,202.066c-.437,1.071.468,2.287,1.955,3.391" style="fill:none;stroke:#a6abb0;stroke-linecap:round;stroke-linejoin:round;stroke-width:0.5px"/><path d="M89,207.581c2.888,1.2,5.854,1.737,6.387.751" style="fill:none;stroke:#a6abb0;stroke-linecap:round;stroke-linejoin:round;stroke-width:0.5px"/><path d="M171.593,165.3l-2.54,8.905c-.45,1.577-4.017,1.943-7.969.815s-6.78-3.317-6.33-4.894l2.54-8.905c.449-1.577,4.017-1.942,7.959-.818S172.043,163.719,171.593,165.3Z" style="fill:#f4f4f4;stroke:#a6abb0;stroke-linecap:round;stroke-linejoin:round;stroke-width:1.5px"/><path d="M191.821,181.9l.5,2.36-7.142,5.333,4.216,2.1v1.684a34.071,34.071,0,0,1-6.234,2.394s-16.006-4.328-23.082-7.018-17.184-6.378-30.1-15.582A339.241,339.241,0,0,1,101.892,150.6c-.882-.768.687-2.871,1.643-4a.973.973,0,0,1,1.372-.113l.693.586c7.714-6.823,15.341-8.788,28.47-.295,9.007,5.826,46.284,30.166,52.079,33.993a3.487,3.487,0,0,0,1.441.545Z" style="fill:#f4f4f4;stroke:#a6abb0;stroke-linecap:round;stroke-linejoin:round;stroke-width:1.5px"/><path d="M192.325,184.263l-5.074-.643a5.134,5.134,0,0,1-2.178-.808c-10.429-6.887-43.01-28.127-51.46-33.593-13.129-8.493-20.193-6.917-27.907-.094-1.922,1.746-2.726,1.912-3.42,1.184" style="fill:none;stroke:#a6abb0;stroke-linecap:round;stroke-linejoin:round;stroke-width:0.5px"/><path d="M103.254,149.735l1.784-3.156a.766.766,0,1,1,1.125.992l-2.909,2.164Z" style="fill:#a6abb0"/><path d="M109.638,156.483c2.213,1.449,4.547-1.605,6.209-2.824a8.117,8.117,0,0,1,7.226-1.683c4.948,1.151,9.05,4.353,13.283,6.939,5.381,3.414,19.7,12.57,25.237,16.115,4.87,3.163,12.072,7.52,16.689,10.954-5.02-2.729-12.052-7.42-16.969-10.516-5.631-3.581-19.834-12.616-25.252-16.091-4.208-2.582-8.232-5.745-13.094-6.9a7.589,7.589,0,0,0-6.8,1.568c-1.671,1.246-4.389,4.317-6.524,2.434Z" style="fill:#a6abb0"/><path d="M185.61,190.213c-.737.34-2.285.824-2.019,1.857-.807-.986.552-2.343,1.17-3.1a.768.768,0,1,1,.849,1.239Z" style="fill:#a6abb0"/><path d="M184.986,183.874c-1.451,1.524-3,2.935-4.592,4.311-1.532,1.286-3.767,2.926-1.567,4.763-2.645-1.6-.349-3.859,1.242-5.137,1.586-1.378,3.2-2.716,4.917-3.937Z" style="fill:#a6abb0"/><path d="M159.449,153.768c-16.67-6.473-35.149-13.829-51.882-20.437l-8.643-3.418c-1.665-.567-3.493-1.55-5.187-1.409-.046.032-.058.022-.075.143a6.925,6.925,0,0,0,1.087,2.439c.165.263-.242.52-.415.278a5.949,5.949,0,0,1-1.446-2.726c.164-2.355,5.178-.014,6.4.341l8.651,3.4c16.764,6.6,35.247,13.806,51.88,20.46a.5.5,0,0,1-.366.93Z" style="fill:#a6abb0"/><path d="M307,222.923c7.826-2.226,15.679-4.347,23.537-6.451a4.511,4.511,0,0,0,3.72-2.821l.217-.729c1.076-3.617,2.822-9.566,3.9-13.172a2.21,2.21,0,0,1,2.308-1.385l.763,0c.967-.01,3.575,0,4.575,0a2.14,2.14,0,0,1,2.224,1.555l.124.778.926,6.03.927,6.03a4.059,4.059,0,0,0,.931,2.57,4.592,4.592,0,0,0,2.489,1.237l11.777,3.191,11.75,3.294-11.873-2.819-11.847-2.921a4.581,4.581,0,0,1-3.787-2.857c-.715-3.738-1.6-9.845-2.237-13.606-.069-.288-.075-.937-.357-1.147a1.35,1.35,0,0,0-1.047-.357l-3.05.01-1.525,0c-.864,0-1.825-.153-2.153.7-1.193,3.915-3.017,9.935-4.21,13.855-.555,1.924-2.509,3.006-4.35,3.312-7.9,1.95-15.8,3.883-23.728,5.71Z" style="fill:#a6abb0"/><path d="M268.772,216.36c8.28-2.463,16.882-3.924,25.107-6.493,4.044-1.437,7.783-3.725,11.679-5.541l5.844-2.846c1.964-.916,3.913-1.863,5.891-2.753-1.874,1.091-3.779,2.125-5.667,3.189-5.621,2.923-11.535,6.561-17.408,8.89-8.331,2.5-16.925,3.861-25.446,5.554Z" style="fill:#a6abb0"/><path d="M317.821,205.42c.3-4.187,9.576-6.87,12.777-4.66a1.7,1.7,0,0,1,.736,1.957,1.539,1.539,0,0,0-.991-1.526c-2.933-1.253-11.484.987-12.522,4.229Z" style="fill:#a6abb0"/><path d="M328.837,202.03c-1.775,2.711-6.788,2.746-8.766.251a10.461,10.461,0,0,0,8.766-.251Z" style="fill:#a6abb0"/><path d="M367.1,205.42c-1.032-3.234-9.58-5.485-12.522-4.229a1.54,1.54,0,0,0-.992,1.526,1.7,1.7,0,0,1,.736-1.956c3.193-2.209,12.477.466,12.778,4.659Z" style="fill:#a6abb0"/><path d="M356.08,202.03a10.461,10.461,0,0,0,8.766.251c-1.977,2.5-6.99,2.46-8.766-.251Z" style="fill:#a6abb0"/><path d="M258.733,201.945c14.485-.043,28.966.161,43.447.425a.478.478,0,0,1,.183.911l-6.434,2.868a16.692,16.692,0,0,1-6.894,1.97l-14.109-.272c-9.387-.253-18.775-.5-28.162-.883,9.394-.079,18.787-.013,28.181.043l14.063.167a15.766,15.766,0,0,0,6.518-1.937l6.452-2.827.183.912c-14.48-.337-28.957-.734-43.428-1.377Z" style="fill:#a6abb0"/><path d="M426.184,201.945c-14.47.643-28.947,1.04-43.427,1.377l.182-.912,6.452,2.827a15.774,15.774,0,0,0,6.518,1.937l14.064-.167c9.393-.056,18.786-.122,28.181-.043-9.387.388-18.775.63-28.163.883l-14.108.273a12.884,12.884,0,0,1-3.595-.605c-2.335-.812-7.409-3.255-9.733-4.234a.478.478,0,0,1,.182-.911c14.481-.264,28.962-.468,43.447-.425Z" style="fill:#a6abb0"/><path d="M416.146,216.36c-8.521-1.693-17.115-3.051-25.446-5.553-5.864-2.325-11.8-5.974-17.408-8.891-1.889-1.064-3.793-2.1-5.668-3.189,1.979.89,3.928,1.837,5.892,2.753l5.844,2.846c3.895,1.816,7.635,4.105,11.679,5.541,8.225,2.569,16.826,4.029,25.107,6.493Z" style="fill:#a6abb0"/><path d="M278.039,219.449c2.425-.829,4.871-1.575,7.306-2.365,4.369-1.163,10.555-2.421,14.636-4.221,2.339-.944,4.5-2.27,6.861-3.368a16.785,16.785,0,0,1,7.7-1.382c3.045.067,6.554,1.122,9.509,1.814.723.178,1.8.618,1.771,1.55a3.814,3.814,0,0,1-2.507,3.332,48.215,48.215,0,0,1-7.566,1.66,65.5,65.5,0,0,0,7.141-2.591,2.771,2.771,0,0,0,1.932-2.375c-.011-.161-.031-.177-.254-.322a14.7,14.7,0,0,0-2.628-.741c-4.686-1.266-10.14-2.206-14.678-.037-4.479,2.329-9.226,4.705-14.244,5.767-4.319,1.176-10.6,2.607-14.979,3.279Z" style="fill:#a6abb0"/><path d="M406.879,219.449c-7.462-1.789-15.141-2.9-22.312-5.709-4.671-1.983-8.836-5.141-14.158-4.668-3.157.076-6.221,1.053-9.305,1.682-.591.161-1.22.359-1.184.744a3.008,3.008,0,0,0,2,2.615,63.132,63.132,0,0,0,7.248,2.356,50.761,50.761,0,0,1-7.459-1.895,3.7,3.7,0,0,1-2.2-2.051c-.308-.673-.4-1.706.437-2.08a39.915,39.915,0,0,1,10.432-2.289,16.606,16.606,0,0,1,7.7,1.345c2.353,1.11,4.507,2.449,6.844,3.408,7.085,2.848,14.691,4.213,21.961,6.542Z" style="fill:#a6abb0"/><path d="M355.168,194.263c.008.286-.247.493-.459.647a8.667,8.667,0,0,1-2.262.9,40.9,40.9,0,0,1-9.588,1.023c-3.961-.133-8.229-.124-11.85-1.923-.212-.155-.467-.362-.459-.648.047.275.311.408.534.517,2.472,1.295,22.94,1.774,24.084-.517Z" style="fill:#a6abb0"/></g><g id="f7b554ac-84a3-4abc-8415-2b9238dfa558" data-name="illustration"><path d="M87.3,104l.962-5.591A18.31,18.31,0,0,1,89.6,94.016L126.3,12.3c6.564,6.371,9.46,8.3,18.92,10.232s91.508,14.093,108.3,16.024S279,39.521,279,39.521l1.544,2.317c2.124,31.661,3.264,35.793,21.43,36.873,35.715,2.124,170.082,10.554,189.774,10.94,19.934.391,16.525,1.639,63.959-19.927l.52,4.161c-27.414,19.3-30.309,25.676-64.094,25.483s-124.714-.579-190.352-1.544-168.538,1.951-185.14,2.53A163.458,163.458,0,0,0,87.3,104Z" style="fill:#cfd2d4"/><path d="M278.414,39.574c2.328,31.705.986,38.305,23.564,39.637" style="fill:none;stroke:#30373e;stroke-linecap:round;stroke-linejoin:round;stroke-width:0.5px"/><path d="M126.3,12.3c6.564,6.371,9.46,8.3,18.92,10.232s91.508,14.093,108.3,16.024a168.243,168.243,0,0,0,19.04,1.206c4.271,0,6.443-.241,6.443-.241l1.544,2.317c2.124,31.661,3.264,35.793,21.43,36.873,35.715,2.124,170.082,10.554,189.774,10.94,3.382.067,6.094.158,8.5.158,11.747,0,16.078-2.178,55.464-20.085l.52,4.161C529.219,92.908,526.007,99.372,493.6,99.372c-.481,0-.965,0-1.46,0-33.785-.193-124.714-.579-190.352-1.544-9.191-.135-19.117-.194-29.429-.194-63.338,0-141.433,2.226-155.711,2.724A163.458,163.458,0,0,0,87.3,104l.962-5.591A18.31,18.31,0,0,1,89.6,94.016L126.3,12.3m0-2a2,2,0,0,0-1.825,1.181L87.779,93.2a20.329,20.329,0,0,0-1.488,4.875l-.962,5.59a2,2,0,0,0,2.439,2.284,163.121,163.121,0,0,1,28.946-3.593c12.843-.448,91.561-2.723,155.642-2.723,10.754,0,20.645.065,29.4.194,56.939.837,133.152,1.24,174.1,1.456l16.273.088c.5,0,.987,0,1.472,0,28.262,0,35.054-4.962,53.205-18.226,3.091-2.258,6.594-4.818,10.581-7.626a2,2,0,0,0,.833-1.883l-.52-4.161a2,2,0,0,0-2.813-1.573l-4.277,1.945c-34.989,15.916-39.485,17.961-50.359,17.961-1.6,0-3.331-.041-5.341-.088-.975-.023-2.009-.047-3.115-.069-15.483-.3-103.31-5.671-155.785-8.877-14.374-.879-26.351-1.611-33.91-2.06-16.3-.97-17.4-2.933-19.552-35.011a2,2,0,0,0-.331-.976l-1.545-2.316A2,2,0,0,0,279,37.521a2.059,2.059,0,0,0-.221.012c-.019,0-2.143.229-6.222.229a166.95,166.95,0,0,1-18.812-1.193c-16.551-1.9-98.408-14.012-108.132-16-9.049-1.847-11.632-3.6-17.927-9.708A2,2,0,0,0,126.3,10.3Z" style="fill:#f4f4f4"/><path d="M87.3,104l.962-5.591A18.31,18.31,0,0,1,89.6,94.016L126.3,12.3c6.564,6.371,9.46,8.3,18.92,10.232s91.508,14.093,108.3,16.024S279,39.521,279,39.521l1.544,2.317c2.124,31.661,3.264,35.793,21.43,36.873,35.715,2.124,170.082,10.554,189.774,10.94,19.934.391,16.525,1.639,63.959-19.927l.52,4.161c-27.414,19.3-30.309,25.676-64.094,25.483s-124.714-.579-190.352-1.544-168.538,1.951-185.14,2.53A163.458,163.458,0,0,0,87.3,104Z" style="fill:none;stroke:#30373e;stroke-linecap:round;stroke-linejoin:round;stroke-width:1.5px"/></g><g id="ea016e6e-87e7-4583-b0a9-1d7fd1983e03" data-name="above"><path d="M261.612,6.44c12.878,3.187,31.43,10.654,44.238,14.966,27.609,9.8,103.354,36.708,132.006,46.884l21.981,7.868c14.381,5.276,29.484,10.522,44.992,9.264a49.139,49.139,0,0,0,16.582-4.277c5.215-2.493,10.3-5.421,15.382-8.212,2.249-1.283,6.649-3.743,8.867-5.046a2.453,2.453,0,0,0,1.33-3.267l-.29-.672-.577-1.343-2.256-5.4c-4.432-10.822-8.488-21.8-12.029-32.947a129.034,129.034,0,0,1-5.53-22.718c2.518,7.4,4.619,14.852,6.972,22.258,4.133,12.911,8.994,25.7,14.318,38.171a23.06,23.06,0,0,1,1.139,2.861,4.094,4.094,0,0,1-2.263,4.455l-1.263.734-2.53,1.46c-6.751,3.788-13.607,7.836-20.563,11.21-12.635,5.97-27.288,5.542-40.571,2.3-13.248-3.166-31.273-10.56-44.328-14.928-28.8-10.315-103.961-37.217-131.882-47.222-12.439-4.7-31.735-10.717-43.725-16.4Z" style="fill:#a6abb0"/><path d="M274.759,8.445c39.03,13.247,98.383,35.016,137.842,48.893,11.536,4.116,40.536,14.456,51.658,18.424,11.4,4.08,23.337,7.45,35.54,7.227a50.714,50.714,0,0,0,17.765-3.426c4.977-1.9,11.485-5.8,16.277-8.235,2.678-1.45,5.345-2.919,7.965-4.465a28.1,28.1,0,0,0,3.758-2.437,2.95,2.95,0,0,0,.73-1.927,4.9,4.9,0,0,0-.623-2.069c-.145-.3.341-.5.459-.2,1.06,1.822.859,4.2-1.133,5.286l-.974.6c-3.251,1.971-6.607,3.855-9.944,5.651-4.875,2.447-11.31,6.337-16.333,8.26a51.194,51.194,0,0,1-17.937,3.461c-12.277.224-24.262-3.158-35.719-7.257-11.018-3.926-40.293-14.371-51.658-18.423C373.008,43.553,313.575,22.961,274.759,8.445Z" style="fill:#a6abb0"/><path d="M525.728,29.482c-7.236-3.151-18.3-8.87-25.463-12.392-7.152-3.6-18.334-8.954-25.242-12.84,7.237,3.153,18.3,8.869,25.464,12.392,7.152,3.6,18.334,8.953,25.241,12.84Z" style="fill:#a6abb0"/></g><g id="acec7609-990e-405d-9e51-eecb6870882c" data-name="arrows/icons"><path d="M137.361,34.443c-.251,1.49-.956,1.928-1.515,1.928s-1.269-.439-1.523-1.933h.559c-.081-.754-.121-2.47-.121-4.1h2.16c0,1.631-.04,3.348-.12,4.1Z" style="fill:#f4ae3d;stroke:#30373e;stroke-linecap:round;stroke-linejoin:round"/><path d="M115.682,77.155c-.158,1.5-.835,1.983-1.393,2.018s-1.293-.361-1.639-1.836l.558-.034c-.127-.748-.273-2.459-.373-4.083l1.078-.066,1.078-.067c.1,1.628.166,3.344.133,4.1Z" style="fill:#f4ae3d;stroke:#30373e;stroke-linecap:round;stroke-linejoin:round"/><path d="M211.3,45.465c-.25,1.49-.955,1.928-1.514,1.928s-1.269-.439-1.523-1.933h.559c-.081-.754-.121-2.47-.121-4.1h2.16c0,1.631-.04,3.348-.12,4.1Z" style="fill:#f4ae3d;stroke:#30373e;stroke-linecap:round;stroke-linejoin:round"/><path d="M272.88,50.891c-.251,1.489-.956,1.928-1.515,1.928s-1.268-.44-1.523-1.933h.56c-.081-.755-.122-2.471-.122-4.1h2.16c0,1.631-.04,3.348-.12,4.1Z" style="fill:#f4ae3d;stroke:#30373e;stroke-linecap:round;stroke-linejoin:round"/><path d="M241.61,94.384c-.251,1.489-.956,1.928-1.515,1.928s-1.268-.44-1.523-1.933h.559c-.081-.755-.121-2.471-.121-4.1h2.16c0,1.631-.04,3.348-.12,4.1Z" style="fill:#f4ae3d;stroke:#30373e;stroke-linecap:round;stroke-linejoin:round"/><path d="M326.045,94.709c-.25,1.49-.955,1.928-1.514,1.928s-1.269-.439-1.523-1.933h.559c-.081-.754-.121-2.47-.121-4.1h2.16c0,1.631-.04,3.349-.12,4.1Z" style="fill:#f4ae3d;stroke:#30373e;stroke-linecap:round;stroke-linejoin:round"/><path d="M424.347,95.965c-.25,1.489-.955,1.927-1.514,1.927s-1.269-.439-1.523-1.933h.559c-.081-.754-.121-2.47-.121-4.1h2.16c0,1.631-.04,3.348-.12,4.1Z" style="fill:#f4ae3d;stroke:#30373e;stroke-linecap:round;stroke-linejoin:round"/><path d="M535.28,88.22c-.251,1.489-.956,1.928-1.515,1.928s-1.268-.44-1.522-1.933h.559c-.081-.754-.122-2.471-.122-4.1h2.16c0,1.631-.039,3.348-.119,4.1Z" style="fill:#f4ae3d;stroke:#30373e;stroke-linecap:round;stroke-linejoin:round"/><ellipse cx="113.913" cy="73.154" rx="3.373" ry="2.907" style="fill:#f4ae3d;stroke:#30373e;stroke-linecap:round;stroke-linejoin:round"/><ellipse cx="135.842" cy="30.339" rx="3.373" ry="2.907" style="fill:#f4ae3d;stroke:#30373e;stroke-linecap:round;stroke-linejoin:round"/><ellipse cx="209.78" cy="41.362" rx="3.373" ry="2.907" style="fill:#f4ae3d;stroke:#30373e;stroke-linecap:round;stroke-linejoin:round"/><ellipse cx="271.36" cy="46.788" rx="3.373" ry="2.907" style="fill:#f4ae3d;stroke:#30373e;stroke-linecap:round;stroke-linejoin:round"/><ellipse cx="240.09" cy="90.281" rx="3.373" ry="2.907" style="fill:#f4ae3d;stroke:#30373e;stroke-linecap:round;stroke-linejoin:round"/><ellipse cx="324.526" cy="90.606" rx="3.373" ry="2.907" style="fill:#f4ae3d;stroke:#30373e;stroke-linecap:round;stroke-linejoin:round"/><ellipse cx="422.828" cy="91.862" rx="3.373" ry="2.907" style="fill:#f4ae3d;stroke:#30373e;stroke-linecap:round;stroke-linejoin:round"/><ellipse cx="533.76" cy="84.117" rx="3.373" ry="2.907" transform="translate(-3.014 146.154) rotate(-15.548)" style="fill:#f4ae3d;stroke:#30373e;stroke-linecap:round;stroke-linejoin:round"/></g><g id="f9abc0ec-9be2-460d-a40e-5784f10b6ea7" data-name="inset"><polygon points="113.996 25.766 107.715 25.766 121.185 61.901 95.465 25.766 89.184 25.766 93.193 11.408 113.996 25.766" style="fill:none;stroke:#f4f4f4;stroke-linecap:round;stroke-miterlimit:10;stroke-width:3px"/><polygon points="113.996 25.766 107.715 25.766 121.185 61.901 95.465 25.766 89.184 25.766 93.193 11.408 113.996 25.766" style="fill:#f4ae3d"/><polygon points="471.553 48.147 477.834 48.147 464.364 84.282 490.084 48.147 496.365 48.147 492.356 33.789 471.553 48.147" style="fill:none;stroke:#f4f4f4;stroke-linecap:round;stroke-miterlimit:10;stroke-width:3px"/><polygon points="471.553 48.147 477.834 48.147 464.364 84.282 490.084 48.147 496.365 48.147 492.356 33.789 471.553 48.147" style="fill:#f4ae3d"/><polygon points="263.527 25.251 257.701 25.251 251.948 61.386 246.338 25.251 240.511 25.251 252.044 10.893 263.527 25.251" style="fill:none;stroke:#f4f4f4;stroke-linecap:round;stroke-miterlimit:10;stroke-width:3px"/><polygon points="263.527 25.251 257.701 25.251 251.948 61.386 246.338 25.251 240.511 25.251 252.044 10.893 263.527 25.251" style="fill:#f4ae3d"/></g></svg>