<?xml version="1.0" encoding="UTF-8"?><svg xmlns="http://www.w3.org/2000/svg" width="650" height="229.281" xmlns:xlink="http://www.w3.org/1999/xlink" viewBox="0 0 650 229.281"><defs><linearGradient id="uuid-f81f3fb9-d44f-4904-b5e7-b1be704b716e" x1="447.436" y1="-69.252" x2="446.729" y2="-73.78" gradientTransform="translate(-1.656 -13.574) rotate(11.908)" gradientUnits="userSpaceOnUse"><stop offset="0" stop-color="#f4ae3d"/><stop offset="1" stop-color="#f4ae3d" stop-opacity="0"/></linearGradient><linearGradient id="uuid-f145367e-6760-4ca9-b711-04e9d4277a6c" x1="490.822" y1="175.388" x2="488.127" y2="175.948" gradientTransform="translate(-25.758 19.762) rotate(-11.201)" gradientUnits="userSpaceOnUse"><stop offset="0" stop-color="#f4f4f4"/><stop offset="1" stop-color="#f4f4f4" stop-opacity="0"/></linearGradient><linearGradient id="uuid-2025e0d6-2aa5-452e-9271-75069036427f" x1="459.898" y1="154.236" x2="451.123" y2="156.06" xlink:href="#uuid-f145367e-6760-4ca9-b711-04e9d4277a6c"/><linearGradient id="uuid-db902ec3-2214-4a83-b2e5-65f5726faad4" x1="288.121" y1="55.407" x2="288.121" y2="56.568" gradientUnits="userSpaceOnUse"><stop offset="0" stop-color="#cfd2d4"/><stop offset="1" stop-color="#cfd2d4" stop-opacity="0"/></linearGradient><linearGradient id="uuid-c0d002e7-7b85-4f01-85ad-8903dd6b8e78" x1="465.122" y1="198.333" x2="465.067" y2="198.345" xlink:href="#uuid-f145367e-6760-4ca9-b711-04e9d4277a6c"/><linearGradient id="uuid-87143237-cfa6-49e9-90c1-807763f7161b" x1="459.387" y1="234.104" x2="439.418" y2="238.256" xlink:href="#uuid-f145367e-6760-4ca9-b711-04e9d4277a6c"/><linearGradient id="uuid-05f0c9c5-4bae-47eb-a237-4f9fe0a1c839" x1="489.592" y1="72.147" x2="489.592" y2="123.116" gradientUnits="userSpaceOnUse"><stop offset="0" stop-color="#cfd2d4" stop-opacity="0"/><stop offset="1" stop-color="#cfd2d4" stop-opacity=".75"/></linearGradient><linearGradient id="uuid-37b228db-3bfd-4501-ad27-33b3b8e35d59" x1="166.315" y1="86.818" x2="173.454" y2="86.818" gradientUnits="userSpaceOnUse"><stop offset="0" stop-color="#f4ae3d" stop-opacity="0"/><stop offset="1" stop-color="#f4ae3d"/></linearGradient><linearGradient id="uuid-af3877a5-297b-40e2-882f-163a3aa2d10a" x1="166.056" y1="86.818" x2="233.587" y2="86.818" xlink:href="#uuid-37b228db-3bfd-4501-ad27-33b3b8e35d59"/></defs><g id="uuid-797b0dc3-06ed-4508-9132-7b2349764041"><g style="opacity:.4;"><path d="m451.234,6.247l-.233,13.501c-.005.33-1.561.333-1.556.003l.236-13.698" style="fill:url(#uuid-f81f3fb9-d44f-4904-b5e7-b1be704b716e); stroke:#30373e; stroke-linecap:round; stroke-linejoin:round; stroke-width:.75px;"/><polygon points="452.461 21.895 451.835 22.897 449.579 23.13 447.937 22.369 447.961 17.051 448.878 15.936 451.141 15.816 452.54 16.577 452.461 21.895" style="fill:#f4ae3d; stroke:#30373e; stroke-linecap:round; stroke-linejoin:round; stroke-width:.75px;"/><path d="m451.042,25.95l.122-3.559c-.013-.148-.485-.313-1.072-.363s-1.036.036-1.023.184l.013,3.798c-1.12,1.603-3.249,6.416-3.48,10.722-.279,5.187,1.956,8.962,5.95,9.274,2.279.178,3.23-2.355,3.211-4.754-.027-3.447-3.697-15.277-3.72-15.302Zm-.955,17.497c-1.661-.983-2.657-3.925-2.611-6.81.036-2.254,1.669-6.37,2.561-8.373.743,2.734,2.809,9.553,2.771,11.94-.038,2.441-1.093,4.191-2.721,3.243Z" style="fill:#f4ae3d; stroke:#30373e; stroke-linecap:round; stroke-linejoin:round; stroke-width:.75px;"/><line x1="449.116" y1="15.962" x2="449.031" y2="21.093" style="fill:none; stroke:#30373e; stroke-linecap:round; stroke-linejoin:round; stroke-width:.75px;"/><line x1="451.141" y1="15.816" x2="451.038" y2="21.091" style="fill:none; stroke:#30373e; stroke-linecap:round; stroke-linejoin:round; stroke-width:.75px;"/><path d="m479.928,79.226c1.341,4.958,2.055,7.933,2.726,8.239,2.701,1.21,3.06,5.136,3.937,6.096,3.904,4.276,10.725,9.874,18.019,18.039" style="fill:url(#uuid-f145367e-6760-4ca9-b711-04e9d4277a6c); stroke:#30373e; stroke-linecap:round; stroke-linejoin:round; stroke-width:1.5px;"/><path d="m468.977,123.432c-3.08-16.295-6.677-23.652-8.001-25.455-3.039-5.931-9.177-4.014-13.959-12.27-2.651-4.576-7.072-12.366-7.465-14.272l-2.987-12.22c-.27-1.363-.247-2.755.068-4.1l.876-3.634c-.029-1.426-.153-2.505.066-3.279.107-.364.26-.797.547-1.152q.011-.017.023-.034c.345-.441.874-.784,1.663-.866,2.746-.29,5.592,3.158,4.656,10.935l1.388,6.183,6.346,5.157,2.35-7.639-.403-11.375-2.812-5.767c-1.662.419-3.358-1.14-4.553-3.409l.556-1.333c.404-.975,1.174-1.754,2.15-2.171l4.043-1.725c1.499-.64,3.219-.011,3.968,1.437l.023.04,6.574,11.808,2.314.616c1.494.39,2.706,1.463,3.286,2.884l1.077,2.65,3.992,8.486c.38.79.68,1.625.962,2.449,1.892,5.504,3.214,10.211,4.199,13.85" style="fill:url(#uuid-2025e0d6-2aa5-452e-9271-75069036427f); stroke:#30373e; stroke-linecap:round; stroke-linejoin:round; stroke-width:1.5px;"/><path d="m437.593,50.872l.31,1.893s1.378-.542,3.271-.421c.637-1.794.053-4.957.053-4.957-1.165-1.259-2.889-.875-3.631.203" style="fill:none; stroke:#30373e; stroke-linecap:round; stroke-linejoin:round; stroke-width:.5px;"/><path d="m464.095,48.289l1.338,1.788c.684.914,1.02,2.042.949,3.181l-.192,3.068" style="fill:none; stroke:#30373e; stroke-linecap:round; stroke-linejoin:round;"/></g><polyline points="286.767 56.729 286.767 54.382 289.475 54.382 289.475 56.729" style="fill:url(#uuid-db902ec3-2214-4a83-b2e5-65f5726faad4); stroke-width:0px;"/><path d="m286.767,56.729l-.25-2.347c-.013-.124.077-.236.201-.249.012,0,.037-.002.049-.001h2.708c.142-.013.267.107.25.25,0,0-.25,2.347-.25,2.347l-.25-2.347.25.25h-2.708l.25-.25-.25,2.347h0Z" style="fill:#30373e; stroke-width:0px;"/><ellipse cx="288.121" cy="54.382" rx="1.354" ry=".677" style="fill:#cfd2d4; stroke:#30373e; stroke-miterlimit:10; stroke-width:.5px;"/><path d="m277.567,170.602v-45.732c.016-10.377.027-19.035.027-21.913,0-11.27,2.268-12.673,7.448-12.673,2.08,0,7.573-.045,13.168-.065,5.595.02,11.088.065,13.168.065,5.18,0,7.448,1.403,7.448,12.673v25.341" style="fill:none; stroke:#a6abb0; stroke-linecap:round; stroke-linejoin:round; stroke-width:.5px;"/><line x1="319.325" y1="166.568" x2="319.325" y2="128.307" style="fill:none; stroke:#a6abb0; stroke-linecap:round; stroke-linejoin:round; stroke-width:1.5px;"/><path d="m277.081,192.628c.015,4.844.014,8.727.013,10.954,0,.406,0,.757,0,1.049,0,5.624.557,8.944,1.87,10.847.48.696,1.059,1.2,1.737,1.556,1.199.629,2.667.771,4.341.771,1.021,0,2.869.011,5.15.024,2.356.014,5.173.03,8.019.041,2.843-.01,5.66-.027,8.016-.041,2.282-.013,4.129-.024,5.15-.024,2.245,0,4.127-.253,5.484-1.61,1.751-1.751,2.464-5.185,2.464-11.563v-7.636" style="fill:none; stroke:#a6abb0; stroke-linecap:round; stroke-linejoin:round; stroke-width:1.5px;"/><path d="m389.033,103.836c14.498,10.242,28.947,20.763,44.573,29.225,9.681,4.594,20.563,5.419,31.046,6.968-10.572-.933-21.513-1.992-31.246-6.558-9.488-4.942-18.295-11.045-27.182-16.965-5.877-4.013-11.735-8.084-17.191-12.67h0Z" style="fill:#a6abb0; stroke-width:0px;"/><path d="m555.619,196.926c-2.169,1.836-3.887,3.303-6.742,5.095-22.202,13.934-52.061,6.332-66.691-16.98-4.572-7.285-7.116-15.242-7.775-23.165" style="fill:none; stroke:#a6abb0; stroke-linecap:round; stroke-linejoin:round;"/><path d="m523.841,162.567h-59.525c-10.016.241-20.17-2.054-28.977-6.888-8.755-4.842-16.809-10.659-24.817-16.607-11.796-8.983-23.156-19.966-28.376-34.218-1.742-4.702-2.747-9.8-2.59-14.826.063-5.616-.146-32.141.114-37.266.744-7.627,4.31-14.82,9.804-20.164,0,0,.013-.012.013-.012l-.252.556.54-13.163.567-13.157.183,13.167.21,13.162c.005.231-.101.426-.262.566-5.144,5.013-8.63,11.971-9.308,19.176-.226,4.767-.063,31.791-.109,37.135-.228,20.299,15.157,36.31,30.376,47.852,3.926,3,7.971,5.853,12.067,8.633,8.096,5.558,16.549,10.916,26.22,13.078,4.765,1.131,9.665,1.527,14.597,1.477h59.525c.414,0,.75.336.75.75,0,.414-.336.75-.75.75h0Z" style="fill:#a6abb0; stroke-width:0px;"/><line x1="486.854" y1="134.454" x2="471.315" y2="161.817" style="fill:none; stroke:#a6abb0; stroke-linecap:round; stroke-linejoin:round; stroke-width:.5px;"/><line x1="486.854" y1="134.454" x2="471.315" y2="161.817" style="fill:none; stroke:#a6abb0; stroke-linecap:round; stroke-linejoin:round; stroke-width:.5px;"/><path d="m389.985,34.023c3.524-3.038,11.908-7.534,21.628-12.394,9.721-4.86,24.666-12.758,24.666-12.758" style="fill:none; stroke:#a6abb0; stroke-linecap:round; stroke-linejoin:round; stroke-width:.5px;"/><path d="m411.614,21.629c9.721-4.86,24.666-12.758,24.666-12.758" style="fill:none; stroke:#a6abb0; stroke-linecap:round; stroke-linejoin:round; stroke-width:.5px;"/><path d="m435.186,23.183c-.729,9.356-1.701,13.73-11.422,21.385-9.721,7.655-20.899,14.216-30.013,21.507-9.113,7.29-12.758,10.571-12.758,16.282" style="fill:none; stroke:#a6abb0; stroke-linecap:round; stroke-linejoin:round; stroke-width:.5px;"/><path d="m483.614,5.918c-.372,1.211-.742,2.424-1.109,3.638-1.903,6.292-4.41,14.852-7.217,25.117" style="fill:none; stroke:#a6abb0; stroke-linecap:round; stroke-linejoin:round; stroke-width:.5px;"/><ellipse cx="482.787" cy="33.219" rx="4.447" ry="4.56" transform="translate(267.579 466.661) rotate(-67.531)" style="fill:none; stroke:#a6abb0; stroke-linecap:round; stroke-linejoin:round; stroke-width:.5px;"/><ellipse cx="482.787" cy="33.219" rx="2.315" ry="2.374" transform="translate(267.579 466.661) rotate(-67.531)" style="fill:none; stroke:#a6abb0; stroke-linecap:round; stroke-linejoin:round; stroke-width:.5px;"/><path d="m465.102,156.477c-9.031-.568-18.636-.806-26.855-5.045-13.237-7.552-26.015-16.045-37.619-25.942,12.084,9.266,24.615,17.971,37.882,25.458,8.135,4.28,17.656,4.242,26.591,5.528h0Z" style="fill:#a6abb0; stroke-width:0px;"/><ellipse cx="492.003" cy="138.738" rx="2.055" ry=".857" style="fill:none; stroke:#a6abb0; stroke-linecap:round; stroke-linejoin:round; stroke-width:.5px;"/><ellipse cx="504.341" cy="141.782" rx="2.055" ry=".857" style="fill:none; stroke:#a6abb0; stroke-linecap:round; stroke-linejoin:round; stroke-width:.5px;"/><path d="m516.018,147.196c-7.623,0-12.361.187-12.361-.917s4.678-1.633,10.267-2.736" style="fill:none; stroke:#a6abb0; stroke-linecap:round; stroke-linejoin:round; stroke-width:.5px;"/><line x1="483.709" y1="150.28" x2="484.6" y2="150.28" style="fill:none; stroke:#a6abb0; stroke-linecap:round; stroke-linejoin:round; stroke-width:.5px;"/><line x1="480.55" y1="154.492" x2="481.441" y2="154.492" style="fill:none; stroke:#a6abb0; stroke-linecap:round; stroke-linejoin:round; stroke-width:.5px;"/><line x1="477.714" y1="158.462" x2="478.605" y2="158.462" style="fill:none; stroke:#a6abb0; stroke-linecap:round; stroke-linejoin:round; stroke-width:.5px;"/><path d="m542.911,186.178c-12.522,5.701-28.145,3.203-38.953-7.396-4.959-4.863-8.232-10.773-9.796-16.965" style="fill:none; stroke:#a6abb0; stroke-linecap:round; stroke-linejoin:round; stroke-width:.5px;"/><path d="m389.758,30.265c-.377-6.395,3.75-10.857,8.925-13.938,3.695-2.248,7.61-4.075,11.625-5.655,1.347-.498,2.707-.96,4.081-1.378-1.294.631-2.605,1.207-3.923,1.766-8.301,3.864-20.548,8.213-20.209,19.204.01.319-.505.329-.5,0h0Z" style="fill:#a6abb0; stroke-width:0px;"/><path d="m469.169,124.462c-.064-.347-.128-.691-.192-1.031" style="fill:url(#uuid-c0d002e7-7b85-4f01-85ad-8903dd6b8e78); stroke:#30373e; stroke-linecap:round; stroke-linejoin:round; stroke-width:1.5px;"/><path d="m504.609,111.6c1.281,1.434,2.577,2.948,3.874,4.547,14.113,17.415,17.659,27.524,21.853,40.341,1.586,4.846,2.464,14.294-8.682,18.112-19.423,6.456-37.671,11.845-63.539,18.593,2.065-14.578-5.293-43.07-13.288-49.928l26.316-5.902c-.606-4.799-1.276-9.085-1.975-12.9" style="fill:url(#uuid-87143237-cfa6-49e9-90c1-807763f7161b); stroke:#30373e; stroke-linecap:round; stroke-linejoin:round; stroke-width:1.5px;"/><path d="m471.147,137.712c6.54-1.34,9.458-5.449,15.3-4.727" style="fill:none; stroke:#30373e; stroke-linecap:round; stroke-linejoin:round;"/><path d="m625.726,165.289c-12.268-4.661-22.888-12.991-32.121-22.18-23.043-23.373-35.087-57.281-30.907-89.934,0,0,.291-2.44.291-2.44.988-5.615,1.82-11.408,4.25-16.618-.688,4.86-2.287,9.485-2.936,14.346-.231,1.206-.562,3.604-.676,4.823-3.956,32.341,8.089,65.835,30.752,89.068,9.001,9.509,20.005,16.526,31.347,22.935h0Z" style="fill:#a6abb0; stroke-width:0px;"/><path d="m641.731,179.102c-61.02-15.137-99.647-80.825-83.709-141.552,1.567-6.261,3.823-12.529,6.534-18.379.973-1.941,1.986-3.863,3.059-5.745-3.585,7.858-7.171,15.793-9.165,24.235-8.864,33.59-.704,70.705,20.104,98.33,15.498,20.967,38.229,35.87,63.177,43.111h0Z" style="fill:#a6abb0; stroke-width:0px;"/><path d="m641.266,216.822c-78.83-15.43-133.857-96.527-121.382-175.476,1.275-7.699,3.044-16.25,5.744-23.559-.638,2.625-1.331,5.225-2.076,7.811l-1.824,7.865-1.41,7.949c-12.196,79.927,42.134,158.085,120.947,175.411h0Z" style="fill:#a6abb0; stroke-width:0px;"/><path d="m402.398,145.517s13.819-1.291,23.15-1.427c8.907-.13,8.288-2.191,15.808-2.343,11.818-.239,24.392,55.513,11.21,60.073-9.041,3.127-22.934,8.994-30.805,10.868" style="fill:none; stroke:#30373e; stroke-linecap:round; stroke-linejoin:round; stroke-width:1.5px;"/><path d="m305.437,170.185c.571-.117.911-.186.911-.186l15.035-3.196" style="fill:none; stroke:#30373e; stroke-linecap:round; stroke-linejoin:round;"/><path d="m322.432,197.784l-9.472-3.905s-1.839-.663-8.485.302-7.462.539-9.942.354c-2.315-.172-3.754-6.471-3.995-12.242" style="fill:none; stroke:#30373e; stroke-linecap:round; stroke-linejoin:round;"/><path d="m484.243,61.205l-8.472,36.097c-8.542,33.549,19.587,32.906,28.496,33.666,0,0-5.221-27.037-1.969-52.204,0,0,.879-12.582,2.712-18.053" style="fill:url(#uuid-05f0c9c5-4bae-47eb-a237-4f9fe0a1c839); stroke-width:0px;"/><path d="m477.504,90.064c-7.531,29.576,17.268,29.01,25.122,29.679" style="fill:none; stroke:#30373e; stroke-linecap:round; stroke-linejoin:round; stroke-width:.5px;"/><path d="m475.77,97.303c-8.542,33.549,19.587,32.906,28.496,33.666,0,0-3.687-26.607-2.084-52.088" style="fill:none; stroke:#30373e; stroke-linecap:round; stroke-linejoin:round; stroke-width:1.5px;"/><ellipse cx="491.222" cy="123.393" rx=".675" ry="1.119" transform="translate(-10.694 191.253) rotate(-21.801)" style="fill:none; stroke:#30373e; stroke-linecap:round; stroke-linejoin:round; stroke-width:.5px;"/><path d="m642.346,222.734c-68.094,2.154-121.828-37.308-137.062-104.166-6.958-28.257-4.933-51.187,5.283-78.288,4.032-10.128,8.133-20.383,14.344-29.407-2.186,5.867-5.203,11.286-7.722,16.987-2.501,5.565-4.895,11.497-6.874,17.29-5.047,14.626-8.179,30.031-7.568,45.518,1.344,21.593,7.129,43.018,16.988,62.274,16.514,33.601,49.11,57.676,85.711,64.926,12.129,2.673,24.488,3.56,36.9,4.866h0Z" style="fill:#a6abb0; stroke-width:0px;"/><path d="m250.493,157.504v-26.714c.016-10.389.027-19.038.027-21.913,0-6.537.533-13.357,4.397-18.955,3.89-5.635,9.887-8.493,17.827-8.493,1.001,0,2.807-.01,5.035-.023,2.373-.014,17.511-.031,20.378-.042,2.972.01,5.812.028,8.184.042,2.229.013,11.975.023,12.977.023" style="fill:none; stroke:#a6abb0; stroke-linecap:round; stroke-linejoin:round; stroke-width:.5px;"/><path d="m288.127,54.37c-.276,0-.5-.133-.5-.298,0-.742-.639-2.789-1.256-4.187-.558-1.262-1.084-2.452-1.084-3.425,0-2.075,1.194-3.581,2.84-3.581s2.84,1.506,2.84,3.581c0,.973-.526,2.163-1.084,3.425-.617,1.397-1.256,3.445-1.256,4.187,0,.165-.224.298-.5.298Zm0-10.491c-1.066,0-1.84,1.086-1.84,2.581,0,.761.485,1.858.998,3.021.289.653.595,1.346.842,2.045.247-.699.553-1.392.842-2.045.513-1.162.998-2.26.998-3.021,0-1.495-.773-2.581-1.84-2.581Z" style="fill:#cfd2d4; stroke:#30373e; stroke-miterlimit:10; stroke-width:.5px;"/><path d="m292.328,192.131s-12.352.775-19.735-.551c-3.791-.681-6.741-1.075-6.741-1.075-1.532-.094-3.018-.656-4.038-1.803l-11.337-13.135" style="fill:none; stroke:#30373e; stroke-linecap:round; stroke-linejoin:round;"/><g style="opacity:.4;"><path d="m232.456,143.115c-.739-.334-1.221-1.267-1.221-2.449,0-.77.48-1.86,1-3.03.29-.65.59-1.34.84-2.04.25.7.55,1.39.84,2.04.51,1.17,1,2.26,1,3.03,0,.1,0,.19-.02.28l.8,1.17c.14-.44.22-.93.22-1.45,0-.98-.53-2.17-1.09-3.43-.61-1.4-1.25-2.84-1.25-4.09,0-.27-.22-.5-.5-.5s-.5.23-.5.5c0,1.25-.64,2.69-1.26,4.09-.55,1.26-1.08,2.45-1.08,3.43,0,1.34.5,2.44,1.3,3.05l.921-.601Z" style="fill:#f4ae3d; stroke:#30373e; stroke-miterlimit:10; stroke-width:.5px;"/><ellipse cx="233.074" cy="134.416" rx="1.057" ry=".362" style="fill:#f4ae3d; stroke:#30373e; stroke-width:.5px;"/><ellipse cx="233.074" cy="133.477" rx="1.635" ry=".692" style="fill:#f4ae3d; stroke:#30373e; stroke-width:.5px;"/><ellipse cx="231.99" cy="117.46" rx="1.166" ry="1.639" style="fill:#f4ae3d; stroke:#30373e; stroke-width:.5px;"/><path d="m233.919,116.642v16.428c0,.156-.372.283-.826.283s-.826-.127-.826-.283v-16.428c0,.156.372.283.826.283s.826-.127.826-.283Z" style="fill:#f4ae3d; fill-rule:evenodd; stroke:#30373e; stroke-linecap:round; stroke-linejoin:round; stroke-width:.5px;"/><ellipse cx="234.272" cy="130.747" rx="1.095" ry="1.54" style="fill:#f4ae3d; stroke:#30373e; stroke-width:.5px;"/><ellipse cx="234.745" cy="130.747" rx=".515" ry=".724" style="fill:#f4ae3d; stroke:#30373e; stroke-width:.5px;"/><path d="m232.08,115.967c0-.192.456-.347,1.013-.347s1.013.155,1.013.347v.611c0,.192-.456.347-1.013.347s-1.013-.155-1.013-.347v-.611Z" style="fill:#f4ae3d; fill-rule:evenodd; stroke:#30373e; stroke-linecap:round; stroke-linejoin:round; stroke-width:.5px;"/><line x1="235.73" y1="142.159" x2="238.353" y2="145.418" style="fill:none; stroke:#30373e; stroke-linecap:round; stroke-linejoin:round;"/><path d="m250.478,175.566l-10.945-12.681c-.223-.258-.498-.465-.808-.607l-2.515-1.149c-1.464-.669-2.75-1.673-3.754-2.931l-4.076-5.106" style="fill:none; stroke:#30373e; stroke-linecap:round; stroke-linejoin:round;"/><path d="m234.575,145.843c.231.336.316.751.237,1.152s-.316.752-.657.975c-.691.453-1.618.271-2.085-.411l-1.536-2.241c-.118-.172-.161-.383-.121-.587s.161-.383.335-.498l1.244-.816c.352-.231.825-.138,1.064.21l1.519,2.216Z" style="fill:none; stroke:#30373e; stroke-linecap:round; stroke-linejoin:round;"/><path d="m232.725,148.514c.231.336.316.751.237,1.152s-.316.752-.657.975c-.691.453-1.618.271-2.085-.411l-1.27-1.853c-.188-.274-.257-.612-.193-.937s.257-.612.534-.794l.85-.558c.352-.231.825-.138,1.064.21l1.519,2.216Z" style="fill:none; stroke:#30373e; stroke-linecap:round; stroke-linejoin:round;"/><path d="m231.266,151.655c.299.278.473.664.484,1.071s-.143.803-.426,1.096c-.575.594-1.519.619-2.124.057l-1.435-1.333c-.299-.278-.473-.664-.484-1.071s.143-.803.426-1.096c.575-.594,1.519-.619,2.124-.057l1.435,1.333Z" style="fill:none; stroke:#30373e; stroke-linecap:round; stroke-linejoin:round;"/><path d="m269.029,174.202l-21.713-16.942c-1.052-.821-1.805-1.965-2.143-3.257l-1.137-4.346c-.095-.363-.256-.705-.476-1.009l-1.952-2.702c-.144-.199-.365-.328-.609-.355l-1.977-.217c-.357-.039-.713.089-.963.347l-.915.945-1.916,1.488c.806,1.668,2.358.932,3.419.148l.888-.205.817,1.653s-2.445,2.188-1.158,5.534" style="fill:none; stroke:#30373e; stroke-linecap:round; stroke-linejoin:round;"/><path d="m231.623,114.55c0-.275.654-.497,1.452-.497s1.452.222,1.452.497v.876c0,.275-.654.497-1.452.497s-1.452-.222-1.452-.497v-.876Z" style="fill:#f4ae3d; fill-rule:evenodd; stroke:#30373e; stroke-linecap:round; stroke-linejoin:round; stroke-width:.5px;"/><ellipse cx="233.074" cy="114.299" rx="1.587" ry=".543" style="fill:#f4ae3d; stroke:#30373e; stroke-width:.5px;"/><ellipse cx="233.074" cy="113.576" rx="1.057" ry=".362" style="fill:#f4ae3d; stroke:#30373e; stroke-width:.5px;"/><path d="m233.587,113.266c0,.182-1.026.182-1.026,0,0-2.638-.97-5.113-1.998-7.732-1.27-3.238-2.71-6.91-2.71-11.742s1.379-8.781,2.596-12.275c.988-2.84,1.922-5.522,1.922-8.171,0-5.627-1.041-12.087-9.166-12.087-4.221,0-8.197.73-12.042,1.436-3.854.708-7.494,1.376-11.366,1.376-4.191,0-7.314-.787-10.335-1.548-2.583-.65-5.024-1.265-7.846-1.265-3.554,0-7.284.978-10.281,1.764-2.145.562-3.997,1.048-5.281,1.048v-1.026c1.152,0,2.945-.47,5.02-1.014,3.054-.801,6.855-1.798,10.541-1.798,2.95,0,5.45.629,8.098,1.296,2.959.746,6.02,1.516,10.083,1.516,3.779,0,7.374-.661,11.181-1.359,3.891-.715,7.913-1.453,12.227-1.453,9.136,0,10.192,7.484,10.192,13.113,0,2.822-.961,5.585-1.98,8.508-1.19,3.417-2.539,7.29-2.539,11.937s1.402,8.213,2.639,11.368c1.064,2.711,2.069,5.273,2.069,8.106Z" style="fill:url(#uuid-37b228db-3bfd-4501-ad27-33b3b8e35d59); stroke-width:0px;"/><path d="m166.056,63.046c1.152,0,2.945-.47,5.02-1.014,3.054-.801,6.855-1.798,10.541-1.798,2.95,0,5.45.629,8.098,1.296,2.959.746,6.02,1.516,10.083,1.516,3.779,0,7.374-.661,11.181-1.359,3.891-.715,7.913-1.453,12.227-1.453,9.136,0,10.192,7.484,10.192,13.113,0,2.822-.961,5.585-1.98,8.508-1.19,3.417-2.539,7.29-2.539,11.937s1.402,8.213,2.639,11.368c1.064,2.711,2.069,5.273,2.069,8.106,0,.183-1.026.183-1.026,0,0-2.638-.97-5.113-1.998-7.732-1.27-3.238-2.71-6.91-2.71-11.742s1.379-8.781,2.596-12.275c.988-2.84,1.922-5.522,1.922-8.171,0-5.627-1.041-12.087-9.166-12.087-4.221,0-8.197.73-12.042,1.436-3.854.708-7.494,1.376-11.366,1.376-4.191,0-7.314-.787-10.335-1.548-2.583-.65-5.024-1.265-7.846-1.265-3.554,0-7.284.978-10.281,1.764-2.145.562-3.997,1.048-5.281,1.048" style="fill:url(#uuid-af3877a5-297b-40e2-882f-163a3aa2d10a); fill-rule:evenodd; stroke-width:0px;"/><path d="m166.056,63.046c7.037-1.697,14.5-4.41,21.805-2.23,2.399.571,4.756,1.247,7.17,1.611,9.868,1.667,19.35-2.868,29.238-2.388,7.599.283,9.631,7.269,9.373,13.739-.145,3.741-1.75,7.218-2.849,10.712-1.547,4.615-2.223,9.598-1.083,14.376.989,4.894,4.064,9.252,4.131,14.376-.013.476-.795.448-1.159.377-.216-.037-.379-.183-.372-.367-.005-1.978-.573-3.882-1.253-5.733-.853-2.289-1.845-4.559-2.499-6.952-1.396-4.776-1.175-9.93.213-14.679,1.264-4.708,3.763-9.175,3.31-14.17-.044-5.023-2.216-9.969-7.849-10.15-4.865-.23-9.724.788-14.546,1.658-4.834.903-9.828,1.526-14.731.739-4.897-.692-9.534-2.774-14.437-2.416-3.664.182-7.218,1.278-10.78,2.128-1.2.25-2.44.505-3.68.397,1.223-.158,2.387-.521,3.569-.844,5.882-1.715,12.19-3.157,18.234-1.362,2.396.58,4.755,1.241,7.171,1.594,4.838.777,9.754.164,14.565-.736,12.784-2.317,24.429-5.177,22.86,12.697-.612,3.661-2.242,7.056-3.197,10.603-1.373,4.679-1.584,9.715-.214,14.407,1.07,4.141,3.512,7.986,3.76,12.349,0,0,.011.471.011.471.013.075-.015-.124-.044-.113-.015-.022-.042-.031-.03-.027.059.013.16.04.237.038.15.001.306.006.433-.038.014-.005-.033.017-.037.038-.054.068-.035.153-.039.095l-.005-.225c-.039-2.42-.871-4.751-1.757-7.026-5.139-11.734-2.685-17.322,1.014-28.649,1.025-4.484.864-10.165-2.027-13.91-5.195-6.44-20.72-.374-28.2-.232-2.465.186-4.959.104-7.405-.278-4.843-.734-9.489-2.748-14.438-2.407-4.931.06-9.556,2.455-14.459,2.531h0Z" style="fill:#30373e; stroke-width:0px;"/><path d="m235.73,142.159c.231.336.316.751.237,1.152s-.316.752-.657.975c-.691.453-1.618.271-2.085-.411l-1.536-2.241c-.118-.172-.161-.383-.121-.587s.161-.383.335-.498l1.244-.816c.352-.231.825-.138,1.064.21l1.519,2.216Z" style="fill:none; stroke:#30373e; stroke-linecap:round; stroke-linejoin:round;"/><path d="m290.539,182.293c-.193-4.628.385-8.916,1.901-9.433.476-.162.847-.252,1.165-.302.935-.149,9.073-1.808,11.833-2.373" style="fill:none; stroke:#30373e; stroke-linecap:round; stroke-linejoin:round;"/><polyline points="292.02 173.136 271.177 175.878 269.029 174.202" style="fill:none; stroke:#30373e; stroke-linecap:round; stroke-linejoin:round;"/></g></g><g id="uuid-f4ec8bdb-4237-4425-8fc4-dc417700c76c"><path d="m380.994,83.776c0,2.066.972,3.442,10.328,10.854,9.356,7.412,30.569,21.595,39.733,26.853,6.731,3.862,12.192,7.123,38.555,9.6" style="fill:none; stroke:#a6abb0; stroke-linecap:round; stroke-linejoin:round; stroke-width:.5px;"/><path d="m497.924,10.601c-9.239,28.754-22.119,86.566-22.154,86.701-3.977,15.51-6.829,18.997-7.5,37.97" style="fill:none; stroke:#f4f4f4; stroke-linecap:round; stroke-linejoin:round; stroke-width:3px;"/><path d="m497.924,10.601c-9.239,28.754-22.119,86.566-22.154,86.701-3.977,15.51-6.829,18.997-7.5,37.97" style="fill:none; stroke:#30373e; stroke-linecap:round; stroke-linejoin:round; stroke-width:1.5px;"/><line x1="77.523" y1="111.765" x2="77.523" y2="120.756" style="fill:none; stroke:#f4f4f4; stroke-width:2px;"/><rect x="65.321" y="54.072" width="22.533" height="46.346" rx="11.266" ry="11.266" style="fill:none; stroke:#f4f4f4; stroke-width:2px;"/><path d="m68.914,88.324c0-24.501-.11-18.576-.11-21.303,0-12.428,15.567-12.459,15.567.003,0,1.755-.109-2.886-.109,21.301,0,11.254-15.348,11.255-15.348,0Z" style="fill:none; stroke:#f4f4f4; stroke-width:2px;"/><path d="m266.638,88.325c0-24.501.11-18.576.11-21.303,0-12.428-15.567-12.459-15.567.003,0,1.755.109-2.886.109,21.301,0,11.254,15.348,11.255,15.348,0Z" style="fill:none; stroke:#f4f4f4; stroke-width:2px;"/><path d="m67.886,58.182s-32.467-.485-36.504-.613c-4.462-.142-4.533.827-4.533,6.734,0,5.301.694,5.455,3.92,5.725,17.392,1.456,34.553,1.456,34.553,1.456" style="fill:none; stroke:#f4f4f4; stroke-width:2px;"/><path d="m35.025,116.859c-3.352-.332-5.559-.678-8.992-1.034-3.567-.525-4.931-1.993-5.246-5.875-.315-3.882.214-48.423.214-48.423l.036-3.02" style="fill:none; stroke:#f4f4f4; stroke-width:2px;"/><path d="m77.523,120.756s-19.708-1.639-42.498-3.897" style="fill:none; stroke:#f4f4f4; stroke-width:2px;"/><path d="m72.902,174.202v-22.51c0-1.748,1.417-3.165,3.165-3.165h1.481" style="fill:none; stroke:#f4f4f4; stroke-width:2px;"/><path d="m245.9,148.765l1.082-.019c9.832-.172,21.378-.433,25.425-.694,6.923-.447,19.962-6.612,23.884-8.536,3.923-1.924,4.825-2.42,4.825-11.001v-6.364c0-8.04-2.763-10.678-8.346-10.678-5.583,0-34.741.29-34.741.29,0,0-1.26-2.257-8-2.257l-82.253.145-82.253-.145c-6.74,0-8,2.257-8,2.257,0,0-29.158-.29-34.741-.29-5.583,0-8.346,2.638-8.346,10.678v6.364c0,8.58.903,9.077,4.825,11.001s16.961,8.089,23.884,8.536c6.923.447,35.79.893,40.48.893,13.019,0,7.98-4.554,20.622-4.554h43.529s43.529,0,43.529,0c8.902,0,9.037,2.258,12.883,3.594" style="fill:none; stroke:#f4f4f4; stroke-width:2px;"/><path d="m258.029,120.756s-.494,4.27-8.438,4.27c-15.632,0-81.815-.248-81.815-.248,0,0-66.183.248-81.815.248-7.944,0-8.438-4.27-8.438-4.27" style="fill:none; stroke:#f4f4f4; stroke-width:2px;"/><line x1="258.029" y1="111.765" x2="258.029" y2="120.756" style="fill:none; stroke:#f4f4f4; stroke-width:2px;"/><rect x="247.698" y="54.072" width="22.533" height="46.346" rx="11.266" ry="11.266" style="fill:none; stroke:#f4f4f4; stroke-width:2px;"/><path d="m267.666,58.182s32.467-.485,36.504-.613c4.462-.142,4.533.827,4.533,6.734,0,5.301-.694,5.455-3.92,5.725-17.392,1.456-34.553,1.456-34.553,1.456" style="fill:none; stroke:#f4f4f4; stroke-width:2px;"/><polyline points="250.263 58.181 167.776 58.64 85.289 58.181" style="fill:none; stroke:#f4f4f4; stroke-width:2px;"/><path d="m300.527,116.859c3.352-.332,5.559-.678,8.992-1.034,3.567-.525,4.931-1.993,5.246-5.875.315-3.882-.214-48.423-.214-48.423l-.036-3.02" style="fill:none; stroke:#f4f4f4; stroke-width:2px;"/><path d="m258.029,120.756s19.708-1.639,42.498-3.897" style="fill:none; stroke:#f4f4f4; stroke-width:2px;"/><polyline points="247.698 71.934 167.776 72.392 87.854 71.934" style="fill:none; stroke:#f4f4f4; stroke-width:2px;"/><path d="m262.65,174.202v-22.51c0-1.748-1.417-3.165-3.165-3.165h-1.481" style="fill:none; stroke:#f4f4f4; stroke-width:2px;"/><line x1="104.182" y1="175.235" x2="104.184" y2="153.983" style="fill:none; stroke:#f4f4f4; stroke-width:2px;"/><path d="m30.257,57.561c.077-2.825.14-5.734.171-7.247.135-6.58,3.772-10.69,4.43-11.192" style="fill:none; stroke:#f4f4f4; stroke-width:2px;"/><path d="m20.707,94.908c0,3.572-.019,5.969,3.67,6.018s3.8-2.446,3.8-6.517c0-5.818,1.07-24.071,1.076-24.254" style="fill:none; stroke:#f4f4f4; stroke-width:2px;"/><path d="m305.295,57.561c-.077-2.825-.14-5.734-.171-7.247-.135-6.58-3.772-10.69-4.43-11.192" style="fill:none; stroke:#f4f4f4; stroke-width:2px;"/><path d="m306.299,70.156c.007.183,1.076,18.436,1.076,24.254,0,4.07.127,6.868,3.8,6.517,1.433-.137,4.724-.448,8.213-.776" style="fill:none; stroke:#f4f4f4; stroke-width:2px;"/><path d="m241.262,77.348v12.372c0,4.878-3.92,8.845-8.797,8.907-14.689.186-44.577.53-64.689.53-20.112,0-50-.344-64.689-.53-4.877-.062-8.797-4.029-8.797-8.907v-12.372" style="fill:none; stroke:#f4f4f4; stroke-width:2px;"/><circle cx="122.972" cy="135.808" r="1.543" style="fill:none; stroke:#f4f4f4; stroke-width:2px;"/><circle cx="56.737" cy="135.105" r="1.543" style="fill:none; stroke:#f4f4f4; stroke-width:2px;"/><ellipse cx="23.353" cy="135.105" rx=".901" ry="2.057" transform="translate(-13.1 2.931) rotate(-5.612)" style="fill:none; stroke:#f4f4f4; stroke-width:2px;"/><circle cx="212.58" cy="135.808" r="1.543" style="fill:none; stroke:#f4f4f4; stroke-width:2px;"/><circle cx="278.815" cy="135.105" r="1.543" style="fill:none; stroke:#f4f4f4; stroke-width:2px;"/><ellipse cx="312.199" cy="135.105" rx="2.057" ry=".901" transform="translate(147.21 432.595) rotate(-84.388)" style="fill:none; stroke:#f4f4f4; stroke-width:2px;"/><polyline points="26.853 64.915 20.942 66.828 16.147 75.309" style="fill:none; stroke:#f4f4f4; stroke-width:2px;"/><polyline points="308.699 64.915 314.61 66.828 319.405 75.309" style="fill:none; stroke:#f4f4f4; stroke-width:2px;"/><path d="m301.109,121.25c-15.066,4.261-30.648,6.423-46.305,6.423h-87.028s-87.028,0-87.028,0c-15.657,0-31.239-2.161-46.305-6.423" style="fill:none; stroke:#f4f4f4; stroke-width:2px;"/><line x1="264.832" y1="111.765" x2="264.832" y2="120.16" style="fill:none; stroke:#f4f4f4; stroke-width:2px;"/><line x1="70.72" y1="111.765" x2="70.72" y2="120.16" style="fill:none; stroke:#f4f4f4; stroke-width:2px;"/><path d="m170.981,109.648l-.467,3.336c-.048.343-.341.598-.687.598h-4.103c-.346,0-.639-.255-.687-.598l-.467-3.336" style="fill:none; stroke:#f4f4f4; stroke-width:2px;"/><circle cx="167.776" cy="111.557" r="1.045" style="fill:none; stroke:#f4f4f4; stroke-width:2px;"/><line x1="77.523" y1="111.765" x2="77.523" y2="120.756" style="fill:none; stroke:#a6abb0; stroke-linecap:round; stroke-linejoin:round; stroke-width:.5px;"/><rect x="65.321" y="54.072" width="22.533" height="46.346" rx="11.266" ry="11.266" style="fill:none; stroke:#a6abb0; stroke-linecap:round; stroke-linejoin:round; stroke-width:.5px;"/><path d="m68.914,88.324c0-24.501-.11-18.576-.11-21.303,0-12.428,15.567-12.459,15.567.003,0,1.755-.109-2.886-.109,21.301,0,11.254-15.348,11.255-15.348,0Z" style="fill:none; stroke:#a6abb0; stroke-linecap:round; stroke-linejoin:round; stroke-width:.5px;"/><path d="m266.638,88.325c0-24.501.11-18.576.11-21.303,0-12.428-15.567-12.459-15.567.003,0,1.755.109-2.886.109,21.301,0,11.254,15.348,11.255,15.348,0Z" style="fill:none; stroke:#a6abb0; stroke-linecap:round; stroke-linejoin:round; stroke-width:.5px;"/><path d="m67.886,58.182s-32.467-.485-36.504-.613c-4.462-.142-4.533.827-4.533,6.734,0,5.301.694,5.455,3.92,5.725,17.392,1.456,34.553,1.456,34.553,1.456" style="fill:none; stroke:#a6abb0; stroke-linecap:round; stroke-linejoin:round; stroke-width:.5px;"/><path d="m35.025,116.859c-3.352-.332-5.559-.678-8.992-1.034-3.567-.525-4.931-1.993-5.246-5.875-.315-3.882.214-48.423.214-48.423l.036-3.02" style="fill:none; stroke:#a6abb0; stroke-linecap:round; stroke-linejoin:round; stroke-width:.5px;"/><path d="m77.523,120.756s-19.708-1.639-42.498-3.897" style="fill:none; stroke:#a6abb0; stroke-linecap:round; stroke-linejoin:round; stroke-width:.5px;"/><path d="m72.902,174.202v-22.51c0-1.748,1.417-3.165,3.165-3.165h1.481" style="fill:none; stroke:#a6abb0; stroke-linecap:round; stroke-linejoin:round; stroke-width:.5px;"/><path d="m245.9,148.765l1.082-.019c9.832-.172,21.378-.433,25.425-.694,6.923-.447,19.962-6.612,23.884-8.536,3.923-1.924,4.825-2.42,4.825-11.001v-6.364c0-8.04-2.763-10.678-8.346-10.678-5.583,0-34.741.29-34.741.29,0,0-1.26-2.257-8-2.257l-82.253.145-82.253-.145c-6.74,0-8,2.257-8,2.257,0,0-29.158-.29-34.741-.29-5.583,0-8.346,2.638-8.346,10.678v6.364c0,8.58.903,9.077,4.825,11.001s16.961,8.089,23.884,8.536c6.923.447,35.79.893,40.48.893,13.019,0,7.98-4.554,20.622-4.554h43.529s43.529,0,43.529,0c8.902,0,9.037,2.258,12.883,3.594" style="fill:none; stroke:#a6abb0; stroke-linecap:round; stroke-linejoin:round; stroke-width:.5px;"/><path d="m258.029,120.756s-.494,4.27-8.438,4.27c-15.632,0-81.815-.248-81.815-.248,0,0-66.183.248-81.815.248-7.944,0-8.438-4.27-8.438-4.27" style="fill:none; stroke:#a6abb0; stroke-linecap:round; stroke-linejoin:round; stroke-width:.5px;"/><line x1="258.029" y1="111.765" x2="258.029" y2="120.756" style="fill:none; stroke:#a6abb0; stroke-linecap:round; stroke-linejoin:round; stroke-width:.5px;"/><rect x="247.698" y="54.072" width="22.533" height="46.346" rx="11.266" ry="11.266" style="fill:none; stroke:#a6abb0; stroke-linecap:round; stroke-linejoin:round; stroke-width:.5px;"/><path d="m267.666,58.182s32.467-.485,36.504-.613c4.462-.142,4.533.827,4.533,6.734,0,5.301-.694,5.455-3.92,5.725-17.392,1.456-34.553,1.456-34.553,1.456" style="fill:none; stroke:#a6abb0; stroke-linecap:round; stroke-linejoin:round; stroke-width:.5px;"/><polyline points="250.263 58.181 167.776 58.64 85.289 58.181" style="fill:none; stroke:#a6abb0; stroke-linecap:round; stroke-linejoin:round; stroke-width:.5px;"/><path d="m300.527,116.859c3.352-.332,5.559-.678,8.992-1.034,3.567-.525,4.931-1.993,5.246-5.875.315-3.882-.214-48.423-.214-48.423l-.036-3.02" style="fill:none; stroke:#a6abb0; stroke-linecap:round; stroke-linejoin:round; stroke-width:.5px;"/><path d="m258.029,120.756s19.708-1.639,42.498-3.897" style="fill:none; stroke:#a6abb0; stroke-linecap:round; stroke-linejoin:round; stroke-width:.5px;"/><polyline points="247.698 71.934 167.776 72.392 87.854 71.934" style="fill:none; stroke:#a6abb0; stroke-linecap:round; stroke-linejoin:round; stroke-width:.5px;"/><path d="m262.65,174.202v-22.51c0-1.748-1.417-3.165-3.165-3.165h-1.481" style="fill:none; stroke:#a6abb0; stroke-linecap:round; stroke-linejoin:round; stroke-width:.5px;"/><line x1="104.182" y1="175.235" x2="104.184" y2="153.983" style="fill:none; stroke:#a6abb0; stroke-linecap:round; stroke-linejoin:round; stroke-width:.5px;"/><path d="m30.257,57.561c.077-2.825.14-5.734.171-7.247.135-6.58,3.772-10.69,4.43-11.192" style="fill:none; stroke:#a6abb0; stroke-linecap:round; stroke-linejoin:round; stroke-width:.5px;"/><path d="m20.707,94.908c0,3.572-.019,5.969,3.67,6.018s3.8-2.446,3.8-6.517c0-5.818,1.07-24.071,1.076-24.254" style="fill:none; stroke:#a6abb0; stroke-linecap:round; stroke-linejoin:round; stroke-width:.5px;"/><path d="m305.295,57.561c-.077-2.825-.14-5.734-.171-7.247-.135-6.58-3.772-10.69-4.43-11.192" style="fill:none; stroke:#a6abb0; stroke-linecap:round; stroke-linejoin:round; stroke-width:.5px;"/><path d="m306.299,70.156c.007.183,1.076,18.436,1.076,24.254,0,4.07.127,6.868,3.8,6.517,1.433-.137,4.724-.448,8.213-.776" style="fill:none; stroke:#a6abb0; stroke-linecap:round; stroke-linejoin:round; stroke-width:.5px;"/><path d="m241.262,77.348v12.372c0,4.878-3.92,8.845-8.797,8.907-14.689.186-44.577.53-64.689.53-20.112,0-50-.344-64.689-.53-4.877-.062-8.797-4.029-8.797-8.907v-12.372" style="fill:none; stroke:#a6abb0; stroke-linecap:round; stroke-linejoin:round; stroke-width:.5px;"/><circle cx="122.972" cy="135.808" r="1.543" style="fill:none; stroke:#a6abb0; stroke-linecap:round; stroke-linejoin:round; stroke-width:.5px;"/><circle cx="56.737" cy="135.105" r="1.543" style="fill:none; stroke:#a6abb0; stroke-linecap:round; stroke-linejoin:round; stroke-width:.5px;"/><ellipse cx="23.353" cy="135.105" rx=".901" ry="2.057" transform="translate(-13.1 2.931) rotate(-5.612)" style="fill:none; stroke:#a6abb0; stroke-linecap:round; stroke-linejoin:round; stroke-width:.5px;"/><circle cx="212.58" cy="135.808" r="1.543" style="fill:none; stroke:#a6abb0; stroke-linecap:round; stroke-linejoin:round; stroke-width:.5px;"/><circle cx="278.815" cy="135.105" r="1.543" style="fill:none; stroke:#a6abb0; stroke-linecap:round; stroke-linejoin:round; stroke-width:.5px;"/><ellipse cx="312.199" cy="135.105" rx="2.057" ry=".901" transform="translate(147.21 432.595) rotate(-84.388)" style="fill:none; stroke:#a6abb0; stroke-linecap:round; stroke-linejoin:round; stroke-width:.5px;"/><polyline points="26.853 64.915 20.942 66.828 16.147 75.309" style="fill:none; stroke:#a6abb0; stroke-linecap:round; stroke-linejoin:round; stroke-width:.5px;"/><polyline points="308.699 64.915 314.61 66.828 319.405 75.309" style="fill:none; stroke:#a6abb0; stroke-linecap:round; stroke-linejoin:round; stroke-width:.5px;"/><path d="m301.109,121.25c-15.066,4.261-30.648,6.423-46.305,6.423h-87.028s-87.028,0-87.028,0c-15.657,0-31.239-2.161-46.305-6.423" style="fill:none; stroke:#a6abb0; stroke-linecap:round; stroke-linejoin:round; stroke-width:.5px;"/><line x1="264.832" y1="111.765" x2="264.832" y2="120.16" style="fill:none; stroke:#a6abb0; stroke-linecap:round; stroke-linejoin:round; stroke-width:.5px;"/><line x1="70.72" y1="111.765" x2="70.72" y2="120.16" style="fill:none; stroke:#a6abb0; stroke-linecap:round; stroke-linejoin:round; stroke-width:.5px;"/><path d="m170.981,109.648l-.467,3.336c-.048.343-.341.598-.687.598h-4.103c-.346,0-.639-.255-.687-.598l-.467-3.336" style="fill:none; stroke:#a6abb0; stroke-linecap:round; stroke-linejoin:round; stroke-width:.5px;"/><circle cx="167.776" cy="111.557" r="1.045" style="fill:none; stroke:#a6abb0; stroke-linecap:round; stroke-linejoin:round; stroke-width:.5px;"/><path d="m44.292,31.354s-4.028-5.161-4.657-5.865c-.356-.398-.376-1.686-.356-3.246.003-.255.006-.509.006-.753,0-.106,0-.242,0-.403.005-2.191.024-9.279-.63-12.421-.305-1.462-.871-2.483-1.747-3.12-1.187-.863-2.802-.913-4.642-.713-3.17.345-8.753,1.102-11.45,1.587-2.786.5-5.893,2.198-7.739,3.831-1.072.948-1.759,1.622-2.379,2.229-.423.415-.811.795-1.271,1.214-1.131,1.031-1.497,2.231-1.604,4.232-.041.768-.093,1.499-.141,2.174-.072,1.015-.137,1.92-.137,2.612,0,1.085.197,2.018.589,2.855.473,1.011,1.215,1.847,2.162,2.637,1.791,1.492,6.931,3.031,12.379,3.759,1.821.244,3.67.334,5.357.417,2.836.139,5.079.263,6.24.922.262.149.444.314.563.492,1.315,1.977,2.195,3.352,2.195,3.352" style="fill:none; stroke:#a6abb0; stroke-linecap:round; stroke-linejoin:round; stroke-width:1.5px;"/><path d="m16.108,126.75s.119,68.536.119,77.881c0,5.624.557,8.944,1.87,10.847.48.696,1.059,1.2,1.737,1.556,1.199.629,2.667.771,4.341.771,1.021,0,2.869.011,5.15.024,2.356.014,5.173.03,8.019.041,2.843-.01,5.66-.027,8.016-.041,2.282-.013,4.129-.024,5.15-.024,2.245,0,4.127-.253,5.484-1.61,1.751-1.751,2.464-5.185,2.464-11.563,0-.342,0-.765,0-1.263,0-3.696-.003-11.504.027-20.649" style="fill:none; stroke:#a6abb0; stroke-linecap:round; stroke-linejoin:round; stroke-width:1.5px;"/><path d="m28.76,167.425s1.116,4.826,2.828,11.286c.179.676.561,1.262,1.071,1.694s1.149.711,1.846.777l22.034,2.072c1.51.142,3.768-.347,5.084-1.1l4.923-2.818c.512-.293,1.454-.58,2.042-.622l10.41-.744c.788-.056,1.494-.429,2.002-.974s.829-1.276.829-2.066v-.249" style="fill:none; stroke:#a6abb0; stroke-linecap:round; stroke-linejoin:round; stroke-width:1.5px;"/><path d="m298.521,37.145s.88-1.374,2.195-3.352c.119-.179.301-.343.563-.492,1.161-.659,3.404-.783,6.24-.922,1.687-.083,3.536-.173,5.357-.417,5.448-.729,10.588-2.267,12.379-3.759.947-.789,1.688-1.626,2.162-2.637.392-.837.589-1.769.589-2.855,0-.692-.065-1.597-.137-2.612-.048-.675-.1-1.406-.141-2.174-.107-2.001-.472-3.202-1.604-4.232-.46-.419-.848-.799-1.271-1.214-.62-.608-1.307-1.281-2.379-2.229-1.846-1.633-4.953-3.331-7.738-3.831-2.697-.484-8.279-1.242-11.45-1.587-1.84-.2-3.454-.15-4.642.713-.876.637-1.443,1.658-1.747,3.12-.654,3.142-.635,10.23-.63,12.421,0,.162,0,.297,0,.403,0,.244.003.498.006.753.02,1.56,0,2.848-.356,3.246-.63.704-4.658,5.865-4.658,5.865" style="fill:none; stroke:#a6abb0; stroke-linecap:round; stroke-linejoin:round; stroke-width:1.5px;"/><path d="m291.58,31.086c-8.157-28.129-16.872-51.879-20.883-62.382-1.994-5.222-3.7-8.066-5.736-9.692-2.075-1.657-4.433-1.996-7.516-2.436-44.58-3.95-89.67-3.95-89.67-3.95,0,0-45.09,0-89.696,3.953-3.057.437-5.415.775-7.49,2.432-2.036,1.626-3.742,4.469-5.736,9.692-4.01,10.503-12.725,34.253-20.883,62.382" style="fill:none; stroke:#a6abb0; stroke-linecap:round; stroke-linejoin:round; stroke-width:1.5px;"/><path d="m253.763,175.407c.115.693.473,1.315.975,1.773.487.444,1.12.741,1.817.791l10.41.744c.588.042,1.53.329,2.042.622l4.923,2.818c1.316.753,3.574,1.242,5.084,1.1l22.034-2.072c.696-.065,1.336-.345,1.846-.777s.891-1.017,1.071-1.694c.081-.307.162-.611.248-.947l1.717-9.348" style="fill:none; stroke:#a6abb0; stroke-linecap:round; stroke-linejoin:round; stroke-width:1.5px;"/><path d="m167.776,45.808c1.065,0,3.102-.748,4.09-1.137s3.42-1.192,3.42-1.823-2.614-1.44-3.648-1.788-2.759-.904-3.862-.904c-1.103,0-2.826.554-3.862.904s-3.648,1.157-3.648,1.788c0,.631,2.432,1.434,3.42,1.823s3.025,1.137,4.09,1.137Z" style="fill:none; stroke:#a6abb0; stroke-linecap:round; stroke-linejoin:round; stroke-width:.5px;"/><path d="m52.604,30.599c10.713-43.787,22.795-68.861,24.378-71.943.431-.839,1.552-1.597,2.491-1.684" style="fill:none; stroke:#a6abb0; stroke-linecap:round; stroke-linejoin:round; stroke-width:.5px;"/><path d="m94.29,41.972c-.066-3.081-.088-7.154.184-8.971.467-3.116,2.932-4.85,13.09-5.213" style="fill:none; stroke:#a6abb0; stroke-linecap:round; stroke-linejoin:round; stroke-width:.5px;"/><path d="m282.948,30.599c-10.713-43.787-22.795-68.861-24.378-71.943-.431-.839-1.552-1.597-2.491-1.684" style="fill:none; stroke:#a6abb0; stroke-linecap:round; stroke-linejoin:round; stroke-width:.5px;"/><path d="m296.777,22.769c7.001-.094,14.007-.306,21.015-.636.103-.005.773-.037.67-.032,1.593-.059,5.701-.242,8.767-.642" style="fill:none; stroke:#a6abb0; stroke-linecap:round; stroke-linejoin:round; stroke-width:.5px;"/><path d="m327.229,21.459c-3.066.4-7.174.582-8.767.642.103-.005-.566.027-.67.032-.06.003-.119.006-.179.008-.189.009-.363-.102-.435-.277s-.026-.376.114-.503l3.309-2.985c.423-.382.962-.61,1.531-.649l5.049-.343" style="fill:none; stroke:#a6abb0; stroke-linecap:round; stroke-linejoin:round; stroke-width:.5px;"/><path d="m38.775,22.769c-7.001-.094-14.007-.306-21.015-.636-.103-.005-.773-.037-.67-.032-1.593-.059-5.701-.242-8.767-.642" style="fill:none; stroke:#a6abb0; stroke-linecap:round; stroke-linejoin:round; stroke-width:.5px;"/><path d="m8.323,21.459c3.066.4,7.174.582,8.767.642-.103-.005.566.027.67.032.06.003.119.006.179.008.189.009.363-.102.435-.277s.026-.376-.114-.503l-3.309-2.985c-.423-.382-.962-.61-1.531-.649l-5.049-.343" style="fill:none; stroke:#a6abb0; stroke-linecap:round; stroke-linejoin:round; stroke-width:.5px;"/><path d="m241.262,41.972c.066-3.081.088-7.154-.184-8.971-.467-3.116-2.932-4.85-13.09-5.213" style="fill:none; stroke:#a6abb0; stroke-linecap:round; stroke-linejoin:round; stroke-width:.5px;"/><path d="m167.776,175.123h61.136c.756,0,1.418.234,1.818.418.387.178.811.266,1.236.26,46.193-.648,61.415-4.336,73.742-7.742,1.629-.45,3.098-1.651,4.411-3.394,6.429-8.536,10.092-31.458,9.852-55.281-.038-3.783-.066-7.283-.092-10.522-.17-21.216-.238-31.391-2.561-36.295-2.62-5.53-12.786-20.649-16.038-23.605-3.201-2.91-9.871-8.13-9.871-8.13l-.114-.089-.144-.015s-39.799-4.063-123.375-4.063c-83.576,0-123.375,4.063-123.375,4.063l-.144.015-.114.089s-6.67,5.219-9.871,8.13c-3.252,2.956-13.418,18.075-16.038,23.605-2.323,4.904-2.391,15.08-2.561,36.295-.026,3.24-.054,6.74-.092,10.522-.241,23.823,3.423,46.745,9.851,55.281,1.313,1.743,2.782,2.944,4.411,3.394,12.326,3.406,27.549,7.094,73.742,7.742.424.006.848-.082,1.236-.26.4-.183,1.063-.418,1.818-.418h61.136Z" style="fill:none; stroke:#a6abb0; stroke-linecap:round; stroke-linejoin:round; stroke-width:1.5px;"/><path d="m24.33,22.408v4.718c0,2.26.969,4.698,2.625,4.698" style="fill:none; stroke:#a6abb0; stroke-linecap:round; stroke-linejoin:round; stroke-width:.5px;"/><path d="m311.222,22.408s0,2.458,0,4.718c0,2.26-.969,4.698-2.625,4.698" style="fill:none; stroke:#a6abb0; stroke-linecap:round; stroke-linejoin:round; stroke-width:.5px;"/></g><g id="uuid-6a8c4a97-9883-43fd-9d6b-0420607859d4"><line x1="433.174" y1="7.647" x2="433.174" y2="48.296" style="fill:none; stroke:#f4f4f4; stroke-linecap:round; stroke-width:1.5px;"/><rect x="429.174" y="7.646" width="8" height="29.168" style="fill:none; stroke:#f4f4f4; stroke-linecap:round; stroke-width:1.5px;"/><polygon points="425.196 34.48 433.174 48.296 441.152 34.48 425.196 34.48" style="fill:none; stroke:#f4f4f4; stroke-linecap:round; stroke-width:1.5px;"/><line x1="433.174" y1="7.647" x2="433.174" y2="36.814" style="fill:none; stroke:#f4ae3d; stroke-miterlimit:10; stroke-width:8px;"/><polygon points="425.196 34.48 433.174 48.296 441.152 34.48 425.196 34.48" style="fill:#f4ae3d; stroke-width:0px;"/><circle cx="288.017" cy="49.407" r="11.983" style="fill:none; stroke:#f4ae3d; stroke-miterlimit:10; stroke-width:3px;"/><line x1="279.543" y1="40.934" x2="296.491" y2="57.881" style="fill:none; stroke:#f4ae3d; stroke-miterlimit:10; stroke-width:3px;"/></g><g id="uuid-93494b1d-4152-4ec3-85a8-b4a6aef81ec4"><line x1="232.16" y1="198.509" x2="208.37" y2="180.539" style="fill:none; stroke:#f4ae3d; stroke-miterlimit:10;"/><polygon points="233.081 196.08 235.023 200.671 230.075 200.059 233.081 196.08" style="fill:#f4ae3d; stroke-width:0px;"/><polygon points="210.455 178.989 205.507 178.376 207.449 182.968 210.455 178.989" style="fill:#f4ae3d; stroke-width:0px;"/><line x1="199.55" y1="182.771" x2="229.096" y2="143.656" style="fill:none; stroke:#f4ae3d; stroke-miterlimit:10;"/><line x1="231.8" y1="207.132" x2="251.86" y2="180.576" style="fill:none; stroke:#f4ae3d; stroke-miterlimit:10;"/></g><g id="uuid-d497b73e-928a-493b-852a-c9dc520ba6da"><polygon points="367.139 140.786 367.139 226.281 647 226.281 647 3 367.139 3 367.139 125.169 328.126 147.392 367.139 140.786" style="fill:none; stroke:#30373e; stroke-miterlimit:20; stroke-width:1.5px;"/></g><g id="uuid-1dd0d596-c2d8-4419-8654-d9c936cf6b99"><path d="m211.447,193.483c-3.934,0-7.124,3.189-7.124,7.124v2.337c0,3.934,3.189,7.124,7.124,7.124s7.124-3.189,7.124-7.124v-2.337c0-3.934-3.189-7.124-7.124-7.124Z" style="fill:none; stroke:#f4f4f4; stroke-miterlimit:10; stroke-width:4px;"/><circle cx="211.447" cy="201.775" r="8.275" style="fill:none; stroke:#f4f4f4; stroke-miterlimit:10; stroke-width:4px;"/><circle cx="211.447" cy="201.775" r="8.275" style="fill:#30373e; stroke-width:0px;"/><path d="m211.447,193.483c-3.934,0-7.124,3.189-7.124,7.124v2.337c0,3.934,3.189,7.124,7.124,7.124s7.124-3.189,7.124-7.124v-2.337c0-3.934-3.189-7.124-7.124-7.124Z" style="fill:#30373e; stroke-width:0px;"/><path d="m210.489,199.587c-.2.135-.455.284-.768.449l-.818-1.326c.477-.26.905-.535,1.286-.826.382-.29.732-.612,1.054-.968h1.807v9.334h-1.846v-7.215c-.277.233-.516.418-.715.552Z" style="fill:#f4f4f4; stroke-width:0px;"/></g></svg>