<svg width="37" height="37" viewBox="0 0 37 37" fill="none" xmlns="http://www.w3.org/2000/svg">
<path fill-rule="evenodd" clip-rule="evenodd" d="M25.6829 14.2907C25.6829 8.02501 20.5564 2.89856 14.2908 2.89856C8.02513 2.89856 2.89868 8.02501 2.89868 14.2907C2.89868 20.5563 8.02513 25.6828 14.2908 25.6828C20.5564 25.6828 25.6829 20.5563 25.6829 14.2907ZM1 14.2907C1 6.94909 6.94921 0.999878 14.2908 0.999878C21.6324 0.999878 27.5816 6.94909 27.5816 14.2907C27.5816 17.5418 26.4149 20.5199 24.4772 22.8293L36.0004 34.3525L34.3527 36.0002L22.8295 24.477C20.5202 26.4147 17.542 27.5814 14.2908 27.5814C6.94921 27.5814 1 21.6322 1 14.2907Z" fill="#6A6F74"/>
<path d="M24.4772 22.8293L24.0942 22.5079L23.7997 22.8588L24.1236 23.1828L24.4772 22.8293ZM36.0004 34.3525L36.354 34.706L36.7075 34.3525L36.354 33.9989L36.0004 34.3525ZM34.3527 36.0002L33.9991 36.3537L34.3527 36.7073L34.7063 36.3537L34.3527 36.0002ZM22.8295 24.477L23.1831 24.1234L22.8591 23.7994L22.5081 24.0939L22.8295 24.477ZM14.2908 3.39856C20.2803 3.39856 25.1829 8.30115 25.1829 14.2907H26.1829C26.1829 7.74886 20.8326 2.39856 14.2908 2.39856V3.39856ZM3.39868 14.2907C3.39868 8.30115 8.30127 3.39856 14.2908 3.39856V2.39856C7.74899 2.39856 2.39868 7.74886 2.39868 14.2907H3.39868ZM14.2908 25.1828C8.30127 25.1828 3.39868 20.2802 3.39868 14.2907H2.39868C2.39868 20.8325 7.74899 26.1828 14.2908 26.1828V25.1828ZM25.1829 14.2907C25.1829 20.2802 20.2803 25.1828 14.2908 25.1828V26.1828C20.8326 26.1828 26.1829 20.8325 26.1829 14.2907H25.1829ZM14.2908 0.499878C6.67306 0.499878 0.5 6.67294 0.5 14.2907H1.5C1.5 7.22523 7.22535 1.49988 14.2908 1.49988V0.499878ZM28.0816 14.2907C28.0816 6.67294 21.9085 0.499878 14.2908 0.499878V1.49988C21.3562 1.49988 27.0816 7.22523 27.0816 14.2907H28.0816ZM24.8602 23.1506C26.8706 20.7546 28.0816 17.6637 28.0816 14.2907H27.0816C27.0816 17.42 25.9591 20.2853 24.0942 22.5079L24.8602 23.1506ZM24.1236 23.1828L35.6468 34.706L36.354 33.9989L24.8308 22.4757L24.1236 23.1828ZM35.6468 33.9989L33.9991 35.6466L34.7063 36.3537L36.354 34.706L35.6468 33.9989ZM34.7063 35.6466L23.1831 24.1234L22.476 24.8305L33.9991 36.3537L34.7063 35.6466ZM14.2908 28.0814C17.6638 28.0814 20.7549 26.8705 23.1509 24.86L22.5081 24.0939C20.2855 25.9589 17.4202 27.0814 14.2908 27.0814V28.0814ZM0.5 14.2907C0.5 21.9084 6.67306 28.0814 14.2908 28.0814V27.0814C7.22535 27.0814 1.5 21.3561 1.5 14.2907H0.5Z" fill="#6A6F74"/>
</svg>
