<?xml version="1.0" encoding="utf-8"?>
<!-- Generator: Adobe Illustrator 25.3.1, SVG Export Plug-In . SVG Version: 6.00 Build 0)  -->
<svg version="1.1" id="Layer_1" xmlns="http://www.w3.org/2000/svg" xmlns:xlink="http://www.w3.org/1999/xlink" x="0px" y="0px"
	 viewBox="0 0 37 37" style="enable-background:new 0 0 37 37;" xml:space="preserve" width="37" height="37">
<style type="text/css">
	.st0{fill-rule:evenodd;clip-rule:evenodd;fill:#86939F;}
	.st1{fill:#86939F;}
</style>
<path class="st0" d="M25.7,14.3c0-6.3-5.1-11.4-11.4-11.4C8,2.9,2.9,8,2.9,14.3c0,6.3,5.1,11.4,11.4,11.4
	C20.6,25.7,25.7,20.6,25.7,14.3z M1,14.3C1,6.9,6.9,1,14.3,1c7.3,0,13.3,5.9,13.3,13.3c0,3.3-1.2,6.2-3.1,8.5L36,34.4L34.4,36
	L22.8,24.5c-2.3,1.9-5.3,3.1-8.5,3.1C6.9,27.6,1,21.6,1,14.3z"/>
<path class="st1" d="M24.5,22.8l-0.4-0.3l-0.3,0.4l0.3,0.3L24.5,22.8z M36,34.4l0.4,0.4l0.4-0.4L36.4,34L36,34.4z M34.4,36L34,36.4
	l0.4,0.4l0.4-0.4L34.4,36z M22.8,24.5l0.4-0.4l-0.3-0.3l-0.4,0.3L22.8,24.5z M14.3,3.4c6,0,10.9,4.9,10.9,10.9h1
	c0-6.5-5.4-11.9-11.9-11.9V3.4z M3.4,14.3c0-6,4.9-10.9,10.9-10.9v-1C7.7,2.4,2.4,7.7,2.4,14.3H3.4z M14.3,25.2
	c-6,0-10.9-4.9-10.9-10.9h-1c0,6.5,5.4,11.9,11.9,11.9V25.2z M25.2,14.3c0,6-4.9,10.9-10.9,10.9v1c6.5,0,11.9-5.4,11.9-11.9H25.2z
	 M14.3,0.5C6.7,0.5,0.5,6.7,0.5,14.3h1c0-7.1,5.7-12.8,12.8-12.8V0.5z M28.1,14.3c0-7.6-6.2-13.8-13.8-13.8v1
	c7.1,0,12.8,5.7,12.8,12.8H28.1z M24.9,23.2c2-2.4,3.2-5.5,3.2-8.9h-1c0,3.1-1.1,6-3,8.2L24.9,23.2z M24.1,23.2l11.5,11.5l0.7-0.7
	L24.8,22.5L24.1,23.2z M35.6,34L34,35.6l0.7,0.7l1.6-1.6L35.6,34z M34.7,35.6L23.2,24.1l-0.7,0.7L34,36.4L34.7,35.6z M14.3,28.1
	c3.4,0,6.5-1.2,8.9-3.2l-0.6-0.8c-2.2,1.9-5.1,3-8.2,3V28.1z M0.5,14.3c0,7.6,6.2,13.8,13.8,13.8v-1c-7.1,0-12.8-5.7-12.8-12.8H0.5z
	"/>
</svg>