<?xml version="1.0" encoding="UTF-8"?><svg id="uuid-fe228363-db30-47a7-855a-f4259325206f" xmlns="http://www.w3.org/2000/svg" width="436" height="260.073" xmlns:xlink="http://www.w3.org/1999/xlink" viewBox="0 0 436 260.073"><defs><linearGradient id="uuid-41fc70aa-ad5c-40b8-bc9d-8b2a4a292274" x1="173.443" y1="44.889" x2="13.574" y2="44.889" gradientUnits="userSpaceOnUse"><stop offset="0" stop-color="#f4ae3d"/><stop offset=".998" stop-color="#f4ae3d" stop-opacity="0"/></linearGradient><linearGradient id="uuid-645775b2-878f-4df2-86b6-6c3ac0d495d6" x1="173.443" y1="142.43" x2="13.574" y2="142.43" xlink:href="#uuid-41fc70aa-ad5c-40b8-bc9d-8b2a4a292274"/><linearGradient id="uuid-808aa53e-299b-4077-840f-c4522d91ae73" x1="173.443" y1="235.759" x2="13.574" y2="235.759" xlink:href="#uuid-41fc70aa-ad5c-40b8-bc9d-8b2a4a292274"/></defs><line x1="276.079" y1="21.242" x2="276.699" y2="8.429" style="fill:none; stroke:#687581; stroke-miterlimit:10; stroke-width:.5px;"/><line x1="269.722" y1="21.353" x2="271.958" y2="8.487" style="fill:none; stroke:#687581; stroke-miterlimit:10; stroke-width:.5px;"/><path d="M274.212,8.458l-1.389,12.877-.262,1.389s-.785,5.436-.785,10.549c0,3.971.124,4.412.42,9.428l.287,5.521" style="fill:none; stroke:#687581; stroke-miterlimit:10; stroke-width:.5px;"/><line x1="292.976" y1="20.962" x2="293.262" y2="8.398" style="fill:none; stroke:#687581; stroke-miterlimit:10; stroke-width:.5px;"/><path d="M241.612,48.799l.037-.059s.334-.525.825-1.078c.639-.718,1.294-.958,2.235-.998,2.173-.092,37.11-.66,38.654-.681,1.889-.027,2.767,0,3.486.665.498.461.931.997,1.15,1.284" style="fill:none; stroke:#687581; stroke-miterlimit:10; stroke-width:.5px;"/><line x1="328.638" y1="9.948" x2="328.571" y2="7.232" style="fill:none; stroke:#687581; stroke-miterlimit:10; stroke-width:.5px;"/><path d="M235.347,38.068c26.594-.565,53.818-1.164,54.589-1.225,2.515-.2,3.513.051,4.231-.878.679-.878,1.317-1.916,2.275-3.353,2.464-3.697,5.547-3.93,12.413-4.031,8.103-.12,9.901.06,12.294,2.435.818.812,1.219,1.418,2.295,2.834.139.182.278.364.417.545.329.427.866.64,1.398.555l3.371-.535c.677-.107,1.647-.57,2.157-1.029l2.498-2.248c.499-.449.79-1.086.803-1.757,0,0,0,0,0,0,.046-2.316-.034-3.461-.034-3.461" style="fill:none; stroke:#687581; stroke-miterlimit:10; stroke-width:.5px;"/><path d="M339.058,36.789l-5.126,3.096c-.683.413-1.887.855-2.675.982l-6.461,1.044" style="fill:none; stroke:#687581; stroke-miterlimit:10; stroke-width:.5px;"/><rect x="303.405" y="16.479" width="2.027" height="2.027" rx=".261" ry=".261" transform="translate(76.793 220.38) rotate(-45)" style="fill:none; stroke:#687581; stroke-miterlimit:10; stroke-width:.5px;"/><path d="M203.936,29.701l-.356.348c-.086.084-.137.195-.144.314-.042.667-.099,3.271-.108,3.985-.017,1.441.119,2.027,1.213,2.036,1.222.009,1.647,0,1.954,0,.526,0,.945-.127,1.284-.699s1.594-2.729,2.275-3.592c.855-1.084,2.351-2.688,12.001-2.688s10.917,1.175,12.992,5.003l1.889,3.672" style="fill:none; stroke:#687581; stroke-miterlimit:10; stroke-width:.5px;"/><path d="M203.642,26.932l.084-.524c.024-.15.122-.277.26-.34,1.228-.56,6.226-1.464,7-1.549,6.697-.74,28.357-.8,28.357-.8h.03c.122-.004,32.993-1.076,32.993-1.076,0,0,40.821-.78,52.856-.78h6.425c1.043,0,2.049.078,2.167.971" style="fill:none; stroke:#687581; stroke-miterlimit:10; stroke-width:.5px;"/><path d="M205.54,48.623c1.173-6.026,1.999-8.741,2.821-10.935" style="fill:none; stroke:#687581; stroke-miterlimit:10; stroke-width:.5px;"/><path d="M323.537,38.231c1.442,3.326,2.227,7.89,2.37,8.645" style="fill:none; stroke:#687581; stroke-miterlimit:10; stroke-width:.5px;"/><path d="M292.865,47.842c.294-1.7.976-4.971,2.43-9.455" style="fill:none; stroke:#687581; stroke-miterlimit:10; stroke-width:.5px;"/><path d="M249.591,14.628c-.061.35-.215,1.128-.399,2.455" style="fill:none; stroke:#687581; stroke-miterlimit:10; stroke-width:.5px;"/><path d="M199.844,27.068q4.379-.159,7.401-.239c1.55-.078,2.08.202,1.536.885-.605.761-1.194,1.77-2.685,1.862-1.179.073-3.119.187-6.223.326" style="fill:none; stroke:#687581; stroke-miterlimit:10; stroke-width:.5px;"/><path d="M306.757,8.639s.953,5.765,1.313,7.759c.36,1.994.687,3.792,4.577,3.792s19.526-.057,19.526-.057" style="fill:none; stroke:#687581; stroke-miterlimit:10; stroke-width:.5px;"/><path d="M250.198,21.846l.533-.018s28.076-.636,33.195-.738c4.985-.099,11.066-.132,12.832-.197s2.419-.752,2.419-2.485c0-1.733-.011-9.926-.011-9.926" style="fill:none; stroke:#687581; stroke-miterlimit:10; stroke-width:.5px;"/><path d="M256.297,8.708s24.634-.362,28.347-.362c19.031,0,40.688.861,40.688.861,2.13.137,3.496.005,4.528,2.559,1.068,2.645,2.313,8.367,2.313,8.367h4.972" style="fill:none; stroke:#687581; stroke-miterlimit:10; stroke-width:.5px;"/><path d="M324.262,47.288s-.879-4.796-2.288-8.196c-1.351-3.261-2.798-6.122-5.003-6.812s-7.639-.521-7.639-.521c0,0-5.842.08-7.808.876s-3.504,2.833-5.152,7.914c-1.32,4.069-1.992,8.551-1.992,8.551" style="fill:none; stroke:#687581; stroke-miterlimit:10; stroke-width:1.5px;"/><line x1="296.849" y1="49.062" x2="234.574" y2="50.056" style="fill:none; stroke:#687581; stroke-miterlimit:10; stroke-width:.5px;"/><path d="M309.417,60.837c-7.044,0-12.774-5.73-12.774-12.774,0-7.044,5.73-12.774,12.774-12.774,7.044,0,12.774,5.73,12.774,12.774,0,7.043-5.73,12.774-12.774,12.774Z" style="fill:none; stroke:#687581; stroke-miterlimit:10; stroke-width:1.5px;"/><path d="M309.416,56.876c-4.859,0-8.813-3.953-8.813-8.813,0-4.859,3.953-8.813,8.813-8.813s8.813,3.953,8.813,8.813c0,4.859-3.953,8.813-8.813,8.813Z" style="fill:none; stroke:#687581; stroke-miterlimit:10; stroke-width:.5px;"/><path d="M307.031,54.084c-1.003-.412-1.921-1.082-2.623-1.942l.903-1.63c.07-.133.181-.238.322-.304l2.157-.996c.148-.073.219-.236.174-.389l-.093-.283-.087-.275c-.048-.136-.173-.223-.313-.223h-.017l-.038.004-2.336.462c-.047.009-.093.014-.138.014-.102,0-.204-.023-.295-.067l-1.711-.817c.078-1.085.43-2.165,1.033-3.097l1.831.357c.149.028.284.102.381.208l1.621,1.747c.059.065.145.103.235.103.069,0,.135-.022.191-.063l.47-.337c.135-.107.17-.282.091-.422l-1.158-2.076c-.074-.128-.103-.281-.083-.433l.247-1.872c1.599-.374,2.785-.105,3.262.023l.231,1.848c.02.148-.01.302-.083.433l-1.159,2.077c-.08.142-.041.323.09.42l.469.339c.056.041.122.063.192.063.088,0,.17-.035.233-.098l1.621-1.751c.101-.109.234-.182.386-.21l1.855-.345c.575.921.927,2.002.99,3.115l-1.691.786c-.095.046-.197.069-.298.069-.045,0-.091-.004-.136-.014l-2.354-.465-.041-.002c-.144,0-.272.094-.311.228l-.089.27-.088.276c-.053.152.019.323.17.394l2.159.997c.136.065.248.171.321.304l.9,1.656c-.701.829-1.613,1.497-2.636,1.902l-1.29-1.363c-.104-.109-.171-.249-.188-.395l-.283-2.363c-.018-.162-.157-.286-.323-.286h-.578c-.165,0-.303.123-.322.287l-.282,2.362c-.018.149-.084.288-.186.393l-1.305,1.379Z" style="fill:none; stroke:#687581; stroke-linecap:round; stroke-linejoin:round; stroke-width:.5px;"/><path d="M310.717,54.436c-.419.085-.857.129-1.302.129s-.88-.045-1.3-.129l1.3-1.302,1.302,1.302Z" style="fill:none; stroke:#687581; stroke-linecap:round; stroke-linejoin:round; stroke-width:.5px;"/><path d="M315.879,48.795c-.049.425-.142.855-.279,1.278s-.315.824-.525,1.196l-.837-1.638,1.64-.836Z" style="fill:none; stroke:#687581; stroke-linecap:round; stroke-linejoin:round; stroke-width:.5px;"/><path d="M312.11,42.142c.389.178.769.399,1.129.66s.686.554.975.869l-1.817.289-.288-1.819Z" style="fill:none; stroke:#687581; stroke-linecap:round; stroke-linejoin:round; stroke-width:.5px;"/><path d="M304.618,43.672c.289-.315.617-.608.977-.87s.739-.481,1.127-.659l-.286,1.817-1.819-.288Z" style="fill:none; stroke:#687581; stroke-linecap:round; stroke-linejoin:round; stroke-width:.5px;"/><path d="M303.757,51.269c-.21-.372-.388-.775-.525-1.198s-.23-.851-.278-1.276l1.64.834-.836,1.641Z" style="fill:none; stroke:#687581; stroke-linecap:round; stroke-linejoin:round; stroke-width:.5px;"/><path d="M305.457,48.434c-.133-1.426.504-2.471,1.002-3.026" style="fill:none; stroke:#687581; stroke-linecap:round; stroke-linejoin:round; stroke-width:.5px;"/><path d="M308.566,51.948c-1.106-.242-2.041-.945-2.592-1.897" style="fill:none; stroke:#687581; stroke-linecap:round; stroke-linejoin:round; stroke-width:.5px;"/><path d="M312.864,50.051c-.391.608-1.127,1.575-2.598,1.896" style="fill:none; stroke:#687581; stroke-linecap:round; stroke-linejoin:round; stroke-width:.5px;"/><path d="M312.374,45.407c.969,1.078,1.069,2.304,1.002,3.026" style="fill:none; stroke:#687581; stroke-linecap:round; stroke-linejoin:round; stroke-width:.5px;"/><path d="M307.83,44.417c1.501-.656,2.802-.162,3.174,0" style="fill:none; stroke:#687581; stroke-linecap:round; stroke-linejoin:round; stroke-width:.5px;"/><path d="M258.753,8.672c-2.673,1.643-10.137,6.135-19.162,13.511" style="fill:none; stroke:#687581; stroke-miterlimit:10; stroke-width:.5px;"/><path d="M337.826,22.826l-7.67.14c-.279,0-.526.126-.526.506l-.019.89c0,.874.825,1.618,2.637,1.618h5.678" style="fill:none; stroke:#687581; stroke-miterlimit:10; stroke-width:.5px;"/><path d="M207.097,48.846c-.982-.08-1.993-.167-3.397-1.01-2.048-1.231-3.746-2.429-4.796-3.543-.162-.172-.249-.401-.253-.637l-.061-3.962c-.003-.189.104-.362.275-.444l1.959-.738v-1.47s-.323-.024-.526-.359c-.125-.206-.35-.553-.504-.789-.108-.164-.162-.357-.157-.554l.213-8.353c.019-.765.486-1.446,1.194-1.738,1.91-.787,6.174-2.225,12.794-2.744,9.307-.73,16.945-.699,17.91-.777s1.981.391,2.972.391,2.92.052,2.92.052c0,0,8.316-7.104,18.64-13.452,1.345-.85,1.716-1.538,7.761-1.939,9.72-.644,38.344-.412,57.972.096l3.567.122c5.266,0,8.534,2.102,8.534,2.102,0,0,.532,1.697.912,3.09.351,1.289,2.481,9.296,2.797,10.486l.106,3.302h.004s.02.33.049,3.539c.031,3.404-.686,6.49-.686,6.49l1.763.49s0,.483,0,1.225c0,1.828-1.423,4.685-3.447,5.67-1.495.727-3.966,2.122-11.349,3.894-.703.169-1.406.329-2.11.481" style="fill:none; stroke:#687581; stroke-miterlimit:10; stroke-width:.5px;"/><path d="M237.716,50.006l-.093-.406c-.335-1.469-1.526-6.461-2.842-9.364-2.528-5.575-3.473-8.143-11.325-8.064-9.087.09-11.391.747-13.08,4.708-1.566,3.674-2.669,7.682-3.514,11.966" style="fill:none; stroke:#687581; stroke-miterlimit:10; stroke-width:1.5px;"/><path d="M337.295,36.009s-1.97,1.319-4.065,2.378c-2.262,1.144-4.633,1.36-6.373,1.569s-2.432.334-2.898-.867c-.695-1.328-1.668-3.815-3.529-6.317-1.969-2.648-4.619-2.647-11.136-2.634-2.796.005-6.412.219-8.103.758-3.997,1.276-5.731,7.271-6.71,9.553-.791,1.842-2.085,1.709-3.605,1.741-1.583.034-51.156,1.217-51.156,1.217-1.79,0-2.158.221-2.473-.589-.377-.971-1.469-4.138-2.954-6.894-1.907-3.538-3.055-5.108-12.06-5.108s-10.497,1.423-11.296,2.421c-.677.847-1.685,2.673-2.658,4.587-.131.257-.391.424-.679.435l-6.778.253" style="fill:none; stroke:#687581; stroke-miterlimit:10; stroke-width:.5px;"/><path d="M222.227,60.837c-7.044,0-12.774-5.73-12.774-12.774s5.73-12.774,12.774-12.774c7.044,0,12.774,5.73,12.774,12.774,0,7.043-5.73,12.774-12.774,12.774Z" style="fill:none; stroke:#687581; stroke-miterlimit:10; stroke-width:1.5px;"/><path d="M222.227,56.876c-4.859,0-8.813-3.953-8.813-8.813,0-4.859,3.953-8.813,8.813-8.813s8.813,3.953,8.813,8.813c0,4.859-3.953,8.813-8.813,8.813Z" style="fill:none; stroke:#687581; stroke-miterlimit:10; stroke-width:.5px;"/><path d="M219.841,54.084c-1.003-.412-1.921-1.082-2.623-1.942l.903-1.63c.07-.133.181-.238.322-.304l2.157-.996c.148-.073.219-.236.174-.389l-.093-.283-.087-.275c-.048-.136-.173-.223-.313-.223h-.017l-.038.004-2.336.462c-.047.009-.093.014-.138.014-.102,0-.204-.023-.295-.067l-1.711-.817c.078-1.085.43-2.165,1.033-3.097l1.831.357c.149.028.284.102.381.208l1.621,1.747c.059.065.145.103.235.103.069,0,.135-.022.191-.063l.47-.337c.135-.107.17-.282.091-.422l-1.158-2.076c-.074-.128-.103-.281-.083-.433l.247-1.872c1.599-.374,2.785-.105,3.262.023l.231,1.848c.02.148-.01.302-.083.433l-1.159,2.077c-.08.142-.041.323.09.42l.469.339c.056.041.122.063.192.063.088,0,.17-.035.233-.098l1.621-1.751c.101-.109.234-.182.386-.21l1.855-.345c.575.921.927,2.002.99,3.115l-1.691.786c-.095.046-.197.069-.298.069-.045,0-.091-.004-.136-.014l-2.354-.465-.041-.002c-.144,0-.272.094-.311.228l-.089.27-.088.276c-.053.152.019.323.17.394l2.159.997c.136.065.248.171.321.304l.9,1.656c-.701.829-1.613,1.497-2.636,1.902l-1.29-1.363c-.104-.109-.171-.249-.188-.395l-.283-2.363c-.018-.162-.157-.286-.323-.286h-.578c-.165,0-.303.123-.322.287l-.282,2.362c-.018.149-.084.288-.186.393l-1.305,1.379Z" style="fill:none; stroke:#687581; stroke-linecap:round; stroke-linejoin:round; stroke-width:.5px;"/><path d="M223.527,54.436c-.419.085-.857.129-1.302.129s-.88-.045-1.3-.129l1.3-1.302,1.302,1.302Z" style="fill:none; stroke:#687581; stroke-linecap:round; stroke-linejoin:round; stroke-width:.5px;"/><path d="M228.69,48.795c-.049.425-.142.855-.279,1.278s-.315.824-.525,1.196l-.837-1.638,1.64-.836Z" style="fill:none; stroke:#687581; stroke-linecap:round; stroke-linejoin:round; stroke-width:.5px;"/><path d="M224.92,42.142c.389.178.769.399,1.129.66s.686.554.975.869l-1.817.289-.288-1.819Z" style="fill:none; stroke:#687581; stroke-linecap:round; stroke-linejoin:round; stroke-width:.5px;"/><path d="M217.428,43.672c.289-.315.617-.608.977-.87s.739-.481,1.127-.659l-.286,1.817-1.819-.288Z" style="fill:none; stroke:#687581; stroke-linecap:round; stroke-linejoin:round; stroke-width:.5px;"/><path d="M216.567,51.269c-.21-.372-.388-.775-.525-1.198s-.23-.851-.278-1.276l1.64.834-.836,1.641Z" style="fill:none; stroke:#687581; stroke-linecap:round; stroke-linejoin:round; stroke-width:.5px;"/><path d="M218.267,48.434c-.133-1.426.504-2.471,1.002-3.026" style="fill:none; stroke:#687581; stroke-linecap:round; stroke-linejoin:round; stroke-width:.5px;"/><path d="M221.376,51.948c-1.106-.242-2.041-.945-2.592-1.897" style="fill:none; stroke:#687581; stroke-linecap:round; stroke-linejoin:round; stroke-width:.5px;"/><path d="M225.674,50.051c-.391.608-1.127,1.575-2.598,1.896" style="fill:none; stroke:#687581; stroke-linecap:round; stroke-linejoin:round; stroke-width:.5px;"/><path d="M225.184,45.407c.969,1.078,1.069,2.304,1.002,3.026" style="fill:none; stroke:#687581; stroke-linecap:round; stroke-linejoin:round; stroke-width:.5px;"/><path d="M220.64,44.417c1.501-.656,2.802-.162,3.174,0" style="fill:none; stroke:#687581; stroke-linecap:round; stroke-linejoin:round; stroke-width:.5px;"/><path d="M200.823,37.042h1.501c.31,0,.62.129.862.413l.408.481c.091.108.161.311.154.452l-.139,2.964c-.026.563-.394,1.053-.926,1.236l-1.053.363c-1.482.51-2.978.705-2.978.705" style="fill:none; stroke:#687581; stroke-miterlimit:10; stroke-width:.5px;"/><path d="M248.342,22.275h-1.548c-.247,0-.577-.156-.734-.347l-1.25-1.522c-.113-.138-.201-.294-.258-.463l-.018-.053" style="fill:none; stroke:#687581; stroke-miterlimit:10; stroke-width:.5px;"/><path d="M245.935,22.751c.097-.003.194-.024.284-.061.302-.125,1.113-.415,2.123-.415.488,0,1.336,0,1.8-.376.811-.695.651-3.007.323-3.931-.382-1.075-1.149-.975-2.77-.707-1.888.433-3.007,2.068-3.007,2.068-.537.602.393.976-.289,1.282-1.146.514-1.087.51-1.918,1.442-.11.123-.067.318.084.384l.679.297c.122.053.331.094.465.089l2.226-.071Z" style="fill:none; stroke:#687581; stroke-miterlimit:10; stroke-width:.5px;"/><line x1="250.71" y1="20.374" x2="248.048" y2="20.374" style="fill:none; stroke:#687581; stroke-linecap:round; stroke-linejoin:round; stroke-width:.5px;"/><rect x="290.654" y="24.778" width="6.412" height="1.273" rx=".636" ry=".636" transform="translate(-.312 3.91) rotate(-.762)" style="fill:none; stroke:#687581; stroke-linecap:round; stroke-linejoin:round; stroke-width:.5px;"/><rect x="262.82" y="25.378" width="6.412" height="1.273" rx=".636" ry=".636" transform="translate(-.419 4.713) rotate(-1.014)" style="fill:none; stroke:#687581; stroke-linecap:round; stroke-linejoin:round; stroke-width:.5px;"/><line x1="237.638" y1="22.172" x2="242.487" y2="22.045" style="fill:none; stroke:#687581; stroke-miterlimit:10; stroke-width:.5px;"/><path d="M240.082,48.803l-.934-5.399s-.605-3.497-.782-5.384-.339-7.048-.129-9.58.564-4.725.564-4.725l.79-1.532" style="fill:none; stroke:#687581; stroke-miterlimit:10; stroke-width:.5px;"/><path d="M300.409,8.524c.453,6.497.507,8.836.576,10.646.071,1.873.442,2.966.442,2.966,0,0,.632,4.079.632,6.851,0,2.772,0,3.437,0,3.437" style="fill:none; stroke:#687581; stroke-miterlimit:10; stroke-width:.5px;"/><line x1="294.6" y1="47.809" x2="237.314" y2="48.88" style="fill:none; stroke:#687581; stroke-miterlimit:10; stroke-width:.5px;"/><path d="M323.461,6.927l.079-.165s.912-1.903,2.164-1.903h1.251s.218,2.206.218,2.206" style="fill:none; stroke:#687581; stroke-miterlimit:10; stroke-width:.5px;"/><path d="M339.06,36.501v1.224c0,1.827-1.427,4.68-3.447,5.669-1.497.725-3.969,2.119-11.352,3.889-.688.165-1.38.325-2.072.476.165,7.181-5.627,13.076-12.77,13.076-6.705,0-12.223-5.194-12.732-11.767l-61.842.984c-.956,6.102-6.253,10.783-12.619,10.783-6.606,0-12.059-5.043-12.708-11.475h-.772c-.287,0-.598.221-.687.49l-.207.593c-.028.08-.113.141-.198.141h-.297c-.104,0-.198-.085-.203-.188l-.061-1.549c-.984-.08-1.987-.17-3.39-1.012-2.053-1.229-3.748-2.43-4.798-3.541-.165-.174-.249-.4-.254-.636l-.061-3.965c0-.188.104-.363.273-.443l1.959-.739v-1.469s-.32-.024-.523-.363c-.127-.202-.353-.551-.504-.786-.108-.165-.165-.358-.16-.551l.212-8.353c.024-.767.485-1.45,1.196-1.742,1.907-.782,6.173-2.222,12.793-2.74,9.304-.735,16.946-.702,17.911-.782.961-.075,1.978.396,2.971.396s2.919.052,2.919.052c0,0,8.315-7.105,18.641-13.452,1.347-.852,1.714-1.54,7.76-1.94,9.718-.645,38.346-.414,57.972.094l1.45.052.08-.165s.913-1.902,2.161-1.902h1.253l.221,2.204c4.322.358,6.936,2.039,6.936,2.039,0,0,.537,1.695.913,3.089.353,1.285,2.481,9.295,2.797,10.486l.103,3.301h.009s.019.334.047,3.541c.028,3.404-.687,6.493-.687,6.493l1.766.49Z" style="fill:none; stroke:#687581; stroke-miterlimit:10; stroke-width:1.5px;"/><path d="M299.067,55.537c-2.946-1.108-5.288-3.462-6.379-6.417" style="fill:none; stroke:#687581; stroke-miterlimit:10; stroke-width:1.5px;"/><path d="M238.59,49.992c-1.201,2.542-3.361,4.546-6.009,5.543" style="fill:none; stroke:#687581; stroke-miterlimit:10; stroke-width:1.5px;"/><line x1="208.169" y1="28.489" x2="211.938" y2="32.33" style="fill:none; stroke:#687581; stroke-miterlimit:10; stroke-width:.5px;"/><line x1="206.494" y1="36.384" x2="209.03" y2="36.384" style="fill:none; stroke:#687581; stroke-miterlimit:10; stroke-width:.5px;"/><line x1="279.617" y1="120.307" x2="280.77" y2="107.531" style="fill:none; stroke:#687581; stroke-miterlimit:10; stroke-width:.5px;"/><line x1="273.261" y1="120.153" x2="276.031" y2="107.391" style="fill:none; stroke:#687581; stroke-miterlimit:10; stroke-width:.5px;"/><path d="M278.284,107.457l-1.925,12.808-.319,1.377s-1.011,5.398-1.224,10.507c-.166,3.967-.06,4.413.027,9.437l.057,5.528" style="fill:none; stroke:#687581; stroke-miterlimit:10; stroke-width:.5px;"/><line x1="296.51" y1="120.732" x2="297.32" y2="108.19" style="fill:none; stroke:#687581; stroke-miterlimit:10; stroke-width:.5px;"/><path d="M244.03,146.403l.04-.057s.356-.511.869-1.042c.668-.691,1.333-.903,2.275-.904,2.175-.002,37.106.888,38.649.931,1.889.052,2.765.115,3.455.81.478.481.888,1.035,1.096,1.331" style="fill:none; stroke:#687581; stroke-miterlimit:10; stroke-width:.5px;"/><line x1="332.601" y1="111.214" x2="332.647" y2="108.497" style="fill:none; stroke:#687581; stroke-miterlimit:10; stroke-width:.5px;"/><path d="M238.218,135.42c26.594.544,53.82,1.081,54.592,1.052,2.521-.095,3.508.197,4.264-.701.715-.849,1.396-1.859,2.413-3.255,2.616-3.591,5.706-3.695,12.571-3.51,8.101.218,9.89.473,12.181,2.945.784.846,1.158,1.468,2.175,2.927.131.188.262.375.394.562.311.44.839.675,1.374.613l3.391-.394c.681-.079,1.67-.501,2.198-.938l2.589-2.142c.517-.428.835-1.052.876-1.722,0,0,0,0,0,0,.142-2.312.11-3.459.11-3.459" style="fill:none; stroke:#687581; stroke-miterlimit:10; stroke-width:.5px;"/><path d="M341.892,138.467l-5.25,2.88c-.7.384-1.921.775-2.714.87l-6.499.774" style="fill:none; stroke:#687581; stroke-miterlimit:10; stroke-width:.5px;"/><rect x="307.074" y="116.729" width="2.027" height="2.027" rx=".261" ry=".261" transform="translate(1.63 239.665) rotate(-42.61)" style="fill:none; stroke:#687581; stroke-miterlimit:10; stroke-width:.5px;"/><path d="M207.183,125.75l-.37.333c-.089.08-.145.189-.157.308-.069.665-.236,3.264-.274,3.977-.078,1.439.035,2.03,1.127,2.084,1.22.06,1.646.069,1.952.081.525.022.949-.087,1.312-.644s1.706-2.66,2.423-3.494c.9-1.048,2.461-2.587,12.103-2.185,9.642.402,10.859,1.63,12.772,5.54l1.735,3.748" style="fill:none; stroke:#687581; stroke-miterlimit:10; stroke-width:.5px;"/><path d="M207.005,122.972l.106-.52c.03-.149.133-.272.274-.329,1.251-.508,6.281-1.203,7.059-1.256,6.722-.46,28.366.383,28.366.383h.03c.122.003,33.01.302,33.01.302,0,0,40.818.923,52.843,1.424l6.419.268c1.042.043,2.044.164,2.125,1.061" style="fill:none; stroke:#687581; stroke-miterlimit:10; stroke-width:.5px;"/><path d="M207.998,144.723c1.424-5.971,2.362-8.65,3.274-10.807" style="fill:none; stroke:#687581; stroke-miterlimit:10; stroke-width:.5px;"/><path d="M326.325,139.26c1.302,3.384,1.896,7.976,2.007,8.736" style="fill:none; stroke:#687581; stroke-miterlimit:10; stroke-width:.5px;"/><path d="M295.279,147.584c.365-1.686,1.183-4.926,2.822-9.346" style="fill:none; stroke:#687581; stroke-miterlimit:10; stroke-width:.5px;"/><path d="M253.427,112.595c-.075.347-.262,1.118-.501,2.436" style="fill:none; stroke:#687581; stroke-miterlimit:10; stroke-width:.5px;"/><path d="M203.205,122.949q4.382.023,7.405.069c1.551-.013,2.069.288,1.498.948-.636.735-1.267,1.719-2.76,1.749-1.181.024-3.125.057-6.232.066" style="fill:none; stroke:#687581; stroke-miterlimit:10; stroke-width:.5px;"/><path d="M310.793,108.994s.712,5.799.988,7.807.528,3.818,4.415,3.98,19.512.758,19.512.758" style="fill:none; stroke:#687581; stroke-miterlimit:10; stroke-width:.5px;"/><path d="M253.733,119.831l.533.005s28.078.535,33.197.647c4.985.109,11.062.33,12.829.338s2.449-.65,2.521-2.382c.072-1.731.403-9.918.403-9.918" style="fill:none; stroke:#687581; stroke-miterlimit:10; stroke-width:.5px;"/><path d="M260.375,106.959s24.628.666,28.337.82c19.015.794,40.616,2.557,40.616,2.557,2.122.226,3.493.151,4.417,2.746.957,2.687,1.962,8.456,1.962,8.456l4.967.207" style="fill:none; stroke:#687581; stroke-miterlimit:10; stroke-width:.5px;"/><path d="M326.672,148.339s-.679-4.828-1.945-8.284c-1.214-3.314-2.541-6.233-4.714-7.015s-7.61-.839-7.61-.839c0,0-5.841-.164-7.837.55s-3.619,2.684-5.477,7.692c-1.488,4.011-2.347,8.461-2.347,8.461" style="fill:none; stroke:#687581; stroke-miterlimit:10; stroke-width:1.5px;"/><line x1="299.208" y1="148.969" x2="236.946" y2="147.366" style="fill:none; stroke:#687581; stroke-miterlimit:10; stroke-width:.5px;"/><path d="M311.366,159.073c-7.037-.294-12.524-6.258-12.23-13.295s6.258-12.524,13.295-12.23c7.038.294,12.524,6.258,12.23,13.296-.294,7.037-6.258,12.524-13.296,12.23Z" style="fill:none; stroke:#687581; stroke-miterlimit:10; stroke-width:1.5px;"/><path d="M311.53,155.115c-4.855-.203-8.64-4.317-8.438-9.172.203-4.855,4.317-8.64,9.173-8.438s8.64,4.317,8.438,9.173c-.203,4.855-4.317,8.64-9.173,8.437Z" style="fill:none; stroke:#687581; stroke-miterlimit:10; stroke-width:.5px;"/><path d="M309.263,152.226c-.985-.454-1.874-1.161-2.54-2.05l.97-1.591c.076-.13.191-.23.334-.29l2.196-.905c.151-.067.229-.226.19-.381l-.081-.286-.075-.278c-.042-.137-.163-.23-.303-.236h-.017s-.038.002-.038.002l-2.353.364c-.047.007-.093.01-.139.008-.102-.004-.203-.032-.292-.079l-1.675-.888c.123-1.081.52-2.146,1.162-3.051l1.815.433c.147.035.28.114.372.224l1.547,1.813c.056.068.141.109.23.113.069.003.136-.016.194-.055l.484-.317c.139-.101.182-.275.109-.418l-1.07-2.123c-.069-.131-.091-.285-.064-.436l.325-1.86c1.613-.307,2.787.011,3.258.159l.153,1.856c.014.149-.022.302-.101.43l-1.244,2.027c-.086.138-.055.321.072.423l.455.358c.054.043.12.068.189.071.088.004.172-.028.237-.088l1.693-1.681c.105-.105.242-.172.394-.194l1.868-.267c.536.944.843,2.039.859,3.154l-1.722.714c-.097.042-.2.061-.301.056-.045-.002-.091-.008-.135-.019l-2.333-.562-.041-.003c-.144-.006-.275.082-.32.215l-.1.266-.099.273c-.06.149.006.324.154.401l2.116,1.086c.133.071.24.181.308.317l.83,1.692c-.735.799-1.674,1.429-2.713,1.791l-1.232-1.416c-.1-.114-.16-.256-.172-.402l-.184-2.373c-.011-.163-.145-.292-.31-.299l-.577-.024c-.165-.007-.308.11-.334.273l-.38,2.348c-.024.148-.096.284-.202.385l-1.362,1.323Z" style="fill:none; stroke:#687581; stroke-linecap:round; stroke-linejoin:round; stroke-width:.5px;"/><path d="M312.932,152.732c-.422.067-.862.094-1.306.075s-.878-.081-1.293-.184l1.353-1.247,1.247,1.355Z" style="fill:none; stroke:#687581; stroke-linecap:round; stroke-linejoin:round; stroke-width:.5px;"/><path d="M318.325,147.311c-.067.422-.177.848-.332,1.265s-.349.81-.574,1.173l-.768-1.672,1.674-.767Z" style="fill:none; stroke:#687581; stroke-linecap:round; stroke-linejoin:round; stroke-width:.5px;"/><path d="M314.836,140.507c.381.194.752.431,1.101.707s.662.582.938.909l-1.827.213-.212-1.829Z" style="fill:none; stroke:#687581; stroke-linecap:round; stroke-linejoin:round; stroke-width:.5px;"/><path d="M307.287,141.722c.302-.303.642-.582,1.013-.829s.758-.45,1.154-.612l-.362,1.804-1.805-.364Z" style="fill:none; stroke:#687581; stroke-linecap:round; stroke-linejoin:round; stroke-width:.5px;"/><path d="M306.11,149.278c-.194-.381-.355-.79-.475-1.219s-.194-.86-.225-1.286l1.604.901-.904,1.604Z" style="fill:none; stroke:#687581; stroke-linecap:round; stroke-linejoin:round; stroke-width:.5px;"/><path d="M307.926,146.515c-.074-1.431.607-2.448,1.127-2.982" style="fill:none; stroke:#687581; stroke-linecap:round; stroke-linejoin:round; stroke-width:.5px;"/><path d="M310.886,150.156c-1.095-.288-2-1.03-2.511-2.004" style="fill:none; stroke:#687581; stroke-linecap:round; stroke-linejoin:round; stroke-width:.5px;"/><path d="M315.259,148.44c-.416.591-1.192,1.527-2.675,1.787" style="fill:none; stroke:#687581; stroke-linecap:round; stroke-linejoin:round; stroke-width:.5px;"/><path d="M314.963,143.78c.923,1.117.972,2.347.875,3.065" style="fill:none; stroke:#687581; stroke-linecap:round; stroke-linejoin:round; stroke-width:.5px;"/><path d="M310.465,142.601c1.527-.593,2.806-.045,3.171.133" style="fill:none; stroke:#687581; stroke-linecap:round; stroke-linejoin:round; stroke-width:.5px;"/><path d="M262.829,107.026c-2.739,1.531-10.384,5.707-19.708,12.7" style="fill:none; stroke:#687581; stroke-miterlimit:10; stroke-width:.5px;"/><path d="M341.244,124.464l-7.669-.18c-.279-.012-.53.104-.546.483l-.056.888c-.036.873.757,1.651,2.567,1.726l5.673.237" style="fill:none; stroke:#687581; stroke-miterlimit:10; stroke-width:.5px;"/><path d="M209.543,145.011c-.978-.121-1.984-.25-3.352-1.151-1.995-1.315-3.642-2.583-4.644-3.74-.155-.178-.232-.411-.226-.647l.104-3.961c.005-.189.119-.357.293-.432l1.988-.656.061-1.469s-.321-.037-.511-.38c-.116-.211-.327-.567-.471-.809-.101-.169-.147-.364-.134-.56l.561-8.337c.051-.764.546-1.425,1.265-1.686,1.941-.707,6.262-1.966,12.898-2.208,9.329-.341,16.96.008,17.927-.03s1.963.473,2.953.515,2.915.174,2.915.174c0,0,8.605-6.751,19.185-12.663,1.379-.794,1.778-1.466,7.835-1.614,9.738-.238,38.328,1.187,57.918,2.514l3.559.271c5.261.22,8.439,2.456,8.439,2.456,0,0,.461,1.717.782,3.125.297,1.302,2.091,9.391,2.357,10.593l-.032,3.304h.004s.006.331-.099,3.538c-.111,3.403-.956,6.456-.956,6.456l1.741.563s-.02.482-.051,1.224c-.076,1.827-1.618,4.622-3.68,5.521-1.524.665-4.051,1.955-11.501,3.417-.71.139-1.419.27-2.128.393" style="fill:none; stroke:#687581; stroke-miterlimit:10; stroke-width:.5px;"/><path d="M240.087,147.446l-.076-.41c-.274-1.481-1.255-6.519-2.45-9.474-2.293-5.675-3.13-8.28-10.979-8.53-9.082-.289-11.412.271-13.265,4.159-1.718,3.606-2.987,7.564-4.01,11.809" style="fill:none; stroke:#687581; stroke-miterlimit:10; stroke-width:1.5px;"/><path d="M340.163,137.614s-2.023,1.236-4.161,2.206c-2.308,1.048-4.686,1.165-6.433,1.302s-2.443.233-2.859-.987c-.639-1.356-1.507-3.881-3.262-6.459-1.857-2.727-4.505-2.837-11.017-3.096-2.793-.111-6.415-.049-8.127.42-4.047,1.108-6.029,7.026-7.103,9.265-.867,1.808-2.154,1.62-3.674,1.589-1.583-.032-51.162-.918-51.162-.918-1.789-.075-2.165.131-2.446-.692-.337-.986-1.296-4.196-2.664-7.011-1.758-3.614-2.839-5.231-11.836-5.606-8.997-.375-10.548.984-11.387,1.948-.712.818-1.795,2.601-2.847,4.472-.141.251-.409.407-.697.406l-6.782-.03" style="fill:none; stroke:#687581; stroke-miterlimit:10; stroke-width:.5px;"/><path d="M224.026,159.504c-7.037-.294-12.524-6.258-12.23-13.295.294-7.038,6.258-12.524,13.295-12.23s12.524,6.258,12.23,13.296c-.294,7.037-6.258,12.524-13.296,12.23Z" style="fill:none; stroke:#687581; stroke-miterlimit:10; stroke-width:1.5px;"/><path d="M224.19,155.546c-4.855-.203-8.64-4.317-8.438-9.172s4.317-8.64,9.173-8.438c4.855.203,8.64,4.317,8.438,9.173-.203,4.855-4.317,8.64-9.173,8.437Z" style="fill:none; stroke:#687581; stroke-miterlimit:10; stroke-width:.5px;"/><path d="M221.923,152.657c-.985-.454-1.874-1.161-2.54-2.05l.97-1.591c.076-.13.191-.23.334-.29l2.196-.905c.151-.067.229-.226.19-.381l-.081-.286-.075-.278c-.042-.137-.163-.23-.303-.236h-.017s-.038.002-.038.002l-2.353.364c-.047.007-.093.01-.139.008-.102-.004-.203-.032-.292-.079l-1.675-.888c.123-1.081.52-2.146,1.162-3.051l1.815.433c.147.035.28.114.372.224l1.547,1.813c.056.068.141.109.23.113.069.003.136-.016.194-.055l.484-.317c.139-.101.182-.275.109-.418l-1.07-2.123c-.069-.131-.091-.285-.064-.436l.325-1.86c1.613-.307,2.787.011,3.258.159l.153,1.856c.014.149-.022.302-.101.43l-1.244,2.027c-.086.138-.055.321.072.423l.455.358c.054.043.12.068.189.071.088.004.172-.028.237-.088l1.693-1.681c.105-.105.242-.172.394-.194l1.868-.267c.536.944.843,2.039.859,3.154l-1.722.714c-.097.042-.2.061-.301.056-.045-.002-.091-.008-.135-.019l-2.333-.562-.041-.003c-.144-.006-.275.082-.32.215l-.1.266-.099.273c-.06.149.006.324.154.401l2.116,1.086c.133.071.24.181.308.317l.83,1.692c-.735.799-1.674,1.429-2.713,1.791l-1.232-1.416c-.1-.114-.16-.256-.172-.402l-.184-2.373c-.011-.163-.145-.292-.31-.299l-.577-.024c-.165-.007-.308.11-.334.273l-.38,2.348c-.024.148-.096.284-.202.385l-1.362,1.323Z" style="fill:none; stroke:#687581; stroke-linecap:round; stroke-linejoin:round; stroke-width:.5px;"/><path d="M225.592,153.163c-.422.067-.862.094-1.306.075s-.878-.081-1.293-.184l1.353-1.247,1.247,1.355Z" style="fill:none; stroke:#687581; stroke-linecap:round; stroke-linejoin:round; stroke-width:.5px;"/><path d="M230.985,147.742c-.067.422-.177.848-.332,1.265s-.349.81-.574,1.173l-.768-1.672,1.674-.767Z" style="fill:none; stroke:#687581; stroke-linecap:round; stroke-linejoin:round; stroke-width:.5px;"/><path d="M227.496,140.938c.381.194.752.431,1.101.707s.662.582.938.909l-1.827.213-.212-1.829Z" style="fill:none; stroke:#687581; stroke-linecap:round; stroke-linejoin:round; stroke-width:.5px;"/><path d="M219.947,142.154c.302-.303.642-.582,1.013-.829s.758-.45,1.154-.612l-.362,1.804-1.805-.364Z" style="fill:none; stroke:#687581; stroke-linecap:round; stroke-linejoin:round; stroke-width:.5px;"/><path d="M218.77,149.709c-.194-.381-.355-.79-.475-1.219s-.194-.86-.225-1.286l1.604.901-.904,1.604Z" style="fill:none; stroke:#687581; stroke-linecap:round; stroke-linejoin:round; stroke-width:.5px;"/><path d="M220.587,146.947c-.074-1.431.607-2.448,1.127-2.982" style="fill:none; stroke:#687581; stroke-linecap:round; stroke-linejoin:round; stroke-width:.5px;"/><path d="M223.546,150.587c-1.095-.288-2-1.03-2.511-2.004" style="fill:none; stroke:#687581; stroke-linecap:round; stroke-linejoin:round; stroke-width:.5px;"/><path d="M227.92,148.872c-.416.591-1.192,1.527-2.675,1.787" style="fill:none; stroke:#687581; stroke-linecap:round; stroke-linejoin:round; stroke-width:.5px;"/><path d="M227.623,144.211c.923,1.117.972,2.347.875,3.065" style="fill:none; stroke:#687581; stroke-linecap:round; stroke-linejoin:round; stroke-width:.5px;"/><path d="M223.125,143.032c1.527-.593,2.806-.045,3.171.133" style="fill:none; stroke:#687581; stroke-linecap:round; stroke-linejoin:round; stroke-width:.5px;"/><path d="M203.767,132.956l1.499.063c.31.013.615.154.844.449l.388.497c.087.111.148.318.135.458l-.263,2.956c-.05.561-.437,1.036-.977,1.197l-1.068.318c-1.502.448-3.004.58-3.004.58" style="fill:none; stroke:#687581; stroke-miterlimit:10; stroke-width:.5px;"/><path d="M251.861,120.182l-1.547-.065c-.247-.01-.57-.18-.719-.377l-1.185-1.573c-.107-.142-.188-.303-.239-.473l-.016-.054" style="fill:none; stroke:#687581; stroke-miterlimit:10; stroke-width:.5px;"/><path d="M249.436,120.558c.097,0,.195-.016.287-.049.307-.112,1.129-.368,2.138-.326.488.02,1.335.056,1.814-.301.839-.661.776-2.977.487-3.914-.337-1.09-1.107-1.022-2.738-.822-1.905.354-3.091,1.941-3.091,1.941-.561.579.352.991-.343,1.268-1.167.466-1.108.464-1.976,1.36-.115.118-.08.315.068.387l.666.325c.12.059.327.107.461.109l2.227.022Z" style="fill:none; stroke:#687581; stroke-miterlimit:10; stroke-width:.5px;"/><line x1="254.305" y1="118.381" x2="251.646" y2="118.27" style="fill:none; stroke:#687581; stroke-linecap:round; stroke-linejoin:round; stroke-width:.5px;"/><rect x="294.002" y="124.581" width="6.412" height="1.273" rx=".636" ry=".636" transform="translate(3.677 -8.392) rotate(1.628)" style="fill:none; stroke:#687581; stroke-linecap:round; stroke-linejoin:round; stroke-width:.5px;"/><rect x="266.167" y="124.02" width="6.412" height="1.273" rx=".636" ry=".636" transform="translate(3.07 -6.43) rotate(1.375)" style="fill:none; stroke:#687581; stroke-linecap:round; stroke-linejoin:round; stroke-width:.5px;"/><line x1="241.17" y1="119.634" x2="246.02" y2="119.709" style="fill:none; stroke:#687581; stroke-miterlimit:10; stroke-width:.5px;"/><path d="M242.502,146.343l-.708-5.434s-.459-3.519-.557-5.412c-.099-1.893-.045-7.056.271-9.577s.761-4.698.761-4.698l.853-1.498" style="fill:none; stroke:#687581; stroke-miterlimit:10; stroke-width:.5px;"/><path d="M304.456,108.615c.182,6.51.138,8.85.132,10.661-.007,1.874.318,2.982.318,2.982,0,0,.462,4.102.346,6.871-.116,2.769-.143,3.434-.143,3.434" style="fill:none; stroke:#687581; stroke-miterlimit:10; stroke-width:.5px;"/><line x1="297.014" y1="147.623" x2="239.732" y2="146.304" style="fill:none; stroke:#687581; stroke-miterlimit:10; stroke-width:.5px;"/><path d="M327.554,107.981l.086-.162s.991-1.863,2.241-1.811l1.25.052.126,2.213" style="fill:none; stroke:#687581; stroke-miterlimit:10; stroke-width:.5px;"/><path d="M211.941,145.625l-.771-.032c-.287-.012-.607.196-.707.461l-.232.584c-.031.079-.119.136-.203.133l-.296-.012c-.103-.004-.194-.093-.195-.197l.003-1.55c-.98-.121-1.978-.252-3.345-1.153-2-1.313-3.643-2.584-4.646-3.738-.157-.181-.233-.41-.227-.646l.104-3.964c.008-.188.119-.358.291-.431l1.988-.657.061-1.468s-.319-.037-.507-.384c-.119-.208-.33-.565-.471-.807-.101-.169-.15-.364-.137-.557l.56-8.337c.056-.766.545-1.429,1.268-1.691,1.938-.701,6.26-1.963,12.896-2.205,9.327-.346,16.961.006,17.928-.034.963-.035,1.959.478,2.952.519s2.915.173,2.915.173c0,0,8.604-6.752,19.186-12.663,1.381-.795,1.777-1.467,7.834-1.615,9.737-.239,38.33,1.185,57.917,2.511l1.447.112.087-.161s.992-1.863,2.239-1.811l1.251.052.129,2.211c4.304.538,6.845,2.326,6.845,2.326,0,0,.466,1.716.784,3.124.299,1.299,2.092,9.39,2.357,10.593l-.034,3.302h.009s.005.335-.101,3.54c-.114,3.403-.958,6.459-.958,6.459l1.744.563-.051,1.223c-.076,1.825-1.621,4.617-3.68,5.52-1.526.662-4.054,1.951-11.505,3.413-.694.136-1.392.267-2.09.389" style="fill:none; stroke:#687581; stroke-miterlimit:10; stroke-width:1.5px;"/><path d="M299.047,148.968l-61.829-1.595" style="fill:none; stroke:#687581; stroke-miterlimit:10; stroke-width:1.5px;"/><path d="M301.249,153.26c-2.114-.897-3.878-2.444-5.054-4.378" style="fill:none; stroke:#687581; stroke-miterlimit:10; stroke-width:1.5px;"/><path d="M236.435,151.443c1.824-1.025,3.548-2.108,4.527-3.979" style="fill:none; stroke:#687581; stroke-miterlimit:10; stroke-width:1.5px;"/><line x1="211.464" y1="124.716" x2="215.068" y2="128.711" style="fill:none; stroke:#687581; stroke-miterlimit:10; stroke-width:.5px;"/><line x1="209.461" y1="132.535" x2="211.994" y2="132.64" style="fill:none; stroke:#687581; stroke-miterlimit:10; stroke-width:.5px;"/><line x1="277.858" y1="211.356" x2="278.098" y2="198.53" style="fill:none; stroke:#687581; stroke-miterlimit:10; stroke-width:.5px;"/><line x1="271.507" y1="211.656" x2="273.36" y2="198.729" style="fill:none; stroke:#687581; stroke-miterlimit:10; stroke-width:.5px;"/><path d="M275.612,198.633l-1.007,12.913-.22,1.396s-.624,5.457-.472,10.568c.118,3.969.254,4.406.699,9.411l.451,5.51" style="fill:none; stroke:#687581; stroke-miterlimit:10; stroke-width:.5px;"/><line x1="294.739" y1="210.575" x2="294.652" y2="198.008" style="fill:none; stroke:#687581; stroke-miterlimit:10; stroke-width:.5px;"/><path d="M244.223,239.923l.036-.06s.318-.535.793-1.102c.617-.737,1.265-.996,2.205-1.064,2.17-.157,37.074-1.76,38.617-1.827,1.888-.083,2.766-.082,3.504.562.511.446.96.969,1.188,1.249" style="fill:none; stroke:#687581; stroke-miterlimit:10; stroke-width:.5px;"/><line x1="330.059" y1="198.509" x2="329.911" y2="195.795" style="fill:none; stroke:#687581; stroke-miterlimit:10; stroke-width:.5px;"/><path d="M237.642,229.383c26.565-1.354,53.76-2.759,54.529-2.843,2.508-.274,3.513-.053,4.203-1.003.652-.898,1.26-1.954,2.175-3.419,2.354-3.768,5.428-4.093,12.288-4.398,8.096-.36,9.899-.233,12.36,2.069.842.788,1.26,1.381,2.378,2.765.144.178.288.355.433.532.342.417.885.614,1.414.513l3.354-.635c.673-.127,1.63-.619,2.125-1.092l2.43-2.321c.485-.464.758-1.109.751-1.78,0,0,0,0,0,0-.023-2.317-.137-3.458-.137-3.458" style="fill:none; stroke:#687581; stroke-miterlimit:10; stroke-width:.5px;"/><path d="M341.27,225.029l-5.032,3.247c-.671.433-1.861.91-2.645,1.061l-6.427,1.235" style="fill:none; stroke:#687581; stroke-miterlimit:10; stroke-width:.5px;"/><rect x="305.06" y="205.754" width="2.027" height="2.027" rx=".261" ry=".261" transform="translate(-54.319 287.709) rotate(-46.699)" style="fill:none; stroke:#687581; stroke-miterlimit:10; stroke-width:.5px;"/><path d="M205.997,221.95l-.345.359c-.083.086-.131.199-.135.318-.022.668-.002,3.272.01,3.987.025,1.441.18,2.023,1.273,1.999,1.222-.027,1.647-.049,1.953-.058.525-.016.941-.155,1.263-.736s1.512-2.775,2.168-3.658c.823-1.109,2.27-2.756,11.916-3.042s10.947.851,13.135,4.615l1.997,3.615" style="fill:none; stroke:#687581; stroke-miterlimit:10; stroke-width:.5px;"/><path d="M205.621,219.191l.069-.527c.02-.15.113-.281.249-.348,1.211-.596,6.179-1.647,6.951-1.756,6.672-.939,28.321-1.64,28.321-1.64h.03c.122-.008,32.947-2.055,32.947-2.055,0,0,40.78-1.99,52.81-2.347l6.422-.19c1.043-.031,2.051.018,2.195.906" style="fill:none; stroke:#687581; stroke-miterlimit:10; stroke-width:.5px;"/><path d="M208.162,240.817c.994-6.058,1.739-8.796,2.495-11.013" style="fill:none; stroke:#687581; stroke-miterlimit:10; stroke-width:.5px;"/><path d="M325.798,226.931c1.54,3.282,2.46,7.821,2.625,8.571" style="fill:none; stroke:#687581; stroke-miterlimit:10; stroke-width:.5px;"/><path d="M295.425,237.446c.244-1.708.828-4.998,2.149-9.523" style="fill:none; stroke:#687581; stroke-miterlimit:10; stroke-width:.5px;"/><path d="M251.185,205.531c-.05.352-.181,1.134-.326,2.466" style="fill:none; stroke:#687581; stroke-miterlimit:10; stroke-width:.5px;"/><path d="M201.829,219.44q4.373-.289,7.391-.459c1.547-.124,2.085.14,1.562.839-.582.778-1.141,1.805-2.629,1.941-1.176.108-3.113.279-6.211.51" style="fill:none; stroke:#687581; stroke-miterlimit:10; stroke-width:.5px;"/><path d="M308.148,197.849s1.124,5.734,1.542,7.717.799,3.77,4.688,3.655c3.889-.115,19.516-.635,19.516-.635" style="fill:none; stroke:#687581; stroke-miterlimit:10; stroke-width:.5px;"/><path d="M252.006,212.727l.532-.033s28.044-1.468,33.159-1.721c4.98-.247,11.057-.46,12.82-.577s2.396-.823,2.345-2.555c-.051-1.732-.305-9.921-.305-9.921" style="fill:none; stroke:#687581; stroke-miterlimit:10; stroke-width:.5px;"/><path d="M257.713,199.414s24.613-1.092,28.324-1.202c19.023-.564,40.695-.346,40.695-.346,2.133.074,3.495-.099,4.602,2.424,1.146,2.612,2.56,8.295,2.56,8.295l4.969-.147" style="fill:none; stroke:#687581; stroke-miterlimit:10; stroke-width:.5px;"/><path d="M326.792,235.961s-1.021-4.767-2.53-8.124c-1.447-3.219-2.979-6.036-5.202-6.661s-7.651-.295-7.651-.295c0,0-5.838.253-7.778,1.107s-3.419,2.936-4.915,8.063c-1.199,4.107-1.737,8.607-1.737,8.607" style="fill:none; stroke:#687581; stroke-miterlimit:10; stroke-width:1.5px;"/><line x1="299.443" y1="238.548" x2="237.225" y2="241.388" style="fill:none; stroke:#687581; stroke-miterlimit:10; stroke-width:.5px;"/><path d="M311.366,251.338c-7.037-.294-12.524-6.258-12.23-13.295s6.258-12.524,13.295-12.23c7.038.294,12.524,6.258,12.23,13.296-.294,7.037-6.258,12.524-13.296,12.23Z" style="fill:none; stroke:#687581; stroke-miterlimit:10; stroke-width:1.5px;"/><path d="M311.53,247.38c-4.855-.203-8.64-4.317-8.438-9.172.203-4.855,4.317-8.64,9.173-8.438s8.64,4.317,8.438,9.173c-.203,4.855-4.317,8.64-9.173,8.437Z" style="fill:none; stroke:#687581; stroke-miterlimit:10; stroke-width:.5px;"/><path d="M309.263,244.491c-.985-.454-1.874-1.161-2.54-2.05l.97-1.591c.076-.13.191-.23.334-.29l2.196-.905c.151-.067.229-.226.19-.381l-.081-.286-.075-.278c-.042-.137-.163-.23-.303-.236h-.017s-.038.002-.038.002l-2.353.364c-.047.007-.093.01-.139.008-.102-.004-.203-.032-.292-.079l-1.675-.888c.123-1.081.52-2.146,1.162-3.051l1.815.433c.147.035.28.114.372.224l1.547,1.813c.056.068.141.109.23.113.069.003.136-.016.194-.055l.484-.317c.139-.101.182-.275.109-.418l-1.07-2.123c-.069-.131-.091-.285-.064-.436l.325-1.86c1.613-.307,2.787.011,3.258.159l.153,1.856c.014.149-.022.302-.101.43l-1.244,2.027c-.086.138-.055.321.072.423l.455.358c.054.043.12.068.189.071.088.004.172-.028.237-.088l1.693-1.681c.105-.105.242-.172.394-.194l1.868-.267c.536.944.843,2.039.859,3.154l-1.722.714c-.097.042-.2.061-.301.056-.045-.002-.091-.008-.135-.019l-2.333-.562-.041-.003c-.144-.006-.275.082-.32.215l-.1.266-.099.273c-.06.149.006.324.154.401l2.116,1.086c.133.071.24.181.308.317l.83,1.692c-.735.799-1.674,1.429-2.713,1.791l-1.232-1.416c-.1-.114-.16-.256-.172-.402l-.184-2.373c-.011-.163-.145-.292-.31-.299l-.577-.024c-.165-.007-.308.11-.334.273l-.38,2.348c-.024.148-.096.284-.202.385l-1.362,1.323Z" style="fill:none; stroke:#687581; stroke-linecap:round; stroke-linejoin:round; stroke-width:.5px;"/><path d="M312.932,244.996c-.422.067-.862.094-1.306.075s-.878-.081-1.293-.184l1.353-1.247,1.247,1.355Z" style="fill:none; stroke:#687581; stroke-linecap:round; stroke-linejoin:round; stroke-width:.5px;"/><path d="M318.325,239.576c-.067.422-.177.848-.332,1.265s-.349.81-.574,1.173l-.768-1.672,1.674-.767Z" style="fill:none; stroke:#687581; stroke-linecap:round; stroke-linejoin:round; stroke-width:.5px;"/><path d="M314.836,232.772c.381.194.752.431,1.101.707s.662.582.938.909l-1.827.213-.212-1.829Z" style="fill:none; stroke:#687581; stroke-linecap:round; stroke-linejoin:round; stroke-width:.5px;"/><path d="M307.287,233.987c.302-.303.642-.582,1.013-.829s.758-.45,1.154-.612l-.362,1.804-1.805-.364Z" style="fill:none; stroke:#687581; stroke-linecap:round; stroke-linejoin:round; stroke-width:.5px;"/><path d="M306.11,241.542c-.194-.381-.355-.79-.475-1.219s-.194-.86-.225-1.286l1.604.901-.904,1.604Z" style="fill:none; stroke:#687581; stroke-linecap:round; stroke-linejoin:round; stroke-width:.5px;"/><path d="M307.926,238.78c-.074-1.431.607-2.448,1.127-2.982" style="fill:none; stroke:#687581; stroke-linecap:round; stroke-linejoin:round; stroke-width:.5px;"/><path d="M310.886,242.42c-1.095-.288-2-1.03-2.511-2.004" style="fill:none; stroke:#687581; stroke-linecap:round; stroke-linejoin:round; stroke-width:.5px;"/><path d="M315.259,240.705c-.416.591-1.192,1.527-2.675,1.787" style="fill:none; stroke:#687581; stroke-linecap:round; stroke-linejoin:round; stroke-width:.5px;"/><path d="M314.963,236.045c.923,1.117.972,2.347.875,3.065" style="fill:none; stroke:#687581; stroke-linecap:round; stroke-linejoin:round; stroke-width:.5px;"/><path d="M310.465,234.866c1.527-.593,2.806-.045,3.171.133" style="fill:none; stroke:#687581; stroke-linecap:round; stroke-linejoin:round; stroke-width:.5px;"/><path d="M260.166,199.306c-2.623,1.722-9.95,6.433-18.753,14.073" style="fill:none; stroke:#687581; stroke-miterlimit:10; stroke-width:.5px;"/><path d="M339.624,211.108l-7.662.368c-.279.008-.522.142-.51.521l.008.89c.026.873.873,1.593,2.683,1.539l5.676-.168" style="fill:none; stroke:#687581; stroke-miterlimit:10; stroke-width:.5px;"/><path d="M209.724,240.993c-.984-.051-1.997-.108-3.425-.909-2.084-1.17-3.817-2.317-4.899-3.399-.167-.167-.261-.393-.271-.629l-.179-3.958c-.009-.189.093-.365.261-.452l1.936-.796-.044-1.47s-.323-.014-.536-.343c-.131-.202-.366-.542-.527-.773-.112-.161-.173-.353-.174-.549l-.035-8.355c-.003-.765.443-1.46,1.141-1.772,1.886-.843,6.105-2.407,12.707-3.122,9.281-1.006,16.917-1.201,17.879-1.308s1.992.332,2.982.303,2.92-.034,2.92-.034c0,0,8.102-7.348,18.233-13.999,1.319-.89,1.669-1.589,7.7-2.168,9.696-.932,38.315-1.549,57.95-1.623l3.569.016c5.263-.156,8.593,1.848,8.593,1.848,0,0,.582,1.68,1.003,3.061.39,1.278,2.755,9.218,3.107,10.398l.204,3.298h.004s.029.329.154,3.536c.132,3.402-.493,6.508-.493,6.508l1.777.437s.014.483.036,1.224c.054,1.827-1.284,4.725-3.277,5.769-1.473.771-3.901,2.239-11.228,4.229-.698.19-1.396.371-2.094.544" style="fill:none; stroke:#687581; stroke-miterlimit:10; stroke-width:.5px;"/><path d="M240.364,241.245l-.105-.403c-.379-1.458-1.717-6.413-3.119-9.275-2.692-5.497-3.712-8.036-11.559-7.725-9.08.36-11.364,1.084-12.935,5.094-1.457,3.719-2.44,7.757-3.158,12.065" style="fill:none; stroke:#687581; stroke-miterlimit:10; stroke-width:1.5px;"/><path d="M339.484,224.302s-1.93,1.377-3.993,2.497c-2.227,1.21-4.591,1.496-6.323,1.758s-2.421.406-2.922-.781c-.734-1.307-1.78-3.764-3.714-6.21-2.047-2.588-4.695-2.509-11.209-2.303-2.794.088-6.402.409-8.077.998-3.958,1.394-5.513,7.438-6.424,9.748-.736,1.865-2.033,1.77-3.552,1.847-1.581.081-51.098,2.733-51.098,2.733-1.789.053-2.15.285-2.489-.516-.406-.959-1.591-4.093-3.157-6.803-2.011-3.48-3.205-5.015-12.206-4.748-9.001.267-10.451,1.734-11.219,2.755-.652.867-1.605,2.722-2.521,4.664-.123.261-.378.435-.666.455l-6.767.454" style="fill:none; stroke:#687581; stroke-miterlimit:10; stroke-width:.5px;"/><path d="M224.026,251.769c-7.037-.294-12.524-6.258-12.23-13.295.294-7.038,6.258-12.524,13.295-12.23s12.524,6.258,12.23,13.296c-.294,7.037-6.258,12.524-13.296,12.23Z" style="fill:none; stroke:#687581; stroke-miterlimit:10; stroke-width:1.5px;"/><path d="M224.19,247.811c-4.855-.203-8.64-4.317-8.438-9.172s4.317-8.64,9.173-8.438c4.855.203,8.64,4.317,8.438,9.173-.203,4.855-4.317,8.64-9.173,8.437Z" style="fill:none; stroke:#687581; stroke-miterlimit:10; stroke-width:.5px;"/><path d="M221.923,244.922c-.985-.454-1.874-1.161-2.54-2.05l.97-1.591c.076-.13.191-.23.334-.29l2.196-.905c.151-.067.229-.226.19-.381l-.081-.286-.075-.278c-.042-.137-.163-.23-.303-.236h-.017s-.038.002-.038.002l-2.353.364c-.047.007-.093.01-.139.008-.102-.004-.203-.032-.292-.079l-1.675-.888c.123-1.081.52-2.146,1.162-3.051l1.815.433c.147.035.28.114.372.224l1.547,1.813c.056.068.141.109.23.113.069.003.136-.016.194-.055l.484-.317c.139-.101.182-.275.109-.418l-1.07-2.123c-.069-.131-.091-.285-.064-.436l.325-1.86c1.613-.307,2.787.011,3.258.159l.153,1.856c.014.149-.022.302-.101.43l-1.244,2.027c-.086.138-.055.321.072.423l.455.358c.054.043.12.068.189.071.088.004.172-.028.237-.088l1.693-1.681c.105-.105.242-.172.394-.194l1.868-.267c.536.944.843,2.039.859,3.154l-1.722.714c-.097.042-.2.061-.301.056-.045-.002-.091-.008-.135-.019l-2.333-.562-.041-.003c-.144-.006-.275.082-.32.215l-.1.266-.099.273c-.06.149.006.324.154.401l2.116,1.086c.133.071.24.181.308.317l.83,1.692c-.735.799-1.674,1.429-2.713,1.791l-1.232-1.416c-.1-.114-.16-.256-.172-.402l-.184-2.373c-.011-.163-.145-.292-.31-.299l-.577-.024c-.165-.007-.308.11-.334.273l-.38,2.348c-.024.148-.096.284-.202.385l-1.362,1.323Z" style="fill:none; stroke:#687581; stroke-linecap:round; stroke-linejoin:round; stroke-width:.5px;"/><path d="M225.592,245.427c-.422.067-.862.094-1.306.075s-.878-.081-1.293-.184l1.353-1.247,1.247,1.355Z" style="fill:none; stroke:#687581; stroke-linecap:round; stroke-linejoin:round; stroke-width:.5px;"/><path d="M230.985,240.007c-.067.422-.177.848-.332,1.265s-.349.81-.574,1.173l-.768-1.672,1.674-.767Z" style="fill:none; stroke:#687581; stroke-linecap:round; stroke-linejoin:round; stroke-width:.5px;"/><path d="M227.496,233.203c.381.194.752.431,1.101.707s.662.582.938.909l-1.827.213-.212-1.829Z" style="fill:none; stroke:#687581; stroke-linecap:round; stroke-linejoin:round; stroke-width:.5px;"/><path d="M219.947,234.418c.302-.303.642-.582,1.013-.829s.758-.45,1.154-.612l-.362,1.804-1.805-.364Z" style="fill:none; stroke:#687581; stroke-linecap:round; stroke-linejoin:round; stroke-width:.5px;"/><path d="M218.77,241.974c-.194-.381-.355-.79-.475-1.219s-.194-.86-.225-1.286l1.604.901-.904,1.604Z" style="fill:none; stroke:#687581; stroke-linecap:round; stroke-linejoin:round; stroke-width:.5px;"/><path d="M220.587,239.211c-.074-1.431.607-2.448,1.127-2.982" style="fill:none; stroke:#687581; stroke-linecap:round; stroke-linejoin:round; stroke-width:.5px;"/><path d="M223.546,242.852c-1.095-.288-2-1.03-2.511-2.004" style="fill:none; stroke:#687581; stroke-linecap:round; stroke-linejoin:round; stroke-width:.5px;"/><path d="M227.92,241.136c-.416.591-1.192,1.527-2.675,1.787" style="fill:none; stroke:#687581; stroke-linecap:round; stroke-linejoin:round; stroke-width:.5px;"/><path d="M227.623,236.476c.923,1.117.972,2.347.875,3.065" style="fill:none; stroke:#687581; stroke-linecap:round; stroke-linejoin:round; stroke-width:.5px;"/><path d="M223.125,235.297c1.527-.593,2.806-.045,3.171.133" style="fill:none; stroke:#687581; stroke-linecap:round; stroke-linejoin:round; stroke-width:.5px;"/><path d="M203.103,229.381l1.5-.044c.31-.009.624.11.874.387l.422.468c.094.105.17.306.167.447l-.051,2.967c-.01.563-.362,1.064-.889,1.263l-1.042.394c-1.466.554-2.955.793-2.955.793" style="fill:none; stroke:#687581; stroke-miterlimit:10; stroke-width:.5px;"/><path d="M250.164,213.211l-1.547.046c-.247.007-.582-.139-.744-.325l-1.294-1.484c-.117-.134-.209-.288-.272-.455l-.02-.052" style="fill:none; stroke:#687581; stroke-miterlimit:10; stroke-width:.5px;"/><path d="M247.772,213.758c.097-.006.194-.03.282-.069.298-.134,1.1-.448,2.109-.478.488-.014,1.336-.04,1.788-.43.79-.719.562-3.025.207-3.938-.414-1.064-1.177-.941-2.789-.624-1.875.489-2.945,2.156-2.945,2.156-.519.617.422.964-.251,1.29-1.131.548-1.072.542-1.874,1.498-.106.126-.058.319.095.381l.687.277c.124.05.334.084.467.076l2.223-.137Z" style="fill:none; stroke:#687581; stroke-miterlimit:10; stroke-width:.5px;"/><line x1="252.474" y1="211.24" x2="249.813" y2="211.319" style="fill:none; stroke:#687581; stroke-linecap:round; stroke-linejoin:round; stroke-width:.5px;"/><rect x="292.548" y="214.363" width="6.412" height="1.273" rx=".636" ry=".636" transform="translate(-8.959 12.898) rotate(-2.461)" style="fill:none; stroke:#687581; stroke-linecap:round; stroke-linejoin:round; stroke-width:.5px;"/><rect x="264.744" y="215.788" width="6.412" height="1.273" rx=".636" ry=".636" transform="translate(-9.945 12.927) rotate(-2.713)" style="fill:none; stroke:#687581; stroke-linecap:round; stroke-linejoin:round; stroke-width:.5px;"/><line x1="239.461" y1="213.426" x2="244.304" y2="213.155" style="fill:none; stroke:#687581; stroke-miterlimit:10; stroke-width:.5px;"/><path d="M242.694,239.972l-1.094-5.369s-.708-3.478-.942-5.358c-.233-1.881-.547-7.034-.413-9.571s.424-4.74.424-4.74l.744-1.555" style="fill:none; stroke:#687581; stroke-miterlimit:10; stroke-width:.5px;"/><path d="M301.8,197.922c.646,6.481.769,8.817.891,10.624.127,1.87.53,2.951.53,2.951,0,0,.753,4.059.835,6.829l.102,3.436" style="fill:none; stroke:#687581; stroke-miterlimit:10; stroke-width:.5px;"/><line x1="297.158" y1="237.362" x2="239.929" y2="240.131" style="fill:none; stroke:#687581; stroke-miterlimit:10; stroke-width:.5px;"/><path d="M324.794,195.643l.074-.168s.856-1.929,2.106-1.966l1.251-.037.284,2.199" style="fill:none; stroke:#687581; stroke-miterlimit:10; stroke-width:.5px;"/><path d="M212.16,241.435l-.772.023c-.287.009-.591.239-.673.51l-.19.599c-.026.081-.109.145-.193.147l-.296.009c-.104.003-.2-.079-.208-.182l-.107-1.547c-.986-.051-1.991-.111-3.419-.911-2.089-1.168-3.818-2.317-4.901-3.397-.17-.169-.261-.393-.273-.628l-.179-3.961c-.006-.188.093-.365.26-.451l1.936-.797-.044-1.468s-.321-.014-.533-.347c-.133-.199-.369-.54-.527-.771-.113-.162-.175-.353-.176-.546l-.036-8.356c0-.768.442-1.464,1.144-1.777,1.883-.838,6.104-2.404,12.706-3.118,9.278-1.01,16.918-1.204,17.88-1.312.958-.104,1.989.337,2.982.307s2.92-.035,2.92-.035c0,0,8.101-7.349,18.234-13.999,1.321-.892,1.668-1.59,7.699-2.169,9.695-.933,38.317-1.551,57.949-1.625l1.451.009.075-.167s.857-1.929,2.104-1.966l1.252-.037.287,2.196c4.331.23,6.993,1.832,6.993,1.832,0,0,.587,1.678,1.005,3.06.391,1.274,2.756,9.217,3.107,10.398l.201,3.296h.009s.029.333.152,3.538c.129,3.402-.495,6.511-.495,6.511l1.779.437.036,1.224c.054,1.826-1.287,4.721-3.277,5.769-1.475.769-3.905,2.236-11.232,4.224-.682.185-1.369.366-2.057.537" style="fill:none; stroke:#687581; stroke-miterlimit:10; stroke-width:1.5px;"/><path d="M299.282,238.559l-61.786,2.817" style="fill:none; stroke:#687581; stroke-miterlimit:10; stroke-width:1.5px;"/><path d="M300.101,243.182c-2.114-.897-3.878-2.444-5.054-4.378" style="fill:none; stroke:#687581; stroke-miterlimit:10; stroke-width:1.5px;"/><path d="M236.435,244.019c1.433-.805,2.805-1.646,3.801-2.877" style="fill:none; stroke:#687581; stroke-miterlimit:10; stroke-width:1.5px;"/><line x1="210.192" y1="220.613" x2="214.073" y2="224.341" style="fill:none; stroke:#687581; stroke-miterlimit:10; stroke-width:.5px;"/><line x1="208.752" y1="228.555" x2="211.286" y2="228.479" style="fill:none; stroke:#687581; stroke-miterlimit:10; stroke-width:.5px;"/><line x1="428.447" y1="61.229" x2=".229" y2="61.229" style="fill:none; stroke:#687581; stroke-miterlimit:10; stroke-width:1.5px;"/><line x1="428.895" y1="159.629" x2=".677" y2="159.629" style="fill:none; stroke:#687581; stroke-miterlimit:10; stroke-width:1.5px;"/><line x1="428.447" y1="251.996" x2=".229" y2="251.996" style="fill:none; stroke:#687581; stroke-miterlimit:10; stroke-width:1.5px;"/><polygon points="202.143 28.551 120.615 61.228 1.88 61.228 1.88 28.551 202.143 28.551" style="fill:url(#uuid-41fc70aa-ad5c-40b8-bc9d-8b2a4a292274);"/><polygon points="1.88 28.551 2.88 28.544 2.88 28.558 1.88 28.551" style="fill:#aebbc7;"/><polygon points="4.883 28.531 6.885 28.517 6.885 28.585 4.883 28.572 4.883 28.531" style="fill:#aebbc7;"/><polygon points="8.888 28.504 10.89 28.49 10.89 28.612 8.888 28.599 8.888 28.504" style="fill:#aebbc7;"/><polygon points="12.893 28.477 14.896 28.463 14.896 28.639 12.893 28.625 12.893 28.477" style="fill:#aebbc7;"/><polygon points="16.898 28.45 18.901 28.436 18.901 28.666 16.898 28.653 16.898 28.45" style="fill:#aebbc7;"/><polygon points="20.904 28.423 22.906 28.409 22.906 28.693 20.904 28.68 20.904 28.423" style="fill:#aebbc7;"/><polygon points="24.909 28.396 26.912 28.382 26.912 28.72 24.909 28.707 24.909 28.396" style="fill:#aebbc7;"/><polygon points="28.914 28.369 30.917 28.355 30.917 28.747 28.914 28.734 28.914 28.369" style="fill:#aebbc7;"/><polygon points="32.92 28.342 34.922 28.328 34.922 28.774 32.92 28.761 32.92 28.342" style="fill:#aebbc7;"/><polygon points="36.925 28.315 38.928 28.301 38.928 28.801 36.925 28.788 36.925 28.315" style="fill:#aebbc7;"/><polygon points="40.93 28.297 42.933 28.292 42.933 28.811 40.93 28.806 40.93 28.297" style="fill:#aebbc7;"/><polygon points="44.936 28.287 46.938 28.282 46.938 28.82 44.936 28.815 44.936 28.287" style="fill:#aebbc7;"/><polygon points="48.941 28.278 50.944 28.273 50.944 28.829 48.941 28.824 48.941 28.278" style="fill:#aebbc7;"/><polygon points="52.946 28.269 54.949 28.264 54.949 28.839 52.946 28.834 52.946 28.269" style="fill:#aebbc7;"/><polygon points="56.952 28.259 58.954 28.255 58.954 28.848 56.952 28.843 56.952 28.259" style="fill:#aebbc7;"/><polygon points="60.957 28.25 62.96 28.245 62.96 28.857 60.957 28.853 60.957 28.25" style="fill:#aebbc7;"/><polygon points="64.962 28.241 66.965 28.236 66.965 28.866 64.962 28.862 64.962 28.241" style="fill:#aebbc7;"/><polygon points="68.968 28.231 70.97 28.227 70.97 28.876 68.968 28.871 68.968 28.231" style="fill:#aebbc7;"/><polygon points="72.973 28.222 74.976 28.217 74.976 28.885 72.973 28.88 72.973 28.222" style="fill:#aebbc7;"/><polygon points="76.978 28.213 78.981 28.208 78.981 28.895 76.978 28.89 76.978 28.213" style="fill:#aebbc7;"/><polygon points="80.984 28.203 82.986 28.199 82.986 28.904 80.984 28.899 80.984 28.203" style="fill:#aebbc7;"/><polygon points="84.989 28.194 86.991 28.189 86.991 28.913 84.989 28.908 84.989 28.194" style="fill:#aebbc7;"/><polygon points="88.994 28.185 90.997 28.18 90.997 28.922 88.994 28.918 88.994 28.185" style="fill:#aebbc7;"/><polygon points="92.999 28.175 95.002 28.171 95.002 28.932 92.999 28.927 92.999 28.175" style="fill:#aebbc7;"/><polygon points="97.005 28.166 99.007 28.161 99.007 28.941 97.005 28.936 97.005 28.166" style="fill:#aebbc7;"/><polygon points="101.01 28.157 103.013 28.152 103.013 28.95 101.01 28.946 101.01 28.157" style="fill:#aebbc7;"/><polygon points="105.015 28.147 107.018 28.143 107.018 28.96 105.015 28.955 105.015 28.147" style="fill:#aebbc7;"/><polygon points="109.021 28.138 111.023 28.134 111.023 28.969 109.021 28.964 109.021 28.138" style="fill:#aebbc7;"/><polygon points="113.026 28.129 115.029 28.124 115.029 28.978 113.026 28.974 113.026 28.129" style="fill:#aebbc7;"/><polygon points="117.031 28.12 119.034 28.115 119.034 28.988 117.031 28.983 117.031 28.12" style="fill:#aebbc7;"/><polygon points="121.037 28.11 123.039 28.105 123.039 28.997 121.037 28.992 121.037 28.11" style="fill:#aebbc7;"/><polygon points="125.042 28.101 127.045 28.096 127.045 29.006 125.042 29.001 125.042 28.101" style="fill:#aebbc7;"/><polygon points="129.047 28.092 131.05 28.087 131.05 29.016 129.047 29.011 129.047 28.092" style="fill:#aebbc7;"/><polygon points="133.053 28.082 135.055 28.078 135.055 29.025 133.053 29.02 133.053 28.082" style="fill:#aebbc7;"/><polygon points="137.058 28.073 139.061 28.068 139.061 29.034 137.058 29.03 137.058 28.073" style="fill:#aebbc7;"/><polygon points="141.063 28.064 143.066 28.059 143.066 29.043 141.063 29.039 141.063 28.064" style="fill:#aebbc7;"/><rect x="145.069" y="28.053" width="2.003" height=".995" style="fill:#aebbc7;"/><polygon points="149.074 28.058 151.076 28.062 151.076 29.04 149.074 29.045 149.074 28.058" style="fill:#aebbc7;"/><polygon points="153.079 28.067 155.082 28.072 155.082 29.031 153.079 29.036 153.079 28.067" style="fill:#aebbc7;"/><polygon points="157.085 28.076 159.087 28.081 159.087 29.021 157.085 29.026 157.085 28.076" style="fill:#aebbc7;"/><polygon points="161.09 28.086 163.092 28.09 163.092 29.012 161.09 29.017 161.09 28.086" style="fill:#aebbc7;"/><polygon points="165.095 28.095 167.098 28.1 167.098 29.003 165.095 29.007 165.095 28.095" style="fill:#aebbc7;"/><polygon points="169.1 28.104 171.103 28.109 171.103 28.993 169.1 28.998 169.1 28.104" style="fill:#aebbc7;"/><polygon points="173.106 28.114 175.108 28.118 175.108 28.984 173.106 28.989 173.106 28.114" style="fill:#aebbc7;"/><polygon points="177.111 28.123 179.114 28.128 179.114 28.975 177.111 28.979 177.111 28.123" style="fill:#aebbc7;"/><polygon points="181.116 28.133 183.119 28.137 183.119 28.965 181.116 28.97 181.116 28.133" style="fill:#aebbc7;"/><polygon points="185.122 28.142 187.124 28.146 187.124 28.956 185.122 28.96 185.122 28.142" style="fill:#aebbc7;"/><polygon points="189.127 28.151 191.13 28.156 191.13 28.947 189.127 28.951 189.127 28.151" style="fill:#aebbc7;"/><polygon points="193.132 28.161 195.135 28.165 195.135 28.937 193.132 28.942 193.132 28.161" style="fill:#aebbc7;"/><polygon points="197.138 28.17 199.14 28.175 199.14 28.928 197.138 28.932 197.138 28.17" style="fill:#aebbc7;"/><polygon points="201.143 28.179 202.143 28.182 204.059 28.186 202.28 28.894 201.351 29.264 201.078 28.583 202.005 28.208 202.143 28.921 201.143 28.923 201.143 28.179" style="fill:#aebbc7;"/><polygon points="199.497 30.002 197.642 30.74 197.376 30.076 199.227 29.329 199.497 30.002" style="fill:#aebbc7;"/><polygon points="195.788 31.479 193.933 32.217 193.674 31.57 195.525 30.823 195.788 31.479" style="fill:#aebbc7;"/><polygon points="192.079 32.955 190.224 33.694 189.972 33.064 191.823 32.317 192.079 32.955" style="fill:#aebbc7;"/><polygon points="188.369 34.432 186.515 35.17 186.269 34.558 188.121 33.811 188.369 34.432" style="fill:#aebbc7;"/><polygon points="184.66 35.908 182.806 36.647 182.567 36.052 184.418 35.305 184.66 35.908" style="fill:#aebbc7;"/><polygon points="180.951 37.385 179.097 38.123 178.865 37.546 180.716 36.799 180.951 37.385" style="fill:#aebbc7;"/><polygon points="177.242 38.862 175.387 39.6 175.163 39.04 177.014 38.293 177.242 38.862" style="fill:#aebbc7;"/><polygon points="173.533 40.338 171.678 41.076 171.461 40.534 173.312 39.787 173.533 40.338" style="fill:#aebbc7;"/><polygon points="169.824 41.815 167.969 42.553 167.759 42.028 169.61 41.281 169.824 41.815" style="fill:#aebbc7;"/><polygon points="166.115 43.291 164.26 44.03 164.056 43.521 165.908 42.774 166.115 43.291" style="fill:#aebbc7;"/><polygon points="162.406 44.768 160.551 45.506 160.354 45.015 162.205 44.268 162.406 44.768" style="fill:#aebbc7;"/><polygon points="158.696 46.244 156.842 46.983 156.652 46.509 158.503 45.762 158.696 46.244" style="fill:#aebbc7;"/><polygon points="154.987 47.721 153.13 48.451 152.953 48.011 154.801 47.256 154.987 47.721" style="fill:#aebbc7;"/><polygon points="151.272 49.181 149.414 49.912 149.257 49.521 151.105 48.766 151.272 49.181" style="fill:#aebbc7;"/><polygon points="147.556 50.642 145.698 51.372 145.562 51.032 147.41 50.276 147.556 50.642" style="fill:#aebbc7;"/><polygon points="143.84 52.102 141.982 52.832 141.866 52.542 143.714 51.787 143.84 52.102" style="fill:#aebbc7;"/><polygon points="140.125 53.562 138.267 54.292 138.171 54.052 140.019 53.297 140.125 53.562" style="fill:#aebbc7;"/><polygon points="136.409 55.022 134.551 55.752 134.475 55.563 136.323 54.808 136.409 55.022" style="fill:#aebbc7;"/><polygon points="132.693 56.482 130.835 57.212 130.78 57.073 132.628 56.318 132.693 56.482" style="fill:#aebbc7;"/><polygon points="128.977 57.942 127.12 58.672 127.084 58.584 128.932 57.828 128.977 57.942" style="fill:#aebbc7;"/><polygon points="125.262 59.402 123.404 60.132 123.389 60.094 125.236 59.339 125.262 59.402" style="fill:#aebbc7;"/><polygon points="121.546 60.862 120.615 61.228 121.541 60.849 121.546 60.862" style="fill:#aebbc7;"/><polygon points="202.143 125.259 116.459 159.601 1.88 159.601 1.88 125.259 202.143 125.259" style="fill:url(#uuid-645775b2-878f-4df2-86b6-6c3ac0d495d6);"/><polygon points="202.589 220.335 116.905 252.462 2.326 252.462 2.326 219.056 202.589 220.335" style="fill:url(#uuid-808aa53e-299b-4077-840f-c4522d91ae73);"/><polygon points="2.416 116.534 3.415 116.569 3.415 116.583 2.416 116.534" style="fill:#aebbc7;"/><polygon points="5.417 116.64 7.418 116.712 7.415 116.779 5.415 116.681 5.417 116.64" style="fill:#aebbc7;"/><polygon points="9.419 116.783 11.421 116.854 11.416 116.976 9.416 116.878 9.419 116.783" style="fill:#aebbc7;"/><polygon points="13.422 116.926 15.424 116.997 15.416 117.172 13.416 117.074 13.422 116.926" style="fill:#aebbc7;"/><polygon points="17.425 117.068 19.427 117.139 19.417 117.369 17.417 117.271 17.425 117.068" style="fill:#aebbc7;"/><polygon points="21.428 117.211 23.43 117.282 23.418 117.566 21.417 117.467 21.428 117.211" style="fill:#aebbc7;"/><polygon points="25.431 117.353 27.432 117.424 27.418 117.762 25.418 117.664 25.431 117.353" style="fill:#aebbc7;"/><polygon points="29.434 117.496 31.435 117.567 31.419 117.959 29.418 117.86 29.434 117.496" style="fill:#aebbc7;"/><polygon points="33.437 117.638 35.438 117.709 35.419 118.155 33.419 118.057 33.437 117.638" style="fill:#aebbc7;"/><polygon points="37.44 117.781 39.441 117.852 39.42 118.352 37.42 118.254 37.44 117.781" style="fill:#aebbc7;"/><polygon points="41.442 117.932 43.443 118.012 43.421 118.531 41.421 118.441 41.442 117.932" style="fill:#aebbc7;"/><polygon points="45.444 118.092 47.445 118.173 47.423 118.709 45.422 118.62 45.444 118.092" style="fill:#aebbc7;"/><polygon points="49.446 118.253 51.447 118.333 51.424 118.888 49.423 118.799 49.446 118.253" style="fill:#aebbc7;"/><polygon points="53.448 118.413 55.45 118.493 55.425 119.067 53.424 118.978 53.448 118.413" style="fill:#aebbc7;"/><polygon points="57.451 118.573 59.452 118.653 59.426 119.246 57.426 119.157 57.451 118.573" style="fill:#aebbc7;"/><polygon points="61.453 118.733 63.454 118.813 63.428 119.425 61.427 119.335 61.453 118.733" style="fill:#aebbc7;"/><polygon points="65.455 118.894 67.456 118.974 67.429 119.604 65.429 119.514 65.455 118.894" style="fill:#aebbc7;"/><polygon points="69.457 119.054 71.458 119.134 71.43 119.783 69.43 119.693 69.457 119.054" style="fill:#aebbc7;"/><polygon points="73.459 119.214 75.46 119.294 75.432 119.961 73.431 119.872 73.459 119.214" style="fill:#aebbc7;"/><polygon points="77.461 119.374 79.462 119.454 79.433 120.14 77.432 120.051 77.461 119.374" style="fill:#aebbc7;"/><polygon points="81.463 119.535 83.464 119.615 83.434 120.319 81.434 120.23 81.463 119.535" style="fill:#aebbc7;"/><polygon points="85.465 119.695 87.466 119.775 87.436 120.498 85.435 120.409 85.465 119.695" style="fill:#aebbc7;"/><polygon points="89.468 119.855 91.469 119.935 91.437 120.677 89.436 120.587 89.468 119.855" style="fill:#aebbc7;"/><polygon points="93.47 120.015 95.471 120.095 95.438 120.856 93.438 120.766 93.47 120.015" style="fill:#aebbc7;"/><polygon points="97.472 120.176 99.473 120.256 99.44 121.035 97.439 120.945 97.472 120.176" style="fill:#aebbc7;"/><polygon points="101.474 120.336 103.475 120.416 103.441 121.213 101.44 121.124 101.474 120.336" style="fill:#aebbc7;"/><polygon points="105.476 120.496 107.477 120.576 107.442 121.392 105.442 121.303 105.476 120.496" style="fill:#aebbc7;"/><polygon points="109.478 120.656 111.479 120.736 111.444 121.571 109.443 121.482 109.478 120.656" style="fill:#aebbc7;"/><polygon points="113.48 120.817 115.481 120.897 115.445 121.75 113.444 121.661 113.48 120.817" style="fill:#aebbc7;"/><polygon points="117.482 120.977 119.483 121.057 119.446 121.929 117.446 121.839 117.482 120.977" style="fill:#aebbc7;"/><polygon points="121.484 121.137 123.486 121.217 123.448 122.108 121.447 122.018 121.484 121.137" style="fill:#aebbc7;"/><polygon points="125.487 121.297 127.488 121.377 127.449 122.286 125.448 122.197 125.487 121.297" style="fill:#aebbc7;"/><polygon points="129.489 121.458 131.49 121.538 131.45 122.465 129.45 122.376 129.489 121.458" style="fill:#aebbc7;"/><polygon points="133.491 121.618 135.492 121.698 135.452 122.644 133.451 122.555 133.491 121.618" style="fill:#aebbc7;"/><polygon points="137.493 121.778 139.494 121.858 139.453 122.823 137.452 122.734 137.493 121.778" style="fill:#aebbc7;"/><polygon points="141.495 121.938 143.496 122.018 143.454 123.002 141.454 122.913 141.495 121.938" style="fill:#aebbc7;"/><rect x="145.979" y="121.636" width=".995" height="2.003" transform="translate(17.848 263.881) rotate(-87.614)" style="fill:#aebbc7;"/><polygon points="149.499 122.271 151.499 122.361 151.458 123.338 149.457 123.258 149.499 122.271" style="fill:#aebbc7;"/><polygon points="153.5 122.45 155.501 122.54 155.46 123.498 153.459 123.418 153.5 122.45" style="fill:#aebbc7;"/><polygon points="157.501 122.629 159.502 122.718 159.462 123.658 157.461 123.578 157.501 122.629" style="fill:#aebbc7;"/><polygon points="161.503 122.808 163.503 122.897 163.464 123.818 161.463 123.738 161.503 122.808" style="fill:#aebbc7;"/><polygon points="165.504 122.987 167.505 123.076 167.466 123.979 165.465 123.898 165.504 122.987" style="fill:#aebbc7;"/><polygon points="169.505 123.166 171.506 123.255 171.469 124.139 169.468 124.059 169.505 123.166" style="fill:#aebbc7;"/><polygon points="173.507 123.345 175.507 123.434 175.471 124.299 173.47 124.219 173.507 123.345" style="fill:#aebbc7;"/><polygon points="177.508 123.524 179.509 123.613 179.473 124.459 177.472 124.379 177.508 123.524" style="fill:#aebbc7;"/><polygon points="181.509 123.703 183.51 123.792 183.475 124.619 181.474 124.539 181.509 123.703" style="fill:#aebbc7;"/><polygon points="185.511 123.881 187.511 123.971 187.477 124.779 185.476 124.699 185.511 123.881" style="fill:#aebbc7;"/><polygon points="189.512 124.06 191.513 124.15 191.479 124.94 189.478 124.859 189.512 124.06" style="fill:#aebbc7;"/><polygon points="193.513 124.239 195.514 124.329 195.481 125.1 193.48 125.02 193.513 124.239" style="fill:#aebbc7;"/><polygon points="197.515 124.418 199.515 124.508 199.483 125.26 197.482 125.18 197.515 124.418" style="fill:#aebbc7;"/><polygon points="201.516 124.597 202.515 124.642 204.429 124.727 202.622 125.359 201.678 125.69 201.434 124.997 202.376 124.662 202.484 125.38 201.485 125.34 201.516 124.597" style="fill:#aebbc7;"/><polygon points="199.794 126.349 197.91 127.008 197.672 126.333 199.553 125.665 199.794 126.349" style="fill:#aebbc7;"/><polygon points="196.026 127.667 194.142 128.326 193.91 127.669 195.791 127.001 196.026 127.667" style="fill:#aebbc7;"/><polygon points="192.257 128.985 190.373 129.644 190.148 129.005 192.029 128.337 192.257 128.985" style="fill:#aebbc7;"/><polygon points="188.489 130.303 186.605 130.962 186.386 130.34 188.267 129.672 188.489 130.303" style="fill:#aebbc7;"/><polygon points="184.721 131.622 182.837 132.281 182.624 131.676 184.505 131.008 184.721 131.622" style="fill:#aebbc7;"/><polygon points="180.953 132.94 179.068 133.599 178.862 133.012 180.743 132.344 180.953 132.94" style="fill:#aebbc7;"/><polygon points="177.184 134.258 175.3 134.917 175.1 134.348 176.981 133.68 177.184 134.258" style="fill:#aebbc7;"/><polygon points="173.416 135.576 171.532 136.235 171.337 135.684 173.219 135.016 173.416 135.576" style="fill:#aebbc7;"/><polygon points="169.648 136.894 167.764 137.553 167.575 137.02 169.456 136.352 169.648 136.894" style="fill:#aebbc7;"/><polygon points="165.879 138.213 163.995 138.872 163.813 138.355 165.694 137.688 165.879 138.213" style="fill:#aebbc7;"/><polygon points="162.111 139.531 160.227 140.19 160.051 139.691 161.932 139.023 162.111 139.531" style="fill:#aebbc7;"/><polygon points="158.343 140.849 156.459 141.508 156.289 141.027 158.17 140.359 158.343 140.849" style="fill:#aebbc7;"/><polygon points="154.575 142.167 152.688 142.819 152.53 142.371 154.408 141.695 154.575 142.167" style="fill:#aebbc7;"/><polygon points="150.801 143.469 148.913 144.12 148.774 143.723 150.652 143.047 150.801 143.469" style="fill:#aebbc7;"/><polygon points="147.026 144.771 145.139 145.421 145.017 145.076 146.896 144.4 147.026 144.771" style="fill:#aebbc7;"/><polygon points="143.252 146.072 141.365 146.723 141.261 146.429 143.139 145.752 143.252 146.072" style="fill:#aebbc7;"/><polygon points="139.478 147.374 137.591 148.024 137.505 147.781 139.383 147.105 139.478 147.374" style="fill:#aebbc7;"/><polygon points="135.704 148.675 133.817 149.326 133.749 149.134 135.627 148.458 135.704 148.675" style="fill:#aebbc7;"/><polygon points="131.929 149.977 130.042 150.627 129.993 150.487 131.871 149.81 131.929 149.977" style="fill:#aebbc7;"/><polygon points="128.155 151.278 126.268 151.929 126.237 151.839 128.115 151.163 128.155 151.278" style="fill:#aebbc7;"/><polygon points="124.381 152.579 122.494 153.23 122.48 153.192 124.359 152.515 124.381 152.579" style="fill:#aebbc7;"/><polygon points="120.607 153.881 119.661 154.207 120.602 153.868 120.607 153.881" style="fill:#aebbc7;"/><polygon points=".524 226.757 1.523 226.722 1.524 226.735 .524 226.757" style="fill:#aebbc7;"/><polygon points="3.525 226.651 5.526 226.58 5.528 226.647 3.526 226.691 3.525 226.651" style="fill:#aebbc7;"/><polygon points="7.528 226.509 9.529 226.438 9.532 226.559 7.53 226.603 7.528 226.509" style="fill:#aebbc7;"/><polygon points="11.53 226.366 13.532 226.295 13.537 226.471 11.535 226.515 11.53 226.366" style="fill:#aebbc7;"/><polygon points="15.533 226.224 17.535 226.153 17.541 226.383 15.539 226.427 15.533 226.224" style="fill:#aebbc7;"/><polygon points="19.536 226.082 21.538 226.011 21.546 226.295 19.544 226.339 19.536 226.082" style="fill:#aebbc7;"/><polygon points="23.539 225.94 25.541 225.869 25.55 226.207 23.548 226.251 23.539 225.94" style="fill:#aebbc7;"/><polygon points="27.542 225.798 29.543 225.727 29.555 226.119 27.552 226.163 27.542 225.798" style="fill:#aebbc7;"/><polygon points="31.545 225.656 33.546 225.585 33.559 226.031 31.557 226.075 31.545 225.656" style="fill:#aebbc7;"/><polygon points="35.548 225.514 37.549 225.443 37.564 225.943 35.561 225.987 35.548 225.514" style="fill:#aebbc7;"/><polygon points="39.551 225.38 41.553 225.318 41.567 225.837 39.565 225.89 39.551 225.38" style="fill:#aebbc7;"/><polygon points="43.554 225.256 45.556 225.194 45.571 225.731 43.569 225.784 43.554 225.256" style="fill:#aebbc7;"/><polygon points="47.558 225.132 49.559 225.069 49.575 225.625 47.573 225.678 47.558 225.132" style="fill:#aebbc7;"/><polygon points="51.561 225.007 53.563 224.945 53.579 225.519 51.577 225.572 51.561 225.007" style="fill:#aebbc7;"/><polygon points="55.564 224.883 57.566 224.821 57.583 225.414 55.581 225.467 55.564 224.883" style="fill:#aebbc7;"/><polygon points="59.568 224.758 61.569 224.696 61.587 225.308 59.585 225.361 59.568 224.758" style="fill:#aebbc7;"/><polygon points="63.571 224.634 65.573 224.572 65.591 225.202 63.589 225.255 63.571 224.634" style="fill:#aebbc7;"/><polygon points="67.575 224.51 69.576 224.447 69.595 225.096 67.593 225.149 67.575 224.51" style="fill:#aebbc7;"/><polygon points="71.578 224.385 73.58 224.323 73.599 224.99 71.597 225.043 71.578 224.385" style="fill:#aebbc7;"/><polygon points="75.581 224.261 77.583 224.199 77.603 224.885 75.601 224.938 75.581 224.261" style="fill:#aebbc7;"/><polygon points="79.585 224.136 81.586 224.074 81.607 224.779 79.605 224.832 79.585 224.136" style="fill:#aebbc7;"/><polygon points="83.588 224.012 85.59 223.95 85.611 224.673 83.609 224.726 83.588 224.012" style="fill:#aebbc7;"/><polygon points="87.592 223.888 89.593 223.825 89.615 224.567 87.613 224.62 87.592 223.888" style="fill:#aebbc7;"/><polygon points="91.595 223.763 93.597 223.701 93.619 224.462 91.616 224.514 91.595 223.763" style="fill:#aebbc7;"/><polygon points="95.598 223.639 97.6 223.577 97.622 224.356 95.62 224.409 95.598 223.639" style="fill:#aebbc7;"/><polygon points="99.602 223.514 101.603 223.452 101.626 224.25 99.624 224.303 99.602 223.514" style="fill:#aebbc7;"/><polygon points="103.605 223.39 105.607 223.328 105.63 224.144 103.628 224.197 103.605 223.39" style="fill:#aebbc7;"/><polygon points="107.609 223.265 109.61 223.203 109.634 224.038 107.632 224.091 107.609 223.265" style="fill:#aebbc7;"/><polygon points="111.612 223.141 113.614 223.079 113.638 223.933 111.636 223.985 111.612 223.141" style="fill:#aebbc7;"/><polygon points="115.615 223.017 117.617 222.954 117.642 223.827 115.64 223.88 115.615 223.017" style="fill:#aebbc7;"/><polygon points="119.619 222.892 121.62 222.83 121.646 223.721 119.644 223.774 119.619 222.892" style="fill:#aebbc7;"/><polygon points="123.622 222.768 125.624 222.706 125.65 223.615 123.648 223.668 123.622 222.768" style="fill:#aebbc7;"/><polygon points="127.625 222.643 129.627 222.581 129.654 223.509 127.652 223.562 127.625 222.643" style="fill:#aebbc7;"/><polygon points="131.629 222.519 133.631 222.457 133.658 223.404 131.656 223.457 131.629 222.519" style="fill:#aebbc7;"/><polygon points="135.632 222.395 137.634 222.332 137.662 223.298 135.66 223.351 135.632 222.395" style="fill:#aebbc7;"/><polygon points="139.636 222.27 141.637 222.208 141.666 223.192 139.664 223.245 139.636 222.27" style="fill:#aebbc7;"/><rect x="143.653" y="222.116" width="2.003" height=".995" transform="translate(-6.505 4.364) rotate(-1.691)" style="fill:#aebbc7;"/><polygon points="147.643 222.034 149.645 221.981 149.673 222.959 147.671 223.021 147.643 222.034" style="fill:#aebbc7;"/><polygon points="151.647 221.928 153.649 221.875 153.676 222.834 151.674 222.896 151.647 221.928" style="fill:#aebbc7;"/><polygon points="155.651 221.822 157.653 221.77 157.68 222.71 155.678 222.772 155.651 221.822" style="fill:#aebbc7;"/><polygon points="159.655 221.717 161.657 221.664 161.683 222.585 159.681 222.647 159.655 221.717" style="fill:#aebbc7;"/><polygon points="163.658 221.611 165.66 221.558 165.686 222.461 163.685 222.523 163.658 221.611" style="fill:#aebbc7;"/><polygon points="167.662 221.505 169.664 221.452 169.69 222.336 167.688 222.398 167.662 221.505" style="fill:#aebbc7;"/><polygon points="171.666 221.399 173.668 221.347 173.693 222.212 171.691 222.274 171.666 221.399" style="fill:#aebbc7;"/><polygon points="175.67 221.294 177.672 221.241 177.697 222.087 175.695 222.15 175.67 221.294" style="fill:#aebbc7;"/><polygon points="179.674 221.188 181.676 221.135 181.7 221.963 179.698 222.025 179.674 221.188" style="fill:#aebbc7;"/><polygon points="183.678 221.082 185.68 221.029 185.703 221.838 183.702 221.901 183.678 221.082" style="fill:#aebbc7;"/><polygon points="187.682 220.977 189.684 220.924 189.707 221.714 187.705 221.776 187.682 220.977" style="fill:#aebbc7;"/><polygon points="191.686 220.871 193.688 220.818 193.71 221.589 191.708 221.652 191.686 220.871" style="fill:#aebbc7;"/><polygon points="195.69 220.765 197.692 220.712 197.714 221.465 195.712 221.527 195.69 220.765" style="fill:#aebbc7;"/><polygon points="199.694 220.659 200.693 220.633 202.611 220.582 200.851 221.341 199.933 221.737 199.641 221.064 200.557 220.663 200.715 221.372 199.715 221.403 199.694 220.659" style="fill:#aebbc7;"/><polygon points="198.087 222.533 196.241 223.33 195.958 222.677 197.799 221.871 198.087 222.533" style="fill:#aebbc7;"/><polygon points="194.396 224.126 192.55 224.922 192.275 224.289 194.116 223.483 194.396 224.126" style="fill:#aebbc7;"/><polygon points="190.704 225.718 188.858 226.515 188.592 225.901 190.433 225.095 190.704 225.718" style="fill:#aebbc7;"/><polygon points="187.012 227.311 185.167 228.107 184.909 227.514 186.75 226.707 187.012 227.311" style="fill:#aebbc7;"/><polygon points="183.321 228.903 181.475 229.699 181.226 229.126 183.067 228.32 183.321 228.903" style="fill:#aebbc7;"/><polygon points="179.629 230.496 177.783 231.292 177.543 230.738 179.384 229.932 179.629 230.496" style="fill:#aebbc7;"/><polygon points="175.938 232.088 174.092 232.884 173.86 232.35 175.701 231.544 175.938 232.088" style="fill:#aebbc7;"/><polygon points="172.246 233.68 170.4 234.477 170.177 233.963 172.018 233.156 172.246 233.68" style="fill:#aebbc7;"/><polygon points="168.554 235.273 166.709 236.069 166.494 235.575 168.335 234.769 168.554 235.273" style="fill:#aebbc7;"/><polygon points="164.863 236.865 163.017 237.661 162.811 237.187 164.652 236.381 164.863 236.865" style="fill:#aebbc7;"/><polygon points="161.171 238.458 159.324 239.25 159.13 238.803 160.969 237.993 161.171 238.458" style="fill:#aebbc7;"/><polygon points="157.474 240.037 155.624 240.823 155.455 240.435 157.292 239.619 157.474 240.037" style="fill:#aebbc7;"/><polygon points="153.774 241.61 151.924 242.397 151.78 242.066 153.617 241.25 153.774 241.61" style="fill:#aebbc7;"/><polygon points="150.074 243.184 148.224 243.97 148.105 243.697 149.943 242.881 150.074 243.184" style="fill:#aebbc7;"/><polygon points="146.374 244.757 144.524 245.544 144.43 245.328 146.268 244.512 146.374 244.757" style="fill:#aebbc7;"/><polygon points="142.674 246.331 140.825 247.118 140.756 246.959 142.593 246.144 142.674 246.331" style="fill:#aebbc7;"/><polygon points="138.975 247.904 137.125 248.691 137.081 248.59 138.918 247.775 138.975 247.904" style="fill:#aebbc7;"/><polygon points="135.275 249.478 133.425 250.265 133.406 250.221 135.243 249.406 135.275 249.478" style="fill:#aebbc7;"/><polygon points="131.575 251.051 130.655 251.443 131.569 251.037 131.575 251.051" style="fill:#aebbc7;"/><path d="M423.81,51.339c3.027-.107,3.027-3.319,3.027-4.958,0-1.497.15-27.167.15-27.167,0-1.625-.046-1.625-.751-1.625-.562,0-.541.402-.541.402h-.565s.012-.402-.497-.402h-7.94c-.539,0-.505.402-.505.402h-.565s-.014-.402-.541-.402c-.705,0-.751,0-.751,1.625,0,0,.15,25.669.15,27.167,0,1.639,0,4.851,3.027,4.958,1.234.044,5.07.044,6.303,0Z" style="fill:none; stroke:#687581; stroke-miterlimit:10; stroke-width:.5px;"/><path d="M425.694,17.99c-.023,3.987-.251,25.331-.251,26.585,0,4.154-.831,4.144-4.785,4.144s-4.786.008-4.786-4.144c0-1.014-.219-21.185-.251-26.585" style="fill:none; stroke:#687581; stroke-miterlimit:10; stroke-width:.5px;"/><path d="M416.187,17.99c.032,5.407.252,25.569.252,26.585,0,3.471.3,3.437,4.223,3.437,3.885,0,4.223.039,4.223-3.437,0-1.256.219-22.587.244-26.585" style="fill:none; stroke:#687581; stroke-miterlimit:10; stroke-width:.5px;"/><path d="M423.68,21.728c0,.288-.231.523-.519.529-.498.01-1.344.023-2.503.023s-2.005-.012-2.503-.023c-.288-.006-.519-.241-.519-.529v-.59c0-.234.19-.425.425-.425h5.194c.234,0,.425.19.425.425v.59Z" style="fill:none; stroke:#687581; stroke-miterlimit:10; stroke-width:.5px;"/><path d="M423.68,26.394c0,.288-.231.523-.519.529-.498.01-1.344.023-2.503.023s-2.005-.012-2.503-.023c-.288-.006-.519-.241-.519-.529v-.59c0-.234.19-.425.425-.425h5.194c.234,0,.425.19.425.425v.59Z" style="fill:none; stroke:#687581; stroke-miterlimit:10; stroke-width:.5px;"/><path d="M423.68,31.059c0,.288-.231.523-.519.529-.498.01-1.344.023-2.503.023s-2.005-.012-2.503-.023c-.288-.006-.519-.241-.519-.529v-.59c0-.234.19-.425.425-.425h5.194c.234,0,.425.19.425.425v.59Z" style="fill:none; stroke:#687581; stroke-miterlimit:10; stroke-width:.5px;"/><path d="M423.68,35.725c0,.288-.231.523-.519.529-.498.01-1.344.023-2.503.023s-2.005-.012-2.503-.023c-.288-.006-.519-.241-.519-.529v-.59c0-.234.19-.425.425-.425h5.194c.234,0,.425.19.425.425v.59Z" style="fill:none; stroke:#687581; stroke-miterlimit:10; stroke-width:.5px;"/><path d="M423.68,40.39c0,.288-.231.523-.519.529-.498.01-1.344.023-2.503.023s-2.005-.012-2.503-.023c-.288-.006-.519-.241-.519-.529v-.59c0-.234.19-.425.425-.425h5.194c.234,0,.425.19.425.425v.59Z" style="fill:none; stroke:#687581; stroke-miterlimit:10; stroke-width:.5px;"/><path d="M423.68,45.056c0,.288-.231.523-.519.529-.498.01-1.344.023-2.503.023s-2.005-.012-2.503-.023c-.288-.006-.519-.241-.519-.529v-.59c0-.234.19-.425.425-.425h5.194c.234,0,.425.19.425.425v.59Z" style="fill:none; stroke:#687581; stroke-miterlimit:10; stroke-width:.5px;"/><path d="M387.943,41.621c3.012,0,6.024-.04,7.778-.121,2.554-.117,3.699-1.321,3.963-3.376.264-2.055,1.152-9.453,1.152-15.252,0-1.592-.054-1.896-.876-1.896-.604,0-.631.469-.631.469h-.58s.003-.469-.477-.469h-10.33s-10.33,0-10.33,0c-.48,0-.477.469-.477.469h-.58s-.027-.469-.631-.469c-.823,0-.876.304-.876,1.896,0,5.799.888,13.197,1.152,15.252s1.409,3.259,3.963,3.376c1.755.081,4.767.121,7.778.121" style="fill:none; stroke:#687581; stroke-miterlimit:10; stroke-width:.5px;"/><path d="M399.329,21.445c.052,6.651-.935,15.561-.945,15.637-.191,1.462-1.044,2.207-2.607,2.277-1.651.075-4.581.119-7.834.119-3.254,0-6.184-.045-7.834-.119-1.563-.071-2.416-.816-2.607-2.277-.01-.077-.997-8.986-.945-15.637" style="fill:none; stroke:#687581; stroke-miterlimit:10; stroke-width:.5px;"/><path d="M398.75,21.445c.048,6.252-.816,14.136-.917,14.928-.14,1.099-.663,1.942-2.262,2.016-1.606.074-4.459.119-7.628.119-3.169,0-6.022-.044-7.628-.119-1.599-.074-2.122-.917-2.262-2.016-.101-.792-.965-8.676-.917-14.928" style="fill:none; stroke:#687581; stroke-miterlimit:10; stroke-width:.5px;"/><polygon points="417.878 17.588 418.128 7.217 418.378 17.588 417.878 17.588 417.878 17.588" style="fill:#687581;"/><polygon points="423.071 7.217 423.321 17.588 422.821 17.588 423.071 7.217 423.071 7.217" style="fill:#687581;"/><path d="M391.953,20.829l5.034-6.668c1.475-1.961,3.647-4.681,4.749-6.854-1.027,2.194-3.136,5.005-4.547,7.002,0,0-4.832,6.815-4.832,6.815l-.403-.295h0Z" style="fill:#687581;"/><polygon points="397.991 20.976 392.154 21.226 392.154 20.726 397.991 20.976 397.991 20.976" style="fill:#687581;"/><path d="M407.306,7.068c-1.648,4.646-6.174,10.119-9.118,14.062,0,0-.395-.306-.395-.306,3.07-3.87,7.709-9.136,9.513-13.755h0Z" style="fill:#687581;"/><path d="M387.943,41.621c3.012,0,6.024-.04,7.778-.121,2.554-.117,3.699-1.321,3.963-3.376.264-2.055,1.152-9.453,1.152-15.252,0-1.592-.054-1.896-.876-1.896-.604,0-.631.469-.631.469h-.58s.003-.469-.477-.469h-10.33s-10.33,0-10.33,0c-.48,0-.477.469-.477.469h-.58s-.027-.469-.631-.469c-.823,0-.876.304-.876,1.896,0,5.799.888,13.197,1.152,15.252s1.409,3.259,3.963,3.376c1.755.081,4.767.121,7.778.121" style="fill:none; stroke:#687581; stroke-miterlimit:10; stroke-width:.5px;"/><path d="M399.329,21.445c.052,6.651-.935,15.561-.945,15.637-.191,1.462-1.044,2.207-2.607,2.277-1.651.075-4.581.119-7.834.119-3.254,0-6.184-.045-7.834-.119-1.563-.071-2.416-.816-2.607-2.277-.01-.077-.997-8.986-.945-15.637" style="fill:none; stroke:#687581; stroke-miterlimit:10; stroke-width:.5px;"/><path d="M398.75,21.445c.048,6.252-.816,14.136-.917,14.928-.14,1.099-.663,1.942-2.262,2.016-1.606.074-4.459.119-7.628.119-3.169,0-6.022-.044-7.628-.119-1.599-.074-2.122-.917-2.262-2.016-.101-.792-.965-8.676-.917-14.928" style="fill:none; stroke:#687581; stroke-miterlimit:10; stroke-width:.5px;"/><path d="M387.943,25.819c3.738,0,7.476,0,7.485,0,.862-.007,1.04-.332,1.04-.665l.017-.364c0-.272.01-.545-.698-.545h-7.844s-7.844,0-7.844,0c-.708,0-.698.274-.698.545l.017.364c0,.333.178.658,1.04.665.01,0,3.747,0,7.485,0Z" style="fill:none; stroke:#687581; stroke-miterlimit:10; stroke-width:.5px;"/><path d="M387.943,29.298h7.5c.707,0,.708.274.708.545l-.017.364c0,.333-.178.658-1.04.665-.009,0-3.496,0-7.151,0-3.654,0-7.141,0-7.151,0-.862-.007-1.04-.332-1.04-.665l-.017-.364c0-.272,0-.545.708-.545h7.5Z" style="fill:none; stroke:#687581; stroke-miterlimit:10; stroke-width:.5px;"/><path d="M387.943,35.928c3.571,0,6.807,0,6.816,0,.862-.007,1.04-.332,1.04-.665l.017-.364c0-.272.013-.545-.695-.545h-7.178s-7.178,0-7.178,0c-.709,0-.695.274-.695.545l.017.364c0,.333.178.658,1.04.665.009,0,3.245,0,6.816,0Z" style="fill:none; stroke:#687581; stroke-miterlimit:10; stroke-width:.5px;"/><path d="M423.81,141.756c3.027-.107,3.027-3.319,3.027-4.958,0-1.497.15-27.167.15-27.167,0-1.625-.046-1.625-.751-1.625-.562,0-.541.402-.541.402h-.565s.012-.402-.497-.402h-7.94c-.539,0-.505.402-.505.402h-.565s-.014-.402-.541-.402c-.705,0-.751,0-.751,1.625,0,0,.15,25.669.15,27.167,0,1.639,0,4.851,3.027,4.958,1.234.044,5.07.044,6.303,0Z" style="fill:#f4ae3d; stroke:#141b21; stroke-miterlimit:10; stroke-width:1.5px;"/><path d="M425.694,108.407c-.023,3.987-.251,25.331-.251,26.585,0,4.154-.831,4.144-4.785,4.144s-4.786.008-4.786-4.144c0-1.014-.219-21.185-.251-26.585" style="fill:none; stroke:#141b21; stroke-miterlimit:10; stroke-width:.5px;"/><path d="M416.187,108.407c.032,5.407.252,25.569.252,26.585,0,3.471.3,3.437,4.223,3.437,3.885,0,4.223.039,4.223-3.437,0-1.256.219-22.587.244-26.585" style="fill:none; stroke:#141b21; stroke-miterlimit:10; stroke-width:.5px;"/><path d="M423.68,112.145c0,.288-.231.523-.519.529-.498.01-1.344.023-2.503.023s-2.005-.012-2.503-.023c-.288-.006-.519-.241-.519-.529v-.59c0-.234.19-.425.425-.425h5.194c.234,0,.425.19.425.425v.59Z" style="fill:none; stroke:#141b21; stroke-miterlimit:10; stroke-width:.5px;"/><path d="M423.68,116.811c0,.288-.231.523-.519.529-.498.01-1.344.023-2.503.023s-2.005-.012-2.503-.023c-.288-.006-.519-.241-.519-.529v-.59c0-.234.19-.425.425-.425h5.194c.234,0,.425.19.425.425v.59Z" style="fill:none; stroke:#141b21; stroke-miterlimit:10; stroke-width:.5px;"/><path d="M423.68,121.476c0,.288-.231.523-.519.529-.498.01-1.344.023-2.503.023s-2.005-.012-2.503-.023c-.288-.006-.519-.241-.519-.529v-.59c0-.234.19-.425.425-.425h5.194c.234,0,.425.19.425.425v.59Z" style="fill:none; stroke:#141b21; stroke-miterlimit:10; stroke-width:.5px;"/><path d="M423.68,126.142c0,.288-.231.523-.519.529-.498.01-1.344.023-2.503.023s-2.005-.012-2.503-.023c-.288-.006-.519-.241-.519-.529v-.59c0-.234.19-.425.425-.425h5.194c.234,0,.425.19.425.425v.59Z" style="fill:none; stroke:#141b21; stroke-miterlimit:10; stroke-width:.5px;"/><path d="M423.68,130.807c0,.288-.231.523-.519.529-.498.01-1.344.023-2.503.023s-2.005-.012-2.503-.023c-.288-.006-.519-.241-.519-.529v-.59c0-.234.19-.425.425-.425h5.194c.234,0,.425.19.425.425v.59Z" style="fill:none; stroke:#141b21; stroke-miterlimit:10; stroke-width:.5px;"/><path d="M423.68,135.473c0,.288-.231.523-.519.529-.498.01-1.344.023-2.503.023s-2.005-.012-2.503-.023c-.288-.006-.519-.241-.519-.529v-.59c0-.234.19-.425.425-.425h5.194c.234,0,.425.19.425.425v.59Z" style="fill:none; stroke:#141b21; stroke-miterlimit:10; stroke-width:.5px;"/><path d="M387.943,132.038c3.012,0,6.024-.04,7.778-.121,2.554-.117,3.699-1.321,3.963-3.376.264-2.055,1.152-9.453,1.152-15.252,0-1.592-.054-1.896-.876-1.896-.604,0-.631.469-.631.469h-.58s.003-.469-.477-.469h-10.33s-10.33,0-10.33,0c-.48,0-.477.469-.477.469h-.58s-.027-.469-.631-.469c-.823,0-.876.304-.876,1.896,0,5.799.888,13.197,1.152,15.252s1.409,3.259,3.963,3.376c1.755.081,4.767.121,7.778.121" style="fill:none; stroke:#687581; stroke-miterlimit:10; stroke-width:.5px;"/><path d="M399.329,111.862c.052,6.651-.935,15.561-.945,15.637-.191,1.462-1.044,2.207-2.607,2.277-1.651.075-4.581.119-7.834.119-3.254,0-6.184-.045-7.834-.119-1.563-.071-2.416-.816-2.607-2.277-.01-.077-.997-8.986-.945-15.637" style="fill:none; stroke:#687581; stroke-miterlimit:10; stroke-width:.5px;"/><path d="M398.75,111.862c.048,6.252-.816,14.136-.917,14.928-.14,1.099-.663,1.942-2.262,2.016-1.606.074-4.459.119-7.628.119-3.169,0-6.022-.044-7.628-.119-1.599-.074-2.122-.917-2.262-2.016-.101-.792-.965-8.676-.917-14.928" style="fill:none; stroke:#687581; stroke-miterlimit:10; stroke-width:.5px;"/><polygon points="417.878 108.005 418.128 97.634 418.378 108.005 417.878 108.005 417.878 108.005" style="fill:#141b21;"/><polygon points="423.071 97.634 423.321 108.005 422.821 108.005 423.071 97.634 423.071 97.634" style="fill:#141b21;"/><path d="M391.953,111.246l5.034-6.668c1.475-1.961,3.647-4.681,4.749-6.854-1.027,2.194-3.136,5.005-4.547,7.002,0,0-4.832,6.815-4.832,6.815l-.403-.295h0Z" style="fill:#687581;"/><polygon points="397.991 111.394 392.154 111.644 392.154 111.144 397.991 111.394 397.991 111.394" style="fill:#687581;"/><path d="M407.306,97.485c-1.648,4.646-6.174,10.119-9.118,14.062,0,0-.395-.306-.395-.306,3.07-3.871,7.709-9.135,9.513-13.755h0Z" style="fill:#687581;"/><path d="M387.943,132.038c3.012,0,6.024-.04,7.778-.121,2.554-.117,3.699-1.321,3.963-3.376.264-2.055,1.152-9.453,1.152-15.252,0-1.592-.054-1.896-.876-1.896-.604,0-.631.469-.631.469h-.58s.003-.469-.477-.469h-10.33s-10.33,0-10.33,0c-.48,0-.477.469-.477.469h-.58s-.027-.469-.631-.469c-.823,0-.876.304-.876,1.896,0,5.799.888,13.197,1.152,15.252s1.409,3.259,3.963,3.376c1.755.081,4.767.121,7.778.121" style="fill:none; stroke:#687581; stroke-miterlimit:10; stroke-width:.5px;"/><path d="M399.329,111.862c.052,6.651-.935,15.561-.945,15.637-.191,1.462-1.044,2.207-2.607,2.277-1.651.075-4.581.119-7.834.119-3.254,0-6.184-.045-7.834-.119-1.563-.071-2.416-.816-2.607-2.277-.01-.077-.997-8.986-.945-15.637" style="fill:none; stroke:#687581; stroke-miterlimit:10; stroke-width:.5px;"/><path d="M398.75,111.862c.048,6.252-.816,14.136-.917,14.928-.14,1.099-.663,1.942-2.262,2.016-1.606.074-4.459.119-7.628.119-3.169,0-6.022-.044-7.628-.119-1.599-.074-2.122-.917-2.262-2.016-.101-.792-.965-8.676-.917-14.928" style="fill:none; stroke:#687581; stroke-miterlimit:10; stroke-width:.5px;"/><path d="M387.943,116.236c3.738,0,7.476,0,7.485,0,.862-.007,1.04-.332,1.04-.665l.017-.364c0-.272.01-.545-.698-.545h-7.844s-7.844,0-7.844,0c-.708,0-.698.274-.698.545l.017.364c0,.333.178.658,1.04.665.01,0,3.747,0,7.485,0Z" style="fill:none; stroke:#687581; stroke-miterlimit:10; stroke-width:.5px;"/><path d="M387.943,119.715h7.5c.707,0,.708.274.708.545l-.017.364c0,.333-.178.658-1.04.665-.009,0-3.496,0-7.151,0-3.654,0-7.141,0-7.151,0-.862-.007-1.04-.332-1.04-.665l-.017-.364c0-.272,0-.545.708-.545h7.5Z" style="fill:none; stroke:#687581; stroke-miterlimit:10; stroke-width:.5px;"/><path d="M387.943,126.345c3.571,0,6.807,0,6.816,0,.862-.007,1.04-.332,1.04-.665l.017-.364c0-.272.013-.545-.695-.545h-7.178s-7.178,0-7.178,0c-.709,0-.695.274-.695.545l.017.364c0,.333.178.658,1.04.665.009,0,3.245,0,6.816,0Z" style="fill:none; stroke:#687581; stroke-miterlimit:10; stroke-width:.5px;"/><path d="M423.81,243.668c3.027-.107,3.027-3.319,3.027-4.958,0-1.497.15-27.167.15-27.167,0-1.625-.046-1.625-.751-1.625-.562,0-.541.402-.541.402h-.565s.012-.402-.497-.402h-7.94c-.539,0-.505.402-.505.402h-.565s-.014-.402-.541-.402c-.705,0-.751,0-.751,1.625,0,0,.15,25.669.15,27.167,0,1.639,0,4.851,3.027,4.958,1.234.044,5.07.044,6.303,0Z" style="fill:none; stroke:#687581; stroke-miterlimit:10; stroke-width:.5px;"/><path d="M425.694,210.319c-.023,3.987-.251,25.331-.251,26.585,0,4.154-.831,4.144-4.785,4.144s-4.786.008-4.786-4.144c0-1.014-.219-21.185-.251-26.585" style="fill:none; stroke:#687581; stroke-miterlimit:10; stroke-width:.5px;"/><path d="M416.187,210.319c.032,5.407.252,25.569.252,26.585,0,3.471.3,3.437,4.223,3.437,3.885,0,4.223.039,4.223-3.437,0-1.256.219-22.587.244-26.585" style="fill:none; stroke:#687581; stroke-miterlimit:10; stroke-width:.5px;"/><path d="M423.68,214.057c0,.288-.231.523-.519.529-.498.01-1.344.023-2.503.023s-2.005-.012-2.503-.023c-.288-.006-.519-.241-.519-.529v-.59c0-.234.19-.425.425-.425h5.194c.234,0,.425.19.425.425v.59Z" style="fill:none; stroke:#687581; stroke-miterlimit:10; stroke-width:.5px;"/><path d="M423.68,218.723c0,.288-.231.523-.519.529-.498.01-1.344.023-2.503.023s-2.005-.012-2.503-.023c-.288-.006-.519-.241-.519-.529v-.59c0-.234.19-.425.425-.425h5.194c.234,0,.425.19.425.425v.59Z" style="fill:none; stroke:#687581; stroke-miterlimit:10; stroke-width:.5px;"/><path d="M423.68,223.388c0,.288-.231.523-.519.529-.498.01-1.344.023-2.503.023s-2.005-.012-2.503-.023c-.288-.006-.519-.241-.519-.529v-.59c0-.234.19-.425.425-.425h5.194c.234,0,.425.19.425.425v.59Z" style="fill:none; stroke:#687581; stroke-miterlimit:10; stroke-width:.5px;"/><path d="M423.68,228.053c0,.288-.231.523-.519.529-.498.01-1.344.023-2.503.023s-2.005-.012-2.503-.023c-.288-.006-.519-.241-.519-.529v-.59c0-.234.19-.425.425-.425h5.194c.234,0,.425.19.425.425v.59Z" style="fill:none; stroke:#687581; stroke-miterlimit:10; stroke-width:.5px;"/><path d="M423.68,232.719c0,.288-.231.523-.519.529-.498.01-1.344.023-2.503.023s-2.005-.012-2.503-.023c-.288-.006-.519-.241-.519-.529v-.59c0-.234.19-.425.425-.425h5.194c.234,0,.425.19.425.425v.59Z" style="fill:none; stroke:#687581; stroke-miterlimit:10; stroke-width:.5px;"/><path d="M423.68,237.384c0,.288-.231.523-.519.529-.498.01-1.344.023-2.503.023s-2.005-.012-2.503-.023c-.288-.006-.519-.241-.519-.529v-.59c0-.234.19-.425.425-.425h5.194c.234,0,.425.19.425.425v.59Z" style="fill:none; stroke:#687581; stroke-miterlimit:10; stroke-width:.5px;"/><path d="M387.943,233.95c3.012,0,6.024-.04,7.778-.121,2.554-.117,3.699-1.321,3.963-3.376.264-2.055,1.152-9.453,1.152-15.252,0-1.592-.054-1.896-.876-1.896-.604,0-.631.469-.631.469h-.58s.003-.469-.477-.469h-10.33s-10.33,0-10.33,0c-.48,0-.477.469-.477.469h-.58s-.027-.469-.631-.469c-.823,0-.876.304-.876,1.896,0,5.799.888,13.197,1.152,15.252s1.409,3.259,3.963,3.376c1.755.081,4.767.121,7.778.121" style="fill:none; stroke:#141b21; stroke-miterlimit:10; stroke-width:.5px;"/><path d="M399.329,213.774c.052,6.651-.935,15.561-.945,15.637-.191,1.462-1.044,2.207-2.607,2.277-1.651.075-4.581.119-7.834.119-3.254,0-6.184-.045-7.834-.119-1.563-.071-2.416-.816-2.607-2.277-.01-.077-.997-8.986-.945-15.637" style="fill:none; stroke:#141b21; stroke-miterlimit:10; stroke-width:.5px;"/><path d="M398.75,213.774c.048,6.252-.816,14.136-.917,14.928-.14,1.099-.663,1.942-2.262,2.016-1.606.074-4.459.119-7.628.119-3.169,0-6.022-.044-7.628-.119-1.599-.074-2.122-.917-2.262-2.016-.101-.792-.965-8.676-.917-14.928" style="fill:none; stroke:#141b21; stroke-miterlimit:10; stroke-width:.5px;"/><polygon points="417.878 209.917 418.128 199.546 418.378 209.917 417.878 209.917 417.878 209.917" style="fill:#687581;"/><polygon points="423.071 199.546 423.321 209.917 422.821 209.917 423.071 199.546 423.071 199.546" style="fill:#687581;"/><path d="M391.953,213.158l5.034-6.668c1.475-1.961,3.647-4.681,4.749-6.854-1.027,2.194-3.136,5.005-4.547,7.002,0,0-4.832,6.815-4.832,6.815l-.403-.295h0Z" style="fill:#141b21;"/><polygon points="397.991 213.305 392.154 213.555 392.154 213.055 397.991 213.305 397.991 213.305" style="fill:#141b21;"/><path d="M407.306,199.397c-1.648,4.646-6.174,10.119-9.118,14.062,0,0-.395-.306-.395-.306,3.07-3.87,7.709-9.136,9.513-13.755h0Z" style="fill:#141b21;"/><path d="M387.943,233.95c3.012,0,6.024-.04,7.778-.121,2.554-.117,3.699-1.321,3.963-3.376.264-2.055,1.152-9.453,1.152-15.252,0-1.592-.054-1.896-.876-1.896-.604,0-.631.469-.631.469h-.58s.003-.469-.477-.469h-10.33s-10.33,0-10.33,0c-.48,0-.477.469-.477.469h-.58s-.027-.469-.631-.469c-.823,0-.876.304-.876,1.896,0,5.799.888,13.197,1.152,15.252s1.409,3.259,3.963,3.376c1.755.081,4.767.121,7.778.121" style="fill:#f4ae3d; stroke:#141b21; stroke-miterlimit:10; stroke-width:1.5px;"/><path d="M399.329,213.774c.052,6.651-.935,15.561-.945,15.637-.191,1.462-1.044,2.207-2.607,2.277-1.651.075-4.581.119-7.834.119-3.254,0-6.184-.045-7.834-.119-1.563-.071-2.416-.816-2.607-2.277-.01-.077-.997-8.986-.945-15.637" style="fill:none; stroke:#141b21; stroke-miterlimit:10; stroke-width:.5px;"/><path d="M398.75,213.774c.048,6.252-.816,14.136-.917,14.928-.14,1.099-.663,1.942-2.262,2.016-1.606.074-4.459.119-7.628.119-3.169,0-6.022-.044-7.628-.119-1.599-.074-2.122-.917-2.262-2.016-.101-.792-.965-8.676-.917-14.928" style="fill:none; stroke:#141b21; stroke-miterlimit:10; stroke-width:.5px;"/><path d="M387.943,218.148c3.738,0,7.476,0,7.485,0,.862-.007,1.04-.332,1.04-.665l.017-.364c0-.272.01-.545-.698-.545h-7.844s-7.844,0-7.844,0c-.708,0-.698.274-.698.545l.017.364c0,.333.178.658,1.04.665.01,0,3.747,0,7.485,0Z" style="fill:none; stroke:#141b21; stroke-miterlimit:10; stroke-width:.5px;"/><path d="M387.943,221.627h7.5c.707,0,.708.274.708.545l-.017.364c0,.333-.178.658-1.04.665-.009,0-3.496,0-7.151,0-3.654,0-7.141,0-7.151,0-.862-.007-1.04-.332-1.04-.665l-.017-.364c0-.272,0-.545.708-.545h7.5Z" style="fill:none; stroke:#141b21; stroke-miterlimit:10; stroke-width:.5px;"/><path d="M387.943,228.256c3.571,0,6.807,0,6.816,0,.862-.007,1.04-.332,1.04-.665l.017-.364c0-.272.013-.545-.695-.545h-7.178s-7.178,0-7.178,0c-.709,0-.695.274-.695.545l.017.364c0,.333.178.658,1.04.665.009,0,3.245,0,6.816,0Z" style="fill:none; stroke:#141b21; stroke-miterlimit:10; stroke-width:.5px;"/><line x1="316.414" y1="97.77" x2="251.287" y2="94.355" style="fill:none; stroke:#f4ae3d; stroke-miterlimit:10; stroke-width:3px;"/><polygon points="253.606 87.736 241.612 93.848 252.901 101.18 253.606 87.736" style="fill:#f4ae3d;"/><line x1="316.342" y1="180.894" x2="250.33" y2="188.861" style="fill:none; stroke:#f4ae3d; stroke-miterlimit:10; stroke-width:3px;"/><polygon points="251.479 181.942 240.712 190.022 253.092 195.308 251.479 181.942" style="fill:#f4ae3d;"/></svg>