<?xml version="1.0" encoding="UTF-8"?><svg id="uuid-f7ca4377-6f15-4fde-b587-91cb38be79c3" xmlns="http://www.w3.org/2000/svg" width="218" height="155.645" viewBox="0 0 218 155.645"><path d="M19.5,88.826c28.584.242,126.473,4.887,135.785,5.64,6.477.524,8.884,2.016,7.492,10.209-1.481,8.72-4.85,15.979-6.377,19.303-1.739,3.785-3.876,7.24-8.304,7.756-7.405.862-87.833-.5-120.277-2.239,0,0-11.625.045-14.399-9.032-2.773-9.077-3.302-18.575-3.523-21.128-.491-5.68-2.028-10.75,9.602-10.51h0Z" style="fill:#404d59;"/><path d="M147.334,81.363c1.081.05,16.506.762,23.065,1.012,10.232.391,17.456-2.544,21.065-4.488,3.325-1.791,2.662-1.637,6.433-1.446l31.699,1.609" style="fill:none; stroke:#687581; stroke-miterlimit:10;"/><path d="M-9.465,69.16c7.644,4.273,11.587,4.963,22.423,5.585,7.433.427,128.582,6.371,134.375,6.618" style="fill:none; stroke:#687581; stroke-miterlimit:10;"/><path d="M16.874,75.124c-4.376-.226-5.163-1.539-2.625-5.509,1.561-2.354,3.048-4.752,3.923-7.456.62-1.772,1.077-3.601,1.528-5.43,2.414-10.148,5.665-22.764,8.079-32.978l1.311-5.504c.678-2.737,1.151-5.618,2.575-8.106,1.453-2.508,3.958-4.139,6.452-5.479,3.355-1.743,6.761-3.368,10.215-4.897,5.205-2.198,10.431-4.577,16.008-5.659,7.462-1.35,15.116-.546,22.598.224,32.706,3.315,79.972,8.059,112.599,11.363,1.877.169,3.758.423,5.617.768,7.437,1.403,9.11,3.577,13.894,9.073,1.241,1.422,2.443,2.889,3.55,4.423,1.075,1.546,2.411,3.125,2.453,5.116-.05,1.981-1.29,3.608-2.335,5.178-1.092,1.547-2.243,3.04-3.373,4.551-2.121,2.681-14.714,19.416-17.149,22.506-2.508,3.204-7.787,10.509-10.554,13.307-5.255,5.413-11.989,9.537-19.396,11.147-1.847.392-3.732.619-5.619.612,9.476-.254,18.324-5.262,24.811-11.955,1.302-1.358,2.502-2.806,3.634-4.311,4.425-5.777,16.02-21.055,20.571-27.011l3.416-4.511c1.667-2.271,3.499-4.448,4.866-6.911,1.741-3.038.208-4.993-1.604-7.516-1.1-1.527-2.291-2.982-3.528-4.403-1.891-2.069-3.601-4.381-5.884-6.036-3.898-2.698-8.808-3.187-13.407-3.703-11.29-1.13-49.972-5.049-61.928-6.249l-45.038-4.545c-7.505-.688-15.01-1.819-22.54-1.433-1.877.099-3.75.298-5.597.637-5.551,1.078-10.751,3.448-15.936,5.636-3.445,1.525-6.853,3.15-10.192,4.886-1.644.887-3.262,1.873-4.606,3.175-2.801,2.645-3.378,6.615-4.258,10.197-1.905,7.905-4.71,19.578-6.688,27.494-1.454,5.476-2.511,11.051-4.238,16.45-.615,1.793-1.428,3.524-2.422,5.14-.985,1.59-2.165,3.102-2.79,4.861-.834,2.313,2.042,2.406,3.625,2.531l-.018.325h0Z" style="fill:#687581;"/><path d="M52.608,39.832c-11.429-.988-13.099-.476-11.164-7.514,1.272-4.624,2.081-7.398,2.774-9.48,1.071-3.215,1.436-4.017,7.932-6.749,6.279-2.641,6.568-3.093,23.461-1.633,9.363.809,30.864,2.312,56.641,4.509,25.778,2.197,55.254,5.086,60.687,5.78,5.433.694,5.908,1.318,8.554,4.133,2.647,2.815,3.005,4.249,1.271,6.907-1.734,2.659-3.352,5.549-5.548,7.977-2.196,2.427-3.863,5.78-12.508,5.318-8.645-.463-35.117-2.196-63.553-4.162-28.436-1.965-59.185-4.277-68.548-5.087h0Z" style="fill:none; stroke:#687581; stroke-miterlimit:10; stroke-width:.5px;"/><path d="M205.52,28.732c2.852,3.509,3.726,5.169,1.055,9.248-1.796,2.746-3.379,5.396-5.758,8.019-1.346,1.484-2.632,3.428-5.343,4.716-2.712,1.287-5.923,1.433-8.923,1.27-8.925-.486-35.997-2.283-65.421-4.342-25.975-1.819-54.818-3.744-67.428-4.735-18.212-1.431-18.978-.085-13.931-15.755,2.42-7.514,2.471-8.089,9.494-11.164,8.607-3.768,8.497-4.02,26.162-2.493,9.363.809,30.854,2.435,56.641,4.509,24.555,1.974,59.471,5.449,59.471,5.449,9.918.987,10.343.803,13.98,5.278h0Z" style="fill:none; stroke:#687581; stroke-miterlimit:10; stroke-width:.5px;"/><path d="M35.82,31.126c1.179-4.04,2.502-8.47,2.557-8.645.772-2.486,1.699-4.545,5.934-6.522,2.599-1.213,8.142-3.569,9.172-3.974,3.938-1.55,10.122-1.346,20.719-.422,9.502.828,32.337,2.452,58.911,4.736,26.643,2.29,57.34,5.312,63.262,6.071,6.49.832,8.445,1.312,11.566,5.135,3.228,3.952,4.728,5.856,1.168,11.285-1.827,2.785-3.347,5.149-5.868,7.924-2.437,2.683-5.05,7.194-15.752,6.668-9.053-.446-36.269-2.111-66.184-4.048-28.825-1.867-59.762-3.6-69.686-4.423-18.107-1.502-19.24-1.986-15.797-13.783h0Z" style="fill:none; stroke:#687581; stroke-miterlimit:10; stroke-width:.5px;"/><path d="M121.762,40.642c-18.809-1.274-28.35-2.168-31.297-2.688-2.948-.52-5.548-2.081-4.422-5.723,1.127-3.641,2.254-5.896,3.468-8.67,1.214-2.774,3.901-4.162,10.23-3.815,6.329.347,18.726,1.388,30.257,2.341,11.53.954,26.529,2.254,30.864,2.861,4.335.607,5.458,2.122,4.477,4.365-.981,2.243-2.483,5.433-5.053,9.217-1.948,2.869-3.412,4.018-8.354,3.932-4.942-.087-21.148-1.209-30.17-1.821h0Z" style="fill:none; stroke:#687581; stroke-miterlimit:10; stroke-width:.5px;"/><path d="M101.742,22.734c10.736.485,26.215,1.911,37.089,2.722,6.365.609,14.566,1.037,20.824,2.019,1.06.214,2.77.753,2.176,2.162-.457,1.077-.989,2.107-1.533,3.141-.733,1.368-1.539,2.697-2.405,3.984-.664.954-1.295,1.952-2.144,2.759-1.472,1.385-3.622,1.439-5.528,1.433-1.551-.028-3.099-.104-4.647-.179-6.21-.298-21.421-1.314-27.839-1.717-7.728-.547-15.468-1.005-23.168-1.886-.865-.105-1.736-.239-2.574-.503-.638-.231-1.301-.532-1.738-1.07-1.105-1.332-.044-3.059.41-4.446.558-1.448,1.219-2.852,1.9-4.244-.645,1.409-1.287,2.82-1.825,4.272-.345,1.081-.934,2.169-.842,3.324.147,1.202,1.353,1.838,2.411,2.124.738.215,1.507.318,2.274.414,7.696.876,15.435,1.339,23.161,1.884,8.867.512,23.769,1.652,32.48,1.896,4.182.038,5.297-.639,7.562-4.135,1.299-1.925,2.449-3.947,3.446-6.044.224-.522.564-1.022.586-1.596-.078-1.012-1.387-1.231-2.19-1.446-6.223-.976-14.459-1.41-20.807-2.016-10.659-.825-26.546-2.143-37.078-2.852h0Z" style="fill:#687581;"/><path d="M110.346,39.836l.68-1.299.217-1.386c.161-1.026.103-.82.502-1.779l3.667-8.815c.533-1.28.384-1.086,1.482-1.933l.986-.76.323-2.75" style="fill:none; stroke:#687581; stroke-miterlimit:10; stroke-width:.5px;"/><path d="M132.746,41.379l.933-1.341.148-1.38c.096-.894.047-.723.434-1.535l4.133-8.669c.628-1.317.463-1.128,1.684-1.927l1.282-.838.191-2.62" style="fill:none; stroke:#687581; stroke-miterlimit:10; stroke-width:.5px;"/><path d="M93.84,31.082c.641-1.676,1.242-3.384,2.145-4.946.587-.964,1.775-1.327,2.831-1.444.723-.086,1.448-.018,2.162.02,7.85.431,15.824.932,23.652,1.546,9.511.774,20.529,1.78,30.056,2.595,1.497.17,3.551.043,2.576,2.235-.412.788-.922,1.882-1.384,2.624-.521.841-1.065,1.668-1.655,2.461.547-.823,1.078-1.656,1.572-2.511.439-.749.941-1.858,1.348-2.635.162-.436.409-1.044.064-1.46-.106-.128-.268-.201-.425-.267-.671-.223-1.404-.248-2.108-.318-9.533-.816-20.537-1.821-30.053-2.595-7.825-.614-15.804-1.115-23.65-1.546-.718-.038-1.432-.105-2.141-.021-.704.076-1.412.256-2.003.643-.621.364-.91,1.051-1.241,1.681-.653,1.279-1.176,2.618-1.747,3.935h0s0,0,0,0Z" style="fill:#687581;"/><path d="M149.641,37.554c-3.846.012-9.478-.526-13.379-.758-12.174-.836-24.588-1.579-36.752-2.723-1.112-.105-2.222-.23-3.333-.345,3.839.198,9.46.778,13.358,1.074,13.29,1.016,26.799,1.864,40.106,2.752Z" style="fill:#687581;"/><path d="M122.872,30.055c-.46.017-.588-.478-.225-.745.254-.238.704-.154,1.016-.134.672.054,1.344.094,2.017.141.241.016,4.48.31,4.537.315.854.028.572.958-.147.967-1.28-.085-4.73-.344-6.054-.444,1.335.071,4.759.253,6.049.324.519-.004.858-.691.143-.714-.051-.002-4.301-.297-4.537-.312-.672-.045-1.344-.099-2.016-.138-.267-.01-.707-.102-.94.087-.323.212-.24.608.158.655h0Z" style="fill:#687581;"/><path d="M122.17,31.555c-.358.026-.582-.345-.334-.636.15-.186.389-.287.626-.276.091.004,1.797.12,1.951.13l3.469.223,1.74.118c.155.02.331.118.379.296.085.356-.274.607-.578.649-.162.021-.3-.011-.446-.015-1.156-.088-2.312-.165-3.466-.267,1.158.04,2.315.103,3.473.156.143.002.295.026.422.007.234-.03.533-.238.47-.493-.029-.111-.147-.184-.273-.201l-1.728-.112-3.468-.227c-.094-.007-1.936-.121-1.951-.123-.521-.062-.996.627-.284.773h0Z" style="fill:#687581;"/><path d="M121.416,33.112c-.261.03-.529-.226-.41-.496.106-.248.363-.394.625-.409.493.018.962.066,1.444.091l2.875.179c.962.065,1.908.118,2.883.193.129.025.267.1.33.238.165.431-.377.75-.742.698-.478-.048-.957-.084-1.434-.146.481-.003.961.019,1.441.03.294.032.726-.2.616-.528-.038-.085-.133-.143-.236-.162l-2.866-.183c-.945-.062-3.39-.221-4.306-.271-.503-.008-.888.636-.22.768Z" style="fill:#687581;"/><path d="M138.941,80.965l-9.173,12.306" style="fill:none; stroke:#687581; stroke-miterlimit:10; stroke-width:.5px;"/><path d="M101.102,131.875l-2.649,3.298c-6.249,7.755-8.672,7.169-24.957,6.933l-61.09-.886c-5.559-.081-6.512-1.455-4.506-6.528l5.619-14.216" style="fill:none; stroke:#687581; stroke-miterlimit:10; stroke-width:.5px;"/><path d="M25.989,88.929c3.222-8.151,5.179-13.102,5.179-13.102" style="fill:none; stroke:#687581; stroke-miterlimit:10; stroke-width:.5px;"/><path d="M40.954,76.471l-6.593,12.67" style="fill:none; stroke:#687581; stroke-miterlimit:10; stroke-width:.5px;"/><path d="M16.101,124.549c-1.488,2.859-2.955,5.729-4.46,8.58l-2.247,4.28c-.569.944-.774,2.489.427,3.023.358.165.759.225,1.16.26-.402.013-.815-.011-1.204-.159-1.363-.479-1.241-2.217-.616-3.249l2.215-4.297c1.471-2.867,2.979-5.714,4.466-8.572l.258.134Z" style="fill:#687581;"/><path d="M-22.004,71.679c11.961-.113,16.253-2.922,19.834-13.737C1.411,47.126,4.749,31.15,9.876,9.697c5.127-21.452-.292-27.049-39.937-31.118" style="fill:none; stroke:#687581; stroke-miterlimit:10;"/><path d="M41.59,124.415c10.843-2.716,21.987-5.224,32.935-7.454l4.733-.934c-9.392,2.078-28.285,6.285-37.668,8.387Z" style="fill:#687581;"/><path d="M70.216,113.492c25.41-5.121,50.221-10.092,76.803-14.159-25.988,4.28-51.862,9.42-76.803,14.159Z" style="fill:#687581;"/><path d="M25.284,73.81c28.048,1.628,116.776,5.832,143.093,6.916.504.021,1.007-.02,1.501-.119,7.955-1.599,15.799-9.167,18.474-13.558,1.016-1.668-.095-3.818-2.044-3.945l-150.721-9.851c-2.41-.158-4.696,1.096-5.849,3.219-1.479,2.725-5.043,10.514-6.841,14.203-.697,1.43.798,3.043,2.386,3.136Z" style="fill:none; stroke:#687581; stroke-miterlimit:10; stroke-width:.5px;"/><path d="M158.897,75.179c-22.382-.923-99.125-4.524-122.974-5.976-2.649-.161-3.575-1.415-3.293-2.739.954-4.505,5.774-13.041,8.364-12.859" style="fill:none; stroke:#687581; stroke-miterlimit:10; stroke-width:.5px;"/><path d="M174.588,62.337c4.079,1.389-7.909,13.124-15.692,12.842" style="fill:none; stroke:#687581; stroke-miterlimit:10; stroke-width:.5px;"/><path d="M23.305,72.698s5.52-1.417,9.568-4.679" style="fill:none; stroke:#687581; stroke-miterlimit:10; stroke-width:.5px;"/><path d="M162.665,74.745s2.472,2.93,7.212,5.862" style="fill:none; stroke:#687581; stroke-miterlimit:10; stroke-width:.5px;"/><path d="M138.268,129.351c-23.883,0-83.006-1.022-109.802-2.458l-.067-.004h-.067c-.399,0-9.925-.098-12.147-7.372-2.441-7.989-3.106-16.527-3.357-19.742-.028-.358-.052-.66-.072-.902-.041-.47-.088-.937-.135-1.397-.233-2.282-.434-4.253.396-5.173.577-.639,2.126-1.401,6.226-1.401.237,0,.48.003.73.008h.029c28.708.243,126.591,4.903,135.615,5.633,2.995.242,4.532.679,5.139,1.46.682.877.76,2.902.23,6.019-1.583,9.318-4.958,16.023-6.195,18.716-2.285,4.975-4.16,6.14-6.445,6.406-.664.077-2.857.207-10.077.207h0Z" style="fill:none; stroke:#292929; stroke-miterlimit:10; stroke-width:.5px;"/><path d="M19.5,88.826c28.584.242,126.473,4.887,135.785,5.64,6.477.524,8.884,2.016,7.492,10.209-1.481,8.72-4.85,15.979-6.377,19.303-1.739,3.785-3.876,7.24-8.304,7.756-7.405.862-87.833-.5-120.277-2.239,0,0-11.625.045-14.399-9.032-2.773-9.077-3.302-18.575-3.523-21.128-.491-5.68-2.028-10.75,9.602-10.51h0Z" style="fill:none; stroke:#292929; stroke-miterlimit:10; stroke-width:2px;"/><path d="M52.7,103.623c-1.314-.261-2.676-.127-3.914.386-1.238.513-2.296,1.381-3.04,2.495-.744,1.114-1.142,2.424-1.142,3.764,0,1.797.714,3.52,1.984,4.791,1.271,1.271,2.994,1.984,4.79,1.984,1.34,0,2.65-.397,3.764-1.142,1.114-.744,1.982-1.803,2.495-3.041.513-1.238.647-2.6.386-3.914s-.907-2.521-1.854-3.469c-.947-.948-2.155-1.593-3.469-1.854ZM49.085,104.731c1.095-.453,2.3-.572,3.463-.341,1.162.231,2.23.802,3.068,1.64.838.838,1.409,1.906,1.64,3.069.231,1.163.113,2.368-.341,3.463s-1.222,2.031-2.207,2.69c-.986.658-2.144,1.01-3.329,1.01-1.589,0-3.114-.631-4.238-1.755-1.124-1.124-1.755-2.649-1.755-4.238,0-1.185.352-2.344,1.01-3.33.658-.985,1.594-1.754,2.69-2.208ZM55.053,112.724c.485-.727.745-1.582.745-2.456,0-1.172-.466-2.297-1.294-3.125-.829-.829-1.953-1.294-3.125-1.294-.874,0-1.729.259-2.455.745s-1.293,1.176-1.628,1.984c-.335.807-.422,1.696-.251,2.554.17.858.591,1.645,1.21,2.263.618.618,1.405,1.039,2.263,1.21.857.17,1.746.083,2.554-.252.807-.335,1.498-.901,1.983-1.628ZM49.269,109.395c-.115.277-.174.574-.174.874h-.737c0-.397.078-.789.23-1.156.152-.367.374-.699.655-.98.281-.281.613-.503.98-.655.366-.152.759-.23,1.156-.23v.737c-.3,0-.597.059-.874.174-.277.115-.529.283-.741.495-.212.212-.38.464-.495.741Z" style="fill:#ffac00; fill-rule:evenodd;"/></svg>