<svg xmlns="http://www.w3.org/2000/svg" xmlns:xlink="http://www.w3.org/1999/xlink" width="114.6528mm" height="101.995mm" viewBox="0 0 325 289.1197"><defs><clipPath id="ab7628cf-0f76-4c38-b3ce-6106b079a420"><rect x="5.8803" width="313.2394" height="289.1197" style="fill:none"/></clipPath></defs><g id="ffa18680-adb7-42b8-8b4b-7784c03347c3" data-name="above"><g style="clip-path:url(#ab7628cf-0f76-4c38-b3ce-6106b079a420)"><path d="M-63.1282,394.6856V65.7948c0-60.543,38.3123-163.1823,188.2508-120.14s304.1339,88.45,304.1339,88.45" style="fill:none;stroke:#687581;stroke-miterlimit:10;stroke-width:0.5px"/><path d="M-24.81,399.26c.9469-1.4309,0-253.5227,0-292.7884,0-38.5082,32.0481-89.6,117.1238-79.9623" style="fill:none;stroke:#687581;stroke-miterlimit:10;stroke-width:0.5px"/><path d="M-24.8159,389.7943c.2577-.48,297.985-126.2889,297.985-126.2889s40.6773-106.8962,62.908-112.5721a258.7056,258.7056,0,0,1,43.9882-6.8644s24.1226.7155,35.9474,12.54,30.2715,37.8394,39.2584,53.4481" style="fill:none;stroke:#687581;stroke-miterlimit:10;stroke-width:0.5px"/><path d="M273.1691,263.5054s9.9329,9.9329,41.6233,9.9329,43.9883-4.73,61.489-14.19,78.99-41.6233,78.99-41.6233" style="fill:none;stroke:#687581;stroke-miterlimit:10;stroke-width:0.5px"/><path d="M215.9066,45.0239c1.419,0,213.35,27.8657,213.35,27.8657" style="fill:none;stroke:#687581;stroke-miterlimit:10;stroke-width:0.5px"/><line x1="462.8389" y1="224.8994" x2="161.543" y2="404.9301" style="fill:none;stroke:#aebbc7;stroke-miterlimit:10;stroke-width:0.5px"/><line x1="481.7586" y1="13.2927" x2="134.1095" y2="-163.6064" style="fill:none;stroke:#aebbc7;stroke-miterlimit:10"/><line x1="485.7164" y1="1.3493" x2="268.4392" y2="-127.659" style="fill:none;stroke:#aebbc7;stroke-miterlimit:10"/><line x1="281.683" y1="-106.5478" x2="500.2053" y2="16.6036" style="fill:none;stroke:#aebbc7;stroke-miterlimit:10;stroke-width:0.5px"/><path d="M228.2766,28.6509a5.891,5.891,0,0,0-4.1974-3.4108c-5.7728-1.5224-62.2767-12.2975-80.6448-15.2157s-31.6632,2.0435-37.9608,6.4169-42.3342,33.2376-50.0313,38.99c-4.8108,3.5955-6.41,6.2578-5.6085,7.8771l1.7316,3.2682c.4807.9715,1.8255,1.5675,3.8591,1.7643,5.423.5249,97.6136,6.6476,97.6136,6.6476,6.293.4186,15.5691-3.3238,19.0678-5.0731s47.4073-27.29,53.705-30.2637c3.4294-1.6195,4.8357-4.3283,4.4731-6.7057Z" style="fill:none;stroke:#aebbc7;stroke-miterlimit:10"/><path d="M153.0381,74.9889s-89.9164-6.2977-97.6136-6.6476-25.19,4.0235-25.19,32.363V230.8556c0,8.3969,1.05,33.0627,27.8146,26.94s79.7121-21.167,88.4878-23.7911,18.0473-10.496,19.097-25.0156,1.7493-103.9112,2.0992-113.1827S163.0527,75.6886,153.0381,74.9889Z" style="fill:none;stroke:#aebbc7;stroke-miterlimit:10"/><path d="M148.84,84.7852S66.2705,82.686,59.623,82.3361s-14.52,4.1984-15.0444,16.094-.1749,120.88,0,128.2271S46.3279,248.524,63.9963,244.85s76.2135-18.56,82.54-19.951,14.24-7.8636,15.0066-18.1848,1.6413-99.1879,1.4663-107.2349S158.4637,85.0316,148.84,84.7852Z" style="fill:none;stroke:#aebbc7;stroke-miterlimit:10"/><path d="M71.1031,78.2954c22.6209.6523,64.37,1.7255,74.891,1.9991" style="fill:none;stroke:#aebbc7;stroke-miterlimit:10;stroke-width:0.5px"/><path d="M149.95,80.4628c8.859.8417,12.8781,7.1335,13.0675,14.9824.1683,8.27-.7365,107.1706-1.5151,117.7761s-8.9221,17.255-15.4243,18.686c-6.5022,1.41-66.6633,18.0125-84.8232,21.8-18.1388,3.7667-19.7591-11.1526-19.9485-18.707-.1683-7.5543-.526-128.4026,0-140.6284.5471-12.2259,8.6275-16.8973,15.4664-16.54,1.1363.0631,4.3769.1683,9.0273.2946" style="fill:none;stroke:#aebbc7;stroke-miterlimit:10;stroke-width:0.5px"/><path d="M46.804,222.9564c.0291,8.0554,2.9072,17.5554,12.4516,17.7934a29.1771,29.1771,0,0,0,8.0142-.9443c10.5786-2.35,21.1032-4.9526,31.63-7.5342,8.73-2.1573,35.1157-8.7522,43.399-10.7712a19.2681,19.2681,0,0,0,14.8232-12.178c1.8815-5.0922,1.2759-10.6782,1.5959-16.0163.556-23.3382.9209-57.8564,1.1385-81.2866-.1427-4.55.667-11.7947-.8867-16.1349-1.6778-5.4094-7.037-8.5062-12.5313-8.5044a18.2318,18.2318,0,0,1,4.02.5464,12.08,12.08,0,0,1,8.6264,7.9178c1.6,4.395.8369,11.5117,1.0162,16.1764-.1658,23.4844-.425,57.914-.9247,81.2965-.32,5.3973.3443,11.01-1.5876,16.1817a19.7484,19.7484,0,0,1-15.1863,12.4356c-8.1559,1.9737-34.8735,8.5609-43.424,10.6589-10.5353,2.5528-21.0642,5.1343-31.6577,7.45-13.9758,3.5837-20.396-3.2565-20.517-17.0867Z" style="fill:#aebbc7"/><path d="M141.7821,172.8871c4.5455-6.6964,3.29-15.1619,3.6453-22.8209.1512-11.71.5983-35.2666.8165-46.9719.25-7.8625-2.3559-16.216-11.0037-17.8814a27.839,27.839,0,0,0-5.7613-.5739c-15.5732-.4007-37.2307-.9172-52.8447-1.3153-13.7412-1.2716-21.13,7.7122-22.13,20.74-.0029-.1722-.0742,41.5781-.0779,41.5412.0043,6.9278-.0654,13.8632,0,20.785.1938,6.6271,1.4974,14.3249,7.411,18.2257,5.852,3.9217,13.5046,2.2109,20.0211,1.2725l20.58-2.9518,20.5891-2.8906c4.878-.8965,10.7472-.78,15.0141-3.6036a13.7564,13.7564,0,0,0,3.7409-3.5553,14.632,14.632,0,0,1-8.464,5.6815c-2.893.7274-7.27,1.1987-10.2588,1.7049-10.2484,1.5414-30.8711,4.6847-41.1251,6.1749l-5.1422.7611c-15.6208,2.81-22.8395-5.7685-23.0891-20.7942-.1192-13.9306-.1086-48.0137-.157-62.4235.94-13.4983,8.8727-22.9335,23.1165-21.5729,15.6251.46,37.2492,1.0591,52.835,1.5148a28.5657,28.5657,0,0,1,5.8972.6135c8.9586,1.7776,11.7482,10.3993,11.4435,18.5483-.2643,11.7087-.8049,35.2742-1.1531,46.9784-.4343,7.6549.7178,16.1713-3.9029,22.8132Z" style="fill:#aebbc7"/><path d="M133.75,138.3017a12.954,12.954,0,0,0,3.7371-9.9766l-.03-3.6707-.1216-14.6793-.0506-7.3326a13.5159,13.5159,0,0,0-2.2747-6.719,11.3351,11.3351,0,0,0-8.9891-5.0342c-.9152-.1238-31.0688-.3236-33.0188-.3924L78.32,90.3235c-4.4643-.1013-10.2439-.54-12.9628,3.7668-2.54,3.5751-1.6834,9.92-1.8262,14.0878l-.0217,14.6612-.0113,7.3314c-.0668,4.7176,1.9034,9.6806,5.953,12.2959,2.9718,2.0284,6.8682,2.2639,10.3732,1.973,2.2834-.1312,8.6191-.4777,10.9939-.613,7.3046-.43,22.0152-1.2015,29.3213-1.5791,2.4387-.1459,4.8987-.2132,7.32-.4236a12.2476,12.2476,0,0,0,6.2908-3.5222,12.3057,12.3057,0,0,1-6.27,3.6428c-2.4478.2543-4.8853.36-7.3285.5474-7.3053.5023-22,1.5087-29.3063,1.9657-2.3758.1471-8.6813.5713-10.9913.7163-3.6769.33-7.6721.1109-10.8565-2.0027-4.323-2.76-6.4395-8.0129-6.3867-13.0014l-.0113-7.3522-.0217-14.706c.1326-4.3828-.7711-10.7072,1.9477-14.5744,3.0186-4.664,8.9411-4.3231,13.8149-4.167l14.6825.2187c1.9928.0484,32.1016.4522,33.0478.5705a12.0266,12.0266,0,0,1,9.4626,5.4148,14.1015,14.1015,0,0,1,2.3117,7.0443l-.0233,7.35-.1215,14.688-.03,3.6711a13.0564,13.0564,0,0,1-3.9195,9.974Z" style="fill:#aebbc7"/><path d="M66.9859,96.3572c2.4661-2.3946,6.1414-2.205,9.33-2.1531l9.8093.0717,19.6172.2209,9.8087.1115a11.28,11.28,0,0,1,4.8306,1.0489c3.802,1.8238,5.962,6.1865,5.7889,10.3042l.0052,2.453.021,9.8125c-.0483,2.8425.0783,7.0228-.0862,9.8321-.6156,4.9082-4.977,9.48-10.032,9.52-8.84.5176-25.28,1.4764-34.2731,2.0014l-4.8968.2661a11.6657,11.6657,0,0,1-9.0448-3.1006,11.5111,11.5111,0,0,1-2.5828-4.1323c3.0461,7.6291,9.5069,7.4391,16.5144,6.7221,9.059-.6222,25.3637-1.5556,34.2626-2.152,4.8674-.0486,9.0286-4.5012,9.5965-9.1762.1446-2.74.0086-6.99.0433-9.7809l.0209-9.805.0052-2.4514a10.585,10.585,0,0,0-5.5163-9.9594,10.8929,10.8929,0,0,0-4.6664-1.0295l-9.8071-.1534L86.12,94.5192l-9.8064-.1933c-3.1922-.09-6.832-.3312-9.3279,2.0313Z" style="fill:#aebbc7"/><path d="M82.1927,232.9227l-10.9389,2.3319a3.2372,3.2372,0,0,1-3.9121-3.1661V202.53a5.2545,5.2545,0,0,1,4.4269-5.1889l10.8361-1.7285a3.2373,3.2373,0,0,1,3.7471,3.1968v28.9746A5.2544,5.2544,0,0,1,82.1927,232.9227Z" style="fill:none;stroke:#aebbc7;stroke-miterlimit:10;stroke-width:0.5px"/><path d="M137.4262,219.3588l-9.53,2.0314a2.82,2.82,0,0,1-3.4081-2.7581V192.8815a4.5777,4.5777,0,0,1,3.8565-4.52l9.44-1.5057a2.82,2.82,0,0,1,3.2643,2.7849v25.2416A4.5776,4.5776,0,0,1,137.4262,219.3588Z" style="fill:none;stroke:#aebbc7;stroke-miterlimit:10;stroke-width:0.5px"/><path d="M131.5311,171.8348l-58.1619,7.01A5.3833,5.3833,0,0,1,67.3417,173.5v-9.4166a7.9914,7.9914,0,0,1,7.3432-7.9651l58.0614-4.726a5.3833,5.3833,0,0,1,5.82,5.3655v7.1426A7.9916,7.9916,0,0,1,131.5311,171.8348Z" style="fill:none;stroke:#aebbc7;stroke-miterlimit:10;stroke-width:0.5px"/><path d="M100.5372,160.5112a3.234,3.234,0,0,0-3.4972-3.2184l-22.1137,1.8a5.0349,5.0349,0,0,0-4.6021,4.9914V173.5a2.3989,2.3989,0,0,0,2.391,2.4023,2.43,2.43,0,0,0,.2969-.0185L97.39,172.9457a3.5751,3.5751,0,0,0,3.1473-3.5494Z" style="fill:none;stroke:#aebbc7;stroke-miterlimit:10;stroke-width:0.5px"/><path d="M133.0054,154.3662c-.0021,0-10.1372.8246-21.9373,1.7849a3.58,3.58,0,0,0-3.29,3.5638v8.3368a3.23,3.23,0,0,0,3.6159,3.2063l19.78-2.3839a5.0093,5.0093,0,0,0,4.41-4.9733v-7.1427A2.4368,2.4368,0,0,0,133.0054,154.3662Z" style="fill:none;stroke:#aebbc7;stroke-miterlimit:10;stroke-width:0.5px"/><path d="M230.284,32.9464s-.6469-3.7635,3.2414-8.028,13.6716-14.2207,25.0855-11.6257,132.0709,28.8252,136.968,30.058c6.6464,1.6732,2.6327,9.2872-2.3844,12.6737s-8.9053,4.7662-14.0478,4.0137S235.2814,38.7154,235.2814,38.7154s-6.5026-2.1316-4.9974-5.769" style="fill:none;stroke:#687581;stroke-miterlimit:10;stroke-width:0.5px"/><path d="M232.7753,36.9132c-.3511-3.79,2.0974-7.0754,4.6458-9.6108,4.2711-4.4514,9.3674-8.4666,15.4379-10.0485.4089-.0715,1.612-.3214,2.0432-.3947,3.799-.6293,8.5572.7955,12.2741,1.5626,39.62,8.5745,89.7453,19.6026,129.1327,28.4871-39.4368-8.4043-89.6741-19.3775-129.2062-28.164-3.6777-.77-8.3953-2.2123-12.1624-1.6039-.3653.0826-1.6431.2962-2.0151.3812-6.0253,1.5664-11.1124,5.4825-15.4169,9.8647-2.5736,2.5072-5.0412,5.7365-4.7331,9.5263Z" style="fill:#687581"/><path d="M51.5654,66.577c-.8012-1.6193.7978-4.2816,5.6085-7.8771,7.6971-5.7528,43.7336-34.617,50.0313-38.99s19.5927-9.335,37.9608-6.4168,74.872,13.6932,80.6449,15.2156a5.6214,5.6214,0,0,1,4.4731,4.4381" style="fill:none;stroke:#aebbc7;stroke-miterlimit:10;stroke-width:0.5px"/><ellipse cx="251.5887" cy="227.0981" rx="15.6009" ry="8.4766" transform="translate(-6.4204 446.8746) rotate(-82.4961)" style="fill:none;stroke:#687581;stroke-miterlimit:10;stroke-width:0.5px"/><path d="M62.1075,68.7454c5.93.3888,4.3383,13.5535.9269,13.5721" style="fill:none;stroke:#aebbc7;stroke-miterlimit:10"/><path d="M67.3676,69.2117c5.93.3889,4.3383,13.5535.9269,13.5721" style="fill:none;stroke:#aebbc7;stroke-miterlimit:10;stroke-width:0.5px"/><path d="M143.0878,74.2372c4.4378.291,3.2467,10.1429.6937,10.1569" style="fill:none;stroke:#aebbc7;stroke-miterlimit:10"/><path d="M147.0243,74.5862c4.4378.291,3.2467,10.1429.6937,10.1569" style="fill:none;stroke:#aebbc7;stroke-miterlimit:10;stroke-width:0.5px"/><path d="M94.4421,70.9193c5.4707.3587,4.0023,12.5038.8551,12.521" style="fill:none;stroke:#aebbc7;stroke-miterlimit:10;stroke-width:0.5px"/><path d="M123.2667,73.0552c4.9543.3248,3.6245,11.3233.7744,11.3389" style="fill:none;stroke:#aebbc7;stroke-miterlimit:10;stroke-width:0.5px"/><path d="M112.25,112.08l-2.5-.17a4.2552,4.2552,0,0,0-3.14-1.93l-.45-.03a4.0594,4.0594,0,0,0-2.67.74,4.1066,4.1066,0,0,0-2.16-.87l-.27-.02h-.04l-1.62-.11v-.01l-1.16-2.6h-.01l-4.98-.96-8.79-.06-4.75,8.99,4.02,9.04,4.96.96h.01l8.79.05,1.48-2.76v-.01l1.32.09h.02a3.9047,3.9047,0,0,0,2.63-.75,3.9766,3.9766,0,0,0,2.17.89l.48.02a4.2671,4.2671,0,0,0,3.46-1.42l2.45.17c1.97.16,3.74-1.78,3.95-4.33C115.66,114.44,114.23,112.24,112.25,112.08Z" style="fill:#404d59"/><path d="M284.13,114.88h-.01a11.5426,11.5426,0,0,0-.97-1.2A8.9719,8.9719,0,0,1,284.13,114.88Z" style="fill:#404d59"/><path d="M186.81,108.4a2.8816,2.8816,0,0,1,.3-.47,2.7618,2.7618,0,0,1,.31-.37,3.439,3.439,0,0,1,.4-.37,2.6268,2.6268,0,0,1,.4-.28.3528.3528,0,0,1,.13-.08,2.0485,2.0485,0,0,1,.36-.19.133.133,0,0,1,.08-.03,5.2054,5.2054,0,0,1,.56-.2,1.6471,1.6471,0,0,1,.32-.06,3.2893,3.2893,0,0,1,.83-.07l87.12,4.73a7.8484,7.8484,0,0,1,5.17,2.31l.36.36a11.5426,11.5426,0,0,1,.97,1.2l-6.63-.24c-3.65-.14-6.74,3.61-6.92,8.39-.17,4.74,2.63,8.71,6.28,8.85l6.64.24c-.11.13-.22.26-.33.38-.11.13-.22.25-.34.37a8.1027,8.1027,0,0,1-6.11,2.63l-87.22-1.69c-.15-.01-.3-.02-.45-.04a4.1268,4.1268,0,0,1-1.05-.32,3.9969,3.9969,0,0,1-.67-.38,1.3629,1.3629,0,0,1-.31-.24c-.1-.09-.19-.18-.28-.27a3.8763,3.8763,0,0,1-.81-1.18l-.16-.37-4.16-9.51a4.2674,4.2674,0,0,1,.13-3.53l5.04-9.51A.2092.2092,0,0,1,186.81,108.4Z" style="fill:#404d59"/><path d="M282.82,132.87c.12-.12.23-.24.34-.37C283.05,132.63,282.93,132.76,282.82,132.87Z" style="fill:#404d59"/><path d="M283.15,113.68l-.36-.36Q282.97,113.485,283.15,113.68Z" style="fill:#404d59"/><path d="M189.67,106.35a1.6471,1.6471,0,0,0-.32.06A1.6471,1.6471,0,0,1,189.67,106.35Z" style="fill:#404d59"/><path d="M189.13,106.48a1.4039,1.4039,0,0,0-.34.13A1.5807,1.5807,0,0,1,189.13,106.48Z" style="fill:#404d59"/><path d="M188.71,106.64a2.0485,2.0485,0,0,0-.36.19A2.0854,2.0854,0,0,1,188.71,106.64Z" style="fill:#404d59"/><path d="M188.22,106.91a2.6268,2.6268,0,0,0-.4.28A2.07,2.07,0,0,1,188.22,106.91Z" style="fill:#404d59"/><path d="M187.82,107.19a3.439,3.439,0,0,0-.4.37A3.5069,3.5069,0,0,1,187.82,107.19Z" style="fill:#404d59"/><path d="M187.11,107.93a2.8816,2.8816,0,0,0-.3.47l-3.17-.14-6.74,8.4s1.28,8.24,1.25,11.21l4.31,2.98.27.06,3.03.1.16.37a3.8763,3.8763,0,0,0,.81,1.18,9.2812,9.2812,0,0,1-4.44,1.01h-.03a.7115.7115,0,0,0-.16-.01l-15.89-.96-2.99-.18c-.07,0-.12-.01-.19-.01l-3.69-.23c-6.11-.18-10.92-6.28-10.72-13.67.21-7.4,5.32-13.25,11.42-13.1l3.86.24,3.04.18c.02,0,.07.01.09.01l15.94.98A8.8607,8.8607,0,0,1,187.11,107.93Z" style="fill:#404d59"/><path d="M186.81,108.4a.2092.2092,0,0,0-.04.06l-5.04,9.51a4.2674,4.2674,0,0,0-.13,3.53l4.16,9.51-3.03-.1-.27-.06-4.31-2.98c.03-2.97-1.25-11.21-1.25-11.21l6.74-8.4Z" style="fill:#404d59"/><path d="M186.8623,108.4045l-3.22-.1428-6.74,8.4s1.282,8.2335,1.2516,11.2113l4.3014,2.9739.2787.0585,3.2.1179" style="fill:none;stroke:#aebbc7;stroke-miterlimit:10"/><path d="M186.7209,132.5591a9.2176,9.2176,0,0,1-4.44,1.0074l-.1871-.0069-18.8821-1.141-.1871-.0069-3.692-.23c-6.1063-.1782-10.9169-6.2811-10.7146-13.6746s5.3131-13.2478,11.42-13.0929l3.8558.2358,3.038.1822.0936.0035,15.9367.9856a8.885,8.885,0,0,1,4.1513,1.1133" style="fill:none;stroke:#aebbc7;stroke-miterlimit:10;stroke-width:1.25px"/><path d="M163.2064,132.4068c-6.11-.1592-10.9064-6.2756-10.7139-13.6614s5.3012-13.2441,11.4107-13.085" style="fill:none;stroke:#aebbc7;stroke-miterlimit:10;stroke-width:0.5px"/><path d="M166.3361,132.5828c-6.11-.1592-10.9064-6.2756-10.714-13.6614s5.3013-13.2442,11.4108-13.085" style="fill:none;stroke:#aebbc7;stroke-miterlimit:10;stroke-width:0.5px"/><path d="M182.969,106.8233c-6.11-.1592-11.2183,5.6992-11.4108,13.085s4.6044,13.5022,10.714,13.6614" style="fill:none;stroke:#aebbc7;stroke-miterlimit:10;stroke-width:0.5px"/><path d="M277.4864,114.6484c-3.64-.1342-6.7326,3.6121-6.9079,8.3675s2.6332,8.7193,6.2731,8.8535" style="fill:none;stroke:#aebbc7;stroke-miterlimit:10;stroke-width:1.25px"/><path d="M283.489,132.1212a8.38,8.38,0,0,1-6.7762,3.3805l-87.2275-1.693a4.0659,4.0659,0,0,1-3.5642-2.4267l-4.32-9.8789a4.2358,4.2358,0,0,1,.13-3.5318l5.0347-9.5106A4.0878,4.0878,0,0,1,190.5,106.28l87.1154,4.7336a8.38,8.38,0,0,1,6.5089,3.87" style="fill:none;stroke:#aebbc7;stroke-miterlimit:10;stroke-width:1.25px"/><path d="M277.62,111.0159c-5.1754-.1908-9.5728,5.136-9.8221,11.8976s3.7442,12.3976,8.9195,12.5884" style="fill:none;stroke:#aebbc7;stroke-miterlimit:10;stroke-width:0.5px"/><polygon points="277.509 114.024 355.591 117.527 277.463 115.273 277.509 114.024 277.509 114.024" style="fill:#aebbc7"/><polygon points="276.875 131.245 354.956 134.748 276.829 132.494 276.875 131.245 276.875 131.245" style="fill:#aebbc7"/><line x1="182.4134" y1="117.2278" x2="176.9026" y2="116.6619" style="fill:none;stroke:#aebbc7;stroke-miterlimit:10;stroke-width:0.5px"/><line x1="184.6787" y1="128.541" x2="178.1542" y2="127.8732" style="fill:none;stroke:#aebbc7;stroke-miterlimit:10;stroke-width:0.5px"/><path d="M216.7484,107.9865c-3.6238-.2237-6.8379,2.3-8.5762,5.3413l-.0611-.1091,4.48.2385-4.4858-.0921-.1194-.0024c1.6833-3.2437,4.9477-5.9863,8.7806-5.8758l-.0185.5Z" style="fill:#aebbc7"/><path d="M215.77,134.541c-8.0014-.6262-11.1619-10.618-9.2056-17.3143l5.0583.2334-5.0618-.14c-1.5055,6.394,1.3533,16.237,9.2276,16.7209l-.0185.5Z" style="fill:#aebbc7"/><path d="M223.5721,108.386a8.1085,8.1085,0,0,0-4.9283,1.4134,11.7441,11.7441,0,0,0-3.5517,3.8661l-.0611-.1092,4.43.2367-4.4359-.09-.1194-.0024c1.6643-3.209,4.8928-5.9227,8.6844-5.814l-.0185.5Z" style="fill:#aebbc7"/><path d="M222.6042,134.645c-7.9135-.62-11.04-10.5033-9.1031-17.1249l5.0021.2313-5.0055-.1375c-1.4863,6.3193,1.3387,16.0542,9.125,16.5315l-.0185.5Z" style="fill:#aebbc7"/><path d="M230.3958,108.7855a8.015,8.015,0,0,0-4.8717,1.3961,11.6124,11.6124,0,0,0-3.5121,3.8215l-.0611-.1091,4.3807.2348-4.3861-.0883-.1193-.0024c1.6451-3.1743,4.8376-5.859,8.588-5.7522l-.0184.5Z" style="fill:#aebbc7"/><path d="M229.4387,134.749c-7.8255-.613-10.9183-10.3886-9-16.9355l4.9457.2292-4.9492-.1355c-1.467,6.2448,1.3241,15.8714,9.0225,16.3422l-.0186.5Z" style="fill:#aebbc7"/><path d="M237.22,109.185a7.9213,7.9213,0,0,0-4.8152,1.3789,11.4773,11.4773,0,0,0-3.4723,3.7769l-.0611-.1091,4.3307.233-4.3361-.0866-.1194-.0023c1.6261-3.14,4.7826-5.7954,8.4918-5.69l-.0184.5Z" style="fill:#aebbc7"/><path d="M236.2733,134.853c-7.7375-.6064-10.7965-10.274-8.8979-16.7462l4.8894.2272-4.8928-.1334c-1.4479,6.17,1.3094,15.6886,8.92,16.1528l-.0186.5Z" style="fill:#aebbc7"/><path d="M244.0431,109.5845a7.8271,7.8271,0,0,0-4.7585,1.3617,11.3448,11.3448,0,0,0-3.4327,3.7323l-.0611-.1091,4.2809.2311-4.2863-.0847-.1193-.0023c1.6069-3.1049,4.7275-5.7318,8.3955-5.6286l-.0185.5Z" style="fill:#aebbc7"/><path d="M243.1079,134.957c-7.65-.6-10.6747-10.1592-8.7954-16.5568l4.8331.2251-4.8365-.1313c-1.4286,6.0954,1.2949,15.5058,8.8173,15.9634l-.0185.5Z" style="fill:#aebbc7"/><path d="M250.8668,109.984a7.7332,7.7332,0,0,0-4.7019,1.3445,11.21,11.21,0,0,0-3.3931,3.6876l-.0611-.1091,4.231.2293-4.2364-.0828-.1193-.0024c1.5879-3.07,4.6725-5.668,8.2993-5.5667l-.0185.5Z" style="fill:#aebbc7"/><path d="M249.9424,135.0609c-7.5615-.5931-10.5529-10.0445-8.6927-16.3674l4.7768.223-4.78-.1292c-1.4093,6.0208,1.28,15.3231,8.7148,15.774l-.0186.5Z" style="fill:#aebbc7"/><path d="M257.6905,110.3835a7.64,7.64,0,0,0-4.6453,1.3272,11.0762,11.0762,0,0,0-3.3534,3.6431l-.0611-.1091,4.181.2274-4.1864-.081-.1193-.0022c1.5688-3.0355,4.6174-5.6045,8.2029-5.5051l-.0184.5Z" style="fill:#aebbc7"/><path d="M256.777,135.1649c-7.4736-.5865-10.4311-9.93-8.59-16.178l4.72.2209-4.7239-.1271c-1.39,5.9461,1.2655,15.14,8.6122,15.5846l-.0186.5Z" style="fill:#aebbc7"/><path d="M264.5142,110.783a7.5467,7.5467,0,0,0-4.5888,1.31,10.9445,10.9445,0,0,0-3.3137,3.5985l-.0611-.1091,4.1312.2256-4.1366-.0792-.1193-.0023c1.55-3.0008,4.5624-5.5407,8.1067-5.4432l-.0184.5Z" style="fill:#aebbc7"/><path d="M263.6116,135.2689c-7.3857-.58-10.3093-9.8151-8.4876-15.9886l4.6641.2188-4.6676-.1251c-1.3709,5.8716,1.251,14.9575,8.51,15.3953l-.0186.5Z" style="fill:#aebbc7"/><path d="M114.3643,116.8743c-.0613-2.3932-2.5937-2.6435-2.8555-.2339-.1322,2.42,2.4047,2.5833,2.8554.2338a2.3319,2.3319,0,0,1-.4026,1.3724c-1.2725,1.6636-3.1755.0875-2.9508-1.6471.2625-2.8588,3.76-2.6465,3.3535.2748Z" style="fill:#aebbc7"/><path d="M103.5,110.7016a4.09,4.09,0,0,0-2.1725-.8851l-5.0424-.3486c-2.6821-.2146-5.096,2.4407-5.3911,5.9275-.2682,3.46,1.69,6.4639,4.3719,6.6785l5.0424.3486a3.88,3.88,0,0,0,2.6285-.751" style="fill:none;stroke:#aebbc7;stroke-miterlimit:10"/><path d="M102.225,120.9636l-1.0977-.0713c-1.98-.1608-3.3938-2.3656-3.1823-4.934.21-2.5415,1.98-4.4831,3.9333-4.3234l.536.0218" style="fill:none;stroke:#aebbc7;stroke-miterlimit:10;stroke-width:0.5px"/><polyline points="99.396 109.682 98.243 107.081 93.254 106.115 84.457 106.062 79.71 115.047 83.733 124.085 88.695 125.051 97.492 125.105 98.967 122.342" style="fill:none;stroke:#aebbc7;stroke-miterlimit:10"/><polyline points="98.234 107.078 89.435 107.015 84.67 116.004 88.704 125.054" style="fill:none;stroke:#aebbc7;stroke-miterlimit:10;stroke-width:0.5px"/><path d="M101.3317,109.8138c-2.6908-.2205-5.1034,2.4234-5.3886,5.9053s1.6649,6.4831,4.3558,6.7036" style="fill:none;stroke:#aebbc7;stroke-miterlimit:10;stroke-width:0.5px"/><path d="M107.8,121.0808c-1.9741-.1617-3.4047-2.3635-3.1955-4.9179s1.9792-4.4939,3.9532-4.3322l3.6955.2466c1.9741.1617,3.4047,2.3635,3.1955,4.9179s-1.9792,4.4939-3.9532,4.3322Z" style="fill:none;stroke:#aebbc7;stroke-miterlimit:10"/><path d="M112.2536,112.0773c-1.974-.1617-3.7439,1.7779-3.9532,4.3322s1.2214,4.7562,3.1955,4.9179" style="fill:none;stroke:#aebbc7;stroke-miterlimit:10;stroke-width:0.5px"/><path d="M109.7494,111.9086a4.2762,4.2762,0,0,0-3.1381-1.9311l-.456-.0269c-2.7089-.2413-5.096,2.414-5.391,5.9007s1.6629,6.4908,4.345,6.7053l.4828.0269a4.2712,4.2712,0,0,0,3.46-1.4216" style="fill:none;stroke:#aebbc7;stroke-miterlimit:10"/><line x1="84.6704" y1="116.0036" x2="79.7096" y2="115.0467" style="fill:none;stroke:#aebbc7;stroke-miterlimit:10;stroke-width:0.5px"/></g><polygon points="146.693 111.763 130.845 111.173 130.845 104.656 119.908 116.216 130.845 128.591 130.845 122.074 146.693 122.665 146.693 111.763" style="fill:#f4ae3d;stroke:#141b21;stroke-miterlimit:10;stroke-width:1.5px"/></g></svg>
