<svg xmlns="http://www.w3.org/2000/svg" width="12" height="12" viewBox="0 0 12 12"><g id="e2777c31-1b24-4105-912e-49f71ed0b8fc" data-name="below"><circle cx="6" cy="6" r="6" style="fill:#aebbc7"/></g><g id="abafd6b2-3f3f-4c71-8512-60b8508b9414" data-name="illustration"><path d="M7.533,4.129A.832.832,0,1,0,6.7,3.3a.832.832,0,0,0,.832.832Z" style="fill:#12171d"/><path d="M4.774,6.737,3.9,6.492a.566.566,0,0,0-.68.321L2.281,8.948a.581.581,0,0,0,.289.769l.014.006a.5.5,0,0,0,.227.056.576.576,0,0,0,.528-.341l.737-1.68.983.264Z" style="fill:#12171d"/><path d="M7.267,4.81A.582.582,0,0,0,6.5,5.1L6.117,6a.4.4,0,0,1,.075.207l.36,1.664,1-2.305a.566.566,0,0,0-.276-.751Z" style="fill:#12171d"/><path d="M6.209,10.025a.261.261,0,0,1-.245-.189L5.321,7.1a.253.253,0,0,1,.492-.113l.643,2.74a.255.255,0,0,1-.188.3Z" style="fill:#12171d"/><path d="M8.459,5.036A.22.22,0,0,1,8.25,4.9a.236.236,0,0,1,.07-.326l.024-.013,1.833-1.077a.237.237,0,0,1,.328.071l.013.023a.235.235,0,0,1-.071.326l-.025.014-1.85,1.1A.231.231,0,0,1,8.459,5.036Z" style="fill:#12171d"/><path d="M3.81,1.975a1.9,1.9,0,1,0,.011,0Z" style="fill:#12171d"/></g></svg>
