<?xml version="1.0" encoding="UTF-8"?><svg id="uuid-35dce067-4953-440c-99dd-e9f31eb51d15" xmlns="http://www.w3.org/2000/svg" width="325" height="279.943" viewBox="0 0 325 279.943"><path d="m197.174,109.352l2.403-9.769c.188-.713.056-1.463-.375-2.082-.413-.6-1.088-.975-1.82-1.032-5.009-.413-16.415-1.126-34.612-1.126s-29.584.713-34.593,1.126c-.732.056-1.407.431-1.838,1.051-.413.6-.563,1.351-.356,2.064l2.401,9.764" style="fill:none; stroke:#687581; stroke-linecap:round; stroke-linejoin:round;"/><path d="m141.984,108.578v-2.439c0-.694.544-1.238,1.238-1.238h28.402c.694,0,1.238.544,1.238,1.238v2.495" style="fill:#f4ae3d; stroke-width:0px;"/><g id="uuid-10cf9392-b205-4c19-aa77-9e01598a6697"><path d="m141.484,108.578v-2.439c0-.481.19-.917.505-1.233s.752-.505,1.233-.505h28.402c.481,0,.917.19,1.233.505s.505.752.505,1.233v2.495" style="fill:none; stroke:#aebbc7; stroke-linecap:round; stroke-linejoin:round; stroke-width:.5px;"/><path d="m141.734,108.578v-2.439c0-.414.163-.787.432-1.056s.642-.432,1.056-.432h28.402c.414,0,.787.163,1.056.432s.432.642.432,1.056v2.495" style="fill:none; stroke:#aebbc7; stroke-linecap:round; stroke-linejoin:round; stroke-width:.5px;"/></g><path d="m141.984,108.578v-2.439c0-.694.544-1.238,1.238-1.238h28.402c.694,0,1.238.544,1.238,1.238v2.495" style="fill:none; stroke:#aebbc7; stroke-linecap:round; stroke-linejoin:round; stroke-width:.5px;"/><line x1="127.8" y1="98.448" x2="140.681" y2="104.579" style="fill:none; stroke:#687581; stroke-linecap:round; stroke-linejoin:round; stroke-width:.5px;"/><line x1="197.695" y1="98.548" x2="174.154" y2="104.683" style="fill:none; stroke:#687581; stroke-linecap:round; stroke-linejoin:round; stroke-width:.5px;"/><path d="m85.314,210.687c0-20.591-5.925-22.681-9.049-22.681-5.657,0-9.05,11.156-9.05,18.197" style="fill:none; stroke:#687581; stroke-linecap:round; stroke-linejoin:round; stroke-width:.5px;"/><line x1="67.871" y1="172.682" x2="36.323" y2="185.049" style="fill:none; stroke:#687581; stroke-linecap:round; stroke-linejoin:round; stroke-width:.5px;"/><path d="m36.323,186.735l-2.977-119.685c-.095-3.768,1.198-7.466,3.693-10.563l5.941-7.375c.69-.857,1.167-1.828,1.398-2.852l7.938-35.064" style="fill:none; stroke:#687581; stroke-linecap:round; stroke-linejoin:round; stroke-width:.5px;"/><path d="m42.856,56.935l5.652,3.72c.587.386.932.986.932,1.623v11.731c0,.829.583,1.577,1.475,1.891l3.938,1.387c.884.311,1.465,1.048,1.475,1.869l.287,23.72c.006.471-.178.929-.52,1.297l-3.324,3.576c-.337.362-.52.812-.52,1.276v18.189c0,.222-.106.434-.292.588s-.438.234-.695.224l-4.56-.181c-2.609-.104-4.699-1.899-4.823-4.144l-3.337-60.054c-.023-.411.099-.818.349-1.168l3.963-5.543Z" style="fill:none; stroke:#687581; stroke-linecap:round; stroke-linejoin:round; stroke-width:.5px;"/><line x1="38.819" y1="54.278" x2="42.856" y2="56.935" style="fill:none; stroke:#687581; stroke-linecap:round; stroke-linejoin:round; stroke-width:.5px;"/><path d="m54.853,77.285c31.441,8.398,57.467,10.011,107.646,10.011" style="fill:none; stroke:#687581; stroke-linecap:round; stroke-linejoin:round; stroke-width:.5px;"/><path d="m310.02,11.211l-.817,15.748c-.911,25.758,1.692,29.19,1.962,47.077.152,10.096-.508,30.156-.296,48.085.35,29.663-1.729,81.026-6.096,103.068-4.367,22.042-5.766,23.812-19.755,30.568-36.599,17.676-52.611,21.821-122.517,21.821-69.906,0-85.918-4.145-122.517-21.821-13.989-6.756-15.388-8.526-19.755-30.568-4.367-22.042-6.446-73.406-6.096-103.068.212-17.928-.448-37.989-.296-48.085.27-17.887,2.872-21.319,1.962-47.077l-.817-15.748" style="fill:none; stroke:#687581; stroke-linecap:round; stroke-linejoin:round; stroke-width:1.5px;"/><path d="m67.213,206.204c-3.184-1.232-6.221-2.737-9.089-4.512-6.559-4.058-12.438-8.069-16.77-11.136-5.63-3.986-10.382-8.69-14.157-14.057-3.605-5.125-6.141-9.63-7.822-12.979-1.782-3.551-2.792-7.402-2.976-11.266" style="fill:none; stroke:#687581; stroke-linecap:round; stroke-linejoin:round; stroke-width:.5px;"/><path d="m239.685,210.687c-15.693,2.796-41.004,5.812-77.185,5.812-36.181,0-61.492-3.016-77.185-5.812" style="fill:none; stroke:#687581; stroke-linecap:round; stroke-linejoin:round; stroke-width:.5px;"/><path d="m237.537,221.318c-15.815,2.685-40.463,5.438-75.038,5.438-34.574,0-59.222-2.754-75.037-5.438" style="fill:none; stroke:#687581; stroke-linecap:round; stroke-linejoin:round; stroke-width:.5px;"/><path d="m258.292,267.581c7.798-2.183,12.477-6.677,16.22-10.576,3.743-3.899,7.33-7.798,11.385-12.165,4.055-4.367,4.367-6.238,4.367-8.734,0-2.495,0-5.298,0-7.059s-1.716-2.378-10.293,1.766c-5.303,2.562-31.534,18.498-115.783,18.498-84.251,0-110.482-15.937-115.783-18.498-8.578-4.144-10.293-3.527-10.293-1.766v7.059c0,2.495.312,4.367,4.367,8.734s7.642,8.266,11.385,12.165c3.743,3.899,8.422,8.392,16.22,10.576" style="fill:none; stroke:#687581; stroke-linecap:round; stroke-linejoin:round; stroke-width:.5px;"/><path d="m234.048,225.019v9.105c0,3.139-2.317,5.799-5.425,6.24-16.316,2.316-37.386,3.959-64.437,3.959h.002c-27.051,0-48.121-1.644-64.437-3.959-3.108-.441-5.425-3.101-5.425-6.24v-9.105" style="fill:none; stroke:#687581; stroke-linecap:round; stroke-linejoin:round; stroke-width:.5px;"/><path d="m309.691,152.253c-.184,3.864-2.286,7.716-4.068,11.266-1.681,3.349-4.217,7.854-7.822,12.979-3.775,5.367-8.527,10.072-14.157,14.057-4.332,3.067-10.212,7.078-16.77,11.136-2.868,1.775-5.905,3.28-9.089,4.512" style="fill:none; stroke:#687581; stroke-linecap:round; stroke-linejoin:round; stroke-width:.5px;"/><path d="m162.5,109.201c45.791,0,74.155.711,89.887,1.307,5.305.202,10.236,2.389,13.526,6.001,3.283,3.6,4.577,8.239,3.548,12.728l-8.234,35.873c-.941,4.106-3.562,7.796-7.381,10.387l-18.93,12.85c-3.538,2.401-7.756,4.01-12.197,4.653l-33.618,4.87c-.361.052-.723.079-1.084.079-1.286,0-2.546-.33-3.632-.961l-3.476-2.029c-.611-.355-1.324-.543-2.06-.543h-16.348s-.001,0-.001,0h-16.348c-.736,0-1.449.188-2.06.543l-3.476,2.029c-1.086.631-2.346.961-3.632.961-.361,0-.723-.027-1.084-.079l-33.618-4.87c-4.441-.643-8.658-2.251-12.197-4.653l-18.93-12.85c-3.819-2.592-6.44-6.281-7.381-10.387l-8.234-35.873c-1.029-4.489.264-9.128,3.548-12.728,3.291-3.611,8.222-5.799,13.526-6.001,15.731-.596,44.096-1.307,89.887-1.307" style="fill:none; stroke:#687581; stroke-linecap:round; stroke-linejoin:round; stroke-width:.5px;"/><path d="m162.499,111.626c45.74,0,74.061.71,89.763,1.306,4.483.171,8.651,2.02,11.435,5.074,2.775,3.045,3.87,6.966,3.001,10.762l-8.234,35.873c-.813,3.54-3.073,6.719-6.363,8.953l-18.932,12.85c-3.166,2.149-6.941,3.59-10.916,4.166l-33.618,4.87c-.943.133-1.884-.044-2.671-.5l-3.476-2.029c-1.082-.628-2.339-.96-3.639-.96h-16.348s-16.348,0-16.348,0c-1.301,0-2.557.332-3.639.96l-3.476,2.029c-.787.456-1.728.633-2.671.5l-33.618-4.87c-3.975-.576-7.75-2.017-10.916-4.166l-18.932-12.85c-3.291-2.234-5.551-5.414-6.363-8.953l-8.234-35.873c-.869-3.795.226-7.717,3.001-10.762,2.785-3.054,6.952-4.904,11.435-5.074,15.702-.596,44.023-1.306,89.763-1.306Z" style="fill:none; stroke:#687581; stroke-linecap:round; stroke-linejoin:round; stroke-width:.5px;"/><path d="m258.464,164.077c-.499,4.615-3.966,8.284-7.812,10.574,0,0-11.038,7.515-11.038,7.515l-5.519,3.757c-3.662,2.637-8.112,4.272-12.579,4.811,0,0-6.607.967-6.607.967l-26.462,3.862c-.632.056-1.279-.012-1.891-.206-2.354-.884-4.739-3.289-7.393-3.285-8.201.002-21.793.021-30.016-.007,0,0-3.31.003-3.31.003-1.938-.061-4.179,1.583-5.788,2.476-1.019.673-2.258,1.161-3.495,1.012-4.683-.688-28.863-4.216-33.067-4.837-4.465-.54-8.912-2.174-12.571-4.811,0,0-5.518-3.759-5.518-3.759l-11.036-7.517c-3.834-2.289-7.315-5.949-7.825-10.554,1.409,4.311,4.617,7.42,8.391,9.721,0,0,11.061,7.481,11.061,7.481l5.53,3.74c3.596,2.559,7.753,4.067,12.128,4.593,4.05.57,28.377,4.065,33.011,4.719.996.126,1.958-.33,2.768-.86,1.83-1.059,4.165-2.707,6.354-2.665,0,0,3.367-.015,3.367-.015,8.263-.024,21.834-.026,30.073.01,2.489-.018,4.99,1.942,7.074,3.083.615.353,1.337.5,2.048.439l26.401-3.78c3.685-.601,9.496-1.056,12.965-2.481,3.746-1.274,7.991-4.67,11.294-6.803,0,0,11.059-7.484,11.059-7.484,3.768-2.302,6.979-5.4,8.405-9.701h0Z" style="fill:#687581; stroke-width:0px;"/><path d="m239.685,210.687c0-20.591,5.925-22.681,9.049-22.681,5.657,0,9.05,11.156,9.05,18.197" style="fill:none; stroke:#687581; stroke-linecap:round; stroke-linejoin:round; stroke-width:.5px;"/><line x1="257.128" y1="172.682" x2="288.676" y2="185.049" style="fill:none; stroke:#687581; stroke-linecap:round; stroke-linejoin:round; stroke-width:.5px;"/><path d="m282.142,56.935l-5.652,3.72c-.587.386-.932.986-.932,1.623v11.731c0,.829-.583,1.577-1.475,1.891l-3.938,1.387c-.884.311-1.465,1.048-1.475,1.869l-.287,23.72c-.006.471.178.929.52,1.297l3.324,3.576c.337.362.52.812.52,1.276v18.189c0,.222.106.434.292.588s.438.234.695.224l4.56-.181c2.609-.104,4.699-1.899,4.823-4.144l3.337-60.054c.023-.411-.099-.818-.349-1.168l-3.963-5.543Z" style="fill:none; stroke:#687581; stroke-linecap:round; stroke-linejoin:round; stroke-width:.5px;"/><line x1="286.18" y1="54.278" x2="282.142" y2="56.935" style="fill:none; stroke:#687581; stroke-linecap:round; stroke-linejoin:round; stroke-width:.5px;"/><path d="m270.146,77.285c-31.441,8.398-57.467,10.011-107.646,10.011" style="fill:none; stroke:#687581; stroke-linecap:round; stroke-linejoin:round; stroke-width:.5px;"/><path d="m268.645,81.332c-30.777,8.052-56.767,9.614-106.145,9.614-56.205,0-77.04-2.306-106.145-9.598" style="fill:none; stroke:#687581; stroke-linecap:round; stroke-linejoin:round; stroke-width:.5px;"/><path d="m164.165,204.493c0,.791-.745,1.433-1.665,1.433s-1.665-.642-1.665-1.433v-5.46c0-.791.745-1.433,1.665-1.433s1.665.642,1.665,1.433v5.46Z" style="fill:none; stroke:#687581; stroke-linecap:round; stroke-linejoin:round; stroke-width:.5px;"/><path d="m184.988,199.565c-3.303,6.751-5.76,10.332-7.047,11.984-.578.741-1.551,1.187-2.588,1.187h-12.852s0,0,0,0h-12.852c-1.037,0-2.011-.446-2.588-1.187-1.287-1.652-3.745-5.233-7.047-11.984" style="fill:none; stroke:#687581; stroke-linecap:round; stroke-linejoin:round; stroke-width:.5px;"/><line x1="55.34" y1="128.187" x2="51.264" y2="128.025" style="fill:none; stroke:#687581; stroke-linecap:round; stroke-linejoin:round; stroke-width:.5px;"/><line x1="269.659" y1="128.187" x2="273.735" y2="128.025" style="fill:none; stroke:#687581; stroke-linecap:round; stroke-linejoin:round; stroke-width:.5px;"/><path d="m54.563,163.056c0,2.28-1.634,4.219-3.963,5.012v1.617h-4.564v-1.617c-2.31-.776-3.963-2.732-3.963-5.012s1.653-4.236,3.963-5.012v-2.247h4.564v2.247c2.329.792,3.963,2.732,3.963,5.012Z" style="fill:none; stroke:#687581; stroke-linecap:round; stroke-linejoin:round; stroke-width:.5px;"/><line x1="16.31" y1="44.157" x2="19.949" y2="164.642" style="fill:none; stroke:#687581; stroke-linecap:round; stroke-linejoin:round; stroke-width:.5px;"/><line x1="308.69" y1="44.157" x2="305.051" y2="164.642" style="fill:none; stroke:#687581; stroke-linecap:round; stroke-linejoin:round; stroke-width:.5px;"/><path d="m43.321,48.382c-4.612-2.026-7.247-10.08-7.544-16.434-.165-3.518-.729-10.845-1.028-20.57" style="fill:none; stroke:#687581; stroke-linecap:round; stroke-linejoin:round; stroke-width:.5px;"/><path d="m288.636,186.634l3.017-119.583c.095-3.768-1.198-7.466-3.693-10.563l-5.941-7.375c-.69-.857-1.167-1.828-1.398-2.852l-7.938-35.064" style="fill:none; stroke:#687581; stroke-linecap:round; stroke-linejoin:round; stroke-width:.5px;"/><path d="m281.678,48.382c4.612-2.026,7.247-10.08,7.544-16.434.143-3.042.61-8.931.891-16.757" style="fill:none; stroke:#687581; stroke-linecap:round; stroke-linejoin:round; stroke-width:.5px;"/><line x1="289.222" y1="32.109" x2="284.035" y2="11.912" style="fill:none; stroke:#687581; stroke-linecap:round; stroke-linejoin:round; stroke-width:.5px;"/><line x1="35.777" y1="32.109" x2="40.58" y2="13.405" style="fill:none; stroke:#687581; stroke-linecap:round; stroke-linejoin:round; stroke-width:.5px;"/><path d="m65.428,210.818c0-5.177,4.933-8.02,11.017-6.35,6.085,1.67,11.017,7.22,11.017,12.397v14.784c0,12.312-22.035,8.669-22.035-3.79v-17.041Z" style="fill:none; stroke:#687581; stroke-linecap:round; stroke-linejoin:round; stroke-width:.5px;"/><path d="m65.428,215.519c0-12.312,22.035-8.669,22.035,3.79" style="fill:none; stroke:#687581; stroke-linecap:round; stroke-linejoin:round; stroke-width:.5px;"/><path d="m68.054,216.457c0-1.596.493-2.759,1.508-3.56,1.002-.791,2.525-1.226,4.285-1.226,4.45,0,10.615,2.979,10.615,8.576v12.34c0,4.164-3.629,4.785-5.793,4.785-4.45,0-10.615-2.981-10.615-8.576v-12.34Z" style="fill:none; stroke:#687581; stroke-linecap:round; stroke-linejoin:round; stroke-width:.5px;"/><path d="m256.945,216.457c0-1.596-.493-2.759-1.508-3.56-1.002-.791-2.525-1.226-4.285-1.226-4.45,0-10.615,2.979-10.615,8.576v12.34c0,4.164,3.629,4.785,5.793,4.785,4.45,0,10.615-2.981,10.615-8.576v-12.34Z" style="fill:none; stroke:#687581; stroke-linecap:round; stroke-linejoin:round; stroke-width:.5px;"/><path d="m259.572,210.818c0-5.177-4.933-8.02-11.017-6.35-6.085,1.67-11.017,7.22-11.017,12.397v14.784c0,12.312,22.035,8.669,22.035-3.79v-17.041Z" style="fill:none; stroke:#687581; stroke-linecap:round; stroke-linejoin:round; stroke-width:.5px;"/><path d="m259.572,215.519c0-12.312-22.035-8.669-22.035,3.79" style="fill:none; stroke:#687581; stroke-linecap:round; stroke-linejoin:round; stroke-width:.5px;"/><path d="m65.428,217.495c-11.929-5.615-25.237-15.18-30.332-19.027-5.095-3.847-8.491-8.861-8.82-23.302" style="fill:none; stroke:#687581; stroke-linecap:round; stroke-linejoin:round; stroke-width:.5px;"/><path d="m259.572,217.495c11.929-5.615,25.237-15.18,30.332-19.027,5.095-3.847,8.491-8.861,8.82-23.302" style="fill:none; stroke:#687581; stroke-linecap:round; stroke-linejoin:round; stroke-width:.5px;"/><path d="m15.656,180.908c.593,8.964,3.415,22.101,4.818,28.224.5,2.181,1.498,4.233,2.915,5.965l10.351,12.652c.408.499.966.855,1.59,1.016l2.781.715s7.59,8.395,14.452,15.985c6.862,7.59,9.771,9.685,24.642,12.269,34.103,5.927,55.018,7.174,86.982,7.174" style="fill:none; stroke:#687581; stroke-linecap:round; stroke-linejoin:round; stroke-width:.5px;"/><path d="m309.343,180.908c-.593,8.964-3.415,22.101-4.818,28.224-.5,2.181-1.498,4.233-2.915,5.965l-10.351,12.652c-.286.35-.645.629-1.049.82" style="fill:none; stroke:#687581; stroke-linecap:round; stroke-linejoin:round; stroke-width:.5px;"/><path d="m289.904,198.467s.552,12.685,1.176,16.22,1.872,3.535,4.263,1.04c2.391-2.495,6.446-8.214,7.902-10.501,1.456-2.287,4.373-10.825,4.908-14.449" style="fill:none; stroke:#687581; stroke-linecap:round; stroke-linejoin:round; stroke-width:.5px;"/><path d="m64.84,157.26c.512-10.467,11.203-11.421,22.017,16.86" style="fill:none; stroke:#687581; stroke-linecap:round; stroke-linejoin:round; stroke-width:.5px;"/><path d="m87.357,183.407l.442-7.348h18.197c.493,0,.966.198,1.312.548s.538.826.531,1.319l-.071,5.464" style="fill:none; stroke:#687581; stroke-linecap:round; stroke-linejoin:round; stroke-width:.5px;"/><path d="m260.157,157.26c-.512-10.467-11.203-11.421-22.017,16.86" style="fill:none; stroke:#687581; stroke-linecap:round; stroke-linejoin:round; stroke-width:.5px;"/><path d="m237.641,183.407l-.442-7.348h-18.197c-.493,0-.966.198-1.312.548s-.538.826-.531,1.319l.071,5.464" style="fill:none; stroke:#687581; stroke-linecap:round; stroke-linejoin:round; stroke-width:.5px;"/><path d="m195.515,183.391l-2.535-27.291c-.291-3.137-2.891-5.561-6.041-5.622-6.55-.127-17.453-.315-24.441-.315-10.536,0-24.405.349-24.405.349-3.166.045-5.788,2.47-6.08,5.622l-2.531,27.257" style="fill:none; stroke:#687581; stroke-linecap:round; stroke-linejoin:round; stroke-width:.5px;"/><path d="m262.798,145.753c1.525-6.643-1.523-14.92-18.957-16.412-21.367-1.829-50.392-2.591-81.342-2.591-30.95,0-59.975.762-81.342,2.591-17.435,1.493-20.482,9.77-18.957,16.412" style="fill:none; stroke:#687581; stroke-linecap:round; stroke-linejoin:round; stroke-width:.5px;"/><path d="m207.095,91.805h9.826c1.42,0,2.573,1.153,2.573,2.573v15.051h-14.972v-15.051c0-1.42,1.153-2.573,2.573-2.573Z" style="fill:none; stroke:#687581; stroke-linecap:round; stroke-linejoin:round; stroke-width:.5px;"/><ellipse cx="211.614" cy="98.375" rx="4.057" ry="3.239" style="fill:none; stroke:#687581; stroke-linecap:round; stroke-linejoin:round; stroke-width:.5px;"/><path d="m269.844,54.636l-.17,8.079c-10.994,4.755-23.48,7.683-37.375,9.483-.497.064-.949.321-1.26.714l-4.197,5.321c-.322.408-.796.668-1.312.72-3.667.373-7.425.679-11.272.931-.595.039-1.175-.201-1.569-.649l-3.76-4.287c-.385-.439-.952-.679-1.536-.651-9.884.479-20.325.659-31.3.723-.506.003-.99.206-1.347.564l-3.721,3.733c-.359.36-.846.563-1.354.564-2.367.005-4.757.007-7.171.007-2.414,0-4.805-.002-7.171-.007-.508-.001-.995-.204-1.354-.564l-3.721-3.733c-.357-.358-.841-.561-1.347-.564-10.975-.064-21.416-.244-31.3-.723-.584-.028-1.151.212-1.536.651l-3.76,4.287c-.393.449-.973.688-1.569.649-3.848-.252-7.606-.558-11.272-.931-.517-.053-.991-.313-1.312-.72l-4.197-5.321c-.31-.394-.762-.65-1.26-.714-13.895-1.8-26.381-4.728-37.375-9.483l-.17-8.079" style="fill:none; stroke:#687581; stroke-linecap:round; stroke-linejoin:round; stroke-width:.5px;"/><path d="m281.678,48.382c-28.006,17.833-68.374,18.665-119.178,18.665-50.804,0-91.172-.832-119.178-18.665" style="fill:none; stroke:#687581; stroke-linecap:round; stroke-linejoin:round; stroke-width:.5px;"/><path d="m257.462,95.418c.41.33.599.777.566,1.218-.028.369-.211.733-.55,1.02l-4.538,3.84c-.745.63-1.959.65-2.712.044l-1.32-1.061c-.41-.33-.599-.777-.566-1.218.028-.369.211-.733.55-1.02l4.538-3.84c.745-.63,1.959-.65,2.712-.044l1.32,1.061Z" style="fill:none; stroke:#687581; stroke-linecap:round; stroke-linejoin:round; stroke-width:.5px;"/><path d="m248.341,99.261l.535-6.353c.028-.369.211-.733.55-1.02l4.538-3.84c.745-.63,1.959-.65,2.712-.044l1.32,1.061c.41.33.599.777.566,1.218l-.535,6.353" style="fill:none; stroke:#687581; stroke-linecap:round; stroke-linejoin:round; stroke-width:.5px;"/><path d="m264.529,98.457c.41.33.599.777.566,1.218-.028.369-.211.733-.55,1.02l-4.538,3.84c-.745.63-1.959.65-2.712.044l-1.32-1.061c-.41-.33-.599-.777-.566-1.218.028-.369.211-.733.55-1.02l4.538-3.84c.745-.63,1.959-.65,2.712-.044l1.32,1.061Z" style="fill:none; stroke:#687581; stroke-linecap:round; stroke-linejoin:round; stroke-width:.5px;"/><path d="m258.3,93.399l2.732-2.312c.745-.63,1.959-.65,2.712-.044l1.32,1.061c.41.33.599.777.566,1.218l-.535,6.353" style="fill:none; stroke:#687581; stroke-linecap:round; stroke-linejoin:round; stroke-width:.5px;"/><line x1="255.409" y1="102.3" x2="255.671" y2="99.184" style="fill:none; stroke:#687581; stroke-linecap:round; stroke-linejoin:round; stroke-width:.5px;"/><path d="m67.536,95.418c-.41.33-.599.777-.566,1.218.028.369.211.733.55,1.02l4.538,3.84c.745.63,1.959.65,2.712.044l1.32-1.061c.41-.33.599-.777.566-1.218-.028-.369-.211-.733-.55-1.02l-4.538-3.84c-.745-.63-1.959-.65-2.712-.044l-1.32,1.061Z" style="fill:none; stroke:#687581; stroke-linecap:round; stroke-linejoin:round; stroke-width:.5px;"/><path d="m76.656,99.261l-.535-6.353c-.028-.369-.211-.733-.55-1.02l-4.538-3.84c-.745-.63-1.959-.65-2.712-.044l-1.32,1.061c-.41.33-.599.777-.566,1.218l.535,6.353" style="fill:none; stroke:#687581; stroke-linecap:round; stroke-linejoin:round; stroke-width:.5px;"/><path d="m60.468,98.457c-.41.33-.599.777-.566,1.218.028.369.211.733.55,1.02l4.538,3.84c.745.63,1.959.65,2.712.044l1.32-1.061c.41-.33.599-.777.566-1.218-.028-.369-.211-.733-.55-1.02l-4.538-3.84c-.745-.63-1.959-.65-2.712-.044l-1.32,1.061Z" style="fill:none; stroke:#687581; stroke-linecap:round; stroke-linejoin:round; stroke-width:.5px;"/><path d="m66.697,93.399l-2.732-2.312c-.745-.63-1.959-.65-2.712-.044l-1.32,1.061c-.41.33-.599.777-.566,1.218l.535,6.353" style="fill:none; stroke:#687581; stroke-linecap:round; stroke-linejoin:round; stroke-width:.5px;"/><line x1="69.588" y1="102.3" x2="69.326" y2="99.184" style="fill:none; stroke:#687581; stroke-linecap:round; stroke-linejoin:round; stroke-width:.5px;"/><polyline points="77.191 85.902 77.191 87.245 79.347 91.537 86.979 92.43 90.018 89.54 90.018 87.866" style="fill:none; stroke:#687581; stroke-linecap:round; stroke-linejoin:round; stroke-width:.5px;"/><polyline points="247.807 85.902 247.807 87.245 245.65 91.537 238.018 92.43 234.98 89.54 234.98 87.866" style="fill:none; stroke:#687581; stroke-linecap:round; stroke-linejoin:round; stroke-width:.5px;"/><ellipse cx="241.623" cy="89.306" rx="1.481" ry="1.197" transform="translate(-9.445 31.668) rotate(-7.355)" style="fill:none; stroke:#687581; stroke-linecap:round; stroke-linejoin:round; stroke-width:.5px;"/><ellipse cx="83.375" cy="89.306" rx="1.197" ry="1.481" transform="translate(-15.87 160.562) rotate(-82.645)" style="fill:none; stroke:#687581; stroke-linecap:round; stroke-linejoin:round; stroke-width:.5px;"/><path d="m100.008,90.951c.728,3.639,3.847,16.532,3.847,16.532" style="fill:none; stroke:#687581; stroke-linecap:round; stroke-linejoin:round; stroke-width:.5px;"/><line x1="63.853" y1="103.572" x2="64.209" y2="110.609" style="fill:none; stroke:#687581; stroke-linecap:round; stroke-linejoin:round; stroke-width:.5px;"/><ellipse cx="92.762" cy="102.21" rx="2.939" ry="4.055" transform="translate(-33.262 158.511) rotate(-71.847)" style="fill:none; stroke:#687581; stroke-linecap:round; stroke-linejoin:round; stroke-width:.5px;"/><path d="m106.526,105.827h3.431c1.557,0,2.819-1.117,2.819-2.495s-1.262-2.495-2.819-2.495h-4.575" style="fill:none; stroke:#687581; stroke-linecap:round; stroke-linejoin:round; stroke-width:.5px;"/><ellipse cx="233.514" cy="102.099" rx="4.647" ry="3.563" transform="translate(-19.353 70.3) rotate(-16.449)" style="fill:none; stroke:#687581; stroke-linecap:round; stroke-linejoin:round; stroke-width:.5px;"/><path d="m290.264,229.478s-7.59,8.395-14.452,15.985c-6.862,7.59-9.771,9.685-24.642,12.269-34.103,5.927-55.018,7.174-86.982,7.174" style="fill:none; stroke:#687581; stroke-linecap:round; stroke-linejoin:round; stroke-width:.5px;"/><path d="m283.326,229.282c-2.69,6.504-15.091,10.967-24.59,16.037l-12.808,3.017-3.06-.723-.007-.044c-18.862,2.883-44.396,5.444-78.673,5.444s-59.811-2.561-78.673-5.444l-.007.044-3.06.723-12.808-3.017c-9.5-5.07-21.901-9.533-24.59-16.037" style="fill:none; stroke:#687581; stroke-linecap:round; stroke-linejoin:round; stroke-width:.5px;"/><line x1="85.508" y1="247.613" x2="85.463" y2="242.945" style="fill:none; stroke:#687581; stroke-linecap:round; stroke-linejoin:round; stroke-width:.5px;"/><line x1="69.64" y1="245.319" x2="69.226" y2="239.039" style="fill:none; stroke:#687581; stroke-linecap:round; stroke-linejoin:round; stroke-width:.5px;"/><line x1="242.868" y1="247.613" x2="242.912" y2="242.945" style="fill:none; stroke:#687581; stroke-linecap:round; stroke-linejoin:round; stroke-width:.5px;"/><line x1="258.736" y1="245.319" x2="259.15" y2="239.039" style="fill:none; stroke:#687581; stroke-linecap:round; stroke-linejoin:round; stroke-width:.5px;"/><path d="m170.705,185.263l-2.087-23.537c-.04-.449-.416-.793-.866-.793h-5.252s-5.252,0-5.252,0c-.45,0-.826.344-.866.793l-2.087,23.537" style="fill:none; stroke:#687581; stroke-linecap:round; stroke-linejoin:round; stroke-width:.5px;"/><polyline points="107.768 191.337 107.768 183.391 129.482 183.391 132.809 185.263 154.295 185.263 155.958 186.406 162.5 186.406 169.042 186.406 170.705 185.263 192.188 185.263 195.515 183.391 217.23 183.391 217.23 191.337" style="fill:none; stroke:#687581; stroke-linecap:round; stroke-linejoin:round; stroke-width:.5px;"/><path d="m72.612,110.508c-5.305.202-10.236,2.389-13.526,6.001-3.028,3.319-4.363,7.523-3.746,11.678l-8.636-.343s-4.625-.581-4.823-4.144l-3.383-60.885,4.359-5.879,5.652,3.72s.932.754.932,1.623v11.731c0,.861.602,1.583,1.475,1.891,1.313.462,2.593,1.027,3.938,1.387,31.441,8.398,57.467,10.011,107.646,10.011,50.179,0,76.206-1.613,107.646-10.011,1.345-.359,2.625-.924,3.938-1.387.873-.307,1.475-1.03,1.475-1.891,0,0,0-10.862,0-11.731,0-.869.932-1.623.932-1.623l5.652-3.72,4.359,5.879-3.383,60.885c-.198,3.564-4.823,4.144-4.823,4.144l-8.636.343c.618-4.155-.718-8.358-3.746-11.678-3.291-3.611-8.222-5.799-13.526-6.001-15.731-.596-44.097-1.307-89.887-1.307-45.791,0-74.156.711-89.887,1.307Z" style="fill:none; stroke:#687581; stroke-linecap:round; stroke-linejoin:round; stroke-width:.5px;"/><g id="uuid-bbe2cd0d-2468-49e7-b6e1-53874f907079"><path d="m162.499,108.701c45.796,0,74.168.711,89.907,1.308,2.836.108,5.57.77,8.017,1.907,2.239,1.04,4.24,2.479,5.86,4.256,1.608,1.763,2.757,3.773,3.406,5.899.552,1.81.74,3.702.541,5.593l2.018-.08v-18.56c0-.329-.129-.659-.386-.936l-3.324-3.576c-.423-.455-.661-1.035-.654-1.644l.253-20.878c-28.836,7.182-49.819,9.455-105.637,9.455-55.819,0-76.802-2.273-105.637-9.455l.253,20.878c.007.609-.231,1.189-.654,1.644l-3.324,3.576c-.257.276-.386.607-.386.936v18.56l2.018.08c-.199-1.891-.011-3.783.541-5.593.648-2.126,1.798-4.136,3.406-5.899,1.62-1.777,3.621-3.216,5.86-4.256,2.448-1.137,5.181-1.799,8.017-1.907,15.739-.596,44.111-1.308,89.906-1.308Z" style="fill:none; stroke:#aebbc7; stroke-linecap:round; stroke-linejoin:round; stroke-width:.5px;"/><path d="m162.499,108.951c45.793,0,74.162.711,89.897,1.307,2.803.107,5.504.761,7.921,1.884,2.211,1.027,4.185,2.447,5.78,4.198,1.584,1.737,2.714,3.714,3.351,5.804.57,1.87.745,3.828.498,5.781l2.55-.101v-18.8c0-.396-.156-.787-.453-1.106l-3.324-3.576c-.383-.412-.593-.931-.587-1.471l.257-21.202c-28.97,7.237-49.879,9.526-105.891,9.526-56.012,0-76.921-2.29-105.891-9.526l.257,21.202c.007.54-.204,1.059-.587,1.471l-3.324,3.576c-.297.319-.453.71-.453,1.106v18.8l2.55.101c-.247-1.953-.072-3.911.498-5.781.637-2.089,1.767-4.067,3.351-5.804,1.596-1.751,3.57-3.171,5.78-4.198,2.417-1.123,5.118-1.778,7.921-1.884,15.735-.596,44.104-1.307,89.897-1.307Z" style="fill:none; stroke:#aebbc7; stroke-linecap:round; stroke-linejoin:round; stroke-width:.5px;"/></g><path d="m162.499,109.201c45.791,0,74.156.711,89.887,1.307,5.305.202,10.236,2.389,13.526,6.001,3.028,3.319,4.363,7.523,3.746,11.678l3.089-.123v-19.04c0-.464-.183-.914-.52-1.276l-3.324-3.576c-.342-.368-.526-.826-.52-1.297l.261-21.526c-29.106,7.292-49.94,9.598-106.145,9.598-56.205,0-77.04-2.306-106.145-9.598l.261,21.526c.006.471-.178.929-.52,1.297l-3.324,3.576c-.337.362-.52.812-.52,1.276v19.04l3.089.123c-.618-4.155.718-8.358,3.746-11.678,3.291-3.611,8.222-5.799,13.526-6.001,15.731-.596,44.097-1.307,89.887-1.307Z" style="fill:none; stroke:#aebbc7; stroke-linecap:round; stroke-linejoin:round; stroke-width:.5px;"/><path d="m274.448,56.721v19.332l-.76,1.041-3.114.122c.628-4.174-.722-8.404-3.771-11.744-3.32-3.63-8.292-5.825-13.648-6.031-15.862-.6-44.47-1.313-90.657-1.313s-74.786.713-90.657,1.313c-5.347.206-10.327,2.401-13.638,6.031-3.058,3.339-4.409,7.57-3.78,11.744l-3.114-.122-.75-1.041v-19.332c0-.478.178-.929.525-1.304l3.377-3.63c.347-.366.535-.835.525-1.313l-.31-25.588c31.273,8.179,57.659,9.774,107.823,9.774s76.559-1.595,107.823-9.774l-.31,25.588c0,.478.188.947.535,1.313l3.367,3.63c.347.375.535.825.535,1.304Z" style="fill:none; stroke:#141b21; stroke-linecap:round; stroke-linejoin:round; stroke-width:1.5px;"/><path d="m162.499,37.157c-37.758,0-56.887-.711-63.877-1.051-.714-.035-1.402.238-1.834.728s-.553,1.134-.322,1.716l4.418,11.141c.871,2.196,2.879,3.487,6.519,3.487,12.244,0,42.941.436,55.097.436h.001c12.156,0,42.853-.436,55.097-.436,3.639,0,5.648-1.291,6.519-3.487.871-2.196,4.418-11.141,4.418-11.141.231-.583.11-1.226-.322-1.716s-1.12-.763-1.834-.728c-6.991.34-26.119,1.051-63.877,1.051Z" style="fill:none; stroke:#141b21; stroke-linecap:round; stroke-linejoin:round; stroke-width:1.5px;"/><line x1="199" y1="36.89" x2="194.402" y2="53.406" style="fill:none; stroke:#141b21; stroke-linecap:round; stroke-linejoin:round; stroke-width:1.5px;"/><line x1="125.998" y1="36.89" x2="130.597" y2="53.406" style="fill:none; stroke:#141b21; stroke-linecap:round; stroke-linejoin:round; stroke-width:1.5px;"/><path d="m221.132,38.236c-6.595.308-26.414.979-58.633.979-32.218,0-52.038-.671-58.632-.979" style="fill:none; stroke:#141b21; stroke-linecap:round; stroke-linejoin:round; stroke-width:1.5px;"/><path d="m220.536,40.365c-6.707.276-28.611.907-58.037.907-29.426,0-51.329-.63-58.037-.907" style="fill:none; stroke:#141b21; stroke-linecap:round; stroke-linejoin:round; stroke-width:1.5px;"/><path d="m219.941,42.494c-6.82.245-30.807.835-57.441.835-26.634,0-50.621-.59-57.441-.835" style="fill:none; stroke:#141b21; stroke-linecap:round; stroke-linejoin:round; stroke-width:1.5px;"/><path d="m219.345,44.623c-6.933.213-33.004.763-56.845.763-23.842,0-49.912-.55-56.845-.763" style="fill:none; stroke:#141b21; stroke-linecap:round; stroke-linejoin:round; stroke-width:1.5px;"/><path d="m218.749,46.753c-7.046.181-35.2.69-56.249.69-21.049,0-49.204-.51-56.249-.691" style="fill:none; stroke:#141b21; stroke-linecap:round; stroke-linejoin:round; stroke-width:1.5px;"/><path d="m218.153,48.882c-7.159.149-37.396.618-55.653.618-18.257,0-48.495-.47-55.654-.618" style="fill:none; stroke:#141b21; stroke-linecap:round; stroke-linejoin:round; stroke-width:1.5px;"/><path d="m215.405,51.011c-6.987.117-38.045.546-52.905.546-14.86,0-45.918-.429-52.905-.546" style="fill:none; stroke:#141b21; stroke-linecap:round; stroke-linejoin:round; stroke-width:1.5px;"/><path d="m50.553,76.051l3.136.125c-.627-4.219.729-8.487,3.803-11.858,3.342-3.667,8.348-5.888,13.735-6.093,15.974-.605,44.775-1.327,91.271-1.327,46.496,0,75.299.722,91.272,1.327,5.387.205,10.393,2.426,13.735,6.093,3.075,3.371,4.431,7.639,3.803,11.858l3.136-.125" style="fill:none; stroke:#141b21; stroke-linecap:round; stroke-linejoin:round; stroke-width:1.5px;"/><path d="m274.448,56.721v19.332l-.76,1.041-3.114.122c.628-4.174-.722-8.404-3.771-11.744-3.32-3.63-8.292-5.825-13.648-6.031-15.862-.6-44.47-1.313-90.657-1.313s-74.786.713-90.657,1.313c-5.347.206-10.327,2.401-13.638,6.031-3.058,3.339-4.409,7.57-3.78,11.744l-3.114-.122-.75-1.041v-19.332c0-.478.178-.929.525-1.304l3.377-3.63c.347-.366.535-.835.525-1.313l-.31-25.588c31.273,8.179,57.659,9.774,107.823,9.774s76.559-1.595,107.823-9.774l-.31,25.588c0,.478.188.947.535,1.313l3.367,3.63c.347.375.535.825.535,1.304Z" style="fill:#404d59; stroke:#141b21; stroke-linecap:round; stroke-linejoin:round; stroke-width:.5px;"/><path d="m162.499,37.157c-37.758,0-56.887-.711-63.877-1.051-.714-.035-1.402.238-1.834.728s-.553,1.134-.322,1.716l4.418,11.141c.871,2.196,2.879,3.487,6.519,3.487,12.244,0,42.941.436,55.097.436h.001c12.156,0,42.853-.436,55.097-.436,3.639,0,5.648-1.291,6.519-3.487.871-2.196,4.418-11.141,4.418-11.141.231-.583.11-1.226-.322-1.716s-1.12-.763-1.834-.728c-6.991.34-26.119,1.051-63.877,1.051Z" style="fill:none; stroke:#141b21; stroke-linecap:round; stroke-linejoin:round; stroke-width:.5px;"/><line x1="199" y1="36.89" x2="194.402" y2="53.406" style="fill:none; stroke:#141b21; stroke-linecap:round; stroke-linejoin:round; stroke-width:.5px;"/><line x1="125.998" y1="36.89" x2="130.597" y2="53.406" style="fill:none; stroke:#141b21; stroke-linecap:round; stroke-linejoin:round; stroke-width:.5px;"/><path d="m221.132,38.236c-6.595.308-26.414.979-58.633.979-32.218,0-52.038-.671-58.632-.979" style="fill:none; stroke:#141b21; stroke-linecap:round; stroke-linejoin:round; stroke-width:.5px;"/><path d="m220.536,40.365c-6.707.276-28.611.907-58.037.907-29.426,0-51.329-.63-58.037-.907" style="fill:none; stroke:#141b21; stroke-linecap:round; stroke-linejoin:round; stroke-width:.5px;"/><path d="m219.941,42.494c-6.82.245-30.807.835-57.441.835-26.634,0-50.621-.59-57.441-.835" style="fill:none; stroke:#141b21; stroke-linecap:round; stroke-linejoin:round; stroke-width:.5px;"/><path d="m219.345,44.623c-6.933.213-33.004.763-56.845.763-23.842,0-49.912-.55-56.845-.763" style="fill:none; stroke:#141b21; stroke-linecap:round; stroke-linejoin:round; stroke-width:.5px;"/><path d="m218.749,46.753c-7.046.181-35.2.69-56.249.69-21.049,0-49.204-.51-56.249-.691" style="fill:none; stroke:#141b21; stroke-linecap:round; stroke-linejoin:round; stroke-width:.5px;"/><path d="m218.153,48.882c-7.159.149-37.396.618-55.653.618-18.257,0-48.495-.47-55.654-.618" style="fill:none; stroke:#141b21; stroke-linecap:round; stroke-linejoin:round; stroke-width:.5px;"/><path d="m215.405,51.011c-6.987.117-38.045.546-52.905.546-14.86,0-45.918-.429-52.905-.546" style="fill:none; stroke:#141b21; stroke-linecap:round; stroke-linejoin:round; stroke-width:.5px;"/><path d="m50.553,76.051l3.136.125c-.627-4.219.729-8.487,3.803-11.858,3.342-3.667,8.348-5.888,13.735-6.093,15.974-.605,44.775-1.327,91.271-1.327,46.496,0,75.299.722,91.272,1.327,5.387.205,10.393,2.426,13.735,6.093,3.075,3.371,4.431,7.639,3.803,11.858l3.136-.125" style="fill:none; stroke:#141b21; stroke-linecap:round; stroke-linejoin:round; stroke-width:.5px;"/><polygon points="86.534 104.7 86.534 82.902 94.136 82.902 80.174 67.86 66.213 82.902 73.815 82.902 73.815 104.7 86.534 104.7" style="fill:#f4ae3d; stroke:#141b21; stroke-miterlimit:10; stroke-width:1.5px;"/><polygon points="252.434 104.7 252.434 82.902 260.037 82.902 246.075 67.86 232.114 82.902 239.716 82.902 239.716 104.7 252.434 104.7" style="fill:#f4ae3d; stroke:#141b21; stroke-miterlimit:10; stroke-width:1.5px;"/><path d="m91.931,12.437c0-4.063-2.931-7.435-6.792-8.135-.479-.101-.974-.157-1.483-.157s-1.004.055-1.483.157c-3.861.7-6.792,4.072-6.792,8.135s2.931,7.435,6.792,8.135c.22.046.444.082.672.107v19.686c0,.276.224.5.5.5s.5-.224.5-.5v-19.646c.442-.011.875-.059,1.294-.147,3.861-.7,6.792-4.072,6.792-8.135Z" style="fill:none; stroke:#141b21; stroke-linecap:round; stroke-linejoin:round; stroke-width:3px;"/><line x1="83.344" y1="12.15" x2="83.344" y2="40.365" style="fill:none; stroke:#aebbc7; stroke-linecap:round; stroke-miterlimit:10;"/><circle cx="83.656" cy="12.437" r="8.275" style="fill:#aebbc7; stroke-width:0px;"/><path d="m83.656,4.145c-3.934,0-7.123,3.189-7.123,7.124v2.337c0,3.934,3.189,7.124,7.123,7.124s7.123-3.189,7.123-7.124v-2.337c0-3.934-3.189-7.124-7.123-7.124Z" style="fill:#aebbc7; stroke-width:0px;"/><path d="m82.697,10.249c-.2.135-.455.284-.767.449l-.819-1.326c.477-.26.905-.535,1.287-.826.381-.29.732-.613,1.053-.968h1.807v9.334h-1.846v-7.215c-.277.234-.516.418-.715.552Z" style="fill:#141b21; stroke-width:0px;"/><path d="m144.703,69.949c0-3.442-2.102-6.391-5.092-7.639-.977-.419-2.052-.653-3.183-.653s-2.206.234-3.183.653c-2.99,1.247-5.092,4.197-5.092,7.639s2.102,6.392,5.092,7.639c.74.318,1.537.529,2.371.612v19.677c0,.276.224.5.5.5s.5-.224.5-.5v-19.646c1.061-.025,2.072-.248,2.994-.644,2.99-1.247,5.092-4.197,5.092-7.639Z" style="fill:none; stroke:#141b21; stroke-linecap:round; stroke-linejoin:round; stroke-width:3px;"/><line x1="136.116" y1="69.662" x2="136.116" y2="97.877" style="fill:none; stroke:#aebbc7; stroke-linecap:round; stroke-miterlimit:10;"/><circle cx="136.428" cy="69.949" r="8.275" style="fill:#aebbc7; stroke-width:0px;"/><path d="m136.428,61.657c-4.462,0-8.079,3.617-8.079,8.079v.426c0,4.462,3.617,8.079,8.079,8.079s8.079-3.617,8.079-8.079v-.426c0-4.462-3.617-8.079-8.079-8.079Z" style="fill:#aebbc7; stroke-width:0px;"/><path d="m132.94,72.955l3.237-3.029c.303-.277.559-.544.767-.799.208-.256.369-.496.481-.722.113-.225.169-.438.169-.637v-.117c0-.312-.12-.567-.358-.767-.238-.199-.539-.299-.903-.299-.52,0-.918.113-1.196.338-.278.226-.459.611-.546,1.157l-1.638-.52c.139-.832.507-1.476,1.105-1.931s1.356-.683,2.275-.683c.581,0,1.105.104,1.573.312.468.208.838.512,1.111.91s.41.871.41,1.417c0,.451-.089.882-.267,1.293-.178.412-.405.789-.683,1.131-.277.343-.594.674-.949.995l-2.002,1.794h3.965v1.625h-6.552v-1.469Z" style="fill:#141b21; stroke-width:0px;"/><path d="m169.391,69.949c0-3.449-2.111-6.403-5.111-7.646-.972-.415-2.041-.646-3.164-.646s-2.193.231-3.164.646c-2.999,1.243-5.111,4.197-5.111,7.646s2.111,6.403,5.111,7.646c.735.314,1.525.523,2.353.605v27.296c0,.276.224.5.5.5s.5-.224.5-.5v-27.264c1.054-.024,2.059-.245,2.976-.637,3-1.243,5.111-4.197,5.111-7.646Z" style="fill:none; stroke:#141b21; stroke-linecap:round; stroke-linejoin:round; stroke-width:3px;"/><line x1="160.804" y1="69.662" x2="160.804" y2="105.495" style="fill:none; stroke:#aebbc7; stroke-linecap:round; stroke-miterlimit:10;"/><circle cx="161.116" cy="69.949" r="8.275" style="fill:#aebbc7; stroke-width:0px;"/><path d="m161.116,61.657c-4.451,0-8.059,3.608-8.059,8.06v.465c0,4.451,3.608,8.06,8.059,8.06s8.059-3.608,8.059-8.06v-.465c0-4.451-3.608-8.06-8.059-8.06Z" style="fill:#aebbc7; stroke-width:0px;"/><path d="m158.799,74.092c-.542-.316-1.007-.787-1.397-1.411l1.443-1.04c.242.442.509.759.799.949.29.191.652.286,1.085.286.468,0,.871-.093,1.209-.28.338-.186.507-.474.507-.864v-.156c0-.442-.149-.756-.448-.942-.299-.186-.804-.279-1.515-.279h-.65v-1.56h.624c.528,0,.96-.078,1.293-.234.333-.156.5-.451.5-.884v-.143c0-.312-.145-.543-.436-.695-.291-.151-.626-.228-1.007-.228-.364,0-.691.093-.981.279-.291.187-.531.462-.722.826l-1.365-.819c.312-.667.728-1.159,1.248-1.476.52-.316,1.153-.475,1.898-.475.91,0,1.653.217,2.229.65.576.434.864,1.079.864,1.937,0,.451-.091.839-.273,1.164-.182.325-.438.592-.767.8.416.216.73.494.942.832.212.338.319.754.319,1.248,0,.642-.158,1.188-.475,1.638s-.739.789-1.268,1.014c-.529.225-1.109.338-1.742.338-.736,0-1.376-.158-1.917-.475Z" style="fill:#141b21; stroke-width:0px;"/></svg>