<?xml version="1.0" encoding="UTF-8"?><svg id="uuid-867e96d4-fa49-4e82-ab15-bfeb776ab58c" xmlns="http://www.w3.org/2000/svg" width="218" height="218" viewBox="0 0 218 218"><path d="m-191.4519-41.3715s15.3809,24.3242,23.1934,34.334c7.8125,10.0098,27.3438,24.6583,76.6604,24.6583h391.1145" style="fill:none; stroke:#687581; stroke-miterlimit:10; stroke-width:1.5px;"/><path d="m-228.8056-41.3715C-180.4656,28.118-176.3152,42.5232-71.3344,42.5232h373.0481" style="fill:none; stroke:#687581; stroke-miterlimit:10; stroke-width:.5px;"/><path d="m-120.4068,359.907c-7.3242-4.6387-14.1602-16.6016-14.8926-21.2403-.7324-4.6387-8.4719-89.306-10.7422-133.7895-1.7671-34.623,16.6016-34.6681,75.903-40.493v-.0002c73.5848-4.0477,187.6848-6.7269,342.7995-.7667" style="fill:none; stroke:#687581; stroke-miterlimit:10; stroke-width:1.5px;"/><path d="m299.5164,144.995c-143.1738-9.8508-418.5049-18.2542-510.0218,21.8528" style="fill:none; stroke:#687581; stroke-miterlimit:10; stroke-width:.5px;"/><path d="m37.2249,67.7661s.1733-2.8598.6066-5.113,2.8598-2.8598,5.5463-2.9465c2.6865-.0867,22.532-.1733,27.645,1.6466,3.2065.9533,3.6398,3.2931,3.8131,4.9397s.6066,8.6661-1.5599,19.3255c-.8666,2.9465-3.0331,5.893-8.4062,7.4529-5.373,1.5599-11.006,2.7732-15.5991,3.4665-4.5931.6933-6.967-.4706-9.8268-3.417" style="fill:none; stroke:#687581; stroke-miterlimit:10;"/><path d="m74.9097,73.0734c.0659-4.3298-2.1146-6.1022-7.4306-5.1808-5.316.9214-10.2777,1.9138-12.9711,2.0555-2.6935.1418-7.0881.4253-9.7815-3.0479s-5.109-6.4622-5.109-6.4622" style="fill:none; stroke:#687581; stroke-miterlimit:10; stroke-width:.5px;"/><path d="m39.1978,67.6091c0-2.0555,1.4176-2.3391,2.3391-1.205s2.1264,2.4099,2.1264,2.4099c0,0,1.1341,2.2682.9923,3.8276l1.4176,1.0632-.7797.567s-1.772,11.3409-1.6303,16.3025c0,0,.0991.6496.3628.8606,0,0-1.1461-.0527-1.3905.6856s-.4027,1.7932-1.9849.7384" style="fill:none; stroke:#687581; stroke-miterlimit:10; stroke-width:.5px;"/><path d="m44.026,91.435c2.5316.8966,4.9577,1.0548,8.3859.4747,3.4282-.5802,12.4998-2.6371,14.6095-3.4282,2.1097-.7911,2.7426-2.3206,3.27-5.4324s.8966-7.0147.8439-8.9661-.5274-3.27-4.5885-2.4789-9.1771,1.5823-11.8142,2.0042-4.8718.6678-8.6594.0965" style="fill:none; stroke:#687581; stroke-miterlimit:10; stroke-width:.5px;"/><path d="m49.0365,74.9796s-.5274,11.7614-1.5295,16.0335" style="fill:none; stroke:#687581; stroke-miterlimit:10; stroke-width:.5px;"/><path d="m-83.0783,66.4041c18.0671,6.6693,90.2563,10.0888,125.0387.5076" style="fill:none; stroke:#687581; stroke-miterlimit:10;"/><path d="m-86.0985,71.3707c18.7859,6.9346,94.38,10.3621,130.5462.3998" style="fill:none; stroke:#687581; stroke-miterlimit:10; stroke-width:.5px;"/><path d="m-84.3751,91.8091c18.524,6.8379,91.3466,10.3148,127.0087.4913" style="fill:none; stroke:#687581; stroke-miterlimit:10;"/><path d="m105.086,61.461s28.7633.1283,34.174.2974c5.4107.1691,9.807,2.5363,9.1306,8.1161-.6763,5.5798-1.6063,11.3287-2.029,13.4423s-2.8745,7.3638-11.7515,7.4018c-8.877.038-26.9879-.1749-31.9759-.5976-4.988-.4227-8.6234-2.5012-8.3697-8.3099.2536-5.8087.7609-9.8668,1.1836-12.9949s3.3817-6.848,9.6379-7.3552Z" style="fill:#f4ae3d; stroke:#141b21; stroke-miterlimit:10; stroke-width:1.5px;"/><path d="m133.5128,89.6926c-11.1902,0-25.9611-.2083-30.5892-.6276-5.0206-.4532-5.3429-2.5675-5.241-5.0762.2438-6.0076.7249-10.1471,1.1558-13.5532.1937-1.538,1.7587-4.2394,6.3818-4.6908,3.3554.0268,28.7637.1423,33.9329.3136,2.4902.0839,4.4176.7512,5.2861,1.8324.1871.2337.7599.9474.5562,2.7478-.6514,5.74-1.5733,11.8671-1.9875,14.0813-.0952.5067-1.1341,4.937-8.4127,4.9709l-1.0823.0018Z" style="fill:none; stroke:#141b21; stroke-miterlimit:10; stroke-width:.5px;"/><path d="m132.3874,85.1809c-10.6989,0-23.5335-.1709-27.9285-.5434-3.6308-.307-3.5908-1.2087-3.5205-2.8474.2302-5.3079.6843-8.9755,1.0936-11.9955.1119-.8298,1.2231-2.4797,4.6348-2.7914,2.0656.0224,26.1411.1213,31.0717.2748,2.0944.0655,3.4517.5851,3.869,1.0712.2238.2622.1903.8633.1487,1.1991-.6171,5.0969-1.49,10.5311-1.8817,12.4927-.0256.1263-.6907,3.1128-6.4542,3.1384l-1.0328.0016Z" style="fill:none; stroke:#141b21; stroke-miterlimit:10; stroke-width:.5px;"/><path d="m202.7099,235.924c-.1229-.5355-.2256-1.0866-.3131-1.6662.0008-.006.0023-.0179-.0023-.0306-1.2736-8.7861,1.7472-21.9437,2.4349-29.3303.7404-7.8706,2.6383-22.3565,2.7818-29.4458.15-7.0945-2.5712-9.2699-4.7965-10.8891-2.2194-1.6184-5.4362-2.6493-9.4182-4.4082-1.9468-5.0722-4.456-5.4484-7.1024-5.9381-2.6414-.4831-5.6788-1.7949-10.1566-2.4092-2.346-1.773-6.036-7.6977-10.7428-14.0239-4.7068-6.3262-12.1998-3.1831-14.737.7775-1.1698-3.8401-4.5641-18.1128-4.5641-18.1128-.0695-6.4794-2.4736-10.6747-2.8765-12.6484-.4036-1.9678-2.3365-19.4828-3.5198-26.1636-1.1825-6.6867-5.2189-8.5975-7.8673-8.4216-2.6551.1812-7.0489,1.5745-7.1904,10.6495-.1526,10.0663,2.1431,20.5309,2.7004,27.6322.5625,7.1081,2.8575,15.2065,3.6674,19.0698.8091,3.869,2.3884,14.9319,2.2191,18.6826-.1685,3.7447-.6888,9.7957-.2924,12.9732,0,0-1.0233,4.3556-1.6586,9.6056-.6359,5.2561-2.4375,9.5902-2.4375,9.5902,0,0-3.8882-6.0879-4.2967-7.4145-.4077-1.3326-2.7906-8.6549-2.7906-8.6549,0,0,1.3397-11.0728-12.2688-20.8247-3.2857-1.7111-8.0743-1.0072-9.1237,2.9639,2.031-3.0776,5.8287-3.8469,7.081-2.1397,1.3264,1.7949,1.9326,5.9905,1.6623,7.0233-.2642,1.0334-.1029,2.0517-2.1019,3.0144-1.3049.629-2.6606,1.827-3.4484,2.5853-.3416.3219-.8988.2241-1.0957-.1992l-1.0592-2.2529-.137.0318c.6524,2.8635.8951,3.1592.8951,3.1592,0,0,.8592,4.6561.823,5.5052-.0295.8439-.6707,4.3923.3711,6.9396,0,0,.3245.8201.7473,1.8277.5163,1.2368,1.1797,2.7578,1.5376,3.3519,0,0,2.7681,7.0904,3.4271,11.6496.6598,4.5533,2.1593,10.9211,2.3967,12.5117.2307,1.5956,2.288,5.755,5.727,9.6517,3.4383,3.9027,30.2034,36.6449,31.7251,40.128,5.7357,13.1819,22.467,39.25,25.3173,53.2148,17.6837,8.09,46.2631-7.2841,59.7125-1.571,0,0-29.2245-57.2953-31.229-65.9942Z" style="fill:#141b21; stroke-width:0px;"/><path d="m107.439,145.3471c1.3264,1.7949,1.9326,5.9905,1.6624,7.0232-.2643,1.0334-.103,2.0517-2.102,3.0145-1.3049.629-2.6605,1.827-3.4484,2.5852-.3416.3219-.8988.2242-1.0958-.1992l-1.0592-2.2529-.137.0318c-.2474-1.1074-.5581-2.5918-.9387-4.5991-.2595-1.3571-.2238-2.5029.0377-3.464,2.031-3.0775,5.8287-3.8469,7.081-2.1397Z" style="fill:#141b21; stroke-width:0px;"/><path d="m174.2261,303.4882c-1.4958-5.9236-4.2053-11.4294-6.8994-16.8811-5.8114-11.6008-12.6578-22.6431-18.2842-34.3576-.8336-2.1378-2.1322-3.8596-3.5094-5.7077-9.2027-12.1261-18.8857-23.9565-28.636-35.6278-2.7151-3.2183-5.5626-6.8442-6.3081-11.1417-.1003-.6126-1.0177-4.8672-1.1561-5.5977-.6681-2.9464-.9709-6.0514-1.6897-8.9584-.7456-2.9071-1.7252-5.7963-2.7959-8.6133-.6479-1.209-1.6659-3.5669-2.3078-5.2091-.8811-2.2645-.6677-4.7509-.4274-7.0995-.0807-1.7692-.5336-3.6598-.8245-5.444,0,0,.1648.3537.1648.3537-.3324-.4942-.4209-1.0827-.5972-1.622-.3273-1.3312-.6947-2.8222-.95-4.1594-.3633-1.9186-.9361-3.8812-.4725-5.8844.8908-4.5595,6.6827-5.7364,10.3111-3.702,5.2369,3.7036,9.8367,8.8378,11.7818,15.0843.6343,2.0915,1.0316,4.2039.8752,6.5157l-.0316-.324,2.7082,8.4226c1.0538,2.5961,2.83,5.0603,4.2806,7.4832.0001,0-1.3048.1135-1.3048.1135,2.5225-6.0671,2.5168-12.75,4.0797-19.0764-.4914-3.2815.2024-9.2946.2928-13.4554-.1053-4.4791-.7813-8.9974-1.4276-13.4416-.8541-6.0137-2.7071-11.7827-3.6869-17.7854-.5576-2.98-.7422-6.0648-1.0988-9.0558-.7577-5.9815-1.7873-11.9888-2.1952-18.0824-.4412-6.3258-1.0866-16.8786,7.4411-17.7299,4.3923-.4133,7.6401,3.6195,8.5391,7.5133,1.5183,7.4889,2.152,15.0569,3.1874,22.5963.3229,3.078.6832,5.7354,1.9372,8.6763.9873,2.6059,1.7256,6.8168,1.638,8.9754,1.0458,4.3556,2.1083,8.712,3.2132,13.0487.9864,4.3716,2.4454,8.4439,4.5763,12.3469-.0002,0-.5739-.3096-.5739-.3096,1.5533.0872,3.1173.4537,4.4111,1.3344-1.4826-.1433-2.9225-.0941-4.3828-.0139,0,0-.327.0278-.327.0278l-.2469-.3376c-2.6968-3.7232-3.9552-8.288-5.0105-12.6513-1.1056-4.3545-2.1552-8.714-3.1936-13.0808-.0183-3.7384-.974-7.4722-2.3373-10.965-.8508-2.1774-.8783-4.5866-1.2282-6.8602-1.0043-7.4597-1.6431-15.0487-3.1033-22.4043-.6813-2.6765-2.2972-5.3701-5.0074-6.2214-2.2677-.6856-4.8976.2001-6.3053,2.085-4.398,6.1109-.3812,24.0833.3482,31.8847.5327,7.5827,2.2124,14.906,3.9992,22.2808.88,4.5011,1.4845,9.0078,1.9634,13.5667.8076,6.0228-.5981,12.3004.0089,18.2671-1.2133,4.8058-1.4298,9.8427-2.6165,14.6541-.5073,2.0583-1.2436,4.1305-2.0577,6.1167,0,0-.7774-1.2217-.7774-1.2217-1.5597-2.6112-3.3315-4.9779-4.4629-7.8392.0001,0-2.7159-8.3946-2.7159-8.3946l-.0441-.1362c.1565-1.9544-.1954-4.094-.8157-6.0684-1.7245-5.7938-6.5285-10.9567-11.0497-14.1599-4.0973-2.1071-9.0862.0922-8.1002,5.1768.4373,2.4399.9404,5.0271,1.62,7.4292.0498.126.1098.36.1686.4766-.0116-.0085.0502.07-.061-.0834l.1651.3541c.3268,2.3054,1.0448,4.6091.6977,6.9859-.1594,1.7744-.2153,3.6156.4169,5.2863.703,1.7105,1.4417,3.6487,2.2802,5.1915,1.0982,2.8979,2.0842,5.8098,2.8557,8.8269.7444,3.0184,1.0173,6.0183,1.6954,9.0278.3034,1.3896,1.1038,5.3245,1.3537,6.7153,1.0839,3.491,3.3659,6.5871,5.7678,9.3702,9.7956,11.751,19.4366,23.5558,28.6653,35.7428,1.3591,1.8206,2.815,3.7867,3.6438,5.9541,5.5833,11.6754,12.2921,22.8313,17.7368,34.5974,2.5366,5.5433,5.0455,11.2069,6.1958,17.2221h0Z" style="fill:#aebbc7; stroke-width:0px;"/><path d="m130.4697,207.2762c8.8337,5.7671,21.499,20.4806,23.9233,30.8319-.2683-.7814-.4746-1.5811-.7911-2.3406-2.232-5.3168-5.6398-10.0475-9.2435-14.5184-4.1817-5.0476-8.5516-10.1126-13.8886-13.9729h0Z" style="fill:#aebbc7; stroke-width:0px;"/><path d="m129.5524,181.6362c-.6001,1.7648-1.2127,3.7183-.9505,5.5968,0,0,.4613,2.9533.4613,2.9533.1381.9908.2568,2.0075.1252,3.0017.0055-1.0008-.2347-1.9692-.4924-2.9251l-.8297-2.8836c-.5429-2.0494-.1652-4.1462.2523-6.1841,0,0,1.4338.4411,1.4338.4411h0Z" style="fill:#aebbc7; stroke-width:0px;"/><path d="m103.3481,171.152c.8756-1.2947,2.2363-2.3317,3.7975-2.5974-1.1268.7866-2.6073,1.9135-3.7975,2.5974h0Z" style="fill:#aebbc7; stroke-width:0px;"/><path d="m104.0977,172.9835c2.5203-1.3728,4.9738-2.7414,7.188-4.5677-1.7213,2.323-4.4241,3.8432-7.188,4.5677h0Z" style="fill:#aebbc7; stroke-width:0px;"/><path d="m101.3976,155.5173l1.0566,2.2511c.1996.4253.7569.5259,1.0955.2002.7876-.7575,2.1443-1.9536,3.4476-2.5832,2.0008-.9664,1.8392-1.9812,2.1065-3.0152.2673-1.034-.3379-5.2263-1.6622-7.0256-1.3244-1.7993-5.4809-.8443-7.4039,2.6747" style="fill:none; stroke:#aebbc7; stroke-miterlimit:10; stroke-width:.5px;"/><path d="m150.0242,138.1539c2.621-3.9356,8.1774-6.0376,12.5355-3.8023,1.4379.7212,2.6156,1.8617,3.5205,3.0989,2.6315,3.5186,5.0579,7.1748,7.7037,10.6614.8789,1.1274,1.7968,2.2894,2.8062,3.0979l-.3512-.1453c1.7122.2375,3.4075.5997,5.0603,1.0509,2.5571.7941,4.8385,1.2687,7.4085,1.883,2.7382.7343,4.506,3.4478,5.3897,5.8844,0,0-.3965-.4171-.3965-.4171,1.4834.6479,2.9915,1.2462,4.512,1.8704,10.8837,4.0124,10.8341,10.4253,9.8557,20.6515-.6465,7.542-1.7909,16.8339-2.5723,24.391-1.0357,8.0546-2.8011,16.1492-2.6797,24.2193-.0429,6.546,3.3661,12.3507,5.8246,18.2594,2.6756,5.9507,5.4752,11.8514,8.2833,17.7475,4.8971,10.4227,11.9782,24.828,17.0163,35.3116-9.1817-17.3242-18.1431-34.7684-26.4251-52.5463-2.5972-6.005-6.1178-11.9889-6.1181-18.7313-.1919-8.3111,1.4996-16.3231,2.4697-24.4512.697-7.5496,1.8719-16.827,2.5067-24.3434,1.3891-14.1745-.3718-15.875-13.2801-21.0064.0002-.0002-.2762-.124-.2762-.124l-.1206-.2934c-.5915-1.5062-1.3483-2.9668-2.4875-3.934-1.1216-1.0082-2.6436-1.2792-4.3545-1.5914-1.7312-.3621-3.328-.9056-4.946-1.3312-1.6799-.4589-3.3684-.8126-5.0806-1.0419-1.3279-1.0377-2.2836-2.2873-3.2327-3.4945-2.6618-3.5062-5.0936-7.171-7.7196-10.6824-.8191-1.1179-1.81-2.0598-2.9973-2.6568-3.6458-1.8905-8.4165.0124-10.5922,3.2759,0,0-1.2625-.8102-1.2625-.8102h0Z" style="fill:#aebbc7; stroke-width:0px;"/><path d="m176.6682,151.2781c2.0554,2.5597,3.1879,5.547,3.9877,8.6444-.6014-1.444-1.3386-2.8203-2.174-4.117-.8373-1.2857-1.7828-2.5277-2.8759-3.4683l1.0621-1.0591h0Z" style="fill:#aebbc7; stroke-width:0px;"/><polygon points="194.0909 159.8665 196.3002 167.5325 192.7036 160.437 194.0909 159.8665 194.0909 159.8665" style="fill:#aebbc7; stroke-width:0px;"/><path d="m127.1414,76.9487c1.8884-3.0192,6.993-4.2903,9.846-.8954.8079,4.3781.7815,7.6921-3.0646,8.0828-3.846.3907-5.8264-2.2565-6.7815-7.1874Z" style="fill:none; stroke:#aebbc7; stroke-miterlimit:10; stroke-width:.5px;"/><path d="m132.9152,116.624c2.8295-2.0061,6.7123-2.1167,9.9114-.9945-3.3412-.4242-6.7672-.3662-9.9114.9945h0Z" style="fill:#aebbc7; stroke-width:0px;"/><path d="m133.2451,120.0881c3.0853.2533,6.1221.0704,9.1222-.662-2.7731,1.3985-6.1692,1.6048-9.1222.662h0Z" style="fill:#aebbc7; stroke-width:0px;"/></svg>