<?xml version="1.0" encoding="UTF-8"?><svg id="uuid-4eee95b2-2441-4fa0-9fe0-26b674cd491c" xmlns="http://www.w3.org/2000/svg" width="218" height="218" viewBox="0 0 218 218"><g id="uuid-c2798105-2305-4c9f-8c66-9142a11a4382"><path d="m108.6774,135.1066c38.1239.0977,58.4621,1.8744,63.8674,2.395,2.1885.2108,3.8378,1.1515,5.006,2.5313,2.0309,2.3988,2.4968,5.9783,2.288,8.9695-.3125,4.4762-1.0226,14.6968-3.2138,21.3479-1.1507,3.4929-2.3337,6.1309-4.5694,7.8637-1.9481,1.5099-4.5561,2.2294-8.255,2.4744-12.8183.8492-38.0646,1.7784-55.1853,1.7299-17.1205-.0485-42.4364-1.1211-55.2511-2.043-3.6974-.266-6.3018-1.0001-8.2431-2.5202-2.2284-1.745-3.4004-4.3893-4.5367-7.8892-2.1634-6.6632-2.8326-16.8875-3.1265-21.3657-.1964-2.9924.2844-6.5701,2.3263-8.9579,1.1743-1.3733,2.8279-2.3045,5.017-2.5029,5.4074-.49,25.7529-2.1513,63.8761-2.0329Z" style="fill:none; stroke:#687581; stroke-miterlimit:10; stroke-width:.5px;"/><path d="m108.6767,135.3566c38.116.0977,58.4465,1.874,63.8441,2.3939,2.1241.2046,3.7134,1.1143,4.8392,2.444,1.9684,2.325,2.4365,5.8241,2.2294,8.7906-.3132,4.4857-1.0224,14.6718-3.2018,21.2871-1.1499,3.4903-2.3142,6.0618-4.4851,7.7443-1.8903,1.4651-4.4391,2.1788-8.1184,2.4226-12.8131.8489-38.0536,1.7778-55.168,1.7293-17.1144-.0485-42.4244-1.1208-55.2339-2.0423-3.6778-.2646-6.2232-.9926-8.1069-2.4677-2.1639-1.6945-3.3176-4.2723-4.453-7.7696-2.1517-6.6274-2.8203-16.8172-3.1148-21.3048-.1948-2.9677.2879-6.4648,2.2668-8.7791,1.1316-1.3234,2.7249-2.2238,4.8496-2.4164,5.3998-.4893,25.7374-2.1503,63.8529-2.0319Z" style="fill:none; stroke:#687581; stroke-miterlimit:10; stroke-width:.5px;"/><path d="m108.6761,135.6066c38.1081.0977,58.4308,1.8736,63.8208,2.3927,2.0597.1984,3.589,1.077,4.6723,2.3567,1.9059,2.2512,2.3762,5.6698,2.1708,8.6116-.3139,4.4953-1.0223,14.6468-3.1899,21.2263-1.149,3.4877-2.2948,5.9927-4.4008,7.625-1.8324,1.4202-4.3222,2.1283-7.9818,2.3707-12.8078.8485-38.0426,1.7773-55.1508,1.7288-17.1082-.0485-42.4125-1.1206-55.2166-2.0417-3.6581-.2632-6.1445-.9851-7.9707-2.4152-2.0993-1.644-3.2348-4.1553-4.3694-7.6499-2.1401-6.5915-2.808-16.7469-3.1031-21.244-.1932-2.9431.2914-6.3596,2.2074-8.6003,1.0889-1.2734,2.6219-2.1432,4.6821-2.3299,5.3921-.4886,25.7219-2.1493,63.8297-2.0308Z" style="fill:none; stroke:#687581; stroke-miterlimit:10; stroke-width:.5px;"/><path d="m108.6755,135.8566c38.1003.0976,58.4152,1.8732,63.7974,2.3916,1.9953.1922,3.4645,1.0398,4.5055,2.2694,1.8434,2.1774,2.3159,5.5155,2.1122,8.4327-.3145,4.5048-1.0221,14.6218-3.1779,21.1655-1.1482,3.4851-2.2754,5.9236-4.3165,7.5056-1.7746,1.3754-4.2052,2.0777-7.8452,2.3189-12.8025.8482-38.0315,1.7767-55.1335,1.7282-17.102-.0485-42.4005-1.1203-55.1994-2.041-3.6384-.2617-6.0658-.9777-7.8345-2.3627-2.0348-1.5934-3.152-4.0383-4.2857-7.5303-2.1285-6.5557-2.7957-16.6765-3.0915-21.1832-.1915-2.9185.2949-6.2544,2.1479-8.4214,1.0462-1.2234,2.5189-2.0625,4.5147-2.2434,5.3844-.4879,25.7064-2.1482,63.8065-2.0298Z" style="fill:none; stroke:#687581; stroke-miterlimit:10; stroke-width:.5px;"/></g><path d="m108.6748,136.1066c38.0924.0976,58.3995,1.8728,63.7741,2.3904,5.3746.5177,6.7075,5.9214,6.3923,10.4358-.3152,4.5144-1.022,14.5968-3.166,21.1046s-4.1528,9.1373-11.9407,9.6532c-12.7973.8478-38.0205,1.7761-55.1163,1.7277-17.0958-.0485-42.3886-1.12-55.1822-2.0404-7.7857-.5601-9.7836-3.2009-11.9004-9.7208-2.1168-6.5199-2.7834-16.6062-3.0798-21.1223-.2964-4.5161,1.059-9.9122,6.4357-10.3994,5.3767-.4872,25.6909-2.1472,63.7833-2.0288Z" style="fill:none; stroke:#687581; stroke-miterlimit:10; stroke-width:.5px;"/><path d="m108.6229,178.8121c-16.6761-.0476-41.9394-1.0917-55.0719-2.0364-7.0795-.51-8.4383-2.6855-10.2663-8.3159-2.062-6.3498-2.694-15.9797-2.964-20.0922-.1498-2.28.01-7.6305,4.7158-8.0566,6.7285-.6101,26.0225-2.0285,59.7786-2.0285,1.2654,0,2.5475.0021,3.855.0064,36.0596.0923,56.5072,1.6968,63.6247,2.383,4.7036.4532,4.8415,5.8043,4.6823,8.0843-.2871,4.1096-.9595,13.736-3.0477,20.0737-1.8517,5.6204-3.2194,7.7889-10.301,8.2576-12.5286.8303-36.6257,1.7267-53.7094,1.7267l-1.2961-.0021Z" style="fill:none; stroke:#687581; stroke-miterlimit:10; stroke-width:.5px;"/><path d="m109.3395,126.9021h-35.4706c-1.2346,0-2.4115-.6282-3.2176-1.7191l-3.8977-5.2749c-.8069-1.092-1.9818-1.7191-3.2176-1.7191H28.3696c-11.9033,0-13.7238-7.352-22.4062-7.352H.1455" style="fill:none; stroke:#687581; stroke-miterlimit:10; stroke-width:1.5px;"/><path d="m182.4284,118.1889c5.4776,0,10.096-1.0564,12.9959-10.8302,2.8999-9.7738,10.5256-35.8372,13.1033-44.6086,2.5777-8.7713.9852-12.8445-3.7971-17.7992-6.783-7.0276-15.8072-14.966-25.374-21.3446-7.4067-4.9384-9.6229-5.2584-70.0172-5.2584-60.3943,0-62.6105.32-70.0172,5.2584-9.5668,6.3786-18.5909,14.317-25.374,21.3446-4.7822,4.9547-6.3748,9.0279-3.7971,17.7992,2.5777,8.7713,10.2034,34.8348,13.1033,44.6086,2.8999,9.7738,7.5183,10.8302,12.9959,10.8302" style="fill:none; stroke:#687581; stroke-miterlimit:10;"/><path d="m109.3395,69.3034H44.5837c-3.0579,0-4.8797.1274-9.8895,3.264-4.9189,3.0797-5.6354,2.699-4.5544,7.287.786,3.3359,1.2377,5.0122,2.0169,7.8183.8754,3.1526,2.3213,4.9832,10.7794,5.0098,9.4997.0299,44.8216.2277,66.4033.2277" style="fill:none; stroke:#687581; stroke-miterlimit:10; stroke-width:.5px;"/><path d="m66.0859,73.6189c-.1142-.8813-.8647-1.5409-1.7534-1.5409h-15.6542c-2.7451,0-3.9979,0-8.7456,2.9733l-2.3964,1.3791c-.7944.4571-1.1959,1.3926-.9774,2.2827.7378,3.0069,1.5282,5.8795,2.2648,8.5308.4251,1.5289.7304,2.6321,8.0705,2.6553,2.778.009,7.5796.0307,13.5741.0584,3.2397.0148,3.1537.0311,5.431.0477,1.2182.0089,2.1717-1.0598,2.0152-2.2679l-1.8287-14.1184Z" style="fill:#f4ae3d; stroke:#141b21; stroke-miterlimit:10; stroke-width:1.5px;"/><path d="m152.7811,73.6189c.1142-.8813.8647-1.5409,1.7534-1.5409h15.6542c2.7451,0,3.9979,0,8.7456,2.9733l2.3964,1.3791c.7944.4571,1.1959,1.3926.9774,2.2827-.7378,3.0069-1.5282,5.8795-2.2648,8.5308-.4251,1.5289-.7304,2.6321-8.0705,2.6553-2.778.009-7.5796.0307-13.5741.0584-3.2397.0148-3.1537.0311-5.431.0477-1.2182.0089-2.1717-1.0598-2.0152-2.2679l1.8287-14.1184Z" style="fill:#f4ae3d; stroke:#141b21; stroke-miterlimit:10; stroke-width:1.5px;"/><path d="m109.3395,67.1535s57.7941,0,64.1052,0c7.9649,0,8.7372,1.2438,13.7954,4.189,5.8401,3.4005,8.3163,5.3179,7.3075,9.045-1.0088,3.7271-1.7793,7.1332-3.111,11.5205-1.1723,3.8623-4.9751,4.5291-11.9671,4.5291h-70.1299s-70.1299,0-70.1299,0c-6.992,0-10.7948-.6668-11.9671-4.5291-1.3316-4.3873-2.1021-7.7934-3.111-11.5205s1.4674-5.6446,7.3075-9.045c5.0581-2.9451,5.8305-4.189,13.7954-4.189,6.311,0,64.1052,0,64.1052,0Z" style="fill:none; stroke:#687581; stroke-miterlimit:10; stroke-width:.5px;"/><path d="m109.3395,69.3034s61.6979,0,64.7558,0,4.8797.1274,9.8895,3.264c4.9189,3.0797,5.6354,2.699,4.5544,7.287-.786,3.3359-1.2377,5.0122-2.0169,7.8183-.8754,3.1526-2.3213,4.9832-10.7794,5.0098-9.4997.0299-44.8216.2277-66.4033.2277" style="fill:none; stroke:#687581; stroke-miterlimit:10; stroke-width:.5px;"/><line x1="32.8694" y1="107.6093" x2="109.3395" y2="107.6093" style="fill:none; stroke:#687581; stroke-linecap:round; stroke-linejoin:round;"/><path d="m46.773,117.6039l-4.6964-.0021c-6.9459-.0031-9.1454-8.394-9.499-9.7992" style="fill:none; stroke:#687581; stroke-linecap:round; stroke-linejoin:round; stroke-width:.5px;"/><path d="m171.9059,117.6039l4.6964-.0021c6.9459-.0031,9.1454-8.394,9.499-9.7992" style="fill:none; stroke:#687581; stroke-linecap:round; stroke-linejoin:round; stroke-width:.5px;"/><path d="m89.3446,119.2833c.1666.6786-.1729,1.2337-.7545,1.2337h-15.2347c-.5816,0-1.1938-.5552-1.3605-1.2337l-1.9259-7.842c-.1666-.6786.1729-1.2337.7545-1.2337h15.2347c.5816,0,1.1938.5552,1.3605,1.2337l1.9259,7.842Z" style="fill:none; stroke:#687581; stroke-miterlimit:10; stroke-width:.5px;"/><line x1="185.8096" y1="107.6093" x2="109.3395" y2="107.6093" style="fill:none; stroke:#687581; stroke-linecap:round; stroke-linejoin:round;"/><path d="m129.3344,119.2833c-.1666.6786.1729,1.2337.7545,1.2337h15.2347c.5816,0,1.1938-.5552,1.3605-1.2337l1.9259-7.842c.1666-.6786-.1729-1.2337-.7545-1.2337h-15.2347c-.5816,0-1.1938.5552-1.3605,1.2337l-1.9259,7.842Z" style="fill:none; stroke:#687581; stroke-miterlimit:10; stroke-width:.5px;"/><path d="m103.2743,126.317h-3.5297c-.8353,0-1.5763-.6255-1.8375-1.5512l-4.3686-15.6052c-.2612-.9257-1.0022-1.5512-1.8375-1.5512h-9.7325" style="fill:none; stroke:#687581; stroke-linecap:round; stroke-linejoin:round; stroke-width:.5px;"/><path d="m115.4047,126.317h3.5297c.8353,0,1.5763-.6255,1.8375-1.5512l4.3686-15.6052c.2612-.9257,1.0022-1.5512,1.8375-1.5512h7.0272" style="fill:none; stroke:#687581; stroke-linecap:round; stroke-linejoin:round; stroke-width:.5px;"/><path d="m70.841,124.3727l-11.8081-15.9801c-.3675-.4973-.9024-.7833-1.4652-.7833h-2.583" style="fill:none; stroke:#687581; stroke-miterlimit:10; stroke-width:.5px;"/><path d="m109.3395,126.9021h35.4706c1.2346,0,2.4115-.6282,3.2176-1.7191l3.8977-5.2749c.8069-1.092,1.9818-1.7191,3.2176-1.7191h35.1664c11.9033,0,13.7238-7.352,22.4062-7.352h7.2904" style="fill:none; stroke:#687581; stroke-miterlimit:10; stroke-width:1.5px;"/><path d="m147.8379,124.3727l11.8081-15.9801c.3675-.4973.9024-.7833,1.4652-.7833h2.583" style="fill:none; stroke:#687581; stroke-miterlimit:10; stroke-width:.5px;"/><path d="m62.625,118.1889s1.6826,6.8175,4.2634,18.6052" style="fill:none; stroke:#687581; stroke-miterlimit:10; stroke-width:.5px;"/><path d="m192.1086,118.1299c-6.5196,20.7091-10.1383,30.919-13.8587,37.9056" style="fill:none; stroke:#687581; stroke-miterlimit:10; stroke-width:.5px;"/><path d="m204.5127,61.1467c-.7703,2.6181-1.9955,6.7859-3.4026,11.5977-.6793,2.3138-1.4132,4.8117-2.1592,7.3733.8916-6.97-5.0038-9.6943-9.8135-12.4964-5.6258-3.3556-9.8132-4.7127-17.8135-4.7127H47.3572c-8.0149,0-12.1981,1.3629-17.8135,4.7127-4.8036,2.7879-10.693,5.5122-9.8196,12.4609-.746-2.5475-1.4738-5.0311-2.1531-7.3379-1.4132-4.8118-2.6323-8.9796-3.4026-11.5977-2.0197-6.8638-.8916-8.8805,2.602-12.4893,4.3487-4.5145,13.3434-13.204,24.6611-20.747,6.2775-4.1891,7.9636-5.3141,67.906-5.3141s61.6345,1.1251,67.912,5.3141c11.3176,7.543,20.3063,16.2325,24.6611,20.747,3.4875,3.6088,4.6157,5.6255,2.602,12.4893Z" style="fill:none; stroke:#687581; stroke-miterlimit:10; stroke-width:.5px;"/><path d="m13.4877,200.5333c.0505-.3924.0854-.7945.1074-1.2159-.001-.0042-.0029-.0127-.0005-.0221.2961-6.3851-2.7916-15.6013-3.8026-20.8459-1.0827-5.5878-3.4591-15.8345-4.0593-20.9043-.6053-5.0731,1.192-6.8228,2.673-8.1392,1.4767-1.3154,3.7095-2.2798,6.4394-3.8196,1.0391-3.7711,2.8107-4.2167,4.6726-4.7533,1.8588-.5315,3.9432-1.6846,7.1087-2.4389,1.5566-1.4351,3.785-5.9393,6.7138-10.8026,2.9288-4.8633,8.5184-3.1368,10.6144-.4769.5688-2.8337,1.9996-13.299,1.9996-13.299-.4048-4.6477,1.0235-7.8225,1.1737-9.265.1511-1.4383.3072-14.1244.6864-18.9946.3782-4.8743,3.1364-6.5268,5.0465-6.5865,1.9152-.0564,5.1614.6337,5.8995,7.1264.8156,7.2024-.0951,14.8618.0038,19.9894.0956,5.1328-.9806,11.0968-1.2899,13.9218-.3083,2.8291-.6637,10.8671-.2792,13.5428.3835,2.6715,1.1808,6.9708,1.1197,9.2755,0,0,1.0389,3.0492,1.8624,6.7666.8245,3.7216,2.4195,6.7008,2.4195,6.7008,0,0,2.359-4.6351,2.5586-5.6144.1987-.9835,1.3924-6.3975,1.3924-6.3975,0,0-1.7369-7.8403,7.3301-15.7828,2.2343-1.4567,5.715-1.2882,6.7456,1.4836-1.6712-2.0627-4.4465-2.3475-5.224-1.0364-.8245,1.3792-.9645,4.4281-.6984,5.1492.2618.722.2177,1.4629,1.7177,2.0125.9792.3592,2.0347,1.1225,2.6524,1.6105.2674.2067.6598.0975.7712-.2196l.6009-1.6886.1004.0132c-.2665,2.0976-.4197,2.3265-.4197,2.3265,0,0-.2889,3.3966-.2035,4.0025.0804.6026.7887,3.1002.221,4.9986,0,0-.175.6104-.4073,1.3621-.2832.9224-.6518,2.0589-.8666,2.5097,0,0-1.486,5.2749-1.6383,8.588-.1533,3.3089-.781,7.9771-.8395,9.1334-.0533,1.1596-1.2357,4.2843-3.4265,7.3178-2.1899,3.0377-19.0712,28.3772-19.9172,30.9798-3.1851,9.848-13.3449,29.7011-14.4075,39.9076-12.1037,7.0376-33.661-1.9735-42.8974,3.064,0,0,16.9209-43.1056,17.7468-49.4795Z" style="fill:#141b21; stroke-width:0px;"/><path d="m75.3991,128.9456c-.8245,1.3792-.9645,4.4281-.6984,5.1491.2619.722.2177,1.4629,1.7177,2.0125.9792.3592,2.0346,1.1225,2.6524,1.6105.2674.2067.6598.0976.7712-.2196l.6009-1.6886.1004.0132c.0996-.8109.2181-1.8963.35-3.3614.0908-.9906-.0152-1.8092-.2701-2.4795-1.6712-2.0627-4.4465-2.3475-5.224-1.0364Z" style="fill:#141b21; stroke-width:0px;"/><path d="m38.6384,246.948c.3526-4.3981,1.7231-8.6531,3.1285-12.8132,3.0211-8.8311,7.0247-17.3097,10.2024-26.0613,1.2302-3.7205,3.7358-6.8366,5.6986-10.171,4.7488-7.4137,9.5588-14.7475,14.5447-22.0266,1.5107-2.1374,2.9105-4.4945,3.4383-7.0269.026-.4144.1081-1.2183.1495-1.6296.411-3.2228.5656-6.6552.9288-9.871.3436-2.2331.8469-4.3934,1.4337-6.5601.481-1.1315.8868-2.6057,1.2649-3.8729.554-1.7795-.2957-3.7368-.2802-5.5107.1039-1.2453-.0002-2.506.3319-3.6896-.0992.1703-.0483.0942-.0617.1113,0,0,.0047-.0158.0074-.0243l.0234-.0858.048-.214c.0806-.3153.1722-1.1175.2288-1.4421.2059-2.5875,1.5178-6.9735-2.1122-7.6267-.9796-.2665-2.7551.3037-3.2251.6517-4.4002,3.7706-7.8995,9.441-7.1045,15.3571,0,0-1.3588,6.2018-1.3588,6.2018-.6078,2.1352-1.735,4.0062-2.6682,5.9825,0,0-.6553,1.2916-.6553,1.2916l-.6547-1.2774c-2.2965-4.2829-2.7671-9.1737-4.3546-13.7017.0251-4.2973-1.4312-8.7536-1.2709-13.1216-.1497-6.5834.988-13.0848,1.6138-19.6028.1553-6.4931.4916-13.1012.4198-19.5533-.1882-3.1168-.1052-6.4623-1.7789-9.1194-1.5855-2.5556-5.5284-2.3795-6.9267.2883-1.08,1.7777-1.1136,3.899-1.2205,5.9788-.1975,4.3408-.2801,8.7033-.3929,13.0669-.0907,1.3124.022,3.8373-.4034,5.0495-.7035,2.5676-1.169,5.2692-.8848,7.9081-.9692,5.6375-1.0928,11.4763-3.0445,16.9114-.3556.9024-.775,1.7941-1.329,2.6154-1.1603-.006-2.2767.0156-3.4597.1266.3973-.4104.895-.7303,1.4154-.9491.5318-.2469,1.048-.4085,1.6376-.501,0,0-.5408.3641-.5408.3641,2.4273-5.9066,2.7336-12.429,3.7466-18.6913-.1973-1.2653.011-4.7036.5508-6.566.2338-1.0884.6358-2.1558.6628-3.0594.2097-5.4119.2768-10.9295.5439-16.3494.1111-2.2385.202-4.6636,1.4553-6.6789,1.2375-2.1844,3.9983-3.4077,6.4506-2.5646,4.875,1.705,4.6968,7.9176,4.9443,12.1273.1338,4.407-.1848,8.7906-.3094,13.1215.2688,8.7456-1.9773,17.3313-1.7376,26.0769-.1321,4.4479,1.2927,8.5264,1.3005,13.0272.9347,1.9969,1.7479,7.0024,2.8501,9.9482.3921,1.0758.8542,2.1606,1.3646,3.1502l-1.3098.0142c.6867-1.3462,1.4152-2.8764,2.0382-4.2639.5184-.8158,1.5646-6.5596,1.8317-7.5755,0,0,.0001.3255.0001.3255-.2845-1.7052-.1422-3.2498.1679-4.8194.9656-4.6675,3.9389-8.7304,7.4734-11.7744,3.676-2.4187,8.6753-.4699,8.2477,4.325-.1096,1.6223-.3453,3.5202-.58,5.1196-.0525.3171-.1379.7611-.2379,1.0613-.0274.0569.009.0205-.1105.2279l.1295-.3678c-.0839,1.2746-.2706,2.6651-.216,3.9046.2818,1.4048.5502,2.8355.3701,4.2906-.3356,1.7248-.8619,3.2224-1.522,4.9324-.385,1.4114-1.0667,4.3044-1.3499,6.2228-.3502,3.1136-.5247,6.6657-.9359,9.8077-.0496.4017-.1195,1.2454-.1545,1.6513-.5561,2.8551-2.0835,5.375-3.7047,7.6832-4.9562,7.2125-9.798,14.5691-14.5387,21.9469-1.9168,3.2469-4.3713,6.2939-5.5774,9.8748-4.5489,12.9357-11.8376,24.9181-14.6323,38.4184h0Z" style="fill:#aebbc7; stroke-width:0px;"/><path d="m63.2416,174.937c-3.5145,3.1776-6.2771,7.114-8.9132,11.0252-2.2725,3.4501-4.3807,7.0695-5.6466,11.0178-.1789.5644-.2761,1.1502-.419,1.7284,1.0808-7.9093,8.7987-18.8142,14.9788-23.7714h0Z" style="fill:#aebbc7; stroke-width:0px;"/><path d="m63.2899,156.0025c.4196,1.4711.8065,2.9712.5255,4.5049-.2299,1.2375-.7459,2.9867-.6444,4.2447-.3206-1.2201-.1142-3.0552-.1021-4.3185.0183-1.3365-.5884-2.6701-1.1629-3.8524,0,0,1.3838-.5787,1.3838-.5787h0Z" style="fill:#aebbc7; stroke-width:0px;"/><path d="m80.141,147.1492c-1.0818-.3992-1.9662-.9545-2.9034-1.5947,1.1646-.0127,2.2474.6539,2.9034,1.5947h0Z" style="fill:#aebbc7; stroke-width:0px;"/><path d="m79.7324,148.5141c-2.0546-.2305-4.1392-1.1507-5.4711-2.7686,1.5214.9391,3.8396,1.9942,5.4711,2.7686h0Z" style="fill:#aebbc7; stroke-width:0px;"/><path d="m80.4416,135.8091l-.5992,1.6872c-.1132.3188-.5054.43-.7709.2203-.6175-.4875-1.6736-1.2494-2.6516-1.6091-1.5015-.5521-1.4569-1.2906-1.721-2.0128s-.1246-3.7686.6981-5.1508,3.8681-.9895,5.493,1.3971" style="fill:none; stroke:#aebbc7; stroke-miterlimit:10; stroke-width:.5px;"/><path d="m43.3673,127.5785c-2.4211-2.9854-7.5139-3.2629-9.4362.4881-1.6347,2.6993-3.1207,5.4972-4.784,8.1992-.6036.9455-1.2214,1.9389-2.1434,2.81,0,0-.2036.0489-.2036.0489-2.3994.5364-4.489,1.5707-6.8583,2.3652-1.2231.3489-2.2288.6361-2.9196,1.3911-.7772.7863-1.2175,2.0294-1.5439,3.2009-3.8058,2.2685-9.0878,3.9576-9.0112,9.1103.2846,6.5892,2.4433,14.0538,3.6504,20.613,1.2092,6.9807,3.6,13.6776,4.1382,20.8352.4693,4.8592-1.6458,9.4195-3.1043,13.921-4.7112,13.3157-9.9505,26.429-15.4118,39.4499,3.4151-9.5503,11.1473-30.5993,14.2416-39.8505,1.3293-4.3895,3.3517-8.7642,2.8581-13.4227-.4859-5.7566-2.3299-11.4413-3.6456-17.1312-.4504-2.1635-1.7069-8.1176-2.1793-10.364-.7162-3.4678-1.4472-6.9377-1.9746-10.4497-.3636-2.4269-.5367-5.1084.6759-7.4145,1.8489-3.3896,5.7595-4.7038,8.7595-6.4467,0,0-.3541.4537-.3541.4537.3533-1.2223.8279-2.5047,1.8241-3.5488.9922-1.0836,2.4685-1.4691,3.5556-1.7809,2.246-.7577,4.5722-1.87,6.9521-2.3906,0,0-.3353.1787-.3353.1787,2.6353-3.0871,4.3233-7.1068,6.5282-10.5506,1.1112-2.0228,3.3828-3.5792,5.7612-3.5276,2.3638.0144,4.6091,1.0449,6.1378,2.8831l-1.1774.9294h0Z" style="fill:#aebbc7; stroke-width:0px;"/><path d="m27.2067,138.8703c-1.4857,1.5057-2.5287,3.6277-3.2488,5.6564.2922-2.3165.8227-4.5533,2.0884-6.6071,0,0,1.1604.9506,1.1604.9506h0Z" style="fill:#aebbc7; stroke-width:0px;"/><polygon points="15.5623 145.8013 13.2819 151.0774 14.126 145.3687 15.5623 145.8013 15.5623 145.8013" style="fill:#aebbc7; stroke-width:0px;"/><path d="m56.4822,81.3169c-1.565-2.0309-5.3119-2.5836-7.118.0492-.2717,3.1938-.0203,5.5666,2.7631,5.5768,2.7833.0101,4.0166-2.0257,4.355-5.626Z" style="fill:none; stroke:#aebbc7; stroke-miterlimit:10; stroke-width:.5px;"/><path d="m55.1287,110.1514c-2.3823-.6604-4.7823-.4602-7.1719-.0171,2.177-1.126,5.0442-1.3136,7.1719.0171h0Z" style="fill:#aebbc7; stroke-width:0px;"/><path d="m55.1354,112.6569c-2.0183.9763-4.5247,1.0694-6.583.1658,2.2177.2183,4.3648.138,6.583-.1658h0Z" style="fill:#aebbc7; stroke-width:0px;"/><path d="m12.8404,199.2976c.7213-3.3589,2.1991-6.4342,3.6297-9.5189-.4957,1.6031-.9477,3.2182-1.3358,4.8409-.3683,1.5772-.7363,3.2401-.8021,4.8349,0,0-1.4917-.1569-1.4917-.1569h0Z" style="fill:#aebbc7; stroke-width:0px;"/><path d="m109.3395,73.4718c-18.0726,0-29.1663.1148-34.4814.4667-2.0453.1354-3.6247,1.7585-3.2927,4.646l.7731,6.7238c.2627,2.2844,1.5195,3.292,3.1291,3.4257,3.9492.3281,24.5901.3602,45.2969.3602" style="fill:none; stroke:#687581; stroke-miterlimit:10; stroke-width:.5px;"/><path d="m120.7645,87.2443c10.9134-.0265,19.472-.1073,22.2948-.3414.44-.0371,1.2597-.1053,1.455-1.8044l.7733-6.7242c.1035-.8986-.0389-1.6094-.4116-2.0563-.3413-.4092-.828-.5223-1.1762-.5456-4.9652-.3285-14.9201-.4625-34.3603-.4625" style="fill:none; stroke:#687581; stroke-miterlimit:10; stroke-width:.5px;"/><path d="m109.3395,75.3099c-19.4402,0-29.3951.134-34.3603.4625-.3482.0233-.8349.1364-1.1762.5456-.3727.4469-.5151,1.1577-.4116,2.0563l.7733,6.7242c.1953,1.6991,1.015,1.7673,1.455,1.8044,3.8593.3201,13.2383.3536,33.7198.3536.9845,0,10.4912,0,11.425-.0003" style="fill:none; stroke:#687581; stroke-miterlimit:10; stroke-width:.5px;"/><path d="m109.3395,73.4718c18.0726,0,29.1663.1148,34.4814.4667,2.0453.1354,3.6247,1.7585,3.2927,4.646l-.7731,6.7238c-.2627,2.2844-1.5195,3.292-3.1291,3.4257-2.9098.2417-11.329.3228-22.4468.3487" style="fill:none; stroke:#687581; stroke-miterlimit:10; stroke-width:.5px;"/><line x1="106.8" y1="79.747" x2="113.8776" y2="79.747" style="fill:none; stroke:#687581; stroke-linecap:round; stroke-linejoin:round; stroke-width:.5px;"/><line x1="106.8104" y1="81.4929" x2="113.8709" y2="81.4929" style="fill:none; stroke:#687581; stroke-linecap:round; stroke-linejoin:round; stroke-width:.5px;"/><line x1="106.8208" y1="83.2303" x2="113.8642" y2="83.2303" style="fill:none; stroke:#687581; stroke-linecap:round; stroke-linejoin:round; stroke-width:.5px;"/><path d="m131.7045,81.0813h-.5744c.0338-.2987-.159-.4594-.4592-.4594s-.5029.1517-.5362.4102c-.0356.2762.1661.3655.6041.5168.7016.2268.9482.4757.8876.9377-.0766.5811-.5972.9178-1.251.9178-.7805,0-1.1494-.4034-1.0843-.9887h.5734c-.0355.3549.1673.5501.5729.5501.3601,0,.5775-.1863.6111-.4436.0313-.2397-.15-.3688-.6229-.5199-.6006-.1865-.9364-.4181-.8708-.9301.0651-.5083.5074-.897,1.1896-.897.6415,0,1.0181.3082.9601.9059Z" style="fill:#687581; stroke-width:0px;"/><path d="m135.7405,81.7892c-.127.9282-.9765,1.6154-2.0407,1.6154-1.0696,0-1.7389-.6872-1.6166-1.6154.1224-.9265.9768-1.6138,2.0513-1.6138,1.069,0,1.7331.6873,1.606,1.6138Zm-3.063,0c-.0878.662.3436,1.1546,1.0842,1.1546.7352,0,1.2996-.4926,1.3897-1.1546.0899-.6587-.342-1.1493-1.0796-1.1493-.743,0-1.3067.4906-1.3943,1.1493Z" style="fill:#687581; stroke-width:0px;"/><path d="m138.4659,81.0813h-.5744c.0366-.2987-.1547-.4594-.4548-.4594s-.5043.1517-.5401.4102c-.0382.2762.1627.3655.5993.5168.6995.2268.9438.4757.8788.9377-.082.5811-.6058.9178-1.2596.9178-.7805,0-1.1456-.4034-1.075-.9887h.5734c-.0389.3549.1622.5501.5677.5501.3601,0,.5793-.1863.6153-.4436.0335-.2397-.1465-.3688-.618-.5199-.5988-.1865-.9325-.4181-.8621-.9301.0699-.5083.5158-.897,1.1981-.897.6415,0,1.0152.3082.9516.9059Z" style="fill:#687581; stroke-width:0px;"/><line x1="97.6713" y1="87.244" x2="97.2156" y2="75.3446" style="fill:none; stroke:#687581; stroke-miterlimit:10; stroke-width:.5px;"/><line x1="121.3857" y1="75.3277" x2="120.9468" y2="87.244" style="fill:none; stroke:#687581; stroke-miterlimit:10; stroke-width:.5px;"/><polygon points="85.5734 77.2546 80.5581 85.1916 91.6496 85.2096 85.5734 77.2546" style="fill:none; stroke:#687581; stroke-miterlimit:10; stroke-width:.5px;"/><polygon points="85.777 80.3037 83.7316 83.4531 88.2434 83.4604 85.777 80.3037" style="fill:none; stroke:#687581; stroke-miterlimit:10; stroke-width:.5px;"/></svg>