<?xml version="1.0" encoding="UTF-8"?><svg id="uuid-3af58b15-e398-4fc9-9789-6cfb49b82da5" xmlns="http://www.w3.org/2000/svg" width="218" height="171.541" xmlns:xlink="http://www.w3.org/1999/xlink" viewBox="0 0 218 171.541"><defs><linearGradient id="uuid-f46d8aae-70a6-4a96-a2f9-efb498dd513f" x1="45.251" y1="-18.527" x2="69.469" y2="15.265" gradientUnits="userSpaceOnUse"><stop offset="0" stop-color="#141b21" stop-opacity="0"/><stop offset="1" stop-color="#141b21"/></linearGradient></defs><line x1="170.295" y1="138.466" x2="144.296" y2="120.37" style="fill:none; stroke:#141b21; stroke-linecap:round; stroke-width:1.5px;"/><rect x="157.83" y="120.345" width="5.999" height="23.065" transform="translate(-39.289 188.539) rotate(-55.16)" style="fill:none; stroke:#141b21; stroke-linecap:round; stroke-width:1.5px;"/><polygon points="156.219 121.379 144.296 120.37 149.383 131.201 156.219 121.379" style="fill:none; stroke:#141b21; stroke-linecap:round; stroke-width:1.5px;"/><line x1="170.295" y1="138.466" x2="151.364" y2="125.29" style="fill:none; stroke:#f4ae3d; stroke-miterlimit:10; stroke-width:6px;"/><polygon points="156.219 121.379 144.296 120.37 149.383 131.201 156.219 121.379" style="fill:#f4ae3d;"/><path d="M-130.319,111.174l115.459-1.226,203.128-4.062s51.856-1.146,62.457-3.151,21.487-5.955,21.487-21.313V-55.413" style="fill:none; stroke:#687581; stroke-linecap:round; stroke-linejoin:round; stroke-width:.5px;"/><line x1="188.268" y1="105.886" x2="188.268" y2="-56.846" style="fill:none; stroke:#687581; stroke-linecap:round; stroke-linejoin:round; stroke-width:.5px;"/><path d="M130.037,51.954c-7.329,10.879-9.6,14.423-15.875,22.392-6.275,7.969-11.571,8.994-20.868,4.141-9.297-4.852-12.276-6.56-17.311-10.812-5.035-4.252-9.188-6.769-5.179-21.497,4.008-14.728,3.369-19.326,9.683-18.436,6.314.89,13.45,7.37,7.282,24.852,0,0,3.608.67,8.01,3.705,4.826-11.393,14.276-21.33,14.276-21.33l19.982,16.984Z" style="fill:#141b21; stroke:#aebbc7; stroke-linecap:round; stroke-linejoin:round; stroke-width:1.5px;"/><path d="M100.601,67.765c-2.6-2.764-6.198-7.193-5.058-11.281,1.328-2.967,2.959-5.776,4.646-8.555-.631,1.744-1.319,3.457-2.064,5.141-.505,1.246-1.188,2.494-1.662,3.742-.6,2.091.454,4.226,1.372,6.201.816,1.62,1.76,3.198,2.766,4.752h0Z" style="fill:#aebbc7;"/><path d="M88.52,49.832c-.574,4.604-5.094,8.124-9.605,8.302,4.188-1.685,7.573-4.189,9.605-8.302h0Z" style="fill:#aebbc7;"/><path d="M136.154,57.446c-6.723,12.122-8.789,16.059-14.668,25.022-5.878,8.962-11.36,10.524-21.59,6.264-10.23-4.26-13.522-5.786-19.21-9.802s-10.29-6.287-7.414-22.158c2.875-15.871,1.782-20.652,8.51-20.291,6.728.361,14.831,6.531,9.934,25.498,0,0,3.86.376,8.77,3.169,4.04-12.434,13.082-23.757,13.082-23.757l22.586,16.055Z" style="fill:#141b21; stroke:#aebbc7; stroke-linecap:round; stroke-linejoin:round; stroke-width:1.5px;"/><path d="M106.61,76.778c-2.967-2.686-7.147-7.013-6.327-11.407,1.125-3.243,2.579-6.351,4.083-9.437-.516,1.89-1.09,3.753-1.724,5.593-.421,1.359-1.028,2.733-1.414,4.092-.446,2.266.866,4.428,2.019,6.421,1.011,1.63,2.155,3.202,3.363,4.738h0Z" style="fill:#aebbc7;"/><path d="M92.255,59.001c-.226,4.889-4.634,8.975-9.354,9.616,4.268-2.115,7.632-5.091,9.354-9.616h0Z" style="fill:#aebbc7;"/><path d="M152.388,88.323c-.782-1.386-4.306-4.643-4.306-4.643,0-.802-.218-1.416-.416-1.802-.04-.069-.069-.139-.109-.208-.05-.089-.099-.178-.168-.257,0,0-2.524-2.396-3.089-2.871-.564-.475-1.049,0-1.049,0l-6.246-3.752c-.822-.495-1.762-.762-2.772-.851-6.039-.505-14.839,5.593-19.502,9.622-.465.396-.891.782-1.267,1.129-2.544,2.386-14.512,14.859-25.59,26.481-1.168,1.228-2.326,2.435-3.455,3.623-3.207,3.366-6.237,6.553-8.81,9.276-4.178,4.405-7.187,7.583-7.88,8.335-2.702,2.91-2.811,6.454-2.811,6.454v8.8h49.586c0-.148,17.888-18.977,28.658-32.846.94-1.218,1.831-2.396,2.643-3.514,1.574-2.158,2.881-4.108,3.801-5.751,4.306-7.672,3.564-15.829,2.782-17.225Z" style="fill:#404d59;"/><path d="M145.802,111.302c16.126.901,49.16,6.821,49.16,18.294,0,.643-.089,1.277-.267,1.881-3.118,11.196-34.073,16.185-58.832,16.185H34.336c-8.177,0-10.879-3.425-11.513-6.395v-.01c-.178-.861-.188-1.683-.109-2.366.356-3.039.406-10.414,1.247-17.878.851-7.573,13.235-9.84,24.323-9.84h39.587" style="fill:none; stroke:#aebbc7; stroke-miterlimit:10; stroke-width:1.5px;"/><path d="M143.159,114.817c14.067.327,48.219,5.682,51.536,16.661" style="fill:none; stroke:#aebbc7; stroke-miterlimit:10; stroke-width:.5px;"/><path d="M84.417,114.797h-36.132c-11.087,0-23.471,2.267-24.323,9.84-.742,6.573-.871,13.087-1.138,16.621v.01" style="fill:none; stroke:#aebbc7; stroke-miterlimit:10; stroke-width:.5px;"/><path d="M50.754,147.661s-.104-18.386,0-19.844.729-3.75,3.542-3.75h21.563" style="fill:none; stroke:#aebbc7; stroke-miterlimit:10; stroke-width:.5px;"/><path d="M64.921,147.661v-8.802s.104-3.542,2.813-6.458,40.939-43.23,45.73-47.71c4.792-4.479,17.292-13.646,23.542-9.896l6.25,3.75s.476-.473,1.042,0,3.088,2.865,3.088,2.865c0,0,.696.841.696,2.269,0,0,3.523,3.255,4.306,4.646s1.53,9.547-2.784,17.224c-6.916,12.309-35.275,42.111-35.101,42.111" style="fill:none; stroke:#aebbc7; stroke-miterlimit:10; stroke-width:1.5px;"/><path d="M72.461,147.141c14.273-15.186,28.869-30.202,43.3-45.232,3.973-4.65,7.551-9.886,9.859-15.574,1.517-3.973,2.108-8.584-3.69-5.734-1.853.853-3.629,1.966-5.406,3.078,2.331-2.153,4.792-4.469,8.038-5.177,3.171-.58,3.941,2.884,3.372,5.233-1.767,7.28-6.241,13.55-10.898,19.289-2.483,2.772-6.082,6.405-8.638,9.137-11.573,12.05-23.149,24.097-34.855,36.02l-1.082-1.039h0Z" style="fill:#aebbc7;"/><path d="M134.148,75.012c3.117,2.29,2.247,7.136,1.495,10.414-.93,3.556-2.76,6.963-4.781,10.019-4.248,6.088-9.06,11.736-13.926,17.317-9.881,11.032-20.052,21.81-30.685,32.12,10.354-10.577,20.54-21.331,30.311-32.45,4.902-5.537,9.752-11.146,14.026-17.174,2.029-3.013,3.862-6.383,4.821-9.897.819-3.243,1.781-8.006-1.26-10.35h0Z" style="fill:#aebbc7;"/><path d="M83.515,136.72v-5.416s-.063-2.716,2.735-5.679,28.064-29.216,30.45-31.602,6.449-5.586,8.656-5.139" style="fill:none; stroke:#aebbc7; stroke-miterlimit:10; stroke-width:.5px;"/><path d="M143.256,78.545c1.838,2.475-.306,10.739-8.12,21.897-8.641,12.339-26.088,30.821-42.137,47.219" style="fill:none; stroke:#aebbc7; stroke-miterlimit:10; stroke-width:.5px;"/><path d="M100.612,147.662c12.127-12.463,24.639-25.788,33.252-36.489,2.089-2.594,3.94-5.019,5.504-7.256,7.811-11.166,9.86-20.036,8.018-22.511" style="fill:none; stroke:#aebbc7; stroke-miterlimit:10;"/><path d="M114.503,147.659c0-.173,24.649-26.089,33.503-39.501.61-.944,1.151-1.808,1.6-2.613,2.993-5.331,3.546-10.891,3.35-14.253-.092-1.485-.322-2.544-.564-2.97-.783-1.382-4.306-4.64-4.306-4.64,0-1.428-.702-2.268-.702-2.268,0,0-2.521-2.395-3.085-2.867s-1.048,0-1.048,0l-6.24-3.753c-6.252-3.753-18.755,5.423-23.544,9.901-2.372,2.211-12.964,13.252-23.383,24.166-3.166,3.304-6.309,6.608-9.199,9.648-3.65,3.845-6.908,7.276-9.28,9.786-.495.53-.944,1.002-1.359,1.439-1.301,1.37-2.176,2.314-2.51,2.671-2.717,2.913-2.821,6.459-2.821,6.459v8.796" style="fill:none; stroke:#aebbc7; stroke-miterlimit:10; stroke-width:1.5px;"/><path d="M120.582,97.047c-.23-.219-.518-.437-.84-.679-3.454-2.51-10.88-5.964-9.084-10.327,1.094-2.683,4.375-4.651,8.98-4.628,1.911.012,4.053.357,6.355,1.151.507.207.898.656,1.163,1.301" style="fill:#141b21; stroke:#aebbc7; stroke-width:1.5px;"/><path d="M110.412,87.802c-.056-2.055,10.271,3.533,10.271,3.533,0,0,2.619,5.754-.962,5.028" style="fill:none; stroke:#aebbc7; stroke-linecap:round; stroke-linejoin:round; stroke-width:.5px;"/><path d="M73.002,147.661s36.585-38.08,42.163-43.847,14.369-19.569,11.722-23.823" style="fill:none; stroke:#aebbc7; stroke-miterlimit:10; stroke-width:1.5px;"/><path d="M180.219,90.427c-3.696,4.594-10.224,10.247-16.855,15.462-5.146,4.041-9.89,4.283-15.358,2.268.61-.944,1.151-1.808,1.6-2.613,2.993-5.331,3.546-10.891,3.35-14.253l.391.184s.127-8.416,2.406-12.158c-10.339-7.725-9.51-5.826-17.511-11.294-12.204-8.358-7.771-9.383-17.891-14.23-10.131-4.847-20.539-5.998-30.406-4.306-9.855,1.704-11.571,2.798-9.786,13.724,1.289,7.84,3.465,16.797,7.127,26.112,2.326,5.941,3.201,13.171,2.798,19.538-.23,3.661-.875,7.034-1.923,9.705-2.579,6.62-5.319,12.595-14.437,12.031-1.462-.092-2.59-.391-3.477-.863-3.592-1.946-2.855-6.839-2.429-12.227.023-.403.058-.806.081-1.22.288-4.502.933-9.187-2.452-15.439-5.699-10.546-1.969-10.627-10.834-26.1-18.064-31.534-17.776-28.564-21.242-51.705-2.59-17.327-4.502-19.71-14.357-31.937l85.047-33.883c2.28,3.96,2.441,7.898,3.972,10.166,3.477,5.112,5.02,6.505,11.168,12.768,16.233,16.544,23.141,24.811,30.072,32.778,6.942,7.956,7.817,11.479,6.298,18.548,6.09,9.959,3.396,15.508,23.521,38.638,8.658,9.959,4.824,15.727,1.128,20.309Z" style="fill:url(#uuid-f46d8aae-70a6-4a96-a2f9-efb498dd513f); stroke:#aebbc7; stroke-linecap:round; stroke-linejoin:round; stroke-width:1.5px;"/><path d="M157.295,35.417c-4.773-5.021-5.374-14.334-12.857-16.39,7.97.543,9.452,10.793,12.857,16.39h0Z" style="fill:#aebbc7;"/><path d="M79.111,57.252c-.289-3.951.398-8.751,4.102-11.001-2.608,3.199-2.975,7.188-4.102,11.001h0Z" style="fill:#aebbc7;"/><path d="M67.821,117.511c.08-1.485.809-3.787,1.279-5.138.245-.705.859-1.218,1.595-1.336,1.527-.244,4.347-.495,7.479.216.626.142,1.148.573,1.407,1.161,3.07,6.973-.195,14.638-.195,14.638,0,0-6.812,3.553-11.435-.563" style="fill:none; stroke:#aebbc7; stroke-linecap:round; stroke-linejoin:round; stroke-width:.5px;"/><path d="M318.339,152.585H-31.763c-17.763,0-36.672,0-40.11,15.757s-12.606,75.349-12.606,75.349" style="fill:none; stroke:#687581; stroke-linecap:round; stroke-linejoin:round; stroke-width:.5px;"/></svg>