<?xml version="1.0" encoding="UTF-8"?><svg xmlns="http://www.w3.org/2000/svg" width="654" height="244.852" viewBox="0 0 654 244.852"><g id="uuid-2271b31e-5a41-4dce-8169-a095dcbf7bf1"><path d="M106.967,138.973c.023,1.656-.017,3.399.453,4.821.448,1.403,2.227,1.613,3.836,1.842,7.107.704,14.978.758,16.34,9.572.611,6.749,1.708,23.292,2.252,30.264.046.743.23,3.056.272,3.801.152,1.177-1.457,5.099-1.742,6.224-1.075,3.191-2.145,6.385-3.389,9.52-.051.129-.197.191-.325.14-.119-.047-.182-.176-.15-.296.856-3.263,1.887-6.469,2.913-9.677.232-.912,1.829-5.016,1.68-5.88-.163-2.113-1.586-21.313-1.788-23.908-.125-1.667-.445-5.944-.566-7.557-.111-2.368-.481-4.972-1.995-6.848-3.036-3.971-9.137-3.657-13.637-4.306-1.736-.217-3.987-.604-4.662-2.522-.572-1.804-.463-3.5-.493-5.192-.005-.276.215-.504.491-.509.283-.005.513.226.509.509h0Z" style="fill:#687581;"/><path d="M528.542-184.802c16.431,22.685,52.739,82.579,59.364,95.035s32.332,106.007,41.343,156.36c0,0,19.611,30.742,20.936,44.258,1.325,13.516,0,42.933,0,42.933,0,0-6.175,37.974-8.717,44.414s-19.32,41.022-23.896,46.61" style="fill:none; stroke:#687581; stroke-linecap:round; stroke-linejoin:round; stroke-width:1.5px;"/><path d="M594.532,244.809c16.961-43.339,14.311-123.357,14.311-123.357.265-85.601-36.307-201.148-36.307-201.148l-5.3-14.576" style="fill:none; stroke:#687581; stroke-linecap:round; stroke-linejoin:round;"/><path d="M629.249,66.593s2.65,16.431,3.18,23.057c.53,6.625,1.06,16.431-3.18,21.996,0,0-11.396,7.686-20.406,9.806" style="fill:none; stroke:#687581; stroke-linecap:round; stroke-linejoin:round; stroke-width:.5px;"/><path d="M650.185,110.851c0,6.15-5.154,32.305-41.509,41.947" style="fill:none; stroke:#687581; stroke-linecap:round; stroke-linejoin:round; stroke-width:.5px;"/><path d="M650.485,145.487c-.133,4.062-6.017,34.572-44.463,45.93" style="fill:none; stroke:#687581; stroke-linecap:round; stroke-linejoin:round; stroke-width:.5px;"/><path d="M629.249,111.646c-.153-20.049-15.481-116.094-22.947-142.558" style="fill:none; stroke:#687581; stroke-linecap:round; stroke-linejoin:round; stroke-width:.5px;"/><path d="M124.752-184.802c-16.431,22.685-52.739,82.579-59.364,95.035-6.625,12.456-32.332,106.007-41.343,156.36,0,0-19.611,30.742-20.936,44.258-1.325,13.516,0,42.933,0,42.933,0,0,6.175,37.974,8.717,44.414,2.542,6.44,19.32,41.022,23.896,46.61" style="fill:none; stroke:#687581; stroke-linecap:round; stroke-linejoin:round; stroke-width:1.5px;"/><path d="M58.763,244.809c-16.961-43.339-14.311-123.357-14.311-123.357-.265-85.601,36.307-201.148,36.307-201.148l5.3-14.576" style="fill:none; stroke:#687581; stroke-linecap:round; stroke-linejoin:round;"/><path d="M24.046,66.593s-2.65,16.431-3.18,23.057c-.53,6.625-1.06,16.431,3.18,21.996,0,0,11.396,7.686,20.406,9.806" style="fill:none; stroke:#687581; stroke-linecap:round; stroke-linejoin:round; stroke-width:.5px;"/><path d="M3.109,110.851c0,6.15,5.154,32.305,41.509,41.947" style="fill:none; stroke:#687581; stroke-linecap:round; stroke-linejoin:round; stroke-width:.5px;"/><path d="M2.81,145.487c.133,4.062,6.017,34.572,44.463,45.93" style="fill:none; stroke:#687581; stroke-linecap:round; stroke-linejoin:round; stroke-width:.5px;"/><path d="M24.046,111.646c.153-20.049,15.481-116.094,22.947-142.558" style="fill:none; stroke:#687581; stroke-linecap:round; stroke-linejoin:round; stroke-width:.5px;"/><path d="M466.041,8.308s.048,6.034-1.629,6.207-58.067,0-58.067,0" style="fill:none; stroke:#687581; stroke-linecap:round; stroke-linejoin:round; stroke-width:.5px;"/><path d="M464.411,14.515c0,1.909-1.041,4.222-2.66,4.222h-46.775" style="fill:none; stroke:#687581; stroke-linecap:round; stroke-linejoin:round; stroke-width:.5px;"/><path d="M186.357,8.308s-.048,6.034,1.629,6.207c1.677.174,58.067,0,58.067,0" style="fill:none; stroke:#687581; stroke-linecap:round; stroke-linejoin:round; stroke-width:.5px;"/><path d="M187.986,14.515c0,1.909,1.041,4.222,2.66,4.222,1.619,0,46.775,0,46.775,0" style="fill:none; stroke:#687581; stroke-linecap:round; stroke-linejoin:round; stroke-width:.5px;"/><path d="M327.939,82.312h3.382c1.045,0,1.722,1.082,1.722,2.3v5.505" style="fill:none; stroke:#687581; stroke-linecap:round; stroke-linejoin:round; stroke-width:.5px;"/><path d="M341.896,90.117v-6.926c0-1.962-1.353-5.75-4.858-5.75h-3.997s-2.552.068-2.552-2.097V23.826c0-.939.761-1.701,1.701-1.701h87.679c4.671,0,16.873,1.267,28.694,4.706,0,0,4.29.996,6.292,6.154,2.002,5.159,13.441,43.08,13.155,43.08s-12.011,1.72-12.011,1.72c0,0-3.718.273-2.669,4.526.494,2.004,1.264,5.096,1.939,7.805" style="fill:none; stroke:#687581; stroke-linecap:round; stroke-linejoin:round; stroke-width:.5px;"/><path d="M465.564,90.117c-.501-1.873-.982-3.664-1.177-4.367-.477-1.72-.095-3.438,2.669-3.438h7.05" style="fill:none; stroke:#687581; stroke-linecap:round; stroke-linejoin:round; stroke-width:.5px;"/><path d="M325.483,238.181h194.096c8.021,0,21.413.255,25.75-11.735,4.337-11.99,11.607-51.199,13.01-68.711,1.403-17.512,6.883-64.211,6.748-95.546" style="fill:none; stroke:#687581; stroke-linecap:round; stroke-linejoin:round; stroke-width:.5px;"/><path d="M509.613-33.072c2.554-9.865,5.36-12.671,9.314-4.891,3.954,7.78,46.161,100.152,46.161,100.152,0,0,30.564-15.552,36.734-17.671" style="fill:none; stroke:#687581; stroke-linecap:round; stroke-linejoin:round; stroke-width:.5px;"/><path d="M593.318.069s-19.126-32.062-22.38-40.282-12.501-42.789-13.357-55.301" style="fill:none; stroke:#687581; stroke-linecap:round; stroke-linejoin:round; stroke-width:.5px;"/><path d="M142.785-33.072l9.22,35.619s14.897,3.539,21.465,5.709c4.445,1.468,5.007,5.034,4.952,7.414.719.622,2.364,4.46,2.62,9.138s3.783,36.041,3.783,36.041" style="fill:none; stroke:#687581; stroke-linecap:round; stroke-linejoin:round; stroke-width:.5px;"/><path d="M509.613-33.072l-9.22,35.619s-14.897,3.539-21.465,5.709c-4.445,1.468-5.007,5.034-4.952,7.414-.719.622-2.364,4.46-2.62,9.138s-3.783,36.041-3.783,36.041" style="fill:none; stroke:#687581; stroke-linecap:round; stroke-linejoin:round; stroke-width:.5px;"/><path d="M325.702,82.312h-3.382c-1.045,0-1.722,1.082-1.722,2.3v5.505" style="fill:none; stroke:#687581; stroke-linecap:round; stroke-linejoin:round; stroke-width:.5px;"/><path d="M311.744,90.117c0-2.865,0-5.953,0-6.926,0-1.962,1.353-5.75,4.858-5.75h3.997s2.552.068,2.552-2.097V23.826c0-.939-.761-1.701-1.701-1.701-11.987,0-83.401,0-87.679,0-4.671,0-16.873,1.267-28.694,4.706,0,0-4.29.996-6.292,6.154-2.002,5.159-13.441,43.08-13.155,43.08s12.011,1.72,12.011,1.72c0,0,3.718.273,2.669,4.526-.494,2.004-1.264,5.096-1.939,7.805" style="fill:none; stroke:#687581; stroke-linecap:round; stroke-linejoin:round; stroke-width:.5px;"/><path d="M188.076,90.117c.501-1.873.982-3.664,1.177-4.367.477-1.72.095-3.438-2.669-3.438-2.764,0-7.05,0-7.05,0" style="fill:none; stroke:#687581; stroke-linecap:round; stroke-linejoin:round; stroke-width:.5px;"/><path d="M326.914,238.181s-186.075,0-194.096,0c-8.021,0-21.413.255-25.75-11.735-4.337-11.99-11.607-51.199-13.01-68.711-1.403-17.512-6.883-64.211-6.748-95.546" style="fill:none; stroke:#687581; stroke-linecap:round; stroke-linejoin:round; stroke-width:.5px;"/><path d="M142.785-33.072c-2.554-9.865-5.36-12.671-9.314-4.891-3.954,7.78-46.161,100.152-46.161,100.152,0,0-28.187-14.342-35.888-17.357" style="fill:none; stroke:#687581; stroke-linecap:round; stroke-linejoin:round; stroke-width:.5px;"/><path d="M133.031,245.921l9.587-31.255c.057-.185.228-.312.422-.312h183.16" style="fill:none; stroke:#687581; stroke-linecap:round; stroke-linejoin:round; stroke-width:.5px;"/><path d="M142.617,214.666l1.388-4.603c.056-.186.228-.314.422-.314h181.771" style="fill:none; stroke:#687581; stroke-linecap:round; stroke-linejoin:round; stroke-width:.5px;"/><path d="M519.367,245.921l-9.587-31.255c-.057-.185-.228-.312-.422-.312h-183.16" style="fill:none; stroke:#687581; stroke-linecap:round; stroke-linejoin:round; stroke-width:.5px;"/><path d="M509.78,214.666l-1.388-4.603c-.056-.186-.228-.314-.422-.314h-181.771" style="fill:none; stroke:#687581; stroke-linecap:round; stroke-linejoin:round; stroke-width:.5px;"/><path d="M144.428,209.749h-.71c-.14,0-.271-.066-.354-.178s-.109-.257-.068-.39l23.867-79.353c.056-.186.228-.314.422-.314h158.614" style="fill:none; stroke:#687581; stroke-linecap:round; stroke-linejoin:round; stroke-width:.5px;"/><path d="M507.969,209.749h.71c.14,0,.271-.066.354-.178s.109-.257.068-.39l-23.867-79.353c-.056-.186-.228-.314-.422-.314h-158.614" style="fill:none; stroke:#687581; stroke-linecap:round; stroke-linejoin:round; stroke-width:.5px;"/><path d="M171.569,129.513l-.807-13.31c-.096-1.581.071-3.167.494-4.693l5.232-18.882c.411-1.484,1.762-2.511,3.302-2.511h141.752c1.892,0,3.426,1.534,3.426,3.426v14.276" style="fill:none; stroke:#687581; stroke-linejoin:round;"/><path d="M120.987,227.296v-9.971c0-.706.113-1.407.334-2.077l3.013-9.127" style="fill:none; stroke:#687581; stroke-linecap:round; stroke-linejoin:round; stroke-width:.5px;"/><path d="M531.41,227.296v-9.971c0-.706-.113-1.407-.334-2.077l-3.013-9.127" style="fill:none; stroke:#687581; stroke-linecap:round; stroke-linejoin:round; stroke-width:.5px;"/><path d="M120.305,147.472l10.464-28.191s14.865-.869,20.464-1.641,10.039-2.606,10.039-2.606h9.467" style="fill:none; stroke:#687581; stroke-linecap:round; stroke-linejoin:round; stroke-width:.5px;"/><path d="M148.908,17.014c1.439-3.361,2.404-5.624,2.615-6.133,1.158-2.799.483-8.334.483-8.334" style="fill:none; stroke:#687581; stroke-linecap:round; stroke-linejoin:round; stroke-width:.5px;"/><path d="M503.49,17.014c-1.439-3.361-2.404-5.624-2.615-6.133-1.158-2.799-.483-8.334-.483-8.334" style="fill:none; stroke:#687581; stroke-linecap:round; stroke-linejoin:round; stroke-width:.5px;"/><path d="M130.258,57.945c4.577-10.656,11.875-27.652,16.681-38.868.674-1.574,2.224-2.596,3.937-2.596h18.119c3.185,0,5.888,2.026,4.44,6.466s-11.197,34.171-12.452,37.356-1.931,5.695-9.942,6.467-13.996,1.062-17.182,1.158c-1.979.06-4.231.181-4.167-4.481.031-2.282-.085-3.984.567-5.503Z" style="fill:none; stroke:#687581; stroke-linecap:round; stroke-linejoin:round; stroke-width:.5px;"/><path d="M130.769,119.282l-4.234-48.194c-.093-1.054.076-2.12.493-3.092.572-1.332,1.502-3.497,2.673-6.223" style="fill:none; stroke:#687581; stroke-linecap:round; stroke-linejoin:round; stroke-width:.5px;"/><path d="M521.628,119.282l4.234-48.194c.093-1.054-.076-2.12-.493-3.092-.572-1.332-1.502-3.497-2.673-6.223" style="fill:none; stroke:#687581; stroke-linecap:round; stroke-linejoin:round; stroke-width:.5px;"/><path d="M106.467,140.655c0-48.144.75-61.786.75-61.786" style="fill:none; stroke:#687581; stroke-linecap:round; stroke-linejoin:round; stroke-width:.5px;"/><path d="M106.467,137.944l21.317-52.638s16.756-.903,22.162-1.675,11.776-2.317,13.45-7.98,15.38-47.299,16.152-50.13.724-4.362.216-6.12" style="fill:none; stroke:#687581; stroke-linecap:round; stroke-linejoin:round; stroke-width:.5px;"/><path d="M106.79,94.441l15.931-35.6c.055-.122.184-.192.316-.17s.233.129.246.262l2.118,21.854c.061.633-.033,1.271-.276,1.859l-18.639,45.194" style="fill:none; stroke:#687581; stroke-linecap:round; stroke-linejoin:round; stroke-width:.5px;"/><path d="M126.802,74.124s13.234-.983,22.887-1.562,11.197-3.765,12.935-8.591,14.672-44.306,15.799-48.3" style="fill:none; stroke:#687581; stroke-linecap:round; stroke-linejoin:round; stroke-width:.5px;"/><path d="M153.742,16.673s2.22-2.268,10.763-2.268,8.681,3.962,8.681,3.962" style="fill:none; stroke:#687581; stroke-linecap:round; stroke-linejoin:round; stroke-width:.5px;"/><path d="M152.03,8.844s9.496,1.372,16.529,2.616c5.49.971,7.436.748,4.804,7.203" style="fill:none; stroke:#687581; stroke-linecap:round; stroke-linejoin:round; stroke-width:.5px;"/><path d="M128.274,65.094c-.7,1.63-1.752,1.097-2.428-4.984s-3.572-26.449-4.344-31.951-1.255-9.653,1.544-15.637,15.282-32.22,16.69-34.754c2.072-3.73,4.995-3.316,7.324,5.68" style="fill:none; stroke:#687581; stroke-linecap:round; stroke-linejoin:round; stroke-width:.5px;"/><path d="M509.613-33.072l-9.22,35.619s-14.897,3.539-21.465,5.709c-4.445,1.468-5.007,5.034-4.952,7.414-.719.622-2.364,4.46-2.62,9.138s-3.783,36.041-3.783,36.041" style="fill:none; stroke:#687581; stroke-linecap:round; stroke-linejoin:round; stroke-width:.5px;"/><path d="M522.139,57.945c-4.577-10.656-11.875-27.652-16.681-38.868-.674-1.574-2.224-2.596-3.937-2.596-5.144,0-15.73,0-18.119,0-3.185,0-5.888,2.026-4.44,6.466s11.197,34.171,12.452,37.356,1.931,5.695,9.942,6.467,13.996,1.062,17.182,1.158c1.979.06,4.231.181,4.167-4.481-.031-2.282.085-3.984-.567-5.503Z" style="fill:none; stroke:#687581; stroke-linecap:round; stroke-linejoin:round; stroke-width:.5px;"/><path d="M545.93,137.944l-21.317-52.638s-16.756-.903-22.162-1.675-11.776-2.317-13.45-7.98-15.38-47.299-16.152-50.13-.724-4.362-.216-6.12" style="fill:none; stroke:#687581; stroke-linecap:round; stroke-linejoin:round; stroke-width:.5px;"/><path d="M525.596,74.124s-13.234-.983-22.887-1.562-11.197-3.765-12.935-8.591-14.672-44.306-15.799-48.3" style="fill:none; stroke:#687581; stroke-linecap:round; stroke-linejoin:round; stroke-width:.5px;"/><path d="M498.655,16.673s-2.22-2.268-10.763-2.268-8.681,3.962-8.681,3.962" style="fill:none; stroke:#687581; stroke-linecap:round; stroke-linejoin:round; stroke-width:.5px;"/><path d="M500.367,8.844s-9.496,1.372-16.529,2.616c-5.49.971-7.436.748-4.804,7.203" style="fill:none; stroke:#687581; stroke-linecap:round; stroke-linejoin:round; stroke-width:.5px;"/><path d="M524.123,65.094c.7,1.63,1.752,1.097,2.428-4.984s3.572-26.449,4.344-31.951,1.255-9.653-1.544-15.637-15.282-32.22-16.69-34.754c-2.072-3.73-4.995-3.316-7.324,5.68" style="fill:none; stroke:#687581; stroke-linecap:round; stroke-linejoin:round; stroke-width:.5px;"/><path d="M106.496,124.976s-5.457,14.576-7.098,17.568-3.204,3.389-6.332,4.253" style="fill:none; stroke:#687581; stroke-linecap:round; stroke-linejoin:round; stroke-width:.5px;"/><path d="M121.255,176.857c0-.482-.241-.935-.641-1.204-2.089-1.403-4.319-1.499-6.216-1.499h-7.326c-.8,0-1.449.649-1.449,1.449v5.993c0,.8.649,1.449,1.449,1.449h7.326c1.924,0,4.193.098,6.309,1.562.107.074.246.082.361.022s.187-.179.187-.309v-7.463Z" style="fill:none; stroke:#687581; stroke-linecap:round; stroke-linejoin:round; stroke-width:.5px;"/><path d="M106.034,147.168c-1.255,2.714-2.276,5.575-3.088,8.447-1.637,5.777-1.413,11.894-1.294,17.853.059,12.052,2.215,23.925,4.679,35.685.535,2.96,1.094,5.916,1.688,8.866-.757-2.913-1.478-5.835-2.177-8.764-2.471-11.787-4.63-23.693-4.689-35.772-.121-6.012-.342-12.154,1.312-18.007.972-2.862,2.157-5.642,3.57-8.307h0Z" style="fill:#687581;"/><path d="M546.364,147.168c1.413,2.665,2.598,5.445,3.57,8.307,1.654,5.854,1.433,11.995,1.312,18.007-.06,12.079-2.219,23.985-4.69,35.772-.699,2.929-1.421,5.851-2.177,8.764.594-2.95,1.153-5.907,1.688-8.866,2.464-11.76,4.62-23.633,4.679-35.685.119-5.958.343-12.076-1.294-17.853-.812-2.873-1.833-5.733-3.088-8.447h0Z" style="fill:#687581;"/><path d="M121.421,214.945c-.627,1.861-.112,2.022,2.687,2.022h13.485c1.035,0,1.976-.07,2.425-1.806s.924-1.677,2.955-1.677" style="fill:none; stroke:#687581; stroke-linecap:round; stroke-linejoin:round; stroke-width:.5px;"/><line x1="144.215" y1="206.122" x2="124.335" y2="206.122" style="fill:none; stroke:#687581; stroke-linecap:round; stroke-linejoin:round; stroke-width:.5px;"/><path d="M530.976,214.945c.627,1.861.112,2.022-2.687,2.022s-12.037,0-13.485,0c-1.035,0-1.976-.07-2.425-1.806s-.924-1.677-2.955-1.677" style="fill:none; stroke:#687581; stroke-linecap:round; stroke-linejoin:round; stroke-width:.5px;"/><line x1="508.182" y1="206.122" x2="528.062" y2="206.122" style="fill:none; stroke:#687581; stroke-linecap:round; stroke-linejoin:round; stroke-width:.5px;"/><path d="M122.326,151.534c-.675,1.692-1.467,3.339-2.052,5.044-1.638,5.2-1.5,10.75-2.267,16.127.205-5.436.079-11.064,1.907-16.258.674-1.712,1.55-3.309,2.412-4.913h0Z" style="fill:#687581;"/><path d="M120.375,214.054c-1.732-1.808-1.309-4.668-1.557-6.968,0,0-.312-7.258-.312-7.258-.12-4.264-.3-10.316-.259-14.528.334,4.174.581,10.264.758,14.512,0,0,.196,7.262.196,7.262.184,2.308-.4,5.07,1.174,6.979h0Z" style="fill:#687581;"/><path d="M171.817,109.985c.417-1.504,1.161-1.709,3.382-1.709h151" style="fill:none; stroke:#687581; stroke-linecap:round; stroke-linejoin:round; stroke-width:.5px;"/><path d="M170.739,115.338c.417-1.504,1.161-1.709,3.382-1.709h152.078" style="fill:none; stroke:#687581; stroke-linecap:round; stroke-linejoin:round; stroke-width:.5px;"/><path d="M326.199,119.517h-149.321c-1.037,0-1.878.841-1.878,1.878,0,.879.61,1.641,1.469,1.833l14.326,3.202c.745.167,1.506.251,2.27.251h133.135" style="fill:none; stroke:#687581; stroke-linecap:round; stroke-linejoin:round; stroke-width:.5px;"/><path d="M480.828,129.513l.807-13.31c.096-1.581-.071-3.167-.494-4.693l-5.232-18.882c-.411-1.484-1.762-2.511-3.302-2.511h-141.752c-1.892,0-3.426,1.534-3.426,3.426v14.276" style="fill:none; stroke:#687581; stroke-linejoin:round;"/><path d="M532.092,147.472l-10.464-28.191s-14.865-.869-20.464-1.641-10.039-2.606-10.039-2.606h-9.467" style="fill:none; stroke:#687581; stroke-linecap:round; stroke-linejoin:round; stroke-width:.5px;"/><path d="M545.931,140.655c0-48.144-.75-61.786-.75-61.786" style="fill:none; stroke:#687581; stroke-linecap:round; stroke-linejoin:round; stroke-width:.5px;"/><path d="M545.902,124.976s5.457,14.576,7.098,17.568,3.204,3.389,6.332,4.253" style="fill:none; stroke:#687581; stroke-linecap:round; stroke-linejoin:round; stroke-width:.5px;"/><path d="M531.143,176.857c0-.482.241-.935.641-1.204,2.089-1.403,4.319-1.499,6.216-1.499h7.326c.8,0,1.449.649,1.449,1.449v5.993c0,.8-.649,1.449-1.449,1.449h-7.326c-1.924,0-4.193.098-6.309,1.562-.107.074-.246.082-.361.022s-.187-.179-.187-.309v-7.463Z" style="fill:none; stroke:#687581; stroke-linecap:round; stroke-linejoin:round; stroke-width:.5px;"/><path d="M530.071,151.534c.861,1.605,1.738,3.202,2.412,4.913,1.827,5.194,1.702,10.822,1.907,16.258-.767-5.377-.629-10.927-2.267-16.127-.585-1.705-1.377-3.353-2.052-5.044h0Z" style="fill:#687581;"/><path d="M532.022,214.054c1.574-1.909.99-4.671,1.174-6.979,0,0,.196-7.262.196-7.262.178-4.262.422-10.314.758-14.512.042,4.187-.138,10.278-.259,14.528,0,0-.312,7.258-.312,7.258-.248,2.301.175,5.16-1.557,6.968h0Z" style="fill:#687581;"/><path d="M480.58,109.985c-.417-1.504-1.161-1.709-3.382-1.709s-151,0-151,0" style="fill:none; stroke:#687581; stroke-linecap:round; stroke-linejoin:round; stroke-width:.5px;"/><path d="M481.658,115.338c-.417-1.504-1.161-1.709-3.382-1.709s-151,0-151,0h-1.078" style="fill:none; stroke:#687581; stroke-linecap:round; stroke-linejoin:round; stroke-width:.5px;"/><path d="M326.199,119.517h149.321c1.037,0,1.878.841,1.878,1.878,0,.879-.61,1.641-1.469,1.833l-14.326,3.202c-.745.167-1.506.251-2.27.251h-133.135" style="fill:none; stroke:#687581; stroke-linecap:round; stroke-linejoin:round; stroke-width:.5px;"/><path d="M326.199,182.345h-15.487c-1.813,0-5.007.259-5.784,4.057s-1.122,8.115-1.295,9.928.95,3.194,3.798,3.194h18.767" style="fill:none; stroke:#687581; stroke-linecap:round; stroke-linejoin:round; stroke-width:.5px;"/><path d="M326.199,185.049h-10.608c-1.609,0-3.078.308-3.285,2.574-.175,1.914-.258,3.238-.294,3.951-.008.161.05.319.161.435s.265.183.427.183h13.6" style="fill:none; stroke:#687581; stroke-linecap:round; stroke-linejoin:round; stroke-width:.5px;"/><path d="M313.721,192.192s-.386-2.059,1.673-2.059h10.805" style="fill:none; stroke:#687581; stroke-linecap:round; stroke-linejoin:round; stroke-width:.5px;"/><path d="M326.199,182.345h15.487c1.813,0,5.007.259,5.784,4.057s1.122,8.115,1.295,9.928-.95,3.194-3.798,3.194-18.767,0-18.767,0" style="fill:none; stroke:#687581; stroke-linecap:round; stroke-linejoin:round; stroke-width:.5px;"/><path d="M326.199,185.049h10.608c1.609,0,3.078.308,3.285,2.574.175,1.914.258,3.238.294,3.951.008.161-.05.319-.161.435s-.265.183-.427.183h-13.6" style="fill:none; stroke:#687581; stroke-linecap:round; stroke-linejoin:round; stroke-width:.5px;"/><path d="M338.676,192.192s.386-2.059-1.673-2.059h-10.805" style="fill:none; stroke:#687581; stroke-linecap:round; stroke-linejoin:round; stroke-width:.5px;"/><path d="M388.169,42.928c-.09-1.447.95-2.126,2.488-2.126h9.407c1.538,0,3.166.317,3.437,2.08s.543,4.025.633,5.518-.724,2.171-2.397,2.171h-9.905c-1.357,0-2.849-.407-3.121-2.307s-.543-5.337-.543-5.337Z" style="fill:none; stroke:#687581; stroke-linecap:round; stroke-linejoin:round; stroke-width:.5px;"/><path d="M390.948,42.39c-.006-.107.032-.212.105-.29s.176-.122.283-.122h8.909c.184,0,.343.129.381.309.133.641.44,2.143.614,3.219.166,1.027.089,2.296.036,2.902-.018.201-.186.355-.387.355h-8.269c-.13,0-.251-.065-.323-.172-.258-.385-.842-1.413-1.051-3.084-.183-1.465-.263-2.559-.296-3.116Z" style="fill:none; stroke:#687581; stroke-linecap:round; stroke-linejoin:round; stroke-width:.5px;"/><line x1="391.428" y1="46.511" x2="401.194" y2="46.511" style="fill:none; stroke:#687581; stroke-linecap:round; stroke-linejoin:round; stroke-width:.5px;"/><path d="M266.299,42.928c.09-1.447-.95-2.126-2.488-2.126h-9.407c-1.538,0-3.166.317-3.437,2.08s-.543,4.025-.633,5.518.724,2.171,2.397,2.171h9.905c1.357,0,2.849-.407,3.121-2.307s.543-5.337.543-5.337Z" style="fill:none; stroke:#687581; stroke-linecap:round; stroke-linejoin:round; stroke-width:.5px;"/><path d="M263.519,42.39c.006-.107-.032-.212-.105-.29s-.176-.122-.283-.122h-8.909c-.184,0-.343.129-.381.309-.133.641-.44,2.143-.614,3.219-.166,1.027-.089,2.296-.036,2.902.018.201.186.355.387.355h8.269c.13,0,.251-.065.323-.172.258-.385.842-1.413,1.051-3.084.183-1.465.263-2.559.296-3.116Z" style="fill:none; stroke:#687581; stroke-linecap:round; stroke-linejoin:round; stroke-width:.5px;"/><line x1="263.039" y1="46.511" x2="253.273" y2="46.511" style="fill:none; stroke:#687581; stroke-linecap:round; stroke-linejoin:round; stroke-width:.5px;"/><path d="M205.58,26.019h-18.101L180.95-.413s-.478-1.911-3.503-3.503c-3.025-1.592-5.255-4.618-5.891-6.528s-6.847-35.348-9.076-56.366c0,0-2.866-8.28-3.025-17.833s2.388-17.197,4.14-21.655,10.668-9.872,23.884-9.872h5.897" style="fill:none; stroke:#687581; stroke-linecap:round; stroke-linejoin:round;"/><path d="M276.973-112.914l-.667,5.229,5.394,97.868s0,2.74,2.397,3.425,4.624.599,4.881,3.339,2.409,22.591,2.409,22.591" style="fill:none; stroke:#687581; stroke-linecap:round; stroke-linejoin:round; stroke-width:.5px;"/><path d="M270.891,13.717c.257-.428-1.264-13.858-1.264-13.858,0,0-1.113-4.881,2.911-5.651,4.024-.771,5.48-.771,5.48-.771,0,0,3.254-.342,3.682-3.254" style="fill:none; stroke:#687581; stroke-linecap:round; stroke-linejoin:round; stroke-width:.5px;"/><path d="M175.507-14.252c-4.138-18.943-8.517-54.274-10.003-74.875-.396-11.489,10.201-15.549,19.511-15.747,9.31-.198,73.686-.099,77.846,0,4.16.099,7.23.99,7.329,5.546.099,4.556,4.655,82.996,4.655,82.996,0,0,.693,3.466-1.684,3.466h-6.636s-6.438,1.288-5.546,9.013c.891,7.725,1.288,11.885,1.288,11.885,0,0,.495,4.16-2.674,4.16h-65.268s-3.863.099-4.358-3.466c-.495-3.565-2.377-15.252-2.377-15.252,0,0-.792-4.457-4.556-5.249-3.764-.792-7.083-.442-7.527-2.476Z" style="fill:none; stroke:#687581; stroke-linecap:round; stroke-linejoin:round; stroke-width:.5px;"/><path d="M326.754-104.988h-41.959c-2.2,0-3.731,1.541-3.635,4.316.086,2.5,3.824,71.889,4.562,85.582.072,1.34,1.121,2.418,2.458,2.532l3.075.262c2.064.176,3.693,1.828,3.841,3.894l1.244,17.475c.125,1.758,1.588,3.12,3.35,3.12h27.064" style="fill:none; stroke:#687581; stroke-linecap:round; stroke-linejoin:round; stroke-width:.5px;"/><path d="M446.404,26.019h19.626l6.528-26.432s.478-1.911,3.503-3.503,5.255-4.618,5.891-6.528c.637-1.911,6.847-35.348,9.076-56.366,0,0,2.866-8.28,3.025-17.833.159-9.554-2.388-17.197-4.14-21.655-1.752-4.458-10.668-9.872-23.884-9.872h-5.897" style="fill:none; stroke:#687581; stroke-linecap:round; stroke-linejoin:round;"/><path d="M376.536-112.914l.667,5.229-5.394,97.868s0,2.74-2.397,3.425-4.624.599-4.881,3.339c-.257,2.74-1.284,22.6-1.284,22.6" style="fill:none; stroke:#687581; stroke-linecap:round; stroke-linejoin:round;"/><path d="M383.14,13.752c-.257-.428.742-13.893.742-13.893,0,0,1.113-4.881-2.911-5.651-4.024-.771-5.48-.771-5.48-.771,0,0-3.254-.342-3.682-3.254" style="fill:none; stroke:#687581; stroke-linecap:round; stroke-linejoin:round; stroke-width:.5px;"/><path d="M478.002-14.252c4.138-18.943,8.517-54.274,10.003-74.875.396-11.489-10.201-15.549-19.511-15.747-9.31-.198-73.686-.099-77.846,0s-7.23.99-7.329,5.546-4.655,82.996-4.655,82.996c0,0-.693,3.466,1.684,3.466s6.636,0,6.636,0c0,0,6.438,1.288,5.546,9.013-.891,7.725-1.288,11.885-1.288,11.885,0,0-.495,4.16,2.674,4.16s65.268,0,65.268,0c0,0,3.863.099,4.358-3.466s2.377-15.252,2.377-15.252c0,0,.792-4.457,4.556-5.249s7.083-.442,7.527-2.476Z" style="fill:none; stroke:#687581; stroke-linecap:round; stroke-linejoin:round; stroke-width:.5px;"/><path d="M326.754-104.988s39.759,0,41.959,0c2.2,0,3.731,1.541,3.635,4.316-.086,2.5-3.824,71.889-4.562,85.582-.072,1.34-1.121,2.418-2.458,2.532l-3.075.262c-2.064.176-3.693,1.828-3.841,3.894l-1.244,17.475c-.125,1.758-1.588,3.12-3.35,3.12h-27.064" style="fill:none; stroke:#687581; stroke-linecap:round; stroke-linejoin:round; stroke-width:.5px;"/><path d="M473.271,90.181c.451-3.267.911-6.942.836-7.87-.142-1.759-10.616-39.166-15.176-49.99-2.921-6.088-6.555-6.967-10.046-7.982s-14.677-4.126-29.07-4.397c-14.392-.271-89.171-.541-89.171-.541,0,0-2.705,0-2.705,2.503s-.51,71.638-.51,71.638" style="fill:none; stroke:#687581; stroke-linecap:round; stroke-linejoin:round;"/><path d="M180.361,90.117c-.449-3.251-.902-6.884-.827-7.805.142-1.759,10.616-39.166,15.176-49.99,2.921-6.088,6.555-6.967,10.046-7.982s14.677-4.126,29.07-4.397c14.392-.271,89.171-.541,89.171-.541,0,0,2.705,0,2.705,2.503,0,2.041-.178,68.373-.178,86.17" style="fill:none; stroke:#687581; stroke-linecap:round; stroke-linejoin:round;"/><path d="M415.721,20.082s-1.116-3.358-5.929-4.962c-3.673-1.74-39.116-1.998-41.436,0,0,0-1.675,1.218-3.48,4.282" style="fill:none; stroke:#687581; stroke-linecap:round; stroke-linejoin:round;"/><path d="M236.677,20.082s1.116-3.358,5.929-4.962c3.673-1.74,39.116-1.998,41.436,0,0,0,1.675,1.218,3.48,4.282" style="fill:none; stroke:#687581; stroke-linecap:round; stroke-linejoin:round;"/><path d="M545.892,122.629s-13.053-31.919-14.598-35.523-3.218-7.207-2.317-17.246c.85-9.472,4.221-33.036,5.464-39.344.486-2.469,1.148-4.858,1.969-7.158" style="fill:none; stroke:#687581; stroke-linecap:round; stroke-linejoin:round; stroke-width:.5px;"/><path d="M509.662-24.397c.782-4.073.782-6.261,4.643,1.332,3.184,6.263,17.267,36.142,22.105,46.422,1.525,3.24,3.048,6.481,4.569,9.722" style="fill:none; stroke:#687581; stroke-linecap:round; stroke-linejoin:round; stroke-width:.5px;"/></g><g id="uuid-5dafb62b-95ac-416c-99af-7323cd6a66c7"><path d="M546.431,139.198c-.044,4.432.211,7.253-5.155,7.714-7.191.789-14.918.697-15.537,9.894-.183,2.268-.478,6.507-.661,8.816-.201,2.666-1.628,21.685-1.788,23.908-.012.372.03.745.125,1.105l1.555,4.775c1.025,3.208,2.057,6.413,2.913,9.677.088.279-.374.451-.475.156-1.245-3.136-2.314-6.329-3.389-9.52-.289-1.133-1.909-5.112-1.742-6.224.058-.769.208-2.994.273-3.801.273-3.777,1.594-21.831,1.836-25.186.084-.821.2-2.981.276-3.778.298-6.746,5.167-9.934,11.464-10.344,0,0,5.016-.529,5.016-.529,1.609-.229,3.388-.439,3.836-1.842.472-1.427.43-3.177.453-4.837-.001-.633,1.015-.655,1,.016h0Z" style="fill:#687581;"/><path d="M139.771,188.565c-4.695-.185-8.134,2.36-8.683,4.124-.555,1.764-2.23,6.572-2.23,6.572-.718,2.144,1.241,2.737,1.941,2.723.7-.014,7.099.229,9.529.172,2.437-.057,3.453-1.712,3.694-2.42.241-.701,1.04-3.778,1.582-6.228.535-2.45-1.132-4.758-5.834-4.943ZM140.275,197.921l-5.782-.104c.174-.454.362-.928.534-1.348.531-1.281,1.708-2.2,4.115-2.204,1.234-.005,1.964.344,2.36.795-.217.769-.592,1.958-.772,2.533-.058.201-.25.331-.455.328Z" style="fill:#f4ae3d;"/><path d="M128.859,199.26s1.672-4.808,2.226-6.572,3.992-4.312,8.689-4.126,6.365,2.497,5.828,4.945-1.338,5.526-1.58,6.231-1.256,2.359-3.69,2.417c-2.434.058-8.834-.184-9.533-.172s-2.66-.58-1.94-2.723Z" style="fill:none; stroke:#141b21; stroke-miterlimit:10;"/><path d="M138.664,189.556c-2.38.222-4.881,1.465-5.653,3.794-.298.885-1.095,3.27-1.419,4.18,0,0-.225-.313-.225-.313.314.006,1.436.026,1.722.031-.45.728-.884,1.932-.956,2.738.099.211.347.118.58.144,1.822.031,5.488.1,7.31.132.607.052.875-.443.99-.949,0,0,.558-1.741.558-1.741l.044-.138c.522-.083,1.153-.29,1.354-.811.316-1.291.679-2.654,1.022-3.924.101-1.115-.575-2.208-1.569-2.772,1.159.357,2.071,1.552,2.014,2.816-.212,1.209-.539,2.303-.833,3.48-.094.934-.879,1.557-1.769,1.66,0,0,.196-.165.196-.165l-.558,1.741c-.1.294-.2.705-.45.913-.26.263-.665.397-1.006.37l-3.655-.066s-3.655-.066-3.655-.066c-.171-.008-.263.007-.498-.021-.483-.069-.677-.663-.51-1.016.208-.761.375-1.489.779-2.218,0,0,.2.366.2.366-.207-.005-1.453-.025-1.643-.03,0,0,.101-.307.101-.307.323-.93,1.079-3.33,1.407-4.224.824-2.443,3.697-3.694,6.123-3.605h0Z" style="fill:#141b21;"/><path d="M132.241,197.474s.878-2.544,1.378-3.751,2.527-2.945,5.725-2.786,4.504,1.613,4.421,3.709" style="fill:none; stroke:#141b21; stroke-miterlimit:10; stroke-width:.5px;"/><path d="M136.975,192.72c-.881.324-1.637.962-1.974,1.814-.054.138-1.056,2.947-1.06,2.959-.029.138.171.1.249.107,0,0,.352.004.352.004l1.406.014,2.813.028,1.406.036c.226.023.279-.038.34-.15.139-.421.479-1.567.62-2.003,0,0,.208-.669.208-.669.845-2.433-2.776-2.574-4.359-2.139,2.334-.829,5.957-.407,4.568,2.923,0,0-.395,1.355-.395,1.355-.117.304-.173.938-.532,1.077-.313.178-1.513.037-1.864.07-1.221-.038-3.559-.087-4.757-.125-.569-.104-.515-.566-.299-.981.715-1.659,1.219-3.931,3.28-4.318h0Z" style="fill:#141b21;"/><path d="M134.493,197.817c.174-.454.362-.928.534-1.348.531-1.281,1.708-2.2,4.115-2.204,1.234-.005,1.964.344,2.36.795" style="fill:none; stroke:#141b21; stroke-miterlimit:10; stroke-width:.5px;"/><path d="M131.067,198.014c-.127.749-.253,1.509-.49,2.232-.1.364-.025.556.248.644,2.492.301,5.31.165,7.846.266,3.877.222,2.976-.619,4.451-3.486-.207,1.472-.283,3.627-2.135,3.894-1.163.202-3.36.011-4.597.035-1.937-.134-3.847.119-5.759-.236-.496-.15-.659-.825-.429-1.242.31-.691.566-1.401.866-2.105h0Z" style="fill:#141b21;"/><path d="M166.507,118.855h-7.232c-1.378,0-2.724.393-3.001,1.256-.277.856-1.5,5.113-1.5,5.113-.18.618-.367,3.278,4.933,3.523,5.3.251,7.167-2.756,7.412-3.523s.953-3.832,1.133-4.901c.187-1.075-.914-1.468-1.745-1.468ZM163.622,126.106c-.058.251-.238.464-.483.56-.457.174-1.224.374-2.267.451-.238.013-.477.026-.702.026h-.006c-.264,0-.502-.013-.721-.032l.399-1.333c.077-.245.303-.412.56-.412h3.413l-.193.741ZM157.382,127.246c.38.187.799.341,1.178.496-.535-.116-.94-.283-1.178-.496ZM163.97,127.265c.238-.129.457-.258.657-.393-.161.142-.386.27-.657.393Z" style="fill:#f4ae3d;"/><path d="M154.773,125.226s1.226-4.259,1.501-5.117,1.624-1.256,3.003-1.256h7.231c.827,0,1.93.398,1.747,1.471s-.889,4.137-1.134,4.903-2.114,3.769-7.415,3.524-5.112-2.905-4.933-3.524Z" style="fill:none; stroke:#141b21; stroke-miterlimit:10;"/><path d="M164.91,126.467l.831-3.481c.083-.349-.181-.684-.54-.684h-5.884c-.505,0-.949.333-1.09.818l-1.043,3.583v.002c-.02.052-.026.109-.02.161.052.708,1.829,1.166,3.973,1.017,1.99-.142,3.593-.747,3.774-1.404v-.013h0Z" style="fill:none; stroke:#141b21; stroke-miterlimit:10; stroke-width:.5px;"/><path d="M159.864,123.59c1.334-.086,2.557-.189,3.982-.154.333.096.557.471.476.812-.038.152-.25,1.025-.293,1.197-.093.299-.137.728-.289,1.004-.185.357-.606.496-.96.599-1.143.31-2.324.37-3.493.246-.554.029-1.031-.438-.84-.996.05-.143.337-.999.394-1.162,0,0,.336-.924.336-.924.07-.31.318-.67.688-.623-.364.027-.513.334-.561.661-.108.477-.348,1.433-.475,1.905-.183.499-.008.763.503.722,1.102.089,2.252.005,3.31-.309.257-.084.542-.117.687-.36.183-.447.366-1.337.517-1.822.068-.196.134-.495-.122-.588-1.23-.094-2.616-.09-3.858-.208h0Z" style="fill:#141b21;"/><path d="M159.443,127.111l.399-1.333c.077-.245.303-.412.56-.412h3.413" style="fill:none; stroke:#141b21; stroke-miterlimit:10; stroke-width:.5px;"/><path d="M158.578,127.745c-1.161-.468-2.742-.961-2.452-2.38s1.209-4.568,1.209-4.568c0,0,.366-1.036,1.505-1.098s5.965.021,6.732,0,1.657.186,1.491.953-.704,3.895-.849,4.454-.904,1.44-2.244,2.159" style="fill:none; stroke:#141b21; stroke-miterlimit:10; stroke-width:.5px;"/><path d="M158.09,123.59c-.183-.99-.211-1.093,0-1.673.091-.25.194-.495.282-.694.119-.27.385-.445.68-.445h6.701c.266,0,.462.249.4.507l-.147.611s-.111.447-.265,1.091" style="fill:none; stroke:#141b21; stroke-miterlimit:10; stroke-width:.5px;"/><path d="M506.793,193.732c.541,2.45,1.341,5.527,1.582,6.228.241.708,1.257,2.363,3.694,2.42,2.43.057,8.829-.186,9.529-.172.7.014,2.659-.579,1.941-2.723,0,0-1.675-4.808-2.23-6.572-.548-1.764-3.988-4.31-8.683-4.124-4.701.185-6.368,2.494-5.834,4.943ZM511.668,197.818c-.18-.575-.555-1.764-.772-2.533.396-.451,1.125-.8,2.36-.795,2.407.004,3.585.923,4.115,2.204.172.42.36.894.534,1.348l-5.782.104c-.206.004-.397-.127-.455-.328Z" style="fill:#f4ae3d;"/><path d="M523.538,199.485s-1.672-4.808-2.226-6.572-3.992-4.312-8.689-4.126-6.365,2.497-5.828,4.945,1.338,5.526,1.58,6.231,1.256,2.359,3.69,2.417c2.434.058,8.834-.184,9.533-.172s2.66-.58,1.94-2.723Z" style="fill:none; stroke:#141b21; stroke-miterlimit:10;"/><path d="M513.733,189.78c2.426-.089,5.3,1.163,6.124,3.605.326.883,1.094,3.302,1.407,4.224,0,0,.101.307.101.307-.191.001-1.421.027-1.643.03,0,0,.2-.366.2-.366.404.729.571,1.457.779,2.218.246.718-.302,1.118-1.008,1.037,0,0-3.655.066-3.655.066l-3.655.066c-.341.027-.747-.107-1.007-.37-.249-.208-.355-.617-.45-.913,0,0-.558-1.741-.558-1.741,0,0,.196.165.196.165-.435-.076-.836-.217-1.197-.51-.778-.818-.783-2.374-1.152-3.443-.219-.754-.403-1.681-.002-2.424.341-.763,1.011-1.339,1.763-1.579-.686.391-1.202,1.007-1.432,1.712-.314.751-.052,1.41.158,2.16.26.929.486,1.889.726,2.824.201.521.832.728,1.354.811,0,0,.044.138.044.138,0,0,.558,1.741.558,1.741.081.201.143.573.328.715.177.166.394.251.662.234l3.655-.066,3.655-.066c.232-.026.481.067.579-.144-.074-.809-.505-2.008-.956-2.738.294-.005,1.413-.026,1.722-.031,0,0-.225.313-.225.313-.334-.918-1.12-3.284-1.419-4.179-.772-2.33-3.273-3.572-5.653-3.795h0Z" style="fill:#141b21;"/><path d="M520.156,197.698s-.878-2.544-1.378-3.751c-.5-1.207-2.527-2.945-5.725-2.786s-4.504,1.613-4.421,3.709" style="fill:none; stroke:#141b21; stroke-miterlimit:10; stroke-width:.5px;"/><path d="M515.422,192.944c2.061.389,2.564,2.658,3.28,4.318.212.411.276.876-.299.981-1.188.039-3.545.09-4.757.125-.352-.033-1.548.108-1.864-.07-.356-.138-.422-.772-.532-1.077,0,0-.395-1.355-.395-1.355-1.389-3.329,2.232-3.752,4.568-2.923-1.582-.437-5.205-.293-4.359,2.139,0,0,.208.669.208.669.146.441.481,1.577.62,2.003.061.113.114.174.34.15l1.406-.036,2.813-.028,1.406-.014.352-.004c.071-.009.283.034.249-.107.001-.041-1.01-2.794-1.06-2.959-.337-.853-1.093-1.49-1.974-1.814h0Z" style="fill:#141b21;"/><path d="M510.896,195.285c.396-.451,1.125-.8,2.36-.795,2.407.004,3.585.923,4.115,2.204.172.42.36.894.534,1.348" style="fill:none; stroke:#141b21; stroke-miterlimit:10; stroke-width:.5px;"/><path d="M521.33,198.238c.299.704.556,1.414.866,2.105.223.418.074,1.091-.43,1.242-1.91.356-3.822.103-5.759.237-1.238-.024-3.433.168-4.597-.035-1.852-.268-1.926-2.421-2.135-3.894,1.481,2.874.568,3.704,4.451,3.486,2.538-.101,5.351.035,7.845-.266.273-.087.348-.28.248-.644-.238-.723-.363-1.483-.49-2.232h0Z" style="fill:#141b21;"/><path d="M484.145,120.548c.18,1.069.889,4.134,1.133,4.901s2.112,3.774,7.412,3.523c5.3-.245,5.113-2.904,4.933-3.523,0,0-1.224-4.257-1.5-5.113-.277-.863-1.623-1.256-3.001-1.256h-7.232c-.831,0-1.932.393-1.745,1.468ZM488.582,125.59h3.413c.258,0,.483.167.56.412l.399,1.333c-.219.019-.457.032-.721.032h-.006c-.225,0-.464-.013-.702-.026-1.043-.077-1.81-.277-2.267-.451-.245-.097-.425-.309-.483-.56l-.193-.741ZM493.837,127.966c.38-.155.799-.309,1.178-.496-.238.213-.644.38-1.178.496ZM487.771,127.097c.2.135.419.264.657.393-.27-.122-.496-.251-.657-.393Z" style="fill:#f4ae3d;"/><path d="M497.625,125.45s-1.226-4.259-1.501-5.117-1.624-1.256-3.003-1.256h-7.231c-.827,0-1.93.398-1.747,1.471s.889,4.137,1.134,4.903,2.114,3.769,7.415,3.524,5.112-2.905,4.933-3.524Z" style="fill:none; stroke:#141b21; stroke-miterlimit:10;"/><path d="M487.487,126.691l-.831-3.481c-.083-.349.181-.684.54-.684h5.884c.505,0,.949.333,1.09.818l1.043,3.583v.002c.02.052.026.109.02.161-.052.708-1.829,1.166-3.973,1.017-1.99-.142-3.593-.747-3.774-1.404v-.013h0Z" style="fill:none; stroke:#141b21; stroke-miterlimit:10; stroke-width:.5px;"/><path d="M492.534,123.814c-1.242.118-2.63.114-3.858.208-.254.094-.193.39-.122.588.153.488.333,1.373.516,1.822.146.243.43.276.687.36,1.058.314,2.207.398,3.31.309.508.04.689-.221.503-.722-.129-.472-.366-1.428-.475-1.905-.048-.326-.197-.634-.561-.661.37-.046.62.311.688.623,0,0,.336.923.336.923.056.167.344,1.013.394,1.162.189.557-.284,1.026-.84.996-1.17.123-2.35.064-3.493-.246-.354-.103-.775-.242-.96-.599-.152-.275-.198-.706-.289-1.004-.043-.175-.257-1.039-.293-1.197-.081-.341.143-.716.476-.812,1.425-.035,2.648.068,3.982.154h0Z" style="fill:#141b21;"/><path d="M488.582,125.59h3.413c.258,0,.483.167.56.412l.399,1.333" style="fill:none; stroke:#141b21; stroke-miterlimit:10; stroke-width:.5px;"/><path d="M493.82,127.97c1.161-.468,2.742-.961,2.452-2.38s-1.209-4.568-1.209-4.568c0,0-.366-1.036-1.505-1.098s-5.965.021-6.732,0-1.657.186-1.491.953.704,3.895.849,4.454.904,1.44,2.244,2.159" style="fill:none; stroke:#141b21; stroke-miterlimit:10; stroke-width:.5px;"/><path d="M494.308,123.814c.183-.99.211-1.093,0-1.673-.091-.25-.194-.495-.282-.694-.119-.27-.385-.445-.68-.445h-6.701c-.266,0-.462.249-.4.507l.147.611s.111.447.265,1.091" style="fill:none; stroke:#141b21; stroke-miterlimit:10; stroke-width:.5px;"/></g></svg>