<?xml version="1.0" encoding="UTF-8"?><svg id="uuid-ab4c9d2b-02e3-4fa4-a234-9d10897da684" xmlns="http://www.w3.org/2000/svg" width="90" height="77.8245" viewBox="0 0 90 77.8245"><polygon points="45 -.4141 .5278 77.1444 89.4722 77.2783 89.4722 77.2783 45 -.4141" style="fill:#fff200; stroke-width:0px;"/><path d="m8.9443,72.5015L45,9.3705l36.0557,63.2651-72.1114-.134ZM45-.4141L.5,77.1928l89,.134h0L45-.4141Z" style="fill:#aebbc7; stroke-width:0px;"/><circle cx="44.3054" cy="52.224" r="6.5169" style="fill:#aebbc7; stroke-width:0px;"/><polygon points="44.9072 48.5446 43.7037 48.5446 43.3134 32.792 45.2975 32.792 44.9072 48.5446" style="fill:#aebbc7; stroke-width:0px;"/><path d="m44.0075,48.5094l-1.1691.287-2.5349-9.2679c.5314-.1648,1.0735-.3029,1.6314-.3986l2.0725,9.3795Z" style="fill:#aebbc7; stroke-width:0px;"/><path d="m42.1902,49.156l-.869.8331-6.8292-6.7588c.3778-.4084.7782-.7991,1.2136-1.1609l6.4846,7.0866Z" style="fill:#aebbc7; stroke-width:0px;"/><path d="m40.9395,50.6247l-.3361,1.156-9.2936-2.4387c.123-.5426.2744-1.0811.4706-1.6122l9.1591,2.8949Z" style="fill:#aebbc7; stroke-width:0px;"/><path d="m40.5908,52.5219l.287,1.1691-9.2679,2.5349c-.1648-.5314-.3029-1.0735-.3986-1.6314l9.3795-2.0725Z" style="fill:#aebbc7; stroke-width:0px;"/><path d="m41.2374,54.3393l.8331.869-6.7588,6.8292c-.4084-.3778-.7991-.7782-1.1609-1.2136l7.0866-6.4846Z" style="fill:#aebbc7; stroke-width:0px;"/><path d="m42.7061,55.5899l1.156.3361-2.4387,9.2936c-.5426-.123-1.0811-.2744-1.6122-.4706l2.8949-9.1591Z" style="fill:#aebbc7; stroke-width:0px;"/><path d="m44.6033,55.9386l1.1691-.287,2.5349,9.2679c-.5314.1648-1.0735.3029-1.6314.3986l-2.0725-9.3795Z" style="fill:#aebbc7; stroke-width:0px;"/><path d="m46.4207,55.292l.869-.8331,6.8292,6.7588c-.3778.4084-.7782.7991-1.2136,1.1609l-6.4846-7.0866Z" style="fill:#aebbc7; stroke-width:0px;"/><path d="m47.6713,53.8233l.3361-1.156,9.2936,2.4387c-.123.5426-.2744,1.0811-.4706,1.6122l-9.1591-2.8949Z" style="fill:#aebbc7; stroke-width:0px;"/><path d="m48.02,51.9261l-.287-1.1691,9.2679-2.5349c.1648.5314.3029,1.0735.3986,1.6314l-9.3795,2.0725Z" style="fill:#aebbc7; stroke-width:0px;"/><path d="m47.3734,50.1087l-.8331-.869,6.7588-6.8292c.4084.3778.7991.7782,1.1609,1.2136l-7.0866,6.4846Z" style="fill:#aebbc7; stroke-width:0px;"/><path d="m45.9048,48.8581l-1.156-.3361,2.4387-9.2936c.5426.123,1.0811.2744,1.6122.4706l-2.8949,9.1591Z" style="fill:#aebbc7; stroke-width:0px;"/><polygon points="43.7037 55.9034 44.9072 55.9034 45.2975 71.656 43.3134 71.656 43.7037 55.9034" style="fill:#aebbc7; stroke-width:0px;"/><polygon points="47.9848 52.8258 47.9848 51.6222 71.3488 51.2319 71.3488 53.2161 47.9848 52.8258" style="fill:#aebbc7; stroke-width:0px;"/><polygon points="40.6261 51.6222 40.6261 52.8258 24.8735 53.2161 24.8735 51.2319 40.6261 51.6222" style="fill:#aebbc7; stroke-width:0px;"/><polygon points="41.4446 49.8333 40.832 50.8693 27.0737 43.1878 28.0836 41.4799 41.4446 49.8333" style="fill:#aebbc7; stroke-width:0px;"/><polygon points="47.1663 54.6147 47.7789 53.5787 61.5371 61.2602 60.5273 62.9682 47.1663 54.6147" style="fill:#aebbc7; stroke-width:0px;"/><polygon points="46.6961 49.3631 45.6601 48.7506 53.3417 34.9923 55.0496 36.0021 46.6961 49.3631" style="fill:#aebbc7; stroke-width:0px;"/><polygon points="41.9148 55.0849 42.9508 55.6974 35.2692 69.4557 33.5613 68.4459 41.9148 55.0849" style="fill:#aebbc7; stroke-width:0px;"/><polygon points="40.794 53.477 41.3762 54.5304 27.7776 62.4913 26.8179 60.7547 40.794 53.477" style="fill:#aebbc7; stroke-width:0px;"/><polygon points="47.8168 50.9711 47.2347 49.9177 60.8333 41.9568 61.793 43.6933 47.8168 50.9711" style="fill:#aebbc7; stroke-width:0px;"/><polygon points="43.0525 48.7126 41.9991 49.2947 34.0382 35.6962 35.7748 34.7365 43.0525 48.7126" style="fill:#aebbc7; stroke-width:0px;"/><polygon points="45.5584 55.7354 46.6118 55.1533 54.5727 68.7518 52.8361 69.7115 45.5584 55.7354" style="fill:#aebbc7; stroke-width:0px;"/></svg>