<?xml version="1.0" encoding="UTF-8"?><svg xmlns="http://www.w3.org/2000/svg" width="436" height="312.889" viewBox="0 0 436 312.889"><g id="uuid-41c93393-8964-493b-9216-94b17e57819b"><path d="M52.592,204.062c4.857,2.721,8.862,9.797,8.881,15.77.018,5.973-3.957,8.451-8.815,5.575-4.788-2.835-8.634-9.82-8.652-15.638-.018-5.818,3.798-8.389,8.586-5.707Z" style="fill:none; stroke:#aebbc7; stroke-linecap:round; stroke-linejoin:round; stroke-width:.5px;"/><path d="M50.326,210.801c.566-.418,1.374-.421,2.275.091,1.739.99,3.161,3.524,3.168,5.654.005,1.692-.884,2.608-2.121,2.406" style="fill:none; stroke:#aebbc7; stroke-linecap:round; stroke-linejoin:round; stroke-width:.5px;"/><path d="M85.291,222.507c-5.174-2.898-9.297-.315-9.278,5.731.019,6.046,4.172,13.398,9.347,16.462,5.253,3.11,9.554.63,9.535-5.583-.019-6.213-4.351-13.667-9.603-16.609Z" style="fill:none; stroke:#aebbc7; stroke-linecap:round; stroke-linejoin:round; stroke-width:.5px;"/><path d="M44.006,209.769c-.342-4.283,2.253-8.224,6.981-6.685,3.699,1.306,6.365,4.463,8.219,7.787,1.799,3.354,2.955,7.235,2.332,11.108-.835,4.794-5.031,6.077-8.879,3.428,3.63,2.095,7.683.878,8.388-3.52.599-3.687-.516-7.5-2.279-10.776-1.781-3.207-4.399-6.308-7.932-7.551-4.216-1.474-6.812,2.376-6.828,6.209h0Z" style="fill:#aebbc7;"/><path d="M85.36,244.7c3.725,2.161,8.266,1.287,9.082-3.404.915-5.901-2.02-11.964-6.089-16.119-4.822-5.047-11.949-5.273-12.339,3.062-.34-4.699,2.661-8.467,7.592-6.757,3.89,1.417,6.759,4.688,8.777,8.181,1.957,3.537,3.266,7.656,2.55,11.732-.966,5.099-5.624,6.032-9.572,3.305h0Z" style="fill:#aebbc7;"/><path d="M50.801,134.607c.804.506,1.815.587,2.669.17,1.035-.505,2.136-.882,3.287-1.106,3.669-.713,7.932-.077,12.511,2.132,7.586,3.659,14.524,10.882,19.439,19.468.261.456.638.832,1.101,1.081,1.682.904,5.866,3.151,6.959,3.697,1.377.689,1.968.457,1.377-2.379s-7.773-24.679-12.102-34.912c0,0-2.048-4.132-5.304-6.199s-13.194-9.249-21.951-12.594c0,0-2.874-.984-4.684.787s-7.713,9.151-8.796,10.922-3.345,7.773-3.837,9.151-1.082,3.247,1.279,4.723c1.704,1.065,5.866,3.684,8.053,5.061Z" style="fill:none; stroke:#aebbc7; stroke-linecap:round; stroke-linejoin:round; stroke-width:.5px;"/><path d="M59.513,146.197c2.618-.438,5.635.054,8.866,1.623,10.565,5.131,19.359,19.764,19.399,32.566.027,8.801-4.1,14.23-10.126,14.898" style="fill:none; stroke:#aebbc7; stroke-linecap:round; stroke-linejoin:round; stroke-width:.5px;"/><path d="M74.043,187.181c.011,3.659-2.462,5.292-5.504,3.659-3.02-1.621-5.462-5.855-5.473-9.466s2.412-5.271,5.433-3.697c3.042,1.585,5.534,5.845,5.545,9.504Z" style="fill:none; stroke:#aebbc7; stroke-linecap:round; stroke-linejoin:round; stroke-width:.5px;"/><path d="M72.453,184.415c.002.541-.239.885-.6.951-.185.034-.4-.005-.631-.127-.68-.361-1.232-1.312-1.234-2.126-.002-.539.239-.884.599-.951.183-.034.397.004.626.124.682.358,1.238,1.312,1.24,2.129Z" style="fill:none; stroke:#aebbc7; stroke-linecap:round; stroke-linejoin:round; stroke-width:.5px;"/><path d="M60.517,151.033c3.198,1.583,5.818,6.025,5.83,9.911.012,3.886-2.589,5.7-5.787,4.064-3.174-1.624-5.738-6.038-5.75-9.871s2.533-5.675,5.707-4.104Z" style="fill:none; stroke:#aebbc7; stroke-linecap:round; stroke-linejoin:round; stroke-width:.5px;"/><path d="M57.265,166.051c1.987,1.023,3.611,3.817,3.619,6.237.007,2.419-1.604,3.53-3.592,2.486s-3.58-3.822-3.588-6.22c-.007-2.398,1.583-3.521,3.561-2.503Z" style="fill:none; stroke:#aebbc7; stroke-linecap:round; stroke-linejoin:round; stroke-width:.5px;"/><path d="M79.444,178.605c-2.085-1.074-3.762.056-3.755,2.519s1.697,5.343,3.782,6.439,3.796-.017,3.788-2.501c-.008-2.485-1.72-5.377-3.816-6.456Z" style="fill:none; stroke:#aebbc7; stroke-linecap:round; stroke-linejoin:round; stroke-width:.5px;"/><path d="M63.065,181.375c-.212-2.541,1.476-5.107,4.296-4.341,4.556,1.471,7.452,6.881,6.744,11.533-.53,2.835-3.224,3.761-5.567,2.274,6.278,2.665,6.114-5.347,3.716-8.947-2.129-4.283-8.649-7.555-9.189-.519h0Z" style="fill:#aebbc7;"/><path d="M54.81,155.137c-.208-2.621,1.473-5.439,4.442-4.75,2.531.567,4.405,2.625,5.676,4.768,1.21,2.189,1.963,4.766,1.467,7.297-.548,2.94-3.324,4.067-5.835,2.555,6.574,2.638,6.457-5.822,3.934-9.605-2.324-4.635-9.154-7.671-9.684-.266h0Z" style="fill:#aebbc7;"/><path d="M53.705,168.553c-.204-1.652.94-3.466,2.801-2.989,3.075.91,4.975,4.557,4.485,7.65-.329,1.847-2.167,2.596-3.699,1.559,1.5.752,3.114.086,3.321-1.633.33-2.832-1.444-6.248-4.195-7.204-1.633-.532-2.71,1.134-2.714,2.616h0Z" style="fill:#aebbc7;"/><path d="M79.471,187.563c1.53.775,3.277.182,3.512-1.614.364-2.962-1.565-6.466-4.418-7.473-1.718-.567-2.864,1.06-2.876,2.648-.215-1.745,1.052-3.541,2.969-3.022,1.672.43,2.879,1.753,3.727,3.141.79,1.431,1.315,3.112.973,4.782-.361,1.929-2.322,2.595-3.887,1.537h0Z" style="fill:#aebbc7;"/><path d="M76.055,159.491c-3.305-1.636-5.955.218-5.943,4.128s2.682,8.442,5.987,10.134c3.331,1.705,6.041-.119,6.028-4.085-.012-3.966-2.742-8.528-6.072-10.176Z" style="fill:none; stroke:#aebbc7; stroke-linecap:round; stroke-linejoin:round; stroke-width:.5px;"/><path d="M76.099,173.753c2.46,1.284,5.255.278,5.691-2.611.662-4.774-2.441-10.449-7.116-11.942-2.772-.816-4.622,1.879-4.562,4.419-.215-5.359,4.612-6.227,8.064-2.926,2.828,2.615,4.697,6.624,3.989,10.527-.587,3.039-3.516,4.069-6.066,2.532h0Z" style="fill:#aebbc7;"/><path d="M84.725,212.197c11.068,6.065,18.433,18.17,18.988,30.898.623,14.284-7.6,18.088-18.738,11.465l-31.818-19.201c-9.015-5.361-16.228-17.488-16.874-28.63-.702-12.102,6.403-17.304,16.203-11.934,2.505,1.373,7.001,3.737,9.58,5.274.778.464,1.874-.047,1.871-.994l-.009-2.809c-.002-.787-.446-1.711-1.077-2.25-2.549-2.176-4.91-4.769-7.008-7.629-5.857-7.984-9.679-18.134-9.707-27.341-.046-14.783,9.764-22.031,22.227-16.05,12.857,6.17,23.6,23.952,23.649,39.565.03,9.722-4.138,16.075-10.423,17.719-2.208.582-4.67.589-7.302-.039-.646-.154-1.096.293-1.094,1.087l.009,2.841c.003.958.405,1.938,1.218,2.384l10.305,5.647Z" style="fill:none; stroke:#aebbc7; stroke-linecap:round; stroke-linejoin:round;"/><path d="M69.988,143.848l-10.403,2.339c-5.737.961-9.641,6.406-9.615,14.82.038,12.238,8.241,26.568,18.548,32.13,3.291,1.776,7.17,2.918,11.172,2.218l10.896-3.88" style="fill:none; stroke:#aebbc7; stroke-linecap:round; stroke-miterlimit:10;"/><path d="M69.921,143.55s-10.403,2.339-10.386,2.336c-2.513.421-4.686,1.679-6.346,3.647-2.241,2.656-3.538,6.588-3.523,11.475.02,6.414,2.258,13.379,5.848,19.374,3.331,5.562,7.84,10.314,12.861,13.023,3.327,1.795,7.277,2.965,11.419,2.236l10.896-3.88" style="fill:none; stroke:#aebbc7; stroke-linecap:round; stroke-miterlimit:10; stroke-width:1.219px;"/><path d="M63.151,199.923c3.632-.922,7.321-1.605,10.999-2.327-3.614.991-7.221,2.022-10.884,2.813-.307.069-.422-.411-.114-.487h0Z" style="fill:#aebbc7;"/><path d="M73.666,200.035c2.905-.762,7.155-1.584,10.129-2.237,0,0-4.995,1.402-4.995,1.402-1.667.46-3.328.942-5.015,1.321-.308.074-.429-.408-.12-.485h0Z" style="fill:#aebbc7;"/><path d="M46.479,198.561c1.769-.29,3.841.134,6.066,1.378,0,0,6.895,7.832,15.662,12.74,8.838,4.948,17.065,5.521,17.065,5.521,7.286,4.068,13.3,14.404,13.327,23.027.017,5.415-2.551,9.812-6.121,10.486" style="fill:none; stroke:#aebbc7; stroke-linecap:round; stroke-linejoin:round; stroke-width:.5px;"/><path d="M54.81,196.054l-8.33,2.508c-4.036,1.376-5.825,3.941-5.808,9.287.025,8.041,4.917,17.027,11.469,21.122l32.362,20.208c2.304,1.439,5.167,2.66,8.679,2.522.975-.038,1.935-.279,2.814-.704l7.226-3.497" style="fill:none; stroke:#aebbc7; stroke-linecap:round; stroke-miterlimit:10;"/><path d="M54.722,195.762s-8.33,2.508-8.341,2.511c-1.931.659-3.392,1.596-4.39,2.995-1.128,1.582-1.634,3.711-1.625,6.582.013,4.17,1.315,8.577,3.463,12.438,2.055,3.694,4.894,6.907,8.149,8.941l32.361,20.208c2.335,1.458,5.258,2.709,8.853,2.568,1.018-.04,2.018-.291,2.934-.734l7.226-3.497" style="fill:none; stroke:#aebbc7; stroke-linecap:round; stroke-miterlimit:10; stroke-width:1.219px;"/><path d="M52.545,199.938s8.365,1.773,17.144,6.66c8.85,4.926,15.583,11.601,15.583,11.601" style="fill:none; stroke:#aebbc7; stroke-linecap:round; stroke-linejoin:round; stroke-width:.5px;"/><path d="M61.445,218.997l-2.892.648c-.24.031-.493.028-.759-.016l-4.146-.677c-.321-.052-.665-.18-1.023-.389-1.728-1.007-3.126-3.527-3.133-5.634-.003-1.009.313-1.745.834-2.129l2.969-2.193c.239-.177.512-.295.808-.359l2.725-.492" style="fill:none; stroke:#aebbc7; stroke-linecap:round; stroke-linejoin:round; stroke-width:.5px;"/><path d="M54.102,208.246c.655-.14,1.434.006,2.274.482,2.356,1.337,4.285,4.763,4.294,7.646.006,1.925-.846,3.108-2.116,3.272" style="fill:none; stroke:#aebbc7; stroke-linecap:round; stroke-linejoin:round; stroke-width:.5px;"/><path d="M81.825,230.221c.583-.42,1.416-.415,2.343.113,1.791,1.02,3.256,3.604,3.263,5.766.005,1.717-.911,2.639-2.185,2.423" style="fill:none; stroke:#aebbc7; stroke-linecap:round; stroke-linejoin:round; stroke-width:.5px;"/><path d="M94.868,238.301l-4.57.969c-.247.029-.508.024-.782-.023l-4.27-.724c-.33-.056-.685-.188-1.053-.403-1.78-1.038-3.22-3.607-3.226-5.745-.003-1.024.323-1.768.859-2.153l3.058-2.199c.246-.177.527-.295.833-.357l4.522-.766" style="fill:none; stroke:#aebbc7; stroke-linecap:round; stroke-linejoin:round; stroke-width:.5px;"/><path d="M85.714,227.662c.674-.136,1.478.019,2.342.51,2.427,1.377,4.413,4.872,4.423,7.798.006,1.954-.872,3.147-2.18,3.302" style="fill:none; stroke:#aebbc7; stroke-linecap:round; stroke-linejoin:round; stroke-width:.5px;"/><line x1="71.853" y1="185.366" x2="73.771" y2="185.014" style="fill:none; stroke:#aebbc7; stroke-linecap:round; stroke-linejoin:round; stroke-width:.5px;"/><line x1="72.496" y1="181.808" x2="70.587" y2="182.162" style="fill:none; stroke:#aebbc7; stroke-linecap:round; stroke-linejoin:round; stroke-width:.5px;"/><path d="M64.762,158.36c.002.573-.254.938-.636,1.008-.196.036-.424-.005-.669-.135-.721-.383-1.306-1.391-1.308-2.253-.002-.572.253-.937.635-1.008.194-.036.421.004.664.132.723.38,1.312,1.39,1.315,2.257Z" style="fill:none; stroke:#aebbc7; stroke-linecap:round; stroke-linejoin:round; stroke-width:.5px;"/><line x1="64.126" y1="159.368" x2="66.159" y2="158.994" style="fill:none; stroke:#aebbc7; stroke-linecap:round; stroke-linejoin:round; stroke-width:.5px;"/><line x1="64.807" y1="155.596" x2="62.784" y2="155.972" style="fill:none; stroke:#aebbc7; stroke-linecap:round; stroke-linejoin:round; stroke-width:.5px;"/><path d="M80.345,166.933c.002.589-.261.965-.654,1.037-.201.037-.436-.005-.688-.139-.741-.393-1.343-1.43-1.345-2.317-.002-.588.26-.964.653-1.037.2-.037.433.004.682.135.743.39,1.349,1.43,1.352,2.32Z" style="fill:none; stroke:#aebbc7; stroke-linecap:round; stroke-linejoin:round; stroke-width:.5px;"/><line x1="79.691" y1="167.969" x2="81.782" y2="167.585" style="fill:none; stroke:#aebbc7; stroke-linecap:round; stroke-linejoin:round; stroke-width:.5px;"/><line x1="80.392" y1="164.091" x2="78.311" y2="164.477" style="fill:none; stroke:#aebbc7; stroke-linecap:round; stroke-linejoin:round; stroke-width:.5px;"/><path d="M64.126,133.938s8.001-13.094,8.327-13.094,8.283-4.286,8.283-4.286" style="fill:none; stroke:#aebbc7; stroke-miterlimit:10;"/><polyline points="89.385 131.343 80.736 143.583 91.812 138.111" style="fill:none; stroke:#aebbc7; stroke-linecap:round; stroke-linejoin:round; stroke-width:.5px;"/><path d="M81.782,138.073c.452-1.196.973-2.363,1.487-3.53.132-.296.011-.66-.286-.806-.738-.416-2.212-1.276-2.937-1.714-.416-.228-.836-.679-1.209-.23-.609.936-1.236,1.897-1.905,2.813.495-1.03,1.025-2.018,1.584-3.025.463-.737,1.246-.296,1.768.033.738.417,2.211,1.276,2.937,1.715.686.407.639,1.176.222,1.77-.532,1.002-1.072,2-1.661,2.974h0Z" style="fill:#aebbc7;"/><path d="M68.909,130.465c.636-.916,1.314-1.797,1.999-2.672.317-.511.932-1.071,1.626-.699.727.408,2.176,1.251,2.889,1.683,0,0,.71.435.71.435,1.038.714-.111,1.695-.5,2.406-.322.454-.63.917-.965,1.363.238-.505.504-.993.755-1.49.176-.374.641-1.07.737-1.416.095-.475-.692-.688-.975-.89-.721-.406-2.159-1.246-2.868-1.673-.173-.099-.4-.103-.582-.005-.948.897-1.85,2.042-2.825,2.958h0Z" style="fill:#aebbc7;"/><line x1="72.453" y1="120.845" x2="89.385" y2="131.343" style="fill:none; stroke:#aebbc7; stroke-linecap:round; stroke-linejoin:round; stroke-width:.5px;"/><polyline points="41.047 127.208 62.784 115.249 65.143 112.118 66.347 107.536" style="fill:none; stroke:#aebbc7; stroke-linecap:round; stroke-linejoin:round; stroke-width:.5px;"/><line x1="62.784" y1="115.249" x2="72.453" y2="120.845" style="fill:none; stroke:#aebbc7; stroke-linecap:round; stroke-linejoin:round; stroke-width:.5px;"/><path d="M91.397,260.887c-5.683-1.579-33.309-18.068-37.295-20.821-4.13-2.852-6.606-4.67-10.095-8.392-4.753-5.069-12.796-18.252-13.559-33.201-.763-14.948-.17-35.378,3.476-53.095,3.645-17.717,7.46-29.161,11.529-34.756s6.697-9.07,10.257-11.02,30.566-16.7,30.566-16.7c0,0,.969-2.628,4.105-4.323s24.922-13.648,27.042-14.835,10.003-4.154,18.565,0,15.682,8.307,17.463,9.664,8.053,6.951,11.953,15.089,11.783,23.905,16.021,53.914c4.238,30.009,2.119,50.947,0,61.712s-6.697,15.399-9.494,17.194-22.888,14.341-24.498,15.358-6.273,2.904-11.19,2.596c0,0-27.617,17.284-30.093,18.442-2.926,1.367-8.458,4.922-14.75,3.174Z" style="fill:none; stroke:#aebbc7; stroke-linecap:round; stroke-linejoin:round; stroke-width:2px;"/><path d="M94.895,261.361c8.37-.357,14.897-6.178,15.745-22.807.848-16.629-3.138-54.447-7.418-72.879-3.826-16.477-11.751-37.384-15.085-45.363-.647-1.549-1.661-2.91-2.952-3.983-3.763-3.131-12.758-9.973-25.672-15.709,0,0-4.212-1.902-7.368,1.683" style="fill:none; stroke:#aebbc7; stroke-linecap:round; stroke-linejoin:round; stroke-width:.5px;"/><path d="M86.274,82.903l8.489-4.756s-1.616-.291-5.515,1.146" style="fill:none; stroke:#aebbc7; stroke-linecap:round; stroke-linejoin:round; stroke-width:2px;"/><path d="M92.785,77.269c1.604-.877,6.477-2.794,12.476,0s14.663,7.626,18.829,11.042,12.08,10.081,17.496,26.16c5.415,16.08,10.914,35.644,13.497,63.728s3.44,53.293-7.653,58.476" style="fill:none; stroke:#aebbc7; stroke-linecap:round; stroke-linejoin:round; stroke-width:.5px;"/><path d="M128.704,99.218c7.673,9.637,10.792,21.815,14.248,33.41,5.002,17.594,7.881,35.743,9.243,53.969.89,12.123,1.952,24.397.228,36.497-.99,5.75-2.806,12.745-8.725,15.19,5.865-2.514,7.572-9.489,8.483-15.227.897-6.016.916-12.129.753-18.204-.452-12.157-1.542-24.309-3.105-36.372-2.322-18.11-6.621-35.953-12.624-53.193-2.046-5.718-4.793-11.228-8.5-16.07h0Z" style="fill:#aebbc7;"/><path d="M136.24,239.272c9.817-6.656,10.306-12.829,10.681-23.837.572-15.316-.06-30.733-2.459-45.874-2.644-15.094-5.974-30.126-10.409-44.803-2.758-8.732-7.304-17.177-6.63-26.615-.557,9.419,4.145,17.818,6.907,26.528,2.759,8.795,4.973,17.751,6.991,26.74,4.347,17.937,6.382,36.375,6.136,54.824-.092,6.144-.217,12.297-.97,18.404-.652,6.297-5.105,11.326-10.246,14.632h0Z" style="fill:#aebbc7;"/><path d="M126.172,98.142c-11.777,6.708-24.903,13.775-36.991,19.905,11.775-6.711,24.904-13.773,36.991-19.905h0Z" style="fill:#aebbc7;"/><path d="M163.063,83.986l18.471-10.558c2.294-1.497-1.39-7.142-3.684-5.645l-19.011,10.867" style="fill:none; stroke:#aebbc7; stroke-linecap:round; stroke-linejoin:round; stroke-width:2px;"/><path d="M181.158,69.126c.04.052,17.256-9.172,17.256-9.172,2.38-.816,4.717-1.27,4.717-1.27,0,0,5.388-2.421,12.788,10.442l6.491,4.813s2.791-.909,4.544-1.493,7.465.195,12.464,8.893.974,13.567-1.168,15.06-7.206,4.869-7.206,4.869c0,0,3.83,5.583,4.284,6.427s1.363,2.726-2.532,5.777-51.156,30.519-51.156,30.519" style="fill:none; stroke:#aebbc7; stroke-linecap:round; stroke-linejoin:round; stroke-width:2px;"/><path d="M222.874,73.053c1.797,1.146,3.847,2.121,5.601,3.614,1.743,1.452,2.916,3.463,3.608,5.581-1.928-4.322-5.958-5.819-10.136-7.423-1.301-.59-.303-2.507.928-1.772h0Z" style="fill:#aebbc7;"/><path d="M233.251,90.168c.218,3.573-.449,8.325-1.22,11.196-.5,4.503-1.614,8.963-3.908,12.887.635-4.297,1.416-8.781,1.934-13.079.999-3.684,1.936-7.388,3.194-11.005h0Z" style="fill:#aebbc7;"/><path d="M215.445,70.007l-10.627-6.908,11.574,5.147c1.293.606.274,2.506-.947,1.762h0Z" style="fill:#aebbc7;"/><line x1="230.687" y1="88.221" x2="179.307" y2="116.559" style="fill:none; stroke:#aebbc7; stroke-linecap:round; stroke-linejoin:round; stroke-width:.5px;"/><path d="M98.172,160.205c.232-.346.176-.785.145-1.178-.459-2.805-1.603-5.456-2.468-8.154-3.189-9.197-6.378-18.481-10.079-27.46-1.306-2.858-3.417-5.412-6.152-7.04-5.401-3.626-10.756-7.315-16.559-10.26-2.715-1.28-6.156-3.687-8.957-1.362,2.671-2.543,6.39-.247,9.172.921,5.91,2.776,11.432,6.327,16.845,9.941,2.876,1.685,5.153,4.358,6.563,7.393,3.676,9.111,6.751,18.353,9.63,27.718.735,2.749,1.792,5.452,2.079,8.297.007.398.035.85-.22,1.184h0Z" style="fill:#aebbc7;"/><path d="M199.01,192.137c-6.852-10.678,2.587-16.243,9.35-5.763,6.327,10.755-2.895,16.683-9.351,5.763,6.623,9.324,14.38,4.842,8.5-5.239-6.391-9.788-13.846-4.891-8.5,5.239h0Z" style="fill:#aebbc7;"/><path d="M258.175,145.397c-1.103.68-2.955-.323-4.137-2.24s-1.245-4.022-.142-4.702l29.273-16.292c1.103-.68,2.955.323,4.137,2.24s1.245,4.022.142,4.702l-29.273,16.292Z" style="fill:none; stroke:#aebbc7; stroke-linecap:round; stroke-linejoin:round; stroke-width:2px;"/><path d="M206.32,184.463l-2.19,1.347c-.732.451-.691,1.845.094,3.116.779,1.271,2.009,1.933,2.735,1.482l2.196-1.353" style="fill:none; stroke:#aebbc7; stroke-linecap:round; stroke-linejoin:round; stroke-width:.5px;"/><path d="M205.963,190.465c1.271,1.429,2.729,2.372,4.053,2.659" style="fill:none; stroke:#aebbc7; stroke-linecap:round; stroke-linejoin:round; stroke-width:.5px;"/><path d="M203.626,186.688c-.709-1.78-.896-3.514-.556-4.826" style="fill:none; stroke:#aebbc7; stroke-linecap:round; stroke-linejoin:round; stroke-width:.5px;"/><path d="M195.603,179.298c.34-.445.747-.821,1.222-1.114,3.523-2.172,9.439,1.031,13.214,7.155s3.978,12.848.454,15.02c-.279.172-.574.311-.881.416" style="fill:none; stroke:#aebbc7; stroke-linecap:round; stroke-linejoin:round; stroke-width:.5px;"/><path d="M209.612,200.775c-3.567,1.229-8.858-1.934-12.333-7.571-3.266-5.298-3.858-11.046-1.676-13.906" style="fill:none; stroke:#aebbc7; stroke-linecap:round; stroke-linejoin:round; stroke-width:2px;"/><path d="M204.127,185.812c.73-.45,1.956.214,2.739,1.483s.824,2.663.094,3.113" style="fill:none; stroke:#aebbc7; stroke-linecap:round; stroke-linejoin:round; stroke-width:.5px;"/><path d="M223.382,205.82c-6.852-10.678,2.587-16.243,9.35-5.763,6.327,10.755-2.895,16.683-9.351,5.763,6.623,9.324,14.38,4.842,8.5-5.239-6.391-9.788-13.846-4.891-8.5,5.239h0Z" style="fill:#aebbc7;"/><path d="M224.014,223.754c-1.811-2.509.705-3.942,2.28-1.406.947,1.341.522,3.781-1.452,2.474-.361-.295-.64-.664-.829-1.069.616.931,2.539,1.89,2.294-.007-.444-2.56-3.704-3.544-2.294.007h0Z" style="fill:#aebbc7;"/><path d="M204.929,212.695c-1.811-2.509.705-3.942,2.28-1.406.946,1.341.522,3.781-1.452,2.474-.361-.295-.64-.664-.829-1.069.616.932,2.539,1.89,2.294-.007-.444-2.56-3.704-3.544-2.294.007h0Z" style="fill:#aebbc7;"/><path d="M213.52,218.039c-2.937-4.464,1.109-6.871,3.954-2.437.626,1.07,1.079,2.36.786,3.617-.374,1.607-2.176,1.514-3.185.673-.659-.497-1.176-1.145-1.556-1.852.474.645,1.021,1.244,1.693,1.649,3.123,1.824,3.179-1.978,1.836-3.824-2.635-4.077-5.725-2.017-3.529,2.175h0Z" style="fill:#aebbc7;"/><path d="M230.692,198.145l-2.19,1.347c-.732.451-.691,1.845.094,3.116.779,1.271,2.009,1.933,2.735,1.482l2.196-1.353" style="fill:none; stroke:#aebbc7; stroke-linecap:round; stroke-linejoin:round; stroke-width:.5px;"/><path d="M230.335,204.148c1.271,1.429,2.729,2.372,4.053,2.659" style="fill:none; stroke:#aebbc7; stroke-linecap:round; stroke-linejoin:round; stroke-width:.5px;"/><path d="M227.998,200.371c-.709-1.78-.896-3.514-.556-4.826" style="fill:none; stroke:#aebbc7; stroke-linecap:round; stroke-linejoin:round; stroke-width:.5px;"/><path d="M233.527,214.59c-3.55.828-8.546-2.301-11.876-7.703-3.302-5.358-3.871-11.176-1.601-14.002" style="fill:none; stroke:#aebbc7; stroke-linecap:round; stroke-linejoin:round;"/><path d="M220.051,192.885c.324-.404.706-.746,1.147-1.018,3.523-2.172,9.439,1.031,13.214,7.155,3.774,6.123,3.978,12.848.454,15.02-.415.256-.864.437-1.338.548" style="fill:none; stroke:#aebbc7; stroke-linecap:round; stroke-linejoin:round; stroke-width:.5px;"/><path d="M228.5,199.495c.73-.45,1.956.214,2.739,1.483s.824,2.663.094,3.113" style="fill:none; stroke:#aebbc7; stroke-linecap:round; stroke-linejoin:round; stroke-width:.5px;"/><path d="M233.385,214.107c3.596-1.014,6.932-2.746,10.296-4.359,1.073-.287,1.984.711,2.132,1.645.238,2.166-1.386,3.998-2.425,5.697-.33.489-.238,1.153.03,1.661.288.667.591,1.369.933,2.026-.446-.267-.819-.638-1.158-1.026-.792-.853-1.379-2.078-.704-3.187,0,0,.797-1.28.797-1.28.644-1.177,1.678-2.37,1.587-3.719-.063-.48-.467-1.012-.933-.944-.139.044-.392.177-.602.283-3.11,1.624-6.296,3.146-9.67,4.163-.625.189-.92-.774-.283-.959h0Z" style="fill:#aebbc7;"/><path d="M246.169,210.585c.71-.485,1.086-1.258,1.346-2.035.753-2.398.645-4.964-.178-7.362,1.64,2.556,1.838,7.766-1.168,9.397h0Z" style="fill:#aebbc7;"/><path d="M248.265,202.341c3.267,6.584.53,15.313-4.303,20.448,4.272-5.671,6.856-13.562,4.303-20.448h0Z" style="fill:#aebbc7;"/><path d="M236.042,189.387c-6.034-7.589-14.664-13.139-23.936-15.867-1.34-.359-2.72-.598-4.117-.586,9.759-.194,22.804,8.423,28.053,16.452h0Z" style="fill:#aebbc7;"/><path d="M195.606,179.3c2.137-2.99,4.88-5.132,10.357-8.443s47.672-28.368,47.672-28.368" style="fill:none; stroke:#aebbc7; stroke-linecap:round; stroke-linejoin:round; stroke-width:2px;"/><path d="M219.689,192.539c2.076-2.396,4.763-4.419,7.196-6.394.835-.784.183-1.377-.634-1.864-1.785-1.126-3.644-2.189-5.481-3.265-1.359-.602-4.828-3.762-4.488-.291-.089-.501-.18-1.123.248-1.546.467-.389,1.121-.236,1.601.009l2.837,1.467c1.895.984,3.79,1.942,5.667,2.997,1.262.583,2.122,1.904.868,3.117,0,0-2.472,2.081-2.472,2.081-1.595,1.397-3.215,2.815-4.593,4.349-.42.479-1.176-.178-.751-.66h0Z" style="fill:#aebbc7;"/><path d="M209.154,173.479c2.655,1.049,4.89,3.23,6.068,5.821-1.77-2.214-3.754-4.161-6.068-5.821h0Z" style="fill:#aebbc7;"/><path d="M228.5,185.671c1.806-.918,4.064.187,5.027,1.834-1.48-1.109-3.099-2.009-5.027-1.834h0Z" style="fill:#aebbc7;"/><path d="M208.633,200.998c3.319-.301,10.067-4.099,10.067-4.099" style="fill:none; stroke:#aebbc7; stroke-miterlimit:10; stroke-width:2px;"/><path d="M273.989,136.594c10.553,3.613,24.426,15.554,30.207,21.434,5.874,5.968,3.508,18.377,2.559,23.126-.949,4.755-4.708,9.821-8.199,11.677s-46.218,25.674-51.342,28.766c-5.118,3.092-13.61,7.069-16.462,7.73-13.042,3.034-25.867-11.355-29.844-16.761-1.365-1.851-.668-4.047,0-4.533.662-.486,8.702-5.481,8.702-5.481v-1.365" style="fill:none; stroke:#aebbc7; stroke-linecap:round; stroke-linejoin:round; stroke-width:2px;"/><path d="M200.127,210.151c.16-1.066.846-2.54,3.479-2.283s10.257,1.713,14.754,5.396,10.193,9.593,11.478,11.007,2.054,5.172-.513,5.32" style="fill:none; stroke:#aebbc7; stroke-linecap:round; stroke-linejoin:round; stroke-width:.5px;"/><path d="M209.098,201.694c3.32-1.215,6.962-1.081,10.229.028-3.076-.43-6.576.13-9.203,1.689-1.201.861-2.355-1.064-1.026-1.717h0Z" style="fill:#aebbc7;"/><path d="M211.78,221.496c1.984,1.422,5.323,3.571,6.58,4.133s1.639-.694.34-1.686-5.002-3.079-5.829-3.606-1.918.134-1.091,1.159Z" style="fill:none; stroke:#aebbc7; stroke-linecap:round; stroke-linejoin:round; stroke-width:.5px;"/><path d="M219.765,222.527c.243-.301.581-.795.837-1.182.154-.233.505-.198.608.062.525,1.319,1.875,4.388,3.669,6.049.255.236.04.656-.302.59l-3.535-.686c-.199-.039-.324-.239-.264-.433.387-1.262-.032-3.129-.964-3.925-.143-.122-.169-.329-.051-.475Z" style="fill:none; stroke:#aebbc7; stroke-linecap:round; stroke-linejoin:round; stroke-width:.5px;"/><path d="M211.502,218.797c-.563.207-1.001.594-1.122,1.398-.042.279-.395.379-.59.174l-3.535-3.404c-.215-.226-.047-.595.266-.583.817.032,1.969-.2,2.772-1.506.147-.239.494-.234.612.021.412.888,1.179,2.484,1.771,3.395.12.185.034.429-.173.505Z" style="fill:none; stroke:#aebbc7; stroke-linecap:round; stroke-linejoin:round; stroke-width:.5px;"/><path d="M253.896,138.455c2.801-1.46,5.947,3.437,5.098,5.934-.141.424-.424.824-.819,1.008,2.094-1.97-1.573-7.929-4.279-6.942h0Z" style="fill:#aebbc7;"/><path d="M255.231,137.712c3.417-13.416,7.426-41.215,22.422-50.173,14.995-8.958,25.512-15.385,25.512-15.385,0,0,2.532-1.461,5.745-1.558,0,0,35.833-21.617,37.975-22.883s4.771-1.461,8.958,0,18.598,10.808,22.493,14.022c3.895,3.213,5.453,7.108,7.108,10.614s12.951,27.459,17.04,62.513,6.134,63.389-3.992,69.232c-10.127,5.842-33.691,18.89-33.691,18.89,0,0-2.24,3.976-5.94,6.759s-21.032,12.034-24.927,14.079c-3.895,2.045-13.73,4.674-23.077,0-9.348-4.674-29.796-16.881-34.178-19.2s-12.614-10.012-13.561-12.056" style="fill:none; stroke:#aebbc7; stroke-linecap:round; stroke-linejoin:round; stroke-width:2px;"/><path d="M364.801,222.984c3.798-7.985,4.159-29.901,2.824-45.668-1.493-17.624-8.861-57.547-16.845-73.614-7.985-16.066-10.967-17.799-18.187-22.63-6.511-4.357-17.043-9.291-17.043-9.291,0,0-2.761-1.33-6.64-1.185" style="fill:none; stroke:#aebbc7; stroke-linecap:round; stroke-linejoin:round;"/><path d="M356.538,231.28c8.508-7.084,7.538-36.51,6.203-52.276-1.493-17.624-8.861-57.547-16.845-73.614s-10.967-17.799-18.187-22.63c-6.511-4.357-17.043-9.291-17.043-9.291,0,0-5.138-2.29-9.516-.087" style="fill:none; stroke:#aebbc7; stroke-linecap:round; stroke-linejoin:round; stroke-width:.5px;"/><path d="M267.817,101.247c9.841-14.319,18.895-7.359,30.588-.067,11.342,7.397,15.734,16.48,19.235,29.125,4.377,15.265,7.856,30.81,9.908,46.566.863,7.898,1.539,15.803,2.137,23.72.557,7.916,1.082,15.846.986,23.793.007,3.98-.569,7.973-2.101,11.668-1.423,3.445-3.632,7.895-7.841,8.103,4.204-.246,6.337-4.714,7.727-8.147,1.489-3.709,2.018-7.652,1.97-11.628-.041-15.857-1.656-31.698-3.292-47.459-2.131-15.704-5.606-31.246-9.892-46.499-3.436-12.577-7.754-21.617-18.999-29.001-11.591-7.222-20.435-14.389-30.425-.173h0Z" style="fill:#aebbc7;"/><path d="M304.459,164.128c-16.732,8.815-35.297,18.192-52.325,26.42,16.73-8.817,35.299-18.189,52.325-26.42h0Z" style="fill:#aebbc7;"/><path d="M345.645,88.205c.586-.147,34.297-20.672,34.297-20.672" style="fill:none; stroke:#aebbc7; stroke-linecap:round; stroke-linejoin:round; stroke-width:.5px;"/></g><g id="uuid-a2ddaf65-6b7e-4aff-bd2a-f2f10d2b96fe"><path d="M100.137,27.175c0-4.57-3.705-8.275-8.275-8.275s-8.275,3.705-8.275,8.275c0,4.371,3.391,7.941,7.684,8.245v66.348c0,.276.224.5.5.5s.5-.224.5-.5V35.429c4.379-.215,7.866-3.822,7.866-8.254Z" style="fill:none; stroke:#141b21; stroke-linecap:round; stroke-linejoin:round; stroke-width:3px;"/><line x1="91.771" y1="27.33" x2="91.771" y2="101.768" style="fill:none; stroke:#aebbc7; stroke-linecap:round; stroke-miterlimit:10;"/><circle cx="91.862" cy="27.175" r="8.275" style="fill:#aebbc7;"/><path d="M92.318,21.158h-.913c-3.323,0-6.017,2.694-6.017,6.017s2.694,6.017,6.017,6.017h.913c3.323,0,6.017-2.694,6.017-6.017s-2.694-6.017-6.017-6.017Z" style="fill:#aebbc7;"/><path d="M91.124,25.429c-.2.135-.455.284-.767.449l-.819-1.326c.477-.26.905-.535,1.287-.826.381-.29.732-.613,1.053-.968h1.807v9.334h-1.846v-7.215c-.277.234-.516.418-.715.552Z" style="fill:#141b21;"/><path d="M323.008,27.103c0-4.57-3.705-8.275-8.275-8.275s-8.275,3.705-8.275,8.275c0,4.283,3.254,7.806,7.425,8.232v66.433c0,.276.224.5.5.5s.5-.224.5-.5V35.371c4.5-.081,8.125-3.748,8.125-8.267Z" style="fill:none; stroke:#141b21; stroke-linecap:round; stroke-linejoin:round; stroke-width:3px;"/><line x1="314.382" y1="27.33" x2="314.382" y2="101.768" style="fill:none; stroke:#aebbc7; stroke-linecap:round; stroke-miterlimit:10;"/><circle cx="314.733" cy="27.103" r="8.275" style="fill:#aebbc7;"/><path d="M316.32,21.015h-3.175c-3.363,0-6.089,2.726-6.089,6.089s2.726,6.089,6.089,6.089h3.175c3.363,0,6.089-2.726,6.089-6.089s-2.726-6.089-6.089-6.089Z" style="fill:#aebbc7;"/><path d="M311.206,30.623l3.237-3.029c.303-.277.559-.544.767-.799.208-.256.369-.496.481-.722.113-.225.169-.438.169-.637v-.117c0-.312-.12-.567-.358-.767-.238-.199-.539-.299-.903-.299-.52,0-.918.113-1.196.338-.278.226-.459.611-.546,1.157l-1.638-.52c.139-.832.507-1.476,1.105-1.931s1.356-.683,2.275-.683c.581,0,1.105.104,1.573.312.468.208.838.512,1.111.91s.41.871.41,1.417c0,.451-.089.882-.267,1.293-.178.412-.405.789-.683,1.131-.277.343-.594.674-.949.995l-2.002,1.794h3.965v1.625h-6.552v-1.469Z" style="fill:#141b21;"/></g></svg>