<svg xmlns="http://www.w3.org/2000/svg" width="218" height="155" viewBox="0 0 218 155"><g id="abb1be50-ef4f-4d5a-af69-f0e0b733a56f" data-name="below"><path d="M214.755,110.767a2.251,2.251,0,0,1-1.884,1.739c-11.455,1.631-65.651,8.627-207.67,17.448" style="fill:none;stroke:#687581;stroke-linecap:round;stroke-linejoin:round;stroke-width:0.5px"/><path d="M205.933,83.305c-.2-1.008-1.93-9.469-2.4-11.688-1.241-5.878-19.153-12.687-31.109-12.077-6.741.343-12.892.74-15.789.94a3.22,3.22,0,0,0-2.928,2.527" style="fill:none;stroke:#687581;stroke-linecap:round;stroke-linejoin:round;stroke-width:1.5px"/><path d="M197.892,116.066l-3.644,11.144a6.959,6.959,0,0,1-1.027,1.984l-15.016,20.2a1.938,1.938,0,0,1-1.557.783H12.1" style="fill:none;stroke:#687581;stroke-linecap:round;stroke-linejoin:round;stroke-width:0.5px"/><path d="M12.55,131.164c.959,2.138,1.788,3.266,3.165,5.855,2.03,3.817,5.847,10.149,7.192,12.365a1.656,1.656,0,0,0,1.412.8" style="fill:none;stroke:#687581;stroke-linecap:round;stroke-linejoin:round;stroke-width:0.5px"/><path d="M171.361,59.594s-.52-4.663-.932-9.464-8.156-13.97-18.893-17.685" style="fill:none;stroke:#687581;stroke-linecap:round;stroke-linejoin:round;stroke-width:0.5px"/><path d="M62.978,30.616H33.819a3.119,3.119,0,0,0-3.063,2.2c.165-.891-.76-2.2-2.5-2.2H9.8" style="fill:none;stroke:#687581;stroke-linecap:round;stroke-linejoin:round;stroke-width:0.5px"/><path d="M161.862,119.834c-1.5,5.341-3.894,13.94-4.809,17.418-.731,2.777-2.684,4.1-6.1,4.129-15.986.145-87.35,1.178-106.87,1.464a6.981,6.981,0,0,1-6.588-4.251c-1.031-2.81-2.26-6.2-3.212-8.83" style="fill:none;stroke:#687581;stroke-linecap:round;stroke-linejoin:round;stroke-width:0.5px"/><path d="M38.138,87.26h.779a5.164,5.164,0,0,1,3.167.931l1.343,1.05c.367.286.264.75-.229,1.037a1.67,1.67,0,0,1-.825.214,1.2,1.2,0,0,1-.73-.214L40.3,89.227a2.781,2.781,0,0,0-1.706-.5H16.587a3.891,3.891,0,0,0-1.928.5L12.85,90.278a1.512,1.512,0,0,1-1.555,0c-.366-.287-.264-.751.229-1.037l1.809-1.05a7.223,7.223,0,0,1,3.578-.931H17.96" style="fill:none;stroke:#687581;stroke-linecap:round;stroke-linejoin:round;stroke-width:0.5px"/><line x1="4.97" y1="83.266" x2="17.509" y2="83.266" style="fill:none;stroke:#687581;stroke-linecap:round;stroke-linejoin:round"/><path d="M17.551,59.136q-4.006-.06-8.473-.086" style="fill:none;stroke:#687581;stroke-linecap:round;stroke-linejoin:round"/><path d="M30.743,32.831c-2.312,8.125-3.441,21.743-3.724,25.6" style="fill:none;stroke:#687581;stroke-linecap:round;stroke-linejoin:round;stroke-width:0.5px"/><path d="M39.979,59.839s-.389-1.034-2.323-1.094c-7.265-.223-18.777-.553-18.777-.553s-1.469-.678-2.348,7.725,1.5,18.511,1.5,22.809h20.2c0-3.261-2.338-13.815-1.516-21.677s2.2-7.254,2.2-7.254Z" style="fill:none;stroke:#687581;stroke-linecap:round;stroke-linejoin:round;stroke-width:0.5px"/><path d="M38.229,88.726c0-3.261-2.338-13.815-1.516-21.677s2.2-7.254,2.2-7.254l1.071.044s-.389-1.034-2.323-1.094c-7.265-.223-18.777-.553-18.777-.553s-1.469-.678-2.348,7.725,1.5,18.511,1.5,22.809" style="fill:none;stroke:#687581;stroke-linejoin:round"/><path d="M39.979,59.839s-.389-1.034-2.323-1.094c-7.265-.223-19.094-.559-19.094-.559s-.456-.211-1.012,1.057" style="fill:none;stroke:#687581;stroke-linecap:round;stroke-linejoin:round;stroke-width:1.5px"/><path d="M37.638,83.294H207.83a2.253,2.253,0,0,1,2.2,1.752l4.636,24.7a2.243,2.243,0,0,1,0,1l-.382,1.7a2.25,2.25,0,0,1-1.88,1.735c-11.484,1.636-66.016,8.674-209.215,17.534" style="fill:none;stroke:#687581;stroke-linecap:round;stroke-linejoin:round;stroke-width:1.5px"/><path d="M17.91,59.159q-4.207-.068-8.848-.095" style="fill:none;stroke:#687581;stroke-linecap:round;stroke-linejoin:round;stroke-width:1.5px"/><path d="M60.715,63.517A3.4,3.4,0,0,0,57.6,60.856c-3.928-.239-9.707-.648-17.617-1.017" style="fill:none;stroke:#687581;stroke-linecap:round;stroke-linejoin:round;stroke-width:1.5px"/></g><g id="b538249f-0343-44f4-815e-fe9a65c6801c" data-name="illustration"><path d="M154.2,57.742A13.285,13.285,0,0,1,142.051,72.4c-4.662.372-16.949.958-34.9.958s-30.234-.586-34.9-.959A13.284,13.284,0,0,1,60.108,57.741l4.231-39.453a7.229,7.229,0,0,1,1.651-3.86l4.768-5.676a5.862,5.862,0,0,1,3.878-2.059c4.849-.507,18.747-1.565,32.52-1.565s27.671,1.058,32.52,1.565a5.86,5.86,0,0,1,3.878,2.059l4.768,5.676a7.241,7.241,0,0,1,1.652,3.861Z" style="fill:none;stroke:#687581;stroke-linecap:round;stroke-linejoin:round;stroke-width:1.5px"/><path d="M141.536,7.207l4.857,55.143c.408,3.683-4.138,6.818-6.351,6.976-4.812.344-16.342.86-32.887.86-16.783,0-28.044-.519-32.887-.863-2.2-.155-6.764-3.236-6.351-6.976.473-4.286.231-13.367,3.532-43.274L72.758,7.215" style="fill:none;stroke:#687581;stroke-linecap:round;stroke-linejoin:round;stroke-width:0.5px"/><path d="M96.371,92.1a4.591,4.591,0,0,1,1.784-1.988,6.462,6.462,0,0,1,2.86-.928c1.563-.136,3.549-.206,5.906-.206s4.342.07,5.9.206a6.462,6.462,0,0,1,2.86.928A4.591,4.591,0,0,1,117.47,92.1l1.6,3.708a13.022,13.022,0,0,1,1.062,4.491l.644,12.355a4.231,4.231,0,0,1-1.349,3.292,6.215,6.215,0,0,1-3.741,1.578c-1.524.112-4.283.245-8.769.245s-7.246-.133-8.77-.245a5.983,5.983,0,0,1-3.741-1.578,4.378,4.378,0,0,1-1.349-3.292l.644-12.355a13.022,13.022,0,0,1,1.062-4.491Z" style="fill:#404d59;stroke:#aebbc7;stroke-linecap:round;stroke-linejoin:round;stroke-width:1.5px"/><path d="M106.921,114.37c-4.316,0-6.948-.127-8.4-.233a3.609,3.609,0,0,1-2.257-.92,2.128,2.128,0,0,1-.658-1.56L96.239,99.6a10.571,10.571,0,0,1,.865-3.649l1.565-3.62a2.359,2.359,0,0,1,.894-.959,4.061,4.061,0,0,1,1.791-.57c1.458-.128,3.331-.192,5.566-.192s4.109.064,5.568.192a4.053,4.053,0,0,1,1.791.571,2.355,2.355,0,0,1,.893.958l1.565,3.62A10.549,10.549,0,0,1,117.6,99.6l.628,12.061a2.009,2.009,0,0,1-.658,1.56,3.83,3.83,0,0,1-2.257.92C113.868,114.243,111.236,114.37,106.921,114.37Z" style="fill:none;stroke:#aebbc7;stroke-linecap:round;stroke-linejoin:round;stroke-width:0.5px"/><path d="M117.1,113.249V109.4c-.028-.844-.609-1.092-1.723-1.6-1.2-.549-2.171-.713-8.454-.713s-7.253.164-8.454.713c-1.115.509-1.731.758-1.741,1.6v3.86" style="fill:none;stroke:#aebbc7;stroke-linecap:round;stroke-linejoin:round"/><path d="M97.018,113.739V111.5c0-1.028.452-1.233,1.627-1.769s2.124-.7,8.271-.7,7.1.161,8.271.7,1.632.7,1.629,1.769v2.226" style="fill:none;stroke:#aebbc7;stroke-linecap:round;stroke-linejoin:round;stroke-width:0.5px"/><path d="M116.714,104.42H97.125c-.285,0-.285-3.089,0-3.089h19.589C117,101.331,117,104.42,116.714,104.42Z" style="fill:none;stroke:#aebbc7;stroke-linecap:round;stroke-linejoin:round;stroke-width:0.5px"/><path d="M99.531,101.331a57.9,57.9,0,0,0,.443-8.955" style="fill:none;stroke:#aebbc7;stroke-linecap:round;stroke-linejoin:round;stroke-width:0.5px"/><path d="M98.467,107.8c.159-.865.3-1.611.418-2.276q.1-.549.2-1.1" style="fill:none;stroke:#aebbc7;stroke-linecap:round;stroke-linejoin:round;stroke-width:0.5px"/><path d="M114.31,101.331a57.9,57.9,0,0,1-.443-8.955" style="fill:none;stroke:#aebbc7;stroke-linecap:round;stroke-linejoin:round;stroke-width:0.5px"/><path d="M115.375,107.8c-.159-.865-.3-1.611-.419-2.276q-.1-.549-.2-1.1" style="fill:none;stroke:#aebbc7;stroke-linecap:round;stroke-linejoin:round;stroke-width:0.5px"/><path d="M110.181,97.689v1.836a1.4,1.4,0,0,0-1.493,1.132l-.266,3.861a.473.473,0,0,1-.5.383H105.93a.475.475,0,0,1-.506-.383l-.266-3.861a1.4,1.4,0,0,0-1.492-1.132V97.632Z" style="fill:#f4ae3d;stroke:#141b21;stroke-linecap:round;stroke-linejoin:round;stroke-width:1.5px"/><path d="M107.066,99.685a47.41,47.41,0,0,1-8.432-.582,2.478,2.478,0,0,1-1.848-2.04l-1-5.048a2.9,2.9,0,0,1-.055-.547V88.651a1.6,1.6,0,0,1,1.547-1.645h.236a1.162,1.162,0,0,0,.707-.252L99,86.135a2.078,2.078,0,0,1,1.267-.445h13.548a2.074,2.074,0,0,1,1.263.441l.782.627a1.183,1.183,0,0,0,.707.248h.236a1.6,1.6,0,0,1,1.547,1.645v2.817a2.753,2.753,0,0,1-.055.548l-1,5.046a2.443,2.443,0,0,1-1.831,2.04A46.882,46.882,0,0,1,107.066,99.685Z" style="fill:#f4ae3d;stroke:#141b21;stroke-linecap:round;stroke-linejoin:round;stroke-width:1.5px"/><path d="M97.434,89.256v-.378a.5.5,0,0,1,.436-.49,2.664,2.664,0,0,0,1.409-.572l.786-.625a.413.413,0,0,1,.238-.085h13.472a.423.423,0,0,1,.247.092l.76.609a2.759,2.759,0,0,0,1.426.581.5.5,0,0,1,.436.483l.007.385" style="fill:none;stroke:#aebbc7;stroke-linecap:round;stroke-linejoin:round;stroke-width:0.5px"/><path d="M97.725,89.24s-.895-39.7-1.171-63.616C96.319,5.307,97.648,4.8,97.648,4.8s3.027-.266,9.508-.266,9.278.266,9.278.266,1.308.5,1.094,20.821c-.206,19.52-1.219,63.616-1.219,63.616" style="fill:#f4ae3d;stroke:#141b21;stroke-linecap:round;stroke-linejoin:round;stroke-width:1.5px"/><path d="M116.652,89.256v2.653a.878.878,0,0,1-.017.171.762.762,0,0,1-.609.625,56.844,56.844,0,0,1-8.963.54,57.169,57.169,0,0,1-9-.543.773.773,0,0,1-.61-.625.96.96,0,0,1-.016-.17V89.256s3.4-.177,9.609-.177S116.652,89.256,116.652,89.256Z" style="fill:#f4ae3d;stroke:#141b21;stroke-linecap:round;stroke-linejoin:round;stroke-width:0.5px"/></g></svg>