<svg xmlns="http://www.w3.org/2000/svg" width="80" height="80" viewBox="0 0 80 80"><g id="a04aefaf-005d-43e7-96f1-ea4cabe174d8" data-name="illustration"><path d="M64.1088,69.6337a12.6436,12.6436,0,0,1-3.9139,5.9388,12.3718,12.3718,0,0,1-6.5368,2.8033A123.97,123.97,0,0,1,40,79a123.9682,123.9682,0,0,1-13.658-.6242,12.3713,12.3713,0,0,1-6.5369-2.8033,12.6447,12.6447,0,0,1-3.9138-5.939L12.64,58.8133A44.0329,44.0329,0,0,1,10.777,46.1349V13.46a12.0755,12.0755,0,0,1,3.1663-8.202,12.51,12.51,0,0,1,7.8992-3.8591C25.0025,1.1275,30.7177.8041,40,.8041s14.9976.3234,18.1576.5948a12.0656,12.0656,0,0,1,7.8992,3.8593A12.52,12.52,0,0,1,69.223,13.46V46.135A44.0374,44.0374,0,0,1,67.36,58.8134Z" style="fill:none;stroke:#687581;stroke-linecap:round;stroke-linejoin:round;stroke-width:1.5px"/><path d="M40,75.6139a118.49,118.49,0,0,1-13.0314-.5919,9.3382,9.3382,0,0,1-7.8862-6.5972l-3.74-12.5114a41.2127,41.2127,0,0,1-1.7441-11.8668V13.368a9.2289,9.2289,0,0,1,8.486-9.2508c3.105-.2665,8.7337-.5843,17.9161-.5843s14.8113.3178,17.9163.5843a9.2292,9.2292,0,0,1,8.486,9.2508V44.0468a41.2084,41.2084,0,0,1-1.7441,11.8666l-3.74,12.5115a9.3386,9.3386,0,0,1-7.8862,6.5971A118.4923,118.4923,0,0,1,40,75.6139Z" style="fill:none;stroke:#687581;stroke-linecap:round;stroke-linejoin:round;stroke-width:0.5px"/><path d="M40,70.5011a117.8832,117.8832,0,0,1-12.9272-.5824,5.978,5.978,0,0,1-5.0418-4.2178L18.78,54.8805a37.6506,37.6506,0,0,1-1.5923-10.8338V14.4457a5.66,5.66,0,0,1,5.2031-5.6739c3.0348-.2605,8.5535-.5712,17.609-.5712s14.5744.3107,17.6092.5712a5.66,5.66,0,0,1,5.2031,5.6739v29.601A37.6506,37.6506,0,0,1,61.22,54.8805l-3.2508,10.82a5.9789,5.9789,0,0,1-5.0418,4.2179A117.8859,117.8859,0,0,1,40,70.5011Z" style="fill:none;stroke:#687581;stroke-linecap:round;stroke-linejoin:round"/><path d="M60.74,43.5582a7.808,7.808,0,0,1-1.1938,4.15l-2.0812,3.3178a7.8418,7.8418,0,0,1-5.8611,3.6336c-2.4338.2442-6.155.4692-11.604.4692s-9.17-.225-11.6041-.4692a7.8513,7.8513,0,0,1-5.8611-3.6336l-2.0812-3.3178a7.8089,7.8089,0,0,1-1.1938-4.15V15.0841a4.0506,4.0506,0,0,1,3.7009-4.0371c3.0964-.2659,8.4264-.5514,17.0393-.5514s13.9428.2855,17.0392.5514A4.0454,4.0454,0,0,1,60.74,15.0841Z" style="fill:none;stroke:#687581;stroke-linecap:round;stroke-linejoin:round"/><path d="M21.2251,48.9377A44.0185,44.0185,0,0,0,24.4089,65.383" style="fill:none;stroke:#687581;stroke-linecap:round;stroke-linejoin:round;stroke-width:0.5px"/><path d="M58.7748,48.9377A44.02,44.02,0,0,1,55.5911,65.383" style="fill:none;stroke:#687581;stroke-linecap:round;stroke-linejoin:round;stroke-width:0.5px"/></g><g id="e4634941-349f-4d2c-8f42-ee7a18ceb7ef" data-name="icons"><polygon points="31.149 27.13 32.604 27.133 32.606 25.127 31.172 25.127 31.149 27.13" style="fill:#aebbc7"/><path d="M32.0541,22.5749a5.2761,5.2761,0,0,0-.6277,1.2839L31.36,24.06l1.3667.4534.0663-.203a3.8175,3.8175,0,0,1,.4576-.9355l.1185-.1772-1.1963-.8Z" style="fill:#aebbc7"/><path d="M34.1909,20.7211a5.4408,5.4408,0,0,0-1.1928.7831l-.1618.1391.9413,1.0888.1612-.1387a3.9669,3.9669,0,0,1,.8715-.5742l.1913-.092-.6181-1.2984Z" style="fill:#aebbc7"/><path d="M41.3906,23.4189a5.3519,5.3519,0,0,0-.7379-1.22l-.1327-.165-1.1241.8933.1341.1668a3.9306,3.9306,0,0,1,.54.8921l.0845.1938,1.3215-.5647Z" style="fill:#aebbc7"/><path d="M35.5482,20.2865l-.2088.038.2518,1.4143.2095-.037a3.77,3.77,0,0,1,1.04-.0456l.2142.0219.13-1.4341-.2111-.02A5.2714,5.2714,0,0,0,35.5482,20.2865Z" style="fill:#aebbc7"/><path d="M39.62,21.2159a5.27,5.27,0,0,0-1.256-.6757l-.1989-.0743-.5083,1.3447.2.0746a3.9056,3.9056,0,0,1,.9178.4919l.1718.1242.8459-1.16Z" style="fill:#aebbc7"/><circle cx="43.8536" cy="26.1545" r="1.0344" style="fill:#aebbc7"/><path d="M33.5874,33.7926l.7807.1909a2.2709,2.2709,0,0,1-1.8749,1.4317l.0073-3.856,1.3064,0-.0013-1.2168L32.5013,30.34l.0006-.44a1.011,1.011,0,0,0-.61-1.8169H31.889a1.0111,1.0111,0,0,0-.61,1.8174l-.0011.4367-1.3109-.0018.0048,1.2185,1.3039.0029-.0073,3.84a2.2539,2.2539,0,0,1-1.7756-1.4226l.7806-.1884-1.8411-1.6892-.7011,2.3755.79-.2217a3.3307,3.3307,0,0,0,2.9524,2.4035l.4032.0187.509-.0179a3.3254,3.3254,0,0,0,2.9508-2.3918l.79.2242L35.4361,32.11Z" style="fill:#aebbc7"/><path d="M50.7947,34.2089a1.4521,1.4521,0,0,0-1.397-.5336l-6.5559.7383c-.9917-2.6159-3.3847-8.94-3.4677-9.212a3.1083,3.1083,0,0,0-1.3106-1.8463,2.6354,2.6354,0,0,0-2.12-.19l-.1866.0525,3.4087,15.6866,10.3794.02,1.3891-3.1166A1.6513,1.6513,0,0,0,50.7947,34.2089ZM40.37,37.6284l-3.152-13.295a.7464.7464,0,0,1,.2756.119,1.5874,1.5874,0,0,1,.593.8642c.0475.2542,3.0616,8.7021,3.6652,10.3932l.0551.1544,7.7574-.9044a.291.291,0,0,1,.2482.0635.1117.1117,0,0,1-.002.1066c-.1235.2855-.9065,2.0348-1.1216,2.515Z" style="fill:#aebbc7"/><path d="M46.5778,30.7967a.6218.6218,0,0,0,.4552.1488l2.0132-.1653,1.1336.46a.6179.6179,0,1,0,.4641-1.1453l-1.27-.5148a.6288.6288,0,0,0-.2827-.043l-1.9005.156L45.92,28.5919l1.498-.499a.6177.6177,0,0,0-.3909-1.1719L44.5,27.7629a.6175.6175,0,0,0-.2091,1.0528Z" style="fill:#aebbc7"/><path d="M41.61,29.0236c.0049.0137.0105.0274.0161.041l1.689,3.9262a.6181.6181,0,0,0,.5671.3736c.0189,0,.0374-.0008.0563-.0024l5.1423-.4685a.6178.6178,0,0,0-.1118-1.2306l-2.6523.2417-3.47-3.1289-.077-.179-1.1147-3.2043a.6178.6178,0,0,0-1.1671.4058Z" style="fill:#aebbc7"/></g></svg>