<?xml version="1.0" encoding="UTF-8"?><svg id="uuid-3830df7e-16f2-4663-888e-044117c7a053" xmlns="http://www.w3.org/2000/svg" width="39" height="39" viewBox="0 0 39 39"><path d="m17.087,11.4161c.0178-1.267.9082-2.3314,2.0903-2.4823.7085-.0955,1.3874.1149,1.9156.58.5231.4606.8233,1.1213.8233,1.815v.0877c2.2688.2953,4.363,1.1412,6.1467,2.4059v-2.2479c0-4.7706-3.7693-8.7225-8.4035-8.8078-2.3256-.0478-4.5057.829-6.1586,2.4518-1.6529,1.6239-2.5633,3.7938-2.5633,6.1103v2.4938c1.7844-1.2652,3.8795-2.1115,6.1494-2.4064Z" style="fill:#aebbc7; stroke-width:0px;"/><path d="m20.1366,13.6168h-1.2725c-6.2968,0-11.4194,5.1232-11.4194,11.4199s5.1226,11.4188,11.4194,11.4188h1.2725c6.2962,0,11.4188-5.1232,11.4188-11.4199s-5.1226-11.4188-11.4188-11.4188Zm-5.5364,13.345c.3584-.3943.9672-.4233,1.3619-.0655.8424.7653,2.1151,1.204,3.4913,1.204,1.507,0,2.8929-.53,3.707-1.418.3599-.3919.9693-.4188,1.3622-.0589.3923.3601.4188.9696.059,1.3622-1.1733,1.2792-3.0903,2.0429-5.1283,2.0429-1.8497,0-3.5948-.6213-4.7876-1.7047-.394-.3581-.4233-.9679-.0655-1.3619Zm-.2029-4.139c0-.7032.5701-1.2733,1.2733-1.2733s1.2733.57,1.2733,1.2733-.5701,1.2733-1.2733,1.2733-1.2733-.57-1.2733-1.2733Zm9.6462,1.2733c-.7032,0-1.2733-.57-1.2733-1.2733s.5701-1.2733,1.2733-1.2733,1.2733.57,1.2733,1.2733-.5701,1.2733-1.2733,1.2733Z" style="fill:#aebbc7; stroke-width:0px;"/></svg>