<?xml version="1.0" encoding="UTF-8"?><svg id="uuid-c40c8fb7-e277-4820-954e-c69c1979a251" xmlns="http://www.w3.org/2000/svg" width="325" height="165.4018" xmlns:xlink="http://www.w3.org/1999/xlink" viewBox="0 0 325 165.4018"><defs><clipPath id="uuid-d1477e25-e764-434b-8a51-60472be1e2f5"><rect x="-8.4376" y="-49.0902" width="341.8752" height="213.3884" style="fill:none; stroke-width:0px;"/></clipPath></defs><g style="clip-path:url(#uuid-d1477e25-e764-434b-8a51-60472be1e2f5);"><path d="m-63.9418-36.3402s-10.86,5.0855-13.6982,6.6282c-3.8598,2.0979-8.3787,7.2727-8.3787,11.7915v2.9883s-.0729,1.7492.8746,2.551c0,0-2.1137,1.3119-2.1137,2.551v3.2069c0,.5831,1.1662,4.2273,3.2069,7.2156,0,0-1.1935.586-.9475,2.7696,2.6997,23.9647,18.4582,71.4234,18.4582,71.4234,0,0,.733,5.4971,11.1775,9.1619,10.4446,3.6648,188.6192,58.8996,263.1302,78.0595,12.8267,3.2983,26.5696,1.2827,34.4488-7.5128,7.8792-8.7954,10.6278-12.6434,10.6278-12.6434,0,0,2.5653-2.1989,3.6648-4.7642,1.0994-2.5653,2.9318-5.3139,2.9318-5.3139,0,0,.5497-1.2827,0-2.5653,0,0,23.4545-23.088,55.7044-63.4005,0,0,1.4659-1.8324-1.4659-5.4971,0,0,6.3994-6.3229,6.9886-9.0479s.5155-4.8608.5155-4.8608c0,0-.0736-2.7986-2.8723-4.4189" style="fill:none; stroke:#687581; stroke-miterlimit:10;"/><path d="m-85.1441-12.3813c2.669,1.64,4.5865,2.3248,8.1474,3.1466,3.561.8218,86.285,16.7092,91.6265,17.8049,5.3415,1.0957,14.2439,2.4653,25.7486,1.6435s46.5665-4.3827,55.6059-5.4784c9.0394-1.0957,20.1332-.6848,33.2814,1.5066,13.1482,2.1914,117.7859,19.3114,127.2362,20.681,9.4503,1.3696,26.9812-1.7805,34.514-10.1351" style="fill:none; stroke:#687581; stroke-miterlimit:10;"/><path d="m266.9223,26.8897c20.8782,3.069,32.7555,6.4607,37.6783,12.1483.8431.9741,1.926,1.7001,3.1805,1.9932,2.5433.5942,6.9245,1.4002,10.5303.9506" style="fill:none; stroke:#687581; stroke-miterlimit:10;"/><path d="m313.6794,60.3093c-9.9262,5.2363-17.2705,7.7016-21.0627,9.3452s-14.749,2.8762-27.6233,1.0957S63.3877,32.8121,26.4084,24.1836C7.0507,19.6668-77.6829,3.1601-84.0508.5921" style="fill:none; stroke:#687581; stroke-miterlimit:10;"/><path d="m-85.9133,4.4613c3.9127,1.2641,10.0544,2.3897,14.1452,3.3125C-51.3572,12.0631-21.0669,18.1043-.5857,22.4574c0,0,14.214,3.0504,14.214,3.0504,3.4428.9787,7.3856,1.0633,10.2937,3.3498.9471.7679,1.6641,1.7832,2.1984,2.866-.5521-1.0742-1.2836-2.0735-2.236-2.8199-2.9324-2.2274-6.8563-2.2422-10.3069-3.1614,0,.0002-14.2306-2.9609-14.2306-2.9609-20.5608-4.1274-50.7568-10.3131-71.1667-14.7695-4.0383-.982-10.1782-2.217-14.0935-3.5507h0Z" style="fill:#687581; stroke-width:0px;"/><path d="m314.5444,64.7666c-5.4065,2.8814-11.0037,5.3975-16.7007,7.6503-2.8565,1.108-5.6348,2.508-8.6948,2.9391-9.09,1.4694-18.4332.928-27.4657-.6873-30.1567-5.358-60.2311-11.16-90.32-16.8817-48.08-9.4565-96.2599-18.4791-144.0899-29.1459,47.1793,10.1303,96.8587,19.4881,144.1842,28.6561,30.0731,5.7896,60.1338,11.6601,90.2747,17.0861,9.0058,1.631,18.3144,2.1827,27.3853.7932,3.0611-.4123,5.8272-1.7888,8.6814-2.8727,5.7095-2.2142,11.3197-4.6915,16.7455-7.5372h0Z" style="fill:#687581; stroke-width:0px;"/><path d="m26.4084,24.1836s-1.5066,2.6022,0,6.0263c1.5066,3.424,20.4071,41.636,28.0769,51.908s12.8743,14.7917,26.7073,18.7636c13.833,3.9719,121.8947,33.9662,134.3581,36.7054,12.4634,2.7392,27.1069,3.0995,43.8902-8.3799" style="fill:none; stroke:#687581; stroke-miterlimit:10;"/><path d="m237.1014,86.5768c3.0163-2.4755,7.3664-2.5822,10.9669-1.752,3.3939.5617,6.787,1.1356,10.2075,1.4851,6.8237.7466,13.7405.9489,20.5496-.0285,3.3959-.5056,6.7396-1.3416,9.9979-2.4534.2257-.0508.4569-.0626.6846-.0182.8239.1679.5299,1.1913.2702,1.7207.2283-.5279.5071-1.5084-.284-1.6515-.2006-.0359-.455-.011-.6388.0376-3.2144,1.2471-6.5637,2.1588-9.9732,2.728-6.8279,1.1025-13.81.9292-20.6576.123-3.4326-.3671-6.8328-.9665-10.2188-1.6137-3.5982-.8739-7.8261-.9157-10.9044,1.4229h0Z" style="fill:#687581; stroke-width:0px;"/><path d="m-84.0943-19.942c.6777.5548,2.0216,1.1224,5.0493,1.7531C-72.996-16.9286,6.3983-2.478,13.2036-1.3859c6.8052,1.0922,18.9034,2.5204,30.8336,0s32.6819-7.6506,44.9481-9.4123c12.2662-1.7617,20.9198-1.7617,35.9585.5907,15.0387,2.3524,159.2927,23.7763,162.0652,24.1964,2.0782.3149,3.5745.5353,5.0309.3429" style="fill:none; stroke:#687581; stroke-dasharray:0 0 2.0032 1.0016; stroke-miterlimit:10; stroke-width:.25px;"/><path d="m292.5414,14.2486c.3186-.0639.6383-.1493.9648-.2597" style="fill:none; stroke:#687581; stroke-miterlimit:10; stroke-width:.25px;"/><path d="m-84.8673-16.9869c.6765.5558,2.0197,1.1244,5.053,1.7563C-73.7652-13.9704,3.7322.4802,10.5374,1.5724c6.8052,1.0922,18.9034,2.5204,30.8336,0,11.9302-2.5205,32.6819-7.6507,44.9481-9.4124,12.2662-1.7617,20.9198-1.7617,35.9585.5908,15.0387,2.3524,159.2927,23.7763,162.0652,24.1964,2.0795.3151,3.5762.5356,5.0333.3426" style="fill:none; stroke:#687581; stroke-dasharray:0 0 1.9935 .9967; stroke-miterlimit:10; stroke-width:.25px;"/><path d="m289.8752,17.2069c.3186-.0639.6383-.1493.9648-.2597" style="fill:none; stroke:#687581; stroke-miterlimit:10; stroke-width:.25px;"/><path d="m23.6532,9.9638s206.1301,39.2835,235.7877,43.2554c29.6576,3.9719,38.8455-1.6502,58.8704-11.2375" style="fill:none; stroke:#687581; stroke-miterlimit:10; stroke-width:.5px;"/><path d="m-81.2634,12.6983c1.0824.2347,2.4803.5547,3.837.9214C-73.1163,14.7847-6.7691,30.2452,1.6676,32.1505c8.52,1.924,15.4219,5.3683,21.4152,15.9244l1.1499,2.0259c5.6385,9.9353,17.3705,30.6096,21.4718,36.2638,4.2654,5.8781,9.0991,12.541,28.4437,18.1355,1.1534.333,115.5122,33.3812,140.6908,38.995,12.7661,2.032,18.9501.911,21.5044.0609,5.3156-1.7713,16.0219-5.7387,20.136-8.0971" style="fill:none; stroke:#687581; stroke-dasharray:0 0 2.0036 1.0018; stroke-miterlimit:10; stroke-width:.25px;"/><path d="m256.912,135.2017c.3357-.2079.6105-.4007.8143-.5752" style="fill:none; stroke:#687581; stroke-miterlimit:10; stroke-width:.25px;"/><path d="m251.348,143.7988c-.2944.1501-.5923.3-.8927.4494" style="fill:none; stroke:#687581; stroke-miterlimit:10; stroke-width:.25px;"/><path d="m249.5612,144.6876c-4.0111,1.9482-8.3508,3.7583-11.2654,4.7296-2.7946.9315-6.4048,1.3973-10.7015,1.3973-4.0361,0-8.6781-.4102-13.8231-1.2344l-.1821-.0338c-25.1774-5.5951-139.9995-38.7772-141.1566-39.112-21.3838-6.1833-27.1189-14.0891-31.7281-20.442-4.304-5.933-15.7139-26.0401-21.8447-36.8424l-1.1487-2.0241c-4.9134-8.6527-10.1019-11.3-17.4043-12.9495-6.3795-1.4401-74.6658-17.3277-79.345-18.5922-.6677-.1805-1.2702-.3613-1.8143-.5413" style="fill:none; stroke:#687581; stroke-dasharray:0 0 1.9934 .9967; stroke-miterlimit:10; stroke-width:.25px;"/><path d="m-83.2168,14.4038s.4963.9851,4.985,2.1982S-6.5347,33.4648.9869,35.1632c7.5215,1.6984,13.8299,4.61,19.4104,14.4365,5.5805,9.8265,18.3186,32.3911,22.8072,38.5782,4.4887,6.1871,9.9478,13.466,30.0861,19.2891,20.1383,5.8231,118.0396,33.9682,140.9681,39.0635,12.1315,1.941,19.1915,1.2463,23.0603-.0433,5.8835-1.9612,16.1898-6.8352,19.19-9.401" style="fill:none; stroke:#687581; stroke-miterlimit:10; stroke-width:.25px;"/><path d="m233.7976,151.7958c-1.3134,5.9764-5.5927,9.7327-11.7095,10.185-.7877.0746-1.5816.0689-2.3675.0838,1.5635-.2064,3.1261-.3839,4.6177-.8451,4.8291-1.1205,7.8868-4.9014,9.4594-9.4237h0Z" style="fill:#687581; stroke-width:0px;"/><path d="m245.2026,127.7941c9.0611-12.3105,19.3887-25.5706,28.5563-37.8011-8.7662,12.8229-18.8228,25.6847-28.5563,37.8011h0Z" style="fill:#687581; stroke-width:0px;"/><path d="m60.207,83.5546c-7.3824-11.6026-13.8101-23.7827-20.1701-35.9668-.5577-1.2465-1.8529-3.3031-2.1636-4.6854-1.5358-7.1084,8.4359-3.787,12.1585-3.0777,12.8126,2.7707,86.3867,18.377,100.8613,21.4632,3.1725.7048,12.0106,2.6131,15.1093,3.3501,3.3241.7949,6.8359,2.9274,7.6371,6.4885.7974,3.6296-1.6975,6.7359-3.7494,9.41-6.3801,8.0537-13.4161,15.7213-20.2196,23.4234-1.044,1.1355-2.3171,2.8326-3.5073,3.8-8.8306,6.957-20.2262,1.2125-29.7905-.9079-9.5829-2.5981-20.1729-5.6564-29.7683-8.4221-2.8615-.9328-7.0838-1.9382-9.8635-3.0099-6.23-2.654-12.6139-6.1759-16.5338-11.8654h0Zm0,0c3.9328,5.6744,10.3278,9.1727,16.5566,11.8058,5.5186,1.8795,14.1102,4.1285,19.784,5.8041,9.9264,2.7869,19.8526,5.5878,29.8493,8.1116,6.4299,1.8468,14.0708,2.8783,19.5847-1.734,1.1697-.9318,2.4344-2.6767,3.4645-3.7799,0,0,3.415-3.8634,3.415-3.8634,4.5518-5.1508,9.1033-10.3037,13.4918-15.5896,3.7722-4.7938,11.0881-11.7687,4.1094-17.1375-2.7013-2.1183-6.2878-2.3909-9.5964-3.2183l-10.078-2.179c-18.7363-4.0414-88.331-19.04-105.8301-22.8648-3.0922-.6469-8.3153-.6878-6.9494,3.957.37,1.3793,1.4902,3.3573,2.1392,4.6645,6.3222,12.2017,12.7126,24.3999,20.0593,36.0236h0Z" style="fill:#687581; stroke-width:0px;"/><path d="m55.2778,41.0587c-8.9553.6425-1.9678,11.158.3176,15.356,3.1504,5.5811,6.3906,11.115,9.7812,16.5509,3.3114,5.3913,7.6756,10.517,13.7212,12.8249,5.1676,1.9448,13.0372,3.8507,18.4253,5.4079,6.1888,1.6639,12.3892,3.2924,18.6062,4.8376l2.3329.562c2.2937.6528,4.6684.5672,6.9482-.0887,3.0796-.8512,5.5908-2.8231,7.4616-5.4031,3.9837-5.0129,7.892-10.0962,11.7783-15.19,2.1577-3.1171,5.2633-6.291,6.7639-9.6782.641-2.3403-1.9049-3.824-3.6181-4.8777,0,0,.4974-.8675.4974-.8675,3.4193,1.9365,5.7665,4.5317,2.8657,8.2646-1.8923,2.6334-3.8547,5.1453-5.8095,7.6947-3.9237,5.0736-7.8636,10.1294-11.8894,15.1279-1.9087,2.6152-4.6746,4.7611-7.8614,5.5953-2.3548.6709-4.9336.7414-7.2846.0504,0,0-2.3375-.5793-2.3375-.5793-6.2152-1.588-12.4049-3.2571-18.5863-4.9626-5.4299-1.6251-13.1955-3.5395-18.4332-5.5429-6.0991-2.3726-10.4926-7.5824-13.7941-13.042-3.3592-5.4646-6.5625-11.0188-9.6779-16.6229-2.2709-4.2311-9.2035-14.8656-.2076-15.4175h0Z" style="fill:#687581; stroke-width:0px;"/><path d="m105.6592,51.8442c.5386,3.7806.7146,7.7383,2.2142,11.2828,1.4983,3.6121,4.9872,5.7943,8.6003,6.9155,3.6718,1.1489,7.3869,2.1985,11.1181,3.1678,3.7351.9571,7.4786,1.8943,11.2415,2.7382,2.6645.5911,5.4661-.3573,7.7163-1.7912-2.2366,1.5344-5.0609,2.6-7.7718,2.0566-3.7853-.771-7.5546-1.6125-11.2975-2.568-3.7448-.9494-7.4747-1.9525-11.1552-3.1545-3.6841-1.16-7.3302-3.4815-8.7663-7.2289-1.4732-3.6327-1.4974-7.582-1.8996-11.4183h0Z" style="fill:#687581; stroke-width:0px;"/><path d="m109.572,67.7064c-10.5664,5.1018-22.3861,10.2736-32.9813,15.3128,10.6441-5.8099,21.793-10.6576,32.9813-15.3128h0Z" style="fill:#687581; stroke-width:0px;"/><path d="m38.6835,44.7908c-4.5487-9.6608,8.1887-5.6113,12.9489-4.6958,0,0,18.7251,3.9158,18.7251,3.9158,22.0792,4.5972,53.1671,10.9877,74.8759,15.7898,6.2349,1.3413,12.4487,2.7762,18.6446,4.3039,1.537.4048,3.1362.7024,4.5996,1.4268,5.0419,2.2534,6.7456,7.2905,3.4162,11.9196,4.4955-7.103-1.1394-11.8901-8.1334-12.8233-29.1972-5.8014-64.1768-13.6505-93.5203-20.0689,0,0-18.6797-4.1331-18.6797-4.1331-4.6923-.9859-17.2544-5.2378-12.877,4.3651h0Z" style="fill:#687581; stroke-width:0px;"/><path d="m149.15,75.615s3.6978-4.6581,4.989-6.3914c1.2912-1.7333,2.647-2.4633,5.9396-1.5172s6.9725,2.4309,8.3283,3.012,2.4533,2.3163.8393,4.6444c-1.614,2.3281-4.5192,6.0726-5.294,7.1701s-2.7473,1.8077-4.6017,1.1621c-1.8544-.6456-8.8914-3.0989-9.8599-3.7445s-1.6666-2.6597-.3407-4.3355Z" style="fill:#404d59; stroke:#aebbc7; stroke-miterlimit:10; stroke-width:1.5px;"/><path d="m25.7921,109.3885c-5.5408,3.0003-1.8137,16.1651-1.017,21.2427,1.4679,7.4438,3.0349,14.8698,4.6123,22.2928,3.1659,14.8441,6.4178,29.6704,9.7067,44.4883-3.3701-14.7997-6.7034-29.6079-9.951-44.4355-2.1793-10.1335-4.5212-20.4483-6.3151-30.672-.4773-3.9673-1.4959-11.2914,2.8574-13.4049.0002.0001.1068.4886.1068.4886h0Z" style="fill:#687581; stroke-width:0px;"/><path d="m69.9025,122.5027l7.5592,41.8131s10.6278,1.5935,13.7106,9.3161c3.0828,7.7225,3.2553,10.6178,3.2553,10.6178" style="fill:none; stroke:#687581; stroke-miterlimit:10; stroke-width:.5px;"/><line x1="77.4616" y1="164.3158" x2="63.4358" y2="173.5612" style="fill:none; stroke:#687581; stroke-miterlimit:10; stroke-width:.5px;"/><polygon points="233.9347 160.0991 298.7356 179.087 233.6606 161.0608 233.9347 160.0991 233.9347 160.0991" style="fill:#687581; stroke-width:0px;"/><path d="m184.4917,24.8058l1.8293-1.5439c1.4633-1.2127.0479-2.7269-1.3878-3.0693-3.8877-.8176-7.919-1.2116-11.8367-1.922-9.4665-1.5279-28.535-4.6656-37.992-6.2501-6.3258-1.0764-12.6623-2.0957-18.9686-3.2824,17.4923,3.0467,39.3772,6.3797,57.0187,9.1623,3.1701.4863,6.3443.9767,9.5149,1.4178,1.5816.2275,3.4808.3646,4.4853,1.8583.5139.7838.196,1.9057-.509,2.4447,0,0-1.8383,1.5722-1.8383,1.5722l-.3158-.3876h0Z" style="fill:#687581; stroke-width:0px;"/><path d="m68.9887,15.2181c4.5602.76,84.9074,15.313,91.7477,16.5056,6.8404,1.1925,11.9435,1.7354,16.3952-1.1962,3.0021-1.977,5.7078-4.0527,7.518-5.5279" style="fill:none; stroke:#687581; stroke-miterlimit:10; stroke-width:.5px;"/><path d="m116.136,8.7381c-4.6078-.8791-9.3369-1.158-14.0226-1.1124-4.0409.1337-9.9243,1.0043-14.0187,1.3896,0,.0001-14.0044,1.6023-14.0044,1.6023l-3.4957.4327c-1.3239.2135-6.3161.4825-4.6439,2.6781.7784.7398,1.9675,1.045,3.0791,1.243l-.0822.4932c-1.4119-.3119-3.3606-.6796-3.8117-2.298.0435-2.3654,3.7685-2.1967,5.4082-2.5195,0,0,3.5031-.402,3.5031-.402l14.021-1.4782c4.1184-.3494,9.9594-1.1655,14.0426-1.2661,4.6942-.0041,9.4197.3166,14.0251,1.2373h0Z" style="fill:#687581; stroke-width:0px;"/><path d="m219.108,27.4771c7.1169,1.1738,14.2215,2.3723,15.0988,2.57,1.8039.4325,2.0881,1.2974,1.0873,2.187-1.0132.8896-7.8459,7.0922-9.8599,8.822-2.014,1.7422-6.1038.8526-8.0436.5684-1.8018-.2623-25.6428-4.3241-29.3064-4.9485-.1767-.0301-.2226-.2575-.0766-.3616l7.402-5.2788" style="fill:none; stroke:#687581; stroke-miterlimit:10; stroke-width:.5px;"/><path d="m197.4607,29.5776l5.7163-4.3228c.2924-.209.6488-.2949,1.0037-.2385.191.0303.6763.1374.9985.1851" style="fill:none; stroke:#687581; stroke-miterlimit:10; stroke-width:.5px;"/><path d="m189.0103,36.8282s6.1905-4.6827,6.7759-5.1046,1.8734-.8902,4.4493-.539,9.6401,1.7953,10.2256,1.9124,1.0928.4855,1.0928.8477v.9476s-.039.4683-.5074.9367-4.1371,3.2394-4.1371,3.2394c0,0-1.0858.6182-1.8574.4873" style="fill:none; stroke:#687581; stroke-miterlimit:10; stroke-width:.5px;"/><path d="m211.023,33.3005s.718.46,0,1.0845-3.45,2.732-3.9183,3.0833-1.9124.9367-3.6297.7025-12.3721-2.0628-12.3721-2.0628c0,0-1.2578.0021-2.0925.7202" style="fill:none; stroke:#687581; stroke-miterlimit:10; stroke-width:.25px;"/><path d="m198.5851,29.7382c1.8781-1.4209,4.8064-3.6203,5.2018-3.9044.5807-.4201,1.4501-.9396,4.0325-.5936,2.57.3583,10.0531,1.8539,10.6338,1.9651.21.0371.4077.1112.5684.21,0,0,.0247.0124.0494.0371.2965.1483.4819.3707.4819.6054v.9514s-.0371.4572-.5066.9267-4.1392,3.2372-4.1392,3.2372c0,0-.2595.1483-.6054.2842" style="fill:none; stroke:#687581; stroke-miterlimit:10; stroke-width:.5px;"/><path d="m219.0216,27.4153s.0494.0247.0988.0741c.173.1606.4448.5437-.0988,1.0008-.7166.6301-3.4473,2.743-3.9168,3.089-.346.2595-1.2109.6301-2.3229.729" style="fill:none; stroke:#687581; stroke-miterlimit:10; stroke-width:.25px;"/><path d="m195.0979,32.2357l.5712-2.2219.8196-.5854s12.7234,1.8976,14.7139,2.2953,3.9419,2.0483,4.8396,4.3844c.8977,2.336,1.3428,5.516,1.3428,5.516" style="fill:none; stroke:#687581; stroke-miterlimit:10; stroke-width:.5px;"/><path d="m216.3651,41.4515c-.1853-1.0873-.5931-3.126-1.2109-4.757-.902-2.3352-2.8542-3.9909-4.8435-4.3863-1.6433-.3213-10.6136-1.6804-13.6779-2.1499-.6549-.0865-1.0379-.1483-1.0379-.1483" style="fill:none; stroke:#687581; stroke-miterlimit:10; stroke-width:.25px;"/><path d="m215.8685,32.4438c.4448,1.6538,1.1132,3.6067,4.4318,5.8372.3559.2392.5833.6359.5833,1.0647v2.1059l-.5684.5823" style="fill:none; stroke:#687581; stroke-miterlimit:10; stroke-width:.5px;"/><path d="m258.0194,34.0023c6.5202,1.0587,29.3926,5.2852,33.3559,6.0456.2004.0384.239.3111.0643.4166-18.7481,11.3257-32.3197,8.2947-34.2162,8.0227-1.7786-.2534-25.3686-4.2154-28.9552-4.818-.1781-.0299-.2294-.2556-.0878-.3676l6.9037-5.4613" style="fill:none; stroke:#687581; stroke-miterlimit:10; stroke-width:.5px;"/><path d="m236.9974,36.3318l5.3161-4.4694c.2727-.2162.6156-.307.9659-.2524.1886.0294.6694.1349.9873.181" style="fill:none; stroke:#687581; stroke-miterlimit:10; stroke-width:.5px;"/><path d="m229.1923,43.8188s5.7571-4.8415,6.3028-5.2779,1.7751-.9262,4.314-.5885,9.5319,1.7557,10.1113,1.8706,1.0981.4875,1.1207.8579l.0591.9693s-.0089.4794-.4374.9623-3.8405,3.348-3.8405,3.348c0,0-1.0224.6414-1.7846.514" style="fill:none; stroke:#687581; stroke-miterlimit:10; stroke-width:.5px;"/><path d="m250.4822,40.0263s.7303.4645.0676,1.1093c-.6626.6447-3.2008,2.8233-3.6365,3.1865s-1.8103.9741-3.503.7489-12.2182-2.0064-12.2182-2.0064c0,0-1.2289.0127-1.9998.7542" style="fill:none; stroke:#687581; stroke-miterlimit:10; stroke-width:.25px;"/><path d="m238.1062,36.4867c1.7466-1.4691,4.4708-3.7432,4.8395-4.0371.5413-.4346,1.3584-.9732,3.9034-.6409,2.5337.345,9.9391,1.8121,10.5135,1.921.2076.0362.4054.1103.5685.2101,0,0,.0249.0124.0506.0375.299.1492.494.3751.5086.6152l.0593.9731s-.0077.4679-.4372.9521-3.8428,3.3458-3.8428,3.3458c0,0-.2443.1538-.5739.2957" style="fill:none; stroke:#687581; stroke-miterlimit:10; stroke-width:.5px;"/><path d="m257.931,33.9398s.0498.0249.1012.075c.179.1628.4686.5524-.0342,1.0245-.661.6505-3.1975,2.8345-3.6347,3.1923-.3219.2683-1.1439.6547-2.2244.7651" style="fill:none; stroke:#687581; stroke-miterlimit:10; stroke-width:.25px;"/><path d="m234.8545,39.0704l.4196-2.2774.7644-.6057s12.5511,1.8345,14.5209,2.2246c1.9698.3901,3.9796,2.0622,5.0025,4.444,1.0228,2.3819,1.6562,5.6307,1.6562,5.6307" style="fill:none; stroke:#687581; stroke-miterlimit:10; stroke-width:.5px;"/><path d="m256.2106,48.3188c-.2489-1.1106-.7745-3.1925-1.4799-4.8555-1.027-2.381-3.0379-4.0582-5.0064-4.446-1.6258-.3148-10.476-1.63-13.4995-2.0846-.6453-.083-1.0234-.143-1.0234-.143" style="fill:none; stroke:#687581; stroke-miterlimit:10; stroke-width:.25px;"/><path d="m255.1636,39.1094c.5378,1.6878,1.3127,3.6798,4.6946,5.9335.3626.2417.6097.6455.6364,1.0841l.1313,2.154-.5191.6003" style="fill:none; stroke:#687581; stroke-miterlimit:10; stroke-width:.5px;"/><path d="m317.9233,41.6662c11.0324-13.5038,26.714-33.4298,37.6876-47.33,12.3265-15.9518,25.0317-31.6613,36.3477-48.3569-16.289,24.1493-36.6782,49.3349-54.5089,72.5641-6.217,7.9434-12.4417,15.8761-18.7506,23.7538l-.7759-.6309h0Z" style="fill:#687581; stroke-width:0px;"/><path d="m304.4076,38.8789c27.826-33.5398,54.1541-71.0624,81.9324-104.6786-20.3773,24.5976-41.1811,53.8155-60.9059,78.9382-6.7839,8.7603-13.6103,17.4896-20.6407,26.0585l-.3857-.3181h0Z" style="fill:#687581; stroke-width:0px;"/><path d="m290.6445,16.4529c15.1814-16.8084,29.4071-34.5012,42.7931-52.7775-13.1297,18.4897-27.0928,36.3887-42.0504,53.4471,0,0-.7427-.6696-.7427-.6696h0Z" style="fill:#687581; stroke-width:0px;"/><path d="m270.4777,117.7329c-11.3959,11.8919-28.7505,17.3822-44.972,14.8558-2.55-.2497-5.0509-1.0088-7.553-1.5444-1.6908-.5135-4.1867-1.4182-5.869-1.9621-4.1442-1.7956-5.0457-6.2973-2.531-9.8873,4.4805-6.8538,9.1694-13.4987,13.8349-20.1894l7.1219-9.9427c1.1884-1.4695,2.444-3.6573,3.955-4.8578,5.1591-4.3361,12.2555-2.7032,18.1623-1.3325,13.8974,3.0096,28.5311,1.6377,41.6963-3.6819,0,.0002,5.576-2.4769,5.576-2.4769,1.2212-.4801,3.7414-1.6656,4.1841.2676-.0865,2.6077-2.0354,4.7498-3.5639,6.6875,2.0855-2.3862,6.4481-9.9071-.4545-6.5937-10.871,5.6833-23.1673,8.879-35.4634,8.4738-4.1064-.1124-8.2045-.6008-12.2243-1.4039-3.9384-.7652-7.8481-1.9507-11.8295-1.1905-2.9329.4834-5.4446,2.0019-7.0876,4.4828,0,0-1.7888,2.4655-1.7888,2.4655l-7.0593,9.9664c-4.692,6.6489-9.4364,13.2969-13.9105,20.0584-2.1062,2.9599-1.4433,6.488,1.8894,7.9539,1.639.5379,4.0717,1.424,5.7108,1.9424,2.4496.5459,4.8833,1.348,7.3773,1.6295,15.9614,2.746,33.1272-2.4266,44.7989-13.7205h0Z" style="fill:#687581; stroke-width:0px;"/><path d="m288.3746,81.6838c2.2685,1.4409,2.5128,2.6624.5583,5.0241-1.9545,2.3617-24.594,29.5617-28.8287,33.8778s-7.6551,8.5509-14.903,9.7725c-7.2479,1.2216-18.4048,2.1174-31.0275-2.606-3.0946-1.5473-4.6419-3.6647-2.2802-7.5737,2.3617-3.909,20.9293-30.2946,22.721-32.4934,1.7916-2.1988,3.8275-5.212,11.5641-5.4563" style="fill:none; stroke:#687581; stroke-miterlimit:10; stroke-width:1.5px;"/></g></svg>