<svg xmlns="http://www.w3.org/2000/svg" xmlns:xlink="http://www.w3.org/1999/xlink" width="436" height="161.749" viewBox="0 0 436 161.749"><defs><clipPath id="a2a45a75-8d70-4fc8-8e85-33630d40a2a6"><path d="M-5.173,88.438C22.76,94.3,38.492,84.962,47.949,84.115h.012a25.633,25.633,0,0,1,2.863-.121,43.983,43.983,0,0,1,6.534.66C63.712,85.7,70.391,87.7,76.6,88.5a38.94,38.94,0,0,0,4.844.363H81.7a24.533,24.533,0,0,0,3.322-.22c7.621-.968,12.622-4.862,20.75-4.96a34.053,34.053,0,0,1,7.139.747c5.193,1.023,16.323,4.521,24.313,3.535,8.208-1.087,14.437-5.184,23.662-4.1a39.18,39.18,0,0,1,6.328,1.356c8.858,2.6,17.828,7.614,26.8,8.108a26.868,26.868,0,0,0,10.736-1.667c5.17-1.822,9.832-4.52,16.923-5.029.466-.028.932-.056,1.4-.07,11.2-.452,25.145,3.108,36.644,2.189,5.227-1.017,4.082-4.223,1.723-5.071,8.928-3.517,12.968,1.568,27.518.848,5.693-.113,10.03-2.176,12.233-4.224,2.02-1.879,2.232-3.758-.014-4.069a3.759,3.759,0,0,0-.72-.056,9.594,9.594,0,0,1,.706-.791c5.2-5.467,12.784-3.631,21.02-3.306,28.611,3.306,23.056-4.139,18.731-4.266,5.029-5.443,13.618,1.695,21.345,1.936a44.93,44.93,0,0,0,5.975-.241,38.7,38.7,0,0,0,7.629-1.568,18.964,18.964,0,0,0,4.026-1.737,6.307,6.307,0,0,0,3.15-3.32c.508-1.624-.255-3.5-2.825-5.551,15.538-4.789,33.535,20.355,55.7,22.828v96.136H-5.173Z" style="fill:none"/></clipPath><clipPath id="a0d403f9-d121-4d94-9819-e0e9853ec15a"><path d="M-5.173,88.438C22.76,94.3,38.492,84.962,47.949,84.115h.012a25.633,25.633,0,0,1,2.863-.121,43.983,43.983,0,0,1,6.534.66C63.712,85.7,70.391,87.7,76.6,88.5a38.94,38.94,0,0,0,4.844.363H81.7a24.533,24.533,0,0,0,3.322-.22c7.621-.968,12.622-4.862,20.75-4.96a34.053,34.053,0,0,1,7.139.747c5.193,1.023,16.323,4.521,24.313,3.535,8.208-1.087,14.437-5.184,23.662-4.1a39.18,39.18,0,0,1,6.328,1.356c8.858,2.6,17.828,7.614,26.8,8.108a26.868,26.868,0,0,0,10.736-1.667c5.17-1.822,9.832-4.52,16.923-5.029.466-.028.932-.056,1.4-.07,11.2-.452,25.145,3.108,36.644,2.189,5.227-1.017,4.082-4.223,1.723-5.071,8.928-3.517,12.968,1.568,27.518.848,5.693-.113,10.03-2.176,12.233-4.224,2.02-1.879,2.232-3.758-.014-4.069a3.759,3.759,0,0,0-.72-.056,9.594,9.594,0,0,1,.706-.791c5.2-5.467,12.784-3.631,21.02-3.306,28.611,3.306,23.056-4.139,18.731-4.266,5.029-5.443,13.618,1.695,21.345,1.936a44.93,44.93,0,0,0,5.975-.241,38.7,38.7,0,0,0,7.629-1.568,18.964,18.964,0,0,0,4.026-1.737,6.307,6.307,0,0,0,3.15-3.32c.508-1.624-.255-3.5-2.825-5.551,15.538-4.789,33.535,20.355,55.7,22.828V-6.152H-3.7Z" style="fill:none"/></clipPath></defs><g id="b6408b92-7b97-40e2-b31b-c5a32aa55877" data-name="wave"><g style="clip-path:url(#a2a45a75-8d70-4fc8-8e85-33630d40a2a6)"><line x1="452.403" y1="153.531" x2="-11.159" y2="153.531" style="fill:none;stroke:#687581;stroke-miterlimit:10"/><line x1="196.421" y1="54.733" x2="194.843" y2="22.112" style="fill:none;stroke:#687581;stroke-miterlimit:10;stroke-width:0.5000000000025px"/><line x1="212.606" y1="55.016" x2="206.914" y2="22.259" style="fill:none;stroke:#687581;stroke-miterlimit:10;stroke-width:0.5000000000025px"/><path d="M201.177,22.187l3.536,32.784.667,3.537a217.709,217.709,0,0,1,2,26.856c0,10.109-.315,11.232-1.07,24l-.73,14.054" style="fill:none;stroke:#687581;stroke-miterlimit:10;stroke-width:0.5000000000025px"/><line x1="153.405" y1="54.02" x2="152.676" y2="22.033" style="fill:none;stroke:#687581;stroke-miterlimit:10;stroke-width:0.5000000000025px"/><path d="M284.171,124.89l-.095-.15a24.15,24.15,0,0,0-2.1-2.744,7.2,7.2,0,0,0-5.69-2.54c-5.533-.236-94.478-1.68-98.407-1.735-4.81-.068-7.046,0-8.875,1.694a27.223,27.223,0,0,0-2.928,3.268" style="fill:none;stroke:#687581;stroke-miterlimit:10;stroke-width:0.5000000000025px"/><line x1="62.614" y1="25.98" x2="62.785" y2="19.064" style="fill:none;stroke:#687581;stroke-miterlimit:10;stroke-width:0.5000000000025px"/><path d="M300.121,97.57c-67.7-1.439-137.014-2.963-138.976-3.119-6.4-.508-8.944.129-10.771-2.236-1.728-2.235-3.354-4.877-5.793-8.536-6.274-9.41-14.121-10-31.6-10.263-20.629-.3-25.208.154-31.3,6.2-2.084,2.067-3.1,3.61-5.843,7.215q-.529.695-1.062,1.387a3.755,3.755,0,0,1-3.561,1.413l-8.582-1.363a12.654,12.654,0,0,1-5.491-2.619l-6.359-5.724a6.185,6.185,0,0,1-2.046-4.472h0c-.116-5.9.087-8.81.087-8.81" style="fill:none;stroke:#687581;stroke-miterlimit:10;stroke-width:0.5000000000025px"/><path d="M36.087,94.313,49.136,102.2a22.839,22.839,0,0,0,6.811,2.5L72.4,107.355" style="fill:none;stroke:#687581;stroke-miterlimit:10;stroke-width:0.5000000000025px"/><rect x="121.693" y="42.606" width="5.162" height="5.162" rx="0.665" transform="translate(4.447 101.109) rotate(-45)" style="fill:none;stroke:#687581;stroke-miterlimit:10;stroke-width:0.5000000000025px"/><path d="M380.088,76.267l.907.886a1.228,1.228,0,0,1,.367.8c.106,1.7.253,8.326.275,10.146.045,3.669-.3,5.161-3.088,5.182-3.11.024-4.194,0-4.973,0a3.339,3.339,0,0,1-3.269-1.778c-.863-1.456-4.058-6.947-5.792-9.146-2.178-2.76-5.985-6.842-30.554-6.842s-27.793,2.993-33.075,12.736l-4.81,9.349" style="fill:none;stroke:#687581;stroke-miterlimit:10;stroke-width:0.5000000000025px"/><path d="M380.837,69.218l-.214-1.334a1.156,1.156,0,0,0-.661-.867c-3.128-1.424-15.85-3.725-17.823-3.944-17.048-1.884-72.193-2.036-72.193-2.036h-.076l-84-2.74S101.949,56.311,71.308,56.311H54.952c-2.655,0-5.217.2-5.518,2.472" style="fill:none;stroke:#687581;stroke-miterlimit:10;stroke-width:0.5000000000025px"/><path d="M376,124.441c-2.988-15.34-5.091-22.252-7.182-27.837" style="fill:none;stroke:#687581;stroke-miterlimit:10;stroke-width:0.5000000000025px"/><path d="M75.6,97.985c-3.67,8.468-5.669,20.088-6.033,22.009" style="fill:none;stroke:#687581;stroke-miterlimit:10;stroke-width:0.5000000000025px"/><path d="M153.687,122.452A178.284,178.284,0,0,0,147.5,98.38" style="fill:none;stroke:#687581;stroke-miterlimit:10;stroke-width:0.5000000000025px"/><path d="M263.858,37.9c.154.892.547,2.871,1.016,6.249" style="fill:none;stroke:#687581;stroke-miterlimit:10;stroke-width:0.5000000000025px"/><path d="M390.506,69.565c-11.149-.406-11.149-.406-18.842-.61-3.945-.2-5.295.514-3.912,2.252,1.54,1.937,3.039,4.507,6.835,4.741,3,.186,7.942.477,15.844.83" style="fill:none;stroke:#687581;stroke-miterlimit:10;stroke-width:0.5000000000025px"/><path d="M118.32,22.647s-2.426,14.676-3.342,19.753-1.748,9.655-11.653,9.655-49.711-.144-49.711-.144" style="fill:none;stroke:#687581;stroke-miterlimit:10;stroke-width:0.5000000000025px"/><path d="M262.311,56.27l-1.356-.045s-71.477-1.62-84.511-1.878c-12.691-.252-28.172-.335-32.667-.5s-6.159-1.915-6.159-6.326.027-25.27.027-25.27" style="fill:none;stroke:#687581;stroke-miterlimit:10;stroke-width:0.5000000000025px"/><line x1="294.289" y1="57.101" x2="281.942" y2="56.778" style="fill:none;stroke:#687581;stroke-miterlimit:10;stroke-width:0.5000000000025px"/><path d="M246.784,22.823s-62.715-.922-72.167-.922c-48.451,0-103.585,2.193-103.585,2.193-5.423.348-8.9.012-11.528,6.515-2.72,6.733-5.89,21.3-5.89,21.3H40.958" style="fill:none;stroke:#687581;stroke-miterlimit:10;stroke-width:0.5000000000025px"/><g id="a78cc5eb-439a-4ebb-ad95-d8a5fe256de3" data-name="Offset Group"><path d="M74.738,121.221S76.963,109.1,80.5,100.558c2.559-6.175,5.169-11.555,8.48-14.583a9.707,9.707,0,0,1,3.631-2.188c5.41-1.7,19.117-1.282,19.134-1.282,0,0,14.734.22,19.516,2.158a12.378,12.378,0,0,1,4.479,3.158c2.744,2.947,5.321,7.923,8.061,16.371a155.832,155.832,0,0,1,5.033,21.61" style="fill:none;stroke:#687581;stroke-miterlimit:3;stroke-width:0.5000000000025px"/><path d="M74.492,121.176s2.229-12.14,5.781-20.714c2.557-6.168,5.184-11.6,8.543-14.671a9.943,9.943,0,0,1,3.725-2.243c5.46-1.71,19.2-1.293,19.212-1.293s14.768.215,19.605,2.176a12.623,12.623,0,0,1,4.569,3.22c2.782,2.988,5.373,8.008,8.116,16.464a156.023,156.023,0,0,1,5.042,21.65" style="fill:none;stroke:#687581;stroke-miterlimit:3;stroke-width:0.5000000000025px"/><path d="M74.246,121.131s2.232-12.163,5.8-20.764c2.554-6.162,5.2-11.647,8.605-14.761a10.2,10.2,0,0,1,3.819-2.3c5.511-1.726,19.282-1.305,19.29-1.305s14.8.211,19.7,2.2a12.854,12.854,0,0,1,4.658,3.281c2.82,3.029,5.425,8.092,8.171,16.557a156.465,156.465,0,0,1,5.052,21.69" style="fill:none;stroke:#687581;stroke-miterlimit:3;stroke-width:0.5000000000025px"/><path d="M74,121.086s2.236-12.186,5.811-20.815c2.551-6.155,5.215-11.692,8.667-14.849a10.456,10.456,0,0,1,3.913-2.351c5.561-1.742,19.364-1.316,19.369-1.316s14.839.207,19.786,2.213a13.113,13.113,0,0,1,4.747,3.342c2.859,3.071,5.477,8.177,8.226,16.651a156.622,156.622,0,0,1,5.061,21.73" style="fill:none;stroke:#687581;stroke-miterlimit:3;stroke-width:0.5000000000025px"/></g><path d="M73.754,121.041s2.239-12.209,5.827-20.866c3.44-8.3,7.124-15.584,12.735-17.342s19.447-1.328,19.447-1.328,14.874.2,19.877,2.231,8.921,7.213,13.116,20.148a156.731,156.731,0,0,1,5.071,21.77" style="fill:none;stroke:#687581;stroke-miterlimit:3;stroke-width:0.5000000000025px"/><line x1="143.546" y1="125.558" x2="302.088" y2="128.089" style="fill:none;stroke:#687581;stroke-miterlimit:10;stroke-width:0.5000000000025px"/><g id="f7d3dd19-0265-4a1f-958b-24a9d02455e1" data-name="Offset Group"><path d="M111.548,153.253a33.557,33.557,0,1,0-23.692-9.828A33.419,33.419,0,0,0,111.548,153.253Z" style="fill:none;stroke:#687581;stroke-miterlimit:3;stroke-width:0.5000000000025px"/><path d="M111.548,153a33.307,33.307,0,1,0-23.515-9.755A33.168,33.168,0,0,0,111.548,153Z" style="fill:none;stroke:#687581;stroke-miterlimit:3;stroke-width:0.5000000000025px"/><path d="M111.548,152.753a33.058,33.058,0,1,0-23.338-9.682A32.922,32.922,0,0,0,111.548,152.753Z" style="fill:none;stroke:#687581;stroke-miterlimit:3;stroke-width:0.5000000000025px"/><path d="M111.548,152.5a32.807,32.807,0,1,0-23.162-9.609A32.669,32.669,0,0,0,111.548,152.5Z" style="fill:none;stroke:#687581;stroke-miterlimit:3;stroke-width:0.5000000000025px"/></g><path d="M111.548,152.253a32.521,32.521,0,1,0-32.521-32.52A32.557,32.557,0,0,0,111.548,152.253Z" style="fill:none;stroke:#687581;stroke-miterlimit:3;stroke-width:0.5000000000025px"/><path d="M111.55,142.168a22.436,22.436,0,1,1,22.436-22.435A22.462,22.462,0,0,1,111.55,142.168Z" style="fill:none;stroke:#687581;stroke-miterlimit:10;stroke-width:0.5px"/><path d="M105.476,135.06a17.019,17.019,0,0,1-6.677-4.945l2.3-4.149a1.768,1.768,0,0,1,.819-.774l5.49-2.535a.835.835,0,0,0,.442-.99l-.237-.72-.221-.7a.843.843,0,0,0-.8-.568h-.043l-.1.011-5.948,1.176a1.739,1.739,0,0,1-1.1-.135l-4.356-2.08a16.806,16.806,0,0,1,2.631-7.885l4.662.907a1.767,1.767,0,0,1,.969.531l4.127,4.449a.81.81,0,0,0,.6.261.824.824,0,0,0,.487-.159l1.2-.859a.835.835,0,0,0,.232-1.074L107,109.536a1.751,1.751,0,0,1-.21-1.1l.63-4.765a16.813,16.813,0,0,1,8.3.059l.587,4.705a1.79,1.79,0,0,1-.21,1.1l-2.95,5.289a.828.828,0,0,0,.229,1.068l1.194.863a.822.822,0,0,0,.489.159.83.83,0,0,0,.593-.249l4.127-4.457a1.779,1.779,0,0,1,.982-.535l4.724-.877a16.837,16.837,0,0,1,2.519,7.93l-4.3,2a1.76,1.76,0,0,1-.76.175,1.693,1.693,0,0,1-.346-.035l-5.994-1.183-.1,0a.823.823,0,0,0-.791.581l-.227.686-.224.7a.818.818,0,0,0,.434,1l5.5,2.539a1.837,1.837,0,0,1,.816.773l2.29,4.216a17.089,17.089,0,0,1-6.71,4.843l-3.285-3.47a1.766,1.766,0,0,1-.479-1.005l-.719-6.016a.824.824,0,0,0-.822-.728h-1.471a.824.824,0,0,0-.82.73l-.719,6.013a1.733,1.733,0,0,1-.474,1Z" style="fill:none;stroke:#687581;stroke-linecap:round;stroke-linejoin:round;stroke-width:0.5px"/><path d="M114.862,135.957a16.78,16.78,0,0,1-6.623,0l3.309-3.314Z" style="fill:none;stroke:#687581;stroke-linecap:round;stroke-linejoin:round;stroke-width:0.5px"/><path d="M128,121.6a16.766,16.766,0,0,1-2.046,6.3l-2.13-4.17Z" style="fill:none;stroke:#687581;stroke-linecap:round;stroke-linejoin:round;stroke-width:0.5px"/><path d="M118.408,104.66a16.78,16.78,0,0,1,5.358,3.893l-4.625.736Z" style="fill:none;stroke:#687581;stroke-linecap:round;stroke-linejoin:round;stroke-width:0.5px"/><path d="M99.334,108.553a16.806,16.806,0,0,1,5.358-3.893l-.728,4.626Z" style="fill:none;stroke:#687581;stroke-linecap:round;stroke-linejoin:round;stroke-width:0.5px"/><path d="M97.143,127.9a16.8,16.8,0,0,1-2.047-6.3l4.175,2.122Z" style="fill:none;stroke:#687581;stroke-linecap:round;stroke-linejoin:round;stroke-width:0.5px"/><path d="M101.471,120.677a10.094,10.094,0,0,1,2.55-7.7" style="fill:none;stroke:#687581;stroke-linecap:round;stroke-linejoin:round;stroke-width:0.5px"/><path d="M109.384,129.622a10.162,10.162,0,0,1-6.6-4.83" style="fill:none;stroke:#687581;stroke-linecap:round;stroke-linejoin:round;stroke-width:0.5px"/><path d="M120.327,124.8a10.28,10.28,0,0,1-6.614,4.828" style="fill:none;stroke:#687581;stroke-linecap:round;stroke-linejoin:round;stroke-width:0.5px"/><path d="M119.079,112.972a10.09,10.09,0,0,1,2.551,7.7" style="fill:none;stroke:#687581;stroke-linecap:round;stroke-linejoin:round;stroke-width:0.5px"/><path d="M107.512,110.45a10.142,10.142,0,0,1,8.081,0" style="fill:none;stroke:#687581;stroke-linecap:round;stroke-linejoin:round;stroke-width:0.5px"/><path d="M289.315,57.128a422.338,422.338,0,0,0-48.782-34.4" style="fill:none;stroke:#687581;stroke-miterlimit:10;stroke-width:0.5000000000025px"/><path d="M39.223,58.765l19.526.357a1.187,1.187,0,0,1,1.338,1.287l.048,2.266c0,2.224-2.1,4.118-6.713,4.118H38.966" style="fill:none;stroke:#687581;stroke-miterlimit:10;stroke-width:0.5000000000025px"/><path d="M365.371,126.32c.052,0,2.476-.182,3.636-.271.4-.031,1.233-.9,1.632-.928l1.4-.112a17.422,17.422,0,0,0,8.647-2.572c5.214-3.134,9.537-6.184,12.211-9.02a2.412,2.412,0,0,0,.643-1.622l.156-10.086a1.234,1.234,0,0,0-.7-1.13L388.013,98.7V94.958a1.856,1.856,0,0,0,1.339-.913c.319-.525.891-1.407,1.284-2.008a2.456,2.456,0,0,0,.4-1.41L390.5,69.362a4.916,4.916,0,0,0-3.039-4.424c-4.863-2-15.718-5.664-32.572-6.986-23.694-1.858-43.141-1.78-45.6-1.979s-5.044,1-7.566,1-7.433.133-7.433.133a424.293,424.293,0,0,0-47.455-34.247c-3.424-2.165-4.368-3.917-19.759-4.936-24.745-1.639-97.618-1.05-147.59.245l-9.081.311c-13.4,0-21.727,5.351-21.727,5.351s-1.354,4.32-2.321,7.866c-.9,3.281-6.316,23.666-7.121,26.7l-.269,8.408h-.011s-.049.841-.124,9.011a79.147,79.147,0,0,0,1.746,16.524l-4.49,1.247v3.117c0,4.655,3.624,11.929,8.775,14.435,3.806,1.852,10.095,5.4,28.892,9.914q2.686.644,5.371,1.225" style="fill:none;stroke:#687581;stroke-miterlimit:10;stroke-width:0.5000000000025px"/><g id="b96d21d4-460c-4546-bac7-4b4be2a97ef8" data-name="Offset Group"><path d="M295.065,128.184l.237-1.034c.858-3.758,3.869-16.366,7.172-23.649l.509-1.124c3.451-7.629,5.721-12.567,10.313-15.5,3.559-2.271,8.645-3.406,17.088-3.322,14.957.149,22.351.921,26.825,3.91,2.432,1.624,4.068,3.959,5.565,7.469,3.942,9.247,6.133,19.354,8.286,30.266" style="fill:none;stroke:#687581;stroke-miterlimit:3;stroke-width:0.5000000000025px"/><path d="M294.821,128.129l.237-1.035c.857-3.753,3.873-16.386,7.188-23.7q.26-.57.509-1.124c3.442-7.609,5.739-12.627,10.407-15.606,3.619-2.31,8.765-3.445,17.225-3.361,14.933.149,22.413.914,26.961,3.952C359.835,88.92,361.5,91.3,363,94.838c3.953,9.274,6.149,19.405,8.3,30.316" style="fill:none;stroke:#687581;stroke-miterlimit:3;stroke-width:0.5000000000025px"/><path d="M294.578,128.073l.236-1.035c.856-3.748,3.878-16.407,7.2-23.743q.26-.57.509-1.124c3.433-7.588,5.758-12.687,10.5-15.713,3.681-2.35,8.886-3.485,17.362-3.4,14.91.149,22.475.906,27.1,3.994,2.543,1.7,4.23,4.131,5.747,7.689,3.965,9.3,6.164,19.455,8.317,30.365" style="fill:none;stroke:#687581;stroke-miterlimit:3;stroke-width:0.5000000000025px"/><path d="M294.334,128.017l.236-1.034c.855-3.744,3.882-16.428,7.221-23.791q.258-.571.509-1.124c3.423-7.568,5.775-12.747,10.593-15.821,3.742-2.388,9.006-3.524,17.5-3.44,14.886.149,22.536.9,27.233,4.036,2.6,1.736,4.312,4.217,5.839,7.8,3.976,9.327,6.18,19.506,8.332,30.415" style="fill:none;stroke:#687581;stroke-miterlimit:3;stroke-width:0.5000000000025px"/></g><path d="M294.09,127.962l.237-1.035c.854-3.739,3.885-16.448,7.236-23.839C308,88.9,310.4,82.358,330.394,82.557c23.133.231,29,1.9,33.3,11.987,3.988,9.354,6.195,19.556,8.348,30.465" style="fill:none;stroke:#687581;stroke-miterlimit:3;stroke-width:0.5000000000025px"/><path d="M40.577,92.328a112.894,112.894,0,0,0,10.348,6.053c5.76,2.912,11.8,3.462,16.224,4s6.191.851,7.377-2.208c1.769-3.381,4.246-9.712,8.984-16.083,5.013-6.741,11.759-6.738,28.351-6.707,7.117.014,16.323.557,20.628,1.931,10.177,3.248,14.591,18.512,17.084,24.321,2.012,4.69,5.307,4.351,9.177,4.433,4.029.086,130.236,3.1,130.236,3.1,4.558,0,5.494.562,6.3-1.5a145.06,145.06,0,0,1,7.521-17.55c4.855-9.007,7.777-13,30.7-13s26.725,3.623,28.757,6.163c1.725,2.156,4.289,6.806,6.767,11.679a2.026,2.026,0,0,0,1.729,1.106l17.255.645" style="fill:none;stroke:#687581;stroke-miterlimit:10;stroke-width:0.5000000000025px"/><g id="ade4d116-acef-405c-972d-16ca6c587a87" data-name="Offset Group"><path d="M333.521,153.253a33.558,33.558,0,1,0-23.692-9.829A33.419,33.419,0,0,0,333.521,153.253Z" style="fill:none;stroke:#687581;stroke-miterlimit:3;stroke-width:0.5000000000025px"/><path d="M333.521,153a33.307,33.307,0,1,0-23.515-9.755A33.168,33.168,0,0,0,333.521,153Z" style="fill:none;stroke:#687581;stroke-miterlimit:3;stroke-width:0.5000000000025px"/><path d="M333.521,152.753a33.056,33.056,0,1,0-23.339-9.682A32.92,32.92,0,0,0,333.521,152.753Z" style="fill:none;stroke:#687581;stroke-miterlimit:3;stroke-width:0.5000000000025px"/><path d="M333.521,152.5a32.807,32.807,0,1,0-23.162-9.609A32.669,32.669,0,0,0,333.521,152.5Z" style="fill:none;stroke:#687581;stroke-miterlimit:3;stroke-width:0.5000000000025px"/></g><path d="M333.521,152.253A32.521,32.521,0,1,0,301,119.733,32.557,32.557,0,0,0,333.521,152.253Z" style="fill:none;stroke:#687581;stroke-miterlimit:3;stroke-width:0.5000000000025px"/><path d="M333.523,142.168a22.436,22.436,0,1,1,22.436-22.435A22.462,22.462,0,0,1,333.523,142.168Z" style="fill:none;stroke:#687581;stroke-miterlimit:10;stroke-width:0.5px"/><path d="M327.449,135.06a17.019,17.019,0,0,1-6.677-4.945l2.3-4.149a1.763,1.763,0,0,1,.819-.774l5.49-2.535a.835.835,0,0,0,.442-.99l-.237-.72-.221-.7a.843.843,0,0,0-.8-.568h-.043l-.1.011-5.948,1.176a1.739,1.739,0,0,1-1.1-.135l-4.356-2.08a16.806,16.806,0,0,1,2.631-7.885l4.662.907a1.767,1.767,0,0,1,.969.531l4.127,4.449a.81.81,0,0,0,.6.261.824.824,0,0,0,.487-.159l1.2-.859a.835.835,0,0,0,.232-1.074l-2.948-5.287a1.751,1.751,0,0,1-.21-1.1l.63-4.765a16.813,16.813,0,0,1,8.3.059l.587,4.705a1.79,1.79,0,0,1-.21,1.1l-2.95,5.289a.828.828,0,0,0,.229,1.068l1.194.863a.821.821,0,0,0,.488.159.831.831,0,0,0,.594-.249l4.127-4.457a1.779,1.779,0,0,1,.982-.535l4.724-.877a16.837,16.837,0,0,1,2.519,7.93l-4.3,2a1.76,1.76,0,0,1-.76.175,1.693,1.693,0,0,1-.346-.035l-5.994-1.183-.1,0a.823.823,0,0,0-.791.581l-.227.686-.224.7a.818.818,0,0,0,.434,1l5.5,2.539a1.837,1.837,0,0,1,.816.773l2.29,4.216a17.089,17.089,0,0,1-6.71,4.843l-3.285-3.47a1.766,1.766,0,0,1-.479-1.005l-.719-6.016a.824.824,0,0,0-.822-.728h-1.471a.824.824,0,0,0-.82.73l-.719,6.013a1.733,1.733,0,0,1-.474,1Z" style="fill:none;stroke:#687581;stroke-linecap:round;stroke-linejoin:round;stroke-width:0.5px"/><path d="M336.835,135.957a16.78,16.78,0,0,1-6.623,0l3.309-3.314Z" style="fill:none;stroke:#687581;stroke-linecap:round;stroke-linejoin:round;stroke-width:0.5px"/><path d="M349.977,121.6a16.766,16.766,0,0,1-2.046,6.3l-2.13-4.17Z" style="fill:none;stroke:#687581;stroke-linecap:round;stroke-linejoin:round;stroke-width:0.5px"/><path d="M340.381,104.66a16.78,16.78,0,0,1,5.358,3.893l-4.625.736Z" style="fill:none;stroke:#687581;stroke-linecap:round;stroke-linejoin:round;stroke-width:0.5px"/><path d="M321.307,108.553a16.806,16.806,0,0,1,5.358-3.893l-.728,4.626Z" style="fill:none;stroke:#687581;stroke-linecap:round;stroke-linejoin:round;stroke-width:0.5px"/><path d="M319.116,127.9a16.8,16.8,0,0,1-2.047-6.3l4.175,2.122Z" style="fill:none;stroke:#687581;stroke-linecap:round;stroke-linejoin:round;stroke-width:0.5px"/><path d="M323.444,120.677a10.094,10.094,0,0,1,2.55-7.7" style="fill:none;stroke:#687581;stroke-linecap:round;stroke-linejoin:round;stroke-width:0.5px"/><path d="M331.357,129.622a10.159,10.159,0,0,1-6.6-4.83" style="fill:none;stroke:#687581;stroke-linecap:round;stroke-linejoin:round;stroke-width:0.5px"/><path d="M342.3,124.8a10.28,10.28,0,0,1-6.614,4.828" style="fill:none;stroke:#687581;stroke-linecap:round;stroke-linejoin:round;stroke-width:0.5px"/><path d="M341.052,112.972a10.094,10.094,0,0,1,2.551,7.7" style="fill:none;stroke:#687581;stroke-linecap:round;stroke-linejoin:round;stroke-width:0.5px"/><path d="M329.485,110.45a10.139,10.139,0,0,1,8.08,0" style="fill:none;stroke:#687581;stroke-linecap:round;stroke-linejoin:round;stroke-width:0.5px"/><path d="M388.013,94.958h-3.82A2.837,2.837,0,0,0,382,96.009l-1.039,1.224a1.922,1.922,0,0,0-.392,1.151l.354,7.547a3.5,3.5,0,0,0,2.359,3.147l2.682.924a43.835,43.835,0,0,0,7.58,1.793" style="fill:none;stroke:#687581;stroke-miterlimit:10;stroke-width:0.5000000000025px"/><path d="M267.036,57.362h3.94a2.751,2.751,0,0,0,1.869-.884l3.182-3.875a3.785,3.785,0,0,0,.658-1.178l.046-.135" style="fill:none;stroke:#aebbc7;stroke-miterlimit:10"/><path d="M273.164,58.574a2.091,2.091,0,0,1-.724-.155,14.667,14.667,0,0,0-5.4-1.057c-1.243,0-3.4,0-4.582-.959-2.064-1.769-1.658-7.656-.823-10.007.973-2.737,2.925-2.482,7.051-1.8a14.124,14.124,0,0,1,7.656,5.264c1.366,1.532-1,2.484.737,3.263,2.918,1.308,2.768,1.3,4.882,3.67a.618.618,0,0,1-.213.977l-1.729.756a3.236,3.236,0,0,1-1.183.228Z" style="fill:none;stroke:#aebbc7;stroke-miterlimit:10"/><path d="M267.036,57.362h3.94a2.751,2.751,0,0,0,1.869-.884l3.182-3.875a3.785,3.785,0,0,0,.658-1.178l.046-.135" style="fill:none;stroke:#687581;stroke-miterlimit:10;stroke-width:0.5000000000025px"/><path d="M273.164,58.574a2.091,2.091,0,0,1-.724-.155,14.667,14.667,0,0,0-5.4-1.057c-1.243,0-3.4,0-4.582-.959-2.064-1.769-1.658-7.656-.823-10.007.973-2.737,2.925-2.482,7.051-1.8a14.124,14.124,0,0,1,7.656,5.264c1.366,1.532-1,2.484.737,3.263,2.918,1.308,2.768,1.3,4.882,3.67a.618.618,0,0,1-.213.977l-1.729.756a3.236,3.236,0,0,1-1.183.228Z" style="fill:none;stroke:#687581;stroke-miterlimit:10;stroke-width:0.5000000000025px"/><line x1="261.009" y1="52.522" x2="267.785" y2="52.522" style="fill:none;stroke:#687581;stroke-miterlimit:10;stroke-width:0.5000000000025px"/><rect x="142.992" y="63.735" width="16.325" height="3.24" rx="1.312" transform="translate(301.427 132.714) rotate(-179.238)" style="fill:none;stroke:#687581;stroke-miterlimit:10;stroke-width:0.5000000000025px"/><rect x="213.853" y="65.262" width="16.325" height="3.24" rx="1.312" transform="translate(442.812 137.684) rotate(-178.986)" style="fill:none;stroke:#687581;stroke-miterlimit:10;stroke-width:0.5000000000025px"/><path d="M288.065,124.9l2.379-13.746s1.54-8.9,1.992-13.706a196.613,196.613,0,0,0,.328-24.388c-.534-6.446-1.437-12.03-1.437-12.03l-2.012-3.9" style="fill:none;stroke:#687581;stroke-miterlimit:10;stroke-width:0.5000000000025px"/><path d="M134.481,22.354c-1.154,16.541-1.292,22.5-1.467,27.1a29.182,29.182,0,0,1-1.126,7.551,143.54,143.54,0,0,0-1.61,17.441V83.2" style="fill:none;stroke:#687581;stroke-miterlimit:10;stroke-width:0.5000000000025px"/><line x1="149.27" y1="122.369" x2="295.113" y2="125.094" style="fill:none;stroke:#687581;stroke-miterlimit:10;stroke-width:0.5000000000025px"/><path d="M75.8,18.29l-.2-.422s-2.323-4.845-5.508-4.845H66.9l-.556,5.617" style="fill:none;stroke:#687581;stroke-miterlimit:10;stroke-width:0.5000000000025px"/><g id="f356f2a0-8740-47a7-91a0-455623b1ce7f" data-name="Offset Group"><path d="M394.7,101.717l-.152,10.091a3.4,3.4,0,0,1-.92,2.3c-2.768,2.933-7.19,6.044-12.422,9.185A18.344,18.344,0,0,1,372.117,126l-.638.051-.656.053c-.075.042-.2.13-.42.288a2.975,2.975,0,0,1-1.319.647l-.779.059-2.114.159a33.534,33.534,0,0,1-64.866,1.819l-156.967-2.509a33.523,33.523,0,0,1-66.164-3.486q-2.336-.516-4.672-1.077c-17.347-4.16-24.13-7.518-28.124-9.5-.349-.173-.672-.333-.979-.482a16.22,16.22,0,0,1-6.3-6.073,18.745,18.745,0,0,1-3.034-9.259V92.814l4.317-1.2a81.145,81.145,0,0,1-1.568-15.824l.134-10H38l.237-7.553.95-3.573c1.814-6.817,5.478-20.59,6.2-23.236.973-3.569,2.446-8.247,2.446-8.247l.3-.2s6.558-4.2,17.289-5.266l.568-5.7h4.094a4.8,4.8,0,0,1,2.56.8,12.268,12.268,0,0,1,3.764,4.448l3.048-.105c49.961-1.295,122.883-1.888,147.679-.246,7.991.531,12.2,1.262,14.9,2.184a16.562,16.562,0,0,1,4.315,2.24c.333.223.661.443,1,.661a426.523,426.523,0,0,1,47.285,34.093c1.2-.032,4.962-.126,7.077-.126a15.922,15.922,0,0,0,3.323-.492,14.9,14.9,0,0,1,4.326-.5c.568.046,2.172.078,4.7.127,7.6.149,23.041.451,40.889,1.854,16.967,1.328,27.929,5.023,32.876,7.057a5.924,5.924,0,0,1,3.664,5.327s.536,21.265.535,21.258a3.44,3.44,0,0,1-.561,1.986c-.393.6-.961,1.477-1.266,1.972a2.953,2.953,0,0,1-.981,1c-.071.044-.142.083-.212.118v2.331s4.34,1.634,4.422,1.669a2.227,2.227,0,0,1,1.261,2.043Z" style="fill:none;stroke:#687581;stroke-miterlimit:3;stroke-width:0.5000000000025px"/><path d="M394.445,101.713l-.152,10.092a3.152,3.152,0,0,1-.851,2.127c-2.744,2.908-7.141,6-12.37,9.142a18.092,18.092,0,0,1-8.975,2.679l-.639.051c-.216.018-.422.034-.684.047a3.292,3.292,0,0,0-.517.34,2.77,2.77,0,0,1-1.191.6l-.78.059c-.754.057-1.693.128-2.3.172a33.283,33.283,0,0,1-64.473,1.808l-157.36-2.515a33.273,33.273,0,0,1-65.73-3.438q-2.422-.534-4.845-1.115c-17.327-4.155-24.092-7.507-28.071-9.482-.349-.173-.673-.334-.98-.483a15.974,15.974,0,0,1-6.2-5.98,18.51,18.51,0,0,1-3-9.127V93l4.359-1.21a80.72,80.72,0,0,1-1.61-16l.131-9.758h.028l.243-7.767.944-3.545c1.814-6.818,5.478-20.589,6.2-23.234.971-3.564,2.416-8.151,2.416-8.151l.228-.146s6.583-4.224,17.382-5.248l.565-5.676h3.868a4.55,4.55,0,0,1,2.427.758A12.251,12.251,0,0,1,76.26,17.52l3.2-.111c49.964-1.295,122.874-1.888,147.657-.247,7.986.531,12.165,1.261,14.836,2.171a16.375,16.375,0,0,1,4.257,2.212c.332.222.663.444,1.013.666a425.549,425.549,0,0,1,47.327,34.133c1.087-.029,5-.129,7.166-.129a16.187,16.187,0,0,0,3.376-.5,14.638,14.638,0,0,1,4.253-.5c.577.047,2.193.079,4.714.128,7.595.149,23.035.451,40.875,1.853,16.938,1.326,27.875,5.014,32.8,7.039a5.674,5.674,0,0,1,3.509,5.1s.536,21.266.536,21.26a3.194,3.194,0,0,1-.522,1.841c-.392.6-.962,1.48-1.271,1.981a2.693,2.693,0,0,1-.9.92,2.367,2.367,0,0,1-.33.171v2.664s4.5,1.7,4.562,1.721a1.977,1.977,0,0,1,1.12,1.814Z" style="fill:none;stroke:#687581;stroke-miterlimit:3;stroke-width:0.5000000000025px"/><path d="M394.2,101.709l-.152,10.093a2.9,2.9,0,0,1-.783,1.958c-2.719,2.882-7.092,5.963-12.317,9.1a17.832,17.832,0,0,1-8.866,2.643l-.639.052-.74.058a2.886,2.886,0,0,0-.588.376,2.561,2.561,0,0,1-1.063.553l-.78.059c-.848.064-1.91.145-2.483.187a33.032,33.032,0,0,1-64.079,1.8L143.95,126.063a33.022,33.022,0,0,1-65.293-3.39q-2.508-.552-5.019-1.154c-17.306-4.15-24.054-7.5-28.018-9.462-.349-.173-.673-.334-.982-.484a15.72,15.72,0,0,1-6.1-5.888,18.259,18.259,0,0,1-2.958-8.994v-3.5l4.4-1.222A80.424,80.424,0,0,1,38.332,75.8l.127-9.51h.024l.25-7.98.936-3.517c1.815-6.819,5.478-20.59,6.2-23.233C46.839,28,48.255,23.5,48.255,23.5l.152-.1s6.608-4.244,17.475-5.229l.563-5.655h3.642a4.306,4.306,0,0,1,2.294.719,12.122,12.122,0,0,1,3.664,4.41l.059.126,3.368-.116c49.966-1.295,122.864-1.887,147.633-.247,7.983.53,12.134,1.258,14.773,2.158a16.1,16.1,0,0,1,4.2,2.182c.332.223.666.447,1.022.671A425.046,425.046,0,0,1,294.466,56.6c.931-.025,5.019-.131,7.255-.131a16.429,16.429,0,0,0,3.43-.5,14.44,14.44,0,0,1,4.178-.494c.588.048,2.216.08,4.73.129,7.595.149,23.028.451,40.86,1.853,16.911,1.323,27.822,5,32.725,7.02a5.4,5.4,0,0,1,2.391,1.927,5.457,5.457,0,0,1,.963,2.95l.536,21.262a2.943,2.943,0,0,1-.481,1.7c-.392.6-.964,1.482-1.276,1.99a2.464,2.464,0,0,1-.815.836,2.278,2.278,0,0,1-.449.213v3.007s4.663,1.756,4.7,1.773a1.729,1.729,0,0,1,.978,1.585Z" style="fill:none;stroke:#687581;stroke-miterlimit:3;stroke-width:0.5000000000025px"/><path d="M393.945,101.705l-.152,10.093a2.649,2.649,0,0,1-.715,1.791c-2.694,2.855-7.042,5.922-12.264,9.057a17.6,17.6,0,0,1-8.756,2.608l-.64.052-.758.06a2.342,2.342,0,0,0-.7.42,2.38,2.38,0,0,1-.935.507l-.78.059c-.968.073-2.189.166-2.669.2a32.783,32.783,0,0,1-63.683,1.785L143.744,125.81a32.772,32.772,0,0,1-64.853-3.342q-2.6-.569-5.2-1.192c-17.286-4.145-24.016-7.483-27.965-9.443-.348-.173-.674-.334-.983-.485a15.475,15.475,0,0,1-5.995-5.8,18.015,18.015,0,0,1-2.92-8.862V93.384l4.445-1.234a80.107,80.107,0,0,1-1.7-16.351l.123-9.262h.02s.257-8.165.265-8.222l.921-3.461c1.814-6.82,5.478-20.589,6.2-23.232.968-3.553,2.355-7.959,2.355-7.959l.076-.049s6.633-4.264,17.568-5.208l.562-5.636h3.415a4.055,4.055,0,0,1,2.161.681,11.9,11.9,0,0,1,3.571,4.305l.129.275,3.53-.123c49.969-1.294,122.855-1.886,147.611-.247,7.979.53,12.1,1.257,14.708,2.146a15.849,15.849,0,0,1,4.139,2.153c.332.222.668.448,1.03.676a424.359,424.359,0,0,1,47.412,34.213c.7-.019,5.022-.134,7.343-.134a16.643,16.643,0,0,0,3.483-.509,14.185,14.185,0,0,1,4.105-.489c.6.049,2.238.081,4.746.13,7.593.149,23.02.451,40.845,1.852,16.882,1.321,27.768,5,32.649,7a5.144,5.144,0,0,1,2.28,1.837,5.211,5.211,0,0,1,.92,2.815l.535,21.263a2.69,2.69,0,0,1-.44,1.552c-.392.6-.966,1.484-1.282,2a2.191,2.191,0,0,1-.732.752,2.114,2.114,0,0,1-.567.244v3.362s4.825,1.817,4.845,1.826a1.479,1.479,0,0,1,.837,1.355Z" style="fill:none;stroke:#687581;stroke-miterlimit:3;stroke-width:0.5000000000025px"/></g><path d="M393.7,101.7l-.152,10.093a2.4,2.4,0,0,1-.647,1.622c-2.669,2.829-6.993,5.882-12.211,9.015a17.362,17.362,0,0,1-8.647,2.573c-.607.048-.783.064-1.4.112-.4.032-1.239.895-1.631.927-1.166.088-3.588.272-3.636.272a32.528,32.528,0,0,1-63.285,1.774l-158.543-2.534h-.008a32.519,32.519,0,0,1-64.412-3.292q-2.685-.588-5.37-1.231c-18.8-4.507-25.086-8.055-28.9-9.909-5.146-2.51-8.774-9.782-8.774-14.433V93.574l4.491-1.246A79.4,79.4,0,0,1,38.832,75.8c.072-8.167.12-9.014.12-9.014h.016l.263-8.407c.808-3.029,6.226-23.415,7.121-26.692.967-3.548,2.325-7.864,2.325-7.864s6.657-4.283,17.662-5.186L66.9,13.02h3.189c3.18,0,5.506,4.843,5.506,4.843l.2.423,3.692-.128c49.971-1.294,122.845-1.886,147.587-.247,15.392,1.023,16.335,2.773,19.763,4.938A423.358,423.358,0,0,1,294.289,57.1s4.907-.136,7.432-.136,5.114-1.2,7.568-1,21.905.12,45.591,1.982c16.855,1.319,27.715,4.987,32.574,6.985A4.925,4.925,0,0,1,390.5,69.36l.535,21.265a2.442,2.442,0,0,1-.4,1.407c-.391.6-.967,1.486-1.286,2.006a1.852,1.852,0,0,1-1.335.919V98.7L393,100.575A1.228,1.228,0,0,1,393.7,101.7Z" style="fill:none;stroke:#687581;stroke-miterlimit:3;stroke-width:0.5000000000025px"/><g id="fe2b06cb-548b-4a92-95bb-6c6b2a06c71a" data-name="Offset Group"><path d="M135.052,143.97a28.76,28.76,0,0,0,20.025-17.918" style="fill:none;stroke:#687581;stroke-miterlimit:3;stroke-width:0.5000000000025px"/><path d="M134.992,143.728a28.511,28.511,0,0,0,19.85-17.763" style="fill:none;stroke:#687581;stroke-miterlimit:3;stroke-width:0.5000000000025px"/><path d="M134.932,143.485a28.257,28.257,0,0,0,19.676-17.606" style="fill:none;stroke:#687581;stroke-miterlimit:3;stroke-width:0.5000000000025px"/><path d="M134.872,143.242a28.009,28.009,0,0,0,19.5-17.45" style="fill:none;stroke:#687581;stroke-miterlimit:3;stroke-width:0.5000000000025px"/></g><path d="M134.813,143a27.759,27.759,0,0,0,19.326-17.293" style="fill:none;stroke:#687581;stroke-miterlimit:3;stroke-width:0.5000000000025px"/><g id="f87facb5-29d3-4608-a991-c6c9d665aed4" data-name="Offset Group"><path d="M290.959,128.354a28.748,28.748,0,0,0,19.834,15.8" style="fill:none;stroke:#687581;stroke-miterlimit:3;stroke-width:0.5000000000025px"/><path d="M291.185,128.247a28.5,28.5,0,0,0,19.661,15.659" style="fill:none;stroke:#687581;stroke-miterlimit:3;stroke-width:0.5000000000025px"/><path d="M291.411,128.14A28.247,28.247,0,0,0,310.9,143.662" style="fill:none;stroke:#687581;stroke-miterlimit:3;stroke-width:0.5000000000025px"/><path d="M291.637,128.034a28,28,0,0,0,19.316,15.383" style="fill:none;stroke:#687581;stroke-miterlimit:3;stroke-width:0.5000000000025px"/></g><path d="M291.863,127.927a27.751,27.751,0,0,0,19.143,15.246" style="fill:none;stroke:#687581;stroke-miterlimit:3;stroke-width:0.5000000000025px"/></g><g style="clip-path:url(#a0d403f9-d121-4d94-9819-e0e9853ec15a)"><line x1="196.421" y1="54.733" x2="194.843" y2="22.112" style="fill:none;stroke:#aebbc7;stroke-miterlimit:10;stroke-width:0.5000000000025px"/><line x1="212.606" y1="55.016" x2="206.914" y2="22.259" style="fill:none;stroke:#aebbc7;stroke-miterlimit:10;stroke-width:0.5000000000025px"/><path d="M201.177,22.187l3.536,32.784.667,3.537a217.709,217.709,0,0,1,2,26.856c0,10.109-.315,11.232-1.07,24l-.73,14.054" style="fill:none;stroke:#aebbc7;stroke-miterlimit:10;stroke-width:0.5000000000025px"/><line x1="153.405" y1="54.02" x2="152.676" y2="22.033" style="fill:none;stroke:#aebbc7;stroke-miterlimit:10;stroke-width:0.5000000000025px"/><path d="M284.171,124.89l-.095-.15a24.15,24.15,0,0,0-2.1-2.744,7.2,7.2,0,0,0-5.69-2.54c-5.533-.236-94.478-1.68-98.407-1.735-4.81-.068-7.046,0-8.875,1.694a27.223,27.223,0,0,0-2.928,3.268" style="fill:none;stroke:#aebbc7;stroke-miterlimit:10;stroke-width:0.5000000000025px"/><line x1="62.614" y1="25.98" x2="62.785" y2="19.064" style="fill:none;stroke:#aebbc7;stroke-miterlimit:10;stroke-width:0.5000000000025px"/><path d="M300.121,97.57c-67.7-1.439-137.014-2.963-138.976-3.119-6.4-.508-8.944.129-10.771-2.236-1.728-2.235-3.354-4.877-5.793-8.536-6.274-9.41-14.121-10-31.6-10.263-20.629-.3-25.208.154-31.3,6.2-2.084,2.067-3.1,3.61-5.843,7.215q-.529.695-1.062,1.387a3.755,3.755,0,0,1-3.561,1.413l-8.582-1.363a12.654,12.654,0,0,1-5.491-2.619l-6.359-5.724a6.185,6.185,0,0,1-2.046-4.472h0c-.116-5.9.087-8.81.087-8.81" style="fill:none;stroke:#aebbc7;stroke-miterlimit:10;stroke-width:0.5000000000025px"/><path d="M36.087,94.313,49.136,102.2a22.839,22.839,0,0,0,6.811,2.5L72.4,107.355" style="fill:none;stroke:#aebbc7;stroke-miterlimit:10;stroke-width:0.5000000000025px"/><rect x="121.693" y="42.606" width="5.162" height="5.162" rx="0.665" transform="translate(4.447 101.109) rotate(-45)" style="fill:none;stroke:#aebbc7;stroke-miterlimit:10;stroke-width:0.5000000000025px"/><path d="M380.088,76.267l.907.886a1.228,1.228,0,0,1,.367.8c.106,1.7.253,8.326.275,10.146.045,3.669-.3,5.161-3.088,5.182-3.11.024-4.194,0-4.973,0a3.339,3.339,0,0,1-3.269-1.778c-.863-1.456-4.058-6.947-5.792-9.146-2.178-2.76-5.985-6.842-30.554-6.842s-27.793,2.993-33.075,12.736l-4.81,9.349" style="fill:none;stroke:#aebbc7;stroke-miterlimit:10;stroke-width:0.5000000000025px"/><path d="M380.837,69.218l-.214-1.334a1.156,1.156,0,0,0-.661-.867c-3.128-1.424-15.85-3.725-17.823-3.944-17.048-1.884-72.193-2.036-72.193-2.036h-.076l-84-2.74S101.949,56.311,71.308,56.311H54.952c-2.655,0-5.217.2-5.518,2.472" style="fill:none;stroke:#aebbc7;stroke-miterlimit:10;stroke-width:0.5000000000025px"/><path d="M376,124.441c-2.988-15.34-5.091-22.252-7.182-27.837" style="fill:none;stroke:#aebbc7;stroke-miterlimit:10;stroke-width:0.5000000000025px"/><path d="M75.6,97.985c-3.67,8.468-5.669,20.088-6.033,22.009" style="fill:none;stroke:#aebbc7;stroke-miterlimit:10;stroke-width:0.5000000000025px"/><path d="M153.687,122.452A178.284,178.284,0,0,0,147.5,98.38" style="fill:none;stroke:#aebbc7;stroke-miterlimit:10;stroke-width:0.5000000000025px"/><path d="M263.858,37.9c.154.892.547,2.871,1.016,6.249" style="fill:none;stroke:#aebbc7;stroke-miterlimit:10;stroke-width:0.5000000000025px"/><path d="M390.506,69.565c-11.149-.406-11.149-.406-18.842-.61-3.945-.2-5.295.514-3.912,2.252,1.54,1.937,3.039,4.507,6.835,4.741,3,.186,7.942.477,15.844.83" style="fill:none;stroke:#aebbc7;stroke-miterlimit:10;stroke-width:0.5000000000025px"/><path d="M118.32,22.647s-2.426,14.676-3.342,19.753-1.748,9.655-11.653,9.655-49.711-.144-49.711-.144" style="fill:none;stroke:#aebbc7;stroke-miterlimit:10;stroke-width:0.5000000000025px"/><path d="M262.311,56.27l-1.356-.045s-71.477-1.62-84.511-1.878c-12.691-.252-28.172-.335-32.667-.5s-6.159-1.915-6.159-6.326.027-25.27.027-25.27" style="fill:none;stroke:#aebbc7;stroke-miterlimit:10;stroke-width:0.5000000000025px"/><line x1="294.289" y1="57.101" x2="281.942" y2="56.778" style="fill:none;stroke:#aebbc7;stroke-miterlimit:10;stroke-width:0.5000000000025px"/><path d="M246.784,22.823s-62.715-.922-72.167-.922c-48.451,0-103.585,2.193-103.585,2.193-5.423.348-8.9.012-11.528,6.515-2.72,6.733-5.89,21.3-5.89,21.3H40.958" style="fill:none;stroke:#aebbc7;stroke-miterlimit:10;stroke-width:0.5000000000025px"/><g id="bb1afe54-dabf-496a-9af4-a077fb0a029d" data-name="Offset Group"><path d="M74.738,121.221S76.963,109.1,80.5,100.558c2.559-6.175,5.169-11.555,8.48-14.583a9.707,9.707,0,0,1,3.631-2.188c5.41-1.7,19.117-1.282,19.134-1.282,0,0,14.734.22,19.516,2.158a12.378,12.378,0,0,1,4.479,3.158c2.744,2.947,5.321,7.923,8.061,16.371a155.832,155.832,0,0,1,5.033,21.61" style="fill:none;stroke:#aebbc7;stroke-miterlimit:3;stroke-width:0.5000000000025px"/><path d="M74.492,121.176s2.229-12.14,5.781-20.714c2.557-6.168,5.184-11.6,8.543-14.671a9.943,9.943,0,0,1,3.725-2.243c5.46-1.71,19.2-1.293,19.212-1.293s14.768.215,19.605,2.176a12.623,12.623,0,0,1,4.569,3.22c2.782,2.988,5.373,8.008,8.116,16.464a156.023,156.023,0,0,1,5.042,21.65" style="fill:none;stroke:#aebbc7;stroke-miterlimit:3;stroke-width:0.5000000000025px"/><path d="M74.246,121.131s2.232-12.163,5.8-20.764c2.554-6.162,5.2-11.647,8.605-14.761a10.2,10.2,0,0,1,3.819-2.3c5.511-1.726,19.282-1.305,19.29-1.305s14.8.211,19.7,2.2a12.854,12.854,0,0,1,4.658,3.281c2.82,3.029,5.425,8.092,8.171,16.557a156.465,156.465,0,0,1,5.052,21.69" style="fill:none;stroke:#aebbc7;stroke-miterlimit:3;stroke-width:0.5000000000025px"/><path d="M74,121.086s2.236-12.186,5.811-20.815c2.551-6.155,5.215-11.692,8.667-14.849a10.456,10.456,0,0,1,3.913-2.351c5.561-1.742,19.364-1.316,19.369-1.316s14.839.207,19.786,2.213a13.113,13.113,0,0,1,4.747,3.342c2.859,3.071,5.477,8.177,8.226,16.651a156.622,156.622,0,0,1,5.061,21.73" style="fill:none;stroke:#aebbc7;stroke-miterlimit:3;stroke-width:0.5000000000025px"/></g><path d="M73.754,121.041s2.239-12.209,5.827-20.866c3.44-8.3,7.124-15.584,12.735-17.342s19.447-1.328,19.447-1.328,14.874.2,19.877,2.231,8.921,7.213,13.116,20.148a156.731,156.731,0,0,1,5.071,21.77" style="fill:none;stroke:#aebbc7;stroke-miterlimit:3;stroke-width:0.5000000000025px"/><line x1="143.546" y1="125.558" x2="302.088" y2="128.089" style="fill:none;stroke:#aebbc7;stroke-miterlimit:10;stroke-width:0.5000000000025px"/><g id="be9b4b81-fb46-4c44-b01d-468c63db1028" data-name="Offset Group"><path d="M111.548,153.253a33.557,33.557,0,1,0-23.692-9.828A33.419,33.419,0,0,0,111.548,153.253Z" style="fill:none;stroke:#aebbc7;stroke-miterlimit:3;stroke-width:0.5000000000025px"/><path d="M111.548,153a33.307,33.307,0,1,0-23.515-9.755A33.168,33.168,0,0,0,111.548,153Z" style="fill:none;stroke:#aebbc7;stroke-miterlimit:3;stroke-width:0.5000000000025px"/><path d="M111.548,152.753a33.058,33.058,0,1,0-23.338-9.682A32.922,32.922,0,0,0,111.548,152.753Z" style="fill:none;stroke:#aebbc7;stroke-miterlimit:3;stroke-width:0.5000000000025px"/><path d="M111.548,152.5a32.807,32.807,0,1,0-23.162-9.609A32.669,32.669,0,0,0,111.548,152.5Z" style="fill:none;stroke:#aebbc7;stroke-miterlimit:3;stroke-width:0.5000000000025px"/></g><path d="M111.548,152.253a32.521,32.521,0,1,0-32.521-32.52A32.557,32.557,0,0,0,111.548,152.253Z" style="fill:none;stroke:#aebbc7;stroke-miterlimit:3;stroke-width:0.5000000000025px"/><path d="M111.55,142.168a22.436,22.436,0,1,1,22.436-22.435A22.462,22.462,0,0,1,111.55,142.168Z" style="fill:none;stroke:#aebbc7;stroke-miterlimit:10"/><path d="M105.476,135.06a17.019,17.019,0,0,1-6.677-4.945l2.3-4.149a1.768,1.768,0,0,1,.819-.774l5.49-2.535a.835.835,0,0,0,.442-.99l-.237-.72-.221-.7a.843.843,0,0,0-.8-.568h-.043l-.1.011-5.948,1.176a1.739,1.739,0,0,1-1.1-.135l-4.356-2.08a16.806,16.806,0,0,1,2.631-7.885l4.662.907a1.767,1.767,0,0,1,.969.531l4.127,4.449a.81.81,0,0,0,.6.261.824.824,0,0,0,.487-.159l1.2-.859a.835.835,0,0,0,.232-1.074L107,109.536a1.751,1.751,0,0,1-.21-1.1l.63-4.765a16.813,16.813,0,0,1,8.3.059l.587,4.705a1.79,1.79,0,0,1-.21,1.1l-2.95,5.289a.828.828,0,0,0,.229,1.068l1.194.863a.822.822,0,0,0,.489.159.83.83,0,0,0,.593-.249l4.127-4.457a1.779,1.779,0,0,1,.982-.535l4.724-.877a16.837,16.837,0,0,1,2.519,7.93l-4.3,2a1.76,1.76,0,0,1-.76.175,1.693,1.693,0,0,1-.346-.035l-5.994-1.183-.1,0a.823.823,0,0,0-.791.581l-.227.686-.224.7a.818.818,0,0,0,.434,1l5.5,2.539a1.837,1.837,0,0,1,.816.773l2.29,4.216a17.089,17.089,0,0,1-6.71,4.843l-3.285-3.47a1.766,1.766,0,0,1-.479-1.005l-.719-6.016a.824.824,0,0,0-.822-.728h-1.471a.824.824,0,0,0-.82.73l-.719,6.013a1.733,1.733,0,0,1-.474,1Z" style="fill:none;stroke:#aebbc7;stroke-linecap:round;stroke-linejoin:round"/><path d="M114.862,135.957a16.78,16.78,0,0,1-6.623,0l3.309-3.314Z" style="fill:none;stroke:#aebbc7;stroke-linecap:round;stroke-linejoin:round"/><path d="M128,121.6a16.766,16.766,0,0,1-2.046,6.3l-2.13-4.17Z" style="fill:none;stroke:#aebbc7;stroke-linecap:round;stroke-linejoin:round"/><path d="M118.408,104.66a16.78,16.78,0,0,1,5.358,3.893l-4.625.736Z" style="fill:none;stroke:#aebbc7;stroke-linecap:round;stroke-linejoin:round"/><path d="M99.334,108.553a16.806,16.806,0,0,1,5.358-3.893l-.728,4.626Z" style="fill:none;stroke:#aebbc7;stroke-linecap:round;stroke-linejoin:round"/><path d="M97.143,127.9a16.8,16.8,0,0,1-2.047-6.3l4.175,2.122Z" style="fill:none;stroke:#aebbc7;stroke-linecap:round;stroke-linejoin:round"/><path d="M101.471,120.677a10.094,10.094,0,0,1,2.55-7.7" style="fill:none;stroke:#aebbc7;stroke-linecap:round;stroke-linejoin:round"/><path d="M109.384,129.622a10.162,10.162,0,0,1-6.6-4.83" style="fill:none;stroke:#aebbc7;stroke-linecap:round;stroke-linejoin:round"/><path d="M120.327,124.8a10.28,10.28,0,0,1-6.614,4.828" style="fill:none;stroke:#aebbc7;stroke-linecap:round;stroke-linejoin:round"/><path d="M119.079,112.972a10.09,10.09,0,0,1,2.551,7.7" style="fill:none;stroke:#aebbc7;stroke-linecap:round;stroke-linejoin:round"/><path d="M107.512,110.45a10.142,10.142,0,0,1,8.081,0" style="fill:none;stroke:#aebbc7;stroke-linecap:round;stroke-linejoin:round"/><path d="M111.548,152.253a32.521,32.521,0,1,0-32.521-32.52A32.557,32.557,0,0,0,111.548,152.253Z" style="fill:none;stroke:#aebbc7;stroke-miterlimit:10;stroke-width:0.5000000000025px"/><g id="ec5a4b2a-c68d-421b-97bc-142c81c0a1a5" data-name="Offset Group"><path d="M111.548,153.253a33.557,33.557,0,1,0-23.692-9.828A33.419,33.419,0,0,0,111.548,153.253Z" style="fill:none;stroke:#aebbc7;stroke-miterlimit:10;stroke-width:0.5000000000025px"/><path d="M111.548,153a33.307,33.307,0,1,0-23.515-9.755A33.168,33.168,0,0,0,111.548,153Z" style="fill:none;stroke:#aebbc7;stroke-miterlimit:10;stroke-width:0.5000000000025px"/><path d="M111.548,152.753a33.058,33.058,0,1,0-23.338-9.682A32.922,32.922,0,0,0,111.548,152.753Z" style="fill:none;stroke:#aebbc7;stroke-miterlimit:10;stroke-width:0.5000000000025px"/><path d="M111.548,152.5a32.807,32.807,0,1,0-23.162-9.609A32.669,32.669,0,0,0,111.548,152.5Z" style="fill:none;stroke:#aebbc7;stroke-miterlimit:10;stroke-width:0.5000000000025px"/></g><path d="M111.548,152.253a32.521,32.521,0,1,0-32.521-32.52A32.557,32.557,0,0,0,111.548,152.253Z" style="fill:none;stroke:#aebbc7;stroke-miterlimit:10;stroke-width:0.5000000000025px"/><path d="M111.55,142.168a22.436,22.436,0,1,1,22.436-22.435A22.462,22.462,0,0,1,111.55,142.168Z" style="fill:none;stroke:#aebbc7;stroke-miterlimit:10;stroke-width:0.5000000000025px"/><path d="M105.476,135.06a17.019,17.019,0,0,1-6.677-4.945l2.3-4.149a1.768,1.768,0,0,1,.819-.774l5.49-2.535a.835.835,0,0,0,.442-.99l-.237-.72-.221-.7a.843.843,0,0,0-.8-.568h-.043l-.1.011-5.948,1.176a1.739,1.739,0,0,1-1.1-.135l-4.356-2.08a16.806,16.806,0,0,1,2.631-7.885l4.662.907a1.767,1.767,0,0,1,.969.531l4.127,4.449a.81.81,0,0,0,.6.261.824.824,0,0,0,.487-.159l1.2-.859a.835.835,0,0,0,.232-1.074L107,109.536a1.751,1.751,0,0,1-.21-1.1l.63-4.765a16.813,16.813,0,0,1,8.3.059l.587,4.705a1.79,1.79,0,0,1-.21,1.1l-2.95,5.289a.828.828,0,0,0,.229,1.068l1.194.863a.822.822,0,0,0,.489.159.83.83,0,0,0,.593-.249l4.127-4.457a1.779,1.779,0,0,1,.982-.535l4.724-.877a16.837,16.837,0,0,1,2.519,7.93l-4.3,2a1.76,1.76,0,0,1-.76.175,1.693,1.693,0,0,1-.346-.035l-5.994-1.183-.1,0a.823.823,0,0,0-.791.581l-.227.686-.224.7a.818.818,0,0,0,.434,1l5.5,2.539a1.837,1.837,0,0,1,.816.773l2.29,4.216a17.089,17.089,0,0,1-6.71,4.843l-3.285-3.47a1.766,1.766,0,0,1-.479-1.005l-.719-6.016a.824.824,0,0,0-.822-.728h-1.471a.824.824,0,0,0-.82.73l-.719,6.013a1.733,1.733,0,0,1-.474,1Z" style="fill:none;stroke:#aebbc7;stroke-miterlimit:10;stroke-width:0.5000000000025px"/><path d="M114.862,135.957a16.78,16.78,0,0,1-6.623,0l3.309-3.314Z" style="fill:none;stroke:#aebbc7;stroke-miterlimit:10;stroke-width:0.5000000000025px"/><path d="M128,121.6a16.766,16.766,0,0,1-2.046,6.3l-2.13-4.17Z" style="fill:none;stroke:#aebbc7;stroke-miterlimit:10;stroke-width:0.5000000000025px"/><path d="M118.408,104.66a16.78,16.78,0,0,1,5.358,3.893l-4.625.736Z" style="fill:none;stroke:#aebbc7;stroke-miterlimit:10;stroke-width:0.5000000000025px"/><path d="M99.334,108.553a16.806,16.806,0,0,1,5.358-3.893l-.728,4.626Z" style="fill:none;stroke:#aebbc7;stroke-miterlimit:10;stroke-width:0.5000000000025px"/><path d="M97.143,127.9a16.8,16.8,0,0,1-2.047-6.3l4.175,2.122Z" style="fill:none;stroke:#aebbc7;stroke-miterlimit:10;stroke-width:0.5000000000025px"/><path d="M101.471,120.677a10.094,10.094,0,0,1,2.55-7.7" style="fill:none;stroke:#aebbc7;stroke-miterlimit:10;stroke-width:0.5000000000025px"/><path d="M109.384,129.622a10.162,10.162,0,0,1-6.6-4.83" style="fill:none;stroke:#aebbc7;stroke-miterlimit:10;stroke-width:0.5000000000025px"/><path d="M120.327,124.8a10.28,10.28,0,0,1-6.614,4.828" style="fill:none;stroke:#aebbc7;stroke-miterlimit:10;stroke-width:0.5000000000025px"/><path d="M119.079,112.972a10.09,10.09,0,0,1,2.551,7.7" style="fill:none;stroke:#aebbc7;stroke-miterlimit:10;stroke-width:0.5000000000025px"/><path d="M107.512,110.45a10.142,10.142,0,0,1,8.081,0" style="fill:none;stroke:#aebbc7;stroke-miterlimit:10;stroke-width:0.5000000000025px"/><path d="M289.315,57.128a422.338,422.338,0,0,0-48.782-34.4" style="fill:none;stroke:#aebbc7;stroke-miterlimit:10;stroke-width:0.5000000000025px"/><path d="M39.223,58.765l19.526.357a1.187,1.187,0,0,1,1.338,1.287l.048,2.266c0,2.224-2.1,4.118-6.713,4.118H38.966" style="fill:none;stroke:#aebbc7;stroke-miterlimit:10;stroke-width:0.5000000000025px"/><path d="M365.371,126.32c.052,0,2.476-.182,3.636-.271.4-.031,1.233-.9,1.632-.928l1.4-.112a17.422,17.422,0,0,0,8.647-2.572c5.214-3.134,9.537-6.184,12.211-9.02a2.412,2.412,0,0,0,.643-1.622l.156-10.086a1.234,1.234,0,0,0-.7-1.13L388.013,98.7V94.958a1.856,1.856,0,0,0,1.339-.913c.319-.525.891-1.407,1.284-2.008a2.456,2.456,0,0,0,.4-1.41L390.5,69.362a4.916,4.916,0,0,0-3.039-4.424c-4.863-2-15.718-5.664-32.572-6.986-23.694-1.858-43.141-1.78-45.6-1.979s-5.044,1-7.566,1-7.433.133-7.433.133a424.293,424.293,0,0,0-47.455-34.247c-3.424-2.165-4.368-3.917-19.759-4.936-24.745-1.639-97.618-1.05-147.59.245l-9.081.311c-13.4,0-21.727,5.351-21.727,5.351s-1.354,4.32-2.321,7.866c-.9,3.281-6.316,23.666-7.121,26.7l-.269,8.408h-.011s-.049.841-.124,9.011a79.147,79.147,0,0,0,1.746,16.524l-4.49,1.247v3.117c0,4.655,3.624,11.929,8.775,14.435,3.806,1.852,10.095,5.4,28.892,9.914q2.686.644,5.371,1.225" style="fill:none;stroke:#aebbc7;stroke-miterlimit:10;stroke-width:0.5000000000025px"/><g id="fe7c58e8-58a2-438e-b374-d8dede29f0dc" data-name="Offset Group"><path d="M295.065,128.184l.237-1.034c.858-3.758,3.869-16.366,7.172-23.649l.509-1.124c3.451-7.629,5.721-12.567,10.313-15.5,3.559-2.271,8.645-3.406,17.088-3.322,14.957.149,22.351.921,26.825,3.91,2.432,1.624,4.068,3.959,5.565,7.469,3.942,9.247,6.133,19.354,8.286,30.266" style="fill:none;stroke:#aebbc7;stroke-miterlimit:3;stroke-width:0.5000000000025px"/><path d="M294.821,128.129l.237-1.035c.857-3.753,3.873-16.386,7.188-23.7q.26-.57.509-1.124c3.442-7.609,5.739-12.627,10.407-15.606,3.619-2.31,8.765-3.445,17.225-3.361,14.933.149,22.413.914,26.961,3.952C359.835,88.92,361.5,91.3,363,94.838c3.953,9.274,6.149,19.405,8.3,30.316" style="fill:none;stroke:#aebbc7;stroke-miterlimit:3;stroke-width:0.5000000000025px"/><path d="M294.578,128.073l.236-1.035c.856-3.748,3.878-16.407,7.2-23.743q.26-.57.509-1.124c3.433-7.588,5.758-12.687,10.5-15.713,3.681-2.35,8.886-3.485,17.362-3.4,14.91.149,22.475.906,27.1,3.994,2.543,1.7,4.23,4.131,5.747,7.689,3.965,9.3,6.164,19.455,8.317,30.365" style="fill:none;stroke:#aebbc7;stroke-miterlimit:3;stroke-width:0.5000000000025px"/><path d="M294.334,128.017l.236-1.034c.855-3.744,3.882-16.428,7.221-23.791q.258-.571.509-1.124c3.423-7.568,5.775-12.747,10.593-15.821,3.742-2.388,9.006-3.524,17.5-3.44,14.886.149,22.536.9,27.233,4.036,2.6,1.736,4.312,4.217,5.839,7.8,3.976,9.327,6.18,19.506,8.332,30.415" style="fill:none;stroke:#aebbc7;stroke-miterlimit:3;stroke-width:0.5000000000025px"/></g><path d="M294.09,127.962l.237-1.035c.854-3.739,3.885-16.448,7.236-23.839C308,88.9,310.4,82.358,330.394,82.557c23.133.231,29,1.9,33.3,11.987,3.988,9.354,6.195,19.556,8.348,30.465" style="fill:none;stroke:#aebbc7;stroke-miterlimit:3;stroke-width:0.5000000000025px"/><path d="M40.577,92.328a112.894,112.894,0,0,0,10.348,6.053c5.76,2.912,11.8,3.462,16.224,4s6.191.851,7.377-2.208c1.769-3.381,4.246-9.712,8.984-16.083,5.013-6.741,11.759-6.738,28.351-6.707,7.117.014,16.323.557,20.628,1.931,10.177,3.248,14.591,18.512,17.084,24.321,2.012,4.69,5.307,4.351,9.177,4.433,4.029.086,130.236,3.1,130.236,3.1,4.558,0,5.494.562,6.3-1.5a145.06,145.06,0,0,1,7.521-17.55c4.855-9.007,7.777-13,30.7-13s26.725,3.623,28.757,6.163c1.725,2.156,4.289,6.806,6.767,11.679a2.026,2.026,0,0,0,1.729,1.106l17.255.645" style="fill:none;stroke:#aebbc7;stroke-miterlimit:10;stroke-width:0.5000000000025px"/><g id="a52b22cb-8909-43bd-8312-583649240ec7" data-name="Offset Group"><path d="M333.521,153.253a33.558,33.558,0,1,0-23.692-9.829A33.419,33.419,0,0,0,333.521,153.253Z" style="fill:none;stroke:#aebbc7;stroke-miterlimit:3;stroke-width:0.5000000000025px"/><path d="M333.521,153a33.307,33.307,0,1,0-23.515-9.755A33.168,33.168,0,0,0,333.521,153Z" style="fill:none;stroke:#aebbc7;stroke-miterlimit:3;stroke-width:0.5000000000025px"/><path d="M333.521,152.753a33.056,33.056,0,1,0-23.339-9.682A32.92,32.92,0,0,0,333.521,152.753Z" style="fill:none;stroke:#aebbc7;stroke-miterlimit:3;stroke-width:0.5000000000025px"/><path d="M333.521,152.5a32.807,32.807,0,1,0-23.162-9.609A32.669,32.669,0,0,0,333.521,152.5Z" style="fill:none;stroke:#aebbc7;stroke-miterlimit:3;stroke-width:0.5000000000025px"/></g><path d="M333.521,152.253A32.521,32.521,0,1,0,301,119.733,32.557,32.557,0,0,0,333.521,152.253Z" style="fill:none;stroke:#aebbc7;stroke-miterlimit:3;stroke-width:0.5000000000025px"/><path d="M333.523,142.168a22.436,22.436,0,1,1,22.436-22.435A22.462,22.462,0,0,1,333.523,142.168Z" style="fill:none;stroke:#aebbc7;stroke-miterlimit:10"/><path d="M327.449,135.06a17.019,17.019,0,0,1-6.677-4.945l2.3-4.149a1.763,1.763,0,0,1,.819-.774l5.49-2.535a.835.835,0,0,0,.442-.99l-.237-.72-.221-.7a.843.843,0,0,0-.8-.568h-.043l-.1.011-5.948,1.176a1.739,1.739,0,0,1-1.1-.135l-4.356-2.08a16.806,16.806,0,0,1,2.631-7.885l4.662.907a1.767,1.767,0,0,1,.969.531l4.127,4.449a.81.81,0,0,0,.6.261.824.824,0,0,0,.487-.159l1.2-.859a.835.835,0,0,0,.232-1.074l-2.948-5.287a1.751,1.751,0,0,1-.21-1.1l.63-4.765a16.813,16.813,0,0,1,8.3.059l.587,4.705a1.79,1.79,0,0,1-.21,1.1l-2.95,5.289a.828.828,0,0,0,.229,1.068l1.194.863a.821.821,0,0,0,.488.159.831.831,0,0,0,.594-.249l4.127-4.457a1.779,1.779,0,0,1,.982-.535l4.724-.877a16.837,16.837,0,0,1,2.519,7.93l-4.3,2a1.76,1.76,0,0,1-.76.175,1.693,1.693,0,0,1-.346-.035l-5.994-1.183-.1,0a.823.823,0,0,0-.791.581l-.227.686-.224.7a.818.818,0,0,0,.434,1l5.5,2.539a1.837,1.837,0,0,1,.816.773l2.29,4.216a17.089,17.089,0,0,1-6.71,4.843l-3.285-3.47a1.766,1.766,0,0,1-.479-1.005l-.719-6.016a.824.824,0,0,0-.822-.728h-1.471a.824.824,0,0,0-.82.73l-.719,6.013a1.733,1.733,0,0,1-.474,1Z" style="fill:none;stroke:#aebbc7;stroke-linecap:round;stroke-linejoin:round"/><path d="M336.835,135.957a16.78,16.78,0,0,1-6.623,0l3.309-3.314Z" style="fill:none;stroke:#aebbc7;stroke-linecap:round;stroke-linejoin:round"/><path d="M349.977,121.6a16.766,16.766,0,0,1-2.046,6.3l-2.13-4.17Z" style="fill:none;stroke:#aebbc7;stroke-linecap:round;stroke-linejoin:round"/><path d="M340.381,104.66a16.78,16.78,0,0,1,5.358,3.893l-4.625.736Z" style="fill:none;stroke:#aebbc7;stroke-linecap:round;stroke-linejoin:round"/><path d="M321.307,108.553a16.806,16.806,0,0,1,5.358-3.893l-.728,4.626Z" style="fill:none;stroke:#aebbc7;stroke-linecap:round;stroke-linejoin:round"/><path d="M319.116,127.9a16.8,16.8,0,0,1-2.047-6.3l4.175,2.122Z" style="fill:none;stroke:#aebbc7;stroke-linecap:round;stroke-linejoin:round"/><path d="M323.444,120.677a10.094,10.094,0,0,1,2.55-7.7" style="fill:none;stroke:#aebbc7;stroke-linecap:round;stroke-linejoin:round"/><path d="M331.357,129.622a10.159,10.159,0,0,1-6.6-4.83" style="fill:none;stroke:#aebbc7;stroke-linecap:round;stroke-linejoin:round"/><path d="M342.3,124.8a10.28,10.28,0,0,1-6.614,4.828" style="fill:none;stroke:#aebbc7;stroke-linecap:round;stroke-linejoin:round"/><path d="M341.052,112.972a10.094,10.094,0,0,1,2.551,7.7" style="fill:none;stroke:#aebbc7;stroke-linecap:round;stroke-linejoin:round"/><path d="M329.485,110.45a10.139,10.139,0,0,1,8.08,0" style="fill:none;stroke:#aebbc7;stroke-linecap:round;stroke-linejoin:round"/><path d="M333.521,152.253A32.521,32.521,0,1,0,301,119.733,32.557,32.557,0,0,0,333.521,152.253Z" style="fill:none;stroke:#aebbc7;stroke-miterlimit:10;stroke-width:0.5000000000025px"/><g id="f1c5b6c7-9eb5-41dd-8e2c-8402f83bc2f4" data-name="Offset Group"><path d="M333.521,153.253a33.558,33.558,0,1,0-23.692-9.829A33.419,33.419,0,0,0,333.521,153.253Z" style="fill:none;stroke:#aebbc7;stroke-miterlimit:10;stroke-width:0.5000000000025px"/><path d="M333.521,153a33.307,33.307,0,1,0-23.515-9.755A33.168,33.168,0,0,0,333.521,153Z" style="fill:none;stroke:#aebbc7;stroke-miterlimit:10;stroke-width:0.5000000000025px"/><path d="M333.521,152.753a33.056,33.056,0,1,0-23.339-9.682A32.92,32.92,0,0,0,333.521,152.753Z" style="fill:none;stroke:#aebbc7;stroke-miterlimit:10;stroke-width:0.5000000000025px"/><path d="M333.521,152.5a32.807,32.807,0,1,0-23.162-9.609A32.669,32.669,0,0,0,333.521,152.5Z" style="fill:none;stroke:#aebbc7;stroke-miterlimit:10;stroke-width:0.5000000000025px"/></g><path d="M333.521,152.253A32.521,32.521,0,1,0,301,119.733,32.557,32.557,0,0,0,333.521,152.253Z" style="fill:none;stroke:#aebbc7;stroke-miterlimit:10;stroke-width:0.5000000000025px"/><path d="M333.523,142.168a22.436,22.436,0,1,1,22.436-22.435A22.462,22.462,0,0,1,333.523,142.168Z" style="fill:none;stroke:#aebbc7;stroke-miterlimit:10;stroke-width:0.5000000000025px"/><path d="M327.449,135.06a17.019,17.019,0,0,1-6.677-4.945l2.3-4.149a1.763,1.763,0,0,1,.819-.774l5.49-2.535a.835.835,0,0,0,.442-.99l-.237-.72-.221-.7a.843.843,0,0,0-.8-.568h-.043l-.1.011-5.948,1.176a1.739,1.739,0,0,1-1.1-.135l-4.356-2.08a16.806,16.806,0,0,1,2.631-7.885l4.662.907a1.767,1.767,0,0,1,.969.531l4.127,4.449a.81.81,0,0,0,.6.261.824.824,0,0,0,.487-.159l1.2-.859a.835.835,0,0,0,.232-1.074l-2.948-5.287a1.751,1.751,0,0,1-.21-1.1l.63-4.765a16.813,16.813,0,0,1,8.3.059l.587,4.705a1.79,1.79,0,0,1-.21,1.1l-2.95,5.289a.828.828,0,0,0,.229,1.068l1.194.863a.821.821,0,0,0,.488.159.831.831,0,0,0,.594-.249l4.127-4.457a1.779,1.779,0,0,1,.982-.535l4.724-.877a16.837,16.837,0,0,1,2.519,7.93l-4.3,2a1.76,1.76,0,0,1-.76.175,1.693,1.693,0,0,1-.346-.035l-5.994-1.183-.1,0a.823.823,0,0,0-.791.581l-.227.686-.224.7a.818.818,0,0,0,.434,1l5.5,2.539a1.837,1.837,0,0,1,.816.773l2.29,4.216a17.089,17.089,0,0,1-6.71,4.843l-3.285-3.47a1.766,1.766,0,0,1-.479-1.005l-.719-6.016a.824.824,0,0,0-.822-.728h-1.471a.824.824,0,0,0-.82.73l-.719,6.013a1.733,1.733,0,0,1-.474,1Z" style="fill:none;stroke:#aebbc7;stroke-miterlimit:10;stroke-width:0.5000000000025px"/><path d="M336.835,135.957a16.78,16.78,0,0,1-6.623,0l3.309-3.314Z" style="fill:none;stroke:#aebbc7;stroke-miterlimit:10;stroke-width:0.5000000000025px"/><path d="M349.977,121.6a16.766,16.766,0,0,1-2.046,6.3l-2.13-4.17Z" style="fill:none;stroke:#aebbc7;stroke-miterlimit:10;stroke-width:0.5000000000025px"/><path d="M340.381,104.66a16.78,16.78,0,0,1,5.358,3.893l-4.625.736Z" style="fill:none;stroke:#aebbc7;stroke-miterlimit:10;stroke-width:0.5000000000025px"/><path d="M321.307,108.553a16.806,16.806,0,0,1,5.358-3.893l-.728,4.626Z" style="fill:none;stroke:#aebbc7;stroke-miterlimit:10;stroke-width:0.5000000000025px"/><path d="M319.116,127.9a16.8,16.8,0,0,1-2.047-6.3l4.175,2.122Z" style="fill:none;stroke:#aebbc7;stroke-miterlimit:10;stroke-width:0.5000000000025px"/><path d="M323.444,120.677a10.094,10.094,0,0,1,2.55-7.7" style="fill:none;stroke:#aebbc7;stroke-miterlimit:10;stroke-width:0.5000000000025px"/><path d="M331.357,129.622a10.159,10.159,0,0,1-6.6-4.83" style="fill:none;stroke:#aebbc7;stroke-miterlimit:10;stroke-width:0.5000000000025px"/><path d="M342.3,124.8a10.28,10.28,0,0,1-6.614,4.828" style="fill:none;stroke:#aebbc7;stroke-miterlimit:10;stroke-width:0.5000000000025px"/><path d="M341.052,112.972a10.094,10.094,0,0,1,2.551,7.7" style="fill:none;stroke:#aebbc7;stroke-miterlimit:10;stroke-width:0.5000000000025px"/><path d="M329.485,110.45a10.139,10.139,0,0,1,8.08,0" style="fill:none;stroke:#aebbc7;stroke-miterlimit:10;stroke-width:0.5000000000025px"/><path d="M388.013,94.958h-3.82A2.837,2.837,0,0,0,382,96.009l-1.039,1.224a1.922,1.922,0,0,0-.392,1.151l.354,7.547a3.5,3.5,0,0,0,2.359,3.147l2.682.924a43.835,43.835,0,0,0,7.58,1.793" style="fill:none;stroke:#aebbc7;stroke-miterlimit:10;stroke-width:0.5000000000025px"/><path d="M267.036,57.362h3.94a2.751,2.751,0,0,0,1.869-.884l3.182-3.875a3.785,3.785,0,0,0,.658-1.178l.046-.135" style="fill:none;stroke:#aebbc7;stroke-miterlimit:10"/><path d="M273.164,58.574a2.091,2.091,0,0,1-.724-.155,14.667,14.667,0,0,0-5.4-1.057c-1.243,0-3.4,0-4.582-.959-2.064-1.769-1.658-7.656-.823-10.007.973-2.737,2.925-2.482,7.051-1.8a14.124,14.124,0,0,1,7.656,5.264c1.366,1.532-1,2.484.737,3.263,2.918,1.308,2.768,1.3,4.882,3.67a.618.618,0,0,1-.213.977l-1.729.756a3.236,3.236,0,0,1-1.183.228Z" style="fill:none;stroke:#aebbc7;stroke-miterlimit:10"/><path d="M267.036,57.362h3.94a2.751,2.751,0,0,0,1.869-.884l3.182-3.875a3.785,3.785,0,0,0,.658-1.178l.046-.135" style="fill:none;stroke:#aebbc7;stroke-miterlimit:10;stroke-width:0.5000000000025px"/><path d="M273.164,58.574a2.091,2.091,0,0,1-.724-.155,14.667,14.667,0,0,0-5.4-1.057c-1.243,0-3.4,0-4.582-.959-2.064-1.769-1.658-7.656-.823-10.007.973-2.737,2.925-2.482,7.051-1.8a14.124,14.124,0,0,1,7.656,5.264c1.366,1.532-1,2.484.737,3.263,2.918,1.308,2.768,1.3,4.882,3.67a.618.618,0,0,1-.213.977l-1.729.756a3.236,3.236,0,0,1-1.183.228Z" style="fill:none;stroke:#aebbc7;stroke-miterlimit:10;stroke-width:0.5000000000025px"/><line x1="261.009" y1="52.522" x2="267.785" y2="52.522" style="fill:none;stroke:#aebbc7;stroke-miterlimit:10;stroke-width:0.5000000000025px"/><rect x="142.992" y="63.735" width="16.325" height="3.24" rx="1.312" transform="translate(301.427 132.714) rotate(-179.238)" style="fill:none;stroke:#aebbc7;stroke-miterlimit:10;stroke-width:0.5000000000025px"/><rect x="213.853" y="65.262" width="16.325" height="3.24" rx="1.312" transform="translate(442.812 137.684) rotate(-178.986)" style="fill:none;stroke:#aebbc7;stroke-miterlimit:10;stroke-width:0.5000000000025px"/><path d="M288.065,124.9l2.379-13.746s1.54-8.9,1.992-13.706a196.613,196.613,0,0,0,.328-24.388c-.534-6.446-1.437-12.03-1.437-12.03l-2.012-3.9" style="fill:none;stroke:#aebbc7;stroke-miterlimit:10;stroke-width:0.5000000000025px"/><path d="M134.481,22.354c-1.154,16.541-1.292,22.5-1.467,27.1a29.182,29.182,0,0,1-1.126,7.551,143.54,143.54,0,0,0-1.61,17.441V83.2" style="fill:none;stroke:#aebbc7;stroke-miterlimit:10;stroke-width:0.5000000000025px"/><line x1="149.27" y1="122.369" x2="295.113" y2="125.094" style="fill:none;stroke:#aebbc7;stroke-miterlimit:10;stroke-width:0.5000000000025px"/><path d="M75.8,18.29l-.2-.422s-2.323-4.845-5.508-4.845H66.9l-.556,5.617" style="fill:none;stroke:#aebbc7;stroke-miterlimit:10;stroke-width:0.5000000000025px"/><g id="ee26a81a-e171-4cff-88a8-46e510b2c512" data-name="Offset Group"><path d="M394.7,101.717l-.152,10.091a3.4,3.4,0,0,1-.92,2.3c-2.768,2.933-7.19,6.044-12.422,9.185A18.344,18.344,0,0,1,372.117,126l-.638.051-.656.053c-.075.042-.2.13-.42.288a2.975,2.975,0,0,1-1.319.647l-.779.059-2.114.159a33.534,33.534,0,0,1-64.866,1.819l-156.967-2.509a33.523,33.523,0,0,1-66.164-3.486q-2.336-.516-4.672-1.077c-17.347-4.16-24.13-7.518-28.124-9.5-.349-.173-.672-.333-.979-.482a16.22,16.22,0,0,1-6.3-6.073,18.745,18.745,0,0,1-3.034-9.259V92.814l4.317-1.2a81.145,81.145,0,0,1-1.568-15.824l.134-10H38l.237-7.553.95-3.573c1.814-6.817,5.478-20.59,6.2-23.236.973-3.569,2.446-8.247,2.446-8.247l.3-.2s6.558-4.2,17.289-5.266l.568-5.7h4.094a4.8,4.8,0,0,1,2.56.8,12.268,12.268,0,0,1,3.764,4.448l3.048-.105c49.961-1.295,122.883-1.888,147.679-.246,7.991.531,12.2,1.262,14.9,2.184a16.562,16.562,0,0,1,4.315,2.24c.333.223.661.443,1,.661a426.523,426.523,0,0,1,47.285,34.093c1.2-.032,4.962-.126,7.077-.126a15.922,15.922,0,0,0,3.323-.492,14.9,14.9,0,0,1,4.326-.5c.568.046,2.172.078,4.7.127,7.6.149,23.041.451,40.889,1.854,16.967,1.328,27.929,5.023,32.876,7.057a5.924,5.924,0,0,1,3.664,5.327s.536,21.265.535,21.258a3.44,3.44,0,0,1-.561,1.986c-.393.6-.961,1.477-1.266,1.972a2.953,2.953,0,0,1-.981,1c-.071.044-.142.083-.212.118v2.331s4.34,1.634,4.422,1.669a2.227,2.227,0,0,1,1.261,2.043Z" style="fill:none;stroke:#aebbc7;stroke-miterlimit:3;stroke-width:0.5000000000025px"/><path d="M394.445,101.713l-.152,10.092a3.152,3.152,0,0,1-.851,2.127c-2.744,2.908-7.141,6-12.37,9.142a18.092,18.092,0,0,1-8.975,2.679l-.639.051c-.216.018-.422.034-.684.047a3.292,3.292,0,0,0-.517.34,2.77,2.77,0,0,1-1.191.6l-.78.059c-.754.057-1.693.128-2.3.172a33.283,33.283,0,0,1-64.473,1.808l-157.36-2.515a33.273,33.273,0,0,1-65.73-3.438q-2.422-.534-4.845-1.115c-17.327-4.155-24.092-7.507-28.071-9.482-.349-.173-.673-.334-.98-.483a15.974,15.974,0,0,1-6.2-5.98,18.51,18.51,0,0,1-3-9.127V93l4.359-1.21a80.72,80.72,0,0,1-1.61-16l.131-9.758h.028l.243-7.767.944-3.545c1.814-6.818,5.478-20.589,6.2-23.234.971-3.564,2.416-8.151,2.416-8.151l.228-.146s6.583-4.224,17.382-5.248l.565-5.676h3.868a4.55,4.55,0,0,1,2.427.758A12.251,12.251,0,0,1,76.26,17.52l3.2-.111c49.964-1.295,122.874-1.888,147.657-.247,7.986.531,12.165,1.261,14.836,2.171a16.375,16.375,0,0,1,4.257,2.212c.332.222.663.444,1.013.666a425.549,425.549,0,0,1,47.327,34.133c1.087-.029,5-.129,7.166-.129a16.187,16.187,0,0,0,3.376-.5,14.638,14.638,0,0,1,4.253-.5c.577.047,2.193.079,4.714.128,7.595.149,23.035.451,40.875,1.853,16.938,1.326,27.875,5.014,32.8,7.039a5.674,5.674,0,0,1,3.509,5.1s.536,21.266.536,21.26a3.194,3.194,0,0,1-.522,1.841c-.392.6-.962,1.48-1.271,1.981a2.693,2.693,0,0,1-.9.92,2.367,2.367,0,0,1-.33.171v2.664s4.5,1.7,4.562,1.721a1.977,1.977,0,0,1,1.12,1.814Z" style="fill:none;stroke:#aebbc7;stroke-miterlimit:3;stroke-width:0.5000000000025px"/><path d="M394.2,101.709l-.152,10.093a2.9,2.9,0,0,1-.783,1.958c-2.719,2.882-7.092,5.963-12.317,9.1a17.832,17.832,0,0,1-8.866,2.643l-.639.052-.74.058a2.886,2.886,0,0,0-.588.376,2.561,2.561,0,0,1-1.063.553l-.78.059c-.848.064-1.91.145-2.483.187a33.032,33.032,0,0,1-64.079,1.8L143.95,126.063a33.022,33.022,0,0,1-65.293-3.39q-2.508-.552-5.019-1.154c-17.306-4.15-24.054-7.5-28.018-9.462-.349-.173-.673-.334-.982-.484a15.72,15.72,0,0,1-6.1-5.888,18.259,18.259,0,0,1-2.958-8.994v-3.5l4.4-1.222A80.424,80.424,0,0,1,38.332,75.8l.127-9.51h.024l.25-7.98.936-3.517c1.815-6.819,5.478-20.59,6.2-23.233C46.839,28,48.255,23.5,48.255,23.5l.152-.1s6.608-4.244,17.475-5.229l.563-5.655h3.642a4.306,4.306,0,0,1,2.294.719,12.122,12.122,0,0,1,3.664,4.41l.059.126,3.368-.116c49.966-1.295,122.864-1.887,147.633-.247,7.983.53,12.134,1.258,14.773,2.158a16.1,16.1,0,0,1,4.2,2.182c.332.223.666.447,1.022.671A425.046,425.046,0,0,1,294.466,56.6c.931-.025,5.019-.131,7.255-.131a16.429,16.429,0,0,0,3.43-.5,14.44,14.44,0,0,1,4.178-.494c.588.048,2.216.08,4.73.129,7.595.149,23.028.451,40.86,1.853,16.911,1.323,27.822,5,32.725,7.02a5.4,5.4,0,0,1,2.391,1.927,5.457,5.457,0,0,1,.963,2.95l.536,21.262a2.943,2.943,0,0,1-.481,1.7c-.392.6-.964,1.482-1.276,1.99a2.464,2.464,0,0,1-.815.836,2.278,2.278,0,0,1-.449.213v3.007s4.663,1.756,4.7,1.773a1.729,1.729,0,0,1,.978,1.585Z" style="fill:none;stroke:#aebbc7;stroke-miterlimit:3;stroke-width:0.5000000000025px"/><path d="M393.945,101.705l-.152,10.093a2.649,2.649,0,0,1-.715,1.791c-2.694,2.855-7.042,5.922-12.264,9.057a17.6,17.6,0,0,1-8.756,2.608l-.64.052-.758.06a2.342,2.342,0,0,0-.7.42,2.38,2.38,0,0,1-.935.507l-.78.059c-.968.073-2.189.166-2.669.2a32.783,32.783,0,0,1-63.683,1.785L143.744,125.81a32.772,32.772,0,0,1-64.853-3.342q-2.6-.569-5.2-1.192c-17.286-4.145-24.016-7.483-27.965-9.443-.348-.173-.674-.334-.983-.485a15.475,15.475,0,0,1-5.995-5.8,18.015,18.015,0,0,1-2.92-8.862V93.384l4.445-1.234a80.107,80.107,0,0,1-1.7-16.351l.123-9.262h.02s.257-8.165.265-8.222l.921-3.461c1.814-6.82,5.478-20.589,6.2-23.232.968-3.553,2.355-7.959,2.355-7.959l.076-.049s6.633-4.264,17.568-5.208l.562-5.636h3.415a4.055,4.055,0,0,1,2.161.681,11.9,11.9,0,0,1,3.571,4.305l.129.275,3.53-.123c49.969-1.294,122.855-1.886,147.611-.247,7.979.53,12.1,1.257,14.708,2.146a15.849,15.849,0,0,1,4.139,2.153c.332.222.668.448,1.03.676a424.359,424.359,0,0,1,47.412,34.213c.7-.019,5.022-.134,7.343-.134a16.643,16.643,0,0,0,3.483-.509,14.185,14.185,0,0,1,4.105-.489c.6.049,2.238.081,4.746.13,7.593.149,23.02.451,40.845,1.852,16.882,1.321,27.768,5,32.649,7a5.144,5.144,0,0,1,2.28,1.837,5.211,5.211,0,0,1,.92,2.815l.535,21.263a2.69,2.69,0,0,1-.44,1.552c-.392.6-.966,1.484-1.282,2a2.191,2.191,0,0,1-.732.752,2.114,2.114,0,0,1-.567.244v3.362s4.825,1.817,4.845,1.826a1.479,1.479,0,0,1,.837,1.355Z" style="fill:none;stroke:#aebbc7;stroke-miterlimit:3;stroke-width:0.5000000000025px"/></g><path d="M393.7,101.7l-.152,10.093a2.4,2.4,0,0,1-.647,1.622c-2.669,2.829-6.993,5.882-12.211,9.015a17.362,17.362,0,0,1-8.647,2.573c-.607.048-.783.064-1.4.112-.4.032-1.239.895-1.631.927-1.166.088-3.588.272-3.636.272a32.528,32.528,0,0,1-63.285,1.774l-158.543-2.534h-.008a32.519,32.519,0,0,1-64.412-3.292q-2.685-.588-5.37-1.231c-18.8-4.507-25.086-8.055-28.9-9.909-5.146-2.51-8.774-9.782-8.774-14.433V93.574l4.491-1.246A79.4,79.4,0,0,1,38.832,75.8c.072-8.167.12-9.014.12-9.014h.016l.263-8.407c.808-3.029,6.226-23.415,7.121-26.692.967-3.548,2.325-7.864,2.325-7.864s6.657-4.283,17.662-5.186L66.9,13.02h3.189c3.18,0,5.506,4.843,5.506,4.843l.2.423,3.692-.128c49.971-1.294,122.845-1.886,147.587-.247,15.392,1.023,16.335,2.773,19.763,4.938A423.358,423.358,0,0,1,294.289,57.1s4.907-.136,7.432-.136,5.114-1.2,7.568-1,21.905.12,45.591,1.982c16.855,1.319,27.715,4.987,32.574,6.985A4.925,4.925,0,0,1,390.5,69.36l.535,21.265a2.442,2.442,0,0,1-.4,1.407c-.391.6-.967,1.486-1.286,2.006a1.852,1.852,0,0,1-1.335.919V98.7L393,100.575A1.228,1.228,0,0,1,393.7,101.7Z" style="fill:none;stroke:#aebbc7;stroke-miterlimit:3;stroke-width:0.5000000000025px"/><g id="a8c78124-6c45-4b87-9898-168e0be7da59" data-name="Offset Group"><path d="M135.052,143.97a28.76,28.76,0,0,0,20.025-17.918" style="fill:none;stroke:#aebbc7;stroke-miterlimit:3;stroke-width:0.5000000000025px"/><path d="M134.992,143.728a28.511,28.511,0,0,0,19.85-17.763" style="fill:none;stroke:#aebbc7;stroke-miterlimit:3;stroke-width:0.5000000000025px"/><path d="M134.932,143.485a28.257,28.257,0,0,0,19.676-17.606" style="fill:none;stroke:#aebbc7;stroke-miterlimit:3;stroke-width:0.5000000000025px"/><path d="M134.872,143.242a28.009,28.009,0,0,0,19.5-17.45" style="fill:none;stroke:#aebbc7;stroke-miterlimit:3;stroke-width:0.5000000000025px"/></g><path d="M134.813,143a27.759,27.759,0,0,0,19.326-17.293" style="fill:none;stroke:#aebbc7;stroke-miterlimit:3;stroke-width:0.5000000000025px"/><g id="ef4e1fd6-2610-4418-af7c-e26e2dd5d5df" data-name="Offset Group"><path d="M290.959,128.354a28.748,28.748,0,0,0,19.834,15.8" style="fill:none;stroke:#aebbc7;stroke-miterlimit:3;stroke-width:0.5000000000025px"/><path d="M291.185,128.247a28.5,28.5,0,0,0,19.661,15.659" style="fill:none;stroke:#aebbc7;stroke-miterlimit:3;stroke-width:0.5000000000025px"/><path d="M291.411,128.14A28.247,28.247,0,0,0,310.9,143.662" style="fill:none;stroke:#aebbc7;stroke-miterlimit:3;stroke-width:0.5000000000025px"/><path d="M291.637,128.034a28,28,0,0,0,19.316,15.383" style="fill:none;stroke:#aebbc7;stroke-miterlimit:3;stroke-width:0.5000000000025px"/></g><path d="M291.863,127.927a27.751,27.751,0,0,0,19.143,15.246" style="fill:none;stroke:#aebbc7;stroke-miterlimit:3;stroke-width:0.5000000000025px"/></g><path d="M-5.173,88.438C22.76,94.3,38.492,84.962,47.949,84.115h.012a25.633,25.633,0,0,1,2.863-.121,43.983,43.983,0,0,1,6.534.66C63.712,85.7,70.391,87.7,76.6,88.5a38.94,38.94,0,0,0,4.844.363H81.7a24.533,24.533,0,0,0,3.322-.22c7.621-.968,12.622-4.862,20.75-4.96a34.053,34.053,0,0,1,7.139.747c5.193,1.023,16.323,4.521,24.313,3.535,8.208-1.087,14.437-5.184,23.662-4.1a39.18,39.18,0,0,1,6.328,1.356c8.858,2.6,17.828,7.614,26.8,8.108a26.868,26.868,0,0,0,10.736-1.667c5.17-1.822,9.832-4.52,16.923-5.029.466-.028.932-.056,1.4-.07,11.2-.452,25.145,3.108,36.644,2.189,5.227-1.017,4.082-4.223,1.723-5.071,8.928-3.517,12.968,1.568,27.518.848,5.693-.113,10.03-2.176,12.233-4.224,2.02-1.879,2.232-3.758-.014-4.069a3.759,3.759,0,0,0-.72-.056,9.594,9.594,0,0,1,.706-.791c5.2-5.467,12.784-3.631,21.02-3.306,28.611,3.306,23.056-4.139,18.731-4.266,5.029-5.443,13.618,1.695,21.345,1.936a44.93,44.93,0,0,0,5.975-.241,38.7,38.7,0,0,0,7.629-1.568,18.964,18.964,0,0,0,4.026-1.737,6.307,6.307,0,0,0,3.15-3.32c.508-1.624-.255-3.5-2.825-5.551,15.538-4.789,33.535,20.355,55.7,22.828" style="fill:none;stroke:#aebbc7;stroke-linecap:round;stroke-linejoin:round;stroke-width:1.5px"/></g></svg>
