<svg xmlns="http://www.w3.org/2000/svg" xmlns:xlink="http://www.w3.org/1999/xlink" width="218" height="218" viewBox="0 0 218 218"><defs><linearGradient id="ac86d8d6-f25d-4b0e-9bb2-61556ac92281" x1="211.702" y1="116.775" x2="197.058" y2="119.009" gradientUnits="userSpaceOnUse"><stop offset="0" stop-color="#141b21" stop-opacity="0"/><stop offset="1" stop-color="#141b21"/></linearGradient></defs><g id="bf314f06-8312-4b67-93cf-a524c7a3f660" data-name="illustration"><path d="M92.8,84.853c21.417,6.209,35.777,10.579,40.683,12.76s5.946,5.7,1.288,7.978-21.258,8.275-24.974,9.563-6.888,1.388-11.2,1.388-13.726.149-18.186.2-6.888-.049-14.37-2.23c-6.372-1.857-12.637-4.181-14.355-4.829a2.238,2.238,0,0,0-.955-.14l-.324.023a1.169,1.169,0,0,1-.952-.385l-.218-.241a1.941,1.941,0,0,0-.7-.493l-10.526-4.386a2.111,2.111,0,0,0-.768-.161l-1.282-.025a2.154,2.154,0,0,1-1.454-.605l-.655-.634a2.087,2.087,0,0,0-.619-.414,73,73,0,0,1-12.068-6.713,2.391,2.391,0,0,1-.668-2.75c.892-2.775,1.635-5.2,2.032-6.095s1.288-2.181,3.766-3.37,11.5-4.262,17.541-6.145a31.789,31.789,0,0,1,17.046-.842C66.78,77.544,75.925,79.963,92.8,84.853Z" style="fill:none;stroke:#687581;stroke-linecap:round;stroke-linejoin:round;stroke-width:0.5px"/><path d="M133.427,97.727c4.648,1.526,6.677,5.745,1.2,8.207-7.629,3.4-15.525,6.142-23.359,9.012a26.8,26.8,0,0,1-8.986,1.843c-5.234.144-12.88.14-18.194.241a77.717,77.717,0,0,1-9.145-.142C67,115.706,59.5,112.81,51.975,110.134a3.123,3.123,0,0,0-.964-.276,3.109,3.109,0,0,1-1.266-.09c-.588-.239-.768-.839-1.332-1.034-.364-.145-1.207-.51-1.573-.658-1.365-.569-4.889-2.049-6.29-2.634-.222-.108-2.395-.991-2.621-1.1-.88-.361-1.821.026-2.784-.337-.812-.282-1.178-1.01-1.836-1.429a86.287,86.287,0,0,1-9.061-4.739c-1.291-.887-2.819-1.489-3.8-2.761-.934-1.576.149-3.149.546-4.679l.739-2.171.371-1.085c.543-1.945,2.473-3.213,4.246-3.739-1.563,1.094-3.071,2.207-3.558,4.033l-.358,1.068-.719,2.135c-.3,1.243-1.317,2.818-.61,4.025.829,1.017,2.412,1.732,3.55,2.5a81.631,81.631,0,0,0,8,4.21,5.206,5.206,0,0,1,1.6.9c.654.676,1.137,1.171,2.167,1.066a4.684,4.684,0,0,1,1.833.23c.272.125,2.292.942,2.624,1.088,1.427.594,4.928,2.043,6.3,2.613a12.9,12.9,0,0,1,2.167,1c.3.209.467.557.744.684.294.109.626-.023.983.019a10.826,10.826,0,0,1,2.281.719c7.081,2.47,14.272,5.147,21.7,6.251a77.321,77.321,0,0,0,9.023.165c5.276-.091,12.965-.059,18.169-.18a25.855,25.855,0,0,0,8.744-1.767c7.125-2.548,14.256-5.109,21.252-7.99,5.7-2.048,7.291-5.062,1.19-8.443Z" style="fill:#687581"/><path d="M22.906,95.475a3.165,3.165,0,0,1,.158-.879c.856-2.662,1.569-4.991,1.949-5.847s1.236-2.092,3.613-3.232,9.606-3.64,15.4-5.447a30.5,30.5,0,0,1,16.352-.808C66.04,80.45,74.812,82.771,91,87.462c20.545,5.956,34.32,10.149,39.026,12.24,4.184,1.86,5.437,4.734,2.523,6.886" style="fill:none;stroke:#687581;stroke-linecap:round;stroke-linejoin:round;stroke-width:0.5px"/><path d="M50.727,109.541s-4.445,1.434-6.394,1.864a7.825,7.825,0,0,1-4.989-.132c-1.916-.661-7.994-3.4-9.481-4.1s-1.551-.923-.528-1.85a23.583,23.583,0,0,1,4.28-2.888" style="fill:none;stroke:#687581;stroke-linecap:round;stroke-linejoin:round;stroke-width:0.5px"/><path d="M42.011,107.276c0,.125-.14.235-.357.307l-3.717,1.227a1.942,1.942,0,0,1-.578.084c-.515,0-.933-.176-.933-.391,0-.125.14-.235.355-.307l3.719-1.227a1.829,1.829,0,0,1,.579-.084C41.594,106.885,42.011,107.058,42.011,107.276Z" style="fill:none;stroke:#687581;stroke-linecap:round;stroke-linejoin:round;stroke-width:0.5px"/><g id="a1e0af6f-d927-4362-8fea-d2d4d0a4c2da" data-name="Offset Group"><path d="M172.58,85.55c1.437,1.071,2.478,1.881,2.958,2.256l.145.112a3.406,3.406,0,0,0,1.841.878" style="fill:none;stroke:#687581;stroke-linecap:round;stroke-linejoin:round;stroke-width:0.5px"/><path d="M172.729,85.35c1.44,1.072,2.482,1.884,2.963,2.258l.144.113a3.208,3.208,0,0,0,1.688.825" style="fill:none;stroke:#687581;stroke-linecap:round;stroke-linejoin:round;stroke-width:0.5px"/></g><path d="M172.878,85.149c1.609,1.2,2.722,2.072,3.111,2.374a3,3,0,0,0,1.534.773" style="fill:none;stroke:#687581;stroke-linecap:round;stroke-linejoin:round;stroke-width:0.5px"/><g id="b6d43ab3-a146-451f-a445-b52b961e0882" data-name="Offset Group"><path d="M167.989,82.251c.486.336.957.667,1.411.989" style="fill:none;stroke:#687581;stroke-linecap:round;stroke-linejoin:round;stroke-width:0.5px"/><path d="M168.131,82.045q.73.505,1.413.991" style="fill:none;stroke:#687581;stroke-linecap:round;stroke-linejoin:round;stroke-width:0.5px"/></g><path d="M168.273,81.84q.732.506,1.416.992" style="fill:none;stroke:#687581;stroke-linecap:round;stroke-linejoin:round;stroke-width:0.5px"/><g id="ebb8cb63-4f4a-4184-9539-03d3e4e088af" data-name="Offset Group"><path d="M153.892,73.917q.447.206.876.411a92.058,92.058,0,0,1,10.583,6.137" style="fill:none;stroke:#687581;stroke-linecap:round;stroke-linejoin:round;stroke-width:0.5px"/><path d="M154,73.69q.447.206.879.412a92.174,92.174,0,0,1,10.613,6.155" style="fill:none;stroke:#687581;stroke-linecap:round;stroke-linejoin:round;stroke-width:0.5px"/></g><path d="M154.1,73.463q.448.207.882.414a92.591,92.591,0,0,1,10.643,6.171" style="fill:none;stroke:#687581;stroke-linecap:round;stroke-linejoin:round;stroke-width:0.5px"/><g id="bb993f83-a0d7-4924-b02b-2581e80899fd" data-name="Offset Group"><path d="M69.8,61.624c1.554.382,5.182,1.262,5.182,1.262L75.1,62.4a5.507,5.507,0,0,1,1.866-3.14c1.677-1.363,4.294-1.781,7.622-1.878,5.033-.146,15.082,1.374,30.552,4.746,13.1,2.855,25.824,6.454,35.043,10.189" style="fill:none;stroke:#687581;stroke-linecap:round;stroke-linejoin:round;stroke-width:0.5px"/><path d="M69.857,61.382c1.553.381,4.937,1.2,4.937,1.2l.059-.244a5.756,5.756,0,0,1,1.952-3.276c1.748-1.422,4.445-1.837,7.772-1.934,5.068-.147,15.147,1.381,30.612,4.752,13.106,2.856,25.846,6.459,35.083,10.2" style="fill:none;stroke:#687581;stroke-linecap:round;stroke-linejoin:round;stroke-width:0.5px"/></g><path d="M69.917,61.139c1.552.382,4.692,1.143,4.692,1.143,1.041-4.361,4.857-5.253,9.961-5.4s15.212,1.388,30.673,4.757c13.112,2.858,25.868,6.465,35.123,10.215" style="fill:none;stroke:#687581;stroke-linecap:round;stroke-linejoin:round;stroke-width:0.5px"/><path d="M14.082,6.744c.981-.436,1.24,1.868.526,2.618A61.755,61.755,0,0,1,31.91,7.1c17-.273,33.366,2.246,52.759,6.722,4.77-1.506,10.9-1.04,12.735,3.518,2.527.5,5.3,2.28,7.928,3.568,2.561,1.257,13.6,7.084,21.227,11.738a1.114,1.114,0,0,0,1.136.013c1.59-.92,3.675-1.531,8.457,2.761" style="fill:none;stroke:#687581;stroke-linecap:round;stroke-linejoin:round;stroke-width:0.5px"/><path d="M46.578,70.291C33.884,73.87,17.5,78.981,9.833,84.335a5.821,5.821,0,0,0-2.389,3.049l-1.333.8" style="fill:none;stroke:#687581;stroke-linecap:round;stroke-linejoin:round;stroke-width:0.5px"/><path d="M55.3,67.891c-1.425.386-3,.814-4.656,1.269" style="fill:none;stroke:#687581;stroke-linecap:round;stroke-linejoin:round;stroke-width:0.5px"/><path d="M63.853,65.545c-1.436.4-3.151.874-5.21,1.436" style="fill:none;stroke:#687581;stroke-linecap:round;stroke-linejoin:round;stroke-width:0.5px"/><path d="M73.7,62.075l-1.252.635c-1.058.536-1.676.85-5.767,2.033" style="fill:none;stroke:#687581;stroke-linecap:round;stroke-linejoin:round;stroke-width:0.5px"/><path d="M66.683,66.036a41.686,41.686,0,0,0,5.771-2.058l1.248-.644c3.163-1.826,3.836-2.611,7.167-6.137" style="fill:none;stroke:#687581;stroke-linecap:round;stroke-linejoin:round;stroke-width:0.5px"/><path d="M58.2,68.52c2.045-.589,3.943-1.135,5.655-1.638" style="fill:none;stroke:#687581;stroke-linecap:round;stroke-linejoin:round;stroke-width:0.5px"/><path d="M50.151,70.867c1.613-.48,3.18-.938,4.687-1.376" style="fill:none;stroke:#687581;stroke-linecap:round;stroke-linejoin:round;stroke-width:0.5px"/><path d="M7.444,87.384c11.2-6.332,25.925-11.406,38.61-15.283" style="fill:none;stroke:#687581;stroke-linecap:round;stroke-linejoin:round;stroke-width:0.5px"/><g id="a731c21a-61ac-40d3-8178-ed1f4960c036" data-name="Offset Group"><path d="M122.837,200.611a8.549,8.549,0,0,0,3.115-1.8,11.185,11.185,0,0,0,2.669-3.834c1.287-2.906,3.043-7.982,5.054-13.792,2.307-6.666,4.958-14.325,7.649-20.895,5.029-12.277,8.633-16.089,13.7-19.6,9.373-6.5,17.2-11.227,22.992-12.864,2.722-.769,4.447-.983,5.626-.327.795.442,1.441,1.343,1.934,3.057a55.571,55.571,0,0,1,1.37,17.756,34.805,34.805,0,0,1-2.606,10.134" style="fill:none;stroke:#687581;stroke-linecap:round;stroke-linejoin:round;stroke-width:0.5px"/><path d="M122.759,200.374a8.3,8.3,0,0,0,3.025-1.751,10.916,10.916,0,0,0,2.608-3.749c1.282-2.894,3.034-7.958,5.047-13.773,2.306-6.664,4.959-14.33,7.654-20.908,5.041-12.307,8.671-16.165,13.786-19.71,9.369-6.494,17.229-11.249,23.066-12.9,2.706-.765,4.533-1.019,5.815-.306a4.921,4.921,0,0,1,2.053,3.207,55.783,55.783,0,0,1,1.379,17.847,35.09,35.09,0,0,1-2.628,10.216" style="fill:none;stroke:#687581;stroke-linecap:round;stroke-linejoin:round;stroke-width:0.5px"/></g><path d="M122.682,200.136a9.1,9.1,0,0,0,5.482-5.363c2.737-6.182,7.643-22.336,12.7-34.674s8.71-16.241,13.875-19.821c9.366-6.492,17.258-11.271,23.141-12.934,4.559-1.288,6.938-1.238,8.176,3.073a56.024,56.024,0,0,1,1.388,17.938,35.379,35.379,0,0,1-2.649,10.3" style="fill:none;stroke:#687581;stroke-linecap:round;stroke-linejoin:round;stroke-width:0.5px"/><path d="M111.031,172.524l2.378-.384s12.289-1.982,15.51-2.725,4.378-4.785,6.029-8.623c6.937-16.121,11.455-21.17,19.491-26.428,10.7-7,16.794-9.813,22.6-12.091,8.919-3.5,14.066.185,13.235,22.635-.193,5.208-.645,9.7-2.706,11.42" style="fill:none;stroke:#687581;stroke-linecap:round;stroke-linejoin:round;stroke-width:0.5px"/><path d="M6.85,124.359c3.754,4.455,7.9,9.775,24.236,18.594,23.983,12.95,43.936,18.963,48.231,20.086s2.841,2.048,5.418,2.378,15.2,1.85,18.962,2.313c2.856.351,5.6,2.45,6.757,3.443a1.657,1.657,0,0,1,.577,1.256v7.458c0,2.048,0,4.294-4.493,5.417s-10.373,2.181-14.271,2.908a34,34,0,0,1-15.593-1.19c-6.144-1.85-16.208-6.088-19.013-7.3-3.451-1.489-4.223-4.107-8.538-6.246a187.985,187.985,0,0,1-31.912-19.821c-2.114-1.652-2.577-.595-4.559-2.181A51.805,51.805,0,0,1,6.9,145.969c-2.006-2.409-2.1-3.27-2.427-4.751" style="fill:none;stroke:#687581;stroke-linecap:round;stroke-linejoin:round;stroke-width:0.5px"/><path d="M83.26,140.357a.939.939,0,0,1-.425-.786v-4.249a14.486,14.486,0,0,0-.586-4.013,1.753,1.753,0,0,1,.588-1.909l.345-.272a10.643,10.643,0,0,0-5.55-4.063c-2.788-.746-4.311-.1-6.541,1.338a6.622,6.622,0,0,0-2.824,5.946V148.9c0,10.406,14.568,12.388,14.568,3.171v-8.1a1.652,1.652,0,0,1,.163-.715l1.126-2.337Z" style="fill:none;stroke:#687581;stroke-linecap:round;stroke-linejoin:round;stroke-width:0.5px"/><path d="M2.312,98.158c0-5.293,3.469-1.333,3.469,4.611v14.665c0,5.293-3.469,1.333-3.469-4.611" style="fill:none;stroke:#687581;stroke-linecap:round;stroke-linejoin:round;stroke-width:0.5px"/><path d="M7.315,108.364c1.361,1.395,7.83,7.534,22.449,14.438,16.65,7.862,38.5,14.469,38.5,14.469" style="fill:none;stroke:#687581;stroke-linecap:round;stroke-linejoin:round;stroke-width:0.5px"/><path d="M84.124,140.922l1.47.38s25.173.461,28.079.4a36.537,36.537,0,0,0,9.746-1.817c2.874-.842,4.063-1.635,5.6-4.311a44.409,44.409,0,0,0,2.527-5.2c.821-1.777.526-3.75-2.428-3.023-4.6,1.132-6.93,1.813-9.167,2.329a22.087,22.087,0,0,1-5.9.5s-28.393-.644-30.871-1.041" style="fill:none;stroke:#687581;stroke-linecap:round;stroke-linejoin:round;stroke-width:0.5px"/><path d="M71.091,126.4s-24.528-7.037-38.106-12.884a140.555,140.555,0,0,1-25.5-14.857" style="fill:none;stroke:#687581;stroke-linecap:round;stroke-linejoin:round;stroke-width:0.5px"/><path d="M181.121,82.828c12.24-26.265,16.6-36.552,19.854-44.566" style="fill:none;stroke:#687581;stroke-linecap:round;stroke-linejoin:round;stroke-width:0.5px"/><path d="M181.121,82.828c.224,8.526-.571,7.841-3.822,9.516-2.18,1.123-42.417,19.622-57.944,31.234a14.273,14.273,0,0,0-5.3,6.591" style="fill:none;stroke:#687581;stroke-linecap:round;stroke-linejoin:round;stroke-width:0.5px"/><path d="M175.094,82.28c1.456.188,3.472.435,4.848.55a34.639,34.639,0,0,0,11.292-2l6.944-2.778" style="fill:none;stroke:#687581;stroke-linecap:round;stroke-linejoin:round;stroke-width:0.5px"/><path d="M144.51,102.331l-8.208,3.557L140.665,107c2.891.721,6.139.337,10.527-1.885" style="fill:none;stroke:#687581;stroke-linecap:round;stroke-linejoin:round;stroke-width:0.5px"/><polyline points="162.688 95.34 161.227 95.086 148.922 100.419" style="fill:none;stroke:#687581;stroke-linecap:round;stroke-linejoin:round;stroke-width:0.5px"/><polyline points="168.563 93.799 166.728 93.649 165.609 94.286" style="fill:none;stroke:#687581;stroke-linecap:round;stroke-linejoin:round;stroke-width:0.5px"/><line x1="173.419" y1="94.198" x2="171.693" y2="94.056" style="fill:none;stroke:#687581;stroke-linecap:round;stroke-linejoin:round;stroke-width:0.5px"/><path d="M43.514,77.249l-2.6-1.389c-1.374-.695-1.912-1.582,1.281-2.562" style="fill:none;stroke:#687581;stroke-linecap:round;stroke-linejoin:round;stroke-width:0.5px"/><path d="M151.551,86.738c4.329.891,7.307,1.48,8.285,1.672a1.138,1.138,0,0,1,.576.3l1.295,1.261a1.142,1.142,0,0,1,.346.819l-.181,4.4" style="fill:none;stroke:#687581;stroke-linecap:round;stroke-linejoin:round;stroke-width:0.5px"/><path d="M42.343,76.623,53.8,73.084l3.122-.148L65.7,70.1a6.056,6.056,0,0,0,3.857-3.759l1.128-.286s12.286,4.564,37.36,10.857c14.409,3.617,29.422,6.884,39.618,9.015" style="fill:none;stroke:#687581;stroke-linecap:round;stroke-linejoin:round;stroke-width:0.5px"/><path d="M172.12,86.911q1.659.109,3.309.176" style="fill:none;stroke:#687581;stroke-linecap:round;stroke-linejoin:round;stroke-width:0.5px"/><path d="M167.107,86.487q1,.1,2,.191" style="fill:none;stroke:#687581;stroke-linecap:round;stroke-linejoin:round;stroke-width:0.5px"/><path d="M152.024,84.274c4.36.8,8.458,1.441,12.422,1.917" style="fill:none;stroke:#687581;stroke-linecap:round;stroke-linejoin:round;stroke-width:0.5px"/><path d="M77.692,63.33c5.22,4.543,11.746,6.661,37.674,12.818,12.923,3.069,23.471,5.553,32.756,7.382" style="fill:none;stroke:#687581;stroke-linecap:round;stroke-linejoin:round;stroke-width:0.5px"/><path d="M72.716,66.775a22.66,22.66,0,0,0,4.976-3.445,84.514,84.514,0,0,0,5.587-6.392" style="fill:none;stroke:#687581;stroke-linecap:round;stroke-linejoin:round;stroke-width:0.5px"/><polyline points="155.959 63.798 147.7 106.78 143.549 107.331 152.053 63.074" style="fill:none;stroke:#687581;stroke-linecap:round;stroke-linejoin:round;stroke-width:0.5px"/><polyline points="168.429 79.608 164.833 98.324 161.824 99.837 166.252 76.796" style="fill:none;stroke:#687581;stroke-linecap:round;stroke-linejoin:round;stroke-width:0.5px"/><g id="ae3334a0-0c57-4242-afd5-d0d34da91e93" data-name="Offset Group"><path d="M170.931,10.052s-22.8,2.676-34.5,4.263C124.711,15.9,119.82,17.9,115.85,21.736" style="fill:none;stroke:#687581;stroke-linecap:round;stroke-linejoin:round;stroke-width:0.5px"/><path d="M170.96,10.3s-22.8,2.676-34.493,4.262-16.532,3.579-20.443,7.354" style="fill:none;stroke:#687581;stroke-linecap:round;stroke-linejoin:round;stroke-width:0.5px"/></g><path d="M170.989,10.549S148.2,13.225,136.5,14.81s-16.452,3.568-20.3,7.285" style="fill:none;stroke:#687581;stroke-linecap:round;stroke-linejoin:round;stroke-width:0.5px"/><path d="M173.635,80.181c4.457.732,7.364-2.7,9.809-8.451s4.36-10.307,4.36-10.307L195.5,43" style="fill:none;stroke:#687581;stroke-linecap:round;stroke-linejoin:round;stroke-width:0.5px"/><path d="M161.365,63.363s13.364,1.49,23.37,5.325" style="fill:none;stroke:#687581;stroke-linecap:round;stroke-linejoin:round;stroke-width:0.5px"/><path d="M164.882,63.843s-.929-11.274,11.36-8.9c6.6,1.277,9.71,4.676,11.171,7.4" style="fill:none;stroke:#687581;stroke-linecap:round;stroke-linejoin:round;stroke-width:0.5px"/><g id="b5fd25ba-e328-4a0b-98df-47bb30f1c8df" data-name="Offset Group"><path d="M183.9,159.844c.106-8.527-1.152-13.876-3.5-17.516-2.14-3.325-5.145-5.16-8.653-6.7-1.277-.561-3.108-1.166-5.092-1.823l-.869-.287" style="fill:none;stroke:#687581;stroke-linecap:round;stroke-linejoin:round;stroke-width:0.5px"/><path d="M183.65,159.841c.106-8.507-1.151-13.8-3.455-17.378-2.1-3.265-5.054-5.074-8.543-6.61-1.264-.556-3.081-1.156-5.07-1.814l-.869-.288" style="fill:none;stroke:#687581;stroke-linecap:round;stroke-linejoin:round;stroke-width:0.5px"/></g><path d="M183.4,159.838c.2-16.214-4.564-20.551-11.849-23.756-1.43-.629-3.583-1.319-5.917-2.094" style="fill:none;stroke:#687581;stroke-linecap:round;stroke-linejoin:round;stroke-width:0.5px"/><g id="be63270f-cb25-44bb-a07f-b6d253c2923e" data-name="Offset Group"><path d="M46.834,68.46c-13,3.642-29.9,8.847-37.97,14.488a7.976,7.976,0,0,0-2.628,2.926,5.764,5.764,0,0,0-.617,2.135c-2.1,2.922-3.84,6.6-3.84,9.818V111.7c0,2.608.564,8.238,4.341,12.592a10.623,10.623,0,0,0-3.142,4.2,9.175,9.175,0,0,0-.506,5.045,89.684,89.684,0,0,0,2.414,11.146l.043.131a13.349,13.349,0,0,0,1.777,3.871c1.208,1.767,3.311,3.947,7.433,7.308A171,171,0,0,0,34.2,170.415C41.31,174.8,58.7,184.656,69,188.641c8.962,3.47,20.6,6.319,30.878,8.838,1.527.374,3.024.74,4.48,1.1,11.475,2.844,12.52,2.783,15.749,2.517.139-.012.282-.024.43-.035a10.035,10.035,0,0,0,2.3-.451l-.3-.952-.428.133.069.419a4.951,4.951,0,0,0,.832,1.789,14.084,14.084,0,0,0,4.893,4.091c1.723.962,3.234,1.833,4.643,2.646,2.741,1.581,5.1,2.942,7.867,4.3a16.971,16.971,0,0,0,7.981,2.082,18.037,18.037,0,0,0,8.268-2.421c3.829-2.058,10.676-8.532,16.509-17.459,5.141-7.867,9.535-17.7,10.379-28.2.2-2.536.319-4.852.351-6.972l1.219-1.038s3.952-3.366,6.2-5.076c.6-.46,3.144-2.4,6.063-4.636l4.444-3.4" style="fill:none;stroke:#687581;stroke-linecap:round;stroke-linejoin:round;stroke-width:0.5px"/><path d="M46.9,68.7c-13.016,3.646-29.864,8.841-37.9,14.452A7.72,7.72,0,0,0,6.46,85.987a5.351,5.351,0,0,0-.6,2.111c-2.106,2.913-3.834,6.569-3.834,9.729V111.7c0,2.626.579,8.311,4.452,12.623a10.426,10.426,0,0,0-3.271,4.26,8.927,8.927,0,0,0-.492,4.909,89.488,89.488,0,0,0,2.406,11.112l.042.131a13.142,13.142,0,0,0,1.746,3.807c1.187,1.737,3.268,3.9,7.385,7.255a170.64,170.64,0,0,0,20.031,14.4c7.112,4.382,24.487,14.23,34.76,18.206,8.944,3.463,20.562,6.308,30.847,8.828,1.527.374,3.025.741,4.481,1.1,11.474,2.844,12.484,2.774,15.669,2.511l.43-.036a9.712,9.712,0,0,0,2.244-.438l-.152-.477-.218.068.033.211a4.577,4.577,0,0,0,.79,1.683,13.844,13.844,0,0,0,4.809,4.013c1.725.964,3.237,1.836,4.646,2.648,2.742,1.581,5.095,2.939,7.853,4.3a16.723,16.723,0,0,0,7.865,2.056,17.791,17.791,0,0,0,8.154-2.391c3.778-2.031,10.6-8.466,16.419-17.375,5.126-7.845,9.5-17.638,10.338-28.083.207-2.577.323-4.925.353-7.068l1.305-1.112s3.956-3.37,6.206-5.085c.6-.459,3.144-2.4,6.063-4.636l4.444-3.4" style="fill:none;stroke:#687581;stroke-linecap:round;stroke-linejoin:round;stroke-width:0.5px"/></g><path d="M46.969,68.941C33.94,72.591,17.139,77.776,9.15,83.358c-3.11,2.173-3.039,4.823-3.039,4.823C4,91.088,2.279,94.722,2.279,97.827V111.7c0,2.645.6,8.391,4.571,12.657a9.272,9.272,0,0,0-3.885,9.093,89.29,89.29,0,0,0,2.4,11.077c.909,2.81,1.488,4.877,9.093,11.077A170.427,170.427,0,0,0,34.46,169.989c7.109,4.381,24.468,14.218,34.718,18.186s24.028,7.127,35.3,9.92c11.981,2.969,12.513,2.75,16.019,2.468a9.452,9.452,0,0,0,2.187-.427l-.013,0s.386,2.673,5.474,5.514,8.325,4.889,12.487,6.937,8.787,3.436,15.791-.33S181.263,189.2,183.047,167c.211-2.618.326-5,.353-7.165h0l1.392-1.186s3.96-3.372,6.216-5.093c.6-.459,3.144-2.4,6.063-4.635l4.444-3.4" style="fill:none;stroke:#687581;stroke-linecap:round;stroke-linejoin:round;stroke-width:0.5px"/><g id="b4328a99-6315-4e10-a0c0-1782dbeb0a8c" data-name="Offset Group"><path d="M55.559,66.067l-.637.173c-1.138.309-2.351.638-3.624.986" style="fill:none;stroke:#687581;stroke-linecap:round;stroke-linejoin:round;stroke-width:0.5px"/><path d="M55.624,66.309l-.637.172c-1.138.309-2.351.638-3.623.986" style="fill:none;stroke:#687581;stroke-linecap:round;stroke-linejoin:round;stroke-width:0.5px"/></g><path d="M55.69,66.55c-1.319.358-2.748.745-4.26,1.158" style="fill:none;stroke:#687581;stroke-linecap:round;stroke-linejoin:round;stroke-width:0.5px"/><g id="f56d55af-cb95-4148-a415-8b7a4ea86a85" data-name="Offset Group"><path d="M63.718,63.827c-1.234.345-2.687.747-4.406,1.217" style="fill:none;stroke:#687581;stroke-linecap:round;stroke-linejoin:round;stroke-width:0.5px"/><path d="M63.785,64.067c-1.234.346-2.688.748-4.407,1.219" style="fill:none;stroke:#687581;stroke-linecap:round;stroke-linejoin:round;stroke-width:0.5px"/></g><path d="M63.853,64.308c-1.236.346-2.689.748-4.409,1.219" style="fill:none;stroke:#687581;stroke-linecap:round;stroke-linejoin:round;stroke-width:0.5px"/><g id="bb6d79d5-56e2-40ba-8c36-2f6a666c0d85" data-name="Offset Group"><path d="M67.737,61.056c.079.024.161.048.244.071.819.234,1.65.457,2.434.659-.639.249-1.561.555-3.189,1.037" style="fill:none;stroke:#687581;stroke-linecap:round;stroke-linejoin:round;stroke-width:0.5px"/><path d="M67.807,60.817l.242.07c1.072.306,2.166.593,3.147.839a28.478,28.478,0,0,1-3.9,1.337" style="fill:none;stroke:#687581;stroke-linecap:round;stroke-linejoin:round;stroke-width:0.5px"/></g><path d="M67.878,60.577l.24.069c1.318.377,2.669.724,3.8,1A22.259,22.259,0,0,1,67.367,63.3" style="fill:none;stroke:#687581;stroke-linecap:round;stroke-linejoin:round;stroke-width:0.5px"/><g id="f5331fa6-c3ba-4c55-b301-b934800733e2" data-name="Offset Group"><path d="M61.626,57.072a25.8,25.8,0,0,0,3.219,2.708" style="fill:none;stroke:#687581;stroke-linecap:round;stroke-linejoin:round;stroke-width:0.5px"/><path d="M61.8,56.889a25.772,25.772,0,0,0,3.187,2.683" style="fill:none;stroke:#687581;stroke-linecap:round;stroke-linejoin:round;stroke-width:0.5px"/></g><path d="M61.967,56.706a25.419,25.419,0,0,0,3.154,2.657" style="fill:none;stroke:#687581;stroke-linecap:round;stroke-linejoin:round;stroke-width:0.5px"/><g id="a2bdafca-9f1a-4f50-a09d-9e0fb2ef1931" data-name="Offset Group"><path d="M55.834,51.555l.6.573c.834.8,1.519,1.462,2.028,1.944l.475.451" style="fill:none;stroke:#687581;stroke-linecap:round;stroke-linejoin:round;stroke-width:0.5px"/><path d="M56.007,51.374l.6.574c.833.8,1.518,1.461,2.026,1.943l.475.45" style="fill:none;stroke:#687581;stroke-linecap:round;stroke-linejoin:round;stroke-width:0.5px"/></g><path d="M56.181,51.194c1.108,1.066,2,1.924,2.621,2.515l.476.451" style="fill:none;stroke:#687581;stroke-linecap:round;stroke-linejoin:round;stroke-width:0.5px"/><g id="ad93c5ae-652f-4c65-9a61-6b5e0812597a" data-name="Offset Group"><path d="M177.524,88.8a.978.978,0,0,0,.409-.087.813.813,0,0,0,.282-.216,1.006,1.006,0,0,0,.211-.694,3.588,3.588,0,0,0-.573-1.559c-3.392-5.779-16.576-24.164-24.015-33.438-7.457-9.3-17.26-18.214-22.4-21.625l-1.405-.936c-5.351-3.568-13.319-8.882-21.014-12.464C96.589,11.988,74.259,4.431,45.256,2.584,33.5,1.835,25.4,2.8,19.945,4.179a28.78,28.78,0,0,0-8.229,3.277,13.306,13.306,0,0,0-1.121.78,2.295,2.295,0,0,0-.882,1.874,75.737,75.737,0,0,0,.592,8.205l.072.415h1.35l.111-.06a4.194,4.194,0,0,1,1.831-.733c.573,0,1.242.348,3.106,1.367l.014.008C27.794,25.329,43.66,39.946,52.649,48.5" style="fill:none;stroke:#687581;stroke-linecap:round;stroke-linejoin:round;stroke-width:0.5px"/><path d="M177.524,88.546a.732.732,0,0,0,.3-.063.577.577,0,0,0,.2-.15.754.754,0,0,0,.153-.525,3.363,3.363,0,0,0-.538-1.441c-3.384-5.764-16.559-24.139-24-33.409s-17.23-18.18-22.34-21.573l-1.405-.936c-5.353-3.57-13.3-8.872-20.981-12.446C96.509,12.226,74.21,4.678,45.241,2.833,33.5,2.086,25.43,3.046,20.006,4.421a28.52,28.52,0,0,0-8.157,3.247c-.46.289-.823.549-1.1.765a2.044,2.044,0,0,0-.785,1.67,75.4,75.4,0,0,0,.589,8.17l.036.207h1.076l.055-.03a4.386,4.386,0,0,1,1.951-.763c.653,0,1.394.4,3.225,1.4l.014.008c11.04,6.035,26.93,20.678,35.912,29.23" style="fill:none;stroke:#687581;stroke-linecap:round;stroke-linejoin:round;stroke-width:0.5px"/></g><path d="M177.523,88.3c.548,0,.561-.676-.1-1.8-3.374-5.749-16.541-24.112-23.974-33.379s-17.2-18.145-22.283-21.521c-5.3-3.523-14-9.472-22.353-13.363C96.429,12.465,74.16,4.925,45.225,3.083,22.085,1.609,13.269,6.785,10.9,8.631a1.791,1.791,0,0,0-.689,1.464A75.251,75.251,0,0,0,10.8,18.23h.8c2.139-1.159,2.181-1.132,5.429.644C28.1,24.928,44.018,39.6,52.994,48.142" style="fill:none;stroke:#687581;stroke-linecap:round;stroke-linejoin:round;stroke-width:0.5px"/><ellipse cx="162.19" cy="176.23" rx="28.3" ry="13.273" transform="translate(-61.039 263.012) rotate(-68.62)" style="fill:none;stroke:#687581;stroke-linecap:round;stroke-linejoin:round;stroke-width:0.5px"/><path d="M70.7,124.424s6.056-6.056,17.935-5.823" style="fill:none;stroke:#687581;stroke-linecap:round;stroke-linejoin:round;stroke-width:0.5px"/><path d="M113.673,141.7l-1.626,1.77a2.331,2.331,0,0,0-.613,1.507c-.061,2.058-.206,7.368-.206,11.592,0,5.357,1.63,9.317,8.5,8.5a99.273,99.273,0,0,0,14.792-3.26l1.473.054a5.863,5.863,0,0,0,3.12-.767l1.746-1" style="fill:none;stroke:#687581;stroke-linecap:round;stroke-linejoin:round;stroke-width:0.5px"/><polyline points="129.018 135.57 131.054 136.431 141.111 142.232 143.77 144.191" style="fill:none;stroke:#687581;stroke-linecap:round;stroke-linejoin:round;stroke-width:0.5px"/><line x1="54.356" y1="80.72" x2="55.613" y2="108.992" style="fill:none;stroke:#687581;stroke-linecap:round;stroke-linejoin:round;stroke-width:0.5px"/><line x1="25.874" y1="88.34" x2="27.613" y2="99.45" style="fill:none;stroke:#687581;stroke-linecap:round;stroke-linejoin:round;stroke-width:0.5px"/><path d="M111.031,172.524l-20.865-1.692s-3.926,1.772-10.06.268-5.567-3.393-5.567-3.393-20.581-6.973-38.187-17.338S12.236,132.4,12.236,132.4c-3.386,0-4.636-2.083-4.636-3.8V125.14" style="fill:none;stroke:#687581;stroke-linecap:round;stroke-linejoin:round;stroke-width:0.5px"/><line x1="12.236" y1="132.398" x2="12.236" y2="130.317" style="fill:none;stroke:#687581;stroke-linecap:round;stroke-linejoin:round;stroke-width:0.5px"/><line x1="74.539" y1="167.707" x2="74.539" y2="161.736" style="fill:none;stroke:#687581;stroke-linecap:round;stroke-linejoin:round;stroke-width:0.5px"/><line x1="90.393" y1="170.849" x2="90.393" y2="166.114" style="fill:none;stroke:#687581;stroke-linecap:round;stroke-linejoin:round;stroke-width:0.5px"/><path d="M68.329,133.023c0-5.191,3.3-6.052,6.346-5.281a8.738,8.738,0,0,1,6.716,8.414c0,4.111-.168,11.67-.294,15.745s-1.691,6.8-6.24,5.768" style="fill:none;stroke:#687581;stroke-linecap:round;stroke-linejoin:round;stroke-width:0.5px"/><path d="M4.12,119.424c1.191,2.378,2.723,2.95,2.723-1.055,0-3.684-.046-8.841-.046-8.841l.518-1.164-.61-1.645V99.537l.783-.875c0-4.42-1.7-5.071-2.256-4.75-.483.278-.989.534-1.316.694a1.551,1.551,0,0,0-.592.507l-.674.966" style="fill:none;stroke:#687581;stroke-linecap:round;stroke-linejoin:round;stroke-width:0.5px"/><path d="M111.031,173.8s-11.456,2.314-18.554,3.086-12.345-.232-18.517-2.161A207.226,207.226,0,0,1,26.9,152.585C8.374,140.877,2.747,134.454,2.859,131.132" style="fill:none;stroke:#687581;stroke-linecap:round;stroke-linejoin:round;stroke-width:0.5px"/><path d="M4.324,94.4a5.244,5.244,0,0,1,2.653-2.6,21.761,21.761,0,0,1,11.432-2.014" style="fill:none;stroke:#687581;stroke-linecap:round;stroke-linejoin:round;stroke-width:0.5px"/><line x1="190.27" y1="144.908" x2="199.104" y2="139.083" style="fill:none;stroke:#687581;stroke-linecap:round;stroke-linejoin:round;stroke-width:0.5px"/><polygon points="170.326 80.137 168.474 90.09 168.628 96.488 171.737 94.999 171.507 90.086 172.914 82.798 170.326 80.137" style="fill:none;stroke:#687581;stroke-linecap:round;stroke-linejoin:round;stroke-width:0.5px"/><path d="M153.641,57.82l-3.009,3.53,3.1,3.761,1.793-1.852s9.166,11.393,14.508,18.45" style="fill:none;stroke:#687581;stroke-linecap:round;stroke-linejoin:round;stroke-width:0.5px"/><path d="M68.086,60.064l.618.629.781-1.387" style="fill:none;stroke:#687581;stroke-linecap:round;stroke-linejoin:round;stroke-width:0.5px"/><path d="M62.344,54.2l3.644,3.72" style="fill:none;stroke:#687581;stroke-linecap:round;stroke-linejoin:round;stroke-width:0.5px"/><path d="M56.659,48.4l3.308,3.379" style="fill:none;stroke:#687581;stroke-linecap:round;stroke-linejoin:round;stroke-width:0.5px"/><polyline points="53.054 43.094 51.376 45.246 53.241 46.998" style="fill:none;stroke:#687581;stroke-linecap:round;stroke-linejoin:round;stroke-width:0.5px"/><path d="M57.343,46.036l-8.256,28.5L44.98,75.808l8.955-30.917C54.205,44.088,57.613,45.234,57.343,46.036Z" style="fill:none;stroke:#687581;stroke-linecap:round;stroke-linejoin:round;stroke-width:0.5px"/><path d="M62.773,52.723,56.919,72.936l-3.122.148,6.17-21.306C60.2,51.187,62.944,52.11,62.773,52.723Z" style="fill:none;stroke:#687581;stroke-linecap:round;stroke-linejoin:round;stroke-width:0.5px"/><polygon points="66.683 69.676 66.683 63.524 68.8 58.304 66.563 56.452 63.853 63.395 63.853 70.672 66.683 69.676" style="fill:none;stroke:#687581;stroke-linecap:round;stroke-linejoin:round;stroke-width:0.5px"/><path d="M117.167,21.218s1.639.089,37.458,4.082c8.5.947,15.752,1.739,21.871,2.395" style="fill:none;stroke:#687581;stroke-linecap:round;stroke-linejoin:round;stroke-width:0.5px"/><path d="M149.115,196.134a19.533,19.533,0,0,1-1.482-8.838l3.873-5.373a2.612,2.612,0,0,1,.975-.9l3.057-3.014a2.094,2.094,0,0,0,.856-1.31l.26-1.095.258-1.064c.12-.528.042-.93-.189-1.022l-.028-.012-.069-.008-2.573.941a.608.608,0,0,1-.248-.039.738.738,0,0,1-.389-.441l-1.625-4.119a50.372,50.372,0,0,1,6.234-10.657l2.5,2.511a1.456,1.456,0,0,1,.323,1.014l-1.838,6.675c0,.278.089.473.236.531a.429.429,0,0,0,.408-.1l1.268-.925a2.207,2.207,0,0,0,.611-.894c.076-.193,3.482-9.263,3.737-9.806l3.146-6.688a5.628,5.628,0,0,1,5.343,2.233l-2.323,6.918a5.809,5.809,0,0,1-.771,1.532l-6.9,6.052a2.425,2.425,0,0,0-.465,1.595l.277,1.55a.431.431,0,0,0,.225.356c.145.058.332-.015.527-.205l7.188-4.552a1.445,1.445,0,0,1,.943-.515l3.563-.04a50.969,50.969,0,0,1-2.926,12.056l-3.936,1.762a6.039,6.039,0,0,1-1.754-.4.578.578,0,0,1-.2-.14l-3.994-3.587-.065-.033c-.237-.094-.585.165-.846.631l-.542.928-.549.955a2.057,2.057,0,0,0-.3,1.555l2.893,5.408c.129.328,1.321,1.243,1.247,1.777l-.94,6.657a19.107,19.107,0,0,1-7.128,5.227l-.133-5.84a4.7,4.7,0,0,1,.267-1.569l1.037-9.626c.208-.606.161-1.151-.113-1.26l-.953-.381c-.271-.108-.68.251-.95.837l-1.967,9.251a4.59,4.59,0,0,1-.881,1.316Z" style="fill:none;stroke:#687581;stroke-linecap:round;stroke-linejoin:round;stroke-width:0.5px"/><path d="M154.677,199.853a5.481,5.481,0,0,1-4.288-1.714l4.047-3.91Z" style="fill:none;stroke:#687581;stroke-linecap:round;stroke-linejoin:round;stroke-width:0.5px"/><path d="M171.439,182.6c-.7,1.522-1.485,3.036-2.33,4.5a46.653,46.653,0,0,1-2.615,4.033l1.018-6.549Z" style="fill:none;stroke:#687581;stroke-linecap:round;stroke-linejoin:round;stroke-width:0.5px"/><path d="M174.957,155.765a14.879,14.879,0,0,1,.9,3.162,23.691,23.691,0,0,1,.337,3.822l-3.418-.137Z" style="fill:none;stroke:#687581;stroke-linecap:round;stroke-linejoin:round;stroke-width:0.5px"/><path d="M160.37,156.428a23.767,23.767,0,0,1,2.883-2.541,14.807,14.807,0,0,1,2.823-1.671l-3.13,6.464Z" style="fill:none;stroke:#687581;stroke-linecap:round;stroke-linejoin:round;stroke-width:0.5px"/><path d="M147.836,183.676a46.768,46.768,0,0,1,.887-4.733c.392-1.64.867-3.267,1.407-4.855l1.484,4.133Z" style="fill:none;stroke:#687581;stroke-linecap:round;stroke-linejoin:round;stroke-width:0.5px"/><path d="M153.048,173.028a28.81,28.81,0,0,1,5.863-9.821,13.936,13.936,0,0,1,1.642-1.479" style="fill:none;stroke:#687581;stroke-linecap:round;stroke-linejoin:round;stroke-width:0.5px"/><path d="M154.4,189.53a3.283,3.283,0,0,1-1.583-.994c-1.13-1.242-1.694-3.418-1.674-6.108" style="fill:none;stroke:#687581;stroke-linecap:round;stroke-linejoin:round;stroke-width:0.5px"/><path d="M162.981,184.031c-1.185,1.546-3.223,4.1-5.587,5.158" style="fill:none;stroke:#687581;stroke-linecap:round;stroke-linejoin:round;stroke-width:0.5px"/><path d="M168.6,168.824a30.8,30.8,0,0,1-2.181,8.774q-.207.514-.427,1.016" style="fill:none;stroke:#687581;stroke-linecap:round;stroke-linejoin:round;stroke-width:0.5px"/><path d="M164.666,160.082a3.879,3.879,0,0,1,3.186,2.494,7.492,7.492,0,0,1,.5,1.63" style="fill:none;stroke:#687581;stroke-linecap:round;stroke-linejoin:round;stroke-width:0.5px"/></g><g id="e0121d3b-e6c9-4bc5-b2df-c59655334254" data-name="above"><path d="M72.67,76.365c-1.462-.521-2.6-.818-1.387-1.809s2.427-1.887,3.444-2.651c1.219-.916,2.547-.551,4.113-.2,2.032.458,10.245,2.635,21.3,5.425s33.382,9.411,35.316,10.025,1.282,1.4-.576,2.017a51,51,0,0,1-6.12,1.734,15.93,15.93,0,0,1-6.715-.3c-2.651-.743-17.678-5.1-25.841-7.458C89.018,81.072,72.67,76.365,72.67,76.365Z" style="fill:#f4ae3d;stroke:#141b21;stroke-linejoin:round;stroke-width:0.5px"/><path d="M77.4,72.857s7.552,1.755,23.727,6.067,30.748,8.815,30.748,8.815" style="fill:none;stroke:#141b21;stroke-linecap:round;stroke-linejoin:round;stroke-width:0.5px"/><path d="M76.567,73.692S84.92,75.7,99.741,79.724c14.092,3.818,28.9,8.4,28.9,8.4" style="fill:none;stroke:#141b21;stroke-linecap:round;stroke-linejoin:round;stroke-width:0.5px"/><path d="M75.738,74.527s9.154,2.256,22.623,6c12.009,3.325,27.049,7.989,27.049,7.989" style="fill:none;stroke:#141b21;stroke-linecap:round;stroke-linejoin:round;stroke-width:0.5px"/><path d="M74.91,75.362s9.954,2.507,22.07,5.963c9.926,2.832,25.2,7.576,25.2,7.576" style="fill:none;stroke:#141b21;stroke-linecap:round;stroke-linejoin:round;stroke-width:0.5px"/><line x1="84.286" y1="78.833" x2="88.831" y2="74.953" style="fill:none;stroke:#141b21;stroke-linecap:round;stroke-linejoin:round;stroke-width:0.5px"/><line x1="108.797" y1="85.889" x2="117.292" y2="82.652" style="fill:none;stroke:#141b21;stroke-linecap:round;stroke-linejoin:round;stroke-width:0.5px"/><path d="M145.647,115.042c-19.095,1.61-33.013,4.154-54.506,9.567" style="fill:none;stroke:#141b21;stroke-linecap:round;stroke-linejoin:round;stroke-width:4px"/><path d="M145.647,115.041l-.5.043" style="fill:none;stroke:#141b21;stroke-linecap:round;stroke-linejoin:round;stroke-width:4px"/><path d="M143.642,115.216c-17.726,1.587-31.225,4.071-51.282,9.087" style="fill:none;stroke:#141b21;stroke-linecap:round;stroke-linejoin:round;stroke-width:4px"/><path d="M91.627,124.487l-.486.122" style="fill:none;stroke:#141b21;stroke-linecap:round;stroke-linejoin:round;stroke-width:4px"/><path d="M138.818,116.593c-16.93,2.947-30.546,6.759-52.056,13.927" style="fill:none;stroke:#141b21;stroke-linecap:round;stroke-linejoin:round;stroke-width:4px"/><path d="M138.818,116.593l-.492.086" style="fill:none;stroke:#141b21;stroke-linecap:round;stroke-linejoin:round;stroke-width:4px"/><path d="M136.883,116.937c-15.745,2.845-28.923,6.545-48.942,13.191" style="fill:none;stroke:#141b21;stroke-linecap:round;stroke-linejoin:round;stroke-width:4px"/><path d="M87.237,130.362l-.475.158" style="fill:none;stroke:#141b21;stroke-linecap:round;stroke-linejoin:round;stroke-width:4px"/><path d="M147.07,115.617c-20.625,4.591-34.5,9.353-58.653,19.336" style="fill:none;stroke:#141b21;stroke-linecap:round;stroke-linejoin:round;stroke-width:4px"/><path d="M147.071,115.617l-.489.109" style="fill:none;stroke:#141b21;stroke-linecap:round;stroke-linejoin:round;stroke-width:4px"/><path d="M145.135,116.053c-19.255,4.388-32.875,9.075-55.569,18.426" style="fill:none;stroke:#141b21;stroke-linecap:round;stroke-linejoin:round;stroke-width:4px"/><path d="M88.88,134.762l-.463.191" style="fill:none;stroke:#141b21;stroke-linecap:round;stroke-linejoin:round;stroke-width:4px"/><path d="M141.091,117.834c-17.746,5.649-31.1,11.6-53.778,23.009" style="fill:none;stroke:#141b21;stroke-linecap:round;stroke-linejoin:round;stroke-width:4px"/><path d="M141.091,117.834l-.476.152" style="fill:none;stroke:#141b21;stroke-linecap:round;stroke-linejoin:round;stroke-width:4px"/><path d="M139.161,118.455c-16.513,5.375-29.539,11.189-50.716,21.819" style="fill:none;stroke:#141b21;stroke-linecap:round;stroke-linejoin:round;stroke-width:4px"/><path d="M87.76,140.618l-.447.225" style="fill:none;stroke:#141b21;stroke-linecap:round;stroke-linejoin:round;stroke-width:4px"/><path d="M146.073,116.765c-19.794,7.583-32.954,14.5-56.757,28.718" style="fill:none;stroke:#141b21;stroke-linecap:round;stroke-linejoin:round;stroke-width:4px"/><path d="M146.073,116.765l-.465.178" style="fill:none;stroke:#141b21;stroke-linecap:round;stroke-linejoin:round;stroke-width:4px"/><path d="M144.182,117.5c-18.463,7.189-31.413,14.008-53.776,27.338" style="fill:none;stroke:#141b21;stroke-linecap:round;stroke-linejoin:round;stroke-width:4px"/><path d="M89.746,145.227l-.43.256" style="fill:none;stroke:#141b21;stroke-linecap:round;stroke-linejoin:round;stroke-width:4px"/><path d="M139.1,120.628c-16.5,8.21-29.2,16.453-51.334,32.033" style="fill:none;stroke:#141b21;stroke-linecap:round;stroke-linejoin:round;stroke-width:4px"/><path d="M139.1,120.628l-.444.222" style="fill:none;stroke:#141b21;stroke-linecap:round;stroke-linejoin:round;stroke-width:4px"/><path d="M137.308,121.529c-15.392,7.792-27.8,15.855-48.5,30.4" style="fill:none;stroke:#141b21;stroke-linecap:round;stroke-linejoin:round;stroke-width:4px"/><path d="M88.178,152.373l-.409.288" style="fill:none;stroke:#141b21;stroke-linecap:round;stroke-linejoin:round;stroke-width:4px"/><path d="M147.219,117.157c-18.594,10.324-30.626,18.928-51.467,35.779" style="fill:none;stroke:#141b21;stroke-linecap:round;stroke-linejoin:round;stroke-width:4px"/><path d="M147.219,117.157l-.437.243" style="fill:none;stroke:#141b21;stroke-linecap:round;stroke-linejoin:round;stroke-width:4px"/><path d="M145.467,118.136c-17.329,9.739-29.147,18.205-48.739,34.012" style="fill:none;stroke:#141b21;stroke-linecap:round;stroke-linejoin:round;stroke-width:4px"/><path d="M96.141,152.621l-.389.315" style="fill:none;stroke:#141b21;stroke-linecap:round;stroke-linejoin:round;stroke-width:4px"/><path d="M140.454,122.121c-14.725,10.084-25.877,19.6-43.832,36.369" style="fill:none;stroke:#141b21;stroke-linecap:round;stroke-linejoin:round;stroke-width:4px"/><path d="M140.454,122.121l-.41.281" style="fill:none;stroke:#141b21;stroke-linecap:round;stroke-linejoin:round;stroke-width:4px"/><path d="M138.821,123.247c-13.687,9.507-24.524,18.769-41.287,34.392" style="fill:none;stroke:#141b21;stroke-linecap:round;stroke-linejoin:round;stroke-width:4px"/><path d="M96.988,158.148l-.366.342" style="fill:none;stroke:#141b21;stroke-linecap:round;stroke-linejoin:round;stroke-width:4px"/><path d="M146.353,118.741c-15.218,11.524-25.651,21.168-41.12,37.424" style="fill:none;stroke:#141b21;stroke-linecap:round;stroke-linejoin:round;stroke-width:4px"/><path d="M146.353,118.741l-.4.3" style="fill:none;stroke:#141b21;stroke-linecap:round;stroke-linejoin:round;stroke-width:4px"/><path d="M144.747,119.964c-14.08,10.781-24.194,20.15-38.645,35.289" style="fill:none;stroke:#141b21;stroke-linecap:round;stroke-linejoin:round;stroke-width:4px"/><path d="M105.578,155.8l-.345.362" style="fill:none;stroke:#141b21;stroke-linecap:round;stroke-linejoin:round;stroke-width:4px"/><path d="M145.647,115.041l-.5.043" style="fill:none;stroke:#aebbc7;stroke-linecap:round;stroke-linejoin:round;stroke-width:0.5px"/><path d="M143.642,115.216c-17.726,1.587-31.225,4.071-51.282,9.087" style="fill:none;stroke:#aebbc7;stroke-linecap:round;stroke-linejoin:round;stroke-width:0.5px;stroke-dasharray:1.007534384727478,1.5113016366958618"/><path d="M91.627,124.487l-.486.122" style="fill:none;stroke:#aebbc7;stroke-linecap:round;stroke-linejoin:round;stroke-width:0.5px"/><path d="M138.818,116.593l-.492.086" style="fill:none;stroke:#aebbc7;stroke-linecap:round;stroke-linejoin:round;stroke-width:0.5px"/><path d="M136.883,116.937c-15.745,2.845-28.923,6.545-48.942,13.191" style="fill:none;stroke:#aebbc7;stroke-linecap:round;stroke-linejoin:round;stroke-width:0.5px;stroke-dasharray:0.9803822040557861,1.4705733060836792"/><path d="M87.237,130.362l-.475.158" style="fill:none;stroke:#aebbc7;stroke-linecap:round;stroke-linejoin:round;stroke-width:0.5px"/><path d="M147.071,115.617l-.489.109" style="fill:none;stroke:#aebbc7;stroke-linecap:round;stroke-linejoin:round;stroke-width:0.5px"/><path d="M145.135,116.053c-19.255,4.388-32.875,9.075-55.569,18.426" style="fill:none;stroke:#aebbc7;stroke-linecap:round;stroke-linejoin:round;stroke-width:0.5px;stroke-dasharray:0.9893900752067566,1.4840850830078125"/><path d="M88.88,134.762l-.463.191" style="fill:none;stroke:#aebbc7;stroke-linecap:round;stroke-linejoin:round;stroke-width:0.5px"/><path d="M141.091,117.834l-.476.152" style="fill:none;stroke:#aebbc7;stroke-linecap:round;stroke-linejoin:round;stroke-width:0.5px"/><path d="M139.161,118.455c-16.513,5.375-29.539,11.189-50.716,21.819" style="fill:none;stroke:#aebbc7;stroke-linecap:round;stroke-linejoin:round;stroke-width:0.5px;stroke-dasharray:1.0187599658966064,1.5281399488449097"/><path d="M87.76,140.618l-.447.225" style="fill:none;stroke:#aebbc7;stroke-linecap:round;stroke-linejoin:round;stroke-width:0.5px"/><path d="M146.073,116.765l-.465.178" style="fill:none;stroke:#aebbc7;stroke-linecap:round;stroke-linejoin:round;stroke-width:0.5px"/><path d="M144.182,117.5c-18.463,7.189-31.413,14.008-53.776,27.338" style="fill:none;stroke:#aebbc7;stroke-linecap:round;stroke-linejoin:round;stroke-width:0.5px;stroke-dasharray:1.019516110420227,1.5292742252349854"/><path d="M89.746,145.227l-.43.256" style="fill:none;stroke:#aebbc7;stroke-linecap:round;stroke-linejoin:round;stroke-width:0.5px"/><path d="M139.1,120.628l-.444.222" style="fill:none;stroke:#aebbc7;stroke-linecap:round;stroke-linejoin:round;stroke-width:0.5px"/><path d="M137.308,121.529c-15.392,7.792-27.8,15.855-48.5,30.4" style="fill:none;stroke:#aebbc7;stroke-linecap:round;stroke-linejoin:round;stroke-width:0.5px;stroke-dasharray:1.0096713304519653,1.5145069360733032"/><path d="M88.178,152.373l-.409.288" style="fill:none;stroke:#aebbc7;stroke-linecap:round;stroke-linejoin:round;stroke-width:0.5px"/><path d="M147.219,117.157l-.437.243" style="fill:none;stroke:#aebbc7;stroke-linecap:round;stroke-linejoin:round;stroke-width:0.5px"/><path d="M145.467,118.136c-17.329,9.739-29.147,18.205-48.739,34.012" style="fill:none;stroke:#aebbc7;stroke-linecap:round;stroke-linejoin:round;stroke-width:0.5px;stroke-dasharray:1.0044153928756714,1.5066231489181519"/><path d="M96.141,152.621l-.389.315" style="fill:none;stroke:#aebbc7;stroke-linecap:round;stroke-linejoin:round;stroke-width:0.5px"/><path d="M140.454,122.121l-.41.281" style="fill:none;stroke:#aebbc7;stroke-linecap:round;stroke-linejoin:round;stroke-width:0.5px"/><path d="M138.821,123.247c-13.687,9.507-24.524,18.769-41.287,34.392" style="fill:none;stroke:#aebbc7;stroke-linecap:round;stroke-linejoin:round;stroke-width:0.5px;stroke-dasharray:0.991399884223938,1.4870998859405518"/><path d="M96.988,158.148l-.366.342" style="fill:none;stroke:#aebbc7;stroke-linecap:round;stroke-linejoin:round;stroke-width:0.5px"/><path d="M146.353,118.741l-.4.3" style="fill:none;stroke:#aebbc7;stroke-linecap:round;stroke-linejoin:round;stroke-width:0.5px"/><path d="M144.747,119.964c-14.08,10.781-24.194,20.15-38.645,35.289" style="fill:none;stroke:#aebbc7;stroke-linecap:round;stroke-linejoin:round;stroke-width:0.5px;stroke-dasharray:1.0123939514160156,1.5185909271240234"/><path d="M105.578,155.8l-.345.362" style="fill:none;stroke:#aebbc7;stroke-linecap:round;stroke-linejoin:round;stroke-width:0.5px"/><path d="M174.384,136.213c8.291,23.406,6.916,54.561,16.7,73.887a45.643,45.643,0,0,0,2.594,4.476" style="fill:none;stroke:#aebbc7;stroke-linejoin:round;stroke-width:4px"/><path d="M174.384,136.213c8.291,23.406,6.916,54.561,16.7,73.887a45.643,45.643,0,0,0,2.594,4.476" style="fill:none;stroke:#141b21;stroke-linecap:round;stroke-linejoin:round;stroke-width:2px"/><g id="a52bcb4e-6d31-4a05-bb7c-79593384f923" data-name="Offset Group"><path d="M177.464,133.119a1.274,1.274,0,0,0,.587-.358,3.091,3.091,0,0,0,.67-1.474,5.382,5.382,0,0,0-.092-2.409c-.744-3.109-3.564-6.962-5.869-9.759a8.23,8.23,0,0,1-1.97-3.582,6.025,6.025,0,0,1,.464-3.165l.065-.2c.043-.131.084-.253.122-.368a5.262,5.262,0,0,0,.375-1.5.96.96,0,0,0-.065-.327.821.821,0,0,0-.254-.338,2.761,2.761,0,0,0-1.207-.366l-.339-.057c-5.68-.979-11.881,1.213-12.7,1.515l-4.711-.01a2.046,2.046,0,0,0-1.964.694,3.8,3.8,0,0,0-.8,1.857,8.973,8.973,0,0,0,.377,4.129,7.526,7.526,0,0,0,3.131,4.409,2.332,2.332,0,0,0,1.8.224,2.11,2.11,0,0,0,.852-.524l-.06.05,3.882-2.742a11.329,11.329,0,0,0,1.8-.3c.649-.151.788-.152.874-.1s.24.217.474.961a147.872,147.872,0,0,0,5.558,14.271c.256.482.456.931.64,1.347a3.72,3.72,0,0,0,1.68,2.208c.857.357,2.028.148,3.785-.52a7.349,7.349,0,0,0,2.94-1.771,2.41,2.41,0,0,0,.562-1.021,1.821,1.821,0,0,0,0-.877,1.875,1.875,0,0,0-.355-.708l-.2-.231-.3.08a.342.342,0,0,1-.243-.057c-.666-.347-1.651-1.843-2.517-4.227-1.5-4.145-3.746-9.028-5.57-10.979m0,0a3.657,3.657,0,0,1-.909-2.267,6.286,6.286,0,0,1,.9-3.683m44.648-3.044q-1.976.666-3.966,1.306-3.912,1.257-7.886,2.408c-7.424,2.152-15.431,4.14-18.753,4.966-.7.175-1.2.3-1.439.36-1.517.4-3.236.065-7.389-1.87-.326-.151-.8-.36-1.257-.565l-1.746-.789-.938,1.22a8.62,8.62,0,0,0-4-1.169,6.01,6.01,0,0,0-2.826.95,22.019,22.019,0,0,0-3.938,2.8c-.4.342-.827.713-1.407,1.174-1.023.812-1.662,1.435-1.781,2.137a2.714,2.714,0,0,0,.638,1.842,1.652,1.652,0,0,0,.937.738,2.263,2.263,0,0,0,1.569-.2c.1-.046.195-.1.287-.148a3.521,3.521,0,0,0,.5,1.285,2.433,2.433,0,0,0,1.418,1.1,1.947,1.947,0,0,0,.95-.007,2.782,2.782,0,0,0,.588,1.3,2.9,2.9,0,0,0,1.479.744.457.457,0,0,1,.218.112,1.237,1.237,0,0,1,.223.561,2.35,2.35,0,0,0,.836,1.442,4.606,4.606,0,0,0,2.943.588,33.256,33.256,0,0,0,9.795-1.555c3.079-.916,5.92-.917,10.5-.912a199.454,199.454,0,0,0,26.244-1.532q.608-.07,1.214-.145m-55.92-3.692,1.724-1.478m-1.3-2.835a3.42,3.42,0,0,0,.331,2.29,1.809,1.809,0,0,0,1.143.67,2.48,2.48,0,0,1,.347.105m.543,1.286a2.2,2.2,0,0,0,1,1.612,1.781,1.781,0,0,1,.651.747,5.51,5.51,0,0,1,.252.688c.251.8.486,1.41,2.028,2.236m-4.25-2.473.808-.382m-11.98-2.557a2.342,2.342,0,0,0,1.8.223,2.123,2.123,0,0,0,.959-.64,3.8,3.8,0,0,0,.8-1.855,8.952,8.952,0,0,0-.377-4.127,7.527,7.527,0,0,0-3.13-4.411,2.334,2.334,0,0,0-1.8-.224,2.123,2.123,0,0,0-.959.64,3.8,3.8,0,0,0-.8,1.856,8.961,8.961,0,0,0,.377,4.126A7.53,7.53,0,0,0,151.9,122.247Z" style="fill:none;stroke:#aebbc7;stroke-linecap:round;stroke-linejoin:round;stroke-width:0.5px"/><path d="M177.4,132.878a1.026,1.026,0,0,0,.472-.29,2.858,2.858,0,0,0,.606-1.356,5.142,5.142,0,0,0-.091-2.3c-.728-3.045-3.51-6.856-5.819-9.658a8.475,8.475,0,0,1-2.023-3.7,6.259,6.259,0,0,1,.473-3.29l.065-.2c.043-.131.083-.254.122-.369a5.108,5.108,0,0,0,.362-1.416.692.692,0,0,0-.047-.24.577.577,0,0,0-.178-.237,2.575,2.575,0,0,0-1.092-.314l-.34-.057c-6.019-1.038-12.654,1.535-12.563,1.518,0,0-4.851-.01-4.8,0a1.8,1.8,0,0,0-1.778.6,3.559,3.559,0,0,0-.746,1.736,8.726,8.726,0,0,0,.369,4.01,7.294,7.294,0,0,0,3.008,4.263,2.087,2.087,0,0,0,1.607.207,1.875,1.875,0,0,0,.751-.463s0,0-.029.023l3.939-2.782a11.13,11.13,0,0,0,1.828-.3c.607-.142.863-.186,1.054-.077.174.1.357.366.589,1.1a147.657,147.657,0,0,0,5.54,14.229c.261.49.463.947.648,1.363.413.931.761,1.751,1.547,2.079.755.314,1.838.147,3.6-.524a7.123,7.123,0,0,0,2.842-1.7,2.167,2.167,0,0,0,.506-.915,1.563,1.563,0,0,0-.3-1.36l-.1-.115-.15.04a.583.583,0,0,1-.423-.077c-.764-.4-1.775-1.99-2.637-4.363-1.507-4.15-3.733-8.986-5.517-10.894m0,0a3.9,3.9,0,0,1-.976-2.419,6.528,6.528,0,0,1,.943-3.843m44.934-2.666q-1.977.668-3.969,1.307-3.916,1.258-7.893,2.411c-7.43,2.153-15.441,4.142-18.763,4.967-.706.175-1.2.3-1.436.36-1.613.421-3.409.048-7.558-1.885-.323-.15-.79-.358-1.253-.563l-1.566-.709-.941,1.224a8.805,8.805,0,0,0-4.068-1.232,5.77,5.77,0,0,0-2.71.915,21.822,21.822,0,0,0-3.9,2.769c-.4.343-.83.716-1.414,1.181-1.04.825-1.59,1.392-1.691,1.983a2.493,2.493,0,0,0,.6,1.666,1.407,1.407,0,0,0,.8.633,2.017,2.017,0,0,0,1.392-.193,4.44,4.44,0,0,0,.6-.345,3.113,3.113,0,0,0,.5,1.575,2.178,2.178,0,0,0,1.267.991,1.749,1.749,0,0,0,1.077-.087,2.917,2.917,0,0,0,.586,1.457,2.661,2.661,0,0,0,1.358.671.7.7,0,0,1,.332.178,1.439,1.439,0,0,1,.287.675,2.109,2.109,0,0,0,.743,1.3,4.375,4.375,0,0,0,2.785.54,33.02,33.02,0,0,0,9.732-1.546c3.121-.928,6-.927,10.572-.922a199.272,199.272,0,0,0,26.215-1.53l1.212-.145m-56.052-3.634,1.725-1.478m-.885-2.621a3.185,3.185,0,0,0,.287,2.122,1.569,1.569,0,0,0,1,.572,2.648,2.648,0,0,1,.383.117m.692,1.477a1.952,1.952,0,0,0,.9,1.452,2.028,2.028,0,0,1,.728.842,5.959,5.959,0,0,1,.263.717c.233.744.429,1.3,1.907,2.091m-4.475-2.479.808-.382m-11.757-2.553a2.085,2.085,0,0,0,1.608.206,1.869,1.869,0,0,0,.846-.566,3.545,3.545,0,0,0,.745-1.734,8.718,8.718,0,0,0-.369-4.008,7.288,7.288,0,0,0-3.007-4.265,2.093,2.093,0,0,0-1.608-.206,1.864,1.864,0,0,0-.846.566,3.545,3.545,0,0,0-.745,1.734,8.7,8.7,0,0,0,.369,4.008A7.288,7.288,0,0,0,152.014,122.025Z" style="fill:none;stroke:#aebbc7;stroke-linecap:round;stroke-linejoin:round;stroke-width:0.5px"/></g><ellipse cx="151.925" cy="116.842" rx="2.81" ry="5.4" transform="matrix(0.954, -0.3, 0.3, 0.954, -28.071, 51.005)" style="fill:#141b21;stroke:#aebbc7;stroke-linecap:round;stroke-linejoin:round;stroke-width:0.5px"/><path d="M177.335,132.636c.383-.1.7-.564.9-1.458.69-3.085-2.928-8.186-5.859-11.741s-2.25-5.229-1.53-7.418.778-2.006-.978-2.309c-5.944-1.025-12.52,1.522-12.52,1.522l-4.851-.01a1.6,1.6,0,0,0-.807.032c-1.479.465-1.954,3.152-1.058,6s2.822,4.772,4.3,4.306a1.621,1.621,0,0,0,.653-.405l4-2.822c2.63-.173,3.1-1.3,3.8.894a148.131,148.131,0,0,0,5.522,14.187c1.479,2.779,1.108,4.468,5.486,2.8,4.583-1.744,2.951-3.577,2.951-3.577-.939.251-2.289-1.647-3.36-4.6-1.509-4.154-3.72-8.943-5.465-10.809" style="fill:#141b21;stroke:#aebbc7;stroke-linecap:round;stroke-linejoin:round;stroke-width:0.5px"/><path d="M168.51,117.231c-1.744-1.866-1.021-5.162-.056-6.573" style="fill:#141b21;stroke:#aebbc7;stroke-linecap:round;stroke-linejoin:round;stroke-width:0.5px"/><path d="M213.674,108.37q-1.979.667-3.973,1.308-3.919,1.258-7.9,2.413c-9.017,2.613-18.887,4.984-20.2,5.329-1.71.446-3.582.031-7.727-1.9-.7-.325-2.074-.918-2.637-1.189l-.944,1.227c-2.789-1.343-4.2-1.9-6.725-.414a31.082,31.082,0,0,0-5.288,3.929c-2.029,1.612-1.861,2.007-1.032,3.321.951,1.506,3.032-.436,3.032-.436-.7.746.536,3.938,2.58,2.776.277,1.6.541,1.912,1.821,2.253,1.569.418-.365,2.849,4.074,2.688a32.771,32.771,0,0,0,9.67-1.535c6.9-2.052,12.634.387,36.829-2.461l1.211-.145" style="stroke:#aebbc7;stroke-linecap:round;stroke-linejoin:round;stroke-width:0.5px;fill:url(#ac86d8d6-f25d-4b0e-9bb2-61556ac92281)"/><line x1="160.276" y1="121.958" x2="162.001" y2="120.48" style="fill:none;stroke:#aebbc7;stroke-linecap:round;stroke-linejoin:round;stroke-width:0.5px"/><path d="M161.528,118.072c-.244,2.558.776,2.242,1.519,2.558" style="fill:#141b21;stroke:#aebbc7;stroke-linecap:round;stroke-linejoin:round;stroke-width:0.5px"/><path d="M163.888,122.3c.215,1.377,1.085,1.089,1.607,2.228s.187,1.687,2.061,2.691" style="fill:#141b21;stroke:#aebbc7;stroke-linecap:round;stroke-linejoin:round;stroke-width:0.5px"/><line x1="162.856" y1="124.734" x2="163.664" y2="124.352" style="fill:none;stroke:#aebbc7;stroke-linecap:round;stroke-linejoin:round;stroke-width:0.5px"/></g><g id="ebfdfdcc-9e87-4075-962c-aba35b8cc6bc" data-name="icons"><circle cx="110.257" cy="61.026" r="14.84" style="fill:none;stroke:#141b21;stroke-width:4px"/><path d="M110.257,50.236S103.5,61.326,103.5,65.058a6.757,6.757,0,1,0,13.514,0C117.014,61.326,110.257,50.236,110.257,50.236Z" style="fill:none;stroke:#141b21;stroke-width:4px"/><line x1="99.257" y1="51.064" x2="120.219" y2="72.025" style="fill:none;stroke:#141b21;stroke-width:4px"/><line x1="99.257" y1="51.064" x2="120.219" y2="72.025" style="fill:none;stroke:#141b21;stroke-width:4px"/><line x1="99.257" y1="51.064" x2="120.219" y2="72.025" style="fill:none;stroke:#141b21;stroke-width:4px"/><circle cx="110.257" cy="61.026" r="14.84" style="fill:none;stroke:#141b21;stroke-width:4px"/><circle cx="110.257" cy="61.026" r="14.84" style="fill:#f4ae3d"/><path d="M110.257,50.236S103.5,61.326,103.5,65.058a6.757,6.757,0,1,0,13.514,0C117.014,61.326,110.257,50.236,110.257,50.236Z" style="fill:#141b21"/><line x1="99.257" y1="51.064" x2="120.219" y2="72.025" style="fill:none;stroke:#f4ae3d;stroke-linejoin:round;stroke-width:3px"/><line x1="99.257" y1="51.064" x2="120.219" y2="72.025" style="fill:none;stroke:#141b21;stroke-linejoin:round;stroke-width:1.5px"/><circle cx="110.257" cy="61.026" r="14.84" style="fill:none;stroke:#141b21;stroke-linejoin:round;stroke-width:1.5px"/></g></svg>