<?xml version="1.0" encoding="UTF-8"?><svg xmlns="http://www.w3.org/2000/svg" width="654" height="258.71" viewBox="0 0 654 258.71"><g id="uuid-200fe4c3-5938-4357-b3c8-4ec6118a9414"><path d="m365.747,74.956c-.637-1.892-2.07-2.165-4.223-1.932-2.38.259-6.572.828-8.59,1.19-2.018.362-4.295,1.604-5.64,2.794-1.345,1.19-1.875,1.797-2.743,2.587-.745.678-1.006,1.463-1.084,2.927-.078,1.464-.209,2.745-.209,3.582,0,1.7.68,2.797,1.935,3.843,1.255,1.046,5.019,2.196,9.124,2.745,1.126.151,2.267.222,3.352.278" style="fill:none; stroke:#687581; stroke-linecap:round; stroke-linejoin:round; stroke-width:.5px;"/><path d="m559.413,79.551c-1.135-3.731-9.465-31.039-11.772-36.389-2.146-4.974-4.384-6.807-7.115-7.123-7.099-.823-38.368-2.416-72.656-2.416-34.289,0-65.557,1.593-72.656,2.416-2.731.317-4.969,2.149-7.115,7.123-2.396,5.555-11.296,34.821-11.773,36.389" style="fill:none; stroke:#687581; stroke-linecap:round; stroke-linejoin:round; stroke-width:.5px;"/><path d="m374.982,198.577l-.03,17.292c-.014,9.05-.023,16.6-.023,19.111,0,9.828-1.978,11.052-6.495,11.052-1.814,0-6.605.039-11.484.057-4.879-.017-9.67-.057-11.484-.057-4.517,0-6.495-1.224-6.495-11.052,0-8.15-.128-78.909-.128-78.909" style="fill:none; stroke:#687581; stroke-linecap:round; stroke-linejoin:round; stroke-width:.5px;"/><path d="m560.787,215.869c.014,9.05.023,16.6.023,19.111,0,9.828,1.978,11.052,6.495,11.052,1.814,0,6.605.039,11.484.057,4.879-.017,9.67-.057,11.484-.057,4.517,0,6.495-1.224,6.495-11.052,0-8.15.104-65.148.104-65.148" style="fill:none; stroke:#687581; stroke-linecap:round; stroke-linejoin:round; stroke-width:.5px;"/><path d="m569.991,74.956c.637-1.892,2.07-2.165,4.223-1.932,2.38.259,6.572.828,8.59,1.19,2.018.362,4.295,1.604,5.64,2.794,1.345,1.19,1.875,1.797,2.743,2.587.745.678,1.006,1.463,1.084,2.927.078,1.464.209,2.745.209,3.582,0,1.7-.68,2.797-1.935,3.843-1.255,1.046-5.019,2.196-9.124,2.745-1.126.151-2.267.222-3.352.278" style="fill:none; stroke:#687581; stroke-linecap:round; stroke-linejoin:round; stroke-width:.5px;"/><g id="uuid-193ce46c-ce18-4f7b-b67a-fb3e382624fc"><path d="m575.572,85.945l-.693-1.686c-9.399-22.866-19.553-48.435-19.548-48.423-1.744-4.566-3.275-7.171-5.176-8.69-1.949-1.557-4.166-1.862-6.856-2.245-38.895-3.446-76.082-3.446-76.082-3.446,0,0-35.882,0-74.829,3.452-2.636.377-4.853.682-6.803,2.239-1.901,1.519-3.433,4.124-5.171,8.678,0,0-10.154,25.57-19.553,48.435l-.693,1.686" style="fill:none; stroke:#687581; stroke-linecap:round; stroke-linejoin:round; stroke-width:1px;"/><path d="m575.109,86.136l-.693-1.686c-9.401-22.868-19.555-48.441-19.553-48.435-1.739-4.555-3.232-7.048-5.021-8.478-1.825-1.458-3.899-1.754-6.588-2.137-38.873-3.444-76.037-3.444-76.037-3.444,0,0-35.859,0-74.759,3.447-2.662.38-4.736.676-6.561,2.134-1.789,1.429-3.282,3.923-5.019,8.471,0,0-10.155,25.572-19.555,48.441l-.693,1.686" style="fill:none; stroke:#687581; stroke-linecap:round; stroke-linejoin:round; stroke-width:1px;"/></g><path d="m574.647,86.326l-.693-1.686c-9.402-22.871-19.558-48.446-19.558-48.446-3.494-9.151-5.848-9.533-11.186-10.295-38.851-3.442-75.993-3.442-75.993-3.442,0,0-35.837,0-74.688,3.442-5.338.763-7.692,1.144-11.186,10.295,0,0-10.156,25.575-19.558,48.446l-.693,1.686" style="fill:none; stroke:#687581; stroke-linecap:round; stroke-linejoin:round; stroke-width:1px;"/><path d="m467.869,109.662c52.684,0,107.941.423,110.336.423,2.395,0,2.536-.564,2.747-1.691.458-3.311.211-6.128-.07-8.347s-.741-3.464-1.511-4.113c-1.507-1.272-2.77-1.259-4.897-1.294-2.998-.05-106.605,0-106.605,0,0,0-103.607-.05-106.605,0-2.127.035-3.389.022-4.897,1.294-.77.65-1.229,1.894-1.511,4.113-.282,2.219-.528,5.036-.07,8.347.211,1.127.352,1.691,2.747,1.691s57.652-.423,110.336-.423Z" style="fill:none; stroke:#687581; stroke-linecap:round; stroke-linejoin:round; stroke-width:.5px;"/><path d="m560.757,198.577l.03,17.292c.014,9.05.023,16.6.023,19.111,0,9.828,1.978,11.052,6.495,11.052,1.814,0,6.605.039,11.484.057,4.879-.017,9.67-.057,11.484-.057,4.517,0,6.495-1.224,6.495-11.052,0-8.15.128-78.909.128-78.909" style="fill:none; stroke:#687581; stroke-linecap:round; stroke-linejoin:round; stroke-width:.5px;"/><path d="m467.869,188.082c17.694,0,34.585-.161,49.103-.389,0,0,3.558-7.209,5.414-10.272,1.856-3.063,3.217-2.97,6.125-2.97,2.908,0,13.178,0,19.056,0,5.723,0,5.878,1.887,6.311,3.774.261,1.135,1.021,5.012,1.021,5.012,0,0,.155,0,4.981,0s5.29-3.31,5.29-5.352c0-2.042-.031-3.65-.259-6.491-.343-4.264-1.589-5.392-7.035-5.618s-30.183-.908-39.332-.908c-9.149,0-10.255,3.971-12.978,8.964-2.723,4.993-6.581,5.56-9.645,5.56h-28.051s-28.051,0-28.051,0c-3.064,0-6.922-.567-9.645-5.56-2.723-4.993-3.829-8.964-12.978-8.964s-33.886.681-39.332.908-6.693,1.355-7.035,5.618c-.228,2.841-.259,4.449-.259,6.491s.464,5.352,5.29,5.352h4.981s.76-3.876,1.021-5.012c.433-1.887.588-3.774,6.311-3.774h19.056c2.908,0,4.269-.093,6.125,2.97,1.856,3.063,5.414,10.272,5.414,10.272,14.518.227,31.409.389,49.103.389Z" style="fill:none; stroke:#687581; stroke-linecap:round; stroke-linejoin:round; stroke-width:.5px;"/><path d="m372.652,149.772c-7.419,0-11.38,9.361-16.117,12.239-2.537,1.542-3.816,2.066-7.986,4.246-2.451,1.281-4.06-.09-4.27-.706-2.615-7.662-3.399-30.035-2.455-48.609" style="fill:none; stroke:#687581; stroke-linecap:round; stroke-linejoin:round; stroke-width:.5px;"/><path d="m563.087,149.654c-6.442,0-75.341-1.023-95.217-1.023-19.876,0-88.776,1.023-95.217,1.023" style="fill:none; stroke:#687581; stroke-linecap:round; stroke-linejoin:round; stroke-width:.75px;"/><path d="m593.914,116.942c.944,18.573.16,40.947-2.455,48.609-.21.616-1.819,1.987-4.27.706-4.17-2.179-5.448-2.704-7.986-4.246-4.737-2.878-8.697-12.239-16.117-12.239" style="fill:none; stroke:#687581; stroke-linecap:round; stroke-linejoin:round; stroke-width:.5px;"/><path d="m462.37,22.498v-1.166c0-.308.257-.593.677-.753.951-.362,2.625-1.626,3.149-6.029.24-1.182-.016-2.618,1.706-2.618s1.493,1.432,1.706,2.618c.196,1.09.059,5.058,2.613,5.923.454.154.739.452.739.775v1.252" style="fill:none; stroke:#687581; stroke-linecap:round; stroke-linejoin:round; stroke-width:.5px;"/><path d="m568.539,186.557c.482-3.042.713-6.222.66-9.49-.05-3.064-.355-4.434-.593-6.958-.863-9.183-7.77-8.587-11.537-8.744-3.767-.157-38.446-.526-42.703-.628-4.845-.116-5.42-1.092-7.417-2.779-2.974-2.513-4.113-2.539-8.587-2.539-4.474,0-30.493,0-30.493,0h-30.493c-4.474,0-5.613.027-8.587,2.539-1.996,1.687-2.571,2.663-7.417,2.779-4.257.102-38.935.471-42.703.628s-10.674-.439-11.537,8.744c-.237,2.524-.543,3.894-.593,6.958-.053,3.267.178,6.448.66,9.49" style="fill:none; stroke:#687581; stroke-linecap:round; stroke-linejoin:round; stroke-width:.5px;"/><path d="m385.617,183.184c-1.007,0-1.87-.216-1.547-1.726.324-1.511.36-2.374,2.985-2.374h20.717c1.654,0,2.554.144,3.237,1.618.683,1.475,1.42,2.482-1.439,2.482-1.618,0-22.947,0-23.954,0Z" style="fill:none; stroke:#687581; stroke-linecap:round; stroke-linejoin:round; stroke-width:.5px;"/><path d="m550.122,183.184c1.007,0,1.87-.216,1.547-1.726-.324-1.511-.36-2.374-2.985-2.374h-20.717c-1.654,0-2.554.144-3.237,1.618-.683,1.475-1.42,2.482,1.439,2.482h23.954Z" style="fill:none; stroke:#687581; stroke-linecap:round; stroke-linejoin:round; stroke-width:.5px;"/><path d="m341.898,147.179l6.857-2.568c1.304-.488,2.732-1.969,3.172-3.291l4.237-12.71c.66-1.98,1.065-4.083,1.181-6.167.278-5.013.549-12.101.549-12.359" style="fill:none; stroke:#687581; stroke-linecap:round; stroke-linejoin:round; stroke-width:.5px;"/><path d="m372.652,149.654c-.135-9.268-.93-32.072-.45-54.379.356-11.165,1.443-15.658,1.443-15.658" style="fill:none; stroke:#687581; stroke-linecap:round; stroke-linejoin:round; stroke-width:.75px;"/><path d="m581.046,105.161s-3.176-.546-17.378-.546c-14.202,0-95.799-.428-95.799-.428,0,0-81.597.428-95.799.428s-17.378.546-17.378.546" style="fill:none; stroke:#687581; stroke-linecap:round; stroke-linejoin:round; stroke-width:.5px;"/><path d="m437.82,179.282l.09,8.658,1.917,4.731c.539,1.33,1.831,2.201,3.267,2.201h49.331c1.386,0,2.643-.812,3.213-2.075l2.191-4.857.09-8.658" style="fill:none; stroke:#687581; stroke-linecap:round; stroke-linejoin:round; stroke-width:.5px;"/><path d="m593.841,147.179l-6.857-2.568c-1.304-.488-2.732-1.969-3.172-3.291l-4.237-12.71c-.66-1.98-1.065-4.083-1.181-6.167-.278-5.013-.549-12.101-.549-12.359" style="fill:none; stroke:#687581; stroke-linecap:round; stroke-linejoin:round; stroke-width:.5px;"/><path d="m563.087,149.644c.135-9.268.93-32.062.45-54.37-.356-11.165-1.443-15.658-1.443-15.658" style="fill:none; stroke:#687581; stroke-linecap:round; stroke-linejoin:round; stroke-width:.75px;"/><path d="m384.802,41.727c2.107-5.733,4.507-10.68,34.691-11.656,14.37-.465,37.575-1.223,48.365-1.223,10.79,0,33.994.759,48.365,1.223,30.183.976,32.583,5.923,34.691,11.656" style="fill:none; stroke:#687581; stroke-linecap:round; stroke-linejoin:round; stroke-width:.5px;"/><g id="uuid-1a72e747-19ea-44c9-8e07-a027f22987c8"><path d="m565.55,79.102c.918.007,1.801.334,2.503.927,1.848,1.562,5.922,5.014,7.762,6.647.097.115.205.231.329.363.568.607,1.31,1.398,1.598,2.93l.728,3.272c.141.634.547,1.172,1.039,1.809.064.083.129.167.222.293,0,0,1.87,3.051,1.823,2.986,3.584,4.16,11.659,15.708,13.956,20.558.101.214.199.417.292.612,2.059,4.295,2.209,4.787,1.824,28.599-.326,20.206-2.251,31.751-5.694,38.77-1.528,3.115-3.357,5.343-5.477,7.039-.97.776-2.033,1.476-3.672,2.102-3.663,1.399-10.2,2.425-25.104,3.248-1.554.086-3.359.563-5.539,1.142-3.47.921-7.775,2.066-13.119,2.066h-142.302c-5.344,0-9.649-1.145-13.119-2.066-2.181-.579-3.986-1.056-5.539-1.142-14.905-.823-21.442-1.848-25.104-3.248-1.639-.626-2.702-1.326-3.672-2.102-2.12-1.696-3.949-3.924-5.477-7.039-3.443-7.019-5.368-18.564-5.694-38.77-.385-23.812-.234-24.304,1.824-28.599.094-.196.191-.398.292-.612,2.283-4.819,10.35-18.248,13.956-22.433l.049-.057,1.857-1.168c.046-.06.093-.12.138-.179.493-.637.898-1.175,1.039-1.809,0,0,.728-3.272.725-3.256.29-1.549,1.033-2.34,1.601-2.947.124-.133.232-.248.38-.415,1.79-1.581,5.864-5.033,7.711-6.595.702-.593,1.585-.919,2.503-.927,7.21-.057,52.448-.086,97.681-.086s90.471.029,97.681.086Z" style="fill:none; stroke:#687581; stroke-linecap:round; stroke-linejoin:round; stroke-width:.5px;"/><path d="m565.548,79.352c.86.007,1.687.312,2.344.868,1.849,1.563,5.92,5.013,7.733,6.618.102.12.215.241.338.372.561.599,1.261,1.346,1.536,2.814l.728,3.272c.155.698.6,1.279,1.086,1.908.064.083.129.166.207.271,0,0,1.87,3.051,1.846,3.018,3.575,4.149,11.635,15.679,13.92,20.502.102.214.199.418.293.613,2.027,4.228,2.185,4.647,1.8,28.487-.326,20.204-2.252,31.7-5.669,38.664-1.513,3.085-3.32,5.283-5.409,6.954-.954.763-1.995,1.449-3.605,2.064-3.62,1.383-10.118,2.408-25.029,3.232-1.585.087-3.417.573-5.59,1.15-3.469.921-7.746,2.058-13.055,2.058h-142.302c-5.308,0-9.586-1.136-13.055-2.058-2.172-.577-4.005-1.062-5.59-1.15-14.911-.823-21.409-1.848-25.029-3.232-1.61-.615-2.651-1.301-3.605-2.064-2.089-1.671-3.896-3.869-5.409-6.954-3.417-6.965-5.342-18.46-5.669-38.664-.385-23.839-.227-24.258,1.8-28.487.094-.195.191-.399.293-.613,2.277-4.808,10.333-18.215,13.976-22.426,0,0,1.868-1.174,1.806-1.118.063-.083.127-.166.191-.248.486-.628.93-1.21,1.086-1.908,0,0,.728-3.272.727-3.264.277-1.476.977-2.223,1.538-2.822.123-.132.236-.252.363-.398,1.787-1.579,5.859-5.029,7.707-6.592.657-.555,1.484-.861,2.344-.868,7.209-.057,52.445-.086,97.679-.086s90.47.029,97.679.086Z" style="fill:none; stroke:#687581; stroke-linecap:round; stroke-linejoin:round; stroke-width:.5px;"/></g><path d="m565.546,79.602c.801.006,1.572.291,2.184.809,1.849,1.563,5.919,5.011,7.703,6.588.589.696,1.499,1.366,1.821,3.079l.728,3.272c.192.863.788,1.551,1.323,2.255l1.87,3.051c3.567,4.139,11.611,15.65,13.883,20.446,2.272,4.796,2.472,4.001,2.068,28.989-.471,29.131-4.269,40.055-10.984,45.427-3.059,2.447-6.982,4.054-28.492,5.241-4.206.232-10.069,3.207-18.631,3.207h-142.302c-8.562,0-14.425-2.975-18.631-3.207-21.51-1.188-25.433-2.794-28.492-5.241-6.715-5.372-10.514-16.296-10.984-45.427-.404-24.987-.203-24.193,2.068-28.989,2.272-4.796,10.317-18.182,13.883-22.321l1.87-1.176c.536-.704,1.131-1.392,1.323-2.255l.728-3.272c.321-1.714,1.232-2.383,1.821-3.079,1.785-1.577,5.854-5.025,7.703-6.588.612-.517,1.383-.802,2.184-.809,7.208-.057,52.442-.086,97.677-.086s90.469.029,97.677.086Z" style="fill:none; stroke:#687581; stroke-linecap:round; stroke-linejoin:round; stroke-width:.5px;"/><path d="m548.206,200.829c.002,2.125.004,15.166.004,16.042,0,8.254,1.661,9.282,5.455,9.282,1.186,0,3.886.02,6.956.036" style="fill:none; stroke:#687581; stroke-linecap:round; stroke-linejoin:round; stroke-width:.5px;"/><path d="m387.341,200.829c-.003,2.129-.005,15.173-.005,16.05,0,8.261-1.663,9.281-5.456,9.281-1.182,0-3.88.02-6.952.04" style="fill:none; stroke:#687581; stroke-linecap:round; stroke-linejoin:round; stroke-width:.5px;"/><line x1="365.32" y1="82.689" x2="570.419" y2="82.689" style="fill:none; stroke:#687581; stroke-linecap:round; stroke-linejoin:round; stroke-width:.5px;"/><path d="m557.703,109.96c0,7.609-.218,13.62-.425,17.618-.165,3.194-2.745,5.716-5.941,5.818-9.642.31-33.41.837-83.468.837-50.058,0-73.827-.527-83.468-.837-3.196-.103-5.776-2.625-5.941-5.818-.207-3.997-.425-10.008-.425-17.618" style="fill:none; stroke:#687581; stroke-linecap:round; stroke-linejoin:round; stroke-width:.5px;"/><path d="m556.831,94.078c-.973-2.08-3.075-3.516-5.503-3.543-14.927-.165-56.451-.596-83.458-.596-27.007,0-68.531.431-83.458.596-2.428.027-4.53,1.463-5.503,3.543" style="fill:none; stroke:#687581; stroke-linecap:round; stroke-linejoin:round; stroke-width:.5px;"/><path d="m432.898,118.108c1.792,0,2.625,1.198,2.625,2.427,0,1.125-.635,1.875-1.781,2.136l2.146,2.73h-1.917l-1.542-1.969c-.25-.323-.552-.458-.958-.458h-.868v-.457c0-.548.308-.856.856-.856h1.21c.875,0,1.292-.427,1.292-1.125,0-.688-.417-1.115-1.292-1.115h-2.844v5.98h-1.563v-7.293h4.636m0-.5h-4.636c-.276,0-.5.224-.5.5v7.293c0,.276.224.5.5.5h1.563c.276,0,.5-.224.5-.5v-2.011c.079.053.175.084.278.084h.868c.261,0,.414.072.563.264l1.544,1.971c.095.121.24.192.394.192h1.917c.191,0,.366-.109.45-.281s.062-.377-.057-.528l-1.712-2.177c.933-.444,1.454-1.281,1.454-2.379,0-1.41-.978-2.927-3.125-2.927h0Zm-2.573,2.313h2.344c.696,0,.792.295.792.615,0,.325-.096.625-.792.625h-1.21c-.507,0-.904.202-1.134.549v-1.789h0Z" style="fill:#687581; stroke-width:0px;"/><path d="m446.612,118.108v7.293h-1.563v-7.293h1.563m0-.5h-1.563c-.276,0-.5.224-.5.5v7.293c0,.276.224.5.5.5h1.563c.276,0,.5-.224.5-.5v-7.293c0-.276-.224-.5-.5-.5h0Z" style="fill:#687581; stroke-width:0px;"/><path d="m464.655,118.108h.005m-.005,0l-3.48,7.293h-1.667l-3.48-7.293h1.667l2.646,5.647,2.646-5.647h1.667m.005-.5h-1.672c-.194,0-.37.112-.453.288l-2.193,4.681-2.193-4.681c-.082-.176-.259-.288-.453-.288h-1.667c-.172,0-.331.088-.423.233-.092.145-.102.327-.028.482l3.48,7.293c.083.174.259.285.451.285h1.667c.193,0,.368-.111.451-.285l3.462-7.256c.044-.074.069-.16.069-.252,0-.276-.221-.5-.497-.5h0Zm-.005,1h.005-.005Z" style="fill:#687581; stroke-width:0px;"/><path d="m475.531,118.108v7.293h-1.563v-7.293h1.563m0-.5h-1.563c-.276,0-.5.224-.5.5v7.293c0,.276.224.5.5.5h1.563c.276,0,.5-.224.5-.5v-7.293c0-.276-.224-.5-.5-.5h0Z" style="fill:#687581; stroke-width:0px;"/><path d="m490.166,118.108l3.584,7.293h-1.667l-2.75-5.699-1.386,2.875h1.386c.479,0,.802.198,1,.625l.323.688h-2.709c-.438,0-.729.177-.917.573l-.448.938h-1.667l3.584-7.293h1.667m0-.5h-1.667c-.191,0-.365.108-.449.279l-3.584,7.293c-.076.155-.067.338.024.485.091.147.252.236.424.236h1.667c.193,0,.368-.111.451-.284l.448-.938c.104-.219.217-.289.466-.289h2.709c.121,0,.237-.044.326-.121l.651,1.349c.083.173.258.283.45.283h1.667c.173,0,.333-.089.424-.236.091-.147.1-.33.024-.485l-3.584-7.293c-.084-.171-.258-.279-.449-.279h0Zm-1.423,4.469l.59-1.224.647,1.341c-.193-.077-.41-.117-.648-.117h-.59Z" style="fill:#687581; stroke-width:0px;"/><path d="m510.806,118.108v7.293h-1.792l-4.365-5.417v5.417h-1.511v-7.293h1.792l4.365,5.418v-5.418h1.511m0-.5h-1.511c-.276,0-.5.224-.5.5v4l-3.476-4.314c-.095-.118-.238-.186-.389-.186h-1.792c-.276,0-.5.224-.5.5v7.293c0,.276.224.5.5.5h1.511c.276,0,.5-.224.5-.5v-4l3.476,4.314c.095.118.238.186.389.186h1.792c.276,0,.5-.224.5-.5v-7.293c0-.276-.224-.5-.5-.5h0Z" style="fill:#687581; stroke-width:0px;"/><polygon points="388.967 141.382 388.967 142.274 385.474 142.274 385.474 145.889 383.69 145.889 383.69 142.274 380.162 142.274 380.162 141.382 388.967 141.382" style="fill:#687581; stroke-width:0px;"/><path d="m384.439,139.122c.487,0,.882-.395.882-.882,0-.478-.388-.866-.866-.866h-4.294v2.593h1.173v-.844h1.582l1.391.844h1.082v-.262l-.951-.583Zm-3.104-.595v-.559h2.581c.155,0,.285.131.285.274,0,.155-.131.285-.285.285h-2.581Z" style="fill:#687581; stroke-width:0px;"/><polygon points="386.77 138.479 386.77 138.083 387.676 137.474 388.967 137.474 388.967 139.964 387.775 139.964 387.775 138.479 386.77 138.479" style="fill:#687581; stroke-width:0px;"/><path d="m543.21,25.906c1.233.188,2.267,1.032,2.697,2.203l18.926,51.487" style="fill:none; stroke:#687581; stroke-linecap:round; stroke-linejoin:round; stroke-width:.5px;"/><path d="m392.505,25.906c-1.233.188-2.267,1.032-2.697,2.203l-18.926,51.487" style="fill:none; stroke:#687581; stroke-linecap:round; stroke-linejoin:round; stroke-width:.5px;"/><path d="m417.912,30.127l-1.428,1.858c-.117.152-.135.358-.046.527s.268.272.459.263c4.506-.213,22.54-1.019,37.897-1.036.271,0,.491-.22.491-.492v-2.224" style="fill:none; stroke:#687581; stroke-linecap:round; stroke-linejoin:round; stroke-width:.5px;"/><path d="m517.803,30.127l1.428,1.858c.117.152.135.358.046.527s-.268.272-.459.263c-4.506-.213-22.54-1.019-37.897-1.036-.271,0-.491-.22-.491-.492v-2.224" style="fill:none; stroke:#687581; stroke-linecap:round; stroke-linejoin:round; stroke-width:.5px;"/><path d="m535.665,181.347c0,.437-.354.79-.79.79h-7.008c-.437,0-.79-.354-.79-.79s.354-.79.79-.79h7.008c.437,0,.79.354.79.79Z" style="fill:none; stroke:#687581; stroke-linecap:round; stroke-linejoin:round; stroke-width:.5px;"/><path d="m400.074,181.347c0,.437.354.79.79.79h7.008c.437,0,.79-.354.79-.79s-.354-.79-.79-.79h-7.008c-.437,0-.79.354-.79.79Z" style="fill:none; stroke:#687581; stroke-linecap:round; stroke-linejoin:round; stroke-width:.5px;"/><g id="uuid-eb3556ce-bab1-46cb-8708-e5afa36ce83f"><path d="m598.131,148.102c-.038,2.729-.112,5.29-.224,7.706l-.133,79.17c0,4.897-.474,7.963-1.732,9.783-.469.679-1.043,1.18-1.715,1.533-1.175.616-2.576.736-4.049.736-1.067,0-3.179.014-5.744.031-1.766.012-3.744.025-5.748.035-1.977-.011-3.94-.024-5.697-.035-2.577-.017-4.705-.031-5.784-.031-1.473,0-2.874-.119-4.049-.736-.672-.353-1.245-.853-1.715-1.533-1.258-1.82-1.732-4.886-1.732-9.783,0-2.508,0-10.06-.013-19.103l-.037-16.234c-.259.015-.52.03-.784.045-.414.024-.834.048-1.265.074-1.485.084-3.228.542-5.416,1.124-3.473.923-7.841,2.086-13.27,2.086h-142.303c-5.416,0-9.777-1.161-13.25-2.083-2.194-.583-3.944-1.042-5.44-1.127-.427-.026-.846-.05-1.259-.074-.264-.015-.525-.03-.784-.045,0,0-.025,16.234-.025,16.234-.004,2.565-.007,5.01-.011,7.254-.009,5.669-.015,10.053-.015,11.849,0,4.897-.474,7.963-1.732,9.783-.469.679-1.043,1.18-1.715,1.533-1.175.617-2.576.736-4.049.736-1.075,0-3.188.014-5.752.031-1.763.012-3.737.025-5.74.035-1.992-.011-3.966-.024-5.73-.035-2.564-.017-4.677-.031-5.752-.031-1.473,0-2.874-.119-4.049-.736-.672-.353-1.245-.853-1.715-1.533-1.258-1.82-1.732-4.886-1.732-9.783,0-5.356-.053-37.8-.088-59.384-.018-10.755-.031-18.814-.031-19.479,0,0,0-.018,0-.013-.119-2.502-.198-5.16-.238-7.998-.377-23.755-.243-24.391,1.879-28.818.093-.195.19-.395.29-.607,2.293-4.839,10.378-18.313,14.022-22.551l.099-.115,1.854-1.162c.02-.026.04-.052.06-.077.259-.331.472-.61.634-.872-.738-.05-1.498-.113-2.26-.211-4.093-.553-8.129-1.721-9.634-2.972-.759-.639-1.393-1.345-1.802-2.224-.333-.716-.495-1.5-.495-2.383,0-.554.052-1.265.106-2.023.037-.508.076-1.051.107-1.622.085-1.578.386-2.673,1.408-3.604.339-.308.624-.587.944-.901.468-.459.994-.974,1.809-1.693,1.463-1.305,3.899-2.644,6.13-3.038,2.046-.361,6.254-.945,8.659-1.197,1.329-.147,2.683-.149,3.755.536.124.079.242.166.352.26,7.815-19.2,14.891-37.008,14.886-36.995,1.74-4.568,3.269-7.174,5.172-8.692,1.948-1.554,4.167-1.856,6.857-2.234,29.486-2.62,57.233-3.243,68.933-3.398v-.174c0-.349.114-.666.294-.927.261-.377.646-.619,1.017-.758.257-.1.663-.326,1.083-.87.544-.704,1.154-1.995,1.442-4.43.036-.181.06-.377.088-.621.058-.497.129-1.553.872-2.215.466-.415,1.068-.58,1.737-.58s1.276.168,1.743.587c.75.674.814,1.753.869,2.264.024.226.045.414.075.586.043.239.071.557.097.852.111,1.237.278,2.77.995,3.683.23.292.506.504.846.62.423.137.836.389,1.115.772.183.251.317.575.317.945v.268c12.437.179,40.404.836,69.38,3.402,2.639.371,4.857.674,6.807,2.227,1.905,1.517,3.437,4.123,5.18,8.679,0,0,7.076,17.808,14.879,37.009.11-.093.227-.179.351-.258,1.076-.687,2.436-.686,3.764-.54,2.397.253,6.605.837,8.651,1.198,2.23.394,4.667,1.732,6.125,3.034.82.723,1.346,1.239,1.814,1.698.32.313.605.592.944.9,1.022.931,1.323,2.026,1.408,3.603.031.57.07,1.112.106,1.62.055.759.106,1.471.106,2.025,0,.889-.161,1.678-.497,2.399-.405.871-1.032,1.573-1.792,2.212-1.5,1.247-5.551,2.416-9.636,2.969-.763.098-1.523.16-2.257.21.157.252.358.519.599.833.066.086.135.176.258.346l1.833,2.983c3.625,4.237,11.659,15.737,13.97,20.615.102.216.2.42.295.619,2.118,4.416,2.262,5.073,1.873,28.804Z" style="fill:none; stroke:#687581; stroke-linecap:round; stroke-linejoin:round; stroke-width:1px;"/><path d="m597.631,148.095c-.038,2.729-.113,5.288-.224,7.701l-.133,79.182c0,4.908-.485,7.822-1.643,9.498-.424.614-.936,1.06-1.536,1.374-1.061.556-2.355.678-3.817.678-1.069,0-3.183.014-5.747.031-1.766.012-3.744.025-5.742.035-1.977-.011-3.94-.024-5.697-.035-2.576-.017-4.706-.031-5.787-.031-1.462,0-2.756-.122-3.817-.678-.599-.314-1.112-.76-1.536-1.374-1.159-1.677-1.643-4.591-1.643-9.498,0-2.508,0-10.06-.013-19.104l-.038-16.764c-.43.027-.867.052-1.311.077-.414.024-.834.048-1.265.074-1.547.088-3.344.563-5.516,1.14-3.472.922-7.784,2.069-13.142,2.069h-142.303c-5.344,0-9.65-1.145-13.122-2.067-2.178-.578-3.982-1.055-5.538-1.143-.428-.026-.848-.05-1.261-.074-.445-.025-.882-.05-1.312-.077,0,0-.026,16.764-.026,16.764-.004,2.565-.007,5.01-.011,7.254-.009,5.668-.015,10.053-.015,11.85,0,4.908-.485,7.822-1.643,9.498-.424.614-.936,1.06-1.536,1.374-1.061.556-2.355.678-3.817.678-1.077,0-3.192.014-5.755.031-1.763.012-3.737.025-5.734.035-1.992-.011-3.966-.024-5.729-.035-2.563-.017-4.678-.031-5.755-.031-1.462,0-2.756-.122-3.817-.678-.599-.314-1.112-.76-1.536-1.374-1.159-1.677-1.643-4.591-1.643-9.498,0-5.357-.053-37.801-.088-59.384-.018-10.755-.031-18.814-.031-19.478,0,0,0-.032,0-.023-.119-2.5-.198-5.156-.238-7.996-.377-23.811-.229-24.299,1.83-28.594.093-.194.19-.396.291-.609,2.282-4.816,10.345-18.247,13.949-22.439l.049-.057,1.864-1.168c.038-.049.076-.098.114-.146.45-.575.828-1.069,1.004-1.632-.961-.059-1.961-.126-2.956-.255-4.099-.554-7.999-1.712-9.379-2.859-.726-.611-1.303-1.262-1.671-2.052-.299-.642-.448-1.352-.448-2.172,0-.532.05-1.222.105-1.987.037-.508.076-1.055.107-1.631.082-1.522.365-2.459,1.246-3.261.347-.315.638-.6.957-.913.467-.457.985-.965,1.792-1.677,1.405-1.253,3.759-2.543,5.884-2.918,2.033-.359,6.23-.941,8.627-1.193,1.319-.146,2.517-.124,3.431.461.307.196.569.447.789.754,7.932-19.477,15.188-37.739,15.186-37.732,1.736-4.557,3.226-7.051,5.016-8.479,1.824-1.455,3.899-1.749,6.59-2.127,29.891-2.656,57.996-3.259,69.389-3.402v-.668c0-.238.077-.457.205-.642.187-.27.475-.46.787-.577.337-.131.819-.411,1.297-1.03.615-.796,1.248-2.182,1.536-4.637.041-.205.067-.422.095-.662.065-.56.136-1.39.708-1.899.347-.309.817-.454,1.404-.454s1.061.146,1.409.459c.579.52.644,1.37.706,1.945.024.223.046.428.081.621.038.211.064.502.091.808.107,1.198.274,2.896,1.1,3.947.281.358.635.633,1.085.787.348.113.662.312.864.59.132.181.221.404.221.651v.761c12.173.169,40.489.808,69.811,3.405,2.665.375,4.739.669,6.565,2.123,1.792,1.428,3.286,3.921,5.027,8.473,0,0,7.256,18.262,15.176,37.74.22-.306.481-.556.788-.752.919-.587,2.122-.609,3.442-.464,2.387.252,6.584.834,8.616,1.193,2.125.375,4.479,1.665,5.881,2.917.81.714,1.328,1.222,1.795,1.68.319.313.61.598.957.913.881.802,1.163,1.739,1.245,3.261.031.575.07,1.122.107,1.629.055.766.105,1.457.105,1.99,0,.826-.149,1.541-.45,2.188-.364.783-.934,1.429-1.658,2.039-1.377,1.145-5.291,2.304-9.38,2.858-1.006.129-2.009.196-2.963.254.179.548.543,1.032.971,1.589.066.086.134.175.228.303,0,0,1.875,3.05,1.828,2.986,3.582,4.166,11.653,15.717,13.95,20.564.103.217.201.423.296.621,2.055,4.284,2.214,4.794,1.824,28.581Z" style="fill:none; stroke:#687581; stroke-linecap:round; stroke-linejoin:round; stroke-width:1px;"/></g><path d="m597.131,148.088c-.04,2.839-.119,5.492-.238,7.988h.013s-.132,70.756-.132,78.902c0,9.836-1.98,11.051-6.496,11.051-1.809,0-6.602.04-11.487.066-4.872-.026-9.665-.066-11.487-.066-4.516,0-6.496-1.215-6.496-11.051,0-2.509,0-10.061-.013-19.105l-.039-17.296c-.99.066-2.02.119-3.103.185-4.199.238-10.061,3.208-18.63,3.208h-142.303c-8.556,0-14.418-2.971-18.629-3.208-1.083-.066-2.113-.119-3.103-.185l-.026,17.296c-.013,9.044-.026,16.596-.026,19.105,0,9.836-1.98,11.051-6.496,11.051-1.822,0-6.602.04-11.487.066-4.885-.026-9.665-.066-11.487-.066-4.516,0-6.496-1.215-6.496-11.051,0-8.027-.119-76.869-.119-78.862v-.04c-.119-2.495-.198-5.149-.238-7.988-.396-24.98-.198-24.188,2.073-28.981,2.271-4.793,10.312-18.181,13.877-22.327l1.875-1.175c.541-.7,1.135-1.386,1.32-2.258l.079-.357-.158-.013c-1.096-.066-2.231-.132-3.354-.277-4.106-.555-7.869-1.703-9.123-2.746-1.254-1.056-1.941-2.152-1.941-3.842,0-.845.132-2.126.211-3.591.079-1.466.343-2.245,1.083-2.918.871-.792,1.399-1.4,2.746-2.588,1.347-1.202,3.618-2.443,5.638-2.799,2.02-.357,6.205-.937,8.595-1.188,2.152-.238,3.578.04,4.212,1.928,8.094-19.858,15.606-38.764,15.606-38.764,3.486-9.15,5.836-9.533,11.183-10.285,30.314-2.693,58.794-3.274,69.844-3.406v-1.162c0-.317.251-.594.674-.753.95-.37,2.627-1.624,3.142-6.034.238-1.175-.013-2.614,1.716-2.614,1.716,0,1.492,1.426,1.703,2.614.198,1.096.053,5.057,2.615,5.928.449.145.739.449.739.766v1.254c11.883.158,40.56.779,70.241,3.406,5.347.753,7.697,1.135,11.196,10.285,0,0,7.513,18.907,15.593,38.764.634-1.888,2.073-2.165,4.225-1.928,2.377.251,6.562.832,8.582,1.188,2.02.356,4.291,1.598,5.637,2.799,1.347,1.188,1.875,1.796,2.746,2.588.739.673,1.003,1.452,1.083,2.918.079,1.466.211,2.746.211,3.591,0,1.69-.673,2.786-1.928,3.842-1.254,1.043-5.03,2.192-9.123,2.746-1.136.145-2.271.211-3.354.277l-.172.013.079.357c.198.871.792,1.558,1.32,2.258l1.875,3.05c3.565,4.146,11.606,15.659,13.877,20.452,2.271,4.793,2.482,4.001,2.073,28.981Z" style="fill:none; stroke:#687581; stroke-linecap:round; stroke-linejoin:round; stroke-width:1px;"/><path d="m467.869,109.662c52.684,0,107.941.423,110.336.423,2.395,0,2.536-.564,2.747-1.691.458-3.311.211-6.128-.07-8.347s-.741-3.464-1.511-4.113c-1.507-1.272-2.77-1.259-4.897-1.294-2.998-.05-106.605,0-106.605,0,0,0-103.607-.05-106.605,0-2.127.035-3.389.022-4.897,1.294-.77.65-1.229,1.894-1.511,4.113-.282,2.219-.528,5.036-.07,8.347.211,1.127.352,1.691,2.747,1.691s57.652-.423,110.336-.423Z" style="fill:#404d59; stroke-width:0px;"/><path d="m372.05,109.996c.002-4.83.046-9.788.152-14.721.007-.221.014-.439.022-.654" style="fill:none; stroke:#aebbc7; stroke-linecap:round; stroke-linejoin:round; stroke-width:.75px;"/><path d="m354.539,105.187l.156-.029s3.177-.538,17.379-.538,95.798-.43,95.798-.43c0,0,81.596.43,95.798.43s17.379.538,17.379.538l.147.029" style="fill:none; stroke:#aebbc7; stroke-linecap:round; stroke-linejoin:round; stroke-width:.5px;"/><path d="m467.869,109.662c52.684,0,107.941.423,110.336.423,2.395,0,2.536-.564,2.747-1.691.458-3.311.211-6.128-.07-8.347s-.741-3.464-1.511-4.113c-1.507-1.272-2.77-1.259-4.897-1.294-2.998-.05-106.605,0-106.605,0,0,0-103.607-.05-106.605,0-2.127.035-3.389.022-4.897,1.294-.77.65-1.229,1.894-1.511,4.113-.282,2.219-.528,5.036-.07,8.347.211,1.127.352,1.691,2.747,1.691s57.652-.423,110.336-.423Z" style="fill:none; stroke:#aebbc7; stroke-linecap:round; stroke-linejoin:round;"/><path d="m563.689,109.996c-.002-4.83-.046-9.787-.152-14.721-.007-.221-.014-.439-.022-.654" style="fill:none; stroke:#aebbc7; stroke-linecap:round; stroke-linejoin:round; stroke-width:.75px;"/><path d="m419.493,30.071c-1,.032-1.931.511-2.54,1.304l-.469.61c-.117.152-.135.358-.046.527s.268.272.459.263c4.506-.213,22.54-1.019,37.897-1.036.271,0,.491-.22.491-.492v-1.343c0-.232-.094-.454-.259-.616s-.39-.25-.622-.245c-11.264.257-25.133.711-34.911,1.027,0,0,0,0,0,0Z" style="fill:#404d59; stroke-width:0px;"/><path d="m480.429,29.905c0-.232.094-.454.259-.616s.39-.25.622-.245c11.264.257,25.133.711,34.911,1.027,1,.032,1.931.511,2.54,1.304l.469.61c.117.152.135.358.046.527s-.268.272-.459.263c-4.506-.213-22.54-1.019-37.897-1.036-.271,0-.491-.22-.491-.492v-1.343Z" style="fill:#404d59; stroke-width:0px;"/><path d="m419.493,30.071c-1,.032-1.931.511-2.54,1.304l-.469.61c-.117.152-.135.358-.046.527s.268.272.459.263c4.506-.213,22.54-1.019,37.897-1.036.271,0,.491-.22.491-.492v-1.339c0-.233-.094-.456-.261-.619s-.392-.252-.625-.246c-11.264.257-25.13.711-34.907,1.027,0,0,0,0,0,0Z" style="fill:none; stroke:#aebbc7; stroke-linecap:round; stroke-linejoin:round;"/><path d="m480.429,29.909c0-.233.094-.456.261-.619s.392-.252.625-.246c11.264.257,25.13.711,34.907,1.027,1,.032,1.931.511,2.54,1.304l.469.61c.117.152.135.358.046.527s-.268.272-.459.263c-4.506-.213-22.54-1.019-37.897-1.036-.271,0-.491-.22-.491-.492v-1.339Z" style="fill:none; stroke:#aebbc7; stroke-linecap:round; stroke-linejoin:round;"/><path d="m535.665,181.347c0,.437-.354.79-.79.79h-7.008c-.437,0-.79-.354-.79-.79s.354-.79.79-.79h7.008c.437,0,.79.354.79.79Z" style="fill:#404d59; stroke:#aebbc7; stroke-linecap:round; stroke-linejoin:round;"/><path d="m400.074,181.347c0,.437.354.79.79.79h7.008c.437,0,.79-.354.79-.79s-.354-.79-.79-.79h-7.008c-.437,0-.79.354-.79.79Z" style="fill:#404d59; stroke:#aebbc7; stroke-linecap:round; stroke-linejoin:round;"/><path d="m121.279,119.078v19.077c0,5.235-4.241,9.476-9.476,9.476s-9.476-4.241-9.476-9.476v-20.032c0-.459.029-.917.096-1.356.296-2.073,1.271-3.936,2.684-5.35l.191-.191c1.691-1.605,3.984-2.589,6.505-2.589,2.493,0,4.757.965,6.448,2.541,1.538,1.433,2.608,3.372,2.933,5.55.057.459.096.917.096,1.395v.955Zm-2.923,19.077v-20.032c0-3.621-2.942-6.553-6.553-6.553s-6.553,2.933-6.553,6.553v20.032c0,3.611,2.942,6.553,6.553,6.553s6.553-2.942,6.553-6.553Z" style="fill:#404d59; stroke-width:0px;"/><path d="m114.305,115.754c.812,1.156.812,2.703,0,3.859h-4.996c-.267-.373-1.251-2.083,0-3.859h4.996Z" style="fill:#404d59; stroke-width:0px;"/><path d="m114.305,121.638c.812,1.156.812,2.703,0,3.869h-4.996c-.267-.382-1.251-2.092,0-3.869h4.996Z" style="fill:#404d59; stroke-width:0px;"/><path d="m114.305,130.14c.812,1.165.812,2.713,0,3.869h-4.996c-1.251-1.777-.267-3.487,0-3.869h4.996Z" style="fill:#404d59; stroke-width:0px;"/><path d="m114.305,136.025c.812,1.165.812,2.713,0,3.869h-4.996c-1.251-1.777-.267-3.487,0-3.869h4.996Z" style="fill:#404d59; stroke-width:0px;"/><path d="m267.732,136.025c.267.382,1.251,2.092,0,3.869h-4.996c-.822-1.156-.822-2.703,0-3.869h4.996Z" style="fill:#404d59; stroke-width:0px;"/><path d="m267.732,130.14c.267.382,1.251,2.092,0,3.869h-4.996c-.822-1.156-.822-2.703,0-3.869h4.996Z" style="fill:#404d59; stroke-width:0px;"/><path d="m267.732,121.638c1.251,1.777.267,3.487,0,3.869h-4.996c-.822-1.165-.822-2.713,0-3.869h4.996Z" style="fill:#404d59; stroke-width:0px;"/><path d="m267.732,115.754c1.251,1.777.267,3.487,0,3.859h-4.996c-.822-1.156-.822-2.703,0-3.859h4.996Z" style="fill:#404d59; stroke-width:0px;"/><path d="m274.715,123.912v14.243c0,5.235-4.241,9.476-9.476,9.476s-9.476-4.241-9.476-9.476v-20.032c0-.478.038-.936.096-1.395.315-2.111,1.328-3.993,2.789-5.416,1.7-1.653,4.031-2.675,6.591-2.675,2.512,0,4.805.984,6.496,2.589.067.057.134.124.201.191,1.414,1.414,2.388,3.277,2.684,5.35.067.439.096.898.096,1.356v5.789Zm-2.933,14.243v-20.032c0-3.621-2.933-6.553-6.544-6.553s-6.553,2.933-6.553,6.553v20.032c0,3.611,2.942,6.553,6.553,6.553s6.544-2.942,6.544-6.553Z" style="fill:#404d59; stroke-width:0px;"/><path d="m69.904,113.585c.267-1.395,1.49-2.407,2.914-2.407-1.49.363-1.404,1.691-1.404,1.691l-.191,5.799c-.029.822.592,1.423,1.404,1.614l2.837.325s.143-1.528,1.949-1.528h24.914v4.834h-30.063c-.134,0-.258-.01-.382-.029-1.528-.201-2.675-1.576-2.531-3.152.296-3.305.258-5.617.554-7.145Z" style="fill:#404d59; stroke-width:0px;"/><path d="m77.412,119.078c-1.805,0-1.949,1.528-1.949,1.528v-2.732c0-.63.516-1.146,1.156-1.146h25.487l.315.038c-.067.439-.096.898-.096,1.356v.955h-24.914Z" style="fill:#404d59; stroke-width:0px;"/><path d="m72.817,111.178h32.432l.048.048-.191.191c-1.414,1.414-2.388,3.277-2.684,5.35l-.315-.038h-25.487c-.64,0-1.156.516-1.156,1.146v2.732l-2.837-.325c-.812-.191-1.433-.793-1.404-1.614l.191-5.799s-.086-1.328,1.404-1.691Z" style="fill:#404d59; stroke-width:0px;"/><path d="m307.128,113.585c.296,1.528.267,3.84.564,7.145.143,1.576-1.003,2.952-2.531,3.152-.124.019-.258.029-.392.029h-30.053v-4.834h24.914c1.796,0,1.939,1.528,1.939,1.528l2.837-.325c.822-.191,1.433-.793,1.414-1.614l-.201-5.799s.086-1.328-1.404-1.691c1.423,0,2.646,1.013,2.914,2.407Z" style="fill:#404d59; stroke-width:0px;"/><path d="m271.936,111.417c-.067-.067-.134-.134-.201-.191l.048-.048h32.432c1.49.363,1.404,1.691,1.404,1.691l.201,5.799c.019.822-.592,1.423-1.414,1.614l-2.837.325v-2.732c0-.63-.516-1.146-1.146-1.146h-25.496l-.306.038c-.296-2.073-1.271-3.936-2.684-5.35Z" style="fill:#404d59; stroke-width:0px;"/><path d="m299.629,119.078h-24.914v-.955c0-.459-.029-.917-.096-1.356l.306-.038h25.496c.63,0,1.146.516,1.146,1.146v2.732s-.143-1.528-1.939-1.528Z" style="fill:#404d59; stroke-width:0px;"/><path d="m121.183,116.728h134.675c-.057.459-.096.917-.096,1.395v.955H121.279v-.955c0-.478-.038-.936-.096-1.395Z" style="fill:#404d59; stroke-width:0px;"/><path d="m258.514,111.178l.134.134c-1.462,1.423-2.474,3.305-2.789,5.416H121.183c-.325-2.178-1.395-4.117-2.933-5.55h140.264Z" style="fill:#404d59; stroke-width:0px;"/><rect x="121.279" y="119.078" width="134.484" height="4.834" style="fill:#404d59; stroke-width:0px;"/><path d="m304.215,111.177c-.065-2.377-.118-4.424-.144-5.698-.114-5.536-3.174-8.994-3.727-9.416" style="fill:none; stroke:#687581; stroke-linecap:round; stroke-linejoin:round; stroke-width:1px;"/><path d="m305.159,123.911c0,1.401.807,13.772.807,18.667,0,3.424.093,5.524,3.197,5.483,3.103-.041,3.088-2.058,3.088-5.063" style="fill:none; stroke:#687581; stroke-linecap:round; stroke-linejoin:round; stroke-width:1px;"/><path d="m268.544,212.839v4.633c0,8.206,1.653,9.228,5.416,9.228,1.185,0,3.869.019,6.916.029h.029" style="fill:#141b21; stroke:#687581; stroke-miterlimit:10;"/><path d="m108.699,212.841c-.003,2.115-.005,3.767-.005,4.639,0,8.209-1.653,9.222-5.421,9.222-1.174,0-3.855.02-6.908.039" style="fill:#141b21; stroke:#687581; stroke-miterlimit:10;"/><g id="uuid-2f1581ac-8d97-4387-98e5-59c78cb646f2"><path d="m323.895,82.27c0,.994-.181,1.872-.557,2.669-.444.943-1.127,1.706-1.958,2.393-1.659,1.375-6.133,2.681-10.706,3.291-1.573.213-3.164.292-4.588.362-2.454.122-4.149.234-4.97.701-.162.092-.239.174-.277.231-.569.856-1.039,1.577-1.361,2.074.645.545,1.245,1.068,1.749,1.524,2.81,2.555,11.398,15.345,13.63,20.041,2.026,4.276,2.068,13.037,2.21,30.814.022,2.714.045,5.644.077,8.809.051,5.045-.102,10.04-.446,14.721,0,1.007-.014,9.282-.032,19.666-.03,17.5-.07,40.993-.07,45.804,0,4.723-.457,7.691-1.677,9.457-.456.66-1.013,1.147-1.667,1.49-1.142.599-2.501.714-3.922.714-1.027,0-3.058.013-5.526.03-1.707.011-3.621.024-5.56.034-1.912-.01-3.811-.023-5.51-.034-2.48-.016-4.527-.03-5.566-.03-1.421,0-2.779-.115-3.92-.714-.653-.343-1.209-.831-1.664-1.491-1.216-1.766-1.67-4.734-1.67-9.456,0-1.715-.006-5.896-.015-11.296-.003-1.968-.006-4.097-.01-6.328-.849-.17-1.707-.458-2.351-.831,0,0-4.14-2.369-4.144-2.372-.346-.201-1.051-.413-1.469-.441,0,0-8.763-.637-8.76-.637-.819-.057-1.545-.44-2.064-.996-.341-.366-.602-.816-.741-1.316-5.258.233-11.168.397-17.849.494-.436,0-.863-.094-1.263-.266-.312-.14-.786-.307-1.298-.307h-102.864c-.523,0-.984.167-1.313.314-.391.167-.83.259-1.275.259-6.667-.096-12.566-.261-17.823-.494-.14.498-.4.946-.739,1.309-.522.56-1.254.946-2.074,1.003,0,0-8.75.637-8.755.637-.414.028-1.118.24-1.469.443,0,0-4.14,2.369-4.135,2.367-.648.376-1.507.663-2.355.834-.003,2.016-.006,3.949-.009,5.755-.009,5.676-.015,10.093-.015,11.869,0,4.723-.457,7.691-1.677,9.457-.456.66-1.013,1.147-1.667,1.49-1.142.599-2.501.714-3.923.714-1.027,0-3.058.013-5.526.03-1.707.011-3.621.024-5.561.034-1.912-.01-3.812-.023-5.51-.034-2.48-.016-4.527-.03-5.565-.03-1.421,0-2.779-.115-3.92-.714-.653-.343-1.209-.831-1.664-1.491-1.216-1.766-1.67-4.734-1.67-9.456,0-4.815-.04-28.35-.07-45.856-.018-10.362-.032-18.613-.029-19.541-.346-4.754-.5-9.749-.449-14.794.032-3.165.055-6.095.077-8.809.142-17.777.184-26.538,2.21-30.813,2.219-4.696,10.808-17.488,13.633-20.044.503-.455,1.097-.971,1.737-1.517-.322-.497-.794-1.22-1.364-2.079-.038-.058-.116-.139-.277-.231-.821-.467-2.515-.579-4.965-.701-1.422-.071-3.011-.149-4.578-.362-4.572-.61-9.064-1.915-10.707-3.29-.836-.691-1.526-1.458-1.973-2.409-.373-.793-.555-1.666-.555-2.654,0-.569.052-1.298.108-2.076.043-.612.09-1.274.123-1.977.056-1.029.192-1.899.553-2.652.246-.512.579-.936.99-1.303.36-.332.666-.633,1.002-.964.535-.527,1.128-1.111,2.07-1.941,1.629-1.438,4.327-2.923,6.807-3.368,2.282-.4,6.991-1.039,9.666-1.334,1.55-.171,3.105-.161,4.297.701.896.648,1.43,1.66,1.709,2.982.558,2.702.536,8.692.531,10.533,0,.15,0,.273,0,.369,0,.208-.003.424-.005.635-.016,1.293.017,2.11.16,2.342.363.407,1.955,2.431,3.001,3.766,6.764-23.164,13.925-42.653,17.238-51.362,1.686-4.408,3.167-6.93,5.012-8.4,1.89-1.505,4.039-1.798,6.635-2.161,37.531-3.328,75.492-3.328,75.492-3.328,0,0,37.961,0,75.543,3.334,2.537.358,4.683.65,6.571,2.154,1.844,1.47,3.326,3.991,5.012,8.401,3.325,8.708,10.472,28.192,17.247,51.35,1.039-1.318,2.637-3.339,2.987-3.73.151-.248.182-1.067.165-2.354-.003-.216-.005-.435-.005-.647,0-.081,0-.182,0-.302-.003-1.766-.02-7.866.543-10.599.271-1.315.8-2.328,1.693-2.977,1.192-.867,2.754-.877,4.312-.706,2.676.295,7.385.934,9.672,1.335,2.461.445,5.172,1.929,6.788,3.367.95.837,1.548,1.422,2.09,1.953.333.326.639.625.99.948,1.113,1.011,1.441,2.209,1.536,3.959.033.611.074,1.195.112,1.743.061.878.118,1.691.118,2.311Z" style="fill:none; stroke:#687581; stroke-miterlimit:3; stroke-width:.5px;"/><path d="m323.645,82.27c0,.962-.175,1.803-.533,2.563-.423.899-1.078,1.634-1.891,2.307-1.598,1.324-6.004,2.625-10.58,3.235-1.56.212-3.141.29-4.566.36-2.421.12-4.195.229-5.081.733-.187.106-.297.213-.362.31-.644.97-1.162,1.766-1.483,2.261.707.595,1.366,1.168,1.91,1.66,2.776,2.525,11.347,15.282,13.572,19.963,1.995,4.211,2.044,12.889,2.186,30.709.022,2.714.045,5.644.077,8.81.051,5.038-.102,10.026-.446,14.719,0,1.006-.014,9.281-.032,19.665-.03,17.5-.07,40.993-.07,45.804,0,4.729-.462,7.621-1.633,9.315-.433.627-.96,1.087-1.577,1.411-1.085.569-2.39.685-3.806.685-1.028,0-3.061.013-5.528.03-1.707.011-3.621.024-5.557.034-1.912-.01-3.811-.023-5.51-.034-2.48-.016-4.528-.03-5.568-.03-1.416,0-2.72-.116-3.803-.685-.617-.324-1.142-.784-1.575-1.411-1.167-1.694-1.626-4.586-1.626-9.314,0-1.715-.006-5.897-.015-11.296-.003-2.028-.006-4.228-.01-6.535-.892-.159-1.809-.455-2.477-.841,0,0-4.14-2.369-4.143-2.371-.381-.221-1.123-.443-1.576-.474,0,0-8.763-.637-8.761-.637-.751-.052-1.42-.404-1.898-.917-.358-.384-.619-.869-.729-1.405-5.307.238-11.281.405-18.043.503-.4,0-.794-.087-1.16-.244-.326-.146-.838-.329-1.4-.329h-102.864c-.573,0-1.072.182-1.411.334-.36.154-.766.239-1.172.239-6.752-.098-12.715-.265-18.02-.502-.11.534-.372,1.015-.728,1.398-.482.517-1.157.872-1.909.924,0,0-8.75.637-8.754.637-.451.031-1.192.253-1.577.476,0,0-4.14,2.369-4.136,2.367-.671.388-1.588.684-2.48.843-.003,2.091-.006,4.094-.009,5.962-.009,5.676-.015,10.093-.015,11.869,0,4.729-.462,7.621-1.633,9.315-.433.627-.96,1.087-1.577,1.41-1.085.569-2.391.685-3.807.685-1.028,0-3.06.013-5.528.03-1.707.011-3.621.024-5.558.034-1.912-.01-3.811-.023-5.51-.034-2.479-.016-4.528-.03-5.567-.03-1.416,0-2.721-.116-3.804-.685-.617-.324-1.142-.784-1.575-1.411-1.167-1.694-1.626-4.586-1.626-9.314,0-4.815-.04-28.351-.07-45.856-.018-10.363-.032-18.613-.03-19.559-.345-4.747-.499-9.735-.448-14.773.032-3.166.055-6.096.077-8.81.142-17.82.191-26.498,2.186-30.708,2.212-4.681,10.784-17.44,13.575-19.966.544-.492,1.195-1.057,1.898-1.655-.32-.495-.839-1.293-1.485-2.265-.065-.098-.175-.204-.362-.31-.886-.504-2.659-.613-5.077-.733-1.424-.071-3.002-.149-4.557-.36-4.575-.61-8.998-1.911-10.581-3.235-.818-.677-1.48-1.416-1.906-2.323-.355-.755-.531-1.591-.531-2.547,0-.558.051-1.276.107-2.059.043-.612.091-1.277.124-1.981.055-1.019.189-1.849.529-2.557.23-.479.542-.877.935-1.228.364-.335.673-.639,1.008-.97.534-.526,1.123-1.106,2.06-1.932,1.601-1.413,4.258-2.873,6.684-3.31,2.275-.398,6.979-1.037,9.651-1.331,1.545-.171,3.014-.147,4.123.656.828.599,1.34,1.546,1.611,2.83.551,2.67.531,8.627.526,10.481,0,.15,0,.274,0,.369,0,.206-.003.42-.005.632-.017,1.385.024,2.282.223,2.512.394.443,2.283,2.849,3.292,4.138,6.802-23.361,14.034-43.047,17.368-51.811,1.683-4.403,3.145-6.868,4.934-8.293,1.827-1.456,3.906-1.744,6.501-2.108,37.519-3.327,75.47-3.327,75.47-3.327,0,0,37.95,0,75.508,3.332,2.55.36,4.624.648,6.45,2.102,1.788,1.425,3.25,3.891,4.935,8.295,3.346,8.762,10.564,28.442,17.376,51.796,1.002-1.272,2.896-3.674,3.295-4.123.189-.227.228-1.127.211-2.501-.003-.216-.005-.434-.005-.644,0-.081,0-.182,0-.303-.003-1.78-.019-7.847.538-10.548.264-1.278.77-2.225,1.596-2.826,1.109-.806,2.584-.83,4.137-.659,2.673.294,7.376.933,9.655,1.332,2.409.436,5.079,1.896,6.668,3.309.945.833,1.539,1.414,2.081,1.944.333.326.641.627.997.955,1.042.946,1.361,2.064,1.455,3.788.034.613.074,1.199.113,1.747.061.882.118,1.685.118,2.294Z" style="fill:none; stroke:#687581; stroke-miterlimit:3; stroke-width:.5px;"/><path d="m323.395,82.27c0,.931-.169,1.734-.509,2.456-.403.856-1.029,1.563-1.825,2.221-1.536,1.273-5.875,2.57-10.454,3.18-1.548.21-3.118.288-4.545.358-2.388.118-4.241.224-5.193.766-.212.121-.355.252-.447.389-.732,1.103-1.302,1.982-1.604,2.45.769.643,1.487,1.267,2.072,1.795,2.742,2.494,11.297,15.219,13.515,19.885,1.964,4.146,2.019,12.741,2.162,30.604.022,2.714.045,5.644.077,8.81.051,5.032-.102,10.013-.446,14.716,0,1.006-.014,9.281-.032,19.665-.03,17.5-.07,40.993-.07,45.805,0,4.734-.467,7.551-1.588,9.173-.411.594-.907,1.027-1.488,1.331-1.027.539-2.28.657-3.69.657-1.029,0-3.063.013-5.529.03-1.707.011-3.621.024-5.554.034-1.912-.01-3.811-.023-5.509-.034-2.479-.016-4.529-.03-5.569-.03-1.41,0-2.662-.118-3.687-.657-.58-.305-1.075-.737-1.485-1.332-1.118-1.622-1.582-4.439-1.582-9.173,0-1.716-.006-5.897-.015-11.297-.003-2.09-.007-4.363-.01-6.746-.933-.145-1.913-.447-2.602-.846,0,0-4.14-2.369-4.142-2.37-.415-.24-1.194-.474-1.683-.507,0,0-8.763-.637-8.761-.637-.683-.048-1.294-.368-1.733-.838-.375-.402-.632-.922-.701-1.494-5.359.243-11.403.413-18.254.512-.364,0-.724-.079-1.058-.222-.341-.153-.89-.351-1.502-.351h-102.864c-.624,0-1.161.198-1.51.354-.329.141-.702.219-1.07.219-6.845-.099-12.877-.27-18.235-.512-.069.569-.327,1.087-.7,1.487-.443.475-1.06.798-1.745.846,0,0-8.75.637-8.752.637-.487.033-1.266.267-1.684.508,0,0-4.14,2.369-4.137,2.368-.691.4-1.672.703-2.604.848-.003,2.167-.006,4.243-.009,6.173-.009,5.676-.015,10.094-.015,11.869,0,4.734-.467,7.551-1.588,9.173-.411.594-.907,1.027-1.488,1.331-1.027.539-2.28.657-3.69.657-1.029,0-3.063.013-5.529.03-1.707.011-3.621.024-5.555.034-1.912-.01-3.811-.023-5.51-.034-2.479-.016-4.528-.03-5.569-.03-1.41,0-2.662-.118-3.687-.657-.58-.305-1.075-.737-1.485-1.332-1.118-1.622-1.582-4.439-1.582-9.173,0-4.816-.04-28.351-.07-45.857-.018-10.363-.032-18.613-.03-19.577-.345-4.74-.498-9.721-.447-14.753.032-3.166.055-6.097.077-8.81.143-17.863.198-26.458,2.162-30.603,2.205-4.666,10.76-17.392,13.516-19.887.584-.528,1.294-1.142,2.06-1.791-.301-.467-.872-1.347-1.606-2.452-.092-.138-.234-.269-.447-.389-.952-.541-2.803-.647-5.188-.766-1.425-.071-2.993-.148-4.536-.358-4.578-.61-8.932-1.907-10.455-3.18-.801-.662-1.434-1.374-1.84-2.237-.338-.718-.507-1.516-.507-2.441,0-.547.051-1.255.106-2.041.043-.612.091-1.279.124-1.986.055-1.008.186-1.799.505-2.462.214-.446.505-.818.879-1.152.367-.338.679-.645,1.014-.976.533-.525,1.118-1.101,2.05-1.923,1.572-1.387,4.189-2.824,6.562-3.251,2.268-.397,6.967-1.035,9.635-1.329,1.541-.17,2.923-.133,3.949.61.761.551,1.249,1.432,1.512,2.678.544,2.638.526,8.561.52,10.43,0,.15,0,.274,0,.37,0,.204-.003.417-.005.629-.017,1.341.008,2.376.286,2.681.432.485,2.713,3.398,3.582,4.51,6.839-23.557,14.143-43.442,17.498-52.26,1.681-4.397,3.124-6.807,4.857-8.187,1.765-1.406,3.772-1.69,6.367-2.055,37.508-3.326,75.447-3.326,75.447-3.326,0,0,37.939,0,75.473,3.329,2.563.362,4.566.645,6.329,2.05,1.732,1.38,3.175,3.79,4.857,8.189,3.366,8.817,10.656,28.694,17.506,52.243.071-.091.152-.193.24-.305.989-1.255,2.945-3.737,3.346-4.188.267-.3.291-1.334.274-2.67-.003-.216-.005-.433-.005-.641,0-.081,0-.183,0-.303-.003-1.794-.018-7.828.533-10.497.256-1.242.739-2.122,1.498-2.674,1.025-.746,2.413-.784,3.963-.613,2.669.294,7.367.932,9.638,1.33,2.358.426,4.987,1.862,6.547,3.25.94.828,1.531,1.406,2.072,1.935.333.326.643.629,1.003.961.971.881,1.281,1.92,1.373,3.616.034.615.075,1.203.113,1.751.062.885.117,1.678.117,2.276Z" style="fill:none; stroke:#687581; stroke-miterlimit:3; stroke-width:.5px;"/><path d="m323.145,82.27c0,.899-.163,1.665-.485,2.35-.382.812-.98,1.491-1.758,2.135-1.475,1.223-5.746,2.514-10.328,3.125-1.536.208-3.095.286-4.524.356-2.355.117-4.286.219-5.304.798-.238.135-.413.291-.531.468-.845,1.273-1.475,2.248-1.725,2.638.83.692,1.61,1.366,2.233,1.93,2.708,2.463,11.246,15.156,13.457,19.808,1.934,4.081,1.995,12.593,2.138,30.499.022,2.714.045,5.644.077,8.811.051,5.025-.102,9.999-.446,14.714,0,1.006-.014,9.28-.032,19.664-.03,17.5-.07,40.993-.07,45.805,0,4.739-.472,7.48-1.544,9.031-.388.562-.854.966-1.398,1.252-.97.509-2.169.628-3.574.628-1.03,0-3.065.013-5.531.03-1.707.011-3.62.024-5.551.034-1.912-.01-3.811-.023-5.509-.034-2.479-.016-4.529-.03-5.571-.03-1.404,0-2.603-.119-3.571-.628-.544-.286-1.008-.69-1.395-1.252-1.068-1.551-1.538-4.292-1.538-9.031,0-1.716-.006-5.898-.015-11.297-.003-2.154-.007-4.501-.011-6.963-.971-.126-2.019-.436-2.728-.846,0,0-4.14-2.369-4.141-2.37-.45-.26-1.266-.504-1.791-.54,0,0-8.763-.637-8.762-.637-.615-.043-1.168-.331-1.568-.76-.391-.419-.64-.979-.652-1.584-5.416.248-11.537.423-18.487.523-.329,0-.655-.071-.956-.2-.355-.159-.942-.373-1.604-.373h-102.864c-.675,0-1.249.214-1.608.375-.298.128-.637.199-.968.199-6.946-.1-13.055-.275-18.47-.523-.012.603-.261,1.159-.651,1.577-.403.432-.963.724-1.58.767,0,0-8.75.637-8.751.637-.524.036-1.34.28-1.791.541,0,0-4.14,2.369-4.138,2.368-.709.411-1.757.721-2.729.847-.003,2.245-.007,4.395-.01,6.39-.009,5.675-.015,10.094-.015,11.87,0,4.739-.472,7.48-1.544,9.031-.388.562-.854.966-1.398,1.252-.97.509-2.17.628-3.574.628-1.03,0-3.065.013-5.531.03-1.707.011-3.621.024-5.552.034-1.912-.01-3.811-.023-5.509-.034-2.478-.016-4.529-.03-5.57-.03-1.405,0-2.603-.119-3.571-.628-.544-.286-1.008-.69-1.395-1.252-1.068-1.551-1.538-4.292-1.538-9.031,0-4.816-.04-28.352-.07-45.857-.018-10.363-.032-18.613-.031-19.594-.344-4.733-.498-9.707-.447-14.732.032-3.166.055-6.097.077-8.811.143-17.906.204-26.417,2.138-30.498,2.198-4.651,10.736-17.345,13.458-19.808.624-.564,1.392-1.227,2.221-1.928-.25-.389-.88-1.365-1.726-2.64-.118-.178-.294-.333-.531-.468-1.017-.578-2.947-.681-5.299-.798-1.427-.071-2.984-.148-4.516-.356-4.582-.611-8.867-1.902-10.328-3.125-.783-.648-1.387-1.332-1.773-2.151-.32-.68-.484-1.442-.484-2.335,0-.536.05-1.234.106-2.023.043-.611.091-1.282.124-1.99.054-.998.183-1.749.48-2.368.199-.414.468-.76.823-1.076.371-.342.685-.651,1.021-.981.532-.524,1.113-1.096,2.04-1.913,1.544-1.362,4.12-2.775,6.44-3.192,2.261-.396,6.954-1.034,9.619-1.327,1.537-.17,2.832-.119,3.775.564.694.502,1.159,1.317,1.414,2.526.538,2.606.52,8.496.515,10.379,0,.15,0,.274,0,.371,0,.202-.003.413-.005.626-.016,1.274-.011,2.454.35,2.85.461.518,3.085,3.875,3.753,4.731.094-.074.165-.129.211-.165,6.849-23.615,14.175-43.559,17.536-52.393,1.679-4.391,3.102-6.745,4.779-8.081,1.703-1.357,3.638-1.636,6.234-2.001,37.497-3.325,75.425-3.325,75.425-3.325,0,0,37.929,0,75.438,3.327,2.575.363,4.507.643,6.208,1.998,1.676,1.336,3.099,3.689,4.779,8.082,3.373,8.834,10.687,28.778,17.548,52.392.045.035.112.087.199.155.103-.131.25-.318.428-.543.993-1.261,2.942-3.733,3.337-4.177.349-.393.353-1.569.337-2.839-.003-.217-.005-.432-.005-.638,0-.082,0-.184,0-.304-.003-1.808-.016-7.809.528-10.446.249-1.205.709-2.02,1.4-2.522.942-.685,2.243-.737,3.788-.567,2.666.293,7.358.931,9.621,1.327,2.306.417,4.894,1.829,6.426,3.192.935.824,1.522,1.398,2.062,1.926.333.325.646.631,1.01.967.899.816,1.201,1.775,1.292,3.445.034.617.075,1.207.113,1.754.062.889.117,1.672.117,2.259Z" style="fill:none; stroke:#687581; stroke-miterlimit:3; stroke-width:.5px;"/></g><path d="m322.895,82.27c0,1.898-.751,3.133-2.152,4.292-1.414,1.172-5.617,2.458-10.202,3.07-4.598.624-9.425.064-10.534,1.732-1.108,1.669-1.847,2.828-1.847,2.828.892.739,1.732,1.465,2.395,2.063,2.675,2.433,11.196,15.093,13.399,19.73,2.191,4.624,1.949,15.093,2.191,39.205.051,5.018-.102,9.986-.446,14.711,0,2.7-.102,57.802-.102,65.47,0,9.489-1.911,10.661-6.267,10.661-1.745,0-6.369.038-11.081.064-4.7-.025-9.324-.064-11.081-.064-4.356,0-6.254-1.172-6.254-10.661,0-2.42-.013-9.745-.025-18.47v-.013c-1.006-.102-2.127-.42-2.853-.841l-4.14-2.369c-.484-.28-1.337-.535-1.898-.573l-8.763-.637c-1.096-.076-1.987-1.032-1.987-2.14v-.217c-5.477.255-11.68.433-18.736.535-.293,0-.586-.064-.854-.178-.369-.166-.993-.395-1.707-.395h-102.864c-.726,0-1.337.229-1.707.395-.267.115-.573.178-.866.178-7.056-.102-13.247-.28-18.723-.535v.217c0,1.108-.904,2.063-2,2.14l-8.75.637c-.561.038-1.414.293-1.898.573l-4.14,2.369c-.726.42-1.847.739-2.853.841v.013c-.013,8.725-.025,16.05-.025,18.47,0,9.489-1.911,10.661-6.267,10.661-1.745,0-6.369.038-11.081.064-4.7-.025-9.324-.064-11.081-.064-4.356,0-6.254-1.172-6.254-10.661,0-7.668-.102-62.782-.102-65.47-.344-4.725-.497-9.693-.446-14.711.242-24.111,0-34.581,2.191-39.205,2.191-4.636,10.712-17.297,13.399-19.73.662-.599,1.49-1.312,2.382-2.063,0,0-.739-1.159-1.847-2.828-1.108-1.669-5.936-1.108-10.521-1.732-4.585-.611-8.801-1.898-10.202-3.07-1.401-1.159-2.166-2.395-2.166-4.292,0-.93.153-2.369.229-3.999.089-1.643.382-2.522,1.223-3.273.968-.892,1.554-1.567,3.057-2.891,1.516-1.337,4.051-2.726,6.318-3.133,2.254-.395,6.942-1.032,9.604-1.325,2.649-.293,4.33.115,4.917,2.891.573,2.777.509,9.374.509,10.699,0,1.337-.115,3.07.408,3.643.522.586,3.898,4.916,3.898,4.916.306-.242.471-.369.471-.369,6.853-23.64,14.189-43.612,17.552-52.451,3.375-8.827,5.642-9.196,10.801-9.922,37.485-3.324,75.403-3.324,75.403-3.324,0,0,37.918,0,75.403,3.324,5.146.726,7.413,1.095,10.789,9.922,3.375,8.84,10.699,28.811,17.564,52.451,0,0,.165.127.458.357.216-.267,3.401-4.331,3.91-4.904.509-.573.395-2.305.395-3.643,0-1.325-.051-7.922.522-10.699.573-2.777,2.254-3.184,4.916-2.891,2.662.293,7.349.93,9.604,1.325,2.254.408,4.802,1.796,6.305,3.133,1.503,1.325,2.101,2,3.07,2.891.828.752,1.121,1.63,1.21,3.273.089,1.63.229,3.07.229,3.999Z" style="fill:none; stroke:#687581; stroke-miterlimit:3; stroke-width:.5px;"/><line x1="112.587" y1="156.935" x2="112.587" y2="164.744" style="fill:none; stroke:#687581; stroke-linecap:round; stroke-linejoin:round; stroke-width:1px;"/><path d="m84.297,89.787s-3.383-4.334-3.9-4.913-.402-2.314-.402-3.645.058-7.926-.521-10.703c-.579-2.777-2.256-3.182-4.918-2.893s-7.348.926-9.604,1.331c-2.256.405-4.802,1.793-6.306,3.124s-2.097,2.009-3.066,2.893c-.833.758-1.125,1.635-1.213,3.272-.088,1.637-.234,3.069-.234,4.004,0,1.901.76,3.128,2.163,4.297,1.403,1.169,5.612,2.455,10.201,3.069,4.589.614,9.418.058,10.525,1.725,1.108,1.666,1.851,2.826,1.851,2.826" style="fill:none; stroke:#687581; stroke-linecap:round; stroke-linejoin:round; stroke-width:1px;"/><path d="m76.832,161.465c-2.82-.279-4.677-.57-7.565-.87-3.001-.441-4.148-1.677-4.413-4.943-.265-3.266.18-40.739.18-40.739l.03-2.541" style="fill:none; stroke:#687581; stroke-linecap:round; stroke-linejoin:round; stroke-width:1px;"/><path d="m112.587,164.744s-16.581-1.379-35.754-3.279" style="fill:none; stroke:#687581; stroke-linecap:round; stroke-linejoin:round; stroke-width:1px;"/><g id="uuid-22435ff2-004f-45ae-abbb-6ba3dde43469"><path d="m95.149,216.87c-.025,7.697-.024,14.31-.023,17.429,0,.419,0,.776,0,1.063,0,4.762-.498,7.125-1.322,8.318-.276.399-.589.667-.952.858-.682.358-1.616.486-2.992.486-.865,0-2.424.009-4.342.02-1.982.012-4.35.026-6.733.034-2.39-.008-4.758-.022-6.741-.034-1.917-.011-3.477-.02-4.342-.02-1.86,0-2.907-.236-3.609-.939-1-1-1.657-3.275-1.657-8.723,0-7.864-.1-56.13-.1-56.13" style="fill:none; stroke:#687581; stroke-linecap:round; stroke-linejoin:round; stroke-width:1px;"/><path d="m95.649,216.872c-.025,7.696-.024,14.309-.023,17.427,0,.419,0,.776,0,1.063,0,4.751-.487,7.265-1.41,8.602-.321.465-.695.788-1.131,1.017-.797.418-1.837.543-3.224.543-.863,0-2.42.009-4.339.02-1.982.012-4.351.026-6.738.034-2.391-.008-4.76-.022-6.742-.034-1.918-.011-3.476-.02-4.339-.02-1.87,0-3.106-.228-3.963-1.085-1.166-1.166-1.803-3.658-1.803-9.077,0-7.863-.1-56.129-.1-56.129" style="fill:none; stroke:#687581; stroke-linecap:round; stroke-linejoin:round; stroke-width:1px;"/></g><path d="m96.149,216.874c-.013,8.731-.023,16.066-.023,18.488,0,9.481-1.908,10.662-6.266,10.662-1.75,0-6.371.038-11.079.055-4.707-.017-9.329-.055-11.079-.055-4.358,0-6.266-1.181-6.266-10.662,0-7.863-.1-56.128-.1-56.128" style="fill:none; stroke:#687581; stroke-linecap:round; stroke-linejoin:round; stroke-width:1px;"/><path d="m71.972,203.913s.937,4.053,2.376,9.482c.257.968,1.09,1.674,2.086,1.767l18.537,1.743c1.184.111,2.997-.281,4.029-.872l4.142-2.371c.485-.278,1.339-.538,1.897-.578l8.758-.626c1.095-.078,1.991-1.041,1.991-2.139v-.21" style="fill:none; stroke:#687581; stroke-linecap:round; stroke-linejoin:round; stroke-width:1px;"/><path d="m108.699,209.709v-18.938c0-1.471,1.192-2.663,2.663-2.663h1.246" style="fill:none; stroke:#687581; stroke-linecap:round; stroke-linejoin:round; stroke-width:1px;"/><path d="m188.518,184.629h36.622c10.636,0,6.396,3.831,17.35,3.831,3.946,0,28.232-.376,34.056-.752,5.825-.376,16.794-5.563,20.094-7.181,3.3-1.618,4.059-2.036,4.059-9.255v-5.354c0-6.764-2.324-8.984-7.022-8.984s-29.228,0-29.228,0c0,0-1.06-2.63-6.73-2.63h-69.201s-69.201,0-69.201,0c-5.67,0-6.73,2.63-6.73,2.63,0,0-24.531,0-29.228,0s-7.022,2.22-7.022,8.984v5.354c0,7.219.759,7.637,4.059,9.255,3.3,1.618,14.27,6.805,20.094,7.181,5.825.376,30.111.752,34.056.752,10.953,0,6.713-3.831,17.35-3.831h36.622Z" style="fill:none; stroke:#687581; stroke-linecap:round; stroke-linejoin:round; stroke-width:1px;"/><path d="m264.45,164.744s-.415,3.593-7.099,3.593c-13.151,0-68.832-.208-68.832-.208,0,0-55.681.208-68.832.208-6.684,0-7.099-3.593-7.099-3.593" style="fill:none; stroke:#687581; stroke-linecap:round; stroke-linejoin:round; stroke-width:1px;"/><line x1="264.45" y1="156.935" x2="264.45" y2="164.744" style="fill:none; stroke:#687581; stroke-linecap:round; stroke-linejoin:round; stroke-width:1px;"/><path d="m292.74,89.787s3.383-4.334,3.9-4.913.402-2.314.402-3.645-.058-7.926.521-10.703c.579-2.777,2.256-3.182,4.918-2.893,2.661.289,7.348.926,9.604,1.331s4.802,1.793,6.306,3.124c1.504,1.331,2.097,2.009,3.066,2.893.833.758,1.125,1.635,1.213,3.272.088,1.637.234,3.069.234,4.004,0,1.901-.76,3.128-2.163,4.297-1.403,1.169-5.612,2.455-10.201,3.069-4.589.614-9.418.058-10.525,1.725-1.108,1.666-1.851,2.826-1.851,2.826" style="fill:none; stroke:#687581; stroke-linecap:round; stroke-linejoin:round; stroke-width:1px;"/><path d="m292.273,89.42c-6.859-23.651-14.186-43.62-17.558-52.45-3.372-8.83-5.642-9.198-10.793-9.934-37.486-3.321-75.404-3.321-75.404-3.321,0,0-37.917,0-75.404,3.321-5.151.736-7.422,1.104-10.793,9.934s-10.699,28.799-17.558,52.45" style="fill:none; stroke:#687581; stroke-linecap:round; stroke-linejoin:round; stroke-width:1px;"/><path d="m300.204,161.465c2.82-.279,4.677-.57,7.565-.87,3.001-.441,4.148-1.677,4.413-4.943.265-3.266-.18-40.739-.18-40.739l-.03-2.541" style="fill:none; stroke:#687581; stroke-linecap:round; stroke-linejoin:round; stroke-width:1px;"/><path d="m264.45,164.744s16.581-1.379,35.754-3.279" style="fill:none; stroke:#687581; stroke-linecap:round; stroke-linejoin:round; stroke-width:1px;"/><g id="uuid-e6bd07e3-736c-4755-9db1-ff6d6a8f95cb"><path d="m279.888,216.877c.025,7.694.024,14.304.023,17.422,0,.419,0,.776,0,1.063,0,5.332.577,8.472,2.242,10.138,1.321,1.321,3.123,1.524,5.023,1.524.857,0,2.409.009,4.33.02,1.982.012,4.352.026,6.752.034,2.393-.009,4.763-.022,6.745-.034,1.921-.011,3.473-.02,4.33-.02,1.422,0,2.78-.116,3.921-.715.655-.344,1.212-.832,1.669-1.493,1.22-1.767,1.676-4.735,1.676-9.455,0-7.861.1-65.573.1-65.573" style="fill:none; stroke:#687581; stroke-linecap:round; stroke-linejoin:round; stroke-width:1px;"/><path d="m280.388,216.875c.025,7.695.024,14.305.023,17.423,0,.419,0,.776,0,1.063,0,5.361.597,8.285,2.096,9.784,1.166,1.166,2.779,1.378,4.67,1.378.859,0,2.413.009,4.333.02,1.982.012,4.352.026,6.748.034,2.392-.009,4.762-.022,6.744-.034,1.92-.011,3.474-.02,4.333-.02,1.41,0,2.662-.119,3.689-.657.582-.305,1.078-.738,1.49-1.334,1.121-1.624,1.587-4.44,1.587-9.171,0-7.862.1-65.574.1-65.574" style="fill:none; stroke:#687581; stroke-linecap:round; stroke-linejoin:round; stroke-width:1px;"/></g><path d="m280.888,216.874c.013,8.731.023,16.066.023,18.488,0,9.481,1.908,10.662,6.266,10.662,1.75,0,6.371.038,11.079.055,4.707-.017,9.329-.055,11.079-.055,4.358,0,6.266-1.181,6.266-10.662,0-7.863.1-65.575.1-65.575" style="fill:none; stroke:#687581; stroke-linecap:round; stroke-linejoin:round; stroke-width:1px;"/><path d="m305.065,203.913s-.937,4.053-2.376,9.482c-.257.968-1.09,1.674-2.086,1.767l-18.537,1.743c-1.184.111-2.997-.281-4.029-.872l-4.142-2.371c-.485-.278-1.339-.538-1.897-.578l-8.758-.626c-1.095-.078-1.991-1.041-1.991-2.139v-.21" style="fill:none; stroke:#687581; stroke-linecap:round; stroke-linejoin:round; stroke-width:1px;"/><path d="m273.366,33.762c-8.741-.391-41.23-2.127-84.848-2.127-43.617,0-76.106,1.736-84.848,2.127" style="fill:none; stroke:#687581; stroke-linecap:round; stroke-linejoin:round; stroke-width:1px;"/><path d="m268.338,209.709v-18.938c0-1.471-1.192-2.663-2.663-2.663h-1.246" style="fill:none; stroke:#687581; stroke-linecap:round; stroke-linejoin:round; stroke-width:1px;"/><path d="m91.622,88.846c9.013-36.838,19.178-57.888,20.51-60.481.363-.706,1.306-1.344,2.096-1.417" style="fill:none; stroke:#687581; stroke-linecap:round; stroke-linejoin:round; stroke-width:1px;"/><path d="m54.368,81.204c8.028,1.296,15.009,1.205,25.609,1.205" style="fill:none; stroke:#687581; stroke-linecap:round; stroke-linejoin:round; stroke-width:1px;"/><path d="m322.669,81.204c-8.028,1.296-15.009,1.205-25.609,1.205" style="fill:none; stroke:#687581; stroke-linecap:round; stroke-linejoin:round; stroke-width:1px;"/><path d="m126.693,98.461c-.055-2.592-.074-6.019.155-7.548.393-2.622,2.101-3.945,10.647-4.251" style="fill:none; stroke:#687581; stroke-linecap:round; stroke-linejoin:round; stroke-width:1px;"/><line x1="135.016" y1="210.578" x2="135.017" y2="192.698" style="fill:none; stroke:#687581; stroke-linecap:round; stroke-linejoin:round; stroke-width:1px;"/><path d="m285.474,88.851c-9.013-36.838-19.238-57.892-20.569-60.485-.363-.706-1.306-1.344-2.096-1.417" style="fill:none; stroke:#687581; stroke-linecap:round; stroke-linejoin:round; stroke-width:1px;"/><path d="m250.344,98.461c.055-2.592.074-6.019-.155-7.548-.393-2.622-2.467-3.944-11.013-4.25" style="fill:none; stroke:#687581; stroke-linecap:round; stroke-linejoin:round; stroke-width:1px;"/><line x1="242.021" y1="210.578" x2="242.02" y2="192.698" style="fill:none; stroke:#687581; stroke-linecap:round; stroke-linejoin:round; stroke-width:1px;"/><path d="m250.346,128.476v10.155c0,4.108-3.296,7.442-7.403,7.499-12.361.153-37.504.439-54.422.439s-42.07-.287-54.422-.439c-4.108-.057-7.403-3.391-7.403-7.499v-10.155" style="fill:none; stroke:#687581; stroke-miterlimit:10; stroke-width:1px;"/><path d="m72.821,111.177c.065-2.377.118-4.424.144-5.698.114-5.536,3.174-8.994,3.727-9.416" style="fill:none; stroke:#687581; stroke-linecap:round; stroke-linejoin:round; stroke-width:1px;"/><path d="m71.877,123.911c0,1.401-.807,13.772-.807,18.667,0,3.424-.093,5.524-3.197,5.483-3.103-.041-3.088-2.058-3.088-5.063" style="fill:none; stroke:#687581; stroke-linecap:round; stroke-linejoin:round; stroke-width:1px;"/><path d="m188.518,210.063h51.435c.718,0,1.337.221,1.705.39.268.123.563.184.859.18,38.836-.545,51.606-3.644,61.934-6.498,7.413-2.048,11.934-24.843,11.691-48.955-.244-24.112,0-34.585-2.192-39.213-2.192-4.628-10.716-17.292-13.396-19.728-2.679-2.436-8.281-6.82-8.281-6.82,0,0-33.454-3.416-103.755-3.416-70.301,0-103.755,3.416-103.755,3.416,0,0-5.602,4.384-8.281,6.82-2.679,2.436-11.204,15.1-13.396,19.728-2.192,4.628-1.948,15.1-2.192,39.213-.244,24.112,4.278,46.906,11.691,48.955,10.328,2.854,23.098,5.953,61.934,6.498.295.004.59-.057.859-.18.368-.168.987-.39,1.705-.39h51.435Z" style="fill:none; stroke:#687581; stroke-linecap:round; stroke-linejoin:round; stroke-width:1px;"/><path d="m54.382,77.941l4.52.585c.503.065.961.32,1.282.712l2.353,2.875" style="fill:none; stroke:#687581; stroke-linecap:round; stroke-linejoin:round; stroke-width:1px;"/><path d="m322.654,77.941l-4.52.585c-.503.065-.961.32-1.282.712l-2.353,2.875" style="fill:none; stroke:#687581; stroke-linecap:round; stroke-linejoin:round; stroke-width:1px;"/><rect x="255.758" y="108.641" width="18.957" height="38.992" rx="9.479" ry="9.479" style="fill:none; stroke:#687581; stroke-linecap:round; stroke-linejoin:round; stroke-width:1px;"/><path d="m265.236,144.705c3.612,0,6.551-2.938,6.551-6.55v-20.036c0-3.612-2.939-6.55-6.551-6.55s-6.551,2.938-6.551,6.55v20.036c0,3.612,2.939,6.55,6.551,6.55Z" style="fill:none; stroke:#687581; stroke-linecap:round; stroke-linejoin:round; stroke-width:1px;"/><path d="m267.732,139.893c1.251-1.777.264-3.49,0-3.864h-4.997c-.816,1.159-.816,2.706,0,3.864h4.997Z" style="fill:none; stroke:#687581; stroke-linecap:round; stroke-linejoin:round; stroke-width:1px;"/><path d="m267.732,134.008c1.251-1.777.264-3.49,0-3.864h-4.997c-.816,1.159-.816,2.706,0,3.864h4.997Z" style="fill:none; stroke:#687581; stroke-linecap:round; stroke-linejoin:round; stroke-width:1px;"/><path d="m267.731,115.753c1.252,1.777.264,3.49,0,3.864h-4.997c-.816-1.159-.816-2.706,0-3.864h4.997Z" style="fill:none; stroke:#687581; stroke-linecap:round; stroke-linejoin:round; stroke-width:1px;"/><path d="m267.731,121.638c1.252,1.777.264,3.49,0,3.864h-4.997c-.816-1.159-.816-2.706,0-3.864h4.997Z" style="fill:none; stroke:#687581; stroke-linecap:round; stroke-linejoin:round; stroke-width:1px;"/><rect x="102.321" y="108.641" width="18.957" height="38.992" rx="9.479" ry="9.479" transform="translate(223.6 256.274) rotate(-180)" style="fill:none; stroke:#687581; stroke-linecap:round; stroke-linejoin:round; stroke-width:1px;"/><path d="m111.8,144.705c-3.612,0-6.551-2.938-6.551-6.55v-20.036c0-3.612,2.939-6.55,6.551-6.55s6.551,2.938,6.551,6.55v20.036c0,3.612-2.939,6.55-6.551,6.55Z" style="fill:none; stroke:#687581; stroke-linecap:round; stroke-linejoin:round; stroke-width:1px;"/><path d="m109.305,139.893c-1.251-1.777-.264-3.49,0-3.864h4.997c.816,1.159.816,2.706,0,3.864h-4.997Z" style="fill:none; stroke:#687581; stroke-linecap:round; stroke-linejoin:round; stroke-width:1px;"/><path d="m109.305,134.008c-1.251-1.777-.264-3.49,0-3.864h4.997c.816,1.159.816,2.706,0,3.864h-4.997Z" style="fill:none; stroke:#687581; stroke-linecap:round; stroke-linejoin:round; stroke-width:1px;"/><path d="m109.305,115.753c-1.252,1.777-.264,3.49,0,3.864h4.997c.816-1.159.816-2.706,0-3.864h-4.997Z" style="fill:none; stroke:#687581; stroke-linecap:round; stroke-linejoin:round; stroke-width:1px;"/><path d="m109.305,121.638c-1.252,1.777-.264,3.49,0,3.864h4.997c.816-1.159.816-2.706,0-3.864h-4.997Z" style="fill:none; stroke:#687581; stroke-linecap:round; stroke-linejoin:round; stroke-width:1px;"/><path d="m193.155,101.214c.221-.111.222-.279,0-.39-1.351-.676-3.458-1.607-3.803-1.731-.244-.088-.522-.134-.829-.134s-.584.046-.828.133c-.43.155-2.244.996-3.802,1.724-.241.113-.241.292,0,.404,2.293,1.073,3.251,1.515,3.803,1.719.481.178,1.17.18,1.656.005.368-.133,2.473-1.066,3.802-1.731Z" style="fill:none; stroke:#687581; stroke-linecap:round; stroke-linejoin:round; stroke-width:.75px;"/><path d="m271.787,111.177h32.428c1.425,0,2.647,1.011,2.917,2.41.295,1.523.263,3.838.556,7.141.152,1.711-1.2,3.183-2.918,3.183h-29.842" style="fill:none; stroke:#aebbc7; stroke-linecap:round; stroke-linejoin:round;"/><path d="m274.929,119.075h24.7c1.8,0,1.941,1.531,1.941,1.531l2.839-.323c.817-.196,1.435-.791,1.41-1.616l-.196-5.796s.085-1.328-1.407-1.694" style="fill:none; stroke:#aebbc7; stroke-linecap:round; stroke-linejoin:round;"/><line x1="258.515" y1="111.177" x2="118.253" y2="111.177" style="fill:none; stroke:#aebbc7; stroke-linecap:round; stroke-linejoin:round;"/><line x1="255.758" y1="119.075" x2="121.279" y2="119.075" style="fill:none; stroke:#aebbc7; stroke-linecap:round; stroke-linejoin:round;"/><line x1="121.279" y1="123.911" x2="255.758" y2="123.911" style="fill:none; stroke:#aebbc7; stroke-linecap:round; stroke-linejoin:round;"/><path d="m301.57,120.606v-2.73c0-.635-.515-1.149-1.149-1.149h-25.491" style="fill:none; stroke:#aebbc7; stroke-linecap:round; stroke-linejoin:round;"/><path d="m72.821,111.177c.065-2.377.118-4.424.144-5.698.114-5.536,3.174-8.994,3.727-9.416" style="fill:none; stroke:#687581; stroke-linecap:round; stroke-linejoin:round; stroke-width:1px;"/><path d="m71.877,123.911c0,1.401-.807,13.772-.807,18.667,0,3.424-.093,5.524-3.197,5.483-3.103-.041-3.088-2.058-3.088-5.063" style="fill:none; stroke:#687581; stroke-linecap:round; stroke-linejoin:round; stroke-width:1px;"/><path d="m105.249,111.177h-32.428c-1.425,0-2.647,1.011-2.917,2.41-.295,1.523-.263,3.838-.556,7.141-.152,1.711,1.2,3.183,2.918,3.183h29.842" style="fill:none; stroke:#aebbc7; stroke-linecap:round; stroke-linejoin:round;"/><path d="m102.108,119.075h-24.7c-1.8,0-1.941,1.531-1.941,1.531l-2.839-.323c-.817-.196-1.435-.791-1.41-1.616l.196-5.796s-.085-1.328,1.407-1.694" style="fill:none; stroke:#aebbc7; stroke-linecap:round; stroke-linejoin:round;"/><path d="m75.467,120.606v-2.73c0-.635.515-1.149,1.149-1.149h25.491" style="fill:none; stroke:#aebbc7; stroke-linecap:round; stroke-linejoin:round;"/><line x1="255.861" y1="116.727" x2="121.174" y2="116.727" style="fill:none; stroke:#aebbc7; stroke-linecap:round; stroke-linejoin:round;"/><path d="m268.541,212.841c.002,2.111.004,3.76.004,4.631,0,8.202,1.65,9.223,5.42,9.223,1.178,0,3.861.02,6.912.035" style="fill:none; stroke:#687581; stroke-miterlimit:10; stroke-width:2px;"/><path d="m108.699,212.841c-.003,2.115-.005,3.767-.005,4.639,0,8.209-1.653,9.222-5.421,9.222-1.174,0-3.855.02-6.908.039" style="fill:none; stroke:#687581; stroke-miterlimit:10; stroke-width:2px;"/><path d="m264.446,164.741v-7.805h29.232c3.458,0,5.627,1.194,6.525,4.528-19.172,1.901-35.756,3.277-35.756,3.277Z" style="fill:#404d59; stroke:#aebbc7; stroke-linecap:round; stroke-linejoin:round;"/><path d="m112.585,156.936v7.805s-16.584-1.376-35.756-3.277c.898-3.334,3.076-4.528,6.534-4.528h29.222Z" style="fill:#404d59; stroke:#aebbc7; stroke-linecap:round; stroke-linejoin:round;"/><path d="m53.446,81.136c.01-.213.02-.436.041-.669.041-.568.091-1.196.122-1.875.02-.182.03-.385.041-.578.01-.112.01-.223.02-.324l7.217.773c.537.071,1.024.335,1.368.75l2.354,3.015c-2.899-.182-8.01-.606-10.96-1.082l-.203-.01Z" style="fill:#404d59; stroke:#aebbc7; stroke-linecap:round; stroke-linejoin:round;"/><line x1="60.661" y1="79.767" x2="61.308" y2="80.596" style="fill:#404d59; stroke-width:0px;"/><path d="m61.308,81.096c-.148,0-.296-.066-.395-.192l-.646-.829c-.17-.218-.131-.532.087-.702s.531-.132.702.086l.646.829c.17.218.131.532-.087.702-.092.071-.2.106-.308.106Z" style="fill:#aebbc7; stroke-width:0px;"/><polygon points="280.896 226.719 280.906 226.729 280.896 226.729 280.896 226.719" style="fill:#141b21; stroke-width:0px;"/><g id="uuid-6c8d7c87-9e76-41ab-b9e3-5c5e4257eed7"><path d="m280.896,225.729s-.019,0-.016,0c-1.504-.005-2.919-.012-4.11-.018-1.219-.006-2.206-.011-2.809-.011-1.184,0-1.962-.111-2.521-.404-.294-.155-.549-.372-.776-.7-.686-.995-1.12-3-1.12-7.123v-4.614h-1v1h.019" style="fill:none; stroke:#687581; stroke-linecap:round; stroke-linejoin:round; stroke-width:1px;"/><path d="m280.896,226.229s-.019,0-.018,0c-1.504-.005-2.92-.012-4.111-.018-1.22-.006-2.206-.011-2.807-.011-1.196,0-2.08-.108-2.753-.462-.367-.193-.683-.465-.955-.859-.785-1.138-1.208-3.294-1.208-7.407v-4.614h-.5v.5h.019" style="fill:none; stroke:#687581; stroke-linecap:round; stroke-linejoin:round; stroke-width:1px;"/></g><path d="m280.896,226.719v.01h-.019c-3.047-.01-5.732-.029-6.916-.029-3.764,0-5.416-1.022-5.416-9.228v-4.614h.019" style="fill:none; stroke:#687581; stroke-linecap:round; stroke-linejoin:round; stroke-width:1px;"/><path d="m268.563,212.858h-.019v-.019l.019.019Z" style="fill:#141b21; stroke-width:0px;"/><g id="uuid-a951bb2c-c930-40e4-88bf-186db8243408"><path d="m107.697,212.839v4.643c0,4.124-.434,6.126-1.12,7.117-.226.326-.48.543-.774.697-.56.294-1.342.404-2.532.404-.938,0-2.823.012-5.088.027-.586.004-1.197.008-1.825.012" style="fill:none; stroke:#687581; stroke-linecap:round; stroke-linejoin:round; stroke-width:1px;"/><path d="m108.197,212.839v4.643c0,4.114-.424,6.267-1.209,7.402-.271.392-.586.663-.953.855-.675.354-1.563.461-2.764.461-.936,0-2.819.012-5.085.027-.586.004-1.197.008-1.825.012" style="fill:none; stroke:#687581; stroke-linecap:round; stroke-linejoin:round; stroke-width:1px;"/></g><path d="m108.697,212.839v4.643c0,8.206-1.653,9.218-5.426,9.218-1.175,0-3.85.019-6.907.038" style="fill:none; stroke:#687581; stroke-linecap:round; stroke-linejoin:round; stroke-width:1px;"/><path d="m323.413,81.136c-.01-.213-.02-.436-.041-.669-.041-.568-.091-1.196-.122-1.875-.02-.182-.03-.385-.041-.578-.01-.112-.01-.223-.02-.324l-7.217.773c-.537.071-1.024.335-1.368.75l-2.354,3.015c2.899-.182,8.01-.606,10.96-1.082l.203-.01Z" style="fill:#404d59; stroke:#aebbc7; stroke-linecap:round; stroke-linejoin:round;"/><line x1="316.198" y1="79.767" x2="315.551" y2="80.596" style="fill:#404d59; stroke-width:0px;"/><path d="m315.551,81.096c.148,0,.296-.066.395-.192l.646-.829c.17-.218.131-.532-.087-.702s-.531-.132-.702.086l-.646.829c-.17.218-.131.532.087.702.092.071.2.106.308.106Z" style="fill:#aebbc7; stroke-width:0px;"/></g><g id="uuid-8510501f-8336-406d-a420-ee93c4fd7fa8"><path d="m652.584,125.848c0-3.435-2.094-6.381-5.075-7.632-.982-.423-2.063-.659-3.2-.659s-2.218.236-3.2.659c-2.952,1.239-5.03,4.141-5.07,7.533h-63.324v-16.471c0-.276-.224-.5-.5-.5s-.5.224-.5.5v16.971c0,.276.224.5.5.5h63.87c.33,3.043,2.307,5.592,5.024,6.732.982.423,2.063.659,3.2.659s2.218-.236,3.2-.659c2.981-1.251,5.075-4.197,5.075-7.632Z" style="fill:none; stroke:#141b21; stroke-linecap:round; stroke-linejoin:round; stroke-width:3px;"/><polyline points="644.257 126.248 572.215 126.248 572.215 109.277" style="fill:none; stroke:#aebbc7; stroke-linecap:round; stroke-linejoin:round;"/><circle cx="644.309" cy="125.848" r="8.275" style="fill:#aebbc7; stroke-width:0px;"/><path d="m644.309,117.556c-4.473,0-8.098,3.626-8.098,8.098v.387c0,4.473,3.626,8.098,8.098,8.098s8.098-3.626,8.098-8.098v-.387c0-4.473-3.626-8.098-8.098-8.098Z" style="fill:#aebbc7; stroke-width:0px;"/><path d="m640.594,128.568l1.443-1.027c.286.442.576.759.871.949.295.191.646.286,1.053.286.512,0,.908-.128,1.189-.384.282-.255.423-.63.423-1.125v-.143c0-.468-.135-.81-.403-1.027-.269-.216-.654-.325-1.157-.325-.277,0-.528.032-.754.097s-.477.18-.754.345l-1.287-.338.65-4.875h5.109v1.703h-3.602l-.208,1.573c.174-.052.349-.091.526-.117s.366-.039.565-.039c.65,0,1.211.128,1.684.384s.834.611,1.086,1.066c.251.455.377.977.377,1.566,0,.667-.154,1.252-.462,1.755-.308.503-.729.891-1.268,1.164-.537.273-1.14.41-1.807.41-1.369,0-2.462-.633-3.276-1.898Z" style="fill:#141b21; stroke-width:0px;"/><path d="m652.625,147.455c0-3.442-2.103-6.392-5.093-7.639-.977-.419-2.052-.653-3.182-.653s-2.205.234-3.182.653c-2.759,1.151-4.76,3.752-5.053,6.852h-167.227v-35.143c0-.276-.224-.5-.5-.5s-.5.224-.5.5v35.643c0,.276.224.5.5.5h167.698c.085,3.35,2.154,6.205,5.082,7.426.977.419,2.052.653,3.182.653s2.205-.234,3.182-.653c2.99-1.247,5.093-4.197,5.093-7.639Z" style="fill:none; stroke:#141b21; stroke-linecap:round; stroke-linejoin:round; stroke-width:3px;"/><polyline points="644.257 147.168 468.388 147.168 468.388 111.524" style="fill:none; stroke:#aebbc7; stroke-linecap:round; stroke-linejoin:round;"/><circle cx="644.35" cy="147.455" r="8.275" style="fill:#aebbc7; stroke-width:0px;"/><path d="m644.35,139.163c-4.462,0-8.079,3.617-8.079,8.079v.425c0,4.462,3.617,8.079,8.079,8.079s8.079-3.617,8.079-8.079v-.425c0-4.462-3.617-8.079-8.079-8.079Z" style="fill:#aebbc7; stroke-width:0px;"/><path d="m640.863,150.46l3.237-3.029c.303-.277.559-.544.767-.799.208-.256.368-.496.48-.722.113-.225.17-.438.17-.637v-.117c0-.312-.12-.567-.358-.767-.238-.199-.539-.299-.903-.299-.52,0-.918.113-1.195.338-.278.226-.46.611-.547,1.157l-1.638-.52c.139-.832.507-1.476,1.105-1.931.598-.455,1.356-.683,2.274-.683.581,0,1.105.104,1.573.312s.839.512,1.111.91c.273.398.41.871.41,1.417,0,.451-.09.882-.267,1.293-.178.412-.405.789-.683,1.131-.277.343-.594.674-.949.995l-2.002,1.794h3.965v1.625h-6.552v-1.469Z" style="fill:#141b21; stroke-width:0px;"/><path d="m652.646,70.381c0-3.449-2.112-6.403-5.111-7.646-.971-.415-2.04-.646-3.164-.646s-2.192.231-3.164.646c-2.769,1.147-4.778,3.752-5.072,6.859h-168.219c-.276,0-.5.224-.5.5v18.041h-112.628c-.276,0-.5.224-.5.5v5.708c0,.276.224.5.5.5s.5-.224.5-.5v-5.208h225.257v5.208c0,.276.224.5.5.5s.5-.224.5-.5v-5.708c0-.276-.224-.5-.5-.5h-112.629v-17.541h167.69c.086,3.357,2.163,6.216,5.101,7.433.971.415,2.04.646,3.164.646s2.192-.231,3.164-.646c3-1.243,5.111-4.197,5.111-7.646Z" style="fill:none; stroke:#141b21; stroke-linecap:round; stroke-linejoin:round; stroke-width:3px;"/><polyline points="581.046 94.342 581.046 88.634 467.917 88.634 354.789 88.634 354.789 94.342" style="fill:none; stroke:#aebbc7; stroke-linecap:round; stroke-linejoin:round;"/><polyline points="467.917 88.634 467.917 70.094 644.257 70.094" style="fill:none; stroke:#aebbc7; stroke-linecap:round; stroke-linejoin:round;"/><circle cx="644.371" cy="70.381" r="8.275" style="fill:#aebbc7; stroke-width:0px;"/><path d="m644.371,62.089c-4.451,0-8.059,3.608-8.059,8.059v.465c0,4.451,3.608,8.059,8.059,8.059s8.059-3.608,8.059-8.059v-.465c0-4.451-3.608-8.059-8.059-8.059Z" style="fill:#aebbc7; stroke-width:0px;"/><path d="m642.054,74.524c-.541-.316-1.007-.787-1.397-1.411l1.443-1.04c.242.442.509.759.8.949.29.191.651.286,1.085.286.469,0,.871-.093,1.209-.28.338-.186.507-.474.507-.864v-.156c0-.442-.149-.756-.448-.942-.299-.186-.804-.279-1.515-.279h-.649v-1.56h.624c.528,0,.96-.078,1.293-.234.334-.156.501-.451.501-.884v-.143c0-.312-.146-.543-.436-.695-.291-.151-.626-.228-1.008-.228-.364,0-.691.093-.981.279-.29.187-.531.462-.722.826l-1.364-.819c.312-.667.728-1.159,1.247-1.476.521-.316,1.153-.475,1.898-.475.91,0,1.653.217,2.229.65.576.434.864,1.079.864,1.937,0,.451-.091.839-.272,1.164-.183.325-.438.592-.768.8.416.216.73.494.942.832.213.338.319.754.319,1.248,0,.642-.158,1.188-.475,1.638s-.739.789-1.268,1.014c-.529.225-1.109.338-1.742.338-.736,0-1.376-.158-1.918-.475Z" style="fill:#141b21; stroke-width:0px;"/><path d="m652.584,50.083c0-3.435-2.094-6.381-5.075-7.632-.982-.423-2.063-.659-3.2-.659s-2.218.236-3.2.659c-2.751,1.155-4.743,3.752-5.035,6.846h-167.656v-11.61h31.292c.276,0,.5-.224.5-.5v-4.662c0-.276-.224-.5-.5-.5s-.5.224-.5.5v4.162h-62.584v-4.162c0-.276-.224-.5-.5-.5s-.5.224-.5.5v4.662c0,.276.224.5.5.5h31.292v12.11c0,.276.224.5.5.5h168.127c.085,3.343,2.146,6.194,5.064,7.419.982.423,2.063.659,3.2.659s2.218-.236,3.2-.659c2.981-1.251,5.075-4.197,5.075-7.632Z" style="fill:none; stroke:#141b21; stroke-linecap:round; stroke-linejoin:round; stroke-width:3px;"/><polyline points="499.709 32.525 499.709 37.187 467.917 37.187 436.125 37.187 436.125 32.525" style="fill:none; stroke:#aebbc7; stroke-linecap:round; stroke-linejoin:round;"/><polyline points="467.917 37.187 467.917 49.797 644.257 49.797" style="fill:none; stroke:#aebbc7; stroke-linecap:round; stroke-linejoin:round;"/><circle cx="644.309" cy="50.083" r="8.275" style="fill:#aebbc7; stroke-width:0px;"/><path d="m644.309,41.792c-4.473,0-8.098,3.626-8.098,8.098v.387c0,4.473,3.626,8.098,8.098,8.098s8.098-3.626,8.098-8.098v-.387c0-4.473-3.626-8.098-8.098-8.098Z" style="fill:#aebbc7; stroke-width:0px;"/><path d="m640.594,52.804l1.443-1.027c.286.442.576.759.871.949.295.191.646.286,1.053.286.512,0,.908-.128,1.189-.384.282-.255.423-.63.423-1.125v-.143c0-.468-.135-.81-.403-1.027-.269-.216-.654-.325-1.157-.325-.277,0-.528.032-.754.097s-.477.18-.754.345l-1.287-.338.65-4.875h5.109v1.703h-3.602l-.208,1.573c.174-.052.349-.091.526-.117s.366-.039.565-.039c.65,0,1.211.128,1.684.384s.834.611,1.086,1.066c.251.455.377.977.377,1.566,0,.667-.154,1.252-.462,1.755-.308.503-.729.891-1.268,1.164-.537.273-1.14.41-1.807.41-1.369,0-2.462-.633-3.276-1.898Z" style="fill:#141b21; stroke-width:0px;"/><path d="m652.216,190.413c0-3.442-2.103-6.392-5.093-7.639-.977-.419-2.052-.653-3.182-.653s-2.205.234-3.182.653c-2.634,1.099-4.57,3.521-4.996,6.436h-1.756c-.435-3.538-3.098-6.387-6.546-7.089-.535-.117-1.09-.184-1.66-.184s-1.125.066-1.66.184c-3.448.702-6.11,3.551-6.546,7.089h-1.731c-.302-2.451-1.67-4.571-3.633-5.875-1.305-.882-2.879-1.398-4.573-1.398s-3.268.515-4.573,1.398c-1.962,1.304-3.331,3.424-3.633,5.875h-67.619v-7.036c0-.276-.224-.5-.5-.5s-.5.224-.5.5v7.536c0,.276.224.5.5.5h68.051c0,.006,0,.013,0,.019,0,2.879,1.472,5.412,3.702,6.894,1.305.882,2.879,1.398,4.573,1.398s3.268-.515,4.573-1.398c2.23-1.482,3.702-4.016,3.702-6.894,0-.006,0-.013,0-.019h1.594c0,.006,0,.013,0,.019,0,4.002,2.84,7.339,6.615,8.108.535.117,1.09.184,1.66.184s1.125-.066,1.66-.184c3.775-.769,6.615-4.107,6.615-8.108,0-.006,0-.013,0-.019h1.601c-.002.068-.01.135-.01.203,0,3.442,2.103,6.392,5.093,7.639.977.419,2.052.653,3.182.653s2.205-.234,3.182-.653c2.99-1.247,5.093-4.197,5.093-7.639Z" style="fill:none; stroke:#141b21; stroke-width:3px;"/><polyline points="644.257 189.71 531.333 189.71 531.333 182.174" style="fill:none; stroke:#aebbc7; stroke-linecap:round; stroke-linejoin:round;"/><circle cx="625.801" cy="190.229" r="8.275" style="fill:#aebbc7; stroke-width:0px;"/><path d="m625.801,181.937c-4.261,0-7.715,3.454-7.715,7.715v1.153c0,4.261,3.454,7.715,7.715,7.715s7.715-3.454,7.715-7.715v-1.153c0-4.261-3.454-7.715-7.715-7.715Z" style="fill:#aebbc7; stroke-width:0px;"/><path d="m626.694,186.982h-4.328v-1.612h6.369v1.274l-3.744,8.06h-1.949l3.652-7.722Z" style="fill:#141b21; stroke-width:0px;"/><circle cx="643.941" cy="190.413" r="8.275" style="fill:#aebbc7; stroke-width:0px;"/><path d="m643.941,182.121c-4.462,0-8.079,3.617-8.079,8.079v.425c0,4.462,3.617,8.079,8.079,8.079s8.079-3.617,8.079-8.079v-.425c0-4.462-3.617-8.079-8.079-8.079Z" style="fill:#aebbc7; stroke-width:0px;"/><path d="m642.956,193.029c.377-.511.709-.997.995-1.456-.078.018-.158.028-.24.032-.083.005-.167.007-.254.007-.59,0-1.12-.134-1.593-.403-.473-.269-.841-.639-1.104-1.111-.265-.472-.396-.999-.396-1.58,0-.641.153-1.196.461-1.664.308-.468.72-.825,1.235-1.072s1.081-.371,1.696-.371c.633,0,1.191.132,1.677.396.485.265.862.639,1.131,1.125s.403,1.049.403,1.69c0,.459-.087.934-.26,1.424-.174.49-.481,1.12-.923,1.891-.355.581-.679,1.082-.969,1.501-.29.421-.652.904-1.086,1.45h-2.235c.598-.728,1.085-1.348,1.462-1.859Zm1.886-3.393c.264-.243.396-.581.396-1.014v-.169c0-.451-.135-.793-.403-1.027s-.642-.351-1.118-.351-.85.117-1.118.351-.402.576-.402,1.027v.169c0,.416.119.75.357,1.001.238.251.617.377,1.138.377.502,0,.886-.121,1.15-.364Z" style="fill:#141b21; stroke-width:0px;"/><circle cx="607.658" cy="190.229" r="8.275" style="fill:#aebbc7; stroke-width:0px;"/><path d="m607.658,181.937c-4.516,0-8.176,3.661-8.176,8.176v.231c0,4.516,3.661,8.176,8.176,8.176s8.176-3.661,8.176-8.176v-.231c0-4.516-3.661-8.176-8.176-8.176Z" style="fill:#aebbc7; stroke-width:0px;"/><path d="m605.628,194.437c-.508-.264-.899-.641-1.177-1.131s-.416-1.06-.416-1.709c0-.442.071-.879.215-1.313.144-.433.384-.945.722-1.534.528-.91,1.36-2.037,2.496-3.38h2.262l-.715.871c-.364.442-.711.862-1.041,1.261-.328.399-.598.75-.805,1.053.173-.035.372-.052.598-.052.598,0,1.131.135,1.599.403s.83.641,1.085,1.118c.256.477.385,1.014.385,1.612,0,.65-.148,1.218-.443,1.703-.294.486-.703.856-1.228,1.112s-1.12.383-1.788.383c-.658,0-1.241-.132-1.748-.396Zm2.964-1.631c.299-.251.448-.611.448-1.079v-.182c0-.477-.145-.838-.436-1.085-.29-.247-.678-.371-1.163-.371s-.886.122-1.202.364-.475.607-.475,1.092v.182c0,.477.145.838.436,1.085.29.247.687.371,1.189.371s.903-.125,1.202-.377Z" style="fill:#141b21; stroke-width:0px;"/><line x1="527.765" y1="180.557" x2="534.976" y2="180.557" style="fill:none; stroke:#aebbc7; stroke-linecap:round; stroke-linejoin:round;"/><path d="m104.375,147.929h-7.294v-38.941h7.294c.276,0,.5-.224.5-.5s-.224-.5-.5-.5h-7.794c-.276,0-.5.224-.5.5v28.32h-40.438c-.293-3.1-2.294-5.701-5.054-6.852-.977-.419-2.051-.653-3.181-.653s-2.205.234-3.181.653c-2.76,1.151-4.761,3.752-5.054,6.852h-1.604c-.213-2.26-1.334-4.255-2.996-5.617-1.422-1.179-3.248-1.888-5.239-1.888s-3.817.709-5.239,1.888c-1.662,1.361-2.783,3.357-2.996,5.617h-1.626c-.35-3.706-3.144-6.695-6.754-7.348-.478-.101-.973-.157-1.482-.157s-1.004.055-1.482.157c-3.862.699-6.793,4.072-6.793,8.135s2.931,7.436,6.793,8.135c.478.101.973.157,1.482.157s1.004-.055,1.482-.157c3.794-.687,6.681-3.955,6.783-7.922h1.568c.064,2.494,1.224,4.715,3.025,6.191,1.422,1.179,3.248,1.888,5.239,1.888s3.817-.709,5.239-1.888c1.801-1.475,2.961-3.696,3.025-6.191h1.546c.085,3.35,2.155,6.206,5.083,7.426.977.419,2.051.653,3.181.653s2.205-.234,3.181-.653c2.928-1.221,4.997-4.076,5.083-7.426h40.409v10.621c0,.276.224.5.5.5h7.794c.276,0,.5-.224.5-.5s-.224-.5-.5-.5Z" style="fill:none; stroke:#141b21; stroke-linecap:round; stroke-linejoin:round; stroke-width:3px;"/><line x1="10.756" y1="137.308" x2="96.581" y2="137.308" style="fill:none; stroke:#aebbc7; stroke-linecap:round; stroke-linejoin:round;"/><circle cx="29.334" cy="137.595" r="8.275" style="fill:#aebbc7; stroke-width:0px;"/><path d="m29.334,129.303c-4.537,0-8.215,3.678-8.215,8.215v.153c0,4.537,3.678,8.215,8.215,8.215s8.215-3.678,8.215-8.215v-.153c0-4.537-3.678-8.215-8.215-8.215Z" style="fill:#aebbc7; stroke-width:0px;"/><path d="m26.563,141.479c-.629-.49-.942-1.172-.942-2.048,0-.546.114-1.005.344-1.378.229-.373.57-.667,1.021-.884-.363-.199-.632-.453-.806-.761s-.26-.695-.26-1.164c0-.554.139-1.033.416-1.437.277-.403.656-.706,1.138-.91.48-.204,1.016-.306,1.605-.306.606,0,1.147.106,1.625.318.477.213.849.514,1.117.904.269.39.403.849.403,1.378,0,.451-.093.836-.279,1.157-.187.321-.453.59-.8.806.46.208.807.5,1.04.877.234.377.352.843.352,1.397,0,.875-.316,1.558-.949,2.048s-1.469.734-2.509.734c-1.049,0-1.888-.245-2.516-.734Zm3.711-1.151c.304-.165.455-.446.455-.845v-.234c0-.442-.134-.758-.402-.949-.27-.19-.686-.286-1.248-.286s-.979.096-1.248.286c-.269.191-.403.507-.403.949v.234c0,.398.149.68.448.845.299.165.7.247,1.203.247.494,0,.893-.082,1.195-.247Zm-.116-4.238c.19-.182.285-.424.285-.728v-.169c0-.329-.112-.576-.338-.741-.226-.165-.567-.247-1.026-.247-.399,0-.729.085-.988.254s-.39.414-.39.734v.169c0,.304.097.546.292.728s.557.273,1.086.273.888-.091,1.079-.273Z" style="fill:#141b21; stroke-width:0px;"/><circle cx="47.408" cy="137.595" r="8.275" style="fill:#aebbc7; stroke-width:0px;"/><path d="m47.408,129.303c-4.462,0-8.079,3.617-8.079,8.079v.426c0,4.462,3.617,8.079,8.079,8.079s8.079-3.617,8.079-8.079v-.426c0-4.462-3.617-8.079-8.079-8.079Z" style="fill:#aebbc7; stroke-width:0px;"/><path d="m46.424,140.211c.377-.511.708-.997.994-1.456-.078.018-.158.028-.24.032-.082.005-.167.007-.254.007-.589,0-1.12-.134-1.592-.403-.473-.269-.841-.639-1.105-1.111-.265-.472-.396-.999-.396-1.58,0-.641.154-1.196.462-1.664.308-.468.719-.825,1.234-1.072s1.081-.371,1.697-.371c.632,0,1.191.132,1.677.396.485.265.862.639,1.131,1.125s.403,1.049.403,1.69c0,.459-.087.934-.261,1.424-.173.49-.48,1.12-.923,1.891-.355.581-.678,1.082-.968,1.501-.291.421-.652.904-1.086,1.45h-2.236c.599-.728,1.086-1.348,1.463-1.859Zm1.885-3.393c.265-.243.396-.581.396-1.014v-.169c0-.451-.135-.793-.402-1.027-.27-.234-.642-.351-1.118-.351s-.85.117-1.118.351-.403.576-.403,1.027v.169c0,.416.119.75.357,1.001.238.251.618.377,1.138.377.503,0,.886-.121,1.15-.364Z" style="fill:#141b21; stroke-width:0px;"/><polyline points="104.375 148.429 96.581 148.429 96.581 108.488 104.375 108.488" style="fill:none; stroke:#aebbc7; stroke-linecap:round; stroke-linejoin:round;"/><circle cx="11.237" cy="137.595" r="8.275" style="fill:#aebbc7; stroke-width:0px;"/><path d="m11.237,129.303c-3.934,0-7.124,3.189-7.124,7.124v2.337c0,3.934,3.189,7.124,7.124,7.124s7.124-3.189,7.124-7.124v-2.337c0-3.934-3.189-7.124-7.124-7.124Z" style="fill:#aebbc7; stroke-width:0px;"/><path d="m10.279,135.408c-.2.135-.455.284-.768.449l-.818-1.326c.477-.26.905-.535,1.286-.826.382-.29.732-.613,1.054-.968h1.807v9.334h-1.846v-7.215c-.277.234-.516.418-.715.552Z" style="fill:#141b21; stroke-width:0px;"/><path d="m88.148,160.94c-.276,0-.5.224-.5.5v20.562h-43.736c-.397-4.21-3.938-7.505-8.252-7.505h-5.697c-4.314,0-7.855,3.295-8.252,7.505h-2.525c-.239-2.531-1.616-4.731-3.617-6.08-1.316-.898-2.905-1.425-4.618-1.425s-3.303.527-4.618,1.425c-2.206,1.486-3.657,4.007-3.657,6.867s1.451,5.38,3.657,6.867c1.316.898,2.905,1.425,4.618,1.425s3.303-.527,4.618-1.425c2.15-1.449,3.575-3.883,3.646-6.654h2.467c.114,4.48,3.774,8.079,8.281,8.079h5.697c4.508,0,8.167-3.599,8.281-8.079h44.207c.276,0,.5-.224.5-.5v-21.062c0-.276-.224-.5-.5-.5Z" style="fill:none; stroke:#141b21; stroke-linecap:round; stroke-linejoin:round; stroke-width:3px;"/><polyline points="10.756 182.501 88.149 182.501 88.149 161.44" style="fill:none; stroke:#aebbc7; stroke-linecap:round; stroke-linejoin:round;"/><circle cx="10.951" cy="182.789" r="8.275" style="fill:#aebbc7; stroke-width:0px;"/><path d="m10.951,174.497c-4.53,0-8.202,3.672-8.202,8.202v.179c0,4.53,3.672,8.202,8.202,8.202s8.202-3.672,8.202-8.202v-.179c0-4.53-3.672-8.202-8.202-8.202Z" style="fill:#aebbc7; stroke-width:0px;"/><path d="m11.37,185.184h-4.342v-1.339l4.251-5.915h1.82v5.668h1.273v1.586h-1.273v2.08h-1.729v-2.08Zm0-1.586v-3.159l-2.275,3.159h2.275Z" style="fill:#141b21; stroke-width:0px;"/><circle cx="32.812" cy="182.789" r="8.275" style="fill:#aebbc7; stroke-width:0px;"/><path d="m35.66,174.497h-5.697c-4.58,0-8.292,3.712-8.292,8.292s3.712,8.292,8.292,8.292h5.697c4.58,0,8.292-3.712,8.292-8.292s-3.712-8.292-8.292-8.292Z" style="fill:#aebbc7; stroke-width:0px;"/><path d="m27.836,180.601c-.199.135-.455.284-.767.449l-.819-1.326c.477-.26.905-.535,1.287-.826.381-.29.732-.613,1.053-.968h1.808v9.334h-1.847v-7.215c-.277.234-.516.418-.715.552Z" style="fill:#141b21; stroke-width:0px;"/><path d="m33.244,186.834c-.538-.381-.935-.91-1.189-1.586-.256-.676-.384-1.456-.384-2.34v-.624c0-.884.128-1.664.384-2.34.255-.676.651-1.205,1.189-1.586.537-.381,1.217-.572,2.041-.572.814,0,1.492.188,2.034.565s.94.904,1.196,1.58c.255.676.383,1.46.383,2.353v.624c0,.884-.128,1.662-.383,2.333-.256.672-.654,1.201-1.196,1.586-.542.386-1.22.579-2.034.579-.824,0-1.504-.19-2.041-.572Zm3.386-1.839c.238-.507.358-1.185.358-2.035v-.728c0-.867-.117-1.549-.352-2.048-.234-.498-.685-.748-1.352-.748-.677,0-1.129.25-1.358.748-.23.499-.345,1.181-.345,2.048v.728c0,.85.119,1.528.357,2.035s.687.761,1.346.761,1.106-.254,1.345-.761Z" style="fill:#141b21; stroke-width:0px;"/><path d="m68.106,123.017h-5.208v-11.681h5.208c.276,0,.5-.224.5-.5s-.224-.5-.5-.5h-5.708c-.276,0-.5.224-.5.5v5.911h-24.324c-.192-2.297-1.317-4.328-3.001-5.707-1.422-1.179-3.248-1.888-5.239-1.888s-3.817.709-5.239,1.888c-1.684,1.379-2.809,3.41-3.001,5.707h-1.922c-.293-3.1-2.294-5.701-5.054-6.852-.977-.419-2.051-.653-3.181-.653s-2.205.234-3.181.653c-2.991,1.247-5.094,4.197-5.094,7.639s2.103,6.392,5.094,7.639c.977.419,2.051.653,3.181.653s2.205-.234,3.181-.653c2.928-1.221,4.997-4.076,5.083-7.426h1.873c.089,2.457,1.241,4.643,3.02,6.1,1.422,1.179,3.248,1.888,5.239,1.888s3.817-.709,5.239-1.888c1.779-1.457,2.931-3.643,3.02-6.1h24.304v5.77c0,.276.224.5.5.5h5.708c.276,0,.5-.224.5-.5s-.224-.5-.5-.5Z" style="fill:none; stroke:#141b21; stroke-linecap:round; stroke-linejoin:round; stroke-width:3px;"/><line x1="10.756" y1="117.247" x2="62.397" y2="117.247" style="fill:none; stroke:#aebbc7; stroke-linecap:round; stroke-linejoin:round;"/><circle cx="10.937" cy="117.534" r="8.275" style="fill:#aebbc7; stroke-width:0px;"/><path d="m10.937,109.242c-4.462,0-8.079,3.617-8.079,8.079v.426c0,4.462,3.617,8.079,8.079,8.079s8.079-3.617,8.079-8.079v-.426c0-4.462-3.617-8.079-8.079-8.079Z" style="fill:#aebbc7; stroke-width:0px;"/><path d="m7.449,120.54l3.237-3.029c.304-.277.559-.544.767-.799.208-.256.369-.496.481-.722.112-.225.169-.438.169-.637v-.117c0-.312-.119-.567-.357-.767-.238-.199-.539-.299-.903-.299-.521,0-.919.113-1.196.338-.277.226-.459.611-.546,1.157l-1.638-.52c.139-.832.507-1.476,1.104-1.931.599-.455,1.356-.683,2.275-.683.58,0,1.104.104,1.573.312.468.208.838.512,1.111.91.272.398.409.871.409,1.417,0,.451-.089.882-.267,1.293s-.405.789-.683,1.131c-.277.343-.594.674-.949.995l-2.002,1.794h3.966v1.625h-6.553v-1.469Z" style="fill:#141b21; stroke-width:0px;"/><circle cx="29.334" cy="117.443" r="8.275" style="fill:#aebbc7; stroke-width:0px;"/><path d="m29.334,109.151c-4.537,0-8.215,3.678-8.215,8.215v.153c0,4.537,3.678,8.215,8.215,8.215s8.215-3.678,8.215-8.215v-.153c0-4.537-3.678-8.215-8.215-8.215Z" style="fill:#aebbc7; stroke-width:0px;"/><path d="m26.563,121.327c-.629-.49-.942-1.172-.942-2.048,0-.546.114-1.005.344-1.378.229-.373.57-.667,1.021-.884-.363-.199-.632-.453-.806-.761s-.26-.695-.26-1.164c0-.554.139-1.033.416-1.437.277-.403.656-.706,1.138-.91.48-.204,1.016-.306,1.605-.306.606,0,1.147.106,1.625.318.477.213.849.514,1.117.904.269.39.403.849.403,1.378,0,.451-.093.836-.279,1.157-.187.321-.453.59-.8.806.46.208.807.5,1.04.877.234.377.352.843.352,1.397,0,.875-.316,1.558-.949,2.048s-1.469.734-2.509.734c-1.049,0-1.888-.245-2.516-.734Zm3.711-1.151c.304-.165.455-.446.455-.845v-.234c0-.442-.134-.758-.402-.949-.27-.19-.686-.286-1.248-.286s-.979.096-1.248.286c-.269.191-.403.507-.403.949v.234c0,.398.149.68.448.845.299.165.7.247,1.203.247.494,0,.893-.082,1.195-.247Zm-.116-4.238c.19-.182.285-.424.285-.728v-.169c0-.329-.112-.576-.338-.741-.226-.165-.567-.247-1.026-.247-.399,0-.729.085-.988.254s-.39.414-.39.734v.169c0,.304.097.546.292.728s.557.273,1.086.273.888-.091,1.079-.273Z" style="fill:#141b21; stroke-width:0px;"/><polyline points="68.106 123.517 62.397 123.517 62.397 110.836 68.106 110.836" style="fill:none; stroke:#aebbc7; stroke-linecap:round; stroke-linejoin:round;"/><path d="m56.976,51.199h-13.931c-.363-4.244-3.918-7.577-8.256-7.577h-5.698c-4.338,0-7.892,3.333-8.256,7.577h-1.555c-.181-2.62-1.572-4.906-3.628-6.292-1.316-.898-2.905-1.425-4.618-1.425s-3.303.527-4.618,1.425c-2.206,1.486-3.657,4.007-3.657,6.867s1.451,5.38,3.657,6.867c1.316.898,2.905,1.425,4.618,1.425s3.303-.527,4.618-1.425c2.095-1.412,3.499-3.76,3.635-6.442h1.525c.151,4.446,3.794,8.007,8.278,8.007h5.698c4.483,0,8.126-3.561,8.278-8.007h13.409v22.926c0,.276.224.5.5.5s.5-.224.5-.5v-23.426c0-.276-.224-.5-.5-.5Z" style="fill:none; stroke:#141b21; stroke-linecap:round; stroke-linejoin:round; stroke-width:3px;"/><path d="m13.968,62.06h-3.11c-4.58,0-8.292,3.712-8.292,8.292s3.712,8.292,8.292,8.292h3.11c4.58,0,8.292-3.712,8.292-8.292s-3.712-8.292-8.292-8.292Z" style="fill:none; stroke:#141b21; stroke-linecap:round; stroke-linejoin:round; stroke-width:3px;"/><polyline points="10.756 51.699 56.976 51.699 56.976 75.125" style="fill:none; stroke:#aebbc7; stroke-linecap:round; stroke-linejoin:round;"/><circle cx="31.94" cy="51.914" r="8.275" style="fill:#aebbc7; stroke-width:0px;"/><path d="m34.789,43.623h-5.698c-4.58,0-8.292,3.712-8.292,8.292s3.712,8.292,8.292,8.292h5.698c4.58,0,8.292-3.712,8.292-8.292s-3.712-8.292-8.292-8.292Z" style="fill:#aebbc7; stroke-width:0px;"/><path d="m26.965,49.727c-.2.135-.455.284-.768.449l-.818-1.326c.477-.26.905-.535,1.286-.826.382-.29.732-.613,1.054-.968h1.807v9.334h-1.846v-7.215c-.277.234-.516.418-.715.552Z" style="fill:#141b21; stroke-width:0px;"/><path d="m32.372,55.96c-.537-.381-.934-.91-1.189-1.586-.256-.676-.384-1.456-.384-2.34v-.624c0-.884.128-1.664.384-2.34.256-.676.652-1.205,1.189-1.586s1.218-.572,2.041-.572c.814,0,1.493.188,2.034.565.542.377.94.904,1.196,1.58.256.676.384,1.46.384,2.353v.624c0,.884-.128,1.662-.384,2.333-.256.672-.654,1.201-1.196,1.586-.541.386-1.22.579-2.034.579-.823,0-1.504-.19-2.041-.572Zm3.387-1.839c.238-.507.357-1.185.357-2.035v-.728c0-.867-.117-1.549-.351-2.048-.234-.498-.686-.748-1.353-.748-.676,0-1.129.25-1.358.748-.229.499-.345,1.181-.345,2.048v.728c0,.85.119,1.528.357,2.035s.688.761,1.346.761,1.107-.254,1.346-.761Z" style="fill:#141b21; stroke-width:0px;"/><circle cx="11.035" cy="51.774" r="8.275" style="fill:#aebbc7; stroke-width:0px;"/><path d="m11.035,43.482c-4.53,0-8.202,3.672-8.202,8.202v.179c0,4.53,3.672,8.202,8.202,8.202s8.202-3.672,8.202-8.202v-.179c0-4.53-3.672-8.202-8.202-8.202Z" style="fill:#aebbc7; stroke-width:0px;"/><path d="m11.454,54.169h-4.342v-1.339l4.251-5.915h1.82v5.668h1.273v1.586h-1.273v2.08h-1.729v-2.08Zm0-1.586v-3.159l-2.275,3.159h2.275Z" style="fill:#141b21; stroke-width:0px;"/><circle cx="12.414" cy="70.351" r="8.275" style="fill:#aebbc7; stroke-width:0px;"/><path d="m13.968,62.06h-3.11c-4.58,0-8.292,3.712-8.292,8.292s3.712,8.292,8.292,8.292h3.11c4.58,0,8.292-3.712,8.292-8.292s-3.712-8.292-8.292-8.292Z" style="fill:#aebbc7; stroke-width:0px;"/><path d="m8.731,68.164c-.199.135-.455.284-.767.449l-.819-1.326c.477-.26.905-.535,1.287-.826.381-.29.732-.613,1.053-.968h1.808v9.334h-1.847v-7.215c-.277.234-.516.418-.715.552Z" style="fill:#141b21; stroke-width:0px;"/><path d="m14.179,68.164c-.2.135-.455.284-.768.449l-.818-1.326c.477-.26.905-.535,1.286-.826.382-.29.732-.613,1.054-.968h1.807v9.334h-1.846v-7.215c-.277.234-.516.418-.715.552Z" style="fill:#141b21; stroke-width:0px;"/><path d="m644.987,94.585h-5.698c-4.276,0-7.793,3.237-8.241,7.393h-1.562c-.268-2.484-1.634-4.638-3.605-5.967-1.316-.899-2.906-1.426-4.62-1.426s-3.304.527-4.62,1.426c-1.972,1.329-3.338,3.486-3.605,5.972l-21.589.006v-6.904c0-.276-.224-.5-.5-.5h-5.531c-.276,0-.5.224-.5.5s.224.5.5.5h5.031v14.031h-5.031c-.276,0-.5.224-.5.5s.224.5.5.5h5.531c.276,0,.5-.224.5-.5v-7.127l21.545-.006c.036,2.815,1.473,5.292,3.65,6.76,1.316.899,2.906,1.426,4.62,1.426s3.304-.527,4.62-1.426c2.179-1.469,3.616-3.948,3.65-6.765h1.471c.055,4.532,3.741,8.19,8.287,8.19h5.698c4.58,0,8.292-3.712,8.292-8.292s-3.712-8.292-8.292-8.292Z" style="fill:none; stroke:#141b21; stroke-linecap:round; stroke-linejoin:round; stroke-width:3px;"/><line x1="644.257" y1="102.474" x2="590.947" y2="102.489" style="fill:none; stroke:#aebbc7; stroke-linecap:round; stroke-linejoin:round;"/><polyline points="585.416 110.116 590.947 110.116 590.947 95.085 585.416 95.085" style="fill:none; stroke:#aebbc7; stroke-linecap:round; stroke-linejoin:round;"/><circle cx="621.262" cy="102.876" r="8.275" style="fill:#aebbc7; stroke-width:0px;"/><path d="m621.262,94.585c-4.53,0-8.203,3.672-8.203,8.203v.178c0,4.53,3.672,8.203,8.203,8.203s8.203-3.672,8.203-8.203v-.178c0-4.53-3.672-8.203-8.203-8.203Z" style="fill:#aebbc7; stroke-width:0px;"/><path d="m621.682,105.271h-4.343v-1.339l4.251-5.915h1.82v5.668h1.274v1.586h-1.274v2.08h-1.729v-2.08Zm0-1.586v-3.159l-2.275,3.159h2.275Z" style="fill:#141b21; stroke-width:0px;"/><circle cx="642.138" cy="102.876" r="8.275" style="fill:#aebbc7; stroke-width:0px;"/><path d="m644.987,94.585h-5.698c-4.58,0-8.292,3.712-8.292,8.292s3.712,8.292,8.292,8.292h5.698c4.58,0,8.292-3.712,8.292-8.292s-3.712-8.292-8.292-8.292Z" style="fill:#aebbc7; stroke-width:0px;"/><path d="m637.163,100.689c-.2.135-.455.284-.768.449l-.818-1.326c.477-.26.905-.535,1.286-.826.382-.29.732-.613,1.054-.968h1.807v9.334h-1.846v-7.215c-.277.234-.516.418-.715.552Z" style="fill:#141b21; stroke-width:0px;"/><path d="m642.57,106.922c-.537-.381-.934-.91-1.189-1.586-.256-.676-.384-1.456-.384-2.34v-.624c0-.884.128-1.664.384-2.34.256-.676.652-1.205,1.189-1.586s1.218-.572,2.041-.572c.814,0,1.493.188,2.034.565.542.377.94.904,1.196,1.58.256.676.384,1.46.384,2.353v.624c0,.884-.128,1.662-.384,2.333-.256.672-.654,1.201-1.196,1.586-.541.386-1.22.579-2.034.579-.823,0-1.504-.19-2.041-.572Zm3.387-1.839c.238-.507.357-1.185.357-2.035v-.728c0-.867-.117-1.549-.351-2.048-.234-.498-.686-.748-1.353-.748-.676,0-1.129.25-1.358.748-.229.499-.345,1.181-.345,2.048v.728c0,.85.119,1.528.357,2.035s.688.761,1.346.761,1.107-.254,1.346-.761Z" style="fill:#141b21; stroke-width:0px;"/><line x1="464.209" y1="109.662" x2="473.667" y2="109.662" style="fill:none; stroke:#aebbc7; stroke-linecap:round; stroke-linejoin:round;"/></g></svg>