<?xml version="1.0" encoding="UTF-8"?><svg xmlns="http://www.w3.org/2000/svg" width="654" height="196.16" viewBox="0 0 654 196.16"><g id="uuid-066546ae-a6c8-4eb6-9edc-eab32fcadcad"><path d="m580.743,67.846c0-5.107-7.984-4.916-11.331-4.916s-129.833.181-138.861.218-8.618-4.141-9.028-8.347c-.41-4.206-2.857-34.165-3.338-37.391-.639-4.292-3.612-6.139-5.936-6.53" style="fill:none; stroke:#687581; stroke-miterlimit:10; stroke-width:.5px;"/><path d="m581.984,79.682s0,5.23,0,7.992c0,2.763-.188,6.645-4.04,9.817-4.572,3.765-9.17,8.551-19.398,10.007-10.228,1.456-13.167,1.691-15.342,1.867-2.175.176-4.796-.085-7.275-4.548-2.283-4.11-8.42-13.792-14.945-16.732-6.525-2.939-13.167-3.645-32.213-3.645-19.046,0-32.095,2.057-37.68,5.232-5.584,3.174-11.933,9.053-16.871,21.279-4.938,12.227-8.055,20.92-8.055,20.92" style="fill:none; stroke:#687581; stroke-miterlimit:10; stroke-width:.5px;"/><path d="m76.356,79.432l.29-1.8c.083-.514.417-.952.891-1.168,4.216-1.92,21.367-5.023,24.026-5.317,22.983-2.541,97.324-2.746,97.324-2.746l112.393-3.28s45.753-.909,51.758-1.14c6.006-.231,14.677-1.517,23.619-7.313,15.125-9.804,12.564-6.34,12.366-37.246" style="fill:none; stroke:#687581; stroke-miterlimit:10; stroke-width:.5px;"/><path d="m205.894,154.919l.634-.948c.519-.777,1.482-2.137,2.726-3.536,2.192-2.466,4.443-3.287,7.671-3.425,7.459-.317,154.106-2.769,164.662-2.862,8.042-.071,14.449.247,21.395,7.088" style="fill:none; stroke:#687581; stroke-miterlimit:10; stroke-width:.5px;"/><line x1="323.266" y1="60.033" x2="325.301" y2="17.966" style="fill:none; stroke:#687581; stroke-miterlimit:10; stroke-width:.5px;"/><line x1="301.448" y1="60.414" x2="308.786" y2="18.184" style="fill:none; stroke:#687581; stroke-miterlimit:10; stroke-width:.5px;"/><path d="m82.872,153.878c4.028-20.68,6.862-29.998,9.681-37.528" style="fill:none; stroke:#687581; stroke-miterlimit:10; stroke-width:.5px;"/><line x1="423.135" y1="20.001" x2="426.728" y2="18.351" style="fill:none; stroke:#687581; stroke-miterlimit:10; stroke-width:.5px;"/><path d="m74.789,89.021l-.137,2.186c-.143,2.289-.341,11.225-.371,13.678-.06,4.947.41,6.958,4.163,6.986,4.194.032,6.65,0,7.701,0,1.804,0,3.243-.435,4.407-2.397s5.47-9.365,7.808-12.329c2.936-3.722,8.069-9.224,41.189-9.224,33.12,0,37.468,4.034,44.589,17.169l5.19,10.088c.75,1.458,2.267,2.361,3.907,2.324l5.755-.129" style="fill:none; stroke:#687581; stroke-miterlimit:10; stroke-width:.5px;"/><line x1="397.211" y1="9.636" x2="409.682" y2="10.676" style="fill:none; stroke:#687581; stroke-miterlimit:10; stroke-width:.5px;"/><path d="m426.462,53.88s-2.928-30.604-3.386-34.386c-.457-3.782-3.45-8.259-10.43-8.572" style="fill:none; stroke:#687581; stroke-miterlimit:10; stroke-width:.5px;"/><path d="m589.259,67.842s-18.941.242-22.617.363-3.434,1.737-3.312,3.959.903,7.153,5.332,7.514c4.801.39,21.255,0,21.255,0" style="fill:none; stroke:#687581; stroke-miterlimit:10; stroke-width:.5px;"/><path d="m537.505,149.483s-1.403-16.246-6.239-27.916c-4.638-11.191-10.239-21.412-17.804-23.782s-26.401-1.738-26.401-1.738c0,0-20.052.273-26.796,3.008-6.745,2.734-12.026,9.723-17.682,27.161-4.53,13.966-6.836,29.348-6.836,29.348" style="fill:none; stroke:#687581; stroke-miterlimit:10; stroke-width:1px;"/><path d="m63.321,79.898q15.03-.547,25.402-.822c5.318-.267,7.138.692,5.273,3.036-2.077,2.611-4.098,6.075-9.215,6.392-4.046.25-10.706.642-21.359,1.119" style="fill:none; stroke:#687581; stroke-miterlimit:10; stroke-width:.5px;"/><path d="m587.608,108.276s-4.685,3.967-11.555,8.173c-8.248,5.05-24.369,6.916-30.261,8.095-5.891,1.178-6.941.16-8.585-3.379-1.644-3.539-5.69-12.659-12.192-21.69-6.576-9.133-17.58-9.27-37.165-8.948-11.376.187-21.786.683-29.12,3.114-14.415,4.778-20.199,25.165-22.64,32.234-2.441,7.07-7.154,5.891-12.372,5.976-5.218.084-217.393,4.124-223.537,4.124-6.144,0-7.406.757-8.487-2.022-1.295-3.331-5.043-14.203-10.14-23.659-6.544-12.142-10.483-17.53-41.389-17.53-30.906,0-36.028,4.884-38.768,8.309-2.325,2.906-5.782,9.174-9.122,15.743-.449.882-1.343,1.455-2.331,1.492l-23.262.869" style="fill:none; stroke:#687581; stroke-miterlimit:10; stroke-width:.5px;"/><path d="m140.143,191.371c-24.174,0-43.841-19.667-43.841-43.841,0-24.174,19.667-43.841,43.841-43.841,24.174,0,43.841,19.667,43.841,43.841,0,24.174-19.667,43.841-43.841,43.841Z" style="fill:none; stroke:#687581; stroke-miterlimit:10; stroke-width:1px;"/><path d="m140.14,177.775c-16.678,0-30.246-13.568-30.246-30.245,0-16.678,13.568-30.246,30.246-30.246,16.678,0,30.246,13.568,30.246,30.246,0,16.677-13.568,30.245-30.246,30.245Z" style="fill:none; stroke:#687581; stroke-miterlimit:10; stroke-width:.5px;"/><path d="m131.951,168.193c-3.444-1.416-6.591-3.713-9.002-6.666l3.099-5.594c.242-.457.622-.815,1.104-1.043l7.401-3.417c.507-.25.752-.808.596-1.335l-.32-.97-.299-.943c-.164-.465-.593-.765-1.074-.765h-.058s-.129.015-.129.015l-8.018,1.585c-.16.032-.318.049-.475.049-.349,0-.7-.081-1.014-.231l-5.872-2.805c.268-3.724,1.477-7.432,3.546-10.63l6.284,1.224c.51.097.975.351,1.307.715l5.564,5.997c.203.224.499.353.806.353.236,0,.464-.075.657-.215l1.613-1.157c.463-.367.585-.968.314-1.449l-3.974-7.126c-.254-.44-.353-.965-.283-1.486l.849-6.423c5.488-1.282,9.557-.361,11.195.079l.792,6.343c.068.508-.033,1.038-.283,1.488l-3.977,7.129c-.274.486-.142,1.107.308,1.441l1.61,1.163c.192.14.42.215.658.215.301,0,.585-.119.8-.336l5.564-6.008c.346-.374.804-.624,1.324-.721l6.368-1.184c1.974,3.16,3.183,6.871,3.396,10.691l-5.802,2.696c-.326.157-.677.236-1.024.236-.156,0-.313-.015-.467-.047l-8.081-1.595-.14-.006c-.493,0-.932.322-1.067.783l-.306.925-.301.949c-.183.521.067,1.11.585,1.353l7.411,3.423c.467.224.85.586,1.1,1.042l3.088,5.684c-2.406,2.846-5.537,5.138-9.046,6.529l-4.429-4.679c-.358-.375-.586-.856-.646-1.354l-.97-8.11c-.061-.557-.538-.982-1.107-.982h-1.984c-.565,0-1.04.422-1.106.984l-.968,8.107c-.061.51-.288.988-.639,1.349l-4.48,4.731Z" style="fill:none; stroke:#687581; stroke-linecap:round; stroke-linejoin:round; stroke-width:.5px;"/><path d="m144.605,169.402c-1.438.291-2.941.444-4.468.444s-3.022-.154-4.46-.444l4.46-4.468,4.468,4.468Z" style="fill:none; stroke:#687581; stroke-linecap:round; stroke-linejoin:round; stroke-width:.5px;"/><path d="m162.322,150.042c-.168,1.458-.486,2.934-.958,4.387-.472,1.452-1.08,2.827-1.801,4.105l-2.871-5.623,5.63-2.869Z" style="fill:none; stroke:#687581; stroke-linecap:round; stroke-linejoin:round; stroke-width:.5px;"/><path d="m149.384,127.21c1.335.61,2.641,1.369,3.876,2.267,1.235.898,2.355,1.9,3.347,2.981l-6.235.993-.989-6.241Z" style="fill:none; stroke:#687581; stroke-linecap:round; stroke-linejoin:round; stroke-width:.5px;"/><path d="m123.672,132.459c.993-1.081,2.118-2.088,3.354-2.986,1.235-.898,2.535-1.652,3.87-2.262l-.982,6.237-6.241-.988Z" style="fill:none; stroke:#687581; stroke-linecap:round; stroke-linejoin:round; stroke-width:.5px;"/><path d="m120.717,158.535c-.721-1.278-1.331-2.66-1.803-4.112-.472-1.452-.788-2.921-.956-4.379l5.628,2.861-2.869,5.63Z" style="fill:none; stroke:#687581; stroke-linecap:round; stroke-linejoin:round; stroke-width:.5px;"/><path d="m126.552,148.803c-.457-4.896,1.73-8.48,3.438-10.386" style="fill:none; stroke:#687581; stroke-linecap:round; stroke-linejoin:round; stroke-width:.5px;"/><path d="m137.22,160.862c-3.795-.83-7.004-3.245-8.897-6.512" style="fill:none; stroke:#687581; stroke-linecap:round; stroke-linejoin:round; stroke-width:.5px;"/><path d="m151.972,154.354c-1.343,2.086-3.868,5.406-8.917,6.509" style="fill:none; stroke:#687581; stroke-linecap:round; stroke-linejoin:round; stroke-width:.5px;"/><path d="m150.289,138.416c3.325,3.699,3.669,7.908,3.439,10.385" style="fill:none; stroke:#687581; stroke-linecap:round; stroke-linejoin:round; stroke-width:.5px;"/><path d="m134.696,135.016c5.152-2.252,9.617-.556,10.894.002" style="fill:none; stroke:#687581; stroke-linecap:round; stroke-linejoin:round; stroke-width:.5px;"/><path d="m487.041,191.371c-24.174,0-43.841-19.667-43.841-43.841,0-24.174,19.667-43.841,43.841-43.841,24.174,0,43.841,19.667,43.841,43.841,0,24.174-19.667,43.841-43.841,43.841Z" style="fill:none; stroke:#687581; stroke-miterlimit:10; stroke-width:1px;"/><path d="m487.038,177.775c-16.678,0-30.246-13.568-30.246-30.245,0-16.678,13.568-30.246,30.246-30.246,16.678,0,30.246,13.568,30.246,30.246,0,16.677-13.568,30.245-30.246,30.245Z" style="fill:none; stroke:#687581; stroke-miterlimit:10; stroke-width:.5px;"/><path d="m478.849,168.193c-3.444-1.416-6.591-3.713-9.002-6.666l3.099-5.594c.242-.457.622-.815,1.104-1.043l7.401-3.417c.507-.25.752-.808.596-1.335l-.32-.97-.299-.943c-.164-.465-.593-.765-1.074-.765h-.058s-.129.015-.129.015l-8.018,1.585c-.16.032-.318.049-.475.049-.349,0-.7-.081-1.014-.231l-5.872-2.805c.268-3.724,1.477-7.432,3.546-10.63l6.284,1.224c.51.097.975.351,1.307.715l5.564,5.997c.203.224.499.353.806.353.236,0,.464-.075.657-.215l1.613-1.157c.463-.367.585-.968.314-1.449l-3.974-7.126c-.254-.44-.353-.965-.283-1.486l.849-6.423c5.488-1.282,9.557-.361,11.195.079l.792,6.343c.068.508-.033,1.038-.283,1.488l-3.977,7.129c-.274.486-.142,1.107.308,1.441l1.61,1.163c.192.14.42.215.658.215.301,0,.585-.119.8-.336l5.564-6.008c.346-.374.804-.624,1.324-.721l6.368-1.184c1.974,3.16,3.183,6.871,3.396,10.691l-5.802,2.696c-.326.157-.677.236-1.024.236-.156,0-.313-.015-.467-.047l-8.081-1.595-.14-.006c-.493,0-.932.322-1.067.783l-.306.925-.301.949c-.183.521.067,1.11.585,1.353l7.411,3.423c.467.224.85.586,1.1,1.042l3.088,5.684c-2.406,2.846-5.537,5.138-9.046,6.529l-4.429-4.679c-.358-.375-.586-.856-.646-1.354l-.97-8.11c-.061-.557-.538-.982-1.107-.982h-1.984c-.565,0-1.04.422-1.106.984l-.968,8.107c-.061.51-.288.988-.639,1.349l-4.48,4.731Z" style="fill:none; stroke:#687581; stroke-linecap:round; stroke-linejoin:round; stroke-width:.5px;"/><path d="m491.503,169.402c-1.438.291-2.941.444-4.468.444s-3.022-.154-4.46-.444l4.46-4.468,4.468,4.468Z" style="fill:none; stroke:#687581; stroke-linecap:round; stroke-linejoin:round; stroke-width:.5px;"/><path d="m509.22,150.042c-.168,1.458-.486,2.934-.958,4.387-.472,1.452-1.08,2.827-1.801,4.105l-2.871-5.623,5.63-2.869Z" style="fill:none; stroke:#687581; stroke-linecap:round; stroke-linejoin:round; stroke-width:.5px;"/><path d="m496.282,127.21c1.335.61,2.641,1.369,3.876,2.267,1.235.898,2.355,1.9,3.347,2.981l-6.235.993-.989-6.241Z" style="fill:none; stroke:#687581; stroke-linecap:round; stroke-linejoin:round; stroke-width:.5px;"/><path d="m470.57,132.458c.993-1.081,2.118-2.088,3.354-2.986s2.535-1.652,3.87-2.262l-.982,6.237-6.241-.988Z" style="fill:none; stroke:#687581; stroke-linecap:round; stroke-linejoin:round; stroke-width:.5px;"/><path d="m467.615,158.535c-.721-1.278-1.331-2.66-1.803-4.112-.472-1.452-.788-2.921-.956-4.379l5.628,2.861-2.869,5.63Z" style="fill:none; stroke:#687581; stroke-linecap:round; stroke-linejoin:round; stroke-width:.5px;"/><path d="m473.45,148.802c-.457-4.896,1.73-8.48,3.438-10.386" style="fill:none; stroke:#687581; stroke-linecap:round; stroke-linejoin:round; stroke-width:.5px;"/><path d="m484.118,160.862c-3.795-.83-7.004-3.245-8.897-6.512" style="fill:none; stroke:#687581; stroke-linecap:round; stroke-linejoin:round; stroke-width:.5px;"/><path d="m498.87,154.354c-1.343,2.086-3.868,5.406-8.917,6.509" style="fill:none; stroke:#687581; stroke-linecap:round; stroke-linejoin:round; stroke-width:.5px;"/><path d="m497.187,138.416c3.325,3.699,3.669,7.908,3.439,10.385" style="fill:none; stroke:#687581; stroke-linecap:round; stroke-linejoin:round; stroke-width:.5px;"/><path d="m481.594,135.016c5.152-2.252,9.617-.556,10.894.002" style="fill:none; stroke:#687581; stroke-linecap:round; stroke-linejoin:round; stroke-width:.5px;"/><path d="m193.303,158.663s-4.737-21.795-10.077-33.571c-8.676-19.133-11.918-27.946-38.867-27.678-31.186.31-39.095,2.563-44.891,16.159-5.376,12.611-8.352,26.364-11.254,41.07" style="fill:none; stroke:#687581; stroke-linecap:round; stroke-miterlimit:10; stroke-width:1px;"/><line x1="443.918" y1="155.46" x2="182.516" y2="158.801" style="fill:none; stroke:#687581; stroke-miterlimit:10; stroke-width:.5px;"/><path d="m66.682,114.131h5.151c1.065,0,2.129.441,2.957,1.417l1.4,1.65c.313.369.551,1.068.529,1.552l-.478,10.174c-.091,1.932-1.351,3.613-3.18,4.243l-3.615,1.245c-5.085,1.751-10.219,2.418-10.219,2.418" style="fill:none; stroke:#687581; stroke-miterlimit:10; stroke-width:.5px;"/><path d="m231.673,41.207l-.166.957s-.257,1.484-.631,4.284" style="fill:none; stroke:#687581; stroke-miterlimit:10; stroke-width:.5px;"/><path d="m229.046,43.101c-.22,1.415-.411,2.829-.506,3.54" style="fill:none; stroke:#687581; stroke-miterlimit:10; stroke-width:.5px;"/><path d="m263.8,16.753c-9.313,5.727-34.418,20.752-65.524,46.174" style="fill:none; stroke:#687581; stroke-miterlimit:10; stroke-width:.5px;"/><path d="m88.065,159.08h-.012.012Z" style="fill:none; stroke:#687581; stroke-miterlimit:10; stroke-width:.5px;"/><path d="m97.212,156.443h-3.322c-.98,0-2.044.758-2.365,1.683l-.708,2.043c-.092.267-.399.485-.681.485h-1.014c-.363,0-.678-.297-.699-.66l-.21-5.352c-3.37-.273-6.84-.572-11.657-3.467-7.03-4.224-12.857-8.336-16.461-12.159-.556-.59-.855-1.376-.867-2.186l-.21-13.598c-.01-.648.358-1.243.942-1.523l6.722-2.533v-5.046s-1.108-.082-1.805-1.231c-.429-.707-1.201-1.897-1.73-2.706-.369-.564-.558-1.227-.54-1.901l.73-28.667c.067-2.626,1.668-4.964,4.096-5.964,6.556-2.701,21.19-7.636,43.911-9.418,31.942-2.505,58.158-2.4,61.469-2.668,3.311-.268,6.8,1.342,10.2,1.342s8.32.179,8.32.179c0,0,28.542-24.382,63.974-46.168,5.45-3.446,10.061-5.393,24.343-6.218h-.006c10.826-.627,56.1-1.522,68.805-1.701,12.705-.179,29.526-.268,48.763.626,0,0,3.132-6.532,7.426-6.532h4.295s.75,7.572.75,7.572c0,0,12.313.91,21.954,2.284.005.161.173,3.017-2.617,4.325-1.685.79-1.73.814-2.291,1.066h0c.259,1.687,2.194,22.162,3.091,31.361l-.003.018c.024.319.046.594.063.828.049.639-.275,1.245-.831,1.563l-2.58,1.357s-.236,3.052,1.716,3.03l154.324-.747c.866-.004,1.701.304,2.328.902l3.126,2.984c.613.585.979,1.377,1.022,2.223.222,4.318.946,18.912,1.398,25.118.54,7.404-2.777,21.287-2.777,21.287l4.088,2.699v5.15c0,5.224-2.337,12.401-5.493,18.996-.33.691-.932,1.214-1.662,1.445-7.017,2.223-24.047,7.4-47.036,12.917-1.339.321-3.73.892-6.764,1.593" style="fill:none; stroke:#687581; stroke-miterlimit:10; stroke-width:.5px;"/><rect x="371.4" y="71.417" width="22.008" height="4.368" rx="2.184" ry="2.184" transform="translate(-.945 5.092) rotate(-.762)" style="fill:none; stroke:#687581; stroke-linecap:round; stroke-linejoin:round; stroke-width:.5px;"/><rect x="277.759" y="74.018" width="22.008" height="4.368" rx="2.184" ry="2.184" transform="translate(-1.304 5.124) rotate(-1.014)" style="fill:none; stroke:#687581; stroke-linecap:round; stroke-linejoin:round; stroke-width:.5px;"/><path d="m316.856,16.158l-4.768,44.196-.898,4.768s-2.695,18.655-2.695,36.205c0,13.627.425,15.142,1.442,32.357l1.002,19.272" style="fill:none; stroke:#687581; stroke-miterlimit:10; stroke-width:.5px;"/><path d="m185.132,117.685s161.443-3.763,170.783-3.934c9.341-.171,18.167-1.2,27.679-13.625,9.512-12.426,16.033-22.611,17.567-25.622,2.562-5.029,3.923-9.343,3.771-14.825-.249-8.971-.852-38.742-.852-38.742" style="fill:none; stroke:#687581; stroke-miterlimit:10; stroke-width:.5px;"/><path d="m408.171,71.998c3.943,0,15.73,0,19.538,0,4.611,0,10.514,1.084,14.85,4.769,4.336,3.685,9.232,8.78,11.139,10.406,1.049.894,2.412,3.968,3.142,5.747l.479,1.17" style="fill:none; stroke:#687581; stroke-miterlimit:10; stroke-width:.5px;"/><path d="m399.041,21.583c-2.025-.472-4.062-.908-6.107-1.307-7.354-1.436-14.107-2.257-20.588-2.506-11.415-.441-77.661.599-104.354,1.044-1.688.028-3.344.51-4.78,1.398-11.854,7.331-33.756,21.353-59.895,42.716" style="fill:none; stroke:#687581; stroke-miterlimit:10; stroke-width:.5px;"/><path d="m255.261,16.955l1.553-.028s101.11-1.793,115.631-1.233c9.084.35,17.176,1.75,23.07,2.972,2.346.487,4.392.956,5.962,1.308,5.516,1.236,5.706,5.04,5.896,8.273.19,3.233.992,23.452.992,23.452.35,9.859.787,16.019,0,19.718-1.517,4.552-2.059,6.612-6.612,15.066-11.143,19.656-21.719,35.31-29.309,46.319l-13.273,19.253-157.606,2.945" style="fill:none; stroke:#687581; stroke-miterlimit:10; stroke-width:.5px;"/><path d="m235.025,62.033l2.014-.067s104.651-2.296,122.224-2.531c17.573-.236,24.49-6.127,30.146-9.897,5.656-3.77,6.009-7.069,6.108-12.843.073-4.283.038-11.996.013-15.891" style="fill:none; stroke:#687581; stroke-miterlimit:10; stroke-width:.5px;"/><path d="m228.071,64.265h-5.312c-.848,0-1.981-.536-2.519-1.191l-4.29-5.224c-.388-.472-.688-1.01-.887-1.589l-.062-.181" style="fill:none; stroke:#687581; stroke-miterlimit:10; stroke-width:.5px;"/><g id="uuid-85dd54e8-735e-4777-a120-46c837d43689"><path d="m219.826,66.399c.393-.013.786-.096,1.151-.247,1.003-.415,3.718-1.387,7.094-1.387,1.61,0,4.734.024,6.53-1.438,1.986-1.983,2.039-2.854,2.143-5.276.003-.077.007-.155.01-.235.025-.572.027-2.045.011-2.615-.067-2.268-.098-3.22-.931-5.868-.451-1.434-.883-2.493-1.795-3.058-.296-.183-.627-.306-.998-.38-1.353-.273-3.45.067-6.895.61-.122.019-.246.039-.406.065-6.649,1.524-10.586,7.249-10.583,7.251-.396.444-.614.886-.694,1.327-.129.709.12,1.323.283,1.745.186.48.221.646.17.771-.03.073-.139.233-.584.432-3.702,1.659-3.858,1.809-6.164,4.411-.181.204-.375.423-.586.66-.145.163-.243.351-.295.548-.054.207-.057.421-.012.624s.136.396.271.562c.129.157.297.287.496.375l2.33,1.019c.488.213,1.279.366,1.811.349l7.641-.244Z" style="fill:none; stroke:#687581; stroke-miterlimit:10; stroke-width:.5px;"/><path d="m219.818,66.149c.364-.012.727-.089,1.064-.228,1.02-.422,3.769-1.406,7.19-1.406,1.643,0,4.66.012,6.353-1.365,1.925-1.923,1.968-2.723,2.07-5.11.003-.077.007-.155.01-.235.025-.565.027-2.032.01-2.596-.067-2.255-.096-3.183-.92-5.801-.455-1.446-.866-2.411-1.689-2.92-.267-.165-.569-.278-.915-.348-1.297-.262-3.333.064-6.806.612-.122.019-.246.039-.389.062-6.58,1.508-10.472,7.199-10.452,7.174-.371.416-.564.817-.635,1.205-.114.629.104,1.18.271,1.61.174.45.264.721.168.956-.066.16-.244.355-.713.565-3.672,1.646-3.799,1.776-6.08,4.349-.181.204-.376.424-.587.661-.118.133-.198.285-.239.445-.044.168-.046.342-.01.507s.11.322.221.456c.104.127.24.233.403.304l2.33,1.019c.454.198,1.208.344,1.703.328l7.641-.244Z" style="fill:none; stroke:#687581; stroke-miterlimit:10; stroke-width:.5px;"/></g><path d="m219.81,65.899c.334-.011.667-.082.976-.209,1.036-.428,3.819-1.425,7.285-1.425,1.675,0,4.586,0,6.176-1.292,1.925-1.923,1.896-2.638,2.007-5.179.024-.558.027-2.018.01-2.578-.066-2.242-.094-3.145-.908-5.733-1.197-3.803-1.929-3.62-9.505-2.426-6.48,1.486-10.321,7.097-10.321,7.097-1.842,2.064,1.349,3.349-.993,4.398-3.934,1.763-3.732,1.75-6.582,4.948-.377.423-.231,1.09.288,1.317l2.33,1.019c.42.184,1.137.322,1.595.307l7.641-.244Z" style="fill:none; stroke:#687581; stroke-miterlimit:10; stroke-width:.5px;"/><path d="m236.196,57.794h-9.775c-.202,0-.385-.122-.462-.309s-.035-.402.108-.545l1.035-1.035c.441-.441,1.039-.689,1.663-.689h7.5" style="fill:none; stroke:#687581; stroke-linecap:round; stroke-linejoin:round; stroke-width:.5px;"/><line x1="201.564" y1="155" x2="192.502" y2="155.169" style="fill:none; stroke:#687581; stroke-miterlimit:10; stroke-width:.5px;"/><line x1="436.595" y1="150.609" x2="359.17" y2="152.055" style="fill:none; stroke:#687581; stroke-miterlimit:10; stroke-width:.5px;"/><line x1="236.196" y1="57.794" x2="215.95" y2="57.794" style="fill:none; stroke:#687581; stroke-linecap:round; stroke-linejoin:round; stroke-width:.5px;"/><g id="uuid-c6539c45-bca3-49ca-b633-0c64565201ad"><path d="m254.771,16.083c5.632-3.562,10.421-5.54,24.82-6.371,10.854-.626,56.149-1.521,68.842-1.693,12.58-.181,29.189-.268,48.183.596.667-1.215,2.373-3.992,4.75-5.488.949-.598,2.054-1.023,3.275-1.023h5.193s.761,7.641.761,7.641c2.934.231,13.01,1.066,21.185,2.226l.844.12s.015.865.015.874c0,.037.003.11.001.207-.006.519-.095,1.802-.894,3.044-.485.754-1.218,1.471-2.304,1.983-.67.311-1.081.503-1.368.637-.102.048-.189.088-.266.124.218,1.91.693,6.728,1.217,12.165.573,5.831,1.206,12.43,1.649,17.045.049.51.096.995.144,1.557,0,0,0,.005-.002-.061.021.315.042.577.064.828.035.513-.08,1.016-.314,1.452-.229.427-.577.796-1.048,1.063l-2.051,1.077c.012.202.04.441.099.679.093.38.225.584.333.667.046.036.12.078.288.076,0,0,154.318-.743,154.322-.743,1.104,0,2.191.384,3.018,1.182,0,0,3.124,2.984,3.121,2.981.801.758,1.278,1.797,1.334,2.893.037.701.086,1.672.146,2.833.308,6.007.875,17.084,1.253,22.27.479,6.588-1.986,18.008-2.645,20.908l3.963,2.607v5.689c0,5.453-2.417,12.793-5.592,19.424-.224.47-.538.88-.916,1.213-.387.34-.84.6-1.344.765-7.041,2.225-24.086,7.403-47.112,12.938-.507.118-1.165.273-1.952.458-1.128.266-2.519.593-4.108.962-1.091,11.268-6.37,21.327-14.25,28.6-7.995,7.378-18.673,11.893-30.379,11.893-10.894,0-20.894-3.905-28.671-10.387-7.691-6.41-13.213-15.344-15.278-25.521l-259.817,3.319c-2.672,9.386-8.326,17.525-15.866,23.321-7.559,5.81-17.017,9.268-27.27,9.268-10.703,0-20.544-3.77-28.26-10.052-7.65-6.228-13.216-14.927-15.467-24.875h-2.522c-.245,0-.56.1-.856.31s-.491.471-.569.696c0,0-.7,2.036-.705,2.05-.129.36-.375.638-.64.824-.262.184-.607.322-.991.322h-1.013c-.456,0-.868-.187-1.166-.468-.293-.276-.505-.671-.533-1.151l-.171-4.469c-3.173-.275-6.621-.776-11.207-3.525-7.048-4.242-12.977-8.404-16.673-12.333-.742-.784-1.132-1.815-1.146-2.859,0,0-.205-13.596-.205-13.594-.009-.518.134-1.015.395-1.438s.642-.774,1.189-1.033l6.076-2.298v-3.606c-.146-.062-.3-.138-.452-.232-.416-.256-.853-.646-1.202-1.223-.403-.665-1.125-1.77-1.654-2.58-.021-.032-.042-.064-.067-.102-.469-.731-.725-1.586-.697-2.472,0,0,.733-28.668.732-28.667.037-1.509.517-2.939,1.34-4.135.818-1.19,1.976-2.148,3.372-2.722,6.64-2.741,21.383-7.702,44.216-9.499,24.041-1.881,44.838-2.287,55.082-2.487,3.41-.067,5.596-.11,6.378-.174,1.954-.159,3.93.277,5.736.667,1.607.348,3.095.665,4.568.666l7.941.17c3.093-2.615,30.396-25.467,63.797-46.006Z" style="fill:none; stroke:#687581; stroke-miterlimit:3; stroke-width:.5px;"/><path d="m254.905,16.294c5.587-3.533,10.331-5.503,24.701-6.332,10.847-.626,56.136-1.52,68.831-1.693,12.613-.182,29.273-.268,48.325.603.597-1.11,2.318-4.01,4.738-5.534.921-.58,1.98-.984,3.142-.984h4.967s.759,7.624.759,7.624c2.63.206,13.003,1.053,21.378,2.241l.635.09s.01.652.01.662c0,.037.003.106.001.198-.006.498-.092,1.727-.854,2.912-.461.717-1.159,1.401-2.199,1.891-.67.311-1.081.503-1.368.637-.181.084-.313.146-.43.2.205,1.759.694,6.711,1.237,12.34.572,5.831,1.206,12.43,1.649,17.044.049.509.095.994.143,1.534,0,0,0,.004-.002-.046.021.317.042.581.064.828.032.465-.072.921-.285,1.317-.208.387-.523.721-.944.96l-2.192,1.151c.007.242.034.565.112.886.098.402.249.671.422.806.093.072.222.131.443.128,0,0,154.318-.743,154.321-.743,1.046,0,2.069.363,2.845,1.113,0,0,3.124,2.984,3.122,2.982.754.714,1.204,1.693,1.257,2.725.037.701.086,1.672.146,2.833.308,6.005.875,17.086,1.254,22.275.486,6.684-2.086,18.418-2.679,21.003l3.995,2.628v5.554c0,5.396-2.397,12.695-5.567,19.316-.209.439-.503.822-.856,1.132-.361.318-.785.56-1.254.714-7.037,2.223-24.076,7.4-47.093,12.933-.508.118-1.166.273-1.952.458-1.169.275-2.621.617-4.282,1.003-1.046,11.277-6.309,21.348-14.187,28.619-7.95,7.337-18.569,11.827-30.21,11.827-10.833,0-20.777-3.883-28.511-10.329-7.7-6.417-13.213-15.378-15.234-25.581l-260.211,3.324c-2.635,9.409-8.282,17.569-15.829,23.37s-16.922,9.216-27.117,9.216c-10.643,0-20.429-3.749-28.102-9.996-7.657-6.234-13.215-14.958-15.425-24.931h-2.723c-.307,0-.671.122-1,.356s-.562.534-.661.818c0,0-.7,2.036-.704,2.046-.109.304-.319.543-.548.704-.228.16-.523.277-.847.277h-1.013c-.387,0-.739-.159-.995-.4-.251-.237-.431-.573-.455-.979l-.179-4.689c-3.218-.27-6.675-.724-11.32-3.509-7.045-4.24-12.948-8.388-16.62-12.29-.696-.736-1.065-1.706-1.078-2.691,0,0-.205-13.596-.205-13.595-.008-.469.121-.919.358-1.302s.582-.701,1.064-.931l6.238-2.359v-3.948c-.177-.065-.374-.154-.571-.276-.386-.238-.793-.6-1.12-1.14-.406-.67-1.13-1.779-1.659-2.587-.021-.032-.042-.064-.066-.1-.443-.691-.684-1.496-.657-2.331,0,0,.733-28.668.732-28.667.036-1.46.5-2.843,1.296-3.999.791-1.151,1.911-2.077,3.262-2.633,6.618-2.732,21.335-7.686,44.14-9.481,24.033-1.881,44.824-2.287,55.067-2.487,3.403-.066,5.602-.11,6.393-.174,1.911-.155,3.849.27,5.663.662,1.602.346,3.116.671,4.616.671,0,0,8.036.172,8.036.172,2.705-2.29,30.171-25.343,63.841-46.046Z" style="fill:none; stroke:#687581; stroke-miterlimit:3; stroke-width:.5px;"/><path d="m255.038,16.505c5.541-3.504,10.241-5.466,24.581-6.294,10.841-.626,56.123-1.52,68.82-1.692,12.646-.182,29.357-.269,48.468.61.506-.963,2.248-4.02,4.725-5.579.893-.562,1.907-.946,3.009-.946h4.74s.757,7.607.757,7.607c2.234.173,12.961,1.034,21.57,2.256l.425.06s.005.439.005.45c0,.036.002.101.001.189-.006.478-.089,1.652-.815,2.78-.437.679-1.1,1.331-2.094,1.8-.67.311-1.081.503-1.368.637-.27.126-.431.2-.594.276.189,1.563.694,6.667,1.257,12.515.572,5.83,1.206,12.429,1.649,17.044.049.509.095.994.142,1.512,0,0,0,.002-.001-.032.021.319.042.585.065.829.028.417-.065.826-.256,1.181-.187.348-.469.646-.84.857l-2.327,1.222c0,.262.02.68.122,1.096.104.423.273.758.512.944.139.108.324.184.597.181,0,0,154.318-.743,154.32-.743.988,0,1.947.343,2.672,1.043,0,0,3.124,2.984,3.123,2.983.707.67,1.129,1.588,1.179,2.556.037.701.086,1.672.146,2.833.308,6.004.875,17.088,1.254,22.281.495,6.802-2.207,18.915-2.712,21.098l4.028,2.65v5.419c0,5.339-2.378,12.596-5.543,19.209-.195.408-.467.764-.795,1.052-.336.296-.73.521-1.164.663-7.033,2.222-24.066,7.397-47.074,12.928-.508.118-1.167.273-1.953.458-1.21.285-2.724.641-4.458,1.043-1,11.286-6.248,21.369-14.124,28.638-7.906,7.297-18.465,11.761-30.04,11.761-10.772,0-20.66-3.861-28.351-10.271-7.709-6.425-13.212-15.412-15.188-25.642l-260.607,3.33c-2.599,9.432-8.237,17.614-15.791,23.419-7.475,5.745-16.827,9.164-26.965,9.164-10.583,0-20.314-3.728-27.945-9.94-7.665-6.24-13.214-14.989-15.382-24.987h-2.924c-.368,0-.782.145-1.145.403s-.633.597-.752.941c0,0-.7,2.036-.703,2.043-.089.247-.262.448-.457.584-.193.136-.439.231-.703.231h-1.013c-.318,0-.61-.131-.823-.332-.209-.197-.357-.476-.377-.806l-.188-4.911c-3.266-.267-6.729-.673-11.432-3.493-7.041-4.238-12.92-8.371-16.567-12.248-.651-.688-.997-1.597-1.009-2.523,0,0-.205-13.596-.205-13.595-.007-.42.109-.824.32-1.167s.521-.628.94-.828l6.399-2.42v-4.298c-.199-.061-.442-.158-.69-.311-.356-.219-.733-.554-1.037-1.057-.409-.675-1.136-1.788-1.663-2.594-.021-.032-.042-.064-.065-.099-.418-.651-.643-1.407-.618-2.19,0,0,.733-28.668.733-28.667.035-1.411.483-2.747,1.252-3.864.765-1.111,1.846-2.006,3.151-2.544,6.595-2.723,21.287-7.67,44.064-9.463,24.026-1.88,44.81-2.286,55.052-2.486,3.397-.066,5.607-.11,6.408-.175,1.867-.152,3.769.264,5.59.658,1.597.345,3.138.677,4.663.677l8.13.174c2.234-1.894,29.896-25.187,63.886-46.087Z" style="fill:none; stroke:#687581; stroke-miterlimit:3; stroke-width:.5px;"/><path d="m255.172,16.716c5.496-3.475,10.151-5.43,24.462-6.256,10.834-.625,56.11-1.52,68.809-1.692,12.679-.183,29.443-.269,48.613.618.376-.736,2.149-4.013,4.709-5.625.865-.545,1.833-.907,2.875-.907h4.514s.756,7.59.756,7.59c1.659.127,12.85,1.005,21.763,2.27l.215.03s0,.225,0,.238c0,.035.002.097.001.18-.006.457-.086,1.577-.775,2.648-.413.642-1.041,1.261-1.989,1.708-.67.311-1.081.503-1.368.637-.359.167-.524.244-.759.352.167,1.289.69,6.576,1.279,12.69.572,5.83,1.206,12.429,1.649,17.043.049.511.096.997.141,1.479,0,0,0,.003,0,.002.021.318.042.583.064.821.025.369-.057.732-.226,1.046-.165.308-.415.571-.736.754l-2.459,1.291c-.007.243-.004.776.127,1.308.109.445.297.845.602,1.082.186.144.426.237.752.233,0,0,154.318-.743,154.319-.743.93,0,1.824.322,2.5.974,0,0,3.124,2.984,3.123,2.984.661.626,1.055,1.484,1.101,2.388.037.701.086,1.671.146,2.832.307,6.002.875,17.09,1.254,22.286.507,6.964-2.369,19.582-2.745,21.193l4.061,2.671v5.284c0,5.282-2.358,12.498-5.519,19.101-.18.377-.431.705-.735.972-.31.273-.675.482-1.075.613-7.028,2.221-24.056,7.394-47.055,12.922-.509.118-1.167.273-1.954.458-1.251.295-2.826.666-4.634,1.084-.955,11.294-6.186,21.389-14.06,28.656-7.862,7.256-18.361,11.694-29.871,11.694-10.711,0-20.543-3.839-28.191-10.213-7.717-6.432-13.212-15.446-15.142-25.703l-261.005,3.335c-2.561,9.455-8.192,17.658-15.751,23.469-7.433,5.713-16.731,9.112-26.813,9.112-10.524,0-20.199-3.707-27.787-9.884-7.673-6.246-13.212-15.02-15.337-25.043h-3.126c-.43,0-.893.167-1.29.449s-.703.66-.844,1.063c0,0-.7,2.036-.701,2.04-.069.191-.206.352-.365.464-.158.111-.355.186-.559.186h-1.013c-.249,0-.481-.103-.652-.264-.167-.158-.283-.378-.298-.634l-.196-5.132c-3.317-.267-6.785-.622-11.544-3.476-7.038-4.236-12.892-8.355-16.514-12.206-.606-.64-.929-1.488-.941-2.355,0,0-.205-13.596-.205-13.596-.006-.372.096-.728.283-1.032s.461-.556.816-.725l6.561-2.481v-4.661c-.196-.046-.496-.141-.809-.334-.326-.201-.673-.508-.954-.973-.411-.679-1.141-1.796-1.668-2.602-.021-.032-.042-.064-.063-.097-.392-.611-.601-1.318-.578-2.048,0,0,.733-28.668.733-28.668.034-1.362.466-2.651,1.208-3.728.738-1.072,1.781-1.936,3.041-2.454,6.573-2.713,21.239-7.654,43.988-9.445,24.018-1.879,44.796-2.285,55.038-2.485,3.39-.066,5.612-.11,6.424-.176,1.824-.148,3.688.257,5.517.653,1.592.344,3.159.682,4.711.682l8.225.176c1.603-1.362,29.521-24.97,63.93-46.128Z" style="fill:none; stroke:#687581; stroke-miterlimit:3; stroke-width:.5px;"/></g><path d="m191.332,63.096s28.542-24.382,63.974-46.168c5.45-3.446,10.061-5.393,24.343-6.218,10.827-.625,56.097-1.519,68.799-1.691,12.712-.183,29.53-.269,48.76.625,0,0,3.135-6.539,7.434-6.539h4.288s.754,7.574.754,7.574c0,0,12.314.916,21.956,2.284,0,.162.172,3.017-2.618,4.331-1.691.786-1.734.808-2.295,1.067.129.84.679,6.378,1.304,12.863.636,6.475,1.347,13.898,1.788,18.498v.011c.021.323.043.593.065.83.043.636-.28,1.25-.83,1.562l-2.586,1.357s-.237,3.049,1.724,3.027l154.318-.743c.873,0,1.702.302,2.327.905l3.124,2.984c.614.582.981,1.379,1.024,2.219.226,4.32.948,18.918,1.4,25.123.539,7.401-2.779,21.288-2.779,21.288l4.094,2.693v5.15c0,5.225-2.338,12.4-5.494,18.993-.334.7-.937,1.217-1.659,1.454-7.024,2.219-24.046,7.391-47.037,12.917-1.347.312-3.738.883-6.766,1.584-1.81,22.527-20.728,40.303-43.697,40.303-21.471,0-39.387-15.514-43.126-35.918l-261.405,3.34c-4.988,18.735-22.085,32.579-42.372,32.579-21.116,0-38.795-15.007-42.921-34.927h-3.329c-.981,0-2.047.754-2.37,1.681l-.7,2.036c-.097.269-.399.485-.689.485h-1.013c-.355,0-.679-.291-.7-.657l-.205-5.354c-3.372-.269-6.841-.571-11.657-3.458-7.035-4.234-12.863-8.339-16.462-12.163-.56-.593-.862-1.379-.873-2.187l-.205-13.596c-.011-.646.356-1.239.937-1.519l6.723-2.542v-5.042s-1.11-.086-1.799-1.228c-.431-.711-1.206-1.896-1.734-2.704-.366-.571-.56-1.228-.539-1.907l.733-28.668c.065-2.618,1.659-4.956,4.094-5.958,6.55-2.704,21.191-7.638,43.912-9.427,31.943-2.499,58.155-2.392,61.462-2.661,3.318-.269,6.798,1.336,10.202,1.336l8.32.178Z" style="fill:none; stroke:#687581; stroke-miterlimit:3; stroke-width:.5px;"/><line x1="91.895" y1="84.774" x2="104.828" y2="97.957" style="fill:none; stroke:#687581; stroke-miterlimit:10; stroke-width:.5px;"/><line x1="86.145" y1="111.872" x2="94.847" y2="111.872" style="fill:none; stroke:#687581; stroke-miterlimit:10; stroke-width:.5px;"/><path d="m198.331,154.783l-2.24-19.025s-1.413-12.002-2.022-18.478c-.609-6.476-1.162-24.188-.443-32.878.72-8.69,1.937-16.217,1.937-16.217l2.712-5.258" style="fill:none; stroke:#687581; stroke-miterlimit:10; stroke-width:.5px;"/><polyline points="191.332 63.096 198.276 62.927 208.689 62.674" style="fill:none; stroke:#687581; stroke-miterlimit:10; stroke-width:.5px;"/><ellipse cx="212.04" cy="62.453" rx=".686" ry="1.104" style="fill:none; stroke:#687581; stroke-miterlimit:10; stroke-width:.5px;"/><line x1="589.699" y1="75.569" x2="563.951" y2="75.569" style="fill:none; stroke:#687581; stroke-miterlimit:10; stroke-width:.5px;"/></g><g id="uuid-2f906884-33ed-4944-8897-959de492637a"><path d="m236.445,57.794c.024-.558.027-2.018.01-2.578h-7.69c-.624,0-1.222.248-1.663.689l-1.035,1.035c-.143.143-.186.358-.108.545s.26.309.462.309h9.965s.059,0,.059,0Z" style="fill:#404d59; stroke:#aebbc7; stroke-linecap:round; stroke-linejoin:round;"/><path d="m590.019,67.842s-19.701.242-23.377.363-3.434,1.737-3.312,3.959.903,7.153,5.332,7.514c4.801.39,22.015,0,22.015,0l-.658-11.836Z" style="fill:#404d59; stroke:#aebbc7; stroke-linecap:round; stroke-linejoin:round;"/><line x1="590.459" y1="75.569" x2="563.951" y2="75.569" style="fill:none; stroke:#aebbc7; stroke-linecap:round; stroke-linejoin:round; stroke-width:.5px;"/><path d="m62.507,79.868c14.241-.29,16.048-.522,26.216-.791,5.318-.267,7.138.692,5.273,3.036-2.077,2.611-4.098,6.075-9.215,6.392-3.921.243-12.29.779-22.502,1.074l.227-9.71Z" style="fill:#404d59; stroke:#aebbc7; stroke-linecap:round; stroke-linejoin:round;"/><path d="m66.682,114.131h5.151c1.065,0,2.129.441,2.957,1.417l1.4,1.65c.313.369.551,1.068.529,1.552l-.002.052-10.035.375v-5.046Z" style="fill:#404d59; stroke:#aebbc7; stroke-linecap:round; stroke-linejoin:round;"/><path d="m104.828,97.957l3.256,4.556s-6.535,3.614-10.382,15.463l-5.775.079c3.939-11.462,9.568-18.331,12.901-20.099Z" style="fill:#404d59; stroke:#aebbc7; stroke-linecap:round; stroke-linejoin:round;"/><ellipse cx="228.594" cy="63.734" rx="1.667" ry=".747" style="fill:#404d59; stroke:#aebbc7; stroke-linecap:round; stroke-linejoin:round;"/><line x1="228.65" y1="56.401" x2="228.431" y2="56.609" style="fill:#404d59; stroke-width:0px;"/><path d="m228.376,56.963c.105.017.216-.014.3-.092l.218-.209c.144-.135.152-.361.017-.505s-.361-.153-.506-.017l-.218.209c-.144.135-.152.361-.017.505.057.061.13.097.206.109Z" style="fill:#aebbc7; stroke-width:0px;"/></g><g id="uuid-0ee4e5b4-ef8d-4c7f-925d-9f71763bd6c8"><path d="m63.586,115.958h-26.189c-.213-2.26-1.334-4.256-2.996-5.617-1.422-1.179-3.248-1.888-5.239-1.888s-3.817.709-5.239,1.888c-1.662,1.361-2.783,3.357-2.996,5.617h-1.925c-.239-2.532-1.616-4.732-3.617-6.08-1.316-.898-2.905-1.425-4.618-1.425s-3.303.527-4.618,1.425c-2.206,1.486-3.657,4.007-3.657,6.867s1.451,5.38,3.657,6.867c1.316.898,2.905,1.425,4.618,1.425s3.303-.527,4.618-1.425c2.15-1.449,3.575-3.883,3.646-6.653h1.868c.064,2.494,1.224,4.715,3.025,6.19,1.422,1.179,3.248,1.888,5.239,1.888s3.817-.709,5.239-1.888c1.801-1.475,2.961-3.696,3.025-6.19h26.16c.276,0,.5-.224.5-.5s-.224-.5-.5-.5Z" style="fill:none; stroke:#141b21; stroke-linecap:round; stroke-linejoin:round; stroke-width:3px;"/><line x1="10.795" y1="116.458" x2="63.586" y2="116.458" style="fill:none; stroke:#aebbc7; stroke-linecap:round; stroke-linejoin:round;"/><circle cx="10.766" cy="116.745" r="8.275" style="fill:#aebbc7; stroke-width:0px;"/><path d="m10.766,108.453c-4.53,0-8.202,3.672-8.202,8.202v.179c0,4.53,3.672,8.202,8.202,8.202s8.202-3.672,8.202-8.202v-.179c0-4.53-3.672-8.202-8.202-8.202Z" style="fill:#aebbc7; stroke-width:0px;"/><path d="m11.186,119.14h-4.342v-1.339l4.251-5.915h1.82v5.668h1.273v1.586h-1.273v2.08h-1.729v-2.08Zm0-1.586v-3.159l-2.275,3.159h2.275Z" style="fill:#141b21; stroke-width:0px;"/><circle cx="29.162" cy="116.745" r="8.275" style="fill:#aebbc7; stroke-width:0px;"/><path d="m29.162,108.453c-4.537,0-8.215,3.678-8.215,8.215v.153c0,4.537,3.678,8.215,8.215,8.215s8.215-3.678,8.215-8.215v-.153c0-4.537-3.678-8.215-8.215-8.215Z" style="fill:#aebbc7; stroke-width:0px;"/><path d="m26.39,120.629c-.628-.49-.942-1.173-.942-2.048,0-.546.115-1.005.345-1.378s.569-.667,1.021-.884c-.364-.199-.633-.453-.806-.761-.174-.308-.261-.695-.261-1.164,0-.554.139-1.033.416-1.437.277-.402.657-.706,1.138-.909.481-.204,1.017-.306,1.605-.306.606,0,1.148.106,1.625.318.477.213.85.514,1.118.903s.403.85.403,1.378c0,.451-.094.837-.28,1.157-.186.32-.452.59-.799.806.459.208.806.501,1.04.878.233.377.351.843.351,1.397,0,.875-.316,1.558-.949,2.048-.633.489-1.469.734-2.509.734-1.049,0-1.887-.245-2.516-.734Zm3.712-1.151c.303-.164.455-.446.455-.845v-.233c0-.442-.135-.759-.403-.949s-.685-.286-1.248-.286-.979.096-1.248.286-.402.507-.402.949v.233c0,.398.149.681.448.845.299.165.699.247,1.202.247.494,0,.893-.082,1.196-.247Zm-.117-4.237c.19-.183.286-.425.286-.729v-.169c0-.329-.113-.576-.338-.741-.226-.164-.568-.247-1.027-.247-.398,0-.728.085-.988.254-.26.169-.39.414-.39.734v.169c0,.304.098.546.293.729.194.182.557.272,1.085.272s.889-.091,1.079-.272Z" style="fill:#141b21; stroke-width:0px;"/><path d="m65.323,83.189h-27.94c-.241-2.55-1.638-4.762-3.662-6.107-1.305-.882-2.879-1.398-4.573-1.398s-3.268.515-4.573,1.398c-2.024,1.346-3.421,3.557-3.662,6.107h-1.71c-.35-3.706-3.144-6.695-6.754-7.348-.478-.101-.973-.156-1.481-.156s-1.003.055-1.481.156c-3.862.699-6.794,4.072-6.794,8.135s2.932,7.436,6.794,8.135c.478.101.973.156,1.481.156s1.003-.055,1.481-.156c3.794-.687,6.682-3.955,6.783-7.922h1.652c.071,2.79,1.517,5.236,3.691,6.681,1.305.882,2.879,1.398,4.573,1.398s3.268-.515,4.573-1.398c2.175-1.445,3.62-3.892,3.691-6.681h27.911c.276,0,.5-.224.5-.5s-.224-.5-.5-.5Z" style="fill:none; stroke:#141b21; stroke-linecap:round; stroke-linejoin:round; stroke-width:3px;"/><line x1="10.795" y1="83.689" x2="65.323" y2="83.689" style="fill:none; stroke:#aebbc7; stroke-linecap:round; stroke-linejoin:round;"/><circle cx="10.968" cy="83.976" r="8.275" style="fill:#aebbc7; stroke-width:0px;"/><path d="m10.968,75.684c-3.934,0-7.123,3.189-7.123,7.123v2.338c0,3.934,3.189,7.123,7.123,7.123s7.123-3.189,7.123-7.123v-2.338c0-3.934-3.189-7.123-7.123-7.123Z" style="fill:#aebbc7; stroke-width:0px;"/><path d="m10.01,81.788c-.199.135-.455.284-.767.449l-.819-1.326c.477-.26.905-.535,1.287-.826.381-.29.732-.613,1.053-.968h1.808v9.334h-1.847v-7.215c-.277.234-.516.418-.715.552Z" style="fill:#141b21; stroke-width:0px;"/><circle cx="29.148" cy="83.976" r="8.275" style="fill:#aebbc7; stroke-width:0px;"/><path d="m29.148,75.684c-4.516,0-8.176,3.661-8.176,8.176v.231c0,4.516,3.661,8.176,8.176,8.176s8.176-3.661,8.176-8.176v-.231c0-4.516-3.661-8.176-8.176-8.176Z" style="fill:#aebbc7; stroke-width:0px;"/><path d="m27.117,88.184c-.507-.264-.899-.641-1.177-1.131s-.416-1.06-.416-1.709c0-.442.072-.879.215-1.313.144-.433.384-.945.722-1.534.528-.91,1.36-2.037,2.496-3.38h2.262l-.715.871c-.364.442-.711.862-1.04,1.261-.329.399-.598.75-.806,1.053.173-.035.372-.052.598-.052.598,0,1.131.135,1.599.403.469.269.83.641,1.086,1.118.256.477.384,1.014.384,1.612,0,.65-.147,1.218-.442,1.703-.295.486-.704.856-1.229,1.112s-1.12.383-1.787.383c-.659,0-1.242-.132-1.749-.396Zm2.964-1.631c.299-.251.449-.611.449-1.079v-.182c0-.477-.146-.838-.436-1.085-.291-.247-.679-.371-1.164-.371s-.886.122-1.202.364-.475.607-.475,1.092v.182c0,.477.145.838.436,1.085.29.247.687.371,1.189.371s.903-.125,1.202-.377Z" style="fill:#141b21; stroke-width:0px;"/><path d="m652.736,74.264c0-3.449-2.111-6.403-5.111-7.646-.972-.415-2.041-.646-3.164-.646s-2.192.231-3.164.646c-2.769,1.147-4.778,3.752-5.071,6.859h-36.707v-5.69c0-.276-.224-.5-.5-.5h-5.709c-.276,0-.5.224-.5.5s.224.5.5.5h5.209v11.681h-5.209c-.276,0-.5.224-.5.5s.224.5.5.5h5.709c.276,0,.5-.224.5-.5v-5.99h36.678c.086,3.357,2.163,6.216,5.1,7.433.972.415,2.041.646,3.164.646s2.192-.231,3.164-.646c3-1.243,5.111-4.197,5.111-7.646Z" style="fill:none; stroke:#141b21; stroke-linecap:round; stroke-linejoin:round; stroke-width:3px;"/><line x1="644.118" y1="73.977" x2="599.019" y2="73.977" style="fill:none; stroke:#aebbc7; stroke-linecap:round; stroke-linejoin:round;"/><circle cx="644.461" cy="74.264" r="8.275" style="fill:#aebbc7; stroke-width:0px;"/><path d="m644.461,65.972c-4.451,0-8.06,3.608-8.06,8.06v.464c0,4.451,3.608,8.06,8.06,8.06s8.06-3.608,8.06-8.06v-.464c0-4.451-3.608-8.06-8.06-8.06Z" style="fill:#aebbc7; stroke-width:0px;"/><path d="m642.145,78.408c-.542-.316-1.008-.787-1.397-1.411l1.443-1.04c.242.442.509.759.799.949.29.191.652.286,1.086.286.468,0,.871-.093,1.209-.28.338-.186.507-.474.507-.864v-.156c0-.442-.149-.756-.448-.942-.299-.186-.805-.279-1.515-.279h-.65v-1.56h.624c.528,0,.96-.078,1.294-.234.333-.156.5-.451.5-.884v-.143c0-.312-.145-.543-.436-.695-.29-.151-.626-.228-1.007-.228-.364,0-.691.093-.981.279-.291.187-.531.462-.722.826l-1.365-.819c.312-.667.729-1.159,1.248-1.476s1.152-.475,1.898-.475c.909,0,1.652.217,2.229.65.576.434.864,1.079.864,1.937,0,.451-.091.839-.273,1.164-.182.325-.438.592-.767.8.416.216.729.494.942.832.212.338.318.754.318,1.248,0,.642-.158,1.188-.475,1.638s-.738.789-1.268,1.014c-.528.225-1.109.338-1.742.338-.736,0-1.376-.158-1.917-.475Z" style="fill:#141b21; stroke-width:0px;"/><polyline points="593.311 80.467 599.019 80.467 599.019 67.786 593.311 67.786" style="fill:none; stroke:#aebbc7; stroke-linecap:round; stroke-linejoin:round;"/><path d="m228.661,40.306H61.487c-.438-4.167-3.962-7.414-8.245-7.414h-5.697c-4.283,0-7.806,3.248-8.245,7.414h-1.911c-.323-3.06-2.313-5.622-5.045-6.762-.977-.419-2.052-.653-3.182-.653s-2.205.234-3.182.653c-2.733,1.14-4.723,3.701-5.045,6.762h-2.029c-.276-3.122-2.282-5.745-5.056-6.902-.977-.419-2.052-.653-3.182-.653s-2.205.234-3.182.653c-2.99,1.247-5.093,4.197-5.093,7.639s2.103,6.392,5.093,7.639c.977.419,2.052.653,3.182.653s2.205-.234,3.182-.653c2.913-1.215,4.975-4.048,5.08-7.376h1.964c.05,3.389,2.132,6.284,5.087,7.516.977.419,2.052.653,3.182.653s2.205-.234,3.182-.653c2.954-1.232,5.037-4.127,5.087-7.516h1.829c.066,4.522,3.748,8.169,8.286,8.169h5.697c4.538,0,8.219-3.647,8.286-8.169h166.633v11.205c0,.276.224.5.5.5s.5-.224.5-.5v-11.705c0-.276-.224-.5-.5-.5Z" style="fill:none; stroke:#141b21; stroke-linecap:round; stroke-linejoin:round; stroke-width:3px;"/><polyline points="11.723 40.806 228.661 40.806 228.661 52.511" style="fill:none; stroke:#aebbc7; stroke-linecap:round; stroke-linejoin:round;"/><circle cx="29.162" cy="41.183" r="8.275" style="fill:#aebbc7; stroke-width:0px;"/><path d="m29.162,32.891c-4.462,0-8.079,3.617-8.079,8.079v.425c0,4.462,3.617,8.079,8.079,8.079s8.079-3.617,8.079-8.079v-.425c0-4.462-3.617-8.079-8.079-8.079Z" style="fill:#aebbc7; stroke-width:0px;"/><path d="m28.177,43.799c.377-.511.709-.997.995-1.456-.078.018-.158.028-.24.032-.083.005-.167.007-.254.007-.59,0-1.12-.134-1.593-.403-.473-.269-.841-.639-1.104-1.111-.265-.472-.396-.999-.396-1.58,0-.641.153-1.196.461-1.664.308-.468.72-.825,1.235-1.072s1.081-.371,1.696-.371c.633,0,1.191.132,1.677.396.485.265.862.639,1.131,1.125s.403,1.049.403,1.69c0,.459-.087.934-.26,1.424-.174.49-.481,1.12-.923,1.891-.355.581-.679,1.082-.969,1.501-.29.421-.652.904-1.086,1.45h-2.235c.598-.728,1.085-1.348,1.462-1.859Zm1.886-3.393c.264-.243.396-.581.396-1.014v-.169c0-.451-.135-.793-.403-1.027s-.642-.351-1.118-.351-.85.117-1.118.351-.402.576-.402,1.027v.169c0,.416.119.75.357,1.001.238.251.617.377,1.138.377.502,0,.886-.121,1.15-.364Z" style="fill:#141b21; stroke-width:0px;"/><circle cx="50.394" cy="41.183" r="8.275" style="fill:#aebbc7; stroke-width:0px;"/><path d="m53.242,32.891h-5.697c-4.58,0-8.292,3.712-8.292,8.292s3.712,8.292,8.292,8.292h5.697c4.58,0,8.292-3.712,8.292-8.292s-3.712-8.292-8.292-8.292Z" style="fill:#aebbc7; stroke-width:0px;"/><path d="m45.418,38.995c-.199.135-.455.284-.767.449l-.819-1.326c.477-.26.905-.535,1.287-.826.381-.29.732-.613,1.053-.968h1.808v9.334h-1.847v-7.215c-.277.234-.516.418-.715.552Z" style="fill:#141b21; stroke-width:0px;"/><path d="m50.826,45.229c-.538-.381-.935-.91-1.189-1.586-.256-.676-.384-1.456-.384-2.34v-.624c0-.884.128-1.664.384-2.34.255-.676.651-1.205,1.189-1.586.537-.381,1.217-.572,2.041-.572.814,0,1.492.188,2.034.565s.94.904,1.196,1.58c.255.676.383,1.46.383,2.353v.624c0,.884-.128,1.662-.383,2.333-.256.672-.654,1.201-1.196,1.586-.542.386-1.22.579-2.034.579-.824,0-1.504-.19-2.041-.572Zm3.386-1.839c.238-.507.358-1.185.358-2.035v-.728c0-.867-.117-1.549-.352-2.048-.234-.498-.685-.748-1.352-.748-.677,0-1.129.25-1.358.748-.23.499-.345,1.181-.345,2.048v.728c0,.85.119,1.528.357,2.035s.687.761,1.346.761,1.106-.254,1.345-.761Z" style="fill:#141b21; stroke-width:0px;"/><circle cx="10.668" cy="41.043" r="8.275" style="fill:#aebbc7; stroke-width:0px;"/><path d="m10.668,32.751c-4.462,0-8.079,3.617-8.079,8.079v.425c0,4.462,3.617,8.079,8.079,8.079s8.079-3.617,8.079-8.079v-.425c0-4.462-3.617-8.079-8.079-8.079Z" style="fill:#aebbc7; stroke-width:0px;"/><path d="m7.181,44.049l3.237-3.029c.303-.277.559-.544.767-.799.208-.256.368-.496.48-.722.113-.225.17-.438.17-.637v-.117c0-.312-.12-.567-.358-.767-.238-.199-.539-.299-.903-.299-.52,0-.918.113-1.195.338-.278.226-.46.611-.547,1.157l-1.638-.52c.139-.832.507-1.476,1.105-1.931.598-.455,1.356-.683,2.274-.683.581,0,1.105.104,1.573.312s.839.512,1.111.91c.273.398.41.871.41,1.417,0,.451-.09.882-.267,1.293-.178.412-.405.789-.683,1.131-.277.343-.594.674-.949.995l-2.002,1.794h3.965v1.625h-6.552v-1.469Z" style="fill:#141b21; stroke-width:0px;"/><path d="m228.478,66.591c-.276,0-.5.224-.5.5v115.108H19.569c-.344-3.646-3.051-6.604-6.576-7.322-.535-.117-1.089-.184-1.66-.184s-1.125.066-1.66.184c-3.775.769-6.615,4.107-6.615,8.108s2.841,7.34,6.615,8.108c.535.117,1.089.184,1.66.184s1.125-.066,1.66-.184c3.707-.755,6.505-3.989,6.604-7.895h208.88c.276,0,.5-.224.5-.5v-115.608c0-.276-.224-.5-.5-.5Z" style="fill:none; stroke:#141b21; stroke-linecap:round; stroke-linejoin:round; stroke-width:3px;"/><polyline points="11.023 182.7 228.477 182.7 228.477 67.091" style="fill:none; stroke:#aebbc7; stroke-linecap:round; stroke-linejoin:round;"/><circle cx="11.334" cy="182.986" r="8.275" style="fill:#aebbc7; stroke-width:0px;"/><path d="m11.334,174.694c-4.261,0-7.715,3.454-7.715,7.715v1.154c0,4.261,3.454,7.715,7.715,7.715s7.715-3.454,7.715-7.715v-1.154c0-4.261-3.454-7.715-7.715-7.715Z" style="fill:#aebbc7; stroke-width:0px;"/><path d="m12.228,179.74h-4.329v-1.612h6.37v1.274l-3.744,8.06h-1.949l3.652-7.722Z" style="fill:#141b21; stroke-width:0px;"/><path d="m652.596,100.053c0-3.441-2.102-6.391-5.091-7.638-.977-.42-2.053-.654-3.184-.654s-2.207.234-3.184.654c-2.758,1.151-4.758,3.752-5.051,6.851h-1.977c-.293-3.099-2.293-5.7-5.051-6.851-.977-.42-2.053-.654-3.184-.654s-2.207.234-3.184.654c-2.758,1.151-4.758,3.752-5.051,6.851h-31.706v-20.506c0-.276-.224-.5-.5-.5s-.5.224-.5.5v21.006c0,.276.224.5.5.5h32.177c.085,3.349,2.153,6.204,5.08,7.426.977.42,2.053.654,3.184.654s2.207-.234,3.184-.654c2.927-1.222,4.995-4.076,5.08-7.426h1.919c.085,3.349,2.153,6.204,5.08,7.426.977.42,2.053.654,3.184.654s2.207-.234,3.184-.654c2.989-1.248,5.091-4.197,5.091-7.638Z" style="fill:none; stroke:#141b21; stroke-linecap:round; stroke-linejoin:round; stroke-width:3px;"/><polyline points="641.347 99.766 585.433 99.766 585.433 78.76" style="fill:none; stroke:#aebbc7; stroke-linecap:round; stroke-linejoin:round;"/><circle cx="625.874" cy="100.053" r="8.275" style="fill:#aebbc7; stroke-width:0px;"/><path d="m625.874,91.761c-4.462,0-8.079,3.617-8.079,8.079v.426c0,4.462,3.617,8.079,8.079,8.079s8.079-3.617,8.079-8.079v-.426c0-4.462-3.617-8.079-8.079-8.079Z" style="fill:#aebbc7; stroke-width:0px;"/><path d="m622.387,103.059l3.237-3.029c.303-.277.559-.544.767-.799.208-.256.368-.496.481-.722.112-.225.169-.438.169-.637v-.117c0-.312-.12-.567-.358-.767-.238-.199-.539-.299-.902-.299-.521,0-.919.113-1.196.338-.278.226-.46.611-.546,1.157l-1.639-.52c.139-.832.508-1.476,1.105-1.931s1.356-.683,2.275-.683c.58,0,1.104.104,1.572.312.469.208.839.512,1.111.91.273.398.41.871.41,1.417,0,.451-.09.882-.267,1.293-.178.412-.405.789-.683,1.131-.277.343-.594.674-.949.995l-2.002,1.794h3.965v1.625h-6.552v-1.469Z" style="fill:#141b21; stroke-width:0px;"/><circle cx="644.321" cy="100.053" r="8.275" style="fill:#aebbc7; stroke-width:0px;"/><path d="m644.321,91.761c-4.462,0-8.079,3.617-8.079,8.079v.426c0,4.462,3.617,8.079,8.079,8.079s8.079-3.617,8.079-8.079v-.426c0-4.462-3.617-8.079-8.079-8.079Z" style="fill:#aebbc7; stroke-width:0px;"/><path d="m643.336,102.669c.377-.511.709-.997.995-1.456-.078.018-.158.028-.24.032-.083.005-.167.007-.254.007-.59,0-1.12-.134-1.593-.403-.473-.269-.841-.639-1.104-1.111-.265-.472-.396-.999-.396-1.58,0-.641.153-1.196.461-1.664.308-.468.72-.825,1.235-1.072s1.081-.371,1.696-.371c.633,0,1.191.132,1.677.396.485.265.862.639,1.131,1.125s.403,1.049.403,1.69c0,.459-.087.934-.26,1.424-.174.49-.481,1.12-.923,1.891-.355.581-.679,1.082-.969,1.501-.29.421-.652.904-1.086,1.45h-2.235c.598-.728,1.085-1.348,1.462-1.859Zm1.886-3.393c.264-.243.396-.581.396-1.014v-.169c0-.451-.135-.793-.403-1.027s-.642-.351-1.118-.351-.85.117-1.118.351-.402.576-.402,1.027v.169c0,.416.119.75.357,1.001.238.251.617.377,1.138.377.502,0,.886-.121,1.15-.364Z" style="fill:#141b21; stroke-width:0px;"/><path d="m652.673,49.889c0-3.435-2.094-6.381-5.075-7.632-.982-.423-2.063-.659-3.2-.659s-2.218.236-3.2.659c-2.751,1.155-4.743,3.752-5.035,6.846h-2.096c-.35-3.706-3.144-6.695-6.754-7.349-.478-.101-.973-.157-1.482-.157s-1.004.055-1.482.157c-3.61.654-6.404,3.642-6.754,7.349h-32.164c-.276,0-.5.224-.5.5v20.681c0,.276.224.5.5.5s.5-.224.5-.5v-20.181h31.635c.101,3.967,2.989,7.235,6.782,7.922.478.101.973.157,1.482.157s1.004-.055,1.482-.157c3.793-.687,6.681-3.955,6.782-7.922h2.038c.085,3.343,2.146,6.194,5.064,7.419.982.423,2.063.659,3.2.659s2.218-.236,3.2-.659c2.981-1.251,5.075-4.197,5.075-7.632Z" style="fill:none; stroke:#141b21; stroke-linecap:round; stroke-linejoin:round; stroke-width:3px;"/><polyline points="643.267 49.602 585.433 49.602 585.433 70.283" style="fill:none; stroke:#aebbc7; stroke-linecap:round; stroke-linejoin:round;"/><circle cx="644.398" cy="49.889" r="8.275" style="fill:#aebbc7; stroke-width:0px;"/><path d="m644.398,41.597c-4.473,0-8.098,3.626-8.098,8.098v.387c0,4.473,3.626,8.098,8.098,8.098s8.098-3.626,8.098-8.098v-.387c0-4.473-3.626-8.098-8.098-8.098Z" style="fill:#aebbc7; stroke-width:0px;"/><path d="m640.684,52.609l1.443-1.027c.286.442.576.759.871.949.295.191.646.286,1.053.286.512,0,.908-.128,1.189-.384.282-.255.423-.63.423-1.125v-.143c0-.468-.135-.81-.403-1.027-.269-.216-.654-.325-1.157-.325-.277,0-.528.032-.754.097s-.477.18-.754.345l-1.287-.338.65-4.875h5.109v1.703h-3.602l-.208,1.573c.174-.052.349-.091.526-.117s.366-.039.565-.039c.65,0,1.211.128,1.684.384s.834.611,1.086,1.066c.251.455.377.977.377,1.566,0,.667-.154,1.252-.462,1.755-.308.503-.729.891-1.268,1.164-.537.273-1.14.41-1.807.41-1.369,0-2.462-.633-3.276-1.898Z" style="fill:#141b21; stroke-width:0px;"/><circle cx="625.832" cy="49.889" r="8.275" style="fill:#aebbc7; stroke-width:0px;"/><path d="m625.832,41.597c-3.934,0-7.124,3.189-7.124,7.124v2.337c0,3.934,3.189,7.124,7.124,7.124s7.124-3.189,7.124-7.124v-2.337c0-3.934-3.189-7.124-7.124-7.124Z" style="fill:#aebbc7; stroke-width:0px;"/><path d="m624.874,47.701c-.2.135-.455.284-.768.449l-.818-1.326c.477-.26.905-.535,1.286-.826.382-.29.732-.613,1.054-.968h1.807v9.334h-1.846v-7.215c-.277.234-.516.418-.715.552Z" style="fill:#141b21; stroke-width:0px;"/><path d="m103.643,105.265c-.276,0-.5.224-.5.5v37.138H18.862c-.292-3.093-2.284-5.691-5.035-6.846-.982-.423-2.063-.66-3.201-.66s-2.219.237-3.201.66c-2.981,1.252-5.074,4.197-5.074,7.632s2.094,6.381,5.074,7.632c.982.423,2.063.66,3.201.66s2.219-.237,3.201-.66c2.918-1.225,4.978-4.076,5.064-7.419h84.752c.276,0,.5-.224.5-.5v-37.638c0-.276-.224-.5-.5-.5Z" style="fill:none; stroke:#141b21; stroke-linecap:round; stroke-linejoin:round; stroke-width:3px;"/><polyline points="10.795 143.403 103.643 143.403 103.643 105.765" style="fill:none; stroke:#aebbc7; stroke-linecap:round; stroke-linejoin:round;"/><circle cx="10.626" cy="143.689" r="8.275" style="fill:#aebbc7; stroke-width:0px;"/><path d="m10.626,135.397c-4.473,0-8.099,3.626-8.099,8.099v.386c0,4.473,3.626,8.099,8.099,8.099s8.099-3.626,8.099-8.099v-.386c0-4.473-3.626-8.099-8.099-8.099Z" style="fill:#aebbc7; stroke-width:0px;"/><path d="m6.912,146.41l1.442-1.027c.286.442.577.759.871.949.295.191.646.286,1.054.286.511,0,.907-.128,1.189-.384.281-.255.422-.63.422-1.124v-.144c0-.468-.134-.81-.402-1.026s-.654-.325-1.157-.325c-.277,0-.529.032-.754.098-.226.064-.477.18-.754.345l-1.287-.338.649-4.875h5.109v1.702h-3.601l-.208,1.573c.173-.052.349-.091.526-.117.178-.025.366-.039.565-.039.649,0,1.211.128,1.684.384.472.256.834.611,1.085,1.066.252.455.377.977.377,1.566,0,.667-.153,1.252-.461,1.755s-.73.891-1.268,1.163c-.538.273-1.14.41-1.808.41-1.369,0-2.461-.633-3.275-1.898Z" style="fill:#141b21; stroke-width:0px;"/></g></svg>