<svg xmlns="http://www.w3.org/2000/svg" width="218" height="218" viewBox="0 0 218 218"><g id="bb934d59-46da-4f79-998d-ab0efe37b6a8" data-name="below"><path d="M54.6025,127.8261a145.045,145.045,0,0,1-15.1018-15.8016Q32.5176,103.611,26.25,94.642a108.6459,108.6459,0,0,1-9.9051-19.4827A163.4,163.4,0,0,1,9.3994,54.45c2.4585,6.8562,4.6649,13.7861,7.4282,20.5136a108.14,108.14,0,0,0,9.8862,19.3613c4.1623,5.9533,8.5977,11.73,13.25,17.3135A147.8916,147.8916,0,0,0,54.9314,127.45a.25.25,0,1,1-.3289.3766Z" style="fill:#687581"/><path d="M128.99,159.8791a38.56,38.56,0,0,1-16.68.9377" style="fill:none;stroke:#687581;stroke-linecap:round;stroke-linejoin:round"/><path d="M24.9066,34.0862q-.9859-3.6648-1.8505-7.36c-.5807-2.462-1.1011-4.9374-1.63-7.4109-.488-2.4821-.9848-4.9624-1.4126-7.4566-.4236-2.4947-.8082-4.9933-1.1708-7.4977q.8166,3.7056,1.5489,7.427l1.5237,7.4269,1.5153,7.43Q24.1912,30.3593,24.9066,34.0862Z" style="fill:#687581"/><path d="M62.19,123.1579c-3.6979-4.5915-7.1867-9.3534-10.42-14.2855a113.5152,113.5152,0,0,1-8.6474-15.4287c-2.463-5.3634-4.5491-10.8846-6.4833-16.45q-1.4359-4.18-2.7535-8.3985c-.8716-2.8138-1.6941-5.644-2.2956-8.5342,1.03,2.7665,1.8957,5.5767,2.7763,8.3836q1.3274,4.2078,2.7681,8.3775c1.943,5.55,4.0371,11.0521,6.5014,16.3857a112.9129,112.9129,0,0,0,8.6414,15.3334q4.8159,7.3839,10.3031,14.3042a.25.25,0,0,1-.39.3128Z" style="fill:#687581"/><path d="M111.3513,148.1343c4.0339,2.8994,8.5909,5.08,12.8029,7.826,4.2777,2.628,8.4742,5.3726,12.7043,8.06l6.3529,4.0132,3.1922,1.9768c.5341.3478,1.0624.6025,1.5919.8958.2664.1391.5246.2948.7975.4211l.8373.341a21.69,21.69,0,0,0,7.0444,1.6127l.9081.0788.9146-.0044,1.8289-.0181,1.8271-.17.9132-.0865.9064-.1588a51.9039,51.9039,0,0,0,14.0438-4.5216,92.1357,92.1357,0,0,0,12.8625-7.5234c4.0564-2.8779,8.0192-5.97,12.06-8.9415q3.0276-2.2334,6.1079-4.3969c2.0388-1.4615,4.1109-2.8789,6.2027-4.27-7.6175,6.5756-15.4345,12.7779-23.5666,18.7554a93.5969,93.5969,0,0,1-13.0042,7.7675,53.49,53.49,0,0,1-14.4461,4.7908l-.9467.16-.9589.0876-1.9184.1681c-.6425.0177-1.2874.0074-1.931.0116l-.9656-.0012-.9649-.0864a23.3157,23.3157,0,0,1-7.5376-1.7656l-.9017-.3743c-.2945-.138-.5752-.3065-.8633-.4586-.5663-.3151-1.1643-.616-1.68-.956l-3.1935-1.9975-6.3466-4.0494-12.6133-8.1935-6.2964-4.1a46.8435,46.8435,0,0,1-6.0805-4.5068.25.25,0,0,1,.3162-.3872Z" style="fill:#687581"/><path d="M94.4777,121.5668c2.1894,4.8386,4.4414,9.6414,7.085,14.2273a60.2267,60.2267,0,0,0,4.3914,6.5922,38.0422,38.0422,0,0,0,5.3972,5.748.25.25,0,0,1,.0353.3518.253.253,0,0,1-.3515.0354c-4.172-3.4022-7.2633-7.876-9.926-12.4648A90.5457,90.5457,0,0,1,94.4777,121.5668Z" style="fill:#687581"/><path d="M82.9426,84.3081l1.3859,4.4731c.4507,1.493.8578,2.9971,1.2888,4.4948.7938,3.0143,1.6029,6.0229,2.2255,9.0907-1.0216-2.9489-1.8567-5.9569-2.7073-8.9593-.3912-1.5107-.8062-3.0149-1.1776-4.53C83.5892,87.3611,83.206,85.85,82.9426,84.3081Z" style="fill:#687581"/><path d="M68.0366,4.5184c.5949,2.3607.9852,4.7526,1.3593,7.1469l1.1416,7.18,2.3789,14.3427q1.1923,7.17,2.4824,14.3241l1.3262,7.1468c.4485,2.3809.8991,4.7618,1.1915,7.1751-1.2839-4.6862-2.0649-9.476-3.0015-14.2326q-1.344-7.1475-2.5806-14.3147-1.2075-7.1717-2.3255-14.3574l-1.1133-7.186C68.5244,9.3478,68.1788,6.9486,68.0366,4.5184Z" style="fill:#687581"/><path d="M46.2868,135.0962c-3.7652-2.8348-7.5624-5.6322-11.305-8.5013A70.4354,70.4354,0,0,1,24.7036,116.81q-2.3612-2.6391-4.6416-5.3384c-1.538-1.7911-3.0162-3.6562-4.3819-5.5847a87.2057,87.2057,0,0,1-7.2093-12.176c2.6219,3.92,5.1719,7.8636,7.9964,11.602,2.7718,3.7626,5.9475,7.2335,9.0891,10.7238a75.6392,75.6392,0,0,0,10.1627,9.6295c3.7431,2.8375,7.4317,5.7467,11.1524,8.6185l.0213.0164a.5.5,0,0,1-.6059.7949Z" style="fill:#687581"/><path d="M145.8959,170.9419q-6.8007,5.4393-13.6684,10.7927c-4.5676,3.583-9.1948,7.0894-13.7893,10.6379l-13.892,10.506c-4.6591,3.4656-9.32,6.9284-14.0438,10.3115,4.432-3.7568,8.9261-7.4339,13.4225-11.1082l13.574-10.9138c4.5609-3.5914,9.0891-7.2249,13.677-10.7819q6.8541-5.3706,13.7976-10.627a.75.75,0,0,1,.9224,1.1828Z" style="fill:#687581"/><path d="M24.4885,56.7609l3.6626,1.1306a7.3521,7.3521,0,0,0,3.14-.2368,8.4466,8.4466,0,0,0,1.6565-.652l10.6914-5.4213a4.8793,4.8793,0,0,0,2.3457-2.9776,5.1767,5.1767,0,0,0,.0638-2.8677L42.3366,32.4618A3.2269,3.2269,0,0,0,40.24,30.1247a2.98,2.98,0,0,0-2.2241.2409l-10.1193,5.129a8.3936,8.3936,0,0,1-1.7489.7016,6.8332,6.8332,0,0,1-3.5911.1332l-4.2759-1.3976c-2.2875-.7477-3.24-.5922-1.5928,4.8962l3.341,11.7481C21.1757,55.4393,22.6155,56.1826,24.4885,56.7609Z" style="fill:none;stroke:#687581;stroke-linecap:round;stroke-linejoin:round;stroke-width:0.5px"/><path d="M18.2509,34.9221l4.2318,14.88c.892,3.0045,2.0117,3.5825,3.4683,4.0322l2.8484.8793a5.7176,5.7176,0,0,0,2.4423-.1841,6.5724,6.5724,0,0,0,1.2882-.5071l8.3147-4.2161a3.7944,3.7944,0,0,0,1.8242-2.3157,4.0253,4.0253,0,0,0,.05-2.23L38.4968,30.165" style="fill:none;stroke:#687581;stroke-linecap:round;stroke-linejoin:round;stroke-width:0.5px"/><path d="M147.579,124.6135c-8.0207,45.5275,3.2351,49.0133,12.3633,49.0133" style="fill:none;stroke:#687581;stroke-linecap:round;stroke-linejoin:round;stroke-width:0.5px"/><path d="M46.0489,45.7361C45.1275,43.3843,44.3232,41,43.58,38.5984c-.3626-1.2033-.7247-2.4068-1.0626-3.617l-.5149-1.8131a4.7046,4.7046,0,0,0-.6329-1.5813,2.309,2.309,0,0,0-2.716-.9092,5.83,5.83,0,0,0-.7819.3653l-.8383.429-1.6765.8582-6.7056,3.4325a12.8882,12.8882,0,0,1-1.7959.8057,9.4509,9.4509,0,0,1-1.953.4381,6.9329,6.9329,0,0,1-2.0407-.0522,4.3263,4.3263,0,0,1-.5179-.13l-.4477-.15-.8954-.3c-1.18-.3849-2.4176-.8325-3.5509-1.1658a2.2409,2.2409,0,0,0-.7469-.0954c-.1853.036-.2093.0488-.2868.2353a3.7457,3.7457,0,0,0,.0387,1.6218c.1965,1.1958.5817,2.3884.9083,3.604.3432,1.2091.65,2.4286.97,3.6446.65,2.4287,1.21,4.8831,1.6967,7.3573-.8879-2.36-1.7027-4.74-2.4277-7.1458-.3683-1.2012-.7486-2.3989-1.0928-3.6069-.3413-1.2053-.7518-2.4056-.9838-3.69A4.4182,4.4182,0,0,1,15.5,35.0248a1.2672,1.2672,0,0,1,.3964-.603,1.2927,1.2927,0,0,1,.6754-.2847,3.0881,3.0881,0,0,1,1.1161.1021c1.2826.3573,2.4143.7556,3.6287,1.1314l.8961.2858.448.1429a3.1913,3.1913,0,0,0,.3967.0937,5.8657,5.8657,0,0,0,1.7142.0149,8.34,8.34,0,0,0,1.7123-.4106,11.6849,11.6849,0,0,0,1.6274-.7621l6.7436-3.3843,1.6858-.846.8429-.423a6.7464,6.7464,0,0,1,.93-.4189,3.3864,3.3864,0,0,1,2.19-.0058,3.458,3.458,0,0,1,1.7215,1.3389,5.6915,5.6915,0,0,1,.7642,1.8961l.5,1.8172c.3388,1.21.6535,2.4267.9677,3.6435C45.0673,40.7918,45.6166,43.2476,46.0489,45.7361Z" style="fill:#687581"/></g><g id="be848adc-f91f-4f44-82a1-4473b1901442" data-name="illustration"><path d="M102.6752,88.1145c-.2875-2.2954.23-4.2527,1.6161-5.2923a3.6408,3.6408,0,0,1,1.2614-.6065" style="fill:none;stroke:#aebbc7;stroke-linecap:round;stroke-linejoin:round;stroke-width:0.5px"/><path d="M117.2937,98.9857a3.5451,3.5451,0,0,1-.9947.9823c-1.4984.9764-3.5982.749-5.725-.3966" style="fill:none;stroke:#aebbc7;stroke-linecap:round;stroke-linejoin:round;stroke-width:0.5px"/><g id="e69b6f66-a335-4564-8541-43fb1c4d7c41" data-name="Offset Group"><path d="M108.3522,104.2013a10.0853,10.0853,0,0,0,6.5252,1.3846l3.2435-.6023a6.6716,6.6716,0,0,0,2.36-.9138q.1895-.12.3687-.2511l20.7968-15.2564a12.8023,12.8023,0,0,0,1.8336-1.6378l3.3868-3.6691a15.1256,15.1256,0,0,1,2.2247-1.9746L176.5374,61.34q.291-.2113.56-.45l.4468-.3978a5.3827,5.3827,0,0,1,.8583-.6229l.5051-.2957q.3191-.1867.6185-.4043l2.9459-2.14a11.7866,11.7866,0,0,0,4.6221-7.66,14.0693,14.0693,0,0,0-11.082-15.8172,11.7909,11.7909,0,0,0-8.7828,1.7307l-3.03,2.0494a7.4744,7.4744,0,0,0-.623.4705l-.3432.2885a5.3824,5.3824,0,0,1-.9281.6285l-.4081.2177a7.26,7.26,0,0,0-.6506.3921L133.0282,58.4138a15.1129,15.1129,0,0,1-2.5528,1.3738l-4.642,1.945a12.791,12.791,0,0,0-2.1655,1.1637L102.2256,77.2289q-.1848.1236-.3619.2606a6.6709,6.6709,0,0,0-1.6654,1.9063l-1.6741,2.8428a8.6411,8.6411,0,0,0-1.0863,4.1227,17.7943,17.7943,0,0,0,2.1007,8.3552" style="fill:none;stroke:#aebbc7;stroke-linecap:round;stroke-linejoin:round;stroke-width:0.5px"/><path d="M108.4719,103.9818a9.8393,9.8393,0,0,0,6.36,1.3583l3.2435-.6023a6.423,6.423,0,0,0,2.2721-.8793q.1821-.1151.3543-.2414l20.7968-15.2564a12.55,12.55,0,0,0,1.7978-1.6058l3.3868-3.6691a15.3646,15.3646,0,0,1,2.2614-2.0072L176.39,61.1374q.2811-.2043.54-.435l.4468-.3978a5.6255,5.6255,0,0,1,.8982-.6519l.5051-.2957q.3084-.1806.5979-.3908l2.945-2.14a11.5368,11.5368,0,0,0,4.5232-7.4994,13.8193,13.8193,0,0,0-10.8814-15.5307,11.54,11.54,0,0,0-8.5966,1.692l-3.03,2.0494a7.2049,7.2049,0,0,0-.6021.4548l-.3433.2885a5.6315,5.6315,0,0,1-.9712.6577l-.4082.2177a7.0071,7.0071,0,0,0-.6281.3786L133.167,58.6217a15.3673,15.3673,0,0,1-2.595,1.3965l-4.642,1.945a12.5379,12.5379,0,0,0-2.1232,1.1409L102.3645,77.4368q-.1775.1187-.3478.25a6.4239,6.4239,0,0,0-1.603,1.8355L98.74,82.3655a8.3928,8.3928,0,0,0-1.0518,4.0038,17.5488,17.5488,0,0,0,2.0739,8.2345" style="fill:none;stroke:#aebbc7;stroke-linecap:round;stroke-linejoin:round;stroke-width:0.5px"/><path d="M108.5916,103.7623a9.5949,9.5949,0,0,0,6.1945,1.332l3.2435-.6023a6.1712,6.1712,0,0,0,2.1842-.8449q.1747-.11.34-.2316l20.7968-15.2564a12.2969,12.2969,0,0,0,1.762-1.5738l3.3868-3.669a15.6223,15.6223,0,0,1,2.2982-2.04l27.446-19.9412q.2711-.1969.521-.4194l.4468-.3978a5.8743,5.8743,0,0,1,.9382-.681l.5051-.2957q.2978-.1743.5772-.3773l2.9441-2.1391A11.2869,11.2869,0,0,0,186.6,49.2863,13.57,13.57,0,0,0,175.92,34.042a11.2891,11.2891,0,0,0-8.4106,1.6534l-3.03,2.0494a6.9987,6.9987,0,0,0-.5814.4391l-.3432.2885a5.88,5.88,0,0,1-1.0145.6869l-.4081.2176a6.7524,6.7524,0,0,0-.6057.3652L133.3059,58.83a15.6256,15.6256,0,0,1-2.6372,1.4192l-4.6421,1.9449a12.2957,12.2957,0,0,0-2.0809,1.1182L102.5035,77.6446q-.17.1139-.3337.24a6.1714,6.1714,0,0,0-1.5407,1.7647l-1.674,2.8427a8.1433,8.1433,0,0,0-1.0174,3.8851,17.301,17.301,0,0,0,2.0472,8.1137" style="fill:none;stroke:#aebbc7;stroke-linecap:round;stroke-linejoin:round;stroke-width:0.5px"/><path d="M108.7113,103.5429a9.35,9.35,0,0,0,6.0291,1.3056l3.2436-.6023a5.9212,5.9212,0,0,0,2.0963-.8105q.1674-.1056.3255-.2217l20.7969-15.2565a12.0487,12.0487,0,0,0,1.7261-1.5417l3.3868-3.6691a15.8664,15.8664,0,0,1,2.3349-2.0726l27.446-19.9412q.2612-.19.5018-.4039l.4468-.3978a6.1216,6.1216,0,0,1,.9781-.71l.5051-.2957q.2871-.1681.5566-.3638l2.9432-2.1385a11.0368,11.0368,0,0,0,4.3256-7.1776,13.32,13.32,0,0,0-10.48-14.9579,11.0388,11.0388,0,0,0-8.2245,1.6148l-3.03,2.0493a6.758,6.758,0,0,0-.5606.4234l-.3433.2885a6.1319,6.1319,0,0,1-1.0576.7162l-.4082.2176a6.5146,6.5146,0,0,0-.5833.3516L133.4447,59.0375a15.8691,15.8691,0,0,1-2.6794,1.4419l-4.6421,1.9449a12.0469,12.0469,0,0,0-2.0386,1.0955L102.6424,77.8525q-.163.1089-.32.23a5.924,5.924,0,0,0-1.4783,1.6938l-1.674,2.8428a7.8953,7.8953,0,0,0-.9829,3.7663,17.0531,17.0531,0,0,0,2.02,7.9929" style="fill:none;stroke:#aebbc7;stroke-linecap:round;stroke-linejoin:round;stroke-width:0.5px"/></g><path d="M108.831,103.3234a9.1057,9.1057,0,0,0,5.8638,1.2793L117.9383,104a5.671,5.671,0,0,0,2.0085-.7761q.16-.101.3112-.2119l20.7968-15.2565a11.7906,11.7906,0,0,0,1.69-1.51l3.3868-3.6691a16.1241,16.1241,0,0,1,2.3717-2.1053L175.95,60.5306q.2511-.1824.4825-.3884l.4468-.3978a6.3813,6.3813,0,0,1,1.018-.739l.5051-.2957q.2765-.1619.5359-.35l2.9424-2.1378c4.8978-3.5917,5.8811-10.8456,1.996-16.3905s-11.0387-7.0979-16.0871-3.7216l-3.03,2.0494a6.5119,6.5119,0,0,0-.54.4077l-.3432.2885a6.3744,6.3744,0,0,1-1.1009.7453l-.4081.2177a6.273,6.273,0,0,0-.5609.3381L133.5836,59.2454a16.1168,16.1168,0,0,1-2.7217,1.4645l-4.6421,1.945a11.7962,11.7962,0,0,0-1.9962,1.0727L102.7813,78.06q-.1559.1041-.3054.22a5.6726,5.6726,0,0,0-1.4159,1.6231L99.3859,82.746c-1.5846,2.6909-1.1681,7.1375,1.0453,11.52" style="fill:none;stroke:#aebbc7;stroke-linecap:round;stroke-linejoin:round;stroke-width:0.5px"/><path d="M99.3859,82.746a5.0379,5.0379,0,0,1,1.2735-1.4542c3.5869-2.7541,10.2092.1489,14.6972,6.5565s4.9535,13.6243,1.1394,16.0545a5.0352,5.0352,0,0,1-1.8012.7" style="fill:none;stroke:#aebbc7;stroke-linecap:round;stroke-linejoin:round;stroke-width:0.5px"/><path d="M102.7813,78.06c4.0533-2.7094,11.1666.4769,16.0053,7.385s5.4026,14.6831,1.4714,17.5671" style="fill:none;stroke:#aebbc7;stroke-linecap:round;stroke-linejoin:round;stroke-width:0.5px"/><path d="M164.3946,38.4057c5.02-3.224,12.0717-1.6017,15.9424,3.9228,3.8782,5.5352,2.9768,12.705-1.7923,16.3149" style="fill:none;stroke:#aebbc7;stroke-linecap:round;stroke-linejoin:round;stroke-width:0.5px"/><path d="M161.6886,40.2358c5.031-3.3993,12.2445-1.778,16.1988,3.8659,3.9111,5.5824,3.0107,12.6976-1.7666,16.3075" style="fill:none;stroke:#aebbc7;stroke-linecap:round;stroke-linejoin:round;stroke-width:0.5px"/><path d="M159.8071,41.5084c5.0109-3.7563,12.4847-2.1947,16.5445,3.6,3.8333,5.4713,3.0788,12.5242-1.4406,16.1771" style="fill:none;stroke:#aebbc7;stroke-linecap:round;stroke-linejoin:round;stroke-width:0.5px"/><path d="M142.3751,86.6469c3.1463-3.4084,2.5635-10.4025-1.7215-16.52s-10.6588-9.054-14.9368-7.2616" style="fill:none;stroke:#aebbc7;stroke-linecap:round;stroke-linejoin:round;stroke-width:0.5px"/><path d="M100.9981,92.9076c-1.7757-4.1764-1.6381-8.2114.6673-9.9593,3.0416-2.306,8.6776.2318,12.5213,5.7195s4.3029,11.6525,1.0963,13.7233c-1.5653,1.0109-3.715.8524-5.9334-.2158" style="fill:none;stroke:#aebbc7;stroke-linecap:round;stroke-linejoin:round;stroke-width:0.5px"/><path d="M141.9778,53.5794l14.9627-10.01a6.6575,6.6575,0,0,1,3.5033-.8287c2.3084,0,4.18.8166,4.18,1.8239a1.2709,1.2709,0,0,1-.6764.9952L148.9844,55.57a6.6575,6.6575,0,0,1-3.5033.8287c-2.3084,0-4.18-.8166-4.18-1.824A1.2711,1.2711,0,0,1,141.9778,53.5794Z" style="fill:none;stroke:#aebbc7;stroke-linecap:round;stroke-linejoin:round;stroke-width:0.5px"/><path d="M111.8039,74.1641,124.38,65.7155a3.1684,3.1684,0,0,1,1.6672-.3944c1.0986,0,1.9892.3887,1.9892.8681a.6049.6049,0,0,1-.3219.4736l-12.5762,8.4486a3.1684,3.1684,0,0,1-1.6672.3944c-1.0986,0-1.9892-.3886-1.9892-.868A.6049.6049,0,0,1,111.8039,74.1641Z" style="fill:#f4ae3d;stroke:#141b21;stroke-linecap:round;stroke-linejoin:round;stroke-width:0.5px"/><path d="M128.2476,92.4935,139.51,84.4006a2.24,2.24,0,0,0,.6721-1.0072c.2707-.7276.2327-1.4133-.0848-1.5314a.4274.4274,0,0,0-.3931.0965l-11.2625,8.0929a2.2387,2.2387,0,0,0-.6721,1.0072c-.2708.7277-.2328,1.4133.0847,1.5315A.4278.4278,0,0,0,128.2476,92.4935Z" style="fill:none;stroke:#aebbc7;stroke-linecap:round;stroke-linejoin:round;stroke-width:0.5px"/></g><g id="a4de9b74-ace6-446c-9cd2-9fd7b58f74be" data-name="above"><path d="M97.52,78.5558c4.739-3.5971,13.4206-.1379,19.3908,7.7265s6.9684,17.1559,2.2294,20.7531l72.6935-53.5916c6.1313-4.947-4.5659-33.3707-25.4384-20.2677S97.52,78.5558,97.52,78.5558Z" style="fill:#141b21;opacity:0.75"/><path d="M118.8434,106.6326c8.249-6.16,24.8892-18.468,33.1922-24.5487,9.8567-7.0685,23.5046-17.5394,33.6105-23.98-14.74,12.081-34.1871,25.6989-49.5226,37.1838l-16.6875,12.15a.5.5,0,0,1-.5926-.8055Z" style="fill:#687581"/><path d="M97.2457,78.1375c6.977-4.7657,14.2064-9.1426,21.4715-13.4566-6.8605,4.932-13.7646,9.8062-20.9238,14.2933a.5.5,0,0,1-.5477-.8367Z" style="fill:#687581"/><path d="M216.7843,92.2939l-42.9333,29.79c-8.9186,6.3591-15.6831,7.466-24.4154,3.4074s-15.3738-8.1174-17.9566-9.3473-3.7842-3.0707-4.2245-7.7252c-.3921-4.1443-6.2515-66.4493-7.5775-80.5495a3.8506,3.8506,0,0,1,1.4771-3.405" style="fill:none;stroke:#687581;stroke-linecap:round;stroke-linejoin:round;stroke-width:0.5px"/><path d="M158.1543,35.1438a97.7958,97.7958,0,0,1-12.1831-3.033l-12.0445-3.54-12.04-3.5562a3.9785,3.9785,0,0,1-2.6329-1.928,3.8281,3.8281,0,0,1-.4671-1.6084l-.1448-1.5647-.2894-3.1289a12.0789,12.0789,0,0,1,.1214-3.1851l.0012-.0073a.25.25,0,0,1,.4937.08l-.001.0055c-.375,2.0278.0655,4.1028.2316,6.188l.1591,1.559a3.3439,3.3439,0,0,0,.4074,1.38,3.3891,3.3891,0,0,0,2.2847,1.66L134.0787,28.06l12.0227,3.612C150.1138,32.869,154.0574,34.2685,158.1543,35.1438Z" style="fill:#687581"/><path d="M210.71,5.1528c-4.1569,2.9189-8.3861,5.7266-12.6181,8.53l-6.3653,4.1787c-1.071.6856-2.1008,1.4146-3.2062,2.0641l-1.6395.9918-1.7011.8835a39.8209,39.8209,0,0,1-14.694,4.0508,52.0166,52.0166,0,0,1-15.223-1.15c-2.4909-.5574-4.9386-1.29-7.365-2.0183L140.6,20.506l-14.5953-4.3552c-4.8678-1.4367-9.733-2.9047-14.5073-4.6668A53.493,53.493,0,0,1,97.93,4.5938a67.7433,67.7433,0,0,0,13.7538,6.3787c4.7683,1.7108,9.6241,3.19,14.4982,4.6084l14.601,4.32,7.3005,2.16c2.4363.7256,4.857,1.4433,7.3232,1.9893a51.4549,51.4549,0,0,0,15.0309,1.1919,39.2325,39.2325,0,0,0,14.4963-3.9379l1.681-.8647,1.6212-.9728c1.0868-.6319,2.1344-1.3667,3.2034-2.0453l6.3861-4.1473C202.0945,10.5275,206.3662,7.7845,210.71,5.1528Z" style="fill:#687581"/><path d="M121.3544,43.0364a5.6054,5.6054,0,0,0,.1112.88.9259.9259,0,0,0,.4291.5874,9.5378,9.5378,0,0,0,1.6524.7183c1.1667.4309,2.3329.8882,3.5016,1.2944,2.3508.8149,4.7272,1.5721,7.0992,2.3373l14.24,4.59c-4.8255-1.2705-9.6038-2.7045-14.3878-4.1228-2.3836-.738-4.7606-1.4929-7.128-2.2953-1.1891-.4063-2.3475-.8535-3.5225-1.28a9.76,9.76,0,0,1-1.7553-.8053,1.4655,1.4655,0,0,1-.6277-.8954,5.9351,5.9351,0,0,1-.1116-.9744.25.25,0,0,1,.2315-.2672A.2541.2541,0,0,1,121.3544,43.0364Z" style="fill:#687581"/><path d="M95.7276,98.8869c-5.9474-9.2448-6.45-19.5079-.847-23.7613,6.0709-4.6084,17.01-.4166,24.4344,9.3626s8.5207,21.4426,2.45,26.051c-4.2684,3.24-10.9435,2.13-17.1114-2.2137" style="fill:none;stroke:#687581;stroke-linecap:round;stroke-linejoin:round;stroke-width:0.5px"/><path d="M97.54,96.9417c-3.1507-5.3646-5.8611-13.8067-.4648-18.6595,8.527-5.9523,20.2938,5.5117,23.4868,13.1165,5.61,11.5575-.6519,22.5518-13.5581,15.19a.5.5,0,0,1,.51-.86c12.0475,6.9028,17.29-3.3274,12.1393-13.912C116.8062,84.8413,105.4992,73.6387,97.7,79.0624c-4.9057,4.5405-2.2038,12.3647.6957,17.3634a.5.5,0,0,1-.8565.5159Z" style="fill:#687581"/><polyline points="86.677 160.676 82.843 156.224 72.331 152.894" style="fill:none;stroke:#aebbc7;stroke-linecap:round;stroke-linejoin:round;stroke-width:1.5px"/><path d="M107.6551,171.6219c-.0569.9525-.1266,1.7806-.2115,2.3512-1.1527,7.7425-.67,12.4883-6.1424,12.5794a6.3194,6.3194,0,0,1-4.9919-2.2642" style="fill:none;stroke:#aebbc7;stroke-linecap:round;stroke-linejoin:round;stroke-width:1.5px"/><path d="M77.9594,136.3863c4.3612,1.3526,8.9281,2.7853,10.871,3.4485,4.0361,1.3777,5.4322,2.7464,6.78,4.7333l1.3851,2.0419" style="fill:none;stroke:#aebbc7;stroke-linecap:round;stroke-linejoin:round;stroke-width:1.5px"/><path d="M82.8946,155.7431a4.5716,4.5716,0,0,0,5.1518-1.2394" style="fill:none;stroke:#aebbc7;stroke-linecap:round;stroke-linejoin:round;stroke-width:0.5px"/><path d="M41.0257,215.0936a47.4584,47.4584,0,0,1,11.2506-6.9764c4.0789-1.7893,8.3643-2.962,12.4593-4.3662a59.3365,59.3365,0,0,0,11.7169-5.53,113.9293,113.9293,0,0,0,10.6553-7.5441,101.3414,101.3414,0,0,0,9.67-8.7749c3.04-3.1275,5.921-6.4159,8.7683-9.747l4.2722-5.0052c.34-.4053.7548-.862,1.0222-1.2176a5.3536,5.3536,0,0,0,.6787-1.2613,5.481,5.481,0,0,0,.2614-2.85,7.5583,7.5583,0,0,0-1.1743-2.768,10.0848,10.0848,0,0,0-1.7464-2.53,7.2707,7.2707,0,0,0-2.5-1.618l-3.0393-1.26-.0087-.0036a.72.72,0,0,1-.2586-.1842c-.7143-.8045-1.3535-1.611-1.98-2.454q-.4669-.63-.9094-1.2784l-.4363-.6529a2.9894,2.9894,0,0,0-.384-.4656c-1.146-1.1467-3.31-.9694-4.7814.0177a5.9227,5.9227,0,0,0-2.6017,4.5888,11.6293,11.6293,0,0,0,1.1962,5.5875l.003.0067a.75.75,0,0,1-.3792.9906l-.0427.0175L81.8607,163.889a.7554.7554,0,0,1-.6334-.05L70.29,157.63a.7518.7518,0,0,1-.3658-.7962l3.4309-17.5554a.7586.7586,0,0,1,.1987-.3793l27.833-28.9491,3.4847-3.6012a19.3527,19.3527,0,0,0,2.9681-3.8106,17.86,17.86,0,0,0,2.6073-9.1448,9.9841,9.9841,0,0,0-.9746-4.5114,4.04,4.04,0,0,0-1.374-1.5537,2.4061,2.4061,0,0,0-.8952-.3065,4.7165,4.7165,0,0,0-1.0658-.0079,2.3027,2.3027,0,0,0-1.67.8731,6.9061,6.9061,0,0,0-1.0308,1.9879c-.5477,1.5087-.9685,3.15-1.4717,4.754l-.0063.0209a.7265.7265,0,0,1-.1772.3l-.0092.0091-6.5384,6.6155a.7711.7711,0,0,1-.1218.1l-.0113.0072-11.852,7.738c-2.002,1.25-3.8672,2.7-5.8083,4.0382L71.6694,117.55l-11.5423,8.1831a18.511,18.511,0,0,1-3.1375,2c-1.1582.5462-2.2915.87-3.2614,1.3528a12.87,12.87,0,0,0-2.7427,1.8347,15.97,15.97,0,0,0-2.3419,2.3882c-.6873.88-1.308,1.8723-2.0149,2.8635a26.9139,26.9139,0,0,1-2.3238,2.83c-1.7182,1.7607-3.46,3.2814-5.1731,4.9128q-5.1241,4.8668-10.0627,9.93c-6.6364,6.71-12.7378,13.8838-19.5509,20.4867,5.2953-7.9023,11.8992-14.7323,18.4-21.601q4.9226-5.1165,10.0314-10.0547c1.6953-1.638,3.4981-3.2479,5.0653-4.8822a25.1174,25.1174,0,0,0,2.1483-2.6586c.6586-.9356,1.283-1.9555,2.0411-2.945a17.8236,17.8236,0,0,1,2.5867-2.6829,14.1082,14.1082,0,0,1,3.1286-2.0938c1.1515-.5623,2.3053-.89,3.2822-1.3581a16.6255,16.6255,0,0,0,2.822-1.806l11.5882-8.1955,5.7941-4.0975c1.9431-1.348,3.83-2.78,5.8537-4.0078L94.23,100.33l-.1328.1072,6.6149-6.539-.1863.3092.0063-.0206c.4992-1.5873.9059-3.1941,1.4983-4.8325a8.2651,8.2651,0,0,1,1.2891-2.4324,4.0085,4.0085,0,0,1,1.1866-.9786,4.3236,4.3236,0,0,1,1.46-.42,6.127,6.127,0,0,1,1.4359.0112,3.9088,3.9088,0,0,1,1.461.5024,5.5077,5.5077,0,0,1,1.9341,2.1395,11.4277,11.4277,0,0,1,1.1505,5.203,19.3443,19.3443,0,0,1-2.8193,9.9271,20.8592,20.8592,0,0,1-3.1816,4.0886l-3.4953,3.6119L74.6287,139.9446l.1985-.379-3.431,17.5554-.3657-.7959,10.9373,6.2093-.6331-.05,10.8776-4.0734-.4189,1.0145a13.0881,13.0881,0,0,1-1.3275-6.3332,7.432,7.432,0,0,1,3.2832-5.7279,6.41,6.41,0,0,1,3.2795-1.05,4.3272,4.3272,0,0,1,3.9562,1.9386l.4189.6269c.2823.4161.5753.8256.875,1.23.5968.8046,1.2355,1.6069,1.884,2.3372l-.267-.1876,3.0394,1.26a8.7928,8.7928,0,0,1,2.9817,1.9387,11.5362,11.5362,0,0,1,1.9932,2.8519,9.0438,9.0438,0,0,1,1.35,3.26,6.98,6.98,0,0,1-.3353,3.6254,6.8546,6.8546,0,0,1-.8758,1.6256c-.3962.5184-.7271.8684-1.0908,1.3039l-4.2722,5.0051c-2.853,3.3377-5.7566,6.6526-8.8331,9.8181a104.21,104.21,0,0,1-9.8057,8.9039,115.42,115.42,0,0,1-10.75,7.7465,58.3832,58.3832,0,0,1-12.0076,5.7434c-4.1953,1.4566-8.4433,2.4663-12.4324,4.1586C48.83,211.1059,44.9789,213.1194,41.0257,215.0936Z" style="fill:#aebbc7"/><path d="M97.8923,156.8321c-1.9478.6178-3.5352,2.0469-5.1606,2.7652" style="fill:none;stroke:#aebbc7;stroke-linecap:round;stroke-linejoin:round;stroke-width:0.5px"/><path d="M103.8826,153.6143c-2.2062-.7606-5.3969-.57-7.0093-3.56-1.4544-2.6971,1.543-3.41,3.4113-.7878" style="fill:none;stroke:#aebbc7;stroke-linecap:round;stroke-linejoin:round;stroke-width:0.5px"/><path d="M101.242,94.4284c1.9677-1.2119,5.5043,2.0159,6.7068-.2287,1.2863-2.401,1.6835-8.177-1.5726-7.9612" style="fill:none;stroke:#aebbc7;stroke-linecap:round;stroke-linejoin:round;stroke-width:0.5px"/><path d="M70.66,157.5772c-2.553-1.4874-2.818-2.4945-2.818-2.4945" style="fill:none;stroke:#aebbc7;stroke-linecap:round;stroke-linejoin:round;stroke-width:0.5px"/><path d="M47.6239,134.003c-2.1454,3.0235-1.8319,5.5321-3.8779,7.3834" style="fill:none;stroke:#aebbc7;stroke-linecap:round;stroke-linejoin:round;stroke-width:0.5px"/></g><g id="adbac286-d802-42e2-83e6-c5cdb4bee871" data-name="arrows above"><polygon points="132.985 101.554 150.091 105.309 148.793 109.093 132.985 101.554" style="fill:#f4ae3d"/><polygon points="131.131 104.686 145.6 114.17 143.035 117.239 131.131 104.686" style="fill:#f4ae3d"/><polygon points="133.445 97.944 150.548 95.344 150.688 99.341 133.445 97.944" style="fill:#f4ae3d"/><polygon points="87.694 78.94 70.279 75.079 71.577 71.296 87.694 78.94" style="fill:#f4ae3d"/><polygon points="89.109 76.548 74.824 65.914 77.557 62.994 89.109 76.548" style="fill:#f4ae3d"/><polygon points="87.342 81.697 69.903 85.304 69.538 81.321 87.342 81.697" style="fill:#f4ae3d"/></g></svg>