<svg xmlns="http://www.w3.org/2000/svg" xmlns:xlink="http://www.w3.org/1999/xlink" width="162.186" height="162.499" viewBox="0 0 162.186 162.499"><defs><linearGradient id="linear-gradient" x1="88.783" y1="100.345" x2="90.721" y2="101.566" gradientTransform="translate(184.853 187.851) rotate(180)" gradientUnits="userSpaceOnUse"><stop offset="0" stop-color="#404d59"/><stop offset="1" stop-color="#404d59" stop-opacity="0"/></linearGradient><linearGradient id="linear-gradient-2" x1="88.48" y1="83.657" x2="90.189" y2="84.733" gradientTransform="matrix(1, 0, 0, 1, 0, 0)" xlink:href="#linear-gradient"/></defs><g id="below"><path d="M14.16,88.147c-3.924,2.231-7.117.416-7.117-4.046V42.416A14.53,14.53,0,0,1,14.16,30.277L51.369,9.12c3.923-2.231,7.116-.416,7.116,4.046V54.851A13.3,13.3,0,0,1,51.369,66.99Z" style="fill:none;stroke:#687581;stroke-linecap:round;stroke-linejoin:round;stroke-width:0.5px"/><path d="M14.734,86.35c-3.044,1.731-5.521.322-5.521-3.139V41.836a12,12,0,0,1,5.521-9.417l36.931-21c3.044-1.73,5.521-.322,5.521,3.14V55.933a12,12,0,0,1-5.521,9.418Z" style="fill:none;stroke:#687581;stroke-linecap:round;stroke-linejoin:round;stroke-width:0.5px"/><path d="M57.134,37.347A11.669,11.669,0,0,1,51.767,46.5L14.126,67.9a4.692,4.692,0,0,1-2.254.687c-1.608,0-2.607-1.318-2.607-3.44" style="fill:none;stroke:#687581;stroke-linecap:round;stroke-linejoin:round;stroke-width:0.5px"/><line x1="28.768" y1="67.647" x2="24.695" y2="69.963" style="fill:none;stroke:#687581;stroke-linecap:round;stroke-linejoin:round;stroke-width:0.5px"/><path d="M33.978,65.944c-.27.154-.489.029-.489-.278V64.26a1.061,1.061,0,0,1,.489-.834c.27-.154.489-.029.489.278V65.11A1.061,1.061,0,0,1,33.978,65.944Z" style="fill:none;stroke:#687581;stroke-linecap:round;stroke-linejoin:round;stroke-width:0.5px"/><path d="M31.11,67.575c-.27.153-.489.029-.489-.278V65.89a1.062,1.062,0,0,1,.489-.834c.27-.153.489-.029.489.278v1.407A1.064,1.064,0,0,1,31.11,67.575Z" style="fill:none;stroke:#687581;stroke-linecap:round;stroke-linejoin:round;stroke-width:0.5px"/><line x1="36.318" y1="63.354" x2="40.391" y2="61.038" style="fill:none;stroke:#687581;stroke-linecap:round;stroke-linejoin:round;stroke-width:0.5px"/><path d="M41.82,65.028c0,.971.7,1.368,1.552.882l4.043-2.3a3.384,3.384,0,0,0,1.552-2.648V52.755c0-.97-.7-1.368-1.552-.882l-4.043,2.3a3.382,3.382,0,0,0-1.552,2.648Z" style="fill:none;stroke:#687581;stroke-linecap:round;stroke-linejoin:round;stroke-width:0.5px"/><path d="M23.267,75.577a3.384,3.384,0,0,1-1.552,2.648l-4.043,2.3c-.853.486-1.552.088-1.552-.882V71.432a3.384,3.384,0,0,1,1.552-2.648l4.043-2.3c.853-.486,1.552-.089,1.552.882Z" style="fill:none;stroke:#687581;stroke-linecap:round;stroke-linejoin:round;stroke-width:0.5px"/><path d="M5.127,89.477c-1.606-.9-2.6-2.818-2.6-5.55V41.932a17.087,17.087,0,0,1,8.867-14.861L49.548,5.757c2.445-1.366,4.662-1.493,6.267-.6L57.69,6.224c1.605.9,2.6,2.818,2.6,5.55v42c0,8.739-3.978,12.129-8.867,14.86L13.268,89.944c-2.445,1.366-4.661,1.493-6.267.6Z" style="fill:none;stroke:#687581;stroke-linecap:round;stroke-linejoin:round;stroke-width:1.5px"/></g><g id="illustration"><polygon points="57.038 61.222 57.038 66.272 50.477 62.635 50.477 65.145 43.221 56.278 50.477 55.072 50.477 57.581 57.038 61.222" style="fill:#f4ae3d;stroke:#12171d"/></g><g id="above"><path d="M73.068,81.007a3.159,3.159,0,0,0,3.179.312l2.343-1.352-.007,0a3.143,3.143,0,0,0,1.327-2.907l0-1.368a9.966,9.966,0,0,0-4.5-7.8L59.268,58.576a3.17,3.17,0,0,0-3.18-.312L53.8,59.582l-.059.034c-2.249,1.29-2.788,8.635,2.317,11.583ZM59.822,68.037a6.166,6.166,0,0,1-2.787-4.832V62.97l6.057,3.5,0,3.456Z" style="fill:none;stroke:#aebbc7;stroke-linecap:round;stroke-linejoin:round;stroke-width:1.5px"/><path d="M53.743,59.617a3.162,3.162,0,0,1,3.183.313L65,64.589" style="fill:none;stroke:#aebbc7;stroke-linecap:round;stroke-linejoin:round;stroke-width:1.5px"/><path d="M56.059,62.407l7.033,4.061v7.8l-7.033-4.06a6.164,6.164,0,0,1-2.789-4.832v-1.36C53.27,62.24,54.518,61.517,56.059,62.407Z" style="fill:none;stroke:#aebbc7;stroke-linecap:round;stroke-linejoin:round;stroke-width:1.5px"/><path d="M73.066,81.014a3.163,3.163,0,0,0,3.18.312l.208-.124v-.019a3.306,3.306,0,0,0,1.114-2.775l0-1.356a10,10,0,0,0-4.511-7.8L65,64.6l-.865,1.483,0,9.784Z" style="fill:none;stroke:#aebbc7;stroke-linecap:round;stroke-linejoin:round;stroke-width:1.5px"/><path d="M72.2,80.517c2.01,1.161,3.646.217,3.646-2.1V77.053A8.073,8.073,0,0,0,72.2,70.737l-8.07-4.659-8.071-4.659c-2.01-1.161-3.931-.381-3.931,1.94" style="fill:none;stroke:#aebbc7;stroke-linecap:round;stroke-linejoin:round;stroke-width:1.5px"/><path d="M73.068,81.007a3.159,3.159,0,0,0,3.179.312l2.343-1.352-.007,0a3.143,3.143,0,0,0,1.327-2.907l0-1.368a9.966,9.966,0,0,0-4.5-7.8L59.268,58.576a3.17,3.17,0,0,0-3.18-.312L53.8,59.582l-.059.034c-2.249,1.29-2.788,8.635,2.317,11.583ZM59.822,68.037a6.166,6.166,0,0,1-2.787-4.832V62.97l6.057,3.5,0,3.456Z" style="fill:#12171d;stroke:#aebbc7;stroke-linecap:round;stroke-linejoin:round;stroke-width:0.5px"/><path d="M53.743,59.617a3.162,3.162,0,0,1,3.183.313L65,64.589" style="fill:none;stroke:#aebbc7;stroke-linecap:round;stroke-linejoin:round;stroke-width:0.5px"/><path d="M56.059,62.407l7.033,4.061v7.8l-7.033-4.06a6.164,6.164,0,0,1-2.789-4.832v-1.36C53.27,62.24,54.518,61.517,56.059,62.407Z" style="fill:none;stroke:#aebbc7;stroke-linecap:round;stroke-linejoin:round;stroke-width:0.5px"/><path d="M73.066,81.014a3.163,3.163,0,0,0,3.18.312l.208-.124v-.019a3.306,3.306,0,0,0,1.114-2.775l0-1.356a10,10,0,0,0-4.511-7.8L65,64.6l-.865,1.483,0,9.784Z" style="fill:#404d59;stroke:#aebbc7;stroke-width:0.5px"/><path d="M72.2,80.517c2.01,1.161,3.646.217,3.646-2.1V77.053A8.073,8.073,0,0,0,72.2,70.737l-8.07-4.659-8.071-4.659c-2.01-1.161-3.931-.381-3.931,1.94" style="fill:none;stroke:#aebbc7;stroke-linecap:round;stroke-linejoin:round;stroke-width:0.5px"/><path d="M94.494,85.606l12.857,7.309c.761.433-.344,2.319-1.106,1.886l-13.279-7.55" style="fill:url(#linear-gradient)"/><path d="M94.494,85.606a52.548,52.548,0,0,1,7.42,3.58l3.561,2.053,1.776,1.033.223.129.111.064a1.113,1.113,0,0,1,.194.142,1.092,1.092,0,0,1,.328.857,2.256,2.256,0,0,1-.475,1.233,2,2,0,0,1-.5.475,1.146,1.146,0,0,1-.883.179.957.957,0,0,1-.246-.094l-.121-.066-.224-.125-.449-.25-1.8-1c-1.2-.67-2.394-1.334-3.573-2.03a56.585,56.585,0,0,1-6.878-4.535,56.382,56.382,0,0,1,7.414,3.591c1.2.657,2.385,1.348,3.573,2.032l1.777,1.031.764.444a.706.706,0,0,0,.334-.27,1.257,1.257,0,0,0,.277-.646c0-.09-.022-.1-.008-.08l-.35-.194-1.8-1-3.585-2.011A52.558,52.558,0,0,1,94.494,85.606Z" style="fill:#12171d"/><path d="M107.314,125.334a35.1,35.1,0,0,1-.783-7.168v-3.921c0-.622,2.253-.622,2.253,0v3.921a32.634,32.634,0,0,0,.582,5.983" style="fill:#404d59;stroke:#aebbc7;stroke-linecap:round;stroke-linejoin:round"/><path d="M89.767,85.4,78.523,79.053c-.761-.432.344-2.318,1.106-1.885L91.3,83.759" style="fill:url(#linear-gradient-2)"/><path d="M89.767,85.4a42.889,42.889,0,0,1-6.612-3.1L79.993,80.5l-1.575-.913a2.472,2.472,0,0,1-.245-.15.973.973,0,0,1-.3-.359,1.25,1.25,0,0,1-.095-.741,2.42,2.42,0,0,1,.462-1.062,1.524,1.524,0,0,1,1.142-.685.99.99,0,0,1,.453.1l.224.121.4.22,1.594.88c1.058.595,2.126,1.172,3.168,1.795A45.292,45.292,0,0,1,91.3,83.759a45.354,45.354,0,0,1-6.606-3.112c-1.071-.571-2.117-1.188-3.172-1.787l-1.577-.911-.394-.228-.174-.1h.015a.665.665,0,0,0-.341.267,1.255,1.255,0,0,0-.269.584.306.306,0,0,0,.01.149l-.009-.014c-.037-.019.1.057.147.081l1.594.879L83.7,81.343A42.78,42.78,0,0,1,89.767,85.4Z" style="fill:#12171d"/><path d="M158,96.066c-7.727,5.526-16.017,10.077-24.159,14.886-8.155,4.784-16.348,9.5-24.537,14.229L84.661,139.226c-4.11,2.336-8.2,4.7-12.341,6.989q-3.1,1.718-6.248,3.36c-2.086,1.115-4.2,2.182-6.329,3.221,1.964-1.326,3.945-2.622,5.954-3.87q3-1.9,6.034-3.732c4.052-2.436,8.145-4.8,12.223-7.193l24.485-14.321c8.187-4.729,16.371-9.464,24.592-14.135C141.267,104.9,149.353,100,158,96.066Z" style="fill:#687581"/><path d="M159.343,117.875c-1.729,1.265-3.5,2.448-5.284,3.625q-2.685,1.739-5.4,3.422c-1.83,1.089-3.635,2.22-5.486,3.275s-3.694,2.119-5.584,3.1l-.75-1.3c1.8-1.144,3.635-2.221,5.481-3.284s3.721-2.073,5.579-3.113q2.819-1.508,5.664-2.967C155.47,119.686,157.382,118.738,159.343,117.875Z" style="fill:#687581"/><path d="M114.917,90.119a3.153,3.153,0,0,0-1.315-2.9l-2.336-1.349v.008a3.133,3.133,0,0,0-3.171.3l-1.172.683a9.925,9.925,0,0,0-4.5,7.775v18.577a3.16,3.16,0,0,0,1.316,2.9l2.336,1.35c2.074,1.206,8.846-1.94,8.846-7.775Zm-4.6,7.412-2.985,1.721V95.491a6.149,6.149,0,0,1,2.783-4.815l.2-.119Z" style="fill:none;stroke:#aebbc7;stroke-linecap:round;stroke-linejoin:round;stroke-width:1.5px"/><path d="M106.478,105.273h-1.712v9.285a3.184,3.184,0,0,0,1.307,2.909h.009c2.083,1.2,8.837-1.948,8.837-7.775V100.4Z" style="fill:none;stroke:#aebbc7;stroke-linecap:round;stroke-linejoin:round;stroke-width:1.5px"/><path d="M104.766,105.273V95.982a9.935,9.935,0,0,1,4.49-7.775l1.173-.677a3.15,3.15,0,0,1,3.173-.312" style="fill:none;stroke:#aebbc7;stroke-linecap:round;stroke-linejoin:round;stroke-width:1.5px"/><path d="M110.119,116.9c-2,1.158-3.636-.013-3.636-2.328V95.988a8.047,8.047,0,0,1,3.636-6.3l1.173-.677c2-1.158,3.636-.216,3.636,2.1" style="fill:none;stroke:#aebbc7;stroke-linecap:round;stroke-linejoin:round;stroke-width:1.5px"/><path d="M114.074,91.605v8.1l-6.737,3.889V95.5a6.147,6.147,0,0,1,2.781-4.817L111.293,90C112.828,89.113,114.074,89.831,114.074,91.605Z" style="fill:none;stroke:#aebbc7;stroke-linecap:round;stroke-linejoin:round;stroke-width:1.5px"/><polyline points="114.926 100.405 106.483 105.279 104.766 105.273" style="fill:none;stroke:#aebbc7;stroke-linecap:round;stroke-linejoin:round;stroke-width:1.5px"/><path d="M114.917,90.119a3.153,3.153,0,0,0-1.315-2.9l-2.336-1.349v.008a3.133,3.133,0,0,0-3.171.3l-1.172.683a9.925,9.925,0,0,0-4.5,7.775v18.577a3.16,3.16,0,0,0,1.316,2.9l2.336,1.35c2.074,1.206,8.846-1.94,8.846-7.775Zm-4.6,7.412-2.985,1.721V95.491a6.149,6.149,0,0,1,2.783-4.815l.2-.119Z" style="fill:#12171d;stroke:#aebbc7;stroke-linecap:round;stroke-linejoin:round;stroke-width:0.5px"/><path d="M106.478,105.273h-1.712v9.285a3.184,3.184,0,0,0,1.307,2.909h.009c2.083,1.2,8.837-1.948,8.837-7.775V100.4Z" style="fill:#404d59;stroke:#aebbc7;stroke-width:0.5px"/><path d="M104.766,105.273V95.982a9.935,9.935,0,0,1,4.49-7.775l1.173-.677a3.15,3.15,0,0,1,3.173-.312" style="fill:none;stroke:#aebbc7;stroke-linecap:round;stroke-linejoin:round;stroke-width:0.5px"/><path d="M110.119,116.9c-2,1.158-3.636-.013-3.636-2.328V95.988a8.047,8.047,0,0,1,3.636-6.3l1.173-.677c2-1.158,3.636-.216,3.636,2.1" style="fill:none;stroke:#aebbc7;stroke-linecap:round;stroke-linejoin:round;stroke-width:0.5px"/><path d="M114.074,91.605v8.1l-6.737,3.889V95.5a6.147,6.147,0,0,1,2.781-4.817L111.293,90C112.828,89.113,114.074,89.831,114.074,91.605Z" style="fill:none;stroke:#aebbc7;stroke-linecap:round;stroke-linejoin:round;stroke-width:0.5px"/><polyline points="114.926 100.405 106.483 105.279 104.766 105.273" style="fill:none;stroke:#aebbc7;stroke-linecap:round;stroke-linejoin:round;stroke-width:0.5px"/><path d="M151.476,142.817c0,7-2.411,12.261-6.806,14.8a12.1,12.1,0,0,1-6.125,1.584,20.448,20.448,0,0,1-10.1-3.082,42.338,42.338,0,0,1-13.213-12.776l1.925-1.108a40.014,40.014,0,0,0,12.416,11.93c5.338,3.082,10.3,3.617,13.972,1.5s5.688-6.679,5.688-12.844c0-13.233-9.324-29.393-20.788-36L107.581,94.919A5.684,5.684,0,0,1,108.622,93l20.948,11.864C141.656,111.839,151.476,128.874,151.476,142.817Z" style="fill:#404d59;stroke:#aebbc7;stroke-linecap:round;stroke-linejoin:round"/><path d="M89.283,158.323a134.96,134.96,0,0,1,11.605-7.572l11.922-7.022c3.963-2.36,7.983-4.62,11.973-6.933s8.019-4.559,12.054-6.794l.75,1.3q-5.93,3.567-11.911,7.042c-4,2.3-7.965,4.651-11.991,6.9l-12.041,6.814A134.943,134.943,0,0,1,89.283,158.323Z" style="fill:#687581"/></g></svg>
