<svg xmlns="http://www.w3.org/2000/svg" xmlns:xlink="http://www.w3.org/1999/xlink" width="487.497" height="250.924" viewBox="0 0 487.497 250.924"><defs><radialGradient id="radial-gradient" cx="299.576" cy="116.767" r="113.076" gradientTransform="translate(0.02 0.052) scale(1.072 1.072)" gradientUnits="userSpaceOnUse"><stop offset="0.316" stop-color="#f4ae3d"/><stop offset="1" stop-color="#f4ae3d" stop-opacity="0"/></radialGradient><radialGradient id="radial-gradient-2" cx="396.577" cy="116.145" r="56.112" gradientTransform="translate(0.02 0.052) scale(1.072 1.072)" gradientUnits="userSpaceOnUse"><stop offset="0.569" stop-color="#f4ae3d"/><stop offset="1" stop-color="#f4ae3d" stop-opacity="0"/></radialGradient><radialGradient id="radial-gradient-3" cx="168.924" cy="43.94" r="42.348" xlink:href="#radial-gradient-2"/><radialGradient id="radial-gradient-4" cx="168.924" cy="189.371" r="43.826" xlink:href="#radial-gradient-2"/><radialGradient id="radial-gradient-5" cx="59.847" cy="117.526" r="57.699" xlink:href="#radial-gradient-2"/></defs><g id="below"><path d="M320.648,125.279l21.645,122.755a124.653,124.653,0,0,0,0-245.51Z" style="opacity:0.5;fill:url(#radial-gradient)"/><path d="M426.213,124.275l10.578,59.994a60.922,60.922,0,0,0,0-119.988Z" style="opacity:0.5;fill:url(#radial-gradient-2)"/><path d="M180.881,47.1l46.388-8.18a47.105,47.105,0,0,0-92.776,0Z" style="opacity:0.5;fill:url(#radial-gradient-3)"/><path d="M227.269,211.642a47.105,47.105,0,0,1-92.776,0l46.388-8.179Z" style="opacity:0.5;fill:url(#radial-gradient-4)"/><path d="M53.07,187.219a62.9,62.9,0,0,1,0-123.879l10.921,61.939Z" style="opacity:0.5;fill:url(#radial-gradient-5)"/></g><g id="illustration"><g id="Offset_Group" data-name="Offset Group"><polygon points="407.214 125.279 407.214 166.279 319.468 167.009 319.468 125.279 319.468 83.549 407.214 84.279 407.214 125.279" style="fill:none;stroke:#687581;stroke-linecap:round;stroke-linejoin:round;stroke-width:0.5px"/><polygon points="407.464 125.279 407.464 166.527 319.218 167.261 319.218 125.279 319.218 83.297 407.464 84.032 407.464 125.279" style="fill:none;stroke:#687581;stroke-linecap:round;stroke-linejoin:round;stroke-width:0.5px"/></g><polygon points="318.968 83.045 407.714 83.784 407.714 125.279 407.714 166.775 318.968 167.513 318.968 125.279 318.968 83.045" style="fill:none;stroke:#687581;stroke-linecap:round;stroke-linejoin:round;stroke-width:0.5px"/><path d="M288.741,77.275c-1.212-5-1.121-5.752-4.521-6.277-8.453-1.309-14.925-1.344-22.017-1.546-8.856-.254-34.7-.386-55.6-.294,0,0-10.3.039-22.1.178s-21.5.542-24.772.674a11.643,11.643,0,0,0-8.477,3.344c-2.72,2.573-8.593,8.5-10.757,16.814s-2.991,16.294-2.991,35.111.831,26.8,2.994,35.111,8.037,14.24,10.754,16.814a11.629,11.629,0,0,0,8.477,3.344c3.277.132,12.968.538,24.772.674s22.1.178,22.1.178c20.9.092,46.748-.04,55.6-.293,7.092-.2,13.564-.238,22.017-1.547,3.4-.527,3.309-1.279,4.521-6.277,0,0-16.4-.719-22.629-.719s-64.434-.264-67.581-.264c-2.625,0-3.176-1.756-3.516-2.838-5.272-16.86-5.348-43.733-5.348-44.183s.076-27.323,5.348-44.183c.338-1.081.891-2.838,3.516-2.838,3.147,0,61.353-.264,67.581-.264S288.741,77.275,288.741,77.275Z" style="fill:none;stroke:#687581;stroke-linecap:round;stroke-linejoin:round;stroke-width:0.5px"/><path d="M308.075,176.19c.029.865.294,1.061,2.6,1.061,2.541,0,78.334-1.927,96.18-2.944a6.081,6.081,0,0,0,5.676-4.045c2.121-6.589,4.965-21.593,4.965-44.983S414.65,86.885,412.529,80.3a6.086,6.086,0,0,0-5.676-4.045c-17.846-1.018-93.641-2.944-96.18-2.944-2.306,0-2.569.2-2.6,1.061" style="fill:none;stroke:#687581;stroke-linecap:round;stroke-linejoin:round;stroke-width:0.5px"/><path d="M307.959,169.24c.121-.054.987-.265,4.025-5.157,3.257-5.248,3.413-5.788,3.909-10.38s.927-11.622.927-28.424-.429-23.833-.927-28.424-.652-5.132-3.909-10.379c-3.038-4.893-3.9-5.1-4.025-5.157" style="fill:none;stroke:#687581;stroke-width:0.5px"/><path d="M170.632,187.323c-13.422.07-25.944,1.939-32.937,1.939-3.239,0-26.56-.645-34.442-.753S87.166,183.98,84.791,182.9s-3.786-2.91-6.694-6.469-5.4-6.363-6.91-10.892C68.811,158.1,65.9,141.574,65.9,125.279s2.915-32.823,5.291-40.262c1.511-4.529,4-7.331,6.91-10.89s4.318-5.391,6.694-6.469,10.581-5.5,18.462-5.607,31.2-.753,34.442-.753c6.993,0,19.515,1.869,32.937,1.939" style="fill:none;stroke:#687581;stroke-linecap:round;stroke-miterlimit:10;stroke-width:0.5px"/><path d="M182.548,187.338c12.192-.027,39.049-.093,43.366-.128,5.2-.042,39.45-.554,44.78-.724s11.049-.341,12.966-.426,10.408-.511,14.033-.17,11.344,1.533,14.159,2.043a71.745,71.745,0,0,0,15.7,1.619h33.5a62.139,62.139,0,0,0,14.819-1.576c4.861-1.15,19.661-5.239,23.672-6.176a79.038,79.038,0,0,0,9.807-2.9c1.493-.638,4.4-4.086,5.2-6.774s5.244-18.9,5.244-46.85-4.434-44.17-5.246-46.854-3.711-6.132-5.2-6.774a78.926,78.926,0,0,0-9.81-2.9c-4.008-.937-18.808-5.026-23.672-6.176A62.123,62.123,0,0,0,361.048,61h-33.5a71.618,71.618,0,0,0-15.693,1.622c-2.815.51-10.534,1.7-14.162,2.043s-12.113-.085-14.03-.171-7.636-.255-12.966-.426-39.579-.681-44.783-.724-43.161-.127-43.161-.127h-.2" style="fill:none;stroke:#687581;stroke-linecap:round;stroke-miterlimit:10;stroke-width:0.5px"/><path d="M173.312,191.14s-2.68-3.818-2.32-6.38c.164-1.17,1.8-.893,2.881-.893s4.4.261,4.4.261" style="fill:none;stroke:#687581;stroke-linecap:round;stroke-linejoin:round;stroke-width:0.5px"/><g id="Offset_Group-2" data-name="Offset Group"><path d="M160.311,181.18l7.568,4a4.838,4.838,0,0,1,1.7,1.5c.246.351.519.745.813,1.168,1.926,2.78,4.794,6.925,6.647,8.577,2.512,2.237,3.785,2.342,6.237,2.259a5.533,5.533,0,0,0,2.536-.491,1.374,1.374,0,0,0,.56-.6,1.6,1.6,0,0,0,.087-.952c-.168-.98-3.455-9.612-3.92-10.665-.04-.091-.078-.181-.116-.27a3.136,3.136,0,0,0-.993-1.465,3.183,3.183,0,0,0-1.669-.5l-.177-.012c-1.727-.117-2.986-.226-3.694-.851a21.938,21.938,0,0,0-2.37-1.688l-.253-.165" style="fill:none;stroke:#687581;stroke-linecap:round;stroke-linejoin:round;stroke-width:0.5px"/><path d="M160.428,180.959l7.568,4a5.086,5.086,0,0,1,1.785,1.576c.247.353.52.747.813,1.17,1.937,2.794,4.783,6.906,6.609,8.532,2.453,2.186,3.658,2.277,6.061,2.2a5.338,5.338,0,0,0,2.417-.455,1.116,1.116,0,0,0,.46-.493,1.354,1.354,0,0,0,.069-.806c-.163-.944-3.435-9.546-3.9-10.606l-.117-.273a2.9,2.9,0,0,0-.908-1.359,2.929,2.929,0,0,0-1.541-.452l-.177-.012c-1.691-.115-3.056-.22-3.842-.914a21.894,21.894,0,0,0-2.341-1.666l-.253-.164" style="fill:none;stroke:#687581;stroke-linecap:round;stroke-linejoin:round;stroke-width:0.5px"/></g><path d="M160.545,180.738l7.569,4a5.346,5.346,0,0,1,1.872,1.654c1.885,2.693,5.315,7.816,7.383,9.658,2.394,2.134,3.532,2.213,5.887,2.134s2.865-.554,2.708-1.462-3.415-9.482-3.885-10.548-.628-1.818-2.355-1.936-3.272-.2-4.168-.988a24.749,24.749,0,0,0-2.565-1.808" style="fill:none;stroke:#687581;stroke-linecap:round;stroke-linejoin:round;stroke-width:0.5px"/><path d="M173.312,59.419s-2.68,3.817-2.32,6.38c.164,1.169,1.8.892,2.881.892s4.4-.261,4.4-.261" style="fill:none;stroke:#687581;stroke-linecap:round;stroke-linejoin:round;stroke-width:0.5px"/><g id="Offset_Group-3" data-name="Offset Group"><path d="M173.464,69.4l.053-.034a22.219,22.219,0,0,0,2.37-1.688c.708-.625,1.967-.735,3.694-.852l.177-.012a3.174,3.174,0,0,0,1.669-.5,3.141,3.141,0,0,0,.993-1.464c.038-.09.076-.179.116-.27.465-1.054,3.752-9.685,3.92-10.665a1.606,1.606,0,0,0-.087-.953,1.374,1.374,0,0,0-.56-.6,5.547,5.547,0,0,0-2.536-.491c-2.452-.082-3.725.022-6.237,2.26-1.858,1.655-4.735,5.816-6.662,8.6-.288.416-.556.8-.8,1.149a4.862,4.862,0,0,1-1.7,1.5l-7.353,3.887" style="fill:none;stroke:#687581;stroke-linecap:round;stroke-linejoin:round;stroke-width:0.5px"/><path d="M173.328,69.193l.053-.034a21.753,21.753,0,0,0,2.341-1.666c.786-.694,2.151-.8,3.842-.913l.177-.012a2.374,2.374,0,0,0,2.449-1.811c.038-.09.076-.18.117-.273.468-1.06,3.74-9.663,3.9-10.607a1.354,1.354,0,0,0-.069-.806,1.126,1.126,0,0,0-.46-.493,5.351,5.351,0,0,0-2.417-.455c-2.4-.081-3.608.011-6.061,2.2-1.83,1.63-4.686,5.757-6.623,8.553-.288.416-.556.8-.8,1.15A5.1,5.1,0,0,1,168,65.6l-7.353,3.887" style="fill:none;stroke:#687581;stroke-linecap:round;stroke-linejoin:round;stroke-width:0.5px"/></g><path d="M173.192,68.984a22.449,22.449,0,0,0,2.364-1.678c.9-.79,2.441-.87,4.168-.988s1.884-.869,2.355-1.935,3.728-9.64,3.885-10.548-.353-1.383-2.708-1.462-3.493,0-5.887,2.133c-2.068,1.843-5.5,6.965-7.383,9.661a5.346,5.346,0,0,1-1.872,1.654l-7.353,3.887" style="fill:none;stroke:#687581;stroke-linecap:round;stroke-linejoin:round;stroke-width:0.5px"/><path d="M300.125,125.279V127.5c-9.537.047-9.057-1.908-9.057-2.221s-.48-2.267,9.057-2.221Z" style="fill:none;stroke:#687581;stroke-linecap:round;stroke-linejoin:round;stroke-width:0.5px"/><path d="M294.915,66.368c.623.044,6.738.463,9.556.356,4.016-.152,9.253-.748,13.237-2.339,4.107-1.641,7.445-3.348,7.445-3.348" style="fill:none;stroke:#687581;stroke-linecap:round;stroke-miterlimit:10;stroke-width:0.5px"/><path d="M318.968,85.472h-7.617" style="fill:none;stroke:#687581;stroke-linecap:round;stroke-linejoin:round;stroke-width:0.5px"/><path d="M287.593,91.559s7.784.361,11.183.631,5.717,1.936,6.443,5.764c.8,4.252,1.26,16.291,1.22,18.374-.029,1.536-.4,2.072-2.107,2.072H287.593" style="fill:none;stroke:#687581;stroke-linecap:round;stroke-linejoin:round;stroke-width:0.5px"/><path d="M159.987,62.854a4.372,4.372,0,0,0-.191.416,6.565,6.565,0,0,0-.37,3.007,13.589,13.589,0,0,0,.963,3.728" style="fill:none;stroke:#687581;stroke-linecap:round;stroke-linejoin:round;stroke-width:0.5px"/><path d="M231.316,63.437a15.4,15.4,0,0,1,1.014,2.985,17.762,17.762,0,0,1,.375,2.727,46.336,46.336,0,0,1,2.754,8.937" style="fill:none;stroke:#687581;stroke-linecap:round;stroke-linejoin:round;stroke-width:0.5px"/><path d="M229.959,77.918a39.257,39.257,0,0,0-4.438-8.429" style="fill:none;stroke:#687581;stroke-linecap:round;stroke-linejoin:round;stroke-width:0.5px"/><path d="M393.136,78.107h-2.072a1.327,1.327,0,0,0,0,2.654h5.571a1.327,1.327,0,0,0,0-2.654Z" style="fill:none;stroke:#687581;stroke-linecap:round;stroke-linejoin:round;stroke-width:0.5px"/><path d="M393.849,78.107v2.654" style="fill:none;stroke:#687581;stroke-linecap:round;stroke-linejoin:round;stroke-width:0.5px"/><path d="M73.312,80.45s50.885-2.484,63.142-2.934c7.86-.289,11.8-2.883,15.769-5.006" style="fill:none;stroke:#687581;stroke-linecap:round;stroke-linejoin:round;stroke-width:0.5px"/><path d="M180.842,66.079c19.792-.116,37.632-.035,51.362.167,18.529.272,29.827.253,34.034.489,6.188.348,9.741.145,20.355,2.988,2.067.554,2.354,1.345,2.714,2.316.566,1.532,1.1,3.715,1.473,5.172" style="fill:none;stroke:#687581;stroke-linecap:round;stroke-linejoin:round;stroke-width:0.5px"/><path d="M407.714,83.784V80.3h7.121" style="fill:none;stroke:#687581;stroke-linecap:round;stroke-linejoin:round;stroke-width:0.5px"/><path d="M310.662,73.307c.305,1.842.914,5.467,1.22,7.037.354,1.828.064,2.714,3.013,2.714.335,0,1.778-.006,4.07-.014" style="fill:none;stroke:#687581;stroke-linecap:round;stroke-linejoin:round;stroke-width:0.5px"/><path d="M288.744,77.275s5.171-.148,6.5-.268,1.419-.682,1.36-1.691a37.349,37.349,0,0,0-.5-4.706c-.509-2.57-.34-6.118-5.185-6.118" style="fill:none;stroke:#687581;stroke-linecap:round;stroke-linejoin:round;stroke-width:0.5px"/><path d="M407.714,87.63H318.968" style="fill:none;stroke:#687581;stroke-linecap:round;stroke-linejoin:round;stroke-width:0.5px"/><path d="M81.9,69.707s51.362-1.188,55.767-1.344c4.63-.166,7.74-.553,10.69,1.5l3.845,2.671" style="fill:none;stroke:#687581;stroke-linecap:round;stroke-linejoin:round;stroke-width:0.5px"/><path d="M195.017,81.1,152.222,72.51" style="fill:none;stroke:#687581;stroke-linecap:round;stroke-linejoin:round;stroke-width:0.5px"/><path d="M211.133,82.6a61.867,61.867,0,0,1-16.116-1.5" style="fill:none;stroke:#687581;stroke-linecap:round;stroke-linejoin:round;stroke-width:0.5px"/><path d="M202.429,78.245l6.146,1.2a24.88,24.88,0,0,0,4.778.463c13.639,0,80.592.025,89.383.025,3.3,0,2.805-1.439,2.751-2.527s-.41-4.755-.5-5.827-.053-1.643,3.818-1.53c3.325.1,97.717,3.041,97.717,3.041a8.882,8.882,0,0,1,8.1,5.806" style="fill:none;stroke:#687581;stroke-linecap:round;stroke-linejoin:round;stroke-width:0.5px"/><path d="M160.389,70.005l42.04,8.24" style="fill:none;stroke:#687581;stroke-linecap:round;stroke-linejoin:round;stroke-width:0.5px"/><path d="M216.16,84.645h-2.073a1.327,1.327,0,0,0,0,2.654h5.572a1.327,1.327,0,0,0,0-2.654h-3.5Z" style="fill:none;stroke:#687581;stroke-linecap:round;stroke-linejoin:round;stroke-width:0.5px"/><path d="M216.873,84.645V87.3" style="fill:none;stroke:#687581;stroke-linecap:round;stroke-linejoin:round;stroke-width:0.5px"/><path d="M275.877,84.641H273.8a1.327,1.327,0,0,0,0,2.654h5.569a1.327,1.327,0,0,0,0-2.654h-3.5Z" style="fill:none;stroke:#687581;stroke-linecap:round;stroke-linejoin:round;stroke-width:0.5px"/><path d="M276.587,84.641V87.3" style="fill:none;stroke:#687581;stroke-linecap:round;stroke-linejoin:round;stroke-width:0.5px"/><path d="M294.915,184.19c.617-.043,6.738-.463,9.556-.356,4.016.152,9.253.748,13.237,2.34,4.107,1.64,7.445,3.347,7.445,3.347" style="fill:none;stroke:#687581;stroke-linecap:round;stroke-miterlimit:10;stroke-width:0.5px"/><path d="M318.968,165.086h-7.617" style="fill:none;stroke:#687581;stroke-linecap:round;stroke-linejoin:round;stroke-width:0.5px"/><path d="M287.593,159s7.784-.36,11.183-.631,5.717-1.935,6.443-5.764c.8-4.252,1.26-16.291,1.22-18.374-.029-1.536-.4-2.072-2.107-2.072H287.593" style="fill:none;stroke:#687581;stroke-linecap:round;stroke-linejoin:round;stroke-width:0.5px"/><path d="M159.987,187.705a4.489,4.489,0,0,1-.191-.416,6.567,6.567,0,0,1-.37-3.008,13.589,13.589,0,0,1,.963-3.728" style="fill:none;stroke:#687581;stroke-linecap:round;stroke-linejoin:round;stroke-width:0.5px"/><path d="M231.316,187.121a15.4,15.4,0,0,0,1.014-2.985,17.745,17.745,0,0,0,.375-2.727,46.348,46.348,0,0,0,2.754-8.936" style="fill:none;stroke:#687581;stroke-linecap:round;stroke-linejoin:round;stroke-width:0.5px"/><path d="M239.762,181.139a44.858,44.858,0,0,0,1.363-8.436" style="fill:none;stroke:#687581;stroke-linecap:round;stroke-linejoin:round;stroke-width:0.5px"/><path d="M239.765,69.436a44.779,44.779,0,0,1,1.359,8.388" style="fill:none;stroke:#687581;stroke-linecap:round;stroke-linejoin:round;stroke-width:0.5px"/><path d="M229.954,172.652a39.239,39.239,0,0,1-4.552,8.588" style="fill:none;stroke:#687581;stroke-linecap:round;stroke-linejoin:round;stroke-width:0.5px"/><path d="M282.065,125.279v31.137a3.486,3.486,0,0,1-3.483,3.486c-11.979.022-51.247.1-60.594.107a3.48,3.48,0,0,1-3.461-3,223.008,223.008,0,0,1-2.153-31.727,223.012,223.012,0,0,1,2.153-31.728,3.48,3.48,0,0,1,3.461-3c9.347.013,48.615.086,60.594.107a3.488,3.488,0,0,1,3.483,3.486Z" style="fill:none;stroke:#687581;stroke-linecap:round;stroke-linejoin:round;stroke-width:0.5px"/><path d="M393.136,172.448h-2.072a1.327,1.327,0,0,1,0-2.654h5.571a1.327,1.327,0,0,1,0,2.654Z" style="fill:none;stroke:#687581;stroke-linecap:round;stroke-linejoin:round;stroke-width:0.5px"/><path d="M393.849,172.451V169.8" style="fill:none;stroke:#687581;stroke-linecap:round;stroke-linejoin:round;stroke-width:0.5px"/><path d="M396.635,172.453h6.448a1.327,1.327,0,1,0,0-2.654h-6.448" style="fill:none;stroke:#687581;stroke-linecap:round;stroke-linejoin:round;stroke-width:0.5px"/><path d="M400.3,169.8v2.654" style="fill:none;stroke:#687581;stroke-linecap:round;stroke-linejoin:round;stroke-width:0.5px"/><path d="M339.817,170.717h2.072a1.328,1.328,0,0,1,0,2.655H336.32a1.328,1.328,0,0,1,0-2.655Z" style="fill:none;stroke:#687581;stroke-linecap:round;stroke-linejoin:round;stroke-width:0.5px"/><path d="M339.1,170.717v2.655" style="fill:none;stroke:#687581;stroke-linecap:round;stroke-linejoin:round;stroke-width:0.5px"/><path d="M336.318,170.714h-6.449a1.328,1.328,0,0,0,0,2.655h6.449" style="fill:none;stroke:#687581;stroke-linecap:round;stroke-linejoin:round;stroke-width:0.5px"/><path d="M332.655,173.369v-2.655" style="fill:none;stroke:#687581;stroke-linecap:round;stroke-linejoin:round;stroke-width:0.5px"/><path d="M339.817,79.842h2.072a1.328,1.328,0,0,0,0-2.655H336.32a1.328,1.328,0,0,0,0,2.655Z" style="fill:none;stroke:#687581;stroke-linecap:round;stroke-linejoin:round;stroke-width:0.5px"/><path d="M339.1,79.842V77.187" style="fill:none;stroke:#687581;stroke-linecap:round;stroke-linejoin:round;stroke-width:0.5px"/><path d="M336.318,79.844h-6.449a1.327,1.327,0,0,1,0-2.654h6.449" style="fill:none;stroke:#687581;stroke-linecap:round;stroke-linejoin:round;stroke-width:0.5px"/><path d="M332.655,77.19v2.654" style="fill:none;stroke:#687581;stroke-linecap:round;stroke-linejoin:round;stroke-width:0.5px"/><path d="M76.116,156.449c17.329,1.347,39.131,1.063,48.5.853a4.419,4.419,0,0,0,4.3-4.711c-.341-5.449-.829-15.4-.829-27.312s.488-21.864.829-27.313a4.427,4.427,0,0,0-4.3-4.711c-9.368-.21-31.173-.494-48.5.853" style="fill:none;stroke:#687581;stroke-linecap:round;stroke-linejoin:round;stroke-width:0.5px"/><path d="M73.312,170.108s50.885,2.485,63.142,2.932c7.86.288,11.776,2.865,15.746,4.988" style="fill:none;stroke:#687581;stroke-linecap:round;stroke-linejoin:round;stroke-width:0.5px"/><path d="M180.842,184.479c19.792.116,37.632.035,51.362-.167,18.529-.272,29.827-.253,34.034-.489,6.188-.348,9.741-.145,20.355-2.988,2.067-.553,2.354-1.344,2.714-2.316.566-1.533,1.1-3.717,1.473-5.174" style="fill:none;stroke:#687581;stroke-linecap:round;stroke-linejoin:round;stroke-width:0.5px"/><path d="M407.714,166.775v3.486h7.121" style="fill:none;stroke:#687581;stroke-linecap:round;stroke-linejoin:round;stroke-width:0.5px"/><path d="M310.662,177.251c.305-1.842.914-5.468,1.22-7.037.354-1.828.064-2.715,3.013-2.715.335,0,1.778.006,4.07.014" style="fill:none;stroke:#687581;stroke-linecap:round;stroke-linejoin:round;stroke-width:0.5px"/><path d="M290.918,186.064c4.845,0,4.676-3.545,5.185-6.115a37.364,37.364,0,0,0,.5-4.707c.059-1.009-.03-1.57-1.36-1.69s-6.5-.269-6.5-.269" style="fill:none;stroke:#687581;stroke-linecap:round;stroke-linejoin:round;stroke-width:0.5px"/><path d="M407.714,162.928H318.968" style="fill:none;stroke:#687581;stroke-linecap:round;stroke-linejoin:round;stroke-width:0.5px"/><path d="M81.9,180.851s51.362,1.189,55.767,1.344c4.63.167,7.74.553,10.69-1.5l3.845-2.671" style="fill:none;stroke:#687581;stroke-linecap:round;stroke-linejoin:round;stroke-width:0.5px"/><path d="M195.017,169.462,152.2,178.03" style="fill:none;stroke:#687581;stroke-linecap:round;stroke-linejoin:round;stroke-width:0.5px"/><path d="M211.133,167.961a61.912,61.912,0,0,0-16.116,1.5" style="fill:none;stroke:#687581;stroke-linecap:round;stroke-linejoin:round;stroke-width:0.5px"/><path d="M347.589,162.928l-3.9-11.538a21.288,21.288,0,0,1-.938-5.7V104.866a21.288,21.288,0,0,1,.938-5.7l3.9-11.538" style="fill:none;stroke:#687581;stroke-linecap:round;stroke-linejoin:round;stroke-width:0.5px"/><path d="M287.593,167.933V82.625" style="fill:none;stroke:#687581;stroke-linecap:round;stroke-linejoin:round;stroke-width:0.5px"/><path d="M202.429,172.313l6.146-1.2a24.959,24.959,0,0,1,4.778-.463c13.639,0,80.592-.024,89.383-.024,3.3,0,2.805,1.438,2.751,2.526s-.41,4.755-.5,5.827-.053,1.643,3.818,1.531c3.325-.1,97.717-3.041,97.717-3.041a8.885,8.885,0,0,0,8.1-5.807" style="fill:none;stroke:#687581;stroke-linecap:round;stroke-linejoin:round;stroke-width:0.5px"/><path d="M160.389,180.553l42.04-8.24" style="fill:none;stroke:#687581;stroke-linecap:round;stroke-linejoin:round;stroke-width:0.5px"/><path d="M216.16,165.913h-2.073a1.327,1.327,0,1,1,0-2.653h5.572a1.327,1.327,0,1,1,0,2.653h-3.5Z" style="fill:none;stroke:#687581;stroke-linecap:round;stroke-linejoin:round;stroke-width:0.5px"/><path d="M216.873,165.913V163.26" style="fill:none;stroke:#687581;stroke-linecap:round;stroke-linejoin:round;stroke-width:0.5px"/><path d="M275.877,165.917H273.8a1.327,1.327,0,0,1,0-2.654h5.569a1.327,1.327,0,0,1,0,2.654h-3.5Z" style="fill:none;stroke:#687581;stroke-linecap:round;stroke-linejoin:round;stroke-width:0.5px"/><path d="M276.587,165.917v-2.654" style="fill:none;stroke:#687581;stroke-linecap:round;stroke-linejoin:round;stroke-width:0.5px"/><path d="M308.075,176.19c0-.089,0-.184,0-.288,0-2.727.027-4.789.027-5.786s-.145-2.188-4.834-2.188-92.132.033-92.132.033a365.217,365.217,0,0,1-3.051-42.682A365.217,365.217,0,0,1,211.133,82.6s87.442.033,92.132.033,4.834-1.192,4.834-2.188-.027-3.059-.027-5.786c0-.1,0-.2,0-.288" style="fill:none;stroke:#687581;stroke-linecap:round;stroke-linejoin:round;stroke-width:0.5px"/><path d="M70.555,128.093a.384.384,0,0,1-.136.117.384.384,0,0,1-.349,0,.384.384,0,0,1-.136-.117l-1.945-2.416a.645.645,0,0,1,0-.771l1.945-2.417a.384.384,0,0,1,.136-.117.384.384,0,0,1,.349,0,.384.384,0,0,1,.136.117l1.945,2.417a.641.641,0,0,1,0,.771Z" style="fill:none;stroke:#687581;stroke-linecap:round;stroke-linejoin:round;stroke-width:0.5px"/><g id="Offset_Group-4" data-name="Offset Group"><path d="M70.24,165.854c1.45,4.358,3.781,7.185,6.38,10.351l.7.854.436.536c2.575,3.16,4.112,5.08,6.624,6.217.266.12.613.286,1.046.494,3.2,1.536,10.6,5.1,17.815,5.2,3.992.055,11.954.247,19.264.424,7.086.172,13.578.329,15.193.329,3.038,0,7.082-.345,11.707-.739,6.092-.518,13.257-1.128,20.713-1.193.652.945,1.405,2.028,2.143,3.047a1.794,1.794,0,0,0,.121.174,36.748,36.748,0,0,0,4.319,5.246c2.632,2.346,4.045,2.475,6.592,2.389a5.975,5.975,0,0,0,2.777-.562,1.865,1.865,0,0,0,.756-.823,2.1,2.1,0,0,0,.125-1.245c-.129-.753-1.82-5.292-2.944-8.219,12.746-.03,37.762-.091,41.915-.126,5.205-.043,39.456-.551,44.8-.724,1.739-.056,3.517-.111,5.191-.163,3.455-.108,6.479-.2,7.785-.26l.44-.02c2.574-.118,10.147-.463,13.456-.156,3.586.334,11.275,1.525,14.046,2.025a72.716,72.716,0,0,0,15.9,1.643h33.487a63.377,63.377,0,0,0,15.068-1.6c2.5-.595,7.611-1.957,12.517-3.266,4.7-1.255,9.213-2.458,11.14-2.91a77.978,77.978,0,0,0,9.985-2.953,8.456,8.456,0,0,0,2.567-2.106,15.478,15.478,0,0,0,3.2-5.292c.836-2.774,5.289-19.093,5.289-47.142s-4.459-44.376-5.289-47.142a15.5,15.5,0,0,0-3.195-5.3,8.42,8.42,0,0,0-2.617-2.129,80.571,80.571,0,0,0-9.926-2.931c-1.914-.448-6.339-1.628-10.98-2.866-4.957-1.322-10.154-2.708-12.693-3.307a62.948,62.948,0,0,0-15.049-1.6H327.556a72.166,72.166,0,0,0-15.879,1.636c-2.8.507-10.5,1.7-14.079,2.031-3.317.308-10.926-.039-13.475-.156L283.7,63.5c-1.292-.058-4.289-.151-7.717-.258l-5.259-.165c-5.34-.173-39.6-.682-44.8-.725-4.642-.039-35.3-.111-41.915-.126,1.124-2.929,2.815-7.473,2.944-8.222a2.077,2.077,0,0,0-.125-1.242,1.859,1.859,0,0,0-.758-.823,6.053,6.053,0,0,0-2.772-.561c-2.552-.094-3.964.044-6.642,2.425a36.4,36.4,0,0,0-4.228,5.142c-.043.055-.077.105-.089.122l-.01.015c-.789,1.094-1.555,2.191-2.218,3.152-7.454-.067-14.615-.678-20.7-1.2-4.625-.395-8.669-.742-11.708-.742-1.61,0-8.061.158-15.117.331-7.33.179-15.335.375-19.34.43-7.213.1-14.617,3.665-17.817,5.2-.432.208-.779.374-1.045.494-2.519,1.14-4.059,3.063-6.652,6.245l-.407.5-.687.839c-2.6,3.173-4.941,6.008-6.4,10.378C67.824,92.262,64.9,108.9,64.9,125.28S67.824,158.29,70.24,165.854Z" style="fill:none;stroke:#687581;stroke-miterlimit:3;stroke-width:0.5px"/><path d="M70.477,165.775c1.434,4.309,3.736,7.1,6.336,10.272q.346.422.7.854l.437.536c2.585,3.173,4.086,5.039,6.533,6.147.269.122.619.289,1.051.5,3.209,1.539,10.563,5.078,17.711,5.175,3.993.055,11.957.248,19.266.424,7.089.172,13.576.329,15.187.329,3.025,0,7.057-.344,11.686-.738,6.126-.521,13.349-1.136,20.864-1.195.67.969,1.449,2.093,2.225,3.165a1.609,1.609,0,0,0,.116.166,36.471,36.471,0,0,0,4.278,5.2c2.573,2.294,3.918,2.411,6.418,2.327a5.77,5.77,0,0,0,2.656-.527,1.616,1.616,0,0,0,.658-.713,1.851,1.851,0,0,0,.106-1.1c-.13-.754-1.942-5.6-3.062-8.51,12.629-.03,38.085-.092,42.277-.127,5.2-.043,39.453-.551,44.8-.724,1.739-.056,3.517-.111,5.191-.163,3.457-.108,6.478-.2,7.782-.26l.44-.02c2.564-.118,10.159-.464,13.49-.155,3.6.335,11.294,1.527,14.075,2.03a72.541,72.541,0,0,0,15.852,1.637h33.49a63.126,63.126,0,0,0,15.008-1.6c2.5-.594,7.6-1.955,12.509-3.265,4.7-1.254,9.216-2.459,11.151-2.912a77.876,77.876,0,0,0,9.94-2.939,8.222,8.222,0,0,0,2.48-2.043,15.235,15.235,0,0,0,3.143-5.2c.829-2.753,5.278-19.048,5.278-47.07s-4.455-44.326-5.278-47.07a15.249,15.249,0,0,0-3.143-5.2,8.185,8.185,0,0,0-2.516-2.061,80.17,80.17,0,0,0-9.9-2.922c-1.919-.45-6.349-1.631-10.987-2.868-4.96-1.323-10.152-2.707-12.685-3.3a62.669,62.669,0,0,0-14.993-1.6H327.554a71.927,71.927,0,0,0-15.833,1.632c-2.806.507-10.506,1.7-14.1,2.034-3.339.31-10.97-.039-13.51-.155l-.42-.02c-1.29-.058-4.285-.151-7.713-.257-1.7-.053-3.5-.109-5.26-.166-5.337-.172-39.594-.681-44.8-.724-4.732-.039-36.519-.114-42.277-.127,1.121-2.909,2.932-7.763,3.061-8.514a1.829,1.829,0,0,0-.105-1.1,1.611,1.611,0,0,0-.659-.712,5.831,5.831,0,0,0-2.653-.527c-2.5-.091-3.847.034-6.455,2.352a36.21,36.21,0,0,0-4.21,5.122c-.037.046-.066.089-.078.107l-.014.021c-.818,1.133-1.611,2.271-2.29,3.256-7.514-.06-14.732-.677-20.855-1.2-4.629-.4-8.662-.741-11.687-.741-1.606,0-8.052.158-15.111.331-7.33.179-15.336.375-19.343.43-7.149.1-14.5,3.637-17.712,5.176-.431.207-.781.374-1.049.5-2.455,1.111-3.958,2.98-6.562,6.175l-.408.5c-.231.284-.46.563-.687.84-2.606,3.175-4.913,5.977-6.352,10.3-2.4,7.525-5.326,24.134-5.326,40.5S68.071,158.242,70.477,165.775Z" style="fill:none;stroke:#687581;stroke-miterlimit:3;stroke-width:0.5px"/><path d="M70.714,165.7c1.418,4.26,3.691,7.022,6.292,10.192q.346.422.7.855l.437.536c2.6,3.187,4.059,5,6.442,6.077.272.123.625.292,1.056.5,3.216,1.543,10.522,5.055,17.606,5.151,3.995.055,11.961.248,19.269.425,7.092.171,13.574.328,15.181.328,3.012,0,7.031-.342,11.665-.737,6.16-.524,13.441-1.144,21.015-1.2.687.994,1.493,2.158,2.307,3.284a1.676,1.676,0,0,0,.111.158,36.307,36.307,0,0,0,4.237,5.154c2.515,2.241,3.792,2.345,6.243,2.263a5.568,5.568,0,0,0,2.537-.491,1.369,1.369,0,0,0,.558-.6,1.6,1.6,0,0,0,.087-.953c-.129-.754-2.072-5.94-3.179-8.8,12.5-.029,38.407-.092,42.639-.128,5.2-.043,39.45-.551,44.792-.723,1.739-.057,3.517-.112,5.191-.164,3.458-.108,6.477-.2,7.779-.26l.439-.02c2.555-.117,10.172-.465,13.525-.153,3.607.335,11.313,1.529,14.105,2.033a72.3,72.3,0,0,0,15.8,1.632h33.493a62.861,62.861,0,0,0,14.947-1.59c2.5-.593,7.593-1.953,12.5-3.263,4.7-1.253,9.218-2.46,11.16-2.915a77.638,77.638,0,0,0,9.9-2.924,8.034,8.034,0,0,0,2.392-1.981,14.984,14.984,0,0,0,3.089-5.1c.823-2.73,5.268-19,5.268-47s-4.451-44.275-5.268-47a15.007,15.007,0,0,0-3.089-5.108,7.993,7.993,0,0,0-2.416-1.992,80,80,0,0,0-9.868-2.914c-1.923-.451-6.359-1.633-11-2.87-4.962-1.323-10.149-2.706-12.676-3.3a62.491,62.491,0,0,0-14.937-1.589h-33.5a71.739,71.739,0,0,0-15.786,1.628c-2.809.508-10.518,1.7-14.122,2.037-3.361.312-11.014-.038-13.544-.155L283.68,64c-1.288-.058-4.28-.151-7.71-.257-1.7-.053-3.5-.109-5.26-.166-5.334-.172-39.588-.681-44.792-.724-4.843-.04-38.036-.118-42.639-.128,1.107-2.863,3.05-8.054,3.179-8.806a1.59,1.59,0,0,0-.086-.948,1.355,1.355,0,0,0-.561-.6,5.611,5.611,0,0,0-2.533-.492c-2.454-.089-3.73.023-6.268,2.278a36.068,36.068,0,0,0-4.192,5.1c-.03.038-.055.074-.067.093l-.019.026c-.846,1.173-1.666,2.352-2.361,3.361-7.573-.054-14.849-.676-21.007-1.2-4.634-.4-8.654-.74-11.666-.74-1.6,0-8.043.158-15.1.331-7.33.179-15.337.375-19.346.43-7.086.1-14.393,3.609-17.608,5.151-.43.206-.782.375-1.054.5-2.391,1.083-3.856,2.9-6.471,6.106l-.408.5q-.348.426-.688.84c-2.607,3.177-4.885,5.947-6.307,10.213-2.394,7.5-5.314,24.08-5.314,40.419S68.318,158.194,70.714,165.7Z" style="fill:none;stroke:#687581;stroke-miterlimit:3;stroke-width:0.5px"/><path d="M70.951,165.617c1.4,4.211,3.645,6.941,6.249,10.112l.7.856.437.536c2.607,3.2,4.032,4.958,6.351,6.007.275.125.631.3,1.061.5,3.223,1.546,10.48,5.031,17.5,5.126,4,.055,11.964.248,19.271.425,7.095.171,13.572.328,15.175.328,3,0,7.006-.341,11.644-.736,6.195-.527,13.533-1.152,21.167-1.2.7,1.017,1.536,2.223,2.388,3.4a1.807,1.807,0,0,0,.106.151,35.963,35.963,0,0,0,4.2,5.107c2.456,2.189,3.665,2.281,6.068,2.2a5.36,5.36,0,0,0,2.416-.455,1.121,1.121,0,0,0,.46-.493,1.357,1.357,0,0,0,.068-.807c-.129-.753-2.216-6.31-3.3-9.092,12.352-.029,38.729-.093,43-.128,5.2-.044,39.447-.552,44.786-.724,1.739-.056,3.517-.112,5.192-.164,3.458-.108,6.475-.2,7.775-.259l.439-.02c2.545-.117,10.185-.467,13.559-.153,3.618.336,11.331,1.531,14.135,2.038a72.044,72.044,0,0,0,15.746,1.626h33.5a62.543,62.543,0,0,0,14.885-1.584c2.491-.591,7.584-1.95,12.5-3.261,4.694-1.252,9.221-2.46,11.17-2.917a77.357,77.357,0,0,0,9.854-2.91,7.8,7.8,0,0,0,2.3-1.917,14.751,14.751,0,0,0,3.037-5.009c.816-2.709,5.257-18.955,5.257-46.925S415.6,81.056,414.79,78.354a14.752,14.752,0,0,0-3.037-5.013,7.777,7.777,0,0,0-2.315-1.925,80,80,0,0,0-9.839-2.905c-1.928-.451-6.369-1.636-11-2.871-4.964-1.324-10.147-2.706-12.668-3.3a62.264,62.264,0,0,0-14.881-1.583h-33.5a71.561,71.561,0,0,0-15.74,1.624c-2.812.508-10.528,1.7-14.143,2.04-3.383.314-11.058-.038-13.579-.154l-.419-.019c-1.286-.058-4.276-.151-7.707-.257-1.695-.053-3.5-.109-5.26-.166-5.33-.172-39.582-.681-44.786-.724-5-.042-40.295-.123-43-.129,1.082-2.783,3.169-8.346,3.3-9.1a1.346,1.346,0,0,0-.067-.8,1.121,1.121,0,0,0-.462-.491,5.414,5.414,0,0,0-2.414-.456c-2.4-.088-3.613.011-6.081,2.2a35.991,35.991,0,0,0-4.174,5.081c-.024.03-.044.059-.057.079l-.022.031c-.875,1.214-1.723,2.434-2.434,3.466-7.631-.048-14.966-.675-21.158-1.2-4.639-.4-8.646-.739-11.645-.739-1.6,0-8.034.158-15.1.331-7.329.179-15.338.375-19.349.43-7.022.1-14.281,3.581-17.5,5.127-.429.2-.784.376-1.059.5-2.327,1.053-3.754,2.813-6.381,6.036l-.407.5c-.232.285-.462.564-.689.841-2.608,3.179-4.857,5.916-6.262,10.13-2.385,7.469-5.3,24.026-5.3,40.343S68.565,158.146,70.951,165.617Z" style="fill:none;stroke:#687581;stroke-miterlimit:3;stroke-width:0.5px"/></g><path d="M71.189,165.538c1.507,4.53,4,7.326,6.905,10.889s4.322,5.4,6.7,6.473,10.581,5.5,18.463,5.606,31.2.753,34.443.753c6.992,0,19.511-1.864,32.934-1.935h.008c.717,1.039,1.579,2.286,2.469,3.519.031.05.065.1.1.144a35.737,35.737,0,0,0,4.156,5.06c2.4,2.137,3.539,2.216,5.894,2.137s2.864-.552,2.706-1.462c-.13-.753-2.376-6.725-3.417-9.385,12.189-.028,39.051-.093,43.365-.128,5.2-.044,39.445-.552,44.78-.724s11.038-.337,12.963-.423,10.409-.509,14.033-.172,11.35,1.534,14.165,2.043a71.8,71.8,0,0,0,15.693,1.62h33.5a62.33,62.33,0,0,0,14.824-1.577c4.861-1.154,19.664-5.24,23.67-6.179a77.158,77.158,0,0,0,9.81-2.9c1.493-.638,4.389-4.079,5.2-6.768s5.246-18.91,5.246-46.853-4.442-44.173-5.246-46.855-3.706-6.136-5.2-6.774a79.422,79.422,0,0,0-9.81-2.9c-4.006-.939-18.809-5.025-23.67-6.172a61.971,61.971,0,0,0-14.824-1.577h-33.5a71.312,71.312,0,0,0-15.693,1.62c-2.815.509-10.54,1.705-14.165,2.043s-12.116-.086-14.033-.172-7.638-.251-12.963-.423-39.576-.681-44.78-.724-43.164-.129-43.164-.129h-.2c1.041-2.66,3.287-8.639,3.417-9.391.158-.9-.352-1.369-2.706-1.455s-3.5,0-5.894,2.129a35.8,35.8,0,0,0-4.156,5.061c-.029.036-.051.071-.072.1-.905,1.255-1.781,2.516-2.506,3.57-13.423-.072-25.942-1.943-32.934-1.943-3.245,0-26.561.653-34.443.76s-16.087,4.531-18.463,5.606-3.79,2.9-6.7,6.466-5.4,6.366-6.905,10.889C68.813,92.454,65.9,108.985,65.9,125.28S68.813,158.1,71.189,165.538Z" style="fill:none;stroke:#687581;stroke-miterlimit:3;stroke-width:0.5px"/><path d="M179.148,73.682l-2.715-4.208" style="fill:none;stroke:#687581;stroke-linecap:round;stroke-linejoin:round;stroke-width:0.5px"/><path d="M179.148,176.876l-2.715,4.209" style="fill:none;stroke:#687581;stroke-linecap:round;stroke-linejoin:round;stroke-width:0.5px"/><path d="M322.588,95.464h79.659" style="fill:none;stroke:#687581;stroke-linecap:round;stroke-linejoin:round;stroke-width:0.5px"/><line x1="322.588" y1="105.402" x2="402.247" y2="105.402" style="fill:none;stroke:#687581;stroke-linecap:round;stroke-linejoin:round;stroke-width:0.5px"/><line x1="322.588" y1="115.341" x2="402.247" y2="115.341" style="fill:none;stroke:#687581;stroke-linecap:round;stroke-linejoin:round;stroke-width:0.5px"/><line x1="322.588" y1="125.279" x2="402.247" y2="125.279" style="fill:none;stroke:#687581;stroke-linecap:round;stroke-linejoin:round;stroke-width:0.5px"/><line x1="322.588" y1="135.218" x2="402.247" y2="135.218" style="fill:none;stroke:#687581;stroke-linecap:round;stroke-linejoin:round;stroke-width:0.5px"/><line x1="322.588" y1="145.156" x2="402.247" y2="145.156" style="fill:none;stroke:#687581;stroke-linecap:round;stroke-linejoin:round;stroke-width:0.5px"/><path d="M322.588,155.094h79.659" style="fill:none;stroke:#687581;stroke-linecap:round;stroke-linejoin:round;stroke-width:0.5px"/></g><g id="above"><rect x="302.099" y="119.478" width="12.966" height="11.261" style="fill:none;stroke:#12171d;stroke-width:5px"/><rect x="302.099" y="119.478" width="12.966" height="11.261" style="fill:none;stroke:#12171d;stroke-width:5px"/><polygon points="319.843 129.374 318.647 129.374 315.065 127.326 315.065 122.89 318.647 120.843 319.843 120.843 319.843 129.374" style="fill:none;stroke:#12171d;stroke-width:5px"/><polygon points="319.843 129.374 318.647 129.374 315.065 127.326 315.065 122.89 318.647 120.843 319.843 120.843 319.843 129.374" style="fill:none;stroke:#12171d;stroke-width:5px"/><path d="M308.582,126.3a1.024,1.024,0,1,0-1.024-1.024A1.025,1.025,0,0,0,308.582,126.3Z" style="fill:none;stroke:#12171d;stroke-width:5px"/><rect x="302.099" y="119.478" width="12.966" height="11.261" style="fill:#f4ae3d"/><rect x="302.099" y="119.478" width="12.966" height="11.261" style="fill:none;stroke:#12171d;stroke-miterlimit:10;stroke-width:1.5px"/><polygon points="319.843 129.374 318.647 129.374 315.065 127.326 315.065 122.89 318.647 120.843 319.843 120.843 319.843 129.374" style="fill:#f4ae3d"/><polygon points="319.843 129.374 318.647 129.374 315.065 127.326 315.065 122.89 318.647 120.843 319.843 120.843 319.843 129.374" style="fill:none;stroke:#12171d;stroke-miterlimit:10;stroke-width:1.5px"/><path d="M308.582,126.3a1.024,1.024,0,1,0-1.024-1.024A1.025,1.025,0,0,0,308.582,126.3Z" style="fill:#12171d"/><rect x="175.08" y="52.678" width="11.261" height="12.966" style="fill:none;stroke:#12171d;stroke-width:5px"/><rect x="175.08" y="52.678" width="11.261" height="12.966" style="fill:none;stroke:#12171d;stroke-width:5px"/><polygon points="184.975 47.9 184.975 49.096 182.928 52.678 178.492 52.678 176.445 49.096 176.445 47.9 184.975 47.9" style="fill:none;stroke:#12171d;stroke-width:5px"/><polygon points="184.975 47.9 184.975 49.096 182.928 52.678 178.492 52.678 176.445 49.096 176.445 47.9 184.975 47.9" style="fill:none;stroke:#12171d;stroke-width:5px"/><path d="M181.9,59.161a1.024,1.024,0,1,0-1.023,1.024A1.023,1.023,0,0,0,181.9,59.161Z" style="fill:none;stroke:#12171d;stroke-width:5px"/><rect x="175.08" y="52.678" width="11.261" height="12.966" style="fill:#f4ae3d"/><rect x="175.08" y="52.678" width="11.261" height="12.966" style="fill:none;stroke:#12171d;stroke-miterlimit:10;stroke-width:1.5px"/><polygon points="184.975 47.9 184.975 49.096 182.928 52.678 178.492 52.678 176.445 49.096 176.445 47.9 184.975 47.9" style="fill:#f4ae3d"/><polygon points="184.975 47.9 184.975 49.096 182.928 52.678 178.492 52.678 176.445 49.096 176.445 47.9 184.975 47.9" style="fill:none;stroke:#12171d;stroke-miterlimit:10;stroke-width:1.5px"/><path d="M181.9,59.161a1.024,1.024,0,1,0-1.023,1.024A1.023,1.023,0,0,0,181.9,59.161Z" style="fill:#12171d"/><rect x="175.08" y="184.914" width="11.261" height="12.966" style="fill:none;stroke:#12171d;stroke-width:5px"/><rect x="175.08" y="184.914" width="11.261" height="12.966" style="fill:none;stroke:#12171d;stroke-width:5px"/><polygon points="176.445 202.658 176.445 201.462 178.492 197.88 182.928 197.88 184.975 201.462 184.975 202.658 176.445 202.658" style="fill:none;stroke:#12171d;stroke-width:5px"/><polygon points="176.445 202.658 176.445 201.462 178.492 197.88 182.928 197.88 184.975 201.462 184.975 202.658 176.445 202.658" style="fill:none;stroke:#12171d;stroke-width:5px"/><path d="M180.881,190.373A1.025,1.025,0,1,0,181.9,191.4,1.024,1.024,0,0,0,180.881,190.373Z" style="fill:none;stroke:#12171d;stroke-width:5px"/><rect x="175.08" y="184.914" width="11.261" height="12.966" style="fill:#f4ae3d"/><rect x="175.08" y="184.914" width="11.261" height="12.966" style="fill:none;stroke:#12171d;stroke-miterlimit:10;stroke-width:1.5px"/><polygon points="176.445 202.658 176.445 201.462 178.492 197.88 182.928 197.88 184.975 201.462 184.975 202.658 176.445 202.658" style="fill:#f4ae3d"/><polygon points="176.445 202.658 176.445 201.462 178.492 197.88 182.928 197.88 184.975 201.462 184.975 202.658 176.445 202.658" style="fill:none;stroke:#12171d;stroke-miterlimit:10;stroke-width:1.5px"/><path d="M180.881,190.373A1.025,1.025,0,1,0,181.9,191.4,1.024,1.024,0,0,0,180.881,190.373Z" style="fill:#12171d"/><rect x="406.66" y="119.478" width="12.966" height="11.261" style="fill:none;stroke:#12171d;stroke-width:5px"/><rect x="406.66" y="119.478" width="12.966" height="11.261" style="fill:none;stroke:#12171d;stroke-width:5px"/><polygon points="424.404 129.374 423.208 129.374 419.626 127.326 419.626 122.89 423.208 120.843 424.404 120.843 424.404 129.374" style="fill:none;stroke:#12171d;stroke-width:5px"/><polygon points="424.404 129.374 423.208 129.374 419.626 127.326 419.626 122.89 423.208 120.843 424.404 120.843 424.404 129.374" style="fill:none;stroke:#12171d;stroke-width:5px"/><path d="M413.143,126.3a1.024,1.024,0,1,0-1.024-1.024A1.025,1.025,0,0,0,413.143,126.3Z" style="fill:none;stroke:#12171d;stroke-width:5px"/><rect x="406.66" y="119.478" width="12.966" height="11.261" style="fill:#f4ae3d"/><rect x="406.66" y="119.478" width="12.966" height="11.261" style="fill:none;stroke:#12171d;stroke-miterlimit:10;stroke-width:1.5px"/><polygon points="424.404 129.374 423.208 129.374 419.626 127.326 419.626 122.89 423.208 120.843 424.404 120.843 424.404 129.374" style="fill:#f4ae3d"/><polygon points="424.404 129.374 423.208 129.374 419.626 127.326 419.626 122.89 423.208 120.843 424.404 120.843 424.404 129.374" style="fill:none;stroke:#12171d;stroke-miterlimit:10;stroke-width:1.5px"/><path d="M413.143,126.3a1.024,1.024,0,1,0-1.024-1.024A1.025,1.025,0,0,0,413.143,126.3Z" style="fill:#12171d"/><rect x="69.573" y="119.478" width="12.966" height="11.261" style="fill:none;stroke:#12171d;stroke-width:5px"/><rect x="69.573" y="119.478" width="12.966" height="11.261" style="fill:none;stroke:#12171d;stroke-width:5px"/><polygon points="64.795 120.843 65.991 120.843 69.573 122.89 69.573 127.326 65.991 129.374 64.795 129.374 64.795 120.843" style="fill:none;stroke:#12171d;stroke-width:5px"/><polygon points="64.795 120.843 65.991 120.843 69.573 122.89 69.573 127.326 65.991 129.374 64.795 129.374 64.795 120.843" style="fill:none;stroke:#12171d;stroke-width:5px"/><path d="M77.08,125.279a1.024,1.024,0,1,0-1.024,1.024A1.024,1.024,0,0,0,77.08,125.279Z" style="fill:none;stroke:#12171d;stroke-width:5px"/><rect x="69.573" y="119.478" width="12.966" height="11.261" style="fill:#f4ae3d"/><rect x="69.573" y="119.478" width="12.966" height="11.261" style="fill:none;stroke:#12171d;stroke-miterlimit:10;stroke-width:1.5px"/><polygon points="64.795 120.843 65.991 120.843 69.573 122.89 69.573 127.326 65.991 129.374 64.795 129.374 64.795 120.843" style="fill:#f4ae3d"/><polygon points="64.795 120.843 65.991 120.843 69.573 122.89 69.573 127.326 65.991 129.374 64.795 129.374 64.795 120.843" style="fill:none;stroke:#12171d;stroke-miterlimit:10;stroke-width:1.5px"/><path d="M77.08,125.279a1.024,1.024,0,1,0-1.024,1.024A1.024,1.024,0,0,0,77.08,125.279Z" style="fill:#12171d"/></g></svg>
