<svg xmlns="http://www.w3.org/2000/svg" xmlns:xlink="http://www.w3.org/1999/xlink" width="162.186" height="162.499" viewBox="0 0 162.186 162.499"><defs><linearGradient id="linear-gradient" x1="142.275" y1="119.213" x2="152.738" y2="121.225" gradientTransform="matrix(0.958, -0.286, 0.286, 0.958, -26.775, 31.861)" gradientUnits="userSpaceOnUse"><stop offset="0" stop-color="#12171d"/><stop offset="1" stop-color="#12171d" stop-opacity="0"/></linearGradient><linearGradient id="linear-gradient-2" x1="115.96" y1="146.591" x2="120.061" y2="158.934" gradientUnits="userSpaceOnUse"><stop offset="0.316" stop-color="#f4ae3d"/><stop offset="1" stop-color="#f4ae3d" stop-opacity="0"/></linearGradient></defs><g id="below"><path d="M99.015,42.956l.012-.022-2.785-1.3a7.076,7.076,0,0,0-3.235-.462L50.025,43.046a11.158,11.158,0,0,0-6.561,2.638A14.452,14.452,0,0,0,38.989,52.2a15.2,15.2,0,0,0-.823,5.027v48.856c.056,4.306,2.052,8.161,5.411,10.044l2.142,1.082.011-.011a7.392,7.392,0,0,0,1.105.473,9.493,9.493,0,0,0,5.106.293l42.96-9.052a12.4,12.4,0,0,0,8.77-8.341,14.073,14.073,0,0,0,.778-4.69V52.5C104.393,48.333,102.375,44.613,99.015,42.956Z" style="fill:#404d59"/></g><g id="illustration"><line x1="149.572" y1="125.709" x2="24.482" y2="160.804" style="fill:none;stroke:#687581;stroke-linecap:round;stroke-linejoin:round;stroke-width:0.5px"/><path d="M157.751,7.575l-93.6-5.157c-.914-.054-1.845-.081-2.777-.081-34.814,0-58.2,28.806-58.2,71.678v84.442" style="fill:none;stroke:#687581;stroke-linecap:round;stroke-linejoin:round;stroke-width:0.5px"/><path d="M15.259,146.042V70.609c0-21.959,14.793-39.824,32.977-39.824l109.655-2.121" style="fill:none;stroke:#687581;stroke-linecap:round;stroke-linejoin:round;stroke-width:0.5px"/><path d="M147.073,13.828c-4.575,2.074-7.52,5.44-6.578,7.519.477,1.053,1.861,1.573,3.7,1.561h15.853" style="fill:none;stroke:#687581;stroke-linecap:round;stroke-linejoin:round;stroke-width:0.5px"/><path d="M159.678,24.687l-15.386.078c-2.346.032-4.109-.618-4.712-1.95-1.177-2.6,2.5-6.8,8.219-9.4a19.3,19.3,0,0,1,8.49-1.927l4.427.122" style="fill:none;stroke:#687581;stroke-linecap:round;stroke-linejoin:round;stroke-width:0.5px"/><path d="M98.193,42.714a8.457,8.457,0,0,0-3.458-.51L51.763,44.083h0c-4.652.2-9.179,3.757-11.036,9.144a14.916,14.916,0,0,0-.826,5.026V107.12c.049,4.3,2.05,8.158,5.411,10.041" style="fill:none;stroke:#aebbc7;stroke-linecap:round;stroke-linejoin:round;stroke-width:0.5px"/><path d="M50.325,116.191a6.386,6.386,0,0,1-2.082-.346c-2.949-1.017-4.883-4.141-4.926-7.961V58.217a12,12,0,0,1,.668-3.94c1.4-4.069,4.847-7.019,8.378-7.172L95.946,45.2c.092,0,.179-.006.267-.006a5.718,5.718,0,0,1,1.869.312c2.665.919,4.413,3.756,4.453,7.228V96.819a11.012,11.012,0,0,1-.612,3.615c-1.135,3.291-3.723,5.81-6.6,6.415l-43.571,9.19A6.968,6.968,0,0,1,50.325,116.191Z" style="fill:none;stroke:#aebbc7;stroke-linecap:round;stroke-linejoin:round;stroke-width:0.5px"/><path d="M100.671,82.245V96.606c.01,4.385-3.09,7.334-5.418,7.823L51.827,113.62c-3.435.717-5.681-2.353-5.721-5.974V90.586" style="fill:none;stroke:#aebbc7;stroke-linecap:round;stroke-linejoin:round;stroke-width:0.5px"/><path d="M50.029,43.22l4.831.727.844,3.012c0,2.824-1.126,3.16-2.779,3.16-2.558.11-5.2,2.468-6.279,5.6a9.7,9.7,0,0,0-.541,3.182V90.586c0,3.5,2.245,6.611,5.634,5.905L95.312,90c3.84-.573,5.374-3.411,5.359-7.754v-28.8c-.031-2.663-1.439-5.24-4-5.24a1.317,1.317,0,0,1-1.392-1.316V45.227l-1.252-2.993-3.118-.8" style="fill:none;stroke:#aebbc7;stroke-linecap:round;stroke-linejoin:round;stroke-width:0.5px"/><g id="Offset_Group" data-name="Offset Group"><path d="M46.506,118.617a10.513,10.513,0,0,0,5.635.327l42.96-9.061a12.005,12.005,0,0,0,5.43-2.8,14.569,14.569,0,0,0,4.086-6.189,14.943,14.943,0,0,0,.826-4.862v-.971c0-5.97,0-42.563,0-42.574a12.873,12.873,0,0,0-1.888-6.687,10.219,10.219,0,0,0-4.1-3.767s-1.807-.866-2.8-1.31a8.067,8.067,0,0,0-3.695-.554L49.984,42.05A12.114,12.114,0,0,0,43.3,44.533a15.37,15.37,0,0,0-5.257,7.334,15.942,15.942,0,0,0-.881,5.19v.163s0,48.866,0,48.877a13.784,13.784,0,0,0,1.858,6.879,11.028,11.028,0,0,0,4.124,4.055l3.305,1.568Z" style="fill:none;stroke:#aebbc7;stroke-linecap:round;stroke-linejoin:round;stroke-width:0.5px"/><path d="M46.587,118.381a10.282,10.282,0,0,0,5.5.319l42.96-9.061a11.756,11.756,0,0,0,5.315-2.741,14.327,14.327,0,0,0,4.015-6.084,14.666,14.666,0,0,0,.813-4.78v-.728c0-5.132,0-42.806,0-42.814a12.624,12.624,0,0,0-1.85-6.557,9.972,9.972,0,0,0-4-3.675s-1.805-.864-2.794-1.307a7.843,7.843,0,0,0-3.583-.532L50,42.3a11.867,11.867,0,0,0-6.543,2.433,15.123,15.123,0,0,0-5.169,7.216,15.661,15.661,0,0,0-.868,5.108v.163s0,48.866,0,48.875a13.543,13.543,0,0,0,1.823,6.754,10.777,10.777,0,0,0,4.016,3.956S46.51,118.349,46.587,118.381Z" style="fill:none;stroke:#aebbc7;stroke-linecap:round;stroke-linejoin:round;stroke-width:0.5px"/><path d="M46.669,118.144a10.015,10.015,0,0,0,5.369.311L95,109.394a11.513,11.513,0,0,0,5.2-2.683,14.075,14.075,0,0,0,3.944-5.978,14.446,14.446,0,0,0,.8-4.7v-.486c0-4.02,0-43.047,0-43.053a12.362,12.362,0,0,0-1.812-6.427,9.708,9.708,0,0,0-3.895-3.582s-1.8-.864-2.788-1.3a7.6,7.6,0,0,0-3.47-.511L50.006,42.55a11.613,11.613,0,0,0-6.4,2.384,14.867,14.867,0,0,0-5.083,7.1,15.445,15.445,0,0,0-.854,5.027v.163s0,48.866,0,48.872a13.286,13.286,0,0,0,1.788,6.629,10.515,10.515,0,0,0,3.908,3.858S46.618,118.123,46.669,118.144Z" style="fill:none;stroke:#aebbc7;stroke-linecap:round;stroke-linejoin:round;stroke-width:0.5px"/><path d="M46.75,117.908a9.772,9.772,0,0,0,5.236.3l42.96-9.061a11.248,11.248,0,0,0,5.088-2.626,13.829,13.829,0,0,0,3.874-5.872,14.189,14.189,0,0,0,.785-4.617v-.243c0-2.19,0-43.29,0-43.293a12.122,12.122,0,0,0-1.773-6.3,9.463,9.463,0,0,0-3.792-3.49s-1.8-.862-2.782-1.3a7.351,7.351,0,0,0-3.357-.489L50.017,42.8a11.368,11.368,0,0,0-6.266,2.335,14.622,14.622,0,0,0-5,6.978,15.188,15.188,0,0,0-.84,4.945v49.032a13.046,13.046,0,0,0,1.753,6.5,10.257,10.257,0,0,0,3.8,3.759Z" style="fill:none;stroke:#aebbc7;stroke-linecap:round;stroke-linejoin:round;stroke-width:0.5px"/></g><path d="M104.443,96.034v-.152a13.911,13.911,0,0,1-.771,4.688,12.418,12.418,0,0,1-8.776,8.335l-42.96,9.061a9.537,9.537,0,0,1-5.1-.294l-3.256-1.545c-3.36-1.883-5.361-5.739-5.41-10.041V57.22a14.9,14.9,0,0,1,.826-5.027c1.856-5.387,6.384-8.94,11.035-9.144h0L93,41.17a7.1,7.1,0,0,1,3.243.467c.979.438,2.777,1.3,2.777,1.3h0c3.361,1.672,5.375,5.393,5.423,9.564Z" style="fill:none;stroke:#aebbc7;stroke-linecap:round;stroke-linejoin:round;stroke-width:0.5px"/><path d="M63.541,106.591a2.542,2.542,0,0,1-2.088,2.356l-3.266.582A1.69,1.69,0,0,1,56.06,107.9V99.93a2.521,2.521,0,0,1,2.127-2.345l3.266-.514a1.7,1.7,0,0,1,2.088,1.656Z" style="fill:none;stroke:#aebbc7;stroke-linecap:round;stroke-linejoin:round;stroke-width:0.5px"/><path d="M60.9,104.52a1.292,1.292,0,0,1-1.07,1.2.859.859,0,0,1-1.074-.833V102.04a1.283,1.283,0,0,1,1.074-1.193.864.864,0,0,1,1.07.839Z" style="fill:none;stroke:#aebbc7;stroke-linecap:round;stroke-linejoin:round;stroke-width:0.5px"/><path d="M71.307,102a.646.646,0,0,1-.535.6.431.431,0,0,1-.537-.417v-1.422a.641.641,0,0,1,.537-.6.431.431,0,0,1,.535.419Z" style="fill:none;stroke:#aebbc7;stroke-linecap:round;stroke-linejoin:round;stroke-width:0.5px"/><path d="M75.128,101.315a.646.646,0,0,1-.534.6.429.429,0,0,1-.537-.416v-1.422a.642.642,0,0,1,.537-.6.432.432,0,0,1,.534.42Z" style="fill:none;stroke:#aebbc7;stroke-linecap:round;stroke-linejoin:round;stroke-width:0.5px"/><path d="M87.158,92.943a1.863,1.863,0,0,1,.134.722v7.52a2.772,2.772,0,0,1-1.566,2.482l-2.45.915c-.88.328-1.595-.265-1.595-1.326" style="fill:none;stroke:#aebbc7;stroke-linecap:round;stroke-linejoin:round;stroke-width:0.5px"/><path d="M88.517,102.064a2.373,2.373,0,0,1-1.908,2.237l-2.985.531a1.576,1.576,0,0,1-1.943-1.576V95.642a2.351,2.351,0,0,1,1.943-2.227l2.985-.469a1.585,1.585,0,0,1,1.908,1.6Z" style="fill:none;stroke:#aebbc7;stroke-linecap:round;stroke-linejoin:round;stroke-width:0.5px"/><path d="M85.307,99.5a1.405,1.405,0,0,1-.8,1.263c-.445.163-.805-.141-.805-.678V97.362A1.393,1.393,0,0,1,84.5,96.1c.444-.157.8.149.8.685Z" style="fill:none;stroke:#aebbc7;stroke-linecap:round;stroke-linejoin:round;stroke-width:0.5px"/><line x1="83.699" y1="98.728" x2="85.307" y2="98.135" style="fill:none;stroke:#aebbc7;stroke-linecap:round;stroke-linejoin:round;stroke-width:0.5px"/><line x1="58.751" y1="103.47" x2="60.895" y2="103.096" style="fill:none;stroke:#aebbc7;stroke-linecap:round;stroke-linejoin:round;stroke-width:0.5px"/><line x1="76.366" y1="100.398" x2="80.528" y2="99.672" style="fill:none;stroke:#aebbc7;stroke-linecap:round;stroke-linejoin:round;stroke-width:0.5px"/><line x1="65.105" y1="102.361" x2="69.211" y2="101.645" style="fill:none;stroke:#aebbc7;stroke-linecap:round;stroke-linejoin:round;stroke-width:0.5px"/></g><g id="above"><path d="M99.381,103.165l-1.581,3.85a1.911,1.911,0,0,0-.093,1.162l1.1,4.679a1.719,1.719,0,0,0,.724,1.041c3.07,2.035,3.65,3.4,4.624,2.5.59-.546.628-1.821-.991-3.6a5.2,5.2,0,0,0-1.565-1.23l-.345-3.447,2.67-2.882" style="fill:#12171d"/><g id="Offset_Group-2" data-name="Offset Group"><path d="M98.918,102.975l-1.581,3.85a2.421,2.421,0,0,0-.117,1.466l1.1,4.679a2.219,2.219,0,0,0,.935,1.344,27.952,27.952,0,0,1,2.366,1.772c.672.548,1.313,1.114,1.968,1.093a1.384,1.384,0,0,0,.905-.415,1.72,1.72,0,0,0,.532-1.215,4.611,4.611,0,0,0-1.492-3.089,6.389,6.389,0,0,0-1.464-1.208l-.3-2.958,2.518-2.717" style="fill:none;stroke:#aebbc7;stroke-linecap:round;stroke-linejoin:round;stroke-width:0.5px"/><path d="M99.15,103.07l-1.581,3.85a2.159,2.159,0,0,0-.105,1.314l1.1,4.679a1.976,1.976,0,0,0,.83,1.193,28.164,28.164,0,0,1,2.386,1.786c.716.584,1.266,1.054,1.8,1.038a1.148,1.148,0,0,0,.743-.349,1.476,1.476,0,0,0,.451-1.043,4.374,4.374,0,0,0-1.427-2.91,5.948,5.948,0,0,0-1.515-1.223l-.32-3.2,2.593-2.8" style="fill:none;stroke:#aebbc7;stroke-linecap:round;stroke-linejoin:round;stroke-width:0.5px"/></g><path d="M99.381,103.165l-1.581,3.85a1.911,1.911,0,0,0-.093,1.162l1.1,4.679a1.719,1.719,0,0,0,.724,1.041c3.07,2.035,3.65,3.4,4.624,2.5.59-.546.628-1.821-.991-3.6a5.2,5.2,0,0,0-1.565-1.23l-.345-3.447,2.67-2.882" style="fill:none;stroke:#aebbc7;stroke-linecap:round;stroke-linejoin:round;stroke-width:0.5px"/><path d="M97.62,99.7,95.6,103.573a2.343,2.343,0,0,0-.338,1.563l.639,5.074a2.893,2.893,0,0,0,.456,1.218c2.258,3.386,2.252,5.026,3.62,4.532.824-.3,1.4-1.56.534-4.032a5.672,5.672,0,0,0-1.049-1.9l-.38-4.746,3.222-2.817" style="fill:#12171d"/><g id="Offset_Group-3" data-name="Offset Group"><path d="M97.177,99.472s-2.022,3.869-2,3.834a2.848,2.848,0,0,0-.412,1.893s.64,5.074.64,5.078a3.412,3.412,0,0,0,.536,1.428,30.238,30.238,0,0,1,1.665,2.847c.447.845.842,1.662,1.488,1.911a1.462,1.462,0,0,0,1.053-.033,1.828,1.828,0,0,0,1.023-.971,4.975,4.975,0,0,0-.188-3.7,6.733,6.733,0,0,0-1.034-1.93l-.347-4.338,3.032-2.651" style="fill:none;stroke:#aebbc7;stroke-linecap:round;stroke-linejoin:round;stroke-width:0.5px"/><path d="M97.4,99.588s-2.023,3.869-2.012,3.852a2.583,2.583,0,0,0-.375,1.727l.639,5.077a3.157,3.157,0,0,0,.5,1.323,30.577,30.577,0,0,1,1.678,2.868c.473.894.821,1.588,1.357,1.8a1.219,1.219,0,0,0,.878-.035,1.58,1.58,0,0,0,.882-.843,4.739,4.739,0,0,0-.2-3.507,6.288,6.288,0,0,0-1.041-1.917l-.363-4.539,3.126-2.734" style="fill:none;stroke:#aebbc7;stroke-linecap:round;stroke-linejoin:round;stroke-width:0.5px"/></g><path d="M97.62,99.7,95.6,103.573a2.343,2.343,0,0,0-.338,1.563l.639,5.074a2.893,2.893,0,0,0,.456,1.218c2.258,3.386,2.252,5.026,3.62,4.532.824-.3,1.4-1.56.534-4.032a5.672,5.672,0,0,0-1.049-1.9l-.38-4.746,3.222-2.817" style="fill:none;stroke:#aebbc7;stroke-linecap:round;stroke-linejoin:round;stroke-width:0.5px"/><path d="M99.54,97.2l-3.763,1.987a2.319,2.319,0,0,0-1.094,1.25L93,104.982a2.954,2.954,0,0,0-.166,1.356c.485,4.3-.33,5.8,1.22,6.071.933.166,2.11-.682,2.5-3.405a5.914,5.914,0,0,0-.064-2.293l1.762-4.772,4.686-.636" style="fill:#12171d"/><g id="Offset_Group-4" data-name="Offset Group"><path d="M99.307,96.757l-3.763,1.987a2.822,2.822,0,0,0-1.33,1.518l-1.679,4.547a3.462,3.462,0,0,0-.194,1.586,32,32,0,0,1,.186,3.492,4.081,4.081,0,0,0,.455,2.5,1.6,1.6,0,0,0,.989.515,1.82,1.82,0,0,0,.931-.08,2.358,2.358,0,0,0,.988-.7,5.9,5.9,0,0,0,1.163-3.042,7.009,7.009,0,0,0-.038-2.33l1.606-4.351,4.388-.595" style="fill:none;stroke:#aebbc7;stroke-linecap:round;stroke-linejoin:round;stroke-width:0.5px"/><path d="M99.423,96.978l-3.762,1.987a2.574,2.574,0,0,0-1.213,1.384L92.769,104.9a3.219,3.219,0,0,0-.179,1.472,32.347,32.347,0,0,1,.187,3.517,3.906,3.906,0,0,0,.395,2.34,1.352,1.352,0,0,0,.842.431,1.575,1.575,0,0,0,.805-.07,2.1,2.1,0,0,0,.882-.632,5.652,5.652,0,0,0,1.105-2.913,6.543,6.543,0,0,0-.051-2.315l1.683-4.559,4.537-.615" style="fill:none;stroke:#aebbc7;stroke-linecap:round;stroke-linejoin:round;stroke-width:0.5px"/></g><path d="M99.54,97.2l-3.763,1.987a2.319,2.319,0,0,0-1.094,1.25L93,104.982a2.954,2.954,0,0,0-.166,1.356c.485,4.3-.33,5.8,1.22,6.071.933.166,2.11-.682,2.5-3.405a5.914,5.914,0,0,0-.064-2.293l1.762-4.772,4.686-.636" style="fill:none;stroke:#aebbc7;stroke-linecap:round;stroke-linejoin:round;stroke-width:0.5px"/><path d="M157.432,100.5l-9.56.447c-9.973.466-24.99,2.064-29.854,1.173a5.337,5.337,0,0,1-1.973-.988c-5.558-3.839-6.3-4.3-9.5-6.328-.878-.557-1.757-1.462-2.32-1.768a1.916,1.916,0,0,0-1.946-.093h0l-7.454,2.583a2.314,2.314,0,0,0-1,.675l-3.352,3.69a2.683,2.683,0,0,0-.637,2.37c.8,3.715.322,5.139,1.81,5.216,2.426.126,2.09-3.96,2.082-5.414l2.344-2.54,3.629.431s1.719,3.17,2.874,5.634c1.417,3.023,1.755,5.946,5.253,7.423,2.932,1.239,6.326,2.588,9.111,2.412,1.261-.08,13.567,2.761,34.987,5.055l4.85.52" style="fill:url(#linear-gradient)"/><g id="Offset_Group-5" data-name="Offset Group"><path d="M157.409,100l-9.56.447c-3.043.142-6.552.389-10.093.639-8.14.573-16.345,1.146-19.647.541a4.882,4.882,0,0,1-1.78-.907c-5.369-3.709-6.254-4.271-9.191-6.133l-.326-.206a12.416,12.416,0,0,1-1.249-.96,7.975,7.975,0,0,0-1.1-.826,2.394,2.394,0,0,0-2.349-.125L94.66,95.048a2.82,2.82,0,0,0-1.2.812l-3.352,3.689a3.181,3.181,0,0,0-.755,2.812c.245,1.138.368,2.057.467,2.8a4.08,4.08,0,0,0,.76,2.424,1.607,1.607,0,0,0,1.045.39,2.059,2.059,0,0,0,1.371-.39,3.056,3.056,0,0,0,1.026-1.784,13.341,13.341,0,0,0,.219-3.288c0-.093,0-.179,0-.259l2.036-2.206,3.117.37c.412.767,1.774,3.324,2.738,5.38.3.642.553,1.282.8,1.919a11.841,11.841,0,0,0,2.325,4.162,7.134,7.134,0,0,0,2.382,1.591c2.905,1.227,6.413,2.635,9.337,2.45.314-.02,1.676.216,4.2.662,5.477.966,15.923,2.809,30.7,4.391l4.85.52" style="fill:none;stroke:#aebbc7;stroke-linecap:round;stroke-linejoin:round;stroke-width:0.5px"/><path d="M157.421,100.245l-9.561.447c-3.039.142-6.545.389-10.086.639-8.117.572-16.368,1.151-19.711.538a5.113,5.113,0,0,1-1.876-.948c-5.366-3.707-6.249-4.267-9.183-6.127l-.326-.206a12.689,12.689,0,0,1-1.275-.979,7.722,7.722,0,0,0-1.059-.8,2.442,2.442,0,0,0-1.054-.341,2.473,2.473,0,0,0-1.094.232l-7.454,2.582a2.575,2.575,0,0,0-1.1.744l-3.352,3.69a2.933,2.933,0,0,0-.7,2.591c.248,1.148.372,2.075.471,2.816.142,1.06.234,1.861.681,2.273a1.356,1.356,0,0,0,.889.324,1.8,1.8,0,0,0,1.209-.341,2.817,2.817,0,0,0,.933-1.642,13.16,13.16,0,0,0,.211-3.223c0-.132,0-.253-.007-.361l2.19-2.373,3.374.4c.316.587,1.783,3.326,2.8,5.507.305.651.56,1.3.811,1.934a11.616,11.616,0,0,0,2.271,4.079,6.894,6.894,0,0,0,2.3,1.535c2.918,1.233,6.369,2.611,9.223,2.431a41.612,41.612,0,0,1,4.264.665c5.475.966,15.914,2.807,30.682,4.389l4.849.519" style="fill:none;stroke:#aebbc7;stroke-linecap:round;stroke-linejoin:round;stroke-width:0.5px"/></g><path d="M157.432,100.5l-9.56.447c-9.973.466-24.99,2.064-29.854,1.173a5.337,5.337,0,0,1-1.973-.988c-5.558-3.839-6.3-4.3-9.5-6.328-.878-.557-1.757-1.462-2.32-1.768a1.916,1.916,0,0,0-1.946-.093h0l-7.454,2.583a2.314,2.314,0,0,0-1,.675l-3.352,3.69a2.683,2.683,0,0,0-.637,2.37c.8,3.715.322,5.139,1.81,5.216,2.426.126,2.09-3.96,2.082-5.414l2.344-2.54,3.629.431s1.719,3.17,2.874,5.634c1.417,3.023,1.755,5.946,5.253,7.423,2.932,1.239,6.326,2.588,9.111,2.412,1.261-.08,13.567,2.761,34.987,5.055l4.85.52" style="fill:none;stroke:#aebbc7;stroke-linecap:round;stroke-linejoin:round;stroke-width:0.5px"/><line x1="99.139" y1="98.887" x2="100.136" y2="100.765" style="fill:none;stroke:#aebbc7;stroke-linecap:round;stroke-linejoin:round;stroke-width:0.5px"/><path d="M96.074,99.518a2.292,2.292,0,0,1-.871-.285" style="fill:none;stroke:#aebbc7;stroke-linecap:round;stroke-linejoin:round;stroke-width:0.5px"/><path d="M102.313,106.435a5.294,5.294,0,0,0-1.905-3.594L87.926,95.262l-.034-.023a1.389,1.389,0,0,0-1.177-.186l-2.517.424c-1.29.395-1.994,2.728-1.587,5.2a5.251,5.251,0,0,0,1.917,3.594l.182.105L97,111.849l.033.023a1.392,1.392,0,0,0,1.178.186l2.517-.424C102.016,111.238,102.731,108.906,102.313,106.435Zm-13.262-3.789-1.2-.738c-.9-.441-1.48-2.169-1.318-3.649l.011-.1,2.5,1.511a.8.8,0,0,1,.33.851C89.265,101.029,89.153,101.721,89.051,102.646Z" style="fill:none;stroke:#12171d;stroke-width:1.5px"/><path d="M89.107,102.764c-.083.759-.119,1.378-.13,1.869a.342.342,0,0,1-.163.277.284.284,0,0,1-.3.014l-3.487-2.117c-.9-.435-1.473-2.175-1.311-3.652.147-1.34.883-2.146,1.654-1.733l3.739,2.269a.778.778,0,0,1,.335.842C89.338,101.054,89.214,101.79,89.107,102.764Z" style="fill:none;stroke:#12171d;stroke-width:1.5px"/><path d="M91.184,99.172a11.718,11.718,0,0,0-1.081,4.409c-.355,3.23.256,4.209.256,4.209" style="fill:none;stroke:#12171d;stroke-width:1.5px"/><path d="M84.2,95.477a1.42,1.42,0,0,1,1.251.209l.033.024,12.482,7.579a5.29,5.29,0,0,1,1.905,3.594c.419,2.471-.37,4.78-1.66,5.175" style="fill:none;stroke:#12171d;stroke-width:1.5px"/><path d="M102.313,106.435a5.294,5.294,0,0,0-1.905-3.594L87.926,95.262l-.034-.023a1.43,1.43,0,0,0-.94-.236c-.079.009-2.754.474-2.754.474-1.29.395-1.994,2.728-1.587,5.2a5.251,5.251,0,0,0,1.917,3.594l.182.105L97,111.849l.033.023a1.392,1.392,0,0,0,1.178.186l2.517-.424C102.016,111.238,102.731,108.906,102.313,106.435Zm-13.262-3.789-1.2-.738c-.9-.441-1.48-2.169-1.318-3.649l.011-.1,2.5,1.511a.8.8,0,0,1,.33.851C89.265,101.029,89.153,101.721,89.051,102.646Z" style="fill:none;stroke:#12171d;stroke-width:1.5px"/><path d="M102.313,106.435a5.294,5.294,0,0,0-1.905-3.594L87.926,95.262l-.034-.023a1.389,1.389,0,0,0-1.177-.186l-2.517.424c-1.29.395-1.994,2.728-1.587,5.2a5.251,5.251,0,0,0,1.917,3.594l.182.105L97,111.849l.033.023a1.392,1.392,0,0,0,1.178.186l2.517-.424C102.016,111.238,102.731,108.906,102.313,106.435Zm-13.262-3.789-1.2-.738c-.9-.441-1.48-2.169-1.318-3.649l.011-.1,2.5,1.511a.8.8,0,0,1,.33.851C89.265,101.029,89.153,101.721,89.051,102.646Z" style="fill:#f4ae3d"/><path d="M89.107,102.764c-.083.759-.119,1.378-.13,1.869a.342.342,0,0,1-.163.277.284.284,0,0,1-.3.014l-3.487-2.117c-.9-.435-1.473-2.175-1.311-3.652.147-1.34.883-2.146,1.654-1.733l3.739,2.269a.778.778,0,0,1,.335.842C89.338,101.054,89.214,101.79,89.107,102.764Z" style="fill:none;stroke:#12171d;stroke-linecap:round;stroke-linejoin:round;stroke-width:0.5px"/><path d="M91.184,99.172a11.718,11.718,0,0,0-1.081,4.409c-.355,3.23.256,4.209.256,4.209" style="fill:none;stroke:#12171d;stroke-linecap:round;stroke-linejoin:round;stroke-width:0.5px"/><path d="M84.2,95.477a1.42,1.42,0,0,1,1.251.209l.033.024,12.482,7.579a5.29,5.29,0,0,1,1.905,3.594c.419,2.471-.37,4.78-1.66,5.175" style="fill:none;stroke:#12171d;stroke-linecap:round;stroke-linejoin:round;stroke-width:0.5px"/><path d="M102.313,106.435a5.294,5.294,0,0,0-1.905-3.594L87.926,95.262l-.034-.023a1.43,1.43,0,0,0-.94-.236c-.079.009-2.754.474-2.754.474-1.29.395-1.994,2.728-1.587,5.2a5.251,5.251,0,0,0,1.917,3.594l.182.105L97,111.849l.033.023a1.392,1.392,0,0,0,1.178.186l2.517-.424C102.016,111.238,102.731,108.906,102.313,106.435Zm-13.262-3.789-1.2-.738c-.9-.441-1.48-2.169-1.318-3.649l.011-.1,2.5,1.511a.8.8,0,0,1,.33.851C89.265,101.029,89.153,101.721,89.051,102.646Z" style="fill:none;stroke:#12171d;stroke-linecap:round;stroke-linejoin:round;stroke-width:0.5px"/><path d="M118.082,161.19c-3.5-7.058-4.458-14.487-5.4-21.742-1.413-10.9-5.861-24.33-12.28-28.952-.422-.3-.313-1.058.244-1.685s1.349-.889,1.77-.586c7.024,5.058,11.859,19.819,13.285,30.832.9,6.928,1.816,14.022,5.071,20.668" style="stroke:#12171d;stroke-linecap:round;stroke-linejoin:round;fill:url(#linear-gradient-2)"/><path d="M103.1,106.221a2.45,2.45,0,0,1-.862.393c-1.649.434-2.873.969-4.326.25-2.383-1.18-3.382-1.881-5.321-1.818s-3.4.8-3.6,2.231c-.119.853.374,1.256,2.069,1.539,1.011.17,2.972,1.485,4.72,2.34a25.529,25.529,0,0,0,10.272,3.377c3.229.309,6.7.377,8.706.757" style="fill:#12171d"/><g id="Offset_Group-6" data-name="Offset Group"><path d="M102.808,105.819a1.994,1.994,0,0,1-.693.312c-.242.063-.474.129-.695.191-1.341.379-2.233.613-3.282.094-.365-.18-.7-.35-1.007-.508-1.7-.864-2.769-1.419-4.552-1.361a5.053,5.053,0,0,0-3.222,1.057,2.6,2.6,0,0,0-.858,1.6,1.509,1.509,0,0,0,.242,1.144,3.4,3.4,0,0,0,2.239.957,11.642,11.642,0,0,1,2.659,1.265c.623.348,1.286.719,1.924,1.031.3.145.6.3.93.47a24.075,24.075,0,0,0,9.515,2.956c1.257.12,2.551.2,3.772.284a45.828,45.828,0,0,1,4.887.467" style="fill:none;stroke:#aebbc7;stroke-linecap:round;stroke-linejoin:round;stroke-width:0.5px"/><path d="M102.956,106.02a2.214,2.214,0,0,1-.777.352c-.24.063-.47.128-.691.191-1.33.376-2.315.645-3.461.077-.366-.181-.7-.351-1.01-.509-1.7-.866-2.718-1.39-4.43-1.335a4.817,4.817,0,0,0-3.063.994,2.351,2.351,0,0,0-.778,1.453,1.264,1.264,0,0,0,.2.961,3.189,3.189,0,0,0,2.08.859,11.693,11.693,0,0,1,2.739,1.293c.624.348,1.281.716,1.912,1.024.3.146.608.305.934.472a23.821,23.821,0,0,0,9.424,2.93c1.254.12,2.543.2,3.765.283a46.285,46.285,0,0,1,4.918.471" style="fill:none;stroke:#aebbc7;stroke-linecap:round;stroke-linejoin:round;stroke-width:0.5px"/></g><path d="M103.1,106.221a2.45,2.45,0,0,1-.862.393c-1.649.434-2.873.969-4.326.25-2.383-1.18-3.382-1.881-5.321-1.818s-3.4.8-3.6,2.231c-.119.853.374,1.256,2.069,1.539,1.011.17,2.972,1.485,4.72,2.34a25.529,25.529,0,0,0,10.272,3.377c3.229.309,6.7.377,8.706.757" style="fill:none;stroke:#aebbc7;stroke-linecap:round;stroke-linejoin:round;stroke-width:0.5px"/><path d="M92.17,109.166a.064.064,0,0,0,.058-.019.09.09,0,0,0,.026-.063,7.953,7.953,0,0,1,.588-1.969.246.246,0,0,0,.009-.171.214.214,0,0,0-.1-.128c-.057-.03-1.628-.937-2.168-.583-.732.479-1.157,2.078-.492,2.43Z" style="fill:none;stroke:#aebbc7;stroke-linecap:round;stroke-linejoin:round;stroke-width:0.5px"/></g><g id="arrows_icons" data-name="arrows/icons"><polygon points="117.793 106.457 117.793 112.852 108.137 107.423 108.137 110.595 101.263 100.36 108.137 97.843 108.137 101.028 117.793 106.457" style="fill:#f4ae3d;stroke:#12171d;stroke-linecap:round;stroke-miterlimit:10"/></g></svg>
