<svg xmlns="http://www.w3.org/2000/svg" width="218" height="218" viewBox="0 0 218 218"><g id="bb34cd61-8e46-45ba-af94-0f4570f06c13" data-name="below"><line x1="145.0368" y1="144.9285" x2="112.2493" y2="139.6369" style="fill:none;stroke:#687581;stroke-linecap:round;stroke-linejoin:round;stroke-width:0.5px"/><line x1="76.2358" y1="141.0067" x2="83.0098" y2="139.6202" style="fill:none;stroke:#687581;stroke-linecap:round;stroke-linejoin:round;stroke-width:0.5px"/><path d="M151.4474,107.5529l-57.6784-5.3L36.1049,96.8015a.9394.9394,0,0,1-.8-1.2387l.0056-.0155a42.5625,42.5625,0,0,0,1.8637-13.2932,134.1372,134.1372,0,0,0-.636-13.6785c-.935-9.1173-2.1834-18.2393-3.4092-27.348L31.2249,27.5669a67.7872,67.7872,0,0,0-1.14-6.7153,21.2857,21.2857,0,0,0-2.5383-6.1233A18.2113,18.2113,0,0,0,17.1235,7.031a52.9613,52.9613,0,0,0-6.6223-1.5248L3.7145,4.2434c2.31-.0157,4.6189.0851,6.9225.2843,1.15.1152,2.301.2359,3.4483.4018.5742.0935,1.1526.22,1.73.3286a11.7192,11.7192,0,0,1,1.7194.4119,19.22,19.22,0,0,1,11.32,8.2391,22.8415,22.8415,0,0,1,2.7542,6.5541A68.9643,68.9643,0,0,1,32.81,27.3378L34.7729,41c1.2659,9.1172,2.5521,18.2206,3.5329,27.4009a135.8444,135.8444,0,0,1,.7028,13.8713c-.066,4.6329-.3437,9.3645-1.9324,13.9145l-.794-1.2541,57.6606,5.4882,57.6463,5.6391a.75.75,0,0,1-.1417,1.4933Z" style="fill:#687581"/><path d="M215.7768,112.9016c-4.8433.0482-9.6544-.2436-14.4576-.6184l-14.3981-1.2456c-4.8014-.3937-9.5929-.8919-14.3889-1.3428-4.7957-.4539-9.5855-.97-14.3734-1.5053a.75.75,0,0,1,.1416-1.4933c4.8032.3744,9.6046.7683,14.4,1.2241,4.7953.4589,9.595.8705,14.3848,1.3866l14.3755,1.4839C206.2488,111.3258,211.0289,111.9437,215.7768,112.9016Z" style="fill:#687581"/><path d="M2.8786,121.7021a27.8494,27.8494,0,0,0,2.6055-4.9153c.7962-1.6835,1.6161-3.3746,2.5847-5.009a31.6062,31.6062,0,0,1,7.5284-8.48c1.4525-1.21,2.9631-2.3231,4.5045-3.4085a34.2506,34.2506,0,0,1,4.8859-2.94,14.4906,14.4906,0,0,1,5.608-1.42,39.3091,39.3091,0,0,1,5.673.2368.5.5,0,0,1-.0772.9971,44.91,44.91,0,0,0-5.5227-.1042,14.0239,14.0239,0,0,0-5.1706,1.38,33.1259,33.1259,0,0,0-4.699,2.8456c-1.5162,1.0623-2.997,2.1936-4.4408,3.3441a30.4725,30.4725,0,0,0-7.3953,8.0861c-.9609,1.5681-1.7749,3.2428-2.7073,4.8712-.4678.812-.9121,1.633-1.4662,2.4167A10.89,10.89,0,0,1,2.8786,121.7021Z" style="fill:#687581"/><path d="M28.8531,215.0147c1.352-5.29,2.9576-10.4961,4.6251-15.6821l1.2765-3.888a17.7541,17.7541,0,0,1,1.7332-3.8192,10.5029,10.5029,0,0,1,2.8481-3.1665,9.4883,9.4883,0,0,1,3.9541-1.6544,18.8442,18.8442,0,0,1,8.2889.8625l7.8962,2.1072,15.7926,4.2142,31.5618,8.5169,31.5363,8.61a.5.5,0,0,1-.2628.9648l-31.59-8.4-31.5645-8.4932-15.7705-4.2907L51.2929,188.75a17.8325,17.8325,0,0,0-7.8175-.8813,8.7154,8.7154,0,0,0-6.1038,4.3061c-1.3944,2.2173-2.0354,4.89-2.9412,7.4659C32.6971,204.8068,30.9018,209.9531,28.8531,215.0147Z" style="fill:#687581"/><line x1="157.1483" y1="155.4298" x2="76.2834" y2="140.9969" style="fill:none;stroke:#687581;stroke-linecap:round;stroke-linejoin:round;stroke-width:0.5px"/><path d="M10.6587,26.573c-2.7639,0-5.4619.5923-5.2645,6.1858S8.29,70.7946,8.8819,75.9933s2.04,8.2915,5.33,8.2915,6.45-.1316,8.8848-.329,4.737-2.9612,4.3422-7.8967S23.8857,42.1032,23.03,35.8517s-2.1011-8.95-5.4572-9.1471S10.6587,26.573,10.6587,26.573Z" style="fill:none;stroke:#687581;stroke-linecap:round;stroke-linejoin:round;stroke-width:0.5px"/><path d="M15.7253,81.908c-1.5131,0-2.9868.0021-3.6933-6.1834-.5937-5.2162-3.2744-37.43-3.4739-43.05-.1376-3.94,1.66-3.7268,3.3512-3.7268,1.2489,0,4.3711.0133,6.316.1262,1.02.06,2.2912.136,3.2435,7.0992.8688,6.3541,4.0026,35.1731,4.3953,40.0755.2829,3.5388-1.0961,5.2533-2.166,5.34C21.1457,81.7957,18.78,81.908,15.7253,81.908Z" style="fill:none;stroke:#687581;stroke-linecap:round;stroke-linejoin:round;stroke-width:0.5px"/><path d="M13.6829,35.4568c-2.4349,0-3.171.2046-2.9443,3.4877.4923,7.1278,1.6814,22.3807,2.1955,28.0334.24,2.6434.7779,2.8954,3.846,2.8954s3.3406-.329,3.1508-3.9483-2.023-23.5585-2.4223-26.5856S16.71,35.4568,13.6829,35.4568Z" style="fill:none;stroke:#687581;stroke-linecap:round;stroke-linejoin:round;stroke-width:0.5px"/><path d="M61.6681,190.9209,83.1,117.7124A14.5645,14.5645,0,0,0,70.4975,99.1209" style="fill:none;stroke:#687581;stroke-linecap:round;stroke-linejoin:round"/><path d="M213.0155,132.8764A108.8421,108.8421,0,0,0,191.1693,146.4a71.1878,71.1878,0,0,0-9.4958,8.6493A44.1356,44.1356,0,0,0,174.5921,165.7a94.8585,94.8585,0,0,0-4.5024,12.0485l-3.9172,12.2954L162.26,202.3406c-1.3215,4.0934-2.5349,8.2208-4.1183,12.2313,1.0222-4.1883,2.4145-8.26,3.6986-12.3649l3.9041-12.3,3.9081-12.2984a95.2853,95.2853,0,0,1,4.5165-12.11,44.616,44.616,0,0,1,7.1483-10.7683,71.66,71.66,0,0,1,9.5517-8.7148c3.4069-2.6393,6.9061-5.16,10.5622-7.4478A51.8275,51.8275,0,0,1,213.0155,132.8764Z" style="fill:#687581"/><path d="M13.5487,105.6467a29.6874,29.6874,0,0,1,7.4287,1.4739,16.0426,16.0426,0,0,1,3.4282,1.6836,13.2069,13.2069,0,0,1,2.8418,2.5656,20.1839,20.1839,0,0,1,3.485,6.74,42.4991,42.4991,0,0,1,1.7032,7.3785,45.92,45.92,0,0,1-.7642,15.0631c-.96,4.9451-2.2909,9.7915-3.5523,14.6482q-3.8292,14.5647-8.0347,29.0273-2.104,7.23-4.287,14.4358c-1.4574,4.8036-2.9146,9.6039-4.5775,14.3456,1.2292-4.87,2.6417-9.6885,4.0948-14.4912q2.1684-7.2079,4.2658-14.4364,4.19-14.4582,7.9915-29.0246c1.2549-4.8578,2.5771-9.702,3.5238-14.6151a45.3253,45.3253,0,0,0,.7386-14.8721,43.5821,43.5821,0,0,0-1.6621-7.2761,19.6268,19.6268,0,0,0-3.3553-6.5655,12.6519,12.6519,0,0,0-2.7141-2.47,15.51,15.51,0,0,0-3.3051-1.6381,29.1832,29.1832,0,0,0-7.2935-1.4741.25.25,0,1,1,.0444-.4981Z" style="fill:#687581"/><line x1="94.7484" y1="133.5026" x2="99.4666" y2="61.2546" style="fill:none;stroke:#aebbc7;stroke-linecap:round;stroke-linejoin:round;stroke-width:1.5px"/><line x1="106.2021" y1="61.5219" x2="101.4695" y2="133.9899" style="fill:none;stroke:#aebbc7;stroke-linecap:round;stroke-linejoin:round;stroke-width:1.5px"/><path d="M94.7484,133.5026c-10.2688-.2986-11.307,2.5086-11.699,6.1812-.0553.8479,6.4407,1.9625,14.5093,2.4893s14.6543.2666,14.71-.5814c.1673-4.6376-.5783-6.52-10.7988-7.6018l-.052.7969h0c-.0127.1951-1.5283.255-3.3851.1338s-3.3518-.3778-3.3391-.5729h0l.0552-.8451Z" style="fill:#404d59;stroke:#aebbc7;stroke-linecap:round;stroke-linejoin:round;stroke-width:1.5px"/><path d="M161.0655,64.018l-5.2593,80.5331h0c-.0128.1952-1.5284.2551-3.3852.1339s-3.3518-.3778-3.3391-.5729h0l5.2417-80.2639" style="fill:none;stroke:#aebbc7;stroke-linecap:round;stroke-linejoin:round;stroke-width:1.5px"/><path d="M161.0137,144.5354a47.1184,47.1184,0,0,0-5.1555-.7811l-.052.7968h0c-.0128.1952-1.5284.2551-3.3852.1339s-3.3518-.3778-3.3391-.5729h0l.0552-.8451h0c-10.2688-.2986-11.307,2.5086-11.6989,6.1811-.0554.848,6.4407,1.9626,14.5092,2.4894,2.26.1476,4.403.2334,6.3192.2618" style="fill:#404d59;stroke:#aebbc7;stroke-linecap:round;stroke-linejoin:round;stroke-width:1.5px"/><path d="M158.1537,152.5425c-1.5753-.0271-3.7511-.1-6.435-.2815-1.5-.1015-2.9453-.2229-4.3065-.3588a.8031.8031,0,0,1-.7214-.8572l.1657-2.5209a.931.931,0,0,1,1.0181-.8592c1.2278.1181,2.52.2242,3.8543.3145,3.678.249,6.0779.2878,7.9211.2926" style="fill:#f4ae3d;stroke:#141b21;stroke-linecap:round;stroke-linejoin:round;stroke-width:1.5px"/><g style="opacity:0.25"><path d="M158.2666,152.1993c4.926.0732,8.3506-.2327,8.39-.8432.1331-3.6891-.3115-5.6345-5.6433-6.8207" style="fill:#404d59;stroke:#687581;stroke-linecap:round;stroke-linejoin:round;stroke-width:1.5px"/><path d="M159.65,148.272c.64.0017,1.2129-.0007,1.7489,0a1.0082,1.0082,0,0,1,1.0057,1.0379l-.0767,2.5181a.7444.7444,0,0,1-.743.7218l-.5986.0008c-.2824,0-1.2573.0188-2.8326-.0083" style="fill:#f4ae3d;stroke:#687581;stroke-linecap:round;stroke-linejoin:round;stroke-width:1.5px"/></g><path d="M5.51,17.14a23.4249,23.4249,0,0,1,6.1-.5335c2.043.0464,4.0789.1764,6.1155.4188a17.39,17.39,0,0,1,5.9668,1.5765,7.5149,7.5149,0,0,1,2.4329,1.9856,8.6477,8.6477,0,0,1,.8516,1.323l.3609.6962.2832.7251a33.9559,33.9559,0,0,1,1.4828,5.9722c.35,2.0127.6427,4.0288.9327,6.0463q.8528,6.0536,1.576,12.1213c.9647,8.0917,1.8847,16.1827,2.5679,24.3125a103.3266,103.3266,0,0,1,.2331,12.2448,45.7836,45.7836,0,0,1-1.9658,12.0984.2663.2663,0,0,1-.3363.17.27.27,0,0,1-.1686-.3393,45.2605,45.2605,0,0,0,1.8753-11.955,105.9918,105.9918,0,0,0-.2857-12.17c-.6665-8.1044-1.5725-16.2042-2.5218-24.2885q-.7221-6.0636-1.5528-12.112c-.2858-2.0139-.5745-4.0291-.919-6.0295a33.4641,33.4641,0,0,0-1.4427-5.8683l-.2706-.6982-.3413-.66a8.0822,8.0822,0,0,0-.795-1.242,6.9567,6.9567,0,0,0-2.2568-1.8459,16.8986,16.8986,0,0,0-5.7729-1.5262c-2.0057-.26-4.0413-.338-6.0659-.4686A46.1606,46.1606,0,0,0,5.51,17.14Z" style="fill:#687581"/><path d="M199.9657,112.1552a16.3813,16.3813,0,0,0-7.5413,1.3817,53.9617,53.9617,0,0,0-7.11,3.6029c-2.3065,1.3569-4.5871,2.7978-6.8082,4.2887a45.0547,45.0547,0,0,0-6.22,4.9126c-3.7658,3.66-6.2443,8.44-8.3449,13.3467-2.079,4.9336-3.83,10.0374-5.5965,15.1389q-5.3177,15.297-10.3957,30.69l-5.0609,15.394a141.8292,141.8292,0,0,1-5.6363,15.2136,128.3,128.3,0,0,1,4.19-15.6789l4.95-15.439c3.3345-10.282,6.6918-20.5553,10.1889-30.79,1.7749-5.105,3.537-10.23,5.66-15.2544a62.326,62.326,0,0,1,3.6678-7.36,32.1278,32.1278,0,0,1,5.0972-6.57,44.1873,44.1873,0,0,1,6.5112-5.0812c2.2786-1.499,4.5812-2.9243,6.9438-4.2855a55.5134,55.5134,0,0,1,7.37-3.6455,17.85,17.85,0,0,1,8.2762-1.3589l.0053.0006a.75.75,0,0,1-.147,1.4927Z" style="fill:#687581"/></g><g id="b9b97545-868e-4ffa-9f75-cbb035e27a09" data-name="illustration"><path d="M48.4043,116.2692c-8.86-1.3821-9.6859-8.674-7.3586-18.2293s8.0171-27.41,11.1872-36.3532S56.28,50.5858,67.1952,43.5655s17.3789-8.1338,32.8506-8.1977,74.86-1.5072,83.6673-1.2629,12.9551,1.8765,11.564,10.5417c-1.2646,7.8773-1.5145,9.5177-2.2643,14.4391s-1.3806,8.86-10.647,9.2885c-5.689.263-10.7353.3335-14.9239,1.3417s-9.9724,2.7416-13.09,12.8221-9.72,32.8647-11.57,38.6514-2.72,8.1074-11.07,7.19S48.4043,116.2692,48.4043,116.2692Z" style="fill:#404d59;stroke:#aebbc7;stroke-linecap:round;stroke-linejoin:round;stroke-width:1.5px"/><path d="M189.7913,34.7189c-6.0782-.614-12.7425-.3059-24.39,4.9566S148.4225,49.42,143.61,65.1168s-8.2971,28.4009-11.1345,37.4911-2.3442,16.2345-.6859,20.393,8.41,6.2577,10.3068.2562" style="fill:none;stroke:#aebbc7;stroke-linecap:round;stroke-linejoin:round;stroke-width:0.5px"/><path d="M67.1952,43.5655s4.18-2.5138,7.7158-2.6151l78.6529-.6309c5.7857-.2012,6.7968,1.826,6.7968,1.826" style="fill:none;stroke:#aebbc7;stroke-linecap:round;stroke-linejoin:round;stroke-width:0.5px"/><polygon points="118.724 48.364 103.819 64.564 97.965 47.606 103.147 47.785 109.315 19.59 119.811 19.481 113.542 48.184 118.724 48.364" style="fill:none;stroke:#141b21;stroke-miterlimit:10;stroke-width:5px"/><polygon points="118.724 48.364 103.819 64.564 97.965 47.606 103.147 47.785 109.315 19.59 119.811 19.481 113.542 48.184 118.724 48.364" style="fill:#f4ae3d"/></g><g id="f68949a6-0189-48e9-ad7c-b37b0a877930" data-name="inset"><polygon points="165.465 162.793 160.702 162.793 162.805 170.564 153.203 170.564 151.1 162.793 146.318 162.793 153.517 153.986 165.465 162.793" style="fill:none;stroke:#141b21;stroke-miterlimit:10;stroke-width:5px"/><polygon points="165.465 162.793 160.702 162.793 162.805 170.564 153.203 170.564 151.1 162.793 146.318 162.793 153.517 153.986 165.465 162.793" style="fill:#f4ae3d"/><polygon points="165.465 162.793 160.702 162.793 162.805 170.564 153.203 170.564 151.1 162.793 146.318 162.793 153.517 153.986 165.465 162.793" style="fill:#f4ae3d"/></g></svg>