<svg xmlns="http://www.w3.org/2000/svg" width="218" height="218" viewBox="0 0 218 218"><g id="b845e249-c5d2-49fe-9dc6-ca8dbecd9616" data-name="below"><path d="M144.885,111.75,24.228,99.373a.75.75,0,0,1-.212-1.438c3.844-1.613,6.851-4.861,9.036-8.475A40.343,40.343,0,0,0,37.7,77.565,53.651,53.651,0,0,0,39,64.779c-.028-2.14-.252-4.295-.419-6.471l-.568-6.5q-.6-6.5-1.3-12.989c-.47-4.325-.968-8.648-1.621-12.948-.669-4.289-1-8.658-1.76-12.9A30.106,30.106,0,0,0,31.636,6.8,16.865,16.865,0,0,0,30.108,4a14.042,14.042,0,0,0-2.183-2.384,11.865,11.865,0,0,1,2.547,2.094,14.979,14.979,0,0,1,1.895,2.745,25.668,25.668,0,0,1,2.2,6.266c.526,2.148.8,4.317,1.223,6.459.4,2.148.674,4.313.937,6.479l1.469,13q.708,6.5,1.307,13.013l.569,6.515c.166,2.165.394,4.348.423,6.566A55.076,55.076,0,0,1,39.163,77.9a41.85,41.85,0,0,1-4.829,12.34c-2.292,3.782-5.48,7.285-9.74,9.08l-.213-1.438,120.657,12.377a.75.75,0,0,1-.153,1.492Z" style="fill:#687581"/><path d="M215.986,118.29c-2.729-.031-5.447-.168-8.162-.331-2.718-.141-5.427-.37-8.135-.6l-16.236-1.537c-5.414-.5-10.818-1.085-16.226-1.639s-10.809-1.169-16.208-1.8a.75.75,0,0,1,.153-1.492c5.416.476,10.83.967,16.237,1.526s10.819,1.075,16.22,1.69l16.21,1.791c2.7.323,5.4.649,8.088,1.062C210.619,117.348,213.308,117.766,215.986,118.29Z" style="fill:#687581"/><line x1="135.075" y1="145.732" x2="109.017" y2="141.527" style="fill:none;stroke:#687581;stroke-linecap:round;stroke-linejoin:round;stroke-width:0.5px"/><path d="M151.1,153.015c-1.753-.026-3.713-.1-5.779-.239-7.379-.482-13.319-1.5-13.269-2.277.359-3.358,1.308-5.926,10.7-5.652h0l-.051.772h0c-.011.179,1.356.413,3.054.524s3.084.056,3.1-.122h0l.047-.729h0a43.489,43.489,0,0,1,4.715.714" style="fill:#404d59;stroke:#aebbc7;stroke-linecap:round;stroke-linejoin:round;stroke-width:1.5px"/><line x1="76.083" y1="142.779" x2="82.278" y2="141.512" style="fill:none;stroke:#687581;stroke-linecap:round;stroke-linejoin:round;stroke-width:0.5px"/><path d="M32.752,210.459c1.207-4.848,2.667-9.611,4.189-14.354l1.167-3.556a16.307,16.307,0,0,1,1.588-3.5,9,9,0,0,1,6.251-4.43,17.271,17.271,0,0,1,7.6.788l7.222,1.925,14.443,3.851,28.863,7.789,28.837,7.883a.5.5,0,0,1-.263.965l-28.891-7.674-28.865-7.766L60.472,188.45l-7.211-1.963a16.252,16.252,0,0,0-7.129-.807A7.925,7.925,0,0,0,40.58,189.6c-1.27,2.018-1.857,4.46-2.687,6.817C36.306,201.136,34.656,205.84,32.752,210.459Z" style="fill:#687581"/><path d="M189.227,116.359a14.731,14.731,0,0,0-6.851,1.311A51.3,51.3,0,0,0,175.9,121c-2.106,1.247-4.193,2.565-6.222,3.928a41.284,41.284,0,0,0-5.68,4.484c-3.438,3.332-5.7,7.693-7.623,12.178-1.9,4.508-3.5,9.176-5.118,13.842q-4.868,13.99-9.518,28.07L137.1,197.577a118.128,118.128,0,0,1-5.218,13.9,107.825,107.825,0,0,1,3.771-14.362l4.523-14.124c3.047-9.407,6.115-18.806,9.312-28.169,1.624-4.67,3.236-9.359,5.182-13.958,1.958-4.557,4.337-9.173,8.044-12.762a40.467,40.467,0,0,1,5.97-4.652c2.088-1.371,4.195-2.672,6.354-3.922a52.545,52.545,0,0,1,6.734-3.366,16.187,16.187,0,0,1,7.6-1.293.75.75,0,0,1-.142,1.493Z" style="fill:#687581"/><line x1="150.077" y1="155.969" x2="76.127" y2="142.771" style="fill:none;stroke:#687581;stroke-linecap:round;stroke-linejoin:round;stroke-width:0.5px"/><path d="M62.761,188.426l19.6-66.949a13.32,13.32,0,0,0-11.525-17" style="fill:none;stroke:#687581;stroke-linecap:round;stroke-linejoin:round"/><path d="M201.167,135.344A101.2,101.2,0,0,0,181.2,147.728a65.124,65.124,0,0,0-8.682,7.907,40.383,40.383,0,0,0-6.473,9.735,86.781,86.781,0,0,0-4.116,11.016l-3.583,11.244-3.579,11.244c-1.21,3.743-2.312,7.52-3.784,11.18.911-3.837,2.192-7.558,3.365-11.313l3.569-11.249,3.574-11.246a87.045,87.045,0,0,1,4.131-11.077,40.825,40.825,0,0,1,6.54-9.853,65.512,65.512,0,0,1,8.737-7.972c3.116-2.414,6.317-4.72,9.661-6.813A46.435,46.435,0,0,1,201.167,135.344Z" style="fill:#687581"/><path d="M18.759,110.422a27.131,27.131,0,0,1,6.8,1.348,14.709,14.709,0,0,1,3.14,1.541,12.113,12.113,0,0,1,2.6,2.351,18.49,18.49,0,0,1,3.193,6.171,38.747,38.747,0,0,1,1.559,6.751,42.011,42.011,0,0,1-.7,13.784c-.878,4.523-2.1,8.955-3.25,13.4q-3.5,13.319-7.349,26.545l-3.921,13.2c-1.333,4.392-2.668,8.781-4.207,13.112,1.105-4.459,2.395-8.866,3.724-13.258l3.9-13.2q3.831-13.222,7.306-26.543c1.148-4.442,2.356-8.872,3.222-13.364a41.437,41.437,0,0,0,.674-13.592,39.891,39.891,0,0,0-1.518-6.649,17.93,17.93,0,0,0-3.063-6,11.523,11.523,0,0,0-2.477-2.255,14.163,14.163,0,0,0-3.017-1.5,26.623,26.623,0,0,0-6.664-1.348.25.25,0,1,1,.045-.5Z" style="fill:#687581"/><line x1="93.013" y1="135.917" x2="97.328" y2="69.847" style="fill:none;stroke:#aebbc7;stroke-linecap:round;stroke-linejoin:round;stroke-width:1.5px"/><line x1="103.487" y1="70.091" x2="99.159" y2="136.363" style="fill:none;stroke:#aebbc7;stroke-linecap:round;stroke-linejoin:round;stroke-width:1.5px"/><path d="M93.013,135.917c-9.391-.273-10.34,2.294-10.7,5.653-.05.775,5.89,1.794,13.269,2.276s13.4.244,13.452-.532c.153-4.241-.529-5.962-9.876-6.951l-.047.728h0c-.012.179-1.4.234-3.1.123s-3.065-.346-3.054-.524h0l.051-.773Z" style="fill:#404d59;stroke:#aebbc7;stroke-linecap:round;stroke-linejoin:round;stroke-width:1.5px"/><path d="M153.659,72.374l-4.809,73.647h0c-.012.178-1.4.233-3.1.122s-3.065-.345-3.054-.524h0l4.794-73.4" style="fill:none;stroke:#aebbc7;stroke-linecap:round;stroke-linejoin:round;stroke-width:1.5px"/><path d="M105.076,143.746a.68.68,0,0,1-.68.66h-.547c-.517,0-3.566.067-8.475-.265-1.371-.093-2.694-.2-3.938-.328a.735.735,0,0,1-.66-.784l.151-2.305a.852.852,0,0,1,.931-.786c1.123.108,2.3.205,3.525.288,4.532.306,6.942.264,8.843.267a.924.924,0,0,1,.92.949Z" style="fill:#f4ae3d;stroke:#12171d;stroke-linecap:round;stroke-linejoin:round;stroke-width:1.5px"/><path d="M4.341,100.833a72.253,72.253,0,0,0,10.111-.588,34.725,34.725,0,0,0,9.657-2.625.5.5,0,0,1,.416.91l-.024.01a35.47,35.47,0,0,1-9.993,2.2A72.65,72.65,0,0,1,4.341,100.833Z" style="fill:#687581"/><path d="M15.61,9.975c-2.545,0-5.031.538-4.857,5.69s2.693,35.03,3.155,39.827c.736,7.649,1.868,7.64,4.9,7.645s5.941-.113,8.184-.291,4.367-2.722,4.01-7.268S27.773,24.3,26.993,18.538s-1.923-8.246-5.014-8.433S15.61,9.975,15.61,9.975Z" style="fill:none;stroke:#687581;stroke-linecap:round;stroke-linejoin:round;stroke-width:0.532710909843445px"/><path d="M20.2,60.949c-1.394,0-2.751,0-3.393-5.7-.54-4.8-2.966-34.48-3.143-39.657-.121-3.63,1.535-3.43,3.092-3.428,1.15,0,4.026.018,5.818.125.939.056,2.11.128,2.978,6.543.791,5.854,3.639,32.4,3.994,36.918.256,3.26-1.016,4.838-2,4.916C25.2,60.853,23.017,60.954,20.2,60.949Z" style="fill:none;stroke:#687581;stroke-linecap:round;stroke-linejoin:round;stroke-width:0.532710909843445px"/><path d="M18.384,18.162c-2.243,0-2.921.184-2.717,3.208.444,6.566,1.519,20.617,1.985,25.824.218,2.435.713,2.668,3.539,2.672s3.077-.3,2.907-3.633-1.832-21.7-2.2-24.49S21.172,18.166,18.384,18.162Z" style="fill:none;stroke:#687581;stroke-linecap:round;stroke-linejoin:round;stroke-width:0.532710909843445px"/><path d="M62.071,188.953l19.553-66.43a13.416,13.416,0,0,0-11.583-17.142" style="fill:none;stroke:#687581;stroke-linecap:round;stroke-linejoin:round;stroke-width:0.532710909843445px"/><path d="M2.446,97.108A23.5,23.5,0,0,0,6.453,91.77a42.7,42.7,0,0,0,2.934-6,22.509,22.509,0,0,0,1.385-6.489,53.3,53.3,0,0,0-.062-6.7L8.641,45.718,6.593,18.848l-.512-6.721A15.963,15.963,0,0,1,6.136,8.7,5.6,5.6,0,0,1,7.589,5.532a6.466,6.466,0,0,1,3.044-1.681,15.477,15.477,0,0,1,3.383-.537,43.711,43.711,0,0,1,6.78.2,14.451,14.451,0,0,1,6.512,2.022,6.81,6.81,0,0,1,2.285,2.622A13,13,0,0,1,30.7,11.414c.482,2.231.654,4.467.939,6.7l.794,6.692,3.177,26.766.774,6.688c.268,2.23.512,4.475.606,6.732a54.113,54.113,0,0,1-1.2,13.46,39.976,39.976,0,0,1-4.578,12.706,20.708,20.708,0,0,1-4.342,5.228,15.879,15.879,0,0,1-6.017,3.17.266.266,0,0,1-.327-.187.27.27,0,0,1,.19-.328,15.325,15.325,0,0,0,5.8-3.074,20.132,20.132,0,0,0,4.212-5.1,39.41,39.41,0,0,0,4.478-12.533,53.477,53.477,0,0,0,1.153-13.315c-.1-2.231-.345-4.454-.618-6.683l-.788-6.694L31.8,24.88l-.789-6.69c-.282-2.224-.457-4.48-.924-6.643-.458-2.135-1.292-4.312-3.135-5.506a13.9,13.9,0,0,0-6.227-1.919,43.117,43.117,0,0,0-6.671-.2,14.783,14.783,0,0,0-3.254.512A5.865,5.865,0,0,0,8.021,5.951,4.994,4.994,0,0,0,6.729,8.792a15.426,15.426,0,0,0-.053,3.3L7.183,18.8,9.209,45.675,11.256,72.55a53.591,53.591,0,0,1,.056,6.767,23.01,23.01,0,0,1-1.423,6.638,36.2,36.2,0,0,1-3.024,6.062A17.1,17.1,0,0,1,2.446,97.108Z" style="fill:#687581"/><path d="M3.851,104.222c1.832.226,3.366.419,4.507.567,6.958.9,13.015-.93,17.081-2.072,6.392-1.8,4.622-2.979.485-3.439" style="fill:none;stroke:#687581;stroke-linecap:round;stroke-linejoin:round;stroke-width:0.532710909843445px"/></g><g id="b24d8662-7da3-4888-9e05-3cf6df336bf2" data-name="illustration"><path d="M50.632,120.157c-8.1-1.264-8.858-7.932-6.73-16.67S51.234,78.42,54.133,70.242s3.7-10.152,13.683-16.572,15.893-7.438,30.041-7.5,68.459-1.379,76.513-1.155,11.848,1.716,10.576,9.64c-1.157,7.2-1.385,8.7-2.071,13.2s-1.263,8.1-9.737,8.5c-5.2.24-9.817.3-13.647,1.227s-9.12,2.507-11.971,11.725-8.889,30.055-10.58,35.347-2.488,7.414-10.124,6.575S50.632,120.157,50.632,120.157Z" style="fill:#404d59;stroke:#aebbc7;stroke-linecap:round;stroke-linejoin:round;stroke-width:1.5px"/><path d="M179.929,45.58c-5.559-.561-11.653-.279-22.305,4.533S142.1,59.024,137.7,73.379s-7.588,25.972-10.183,34.285-2.144,14.846-.627,18.649,7.691,5.723,9.425.235" style="fill:none;stroke:#aebbc7;stroke-linecap:round;stroke-linejoin:round;stroke-width:0.5px"/><path d="M67.816,53.67s3.822-2.3,7.056-2.391L146.8,50.7c5.291-.184,6.216,1.67,6.216,1.67" style="fill:none;stroke:#aebbc7;stroke-linecap:round;stroke-linejoin:round;stroke-width:0.5px"/><polygon points="118.527 56.606 104.098 73.231 97.755 56.45 102.94 56.479 108.287 28.116 118.776 27.703 113.342 56.576 118.527 56.606" style="fill:none;stroke:#12171d;stroke-miterlimit:10;stroke-width:5px"/><polygon points="118.527 56.606 104.098 73.231 97.755 56.45 102.94 56.479 108.287 28.116 118.776 27.703 113.342 56.576 118.527 56.606" style="fill:#f4ae3d"/></g><g id="a5ccaa71-ebc4-4b5f-b440-7fd9688d19c6" data-name="inset"><polygon points="108.969 154.633 104.613 154.633 106.537 161.739 97.756 161.739 95.832 154.633 91.459 154.633 98.043 146.578 108.969 154.633" style="fill:none;stroke:#12171d;stroke-miterlimit:10;stroke-width:5px"/><polygon points="108.969 154.633 104.613 154.633 106.537 161.739 97.756 161.739 95.832 154.633 91.459 154.633 98.043 146.578 108.969 154.633" style="fill:#f4ae3d"/><polygon points="108.969 154.633 104.613 154.633 106.537 161.739 97.756 161.739 95.832 154.633 91.459 154.633 98.043 146.578 108.969 154.633" style="fill:#f4ae3d"/></g></svg>
