<svg xmlns="http://www.w3.org/2000/svg" xmlns:xlink="http://www.w3.org/1999/xlink" width="161.749" height="161.749" viewBox="0 0 161.749 161.749"><defs><linearGradient id="linear-gradient" x1="172.526" y1="56.164" x2="169.513" y2="58.52" gradientUnits="userSpaceOnUse"><stop offset="0" stop-color="#12171d" stop-opacity="0"/><stop offset="1" stop-color="#12171d"/></linearGradient><linearGradient id="linear-gradient-2" x1="27.669" y1="23.445" x2="28.181" y2="26.079" xlink:href="#linear-gradient"/></defs><g id="illustration"><path d="M6.273,88.676c2.786-2.12,17.715-5.867,20.709-6.615a20.2,20.2,0,0,1,6.652-.873c3.035,0,6.154.5,12.473,2.619s8.15,3.825,4.74,5.031C34.557,94.6,31.567,95.7,29.975,97.8" style="fill:none;stroke:#687581;stroke-linecap:round;stroke-linejoin:round;stroke-width:0.5px"/><path d="M38.79,76.864c-.61-.222-.832-2.745-.693-4.38s2.6-14.607,3.548-18.211,1.524-4.213,3.88-5.848,3.3-1.664,5.6-1.331a66.267,66.267,0,0,1,8.344,2c1.524.526,2.411,2.162,3.3,4.185s1.442,3.132.555,7.235-2.634,12.944-3.216,16.16a36.66,36.66,0,0,0-.61,5.488" style="fill:none;stroke:#687581;stroke-linecap:round;stroke-linejoin:round;stroke-width:0.5px"/><path d="M32.221,75.4c2.189.609,4.213,1.108,5.238,1.358a2.46,2.46,0,0,0,1.331.111s.526.221,2.245.776S57,82.823,57,82.823" style="fill:none;stroke:#687581;stroke-linecap:round;stroke-linejoin:round;stroke-width:0.75px"/><path d="M71.194,88.29c-2.826-.8-3.807-1-3.807-2.612,0-4.487.814-7.976,1.963-13.745,2.119-10.639,3.7-17.248,4.283-19.529a5.991,5.991,0,0,1,2.332-3.383l.416-2.006s-1.215-.656-.874-2.95,1.726-9.621,2.458-12.675a7.529,7.529,0,0,1,4.093-5.445" style="fill:none;stroke:#687581;stroke-linecap:round;stroke-linejoin:round;stroke-width:0.5px"/><path d="M88.51,93.717a13.274,13.274,0,0,1-2.82-.656c-1.362-.461-8.356-2.682-10.763-3.445" style="fill:none;stroke:#687581;stroke-linecap:round;stroke-linejoin:round;stroke-width:0.5px"/><path d="M70.265,87.468C52.492,93.033,44.941,96.38,40.722,102.8a5.065,5.065,0,0,0-.607,1.286l-.727,2.366a2.656,2.656,0,0,0-.106,1.01l.554,6.259a.79.79,0,0,0,.509.671L107.93,143.1c1.791.727,4.95,1.261,10.994.062,6.707-1.331,8.516-3.761,9.666-5.863" style="fill:none;stroke:#687581;stroke-linecap:round;stroke-linejoin:round;stroke-width:0.5px"/><line x1="40.337" y1="116.727" x2="40.106" y2="114.301" style="fill:none;stroke:#687581;stroke-linecap:round;stroke-linejoin:round;stroke-width:0.5px"/><path d="M46.7,20.388a6.885,6.885,0,0,0,1.172,4.261c1.065,1.737,1.682,2.214,3.055,2.438s6.866,1.289,9.22,1.681,3.615-.981,4.765-2.326a13.489,13.489,0,0,1,2.679-2.708" style="fill:none;stroke:#687581;stroke-linecap:round;stroke-linejoin:round;stroke-width:0.75px"/><path d="M96.971,43.754c.647-3.107,1.466-6.816,1.981-8.8.747-2.873,1.661-4.842,3.674-5.847" style="fill:none;stroke:#687581;stroke-linecap:round;stroke-linejoin:round;stroke-width:0.5px"/><path d="M143.865,35.169a5.946,5.946,0,0,1-.978,1.815,39.76,39.76,0,0,1-3,3.125c-.911.88-2.215,2.155-6.13,1.487s-10.195-1.76-12.168-2.215-3.186-.971-4.218-2.67a5.723,5.723,0,0,1-1.074-3.7c.036-.433.141-1.185.315-2.178" style="fill:none;stroke:#687581;stroke-linecap:round;stroke-linejoin:round;stroke-width:0.75px"/><g id="Offset_Group" data-name="Offset Group"><path d="M69.678,23.1c.255.048,2.151.339,4.314.671,2.557.392,5.466.839,6.345.99a4.71,4.71,0,0,1,1.815.6,2.666,2.666,0,0,1,1.452-.124c.474.1,7.158,1.144,12.26,1.94,2.924.456,5.321.83,5.68.892a2.811,2.811,0,0,1,1.172.435,1.955,1.955,0,0,1,1.238-.114l12.382,1.935c.224-1.219.538-2.734.944-4.433.816-3.417,1.422-5.236,1.726-6.148a5.293,5.293,0,0,1,1.661-2.457A5.586,5.586,0,0,1,124.6,15.4a45.007,45.007,0,0,1,8.066.24,39.9,39.9,0,0,1,8.46,1.8,4.5,4.5,0,0,1,2.245,2.366l.1.179a3.8,3.8,0,0,1,.309.86,37.538,37.538,0,0,1,.626,8.139c-.005.775,0,1.472,0,2.106a25.075,25.075,0,0,1-.132,3.712,5.906,5.906,0,0,1,1.291.122l.394.073a15.51,15.51,0,0,1,4.181,1.128,12.638,12.638,0,0,1,5.394,5.135,8.58,8.58,0,0,1,1.121,5.074c-.367,3.211-.895,7.733-1.566,12.532a5.724,5.724,0,0,1-.8,2.074l-.307,1.846a24.284,24.284,0,0,1-.9,6.189c-1,3.885-6.319,24.608-7.758,31.029s-2.439,10.866-2.444,10.886l-.661,2.447-14.186,26.007a13.719,13.719,0,0,1-3.881,4.9,16.988,16.988,0,0,1-6.766,2.711c-6.746,1.405-8.929.546-16.146-2.3l-1.31-.515c-8.881-3.481-48.084-20.765-56.475-24.464L41.918,119a3.942,3.942,0,0,1-1.649-1.242,2.569,2.569,0,0,1-.177-.28,1.759,1.759,0,0,1-.254.083,2.729,2.729,0,0,1-1.788-.254c-1.161-.531-24.861-10.879-27.273-11.919-2.441-1.052-3.558-1.77-4.514-3.362A36.028,36.028,0,0,1,3.19,95.669c-.125-.327-.251-.642-.375-.952a11.274,11.274,0,0,1-1.131-4.79A10.961,10.961,0,0,1,2.958,85.5,10.412,10.412,0,0,1,5.79,81.725c2.209-1.761,5.568-2.619,11.847-4.1,6.772-1.6,11.171-2.294,13.212-2.569a5.008,5.008,0,0,1-.842-1.158c-1.558-2.892-1.618-8.5-.162-16.032A126.049,126.049,0,0,1,33.57,42.279l.058-.185a7.115,7.115,0,0,1,2.033-3.3l.347-1.279a3.612,3.612,0,0,1-.324-1.048,15.606,15.606,0,0,1,.625-5.905c.956-3.85,1.425-5.107,3.661-7.227a10.855,10.855,0,0,1,6.359-3.173c0-.1,0-.208,0-.317a47.789,47.789,0,0,1,.761-9.343c.015-.064.03-.13.045-.2a3.282,3.282,0,0,1,1.143-2.1,4.4,4.4,0,0,1,1.33-.69,17.436,17.436,0,0,1,5.627-.583A25.093,25.093,0,0,1,62.5,8.061l.373.107a4.329,4.329,0,0,1,2.156,1.137A7.268,7.268,0,0,1,66.5,12.841a63.985,63.985,0,0,1,1.48,10.3A3.573,3.573,0,0,1,69.678,23.1Z" style="fill:none;stroke:#687581;stroke-linecap:round;stroke-linejoin:round;stroke-width:0.5px"/><path d="M69.632,23.343c.26.05,2.164.342,4.322.673,2.559.393,5.464.839,6.341.99a4.191,4.191,0,0,1,1.78.6l.039.032a2.437,2.437,0,0,1,1.438-.162c.483.1,7.179,1.148,12.273,1.942,2.927.457,5.32.83,5.677.891a2.544,2.544,0,0,1,1.086.4.929.929,0,0,1,.093.077,1.719,1.719,0,0,1,1.235-.16l12.623,1.972c.224-1.252.552-2.851.984-4.659.814-3.408,1.418-5.22,1.72-6.127a5.046,5.046,0,0,1,1.6-2.357,5.349,5.349,0,0,1,3.788-1.814,44.851,44.851,0,0,1,8.019.241,39.7,39.7,0,0,1,8.4,1.788,4.261,4.261,0,0,1,2.11,2.251l.1.18a3.526,3.526,0,0,1,.285.8,37.248,37.248,0,0,1,.619,8.075c-.005.777,0,1.476,0,2.11a20.864,20.864,0,0,1-.186,3.994,1.863,1.863,0,0,1,.216-.028,5.262,5.262,0,0,1,1.333.111l.4.073a15.316,15.316,0,0,1,4.117,1.108,12.39,12.39,0,0,1,5.284,5.03,8.333,8.333,0,0,1,1.092,4.926c-.367,3.21-.9,7.73-1.565,12.526a5.492,5.492,0,0,1-.787,2.017s-.324,1.943-.321,1.892a23.09,23.09,0,0,1-.9,6.171c-1,3.883-6.319,24.611-7.759,31.037s-2.439,10.866-2.442,10.876-.645,2.39-.667,2.444c0,0-12.452,22.877-14.157,25.954a13.48,13.48,0,0,1-3.81,4.816,16.728,16.728,0,0,1-6.669,2.667c-6.673,1.39-8.8.553-16-2.283l-1.31-.515c-8.875-3.478-48.07-20.759-56.465-24.46l-1.542-.68a3.69,3.69,0,0,1-1.547-1.161,2.341,2.341,0,0,1-.265-.465,1.574,1.574,0,0,1-.427.173,2.477,2.477,0,0,1-1.625-.239c-1.164-.532-24.866-10.881-27.279-11.921s-3.483-1.737-4.4-3.261a35.744,35.744,0,0,1-3.055-6.318c-.125-.328-.252-.645-.375-.955a11.036,11.036,0,0,1-1.115-4.688,10.733,10.733,0,0,1,1.25-4.327,10.153,10.153,0,0,1,2.763-3.688C8.1,80.2,11.392,79.355,17.694,77.868a133.825,133.825,0,0,1,13.738-2.636,4.339,4.339,0,0,1-1.2-1.454c-1.511-2.806-1.593-8.333-.137-15.866a125.879,125.879,0,0,1,3.719-15.558l.058-.185a6.658,6.658,0,0,1,2.015-3.233l.393-1.45a3.229,3.229,0,0,1-.345-1.058,15.418,15.418,0,0,1,.621-5.8c.952-3.833,1.406-5.035,3.591-7.107a10.664,10.664,0,0,1,6.439-3.139c0-.169,0-.346,0-.532a47.577,47.577,0,0,1,.755-9.286c.015-.066.03-.134.045-.2A3.042,3.042,0,0,1,48.432,8.4a4.166,4.166,0,0,1,1.255-.649,17.217,17.217,0,0,1,5.544-.57,24.853,24.853,0,0,1,7.2,1.122l.374.107a4.088,4.088,0,0,1,2.041,1.067,7.048,7.048,0,0,1,1.406,3.418,60.948,60.948,0,0,1,1.487,10.6A3.1,3.1,0,0,1,69.632,23.343Z" style="fill:none;stroke:#687581;stroke-linecap:round;stroke-linejoin:round;stroke-width:0.5px"/></g><path d="M67.5,23.9a2.666,2.666,0,0,1,2.09-.315c.582.111,9.059,1.386,10.667,1.663s1.806.693,1.806.693a2.216,2.216,0,0,1,1.441-.222c.777.167,16.991,2.669,17.961,2.835s1.167.549,1.167.549a1.538,1.538,0,0,1,1.25-.226l12.865,2.01c.224-1.28.565-2.964,1.024-4.886.812-3.4,1.414-5.2,1.715-6.106a4.794,4.794,0,0,1,1.534-2.256,5.1,5.1,0,0,1,3.64-1.745,44.668,44.668,0,0,1,7.971.241,39.432,39.432,0,0,1,8.333,1.775,4.33,4.33,0,0,1,2.075,2.316c.482.872.9,4.211.873,8.754-.022,3.271.128,5.154-.3,6.547.148-.173.585-.352,1.873-.113a16.73,16.73,0,0,1,4.448,1.16c3.632,1.775,6.681,5.822,6.238,9.7-.367,3.21-.9,7.728-1.565,12.52a5.283,5.283,0,0,1-.777,1.959l-.333,2a22.7,22.7,0,0,1-.887,6.1c-1,3.881-6.319,24.614-7.761,31.045s-2.439,10.865-2.439,10.865l-.645,2.39S129.3,136.028,127.6,139.1s-3.326,5.9-10.311,7.359-8.9.458-17.171-2.785c-9.77-3.83-56.333-24.407-58-25.137s-1.781-1.815-1.781-1.815-.624.79-2.079.125c-1.167-.534-24.872-10.884-27.284-11.924s-3.409-1.7-4.282-3.159A35.593,35.593,0,0,1,3.657,95.49c-1.206-3.16-2.495-5.2-.25-9.77S8.064,80.4,17.752,78.111A116.751,116.751,0,0,1,32.221,75.4c-3.022-1.248-3.8-7.54-1.885-17.435A124.444,124.444,0,0,1,34.1,42.243a6.061,6.061,0,0,1,2-3.16l.444-1.635c-.555-.859-.721-2.855.249-6.763.947-3.815,1.386-4.962,3.52-6.985a10.5,10.5,0,0,1,6.52-3.105c0-.232-.006-.48-.006-.748a47.3,47.3,0,0,1,.749-9.23c.332-1.442.378-3.3,7.65-3.188a25.313,25.313,0,0,1,7.511,1.22c1.664.471,2.56.949,3.271,4.3A54.045,54.045,0,0,1,67.5,23.9Z" style="fill:none;stroke:#687581;stroke-linecap:round;stroke-linejoin:round;stroke-width:0.5px"/><path d="M88.849,93.965c-17.984,7.647-21.743,9.331-26.668,16.381a5.842,5.842,0,0,0-.691,1.322l-.987,2.7a3.013,3.013,0,0,0-.183,1.148l.237,6.875a.907.907,0,0,0,.543.8" style="fill:none;stroke:#687581;stroke-linecap:round;stroke-linejoin:round;stroke-width:0.5px"/><path d="M5.2,99.073c.151.335.252.537,1.16.875l32.7,13.9a1.59,1.59,0,0,0,.822.095" style="fill:none;stroke:#687581;stroke-linecap:round;stroke-linejoin:round;stroke-width:0.5px"/><path d="M67.409,45.413a6.094,6.094,0,0,1-1.042-1.219,39.544,39.544,0,0,1-2.673-5.233,3.144,3.144,0,0,0-2.283-2.476,100.549,100.549,0,0,0-10.483-2.1c-.941-.1-.96-.106-2.445,1.457a12.635,12.635,0,0,1-6.4,3.867c-1.646.533-4.456,1.516-5.977-.63" style="fill:none;stroke:#687581;stroke-linecap:round;stroke-linejoin:round;stroke-width:0.5px"/><path d="M75.965,49.021A20.05,20.05,0,0,1,70.254,47.3" style="fill:none;stroke:#687581;stroke-linecap:round;stroke-linejoin:round;stroke-width:0.5px"/><path d="M70.6,45.282a18.326,18.326,0,0,0,5.784,1.733" style="fill:none;stroke:#687581;stroke-linecap:round;stroke-linejoin:round;stroke-width:0.5px"/><path d="M36.545,37.448c.706,1.289,1.871,1.455,4.947.457s4.033-1.7,5.613-3.367,2.162-2.246,4.033-2.038a101.31,101.31,0,0,1,10.81,2.162,4.974,4.974,0,0,1,3.535,3.659,37.735,37.735,0,0,0,2.345,4.62" style="fill:none;stroke:#687581;stroke-linecap:round;stroke-linejoin:round;stroke-width:0.5px"/><path d="M153.488,62.755a3.712,3.712,0,0,1-2.346,1.318c-2.214,0-4.491-1.349-6.316-2.819-2.844-2.291-4.233-3.662-5.467-6.226-.12-.25-.238-.5-.356-.76-.882-1.915-1.578-3.428-4.164-4.186a160.593,160.593,0,0,0-16.21-2.933c-1.969-.251-2.507.143-4.114,1.306l-.489.351c-.256.184-.494.359-.724.527a19.968,19.968,0,0,1-6.816,3.434c-4.443,1.45-6.123,1.822-9.945.73" style="fill:none;stroke:#687581;stroke-linecap:round;stroke-linejoin:round;stroke-width:0.5px"/><path d="M96.957,51.377c3.492,1,4.864.914,8.939-.416a19.51,19.51,0,0,0,7.027-3.7c2.037-1.455,2.993-2.37,5.945-1.995a161.452,161.452,0,0,1,16.506,2.993c3.826,1.123,4.615,3.7,5.7,5.946s2.266,3.412,4.947,5.571c2.994,2.412,5.752,3.465,7.8.984" style="fill:none;stroke:#687581;stroke-linecap:round;stroke-linejoin:round;stroke-width:0.5px"/><path d="M131.1,106.311c-.365-.652.027-3.264.654-5.954S136.4,81.893,136.976,79.2s1.332-5.041-1.306-9.193-3.551-4.257-7.025-5.3a103.793,103.793,0,0,0-11.152-2.481c-2.22-.339-3.63.026-6.346,1.7s-4.048,2.585-5.171,6.79-3.839,13.842-5.171,21.625c-.571,3.335.176,4.185.176,4.185" style="fill:none;stroke:#687581;stroke-linecap:round;stroke-linejoin:round;stroke-width:0.5px"/><path d="M110.927,130.193c3.761-5.85,11.641-13.61,12.715-14.745s1.731-1.79-.6-4.357-5.253-3.522-11.58-5.612-8.358-2.507-12.656-2.507-4.536.239-7.342,1.731-13.423,8.165-16.348,11.388" style="fill:none;stroke:#687581;stroke-linecap:round;stroke-linejoin:round;stroke-width:0.5px"/><path d="M12.557,105.615l.986,12.161c.049.69-.1,1.282,1.923,2.367s79.44,38.018,79.44,38.018" style="fill:none;stroke:#687581;stroke-linecap:round;stroke-linejoin:round;stroke-width:0.5px"/><line x1="9.463" y1="104.227" x2="1.674" y2="109.529" style="fill:none;stroke:#687581;stroke-linecap:round;stroke-linejoin:round;stroke-width:0.5px"/><line x1="21.74" y1="71.759" x2="20.363" y2="77.512" style="fill:none;stroke:#687581;stroke-linecap:round;stroke-linejoin:round;stroke-width:0.5px"/><line x1="7.135" y1="62.228" x2="23.073" y2="55.418" style="fill:none;stroke:#687581;stroke-linecap:round;stroke-linejoin:round;stroke-width:0.5px"/><path d="M3.906,42.063l20.5-7.4c2.184,1.359,1.313,4.933.349,10.381C23.875,50,23.565,51.91,23.2,53.407s-.465,2.169.826,3.15,1.859,1.549,1.084,5.318-1.6,6.709-1.963,8.1-1.033,1.549-3.1,2.737c-1.7.977-13.588,7.241-17.733,9.423" style="fill:none;stroke:#687581;stroke-linecap:round;stroke-linejoin:round;stroke-width:0.5px"/><line x1="24.404" y1="34.662" x2="25.319" y2="24.226" style="fill:none;stroke:#687581;stroke-linecap:round;stroke-linejoin:round;stroke-width:0.5px"/><path d="M24.4,34.662s4.7.824,6.9,1.095a9.358,9.358,0,0,0,4.792-.388" style="fill:none;stroke:#687581;stroke-linecap:round;stroke-linejoin:round;stroke-width:0.5px"/><path d="M142.42,112.51l-5.484,24.727a62.243,62.243,0,0,1-4.28,14.94" style="fill:none;stroke:#687581;stroke-linecap:round;stroke-linejoin:round;stroke-width:0.5px"/><path d="M88.442,138.786s-.582.18-.5,2.036.152,3.405.177,4.193.178,1.245,1.3,1.855,5.947,2.795,6.964,3.2,1.753.2,2.083-1.322.716-5.447.716-5.447" style="fill:none;stroke:#687581;stroke-linecap:round;stroke-linejoin:round;stroke-width:0.5px"/><path d="M14.809,106.6c-.421.409-.5.815-.066,2.315s1.042,3.049,1.246,3.659a1.877,1.877,0,0,0,1.092,1.347c.763.407,3.99,1.8,4.549,2.084A1.22,1.22,0,0,0,23,115.926c.432-.28.485-.277.381-1.22-.137-1.239-.451-4.565-.451-4.565" style="fill:none;stroke:#687581;stroke-linecap:round;stroke-linejoin:round;stroke-width:0.5px"/><path d="M143.915,32.135c8.609,1.612,14.528,2.791,14.528,2.791" style="fill:none;stroke:#687581;stroke-linecap:round;stroke-linejoin:round;stroke-width:0.5px"/><path d="M67.245,20.3c22.144,2.76,37.395,5.4,50.106,7.518" style="fill:none;stroke:#687581;stroke-linecap:round;stroke-linejoin:round;stroke-width:0.5px"/><path d="M42.362,22.084l.448-2.144a.915.915,0,0,1,.664-.7l3.37-.884" style="fill:none;stroke:#687581;stroke-linecap:round;stroke-linejoin:round;stroke-width:0.5px"/><path d="M132.64,107.312c2.957,2.018,4.952,3.016,2.68,6.23s-5.82,7.427-8.092,9.977-2.938,3.1-8.314,5.32-5.376,2.383-9.144,1S65.542,112.323,64.1,111.6a3,3,0,0,0-2.48-.24s-.347-1.2-3.063-2.144-13.976-5.393-15.74-6.152-2.243-.014-2.243-.014.026-1.2-4.02-2.757S9.287,89.987,7.458,89.211s-2.605-1-1.94-3.713,1.691-4.32,3.3-4.9" style="fill:none;stroke:#687581;stroke-linecap:round;stroke-linejoin:round;stroke-width:0.5px"/><path d="M61.925,85.122c-.861-.305-.789-2.512-.18-6.447s6.984-40.57,7.926-46.943,3.263-7.6,4-7.491l3.089.454c-.737-.113-3.058,1.117-4,7.491S65.444,75.194,64.834,79.13s-.681,6.142.18,6.446Z" style="fill:none;stroke:#687581;stroke-linecap:round;stroke-linejoin:round;stroke-width:0.5px"/><path d="M159.524,37.123a19.36,19.36,0,0,0-3.143,2.069c-2.578,2.078-5.654,5.653-8.231,15.629s-7.415,28.013-9.394,37.411c-2.66,12.637,2.375,18.075,2.375,18.075.036-4.275.186-12.362,2.031-19.9,3.34-13.651,8.314-33.233,10.081-39.955a21.309,21.309,0,0,1,4.385-8.762l2.191-2.3" style="stroke:#687581;stroke-linecap:round;stroke-linejoin:round;stroke-width:0.5px;fill:url(#linear-gradient)"/><path d="M38.661,20.4c1.164,2.577,1.33,6.485-.582,13.385s-7.3,33.784-8.346,41.649l-3.658.621a200.008,200.008,0,0,1,3.109-22.816c2.909-15.547,8.064-28.6,7.565-32.756" style="stroke:#687581;stroke-linecap:round;stroke-linejoin:round;stroke-width:0.5px;fill:url(#linear-gradient-2)"/><path d="M140.191,103.748a.605.605,0,0,1-.789.577l-1.195-.429a1.015,1.015,0,0,1-.573-1.066l.508-3.856,2.556.918Z" style="fill:#12171d;stroke:#687581;stroke-linecap:round;stroke-linejoin:round;stroke-width:0.5px"/><path d="M136.428,95.356a.608.608,0,0,1,.826-.521l5.188,1.738a1.783,1.783,0,0,1,.454.246l.886.7a.531.531,0,0,1,.175.463l-.243,1.345a.656.656,0,0,1-.308.415l-1.051.532a.7.7,0,0,1-.48.03L136.8,98.5a1.011,1.011,0,0,1-.633-1.025Z" style="fill:#12171d;stroke:#687581;stroke-linecap:round;stroke-linejoin:round;stroke-width:0.5px"/><path d="M26.521,63.013a.546.546,0,0,1,.635-.45l5.022.9a.568.568,0,0,1,.459.645l-.283,1.772a.542.542,0,0,1-.634.449L26.7,65.413a.57.57,0,0,1-.458-.647Z" style="fill:#12171d;stroke:#687581;stroke-linecap:round;stroke-linejoin:round;stroke-width:0.5px"/><path d="M30.854,66.169l-.8,1.9L29.8,69.52a.558.558,0,0,1-.646.447l-1.183-.215a.558.558,0,0,1-.447-.646l.263-1.446L27.707,65.6Z" style="fill:#12171d;stroke:#687581;stroke-linecap:round;stroke-linejoin:round;stroke-width:0.5px"/><path d="M63.143,14.11c-.064-.614-.017-1.014.711-1.234s.925-.071,1.082.659c.6,2.785,1.012,5.866,1.2,7.087.136.877-.034,1.2-.761,1.573s-1.066.068-1.184-.913S63.279,15.413,63.143,14.11Z" style="fill:none;stroke:#687581;stroke-linecap:round;stroke-linejoin:round;stroke-width:0.5px"/><path d="M142.091,23.658c-.367.3-.412,1.161-.439,2.316s.072,6.707.069,7.837,0,1.419.569.9.659-.8.686-1.984-.078-6.947-.171-8.147S142.565,23.264,142.091,23.658Z" style="fill:none;stroke:#687581;stroke-linecap:round;stroke-linejoin:round;stroke-width:0.5px"/><path d="M63.373,8.849c-.922-.283-1.242.011-2.067.63s-1.032,1.7-.774,3.921.825,6.862,1.238,8.513.619,2.683-.671,4.024-1.6,1.341-3.869,1.032a59.316,59.316,0,0,1-6.449-1.084c-1.445-.412-1.651-1.031-2.425-2.063s-1.683-2.788-1.528-3.975" style="fill:none;stroke:#687581;stroke-linecap:round;stroke-linejoin:round;stroke-width:0.5px"/><path d="M141.975,18.6c-.3-.28-.642-.608-1.639.182s-1.123,1.58-1.164,3.616-.042,9.27.041,10.85-.083,2.494-1.621,4.2a5.369,5.369,0,0,1-5.445,1.954c-2.536-.333-7.958-1.352-9.912-1.809a4.585,4.585,0,0,1-3.45-2.7c-.873-1.5-1.024-2.647-.5-4.988.737-3.28,1.365-6.292,2.056-9.207.388-1.639,1.241-3.961,2.886-4.516" style="fill:none;stroke:#687581;stroke-linecap:round;stroke-linejoin:round;stroke-width:0.5px"/></g><g id="above"><path d="M94.173,57.236,92.634,56.9l.2-.943a.619.619,0,0,0-.472-.732l-7.306-1.589a.613.613,0,0,0-.729.47l-.2.944-6.518-1.418" style="fill:none;stroke:#aebbc7;stroke-linecap:round;stroke-linejoin:round;stroke-width:0.5px"/><path d="M96.616,52.426,80.033,48.819a1.342,1.342,0,0,0-1.722.983" style="fill:none;stroke:#aebbc7;stroke-linecap:round;stroke-linejoin:round;stroke-width:0.5px"/><line x1="74.525" y1="70.455" x2="80.035" y2="40.4" style="fill:none;stroke:#aebbc7;stroke-linecap:round;stroke-linejoin:round;stroke-width:0.5px"/><path d="M91.488,47.562a.291.291,0,0,1-.35.236L84.9,46.482a.316.316,0,0,1-.247-.36l.086-.5a.29.29,0,0,1,.35-.236l6.243,1.316a.316.316,0,0,1,.247.36Z" style="fill:none;stroke:#aebbc7;stroke-linecap:round;stroke-linejoin:round;stroke-width:0.5px"/><path d="M87.187,73.229a.284.284,0,0,1-.35.227L80.4,71.688a.324.324,0,0,1-.241-.37l.09-.5a.284.284,0,0,1,.35-.227l6.439,1.768a.324.324,0,0,1,.241.37Z" style="fill:none;stroke:#aebbc7;stroke-linecap:round;stroke-linejoin:round;stroke-width:0.5px"/><path d="M90.512,74.868l-16.6-4.583a1.308,1.308,0,0,0-1.062.164l-11.68,7.593a.411.411,0,0,0-.109.585L61.33,79,54.4,83.709a1.308,1.308,0,0,0-.574,1.083V85.1l-1.692-.562a.825.825,0,0,0-.846.2l-.719.717a1.67,1.67,0,0,0-.489,1.181v5.141a1.045,1.045,0,0,0,.648.967c1.215.5,4.209,1.687,9.57,3.574,5.636,1.984,8.656,2.9,9.743,3.213a.929.929,0,0,0,.85-.177L88.517,84.763" style="fill:#404d59"/><g id="Offset_Group-2" data-name="Offset Group"><path d="M90.645,74.386,74.042,69.8a1.811,1.811,0,0,0-1.468.227l-11.68,7.593a.906.906,0,0,0-.4.6.912.912,0,0,0,.129.658L54.117,83.3a1.814,1.814,0,0,0-.755,1.129l-1.072-.357a1.33,1.33,0,0,0-1.358.321l-.718.718a2.166,2.166,0,0,0-.636,1.534v5.141a1.547,1.547,0,0,0,.958,1.429c1.224.5,4.226,1.694,9.594,3.584,5.644,1.986,8.673,2.9,9.77,3.221a1.425,1.425,0,0,0,1.308-.272L88.835,85.148" style="fill:none;stroke:#aebbc7;stroke-linejoin:round;stroke-width:0.5px"/><path d="M90.579,74.627l-16.6-4.583a1.56,1.56,0,0,0-1.264.2L61.03,77.833a.656.656,0,0,0-.289.432.68.68,0,0,0,.005.266.653.653,0,0,0,.109.242l.122.168L54.258,83.5a1.559,1.559,0,0,0-.683,1.256L52.211,84.3a1.077,1.077,0,0,0-1.1.261l-.718.717a1.916,1.916,0,0,0-.563,1.358v5.141a1.3,1.3,0,0,0,.8,1.2c1.22.5,4.218,1.691,9.582,3.579,5.64,1.985,8.665,2.9,9.757,3.217a1.177,1.177,0,0,0,1.078-.224L88.676,84.956" style="fill:none;stroke:#aebbc7;stroke-linejoin:round;stroke-width:0.5px"/></g><path d="M90.512,74.868l-16.6-4.583a1.308,1.308,0,0,0-1.062.164l-11.68,7.593a.411.411,0,0,0-.109.585L61.33,79,54.4,83.709a1.308,1.308,0,0,0-.574,1.083V85.1l-1.692-.562a.825.825,0,0,0-.846.2l-.719.717a1.67,1.67,0,0,0-.489,1.181v5.141a1.045,1.045,0,0,0,.648.967c1.215.5,4.209,1.687,9.57,3.574,5.636,1.984,8.656,2.9,9.743,3.213a.929.929,0,0,0,.85-.177L88.517,84.763" style="fill:none;stroke:#aebbc7;stroke-linejoin:round;stroke-width:0.5px"/><path d="M53.824,85.1,71.6,91.016a1.145,1.145,0,0,1,.582.436l.784,1.128" style="fill:none;stroke:#aebbc7;stroke-linecap:round;stroke-linejoin:round;stroke-width:0.5px"/><line x1="72.697" y1="92.191" x2="89.618" y2="78.984" style="fill:none;stroke:#aebbc7;stroke-linecap:round;stroke-linejoin:round;stroke-width:0.5px"/><path d="M61.33,79l18.144,5.526a.882.882,0,0,1,.464.338l.413.593a.567.567,0,0,0,.813.123l1.922-1.5" style="fill:none;stroke:#aebbc7;stroke-linecap:round;stroke-linejoin:round;stroke-width:0.5px"/><path d="M56.517,83.4l3.848-2.612a2.742,2.742,0,0,1,2.524-.177l3.529,1.1a.341.341,0,0,1,.224.221l.139.429a.384.384,0,0,0,.252.25l2.2.686a1.267,1.267,0,0,0,.373.056H71.5a1.243,1.243,0,0,1,.374.057l4.2,1.31c1.1.344,1.041.537.44.98L72.6,88.589a2.324,2.324,0,0,1-2.21.209l-13.78-4.645C56.015,83.951,55.932,83.8,56.517,83.4Z" style="fill:#f4ae3d;stroke:#1f262d;stroke-linecap:round;stroke-linejoin:round;stroke-width:0.5px"/><path d="M59.994,85.283V83.767a.755.755,0,0,0-.2-.509l-.54-.594a.168.168,0,0,0-.213-.029l-.213.136a.758.758,0,0,0-.324.442l-.124.461a.783.783,0,0,0-.027.2v.87" style="fill:none;stroke:#1f262d;stroke-linecap:round;stroke-linejoin:round;stroke-width:0.5px"/><path d="M60.292,85.393l1.267-.647a.694.694,0,0,1,.545-.036l3.3,1.167a1.344,1.344,0,0,1,.517.335l.414.435a1.144,1.144,0,0,0,.473.3l1.888.618a1.894,1.894,0,0,0,.6.1h1.659a1.9,1.9,0,0,1,.651.114l1.412.509" style="fill:none;stroke:#1f262d;stroke-linecap:round;stroke-linejoin:round;stroke-width:0.5px"/><path d="M66.056,86.346l-.469-.557a.507.507,0,0,1-.12-.329V84.231a.514.514,0,0,1,.149-.361l.5-.5c.448-.448.474.325.474.841v2.62a.615.615,0,0,1-.231-.164Z" style="fill:none;stroke:#1f262d;stroke-linecap:round;stroke-linejoin:round;stroke-width:0.5px"/><path d="M69.952,84.328a.385.385,0,0,1,.285-.126h.607a.385.385,0,0,1,.305.149l.312.4a.384.384,0,0,1,.081.237V86.71a.387.387,0,0,1-.066.216l-.38.564a.388.388,0,0,1-.32.17h-.49a.385.385,0,0,1-.323-.176l-.364-.56a.381.381,0,0,1-.063-.21v-1.78a.384.384,0,0,1,.1-.26Z" style="fill:none;stroke:#1f262d;stroke-linecap:round;stroke-linejoin:round;stroke-width:0.5px"/><path d="M142.4,110.763s-8.58-3.091-9.761-3.451a2.631,2.631,0,0,1-1.541-1s-28-8.845-28.857-9.085a2.724,2.724,0,0,1-1.261-.7A31.333,31.333,0,0,1,91.776,95c-2.822-.84-3.8-1.06-3.8-2.761,0-4.743.814-8.431,1.961-14.529,2.116-11.245,3.7-18.23,4.278-20.641a6.638,6.638,0,0,1,2.2-3.6l.415-2.12s-1.288-.707-.873-3.119c.158-.916.491-2.6.888-4.5L77.385,39.875a1.139,1.139,0,0,1-.856-.745" style="fill:none;stroke:#687581;stroke-linecap:round;stroke-linejoin:round;stroke-width:0.75px"/></g></svg>
