<svg xmlns="http://www.w3.org/2000/svg" xmlns:xlink="http://www.w3.org/1999/xlink" width="218" height="218" viewBox="0 0 218 218"><defs><linearGradient id="e7209319-106d-4fa7-8ba1-fbf3fd25cea7" x1="21.35" y1="91.752" x2="17.198" y2="92.064" gradientTransform="translate(13.662 214.838) rotate(-80.086)" gradientUnits="userSpaceOnUse"><stop offset="0" stop-color="#12171d"/><stop offset="1" stop-color="#12171d" stop-opacity="0"/></linearGradient><linearGradient id="a60e8f8a-d26e-40bc-99f8-44715f9764b0" x1="110.085" y1="189.797" x2="109.961" y2="189.807" gradientTransform="translate(-7.475 4.558) rotate(-2.283)" xlink:href="#e7209319-106d-4fa7-8ba1-fbf3fd25cea7"/><linearGradient id="a789ad48-85ce-4f6c-aa65-c8ae421c53da" x1="107.118" y1="189.789" x2="107.005" y2="189.797" gradientTransform="translate(-8.448 5.035) rotate(-2.584)" xlink:href="#e7209319-106d-4fa7-8ba1-fbf3fd25cea7"/><linearGradient id="a7917cae-2517-45c0-b270-0d351a0cd96b" x1="104.158" y1="189.628" x2="103.962" y2="189.643" gradientTransform="translate(-8.064 4.683) rotate(-2.464)" xlink:href="#e7209319-106d-4fa7-8ba1-fbf3fd25cea7"/><linearGradient id="abced56a-12fd-4981-8778-9c81624c33dd" x1="108.2" y1="197.321" x2="107.499" y2="197.373" gradientTransform="matrix(1, 0, 0, 1, 0, 0)" xlink:href="#e7209319-106d-4fa7-8ba1-fbf3fd25cea7"/></defs><g id="b8622c0a-ca57-4590-8089-99377eaa0739" data-name="below"><path d="M131.507,184.872c-.91,1.74-1.91,3.36-4.37,3.36-9.06.02-45.99-2.19-54.85-2.62-12.18-.59-16.9-1.46-21.72-5.11s-5.6-6.16-6.1-9.09c-.07-.07-.14-.14-.2-.21l.1-.09c2.33,2.4,7.79,8.55,21.13,9.47C77.637,181.412,131.507,184.872,131.507,184.872Z" style="fill:#404d59"/><path d="M121.378,99.87c1.292-3.043,14.078-28.113,16.327-32.244,3.185-5.851,5.555-7.851,5.555-7.851" style="fill:none;stroke:#687581;stroke-linecap:round;stroke-linejoin:round;stroke-width:0.5px"/><path d="M122.5,117.2a6.235,6.235,0,0,1-.3-1.414c-.14-1.189-.35-8.466-.42-9.97a6.851,6.851,0,0,1,.595-3.848l22.186-44.82c1.7-3.53,2.871-3.566,2.871-3.566a5.632,5.632,0,0,1,.444-4.592c.741-1.482,3.012-5.432,4.3-7.6s2.173-2.765,5.333-4a10.5,10.5,0,0,1,5.135-.888" style="fill:none;stroke:#687581;stroke-linecap:round;stroke-linejoin:round;stroke-width:0.5px"/><path d="M119.957,110.745c-.045-1.47.762-5.453,1.8-5.525" style="fill:none;stroke:#687581;stroke-linecap:round;stroke-linejoin:round;stroke-width:0.5px"/><path d="M120.55,126.068c-.135-2.567.269-5.091,2.589-10.375S137.31,87.2,140.223,82.414c2.044-3.36,6.814-4.154,6.814-4.154l.6-1.614s-.552-1.54-.947-2.774a6.253,6.253,0,0,1,.4-4.3c.642-1.333,9.405-17.043,10.567-19.207,1.432-2.666,3.209-2.715,3.209-2.715" style="fill:none;stroke:#687581;stroke-linecap:round;stroke-linejoin:round;stroke-width:0.5px"/><line x1="147.432" y1="53.579" x2="150.737" y2="62.884" style="fill:none;stroke:#687581;stroke-linecap:round;stroke-linejoin:round;stroke-width:0.5px"/><path d="M125.262,156.473c1.235-3.505,17.987-30.307,23.171-37.269s6.477-10.912,5.983-14.023a46.688,46.688,0,0,0-1.629-7.061c-.4-1.086-1.54-1.58-4.5.544s-3.953,2.7-7.178,7.168c-2.5,3.465-8.093,11.491-11.746,18.008s-5.234,11.723-5.058,14.047" style="fill:none;stroke:#687581;stroke-linecap:round;stroke-linejoin:round;stroke-width:0.5px"/><path d="M111.636,132.556l.421-1.1a1.136,1.136,0,0,1,1.429-.668l8.526,2.921" style="fill:none;stroke:#687581;stroke-linecap:round;stroke-linejoin:round;stroke-width:0.5px"/><path d="M110.811,132.279l1.115-3.294a1.136,1.136,0,0,1,1.4-.723l7.619,2.281" style="fill:none;stroke:#687581;stroke-linecap:round;stroke-linejoin:round;stroke-width:0.5px"/><path d="M119.759,112.268l-6.244-2.139a.942.942,0,0,0-1.186.554l-.421,1.1" style="fill:none;stroke:#687581;stroke-linecap:round;stroke-linejoin:round;stroke-width:0.5px"/><path d="M112.451,130.942l.3-.852a1.008,1.008,0,0,0,.018-.6l-.317-1.13" style="fill:none;stroke:#687581;stroke-linecap:round;stroke-linejoin:round;stroke-width:0.5px"/><path d="M112.9,112.089l.123-.322a.808.808,0,0,0,.016-.536l-.321-1.008" style="fill:none;stroke:#687581;stroke-linecap:round;stroke-linejoin:round;stroke-width:0.5px"/><path d="M139.88,45.809c1.191-.071,2.538.409,3.523-.673,1.774-1.947,2.564-2.436,3.655-2.436.452,0,1-.54,2.627,2.984" style="fill:none;stroke:#687581;stroke-linecap:round;stroke-linejoin:round;stroke-width:0.5px"/><path d="M141.265,43.673a4.538,4.538,0,0,0,4.165-.445" style="fill:none;stroke:#687581;stroke-linecap:round;stroke-linejoin:round;stroke-width:0.5px"/><path d="M147.638,76.646a4.379,4.379,0,0,0,3.3,1.522,26.447,26.447,0,0,0,4.246-.3,8.962,8.962,0,0,0,3.053-1.037c2.345-1.395,2.667-1.117,4.724,3.234" style="fill:none;stroke:#687581;stroke-linecap:round;stroke-linejoin:round;stroke-width:0.5px"/><path d="M147.037,78.26a3.152,3.152,0,0,0,2.518,2.772,18.008,18.008,0,0,0,3.963.333,4.064,4.064,0,0,0,2.3-1.185,14.081,14.081,0,0,1,4.629-1.852c1.111-.259,1.629-.185,2.518,1.741a7.357,7.357,0,0,1,.407,6.228c-.926,2.481-1.851,5.073-3.925,10.739s-2.518,6.232-3.666,9.047a15.74,15.74,0,0,0-1.151,7.659c.262,2.037,1.965,3.185,5.668,3.629s5.518-.185,10.073-1.852a15.458,15.458,0,0,0,5.278-3.183" style="fill:none;stroke:#687581;stroke-linecap:round;stroke-linejoin:round;stroke-width:0.5px"/><path d="M181.773,67.848a15.815,15.815,0,0,0,2.333-7.517c.333-4.7,1-14.109,1.037-17.183a13.85,13.85,0,0,0-2.926-9.628c-2.7-3.481-4.962-5.074-10.813-5s-7.517,1.741-8.332,6a157.168,157.168,0,0,0-2.778,18.108c-.421,5.9-.91,8.186,4.465,17.09,1.688,2.8,5.374,2.581,7.274.85C174.107,68.68,176.588,67.848,181.773,67.848Z" style="fill:none;stroke:#687581;stroke-linecap:round;stroke-linejoin:round"/><path d="M147.429,25.96c.05,2.022.622,3.92,2.9,7.8a1.66,1.66,0,0,0,2.919-.106,3.008,3.008,0,0,1,1.185-1.268l2.23-1.095a4.225,4.225,0,0,1,2.126-.574h2.991" style="fill:none;stroke:#687581;stroke-linecap:round;stroke-linejoin:round;stroke-width:0.5px"/><path d="M121.125,91.45c-.109-1.679,1.422-6.666,4.039-11.554s8.789-15.553,10.764-18.417,2.221-2.913,3.357-3.8,1.876-1.383,2.37.74a13.388,13.388,0,0,1,.285,2.769" style="fill:none;stroke:#687581;stroke-linecap:round;stroke-linejoin:round;stroke-width:0.5px"/><path d="M109.344,83.685c3.3-5.132,6.967-11.151,10.141-17.1,8.147-15.257,26.886-48.067,26.886-48.067" style="fill:none;stroke:#687581;stroke-linecap:round;stroke-linejoin:round;stroke-width:0.5px"/><path d="M129.366,48.617c2.279-4.381.514-7.679-8.4-7.679-13.824,0-52.435.741-56.287.889s-5.628.9-5.085,3.9a17.357,17.357,0,0,0,.447,2.014,34.355,34.355,0,0,0,5.717,10.547c.6.7,1.372,1.57,2.046,2.323" style="fill:none;stroke:#687581;stroke-linecap:round;stroke-linejoin:round;stroke-width:0.5px"/><path d="M46.217,33.957l49.79-.579c9.406,0,14.22-2.858,21.479-6.857A38.743,38.743,0,0,0,129.262,16c3.279-5.013,7.312-12.239,7.312-12.239" style="fill:none;stroke:#687581;stroke-linecap:round;stroke-linejoin:round;stroke-width:0.5px"/><path d="M121.89,62.135c-.852,1.511-2.012,1.566-3.691,1.566s-15.057-.247-17.773-.3a10.346,10.346,0,0,1-5.48-1.283,13.9,13.9,0,0,0-4.839-1.531H68.875c-4.725,0-5.5,1.19-5.5,1.19" style="fill:none;stroke:#687581;stroke-linecap:round;stroke-linejoin:round;stroke-width:0.5px"/><path d="M74.849,77.6c-.806-.011-1.31-.019-1.431-.025-1.136-.049-2.516-1.311-3.8-3.654-2.528-4.6-4.468-7.818-5.355-9.425a6.235,6.235,0,0,1-.887-2.716A89.833,89.833,0,0,1,55.615,48.2c-3.762-8.55-.776-8.979,14.3-9.387,8.638-.233,27.8-.049,34.711-.049,5.824,0,8.563,1.682,9.282,2.212" style="fill:none;stroke:#687581;stroke-linecap:round;stroke-linejoin:round;stroke-width:0.5px"/><path d="M113.364,77.267c-.313.513-.738.7-2.467.7-.98,0-12.549-.111-22.582-.216" style="fill:none;stroke:#687581;stroke-linecap:round;stroke-linejoin:round;stroke-width:0.5px"/><path d="M120.526,64.659a1.983,1.983,0,0,1-1.731.992c-2.455-.015-9.945-.06-20.788-.173-10.943-.114-23.25-.14-28.342-.14-3.852,0-4.905.224-5.4-.842" style="fill:none;stroke:#687581;stroke-linecap:round;stroke-linejoin:round;stroke-width:0.5px"/><path d="M98.007,65.478s-3.023,5.754-4.148,7.592c-1.111,1.814-1.851,2.222-4.814,2.222H73.714c-1.749,0-3.2.191-3.746-.763" style="fill:none;stroke:#687581;stroke-linecap:round;stroke-linejoin:round;stroke-width:0.5px"/><path d="M171.575,60.7a2.076,2.076,0,0,0,2.014,2.445h3.148a2.8,2.8,0,0,0,2.333-2.888c.111-2.185.814-11.925.962-13.48s-.74-3.073-1.74-3.073-2.519-.024-3.222,0c-1.111.037-1.874.579-2.185,2.333S171.686,58.775,171.575,60.7Z" style="fill:none;stroke:#687581;stroke-linecap:round;stroke-linejoin:round;stroke-width:0.5px"/><path d="M174.066,57.963a.831.831,0,0,0,.806.979h1.26a1.119,1.119,0,0,0,.933-1.156c.045-.875.81-9.2.87-9.827s-.053-1.23-.655-1.23c-.413,0-1.05-.009-1.331,0-.445.015-.75.232-.874.934S174.111,57.193,174.066,57.963Z" style="fill:none;stroke:#687581;stroke-linecap:round;stroke-linejoin:round;stroke-width:0.5px"/><path d="M154.745,25.8a1.369,1.369,0,0,0,1.328,1.613h2.076a1.846,1.846,0,0,0,1.539-1.906c.073-1.441.537-7.865.635-8.891s-.489-2.027-1.148-2.027-1.661-.016-2.125,0c-.733.024-1.236.382-1.441,1.539S154.818,24.527,154.745,25.8Z" style="fill:none;stroke:#687581;stroke-linecap:round;stroke-linejoin:round;stroke-width:0.5px"/><path d="M156.326,24.183a.555.555,0,0,0,.538.653h.841a.748.748,0,0,0,.624-.772c.029-.584.541-6.146.58-6.562s-.035-.821-.437-.821c-.276,0-.7-.006-.889,0-.3.01-.5.155-.584.623S156.356,23.668,156.326,24.183Z" style="fill:none;stroke:#687581;stroke-linecap:round;stroke-linejoin:round;stroke-width:0.5px"/><path d="M162.771,66.228c.707,1.3,1.251,1.719,1.7-.4a63.627,63.627,0,0,0,.888-7.258c.544-5.037,1.361-11.645,1.976-15.406.839-5.135,3.6-7.307,6.632-7.307h5.844c1.011,0,5.6.3,5.338,6.567" style="fill:none;stroke:#687581;stroke-linecap:round;stroke-linejoin:round;stroke-width:0.5px"/><path d="M174.78,113.079a10.019,10.019,0,0,1-5.813,5.106c-3.214,1.176-6.162,2.221-9.744,1.792-2.911-.35-5.056-1.215-5.581-2.5-1.322-3.221-1.519-3.957,2.135-11.4" style="fill:none;stroke:#687581;stroke-linecap:round;stroke-linejoin:round;stroke-width:0.5px"/><path d="M162.783,20.891h6.865s10.283,6.083,20.047,19.053,20.774,35.138,20.774,35.138h-16.9a3.875,3.875,0,0,0-3.642,2.552l-5.468,15.052c-6.352,16.929-8.45,25.38-12.985,34.031s-16.132,30.041-22.7,39.961c-8.547,12.912-20.789,26.34-21.777,27.538" style="fill:none;stroke:#687581;stroke-linecap:round;stroke-linejoin:round;stroke-width:0.5px"/><line x1="56.607" y1="111.004" x2="33.037" y2="111.004" style="fill:none;stroke:#687581;stroke-linecap:round;stroke-linejoin:round;stroke-width:0.5px"/><path d="M58.281,106.589c-2.427,0-5.4-.4-8.153-4.666s-3.134-5.8-3.134-10.256V90.379" style="fill:none;stroke:#687581;stroke-linecap:round;stroke-linejoin:round;stroke-width:0.5px"/><line x1="67.867" y1="70.784" x2="51.957" y2="70.784" style="fill:none;stroke:#687581;stroke-linecap:round;stroke-linejoin:round;stroke-width:0.5px"/><path d="M183.83,62.449c.423.5,5.8.717,7.573.717h6.318c1.219,0,2.771-.277,1.108-2.051s-4.378-1.94-6.872-1.94c-3.436,0-7.8.394-7.8.394" style="fill:none;stroke:#687581;stroke-linecap:round;stroke-linejoin:round;stroke-width:0.5px"/><path d="M162.376,28.281c1.4.085,3.047.125,3.831.125h5.143c.992,0,2.255-.169.9-1.249s-3.564-1.181-5.594-1.181c-1.4,0-2.984.06-4.221.12" style="fill:none;stroke:#687581;stroke-linecap:round;stroke-linejoin:round;stroke-width:0.5px"/></g><g id="a4dc399a-a8bf-4661-9da5-689a50c7aae4" data-name="illustration"><path d="M106.4,188.171C96,202.458,90.1,211.467,77.27,214.664l.007,0c-1.386-.01-2.908-.059-4.591-.147-9.956-.521-11.791-3.321-14.275-6.124-1.645-1.849-3.691-4.152-7.871-9.471-2.411-3.069-2.786-5.46-2.275-8.021.823-2.724,1.826-6.107,2.83-9.538" style="fill:none;stroke:#687581;stroke-linecap:round;stroke-linejoin:round;stroke-width:0.5px"/><path d="M105.8,187.407a1.79,1.79,0,0,1,.741,1.454l.033,4.894,20.42.461-.423-5.984" style="fill:none;stroke:#687581;stroke-linecap:round;stroke-linejoin:round;stroke-width:0.5px"/><path d="M106.573,193.755c-4.29,5.894-7.828,10.807-11.36,14.791" style="fill:none;stroke:#687581;stroke-linecap:round;stroke-linejoin:round;stroke-width:0.5px"/><path d="M86.558,210.833c-2.663,1.028-6.617,1.384-13.733,1.013-8.527-.446-10.11-2.623-11.814-4.551s-3.7-4.087-8.369-10.026c-1.839-2.34-1.777-3.661-1.7-6.4" style="fill:none;stroke:#687581;stroke-linecap:round;stroke-linejoin:round;stroke-width:0.5px"/><path d="M51.715,181.4c.021,1.055-.024,2.106-.034,3.158-.035,1.051-.077,2.1-.136,3.152s-.133,2.1-.2,3.15a3.7,3.7,0,0,1-.495,1.79,2.755,2.755,0,0,1-.658.725,2.648,2.648,0,0,1-.417.261c-.13.085-.332.157-.6-.3-.013-.523.027-.556.132-.591a1.545,1.545,0,0,0,.241-.175,1.728,1.728,0,0,0,.369-.467,2.592,2.592,0,0,0,.246-1.252c.038-1.057.056-2.114.11-3.171s.1-2.114.17-3.171c.093-1.055.15-2.112.273-3.164a.5.5,0,0,1,1,.048Z" style="fill:#687581"/><path d="M44.374,170.9c2.328,2.4,7.794,8.555,21.134,9.469,12.138.831,66.009,4.294,66.009,4.294" style="fill:none;stroke:#aebbc7;stroke-linecap:round;stroke-linejoin:round;stroke-width:0.5px"/><path d="M53.754,121.064c2-3.409,2.176-4.177,8.577-5.092s8.264-.2,17.376,1.746c7.73,1.648,23.975,6.77,33.574,9.877q3.771,1.221,7.543,2.415" style="fill:none;stroke:#aebbc7;stroke-linecap:round;stroke-linejoin:round;stroke-width:0.5px"/><path d="M107.407,125.711c.84.268.669.618.734,1.85l-.036,2.422c-.026,1.311-.139,1.353,3.531,2.573s11.525,3.57,11.525,3.57" style="fill:none;stroke:#aebbc7;stroke-linecap:round;stroke-linejoin:round;stroke-width:0.5px"/><path d="M59.051,105.343c1.3-1.829,2.176-2.743,4.628-3.242s6.692-1.787,15.588.333,31.986,9.014,40.622,11.885" style="fill:none;stroke:#aebbc7;stroke-linecap:round;stroke-linejoin:round;stroke-width:0.5px"/><path d="M108.881,110.854s-.1-1.312-.1-2.227.185-1.144,2.328-.457c3.029.971,8.68,2.911,8.68,2.911" style="fill:none;stroke:#aebbc7;stroke-linecap:round;stroke-linejoin:round;stroke-width:0.5px"/><path d="M124.271,163.262c-.258,2.5-.418,2.946-6.526,5.28-3.445,1.316-7.954,1.148-11.584.372-7.26-1.552-30.538-7.538-37.743-9.2s-7.926-1.663-15.63-3.769-7.252-4.542-6.484-6.983c2.494-7.926,6.983-21.172,7.815-23.223s2.277-3.643,7.759-5.487c6.263-2.106,7.929-2.564,16.571-.609,13.967,3.159,29.686,8.313,29.686,8.313" style="fill:none;stroke:#aebbc7;stroke-linecap:round;stroke-linejoin:round;stroke-width:0.5px"/><path d="M54.119,125.739s2.438-1.33,10.364.388,29.208,7.593,33.753,8.757,5.154,1.053,10.364,5.044,5.542,4.6,5.708,7.925.167,7.316.056,9.09-.665,4.1-6.263,5.542-8.48.665-12.415-.333-25.93-6.79-33.642-8.923c-10.42-2.882-16.131-2.045-16.131-2.045" style="fill:none;stroke:#aebbc7;stroke-linecap:round;stroke-linejoin:round;stroke-width:0.5px"/><path d="M71.259,79.1c-1.432.737-2.287,2.026-3.174,4.3s-2.715,7.537-3.325,9.532-1.386,2.827,2.439,3.658,7.648,1.441,14.354,3.049,22.059,5.487,26.991,6.706,7.538,1.092,11.307-.368" style="fill:none;stroke:#aebbc7;stroke-linecap:round;stroke-linejoin:round;stroke-width:0.5px"/><path d="M64.3,95.109c3.069-.407,9.332.258,14.6,1.533s20.895,5.431,24,6.263,3.769.776,7.15.443,3.88-.781,3.824-2.436-.055-3.439-.166-4.6-.776-2.328-4.046-4.434-3.381-1.939-8.2-3.491S84,83.419,79,81.955c-6.429-1.885-10-.546-10-.546" style="fill:none;stroke:#aebbc7;stroke-linecap:round;stroke-linejoin:round;stroke-width:0.5px"/><path d="M121.111,90.989a8.563,8.563,0,0,0-5.528-5.321c-4.429-1.448-21.116-6.706-27.268-7.914s-8.48-2.118-14.133.1-7.094,3.547-8.037,6.041-3.713,10.032-4.877,14.133-2.217,7.316-2.217,7.316-1,.832-2.716,6.54-2.383,8.258-2.383,8.258a15.146,15.146,0,0,0-1.829,4.213c-.776,2.715-9.311,27.157-10.087,29.707a14.945,14.945,0,0,0-.72,6.761c.332,1.94.51,3.64.9,5.8s.515,3.024,2.261,4.784c.5,2.938,1.275,5.432,6.1,9.09s9.546,4.525,21.721,5.113c8.865.427,45.794,2.639,54.85,2.623,2.463,0,3.461-1.62,4.375-3.366,3.054-.024,3.863-.615,6.337-3.565,1.144-1.364,1.166-3.764.762-5.507" style="fill:none;stroke:#aebbc7;stroke-linecap:round;stroke-linejoin:round"/><path d="M91.783,197.115c-.123,2.465-1.03,3.7-5.431,7.4a20.386,20.386,0,0,1-4.992,3.067,10.54,10.54,0,0,1-4.409.874c-1.547-.026-3.653-.06-5.308-.084-3.624-.059-5.481-.4-8-2.3a2.975,2.975,0,0,1-1.32-3.025l.921-13.1c.15-2.143,1.567-1.6,2.287-1.306a16.933,16.933,0,0,0,6.315.967c7.826.117,16.177.316,17.818.352a2.065,2.065,0,0,1,2.3,2.439C91.911,193.983,91.854,195.735,91.783,197.115Z" style="fill:none;stroke:#687581;stroke-linecap:round;stroke-linejoin:round;stroke-width:0.5px"/><path d="M71.664,206.875c-3.423-.056-4.933-.353-7.122-2a1.536,1.536,0,0,1-.725-1.721s.926-13.172.93-13.205c.088.033.169.066.213.084a18.356,18.356,0,0,0,6.861,1.079c6.833.1,14.065.266,16.878.331l.93.021a1.205,1.205,0,0,1,.721.159,1.192,1.192,0,0,1,.117.727l-.026.765c-.048,1.354-.1,2.769-.156,3.924-.086,1.746-.486,2.622-4.9,6.329a19.113,19.113,0,0,1-4.624,2.84,9.042,9.042,0,0,1-3.629.752S73.321,206.9,71.664,206.875Z" style="fill:none;stroke:#687581;stroke-linecap:round;stroke-linejoin:round;stroke-width:0.5px"/></g><g id="e6d336b3-81ed-40fc-8776-6ad03f30afc3" data-name="above"><path d="M163.772,32.083l-.35-.621a1.866,1.866,0,0,0-1.622-.947h-.016a11.564,11.564,0,0,0,.511-2.711c.206-2.983.643-8.517.666-10.467a8.952,8.952,0,0,0-1.809-6.108c-1.671-2.208-3.068-3.218-6.686-3.171s-4.8,1.891-5.3,4.593a79.963,79.963,0,0,0-1.594,10.267c-.082,1.173-.167,2.12-.144,3.042a8.775,8.775,0,0,0-3.065,3.371c-.761,1.641-3.922,8-4.626,10.112s-.552,3.125,1.348,4.32l-.937,1.866a8.337,8.337,0,0,0-6.295,3.629c-3.481,5.185-9.036,15.48-10.665,18.812a32.448,32.448,0,0,0-3.7,13.036,23.689,23.689,0,0,0,1.626,9.883l.267,8.342a26.621,26.621,0,0,0-1.646,9.944c.127,4.04.395,13.578.724,18.094.209,2.869.948,5.783,3.578,10.338.5,8.941,1.228,18.228,1.228,18.228-3.582,9.136,1.91,13.665,6.883,16.975,6.89,4.587,9.452,3,11.427.6,8.652-10.475,9.81-13.634,24.549-40.292,6.812-12.322,7.208-17.183,7.522-20.529a12.832,12.832,0,0,0,3.345-4.975c1.908-5.243,4.377-11.874,6.007-16.577s3.444-14.288,1-19.293c-.326-.666-1.524-2.859-3.217-5.912" style="fill:none;stroke:#687581;stroke-linecap:round;stroke-linejoin:round"/><path d="M102.127,214.207l1.718-10.769c.16-1.629-1.842-6.994-1.656-10.308a46.3,46.3,0,0,0-.023-5.8l10.343.408-.088,2.967.968,1.921,1.1-1.341.344-1.711c-.537-1.774-.186-2.629.3-3.04a.833.833,0,0,1,1.342.421l.352,1.306.308.677a2.6,2.6,0,0,1,.2,1.5l-.671,4.1a2.579,2.579,0,0,1-.39,1l-2.8,4.683a2.628,2.628,0,0,0-.417,1.694l.371,11.64" style="fill:url(#e7209319-106d-4fa7-8ba1-fbf3fd25cea7)"/><path d="M102.127,214.207a30.988,30.988,0,0,1,.533-6.786c.191-1.115.4-2.228.577-3.345a7.637,7.637,0,0,0,.111-.806,3.96,3.96,0,0,0-.063-.742c-.078-.532-.2-1.08-.325-1.627a41.867,41.867,0,0,1-1.264-6.757c-.045-1.225.083-2.287.068-3.424.008-1.119-.017-2.251-.1-3.351v-.006a.5.5,0,0,1,.463-.534h.055l10.342.409a.5.5,0,0,1,.48.514l-.087,2.967-.053-.24.968,1.921-.833-.093,1.1-1.341-.1.219.343-1.71.012.243a6.147,6.147,0,0,1-.289-1.677,2.423,2.423,0,0,1,.648-1.8,1.357,1.357,0,0,1,1.116-.4,1.338,1.338,0,0,1,1,.667,1.365,1.365,0,0,1,.121.287l.054.2.1.377.2.755-.028-.077.347.766a3.093,3.093,0,0,1,.23.952,3.565,3.565,0,0,1-.063.94l-.133.814-.544,3.286a3.11,3.11,0,0,1-.369.908l-.428.713-.845,1.416-1.674,2.8a2.222,2.222,0,0,0-.237,1.328l.074,1.65.13,3.3a42.28,42.28,0,0,1-.337,6.622,41.981,41.981,0,0,1-.757-6.567l-.08-3.294-.031-1.647a3.271,3.271,0,0,1,.358-1.866l1.706-2.862.845-1.416.421-.7a2.081,2.081,0,0,0,.249-.614l.532-3.223a8.224,8.224,0,0,0,.186-1.514,2.1,2.1,0,0,0-.156-.644l-.334-.737a.506.506,0,0,1-.027-.077l-.2-.755-.1-.378-.049-.18a.323.323,0,0,0-.03-.072.337.337,0,0,0-.553-.046,1.442,1.442,0,0,0-.345,1.074,5.162,5.162,0,0,0,.246,1.394.533.533,0,0,1,.012.244l-.344,1.71a.5.5,0,0,1-.1.219l-1.1,1.342a.5.5,0,0,1-.7.068.507.507,0,0,1-.129-.161l-.968-1.921a.5.5,0,0,1-.054-.24l.088-2.966.48.514-10.342-.409.518-.541c.083,1.16.106,2.294.1,3.441.015,1.129-.114,2.328-.069,3.368a41.245,41.245,0,0,0,1.24,6.583c.126.557.253,1.115.34,1.7a4.782,4.782,0,0,1,.071.948,8.111,8.111,0,0,1-.117.876c-.184,1.119-.329,2.243-.5,3.365A31.148,31.148,0,0,1,102.127,214.207Z" style="fill:#aebbc7"/><polyline points="111.036 191.832 110.03 190.691 110 187.706" style="fill:url(#a60e8f8a-d26e-40bc-99f8-44715f9764b0)"/><path d="M111.036,191.832l-1.381-.81a.252.252,0,0,1-.124-.213V190.7l-.03-2.985a.5.5,0,1,1,1-.01l.03,2.985-.125-.325Z" style="fill:#aebbc7"/><polyline points="107.227 191.86 107.565 190.664 107.519 187.679" style="fill:url(#a789ad48-85ce-4f6c-aa65-c8ae421c53da)"/><path d="M107.227,191.86l-.143-1.332-.019.144-.046-2.985a.5.5,0,0,1,1-.016l.046,2.985v.084a.1.1,0,0,1-.02.06Z" style="fill:#aebbc7"/><polyline points="104.137 191.615 105.084 190.583 105.044 187.598" style="fill:url(#a7917cae-2517-45c0-b270-0d351a0cd96b)"/><path d="M104.137,191.615l.579-1.37-.132.345-.04-2.985a.5.5,0,0,1,1-.014l.04,2.985,0,.121a.251.251,0,0,1-.134.224Z" style="fill:#aebbc7"/><path d="M112,193.985c-1.441,1.829-5.376.942-4.378,6.429" style="fill:url(#abced56a-12fd-4981-8778-9c81624c33dd)"/><path d="M112,193.985a4.118,4.118,0,0,1-1.73,1.35,6.407,6.407,0,0,0-1.744,1.129,3.184,3.184,0,0,0-.832,1.8,11.633,11.633,0,0,0-.072,2.146,6.183,6.183,0,0,1-.311-2.188,3.158,3.158,0,0,1,.857-2.11,5.193,5.193,0,0,1,1.945-1.13A5.78,5.78,0,0,0,112,193.985Z" style="fill:#aebbc7"/></g><g id="bcb138f7-96ec-41f2-9afe-465ed4c7feea" data-name="inset"><path d="M42.036,123.94c36.609,0,66.287,23.781,66.287,54.9" style="fill:none;stroke:#12171d;stroke-linecap:round;stroke-width:2px"/><path d="M110.823,178.835h-5c0-29.38-28.019-52.4-63.786-52.4v-5C80.608,121.44,110.823,146.651,110.823,178.835Z" style="fill:none;stroke:#12171d;stroke-linecap:round;stroke-width:2px"/><polygon points="43.495 128.926 34.86 123.94 43.495 118.953 43.495 128.926" style="fill:none;stroke:#12171d;stroke-linecap:round;stroke-width:2px"/><path d="M42.036,123.94c36.609,0,66.287,23.781,66.287,54.9" style="fill:none;stroke:#f4ae3d;stroke-miterlimit:10;stroke-width:5px"/><polygon points="43.495 128.926 34.86 123.94 43.495 118.953 43.495 128.926" style="fill:#f4ae3d"/></g></svg>
