<svg xmlns="http://www.w3.org/2000/svg" xmlns:xlink="http://www.w3.org/1999/xlink" width="654" height="228.582" viewBox="0 0 654 228.582"><defs><clipPath id="bb202994-7f92-4e07-a190-1700165ccf96"><rect x="360.128" y="-0.66" width="293.872" height="247.37" style="fill:none"/></clipPath><clipPath id="a1850045-e67f-4c82-ad8c-dbd29d86f14a"><rect x="-0.563" y="-0.66" width="293.872" height="247.37" transform="translate(292.747 246.051) rotate(180)" style="fill:none"/></clipPath></defs><g id="b963a6fc-a236-42e5-80a8-dd94cf3c5135" data-name="illustration"><g style="clip-path:url(#bb202994-7f92-4e07-a190-1700165ccf96)"><path d="M445.858,213.511c18.478,4.551,45.889,7.116,69.925,1.894" style="fill:none;stroke:#687581;stroke-miterlimit:10"/><path d="M618.331,95.337c-12.7-30.511-9.018-67.4,10.19-94.4a88.251,88.251,0,0,1,23.6-22.772A89.914,89.914,0,0,0,628.656,1.031c-19.078,27.039-22.769,63.745-10.325,94.306Z" style="fill:#687581"/><path d="M742.694,132.775c-21.737,17.5-52.979,22.009-78.552,10.586a81.41,81.41,0,0,1-23.1-15.122,83.648,83.648,0,0,0,23.163,14.97c25.584,11.288,56.625,6.832,78.487-10.434Z" style="fill:#687581"/><path d="M655.753,171.853c-.046,0-.107-.016-.152-.016a94.088,94.088,0,0,1-13.607-2.932.055.055,0,0,0-.045-.015c-43.839-12.846-76.345-56.27-77.6-108.265" style="fill:none;stroke:#687581;stroke-miterlimit:10"/><ellipse cx="692.652" cy="57.506" rx="66.421" ry="71.448" style="fill:none;stroke:#687581;stroke-miterlimit:10"/><path d="M419.761,119.138c3.664,30.606,23.62,59.325,52.561,70.9-29.1-11.277-49.226-40.227-52.561-70.9Z" style="fill:#687581"/><path d="M530.549,189.353c20.588-8.831,36.773-26.489,45.006-47.2a94.925,94.925,0,0,0,5.769-21.626,90.48,90.48,0,0,1-5.615,21.688c-8.13,20.778-24.442,38.532-45.16,47.137Z" style="fill:#687581"/><path d="M545.438,154.826A78.835,78.835,0,0,0,561.136,123a63.624,63.624,0,0,1-15.7,31.824Z" style="fill:#687581"/><path d="M435.337,118.741c3.7,23.32,19.163,44.8,41.308,53.722l4.443,1.619-4.488-1.5c-22.419-8.491-38.164-30.323-41.263-53.836Z" style="fill:#687581"/><path d="M515.783,215.405C558.7,204.5,586.1,170.616,594.854,138.883" style="fill:none;stroke:#687581;stroke-miterlimit:10"/><path d="M371.322,126.255c6.735,42.452,36.253,76.551,74.536,87.256.046.015.077.015.122.031a95.3,95.3,0,0,0,15.1,2.9h.046" style="fill:none;stroke:#687581;stroke-miterlimit:10"/><path d="M641.944,168.889c14.822,3.793,37.334,7.9,64.88,1.885,47.2-9.805,83.6-54.545,85.455-108.9" style="fill:none;stroke:#687581;stroke-miterlimit:10"/><path d="M601.838-45.921c-4.715,13.273-27.909,76.068-31.4,88.643s-11.7,37.2-22.355,35.8c.175,4.716.35,8.209-7.51,9.082A115.309,115.309,0,0,0,523.8,91.1l6.637,4.54,40.607,2.644" style="fill:none;stroke:#687581;stroke-miterlimit:10"/><path d="M548.081,78.524s-6.462-5.239-18.512-6.462S264.323,56.344,264.323,56.344" style="fill:none;stroke:#687581;stroke-miterlimit:10;stroke-width:0.5px"/><path d="M548.081,80.5s-6.462-5.239-18.512-6.462S264.323,58.319,264.323,58.319" style="fill:none;stroke:#687581;stroke-miterlimit:10;stroke-width:0.5px"/><polyline points="411.546 66.836 397.706 81.746 389.243 86.995" style="fill:none;stroke:#687581;stroke-miterlimit:10;stroke-width:0.5px"/><path d="M592.951-45.921c-8.732,18.546-27.231,58.08-29.85,63.843s-8.034,13.1-17.639,12.575S263.409,13.731,263.409,13.731" style="fill:none;stroke:#687581;stroke-miterlimit:10;stroke-width:0.5px"/><path d="M553.287-47.162,540.222,17.224s-1.048,3.842-2.27,5.064c4.715,1.747,7.335,5.589,7.51,8.209S538.889,66.087,535.277,73" style="fill:none;stroke:#687581;stroke-miterlimit:10;stroke-width:0.5px"/><path d="M587.71-47.162s-29.385,60.243-32.736,68.785a2.516,2.516,0,0,1-2.492,1.6L260.964,5.7" style="fill:none;stroke:#687581;stroke-miterlimit:10;stroke-width:0.5px"/><path d="M268.648,56.344c8.383-10.129,12.932-28.077,14.15-41.458a29.9,29.9,0,0,0-9.263-8.433s3.147-17.415,4.544-22.795" style="fill:none;stroke:#687581;stroke-miterlimit:10;stroke-width:0.5px"/><polyline points="260.961 79.725 409.163 88.124 444.973 86.719 498.237 89.681" style="fill:none;stroke:#687581;stroke-miterlimit:10"/><line x1="523.8" y1="91.101" x2="509.247" y2="90.292" style="fill:none;stroke:#687581;stroke-miterlimit:10"/><polyline points="519.961 125.523 523.805 125.764 537.734 122.999 566.015 122.999 581.386 120.634" style="fill:none;stroke:#687581;stroke-miterlimit:10"/><path d="M264.323,121.106l101.4,6.155,8.318-1.5,1-3.161s34.935-4.326,69.7-3.826l-3.161,1.83,47.608,2.985" style="fill:none;stroke:#687581;stroke-miterlimit:10"/><path d="M405.231,87.9l26.479,4.88a.337.337,0,0,1,.03.655L418.9,97.076a.337.337,0,0,0,.071.66l44.41,2.783a.336.336,0,0,1,.057.663l-55.828,13.347a.344.344,0,0,1-.09.009l-58.308-2.028a.332.332,0,0,0-.089.009l-14.983,3.535a.331.331,0,0,1-.077.009H262.334" style="fill:none;stroke:#687581;stroke-miterlimit:10;stroke-width:0.5px"/><polyline points="295.003 116.063 301.605 120.803 359.834 124.019 375.036 122.603" style="fill:none;stroke:#687581;stroke-miterlimit:10"/><line x1="541.636" y1="96.37" x2="518.409" y2="101.989" style="fill:none;stroke:#687581;stroke-miterlimit:10;stroke-width:0.5px"/><line x1="488.494" y1="109.243" x2="441.582" y2="120.604" style="fill:none;stroke:#687581;stroke-miterlimit:10;stroke-width:0.5px"/><line x1="556.434" y1="18.125" x2="253.109" y2="1.044" style="fill:none;stroke:#687581;stroke-miterlimit:10;stroke-width:0.5px"/><ellipse cx="419.761" cy="84.2" rx="4.269" ry="0.58" style="fill:none;stroke:#687581;stroke-miterlimit:10;stroke-width:0.5px"/><ellipse cx="526.507" cy="86.39" rx="4.269" ry="0.759" style="fill:none;stroke:#687581;stroke-miterlimit:10;stroke-width:0.5px"/><ellipse cx="539.546" cy="85.631" rx="1.609" ry="0.286" style="fill:none;stroke:#687581;stroke-miterlimit:10;stroke-width:0.5px"/><ellipse cx="522.238" cy="89.395" rx="1.609" ry="0.286" style="fill:none;stroke:#687581;stroke-miterlimit:10;stroke-width:0.5px"/><path d="M499.275,176.693h.015a60.363,60.363,0,0,0,13.13-1.6" style="fill:none;stroke:#687581;stroke-miterlimit:10;stroke-width:0.5px"/></g><g style="clip-path:url(#a1850045-e67f-4c82-ad8c-dbd29d86f14a)"><path d="M198.76,204.336c-17.078,4.206-42.414,6.577-64.63,1.75" style="fill:none;stroke:#687581;stroke-miterlimit:10"/><path d="M35.106,95.337c14.61-35.63,6.86-79.775-20.983-106.84A94.687,94.687,0,0,0,1.314-21.837,88.254,88.254,0,0,1,24.917.935c19.207,27,22.889,63.891,10.189,94.4Z" style="fill:#687581"/><path d="M-89.257,132.775c21.863,17.267,52.9,21.722,78.487,10.433a83.607,83.607,0,0,0,23.163-14.969,81.429,81.429,0,0,1-23.1,15.123c-25.574,11.423-56.816,6.917-78.553-10.587Z" style="fill:#687581"/><path d="M-2.316,171.853c.046,0,.107-.016.153-.016a94.074,94.074,0,0,0,13.606-2.932.057.057,0,0,1,.046-.015c43.839-12.846,76.345-56.27,77.6-108.265" style="fill:none;stroke:#687581;stroke-miterlimit:10"/><ellipse cx="-39.214" cy="57.506" rx="66.421" ry="71.448" style="fill:none;stroke:#687581;stroke-miterlimit:10"/><path d="M222.385,120.626c-4.067,27.026-22.331,52.048-48.085,62.016,25.6-10.269,43.692-35.069,48.085-62.016Z" style="fill:#687581"/><path d="M120.482,182.007C96,171.9,78.572,148.1,74.159,122.232c4.738,25.784,22,49.374,46.323,59.775Z" style="fill:#687581"/><path d="M106.72,150.094a56.184,56.184,0,0,1-13.5-25.261,76.418,76.418,0,0,0,13.5,25.261Z" style="fill:#687581"/><path d="M207.41,122.327c-4.469,20.967-20.339,39.665-41.212,45.565,20.584-6.565,36.062-24.828,41.212-45.565Z" style="fill:#687581"/><path d="M134.13,206.086c-39.669-10.081-65-41.4-73.084-70.728" style="fill:none;stroke:#687581;stroke-miterlimit:10"/><path d="M268,121.494c-6.225,39.239-33.853,72.948-69.238,82.842-.042.014-.07.014-.112.028a88.065,88.065,0,0,1-13.96,2.682h-.042" style="fill:none;stroke:#687581;stroke-miterlimit:10"/><path d="M11.494,168.889c-14.823,3.793-37.335,7.9-64.881,1.885-47.2-9.805-83.595-54.545-85.455-108.9" style="fill:none;stroke:#687581;stroke-miterlimit:10"/><path d="M51.6-45.921C56.314-32.648,79.509,30.147,83,42.722s11.7,37.2,22.354,35.8c-.174,4.716-.349,8.209,7.51,9.082A115.309,115.309,0,0,1,129.632,91.1L123,95.639,82.388,98.283" style="fill:none;stroke:#687581;stroke-miterlimit:10"/><path d="M105.356,78.524s6.462-5.239,18.513-6.462S389.114,56.344,389.114,56.344" style="fill:none;stroke:#687581;stroke-miterlimit:10;stroke-width:0.5px"/><path d="M105.356,80.5s6.462-5.239,18.513-6.462S389.114,58.319,389.114,58.319" style="fill:none;stroke:#687581;stroke-miterlimit:10;stroke-width:0.5px"/><polyline points="241.891 66.836 255.731 81.746 264.194 86.995" style="fill:none;stroke:#687581;stroke-miterlimit:10;stroke-width:0.5px"/><path d="M60.486-45.921c8.732,18.546,27.231,58.08,29.851,63.843s8.033,13.1,17.639,12.575S390.029,13.731,390.029,13.731" style="fill:none;stroke:#687581;stroke-miterlimit:10;stroke-width:0.5px"/><path d="M100.15-47.162l13.065,64.386s1.048,3.842,2.271,5.064c-4.716,1.747-7.335,5.589-7.51,8.209S114.549,66.087,118.161,73" style="fill:none;stroke:#687581;stroke-miterlimit:10;stroke-width:0.5px"/><path d="M65.727-47.162S95.112,13.081,98.463,21.623a2.516,2.516,0,0,0,2.492,1.6L392.474,5.7" style="fill:none;stroke:#687581;stroke-miterlimit:10;stroke-width:0.5px"/><path d="M384.789,56.344c-8.383-10.129-12.931-28.077-14.15-41.458A29.91,29.91,0,0,1,379.9,6.453s-3.147-17.415-4.545-22.795" style="fill:none;stroke:#687581;stroke-miterlimit:10;stroke-width:0.5px"/><polyline points="392.476 79.725 244.275 88.124 208.465 86.719 155.201 89.681" style="fill:none;stroke:#687581;stroke-miterlimit:10"/><line x1="129.638" y1="91.101" x2="144.191" y2="90.292" style="fill:none;stroke:#687581;stroke-miterlimit:10"/><polyline points="133.476 125.523 129.632 125.764 115.703 122.999 87.422 122.999 72.051 120.634" style="fill:none;stroke:#687581;stroke-miterlimit:10"/><path d="M389.114,121.106l-101.4,6.155-8.318-1.5-1-3.161s-34.936-4.326-69.7-3.826l3.161,1.83-47.608,2.985" style="fill:none;stroke:#687581;stroke-miterlimit:10"/><path d="M248.206,87.9l-26.478,4.88a.337.337,0,0,0-.031.655l12.838,3.64a.337.337,0,0,1-.071.66l-44.411,2.783a.336.336,0,0,0-.057.663l55.829,13.347a.336.336,0,0,0,.09.009l58.307-2.028a.332.332,0,0,1,.089.009l14.983,3.535a.346.346,0,0,0,.078.009H391.1" style="fill:none;stroke:#687581;stroke-miterlimit:10;stroke-width:0.5px"/><polyline points="358.434 116.063 351.832 120.803 293.603 124.019 278.402 122.603" style="fill:none;stroke:#687581;stroke-miterlimit:10"/><line x1="111.802" y1="96.37" x2="135.028" y2="101.989" style="fill:none;stroke:#687581;stroke-miterlimit:10;stroke-width:0.5px"/><line x1="164.944" y1="109.243" x2="211.855" y2="120.604" style="fill:none;stroke:#687581;stroke-miterlimit:10;stroke-width:0.5px"/><line x1="97.003" y1="18.125" x2="400.328" y2="1.044" style="fill:none;stroke:#687581;stroke-miterlimit:10;stroke-width:0.5px"/><ellipse cx="233.677" cy="84.2" rx="4.269" ry="0.58" style="fill:none;stroke:#687581;stroke-miterlimit:10;stroke-width:0.5px"/><ellipse cx="126.93" cy="86.39" rx="4.269" ry="0.759" style="fill:none;stroke:#687581;stroke-miterlimit:10;stroke-width:0.5px"/><ellipse cx="113.891" cy="85.631" rx="1.609" ry="0.286" style="fill:none;stroke:#687581;stroke-miterlimit:10;stroke-width:0.5px"/><ellipse cx="131.2" cy="89.395" rx="1.609" ry="0.286" style="fill:none;stroke:#687581;stroke-miterlimit:10;stroke-width:0.5px"/><path d="M154.162,176.693h-.015a60.371,60.371,0,0,1-13.13-1.6" style="fill:none;stroke:#687581;stroke-miterlimit:10;stroke-width:0.5px"/></g><path d="M534.791,220.308V193.923l-8.892-.443-.685-.026v-1.306a3.646,3.646,0,0,0-.85-2.322,25.81,25.81,0,0,0-2.156-1.573c-.406-.177-5.67-2.3-6.241-2.524l14.372-31.814a25.493,25.493,0,0,0,2.892-8.994V144.9l2.715-.495a.386.386,0,0,0,.228-.114.51.51,0,0,0,.216-.419v-1.7a.537.537,0,0,0-.482-.533c-1.041-.089-3.463-.292-4.732-.343a3.161,3.161,0,0,0-.254-.329l-.025-.026c-.266-.469-1.129-1.966-2.347-4.084h-.012c-3.742-6.508-10.846-18.838-14.347-24.812v-5.391a3.029,3.029,0,0,0-.546-1.789l4.047-1.725-.216-7.954a3.764,3.764,0,0,0-3.273-3.6l-.8-.1.026-.215-4.96-4.77V82.613c-.064-2.22-9.019-1.967-8.956.266v3.3l-5.353,6.913-.013.013-2.587,1.129c-1.332.583-2.207,3.374-2.258,4.82l-.241,7.7,3.323.228a1.79,1.79,0,0,0-.1.635c.013.418.051,4.249.1,6.253h-.1l-12.5,31.332-1.154,1.053-1.281,3.9c-.267.025-.508.076-.749.1l-.621-.66s-.508,0-.482,1.4c-.5.2-1.332.177-.368,1.5a2.277,2.277,0,0,1,.291.685c.051.177.1.646.191,1.281l-3.552.761V155.2a3.818,3.818,0,0,0-5.772-.051h-2.067c-.343-.012-.673.33-.876.863l-1.573-.038c-.367,0-.685.621-.7,1.4s.279,1.4.647,1.408h.012l1.561.038c.19.546.494.888.85.9h1.763a3.83,3.83,0,0,0,6.089.52h1.6c.3,0,.583-.241.786-.659l1.472.038c.368.012.672-.584.7-1.345.14.38.305.761.482,1.129,1.332,2.638,13.688,26.689,13.688,26.689s-3.7,1.979-5.214,2.55-2.512,2.359-3.12,3.171-.622,1.649.583,2.791l-1.129.127-1,.114L472.8,220.461v.012l-7,.381v1.116l39.107,1.116,36.723-1.408v-1.141Zm-32.08-46.478-9.92-19.9,19.789-4.643.025.013Zm11.543-28.6-21.108,5.124L502.7,126.1l.7-.825.685-1.712c2.626,5.315,10.313,20.917,10.313,20.917A3.524,3.524,0,0,0,514.254,145.226Z" style="fill:#404d59"/><g id="b0a7ba92-5fe7-41b3-a414-309121644e75" data-name="Offset Group"><path d="M535.791,192.972l-9.577-.478v-.346a5.37,5.37,0,0,0-.529-2.175,2.676,2.676,0,0,0-.731-.955c-.12-.087-.307-.232-.542-.414a13.353,13.353,0,0,0-1.8-1.267c-.331-.144-3.6-1.463-5.3-2.147,0,0,13.942-30.863,13.9-30.783a27.252,27.252,0,0,0,2.934-8.661l1.945-.355a1.387,1.387,0,0,0,.728-.336,1.49,1.49,0,0,0,.4-.486,1.514,1.514,0,0,0,.172-.7v-1.7a1.536,1.536,0,0,0-1.4-1.529c-.916-.079-2.947-.249-4.3-.323-.222-.389-.664-1.157-1.266-2.2l-1.3-2.259h-.013c-3.808-6.621-10.647-18.489-14.062-24.318a1.011,1.011,0,0,1,.137.506v-5.391a4.27,4.27,0,0,0-.191-1.28l3.71-1.581s-.234-8.634-.234-8.641a4.764,4.764,0,0,0-4.147-4.56l-.183-.023-4.676-4.5V82.584a1.842,1.842,0,0,0-.39-1.075,3.41,3.41,0,0,0-1.759-1.063,11.3,11.3,0,0,0-3.406-.37c-1.726.051-3.874.423-4.849,1.456a1.9,1.9,0,0,0-.552,1.347v2.956l-5,6.452-2.359,1.029a3.509,3.509,0,0,0-1.431,1.287,9.5,9.5,0,0,0-1.426,4.418l-.271,8.663,3.257.224c0,.262.01.685.017,1.206.017,1.253.041,3.037.069,4.333l-12.43,31.169-1.178,1.075L476.71,148.9l-.322-.342-.4.028a1.7,1.7,0,0,0-.551.14,1.458,1.458,0,0,0-.516.456,2,2,0,0,0-.272.568,3.175,3.175,0,0,0-.109.517,1.668,1.668,0,0,0-.409.273,1.355,1.355,0,0,0-.342.5,1.425,1.425,0,0,0-.081.709,3.059,3.059,0,0,0,.643,1.348s0-.053.115.336c.009.036.021.108.038.229l-2.093.449a4.793,4.793,0,0,0-3.261-1.261,4.75,4.75,0,0,0-1.957.421,4.877,4.877,0,0,0-1.317.872s-1.647,0-1.611,0a1.583,1.583,0,0,0-.933.272,2.093,2.093,0,0,0-.57.575l-.982-.023a1.421,1.421,0,0,0-1,.425,3.213,3.213,0,0,0-.07,3.919,1.433,1.433,0,0,0,1.015.459l.939.023a2.146,2.146,0,0,0,.536.59,1.652,1.652,0,0,0,.948.326H465.4a4.845,4.845,0,0,0,1.432,1.2,4.79,4.79,0,0,0,2.312.593,4.849,4.849,0,0,0,3.269-1.269H473.6a1.626,1.626,0,0,0,.864-.253,1.96,1.96,0,0,0,.45-.393l.909.024a1.354,1.354,0,0,0,.64-.138c2.059,4.043,10.822,21.1,12.92,25.188-1.175.612-3.234,1.663-4.233,2.041a7.8,7.8,0,0,0-3.235,3.046c-.131.189-.234.338-.314.444a2.642,2.642,0,0,0-.615,1.839,2.568,2.568,0,0,0,.181.763l-1.083.124-8.034,25.6-7.251.4v3.035s40.079,1.144,40.146,1.144l37.684-1.445v-3.072l-6.837-.228Z" style="fill:none;stroke:#aebbc7;stroke-linecap:round;stroke-linejoin:round;stroke-width:0.5000000000025px"/><path d="M535.541,193.21l-9.577-.478v-.584a5.126,5.126,0,0,0-.5-2.066,2.423,2.423,0,0,0-.654-.862c-.124-.09-.314-.238-.547-.419a13.315,13.315,0,0,0-1.751-1.235c-.343-.15-3.926-1.594-5.536-2.241,0,0,14.05-31.1,14.02-31.041a26.842,26.842,0,0,0,2.927-8.751l2.133-.389a1.146,1.146,0,0,0,.6-.281,1.261,1.261,0,0,0,.484-1v-1.7a1.286,1.286,0,0,0-1.169-1.28c-.945-.081-3.066-.259-4.4-.315-.014-.017-.029-.035-.065-.076-.209-.366-.665-1.158-1.3-2.261l-1.227-2.133h-.013c-3.793-6.6-10.7-18.577-14.133-24.441a.751.751,0,0,1,.1.379v-5.391a3.973,3.973,0,0,0-.253-1.418l3.767-1.606s-.229-8.464-.229-8.469a4.516,4.516,0,0,0-3.928-4.321l-.265-.034-4.813-4.628V82.591a1.594,1.594,0,0,0-.339-.929,3.161,3.161,0,0,0-1.631-.977,11.035,11.035,0,0,0-3.327-.359c-1.732.051-3.778.428-4.675,1.378a1.648,1.648,0,0,0-.484,1.175v3.042s-5.129,6.623-5.077,6.565l-2.427,1.059a3.26,3.26,0,0,0-1.324,1.2,9.243,9.243,0,0,0-1.383,4.285l-.263,8.422,3.245.223c0,.184.012.719.021,1.437.017,1.27.041,3.083.07,4.382l-12.47,31.269-1.172,1.07-1.167,3.548-.529-.562-.3.021a1.323,1.323,0,0,0-.436.112,1.2,1.2,0,0,0-.427.379,1.747,1.747,0,0,0-.237.5,3.027,3.027,0,0,0-.115.614,1.511,1.511,0,0,0-.472.285,1.106,1.106,0,0,0-.279.407,1.173,1.173,0,0,0-.066.586,2.81,2.81,0,0,0,.592,1.226s.033,0,.16.427c.015.056.038.2.076.488l-2.449.525a4.566,4.566,0,0,0-5.04-.884,4.663,4.663,0,0,0-1.319.894s-1.747,0-1.72,0a1.334,1.334,0,0,0-.786.23,1.957,1.957,0,0,0-.576.621l-1.114-.027a1.171,1.171,0,0,0-.82.354,2.973,2.973,0,0,0-.064,3.568,1.183,1.183,0,0,0,.834.381h0l1.08.027a1.979,1.979,0,0,0,.54.635,1.4,1.4,0,0,0,.8.277h1.374a4.614,4.614,0,0,0,1.431,1.227,4.533,4.533,0,0,0,2.192.562,4.605,4.605,0,0,0,3.17-1.269H473.6a1.375,1.375,0,0,0,.731-.215,1.771,1.771,0,0,0,.466-.434l1.035.027a1.108,1.108,0,0,0,.6-.155,1.184,1.184,0,0,0,.13-.088c1.837,3.613,11.244,21.929,13.156,25.65-1.123.588-3.4,1.76-4.478,2.167a7.574,7.574,0,0,0-3.121,2.955c-.129.188-.236.341-.321.456a2.387,2.387,0,0,0-.563,1.666,2.436,2.436,0,0,0,.306.991l-1.269.145-8.036,25.606-7.188.39V222.7s39.836,1.137,39.886,1.137l37.444-1.436v-2.589l-6.837-.228Z" style="fill:none;stroke:#aebbc7;stroke-linecap:round;stroke-linejoin:round;stroke-width:0.5000000000025px"/><path d="M535.291,193.448l-9.373-.468-.2-.008v-.824a4.885,4.885,0,0,0-.478-1.956,2.182,2.182,0,0,0-.577-.77c-.128-.093-.322-.244-.553-.423a13.4,13.4,0,0,0-1.7-1.2c-.357-.156-4.315-1.75-5.771-2.336,0,0,14.158-31.338,14.137-31.3a26.369,26.369,0,0,0,2.919-8.841l2.323-.424a.78.78,0,0,0,.444-.2,1.011,1.011,0,0,0,.43-.829v-1.7a1.036,1.036,0,0,0-.94-1.031c-.974-.083-3.185-.269-4.508-.33-.04-.051-.08-.1-.139-.167-.2-.356-.663-1.156-1.309-2.279l-1.155-2.008h-.012c-3.778-6.569-10.747-18.664-14.205-24.565a.5.5,0,0,1,.069.253v-5.391a3.65,3.65,0,0,0-.33-1.55l3.84-1.638-.225-8.3a4.265,4.265,0,0,0-3.71-4.081l-.347-.044-4.949-4.76V82.6a1.338,1.338,0,0,0-.287-.784,2.924,2.924,0,0,0-1.5-.889,10.8,10.8,0,0,0-3.248-.349c-1.738.051-3.682.432-4.5,1.3a1.4,1.4,0,0,0-.416,1v3.127s-5.207,6.726-5.172,6.685l-2.482,1.083a3.011,3.011,0,0,0-1.217,1.11,8.993,8.993,0,0,0-1.34,4.153l-.256,8.181s3.242.223,3.242.217c0,.065,0,.125,0,.195,0,.142.012.707.022,1.477.017,1.288.042,3.131.071,4.431l-12.51,31.37-1.166,1.064-1.224,3.719-.11.017-.074.012-.606-.644-.2.013a.838.838,0,0,0-.659.386,1.5,1.5,0,0,0-.2.425,2.983,2.983,0,0,0-.116.722,1.448,1.448,0,0,0-.54.287.852.852,0,0,0-.216.316.927.927,0,0,0-.051.462,2.563,2.563,0,0,0,.54,1.1,1.509,1.509,0,0,1,.2.514c.022.079.053.3.105.693l.008.059-2.808.6a4.289,4.289,0,0,0-1.274-.907,4.343,4.343,0,0,0-1.83-.4,4.254,4.254,0,0,0-1.752.377,4.392,4.392,0,0,0-1.319.916s-1.85,0-1.832,0a1.083,1.083,0,0,0-.639.189,1.814,1.814,0,0,0-.572.665l-1.256-.03a.919.919,0,0,0-.644.282,2.735,2.735,0,0,0-.059,3.218.929.929,0,0,0,.653.3h0l1.231.03a1.823,1.823,0,0,0,.535.68,1.142,1.142,0,0,0,.652.229h1.5a4.371,4.371,0,0,0,1.426,1.258,4.289,4.289,0,0,0,2.072.531,4.35,4.35,0,0,0,3.069-1.269H473.6a1.124,1.124,0,0,0,.6-.177,1.607,1.607,0,0,0,.472-.475l1.169.03a.863.863,0,0,0,.467-.121,1.122,1.122,0,0,0,.323-.293c1.392,2.752,11.758,22.933,13.424,26.177-1.018.536-3.558,1.854-4.723,2.294a7.341,7.341,0,0,0-3,2.864c-.129.187-.238.345-.33.467a2.14,2.14,0,0,0-.511,1.5,2.421,2.421,0,0,0,.479,1.213l-.176.02-1.325.151-8.04,25.616-7.124.387v2.076l39.627,1.13,37.2-1.427v-2.106l-6.837-.228Z" style="fill:none;stroke:#aebbc7;stroke-linecap:round;stroke-linejoin:round;stroke-width:0.5000000000025px"/><path d="M535.041,193.686l-9.133-.456-.444-.017v-1.065a4.633,4.633,0,0,0-.453-1.846,1.953,1.953,0,0,0-.5-.678c-.132-.1-.33-.249-.56-.428a13.461,13.461,0,0,0-1.644-1.172c-.376-.164-4.816-1.952-6.006-2.43,0,0,14.265-31.576,14.254-31.556a25.928,25.928,0,0,0,2.908-8.93l2.517-.459a.588.588,0,0,0,.336-.157.742.742,0,0,0,.236-.27.76.76,0,0,0,.087-.354v-1.7a.788.788,0,0,0-.711-.782c-1-.086-3.316-.28-4.619-.338a3.32,3.32,0,0,0-.211-.262c-.013-.013-.013-.013.015.028-.185-.327-.658-1.149-1.336-2.328L528.7,136.6h-.013c-3.76-6.539-10.8-18.751-14.276-24.689a.248.248,0,0,1,.035.127v-5.391a3.342,3.342,0,0,0-.426-1.675l3.931-1.676-.22-8.125a4.015,4.015,0,0,0-3.491-3.842l-.553-.07.011-.093-4.973-4.782V82.605a1.088,1.088,0,0,0-.235-.639,2.694,2.694,0,0,0-1.378-.8,10.577,10.577,0,0,0-3.17-.338c-1.743.051-3.585.437-4.326,1.221a1.158,1.158,0,0,0-.347.832v3.213s-5.285,6.826-5.266,6.8L491.46,94a2.775,2.775,0,0,0-1.11,1.021,8.756,8.756,0,0,0-1.3,4.02l-.249,7.941,3.262.224a2.315,2.315,0,0,0-.032.413c0,.145.012.713.022,1.482.018,1.317.043,3.212.073,4.514h-.015l-12.536,31.436-1.16,1.059-1.252,3.8c-.091.012-.178.026-.261.038l-.2.031-.614-.652-.1,0a.573.573,0,0,0-.206.056.706.706,0,0,0-.249.224,1.236,1.236,0,0,0-.167.355,2.971,2.971,0,0,0-.111.834l-.061.019a1.42,1.42,0,0,0-.553.265.617.617,0,0,0-.154.224.675.675,0,0,0-.035.339,2.3,2.3,0,0,0,.489.981,1.885,1.885,0,0,1,.248.6c.029.1.062.346.113.729.012.09.025.186.038.288l-3.171.68a4.048,4.048,0,0,0-1.294-.954,4.091,4.091,0,0,0-1.725-.376,4.009,4.009,0,0,0-1.65.355,4.122,4.122,0,0,0-1.314.938s-1.957,0-1.948,0a.829.829,0,0,0-.492.147,1.679,1.679,0,0,0-.557.711l-1.409-.034a.673.673,0,0,0-.469.21,2.5,2.5,0,0,0-.053,2.867.675.675,0,0,0,.472.226h.008l1.391.034a1.7,1.7,0,0,0,.521.725.89.89,0,0,0,.5.18h1.628a4.115,4.115,0,0,0,1.418,1.289,4.036,4.036,0,0,0,1.951.5,4.109,4.109,0,0,0,2.964-1.269H473.6a.874.874,0,0,0,.466-.139,1.458,1.458,0,0,0,.469-.517l1.314.034a.6.6,0,0,0,.331-.086,1.037,1.037,0,0,0,.377-.431,1.745,1.745,0,0,0,.087-.2c.055.121.111.242.17.365,1.258,2.491,12.335,24.057,13.575,26.471-.813.43-3.693,1.94-4.968,2.422a7.1,7.1,0,0,0-2.889,2.773c-.129.185-.241.347-.339.478a1.893,1.893,0,0,0-.459,1.322,2.491,2.491,0,0,0,.706,1.43l-.623.07-1.164.133s-8.023,25.562-8.033,25.626l-7.071.384v1.6l39.367,1.123,36.963-1.417V220.3l-6.837-.228Z" style="fill:none;stroke:#aebbc7;stroke-linecap:round;stroke-linejoin:round;stroke-width:0.5000000000025px"/></g><path d="M534.791,220.308V193.923l-8.892-.443-.685-.026v-1.306a3.646,3.646,0,0,0-.85-2.322,25.81,25.81,0,0,0-2.156-1.573c-.406-.177-5.67-2.3-6.241-2.524l14.372-31.814a25.493,25.493,0,0,0,2.892-8.994V144.9l2.715-.495a.386.386,0,0,0,.228-.114.51.51,0,0,0,.216-.419v-1.7a.537.537,0,0,0-.482-.533c-1.041-.089-3.463-.292-4.732-.343a3.161,3.161,0,0,0-.254-.329l-.025-.026c-.266-.469-1.129-1.966-2.347-4.084h-.012c-3.742-6.508-10.846-18.838-14.347-24.812v-5.391a3.029,3.029,0,0,0-.546-1.789l4.047-1.725-.216-7.954a3.764,3.764,0,0,0-3.273-3.6l-.8-.1.026-.215-4.96-4.77V82.613c-.064-2.22-9.019-1.967-8.956.266v3.3l-5.353,6.913-.013.013-2.587,1.129c-1.332.583-2.207,3.374-2.258,4.82l-.241,7.7,3.323.228a1.79,1.79,0,0,0-.1.635c.013.418.051,4.249.1,6.253h-.1l-12.5,31.332-1.154,1.053-1.281,3.9c-.267.025-.508.076-.749.1l-.621-.66s-.508,0-.482,1.4c-.5.2-1.332.177-.368,1.5a2.277,2.277,0,0,1,.291.685c.051.177.1.646.191,1.281l-3.552.761V155.2a3.818,3.818,0,0,0-5.772-.051h-2.067c-.343-.012-.673.33-.876.863l-1.573-.038c-.367,0-.685.621-.7,1.4s.279,1.4.647,1.408h.012l1.561.038c.19.546.494.888.85.9h1.763a3.83,3.83,0,0,0,6.089.52h1.6c.3,0,.583-.241.786-.659l1.472.038c.368.012.672-.584.7-1.345.14.38.305.761.482,1.129,1.332,2.638,13.688,26.689,13.688,26.689s-3.7,1.979-5.214,2.55-2.512,2.359-3.12,3.171-.622,1.649.583,2.791l-1.129.127-1,.114L472.8,220.461v.012l-7,.381v1.116l39.107,1.116,36.723-1.408v-1.141Z" style="fill:none;stroke:#aebbc7;stroke-linecap:round;stroke-linejoin:round;stroke-width:0.5000000000025px"/><polygon points="502.711 173.83 492.791 153.928 512.58 149.285 512.605 149.298 502.711 173.83" style="fill:none;stroke:#aebbc7;stroke-linecap:round;stroke-linejoin:round"/><path d="M514.254,145.226l-21.108,5.124L502.7,126.1l.7-.825.685-1.712c2.626,5.315,10.313,20.917,10.313,20.917A3.524,3.524,0,0,0,514.254,145.226Z" style="fill:none;stroke:#aebbc7;stroke-linecap:round;stroke-linejoin:round"/><path d="M541.629,220.536l-42.494-1.43q-.9-.03-1.8.019l-31.541,1.724v1.122l39.118,1.121,36.719-1.408Z" style="fill:none;stroke:#aebbc7;stroke-linecap:round;stroke-linejoin:round;stroke-width:0.5px"/><path d="M465.792,221.971l31.541-1.724q.9-.05,1.8-.019l42.494,1.43" style="fill:none;stroke:#aebbc7;stroke-linecap:round;stroke-linejoin:round;stroke-width:0.5px"/><polyline points="472.795 220.466 480.844 194.84 502.852 192.34 534.796 193.925 534.796 220.466" style="fill:none;stroke:#aebbc7;stroke-linecap:round;stroke-linejoin:round;stroke-width:0.5px"/><line x1="530.467" y1="220.161" x2="525.896" y2="193.484" style="fill:none;stroke:#aebbc7;stroke-linecap:round;stroke-linejoin:round;stroke-width:0.5px"/><line x1="524.129" y1="193.396" x2="524.129" y2="219.947" style="fill:none;stroke:#aebbc7;stroke-linecap:round;stroke-linejoin:round;stroke-width:0.5px"/><line x1="520.833" y1="219.836" x2="516.212" y2="193.003" style="fill:none;stroke:#aebbc7;stroke-linecap:round;stroke-linejoin:round;stroke-width:0.5px"/><line x1="514.617" y1="193.003" x2="514.617" y2="219.627" style="fill:none;stroke:#aebbc7;stroke-linecap:round;stroke-linejoin:round;stroke-width:0.5px"/><line x1="510.897" y1="219.502" x2="506.567" y2="192.525" style="fill:none;stroke:#aebbc7;stroke-linecap:round;stroke-linejoin:round;stroke-width:0.5px"/><line x1="504.861" y1="192.44" x2="504.861" y2="219.299" style="fill:none;stroke:#aebbc7;stroke-linecap:round;stroke-linejoin:round;stroke-width:0.5px"/><line x1="499.93" y1="219.095" x2="499.93" y2="192.632" style="fill:none;stroke:#aebbc7;stroke-linecap:round;stroke-linejoin:round;stroke-width:0.5px"/><line x1="498.697" y1="192.812" x2="490.72" y2="219.502" style="fill:none;stroke:#aebbc7;stroke-linecap:round;stroke-linejoin:round;stroke-width:0.5px"/><line x1="490.171" y1="219.502" x2="490.715" y2="193.719" style="fill:none;stroke:#aebbc7;stroke-linecap:round;stroke-linejoin:round;stroke-width:0.5px"/><line x1="489.44" y1="193.863" x2="481.574" y2="219.987" style="fill:none;stroke:#aebbc7;stroke-linecap:round;stroke-linejoin:round;stroke-width:0.5px"/><line x1="481.843" y1="194.726" x2="481.843" y2="219.095" style="fill:none;stroke:#aebbc7;stroke-linecap:round;stroke-linejoin:round;stroke-width:0.5px"/><path d="M482.97,194.6c-1.2-1.14-1.2-1.988-.586-2.8s1.616-2.585,3.123-3.164,5.213-2.546,5.213-2.546l1.7-1.312,7.253-.964,1.467,1.119a1.489,1.489,0,0,1-.193.926c-.27.424-.656,1.157.771,2.237a2.843,2.843,0,0,1,1.274,2.663v1.582" style="fill:none;stroke:#aebbc7;stroke-linecap:round;stroke-linejoin:round;stroke-width:0.5px"/><path d="M515.913,185.7s5.864,2.354,6.289,2.547a23.416,23.416,0,0,1,2.16,1.582,3.58,3.58,0,0,1,.849,2.315v1.3" style="fill:none;stroke:#aebbc7;stroke-linecap:round;stroke-linejoin:round;stroke-width:0.5px"/><path d="M512.751,192.831l17.592-38.92a25.569,25.569,0,0,0,2.893-8.99" style="fill:none;stroke:#aebbc7;stroke-linecap:round;stroke-linejoin:round;stroke-width:0.5px"/><path d="M501.714,188.1s16.089-37.425,16.668-38.814a20.456,20.456,0,0,0,1.235-4.36,10.576,10.576,0,0,1,.733-2.893c.385-.888.926-1.312,0-2.084v-.5s-.155-.579-.579-.656-.926.5-1.08,1c0,0-1.814,1.235-2.47,1.62a6.551,6.551,0,0,0-1.967,3.82l-13,32.217-3.241,4.629v1.937" style="fill:none;stroke:#aebbc7;stroke-linecap:round;stroke-linejoin:round;stroke-width:0.5px"/><path d="M520.35,139.944a1.423,1.423,0,0,0-.926.965c-.27.81-.647,2.448-.647,2.448" style="fill:none;stroke:#aebbc7;stroke-linecap:round;stroke-linejoin:round;stroke-width:0.5px"/><line x1="519.424" y1="140.909" x2="517.687" y2="142.452" style="fill:none;stroke:#aebbc7;stroke-linecap:round;stroke-linejoin:round;stroke-width:0.5px"/><line x1="517.024" y1="152.458" x2="530.343" y2="153.911" style="fill:none;stroke:#aebbc7;stroke-linecap:round;stroke-linejoin:round;stroke-width:0.5px"/><path d="M519.656,155.979l5.584.446a.61.61,0,0,1,.5.878l-1.376,2.781-4.041,3.074a1.269,1.269,0,0,1-1.979-.629l-.963-3.062,1.2-2.837A1.076,1.076,0,0,1,519.656,155.979Z" style="fill:none;stroke:#aebbc7;stroke-linecap:round;stroke-linejoin:round;stroke-width:0.5px"/><line x1="526.057" y1="149.321" x2="524.422" y2="153.265" style="fill:none;stroke:#aebbc7;stroke-linecap:round;stroke-linejoin:round;stroke-width:0.5px"/><line x1="523.181" y1="156.26" x2="520.321" y2="163.159" style="fill:none;stroke:#aebbc7;stroke-linecap:round;stroke-linejoin:round;stroke-width:0.5px"/><path d="M492.993,185.757c-.473,0-.857.8-.857,1.789s.384,1.789.857,1.789h.662c.474,0,.857-.8.857-1.789s-.383-1.789-.857-1.789Z" style="fill:none;stroke:#aebbc7;stroke-linecap:round;stroke-linejoin:round;stroke-width:0.5px"/><ellipse cx="509.719" cy="184.594" rx="1.941" ry="1.29" transform="translate(-28.886 246.185) rotate(-26.431)" style="fill:none;stroke:#aebbc7;stroke-linecap:round;stroke-linejoin:round;stroke-width:0.5px"/><path d="M492.993,189.335c.474,0,.858-.8.858-1.789s-.384-1.789-.858-1.789" style="fill:none;stroke:#aebbc7;stroke-linecap:round;stroke-linejoin:round;stroke-width:0.5px"/><path d="M493.292,110.761c-.473,0-.857.8-.857,1.789s.384,1.788.857,1.788h.662c.474,0,.857-.8.857-1.788s-.383-1.789-.857-1.789Z" style="fill:none;stroke:#aebbc7;stroke-linecap:round;stroke-linejoin:round;stroke-width:0.5px"/><path d="M493.292,114.338c.474,0,.858-.8.858-1.788s-.384-1.789-.858-1.789" style="fill:none;stroke:#aebbc7;stroke-linecap:round;stroke-linejoin:round;stroke-width:0.5px"/><path d="M497.68,109.441c-.474,0-.858.8-.858,1.789s.384,1.789.858,1.789h.661c.474,0,.858-.8.858-1.789s-.384-1.789-.858-1.789Z" style="fill:none;stroke:#aebbc7;stroke-linecap:round;stroke-linejoin:round;stroke-width:0.5px"/><path d="M497.68,113.019c.473,0,.857-.8.857-1.789s-.384-1.789-.857-1.789" style="fill:none;stroke:#aebbc7;stroke-linecap:round;stroke-linejoin:round;stroke-width:0.5px"/><path d="M463.348,156.011c.209-.534.528-.873.88-.867h2.138c.561.011,1.006.9,1.048,2.029,0,.09.006.182,0,.273-.024,1.261-.532,2.275-1.137,2.264h-2.137c-.352-.007-.66-.359-.849-.9" style="fill:none;stroke:#aebbc7;stroke-linecap:round;stroke-linejoin:round;stroke-width:0.5px"/><path d="M464.144,159.709c.6.012,1.113-1,1.137-2.262s-.448-2.292-1.053-2.3" style="fill:none;stroke:#aebbc7;stroke-linecap:round;stroke-linejoin:round;stroke-width:0.5px"/><path d="M474.727,158.176a3.693,3.693,0,0,1-.345,1.4c-.2.409-.482.659-.784.653H472" style="fill:none;stroke:#aebbc7;stroke-linecap:round;stroke-linejoin:round;stroke-width:0.5px"/><path d="M461.774,155.975c-.37-.007-.682.614-.7,1.387s.274,1.4.645,1.411l2.293.052c.37.007.682-.614.7-1.386s-.274-1.405-.645-1.411Z" style="fill:none;stroke:#aebbc7;stroke-linecap:round;stroke-linejoin:round;stroke-width:0.5px"/><path d="M476.553,158.225c-.015.772-.326,1.394-.7,1.386l-1.474-.035" style="fill:none;stroke:#aebbc7;stroke-linecap:round;stroke-linejoin:round;stroke-width:0.5px"/><path d="M461.723,158.773c.37.007.682-.614.7-1.387s-.274-1.4-.645-1.411" style="fill:none;stroke:#aebbc7;stroke-linecap:round;stroke-linejoin:round;stroke-width:0.5px"/><path d="M516.656,142.449c-.442-.008-.814.733-.831,1.654s.328,1.675.77,1.684h1.429c.441.008.813-.733.83-1.654s-.327-1.676-.769-1.684Z" style="fill:none;stroke:#aebbc7;stroke-linecap:round;stroke-linejoin:round;stroke-width:0.5px"/><path d="M516.6,145.787c.442.008.814-.733.83-1.654s-.327-1.676-.769-1.684" style="fill:none;stroke:#aebbc7;stroke-linecap:round;stroke-linejoin:round;stroke-width:0.5px"/><path d="M497.45,185.3c-.474,0-.858.8-.858,1.788s.384,1.789.858,1.789h.661c.474,0,.858-.8.858-1.789s-.384-1.788-.858-1.788Z" style="fill:none;stroke:#aebbc7;stroke-linecap:round;stroke-linejoin:round;stroke-width:0.5px"/><path d="M497.45,188.877c.473,0,.857-.8.857-1.789s-.384-1.788-.857-1.788" style="fill:none;stroke:#aebbc7;stroke-linecap:round;stroke-linejoin:round;stroke-width:0.5px"/><path d="M496.476,184.237c.266-1.15-.591-2.106-1.351-.832,0,0-14.947-30.972-15.755-32.27s-1.887-1-2.769-.882l-.613-.662s-.514,0-.49,1.4c-.49.2-1.323.171-.367,1.494a2,2,0,0,1,.294.687,21.287,21.287,0,0,0,1.617,6.223c1.323,2.647,13.678,26.7,13.678,26.7" style="fill:none;stroke:#aebbc7;stroke-linecap:round;stroke-linejoin:round"/><polyline points="491.964 176.864 493.287 177.01 497.238 184.136" style="fill:none;stroke:#aebbc7;stroke-linecap:round;stroke-linejoin:round;stroke-width:0.5px"/><line x1="502.711" y1="173.83" x2="492.797" y2="153.911" style="fill:none;stroke:#aebbc7;stroke-linecap:round;stroke-linejoin:round;stroke-width:0.5px"/><path d="M486.843,155.276a2.394,2.394,0,0,1-.245,1.323c-.319.686-.686,1.4.245,1.862-.171,1.1.466,1.2.907.662s.367-.588,1.078-.637,1.421-1.054,1.788-1.667,1.25-2.719,1.25-2.719" style="fill:none;stroke:#aebbc7;stroke-linecap:round;stroke-linejoin:round;stroke-width:0.5px"/><path d="M486.843,158.461s.1-.392.931-1.029a6.38,6.38,0,0,0,1.47-1.813c.221-.319.637-1.176.637-1.176" style="fill:none;stroke:#aebbc7;stroke-linecap:round;stroke-linejoin:round;stroke-width:0.5px"/><path d="M481.049,154.443l1.335-3.921a1.9,1.9,0,0,0,1.445-.735c.441-.71,9.262-23.89,9.752-25.042s2.6-4.9,3.21-5.88a5.334,5.334,0,0,0,.588-4.19" style="fill:none;stroke:#aebbc7;stroke-linecap:round;stroke-linejoin:round"/><polyline points="492.283 113.866 479.786 145.205 478.635 146.259 477.356 150.151" style="fill:none;stroke:#aebbc7;stroke-linecap:round;stroke-linejoin:round;stroke-width:0.5px"/><path d="M472.005,155.217a2.419,2.419,0,0,0-2.237-.72,2.613,2.613,0,0,0-1.895,2.661,3.429,3.429,0,0,0,.082.739,2.741,2.741,0,0,0,3.091,2.3c.049-.011.1-.024.148-.04h0a2.428,2.428,0,0,0,1.553-1.54" style="fill:none;stroke:#aebbc7;stroke-linecap:round;stroke-linejoin:round;stroke-width:0.5px"/><path d="M475.618,154.443l-5.571,1.192a1.768,1.768,0,0,0,.766,3.412l5.576-1.242" style="fill:none;stroke:#aebbc7;stroke-linecap:round;stroke-linejoin:round;stroke-width:0.5px"/><path d="M472.065,155.2a3.82,3.82,0,0,0-5.773-.058" style="fill:none;stroke:#aebbc7;stroke-linecap:round;stroke-linejoin:round;stroke-width:0.5px"/><path d="M472.864,158.59a3.758,3.758,0,0,1-.869,1.639,3.818,3.818,0,0,1-6.078-.519" style="fill:none;stroke:#aebbc7;stroke-linecap:round;stroke-linejoin:round;stroke-width:0.5px"/><path d="M514.189,112.19v-5.538a2.925,2.925,0,0,0-2.1-2.9c-.533-.08-6.87-.878-8.388-.958a8.2,8.2,0,0,0-2.769.346s-5.858,2-7.163,2.556-1.491,1.385-1.483,1.917.072,6.6.152,7.376.958.852,1.757.772,6.2-1.892,6.2-1.892a2.019,2.019,0,0,0,.985-1.915c0-1.465.08-6.817.08-6.817s-.133-1.172,1.625-1.145,7.695.825,8.227.879a2.1,2.1,0,0,1,1.918,1.944v3.408" style="fill:none;stroke:#aebbc7;stroke-linecap:round;stroke-linejoin:round;stroke-width:0.5px"/><path d="M503.236,102.782a2.412,2.412,0,0,0-2.818,2.165s-.08,5.352-.08,6.817a2.019,2.019,0,0,1-.985,1.915s-5.406,1.813-6.2,1.893c0,0-.684-.055-.713-.586" style="fill:none;stroke:#aebbc7;stroke-linecap:round;stroke-linejoin:round;stroke-width:0.5px"/><path d="M480.528,153.393l11.754-29.058a20.076,20.076,0,0,1,3.08-5.921,8.71,8.71,0,0,0,.727-1.662,2.623,2.623,0,0,0,0-1.5" style="fill:none;stroke:#aebbc7;stroke-linecap:round;stroke-linejoin:round;stroke-width:0.5px"/><polyline points="485.27 146.247 490.237 146.461 501.664 119.625" style="fill:none;stroke:#aebbc7;stroke-linecap:round;stroke-linejoin:round;stroke-width:0.5px"/><line x1="489.579" y1="146.432" x2="487.294" y2="151.689" style="fill:none;stroke:#aebbc7;stroke-linecap:round;stroke-linejoin:round;stroke-width:0.5px"/><path d="M498.967,114.338s2.731,5.322,3.043,5.911.686.484,1.226,1.593,11.152,22.64,11.152,22.64" style="fill:none;stroke:#aebbc7;stroke-linecap:round;stroke-linejoin:round"/><polyline points="504.08 123.559 503.395 125.269 502.702 126.101 493.215 150.151" style="fill:none;stroke:#aebbc7;stroke-linecap:round;stroke-linejoin:round;stroke-width:0.5px"/><line x1="491.691" y1="150.546" x2="503.236" y2="121.842" style="fill:none;stroke:#aebbc7;stroke-linecap:round;stroke-linejoin:round;stroke-width:0.5px"/><line x1="481.477" y1="153.185" x2="514.254" y2="145.23" style="fill:none;stroke:#aebbc7;stroke-linecap:round;stroke-linejoin:round"/><line x1="482.039" y1="156.452" x2="512.585" y2="149.287" style="fill:none;stroke:#aebbc7;stroke-linecap:round;stroke-linejoin:round"/><path d="M501.456,105.5a4.22,4.22,0,0,1,1.558,1.939l5.99.589s2.145-.879,3.186.658,18.8,32.41,18.8,32.41" style="fill:none;stroke:#aebbc7;stroke-linecap:round;stroke-linejoin:round;stroke-width:0.5px"/><line x1="501.429" y1="107.403" x2="518.977" y2="138.78" style="fill:none;stroke:#aebbc7;stroke-linecap:round;stroke-linejoin:round;stroke-width:0.5px"/><line x1="517.401" y1="135.963" x2="528.551" y2="136.855" style="fill:none;stroke:#aebbc7;stroke-linecap:round;stroke-linejoin:round;stroke-width:0.5px"/><ellipse cx="509.436" cy="112.55" rx="0.843" ry="1.681" transform="translate(175.156 513.111) rotate(-62.612)" style="fill:none;stroke:#aebbc7;stroke-linecap:round;stroke-linejoin:round;stroke-width:0.5px"/><path d="M517.4,131.537s.5-1.281.814-1.87,1.829-.173,2.646.45,2.236,1.662,2.755,2.078,1.108,1.523-.242,1.385-3.792-.243-4.683-.312A1.392,1.392,0,0,1,517.4,131.537Z" style="fill:none;stroke:#aebbc7;stroke-linecap:round;stroke-linejoin:round;stroke-width:0.5px"/><polyline points="484.268 161.009 489.738 161.17 488.436 158.528" style="fill:none;stroke:#aebbc7;stroke-linecap:round;stroke-linejoin:round;stroke-width:0.5px"/><line x1="489.738" y1="161.17" x2="499.643" y2="179.745" style="fill:none;stroke:#aebbc7;stroke-linecap:round;stroke-linejoin:round;stroke-width:0.5px"/><path d="M490.175,182.737s-11.464-22.353-11.983-23.658,1.311-2.187,2.165-.618,11.507,22.723,11.926,23.638S490.871,184.1,490.175,182.737Z" style="fill:none;stroke:#aebbc7;stroke-linecap:round;stroke-linejoin:round;stroke-width:0.5px"/><path d="M500.931,181.032s12.624-29.171,13.323-30.634,2.5-.619,1.826,1.291-12.525,29.391-12.924,30.288C502.425,183.623,500.444,182.8,500.931,181.032Z" style="fill:none;stroke:#aebbc7;stroke-linecap:round;stroke-linejoin:round;stroke-width:0.5px"/><path d="M531.174,141.3a3.245,3.245,0,0,0-2.921-1.513l-1.551.161a2.816,2.816,0,0,0-.788.186h0a3.983,3.983,0,0,0-2.211,4.148c.195,2.206,1.825,3.87,3.654,3.745l.059,0,1.549-.16a3.411,3.411,0,0,0,2.863-2.7l0,0" style="fill:none;stroke:#aebbc7;stroke-linecap:round;stroke-linejoin:round;stroke-width:0.5px"/><path d="M525.914,140.13h0a4.6,4.6,0,1,0,1.443,7.893" style="fill:none;stroke:#aebbc7;stroke-linecap:round;stroke-linejoin:round;stroke-width:0.5px"/><path d="M528.253,139.784c-1.854.163-3.2,2.1-3,4.333s1.858,3.906,3.711,3.743" style="fill:none;stroke:#aebbc7;stroke-linecap:round;stroke-linejoin:round;stroke-width:0.5px"/><path d="M526.217,141.286c-.026.436-.051.867,1.053.549a12.049,12.049,0,0,1,3.466-.549c1.022,0,3.994.25,5.166.352a.53.53,0,0,1,.484.528v1.709a.531.531,0,0,1-.434.521l-4.123.759a4.787,4.787,0,0,0-1.17,1.472" style="fill:none;stroke:#aebbc7;stroke-linecap:round;stroke-linejoin:round;stroke-width:0.5px"/><path d="M526.345,145.959a1.782,1.782,0,0,1,1.361-1.477,7.932,7.932,0,0,1,3.107-.58c1,.08,5.573.414,5.573.414" style="fill:none;stroke:#aebbc7;stroke-linecap:round;stroke-linejoin:round;stroke-width:0.5px"/><ellipse cx="531.365" cy="144.482" rx="2.041" ry="0.245" style="fill:none;stroke:#aebbc7;stroke-linecap:round;stroke-linejoin:round;stroke-width:0.5px"/><path d="M485.442,163.418h2.917a.675.675,0,0,1,.568.31l1.247,1.939a.677.677,0,0,1,.016.705l-.936,1.61a.675.675,0,0,1-.584.337h-.847" style="fill:none;stroke:#aebbc7;stroke-linecap:round;stroke-linejoin:round;stroke-width:0.5px"/><path d="M486.474,143.159s1.474-.013,2.219,0a1.363,1.363,0,0,0,1.188-1.816c-.227-1.086-.575-2.419-.575-2.419s-.37-1.033-1.019-.454" style="fill:none;stroke:#aebbc7;stroke-linecap:round;stroke-linejoin:round;stroke-width:0.5px"/><path d="M475.5,150.988s.838,2.431,1.055,3.112.64,1.169.93.343.75-1.911-.127-2.36S475.919,151.559,475.5,150.988Z" style="fill:none;stroke:#aebbc7;stroke-linecap:round;stroke-linejoin:round;stroke-width:0.5px"/><path d="M492.384,106.984l-3.326-.227.245-7.7c.046-1.451.923-4.236,2.253-4.818l8.979-3.93a3.762,3.762,0,0,1,2.006-.283l11.668,1.556a3.763,3.763,0,0,1,3.264,3.605l.214,7.951-4.045,1.722" style="fill:none;stroke:#aebbc7;stroke-linecap:round;stroke-linejoin:round;stroke-width:0.5px"/><polyline points="489.058 106.757 502.67 101.718 517.687 103.135" style="fill:none;stroke:#aebbc7;stroke-linecap:round;stroke-linejoin:round;stroke-width:0.5px"/><line x1="502.67" y1="101.718" x2="502.67" y2="90.071" style="fill:none;stroke:#aebbc7;stroke-linecap:round;stroke-linejoin:round;stroke-width:0.5px"/><path d="M513.436,91.269,508.472,86.5V82.615c-.064-2.223-9.017-1.965-8.953.259V86.18L494.15,93.1" style="fill:none;stroke:#aebbc7;stroke-linecap:round;stroke-linejoin:round;stroke-width:0.5px"/><polyline points="508.997 90.566 505.42 85.464 505.42 90.22" style="fill:none;stroke:#aebbc7;stroke-linecap:round;stroke-linejoin:round;stroke-width:0.5px"/><line x1="508.472" y1="86.5" x2="508.472" y2="89.818" style="fill:none;stroke:#aebbc7;stroke-linecap:round;stroke-linejoin:round;stroke-width:0.5px"/><line x1="499.519" y1="86.18" x2="499.519" y2="90.566" style="fill:none;stroke:#aebbc7;stroke-linecap:round;stroke-linejoin:round;stroke-width:0.5px"/><path d="M174.918,213.918a20.161,20.161,0,0,0-1.609-3.151c-.633-.843-1.674-2.689-3.243-3.3s-5.418-2.65-5.418-2.65,11.436-34.05,12.82-36.793c.185-.382.356-.778.5-1.173.027.791.343,1.411.725,1.4l1.53-.039c.211.435.5.685.817.685H182.7a3.982,3.982,0,0,0,6.329-.54h1.832c.369-.013.686-.369.883-.936l1.622-.04h.013c.383-.013.686-.659.673-1.463s-.343-1.45-.726-1.45l-1.634.039c-.211-.554-.554-.909-.91-.9h-2.149a3.967,3.967,0,0,0-6,.052v.014l-3.691-.791c.092-.66.145-1.147.2-1.332a2.374,2.374,0,0,1,.3-.712c1-1.371.132-1.345-.382-1.556.026-1.45-.5-1.45-.5-1.45l-.646.686c-.251-.027-.5-.079-.778-.106l-1.332-4.047-1.2-1.094-11.582-37.765h-.106c.053-2.083.093-6.065.106-6.5a1.83,1.83,0,0,0-.106-.659l3.455-.237-.251-8c-.053-1.5-.962-4.4-2.347-5.01l-2.689-1.173-.013-.013-5.564-7.185V83.3c.066-2.32-9.242-2.584-9.308-.277V87.06l-5.155,4.957.027.225-.831.1a3.912,3.912,0,0,0-3.4,3.744l-.224,8.266,4.205,1.793a3.155,3.155,0,0,0-.567,1.859v5.6c-3.638,6.21-12.426,24.225-16.315,30.989h-.013c-1.266,2.2-2.162,3.757-2.439,4.245l-.026.026a3.286,3.286,0,0,0-.264.343c-1.319.053-3.837.264-4.918.356a.558.558,0,0,0-.5.554v1.766a.531.531,0,0,0,.224.435.408.408,0,0,0,.238.119l2.821.514v.027a26.488,26.488,0,0,0,3.006,9.347l16.342,42.119c-.594.238-6.065,2.439-6.487,2.624a26.591,26.591,0,0,0-2.241,1.635,3.786,3.786,0,0,0-.883,2.412v1.358l-.712.027-2.757.141,43.732,2.431ZM140.5,157.534l.026-.013,20.567,4.825-8.905,29.74Zm-1.859-5.01s9.394-21.417,12.123-26.941l.712,1.78.725.857,8.523,30.408L138.787,153.3A3.63,3.63,0,0,0,138.642,152.524Z" style="fill:#404d59"/><g id="ba2853f8-bf77-4924-bf78-de3e95bd93bf" data-name="Offset Group"><path d="M124.272,211.912l3.529-.378v-.411a5.544,5.544,0,0,1,.546-2.243,2.741,2.741,0,0,1,.748-.977c.125-.092.32-.243.563-.432a13.83,13.83,0,0,1,1.866-1.311c.349-.153,3.858-1.567,5.6-2.267l-15.96-41.135a28.2,28.2,0,0,1-3.011-8.949l-2.05-.374a1.413,1.413,0,0,1-.738-.341,1.533,1.533,0,0,1-.582-1.2v-1.766a1.559,1.559,0,0,1,1.416-1.55c.957-.082,3.084-.261,4.488-.337.227-.4.69-1.2,1.327-2.309l1.338-2.328h.011c1.907-3.376,4.831-9.083,7.765-14.812,3.114-6.078,6.243-12.187,8.131-15.447v-5.333a4.386,4.386,0,0,1,.207-1.351L135.6,105.01s.242-8.946.242-8.953a4.913,4.913,0,0,1,4.275-4.7l.2-.026,4.882-4.694s0-3.609,0-3.638a1.864,1.864,0,0,1,.4-1.093,3.5,3.5,0,0,1,1.807-1.092,11.685,11.685,0,0,1,3.528-.382c1.795.052,4.011.44,5.012,1.5a1.927,1.927,0,0,1,.563,1.373v3.086l5.207,6.724,2.461,1.073a3.619,3.619,0,0,1,1.47,1.324,9.838,9.838,0,0,1,1.475,4.571l.28,8.965-3.383.233c0,.27-.011.724-.018,1.29-.018,1.3-.042,3.138-.072,4.484l11.552,37.668,1.192,1.087,1.116,3.39.367-.39.405.029a1.681,1.681,0,0,1,.554.141,1.473,1.473,0,0,1,.522.462,2.015,2.015,0,0,1,.277.579,3.123,3.123,0,0,1,.114.552,1.721,1.721,0,0,1,.436.286,1.381,1.381,0,0,1,.345.5,1.448,1.448,0,0,1,.082.718,3.131,3.131,0,0,1-.661,1.382s0-.046-.126.363c-.011.041-.025.128-.046.279l2.232.478a4.932,4.932,0,0,1,1.273-.854,5,5,0,0,1,2.1-.46,4.924,4.924,0,0,1,2.018.434,5.041,5.041,0,0,1,1.369.911h1.692a1.612,1.612,0,0,1,.946.276,2.155,2.155,0,0,1,.594.606l1.04-.025a1.434,1.434,0,0,1,1.007.43,3.3,3.3,0,0,1,.073,4.018,1.456,1.456,0,0,1-1.016.465l-1.009.025a2.19,2.19,0,0,1-.558.619,1.679,1.679,0,0,1-.962.332h-1.321a5.005,5.005,0,0,1-1.489,1.248,4.936,4.936,0,0,1-2.384.611,5,5,0,0,1-3.382-1.319h-1.246a1.645,1.645,0,0,1-.877-.257,2.019,2.019,0,0,1-.471-.414l-.964.025a1.367,1.367,0,0,1-.646-.139c-1.977,4.853-10.575,30.345-12.216,35.221,1.186.62,3.474,1.794,4.56,2.2a8.064,8.064,0,0,1,3.344,3.151c.136.2.244.352.328.463a2.93,2.93,0,0,1,.6,1.513,4.619,4.619,0,0,1-.5,2.44l-.27.558s-25.735.257-25.788.256l-23.8-1.014Z" style="fill:none;stroke:#aebbc7;stroke-linecap:round;stroke-linejoin:round;stroke-width:0.5000000000025px"/><path d="M124.3,212.161s3.7-.4,3.753-.4v-.636a5.307,5.307,0,0,1,.52-2.133,2.5,2.5,0,0,1,.671-.885c.129-.094.328-.248.569-.436a13.779,13.779,0,0,1,1.814-1.28c.361-.158,4.181-1.7,5.819-2.356l-16.055-41.381a27.761,27.761,0,0,1-3.014-9.056s-2.267-.413-2.239-.409a1.156,1.156,0,0,1-.613-.285,1.28,1.28,0,0,1-.492-1.011v-1.766a1.309,1.309,0,0,1,1.188-1.3c.985-.084,3.2-.27,4.582-.329.018-.022.036-.044.077-.09.216-.379.69-1.2,1.35-2.352l1.267-2.2h.012c1.909-3.366,4.872-9.15,7.842-14.948,3.134-6.118,6.278-12.256,8.158-15.493v-5.4a4.069,4.069,0,0,1,.272-1.489l-3.924-1.673s.238-8.776.238-8.782A4.662,4.662,0,0,1,140.15,91.6l.285-.036,5.018-4.826s0-3.715,0-3.736a1.618,1.618,0,0,1,.345-.949,3.266,3.266,0,0,1,1.681-1,11.443,11.443,0,0,1,3.448-.372c1.8.053,3.916.445,4.838,1.423a1.678,1.678,0,0,1,.5,1.2v3.171s5.34,6.9,5.289,6.838l2.528,1.1a3.367,3.367,0,0,1,1.364,1.236,9.593,9.593,0,0,1,1.432,4.438l.273,8.725-3.372.231c0,.162-.012.737-.022,1.521-.018,1.31-.043,3.174-.072,4.522l11.583,37.772,1.194,1.088,1.226,3.728.574-.61.3.021a1.33,1.33,0,0,1,.439.113,1.218,1.218,0,0,1,.433.385,1.779,1.779,0,0,1,.242.507,3.129,3.129,0,0,1,.12.651,1.567,1.567,0,0,1,.5.3,1.1,1.1,0,0,1,.283.413,1.19,1.19,0,0,1,.067.594,2.893,2.893,0,0,1-.609,1.259s-.039.012-.172.455c-.017.06-.041.224-.083.538l2.587.554a4.68,4.68,0,0,1,1.3-.9,4.729,4.729,0,0,1,2-.437,4.67,4.67,0,0,1,1.915.412,4.781,4.781,0,0,1,1.372.933h1.8a1.356,1.356,0,0,1,.8.235,2,2,0,0,1,.6.65l1.173-.028a1.184,1.184,0,0,1,.832.359,3.057,3.057,0,0,1,.066,3.667,1.2,1.2,0,0,1-.845.387h0l-1.14.028a2.019,2.019,0,0,1-.562.665,1.416,1.416,0,0,1-.813.283H189.42a4.776,4.776,0,0,1-1.487,1.279,4.722,4.722,0,0,1-4.192.17,4.74,4.74,0,0,1-1.355-.909h-1.345a1.4,1.4,0,0,1-.745-.219,1.845,1.845,0,0,1-.485-.455L178.72,169a1.128,1.128,0,0,1-.609-.157,1.241,1.241,0,0,1-.145-.1c-1.785,4.2-10.922,31.307-12.4,35.711,1.118.587,3.616,1.878,4.774,2.316a7.843,7.843,0,0,1,3.23,3.06c.135.195.246.355.335.475a2.686,2.686,0,0,1,.547,1.385,4.382,4.382,0,0,1-.477,2.305l-.2.419-25.619.255-23.8-1.015Z" style="fill:none;stroke:#aebbc7;stroke-linecap:round;stroke-linejoin:round;stroke-width:0.5000000000025px"/><path d="M124.325,212.41l3.745-.4L128.3,212v-.876a5.055,5.055,0,0,1,.5-2.023,2.251,2.251,0,0,1,.593-.793c.133-.1.335-.254.576-.441a13.875,13.875,0,0,1,1.76-1.248c.375-.164,4.566-1.853,6.042-2.446,0,0-16.163-41.658-16.132-41.593a27.382,27.382,0,0,1-3.033-9.2l-2.43-.443a.8.8,0,0,1-.453-.2,1.03,1.03,0,0,1-.438-.845v-1.766a1.059,1.059,0,0,1,.959-1.052c1.014-.087,3.319-.28,4.694-.344.043-.055.087-.109.15-.181.21-.369.689-1.2,1.361-2.37l1.2-2.077h.012c1.91-3.352,4.913-9.216,7.919-15.084,3.194-6.235,6.392-12.478,8.255-15.657a.5.5,0,0,0-.069.252v-5.6a3.757,3.757,0,0,1,.351-1.621l-4-1.7.233-8.61a4.412,4.412,0,0,1,3.838-4.223l.368-.047,5.154-4.957V83.012a1.375,1.375,0,0,1,.294-.8,3.022,3.022,0,0,1,1.554-.917,11.218,11.218,0,0,1,3.37-.362c1.807.053,3.819.45,4.664,1.344a1.438,1.438,0,0,1,.426,1.03V86.56s5.419,7,5.383,6.957l2.584,1.127a3.117,3.117,0,0,1,1.257,1.147,9.343,9.343,0,0,1,1.389,4.306l.265,8.484s-3.369.231-3.369.226c0,.074.006.143.006.219-.005.148-.013.736-.023,1.536-.018,1.324-.043,3.212-.073,4.561L175.045,153l1.2,1.091,1.274,3.872.126.019.087.013.631-.669.2.013a.953.953,0,0,1,.324.085.968.968,0,0,1,.344.307,1.529,1.529,0,0,1,.207.437,3.078,3.078,0,0,1,.12.759,1.486,1.486,0,0,1,.567.3.86.86,0,0,1,.22.321.939.939,0,0,1,.052.471,2.646,2.646,0,0,1-.558,1.137,1.591,1.591,0,0,0-.216.54c-.024.085-.055.313-.11.724l-.01.079,2.946.631a4.465,4.465,0,0,1,5.033-.969,4.521,4.521,0,0,1,1.37.955h1.914a1.1,1.1,0,0,1,.652.193,1.881,1.881,0,0,1,.594.695l1.316-.031a.937.937,0,0,1,.657.287,2.822,2.822,0,0,1,.06,3.317.946.946,0,0,1-.664.309h-.006l-1.291.032a1.9,1.9,0,0,1-.556.71,1.165,1.165,0,0,1-.665.234H189.3a4.524,4.524,0,0,1-1.482,1.31,4.446,4.446,0,0,1-2.144.549,4.5,4.5,0,0,1-3.181-1.319h-1.447a1.143,1.143,0,0,1-.612-.181,1.651,1.651,0,0,1-.491-.5l-1.226.032a.871.871,0,0,1-.474-.123,1.166,1.166,0,0,1-.349-.324c-1.377,2.854-11.351,32.466-12.632,36.273,1,.527,3.746,1.957,4.989,2.427a7.606,7.606,0,0,1,3.114,2.97c.134.193.248.358.344.485a2.437,2.437,0,0,1,.5,1.259,4.131,4.131,0,0,1-.453,2.169l-.135.279-25.451.254-23.8-1.015Z" style="fill:none;stroke:#aebbc7;stroke-linecap:round;stroke-linejoin:round;stroke-width:0.5000000000025px"/><path d="M124.352,212.658l3.727-.4.472-.018v-1.117a4.8,4.8,0,0,1,.47-1.913,1.982,1.982,0,0,1,.516-.7c.136-.1.342-.26.581-.446a14.119,14.119,0,0,1,1.707-1.216c.393-.172,5.062-2.052,6.264-2.535,0,0-16.252-41.889-16.237-41.856a26.941,26.941,0,0,1-3.021-9.285l-2.624-.479a.6.6,0,0,1-.345-.161.772.772,0,0,1-.242-.277.783.783,0,0,1-.089-.363v-1.766a.806.806,0,0,1,.73-.8c1.046-.089,3.451-.291,4.8-.351.067-.092.139-.182.222-.276l0,0c.2-.358.687-1.2,1.373-2.39l1.122-1.952h.013c1.91-3.337,4.954-9.281,8-15.22,3.2-6.239,6.39-12.474,8.248-15.645a.244.244,0,0,0-.035.126v-5.6a3.466,3.466,0,0,1,.447-1.745l-4.09-1.743.229-8.438a4.161,4.161,0,0,1,3.62-3.984l.585-.074-.012-.1,5.167-4.969V83.019a1.119,1.119,0,0,1,.243-.659,2.788,2.788,0,0,1,1.427-.83,10.985,10.985,0,0,1,3.291-.351c1.812.053,3.723.454,4.489,1.266a1.192,1.192,0,0,1,.358.858v3.342s5.5,7.1,5.477,7.077l2.64,1.151a2.877,2.877,0,0,1,1.15,1.059,9.086,9.086,0,0,1,1.346,4.172l.258,8.244-3.391.232a2.456,2.456,0,0,1,.035.439c-.005.151-.013.741-.023,1.54-.019,1.372-.045,3.348-.076,4.7h.034l11.615,37.876,1.2,1.092,1.3,3.958c.1.012.189.027.277.04s.148.023.218.032l.639-.677.1,0a.585.585,0,0,1,.209.057.731.731,0,0,1,.255.23,1.274,1.274,0,0,1,.173.366,3.123,3.123,0,0,1,.114.871l.07.022a1.462,1.462,0,0,1,.571.273.633.633,0,0,1,.158.229.7.7,0,0,1,.036.348,2.412,2.412,0,0,1-.506,1.015,1.946,1.946,0,0,0-.26.626c-.031.107-.065.361-.118.759-.012.1-.026.2-.041.308l3.311.709a4.174,4.174,0,0,1,1.346-.992,4.219,4.219,0,0,1,1.788-.391,4.159,4.159,0,0,1,1.71.368,4.262,4.262,0,0,1,1.443,1.061.247.247,0,0,0-.187-.084h2.14a.852.852,0,0,1,.5.152,1.731,1.731,0,0,1,.578.74l1.47-.035a.687.687,0,0,1,.481.215,2.588,2.588,0,0,1,.055,2.967.7.7,0,0,1-.483.231h-.008l-1.453.036a1.757,1.757,0,0,1-.54.755.917.917,0,0,1-.517.185h-1.7a4.276,4.276,0,0,1-1.473,1.341,4.222,4.222,0,0,1-3.748.151,4.264,4.264,0,0,1-1.351-.952h-1.552a.9.9,0,0,1-.479-.143,1.511,1.511,0,0,1-.487-.538l-1.372.035a.615.615,0,0,1-.339-.089,1.07,1.07,0,0,1-.388-.443,1.871,1.871,0,0,1-.1-.23c-.06.134-.121.266-.186.4-1.312,2.6-11.8,33.759-12.74,36.559.787.417,3.857,2.029,5.2,2.538a7.385,7.385,0,0,1,3,2.879c.133.192.25.361.352.5a2.187,2.187,0,0,1,.443,1.131,3.873,3.873,0,0,1-.429,2.034l-.068.14-25.283.252-23.8-1.015Z" style="fill:none;stroke:#aebbc7;stroke-linecap:round;stroke-linejoin:round;stroke-width:0.5000000000025px"/></g><path d="M124.379,212.907l3.71-.4.712-.027v-1.358a3.786,3.786,0,0,1,.883-2.412,26.591,26.591,0,0,1,2.241-1.635c.422-.185,5.893-2.386,6.487-2.624L122.07,162.333a26.488,26.488,0,0,1-3.006-9.347v-.027l-2.821-.514a.408.408,0,0,1-.238-.119.531.531,0,0,1-.224-.435v-1.766a.558.558,0,0,1,.5-.554c1.081-.092,3.6-.3,4.918-.356a3.286,3.286,0,0,1,.264-.343l.026-.026c.277-.488,1.173-2.044,2.439-4.245h.013c3.889-6.764,12.677-24.779,16.315-30.989v-5.6a3.155,3.155,0,0,1,.567-1.859l-4.205-1.793.224-8.266a3.912,3.912,0,0,1,3.4-3.744l.831-.1-.027-.225L146.2,87.06V83.026c.066-2.307,9.374-2.043,9.308.277v3.428l5.564,7.185.013.013,2.689,1.173c1.385.607,2.294,3.507,2.347,5.01l.251,8-3.455.237a1.83,1.83,0,0,1,.106.659c-.013.435-.053,4.417-.106,6.5h.106l11.582,37.765,1.2,1.094,1.332,4.047c.277.027.527.079.778.106l.646-.686s.527,0,.5,1.45c.514.211,1.384.185.382,1.556a2.374,2.374,0,0,0-.3.712c-.053.185-.106.672-.2,1.332l3.691.791v-.014a3.967,3.967,0,0,1,6-.052h2.149c.356-.013.7.342.91.9l1.634-.039c.383,0,.712.646.726,1.45s-.29,1.45-.673,1.463h-.013l-1.622.04c-.2.567-.514.923-.883.936h-1.832a3.982,3.982,0,0,1-6.329.54h-1.661c-.316,0-.606-.25-.817-.685l-1.53.039c-.382.014-.7-.606-.725-1.4-.145.4-.316.791-.5,1.173-1.384,2.743-12.82,36.793-12.82,36.793s3.849,2.057,5.418,2.65,2.61,2.453,3.243,3.3a2.786,2.786,0,0,1-.013,2.9l-25.115.251Z" style="fill:none;stroke:#aebbc7;stroke-linecap:round;stroke-linejoin:round;stroke-width:0.5000000000025px"/><polygon points="152.189 192.086 161.094 162.346 140.527 157.521 140.501 157.534 152.189 192.086" style="fill:none;stroke:#aebbc7;stroke-linecap:round;stroke-linejoin:round"/><path d="M138.787,153.3l21.938,5.326L152.2,128.22l-.725-.857-.712-1.78c-2.729,5.524-12.123,26.941-12.123,26.941A3.63,3.63,0,0,1,138.787,153.3Z" style="fill:none;stroke:#aebbc7;stroke-linecap:round;stroke-linejoin:round"/><polyline points="173.296 213.67 152.043 211.324 125.332 212.649" style="fill:none;stroke:#aebbc7;stroke-linecap:round;stroke-linejoin:round;stroke-width:0.5px"/><path d="M157.071,202.69l-1.721-.229-1.524,1.163a1.544,1.544,0,0,0,.2.962c.28.441.681,1.2-.8,2.326a2.954,2.954,0,0,0-1.324,2.767v1.645" style="fill:none;stroke:#aebbc7;stroke-linecap:round;stroke-linejoin:round;stroke-width:0.5px"/><path d="M172.706,213.67c1.25-1.184,1.25-2.067.609-2.909s-1.679-2.686-3.246-3.288-5.418-2.646-5.418-2.646l-1.762-1.364-5.818-.773" style="fill:none;stroke:#aebbc7;stroke-linecap:round;stroke-linejoin:round"/><path d="M138.468,204.426s-6.095,2.446-6.536,2.646a24.473,24.473,0,0,0-2.246,1.644,3.723,3.723,0,0,0-.882,2.406v1.355" style="fill:none;stroke:#aebbc7;stroke-linecap:round;stroke-linejoin:round;stroke-width:0.5px"/><path d="M141.754,211.834l-19.688-49.5a26.573,26.573,0,0,1-3.007-9.343" style="fill:none;stroke:#aebbc7;stroke-linecap:round;stroke-linejoin:round;stroke-width:0.5px"/><path d="M132.452,149.978c-.4-.922-.962-1.363,0-2.165v-.521s.16-.6.6-.682.963.521,1.123,1.042c0,0,1.885,1.284,2.567,1.685a6.809,6.809,0,0,1,2.045,3.969l14.918,42.538,3.368,4.812v2.013" style="fill:none;stroke:#aebbc7;stroke-linecap:round;stroke-linejoin:round"/><path d="M153.225,206.912s-18.126-47.951-18.728-49.4a21.24,21.24,0,0,1-1.283-4.531,11.033,11.033,0,0,0-.762-3.008" style="fill:none;stroke:#aebbc7;stroke-linecap:round;stroke-linejoin:round;stroke-width:0.5px"/><path d="M132.452,147.813a1.474,1.474,0,0,1,.962,1c.281.842.672,2.545.672,2.545" style="fill:none;stroke:#aebbc7;stroke-linecap:round;stroke-linejoin:round;stroke-width:0.5px"/><line x1="133.414" y1="148.815" x2="135.219" y2="150.419" style="fill:none;stroke:#aebbc7;stroke-linecap:round;stroke-linejoin:round;stroke-width:0.5px"/><line x1="135.909" y1="160.819" x2="122.066" y2="162.329" style="fill:none;stroke:#aebbc7;stroke-linecap:round;stroke-linejoin:round;stroke-width:0.5px"/><path d="M133.173,164.478l-5.8.463a.634.634,0,0,0-.518.913l1.43,2.891,4.2,3.195a1.319,1.319,0,0,0,2.057-.654l1-3.183-1.25-2.948A1.118,1.118,0,0,0,133.173,164.478Z" style="fill:none;stroke:#aebbc7;stroke-linecap:round;stroke-linejoin:round;stroke-width:0.5px"/><line x1="126.52" y1="157.559" x2="128.22" y2="161.657" style="fill:none;stroke:#aebbc7;stroke-linecap:round;stroke-linejoin:round;stroke-width:0.5px"/><line x1="129.509" y1="164.77" x2="132.482" y2="171.94" style="fill:none;stroke:#aebbc7;stroke-linecap:round;stroke-linejoin:round;stroke-width:0.5px"/><path d="M162.289,204.482c.492,0,.891.832.891,1.859s-.4,1.859-.891,1.859H161.6c-.492,0-.891-.832-.891-1.859s.4-1.859.891-1.859Z" style="fill:none;stroke:#aebbc7;stroke-linecap:round;stroke-linejoin:round;stroke-width:0.5px"/><ellipse cx="144.905" cy="203.273" rx="1.34" ry="2.018" transform="translate(-101.62 242.549) rotate(-63.569)" style="fill:none;stroke:#aebbc7;stroke-linecap:round;stroke-linejoin:round;stroke-width:0.5px"/><path d="M162.289,208.2c-.493,0-.892-.832-.892-1.859s.4-1.859.892-1.859" style="fill:none;stroke:#aebbc7;stroke-linecap:round;stroke-linejoin:round;stroke-width:0.5px"/><path d="M161.978,112.281c.492,0,.891.833.891,1.859s-.4,1.859-.891,1.859h-.688c-.492,0-.891-.832-.891-1.859s.4-1.859.891-1.859Z" style="fill:none;stroke:#aebbc7;stroke-linecap:round;stroke-linejoin:round;stroke-width:0.5px"/><path d="M161.978,116c-.492,0-.892-.832-.892-1.859s.4-1.859.892-1.859" style="fill:none;stroke:#aebbc7;stroke-linecap:round;stroke-linejoin:round;stroke-width:0.5px"/><path d="M157.418,110.91c.492,0,.891.832.891,1.859s-.4,1.859-.891,1.859h-.688c-.492,0-.891-.833-.891-1.859s.4-1.859.891-1.859Z" style="fill:none;stroke:#aebbc7;stroke-linecap:round;stroke-linejoin:round;stroke-width:0.5px"/><path d="M157.418,114.628c-.492,0-.891-.833-.891-1.859s.4-1.859.891-1.859" style="fill:none;stroke:#aebbc7;stroke-linecap:round;stroke-linejoin:round;stroke-width:0.5px"/><path d="M191.7,164.511c-.217-.554-.549-.907-.915-.9h-2.221c-.583.011-1.046.933-1.09,2.109,0,.093-.006.189,0,.284.025,1.311.553,2.364,1.181,2.353h2.222c.366-.008.686-.373.882-.937" style="fill:none;stroke:#aebbc7;stroke-linecap:round;stroke-linejoin:round;stroke-width:0.5px"/><path d="M190.868,168.355c-.628.012-1.157-1.041-1.181-2.351s.465-2.383,1.093-2.394" style="fill:none;stroke:#aebbc7;stroke-linecap:round;stroke-linejoin:round;stroke-width:0.5px"/><path d="M179.869,166.761a3.837,3.837,0,0,0,.358,1.456c.213.425.5.684.815.678h1.666" style="fill:none;stroke:#aebbc7;stroke-linecap:round;stroke-linejoin:round;stroke-width:0.5px"/><path d="M193.331,164.474c.385-.007.709.638.723,1.441s-.285,1.46-.67,1.467l-2.383.054c-.385.008-.709-.638-.724-1.441s.286-1.459.671-1.466Z" style="fill:none;stroke:#aebbc7;stroke-linecap:round;stroke-linejoin:round;stroke-width:0.5px"/><path d="M177.971,166.813c.015.8.339,1.448.724,1.44l1.532-.036" style="fill:none;stroke:#aebbc7;stroke-linecap:round;stroke-linejoin:round;stroke-width:0.5px"/><path d="M193.384,167.382c-.385.007-.709-.638-.724-1.441s.286-1.46.671-1.467" style="fill:none;stroke:#aebbc7;stroke-linecap:round;stroke-linejoin:round;stroke-width:0.5px"/><path d="M136.291,150.416c.459-.008.846.761.863,1.719s-.34,1.741-.8,1.75H134.87c-.46.008-.846-.761-.864-1.719s.34-1.741.8-1.75Z" style="fill:none;stroke:#aebbc7;stroke-linecap:round;stroke-linejoin:round;stroke-width:0.5px"/><path d="M136.355,153.885c-.46.008-.846-.761-.864-1.719s.34-1.741.8-1.75" style="fill:none;stroke:#aebbc7;stroke-linecap:round;stroke-linejoin:round;stroke-width:0.5px"/><path d="M157.657,204.006c.492,0,.891.832.891,1.859s-.4,1.859-.891,1.859h-.688c-.492,0-.891-.832-.891-1.859s.4-1.859.891-1.859Z" style="fill:none;stroke:#aebbc7;stroke-linecap:round;stroke-linejoin:round;stroke-width:0.5px"/><path d="M157.657,207.724c-.492,0-.891-.832-.891-1.859s.4-1.859.891-1.859" style="fill:none;stroke:#aebbc7;stroke-linecap:round;stroke-linejoin:round;stroke-width:0.5px"/><path d="M158.669,202.9c-.277-1.2.615-2.189,1.4-.865,0,0,14.13-41.244,14.97-42.594s1.961-1.044,2.878-.916l.637-.688s.535,0,.509,1.452c.509.2,1.375.178.382,1.553a2.063,2.063,0,0,0-.306.713,22.1,22.1,0,0,1-1.68,6.469c-1.375,2.75-12.812,36.8-12.812,36.8" style="fill:none;stroke:#aebbc7;stroke-linecap:round;stroke-linejoin:round"/><polyline points="161.983 195.39 161.983 195.39 157.877 202.797" style="fill:none;stroke:#aebbc7;stroke-linecap:round;stroke-linejoin:round;stroke-width:0.5px"/><line x1="152.189" y1="192.086" x2="161.088" y2="162.329" style="fill:none;stroke:#aebbc7;stroke-linecap:round;stroke-linejoin:round;stroke-width:0.5px"/><path d="M167.276,163.747a2.494,2.494,0,0,0,.255,1.375c.331.713.713,1.452-.255,1.936.178,1.146-.484,1.248-.942.687s-.382-.611-1.121-.662-1.477-1.095-1.859-1.731-1.3-2.827-1.3-2.827" style="fill:none;stroke:#aebbc7;stroke-linecap:round;stroke-linejoin:round;stroke-width:0.5px"/><path d="M167.276,167.058s-.1-.408-.968-1.07a6.663,6.663,0,0,1-1.528-1.884c-.229-.331-.662-1.223-.662-1.223" style="fill:none;stroke:#aebbc7;stroke-linecap:round;stroke-linejoin:round;stroke-width:0.5px"/><path d="M173.3,162.881l-1.387-4.074a1.977,1.977,0,0,1-1.5-.764c-.459-.739-8.222-30.031-8.732-31.227s-2.7-5.094-3.336-6.112a5.551,5.551,0,0,1-.611-4.355" style="fill:none;stroke:#aebbc7;stroke-linecap:round;stroke-linejoin:round"/><polyline points="163.027 115.508 174.61 153.281 175.807 154.376 177.136 158.421" style="fill:none;stroke:#aebbc7;stroke-linecap:round;stroke-linejoin:round;stroke-width:0.5px"/><path d="M182.7,163.686a2.515,2.515,0,0,1,2.324-.749,2.718,2.718,0,0,1,1.971,2.767,3.58,3.58,0,0,1-.086.768,2.849,2.849,0,0,1-3.213,2.389c-.051-.012-.1-.025-.154-.042h0a2.526,2.526,0,0,1-1.614-1.6" style="fill:none;stroke:#aebbc7;stroke-linecap:round;stroke-linejoin:round;stroke-width:0.5px"/><path d="M178.942,162.881l5.79,1.24a1.838,1.838,0,0,1-.795,3.546l-5.8-1.291" style="fill:none;stroke:#aebbc7;stroke-linecap:round;stroke-linejoin:round;stroke-width:0.5px"/><path d="M182.635,163.671a3.969,3.969,0,0,1,6-.061" style="fill:none;stroke:#aebbc7;stroke-linecap:round;stroke-linejoin:round;stroke-width:0.5px"/><path d="M181.8,167.192a3.986,3.986,0,0,0,3.859,3.024,3.965,3.965,0,0,0,3.363-1.86" style="fill:none;stroke:#aebbc7;stroke-linecap:round;stroke-linejoin:round;stroke-width:0.5px"/><path d="M140.259,113.767v-5.756a3.04,3.04,0,0,1,2.186-3.017c.554-.083,7.14-.913,8.718-1a8.526,8.526,0,0,1,2.878.36s6.088,2.075,7.444,2.656,1.55,1.439,1.542,1.993-.075,6.863-.158,7.666-1,.885-1.826.8-6.449-1.967-6.449-1.967a2.1,2.1,0,0,1-1.024-1.99c0-1.522-.083-7.085-.083-7.085s.139-1.218-1.688-1.19-8,.858-8.551.913a2.185,2.185,0,0,0-1.993,2.021v3.542" style="fill:none;stroke:#aebbc7;stroke-linecap:round;stroke-linejoin:round;stroke-width:0.5px"/><path d="M151.643,103.988a2.508,2.508,0,0,1,2.929,2.251s.083,5.563.083,7.085a2.1,2.1,0,0,0,1.024,1.99s5.618,1.884,6.448,1.967c0,0,.711-.057.742-.608" style="fill:none;stroke:#aebbc7;stroke-linecap:round;stroke-linejoin:round;stroke-width:0.5px"/><path d="M173.84,161.79l-10.813-35.4a20.864,20.864,0,0,0-3.2-6.154,9.007,9.007,0,0,1-.756-1.728,2.719,2.719,0,0,1,0-1.557" style="fill:none;stroke:#aebbc7;stroke-linecap:round;stroke-linejoin:round;stroke-width:0.5px"/><polyline points="168.911 154.363 163.749 154.585 153.277 121.494" style="fill:none;stroke:#aebbc7;stroke-linecap:round;stroke-linejoin:round;stroke-width:0.5px"/><line x1="164.433" y1="154.556" x2="166.808" y2="160.019" style="fill:none;stroke:#aebbc7;stroke-linecap:round;stroke-linejoin:round;stroke-width:0.5px"/><path d="M156.08,116s-2.839,5.531-3.163,6.143-.713.5-1.274,1.656-12.994,28.731-12.994,28.731" style="fill:none;stroke:#aebbc7;stroke-linecap:round;stroke-linejoin:round;stroke-width:0.5px"/><polyline points="150.766 125.583 151.478 127.36 152.198 128.224 160.654 158.421" style="fill:none;stroke:#aebbc7;stroke-linecap:round;stroke-linejoin:round;stroke-width:0.5px"/><line x1="162.237" y1="158.832" x2="151.643" y2="123.798" style="fill:none;stroke:#aebbc7;stroke-linecap:round;stroke-linejoin:round;stroke-width:0.5px"/><line x1="172.853" y1="161.574" x2="138.788" y2="153.306" style="fill:none;stroke:#aebbc7;stroke-linecap:round;stroke-linejoin:round"/><line x1="172.27" y1="164.97" x2="140.522" y2="157.523" style="fill:none;stroke:#aebbc7;stroke-linecap:round;stroke-linejoin:round"/><path d="M153.493,106.811a4.386,4.386,0,0,0-1.619,2.016l-6.226.612s-2.229-.913-3.311.683-20.946,38.885-20.946,38.885" style="fill:none;stroke:#aebbc7;stroke-linecap:round;stroke-linejoin:round;stroke-width:0.5px"/><line x1="153.521" y1="108.791" x2="133.879" y2="146.603" style="fill:none;stroke:#aebbc7;stroke-linecap:round;stroke-linejoin:round;stroke-width:0.5px"/><line x1="135.516" y1="143.675" x2="123.928" y2="144.602" style="fill:none;stroke:#aebbc7;stroke-linecap:round;stroke-linejoin:round;stroke-width:0.5px"/><ellipse cx="145.2" cy="114.14" rx="1.747" ry="0.876" transform="translate(-36.231 79.587) rotate(-27.388)" style="fill:none;stroke:#aebbc7;stroke-linecap:round;stroke-linejoin:round;stroke-width:0.5px"/><path d="M135.516,139.075s-.521-1.332-.845-1.944-1.9-.18-2.75.468-2.324,1.728-2.864,2.159-1.152,1.584.252,1.44,3.941-.252,4.867-.324A1.446,1.446,0,0,0,135.516,139.075Z" style="fill:none;stroke:#aebbc7;stroke-linecap:round;stroke-linejoin:round;stroke-width:0.5px"/><polyline points="171.288 169.666 164.267 169.873 165.62 167.127" style="fill:none;stroke:#aebbc7;stroke-linecap:round;stroke-linejoin:round;stroke-width:0.5px"/><line x1="164.267" y1="169.873" x2="155.378" y2="198.233" style="fill:none;stroke:#aebbc7;stroke-linecap:round;stroke-linejoin:round;stroke-width:0.5px"/><path d="M164.307,201.1s11.421-32.047,11.96-33.4-1.362-2.273-2.249-.642-11.466,32.431-11.9,33.381S163.583,202.515,164.307,201.1Z" style="fill:none;stroke:#aebbc7;stroke-linecap:round;stroke-linejoin:round;stroke-width:0.5px"/><path d="M154.038,199.57s-14.524-39.371-15.25-40.892-2.6-.643-1.9,1.341,14.422,39.6,14.837,40.534C152.486,202.263,154.545,201.408,154.038,199.57Z" style="fill:none;stroke:#aebbc7;stroke-linecap:round;stroke-linejoin:round;stroke-width:0.5px"/><path d="M121.2,149.217a3.376,3.376,0,0,1,3.035-1.572l1.612.168a2.964,2.964,0,0,1,.82.192h0a4.139,4.139,0,0,1,2.3,4.312c-.2,2.292-1.895,4.022-3.8,3.893-.019,0-.04,0-.061,0l-1.61-.166a3.546,3.546,0,0,1-2.976-2.81l0,0" style="fill:none;stroke:#aebbc7;stroke-linecap:round;stroke-linejoin:round;stroke-width:0.5px"/><path d="M126.669,148.005h0a4.779,4.779,0,1,1-1.5,8.205" style="fill:none;stroke:#aebbc7;stroke-linecap:round;stroke-linejoin:round;stroke-width:0.5px"/><path d="M124.238,147.646c1.926.17,3.322,2.186,3.118,4.5s-1.93,4.059-3.856,3.889" style="fill:none;stroke:#aebbc7;stroke-linecap:round;stroke-linejoin:round;stroke-width:0.5px"/><path d="M126.354,149.207c.027.454.053.9-1.094.571a12.517,12.517,0,0,0-3.6-.571c-1.062,0-4.151.26-5.369.366a.55.55,0,0,0-.5.548V151.9a.551.551,0,0,0,.451.541l4.285.79a4.969,4.969,0,0,1,1.216,1.529" style="fill:none;stroke:#aebbc7;stroke-linecap:round;stroke-linejoin:round;stroke-width:0.5px"/><path d="M126.221,154.064a1.853,1.853,0,0,0-1.415-1.535,8.239,8.239,0,0,0-3.229-.6c-1.041.083-5.792.43-5.792.43" style="fill:none;stroke:#aebbc7;stroke-linecap:round;stroke-linejoin:round;stroke-width:0.5px"/><ellipse cx="121.003" cy="152.529" rx="2.122" ry="0.255" style="fill:none;stroke:#aebbc7;stroke-linecap:round;stroke-linejoin:round;stroke-width:0.5px"/><path d="M170.082,172.209H165.7a.7.7,0,0,0-.591.323l-1.3,2.015a.7.7,0,0,0-.016.733l.973,1.673a.7.7,0,0,0,.607.35h3.236" style="fill:none;stroke:#aebbc7;stroke-linecap:round;stroke-linejoin:round;stroke-width:0.5px"/><path d="M167.66,151.154s-1.533-.014-2.306,0a1.417,1.417,0,0,1-1.236-1.888c.237-1.128.6-2.514.6-2.514s.384-1.073,1.059-.472" style="fill:none;stroke:#aebbc7;stroke-linecap:round;stroke-linejoin:round;stroke-width:0.5px"/><path d="M179.067,159.291s-.871,2.527-1.1,3.234-.665,1.215-.967.356-.78-1.985.132-2.452S178.629,159.884,179.067,159.291Z" style="fill:none;stroke:#aebbc7;stroke-linecap:round;stroke-linejoin:round;stroke-width:0.5px"/><path d="M162.922,108.356l3.456-.236-.254-8.006c-.048-1.508-.959-4.4-2.341-5.008l-9.333-4.084a3.913,3.913,0,0,0-2.085-.294l-12.127,1.617a3.91,3.91,0,0,0-3.392,3.747l-.223,8.264,4.205,1.79" style="fill:none;stroke:#aebbc7;stroke-linecap:round;stroke-linejoin:round;stroke-width:0.5px"/><polyline points="166.378 108.12 152.232 102.883 136.623 104.356" style="fill:none;stroke:#aebbc7;stroke-linecap:round;stroke-linejoin:round;stroke-width:0.5px"/><line x1="152.232" y1="102.883" x2="152.232" y2="90.777" style="fill:none;stroke:#aebbc7;stroke-linecap:round;stroke-linejoin:round;stroke-width:0.5px"/><path d="M141.042,92.023l5.159-4.957V83.029c.066-2.311,9.371-2.042,9.305.269v3.436l5.58,7.192" style="fill:none;stroke:#aebbc7;stroke-linecap:round;stroke-linejoin:round;stroke-width:0.5px"/><polyline points="145.655 91.292 149.373 85.99 149.373 90.933" style="fill:none;stroke:#aebbc7;stroke-linecap:round;stroke-linejoin:round;stroke-width:0.5px"/><line x1="146.201" y1="87.066" x2="146.201" y2="90.514" style="fill:none;stroke:#aebbc7;stroke-linecap:round;stroke-linejoin:round;stroke-width:0.5px"/><line x1="155.506" y1="86.734" x2="155.506" y2="91.292" style="fill:none;stroke:#aebbc7;stroke-linecap:round;stroke-linejoin:round;stroke-width:0.5px"/></g></svg>
