<svg xmlns="http://www.w3.org/2000/svg" width="325" height="200.1164" viewBox="0 0 325 200.1164"><g id="a7f69508-c6c0-4693-b80d-458bdc781463" data-name="below"><path d="M209.5405,55.1748c55.0114,9.1322,94.5724,34.4813,94.5724,64.3235v6.0158c0,37.5289-62.566,67.9521-139.745,67.9521S24.6229,163.043,24.6229,125.5141v-6.0158c0-37.5289,62.566-67.9521,139.745-67.9521,8.3032,0,16.4372.3521,24.3424,1.0273" style="fill:none;stroke:#aebbc7;stroke-miterlimit:10"/><path d="M304.1129,119.4983c0,37.5289-62.566,67.9521-139.745,67.9521s-139.745-30.4232-139.745-67.9521" style="fill:none;stroke:#aebbc7;stroke-miterlimit:10;stroke-width:0.5px"/><path d="M60.9826,147.06c-4.9688,2.336-7.6229,5.3337-1.607,9.6739s29.1065,18.053,66.3523,23.5381c6.4583.8847,11.3241,0,14.5975-2.1233s5.6621-6.6352-3.2734-9.82-32.2649-11.5947-32.2649-11.5947" style="fill:none;stroke:#aebbc7;stroke-miterlimit:10;stroke-width:0.5px"/><path d="M142.502,176.09c-.88-1.1731-2.5813-2.3324-5.45-3.3549-8.9354-3.1849-32.2649-11.5947-32.2649-11.5947" style="fill:none;stroke:#aebbc7;stroke-miterlimit:10;stroke-width:0.5px"/><path d="M57.7306,155.3746c-.9626-1.0733.6783-4.3971,7.9738-6.0281" style="fill:none;stroke:#aebbc7;stroke-miterlimit:10;stroke-width:0.5px"/><polygon points="176.437 164.422 176.437 164.642 176.437 168.235 176.437 169.751 201.527 178.817 201.546 178.826 203.147 177.644 203.224 177.587 203.224 174.775 205.254 173.364 205.254 170.838 179.945 161.734 176.437 164.422" style="fill:#404d59"/><path d="M195.6167,63.2724V54.6741a8.38,8.38,0,0,0-4.4422-7.3973s-25.4424-9.647-34.7081-12.84a22.9618,22.9618,0,0,0-6.3963-1.42,6.2961,6.2961,0,0,0-.591,3.05c-1.6777,1.0867-3.794,2.469-6.12,3.975-.5053.3242-1.0295.6578-1.5538,1.001-.3814.2478-.7817.5052-1.1725.7626-2.7454,1.7826-5.6147,3.6415-8.2743,5.3668a1.3053,1.3053,0,0,0-.1906.124,1.44,1.44,0,0,0-.6006,1.23v1.5537l-.01.0668a7.1149,7.1149,0,0,0-4.8139.6768,1.0363,1.0363,0,0,0-.1336.0763c-.6386.4194-1.2392.81-1.7825,1.1629-.2192.1429-.4289.2765-.62.41-.41.2669-.7721.5052-1.0963.7149q-.3145.2-.5719.3718c-.2574.1716-.4671.305-.62.41a7.3077,7.3077,0,0,0-1.1821.9723,4.0413,4.0413,0,0,0-.448.0762l-7.445,4.8521a1.802,1.802,0,0,0-.019-.3241l-.0286-.3145c-.019-.105-.0286-.2-.0477-.3052-.019-.0953-.0476-.1906-.0667-.286a5.0053,5.0053,0,0,0-.9914-1.9732.3442.3442,0,0,0-.0667-.0953.9429.9429,0,0,0-.0953-.1048,1.5618,1.5618,0,0,0-.1621-.1907c-.0572-.0667-.1144-.1238-.162-.1811l-.1716-.1715c-.1144-.1145-.2288-.2194-.3337-.3147a9.5012,9.5012,0,0,0-1.1343-.8293c-.1239-.0762-.2288-.1335-.286-.1621h-.01a.1041.1041,0,0,1-.0381-.0191l-.01-.01-3.7081-1.22-5.51-1.8017a.0093.0093,0,0,1-.01-.01h-.0191l-6.7109-5.4526-1.2488-1.02-2.936-2.3831-.019-.0095-.82-14.1272c0-2.5644-3.241-4.7663-7.8357-5.6529v-4.118c0-2.1544-2.04-3.9083-4.5471-3.9083-2.5165,0-4.547,1.7539-4.547,3.9083v4.118a12.8209,12.8209,0,0,0-6.6156,3.0123,5.3051,5.3051,0,0,0-.6673.8294,3.3588,3.3588,0,0,0-.5529,1.8112l-.01.0762-1.039,15.7955a.0093.0093,0,0,1-.01.0095c0,.01-.0095.0191-.0286.0287h-.01c-.0095.0191-.0286.0285-.0477.0476-.1048.0953-.2955.2574-.5528.4861-.1717.143-.3718.3241-.6006.5338-.3909.3528-.8675.7722-1.4013,1.2393-.0953.0858-.1907.1715-.2955.2574-.1907.1715-.4.3527-.61.5338-.0667.0476-.1239.1048-.1906.162-.8866.7818-1.878,1.6587-2.9361,2.5642-.2764.2383-.5529.4862-.8388.7341-.3908.3432-.7912.6863-1.1916,1.0295-1.3346,1.1439-2.7073,2.3164-4.0228,3.4317-.4575.3814-.896.753-1.3345,1.1059-.3241.2669-.6387.5337-.9532.7911q-.6579.5435-1.2584,1.0295c-.4861.3909-.9532.7531-1.3822,1.0868q-.5577.4432-1.0295.7721c-.3336.2477-.6291.4576-.877.62-.1144.0763-.2383.1525-.3432.2288-.019.01-.0476.0286-.0762.0477-.1335.0952-.2574.1906-.3813.2859a5.784,5.784,0,0,0-.6768.572c-.01,0-.01.01-.0191.01a8.5889,8.5889,0,0,0-1.2773,1.449c-.0572.0857-.1144.162-.1621.2478a7.0134,7.0134,0,0,0-.4671.8483,7.6049,7.6049,0,0,0-.286.7341,1.153,1.153,0,0,1-.0476.1716,4.1352,4.1352,0,0,0-.1716,1.0772s-.3813,5.853-.7912,11.7632c-.0191.3335-.0477.6768-.0668,1.01-.0095.1717-.019.3432-.0381.5052-.0286.4957-.0667.9818-.1048,1.468v.0668c-.0191.3241-.0382.6386-.0668.9437-.0381.6482-.0858,1.2774-.1334,1.8779-.0287.4385-.0572.8674-.0953,1.2775-.0477.7243-.0954,1.3917-.143,1.9921-.01.2192-.0287.429-.0477.6293v.0476c-.0191.1907-.0286.3718-.0477.5433-.0095.1145-.019.2192-.019.3242-.0287.2479-.0381.4575-.0572.6481-.01.0764-.01.1431-.0191.2a4.6827,4.6827,0,0,0,0,.8961c.0191.1239.0286.2288.0476.3336a.0351.0351,0,0,0,.01.0287,3.2066,3.2066,0,0,0,.1144.4575,3.8612,3.8612,0,0,0,.1621.4,2.2056,2.2056,0,0,0,.2.3624,3.17,3.17,0,0,0,.4766.5719s.01.019.0191.019c.0858.0763.1716.1526.2574.2193.0953.0667.1811.1335.2764.1907a4.5682,4.5682,0,0,0,1.7254.6291v6.52L47.5,103.1662c-.2384.3527-.4671.7339-.6864,1.1344a.0336.0336,0,0,0-.01.019l-4.3183,2.8979-4.3277,2.8978v.01a.2912.2912,0,0,1-.0382.0286,1.0492,1.0492,0,0,0-.2.1716c-.01,0-.01.0095-.019.0095q-.1287.1145-.3146.286c-.0858.0859-.1811.1812-.286.2765-.1048.1048-.21.21-.3241.3336-.2192.2383-.4671.5148-.7149.8293-.2.2574-.4.5339-.61.8389-.1049.1621-.2192.3336-.3241.5052a12.1122,12.1122,0,0,0-1.1344,2.4212v.0191c-.0953.2479-.1715.5053-.2478.7627-.0668.2765-.1335.5529-.1811.8388-.2479,1.43-.5148,3.203-.7341,5.0522-.0476.4006-.0953.8008-.1334,1.2107-.0953.877-.1716,1.7636-.2288,2.631-.0858,1.2965-.1144,2.5548-.0858,3.68a16.9113,16.9113,0,0,0,.21,2.2687v.01a6.0634,6.0634,0,0,0,.2383.9915c1.0677,3.1362,1.5348,4.1657,2.86,5.0523.6673.4384,3.4031,1.7635,5.9674,2.9646.3146.1525.6291.2954.9437.448.62.2859,1.22.5624,1.754.81,1.325.61,2.2592,1.0391,2.2592,1.0391v.01l.01.01.019.019a.83.83,0,0,0,.1811.1239,1.089,1.089,0,0,0,.8865-.0286,3.5058,3.5058,0,0,0,.3337-.162l.2-.1145c.0572-.038.1334-.0856.2-.1333.143.1048.305.21.4671.3145a6.5312,6.5312,0,0,0,1.0676.5243,3.9645,3.9645,0,0,0,.6387.2383,3.8291,3.8291,0,0,0,.4671.1526,5.2518,5.2518,0,0,0,.6673.162,1.7522,1.7522,0,0,0,.305.0668,3.9075,3.9075,0,0,0,.5815.0953,1.0515,1.0515,0,0,0,.1811.0285c.21.0286.4195.0572.6387.0668a1.863,1.863,0,0,0,.2383.0191c.286.019.572.0286.8675.0286.2288,0,.4576-.01.6863-.0191.1716-.01.3432-.0191.5148-.0382.1716-.01.3431-.0286.5052-.0477.1525-.0191.3051-.038.4576-.0666a3.8506,3.8506,0,0,0,.4575-.0858,3.8261,3.8261,0,0,0,.62.8578l2.9646,1.44.01.01,4.7091,2.2689.01.0095,12.2112,5.9006,2.6024,5.5861v.01a3.3525,3.3525,0,0,0,1.0391,1.5252,2.3931,2.3931,0,0,0,.4956.3051l5.4813,2.6977v.0094a6.4615,6.4615,0,0,0,.2193.8961c.0095.0477.0285.0953.0381.143l.1143.3147a3.1082,3.1082,0,0,0,.1716.41,3.4825,3.4825,0,0,0,.267.4957,2.4229,2.4229,0,0,0,.2478.3622,1.427,1.427,0,0,0,.0953.124,3.88,3.88,0,0,0,.3336.3526,3.2614,3.2614,0,0,0,.4576.3528,2.7391,2.7391,0,0,0,.4.2288l3.3555,1.6873a3.5484,3.5484,0,0,0,.9246.3716,1.2054,1.2054,0,0,0,.2669.0573c1.6778.2669,3.68-.6577,5.4717-2.44a16.4215,16.4215,0,0,0,3.2888-4.7472c.1144-.2479.2287-.4957.3336-.7436s.2-.5051.2955-.753c.0858-.2383.1716-.4671.2478-.7054a.6216.6216,0,0,1,.0191-.0666c.0572-.1717.1049-.3433.1525-.5148.0191-.0668.0381-.124.0572-.1906l.0572-.2288c.0667-.2383.1144-.4862.1621-.7245.0667-.2956.1144-.6007.162-.8961v-.0382c.0286-.2.0477-.3909.0668-.5815.01-.1334.0285-.2574.0285-.3812a10.3872,10.3872,0,0,0,.01-1.4394c0-.0286-.01-.0573-.01-.0859-.019-.2383-.0381-.4766-.0762-.7054v-.0191c-.0381-.2287-.0858-.4575-.143-.6767a.7924.7924,0,0,0-.0381-.143,4.0775,4.0775,0,0,0-.1525-.5147c-.0191-.0477-.0286-.0859-.0477-.1336a5.1851,5.1851,0,0,0-.2574-.5718,2.4085,2.4085,0,0,0-.1525-.267.5264.5264,0,0,0-.0858-.1336c-.0572-.0951-.1239-.181-.1907-.2763-.0667-.0858-.1429-.1717-.2192-.2574a2.8056,2.8056,0,0,0-.2383-.2383c-.0858-.0762-.1716-.143-.2574-.21a3.49,3.49,0,0,0-.5719-.3432c-.0191-.01-.0287-.0191-.0477-.0191L98.68,150.3142a3.4537,3.4537,0,0,0-1.4871-.3241,3.3138,3.3138,0,0,0-.5243.0382,2.6008,2.6008,0,0,0-.448.0762,5.1078,5.1078,0,0,0-1.0581.3527c-.1049.0477-.2193.0953-.3241.1524-.1335.0668-.267.1432-.41.2194-.1335.0762-.267.1621-.4.2478l-5.2429-2.7358a2.6969,2.6969,0,0,0-1.5348-.2192v-.0382H81.7217l-16.0243-7.4164-.1811-.3051.5434-.3525v-2.1353a5.197,5.197,0,0,0,1.1344.4671,3.3755,3.3755,0,0,0,2.8406-.21c.01-.01.0191-.01.0287-.0287l2.6595-1.8016a2.6382,2.6382,0,0,0,.6006-.5244,2.114,2.114,0,0,0,.2383-.3336,2.6711,2.6711,0,0,0,.2-.3622,2.9055,2.9055,0,0,0,.1621-.4,3.3121,3.3121,0,0,0,.124-.4385,3.5224,3.5224,0,0,0,.0857-.4575c.0191-.1526.0382-.3051.0477-.4671v-.0286a2.7789,2.7789,0,0,0,.2955.591,4.0362,4.0362,0,0,0,.2574.3431c.0476.0573.1048.1145.162.1717a2.2083,2.2083,0,0,0,.62.467,2.9771,2.9771,0,0,0,.5338.2193,2.9417,2.9417,0,0,0,.6768.0762c.0953,0,.1907,0,.286-.01-.0381.0667-.0763.1335-.1144.21s-.0858.1623-.1239.2574c-.0477.1241-.1049.2479-.1526.3815-.0857.2383-.1716.4956-.2478.753a.8358.8358,0,0,0,.1334.9437.9584.9584,0,0,0,.3527.1812.426.426,0,0,0,.1049.0191l.8389-.83.286-.2954.01.01c.2669.1239.5147.2383.7817.3336a13.1813,13.1813,0,0,0,6.9015.2,17.6466,17.6466,0,0,0,1.7254-.4576.9951.9951,0,0,0,.124-.0381.2194.2194,0,0,1,.0857-.0287.0355.0355,0,0,1,.0287-.0094l24.47-11.7727v20.2l1.5919.6291.0191-.01,5.72-3.7177V124.1l18.2833,5.424a1.4663,1.4663,0,0,0,1.5063-.4l5.5956-3.8892a10.5683,10.5683,0,0,1,2.66-8.1313,4.9507,4.9507,0,0,1,.6864-.6292l15.91-10.8576h.1811v-18.56c0-2.2116.734-3.2315,1.2964-3.6891a1.6844,1.6844,0,0,1,.591-.3336s1.6014-1.0772,4.099-2.7454a.0094.0094,0,0,0,.01-.01c6.7014-4.49,19.7991-13.25,25.3375-16.8727ZM75.7352,83.4337c.1525.0573.3241.1336.572.2288Q75.964,83.534,75.7352,83.4337Zm1.3155.5053c.429.1525.9247.3337,1.4775.5339C77.9658,84.2727,77.47,84.1011,77.0507,83.939Zm1.611.5816c1.897.6863,4.48,1.5918,7.3687,2.6119C83.142,86.122,80.5587,85.2069,78.6617,84.5206ZM68.7479,107.637c.0381-.0286.0857-.0572.1334-.0859a1.3751,1.3751,0,0,0-.1906.1335C68.71,107.6655,68.7288,107.656,68.7479,107.637ZM70.111,88.4C74,89.7348,90.94,95.6545,99.8144,98.867c-3.7176-1.325-8.8748-3.1267-13.9366-4.89C79.3671,91.708,73.0375,89.487,70.111,88.4Zm31.7625,11.21c-.5624-.2-1.1725-.4289-1.84-.6672C100.701,99.1815,101.3111,99.4008,101.8735,99.61Zm-43.192-5.6336-7.2734-2.5451,7.2734,2.5355Zm0,.0286a10.6738,10.6738,0,0,0-.1049,1.5632l2.3736-1.63c0-3.6509,3.8988-6.5678,7.7309-5.9387l-7.6832,6.0055-.6292.4957v.01s-.2288.1715-.6.4766v.0191c-.0763.0571-.1621.1238-.2478.1906-.0859.0762-.1812.1429-.2765.2192s-.2.1524-.3051.2288a.5258.5258,0,0,1-.0857.0668,2.3683,2.3683,0,0,1-.2479.181,1.2726,1.2726,0,0,1-.1811.1335c-.1716.1239-.3432.2477-.5338.3718a.8618.8618,0,0,1-.1526.1048,6.0022,6.0022,0,0,1-.61.3909,10.8167,10.8167,0,0,1-1.0486.6,1.8478,1.8478,0,0,1-.3432.1621,3.088,3.088,0,0,1-.3241.1431,2.6563,2.6563,0,0,1-.3241.1143,1.0386,1.0386,0,0,1-.2669.0763,1.2582,1.2582,0,0,1-.305.0667,5.4981,5.4981,0,0,0-1.1535.305l2.3927-1.9636Zm61.3611-38.2542h.01a.2056.2056,0,0,1-.0382.0476A.2084.2084,0,0,0,120.0426,55.7512Zm-1.0392,9.542v.01c-.2383.2-.4861.41-.7434.62Q118.6316,65.6078,119.0034,65.2932Z" style="fill:#404d59"/><polygon points="131.644 144.375 128.126 147.064 128.126 147.283 128.126 152.392 153.225 161.448 153.244 161.458 154.503 160.533 154.913 160.228 154.913 157.406 156.943 156.005 156.943 153.479 150.318 151.096 131.644 144.375" style="fill:#404d59"/><path d="M232.5929,31.8955a7.082,7.082,0,0,0,.7061-2.0252c.2572-1.2488-.2-1.8492-2.5834-.1906-1.6491-1.3251-5.09-1.9828-6.5489-.9914a2.6638,2.6638,0,0,0-.8293-.2192V28.45a10.65,10.65,0,0,0-13.9557-5.548l-.0191-.0381c.3242-1.1916-.0667-2.44-1.8588-1.325a15.0553,15.0553,0,0,0-7.7691-.553,7.07,7.07,0,0,0-2.8406-4.2419s-4.0133-1.8016-7.4831-3.4032c-3.4794-1.6014-7.35.3337-7.35.3337L160.5369,27.8494a8.773,8.773,0,0,1,.8388.2859c1.897.7245,6.4441,2.3547,11.687,4.2325.6.21,1.2011.4291,1.8112.6483h.01c7.9215,2.8312,16.8917,6.0055,20.7333,7.3973.8292.305,1.42.5147,1.7064.6291a9.9869,9.9869,0,0,1,5.6241,7.2257,11.0119,11.0119,0,0,1,.2479,2.3545v9.2466l.01.0763a7.9,7.9,0,0,1,2.7168.0953,5.9559,5.9559,0,0,1,.7911.21q.286.1.8581.2859l.0094-.01s10.0474-8.3694,12.7546-10.2188,7.2067-7.74,8.5316-10.3142a4.0012,4.0012,0,0,0,.5816-.5433l.0381-.0382a6.1432,6.1432,0,0,0,1.3345-2.25.4694.4694,0,0,0,.0375-.1216C233.8863,35.8961,234.0274,33.2649,232.5929,31.8955Z" style="fill:#404d59"/></g><g id="a4c5c30e-b501-4d71-b86e-953d2fee5e32" data-name="illustration"><polyline points="58.702 93.982 44.118 88.877 40.605 90.938 40.605 100.5 47.506 103.163" style="fill:#141b21;stroke:#aebbc7;stroke-miterlimit:10"/><path d="M89.8734,169.0617c-2.9037-1.3635-3.2866-6.6662-.8553-11.844s6.7561-8.27,9.66-6.9063l3.654,1.8419c2.9037,1.3635,3.2866,6.6662.8554,11.844s-6.7562,8.27-9.66,6.9063Z" style="fill:none;stroke:#aebbc7;stroke-linecap:round;stroke-linejoin:round"/><path d="M87.5412,165.3818l-5.4954-2.6967c-2.2226-1.0436-2.5157-5.1025-.6547-9.0656s5.1713-6.33,7.3939-5.2863l5.2477,2.7346" style="fill:none;stroke:#aebbc7;stroke-linecap:round;stroke-linejoin:round"/><polygon points="95.705 157.272 101.218 154.787 103.082 159.058 99.393 166.435 94.462 168.687 92.521 164.105 95.705 157.272" style="fill:none;stroke:#aebbc7;stroke-miterlimit:10;stroke-width:0.5px"/><path d="M102.3319,152.1533c-2.9037-1.3634-7.2286,1.7286-9.66,6.9064s-2.0483,10.48.8554,11.8439" style="fill:none;stroke:#aebbc7;stroke-miterlimit:10;stroke-width:0.5px"/><path d="M59.7657,127.3552a3.5872,3.5872,0,0,1,1.4415-3.07l2.6959-1.8159c2.1343-1.3667,5.86.6178,8.2936,4.4369,2.4338,3.8379,2.6771,8.0315.5242,9.3981l-2.6772,1.816a3.37,3.37,0,0,1-2.8456.2247,5.8764,5.8764,0,0,1-1.142-.4681" style="fill:none;stroke:#aebbc7;stroke-linecap:round;stroke-linejoin:round"/><line x1="60.5333" y1="131.3429" x2="60.5333" y2="131.3242" style="fill:none;stroke:#aebbc7;stroke-miterlimit:10;stroke-width:0.5px"/><path d="M61.2112,124.284c2.1439-1.3667,5.8575.6246,8.2945,4.4476s2.6745,8.03.5306,9.3968" style="fill:none;stroke:#aebbc7;stroke-miterlimit:10;stroke-width:0.5px"/><path d="M57.3881,144.7661a3.7467,3.7467,0,0,0,.6178.8612L77.9067,155.25l2.6023,5.5977" style="fill:none;stroke:#aebbc7;stroke-linecap:round;stroke-linejoin:round"/><polyline points="87.418 148.087 81.725 148.087 65.704 140.659" style="fill:none;stroke:#aebbc7;stroke-linecap:round;stroke-linejoin:round"/><polyline points="167.288 74.605 167.8 74.248 167.8 68.068 195.17 55.847" style="fill:none;stroke:#aebbc7;stroke-miterlimit:10;stroke-width:0.5px"/><line x1="119.2652" y1="105.069" x2="144.9068" y2="85.2343" style="fill:none;stroke:#aebbc7;stroke-miterlimit:10;stroke-width:0.5px"/><polyline points="119.807 107.428 146.541 97.32 164.368 87.057" style="fill:none;stroke:#aebbc7;stroke-miterlimit:10;stroke-width:0.5px"/><line x1="170.3571" y1="80.2862" x2="195.1701" y2="58.0115" style="fill:none;stroke:#aebbc7;stroke-miterlimit:10;stroke-width:0.5px"/><path d="M59.7657,127.3552a20.6222,20.6222,0,0,1-2.64,2.7708" style="fill:none;stroke:#aebbc7;stroke-linecap:round;stroke-linejoin:round"/><path d="M66.0561,138.8127a3.5962,3.5962,0,0,1,1.142-.468,3.4841,3.4841,0,0,1,1.61,0c2.1155-5.0174-1.4228-9.9972-1.4228-9.9972l-6.852-2.3215a6.534,6.534,0,0,1-.7676,1.3292" style="fill:none;stroke:#aebbc7;stroke-miterlimit:10;stroke-width:0.5px"/><line x1="146.6781" y1="64.2431" x2="153.466" y2="59.8723" style="fill:none;stroke:#aebbc7;stroke-miterlimit:10;stroke-width:0.5px"/><line x1="158.886" y1="56.4095" x2="166.1721" y2="51.5519" style="fill:none;stroke:#aebbc7;stroke-miterlimit:10;stroke-width:0.5px"/><line x1="76.3084" y1="83.6622" x2="124.8282" y2="52.0634" style="fill:none;stroke:#aebbc7;stroke-linecap:round;stroke-linejoin:round"/><line x1="40.6051" y1="90.9384" x2="57.126" y2="96.8974" style="fill:none;stroke:#aebbc7;stroke-miterlimit:10;stroke-width:0.5px"/><path d="M40.6051,93.9823a3.6537,3.6537,0,0,1-3.2821-4.1118c.34-3.7375,1.63-23.2986,1.63-23.2986s-.0766-3.1065,3.9036-5.679S62.4175,44.4383,62.4175,44.4383L63.4715,28.56c0-3.3557,5.5447-6.0761,12.3843-6.0761S88.24,25.2047,88.24,28.56l.8243,14.1265,10.9088,8.8593,9.2606,3.0472s3.6016,1.7672,3.6016,5.28" style="fill:none;stroke:#aebbc7;stroke-linecap:round;stroke-linejoin:round"/><path d="M75.8558,67.65c-6.493.1916-14.6834-.9738-18.7354-6.6128,4.6517,5.1661,12.1545,6.0648,18.7354,6.6128Z" style="fill:#aebbc7"/><path d="M95.55,58.7087c-.9471,5.4465-7.6028,7.5544-12.3861,8.257,4.6867-1.4554,10.707-3.08,12.3861-8.257Z" style="fill:#aebbc7"/><path d="M41.35,62.0577a19.5747,19.5747,0,0,1,7.5153-2.8729,58.0563,58.0563,0,0,1,6.8279-.9515c3.9688-.3289,4.5914-3.4843,4.5914-3.4843s.3113-2.3346.4669-5.3361a9.65,9.65,0,0,1,1.6657-4.9746,14.4136,14.4136,0,0,1,.6689,5.58c-.3113,2.7851-.4669,5.48-.4669,5.48a6.92,6.92,0,0,1-6.3813,5.5391c-5.4474.3263-11.44.0543-11.44.0543" style="fill:none;stroke:#aebbc7;stroke-miterlimit:10;stroke-width:0.5px"/><path d="M104.409,55.4983s-3.1911.1592-8.3268.2611a4.7154,4.7154,0,0,1-5.0733-3.696v-5.31a6.7234,6.7234,0,0,0-1.9445-4.0667l.2925,10.5611s1.4335,5.59,6.881,4.9853,9.65-1.3832,9.65-1.3832c-.2348-.8618-5.9144-5.3039-5.9144-5.3039" style="fill:none;stroke:#aebbc7;stroke-miterlimit:10;stroke-width:0.5px"/><path d="M77.7944,50.1576s1.09,2.2568,1.79,9.2606,1.1584,12.14,1.1584,12.14-1.1584,1.79-2.17-.7782a20.9955,20.9955,0,0,1-1.4007-7.5058V53.9807S76.9384,49.1459,77.7944,50.1576Z" style="fill:none;stroke:#aebbc7;stroke-miterlimit:10;stroke-width:0.5px"/><path d="M88.24,28.56c0,3.3557-5.5446,6.0761-12.3843,6.0761s-12.3843-2.72-12.3843-6.0761" style="fill:none;stroke:#aebbc7;stroke-miterlimit:10;stroke-width:0.5px"/><path d="M39.9215,63.7442l34.5267,12.789s3.8132,1.7954,9.1049-1.3175,25.992-16.9824,25.992-16.9824" style="fill:none;stroke:#aebbc7;stroke-miterlimit:10;stroke-width:0.5px"/><line x1="99.3931" y1="166.4348" x2="92.8564" y2="163.3847" style="fill:none;stroke:#aebbc7;stroke-miterlimit:10;stroke-width:0.5px"/><line x1="103.0817" y1="159.0577" x2="97.3021" y2="156.5516" style="fill:none;stroke:#aebbc7;stroke-miterlimit:10;stroke-width:0.5px"/><path d="M71.308,27.8362c0,1.2324,2.0361,2.2314,4.5478,2.2314s4.5479-.999,4.5479-2.2314V18.7911c0-2.1553-2.0362-3.9026-4.5479-3.9026s-4.5478,1.7473-4.5478,3.9026Z" style="fill:#404d59;stroke:#aebbc7;stroke-miterlimit:10"/><path d="M80.4037,18.7911c0,1.2323-2.0362,2.2313-4.5479,2.2313s-4.5478-.999-4.5478-2.2313" style="fill:none;stroke:#aebbc7;stroke-miterlimit:10;stroke-width:0.5px"/></g><g id="b76ac985-160f-4ea0-91c5-6326ee76328d" data-name="above"><path d="M164.1873,117.778s-4.7934,2.9569-7.2406,4.7282-1.4922,4.881.542,5.24,6.8792.598,6.8792.598" style="fill:none;stroke:#aebbc7;stroke-linecap:round;stroke-linejoin:round;stroke-width:0.5px"/><path d="M164.3679,130.2967c-8.0744-.3978-11.46-.3978-11.1428-4.1055s1.1548-4.8665,4.7429-7.337,6.2193-4.3841,6.2193-4.3841" style="fill:none;stroke:#aebbc7;stroke-linecap:round;stroke-linejoin:round;stroke-width:0.5px"/><path d="M164.3679,132.65c-5.3235.3588-20.0317-2.7485-19.4367-7.4154-.3588-6.1,3.3489-8.7643,3.3489-8.7643l15.9072-10.8506" style="fill:none;stroke:#aebbc7;stroke-linecap:round;stroke-linejoin:round;stroke-width:0.5px"/><path d="M147.5951,117.0989v-4.3031l-.9649-.2394s-7.2771,6.03-8.0942,13.3657a1.4829,1.4829,0,0,1-1.9012,1.2694l-17.0838-5.1544" style="fill:none;stroke:#aebbc7;stroke-linecap:round;stroke-linejoin:round;stroke-width:0.5px"/><path d="M139.3554,129.106a1.4785,1.4785,0,0,1-1.5223.4178l-18.2821-5.42" style="fill:none;stroke:#aebbc7;stroke-miterlimit:10"/><path d="M147.5951,113.3218s-7.3773,6.3925-7.8549,14.8679a1.47,1.47,0,0,1-.3848.9163" style="fill:none;stroke:#aebbc7;stroke-linecap:round;stroke-linejoin:round;stroke-width:0.5px"/><polyline points="164.368 99.998 152.227 107.428 119.551 122.037" style="fill:none;stroke:#aebbc7;stroke-linecap:round;stroke-linejoin:round;stroke-width:0.5px"/><path d="M58.5777,95.5727c0-2.8514.897-5.5158,4.57-7.6546l5.3077-3.2915A7.8383,7.8383,0,0,1,75.73,83.4374c3.5416,1.4352,31.2745,10.9314,35.82,12.7255a12.02,12.02,0,0,1,8.0017,11.9127V142.108l-5.7439,3.7231-1.5886-.6234V112.4083c0-6.35-3.037-9.9706-7.5819-11.7647S73.324,89.4962,69.7078,88.261c-4.1216-1.4079-8.7541,1.7016-8.7541,5.6792" style="fill:#141b21;stroke:#aebbc7;stroke-miterlimit:10"/><path d="M113.8263,145.8311v-34.34a12.02,12.02,0,0,0-8.0017-11.9128c-4.545-1.7941-32.2779-11.29-35.82-12.7255" style="fill:none;stroke:#aebbc7;stroke-linecap:round;stroke-linejoin:round;stroke-width:0.25px"/><path d="M68.8171,87.9181l-8.4453,6.59s-3.8273,3.2779-5.8606,3.5468-7.6546,3.0787-9.2094,10.4049l4.9037,2.4528a10.582,10.582,0,0,0,5.7047-1.8285c2.7871-1.91,10.3221-6.933,10.3221-6.933s5.8606-5.5981,7.4154-7.643L69.342,92.3s-10.7643,5.7547-14.8308,5.7547" style="fill:none;stroke:#aebbc7;stroke-linecap:round;stroke-linejoin:round"/><path d="M66.0561,133.29v6.7211l-5.8973,3.7817a11.2514,11.2514,0,0,1-5.3917,1.2356c-4.2123,0-7.6384-1.8909-7.6384-4.2311v-6.6835a3.5606,3.5606,0,0,1,2.0782-2.9018l4.4369-2.3214,3.4822,1.2355,3.4073,1.1982v.0188Z" style="fill:none;stroke:#aebbc7;stroke-linecap:round;stroke-linejoin:round"/><path d="M47.1272,134.1066c0,2.3367,3.42,4.2309,7.6389,4.2309a11.376,11.376,0,0,0,5.4015-1.2392l5.8862-3.8062" style="fill:none;stroke:#aebbc7;stroke-linecap:round;stroke-linejoin:round;stroke-width:0.5px"/><path d="M67.3853,128.3475s-.3019,3.2033-2.2815,4.6066" style="fill:none;stroke:#aebbc7;stroke-miterlimit:10;stroke-width:0.5px"/><path d="M46.8175,104.3013l-8.6625,5.8194A12.7926,12.7926,0,0,0,33.76,117.445c-.799,4.5943-1.7978,12.7176-.7324,15.8471s1.5314,4.1649,2.8631,5.0454,10.9264,5.2751,10.9264,5.2751.4664.68,1.8279-.2925" style="fill:none;stroke:#aebbc7;stroke-linecap:round;stroke-linejoin:round"/><path d="M51.9865,129.7575l2.2819-7.72s2.2931-5.3245,4.3093-6.1236a47.9362,47.9362,0,0,0,4.7265-2.33" style="fill:none;stroke:#aebbc7;stroke-linecap:round;stroke-linejoin:round;stroke-width:0.5px"/><path d="M78.8057,134.4093c-1.7507.0832-1.1726-4.4538,1.3608-3.0851a54.0217,54.0217,0,0,0,3.5988-4.7572c1.7312-2.5967,3.0629-4.8606,6.2589-6.0591s21.985-9.5955,21.985-9.5955" style="fill:none;stroke:#aebbc7;stroke-miterlimit:10;stroke-width:0.5px"/><path d="M78.8057,134.4093s.0989,1.48,2.0964-.5846a52.4568,52.4568,0,0,0,4.0617-4.9343s2.58-2.64,3.3562.4388" style="fill:none;stroke:#aebbc7;stroke-linecap:round;stroke-linejoin:round;stroke-width:0.5px"/><path d="M78.8844,137.11a7.712,7.712,0,0,1-.7833-.3343l-1.137,1.1153s-.9322-.0635-.5993-1.1289.726-2.1307,1.3951-2.2638c.158-.0315.545-.07,1.044-.1114" style="fill:none;stroke:#aebbc7;stroke-linecap:round;stroke-linejoin:round"/><path d="M112.2163,125.0053l-24.47,11.77s-4.8675,1.7877-8.8619.3343" style="fill:none;stroke:#aebbc7;stroke-miterlimit:10"/><path d="M77.76,134.498c-1.9944.799-2.5334-5.2009,0-3.8323,0,0,.6334-.7327,1.5045-1.8577" style="fill:none;stroke:#aebbc7;stroke-linecap:round;stroke-linejoin:round;stroke-width:0.5px"/><path d="M57.126,130.1259s-.4606-2.6933.7379-3.7586a14.0992,14.0992,0,0,0,1.6108-1.598l1.0586-5.6207a13.7242,13.7242,0,0,1,2.7709-5.5655c2.0838-2.3305,3.1491-4.9409,8.5425-7.9637L85.8814,93.9823" style="fill:none;stroke:#aebbc7;stroke-linecap:round;stroke-linejoin:round"/><path d="M68.5737,107.777s2.0744-1.8434,6.1361-.3491S91.0722,113.05,91.0722,113.05a1.1565,1.1565,0,0,1,0,1.7312c-.9148.8656-10.37,9.84-11.7015,14.1088" style="fill:none;stroke:#aebbc7;stroke-linecap:round;stroke-linejoin:round;stroke-width:0.5px"/><ellipse cx="87.6938" cy="132.3144" rx="3.103" ry="1.8123" transform="translate(-66.2893 170.8697) rotate(-70.5219)" style="fill:none;stroke:#aebbc7;stroke-linecap:round;stroke-linejoin:round;stroke-width:0.5px"/><path d="M80.6451,134.3866a27.105,27.105,0,0,0,5.1454-.2764" style="fill:none;stroke:#aebbc7;stroke-linecap:round;stroke-linejoin:round;stroke-width:0.5px"/><path d="M112.0092,116.2135s-13.6086,6.4439-16.7911,7.859-5.3806,10.6288.5433,7.6173,16.0721-7.8369,16.0721-7.8369" style="fill:none;stroke:#aebbc7;stroke-miterlimit:10;stroke-width:0.5px"/><path d="M119.551,112.5564s18.9433-8.8584,21.0444-9.7923,4.28,4.8249-.5447,7.3151-20.5,9.4191-20.5,9.4191" style="fill:none;stroke:#aebbc7;stroke-linecap:round;stroke-linejoin:round;stroke-width:0.5px"/><path d="M91.4655,113.8146c.2334-.1556,15.1948-12.19,15.1948-12.19" style="fill:none;stroke:#aebbc7;stroke-linecap:round;stroke-linejoin:round;stroke-width:0.5px"/><line x1="113.4361" y1="96.5371" x2="144.9068" y2="70.0796" style="fill:none;stroke:#aebbc7;stroke-linecap:round;stroke-linejoin:round;stroke-width:0.5px"/><path d="M91.0089,88.8772c.1.0349,34.4116-29.0049,34.4116-29.0049" style="fill:none;stroke:#aebbc7;stroke-linecap:round;stroke-linejoin:round"/><path d="M119.0042,65.3V59.1848a5.8482,5.8482,0,0,1,2.9144-5.214c3.2684-2.179,31.2861-20.3111,31.2861-20.3111" style="fill:none;stroke:#aebbc7;stroke-linecap:round;stroke-linejoin:round"/><path d="M120.8439,63.7442v-4.326s-.0148-1.9455,1.775-2.1011" style="fill:none;stroke:#aebbc7;stroke-linecap:round;stroke-linejoin:round;stroke-width:0.5px"/><path d="M119.9876,55.8474s.9193-1.721,3.7208-.7093l-1.09,1.1673v2.49L140.7511,65.3l1.79-.9792s2.3659,1.5564,2.3659,3.5019V92.3l2.6734,1.0479,19.7076-14.4746V56.2276c0-2.179,0-4.8249-3.9688-7.2373,0,0,.5447-1.2451-1.1674-2.1012S146.63,41.13,146.63,41.13s-.3693-.3891-1.7234.467c0,0-2.6766-.8308-4.278.2071" style="fill:none;stroke:#aebbc7;stroke-linecap:round;stroke-linejoin:round"/><path d="M126.5958,50.9121a7.0811,7.0811,0,0,1,5.595-.5989,49.9469,49.9469,0,0,1,5.86,2.4363c-.4908,1.3769,2.0619,3.4781,6.8556,2.233l6.7391,2.3346s3.5019,1.1673,3.5019,6.926l4.358-2.7237s2.0074-5.35-4.0142-7.4708L149.47,51.928h0c.3083-2.1595-4.6722-3.249-7.9406-2.7821l-6.2257-2.3346s-3.7353-.5447-3.7353,1.7121v1.5553" style="fill:none;stroke:#aebbc7;stroke-linecap:round;stroke-linejoin:round;stroke-width:0.5px"/><path d="M122.6189,56.3054l17.9765,5.8,2.0234-.9755s4.9614.9338,4.9614,7.0038V92.638" style="fill:none;stroke:#aebbc7;stroke-linecap:round;stroke-linejoin:round;stroke-width:0.5px"/><path d="M154.9638,62.1058l2.2074-1.209c1.0894-1.2451.877-3.2684-2.2074-4.5914s-6.0416-2.2568-6.0416-2.2568-.0214-2.0476-7.3151-2.5024L135.4593,49.48a1.9514,1.9514,0,0,0-2.3687,1.1476" style="fill:none;stroke:#aebbc7;stroke-linecap:round;stroke-linejoin:round;stroke-width:0.5px"/><path d="M143.2114,39.8075c1.2993-6.2375,3.9988-8.56,13.2594-5.37s34.7078,12.84,34.7078,12.84a8.368,8.368,0,0,1,4.4358,7.393v8.603" style="fill:none;stroke:#aebbc7;stroke-linecap:round;stroke-linejoin:round"/><path d="M141.8052,41.0422s-.1008-5.7483,3.6248-8.3163,6.9941-4.5914,6.9941-4.5914,3.4241-2.1012,8.9493,0,33.3071,11.8856,35.953,12.9077,5.8669,4.524,5.8669,9.5823v9.2478" style="fill:none;stroke:#aebbc7;stroke-linecap:round;stroke-linejoin:round"/><path d="M143.08,35.5122c1.0146-1.9422,4.4418-5.8992,11.0566-3.4089s34.0074,12.14,36.9646,13.3073a10.5665,10.5665,0,0,1,6.1478,9.1828v7.5124" style="fill:none;stroke:#aebbc7;stroke-linecap:round;stroke-linejoin:round;stroke-width:0.5px"/><path d="M59.4747,124.7693c.6132-3.2559,2.29-7.2505,4.6676-6.9023l2.3775.3482h0c4.7551-2.9588,11.9935-2.0606,14.53,4.9136l1.2806.9745" style="fill:none;stroke:#aebbc7;stroke-linecap:round;stroke-linejoin:round;stroke-width:0.5px"/><line x1="77.3643" y1="118.1996" x2="88.1153" y2="112.0541" style="fill:none;stroke:#aebbc7;stroke-linecap:round;stroke-linejoin:round;stroke-width:0.5px"/><line x1="75.3597" y1="117.1798" x2="82.7398" y2="110.2288" style="fill:none;stroke:#aebbc7;stroke-linecap:round;stroke-linejoin:round;stroke-width:0.5px"/><path d="M66.52,118.2152a6.6168,6.6168,0,0,0-2.6167,4.2538" style="fill:none;stroke:#aebbc7;stroke-linecap:round;stroke-linejoin:round;stroke-width:0.5px"/><path d="M81.0494,123.1288c-2.0078-.317-4.8608,1.1057-6.393,9.8253" style="fill:none;stroke:#aebbc7;stroke-linecap:round;stroke-linejoin:round;stroke-width:0.5px"/><path d="M74.18,133.2921a2.7634,2.7634,0,0,0,2.8443,1.8447" style="fill:none;stroke:#aebbc7;stroke-linecap:round;stroke-linejoin:round"/><path d="M34.1444,115.9158s2.8408-4.2521,6.9091-2.72,11.7821,5.0193,11.7821,5.0193a3.1629,3.1629,0,0,1,2.0681,2.48" style="fill:none;stroke:#aebbc7;stroke-linecap:round;stroke-linejoin:round;stroke-width:0.5px"/><line x1="32.783" y1="132.2908" x2="47.1287" y2="138.5491" style="fill:none;stroke:#aebbc7;stroke-linecap:round;stroke-linejoin:round;stroke-width:0.5px"/><path d="M174.87,33.0117l16.9666-7.4353,1.6531-1.5208a14.0438,14.0438,0,0,1,14.018-2.5126c1.7853-1.1241,2.182.1322,1.8514,1.3224" style="fill:none;stroke:#aebbc7;stroke-linecap:round;stroke-linejoin:round"/><path d="M193.49,24.0556l21.1593,7.67s6.4139-4.43,9.5216-3.0417c1.4547-.9918,4.8931-.3306,6.5462.9919,2.38-1.6531,2.8433-1.058,2.5788.1983s-.7727,2.7111-1.6427,2.7772-2.1263.2964-4.2423.6111-3.8177,5.2136-1.796,6.074l1.8963.7353" style="fill:none;stroke:#aebbc7;stroke-linecap:round;stroke-linejoin:round"/><path d="M232.7665,32.0234a2.6864,2.6864,0,0,1-.7935,4.331l-1.0647.5005a6.0085,6.0085,0,0,1-2.0431,3.1363c-1.3224,2.5788-5.8188,8.4637-8.53,10.3151s-12.76,10.2243-12.76,10.2243" style="fill:none;stroke:#aebbc7;stroke-linecap:round;stroke-linejoin:round"/><path d="M203.1933,54.4721s12.7119-10.8441,14.2988-12.0344,4.9592,2.38,1.19,6.0172-12.72,11.4189-12.72,11.4189" style="fill:none;stroke:#aebbc7;stroke-linecap:round;stroke-linejoin:round;stroke-width:0.5px"/><line x1="224.1705" y1="28.6842" x2="202.9479" y2="48.2684" style="fill:none;stroke:#aebbc7;stroke-linecap:round;stroke-linejoin:round;stroke-width:0.5px"/><line x1="214.6489" y1="31.7259" x2="195.6144" y2="40.4126" style="fill:none;stroke:#aebbc7;stroke-linecap:round;stroke-linejoin:round;stroke-width:0.5px"/><path d="M205.5214,28.4171c2.978-1.7827,6.9482.998,8.0378,2.9138" style="fill:none;stroke:#aebbc7;stroke-linecap:round;stroke-linejoin:round;stroke-width:0.5px"/><path d="M206.6464,24.6054c-2.345-1.1446-4.4547.42-5.3777,2.27" style="fill:none;stroke:#aebbc7;stroke-linecap:round;stroke-linejoin:round;stroke-width:0.5px"/><ellipse cx="228.9314" cy="37.2802" rx="3.1324" ry="1.7192" transform="translate(91.8844 224.4098) rotate(-63.0314)" style="fill:none;stroke:#aebbc7;stroke-linecap:round;stroke-linejoin:round;stroke-width:0.5px"/><line x1="231.6528" y1="32.6516" x2="230.3519" y2="34.4884" style="fill:none;stroke:#aebbc7;stroke-linecap:round;stroke-linejoin:round;stroke-width:0.5px"/><path d="M223.3343,28.45a10.6464,10.6464,0,0,0-19.2643-.5616" style="fill:none;stroke:#aebbc7;stroke-linecap:round;stroke-linejoin:round"/><path d="M150.072,33.0117a6.263,6.263,0,0,0-.5893,3.0575" style="fill:none;stroke:#aebbc7;stroke-linecap:round;stroke-linejoin:round;stroke-width:0.5px"/><path d="M160.5413,27.845l21.5159-14.171s3.8753-1.9376,7.35-.3341,7.4833,3.4076,7.4833,3.4076a6.976,6.976,0,0,1,2.84,4.2476" style="fill:none;stroke:#aebbc7;stroke-linecap:round;stroke-linejoin:round"/><line x1="196.8902" y1="16.7475" x2="173.1707" y2="32.0638" style="fill:none;stroke:#aebbc7;stroke-linecap:round;stroke-linejoin:round;stroke-width:0.5px"/><path d="M50.2055,110.9124c2.18-5.4259,4.498-8.9686,9.2692-10.1239s10.4765-2.764,14.173-6.2806" style="fill:none;stroke:#aebbc7;stroke-linecap:round;stroke-linejoin:round;stroke-width:0.25px"/><path d="M61.7273,88.8773c2.8487-1.8451,4.8216-3.2653,8.2778-2.0242" style="fill:none;stroke:#aebbc7;stroke-linecap:round;stroke-linejoin:round;stroke-width:0.25px"/><line x1="139.3337" y1="129.1254" x2="144.9312" y2="125.2343" style="fill:none;stroke:#aebbc7;stroke-miterlimit:10"/><path d="M312.8225,126.7374c-3.4448-1.4229-19.5826-6.9831-21.3049-7.5822l-7.5822-29.1117L282.7,85.85a3.0485,3.0485,0,0,0,.6178-3.2763,6.5519,6.5519,0,0,0-3.6882-2.4337c-2.2464-.8052-28.7185-10.1658-36.7686-13.03s-11.5137-1.8346-13.8352-.3182c-.4867.3182-1.741,1.142-3.4447,2.2465a6.5843,6.5843,0,0,1-2.49-3.3324S208.75,60.9318,206.71,60.2391c-2.0407-.674-5.0548-.5991-8.874,1.7785-3.8192,2.3964-31.583,21.0241-31.583,21.0241s-1.8907.4681-1.8907,4.0063v51.2405a3.34,3.34,0,0,0,1.2916,2.1154l-17.2423,12.0192a1.9938,1.9938,0,0,0-.8237,1.7972l.0187,2.2466a1.9012,1.9012,0,0,0,1.273,2.0781c15.6136,5.4854,77.3005,27.1647,78.8357,27.82a13.9911,13.9911,0,0,0,12.4871-1.91c5.13-3.6132,72.04-48.3011,74.08-49.7427a2.8817,2.8817,0,0,0,1.4416-2.2466v-2.7332C315.7243,128.6845,314.8631,127.58,312.8225,126.7374Z" style="fill:#404d59;stroke:#aebbc7;stroke-miterlimit:10;stroke-width:1.5px"/><path d="M183.7912,99.9279s46.4563-31.6531,48.0253-32.4035,3.752-1.16,7.3675,0S277.0448,81.3726,278.4774,81.85s2.8651,1.9783.614,3.3426-45.2835,30.4934-47.0637,31.5848a8.8629,8.8629,0,0,1-7.4423.4093c-2.8651-1.0232-38.8159-13.9846-40.18-14.5986S182.2413,100.9835,183.7912,99.9279Z" style="fill:none;stroke:#aebbc7;stroke-miterlimit:10;stroke-width:0.5px"/><path d="M205.962,81.7819S226.7,68.327,229.02,66.8s5.7986-2.55,13.8482.315,34.5182,12.211,36.7694,13.03,4.2977,1.7737,4.2977,4.9117v4.98l13.2012,50.7225-2.4209,1.0084-15.3934-5.4849-8.8467,5.4849" style="fill:none;stroke:#aebbc7;stroke-miterlimit:10;stroke-width:0.5px"/><ellipse cx="187.6114" cy="74.2481" rx="4.6388" ry="2.2851" style="fill:none;stroke:#aebbc7;stroke-miterlimit:10;stroke-width:0.5px"/><path d="M225.6058,69.0486a6.67,6.67,0,0,1-2.5212-3.3434l-16.3722-5.4574c-2.0466-.6822-5.0482-.614-8.8684,1.7737s-31.5848,21.011-31.5848,21.011-1.8913.4775-1.8913,4.0249v51.2315a3.3577,3.3577,0,0,0,1.2774,2.1147l-17.2292,12.0257a1.9173,1.9173,0,0,0-.821,1.7822l.0056,2.2633a1.9254,1.9254,0,0,0,1.2772,2.0749c15.6121,5.4832,77.2967,27.1547,78.8455,27.81a13.9737,13.9737,0,0,0,12.4839-1.91c5.1163-3.6155,72.0379-48.2981,74.0844-49.7307a2.8932,2.8932,0,0,0,1.4286-2.2553v-2.7288c.0015-1.0549-.8564-2.1533-2.9-2.9958-3.6447-1.5024-21.45-7.642-21.45-7.642" style="fill:none;stroke:#aebbc7;stroke-miterlimit:10;stroke-width:0.5px"/><path d="M147.5951,154.2115a1.912,1.912,0,0,0,1.2828,1.6321c15.6121,5.4832,77.2967,27.1548,78.8455,27.81a13.9743,13.9743,0,0,0,12.4839-1.91c5.1163-3.6156,72.0379-48.2982,74.0844-49.7308a2.8931,2.8931,0,0,0,1.4286-2.2553" style="fill:none;stroke:#aebbc7;stroke-miterlimit:10;stroke-width:0.5px"/><polyline points="247.65 157.057 256.143 151.322 271.802 157.057 274.279 155.48 259.947 101.174 279.862 87.419 294.715 141.767" style="fill:none;stroke:#aebbc7;stroke-miterlimit:10;stroke-width:0.5px"/><path d="M180.8578,98.8364s-3.0421,3.1127,1.2655,5.0629l-11.7662,56.7076,3.2733,1.15,11.5008-8.0506,7.119,2.4489" style="fill:none;stroke:#aebbc7;stroke-miterlimit:10;stroke-width:0.5px"/><polyline points="173.63 161.757 185.369 104.965 201.293 110.804 189.527 167.511 192.801 168.661 204.301 160.611 211.42 163.06" style="fill:none;stroke:#aebbc7;stroke-miterlimit:10;stroke-width:0.5px"/><path d="M192.8006,168.6614,204.39,111.6l16.455,6.2-11.6777,56.081,3.45.9732,10.8815-7.6082c1.0616,1.4155,8.7583,1.7693,10.5276-.6193l15.04,5.6619,2.4831-1.7693L237.3,116.731l20.2591-13.801,14.2432,54.1269" style="fill:none;stroke:#aebbc7;stroke-miterlimit:10;stroke-width:0.5px"/><line x1="204.3014" y1="160.6108" x2="204.3014" y2="111.5999" style="fill:none;stroke:#aebbc7;stroke-miterlimit:10;stroke-width:0.5px"/><line x1="185.1312" y1="153.7064" x2="185.3693" y2="104.9648" style="fill:none;stroke:#aebbc7;stroke-miterlimit:10;stroke-width:0.5px"/><path d="M212.6173,174.8541l10.97-56a15.3242,15.3242,0,0,0,11.1469-.5308l14.3317,53.9651" style="fill:none;stroke:#aebbc7;stroke-miterlimit:10;stroke-width:0.5px"/><line x1="223.5873" y1="118.8542" x2="223.4988" y2="167.2459" style="fill:none;stroke:#aebbc7;stroke-miterlimit:10;stroke-width:0.5px"/><line x1="234.0264" y1="166.6266" x2="234.7342" y2="118.3234" style="fill:none;stroke:#aebbc7;stroke-miterlimit:10;stroke-width:0.5px"/><line x1="279.3217" y1="136.2823" x2="279.8618" y2="87.4186" style="fill:none;stroke:#aebbc7;stroke-miterlimit:10;stroke-width:0.5px"/><path d="M283.9348,90.0363l-1.2384-4.1925a3.03,3.03,0,0,0,.6192-3.272" style="fill:none;stroke:#aebbc7;stroke-miterlimit:10;stroke-width:0.5px"/><polyline points="188.71 104.199 207.083 101.174 217.677 93.992 207.556 90.441" style="fill:none;stroke:#aebbc7;stroke-miterlimit:10;stroke-width:0.5px"/><polyline points="207.083 101.174 207.083 89.79 209.213 88.429 219.748 92.3 230.342 85.174 231.229 73.278 235.076 71.963 235.076 94.051" style="fill:none;stroke:#aebbc7;stroke-miterlimit:10;stroke-width:0.5px"/><polyline points="235.076 71.963 234.026 85.943 223.24 93.578 231.111 96.537 256.501 79.611 259.46 80.676 259.46 91.921" style="fill:none;stroke:#aebbc7;stroke-miterlimit:10;stroke-width:0.5px"/><polyline points="271.802 90.037 253.778 92.986 242.593 100.644 234.026 97.602 259.46 80.676" style="fill:none;stroke:#aebbc7;stroke-miterlimit:10;stroke-width:0.5px"/><polyline points="268.024 92.576 256.027 94.508 245.788 101.686 251.549 103.534" style="fill:none;stroke:#aebbc7;stroke-miterlimit:10;stroke-width:0.5px"/><line x1="256.0271" y1="94.5079" x2="256.0271" y2="100.6436" style="fill:none;stroke:#aebbc7;stroke-miterlimit:10;stroke-width:0.5px"/><polyline points="192.525 105.594 209.332 102.93 220.754 95.057 228.921 98.055 208.799 111.6" style="fill:none;stroke:#aebbc7;stroke-miterlimit:10;stroke-width:0.5px"/><polyline points="212.095 112.685 232.301 99.141 240.107 102.1 228.921 109.735 228.629 117.778" style="fill:none;stroke:#aebbc7;stroke-miterlimit:10;stroke-width:0.5px"/><polyline points="232.503 116.47 232.503 110.327 243.184 103.329 249.066 105.345" style="fill:none;stroke:#aebbc7;stroke-miterlimit:10;stroke-width:0.5px"/><line x1="243.1844" y1="103.3287" x2="243.1844" y2="109.0839" style="fill:none;stroke:#aebbc7;stroke-miterlimit:10;stroke-width:0.5px"/><line x1="232.3013" y1="99.1411" x2="232.3013" y2="107.4279" style="fill:none;stroke:#aebbc7;stroke-miterlimit:10;stroke-width:0.5px"/><line x1="220.754" y1="95.0575" x2="220.754" y2="103.5337" style="fill:none;stroke:#aebbc7;stroke-miterlimit:10;stroke-width:0.5px"/><line x1="209.3317" y1="102.93" x2="209.3317" y2="110.9124" style="fill:none;stroke:#aebbc7;stroke-miterlimit:10;stroke-width:0.5px"/><line x1="237.2812" y1="67.0302" x2="237.2812" y2="92.3" style="fill:none;stroke:#aebbc7;stroke-miterlimit:10;stroke-width:0.5px"/><path d="M166.2592,83.0325s-3.6784,3.622,1.6682,5.4042,14.2579,5.0921,14.2579,5.0921l2.0858,3.0083" style="fill:none;stroke:#aebbc7;stroke-miterlimit:10;stroke-width:0.5px"/><path d="M186.4674,95.0575l-2.1963-3.4382s-11.4843-4.0318-13.914-4.5619-2.6624-2.2816,0-3.57,10.9466-6.9542,10.9466-6.9542,4.2487,2.9924,11.2217,1.0829l2.6447.6365,1.5276,2.4234,6.9449,2.8114-22.7848,15.349s-1.77.6434-1.77,4.0936V117.8" style="fill:none;stroke:#aebbc7;stroke-miterlimit:10;stroke-width:0.5px"/><path d="M205.962,81.7819l-6.9449-2.8114L197.49,76.5471l-2.6447-.6365s2.2021-3.6421-4.7918-5.3345l11.3927-7.5042s2.3876-1.9784,7.163-.2729,12.7571,4.7072,12.7571,4.7072.2687,2.3641,1.8739,3.0581" style="fill:none;stroke:#aebbc7;stroke-miterlimit:10;stroke-width:0.5px"/><line x1="204.3014" y1="62.1058" x2="204.3014" y2="81.3848" style="fill:none;stroke:#aebbc7;stroke-miterlimit:10;stroke-width:0.5px"/><path d="M174.6483,88.3463l6.6554-4.0962c3.1553,2.2211,8.6458,1.6753,11.2217.3792l6.1884,2.1784" style="fill:none;stroke:#aebbc7;stroke-miterlimit:10;stroke-width:0.5px"/><line x1="192.5254" y1="84.6293" x2="192.5254" y2="77.6161" style="fill:none;stroke:#aebbc7;stroke-miterlimit:10;stroke-width:0.5px"/><line x1="181.3037" y1="84.2501" x2="181.3037" y2="76.5332" style="fill:none;stroke:#aebbc7;stroke-miterlimit:10;stroke-width:0.5px"/><path d="M165.6453,140.4036a2.8068,2.8068,0,0,1,2.8013-.7267c1.8762.415,5.9051,1.678,5.9051,1.678" style="fill:none;stroke:#aebbc7;stroke-miterlimit:10;stroke-width:0.5px"/><line x1="256.1433" y1="151.3217" x2="257.5588" y2="102.93" style="fill:none;stroke:#aebbc7;stroke-miterlimit:10;stroke-width:0.5px"/><polygon points="154.916 160.227 153.246 161.458 128.131 152.391 128.131 147.06 131.645 144.373 156.947 153.474 156.947 156.002 154.916 157.407 154.916 160.227" style="fill:#141b21;stroke:#aebbc7;stroke-linecap:round;stroke-linejoin:round"/><polyline points="128.384 147.281 153.225 156.216 156.947 153.474" style="fill:none;stroke:#aebbc7;stroke-miterlimit:10;stroke-width:0.25px"/><line x1="153.2251" y1="156.2163" x2="153.2251" y2="161.4583" style="fill:none;stroke:#aebbc7;stroke-miterlimit:10;stroke-width:0.25px"/><polygon points="203.22 177.591 201.549 178.822 176.434 169.754 176.434 164.424 179.948 161.737 205.25 170.838 205.25 173.365 203.22 174.771 203.22 177.591" style="fill:#141b21;stroke:#aebbc7;stroke-linecap:round;stroke-linejoin:round"/><polyline points="176.687 164.644 201.529 173.58 205.25 170.838" style="fill:none;stroke:#aebbc7;stroke-miterlimit:10;stroke-width:0.25px"/><line x1="201.5287" y1="173.5801" x2="201.5287" y2="178.822" style="fill:none;stroke:#aebbc7;stroke-miterlimit:10;stroke-width:0.25px"/><polygon points="274.234 139.586 299.039 151.379 299.039 162.196 320.442 152.506 299.039 122.466 299.039 133.283 268.024 118.537 274.234 139.586" style="fill:#f4ae3d;stroke:#141b21;stroke-miterlimit:10;stroke-width:1.5px"/><polygon points="50.035 147.427 25.231 163.676 25.231 174.493 3.828 168.648 25.231 134.763 25.231 145.58 51.052 128.665 50.035 147.427" style="fill:#f4ae3d;stroke:#141b21;stroke-miterlimit:10;stroke-width:1.5px"/><polygon points="53.18 26.619 28.375 14.826 28.375 4.009 6.972 13.699 28.375 43.74 28.375 32.923 53.362 44.802 53.18 26.619" style="fill:#f4ae3d;stroke:#141b21;stroke-miterlimit:10;stroke-width:1.5px"/></g></svg>
