<?xml version="1.0" encoding="UTF-8"?><svg id="uuid-1d61434b-7fd0-4368-8aea-659da1afeed8" xmlns="http://www.w3.org/2000/svg" width="487.497" height="327.43" xmlns:xlink="http://www.w3.org/1999/xlink" viewBox="0 0 487.497 327.43"><defs><clipPath id="uuid-295cded1-11bc-4b99-bd4d-4c6ad178f695"><rect x="-691.478" y="260.241" width="487.497" height="252.078" style="fill:none;"/></clipPath></defs><line x1="3.318" y1="101.32" x2="512.545" y2="160.815" style="fill:none; stroke:#687581; stroke-linejoin:round; stroke-width:.5px;"/><line x1="3.318" y1="91.818" x2="18.904" y2="93.592" style="fill:none; stroke:#687581; stroke-linejoin:round;"/><path d="M63.29-18.821c-18.574,67.579-27.064,102.995-29.637,114.092l312.936,35.628" style="fill:none; stroke:#687581; stroke-linejoin:round;"/><path d="M345.831,134.538c.03-.147.061-.295.091-.442,12.038-58.336,57.41-210.774,91.231-289.634" style="fill:none; stroke:#687581; stroke-linejoin:round;"/><path d="M18.112,97.061c.249-1.111,7.196-32.477,28.043-108.851" style="fill:none; stroke:#687581; stroke-linejoin:round;"/><path d="M26.195,96.364c.461-4.931,1.699-9.702,2.831-14.502,3.375-13.937,7.212-29.167,10.809-42.957,2.52-9.376,9.061-33.688,11.574-42.751,1.341-4.735,2.456-9.532,4.384-14.106-.668,4.918-2.142,9.616-3.379,14.379-2.423,8.967-8.859,33.498-11.3,42.814-3.657,13.743-7.582,28.999-11.016,42.881-1.184,4.775-2.182,9.587-3.902,14.243h0Z" style="fill:#687581;"/><line x1="3.318" y1="95.369" x2="18.708" y2="97.129" style="fill:none; stroke:#687581; stroke-linejoin:round; stroke-width:.5px;"/><line x1="32.878" y1="98.749" x2="512.545" y2="153.603" style="fill:none; stroke:#687581; stroke-linejoin:round; stroke-width:.5px;"/><polygon points="25.844 97.945 32.906 98.501 32.85 98.998 25.844 97.945 25.844 97.945" style="fill:#687581;"/><path d="M48.397,36.52C124.601-33.008,203.85-87.644,212.444-93.453c36.883-24.93,63.592-33.845,87.643-35.027" style="fill:none; stroke:#687581; stroke-linejoin:round; stroke-width:.5px;"/><line x1="389.394" y1="186.145" x2="494.803" y2="200.533" style="fill:none; stroke:#687581; stroke-linejoin:round; stroke-width:.5px;"/><line x1="-1.357" y1="132.807" x2="377.293" y2="184.493" style="fill:none; stroke:#687581; stroke-linejoin:round; stroke-width:.5px;"/><path d="M336.974,409.271c2.435-19.51,5.015-39.035,7.741-58.574,10.592-75.908,16.884-105.38,36.366-160.048,1.705-4.784,1.296-3.91,3.841-8.305l16.001-27.633c2.677-4.623,2.083-4.133,7.131-5.882l.481-.167-2.358-.275c-1.636-.191-1.796-.43-1.351-2.016.531-1.891.361-1.652,1.97-2.78l.309-.216c2.428-1.702,2.021-1.599,4.967-1.262,0,0,10.858-89.856,82.731-314.234" style="fill:none; stroke:#687581; stroke-linejoin:round; stroke-width:.5px;"/><path d="M-1.357,10.216c48.696-45.978,165.339-140.651,208.599-169.642" style="fill:none; stroke:#687581; stroke-linejoin:round; stroke-width:.5px;"/><path d="M1.354,26.588S19.838,10.467,46.003-11.919" style="fill:none; stroke:#687581; stroke-linejoin:round; stroke-width:.5px;"/><path d="M2,38.501S18.246,24.332,41.837,4.114" style="fill:none; stroke:#687581; stroke-linejoin:round; stroke-width:.5px;"/><path d="M2,53.765c11.496-10.074,23.034-20.117,34.612-30.131" style="fill:none; stroke:#687581; stroke-linejoin:round;"/><path d="M56.361,6.617c3.728-3.2,7.46-6.397,11.196-9.591,32.394-27.691,72.132-61.156,103.469-85.964,38.361-30.368,36.841-34.893,81.24-37.26,30.328-1.617,111.692-5.119,176.077-7.833" style="fill:none; stroke:#687581; stroke-linejoin:round;"/><path d="M202.36,114.479c-15.737-49.351-3.604-97.322,28.311-108.817,33.14-11.936,75.06,19.976,93.632,71.276,6.481,17.902,9.262,35.8,8.728,52.024" style="fill:none; stroke:#687581; stroke-linecap:round; stroke-linejoin:round;"/><path d="M300.836,125.393c.597-7.354,1.531-18.543,1.531-18.543,0,0,5.909-1.985,8.539-2.829,2.63-.843,4.695.406,5.188,2.815,1.457,7.124,2.399,14.013,2.647,20.541" style="fill:none; stroke:#687581; stroke-linecap:round; stroke-linejoin:round;"/><path d="M276.598,72.447c7.013-.147,9.743,2.26,13.297,10.554,2.138,4.99,4.073,10.896,4.99,13.645s1.324,8.045.916,12.831c-.4,4.701-2.071,11.313-2.809,15.047" style="fill:none; stroke:#687581; stroke-linecap:round; stroke-linejoin:round; stroke-width:.5px;"/><path d="M214.992,82.832c1.761-.626,12.91.148,15.49.487,2.155.284,3.13,1.37,3.862,3.108,3.063,7.279,6.729,17.326,8.087,21.468s2.58,5.906,4.277,7.739c1.697,1.833,4.55,4.264,4.55,4.264" style="fill:none; stroke:#687581; stroke-linecap:round; stroke-linejoin:round; stroke-width:.5px;"/><path d="M294.157,71.943c8.556-.487,8.435-.505,13.31-.708,3.259-.136,5.838.136,8.214,4.141s6.449,11.948,7.807,15.139c1.358,3.191,1.833,5.635-2.648,7.332-4.481,1.697-15.494,4.841-17.149,5.282s-1.541,2.608-1.684,4.331" style="fill:none; stroke:#687581; stroke-linecap:round; stroke-linejoin:round; stroke-width:.5px;"/><path d="M286.844,77.457s15.293-1.656,19.672-2.114,5.55.407,7.128,2.902c1.578,2.495,4.684,9.114,5.804,11.507,1.12,2.393,1.426,3.921-1.935,4.99s-21.774,6.414-21.774,6.414" style="fill:none; stroke:#687581; stroke-linecap:round; stroke-linejoin:round; stroke-width:.5px;"/><path d="M290.696,84.932s14.465-2.629,16.247-2.883c1.782-.255,2.648-.102,3.666,1.578,1.018,1.68,1.064,1.938,2.045,3.998.981,2.06.142,2.776-1.804,3.295-2.661.71-16.408,4.223-16.408,4.223" style="fill:none; stroke:#687581; stroke-linecap:round; stroke-linejoin:round; stroke-width:.5px;"/><path d="M300.321,85.74c-.177.039-.328.154-.413.314s-.096.349-.03.518l1.297,3.314c.113.289.423.45.725.377l3.193-.779c.308-.075.511-.371.468-.686-.167-1.219-.575-2.358-1.506-3.552-.141-.18-.382-.25-.605-.201l-3.128.696Z" style="fill:none; stroke:#687581; stroke-linecap:round; stroke-linejoin:round; stroke-width:.698px;"/><path d="M230.345,100.209c-.18.023-.34.123-.44.275s-.128.339-.077.513l.989,3.419c.086.298.38.487.687.441l2.595-.382c.314-.047.543-.323.528-.64-.055-1.229-.357-2.401-1.175-3.675-.124-.193-.358-.284-.585-.255l-2.523.306Z" style="fill:none; stroke:#687581; stroke-linecap:round; stroke-linejoin:round; stroke-width:.698px;"/><path d="M228.542,83.324c2.371.066,3.283.798-.529,2.094-3.168,1.077-6.849,2.436-9.283,3.229-2.435.793-4.48,2.72-3.114,8.777,1.699,7.531,5.946,19.242,5.946,19.242" style="fill:none; stroke:#687581; stroke-linecap:round; stroke-linejoin:round; stroke-width:.5px;"/><path d="M235.014,88.043s-10.453,3.492-12.492,4.171-3.454,1.416-2.775,5.379,2.605,11.494,3.397,14.156,2.435,3.68,5.719,3.284c2.616-.316,12.095-1.494,15.843-1.96" style="fill:none; stroke:#687581; stroke-linecap:round; stroke-linejoin:round; stroke-width:.5px;"/><path d="M238.015,95.655s-9.208,1.819-11.559,2.396c-1.739.427-2.255.918-1.959,2.231.296,1.313,1.305,5.029,1.656,6.401.351,1.371.729,1.669,2.768,1.443,1.468-.163,8.898-1.295,12.941-1.916" style="fill:none; stroke:#687581; stroke-linecap:round; stroke-linejoin:round; stroke-width:.5px;"/><path d="M273.71,116.675c5.027-1.338,10.675-2.285,15.632-3.745,1.66-.508,3.417-1.237,4.095-2.847,1.12-3.279.773-7.071.823-10.533-.031-3.559-1.208-6.998-2.205-10.394,1.403,3.286,2.758,6.745,2.704,10.384.061,2.691.027,5.388-.233,8.073-.13,1.809-.809,3.823-2.511,4.738-2.4,1.31-5.131,1.726-7.739,2.399-3.487.83-7.006,1.503-10.567,1.925h0Z" style="fill:#687581;"/><path d="M236.565,79.813c11.618-.824,12.518,6.398,16.193,15.139,0,0,2.274,5.641,2.274,5.641,1.593,3.722,4.494,6.698,7.034,9.8,1.263,1.586,2.537,3.169,3.999,4.582-3.144-2.602-5.725-5.785-8.267-8.962-1.265-1.596-2.427-3.322-3.226-5.223l-2.282-5.661c-3.79-8.96-4.162-15.002-15.726-15.317h0Z" style="fill:#687581;"/><path d="M246.489,93.714c1.476,3.407,3.079,7.24,4.256,10.792.433,1.208.993,2.329,1.797,3.317,3.247,4.012,6.906,7.604,10.592,11.229,3.602,4.265,9.613,2.38,14.278,1.274,2.497-.634,4.988-1.292,7.475-1.965l7.52-1.818-7.389,2.301c-2.489.673-4.983,1.333-7.483,1.967-4.766,1.171-11.082,3-14.768-1.419-3.665-3.601-7.37-7.242-10.619-11.26-.831-1.016-1.438-2.231-1.871-3.449-1.267-3.518-2.531-7.463-3.788-10.967h0Z" style="fill:#687581;"/><path d="M278.142,104.532c-.506,1.801-2.223.878-3.139.007,0,0-2.757-2.452-2.757-2.452-1.034-1.046-6.115-5.136-6.743-6.383-.835-1.811.2-3.786.461-5.589,0,0,.808-3.596.808-3.596.597-2.284.833-6.89,4.205-4.057,2.526,2.225,7.376,6.097,9.788,8.476,1.44,1.502.369,3.788.075,5.513-.534,2.41-1.219,4.79-2.3,7.018.639-2.999,1.604-5.931,2.206-8.927.115-.603.286-1.201.252-1.752.011-1.174-1.036-1.949-1.937-2.751-1.852-1.571-6.63-5.626-8.427-7.14-.462-.357-.987-.72-1.465-.766-.451-.058-.774.429-.973.976-.38,1.099-.58,2.353-.874,3.535l-.818,3.594c-.248,1.7-1.226,3.574-.528,5.213.264.487.699.915,1.134,1.333l5.476,4.923,2.744,2.455c.878.748,1.952,1.77,2.811.371h0Z" style="fill:#687581;"/><path d="M271.57,85.228c-1.691-1.44-2.367-1.215-2.856.951l-1.189,5.257c-.836,3.699-.906,3.481,1.922,6.007l5.158,4.608c1.63,1.456,2.275,1.268,2.866-.836l1.408-5.015c.551-1.961.837-2.904.599-3.687s-1.003-1.405-2.553-2.726l-5.354-4.56Z" style="fill:none; stroke:#687581; stroke-linecap:round; stroke-linejoin:round; stroke-width:.5px;"/><path d="M273.188,87.978c-1.092-.93-1.529-.785-1.845.615l-.768,3.396c-.54,2.39-.585,2.248,1.242,3.881l3.332,2.977c1.053.941,1.47.819,1.851-.54l.909-3.239c.356-1.267.541-1.876.387-2.382s-.648-.908-1.65-1.761l-3.458-2.945Z" style="fill:none; stroke:#687581; stroke-linecap:round; stroke-linejoin:round; stroke-width:.5px;"/><path d="M274.162,91.265c-.421-.359-.59-.303-.712.237l-.296,1.31c-.208.922-.226.867.479,1.497l1.285,1.148c.406.363.567.316.714-.208l.351-1.249c.137-.489.209-.724.149-.919s-.25-.35-.636-.679l-1.334-1.136Z" style="fill:none; stroke:#687581; stroke-linecap:round; stroke-linejoin:round; stroke-width:.5px;"/><line x1="273.776" y1="91.041" x2="272.097" y2="87.39" style="fill:none; stroke:#687581; stroke-linecap:round; stroke-linejoin:round; stroke-width:.5px;"/><line x1="275.372" y1="95.685" x2="276.333" y2="99.435" style="fill:none; stroke:#687581; stroke-linecap:round; stroke-linejoin:round; stroke-width:.5px;"/><line x1="279.432" y1="92.384" x2="278.265" y2="92.596" style="fill:none; stroke:#687581; stroke-linecap:round; stroke-linejoin:round; stroke-width:.5px;"/><line x1="270.268" y1="94.048" x2="267.051" y2="94.632" style="fill:none; stroke:#687581; stroke-linecap:round; stroke-linejoin:round; stroke-width:.5px;"/><path d="M361.743,70.785l-11.434-31.69c-1.809-5.015-1.995-5.124-7.26-4.288l-37.75,5.998" style="fill:none; stroke:#687581; stroke-linecap:round; stroke-linejoin:round; stroke-width:.5px;"/><path d="M285.914,43.885l-27.465,4.364c-2.126.338-3.58.673-4.486,1.216l-2.849,1.705c-1.689,1.01-1.481,2.739-.192,6.536l5.466,16.101" style="fill:none; stroke:#687581; stroke-linecap:round; stroke-linejoin:round; stroke-width:.5px;"/><path d="M259.432,73.453c-1.92-5.405-3.942-11.445-5.752-16.923-.536-1.855-1.479-3.935-.778-5.864-.295,1.982.703,3.843,1.263,5.7,0,0,1.953,5.629,1.953,5.629,1.294,3.755,2.557,7.521,3.787,11.298.102.297-.37.469-.473.161h0Z" style="fill:#687581;"/><path d="M212.79,83.421c-3.545-15.123.921-20.077,2.875-33.756.807-5.648,3.608-27.99,26.401-31.006,23.519-3.112,39.063,18.03,42.786,23.629,5.058,7.608,6.096,9.221,12.667,15.33,8.359,7.771,5.084,13.457,1.389,13.932-3.695.476-7.384.591-18.567.822s-16.261.086-41.503,4.956c-12.227,2.359-21.084,4.674-26.048,6.092Z" style="fill:none; stroke:#687581; stroke-linecap:round; stroke-linejoin:round;"/><path d="M215.32,87.357c-1.867-.102-2.538-2.356-3.021-3.846-.183-.63.775-.915.964-.285.205,1.489.307,3.678,2.057,4.131h0Z" style="fill:#687581;"/><line x1="216.225" y1="46.116" x2="227.101" y2="79.789" style="fill:none; stroke:#687581; stroke-linecap:round; stroke-linejoin:round;"/><line x1="224.55" y1="71.862" x2="254.067" y2="66.97" style="fill:none; stroke:#687581; stroke-linecap:round; stroke-linejoin:round; stroke-width:.5px;"/><line x1="225.165" y1="73.795" x2="254.719" y2="68.889" style="fill:none; stroke:#687581; stroke-linecap:round; stroke-linejoin:round; stroke-width:.5px;"/><path d="M113.243,89.429l-23.024,4.124c-3.441.616-3.753,1.154-2.58,4.447l1.269,3.563" style="fill:none; stroke:#687581; stroke-linecap:round; stroke-linejoin:round; stroke-width:.5px;"/><path d="M113.882,91.347l-23.233,4.169c-1.883.338-2.054.634-1.408,2.434l1.366,3.805" style="fill:none; stroke:#687581; stroke-linecap:round; stroke-linejoin:round; stroke-width:.5px;"/><line x1="103.391" y1="103.211" x2="117.015" y2="100.771" style="fill:none; stroke:#687581; stroke-linecap:round; stroke-linejoin:round; stroke-width:.5px;"/><line x1="110.341" y1="104.003" x2="117.654" y2="102.691" style="fill:none; stroke:#687581; stroke-linecap:round; stroke-linejoin:round; stroke-width:.5px;"/><path d="M217.402,41.098s7.423.212,14.747.438c7.323.226,13.971-.128,23.178-1.585,3.888-.615,13.121-1.983,24.956-3.713" style="fill:none; stroke:#687581; stroke-linecap:round; stroke-linejoin:round; stroke-width:.5px;"/><path d="M299.509,33.44c29.59-4.513,50.578-7.589,76.12-10.973" style="fill:none; stroke:#687581; stroke-linecap:round; stroke-linejoin:round; stroke-width:.5px;"/><path d="M214.166,16.442c-52.431,5.697-117.512,13.725-166.19,21.684" style="fill:none; stroke:#687581; stroke-linecap:round; stroke-linejoin:round; stroke-width:.5px;"/><path d="M272.198,10.603c41.395-3.467,73.763-5.705,109.254-7.397" style="fill:none; stroke:#687581; stroke-linecap:round; stroke-linejoin:round; stroke-width:.5px;"/><path d="M356.516,4.513c6.674-4.717,21.568-15.209,27.042-18.92l4.265-2.892" style="fill:none; stroke:#687581; stroke-linecap:round; stroke-linejoin:round; stroke-width:.5px;"/><path d="M216.375,45.326l2.75.06s10.305.226,17.1.34c6.795.113,12.344-.566,18.799-1.699,1.839-.323,28.051-4.267,28.051-4.267" style="fill:none; stroke:#687581; stroke-linecap:round; stroke-linejoin:round; stroke-width:.5px;"/><path d="M302.328,36.885c28.196-4.503,49.048-7.597,72.201-10.721" style="fill:none; stroke:#687581; stroke-linecap:round; stroke-linejoin:round; stroke-width:.5px;"/><line x1="354.822" y1="51.605" x2="367.797" y2="49.249" style="fill:none; stroke:#687581; stroke-linecap:round; stroke-linejoin:round; stroke-width:.5px;"/><line x1="354.044" y1="49.448" x2="368.492" y2="46.825" style="fill:none; stroke:#687581; stroke-linecap:round; stroke-linejoin:round; stroke-width:.5px;"/><line x1="358.615" y1="62.116" x2="364.448" y2="61.057" style="fill:none; stroke:#687581; stroke-linecap:round; stroke-linejoin:round; stroke-width:.5px;"/><line x1="357.837" y1="59.96" x2="365.129" y2="58.636" style="fill:none; stroke:#687581; stroke-linecap:round; stroke-linejoin:round; stroke-width:.5px;"/><path d="M118.395,104.92l-15.783-47.459c-.953-2.871-.484-5.082,1.497-6.162l2.621-1.429c.558-.304,1.237-.519,2.037-.633,4.623-.659,92.789-12.463,92.789-12.463" style="fill:none; stroke:#687581; stroke-linejoin:round;"/><path d="M121.891,105.423c-5.465-16.417-11.469-33.888-16.655-50.422-.22-1.173-.167-2.48.462-3.506-.426,1.116-.32,2.308-.054,3.42,1.94,6.061,5.787,17.311,7.816,23.478,3.001,8.947,5.98,17.901,8.905,26.872.043.131-.029.272-.16.315-.13.042-.27-.028-.314-.157h0Z" style="fill:#687581;"/><path d="M57.358,97.97c-1.13-2.862-3.368-8.482-6.553-16.27-3.252-7.949-6.115-11.663-10.376-14.231" style="fill:none; stroke:#687581; stroke-linejoin:round;"/><path d="M26.635,62.01c-2.054-.662-3.989-1.253-5.655-1.748-2.523-.749-2.059-.734-4.632-.185" style="fill:none; stroke:#687581; stroke-linejoin:round; stroke-width:.5px;"/><path d="M51.019,97.249c-1.254-3.155-3.185-7.97-5.713-14.15-2.041-4.99-3.929-8.311-6.106-10.727" style="fill:none; stroke:#687581; stroke-linejoin:round; stroke-width:.5px;"/><path d="M25.797,65.232c-3.548-1.03-7.044-2.318-10.569-3.392-.581-.144-1.177-.249-1.658.101-.477.338-.87.839-1.269,1.308.32-.529.62-1.081,1.12-1.509.52-.467,1.304-.43,1.894-.295,1.238.253,2.401.639,3.586,1.01,2.367.727,4.721,1.498,7.061,2.305l-.166.472h0Z" style="fill:#687581;"/><path d="M.976,77.699l9.248-13.286c2.675-3.843,2.144-3.49,6.724-4.466l10.797-2.299" style="fill:none; stroke:#687581; stroke-linejoin:round; stroke-width:.5px;"/><path d="M44.556,69.443c13.883-2.7,27.903-4.629,41.792-7.276,3.335-.732,7.093-1.122,9.718-3.488,1.249-1.184,1.68-2.938,2.146-4.631.558-1.719.778-3.442,1.451-5.133,1.566-3.483,5.894-4.119,9.22-4.852,24.447-3.909,48.996-7.118,73.562-10.17,7.028-.809,14.04-1.7,21.128-2.101l.015.5c-7.035.398-14.065,1.289-21.084,2.098-24.55,3.05-49.101,6.26-73.529,10.165-10.078,1.934-8.316,3.754-11.075,12.185-1.761,4.51-7.346,4.995-11.454,5.931-13.916,2.561-27.852,4.996-41.89,6.772h0Z" style="fill:#687581;"/><path d="M220.366,33.649c17.985,3.205,21.101,4.513,33.374,2.602,8.977-1.398,13.093-2.068,23.304-3.565" style="fill:none; stroke:#687581; stroke-linejoin:round; stroke-width:.5px;"/><path d="M296.384,29.904c21.558-3.416,65.495-9.149,80.267-10.854" style="fill:none; stroke:#687581; stroke-linejoin:round; stroke-width:.5px;"/><path d="M72.441,76.342c.154,4.357,2.213,8.269,3.794,12.246,1.651,3.985,3.334,7.956,4.919,11.969l-.461.193c-1.702-3.965-3.306-7.971-4.943-11.964-1.575-3.958-3.591-8.068-3.308-12.444h0Z" style="fill:#687581;"/><path d="M103.493,59.566l-1.474,4.017c-.619.936-1.492,1.782-2.528,2.29-3.031,1.38-6.413,1.514-9.626,2.166-2.152.365-4.301.742-6.444,1.152-2.152.398-4.245.82-6.265,1.693,1.714-1.461,4.067-1.691,6.179-2.141,4.274-.851,8.614-1.518,12.888-2.318,2.059-.334,4.356-1.386,5.362-2.999,0,0,1.494-4.017,1.494-4.017l.414.156h0Z" style="fill:#687581;"/><path d="M102.301,53.564s-2.122,4.732-3.405,7.375-2.265,3.775-8.38,4.832c-6.115,1.057-9.753,1.634-15.435,2.775-9.215,1.85-11.393,7.065-6.987,17.911,2.421,5.96,4.365,10.655,5.493,13.361" style="fill:none; stroke:#687581; stroke-linejoin:round;"/><path d="M65.044,73.276c-1.976,2.944-1.639,7.346.921,13.649,2.211,5.445,4.025,9.834,5.183,12.615" style="fill:none; stroke:#687581; stroke-linejoin:round; stroke-width:.5px;"/><line x1="48.166" y1="76.028" x2="67.083" y2="72.943" style="fill:none; stroke:#687581; stroke-linejoin:round;"/><path d="M44.405,51.865c3.008-.487,6.018-.927,9.024-1.381l4.505-.691c1.387-.244,3.028-.391,4.182-1.137.168-.158.283-.2.152-.377-2.033-1.451-4.927-1.317-7.367-1.5-3.033-.156-6.069-.218-9.116-.252,4.559-.441,9.175-.747,13.737-.109,1.278.168,5.052,1.105,3.086,2.897-1.439.897-2.99.958-4.563,1.22-4.526.633-9.078,1.066-13.641,1.331h0Z" style="fill:#687581;"/><path d="M68.014,18.991s54.711-3.001,127.165-2.844" style="fill:none; stroke:#687581; stroke-linecap:round; stroke-linejoin:round; stroke-width:.5px;"/><line x1="285.63" y1="239.957" x2="277.66" y2="238.617" style="fill:none; stroke:#687581; stroke-linejoin:round;"/><path d="M312.69,235.487v-.01c1.13-1.89,1.94-4.09,2.33-6.48,1.37-8.51-3.2-16.33-10.22-17.46-.02-.01-.05,0-.07-.01l-91.82-14.21c-6.71-1.03-13.21,4.7-14.52,12.84-1.31,8.15,3.05,15.62,9.75,16.75.02.01.04.01.07.02.04,0,.08.01.12.02l43.85,7.38" style="fill:none; stroke:#687581; stroke-linejoin:round;"/><path d="M302.02,242.467c-.12.01-.24.02-.36.02" style="fill:none; stroke:#687581; stroke-linejoin:round;"/><path d="M218.339,223.868c-1.953-.227-3.9-.49-5.842-.779-1.734-.372-4.256-.346-5.78-1.387-5.183-3.559-5.173-11.498-1.725-16.265,1.63-2.505,4.673-4.347,7.735-3.601,2.815.472,5.917.99,8.701,1.552-3.32-.322-6.872-.976-10.195-1.286-4.506.165-7.267,4.914-7.944,8.938-.602,3.878.586,8.687,4.315,10.567,1.216.548,3.636.792,4.959,1.083,1.93.363,3.856.752,5.775,1.177h0Z" style="fill:#687581;"/><path d="M196.527,88.193c-8.509,2.977-9.16,4.328-15.429,12.454-5.094,6.603-4.036,5.892-11.034,7.279l-9.172,1.833" style="fill:none; stroke:#687581; stroke-linecap:round; stroke-linejoin:round;"/><path d="M50.31,34.779c38.331-6.453,103.294-14.45,166.54-20.895" style="fill:none; stroke:#687581; stroke-linejoin:round; stroke-width:.5px;"/><path d="M268.87,8.91c25.019-2.222,48.365-4.026,67.991-5.187,12.169-.72,10.057-.08,20.681-6.056l31.072-17.476" style="fill:none; stroke:#687581; stroke-linejoin:round; stroke-width:.5px;"/><path d="M479.523,149.827s19.577-114.82,33.021-184.855" style="fill:none; stroke:#687581; stroke-linejoin:round;"/><path d="M297.122,50.167c3.746,2.306,8.497,3.2,11.23,6.951,3.029,4.093,1.572,8.898-2.092,11.96.76-.8,1.451-1.666,2.008-2.605,1.867-2.762,1.687-6.431-.323-9.064-2.59-3.641-7.359-4.644-10.823-7.242h0Z" style="fill:#687581;"/><path d="M318.385,102.075c-.915.307-2.74.956-3.643,1.295-1.211.432-2.427.86-3.689,1.13-.272.056-.537-.119-.593-.391-.049-.24.082-.475.3-.565,2.425-.899,5.021-1.559,7.625-1.469h0Z" style="fill:#687581;"/><path d="M261.03,266.827l-1.62-2.3c0-.01-.01-.02-.01-.02l-1.68-2.39" style="fill:none; stroke:#aebbc7; stroke-linecap:round; stroke-linejoin:round;"/><path d="M251.91,271.647l2.41,4.82c-3.91,16.91-4.47,24.82-2.08,34.29,2.69,10.64,3.12,10.78-1.38,20.6l-47.29,95.51,70.37,14.31,29.7-112.97c2.36-10.51,3.48-17.12,4.02-22.62v-.02" style="fill:none; stroke:#aebbc7; stroke-linecap:round; stroke-linejoin:round;"/><path d="M266.12,230.787c.03.01.05.01.08.02l2.48.52c1.86.55,3.52,1.58,4.89,2.96l4.09,4.33,8.23,8.72" style="fill:none; stroke:#aebbc7; stroke-linecap:round; stroke-linejoin:round;"/><path d="M261.71,267.787l-.68-.96c-.84-1.27-1.9-2.99-3.01-4.86" style="fill:none; stroke:#aebbc7; stroke-linecap:round; stroke-linejoin:round;"/><path d="M263.36,243.637l2.57,1.63,6.26,11.11s-5.75-6.62-9.47-10.98" style="fill:none; stroke:#aebbc7; stroke-linecap:round; stroke-linejoin:round;"/><path d="M250.46,256.317c-.53.12-1.08.36-1.66.76-.97.68-5.76,3.15,1.43,12.77.57.76,1.13,1.35,1.68,1.8,2.34,1.89,4.48,1.19,6.29-.17,1.81-1.34,2.84-3.77,1.21-6.95,0-.01-.01-.02-.01-.02-.21-.42-.47-.86-.79-1.31-.24-.35-.5-.73-.77-1.14" style="fill:none; stroke:#aebbc7; stroke-linecap:round; stroke-linejoin:round;"/><path d="M256.132,264.261c-.371-.225-.834-.287-1.253-.151-.764.229-2.026.794-2.913,2.073-.283.416-.355.949-.158,1.43.427,1.107,1.275,3.092,1.576,2.8,1.516-1.544,2.963-2.958,5.434-3.692.002-.017-1.107-1.496-2.686-2.46Z" style="fill:none; stroke:#aebbc7; stroke-linecap:round; stroke-linejoin:round; stroke-width:.5px;"/><path d="M259.98,247.137l-4.63-5.76-.23-.28c-.04.02-.09.03-.14.05-.71.24-1.84.65-2.91,1.64v.01c-.06.05-.12.1-.18.16-.27.28-.55.6-.8.97l-1.17,1.7c-1.17,1.71-1.49,3.85-.91,5.84.46,1.48.98,3.26,1.45,4.85.09.29.17.58.25.85.93,3.24,2.96,6.81,7.01,4.95.04-.01.08-.03.12-.06.06-.02.12-.05.18-.09.41-.2.84-.46,1.29-.79,4.25-3.07,1.94-10.01,1.08-12.71l-.09-.3" style="fill:none;"/><path d="M260.3,248.167l.09.3c.86,2.7,3.17,9.64-1.08,12.71-.45.33-.88.59-1.29.79-.06.04-.12.07-.18.09-.04.03-.08.05-.12.06-4.05,1.86-6.08-1.71-7.01-4.95-.08-.27-.16-.56-.25-.85-.47-1.59-.99-3.37-1.45-4.85-.58-1.99-.26-4.13.91-5.84l1.17-1.7c.25-.37.53-.69.8-.97" style="fill:none; stroke:#aebbc7; stroke-linecap:round; stroke-linejoin:round;"/><path d="M252.019,260.104c-.098-1.605,1.478-3.98,4.688-5.017.183-.063.341-.199.403-.4.06-.184.036-.397-.082-.553-.277-.404-.677-.931-1.212-1.492-.488-.52-1.228-.725-1.918-.521-1.813.508-3.611,2.329-3.288,3.946.244,1.169.562,1.912,1.41,4.037Z" style="fill:none; stroke:#aebbc7; stroke-miterlimit:10; stroke-width:.5px;"/><path d="M259.98,247.137l-4.63-5.76c.35-.21.74-.42,1.17-.61.01,0,.01-.01.02,0,.4-.19.82-.36,1.29-.51.42-.14.66-.58.54-1.02-.2-.71-.62-1.76-1.5-2.58-.33-.3-.8-.44-1.25-.34-.86.2-2.33.77-3.22,2.33-.35.6-.49,1.28-.44,1.97.02.54.06,1.29.11,2.17v.01c-.06.05-.12.1-.18.16.08.78.13,1.3.13,1.3.45,5.21,5.02,6.13,8.28,3.91" style="fill:none;"/><path d="M263.22,235.627s.02.22.04.57c.08,1.08.24,3.4.32,4.79.05.96-.03,1.84-.22,2.65-.15.64-.37,1.22-.64,1.76-.59,1.18-1.45,2.12-2.42,2.77-3.26,2.22-7.83,1.3-8.28-3.91,0,0-.05-.52-.13-1.3-.09-1.03-.21-2.53-.28-3.93-.07-1.52-.03-3.28.57-4.7.22-.55.54-1.05.96-1.46l2.26-2.17c1.31-1.17,3.76-1.61,5.45-1.19l.79.19c.91.22,2.86.69,4.48,1.09.03.01.05.01.08.02,1.4.34,2.54.61,2.54.61" style="fill:none; stroke:#aebbc7; stroke-linecap:round; stroke-linejoin:round;"/><path d="M252.07,242.797c-.094,1.008,1.212-.038,2.57-.96.22-.15.45-.31.71-.46.35-.21.74-.42,1.17-.61.01,0,.01-.01.02,0,.4-.19.82-.36,1.29-.51.42-.14.66-.58.54-1.02-.2-.71-.62-1.76-1.5-2.58-.33-.3-.8-.44-1.25-.34-.86.2-2.33.77-3.22,2.33-.35.6-.49,1.28-.44,1.97.02.54.06,1.29.11,2.17v.01" style="fill:none; stroke:#aebbc7; stroke-linecap:round; stroke-linejoin:round; stroke-width:.5px;"/><path d="M301.93,241.217l-.7-9.6c-.59-4.46-2.53-6.25-7.09-9.38-3.2-2.18-5.54-3.7-10.84-6.29-2.59-1.26-5.18-1.96-7.39-2.11-3.64-.25-10.43-.67-10.43-.67-4.69-.29-7.09,1.05-7.52,4.28-1.16,8.61,14.83,8.14,16.23,8.2l.02.02c3.47,3.05,7.09,5.02,11.68,7.42v.02c-.04.46-.57,7.49,0,14.23.04.54.09,1.08.15,1.61-2.1,2.38-5.71,1.56-8.39,6.85l24.5-5.6.43-.1" style="fill:none;"/><path d="M277.204,255.571c.871-1.712,2.135-3.303,3.819-4.284,1.657-1.019,3.548-1.417,4.642-2.671l-.122.387c-.545-5.239-.513-10.811-.153-15.896-.021-.083.269.437.268.423-4.144-2.166-8.297-4.382-11.822-7.529,0,0,.332.146.332.146-5.072-.165-11.012-.185-15.086-3.796-2.062-1.979-2.246-5.547-.454-7.774,1.909-2.164,5.164-2.027,7.706-1.856,3.454.232,6.867.419,10.356.688,3.529.383,6.758,1.978,9.829,3.605,3.088,1.59,6.025,3.482,8.854,5.473,2.905,1.917,5.796,4.666,6.236,8.327.487,3.49.579,6.91.321,10.404-.58-2.548-.935-5.099-1.1-7.692-.032-2.5-.512-5.061-2.198-6.959-4.798-4.709-11.114-8.099-17.19-10.891-4.807-1.946-10.08-1.426-15.169-1.956-1.709-.12-3.408-.185-4.952.296-2.436.621-3.36,3.42-2.725,5.652.732,2.408,3.193,3.578,5.495,4.289,3.321,1.09,6.935.982,10.415,1.304.823.729,1.761,1.478,2.694,2.149,2.804,2.022,5.855,3.628,8.923,5.236.17.089.268.263.268.443-.186,2.628-.272,5.293-.261,7.941.012,2.629.136,5.265.408,7.868.015.144-.034.281-.123.381-1.32,1.488-3.296,1.887-4.874,2.865-1.537.899-2.638,2.309-3.445,3.88-.289.585-1.209.157-.892-.452h0Z" style="fill:#aebbc7;"/><path d="M271.849,313.992c-3.984-7.614-1.536-16.589,2.522-23.626,3.086-5.321,6.377-10.659,10.889-14.906,1.522-1.388,3.203-2.645,5.101-3.458-7.007,4.424-11.454,11.608-15.487,18.641-4.197,7.144-6.13,15.406-3.024,23.349h0Z" style="fill:#aebbc7;"/><path d="M288.077,259.211c-5.293,4.49-9.371,10.175-14.641,14.722-5.327,4.419-10.699,8.79-14.557,14.614,2.999-6.367,9.031-10.558,14.223-15.003,5.303-4.419,9.098-10.572,14.975-14.333h0Z" style="fill:#aebbc7;"/><path d="M262.171,267.553c2.348,2.66-1.046,4.776-3.349,5.582.791-.906,1.772-1.622,2.435-2.467.731-.863.69-1.578.114-2.514-.334-.503.416-1.059.8-.601h0Z" style="fill:#aebbc7;"/><path d="M286.121,232.714c2.086,1.151,4.609.662,6.655-.382.723-.357,1.412-.791,1.986-1.407-.312.801-.96,1.438-1.634,1.969-1.408,1.044-3.179,1.669-4.963,1.52-.649-.038-3.18-.635-2.65-1.57.141-.194.405-.245.607-.128h0Z" style="fill:#aebbc7;"/><path d="M274.186,225.205c1.822-.168,3.696-.985,4.919-2.384.413-.478.724-1.055.897-1.72.229,1.431-.701,2.828-1.794,3.688-1.161.869-2.565,1.461-4.053,1.339-.254-.024-.441-.251-.416-.505.022-.236.218-.411.447-.419h0Z" style="fill:#aebbc7;"/><path d="M272.66,256.195l1.871,2.924c.127.188.104.435-.039.597-.849.727-1.814,1.089-2.753,1.42.782-.616,1.549-1.286,1.992-2.069l-.039.596-1.876-2.932c-.351-.553.491-1.09.844-.536h0Z" style="fill:#aebbc7;"/><path d="M302.923,315.221c1.062-2.511,4.114-8.314,7.825-15.814,6.742-13.593,7.74-18.734,7.487-25.287-.141-3.52-.538-15.799-.705-20.197-.218-5.708-.353-5.74-3.96-11.15l-1.244-10.234c-.102-.86-1.461-1.887-3.239-1.642-3.482.472-5.626,3.746-7.214,10.583-1.482,6.381.673,10.173,2.13,12.077l-.514,11.232-3.087,7.485-1.863-.02,4.384,42.967Z" style="fill:none;"/><path d="M304.464,311.945c.663-3.037,2.283-5.643,3.588-8.412,4.623-9.327,10.376-19.006,9.671-29.767-.101-2.872-.374-10.711-.478-13.688-.128-3.031-.162-6.109-.378-9.095-.104-1.499-.491-2.847-1.256-4.124-.742-1.366-1.793-2.633-2.536-4.023,0,0-1.224-10.073-1.224-10.073-.003-.581-.66-1.058-1.336-1.268-2.315-.597-4.536,1.096-5.658,3.117-1.57,2.838-2.495,6.224-2.899,9.432-.358,3.263.417,6.635,2.442,9.212.076.097.109.213.102.327l-.514,11.231c0,.06-.014.116-.037.168l-3.087,7.485c-.053.205-.249.379-.468.309,0,0-1.857-.52-1.857-.52l1.868-.48-.468.309,3.087-7.485c-.121.873.512-11.262.477-11.064,0,0,.102.326.102.326-2.181-2.772-3.024-6.449-2.643-9.917.728-4.561,2.124-11.625,7.055-13.315,1.689-.637,4.54-.147,4.826,2.012,0,0,1.224,10.072,1.224,10.072l-.08-.217c1.233,1.939,2.748,3.802,3.462,6.051.868,3.777.529,7.681.796,11.491.082,5.131.702,13.335.424,18.309-.494,6.185-3.074,11.907-5.626,17.456-1.298,2.766-2.635,5.501-3.983,8.228-1.441,2.706-2.555,5.558-4.595,7.914h0Z" style="fill:#aebbc7;"/><path d="M313.591,243.063c-.5-.597-1.329-.469-1.863-.308-.363.111-.755-.033-.962-.366-.677-1.136-1.868-3.956-.946-8.688.109-.544.479-.992.987-1.194.408-.154.94-.226,1.519.032" style="fill:none; stroke:#aebbc7; stroke-linecap:round; stroke-linejoin:round; stroke-width:.5px;"/><path d="M302.075,247.277l-2.437,12.624c-1.929,9.978-10.651,17.989-20.51,17.213,9.697-.061,16.56-7.658,18.413-17.281l2.611-13.516c1.141.321,1.979.679,1.924.961Z" style="fill:#404d59;"/><path d="M300.152,246.316l-2.611,13.516c-1.853,9.624-8.716,17.22-18.413,17.281-.631-.046-1.275-.132-1.911-.257-4.923-.947-9.141-3.979-11.881-8.527-2.74-4.562-3.668-10.084-2.61-15.559l2.437-12.624c.063-.341,1.083-.363,2.351-.212.473,3.182,1.737,6.103,3.613,8.452l-.954,4.93c-.682,3.538-.102,7.07,1.63,9.95,1.609,2.675,4.038,4.444,6.841,4.987.558.111,1.136.17,1.702.176,5.472.058,10.509-4.624,11.72-10.88l.731-3.794.835-4.313c1.13-1.106,2.144-2.391,2.981-3.816,1.123.13,2.469.395,3.538.689Z" style="fill:#404d59;"/><path d="M293.067,197.029c12.037,2.549,16.068,13.723,14.077,24.003l-5.069,26.245c.056-.282-.783-.64-1.924-.961l4.902-25.352c1.045-5.422.394-20.868-12.028-23.744l.042-.19Z" style="fill:#f4ae3d;"/><path d="M302.502,220.971l-3.579,18.505c-.432,2.245-1.23,4.315-2.309,6.152-.837,1.425-1.851,2.71-2.981,3.816l-.835,4.313c-.251.103-.502.205-.766.294-2.43.869-5.071,1.123-7.716.608l-4.365-.843c-3.578-.689-6.622-2.669-8.822-5.429-1.876-2.349-3.141-5.27-3.613-8.452-.3-2.082-.27-4.279.161-6.497l3.579-18.506c1.852-9.591,10.348-16.012,18.973-14.342,8.632,1.664,14.126,10.788,12.274,20.379Z" style="fill:#404d59;"/><path d="M293.026,197.219c12.422,2.876,13.072,18.322,12.028,23.744l-4.902,25.352c-1.069-.294-2.415-.559-3.538-.689,1.079-1.837,1.877-3.907,2.309-6.152l3.579-18.505c1.852-9.591-3.642-18.714-12.274-20.379-8.626-1.671-17.121,4.751-18.973,14.342l-3.579,18.505c-.432,2.219-.462,4.416-.161,6.497-1.268-.152-2.288-.13-2.351.212l1.316-6.814,3.753-19.438c1.922-9.939,10.25-17.362,19.379-17.264,1.019.011,2.045.114,3.042.309.138.028.276.056.413.09l-.042.19Z" style="fill:#f4ae3d;"/><path d="M277.214,276.855c-4.92-.95-9.137-3.981-11.877-8.531-2.743-4.558-3.672-10.084-2.613-15.56l3.755-19.435,3.755-19.435c1.921-9.941,10.25-17.365,19.375-17.268,1.019.011,2.044.115,3.047.308,12.362,2.388,16.5,13.694,14.49,24.091,0,0-7.51,38.869-7.51,38.869-2.052,10.623-11.798,19.012-22.422,16.96Z" style="fill:none; stroke:#aebbc7; stroke-miterlimit:10; stroke-width:1.5px;"/><path d="M267.519,239.933c-1.264-.152-2.292-.13-2.356.208" style="fill:none; stroke:#aebbc7; stroke-miterlimit:10; stroke-width:.924px;"/><path d="M302.075,247.273c.106-.548-3.141-1.373-5.461-1.649" style="fill:none; stroke:#aebbc7; stroke-miterlimit:10; stroke-width:.924px;"/><path d="M293.32,216.264c-.05-.04-.123-.116-.263-.143l-1.735-.115-.293.343-3.574-.684-.093.501,3.546.683c.039.253.074.844-.025,1.379-.088.475-.187.702-.231.786l-.707.107c-.089-.448-.431-.761-.844-.842-.44-.086-.878.134-1.119.515l-1.039-.205-.093.501.956.19c-.082.597.297,1.163.874,1.279s1.168-.289,1.288-.942l.885-.133.066-.048c.1-.073.315-.308.469-1.14.126-.684.052-1.375.013-1.629l.138-.127,1.452.093.402.015.011-.06c.011-.06.01-.214-.085-.325ZM288.774,220.056c-.33-.066-.55-.417-.484-.772s.395-.597.724-.532.551.416.486.772-.396.597-.726.531Z" style="fill:#404d59;"/><path d="M277.262,215.532l2.11.237.016.003,1.652-.814c.018-.009.038-.011.059-.007l1.14.22.096-.499-1.14-.22c-.111-.021-.224-.007-.33.046l-1.422.7-.853-1.417c-.07-.12-.161-.159-.225-.171-.1-.019-.203.013-.303.091l-.055.044.881,1.459-1.573-.179c-.282-.018-.551.211-.612.525l-.246,1.272.593.322c-.121.629.238,1.225.801,1.334.542.105,1.077-.28,1.227-.869l2.591.501.096-.499-2.665-.515c-.076-.457-.395-.808-.81-.888-.397-.077-.799.105-1.045.469l-.266-.143.173-.896c.012-.065.067-.106.108-.104ZM278.196,216.705c.317.061.519.396.451.745-.068.353-.38.588-.697.527-.315-.061-.516-.395-.448-.748.068-.35.379-.585.694-.524Z" style="fill:#aebbc7;"/><path d="M279.143,220.003c-.037.191-.145.307-.262.41l-.299.261.325.063c.044.009.072.055.063.104l-.034.176c-.009.049-.053.082-.097.073l-.72-.139c-.044-.009-.072-.055-.063-.104l.029-.152c.004-.022.015-.041.031-.055l.482-.414c.105-.089.173-.153.196-.27.014-.075-.007-.134-.07-.146-.057-.011-.1.01-.125.07-.016.039-.054.061-.091.054l-.185-.036c-.023-.004-.043-.02-.055-.042s-.013-.049-.005-.074c.081-.248.29-.372.534-.325.288.056.398.273.346.545Z" style="fill:#aebbc7;"/><path d="M280.151,221.205c.009.03.003.064-.017.089s-.049.037-.078.031l-.187-.036c-.029-.006-.053-.029-.061-.06l-.075-.274-.172.227c-.02.026-.05.038-.079.033l-.187-.036c-.029-.006-.052-.028-.061-.058s-.002-.064.017-.089l.308-.388-.138-.465c-.009-.03-.002-.064.017-.089s.049-.037.078-.031l.186.036c.029.006.052.028.061.059l.074.259.165-.213c.02-.025.05-.037.079-.032l.186.036c.029.006.052.028.061.058s.002.064-.017.089l-.301.38.141.474Z" style="fill:#aebbc7;"/><path d="M291.186,219.063c.087-.212.156-.454.211-.736.064-.329-.028-.581-.062-.67-.051-.107-.133-.175-.234-.195l-2.67-.516.065-.746c.022-.185-.098-.357-.267-.39l-.859-.166-.096.499.769.149-.099,1.078,2.993.578c.028.094.032.189.012.292-.087.449-.183.675-.244.779l-.776.112c-.088-.425-.403-.754-.799-.831-.41-.079-.837.131-1.08.523l-1.248-.241-.096.499,1.166.225c-.079.594.272,1.15.811,1.254.561.108,1.113-.309,1.235-.928l.867-.128,1.576.304c.119.023.203-.013.28-.056.125-.095.155-.25.165-.3l.014-.073-1.631-.315ZM288.786,220.074c-.312-.06-.513-.395-.446-.741.068-.35.378-.582.69-.522.315.061.514.392.446.741-.067.347-.376.583-.69.522Z" style="fill:#aebbc7;"/><path d="M288.269,221.766c-.037.191-.145.307-.262.41l-.299.261.325.063c.044.009.072.055.063.104l-.034.176c-.009.049-.053.082-.097.073l-.72-.139c-.044-.009-.072-.055-.063-.104l.029-.152c.004-.022.015-.041.031-.055l.482-.414c.105-.089.173-.153.196-.27.014-.075-.007-.134-.07-.146-.057-.011-.1.01-.125.07-.016.039-.054.061-.091.054l-.185-.036c-.023-.004-.043-.02-.055-.042s-.013-.049-.005-.074c.081-.248.29-.372.534-.325.288.056.398.273.346.545Z" style="fill:#aebbc7;"/><path d="M289.277,222.968c.009.03.003.064-.017.089s-.049.037-.078.031l-.187-.036c-.029-.006-.053-.029-.061-.06l-.075-.274-.172.227c-.02.026-.05.038-.079.033l-.187-.036c-.029-.006-.052-.028-.061-.058s-.002-.064.017-.089l.308-.388-.138-.465c-.009-.03-.002-.064.017-.089s.049-.037.078-.031l.186.036c.029.006.052.028.061.059l.074.259.165-.213c.02-.025.05-.037.079-.032l.186.036c.029.006.052.028.061.058s.002.064-.017.089l-.301.38.141.474Z" style="fill:#aebbc7;"/><path d="M276.522,230.508c-1.092-.211-2.187.6-2.418,1.795l-.007.038-.128.664-.531,2.75c-.132.683.253,1.347.885,1.469l1.741.336c.614.119,1.233-.332,1.368-1.034l.531-2.75.128-.664.007-.038c.234-1.214-.466-2.352-1.575-2.567ZM275.901,235.738c-.044.228-.251.384-.456.345s-.339-.262-.295-.49l.231-1.195c.044-.228.251-.384.456-.345s.339.262.295.49l-.231,1.195ZM277.492,232.997l-2.799-.541.007-.038c.158-.815.925-1.395,1.693-1.247.751.145,1.264.972,1.106,1.787l-.007.038Z" style="fill:#aebbc7;"/><path d="M289.046,233.668l-.095-.018c-.601-.116-1.198.353-1.332,1.046l-.118.613-3.1-.599-.669,3.465c-.076.391.159.779.512.848l2.25.435c.352.068.714-.206.789-.596l.788-4.079c.08-.416.431-.699.783-.631l.095.018c.352.068.574.461.493.878l-.119.616.452.087.119-.616c.134-.691-.248-1.349-.848-1.465ZM286.004,237.768c-.041.212-.239.361-.428.325-.19-.037-.318-.249-.277-.461l.209-1.084c.041-.212.239-.361.429-.324.189.037.317.249.276.46l-.209,1.084Z" style="fill:#aebbc7;"/><path d="M287.014,208.883c-.047.243-.262.405-.48.363l-.825-.159c-.218-.042-.358-.273-.311-.516s.262-.405.48-.363l.825.159c.218.042.358.273.311.516Z" style="fill:#aebbc7;"/><path d="M280.297,250.389c-.756,0-1.517-.073-2.262-.217-7.088-1.369-11.624-8.857-10.11-16.691l3.576-18.504c1.336-6.919,6.945-11.942,13.338-11.942.756,0,1.516.073,2.262.217,3.442.665,6.39,2.778,8.3,5.951,1.897,3.15,2.539,6.964,1.809,10.74l-3.575,18.504c-1.337,6.92-6.946,11.942-13.338,11.942Z" style="fill:none; stroke:#aebbc7; stroke-miterlimit:10;"/><path d="M292.189,228.395c-.022.126-.133.215-.259.215-.015,0-.033-.004-.048-.007l-9.154-1.766-2.689,13.917c-.022.13-.133.215-.259.215-.015,0-.033,0-.048-.004-.144-.03-.237-.167-.211-.311l2.689-13.917-8.988-1.737c-.141-.03-.237-.167-.207-.311.026-.141.167-.233.307-.207l8.988,1.737,2.655-13.735c.03-.144.17-.237.311-.211.141.03.237.167.207.311l-2.655,13.735,9.154,1.77c.141.026.237.163.207.307Z" style="fill:#aebbc7;"/><path d="M292.798,253.751c-.251.105-.506.204-.765.296-2.435.869-5.07,1.119-7.718.608l-4.368-.844c-8.629-1.667-14.123-10.791-12.27-20.379l3.575-18.504c1.852-9.588,10.349-16.009,18.979-14.342,8.629,1.667,14.123,10.791,12.27,20.379l-3.575,18.504c-.771,3.989-2.692,7.43-5.294,9.968l-1.566,8.106c-1.21,6.261-6.247,10.939-11.717,10.881-.571-.006-1.145-.064-1.707-.173-2.798-.541-5.226-2.312-6.837-4.988-1.735-2.882-2.315-6.416-1.632-9.949l.953-4.931" style="fill:none; stroke:#aebbc7; stroke-miterlimit:10;"/><path d="M280.351,268.353c-.565-.006-1.135-.063-1.694-.171-2.777-.537-5.187-2.296-6.787-4.953-1.725-2.866-2.302-6.381-1.623-9.896l.923-4.774c2.294,2.822,5.322,4.663,8.765,5.329l4.368.844c.909.176,1.838.265,2.759.265,1.69,0,3.372-.295,4.998-.876.217-.077.43-.159.642-.245l-.707,3.657c-1.192,6.169-6.154,10.821-11.542,10.821,0,0-.102,0-.102,0Z" style="fill:none; stroke:#aebbc7; stroke-miterlimit:10;"/><path d="M292.898,197.901c8.611,1.084,13.082,10.295,12.86,18.234.095,3.519-1.19,8.46-1.791,11.944-1.659,8.529-4.091,21.069-5.745,29.566-1.292,10.412-8.619,19.804-19.928,18.77,8.341.079,15.363-5.258,18.023-13.056,1.13-3.223,1.818-8.325,2.545-11.726,1.131-5.9,3.413-17.765,4.546-23.662.597-3.439,1.891-8.365,1.807-11.836.026-8.622-3.803-15.598-12.318-18.234h0Z" style="fill:#aebbc7;"/><path d="M293.516,249.321c-3.104,3.028-6.991,4.633-10.957,4.591-.859-.009-2.484-.203-3.343-.369" style="fill:none; stroke:#aebbc7; stroke-miterlimit:10; stroke-width:.924px;"/><g style="clip-path:url(#uuid-295cded1-11bc-4b99-bd4d-4c6ad178f695);"><path d="M-104.305,597.412s-2.166,3.599-5.885,2.802-24.702-3.984-28.686-5.578c-3.984-1.594-48.872-22.311-70.121-39.576,0,0-6.584-4.944-7.351-14.532-.767-9.588-3.835-33.942-2.109-41.995,1.726-8.054,13.231-58.87,22.819-84.183,4.219-11.697,9.972-17.258,13.04-20.71,3.068-3.452,79.772-79.005,87.251-85.142,7.479-6.136,14.574-10.355,36.051-3.26,21.477,7.095,55.61,25.696,63.664,36.243" style="fill:none; stroke:#687581; stroke-miterlimit:10; stroke-width:1.5px;"/><path d="M-230.618,97.847s.872,3.597,6.54,6.431S.676,195.182.676,195.182" style="fill:none; stroke:#687581; stroke-miterlimit:10;"/></g></svg>