<?xml version="1.0" encoding="UTF-8"?><svg xmlns="http://www.w3.org/2000/svg" width="161.749" height="161.749" viewBox="0 0 161.749 161.749"><g id="uuid-4b40a15c-89a4-400e-b81c-2cf73d6400c8"><g id="uuid-7f59cc2a-00d1-45a0-b5b2-4e48640c64f9"><path d="M87.79,92.237l-2.705,28.764M25.866,70.843c.516-.753.921-1.244,1.219-1.552-.003.072-.008.151-.015.235-.158,1.897-1.286,5.171-2.882,7.144M84.637,69.712c-.904-1.319-1.707-2.225-2.436-2.607-.236-.124-.527-.227-.852-.226-.305.001-.599.095-.849.281-.345.257-.514.618-.601.905-.147.482-.156,1.063-.109,1.627.188,2.256,1.448,5.921,3.321,8.236M152.57,30.944c-2.155-2.213-4.907-4.2-8.402-5.675-3.862-1.63-8.608-2.624-14.423-2.624-12.64,0-24.022,5.436-32.077,13.081-7.179,6.814-11.797,15.465-12.226,23.701l-1.309,19.419M127.838,34.776c4.978,0,8.375,1.098,10.696,2.523,2.276,1.397,3.577,3.146,4.322,4.614M37.438,69.851l.541-2.851c.043-.226.15-.436.321-.631.262-.299.668-.549,1.143-.705,4.102-1.34,8.058-2.117,14.682-2.117,6.624,0,10.58.777,14.682,2.117.475.155.881.406,1.143.705.171.195.278.405.321.631l.448,2.358M69.411,65.655c-3.811,2.943-9.283,4.819-15.404,4.819-6.048,0-11.462-1.833-15.269-4.719M41.021,75.708h-12.608M80.561,75.708h-13.606M50.406,75.708h-4.327M61.898,75.708h-4.408M21.731,83.184h65.311M34.419,136.6c5.547,2.79,12.515,4.439,20.059,4.439s14.5-1.648,20.045-4.437c3.882-1.952,7.095-4.478,9.31-7.417,2.658-2.108,4.8-4.526,6.268-7.178,1.141-2.062,1.873-4.263,2.118-6.561.007-.068.014-.136.025-.297,0,0,0,0-.004.073l2.932-34.441h0s1.975-23.111,1.976-23.126c.496-4.946,3.278-9.51,7.362-13.268,6.283-5.782,15.463-9.48,23.337-9.613,5-.043,8.928,1.099,11.353,3.095,1.159.954,1.98,2.106,2.432,3.439.486,1.433.565,3.134.104,5.117,0,0-4.677,20.879-4.677,21.036,0-.068.007-.135.021-.202-.201.975.075,1.923.596,2.728,1.012,1.567,3.062,2.811,5.443,3.345,1.82.411,3.612.36,5.054-.105.858-.276,1.637-.714,2.204-1.337.39-.428.678-.941.806-1.513l4.967-20.728c.658-2.735.882-5.627.627-8.506-.257-2.897-1.224-5.699-2.793-8.143-3.793-5.907-7.876-9.485-11.817-11.638-5.802-3.17-11.187-3.186-14.574-3.186-13.366,0-25.355,5.961-33.611,14.217-7.16,7.16-11.6,16.139-11.598,24.511l-.629,8.827c-2.073-2.394-4.717-4.526-7.968-6.229-4.997-2.618-11.407-4.209-19.361-4.209-7.44,0-14.778,1.755-20.666,5.179-3.64,2.117-6.741,4.88-8.954,8.272l-.243-.246c-.02-.021-.042-.04-.064-.059-.348-.33-.781-.571-1.238-.736-.724-.261-1.582-.358-2.465-.271-.822.081-1.589.315-2.223.666-.444.246-.847.563-1.148.953-.002.002-.004.005-.006.007-.014.018-.027.036-.029.039-.017.022-.731.947-.735.951-.404.529-.652,1.176-.588,1.796v.02c0,.035.002.07.005.104l.101.96c-.1.053-.198.108-.295.164-.219.127-.382.332-.456.574l-1.878,6.144c-.038.124-.051.254-.04.383,0,0,3.194,35.079,3.194,35.085.225,2.323.948,4.55,2.088,6.635,1.468,2.685,3.627,5.132,6.313,7.263,2.216,2.94,5.432,5.468,9.317,7.421Z" style="fill:none; stroke:#aebbc7; stroke-linecap:round; stroke-linejoin:round; stroke-width:.5px;"/><path d="M88.039,92.261l-2.705,28.764M25.66,70.702c.777-1.134,1.324-1.71,1.657-1.953.025.183.032.447.003.798-.162,1.942-1.306,5.264-2.937,7.28M84.431,69.853c-.905-1.319-1.678-2.177-2.346-2.527-.213-.112-.463-.198-.735-.197-.253,0-.495.078-.701.232-.285.212-.432.517-.511.777-.133.437-.145.981-.099,1.534.184,2.211,1.428,5.827,3.266,8.099M152.391,31.118c-2.132-2.19-4.857-4.158-8.32-5.619-3.827-1.615-8.539-2.604-14.326-2.604-12.567,0-23.891,5.405-31.905,13.013-7.146,6.783-11.723,15.377-12.149,23.537l-1.309,19.419M127.838,34.526c5.015,0,8.459,1.106,10.827,2.56,2.321,1.425,3.652,3.212,4.414,4.714M37.192,69.804l.541-2.851c.052-.275.182-.525.379-.749.299-.339.746-.612,1.253-.777,4.128-1.349,8.111-2.129,14.76-2.129,6.649,0,10.632.78,14.76,2.129.507.166.955.438,1.253.777.197.224.327.474.379.749l.448,2.358M69.564,65.853c-3.859,2.98-9.387,4.872-15.556,4.872-6.096,0-11.564-1.847-15.42-4.77M41.021,75.958h-12.608M80.561,75.958h-13.606M50.406,75.958h-4.327M61.898,75.958h-4.408M21.731,82.934h65.311M34.531,136.377c5.509,2.77,12.438,4.413,19.947,4.413s14.426-1.641,19.932-4.41c3.867-1.945,7.054-4.457,9.242-7.37,2.648-2.096,4.776-4.496,6.229-7.123,1.126-2.035,1.846-4.204,2.088-6.466.007-.067.014-.134.023-.271,0,0,0,0-.003.052l2.932-34.441s1.976-23.129,1.976-23.129c.504-5.025,3.328-9.642,7.442-13.427,6.326-5.821,15.564-9.545,23.504-9.679,5.032-.043,9.027,1.104,11.514,3.152,1.192.981,2.042,2.171,2.51,3.552.503,1.484.58,3.233.111,5.251,0,0-4.671,20.861-4.671,20.982,0-.051.005-.102.015-.151-.184.895.066,1.777.561,2.542.966,1.495,2.949,2.712,5.288,3.236,1.784.403,3.53.35,4.922-.099.829-.267,1.566-.685,2.096-1.267.364-.399.629-.874.748-1.403l4.967-20.729c.652-2.708.874-5.573.621-8.426s-1.207-5.619-2.754-8.03c-3.773-5.876-7.826-9.423-11.726-11.554-5.743-3.137-11.072-3.156-14.454-3.156-13.292,0-25.219,5.928-33.435,14.144-7.128,7.128-11.527,16.046-11.525,24.352l-.673,9.44c-2.108-2.559-4.855-4.839-8.29-6.638-4.956-2.596-11.324-4.181-19.245-4.181-7.404,0-14.697,1.747-20.541,5.145-3.705,2.154-6.84,4.98-9.038,8.453l-.462-.468c-.017-.017-.035-.033-.053-.049-.318-.304-.721-.53-1.156-.687-.685-.247-1.505-.341-2.355-.257-.791.078-1.526.303-2.126.636-.421.233-.795.53-1.071.887-.002.002-.003.005-.005.007-.015.019-.029.039-.029.04,0,0-.731.947-.734.951-.374.49-.595,1.076-.537,1.645q0,.01.004.098l.118,1.128c-.149.077-.294.156-.436.238-.164.095-.287.249-.342.43l-1.878,6.144c-.028.093-.038.19-.03.287,0,0,3.194,35.079,3.194,35.083.222,2.287.933,4.481,2.059,6.539,1.454,2.659,3.598,5.088,6.274,7.207,2.189,2.914,5.379,5.428,9.249,7.374Z" style="fill:none; stroke:#aebbc7; stroke-linecap:round; stroke-linejoin:round; stroke-width:.5px;"/><path d="M88.288,92.284l-2.705,28.764M25.453,70.56c.907-1.322,1.529-1.935,1.896-2.127.058-.03.098-.044.122-.05.012.021.03.057.048.117.065.212.091.57.049,1.067-.165,1.987-1.327,5.358-2.992,7.417M84.224,69.995c-.905-1.32-1.648-2.128-2.256-2.447-.19-.1-.399-.169-.618-.168-.201,0-.391.062-.553.182-.226.168-.35.416-.421.649-.119.392-.134.899-.089,1.44.18,2.166,1.407,5.733,3.211,7.963M152.212,31.293c-2.11-2.166-4.806-4.115-8.238-5.563-3.793-1.601-8.471-2.585-14.229-2.585-12.495,0-23.759,5.375-31.733,12.944-7.113,6.751-11.65,15.289-12.072,23.372l-1.309,19.419M127.838,34.276c5.053,0,8.544,1.115,10.958,2.597,2.367,1.453,3.726,3.277,4.506,4.814M36.947,69.758l.541-2.851c.062-.325.214-.614.437-.867.335-.38.824-.674,1.363-.85,4.155-1.358,8.163-2.142,14.838-2.142,6.674,0,10.683.784,14.838,2.142.539.176,1.029.469,1.363.85.223.253.375.543.437.867l.448,2.358M69.717,66.051c-3.908,3.018-9.491,4.924-15.709,4.924-6.144,0-11.667-1.861-15.571-4.821M41.021,76.208h-12.608M80.561,76.208h-13.606M50.406,76.208h-4.327M61.898,76.208h-4.408M21.731,82.684h65.311M34.644,136.153c5.471,2.751,12.361,4.386,19.835,4.386s14.352-1.633,19.82-4.383c3.852-1.937,7.014-4.436,9.174-7.322,2.639-2.084,4.752-4.467,6.191-7.068,1.111-2.008,1.82-4.146,2.058-6.371.006-.059.012-.119.02-.213,0-.01.002-.02.002-.031t-.002.031l2.932-34.441s1.977-23.133,1.977-23.133c.512-5.104,3.378-9.773,7.521-13.586,6.369-5.861,15.665-9.61,23.671-9.745,5.064-.044,9.125,1.11,11.675,3.209,1.225,1.008,2.103,2.236,2.588,3.665.521,1.535.596,3.332.119,5.386,0,0-4.665,20.844-4.665,20.927,0-.034.003-.068.01-.101-.168.816.057,1.631.526,2.356.919,1.423,2.835,2.613,5.133,3.128,1.748.395,3.448.34,4.791-.093.799-.257,1.494-.656,1.988-1.198.338-.37.58-.806.689-1.293l4.967-20.729c.646-2.682.866-5.52.615-8.345-.25-2.815-1.19-5.54-2.716-7.917-3.753-5.845-7.776-9.361-11.636-11.47-5.683-3.105-10.957-3.125-14.334-3.125-13.217,0-25.083,5.896-33.258,14.071-7.095,7.095-11.454,15.953-11.453,24.193l-.718,10.076c-2.134-2.734-4.984-5.172-8.61-7.07-4.914-2.574-11.241-4.152-19.129-4.152-7.367,0-14.615,1.739-20.415,5.111-3.771,2.193-6.938,5.081-9.119,8.638l-.685-.693c-.013-.013-.027-.026-.041-.037-.288-.277-.661-.49-1.074-.639-.646-.233-1.428-.324-2.246-.243-.761.075-1.462.291-2.03.606-.398.221-.744.497-.994.821-.002.002-.003.004-.005.006-.013.017-.026.035-.03.04,0,0-.731.947-.733.949-.344.451-.537.976-.486,1.493q0,.01.003.072l.136,1.3c-.199.098-.391.201-.578.309-.11.063-.191.166-.228.287l-1.878,6.144c-.019.062-.026.127-.02.191,0,0,3.194,35.079,3.194,35.082.218,2.25.918,4.412,2.029,6.444,1.44,2.633,3.569,5.044,6.235,7.151,2.161,2.888,5.326,5.388,9.181,7.327Z" style="fill:none; stroke:#aebbc7; stroke-linecap:round; stroke-linejoin:round; stroke-width:.5px;"/><path d="M88.537,92.308l-2.705,28.764M25.247,70.419c.906-1.322,1.559-1.983,1.986-2.207.122-.064.209-.083.266-.083.047,0,.08.013.108.034.047.035.105.112.151.265.078.257.102.652.059,1.16-.169,2.031-1.347,5.452-3.047,7.553M84.018,70.136c-.905-1.321-1.618-2.08-2.166-2.367-.168-.088-.336-.141-.501-.14-.15,0-.287.046-.405.133-.166.124-.268.315-.331.521-.106.347-.123.817-.079,1.347.177,2.121,1.387,5.64,3.156,7.826M152.033,31.467c-2.087-2.143-4.756-4.073-8.156-5.507-3.758-1.586-8.403-2.565-14.132-2.565-12.423,0-23.627,5.344-31.561,12.875-7.08,6.72-11.576,15.201-11.994,23.208l-1.309,19.419M127.838,34.026c5.09,0,8.629,1.123,11.088,2.634,2.412,1.481,3.801,3.343,4.598,4.914M36.701,69.711l.541-2.851c.071-.374.246-.704.495-.986.371-.421.902-.736,1.473-.922,4.181-1.366,8.216-2.154,14.915-2.154,6.699,0,10.734.788,14.915,2.154.571.187,1.103.501,1.473.922.248.282.424.612.495.986l.448,2.358M69.87,66.249c-3.957,3.056-9.595,4.976-15.862,4.976-6.192,0-11.77-1.875-15.722-4.872M41.021,76.458h-12.608M80.561,76.458h-13.606M50.406,76.458h-4.327M61.898,76.458h-4.408M21.731,82.434h65.311M34.756,135.93c5.433,2.732,12.284,4.359,19.722,4.359s14.278-1.626,19.708-4.357c3.849-1.936,6.993-4.43,9.079-7.254,2.642-2.077,4.749-4.449,6.179-7.033,1.097-1.982,1.794-4.087,2.028-6.277.007-.062.013-.125.02-.208,0-.003,0-.006,0-.01h0s0,0,0,.01v-.01h0c.056-.659,2.931-34.431,2.931-34.431l1.977-23.137c.519-5.183,3.427-9.905,7.6-13.745,6.412-5.9,15.766-9.675,23.838-9.811,5.095-.044,9.224,1.115,11.837,3.266,1.257,1.035,2.165,2.3,2.666,3.777.538,1.586.611,3.431.126,5.521,0,0-4.658,20.822-4.654,20.822h0c-.152.736.048,1.484.491,2.17.873,1.352,2.721,2.514,4.978,3.02,1.712.387,3.366.33,4.659-.087.77-.248,1.423-.627,1.88-1.128.312-.342.532-.739.631-1.182l4.968-20.729h0c.639-2.656.857-5.467.609-8.265-.246-2.775-1.173-5.46-2.677-7.804-3.733-5.813-7.726-9.299-11.545-11.385-5.624-3.072-10.842-3.095-14.214-3.095-13.142,0-24.947,5.863-33.081,13.998-7.063,7.063-11.381,15.861-11.38,24.034l-.765,10.738c-2.151-2.918-5.102-5.525-8.928-7.529-4.873-2.552-11.159-4.124-19.013-4.124-7.33,0-14.533,1.731-20.289,5.077-3.839,2.232-7.039,5.186-9.198,8.829-.021-.023-.042-.046-.064-.069l-.845-.855c-.009-.009-.018-.017-.028-.024-.258-.251-.601-.451-.995-.592-.607-.219-1.351-.308-2.136-.23-.73.072-1.398.279-1.933.575-.376.208-.692.464-.918.756-.001.002-.003.004-.004.005-.012.016-.024.031-.03.041,0,0-.731.947-.732.948-.315.412-.48.877-.435,1.341q0,.01.001.046l.155,1.474c-.25.118-.49.244-.719.377-.055.032-.096.083-.114.143,0,0-1.878,6.144-1.888,6.24,0,0,3.194,35.079,3.194,35.08.215,2.214.903,4.343,2,6.348,1.43,2.615,3.554,5.016,6.176,7.068,2.134,2.873,5.28,5.369,9.132,7.306Z" style="fill:none; stroke:#aebbc7; stroke-linecap:round; stroke-linejoin:round; stroke-width:.5px;"/></g><path d="M88.363,86.083l-2.025-.01-2.291,27.232v.01c-.934,11.021-13.832,19.77-29.572,19.77s-28.628-8.73-29.582-19.741l-2.399-27.527-2.015-.01,2.291-9.802c2.999-12.81,17.057-19.711,31.656-19.711,19.544,0,29.247,9.772,31.636,19.967l2.3,9.821Z" style="fill:#141b21; stroke:#aebbc7; stroke-linecap:round; stroke-linejoin:round; stroke-width:.5px;"/><line x1="88.786" y1="92.331" x2="86.081" y2="121.096" style="fill:#404d59; stroke:#aebbc7; stroke-linecap:round; stroke-linejoin:round; stroke-width:.5px;"/><path d="M94.175,80.698l-2.932,34.441v.011c-1.155,12.294-17.189,22.038-36.768,22.038s-35.59-9.732-36.779-22.003l-3.194-35.079,79.672.592Z" style="fill:#141b21; stroke:#aebbc7; stroke-linecap:round; stroke-linejoin:round; stroke-width:.5px;"/><path d="M25.041,70.278c4.701-6.856,3.393,2.733-.076,7.021" style="fill:none; stroke:#aebbc7; stroke-linecap:round; stroke-linejoin:round; stroke-width:.5px;"/><path d="M83.812,70.278c-4.701-6.856-3.393,2.733.076,7.021" style="fill:none; stroke:#aebbc7; stroke-linecap:round; stroke-linejoin:round; stroke-width:.5px;"/><path d="M87.515,83.361c4.332.455,6.536-1.3,6.66-2.664l1.977-23.14c1.337-13.341,18.246-23.555,31.685-23.781,10.254-.089,16.782,4.66,14.874,12.869,0,0-4.653,20.808-4.653,20.818-.403,1.956,1.947,4.149,5.279,4.896,3.352.757,6.43-.236,6.872-2.212l4.968-20.729c.633-2.63.849-5.413.603-8.184-.243-2.734-1.155-5.381-2.638-7.691-9.18-14.298-19.897-14.365-25.549-14.365-24.419,0-44.212,20.359-44.212,37.8l-1.24,17.389c.482,1.071,1.073,2.101,1.745,2.932,1.608,1.907,2.808,3.959,3.627,6.063Z" style="fill:#141b21; stroke:#aebbc7; stroke-linecap:round; stroke-linejoin:round; stroke-width:.5px;"/><path d="M151.854,31.641c-4.347-4.464-11.252-7.997-22.108-7.997-23.377,0-42.428,19.035-43.306,35.85l-1.309,19.419" style="fill:none; stroke:#aebbc7; stroke-linecap:round; stroke-linejoin:round; stroke-width:.5px;"/><path d="M27.155,73.273c-.541,1.445-1.298,2.91-2.192,4.021-1.308,1.475-2.399,3.097-3.215,4.866-3.087.216-5.84-.619-7.245-2.055l1.878-6.144c1.327-.767,3.028-1.308,4.906-1.484,2.232-.226,4.306.098,5.869.796Z" style="fill:#141b21; stroke:#aebbc7; stroke-linecap:round; stroke-linejoin:round; stroke-width:.5px;"/><path d="M25.72,76.222c-.823,1.337-1.285,1.52-2.409,3.205-.413.128-.865.216-1.337.265-2.241.216-4.159-.669-4.296-1.976l-.01-.138-.6-5.712,8.12-.836.531,5.191Z" style="fill:#141b21; stroke:#aebbc7; stroke-linecap:round; stroke-linejoin:round; stroke-width:.5px;"/><path d="M25.189,71.032v.02c.128,1.317-1.593,2.566-3.834,2.782-2.232.226-4.149-.659-4.286-1.966v-.02c-.039-.413.098-.816.383-1.19l.767-.993.619-.049c.59-.285,1.298-.482,2.065-.551.836-.079,1.632-.01,2.3.187l.649-.049.845.855c.275.285.452.61.492.973Z" style="fill:#141b21; stroke:#aebbc7; stroke-linecap:round; stroke-linejoin:round; stroke-width:.5px;"/><path d="M20.895,68.429c1.258-.125,2.385.199,2.954.774.221.223.357.483.384.77.098,1.026-1.238,1.997-2.984,2.17-1.746.173-3.24-.518-3.338-1.544-.031-.323.081-.641.303-.93.482-.628,1.485-1.121,2.681-1.24Z" style="fill:#141b21; stroke:#aebbc7; stroke-linecap:round; stroke-linejoin:round; stroke-width:.5px;"/><path d="M127.838,33.776c10.157,0,14.264,4.442,15.91,7.684" style="fill:none; stroke:#aebbc7; stroke-linecap:round; stroke-linejoin:round; stroke-width:.5px;"/><path d="M88.788,92.339l-2.71,28.74v.01c-.99,10.57-14.77,18.95-31.6,18.95s-30.6-8.37-31.62-18.92l-2.79-28.74c-.22-2.34-.06-4.53.41-6.57.01-.05.03-.1.04-.16,1.78-7.33,7.75-12.67,15.55-15.83.23-.09.46-.18.7-.27,4.34,3.29,10.45,5.34,17.22,5.34,7.03,0,13.35-2.21,17.71-5.72.42.16.84.32,1.24.48,8.95,3.62,13.83,9.88,15.38,16.27.01.05.03.11.04.16.49,2.1.63,4.22.43,6.26Z" style="fill:#141b21; stroke:#aebbc7; stroke-linecap:round; stroke-linejoin:round; stroke-width:.5px;"/><path d="M41.228,79.969h-13.95l-.11-2.08c2.19-2.25,5.04-4.17,8.46-5.71.52-.23,1.12-.19,1.6.12,1.14.72,2.34,1.36,3.61,1.92l.39,5.75Z" style="fill:none; stroke:#aebbc7; stroke-linecap:round; stroke-linejoin:round; stroke-width:.5px;"/><path d="M61.938,75.949l-.17,4.02h-15.56l-.17-4.01c2.53.62,5.21.93,7.95.93,2.72,0,5.4-.33,7.95-.94Z" style="fill:#141b21; stroke:#aebbc7; stroke-linecap:round; stroke-linejoin:round; stroke-width:.5px;"/><path d="M81.668,77.809l-.12,2.16h-14.8l.32-4.75c.04-.61.41-1.15.96-1.42,1.16-.55,2.26-1.18,3.28-1.87.47-.31,1.07-.37,1.6-.16,2.33.95,5.9,2.99,8.76,6.04Z" style="fill:none; stroke:#aebbc7; stroke-linecap:round; stroke-linejoin:round; stroke-width:.5px;"/><path d="M36.456,69.664l.541-2.851c.2-1.052,1.126-1.769,2.136-2.099,4.207-1.375,8.268-2.167,14.993-2.167,6.724,0,10.786.792,14.993,2.167,1.01.33,1.936,1.047,2.136,2.099l.448,2.358" style="fill:none; stroke:#aebbc7; stroke-linecap:round; stroke-linejoin:round; stroke-width:.5px;"/><path d="M70.022,66.447c-4.006,3.093-9.699,5.028-16.015,5.028-6.24,0-11.873-1.89-15.873-4.922" style="fill:none; stroke:#aebbc7; stroke-linecap:round; stroke-linejoin:round; stroke-width:.5px;"/><path d="M61.938,75.949l-.17,4.02h-15.56l-.17-4.01c2.53.62,5.21.93,7.95.93,2.72,0,5.4-.33,7.95-.94Z" style="fill:none; stroke:#aebbc7; stroke-linecap:round; stroke-linejoin:round; stroke-width:.5px;"/><line x1="41.021" y1="76.708" x2="28.413" y2="76.708" style="fill:none; stroke:#aebbc7; stroke-linecap:round; stroke-linejoin:round; stroke-width:.5px;"/><line x1="80.561" y1="76.708" x2="66.955" y2="76.708" style="fill:none; stroke:#aebbc7; stroke-linecap:round; stroke-linejoin:round; stroke-width:.5px;"/><line x1="50.406" y1="76.708" x2="46.079" y2="76.708" style="fill:none; stroke:#aebbc7; stroke-linecap:round; stroke-linejoin:round; stroke-width:.5px;"/><line x1="61.898" y1="76.708" x2="57.49" y2="76.708" style="fill:none; stroke:#aebbc7; stroke-linecap:round; stroke-linejoin:round; stroke-width:.5px;"/><line x1="21.731" y1="82.184" x2="87.043" y2="82.184" style="fill:none; stroke:#aebbc7; stroke-linecap:round; stroke-linejoin:round; stroke-width:.5px;"/><path d="M72.274,73.044c1.117,0,2.023.755,2.023,1.686s-.53,1.978-2.023,1.978-2.023-1.047-2.023-1.978.906-1.686,2.023-1.686Z" style="fill:none; stroke:#aebbc7; stroke-linecap:round; stroke-linejoin:round; stroke-width:.5px;"/><path d="M35.703,73.044c-1.117,0-2.023.755-2.023,1.686,0,.931.53,1.978,2.023,1.978s2.023-1.047,2.023-1.978c0-.931-.906-1.686-2.023-1.686Z" style="fill:none; stroke:#aebbc7; stroke-linecap:round; stroke-linejoin:round; stroke-width:.5px;"/></g><g id="uuid-45e67035-8bda-4ece-bd2e-4eb00602947b"><path d="M50.866,36.127c-11.808-11.3-33.096,1.107-29.71,12.1l-4.119.671,12.722,5.995,3.753-8.678-3.826.623c-2.868-5.311,8.541-15.154,21.18-10.711Z" style="fill:#f4ae3d;"/><path d="M50.866,36.127c-11.808-11.3-33.096,1.107-29.71,12.1l-4.119.671,12.722,5.995,3.753-8.678-3.826.623c-2.868-5.311,8.541-15.154,21.18-10.711Z" style="fill:#f4ae3d;"/><path d="M50.866,36.127c-11.808-11.3-33.096,1.107-29.71,12.1l-4.119.671,12.722,5.995,3.753-8.678-3.826.623c-2.868-5.311,8.541-15.154,21.18-10.711Z" style="fill:none; stroke:#141b21; stroke-miterlimit:10; stroke-width:1.5px;"/><path d="M36.828,71.986c6.331,6.652,18.69,6.459,28.643-.765,9.885-7.175,13.911-18.755,9.692-26.83-1.317-2.52-3.129-4.902-5.417-6.589-6.687-4.932-17.737-4.18-26.794,2.394-9.816,7.125-13.855,18.594-9.779,26.66.947,1.874,2.208,3.609,3.655,5.13Z" style="fill:none; stroke:#aebbc7; stroke-width:3px;"/><path d="M74.317,45.99c-.708-1.575-1.724-2.999-2.994-4.185-.389-.363-.802-.704-1.235-1.018-2.888-2.097-6.677-3.036-10.76-2.808-2.421.135-4.945.68-7.447,1.636-2.285.873-4.552,2.09-6.703,3.652s-4.01,3.339-5.549,5.241c-1.684,2.082-2.984,4.313-3.863,6.573-1.416,3.644-1.736,7.362-.801,10.65" style="fill:none; stroke:#aebbc7; stroke-width:3px;"/><path d="M38.152,71.204c.734.72,1.551,1.356,2.437,1.895,2.755,1.675,6.188,2.413,9.859,2.209,2.421-.135,4.945-.68,7.447-1.636,2.285-.873,4.552-2.09,6.703-3.652s4.01-3.339,5.549-5.241c1.684-2.082,2.984-4.313,3.863-6.573.619-1.592,1.028-3.198,1.215-4.776" style="fill:none; stroke:#aebbc7; stroke-width:3px;"/><path d="M57.571,71.948c2.059-.789,4.102-1.887,6.041-3.295s3.616-3.009,5.004-4.722c1.52-1.875,2.694-3.884,3.488-5.917,1.716-4.391,1.661-8.899-.507-12.432-.768-1.251-1.806-2.365-2.995-3.226-1.399-1.014-3.035-1.724-4.82-2.131" style="fill:none; stroke:#aebbc7; stroke-width:3px;"/><path d="M57.571,71.948l.045-.017" style="fill:none; stroke:#aebbc7; stroke-width:3px;"/><path d="M60.34,70.692c1.112-.586,2.208-1.266,3.272-2.038,1.939-1.407,3.616-3.009,5.004-4.722,1.52-1.875,2.694-3.884,3.488-5.917,1.715-4.391,1.661-8.899-.507-12.432-.768-1.251-1.806-2.365-2.995-3.226-.998-.723-2.117-1.292-3.324-1.707" style="fill:none; stroke:#aebbc7; stroke-width:3px;"/><path d="M63.832,40.237c-.017-.004-.034-.008-.05-.012" style="fill:none; stroke:#aebbc7; stroke-width:3px;"/><path d="M51.411,41.656c-1.786.756-3.552,1.747-5.239,2.971-1.939,1.407-3.616,3.009-5.004,4.722-1.52,1.875-2.694,3.884-3.488,5.917-1.625,4.159-1.662,8.423.181,11.864.942,1.759,2.424,3.296,4.131,4.331,1.017.617,2.138,1.091,3.335,1.423" style="fill:none; stroke:#aebbc7; stroke-width:3px;"/><path d="M51.411,41.656c-.015.006-.03.013-.044.019" style="fill:none; stroke:#aebbc7; stroke-width:3px;"/><path d="M48.586,43.061c-.818.47-1.625.992-2.414,1.565-1.939,1.407-3.616,3.009-5.004,4.722-1.52,1.875-2.694,3.884-3.488,5.917-1.625,4.159-1.662,8.423.181,11.864.942,1.759,2.424,3.296,4.131,4.331.573.347,1.178.65,1.812.907" style="fill:none; stroke:#aebbc7; stroke-width:3px;"/><path d="M45.277,72.871c.016.005.033.009.049.014" style="fill:none; stroke:#aebbc7; stroke-width:3px;"/><path d="M42.952,40.196l.688.948.688.947" style="fill:none; stroke:#aebbc7; stroke-width:3px;"/><path d="M45.215,38.696c.273.374.483.662.69.947.211.29.418.577.686.949" style="fill:none; stroke:#aebbc7; stroke-width:3px;"/><path d="M47.54,37.425c.274.373.484.66.691.946.21.289.417.577.684.952" style="fill:none; stroke:#aebbc7; stroke-width:3px;"/><path d="M49.907,36.384c.274.372.485.658.693.946.209.289.416.577.682.954" style="fill:none; stroke:#aebbc7; stroke-width:3px;"/><path d="M52.313,35.593c.267.36.473.64.678.922.208.288.415.577.68.956" style="fill:none; stroke:#aebbc7; stroke-width:3px;"/><path d="M54.72,35.025c.26.349.463.623.664.902.208.287.413.577.679.958" style="fill:none; stroke:#aebbc7; stroke-width:3px;"/><path d="M57.119,34.695c.249.333.446.597.641.868.207.286.412.577.677.96" style="fill:none; stroke:#aebbc7; stroke-width:3px;"/><path d="M59.496,34.607c.231.308.417.558.603.815.206.285.411.577.675.962" style="fill:none; stroke:#aebbc7; stroke-width:3px;"/><path d="M61.84,34.77c.203.269.373.497.542.731.205.284.41.576.673.964" style="fill:none; stroke:#aebbc7; stroke-width:3px;"/><path d="M64.146,35.205c.16.212.301.401.442.596.204.283.409.576.671.966" style="fill:none; stroke:#aebbc7; stroke-width:3px;"/><path d="M66.428,35.953c.093.125.181.245.27.367.204.282.408.576.67.968" style="fill:none; stroke:#aebbc7; stroke-width:3px;"/><path d="M68.742,37.124c.187.261.378.539.618.9" style="fill:none; stroke:#aebbc7; stroke-width:3px;"/><path d="M40.823,41.883c.271.376.48.664.687.949.211.29.419.576.69.946" style="fill:none; stroke:#aebbc7; stroke-width:3px;"/><path d="M38.895,43.7c.27.376.478.665.686.951.21.289.42.575.693.945" style="fill:none; stroke:#aebbc7; stroke-width:3px;"/><path d="M37.172,45.628c.269.376.476.665.684.952.21.288.42.574.695.944" style="fill:none; stroke:#aebbc7; stroke-width:3px;"/><path d="M35.674,47.67c.26.365.462.648.667.93.209.287.42.573.698.943" style="fill:none; stroke:#aebbc7; stroke-width:3px;"/><path d="M34.388,49.783c.252.356.449.633.651.911.208.286.42.572.7.942" style="fill:none; stroke:#aebbc7; stroke-width:3px;"/><path d="M33.331,51.961c.239.34.43.609.626.879.208.285.421.571.703.941" style="fill:none; stroke:#aebbc7; stroke-width:3px;"/><path d="M32.51,54.194c.221.315.401.57.588.826.207.284.421.57.705.94" style="fill:none; stroke:#aebbc7; stroke-width:3px;"/><path d="M31.939,56.473c.193.277.357.508.527.742.206.283.421.568.708.939" style="fill:none; stroke:#aebbc7; stroke-width:3px;"/><path d="M31.638,58.801c.152.218.289.41.43.605.206.282.421.567.71.938" style="fill:none; stroke:#aebbc7; stroke-width:3px;"/><path d="M31.642,61.202c.09.127.176.248.265.37.205.281.422.566.713.937" style="fill:none; stroke:#aebbc7; stroke-width:3px;"/><path d="M32.039,63.765c.19.258.395.526.665.866" style="fill:none; stroke:#aebbc7; stroke-width:3px;"/><path d="M36.828,71.986c6.331,6.652,18.69,6.459,28.643-.765,9.885-7.175,13.911-18.755,9.692-26.83-1.317-2.52-3.129-4.902-5.417-6.589-6.687-4.932-17.737-4.18-26.794,2.394-9.816,7.125-13.855,18.594-9.779,26.66.947,1.874,2.208,3.609,3.655,5.13Z" style="fill:#141b21; stroke:#aebbc7; stroke-linecap:round; stroke-linejoin:round; stroke-width:.5px;"/><path d="M74.317,45.99c-.708-1.575-1.724-2.999-2.994-4.185-.389-.363-.802-.704-1.235-1.018-2.888-2.097-6.677-3.036-10.76-2.808-2.421.135-4.945.68-7.447,1.636-2.285.873-4.552,2.09-6.703,3.652s-4.01,3.339-5.549,5.241c-1.684,2.082-2.984,4.313-3.863,6.573-1.416,3.644-1.736,7.362-.801,10.65" style="fill:none; stroke:#aebbc7; stroke-linecap:round; stroke-linejoin:round; stroke-width:.5px;"/><path d="M38.152,71.204c.734.72,1.551,1.356,2.437,1.895,2.755,1.675,6.188,2.413,9.859,2.209,2.421-.135,4.945-.68,7.447-1.636,2.285-.873,4.552-2.09,6.703-3.652s4.01-3.339,5.549-5.241c1.684-2.082,2.984-4.313,3.863-6.573.619-1.592,1.028-3.198,1.215-4.776" style="fill:none; stroke:#aebbc7; stroke-linecap:round; stroke-linejoin:round; stroke-width:.5px;"/><path d="M57.571,71.948l.045-.017" style="fill:none; stroke:#aebbc7; stroke-linecap:round; stroke-linejoin:round; stroke-width:.5px;"/><path d="M60.34,70.692c1.112-.586,2.208-1.266,3.272-2.038,1.939-1.407,3.616-3.009,5.004-4.722,1.52-1.875,2.694-3.884,3.488-5.917,1.715-4.391,1.661-8.899-.507-12.432-.768-1.251-1.806-2.365-2.995-3.226-.998-.723-2.117-1.292-3.324-1.707" style="fill:none; stroke:#aebbc7; stroke-dasharray:.1 2.994; stroke-linecap:round; stroke-linejoin:round; stroke-width:.5px;"/><path d="M63.832,40.237c-.017-.004-.034-.008-.05-.012" style="fill:none; stroke:#aebbc7; stroke-linecap:round; stroke-linejoin:round; stroke-width:.5px;"/><path d="M51.411,41.656c-.015.006-.03.013-.044.019" style="fill:none; stroke:#aebbc7; stroke-linecap:round; stroke-linejoin:round; stroke-width:.5px;"/><path d="M48.586,43.061c-.818.47-1.625.992-2.414,1.565-1.939,1.407-3.616,3.009-5.004,4.722-1.52,1.875-2.694,3.884-3.488,5.917-1.625,4.159-1.662,8.423.181,11.864.942,1.759,2.424,3.296,4.131,4.331.573.347,1.178.65,1.812.907" style="fill:none; stroke:#aebbc7; stroke-dasharray:.104 3.108; stroke-linecap:round; stroke-linejoin:round; stroke-width:.5px;"/><path d="M45.277,72.871c.016.005.033.009.049.014" style="fill:none; stroke:#aebbc7; stroke-linecap:round; stroke-linejoin:round; stroke-width:.5px;"/><path d="M42.952,40.196l.688.948.688.947" style="fill:none; stroke:#aebbc7; stroke-linecap:round; stroke-linejoin:round; stroke-width:.5px;"/><path d="M45.215,38.696c.273.374.483.662.69.947.211.29.418.577.686.949" style="fill:none; stroke:#aebbc7; stroke-linecap:round; stroke-linejoin:round; stroke-width:.5px;"/><path d="M47.54,37.425c.274.373.484.66.691.946.21.289.417.577.684.952" style="fill:none; stroke:#aebbc7; stroke-linecap:round; stroke-linejoin:round; stroke-width:.5px;"/><path d="M49.907,36.384c.274.372.485.658.693.946.209.289.416.577.682.954" style="fill:none; stroke:#aebbc7; stroke-linecap:round; stroke-linejoin:round; stroke-width:.5px;"/><path d="M52.313,35.593c.267.36.473.64.678.922.208.288.415.577.68.956" style="fill:none; stroke:#aebbc7; stroke-linecap:round; stroke-linejoin:round; stroke-width:.5px;"/><path d="M54.72,35.025c.26.349.463.623.664.902.208.287.413.577.679.958" style="fill:none; stroke:#aebbc7; stroke-linecap:round; stroke-linejoin:round; stroke-width:.5px;"/><path d="M57.119,34.695c.249.333.446.597.641.868.207.286.412.577.677.96" style="fill:none; stroke:#aebbc7; stroke-linecap:round; stroke-linejoin:round; stroke-width:.5px;"/><path d="M59.496,34.607c.231.308.417.558.603.815.206.285.411.577.675.962" style="fill:none; stroke:#aebbc7; stroke-linecap:round; stroke-linejoin:round; stroke-width:.5px;"/><path d="M61.84,34.77c.203.269.373.497.542.731.205.284.41.576.673.964" style="fill:none; stroke:#aebbc7; stroke-linecap:round; stroke-linejoin:round; stroke-width:.5px;"/><path d="M64.146,35.205c.16.212.301.401.442.596.204.283.409.576.671.966" style="fill:none; stroke:#aebbc7; stroke-linecap:round; stroke-linejoin:round; stroke-width:.5px;"/><path d="M66.428,35.953c.093.125.181.245.27.367.204.282.408.576.67.968" style="fill:none; stroke:#aebbc7; stroke-linecap:round; stroke-linejoin:round; stroke-width:.5px;"/><path d="M68.742,37.124c.187.261.378.539.618.9" style="fill:none; stroke:#aebbc7; stroke-linecap:round; stroke-linejoin:round; stroke-width:.5px;"/><path d="M40.823,41.883c.271.376.48.664.687.949.211.29.419.576.69.946" style="fill:none; stroke:#aebbc7; stroke-linecap:round; stroke-linejoin:round; stroke-width:.5px;"/><path d="M38.895,43.7c.27.376.478.665.686.951.21.289.42.575.693.945" style="fill:none; stroke:#aebbc7; stroke-linecap:round; stroke-linejoin:round; stroke-width:.5px;"/><path d="M37.172,45.628c.269.376.476.665.684.952.21.288.42.574.695.944" style="fill:none; stroke:#aebbc7; stroke-linecap:round; stroke-linejoin:round; stroke-width:.5px;"/><path d="M35.674,47.67c.26.365.462.648.667.93.209.287.42.573.698.943" style="fill:none; stroke:#aebbc7; stroke-linecap:round; stroke-linejoin:round; stroke-width:.5px;"/><path d="M34.388,49.783c.252.356.449.633.651.911.208.286.42.572.7.942" style="fill:none; stroke:#aebbc7; stroke-linecap:round; stroke-linejoin:round; stroke-width:.5px;"/><path d="M33.331,51.961c.239.34.43.609.626.879.208.285.421.571.703.941" style="fill:none; stroke:#aebbc7; stroke-linecap:round; stroke-linejoin:round; stroke-width:.5px;"/><path d="M32.51,54.194c.221.315.401.57.588.826.207.284.421.57.705.94" style="fill:none; stroke:#aebbc7; stroke-linecap:round; stroke-linejoin:round; stroke-width:.5px;"/><path d="M31.939,56.473c.193.277.357.508.527.742.206.283.421.568.708.939" style="fill:none; stroke:#aebbc7; stroke-linecap:round; stroke-linejoin:round; stroke-width:.5px;"/><path d="M31.638,58.801c.152.218.289.41.43.605.206.282.421.567.71.938" style="fill:none; stroke:#aebbc7; stroke-linecap:round; stroke-linejoin:round; stroke-width:.5px;"/><path d="M31.642,61.202c.09.127.176.248.265.37.205.281.422.566.713.937" style="fill:none; stroke:#aebbc7; stroke-linecap:round; stroke-linejoin:round; stroke-width:.5px;"/><path d="M32.039,63.765c.19.258.395.526.665.866" style="fill:none; stroke:#aebbc7; stroke-linecap:round; stroke-linejoin:round; stroke-width:.5px;"/><g id="uuid-545d45ee-321c-4e3d-8f24-004902fbc57b"><path d="M21.063,98.06c-.034-.362-.051-.723-.051-1.081,0-3.509,1.617-6.916,4.607-9.906,5.668-5.668,16.138-9.681,28.808-9.681,13.228,0,23.234,4.124,28.699,9.589,3.107,3.107,4.713,6.606,4.713,10.024,0,.34-.016.68-.048,1.02M27.351,134.958c5.9,5.32,15.898,8.741,27.125,8.741s21.245-3.428,27.141-8.762c3.084-2.79,5.089-6.148,5.46-9.842,0-.003,0-.006,0-.009.001-.011.002-.022.003-.034l-.003.034c.001-.011.002-.022.003-.034h0c.001-.019.002-.038.002-.057l-.002.057h0c.107-1.059,2.7-26.827,2.7-26.827.211-2.022.069-4.116-.452-6.194-.013-.054-.027-.107-.041-.161-1.075-4.134-3.646-8.173-7.881-11.448-5.782-4.471-14.627-7.492-26.98-7.492-10.381,0-20.614,2.696-27.408,7.949-3.657,2.827-6.343,6.419-7.468,10.744-.013.052-.027.103-.04.155-.506,2.021-.667,4.183-.439,6.482l2.792,26.864c.383,3.691,2.395,7.046,5.486,9.833Z" style="fill:none; stroke:#aebbc7; stroke-linecap:round; stroke-linejoin:round; stroke-width:.5px;"/><path d="M20.814,98.083c-.035-.37-.052-.738-.052-1.104,0-3.591,1.655-7.058,4.68-10.083,5.729-5.729,16.271-9.755,28.984-9.755,13.274,0,23.352,4.138,28.876,9.662,3.142,3.142,4.786,6.701,4.786,10.2,0,.348-.016.696-.049,1.044M27.518,134.772c5.842,5.267,15.773,8.676,26.958,8.676s21.135-3.417,26.974-8.697c3.052-2.76,5.016-6.065,5.383-9.757l-.004.066,2.703-26.861h0c.208-1.993.068-4.057-.446-6.107-.013-.053-.027-.106-.04-.159-1.06-4.077-3.598-8.07-7.792-11.313-5.727-4.428-14.513-7.44-26.828-7.44-10.346,0-20.519,2.688-27.255,7.897-3.622,2.801-6.271,6.348-7.379,10.609-.013.051-.026.102-.039.153-.499,1.992-.658,4.125-.432,6.395l2.792,26.864c.375,3.614,2.347,6.916,5.405,9.673Z" style="fill:none; stroke:#aebbc7; stroke-linecap:round; stroke-linejoin:round; stroke-width:.5px;"/><path d="M20.565,98.107c-.036-.378-.053-.754-.053-1.128,0-3.673,1.693-7.199,4.754-10.26,5.789-5.789,16.403-9.828,29.161-9.828,13.32,0,23.469,4.152,29.053,9.735,3.177,3.177,4.859,6.797,4.859,10.377,0,.356-.017.712-.05,1.067M27.686,134.586c5.784,5.215,15.649,8.612,26.79,8.612s21.026-3.405,26.806-8.633c3.019-2.73,4.942-5.982,5.301-9.571l-.003.041,2.703-26.862h0c.205-1.963.067-3.999-.439-6.02-.013-.052-.026-.104-.04-.156-1.045-4.02-3.55-7.967-7.703-11.178-5.672-4.385-14.399-7.387-26.675-7.387-10.311,0-20.424,2.68-27.102,7.844-3.588,2.775-6.198,6.278-7.29,10.475-.013.05-.026.101-.039.151-.491,1.963-.649,4.067-.426,6.309l2.792,26.864c.367,3.537,2.298,6.785,5.324,9.513Z" style="fill:none; stroke:#aebbc7; stroke-linecap:round; stroke-linejoin:round; stroke-width:.5px;"/><path d="M20.316,98.13c-.036-.385-.054-.769-.054-1.151,0-3.754,1.732-7.341,4.827-10.436,5.85-5.85,16.536-9.901,29.338-9.901,13.366,0,23.587,4.166,29.229,9.808,3.212,3.212,4.932,6.892,4.932,10.554,0,.364-.017.727-.051,1.09M27.853,134.401c5.725,5.162,15.524,8.548,26.623,8.548s20.917-3.393,26.638-8.568c2.981-2.697,4.863-5.889,5.217-9.37,0-.005.001-.011.002-.016v.016s2.702-26.863,2.702-26.863c.005-.043.009-.087.013-.13.182-1.894.042-3.855-.446-5.803-.013-.051-.026-.103-.039-.154-1.031-3.963-3.502-7.864-7.614-11.043-5.616-4.343-14.285-7.335-26.522-7.335-10.276,0-20.328,2.673-26.949,7.792-3.554,2.748-6.126,6.207-7.201,10.34-.013.049-.026.099-.038.149-.484,1.934-.64,4.009-.42,6.222l2.792,26.864c.359,3.459,2.25,6.655,5.243,9.353Z" style="fill:none; stroke:#aebbc7; stroke-linecap:round; stroke-linejoin:round; stroke-width:.5px;"/></g><path d="M88.786,98.121l-2.704,26.864v.009c-.993,9.876-14.776,17.704-31.607,17.704s-30.594-7.818-31.617-17.677l-2.792-26.864c-.217-2.185-.063-4.231.414-6.136.012-.049.025-.098.037-.147,3.031-11.656,18.175-17.945,33.908-17.945,21.128,0,31.49,8.949,33.894,18.191.013.051.026.101.039.152.492,1.966.626,3.942.427,5.847Z" style="fill:#404d59; stroke:#aebbc7; stroke-linecap:round; stroke-linejoin:round; stroke-width:.5px;"/><path d="M83.755,104.654l-2.307,22.929c-.839,8.429-12.601,15.113-26.972,15.113s-26.108-6.669-26.98-15.082l-2.383-22.929c-.929-9.875,11.963-18.571,29.321-18.571,18.61,0,30.178,9.428,29.321,18.54Z" style="fill:none; stroke:#aebbc7; stroke-linecap:round; stroke-linejoin:round; stroke-width:.5px;"/><path d="M20.067,98.153c-.037-.393-.055-.785-.055-1.175,0-11.078,14.765-20.588,34.415-20.588,21.05,0,34.412,10.294,34.412,20.612,0,.371-.017.743-.052,1.114" style="fill:none; stroke:#aebbc7; stroke-linecap:round; stroke-linejoin:round; stroke-width:.5px;"/><path d="M70.654,115.466c-1.743-1.417-11.604-9.436-13.543-10.644-.681-.429-1.564-.745-2.676-.745h0c-1.112,0-1.995.315-2.676.745-1.938,1.209-11.8,9.227-13.543,10.644-.14.128.011.329.237.329.919,0,3.049.003,4.332.003.452,0,.583-.059.855-.284.273-.227,1.64-1.361,1.64-1.361,1.762-1.467,6.168-4.782,7.815-5.85.622-.403,1.33-.391,1.34-.39h0c.01,0,.718-.013,1.34.39,1.647,1.068,6.053,4.383,7.815,5.85,0,0,1.367,1.134,1.64,1.361.272.226.403.284.855.284,1.283,0,3.413-.003,4.332-.003.226,0,.377-.201.237-.329" style="fill:none; stroke:#687581; stroke-linecap:round; stroke-linejoin:round; stroke-width:.5px;"/><path d="M38.356,117.262c1.922,1.374,11.887,8.493,13.673,9.479.619.345,1.412.597,2.404.597h0c.993,0,1.786-.252,2.404-.597,1.786-.986,11.75-8.105,13.673-9.479.159-.126.041-.324-.184-.324-.914,0-3.032-.003-4.308-.003-.45,0-.586.058-.88.281-.294.222-1.745,1.321-1.745,1.321-1.825,1.386-6.165,4.38-7.719,5.307-.579.345-1.233.334-1.242.334h0c-.009,0-.662.011-1.242-.334-1.554-.926-5.894-3.921-7.719-5.307,0,0-1.451-1.099-1.745-1.321-.294-.223-.43-.281-.88-.281-1.276,0-3.393.003-4.308.003-.225,0-.343.198-.184.324" style="fill:none; stroke:#687581; stroke-linecap:round; stroke-linejoin:round; stroke-width:.5px;"/><path d="M53.25,118.832c-.814-.539-2.258-1.556-2.801-2.014-.248-.203-.237-.458-.237-.458,0,0-.021-.255.219-.46.53-.465,1.967-1.511,2.79-2.074.339-.236.418-.385.417-.676-.004-.905-.01-2.625-.013-3.284,0-.134-.207-.217-.366-.105-1.864,1.318-5.927,4.398-7.257,5.567-.632.514-.549,1.033-.549,1.033h0,0s-.038.517.633,1.023c1.395,1.132,5.458,3.999,7.244,5.176.159.098.344.037.343-.102-.002-.587-.008-2.141-.011-2.985-.001-.275-.08-.415-.412-.64" style="fill:none; stroke:#687581; stroke-linecap:round; stroke-linejoin:round; stroke-width:.5px;"/><path d="M55.62,118.835c.814-.539,2.258-1.556,2.801-2.014.248-.203.237-.458.237-.458h0,0s.022-.255-.219-.46c-.53-.465-1.966-1.511-2.789-2.073-.339-.236-.418-.385-.417-.676.004-.905.01-2.614.013-3.274,0-.158.198-.228.366-.116,1.864,1.318,5.927,4.398,7.257,5.567.632.514.549,1.033.549,1.033,0,0,.037.517-.633,1.023-1.395,1.132-5.458,3.999-7.244,5.176-.159.098-.344.037-.343-.103.002-.587.008-2.141.011-2.984.001-.275.08-.416.412-.64" style="fill:none; stroke:#687581; stroke-linecap:round; stroke-linejoin:round; stroke-width:.5px;"/><path d="M40.008,64.416c11.808,11.3,33.096-1.107,29.71-12.1l4.119-.671-12.722-5.995-3.753,8.678,3.826-.623c2.868,5.311-8.541,15.154-21.18,10.711Z" style="fill:#f4ae3d;"/><path d="M40.008,64.416c11.808,11.3,33.096-1.107,29.71-12.1l4.119-.671-12.722-5.995-3.753,8.678,3.826-.623c2.868,5.311-8.541,15.154-21.18,10.711Z" style="fill:#f4ae3d;"/><path d="M40.008,64.416c11.808,11.3,33.096-1.107,29.71-12.1l4.119-.671-12.722-5.995-3.753,8.678,3.826-.623c2.868,5.311-8.541,15.154-21.18,10.711Z" style="fill:none; stroke:#141b21; stroke-miterlimit:10; stroke-width:1.5px;"/></g><g id="uuid-55460ac7-733b-477d-bb8d-b54d235b8a09"><polygon points="91.85 81.802 101.716 76.069 103.089 79.826 91.85 81.802" style="fill:none; stroke:#141b21; stroke-linecap:round; stroke-linejoin:round; stroke-width:3px;"/><polygon points="91.85 81.802 101.716 76.069 103.089 79.826 91.85 81.802" style="fill:none; stroke:#141b21; stroke-linecap:round; stroke-linejoin:round; stroke-width:3px;"/><polygon points="92.452 84.632 103.686 82.632 103.686 86.632 92.452 84.632" style="fill:none; stroke:#141b21; stroke-linecap:round; stroke-linejoin:round; stroke-width:3px;"/><polygon points="92.452 84.632 103.686 82.632 103.686 86.632 92.452 84.632" style="fill:none; stroke:#141b21; stroke-linecap:round; stroke-linejoin:round; stroke-width:3px;"/><polygon points="91.916 87.546 103.144 89.58 101.752 93.33 91.916 87.546" style="fill:none; stroke:#141b21; stroke-linecap:round; stroke-linejoin:round; stroke-width:3px;"/><polygon points="91.916 87.546 103.144 89.58 101.752 93.33 91.916 87.546" style="fill:none; stroke:#141b21; stroke-linecap:round; stroke-linejoin:round; stroke-width:3px;"/><polygon points="91.85 81.802 101.716 76.069 103.089 79.826 91.85 81.802" style="fill:#f4ae3d;"/><polygon points="92.452 84.632 103.686 82.632 103.686 86.632 92.452 84.632" style="fill:#f4ae3d;"/><polygon points="91.916 87.546 103.144 89.58 101.752 93.33 91.916 87.546" style="fill:#f4ae3d;"/><polygon points="17.018 81.802 7.152 76.069 5.779 79.826 17.018 81.802" style="fill:none; stroke:#141b21; stroke-linecap:round; stroke-linejoin:round; stroke-width:3px;"/><polygon points="17.018 81.802 7.152 76.069 5.779 79.826 17.018 81.802" style="fill:none; stroke:#141b21; stroke-linecap:round; stroke-linejoin:round; stroke-width:3px;"/><polygon points="16.416 84.632 5.181 82.632 5.181 86.632 16.416 84.632" style="fill:none; stroke:#141b21; stroke-linecap:round; stroke-linejoin:round; stroke-width:3px;"/><polygon points="16.416 84.632 5.181 82.632 5.181 86.632 16.416 84.632" style="fill:none; stroke:#141b21; stroke-linecap:round; stroke-linejoin:round; stroke-width:3px;"/><polygon points="16.952 87.546 5.724 89.58 7.116 93.33 16.952 87.546" style="fill:none; stroke:#141b21; stroke-linecap:round; stroke-linejoin:round; stroke-width:3px;"/><polygon points="16.952 87.546 5.724 89.58 7.116 93.33 16.952 87.546" style="fill:none; stroke:#141b21; stroke-linecap:round; stroke-linejoin:round; stroke-width:3px;"/><polygon points="17.018 81.802 7.152 76.069 5.779 79.826 17.018 81.802" style="fill:#f4ae3d;"/><polygon points="16.416 84.632 5.181 82.632 5.181 86.632 16.416 84.632" style="fill:#f4ae3d;"/><polygon points="16.952 87.546 5.724 89.58 7.116 93.33 16.952 87.546" style="fill:#f4ae3d;"/></g></svg>