<svg xmlns="http://www.w3.org/2000/svg" width="325" height="218" viewBox="0 0 325 218"><g id="abd4730e-04a7-4567-85bd-d3e42261f0cc" data-name="annotations"><path d="M-21.415,114.0478c0,.1685,21.6048,4.2138,21.6048,4.2138L249.1453-2.4236" style="fill:none;stroke:#687581;stroke-miterlimit:10"/><line x1="222.0905" y1="20.8319" x2="83.7669" y2="87.8854" style="fill:none;stroke:#687581;stroke-miterlimit:10;stroke-width:0.5px"/><path d="M15.0287,111.0964l3.9926,1.0729c-.0864,10.9666,4.0585,24.5238,13.3845,21.6742s63.1229-17.27,63.1229-17.27c3.54-5.6129,1.6407-20.7244,1.6407-20.7244s-.6908-4.2312-6.3037-5.9582S76.445,86.0048,76.445,86.0048l-4.5766,1.5543-3.0091-2.558" style="fill:none;stroke:#687581;stroke-miterlimit:10"/><polyline points="77.709 87.575 71.713 89.612 67.33 85.886" style="fill:none;stroke:#687581;stroke-miterlimit:10;stroke-width:0.5px"/><path d="M22.4707,129.1056c2.1607,3.2011,5.1695,4.9112,9.0973,3.711,9.3259-2.85,63.3185-17.356,63.3185-17.356h0c2.2669-6.5487.7277-18.75.7277-18.75s-.69-4.2258-6.3061-5.9516c-3.6054-1.1158-8.5377-2.4052-11.5994-3.1835" style="fill:none;stroke:#687581;stroke-miterlimit:10;stroke-width:0.5px"/><path d="M19.0213,112.1693l8.9273,2.8s1.7367,3.0392,4.7035,2.2432,61.58-20.3335,61.58-20.3335" style="fill:none;stroke:#687581;stroke-miterlimit:10;stroke-width:0.5px"/><path d="M222.0928,10.7187V31.046s-1.4195,10.8434,6.66,18.0724A127.8624,127.8624,0,0,0,242.36,59.9619V72.2936s77.6051,55.9042,86.11,60.9077,18.0724,8.618,23.6,8.4054,32.9556.0089,32.9556.0089" style="fill:none;stroke:#687581;stroke-miterlimit:10"/><path d="M232.2759,5.7822s-.3039,19.3105,0,23.7755.9418,12.757,10.51,20.6238,101.6308,75.2663,110.5607,81.6448,12.3317,10.2234,31.68,9.7893" style="fill:none;stroke:#687581;stroke-miterlimit:10;stroke-width:0.5px"/><line x1="233.2188" y1="35.9953" x2="318.0518" y2="-1.4844" style="fill:none;stroke:#687581;stroke-miterlimit:10;stroke-width:0.5px"/><path d="M222.0717,34.8811,119.4677,77.3964l9.993,3.1893s-11.9065,9.3551-16.1589,13.82-7.4363,7.5537-15.6247,10.2616" style="fill:none;stroke:#687581;stroke-miterlimit:10;stroke-width:0.5px"/><path d="M242.36,68.4665s-101.2056,32.9556-107.3714,35.0818A50.8546,50.8546,0,0,0,118.83,113.116c-4.465,3.8271-7.4416,7.229-15.3084,9.3552s-59.32,16.4083-59.32,16.4083" style="fill:none;stroke:#687581;stroke-miterlimit:10;stroke-width:0.5px"/><polyline points="129.461 80.586 132.575 81.48 226.08 46.172" style="fill:none;stroke:#687581;stroke-miterlimit:10;stroke-width:0.5px"/><path d="M42.37,131.0035v4.8441a6.7929,6.7929,0,0,0,1.1189,2.2344v3.4441c0,.9558,1.2261,3.1541,4.5236,3.632s5.9063.6335,5.9063.6335" style="fill:none;stroke:#687581;stroke-miterlimit:10"/><path d="M247.7438,76.1671s-105.716,32.6607-108.6125,33.4476-7.6222,1.549-12.1956,5.36-14.1774,14.0689-23.1717,16.0287-55.7512,14.1546-55.7512,14.1546" style="fill:none;stroke:#687581;stroke-miterlimit:10;stroke-width:0.5px"/><path d="M130.2213,112.7213l30.4048,4.6244a115.0193,115.0193,0,0,0,14.4823,0c6.4028-.5415,104.8811-18.0708,104.8811-18.0708" style="fill:none;stroke:#687581;stroke-miterlimit:10;stroke-width:0.5px"/><path d="M110.8127,128.0429s27.0135,3.5485,32.4681,4.0058,22.376,1.5245,33.5045,0" style="fill:none;stroke:#687581;stroke-miterlimit:10;stroke-width:0.5px"/><line x1="256.1274" y1="122.32" x2="302.8812" y2="115.5514" style="fill:none;stroke:#687581;stroke-miterlimit:10"/><line x1="297.2557" y1="111.5668" x2="240.2026" y2="121.2251" style="fill:none;stroke:#687581;stroke-miterlimit:10;stroke-width:0.5px"/><path d="M192.4374,102.2142c0,1.9236,9.4045,3.4829,21.0056,3.4829s21.0056-1.5593,21.0056-3.4829V96.3356c0-1.9235-9.4045-3.4829-21.0056-3.4829s-21.0056,1.5594-21.0056,3.4829Z" style="fill:none;stroke:#687581;stroke-miterlimit:10"/><ellipse cx="213.443" cy="104.4133" rx="7.7432" ry="1.2839" style="fill:none;stroke:#687581;stroke-miterlimit:10;stroke-width:0.5px"/><ellipse cx="185.4372" cy="105.4133" rx="9.7041" ry="2.1114" style="fill:none;stroke:#687581;stroke-miterlimit:10;stroke-width:0.5px"/><path d="M194.2728,104.5462c-1.53.7276-4.9068,1.2407-8.8341,1.2407s-7.3136-.5131-8.8342-1.2407" style="fill:none;stroke:#687581;stroke-miterlimit:10;stroke-width:0.5px"/><path d="M192.4374,102.2142c0-1.9236,9.4045-3.4829,21.0056-3.4829s21.0056,1.5593,21.0056,3.4829" style="fill:none;stroke:#687581;stroke-miterlimit:10;stroke-width:0.5px"/><path d="M89.5978,139.9417c0,1.0852,6.5455,1.965,14.62,1.965s14.62-.88,14.62-1.965v-3.7485c0-1.0853-6.5455-1.965-14.62-1.965s-14.62.88-14.62,1.965Z" style="fill:none;stroke:#687581;stroke-miterlimit:10"/><ellipse cx="104.2176" cy="157.8062" rx="14.6198" ry="1.965" style="fill:none;stroke:#687581;stroke-miterlimit:10;stroke-width:0.5px"/><ellipse cx="104.2176" cy="140.4292" rx="3.6273" ry="0.4875" style="fill:none;stroke:#687581;stroke-miterlimit:10;stroke-width:0.5px"/><polygon points="125.397 77.305 130.797 79.044 144.513 74.028 138.118 72.332 125.397 77.305" style="fill:none;stroke:#687581;stroke-miterlimit:10;stroke-width:0.5px"/><polygon points="202.07 46.949 207.47 48.688 221.186 43.672 214.791 41.976 202.07 46.949" style="fill:none;stroke:#687581;stroke-miterlimit:10;stroke-width:0.5px"/><ellipse cx="39.4337" cy="104.6674" rx="1.526" ry="7.7534" transform="translate(-69.9452 128.0455) rotate(-81.4205)" style="fill:none;stroke:#687581;stroke-miterlimit:10;stroke-width:0.5px"/><path d="M89.5978,139.9417c0-1.0853,6.5455-1.9651,14.62-1.9651s14.62.88,14.62,1.9651" style="fill:none;stroke:#687581;stroke-miterlimit:10;stroke-width:0.5px"/><path d="M152.4436,146.7205v1.5579c0,.2332-.737.4477-1.9123.597v-.2332c0-.3079-1.8844-.56-4.1979-.56-2.3228,0-4.1978.2519-4.1978.56v.2239c-1.1568-.14-1.875-.3545-1.875-.5877v-1.5579c0-.4571,2.7239-.8209,6.0915-.8209C149.71,145.9,152.4436,146.2634,152.4436,146.7205Z" style="fill:none;stroke:#687581;stroke-miterlimit:10"/><path d="M140.2565,148.2786c0-.4523,2.728-.819,6.0932-.819s6.0932.3667,6.0932.819" style="fill:none;stroke:#687581;stroke-miterlimit:10;stroke-width:0.5px"/><path d="M53.9191,147.5071c0,.9933,5.9911,1.7986,13.3816,1.7986s13.3815-.8053,13.3815-1.7986v-3.431c0-.9933-5.9911-1.7986-13.3815-1.7986s-13.3816.8053-13.3816,1.7986Z" style="fill:none;stroke:#687581;stroke-miterlimit:10"/><ellipse cx="67.3007" cy="147.9534" rx="3.3201" ry="0.4462" style="fill:none;stroke:#687581;stroke-miterlimit:10;stroke-width:0.5px"/><path d="M53.9191,147.5071c0-.9933,5.9911-1.7986,13.3816-1.7986s13.3815.8053,13.3815,1.7986" style="fill:none;stroke:#687581;stroke-miterlimit:10;stroke-width:0.5px"/><path d="M95.4762,148.3912c0,.441,2.66.7985,5.9409.7985s5.9408-.3575,5.9408-.7985V143.192c0-.441-2.66-.7985-5.9408-.7985s-5.9409.3575-5.9409.7985Z" style="fill:none;stroke:#687581;stroke-miterlimit:10"/><path d="M95.4762,148.3912c0-.441,2.66-.7985,5.9409-.7985s5.9408.3575,5.9408.7985" style="fill:none;stroke:#687581;stroke-miterlimit:10;stroke-width:0.5px"/><path d="M63.7665,149.2392v3.9646c0,.3638,2.1736.653,4.8509.653,2.6866,0,4.8508-.2892,4.8508-.653v-4.1045" style="fill:none;stroke:#687581;stroke-miterlimit:10"/><path d="M63.77,153.2069c0-.36,2.172-.6521,4.8514-.6521s4.8515.2919,4.8515.6521" style="fill:none;stroke:#687581;stroke-miterlimit:10;stroke-width:0.5px"/><path d="M75.54,148.9238l49.171,4.4009s7.2829-.8522,10.2441-1.1624,1.5886-2.2518,0-3.7627-3.9669-4.096.8931-4.9232,6.928-1.1989,6.928-1.1989,23.6207-1.8351,34.4782-3.6843" style="fill:none;stroke:#687581;stroke-miterlimit:10"/><line x1="141.7929" y1="142.4515" x2="118.7424" y2="139.5519" style="fill:none;stroke:#687581;stroke-miterlimit:10;stroke-width:0.5px"/><path d="M151.1437,111.7415c2.5639-.65,8.3939-2.06,10.8492-2.6522a4.9954,4.9954,0,0,1,2.2548-.02l2.4936.5514a.3155.3155,0,0,1,.0077.6149c-2.6072.6292-8.3551,2.02-10.7789,2.637a4.9962,4.9962,0,0,1-2.3143.0351l-2.4981-.5524A.3152.3152,0,0,1,151.1437,111.7415Z" style="fill:none;stroke:#687581;stroke-miterlimit:10;stroke-width:0.5px"/><path d="M261.2144,85.8425c-5.3173,1.3339-13.2652,3.3582-15.2708,3.8713a5.6569,5.6569,0,0,1-2.6214.0373l-2.8358-.625a.36.36,0,0,1-.0187-.7c2.5094-.6344,13.2745-3.3676,18.0041-4.5524" style="fill:none;stroke:#687581;stroke-miterlimit:10;stroke-width:0.5px"/><path d="M121.58,153.0444l6.786,9.0476s2.4032,3.97,10.344,4.8063,55.5631,5.7467,55.5631,5.7467" style="fill:none;stroke:#687581;stroke-miterlimit:10;stroke-width:0.5px"/><path d="M128.3657,162.092s3.1345,3.3435,10.8664,2.8211,54.5411-2.8211,54.5411-2.8211" style="fill:none;stroke:#687581;stroke-miterlimit:10;stroke-width:0.5px"/><line x1="103.1956" y1="147.5071" x2="103.1956" y2="142.4515" style="fill:none;stroke:#687581;stroke-miterlimit:10;stroke-width:0.5px"/><line x1="97.6771" y1="147.5927" x2="97.6771" y2="142.6096" style="fill:none;stroke:#687581;stroke-miterlimit:10;stroke-width:0.5px"/><path d="M150.5313,148.8754v3.4422c0,.3079-1.8844.56-4.1979.56-2.3228,0-4.1978-.2518-4.1978-.56v-3.4515" style="fill:none;stroke:#687581;stroke-miterlimit:10"/><path d="M142.1351,152.3168c0-.3116,1.8789-.5641,4.1967-.5641s4.1966.2525,4.1966.5641" style="fill:none;stroke:#687581;stroke-miterlimit:10;stroke-width:0.5px"/><line x1="147.5881" y1="151.6922" x2="147.5881" y2="148.1209" style="fill:none;stroke:#687581;stroke-miterlimit:10;stroke-width:0.5px"/><line x1="143.6898" y1="151.7527" x2="143.6898" y2="148.2326" style="fill:none;stroke:#687581;stroke-miterlimit:10;stroke-width:0.5px"/><line x1="68.6211" y1="152.5548" x2="68.6211" y2="149.1897" style="fill:none;stroke:#687581;stroke-miterlimit:10;stroke-width:0.5px"/><path d="M-8.1363,137.9766c2.2435,5.3031-.6067,15.7113,30.607,21.7946s171.8021,16.9465,171.8021,16.9465" style="fill:none;stroke:#687581;stroke-miterlimit:10"/><path d="M-4.7476,138.0674s-1.9939,9.8224,17.6955,13.9673l6.0734-5.4269s28.9915,12.3864,83.6269,16.9225L97.17,165.9231l13.6424,1.12,4.969-2.0742,72.1959,7.0271" style="fill:none;stroke:#687581;stroke-miterlimit:10;stroke-width:0.5px"/><path d="M281.0173,141.6156l32.9256,13.4159,38.8875,1.2316v2.0324l-3.2519,1.355a2.584,2.584,0,0,1-1.6259,2.4415c-1.7615.81-28.1833,8.5337-28.1833,8.5337h11.7882l33.7386-7.781h20.46" style="fill:none;stroke:#687581;stroke-miterlimit:10;stroke-width:0.5px"/><line x1="265.9772" y1="181.6009" x2="387.382" y2="181.6009" style="fill:none;stroke:#687581;stroke-miterlimit:10"/><line x1="349.5785" y1="159.6505" x2="265.9772" y2="159.6505" style="fill:none;stroke:#687581;stroke-miterlimit:10;stroke-width:0.5px"/><path d="M293.9865,116.8391v12.2477a5.8751,5.8751,0,0,0,4.2695,5.6514l6.6087,1.8775v4.0973a4.1232,4.1232,0,0,0,4.4326,4.1116l42.7732-3.2179" style="fill:none;stroke:#687581;stroke-miterlimit:10;stroke-width:0.5px"/><path d="M-23.7072,95.4969c13.3024.8686,26.2519-3.8208,37.9559-9.7427C73.5249,57.0174,147.86,21.2554,207.4041-7.1833,148.0044,21.7,73.8176,57.515,14.3659,85.9958,2.6345,91.9-10.4049,96.4563-23.7072,95.4969Z" style="fill:#687581"/><line x1="37.6279" y1="162.092" x2="37.6279" y2="213.6877" style="fill:none;stroke:#687581;stroke-miterlimit:10"/><path d="M265.9745,155.0279v84.0782l-72.2028-1.6885v-82.39c0-.97,1.5392-1.875,4.2631-2.6679,6.0822-1.7818,18.06-2.9945,31.8383-2.9945s25.7561,1.2127,31.8383,2.9945C264.4353,153.1529,265.9745,154.0578,265.9745,155.0279Z" style="fill:#404d59"/><path d="M229.8731,149.3655c-13.7783,0-25.7561,1.2127-31.8383,2.9945l-.0187-.0467v-10.7c0-2.7612,14.2634-5,31.857-5s31.857,2.2389,31.857,5v10.7l-.0187.0467C255.6292,150.5782,243.6513,149.3655,229.8731,149.3655Z" style="fill:#404d59"/><path d="M282.654,139.2254v.0093c-.0187,2.696-8.2278,5.0747-20.9239,6.586v-4.2072c0-2.7612-14.2634-5-31.857-5s-31.857,2.2389-31.857,5v4.2072c-12.6961-1.5113-20.8959-3.89-20.9145-6.586v-.0093c.0279-4.571,23.6478-8.2744,52.7715-8.2744C259.0061,130.951,282.626,134.6544,282.654,139.2254Z" style="fill:#404d59"/><path d="M282.654,129.4957v9.73c-.028-4.571-23.6479-8.2744-52.7809-8.2744-29.1237,0-52.7436,3.7034-52.7715,8.2744v-9.73c0-4.571,23.6291-8.2744,52.7808-8.2744C259.0248,121.2213,282.654,124.9247,282.654,129.4957Z" style="fill:#404d59"/><path d="M198.0348,152.36c-2.7239.7929-4.2631,1.6978-4.2631,2.6679v82.39l72.2028,1.6885V155.0279c0-.97-1.5392-1.875-4.2631-2.6679-6.0822-1.7818-18.06-2.9945-31.8383-2.9945S204.117,150.5782,198.0348,152.36Z" style="fill:none;stroke:#aebbc7;stroke-miterlimit:10;stroke-width:1.5px"/><path d="M177.1016,139.2347c.0186,2.696,8.2184,5.0747,20.9145,6.586h.0094" style="fill:none;stroke:#aebbc7;stroke-miterlimit:10;stroke-width:1.5px"/><path d="M282.654,139.2254v-9.73c0-4.571-23.6292-8.2744-52.7716-8.2744-29.1517,0-52.7808,3.7034-52.7808,8.2744v9.73" style="fill:none;stroke:#aebbc7;stroke-miterlimit:10;stroke-width:1.5px"/><path d="M261.73,145.8207c12.6961-1.5113,20.9052-3.89,20.9239-6.586" style="fill:none;stroke:#aebbc7;stroke-miterlimit:10;stroke-width:1.5px"/><path d="M261.73,152.3133v-10.7c0-2.7612-14.2634-5-31.857-5s-31.857,2.2389-31.857,5v10.7" style="fill:none;stroke:#aebbc7;stroke-miterlimit:10;stroke-width:1.5px"/><path d="M177.1016,139.2347v-.0093c.0279-4.571,23.6478-8.2744,52.7715-8.2744,29.133,0,52.7529,3.7034,52.7809,8.2744v.0093" style="fill:none;stroke:#aebbc7;stroke-miterlimit:10"/></g></svg>
