<?xml version="1.0" encoding="UTF-8"?><svg xmlns="http://www.w3.org/2000/svg" width="161.749" height="161.749" viewBox="0 0 161.749 161.749"><g id="uuid-811786c0-419e-41cd-915e-df9b4cf64fe2"><g><g id="uuid-acd6b806-4cd1-48f0-ae54-d31f8f923c7c"><path d="M141.027,45.369c.745-2.366,.884-4.521,.733-6.345m-12.778,28.273l-55.838-6.081m63.319-4.27l-2.581-.273c-.559-.059-1.103,.078-1.552,.362s-.807,.716-.993,1.246l-5.679,16.133c-.266,.757-.312,1.578-.127,2.361,.16,.677,.272,1.368,.333,2.07,.192,2.196-.246,4.75-1.198,7.341-1.279,3.48-3.449,6.928-6.081,9.528-.453,.448-.803,.996-1.014,1.601l-5.121,14.622c-.329,.935-.893,1.774-1.635,2.426-1.932,1.7-6.02,4.749-12.338,6.796-.557,.18-1.035,.546-1.355,1.038-.343,.528-1.144,1.529-2.6,2.188-1.136,.514-2.724,.844-4.901,.525-2.086-.306-7.001-1.052-12.76-1.944-.494-.077-.984,.018-1.4,.247s-.757,.59-.957,1.048c0,0-.734,1.679-.71,1.628-.35,.688-.955,1.353-1.785,1.914-1.107,.748-2.577,1.281-4.242,1.427-2.423,.212-4.551-.456-5.837-1.535-.798-.67-1.245-1.469-1.319-2.313-.041-.469,.033-.937,.204-1.366l.654-1.497c.151-.345,.171-.73,.063-1.083-.031-.101-.072-.199-.123-.292-.116-.212-.277-.392-.47-.528s-.415-.229-.654-.268l-.026-.004c-5.823-.944-10.504-1.741-11.906-2.071-1.884-.443-2.713-.991-3.094-1.51-.322-.438-.445-1.018-.377-1.949,.076-1.046-.341-2.01-.928-2.728-.921-1.126-2.485-3.608-2.952-7.909-.05-.462,.052-.925,.293-1.325l6.819-11.319c.17-.282,.19-.63,.054-.93-.701-1.542-1.139-3.162-1.286-4.847-.286-3.266,.546-6.498,2.335-9.553,2.926-4.997,8.406-9.499,15.607-12.75,.185-.084,.34-.221,.445-.395l6.357-10.552c.149-.248,.231-.526,.243-.806s-.046-.564-.174-.824-.318-.478-.548-.64-.499-.266-.787-.299m-21.702,43.882c.374-2.889,1.603-5.722,3.579-8.389,3.116-4.205,8.066-7.959,14.297-10.771,.185-.084,.34-.221,.445-.395l6.921-11.488c.121-.2,.167-.436,.132-.667l-1.544-10.126c-.083-.542-.342-1.023-.717-1.384s-.865-.601-1.41-.663l-1.744-.197m51.745,27.218c.357,4.159-1.195,8.264-4.29,11.945-5.63,6.698-16.268,11.85-28.944,12.959s-24.058-2.117-30.767-7.736c-3.687-3.088-5.927-6.86-6.298-11.017m9.125,1.389c-1.162-1.508-1.879-3.15-2.095-4.888m41.048,10.503c-3.535,1.306-7.538,2.215-11.82,2.59-6.55,.573-12.667-.201-17.602-1.941-3.368-1.188-6.154-2.814-8.158-4.739m50.551-5.231c-1.325,2.116-3.379,4.119-6.032,5.869m7.743-12.074c.107,1.599-.212,3.19-.919,4.74m-23.948,8.039c-1.657,1.041-3.869,1.79-6.365,2.009-3.397,.297-6.419-.466-8.332-1.784-1.084-.747-1.766-1.636-2.031-2.569m15.662-19.239l8.288,.756m-3.812-4.288l-2.497,5.247m16.2,11.028l-41.926-3.824,1.09-2.225m2.392-2.06l42.002,3.831-1.178,2.408m-61.176,14.514l1.645,10.789c.006,.039-.002,.079-.022,.112l-5.871,9.745m19.499,16.216c.049-.158,.029-.116,.414-.995,.085-.194,.189-.432,.318-.726,.151-.345,.171-.73,.086-.994l-.783-3.789m-.425,3.335c1.257,.123,2.322-.07,3.194-.412,1.184-.464,1.975-1.186,2.418-1.685,.013-.015,.029-.025,.047-.032s.038-.009,.058-.006c3.075,.476,5.425,.836,7.389,1.134,.023,.004,.045,.014,.062,.03s.029,.036,.034,.059c.066,.288,.18,.615,.371,.95m-9.37,4.307c-.328-.236-.577-.512-.743-.804-.14-.246-.224-.509-.248-.786-.066-.749,.151-1.554,.669-2.191,.248-.305,.569-.578,.974-.793,.438-.233,.988-.404,1.668-.464,1.271-.111,2.178,.24,2.783,.748,.643,.54,1.008,1.309,1.075,2.073,.042,.476-.099,.959-.422,1.407M146.821,63.224l-12.094,40.924c-3.405,11.527-12.098,20.709-23.126,27.074-15.726,9.076-36.002,12.302-51.81,8.489-10.033-2.42-17.693-7.276-22.962-13.335-5.01-5.762-7.873-12.629-8.552-19.575M93.218,44.633c1.59,1.011,4.069,1.703,6.797,2.158,6.184,1.033,14.405,.963,18.795-.09m4.939,6.905c-.05-.164-.052-.316-.02-.459,.038-.17,.13-.352,.29-.529,.302-.334,.813-.606,1.429-.66,.654-.057,1.212,.141,1.558,.431,.257,.215,.383,.465,.405,.711,.021,.24-.055,.499-.257,.749m-44.614-4.867c-.037-.121-.038-.23-.015-.333,.028-.123,.096-.262,.222-.402,.239-.265,.652-.488,1.158-.532,.465-.041,.869,.076,1.146,.26,.219,.145,.34,.316,.391,.471m48.645,7.718l-63.529-6.737m22.409-3.671l.443,5.06m43.713,.451c-.845-1.06-2.255-2.585-4.343-4.118-1.853-1.36-4.239-2.725-7.232-3.774-.797-.279-1.655-.313-2.473-.092-1.057,.286-2.942,.775-5.098,1.244-1.162-.3-6.39-1.59-11.844-2.016-5.27-.411-10.185,.12-11.543,.289-.472-.298-1.433-.917-2.383-1.59-.348-.247-.69-.498-1.004-.741-.627-.486-1.373-.779-2.148-.857h-.006c-.189-.02-.381-.026-.573-.018-.151,.006-.302,.02-.45,.042-.026,.004-.052,.008-.079,.012h-.005c-.706,.12-1.633,.29-2.726,.523,1.579-1.408,3.66-2.76,6.243-3.94,6.539-2.988,16.182-4.821,28.627-3.733,6.068,.531,11.312,1.989,14.785,4.175,1.977,1.244,3.316,2.683,3.962,4.256,.481,1.171,.601,2.467,.281,3.845l-1.993,6.492ZM43.776,143.147c6.803,4.482,15.417,7.556,25.781,8.454,16.23,1.407,34.55-3.152,48.403-12.6,9.485-6.469,16.927-15.266,20.118-26.066l12.459-42.158,.016-.055,.014-.05,4.905-16.999c1.982-6.712,2.167-12.544,.899-17.531-1.108-4.36-3.316-8.029-6.327-11.042-6.436-6.44-16.498-9.847-27.342-10.796-15.524-1.358-28.528,.736-38.426,5.513-6.774,3.269-12.093,7.795-15.748,13.321l-11.821,17.868-.03,.045-25.571,38.668c-3.678,5.561-5.649,11.887-5.946,18.321-.313,6.774,1.23,13.668,4.583,19.921,3.123,5.824,7.815,11.089,14.033,15.186Z" style="fill:none; stroke:#aebbc7; stroke-linecap:round; stroke-linejoin:round; stroke-width:.5px;"/><path d="M140.788,45.294c.734-2.332,.871-4.455,.723-6.25m-12.556,28.501l-55.838-6.081m63.32-4.27l-2.581-.273c-.502-.053-.989,.07-1.392,.325s-.724,.642-.891,1.118l-5.679,16.133c-.251,.712-.294,1.484-.12,2.221,.163,.689,.276,1.391,.339,2.105,.196,2.242-.252,4.834-1.213,7.449-1.291,3.512-3.48,6.993-6.14,9.62-.426,.421-.755,.937-.954,1.505l-5.121,14.622c-.343,.975-.931,1.85-1.706,2.531-1.952,1.717-6.068,4.786-12.426,6.846-.502,.163-.934,.493-1.222,.937-.36,.555-1.194,1.596-2.706,2.279-1.182,.535-2.819,.87-5.04,.544-2.087-.306-7.003-1.052-12.762-1.944-.438-.068-.873,.016-1.241,.219s-.671,.523-.849,.929c0,0-.734,1.679-.716,1.641-.373,.733-1.01,1.428-1.869,2.008-1.145,.773-2.656,1.319-4.36,1.469-2.475,.217-4.674-.463-6.019-1.592-.839-.704-1.326-1.56-1.407-2.483-.045-.511,.037-1.018,.224-1.488l.654-1.497c.127-.29,.143-.613,.053-.91-.026-.085-.06-.167-.103-.246-.097-.178-.233-.329-.395-.444s-.349-.192-.55-.225l-.026-.004c-5.818-.943-10.511-1.742-11.924-2.074-1.903-.447-2.804-1.014-3.239-1.605-.373-.508-.494-1.159-.425-2.116,.07-.968-.315-1.87-.872-2.552-.948-1.16-2.534-3.687-3.007-8.04-.056-.517,.058-1.034,.327-1.481l6.819-11.319c.127-.212,.143-.472,.04-.697-.712-1.567-1.158-3.215-1.308-4.929-.291-3.325,.557-6.608,2.368-9.701,2.96-5.055,8.488-9.587,15.72-12.851,.139-.063,.255-.166,.334-.297l6.357-10.552c.128-.212,.197-.449,.207-.688s-.039-.481-.148-.703-.271-.408-.467-.546-.426-.227-.672-.255m-21.922,43.602c.38-2.938,1.629-5.811,3.626-8.505,3.148-4.248,8.136-8.025,14.395-10.85,.139-.063,.255-.166,.334-.297l6.921-11.488c.09-.15,.125-.327,.099-.5l-1.544-10.126c-.074-.486-.307-.918-.643-1.241s-.776-.539-1.265-.594l-1.744-.197m52.022,26.948c.363,4.239-1.221,8.407-4.348,12.127-5.684,6.762-16.391,11.934-29.114,13.047s-24.177-2.121-30.949-7.794c-3.725-3.12-6.009-6.949-6.387-11.187m9.176,1.519c-1.186-1.539-1.923-3.222-2.145-5.01m41.383,10.706c-3.556,1.314-7.581,2.228-11.885,2.604-6.581,.576-12.735-.201-17.707-1.954-3.393-1.196-6.212-2.839-8.248-4.795m50.936-5.279c-1.348,2.153-3.431,4.18-6.106,5.945m7.855-12.299c.11,1.644-.218,3.277-.941,4.86m-24.042,8.147c-1.695,1.064-3.945,1.824-6.476,2.046-3.441,.301-6.524-.469-8.496-1.827-1.119-.771-1.845-1.704-2.13-2.706m15.925-19.556l8.288,.756m-3.609-3.932l-2.497,5.247m15.951,11.17l-42.287-3.857,1.25-2.551m2.639-2.199l42.363,3.864-1.338,2.734m-61.154,14.367l1.645,10.789c.015,.097-.005,.195-.055,.279l-5.871,9.745m19.046,16.013c.054-.175,.041-.148,.424-1.022,.085-.194,.189-.432,.318-.725,.127-.29,.143-.613,.07-.843l-.783-3.789m-.155,3.036c1.217,.119,2.242-.068,3.079-.396,1.137-.446,1.897-1.139,2.322-1.618,.041-.046,.093-.081,.15-.101s.119-.027,.181-.017c3.075,.476,5.425,.836,7.388,1.134,.074,.011,.141,.045,.194,.094s.091,.113,.108,.186c.061,.267,.167,.571,.344,.882m-9.734,4.633c-.353-.255-.628-.557-.814-.884-.157-.276-.253-.573-.28-.888-.071-.81,.162-1.68,.724-2.371,.269-.331,.616-.625,1.051-.856,.47-.25,1.053-.43,1.763-.492,1.331-.116,2.305,.251,2.966,.805,.697,.585,1.091,1.417,1.163,2.243,.048,.543-.115,1.084-.468,1.575M147.06,63.295l-12.094,40.924c-3.428,11.605-12.175,20.833-23.241,27.22-15.776,9.104-36.117,12.345-51.994,8.515-10.08-2.431-17.787-7.313-23.092-13.414-5.044-5.801-7.928-12.716-8.612-19.715M93.352,44.422c1.545,.982,3.983,1.668,6.704,2.122,6.162,1.029,14.347,.956,18.695-.086m4.758,7.221c-.062-.206-.066-.401-.025-.586,.049-.217,.164-.438,.349-.642,.348-.385,.918-.683,1.592-.742,.714-.062,1.339,.152,1.741,.489,.3,.252,.465,.559,.493,.881,.027,.313-.075,.634-.311,.927m-45.047-4.952c-.049-.163-.052-.316-.019-.46,.038-.17,.129-.347,.281-.515,.285-.315,.758-.564,1.322-.613,.517-.045,.978,.084,1.306,.3,.258,.171,.42,.385,.491,.602m48.381,8.044l-63.529-6.737m22.685-3.942l.443,5.06m43.561,1.007c-.78-1.038-2.256-2.739-4.588-4.451-1.835-1.347-4.199-2.699-7.167-3.74-.75-.263-1.556-.294-2.325-.086-1.069,.289-2.982,.786-5.168,1.26-1.027-.267-6.326-1.592-11.858-2.023-5.373-.419-10.374,.145-11.581,.298-.44-.277-1.461-.93-2.47-1.645-.35-.248-.696-.501-1.013-.747-.589-.457-1.291-.732-2.02-.805h-.006c-.178-.018-.358-.024-.538-.017-.142,.005-.284,.019-.423,.04l-.074,.012h-.005c-.886,.15-2.122,.38-3.599,.715,1.667-1.654,3.993-3.245,6.971-4.606,6.586-3.009,16.275-4.846,28.753-3.754,6.089,.533,11.377,1.997,14.896,4.212,2.005,1.262,3.388,2.736,4.06,4.372,.502,1.221,.624,2.571,.289,4.013l-2.135,6.953ZM43.913,142.938c6.765,4.457,15.339,7.519,25.665,8.414,16.174,1.402,34.436-3.143,48.241-12.557,9.449-6.444,16.848-15.198,20.019-25.931l12.459-42.158,.016-.054,.014-.05,4.905-17c1.972-6.678,2.152-12.463,.897-17.399-1.097-4.314-3.28-7.944-6.261-10.927-6.378-6.382-16.373-9.777-27.187-10.723-15.491-1.355-28.448,.737-38.296,5.489-6.738,3.252-12.021,7.75-15.648,13.233l-11.823,17.871-.028,.042-25.571,38.668c-3.653,5.522-5.61,11.804-5.905,18.195-.31,6.729,1.221,13.578,4.553,19.792,3.103,5.787,7.766,11.021,13.951,15.095Z" style="fill:none; stroke:#aebbc7; stroke-linecap:round; stroke-linejoin:round; stroke-width:.5px;"/><path d="M140.55,45.219c.724-2.299,.857-4.388,.712-6.154m-12.334,28.729l-55.838-6.081m63.32-4.27l-2.581-.273c-.444-.047-.875,.062-1.232,.287s-.64,.568-.789,.99l-5.679,16.133c-.235,.667-.275,1.39-.112,2.08,.165,.701,.281,1.415,.345,2.141,.2,2.289-.257,4.919-1.227,7.557-1.303,3.545-3.512,7.057-6.199,9.712-.4,.395-.708,.878-.894,1.41l-5.121,14.623c-.357,1.015-.97,1.926-1.776,2.636-1.971,1.734-6.117,4.824-12.514,6.896-.448,.145-.833,.44-1.09,.835-.377,.581-1.245,1.662-2.813,2.371-1.228,.555-2.914,.896-5.179,.564-2.088-.306-7.005-1.052-12.764-1.945-.382-.059-.761,.014-1.082,.191s-.585,.456-.74,.81c0,0-.734,1.68-.722,1.653-.396,.778-1.064,1.504-1.952,2.103-1.183,.799-2.736,1.358-4.478,1.51-2.528,.221-4.796-.47-6.202-1.65-.879-.737-1.408-1.651-1.495-2.653-.048-.553,.04-1.099,.244-1.609l.654-1.497c.103-.235,.116-.497,.043-.737-.021-.068-.049-.135-.084-.199-.079-.144-.189-.267-.32-.359s-.283-.156-.445-.182l-.026-.004c-5.813-.942-10.517-1.743-11.941-2.077-1.921-.452-2.895-1.036-3.383-1.701-.424-.577-.544-1.3-.473-2.282,.064-.89-.29-1.731-.817-2.375-.976-1.194-2.584-3.765-3.062-8.172-.062-.572,.065-1.143,.362-1.637l6.819-11.319c.085-.141,.095-.315,.027-.465-.723-1.592-1.177-3.267-1.329-5.011-.296-3.384,.568-6.718,2.401-9.849,2.994-5.113,8.57-9.674,15.833-12.953,.093-.042,.17-.111,.223-.198l6.357-10.552c.106-.175,.163-.371,.171-.569s-.032-.398-.123-.582-.225-.338-.387-.452-.353-.188-.556-.211m-22.142,43.321c.387-2.987,1.655-5.9,3.673-8.622,3.179-4.29,8.206-8.092,14.493-10.93,.093-.042,.17-.111,.223-.198l6.921-11.488c.06-.1,.084-.218,.066-.333l-1.544-10.126c-.066-.43-.272-.812-.569-1.099s-.687-.477-1.12-.526l-1.744-.197m52.299,26.678c.37,4.32-1.246,8.551-4.406,12.309-5.738,6.826-16.513,12.018-29.284,13.135-12.778,1.118-24.295-2.125-31.131-7.851-3.763-3.152-6.09-7.038-6.475-11.356m9.227,1.65c-1.21-1.57-1.966-3.294-2.195-5.132m41.718,10.91c-3.578,1.322-7.625,2.241-11.949,2.619-6.613,.579-12.802-.201-17.812-1.968-3.418-1.205-6.271-2.864-8.338-4.85m51.321-5.326c-1.372,2.191-3.483,4.242-6.18,6.021m7.967-12.525c.113,1.69-.225,3.364-.963,4.981m-24.137,8.255c-1.732,1.088-4.022,1.859-6.588,2.083-3.485,.305-6.63-.472-8.66-1.87-1.153-.794-1.924-1.772-2.229-2.844m16.189-19.873l8.288,.756m-3.406-3.576l-2.497,5.247m15.703,11.311l-42.649-3.89,1.41-2.877m2.886-2.338l42.725,3.897-1.497,3.06m-61.131,14.219l1.645,10.789c.024,.154-.008,.312-.088,.446l-5.871,9.745m18.593,15.81c.059-.191,.053-.179,.434-1.048,.085-.194,.189-.432,.317-.725,.103-.235,.116-.497,.054-.692l-.783-3.789m.114,2.736c1.176,.115,2.162-.066,2.963-.38,1.09-.427,1.82-1.092,2.227-1.551,.069-.078,.156-.136,.252-.171s.2-.045,.304-.029c3.075,.476,5.424,.835,7.387,1.134,.125,.019,.238,.075,.327,.158s.153,.191,.182,.314c.057,.247,.154,.527,.318,.814m-10.097,4.96c-.379-.274-.679-.601-.885-.963-.173-.305-.281-.638-.312-.989-.076-.871,.174-1.806,.779-2.55,.29-.357,.663-.673,1.128-.919,.502-.267,1.118-.455,1.858-.52,1.391-.122,2.432,.262,3.148,.863,.751,.63,1.174,1.524,1.252,2.412,.053,.61-.131,1.21-.514,1.743M147.3,63.365l-12.094,40.924c-3.452,11.684-12.252,20.957-23.356,27.365-15.826,9.133-36.232,12.388-52.177,8.542-10.127-2.443-17.881-7.35-23.222-13.493-5.078-5.839-7.983-12.804-8.672-19.854M93.486,44.211c1.501,.954,3.896,1.634,6.611,2.087,6.139,1.025,14.289,.95,18.596-.083m4.577,7.537c-.075-.248-.08-.487-.029-.713,.059-.264,.197-.523,.407-.755,.394-.435,1.024-.759,1.756-.823,.774-.068,1.467,.163,1.923,.546,.343,.288,.547,.654,.581,1.051,.034,.386-.095,.77-.366,1.106m-45.481-5.036c-.062-.205-.066-.402-.024-.587,.049-.218,.163-.433,.339-.628,.331-.366,.864-.64,1.485-.695,.57-.05,1.088,.091,1.465,.341,.298,.197,.5,.455,.591,.733m48.117,8.37l-63.529-6.737m22.96-4.212l.443,5.06m43.391,1.626c-.069-.141-.152-.277-.248-.406-.76-1.017-2.227-2.722-4.567-4.44-1.817-1.333-4.159-2.674-7.102-3.705-.703-.246-1.458-.275-2.178-.081-1.081,.292-3.023,.796-5.239,1.275-.858-.225-6.245-1.592-11.872-2.031-5.498-.429-10.602,.176-11.619,.309-.391-.245-1.481-.938-2.557-1.7-.352-.249-.701-.505-1.021-.754-.552-.428-1.209-.686-1.891-.754h-.006c-.167-.017-.335-.023-.503-.016-.132,.005-.265,.018-.396,.037l-.07,.011h-.004c-1.04,.176-2.566,.464-4.401,.902,1.718-1.899,4.268-3.732,7.627-5.267,6.633-3.031,16.367-4.87,28.879-3.776,6.11,.535,11.442,2.005,15.008,4.25,2.033,1.28,3.46,2.79,4.159,4.489,.522,1.271,.648,2.674,.297,4.181l-2.295,7.476ZM44.051,142.729c6.728,4.432,15.261,7.482,25.549,8.374,16.118,1.397,34.323-3.134,48.078-12.515,9.414-6.42,16.769-15.13,19.92-25.795l12.459-42.158,.015-.052,.014-.05,4.906-17.002c1.962-6.644,2.136-12.383,.894-17.266-1.085-4.267-3.244-7.858-6.196-10.811-6.319-6.323-16.247-9.707-27.032-10.651-15.459-1.353-28.368,.737-38.165,5.465-6.703,3.234-11.949,7.704-15.548,13.146l-11.825,17.873-.026,.039-25.571,38.668c-3.627,5.483-5.57,11.721-5.863,18.068-.308,6.683,1.213,13.487,4.524,19.662,3.084,5.75,7.718,10.953,13.868,15.005Z" style="fill:none; stroke:#aebbc7; stroke-linecap:round; stroke-linejoin:round; stroke-width:.5px;"/><path d="M140.311,45.144c.713-2.265,.844-4.322,.701-6.058m-12.112,28.957l-55.838-6.081m63.321-4.27l-2.581-.273c-.386-.041-.762,.054-1.073,.25s-.557,.495-.686,.861l-5.679,16.133c-.219,.623-.257,1.297-.105,1.94,.168,.712,.286,1.438,.35,2.177,.204,2.335-.263,5.003-1.241,7.665-1.315,3.578-3.543,7.122-6.258,9.803-.373,.368-.66,.819-.834,1.315l-5.121,14.623c-.371,1.055-1.008,2.002-1.847,2.741-1.991,1.751-6.166,4.861-12.602,6.946-.393,.127-.732,.386-.957,.733-.395,.608-1.295,1.728-2.92,2.463-1.275,.576-3.009,.922-5.318,.583-2.089-.306-7.007-1.053-12.766-1.945-.326-.051-.649,.012-.924,.163s-.499,.389-.631,.691c0,0-.734,1.68-.728,1.667-.419,.823-1.119,1.579-2.035,2.197-1.221,.824-2.815,1.396-4.596,1.552-2.58,.226-4.918-.477-6.384-1.707-.919-.771-1.489-1.742-1.584-2.822-.052-.595,.044-1.18,.264-1.731l.654-1.497c.079-.18,.089-.38,.033-.564-.016-.052-.037-.103-.064-.152-.06-.111-.144-.204-.245-.275s-.216-.119-.341-.139l-.026-.004c-5.808-.941-10.523-1.743-11.958-2.081-1.939-.456-2.985-1.059-3.527-1.796-.476-.647-.594-1.441-.521-2.448,.059-.812-.264-1.592-.761-2.199-1.004-1.227-2.633-3.844-3.117-8.303-.068-.626,.071-1.253,.396-1.793l6.819-11.319c.042-.071,.048-.157,.013-.232-.735-1.616-1.195-3.319-1.351-5.092-.301-3.443,.579-6.828,2.435-9.997,3.028-5.171,8.651-9.762,15.946-13.054,.046-.021,.085-.055,.111-.099l6.357-10.552c.084-.139,.129-.294,.136-.451s-.026-.315-.097-.461-.178-.267-.306-.358-.279-.149-.44-.167m-22.362,43.041c.393-3.037,1.682-5.988,3.72-8.739,3.211-4.333,8.276-8.158,14.591-11.009,.046-.021,.085-.055,.111-.099l6.921-11.488c.03-.05,.042-.109,.033-.167l-1.544-10.126c-.057-.375-.236-.707-.495-.956s-.598-.415-.975-.458l-1.744-.197m52.576,26.408c.377,4.4-1.272,8.695-4.463,12.492-5.791,6.889-16.636,12.102-29.453,13.224s-24.414-2.129-31.314-7.908c-3.802-3.185-6.171-7.127-6.564-11.526m9.278,1.78c-1.233-1.6-2.01-3.366-2.245-5.253m42.053,11.114c-3.6,1.33-7.669,2.253-12.014,2.633-6.644,.581-12.87-.201-17.917-1.981-3.443-1.214-6.329-2.89-8.428-4.906m51.706-5.374c-1.395,2.228-3.535,4.303-6.254,6.097m8.078-12.75c.117,1.736-.231,3.45-.985,5.101m-24.231,8.363c-1.769,1.111-4.098,1.893-6.699,2.121-3.529,.309-6.735-.475-8.823-1.913-1.188-.818-2.003-1.839-2.327-2.981m16.452-20.191l8.288,.756m-3.203-3.219l-2.497,5.247m15.454,11.453l-43.01-3.923,1.57-3.203m3.133-2.477l43.086,3.93-1.656,3.385m-61.109,14.072l1.645,10.789c.032,.212-.011,.429-.121,.613l-5.871,9.745m18.14,15.607c.064-.208,.065-.21,.444-1.074,.085-.194,.189-.432,.317-.725,.079-.18,.089-.38,.038-.542l-.783-3.789m.383,2.437c1.136,.111,2.082-.064,2.847-.364,1.043-.409,1.742-1.046,2.131-1.484,.098-.11,.22-.192,.354-.24s.281-.064,.427-.041c3.075,.476,5.424,.835,7.387,1.134,.176,.027,.334,.106,.459,.222s.215,.268,.255,.441c.052,.226,.141,.483,.292,.747m-10.461,5.286c-.405-.292-.731-.646-.956-1.042-.19-.335-.309-.702-.343-1.091-.082-.932,.186-1.932,.834-2.73,.311-.383,.711-.72,1.204-.982,.535-.284,1.183-.481,1.954-.548,1.451-.127,2.56,.273,3.331,.92,.805,.675,1.257,1.632,1.34,2.582,.059,.677-.147,1.336-.56,1.91M147.54,63.436l-12.094,40.924c-3.475,11.762-12.329,21.081-23.471,27.511-15.876,9.162-36.347,12.431-52.361,8.568-10.174-2.454-17.975-7.387-23.353-13.572-5.112-5.878-8.039-12.892-8.733-19.994M93.62,44c1.456,.926,3.81,1.599,6.519,2.051,6.116,1.021,14.231,.943,18.496-.079m4.396,7.852c-.088-.29-.094-.573-.034-.84,.07-.312,.231-.608,.466-.868,.439-.486,1.13-.835,1.92-.904,.834-.073,1.594,.174,2.106,.604,.386,.324,.628,.748,.67,1.22,.04,.459-.114,.906-.42,1.285m-45.915-5.12c-.075-.246-.08-.487-.029-.714,.059-.265,.196-.518,.398-.741,.376-.416,.969-.717,1.649-.776,.623-.054,1.197,.099,1.625,.381,.338,.223,.58,.524,.691,.864m47.853,8.696l-63.529-6.737m23.236-4.482l.443,5.06m43.138,2.51c-.047-.401-.197-.788-.445-1.119-.748-1.001-2.198-2.687-4.514-4.388-1.798-1.32-4.118-2.648-7.037-3.671-.655-.23-1.359-.257-2.03-.075-1.093,.295-3.064,.807-5.31,1.291-.626-.165-6.13-1.59-11.886-2.039-5.664-.442-10.908,.219-11.655,.319-.305-.191-1.484-.933-2.645-1.756-.354-.251-.706-.509-1.03-.76-.514-.399-1.126-.639-1.763-.703h-.007c-.155-.016-.312-.021-.469-.015-.123,.005-.247,.016-.369,.035l-.065,.01h-.004c-1.175,.199-2.974,.541-5.138,1.083,1.737-2.143,4.491-4.218,8.219-5.922,6.68-3.052,16.459-4.895,29.004-3.797,6.13,.536,11.506,2.014,15.119,4.287,2.061,1.297,3.533,2.843,4.257,4.605,.543,1.322,.671,2.778,.305,4.35l-2.538,8.266ZM44.188,142.521c6.69,4.407,15.182,7.445,25.433,8.333,16.063,1.393,34.209-3.124,47.916-12.472,9.378-6.396,16.691-15.062,19.821-25.659l12.459-42.158,.015-.051,.014-.05,4.906-17.003h0c1.953-6.611,2.12-12.303,.892-17.134-1.073-4.221-3.209-7.773-6.13-10.696-6.261-6.265-16.122-9.638-26.877-10.579-15.427-1.35-28.288,.738-38.035,5.441-6.667,3.217-11.877,7.659-15.448,13.059l-11.827,17.876h0l-.024,.036-25.571,38.668c-3.601,5.444-5.531,11.638-5.822,17.942-.306,6.638,1.205,13.397,4.495,19.532,3.064,5.714,7.669,10.885,13.785,14.914Z" style="fill:none; stroke:#aebbc7; stroke-linecap:round; stroke-linejoin:round; stroke-width:.5px;"/></g><g><path d="M122.614,15.301c21.449,1.877,39.177,13.444,31.898,38.089l-4.935,17.104-16.766-1.773,7.261-23.651c1.783-7.63-7.596-12.488-19.898-13.565-21.72-1.9-35.224,4.984-38.762,11.807l-6.223,11.321-18.395-1.949,12.566-18.993c8.726-13.194,27.33-20.657,53.253-18.389Z" style="fill:#141b21; stroke:#aebbc7; stroke-linecap:round; stroke-linejoin:round; stroke-width:.5px;"/><path d="M140.073,45.069c.702-2.231,.831-4.255,.691-5.963" style="fill:none; stroke:#aebbc7; stroke-linecap:round; stroke-linejoin:round; stroke-width:.5px;"/><path d="M64.114,50.267l4.39,.466,2.29-4.007c.33-.577,.829-1.031,1.433-1.307,6.501-2.968,13.036-4.301,15.883-4.781,.877-.148,1.778,.078,2.481,.624,1.576,1.222,3.773,2.579,3.773,2.579,0,0,5.601-.805,11.691-.33s11.899,2.047,11.899,2.047c2.275-.489,4.276-1.008,5.381-1.307,.622-.168,1.274-.143,1.882,.07,6.621,2.321,10.126,6.222,11.433,7.972,.393,.527,.513,1.212,.32,1.841l-1.152,3.752,7.031,.743c3.891,.412,6.355,1.258,6.718,5.41l.306,3.498c.087,.996-.014,2-.297,2.959l-12.459,42.158c-7.657,25.921-40.519,40.29-67.475,37.953-39.1-3.389-52.384-38.142-37.703-60.335l25.571-38.668c1.399-2.114,4.767-1.531,6.603-1.336Z" style="fill:#141b21; stroke:#aebbc7; stroke-linecap:round; stroke-linejoin:round; stroke-width:.5px;"/><path d="M60.779,121.601c-.069-.282-.301-.496-.588-.543-5.762-.932-10.45-1.751-11.893-2.089-3.692-.871-4.397-2.31-4.237-4.507,.053-.732-.253-1.447-.701-2.031-.09-.117-.192-.245-.306-.382l5.697-9.463c.146-.243,.201-.507,.16-.776l-1.245-8.122v-.011c1.043-7.947,8.09-15.249,18.458-19.931l7.076-11.772-1.534-10.121c-.097-.64-.612-1.136-1.254-1.209l-1.746-.2,2.13-3.722c.331-.578,.833-1.023,1.433-1.296,6.505-2.968,13.039-4.301,15.884-4.789,.873-.15,1.779,.085,2.476,.625,1.585,1.226,3.773,2.58,3.773,2.58,0,0,5.602-.808,11.693-.329,6.09,.479,11.901,2.051,11.901,2.051,2.276-.495,4.277-1.011,5.388-1.313,.622-.169,1.268-.135,1.871,.075,6.638,2.318,10.001,6.197,11.395,7.962,.42,.533,.559,1.239,.359,1.89l-1.036,3.365-2.042-.208c-.667-.068-1.28,.317-1.498,.938l-5.789,16.48c-.202,.574-.229,1.201-.093,1.793,.166,.725,.287,1.464,.352,2.209,.489,5.585-2.835,13.084-7.561,17.67-.347,.336-.632,.769-.791,1.229l-4.941,14.331c-.382,1.107-1.047,2.08-1.922,2.851-2.006,1.767-6.211,4.898-12.69,6.999-.342,.111-.626,.331-.82,.629-.742,1.134-3.135,3.935-8.49,3.153-2.089-.307-7.296-1.091-13.074-1.988-.413-.064-.829,.105-1.079,.44l-.013,.017-.012-.01c-.135-.238-.212-.47-.263-.671-.096-.446-.466-.795-.917-.863-1.958-.295-4.042-.617-7.118-1.087-.369-.056-.752,.08-1.003,.361-.663,.74-2.186,2.106-4.913,1.742l-.478-1.958Z" style="fill:#404d59; stroke:#aebbc7; stroke-linecap:round; stroke-linejoin:round;"/><line x1="128.874" y1="68.291" x2="73.036" y2="62.21" style="fill:none; stroke:#aebbc7; stroke-linecap:round; stroke-linejoin:round; stroke-width:.5px;"/><path d="M136.358,57.94l-2.581-.273c-.658-.07-1.277,.322-1.497,.946l-5.679,16.133c-.203,.578-.238,1.203-.097,1.8,.171,.724,.29,1.462,.356,2.212,.489,5.584-2.791,12.945-7.573,17.668-.346,.342-.612,.76-.773,1.22l-5.121,14.624c-.385,1.095-1.046,2.078-1.918,2.845-2.01,1.769-6.214,4.898-12.69,6.996-.339,.11-.63,.333-.824,.632-.735,1.133-3.134,3.941-8.484,3.157-2.09-.306-7.009-1.053-12.768-1.945-.54-.084-1.069,.206-1.288,.707l-.734,1.68c-1.03,2.025-3.648,3.606-6.832,3.885-4.288,.375-7.976-1.755-8.239-4.757-.056-.636,.047-1.261,.284-1.853l.654-1.497c.054-.125,.062-.263,.023-.391-.011-.036-.026-.072-.044-.106-.084-.153-.233-.259-.406-.287h0l-.026-.004c-5.803-.941-10.53-1.744-11.975-2.084-3.69-.868-4.399-2.306-4.24-4.505,.053-.734-.239-1.453-.705-2.023-1.031-1.261-2.682-3.922-3.172-8.434-.074-.681,.077-1.362,.431-1.949l6.819-11.319c-.746-1.641-1.214-3.371-1.372-5.174-.806-9.211,6.707-17.966,18.527-23.301l6.357-10.552c.123-.205,.134-.458,.028-.672s-.313-.36-.55-.387" style="fill:none; stroke:#aebbc7; stroke-linecap:round; stroke-linejoin:round; stroke-width:.5px;"/><path d="M47.667,93.69c1.028-7.946,8.084-15.261,18.456-19.943l6.921-11.488-1.544-10.126c-.097-.638-.61-1.131-1.251-1.203l-1.744-.197" style="fill:none; stroke:#aebbc7; stroke-linecap:round; stroke-linejoin:round; stroke-width:.5px;"/><g><path d="M121.783,81.733l.177,2.02c1.103,12.603-14.185,24.24-34.144,25.986-19.969,1.747-37.046-7.058-38.148-19.661l-.177-2.02,.088-.008c.245-11.991,15.08-22.736,34.204-24.409,19.113-1.672,35.589,6.334,37.912,18.1l.088-.008Z" style="fill:#404d59; stroke:#aebbc7; stroke-linecap:round; stroke-linejoin:round; stroke-width:.5px;"/><ellipse cx="85.486" cy="83.167" rx="37.087" ry="24.418" transform="translate(-6.923 7.767) rotate(-5)" style="fill:#f4ae3d; stroke:#aebbc7; stroke-linecap:round; stroke-linejoin:round;"/><path d="M121.181,74.851l.177,2.02c1.103,12.603-14.185,24.24-34.144,25.986-19.969,1.747-37.046-7.058-38.148-19.661l-.177-2.02,.088-.008c.245-11.991,15.08-22.736,34.204-24.409,19.113-1.672,35.589,6.334,37.912,18.1l.088-.008Z" style="fill:#404d59; stroke:#aebbc7; stroke-linecap:round; stroke-linejoin:round; stroke-width:.5px;"/><path d="M121.357,76.871c1.103,12.603-14.185,24.24-34.144,25.986-19.969,1.747-37.046-7.058-38.148-19.661" style="fill:none; stroke:#aebbc7; stroke-linecap:round; stroke-linejoin:round; stroke-width:.75px;"/><ellipse cx="85.035" cy="78.009" rx="36.28" ry="22.915" transform="translate(-6.475 7.708) rotate(-5)" style="fill:#404d59; stroke:#aebbc7; stroke-linecap:round; stroke-linejoin:round; stroke-width:.5px;"/><ellipse cx="84.994" cy="77.542" rx="30.785" ry="18.971" transform="translate(-6.435 7.703) rotate(-5)" style="fill:#404d59; stroke:#aebbc7; stroke-linecap:round; stroke-linejoin:round; stroke-width:.5px;"/><g><path d="M113.862,74.902l.569,6.499c-3.615,7.672-14.487,13.876-27.778,15.039-13.302,1.164-25.086-3.058-29.967-9.987l-.569-6.499c-.814-9.308,11.444-17.987,27.398-19.383,15.943-1.395,29.533,5.022,30.347,14.33Z" style="fill:#141b21; stroke:#aebbc7; stroke-linecap:round; stroke-linejoin:round; stroke-width:.5px;"/><path d="M58.395,85.107c-1.257-1.631-2.054-3.438-2.295-5.375" style="fill:none; stroke:#aebbc7; stroke-linecap:round; stroke-linejoin:round; stroke-width:.5px;"/><path d="M98.487,91.049c-3.622,1.338-7.712,2.266-12.079,2.648-11.228,.982-21.287-1.908-26.54-6.955" style="fill:none; stroke:#aebbc7; stroke-linecap:round; stroke-linejoin:round; stroke-width:.5px;"/><path d="M111.959,81.32c-1.418,2.265-3.587,4.364-6.329,6.173" style="fill:none; stroke:#aebbc7; stroke-linecap:round; stroke-linejoin:round; stroke-width:.5px;"/><path d="M113.821,74.517c.12,1.781-.238,3.537-1.007,5.222" style="fill:none; stroke:#aebbc7; stroke-linecap:round; stroke-linejoin:round; stroke-width:.5px;"/><ellipse cx="81.078" cy="83.514" rx="6.287" ry="3.93" transform="translate(-6.97 7.384) rotate(-5)" style="fill:none; stroke:#687581; stroke-linecap:round; stroke-linejoin:round; stroke-width:.5px;"/><path d="M88.488,88.209c-1.806,1.134-4.174,1.927-6.81,2.158-5.608,.491-10.463-1.737-11.413-5.075" style="fill:none; stroke:#687581; stroke-linecap:round; stroke-linejoin:round; stroke-width:.5px;"/><line x1="86.98" y1="64.784" x2="95.268" y2="65.54" style="fill:none; stroke:#687581; stroke-linecap:round; stroke-linejoin:round; stroke-width:.5px;"/><line x1="92.268" y1="62.677" x2="89.77" y2="67.924" style="fill:none; stroke:#687581; stroke-linecap:round; stroke-linejoin:round; stroke-width:.5px;"/><polyline points="104.976 79.518 61.604 75.562 63.334 72.033" style="fill:none; stroke:#687581; stroke-linecap:round; stroke-linejoin:round; stroke-width:.5px;"/><polyline points="66.714 69.417 110.161 73.38 108.345 77.092" style="fill:none; stroke:#687581; stroke-linecap:round; stroke-linejoin:round; stroke-width:.5px;"/></g></g><path d="M47.259,91.016l1.645,10.789c.041,.27-.013,.545-.154,.779l-5.871,9.745" style="fill:none; stroke:#aebbc7; stroke-linecap:round; stroke-linejoin:round; stroke-width:.5px;"/><path d="M60.567,127.732c.085-.275,.078-.239,.771-1.825,.054-.125,.062-.263,.023-.391l-.783-3.789" style="fill:none; stroke:#aebbc7; stroke-linecap:round; stroke-linejoin:round; stroke-width:.5px;"/><path d="M61.23,123.864c2.591,.254,4.124-1.041,4.767-1.766,.252-.284,.631-.42,1.007-.362,3.074,.476,5.423,.835,7.386,1.134,.453,.069,.818,.408,.92,.854,.047,.205,.128,.439,.265,.679" style="fill:none; stroke:#aebbc7; stroke-linecap:round; stroke-linejoin:round; stroke-width:.5px;"/><g><path d="M64.751,130.016c-.796-.574-1.321-1.383-1.402-2.314-.174-1.986,1.137-4.261,4.219-4.531,3.082-.27,4.768,1.744,4.942,3.73,.065,.744-.163,1.461-.606,2.078" style="fill:none; stroke:#aebbc7; stroke-linecap:round; stroke-linejoin:round; stroke-width:.5px;"/><path d="M67.221,124.296c.038-.067,.13-.117,.239-.129s.213,.015,.271,.07l.409,.395,.763-.122c.107-.017,.215,.005,.279,.058s.071,.126,.02,.19l-.365,.452,.494,.352c.069,.049,.085,.122,.04,.187s-.142,.112-.251,.119l-.774,.057-.269,.474c-.038,.067-.13,.117-.239,.129s-.213-.015-.271-.07l-.409-.395-.763,.122c-.107,.017-.215-.005-.279-.058s-.071-.126-.02-.19l.365-.452-.494-.352c-.069-.049-.085-.122-.04-.187s.142-.112,.251-.119l.774-.057,.269-.474Z" style="fill:none; stroke:#aebbc7; stroke-linecap:round; stroke-linejoin:round; stroke-width:.5px;"/></g><path d="M147.78,63.507l-12.094,40.924c-8.481,28.707-48.758,42.854-76.13,36.252-19.935-4.809-30.841-19.102-32.275-33.784" style="fill:none; stroke:#aebbc7; stroke-linecap:round; stroke-linejoin:round; stroke-width:.5px;"/><path d="M91.708,50.409l21.869,2.454,1.797-5.174c-5.646,.695-16.608,.467-21.41-2.019l-2.256,4.739Z" style="fill:none; stroke:#aebbc7; stroke-linecap:round; stroke-linejoin:round; stroke-width:.5px;"/><path d="M93.754,43.789c4.596,2.921,18.726,3.401,24.822,1.94" style="fill:none; stroke:#aebbc7; stroke-linecap:round; stroke-linejoin:round; stroke-width:.5px;"/><path d="M119.251,53.5l1.408-4.055c.131-.376,.422-.674,.795-.814l3.991-1.496c.393-.147,.829-.13,1.209,.049,2.804,1.319,4.599,2.901,5.873,4.179,.264,.264,.351,.658,.224,1.009l-.922,2.542-12.577-1.414Z" style="fill:none; stroke:#aebbc7; stroke-linecap:round; stroke-linejoin:round; stroke-width:.5px;"/><path d="M73.595,48.376l12.041,1.351,1.521-3.196c.166-.349,.091-.766-.186-1.035l-1.552-1.509c-.278-.27-.675-.38-1.053-.293-2.556,.594-5.937,1.546-9.369,2.996-.315,.133-.581,.36-.761,.65l-.642,1.035Z" style="fill:none; stroke:#aebbc7; stroke-linecap:round; stroke-linejoin:round; stroke-width:.5px;"/><path d="M122.792,53.897c-.435-1.433,.874-2.786,2.569-2.934,1.571-.137,2.935,.781,3.046,2.051,.047,.532-.134,1.041-.475,1.464" style="fill:none; stroke:#aebbc7; stroke-linecap:round; stroke-linejoin:round; stroke-width:.5px;"/><path d="M81.583,49.273c-.378-1.246,.76-2.424,2.235-2.553,1.21-.106,2.279,.508,2.575,1.417" style="fill:none; stroke:#aebbc7; stroke-linecap:round; stroke-linejoin:round; stroke-width:.5px;"/><line x1="133.982" y1="57.159" x2="70.453" y2="50.422" style="fill:none; stroke:#aebbc7; stroke-linecap:round; stroke-linejoin:round; stroke-width:.5px;"/><line x1="93.964" y1="45.669" x2="94.407" y2="50.729" style="fill:none; stroke:#aebbc7; stroke-linecap:round; stroke-linejoin:round; stroke-width:.5px;"/></g></g></g><g id="uuid-55919f5c-5cbd-4c2d-a81c-76ad9bba99c4"><g><g><g><rect x="22.905" y="59.336" width="7.999" height="27.463" transform="translate(-48.64 54.207) rotate(-55.767)" style="fill:none; stroke:#141b21; stroke-width:3px;"/><polygon points="40.943 72.488 48.225 87.575 31.518 86.339 40.943 72.488" style="fill:none; stroke:#141b21; stroke-width:3px;"/></g><line x1="48.225" y1="87.575" x2="15.552" y2="65.343" style="fill:none; stroke:#141b21; stroke-width:3px;"/></g><g><line x1="38.257" y1="80.793" x2="15.552" y2="65.343" style="fill:none; stroke:#f4ae3d; stroke-width:8px;"/><polygon points="40.943 72.488 48.225 87.575 31.518 86.339 40.943 72.488" style="fill:#f4ae3d;"/></g></g></g></svg>