<?xml version="1.0" encoding="UTF-8"?><svg xmlns="http://www.w3.org/2000/svg" width="487.497" height="300.784" xmlns:xlink="http://www.w3.org/1999/xlink" viewBox="0 0 487.497 300.784"><defs><linearGradient id="uuid-b8ea0134-496f-4c91-bd4d-1420ae8d8c03" x1="70.561" y1="320.929" x2="82.531" y2="297.183" gradientTransform="translate(230.521 -46.397) rotate(11.74)" gradientUnits="userSpaceOnUse"><stop offset="0" stop-color="#141b21" stop-opacity="0"/><stop offset="1" stop-color="#141b21"/></linearGradient></defs><g id="uuid-59878c80-b706-4bb0-b5b3-b5d262032445"><path d="M470.891,2.132c-3.602,13.739-16.587,64.467-27.087,120.706l-2.691,1.449c-1.122,.604-1.951,1.639-2.296,2.866l-.556,1.978s-9.783,13.645-20.496,32.855c-16.516,48.418-21.692,81.034-31.551,135.535" style="fill:none; stroke:#687581; stroke-linecap:round; stroke-linejoin:round; stroke-width:.5px;"/><path d="M418.097,1.934c-5.882,18.843-19.346,63.58-30.614,112.867L119.952,85.15c7.167-30.489,12.439-51.685,20.51-81.417" style="fill:none; stroke:#687581; stroke-linecap:round; stroke-linejoin:round; stroke-width:1.5px;"/><polyline points="388.723 111.641 387.653 116.427 478.866 126.84" style="fill:none; stroke:#687581; stroke-linecap:round; stroke-linejoin:round; stroke-width:.5px;"/><line x1="481.713" y1="134.21" x2="93.268" y2="88.799" style="fill:none; stroke:#687581; stroke-linecap:round; stroke-linejoin:round; stroke-width:.5px;"/><path d="M92.812,22.432c-.499-7.366-1.283-11.74-17.485-11.74-18.435,0-39.847,13.141-55.268,27.932-11.175,10.719-13.912,17.447-13.912,22.35v14.596c-1.939,2.623-3.763,5.017,1.596,12.316s11.517,13.684,27.14,17.219c15.622,3.535,18.465,2.918,25.543,2.623,4.105-.171,14.71-1.14,17.732-1.482s4.789-1.768,7.697-5.36,5.36-7.184,7.07-10.89,1.71-6.101,1.71-9.978-1.825-57.586-1.825-57.586Z" style="fill:none; stroke:#687581; stroke-linecap:round; stroke-linejoin:round; stroke-width:1.5px;"/><path d="M56.464,104.792c3.646-.029,16.241-1.086,19.008-1.26,3.377-.213,5.42-1.844,8.228-4.981,2.64-2.948,4.976-6.545,6.756-10.401,1.724-3.736,1.724-6.171,1.724-9.857,0-3.541-1.605-50.827-1.673-52.841l-.024-.78c-.094-3.129-.2-6.675-2.682-8.339-1.573-1.055-3.666-1.067-6.401-.039l-.362,.136c-6.28,2.36-12.046,4.319-18.642,8.751-4.564,3.067-6.702,4.521-10.037,10.336s-7.27,14.368-9.408,19.243-1.967,7.783-1.967,12.23,.086,10.263,.599,15.309,2.671,22.853,14.881,22.493Z" style="fill:none; stroke:#687581; stroke-linecap:round; stroke-linejoin:round; stroke-width:.5px;"/><path d="M54.155,32.695c10.377-8.324,17.675-11.004,26.17-14.197,6.809-2.559,6.557,3.079,6.715,7.519,0,0,1.648,48.504,1.648,52.005s0,5.664-1.545,9.011c-1.545,3.347-3.684,6.818-6.385,9.835s-4.309,4.187-6.968,4.354c-2.659,.168-11.98,.501-15.579,.525-4.214,.028-7.68-.187-9.963-.39" style="fill:none; stroke:#687581; stroke-linecap:round; stroke-linejoin:round; stroke-width:.5px;"/><path d="M31.698,79.359c1.229,16.421,5.869,26.088,12.079,27.158" style="fill:none; stroke:#687581; stroke-linecap:round; stroke-linejoin:round; stroke-width:.5px;"/><path d="M83.148,11.537c-2.704-.329-7.151-.145-17.209,4.447-12.81,5.849-17.908,9.205-21.79,15.513-4.105,6.671-9.237,18.131-11.033,22.151-1.42,3.177-1.811,7.059-1.796,13.833" style="fill:none; stroke:#687581; stroke-linecap:round; stroke-linejoin:round; stroke-width:.5px;"/><path d="M6.646,63.708c0,1.423,8.379,3.004,25.013,3.789l2.535,.818c.462,.149,.781,.572,.797,1.057l.272,8.313c.019,.566-.378,1.061-.934,1.168l-2.654,.507c-16.635-.785-25.013-2.367-25.013-3.789" style="fill:none; stroke:#687581; stroke-linecap:round; stroke-linejoin:round; stroke-width:.5px;"/><path d="M280.141,202.782l-15.494-2.571c-5.921-1.063-10.132-7.249-9.061-15.049,1.114-8.114,6.232-12.222,13.429-11.398l76.733,12.912c6.135,.905,10.294,7.271,9.468,14.494-.835,7.4-6.152,11.719-11.219,11.994" style="fill:none; stroke:#687581; stroke-linecap:round; stroke-linejoin:round;"/><path d="M273.439,196.16c-2.524-.502-6.193-.96-8.644-1.644-4.464-1.98-3.82-8.425-1.8-12.015,1.366-2.345,3.581-2.545,5.959-1.792,2.071,.471,4.356,.976,6.407,1.485-2.079-.356-4.384-.787-6.468-1.186-2.217-.604-4.269-.458-5.489,1.744-1.777,3.364-2.518,9.391,1.549,11.357,1.139,.405,3.015,.702,4.222,1.025l4.264,1.026h0Z" style="fill:#687581;"/><g><g id="uuid-73049b27-e0b0-4b27-b1d1-a3a34e98560d"><path d="M348.776,204.491c-.325,2.685-1.131,4.868-2.276,6.6-1.054,1.595-2.379,2.784-3.833,3.623-3.021,1.744-6.565,1.965-9.401,1.273-1.497-.365-5.704-1.354-10.987-2.597-8.962-2.108-21.004-4.94-28.067-6.665-14.852-3.637-29.693-7.265-29.694-7.265-2.062-.506-3.786-1.859-5.036-3.665-1.79-2.587-2.661-6.173-2.213-9.894,.413-3.351,1.412-5.773,2.753-7.494,.998-1.281,2.232-2.088,3.539-2.568,3.183-1.168,6.827-.385,8.696,.003l.099,.021c3.678,.764,68.318,13.82,68.324,13.822,2.268,.474,4.182,1.903,5.578,3.851,2.025,2.825,3.023,6.811,2.52,10.953Z" style="fill:none; stroke:#687581; stroke-linecap:round; stroke-linejoin:round; stroke-width:.5px;"/><path d="M348.528,204.46c-.321,2.651-1.116,4.796-2.236,6.492-1.031,1.561-2.328,2.724-3.75,3.545-2.957,1.707-6.433,1.926-9.217,1.247-1.498-.365-5.707-1.355-10.989-2.597-8.962-2.108-21.003-4.939-28.065-6.664-14.852-3.637-29.693-7.265-29.694-7.265-1.991-.489-3.667-1.798-4.89-3.564-1.752-2.532-2.612-6.055-2.171-9.721,.409-3.317,1.395-5.693,2.702-7.371,.966-1.24,2.16-2.022,3.428-2.487,3.106-1.14,6.678-.378,8.558,.014l.099,.021c3.679,.765,68.319,13.821,68.324,13.822,2.195,.459,4.058,1.844,5.426,3.752,1.984,2.768,2.971,6.69,2.475,10.777Z" style="fill:none; stroke:#687581; stroke-linecap:round; stroke-linejoin:round; stroke-width:.5px;"/><path d="M348.279,204.43c-.317,2.618-1.1,4.725-2.197,6.384-1.009,1.527-2.276,2.664-3.666,3.466-2.893,1.67-6.302,1.887-9.033,1.221-1.499-.366-5.71-1.356-10.991-2.598-8.963-2.108-21.003-4.939-28.063-6.664-14.852-3.638-29.694-7.265-29.694-7.265-1.92-.471-3.549-1.736-4.743-3.463-1.714-2.477-2.562-5.937-2.128-9.548,.405-3.284,1.378-5.614,2.651-7.248,.934-1.199,2.088-1.955,3.317-2.406,3.028-1.111,6.529-.37,8.421,.024l.099,.021c3.68,.765,68.32,13.821,68.324,13.822,2.121,.443,3.935,1.784,5.274,3.653,1.944,2.712,2.92,6.57,2.43,10.602Z" style="fill:none; stroke:#687581; stroke-linecap:round; stroke-linejoin:round; stroke-width:.5px;"/><path d="M348.031,204.4c-.313,2.585-1.085,4.654-2.157,6.277-.987,1.494-2.225,2.604-3.582,3.387-2.829,1.634-6.17,1.848-8.849,1.194-1.501-.366-5.713-1.356-10.993-2.598-8.963-2.108-21.002-4.939-28.061-6.663-14.852-3.638-29.694-7.265-29.694-7.265-1.849-.454-3.43-1.675-4.597-3.363-1.675-2.421-2.513-5.819-2.086-9.375,.401-3.25,1.361-5.534,2.6-7.125,.903-1.158,2.016-1.888,3.206-2.325,2.95-1.083,6.379-.363,8.284,.034l.099,.021c3.681,.765,68.322,13.821,68.323,13.821,2.048,.428,3.811,1.725,5.122,3.554,1.904,2.656,2.868,6.449,2.385,10.426Z" style="fill:none; stroke:#687581; stroke-linecap:round; stroke-linejoin:round; stroke-width:.5px;"/></g><path d="M347.783,204.37c-1.187,9.799-9.03,11.926-14.281,10.646-4.052-.988-27.839-6.523-39.053-9.261-14.852-3.638-29.694-7.265-29.694-7.265-4.331-1.063-7.209-6.525-6.495-12.464,.397-3.216,1.344-5.455,2.549-7.002,3.082-3.955,8.694-2.73,11.341-2.18,3.682,.765,68.323,13.821,68.323,13.821,4.844,1.012,8.114,7.085,7.31,13.705Z" style="fill:none; stroke:#687581; stroke-linecap:round; stroke-linejoin:round; stroke-width:.5px;"/></g><path d="M260.807,179.027c2.607-2.699,7.174-1.953,8.373-1.703l69.51,14.548c4.54,.949,7.606,6.64,6.851,12.846-1.411,11.646-10.596,10.331-12.04,10.299" style="fill:none; stroke:#687581; stroke-linecap:round; stroke-linejoin:round; stroke-width:.5px;"/><path d="M94.62,82.342l12.428,1.377c7.65-32.267,12.546-52.121,20.676-81.983" style="fill:none; stroke:#687581; stroke-linecap:round; stroke-linejoin:round; stroke-width:1.5px;"/><polyline points="107.573 83.631 107.133 85.362 118.977 86.905 119.563 84.604" style="fill:none; stroke:#687581; stroke-linecap:round; stroke-linejoin:round; stroke-width:.5px;"/><path d="M113.862,86.239c7.669-33.313,13.004-53.8,21.291-84.386" style="fill:none; stroke:#687581; stroke-linecap:round; stroke-linejoin:round; stroke-width:.5px;"/><path d="M69.763,11.07c3.322-3.27,6.458-6.254,9.343-8.941" style="fill:none; stroke:#687581; stroke-linecap:round; stroke-linejoin:round; stroke-width:1.5px;"/><path d="M2.126,33.162c6.975-.8,16.647-1.81,27.201-2.624" style="fill:none; stroke:#687581; stroke-linecap:round; stroke-linejoin:round; stroke-width:1.5px;"/><line x1="479.478" y1="170.178" x2="5.033" y2="107.194" style="fill:none; stroke:#687581; stroke-linecap:round; stroke-linejoin:round; stroke-width:.5px;"/><path d="M263.526,101.063c-13.563-42.536-3.107-83.883,24.402-93.791,28.563-10.288,64.695,17.217,80.702,61.433,5.586,15.43,7.983,30.857,7.523,44.84" style="fill:none; stroke:#687581; stroke-linecap:round; stroke-linejoin:round;"/><path d="M273.825,74.223c.019,.618,.156,1.254,.414,1.848,.259,.591,.639,1.155,1.194,1.555-.638-.252-1.189-.735-1.623-1.299-.435-.568-.766-1.226-.971-1.942l-.002-.008c-.077-.268,.078-.547,.346-.624,.268-.077,.547,.078,.624,.346,.012,.04,.018,.083,.019,.123Z" style="fill:#687581;"/><path d="M273.331,74.305c1.296-.527,8.945-3.491,22.915-5.974,15.394-2.737,21.21-3.307,27.596-3.478,6.386-.171,8.21,.513,8.21,.513,0,0,9.52-.878,13.228-1.197,3.307-.285,3.829-3.509,2.349-6.046-16.082-28.322-40.012-44.63-57.48-37.47-14.991,6.145-21.237,27.883-16.818,53.652Z" style="fill:none; stroke:#687581; stroke-linecap:round; stroke-linejoin:round;"/><path d="M348.403,110.47c.514-6.339,1.32-15.983,1.32-15.983,0,0,5.093-1.711,7.36-2.438s4.047,.35,4.471,2.426c1.256,6.14,2.068,12.078,2.281,17.705" style="fill:none; stroke:#687581; stroke-linecap:round; stroke-linejoin:round;"/><path d="M132.533,33.674c1.792-1.732,16.174-15.541,34.753-30.874" style="fill:none; stroke:#687581; stroke-linecap:round; stroke-linejoin:round;"/><path d="M149.588,17.971s60.188-2.286,124.547-1.848" style="fill:none; stroke:#687581; stroke-linecap:round; stroke-linejoin:round;"/><path d="M323.04,11.168l4.109-.367s50.05-4.468,90.109-6.168" style="fill:none; stroke:#687581; stroke-linecap:round; stroke-linejoin:round;"/><line x1="90.707" y1="14.575" x2="104.37" y2="2.118" style="fill:none; stroke:#687581; stroke-linecap:round; stroke-linejoin:round; stroke-width:.5px;"/><line x1="118.586" y1="2.539" x2="92.925" y2="25.758" style="fill:none; stroke:#687581; stroke-linecap:round; stroke-linejoin:round; stroke-width:.5px;"/><path d="M124.018,15.496c-10.184,8.685-21.146,18.176-30.546,26.64" style="fill:none; stroke:#687581; stroke-linecap:round; stroke-linejoin:round; stroke-width:.5px;"/><path d="M124.014,68.031l7.929-1.315s34.932-5.793,39.145-6.671,5.968-4.213,7.022-8.25,1.404-7.022,6.144-7.899,78.738-10.212,78.738-10.212" style="fill:none; stroke:#687581; stroke-linecap:round; stroke-linejoin:round; stroke-width:.5px;"/><path d="M184.254,43.896c-5.354,.965-5.178,4.564-3.335,10.357,1.843,5.793,12.89,39.083,12.89,39.083" style="fill:none; stroke:#687581; stroke-linecap:round; stroke-linejoin:round; stroke-width:.5px;"/><line x1="284.188" y1="70.916" x2="274.344" y2="40.509" style="fill:none; stroke:#687581; stroke-linecap:round; stroke-linejoin:round; stroke-width:.5px;"/><path d="M311.329,65.897s-4.461-12.435-5.602-15.594,0-5.968,3.774-6.671c1.406-.262,12.104-1.948,25.114-3.984" style="fill:none; stroke:#687581; stroke-linecap:round; stroke-linejoin:round; stroke-width:.5px;"/><path d="M351.809,36.962c17.311-2.701,33.604-5.235,34.842-5.442,2.633-.439,3.599,1.053,4.476,3.16s9.579,27.212,9.579,27.212" style="fill:none; stroke:#687581; stroke-linecap:round; stroke-linejoin:round; stroke-width:.5px;"/><path d="M275.868,36.18s7.566,.694,13.798,1.045c6.232,.351,11.059,0,16.501-.702,1.51-.195,10.351-1.467,22.338-3.203" style="fill:none; stroke:#687581; stroke-linecap:round; stroke-linejoin:round; stroke-width:.5px;"/><path d="M346.791,30.666c29.971-4.355,65.465-9.536,65.465-9.536" style="fill:none; stroke:#687581; stroke-linecap:round; stroke-linejoin:round; stroke-width:.5px;"/><path d="M153.774,63.063c-5.638,.661-6.559,5.233-4.189,11.816s5.622,14.179,5.622,14.179" style="fill:none; stroke:#687581; stroke-linecap:round; stroke-linejoin:round; stroke-width:.5px;"/><path d="M132.054,35.543s15.513-1.829,23.061-2.531c7.548-.702,24.049-7.022,53.891-9.83,29.842-2.809,62.924-4.67,62.924-4.67" style="fill:none; stroke:#687581; stroke-linecap:round; stroke-linejoin:round; stroke-width:.5px;"/><path d="M331.419,65.471c3.517,1.087,5.711,4.159,7.554,8.46s3.511,9.391,4.301,11.761,1.141,6.934,.79,11.059c-.345,4.052-1.785,9.751-2.421,12.969" style="fill:none; stroke:#687581; stroke-linecap:round; stroke-linejoin:round; stroke-width:.5px;"/><path d="M274.413,73.887c1.517-.54,11.127,.026,13.351,.319,1.857,.244,2.698,1.181,3.328,2.679,2.64,6.274,5.8,14.934,6.97,18.503s2.224,5.091,3.686,6.671,3.922,3.676,3.922,3.676" style="fill:none; stroke:#687581; stroke-linecap:round; stroke-linejoin:round; stroke-width:.5px;"/><path d="M288.934,74.5s-7.197,2.281-10.005,3.217-3.862,3.628-3.043,7.314c.819,3.686,3.394,12.229,4.213,14.453s1.924,3.629,1.924,3.629" style="fill:none; stroke:#687581; stroke-linecap:round; stroke-linejoin:round; stroke-width:.5px;"/><path d="M342.647,64.4s8.663-.493,11.472-.61,5.032,.117,7.08,3.569c2.048,3.452,5.559,10.298,6.729,13.048s1.58,4.857-2.282,6.319-13.355,4.172-14.781,4.553-1.328,2.248-1.452,3.733" style="fill:none; stroke:#687581; stroke-linecap:round; stroke-linejoin:round; stroke-width:.5px;"/><path d="M291.484,77.822s-6.777,2.016-8.971,2.806-3.686,1.229-3.116,4.476c.571,3.247,1.931,9.128,2.633,11.454s1.229,4.257,4.827,3.862,12.668-1.443,12.668-1.443" style="fill:none; stroke:#687581; stroke-linecap:round; stroke-linejoin:round; stroke-width:.5px;"/><path d="M336.344,69.153s13.181-1.427,16.955-1.822,4.783,.351,6.144,2.501,4.037,7.855,5.003,9.918,1.229,3.379-1.668,4.301-18.767,5.528-18.767,5.528" style="fill:none; stroke:#687581; stroke-linecap:round; stroke-linejoin:round; stroke-width:.5px;"/><path d="M339.383,74.906s12.468-2.266,14.004-2.485,2.282-.088,3.16,1.36,.917,1.67,1.763,3.446,.122,2.393-1.555,2.84c-2.294,.612-14.142,3.64-14.142,3.64" style="fill:none; stroke:#687581; stroke-linecap:round; stroke-linejoin:round; stroke-width:.5px;"/><path d="M297.257,93.025s-9.259,1.251-10.312,1.485-1.814,.176-2.224-1.463-1.17-4.388-1.404-5.266,.117-1.638,1.229-1.872,9.407-1.867,9.407-1.867" style="fill:none; stroke:#687581; stroke-linecap:round; stroke-linejoin:round; stroke-width:.5px;"/><path d="M330.25,78.924c1.117,1.018,1.726,2.864,1.362,4.124l-2.306,7.974c-.364,1.26-1.565,1.457-2.682,.439l-7.067-6.44c-1.117-1.018-1.726-2.864-1.362-4.124l2.306-7.974c.364-1.26,1.565-1.457,2.682-.439l7.067,6.44Z" style="fill:none; stroke:#687581; stroke-linecap:round; stroke-linejoin:round; stroke-width:.5px;"/><path d="M320.246,73.822c.334-1.154,1.483-1.334,2.506-.402l6.474,5.9c1.023,.932,1.582,2.624,1.248,3.778l-2.112,7.306c-.334,1.154-1.434,1.334-2.457,.402" style="fill:none; stroke:#687581; stroke-linecap:round; stroke-linejoin:round; stroke-width:.5px;"/><path d="M348.001,75.492c-.163,.038-.302,.146-.379,.295s-.085,.324-.022,.48l1.237,3.056c.108,.267,.397,.413,.675,.341l2.95-.756c.285-.073,.469-.35,.426-.64-.168-1.128-.558-2.178-1.433-3.275-.132-.166-.357-.228-.563-.179l-2.89,.678Z" style="fill:none; stroke:#687581; stroke-linecap:round; stroke-linejoin:round; stroke-width:.5px;"/><path d="M288.349,87.445c-.166,.022-.315,.116-.406,.256s-.117,.314-.07,.475l.929,3.163c.081,.276,.354,.45,.638,.406l2.488-.482c.291-.045,.501-.302,.487-.595-.055-1.139-.34-2.223-1.103-3.4-.115-.178-.332-.262-.542-.234l-2.422,.41Z" style="fill:none; stroke:#687581; stroke-linecap:round; stroke-linejoin:round; stroke-width:.5px;"/><polygon points="324.641 79.434 323.7 81.824 326.242 84.163 327.213 81.667 324.641 79.434" style="fill:none; stroke:#687581; stroke-linecap:round; stroke-linejoin:round; stroke-width:.5px;"/><polygon points="323.421 75.9 321.315 82.113 327.417 87.697 329.598 81.218 323.421 75.9" style="fill:none; stroke:#687581; stroke-linecap:round; stroke-linejoin:round; stroke-width:.5px;"/><line x1="324.641" y1="79.434" x2="323.421" y2="75.9" style="fill:none; stroke:#687581; stroke-linecap:round; stroke-linejoin:round; stroke-width:.5px;"/><line x1="326.242" y1="84.163" x2="327.417" y2="87.697" style="fill:none; stroke:#687581; stroke-linecap:round; stroke-linejoin:round; stroke-width:.5px;"/><line x1="321.315" y1="82.113" x2="318.289" y2="82.946" style="fill:none; stroke:#687581; stroke-linecap:round; stroke-linejoin:round; stroke-width:.5px;"/><line x1="329.598" y1="81.218" x2="330.419" y2="81.322" style="fill:none; stroke:#687581; stroke-linecap:round; stroke-linejoin:round; stroke-width:.5px;"/><path d="M343.659,205.268c-1.026,5.322-5.542,8.671-10.102,7.53,0,0-11.111-2.763-11.152-2.774-4.397-1.172-7.161-6.288-6.158-11.411,.969-5.018,5.185-8.2,9.493-7.218,0,0,11.366,1.901,11.461,1.923,4.61,1.227,7.506,6.585,6.459,11.949Z" style="fill:#f4ae3d; stroke:#aebbc7; stroke-dasharray:0 0 1.25 1.5; stroke-linecap:round; stroke-linejoin:round; stroke-width:.75px;"/></g><g id="uuid-4642e811-fc7d-437a-9cb0-15bfa1e1e923"><g><path d="M344.475,232.266c-.287,1.619-1.747,2.626-2.91,2.434l-26.393-5.236c-2.707-.447-3.404-1.756-3.1-4.364,2.606-22.36,3.883-37.329,4.478-57.817,.066-2.263,1.558-3.876,3.313-3.604l27.018,4.183c1.779,.275,3.198,1.545,3.084,4.649-.773,21.018-1.874,39.365-5.491,59.756Z" style="fill:#141b21;"/><g><path d="M338.137,202.519c-.732-1.261-5.005-7.767-5.805-8.742-.279-.343-.644-.62-1.111-.692s-.847,.089-1.145,.343c-.856,.719-5.466,5.906-6.318,6.866-.07,.089-.015,.253,.085,.269,.408,.063,1.354,.212,1.923,.3,.201,.031,.262-.005,.393-.16,.132-.155,.788-.926,.788-.926,.835-.985,2.863-3.134,3.601-3.796,.277-.249,.579-.193,.583-.192,.004,0,.307,.038,.565,.369,.687,.883,2.553,3.634,3.316,4.867,0,0,.599,.966,.72,1.16,.12,.194,.178,.248,.379,.28,.57,.088,1.515,.232,1.923,.296,.1,.016,.165-.131,.102-.24Z" style="fill:#f4ae3d;"/><path d="M323.712,201.689c.731,1.261,5.005,7.767,5.805,8.742,.279,.343,.644,.62,1.111,.692,.467,.072,.847-.089,1.145-.343,.856-.719,5.466-5.906,6.318-6.866,.07-.089,.015-.253-.085-.269-.408-.063-1.354-.212-1.923-.3-.201-.031-.262,.005-.393,.16-.132,.155-.788,.926-.788,.926-.835,.985-2.863,3.134-3.601,3.796-.277,.249-.579,.192-.583,.192-.004,0-.307-.038-.565-.369-.687-.883-2.553-3.634-3.316-4.867,0,0-.599-.966-.72-1.16-.12-.194-.178-.249-.379-.28-.57-.088-1.515-.232-1.923-.296-.1-.016-.165,.13-.102,.24Z" style="fill:#f4ae3d;"/><path d="M330.327,203.962c-.347-.489-.965-1.387-1.192-1.783-.103-.176-.09-.373-.09-.373,0,0,0-.2,.113-.341,.251-.322,.918-1.025,1.297-1.397,.155-.156,.194-.263,.201-.483,.022-.68,.064-1.954,.08-2.438,.003-.098-.084-.172-.155-.101-.844,.843-2.729,2.873-3.365,3.674-.303,.352-.289,.759-.289,.759,0,0-.04,.399,.237,.84,.577,.989,2.311,3.58,3.091,4.674,.07,.093,.157,.055,.16-.06,.016-.484,.058-1.751,.08-2.431,.007-.22-.024-.338-.168-.54Z" style="fill:#f4ae3d;"/><path d="M331.395,204.13c.375-.377,1.046-1.075,1.297-1.397,.114-.142,.113-.341,.113-.341,0,0,.014-.197-.09-.373-.227-.396-.842-1.298-1.192-1.782-.143-.202-.175-.32-.168-.54,.022-.68,.064-1.947,.08-2.43,.004-.115,.091-.153,.16-.06,.78,1.094,2.514,3.685,3.091,4.674,.277,.441,.237,.84,.237,.84,0,0,.013,.407-.289,.759-.636,.801-2.522,2.831-3.365,3.674-.075,.07-.159,.006-.155-.109,.016-.484,.057-1.751,.08-2.43,.007-.22,.046-.327,.201-.483Z" style="fill:#f4ae3d;"/></g><path d="M344.229,232.222c3.561-19.915,4.858-40.199,5.483-60.396-.039-.972-.274-1.96-.884-2.675-.637-.765-1.566-1.017-2.546-1.13-7.368-1.134-18.161-2.816-25.517-3.951-2.168-.637-3.697,.636-3.938,2.819-.049,.922-.131,3.55-.161,4.535-.474,14.148-1.549,28.362-3.082,42.424-.413,4.021-.926,8.072-1.323,12.059-.036,.965,.144,1.982,.903,2.537,.737,.585,1.746,.707,2.738,.909l5.959,1.182,11.919,2.365,5.959,1.182,1.49,.296,.372,.074c1.292,.159,2.419-1.005,2.626-2.23h0Zm1.477,.262c-.322,2.103-2.522,3.991-4.744,3.37l-1.49-.296c-6.652-1.32-17.185-3.409-23.837-4.729-3.927-.513-5.413-2.489-4.722-6.585,.118-.904,.4-3.571,.517-4.523,1.124-9.99,2.15-20.179,2.817-30.188,.498-7.265,.835-15.045,1.057-22.338-.021-2.563,2.146-5.323,4.941-4.723,.451,.08,1.777,.268,2.251,.349,6.702,1.038,17.314,2.681,24.016,3.718,3.79,.299,5.023,3.501,4.672,6.842-.708,19.756-1.965,39.591-5.477,59.104h0Z" style="fill:#aebbc7;"/></g><g><g><path d="M162.046,250.947s89.529-6.767,99.38-8.309c9.851-1.542,9.994-1.636,16.709-6.553,6.715-4.917,6.901-4.982,17.148-8.071,13.309-4.011,11.202-4.235,19.038-3.116,9.096,1.299,10.366,2.443,13.964,3.493,0,0,4.918-1.079,9.144-2.281,3.941-1.121,6.429,3.249,4.137,8.59,4.497,1.132,6.387,1.525,8.125,4.548,1.738,3.023,1.513,3.632,.74,7.351-.511,2.457-.511,3.883-3.743,5.677-3.232,1.793-5.466,3.057-4.453,6.719,1.014,3.661,2.062,5.259,.256,8.729-1.806,3.47-2.601,3.502-5.447,4.389-2.846,.887-4.184,2.581-4.565,5.361s-.479,3.253-2.025,5.002-2.342,1.781-4.57,3.487-1.898,3.34-3.243,6.018c-1.345,2.678-2.8,3.816-9.364,3.883-6.564,.066-11.907-.108-21.413-2.281-17.834-4.076-16.597-5.306-20.452-3.104-3.102,1.772-8.818,2.341-13.975,3.318-8.429,1.597-17.538,3.854-17.538,3.854" style="fill:url(#uuid-b8ea0134-496f-4c91-bd4d-1420ae8d8c03);"/><path d="M162.046,250.947c3.505-.939,7.075-1.019,10.626-1.344l10.662-.864c24.465-2.031,50.263-4.059,74.574-6.516,5.08-.779,10.632-.908,15.127-3.609,2.972-1.882,5.745-4.178,8.709-6.156,4.503-3.09,10.081-4.185,15.137-5.845l5.095-1.604c1.712-.521,3.387-1.131,5.29-1.439,1.94-.308,3.821-.006,5.575,.223,5.312,.59,10.718,1.879,15.696,3.735l-.444-.015c2.975-.671,6.169-1.444,9.114-2.271,5.945-1.455,7.264,5.701,5.178,9.81l-.602-1.218c2.432,.663,5.422,1.108,7.319,3.118,1.812,2.042,3.298,4.895,2.632,7.649-.564,2.562-.655,5.735-3.022,7.407-2.271,1.825-6.544,2.726-5.754,6.204,.542,2.454,1.937,5.134,1.164,7.761-.552,1.837-1.344,3.287-2.544,4.794-1.185,1.474-3.261,1.8-4.834,2.375-1.439,.533-2.529,1.492-3.018,2.876-.559,1.345-.338,3.078-1.145,4.972-.455,.937-1.065,1.592-1.643,2.243-1.568,1.908-4.349,2.658-5.717,4.665-1.176,2.191-1.508,5.085-3.575,6.854-2.164,1.808-5.182,1.791-7.757,1.898-1.704,.026-3.384,.02-5.086-.021-6.79-.11-13.53-1.421-20.087-3.05-3.279-.793-6.55-1.654-9.793-2.553-2.296-.553-4.635-1.674-6.801-.195-3.763,2.104-8.299,2.409-12.372,3.172-6.658,1.018-13.113,2.995-19.849,3.645,6.317-2.504,13.013-3.532,19.644-4.85,3.311-.596,6.676-1.029,9.758-2.089,1.7-.51,2.908-1.796,4.814-1.959,1.862-.046,3.431,.548,5.161,.961,3.252,.877,6.5,1.708,9.772,2.476,6.513,1.568,13.084,2.808,19.79,2.873,1.665,.03,3.352,.023,5.014-.013,2.329-.122,4.881-.072,6.703-1.536,1.083-.998,1.692-2.577,2.176-4.01,.391-1.646,1.531-3.622,3.03-4.526,1.932-1.322,4.183-2.61,5.241-4.721,.613-1.431,.459-3.251,1.088-4.846,.605-1.82,2.259-3.272,4.023-3.896,1.52-.604,3.103-.695,4.152-1.906,.894-1.096,1.769-2.693,2.155-4.07,.409-1.408,.019-2.854-.489-4.473-.213-.732-.561-1.786-.705-2.525-.801-3.237,1.821-5.371,4.363-6.663,1.49-.803,2.809-1.605,3.329-2.861,.271-.632,.409-1.422,.576-2.261,.268-1.507,.83-3.167,.536-4.611-.636-2.01-1.979-4.39-4.001-5.187-1.393-.615-3.059-.968-4.683-1.39-.528-.129-.818-.721-.602-1.218,.651-1.528,.985-3.215,.696-4.745-.323-1.986-1.936-3.231-3.751-2.633-.766,.21-3.116,.846-3.934,1.048-1.896,.382-3.802,1.118-5.723,1.236-5.075-1.884-10.074-3.089-15.435-3.705-3.633-.766-6.67-.08-10.092,1.133-4.869,1.627-10.509,3.074-15.243,4.822-6.636,2.394-11.415,9.088-18.506,10.682-7.091,1.555-14.234,2.073-21.331,2.717-14.219,1.216-28.441,2.306-42.665,3.384l-21.337,1.593c-5.947,.263-15.402,1.586-21.377,1.067h0Z" style="fill:#aebbc7;"/></g><path d="M341.807,235.276c-.829,.336-1.631,.859-2.499,1.054-1.757-.103-3.506-.289-5.26-.431-1.845-.207-6.039-.6-7.834-.844-2.716-.581-4.613-2.721-6.822-4.247,2.364,.859,4.503,2.666,6.967,3.079,4.042,.267,9.026,.611,13.033,1.062l-.329,.051c.751-.297,1.501-.597,2.26-.876,.731-.272,1.193,.818,.484,1.152h0Z" style="fill:#aebbc7;"/><path d="M343.375,247.577c-1.11,5.829-3.575,9.843-10.165,9.061,6.979-1.199,7.186-3.491,10.165-9.061h0Z" style="fill:#aebbc7;"/><path d="M335.559,269.002c-1.556,2.729-4.906,4.151-7.957,4.131,2.762-1.375,5.41-2.416,7.957-4.131h0Z" style="fill:#aebbc7;"/><path d="M327.434,228.823s3.405,.494,5.029,2.593c.405,.523,1.063,.786,1.717,.688,2.71-.406,4.834-1.075,6.02-1.734,1.089-.605,1.528-2.085,.377-2.962" style="fill:none; stroke:#aebbc7; stroke-linecap:round; stroke-linejoin:round; stroke-width:.5px;"/></g></g></svg>