<?xml version="1.0" encoding="UTF-8"?><svg id="uuid-19368baf-7c28-48cb-82ac-ebad88586282" xmlns="http://www.w3.org/2000/svg" width="218" height="197.7518" viewBox="0 0 218 197.7518"><path d="m22.646,6.3164c.3949,11.3103,2.0731,25.4275,6.022,33.029,0,0,2.7642,5.0348,3.6527,5.5284s4.245,1.5795,4.245,1.5795l.4775,7.3483s-15.3623,9.7863-17.0692,10.9243-1.8207,3.2431-1.8207,5.519,1.4224,12.4605,1.4224,12.4605" style="fill:none; stroke:#687581; stroke-miterlimit:10;"/><path d="m20.4877,89.0979c.3069,2.1012,1.3746,9.4192,1.5303,10.042,0,0,1.1344,1.7127,3.5589,3.3365l-2.5446,1.4236s-.7474.5338-.7474,1.2456v2.9583c.1492,3.3251,7.1559,10.8969,19.2482,20.2769,12.0922,9.38,36.8418,25.0886,46.7868,25.9927,9.945.9041,28.2529.7911,28.2529.7911l40.1191,10.5101s13.3354,9.945,23.0544,12.5443c9.719,2.5993,31.4172,6.3287,44.0745,7.6848" style="fill:none; stroke:#687581; stroke-miterlimit:10;"/><path d="m86.3887,153.8515c3.1568,16.4515,13.9611,30.5992,26.894,40.8632,13.1212,10.4723,29.3043,16.5445,45.8577,18.8647-16.6106-2.1598-32.8935-8.0925-46.1644-18.4702-10.7854-8.3132-19.845-19.2463-24.9396-31.9583-1.1574-2.9616-1.98-6.0206-2.6334-9.1318,0,0,.9857-.1676.9857-.1676h0Z" style="fill:#687581; stroke-width:0px;"/><path d="m107.337,154.7493c4.5158,21.8636,22.813,38.9488,42.9881,47.0972,6.8634,2.7325,14.071,4.5272,21.3888,5.5687-7.3229-1.0002-14.5458-2.7546-21.4351-5.4529-13.7764-5.3761-26.0324-14.7731-34.5525-26.8917-4.2387-6.0652-7.4492-12.9274-8.8822-20.2375l.4929-.0839h0Z" style="fill:#687581; stroke-width:0px;"/><path d="m25.5769,102.4764s4.3477,3.0724,10.5182,5.2938c0,0,3.2087-1.5632,6.0882-4.6073,0,0,45.5794,10.531,67.2172,14.6446,0,0,2.715.6582,5.5123,3.3732,2.7973,2.715,5.1832,6.4173,10.3664,7.6514s21.7201,3.4555,37.023,4.7718,31.8435.6582,58.9095-5.5946" style="fill:none; stroke:#687581; stroke-miterlimit:10;"/><path d="m162.3022,133.604l-3.7846,2.0568v3.9491s25.9983,32.0043,62.6941,45.0035" style="fill:none; stroke:#687581; stroke-miterlimit:10; stroke-width:.5px;"/><path d="m160.5392,133.604l-3.5187,1.8723v4.049s26.2943,33.0504,63.9183,46.3784" style="fill:none; stroke:#687581; stroke-miterlimit:10; stroke-width:.5px;"/><path d="m22.5556,109.2818c5.0773,2.7456,10.5411,4.6698,15.9998,6.4965,16.3981,5.4926,33.2278,9.6233,50.1391,13.1923,22.5435,4.8574,45.3693,8.3688,68.3259,10.5547-23.0053-1.8014-45.8475-5.3442-68.4296-10.0667-16.9078-3.6573-33.732-7.8623-50.1143-13.4502-5.4366-1.9046-10.8817-3.909-15.921-6.7265h0Z" style="fill:#687581; stroke-width:0px;"/><path d="m22.5556,105.2385c5.0396,2.725,10.463,4.6345,15.881,6.4473,16.2762,5.4515,32.9808,9.551,49.7663,13.0933,22.3757,4.8218,45.0317,8.3069,67.8174,10.4779-22.8343-1.7865-45.5068-5.3031-67.9209-9.99-16.7823-3.6306-33.4811-7.8045-49.7416-13.3512-5.3961-1.8907-10.8005-3.8804-15.8022-6.6773h0Z" style="fill:#687581; stroke-width:0px;"/><path d="m160.0039,139.5253c20.4909,1.5627,40.892-2.0103,60.9349-5.9214-19.8995,4.574-40.48,8.1576-60.9349,5.9214h0Z" style="fill:#687581; stroke-width:0px;"/><path d="m160.0039,136.295c20.4909,1.5627,40.892-2.0103,60.9349-5.9214-19.8995,4.5741-40.4799,8.1574-60.9349,5.9214h0Z" style="fill:#687581; stroke-width:0px;"/><path d="m19.9739,64.7259c-1.4108,1.8769-3.6223,4.2987,14.3001,10.4851,17.9224,6.1864,90.1046,18.4683,122.7465,20.9247,32.6418,2.4564,65.8483.7278,65.8483.7278" style="fill:none; stroke:#687581; stroke-miterlimit:10; stroke-width:.5px;"/><path d="m32.3206,44.8738c-.503-2.5964-.594-3.5061.8617-2.9603s31.8419,12.7367,122.1818,21.4705c0,0,3.73-.182,10.0984,5.1857,0,0,23.433,2.2744,55.7492,3.2752" style="fill:none; stroke:#687581; stroke-miterlimit:10; stroke-width:.5px;"/><path d="m222.8689,65.9177s-45.492-1.5989-67.5048-3.5964c-90.3897-8.2022-120.7262-20.9246-122.1817-21.4705-1.744-.6037-3.9653-1.5165-4.904-2.2922" style="fill:none; stroke:#687581; stroke-miterlimit:10; stroke-width:.5px;"/><path d="m37.0431,53.8016v5.6704s-4.5886,2.5018-7.9548,5.2539c0,0-1.0007.9326,1.1827,1.9333,2.1834,1.0007,15.2841,7.0962,63.5018,15.1021,48.2177,8.006,57.5883,7.668,59.4988,7.3366s15.3751-4.6983,15.3751-4.6983v-15.543" style="fill:none; stroke:#687581; stroke-miterlimit:10; stroke-width:.5px;"/><line x1="37.0431" y1="53.8016" x2="37.0431" y2="59.472" style="fill:none; stroke:#687581; stroke-miterlimit:10;"/><path d="m168.6467,84.3996c16.4668,1.6376,39.9388,2.1834,53.2214,1.6376" style="fill:none; stroke:#687581; stroke-miterlimit:10; stroke-width:.5px;"/><path d="m20.1068,82.5848s-.3325-7.9812-.2494-9.7686c.0831-1.7875.5795-1.6809,2.2447-.9714,8.239,3.5109,17.3013,7.3353,52.885,13.9865,35.5837,6.6512,72.3314,11.2737,75.1582,11.6229s4.8221,2.2125,4.9884,5.0221,1.0808,18.2736,1.2471,20.6015c.1663,2.3279-.6651,4.9052-4.4064,4.4895s-24.985-3.0762-28.58-3.8244-6.1723-5.9029-13.3223-7.3994c-7.15-1.4965-58.0314-13.4241-70.0035-16.8551-1.9316-.5632-2.7712-.9689-3.5195.4445s-1.8846,3.9397-4.0462,3.1914-10.5262-4.0165-10.9454-6.8092" style="fill:none; stroke:#687581; stroke-miterlimit:10; stroke-width:.5px;"/><path d="m42.05,103.6447l-2.2212-.7443c-.6893-.206-1.333-.61-1.9681-.1452-1.0245,1.0684-2.0399,2.3991-3.3272,3.2239,1.2668-1.0243,2.0043-2.3596,3.0133-3.6133.6614-.6658,1.7173-.38,2.4821-.1881,0,0,2.2877.5032,2.2877.5032l-.2666.9637h0Z" style="fill:#687581; stroke-width:0px;"/><path d="m31.9874,6.3164c.0738,10.0354,0,18.0299,6.3711,19.9978,6.371,1.9679,51.1775,11.6843,88.2411,14.5131,6.6844.369,10.8662-3.5668,11.7271-14.0211.8609-10.4544,1.7219-18.5719,1.7219-18.5719" style="fill:none; stroke:#687581; stroke-miterlimit:10; stroke-width:.5px;"/><path d="m27.42,33.6937c19.8923,5.6577,47.2582,13.6522,128.1257,21.6467,15.1896.8609,24.414-5.5347,25.5209-25.3364,1.1069-19.8018,1.4759-23.6875,1.4759-23.6875" style="fill:none; stroke:#687581; stroke-miterlimit:10; stroke-width:.5px;"/><path d="m41.6115,44.6972s-.0701,15.2318,0,16.5758c.0701,1.344.4002,2.0337,2.559,2.9368,10.5145,4.3985,21.5715,7.3914,49.0893,12.4626,27.5178,5.0713,60.6056,9.0797,68.9191,9.5695" style="fill:none; stroke:#687581; stroke-miterlimit:10; stroke-width:.5px;"/><ellipse cx="180.335" cy="110.8305" rx="3.5283" ry="4.1583" transform="translate(-17.7798 36.3009) rotate(-10.9581)" style="fill:none; stroke:#687581; stroke-miterlimit:10; stroke-width:.5px;"/><ellipse cx="180.335" cy="110.8305" rx="1.7946" ry="2.115" transform="translate(-17.7798 36.3009) rotate(-10.9581)" style="fill:none; stroke:#687581; stroke-miterlimit:10; stroke-width:.5px;"/><path d="m179.5022,6.3164s-.9085,17.4823-1.6656,25.5834c-.7571,8.101-5.754,18.852-16.2778,18.7006-10.5238-.1514-16.3535-12.4923-15.975-23.8489.3786-11.3566,1.1357-20.435,1.1357-20.435" style="fill:none; stroke:#687581; stroke-miterlimit:10; stroke-width:.5px;"/><path d="m167.5802,44.32c-9.7646,6.023-17.108-3.4635-18.2984-12.6456-.721-3.8191.0561-9.2736.2409-13.1465,0,0,.8897-13.1042.8897-13.1042l-.64,13.1167c-.1054,3.8536-.7787,9.2975.0026,13.0523,1.2511,8.4834,8.165,17.7412,17.2336,11.9068-.0001,0,.5716.8205.5716.8205h0Z" style="fill:#687581; stroke-width:0px;"/><path d="m174.8839,6.0526s-.6895,19.3314-1.2641,25.4797c-.4041,4.3235-2.3993,9.6415-6.3254,12.3774" style="fill:none; stroke:#687581; stroke-miterlimit:10;"/><path d="m148.9822,5.4238s-.76,9.08-1.14,20.44c-.38,11.35,5.45,23.69,15.98,23.84,1.47.02,2.84-.17,4.1-.55" style="fill:none; stroke:#687581; stroke-miterlimit:10; stroke-width:.5px;"/><path d="m171.6592,38.5586c-2.9811,1.3792-8.5853-1.4748-8.6891-11.5418s0-20.7004,0-20.7004" style="fill:none; stroke:#687581; stroke-miterlimit:10; stroke-width:.5px;"/><path d="m25.5431,26.5598c3.6558,6.4825,3.798-12.4527,3.9903-14.1156,0,0,.2808-6.1278.2808-6.1278.2014,6.1273.232,12.3354-.9286,18.3828-.3817,2.046-1.759,5.4474-3.3425,1.8606h0Z" style="fill:#687581; stroke-width:0px;"/><path d="m116.4485,155.6488c-10.9898-2.9449-21.7579-6.6232-32.387-10.6571-10.5137-4.1911-21.3002-8.2265-30.7105-14.6179,4.6827,3.2246,9.8796,5.5871,15.0644,7.8727,10.4162,4.5039,21.1219,8.3232,31.9316,11.7622,5.4092,1.7048,10.8545,3.2994,16.3502,4.6715l-.2488.9685h0Z" style="fill:#687581; stroke-width:0px;"/><path d="m156.4182,166.093c-5.2404-3.5435-10.3894-7.2123-15.4355-11.0188-4.9501-3.8879-10.2131-7.5564-14.3832-12.3049,1.0053,1.2208,2.212,2.25,3.4006,3.2832,8.5017,7.0432,17.7052,13.2168,26.9655,19.2038,0,0-.5474.8367-.5474.8367h0Z" style="fill:#687581; stroke-width:0px;"/><path d="m79.7143,152.3161c-6.5678-3.5174-12.4355-7.9979-18.3792-12.4207-5.8655-4.4727-11.6483-9.0709-17.0959-14.0466,8.3633,7.2263,17.2976,13.7883,26.4642,19.9519,3.0706,2.0159,6.1851,4.0168,9.443,5.6136l-.4321.9017h0Z" style="fill:#687581; stroke-width:0px;"/><path d="m159.2087,78.9649c2.6507.1225,5.3368.4655,7.9625.5713.8016-.8931.9423-4.1163-.4922-4.4531-.4227-.0333-7.4273-.9026-7.5962-.8714-1.3868.4757-1.6488,4.5267.1258,4.7532-1.9534-.1557-1.8747-4.6432-.1753-5.0998.2366-.0618,7.252.6873,7.7369.727,1.8902.3839,1.7743,4.2388.6402,5.2966-.1315.1139-.3845.1171-.5464.0825-2.553-.3084-5.1123-.6341-7.6554-1.0062h0Z" style="fill:#687581; stroke-width:0px;"/><path d="m146.9127,77.5875c2.4757.1642,4.9503.3762,7.4177.6043.9546-.4089.9665-4.3416-.3342-4.4862-.3607-.0189-7.1814-.9418-7.2861-.8598-1.1902.7072-1.4945,4.429.2024,4.7417-1.7427-.3573-1.5677-3.1348-.9653-4.3975.1391-.256.3155-.5237.6405-.6722.3868-.1018.6169-.0101.9008-.002,2.2063.2137,4.365.4514,6.6049.6997,1.8053.3487,1.7208,4.4716.5131,5.3492-.0818.0525-.2673.0567-.3074.0428-2.4636-.3132-4.9332-.6433-7.3864-1.02h0Z" style="fill:#687581; stroke-width:0px;"/><path d="m134.9131,76.1041c2.3569.1628,4.7553.3932,7.0812.6087.7652-.7613.8893-4.1512-.3849-4.4909,0,0-6.3067-.8209-6.3067-.8209l-.3953-.0562c-1.3285.2119-1.5934,4.5905.0057,4.7592-1.762-.3019-1.6239-4.0744-.455-4.9849.1249-.1095.3198-.1322.489-.1395,2.2649.2253,4.4683.4848,6.7659.7537,1.6919.2651,1.6797,4.7116.3882,5.3827-2.4066-.2291-4.7939-.6563-7.188-1.0119h0Z" style="fill:#687581; stroke-width:0px;"/><path d="m123.2685,74.5299c2.1747.1563,4.3387.3772,6.5028.5989.099-.0038.1488.0476.2082-.0195.6372-.8847.8122-4.0318-.4026-4.4619-.0001,0-6.0666-.8363-6.0666-.8363-.2974-.0538-.4001-.0497-.5679.0896-.8206.9657-1.208,4.1651.3259,4.6293-1.6921-.3586-1.4731-3.8194-.5715-4.879.2005-.252.6553-.2765.8575-.222,2.0499.2245,4.0444.4702,6.1334.7314,1.6567.4586,1.477,4.1997.5641,5.2649-.1026.12-.3716.1471-.5147.1019-2.1597-.3103-4.3203-.6217-6.4687-.9973h0Z" style="fill:#687581; stroke-width:0px;"/><path d="m112.0379,72.8801c2.0917.1626,4.1717.39,6.2521.6177-.0023.0071.0465-.0243.1008-.1101.4764-1.0322.4756-2.3485.2374-3.447-.1107-.4367-.337-.8785-.6702-.9435l-5.8267-.8539c-.3674-.1292-.6132.3879-.7664.8093-.2821.905-.3808,1.9201-.1763,2.8549.1096.4513.3421.9595.8493,1.0726-1.598-.4046-1.3542-3.6334-.6498-4.7452.1173-.2511.5403-.4467.79-.3733,1.9721.2309,3.8844.4814,5.8989.7506,1.5906.5459,1.3104,3.9078.6617,5.1054-.0793.1082-.2217.2973-.4846.2785-2.0758-.3165-4.1525-.6342-6.2163-1.016h0Z" style="fill:#687581; stroke-width:0px;"/><path d="m101.2803,71.1701c1.9485.1552,3.9549.4159,5.8568.6128.562-1.0355.503-2.4427.2859-3.5769-.1019-.4193-.313-.8576-.6145-.9201l-5.5701-.8668c-.1006-.0228-.2629.1329-.3625.3195-.5179,1.026-.9558,3.9297.4043,4.4316-.5062-.0518-.7896-.5746-.9177-1.0174-.2687-.9346-.254-1.9261-.0419-2.8738.1627-.4975.246-1.1455.9276-1.2443,1.936.23,3.7381.4926,5.6866.7681,1.4871.4397,1.3235,4.3767.4418,5.3005-.063.0585-.2437.0965-.3059.0753-1.9346-.3135-3.8683-.6314-5.7903-1.0085h0Z" style="fill:#687581; stroke-width:0px;"/><path d="m91.0542,69.415c1.8138.1687,3.6162.3912,5.4167.6219.5554-.8801.4805-2.5585.2796-3.6086-.0928-.402-.2897-.8367-.558-.8982l-5.2375-.8553c-.8114.651-1.1685,4.3663.099,4.7402-.9641-.2487-.9801-1.5579-1.0514-2.373.0319-.7997.0411-2.9197,1.2318-2.7458.6072.0722,1.7453.2562,2.3626.3416,0,0,2.7319.4119,2.7319.4119,1.4386.5962,1.1401,3.9651.5615,5.1179-.064.0996-.1745.2244-.3133.2489-1.8516-.2446-3.688-.6431-5.5232-1.0015h0Z" style="fill:#687581; stroke-width:0px;"/><path d="m81.4187,67.6301c1.4824.1501,3.5303.4194,5.0243.6272.1621-.2201.2443-.7232.2994-1.1161.062-.9867.2623-2.7675-.5762-3.3973-.8512-.146-3.0006-.5423-3.8241-.6827,0,0-.6437-.1153-.6437-.1153l-.3129-.0597c-.0194-.0093-.0637.0032-.1211.0647-.6316.8053-1.0355,4.2244.1541,4.6791-.9052-.2717-.8986-1.5176-.9821-2.2979.0202-.9218-.0027-1.8216.5461-2.6429.0812-.1002.2431-.2242.4468-.2024.2048.0173.7657.1175.9774.147.8221.1216,3.0578.499,3.9079.6332.3159.0996.4848.3582.5958.5722.4564,1.0628.3849,2.2417.2597,3.3597-.0878.3561-.1489,1.4429-.7725,1.4302-1.6323-.3076-3.3616-.6346-4.979-.9991h0Z" style="fill:#687581; stroke-width:0px;"/><path d="m72.4325,65.8305c1.5187.1712,3.1268.4071,4.6396.6349.3254-1.0058.3993-2.5154.165-3.6709-.0745-.3662-.2471-.7941-.4492-.8518-1.1912-.2276-3.2197-.6273-4.3909-.8508-.5721.5829-.5593,1.672-.6324,2.5142.0241.7329-.0983,1.84.6677,2.2245-1.241-.325-1.1489-4.3527-.2752-5.0741.246-.177.786.0369,1.0585.0543,1.2413.2236,2.4615.4136,3.7345.6597.541.2343.6336.7548.7538,1.2267.1868,1.2999.21,2.564-.263,3.8395-.0628.0846-.1165.2913-.413.292-1.5049-.3066-3.1065-.6365-4.5955-.998h0Z" style="fill:#687581; stroke-width:0px;"/><path d="m64.1544,64.0316c1.3536.1717,2.9367.4217,4.2179.6379.3142-1.042.3537-2.5256.1417-3.7006-.0655-.3481-.2277-.7728-.3976-.8274-1.0487-.2166-2.962-.6334-3.9934-.8439-.4906.6064-.5156,1.7504-.5672,2.5835.0311.6911-.0984,1.7629.5985,2.1505-1.1165-.2028-1.1725-4.9101-.0604-5.1519,1.4429.2346,2.738.5044,4.2008.7953.306.1311.4191.3811.5104.5798.4392,1.3884.3634,2.8708.0094,4.2812-.0831.1904-.1143.4072-.378.485-1.4144-.2474-2.8899-.6451-4.282-.9894h0Z" style="fill:#687581; stroke-width:0px;"/><path d="m56.6433,62.2485c1.2407.1767,2.6301.425,3.8317.6444-.0393-.0006-.0552.016-.0541.0105.2866-.7865.2567-1.7938.2519-2.6493-.0355-.5511-.0753-1.5781-.4625-1.8987-.8828-.2005-2.6885-.633-3.5535-.8291-.0752-.0161-.039-.0064-.0265-.0121-.0814.0702-.1715.2772-.2241.4547-.2882,1.0512-.3605,2.2286-.2386,3.3252.0695.3466.1139.7913.4757.9543-1.0355-.3021-1.0507-4.6687-.1544-5.1338.2141-.0662.351.034.5301.0522,1.1373.2499,2.2101.4506,3.3881.7295.2985.1499.3826.3899.4655.5809.3881,1.326.3105,2.7293.0517,4.0765-.0695.1899-.1041.6352-.4598.6833-1.2379-.2832-2.5908-.6408-3.8212-.9887h0Z" style="fill:#687581; stroke-width:0px;"/><path d="m49.9581,60.4965c1.1146.1838,2.3149.4203,3.4229.6501-.1315.0538-.0096-.0317-.0139-.1011.2371-1.1864.2338-2.4708.0608-3.6692-.0457-.3132-.1896-.7296-.3-.7773-.6893-.1727-2.4219-.6358-3.0898-.8036-.0695-.2022-.2434.2868-.3096.5867-.2214,1.0259-.2872,2.1295-.185,3.183.064.3308.0834.7556.4146.9314-.651-.3525-.5946-1.3475-.7021-1.9937.0103-1.0065-.1521-2.1835.4354-3.0686.08-.098.3007-.1168.4414-.0606,0,0,1.0533.2498,1.0533.2498.7262.1786,1.3505.3062,2.1604.5266.2878.1707.3434.3959.4188.5801.3411,1.4872.3555,3.1296-.1395,4.5816-.0443.0441-.0493.1411-.2434.1666-.1429-.0194-.1906-.0466-.2905-.0695-1.0184-.2781-2.135-.5946-3.1338-.9124h0Z" style="fill:#687581; stroke-width:0px;"/><path d="m44.1575,58.7909c.9827.1906,2.0555.4265,3.0314.6608-.1653.0469-.0358-.0144-.0444-.0886.1822-1.4138.3405-3.1907-.2047-4.4727-.0234-.0219-1.9506-.5618-1.9739-.5796-.2227-.0611-.6354-.1897-.855-.251.0271.0146.0983-.0158.0858-.0166-.101.126-.1986.5374-.2534.8359-.1642.9839-.2214,2.0131-.1391,3.0129.0586.3134.0575.7122.3533.8989-.588-.3856-.5176-1.2756-.6303-1.9.0047-1.0588-.1818-2.2011.374-3.1622.079-.1065.3049-.1183.4403-.0566.1536.0355.5809.161.7407.1998-.0159.0109,2.0462.5407,1.9574.5285.3788.139.4055.3935.4829.5614.3412,1.47.2927,3.0407-.0603,4.5026-.0695.1344-.0633.2936-.3314.2981-.9673-.2972-2.0273-.6347-2.9733-.9716h0Z" style="fill:#687581; stroke-width:0px;"/><path d="m41.5823,57.8839l.3242.0134c.0718-.5407.0438-1.6973.0505-2.2769l-.0052-1.3423c-.0284-.3873.0473-.9447-.2083-1.2367-.1808-.1138-.2255-.1063.0209-.0743.2638.0929.3541.3781.4303.5878.3827,1.3404.3404,2.7927-.0323,4.1304-.0683.1108-.035.2285-.2426.3396-.1451-.0338-.2264-.0909-.3375-.141h0Z" style="fill:#687581; stroke-width:0px;"/><path d="m162.6222,72.8638c2.0383-.1257,4.0533.0858,6.02.64-2.0417.1284-4.0496-.0886-6.02-.64h0Z" style="fill:#687581; stroke-width:0px;"/><path d="m164.9822,68.1738c-.7177.0247-1.429-.005-2.1392-.0431-.6615-.1562-.9417.5583-1.1377,1.1754-.2861,1.1664-.5022,3.0578.9168,3.5578-.7881.0215-1.3235-.7717-1.461-1.4818-.2482-1.1742-.114-2.5994.8016-3.47.1905-.1345.4112-.2131.6481-.2036.7983.1203,1.584.2654,2.3713.4652h0Z" style="fill:#687581; stroke-width:0px;"/><path d="m150.3606,71.461c2.4822.1638,4.963.3755,7.4369.6032.1372.047.2623-.1447.3702-.3782.4176-1.089.6631-3.654-.6959-4.1071-.3664-.0217-7.1971-.9344-7.3088-.8635-1.2028.7021-1.5063,4.435.1975,4.7456-1.7492-.3554-1.5753-3.1425-.9635-4.4059.1374-.258.324-.521.6479-.6694.3917-.0933.6139-.0037.9017.0046,2.2119.2133,4.3765.4508,6.6217.6987,1.809.3371,1.735,4.5074.5004,5.3555-.0887.0536-.2624.0457-.3026.0354-2.4699-.3129-4.946-.6425-7.4055-1.0189h0Z" style="fill:#687581; stroke-width:0px;"/><path d="m138.4724,69.9799c2.3698.1614,4.7822.3933,7.1361.607.072-.0026.2404-.2593.3085-.4794.3097-.9427.3533-2.063.1045-3.0245-.1309-.4723-.396-.9224-.7975-.9852l-6.3409-.8187c-.171-.0067-.5238-.1237-.669.0045-1.0361.8025-1.3647,4.3394.2583,4.6964-1.9268-.1458-1.7549-5.7275.4518-5.0834,2.1392.218,4.2276.459,6.4025.7124.3324.0598.6173.2893.792.5402.7746,1.3461.6664,3.142.0043,4.5109-.0878.123-.1933.2871-.4412.3374-2.4313-.2605-4.7963-.6512-7.2094-1.0175h0Z" style="fill:#687581; stroke-width:0px;"/><path d="m127.0017,68.4322c2.2571.1593,4.5025.3885,6.7491.6143.7348-.7477.8514-4.1464-.3576-4.4967,0,0-6.118-.8329-6.118-.8329-.2971-.0468-.4266-.0658-.5898.0664-.8523.9587-1.2388,4.1909.3162,4.649-1.7148-.3519-1.4964-3.8554-.5536-4.9065.1321-.0928.2579-.2049.4505-.2085,2.2088.1572,4.3536.4931,6.604.7452,1.6609.4068,1.5177,4.3091.5338,5.2958-.1163.1091-.3525.1055-.5117.0676-2.1777-.3091-4.3563-.6192-6.5229-.9936h0Z" style="fill:#687581; stroke-width:0px;"/><path d="m115.9903,66.8317c2.1282.1496,4.2907.4167,6.3865.6067.6448-.8431.7972-4.0598-.3554-4.4896-.0001,0-5.8953-.8486-5.8953-.8486-.4103-.1693-.6416.3525-.8126.7721-.2992.9091-.3994,1.9387-.1907,2.8821.1118.4565.354.9664.8675,1.0773-1.6234-.3888-1.3895-3.6902-.6284-4.7844.1278-.252.5766-.4047.8103-.3289,1.9944.229,3.9302.4781,5.9659.7448,1.5797.3966,1.4641,4.4617.4386,5.3314-.0757.0589-.2695.0625-.2981.0475-2.0997-.3149-4.2003-.6305-6.2883-1.0105h0Z" style="fill:#687581; stroke-width:0px;"/><path d="m105.4803,65.1923c1.9193.1583,3.8282.3706,5.7356.5912.3236.0367.2487.0698.3842-.1522.4036-1.0473.4192-2.3063.1824-3.3951-.1053-.4255-.3216-.8651-.6349-.9276l-5.6755-.8667c-.1224-.0333-.2704.0925-.3876.2776-.5628,1.0181-.9973,3.9856.3958,4.4729-1.5358-.3774-1.2761-3.548-.6969-4.6519.1185-.2099.3507-.5181.7376-.4802,1.9225.2355,3.7838.4902,5.7494.7642,1.4904.3322,1.4099,4.6488.3591,5.3532-.0696.0384-.1901.0318-.2715.0156-1.9636-.3108-3.9263-.6264-5.8777-1.001h0Z" style="fill:#687581; stroke-width:0px;"/><path d="m95.5135,63.5279c1.847.1653,3.6831.3843,5.5173.6116.1754.014.0463.0311.1324-.031.3478-.6637.3664-1.4904.3828-2.234-.0279-.6955-.0582-1.9372-.727-2.2311,0,0-5.382-.863-5.382-.863-.896.5614-1.2137,4.428.0763,4.7475-.9887-.2386-1.0162-1.5747-1.0802-2.405.0327-.8316.0745-2.9598,1.3296-2.7041.6186.0709,1.7779.2529,2.4068.3368,0,0,2.7814.406,2.7814.406,1.4589.5237,1.2113,4.1266.5238,5.1979-.094.1462-.3534.2157-.4824.1607-1.8312-.3073-3.6605-.6229-5.4789-.9924h0Z" style="fill:#687581; stroke-width:0px;"/><path d="m86.1319,61.8523c1.3082.1312,3.9337.4464,5.2343.6261-.0267.0244.0543-.06.0818-.1428.3708-1.0948.3768-2.3559.1572-3.4818-.0881-.3932-.2785-.8261-.5302-.887-.8703-.1432-3.0723-.5348-3.9145-.6726,0,0-.6585-.1133-.6585-.1133l-.3285-.062c-.1326-.0206-.0875-.0247-.1683.0175-.7191.748-1.1072,4.2844.1267,4.716-.9348-.2601-.9391-1.538-1.0168-2.3355.0418-.9439-.0184-1.8851.6556-2.6854.0886-.1144.3791-.1421.461-.11.2043.0176.7789.1175.9911.145.8401.119,3.1257.4903,3.9945.6216.5731.2.727.7672.8527,1.26.2137,1.1392.1708,2.3052-.1252,3.4224-.1265.2785-.1161.5206-.4887.6802-.2167.0194-.2127-.0216-.3951-.0429-1.6134-.2924-3.3304-.6077-4.9291-.9555h0Z" style="fill:#687581; stroke-width:0px;"/><path d="m77.3773,60.179c1.5593.1657,3.2112.3951,4.765.6173.1736.0073.0272.0436.1034-.0157.4021-1.0273.4056-2.4872.1908-3.6228-.0796-.3766-.2587-.8064-.4797-.8655-1.1605-.2107-3.2363-.602-4.3773-.8088-.2808-.0488-.2485-.0964-.3783.0567-.5604.9971-.6209,2.4646-.4598,3.6311.0833.39.2042.8742.6358,1.0077-1.2866-.1466-1.304-5.1518.0279-5.1443,1.5714.2526,3.1108.499,4.7059.7825,1.2352.3267,1.1768,4.8245.2182,5.3544-.1764.0257-.1562-.009-.2294-.012l-.3158-.0618c-1.4383-.2797-2.9844-.5881-4.4069-.9188h0Z" style="fill:#687581; stroke-width:0px;"/><path d="m69.2916,58.5223c1.3879.1638,2.8751.3838,4.2582.6003.2936.0305.1631.1057.2762-.1121.2951-1.0896.319-2.399.1114-3.5336-.0713-.3597-.2401-.7865-.4307-.8431-1.1428-.2256-3.1259-.6274-4.2502-.8496-.5509.6262-.5385,1.6865-.608,2.5401.0279.722-.1006,1.8069.6431,2.198-1.19-.2381-1.1878-4.7312-.1287-5.1401.0699-.0179.1615-.0088.2335.0032,1.4295.262,2.8197.4909,4.2781.7779,1.1614.3842,1.0635,4.688.2302,5.3336-.2388.0535-.224-.0094-.3992-.0286-1.3758-.2887-2.8547-.6067-4.2139-.9462h0Z" style="fill:#687581; stroke-width:0px;"/><path d="m61.9167,56.8958c1.327.1744,2.7469.4058,4.0679.6329.3032-.624.2886-1.7757.285-2.5708-.0357-.573-.0728-1.6341-.5034-1.9529-.9831-.2118-2.9646-.6452-3.8736-.8439-.4924.649-.5003,1.7593-.5541,2.6057.0323.6833-.1,1.7359.5782,2.1291-1.1006-.2794-1.1021-4.6228-.167-5.1287.2931-.063.4335.044.6878.0719,0,0,1.1555.227,1.1555.227.7905.1605,1.4955.2819,2.3563.4745.3042.1362.4089.3839.4977.5803.4223,1.4599.4035,3.088-.0993,4.5315-.0547.0983-.1508.2402-.3181.2364-1.3323-.2842-2.7872-.6414-4.1128-.9929h0Z" style="fill:#687581; stroke-width:0px;"/><path d="m55.2947,50.37c-.8238.2368-.7743,4.5198.0476,4.791.8627.1442,2.7061.5096,3.5807.693,0,0,.1367.0315.1367.0315-.1251-.0154-.1454.0687-.1283.0317.4043-1.2471.4099-2.7101.2328-4.0007-.0895-.3604-.1761-.6975-.5895-.7205-.6881-.2043-2.5606-.6469-3.28-.826h0Zm0,0c.8952.2059,2.7209.5555,3.6017.732.3084.1233.4166.4759.5109.7513.3146,1.4175.4379,2.9655-.0714,4.3438-.0535.1075-.249.2402-.4883.1502-.8837-.2117-2.716-.6334-3.5718-.8751-.3511-.0889-.4881-.4831-.5597-.7728-.2257-1.1393-.1207-2.2722.073-3.3938.0961-.3043.1298-.8729.5057-.9357h0Z" style="fill:#687581; stroke-width:0px;"/><path d="m49.4673,53.789c1.0696.1813,2.2288.4098,3.292.6366.0222.0168.1509.0055.0222.0286-.0314.0243.0327-.0697.0421-.141.2205-1.1837.2225-2.456.05-3.6487-.0444-.3107-.1869-.7264-.2934-.7737l-2.0223-.5354-1.0405-.2745c-.0114-.0067-.1414-.0323-.0707-.0205.0385-.0065.0443-.0211.0309-.0053-.0243.0236-.062.094-.0908.1643-.384,1.1463-.4179,2.4354-.3254,3.6416.0633.3286.0794.7504.4059.928-.3644-.134-.4431-.5763-.5363-.9045-.1869-.6809-.4877-4.533.6824-4.225.7539.1836,1.861.4479,2.6118.6304.2259.0673.318.056.577.1537.2859.1736.3376.3964.412.5797.3466,1.4353.3007,2.9671-.0585,4.3964-.0456.0955-.0379.1854-.2113.3234-.2158.0599-.1744-.0018-.2391.0012-1.0548-.292-2.2026-.6207-3.238-.9552h0Z" style="fill:#687581; stroke-width:0px;"/><path d="m44.4764,52.3363c.8456.1782,2.4105.4827,2.9291.6564.2342-1.342.35-3.3458-.1761-4.5583-.0109-.0125-1.9444-.5679-1.9637-.5813-.2132-.0579-.6232-.1893-.8337-.2462.0652.014.095-.033.0835-.0156-.1062.1434-.1957.5446-.2513.8452-.1608.9813-.2176,2.0061-.1369,3.0027.0582.3123.0557.7094.3491.8971-.5834-.3871-.5128-1.2719-.6252-1.8946.0008-1.0886-.1752-2.1219.3504-3.1464.1447-.2096.4766-.0729.6898-.0146,0,0,.4916.134.4916.134-.0155.0116,2.0378.5434,1.9488.5313.3795.1414.4024.3945.4797.562.3087,1.208.2459,2.4678.1083,3.694-.0504.315-.0876.6363-.2229.9343-.0442.042-.0214.1343-.2316.1742-1.0395-.2925-1.983-.6246-2.9889-.9741h0Z" style="fill:#687581; stroke-width:0px;"/><path d="m41.6022,46.4138c.4055.0705.8983.1801,1.2427.27.5756.2996.5332,1.1108.6347,1.6543.061,1.1664.1176,2.3319-.2932,3.4583-.025.0222-.0495.1489-.2485.1389-.4553-.1662-.908-.3546-1.3456-.5614.4763.0654.9438.1499,1.4099.2572-.1273-.0088-.1056.0512-.1038.0134.1855-1.3082.1575-2.7422.0551-4.0699-.015-.2384-.108-.5684-.1738-.6107-.4002-.1611-.7897-.3529-1.1776-.55h0Z" style="fill:#687581; stroke-width:0px;"/><path d="m163.7422,85.1838c-2.0242-.0507-1.9938-3.6981-.3061-4.3278.9316-.0521,1.7464.1429,2.6506.2352.8544.1173,1.7079.2421,2.5555.4227-1.6781.0688-3.4231-.1226-5.082-.1738-1.2187.5831-1.4509,3.5264.182,3.8437h0Z" style="fill:#687581; stroke-width:0px;"/><path d="m165.6722,85.3638c-.6738.2783-1.3199.2211-1.9301-.18.6633-.2823,1.3297-.2173,1.9301.18h0Z" style="fill:#687581; stroke-width:0px;"/><path d="m152.2965,83.8815c2.3635.0403,5.486.4551,7.6161.4342.7097-.8082.8388-3.273-.5115-3.5502-.0001,0-6.1841-.6712-6.1841-.6712-.3697-.0085-1.09-.2587-1.3841.0445-.9466.8998-1.1506,3.4143.4635,3.7427-1.7533-.1909-1.709-2.9775-.6653-3.9857.1907-.21.5898-.285.842-.2432,2.3448.1762,4.6445.387,7.0098.6202,1.78.3301,1.7386,3.361.6817,4.3932-.1011.1234-.4281.1476-.5061.1232-2.4552-.2744-4.9172-.5559-7.3621-.9077h0Z" style="fill:#687581; stroke-width:0px;"/><path d="m141.0576,82.4896c2.3726.1226,4.7419.3165,7.1061.5167.8552-.4821.8804-3.4155-.3609-3.5702-.3634-.0456-6.592-.7698-6.6859-.7959-.735-.0605-.9788.8489-1.1102,1.4536-.1737.8864-.0304,2.2026,1.0509,2.3958-1.6683-.2205-1.6012-2.8512-.7097-3.885.1639-.2287.5293-.3411.8028-.313,2.2558.1875,4.463.4079,6.7402.653,1.2537.259,1.4134,1.732,1.3031,2.7558-.0932.5805-.2535,1.6855-1.0616,1.7308-2.3598-.2858-4.7261-.5785-7.0749-.9416h0Z" style="fill:#687581; stroke-width:0px;"/><path d="m130.0864,81.0206c2.1591.1244,4.3134.3243,6.4639.5165.1598-.004.2909.0739.369-.0204.6325-.7649.7528-3.1921-.4474-3.4872-.3433-.0465-6.3275-.8042-6.4104-.827-1.2712.1844-1.4633,3.6579.0249,3.8181-1.5929-.2562-1.4846-2.7193-.749-3.7782.1699-.2021.4237-.4061.7556-.3887l.7206.0643c1.9222.1881,3.8025.3903,5.7534.6212.6079.1039.9962.6688,1.1259,1.1569.2362,1.0585.258,2.3033-.5147,3.1626-.1575.1692-.5071.122-.6624.0941-2.1443-.2902-4.2958-.5742-6.4294-.9321h0Z" style="fill:#687581; stroke-width:0px;"/><path d="m119.4391,79.4851c2.1277.1411,4.2489.3579,6.3669.5701.7064-.5664.7654-3.2642-.3417-3.4989,0,0-5.4561-.7601-5.4561-.7601-.4329-.049-.8086-.2371-1.0802.2084-.5908.9423-.8632,3.0832.511,3.4806-1.5047-.2819-1.3905-2.608-.7706-3.6604.1284-.206.3435-.4394.6638-.4606,2.1031.149,4.1103.4511,6.2351.7034,1.5572.3299,1.5051,3.5186.4891,4.3477-.1368.0685-.3174.0677-.4601.0372-2.0538-.3022-4.1148-.5977-6.1572-.9674h0Z" style="fill:#687581; stroke-width:0px;"/><path d="m109.1719,77.8936c2.006.1369,4.0288.4079,6.0123.5852.6015-.64.7013-3.1574-.3478-3.452,0,0-5.2132-.7931-5.2132-.7931-1.5351-.7912-1.8998,3.4982-.4513,3.6597-1.4068-.2819-1.2993-2.5205-.7888-3.5392.1085-.209.28-.4266.5614-.5298.3444-.061.4856.0197.7275.0278,1.7638.2106,3.48.4323,5.276.6877.579.1302.885.6788.9995,1.121.2156,1.0276.2362,2.2192-.4248,3.0938-.0987.1102-.3045.1821-.4659.1434-1.9635-.3144-3.9339-.6229-5.8849-1.0046h0Z" style="fill:#687581; stroke-width:0px;"/><path d="m99.341,76.2567c1.8785.1538,3.7684.4138,5.6318.6187.2805-.278.3804-1.0337.3939-1.4962.0087-.6399-.0443-1.7198-.7227-1.9272,0,0-4.9699-.828-4.9699-.828-.1217-.0066-.4151-.1129-.5115-.0325-.8322.6102-1.0567,3.3348.1782,3.6652-1.5499-.1361-1.434-4.6032.3869-4.0135,1.6849.2229,3.3186.4552,5.0376.7245,1.4197.4805,1.224,3.0226.6327,4.0661-.0808.1005-.1827.2449-.4183.2586-1.8974-.2945-3.7599-.649-5.6388-1.0356h0Z" style="fill:#687581; stroke-width:0px;"/><path d="m90.0029,74.5849c1.7433.1634,3.5667.4381,5.2501.6471.4597-.7131.4208-1.8464.236-2.6644-.0944-.3544-.2856-.6696-.5452-.7255l-4.7262-.8657c-.1807-.0289-.2841-.0898-.4313.0108-.6773.7564-.9597,3.1703.2164,3.5978-1.3414-.3272-1.2237-3.018-.4431-3.8649.1112-.0795.227-.1577.3905-.1538,1.7241.2019,3.3691.5065,5.1261.7943,1.3232.3869,1.2334,3.4655.3983,4.2249-.1347.0739-.2981.0656-.4298.0295-1.685-.3217-3.3705-.6438-5.0419-1.03h0Z" style="fill:#687581; stroke-width:0px;"/><path d="m81.2137,72.8888c1.5994.1761,3.3675.4572,4.8622.6784.4264-.7531.3877-1.8245.2086-2.6561-.0859-.3377-.262-.6491-.493-.7035l-4.4817-.9065c-.2805-.1493-.4438.207-.5825.5354-.2574.9061-.5584,2.5526.4863,3.0524-1.1547-.3593-1.0255-2.2014-.786-3.1525.1055-.3561.3317-.8621.7987-.834,1.5812.2454,3.0929.5211,4.7101.8273,1.2306.3664,1.1703,3.5622.3187,4.2046-.096.0379-.2386.045-.2582.0285-1.5993-.3363-3.199-.6733-4.7832-1.074h0Z" style="fill:#687581; stroke-width:0px;"/><path d="m73.0298,71.1789c1.4495.189,2.8851.4312,4.3186.6815.2677.0321.101.077.2252-.0802.2894-.7839.2943-1.7312.1147-2.5415-.0779-.3182-.2414-.6353-.4394-.6865l-4.2401-.9442c-.7473.2351-.9557,3.3206.021,3.5709-1.0694-.3827-.9417-2.1016-.7691-3.0202.123-.3987.241-.9537.8214-.9283,1.4494.264,2.8314.5435,4.3255.8482,1.1332.3542,1.0922,3.6427.2535,4.1833-.0594.0331-.1775.0283-.24.008-1.4696-.3411-2.9379-.6871-4.3912-1.0909h0Z" style="fill:#687581; stroke-width:0px;"/><path d="m65.5072,69.4657c1.391.2088,2.7654.4748,4.1388.7441-.0146-.0101-.0371.0035-.0413-.0001-.0212.0118-.0015-.001.0087-.0226.0271-.0405.0563-.1118.0781-.1835.2075-.8536.3884-2.5089-.3308-3.1042-.0001,0-3.9114-.9621-3.9114-.9621-.3786.2488-.4929,1.2096-.5189,1.7075-.0121.6159-.0617,1.4963.5767,1.8209-.7142-.2304-.7655-1.1885-.8219-1.823.0159-.66.005-2.2809,1.0191-2.0619.4565.0844,1.3101.2889,1.7732.3863,0,0,2.0588.465,2.0588.465.4943.2334.5835.6797.6791,1.0217.1569.9848.201,2.0706-.2803,2.9708-.0541.0852-.2079.1964-.349.1676-1.3669-.3503-2.7306-.7127-4.0791-1.1266h0Z" style="fill:#687581; stroke-width:0px;"/><path d="m58.7024,67.7598c1.1557.2147,2.7472.5155,3.7085.7782.2933-.7667.2848-1.8206.1218-2.645-.0612-.2846-.2029-.5925-.3443-.6398-.8683-.2375-2.4182-.6725-3.2721-.9065,0,0-.2352-.0708-.2352-.0708-.0531.0033-.0048-.0184-.0544.0129-.3382.3762-.4049,1.1873-.4379,1.7241-.0002.586-.067,1.4069.5135,1.7469-.3374-.0858-.5001-.4513-.596-.7572-.2194-.9856-.3462-2.1166.276-3.0109.0699-.0946.2987-.1372.3953-.1059,1.2149.2948,2.3699.5799,3.6069.9082.4665.2572.5221.6697.6138.996.1318.6807.1166,1.3539.0264,2.0336-.0795.3347-.1029,1.0322-.5953,1.0855-1.1998-.3327-2.5258-.7406-3.727-1.1492h0Z" style="fill:#687581; stroke-width:0px;"/><path d="m52.6715,66.0717c1.0486.2211,2.4736.5509,3.3505.8047-.0194.0011-.0363.0136-.0363.0136.1981-.5002.2063-1.1754.1936-1.7729-.0242-.4446-.0667-1.2477-.3911-1.4932-.8645-.263-2.3147-.7176-3.1594-.9983-.2737.3335-.3876,1.1771-.4076,1.7739.0098.557-.0706,1.3182.4503,1.6723-.892-.318-.9524-3.3341-.1739-3.8269.1314-.0366.2457-.02.355.015,1.0678.2997,2.0641.5695,3.1555.9153.6844.526.5756,1.2274.6433,1.9312-.0203.6432-.0168,1.2559-.304,1.9181-.0475.0825-.1269.1903-.2484.2139-.1439.0222-.243-.0575-.3584-.0827-1.0057-.3338-2.0846-.7011-3.069-1.0839h0Z" style="fill:#687581; stroke-width:0px;"/><path d="m47.4709,64.4121c.9694.2354,2.091.5575,3.0004.8334-.0824.0114-.0763.0295-.0714.0171.2217-.855.3221-2.5147-.1847-3.2417-.7414-.2577-2.0764-.7445-2.7997-1.014.1222-.048-.0311.0331-.0577.1581-.1937.4908-.2532,1.0876-.2721,1.6508.0123.5259-.0779,1.2394.3852,1.5965-.2941-.1037-.4012-.4433-.4832-.7136-.2083-.9484-.2885-1.9856.1241-2.9133.165-.3148.5588-.1466.8231-.0531.8577.2814,1.6351.5264,2.5244.8527.401.2993.4067.6384.4883.9357.1378.9112.1211,1.7953-.1285,2.7002-.0764.1635-.0943.3558-.3591.3818-.998-.3385-2.0231-.776-2.9889-1.1904h0Z" style="fill:#687581; stroke-width:0px;"/><path d="m43.1567,62.7915c.8286.2426,1.711.5389,2.5254.8278.0427.0382.2091.0199.0177.0642.1832-.8738.2689-2.4589-.1729-3.2289-.6014-.2449-1.82-.7609-2.4031-1.0156,0,0-.0402-.017-.0402-.017.0168.011.0393.0042.0553.004-.1701.4197-.303,1.2067-.302,1.8433.0132.4996-.0798,1.1527.3196,1.5222-.2674-.1176-.3508-.4372-.4272-.6919-.1852-.9684-.3165-2.0388.1323-2.9666.0518-.0811.234-.1686.3607-.1148.8868.339,1.6646.6267,2.5803,1.0198.3567.3184.3461.6178.4193.9019.1232.8477.0982,1.6838-.0779,2.5269-.0481.1407-.0877.523-.3811.5342-.8671-.3397-1.769-.7944-2.6065-1.2094h0Z" style="fill:#687581; stroke-width:0px;"/><path d="m149.2305,114.4776s-2.07.15-8.86.7c-.36.03-.73.05-1.11.07-.87.03-1.79.02-2.74-.01-.41-.01-.83-.03-1.25-.05-.39-.02-.79-.05-1.19-.08-.53-.04-1.07-.08-1.6-.13-.36-.04-.71-.07-1.07-.11-2.01-.21-3.96-.48-5.6-.71-1.34-.2-2.48-.38-3.29-.5-.17-.02-.32-.04-.45-.06-.18-.02-.34-.04-.47-.05-.07-.01-.13-.01-.18-.01-.05-.01-.09-.01-.13-.01-1.31,0-2.56-1.58-2.56-1.58-.06-1.01,0-3.77,0-3.77v-.01" style="fill:none; stroke:#aebbc7; stroke-miterlimit:10;"/><path d="m145.5044,108.3553c.2527-2.1256.6178-3.1906,2.2002-2.9168,1.5824.2739,1.9475,2.9517,1.9475,4.1689s-.213,5.1661-.2739,5.6565-1.2172,1.4068-3.4386-.436" style="fill:none; stroke:#aebbc7; stroke-miterlimit:10;"/><path d="m132.0563,97.0942c5.8149.7501,11.5914,1.4413,17.426,2.3177,2.3019.519,3.8185,2.7948,3.7242,5.1055.2269,3.983.6658,11.3797.8615,15.3396.5089,4.6152-1.0943,5.2611-5.3559,4.5709,0,.0001-4.3599-.5116-4.3599-.5116-5.8131-.6841-11.6224-1.4004-17.4275-2.1428,5.826.5586,11.6481,1.1432,17.4662,1.7601l4.3634.4641c3.9948.5718,5.3277.2855,4.8361-4.1267-.171-2.7786-.5625-10.2696-.7113-13.1451-.1201-1.2187,0-3.1431-.4674-4.2727-.4811-1.3185-1.6741-2.2895-3.0325-2.6728l-17.3229-2.6865h0Z" style="fill:#687581; stroke-width:0px;"/><path d="m19.0533,83.0092s-.4773.0997-1.2169,1.2945c0,0-.089,1.4013,0,2.8694,0,0,1.5125,2.0019,6.6729,3.4922,0,0,8.964.3336,11.255.1779" style="fill:none; stroke:#aebbc7; stroke-miterlimit:10;"/><path d="m19.0533,83.0092s2.9248-.8477,8.3667-1.224c1.2022-.0831,1.9088,1.538,2.2413,3.1591" style="fill:none; stroke:#aebbc7; stroke-miterlimit:10;"/><path d="m21.5556,83.3632c1.8047.2924,3.4488.7884,5.2357.7969,2.9662.1172,5.9811.3002,8.9282.6475l-.0565.9984c-2.4011-.041-4.8002-.1836-7.1915-.3854l-1.7925-.1599c-1.8473-.0956-3.6675-.776-5.1234-1.8975h0Z" style="fill:#aebbc7; stroke-width:0px;"/><path d="m18.6459,84.9443s4.4477,2.1199,6.6508,2.2031,10.3946.2868,10.3946.2868" style="fill:none; stroke:#aebbc7; stroke-miterlimit:10; stroke-width:.5px;"/><path d="m21.0152,77.1296c.0407-.9169-.4355-2.3597.2831-3.0815.2368-.1418.4901-.1016.6994-.0618,1.9577.6492,3.7422,1.6831,5.7057,2.2854,1.5368.5318,3.1058.974,4.6833,1.3814,1.8791.2749,3.4913,1.5946,3.4367,3.598.2418,3.2317.6251,6.5034.8764,9.7664.1446,2.4256.7654,5.2985-.6916,7.4808-.5445.6918-1.0674,1.3095-1.6086,1.9613-.9458.7433-2.1034.7467-3.0889.4686-1.8877-.5947-3.6333-1.4351-5.3514-2.3876-.8323-.494-1.7008-.9945-2.3252-1.7497,1.4422,1.2868,3.3355,1.9368,5.1051,2.6566,1.5819.5223,3.7004,1.6725,5.1625.4921.8126-1.1154,2.0506-2.3966,2.1079-4.0355.206-1.346-.1547-3.4206-.249-4.7999-.3355-3.2618-.6597-6.5054-.8526-9.8108.0733-1.6871-1.2443-2.5658-2.7478-2.8246-1.5784-.4689-3.1427-.9919-4.6789-1.5957-1.9368-.68-3.6979-1.7979-5.5549-2.5967-.1802-.0514-.3699-.078-.4975-.0084-.5857.6629-.2936,1.9845-.4137,2.8613h0Z" style="fill:#687581; stroke-width:0px;"/><path d="m122.4322,113.6538c-.56-.07-.95-.12-1.14-.12-1.32,0-2.56-1.59-2.56-1.59-.06-1,0-3.77,0-3.77.49-1.1,0,0,0,0l6.36-3.14c.02,0-.37-.15-.73-.27.13.04.25.08.36.12.13.05.25.1.37.15.12.07.24.13.34.19.08.05.16.1.23.15.06.04.11.08.16.12.05.05.1.09.15.13.14.13.26.26.36.39.04.05.07.09.1.14.06.09.12.18.16.27.02.04.05.09.07.13.06.14.11.27.14.39.03.08.05.16.06.23.08.37.06.66.05.76.32.04.64.08.95.12.95.12,1.87.24,2.68.33.75.08,1.49.15,2.21.2.57.05,1.14.08,1.68.11.41.02.82.04,1.21.05,1.59.05,3.01.06,4.15.04,1.15-.02,3.6-.23,5.71-.43v-.01c.25-2.11.62-3.18,2.2-2.91,1.58.28,1.95,2.96,1.95,4.17,0,1.22-.21,5.17-.27,5.66s-1.22,1.41-3.44-.44l-.01-.1c-1.34.11-3.15.25-5.56.45-2.48.2-5.52.04-8.45-.25-1.08-.11-2.14-.23-3.15-.36-.36-.05-.71-.1-1.05-.14-.46-.06-.9-.13-1.33-.19-.2-.03-.41-.06-.6-.09-.2-.02-.39-.05-.58-.08-.82-.12-1.56-.23-2.16-.32-.23-.03-.43-.06-.62-.09Z" style="fill:none; stroke-width:0px;"/><path d="m149.2305,114.4776s-2.07.15-8.86.7c-2.33.19-5.14.05-7.89-.2-.36-.04-.71-.07-1.07-.11-2.01-.21-3.96-.48-5.6-.71-2.33-.35-4.05-.63-4.52-.63-1.31,0-2.56-1.58-2.56-1.58-.06-1.01,0-3.77,0-3.77v-.01" style="fill:none; stroke:#aebbc7; stroke-miterlimit:10;"/><path d="m149.2801,108.4729c-7.0649,1.0295-14.2974,1.3208-21.3439.0654-2.3423-.3684-4.7126-.5729-6.9752-1.4565,2.4286-.2474,4.7493.1842,7.098.4519,6.7672,1.0583,14.3083.6414,21.113-.0551,0,.0002.108.9943.108.9943h0Z" style="fill:#aebbc7; stroke-width:0px;"/><path d="m118.7257,108.512s10.9947,1.5215,13.6726,1.7649,10.4679.426,16.554-.4565" style="fill:none; stroke:#aebbc7; stroke-miterlimit:10; stroke-width:.5px;"/><path d="m131.4106,114.954c-.8901-.0901-1.77-.2-2.6101-.3101-1.0699-.1299-2.08-.27-2.99-.3999-.38,1.28-1.8,3.3599-4.27,2.21-2.0599-1.8-4-4.6301-5.1799-7.01.47-.25,1.34-.6799,2.37-1.1799v-.01c.7-.3401,1.47-.71,2.24-1.0801.99-.47,1.97-.9399,2.76-1.3201,1.0599,1.0701,1.67,1.53,1.95,2,1.2001.1602,2.4801.3301,3.64.47.4299.0601.8401.1101,1.22.1501.64.0701,1.28.1299,1.9.1799-.62-7.04-5.66-9.4299-6.4401-9.6299-.7699-.1902-3.1499-1.1602-4.21-1.55-1.0699-.3901-2.1399.6299-2.1399.6299l-.24.78c-.24.77.8298,1.9399,3.4399,5.1802,0,0-2.9-.02-5.79-.04-2.46,0-4.8999,0-5.55.04-2.26.1399-2.0599,2.6499-2,3.1599-1.24-.1301-2.48-.1599-3.1799-.03-.77-.1101-1.4199.04-1.6899.3501h-.01c-1.01.1399-1.72.5698-1.8101,1.1799-3.9299-.3201-8.37.5598-12.99,1.47-1.2.24-2.4.47-3.6.6899-2.6901.49-4.9.9199-6.8199,1.29h-.02c-.4501-.3799-1.04-.5801-1.6401-.51l-10.2,1.25c-.79.0901-1.3999.6301-1.62,1.3401-13.8199,1.8398-86.6,10.5898-87.47,10.7l.97,3.1699c.2201-.03,72.9901-8.78,87.3199-10.6799.4601.4099,1.0701.6399,1.7101.5601l10.2001-1.24c.45-.05.8499-.26,1.1399-.5601,6.02-.21,12.99.0601,18.6201.3101,1.74.0898,3.2999.1599,4.6799.21.24.4199.72.8098,1.35,1.1299l.01.5701c.01.52.84,1.0701,1.85,1.21,1.01.1602,1.8201-.1499,1.8201-.6599l-.01-.4402c.75-.0898,1.33-.3298,1.6899-.6599.5-.47.75-.79,1.22-1.05,1.1201.3901,4.8901,5.0701,5.3301,5.75.4299.6802,4.22,5.28,8.48,3.5901,3.96-1.5801,6.28-5.48,7.64-11.0999-.36-.04-.7101-.0701-1.0699-.1101Zm-33.4001-1.6201c-1.8199-.0798-3.76-.1799-5.74-.26,4.25-.8298,8.27-1.52,11.51-1.0999.2001.1399.42.27.66.3899h.01c.58.27,1.25.49,1.99.5901.27.04.53.0601.78.0701h.01c.34.1599.85.3699.7999.5098.0901.3701-2.1699.1001-3.5599.0601-.34-.01-.6901-.02-1.0599-.04-1.7301-.0498-3.6001-.1399-5.4001-.22Z" style="fill:#404d59; stroke-width:0px;"/><path d="m109.5188,107.2227s-.5188-3.0929,1.9938-3.2471c1.4037-.0861,11.3411,0,11.3411,0,0,0,2.6172.1858,2.7141.9168,0,0-7.4638,3.5421-9.2086,4.4629s-4.0227,1.454-3.635-3.1503l-1.5994-.3877s-.9285.2196-.5105,1.4053" style="fill:none; stroke:#aebbc7; stroke-miterlimit:10;"/><path d="m122.8538,103.9756c-2.6172-3.2472-3.6834-4.4104-3.4411-5.1859l.2423-.7755s1.0663-1.0178,2.1325-.6301c1.0663.3877,3.4411,1.3571,4.2166,1.5509s5.8644,2.6172,6.446,9.7417" style="fill:none; stroke:#aebbc7; stroke-miterlimit:10;"/><path d="m111.0303,116.7301c1.12.39,4.8902,5.0775,5.3302,5.7575.43.68,4.22,5.28,8.48,3.59,3.96-1.58,6.28-5.48,7.64-11.1" style="fill:none; stroke:#aebbc7; stroke-miterlimit:10;"/><path d="m116.8072,109.1332c1.6459,2.7887,5.7075,9.5387,9.4598,8.415,1.3743-.5736,2.0842-2.1693,2.6936-3.4916-.1348.7822-.329,1.5669-.6762,2.3113-3.6871,6.6643-10.7628-2.9105-12.3731-6.7902,0-.0001.8959-.4444.8959-.4444h0Z" style="stroke-width:0px;"/><path d="m120.1446,97.9135c1.0037,2.2194,3.646,3.0365,5.4953,4.4688,2.0621,1.3952,4.0002,3.6505,3.6598,6.2946.1487-2.633-1.826-4.6338-3.9364-5.8782-2.1167-1.4114-5.113-2.1148-6.1982-4.6835,0,0,.9795-.2017.9795-.2017h0Z" style="stroke-width:0px;"/><path d="m125.6805,107.7676c-.28-.47-.89-.93-1.95-2" style="fill:none; stroke:#aebbc7; stroke-miterlimit:10;"/><path d="m121.5405,116.3676c2.47,1.15,3.89-.93,4.27-2.21" style="fill:none; stroke:#aebbc7; stroke-miterlimit:10;"/><path d="m114.1306,110.6376c3.0445,5.1925,10.7155,16.4286,15.8949,7.1442.5437-.9235.9875-1.9095,1.385-2.9142-.6418,2.0425-1.4506,4.1509-3.1029,5.6804-5.8724,4.7899-11.9694-5.4218-14.177-9.9104h0Z" style="stroke-width:0px;"/><path d="m112.7243,106.2051s.0966-2.2618,4.362-2.2489" style="fill:none; stroke:#aebbc7; stroke-miterlimit:10;"/><ellipse cx="114.9053" cy="107.2227" rx=".7755" ry="1.4542" style="fill:none; stroke:#aebbc7; stroke-miterlimit:10;"/><path d="m104.643,107.4513c-1.0224.1376-1.7343.567-1.8249,1.1803-.0132.047-.0173.0987-.0169.1525l-.0019.0186c.0007.0394.0061.0811.0081.1309l.0329,1.5823c.009.4728.3587.955.9386,1.3669.1969.1375.423.2701.6664.3869.5734.2769,1.254.4904,1.9936.5968.2741.0395.5348.0576.7818.0689.9486.0206,1.7453-.1956,2.2583-.5099.566-.3512,1.1348-.6131,1.6664-.7814.5374-.0728.9605-.0368,1.3077.1075" style="fill:none; stroke:#aebbc7; stroke-miterlimit:10;"/><path d="m112.4532,111.7517c2.8638,1.2909,1.4514,4.5209-.7941,4.6957" style="fill:none; stroke:#aebbc7; stroke-miterlimit:10;"/><path d="m111.6581,116.4483c-.9367.3275-1.1655.6978-1.8471,1.3363-.3557.3247-.945.5724-1.6931.6552-.4738.0666-1.0068.0651-1.5792-.0224-.7751-.1102-1.5019-.3467-2.0916-.6524-.6259-.3188-1.1088-.7154-1.3436-1.134" style="fill:none; stroke:#aebbc7; stroke-miterlimit:10;"/><path d="m104.4637,113.0426c-.4275.0868-.792.2251-1.0516.4191" style="fill:none; stroke:#aebbc7; stroke-miterlimit:10; stroke-width:.5px;"/><path d="m104.5305,108.6133c.0096.5193.8386,1.0606,1.8515,1.209s1.8263-.1524,1.8167-.6717l-.0155-.8356c-.0096-.5193-.8386-1.0606-1.8515-1.209s-1.8263.1524-1.8167.6717l.0155.8356Z" style="fill:none; stroke:#aebbc7; stroke-miterlimit:10;"/><polyline points="108.1158 112.8807 108.1253 113.3763 108.123 113.4905 108.1315 113.5223" style="fill:none; stroke:#aebbc7; stroke-miterlimit:10; stroke-width:.5px;"/><polyline points="104.4705 113.4978 104.4637 113.0426 104.446 112.2709" style="fill:none; stroke:#aebbc7; stroke-miterlimit:10; stroke-width:.5px;"/><path d="m108.1178,118.4399l.0106.4386c.0058.5123-.805.8204-1.8212.6666-1.006-.1466-1.8398-.6911-1.8476-1.2113l-.0126-.5687" style="fill:none; stroke:#aebbc7; stroke-miterlimit:10;"/><path d="m108.1833,108.3149c.0096.5193-.8038.8201-1.8167.6717s-1.8419-.6896-1.8515-1.209" style="fill:none; stroke:#aebbc7; stroke-miterlimit:10; stroke-width:.5px;"/><path d="m108.1833,108.3149c.0096.5193-.8038.8201-1.8167.6717s-1.8419-.6896-1.8515-1.209" style="fill:none; stroke:#aebbc7; stroke-miterlimit:10; stroke-width:.5px;"/><path d="m102.8002,108.8003c.0188,1.0152,1.6392,2.0732,3.6193,2.3633,1.1485.1682,2.1658.0411,2.814-.2935,0,0,1.7968-1.3754,4.8963-.8511" style="fill:none; stroke:#aebbc7; stroke-miterlimit:10; stroke-width:.5px;"/><path d="m79.192,112.1306c.0725-.0174.1434-.0307.2143-.0441,1.9254-.3739,4.1361-.8051,6.827-1.2889,1.1976-.2207,2.4016-.4577,3.5995-.6929,4.6142-.9075,9.056-1.7939,12.9854-1.4731" style="fill:none; stroke:#aebbc7; stroke-miterlimit:10;"/><path d="m-21.5353,124.8629c.8698-.1114,73.7417-8.869,87.4928-10.7008" style="fill:none; stroke:#aebbc7; stroke-miterlimit:10;"/><path d="m-20.5698,128.0335c.2186-.0273,73.7941-8.877,87.5498-10.7064" style="fill:none; stroke:#aebbc7; stroke-miterlimit:10;"/><path d="m103.7769,111.8827c-3.2342-.4206-7.261.2712-11.504,1.1043" style="fill:none; stroke:#aebbc7; stroke-miterlimit:10;"/><path d="m92.2729,112.987c1.9787.0764,3.9137.173,5.7382.2549,1.7984.0761,3.6672.1705,5.401.2198.3649.0164.7138.0342,1.0585.0361,1.3892.0474,3.6476.3171,3.5572-.0549.057-.1433-.4698-.3498-.8067-.5071" style="fill:none; stroke:#aebbc7; stroke-miterlimit:10;"/><path d="m79.9304,112.8004c4.1778-.1257,8.1634.0299,12.3432.1882" style="fill:none; stroke:#aebbc7; stroke-miterlimit:10;"/><path d="m111.1455,111.6441c.4155.2614.7682.5158,1.067.7823.812.7085,1.203,1.4308,1.1234,2.2642-.0245.2268-.079.419-.158.604l.0013.0104c-.3622.7604-1.3039,1.1627-3.1807,1.3316-.5322.0461-1.1348.0765-1.8259.0821-.0032.0081-.0169.0013-.0277.0008-.4103.0144-.8525.0128-1.3299.0033-.0169.0013-.0293.0049-.0599-.0007-1.0533-.0047-2.2597-.0372-3.6545-.0907-1.3795-.0507-2.9367-.122-4.6811-.204-5.6275-.2577-12.6033-.521-18.6162-.3177" style="fill:none; stroke:#aebbc7; stroke-miterlimit:10;"/><path d="m78.6572,116.6759l-10.1988,1.2409c-1.1336.1379-2.2208-.6932-2.4285-1.8563l-.1583-.8867c-.2077-1.1631.543-2.2178,1.6765-2.3557l10.1988-1.2409c1.1336-.1379,2.2208.6932,2.4285,1.8563l.1583.8867c.2077,1.1631-.543,2.2178-1.6765,2.3557Z" style="fill:none; stroke:#aebbc7; stroke-miterlimit:10;"/><path d="m112.7047,107.7776c-1.4378-.5921-4.9877-.9211-6.3717-.6716" style="fill:none; stroke:#aebbc7; stroke-miterlimit:10;"/></svg>