<?xml version="1.0" encoding="UTF-8"?><svg xmlns="http://www.w3.org/2000/svg" width="654" height="210" xmlns:xlink="http://www.w3.org/1999/xlink" viewBox="0 0 654 210"><defs><clipPath id="uuid-c62651da-d31f-49df-934f-d2aac6666ca1"><rect x="3" y="18.7613" width="196.43" height="181.4812" style="fill:none; stroke-width:0px;"/></clipPath><clipPath id="uuid-c6e5a181-5eaf-4536-99d8-ae605471fa77"><rect x="221.2128" y="18.7613" width="196.43" height="181.4812" style="fill:none; stroke-width:0px;"/></clipPath><clipPath id="uuid-750e4df7-f464-424f-afbb-56a76ba706c9"><path d="m246.8173,185.1509h139.577c18.3111,0,20.2346-13.5824,20.2346-17.8803v-40.5742c0-8.4513-.4143-18.9147-2.7284-29.9819-2.314-11.0671-10.9665-16.0976-14.9909-19.1711-4.0244-3.0735-39.0368-28.7193-46.8844-34.3535-7.8476-5.6342-14.4464-8.4513-20.8705-8.4513h-43.7213l-36.0087,3.153s-10.9086,13.7347-11.6002,14.3799-3.8134,38.9734-4.2473,41.6806,21.2401,91.1988,21.2401,91.1988Z" style="fill:none; stroke-width:0px;"/></clipPath><clipPath id="uuid-3e1fc14b-3bda-46b7-8d67-bae80486c781"><rect x="443.5557" y="18.7613" width="196.43" height="181.4812" style="fill:none; stroke-width:0px;"/></clipPath><clipPath id="uuid-668ac0ca-223d-414d-a2fc-cc4054e5d16f"><path d="m473.003,185.1509h139.577c18.3111,0,20.2346-13.5824,20.2346-17.8803v-40.5742c0-8.4513-.4143-18.9147-2.7284-29.9819s-10.9665-16.0976-14.9909-19.1711-39.0368-28.7193-46.8844-34.3535c-7.8476-5.6342-14.4464-8.4513-20.8705-8.4513h-43.7213l-36.0087,3.153s-10.9086,13.7347-11.6002,14.3799-3.8134,38.9734-4.2473,41.6806,21.2401,91.1988,21.2401,91.1988Z" style="fill:none; stroke-width:0px;"/></clipPath></defs><g id="uuid-d75a3e2f-057d-4d12-a39b-9db256551060"><g style="clip-path:url(#uuid-c62651da-d31f-49df-934f-d2aac6666ca1);"><path d="m55.1903,185.1509c-.0747-.2242-3.3696-15.7023-4.4531-21.2293-.2129-1.0859.6188-2.0942,1.7254-2.0942h110.1418c4.9819,0,9.1335-.0923,14.7612-3.598,5.6277-3.5058,12.3625-7.9342,12.3625-7.9342" style="fill:none; stroke:#404d59; stroke-linecap:round; stroke-linejoin:round;"/><path d="m52.4625,161.8274l-3.4273-8.1187s-1.6606-.369-3.0445-1.1993c-1.3839-.8303-9.8716-7.8419-9.8716-7.8419,0,0-1.9374-1.3839-.5535-3.6903,1.3839-2.3064,11.5322-14.669,11.5322-14.669,0,0,2.3987-2.491,6.458-2.491h65.9557c.4575,0,.9029.1468,1.2708.4188l1.5614,1.1546c.545.403.8666,1.0407.8666,1.7186v4.6298c0,.1926-.0247.3795-.076.5651-.4173,1.5086-2.4493,8.7809-3.522,11.2563l7.6574,18.267" style="fill:none; stroke:#404d59; stroke-linecap:round; stroke-linejoin:round;"/><path d="m119.6122,143.5604h-53.1404c-3.6903,0-5.8122.4613-8.2109,2.2142-2.3987,1.7529-9.2258,7.9342-9.2258,7.9342" style="fill:none; stroke:#404d59; stroke-linecap:round; stroke-linejoin:round; stroke-width:.5px;"/><path d="m36.1191,144.6675l11.9012-14.2999s2.9522-3.1368,8.1187-3.1368h67.0713" style="fill:none; stroke:#404d59; stroke-linecap:round; stroke-linejoin:round; stroke-width:.5px;"/><path d="m61.9512,117.3592s-7.7282-16.3296-12.075-21.3115c-4.3468-4.9819-9.3288-6.3658-9.3288-6.3658v-1.4761s3.6903.1845,3.0445-3.229c-.6458-3.4135-3.5058-11.4399-6.7348-18.1747,0,0-1.9374-2.7677-7.6574-2.7677v-1.2916h8.0264s2.86-1.8452,2.86-5.3509v-16.4219c0-1.8452-2.0115-4.1516-5.019-4.1516h-5.0371c-1.4761,0-4.3361,1.0148-4.3361,4.9819,0,0-1.4761.8303-2.491,1.9374-1.0148,1.1071-4.9819,24.2637-4.9819,29.9837v14.2077c0,1.9374,1.5684,4.4284,2.86,6.3658,1.2916,1.9374,7.2884,10.5174,9.318,17.898,2.0297,7.3806,7.248,25.9147,7.248,25.9147" style="fill:none; stroke:#404d59; stroke-linecap:round; stroke-linejoin:round;"/><path d="m29.1998,62.7427c-1.4116,0-4.3231-.9533-4.1411-3.9255s.6353-17.017.6353-17.017" style="fill:none; stroke:#404d59; stroke-linecap:round; stroke-linejoin:round; stroke-width:.5px;"/><path d="m18.2694,72.4007c-.0483,1.3207,1.5121,3.5218,1.8154,6.0694s1.1525,5.1558,2.4263,6.369,2.7296,2.8509,5.9444,3.1541c3.2148.3033,12.092.2127,12.092.2127" style="fill:none; stroke:#404d59; stroke-linecap:round; stroke-linejoin:round; stroke-width:.5px;"/><path d="m18.2211,77.5433c.5472,4.8525,2.9555,9.2366,5.3818,11.6023,2.4263,2.3656,8.4919,11.6461,10.1297,15.5281s9.3251,26.6037,9.3251,26.6037" style="fill:none; stroke:#404d59; stroke-linecap:round; stroke-linejoin:round; stroke-width:.5px;"/><path d="m20.5738,55.582c-.3324,1.9572-.9743,7.2386.6635,9.6042s3.7607,7.8247,4.246,10.6756,1.6419,9.2198,1.6419,9.2198c0,0,.5229,2.3363-.9841,2.3813" style="fill:none; stroke:#404d59; stroke-linecap:round; stroke-linejoin:round; stroke-width:.5px;"/><rect x="30.5784" y="41.2874" width="4.7919" height="13.0412" rx="1.7428" ry="1.7428" style="fill:none; stroke:#404d59; stroke-linecap:round; stroke-linejoin:round; stroke-width:.5px;"/><path d="m28.8124,62.364v-19.6263c0-1.6719,1.3554-3.0273,3.0273-3.0273h2.2693c1.6719,0,3.0273,1.3554,3.0273,3.0273v19.6263" style="fill:none; stroke:#404d59; stroke-linecap:round; stroke-linejoin:round; stroke-width:.5px;"/><path d="m25.0586,58.8172c0,2.9722.6756,5.3984,2.0665,7.4608s3.4373,7.1575,4.2338,10.6756c.7965,3.5181,1.6154,9.2198,1.6154,9.2198,0,0,.1206,1.0997-.3343,2.0025" style="fill:none; stroke:#404d59; stroke-linecap:round; stroke-linejoin:round; stroke-width:.5px;"/><line x1="29.1998" y1="64.0343" x2="25.9518" y2="64.0343" style="fill:none; stroke:#404d59; stroke-linecap:round; stroke-linejoin:round; stroke-width:.5px;"/><path d="m31.3589,88.1446c3.0332,2.7785,12.4989,20.1759,17.0611,37.1465" style="fill:none; stroke:#404d59; stroke-linecap:round; stroke-linejoin:round; stroke-width:.5px;"/><path d="m50.7037,124.2492c-.7747-.432-.746-1.5391-.746-1.5391,4.7248-5.8822,9.0412-5.3509,11.9935-5.3509h31.0908c3.6903,0,6.1813,2.86,6.1813,2.86l-1.2916,3.598" style="fill:none; stroke:#404d59; stroke-linecap:round; stroke-linejoin:round;"/><path d="m99.2233,120.2192h-36.3186c-3.5533,0-8.7505-.2143-12.201,4.03" style="fill:none; stroke:#404d59; stroke-linecap:round; stroke-linejoin:round; stroke-width:.5px;"/><line x1="114.9202" y1="143.5604" x2="121.9648" y2="161.8274" style="fill:none; stroke:#404d59; stroke-linecap:round; stroke-linejoin:round; stroke-width:.5px;"/><path d="m120.6604,140.649h-57.0653c-2.0846,0-4.6725.3877-6.3977,2.1733-1.7252,1.7856-9.9,10.3246-9.9,10.3246" style="fill:none; stroke:#404d59; stroke-linecap:round; stroke-linejoin:round; stroke-width:.5px;"/><line x1="58.2039" y1="161.8274" x2="64.1785" y2="185.1509" style="fill:none; stroke:#404d59; stroke-linecap:round; stroke-linejoin:round; stroke-width:.5px;"/><path d="m20.1667,34.7386c3.2407,0,6.2694.819,8.0249,2.5223" style="fill:none; stroke:#404d59; stroke-linecap:round; stroke-linejoin:round;"/><path d="m9.3129,34.7385l10.8538-.75c.4142-.0286.7732.2839.8018.6982.0348.4509-.3516.836-.8018.8018,0,0-10.8538-.75-10.8538-.75h0Z" style="fill:#404d59; stroke-width:0px;"/><path d="m60.5325,34.7386c-6.8415,0-7.6464,5.8354-6.9421,9.4574.7043,3.622,7.747,39.8417,7.747,40.3447,0,0,59.4607,1.1067,67.3082,1.6098" style="fill:none; stroke:#404d59; stroke-linecap:round; stroke-linejoin:round;"/><path d="m29.9165,185.1509h139.577c18.3111,0,20.2346-13.5824,20.2346-17.8803v-40.5742c0-8.4513-.4143-18.9147-2.7284-29.9819-2.314-11.0671-10.9665-16.0976-14.9909-19.1711-4.0244-3.0735-39.0368-28.7193-46.8844-34.3535-7.8476-5.6342-14.4464-8.4513-20.8705-8.4513h-43.7213" style="fill:none; stroke:#404d59; stroke-linecap:round; stroke-linejoin:round; stroke-width:1.5px;"/><path d="m9.3129,185.1509l20.6036-.75c.4142-.015.7622.3085.7773.7228.0177.4333-.3442.7946-.7773.7772,0,0-20.6036-.75-20.6036-.75h0Z" style="fill:#404d59; stroke-width:0px;"/><path d="m202.896,187.718l12.6769.25-12.6769.25c-.3291.0106-.3317-.5107,0-.5h0Z" style="fill:#404d59; stroke-width:0px;"/><line x1="19.0583" y1="187.968" x2="202.896" y2="187.968" style="fill:none; stroke:#404d59; stroke-linecap:round; stroke-linejoin:round; stroke-width:.5px;"/><path d="m9.3129,187.968l9.7454-.25c.1381-.0035.2529.1055.2564.2435.0041.1425-.1139.2605-.2564.2565,0,0-9.7454-.25-9.7454-.25h0Z" style="fill:#404d59; stroke-width:0px;"/><path d="m204.6064,192.4466l10.9665.25-10.9665.25c-.3303.0116-.3325-.5115,0-.5h0Z" style="fill:#404d59; stroke-width:0px;"/><line x1="19.0583" y1="192.6967" x2="204.6064" y2="192.6967" style="fill:none; stroke:#404d59; stroke-linecap:round; stroke-linejoin:round; stroke-width:.5px;"/><path d="m9.3129,192.6966l9.7454-.25c.1381-.0035.2529.1056.2564.2437.0041.1425-.1139.2604-.2564.2563,0,0-9.7454-.25-9.7454-.25h0Z" style="fill:#404d59; stroke-width:0px;"/><line x1="61.3374" y1="84.5407" x2="66.1667" y2="117.3468" style="fill:none; stroke:#404d59; stroke-linecap:round; stroke-linejoin:round; stroke-width:.5px;"/><line x1="61.6606" y1="86.7361" x2="43.4788" y2="86.7361" style="fill:none; stroke:#404d59; stroke-linecap:round; stroke-linejoin:round; stroke-width:.5px;"/><path d="m18.2683,83.7846l-8.9555-.25,8.9555-.25c.3323-.0131.3339.5131,0,.5h0Z" style="fill:#404d59; stroke-width:0px;"/><path d="m133.0346,37.8916c18.7449,13.8571,50.1015,37.5651,65.4347,50.7531,2.033,1.7485,3.5636,4.0034,4.4525,6.5332l.6919,1.9694c.4018,1.1435.6659,2.3251.7889,3.5308.9383,9.1962,4.6311,50.9791-1.5066,87.2898l1.7104,4.7287" style="fill:none; stroke:#404d59; stroke-linecap:round; stroke-linejoin:round; stroke-width:.5px;"/><path d="m211.2523,90.1841c-6.3895-5.814-13.5974-11.3256-20.307-16.7545-20.6747-16.2829-41.4716-32.5716-63.8171-46.5208-8.2355-5.538-18.4109-7.6669-28.2263-7.894,0,.0001-29.8605-.0746-29.8605-.0746-14.8459.0045-44.875-.1025-59.7286-.179,14.9284-.0733,44.8151-.1804,59.7287-.1786-.0002,0,29.8673-.0218,29.8673-.0218,9.9276.1939,20.1833,2.327,28.502,7.9835,22.1966,13.9524,43.1009,30.3491,63.6693,46.7167,6.6678,5.4853,13.8315,11.0576,20.1721,16.923h0Z" style="fill:#404d59; stroke-width:0px;"/><path d="m9.3129,13.7165c14.502-.1459,43.5461-.3599,58.0349-.404-.0002,0,29.0172-.0606,29.0172-.0606,4.8392-.0274,9.7609-.1286,14.5448.8192,10.8463,1.8976,20.7467,7.1755,29.7378,13.3347,10.9913,7.4924,21.6971,15.4375,32.2781,23.4865,15.3957,11.7185,30.5899,23.6974,45.6486,35.8438-22.9269-17.7705-45.9027-35.5102-69.5077-52.3719-11.6711-8.3118-23.9411-16.8203-38.3311-19.3343-4.7422-.9516-9.5465-.8559-14.3704-.8485,0,0-29.0174-.0606-29.0174-.0606-14.4281-.0424-43.6006-.2563-58.0348-.4043h0Z" style="fill:#404d59; stroke-width:0px;"/><path d="m127.2696,26.7267s4.3837-.2655,8.2337-2.1241" style="fill:none; stroke:#404d59; stroke-linecap:round; stroke-linejoin:round; stroke-width:.5px;"/><path d="m50.7037,25.6646h27.5817c28.1443,0,38.4028,0,54.7491,12.227" style="fill:none; stroke:#404d59; stroke-linecap:round; stroke-linejoin:round; stroke-width:.5px;"/><path d="m9.3129,25.6645l41.3909-.25c.3196-.0065.3308.503.003.5,0,.0001-41.3928-.25-41.3938-.25h0Z" style="fill:#404d59; stroke-width:0px;"/><path d="m189.728,133.8693s-27.1533-18.1821-29.4139-20.1013-2.0095-4.2369-1.3396-5.9247,5.1074-8.3023,5.9447-9.2234,2.8467-2.4281,6.2796-2.5118c3.4328-.0837,15.4963-.6716,15.4963-.6716" style="fill:none; stroke:#404d59; stroke-linecap:round; stroke-linejoin:round; stroke-width:.5px;"/><path d="m178.2933,82.3794c-7.597,1.002-10.1926,1.9341-11.7834,4.3567s-8.289,19.6133-8.7914,21.1071-.023,4.0117,2.5956,5.9247" style="fill:none; stroke:#404d59; stroke-linecap:round; stroke-linejoin:round; stroke-width:.5px;"/><path d="m185.5644,131.0752c-.2506-.1684-26.5063-4.4903-29.9391-5.3276s-7.4518-2.5515-6.9494-4.7923l3.5166-5.5062-3.004-2.3319c-.3277-.2544-.4442-.6969-.2842-1.0797l11.4935-27.4969,2.2606-2.9857s3.9644-2.6491,9.3502-4.0116" style="fill:none; stroke:#404d59; stroke-linecap:round; stroke-linejoin:round;"/><line x1="152.1925" y1="115.4492" x2="162.6034" y2="115.4492" style="fill:none; stroke:#404d59; stroke-linecap:round; stroke-linejoin:round; stroke-width:.5px;"/><path d="m148.9043,112.0375l-9.9408-4.71s-1.4234.1103-2.8467.5157-12.9065,4.8429-12.9065,4.8429" style="fill:none; stroke:#404d59; stroke-linecap:round; stroke-linejoin:round;"/><path d="m135.0283,86.7361s3.9352.4544,11.2195,3.4479l6.5308,2.9935s2.9202,2.6048,1.9625,4.8961" style="fill:none; stroke:#404d59; stroke-linecap:round; stroke-linejoin:round;"/><line x1="159.4801" y1="86.7361" x2="135.0283" y2="86.7361" style="fill:none; stroke:#404d59; stroke-linecap:round; stroke-linejoin:round;"/><line x1="155.6253" y1="86.7361" x2="152.1925" y2="62.9334" style="fill:none; stroke:#404d59; stroke-linecap:round; stroke-linejoin:round;"/><path d="m97.0079,118.478h44.5046c.8477,0,1.3839.9103.9728,1.6517l-8.8467,15.9542c-.6924,1.2488-2.0079,2.0235-3.4358,2.0235h-8.2379" style="fill:none; stroke:#404d59; stroke-linecap:round; stroke-linejoin:round; stroke-width:.5px;"/><path d="m132.814,137.1027h26.2636c1.5284,0,3.0353.3605,4.3982,1.0522l9.4973,4.82c3.2638,1.6564,5.3202,5.0061,5.3202,8.6662v6.0083" style="fill:none; stroke:#404d59; stroke-linecap:round; stroke-linejoin:round; stroke-width:.5px;"/><path d="m68.5068,117.3468c0,.0124-3.235-18.6949-3.3968-21.1212-.1618-2.4263.5661-4.4482,4.6099-4.4482s55.6424,1.5366,55.6424,1.5366" style="fill:none; stroke:#404d59; stroke-linecap:round; stroke-linejoin:round; stroke-width:.5px;"/><rect x="127.6001" y="66.3784" width="5.3378" height="48.4363" rx="2.6689" ry="2.6689" transform="translate(46.6562 -44.2613) rotate(23.3838)" style="fill:none; stroke:#404d59; stroke-linecap:round; stroke-linejoin:round;"/><path d="m132.814,118.478s4.8415-.223,6.7825-3.0288c1.941-2.8058,3.9602-5.9453,3.9602-5.9453" style="fill:none; stroke:#404d59; stroke-linecap:round; stroke-linejoin:round; stroke-width:.5px;"/><path d="m141.1869,94.1638l5.6599,2.5341c.2472.1107.4055.354.4036.6249-.0039.5411-.0078,1.4677.0039,2.1398,0,.9837,2.9351.9837,2.9351,0l-.1584-4.4627c-.0262-.7372-.4703-1.395-1.1442-1.6949l-6.1493-2.7361c-.4745-.2111-1.0297.0095-1.23.4886l-.7961,1.9049c-.1936.4632.0175.9962.4757,1.2014Z" style="fill:none; stroke:#404d59; stroke-linecap:round; stroke-linejoin:round; stroke-width:.5px;"/><line x1="147.2571" y1="90.6419" x2="146.4691" y2="92.2325" style="fill:none; stroke:#404d59; stroke-linecap:round; stroke-linejoin:round; stroke-width:.5px;"/><line x1="144.7181" y1="95.7492" x2="138.9614" y2="107.3282" style="fill:none; stroke:#404d59; stroke-linecap:round; stroke-linejoin:round; stroke-width:.5px;"/><path d="m31.3589,115.6615s1.6021,41.505,1.6299,46.1659c.0278,4.6609-1.674,15.2626-14.7677,15.2626" style="fill:none; stroke:#404d59; stroke-linecap:round; stroke-linejoin:round; stroke-width:.5px;"/><path d="m18.2211,177.3399c-2.6542-.0654-6.9301-.17-9.5446-.2344.2121-.0571.4242-.0068.6363-.0156-.2121-.0087-.4242.0416-.6363-.0156l.6359-.0156c.8027-.0201,2.9863-.0731,3.818-.0938,0,0,5.0907-.125,5.0907-.125.3288-.012.3346.5122,0,.5h0Z" style="fill:#404d59; stroke-width:0px;"/><path d="m40.0862,147.9125c.1893,13.0362,2.5771,37.2384-17.6712,37.2384" style="fill:none; stroke:#404d59; stroke-linecap:round; stroke-linejoin:round; stroke-width:.5px;"/><line x1="60.5325" y1="34.7386" x2="20.1667" y2="34.7386" style="fill:none; stroke:#404d59; stroke-linecap:round; stroke-linejoin:round; stroke-width:1.5px;"/><path d="m204.8544,192.7281l-2.1596,15.0602,1.6636-15.123c.0316-.3265.5472-.2641.496.0629h0Z" style="fill:#404d59; stroke-width:0px;"/><polygon points="145.7895 111.3736 157.8428 109.869 156.7807 99.5807 142.7697 100.5775 145.7895 111.3736" style="fill:#141b21; stroke-width:0px;"/><path d="m145.7895,111.3736c3.9949-1.4784,7.8555-1.6827,11.9512-2.3222,0,0-.7173.902-.7173.902-.3088-2.9757-.717-7.2726-.9976-10.2948,0,0,.8086.679.8086.679,0,0-7.011.4198-7.011.4198-2.3361.1519-4.6739.2816-7.0087.4517l.5647-.802c.7467,2.6188,1.5487,5.1163,2.1219,7.7753.1854.9297.4652,1.671.2881,3.1913h0Zm0,0c-.6804-.2791-.9039-1.3372-1.2218-2.2068-1.0214-2.9861-1.7641-6.1373-2.6145-9.1672,4.374-.3113,10.3464-.8095,14.7735-1.1759,0,0,.7258-.0599.7258-.0599l.083.739c.3612,3.3673.8973,7.7661,1.2053,11.0978-.0717.0259-6.7379.7135-7.1001.7655-1.9077.2013-4.0698.4189-5.8512.0075h0Z" style="fill:#aebbc7; stroke-width:0px;"/><path d="m149.4456,99.0074c-1.9955-.4134-48.7425,5.8041-53.119,6.4697-7.3046,5.8969-28.9706,23.4879-35.6306,32.2021,1.7906,5.314-.7654,9.323,9.7215,12.6884,2.8477.5606,10.3835,1.2911,15.0026-3.9919,8.4159-9.6255,21.697-27.0055,21.697-27.0055,0,0,30.3004-5.6704,44.0278-7.5332-.5141-7.8481-1.6993-12.8296-1.6993-12.8296Z" style="fill:#141b21; stroke:#aebbc7; stroke-miterlimit:10; stroke-width:1.5px;"/><path d="m65.2766,73.3167l-1.3041-8.7457,4.2378,1.3421c.6665.2111,1.3683-.205,1.503-.8911l.5622-3.1988-.1356-.9348.456-.5906-.1583-3.8776.8219-.1828c1.0274-.2285,1.5564-1.3712,1.066-2.3024l-2.4639-4.6783c.4595-7.7404-2.7477-8.5185-2.7477-8.5185,0,0,.761-.8717,1.9289-3.0012-2.5418.0083-8.0944-2.6846-10.5465-3.1398-2.6034-.4832-9.7899.4508-11.9635,4.9936-4.8357,2.0889-5.404,14.1679,3.624,20.0858l.3986,6.2783-.5798,4.4314" style="fill:#141b21; stroke-width:0px;"/><path d="m65.2766,73.3166c-1.0384-3.1853-1.6781-6.4665-2.2078-9.7622,1.4979.4184,3.1049.9186,4.5886,1.3853.6263.1403.9573.4809,1.2543.0542.037.0012.1153-.5794.1813-.9309l.4068-2.376-.0037.2493c-.0311-.2595-.1587-1.0242-.1888-1.2624.128-.1691.5242-.684.6592-.8616,0,0-.165.5178-.165.5178l-.1753-3.8767-.0305-.6746c.4726-.124,1.1607-.235,1.6223-.3847.775-.4191.4243-1.0317.0202-1.7419,0,0-2.1008-4.0139-2.1008-4.0139-.1212-.2131-.1054-.1953-.0929-.4299.048-2.5707.2334-6.1376-2.1179-7.6983-.0002.0001-.411-1.2938-.411-1.2938.6784-.8453,1.3055-1.8985,1.8424-2.8542,0,0,.6871,1.156.6871,1.156-3.7712-.3051-6.9195-2.2808-10.4986-3.1611-4.0423-.5469-9.3525.7484-11.4139,4.521,0,.0002-.1092.216-.1092.216l-.227.1077c-3.2477,1.7232-3.4745,6.5763-2.6729,9.863.8649,3.8474,3.454,7.0898,6.7258,9.2166.1564,2.2083.2302,4.4224.3454,6.6333-.0723.7803-.2296,1.5563-.4175,2.3235-.1989.7251-.4227,1.447-.8016,2.1487-.3593-1.3035-.2035-3.561-.0596-4.3909-.1561-2.0913-.3513-4.1802-.4754-6.2734,0,0,.3227.5547.3227.5547-1.6994-1.1685-3.2287-2.5984-4.413-4.2944-2.8743-4.1878-4.0357-10.1321-1.5128-14.7451.5603-.9307,1.387-1.7424,2.4315-2.2568l-.336.3232c2.1419-4.0935,6.9659-5.4385,11.2399-5.5392,3.1789.0864,6.069,1.8095,9.0755,2.6247,1.3993.4695,2.7174.622,4.0895.5977,0,0-.6105,1.1256-.6105,1.1256-.6107,1.1058-1.2109,2.1495-2.0151,3.148,0,0-.4108-1.294-.4108-1.294.6377.1963.9204.4633,1.356.8528,2.0883,2.2842,2.1136,5.5883,2.0212,8.4858,0,0-.0929-.4297-.0929-.4297l2.1214,4.0032c1.0586,1.501.7737,3.6222-1.2597,4.1521-.168.0312-.6568.1478-.8336.1818,0,0,.6348-.8254.6348-.8254l.1414,3.8782.0107.2927-.1758.2256s-.4584.5884-.4584.5884l.1568-.5972.1315.9353s.0181.1284.0181.1284c0,0-.0218.1211-.0218.1211l-.4297,2.3833-.1074.5959c-.0431.8579-.9411,1.8442-1.9042,1.7946-.6038.0025-.9334-.2199-1.4119-.3426-1.1171-.3709-2.3425-.7365-3.4449-1.1265,0,0,.9389-.8005.9389-.8005.3751,2.9375.6416,5.8788.5847,8.8528h0Z" style="fill:#aebbc7; stroke-width:0px;"/><path d="m65.2766,73.3168l-1.3041-8.7457,4.2378,1.3421c.6665.2111,1.3683-.205,1.503-.8911l.5622-3.1988-.1356-.9348.456-.5906-.1583-3.8776.8219-.1828c1.0274-.2285,1.5564-1.3712,1.066-2.3024l-2.4639-4.6783c.3242-6.4087-2.7477-8.5185-2.7477-8.5185,0,0,1.4633-1.2728,2.6312-3.4023-3.2336.4098-8.7966-2.2835-11.2488-2.7387-2.6034-.4832-9.7899.4508-11.9635,4.9936-4.8357,2.0889-5.404,14.1679,3.624,20.0858l.3986,6.2783-.5798,4.4314" style="fill:#141b21; stroke:#aebbc7; stroke-miterlimit:10; stroke-width:1.5px;"/><path d="m49.7617,67.6149s5.4541-1.4806,15.7626,4.1898c2.2041,6.2938,8.5053,7.3479,10.3885,19.4592l8.0662,26.0954c-4.5978,9.9135-14.7954,19.952-23.2829,20.32,0,0-3.786-15.036-6.8075-25.0619-3.2721-10.8578-14.6061-30.0966-4.1269-45.0025Z" style="fill:#141b21; stroke:#aebbc7; stroke-miterlimit:10; stroke-width:1.5px;"/><path d="m151.2844,98.2686c.2198-.3458,2.7269-2.6806,4.6503-6.1021.5189-5.4677,1.7046-10.5019,3.0853-10.4147,1.186.0749,2.5991.0307,3.4874.0548s1.9162,3.0893,1.8773,9.9775c-.0389,6.8882-1.2635,22.1298-1.2635,22.1298-.1173,2.115-4.2223,1.9145-5.5154,1.1239-2.6649-.0724-4.9493-2.2375-5.4494-2.9177,2.6643-4.6445,1.9064-11.0806-.872-13.8515Z" style="fill:#141b21; stroke-width:0px;"/><path d="m151.2844,98.2686c1.2501-2.1603,2.8436-4.2678,3.9986-6.4684,0,0-.0925.2954-.0925.2954.3204-2.3371.8661-11.3265,3.9967-11.1534.2776-.0168,1.7731.0318,2.0815.0205.6826.0508,1.6371-.1536,2.1595.4117,1.3227,1.6435,1.2726,3.453,1.5598,5.3207.5387,6.7698-.2284,13.5173-.6406,20.2507-.0001,0-.5331,6.7017-.5331,6.7017.0224,2.3995-2.8768,2.8231-4.7001,2.5076-.6074-.0978-1.1988-.2201-1.8368-.5799l.3112.092c-2.5161-.1493-4.695-1.5364-6.2301-3.477,1.8182-3.1287,2.2023-7.0977,1.1634-10.5617,0,0-1.2374-3.36-1.2374-3.36h0Zm0,0c1.28.5021,2.046,1.7346,2.4566,2.9426,1.3093,3.6641.9509,7.8554-1.0055,11.241,0,0-.0412-.7274-.0412-.7274,1.2058,1.4454,3.1573,2.664,5.0725,2.6887,1.1147.6152,3.1436.7915,4.3133.0875.3755-.3031.3494-.4043.3985-.9588,0,0,.4519-6.6938.4519-6.6938.2749-4.4623.534-8.9326.6345-13.3828.0403-3.2607.0751-6.6256-.755-9.7561-.1259-.468-.3732-.9946-.5075-1.1189-.006.0124.1522.0673.1695.0457-.7587-.0126-2.1887-.0463-2.9621-.062,0,0-.4231-.0093-.4231-.0093l-.1058-.0022c-.0212.0027.016.0129.0225.0125.0232.0127.0655-.0376.056-.019-.0009.0188-.0231-.002-.0818.0789-1.6854,2.7814-1.8614,6.538-2.3172,9.7729-1.3387,2.3322-3.1856,4.3191-5.3762,5.8608h0Z" style="fill:#aebbc7; stroke-width:0px;"/><path d="m157.3508,114.918c1.735-.3124,2.0766-3.463,2.334-7.2308.367-5.3715.653-10.8261.8046-14.4594.1302-3.1215.3441-9.3176-2.1649-11.0835" style="fill:#141b21; stroke-width:0px;"/><path d="m157.3508,114.9181c1.0003-1.0026.8902-2.3448,1.2016-3.6347.4494-4.176.5263-8.4803.8955-12.6818.2358-5.0927,1.3447-10.5773-.8752-15.3372-.16-.3502-.2078-.6609-.2482-1.1201.4692-.0903.9179.0724,1.2368.3997,1.6899,2.1199,1.5523,5.0387,1.6239,7.5664.0488,2.896-.1795,5.7141-.2565,8.5676-.1,2.8469-.2388,5.6926-.3906,8.5374-.2682,2.0718-.0691,8.0304-3.1873,7.7028h0Z" style="fill:#aebbc7; stroke-width:0px;"/><path d="m109.5263,99.1856c5.8168-3.2148,8.4197-4.3843,10.5594-4.5538,2.1397-.1695,4.2425-.0135,4.4192.2869s1.4096,1.7661.9799,2.5164c-.0514.7791-.4114,1.9836-1.3659,2.9759-.6235,2.0086-1.208,3.0031-2.8992,3.45s-4.4389.2467-6.2843.0068c-1.8454-.2399-6.6547-.8023-6.6547-.8023l1.2457-3.8799Z" style="fill:#141b21; stroke-width:0px;"/><path d="m109.5263,99.1856c1.0689-1.3026,2.405-2.1761,3.8149-2.8978,2.1336-1.0766,4.424-2.3139,6.9063-2.4993,1.555-.032,3.0168-.2112,4.5385.3424.1098.0424.3267.2326.4158.3842.6171.9541,1.5688,2.0521.9641,3.3098,0,0,.1019-.3381.1019-.3381-.128,1.3389-.7228,2.5112-1.6163,3.4365l.1731-.2931c-1.2008,5.1039-5.9794,4.2753-10.0042,3.8579-2.4427-.2814-5.0759-.4955-7.505-.817.3235-.9402.6509-1.9445,1.0157-2.8579.2354-.6715.5304-1.3485,1.1952-1.6276h0Zm0,0c.3978,1.7394-.2118,2.6212-.5603,4.0999,0,0-.6017-.9348-.6017-.9348,3.3341.146,12.2844,2.6949,14.2992-.2822.3471-.5525.5832-1.3182.7974-2.036,0,0,.1253-.1339.1253-.1339.8271-.8504.9996-1.7989,1.2174-2.8534-.0381.1299.0022-.1369-.1559-.4116-.1289-.2783-.3242-.5767-.5389-.8787-.0786-.0909-.2153-.313-.285-.4077-.0224-.0391-.0016.0063.0266.0461.181.2208.2878.1565-.1451.0911-1.8049-.1775-3.6974-.1832-5.4614.3549-2.9922.8666-5.4928,2.9236-8.7177,3.3464h0Z" style="fill:#aebbc7; stroke-width:0px;"/><path d="m49.1636,84.8694c.1566,2.7002,3.1155,7.1763,9.5972,9.9222s21.1119,12.8999,22.8638,13.9435c6.3402-.0132,29.7067-3.6567,31.3911-3.8509,1.6845-.1942,1.8771-8.8249-2.1511-8.3606l-24.4639.2989-14.008-12.1075s-7.486-9.2729-12.8822-8.9726" style="fill:#141b21; stroke-width:0px;"/><path d="m49.1636,84.8694c1.4215,4.9842,6.4382,7.7443,10.8753,9.6753,4.6857,2.2657,9.0421,5.0829,13.4144,7.8582,0,0,8.5935,5.6233,8.5935,5.6233,0,0-.4238-.1162-.4238-.1162,10.0375-.4806,21.2327-2.4506,31.2708-3.7606.9239-1.497.8282-7.1676-1.9877-6.9178.0025.0015-24.4884.2194-24.4975.2205,0,0-.2381.002-.2381.002l-.1815-.1553-14.064-12.0425c-.0277-.0196-.0692-.0652-.089-.092-3.4033-3.8976-7.2233-7.9054-12.3255-9.422,4.8056-1.202,10.528,5.2355,13.4388,8.5231-.4911-.4695,13.981,12.198,13.8629,12.0807,0,0-.4191-.153-.4191-.153l24.4627-.3777-.0722.0046c.5417-.0642,1.1489.0071,1.6765.2661,2.6519,1.0683,3.4228,8.1466.9419,9.4604-10.2937,1.5148-21.405,3.4526-31.7757,4.0139,0-.0002-.2318.0064-.2318.0064l-.1924-.1229c-2.962-1.8928-5.7325-3.8201-8.6257-5.687-4.2982-2.7675-8.6032-5.5909-13.1803-7.8424-4.5908-1.9444-10.0479-5.5414-10.2326-11.0451h0Z" style="fill:#aebbc7; stroke-width:0px;"/><path d="m86.4008,96.8225s-1.4811,1.6895-1.7529,6.8063" style="fill:#141b21; stroke-width:0px;"/><path d="m86.9648,97.3169c-1.4376,1.7253-1.9158,4.1244-2.317,6.312-.0657-2.454-.0915-5.0902,1.1889-7.3008.0001,0,1.1281.9888,1.1281.9888h0Z" style="fill:#aebbc7; stroke-width:0px;"/><path d="m42.7954,45.0877c.1818,3.8185.3541,9.9053.2105,11.1781-.201,1.7418-1.292,4.0769-1.7801,4.967-.4785.8805-.4785,1.2059-1.6461,1.292-.2201.0096-.5742.0191-1.0049.0383" style="fill:none; stroke:#404d59; stroke-linecap:round; stroke-linejoin:round; stroke-width:1.5px;"/><path d="m42.6409,147.7932s-1.2908-2.1782-2.1378-4.2354c-.8471-2.0572-1.2101-3.9127-1.2908-4.8807s-.2824-3.7917-.484-7.301c-.2017-3.5093-.8471-4.8404-1.2908-6.0909s-3.7513-9.9632-7.543-19.402c-3.7917-9.4388-6.0909-12.9078-6.7362-13.9565s-1.1294-2.5009-1.1698-2.9446-.7261-9.9632-.7261-10.3665.6454-1.0084.6454-1.0084c0,0-.2824-2.8236-.3227-4.1547s.7664-8.6724.8874-10.0035,2.7832-17.3448,3.1059-18.4339.8471-1.3714,2.3799-2.1782c.7664-6.2119,5.9295-5.7278,9.5195-5.6471s4.9211,3.3076,5.1228,4.9614.6051,12.3834.4034,14.1179-1.2908,4.074-1.7748,4.9614-.484,1.2101-1.6538,1.2908-5.9698.0403-6.8169,0-.3281.1776-2.7886-.5081l-.1963,1.3552s.8067.121,3.711.2017,3.8804.7923,5.0905,2.2041c3.8723,5.1228,6.0538,14.968,6.6116,17.4129.4856,2.1284-.7806,2.3994-1.3714,2.6219-.7074.2663-1.9751.6134-1.9751.6134,1.2157,1.1836,3.1643,2.8503,4.4482,4.1104,2.8989,2.845,3.1583,3.4419,5.2961,6.1041,6.0123,7.9216,10.1395,14.6,12.2912,19.3999,2.0975,4.6791,3.3415,12.7079,2.6558,16.6609s-1.8666,5.7376-2.3506,6.9477-1.6941,3.348-1.6941,3.348c-2.4957,4.8699-14.3664,13.0413-19.8457,4.8001Z" style="fill:#141b21; stroke:#aebbc7; stroke-linecap:round; stroke-linejoin:round; stroke-width:1.5px;"/><path d="m27.9583,42.837s-.7261,12.5447-.8874,14.5212.7959,3.7032,2.8988,4.655" style="fill:none; stroke:#aebbc7; stroke-linecap:round; stroke-linejoin:round; stroke-width:1.5px;"/><path d="m27.4454,59.6335c-.2534,2.0811-.6971,2.4441.755,6.4778s2.4605,7.422,3.3076,11.3346,1.4521,7.5833,1.4521,7.5833c0,0,.2824,1.4925.9681,1.5731" style="fill:none; stroke:#aebbc7; stroke-linecap:round; stroke-linejoin:round; stroke-width:.5px;"/><path d="m21.9078,77.6073c.7261,3.2269.7664,4.6387,1.6538,5.7278s1.4521,1.8555,1.4521,1.8555c0,0,.8929.9681,2.0397,1.0891,1.1469.121,13.0768.8836,14.7865.1426" style="fill:none; stroke:#aebbc7; stroke-linecap:round; stroke-linejoin:round; stroke-width:1.5px;"/><path d="m40.3889,86.7494c.5081-.0664.7193-1.0748.3562-2.9303s-4.437-16.1347-4.8404-17.5465-1.2523-2.361-2.7841-2.7133" style="fill:none; stroke:#aebbc7; stroke-linecap:round; stroke-linejoin:round; stroke-width:.5px;"/><path d="m25.0138,85.1906c1.2504.5244,2.1782.4034,1.8152-2.2185s-1.4118-10.4472-2.0168-12.3027-2.6933-5.3979-1.7378-11.2012" style="fill:none; stroke:#aebbc7; stroke-linecap:round; stroke-linejoin:round; stroke-width:.5px;"/><path d="m31.9419,62.5052s-1.8566-.2259-1.9722-3.3318c-.1156-3.1059.2474-14.6826.2474-15.8927,0-1.2101.3227-3.3883,2.3799-3.4286s3.7917,0,3.7917,0c0,0,2.1782.121,2.2589,2.7429.0807,2.6219.363,15.449.363,16.4574,0,1.0084-.1613,3.2753,1.1698,3.4528" style="fill:none; stroke:#aebbc7; stroke-linecap:round; stroke-linejoin:round; stroke-width:.5px;"/><rect x="32.0261" y="41.475" width="4.7155" height="12.4691" rx="1.8748" ry="1.8748" style="fill:none; stroke:#aebbc7; stroke-linecap:round; stroke-linejoin:round; stroke-width:.5px;"/><rect x="33.5136" y="43.4055" width="1.7723" height="7.4372" rx=".65" ry=".65" style="fill:none; stroke:#aebbc7; stroke-linecap:round; stroke-linejoin:round; stroke-width:.5px;"/><path d="m32.5125,37.413c4.3873-.4003,8.3278-.3054,8.4147,4.5367s.3717,14.0832.3717,14.8111.5234,2.7619,1.4326.8113" style="fill:none; stroke:#aebbc7; stroke-linecap:round; stroke-linejoin:round; stroke-width:.5px;"/><path d="m29.7735,63.3684s-1.8326.0392-2.211.7983" style="fill:none; stroke:#aebbc7; stroke-linecap:round; stroke-linejoin:round; stroke-width:.5px;"/><path d="m23.1004,82.5876c.3176,1.7382.5708,2.4028,1.2037,3.3839s.7279,1.1393.7279,1.1393c0,0,.7469,1.076,2.1457,1.2343,1.3988.1582,11.8425.4747,12.5704.5064.7279.0316,1.0127-.2215,1.0127-.538v-1.564" style="fill:none; stroke:#aebbc7; stroke-linecap:round; stroke-linejoin:round; stroke-width:.5px;"/><path d="m21.4475,81.4674c.1981,2.8124,1.1116,4.7027,3.1802,7.3867,2.0686,2.684,4.8461,5.8665,7.3029,11.489,2.4568,5.6224,9.1404,22.9671,9.9094,25.1949s1.2463,5.039,1.0342,7.2137-2.6101,8.9771-.5359,14.5135" style="fill:none; stroke:#aebbc7; stroke-linecap:round; stroke-linejoin:round; stroke-width:.5px;"/><path d="m49.5044,139.6745c-.2122-.1865.5835-6.2863.6365-7.6654s-.5835-6.0468-1.273-8.2745c-.6895-2.2278-4.3494-11.5631-6.4711-16.5491s-7.1645-15.5607-7.4789-16.2839c-.5304-1.22-1.326-3.4477-.9897-4.2993" style="fill:none; stroke:#aebbc7; stroke-linecap:round; stroke-linejoin:round; stroke-width:.5px;"/><path d="m55.3606,169.32s-1.1189.4025-1.2206,2.2343c-.1018,1.8317-.952,13.5967-.952,13.5967h82.844s-1.93-6.3536-2.5943-8.0609-3.9935-1.8723-3.9935-1.8723c0,0-1.6282-7.0725-2.0352-8.3954s-1.5264-4.7828-5.9022-4.4267c-4.3758.3562-6.7646.4209-6.7646.4209" style="fill:#141b21; stroke:#404d59; stroke-linecap:round; stroke-linejoin:round;"/><path d="m86.0676,174.5562c-.4976-1.6146-.8396-3.9307-.8014-4.3886s.3435-1.4502,2.2897-1.6791c1.9463-.229,27.0949-2.5187,30.1097-2.6332,3.0148-.1145,3.8162.6869,4.5413,2.8621.7251,2.1752.8014,3.053.7632,3.7399s.3816,1.8699-1.8318,2.0989-31.2546,1.2593-32.8574,1.2975-2.0852-.8817-2.2134-1.2975Z" style="fill:none; stroke:#404d59; stroke-linecap:round; stroke-linejoin:round; stroke-width:.25px;"/><path d="m89.3114,170.2821s23.7749-2.0989,25.454-2.1371,2.0989.3816,2.3279,1.2975.3435,1.9081.3435,1.9081c0,0,.4961,1.1449-1.2593,1.2593s-25.1487,1.183-25.7974,1.183-1.3357-.4198-1.4502-1.2593-.4579-1.9844.3816-2.2516Z" style="fill:none; stroke:#404d59; stroke-linecap:round; stroke-linejoin:round; stroke-width:.25px;"/><path d="m110.1413,164.6341c8.6693-.5343,11.0353-.5724,11.913-.5724s2.4735.3816,3.183,3.3582c.7095,2.9766,1.9681,8.2047,1.9681,8.2047" style="fill:none; stroke:#404d59; stroke-linecap:round; stroke-linejoin:round; stroke-width:.25px;"/><path d="m42.6409,147.7932c.1802-5.0696,3.9462-7.2974,5.9087-7.8278,1.9626-.5304,7.188-1.5643,21.9886,8.024,4.4025-2.1747,18.064-7.3208,24.3967-9.0711,6.3328-1.7504,13.2282-4.1373,19.8054-2.0156l10.9972,3.406c1.4717.4558,2.4753,1.819,2.4673,3.3597-.0004.0741-.0008.1484-.0008.2229,0,1.0891-.121,11.6374-.2824,12.7669s-1.4925,1.4925-4.2757,2.5412c-2.7832,1.0488-5.7771,1.542-7.7536,2.9134-1.9765,1.3714-5.0824,2.5009-7.6236,2.9446s-43.9671,4.195-48.6058,4.5984c-4.6387.4034-6.0909-1.1698-6.9379-2.1782s-6.2522-9.6808-8.269-13.1094c-2.0168-3.4286-1.8152-6.5749-1.8152-6.5749" style="fill:#141b21; stroke:#aebbc7; stroke-linecap:round; stroke-linejoin:round; stroke-width:1.5px;"/><path d="m70.5382,147.9894c.7664,1.3644.9318,1.7142,3.2277,3.5171,2.0888,1.6403,5.5989,4.462,8.0641,5.2825,1.7579.585,6.1298.6802,11.7522.2559,5.6224-.4243,13.4726-1.5382,17.6099-2.0686,4.1373-.5304,13.022-1.5766,14.295-2.1772,1.273-.6006,2.0498-.4419,2.6427-1.7677" style="fill:none; stroke:#aebbc7; stroke-linecap:round; stroke-linejoin:round; stroke-width:.5px;"/><path d="m44.7847,154.9226c-2.0696-3.235-2.482-11.5452,2.133-14.2736,3.2263-1.9075,9.0935-.4407,13.4429,2.3175,4.3494,2.7582,11.8928,8.9752,17.6363,13.1466,3.4762,2.5247,6.2778,3.3786,15.7569,2.4388,8.1515-.8082,18.2279-2.4532,23.7476-3.2915,4.3119-.6549,10.5479-1.4396,10.5882-3.2074" style="fill:none; stroke:#aebbc7; stroke-linecap:round; stroke-linejoin:round; stroke-width:.5px;"/><path d="m72.4118,150.2242c12.1526-3.0822,23.5043-6.2158,31.4075-7.0703,7.9032-.8546,13.95,1.4673,16.2308,1.8976,2.2808.4303,8.222,1.6837,8.1555-.0667" style="fill:none; stroke:#aebbc7; stroke-linecap:round; stroke-linejoin:round; stroke-width:.5px;"/><path d="m86.8386,154.8156c-.9746-1.253-1.6545-4.039-1.7264-4.7336-.0969-.9369.7208-2.0456,2.6174-2.506,4.8172-1.1695,13.1985-2.8402,16.1222-3.3414s4.7058-.6404,6.822,1.086c2.1162,1.7264,1.615,3.6477,1.3087,4.8729-.3063,1.2252-.4455,1.6707-.4455,1.6707,0,0-.2228,1.4479-2.0327,1.8656-1.8099.4177-15.9826,2.1134-19.2966,2.1162-2.4225.0021-3.3692-1.0303-3.3692-1.0303Z" style="fill:none; stroke:#141b21; stroke-linecap:round; stroke-linejoin:round; stroke-width:.5px;"/><path d="m86.8386,154.8156c-.9746-1.253-1.6545-4.039-1.7264-4.7336-.0969-.9369.7208-2.0456,2.6174-2.506,4.8172-1.1695,13.1985-2.8402,16.1222-3.3414s4.7058-.6404,6.822,1.086c2.1162,1.7264,1.615,3.6477,1.3087,4.8729-.3063,1.2252-.4455,1.6707-.4455,1.6707,0,0-.2228,1.4479-2.0327,1.8656-1.8099.4177-15.9826,2.1134-19.2966,2.1162-2.4225.0021-3.3692-1.0303-3.3692-1.0303Z" style="fill:none; stroke:#aebbc7; stroke-linecap:round; stroke-linejoin:round; stroke-width:.5px;"/><circle cx="90.6428" cy="151.4431" r="2.2909" style="fill:none; stroke:#aebbc7; stroke-linecap:round; stroke-linejoin:round; stroke-width:.5px;"/><path d="m93.7538,151.4431c0,1.7182-1.3928,3.111-3.111,3.111-1.7182,0-3.111-1.3928-3.111-3.111,0-1.7182,1.3928-3.111,3.111-3.111,1.7182,0,3.111,1.3928,3.111,3.111Z" style="fill:none; stroke:#aebbc7; stroke-linecap:round; stroke-linejoin:round; stroke-width:.5px;"/><path d="m94.7455,148.5758s2.5463,3.7927,2.7474,4.0607.6567.7371,1.2598.6969.9247-.067,1.1659-.0804.9247-.3752.4021-1.2196-2.5195-3.7257-2.7876-4.0875-.8041-.6299-1.367-.5227-.9783.2278-1.1391.268-.5897.4257-.2814.8845Z" style="fill:none; stroke:#aebbc7; stroke-linecap:round; stroke-linejoin:round; stroke-width:.5px;"/><path d="m95.7641,148.7635s2.1443,3.069,2.3051,3.2968.3752.4155.6969.3886.6031-.067.6031-.067c0,0,.4021-.0402.0804-.5093s-2.1041-3.069-2.2649-3.2834-.3172-.4753-.679-.3949l-.5271.1378s-.3969.1279-.2144.4313Z" style="fill:none; stroke:#aebbc7; stroke-linecap:round; stroke-linejoin:round; stroke-width:.5px;"/><path d="m102.9582,149.9827s5.742-1.01,6.264-1.078.8511.1601.7717.6417-.1475.7994-.2156,1.015-.3972.7876-.9305.8818-3.8015.6729-4.1987.7183-.9759-.0454-1.2937-.3972-.556-.7376-.7376-.9646-.1021-.6695.3404-.817Z" style="fill:none; stroke:#aebbc7; stroke-linecap:round; stroke-linejoin:round; stroke-width:.5px;"/><path d="m103.9115,150.3676s4.3349-.7583,4.7207-.8213.4312.1467.3631.4106-.1929.5755-.1929.5755c0,0-.1248.3806-.6014.4714s-2.837.4993-3.0639.5333-.6128-.0227-.8057-.2383-.488-.556-.556-.6695.0113-.24.1362-.2618Z" style="fill:none; stroke:#aebbc7; stroke-linecap:round; stroke-linejoin:round; stroke-width:.5px;"/><path d="m90.9655,150.0196q.0175.0137.0194.0295c.0037.0315-.026.0507-.0416.0525l-.1899.0063c-.0157.0018-.0332-.0121-.0489-.0103l-.1575-.1249-.0175-.0137-.0156.0018-.1265.1419c-.0137.0176-.0295.0194-.0451.0212l-.19.0062c-.0313.0036-.0487-.0101-.0524-.0416-.0018-.0156-.0036-.0313.0119-.0331l.3811-.4103c.0139-.0174.0295-.0194.0295-.0194.0157-.0018.0313-.0035.0331.0121l.4099.3818Z" style="fill:#141b21; stroke-width:0px;"/><path d="m91.1267,152.7682q.0139-.0176.0121-.0331c-.0037-.0315-.0212-.0452-.0525-.0416l-.1899.0062c-.0157.0018-.0313.0036-.0452.0212l-.1264.1418-.0157.0018s-.0156.0018-.0174-.0138l-.1576-.1249c-.0174-.0139-.0331-.0121-.0487-.0103l-.1899.0063c-.0315.0037-.0452.0211-.0416.0525.0018.0157.0036.0313.0192.0295l.4236.3642q.0176.0139.0333.0121c.0156-.0018.0313-.0036.0295-.0194l.3672-.3927Z" style="fill:#141b21; stroke-width:0px;"/><path d="m89.1366,151.0913q.0138-.0174.0295-.0192c.0313-.0036.0489.0101.0525.0416l.0062.1902c.0018.0156-.0119.0331-.0101.0489l-.1265.142-.0138.0174.0018.0157.1574.1247c.0176.0139.0194.0296.0212.0454l.0062.19c.0037.0315-.0258.0507-.0416.0525-.0156.0018-.0313.0036-.0331-.0119l-.4236-.3642q-.0176-.0139-.0194-.0295c-.0018-.0157-.0037-.0315.0121-.0333l.3811-.4103Z" style="fill:#141b21; stroke-width:0px;"/><path d="m92.0053,150.9004q-.0175-.0137-.0333-.0119c-.0313.0036-.0451.021-.0414.0525l.0062.19c.0018.0157.0037.0315.0212.0454l.1574.1247.0018.0157s.0018.0157-.0139.0176l-.1264.1418c-.0139.0176-.0121.0333-.0103.0489l.0064.1902c.0037.0315.0211.0452.0525.0416.0156-.0018.0313-.0036.0295-.0192l.3811-.4103q.0138-.0175.0119-.0331c-.0018-.0157-.0037-.0315-.0192-.0297l-.4236-.3642Z" style="fill:#141b21; stroke-width:0px;"/><path d="m54.4509,179.6952s1.2155.1526,3.556-.5597,17.5941-5.2408,17.5941-5.2408c0,0,1.232-.7123,2.0969.9667s1.2826,2.5949,2.5493,2.5441,46.5001-1.73,46.9581-1.7808,2.2388-.407,2.2388-.407" style="fill:none; stroke:#404d59; stroke-linecap:round; stroke-linejoin:round; stroke-width:.25px;"/></g><g style="clip-path:url(#uuid-c6e5a181-5eaf-4536-99d8-ae605471fa77);"><path d="m272.0911,185.1509c-.0747-.2242-3.3696-15.7023-4.4531-21.2293-.2129-1.0859.6188-2.0942,1.7254-2.0942h110.1418c4.9819,0,9.1335-.0923,14.7612-3.598,5.6277-3.5058,12.3625-7.9342,12.3625-7.9342" style="fill:none; stroke:#404d59; stroke-linecap:round; stroke-linejoin:round;"/><path d="m269.3633,161.8274l-3.4273-8.1187s-1.6606-.369-3.0445-1.1993-9.8716-7.8419-9.8716-7.8419c0,0-1.9374-1.3839-.5535-3.6903s11.5322-14.669,11.5322-14.669c0,0,2.3987-2.491,6.458-2.491h65.9557c.4575,0,.9029.1468,1.2708.4188l1.5614,1.1546c.545.403.8666,1.0407.8666,1.7186v4.6298c0,.1926-.0247.3795-.076.5651-.4173,1.5086-2.4493,8.7809-3.522,11.2563l7.6574,18.267" style="fill:none; stroke:#404d59; stroke-linecap:round; stroke-linejoin:round;"/><path d="m336.5131,143.5604h-53.1404c-3.6903,0-5.8122.4613-8.2109,2.2142-2.3987,1.7529-9.2258,7.9342-9.2258,7.9342" style="fill:none; stroke:#404d59; stroke-linecap:round; stroke-linejoin:round; stroke-width:.5px;"/><path d="m253.0199,144.6675l11.9012-14.2999s2.9522-3.1368,8.1187-3.1368h67.0713" style="fill:none; stroke:#404d59; stroke-linecap:round; stroke-linejoin:round; stroke-width:.5px;"/><path d="m251.968,36.8183h-5.0371c-1.4761,0-4.3361,1.0148-4.3361,4.9819,0,0-1.4761.8303-2.491,1.9374s-4.9819,24.2637-4.9819,29.9837v14.2077c0,1.9374,1.5684,4.4284,2.86,6.3658,1.2916,1.9374,7.2884,10.5174,9.318,17.898,2.0297,7.3806,7.248,25.9147,7.248,25.9147" style="fill:none; stroke:#404d59; stroke-linecap:round; stroke-linejoin:round;"/><path d="m278.8521,117.3592s-7.7282-16.3296-12.075-21.3115c-4.3468-4.9819-9.3288-6.3658-9.3288-6.3658v-1.4761s3.6903.1845,3.0445-3.229c-.6458-3.4135-3.5058-11.4399-6.7348-18.1747,0,0-1.9374-2.7677-7.6574-2.7677v-1.2916h8.0264s2.86-1.8452,2.86-5.3509v-16.4219c0-1.8452-2.0115-4.1516-5.019-4.1516" style="fill:none; stroke:#404d59; stroke-linecap:round; stroke-linejoin:round;"/><path d="m246.1006,62.7427c-1.4116,0-4.3231-.9533-4.1411-3.9255s.6353-17.017.6353-17.017" style="fill:none; stroke:#404d59; stroke-linecap:round; stroke-linejoin:round; stroke-width:.5px;"/><path d="m235.1703,72.4007c-.0483,1.3207,1.5121,3.5218,1.8154,6.0694s1.1525,5.1558,2.4263,6.369,2.7296,2.8509,5.9444,3.1541,12.092.2127,12.092.2127" style="fill:none; stroke:#404d59; stroke-linecap:round; stroke-linejoin:round; stroke-width:.5px;"/><path d="m235.122,77.5433c.5472,4.8525,2.9555,9.2366,5.3818,11.6023,2.4263,2.3656,8.4919,11.6461,10.1297,15.5281s9.3251,26.6037,9.3251,26.6037" style="fill:none; stroke:#404d59; stroke-linecap:round; stroke-linejoin:round; stroke-width:.5px;"/><path d="m237.4746,55.582c-.3324,1.9572-.9743,7.2386.6635,9.6042,1.6377,2.3656,3.7607,7.8247,4.246,10.6756s1.6419,9.2198,1.6419,9.2198c0,0,.5229,2.3363-.9841,2.3813" style="fill:none; stroke:#404d59; stroke-linecap:round; stroke-linejoin:round; stroke-width:.5px;"/><rect x="247.4792" y="41.2874" width="4.7919" height="13.0412" rx="1.7428" ry="1.7428" style="fill:none; stroke:#404d59; stroke-linecap:round; stroke-linejoin:round; stroke-width:.5px;"/><path d="m245.7132,62.364v-19.6263c0-1.6719,1.3554-3.0273,3.0273-3.0273h2.2693c1.6719,0,3.0273,1.3554,3.0273,3.0273v19.6263" style="fill:none; stroke:#404d59; stroke-linecap:round; stroke-linejoin:round; stroke-width:.5px;"/><path d="m241.9595,58.8172c0,2.9722.6756,5.3984,2.0665,7.4608,1.3909,2.0623,3.4373,7.1575,4.2338,10.6756s1.6154,9.2198,1.6154,9.2198c0,0,.1206,1.0997-.3343,2.0025" style="fill:none; stroke:#404d59; stroke-linecap:round; stroke-linejoin:round; stroke-width:.5px;"/><line x1="246.1006" y1="64.0343" x2="242.8527" y2="64.0343" style="fill:none; stroke:#404d59; stroke-linecap:round; stroke-linejoin:round; stroke-width:.5px;"/><path d="m248.2598,88.1446c3.0332,2.7785,12.4989,20.1759,17.0611,37.1465" style="fill:none; stroke:#404d59; stroke-linecap:round; stroke-linejoin:round; stroke-width:.5px;"/><path d="m267.6046,124.2492c-.7747-.432-.746-1.5391-.746-1.5391,4.7248-5.8822,9.0412-5.3509,11.9935-5.3509h31.0908c3.6903,0,6.1813,2.86,6.1813,2.86l-1.2916,3.598" style="fill:none; stroke:#404d59; stroke-linecap:round; stroke-linejoin:round;"/><path d="m316.1241,120.2192h-36.3186c-3.5533,0-8.7505-.2143-12.201,4.03" style="fill:none; stroke:#404d59; stroke-linecap:round; stroke-linejoin:round; stroke-width:.5px;"/><line x1="331.821" y1="143.5604" x2="338.8657" y2="161.8274" style="fill:none; stroke:#404d59; stroke-linecap:round; stroke-linejoin:round; stroke-width:.5px;"/><path d="m337.5613,140.649h-57.0653c-2.0846,0-4.6725.3877-6.3977,2.1733-1.7252,1.7856-9.9,10.3246-9.9,10.3246" style="fill:none; stroke:#404d59; stroke-linecap:round; stroke-linejoin:round; stroke-width:.5px;"/><line x1="275.1047" y1="161.8274" x2="281.0793" y2="185.1509" style="fill:none; stroke:#404d59; stroke-linecap:round; stroke-linejoin:round; stroke-width:.5px;"/><path d="m237.0675,34.7386c3.2407,0,6.2694.819,8.0249,2.5223" style="fill:none; stroke:#404d59; stroke-linecap:round; stroke-linejoin:round;"/><path d="m226.2137,34.7385l10.8538-.75c.4142-.0286.7732.2839.8018.6982.0348.4509-.3516.836-.8018.8018,0,0-10.8538-.75-10.8538-.75h0Z" style="fill:#404d59; stroke-width:0px;"/><path d="m277.4334,34.7386c-6.8415,0-7.6464,5.8354-6.9421,9.4574s7.747,39.8417,7.747,40.3447c0,0,59.4607,1.1067,67.3082,1.6098" style="fill:none; stroke:#404d59; stroke-linecap:round; stroke-linejoin:round;"/><path d="m246.8173,185.1509h139.577c18.3111,0,20.2346-13.5824,20.2346-17.8803v-40.5742c0-8.4513-.4143-18.9147-2.7284-29.9819-2.314-11.0671-10.9665-16.0976-14.9909-19.1711-4.0244-3.0735-39.0368-28.7193-46.8844-34.3535-7.8476-5.6342-14.4464-8.4513-20.8705-8.4513h-43.7213" style="fill:none; stroke:#404d59; stroke-linecap:round; stroke-linejoin:round; stroke-width:1.5px;"/><path d="m226.2137,185.1509l20.6036-.75c.4142-.015.7622.3085.7773.7228.0177.4333-.3442.7946-.7773.7772,0,0-20.6036-.75-20.6036-.75h0Z" style="fill:#404d59; stroke-width:0px;"/><path d="m419.7969,187.718l12.6769.25-12.6769.25c-.3291.0105-.3317-.5107,0-.5h0Z" style="fill:#404d59; stroke-width:0px;"/><line x1="235.9591" y1="187.968" x2="419.7969" y2="187.968" style="fill:none; stroke:#404d59; stroke-linecap:round; stroke-linejoin:round; stroke-width:.5px;"/><path d="m226.2137,187.968l9.7454-.25c.1381-.0035.2529.1055.2564.2435.0041.1425-.1139.2605-.2564.2565,0,0-9.7454-.25-9.7454-.25h0Z" style="fill:#404d59; stroke-width:0px;"/><path d="m421.5073,192.4466l10.9665.25-10.9665.25c-.3303.0116-.3325-.5115,0-.5h0Z" style="fill:#404d59; stroke-width:0px;"/><line x1="235.9591" y1="192.6967" x2="421.5072" y2="192.6967" style="fill:none; stroke:#404d59; stroke-linecap:round; stroke-linejoin:round; stroke-width:.5px;"/><path d="m226.2137,192.6966l9.7454-.25c.1381-.0035.2529.1056.2564.2437.0041.1425-.1139.2604-.2564.2563,0,0-9.7454-.25-9.7454-.25h0Z" style="fill:#404d59; stroke-width:0px;"/><line x1="278.2383" y1="84.5407" x2="283.0675" y2="117.3468" style="fill:none; stroke:#404d59; stroke-linecap:round; stroke-linejoin:round; stroke-width:.5px;"/><line x1="278.5614" y1="86.7361" x2="260.3796" y2="86.7361" style="fill:none; stroke:#404d59; stroke-linecap:round; stroke-linejoin:round; stroke-width:.5px;"/><path d="m235.1692,83.7846l-8.9555-.25,8.9555-.25c.3323-.0131.3339.5131,0,.5h0Z" style="fill:#404d59; stroke-width:0px;"/><path d="m349.9354,37.8916c18.7449,13.8571,50.1015,37.5651,65.4347,50.7531,2.033,1.7485,3.5636,4.0034,4.4525,6.5332l.6919,1.9694c.4018,1.1435.6659,2.3251.7889,3.5308.9383,9.1962,4.6311,50.9791-1.5066,87.2898l1.7104,4.7287" style="fill:none; stroke:#404d59; stroke-linecap:round; stroke-linejoin:round; stroke-width:.5px;"/><path d="m428.1531,90.1841c-6.3895-5.814-13.5974-11.3256-20.307-16.7545-20.6747-16.2829-41.4717-32.5716-63.8171-46.5208-8.2355-5.538-18.4109-7.6669-28.2263-7.894,0,.0001-29.8605-.0746-29.8605-.0746-14.8459.0045-44.875-.1025-59.7286-.179,14.9284-.0733,44.8152-.1804,59.7287-.1786-.0002,0,29.8673-.0218,29.8673-.0218,9.9276.1939,20.1833,2.327,28.502,7.9835,22.1966,13.9523,43.1009,30.3491,63.6693,46.7167,6.6678,5.4853,13.8315,11.0576,20.1721,16.923h0Z" style="fill:#404d59; stroke-width:0px;"/><path d="m226.2137,13.7165c14.502-.1459,43.5461-.3599,58.0349-.404-.0002,0,29.0172-.0606,29.0172-.0606,4.8392-.0274,9.7609-.1286,14.5447.8192,10.8463,1.8976,20.7467,7.1755,29.7378,13.3347,10.9912,7.4924,21.6971,15.4375,32.278,23.4865,15.3957,11.7185,30.5899,23.6974,45.6486,35.8438-22.9269-17.7704-45.9027-35.5102-69.5077-52.3719-11.6711-8.3117-23.9411-16.8203-38.3311-19.3343-4.7422-.9516-9.5465-.8559-14.3704-.8485,0,0-29.0174-.0606-29.0174-.0606-14.4281-.0424-43.6006-.2563-58.0348-.4043h0Z" style="fill:#404d59; stroke-width:0px;"/><path d="m344.1704,26.7267s4.3837-.2655,8.2337-2.1241" style="fill:none; stroke:#404d59; stroke-linecap:round; stroke-linejoin:round; stroke-width:.5px;"/><path d="m267.6046,25.6646h27.5817c28.1443,0,38.4028,0,54.7491,12.227" style="fill:none; stroke:#404d59; stroke-linecap:round; stroke-linejoin:round; stroke-width:.5px;"/><path d="m226.2137,25.6645l41.3909-.25c.3196-.0065.3308.503.003.5,0,.0001-41.3928-.25-41.3938-.25h0Z" style="fill:#404d59; stroke-width:0px;"/><path d="m406.6288,133.8693s-27.1533-18.1821-29.4139-20.1013c-2.2606-1.9191-2.0095-4.2369-1.3396-5.9247s5.1074-8.3023,5.9447-9.2234,2.8467-2.4281,6.2796-2.5118c3.4328-.0837,15.4963-.6716,15.4963-.6716" style="fill:none; stroke:#404d59; stroke-linecap:round; stroke-linejoin:round; stroke-width:.5px;"/><path d="m395.1941,82.3794c-7.597,1.002-10.1926,1.9341-11.7834,4.3567-1.5908,2.4225-8.289,19.6133-8.7914,21.1071s-.023,4.0117,2.5956,5.9247" style="fill:none; stroke:#404d59; stroke-linecap:round; stroke-linejoin:round; stroke-width:.5px;"/><path d="m402.4653,131.0752c-.2506-.1684-26.5063-4.4903-29.9391-5.3276-3.4328-.8373-7.4518-2.5515-6.9494-4.7923l3.5166-5.5062-3.004-2.3319c-.3277-.2544-.4442-.6969-.2842-1.0797l11.4935-27.4969,2.2606-2.9857s3.9644-2.6491,9.3502-4.0116" style="fill:none; stroke:#404d59; stroke-linecap:round; stroke-linejoin:round;"/><line x1="369.0933" y1="115.4492" x2="379.5042" y2="115.4492" style="fill:none; stroke:#404d59; stroke-linecap:round; stroke-linejoin:round; stroke-width:.5px;"/><path d="m365.8051,112.0375l-9.9408-4.71s-1.4234.1103-2.8467.5157c-1.4234.4053-12.9065,4.8429-12.9065,4.8429" style="fill:none; stroke:#404d59; stroke-linecap:round; stroke-linejoin:round;"/><path d="m351.9291,86.7361s3.9352.4544,11.2195,3.4479l6.5308,2.9935s2.9202,2.6048,1.9625,4.8961" style="fill:none; stroke:#404d59; stroke-linecap:round; stroke-linejoin:round;"/><line x1="376.3809" y1="86.7361" x2="351.9291" y2="86.7361" style="fill:none; stroke:#404d59; stroke-linecap:round; stroke-linejoin:round;"/><line x1="372.5262" y1="86.7361" x2="369.0933" y2="62.9334" style="fill:none; stroke:#404d59; stroke-linecap:round; stroke-linejoin:round;"/><path d="m313.9087,118.478h44.5046c.8477,0,1.3839.9103.9728,1.6517l-8.8467,15.9542c-.6924,1.2488-2.0079,2.0235-3.4358,2.0235h-8.2379" style="fill:none; stroke:#404d59; stroke-linecap:round; stroke-linejoin:round; stroke-width:.5px;"/><path d="m349.7148,137.1027h26.2636c1.5284,0,3.0353.3605,4.3982,1.0522l9.4973,4.82c3.2638,1.6564,5.3202,5.0061,5.3202,8.6662v6.0083" style="fill:none; stroke:#404d59; stroke-linecap:round; stroke-linejoin:round; stroke-width:.5px;"/><path d="m285.4076,117.3468c0,.0124-3.235-18.6949-3.3968-21.1212s.5661-4.4482,4.6099-4.4482,55.6424,1.5366,55.6424,1.5366" style="fill:none; stroke:#404d59; stroke-linecap:round; stroke-linejoin:round; stroke-width:.5px;"/><rect x="344.5009" y="66.3784" width="5.3378" height="48.4363" rx="2.6689" ry="2.6689" transform="translate(64.4709 -130.3468) rotate(23.3838)" style="fill:none; stroke:#404d59; stroke-linecap:round; stroke-linejoin:round;"/><path d="m349.7148,118.478s4.8415-.223,6.7825-3.0288c1.941-2.8058,3.9602-5.9453,3.9602-5.9453" style="fill:none; stroke:#404d59; stroke-linecap:round; stroke-linejoin:round; stroke-width:.5px;"/><path d="m358.0877,94.1638l5.6599,2.5341c.2472.1107.4055.354.4036.6249-.0039.5411-.0078,1.4677.0039,2.1398,0,.9837,2.9351.9837,2.9351,0l-.1584-4.4627c-.0262-.7372-.4703-1.395-1.1442-1.6949l-6.1493-2.7361c-.4745-.2111-1.0297.0095-1.23.4886l-.7961,1.9049c-.1936.4632.0175.9962.4757,1.2014Z" style="fill:none; stroke:#404d59; stroke-linecap:round; stroke-linejoin:round; stroke-width:.5px;"/><line x1="364.158" y1="90.6419" x2="363.37" y2="92.2325" style="fill:none; stroke:#404d59; stroke-linecap:round; stroke-linejoin:round; stroke-width:.5px;"/><line x1="361.6189" y1="95.7492" x2="355.8622" y2="107.3282" style="fill:none; stroke:#404d59; stroke-linecap:round; stroke-linejoin:round; stroke-width:.5px;"/><path d="m248.2598,115.6615s1.6021,41.505,1.6299,46.1659-1.674,15.2626-14.7677,15.2626" style="fill:none; stroke:#404d59; stroke-linecap:round; stroke-linejoin:round; stroke-width:.5px;"/><path d="m235.122,177.3399c-2.6542-.0654-6.9301-.17-9.5446-.2344.2121-.0571.4242-.0068.6363-.0156-.2121-.0087-.4242.0416-.6363-.0156l.6359-.0156c.8027-.0201,2.9863-.0731,3.818-.0938,0,0,5.0907-.125,5.0907-.125.3288-.012.3345.5122,0,.5h0Z" style="fill:#404d59; stroke-width:0px;"/><path d="m256.987,147.9125c.1893,13.0362,2.5771,37.2384-17.6712,37.2384" style="fill:none; stroke:#404d59; stroke-linecap:round; stroke-linejoin:round; stroke-width:.5px;"/><line x1="277.4334" y1="34.7386" x2="237.0675" y2="34.7386" style="fill:none; stroke:#404d59; stroke-linecap:round; stroke-linejoin:round; stroke-width:1.5px;"/><path d="m421.7553,192.7281l-2.1596,15.0602,1.6636-15.123c.0316-.3265.5472-.2641.496.0629h0Z" style="fill:#404d59; stroke-width:0px;"/><g style="clip-path:url(#uuid-750e4df7-f464-424f-afbb-56a76ba706c9);"><polygon points="391.8504 166.1632 397.6872 176.8158 406.8617 172.0403 400.7763 159.3806 391.8504 166.1632" style="fill:#141b21; stroke:#aebbc7; stroke-linecap:round; stroke-linejoin:round; stroke-width:1.5px;"/><path d="m380.2669,116.4569c-5.514-4.209-28.8114-.5378-51.6737,1.0462-8.2996,1.456-26.8673,10.7677-21.3337,20.2903,1.7394,2.3235,5.2389,4.7113,12.2072,3.8819,12.6918-1.5109,52.3704-5.8343,52.4017-5.828,4.3633,6.9679,16.062,25.747,21.5229,35.4658,7.1076-3.3676,11.3027-6.3037,11.3027-6.3037-.3503-2.0074-22.1969-44.7285-24.4271-48.5524Z" style="fill:#141b21; stroke:#aebbc7; stroke-linecap:round; stroke-linejoin:round; stroke-width:1.5px;"/><path d="m277.9372,82.5027l-1.2436-8.7545,4.2284,1.3714c.665.2157,1.3697-.1955,1.5091-.8806l.5843-3.1948-.1292-.9357.46-.5874-.1315-3.8786.8231-.1771c1.0289-.2214,1.5659-1.3604,1.0819-2.2949l-2.4315-4.6952c.3685-6.4063-2.6887-8.5373-2.6887-8.5373,0,0,1.4721-1.2627,2.6547-3.384-3.2363.3874-8.7806-2.3443-11.2295-2.8164-2.6-.5012-9.7928.383-11.9977,4.9107-4.85,2.0554-5.5018,14.1302,3.485,20.1104l.3552,6.2809-.8659,6.1511" style="fill:#141b21; stroke:#aebbc7; stroke-linecap:round; stroke-linejoin:round; stroke-width:1.5px;"/><path d="m262.4015,81.1904s3.6869-4.2833,15.4022-5.3653c5.353,3.9768,11.1622,1.3178,19.5103,10.2922l27.8271,33.4093c-2.2853,9.4005-13.4727,17.4275-19.4094,21.6977,0,0-9.6032-11.2519-17.4519-18.6071-8.2746-7.7543-26.2017-23.2089-25.8783-41.4268Z" style="fill:#141b21; stroke:#aebbc7; stroke-linecap:round; stroke-linejoin:round; stroke-width:1.5px;"/><path d="m405.8478,165.7851c.4082.0353,3.637,1.1808,7.56,1.3068,5.0894-2.0647,10.1022-3.3378,10.6624-2.0729.4812,1.0866,1.1731,2.3195,1.5619,3.1186s-1.8552,3.1263-7.9829,6.2728c-6.1277,3.1465-20.2123,9.0988-20.2123,9.0988-1.9301.8727-3.648-2.861-3.544-4.3731-1.1664-2.3971-.301-5.4232.0715-6.1809,5.35.2184,10.7088-3.426,11.8834-7.17Z" style="fill:#141b21; stroke:#aebbc7; stroke-linecap:round; stroke-linejoin:round; stroke-width:1.5px;"/><path d="m393.8814,178.8545c1.0783,1.3946,4.0306.2427,7.4915-1.269,4.9339-2.1551,9.9041-4.4203,13.1969-5.9637,2.8289-1.326,8.4235-3.9976,8.8311-7.0386" style="fill:#141b21; stroke:#aebbc7; stroke-linecap:round; stroke-linejoin:round; stroke-width:1.5px;"/><path d="m322.6065,112.2735c6.3709-1.8926,9.164-2.4769,11.2902-2.1836,2.1262.2933,4.1467.8965,4.2548,1.2279s.9981,2.0273.4175,2.668c-.2172.7499-.8272,1.8492-1.9723,2.6138-1.0398,1.8282-1.8238,2.6742-3.5716,2.7481s-4.3885-.7108-6.1396-1.3409c-1.751-.63-6.3279-2.2107-6.3279-2.2107l2.0487-3.5225Z" style="fill:#141b21; stroke:#aebbc7; stroke-linecap:round; stroke-linejoin:round; stroke-width:1.5px;"/><path d="m266.7178,85.3464c-.426,2.671,1.5042,7.6774,7.2463,11.7494,5.7421,4.072,17.8547,17.127,19.3419,18.5219,6.1956,1.3467,29.7998,2.7985,31.4867,2.9701s3.7258-8.2171-.3082-8.6274l-23.9589-4.9539-11.0859-14.8296s-5.3234-10.6624-10.6585-11.5263" style="fill:#141b21; stroke-width:0px;"/><path d="m266.7178,85.3464c.3197,5.1728,4.6279,8.9447,8.5476,11.7823,4.0908,3.2179,7.7418,6.9035,11.4173,10.5519,0,0,7.1878,7.3351,7.1878,7.3351,0,0-.3891-.2043-.3891-.2043,9.9071,1.6831,21.2643,2.1595,31.3498,3.0325,1.2234-1.2641,2.3459-6.8232-.458-7.1832.0021.0022-23.9658-5.037-23.9749-5.0378,0,0-.233-.049-.233-.049l-.144-.1907-11.1545-14.7781c-.0227-.025-.0536-.0785-.0672-.1089-2.4884-4.5371-5.3599-9.2704-10.0184-11.846,4.9516-.1433,9.1606,7.3712,11.2985,11.2067-.3791-.5647,11.0401,14.9124,10.9499,14.7723,0,.0001-.3765-.2394-.3765-.2394l23.9747,4.8768-.0715-.011c.5429.0536,1.1206.2534,1.5804.6195,2.3613,1.612,1.5962,8.6909-1.1087,9.4424-10.3791-.7279-21.6475-1.2178-31.8972-2.8933,0-.0002-.2278-.0434-.2278-.0434l-.1615-.1614c-2.4872-2.484-4.78-4.9604-7.2056-7.4044-3.6048-3.6248-7.2043-7.3055-11.192-10.4864-4.067-2.8834-8.626-7.5671-7.6262-12.9823h0Z" style="fill:#aebbc7; stroke-width:0px;"/><path d="m300.5257,105.0064s-1.8089,1.3326-3.1717,6.2721" style="fill:#141b21; stroke-width:0px;"/><path d="m300.9705,105.6102c-1.7742,1.3768-2.7557,3.6176-3.6166,5.6683.462-2.411,1.0022-4.9915,2.7268-6.876,0,0,.8898,1.2077.8898,1.2077h0Z" style="fill:#aebbc7; stroke-width:0px;"/></g><path d="m256.7624,46.6361c.2347,3.8157.4913,9.8994.3654,11.1741-.1768,1.7444-1.2354,4.0944-1.7111,4.9912-.4663.887-.4618,1.2124-1.628,1.3147-.22.0126-.5739.0271-1.0043.0522" style="fill:none; stroke:#404d59; stroke-linecap:round; stroke-linejoin:round; stroke-width:1.5px;"/><path d="m258.0306,149.334s-1.3208-2.1601-2.1963-4.2053c-.8755-2.0452-1.2642-3.8955-1.3583-4.8624s-.3349-3.7874-.5851-7.2935-.914-4.8282-1.375-6.0724-3.889-9.9103-7.811-19.2956c-3.922-9.3854-6.2691-12.8222-6.9289-13.8619s-1.164-2.485-1.2104-2.9281-.864-9.9522-.8696-10.3555.6314-1.0173.6314-1.0173c0,0-.3214-2.8194-.3802-4.1498s.6462-8.6822.7488-10.0148,2.5427-17.3817,2.8503-18.4752.828-1.3831,2.3495-2.2109c.6803-6.2219,5.8496-5.8094,9.4403-5.7785,3.5907.0309,4.9664,3.2391,5.191,4.89.2246,1.6509.7765,12.3738.5989,14.1109s-1.2342,4.0915-1.7059,4.9855-.4672,1.2167-1.6358,1.3136c-1.1685.0969-5.9687.123-6.8163.0944s-.3256.1822-2.7954-.4694l-.1775,1.3577s.8083.1098,3.7134.1503,3.891.7384,5.1205,2.1333c3.9429,5.0686,6.2606,14.8827,6.8521,17.3196.515,2.1215-.7473,2.41-1.335,2.6406-.7036.2761-1.9664.6407-1.9664.6407,1.232,1.1667,3.2035,2.8062,4.5047,4.0484,2.938,2.8046,3.2056,3.3978,5.3802,6.0302,6.1215,7.8376,10.3408,14.4582,12.5587,19.2278,2.1621,4.6496,3.5172,12.6604,2.8863,16.6225s-1.7869,5.7629-2.2541,6.9796-1.6476,3.3711-1.6476,3.3711c-2.428,4.904-14.1844,13.2391-19.7773,5.0745Z" style="fill:#141b21; stroke:#aebbc7; stroke-linecap:round; stroke-linejoin:round; stroke-width:1.5px;"/><path d="m241.8956,44.5912s-.5522,12.5536-.6862,14.5321.8471,3.6918,2.963,4.6144" style="fill:none; stroke:#aebbc7; stroke-linecap:round; stroke-linejoin:round; stroke-width:1.5px;"/><path d="m241.6153,61.3932c-.2246,2.0844-.6632,2.4535.8446,6.4667,1.5079,4.0132,2.5631,7.3872,3.4643,11.2877.9012,3.9006,1.557,7.5625,1.557,7.5625,0,0,.303,1.4884.9898,1.5596" style="fill:none; stroke:#aebbc7; stroke-linecap:round; stroke-linejoin:round; stroke-width:.5px;"/><path d="m236.3273,79.4419c.7707,3.2166.8306,4.6277,1.733,5.7044s1.4777,1.8352,1.4777,1.8352c0,0,.9062.9556,2.0546,1.0607,1.1484.1051,13.0878.7024,14.7871-.0622" style="fill:none; stroke:#aebbc7; stroke-linecap:round; stroke-linejoin:round; stroke-width:1.5px;"/><path d="m254.9332,88.3272c.5072-.0734.7043-1.0847.3156-2.935-.3887-1.8503-4.6601-16.0717-5.083-17.4778s-1.2848-2.3435-2.8215-2.6745" style="fill:none; stroke:#aebbc7; stroke-linecap:round; stroke-linejoin:round; stroke-width:.5px;"/><path d="m239.5379,86.9815c1.2576.507,2.1836.3732,1.7842-2.2435s-1.5564-10.4267-2.1871-12.2736c-.6307-1.8469-2.7678-5.3601-1.8928-11.176" style="fill:none; stroke:#aebbc7; stroke-linecap:round; stroke-linejoin:round; stroke-width:.5px;"/><path d="m246.1512,64.2023s-1.8595-.2001-2.0181-3.3042.044-14.6846.0273-15.8946.2757-3.3924,2.3321-3.4613,3.7913-.0525,3.7913-.0525c0,0,2.1797.0908,2.2966,2.7113.117,2.6205.577,15.4425.591,16.4508s-.116,3.2773,1.2175,3.4363" style="fill:none; stroke:#aebbc7; stroke-linecap:round; stroke-linejoin:round; stroke-width:.5px;"/><rect x="246.0302" y="43.1397" width="4.7155" height="12.4691" rx="1.8748" ry="1.8748" transform="translate(-.6601 3.4453) rotate(-.7937)" style="fill:none; stroke:#aebbc7; stroke-linecap:round; stroke-linejoin:round; stroke-width:.5px;"/><rect x="247.5096" y="45.0701" width="1.7723" height="7.4372" rx=".65" ry=".65" transform="translate(-.652 3.4454) rotate(-.7937)" style="fill:none; stroke:#aebbc7; stroke-linecap:round; stroke-linejoin:round; stroke-width:.5px;"/><path d="m246.3742,39.1046c4.3814-.4611,8.3228-.4207,8.4767,4.4197.1539,4.8404.5667,14.0767.5768,14.8045s.5616,2.7544,1.4437.7914" style="fill:none; stroke:#aebbc7; stroke-linecap:round; stroke-linejoin:round; stroke-width:.5px;"/><path d="m243.995,65.0955s-1.8319.0646-2.1998.8289" style="fill:none; stroke:#aebbc7; stroke-linecap:round; stroke-linejoin:round; stroke-width:.5px;"/><path d="m237.5887,84.4053c.3416,1.7336.604,2.3947,1.2505,3.3669s.7436,1.1291.7436,1.1291c0,0,.7617,1.0656,2.1626,1.2044,1.4009.1388,11.8479.3106,12.5762.3322s1.0096-.2355,1.0052-.552l-.0217-1.5639" style="fill:none; stroke:#aebbc7; stroke-linecap:round; stroke-linejoin:round; stroke-width:.5px;"/><path d="m235.9205,83.3081c.237,2.8094,1.1766,4.6868,3.2822,7.342,2.1056,2.6551,4.9269,5.7989,7.4613,11.3867s9.4577,22.8383,10.2574,25.0552,1.316,5.0212,1.134,7.1987-2.4855,9.0124-.3348,14.5195" style="fill:none; stroke:#aebbc7; stroke-linecap:round; stroke-linejoin:round; stroke-width:.5px;"/><path d="m264.7809,141.121c-.2147-.1835.4963-6.2938.5303-7.6735s-.6672-6.0381-1.3875-8.2561c-.7203-2.218-4.5092-11.5018-6.6997-16.4579-2.1905-4.9561-7.3794-15.46-7.7037-16.1787-.5473-1.2125-1.3737-3.429-1.0492-4.2852" style="fill:none; stroke:#aebbc7; stroke-linecap:round; stroke-linejoin:round; stroke-width:.5px;"/><path d="m272.2614,169.32s-1.1189.4025-1.2206,2.2343-.952,13.5967-.952,13.5967h82.844s-1.93-6.3536-2.5943-8.0609-3.9935-1.8723-3.9935-1.8723c0,0-1.6282-7.0725-2.0352-8.3954s-1.5264-4.7828-5.9022-4.4267c-4.3758.3562-6.7646.4209-6.7646.4209" style="fill:#141b21; stroke:#404d59; stroke-linecap:round; stroke-linejoin:round;"/><path d="m302.9685,174.5562c-.4976-1.6146-.8396-3.9307-.8014-4.3886s.3435-1.4502,2.2897-1.6791c1.9463-.229,27.0949-2.5187,30.1097-2.6332,3.0148-.1145,3.8162.6869,4.5413,2.8621s.8014,3.053.7632,3.7399.3816,1.8699-1.8318,2.0989c-2.2134.229-31.2546,1.2593-32.8574,1.2975s-2.0852-.8817-2.2134-1.2975Z" style="fill:none; stroke:#404d59; stroke-linecap:round; stroke-linejoin:round; stroke-width:.25px;"/><path d="m306.2122,170.2821s23.7749-2.0989,25.454-2.1371c1.6791-.0382,2.0989.3816,2.3279,1.2975s.3435,1.9081.3435,1.9081c0,0,.4961,1.1449-1.2593,1.2593s-25.1487,1.183-25.7974,1.183-1.3357-.4198-1.4502-1.2593-.4579-1.9844.3816-2.2516Z" style="fill:none; stroke:#404d59; stroke-linecap:round; stroke-linejoin:round; stroke-width:.25px;"/><path d="m327.0421,164.6341c8.6693-.5343,11.0353-.5724,11.913-.5724s2.4735.3816,3.183,3.3582,1.9681,8.2047,1.9681,8.2047" style="fill:none; stroke:#404d59; stroke-linecap:round; stroke-linejoin:round; stroke-width:.25px;"/><path d="m259.5418,147.7932c.1802-5.0696,3.9462-7.2974,5.9087-7.8278s7.188-1.5643,21.9886,8.024c4.4025-2.1747,18.064-7.3208,24.3967-9.0711,6.3328-1.7504,13.2282-4.1373,19.8054-2.0156l10.9972,3.406c1.4717.4558,2.4753,1.819,2.4673,3.3597-.0004.0741-.0008.1484-.0008.2229,0,1.0891-.121,11.6374-.2824,12.7669s-1.4925,1.4925-4.2757,2.5412c-2.7832,1.0488-5.7771,1.542-7.7536,2.9134-1.9765,1.3714-5.0824,2.5009-7.6236,2.9446s-43.9671,4.195-48.6058,4.5984c-4.6387.4034-6.0909-1.1698-6.9379-2.1782s-6.2522-9.6808-8.269-13.1094c-2.0168-3.4286-1.8152-6.5749-1.8152-6.5749" style="fill:#141b21; stroke:#aebbc7; stroke-linecap:round; stroke-linejoin:round; stroke-width:1.5px;"/><path d="m287.4391,147.9894c.7664,1.3644.9318,1.7142,3.2277,3.5171,2.0888,1.6403,5.5989,4.462,8.0641,5.2825,1.7579.585,6.1298.6802,11.7522.2559,5.6224-.4243,13.4726-1.5382,17.6099-2.0686,4.1373-.5304,13.022-1.5766,14.295-2.1772,1.273-.6006,2.0498-.4419,2.6427-1.7677" style="fill:none; stroke:#aebbc7; stroke-linecap:round; stroke-linejoin:round; stroke-width:.5px;"/><path d="m261.6855,154.9226c-2.0696-3.235-2.482-11.5452,2.133-14.2736,3.2263-1.9075,9.0935-.4407,13.4429,2.3175,4.3494,2.7582,11.8928,8.9752,17.6363,13.1466,3.4762,2.5247,6.2778,3.3786,15.7569,2.4388,8.1515-.8082,18.2279-2.4532,23.7476-3.2915,4.3119-.6549,10.5479-1.4396,10.5882-3.2074" style="fill:none; stroke:#aebbc7; stroke-linecap:round; stroke-linejoin:round; stroke-width:.5px;"/><path d="m289.3126,150.2242c12.1526-3.0822,23.5043-6.2158,31.4075-7.0703s13.95,1.4673,16.2308,1.8976c2.2808.4303,8.222,1.6837,8.1555-.0667" style="fill:none; stroke:#aebbc7; stroke-linecap:round; stroke-linejoin:round; stroke-width:.5px;"/><path d="m303.7394,154.8156c-.9746-1.253-1.6545-4.039-1.7264-4.7336-.0969-.9369.7208-2.0456,2.6174-2.506,4.8172-1.1695,13.1985-2.8402,16.1222-3.3414s4.7058-.6404,6.822,1.086,1.615,3.6477,1.3087,4.8729-.4455,1.6707-.4455,1.6707c0,0-.2228,1.4479-2.0327,1.8656-1.8099.4177-15.9826,2.1134-19.2966,2.1162-2.4225.0021-3.3692-1.0303-3.3692-1.0303Z" style="fill:none; stroke:#141b21; stroke-linecap:round; stroke-linejoin:round; stroke-width:.5px;"/><path d="m303.7394,154.8156c-.9746-1.253-1.6545-4.039-1.7264-4.7336-.0969-.9369.7208-2.0456,2.6174-2.506,4.8172-1.1695,13.1985-2.8402,16.1222-3.3414s4.7058-.6404,6.822,1.086,1.615,3.6477,1.3087,4.8729-.4455,1.6707-.4455,1.6707c0,0-.2228,1.4479-2.0327,1.8656-1.8099.4177-15.9826,2.1134-19.2966,2.1162-2.4225.0021-3.3692-1.0303-3.3692-1.0303Z" style="fill:none; stroke:#aebbc7; stroke-linecap:round; stroke-linejoin:round; stroke-width:.5px;"/><circle cx="307.5436" cy="151.4431" r="2.2909" style="fill:none; stroke:#aebbc7; stroke-linecap:round; stroke-linejoin:round; stroke-width:.5px;"/><circle cx="307.5436" cy="151.4431" r="3.111" style="fill:none; stroke:#aebbc7; stroke-linecap:round; stroke-linejoin:round; stroke-width:.5px;"/><path d="m311.6464,148.5758s2.5463,3.7927,2.7474,4.0607.6567.7371,1.2598.6969.9247-.067,1.1659-.0804.9247-.3752.4021-1.2196-2.5195-3.7257-2.7876-4.0875-.8041-.6299-1.367-.5227-.9783.2278-1.1391.268-.5897.4257-.2814.8845Z" style="fill:none; stroke:#aebbc7; stroke-linecap:round; stroke-linejoin:round; stroke-width:.5px;"/><path d="m312.6649,148.7635s2.1443,3.069,2.3051,3.2968.3752.4155.6969.3886.6031-.067.6031-.067c0,0,.4021-.0402.0804-.5093s-2.1041-3.069-2.2649-3.2834-.3172-.4753-.679-.3949l-.5271.1378s-.3969.1279-.2144.4313Z" style="fill:none; stroke:#aebbc7; stroke-linecap:round; stroke-linejoin:round; stroke-width:.5px;"/><path d="m319.8591,149.9827s5.742-1.01,6.264-1.078.8511.1601.7717.6417-.1475.7994-.2156,1.015-.3972.7876-.9305.8818c-.5333.0942-3.8015.6729-4.1987.7183s-.9759-.0454-1.2937-.3972-.556-.7376-.7376-.9646-.1021-.6695.3404-.817Z" style="fill:none; stroke:#aebbc7; stroke-linecap:round; stroke-linejoin:round; stroke-width:.5px;"/><path d="m320.8123,150.3676s4.3349-.7583,4.7207-.8213.4312.1467.3631.4106-.1929.5755-.1929.5755c0,0-.1248.3806-.6014.4714s-2.837.4993-3.0639.5333-.6128-.0227-.8057-.2383-.488-.556-.556-.6695.0113-.24.1362-.2618Z" style="fill:none; stroke:#aebbc7; stroke-linecap:round; stroke-linejoin:round; stroke-width:.5px;"/><path d="m307.8663,150.0196q.0175.0137.0194.0295c.0037.0315-.026.0507-.0416.0525l-.1899.0063c-.0157.0018-.0332-.0121-.0489-.0103l-.1575-.1249-.0175-.0137-.0156.0018-.1265.1419c-.0137.0176-.0295.0194-.0451.0212l-.19.0062c-.0313.0036-.0487-.0101-.0524-.0416-.0018-.0156-.0036-.0313.0119-.0331l.3811-.4103c.0139-.0174.0295-.0194.0295-.0194.0157-.0018.0313-.0035.0331.0121l.4099.3818Z" style="fill:#141b21; stroke-width:0px;"/><path d="m308.0275,152.7682q.0139-.0176.0121-.0331c-.0037-.0315-.0212-.0452-.0525-.0416l-.1899.0062c-.0157.0018-.0313.0036-.0452.0212l-.1264.1418-.0157.0018s-.0156.0018-.0174-.0138l-.1576-.1249c-.0174-.0139-.0331-.0121-.0487-.0103l-.1899.0063c-.0315.0037-.0452.0211-.0416.0525.0018.0157.0036.0313.0192.0295l.4236.3642q.0176.0139.0333.0121c.0156-.0018.0313-.0036.0295-.0194l.3672-.3927Z" style="fill:#141b21; stroke-width:0px;"/><path d="m306.0374,151.0913q.0138-.0174.0295-.0192c.0313-.0036.0489.0101.0525.0416l.0062.1902c.0018.0156-.0119.0331-.0101.0489l-.1265.142-.0138.0174.0018.0157.1574.1247c.0176.0139.0194.0296.0212.0454l.0062.19c.0037.0315-.0258.0507-.0416.0525-.0156.0018-.0313.0036-.0331-.0119l-.4236-.3642q-.0176-.0139-.0194-.0295c-.0018-.0157-.0037-.0315.0121-.0333l.3811-.4103Z" style="fill:#141b21; stroke-width:0px;"/><path d="m308.9061,150.9004q-.0175-.0137-.0333-.0119c-.0313.0036-.0451.021-.0414.0525l.0062.19c.0018.0157.0037.0315.0212.0454l.1574.1247.0018.0157s.0018.0157-.0139.0176l-.1264.1418c-.0139.0176-.0121.0333-.0103.0489l.0064.1902c.0037.0315.0211.0452.0525.0416.0156-.0018.0313-.0036.0295-.0192l.3811-.4103q.0138-.0175.0119-.0331c-.0018-.0157-.0037-.0315-.0192-.0297l-.4236-.3642Z" style="fill:#141b21; stroke-width:0px;"/><path d="m271.3517,179.6952s1.2155.1526,3.556-.5597c2.3405-.7123,17.5941-5.2408,17.5941-5.2408,0,0,1.232-.7123,2.0969.9667s1.2826,2.5949,2.5493,2.5441,46.5001-1.73,46.9581-1.7808,2.2388-.407,2.2388-.407" style="fill:none; stroke:#404d59; stroke-linecap:round; stroke-linejoin:round; stroke-width:.25px;"/><path d="m246.8173,185.1509h139.577c18.3111,0,20.2346-13.5824,20.2346-17.8803v-40.5742c0-8.4513-.4143-18.9147-2.7284-29.9819-2.314-11.0671-10.9665-16.0976-14.9909-19.1711-4.0244-3.0735-39.0368-28.7193-46.8844-34.3535-7.8476-5.6342-14.4464-8.4513-20.8705-8.4513h-43.7213" style="fill:none; stroke:#404d59; stroke-linecap:round; stroke-linejoin:round; stroke-width:1.5px;"/></g><g style="clip-path:url(#uuid-3e1fc14b-3bda-46b7-8d67-bae80486c781);"><path d="m498.2768,185.1509c-.0747-.2242-3.3696-15.7023-4.4531-21.2293-.2129-1.0859.6188-2.0942,1.7254-2.0942h110.1418c4.9819,0,9.1335-.0923,14.7612-3.598s12.3625-7.9342,12.3625-7.9342" style="fill:none; stroke:#404d59; stroke-linecap:round; stroke-linejoin:round;"/><path d="m495.5491,161.8274l-3.4273-8.1187s-1.6606-.369-3.0445-1.1993c-1.3839-.8303-9.8716-7.8419-9.8716-7.8419,0,0-1.9374-1.3839-.5535-3.6903,1.3839-2.3064,11.5322-14.669,11.5322-14.669,0,0,2.3987-2.491,6.458-2.491h65.9557c.4575,0,.9029.1468,1.2708.4188l1.5614,1.1546c.545.403.8666,1.0407.8666,1.7186v4.6298c0,.1926-.0247.3795-.076.5651-.4173,1.5086-2.4493,8.7809-3.522,11.2563l7.6574,18.267" style="fill:none; stroke:#404d59; stroke-linecap:round; stroke-linejoin:round;"/><path d="m562.6988,143.5604h-53.1404c-3.6903,0-5.8122.4613-8.2109,2.2142-2.3987,1.7529-9.2258,7.9342-9.2258,7.9342" style="fill:none; stroke:#404d59; stroke-linecap:round; stroke-linejoin:round; stroke-width:.5px;"/><path d="m479.2057,144.6675l11.9012-14.2999s2.9522-3.1368,8.1187-3.1368h67.0713" style="fill:none; stroke:#404d59; stroke-linecap:round; stroke-linejoin:round; stroke-width:.5px;"/><path d="m478.1538,36.8183h-5.0371c-1.4761,0-4.3361,1.0148-4.3361,4.9819,0,0-1.4761.8303-2.491,1.9374s-4.9819,24.2637-4.9819,29.9837v14.2077c0,1.9374,1.5684,4.4284,2.86,6.3658s7.2884,10.5174,9.318,17.898,7.248,25.9147,7.248,25.9147" style="fill:none; stroke:#404d59; stroke-linecap:round; stroke-linejoin:round;"/><path d="m505.0378,117.3592s-7.7282-16.3296-12.075-21.3115c-4.3468-4.9819-9.3288-6.3658-9.3288-6.3658v-1.4761s3.6903.1845,3.0445-3.229c-.6458-3.4135-3.5058-11.4399-6.7348-18.1747,0,0-1.9374-2.7677-7.6574-2.7677v-1.2916h8.0264s2.86-1.8452,2.86-5.3509v-16.4219c0-1.8452-2.0115-4.1516-5.019-4.1516" style="fill:none; stroke:#404d59; stroke-linecap:round; stroke-linejoin:round;"/><path d="m472.2864,62.7427c-1.4116,0-4.3231-.9533-4.1411-3.9255.182-2.9722.6353-17.017.6353-17.017" style="fill:none; stroke:#404d59; stroke-linecap:round; stroke-linejoin:round; stroke-width:.5px;"/><path d="m461.356,72.4007c-.0483,1.3207,1.5121,3.5218,1.8154,6.0694s1.1525,5.1558,2.4263,6.369c1.2738,1.2131,2.7296,2.8509,5.9444,3.1541s12.092.2127,12.092.2127" style="fill:none; stroke:#404d59; stroke-linecap:round; stroke-linejoin:round; stroke-width:.5px;"/><path d="m461.3077,77.5433c.5472,4.8525,2.9555,9.2366,5.3818,11.6023s8.4919,11.6461,10.1297,15.5281c1.6377,3.882,9.3251,26.6037,9.3251,26.6037" style="fill:none; stroke:#404d59; stroke-linecap:round; stroke-linejoin:round; stroke-width:.5px;"/><path d="m463.6604,55.582c-.3324,1.9572-.9743,7.2386.6635,9.6042s3.7607,7.8247,4.246,10.6756c.4853,2.8509,1.6419,9.2198,1.6419,9.2198,0,0,.5229,2.3363-.9841,2.3813" style="fill:none; stroke:#404d59; stroke-linecap:round; stroke-linejoin:round; stroke-width:.5px;"/><rect x="473.665" y="41.2874" width="4.7919" height="13.0412" rx="1.7428" ry="1.7428" style="fill:none; stroke:#404d59; stroke-linecap:round; stroke-linejoin:round; stroke-width:.5px;"/><path d="m471.899,62.364v-19.6263c0-1.6719,1.3554-3.0273,3.0273-3.0273h2.2693c1.6719,0,3.0273,1.3554,3.0273,3.0273v19.6263" style="fill:none; stroke:#404d59; stroke-linecap:round; stroke-linejoin:round; stroke-width:.5px;"/><path d="m468.1452,58.8172c0,2.9722.6756,5.3984,2.0665,7.4608s3.4373,7.1575,4.2338,10.6756,1.6154,9.2198,1.6154,9.2198c0,0,.1206,1.0997-.3343,2.0025" style="fill:none; stroke:#404d59; stroke-linecap:round; stroke-linejoin:round; stroke-width:.5px;"/><line x1="472.2864" y1="64.0343" x2="469.0384" y2="64.0343" style="fill:none; stroke:#404d59; stroke-linecap:round; stroke-linejoin:round; stroke-width:.5px;"/><path d="m474.4455,88.1446c3.0332,2.7785,12.4989,20.1759,17.0611,37.1465" style="fill:none; stroke:#404d59; stroke-linecap:round; stroke-linejoin:round; stroke-width:.5px;"/><path d="m493.7903,124.2492c-.7747-.432-.746-1.5391-.746-1.5391,4.7248-5.8822,9.0412-5.3509,11.9935-5.3509h31.0908c3.6903,0,6.1813,2.86,6.1813,2.86l-1.2916,3.598" style="fill:none; stroke:#404d59; stroke-linecap:round; stroke-linejoin:round;"/><path d="m542.3099,120.2192h-36.3186c-3.5533,0-8.7505-.2143-12.201,4.03" style="fill:none; stroke:#404d59; stroke-linecap:round; stroke-linejoin:round; stroke-width:.5px;"/><line x1="558.0068" y1="143.5604" x2="565.0514" y2="161.8274" style="fill:none; stroke:#404d59; stroke-linecap:round; stroke-linejoin:round; stroke-width:.5px;"/><path d="m563.747,140.649h-57.0653c-2.0846,0-4.6725.3877-6.3977,2.1733-1.7252,1.7856-9.9,10.3246-9.9,10.3246" style="fill:none; stroke:#404d59; stroke-linecap:round; stroke-linejoin:round; stroke-width:.5px;"/><line x1="501.2904" y1="161.8274" x2="507.2651" y2="185.1509" style="fill:none; stroke:#404d59; stroke-linecap:round; stroke-linejoin:round; stroke-width:.5px;"/><path d="m463.2533,34.7386c3.2407,0,6.2694.819,8.0249,2.5223" style="fill:none; stroke:#404d59; stroke-linecap:round; stroke-linejoin:round;"/><path d="m452.3995,34.7385l10.8538-.75c.4142-.0286.7732.2839.8018.6982.0348.4509-.3516.836-.8018.8018,0,0-10.8538-.75-10.8538-.75h0Z" style="fill:#404d59; stroke-width:0px;"/><path d="m503.6191,34.7386c-6.8415,0-7.6464,5.8354-6.9421,9.4574s7.747,39.8417,7.747,40.3447c0,0,59.4607,1.1067,67.3082,1.6098" style="fill:none; stroke:#404d59; stroke-linecap:round; stroke-linejoin:round;"/><path d="m473.003,185.1509h139.577c18.3111,0,20.2346-13.5824,20.2346-17.8803v-40.5742c0-8.4513-.4143-18.9147-2.7284-29.9819s-10.9665-16.0976-14.9909-19.1711-39.0368-28.7193-46.8844-34.3535c-7.8476-5.6342-14.4464-8.4513-20.8705-8.4513h-43.7213" style="fill:none; stroke:#404d59; stroke-linecap:round; stroke-linejoin:round; stroke-width:1.5px;"/><path d="m452.3995,185.1509l20.6036-.75c.4142-.015.7622.3085.7773.7228.0177.4333-.3442.7946-.7773.7772,0,0-20.6036-.75-20.6036-.75h0Z" style="fill:#404d59; stroke-width:0px;"/><path d="m645.9826,187.718l12.6769.25-12.6769.25c-.3291.0105-.3317-.5107,0-.5h0Z" style="fill:#404d59; stroke-width:0px;"/><line x1="462.1449" y1="187.968" x2="645.9826" y2="187.968" style="fill:none; stroke:#404d59; stroke-linecap:round; stroke-linejoin:round; stroke-width:.5px;"/><path d="m452.3995,187.968l9.7454-.25c.1381-.0035.2529.1055.2564.2435.0041.1425-.1139.2605-.2564.2565,0,0-9.7454-.25-9.7454-.25h0Z" style="fill:#404d59; stroke-width:0px;"/><path d="m647.693,192.4466l10.9665.25-10.9665.25c-.3303.0116-.3325-.5116,0-.5h0Z" style="fill:#404d59; stroke-width:0px;"/><line x1="462.1449" y1="192.6967" x2="647.693" y2="192.6967" style="fill:none; stroke:#404d59; stroke-linecap:round; stroke-linejoin:round; stroke-width:.5px;"/><path d="m452.3995,192.6966l9.7454-.25c.1381-.0035.2529.1056.2564.2437.0041.1425-.1139.2604-.2564.2563,0,0-9.7454-.25-9.7454-.25h0Z" style="fill:#404d59; stroke-width:0px;"/><line x1="504.424" y1="84.5407" x2="509.2533" y2="117.3468" style="fill:none; stroke:#404d59; stroke-linecap:round; stroke-linejoin:round; stroke-width:.5px;"/><line x1="504.7472" y1="86.7361" x2="486.5653" y2="86.7361" style="fill:none; stroke:#404d59; stroke-linecap:round; stroke-linejoin:round; stroke-width:.5px;"/><path d="m461.3549,83.7846l-8.9554-.25,8.9554-.25c.3323-.0131.3339.5131,0,.5h0Z" style="fill:#404d59; stroke-width:0px;"/><path d="m576.1212,37.8916c18.7449,13.8571,50.1015,37.5651,65.4347,50.7531,2.033,1.7485,3.5636,4.0034,4.4525,6.5332l.6919,1.9694c.4018,1.1435.6659,2.3251.7889,3.5308.9383,9.1962,4.6311,50.9791-1.5066,87.2898l1.7104,4.7287" style="fill:none; stroke:#404d59; stroke-linecap:round; stroke-linejoin:round; stroke-width:.5px;"/><path d="m654.3389,90.1841c-6.3895-5.8141-13.5974-11.3256-20.3069-16.7545-20.6747-16.2829-41.4716-32.5716-63.8171-46.5208-8.2355-5.538-18.4109-7.6669-28.2263-7.894,0,.0001-29.8605-.0746-29.8605-.0746-14.8459.0045-44.875-.1025-59.7286-.179,14.9284-.0733,44.8151-.1804,59.7287-.1786-.0002,0,29.8673-.0218,29.8673-.0218,9.9276.1939,20.1833,2.327,28.502,7.9835,22.1966,13.9523,43.1009,30.3491,63.6693,46.7167,6.6678,5.4853,13.8315,11.0576,20.1721,16.923h0Z" style="fill:#404d59; stroke-width:0px;"/><path d="m452.3995,13.7165c14.502-.1459,43.5461-.3599,58.0349-.404-.0002,0,29.0172-.0606,29.0172-.0606,4.8392-.0274,9.7609-.1286,14.5448.8192,10.8463,1.8976,20.7467,7.1755,29.7378,13.3347,10.9913,7.4924,21.6971,15.4375,32.278,23.4865,15.3958,11.7185,30.5898,23.6974,45.6486,35.8438-22.9269-17.7705-45.9027-35.5102-69.5077-52.3719-11.6711-8.3118-23.9411-16.8203-38.3311-19.3343-4.7422-.9516-9.5465-.8559-14.3704-.8485,0,0-29.0174-.0606-29.0174-.0606-14.4281-.0424-43.6006-.2563-58.0348-.4043h0Z" style="fill:#404d59; stroke-width:0px;"/><path d="m570.3562,26.7267s4.3837-.2655,8.2337-2.1241" style="fill:none; stroke:#404d59; stroke-linecap:round; stroke-linejoin:round; stroke-width:.5px;"/><path d="m493.7903,25.6646h27.5817c28.1443,0,38.4028,0,54.7491,12.227" style="fill:none; stroke:#404d59; stroke-linecap:round; stroke-linejoin:round; stroke-width:.5px;"/><path d="m452.3995,25.6645l41.3909-.25c.3195-.0065.3308.503.003.5,0,.0001-41.3928-.25-41.3939-.25h0Z" style="fill:#404d59; stroke-width:0px;"/><path d="m632.8146,133.8693s-27.1533-18.1821-29.4139-20.1013-2.0095-4.2369-1.3396-5.9247,5.1074-8.3023,5.9447-9.2234,2.8467-2.4281,6.2796-2.5118c3.4328-.0837,15.4963-.6716,15.4963-.6716" style="fill:none; stroke:#404d59; stroke-linecap:round; stroke-linejoin:round; stroke-width:.5px;"/><path d="m621.3799,82.3794c-7.597,1.002-10.1926,1.9341-11.7834,4.3567-1.5908,2.4225-8.289,19.6133-8.7914,21.1071s-.023,4.0117,2.5956,5.9247" style="fill:none; stroke:#404d59; stroke-linecap:round; stroke-linejoin:round; stroke-width:.5px;"/><path d="m628.651,131.0752c-.2506-.1684-26.5063-4.4903-29.9391-5.3276-3.4328-.8373-7.4518-2.5515-6.9494-4.7923l3.5166-5.5062-3.004-2.3319c-.3277-.2544-.4442-.6969-.2842-1.0797l11.4935-27.4969,2.2606-2.9857s3.9644-2.6491,9.3502-4.0116" style="fill:none; stroke:#404d59; stroke-linecap:round; stroke-linejoin:round;"/><line x1="595.2791" y1="115.4492" x2="605.69" y2="115.4492" style="fill:none; stroke:#404d59; stroke-linecap:round; stroke-linejoin:round; stroke-width:.5px;"/><path d="m591.9908,112.0375l-9.9408-4.71s-1.4234.1103-2.8467.5157-12.9065,4.8429-12.9065,4.8429" style="fill:none; stroke:#404d59; stroke-linecap:round; stroke-linejoin:round;"/><path d="m578.1149,86.7361s3.9352.4544,11.2195,3.4479l6.5308,2.9935s2.9202,2.6048,1.9625,4.8961" style="fill:none; stroke:#404d59; stroke-linecap:round; stroke-linejoin:round;"/><line x1="602.5667" y1="86.7361" x2="578.1149" y2="86.7361" style="fill:none; stroke:#404d59; stroke-linecap:round; stroke-linejoin:round;"/><line x1="598.7119" y1="86.7361" x2="595.2791" y2="62.9334" style="fill:none; stroke:#404d59; stroke-linecap:round; stroke-linejoin:round;"/><path d="m540.0945,118.478h44.5046c.8477,0,1.3839.9103.9728,1.6517l-8.8467,15.9542c-.6924,1.2488-2.0079,2.0235-3.4358,2.0235h-8.2379" style="fill:none; stroke:#404d59; stroke-linecap:round; stroke-linejoin:round; stroke-width:.5px;"/><path d="m575.9005,137.1027h26.2636c1.5284,0,3.0353.3605,4.3982,1.0522l9.4973,4.82c3.2638,1.6564,5.3202,5.0061,5.3202,8.6662v6.0083" style="fill:none; stroke:#404d59; stroke-linecap:round; stroke-linejoin:round; stroke-width:.5px;"/><path d="m511.5934,117.3468c0,.0124-3.235-18.6949-3.3968-21.1212-.1618-2.4263.5661-4.4482,4.6099-4.4482s55.6424,1.5366,55.6424,1.5366" style="fill:none; stroke:#404d59; stroke-linecap:round; stroke-linejoin:round; stroke-width:.5px;"/><rect x="570.6867" y="66.3784" width="5.3378" height="48.4363" rx="2.6689" ry="2.6689" transform="translate(83.0483 -220.1173) rotate(23.3838)" style="fill:none; stroke:#404d59; stroke-linecap:round; stroke-linejoin:round;"/><path d="m575.9005,118.478s4.8415-.223,6.7825-3.0288c1.941-2.8058,3.9602-5.9453,3.9602-5.9453" style="fill:none; stroke:#404d59; stroke-linecap:round; stroke-linejoin:round; stroke-width:.5px;"/><path d="m584.2735,94.1638l5.6599,2.5341c.2472.1107.4055.354.4036.6249-.0039.5411-.0078,1.4677.0039,2.1398,0,.9837,2.9351.9837,2.9351,0l-.1584-4.4627c-.0262-.7372-.4703-1.395-1.1442-1.6949l-6.1493-2.7361c-.4745-.2111-1.0297.0095-1.23.4886l-.7961,1.9049c-.1936.4632.0175.9962.4757,1.2014Z" style="fill:none; stroke:#404d59; stroke-linecap:round; stroke-linejoin:round; stroke-width:.5px;"/><line x1="590.3437" y1="90.6419" x2="589.5557" y2="92.2325" style="fill:none; stroke:#404d59; stroke-linecap:round; stroke-linejoin:round; stroke-width:.5px;"/><line x1="587.8046" y1="95.7492" x2="582.048" y2="107.3282" style="fill:none; stroke:#404d59; stroke-linecap:round; stroke-linejoin:round; stroke-width:.5px;"/><path d="m474.4455,115.6615s1.6021,41.505,1.6299,46.1659c.0278,4.6609-1.674,15.2626-14.7677,15.2626" style="fill:none; stroke:#404d59; stroke-linecap:round; stroke-linejoin:round; stroke-width:.5px;"/><path d="m461.3077,177.3399c-2.6543-.0654-6.9301-.17-9.5446-.2344.2121-.0571.4242-.0068.6363-.0156-.2121-.0087-.4242.0416-.6364-.0156l.6359-.0156c.8027-.0201,2.9863-.0731,3.818-.0938,0,0,5.0907-.125,5.0907-.125.3288-.012.3346.5122,0,.5h0Z" style="fill:#404d59; stroke-width:0px;"/><path d="m483.1727,147.9125c.1893,13.0362,2.5771,37.2384-17.6712,37.2384" style="fill:none; stroke:#404d59; stroke-linecap:round; stroke-linejoin:round; stroke-width:.5px;"/><line x1="503.6191" y1="34.7386" x2="463.2533" y2="34.7386" style="fill:none; stroke:#404d59; stroke-linecap:round; stroke-linejoin:round; stroke-width:1.5px;"/><path d="m647.941,192.7281l-2.1597,15.0602,1.6636-15.123c.0316-.3265.5472-.2641.496.0629h0Z" style="fill:#404d59; stroke-width:0px;"/><g style="clip-path:url(#uuid-668ac0ca-223d-414d-a2fc-cc4054e5d16f);"><polygon points="618.0361 166.1632 623.8729 176.8158 633.0475 172.0403 626.962 159.3806 618.0361 166.1632" style="fill:#141b21; stroke:#aebbc7; stroke-linecap:round; stroke-linejoin:round; stroke-width:1.5px;"/><path d="m606.4527,116.4569c-5.514-4.209-36.3635-2.0754-59.2448-.7955-8.3182,1.3455-19.3235,11.6677-13.917,21.2631,1.7083,2.3464,5.1758,4.7806,12.1545,4.0438,12.7107-1.342,52.5775-5.1273,52.6088-5.121,4.3633,6.9679,16.062,25.747,21.5229,35.4658,7.1076-3.3676,11.3027-6.3037,11.3027-6.3037-.3503-2.0074-22.1969-44.7285-24.4271-48.5524Z" style="fill:#141b21; stroke:#aebbc7; stroke-linecap:round; stroke-linejoin:round; stroke-width:1.5px;"/><path d="m488.6868,93.4285l-4.0345-7.8683,4.4444-.0848c.699-.0133,1.2308-.6321,1.1387-1.3252l-.4911-3.2105-.4277-.8422.243-.7054-1.391-3.623.7202-.4362c.9002-.5453,1.0357-1.7972.2731-2.5224l-3.8316-3.6437c-1.7439-6.1753-5.3295-7.191-5.3295-7.191,0,0,.979-1.6742,1.4039-4.0654-2.9324,1.4231-9.0648.6519-11.5336,1.0055-2.6211.3754-9.1307,3.5603-9.736,8.5598-3.9128,3.5267-.5853,15.1522,9.8618,17.8694l2.387,5.8205,1.1905,6.0966" style="fill:#141b21; stroke:#aebbc7; stroke-linecap:round; stroke-linejoin:round; stroke-width:1.5px;"/><path d="m473.5744,97.2621s2.0859-5.2525,12.8053-10.1013c6.3583,2.0105,10.9805-2.3999,21.8018,3.3559l41.6066,25.1448c.7969,9.6296-12.3863,21.1859-16.6028,27.1608,0,0-11.8015-10.4681-21.622-14.8567-10.3534-4.6267-32.3448-13.3789-37.9889-30.7035Z" style="fill:#141b21; stroke:#aebbc7; stroke-linecap:round; stroke-linejoin:round; stroke-width:1.5px;"/><path d="m632.0335,165.7851c.4082.0353,3.637,1.1808,7.56,1.3068,5.0894-2.0647,10.1022-3.3378,10.6624-2.0729.4812,1.0866,1.1731,2.3195,1.5619,3.1186s-1.8552,3.1263-7.9829,6.2728c-6.1277,3.1465-20.2123,9.0988-20.2123,9.0988-1.9301.8727-3.648-2.861-3.544-4.3731-1.1664-2.3971-.301-5.4232.0715-6.1809,5.35.2184,10.7088-3.426,11.8834-7.17Z" style="fill:#141b21; stroke:#aebbc7; stroke-linecap:round; stroke-linejoin:round; stroke-width:1.5px;"/><path d="m620.0672,178.8545c1.0783,1.3946,4.0306.2427,7.4915-1.269,4.9339-2.1551,9.9041-4.4203,13.1969-5.9637,2.8289-1.326,8.4235-3.9976,8.8311-7.0386" style="fill:#141b21; stroke:#aebbc7; stroke-linecap:round; stroke-linejoin:round; stroke-width:1.5px;"/><path d="m540.6296,106.9782c5.4034-3.8695,7.8526-5.334,9.958-5.7512s4.2121-.5069,4.4225-.2291,1.6055,1.5902,1.2659,2.3853c.0396.7798-.1779,2.018-1.0105,3.1146-.3857,2.0675-.8504,3.1232-2.4782,3.7638s-4.38.7614-6.2408.7378-6.7029-.0228-6.7029-.0228l.7859-3.9985Z" style="fill:#141b21; stroke:#aebbc7; stroke-linecap:round; stroke-linejoin:round; stroke-width:1.5px;"/><path d="m479.0114,99.7805c.4697,2.6637,3.9291,6.7652,10.6862,8.7385,6.7571,1.9733,22.4691,10.3566,24.3305,11.1894,6.2956-.7506,29.0797-7.0874,30.7301-7.4761,1.6505-.3888.8378-8.9833-3.109-8.0537l-24.2631,3.1425-15.3213-10.3959s-8.5138-8.3392-13.8385-7.4132" style="fill:#141b21; stroke-width:0px;"/><path d="m479.0114,99.7805c1.9916,4.7849,7.2954,6.9427,11.9269,8.3447,4.9174,1.7053,9.5719,3.9966,14.2374,6.2444,0,0,9.1893,4.5855,9.1893,4.5855l-.4345-.066c9.9135-1.645,20.8035-4.9037,30.6211-7.3725.7435-1.5943-.0111-7.2151-2.7789-6.6396.0027.0011-24.2966,3.0664-24.3056,3.0686,0,0-.2362.0298-.2362.0298l-.1983-.1333-15.3693-10.3248c-.0297-.0161-.0764-.0565-.0991-.0808-3.8336-3.4756-8.0937-7.0116-13.3378-7.9244,4.633-1.7529,11.0658,3.9753,14.339,6.902-.5427-.4099,15.305,10.4891,15.174,10.3861,0,0-.4341-.1032-.4341-.1032l24.2527-3.2207s-.0712.0131-.0712.0131c.5306-.1267,1.1419-.1265,1.6961.0693,2.7582.7524,4.3471,7.6932,2.0359,9.2867-10.0476,2.7017-20.8582,5.919-31.0931,7.6827,0-.0002-.2295.0334-.2295.0334,0,0-.2054-.0997-.2054-.0997-3.1621-1.5355-6.1379-3.1274-9.2287-4.6451-4.591-2.2488-9.1952-4.5521-14.0031-6.2561-4.7858-1.397-10.6244-4.335-11.4479-9.7798h0Z" style="fill:#aebbc7; stroke-width:0px;"/><path d="m517.3862,107.3211s-1.2745,1.8503-.9493,6.964" style="fill:#141b21; stroke-width:0px;"/><path d="m518.0038,107.7466c-1.2273,1.8807-1.4231,4.3192-1.5671,6.5385-.3507-2.4297-.683-5.0451.3317-7.3895.0001,0,1.2354.851,1.2354.851h0Z" style="fill:#aebbc7; stroke-width:0px;"/></g><path d="m498.4472,169.32s-1.1189.4025-1.2206,2.2343c-.1018,1.8317-.952,13.5967-.952,13.5967h82.844s-1.93-6.3536-2.5943-8.0609-3.9935-1.8723-3.9935-1.8723c0,0-1.6282-7.0725-2.0352-8.3954s-1.5264-4.7828-5.9022-4.4267-6.7646.4209-6.7646.4209" style="fill:#141b21; stroke:#404d59; stroke-linecap:round; stroke-linejoin:round;"/><path d="m529.1542,174.5562c-.4976-1.6146-.8396-3.9307-.8014-4.3886s.3435-1.4502,2.2897-1.6791,27.0949-2.5187,30.1097-2.6332,3.8162.6869,4.5413,2.8621.8014,3.053.7632,3.7399.3816,1.8699-1.8318,2.0989c-2.2134.229-31.2546,1.2593-32.8574,1.2975s-2.0852-.8817-2.2134-1.2975Z" style="fill:none; stroke:#404d59; stroke-linecap:round; stroke-linejoin:round; stroke-width:.25px;"/><path d="m532.398,170.2821s23.7749-2.0989,25.454-2.1371,2.0989.3816,2.3279,1.2975.3435,1.9081.3435,1.9081c0,0,.4961,1.1449-1.2593,1.2593-1.7554.1145-25.1487,1.183-25.7974,1.183s-1.3357-.4198-1.4502-1.2593-.4579-1.9844.3816-2.2516Z" style="fill:none; stroke:#404d59; stroke-linecap:round; stroke-linejoin:round; stroke-width:.25px;"/><path d="m553.2278,164.6341c8.6693-.5343,11.0353-.5724,11.913-.5724s2.4735.3816,3.183,3.3582c.7095,2.9766,1.9681,8.2047,1.9681,8.2047" style="fill:none; stroke:#404d59; stroke-linecap:round; stroke-linejoin:round; stroke-width:.25px;"/><path d="m485.7275,147.7932c.1802-5.0696,3.9462-7.2974,5.9087-7.8278,1.9626-.5304,7.188-1.5643,21.9886,8.024,4.4025-2.1747,18.064-7.3208,24.3967-9.0711,6.3328-1.7504,13.2282-4.1373,19.8054-2.0156l10.9972,3.406c1.4717.4558,2.4753,1.819,2.4673,3.3597-.0004.0741-.0008.1484-.0008.2229,0,1.0891-.121,11.6374-.2824,12.7669s-1.4925,1.4925-4.2757,2.5412-5.7771,1.542-7.7536,2.9134c-1.9765,1.3714-5.0824,2.5009-7.6236,2.9446s-43.9671,4.195-48.6058,4.5984c-4.6387.4034-6.0909-1.1698-6.9379-2.1782-.8471-1.0084-6.2522-9.6808-8.269-13.1094-2.0168-3.4286-1.8152-6.5749-1.8152-6.5749" style="fill:#141b21; stroke:#aebbc7; stroke-linecap:round; stroke-linejoin:round; stroke-width:1.5px;"/><path d="m513.6248,147.9894c.7664,1.3644.9318,1.7142,3.2277,3.5171,2.0888,1.6403,5.5989,4.462,8.0641,5.2825,1.7579.585,6.1298.6802,11.7522.2559,5.6224-.4243,13.4726-1.5382,17.6099-2.0686,4.1373-.5304,13.022-1.5766,14.295-2.1772,1.273-.6006,2.0498-.4419,2.6427-1.7677" style="fill:none; stroke:#aebbc7; stroke-linecap:round; stroke-linejoin:round; stroke-width:.5px;"/><path d="m487.8713,154.9226c-2.0696-3.235-2.482-11.5452,2.133-14.2736,3.2263-1.9075,9.0935-.4407,13.4429,2.3175,4.3494,2.7582,11.8928,8.9752,17.6363,13.1466,3.4762,2.5247,6.2778,3.3786,15.7569,2.4388,8.1515-.8082,18.2279-2.4532,23.7476-3.2915,4.3119-.6549,10.5479-1.4396,10.5882-3.2074" style="fill:none; stroke:#aebbc7; stroke-linecap:round; stroke-linejoin:round; stroke-width:.5px;"/><path d="m515.4984,150.2242c12.1526-3.0822,23.5043-6.2158,31.4075-7.0703,7.9032-.8546,13.95,1.4673,16.2308,1.8976,2.2808.4303,8.222,1.6837,8.1555-.0667" style="fill:none; stroke:#aebbc7; stroke-linecap:round; stroke-linejoin:round; stroke-width:.5px;"/><path d="m529.9251,154.8156c-.9746-1.253-1.6545-4.039-1.7264-4.7336-.0969-.9369.7208-2.0456,2.6174-2.506,4.8172-1.1695,13.1985-2.8402,16.1222-3.3414s4.7058-.6404,6.822,1.086c2.1162,1.7264,1.615,3.6477,1.3087,4.8729s-.4455,1.6707-.4455,1.6707c0,0-.2228,1.4479-2.0327,1.8656-1.8099.4177-15.9826,2.1134-19.2966,2.1162-2.4225.0021-3.3692-1.0303-3.3692-1.0303Z" style="fill:none; stroke:#141b21; stroke-linecap:round; stroke-linejoin:round; stroke-width:.5px;"/><path d="m529.9251,154.8156c-.9746-1.253-1.6545-4.039-1.7264-4.7336-.0969-.9369.7208-2.0456,2.6174-2.506,4.8172-1.1695,13.1985-2.8402,16.1222-3.3414s4.7058-.6404,6.822,1.086c2.1162,1.7264,1.615,3.6477,1.3087,4.8729s-.4455,1.6707-.4455,1.6707c0,0-.2228,1.4479-2.0327,1.8656-1.8099.4177-15.9826,2.1134-19.2966,2.1162-2.4225.0021-3.3692-1.0303-3.3692-1.0303Z" style="fill:none; stroke:#aebbc7; stroke-linecap:round; stroke-linejoin:round; stroke-width:.5px;"/><circle cx="533.7294" cy="151.4431" r="2.2909" style="fill:none; stroke:#aebbc7; stroke-linecap:round; stroke-linejoin:round; stroke-width:.5px;"/><circle cx="533.7294" cy="151.4431" r="3.111" style="fill:none; stroke:#aebbc7; stroke-linecap:round; stroke-linejoin:round; stroke-width:.5px;"/><path d="m537.8321,148.5758s2.5463,3.7927,2.7474,4.0607.6567.7371,1.2598.6969.9247-.067,1.1659-.0804.9247-.3752.4021-1.2196-2.5195-3.7257-2.7876-4.0875-.8041-.6299-1.367-.5227-.9783.2278-1.1391.268-.5897.4257-.2814.8845Z" style="fill:none; stroke:#aebbc7; stroke-linecap:round; stroke-linejoin:round; stroke-width:.5px;"/><path d="m538.8506,148.7635s2.1443,3.069,2.3051,3.2968.3752.4155.6969.3886.6031-.067.6031-.067c0,0,.4021-.0402.0804-.5093s-2.1041-3.069-2.2649-3.2834-.3172-.4753-.679-.3949l-.5271.1378s-.3969.1279-.2144.4313Z" style="fill:none; stroke:#aebbc7; stroke-linecap:round; stroke-linejoin:round; stroke-width:.5px;"/><path d="m546.0448,149.9827s5.742-1.01,6.264-1.078.8511.1601.7717.6417-.1475.7994-.2156,1.015-.3972.7876-.9305.8818-3.8015.6729-4.1987.7183-.9759-.0454-1.2937-.3972-.556-.7376-.7376-.9646-.1021-.6695.3404-.817Z" style="fill:none; stroke:#aebbc7; stroke-linecap:round; stroke-linejoin:round; stroke-width:.5px;"/><path d="m546.998,150.3676s4.3349-.7583,4.7207-.8213.4312.1467.3631.4106-.1929.5755-.1929.5755c0,0-.1248.3806-.6014.4714s-2.837.4993-3.0639.5333-.6128-.0227-.8057-.2383-.488-.556-.556-.6695.0113-.24.1362-.2618Z" style="fill:none; stroke:#aebbc7; stroke-linecap:round; stroke-linejoin:round; stroke-width:.5px;"/><path d="m534.052,150.0196q.0175.0137.0194.0295c.0037.0315-.026.0507-.0416.0525l-.1899.0063c-.0157.0018-.0332-.0121-.0489-.0103l-.1575-.1249-.0175-.0137-.0156.0018-.1265.1419c-.0137.0176-.0295.0194-.0451.0212l-.19.0062c-.0313.0036-.0487-.0101-.0524-.0416-.0018-.0156-.0036-.0313.0119-.0331l.3811-.4103c.0139-.0174.0295-.0194.0295-.0194.0157-.0018.0313-.0035.0331.0121l.4099.3818Z" style="fill:#141b21; stroke-width:0px;"/><path d="m534.2133,152.7682q.0139-.0176.0121-.0331c-.0037-.0315-.0212-.0452-.0525-.0416l-.1899.0062c-.0157.0018-.0313.0036-.0452.0212l-.1264.1418-.0157.0018s-.0156.0018-.0174-.0138l-.1576-.1249c-.0174-.0139-.0331-.0121-.0487-.0103l-.1899.0063c-.0315.0037-.0452.0211-.0416.0525.0018.0157.0036.0313.0192.0295l.4236.3642q.0176.0139.0333.0121c.0156-.0018.0313-.0036.0295-.0194l.3672-.3927Z" style="fill:#141b21; stroke-width:0px;"/><path d="m532.2231,151.0913q.0138-.0174.0295-.0192c.0313-.0036.0489.0101.0525.0416l.0062.1902c.0018.0156-.0119.0331-.0101.0489l-.1265.142-.0138.0174.0018.0157.1574.1247c.0176.0139.0194.0296.0212.0454l.0062.19c.0037.0315-.0258.0507-.0416.0525-.0156.0018-.0313.0036-.0331-.0119l-.4236-.3642q-.0176-.0139-.0194-.0295c-.0018-.0157-.0037-.0315.0121-.0333l.3811-.4103Z" style="fill:#141b21; stroke-width:0px;"/><path d="m535.0918,150.9004q-.0175-.0137-.0333-.0119c-.0313.0036-.0451.021-.0414.0525l.0062.19c.0018.0157.0037.0315.0212.0454l.1574.1247.0018.0157s.0018.0157-.0139.0176l-.1264.1418c-.0139.0176-.0121.0333-.0103.0489l.0064.1902c.0037.0315.0211.0452.0525.0416.0156-.0018.0313-.0036.0295-.0192l.3811-.4103q.0138-.0175.0119-.0331c-.0018-.0157-.0037-.0315-.0192-.0297l-.4236-.3642Z" style="fill:#141b21; stroke-width:0px;"/><path d="m497.5375,179.6952s1.2155.1526,3.556-.5597,17.5941-5.2408,17.5941-5.2408c0,0,1.232-.7123,2.0969.9667.865,1.6791,1.2826,2.5949,2.5493,2.5441,1.2667-.0509,46.5001-1.73,46.9581-1.7808s2.2388-.407,2.2388-.407" style="fill:none; stroke:#404d59; stroke-linecap:round; stroke-linejoin:round; stroke-width:.25px;"/><path d="m473.003,185.1509h139.577c18.3111,0,20.2346-13.5824,20.2346-17.8803v-40.5742c0-8.4513-.4143-18.9147-2.7284-29.9819s-10.9665-16.0976-14.9909-19.1711-39.0368-28.7193-46.8844-34.3535c-7.8476-5.6342-14.4464-8.4513-20.8705-8.4513h-43.7213" style="fill:none; stroke:#404d59; stroke-linecap:round; stroke-linejoin:round; stroke-width:1.5px;"/></g><path d="m454.5578,57.1728c1.3206,3.5875,3.3134,9.3413,3.5589,10.5985.3316,1.7217-.0075,4.2768-.2057,5.2723-.1919.9835-.0942,1.2939-1.1819,1.7268-.2071.0753-.5419.1908-.947.3384" style="fill:none; stroke:#404d59; stroke-linecap:round; stroke-linejoin:round; stroke-width:1.5px;"/><path d="m485.2644,155.1808s-1.8855-1.6898-3.3115-3.3975c-1.4259-1.7077-2.3296-3.3684-2.6974-4.2675s-1.4084-3.5317-2.655-6.8183-2.2621-4.3624-3.0609-5.4217-6.5711-8.376-13.0232-16.2398c-6.452-7.8638-9.6872-10.4818-10.6178-11.2882s-1.8286-2.0461-2.0003-2.4572-3.6856-9.2849-3.8068-9.6696.3126-1.1557.3126-1.1557c0,0-1.1176-2.6083-1.5559-3.8658s-1.8743-8.5021-2.1588-9.808-2.5559-17.3798-2.5753-18.5155c-.0194-1.1357.3959-1.5626,1.6156-2.7925-1.1351-6.1552,3.9349-7.2445,7.3833-8.2461,3.4484-1.0015,5.6874,1.6765,6.3766,3.1933.6892,1.5168,4.2972,11.6296,4.6259,13.3446s-.0073,4.2736-.2024,5.2654-.0982,1.2996-1.1897,1.728c-1.0915.4284-5.682,1.8319-6.502,2.0479s-.2596.268-2.8125.3531l.2199,1.3515s.8058-.1269,3.6002-.9225,3.9391-.41,5.5175.573c5.2324,3.7229,10.2708,12.458,11.5372,14.6224,1.1025,1.8842-.0237,2.5231-.5205,2.9128-.5947.4665-1.6996,1.1784-1.6996,1.1784,1.5151.7638,3.8744,1.768,5.4776,2.5842,3.6196,1.8428,4.0464,2.3341,6.8852,4.2311,8.1143,5.7495,14.0572,10.8796,17.5514,14.8114,3.4063,3.8328,7.0048,11.117,7.5383,15.0934.5335,3.9764-.0567,6.0333-.1549,7.3329s-.6101,3.7022-.6101,3.7022c-.9175,5.3947-9.7851,16.7548-17.487,10.5402Z" style="fill:#141b21; stroke:#aebbc7; stroke-linecap:round; stroke-linejoin:round; stroke-width:1.5px;"/><path d="m439.7299,59.4833s3.0761,12.1834,3.5159,14.1171,1.8717,3.2931,4.1634,3.5692" style="fill:none; stroke:#aebbc7; stroke-linecap:round; stroke-linejoin:round; stroke-width:1.5px;"/><path d="m444.2865,75.6581c.3834,2.0611.0693,2.5406,2.6661,5.9518,2.5968,3.4111,4.5765,6.34,6.5599,9.8174,1.9834,3.4775,3.6632,6.7968,3.6632,6.7968,0,0,.7177,1.3387,1.396,1.2096" style="fill:none; stroke:#aebbc7; stroke-linecap:round; stroke-linejoin:round; stroke-width:.5px;"/><path d="m444.4043,94.4652c1.6619,2.8598,2.1245,4.1942,3.2981,4.9664s1.9425,1.3335,1.9425,1.3335c0,0,1.1424.6551,2.2727.426,1.1303-.2291,12.7383-3.0856,14.1464-4.306" style="fill:none; stroke:#aebbc7; stroke-linecap:round; stroke-linejoin:round; stroke-width:1.5px;"/><path d="m464.7781,97.6332c.4647-.216.3632-1.2412-.5405-2.902-.9037-1.6607-9.0792-14.0565-9.888-15.2819s-1.9037-1.8758-3.4707-1.7516" style="fill:none; stroke:#aebbc7; stroke-linecap:round; stroke-linejoin:round; stroke-width:.5px;"/><path d="m449.6449,100.7652c1.3502.1245,2.1988-.2696,1.0648-2.6613-1.1339-2.3917-4.485-9.5405-5.6196-11.1286s-4.1905-4.3395-5.0225-10.1617" style="fill:none; stroke:#aebbc7; stroke-linecap:round; stroke-linejoin:round; stroke-width:.5px;"/><path d="m449.4381,77.0463s-1.8387.3423-2.882-2.5855-4.1748-14.0787-4.5384-15.2329-.7101-3.3287,1.2399-3.9852c1.95-.6565,3.6165-1.1391,3.6165-1.1391,0,0,2.1139-.5389,2.9785,1.9376.8646,2.4765,4.9873,14.6263,5.2903,15.5882s.8301,3.1725,2.153,2.9419" style="fill:none; stroke:#aebbc7; stroke-linecap:round; stroke-linejoin:round; stroke-width:.5px;"/><rect x="444.9647" y="55.966" width="4.7155" height="12.4691" rx="1.8748" ry="1.8748" transform="translate(1.9762 137.2542) rotate(-17.4824)" style="fill:none; stroke:#aebbc7; stroke-linecap:round; stroke-linejoin:round; stroke-width:.5px;"/><rect x="446.2755" y="57.9188" width="1.7723" height="7.4372" rx=".65" ry=".65" transform="translate(2.138 137.1799) rotate(-17.4824)" style="fill:none; stroke:#aebbc7; stroke-linecap:round; stroke-linejoin:round; stroke-width:.5px;"/><path d="m442.4443,52.9418c4.0644-1.6998,7.8514-2.793,9.3889,1.7993s4.5853,13.321,4.8039,14.0153,1.3289,2.4771,1.6102.3434" style="fill:none; stroke:#aebbc7; stroke-linecap:round; stroke-linejoin:round; stroke-width:.5px;"/><path d="m447.6291,78.5211s-1.7362.5879-1.8691,1.4257" style="fill:none; stroke:#aebbc7; stroke-linecap:round; stroke-linejoin:round; stroke-width:.5px;"/><path d="m447.038,98.8573c.8251,1.5625,1.2662,2.1204,2.1647,2.866s1.0365.868,1.0365.868c0,0,1.0357.8019,2.4174.5326,1.3817-.2693,11.4381-3.1048,12.1419-3.2933.7038-.1885.8994-.5155.8043-.8174l-.4698-1.4918" style="fill:none; stroke:#aebbc7; stroke-linecap:round; stroke-linejoin:round; stroke-width:.5px;"/><path d="m445.1249,98.2853c1.0338,2.623,2.473,4.1515,5.2524,6.0901,2.7794,1.9386,6.3846,4.1397,10.417,8.7644,4.0324,4.6247,15.6178,19.1604,17.0205,21.0542,1.4027,1.8939,2.7025,4.4318,3.1535,6.5698s.2073,9.3466,3.8489,14.0041" style="fill:none; stroke:#aebbc7; stroke-linecap:round; stroke-linejoin:round; stroke-width:.5px;"/><path d="m489.3719,145.3752c-.2584-.1141-1.332-6.1712-1.6957-7.5025s-2.373-5.5922-3.7-7.5099c-1.3269-1.9177-7.6222-9.7224-11.1438-13.8407-3.5215-4.1183-11.5082-12.6897-12.0253-13.285-.8724-1.0043-2.3005-2.8901-2.2355-3.8034" style="fill:none; stroke:#aebbc7; stroke-linecap:round; stroke-linejoin:round; stroke-width:.5px;"/></g><g id="uuid-a480978b-08d6-4f9a-96d7-f41159e3a5ba"><circle cx="189.7772" cy="27.2621" r="18.3524" style="fill:none; stroke:#f4ae3d; stroke-miterlimit:10; stroke-width:4px;"/><line x1="182.4548" y1="19.9397" x2="197.0995" y2="34.5844" style="fill:none; stroke:#f4ae3d; stroke-miterlimit:10; stroke-width:4px;"/><line x1="182.4548" y1="34.5844" x2="197.0995" y2="19.9397" style="fill:none; stroke:#f4ae3d; stroke-miterlimit:10; stroke-width:4px;"/><circle cx="405.6014" cy="27.2621" r="18.3524" style="fill:none; stroke:#f4ae3d; stroke-miterlimit:10; stroke-width:4px;"/><line x1="398.2791" y1="19.9397" x2="412.9238" y2="34.5844" style="fill:none; stroke:#f4ae3d; stroke-miterlimit:10; stroke-width:4px;"/><line x1="398.2791" y1="34.5844" x2="412.9238" y2="19.9397" style="fill:none; stroke:#f4ae3d; stroke-miterlimit:10; stroke-width:4px;"/><circle cx="621.6334" cy="27.2621" r="18.3524" style="fill:none; stroke:#f4ae3d; stroke-miterlimit:10; stroke-width:4px;"/><line x1="614.311" y1="19.9397" x2="628.9557" y2="34.5844" style="fill:none; stroke:#f4ae3d; stroke-miterlimit:10; stroke-width:4px;"/><line x1="614.311" y1="34.5844" x2="628.9557" y2="19.9397" style="fill:none; stroke:#f4ae3d; stroke-miterlimit:10; stroke-width:4px;"/></g></svg>