<?xml version="1.0" encoding="UTF-8"?><svg xmlns="http://www.w3.org/2000/svg" width="654" height="218" viewBox="0 0 654 218"><g id="uuid-990336ab-9db9-4cf9-9ef7-0d032dbcacdd"><polygon points="339.439 172.711 335.023 172.711 337.986 175.673 336.561 177.098 332.183 172.711 330.139 172.711 330.139 174.754 334.517 179.142 333.092 180.558 330.139 177.595 330.139 182.02 328.123 182.02 328.123 177.595 325.161 180.558 323.745 179.142 328.123 174.754 328.123 172.711 326.004 172.711 321.617 177.098 320.201 175.673 323.154 172.711 318.814 172.711 318.814 170.704 323.154 170.704 320.201 167.742 321.617 166.317 326.004 170.704 328.123 170.704 328.123 168.576 323.745 164.198 325.161 162.773 328.123 165.736 328.123 161.395 330.139 161.395 330.139 165.736 333.092 162.773 334.517 164.198 330.139 168.576 330.139 170.704 332.183 170.704 336.561 166.317 337.986 167.742 335.023 170.704 339.439 170.704 339.439 172.711" style="fill:#f4ae3d; stroke-width:0px;"/><path d="m384.361,110.563v3.909h-1.8v-10.097h4.036c2.32,0,3.656,1.125,3.656,3.094s-1.35,3.094-3.656,3.094h-2.236Zm2.138-1.547c1.28,0,1.983-.548,1.983-1.547,0-1.012-.689-1.547-1.983-1.547h-2.138v3.094h2.138Z" style="fill:#404d59; stroke-width:0px;"/><path d="m362.081,104.376v10.097h-1.575l-5.006-7.411v7.411h-1.73v-10.097h1.856l4.725,7.073v-7.073h1.73Z" style="fill:#404d59; stroke-width:0px;"/><path d="m361.129,137.549c0,2.15-1.26,3.5-3.3,3.5h-1.62v-7h1.6c2.07,0,3.32,1.32,3.32,3.5Z" style="fill:#404d59; stroke-width:0px;"/><path d="m357.919,123.509c-3.88,0-7.4,1.58-9.94,4.12-2.54,2.55-4.12,6.06-4.12,9.95s1.58,7.39,4.12,9.94c2.54,2.55,6.06,4.12,9.94,4.12s7.4-1.57,9.95-4.12c2.55-2.55,4.12-6.06,4.12-9.94,0-7.77-6.3-14.07-14.07-14.07Zm-.09,19.09h-3.38v-10.1h3.38c3.22,0,5.07,2.07,5.07,5.05s-1.85,5.05-5.07,5.05Z" style="fill:#404d59; stroke-width:0px;"/><path d="m354.313,86.348v-10.097h4.036c2.32,0,3.656,1.125,3.656,3.094,0,1.434-.703,2.433-1.983,2.855l2.18,4.148h-2.011l-2.025-3.909h-2.053v3.909h-1.8Zm3.938-5.456c1.28,0,1.983-.548,1.983-1.547,0-1.013-.689-1.547-1.983-1.547h-2.138v3.094h2.138Z" style="fill:#404d59; stroke-width:0px;"/><path d="m257.465,212.011c-3.206,1.272-6.781-.531-7.866-3.873-1.077-3.317.743-6.906,4.036-8.249,16.813-6.855,31.431-18.28,42.161-33.044,12.133-16.696,18.67-36.804,18.672-57.444.003-20.639-6.529-40.749-18.658-57.448-10.726-14.766-25.341-26.195-42.152-33.054-3.293-1.344-5.112-4.933-4.034-8.25,1.086-3.342,4.661-5.144,7.867-3.871,19.393,7.702,36.255,20.765,48.575,37.725,13.702,18.864,21.081,41.583,21.078,64.899-.003,23.316-7.386,46.032-21.093,64.894-12.324,16.957-29.189,30.016-48.584,37.714Z" style="fill:none; stroke:#404d59; stroke-width:1.5px;"/><path d="m314.253,162.744c-1.93,3.28-6.23,4.19-9.48,2.14-3.31-2.09-4.28-6.46-2.44-9.91,13.648-25.991,13.719-59.434,5.96-77.56-1.29-3.7.33-7.87,3.92-9.42,3.53-1.53,7.64.02,9.05,3.58,11.406,31.521,7.412,65.953-7.01,91.17Z" style="fill:#404d59; stroke:#141b21; stroke-width:1.5px;"/><circle cx="308.59" cy="158.887" r="3.548" transform="translate(16.695 346.69) rotate(-60)" style="fill:#aebbc7; stroke-width:0px;"/><path d="m552.939,110.563v3.909h-1.8v-10.097h4.036c2.32,0,3.656,1.125,3.656,3.094s-1.35,3.094-3.656,3.094h-2.236Zm2.138-1.547c1.28,0,1.983-.548,1.983-1.547,0-1.012-.689-1.547-1.983-1.547h-2.138v3.094h2.138Z" style="fill:#404d59; stroke-width:0px;"/><path d="m530.659,104.376v10.097h-1.575l-5.006-7.411v7.411h-1.73v-10.097h1.856l4.725,7.073v-7.073h1.73Z" style="fill:#404d59; stroke-width:0px;"/><path d="m529.707,137.549c0,2.15-1.26,3.5-3.3,3.5h-1.62v-7h1.6c2.07,0,3.32,1.32,3.32,3.5Z" style="fill:#404d59; stroke-width:0px;"/><path d="m526.497,123.509c-3.88,0-7.4,1.58-9.94,4.12-2.54,2.55-4.12,6.06-4.12,9.95s1.58,7.39,4.12,9.94c2.54,2.55,6.06,4.12,9.94,4.12s7.4-1.57,9.95-4.12c2.55-2.55,4.12-6.06,4.12-9.94,0-7.77-6.3-14.07-14.07-14.07Zm-.09,19.09h-3.38v-10.1h3.38c3.22,0,5.07,2.07,5.07,5.05s-1.85,5.05-5.07,5.05Z" style="fill:#404d59; stroke-width:0px;"/><path d="m522.891,86.348v-10.097h4.036c2.32,0,3.656,1.125,3.656,3.094,0,1.434-.703,2.433-1.983,2.855l2.18,4.148h-2.011l-2.025-3.909h-2.053v3.909h-1.8Zm3.938-5.456c1.28,0,1.983-.548,1.983-1.547,0-1.013-.689-1.547-1.983-1.547h-2.138v3.094h2.138Z" style="fill:#404d59; stroke-width:0px;"/><path d="m426.043,212.011c-3.206,1.272-6.781-.531-7.866-3.873-1.077-3.317.743-6.906,4.036-8.249,16.813-6.855,31.431-18.28,42.161-33.044,12.133-16.696,18.67-36.804,18.672-57.444.003-20.639-6.529-40.749-18.658-57.448-10.726-14.766-25.341-26.195-42.152-33.054-3.293-1.344-5.112-4.933-4.034-8.25,1.086-3.342,4.661-5.144,7.867-3.871,19.393,7.702,36.255,20.765,48.575,37.725,13.702,18.864,21.081,41.583,21.078,64.899-.003,23.316-7.386,46.032-21.093,64.894-12.324,16.957-29.189,30.016-48.584,37.714Z" style="fill:none; stroke:#404d59; stroke-width:1.5px;"/><path d="m511.191,183.559c2.594-2.594,4.199-6.174,4.199-10.123s-1.605-7.533-4.199-10.128" style="fill:none; stroke:#f4ae3d; stroke-miterlimit:10; stroke-width:1.759px;"/><path d="m490.939,163.308c-2.594,2.594-4.199,6.179-4.199,10.128,0,3.949,1.605,7.528,4.199,10.123" style="fill:none; stroke:#f4ae3d; stroke-miterlimit:10; stroke-width:1.759px;"/><circle cx="501.065" cy="173.436" r="10.364" transform="translate(-18.106 281.177) rotate(-30.816)" style="fill:none; stroke:#f4ae3d; stroke-miterlimit:10; stroke-width:1.759px;"/><path d="m499.973,179.72v-7.091h3.818l-3.818,7.091Z" style="fill:#f4ae3d; stroke-width:0px;"/><path d="m501.609,166.63v7.091h-3.818l3.818-7.091Z" style="fill:#f4ae3d; stroke-width:0px;"/><path d="m424.187,12.727c11.769,4.724,22.781,11.642,32.393,20.647,21.023,19.696,32.951,47.22,32.947,76.029-.002,17.458-4.388,34.485-12.572,49.595" style="fill:none; stroke:#141b21; stroke-linecap:round; stroke-linejoin:round; stroke-width:17px;"/><path d="m424.187,12.727c11.769,4.724,22.781,11.642,32.393,20.647,21.023,19.696,32.951,47.22,32.947,76.029-.002,17.458-4.388,34.485-12.572,49.595" style="fill:none; stroke:#404d59; stroke-linecap:round; stroke-linejoin:round; stroke-width:14px;"/><circle cx="477.168" cy="158.887" r="3.548" transform="translate(100.984 492.683) rotate(-60)" style="fill:#aebbc7; stroke-width:0px;"/></g><g id="uuid-994db2bf-e4d9-4ccd-8e2f-46498f23cd33"><line x1="150.216" y1="103.949" x2="144.413" y2="103.949" style="fill:none; stroke:#687581;"/><path d="m199.878,124.322c0,.989-.802,1.79-1.79,1.79h-23.041s-23.041,0-23.041,0c-.989,0-1.79-.802-1.79-1.79v-27.341c0-.989.802-1.79,1.79-1.79h46.081c.989,0,1.79.802,1.79,1.79v27.341Z" style="fill:none; stroke:#687581; stroke-linecap:round; stroke-linejoin:round;"/><line x1="138.637" y1="126.344" x2="127.673" y2="126.344" style="fill:none; stroke:#687581; stroke-linecap:round; stroke-linejoin:round;"/><path d="m175.055,132.929h-18.939c-1.265,0-2.477-.502-3.371-1.396l-3.792-3.792c-.894-.894-2.107-1.396-3.371-1.396h-1.595" style="fill:none; stroke:#687581; stroke-linecap:round; stroke-linejoin:round;"/><path d="m175.055,132.929h18.939c1.265,0,2.477-.502,3.371-1.396l3.792-3.792c.894-.894,2.107-1.396,3.371-1.396h1.595" style="fill:none; stroke:#687581; stroke-linecap:round; stroke-linejoin:round;"/><line x1="103.743" y1="126.344" x2="92.779" y2="126.344" style="fill:none; stroke:#687581; stroke-linecap:round; stroke-linejoin:round;"/><path d="m87.003,103.949h-4.215c-.943,0-1.838.42-2.44,1.146s-.849,1.683-.675,2.61l2.782,14.755c.425,2.253,2.393,3.885,4.685,3.885" style="fill:none; stroke:#687581; stroke-linecap:round; stroke-linejoin:round;"/><path d="m137.267,101.381v2.997c0,.97-.786,1.756-1.756,1.756h-14.02" style="fill:none; stroke:#687581; stroke-linecap:round; stroke-linejoin:round;"/><path d="m109.925,106.133h-14.02c-.97,0-1.756-.786-1.756-1.756v-2.997" style="fill:none; stroke:#687581; stroke-linecap:round; stroke-linejoin:round;"/><path d="m94.149,92.791v-2.417c0-.97.786-1.756,1.756-1.756h3.401" style="fill:none; stroke:#687581; stroke-linecap:round; stroke-linejoin:round;"/><path d="m132.11,88.619h3.401c.97,0,1.756.786,1.756,1.756v2.417" style="fill:none; stroke:#687581; stroke-linecap:round; stroke-linejoin:round;"/><path d="m76.08,143.556c0,3.118,1.24,6.107,3.446,8.31s5.198,3.438,8.315,3.434l109.855-.16c6.48-.009,11.727-5.265,11.727-11.744v-62.277c0-3.118-1.24-6.108-3.446-8.311s-5.198-3.438-8.316-3.434l-109.858.163c-6.48.01-11.727,5.265-11.727,11.745l.003,62.274Z" style="fill:none; stroke:#aebbc7; stroke-miterlimit:20; stroke-width:1.5px;"/><path d="m146.108,114.965c0-17.213-13.61-31.167-30.4-31.167-16.79,0-30.4,13.954-30.4,31.167s13.468,25.933,13.777,26.143c1.317.891,2.842,1.434,4.42,1.583,3.146.295,7.261.544,12.202.544s9.056-.249,12.202-.544c1.578-.148,3.103-.691,4.42-1.583.349-.236,13.777-8.884,13.777-26.143Z" style="fill:none; stroke:#687581; stroke-linecap:round; stroke-linejoin:round;"/><path d="m91.798,104.612c1.501-3.532,2.963-3.197,4.41-4.892,1.118-1.308,4.873-11.216,19.5-11.216,14.627,0,18.382,9.908,19.5,11.216,1.448,1.695,2.909,1.359,4.41,4.892,1.363,3.207-.064,4.088-1.292,4.088-1.545,0-4.128-.571-7.906-1.314-5.948-1.17-5.586-1.304-14.713-1.304-9.127,0-8.765.134-14.713,1.304-3.778.743-6.361,1.314-7.906,1.314-1.228,0-2.655-.881-1.292-4.088Z" style="fill:none; stroke:#687581; stroke-linecap:round; stroke-linejoin:round;"/><path d="m103.93,137.9c-6.512-.777-11.671-11.891-12.514-14.536-.464-1.545-.21-2.917,1.654-2.963,1.844-.045,4.13.079,5.417.208,1.288.129,2.187,1.338,2.187,1.338.954,1.414,2.619,3.746,3.466,4.965.847,1.22,1.164,1.584,1.46,3.51l1.143,7.647c-1.203-.019-2.122-.086-2.814-.169Z" style="fill:none; stroke:#687581; stroke-linecap:round; stroke-linejoin:round;"/><path d="m121.414,129.842c-.052.883-.154,1.766-.222,2.199-.069.433-.394,1.229-1.507,1.316-1.113.086-2.919.069-3.977.069s-2.864.017-3.977-.069c-1.113-.087-1.438-.883-1.507-1.316s-.171-1.316-.222-2.199c-.027-.468.12-1.214.822-1.231.702-.017,2.586.037,4.884.037s4.182-.055,4.884-.037c.702.017.849.764.822,1.231Z" style="fill:none; stroke:#687581; stroke-linecap:round; stroke-linejoin:round;"/><path d="m127.487,137.9c-.692.083-1.611.151-2.814.169l1.143-7.647c.296-1.926.614-2.29,1.46-3.51.847-1.22,2.512-3.551,3.466-4.965,0,0,.899-1.209,2.187-1.338,1.287-.129,3.573-.253,5.417-.208,1.864.046,2.118,1.418,1.654,2.963-.804,2.522-5.96,13.754-12.514,14.536Z" style="fill:none; stroke:#687581; stroke-linecap:round; stroke-linejoin:round;"/><line x1="199.878" y1="103.949" x2="206.124" y2="103.949" style="fill:none; stroke:#687581; stroke-linecap:round; stroke-linejoin:round;"/><path d="m132.11,88.619h3.401c.97,0,1.756.786,1.756,1.756v14.003c0,.97-.786,1.756-1.756,1.756h-39.606c-.97,0-1.756-.786-1.756-1.756v-14.003c0-.97.786-1.756,1.756-1.756h36.205Z" style="fill:#f4ae3d; stroke:#aebbc7; stroke-miterlimit:10;"/><path d="m118.232,100.846v.032c0,1.187-.969,2.156-2.156,2.156s-2.156-.969-2.156-2.156v-.032" style="fill:none; stroke:#141b21; stroke-miterlimit:10;"/><path d="m119.299,95.17c.953,0,1.726-.773,1.726-1.726s-.773-1.726-1.726-1.726-1.726.773-1.726,1.726.773,1.726,1.726,1.726Z" style="fill:#141b21; stroke-width:0px;"/><path d="m120.243,96.484v2.875c0,.495.04.879.184,1.137.066.119.155.21.278.275.127.066.31.114.578.114h-11.151c.268,0,.451-.047.578-.114.124-.064.212-.155.278-.275.144-.258.184-.642.184-1.137v-2.875c0-2.156,1.562-3.951,3.57-4.494.416-.117.844-.169,1.288-.169.24,0,.471.025.693.065" style="fill:none; stroke:#141b21; stroke-miterlimit:10;"/></g><g id="uuid-e60b4ec4-3877-4cff-bdc6-e4e34c6ef59b"><circle cx="79.186" cy="72.985" r="8.25" style="fill:none; stroke:#141b21; stroke-linecap:round; stroke-linejoin:round; stroke-width:3px;"/><circle cx="79.186" cy="72.985" r="8.25" style="fill:#aebbc7; stroke-width:0px;"/><path d="m79.186,64.746c-3.422,0-6.195,2.774-6.195,6.195v4.087c0,3.422,2.774,6.195,6.195,6.195s6.195-2.774,6.195-6.195v-4.087c0-3.421-2.774-6.195-6.195-6.195Z" style="fill:#aebbc7; stroke-width:0px;"/><path d="m79.179,75.669c.316,0,.585.105.805.315.219.21.329.474.329.791,0,.308-.11.566-.329.776-.22.21-.488.315-.805.315-.309,0-.569-.105-.784-.315s-.322-.469-.322-.776c0-.317.107-.581.322-.791s.476-.315.784-.315Zm.91-.938h-1.807v-6.818h1.807v6.818Z" style="fill:#141b21; stroke-width:0px;"/></g></svg>