<svg xmlns="http://www.w3.org/2000/svg" width="325" height="243.4445" viewBox="0 0 325 243.4445"><g id="b17293aa-7d33-4492-bf89-17865c7df633" data-name="illustration"><path d="M164.84,154.7589h.01c-.81,3.72-1.6,7.63-2.35,11.7a4.61,4.61,0,0,0,.09,1.9v.01l-2.48,13.25-51.38,11.47a18.6207,18.6207,0,0,1-7.76.08l-46.48-9.4a4.09,4.09,0,0,1-3.28-4.01v-10.14a7.3972,7.3972,0,0,1,1.8-4.84l1.97-2.26a7.384,7.384,0,0,1,6.5-2.5l1.79.23c5.9-2.51,20.72-5.49,20.72-5.49,0-2.45,2.73-2.94,2.73-2.94s26.19-6.41,29.94-7.13,10.37.47,10.37.47,28.97,4.54,33.33,5.34C164.72,151.3089,164.84,154.7589,164.84,154.7589Z" style="fill:#404d59"/><line x1="178.3254" y1="106.1565" x2="175.0337" y2="118.204" style="fill:none;stroke:#f4ae3d;stroke-linecap:round;stroke-linejoin:round;stroke-width:0.5px"/><path d="M182.0707,106.37c-2.2177-1.0513-5.9623-2.0915-6.3291-.6326-.9889,3.9334-3.0827,11.0211-3.0827,11.0211s-.6621,1.5943,2.3454,2.2779" style="fill:none;stroke:#f4ae3d;stroke-linecap:round;stroke-linejoin:round"/><path d="M124.8522,99.7107A7.3981,7.3981,0,0,1,121.5,98.81c-1.5412-.9908-7.8158-5.1739-10.1275-10.8431s-3.8529-10.6976-4.7335-12.5316-2.1466-4.3108-6.33-4.9162-22.9376-2.2017-25.7244-2.4218a13.9084,13.9084,0,0,0-10.4924,3.7978c-3.6877,3.3575-7.5956,7.59-10.4577,8.7485s-8.9716,3.1953-12.3291,4.0759-7.7062.82-6.66-4.0759c0,0,4.7043-12.4326,5.6283-14.7847s2.52-5.04,6.6364-8.2324,9.7444-6.5981,15.3727-6.2812,53.4449,4.2651,58.728,4.6851a119.9208,119.9208,0,0,1,12.1715,1.8481" style="fill:none;stroke:#687581;stroke-miterlimit:10;stroke-width:0.5px"/><path d="M31.8528,93.8405c3.6735.5657,10.0032-.48,13.6359-1.4158s10.1275-3.0272,10.1275-3.0272a23.159,23.159,0,0,0,5.8343-3.9629,75.6173,75.6173,0,0,1,7.1-5.7914,9.7,9.7,0,0,1,6.0341-1.9694c2.5523.0551,16.3124.9908,25.0089,2.3668a6.596,6.596,0,0,1,6.2746,4.8436c1.5962,5.0087,2.5869,8.4762,5.0087,11.1732a69.8277,69.8277,0,0,0,6.66,6.4948,13.48,13.48,0,0,0,5.3617,2.36" style="fill:none;stroke:#687581;stroke-miterlimit:10;stroke-width:0.5px"/><path d="M122.28,106.3383a12.22,12.22,0,0,0-4.1374,6.0662C116.4361,117.193,107.85,147.19,107.85,147.19" style="fill:none;stroke:#687581;stroke-miterlimit:10;stroke-width:0.5px"/><g style="opacity:0.5"><path d="M140.6816,82.2352c.3525.0384,3.3389,12.7607,0,24.2888s-9.99,39.4615-9.99,39.4615" style="fill:none;stroke:#404d59;stroke-miterlimit:10;stroke-width:0.5px"/><path d="M142.2471,97.1032s-13.3168,2.3117-14.8579,2.5319a12.6854,12.6854,0,0,1-2.537.0756" style="fill:none;stroke:#404d59;stroke-miterlimit:10;stroke-width:0.5px"/><path d="M122.8986,104.9119a11.4963,11.4963,0,0,0,4.2154.1722c3.6877-.6055,14.48-2.56,14.48-2.56" style="fill:none;stroke:#404d59;stroke-miterlimit:10;stroke-width:0.5px"/><path d="M125.4628,105.2068a5.8942,5.8942,0,0,0-3.183,1.1315" style="fill:none;stroke:#404d59;stroke-miterlimit:10;stroke-width:0.5px"/></g><path d="M28.58,201.8689c-.73-.27-14.08-5.47-10.14-21.15,4.05-16.11,7.65-28.9,7.65-28.9a13.7748,13.7748,0,0,0-2.88-6.03c-3.81-4.62-5.76-5.76-7.2-7.38s-1.89-4.05-1.08-7.2c.81-3.16,7.29-22.24,9.09-28,1.8-5.77,5.31-8.2,7.83-9.37l1.71-5.4a7.0141,7.0141,0,0,1-1.17-6.84c1.44-3.96,5.77-17.2,9.91-23.32s14.58-11.98,19.62-12.79c3.43-.55,11.32-.52,16.03-.44" style="fill:none;stroke:#687581;stroke-miterlimit:10"/><path d="M28.61,201.8789l-.03-.01-29.32-7.37a191.9055,191.9055,0,0,0-28.4163-3.7979c-13.4869-.5384-24.2765,0-24.2765,0a22.2492,22.2492,0,0,0-10.19,4.1846c-4.3458,3.5191-7.9423,6.9833-7.9423,6.9833s-2.3977,2.5577-2.3977,5.541,2.2478,25.3116,2.2478,25.3116.45,3.8963,5.9942,5.3948S13.13,262.4279,13.13,262.4279a3.56,3.56,0,0,0,2.43,0,3.1325,3.1325,0,0,0,2.1018,1.5764c1.6421.46,48.4894,14.253,48.4894,14.253a2.941,2.941,0,0,0,2.4142,0,3.6222,3.6222,0,0,0,2.2332,1.642c1.642.46,95.7643,27.8492,102.2012,29.754s16.4205,4.4007,27.98,3.7439l11.56-.6569s7.1594-.5254,10.4435-2.9556a9.1685,9.1685,0,0,0,3.1755,6.402c3.077,2.4359,7.8293,7.18,14.7483,4.6155s17.8167-8.7182,17.8167-8.7182,9.2672-3.7181,11.3005-12.3081,7.2789-31.7288,7.2789-31.7288c-2.002-8.18-8.38-11.326-17.0319-12.8991s-13.174-1.1832-13.174-1.1832c-29.0235-7.7566-83.3733-22.3193-97.1621-22.1447-14.487-5.3235-43.8972-12.7415-59.2569-14.9233L78.8105,213.93s-27.44-8.1274-50.1989-12.049" style="fill:none;stroke:#687581;stroke-miterlimit:10"/><path d="M122.05,47.7989l33.51,2.65s1.8,0,2.43.9l52.49,3.06s1.44.18,1.8.9a13.2612,13.2612,0,0,1,5.04-.54c2.21.13,11.29.97,16.48,1.45" style="fill:none;stroke:#687581;stroke-miterlimit:10"/><path d="M285.75,59.9189l32.68,2.77s3.96.09,5.4,1.53a20.76,20.76,0,0,1,2.52,3.15" style="fill:none;stroke:#687581;stroke-miterlimit:10"/><path d="M240.01,59.1969a15.58,15.58,0,0,1-4.9518-1.9807,26.3436,26.3436,0,0,1-3.6914-3.3762,8.0559,8.0559,0,0,1-1.5306-5.7172c.27-3.6913,3.2136-22.3283,5.0731-27.46S237.9392,14,242.711,13.64a197.982,197.982,0,0,1,44.1164,1.5306A7.5118,7.5118,0,0,1,292.86,21.563c1.08,5.7621,2.701,24.5791,2.701,27.55s-.685,5.1861-2.3408,6.6625a29.6387,29.6387,0,0,1-2.8811,2.1608,13.3216,13.3216,0,0,1-4.5917,1.9807c-2.4309.45-8.4632.99-8.4632.99a68.969,68.969,0,0,1-8.9133,0C261.8881,60.6375,240.01,59.1969,240.01,59.1969Z" style="fill:none;stroke:#687581;stroke-miterlimit:10"/><path d="M271.2668,61.0006c2.1884.0267,4.3138.0783,6.5-1.622s3.5221-2.9756,3.5221-2.9756,2.2469-1.5789,2.004-5.5869-1.3967-24.7764-1.5181-28.6629.4077-6.5909,6.7927-6.4229" style="fill:none;stroke:#687581;stroke-miterlimit:10;stroke-width:0.5px"/><path d="M288.5675,20.8779h-2.299s-1.336-.1821-1.1538,3.0971,1.8825,21.6187,2.1862,23.5012,1.1538,2.49,2.49,2.429a6.2289,6.2289,0,0,0,2.1888-.4639s1.29-.8741,1.1654-3.3714-2.1643-21.4767-2.3308-22.9334A2.2157,2.2157,0,0,0,288.5675,20.8779Z" style="fill:none;stroke:#687581;stroke-miterlimit:10;stroke-width:0.5px"/><path d="M120.3955,14.3088h-1.995s-1.1593-.1581-1.0012,2.6875,1.6336,18.76,1.8971,20.3933,1.0012,2.16,2.16,2.1079a5.4038,5.4038,0,0,0,1.8994-.4027,3.2447,3.2447,0,0,0,1.0113-2.9255c-.1084-2.167-1.8781-18.6365-2.0226-19.9006A1.9226,1.9226,0,0,0,120.3955,14.3088Z" style="fill:none;stroke:#687581;stroke-miterlimit:10;stroke-width:0.5px"/><path d="M237.4891,18.5716c6.7119-1.7411,13.7279-1.9326,20.63-1.867,6.9038.21,13.8949.7925,20.515,2.8646l-2.5234-.5906c-2.2658-.4459-5.3781-.924-7.6754-1.1533-10.2718-.91-20.7726-1.1551-30.9465.7463Z" style="fill:#687581"/><path d="M74.5948,38.8541s1.6421-20.69,2.9557-24.8935,2.6273-6.24,8.4073-6.6995,22.2-.3285,32.644,1.445c0,0,5.5829,0,6.8309,7.3563s2.4959,19.5733,2.8243,22.0692a7.8,7.8,0,0,1-1.2479,5.78,15.3988,15.3988,0,0,1-2.1675,2.2989,6.4855,6.4855,0,0,1-3.4812,1.7077c-1.97.1971-10.2464.7225-10.2464.7225a49.8731,49.8731,0,0,1-6.5682,0c-2.6272-.2627-22.8573-1.5082-22.8573-1.5082a8.8129,8.8129,0,0,1-4.0066-2.367,23.9669,23.9669,0,0,1-2.2332-2.8244A6.2864,6.2864,0,0,1,74.5948,38.8541Z" style="fill:none;stroke:#687581;stroke-miterlimit:10"/><path d="M120.88,9.2805c-2.2779-.5744-9.897-.9685-9.24,6.7163s2.2332,20.7555,2.3645,22.7259a7.37,7.37,0,0,1-1.7734,5.8457c-1.7077,1.9705-3.4154,3.81-7.6848,4.0723" style="fill:none;stroke:#687581;stroke-miterlimit:10;stroke-width:0.5px"/><path d="M284.1746,53.84c2.7945-.58,6.837-1.107,9.69-1.55a26.4986,26.4986,0,0,1-9.69,1.55Z" style="fill:#687581"/><path d="M114.7518,41.9494c4.19-.45,8.3525-.65,12.5181-1.2213a35.774,35.774,0,0,1-12.5181,1.2213Z" style="fill:#687581"/><path d="M184.5208,87.0143,135.7722,81.7a4.6624,4.6624,0,0,1-4.1095-4.0125,8.9045,8.9045,0,0,1-.1652-2.5114c.2224-.2965,3.5624-11.1453,4.83-15.2787a4.6468,4.6468,0,0,1,1.8571-2.4986l5.7592-3.8613a4.6533,4.6533,0,0,1,2.0386-.7554l12.007-1.4373" style="fill:none;stroke:#687581;stroke-miterlimit:10"/><path d="M208.9147,55.3062l-10.6078,1.0872a5.9175,5.9175,0,0,0-3.033,1.2181l-4.5413,3.5371a5.9173,5.9173,0,0,0-2.0752,3.12l-3.878,14.2979a5.9056,5.9056,0,0,0-.1821,2.0905,16.2186,16.2186,0,0,0,.695,3.6211" style="fill:none;stroke:#687581;stroke-miterlimit:10;stroke-width:0.5px"/><line x1="139.3986" y1="58.9166" x2="188.037" y2="63.1437" style="fill:none;stroke:#687581;stroke-miterlimit:10;stroke-width:0.5px"/><line x1="133.1823" y1="75.4348" x2="183.1648" y2="80.6431" style="fill:none;stroke:#687581;stroke-miterlimit:10;stroke-width:0.5px"/><path d="M194.0013,63.1437s71.7395,5.0668,97.2768,7.4189a12.1359,12.1359,0,0,1,10.4165,6.1323c3.6122,6.3843,4.1162,9.9965,3.5282,13.9447s-2.8562,18.6489-3.2762,20.329-3.57,8.3039-8.34,5.6158" style="fill:none;stroke:#687581;stroke-miterlimit:10;stroke-width:0.5px"/><path d="M182.8372,107.4593a55.813,55.813,0,0,0,17.2964-2.875c6.9724-2.3521,13.1047-4.3682,17.6409-8.4s6.5523-5.7653,8.2324-7.2929,3.9794-3.2077,11.4822-2.7036,22.2874,2.0471,28.42,2.7036,10.2485,3.86,12.0125,7.8867,4.7883,11.4187,7.8964,13.9389,9.4085,7.0563,11.0886,8.2324,10.2485,3.53,15.9608,2.7732,12.9366-2.6052,12.9366-2.6052" style="fill:none;stroke:#687581;stroke-miterlimit:10;stroke-width:0.5px"/><path d="M181.6155,113.83a15.4742,15.4742,0,0,0,9.1147,0c5.3108-1.4869,19.22-5.7861,19.22-5.7861a54.9816,54.9816,0,0,0,10.0314-6.8282c5.3951-4.5521,6.9967-7.1653,13.572-6.9124s28.0712,2.4446,33.2134,3.3719,6.7438,3.6248,8.8513,7.924,3.5405,7.6711,6.4066,10.1158,8.1769,6.9967,12.8976,9.3571a30.1932,30.1932,0,0,0,18.8828,2.4446c6.66-1.5174,11.9985-2.8661,11.9985-2.8661" style="fill:none;stroke:#687581;stroke-miterlimit:10;stroke-width:0.5px"/><path d="M165.2086,170.9924s11.5282-41.2,13.13-45.1617,4.1353-7.1086,9.0222-8.6122,16.2672-4.8046,19.5548-6.02a38.0167,38.0167,0,0,0,11.1274-6.4421c4.1306-3.3719,5.9851-4.7206,5.9851-4.7206s2.36-2.8662,8.1769-2.36,26.5539,3.0347,29.9258,3.54,5.648,2.36,6.5752,5.0579,5.0579,10.453,7.6712,12.6447,9.6942,8.767,11.6331,10.6215a11.6617,11.6617,0,0,1,3.962,10.8745c-.9273,5.6479-7.3339,34.225-7.7554,35.9952a19.5827,19.5827,0,0,0,0,12.2232c2.0231,5.9009,6.7438,20.0629,6.7438,20.0629" style="fill:none;stroke:#687581;stroke-miterlimit:10;stroke-width:0.5px"/><path d="M288.9374,210.8031l17.1967-2.1075a13.1757,13.1757,0,0,0,5.1422-6.815c1.5174-4.6495,15.7637-59.2746,15.7637-59.2746" style="fill:none;stroke:#687581;stroke-miterlimit:10;stroke-width:0.5px"/><path d="M323.921,129.3713l-9.7785,4.8049s-6.2381,2.1918-7.7555,8.43-8.2612,35.9953-8.6827,38.1027a14.322,14.322,0,0,0,1.8546,10.0315c2.4446,4.3835,8.9721,15.8688,8.9721,15.8688" style="fill:none;stroke:#687581;stroke-miterlimit:10;stroke-width:0.5px"/><path d="M282.1092,180.3715c-8.0926,3.1191-13.74,5.0579-16.3538,13.7406s-9.0785,34.1338-9.61,36.8382a35.7163,35.7163,0,0,0-.2682,12.4942" style="fill:none;stroke:#687581;stroke-miterlimit:10;stroke-width:0.5px"/><path d="M252.9726,254.14c.2529-.1686,8.6522-33.3054,10.6754-38.5319s5.8165-11.2959,12.3075-9.61a84.7078,84.7078,0,0,1,11.2116,3.5405c5.648,2.0987,6.07,11.4645,3.7934,20.4s-7.6065,24.836-7.6065,24.836c-3.2183,10-7.2269,27.4366-7.915,50.8988v6.9788a3.7292,3.7292,0,0,1-1.986,3.3024c-10.57,5.588-59.9293,31.6627-64.9135,33.9509a36.3961,36.3961,0,0,1-25.33,1.9231c-7.9785-2.3352-16.4-5.4088-19.997-6.7551a3.2173,3.2173,0,0,1-2.0663-2.5749c-.8666-6.1961-3.5755-26.12-4.2194-37.54" style="fill:none;stroke:#687581;stroke-miterlimit:10"/><path d="M287.1671,209.5386c-4.0737-1.4168-10.12-1.2644-13.3633,10.0315s-9.0981,36.4311-9.0981,36.4311" style="fill:none;stroke:#687581;stroke-miterlimit:10;stroke-width:0.5px"/><path d="M291.1683,222.37c.5591-3.249-2.0111-7.6511-5.6214-6.9437-3.5009,1.1934-3.8961,5.5-4.88,8.62-3.1356,11.265-6.3554,22.738-9.6579,33.94,3.2359-12.438,6.6732-25.0839,10.1345-37.476.6912-2.21,1.8336-4.8262,4.3093-5.4729,3.8759-.7118,6.4883,4,5.7158,7.3329Z" style="fill:#687581"/><path d="M178.94,236.6789c-2.78-2.98-4.66-9.54-2.47-18.31,2.77-11.09,17.47-60.74,19.55-66.62,2.07-5.87,3.62-8.76,8.39-12.97a69.9884,69.9884,0,0,1,11.08-7.98c2.22-1.33,6.42-3.27,13.19-2.69,6.76.58,19.62,2.58,23.61,3.47,3.99.88,7.76,2.99,9.76,6.43,1.99,3.43,8.47,14.52,6.39,22.05-2.07,7.54-15.71,59.43-18.14,68.46-2.44,9.03-4.29,17.8207-.34,25.4289" style="fill:none;stroke:#687581;stroke-miterlimit:10;stroke-width:0.5px"/><path d="M214.67,245.3989c-2.24-8.31-.87-13.38,1.56-22.36,1.19-4.43,6.19-23.48,11.47-43.66,5.29-20.19,10.73-40.96,13.08-49.76" style="fill:none;stroke:#687581;stroke-miterlimit:10;stroke-width:0.5px"/><path d="M209.21,244.0089c-1.63-8.14-.05-13.98,2.19-22.27,1.19-4.41,6.18-23.46,11.47-43.62,5.17-19.75,10.49-40.05,12.92-49.2" style="fill:none;stroke:#687581;stroke-miterlimit:10;stroke-width:0.5px"/><path d="M61.65,160.0389c.84-2.97,1.72-6.05,2.61-9.15,5.18-18.11,10.51-36.78,12.25-42.75" style="fill:none;stroke:#687581;stroke-miterlimit:10;stroke-width:0.5px"/><path d="M51.84,206.7689c-1.55-7.44-.08-12.44,2.05-19.69.2-.68.52-1.79.94-3.24" style="fill:none;stroke:#687581;stroke-miterlimit:10;stroke-width:0.5px"/><path d="M67.19,158.8689c.61-2.16,1.24-4.37,1.88-6.6,5.41-18.94,10.99-38.48,12.45-43.44" style="fill:none;stroke:#687581;stroke-miterlimit:10;stroke-width:0.5px"/><path d="M56.17,207.8289l1-.27c-1.95-7.28-.71-11.46,1.52-19.07.22-.75.58-2,1.06-3.66" style="fill:none;stroke:#687581;stroke-miterlimit:10;stroke-width:0.5px"/><path d="M154.4692,51.3242l-11.5035,1.0309a88.0977,88.0977,0,0,0-8.7514,6.0545s-9.0818,32.1988-9.7422,34.5655-.7156,5.0638.3852,6.66" style="fill:none;stroke:#687581;stroke-miterlimit:10;stroke-width:0.5px"/><path d="M33.5634,88.4385c3.339.7939,9.0081-.362,11.3749-1.0775s11.3384-2.9172,16.1269-7.1,8.146-6.77,9.467-7.8709,4.2381-2.0365,8.5863-1.7613,18.879,1.7063,21.9062,2.1466,5.0273,1.2523,5.6142,2.66" style="fill:none;stroke:#687581;stroke-miterlimit:10;stroke-width:0.5px"/><path d="M104.107,147.7406c.11-.2752,6.715-26.64,7.8158-31.208s1.321-8.6414-1.1559-11.7788-6.11-6.9351-7.2653-10.0724-2.2567-6.715-3.1924-8.5313-1.8163-3.1373-4.3482-3.5226-18.934-1.7122-22.8969-1.9844-5.5591.2231-8.2011,2.755-5.9444,6.1747-10.843,8.041-18.989,6.27-21.3007,7.37a12.1587,12.1587,0,0,0-6.1646,7.21c-1.4311,3.9629-7.8708,26.0342-8.091,26.86s-1.3187,6.2759-3.0536,4.7066" style="fill:none;stroke:#687581;stroke-miterlimit:10;stroke-width:0.5px"/><path d="M18.2274,133.8377a74.3078,74.3078,0,0,1,8.7676,8.9493s1.2455,1.21-.9044,9.0351" style="fill:none;stroke:#687581;stroke-miterlimit:10;stroke-width:0.5px"/><path d="M29.9476,202.1152c-2.8944-.9471-5.1144-9.2411-2.5937-18.0689S44.016,130.48,45.3016,127.2229a27.9438,27.9438,0,0,1,6.3423-10.199,64.4907,64.4907,0,0,1,9.77-7.4565,14.6212,14.6212,0,0,1,9.8563-2.0569c4.371.4285,16.1985,2.1426,18.8554,2.6569a9.7763,9.7763,0,0,1,6.6851,5.2281c1.5427,2.914,4.2853,10.6276,3.2569,15.5128S95.44,149.3352,95.44,149.3352" style="fill:none;stroke:#687581;stroke-miterlimit:10"/><path d="M169.9058,192.6989c-4.9463-.1444-8.0749-1.839-10.4213,5.5914s-8.6686,33.5284-8.6686,33.5284" style="fill:none;stroke:#687581;stroke-miterlimit:10"/><path d="M151.56,228.7675s-1.7874-8.3816-2.3088-11.8361-1.3688-6.4527,0-11.8625,5.41-19.6189,5.41-19.6189.9777-2.216,4.6929-2.3464" style="fill:none;stroke:#687581;stroke-miterlimit:10;stroke-width:0.5px"/><path d="M104.24,219.3689c-7.47-9.06-5.66-19.8-3.51-26.25" style="fill:none;stroke:#687581;stroke-miterlimit:10"/><path d="M101.5444,197.4445c14.556,2.8951,30.4927,6.4288,44.9064,9.9653-14.5566-2.8923-30.492-6.4315-44.9064-9.9653Z" style="fill:#687581"/><path d="M91.6342,190.8411l-7.2509,24.498-.1065.36c-18.7783-3.6864-44.042-6.8-61.7916,1.5368-1.9379.74-3.5244,3.2964-4.868,4.7718a62.7723,62.7723,0,0,0-4.3153,5.4075c-1.2128,2.0544-.9427,4.4437-.7374,6.7214.7616,9.2341,1.356,18.5059,2.8455,27.6573-1.5566-9.1417-2.2189-18.4114-3.0484-27.6412-.2279-2.2914-.5078-4.7623.7165-6.8574a61.7867,61.7867,0,0,1,4.3046-5.4827l2.212-2.6876c2.2535-2.7281,6.0051-3.6259,9.2076-4.7946,17.9928-5.0155,37.1638-2.8412,55.2726.4966l-.4723.2845,7.0717-24.55.96.28Z" style="fill:#687581"/><path d="M83.062,189.5349c-3.1469,7.3851-3.7666,18.8551-.7968,25.2583" style="fill:none;stroke:#687581;stroke-miterlimit:10;stroke-width:0.5px"/><path d="M0,75.4348c6.4854-2.3795,7.48-10.1123,8.41-16.0863l3.1354-18.96c1.0837-6.2185,3.9-22.3749,4.9526-28.4l1.7295-9.4523L16.7391,12.03c-.9832,5.96-3.6784,22.2558-4.701,28.4369l-3.3,18.9312C7.7944,65.3708,6.605,73.229,0,75.4348Z" style="fill:#687581"/><polygon points="93.572 6.98 95.732 -1.359 94.059 7.091 93.572 6.98 93.572 6.98" style="fill:#687581"/><path d="M179.7785,52.5231c6.6086-13.0253,22.9341-15.9194,36.2338-15.9139a116.8442,116.8442,0,0,1,13.7963.8918c-16.5545-1.7563-40.8361-1.776-49.577,15.2331l-.4531-.211Z" style="fill:#687581"/><path d="M231.1876,36.6154c-4.91-.2554-9.8184-.499-14.7284-.8192-1.8235-.1165-3.85-.3681-5.2945-1.6306a25.95,25.95,0,0,1-3.5794-4.2594,5.029,5.029,0,0,1-.6753-3.62c.6053-4.8794,1.24-9.7572,2.1182-14.5976.82-4.6125,2.5075-10.3513,7.6063-11.6884-5.0758,1.3765-6.706,7.1027-7.4857,11.71-.8356,4.8415-1.4288,9.7236-1.9921,14.6044-.5412,2.5259,1.3381,4.5927,2.9638,6.2818a6.9278,6.9278,0,0,0,2.7965,2.2123,11.8837,11.8837,0,0,0,3.567.614c4.9033.2778,9.8169.48,14.7266.6931l-.023.4995Z" style="fill:#687581"/><path d="M244.2413.4983c1.5172.0719,3.03.2366,4.534.4534,1.4953.2158,3.1329.3981,4.2474,1.5457,2.1851,2.2683,2.6122,5.58,2.9245,8.5719l.0246,2h-.5l.0247-2c-.2961-3.3642-.7321-8.25-4.5182-9.5491a43.3046,43.3046,0,0,0-6.737-1.022Z" style="fill:#687581"/><polygon points="295.214 40.932 323.482 42.7 295.187 41.432 295.214 40.932 295.214 40.932" style="fill:#687581"/><path d="M321.0479,41.1819a13.0181,13.0181,0,0,1-3.2329.09,33.8182,33.8182,0,0,1-6.48-.6864c-3.2488-.7315-5.6975-3.7577-6.45-6.9484-.5029-2.1778.122-4.3759.46-6.5268.8023-4.2625,1.6427-8.5146,2.5628-12.7518.87-4.0552,1.8549-9.0956,6.02-11.0335-4.06,2.1049-4.8345,7.0392-5.6477,11.111-.8348,4.2506-1.6846,8.5-2.4434,12.7635-1.1111,4.7409-1.08,8.2339,2.7783,11.6705,1.611,1.41,3.8983,1.7376,5.9757,1.9639,2.1308.16,4.3463.6209,6.4575.3485Z" style="fill:#687581"/><path d="M207.3365,152.4351c-5.0917-1.2077-2.1555-8.0269,2.3157-7.3308l11.3639,1.9031a3.3941,3.3941,0,0,1,2.4769,4.7438,4.56,4.56,0,0,1-4.8363,2.84c-3.7873-.6825-7.5509-1.41-11.32-2.1558,3.7967.5632,7.5965,1.1621,11.377,1.7754a4.1942,4.1942,0,0,0,4.3562-2.626,2.9091,2.9091,0,0,0-2.1393-4.0851l-11.3352-2.0166c-4.1573-.7413-7.0632,5.6778-2.2587,6.9523Z" style="fill:#687581"/><path d="M242.8988,159.4357c-5.0917-1.2077-2.1556-8.0269,2.3157-7.3308l11.3639,1.9031a3.3942,3.3942,0,0,1,2.4769,4.7439,4.56,4.56,0,0,1-4.8363,2.84c-3.7873-.6825-7.5509-1.41-11.32-2.1558,3.7966.5632,7.5964,1.1621,11.377,1.7754a4.1939,4.1939,0,0,0,4.3561-2.6259,2.9089,2.9089,0,0,0-2.1393-4.0851l-11.3351-2.0167c-4.1573-.7413-7.0633,5.6779-2.2587,6.9523Z" style="fill:#687581"/><path d="M202.5452,169.0531c-5.0194-1.1673-2.7962-8.1589,1.9326-7.3552l11.3717,2.0926a3.6518,3.6518,0,0,1,2.7693,4.7095,4.1966,4.1966,0,0,1-4.7495,2.8977q-5.6757-1.1239-11.3241-2.3446,5.7038.9408,11.3925,1.9661a3.8155,3.8155,0,0,0,4.2477-2.6578,3.1708,3.1708,0,0,0-2.4294-4.08l-11.3468-2.2067c-4.42-.8283-6.57,5.7438-1.864,6.9786Z" style="fill:#687581"/><path d="M238.8343,176.8915c-5.0194-1.1673-2.7962-8.1589,1.9326-7.3552l11.3717,2.0926a3.6517,3.6517,0,0,1,2.7693,4.7094,4.1967,4.1967,0,0,1-4.75,2.8977q-5.6757-1.1239-11.3241-2.3445,5.7037.9408,11.3925,1.966a3.8154,3.8154,0,0,0,4.2477-2.6577,3.171,3.171,0,0,0-2.4294-4.08l-11.3468-2.2066c-4.42-.8284-6.57,5.7438-1.864,6.9786Z" style="fill:#687581"/><path d="M197.4547,185.9156a3.7687,3.7687,0,1,1,1.5415-7.3777l11.3874,2.28a3.952,3.952,0,0,1,3.0445,4.6591,3.8706,3.8706,0,0,1-4.6383,2.97q-5.6766-1.221-11.3351-2.5317,5.7149,1.0357,11.413,2.1551a3.455,3.455,0,1,0,1.4149-6.7635L198.92,178.9129c-4.6836-.9129-6.0538,5.8161-1.4648,7.0027Z" style="fill:#687581"/><path d="M234.4706,194.5916a3.7687,3.7687,0,1,1,1.5416-7.3777l11.3873,2.28a3.9519,3.9519,0,0,1,3.0445,4.6591,3.8706,3.8706,0,0,1-4.6383,2.97q-5.6766-1.221-11.3351-2.5317,5.715,1.0359,11.413,2.1551a3.455,3.455,0,1,0,1.4149-6.7634l-11.3631-2.3943c-4.6836-.913-6.0538,5.8161-1.4648,7.0026Z" style="fill:#687581"/><path d="M192.6018,202.5146c-4.7931-1.067-4.1457-8.3734,1.1431-7.399l11.41,2.4668a4.3162,4.3162,0,0,1,3.3051,4.6,3.5787,3.5787,0,0,1-4.5043,3.0494q-5.6868-1.3139-11.3542-2.7172,5.7281,1.1294,11.4379,2.3419a3.1732,3.1732,0,0,0,3.9691-2.7315,3.8458,3.8458,0,0,0-2.962-4.0551l-11.3844-2.58c-4.9385-1-5.5135,5.8968-1.0606,7.0251Z" style="fill:#687581"/><path d="M230.3445,212.0284c-4.793-1.067-4.1457-8.3734,1.1431-7.399l11.41,2.4668a4.3163,4.3163,0,0,1,3.3051,4.6,3.5789,3.5789,0,0,1-4.5043,3.0495q-5.6868-1.3139-11.3543-2.7172,5.728,1.1293,11.438,2.3419a3.1733,3.1733,0,0,0,3.9691-2.7316,3.8457,3.8457,0,0,0-2.962-4.055l-11.3845-2.58c-4.9384-1-5.5134,5.8968-1.0606,7.0251Z" style="fill:#687581"/><path d="M188.5233,218.3426c-4.6658-1.0346-4.8146-8.4609.7386-7.42l11.4393,2.6534a4.7442,4.7442,0,0,1,3.55,4.5347,3.3157,3.3157,0,0,1-4.3483,3.135q-5.7-1.4067-11.38-2.9027,5.7441,1.2228,11.4688,2.5287a2.9113,2.9113,0,0,0,3.8041-2.7746,4.2788,4.2788,0,0,0-3.2107-4.0353l-11.4118-2.7665c-5.1824-1.0747-4.9528,5.97-.65,7.0477Z" style="fill:#687581"/><path d="M226.9929,228.694c-4.6658-1.0345-4.8146-8.4608.7385-7.42l11.4394,2.6533a4.7445,4.7445,0,0,1,3.55,4.5348,3.3157,3.3157,0,0,1-4.3483,3.135q-5.7-1.4069-11.38-2.9028,5.7441,1.2229,11.4688,2.5288a2.9113,2.9113,0,0,0,3.8041-2.7747,4.2787,4.2787,0,0,0-3.2107-4.0352l-11.4118-2.7665c-5.1824-1.0747-4.9528,5.97-.65,7.0476Z" style="fill:#687581"/><path d="M185.756,232.8916a5.0614,5.0614,0,0,1-3.7276-4.2306,3.02,3.02,0,0,1,4.0557-3.2112l11.4743,2.84a5.2091,5.2091,0,0,1,3.7686,4.4665,3.0691,3.0691,0,0,1-4.16,3.2239q-5.7165-1.5-11.4109-3.0886,5.7631,1.3165,11.5057,2.7159a2.6641,2.6641,0,0,0,3.6111-2.8217,4.7561,4.7561,0,0,0-3.4372-4.0119l-11.4451-2.9529a2.7107,2.7107,0,0,0-3.72,2.8234,4.9434,4.9434,0,0,0,3.485,4.2472Z" style="fill:#687581"/><path d="M224.9525,244.0807a5.0613,5.0613,0,0,1-3.7277-4.2305,3.02,3.02,0,0,1,4.0557-3.2112l11.4744,2.84a5.2093,5.2093,0,0,1,3.7686,4.4665,3.0691,3.0691,0,0,1-4.16,3.2239q-5.7165-1.5-11.4108-3.0887,5.763,1.3167,11.5056,2.716a2.6641,2.6641,0,0,0,3.6111-2.8217,4.7559,4.7559,0,0,0-3.4372-4.0119l-11.4451-2.953a2.7108,2.7108,0,0,0-3.72,2.8235,4.9432,4.9432,0,0,0,3.4851,4.2471Z" style="fill:#687581"/><path d="M53.8987,126.52c-4.1127-.95-1.74-6.4817,1.8621-5.9145l9.113,1.5144a2.7015,2.7015,0,0,1,1.9726,1.4412c1.1688,2.3923-1.3964,5.1955-3.8782,4.7249-3.0369-.554-6.05-1.15-9.07-1.766,3.0464.4334,6.0962.9008,9.1263,1.3856,2.1389.3455,4.4136-2.0635,3.3956-4.1276a2.2149,2.2149,0,0,0-1.6324-1.166l-9.0844-1.628c-3.291-.6138-5.6274,4.5252-1.8051,5.536Z" style="fill:#687581"/><path d="M82.4082,132.1327c-4.1126-.95-1.74-6.4817,1.8621-5.9145l9.1131,1.5144a2.7015,2.7015,0,0,1,1.9725,1.4412c1.1688,2.3923-1.3964,5.1954-3.8782,4.7248-3.0368-.554-6.05-1.15-9.07-1.7659,3.0464.4334,6.0962.9008,9.1264,1.3856,2.1389.3455,4.4135-2.0636,3.3956-4.1276a2.2152,2.2152,0,0,0-1.6325-1.1661l-9.0844-1.6279c-3.291-.6138-5.6274,4.5252-1.8051,5.536Z" style="fill:#687581"/><path d="M49.7446,140.3747c-4.0558-.9284-2.2652-6.5762,1.5561-5.9338l9.119,1.6663a2.9751,2.9751,0,0,1,2.2537,3.8378,3.4021,3.4021,0,0,1-3.8573,2.3468q-4.5492-.9109-9.0715-1.9171,4.5776.7272,9.14,1.5387a3.021,3.021,0,0,0,3.3555-2.1069,2.4943,2.4943,0,0,0-1.9138-3.2087l-9.094-1.78c-3.5007-.6851-5.2268,4.5835-1.4876,5.5572Z" style="fill:#687581"/><path d="M78.8368,146.6586c-4.0558-.9285-2.2652-6.5762,1.5561-5.9339l9.119,1.6663a2.9751,2.9751,0,0,1,2.2537,3.8378,3.4021,3.4021,0,0,1-3.8573,2.3469q-4.5492-.9111-9.0715-1.9171,4.5775.727,9.14,1.5386a3.021,3.021,0,0,0,3.3555-2.1069,2.4944,2.4944,0,0,0-1.9138-3.2087l-9.094-1.78c-3.5007-.685-5.2268,4.5836-1.4876,5.5573Z" style="fill:#687581"/><path d="M44.9173,155.1616a3.04,3.04,0,1,1,1.2435-5.9517l9.1314,1.8167a3.2154,3.2154,0,0,1,2.4747,3.7935,3.1421,3.1421,0,0,1-3.77,2.4084q-4.5487-.9885-9.0794-2.0669,4.5872.8034,9.1573,1.69a2.726,2.726,0,1,0,1.1165-5.3363l-9.1071-1.9308c-3.71-.7524-4.8107,4.6408-1.1667,5.5767Z" style="fill:#687581"/><path d="M39.9362,169.8937c-2.9614-.4328-3.66-4.7017-.7093-5.7672a4.2444,4.2444,0,0,1,2.5969.0324l4.8884,1.1466,2.4352.6133a6.1935,6.1935,0,0,1,2.34.894,6.6845,6.6845,0,0,0-2.3934-.6548l-2.4654-.4771-4.9128-1.0345a3.7967,3.7967,0,0,0-2.335-.0925c-2.6347.9505-2.0592,4.656.5555,5.34Z" style="fill:#687581"/><path d="M51.2013,171.7846a3.83,3.83,0,0,1-2.8615.18,65.5548,65.5548,0,0,1-8.4036-2.0706,65.525,65.525,0,0,1,8.4872,1.697,4.33,4.33,0,0,0,2.7779.1938Z" style="fill:#687581"/><path d="M35.9005,184.0033a3.1647,3.1647,0,0,1-1.168-5.5715,2.9775,2.9775,0,0,1,2.3305-.4877l9.0038,2.0489a3.33,3.33,0,0,1,1.1417,5.8619,2.9407,2.9407,0,0,1-2.3626.4458c-2.9962-.7328-5.97-1.5042-8.9454-2.2974,3.0146.6123,6.03,1.2575,9.0259,1.9213a2.6281,2.6281,0,0,0,2.0335-.4233,2.8648,2.8648,0,0,0-1.0078-5.0222l-8.97-2.1607a2.6267,2.6267,0,0,0-2.07.371,3.0267,3.0267,0,0,0,.9875,5.3139Z" style="fill:#687581"/><path d="M65.5841,191.9824a3.1646,3.1646,0,0,1-1.1679-5.5714,2.9768,2.9768,0,0,1,2.33-.4878l9.0038,2.0489a3.33,3.33,0,0,1,1.1417,5.8619,2.94,2.94,0,0,1-2.3626.4458c-2.9962-.7327-5.9695-1.5042-8.9454-2.2974,3.0146.6123,6.03,1.2575,9.0259,1.9213a2.6281,2.6281,0,0,0,2.0335-.4233,2.8648,2.8648,0,0,0-1.0077-5.0222l-8.97-2.1607a2.6268,2.6268,0,0,0-2.07.371,3.0267,3.0267,0,0,0,.9875,5.3139Z" style="fill:#687581"/><path d="M33.5886,196.136c-3.6837-.8109-4.4066-6.885.2723-6.0029l9.2017,2.2658a4.2281,4.2281,0,0,1,3.054,3.6257,2.501,2.501,0,0,1-3.3895,2.6244q-4.58-1.212-9.1385-2.513,4.6269,1.0289,9.2332,2.14a2.0989,2.0989,0,0,0,2.8406-2.2222,3.7672,3.7672,0,0,0-2.7227-3.1712l-9.1724-2.3785a2.1461,2.1461,0,0,0-2.9485,2.2251,3.9506,3.9506,0,0,0,2.77,3.4065Z" style="fill:#687581"/><path d="M65.0116,205.1061c-3.6837-.8108-4.4066-6.8849.2722-6.0029l9.2017,2.2658a4.2282,4.2282,0,0,1,3.054,3.6258,2.501,2.501,0,0,1-3.3894,2.6244q-4.58-1.2121-9.1385-2.5131,4.6269,1.0289,9.2332,2.14a2.099,2.099,0,0,0,2.8406-2.2222,3.7673,3.7673,0,0,0-2.7228-3.1712L65.19,199.4746a2.1461,2.1461,0,0,0-2.9485,2.225,3.95,3.95,0,0,0,2.77,3.4065Z" style="fill:#687581"/><path d="M136.3427,227.9583c-13.4223-3.4247-27.5165-3.3706-41.2063-1.7335A68.7274,68.7274,0,0,0,81.6,228.92a35.5609,35.5609,0,0,0-6.3331,2.6612c-1.88,1.27-3.11,3.3631-4.5521,5.0995-1.9316,2.7411-4.6124,5.4874-4.3471,9.077l.11,3.468c.3654,9.2412.581,18.5085,1.6222,27.7035-1.1242-9.1869-1.4233-18.4546-1.8721-27.694l-.1407-3.4678c-.2284-2.4006.9522-4.6107,2.3083-6.4811,1.3012-1.92,2.7027-3.7677,4.1453-5.5824,1.9886-3.0031,5.7005-4.0805,8.9015-5.2582a69.2024,69.2024,0,0,1,13.6151-2.84c13.784-1.774,27.9653-1.9488,41.5391,1.386l-.2535.9674Z" style="fill:#687581"/><path d="M-58.5861,194.16c-6.8858,4.56,10.5133,7.5207,13.23,8.2573l6.3173,1.4995c8.413,2.0389,16.8043,4.1628,25.1888,6.3134,8.1435,2.3293,16.9979,4.3982,25.4915,3.2756a196.0888,196.0888,0,0,1,25.8322-2.5295,228.67,228.67,0,0,0-25.7844,2.8586c-8.5593,1.1847-17.4442-.8252-25.665-3.122-8.3689-2.2041-16.7451-4.3817-25.142-6.4743l-6.3047-1.54c-2.8059-.72-20.17-4.0157-13.1632-8.5391Z" style="fill:#687581"/><path d="M-70.6986,204.0775c-1.0928,3.2107,16.1314,6.5781,18.8954,7.5681l20.4114,5.3461c11.5034,3.0861,29.3968,7.7973,40.7616,10.931-11.4064-2.78-29.38-7.4815-40.8889-10.4486l-20.37-5.5087c-2.8985-1.0265-19.8036-4.5175-18.8091-7.8879Z" style="fill:#687581"/><path d="M15.41,228.7675c15.7783,3.9214,33.0428,8.58,48.65,13.1359-15.779-3.9187-33.042-8.5828-48.65-13.1359Z" style="fill:#687581"/><path d="M69.7156,243.4445c12.3183,3.513,36.9982,10.4631,49.33,13.8776,16.4889,4.35,32.9121,9.3039,49.7324,12.1624a226.1134,226.1134,0,0,0,51.0352,2.2754c8.5043-.7406,16.8685-2.6066,25.2211-4.3184q12.5358-2.6341,24.9906-5.648-12.4278,3.113-24.9392,5.8872c-8.3587,1.75-16.7211,3.6376-25.2431,4.41a226.2709,226.2709,0,0,1-51.1415-2.1137c-16.8568-2.9215-33.2407-7.9246-49.7439-12.3356-14.4285-3.9511-34.7236-9.916-49.242-14.1972Z" style="fill:#687581"/><path d="M96.5172,228.7675c-2.4165,1.4647-4.52,4.6549-2.0821,7.0648,2.7354,2.5769,6.6342,3.138,10.1547,4.0757l19.1679,4.8131c16.0035,3.755,31.8794,8.4276,48.1023,11.0567,18.5226,2.4988,50.19-.3407,69.0481-1.1018-22.9971,1.1307-46.0945,4.0043-69.0979,1.5577-16.2748-2.5422-32.12-7.3928-48.1335-11.1908L104.53,240.1436c-3.5-.9784-7.4464-1.5993-10.1726-4.2384-2.4265-2.4582-.3231-5.6942,2.16-7.1377Z" style="fill:#687581"/><path d="M104.24,236.6672c20.0476.3661,40.1926.618,60.039,3.7969,19.7724,3.467,39.2744,8.2726,58.7053,13.2679-19.5053-4.6154-39.0157-9.4511-58.7845-12.7755-19.5062-3.3035-40.1837-3.5308-59.96-4.2893Z" style="fill:#687581"/><path d="M-51.9793,199.1628c15.6294.5583,32.6,1.182,48.1273,2.5139,16.04,1.3879,31.6272,5.6077,47.5145,8.01-15.9334-2.0132-31.5262-6.2674-47.5611-7.5132-13.9047-1.3487-33.9441-2.1946-48.0807-3.0107Z" style="fill:#687581"/><path d="M26.2551,219.3689c14.397,3.3427,30.1477,7.3661,44.3821,11.3453-14.3977-3.34-30.147-7.3687-44.3821-11.3453Z" style="fill:#687581"/><path d="M115.6176,173.45c1.3854.522,2.835-.231,4.2233-.4688l4.4927-.9816c7.4145-1.5922,17.3551-3.5677,24.7342-5.1377a3.5927,3.5927,0,0,0,1.9456-1.123,3.62,3.62,0,0,1-1.9273,1.1826c-7.3232,1.7689-17.2274,4.0178-24.5858,5.8094l-4.4539,1.1008c-1.5573.346-3.1277,1.1438-4.7494.5655l.3206-.9472Z" style="fill:#aebbc7"/><path d="M63.2741,160.2463s42.1125,7.6351,44.5757,8.1093,4.4854,1.3684,4.86,2.7095a4.5582,4.5582,0,0,0,2.7474,2.8582" style="fill:none;stroke:#aebbc7;stroke-miterlimit:10"/><path d="M151.9988,179.2022c.6154,1.4008,2.5667,1.0783,3.7987.8451l4.7493-.7425-4.6563,1.2338c-1.644.5123-3.7978.9224-4.826-.98l.9343-.3564Z" style="fill:#aebbc7"/><path d="M148.24,155.6864a7.3564,7.3564,0,0,1,2.576,4.56c0,1.2518.7158,19.1341.7158,19.1341" style="fill:none;stroke:#aebbc7;stroke-linecap:round;stroke-linejoin:round"/><path d="M161.6359,150.856l-13.03,3.456.052-.0156a1.4806,1.4806,0,0,0-.37.2424c-.3446.2894.0241.5431.2691.7613l-.635.7725a1.3963,1.3963,0,0,1,.4918-2.5884l13.2217-2.6282Z" style="fill:#aebbc7"/><line x1="163.5126" y1="160.3012" x2="150.9083" y2="163.2224" style="fill:none;stroke:#aebbc7;stroke-miterlimit:10;stroke-width:0.5px"/><path d="M83.9106,154.2648l3.0848-.4883-.0366.0076a17.5441,17.5441,0,0,1,5.675.3474l5.4591.9094,10.9008,1.9c3.6306.65,7.2593,1.3106,10.8818,2.0057,3.6217.6984,7.2419,1.4093,10.8383,2.2388,1.8114.7049,3.879,1.2316,5.2025,2.7457a37.4936,37.4936,0,0,1,3.0337,5.068q-.7029-1.2986-1.4632-2.5644a22.2,22.2,0,0,0-1.6478-2.44c-1.3107-1.4558-3.3925-1.9549-5.1773-2.6165-3.56-.7569-7.2381-1.4174-10.8557-2.0509-8.3905-1.4606-18.8408-3.0924-27.3013-4.3511a17.0584,17.0584,0,0,0-5.3533-.2646l-3.0761.54-.1647-.9864Z" style="fill:#aebbc7"/><path d="M84.5031,153.1555c1.7181-1.3,4.0122-1.2425,6.0661-1.1961a60.2445,60.2445,0,0,1,6.2645.6148q12.4637,1.6951,24.8091,4.1328c4.1109.8232,8.22,1.6844,12.2531,2.8712a6.4752,6.4752,0,0,1,4.4183,3.7c.3537.9249.59,1.87.8908,2.8024l.8556,2.805-.944-2.7772c-.3276-.9175-.5993-1.8671-.9723-2.7566a6.3169,6.3169,0,0,0-4.3384-3.4688c-4.0341-1.0913-8.1449-1.9135-12.2519-2.7232q-12.3427-2.3457-24.7667-4.2575c-2.0721-.3166-4.14-.6128-6.2279-.7458-2.046-.1091-4.3009-.242-6.0563.9992Z" style="fill:#aebbc7"/><path d="M137.061,161.56a90.994,90.994,0,0,1,13.3256-2.969,91.0041,91.0041,0,0,1-13.3256,2.969Z" style="fill:#aebbc7"/><path d="M135.5137,163.5548q-11.6966,3.6569-23.6565,6.341,11.6953-3.6613,23.6565-6.341Z" style="fill:#aebbc7"/><path d="M110.7748,169.2508c-3.4717,3.6705-6.1874,7.2176-6.1874,9.9334v14.3515" style="fill:none;stroke:#aebbc7;stroke-miterlimit:10;stroke-width:0.5px"/><path d="M52.0126,166.28c.0227-.05,53.33,10.0966,53.33,10.0966" style="fill:none;stroke:#aebbc7;stroke-miterlimit:10;stroke-width:0.5px"/><path d="M86.4745,156.3528s-9.5535,2.0873-10.2592,2.2378-2.2255.9729,1.3571,1.4845a25.0485,25.0485,0,0,0,5.0482.3758c7.5451-.2984,12.6475.2444,14.0589,2.687l8.6632,1.52a22.6089,22.6089,0,0,0,9.4091-.3257c5.6487-1.2484,7.44-1.6827,7.44-1.6827s2.9855-.8142-1.14-1.5742l-7.1652-1.357c-6.2424.6514-14.7646-.4342-12.4305-2.3341l-9.5535-1.52A20.4517,20.4517,0,0,0,86.4745,156.3528Z" style="fill:none;stroke:#aebbc7;stroke-miterlimit:10;stroke-width:0.5px"/><line x1="101.0736" y1="158.0905" x2="101.0736" y2="163.9242" style="fill:none;stroke:#aebbc7;stroke-miterlimit:10;stroke-width:0.5px"/><line x1="113.8867" y1="159.7182" x2="113.8867" y2="164.4731" style="fill:none;stroke:#aebbc7;stroke-miterlimit:10;stroke-width:0.5px"/><path d="M142.2471,147.5581s-2.2393-.5558-7.421.7108c-4.3649,1.067-12.4612,3.2234-14.9051,3.8767a3.0232,3.0232,0,0,1-1.443.0291l-2.8471-.6381a.2207.2207,0,0,1-.01-.4287c2.5191-.6724,9.9873-2.6723,15.3669-4.1824a7.9762,7.9762,0,0,1,4.7494-.3966" style="fill:none;stroke:#aebbc7;stroke-miterlimit:10;stroke-width:0.5px"/><line x1="130.4617" y1="87.6795" x2="182.3458" y2="93.0859" style="fill:none;stroke:#f4ae3d;stroke-linecap:round;stroke-linejoin:round;stroke-width:0.5px"/><path d="M164.8437,154.758s-.1242-3.4528-4.4828-4.2575-33.328-5.34-33.328-5.34-6.6263-1.1872-10.3766-.4719-29.9329,7.1334-29.9329,7.1334-2.73.4876-2.73,2.9359c0,0-14.8261,2.9848-20.7188,5.4883l-1.7966-.2249a7.3863,7.3863,0,0,0-6.5015,2.4942l-1.9617,2.2657a7.3859,7.3859,0,0,0-1.8023,4.8349V179.763a4.084,4.084,0,0,0,3.2743,4.0029l46.4813,9.4015a18.664,18.664,0,0,0,7.766-.0778l51.3821-11.469" style="fill:none;stroke:#aebbc7;stroke-miterlimit:10"/><path d="M162.5855,168.3556l-3.2314,17.3552a13.595,13.595,0,0,0,1.6157,9.1748" style="fill:none;stroke:#687581;stroke-miterlimit:10"/><path d="M116.6444,178.3681c.1245,4.4808.029,9.1182.029,9.1182-.4688,4.7391,1.2,10.573,4.0892,9.797s6.9894-1.98,9.214-2.57,2.0265-5.2887-1.9152-13.2888l.0157-5.3155a1.3737,1.3737,0,0,0-1.7293-1.331l-8.7786,2.3525A1.2468,1.2468,0,0,0,116.6444,178.3681Z" style="fill:#f4ae3d;stroke:#aebbc7;stroke-miterlimit:10;stroke-width:1.25px"/><path d="M116.6541,178.7339c.0152-1.4.9565-2.1278.708.2023-.0863.8087.2956,4.8114.2956,4.8114,4.1468,8.9362,3.7142,16.065.8251,12.613" style="fill:none;stroke:#aebbc7;stroke-miterlimit:10;stroke-width:0.5px"/><line x1="117.6577" y1="183.7476" x2="128.0614" y2="181.4247" style="fill:none;stroke:#aebbc7;stroke-miterlimit:10;stroke-width:0.5px"/><path d="M110.7748,145.9855l18.0775-60.833a6.931,6.931,0,0,1,6.92-3.4525l48.7486,5.3143" style="fill:none;stroke:#f4ae3d;stroke-linecap:round;stroke-linejoin:round"/><path d="M212.28,55.3062l-11.1644,1.5714a7.2994,7.2994,0,0,0-2.9706,1.1143l-4.3725,2.8516a7.3008,7.3008,0,0,0-3.0387,4.1341l-9.4671,33.58a8.9108,8.9108,0,0,0,1.5708,8.9016l-.7854,3.6654a7.5265,7.5265,0,0,0-.4363,2.7053,5.08,5.08,0,0,0-4.8872,1.7455c-2.0072,2.4435-9.0825,22.8649-14.2283,50.8788a3.9276,3.9276,0,0,0,2.7086,4.5381c3.4035,1.0472,9.3379,2.4436,7.418,10.3852s-7.418,31.33-8.7271,34.0356-2.1665,15.6746,6.8224,19.6018" style="fill:none;stroke:#687581;stroke-miterlimit:10"/><path d="M116.6563,144.6887c-3.75.7153-29.9329,7.1334-29.9329,7.1334" style="fill:none;stroke:#aebbc7;stroke-miterlimit:10"/></g><g id="be8b1333-b447-43f3-9a01-ebf537ed5e3e" data-name="arrows/icons"><path d="M169.9058,110.602c-20.2564,3.2085-37.5235,16.3713-42.6694,36.6081a71.2708,71.2708,0,0,0-2.187,19.3963l-5.9988-.1185a88.9178,88.9178,0,0,1,1.2274-10.4322c4.3736-25.9861,23.5728-43.1617,49.6278-45.4537Z" style="fill:#f4ae3d"/><polygon points="125.517 163.058 129.455 162.183 122.059 171.268 114.645 165.474 119.126 164.478 125.517 163.058" style="fill:#f4ae3d"/></g></svg>