<?xml version="1.0" encoding="UTF-8"?><svg xmlns="http://www.w3.org/2000/svg" width="436" height="147.2203" viewBox="0 0 436 147.2203"><g id="uuid-c939356e-a190-4e43-ac32-ac91da78e666"><path d="m1.0451,115.8678c85.6564-1.9952,255.7665,0,437.9082,15.6294" style="fill:none; stroke:#687581; stroke-miterlimit:10; stroke-width:.25px;"/><path d="m1.0451,109.6688c85.6564-1.9952,255.7665,0,437.9082,15.6294" style="fill:none; stroke:#687581; stroke-miterlimit:10; stroke-width:.5px;"/><path d="m0,125.5115c136.2502-1.6627,295.3864,2.6603,438.9533,15.6294" style="fill:none; stroke:#687581; stroke-miterlimit:10; stroke-width:.5px;"/><path d="m1.0451,14.4427c123.2336-.9976,279.3769,0,437.9082,16.9596" style="fill:none; stroke:#687581; stroke-miterlimit:10;"/><path d="m438.9533,36.2073c-118.8985-12.7197-236.4537-16.4608-339.7893-17.1155-3.1154.2572-3.6884,1.2626-2.8289,3.6965s1.5757,3.7232,1.5757,3.7232c.6234,1.1413,1.8113,2.1409,3.7548,2.1545,102.7292.6991,219.3476,4.4819,337.2877,17.099" style="fill:none; stroke:#687581; stroke-miterlimit:10;"/><path d="m1.0451,28.8054c7.4453-.0603,15.0108-.1133,22.6896-.1559,0,0,1.1155.3314,2.5958-1.4027,1.4803-1.7341,1.7341-2.7914,2.7491-4.1025,1.0151-1.3111.7207-4.0525-3.3835-4.0525-7.6788.0426-17.2057.0956-24.651.1559" style="fill:none; stroke:#687581; stroke-miterlimit:10;"/><path d="m1.0451,35.0603c65.0389,0,264.2225.3325,437.6469,18.2898" style="fill:none; stroke:#687581; stroke-miterlimit:10; stroke-width:.5px;"/><path d="m0,53.35c61.4284,0,288.7356,1.9952,438.9533,18.2898" style="fill:none; stroke:#687581; stroke-miterlimit:10; stroke-width:.5px;"/><rect x="72.7098" y="38.4806" width="30.3037" height="13.6101" rx="4.056" ry="4.056" transform="translate(.5572 -1.0651) rotate(.6967)" style="fill:none; stroke:#687581; stroke-miterlimit:10; stroke-width:.5px;"/><path d="m71.6904,15.4363c.5452.1295,2.0127.2682,1.7536,1.1499-1.0613,1.2074-3.0784,1.2297-4.547,1.5729-4.5642.6356-9.2062.6356-13.7611-.0924-1.2456-.2963-2.719-.3914-3.7627-1.3074-.4738-.5526.2766-1.0318.7176-1.1443.5575-.1927,1.1271-.2762,1.6966-.3404-.5459.1689-1.0945.3435-1.594.5847-.4307.2286-.9066.5108-.1976.79.8211,1.2892,27.5049,1.5585,19.6947-1.2131h0Z" style="fill:#687581; stroke-width:0px;"/></g><g id="uuid-a961b6f4-ef82-4ed7-bda1-6433a02d7f82"><path d="m412.9312,40.8005c-.21-.98-.56-2.46-1-4-.78-2.74-2.44-2.8501-2.44-2.8501-33.89-1.8-69.41-.8799-126.4,4.55-6.02.5801-12.28,1.2-18.81,1.8801-68.28,7.0898-128.36,17.96-164.19,27.5999h-8.23c-4.79,0-4.42,1.6899-1.93,1.6899h21.89c.3199.4102.68,1.1101,1.03,1.9502.35.8298.7,1.79,1.01,2.71h.01c.61,1.8301,1.1,3.53,1.22,3.9299.01.0601.02.0901.02.0901v14.8101h.48l4.3-1.4402,1.98.8101c4.26-1.1699,16.45-4.2,31.32-7.8401-.64.25-10.95,4.21-15.05,5.77-.7.27-1.1,1.01-.95,1.75l1.2599,5.9102s1.19-.23,3.16-.6201c.32-.0601.66-.1299,1.02-.2l.73,2.89.67,2.66c.15.5999.75.96,1.34.8099,46.84-11.9799,171.48-38.14,263.98-52.91.61-.1001,1.02-.6599.92-1.27l-.43-2.72-.6-3.78,2.74-.6599c.68-.1599,1.1-.8401.95-1.52Zm-136.8,23.03l-.35-2.74c-.12-.95-.97-1.6201-1.92-1.53l-31.86,3.1001c58.36-11.4702,110.57-19.4502,140.87-21.3301,2.42-.1499,3.91.6199,4.38,1.6399-27.62,4.3801-69.92,12.54-111.12,20.8601Zm-72.13,12.8999s24-6.4299,63.6-11.77c0,0,.81-.1499,1.83.2202-45.32,9.21-88.24,18.3599-107.47,22.5798.03-.54.08-1.0701.16-1.53l33.27-9.5h8.61Z" style="fill:none; stroke:#aebbc7; stroke-miterlimit:10; stroke-width:2px;"/><path d="m412.9312,40.8005c-.21-.98-.56-2.46-1-4-.78-2.74-2.44-2.8501-2.44-2.8501-33.89-1.8-69.41-.8799-126.4,4.55-6.02.5801-12.28,1.2-18.81,1.8801-68.28,7.0898-128.36,17.96-164.19,27.5999h-8.23c-4.79,0-4.42,1.6899-1.93,1.6899h21.89c.3199.4102.68,1.1101,1.03,1.9502.35.8298.7,1.79,1.01,2.71h.01c.61,1.8301,1.1,3.53,1.22,3.9299.01.0601.02.0901.02.0901v14.8101h.48l4.3-1.4402,1.98.8101c4.26-1.1699,16.45-4.2,31.32-7.8401-.64.25-10.95,4.21-15.05,5.77-.7.27-1.1,1.01-.95,1.75l1.2599,5.9102s1.19-.23,3.16-.6201c.32-.0601.66-.1299,1.02-.2l.73,2.89.67,2.66c.15.5999.75.96,1.34.8099,46.84-11.9799,171.48-38.14,263.98-52.91.61-.1001,1.02-.6599.92-1.27l-.43-2.72-.6-3.78,2.74-.6599c.68-.1599,1.1-.8401.95-1.52Zm-136.8,23.03l-.35-2.74c-.12-.95-.97-1.6201-1.92-1.53l-31.86,3.1001c58.36-11.4702,110.57-19.4502,140.87-21.3301,2.42-.1499,3.91.6199,4.38,1.6399-27.62,4.3801-69.92,12.54-111.12,20.8601Zm-72.13,12.8999s24-6.4299,63.6-11.77c0,0,.81-.1499,1.83.2202-45.32,9.21-88.24,18.3599-107.47,22.5798.03-.54.08-1.0701.16-1.53l33.27-9.5h8.61Z" style="fill:#404d59; stroke-width:0px;"/><path d="m115.5893,93.1585l4.3067-1.4356,1.9739.8075c13.7275-3.7683,110.0888-26.9166,112.5113-27.4549s2.4225-2.4225,2.4225-2.4225l5.1946.0082c58.361-11.4727,110.5699-19.4537,140.8775-21.3349,2.418-.1501,3.9055.6249,4.3741,1.6403.31.6716,1.0299,2.5732,1.482,3.784.2258.6049.8674.9447,1.4952.7939l21.7531-5.2264c.6766-.1626,1.0975-.8347.9503-1.5148-.2136-.9865-.5557-2.4593-.998-4.0073-.7811-2.7338-2.4444-2.8441-2.4444-2.8441-37.4663-1.9952-76.9278-.6651-145.2096,6.4291-68.2818,7.0942-128.3608,17.9572-164.1828,27.6012h-44.2616c-5.6717,0-8.2295,8.5632-8.2295,8.5632,0,0-.8897,16.3479-.8897,19.0169s2.3354,3.5587,6.2278,3.5587h23.2429l3.0027-1.8906h35.9208v-18.876s-1.9422-6.9614-3.2881-8.6846h-21.8921c-2.5122,0-2.8711-1.7239,2.0636-1.6877" style="fill:none; stroke:#aebbc7; stroke-miterlimit:10;"/><path d="m51.7346,69.6698c-.7134.7151,1.7671,1.9554,7.0607,1.9554h54.3167" style="fill:none; stroke:#aebbc7; stroke-miterlimit:10; stroke-width:.5px;"/><path d="m48.0942,75.204c-.4897,1.3413,3.613,3.0607,14.4694,3.0607h52.5454" style="fill:none; stroke:#aebbc7; stroke-miterlimit:10; stroke-width:.5px;"/><path d="m54.3092,99.1209v5.6117c0,2.1533,16.778,2.1533,16.778,0v-5.6117" style="fill:none; stroke:#aebbc7; stroke-miterlimit:10;"/><line x1="54.3092" y1="104.7326" x2="45.0385" y2="109.0276" style="fill:none; stroke:#aebbc7; stroke-miterlimit:10;"/><line x1="71.0872" y1="104.7326" x2="81.011" y2="109.0276" style="fill:none; stroke:#aebbc7; stroke-miterlimit:10;"/><path d="m100.7852,69.6698l10.6769-2.441s3.858,3.6584,5.1141,7.9751,5.2936,17.3264,5.2936,17.3264" style="fill:none; stroke:#aebbc7; stroke-miterlimit:10; stroke-width:.5px;"/><path d="m236.8036,62.653l-.7296-8.4924s-.3272-2.8361,2.727-3.0543,20.18-2.0725,22.3616-8.2902l21.9253-2.727v-1.5862" style="fill:none; stroke:#aebbc7; stroke-miterlimit:10;"/><path d="m236.074,54.1606h4.4723s14.7259-.4363,21.8162-8.9446l-1.1999-2.3998" style="fill:none; stroke:#aebbc7; stroke-miterlimit:10; stroke-width:.5px;"/><path d="m262.3625,45.216s40.1418-5.1268,50.5045-5.6722,49.5228-3.7088,95.2277-2.1816c0,0,1.6758.5038,3.8376-.5662" style="fill:none; stroke:#aebbc7; stroke-miterlimit:10; stroke-width:.5px;"/><path d="m239.7112,54.1605l2.29,8.5,31.86-3.1c.95-.09,1.8.58,1.92,1.53l.35,2.74.51,4.02c.07.52-.28,1.02-.79,1.13l-2.09.48c-.5.11-1.02-.17-1.19-.67-.81-2.28-2.08-3.23-3.14-3.61-1.02-.37-1.83-.22-1.83-.22-39.6,5.34-63.6,11.77-63.6,11.77h-8.61l-33.27,9.5c-.08.46-.13.99-.16,1.53-.14,2.53.16,5.56.16,5.56-11.35,2.4-23.67,4.8-23.67,4.8l-1.2561-5.9112c-.1573-.7404.2425-1.4825.95-1.7513,4.2243-1.6049,15.0761-5.7775,15.0761-5.7775" style="fill:none; stroke:#aebbc7; stroke-miterlimit:10;"/><line x1="275.7775" y1="61.086" x2="234.3811" y2="65.0755" style="fill:none; stroke:#aebbc7; stroke-miterlimit:10; stroke-width:.5px;"/><path d="m116.5762,75.204c35.3034-8.9957,122.8722-25.8703,141.0747-28.7694" style="fill:none; stroke:#aebbc7; stroke-miterlimit:10; stroke-width:.5px;"/><path d="m142.6279,97.2972l1.3996,5.5499c.1509.5984.7505.9617,1.3483.8087,46.8326-11.9799,171.4741-38.1326,263.978-52.9037.6069-.0969,1.015-.6655.919-1.2725l-1.0281-6.5044" style="fill:none; stroke:#aebbc7; stroke-miterlimit:10;"/><path d="m143.5774,100.1305c46.1533-11.8962,172.818-38.5012,266.1455-53.3538" style="fill:none; stroke:#aebbc7; stroke-miterlimit:10; stroke-width:.5px;"/><path d="m161.9912,91.6205c27.31-6.45,67.08-15.05,110.22-23.69" style="fill:none; stroke:#aebbc7; stroke-miterlimit:10; stroke-width:.5px;"/><path d="m276.5412,67.0605c36.99-7.38,76.21-14.73,112.02-20.75" style="fill:none; stroke:#aebbc7; stroke-miterlimit:10; stroke-width:.5px;"/><path d="m161.9612,87.7605c19.23-4.22,62.15-13.37,107.47-22.58" style="fill:none; stroke:#aebbc7; stroke-miterlimit:10; stroke-width:.5px;"/><path d="m387.2512,42.9705c-27.62,4.38-69.92,12.54-111.12,20.86" style="fill:none; stroke:#aebbc7; stroke-miterlimit:10; stroke-width:.5px;"/><path d="m137.1951,92.2093s2.1333-.5214,3.8694-1.1934c1.736-.672,20.4521-8.3582,20.4521-8.3582" style="fill:none; stroke:#aebbc7; stroke-miterlimit:10; stroke-width:.5px;"/><line x1="140.2477" y1="91.3118" x2="141.6102" y2="97.4995" style="fill:none; stroke:#aebbc7; stroke-miterlimit:10; stroke-width:.5px;"/><path d="m119.8959,91.7229l-4.3826-15.2524s-.4704-1.5893-1.6553-2.1405" style="fill:none; stroke:#aebbc7; stroke-miterlimit:10; stroke-width:.5px;"/><path d="m404.9545,73.4851l-20.9437-12.6453-11.8429,18.8801,9.0669-1.7241c1.5234,7.0764,1.6344,20.4077-.2379,27.2172h15.1285c2.0947-7.851,1.5284-22.0685-.1445-30.0214l8.9735-1.7065Z" style="fill:#f4ae3d; stroke:#141b21; stroke-miterlimit:10; stroke-width:1.5px;"/><line x1="149.5753" y1="109.0276" x2="394.8471" y2="109.0276" style="fill:none; stroke:#f4ae3d; stroke-miterlimit:10; stroke-width:.5px;"/><line x1="149.5753" y1="109.0276" x2="402.2408" y2="57.7209" style="fill:none; stroke:#f4ae3d; stroke-miterlimit:10; stroke-width:.5px;"/></g></svg>