<svg width="147" height="20" viewBox="0 0 147 20" fill="none" xmlns="http://www.w3.org/2000/svg">
<g clip-path="url(#clip0_2985_49365)">
<path d="M19.934 6.65842C19.934 3.28383 17.6485 0 12.731 0H0V20H4.29043V3.59736H12.0957C14.4967 3.59736 15.6436 4.76898 15.6436 6.65017C15.6436 8.53135 14.4967 9.73597 12.0957 9.73597H8.77888C7.26898 9.73597 6.42739 10.5776 6.42739 12.0792V13.3333H8.81188C9.92574 13.3333 10.7508 13.7046 11.4439 14.5875L15.6766 19.9917H20.9406L15.0495 12.5083C18.1931 11.7904 19.9422 9.73597 19.9422 6.65017L19.934 6.65842Z" fill="#AEBBC7"/>
<path d="M35.3627 0H31.0723V20H35.3627V0Z" fill="#AEBBC7"/>
<path d="M68.424 0H63.8531L56.5841 15.4868L49.3233 0H44.7441L54.2986 20H58.8696L68.424 0Z" fill="#AEBBC7"/>
<path d="M82.1781 0H77.8877V20H82.1781V0Z" fill="#AEBBC7"/>
<path d="M105.982 0H101.402L91.5674 20H96.1466L97.376 17.4257C97.8875 16.3366 98.6961 15.8498 99.8925 15.8498H107.326L106.444 13.9604C105.899 12.7888 105.016 12.2525 103.696 12.2525H99.8925L103.696 4.36469L111.246 20H115.825L105.982 0Z" fill="#AEBBC7"/>
<path d="M146.279 0H142.129V14.8597L130.14 0H125.223V20H129.373V5.14026L141.353 20H146.271L146.279 0Z" fill="#AEBBC7"/>
</g>
<defs>
<clipPath id="clip0_2985_49365">
<rect width="146.279" height="20" fill="white"/>
</clipPath>
</defs>
</svg>
