<?xml version="1.0" encoding="UTF-8"?><svg xmlns="http://www.w3.org/2000/svg" width="161.7489" height="120.8212" viewBox="0 0 161.7489 120.8212"><g id="uuid-75b9324c-537c-42c8-b103-27ffa0089de7"><g id="uuid-d620ea5b-17ae-425c-817a-edededd9c0ec"><path d="m80.4355,84.9546c27.1235.0695,41.5974,1.3336,45.4507,1.7047,1.6309.1571,2.8733.862,3.7531,1.9012,1.5166,1.7914,1.8455,4.4301,1.6949,6.586-.2215,3.1725-.7275,10.4815-2.2995,15.2533-.8194,2.4872-1.6822,4.4402-3.3472,5.7307-1.4523,1.1257-3.3755,1.644-6.029,1.8198-9.1227.6044-27.085,1.2655-39.2687,1.2309-12.1836-.0345-30.1953-.7976-39.3155-1.4537-2.6524-.1908-4.5729-.7199-6.02-1.8531-1.6594-1.2994-2.514-3.257-3.3232-5.7491-1.5521-4.7804-2.0288-12.0919-2.2371-15.2659-.1415-2.1567.1982-4.7943,1.7232-6.5777.8846-1.0344,2.1302-1.7322,3.7616-1.88,3.8548-.3493,18.3338-1.5313,45.4567-1.447Z" style="fill:none; stroke:#687581; stroke-miterlimit:10; stroke-width:.5px;"/><path d="m80.4349,85.2046c27.1156.0695,41.5818,1.3332,45.4273,1.7036,1.5665.1509,2.7488.8247,3.5862,1.8139,1.4541,1.7175,1.7851,4.2758,1.6363,6.4071-.2222,3.1821-.7273,10.4565-2.2875,15.1925-.8185,2.4846-1.6628,4.3711-3.2629,5.6113-1.3945,1.0808-3.2585,1.5934-5.8923,1.7679-9.1175.604-27.074,1.2649-39.2515,1.2304-12.1774-.0345-30.1834-.7974-39.2983-1.4531-2.6327-.1894-4.4942-.7124-5.8838-1.8006-1.5949-1.2489-2.4312-3.1399-3.2395-5.6295-1.5404-4.7446-2.0165-12.0216-2.2254-15.2051-.1399-2.132.2017-4.6891,1.6637-6.3988.8418-.9845,2.0272-1.6515,3.5942-1.7935,3.8471-.3486,18.3183-1.5302,45.4335-1.446Z" style="fill:none; stroke:#687581; stroke-miterlimit:10; stroke-width:.5px;"/><path d="m80.4343,85.4546c27.1078.0695,41.5661,1.3328,45.404,1.7024,1.5021.1447,2.6244.7875,3.4194,1.7265,1.3916,1.6437,1.7248,4.1216,1.5777,6.2281-.2229,3.1916-.7272,10.4315-2.2756,15.1316-.8177,2.482-1.6433,4.302-3.1786,5.492-1.3367,1.036-3.1416,1.5429-5.7557,1.716-9.1122.6037-27.063,1.2644-39.2342,1.2299-12.1712-.0345-30.1715-.7971-39.2811-1.4525-2.6131-.188-4.4155-.705-5.7476-1.7481-1.5304-1.1984-2.3484-3.0229-3.1559-5.5099-1.5288-4.7087-2.0042-11.9513-2.2138-15.1443-.1383-2.1074.2052-4.5838,1.6043-6.22.7991-.9345,1.9242-1.5709,3.4267-1.707,3.8394-.3479,18.3028-1.5292,45.4103-1.445Z" style="fill:none; stroke:#687581; stroke-miterlimit:10; stroke-width:.5px;"/><path d="m80.4336,85.7046c27.0999.0694,41.5505,1.3324,45.3807,1.7013,1.4377.1385,2.5.7503,3.2526,1.6392,1.3291,1.5699,1.6645,3.9673,1.5191,6.0492-.2235,3.2012-.727,10.4065-2.2636,15.0708-.8168,2.4794-1.6239,4.2329-3.0943,5.3726-1.2788.9912-3.0246,1.4923-5.6191,1.6642-9.1069.6033-27.0519,1.2638-39.217,1.2293-12.165-.0345-30.1595-.7968-39.2638-1.4518-2.5934-.1866-4.3369-.6975-5.6114-1.6955-1.4658-1.1479-2.2656-2.9059-3.0722-5.3902-1.5172-4.6729-1.9919-11.881-2.2021-15.0834-.1367-2.0828.2087-4.4786,1.5448-6.0411.7564-.8846,1.8212-1.4902,3.2593-1.6205,3.8317-.3472,18.2874-1.5282,45.3871-1.4439Z" style="fill:none; stroke:#687581; stroke-miterlimit:10; stroke-width:.5px;"/></g><path d="m80.433,85.9546c27.092.0694,41.5348,1.3319,45.3574,1.7001,3.8225.3682,4.7705,4.2114,4.5463,7.4221-.2242,3.2107-.7269,10.3815-2.2517,15.01-1.5248,4.6285-2.9536,6.4986-8.4925,6.8656-9.1017.603-27.0409,1.2632-39.1998,1.2288-12.1589-.0345-30.1476-.7966-39.2466-1.4512-5.5373-.3984-6.9582-2.2766-8.4638-6.9136-1.5055-4.6371-1.9796-11.8107-2.1904-15.0226s.7532-7.0498,4.5772-7.3963c3.824-.3465,18.2719-1.5271,45.3639-1.4429Z" style="fill:none; stroke:#687581; stroke-miterlimit:10; stroke-width:.5px;"/><path d="m80.396,116.3276c-11.8604-.0338-29.8281-.7764-39.1682-1.4483-5.0351-.3627-6.0015-1.91-7.3016-5.9144-1.4666-4.5161-1.916-11.3651-2.108-14.29-.1065-1.6216.0071-5.4269,3.354-5.73,4.7854-.4339,18.5077-1.4427,42.5157-1.4427.9,0,1.8119.0015,2.7417.0045,25.6462.0657,40.189,1.2068,45.2511,1.6948,3.3453.3223,3.4434,4.1282,3.3302,5.7497-.2042,2.9229-.6824,9.7693-2.1676,14.2768-1.317,3.9973-2.2897,5.5396-7.3263,5.873-8.9106.5905-26.0489,1.228-38.1992,1.228l-.9218-.0015Z" style="fill:none; stroke:#687581; stroke-miterlimit:10; stroke-width:.5px;"/><path d="m80.9057,79.4082h-25.2274c-.8781,0-1.7151-.4468-2.2884-1.2227l-2.7721-3.7516c-.5739-.7767-1.4095-1.2227-2.2884-1.2227h-25.011c-8.4658,0-9.7606-5.2289-15.9357-5.2289H3.2449" style="fill:none; stroke:#687581; stroke-miterlimit:10; stroke-width:1.5px;"/><path d="m132.8879,73.2113c3.8958,0,7.1805-.7513,9.2429-7.7026,2.0625-6.9513,7.486-25.4881,9.3193-31.7265,1.8333-6.2383.7007-9.1353-2.7005-12.6591-4.8242-4.9982-11.2424-10.6441-18.0464-15.1807-5.2678-3.5123-6.844-3.7399-49.7975-3.7399-42.9535,0-44.5298.2276-49.7975,3.7399-6.8041,4.5366-13.2222,10.1825-18.0464,15.1807-3.4012,3.5239-4.5338,6.4208-2.7005,12.6591,1.8333,6.2383,7.2569,24.7752,9.3193,31.7265,2.0625,6.9513,5.3472,7.7026,9.2429,7.7026" style="fill:none; stroke:#687581; stroke-miterlimit:10;"/><path d="m80.9057,38.4429h-46.0555c-2.1749,0-3.4705.0906-7.0336,2.3214-3.4984,2.1903-4.008,1.9196-3.2391,5.1826.559,2.3725.8803,3.5648,1.4345,5.5605.6226,2.2422,1.651,3.5441,7.6665,3.5631,6.7564.0213,31.8779.162,47.2273.162" style="fill:none; stroke:#687581; stroke-miterlimit:10; stroke-width:.5px;"/><path d="m80.9057,36.9139s41.1043,0,45.5928,0c5.6648,0,6.2141.8846,9.8115,2.9793,4.1536,2.4185,5.9147,3.7822,5.1972,6.433-.7175,2.6508-1.2655,5.0733-2.2126,8.1936-.8337,2.7469-3.5384,3.2212-8.5112,3.2212h-49.8777s-49.8777,0-49.8777,0c-4.9729,0-7.6775-.4743-8.5112-3.2212-.9471-3.1203-1.4951-5.5428-2.2126-8.1936s1.0436-4.0145,5.1972-6.433c3.5974-2.0946,4.1468-2.9793,9.8115-2.9793h45.5928Z" style="fill:none; stroke:#687581; stroke-miterlimit:10; stroke-width:.5px;"/><path d="m80.9057,38.4429s43.8807,0,46.0555,0,3.4705.0906,7.0336,2.3214c3.4984,2.1903,4.008,1.9196,3.2391,5.1826-.559,2.3725-.8803,3.5648-1.4345,5.5605-.6226,2.2422-1.651,3.5441-7.6665,3.5631-6.7564.0213-31.8779.162-47.2273.162" style="fill:none; stroke:#687581; stroke-miterlimit:10; stroke-width:.5px;"/><line x1="26.5187" y1="65.6869" x2="80.9057" y2="65.6869" style="fill:none; stroke:#687581; stroke-linecap:round; stroke-linejoin:round;"/><path d="m36.4073,72.7952l-3.3402-.0015c-4.94-.0022-6.5044-5.97-6.7558-6.9694" style="fill:none; stroke:#687581; stroke-linecap:round; stroke-linejoin:round; stroke-width:.5px;"/><path d="m125.4041,72.7952l3.3402-.0015c4.94-.0022,6.5044-5.97,6.7558-6.9694" style="fill:none; stroke:#687581; stroke-linecap:round; stroke-linejoin:round; stroke-width:.5px;"/><path d="m66.685,73.9896c.1185.4826-.123.8775-.5366.8775h-10.8352c-.4137,0-.8491-.3949-.9676-.8775l-1.3698-5.5774c-.1185-.4826.123-.8775.5366-.8775h10.8352c.4137,0,.8491.3949.9676.8775l1.3698,5.5774Z" style="fill:none; stroke:#687581; stroke-miterlimit:10; stroke-width:.5px;"/><line x1="135.2927" y1="65.6869" x2="80.9057" y2="65.6869" style="fill:none; stroke:#687581; stroke-linecap:round; stroke-linejoin:round;"/><path d="m95.1264,73.9896c-.1185.4826.123.8775.5366.8775h10.8352c.4137,0,.8491-.3949.9676-.8775l1.3698-5.5774c.1185-.4826-.123-.8775-.5366-.8775h-10.8352c-.4137,0-.8491.3949-.9676.8775l-1.3698,5.5774Z" style="fill:none; stroke:#687581; stroke-miterlimit:10; stroke-width:.5px;"/><path d="m76.592,78.9921h-2.5104c-.5941,0-1.1211-.4449-1.3069-1.1033l-3.1071-11.0987c-.1858-.6584-.7128-1.1033-1.3069-1.1033h-6.9219" style="fill:none; stroke:#687581; stroke-linecap:round; stroke-linejoin:round; stroke-width:.5px;"/><path d="m85.2194,78.9921h2.5104c.5941,0,1.1211-.4449,1.3069-1.1033l3.1071-11.0987c.1858-.6584.7128-1.1033,1.3069-1.1033h4.9979" style="fill:none; stroke:#687581; stroke-linecap:round; stroke-linejoin:round; stroke-width:.5px;"/><path d="m53.5249,77.6093l-8.3981-11.3653c-.2614-.3537-.6418-.5571-1.0421-.5571h-1.8371" style="fill:none; stroke:#687581; stroke-miterlimit:10; stroke-width:.5px;"/><path d="m80.9057,79.4082h25.2274c.8781,0,1.7151-.4468,2.2884-1.2227l2.7721-3.7516c.5739-.7767,1.4095-1.2227,2.2884-1.2227h25.011c8.4658,0,9.7606-5.2289,15.9357-5.2289h5.1851" style="fill:none; stroke:#687581; stroke-miterlimit:10; stroke-width:1.5px;"/><path d="m108.2865,77.6093l8.3981-11.3653c.2614-.3537.6418-.5571,1.0421-.5571h1.8371" style="fill:none; stroke:#687581; stroke-miterlimit:10; stroke-width:.5px;"/><path d="m47.6815,73.2113s1.1967,4.8487,3.0322,13.2323" style="fill:none; stroke:#687581; stroke-miterlimit:10; stroke-width:.5px;"/><path d="m139.7726,73.1693c-4.6369,14.7287-7.2106,21.9902-9.8565,26.9591" style="fill:none; stroke:#687581; stroke-miterlimit:10; stroke-width:.5px;"/><path d="m148.5947,32.6418c-.5478,1.862-1.4192,4.8263-2.42,8.2485-.4831,1.6456-1.0051,3.4222-1.5356,5.244.6341-4.9572-3.5588-6.8947-6.9796-8.8876-4.0012-2.3866-6.9793-3.3518-12.6693-3.3518H36.8227c-5.7004,0-8.6755.9693-12.6693,3.3518-3.4164,1.9828-7.605,3.9204-6.9839,8.8625-.5306-1.8118-1.0482-3.5782-1.5314-5.2188-1.0051-3.4222-1.8722-6.3864-2.42-8.2485-1.4365-4.8816-.6341-6.316,1.8506-8.8826,3.0929-3.2108,9.4901-9.3909,17.5395-14.7557,4.4647-2.9793,5.6638-3.7795,48.296-3.7795s43.8356.8002,48.3003,3.7795c8.0493,5.3647,14.4422,11.5448,17.5394,14.7557,2.4804,2.5666,3.2828,4.001,1.8506,8.8826Z" style="fill:none; stroke:#687581; stroke-miterlimit:10; stroke-width:.5px;"/></g><g id="uuid-8d069e6a-657b-4293-9d6a-6d8372d1a3d4"><path d="m80.9134,41.4124c-12.8424,0-20.7255.0815-24.5025.3316-1.4534.0962-2.5757,1.2496-2.3398,3.3015l.5494,4.778c.1866,1.6233,1.0798,2.3393,2.2235,2.4343,2.8063.2331,17.4737.2559,32.188.2559" style="fill:none; stroke:#687581; stroke-miterlimit:10; stroke-width:.5px;"/><path d="m89.0321,51.1992c7.755-.0188,13.8368-.0763,15.8426-.2426.3127-.0264.8951-.0748,1.0339-1.2822l.5495-4.7782c.0735-.6386-.0276-1.1436-.2925-1.4612-.2425-.2908-.5884-.3711-.8358-.3877-3.5283-.2334-10.6022-.3286-24.4164-.3286" style="fill:none; stroke:#687581; stroke-miterlimit:10; stroke-width:.5px;"/><path d="m80.9134,42.7186c-13.8142,0-20.8881.0952-24.4164.3286-.2474.0166-.5933.0969-.8358.3877-.2649.3176-.366.8227-.2925,1.4612l.5495,4.7782c.1388,1.2074.7213,1.2559,1.0339,1.2822,2.7424.2275,9.4071.2513,23.9613.2513.6996,0,7.455,0,8.1186-.0002" style="fill:none; stroke:#687581; stroke-miterlimit:10; stroke-width:.5px;"/><path d="m80.9134,41.4124c12.8424,0,20.7255.0815,24.5025.3316,1.4534.0962,2.5757,1.2496,2.3398,3.3015l-.5494,4.778c-.1866,1.6233-1.0798,2.3393-2.2235,2.4343-2.0677.1718-8.0504.2294-15.9507.2478" style="fill:none; stroke:#687581; stroke-miterlimit:10; stroke-width:.5px;"/><line x1="79.1088" y1="45.8716" x2="84.1382" y2="45.8716" style="fill:none; stroke:#687581; stroke-linecap:round; stroke-linejoin:round; stroke-width:.5px;"/><line x1="79.1163" y1="47.1122" x2="84.1334" y2="47.1122" style="fill:none; stroke:#687581; stroke-linecap:round; stroke-linejoin:round; stroke-width:.5px;"/><line x1="79.1236" y1="48.3468" x2="84.1287" y2="48.3468" style="fill:none; stroke:#687581; stroke-linecap:round; stroke-linejoin:round; stroke-width:.5px;"/><path d="m96.806,46.8197h-.4082c.024-.2123-.113-.3264-.3263-.3264s-.3574.1078-.3811.2915c-.0253.1963.1181.2597.4293.3673.4986.1612.6738.338.6307.6664-.0544.4129-.4244.6522-.889.6522-.5546,0-.8167-.2867-.7705-.7026h.4074c-.0253.2522.1189.3909.4071.3909.2559,0,.4104-.1324.4342-.3152.0222-.1703-.1066-.262-.4426-.3694-.4268-.1326-.6654-.2971-.6188-.6609.0463-.3612.3605-.6374.8454-.6374.4558,0,.7235.219.6823.6437Z" style="fill:#687581; stroke-width:0px;"/><path d="m99.6739,47.3228c-.0903.6596-.6939,1.1479-1.4501,1.1479-.7601,0-1.2357-.4883-1.1487-1.1479.087-.6583.6941-1.1467,1.4576-1.1467.7596,0,1.2315.4884,1.1412,1.1467Zm-2.1766,0c-.0624.4704.2442.8204.7705.8204.5225,0,.9235-.35.9875-.8204.0639-.4681-.243-.8167-.7671-.8167-.528,0-.9285.3486-.9908.8167Z" style="fill:#687581; stroke-width:0px;"/><path d="m101.6106,46.8197h-.4082c.026-.2123-.1099-.3264-.3232-.3264s-.3584.1078-.3838.2915c-.0272.1963.1156.2597.4259.3673.497.1612.6706.338.6245.6664-.0583.4129-.4305.6522-.8951.6522-.5546,0-.8141-.2867-.7639-.7026h.4074c-.0276.2522.1152.3909.4034.3909.2559,0,.4116-.1324.4372-.3152.0238-.1703-.1041-.262-.4392-.3694-.4255-.1326-.6626-.2971-.6126-.6609.0497-.3612.3665-.6374.8513-.6374.4558,0,.7214.219.6762.6437Z" style="fill:#687581; stroke-width:0px;"/><line x1="72.622" y1="51.1989" x2="72.2982" y2="42.7432" style="fill:none; stroke:#687581; stroke-miterlimit:10; stroke-width:.5px;"/><line x1="89.4734" y1="42.7312" x2="89.1616" y2="51.1989" style="fill:none; stroke:#687581; stroke-miterlimit:10; stroke-width:.5px;"/><path d="m72.1686,41.4124c-7.8147.0239-12.9527.1195-15.7847.3107-1.4458.0956-2.5571,1.2427-2.3301,3.286l.5497,4.7677c.1912,1.6131,1.0754,2.3301,2.2106,2.4137,1.7207.1434,7.8744.2151,15.7727.239l-.4182-11.017Z" style="fill:#f4ae3d; stroke:#141b21; stroke-linecap:round; stroke-linejoin:round;"/><path d="m72.539,51.1389c-8.902-.0119-13.4665-.0597-15.6174-.239-.3107-.0239-.8842-.0717-1.0276-1.2785l-.5497-4.7557c-.0717-.6452.0358-1.1471.2987-1.4578.239-.2868.5855-.3704.8245-.3824,2.7005-.1792,7.4681-.2868,15.7488-.3107" style="fill:none; stroke:#141b21; stroke-miterlimit:10; stroke-width:.5px;"/><polygon points="64.0253 44.1005 60.4614 49.7405 68.343 49.7533 64.0253 44.1005" style="fill:none; stroke:#141b21; stroke-miterlimit:10; stroke-width:.5px;"/><polygon points="64.1699 46.2672 62.7165 48.5051 65.9225 48.5103 64.1699 46.2672" style="fill:none; stroke:#141b21; stroke-miterlimit:10; stroke-width:.5px;"/></g></svg>