<svg xmlns="http://www.w3.org/2000/svg" xmlns:xlink="http://www.w3.org/1999/xlink" width="324.248" height="161.749" viewBox="0 0 324.248 161.749"><defs><clipPath id="b0559fa6-737d-4be1-a315-1f4e40c43dd6"><rect x="13.894" y="42.829" width="73.944" height="79.101" style="fill:none"/></clipPath></defs><g id="a5337b3c-4394-4681-9037-180335484d51" data-name="below"><path d="M49.841-.759Q58.243.66,66.62,2.194L75,3.723l2.092.4a7.512,7.512,0,0,1,2.149.682,4.581,4.581,0,0,1,1.721,1.572,5.636,5.636,0,0,1,.777,2.164,15.649,15.649,0,0,1-.191,4.375l-.531,4.224-1.1,8.443L77.632,42.454l0-.063a5.442,5.442,0,0,1-.858,2.95,3.826,3.826,0,0,1-2.6,1.62l-5.684.984L57.1,49.805l11.3-2.348,5.66-1.123a3.14,3.14,0,0,0,2.124-1.384,4.733,4.733,0,0,0,.67-2.53v-.038l0-.025,2.1-16.911L80.049,17l.565-4.222a14.8,14.8,0,0,0,.225-4.1,3.957,3.957,0,0,0-2.014-3.1,6.63,6.63,0,0,0-1.892-.609l-2.088-.42L66.5,2.81Q58.157,1.1,49.841-.759Z" style="fill:#404d59"/><path d="M55.733-7.61,83.825-.759S90.539.627,89.991,7.128,86.7,39.335,86.017,46.077,84.784,84.657,84.51,88.95s.034,9.251-3.135,11.774" style="fill:none;stroke:#404d59;stroke-miterlimit:10;stroke-width:0.5px"/><polygon points="81.531 100.92 39.564 135.038 81.219 100.528 81.531 100.92" style="fill:#404d59"/><polygon points="85.164 70.983 38.605 95.71 84.928 70.543 85.164 70.983" style="fill:#404d59"/><path d="M88.921,2.6s18.307-1.435,24.967-4.587,10.435-5.481,15.879-5.618S276.488-8.98,276.488-8.98" style="fill:none;stroke:#404d59;stroke-miterlimit:10;stroke-width:0.5px"/><path d="M123,6.446a38.076,38.076,0,0,1,4.813-.764c7.674-.822,50.427-1.234,55.634-1.234s6.863,3.837,6.446,6.715-4.8,22.747-5.487,25.076-2.877,6.167-8.77,6.578-32.75.822-32.75.822" style="fill:none;stroke:#404d59;stroke-miterlimit:10"/><path d="M116.614,2.926c.775-.138,1.584-.25,2.427-.331,10.551-1.024,63.73-1.024,70.85-.75s10.683,2.466,8.9,12.333-6.44,30.009-6.44,30.009" style="fill:none;stroke:#404d59;stroke-miterlimit:10;stroke-width:0.5px"/><path d="M92.868,76.663c.96-30.558,6.3-54.538,8.359-60.978a18.213,18.213,0,0,1,4.163-7.14" style="fill:none;stroke:#404d59;stroke-miterlimit:10;stroke-width:0.5px"/><path d="M182.109,40.111c6.406,5.172,8,6.405,13.78,6.543s25.513.685,25.513.685" style="fill:none;stroke:#404d59;stroke-miterlimit:10;stroke-width:0.5px"/><path d="M228.117,72.689H219.9s-5.892-10.277-8.5-13.7a16.505,16.505,0,0,0-12.153-6.851c-5.849-.548-53.189-1.508-53.189-1.508" style="fill:none;stroke:#404d59;stroke-miterlimit:10;stroke-width:0.5px"/><path d="M219.9,72.689s-.959,2.056-1.508,2.33a213.484,213.484,0,0,1-27.8,2.388h-34" style="fill:none;stroke:#404d59;stroke-miterlimit:10;stroke-width:0.5px"/><path d="M101.629,50.291a12.429,12.429,0,0,0-.676,1.981c-1.1,4.248-2.379,19.047-2.242,24.391" style="fill:none;stroke:#404d59;stroke-miterlimit:10;stroke-width:0.5px"/><polyline points="128.77 76.663 92.868 76.663 92.868 90.841 83.229 99.281" style="fill:none;stroke:#404d59;stroke-miterlimit:10;stroke-width:0.5px"/><path d="M80.7,5.684a25.777,25.777,0,0,0,3.9-.692,18.753,18.753,0,0,0,1.876-.584c.625-.214,1.215-.505,1.836-.773a8.7,8.7,0,0,1-3.586,1.841A9.489,9.489,0,0,1,80.7,5.684Z" style="fill:#404d59"/><path d="M86.4,42.382c5.793.367,6.723.463,9.123.287a49.461,49.461,0,0,0,5.579-.959" style="fill:none;stroke:#404d59;stroke-miterlimit:10;stroke-width:0.5px"/><path d="M86.479,44.027a12.823,12.823,0,0,1-.517,2.9A5.427,5.427,0,0,1,84.3,49.405a7.021,7.021,0,0,1-2.642,1.345l-2.779.842-11.1,3.355L45.576,61.658l22.136-6.951L78.783,51.23l2.762-.87a6.59,6.59,0,0,0,2.474-1.288,4.968,4.968,0,0,0,1.5-2.294,12.377,12.377,0,0,0,.465-2.8Z" style="fill:#404d59"/><line x1="92.868" y1="90.841" x2="113.173" y2="90.841" style="fill:none;stroke:#404d59;stroke-miterlimit:10;stroke-width:0.5px"/><line x1="158.14" y1="90.841" x2="233.533" y2="90.841" style="fill:none;stroke:#404d59;stroke-miterlimit:10;stroke-width:0.5px"/></g><g id="aba4e516-948e-41ea-a210-0b34caa704f2" data-name="illustration"><path d="M156.727,100.724c-.457,1.674-1.3,5.145-2.277,9.2" style="fill:none;stroke:#687581;stroke-miterlimit:10;stroke-width:1.5px"/><path d="M227.084,118.023c-.774-2.874-6.19-12.822-9.285-15.751-4.477-4.146-11.5-5.14-18.9-4.588s-28.739,3.04-36.974,5.085c0,0-.5-1.934-5.2-2.045,1.908-5.769,1.935-15.53-1.216-25.921s-12.1-30.066-14.148-33.879-5.085-8.069-7.517-8.567-3.537-.774-3.537-.774v-.718s3.979.332,5.14-2.764-.332-15.143-.663-16.691-1.447-2.862-3.658-3.691a8.93,8.93,0,0,0-7.4.541" style="fill:none;stroke:#687581;stroke-miterlimit:10;stroke-width:1.5px"/><path d="M160.936,121.187l-2.237-1.164a1.432,1.432,0,0,1-.361-1.865c.6-1.177,5.517-8.039,5.517-8.039s.325-.568,1.543.244,3.491,2.357,3.491,2.357,1.056.728.69,1.459-3.63,6.151-3.63,6.151" style="fill:none;stroke:#687581;stroke-linecap:round;stroke-linejoin:round;stroke-width:0.5px"/><path d="M158.7,117.55a2.217,2.217,0,0,1,.322-1.643c.673-1.023,3.939-5.91,4.426-6.559a1.335,1.335,0,0,1,1.949-.244c.649.487,3.654,2.6,3.654,2.6a1.141,1.141,0,0,1,.407,1.593" style="fill:none;stroke:#687581;stroke-linecap:round;stroke-linejoin:round;stroke-width:0.5px"/><path d="M163.855,110.119c-.041.893-.115,1.178.632,1.746s3.793,2.5,3.793,2.5a1.008,1.008,0,0,0,1.3-.188" style="fill:none;stroke:#687581;stroke-linecap:round;stroke-linejoin:round;stroke-width:0.5px"/><line x1="159.927" y1="114.526" x2="161.923" y2="102.769" style="fill:none;stroke:#687581;stroke-linecap:round;stroke-linejoin:round;stroke-width:0.5px"/><path d="M158.672,116.911a11.8,11.8,0,0,0-5.351-2.252" style="fill:none;stroke:#687581;stroke-linecap:round;stroke-linejoin:round;stroke-width:0.5px"/><path d="M174.982,100.724c-3.293.434-8.976,2.922-9.44,4.873a23.3,23.3,0,0,0-.561,3.194" style="fill:none;stroke:#687581;stroke-linecap:round;stroke-linejoin:round;stroke-width:0.5px"/><path d="M169.811,114.135c2.61.756,5.413.806,11.317.232s23.589-2.94,31.005-3.33,9.976.366,11.074.853c0,0,1.315.387.423-1.161" style="fill:none;stroke:#687581;stroke-linecap:round;stroke-linejoin:round;stroke-width:0.5px"/><path d="M174.812,114.755c-2.291-.1-2.928-1.1-2.854-2.432s.122-2.924.219-3.532.22-2.438,7.464-4.292,25-3.268,29.32-3.415,8.372.261,9.985,2.453" style="fill:none;stroke:#687581;stroke-linecap:round;stroke-linejoin:round;stroke-width:0.5px"/><path d="M130.309,30.865s-5.416-.171-6.23-.938" style="fill:none;stroke:#687581;stroke-miterlimit:10;stroke-width:1.5px"/><line x1="130.309" y1="31.583" x2="122.478" y2="31.818" style="fill:none;stroke:#687581;stroke-miterlimit:10;stroke-width:1.5px"/><path d="M124.216,8.2c1.751-.815,7.1-1.019,7.3,2.531s.592,15.051.723,16.464.511,2.572,3,1.385" style="fill:none;stroke:#687581;stroke-miterlimit:10;stroke-width:0.5px"/><path d="M124.353,11.446c.98-1.605,5.055-1.21,5.055.6s.394,14.263.493,15.676.44,3.272,2.225,3" style="fill:none;stroke:#687581;stroke-miterlimit:10;stroke-width:0.5px"/><path d="M124.939,16.171a28.561,28.561,0,0,1,0-3.4c.131-.723.576-1.019,1.454-1.019h.879a1.181,1.181,0,0,1,1.183,1.216c-.033,1.183.361,9.366.361,10.056s-.2,1.282-1.248,1.282h-2.109" style="fill:none;stroke:#687581;stroke-miterlimit:10;stroke-width:0.5px"/><path d="M126,21.173l.157-6.47s.078-.6.406-.629l.327-.026a.527.527,0,0,1,.5.6v6.237c0,.522-.026.757-.341.783S125.986,21.855,126,21.173Z" style="fill:none;stroke:#687581;stroke-miterlimit:10;stroke-width:0.5px"/><path d="M137.873,52.943c-2.134-6.132-4.268-12.3-4.388-14.612s.322-2.431,1.006-2.713l1.178-.483s1.746-.635,3.451,2.092" style="fill:none;stroke:#687581;stroke-miterlimit:10;stroke-width:0.5px"/><path d="M127.194,34.285s-.012-.841,1.046-1,3.473-.684,3.473-.684,2.343-.68,3.7.51" style="fill:none;stroke:#687581;stroke-miterlimit:10;stroke-width:0.5px"/><path d="M139.572,56.662c-1.691-5.607-2.348-8.095-2.312-8.973s-.208-1.074.719-1.8,1.512-.635,2.1.536,2.147,5.387,3.61,6.523,3.4,3.264,4.626,3.127" style="fill:none;stroke:#687581;stroke-miterlimit:10;stroke-width:0.5px"/><path d="M137.481,49.214l1.278-.6a3.287,3.287,0,0,1,2.566.6" style="fill:none;stroke:#687581;stroke-miterlimit:10;stroke-width:0.5px"/><path d="M137.481,46.351c.5-.467,1.194-.674,2.6,2.283" style="fill:none;stroke:#687581;stroke-miterlimit:10;stroke-width:0.5px"/><path d="M142.465,63.154c.148-1.9,1.319-2,2.636-.244s10.57,20.333,12.237,35.535" style="fill:none;stroke:#687581;stroke-miterlimit:10;stroke-width:0.5px"/><path d="M121.343,32.624h7.243a15.9,15.9,0,0,0,1.985-.167c.723-.138,1.829-.4,1.829-.4" style="fill:none;stroke:#687581;stroke-miterlimit:10;stroke-width:0.5px"/><path d="M129.3,129.622c5.2-4.311,15.433-6.735,19.247,4.1s4.476,12.712,4.476,12.712c.829,1.547,3.151,2.653,5.527,2.653h4.588s1.215.276,1.215,1.216" style="fill:none;stroke:#aebbc7;stroke-miterlimit:10;stroke-width:0.5px"/><path d="M143.076,145.837l2.211,8.5s.11,1.327,2.266,1.327h16.8a2.767,2.767,0,0,0,2.543,2.155c2.045,0,41.838-.939,47.475-1.271s13.707-2.045,19.455-5.693a42.346,42.346,0,0,0,4.7-11.164c-1.6-5.914-10.058-20.228-11.44-21.665" style="fill:none;stroke:#aebbc7;stroke-miterlimit:10;stroke-width:1.5px"/><path d="M120.8,138.97s2.487.884,5.25-1.769,3.925-3.869,6.8-6.411,9.949-3.814,12.546,2.653,4.7,12.325,4.7,12.325" style="fill:none;stroke:#aebbc7;stroke-miterlimit:10;stroke-width:0.5px"/><path d="M163.6,155.661c-.012-2.931.08-5.861.192-8.791l0-.081.01-.043a4.932,4.932,0,0,0,.172-1.318,1.322,1.322,0,0,0-.1-.5c-.055-.086-.054-.107-.221-.1l-2.944.322c-1.984.232-3.972.434-5.959.625,1.952-.424,3.9-.837,5.857-1.219l2.965-.584a1.211,1.211,0,0,1,.582.056,1.175,1.175,0,0,1,.492.4,2.085,2.085,0,0,1,.309.922,5.907,5.907,0,0,1-.067,1.652l.014-.123c.112,2.93.2,5.86.191,8.791Z" style="fill:#aebbc7"/><path d="M158.338,121.631s-.13-3.485-6.114-2.36" style="fill:none;stroke:#aebbc7;stroke-linecap:round;stroke-linejoin:round;stroke-width:1.5px"/><line x1="154.045" y1="145.439" x2="158.338" y2="121.631" style="fill:none;stroke:#aebbc7;stroke-linecap:round;stroke-linejoin:round;stroke-width:0.5px"/><path d="M158.338,121.631l7.611-1.3a1.8,1.8,0,0,0,1.171-1.283c8.521-1.709,37.727-4.441,45.143-4.636s12.477.129,14.821,3.612" style="fill:none;stroke:#aebbc7;stroke-linecap:round;stroke-linejoin:round;stroke-width:1.5px"/><path d="M164.487,147.585c10.438-1.821,52-5.922,59.159-6.96,8.976-1.3,15.34,1.371,14.663-1.656" style="fill:none;stroke:#aebbc7;stroke-linecap:round;stroke-linejoin:round;stroke-width:0.5px"/><path d="M228.72,122.574s5.529,9.985,6.439,11.742,1.236,2.341-1.04,2.146-30.9,1.756-52.429,4.944-20.1-5.92-19.969-7.416.845-6.049,1.041-7.155,4.1-7.459,16.977-8.836,26.084-2.417,28.3-2.482S224.036,115.385,228.72,122.574Z" style="fill:none;stroke:#aebbc7;stroke-linecap:round;stroke-linejoin:round;stroke-width:0.5px"/><path d="M227.084,120.648c-9.878-2.2-43.052,1.864-51.7,5.326a6.425,6.425,0,0,0-4.228,5.421,40.054,40.054,0,0,0,0,5.587c.065,1.041,1.886,5.074,11.318,3.578s38.79-6.212,53.187-4.212" style="fill:none;stroke:#aebbc7;stroke-linecap:round;stroke-linejoin:round;stroke-width:0.5px"/><path d="M347.151,155.172s-1.406.112-9.56,1.124-23.843-5.06-23.843-5.06A8.42,8.42,0,0,1,307.9,148.2l-5.848-10.741c1.855-6.747-1.069-21.368-1.069-21.368a15.28,15.28,0,0,0,2.756-2.587,5.182,5.182,0,0,0,.731-3.992c-3.487-11.584-7.123-17.616-9.953-24.18A22.711,22.711,0,0,0,284.226,74.59l-.337-1.856a4.708,4.708,0,0,0,1.4-5.9s-5.679-12.765-8.1-18.444-11.472-13.046-16.364-14c-.843-1.463-4.105-2.137-4.105-2.137l1.406-.113c3.036-.281,5.4-6.129,5.454-8.885s.394-11.359-.562-16.532-7.029-4.892-11.3-4.5-8.322,3.374-9.166,6.073-1.968,14-1.687,17.714,6.411,5.792,6.411,5.792l-3.171.021c-4.489-1.145-12.569-1.422-12.569-1.422.09-.682-1.078-1.326-1.078-1.326,2.514-.661,2.873-3.648,3.053-5.354a101.294,101.294,0,0,0-.269-11.223c-.27-3.322-5.208-3.681-7.9-3.142a6.045,6.045,0,0,0-4.579,4.309,97.371,97.371,0,0,0-.718,11.762c.09,1.975,4.4,3.648,4.4,3.648s-3.95.661-5.746.857-.628,6.149-.628,6.149,14.993,53.36,16.07,56.143a25.767,25.767,0,0,0,3.053,5.387l8.978,10.3c-.09,1.592,1.706,3.526,1.706,3.526s6.644,8.35,7.811,9.755,2.873,2.635,4.22,2.725c.089,1.706,2.693,4.04,2.693,4.04l25.678,32.321s5,10.194,7.077,11.937l2.081,1.744" style="fill:none;stroke:#404d59;stroke-miterlimit:10;stroke-width:1.5px"/><path d="M283.7,154.5l-6.951-16.426s-1.834-5.208.3-8.188" style="fill:none;stroke:#404d59;stroke-miterlimit:10;stroke-width:1.5px"/><path d="M289.367,123.622c3.093.844,4.925,1.578,7,4.389s5.68,9.447,5.68,9.447" style="fill:none;stroke:#404d59;stroke-miterlimit:10;stroke-width:1.5px"/><path d="M301.424,116.7c-2.224,1.7-4.518,3.262-6.849,4.788-2.347,1.5-4.729,2.941-7.164,4.3a81.128,81.128,0,0,1-7.517,3.682c-1.271.561-2.5,1.143-3.922,1.616-.441.118-.721.144-.888.2-.13.038-.208.08-.309.341a10.544,10.544,0,0,0-.2,1.974,3.634,3.634,0,0,1-.852-2.1,1.584,1.584,0,0,1,.148-.731,1.643,1.643,0,0,1,.569-.633,4.9,4.9,0,0,1,1.088-.424c1.192-.457,2.455-1.088,3.692-1.7,2.5-1.173,4.915-2.442,7.3-3.813,2.4-1.341,4.76-2.759,7.085-4.235,2.334-1.457,4.651-2.966,6.933-4.486Z" style="fill:#404d59"/><path d="M218.7,29.927s23.312,3.811,26.1,4.485,4.716,2.6,6.737,6.255,3.368,9.238,4.33,11.836,17.225,71.884,18.957,76.792" style="fill:none;stroke:#404d59;stroke-miterlimit:10;stroke-width:0.5px"/><path d="M283.889,72.734s-10.97.767-22.862.565" style="fill:none;stroke:#404d59;stroke-miterlimit:10;stroke-width:0.5px"/><path d="M284.226,74.59s-6.82,2.022-22.591,1.227" style="fill:none;stroke:#404d59;stroke-miterlimit:10;stroke-width:0.5px"/><path d="M281.365,75.167c5.588,3.607,8.09,5.243,11.458,12.364s8.158,16.334,10.142,26.836" style="fill:none;stroke:#404d59;stroke-miterlimit:10;stroke-width:0.5px"/><path d="M244.11,31.818c-1.038.284-1.519.573.887,1.15s6.64.643,9.046.9,6.79.517,6.79.517c5.848,2.772,10.435,6.668,15.631,19.178s5.962,15.108,5.962,15.108,1.645,3.458-.474,4.183" style="fill:none;stroke:#404d59;stroke-miterlimit:10;stroke-width:0.5px"/><line x1="247.281" y1="31.797" x2="256.728" y2="32.247" style="fill:none;stroke:#404d59;stroke-miterlimit:10;stroke-width:1.5px"/><path d="M240.87,26.005c.468,1.529.759,2.633,3.165,2.441s3.079.218,3.945-2.441a26.961,26.961,0,0,0,1.155-8.048c0-2.406-.1-8.879.385-10.791s1.539-4.029,5.581-4.029,8.056.52,7.925,3.58" style="fill:none;stroke:#404d59;stroke-miterlimit:10;stroke-width:0.5px"/><path d="M254.969,9.19s-.322,11.558-.376,12.58.269,2.1,1.505,2.1h2.581a1.253,1.253,0,0,0,1.343-1.344c.054-1.451-.161-11.289-.268-13.063,0,0,0-1.613-1.4-1.667s-2.312,0-2.312,0A1.356,1.356,0,0,0,254.969,9.19Z" style="fill:none;stroke:#404d59;stroke-miterlimit:10;stroke-width:0.5px"/><path d="M227.643,14.336s-.21,7.506-.245,8.169.175,1.362.978,1.362h1.676a.814.814,0,0,0,.872-.873c.035-.943-.1-7.331-.174-8.483,0,0,0-1.048-.908-1.082s-1.5,0-1.5,0A.879.879,0,0,0,227.643,14.336Z" style="fill:none;stroke:#404d59;stroke-miterlimit:10;stroke-width:0.5px"/><path d="M220.4,26.371c1.29.828,2.687,1.419,2.9-.731s.322-10.59.645-12.2a4.054,4.054,0,0,1,3.6-3.548c2.151-.108,4.21-.22,5.519,1.8" style="fill:none;stroke:#404d59;stroke-miterlimit:10;stroke-width:0.5px"/><path d="M224.448,29.07a30.68,30.68,0,0,0,6.015,0" style="fill:none;stroke:#404d59;stroke-miterlimit:10;stroke-width:1.5px"/><path d="M295.71,87.985a64.854,64.854,0,0,1,14.952,6c7.563,4.249,8.97,5.48,8.97,5.48a139.624,139.624,0,0,1,27.519,14.9" style="fill:none;stroke:#404d59;stroke-miterlimit:10;stroke-width:1.5px"/><path d="M244.584,106.08s1.282,15.328,1.347,16.624,2.009,3.112,4.667,3.176l2.658.065" style="fill:none;stroke:#404d59;stroke-miterlimit:10;stroke-width:1.5px"/><path d="M247.881,111.432a15.984,15.984,0,0,0,2.328,7.253c.648.713,3.047,4.6,3.047,4.6l.777,11.409s4.019,7.018,4.732,7.658a9.581,9.581,0,0,0,4.6,1.288c1.62.065,3.565,0,3.565,0" style="fill:none;stroke:#404d59;stroke-miterlimit:10;stroke-width:1.5px"/><path d="M266.668,133.067l.913,19.974a10.218,10.218,0,0,0,1.232,2.917c.972,1.62,5.42,8.038,5.42,8.038a10.288,10.288,0,0,0,5.6,1.685c3.439.065,7.779,0,7.779,0a2.948,2.948,0,0,0,2.7-1.449" style="fill:none;stroke:#404d59;stroke-miterlimit:10;stroke-width:1.5px"/><path d="M313.748,151.236c12.329,1.978,16.986,2.6,23.119,1.047S344.4,150.5,344.4,150.5" style="fill:none;stroke:#404d59;stroke-miterlimit:10;stroke-width:0.5px"/><path d="M295.71,158.7s-8.754-15.806-9.685-18.523-.233-4.58,2.018-5.822,4.967-1.319,6.83,1.785,8.228,15.835,9.16,17.388,1.63,6.442-1.553,8S296.95,160.949,295.71,158.7Z" style="fill:none;stroke:#404d59;stroke-miterlimit:10;stroke-width:0.5px"/><path d="M288.283,160.273s-6.217-15.176-7.614-19.384-.259-8.477,4.955-11.272,10.42-1.251,13.949,3.45" style="fill:none;stroke:#404d59;stroke-miterlimit:10;stroke-width:0.5px"/><path d="M344.4,141.726s-4.346,1.32-12.729,3.726-15.99.466-18.4-1.2-9.47-8.577-9.47-8.577-1.226-1.119-1.187-2.072c0,0-.21-2.686,4.292-4.809s25.3-9.187,36.715-11.981" style="fill:none;stroke:#404d59;stroke-miterlimit:10;stroke-width:0.5px"/><path d="M301.656,120.023c8.664-2.592,23.424-7.25,27.415-8.336s10.446-1.725,14.942.535" style="fill:none;stroke:#404d59;stroke-miterlimit:10;stroke-width:0.5px"/><path d="M301.656,115.505c12.312-4.129,20.695-6.613,24.654-7.311s7.871-1.317,10.844-.193" style="fill:none;stroke:#404d59;stroke-miterlimit:10;stroke-width:0.5px"/><path d="M300.983,99.588s12.2-4.659,18.649-.122" style="fill:none;stroke:#404d59;stroke-miterlimit:10;stroke-width:0.5px"/><path d="M259.912,123.912l-4.514-16.53s-.764-3.957-3.394-5.722c0,0-2.421-1.454-1.487,2.284s5.175,17.243,5.175,17.243" style="fill:none;stroke:#404d59;stroke-miterlimit:10;stroke-width:0.5px"/><path d="M252,101.66l-17.48-66.589s-.62-1.693.365-2.447" style="fill:none;stroke:#404d59;stroke-miterlimit:10;stroke-width:0.5px"/><path d="M246.175,107.906,241.7,94.222s-1.726-4.175-2.892-5.053c0,0-1.412-1.186-.666,1.97s3.69,11.788,3.69,11.788" style="fill:none;stroke:#404d59;stroke-miterlimit:10;stroke-width:0.5px"/><path d="M238.811,89.169l-13.742-56.2s-.445-1.425.044-2.085" style="fill:none;stroke:#404d59;stroke-miterlimit:10;stroke-width:0.5px"/><path d="M163.885,149.035a1.688,1.688,0,0,0-.619-.317,3.473,3.473,0,0,0-.416-.1,3.081,3.081,0,0,0-.42-.058h.06l-3.833,0c-.66-.009-1.231.024-1.963-.021a4.283,4.283,0,0,1-2.147-.783,5.258,5.258,0,0,1-1.461-1.673c-.087-.161-.171-.323-.246-.5-.035-.081-.078-.189-.107-.274l-.079-.225-.318-.9-1.27-3.592-2.54-7.184c-.2-.613-.437-1.175-.674-1.73l-.35-.841-.446-.781c-.153-.256-.284-.53-.454-.773l-.541-.7a8.925,8.925,0,0,0-1.21-1.262,7.946,7.946,0,0,0-6.525-1.621,12.785,12.785,0,0,0-1.74.4,16.845,16.845,0,0,0-4.8,2.51,53.34,53.34,0,0,0-5.556,5.02,43.136,43.136,0,0,0-4.781,5.718l-.006.009-.155.237-.234.076a1.9,1.9,0,0,0-.542.377,6.556,6.556,0,0,0-.595.621,13.956,13.956,0,0,0-1.073,1.456l.114-.4v2.984l0,.063c0-.059.014.071.039.1a.453.453,0,0,0,.119.145,1.293,1.293,0,0,0,.579.225,16.3,16.3,0,0,0,1.905.032l4.07-.038,8.141-.076,16.282-.15.506,0,.2.474a10.678,10.678,0,0,0,2.125,3.318,7.7,7.7,0,0,0,3.212,2.087,6.557,6.557,0,0,0,1.87.31l2.11.006h4.246v1.5h-4.246l-2.136-.006a8.079,8.079,0,0,1-2.3-.382,9.219,9.219,0,0,1-3.84-2.48,12.189,12.189,0,0,1-2.429-3.792l.7.47-16.29.15-8.145.076-4.073.038a15.733,15.733,0,0,1-2.161-.054,2.742,2.742,0,0,1-1.279-.547,1.863,1.863,0,0,1-.7-1.525l0,.061v-3.205l.115-.178a15.519,15.519,0,0,1,1.2-1.632,8.161,8.161,0,0,1,.733-.763,3.224,3.224,0,0,1,1.049-.677l-.389.312.006-.01a44.3,44.3,0,0,1,4.935-6.006,54.689,54.689,0,0,1,5.712-5.23,17.717,17.717,0,0,1,3.423-2.023,17.935,17.935,0,0,1,1.867-.725,14.451,14.451,0,0,1,1.973-.446,9.553,9.553,0,0,1,7.78,1.988A15.171,15.171,0,0,1,150,132.9l2.524,7.2,1.262,3.6.316.9.079.225.066.169c.049.118.112.238.175.357a3.735,3.735,0,0,0,1.019,1.183,2.751,2.751,0,0,0,1.387.506c.535.036,1.237.011,1.847.02l3.791,0h.059a3.838,3.838,0,0,1,.686.129,3.031,3.031,0,0,1,.643.267,1.9,1.9,0,0,1,.975,1.189Z" style="fill:#aebbc7"/></g><g id="be259926-e3c4-4b85-bef6-71ace966c1fb" data-name="above"><path d="M246.28,127.444c-4.812-15.275-9.183-21.243-10.48-22.681s-3.5-1.643-4.343-1.919-1.484-.07-4.788,1.35c-1.3-2.277-2.5-4.343-3-5.065a3.815,3.815,0,0,0-3.18-1.648s-65.572.305-66.118,1.343a2.574,2.574,0,0,1-1.9,1.162s-9.718.487-13.016.611-4.583,2.018-5.991,4.277-8.186,15.7-9.958,19.19a9.272,9.272,0,0,0-.863,2.5c-.018.071-.029.147-.047.229a7.287,7.287,0,0,0,1.919,6.567l.328.317a60.984,60.984,0,0,1,5.47-5.153c5.2-4.313,14.594-6.965,18.408,3.867,1.426,4.061,2.412,6.866,3.087,8.785l.164-.07a1.879,1.879,0,0,0,1.72,1.168c.915.123,9.107-.306,13.015-.429s23.772-3.3,25.058-3.48a1.869,1.869,0,0,0,1.59-1.1c0,.37,1.162.552,1.162.552s22.487-4.032,26.031-4.889,6.966-4.524,8.128-7.03a29.653,29.653,0,0,0,1.326-3.679s3.967,7.4,5.252,9.818,4.413,1.913,5.287,1.7a17.68,17.68,0,0,0,3.867-1.954C245.576,131.029,246.744,128.911,246.28,127.444Z" style="fill:#12171d;opacity:0.79"/><path d="M124.788,133.36c-2.171-2.041-2.785-5.813-1.013-9.3s8.556-16.928,9.961-19.189,2.689-4.155,5.989-4.278,13.017-.611,13.017-.611a2.569,2.569,0,0,0,1.894-1.161c.55-1.039,66.121-1.344,66.121-1.344a3.819,3.819,0,0,1,3.178,1.65c1.222,1.772,6.661,11.55,7.333,12.894a6.051,6.051,0,0,1,.428,4.889,62.327,62.327,0,0,1-2.75,8.983c-1.161,2.506-4.583,6.172-8.128,7.028s-26.033,4.889-26.033,4.889-1.161-.184-1.161-.55a1.872,1.872,0,0,1-1.589,1.1c-1.283.183-21.144,3.361-25.055,3.483s-12.1.55-13.016.428a1.887,1.887,0,0,1-1.834-1.528c-.216-.92-3.305-15.243-4.012-18.523a2.764,2.764,0,0,1,.042-1.325l.265-.942a.264.264,0,0,0-.265-.337c-2.575.121-17.944.843-19.007.9-1.161.061-5.607,2.21-6.313,6.432" style="fill:none;stroke:#f4ae3d;stroke-miterlimit:10;stroke-width:1.5px"/><path d="M193.141,137.135l4.775-16.2,0-.009.008-.011a1.374,1.374,0,0,0,.2-.845,3.43,3.43,0,0,0-.16-.895,3.481,3.481,0,0,1,.209.892,1.43,1.43,0,0,1-.172.912l.01-.019-3.9,16.432Z" style="fill:#f4ae3d"/><path d="M148.062,121.681l50.09-1.536s24.072-.481,26.211-.97a14.039,14.039,0,0,0,4.705-1.772c1.1-.734,1.956-1.406,1.956-1.406A4.587,4.587,0,0,0,231.7,113" style="fill:none;stroke:#f4ae3d;stroke-miterlimit:10;stroke-width:0.5px"/><path d="M218.984,98.349s2.568-.013,3.423,1.148,6.111,11,6.539,11.917.856,2.261,0,3.3-3.3,3.116-5.439,3.422-66.671,2.2-66.671,2.2a1.516,1.516,0,0,1-1.283-.733c-.367-.734-.55-1.161-.55-1.161s-.428-.917-2.078-.795-17.844.672-19.005.733-2.2-.183-1.345-1.894,5.745-12.283,6.233-13.2,1.345-1.65,3.239-1.711,14.972-.794,14.972-.794,2.078-.245,2.384-.8a1.552,1.552,0,0,1,1.65-1.039C162.4,99.009,218.984,98.349,218.984,98.349Z" style="fill:none;stroke:#f4ae3d;stroke-miterlimit:10;stroke-width:0.5px"/><path d="M226.934,104.194c3.3-1.418,3.939-1.623,4.786-1.349s3.04.479,4.342,1.918,5.674,7.4,10.483,22.679c.462,1.469-.7,3.59-1.867,4.339a17.808,17.808,0,0,1-3.868,1.955c-.874.208-3.994.707-5.283-1.706s-5.255-9.816-5.255-9.816" style="fill:none;stroke:#f4ae3d;stroke-miterlimit:10;stroke-width:1.5px"/><path d="M231.72,102.845s5.346,8.013,7.218,12.5,4.409,11.564,4.7,12.4.374,2.454-.624,2.953-2.662,1.29-2.662,1.29-1.5.665-2.163-.416-6.6-14.231-6.6-14.231" style="fill:none;stroke:#f4ae3d;stroke-miterlimit:10;stroke-width:0.5px"/><path d="M234.767,120.605s3.422,8.139,3.8,8.971.874,1.581,1.747,1.165,1.872-.874,1.872-.874.915-.3.5-1.648-3.286-8.543-3.618-9.375-.874-1.164-1.623-.873-2.19,1.1-2.19,1.1A1.341,1.341,0,0,0,234.767,120.605Z" style="fill:none;stroke:#f4ae3d;stroke-miterlimit:10;stroke-width:0.5px"/><path d="M237.973,120.6l3.079,7.514s.213.731-.15.926l-.363.195a.66.66,0,0,1-.875-.441l-3.142-7.167c-.263-.6-.351-.882,0-1.071S237.649,119.811,237.973,120.6Z" style="fill:none;stroke:#f4ae3d;stroke-miterlimit:10;stroke-width:0.5px"/><path d="M163.885,149.035a1.688,1.688,0,0,0-.619-.317,3.473,3.473,0,0,0-.416-.1,3.081,3.081,0,0,0-.42-.058h.06l-3.833,0c-.66-.009-1.231.024-1.963-.021a4.283,4.283,0,0,1-2.147-.783,5.258,5.258,0,0,1-1.461-1.673c-.087-.161-.171-.323-.246-.5-.035-.081-.078-.189-.107-.274l-.079-.225-.318-.9-1.27-3.592-2.54-7.184c-.2-.613-.437-1.175-.674-1.73l-.35-.841-.446-.781c-.153-.256-.284-.53-.454-.773l-.541-.7a8.925,8.925,0,0,0-1.21-1.262,7.946,7.946,0,0,0-6.525-1.621,12.785,12.785,0,0,0-1.74.4,16.845,16.845,0,0,0-4.8,2.51,53.34,53.34,0,0,0-5.556,5.02,43.136,43.136,0,0,0-4.781,5.718l-.006.009-.155.237-.234.076a1.9,1.9,0,0,0-.542.377,6.556,6.556,0,0,0-.595.621,13.956,13.956,0,0,0-1.073,1.456l.114-.4v2.984l0,.063c0-.059.014.071.039.1a.453.453,0,0,0,.119.145,1.293,1.293,0,0,0,.579.225,16.3,16.3,0,0,0,1.905.032l4.07-.038,8.141-.076,16.282-.15.506,0,.2.474a10.678,10.678,0,0,0,2.125,3.318,7.7,7.7,0,0,0,3.212,2.087,6.557,6.557,0,0,0,1.87.31l2.11.006h4.246v1.5h-4.246l-2.136-.006a8.079,8.079,0,0,1-2.3-.382,9.219,9.219,0,0,1-3.84-2.48,12.189,12.189,0,0,1-2.429-3.792l.7.47-16.29.15-8.145.076-4.073.038a15.733,15.733,0,0,1-2.161-.054,2.742,2.742,0,0,1-1.279-.547,1.863,1.863,0,0,1-.7-1.525l0,.061v-3.205l.115-.178a15.519,15.519,0,0,1,1.2-1.632,8.161,8.161,0,0,1,.733-.763,3.224,3.224,0,0,1,1.049-.677l-.389.312.006-.01a44.3,44.3,0,0,1,4.935-6.006,54.689,54.689,0,0,1,5.712-5.23,17.717,17.717,0,0,1,3.423-2.023,17.935,17.935,0,0,1,1.867-.725,14.451,14.451,0,0,1,1.973-.446,9.553,9.553,0,0,1,7.78,1.988A15.171,15.171,0,0,1,150,132.9l2.524,7.2,1.262,3.6.316.9.079.225.066.169c.049.118.112.238.175.357a3.735,3.735,0,0,0,1.019,1.183,2.751,2.751,0,0,0,1.387.506c.535.036,1.237.011,1.847.02l3.791,0h.059a3.838,3.838,0,0,1,.686.129,3.031,3.031,0,0,1,.643.267,1.9,1.9,0,0,1,.975,1.189Z" style="fill:#aebbc7"/><path d="M152.857,95.6l.569-2.465C152.147,83.544,142.464,63.9,142.464,63.9c-.939-3.216-4.759-11.537-8.1-18.233-1.877-3.756-3.609-7-4.594-8.538a8.43,8.43,0,0,0-2.6-2.793,6.115,6.115,0,0,0-3.087-.992c-2.083-.2-4.853-.364-4.853-.364l-.017-.176h.017a8.51,8.51,0,0,0,1.45-.223c1.854-.346,2.94-1.6,3.755-3.333.036-.076.071-.159.106-.247a17.372,17.372,0,0,0,.628-1.625c.909-2.67-.522-14.9-1.174-18.086s-1.49-3.773-2.922-4.554a27.037,27.037,0,0,0-4.683-1.883c-1.168-.352-8.215-1.021-10.2,3.28a5.6,5.6,0,0,0-.469,1.661,83.676,83.676,0,0,0,0,16.331c.246,2.975.674,6.126,4.823,7.764.2.082.417.158.64.234l-.393,2.148-4.9,1.579c-.828.27-1.544.5-1.931.633a1.939,1.939,0,0,0-.44.218,1.979,1.979,0,0,0-.2.146,7.594,7.594,0,0,0-1.767,3.474,26.97,26.97,0,0,0,0,9.624c.91,3.967,6.895,24.916,6.895,24.916s.264,1.561,1.3,1.82a2.247,2.247,0,0,0-.064,2.018c.451,1.3,14.048,44.622,14.048,44.622s.258,1.561,2.277.781l2.306,6.408q1.074-.995,2.271-1.99c5.029-4.178,13.99-6.8,18.021,2.87.135.317.259.651.382,1,.381-1.144,1.925-7.616,3.562-14.512.645-2.681,1.3-5.428,1.9-7.951C154.923,103.513,152.857,95.6,152.857,95.6Z" style="fill:#12171d;opacity:0.79"/><path d="M125.7,123.419l9.455-4.049,4.73-2.026,2.366-1.013,1.183-.507.592-.253a2.357,2.357,0,0,0,.473-.3,5.371,5.371,0,0,0,.838-.863l.41-.512a1.189,1.189,0,0,1,.746-.472.679.679,0,0,1,.535.218,1.205,1.205,0,0,1,.238.351,3.19,3.19,0,0,1,.228.669,12.4,12.4,0,0,1,.229,1.3c.226,1.712.385,3.421.528,5.135a88.911,88.911,0,0,1,.353,10.294,88.616,88.616,0,0,0-.726-10.257c-.205-1.7-.426-3.4-.711-5.086a11.749,11.749,0,0,0-.261-1.226,2.705,2.705,0,0,0-.2-.541.507.507,0,0,0-.158-.2.845.845,0,0,0-.278.255l-.375.507a6.118,6.118,0,0,1-.918,1.012,3.176,3.176,0,0,1-.6.406l-.583.274-1.164.55-2.329,1.1-4.659,2.2-9.323,4.4Z" style="fill:#aebbc7"/><path d="M109.748,76.684s15.634.083,17.552,0,3.289.281,4.842-2,2.4-4.019,5.175-.822,15.563,29.6,14.923,43.942" style="fill:none;stroke:#aebbc7;stroke-miterlimit:10;stroke-width:0.5px"/><path d="M154.45,109.927c-2.156,8.995-4.93,20.874-5.46,22.466" style="fill:none;stroke:#aebbc7;stroke-miterlimit:10;stroke-width:1.5px"/><path d="M144.223,115.907a216.7,216.7,0,0,0-14.456-38.5" style="fill:none;stroke:#aebbc7;stroke-miterlimit:10;stroke-width:0.5px"/><path d="M154.45,109.927c.475-6.413-1.591-14.325-1.591-14.325l.569-2.467C152.149,83.543,142.465,63.9,142.465,63.9c-1.462-5.025-9.955-22.476-12.7-26.768a8.454,8.454,0,0,0-2.6-2.8,6.135,6.135,0,0,0-3.084-.991c-2.086-.2-4.854-.363-4.854-.363" style="fill:none;stroke:#aebbc7;stroke-miterlimit:10;stroke-width:1.5px"/><path d="M129.036,75.778c-5.025-10.689-10.415-23.479-12.059-27.772s-2.741-10.78.365-11.968a58.154,58.154,0,0,1,7.857-2.1,2.323,2.323,0,0,1,1.964.4" style="fill:none;stroke:#aebbc7;stroke-miterlimit:10;stroke-width:0.5px"/><path d="M131.5,73.4c-4.019-8.953-8.222-19.185-9.683-22.657s-2.467-10.323,0-11.236c1.219-.452,1.969-.747,2.416-.93a3.163,3.163,0,0,1,1.766-.2c1.526.28,4.27,1.492,6.506,6.338,3.289,7.126,8.314,18.271,8.314,18.271" style="fill:none;stroke:#aebbc7;stroke-miterlimit:10;stroke-width:0.5px"/><path d="M128.209,65.9c-2.018-7.034-2.393-10.221-2.2-11.318s.059-1.918,1.131-2.558a19.762,19.762,0,0,1,2.16-1.1s.751-.183,1.705,2.1,2.813,6.3,3.938,7.217,4.872,3.38,4.872,3.38,1.827,1.462,2.649.275" style="fill:none;stroke:#aebbc7;stroke-miterlimit:10;stroke-width:0.5px"/><path d="M126.171,53.455c1.107-.861,2.245-1.938,2.984-.905a15.691,15.691,0,0,1,1.416,2.66" style="fill:none;stroke:#aebbc7;stroke-miterlimit:10;stroke-width:0.5px"/><path d="M132.645,75.253C137,83.9,144.9,103.949,146.5,112.72" style="fill:none;stroke:#aebbc7;stroke-miterlimit:10;stroke-width:0.5px"/><path d="M111.179,32.126s6.344,1.259,9.5.456c2.472-.456,3.578-2.537,4.488-5.2s-.52-14.9-1.171-18.083-1.5-3.773-2.927-4.554a27.142,27.142,0,0,0-4.683-1.886c-1.3-.39-9.887-1.171-10.668,4.944a84.017,84.017,0,0,0,0,16.326c.26,3.123.716,6.44,5.464,8l-.39,2.147s-5.464,1.756-6.83,2.211-2.212,2.6-2.407,3.838a26.894,26.894,0,0,0,0,9.627c.911,3.968,6.895,24.913,6.895,24.913s.26,1.561,1.3,1.822a2.252,2.252,0,0,0-.065,2.016c.455,1.3,14.049,44.623,14.049,44.623s.261,1.561,2.278.78l2.3,6.409" style="fill:none;stroke:#aebbc7;stroke-miterlimit:10;stroke-width:1.5px"/><path d="M106.177,6.15c1.961-2.625,4.035-2.908,7.1-2.672s5.083.051,5.325,5.56c.2,4.615.566,14.7.943,17.672s.565,3.6,1.79,3.686,2.58.234,3.206-1.392" style="fill:none;stroke:#aebbc7;stroke-miterlimit:10;stroke-width:0.5px"/><path d="M110.807,31.583a6.11,6.11,0,0,1-2.1-4.324c-.263-2.662-.131-15.15,0-17.779,0,0,.3-2.228,1.939-2.314a19.173,19.173,0,0,1,2.53,0,2.082,2.082,0,0,1,2.195,1.985c.2,2.1.5,15.939.73,17.746s.469,6,3.127,5.907" style="fill:none;stroke:#aebbc7;stroke-miterlimit:10;stroke-width:0.5px"/><path d="M109.788,23.151s.066-12.488.132-13.178a1.58,1.58,0,0,1,1.249-1.413c.591-.033,1.709,0,1.709,0s1.281-.132,1.38,1.446.23,12.06.23,12.751a1.574,1.574,0,0,1-1.512,1.544c-.953.033-2.037,0-2.037,0S109.783,24.137,109.788,23.151Z" style="fill:none;stroke:#aebbc7;stroke-miterlimit:10;stroke-width:0.5px"/><path d="M111.432,20.325l.2-8.118s.1-.755.509-.788l.411-.033s.624,0,.624.756v7.825c0,.653-.032.949-.427.982S111.411,21.181,111.432,20.325Z" style="fill:none;stroke:#aebbc7;stroke-miterlimit:10;stroke-width:0.5px"/><path d="M126.171,57.362s2.169-1.344,2.661-1.685a3.083,3.083,0,0,1,3.568.452" style="fill:none;stroke:#aebbc7;stroke-miterlimit:10;stroke-width:0.5px"/><path d="M105.887,35.854l8.2.165a6.58,6.58,0,0,0,2.555-.165c.916-.369,3.548-1.132,4.272-1.323,0,0,.649.2.344-.246a1.438,1.438,0,0,0-1.183-.784,12.61,12.61,0,0,0-1.945-.155l-.305-.5" style="fill:none;stroke:#aebbc7;stroke-miterlimit:10;stroke-width:0.5px"/><polyline points="115.806 32.755 115.806 33.346 113.173 33.867 113.173 32.457" style="fill:none;stroke:#aebbc7;stroke-miterlimit:10;stroke-width:0.5px"/><path d="M110.085,34.874c.115.038,4.621,0,4.621,0a10.429,10.429,0,0,0,3.085-.412c1.983-.5,2.955-.738,2.955-.738" style="fill:none;stroke:#aebbc7;stroke-miterlimit:10;stroke-width:0.5px"/><line x1="113.173" y1="33.867" x2="113.173" y2="34.773" style="fill:none;stroke:#aebbc7;stroke-miterlimit:10;stroke-width:0.5px"/><line x1="118.29" y1="34.285" x2="118.134" y2="33.346" style="fill:none;stroke:#aebbc7;stroke-miterlimit:10;stroke-width:0.5px"/><line x1="115.806" y1="33.346" x2="115.806" y2="34.462" style="fill:none;stroke:#aebbc7;stroke-miterlimit:10;stroke-width:0.5px"/><path d="M103.959,36.484l8.011.252a.46.46,0,0,1,.346.748,5.613,5.613,0,0,0-1.031,1.994,1.46,1.46,0,0,1-1.422,1.028l-8.311-.184C102.019,38.733,102.725,36.889,103.959,36.484Z" style="fill:#f4ae3d;stroke:#12171d;stroke-miterlimit:10"/></g><g id="f9c25116-b927-4823-b267-75a21dca253b" data-name="arrows/icons"><path d="M196.99,91.239l-.91-15.158-4.2,4.391c-10.46-8.5-24.252-10.831-39.264-6.519l2.427,8.455c11.835-3.4,22.6-1.8,30.73,4.455l-3.971,4.155Z" style="fill:#f4ae3d;stroke:#12171d;stroke-miterlimit:10;stroke-width:1.5px"/></g><g id="bb4603a0-971f-48b0-ab67-35f4020cee94" data-name="inset frame"><polygon points="89.36 42.458 89.36 58.413 103.462 47.538 89.36 75.558 89.36 125.199 13.594 125.199 13.594 42.458 89.36 42.458" style="fill:#12171d;stroke:#aebbc7;stroke-miterlimit:20;stroke-width:1.5px"/><g style="clip-path:url(#b0559fa6-737d-4be1-a315-1f4e40c43dd6)"><path d="M31.509,109.553a19.824,19.824,0,0,0-.581,7.232c0,2.131.581,7.676.581,7.676" style="fill:none;stroke:#687581;stroke-miterlimit:10"/><path d="M60.439,48.076S45.263,63.7,41.97,67.32a21.206,21.206,0,0,0-5.3,10.074" style="fill:none;stroke:#687581;stroke-miterlimit:10"/><path d="M31.509,109.553s.3-1.2,3.661-.564,19.01,3.585,21.624,4.07,8.777-.261,8.926-7.992,0-14.864,0-17.292.231-6.125-5.281-7.021S38.27,77.467,38.27,77.467a5.446,5.446,0,0,0-1.6-.073,2.408,2.408,0,0,0-1.99,1.791c-.187.9-.411,2.577-.411,2.577a2.812,2.812,0,0,0,.373,2.279,4.216,4.216,0,0,0-.466,1.381c-.131.822-1.961,14.155-1.961,14.155a2.63,2.63,0,0,0,.187,1.681,2.169,2.169,0,0,0-1.238,1.9c-.182,1.009-.518,4.333-.518,4.333A2.358,2.358,0,0,0,31.509,109.553Z" style="fill:#f4ae3d;stroke:#12171d;stroke-miterlimit:10;stroke-width:1.5px"/><path d="M34.647,84.041s.934-1.158,4.482-.673S53.321,85.5,54.441,85.684s2.615.3,2.577,2.577-.635,12.026-.747,13.482-.971,2.876-3.66,2.428-17.329-2.988-17.964-3.063a3.46,3.46,0,0,0-2.24.15" style="fill:none;stroke:#12171d;stroke-miterlimit:10;stroke-width:0.5px"/><path d="M30.911,108.859c-.26-1.364.9-1.887,4.147-1.364s16.806,3.1,20.168,3.7,9.15.9,9.337-7.507.149-16.321,0-17.926-.616-4.458-4.124-5" style="fill:none;stroke:#12171d;stroke-miterlimit:10;stroke-width:0.5px"/><path d="M34.354,83.553c-.342-.969-.08-2.351,2.982-2.015s16.807,2.316,18.151,2.5,2.988.609,2.988,2.228-.262,15.213-.448,16.52-1.27,2.614-4.221,2.129-17.814-2.913-18.636-3.063-3.321-.485-3.661.411" style="fill:none;stroke:#12171d;stroke-miterlimit:10;stroke-width:0.5px"/><path d="M84.414,124.461c-2.407-19.419-5.49-42.148-9.441-54.68" style="fill:none;stroke:#687581;stroke-miterlimit:10"/><path d="M76.389,124.461c-2.778-24.728-4.383-44.3-4.259-53-.247-2.222-.071-2.775-.874-3.7" style="fill:none;stroke:#687581;stroke-miterlimit:10;stroke-width:0.5px"/><path d="M77.686,125.344c-2.778-24.728-4.383-44.3-4.26-53-.247-2.222.025-2.927-.777-3.853" style="fill:none;stroke:#687581;stroke-miterlimit:10;stroke-width:0.5px"/><path d="M65.787,65.657a2.815,2.815,0,0,1,.385.22.756.756,0,0,1,.175.166.294.294,0,0,1,.045.331.726.726,0,0,1-.492.259,3.7,3.7,0,0,1-.458.058,10.671,10.671,0,0,1-1.763-.084c-1.152-.116-2.291-.309-3.425-.538a25.194,25.194,0,0,1-3.359-.934A6.516,6.516,0,0,1,55.3,64.3a2.889,2.889,0,0,1-.649-.652,1.081,1.081,0,0,1-.182-.446.274.274,0,0,1,.085-.243.232.232,0,0,1,.228-.017c-.166-.013-.236.12-.165.228a.919.919,0,0,0,.243.3,2.942,2.942,0,0,0,.7.415,8.564,8.564,0,0,0,1.569.51l3.336.7c1.114.246,2.235.479,3.348.75.568.132,1.1.28,1.653.362a1.831,1.831,0,0,0,.7.021c.044.034-.011-.146-.095-.241A2.737,2.737,0,0,0,65.787,65.657Z" style="fill:#687581"/><path d="M60.863,65.685c2.192-3.177,5.772-4.041,9.723-1.88s5.371,2.963,5.371,2.963" style="fill:none;stroke:#687581;stroke-miterlimit:10"/><path d="M64.689,66.376c1.1-.719,1.607-.885,3.721,0s7.749,4.067,7.749,4.067" style="fill:none;stroke:#687581;stroke-miterlimit:10"/><path d="M78.513,84.208c2.383,1.82,6.7,5.524,13.556,4.845s19.755-2.784,19.755-2.784" style="fill:none;stroke:#687581;stroke-miterlimit:10"/><path d="M78.18,82.526c2.383,1.821,7.037,5.642,13.889,4.962S111.824,84.7,111.824,84.7" style="fill:none;stroke:#687581;stroke-miterlimit:10;stroke-width:0.5px"/><path d="M75.957,65.773a9.578,9.578,0,0,1,.516,2.932,8.172,8.172,0,0,1-.081,1.5,4.11,4.11,0,0,1-.435,1.443c.024-.5,0-.986,0-1.471l-.043-1.453A26.7,26.7,0,0,1,75.957,65.773Z" style="fill:#687581"/><path d="M75.392,66.452s-.584-9.267-.584-11.1.045-2.7,1.272-3.829c.564-1.054,2.244-2.876,14.512-3.723" style="fill:none;stroke:#687581;stroke-miterlimit:10"/><path d="M76.08,51.519a7.813,7.813,0,0,0,1.072,4.025c.508.742,7.814,4.414,34.029.429" style="fill:none;stroke:#687581;stroke-miterlimit:10;stroke-width:0.5px"/><path d="M74.808,47.378a11.138,11.138,0,0,1,1.272,4.141" style="fill:none;stroke:#687581;stroke-miterlimit:10"/><path d="M59.063,57.124c-.206.1-.465.247-.528.387-.038.007.182.126.4.168a11.181,11.181,0,0,0,1.377.22c.954.1,1.912.257,2.86.426.947.186,1.891.385,2.825.641.469.122.933.264,1.4.409l.693.239c.209.059.468.191.662.061-.15.231-.473.2-.71.212l-.731-.028c-.484-.032-.968-.069-1.449-.125-.963-.1-1.917-.257-2.867-.426-.95-.189-1.89-.383-2.832-.646a6.659,6.659,0,0,1-1.414-.533,1.624,1.624,0,0,1-.342-.243.6.6,0,0,1-.154-.216.308.308,0,0,1,.062-.316A1.138,1.138,0,0,1,59.063,57.124Z" style="fill:#687581"/><path d="M74.971,59.3s-.446-.275-1.129-.665c-.282-.156-.605-.338-.95-.523-.6-.327-1.278-.672-1.953-.984-1.99-.921-5.666-1.073-6.969,1.86" style="fill:none;stroke:#687581;stroke-miterlimit:10"/><path d="M75.153,62.34s-.713-.431-1.671-.958c-.3-.171-.631-.349-.969-.527-.6-.319-1.233-.639-1.808-.895-1.916-.861-2.577-.98-2.941-.263" style="fill:none;stroke:#687581;stroke-miterlimit:10"/><path d="M74.9,57.915a4.718,4.718,0,0,0,2.719,3.294c1.562.547,3.711,1.261,4.024,3.483s1.68,13,1.914,14.957.073,4.749-5.746,1.105" style="fill:none;stroke:#687581;stroke-miterlimit:10;stroke-width:0.5px"/><path d="M75.112,52.809c-.855,2.188-.031,4.962,7,5.9s13.611.76,29.27-.909" style="fill:none;stroke:#687581;stroke-miterlimit:10;stroke-width:0.5px"/><path d="M111.384,64.53S98.6,66.147,96.413,66.452,92.9,68.71,92.994,71.367s.176,4.336.293,5.352a3.586,3.586,0,0,0,4.532,3.048c3.439-.586,14.691-2.11,14.691-2.11" style="fill:none;stroke:#687581;stroke-miterlimit:10;stroke-width:0.5px"/><path d="M111.384,67.264s-11.338,1.524-12.744,1.759a2.656,2.656,0,0,0-2.5,2.622,35.232,35.232,0,0,0,.157,3.941c.078.86.234,2.462,3.438,1.993s12.619-1.8,12.619-1.8" style="fill:none;stroke:#687581;stroke-miterlimit:10;stroke-width:0.5px"/><path d="M111.384,73.867c-3.953.391-6.806.743-7.587.743s-1.914-.079-1.914-1.212V71.289s-.118-1.329,1.758-1.641,7.931-1.133,7.931-1.133" style="fill:none;stroke:#687581;stroke-miterlimit:10;stroke-width:0.5px"/><line x1="102.495" y1="74.403" x2="97.203" y2="77.35" style="fill:none;stroke:#687581;stroke-miterlimit:10;stroke-width:0.5px"/><line x1="102.158" y1="70.431" x2="97.203" y2="69.57" style="fill:none;stroke:#687581;stroke-miterlimit:10;stroke-width:0.5px"/><path d="M111.572,77.071s-12.346,1.719-13.518,1.8-3.321.039-3.477-2.383-.274-4.376-.235-5.548.274-2.657,3.087-3.126,14.729-2.038,14.729-2.038" style="fill:none;stroke:#687581;stroke-miterlimit:10;stroke-width:0.5px"/><path d="M72.513,60.855c-.182,1.236-.382,2.458-.6,3.676" style="fill:none;stroke:#687581;stroke-miterlimit:10;stroke-width:0.5px"/><path d="M73.824,47.8q-.289,5.241-.932,10.311" style="fill:none;stroke:#687581;stroke-miterlimit:10;stroke-width:0.5px"/><path d="M74.325,47.487a101.319,101.319,0,0,1-.483,11.144" style="fill:none;stroke:#687581;stroke-miterlimit:10;stroke-width:0.5px"/><path d="M73.482,61.382c-.186,1.344-.394,2.647-.616,3.88" style="fill:none;stroke:#687581;stroke-miterlimit:10;stroke-width:0.5px"/><path d="M55.23,62.932a20.042,20.042,0,0,1,3.3.465,19.841,19.841,0,0,1,3.192.954,19.937,19.937,0,0,1-3.3-.466A20.146,20.146,0,0,1,55.23,62.932Z" style="fill:#687581"/><path d="M59.589,57.124a11.5,11.5,0,0,1,2.5.247,11.261,11.261,0,0,1,2.4.737,11.378,11.378,0,0,1-2.5-.247A11.512,11.512,0,0,1,59.589,57.124Z" style="fill:#687581"/><path d="M54.425,66.672l.714-5.014,8.78,10.87L53.044,79.722a.285.285,0,0,1-.44-.277l.625-4.386c-20.324-4.929-35.018,4.53-23.695,18.305a.7.7,0,0,1-.864,1.056C11.278,84.851,21,59.252,54.425,66.672Z" style="fill:#f4ae3d;stroke:#12171d;stroke-miterlimit:10;stroke-width:1.5px"/></g></g></svg>
