<svg xmlns="http://www.w3.org/2000/svg" xmlns:xlink="http://www.w3.org/1999/xlink" width="161.749" height="161.749" viewBox="0 0 161.749 161.749"><defs><linearGradient id="linear-gradient" x1="135.586" y1="45.92" x2="115.19" y2="65.318" gradientUnits="userSpaceOnUse"><stop offset="0" stop-color="#404d59" stop-opacity="0"/><stop offset="1" stop-color="#404d59"/></linearGradient><linearGradient id="linear-gradient-2" x1="107.046" y1="7.465" x2="107.046" y2="34.072" xlink:href="#linear-gradient"/></defs><g id="below"><path d="M34.955,89.071a1.764,1.764,0,0,0,.119-1.061,8.532,8.532,0,0,0-.236-1.221,24.042,24.042,0,0,0-.787-2.411c-.6-1.59-1.294-3.149-2.013-4.7l-4.429-9.256L18.781,51.9,9.954,33.368C7.042,27.177,4.12,20.991,1.334,14.739,4.445,20.835,7.42,27,10.406,33.153l8.865,18.513,8.865,18.513,4.409,9.268c.715,1.559,1.4,3.132,2,4.746a24.384,24.384,0,0,1,.79,2.469,8.9,8.9,0,0,1,.242,1.3,2.109,2.109,0,0,1-.234,1.424.249.249,0,0,1-.418-.272l0,0Z" style="fill:#687581"/><path d="M25.328,97.366a3.6,3.6,0,0,1-1.127-.909c-.312-.339-.593-.695-.874-1.051q-.818-1.08-1.574-2.2c-1.017-1.481-1.992-2.986-2.945-4.5-1.912-3.033-3.786-6.087-5.659-9.142-1.91-3.031-3.617-6.189-5.428-9.282C5.963,67.158,4.2,64.038,2.56,60.85c1.95,3.015,3.766,6.1,5.593,9.179s3.536,6.226,5.457,9.251c1.884,3.047,3.769,6.093,5.69,9.114.965,1.507,1.927,3.016,2.916,4.5q.739,1.117,1.533,2.188c.27.351.541.7.832,1.025a3.238,3.238,0,0,0,.93.79l.018.008a.25.25,0,0,1-.2.459Z" style="fill:#687581"/><path d="M45.246,60.253a98.935,98.935,0,0,0-.54-11.81q-.668-5.883-1.811-11.7C41.343,28.991,39.2,21.38,36.93,13.8a113.1,113.1,0,0,1,3.732,11.277q1.568,5.731,2.764,11.559Q44.6,42.464,45.285,48.38a88.9,88.9,0,0,1,.461,11.891.25.25,0,0,1-.5-.012Z" style="fill:#687581"/><path d="M85.635,31.618c-2.618,2.725-5.237,5.446-7.805,8.213s-5.123,5.549-7.44,8.51A59.974,59.974,0,0,0,60,68.224a32.155,32.155,0,0,0-1.251,11.119A22.608,22.608,0,0,0,62.185,89.9c1.988,3.177,4.928,5.632,7.5,8.4a72.207,72.207,0,0,0,8.22,7.726,69.727,69.727,0,0,0,9.694,5.767q5.041,2.573,10.15,5.025l20.424,9.821,20.455,9.758c6.806,3.28,13.683,6.408,20.363,9.952-6.958-2.958-13.719-6.332-20.552-9.554l-20.461-9.75-20.43-9.812q-5.1-2.465-10.162-5.026A70.249,70.249,0,0,1,77.62,106.4a72.527,72.527,0,0,1-8.279-7.772l-3.963-4.045a26.847,26.847,0,0,1-3.6-4.428A23.1,23.1,0,0,1,58.269,79.38a32.651,32.651,0,0,1,1.262-11.287A60.479,60.479,0,0,1,70,48.035,162.116,162.116,0,0,1,85.635,31.618Z" style="fill:#687581"/><path d="M155.126,123.075c-2.69-1.012-5.3-2.2-7.9-3.406l-7.78-3.657c-5.179-2.455-10.35-4.93-15.475-7.5a79.5,79.5,0,0,1-14.68-8.988,30.49,30.49,0,0,1-5.9-6.3,16.947,16.947,0,0,1-2.938-8.056,23.029,23.029,0,0,0,3.311,7.8,30,30,0,0,0,5.845,6.165,79.515,79.515,0,0,0,14.632,8.846c5.108,2.588,10.268,5.078,15.436,7.55l7.766,3.682C150.03,120.444,152.618,121.673,155.126,123.075Z" style="fill:#687581"/><path d="M33.581,91.251l5.581,12.292a52.676,52.676,0,0,0,6.932,11.369,51.27,51.27,0,0,0,9.594,9.217,58.616,58.616,0,0,0,5.62,3.6l5.859,3.35,23.437,13.4c7.784,4.518,15.577,9.02,23.233,13.764-8-4.145-15.855-8.53-23.723-12.9L66.6,132.087l-5.879-3.316a56.4,56.4,0,0,1-5.74-3.676,52.554,52.554,0,0,1-13.718-15.034A57.278,57.278,0,0,1,38.142,104l-5.474-12.34a.5.5,0,0,1,.913-.41Z" style="fill:#687581"/><path d="M79.181,156.089c-7.016-3.116-13.765-6.763-20.623-10.193L38.053,135.471c-3.4-1.771-6.792-3.567-10.117-5.491a40.3,40.3,0,0,1-9.274-6.838c-1.33-1.4-2.507-2.927-3.7-4.426s-2.4-2.987-3.609-4.473c-2.426-2.967-4.831-5.952-7.095-9.054,5.163,5.665,9.75,11.871,14.729,17.644a39.849,39.849,0,0,0,9.179,6.751c3.313,1.914,6.7,3.7,10.1,5.471l20.512,10.406C65.6,148.971,72.523,152.265,79.181,156.089Z" style="fill:#687581"/><path d="M2.313,78.708c5.081,3.442,9.9,7.226,14.614,11.138,1.18.978,2.355,1.961,3.518,2.963l1.735,1.519c.586.517,1.121,1.065,1.687,1.491a3.2,3.2,0,0,0,1.723.8.581.581,0,0,0,.294-.085l.457-.3.934-.649c1.236-.877,2.442-1.8,3.592-2.778a28.984,28.984,0,0,0,3.213-3.162,19.6,19.6,0,0,0,2.626-3.609,52.482,52.482,0,0,0,3.376-8.409,163.706,163.706,0,0,0,5.093-17.554.585.585,0,0,1,.378-.435l.027-.01a9.655,9.655,0,0,0,3.048-2.176c.943-.93,1.852-1.913,2.739-2.921l5.293-6.129c1.787-2.036,3.625-4.038,5.6-5.919L68.2,36.957l11.894-11c3.955-3.678,7.943-7.319,12.168-10.708-3.685,3.968-7.605,7.683-11.56,11.361L68.869,37.679l-5.9,5.539c-1.927,1.858-3.734,3.849-5.5,5.881L52.21,55.262c-.891,1.023-1.809,2.031-2.785,3a10.436,10.436,0,0,1-3.509,2.474l.405-.445a85.443,85.443,0,0,1-2.33,8.936c-.907,2.933-1.868,5.839-2.833,8.746a53.264,53.264,0,0,1-3.49,8.591A20.694,20.694,0,0,1,34.9,90.356a30.084,30.084,0,0,1-3.334,3.258c-1.184,1-2.415,1.936-3.677,2.825l-.953.657-.5.329a1.63,1.63,0,0,1-.793.237,4.05,4.05,0,0,1-2.4-1.015c-.654-.5-1.187-1.056-1.748-1.551l-1.712-1.511c-1.153-1-2.321-1.983-3.494-2.963C11.582,86.713,6.843,82.846,2.313,78.708Z" style="fill:#687581"/></g><g id="illustration"><path d="M55.464,132.743a18.778,18.778,0,0,0,1.782-3.446,1.445,1.445,0,0,0-.356-1.981c-.828-.523-15.333-11.846-15.967-12.362a3.214,3.214,0,0,0-3.169-.673c-1.189.555-6.181,5.032-7.013,6.656" style="fill:none;stroke:#687581;stroke-linecap:round;stroke-linejoin:round"/><path d="M34.809,127.537l10.709-12.946,7.9,7.081s-4.9,5.884-9.987,11.98" style="fill:none;stroke:#12171D;stroke-linejoin:round;stroke-width:4.5px"/><path d="M82.942,101.887a2.5,2.5,0,0,1,.2,3.543l-18.33,20.389a6.849,6.849,0,0,1-9.585.435L39.646,112.292a6.849,6.849,0,0,1-.879-9.25L50.15,88.088q.609-.8,1.265-1.557l4.044-4.669a3.211,3.211,0,0,1,4.557-.3Z" style="fill:none;stroke:#12171D;stroke-linejoin:round;stroke-width:4.5px"/><path d="M74.292,113.331l-11.5,12.363a5.566,5.566,0,0,1-7.79.354l-7.48-6.7-7.479-6.7a5.6,5.6,0,0,1-.715-7.518l9.743-12.8" style="fill:none;stroke:#12171D;stroke-linejoin:round;stroke-width:4.5px"/><path d="M75.721,112.291A6.038,6.038,0,0,1,70.31,111L51.924,95.074a6.04,6.04,0,0,1-2-5.564" style="fill:none;stroke:#12171D;stroke-linejoin:round;stroke-width:4.5px"/><path d="M80,103.015l1.68.051A.441.441,0,0,1,82,103.8l-3.9,4.465a4.7,4.7,0,0,1-3.224,1.616c-.095.007-.19.011-.284.012a4.705,4.705,0,0,1-3.138-1.151L54.008,93.624a4.711,4.711,0,0,1-.477-6.645l3.938-4.515a.441.441,0,0,1,.765.207l.26,1.358" style="fill:none;stroke:#12171D;stroke-linejoin:round;stroke-width:4.5px"/><path d="M77.322,107.719a3.87,3.87,0,0,1-5.466.33L54.581,92.737a3.872,3.872,0,0,1-.33-5.465l2.2-2.485a2.311,2.311,0,0,1,2.884-.47l1.755,1.011a13.284,13.284,0,0,1,2.17,1.562L76.616,98.727a13.291,13.291,0,0,1,1.811,1.967l1.215,1.622a2.312,2.312,0,0,1-.119,2.919Z" style="fill:none;stroke:#12171D;stroke-linejoin:round;stroke-width:4.5px"/><path d="M34.809,127.537l10.709-12.946,7.9,7.081s-4.9,5.884-9.987,11.98" style="fill:none;stroke:#aebbc7;stroke-linejoin:round;stroke-width:2.5px"/><path d="M82.942,101.887a2.5,2.5,0,0,1,.2,3.543l-18.33,20.389a6.849,6.849,0,0,1-9.585.435L39.646,112.292a6.849,6.849,0,0,1-.879-9.25L50.15,88.088q.609-.8,1.265-1.557l4.044-4.669a3.211,3.211,0,0,1,4.557-.3Z" style="fill:none;stroke:#aebbc7;stroke-linejoin:round;stroke-width:2.5px"/><path d="M74.292,113.331l-11.5,12.363a5.566,5.566,0,0,1-7.79.354l-7.48-6.7-7.479-6.7a5.6,5.6,0,0,1-.715-7.518l9.743-12.8" style="fill:none;stroke:#aebbc7;stroke-linejoin:round;stroke-width:2.5px"/><path d="M75.721,112.291A6.038,6.038,0,0,1,70.31,111L51.924,95.074a6.04,6.04,0,0,1-2-5.564" style="fill:none;stroke:#aebbc7;stroke-linejoin:round;stroke-width:2.5px"/><path d="M80,103.015l1.68.051A.441.441,0,0,1,82,103.8l-3.9,4.465a4.7,4.7,0,0,1-3.224,1.616c-.095.007-.19.011-.284.012a4.705,4.705,0,0,1-3.138-1.151L54.008,93.624a4.711,4.711,0,0,1-.477-6.645l3.938-4.515a.441.441,0,0,1,.765.207l.26,1.358" style="fill:none;stroke:#aebbc7;stroke-linejoin:round;stroke-width:2.5px"/><path d="M77.322,107.719a3.87,3.87,0,0,1-5.466.33L54.581,92.737a3.872,3.872,0,0,1-.33-5.465l2.2-2.485a2.311,2.311,0,0,1,2.884-.47l1.755,1.011a13.284,13.284,0,0,1,2.17,1.562L76.616,98.727a13.291,13.291,0,0,1,1.811,1.967l1.215,1.622a2.312,2.312,0,0,1-.119,2.919Z" style="fill:none;stroke:#aebbc7;stroke-linejoin:round;stroke-width:2.5px"/><path d="M34.809,127.537l10.709-12.946,7.9,7.081s-4.9,5.884-9.987,11.98" style="fill:#404d59;stroke:#aebbc7;stroke-linecap:round;stroke-linejoin:round;stroke-width:0.5px"/><path d="M82.942,101.887a2.5,2.5,0,0,1,.2,3.543l-18.33,20.389a6.849,6.849,0,0,1-9.585.435L39.646,112.292a6.849,6.849,0,0,1-.879-9.25L50.15,88.088q.609-.8,1.265-1.557l4.044-4.669a3.211,3.211,0,0,1,4.557-.3Z" style="fill:#404d59;stroke:#aebbc7;stroke-linecap:round;stroke-linejoin:round;stroke-width:0.5px"/><path d="M74.292,113.331l-11.5,12.363a5.566,5.566,0,0,1-7.79.354l-7.48-6.7-7.479-6.7a5.6,5.6,0,0,1-.715-7.518l9.743-12.8" style="fill:none;stroke:#aebbc7;stroke-linecap:round;stroke-linejoin:round;stroke-width:0.5px"/><path d="M75.721,112.291A6.038,6.038,0,0,1,70.31,111L51.924,95.074a6.04,6.04,0,0,1-2-5.564" style="fill:none;stroke:#aebbc7;stroke-linecap:round;stroke-linejoin:round;stroke-width:0.5px"/><path d="M80,103.015l1.68.051A.441.441,0,0,1,82,103.8l-3.9,4.465a4.7,4.7,0,0,1-3.224,1.616c-.095.007-.19.011-.284.012a4.705,4.705,0,0,1-3.138-1.151L54.008,93.624a4.711,4.711,0,0,1-.477-6.645l3.938-4.515a.441.441,0,0,1,.765.207l.26,1.358" style="fill:none;stroke:#aebbc7;stroke-linecap:round;stroke-linejoin:round;stroke-width:0.5px"/><path d="M77.322,107.719a3.87,3.87,0,0,1-5.466.33L54.581,92.737a3.872,3.872,0,0,1-.33-5.465l2.2-2.485a2.311,2.311,0,0,1,2.884-.47l1.755,1.011a13.284,13.284,0,0,1,2.17,1.562L76.616,98.727a13.291,13.291,0,0,1,1.811,1.967l1.215,1.622a2.312,2.312,0,0,1-.119,2.919Z" style="fill:#12171D;stroke:#aebbc7;stroke-linecap:round;stroke-linejoin:round;stroke-width:0.5px"/><path d="M30.741,120.937a3.1,3.1,0,0,0,.674,3.724,77.774,77.774,0,0,0,8.637,6.735c4.12,2.853,9.112,5.824,9.112,5.824,1.03.713,1.743.555,2.773-.237a21.815,21.815,0,0,0,3.527-4.24" style="fill:none;stroke:#687581;stroke-linecap:round;stroke-linejoin:round"/><path d="M134.757,40.426C118.666,52.334,95.794,64.513,64.173,71.559L96.1,100c28.216-9.531,48.639-22.276,63.006-34.176" style="fill:url(#linear-gradient)"/><path d="M134.757,40.426c-1.233,1.056-2.464,2.122-3.774,3.08l-1.95,1.46c-.657.478-1.336.922-2,1.384-2.69,1.821-5.488,3.474-8.3,5.1a176.7,176.7,0,0,1-17.412,8.722A208.711,208.711,0,0,1,64.3,72.122l.258-.993L96.47,99.591l-.542-.11a220.928,220.928,0,0,0,33.021-14.118q7.933-4.222,15.444-9.183c4.993-3.319,9.811-6.866,14.717-10.353a104.319,104.319,0,0,1-14.223,11.1q-7.511,5.017-15.484,9.289A222,222,0,0,1,96.28,100.525a.554.554,0,0,1-.543-.111L63.79,71.99A.577.577,0,0,1,64.048,71,207.693,207.693,0,0,0,100.9,59.2a175.842,175.842,0,0,0,17.33-8.631q4.206-2.4,8.285-5.012C129.265,43.865,131.97,42.1,134.757,40.426Z" style="fill:#aebbc7"/><polygon points="81.446 102.061 74.366 101.74 61.57 90.397 60.393 82.518 81.446 102.061" style="fill:#12171D;stroke:#aebbc7;stroke-linecap:round;stroke-linejoin:round"/><path d="M63.941,59.274a3.059,3.059,0,0,0-3.905-.159c-.62.472-1.1.84-1.976,1.528-2.308,1.813-2.628,2.706-5.3,6.5-4.679,6.634-3.174,9.876-1.206,12.083.606.68,3.452,3.344,7.211,6.8.678.624,1.368.181,2.123.873,4.43,4.056,9.641,8.783,14,12.712.61.549.7,1.7,1.251,2.2,3.209,2.885,5.732,5.133,6.727,5.985,3.757,3.221,7.395,1.73,10.02-.835s4.455-4.727,5.725-6.084c.649-.692,1.971-2.168,3.11-3.448a3.063,3.063,0,0,0-.237-4.312Z" style="fill:#404d59;stroke:#aebbc7;stroke-linecap:round;stroke-linejoin:round;stroke-width:0.5px"/><path d="M93.025,106.82a2.534,2.534,0,0,1-3.489.076l-8.211-7.442a2.512,2.512,0,0,0-1.054-.57l-2.649-.691a2.514,2.514,0,0,1-1.054-.571L62.912,85.245a2.53,2.53,0,0,1-.725-1.157l-.59-2.017a2.522,2.522,0,0,0-.725-1.156l-8.835-8.008a3.01,3.01,0,0,1-.388-4.034" style="fill:none;stroke:#aebbc7;stroke-linecap:round;stroke-linejoin:round;stroke-width:0.5px"/><path d="M96.012,93.363a.456.456,0,0,1-.682.075L63.541,65.1a.461.461,0,0,1-.158-.34.468.468,0,0,1,.155-.345l.744-.693a.565.565,0,0,1,.745-.01L96.539,91.8a.562.562,0,0,1,.075.741Z" style="fill:none;stroke:#aebbc7;stroke-linecap:round;stroke-linejoin:round;stroke-width:0.5px"/><path d="M96.766,102.9a2.539,2.539,0,0,1-3.5.078L55.122,68.4a3.018,3.018,0,0,1-.455-3.953" style="fill:none;stroke:#aebbc7;stroke-linecap:round;stroke-linejoin:round;stroke-width:0.5px"/><path d="M59.256,84.561,61.1,83.439a1.317,1.317,0,0,0,.631-1.175l-.2-5.057" style="fill:none;stroke:#aebbc7;stroke-linecap:round;stroke-linejoin:round;stroke-width:0.5px"/><path d="M77.935,101.492l.894-1.963a1.316,1.316,0,0,1,1.092-.766l5.043-.412" style="fill:none;stroke:#aebbc7;stroke-linecap:round;stroke-linejoin:round;stroke-width:0.5px"/><path d="M63.941,59.274a3.059,3.059,0,0,0-3.905-.159c-.62.472-1.1.84-1.976,1.528-2.308,1.813-2.628,2.706-5.3,6.5-4.679,6.634-3.174,9.876-1.206,12.083.606.68,3.452,3.344,7.211,6.8.678.624,1.368.181,2.123.873,4.43,4.056,9.641,8.783,14,12.712.61.549.7,1.7,1.251,2.2,3.209,2.885,5.732,5.133,6.727,5.985,3.757,3.221,7.395,1.73,10.02-.835s4.455-4.727,5.725-6.084c.649-.692,1.971-2.168,3.11-3.448a3.063,3.063,0,0,0-.237-4.312Z" style="fill:#404d59;stroke:#aebbc7;stroke-linecap:round;stroke-linejoin:round"/><path d="M93.025,106.82a2.534,2.534,0,0,1-3.489.076l-8.211-7.442a2.512,2.512,0,0,0-1.054-.57l-2.649-.691a2.514,2.514,0,0,1-1.054-.571L62.912,85.245a2.53,2.53,0,0,1-.725-1.157l-.59-2.017a2.522,2.522,0,0,0-.725-1.156l-8.835-8.008a3.01,3.01,0,0,1-.388-4.034" style="fill:none;stroke:#aebbc7;stroke-linecap:round;stroke-linejoin:round;stroke-width:0.5px"/><path d="M95.928,93.573a.456.456,0,0,1-.682.075L63.457,65.313a.455.455,0,0,1,0-.685l.744-.693a.565.565,0,0,1,.745-.01L96.455,92.013a.562.562,0,0,1,.075.741Z" style="fill:none;stroke:#aebbc7;stroke-linecap:round;stroke-linejoin:round;stroke-width:0.5px"/><path d="M96.766,102.9a2.539,2.539,0,0,1-3.5.078L55.122,68.4a3.018,3.018,0,0,1-.455-3.953" style="fill:none;stroke:#aebbc7;stroke-linecap:round;stroke-linejoin:round;stroke-width:0.5px"/><path d="M59.256,84.561,61.1,83.439a1.317,1.317,0,0,0,.631-1.175l-.2-5.057" style="fill:none;stroke:#aebbc7;stroke-linecap:round;stroke-linejoin:round;stroke-width:0.5px"/><path d="M77.935,101.492l.894-1.963a1.316,1.316,0,0,1,1.092-.766l5.043-.412" style="fill:none;stroke:#aebbc7;stroke-linecap:round;stroke-linejoin:round;stroke-width:0.5px"/><line x1="95.489" y1="93.626" x2="63.466" y2="65.083" style="fill:none;stroke:#aebbc7;stroke-linecap:round;stroke-linejoin:round;stroke-width:0.75px"/><path d="M112.825,6.487q-5.078,8.541-10.813,16.721c-9.19,13.1-22,28.812-38.016,42.309L94.915,93.059c38.329-32.293,53.469-73.48,55.18-86.515" style="fill:url(#linear-gradient-2)"/><path d="M112.824,6.487a127.908,127.908,0,0,1-10.01,16.453q-5.514,7.9-11.6,15.392A209.111,209.111,0,0,1,64.359,65.948l.012-.852L95.305,92.622l-.767-.011a192.912,192.912,0,0,0,18.59-18.159A191.751,191.751,0,0,0,128.9,53.788,171.657,171.657,0,0,0,141.52,31.06c.862-1.988,1.753-3.966,2.571-5.973.774-2.024,1.6-4.028,2.3-6.079a98.592,98.592,0,0,0,3.7-12.464,54.027,54.027,0,0,1-2.922,12.733c-.634,2.091-1.494,4.1-2.259,6.142-.816,2.022-1.706,4.014-2.566,6.018a172.7,172.7,0,0,1-12.614,22.9,192.72,192.72,0,0,1-15.792,20.836A194.141,194.141,0,0,1,95.293,93.508a.577.577,0,0,1-.761,0l-.007-.006-30.9-27.559a.564.564,0,0,1-.045-.8.5.5,0,0,1,.057-.056A208.01,208.01,0,0,0,90.405,37.669q6.082-7.425,11.581-15.307C105.637,17.1,109.134,11.751,112.824,6.487Z" style="fill:#aebbc7"/><line x1="71.023" y1="90.318" x2="87.47" y2="73.489" style="fill:none;stroke:#12171D;stroke-width:2.5px"/><rect x="73.577" y="76.837" width="16.354" height="5" transform="translate(-32.128 82.352) rotate(-45.657)" style="fill:none;stroke:#12171D;stroke-width:2.5px"/><polygon points="80.624 87.627 71.023 90.318 73.492 80.657 80.624 87.627" style="fill:none;stroke:#12171D;stroke-width:2.5px"/><line x1="76.038" y1="85.185" x2="87.47" y2="73.489" style="fill:none;stroke:#f4ae3d;stroke-miterlimit:10;stroke-width:5px"/><polygon points="80.624 87.627 71.023 90.318 73.492 80.657 80.624 87.627" style="fill:#f4ae3d"/></g><g id="arrows_above" data-name="arrows above"><polygon points="82.565 111.008 91.293 115.115 88.877 118.302 82.565 111.008" style="fill:#f4ae3d"/><polygon points="81.297 111.853 86.802 119.774 83.116 121.327 81.297 111.853" style="fill:#f4ae3d"/><polygon points="79.537 112.373 80.344 121.986 76.376 121.487 79.537 112.373" style="fill:#f4ae3d"/><polygon points="50.396 83.866 42.542 89.468 40.945 85.8 50.396 83.866" style="fill:#f4ae3d"/><polygon points="50.279 82.347 40.677 83.271 41.128 79.296 50.279 82.347" style="fill:#f4ae3d"/><polygon points="50.688 80.558 41.91 76.557 44.287 73.34 50.688 80.558" style="fill:#f4ae3d"/></g></svg>