<svg xmlns="http://www.w3.org/2000/svg" width="218" height="218" viewBox="0 0 218 218"><g id="bf1227d4-33b7-4373-b42f-86329acf880a" data-name="illustration"><path d="M244.941,141.5s-11.371-2.237-16.963-3.542a29.689,29.689,0,0,0-10.533-.466c-.838-1.678-5.126-2.423-5.126-2.423L109.361,115.563a71.374,71.374,0,0,0-34,1.8c-5.309,1.611-10.763,3.341-14.593,4.746-10.159,3.728-21.9,10.626-28.241,24.42s-14.354,37.282-16.591,44.646a10.77,10.77,0,0,0,3.728,11.651l-1.118,4.66S6.986,212.522,1.394,228.74s-8.762,25.682-8.762,25.682" style="fill:none;stroke:#687581;stroke-miterlimit:10"/><path d="M19.662,202.829c1.8,1.7,6.229,1.739,11,0s18.844-6.95,22.835-8.723A36,36,0,0,0,63.8,186.568c1.884-2.106,8.2-9.754,10.973-12.3s6.651-4.655,15.741-3.325,33.919,5.986,37.8,7.094,9.755,3.88,11.418,9.976,4.1,22.391,13.191,33.809c4.1,4.988,8.867,8.978,12.747,9.754s6.54,1.441,6.54,1.441l2.771,1.885" style="fill:none;stroke:#687581;stroke-miterlimit:10"/><path d="M217.445,137.491c-8.989,1.967-22.069,3.741-27.5,22.917s-15.851,58.86-16.737,63.072-.666,7.76,2.549,10.2l-1.441,5.875s-3.88-.222-6.207,5.986-3.215,8.883-3.215,8.883" style="fill:none;stroke:#687581;stroke-miterlimit:10"/><path d="M172.209,233.013c-4.1-3.1-2.55-8.535-1.774-11.639s14.854-57.2,16.969-63.737,8.06-13.5,11.408-15.408a58.989,58.989,0,0,1,13.424-5.653,6.032,6.032,0,0,1,4.644.246" style="fill:none;stroke:#687581;stroke-miterlimit:10;stroke-width:0.75px"/><path d="M152.922,221.818c2.664,3,5.1.775,6.429-3.326s6.983-33.143,6.983-43.452-5.21-25.938-22.059-31.48-54.093-12.194-63.626-13.3-33.032,1.33-42.011,15.629S21.3,186.347,19.662,190.78s-2.2,11.085,6.672,7.76,23.167-8.2,25.717-9.422,5.764-3.658,9.533-7.649,8.2-8.914,10.53-10.941,7.094-4.688,16.96-3.136,36.136,6.761,39.35,7.87,9.866,3.214,11.418,9.533S142.5,207.629,152.922,221.818Z" style="fill:none;stroke:#687581;stroke-miterlimit:10;stroke-width:0.5px"/><path d="M150.982,144.613a43.257,43.257,0,0,0,4.434,1.37c1.493.4,3,.758,4.509,1.095,3.021.667,6.056,1.278,9.1,1.807,3.043.567,6.1,1.052,9.161,1.513s6.13.873,9.213,1.2c-3.1-.141-6.188-.429-9.265-.817s-6.141-.873-9.2-1.4c-3.048-.572-6.092-1.177-9.1-1.927A56.39,56.39,0,0,1,150.982,144.613Z" style="fill:#687581"/><path d="M196.041,152.261q3.769.635,7.521,1.351l7.494,1.48,7.47,1.595q3.732.817,7.444,1.726-3.77-.633-7.521-1.35l-7.494-1.481-7.47-1.595Q199.753,153.168,196.041,152.261Z" style="fill:#687581"/><path d="M18.544,207.489c-.775,1.245,2.761,3.149,7.793,1.381s20.807-6.664,28.15-9.927a38.285,38.285,0,0,0,14.28-11.016c2.583-3.128,5.983-10.2,20.535-7.616s34.27,6.528,38.894,7.752,9.927,3.808,10.743,8.976a61.347,61.347,0,0,0,5.168,16.455c2.176,4.08,6.527,12.375,8.295,14.823s7.616,7.616,11.832,8.84a35.812,35.812,0,0,1,5.521,1.9l2.491,1.075" style="fill:none;stroke:#687581;stroke-miterlimit:10;stroke-width:0.5px"/><path d="M202.176,239.468c-1.088-1.9-2.72-5.439-.952-9.383s9.336-17.407,13.439-31.55,9.412-31.411,10.36-35.767,8.839-14.144,21.622-18.155" style="fill:none;stroke:#687581;stroke-miterlimit:10;stroke-width:0.75px"/><line x1="202.052" y1="142.688" x2="236.863" y2="149.253" style="fill:none;stroke:#687581;stroke-miterlimit:10;stroke-width:0.5px"/><path d="M198.812,142.229,90.616,121.78a66.339,66.339,0,0,0-35.922,2.9" style="fill:none;stroke:#687581;stroke-miterlimit:10;stroke-width:0.5px"/><path d="M-1.974,254.422s7.133-20.952,8.831-25.368,5.548-8.718,14.266-12.114S47.5,206.6,54.863,202.713a48.358,48.358,0,0,0,14.945-12.267c2.491-3.171,4.869-7.923,12.568-6.453s37.929,6.905,43.93,8.6,7.36,4.3,8.492,9.284a63.807,63.807,0,0,0,6.68,17.663c3.51,6,8.718,17.029,8.718,17.029s4.416,6.289,3.4,12.069-1.472,8.038-1.472,8.038" style="fill:none;stroke:#687581;stroke-miterlimit:10;stroke-width:0.25px"/><path d="M104.718,48.9c1.351-6.075,2.844-12.106,4.525-18.092q1.253-4.489,2.735-8.912a61.155,61.155,0,0,1,3.5-8.628,61,61,0,0,0-3.266,8.7q-1.368,4.447-2.49,8.964c-1.516,6.014-2.846,12.08-4.028,18.161Z" style="fill:#687581"/><path d="M32.263,20.047A27.623,27.623,0,0,1,38.576,27.3a22.585,22.585,0,0,1,2.958,9.134,30.55,30.55,0,0,1-.665,9.616,44.73,44.73,0,0,1-1.3,4.658c-.479,1.535-.975,3.063-1.4,4.614-3.515,12.381-6.634,24.876-9.77,37.361q-4.666,18.738-9.122,37.528c-2.967,12.527-5.88,25.067-8.636,37.638l-.976-.216c2.84-12.563,5.835-25.087,8.885-37.6s6.176-25,9.369-37.475c3.218-12.467,6.418-24.94,10.016-37.308.439-1.548.948-3.079,1.437-4.613a44.037,44.037,0,0,0,1.325-4.63,30.385,30.385,0,0,0,.722-9.564,22.51,22.51,0,0,0-2.889-9.116A27.633,27.633,0,0,0,32.263,20.047Z" style="fill:#687581"/><path d="M36.519,112.806c.881-6.605,12.77-51.387,15.411-57.47S57.8,45.878,62.5,44.117s9.687-3.669,13.5-4.7,4.964.734,3.95,5.871S68.956,94.753,67.928,97.982,64.7,106.5,60.15,108.256s-11.631,3.688-11.631,3.688" style="fill:none;stroke:#687581;stroke-miterlimit:10;stroke-width:0.5px"/><path d="M55.6,75.973c-3.376.727-2.349-3.529,1.174-4.556s9.938-2.238,11.448-2.5c2-.342,2.748,3.84-2.134,5.144" style="fill:none;stroke:#687581;stroke-miterlimit:10"/><path d="M56.774,71.417c-1.321,8.366-25.392,50.025-33.9,67.943S-8.98,208.8-18.373,253.413" style="fill:none;stroke:#687581;stroke-miterlimit:10"/><path d="M66.461,68.887c.734,3.7-.881,7.449-5.431,17.318s-14.824,30.7-25.1,50.371S5.444,205.915-1.548,237.3" style="fill:none;stroke:#687581;stroke-miterlimit:10"/><polygon points="93.52 113.793 241.412 68.887 93.813 114.749 93.52 113.793" style="fill:#687581"/><path d="M112.928,77.073v31.234c0,.4-.94.74-2.09.74s-2.08-.34-2.08-.74V77.252" style="fill:#404d59;stroke:#aebbc7;stroke-miterlimit:10;stroke-width:1.5px"/><path d="M150.31,83.321v31.234c0,.4-.94.74-2.09.74s-2.08-.34-2.08-.74V83.5" style="fill:#404d59;stroke:#aebbc7;stroke-miterlimit:10;stroke-width:1.5px"/><path d="M83.3,55.97s3.127-24.848,5.266-31.43,4.772-9.38,8.886-11.354a28.87,28.87,0,0,1,13.823-2.633c5.266.164,26,2.3,49.037,10.2a14,14,0,0,1,7.405,8.228c1.81,5.924,5.76,29.62,5.266,38.506a19.736,19.736,0,0,1-8.721,15.3,89.39,89.39,0,0,1-8.886,4.443c-2.8,1.317-8.557,1.708-10.861,1.594s-38.012-5.543-46.24-9.163a20.817,20.817,0,0,1-11.19-10.861C86.261,67.324,82.641,60.965,83.3,55.97Z" style="fill:#404d59;stroke:#aebbc7;stroke-miterlimit:10;stroke-width:1.5px"/><path d="M93.666,17.464a26.1,26.1,0,0,1,6.712-.7c2.257.009,4.513.116,6.76.307,4.5.368,8.966,1.017,13.407,1.8,4.429.854,8.832,1.861,13.16,3.136a74.671,74.671,0,0,1,12.619,4.83l-3.108-1.32-3.172-1.153c-2.132-.717-4.272-1.406-6.445-1.987q-6.5-1.791-13.145-3.015-6.631-1.24-13.35-1.915-3.354-.356-6.728-.445A25.983,25.983,0,0,0,93.666,17.464Z" style="fill:#aebbc7"/><path d="M164.466,23.668c-4.338-4.3-17.516-1.185-16.99,9.264.546,10.858,2.3,28.633,2.468,33.9S147.476,84.6,138.919,83.121,103.375,77.033,98.6,75.716s-13.658-10.037-13.164-20.9,3.455-23.861,4.114-27.974,1.719-9.956,10.157-14.6" style="fill:none;stroke:#aebbc7;stroke-miterlimit:10;stroke-width:0.5px"/><path d="M170.075,52.754c.418,2.411.782,4.83,1.119,7.254s.664,4.844.834,7.309a5.144,5.144,0,0,1-1.331,3.571,5.751,5.751,0,0,1-3.274,1.993,4.592,4.592,0,0,1-1.994.084,2.4,2.4,0,0,1-1.7-1.281,3.438,3.438,0,0,1-.307-1l-.144-.911L163,67.961c-.72-4.84-1.433-9.679-2.077-14.53-.6-4.864-1.277-9.686-1.6-14.624l.008.069a3.175,3.175,0,0,1,1.774-3.093,7.845,7.845,0,0,1,1.587-.664,6.752,6.752,0,0,1,1.692-.333,3.036,3.036,0,0,1,1.775.384,2.773,2.773,0,0,1,1.127,1.424,32.235,32.235,0,0,1,.823,3.215c.465,2.139.8,4.3,1.128,6.456s.6,4.321.843,6.489c-.746-4.3-1.5-8.594-2.516-12.821-.257-1.038-.528-2.14-.873-3.1a2.122,2.122,0,0,0-.881-1.078,2.346,2.346,0,0,0-1.381-.246,7.58,7.58,0,0,0-2.907.968,3.164,3.164,0,0,0-1.036.979,1.988,1.988,0,0,0-.31,1.247l.006.045,0,.024c.362,4.821,1.085,9.689,1.723,14.525l1.975,14.532.261,1.813a6.124,6.124,0,0,0,.354,1.654c.409.922,1.653,1.073,2.76.814a5.057,5.057,0,0,0,2.919-1.675,4.513,4.513,0,0,0,1.26-3.1C171.147,62.491,170.61,57.611,170.075,52.754Z" style="fill:#aebbc7"/><path d="M160.321,44.752c-.171-1.5.339-2.328,1.476-2.692s1.729.683,1.865,1.592,2.32,15.194,2.411,16.376.141,2.457-.339,2.775-1.571.864-1.571.864-1.253.569-1.39-.405" style="fill:none;stroke:#aebbc7;stroke-miterlimit:10;stroke-width:0.5px"/><path d="M166.664,63.212a7.192,7.192,0,0,1,2.27,1.64,6.69,6.69,0,0,1,1.506,2.363l-.934-1.024-.933-.994Z" style="fill:#aebbc7"/><path d="M163.211,41.333a19.074,19.074,0,0,1,1.144-2.635c.433-.85.911-1.659,1.379-2.506a5.324,5.324,0,0,1-.352,1.413,11.793,11.793,0,0,1-.583,1.321A12.407,12.407,0,0,1,163.211,41.333Z" style="fill:#aebbc7"/><polygon points="128.464 56.166 118.515 71.16 107.686 52.965 112.871 53.755 112.839 30.868 123.238 31.978 123.279 55.377 128.464 56.166" style="fill:none;stroke:#12171d;stroke-miterlimit:10;stroke-width:5px"/><polygon points="128.464 56.166 118.515 71.16 107.686 52.965 112.871 53.755 112.839 30.868 123.238 31.978 123.279 55.377 128.464 56.166" style="fill:#f4ae3d"/><path d="M140.065,128.463l-.953-.294.378-1.472a1.429,1.429,0,0,1,.416-.7,8.058,8.058,0,0,1,2.818-1.606,4.371,4.371,0,0,1,2.632-.066l1.013.3-3.14,3.241Z" style="fill:#404d59;stroke:#aebbc7;stroke-linecap:round;stroke-linejoin:round"/><path d="M139.589,126.314a7.716,7.716,0,0,1,2.46.6" style="fill:none;stroke:#aebbc7;stroke-miterlimit:10;stroke-width:0.5px"/><path d="M148.454,131.666c4.36,0,8.176-1.281,7.893-2.8a4.872,4.872,0,0,0-.661-1.743c-.523-1.478-3.239-2.563-7.232-2.563s-6.709,1.085-7.232,2.563a4.872,4.872,0,0,0-.661,1.743c-.283,1.521,3.533,2.8,7.893,2.8" style="fill:#404d59;stroke:#aebbc7;stroke-miterlimit:10"/><ellipse cx="148.453" cy="125.906" rx="2.849" ry="1.011" style="fill:none;stroke:#aebbc7;stroke-miterlimit:10;stroke-width:0.5px"/><path d="M148.453,129.689c-3.993,0-7.23-1.149-7.23-2.566" style="fill:none;stroke:#aebbc7;stroke-miterlimit:10;stroke-width:0.5px"/><path d="M148.455,129.689c3.993,0,7.23-1.149,7.23-2.566" style="fill:none;stroke:#aebbc7;stroke-miterlimit:10;stroke-width:0.5px"/><path d="M117.906,119.128c-.026-.026-.048-.051-.077-.076-1.049-1.05-3.394-2.012-6.8-2.012-3.993,0-6.709,1.086-7.232,2.563a4.861,4.861,0,0,0-.66,1.743c-.284,1.521,3.532,2.8,7.892,2.8,3,0,5.609-.6,6.942-1.471l.011,0" style="fill:#404d59;stroke:#aebbc7;stroke-miterlimit:10"/><ellipse cx="111.032" cy="118.388" rx="2.849" ry="1.011" style="fill:none;stroke:#aebbc7;stroke-miterlimit:10;stroke-width:0.5px"/><path d="M113.846,121.97a19.072,19.072,0,0,1-2.814.2c-3.993,0-7.23-1.149-7.23-2.566" style="fill:none;stroke:#aebbc7;stroke-miterlimit:10;stroke-width:0.5px"/><path d="M117.571,118.74c1.191.534-1.974,1.921-3.868,2.148a.206.206,0,0,0-.156.311,5.156,5.156,0,0,1,.37,2.359l.6.185c4.63-1,4.6-2.516,4.6-2.516a4.471,4.471,0,0,0-.853-2.1.814.814,0,0,0-.69-.383" style="fill:#404d59;stroke:#aebbc7;stroke-linecap:round;stroke-linejoin:round"/><path d="M113.456,121.078l.571-.139c.578-.128,1.326,2.042.484,2.8" style="fill:none;stroke:#aebbc7;stroke-miterlimit:10;stroke-width:0.5px"/></g></svg>
