<svg xmlns="http://www.w3.org/2000/svg" xmlns:xlink="http://www.w3.org/1999/xlink" width="161.749" height="161.749" viewBox="0 0 161.749 161.749"><defs><linearGradient id="a51e4bf0-282b-4e1f-a204-e99e3fcc6451" x1="155.754" y1="88.236" x2="137.111" y2="88.236" gradientUnits="userSpaceOnUse"><stop offset="0" stop-color="#404d59" stop-opacity="0"/><stop offset="1" stop-color="#404d59"/></linearGradient></defs><g id="b71ed5bc-c72f-4dce-982c-5969a444466e" data-name="fills"><path d="M158.861,126.406a24,24,0,0,1-23.266-20.15l-.126-.772a2.419,2.419,0,0,0-.8-1.439c-5.17-4.523-7.68-6.391-14.9-6.391H30.028a10.273,10.273,0,0,1-8.767-4.986l-1.273-2.1c-.876-.236-1.446-.4-2.071-.566a2.525,2.525,0,0,1-1.54-1.2L15.209,86.56S12.6,82,12.6,70.806a68.6,68.6,0,0,1,.746-10.412c.016-.115.038-.228.057-.341a1.572,1.572,0,0,1,1.1-1.235c.776-.233,1.851-.552,2.448-.734a7.332,7.332,0,0,1,4.37-4.4c4.665-2.1,8.719-3.619,13.087-3.619H113.4c22.288,0,26.29,6.07,34.625,27.135a1.536,1.536,0,0,0,.737.83,1.444,1.444,0,0,0,1.108.066,25.854,25.854,0,0,1,7.676-1.308Z" style="fill:url(#a51e4bf0-282b-4e1f-a204-e99e3fcc6451)"/><path d="M74.647,78.245a39.169,39.169,0,0,1-.692,7.532H59.706a.377.377,0,0,1-.361-.388V73.427a.375.375,0,0,1,.361-.388H74.367A47.814,47.814,0,0,1,74.647,78.245Z" style="fill:#141b21"/><path d="M103.337,78.245a39.329,39.329,0,0,1-.692,7.532h-14.2a.376.376,0,0,1-.36-.388V73.427a.374.374,0,0,1,.36-.388h14.617A48.074,48.074,0,0,1,103.337,78.245Z" style="fill:#141b21"/></g><g id="a09448ee-b23b-4c29-8a14-ac21ec431fe2" data-name="illustration"><path d="M128.1,82.657v4.632c0,3.453-2.829,5.859-6.651,5.859H35.784c-7.255,0-8.307-4-8.307-13.417,0-8.635,1.633-13,8.359-13h76.148c5.892,0,8.484,2.7,11.339,6.725S128.1,79.672,128.1,82.657Z" style="fill:none;stroke:#aebbc7;stroke-linecap:round;stroke-linejoin:round;stroke-width:0.5px"/><path d="M110.576,69.758h-69.8c-4.59,0-5.609,2.33-5.609,11.241,0,9.173,1.844,9.688,5.609,9.674h78.469c2.48,0,3.9-1.28,3.9-3.109V82.932c0-2.984-1.444-4.432-3.947-7.824S114.747,69.758,110.576,69.758Z" style="fill:none;stroke:#aebbc7;stroke-linecap:round;stroke-linejoin:round;stroke-width:0.5px"/><rect x="58.646" y="70.879" width="17.89" height="18.455" rx="1.18" style="fill:none;stroke:#aebbc7;stroke-linecap:round;stroke-linejoin:round;stroke-width:0.5px"/><rect x="60.966" y="71.418" width="12.738" height="15.979" rx="0.375" transform="translate(146.743 12.073) rotate(90)" style="fill:none;stroke:#aebbc7;stroke-linecap:round;stroke-linejoin:round;stroke-width:0.5px"/><path d="M73.766,79.441a.987.987,0,0,1-.917.673H62.716a1.374,1.374,0,0,1-1.014-.457l-2.356-2.582h15.28Z" style="fill:none;stroke:#aebbc7;stroke-linecap:round;stroke-linejoin:round;stroke-width:0.5px"/><path d="M74.556,80.692l-.672,1.449a.981.981,0,0,1-.882.586H62.42a1.363,1.363,0,0,1-.834-.29l-2.24-1.745" style="fill:none;stroke:#aebbc7;stroke-linecap:round;stroke-linejoin:round;stroke-width:0.5px"/><path d="M74.367,73.039a47.555,47.555,0,0,1,.28,5.207,39.161,39.161,0,0,1-.693,7.531" style="fill:none;stroke:#aebbc7;stroke-linecap:round;stroke-linejoin:round;stroke-width:0.5px"/><rect x="87.384" y="70.879" width="17.836" height="18.455" rx="1.178" style="fill:none;stroke:#aebbc7;stroke-linecap:round;stroke-linejoin:round;stroke-width:0.5px"/><rect x="89.678" y="71.442" width="12.738" height="15.931" rx="0.374" transform="translate(175.454 -16.639) rotate(90)" style="fill:none;stroke:#aebbc7;stroke-linecap:round;stroke-linejoin:round;stroke-width:0.5px"/><path d="M102.458,79.441a.984.984,0,0,1-.914.673h-10.1a1.369,1.369,0,0,1-1.011-.457l-2.349-2.582h15.234Z" style="fill:none;stroke:#aebbc7;stroke-linecap:round;stroke-linejoin:round;stroke-width:0.5px"/><path d="M103.246,80.692l-.671,1.449a.977.977,0,0,1-.878.586H91.146a1.354,1.354,0,0,1-.831-.29l-2.234-1.745" style="fill:none;stroke:#aebbc7;stroke-linecap:round;stroke-linejoin:round;stroke-width:0.5px"/><path d="M103.057,73.039a47.812,47.812,0,0,1,.279,5.207,39.335,39.335,0,0,1-.69,7.531" style="fill:none;stroke:#aebbc7;stroke-linecap:round;stroke-linejoin:round;stroke-width:0.5px"/><path d="M21.156,92.511a8.2,8.2,0,0,0,7.111,3.933h93.709c7.727,0,9.6,1.3,15.884,7.311" style="fill:none;stroke:#aebbc7;stroke-linecap:round;stroke-linejoin:round;stroke-width:0.5px"/><path d="M148.019,77.2c-8.336-21.065-12.339-27.134-34.626-27.134H34.4c-4.284,0-8.4,1.506-13.089,3.62a7.281,7.281,0,0,0-4.434,4.632,46.113,46.113,0,0,0-1.836,12.489C15.044,82,18.119,87.5,18.119,87.5l3.14,5.173a10.272,10.272,0,0,0,8.766,4.986h89.743c7.221,0,9.73,1.865,14.9,6.39" style="fill:none;stroke:#aebbc7;stroke-linecap:round;stroke-linejoin:round"/><path d="M148.363,87.006c-1.884-4.912-3.626-9.014-4.277-10.439-3.106-6.808-5.789-12.687-17.22-12.687H32.421c-5.854,0-7.735.841-10.981-4.567-2.35-3.915-1.851-4.6-1.023-5.028" style="fill:none;stroke:#aebbc7;stroke-linecap:round;stroke-linejoin:round;stroke-width:0.5px"/><path d="M17.944,90.015a2.525,2.525,0,0,1-1.564-1.249l-1.174-2.207S12.6,82,12.6,70.805A86.007,86.007,0,0,1,13.4,60.083a1.58,1.58,0,0,1,1.106-1.269l2.844-.852c.382-.114.565-.053.911.6s2.067,4.133,2.591,5.119c.666,1.251.377,3.735.12,5.1a77.966,77.966,0,0,0-.878,12,48.287,48.287,0,0,0,.916,10.076Z" style="fill:#141b21;stroke:#aebbc7;stroke-linecap:round;stroke-linejoin:round"/><path d="M13.34,60.4c.224-1,.515-.783.879-.1.444.835,1.712,3.466,2.38,4.721a5.118,5.118,0,0,1,.51,3.762,77.56,77.56,0,0,0-.9,12.091c0,9.326.141,7.51-.445,6.46" style="fill:none;stroke:#aebbc7;stroke-linecap:round;stroke-linejoin:round;stroke-width:0.5px"/><path d="M158.85,127.031a22.986,22.986,0,0,1-17.733-7.264,25.111,25.111,0,0,1-6.61-13.111l-.1-.6c-.035-.2-.062-.422-.1-.538a1.373,1.373,0,0,0-.53-.731l-1.84-1.574a23.5,23.5,0,0,0-3.886-2.732,13.143,13.143,0,0,0-4.44-1.419,31.064,31.064,0,0,0-4.776-.246l-4.867,0L94.5,98.832,55.574,98.8l-19.465-.021-4.866,0a21.674,21.674,0,0,1-2.486-.076,11.048,11.048,0,0,1-2.474-.574,11.505,11.505,0,0,1-5.842-4.678l-1.272-2.086.288.216-1.175-.321L17.7,91.1a3.889,3.889,0,0,1-.648-.228,3.589,3.589,0,0,1-1.136-.813,4.673,4.673,0,0,1-.728-1.123,24.8,24.8,0,0,1-2.014-4.512,38.525,38.525,0,0,1-1.6-9.7,78.686,78.686,0,0,1,.113-9.785c.124-1.627.286-3.255.562-4.877a2.753,2.753,0,0,1,1.688-2.248c.859-.283,1.576-.48,2.369-.724l-.335.32a7.753,7.753,0,0,1,3.355-3.957A16.781,16.781,0,0,1,21.6,52.308c.757-.335,1.518-.665,2.289-.976a28.858,28.858,0,0,1,9.726-2.4l19.8-.031,39.557.009,19.779.014a80.243,80.243,0,0,1,9.934.493,30.378,30.378,0,0,1,9.659,2.625,21.352,21.352,0,0,1,7.682,6.443,48.241,48.241,0,0,1,4.972,8.649c1.381,3.012,2.644,6.068,3.836,9.143l.216.555a.481.481,0,0,0,.185.23.379.379,0,0,0,.275.034l.59-.177a18.378,18.378,0,0,1,2.456-.532,21.715,21.715,0,0,1,4.974-.222,43.484,43.484,0,0,0-4.844.868c-.79.2-1.565.441-2.331.694l-.585.208a1.266,1.266,0,0,1-.929-.054,1.339,1.339,0,0,1-.633-.664l-.245-.592c-1.246-3.049-2.47-6.1-3.853-9.077a47.333,47.333,0,0,0-4.875-8.461,20.327,20.327,0,0,0-7.333-6.139,29.364,29.364,0,0,0-9.342-2.516,78.916,78.916,0,0,0-9.809-.471l-19.779.014-39.557.008-19.758,0A27.844,27.844,0,0,0,24.275,52.3c-.758.3-1.51.63-2.261.96a15.818,15.818,0,0,0-2.143,1.074,6.724,6.724,0,0,0-2.935,3.422.518.518,0,0,1-.336.321l-2.283.69a1.719,1.719,0,0,0-1.066,1.471c-.271,1.574-.433,3.176-.557,4.781a77.611,77.611,0,0,0-.125,9.657,37.549,37.549,0,0,0,1.537,9.446,23.918,23.918,0,0,0,1.941,4.358,3.7,3.7,0,0,0,.58.917,2.607,2.607,0,0,0,.827.593,7.971,7.971,0,0,0,1.086.336l1.171.322a.49.49,0,0,1,.287.216l1.261,2.069a10.574,10.574,0,0,0,1.454,1.811,10.414,10.414,0,0,0,3.9,2.459,10.047,10.047,0,0,0,2.257.519,20.719,20.719,0,0,0,2.374.064l4.866-.005,19.465-.021,38.93-.029,19.464.017,4.867,0a32.06,32.06,0,0,1,4.932.266,14.191,14.191,0,0,1,4.777,1.538,24.525,24.525,0,0,1,4.058,2.858L134.458,104a2.443,2.443,0,0,1,.843,1.227,6.5,6.5,0,0,1,.124.658l.1.595a23.906,23.906,0,0,0,1.258,4.588,24.187,24.187,0,0,0,5.064,8A26.861,26.861,0,0,0,158.85,127.031Z" style="fill:#aebbc7"/><path d="M132.034,101.674l3.151,2.687,2.675-.606c4.535-5.24,6.689-11.016,10.5-16.749l1.1-3.808a3.3,3.3,0,0,0-.079-2.073c-.9-2.421-1.69-4.33-3.4-8.347-3.1-7.279-6.707-16.586-20.973-16.586H36.92c-1.928,0-3.746.354-5.961-3.135-.948-1.494-1.051-2.48.458-2.644" style="fill:none;stroke:#aebbc7;stroke-linecap:round;stroke-linejoin:round;stroke-width:0.5px"/></g><g id="a011400a-a05e-49d3-a68b-240d61ea0152" data-name="icons"><path d="M74.873,54.51h-.159a.586.586,0,0,1-.2-.04,4.448,4.448,0,0,1-1.752-1.405,1.088,1.088,0,0,1-.009-1.405c.021-.031.094-.041.153-.041a14.964,14.964,0,0,1,4.35.647,2.363,2.363,0,0,1,1.2.839.561.561,0,0,1-.155.829C77.543,54.47,75.487,54.51,74.873,54.51ZM73.2,51.872a1.033,1.033,0,0,0,.054,1.193,3.985,3.985,0,0,0,1.448,1.2,7.708,7.708,0,0,0,3.165-.515.422.422,0,0,0,.13-.647c-.317-.5-1.213-.859-2.674-1.072A17.14,17.14,0,0,0,73.2,51.872Z" style="fill:#aebbc7"/><path d="M71.535,51.619H68.621l.158.253h2.914Z" style="fill:#aebbc7"/><path d="M71.769,52.5h-2.6l.158.253h2.6Z" style="fill:#aebbc7"/><path d="M72.32,53.378h-2.6l.159.253h2.6Z" style="fill:#aebbc7"/><path d="M73.194,54.267H70.281l.158.253h2.914Z" style="fill:#aebbc7"/><path d="M91.275,54.53h-.159a.575.575,0,0,1-.2-.04,4.438,4.438,0,0,1-1.759-1.415,1.1,1.1,0,0,1-.015-1.415.215.215,0,0,1,.166-.051,14.991,14.991,0,0,1,4.37.647,2.36,2.36,0,0,1,1.206.849.561.561,0,0,1-.168.839C93.965,54.49,91.87,54.53,91.275,54.53Zm-1.712-2.668a1.053,1.053,0,0,0,.06,1.2,3.987,3.987,0,0,0,1.454,1.212,7.8,7.8,0,0,0,3.185-.515.437.437,0,0,0,.124-.657c-.317-.5-1.219-.869-2.7-1.082A19.364,19.364,0,0,0,89.563,51.862Z" style="fill:#aebbc7"/><path d="M89.517,54.288,86.9,54.6l.165.263,2.612-.324Z" style="fill:#aebbc7"/><path d="M88.623,53.4l-2.307.273.159.253,2.306-.273Z" style="fill:#aebbc7"/><path d="M88.065,52.509l-2.306.272.158.253,2.307-.273Z" style="fill:#aebbc7"/><path d="M87.839,51.609l-2.612.323.158.253L88,51.872Z" style="fill:#aebbc7"/><path d="M42.442,52.294l-.551-.879-3.6,1.683,5.729,1.71-.577-.921h3.126l-1-1.593Zm3.532,1.364H42.848l.44.7L39.06,53.1l2.659-1.241.417.665h3.126Z" style="fill:#aebbc7"/><path d="M47.216,52.294l1,1.593H51.34l.578.921L55.5,53.1l-5.713-1.683.551.879Zm.592.229h3.126l-.417-.665L54.733,53.1l-2.647,1.262-.441-.7H48.519Z" style="fill:#aebbc7"/><path d="M47.4,77.5l.156-.394a1.224,1.224,0,0,0-.925,0l.154.392A.813.813,0,0,1,47.4,77.5Zm2.661-.065a1.274,1.274,0,0,1,.326.846h-.415a.847.847,0,0,0-.187-.536Zm1.7,2.231a6.51,6.51,0,0,0-3.434-1.1V78.28a.846.846,0,0,1,.178-.52l-.294-.3h-.182l-.293.3a.846.846,0,0,1,.177.5v.306a6.535,6.535,0,0,0-3.433,1.092l-.156.118L46.3,82.864l.123.192.178-.141a2.265,2.265,0,0,1,.966-.36l.381.661h.493L48.3,83l-.276-.488h.1a2.443,2.443,0,0,1,1.5.412l.177.152,2.123-3.292Zm-5.228,2.794L44.89,79.888a6.042,6.042,0,0,1,.9-.444l1.558,2.722A2.806,2.806,0,0,0,46.535,82.459Zm3.158,0a3.111,3.111,0,0,0-1.571-.371,2.253,2.253,0,0,0-.333.016l-1.6-2.8a6.22,6.22,0,0,1,1.936-.315,6.325,6.325,0,0,1,3.231.913Zm-1.778-1.64v.7h.414v-.7Zm0-.564v-.706h.414v.706Zm-1.471-2.49-.3-.3a1.278,1.278,0,0,0-.29.816h.415A.831.831,0,0,1,46.444,77.765Zm3.17-.66-.154.394a.813.813,0,0,0-.615,0l-.156-.392A1.224,1.224,0,0,1,49.614,77.105Z" style="fill:#aebbc7;fill-rule:evenodd"/><path d="M85.474,78.809A7.009,7.009,0,0,0,77.73,78.8l-.181.133,2.106,3.294.139.216.2-.159a2.407,2.407,0,0,1,1.014-.379l.4.691.014-.008v0h.521l-.144-.23.012-.007-.283-.5H81.6a2.592,2.592,0,0,1,1.578.432l.2.172,2.274-3.516Zm-5.553,2.959-1.731-2.7a6.433,6.433,0,0,1,.928-.459l1.639,2.862A3.077,3.077,0,0,0,79.921,81.768Zm3.342.008a3.309,3.309,0,0,0-1.661-.4c-.121,0-.236,0-.345.014l-1.691-2.951a6.6,6.6,0,0,1,2.036-.328,6.7,6.7,0,0,1,3.41.959Z" style="fill:#aebbc7"/><path d="M110.62,84.03h.446V82.99h-.446Z" style="fill:#aebbc7"/><path d="M107.8,79.861h-1.04v.445h1.04Z" style="fill:#aebbc7"/><path d="M113.894,79.861v.445h1.04v-.445Z" style="fill:#aebbc7"/><path d="M107.8,82.816l.315.315.736-.735-.315-.315Z" style="fill:#aebbc7"/><path d="M112.843,82.4l.736.735.315-.315-.736-.735Z" style="fill:#aebbc7"/><path d="M108.853,77.776l-.734-.734-.317.315.736.735Z" style="fill:#aebbc7"/><path d="M113.9,77.357l-.315-.315-.737.734.316.316Z" style="fill:#aebbc7"/><path d="M112.153,78.009V76.6h-2.606v1.41a2.377,2.377,0,1,0,2.606,0Zm-2.16-.964h1.715v.743a2.35,2.35,0,0,0-1.715,0Zm.857,4.9a1.939,1.939,0,1,1,1.364-.568A1.934,1.934,0,0,1,110.85,81.941Z" style="fill:#aebbc7"/></g><g id="fc86bd92-df3f-4878-870a-841e05692ac6" data-name="arrows above"><path d="M13.013,62.7c.064-.535.26-.615.6.028.25.47,1.482,3.035,1.9,3.828a4.131,4.131,0,0,1,.293,2.4A70.425,70.425,0,0,0,14.9,80.6c0,3.488.452,5.707-.1,4.711" style="fill:none;stroke:#aebbc7;stroke-linecap:round;stroke-linejoin:round;stroke-width:0.5px"/><polygon points="69.283 41.041 66.704 37.357 62.609 37.357 67.118 31.309 81.633 37.351 76.504 37.351 79.083 41.036 69.283 41.041" style="fill:#f4ae3d;stroke:#141b21;stroke-miterlimit:10"/><polygon points="79.083 41.036 81.662 44.722 85.117 44.719 81.248 50.771 66.093 44.728 71.863 44.725 69.283 41.041 79.083 41.036" style="fill:#f4ae3d;stroke:#141b21;stroke-miterlimit:10"/></g></svg>