<?xml version="1.0" encoding="UTF-8"?><svg xmlns="http://www.w3.org/2000/svg" width="170" height="129" xmlns:xlink="http://www.w3.org/1999/xlink" viewBox="0 0 170 129"><defs><linearGradient id="uuid-f23215f0-6ec4-45b5-bdac-013c84be57c1" x1="6.649" y1="83.017" x2="23.849" y2="79.78" gradientUnits="userSpaceOnUse"><stop offset="0" stop-color="#404d59" stop-opacity="0"/><stop offset="1" stop-color="#404d59"/></linearGradient></defs><g id="uuid-c79a8f97-c4d4-4282-8039-05037acbaad3"><path d="m5.023,70.54c5.514,0,10.6,1.835,14.679,4.927.348.264.851.145,1.044-.247,11.88-24.123,14.137-36.308,29.749-36.308h83.339c1.354,0,2.693.274,3.938.805l6.508,2.775c1.099.469,1.813,1.549,1.813,2.744v33.692c0,1.119-.626,2.144-1.622,2.654l-6.429,3.296c-1.417.727-2.987,1.106-4.58,1.106H53.613c-3.559,0-7.018,1.174-9.842,3.341l-14.597,11.199c-.384.295-.662.701-.797,1.166-2.95,10.111-12.289,17.499-23.353,17.499" style="fill:url(#uuid-f23215f0-6ec4-45b5-bdac-013c84be57c1); stroke-width:0px;"/><path d="m5.024,69.915c5.388-.602,11.064,1.1,15.42,4.388.355.228-.295-.225-.512-.047-.276.035-.501.484-.409.328l.037-.079c3.891-7.924,7.954-17.848,12.328-25.504,4.114-7.292,9.982-11.801,18.651-11.562,14.167,0,52.353.065,67.006.088l11.168.018,5.615.02c1.948.031,3.877.824,5.582,1.595,0,0,5.182,2.215,5.182,2.215,1,.507,1.784,1.419,2.137,2.483.337.896.199,2.096.228,3.005-.025,5.574.04,16.764.024,22.335.004,2.587.007,7.239.01,9.781.027,1.673-1.126,3.333-2.622,3.974-1.266.632-3.709,1.92-4.966,2.552-1.719.939-3.568,1.744-5.543,1.854-1.85.071-6.514.032-8.437.045-17.945.012-55.027.008-72.576-.013-2.653.04-5.289.816-7.541,2.221-1.646,1.054-5.03,3.809-6.634,4.986,0,0-8.867,6.789-8.867,6.789l-.277.212c-.52.453-.477,1.227-.775,1.825-.956,2.711-2.383,5.256-4.186,7.494-4.715,5.89-12.413,9.99-20.042,8.893,9.072-1.151,17.817-5.912,21.781-14.386.594-1.228,1.071-2.483,1.459-3.793.134-.474.457-.929.85-1.222,0,0,.277-.213.277-.213l8.853-6.807c1.719-1.283,5.005-3.956,6.746-5.086,2.486-1.557,5.394-2.421,8.327-2.471,20.261-.034,57.676-.044,78.188-.018,2.26.057,4.432.01,6.44-1.069,0,0,1.241-.634,1.241-.634l2.486-1.271,2.486-1.271c1.122-.492,1.751-1.455,1.786-2.61.007-2.515.006-7.204.011-9.763-.024-5.56.039-16.775.024-22.335-.052-.622.112-1.958-.146-2.538-.232-.705-.75-1.31-1.411-1.647l-5.083-2.182c-1.683-.742-3.252-1.424-5.076-1.463,0,0-5.552-.001-5.552-.001l-11.168.018c-14.829.027-52.676.085-67.006.088-7.996-.243-13.372,3.981-17.218,10.719-4.351,7.504-8.527,17.509-12.408,25.315,0,0-.037.079-.037.079.069-.104-.186.402-.521.453-.238.173-.864-.193-.745-.146-4.234-3.213-9.235-5.037-14.584-5.642h0Z" style="fill:#aebbc7; stroke-width:0px;"/><path d="m126.837,71.694c0,3.182-2.004,5.785-4.454,5.785H41.162c-2.202,0-4.004-2.34-4.004-5.199v-6.883c0-1.338.419-3.382.931-4.543l4.215-9.554c1.285-2.914,4.453-5.298,7.039-5.298h73.04c2.45,0,4.454,2.603,4.454,5.785v19.907Z" style="fill:none; stroke:#aebbc7; stroke-miterlimit:10;"/><path d="m40.912,75.901c-1.538,0-2.789-1.625-2.789-3.622v-6.883c0-1.072.36-2.828.771-3.759l4.214-9.554c1.077-2.442,3.818-4.505,5.985-4.505h70.686c1.787,0,3.24,1.887,3.24,4.207v19.908c0,2.32-1.453,4.207-3.24,4.207H40.912Z" style="fill:none; stroke:#aebbc7; stroke-miterlimit:10; stroke-width:.5px;"/><path d="m42.377,74.323c-.853,0-1.574-.936-1.574-2.044v-6.883c0-.788.308-2.289.61-2.974l4.214-9.554c.857-1.942,3.207-3.711,4.931-3.711h65.002c1.396,0,2.531,1.18,2.531,2.63v19.908c0,1.45-1.135,2.629-2.531,2.629H42.377Z" style="fill:none; stroke:#aebbc7; stroke-miterlimit:10;"/><path d="m53.613,85.983h-8.522c-2.089,0-5.076,1.783-8.101,4.633" style="fill:none; stroke:#aebbc7; stroke-linecap:round; stroke-linejoin:round; stroke-width:.5px;"/><path d="m20.456,75.809l-.509,4.256c3.729,3.931,6.017,9.242,6.02,15.088l2.967,5.553,14.836-11.383c2.824-2.166,6.283-3.341,9.842-3.341h79.849c1.593,0,3.163-.379,4.58-1.106l6.429-3.296c.996-.51,1.622-1.535,1.622-2.654v-33.692c0-1.195-.713-2.275-1.813-2.744l-6.508-2.775c-1.245-.531-2.585-.805-3.938-.805H50.495c-15.738,0-17.904,12.383-30.039,36.896Z" style="fill:none; stroke:#aebbc7; stroke-linecap:round; stroke-linejoin:round; stroke-width:.5px;"/><path d="m145.386,43.266H50.495c-12.648,0-17.134,9.564-30.548,36.8" style="fill:none; stroke:#aebbc7; stroke-linecap:round; stroke-linejoin:round; stroke-width:.5px;"/><path d="m25.967,95.154c4.158-6.154,12.515-14.403,19.123-14.403h100.331" style="fill:none; stroke:#aebbc7; stroke-linecap:round; stroke-linejoin:round; stroke-width:.5px;"/><path d="m122.133,38.913h4.493c.787,0,1.538.327,2.075.902l2.06,2.208c.68.729,1.164,1.757,1.164,2.753v34.465c0,1.167-.368,2.449-1.164,3.303l-2.368,2.538c-.537.575-1.288.902-2.075.902h-4.546" style="fill:none; stroke:#aebbc7; stroke-linecap:round; stroke-linejoin:round; stroke-width:.5px;"/><path d="m150.929,56.338v11.204c0,.78-.11,1.511-.3,2.151-.04.13-.08.25-.13.37l-1.721,5.192c-.03.13-.08.25-.12.37-.45,1.2-1.21,1.991-2.081,1.991h-8.683c-1.39,0-2.511-2.021-2.511-4.501v-22.347c0-2.481,1.12-4.501,2.511-4.501h8.683c.87,0,1.631.79,2.081,1.991.04.12.09.24.12.37l1.721,5.192c.05.12.09.24.13.37.19.64.3,1.37.3,2.151Z" style="fill:#f4ae3d; stroke:#141b21; stroke-miterlimit:10;"/><path d="m146.576,74.619h-5.837c-.462,0-.838-.673-.838-1.5v-22.347c0-.827.376-1.5.838-1.5h5.837" style="fill:none; stroke:#141b21; stroke-linecap:round; stroke-linejoin:round;"/><path d="m146.576,49.271c.283,0,.537.244.696.669l.042.113.035.114,1.742,5.264.068.184c.069.228.101.465.101.729v11.204c0,.263-.032.501-.095.708l-.098.277-1.743,5.267-.023.078-.028.068c-.161.429-.415.673-.698.673" style="fill:none; stroke:#141b21; stroke-miterlimit:10; stroke-width:.5px;"/><path d="m140.739,49.271h4.17c.283,0,.537.244.696.669l.042.113.035.114,1.742,5.264.068.184c.069.228.101.465.101.729v11.204c0,.263-.032.501-.095.708l-.098.277-1.743,5.267-.023.078-.028.068c-.161.429-.415.673-.698.673h-4.17" style="fill:none; stroke:#141b21; stroke-miterlimit:10;"/><path d="m140.686,77.465c-1.634,0-2.913-2.119-2.913-4.824v-21.401c0-2.705,1.279-4.824,2.913-4.824" style="fill:none; stroke:#141b21; stroke-linecap:round; stroke-linejoin:round; stroke-width:.5px;"/><path d="m100.194,57.078l-.684-1.675h-.171v1.675h-.954v-4.765h1.296c.877,0,1.428.64,1.428,1.579,0,.565-.231,1.028-.629,1.287l.794,1.9h-1.081Zm-.855-2.703h.342c.281,0,.452-.15.452-.484,0-.34-.171-.483-.452-.483h-.342s0,.967,0,.967Z" style="fill:#aebbc7; stroke-width:0px;"/><path d="m100.437,64.08l-1.34-2.471-.149-.334v2.805h-.954v-4.765h.954l1.334,2.498.154.34v-2.839h.954v4.765h-.954Z" style="fill:#aebbc7; stroke-width:0px;"/><path d="m101.535,68.7c0,1.395-.783,2.383-2.024,2.383h-1.489v-4.765h1.489c1.241,0,2.024.987,2.024,2.383Zm-2.559,1.287h.535c.678,0,1.031-.456,1.031-1.287s-.353-1.287-1.031-1.287h-.535v2.573Z" style="fill:#aebbc7; stroke-width:0px;"/><path d="m111.213,60.915c0,.912-.552,1.6-1.428,1.6h-.37s0,1.566,0,1.566h-.954s0-4.765,0-4.765h1.323c.877,0,1.428.66,1.428,1.6Zm-1.798.504h.37c.281,0,.452-.17.452-.504,0-.34-.171-.504-.452-.504h-.37s0,1.007,0,1.007Z" style="fill:#aebbc7; stroke-width:0px;"/><polygon points="75.961 58.401 76.544 58.401 75.377 67.66 74.793 67.66 75.961 58.401" style="fill:#aebbc7; stroke-width:0px;"/><polygon points="83.866 58.401 83.283 58.401 84.45 67.66 85.034 67.66 83.866 58.401" style="fill:#aebbc7; stroke-width:0px;"/><path d="m79.919,60.248c.229,0,.458.033.678.098,1.765.527,2.153,2.379,2.22,2.743h-1.379c-.016-.252-.179-.46-.387-.481-.244-.024-.639-.051-1.122-.051s-.877.028-1.122.051c-.208.019-.37.227-.387.481h-1.375c.253-1.363,1.121-2.435,2.222-2.75.212-.061.432-.091.652-.091Zm-.005-.45c-.218,0-.436.027-.647.08-1.516.382-2.661,2.045-2.661,4.033,0,1.502.662,2.886,1.727,3.61l.041.028h3.116s.041-.028.041-.028c1.064-.724,1.726-2.107,1.726-3.61,0-1.117-.516-3.454-2.661-4.024-.223-.059-.453-.089-.683-.089Zm-1.133,3.333c0-.039.024-.072.054-.075.238-.022.622-.049,1.094-.049s.855.027,1.093.049c.031.003.056.034.056.075v1.127c0,.222-.062.439-.175.611l-.178.27c-.081.122-.201.194-.329.194h-.934c-.128,0-.248-.07-.329-.194l-.178-.27c-.114-.172-.175-.39-.175-.611v-1.127Zm-1.812.779c0-.125.005-.251.016-.373h1.434v.72c0,.06.004.118.01.176h-1.428c-.021-.172-.031-.345-.031-.523Zm1.498,3.191c-.692-.488-1.188-1.293-1.393-2.22h1.462c.037.096.083.187.138.269l.178.27c.057.087.123.158.198.215l.164,1.444c.001.007.002.013.004.019h-.751s0,.003,0,.003Zm1.821-.076c-.005.043-.035.076-.07.076h-.574c-.035,0-.065-.033-.07-.079l-.141-1.242c.01,0,.021.001.03.001h.934c.011,0,.021-.001.031-.001l-.139,1.245Zm1.108.076h-.751c.001-.006.002-.012.004-.018l.162-1.447c.074-.057.141-.128.197-.215l.178-.27c.054-.084.1-.175.138-.269h1.466c-.206.926-.701,1.73-1.393,2.219Zm.035-2.668c.006-.058.01-.116.01-.176v-.72h1.435c.01.124.017.248.017.373,0,.176-.011.351-.031.523h-1.431Z" style="fill:#aebbc7; stroke:#aebbc7; stroke-miterlimit:10; stroke-width:.5px;"/><path d="m81.594,57.614l-.516-1.296c-.036-.087-.116-.187-.293-.187h-1.772c-.076,0-.168.081-.212.187l-.516,1.296h-.377v.329h.365v1.263h.267s0-.557,0-.557h2.784v.557s.267,0,.267,0v-1.263h.364v-.329h-.361Zm-2.56-1.135l.004-.011s.003-.004.004-.007h1.741c.041,0,.057.01.057.008l.444,1.146h-2.691l.44-1.136Z" style="fill:#aebbc7; stroke:#aebbc7; stroke-miterlimit:10; stroke-width:.5px;"/><path d="m69.433,60.472l1.817,2.121,1.817-2.119h-.579s-1.238,1.441-1.238,1.441l-1.236-1.443h-.581Z" style="fill:#aebbc7; stroke:#aebbc7; stroke-miterlimit:10; stroke-width:.5px;"/><path d="m93.38,60.28l1.236-1.443,1.238,1.441h.579s-1.817-2.119-1.817-2.119l-1.817,2.121h.581Z" style="fill:#aebbc7; stroke:#aebbc7; stroke-miterlimit:10; stroke-width:.5px;"/><path d="m114.889,63.274l-1.169-1.526,1.168-1.528v-.715s-1.717,2.243-1.717,2.243l1.718,2.243v-.717Z" style="fill:#aebbc7; stroke:#aebbc7; stroke-miterlimit:10; stroke-width:.5px;"/><path d="m92.8,63.212l1.817,2.121,1.817-2.119h-.579s-1.238,1.441-1.238,1.441l-1.236-1.443h-.581Z" style="fill:#aebbc7; stroke:#aebbc7; stroke-miterlimit:10; stroke-width:.5px;"/><path d="m69.433,63.178l1.817,2.121,1.817-2.119h-.579s-1.238,1.441-1.238,1.441l-1.236-1.443h-.581Z" style="fill:#aebbc7; stroke:#aebbc7; stroke-miterlimit:10; stroke-width:.5px;"/></g><g id="uuid-7ac61e56-3ab5-49a2-9e88-72de9180e3d2"><line x1="165.829" y1="62.245" x2="146.09" y2="62.245" style="fill:none; stroke:#141b21; stroke-width:3px;"/><rect x="153.266" y="59.745" width="12.563" height="5" style="fill:none; stroke:#141b21; stroke-width:3px;"/><polygon points="154.725 57.259 146.09 62.245 154.725 67.231 154.725 57.259" style="fill:none; stroke:#141b21; stroke-width:3px;"/><line x1="165.829" y1="62.245" x2="153.266" y2="62.245" style="fill:none; stroke:#f4ae3d; stroke-miterlimit:10; stroke-width:5px;"/><polygon points="154.725 57.259 146.09 62.245 154.725 67.231 154.725 57.259" style="fill:#f4ae3d; stroke-width:0px;"/></g></svg>