<?xml version="1.0" encoding="UTF-8"?><svg id="uuid-7d2081b1-5eef-488c-bd15-cb0dbdca6c1e" xmlns="http://www.w3.org/2000/svg" width="39" height="39" viewBox="0 0 39 39"><circle cx="19.5" cy="19.5" r="18.4757" style="fill:#f4ae3d;"/><path d="m14.5059,25.2016c-1.6305.0983-4.1689,1.8063-5.1321-.022-.7716-1.4647.6358-2.8113,1.8539-4.4322.9776-1.3011,1.8733-2.6268,2.8919-3.9522,1.4268-1.8567,2.5308-1.3486,5.3627-1.3486,5.2397-.0003,3.9259-.6386,8.3018,5.3721.6553.9001,2.6966,2.8149,1.7672,4.441-1.0212,1.7869-3.5503-.0782-5.0673-.0282l-.0732,2.7813-9.8915-.005-.0134-2.8061h0Zm4.4151-16.8852c1.9018-.4917,3.4174.913,3.7612,2.374.4459,1.8959-.8212,3.4588-2.3254,3.8435-3.9338,1.0059-5.9383-5.0532-1.4358-6.2175h0Zm-.4049-5.1107C9.779,3.7777,2.5751,11.1858,3.2122,20.6261c.5828,8.6342,8.0366,15.8125,17.4336,15.1816,8.5871-.5765,15.7733-8.0278,15.1674-17.3556-.5605-8.6309-7.9825-15.8561-17.2972-15.2464h0Z" style="fill:#141b21; fill-rule:evenodd;"/><path d="m18.5161,3.2057c9.3147-.6097,16.7367,6.6155,17.2972,15.2464.6059,9.3277-6.5804,16.779-15.1674,17.3556-9.397.6309-16.8508-6.5474-17.4336-15.1816C2.5751,11.1858,9.779,3.7777,18.5161,3.2057h0ZM1.1883,19.9128c-.2558.1713.1825-.2489,0,0,.1882.7045-.025,1.0297.1408,1.9834.5044,2.8989,1.3679,5.7376,3.1305,8.0819l2.6616,3.0036c.8368.8068.7795.7987,1.8788,1.544.445.3016.8813.6241,1.3556.8871,8.5201,4.7244,18.3955,2.447,24.1343-5.3314.2926-.3969.648-.9028.8869-1.3555,1.5164-2.8716,1.734-3.7395,2.3096-6.8966.132-.7238.0414-1.1754.2078-1.7985h0c0-4.4425-1.4711-8.9734-4.1657-12.1218l-1.1152-1.2452c-7.3795-7.3058-18.7062-7.4365-26.1433.0006-.8384.8383-1.4408,1.519-2.0956,2.5076-.7446,1.1248-1.0812,1.6826-1.6504,2.9524-1.0059,2.2428-1.5357,4.5361-1.5357,7.7884h0Z" style="fill:#f4ae3d; fill-rule:evenodd;"/><path d="m14.5011,21.4387l.0232-3.7539c1.1239.3103,4.0074,1.4854,4.9629,1.5146.9869.0298,3.688-1.2582,4.9534-1.4992l.037,3.7239c-1.4068-.1881-2.3617-.2118-2.738.9875-.1577.5022-.0784,1.0326.1465,1.4667.3134.6053.5175.4558,1.0996.8734-.2889.2685-2.9388,1.1719-3.5032,1.1703-.6334-.0018-3.1458-.8605-3.5358-1.1776.8066-.4112,1.705-.9805,1.2968-2.3589-.339-1.1445-1.4391-1.148-2.7424-.9469h0Zm.0048,3.7629l.0134,2.8061,9.8915.005.0732-2.7813c1.517-.05,4.0461,1.8152,5.0673.0282.9294-1.6261-1.1119-3.541-1.7672-4.441-4.3759-6.0107-3.0621-5.3724-8.3018-5.3721-2.8319,0-3.9359-.5081-5.3627,1.3486-1.0186,1.3254-1.9143,2.6512-2.8919,3.9522-1.2181,1.621-2.6256,2.9675-1.8539,4.4322.9632,1.8283,3.5016.1203,5.1321.022h0Z" style="fill:#f4ae3d; fill-rule:evenodd;"/><path d="m14.5011,21.4387c1.3033-.2011,2.4034-.1976,2.7424.9469.4082,1.3784-.4902,1.9477-1.2968,2.3589.3899.3171,2.9024,1.1758,3.5358,1.1776.5644.0016,3.2143-.9018,3.5032-1.1703-.5821-.4176-.7861-.2681-1.0996-.8734-.2249-.4342-.3042-.9645-.1465-1.4667.3763-1.1994,1.3313-1.1756,2.738-.9875l-.037-3.7239c-1.2654.241-3.9664,1.529-4.9534,1.4992-.9555-.0293-3.8391-1.2043-4.9629-1.5146l-.0232,3.7539h0Z" style="fill:#141b21; fill-rule:evenodd;"/><path d="m18.9209,8.3164c-4.5025,1.1643-2.498,7.2234,1.4358,6.2175,1.5043-.3847,2.7713-1.9476,2.3254-3.8435-.3438-1.4611-1.8594-2.8658-3.7612-2.374h0Z" style="fill:#f4ae3d; fill-rule:evenodd;"/></svg>