<svg xmlns="http://www.w3.org/2000/svg" width="218" height="202.7031" viewBox="0 0 218 202.7031"><g id="e878dbfd-b594-42ce-918f-e68ed425d055" data-name="below"><path d="M36.1157,173.9368v5.8225l6.4626,5.2628c4.0073.2866,52.0473,3.5429,52.0473,3.5429l18.1765-5.2487V181.07l-9.97-2.6206L87.6938,177.2a35.95,35.95,0,0,1-5.3534,1.7643c-3.3412.8167-11.3057,1.9923-12.507,2.0575a33.5922,33.5922,0,0,1-24.681-8.76Z" style="fill:#404d59"/><path d="M43.8783,172.7146l-7.7158,1.4678.2032-.2455v5.8223l-.092-.1937,6.4624,5.2627-.1407-.0555,52.047,3.5428-.0861.0093,18.1764-5.2486-.1806.24V181.07l.1864.2416-9.97-2.62.0485.0077-12.6385-.75a.75.75,0,0,1,.0888-1.4974l12.6386.75a1.3287,1.3287,0,0,1,.2439.0389l9.97,2.6206a1.2517,1.2517,0,0,1,.9323,1.2091v2.2461a1.2521,1.2521,0,0,1-.9033,1.2011l-18.1764,5.2486a1.2777,1.2777,0,0,1-.4318.0462l-52.0471-3.5429a1.2436,1.2436,0,0,1-.7046-.2779l-6.4624-5.2627a1.2594,1.2594,0,0,1-.4608-.9694v-5.8223a1.2508,1.2508,0,0,1,1.0165-1.2281l7.7158-1.4678a.75.75,0,0,1,.28,1.4736Z" style="fill:#aebbc7"/><path d="M36.1157,173.9368l8.53.5594c0,5.8307,2.8205,7.0564,6.7132,7.3348l29.97,2.1046,13.2963,2.4334v2.196" style="fill:none;stroke:#aebbc7;stroke-linecap:round;stroke-linejoin:round;stroke-width:0.5px"/><polyline points="79.429 180.182 92.042 181.073 105.228 183.536 105.228 185.732" style="fill:none;stroke:#aebbc7;stroke-linecap:round;stroke-linejoin:round;stroke-width:0.5px"/><line x1="94.6256" y1="186.369" x2="112.8021" y2="181.0699" style="fill:none;stroke:#aebbc7;stroke-linecap:round;stroke-linejoin:round;stroke-width:0.5px"/><line x1="81.3293" y1="183.9356" x2="103.0229" y2="178.5181" style="fill:none;stroke:#aebbc7;stroke-linecap:round;stroke-linejoin:round;stroke-width:0.5px"/><path d="M110.4657,159.607v4.3757l4.8568,3.7305c3.0116.2154,39.115,2.6625,39.115,2.6625l13.66-4.1692v-1.2388l-7.493-1.9694-8.5664-.7071c-2.5114,1.0519-8.099,4.3071-16.6349,3.8028-10.6989-.632-15.1067-2.839-20.24-7.3807Z" style="fill:#404d59"/><path d="M115.1948,158.877l-4.6978.8937.1354-.1637v4.3757l-.0651-.1321,4.8567,3.73-.09-.034,39.1149,2.6626-.06.0068,13.66-4.1692-.1179.1593v-1.2386l.1242.1611-7.4928-1.9694.0322.0052-7.9066-.469a.5.5,0,0,1,.0592-.9983l7.9067.469a.8878.8878,0,0,1,.1627.026l7.4928,1.9693a.8347.8347,0,0,1,.6216.8061v1.2386a.835.835,0,0,1-.59.7972l-13.66,4.1692a.8489.8489,0,0,1-.3.0343l-39.1148-2.6625a.8278.8278,0,0,1-.4512-.1706l-4.8566-3.73a.8405.8405,0,0,1-.3258-.661V159.607a.8339.8339,0,0,1,.6777-.8187l4.6978-.8937a.5.5,0,0,1,.1869.9824Z" style="fill:#aebbc7"/><path d="M110.4657,159.607l6.4108.42c0,4.3819,2.12,5.303,5.0451,5.5123l22.5234,1.5817,9.9925,1.8287v1.4256" style="fill:none;stroke:#aebbc7;stroke-linecap:round;stroke-linejoin:round;stroke-width:0.5px"/><polyline points="146.939 164.577 152.496 164.97 162.406 166.821 162.406 168.471" style="fill:none;stroke:#aebbc7;stroke-linecap:round;stroke-linejoin:round;stroke-width:0.5px"/><line x1="154.4375" y1="168.9501" x2="168.0977" y2="164.9677" style="fill:none;stroke:#aebbc7;stroke-linecap:round;stroke-linejoin:round;stroke-width:0.5px"/><line x1="144.445" y1="167.1214" x2="160.7484" y2="163.05" style="fill:none;stroke:#aebbc7;stroke-linecap:round;stroke-linejoin:round;stroke-width:0.5px"/><polygon points="50.24 184.389 47.205 184.173 47.205 182.525 50.24 182.742 50.24 184.389" style="fill:none;stroke:#aebbc7;stroke-linecap:round;stroke-linejoin:round;stroke-width:0.5px"/><polygon points="56.31 184.823 53.275 184.606 53.275 182.959 56.31 183.176 56.31 184.823" style="fill:none;stroke:#aebbc7;stroke-linecap:round;stroke-linejoin:round;stroke-width:0.5px"/><polygon points="62.38 185.257 59.345 185.04 59.345 183.392 62.38 183.609 62.38 185.257" style="fill:none;stroke:#aebbc7;stroke-linecap:round;stroke-linejoin:round;stroke-width:0.5px"/><polygon points="68.45 185.69 65.415 185.473 65.415 183.826 68.45 184.043 68.45 185.69" style="fill:none;stroke:#aebbc7;stroke-linecap:round;stroke-linejoin:round;stroke-width:0.5px"/><polygon points="74.519 186.124 71.484 185.907 71.484 184.259 74.519 184.476 74.519 186.124" style="fill:none;stroke:#aebbc7;stroke-linecap:round;stroke-linejoin:round;stroke-width:0.5px"/><polygon points="80.589 186.557 77.554 186.34 77.554 184.693 80.589 184.91 80.589 186.557" style="fill:none;stroke:#aebbc7;stroke-linecap:round;stroke-linejoin:round;stroke-width:0.5px"/><polygon points="124.291 167.551 122.414 167.417 122.414 166.398 124.291 166.532 124.291 167.551" style="fill:none;stroke:#aebbc7;stroke-linecap:round;stroke-linejoin:round;stroke-width:0.5px"/><polygon points="128.043 167.819 126.167 167.685 126.167 166.666 128.043 166.8 128.043 167.819" style="fill:none;stroke:#aebbc7;stroke-linecap:round;stroke-linejoin:round;stroke-width:0.5px"/><polygon points="131.796 168.087 129.919 167.953 129.919 166.934 131.796 167.068 131.796 168.087" style="fill:none;stroke:#aebbc7;stroke-linecap:round;stroke-linejoin:round;stroke-width:0.5px"/><polygon points="135.548 168.355 133.672 168.221 133.672 167.202 135.548 167.336 135.548 168.355" style="fill:none;stroke:#aebbc7;stroke-linecap:round;stroke-linejoin:round;stroke-width:0.5px"/><polygon points="139.301 168.623 137.424 168.489 137.424 167.47 139.301 167.604 139.301 168.623" style="fill:none;stroke:#aebbc7;stroke-linecap:round;stroke-linejoin:round;stroke-width:0.5px"/><polygon points="143.053 168.891 141.177 168.757 141.177 167.738 143.053 167.872 143.053 168.891" style="fill:none;stroke:#aebbc7;stroke-linecap:round;stroke-linejoin:round;stroke-width:0.5px"/></g><g id="ed54dbdc-b4c3-4036-a2e7-d1d394dc21c5" data-name="illustration"><path d="M119.9542,160.4174a27.7532,27.7532,0,0,0,10.264,2.2835,29.8593,29.8593,0,0,0,10.392-1.38,25.2816,25.2816,0,0,0,9.0934-5.1432,27.7244,27.7244,0,0,0,3.6338-3.82,33.13,33.13,0,0,0,2.989-4.3712,29.7088,29.7088,0,0,1-6.3668,8.4784,25.055,25.055,0,0,1-9.1961,5.3314,29.366,29.366,0,0,1-10.5629,1.287A25.7713,25.7713,0,0,1,119.9542,160.4174Z" style="fill:#687581"/><path d="M110.2881,151.31s2.2279,6.4627,10.58,11.2336c4.5506,2.5994,10.2094,3.5717,16.0027,3.5717,18.4345,0,29.1517-14.2248,31.8625-24.1086" style="fill:none;stroke:#687581;stroke-miterlimit:10"/><path d="M111.0056,148.8646c9.3442-.0808,18.6909-.6894,27.9824-1.6983,4.6447-.5185,9.2769-1.16,13.87-2.0088,4.5975-.8259,9.121-1.9967,13.63-3.24,9.0049-2.5068,17.9482-5.2913,26.6966-8.5711a15.5187,15.5187,0,0,0,5.9544-3.3887,22.3168,22.3168,0,0,0,2.1538-2.7154,16.6634,16.6634,0,0,0,1.7443-2.9845,69.688,69.688,0,0,0,4.1162-13.3342l.0843.2443-2.5715-2.1447a.2528.2528,0,0,1-.0682-.2939,20.7265,20.7265,0,0,0,1.4214-3.599c.3146-1.2533.5748-2.5388.8452-3.8125.5312-2.5529.9792-5.1217,1.42-7.6968.2-1.2948.5156-2.5671.5985-3.8462.097-1.2889.1076-2.5913.0918-3.8922-.039-2.6034-.1915-5.2086-.3849-7.8091l.0667.1517-.3988-.4261a.2506.2506,0,0,1-.0592-.235l.427-1.611-.0065.0944-.7771-6.7227.0368.1085-.4852-.7763a.2493.2493,0,0,1-.0371-.1545l.097-1.1062.0033.0674A198.3483,198.3483,0,0,0,199.1889,38.22c-.8556-2.39-1.7613-4.75-2.703-7.1139-.9136-2.3869-1.5548-4.8515-2.5738-7.1507a19.0435,19.0435,0,0,0-4.2538-6.1419,30.7675,30.7675,0,0,0-6.0614-4.4746C174.73,8.5363,165.0954,4.8147,155.0454,3.555c-10.0663-1.2643-20.2436-.1508-30.3647.3606C104.415,5.1809,84.1631,6.6744,63.9127,8.1814q-30.3816,2.1855-60.75,4.5567c20.1744-2.4556,40.4042-4.2692,60.64-6.01q30.3693-2.4258,60.7792-4.4095c5.0745-.3023,10.13-.6563,15.2392-.87a92.0989,92.0989,0,0,1,15.4263.5062,71.4892,71.4892,0,0,1,15.05,3.67c2.418.8906,4.81,1.8421,7.1494,2.8979a67.8726,67.8726,0,0,1,6.9367,3.469,32.3112,32.3112,0,0,1,6.3565,4.7158,20.6077,20.6077,0,0,1,4.5753,6.6283c1.0786,2.4553,1.7167,4.9415,2.5918,7.2286.9233,2.3289,1.849,4.7526,2.7006,7.1451a201.337,201.337,0,0,1,8.3237,29.48,1.2133,1.2133,0,0,1,.0177.3274l-.0013.011-.097,1.1063-.1852-.7716.4852.7763a1.243,1.243,0,0,1,.181.512l.0034.0316.7727,6.6825.0011.0092a1.2708,1.2708,0,0,1-.0335.4638l-.427,1.6109-.2956-1.1742.3988.4261a1.2469,1.2469,0,0,1,.3339.76c.195,2.6231.3493,5.2487.3891,7.9021.0157,1.3286.0064,2.66-.0964,4.0307-.0216.3408-.0657.6923-.1072,1.0434-.0544.3673-.1119.7185-.17,1.0214l-.338,1.9186c-.44,2.57-.8924,5.1672-1.4289,7.7456-.2754,1.295-.5277,2.5507-.862,3.8844a12.6232,12.6232,0,0,1-.6944,2.0352l-.8089,1.798-.3411-1.4683,2.5714,2.1448a1.252,1.252,0,0,1,.4214,1.2229c-.5041,2.3186-1.0822,4.614-1.76,6.892a50.7192,50.7192,0,0,1-2.4635,6.761c-.26.5555-.5332,1.1086-.8551,1.6567a17.4391,17.4391,0,0,1-1.0265,1.5635,23.6442,23.6442,0,0,1-2.3052,2.8962,12.2188,12.2188,0,0,1-3.133,2.2911,33.3582,33.3582,0,0,1-3.3538,1.4471c-8.8338,3.3114-17.7823,6.0958-26.8368,8.6172-4.512,1.2444-9.1014,2.4324-13.7545,3.2684-4.64.8575-9.3048,1.503-13.9779,2.0249-9.352,1.0147-18.72,1.6255-28.143,1.7074a.75.75,0,0,1-.013-1.5h.0077Z" style="fill:#687581"/><path d="M1.2351,144.49l25.2144-.4738a.7255.7255,0,0,1,.7333.634l.0031.026.1994,1.6359a.8921.8921,0,0,0,.5376.6835,2.7114,2.7114,0,0,0,.317.0915l.4029.1057.8056.2115,1.6111.4231a.75.75,0,1,1-.381,1.4508h0l-1.6279-.4275-.8139-.2139-.407-.1069a3.3879,3.3879,0,0,1-.4836-.15,2.3951,2.3951,0,0,1-1.4427-1.836l-.2064-1.6883.7361.66Z" style="fill:#687581"/><g id="baa8ddbd-f196-4ad9-a442-8b97a133bb7a" data-name="Offset Group"><path d="M103.3089,111.9082c-5.8326-7.706-14.0395-12.9788-23.1968-14.332a140.0545,140.0545,0,0,0-16.0444-.6324A32.8747,32.8747,0,0,0,50.616,100.86,37.1231,37.1231,0,0,0,38.73,111.1966a45.6823,45.6823,0,0,0-8.7373,30.6908,49.1556,49.1556,0,0,0,.8671,6.4192A43.9842,43.9842,0,0,0,46.87,174.6426a33.9268,33.9268,0,0,0,23.004,7.128c1.2569-.0682,9.2681-1.2526,12.6445-2.0779a38.1285,38.1285,0,0,0,21.343-14.2553,43.142,43.142,0,0,0,8.4237-27.8539" style="fill:none;stroke:#687581;stroke-miterlimit:10;stroke-width:0.5px"/><path d="M103.11,112.0591C97.3113,104.3985,89.16,99.1659,80.0756,97.8235a139.9778,139.9778,0,0,0-15.9909-.63,32.6232,32.6232,0,0,0-13.35,3.8868,36.8731,36.8731,0,0,0-11.806,10.2673A45.4322,45.4322,0,0,0,30.2417,141.87a48.9027,48.9027,0,0,0,.8626,6.3866,43.7345,43.7345,0,0,0,15.9171,26.1869,33.6791,33.6791,0,0,0,22.8391,7.0773c1.2383-.0672,9.2339-1.2487,12.5986-2.0711a37.8794,37.8794,0,0,0,21.2027-14.1628,42.8924,42.8924,0,0,0,8.3736-27.6935" style="fill:none;stroke:#687581;stroke-miterlimit:10;stroke-width:0.5px"/><path d="M102.91,112.21c-5.7639-7.6153-13.86-12.8075-22.8712-14.1392a139.9674,139.9674,0,0,0-15.9373-.6281A32.3747,32.3747,0,0,0,50.8538,101.3a36.6242,36.6242,0,0,0-11.7255,10.1982,45.1822,45.1822,0,0,0-8.6372,30.3549,48.6421,48.6421,0,0,0,.8582,6.3538,43.4846,43.4846,0,0,0,15.8235,26.0378,33.4312,33.4312,0,0,0,22.6742,7.0266c1.22-.0662,9.2-1.2447,12.5527-2.0643a37.6288,37.6288,0,0,0,21.0624-14.07,42.6428,42.6428,0,0,0,8.3235-27.533" style="fill:none;stroke:#687581;stroke-miterlimit:10;stroke-width:0.5px"/></g><path d="M102.7109,112.3608c-5.73-7.57-13.77-12.7218-22.7084-14.0427a139.9155,139.9155,0,0,0-15.8837-.626c-20.0178,1.367-34.9656,21.1366-33.3783,44.1438a48.4016,48.4016,0,0,0,.8538,6.3212c4.0315,19.8311,20.0951,34.1231,38.2391,32.8646,1.2013-.0652,9.1658-1.2408,12.507-2.0575,17.1867-4.2012,30.0222-20.8449,29.1954-41.3505" style="fill:none;stroke:#687581;stroke-miterlimit:10;stroke-width:0.5px"/><path d="M54.6117,174.3747a33.056,33.056,0,0,1-8.8306-5.352,36.77,36.77,0,0,1-6.8349-7.7786,40.901,40.901,0,0,1-2.7292-39.7414,36.8006,36.8006,0,0,1,5.7074-8.64,33.0574,33.0574,0,0,1,8.0169-6.5082,32.9378,32.9378,0,0,0-7.8335,6.67,36.7145,36.7145,0,0,0-5.59,8.62,41.7629,41.7629,0,0,0,2.7061,39.4184,36.7414,36.7414,0,0,0,6.7158,7.7754A32.9377,32.9377,0,0,0,54.6117,174.3747Z" style="fill:#687581"/><path d="M76.1647,104.515a33.0575,33.0575,0,0,1,8.8306,5.352,36.7693,36.7693,0,0,1,6.8348,7.7786,40.901,40.901,0,0,1,2.7292,39.7414,36.7944,36.7944,0,0,1-5.7074,8.64,33.0508,33.0508,0,0,1-8.0169,6.5081,32.9293,32.9293,0,0,0,7.8335-6.67,36.7108,36.7108,0,0,0,5.59-8.62,41.7624,41.7624,0,0,0-2.7062-39.4183,36.7414,36.7414,0,0,0-6.7158-7.7754A32.9321,32.9321,0,0,0,76.1647,104.515Z" style="fill:#687581"/><ellipse cx="65.0939" cy="140.1902" rx="23.3592" ry="27.9268" transform="translate(-9.4526 4.7896) rotate(-3.9289)" style="fill:none;stroke:#687581;stroke-miterlimit:10;stroke-width:0.5px"/><path d="M67.1106,98.8938a32.4518,32.4518,0,0,1,13.5582,3.5136,37.1747,37.1747,0,0,1,11.0393,8.6974,44.4586,44.4586,0,0,1,3.6551,52.729,37.2134,37.2134,0,0,1-9.7316,10.14A32.4663,32.4663,0,0,1,72.69,179.33c9.2939-1.75,17.3677-7.8318,22.3945-15.6771a44.8279,44.8279,0,0,0-3.6265-52.33C85.3959,104.2461,76.5578,99.3378,67.1106,98.8938Z" style="fill:#687581"/><path d="M1.2225,124.6658c5.2231-.272,10.4473-.3889,15.6688-.5833,1.2863-.0547,2.6727-.0022,3.638-.6795.9235-.7208,1.0427-2.1532,1.4083-3.3863.6531-2.5367,1.4021-5.0495,2.2014-7.542,1.6332-4.9766,3.3956-9.8911,5.1811-14.8166a22.3151,22.3151,0,0,1,3.9118-6.8643,18.7251,18.7251,0,0,1,6.351-4.7019,31.009,31.009,0,0,1,7.5474-2.31c2.5941-.4755,5.2007-.6952,7.7992-.9894,5.2043-.536,10.4285-.94,15.6658-1.0487q3.9273-.0839,7.8553.0487a60.3754,60.3754,0,0,1,7.8489.6159,23.6656,23.6656,0,0,1,7.4834,2.5166,21.04,21.04,0,0,1,6.0945,5.0169c3.4291,4.0542,5.564,8.9472,7.5573,13.7625.9944,2.4211,1.9436,4.8582,2.8844,7.2976l1.4071,3.6577a5.78,5.78,0,0,0,2.2271,2.9309,7.3852,7.3852,0,0,0,3.6223.9271c1.2885.058,2.594.0268,3.8916-.0361,2.5989-.1333,5.1925-.4258,7.7789-.7681a46.7392,46.7392,0,0,0,7.6443-1.5085c2.4962-.7274,4.9411-1.6424,7.3658-2.6044q3.6349-1.4487,7.2231-3.0256c2.3934-1.0418,4.7442-2.1735,7.14-3.24a29.7641,29.7641,0,0,1,7.5071-2.4019,41.9537,41.9537,0,0,1,7.8667-.4187c5.2332.1283,10.4572.4554,15.67.9107,2.6062.23,5.2091.497,7.8068.8305,1.3033.1824,2.5858.3275,3.9026.6412a14.6394,14.6394,0,0,1,3.5877,1.722.25.25,0,1,1-.2659.4234,14.1774,14.1774,0,0,0-3.4586-1.66c-1.2258-.2912-2.5476-.4472-3.8309-.6246-2.5873-.3311-5.1856-.5965-7.7865-.8251-5.2023-.4523-10.4181-.7767-15.6369-.9024a41.44,41.44,0,0,0-7.7691.4149,29.2375,29.2375,0,0,0-7.3815,2.3676c-2.38,1.06-4.74,2.1974-7.1394,3.243q-3.597,1.5752-7.2393,3.0357c-2.4325.9662-4.8891,1.8872-7.4126,2.6239a47.3031,47.3031,0,0,1-7.7218,1.5281c-2.5947.3444-5.2.64-7.8226.7753-1.3123.0639-2.6231.0965-3.946.0376a7.9011,7.9011,0,0,1-3.8828-1.0077,5.4991,5.4991,0,0,1-1.4946-1.4037,8.7359,8.7359,0,0,1-.95-1.7875l-1.41-3.66c-.9411-2.4374-1.89-4.8711-2.8828-7.2851-1.99-4.8062-4.1134-9.646-7.4723-13.6113a20.483,20.483,0,0,0-5.94-4.8874,23.1072,23.1072,0,0,0-7.3107-2.4534,59.8752,59.8752,0,0,0-7.7737-.6052q-3.9111-.1293-7.8244-.0453c-5.2165.1109-10.4248.5149-15.6187,1.052-2.5934.2944-5.2044.5169-7.7537.9861a30.4379,30.4379,0,0,0-7.4064,2.2676,18.1441,18.1441,0,0,0-6.1567,4.5587,21.7324,21.7324,0,0,0-3.8048,6.6915c-1.77,4.9054-3.5249,9.8382-5.1437,14.7978-.811,2.48-1.57,4.975-2.2348,7.4972-.1737.6323-.3139,1.2554-.5149,1.9064a3.4108,3.4108,0,0,1-1.1148,1.7723,4.1066,4.1066,0,0,1-1.9684.6675,16.667,16.667,0,0,1-1.98.08C11.68,124.6135,6.4518,124.7172,1.2225,124.6658Z" style="fill:#687581"/><path d="M112.788,128.98l-3.3457-9.0537c-1.1485-3.0043-2.2714-6.0169-3.4482-9.008-1.18-2.9895-2.4124-5.9579-3.7208-8.8872a36.9138,36.9138,0,0,0-4.7721-8.2673A20.5344,20.5344,0,0,0,90.12,87.9007a21.2917,21.2917,0,0,0-4.505-1.4984,35.0368,35.0368,0,0,0-4.7442-.586,129.9159,129.9159,0,0,0-19.243.1709c-3.2023.25-6.3975.5956-9.5846,1.0055A29.4267,29.4267,0,0,0,42.8153,89.36a21.1755,21.1755,0,0,0-7.53,5.7074,20.0423,20.0423,0,0,0-2.584,3.9863c-.6629,1.4357-1.2655,2.9447-1.8553,4.4316a117.5625,117.5625,0,0,0-5.6237,18.4011c-.6838,3.1375-1.2492,6.3009-1.7382,9.4769-.25,1.5845-.5365,3.1781-.6867,4.7561a11.5728,11.5728,0,0,0,.0228,2.3774,3.7343,3.7343,0,0,0,.8266,2.1918,3.8394,3.8394,0,0,1-1.0565-2.1545,11.6392,11.6392,0,0,1-.1637-2.4352c.0755-1.6324.354-3.2132.5632-4.8115.4868-3.1842,1.0506-6.3589,1.7339-9.51A118.0827,118.0827,0,0,1,30.3517,103.29c.5951-1.5034,1.1838-2.9865,1.8675-4.4721a20.5814,20.5814,0,0,1,2.6492-4.0967,21.7238,21.7238,0,0,1,7.717-5.8632,29.9814,29.9814,0,0,1,9.3854-2.4226c3.1946-.4143,6.3987-.7646,9.6117-1.0187a130.4929,130.4929,0,0,1,19.3293-.1916,35.618,35.618,0,0,1,4.827.5924,21.89,21.89,0,0,1,4.6345,1.5363,21.1444,21.1444,0,0,1,7.6046,6.0249,37.5726,37.5726,0,0,1,4.87,8.3917c1.3346,2.938,2.5328,5.93,3.6935,8.9346s2.27,6.0275,3.293,9.0808C110.8686,122.8349,111.8891,125.8883,112.788,128.98Z" style="fill:#687581"/><path d="M115.3083,141.1653A4.7482,4.7482,0,0,1,113,139.9463a8.3436,8.3436,0,0,1-1.56-2.1521,32.9492,32.9492,0,0,1-1.9139-4.7677q-1.5742-4.81-3.2421-9.5869c-2.25-6.3559-4.4544-12.739-7.0589-18.9262A38.81,38.81,0,0,0,94.561,95.79a17.3354,17.3354,0,0,0-7.5926-5.8229c-3.0112-1.2024-6.36-1.3383-9.7217-1.5292-3.35-.1613-6.71-.1667-10.0667-.0355-3.3573.1235-6.7121.3818-10.0589.7294q-2.5105.259-5.015.5861a32.5237,32.5237,0,0,0-4.8806.9071,19.8119,19.8119,0,0,0-8.4868,4.7177,17.3875,17.3875,0,0,0-3.0006,3.836,41.0781,41.0781,0,0,0-2.0154,4.5527A111.03,111.03,0,0,0,27.49,122.8751c-.6691,3.2843-1.0951,6.6213-1.4605,9.9726-.174,1.68-.3835,3.35-.4231,5.0039a13.89,13.89,0,0,0,.12,2.4334c.116.7606.396,1.5636.8714,1.7671l.0014.0008.05.0294a.4976.4976,0,0,1,.2406.3666l.2727,2.2576a.5.5,0,0,1-.9928.12l-.2727-2.2575.2907.3957-.0033-.0017a2.2438,2.2438,0,0,1-1.0768-1.1728,5.4726,5.4726,0,0,1-.3818-1.3416,14.8511,14.8511,0,0,1-.1462-2.6194c.033-1.7256.2372-3.413.4016-5.0927.3487-3.3645.76-6.7394,1.4222-10.08a112.12,112.12,0,0,1,6.19-19.3774l.9468-2.3544a19.9274,19.9274,0,0,1,1.1162-2.3595A18.647,18.647,0,0,1,37.8537,94.43a21.1139,21.1139,0,0,1,9.01-5.08,33.9179,33.9179,0,0,1,5.0649-.9727q2.5176-.345,5.0462-.6171c3.37-.3683,6.7533-.6471,10.1465-.79,3.3924-.1507,6.7949-.1638,10.1932-.0183,1.7067.078,3.38.17,5.1072.3585a21.25,21.25,0,0,1,5.103,1.2,18.9479,18.9479,0,0,1,8.3315,6.28,40.3414,40.3414,0,0,1,4.9454,9.0536c2.63,6.271,4.917,12.6413,7.041,19.0662q1.5954,4.8167,3.1124,9.6573c.4985,1.6088.9447,3.2321,1.5,4.7672A6.7874,6.7874,0,0,0,115.3083,141.1653Z" style="fill:#687581"/><path d="M26.3922,142.7587q-5.9844.0216-11.9681-.1094c-3.9892-.0808-7.9785-.141-11.9674-.2611,3.99-.08,7.98-.1,11.9694-.1406q5.9847-.0672,11.9687.0111a.25.25,0,0,1-.0026.5Z" style="fill:#687581"/><path d="M42.3239,85.3032l-.6422-7.0268L46.171,56.3841s2.4189-2.5519,3.2145-8.9786c1.4411-11.639,4.8219-31.7023,4.8219-31.7023l.4207-2.4966" style="fill:none;stroke:#687581;stroke-linecap:round;stroke-linejoin:round;stroke-width:0.5px"/><path d="M9.0488,18.8129c6.7826-.74,13.58-1.2286,20.3779-1.7153L49.82,15.6249l40.7961-2.9115,20.399-1.4534q5.1011-.377,10.2017-.677a61.8939,61.8939,0,0,1,10.2669-.0447,9.0023,9.0023,0,0,1,4.859,1.8789,8.7388,8.7388,0,0,1,2.4489,4.5936c.7379,3.3569,1.309,6.7037,1.8871,10.07q1.6874,10.0929,2.9,20.254a.25.25,0,1,1-.4968.0569q-1.2407-10.1372-2.9548-20.2174c-.5845-3.3485-1.1723-6.7229-1.907-10.02a8.1651,8.1651,0,0,0-2.2763-4.2835,8.5142,8.5142,0,0,0-4.539-1.729,61.4964,61.4964,0,0,0-10.1529.0385q-5.1018.2865-10.2021.6668L90.654,13.28,49.8614,16.15,29.4627,17.6025C22.6636,18.0911,15.8635,18.5775,9.0488,18.8129Z" style="fill:#687581"/><path d="M8.871,16.4237c6.9415-.7435,13.8971-1.231,20.8536-1.72l20.868-1.4773,41.7467-2.9192L113.2134,8.85c3.48-.252,6.9546-.4521,10.4439-.6459,1.746-.0729,3.4949-.1466,5.2516-.0889a22.26,22.26,0,0,1,5.2464.6533,9.6375,9.6375,0,0,1,4.6609,2.5708,12.0443,12.0443,0,0,1,2.5929,4.6462c.4819,1.716.79,3.4253,1.1231,5.14l.9386,5.1505q1.7816,10.318,3.0433,20.7129a.25.25,0,1,1-.4966.0584q-1.29-10.37-3.0978-20.6747l-.9514-5.1384c-.3358-1.7076-.6552-3.4314-1.122-5.0738a11.458,11.458,0,0,0-2.4622-4.3986,9.1362,9.1362,0,0,0-4.3868-2.4052,21.6842,21.6842,0,0,0-5.1059-.6378c-1.7292-.0588-3.4681.0125-5.2053.0834-3.4742.19-6.9628.387-10.439.6353l-20.8709,1.437L50.6336,13.7517,29.76,15.209C22.8019,15.6984,15.8435,16.189,8.871,16.4237Z" style="fill:#687581"/><path d="M72.9054,11.8065s-1.0733,20.4683-1.0733,28.2,3.2422,10.5582,10.8907,10.1425,46.89-2.2867,60.6073-2.7855,21.63-.7387,26.6184,1.0071" style="fill:none;stroke:#687581;stroke-linecap:round;stroke-linejoin:round;stroke-width:0.5px"/><path d="M131.9418,3.2275c-2.151.1516-2.2494,4.9839-2.2494,4.9839" style="fill:none;stroke:#687581;stroke-linecap:round;stroke-linejoin:round;stroke-width:0.5px"/><path d="M167.6206,47.74s.5652,4.7369.8978,7.231l-.582,1.1639.9145.9145a79.55,79.55,0,0,1,.6928,8.0918l-.4988,1.3856.388.9976c1.7181,16.4608-2.9929,34.03-2.9929,34.03l-1.6991,3.908" style="fill:none;stroke:#687581;stroke-linecap:round;stroke-linejoin:round;stroke-width:0.5px"/><path d="M208.44,77.6284c-2.8156-2.8991-13.7178-8.0128-39.3951-11.1018-7.3713-.8868-25.8828-.8314-28.3768-.776s-3.3254-.1108-5.21-1.441a3.9872,3.9872,0,0,1-1.9953-3.88V57.2031a.855.855,0,0,1,.7975-.8533c12.4934-.859,26.4586-1.002,33.6759-.2151,7.3714.8036,34.418,5.1821,39.669,12.39" style="fill:none;stroke:#687581;stroke-miterlimit:10;stroke-width:0.5px"/><path d="M169.685,79.8824c3.3716-.09,17.7782,2.5341,27.9619,4.8078,9.8205,2.1928,11.57,3.3972,11.57,3.3972" style="fill:none;stroke:#687581;stroke-miterlimit:10;stroke-width:0.5px"/><path d="M18.5424,101.6928c1.4088-3.1276,2.8956-6.2238,4.5379-9.241.825-1.5044,1.645-3.0189,2.6183-4.45a25.4789,25.4789,0,0,1,3.3278-3.9771,21.4986,21.4986,0,0,1,8.9269-5.1724,32.4489,32.4489,0,0,1,5.0722-1.0626c1.7045-.243,3.4136-.4237,5.1235-.59,6.8424-.6318,13.7055-.9176,20.57-1.029a162.5636,162.5636,0,0,1,20.5871.7842,37.6872,37.6872,0,0,1,5.0872.9517,19.1862,19.1862,0,0,1,4.8331,1.9179c3.0765,1.7547,5.1742,4.6881,7.0216,7.5491.93,1.4464,1.816,2.9221,2.6986,4.3883.8982,1.4321,1.7523,2.9933,3.1592,3.8165a9.3616,9.3616,0,0,0,4.8974.5577c1.6966-.1214,3.4-.3533,5.1045-.5371a34.16,34.16,0,0,0,5.0294-.8476,21.225,21.225,0,0,0,4.679-1.9579c1.493-.8189,2.9379-1.7349,4.36-2.685,1.4186-.9537,2.8452-1.9063,4.16-2.9815a13.5942,13.5942,0,0,0,3.348-3.7414,14.5618,14.5618,0,0,0,1.5226-4.7934c.472-3.37.5483-6.81.6986-10.236A61.9829,61.9829,0,0,1,145.66,78.66a12.2522,12.2522,0,0,1-5.0046,8.8577c-1.3415,1.0981-2.7721,2.0536-4.1977,3.0135-1.4285.955-2.8826,1.8787-4.3967,2.71a21.7316,21.7316,0,0,1-4.7887,2.0056,34.6275,34.6275,0,0,1-5.1054.8653c-1.705.1848-3.4022.4174-5.1271.5423a9.7865,9.7865,0,0,1-5.1871-.6186c-1.6031-.9525-2.4459-2.5715-3.3558-4.0011-.8871-1.4716-1.7675-2.9363-2.6935-4.3743-1.8443-2.8533-3.8895-5.6918-6.8469-7.3738a18.652,18.652,0,0,0-4.7012-1.86,37.1529,37.1529,0,0,0-5.0183-.9352,162.1277,162.1277,0,0,0-20.51-.7674c-6.8506.1152-13.7051.405-20.5245,1.0389A54.7117,54.7117,0,0,0,38.12,79.4a21.7025,21.7025,0,0,0-8.7346,5,33.7059,33.7059,0,0,0-5.997,8.2234C21.7006,95.6032,20.0715,98.6222,18.5424,101.6928Z" style="fill:#687581"/><path d="M167.3545,46.5741c-.3051-1.7272-.6638-3.4438-1.0209-5.16l-1.0556-5.1526-2.1153-10.305-2.041-10.3213c-.3239-1.7239-.649-3.4545-.8141-5.21a14.4164,14.4164,0,0,1-.0156-2.6434A3.3841,3.3841,0,0,1,161.34,5.426a3.3256,3.3256,0,0,0-.9265,2.3665,14.2322,14.2322,0,0,0,.137,2.6068c.2135,1.733.5782,3.4465.9477,5.159l2.1536,10.2987c.6751,3.4418,1.37,6.88,2.0016,10.3307S166.8986,43.0945,167.3545,46.5741Z" style="fill:#687581"/><path d="M196.0388,29.688a23.126,23.126,0,0,0-5.7133-8.9829,26.35,26.35,0,0,0-4.233-3.29,47.6855,47.6855,0,0,0-4.7648-2.5237c-3.2594-1.5585-6.5456-3.0761-9.93-4.3093A36.4756,36.4756,0,0,0,166.23,9.09c-.8421-.1649-1.8041-.2559-2.2478.35a3.9694,3.9694,0,0,0-.4249,2.4248,45.7454,45.7454,0,0,0,.8766,5.3139l1.0528,5.3265,2.079,10.6608c.6765,3.5572,1.3374,7.1178,1.9368,10.6914a87.02,87.02,0,0,1,1.2524,10.7961c-.7767-3.5562-1.1069-7.1515-1.7541-10.7119-.6051-3.5654-1.2725-7.1222-1.9554-10.6759l-2.0989-10.6531-1.0632-5.3251a45.9906,45.9906,0,0,1-.8969-5.3913,4.4192,4.4192,0,0,1,.5409-2.8113,1.8542,1.8542,0,0,1,1.3866-.6873,5.5435,5.5435,0,0,1,1.4256.1206,37.0425,37.0425,0,0,1,5.2594,1.5058c3.4226,1.24,6.7215,2.7573,9.9944,4.3145a48.3327,48.3327,0,0,1,4.8118,2.5821,26.9182,26.9182,0,0,1,4.3078,3.385,23.6628,23.6628,0,0,1,5.7943,9.2066l.0022.0063a.25.25,0,0,1-.47.1693Z" style="fill:#687581"/><path d="M170.0731,49.2837c27.4973,4.8507,34.0591,11.2984,34.0591,11.2984a195.4821,195.4821,0,0,0-8.9012-28.986c-1.7118-4.1653-2.8565-6.3542-8.6723-10.1288-6.0525-3.9284-20.0779-8.69-23.2732-9.375" style="fill:none;stroke:#687581;stroke-linecap:round;stroke-linejoin:round;stroke-width:0.5px"/><path d="M204.3218,60.4191a14.889,14.889,0,0,1,1.1266,1.8958q.4961.9718.9091,1.976c-.3519-.6321-.7261-1.25-1.1247-1.8494a14.6716,14.6716,0,0,0-1.29-1.6965l-.01-.0105a.2507.2507,0,0,1,.37-.338Z" style="fill:#687581"/><path d="M134.6823,4.0088a56.3986,56.3986,0,0,1,7.2251-.2564,17.742,17.742,0,0,1,7.0566,1.6023,10.9354,10.9354,0,0,1,5.0286,5.181,17.8643,17.8643,0,0,1,1.225,3.4421c.2832,1.189.4956,2.3643.7424,3.5462.9386,4.7256,1.815,9.4631,2.6633,14.2051.8332,4.7448,1.6193,9.4981,2.33,14.2631L155.48,17.6191c-.2379-1.1768-.4462-2.374-.7151-3.53a17.4129,17.4129,0,0,0-1.1729-3.36,10.8112,10.8112,0,0,0-4.7937-5.05,17.7312,17.7312,0,0,0-6.9044-1.7006A56.294,56.294,0,0,0,134.6823,4.0088Z" style="fill:#687581"/><path d="M171.781,66.8705c.2749.3391.5285.6919.7915,1.0387l.0134.0175.0037.0362q.2711,2.7.35,5.4107c.0426.9007.0146,1.8151.0585,2.6924a2.0854,2.0854,0,0,0,.3759,1.1911,2.2085,2.2085,0,0,0,1.1578.5758,2.1049,2.1049,0,0,1-1.3072-.429,2.1652,2.1652,0,0,1-.565-1.2967c-.1321-.92-.1538-1.8155-.2072-2.7179q-.1379-2.7045-.08-5.4168l.0169.0534C172.186,67.6412,171.9728,67.2627,171.781,66.8705Z" style="fill:#687581"/><path d="M207.142,76.5513c.3069.4341.6031.8741.8807,1.3242l.0123.02.0049.0413c.1693,1.4258.2575,2.8557.2848,4.29a10.2461,10.2461,0,0,1-.1128,2.189.6814.6814,0,0,1-.4077.5014.9222.9222,0,0,1-.5987-.0548,5.6881,5.6881,0,0,1-.9714-.4893,9.0893,9.0893,0,0,0,1.021.3058.8217.8217,0,0,0,.455-.01.4034.4034,0,0,0,.1937-.3294,4.66,4.66,0,0,0-.0024-1.0276l-.0577-1.0688c-.0737-1.4274-.118-2.858-.09-4.2919l.0171.0608C207.5451,77.5338,207.3382,77.0455,207.142,76.5513Z" style="fill:#687581"/><path d="M170.7237,46.79q4.5136.894,9.0058,1.8687l4.4886.9927,2.2418.5a2.1153,2.1153,0,0,0,.9968.0433c.2209-.0827.389-.4382.5459-.7734a5.9326,5.9326,0,0,1,.57-1.06.9618.9618,0,0,1,.6371-.3844,1.74,1.74,0,0,1,.662.0845c.7575.2512,1.4427.5638,2.1673.8428.72.2977,1.4193.55,2.1558.885a5.0352,5.0352,0,0,1,1.5154,1.8411c.4046.6855.5377,1.4775,1.1144,1.9216a14.5776,14.5776,0,0,0,1.9147,1.2143l3.9457,2.37-4.0627-2.155a14.2639,14.2639,0,0,1-2-1.1871,2.5977,2.5977,0,0,1-.7355-.9615,11.2309,11.2309,0,0,0-.5116-1.0139,5.0611,5.0611,0,0,0-1.4017-1.6583c-.6617-.2871-1.408-.5563-2.1075-.8354-.7081-.2651-1.4257-.5795-2.1255-.8042a1.3119,1.3119,0,0,0-.4707-.0639.4676.4676,0,0,0-.3118.2064,5.88,5.88,0,0,0-.5021.9695,1.8662,1.8662,0,0,1-.8147,1.0142,2.419,2.419,0,0,1-1.2725-.0278l-2.2419-.5232-4.477-1.0632Q175.1752,47.9559,170.7237,46.79Z" style="fill:#687581"/><path d="M116.3481,124.2087c7.6593-1.2253,15.38-2.2328,22.9671-3.6462a32.4,32.4,0,0,0,5.37-2.1035l5.2564-2.4939,10.4834-5.0618a57.3052,57.3052,0,0,1,5.3562-2.3354,20.9773,20.9773,0,0,1,5.7393-1.1889c3.9024-.2548,7.78-.0592,11.662.0224,3.8808.1261,7.7654.2966,11.6317.7175,1.933.2049,3.8623.47,5.7685.8649a20.1707,20.1707,0,0,1,5.5241,1.819,21.8436,21.8436,0,0,0-5.57-1.5747c-1.9073-.3274-3.8327-.5438-5.76-.7312-3.8586-.3418-7.7317-.535-11.6075-.6518-3.8732-.0781-7.7664-.2677-11.6124-.0116a20.5058,20.5058,0,0,0-5.6213,1.17,56.9054,56.9054,0,0,0-5.3073,2.3216l-10.4791,5.0731L144.89,118.9a32.8182,32.8182,0,0,1-5.4527,2.1393C131.7729,122.4952,124.0833,123.4767,116.3481,124.2087Z" style="fill:#687581"/><path d="M186.3863,115.5577q-3.9244.0836-7.8443.0838l-3.9186.0063a10.4178,10.4178,0,0,0-3.7679.5623,8.61,8.61,0,0,0-3.0458,2.25l-2.7309,2.8117q-1.368,1.4034-2.7077,2.8332c-.9009.9461-1.7944,1.9-2.6332,2.9039a76.3093,76.3093,0,0,1,5.0608-6.0006c.8747-.9736,1.7838-1.9145,2.6834-2.8641a9.0467,9.0467,0,0,1,3.1887-2.3981,10.8559,10.8559,0,0,1,3.9481-.5524c1.312-.0015,2.6163.0167,3.9251.0649Q182.4668,115.3626,186.3863,115.5577Z" style="fill:#687581"/><path d="M205.8188,117.2472c.2857-1.0092.8263-2.2613-3.7112-2.84a.81.81,0,0,0-.6983.2549l-1.6044,1.7459-11.6389-.4434-.8436-2.1312a.857.857,0,0,0-.7787-.5412c-1.835-.0382-7.6638-.1542-10.9034-.1542-3.88,0-6.54-.1662-9.7545,3.1592s-6.5954,6.9279-8.369,9.2-2.3278,4.1013,6.54,3.6579c0,0,5.0435-4.7664,6.8725-6.5954s2.2724-2.1615,6.2074-2.3278,10.9185-.1662,17.2922.1109,10.7519.3545,9.56,2.3388" style="fill:none;stroke:#687581;stroke-linecap:round;stroke-linejoin:round;stroke-width:0.585587046803273px"/><path d="M164.2766,129.3486a18.393,18.393,0,0,1-5.687,3.9c-2.07.9841-4.2059,1.7974-6.3381,2.6125,2.095-.9052,4.1947-1.81,6.2062-2.8739a17.9718,17.9718,0,0,0,5.3793-4.0258.2929.2929,0,0,1,.45.3752Z" style="fill:#687581"/><path d="M170.1653,126.6064l.9522-1.1078a2.346,2.346,0,0,1,1.67-.8328h6.6708c.7473,0,.8172.2628.3455,1.2331s-.6641,1.3061-1.4867,1.3174-6.9713.0919-7.6131.1007C169.8573,127.3286,169.8462,126.9776,170.1653,126.6064Z" style="fill:none;stroke:#687581;stroke-linecap:round;stroke-linejoin:round;stroke-width:0.5px"/><path d="M198.7716,126.6149l.6793-1.1087c.3091-.5043.6546-.8336.8752-.8341l2.5477-.0057c.2854-.0007.2372.2621-.2195,1.2328s-.6257,1.3067-.9431,1.3187-2.6886.0978-2.9362.1071C198.4482,127.3374,198.544,126.9864,198.7716,126.6149Z" style="fill:none;stroke:#687581;stroke-linecap:round;stroke-linejoin:round;stroke-width:0.5px"/><path d="M185.672,122.5043a19.0765,19.0765,0,0,1-.9192,3.4849,7.3757,7.3757,0,0,1-.8641,1.6221,7.6142,7.6142,0,0,1-1.2788,1.33,14.4124,14.4124,0,0,1-3.1187,1.8511,30.8686,30.8686,0,0,1-3.3521,1.3c1.0575-.5651,2.1383-1.0731,3.18-1.6442a19.0544,19.0544,0,0,0,2.9727-1.8927,7.278,7.278,0,0,0,2.1093-2.719C184.9046,124.7759,185.252,123.6256,185.672,122.5043Z" style="fill:#687581"/><path d="M199.1065,122.6523a17.421,17.421,0,0,1-1.2552,3.7428,7.6914,7.6914,0,0,1-2.7177,2.9173,20.5676,20.5676,0,0,1-3.5689,1.7155,39.186,39.186,0,0,1-3.7425,1.2126l3.5949-1.5677a24.0687,24.0687,0,0,0,3.4456-1.78,7.6945,7.6945,0,0,0,2.6535-2.6829A30.0667,30.0667,0,0,0,199.1065,122.6523Z" style="fill:#687581"/><path d="M153.97,129.6262a17.864,17.864,0,0,1-4.4448,1.9238c-1.5619.4355-3.1709.68-4.7338,1.0339q-4.716,1.0591-9.425,2.1881l-9.4331,2.1721q-4.7195,1.0755-9.4573,2.0764,4.6717-1.2745,9.368-2.45c3.13-.7881,6.27-1.5309,9.4088-2.2845,3.1487-.7108,6.29-1.449,9.461-2.0766C147.8889,131.64,151.1262,131.2426,153.97,129.6262Z" style="fill:#687581"/><path d="M177.1367,100.3349c2.2944-.08,4.5925-.0553,6.8869.0468,2.295.097,4.5845.2954,6.871.5226,2.2828.26,4.559.5914,6.8185,1.01a64.7208,64.7208,0,0,1,6.692,1.6347c-2.2457-.4779-4.4955-.9033-6.7576-1.2557-2.2636-.339-4.5283-.6723-6.8075-.8931-2.2736-.2678-4.5556-.458-6.8393-.6369C181.7164,100.5956,179.4293,100.4383,177.1367,100.3349Z" style="fill:#687581"/><path d="M60.5431,37.5862a.6373.6373,0,0,1,.9044.041L64.24,40.771a.9794.9794,0,0,1-.048,1.3513l-3.8094,3.7192a.6586.6586,0,0,1-.9714-.056l-2.7124-3.34a.7275.7275,0,0,1,.0442-.9667Z" style="fill:none;stroke:#687581;stroke-linecap:round;stroke-linejoin:round;stroke-width:0.5px"/><path d="M47.5329,16.1775,44.3454,35.0164c-.55,3.1375-1.1,6.2734-1.7142,9.4042-.335,1.5679-.6427,3.1128-1.0526,4.6788a8.2545,8.2545,0,0,1-.9514,2.2712,4.4433,4.4433,0,0,1-1.9,1.627,13.8892,13.8892,0,0,1-4.7557.9436l-4.7676.2933-9.5352.5868-9.5391.5232-9.5447.421,9.5225-.7728,9.5283-.6707,9.5321-.607,4.7661-.3036a13.4427,13.4427,0,0,0,4.5614-.9028A3.8915,3.8915,0,0,0,40.17,51.071a7.7322,7.7322,0,0,0,.8771-2.1194c.3938-1.5153.7062-3.0959,1.0337-4.6417.6186-3.1172,1.1753-6.253,1.7309-9.387l3.2254-18.8283a.2512.2512,0,1,1,.4955.0829Z" style="fill:#687581"/><path d="M49.3512,16.0275c-1.069,6.4442-2.1192,12.8911-3.2717,19.3217-.5784,3.2159-1.1442,6.43-1.8022,9.6386-.36,1.5994-.6381,3.1961-1.1194,4.7938a7.9376,7.9376,0,0,1-1.0468,2.2932A5.7652,5.7652,0,0,1,40.23,53.7955a12.6451,12.6451,0,0,1-4.817,1.2446c-1.6392.1418-3.2624.2121-4.8944.3218l-9.7795.6019c-6.5218.3673-13.043.7458-19.5723.9745,6.5078-.5875,13.0238-1.0252,19.5392-1.474l9.7764-.6223c1.6258-.1125,3.2666-.1877,4.88-.3309a12.1632,12.1632,0,0,0,4.6009-1.1871,5.8547,5.8547,0,0,0,2.667-3.7055c.4595-1.5313.7436-3.16,1.0964-4.746.6476-3.1913,1.2077-6.4116,1.7787-9.6248L48.858,15.9452a.25.25,0,0,1,.4932.0823Z" style="fill:#687581"/><path d="M3.997,58.8522,20,57.7939l16.0076-.981,32.0154-1.9576q16.0107-.922,32.03-1.7193l16.017-.8275,16.02-.7491-16.0078.9935-16.011.9151Q84.06,54.3667,68.053,55.3534l-32.0257,1.79-16.0129.8929Z" style="fill:#687581"/><path d="M16.42,66.78a2.3466,2.3466,0,0,0-.733,2.077,1.286,1.286,0,0,0,.5479.8789,1.6988,1.6988,0,0,0,1.0164.2328l4.6995-.3271,4.7033-.29,2.3543-.1055a15.0258,15.0258,0,0,0,2.3028-.1832,2.5119,2.5119,0,0,0,1.68-1.2446,1.6271,1.6271,0,0,0-.192-1.9143,1.2661,1.2661,0,0,0-.93-.3084l-1.1734.0733-2.3532.1454c-3.1381.1842-6.2782.3338-9.4214.4167,3.13-.332,6.2635-.597,9.3987-.8276l2.3518-.1656,1.1792-.0788a1.7085,1.7085,0,0,1,1.2479.4155,2.0722,2.0722,0,0,1,.305,2.4525,2.9824,2.9824,0,0,1-1.9731,1.5c-3.2009.3871-6.2944.4645-9.4516.6375-1.5715.0851-3.14.1446-4.7163.1965a1.9329,1.9329,0,0,1-1.2182-.3643,1.57,1.57,0,0,1-.5954-1.1056A2.3992,2.3992,0,0,1,16.42,66.78Z" style="fill:#687581"/><path d="M32.9287,17.2a229.0911,229.0911,0,0,0-6.9412,37.0072" style="fill:none;stroke:#687581;stroke-linecap:round;stroke-linejoin:round;stroke-width:0.5px"/><path d="M35.083,17.044A229.1133,229.1133,0,0,0,28.14,54.0683" style="fill:none;stroke:#687581;stroke-linecap:round;stroke-linejoin:round;stroke-width:0.5px"/></g></svg>
