<svg xmlns="http://www.w3.org/2000/svg" width="218" height="202.7031" viewBox="0 0 218 202.7031"><g id="aa25eca0-1be2-4a06-8b0d-c2b52e872615" data-name="below"><path d="M157.297,160.7113a17.5751,17.5751,0,0,0,.3952,3.0663c1.8078,8.2631,9.087,13.6866,16.27,12.1107.432-.088,3.2561-.9408,4.4235-1.4158,6.1341-2.496,9.9269-9.455,8.2711-17.03-1.5518-7.1192-7.2872-12.0786-13.4385-12.0786-.71,0-3.659.2738-5.1932.5151C164.5505,153.4892,161.9753,156.9368,157.297,160.7113Z" style="fill:#404d59"/><g id="a18be960-f323-4f35-a259-e6d1854bce23" data-name="Offset Group"><path d="M156.7974,160.7311a18.086,18.086,0,0,0,.4063,3.1534,16.9941,16.9941,0,0,0,6.3092,10.0391,13.8106,13.8106,0,0,0,5.327,2.4568,12.25,12.25,0,0,0,5.2223-.0021c.4683-.0954,3.3224-.9585,4.5122-1.4427a14.2146,14.2146,0,0,0,7.1863-6.5988,16.1137,16.1137,0,0,0,1.3848-11.001,16.6433,16.6433,0,0,0-5.7082-9.4479,13.1394,13.1394,0,0,0-8.2188-3.0242c-.7473,0-3.7248.278-5.2709.5212" style="fill:none;stroke:#aebbc7;stroke-miterlimit:10;stroke-width:0.5px"/><path d="M157.0472,160.7212a17.8313,17.8313,0,0,0,.4008,3.11,16.7443,16.7443,0,0,0,6.2142,9.892,13.5617,13.5617,0,0,0,5.23,2.4129,12.0059,12.0059,0,0,0,5.12-.0027c.45-.0917,3.2892-.95,4.4678-1.4292A13.965,13.965,0,0,0,185.54,168.22a15.864,15.864,0,0,0,1.3618-10.8312,16.3946,16.3946,0,0,0-5.6208-9.3065,12.89,12.89,0,0,0-8.062-2.9689c-.7288,0-3.6919.2759-5.232.5181" style="fill:none;stroke:#aebbc7;stroke-miterlimit:10;stroke-width:0.5px"/></g><path d="M157.297,160.7113a17.5751,17.5751,0,0,0,.3952,3.0663c1.8078,8.2631,9.087,13.6866,16.27,12.1107.432-.088,3.2561-.9408,4.4235-1.4158,6.1341-2.496,9.9269-9.455,8.2711-17.03-1.5518-7.1192-7.2872-12.0786-13.4385-12.0786-.71,0-3.659.2738-5.1932.5151" style="fill:none;stroke:#aebbc7;stroke-miterlimit:10;stroke-width:0.5px"/><path d="M169.3944,174.887a9.4656,9.4656,0,0,1-4.8052-1.1453,12.3438,12.3438,0,0,1-3.81-3.23,14.3305,14.3305,0,0,1-2.3124-4.424,14.0384,14.0384,0,0,1-.6466-4.9117,16.451,16.451,0,0,0,3.3519,9.0274,12.6645,12.6645,0,0,0,3.6042,3.2039A10.8119,10.8119,0,0,0,169.3944,174.887Z"/><path d="M170.6039,148.57a11.8482,11.8482,0,0,1,6.1386,3.906,15.4087,15.4087,0,0,1,3.0561,13.9731,11.8446,11.8446,0,0,1-3.9491,6.1113,12.5913,12.5913,0,0,0,3.5777-6.2113,15.99,15.99,0,0,0-2.9791-13.6283A12.586,12.586,0,0,0,170.6039,148.57Z"/><ellipse cx="169.0735" cy="161.2983" rx="7.9244" ry="9.3287" transform="translate(-30.5541 39.8414) rotate(-12.3347)" style="fill:#141b21;stroke:#aebbc7;stroke-miterlimit:10;stroke-width:0.5px"/><ellipse cx="169.5024" cy="161.2045" rx="6.6544" ry="7.8337" transform="translate(-30.5242 39.9308) rotate(-12.3347)" style="fill:none;stroke:#aebbc7;stroke-miterlimit:10;stroke-width:0.5px"/><ellipse cx="169.5024" cy="161.2045" rx="4.801" ry="5.5405" transform="translate(-34.3771 46.5262) rotate(-14.2058)" style="fill:none;stroke:#aebbc7;stroke-miterlimit:10;stroke-width:0.5px"/><ellipse cx="169.5024" cy="161.2045" rx="2.3835" ry="2.8059" transform="translate(-30.5242 39.9308) rotate(-12.3347)" style="fill:none;stroke:#aebbc7;stroke-miterlimit:10;stroke-width:0.5px"/><path d="M168.5464,146.8889a11.4185,11.4185,0,0,1,4.9677.4791,13.2673,13.2673,0,0,1,4.372,2.4889,16.0134,16.0134,0,0,1,4.0627,18.5211,13.2868,13.2868,0,0,1-2.9283,4.0911,11.4255,11.4255,0,0,1-4.31,2.5157,12.3421,12.3421,0,0,0,6.888-6.7646,16.1317,16.1317,0,0,0-3.9633-18.0745A12.3322,12.3322,0,0,0,168.5464,146.8889Z"/><polyline points="165.649 151.258 175.179 151.485 175.179 157.216 171.539 157.98 161.325 157.778" style="fill:#404d59"/><path d="M165.6671,150.508l9.53.2269a.751.751,0,0,1,.7323.75v5.7308a.7508.7508,0,0,1-.5961.7342l-3.64.7639a.7883.7883,0,0,1-.1691.0159l-10.2134-.2022a.5.5,0,0,1,.02-1l10.2135.2022-.0561.0052,3.64-.7639-.1985.2445v-5.7308l.2439.25-9.53-.2269a.5.5,0,0,1,.0238-1Z"/><polyline points="171.543 157.984 171.543 152.365 175.177 151.822" style="fill:none;stroke:#aebbc7;stroke-linecap:round;stroke-linejoin:round;stroke-width:0.5px"/><path d="M170.906,161.3053a1.8717,1.8717,0,0,1-1.73,1.9888,1.7847,1.7847,0,0,1-1.64-1.3258l-1.9214-6.2472a1.9871,1.9871,0,0,1-.09-.5843,1.6054,1.6054,0,0,1,1.4719-1.7079,1.476,1.476,0,0,1,1.3371.9887l2.4157,6.0675A2.1769,2.1769,0,0,1,170.906,161.3053Z" style="fill:#404d59;stroke:#aebbc7;stroke-linecap:round;stroke-linejoin:round;stroke-width:0.5px"/><path d="M169.8784,161.6323a1.8716,1.8716,0,0,1-1.73,1.9887,1.7849,1.7849,0,0,1-1.6405-1.3258l-1.9213-6.2472a1.9866,1.9866,0,0,1-.09-.5843,1.6053,1.6053,0,0,1,1.4719-1.7078,1.4761,1.4761,0,0,1,1.3371.9887l2.4157,6.0674A2.1778,2.1778,0,0,1,169.8784,161.6323Z" style="fill:#404d59;stroke:#aebbc7;stroke-linecap:round;stroke-linejoin:round;stroke-width:0.5px"/><line x1="171.5429" y1="152.3649" x2="164.7291" y2="152.1746" style="fill:none;stroke:#aebbc7;stroke-linecap:round;stroke-linejoin:round;stroke-width:0.5px"/><ellipse cx="168.0702" cy="161.6912" rx="0.9326" ry="1.0978" transform="translate(-30.6612 39.6361) rotate(-12.3347)" style="fill:none;stroke:#aebbc7;stroke-miterlimit:10;stroke-width:0.5px"/><ellipse cx="165.9335" cy="155.5089" rx="0.6337" ry="0.746" transform="translate(-29.3899 39.0369) rotate(-12.3347)" style="fill:none;stroke:#aebbc7;stroke-miterlimit:10;stroke-width:0.5px"/><path d="M134.8538,164.068a12.9829,12.9829,0,0,1-6.9989,7.0053c-1.0969.4464-3.7505,1.2477-4.1564,1.33-6.7494,1.4807-13.5891-3.6153-15.2877-11.3794a16.5837,16.5837,0,0,1-.3389-2.3133l2.4638-6.3842,1.8424,2.8159a9.67,9.67,0,0,0-.225,5.0658c1.0341,4.7292,5.2065,7.8341,9.3193,6.9348a6.98,6.98,0,0,0,4.1513-2.7666Z" style="fill:#404d59"/><g id="a1f3d80a-e617-4402-90fc-50242a4110ce" data-name="Offset Group"><path d="M107.5733,158.7483a17.0789,17.0789,0,0,0,.349,2.3828,15.9986,15.9986,0,0,0,5.94,9.4507,13.0079,13.0079,0,0,0,5.017,2.3138,11.5416,11.5416,0,0,0,4.9193-.002c.4422-.09,3.1258-.9017,4.2451-1.3571a13.4833,13.4833,0,0,0,7.27-7.2726" style="fill:none;stroke:#aebbc7;stroke-miterlimit:10;stroke-width:0.5px"/><path d="M107.8226,158.73a16.8392,16.8392,0,0,0,.3439,2.3481,15.7488,15.7488,0,0,0,5.8448,9.3036,12.76,12.76,0,0,0,4.92,2.27,11.2959,11.2959,0,0,0,4.8168-.0026c.4241-.0863,3.0926-.8928,4.2008-1.3437a13.2331,13.2331,0,0,0,7.1346-7.1389" style="fill:none;stroke:#aebbc7;stroke-miterlimit:10;stroke-width:0.5px"/></g><path d="M108.0719,158.711a16.5837,16.5837,0,0,0,.3389,2.3133c1.6986,7.7641,8.5383,12.86,15.2877,11.3794.4059-.0827,3.06-.884,4.1564-1.33a12.9829,12.9829,0,0,0,6.9989-7.0053" style="fill:none;stroke:#aebbc7;stroke-miterlimit:10;stroke-width:0.5px"/><path d="M125.6237,164.3767a6.98,6.98,0,0,1-4.1513,2.7666c-4.1128.8993-8.2852-2.2056-9.3193-6.9348a9.67,9.67,0,0,1,.225-5.0658" style="fill:none;stroke:#aebbc7;stroke-miterlimit:10;stroke-width:0.5px"/><path d="M131.5679,164.8813a10.191,10.191,0,0,1-2.5833,4.3373,8.9954,8.9954,0,0,1-4.3985,2.465,14.2658,14.2658,0,0,0,4.0459-2.819A17.6241,17.6241,0,0,0,131.5679,164.8813Z"/><path d="M110.2394,152.36l.4835-.0538a21.1721,21.1721,0,0,0,3.5774,5.0778l-.9311,1.2-5.8793.8441Z" style="fill:#404d59;stroke:#aebbc7;stroke-linecap:round;stroke-linejoin:round"/><line x1="114.3003" y1="157.3838" x2="107.6229" y2="158.2708" style="fill:#404d59;stroke:#aebbc7;stroke-linecap:round;stroke-linejoin:round;stroke-width:0.5px"/></g><g id="b68003ae-7e5b-4178-ba4c-4fd3e80410e9" data-name="illustration"><path d="M110.2881,151.31s2.2279,6.4627,10.58,11.2336" style="fill:none;stroke:#aebbc7;stroke-miterlimit:10"/><path d="M119.2626,148.9109a15.7022,15.7022,0,0,0,14.1461,6.7345c7.74-.3819,11.879-5.2582,13.9957-9.315" style="fill:none;stroke:#687581;stroke-miterlimit:10;stroke-width:0.5px"/><path d="M162.897,154.8539a29.5238,29.5238,0,0,0,6.07-13.3679" style="fill:none;stroke:#687581;stroke-miterlimit:10"/><path d="M119.9542,160.4174a27.934,27.934,0,0,0,11.2623,2.314,29.8618,29.8618,0,0,0,11.2624-2.0948c.9029-.3264,1.7376-.8107,2.6043-1.22a28.1648,28.1648,0,0,0,2.4285-1.543,27.1763,27.1763,0,0,0,4.3113-3.81,30.7253,30.7253,0,0,0,3.497-4.5946,35.7064,35.7064,0,0,0,2.7275-5.1158,32.7617,32.7617,0,0,1-5.9389,9.9681,25.3518,25.3518,0,0,1-4.3321,3.9229,28.628,28.628,0,0,1-2.4617,1.5909c-.8793.4239-1.7275.9249-2.6458,1.2634a29.5236,29.5236,0,0,1-11.4578,2.0158A26.2688,26.2688,0,0,1,119.9542,160.4174Z" style="fill:#687581"/><path d="M111.0056,148.8646c9.3442-.0808,18.6909-.6894,27.9824-1.6983,4.6447-.5185,9.2769-1.16,13.87-2.0088,4.5975-.8259,9.121-1.9967,13.63-3.24,9.0049-2.5068,17.9482-5.2913,26.6967-8.5711a15.519,15.519,0,0,0,5.9543-3.3887,22.3168,22.3168,0,0,0,2.1538-2.7154,16.6694,16.6694,0,0,0,1.7443-2.9845,69.6951,69.6951,0,0,0,4.1162-13.3342l.0842.2443-2.5713-2.1447a.2527.2527,0,0,1-.0683-.2939,20.7344,20.7344,0,0,0,1.4214-3.599c.3146-1.2533.5748-2.5388.8452-3.8125.5312-2.5529.9792-5.1217,1.42-7.6968.2-1.2948.5156-2.5671.5985-3.8462.0969-1.2889.1076-2.5913.0918-3.8922-.0389-2.6034-.1915-5.2086-.3849-7.8091l.0667.1517-.3988-.4261a.2506.2506,0,0,1-.0592-.235l.427-1.611-.0065.0944-.7771-6.7227.0368.1085-.4852-.7763a.2493.2493,0,0,1-.0371-.1545l.0971-1.1062.0032.0674A198.3606,198.3606,0,0,0,199.1889,38.22c-.8556-2.39-1.7613-4.75-2.703-7.1139-.9136-2.3869-1.5548-4.8515-2.5738-7.1507a19.0419,19.0419,0,0,0-4.2538-6.1419,30.77,30.77,0,0,0-6.0613-4.4746C174.73,8.5363,165.0954,4.8147,155.0454,3.555c-10.0663-1.2643-20.2436-.1508-30.3647.3606C104.415,5.1809,84.1631,6.6744,63.9127,8.1814q-30.3816,2.1855-60.75,4.5567c20.1744-2.4556,40.4042-4.2692,60.64-6.01q30.3692-2.4258,60.7792-4.4095c5.0745-.3023,10.13-.6563,15.2392-.87a92.0989,92.0989,0,0,1,15.4263.5062,71.4892,71.4892,0,0,1,15.05,3.67c2.418.8906,4.81,1.8421,7.1494,2.8979a67.8623,67.8623,0,0,1,6.9367,3.469,32.3112,32.3112,0,0,1,6.3565,4.7158,20.61,20.61,0,0,1,4.5754,6.6283c1.0785,2.4553,1.7165,4.9415,2.5917,7.2286.9233,2.3289,1.849,4.7526,2.7006,7.1451a201.3246,201.3246,0,0,1,8.3237,29.48,1.2133,1.2133,0,0,1,.0177.3274l-.0013.011-.097,1.1063-.1852-.7716.4852.7763a1.2444,1.2444,0,0,1,.181.512l.0033.0316.7728,6.6825.0011.0092a1.2708,1.2708,0,0,1-.0335.4638l-.427,1.6109-.2955-1.1742.3988.4261a1.2485,1.2485,0,0,1,.3338.76c.1949,2.6231.3492,5.2487.3891,7.9021.0157,1.3286.0064,2.66-.0964,4.0307-.0216.3408-.0657.6923-.1072,1.0434-.0544.3673-.1119.7185-.17,1.0214l-.338,1.9186c-.44,2.57-.8924,5.1672-1.4289,7.7456-.2753,1.295-.5277,2.5507-.862,3.8844a12.6135,12.6135,0,0,1-.6944,2.0352l-.8088,1.798-.3412-1.4683,2.5713,2.1448a1.2519,1.2519,0,0,1,.4215,1.2229c-.504,2.3186-1.0822,4.614-1.76,6.892a50.7192,50.7192,0,0,1-2.4635,6.761c-.26.5555-.5331,1.1086-.8551,1.6567a17.4609,17.4609,0,0,1-1.0265,1.5635,23.6442,23.6442,0,0,1-2.3052,2.8962A12.22,12.22,0,0,1,197.077,133.3a33.37,33.37,0,0,1-3.3539,1.4471c-8.8338,3.3114-17.7823,6.0958-26.8368,8.6172-4.512,1.2444-9.1015,2.4324-13.7545,3.2684-4.64.8575-9.3048,1.503-13.9779,2.0249-9.352,1.0147-18.72,1.6255-28.143,1.7074a.75.75,0,0,1-.0131-1.5h.0078Z" style="fill:#687581"/><path d="M1.2351,144.49l25.2145-.4738a.7254.7254,0,0,1,.7332.634l.0031.026.1994,1.6359a.8921.8921,0,0,0,.5376.6835,2.7088,2.7088,0,0,0,.3171.0915l.4028.1057.8056.2115,1.6111.4231a.75.75,0,1,1-.3809,1.4508h0l-1.6279-.4275-.8139-.2139-.407-.1069a3.3879,3.3879,0,0,1-.4836-.15,2.3951,2.3951,0,0,1-1.4427-1.836l-.2064-1.6883.7361.66Z" style="fill:#687581"/><g id="bea331c1-ca32-4104-bee4-871743c02d3a" data-name="Offset Group"><path d="M103.3089,111.9082c-5.8326-7.706-14.0395-12.9788-23.1968-14.332a140.0545,140.0545,0,0,0-16.0444-.6324A32.8747,32.8747,0,0,0,50.616,100.86,37.1231,37.1231,0,0,0,38.73,111.1966a45.6823,45.6823,0,0,0-8.7373,30.6908,49.1556,49.1556,0,0,0,.8671,6.4192A43.9842,43.9842,0,0,0,46.87,174.6426a33.9268,33.9268,0,0,0,23.004,7.128c1.2569-.0682,9.2681-1.2526,12.6445-2.0779a38.1285,38.1285,0,0,0,21.343-14.2553,43.142,43.142,0,0,0,8.4237-27.8539" style="fill:none;stroke:#687581;stroke-miterlimit:10;stroke-width:0.5px"/><path d="M103.11,112.0591C97.3113,104.3985,89.16,99.1659,80.0756,97.8235a139.9778,139.9778,0,0,0-15.9909-.63,32.6232,32.6232,0,0,0-13.35,3.8868,36.8731,36.8731,0,0,0-11.806,10.2673A45.4322,45.4322,0,0,0,30.2417,141.87a48.9027,48.9027,0,0,0,.8626,6.3866,43.7345,43.7345,0,0,0,15.9171,26.1869,33.6791,33.6791,0,0,0,22.8391,7.0773c1.2383-.0672,9.2339-1.2487,12.5986-2.0711a37.8794,37.8794,0,0,0,21.2027-14.1628,42.8924,42.8924,0,0,0,8.3736-27.6935" style="fill:none;stroke:#687581;stroke-miterlimit:10;stroke-width:0.5px"/><path d="M102.91,112.21c-5.7639-7.6153-13.86-12.8075-22.8712-14.1392a139.9674,139.9674,0,0,0-15.9373-.6281A32.3747,32.3747,0,0,0,50.8538,101.3a36.6242,36.6242,0,0,0-11.7255,10.1982,45.1822,45.1822,0,0,0-8.6372,30.3549,48.6421,48.6421,0,0,0,.8582,6.3538,43.4846,43.4846,0,0,0,15.8235,26.0378,33.4312,33.4312,0,0,0,22.6742,7.0266c1.22-.0662,9.2-1.2447,12.5527-2.0643a37.6288,37.6288,0,0,0,21.0624-14.07,42.6428,42.6428,0,0,0,8.3235-27.533" style="fill:none;stroke:#687581;stroke-miterlimit:10;stroke-width:0.5px"/></g><path d="M102.7109,112.3608c-5.73-7.57-13.77-12.7218-22.7084-14.0427a139.9155,139.9155,0,0,0-15.8837-.626c-20.0178,1.367-34.9656,21.1366-33.3783,44.1438a48.4016,48.4016,0,0,0,.8538,6.3212c4.0315,19.8311,20.0951,34.1231,38.2391,32.8646,1.2013-.0652,9.1658-1.2408,12.507-2.0575,17.1867-4.2012,30.0222-20.8449,29.1954-41.3505" style="fill:none;stroke:#687581;stroke-miterlimit:10;stroke-width:0.5px"/><path d="M54.6117,174.3747a33.056,33.056,0,0,1-8.8306-5.352,36.7665,36.7665,0,0,1-6.8348-7.7786,40.9007,40.9007,0,0,1-2.7293-39.7414,36.8006,36.8006,0,0,1,5.7074-8.64,33.0574,33.0574,0,0,1,8.0169-6.5082,32.9378,32.9378,0,0,0-7.8335,6.67,36.7145,36.7145,0,0,0-5.59,8.62,41.7629,41.7629,0,0,0,2.7061,39.4184,36.7414,36.7414,0,0,0,6.7158,7.7754A32.9377,32.9377,0,0,0,54.6117,174.3747Z" style="fill:#687581"/><path d="M76.1647,104.515a33.0575,33.0575,0,0,1,8.8306,5.352,36.7693,36.7693,0,0,1,6.8348,7.7786,40.901,40.901,0,0,1,2.7292,39.7414,36.7944,36.7944,0,0,1-5.7074,8.64,33.0527,33.0527,0,0,1-8.0169,6.5081,32.9312,32.9312,0,0,0,7.8335-6.67,36.7108,36.7108,0,0,0,5.59-8.62,41.7631,41.7631,0,0,0-2.7062-39.4183,36.7414,36.7414,0,0,0-6.7158-7.7754A32.9321,32.9321,0,0,0,76.1647,104.515Z" style="fill:#687581"/><ellipse cx="65.0939" cy="140.1902" rx="23.3592" ry="27.9268" transform="translate(-9.4526 4.7896) rotate(-3.9289)" style="fill:none;stroke:#687581;stroke-miterlimit:10;stroke-width:0.5px"/><path d="M67.1106,98.8938a30.7059,30.7059,0,0,1,13.7019,3.0877,34.784,34.784,0,0,1,11.0847,8.7148,45.4131,45.4131,0,0,1,10.3081,25.9786,44.0872,44.0872,0,0,1-6.7665,27.0939A37.1865,37.1865,0,0,1,85.6805,173.96,32.5025,32.5025,0,0,1,72.69,179.33c9.3263-1.7453,17.4385-7.8518,22.4692-15.7416a43.72,43.72,0,0,0,6.55-26.8767,45.0022,45.0022,0,0,0-10.0638-25.8007,34.6363,34.6363,0,0,0-10.94-8.7117A30.584,30.584,0,0,0,67.1106,98.8938Z" style="fill:#687581"/><path d="M1.2225,124.6658c5.2231-.272,10.4473-.3889,15.6688-.5833,1.2863-.0547,2.6726-.0022,3.638-.6795.9235-.7208,1.0428-2.1532,1.4083-3.3863.6531-2.5367,1.4021-5.0495,2.2014-7.542,1.6332-4.9766,3.3956-9.8911,5.1811-14.8166a22.3151,22.3151,0,0,1,3.9118-6.8643,18.7245,18.7245,0,0,1,6.3511-4.7019,31.0083,31.0083,0,0,1,7.5473-2.31c2.5941-.4755,5.2006-.6952,7.7992-.9894,5.2043-.536,10.4285-.94,15.6658-1.0487q3.9273-.0839,7.8553.0487a60.3754,60.3754,0,0,1,7.8489.6159,23.6656,23.6656,0,0,1,7.4834,2.5166,21.04,21.04,0,0,1,6.0945,5.0169c3.4291,4.0542,5.564,8.9472,7.5573,13.7625.9944,2.4211,1.9436,4.8582,2.8844,7.2976l1.4071,3.6577a5.78,5.78,0,0,0,2.2271,2.9309,7.3852,7.3852,0,0,0,3.6223.9271c1.2885.058,2.594.0268,3.8915-.0361,2.599-.1333,5.1926-.4258,7.779-.7681a46.7413,46.7413,0,0,0,7.6443-1.5085c2.4962-.7274,4.9411-1.6424,7.3658-2.6044q3.6351-1.4487,7.2231-3.0256c2.3934-1.0418,4.7442-2.1735,7.14-3.24a29.7641,29.7641,0,0,1,7.5071-2.4019,41.9537,41.9537,0,0,1,7.8667-.4187c5.2332.1283,10.4572.4554,15.67.9107,2.6061.23,5.209.497,7.8068.8305,1.3033.1824,2.5858.3275,3.9026.6412a14.6412,14.6412,0,0,1,3.5877,1.722.25.25,0,1,1-.2659.4234,14.1774,14.1774,0,0,0-3.4586-1.66c-1.2259-.2912-2.5476-.4472-3.8309-.6246-2.5873-.3311-5.1856-.5965-7.7865-.8251-5.2023-.4523-10.4181-.7767-15.6369-.9024a41.44,41.44,0,0,0-7.7691.4149,29.2375,29.2375,0,0,0-7.3815,2.3676c-2.38,1.06-4.74,2.1974-7.1394,3.243q-3.597,1.5752-7.2393,3.0357c-2.4325.9662-4.8892,1.8872-7.4126,2.6239a47.3031,47.3031,0,0,1-7.7218,1.5281c-2.5947.3444-5.2.64-7.8226.7753-1.3123.0639-2.6231.0965-3.946.0376a7.9011,7.9011,0,0,1-3.8828-1.0077,5.4991,5.4991,0,0,1-1.4946-1.4037,8.7359,8.7359,0,0,1-.95-1.7875l-1.41-3.66c-.9411-2.4374-1.89-4.8711-2.8828-7.2851-1.99-4.8062-4.1134-9.646-7.4723-13.6113a20.483,20.483,0,0,0-5.94-4.8874,23.1072,23.1072,0,0,0-7.3107-2.4534,59.8752,59.8752,0,0,0-7.7737-.6052q-3.9111-.1293-7.8244-.0453c-5.2165.1109-10.4248.5149-15.6187,1.052-2.5934.2944-5.2044.5169-7.7537.9861a30.4379,30.4379,0,0,0-7.4064,2.2676,18.1441,18.1441,0,0,0-6.1567,4.5587,21.7344,21.7344,0,0,0-3.8048,6.6915c-1.77,4.9054-3.5249,9.8382-5.1437,14.7978-.811,2.48-1.57,4.975-2.2348,7.4972-.1737.6323-.3139,1.2554-.5149,1.9064a3.4108,3.4108,0,0,1-1.1148,1.7723,4.1066,4.1066,0,0,1-1.9684.6675,16.6662,16.6662,0,0,1-1.98.08C11.68,124.6135,6.4518,124.7172,1.2225,124.6658Z" style="fill:#687581"/><path d="M112.788,128.98l-3.3457-9.0537c-1.1485-3.0043-2.2714-6.0169-3.4482-9.008-1.18-2.9895-2.4123-5.9579-3.7208-8.8872a36.9138,36.9138,0,0,0-4.7721-8.2673A20.5352,20.5352,0,0,0,90.12,87.9007a21.2917,21.2917,0,0,0-4.505-1.4984,35.0368,35.0368,0,0,0-4.7442-.586,129.9159,129.9159,0,0,0-19.243.1709c-3.2023.25-6.3975.5956-9.5846,1.0055A29.4267,29.4267,0,0,0,42.8153,89.36a21.1755,21.1755,0,0,0-7.53,5.7074,20.0423,20.0423,0,0,0-2.584,3.9863c-.6629,1.4357-1.2655,2.9447-1.8553,4.4316a117.5625,117.5625,0,0,0-5.6237,18.4011c-.6838,3.1375-1.2492,6.3009-1.7382,9.4769-.25,1.5845-.5364,3.1781-.6867,4.7561a11.5728,11.5728,0,0,0,.0228,2.3774,3.7343,3.7343,0,0,0,.8266,2.1918,3.8394,3.8394,0,0,1-1.0565-2.1545,11.6393,11.6393,0,0,1-.1638-2.4352c.0756-1.6324.3541-3.2132.5633-4.8115.4868-3.1842,1.0506-6.3589,1.7339-9.51A118.0827,118.0827,0,0,1,30.3517,103.29c.5951-1.5034,1.1837-2.9865,1.8675-4.4721a20.5814,20.5814,0,0,1,2.6492-4.0967,21.7238,21.7238,0,0,1,7.717-5.8632,29.9814,29.9814,0,0,1,9.3854-2.4226c3.1946-.4143,6.3987-.7646,9.6118-1.0187a130.4914,130.4914,0,0,1,19.3292-.1916,35.618,35.618,0,0,1,4.827.5924,21.89,21.89,0,0,1,4.6345,1.5363,21.1444,21.1444,0,0,1,7.6046,6.0249,37.5726,37.5726,0,0,1,4.87,8.3917c1.3346,2.938,2.5328,5.93,3.6935,8.9346s2.27,6.0275,3.293,9.0808C110.8686,122.8349,111.889,125.8883,112.788,128.98Z" style="fill:#687581"/><path d="M115.3083,141.1653A4.7482,4.7482,0,0,1,113,139.9463a8.3436,8.3436,0,0,1-1.56-2.1521,32.9492,32.9492,0,0,1-1.9139-4.7677q-1.5741-4.81-3.2421-9.5869c-2.25-6.3559-4.4544-12.739-7.0589-18.9262A38.81,38.81,0,0,0,94.561,95.79a17.3354,17.3354,0,0,0-7.5926-5.8229c-3.0112-1.2024-6.36-1.3383-9.7217-1.5292-3.35-.1613-6.71-.1667-10.0667-.0355-3.3573.1235-6.712.3818-10.059.7294q-2.51.259-5.0149.5861a32.5273,32.5273,0,0,0-4.8807.9071,19.8121,19.8121,0,0,0-8.4867,4.7177,17.3875,17.3875,0,0,0-3.0006,3.836,41.0781,41.0781,0,0,0-2.0154,4.5527A111.03,111.03,0,0,0,27.49,122.8751c-.6691,3.2843-1.0951,6.6213-1.4605,9.9726-.174,1.68-.3835,3.35-.4231,5.0039a13.9,13.9,0,0,0,.12,2.4334c.116.7606.396,1.5636.8714,1.7671l.0014.0008.05.0294a.4976.4976,0,0,1,.2406.3666l.2727,2.2576a.5.5,0,0,1-.9928.12l-.2727-2.2575.2907.3957-.0033-.0017a2.2438,2.2438,0,0,1-1.0768-1.1728,5.4726,5.4726,0,0,1-.3818-1.3416,14.8511,14.8511,0,0,1-.1462-2.6194c.033-1.7256.2372-3.413.4016-5.0927.3487-3.3645.76-6.7394,1.4222-10.08a112.12,112.12,0,0,1,6.19-19.3774l.9469-2.3544a19.9108,19.9108,0,0,1,1.1161-2.3595A18.6445,18.6445,0,0,1,37.8538,94.43a21.113,21.113,0,0,1,9.01-5.08,33.9179,33.9179,0,0,1,5.0649-.9727q2.5176-.345,5.0462-.6171c3.37-.3683,6.7533-.6471,10.1465-.79,3.3924-.1507,6.7949-.1638,10.1932-.0183,1.7067.078,3.38.17,5.1072.3585a21.25,21.25,0,0,1,5.103,1.2,18.9479,18.9479,0,0,1,8.3315,6.28,40.3458,40.3458,0,0,1,4.9455,9.0536c2.63,6.271,4.9169,12.6413,7.0409,19.0662q1.5954,4.8167,3.1124,9.6573c.4985,1.6088.9447,3.2321,1.5,4.7672A6.7874,6.7874,0,0,0,115.3083,141.1653Z" style="fill:#687581"/><path d="M26.3922,142.7587q-5.9844.0216-11.9681-.1094c-3.9892-.0808-7.9785-.141-11.9674-.2611,3.99-.08,7.98-.1,11.9694-.1406q5.9847-.0672,11.9687.0111a.25.25,0,0,1-.0026.5Z" style="fill:#687581"/><path d="M42.3239,85.3032l-.6422-7.0268L46.171,56.3841s2.4189-2.5519,3.2145-8.9786c1.4411-11.639,4.8219-31.7023,4.8219-31.7023l.4207-2.4966" style="fill:none;stroke:#687581;stroke-linecap:round;stroke-linejoin:round;stroke-width:0.5px"/><path d="M9.0488,18.8129c6.7826-.74,13.58-1.2286,20.378-1.7153L49.82,15.6249l40.7961-2.9115,20.399-1.4534q5.1011-.377,10.2017-.677a61.8939,61.8939,0,0,1,10.2669-.0447,9.0029,9.0029,0,0,1,4.8591,1.8789,8.7393,8.7393,0,0,1,2.4488,4.5936c.738,3.3569,1.309,6.7037,1.8871,10.07q1.6874,10.0929,2.9,20.254a.25.25,0,1,1-.4967.0569q-1.2407-10.1372-2.9548-20.2174c-.5845-3.3485-1.1723-6.7229-1.907-10.02a8.1651,8.1651,0,0,0-2.2763-4.2835,8.5142,8.5142,0,0,0-4.539-1.729,61.4964,61.4964,0,0,0-10.1529.0385q-5.1018.2865-10.2021.6668L90.6539,13.28,49.8615,16.15,29.4627,17.6025C22.6636,18.0911,15.8635,18.5775,9.0488,18.8129Z" style="fill:#687581"/><path d="M8.871,16.4237c6.9415-.7435,13.8971-1.231,20.8536-1.72l20.868-1.4773,41.7467-2.9192L113.2134,8.85c3.48-.252,6.9546-.4521,10.4439-.6459,1.746-.0729,3.4949-.1466,5.2516-.0889a22.26,22.26,0,0,1,5.2464.6533,9.6372,9.6372,0,0,1,4.6608,2.5708,12.0432,12.0432,0,0,1,2.593,4.6462c.4819,1.716.79,3.4253,1.1231,5.14l.9386,5.1505q1.7816,10.318,3.0433,20.7129a.25.25,0,1,1-.4966.0584q-1.29-10.37-3.0978-20.6747l-.9514-5.1384c-.3358-1.7076-.6552-3.4314-1.122-5.0738a11.458,11.458,0,0,0-2.4622-4.3986,9.1362,9.1362,0,0,0-4.3868-2.4052,21.6842,21.6842,0,0,0-5.1059-.6378c-1.7292-.0588-3.4681.0125-5.2053.0834-3.4742.19-6.9628.387-10.439.6353l-20.8709,1.437L50.6336,13.7517,29.76,15.209C22.8019,15.6984,15.8435,16.189,8.871,16.4237Z" style="fill:#687581"/><path d="M72.9054,11.8065s-1.0733,20.4683-1.0733,28.2,3.2422,10.5582,10.8907,10.1425,46.89-2.2867,60.6073-2.7855,21.63-.7387,26.6184,1.0071" style="fill:none;stroke:#687581;stroke-linecap:round;stroke-linejoin:round;stroke-width:0.5px"/><path d="M131.9418,3.2275c-2.151.1516-2.2494,4.9839-2.2494,4.9839" style="fill:none;stroke:#687581;stroke-linecap:round;stroke-linejoin:round;stroke-width:0.5px"/><path d="M167.6206,47.74s.5652,4.7369.8978,7.231l-.582,1.1639.9145.9145a79.55,79.55,0,0,1,.6928,8.0918l-.4988,1.3856.388.9976c1.7181,16.4608-2.9929,34.03-2.9929,34.03l-1.6991,3.908" style="fill:none;stroke:#687581;stroke-linecap:round;stroke-linejoin:round;stroke-width:0.5px"/><path d="M208.44,77.6284c-2.8156-2.8991-13.7178-8.0128-39.3951-11.1018-7.3713-.8868-25.8828-.8314-28.3768-.776s-3.3254-.1108-5.21-1.441a3.9872,3.9872,0,0,1-1.9953-3.88V57.2031a.855.855,0,0,1,.7975-.8533c12.4934-.859,26.4586-1.002,33.6759-.2151,7.3714.8036,34.418,5.1821,39.669,12.39" style="fill:none;stroke:#687581;stroke-miterlimit:10;stroke-width:0.5px"/><path d="M169.685,79.8824c3.3716-.09,17.7782,2.5341,27.9619,4.8078,9.8205,2.1928,11.57,3.3972,11.57,3.3972" style="fill:none;stroke:#687581;stroke-miterlimit:10;stroke-width:0.5px"/><path d="M18.5424,101.6928c1.4088-3.1276,2.8956-6.2238,4.5379-9.241.825-1.5044,1.645-3.0189,2.6183-4.45a25.4789,25.4789,0,0,1,3.3278-3.9771,21.4986,21.4986,0,0,1,8.9269-5.1724,32.4465,32.4465,0,0,1,5.0722-1.0626c1.7045-.243,3.4136-.4237,5.1235-.59,6.8424-.6318,13.7055-.9176,20.57-1.029a162.5636,162.5636,0,0,1,20.5871.7842,37.6872,37.6872,0,0,1,5.0872.9517,19.184,19.184,0,0,1,4.833,1.9179c3.0766,1.7547,5.1743,4.6881,7.0217,7.5491.93,1.4464,1.816,2.9221,2.6986,4.3883.8982,1.4321,1.7524,2.9933,3.1592,3.8165a9.3616,9.3616,0,0,0,4.8974.5577c1.6966-.1214,3.4-.3533,5.1045-.5371a34.16,34.16,0,0,0,5.0294-.8476,21.225,21.225,0,0,0,4.679-1.9579c1.493-.8189,2.9379-1.7349,4.36-2.685,1.4186-.9537,2.8452-1.9063,4.16-2.9815a13.5958,13.5958,0,0,0,3.348-3.7414,14.5616,14.5616,0,0,0,1.5225-4.7934c.4721-3.37.5484-6.81.6987-10.236A61.9829,61.9829,0,0,1,145.66,78.66a12.2522,12.2522,0,0,1-5.0046,8.8577c-1.3415,1.0981-2.7721,2.0536-4.1977,3.0135-1.4285.955-2.8826,1.8787-4.3967,2.71a21.7316,21.7316,0,0,1-4.7887,2.0056,34.63,34.63,0,0,1-5.1054.8653c-1.705.1848-3.4022.4174-5.1271.5423a9.7865,9.7865,0,0,1-5.1871-.6186c-1.6031-.9525-2.4459-2.5715-3.3558-4.0011-.8871-1.4716-1.7675-2.9363-2.6935-4.3743-1.8443-2.8533-3.8895-5.6918-6.8469-7.3738a18.652,18.652,0,0,0-4.7012-1.86,37.1529,37.1529,0,0,0-5.0183-.9352,162.1269,162.1269,0,0,0-20.51-.7674c-6.8507.1152-13.7052.405-20.5246,1.0389A54.7093,54.7093,0,0,0,38.12,79.4a21.7022,21.7022,0,0,0-8.7347,5,33.7033,33.7033,0,0,0-5.997,8.2234C21.7006,95.6032,20.0715,98.6222,18.5424,101.6928Z" style="fill:#687581"/><path d="M167.3545,46.5741c-.3051-1.7272-.6638-3.4438-1.0209-5.16l-1.0556-5.1526-2.1153-10.305-2.041-10.3213c-.3239-1.7239-.649-3.4545-.8141-5.21a14.4164,14.4164,0,0,1-.0156-2.6434A3.3841,3.3841,0,0,1,161.34,5.426a3.3256,3.3256,0,0,0-.9265,2.3665,14.2322,14.2322,0,0,0,.137,2.6068c.2135,1.733.5782,3.4465.9477,5.159l2.1536,10.2987c.6751,3.4418,1.37,6.88,2.0015,10.3307S166.8986,43.0945,167.3545,46.5741Z" style="fill:#687581"/><path d="M196.0388,29.688a23.1237,23.1237,0,0,0-5.7133-8.9829,26.35,26.35,0,0,0-4.233-3.29,47.6855,47.6855,0,0,0-4.7648-2.5237c-3.2594-1.5585-6.5455-3.0761-9.93-4.3093A36.4756,36.4756,0,0,0,166.23,9.09c-.8421-.1649-1.8041-.2559-2.2478.35a3.9694,3.9694,0,0,0-.4249,2.4248,45.7245,45.7245,0,0,0,.8767,5.3139l1.0527,5.3265,2.079,10.6608c.6765,3.5572,1.3374,7.1178,1.9368,10.6914a87.02,87.02,0,0,1,1.2524,10.7961c-.7767-3.5562-1.1068-7.1515-1.7541-10.7119-.6051-3.5654-1.2725-7.1222-1.9554-10.6759l-2.0989-10.6531-1.0632-5.3251a45.9906,45.9906,0,0,1-.8969-5.3913,4.4186,4.4186,0,0,1,.5409-2.8113,1.8542,1.8542,0,0,1,1.3866-.6873,5.5423,5.5423,0,0,1,1.4255.1206,37.0363,37.0363,0,0,1,5.26,1.5058c3.4226,1.24,6.7215,2.7573,9.9944,4.3145a48.3453,48.3453,0,0,1,4.8119,2.5821,26.9219,26.9219,0,0,1,4.3077,3.385,23.6628,23.6628,0,0,1,5.7943,9.2066l.0022.0063a.25.25,0,0,1-.47.1693Z" style="fill:#687581"/><path d="M170.0731,49.2837c27.4973,4.8507,34.0591,11.2984,34.0591,11.2984a195.4821,195.4821,0,0,0-8.9012-28.986c-1.7118-4.1653-2.8565-6.3542-8.6723-10.1288-6.0525-3.9284-20.0779-8.69-23.2732-9.375" style="fill:none;stroke:#687581;stroke-linecap:round;stroke-linejoin:round;stroke-width:0.5px"/><path d="M204.3218,60.4191a14.889,14.889,0,0,1,1.1266,1.8958q.4961.9718.9091,1.976c-.3519-.6321-.726-1.25-1.1247-1.8494a14.6716,14.6716,0,0,0-1.29-1.6965l-.01-.0105a.2507.2507,0,0,1,.37-.338Z" style="fill:#687581"/><path d="M134.6823,4.0088a56.3986,56.3986,0,0,1,7.2251-.2564,17.742,17.742,0,0,1,7.0566,1.6023,10.935,10.935,0,0,1,5.0286,5.181,17.8643,17.8643,0,0,1,1.225,3.4421c.2832,1.189.4955,2.3643.7425,3.5462.9385,4.7256,1.8149,9.4631,2.6632,14.2051.8332,4.7448,1.6193,9.4981,2.33,14.2631L155.48,17.6191c-.2378-1.1768-.4462-2.374-.7151-3.53a17.4129,17.4129,0,0,0-1.1729-3.36,10.8112,10.8112,0,0,0-4.7937-5.05,17.7317,17.7317,0,0,0-6.9045-1.7006A56.2926,56.2926,0,0,0,134.6823,4.0088Z" style="fill:#687581"/><path d="M171.781,66.8705c.2749.3391.5285.6919.7915,1.0387l.0134.0175.0036.0362q.2712,2.7.35,5.4107c.0426.9007.0146,1.8151.0585,2.6924a2.0854,2.0854,0,0,0,.3759,1.1911,2.2081,2.2081,0,0,0,1.1578.5758,2.1046,2.1046,0,0,1-1.3071-.429,2.1641,2.1641,0,0,1-.5651-1.2967c-.1321-.92-.1539-1.8155-.2072-2.7179q-.1379-2.7045-.08-5.4168l.0169.0534C172.186,67.6412,171.9728,67.2627,171.781,66.8705Z" style="fill:#687581"/><path d="M207.142,76.5513c.307.4341.6032.8741.8807,1.3242l.0123.02.0049.0413c.1694,1.4258.2575,2.8557.2848,4.29a10.2461,10.2461,0,0,1-.1128,2.189.6814.6814,0,0,1-.4077.5014.9223.9223,0,0,1-.5987-.0548,5.6881,5.6881,0,0,1-.9714-.4893,9.0893,9.0893,0,0,0,1.021.3058.8217.8217,0,0,0,.455-.01.4034.4034,0,0,0,.1937-.3294,4.6594,4.6594,0,0,0-.0023-1.0276l-.0578-1.0688c-.0736-1.4274-.118-2.858-.09-4.2919l.0171.0608C207.5451,77.5338,207.3382,77.0455,207.142,76.5513Z" style="fill:#687581"/><path d="M170.7236,46.79q4.5138.894,9.0059,1.8687l4.4886.9927,2.2418.5a2.1152,2.1152,0,0,0,.9968.0433c.2209-.0827.3889-.4382.5459-.7734a5.9326,5.9326,0,0,1,.57-1.06.9618.9618,0,0,1,.6371-.3844,1.74,1.74,0,0,1,.662.0845c.7575.2512,1.4427.5638,2.1673.8428.72.2977,1.4193.55,2.1558.885a5.0352,5.0352,0,0,1,1.5154,1.8411c.4046.6855.5377,1.4775,1.1143,1.9216a14.5854,14.5854,0,0,0,1.9148,1.2143l3.9456,2.37-4.0626-2.155a14.27,14.27,0,0,1-2-1.1871,2.5977,2.5977,0,0,1-.7355-.9615,11.23,11.23,0,0,0-.5115-1.0139,5.0617,5.0617,0,0,0-1.4019-1.6583c-.6616-.2871-1.4079-.5563-2.1074-.8354-.7081-.2651-1.4258-.5795-2.1255-.8042a1.3119,1.3119,0,0,0-.4707-.0639.468.468,0,0,0-.3119.2064,5.8722,5.8722,0,0,0-.5019.9695,1.8664,1.8664,0,0,1-.8148,1.0142,2.419,2.419,0,0,1-1.2725-.0278l-2.2419-.5232-4.477-1.0632Q175.1752,47.9559,170.7236,46.79Z" style="fill:#687581"/><path d="M116.3481,124.2087c7.6593-1.2253,15.38-2.2328,22.9671-3.6462a32.4043,32.4043,0,0,0,5.37-2.1035l5.2563-2.4939,10.4834-5.0618a57.3052,57.3052,0,0,1,5.3562-2.3354,20.9773,20.9773,0,0,1,5.7393-1.1889c3.9024-.2548,7.78-.0592,11.662.0224,3.8807.1261,7.7654.2966,11.6317.7175,1.933.2049,3.8623.47,5.7685.8649a20.1718,20.1718,0,0,1,5.5241,1.819,21.8436,21.8436,0,0,0-5.57-1.5747c-1.9074-.3274-3.8327-.5438-5.76-.7312-3.8585-.3418-7.7318-.535-11.6075-.6518-3.8732-.0781-7.7664-.2677-11.6124-.0116a20.5058,20.5058,0,0,0-5.6213,1.17,56.8938,56.8938,0,0,0-5.3073,2.3216l-10.4791,5.0731L144.89,118.9a32.8182,32.8182,0,0,1-5.4527,2.1393C131.773,122.4952,124.0833,123.4767,116.3481,124.2087Z" style="fill:#687581"/><path d="M186.3863,115.5577q-3.9244.0836-7.8444.0838l-3.9185.0063a10.4181,10.4181,0,0,0-3.7679.5623,8.6086,8.6086,0,0,0-3.0458,2.25l-2.7309,2.8117q-1.368,1.4034-2.7077,2.8332c-.9009.9461-1.7944,1.9-2.6333,2.9039a76.3118,76.3118,0,0,1,5.061-6.0006c.8746-.9736,1.7838-1.9145,2.6834-2.8641a9.0455,9.0455,0,0,1,3.1886-2.3981,10.8557,10.8557,0,0,1,3.948-.5524c1.3121-.0015,2.6164.0167,3.9251.0649Q182.4669,115.3626,186.3863,115.5577Z" style="fill:#687581"/><path d="M205.8188,117.2472c.2857-1.0092.8263-2.2613-3.7112-2.84a.81.81,0,0,0-.6983.2549l-1.6044,1.7459-11.6389-.4434-.8436-2.1312a.857.857,0,0,0-.7787-.5412c-1.835-.0382-7.6638-.1542-10.9034-.1542-3.88,0-6.54-.1662-9.7545,3.1592s-6.5954,6.9279-8.369,9.2-2.3278,4.1013,6.54,3.6579c0,0,5.0435-4.7664,6.8725-6.5954s2.2724-2.1615,6.2074-2.3278,10.9185-.1662,17.2922.1109,10.7519.3545,9.56,2.3388" style="fill:none;stroke:#687581;stroke-linecap:round;stroke-linejoin:round;stroke-width:0.585587046803273px"/><path d="M164.2766,129.3486a18.3919,18.3919,0,0,1-5.687,3.9c-2.07.9841-4.2059,1.7974-6.338,2.6125,2.0949-.9052,4.1947-1.81,6.2061-2.8739a17.9718,17.9718,0,0,0,5.3793-4.0258.2929.2929,0,0,1,.45.3752Z" style="fill:#687581"/><path d="M170.1653,126.6064l.9522-1.1078a2.346,2.346,0,0,1,1.67-.8328h6.6708c.7473,0,.8172.2628.3455,1.2331s-.6641,1.3061-1.4867,1.3174-6.9713.0919-7.6131.1007C169.8573,127.3286,169.8462,126.9776,170.1653,126.6064Z" style="fill:none;stroke:#687581;stroke-linecap:round;stroke-linejoin:round;stroke-width:0.5px"/><path d="M198.7716,126.6149l.6793-1.1087c.3091-.5043.6546-.8336.8752-.8341l2.5477-.0057c.2854-.0007.2372.2621-.2195,1.2328s-.6257,1.3067-.9431,1.3187-2.6886.0978-2.9362.1071C198.4482,127.3374,198.544,126.9864,198.7716,126.6149Z" style="fill:none;stroke:#687581;stroke-linecap:round;stroke-linejoin:round;stroke-width:0.5px"/><path d="M185.672,122.5043a19.0765,19.0765,0,0,1-.9192,3.4849,7.3757,7.3757,0,0,1-.8641,1.6221,7.6142,7.6142,0,0,1-1.2788,1.33,14.4148,14.4148,0,0,1-3.1187,1.8511,30.8766,30.8766,0,0,1-3.3521,1.3c1.0575-.5651,2.1383-1.0731,3.18-1.6442a19.0544,19.0544,0,0,0,2.9727-1.8927,7.278,7.278,0,0,0,2.1093-2.719C184.9046,124.7759,185.2519,123.6256,185.672,122.5043Z" style="fill:#687581"/><path d="M199.1065,122.6523a17.421,17.421,0,0,1-1.2552,3.7428,7.6914,7.6914,0,0,1-2.7177,2.9173,20.5676,20.5676,0,0,1-3.5689,1.7155,39.186,39.186,0,0,1-3.7425,1.2126l3.5949-1.5677a24.0634,24.0634,0,0,0,3.4456-1.78,7.6945,7.6945,0,0,0,2.6535-2.6829A30.0667,30.0667,0,0,0,199.1065,122.6523Z" style="fill:#687581"/><path d="M153.97,129.6262a17.8624,17.8624,0,0,1-4.4448,1.9238c-1.5619.4355-3.1709.68-4.7338,1.0339q-4.716,1.0591-9.425,2.1881l-9.4331,2.1721q-4.7195,1.0755-9.4573,2.0764,4.6717-1.2745,9.368-2.45c3.13-.7881,6.27-1.5309,9.4088-2.2845,3.1487-.7108,6.29-1.449,9.461-2.0766C147.8889,131.64,151.1262,131.2426,153.97,129.6262Z" style="fill:#687581"/><path d="M177.1367,100.3349c2.2944-.08,4.5925-.0553,6.8869.0468,2.295.097,4.5845.2954,6.871.5226,2.2829.26,4.559.5914,6.8185,1.01a64.7208,64.7208,0,0,1,6.692,1.6347c-2.2456-.4779-4.4954-.9033-6.7576-1.2557-2.2636-.339-4.5284-.6723-6.8075-.8931-2.2735-.2678-4.5556-.458-6.8393-.6369C181.7164,100.5956,179.4293,100.4383,177.1367,100.3349Z" style="fill:#687581"/><path d="M60.5431,37.5862a.6373.6373,0,0,1,.9044.041L64.24,40.771a.9794.9794,0,0,1-.048,1.3513l-3.8094,3.7192a.6586.6586,0,0,1-.9714-.056l-2.7124-3.34a.7275.7275,0,0,1,.0442-.9667Z" style="fill:none;stroke:#687581;stroke-linecap:round;stroke-linejoin:round;stroke-width:0.5px"/><path d="M47.5329,16.1775,44.3454,35.0164c-.55,3.1375-1.1,6.2734-1.7142,9.4042-.335,1.5679-.6428,3.1128-1.0526,4.6788a8.2545,8.2545,0,0,1-.9514,2.2712,4.4436,4.4436,0,0,1-1.9,1.627,13.89,13.89,0,0,1-4.7558.9436l-4.7676.2933-9.5352.5868-9.5391.5232-9.5447.421,9.5225-.7728,9.5283-.6707,9.5321-.607,4.7661-.3036a13.4431,13.4431,0,0,0,4.5614-.9028A3.8915,3.8915,0,0,0,40.17,51.071a7.7322,7.7322,0,0,0,.8771-2.1194c.3938-1.5153.7062-3.0959,1.0337-4.6417.6186-3.1172,1.1753-6.253,1.7309-9.387l3.2254-18.8283a.2512.2512,0,1,1,.4955.0829Z" style="fill:#687581"/><path d="M49.3511,16.0275C48.2822,22.4717,47.232,28.9186,46.08,35.3492c-.5785,3.2159-1.1443,6.43-1.8023,9.6386-.36,1.5994-.6381,3.1961-1.1194,4.7938a7.9376,7.9376,0,0,1-1.0468,2.2932A5.7652,5.7652,0,0,1,40.23,53.7955a12.6451,12.6451,0,0,1-4.817,1.2446c-1.6392.1418-3.2624.2121-4.8944.3218l-9.7795.6019c-6.5218.3673-13.043.7458-19.5723.9745,6.5079-.5875,13.0238-1.0252,19.5392-1.474l9.7763-.6223c1.6259-.1125,3.2667-.1877,4.88-.3309a12.1632,12.1632,0,0,0,4.6009-1.1871,5.8544,5.8544,0,0,0,2.667-3.7055c.4595-1.5313.7436-3.16,1.0964-4.746.6476-3.1913,1.2077-6.4116,1.7787-9.6248L48.858,15.9452a.25.25,0,0,1,.4931.0823Z" style="fill:#687581"/><path d="M3.997,58.8522,20,57.7939l16.0076-.981,32.0154-1.9576q16.0107-.922,32.03-1.7193l16.0169-.8275,16.02-.7491-16.0078.9935-16.011.9151Q84.06,54.3667,68.053,55.3534l-32.0257,1.79-16.0129.8929Z" style="fill:#687581"/><path d="M16.42,66.78a2.3469,2.3469,0,0,0-.733,2.077,1.286,1.286,0,0,0,.5479.8789,1.6986,1.6986,0,0,0,1.0163.2328l4.7-.3271,4.7033-.29,2.3543-.1055a15.0278,15.0278,0,0,0,2.3028-.1832,2.5119,2.5119,0,0,0,1.68-1.2446,1.627,1.627,0,0,0-.1921-1.9143,1.2657,1.2657,0,0,0-.93-.3084l-1.1734.0733-2.3532.1454c-3.1382.1842-6.2782.3338-9.4214.4167,3.13-.332,6.2635-.597,9.3987-.8276l2.3518-.1656,1.1793-.0788a1.7084,1.7084,0,0,1,1.2478.4155,2.0723,2.0723,0,0,1,.305,2.4525,2.9824,2.9824,0,0,1-1.9732,1.5c-3.2008.3871-6.2943.4645-9.4515.6375-1.5715.0851-3.14.1446-4.7163.1965a1.9329,1.9329,0,0,1-1.2182-.3643,1.57,1.57,0,0,1-.5954-1.1056A2.3992,2.3992,0,0,1,16.42,66.78Z" style="fill:#687581"/><path d="M32.9287,17.2a229.0911,229.0911,0,0,0-6.9412,37.0072" style="fill:none;stroke:#687581;stroke-linecap:round;stroke-linejoin:round;stroke-width:0.5px"/><path d="M35.083,17.044A229.1133,229.1133,0,0,0,28.14,54.0683" style="fill:none;stroke:#687581;stroke-linecap:round;stroke-linejoin:round;stroke-width:0.5px"/></g><g id="f0a6049e-caf5-4e24-af87-b978edfb692e" data-name="above"><polygon points="106.365 165.197 165.587 154.362 170.071 158.97 169.228 160.234 106.579 173.87 106.365 165.197" style="fill:#404d59;stroke:#aebbc7;stroke-linecap:round;stroke-linejoin:round"/><line x1="170.071" y1="158.9699" x2="106.2895" y2="172.6907" style="fill:none;stroke:#aebbc7;stroke-linecap:round;stroke-linejoin:round;stroke-width:0.5px"/><path d="M79.0327,162.5641v8.2809l-43.2136-2.3483v-7.9214l15.24.7014,1.5758-2.1223a1.28,1.28,0,0,1,1.0865-.5156l5.94.2734a2.4594,2.4594,0,0,1,1.5255.6227l2.6051,2.3278Z" style="fill:#404d59"/><g id="e220ad3e-5f89-48bb-9597-772e9c88e55c" data-name="Offset Group"><path d="M80.0327,162.5641v8.2809a1,1,0,0,1-1.0543.9985l-43.2136-2.3483a1,1,0,0,1-.9457-.9985v-7.9214a1,1,0,0,1,1.046-.999l14.7088.677,1.2585-1.6951a2.28,2.28,0,0,1,1.9353-.9184l5.94.2734a3.46,3.46,0,0,1,2.1458.8761l2.34,2.0908,14.8853.685A1,1,0,0,1,80.0327,162.5641Z" style="fill:none;stroke:#aebbc7;stroke-miterlimit:10;stroke-width:0.5px"/><path d="M79.7827,162.5641v8.2809a.75.75,0,0,1-.7907.7489l-43.2136-2.3483a.75.75,0,0,1-.7093-.7489v-7.9214a.75.75,0,0,1,.7845-.7492l14.8417.683,1.3378-1.8018a2.03,2.03,0,0,1,1.7231-.8177l5.94.2734a3.2088,3.2088,0,0,1,1.9907.8127l2.4062,2.15,14.9741.6892A.75.75,0,0,1,79.7827,162.5641Z" style="fill:none;stroke:#aebbc7;stroke-miterlimit:10;stroke-width:0.5px"/><path d="M79.5327,162.5641v8.2809a.5.5,0,0,1-.5271.4993L35.792,168.996a.5.5,0,0,1-.4729-.4993v-7.9214a.5.5,0,0,1,.523-.5l14.9746.6892,1.4171-1.9087a1.78,1.78,0,0,1,1.5109-.717l5.94.2734a2.9588,2.9588,0,0,1,1.8356.7494l2.4725,2.2093,15.0629.6932A.5.5,0,0,1,79.5327,162.5641Z" style="fill:none;stroke:#aebbc7;stroke-miterlimit:10;stroke-width:0.5px"/><path d="M79.2827,162.5641v8.2809a.25.25,0,0,1-.2636.25l-43.2136-2.3483a.25.25,0,0,1-.2364-.25v-7.9214a.25.25,0,0,1,.2615-.25l15.1075.6953,1.4965-2.0155a1.53,1.53,0,0,1,1.2987-.6162l5.94.2733a2.71,2.71,0,0,1,1.6806.6861l2.5387,2.2685,15.1517.6973A.25.25,0,0,1,79.2827,162.5641Z" style="fill:none;stroke:#aebbc7;stroke-miterlimit:10;stroke-width:0.5px"/></g><path d="M79.0327,162.5641v8.2809l-43.2136-2.3483v-7.9214l15.24.7014,1.5758-2.1223a1.28,1.28,0,0,1,1.0865-.5156l5.94.2734a2.4594,2.4594,0,0,1,1.5255.6227l2.6051,2.3278Z" style="fill:none;stroke:#aebbc7;stroke-miterlimit:10;stroke-width:0.5px"/><path d="M52.546,161.4809l1.0941-1.4733a.6226.6226,0,0,1,.5367-.25l5.2756.3108a1.2791,1.2791,0,0,1,.7777.3234l1.7954,1.6048Z" style="fill:none;stroke:#aebbc7;stroke-linecap:round;stroke-linejoin:round;stroke-width:0.5px"/><line x1="35.8191" y1="161.8615" x2="79.0327" y2="163.8503" style="fill:none;stroke:#aebbc7;stroke-miterlimit:10;stroke-width:0.5px"/><line x1="60.2593" y1="160.72" x2="53.82" y2="160.3776" style="fill:none;stroke:#aebbc7;stroke-linecap:round;stroke-linejoin:round"/><path d="M111.5384,172.8c-2.18-10-10.2359-16.9664-18.8764-16.9664a72.5935,72.5935,0,0,0-8.1349.8764c-10.09,2.2023-16.2135,13.3934-13.6742,24.9888,2.5394,11.6069,12.7641,19.2249,22.854,17.0114.6068-.1236,4.5731-1.3259,6.2136-1.9888C108.5385,193.2158,113.8643,183.4406,111.5384,172.8Z" style="fill:#404d59"/><path d="M90.3811,190.8451c-6.1461,1.3483-12.3933-3.2922-13.9327-10.3708-1.55-7.0675,2.18-13.8877,8.3371-15.2248,6.1462-1.3483,12.3821,3.2921,13.9215,10.36C100.2575,182.6765,96.5272,189.4967,90.3811,190.8451Z" style="fill:#141b21"/><g id="a6bcd604-35a3-4c17-a68d-ef3a97148e97" data-name="Offset Group"><path d="M100.2974,197.6478c-1.6846.6855-5.7115,1.904-6.3762,2.0392a17.5171,17.5171,0,0,1-7.4722.0055,19.6973,19.6973,0,0,1-7.5977-3.5032,24.85,24.85,0,0,1-6.7745-30.9873,19.7225,19.7225,0,0,1,5.4454-6.3543,17.53,17.53,0,0,1,6.7881-3.1138,72.2085,72.2085,0,0,1,8.3517-.9,18.7539,18.7539,0,0,1,11.7314,4.3138,23.6764,23.6764,0,0,1,8.122,13.439,22.9319,22.9319,0,0,1-1.9725,15.6551A20.2642,20.2642,0,0,1,100.2974,197.6478Z" style="fill:none;stroke:#aebbc7;stroke-miterlimit:10;stroke-width:0.5px"/><path d="M100.2031,197.4162c-1.6733.681-5.6852,1.8943-6.3355,2.0266a17.2685,17.2685,0,0,1-7.366.0053,19.4477,19.4477,0,0,1-7.501-3.4593,24.6,24.6,0,0,1-6.7045-30.6668,19.4729,19.4729,0,0,1,5.3759-6.2742,17.2827,17.2827,0,0,1,6.6925-3.07,72.1493,72.1493,0,0,1,8.2975-.8942,18.504,18.504,0,0,1,11.5745,4.2585,23.4262,23.4262,0,0,1,8.0346,13.2977,22.6812,22.6812,0,0,1-1.95,15.4853A20.0136,20.0136,0,0,1,100.2031,197.4162Z" style="fill:none;stroke:#aebbc7;stroke-miterlimit:10;stroke-width:0.5px"/><path d="M100.1089,197.1847c-1.6622.6763-5.6591,1.8845-6.2948,2.014a17.0187,17.0187,0,0,1-7.26.005,19.1981,19.1981,0,0,1-7.4043-3.4154,24.3506,24.3506,0,0,1-6.6345-30.3462,19.2223,19.2223,0,0,1,5.3064-6.1941,17.0315,17.0315,0,0,1,6.5969-3.026,72.0966,72.0966,0,0,1,8.2433-.8883,18.2541,18.2541,0,0,1,11.4177,4.2032,23.1766,23.1766,0,0,1,7.9472,13.1564A22.4319,22.4319,0,0,1,110.1,188.0087,19.7641,19.7641,0,0,1,100.1089,197.1847Z" style="fill:none;stroke:#aebbc7;stroke-miterlimit:10;stroke-width:0.5px"/><path d="M100.0147,196.9531c-1.651.6718-5.6329,1.8749-6.2542,2.0014a16.77,16.77,0,0,1-7.1537.0048,18.9478,18.9478,0,0,1-7.3076-3.3715,24.1009,24.1009,0,0,1-6.5645-30.0257,18.9728,18.9728,0,0,1,5.2369-6.114,16.786,16.786,0,0,1,6.5013-2.9821,72.07,72.07,0,0,1,8.1891-.8823,18.0051,18.0051,0,0,1,11.2609,4.1479,22.9272,22.9272,0,0,1,7.86,13.0151,22.1824,22.1824,0,0,1-1.9035,15.1456A19.5143,19.5143,0,0,1,100.0147,196.9531Z" style="fill:none;stroke:#aebbc7;stroke-miterlimit:10;stroke-width:0.5px"/></g><path d="M99.9205,196.7215c-1.64.6673-5.6068,1.8652-6.2136,1.9888-10.09,2.2135-20.3146-5.4045-22.854-17.0114-2.5393-11.5954,3.5843-22.7865,13.6742-24.9888a72.0021,72.0021,0,0,1,8.1349-.8764c8.64,0,16.6967,6.9664,18.8764,16.9664C113.8643,183.4406,108.5367,193.2155,99.9205,196.7215Z" style="fill:none;stroke:#aebbc7;stroke-miterlimit:10;stroke-width:0.5px"/><path d="M84.8884,196.5952a17.08,17.08,0,0,1-8.7092-5.6344,22.1316,22.1316,0,0,1-4.3508-19.8943,17.0753,17.0753,0,0,1,5.5638-8.7547A17.8206,17.8206,0,0,0,72.2,171.1666a22.7126,22.7126,0,0,0,4.2738,19.55A17.8176,17.8176,0,0,0,84.8884,196.5952Z"/><path d="M89.8471,159.568a17.0791,17.0791,0,0,1,8.7091,5.6344,22.1316,22.1316,0,0,1,4.3508,19.8943,17.0742,17.0742,0,0,1-5.5638,8.7547,17.8206,17.8206,0,0,0,5.1924-8.8548,22.713,22.713,0,0,0-4.2737-19.5495A17.8185,17.8185,0,0,0,89.8471,159.568Z"/><ellipse cx="87.58" cy="178.0453" rx="11.3955" ry="13.1036" transform="translate(-36.0129 22.8191) rotate(-12.3347)" style="fill:none;stroke:#aebbc7;stroke-miterlimit:10;stroke-width:0.5px"/><path d="M78.4067,171.6982A10.2335,10.2335,0,0,1,82.9,166.9731a9.3528,9.3528,0,0,1,6.5258-.6864,11.0808,11.0808,0,0,1,5.5862,3.5441,13.4769,13.4769,0,0,1,2.7506,12.5781,11.0837,11.0837,0,0,1-3.5971,5.5525,9.3562,9.3562,0,0,1-6.2175,2.1,10.234,10.234,0,0,1-6.0547-2.42,10.111,10.111,0,0,0,6.0608,2.175,9.06,9.06,0,0,0,5.9669-2.1521,10.9622,10.9622,0,0,0,3.4047-5.3828,13.356,13.356,0,0,0-2.6571-12.1535,10.9645,10.9645,0,0,0-5.34-3.4713,9.0647,9.0647,0,0,0-6.3212.5346A10.1122,10.1122,0,0,0,78.4067,171.6982Z"/><path d="M96.3552,183.32a8.8252,8.8252,0,0,1-3.8639,4.0866,8.0793,8.0793,0,0,1-5.6372.602,9.5557,9.5557,0,0,1-4.83-3.0589,11.6212,11.6212,0,0,1-2.3766-10.8675,9.5589,9.5589,0,0,1,3.1128-4.7961,8.0825,8.0825,0,0,1,5.3747-1.8058,8.8268,8.8268,0,0,1,5.2168,2.1019,8.7039,8.7039,0,0,0-5.2229-1.8573,7.7876,7.7876,0,0,0-5.1242,1.8581,9.438,9.438,0,0,0-2.92,4.6264,11.5011,11.5011,0,0,0,2.283,10.443,9.4425,9.4425,0,0,0,4.5848,2.986,7.7907,7.7907,0,0,0,5.4326-.45A8.7046,8.7046,0,0,0,96.3552,183.32Z"/><ellipse cx="89.5013" cy="177.6209" rx="6.5648" ry="7.5488" transform="translate(-35.8779 23.2197) rotate(-12.3347)" style="fill:none;stroke:#aebbc7;stroke-miterlimit:10;stroke-width:0.5px"/><ellipse cx="86.8721" cy="173.4209" rx="0.8343" ry="0.9594" transform="translate(-35.0413 22.5611) rotate(-12.3347)" style="fill:none;stroke:#aebbc7;stroke-miterlimit:10;stroke-width:0.5px"/><ellipse cx="91.7214" cy="173.5873" rx="0.8343" ry="0.9594" transform="translate(-34.965 23.6009) rotate(-12.3347)" style="fill:none;stroke:#aebbc7;stroke-miterlimit:10;stroke-width:0.5px"/><ellipse cx="93.5097" cy="179.1911" rx="0.8343" ry="0.9594" transform="translate(-36.1208 24.1122) rotate(-12.3347)" style="fill:none;stroke:#aebbc7;stroke-miterlimit:10;stroke-width:0.5px"/><ellipse cx="89.4706" cy="182.4926" rx="0.8343" ry="0.9594" transform="translate(-36.9193 23.3256) rotate(-12.3347)" style="fill:none;stroke:#aebbc7;stroke-miterlimit:10;stroke-width:0.5px"/><path d="M86.141,157.0969a16.4487,16.4487,0,0,1,7.15.742,19.09,19.09,0,0,1,6.27,3.6042,23.1264,23.1264,0,0,1,5.84,26.6235,19.1145,19.1145,0,0,1-4.1849,5.8986,16.4576,16.4576,0,0,1-6.1817,3.6686,17.74,17.74,0,0,0,10.0158-9.7251,23.2441,23.2441,0,0,0-5.74-26.1768A17.7269,17.7269,0,0,0,86.141,157.0969Z"/><path d="M89.8755,180.25l-2.8586.5393h-.0112a2.4931,2.4931,0,0,1-2.82-2.09,2.5189,2.5189,0,0,1,1.6854-3.09h.0113l2.8585-.5393a2.6773,2.6773,0,0,1,1.1349,5.18Z" style="fill:none;stroke:#aebbc7;stroke-miterlimit:10;stroke-width:0.5px"/><path d="M85.871,176.2281a1.5855,1.5855,0,0,1,1.5272.2069,2.2653,2.2653,0,0,1,.6493,2.9581,1.5852,1.5852,0,0,1-1.301.827,2.13,2.13,0,0,0-.8755-3.992Z"/><path d="M44.5689,170.732c-1.3906-9.485-8.15-16.4658-15.8039-16.959a60.9775,60.9775,0,0,0-7.253.3559C12.4555,155.6143,6.4267,165.74,8.05,176.7392c1.6223,11.01,10.2676,18.7242,19.3247,17.2283.5441-.0811,4.1223-.98,5.6113-1.5069C40.8086,189.6711,46.0542,180.8249,44.5689,170.732Z" style="fill:#404d59"/><path d="M24.8532,186.4153c-5.5169.9113-10.8-3.7891-11.781-10.503-.9917-6.7041,2.6811-12.8752,8.2073-13.7753,5.517-.9112,10.79,3.7885,11.7717,10.4919C34.0429,179.333,30.37,185.5041,24.8532,186.4153Z" style="fill:#141b21"/><g id="e58e69c7-b5fe-458d-b34d-66c2cc27180a" data-name="Offset Group"><path d="M33.3215,193.4025a58.5037,58.5037,0,0,1-5.7843,1.5516,14.8938,14.8938,0,0,1-6.6095-.4023,17.31,17.31,0,0,1-6.6693-3.7626A23.0821,23.0821,0,0,1,7.06,176.8852a23.3214,23.3214,0,0,1,3.8827-17.0846,16.1648,16.1648,0,0,1,10.4032-6.6579,60.7032,60.7032,0,0,1,7.4831-.3677,16.2693,16.2693,0,0,1,9.9386,4.4546,23.3907,23.3907,0,0,1,3.99,28.2575A18.2621,18.2621,0,0,1,33.3215,193.4025Z" style="fill:none;stroke:#aebbc7;stroke-miterlimit:10;stroke-width:0.5px"/><path d="M33.2375,193.167a58.4292,58.4292,0,0,1-5.741,1.54,14.6442,14.6442,0,0,1-6.4992-.3957,17.0613,17.0613,0,0,1-6.5726-3.709,22.8336,22.8336,0,0,1-7.117-13.754,23.0712,23.0712,0,0,1,3.8372-16.9006,15.9152,15.9152,0,0,1,10.2428-6.5588,60.6327,60.6327,0,0,1,7.4255-.3648,16.019,16.019,0,0,1,9.7852,4.3889,23.141,23.141,0,0,1,3.9452,27.945A18.0131,18.0131,0,0,1,33.2375,193.167Z" style="fill:none;stroke:#aebbc7;stroke-miterlimit:10;stroke-width:0.5px"/><path d="M33.1535,192.9316a58.4326,58.4326,0,0,1-5.6977,1.5292,14.3941,14.3941,0,0,1-6.3888-.3892,16.8127,16.8127,0,0,1-6.4759-3.6555A22.5837,22.5837,0,0,1,7.555,176.8122a22.8216,22.8216,0,0,1,3.7918-16.7167,15.6664,15.6664,0,0,1,10.0823-6.46,60.5905,60.5905,0,0,1,7.3681-.3618,15.77,15.77,0,0,1,9.6318,4.3232,22.8918,22.8918,0,0,1,3.9,27.6324A17.7627,17.7627,0,0,1,33.1535,192.9316Z" style="fill:none;stroke:#aebbc7;stroke-miterlimit:10;stroke-width:0.5px"/><path d="M33.07,192.6961a58.3625,58.3625,0,0,1-5.6545,1.518,14.1441,14.1441,0,0,1-6.2784-.3826,16.5624,16.5624,0,0,1-6.3791-3.602,22.3344,22.3344,0,0,1-6.9552-13.4538,22.5728,22.5728,0,0,1,3.7463-16.5327,15.4179,15.4179,0,0,1,9.9219-6.3607,60.5539,60.5539,0,0,1,7.3106-.3588A15.52,15.52,0,0,1,38.26,157.781a22.642,22.642,0,0,1,3.8555,27.32A17.5129,17.5129,0,0,1,33.07,192.6961Z" style="fill:none;stroke:#aebbc7;stroke-miterlimit:10;stroke-width:0.5px"/></g><path d="M32.9856,192.4606c-1.4886.531-5.0672,1.4258-5.6113,1.5069-9.0571,1.4959-17.7024-6.2187-19.3247-17.2283-1.6229-10.999,4.4059-21.1249,13.4624-22.61a60.5008,60.5008,0,0,1,7.253-.3559c7.6536.4932,14.4133,7.474,15.8039,16.959C46.0542,180.8249,40.807,189.6707,32.9856,192.4606Z" style="fill:none;stroke:#aebbc7;stroke-miterlimit:10;stroke-width:0.5px"/><path d="M19.6772,191.4842a14.2223,14.2223,0,0,1-4.23-2.3423,17.433,17.433,0,0,1-3.301-3.5738A21.2976,21.2976,0,0,1,8.66,176.5264a21.63,21.63,0,0,1,.799-9.6592,16.0224,16.0224,0,0,1,5.4307-7.9021,16.8061,16.8061,0,0,0-5.064,8.018,21.7869,21.7869,0,0,0-.6713,9.4729,21.4376,21.4376,0,0,0,3.3087,8.8968A16.0341,16.0341,0,0,0,19.6772,191.4842Z"/><path d="M26.07,157.1078A14.22,14.22,0,0,1,30.3,159.45a17.4335,17.4335,0,0,1,3.301,3.5739,21.2977,21.2977,0,0,1,3.4865,9.0416,21.6309,21.6309,0,0,1-.799,9.6593,16.0224,16.0224,0,0,1-5.4307,7.9021,16.8061,16.8061,0,0,0,5.064-8.0181,21.7863,21.7863,0,0,0,.6713-9.4728,21.4365,21.4365,0,0,0-3.3087-8.8968A16.0329,16.0329,0,0,0,26.07,157.1078Z"/><ellipse cx="23.0635" cy="174.2741" rx="10.1222" ry="12.277" transform="translate(-19.0809 3.6071) rotate(-6.3324)" style="fill:none;stroke:#aebbc7;stroke-miterlimit:10;stroke-width:0.5px"/><path d="M15.2809,167.8093a9.2948,9.2948,0,0,1,4.2265-4.1722,7.9116,7.9116,0,0,1,5.9646-.2247,8.5491,8.5491,0,0,1,2.6575,1.5,10.3789,10.3789,0,0,1,2.0813,2.23,13.1459,13.1459,0,0,1,2.2252,5.6332,13.4185,13.4185,0,0,1-.5212,6.0346,10.834,10.834,0,0,1-1.3228,2.747,8.87,8.87,0,0,1-2.057,2.2519,8.0247,8.0247,0,0,1-5.71,1.7459,8.8353,8.8353,0,0,1-5.3177-2.6234,8.7125,8.7125,0,0,0,5.3371,2.38,7.7257,7.7257,0,0,0,5.45-1.8018,9.1156,9.1156,0,0,0,1.9365-2.19,10.396,10.396,0,0,0,1.2516-2.6509,12.97,12.97,0,0,0,.4594-5.8219,12.6712,12.6712,0,0,0-2.1025-5.4436,9.943,9.943,0,0,0-1.9814-2.1558,8.7139,8.7139,0,0,0-2.5177-1.4763,7.6185,7.6185,0,0,0-5.7348.0878A9.1736,9.1736,0,0,0,15.2809,167.8093Z"/><path d="M30.5515,179.7121a8.0172,8.0172,0,0,1-3.635,3.61,6.8367,6.8367,0,0,1-5.1554.2031,7.3559,7.3559,0,0,1-2.3-1.2945,8.9774,8.9774,0,0,1-1.8-1.9267,11.3622,11.3622,0,0,1-1.9259-4.8671,11.5946,11.5946,0,0,1,.4534-5.2145,9.3708,9.3708,0,0,1,1.1447-2.3736,7.6346,7.6346,0,0,1,1.7808-1.9448,6.9351,6.9351,0,0,1,4.938-1.5005,7.6206,7.6206,0,0,1,4.5807,2.2774,7.4986,7.4986,0,0,0-4.6-2.0335,6.6363,6.6363,0,0,0-4.6777,1.5565,10.0449,10.0449,0,0,0-3.1255,9.1616,10.8855,10.8855,0,0,0,1.8033,4.6774,8.3964,8.3964,0,0,0,3.86,3.1229,6.5443,6.5443,0,0,0,4.9255-.0662A7.8957,7.8957,0,0,0,30.5515,179.7121Z"/><ellipse cx="24.7884" cy="173.9866" rx="5.8313" ry="7.0726" transform="translate(-19.0387 3.7956) rotate(-6.3324)" style="fill:none;stroke:#aebbc7;stroke-miterlimit:10;stroke-width:0.5px"/><ellipse cx="22.6864" cy="169.905" rx="0.7411" ry="0.8989" transform="translate(-18.6013 3.5388) rotate(-6.3324)" style="fill:none;stroke:#aebbc7;stroke-miterlimit:10;stroke-width:0.5px"/><ellipse cx="26.9728" cy="170.3376" rx="0.7411" ry="0.8989" transform="translate(-18.6229 4.0142) rotate(-6.3324)" style="fill:none;stroke:#aebbc7;stroke-miterlimit:10;stroke-width:0.5px"/><ellipse cx="28.254" cy="175.6852" rx="0.7411" ry="0.8989" transform="translate(-19.2049 4.1882) rotate(-6.3324)" style="fill:none;stroke:#aebbc7;stroke-miterlimit:10;stroke-width:0.5px"/><ellipse cx="24.4979" cy="178.545" rx="0.7411" ry="0.8989" transform="translate(-19.5432 3.7913) rotate(-6.3324)" style="fill:none;stroke:#aebbc7;stroke-miterlimit:10;stroke-width:0.5px"/><path d="M22.9206,154.5831a14.0171,14.0171,0,0,1,6.4782,1.181,17.06,17.06,0,0,1,5.394,3.8627,22.0442,22.0442,0,0,1,5.587,11.9221,22.488,22.488,0,0,1-2.0011,13.02,17.8728,17.8728,0,0,1-3.9929,5.3006,14.4674,14.4674,0,0,1-5.778,3.1656A16.0629,16.0629,0,0,0,38.0333,184.4a22.3824,22.3824,0,0,0,1.852-12.7814,21.9253,21.9253,0,0,0-5.3724-11.7309A15.4127,15.4127,0,0,0,22.9206,154.5831Z"/><path d="M24.9778,176.4684l-2.5612.3417-.01-.0007a2.248,2.248,0,0,1-2.3852-2.1172,2.3657,2.3657,0,0,1,1.66-2.7961l.01.0006,2.5612-.3416a2.2593,2.2593,0,0,1,2.3846,2.1278A2.3366,2.3366,0,0,1,24.9778,176.4684Z" style="fill:none;stroke:#aebbc7;stroke-miterlimit:10;stroke-width:0.5px"/><path d="M21.6479,172.4756a1.38,1.38,0,0,1,1.3841.2992,2.1183,2.1183,0,0,1,.7041,1.316,2.1521,2.1521,0,0,1-.3029,1.46,1.42,1.42,0,0,1-1.2254.7118,1.637,1.637,0,0,0,.8873-.8949,2.3065,2.3065,0,0,0,.1462-1.2066,2.24,2.24,0,0,0-.478-1.1131A1.56,1.56,0,0,0,21.6479,172.4756Z"/></g></svg>
