<svg xmlns="http://www.w3.org/2000/svg" xmlns:xlink="http://www.w3.org/1999/xlink" width="654" height="185.567" viewBox="0 0 654 185.567"><defs><linearGradient id="b13282d4-a327-491c-bc14-92a8da4c3fc1" x1="99.943" y1="68.37" x2="99.943" y2="47.369" gradientUnits="userSpaceOnUse"><stop offset="0" stop-color="#f4ae3d"/><stop offset="1" stop-color="#f4ae3d" stop-opacity="0"/></linearGradient><linearGradient id="ad8c76e3-4f42-4353-ad38-3dcd1ec23bbb" x1="94.844" y1="68.399" x2="94.844" y2="47.34" xlink:href="#b13282d4-a327-491c-bc14-92a8da4c3fc1"/><linearGradient id="a77693a4-d6f2-417a-bb37-8e38c7774764" x1="466.597" y1="69.195" x2="466.597" y2="59.451" gradientTransform="translate(-273.523 -183.907) rotate(33.725)" gradientUnits="userSpaceOnUse"><stop offset="0.858" stop-color="#f4ae3d"/><stop offset="1" stop-color="#f4ae3d" stop-opacity="0"/></linearGradient><linearGradient id="b58b9999-64f4-4871-a810-bd3189b4c886" x1="416.345" y1="68.37" x2="416.345" y2="47.369" gradientTransform="matrix(-1, 0, 0, 1, 640.64, 0)" xlink:href="#b13282d4-a327-491c-bc14-92a8da4c3fc1"/><linearGradient id="a766ec37-c2f1-4669-b50b-c8ef099ab368" x1="411.246" y1="68.399" x2="411.246" y2="47.34" gradientTransform="matrix(-1, 0, 0, 1, 640.64, 0)" xlink:href="#b13282d4-a327-491c-bc14-92a8da4c3fc1"/><linearGradient id="fb57715f-8323-4762-a36a-42b5474a6e0c" x1="729.752" y1="-106.474" x2="729.752" y2="-116.218" gradientTransform="matrix(-0.832, 0.555, 0.555, 0.832, 914.163, -183.907)" xlink:href="#a77693a4-d6f2-417a-bb37-8e38c7774764"/></defs><g id="e793f1bd-92fa-4c03-af8b-a4c360a9152c" data-name="below"><path d="M130.074,130.641h-3.339v-3.3a1.305,1.305,0,0,0-1.306-1.306h-4.513c-2.576,0-4.532,1.145-4.532,4.007v5.1h-1.845a.731.731,0,0,0-.731.731v.509l-2.345,2.409h-2.409L109,128.9" style="fill:none;stroke:#687581;stroke-linecap:round;stroke-linejoin:round;stroke-width:0.5px"/><path d="M54.518,172.546l2.45,7.092-3.812-6.463a.753.753,0,1,1,1.362-.629Z" style="fill:#687581"/><path d="M56.17,111.609c.069,3.041.106,6.221.106,9.5,0,21.778-1.631,39.434-3.643,39.434" style="fill:none;stroke:#687581;stroke-linecap:round;stroke-linejoin:round;stroke-width:0.5px"/><path d="M92.421,133.633l3.613,7.11a1.618,1.618,0,0,0,1,.822c3.208.9,3.492,1.974.473,3.072-3.5,1.272-15.265,4.636-38.8,4.636" style="fill:none;stroke:#687581;stroke-linecap:round;stroke-linejoin:round;stroke-width:0.5px"/><path d="M161.939,153.478H128.611c-1.971,0-3.339-.1-3.975,2.13-.254.891-.763,2.258-.954,2.894s-1.4,1.145-3.053,1.145H104.411a13.966,13.966,0,0,0-4.166.668c-1.5.541-12.371,3.911-12.371,3.911L93.4,179.638" style="fill:none;stroke:#687581;stroke-linecap:round;stroke-linejoin:round;stroke-width:0.5px"/><path d="M58.436,151.623a85.525,85.525,0,0,0,11.35.235.9.9,0,0,1,.876.552l2.923,6.944a1.8,1.8,0,0,0,1.388,1.082l16.81,2.574" style="fill:none;stroke:#687581;stroke-linecap:round;stroke-linejoin:round;stroke-width:0.5px"/><path d="M161.939,147.054H105.253a.886.886,0,0,1-.218-.027l-2.8-.7a.9.9,0,0,1-.556-1.329l.851-1.445-3.824-1.38" style="fill:none;stroke:#687581;stroke-linecap:round;stroke-linejoin:round;stroke-width:0.5px"/><path d="M71.167,153.61s3.636-.26,16.548-1.15,22.07-2.989,25.632-5.406" style="fill:none;stroke:#687581;stroke-linecap:round;stroke-linejoin:round;stroke-width:0.5px"/><path d="M56.594,162.99s3.581,1.554,7.651,2.954,6.679,1.145,9.414,1.145H88.9" style="fill:none;stroke:#687581;stroke-linecap:round;stroke-linejoin:round;stroke-width:0.5px"/><path d="M122.44,145.2c-1.061.048-3.72-.336-3.091-1.947,1.165-1.383,3.2-1.366,4.846-1.474,1.641.116,3.668.111,4.823,1.487.407.668-.341,1.34-.872,1.526a5.329,5.329,0,0,1-2.2.408c.746-.249,3.744-.987,2.35-2.019-2.173-1.808-13.647-.324-5.86,2.019Z" style="fill:#687581"/><path d="M111.949,179.638c-1.629-4.807-2.946-10.276-4.284-15.195l-.169-.635c-.625-1.975,2.194-2.482,3.586-2.5,1.333.049,3.065.189,3.767,1.562l.3,1.322c1.087,4.985,2.441,10.43,3.276,15.441-1.432-4.868-2.6-10.381-3.8-15.339l-.3-1.242a1.517,1.517,0,0,0-.807-.71,6.249,6.249,0,0,0-4.861.051c-.347.181-.669.453-.721.739a5.467,5.467,0,0,0,.247,1.154c1.264,4.949,2.8,10.352,3.758,15.347Z" style="fill:#687581"/><path d="M129.876,179.638c-1.267-6.279-2.453-15.478-3.422-21.9-.361-2.415,3.913-2.135,5.6-2.145,1.572.056,3.269-.2,4.786.462.542.216,1.176.763,1.166,1.322.691,6.734,1.875,16.214,2.306,22.88-1.038-6.56-2.038-16.128-2.839-22.82-.114-.862-1.513-1.142-2.3-1.237-2-.034-4.244-.1-6.228.039-.724.11-2.256.519-1.949,1.42.9,6.466,2.306,15.567,2.875,21.982Z" style="fill:#687581"/><path d="M133.555,127.612c-1.062.048-3.721-.336-3.092-1.947,1.165-1.383,3.2-1.366,4.846-1.474,1.641.116,3.669.111,4.823,1.487.408.668-.34,1.34-.872,1.526a5.339,5.339,0,0,1-2.2.408c.747-.249,3.745-.987,2.35-2.019-2.173-1.809-13.647-.324-5.859,2.019Z" style="fill:#687581"/><path d="M193.8,130.641h3.34v-3.3a1.305,1.305,0,0,1,1.306-1.306h4.513c2.576,0,4.532,1.145,4.532,4.007v5.1h1.844a.732.732,0,0,1,.732.731v.509l2.345,2.409h2.409l.054-9.892" style="fill:none;stroke:#687581;stroke-linecap:round;stroke-linejoin:round;stroke-width:0.5px"/><path d="M270.723,173.175l-3.813,6.463,2.451-7.092a.753.753,0,1,1,1.362.629Z" style="fill:#687581"/><path d="M267.709,111.609c-.069,3.041-.106,6.221-.106,9.5,0,21.778,1.631,39.434,3.643,39.434" style="fill:none;stroke:#687581;stroke-linecap:round;stroke-linejoin:round;stroke-width:0.5px"/><path d="M231.457,133.633l-3.613,7.11a1.613,1.613,0,0,1-1,.822c-3.208.9-3.492,1.974-.473,3.072,3.5,1.272,15.265,4.636,38.8,4.636" style="fill:none;stroke:#687581;stroke-linecap:round;stroke-linejoin:round;stroke-width:0.5px"/><path d="M161.939,153.478h33.328c1.972,0,3.339-.1,3.975,2.13.255.891.764,2.258.955,2.894s1.4,1.145,3.052,1.145h16.219a13.971,13.971,0,0,1,4.166.668c1.5.541,12.371,3.911,12.371,3.911l-5.522,15.412" style="fill:none;stroke:#687581;stroke-linecap:round;stroke-linejoin:round;stroke-width:0.5px"/><path d="M265.443,151.623a85.527,85.527,0,0,1-11.35.235.9.9,0,0,0-.876.552l-2.924,6.944a1.8,1.8,0,0,1-1.387,1.082L232.1,163.01" style="fill:none;stroke:#687581;stroke-linecap:round;stroke-linejoin:round;stroke-width:0.5px"/><path d="M161.94,147.053h56.686a.886.886,0,0,0,.218-.027l2.8-.7A.9.9,0,0,0,222.2,145l-.851-1.445,3.824-1.381" style="fill:none;stroke:#687581;stroke-linecap:round;stroke-linejoin:round;stroke-width:0.5px"/><path d="M252.712,153.61s-3.637-.26-16.548-1.15-22.07-2.989-25.632-5.406" style="fill:none;stroke:#687581;stroke-linecap:round;stroke-linejoin:round;stroke-width:0.5px"/><path d="M267.285,162.99s-3.581,1.554-7.652,2.954-6.678,1.145-9.413,1.145H234.984" style="fill:none;stroke:#687581;stroke-linecap:round;stroke-linejoin:round;stroke-width:0.5px"/><path d="M201.438,145.2c7.789-2.344-3.689-3.827-5.859-2.019-1.4,1.033,1.608,1.771,2.35,2.019a5.326,5.326,0,0,1-2.2-.408c-.53-.186-1.282-.858-.872-1.526,1.155-1.376,3.182-1.371,4.823-1.487,1.648.108,3.681.091,4.846,1.474.63,1.612-2.033,2-3.092,1.947Z" style="fill:#687581"/><path d="M211.93,179.638c.953-4.987,2.5-10.4,3.758-15.347a5.687,5.687,0,0,0,.247-1.154c-.052-.286-.375-.558-.722-.739a6.249,6.249,0,0,0-4.861-.051,1.519,1.519,0,0,0-.806.71l-.3,1.242c-1.194,4.965-2.364,10.463-3.8,15.339.833-5,2.189-10.463,3.276-15.441l.3-1.322c.7-1.374,2.434-1.512,3.766-1.562,1.392.011,4.212.521,3.587,2.5l-.169.635c-1.341,4.926-2.653,10.38-4.284,15.195Z" style="fill:#687581"/><path d="M194,179.638c.564-6.38,1.988-15.545,2.875-21.982.309-.9-1.227-1.305-1.948-1.419-1.985-.139-4.23-.076-6.228-.041-.786.091-2.184.376-2.3,1.238-.778,6.541-1.746,15.786-2.768,22.2.409-6.451,1.564-15.741,2.238-22.264.563-2.26,4.123-1.679,5.951-1.785,1.689.008,5.965-.267,5.6,2.146-.979,6.454-2.149,15.589-3.423,21.9Z" style="fill:#687581"/><path d="M190.324,127.612c7.788-2.344-3.689-3.827-5.859-2.019-1.4,1.032,1.608,1.77,2.35,2.019a5.339,5.339,0,0,1-2.2-.408c-.53-.186-1.282-.858-.872-1.526,1.154-1.376,3.181-1.371,4.822-1.487,1.649.108,3.682.091,4.847,1.474.63,1.611-2.033,1.994-3.092,1.947Z" style="fill:#687581"/><path d="M159.981,122.818c-1.387.169-5.014-.939-2.93-2.679,2.221-1.3,4.918-1.254,7.377-.867,1.638.19,4.639,1.7,1.912,3.071a6.141,6.141,0,0,1-2.442.475c.857-.263,4.23-1.089,2.64-2.277a9.128,9.128,0,0,0-4.6-.928c-3.462-.062-8.111,1.518-1.958,3.2Z" style="fill:#687581"/><path d="M263.808,112.329q-.117,4.121-.118,8.409c0,32.431,5.213,58.164,11.59,58.722a241.39,241.39,0,0,0,31.5,0c6.377-.558,11.59-17.488,11.59-58.722,0-20.407-1.271-35-3.331-44.531" style="fill:none;stroke:#687581;stroke-linecap:round;stroke-linejoin:round;stroke-width:1.5px"/><path d="M60.071,112.329q.117,4.121.118,8.409c0,32.431-5.213,58.164-11.59,58.722a241.39,241.39,0,0,1-31.5,0C10.718,178.9,5.5,161.972,5.5,120.738c0-20.407,1.271-35,3.331-44.531" style="fill:none;stroke:#687581;stroke-linecap:round;stroke-linejoin:round;stroke-width:1.5px"/><path d="M460.97,130.641h-3.339v-3.3a1.305,1.305,0,0,0-1.306-1.306h-4.513c-2.576,0-4.532,1.145-4.532,4.007v5.1h-1.845a.732.732,0,0,0-.731.731v.509l-2.345,2.409H439.95L439.9,128.9" style="fill:none;stroke:#687581;stroke-linecap:round;stroke-linejoin:round;stroke-width:0.5px"/><path d="M385.414,172.546l1.152,3.333,1.3,3.759-3.813-6.463a.753.753,0,1,1,1.362-.629Z" style="fill:#687581"/><path d="M387.066,111.609c.069,3.041.106,6.221.106,9.5,0,21.778-1.631,39.434-3.643,39.434" style="fill:none;stroke:#687581;stroke-linecap:round;stroke-linejoin:round;stroke-width:0.5px"/><path d="M423.318,133.633l3.613,7.11a1.613,1.613,0,0,0,1,.822c3.208.9,3.492,1.974.473,3.072-3.5,1.272-15.265,4.636-38.8,4.636" style="fill:none;stroke:#687581;stroke-linecap:round;stroke-linejoin:round;stroke-width:0.5px"/><path d="M492.836,153.478H459.507c-1.971,0-3.339-.1-3.975,2.13-.254.891-.763,2.258-.954,2.894s-1.4,1.145-3.053,1.145H435.307a13.966,13.966,0,0,0-4.166.668c-1.5.541-12.371,3.911-12.371,3.911l5.522,15.412" style="fill:none;stroke:#687581;stroke-linecap:round;stroke-linejoin:round;stroke-width:0.5px"/><path d="M389.332,151.623a85.527,85.527,0,0,0,11.35.235.9.9,0,0,1,.876.552l2.924,6.944a1.8,1.8,0,0,0,1.387,1.082l16.81,2.574" style="fill:none;stroke:#687581;stroke-linecap:round;stroke-linejoin:round;stroke-width:0.5px"/><path d="M492.836,147.054H436.149a.886.886,0,0,1-.218-.027l-2.8-.7a.9.9,0,0,1-.556-1.329l.851-1.445-3.824-1.38" style="fill:none;stroke:#687581;stroke-linecap:round;stroke-linejoin:round;stroke-width:0.5px"/><path d="M402.063,153.61s3.637-.26,16.548-1.15,22.07-2.989,25.632-5.406" style="fill:none;stroke:#687581;stroke-linecap:round;stroke-linejoin:round;stroke-width:0.5px"/><path d="M387.49,162.99s3.581,1.554,7.651,2.954,6.679,1.145,9.414,1.145h15.236" style="fill:none;stroke:#687581;stroke-linecap:round;stroke-linejoin:round;stroke-width:0.5px"/><path d="M453.336,145.2c-1.061.048-3.72-.336-3.091-1.947,1.165-1.383,3.2-1.366,4.846-1.474,1.641.116,3.668.111,4.823,1.487.407.668-.341,1.34-.872,1.526a5.326,5.326,0,0,1-2.2.408c.747-.249,3.745-.987,2.35-2.019-2.173-1.808-13.647-.324-5.86,2.019Z" style="fill:#687581"/><path d="M442.845,179.638c-1.629-4.807-2.946-10.276-4.284-15.195l-.169-.635c-.625-1.975,2.194-2.482,3.586-2.5,1.333.049,3.065.189,3.767,1.562l.3,1.322c1.087,4.985,2.441,10.43,3.276,15.441-1.431-4.868-2.6-10.381-3.8-15.339l-.3-1.242a1.517,1.517,0,0,0-.807-.71,6.247,6.247,0,0,0-4.86.051c-.347.181-.67.453-.722.739a5.454,5.454,0,0,0,.247,1.154c1.264,4.949,2.8,10.352,3.758,15.347Z" style="fill:#687581"/><path d="M460.773,179.638c-1.268-6.279-2.454-15.478-3.423-21.9-.361-2.415,3.912-2.135,5.6-2.145,1.573.056,3.269-.2,4.786.462.542.216,1.176.763,1.166,1.322.691,6.734,1.875,16.214,2.307,22.88-1.039-6.56-2.039-16.128-2.84-22.82-.114-.862-1.513-1.142-2.3-1.237-2-.034-4.244-.1-6.228.039-.724.11-2.256.519-1.949,1.42.9,6.466,2.306,15.567,2.876,21.982Z" style="fill:#687581"/><path d="M464.451,127.612c-1.062.048-3.72-.336-3.092-1.947,1.165-1.383,3.2-1.366,4.846-1.474,1.642.116,3.669.111,4.824,1.487.407.668-.341,1.34-.873,1.526a5.339,5.339,0,0,1-2.2.408c.747-.249,3.745-.987,2.35-2.019-2.172-1.809-13.646-.324-5.859,2.019Z" style="fill:#687581"/><path d="M524.7,130.641h3.339v-3.3a1.305,1.305,0,0,1,1.306-1.306h4.513c2.576,0,4.532,1.145,4.532,4.007v5.1h1.845a.731.731,0,0,1,.731.731v.509l2.345,2.409h2.409l.054-9.892" style="fill:none;stroke:#687581;stroke-linecap:round;stroke-linejoin:round;stroke-width:0.5px"/><path d="M601.619,173.175l-1.849,3.135-1.963,3.328,2.45-7.092a.753.753,0,1,1,1.362.629Z" style="fill:#687581"/><path d="M598.605,111.609c-.069,3.041-.106,6.221-.106,9.5,0,21.778,1.631,39.434,3.643,39.434" style="fill:none;stroke:#687581;stroke-linecap:round;stroke-linejoin:round;stroke-width:0.5px"/><path d="M562.354,133.633l-3.614,7.11a1.613,1.613,0,0,1-1,.822c-3.208.9-3.492,1.974-.473,3.072,3.5,1.272,15.265,4.636,38.8,4.636" style="fill:none;stroke:#687581;stroke-linecap:round;stroke-linejoin:round;stroke-width:0.5px"/><path d="M492.836,153.478h33.328c1.971,0,3.339-.1,3.975,2.13.254.891.763,2.258.954,2.894s1.4,1.145,3.053,1.145h16.218a13.966,13.966,0,0,1,4.166.668c1.5.541,12.371,3.911,12.371,3.911l-5.521,15.412" style="fill:none;stroke:#687581;stroke-linecap:round;stroke-linejoin:round;stroke-width:0.5px"/><path d="M596.339,151.623a85.527,85.527,0,0,1-11.35.235.9.9,0,0,0-.876.552l-2.924,6.944a1.8,1.8,0,0,1-1.387,1.082l-16.81,2.574" style="fill:none;stroke:#687581;stroke-linecap:round;stroke-linejoin:round;stroke-width:0.5px"/><path d="M492.836,147.053h56.686a.9.9,0,0,0,.219-.027l2.795-.7a.9.9,0,0,0,.557-1.328l-.852-1.445,3.824-1.381" style="fill:none;stroke:#687581;stroke-linecap:round;stroke-linejoin:round;stroke-width:0.5px"/><path d="M583.608,153.61s-3.636-.26-16.548-1.15-22.07-2.989-25.632-5.406" style="fill:none;stroke:#687581;stroke-linecap:round;stroke-linejoin:round;stroke-width:0.5px"/><path d="M598.181,162.99s-3.581,1.554-7.651,2.954-6.679,1.145-9.414,1.145H565.88" style="fill:none;stroke:#687581;stroke-linecap:round;stroke-linejoin:round;stroke-width:0.5px"/><path d="M532.335,145.2c7.788-2.344-3.689-3.827-5.86-2.019-1.4,1.032,1.609,1.771,2.35,2.019a5.329,5.329,0,0,1-2.2-.408c-.53-.186-1.281-.858-.872-1.526,1.155-1.376,3.182-1.371,4.823-1.487,1.648.108,3.681.091,4.846,1.474.631,1.612-2.033,2-3.091,1.947Z" style="fill:#687581"/><path d="M542.826,179.638c.953-4.987,2.5-10.4,3.758-15.347a5.687,5.687,0,0,0,.247-1.154c-.052-.286-.374-.558-.722-.739a6.247,6.247,0,0,0-4.86-.051,1.517,1.517,0,0,0-.807.71l-.3,1.242c-1.194,4.965-2.364,10.463-3.8,15.339.833-5,2.189-10.463,3.276-15.441l.3-1.322c.7-1.374,2.434-1.512,3.766-1.562,1.391.011,4.212.521,3.586,2.5l-.169.635c-1.341,4.925-2.652,10.38-4.284,15.195Z" style="fill:#687581"/><path d="M524.9,179.638c.563-6.38,1.987-15.545,2.875-21.982.308-.9-1.228-1.305-1.949-1.419-1.984-.139-4.23-.076-6.228-.041-.786.091-2.184.376-2.3,1.238-.777,6.541-1.746,15.786-2.768,22.2.409-6.451,1.564-15.741,2.238-22.264.564-2.26,4.123-1.679,5.951-1.785,1.688.008,5.966-.267,5.6,2.146-.979,6.454-2.149,15.589-3.422,21.9Z" style="fill:#687581"/><path d="M521.22,127.612c7.789-2.344-3.689-3.827-5.859-2.019-1.4,1.032,1.608,1.77,2.35,2.019a5.339,5.339,0,0,1-2.2-.408c-.53-.186-1.282-.858-.872-1.526,1.154-1.376,3.182-1.371,4.822-1.487,1.649.108,3.682.091,4.847,1.474.63,1.611-2.033,1.994-3.092,1.947Z" style="fill:#687581"/><path d="M490.877,122.818c-1.387.169-5.013-.939-2.93-2.679,2.221-1.3,4.918-1.254,7.378-.867,1.637.19,4.638,1.7,1.911,3.071a6.141,6.141,0,0,1-2.442.475c.857-.263,4.23-1.089,2.64-2.277a9.124,9.124,0,0,0-4.6-.928c-3.463-.062-8.112,1.518-1.959,3.2Z" style="fill:#687581"/><path d="M594.7,112.329q-.117,4.121-.118,8.409c0,32.431,5.213,58.164,11.59,58.722a241.39,241.39,0,0,0,31.5,0c6.377-.558,11.591-17.488,11.591-58.722,0-20.407-1.271-35-3.331-44.531" style="fill:none;stroke:#687581;stroke-linecap:round;stroke-linejoin:round;stroke-width:1.5px"/><path d="M390.967,112.329q.117,4.121.118,8.409c0,32.431-5.213,58.164-11.59,58.722a241.39,241.39,0,0,1-31.5,0c-6.377-.558-11.59-17.488-11.59-58.722,0-20.407,1.271-35,3.331-44.531" style="fill:none;stroke:#687581;stroke-linecap:round;stroke-linejoin:round;stroke-width:1.5px"/></g><g id="f01a5af7-97f1-4746-8bb2-86524cfb4ee3" data-name="illustration"><path d="M118.186,126.635a1.625,1.625,0,0,0-1.159-.092c-4.3,1.267-30.564,9-38.92,11.187-9.111,2.385-12.86,2.852-17.344,1.135s-11.558-4.388-11.558-4.388l-.163-6.679c8,2.576,11.82-.49,15.346-.668,0,0,2.608-9.715,3.355-12.895l7.522,1.969c-1.1,4.29-3.2,11.117-3.2,11.117l5.905.313c6.147-3.285,13.512-7.189,13.512-7.189l5.2,1.358,7.3-1.358c-.056.007-1.564,1.236-3.441,2.787l14.518-2.061A5.421,5.421,0,0,0,117,120.5l.669-.385h3.244c3.529,0,5.962.859,5.962,2.385v1.145a4.809,4.809,0,0,1-.786,2.57,2.3,2.3,0,0,0-.836-.185h-4.34A11.314,11.314,0,0,0,118.186,126.635Z" style="fill:#141b21"/><path d="M92.96,133.562c-6.07,1.744-11.722,3.345-14.855,4.165-8.119,2.129-11.981,2.732-15.894,1.619-2.054-.541-9.265-3.454-9.265-3.454a24.954,24.954,0,0,1-.508-7.277,15.962,15.962,0,0,0,6.818-.309,33.238,33.238,0,0,1,5.13-1.176s2.278-8.481,3.19-12.188c.063-.258.115-.5.166-.706l.752.2,6.771,1.773c-1.1,4.292-3.2,11.114-3.2,11.114l5.9.315c5.118-2.737,11.08-5.9,12.933-6.879l.388-.2,7.471,1.717a21.025,21.025,0,0,1,1.471,9.191Z" style="fill:#404d59"/><path d="M205.692,126.635a1.627,1.627,0,0,1,1.16-.092c4.3,1.267,30.564,9,38.92,11.187,9.111,2.385,12.86,2.852,17.344,1.135s11.558-4.388,11.558-4.388l.163-6.679c-8,2.576-11.82-.49-15.347-.668,0,0-2.607-9.715-3.355-12.895l-7.521,1.969c1.1,4.29,3.2,11.117,3.2,11.117l-5.9.313c-6.147-3.285-13.512-7.189-13.512-7.189l-5.2,1.358-7.3-1.358c.056.007,1.564,1.236,3.442,2.787l-14.518-2.061a5.426,5.426,0,0,1-1.941-.668l-.668-.385h-3.244c-3.53,0-5.963.859-5.963,2.385v1.145a4.805,4.805,0,0,0,.787,2.57,2.3,2.3,0,0,1,.835-.185h4.341A11.3,11.3,0,0,1,205.692,126.635Z" style="fill:#141b21"/><path d="M231.278,133.562c6.07,1.744,11.722,3.345,14.855,4.165,8.119,2.129,11.981,2.732,15.894,1.619,2.053-.541,9.265-3.454,9.265-3.454a24.954,24.954,0,0,0,.508-7.277,15.962,15.962,0,0,1-6.818-.309,33.238,33.238,0,0,0-5.13-1.176s-2.278-8.481-3.19-12.188c-.063-.258-.115-.5-.166-.706l-.752.2-6.771,1.773c1.1,4.292,3.2,11.114,3.2,11.114l-5.9.315c-5.118-2.737-11.08-5.9-12.933-6.879l-.388-.2-7.471,1.717A21.025,21.025,0,0,0,224,131.458Z" style="fill:#404d59"/><path d="M78.145,127.692c-2.235,1.194-4.481,2.25-5.981,3.063-5.629,3.053-9.207,2.481-13.166,1.05s-9.624-3.9-9.624-3.9" style="fill:none;stroke:#aebbc7;stroke-linecap:round;stroke-linejoin:round;stroke-width:0.5px"/><path d="M100.705,123.425c-2.153,1.911-4.379,3.733-6.645,5.509-.6.525-1.868,1.175-1.623,2.108a.746.746,0,0,1-.025-.711c.8-1.5,2.366-2.411,3.554-3.584,1.45-1.263,2.914-2.511,4.42-3.707a.25.25,0,0,1,.319.385Z" style="fill:#aebbc7"/><path d="M118.186,126.635a1.625,1.625,0,0,0-1.159-.092c-4.3,1.267-30.564,9-38.92,11.187-9.111,2.385-12.86,2.852-17.344,1.135s-11.558-4.388-11.558-4.388l-.163-6.679c8,2.576,11.82-.49,15.346-.668,0,0,2.608-9.715,3.355-12.895l7.522,1.969c-1.1,4.29-3.2,11.117-3.2,11.117l5.905.313c6.147-3.285,13.512-7.189,13.512-7.189l5.2,1.358,7.3-1.358c-.056.007-1.564,1.236-3.441,2.787l14.518-2.061A5.421,5.421,0,0,0,117,120.5l.669-.385h3.244c3.529,0,5.962.859,5.962,2.385v1.145a4.809,4.809,0,0,1-.786,2.57,2.3,2.3,0,0,0-.836-.185h-4.34A11.314,11.314,0,0,0,118.186,126.635Z" style="fill:none;stroke:#aebbc7;stroke-linecap:round;stroke-linejoin:round"/><path d="M73.514,115.745c-.7,2.776-1.755,6.9-2.551,10.008-.558,2.176-1.216,5.234-1.88,6.4" style="fill:none;stroke:#aebbc7;stroke-linecap:round;stroke-linejoin:round;stroke-width:0.5px"/><path d="M64.818,126.012c-.907,3.482-1.724,5.459-.323,6.953" style="fill:none;stroke:#aebbc7;stroke-linecap:round;stroke-linejoin:round;stroke-width:0.5px"/><ellipse cx="66.445" cy="130.506" rx="2.08" ry="2.048" style="fill:none;stroke:#aebbc7;stroke-linecap:round;stroke-linejoin:round;stroke-width:0.5px"/><ellipse cx="66.342" cy="130.365" rx="1.316" ry="1.295" style="fill:none;stroke:#aebbc7;stroke-linecap:round;stroke-linejoin:round;stroke-width:0.5px"/><path d="M61.28,132.579a3.913,3.913,0,0,1,1.879-4.17,4.268,4.268,0,0,0-1.394,4.047.251.251,0,0,1-.485.123Z" style="fill:#aebbc7"/><path d="M71.612,130.948a5.809,5.809,0,0,0-.67-2.1,3.075,3.075,0,0,1,1.166,2.041.251.251,0,0,1-.254.249.255.255,0,0,1-.242-.189Z" style="fill:#aebbc7"/><path d="M60.691,137.691a30.378,30.378,0,0,0,6,.015c5.94-1.166,11.106-4.736,16.733-6.859a105.3,105.3,0,0,1-10.817,5.537c-3.652,1.741-7.99,2.669-11.915,1.307Z" style="fill:#aebbc7"/><path d="M82.426,131.4s-2.731,2.559-4.611,4a14.015,14.015,0,0,1-6.256,2.788c-2.938.675-7.8,1.42-10.024-.245" style="fill:none;stroke:#aebbc7;stroke-linecap:round;stroke-linejoin:round;stroke-width:0.5px"/><path d="M49.1,130.658s4.988,2.339,9.615,4.009,7.489,2.1,14.549-1.383,11.5-5.963,16.028-7.823,5.564-2.886,6.741-3.828" style="fill:none;stroke:#aebbc7;stroke-linecap:round;stroke-linejoin:round;stroke-width:0.5px"/><path d="M94.044,128.679s.54.5,4.308-.5,16.41-3.96,17.6-4.2,1.861-.907,2.767-.907" style="fill:none;stroke:#aebbc7;stroke-linecap:round;stroke-linejoin:round;stroke-width:0.5px"/><path d="M125.249,120.749a2.829,2.829,0,1,1-5.307-.631" style="fill:none;stroke:#aebbc7;stroke-linecap:round;stroke-linejoin:round;stroke-width:0.5px"/><path d="M245.734,127.692c2.234,1.194,4.48,2.25,5.981,3.063,5.629,3.053,9.206,2.481,13.166,1.05s9.624-3.9,9.624-3.9" style="fill:none;stroke:#aebbc7;stroke-linecap:round;stroke-linejoin:round;stroke-width:0.5px"/><path d="M223.493,123.04c2.253,1.8,4.435,3.69,6.573,5.623.581.6,1.786,1.413,1.376,2.379.192-.473-.217-.89-.513-1.209-1.065-.939-2.279-1.765-3.363-2.694-1.487-1.211-2.96-2.437-4.392-3.714a.25.25,0,0,1,.319-.385Z" style="fill:#aebbc7"/><path d="M205.692,126.635a1.627,1.627,0,0,1,1.16-.092c4.3,1.267,30.564,9,38.92,11.187,9.111,2.385,12.86,2.852,17.344,1.135s11.558-4.388,11.558-4.388l.163-6.679c-8,2.576-11.82-.49-15.347-.668,0,0-2.607-9.715-3.355-12.895l-7.521,1.969c1.1,4.29,3.2,11.117,3.2,11.117l-5.9.313c-6.147-3.285-13.512-7.189-13.512-7.189l-5.2,1.358-7.3-1.358c.056.007,1.564,1.236,3.442,2.787l-14.518-2.061a5.426,5.426,0,0,1-1.941-.668l-.668-.385h-3.244c-3.53,0-5.963.859-5.963,2.385v1.145a4.805,4.805,0,0,0,.787,2.57,2.3,2.3,0,0,1,.835-.185h4.341A11.3,11.3,0,0,1,205.692,126.635Z" style="fill:none;stroke:#aebbc7;stroke-linecap:round;stroke-linejoin:round"/><path d="M250.364,115.745c.706,2.776,1.756,6.9,2.552,10.008.574,2.24,1.255,5.415,1.938,6.495" style="fill:none;stroke:#aebbc7;stroke-linecap:round;stroke-linejoin:round;stroke-width:0.5px"/><path d="M259.061,126.012c.906,3.482,1.724,5.459.323,6.953" style="fill:none;stroke:#aebbc7;stroke-linecap:round;stroke-linejoin:round;stroke-width:0.5px"/><ellipse cx="257.434" cy="130.506" rx="2.08" ry="2.048" style="fill:none;stroke:#aebbc7;stroke-linecap:round;stroke-linejoin:round;stroke-width:0.5px"/><ellipse cx="257.537" cy="130.365" rx="1.316" ry="1.295" style="fill:none;stroke:#aebbc7;stroke-linecap:round;stroke-linejoin:round;stroke-width:0.5px"/><path d="M262.114,132.456a4.269,4.269,0,0,0-1.395-4.047,4.055,4.055,0,0,1,1.948,2.923c0,.341.185,1.475-.378,1.418a.252.252,0,0,1-.175-.294Z" style="fill:#aebbc7"/><path d="M251.771,130.888a3.071,3.071,0,0,1,1.166-2.041,5.789,5.789,0,0,0-.67,2.1.253.253,0,0,1-.5-.06Z" style="fill:#aebbc7"/><path d="M263.188,137.691c-3.927,1.361-8.263.434-11.915-1.308a105.087,105.087,0,0,1-10.817-5.536c5.626,2.123,10.793,5.694,16.733,6.859a30.378,30.378,0,0,0,6-.015Z" style="fill:#aebbc7"/><path d="M241.453,131.4s2.731,2.559,4.611,4a14.009,14.009,0,0,0,6.256,2.788c2.937.675,7.8,1.42,10.024-.245" style="fill:none;stroke:#aebbc7;stroke-linecap:round;stroke-linejoin:round;stroke-width:0.5px"/><path d="M274.781,130.658s-4.987,2.339-9.614,4.009-7.489,2.1-14.549-1.383-11.5-5.963-16.028-7.823-5.565-2.886-6.742-3.828" style="fill:none;stroke:#aebbc7;stroke-linecap:round;stroke-linejoin:round;stroke-width:0.5px"/><path d="M229.834,128.679s-.539.5-4.308-.5-16.409-3.96-17.6-4.2-1.86-.907-2.766-.907" style="fill:none;stroke:#aebbc7;stroke-linecap:round;stroke-linejoin:round;stroke-width:0.5px"/><path d="M198.63,120.749a2.829,2.829,0,1,0,5.307-.631" style="fill:none;stroke:#aebbc7;stroke-linecap:round;stroke-linejoin:round;stroke-width:0.5px"/><path d="M449.083,126.635a1.628,1.628,0,0,0-1.16-.092c-4.3,1.267-30.564,9-38.92,11.187-9.111,2.385-12.86,2.852-17.344,1.135s-11.558-4.388-11.558-4.388l-.163-6.679c8,2.576,11.82-.49,15.347-.668,0,0,2.607-9.715,3.355-12.895l7.521,1.969c-1.1,4.29-3.2,11.117-3.2,11.117l5.9.313c6.147-3.285,13.512-7.189,13.512-7.189l5.2,1.358,7.3-1.358c-.055.007-1.563,1.236-3.441,2.787l14.518-2.061a5.426,5.426,0,0,0,1.941-.668l.668-.385h3.244c3.53,0,5.962.859,5.962,2.385v1.145a4.809,4.809,0,0,1-.786,2.57,2.3,2.3,0,0,0-.835-.185h-4.341A11.3,11.3,0,0,0,449.083,126.635Z" style="fill:#141b21"/><path d="M423.857,133.562c-6.071,1.744-11.723,3.345-14.856,4.165-8.119,2.129-11.981,2.732-15.894,1.619-2.053-.541-9.265-3.454-9.265-3.454a24.933,24.933,0,0,1-.507-7.277,15.959,15.959,0,0,0,6.817-.309,33.238,33.238,0,0,1,5.13-1.176s2.278-8.481,3.19-12.188c.063-.258.115-.5.166-.706l.752.2,6.771,1.773c-1.1,4.292-3.2,11.114-3.2,11.114l5.9.315c5.118-2.737,11.08-5.9,12.933-6.879l.388-.2,7.471,1.717a21.025,21.025,0,0,1,1.471,9.191Z" style="fill:#404d59"/><path d="M536.589,126.635a1.625,1.625,0,0,1,1.159-.092c4.3,1.267,30.564,9,38.92,11.187,9.111,2.385,12.86,2.852,17.344,1.135s11.558-4.388,11.558-4.388l.163-6.679c-8,2.576-11.82-.49-15.347-.668,0,0-2.607-9.715-3.355-12.895L579.51,116.2c1.1,4.29,3.2,11.117,3.2,11.117l-5.9.313c-6.147-3.285-13.512-7.189-13.512-7.189l-5.2,1.358-7.3-1.358c.055.007,1.564,1.236,3.441,2.787l-14.518-2.061a5.421,5.421,0,0,1-1.94-.668l-.669-.385h-3.244c-3.53,0-5.962.859-5.962,2.385v1.145a4.809,4.809,0,0,0,.786,2.57,2.3,2.3,0,0,1,.836-.185h4.34A11.314,11.314,0,0,1,536.589,126.635Z" style="fill:#141b21"/><path d="M562.174,133.562c6.07,1.744,11.722,3.345,14.855,4.165,8.119,2.129,11.981,2.732,15.894,1.619,2.054-.541,9.266-3.454,9.266-3.454a24.933,24.933,0,0,0,.507-7.277,15.962,15.962,0,0,1-6.818-.309,33.255,33.255,0,0,0-5.129-1.176s-2.278-8.481-3.191-12.188c-.063-.258-.114-.5-.166-.706l-.752.2-6.771,1.773c1.1,4.292,3.2,11.114,3.2,11.114l-5.9.315c-5.118-2.737-11.08-5.9-12.933-6.879l-.388-.2-7.471,1.717a21.025,21.025,0,0,0-1.471,9.191Z" style="fill:#404d59"/><path d="M409.041,127.692c-2.235,1.194-4.48,2.25-5.981,3.063-5.629,3.053-9.206,2.481-13.166,1.05s-9.624-3.9-9.624-3.9" style="fill:none;stroke:#aebbc7;stroke-linecap:round;stroke-linejoin:round;stroke-width:0.5px"/><path d="M431.6,123.425c-2.153,1.911-4.379,3.733-6.645,5.509-.6.525-1.868,1.175-1.623,2.108a.746.746,0,0,1-.025-.711c.8-1.5,2.366-2.411,3.554-3.584,1.45-1.263,2.915-2.511,4.42-3.707a.25.25,0,0,1,.319.385Z" style="fill:#aebbc7"/><path d="M449.083,126.635a1.628,1.628,0,0,0-1.16-.092c-4.3,1.267-30.564,9-38.92,11.187-9.111,2.385-12.86,2.852-17.344,1.135s-11.558-4.388-11.558-4.388l-.163-6.679c8,2.576,11.82-.49,15.347-.668,0,0,2.607-9.715,3.355-12.895l7.521,1.969c-1.1,4.29-3.2,11.117-3.2,11.117l5.9.313c6.147-3.285,13.512-7.189,13.512-7.189l5.2,1.358,7.3-1.358c-.055.007-1.563,1.236-3.441,2.787l14.518-2.061a5.426,5.426,0,0,0,1.941-.668l.668-.385h3.244c3.53,0,5.962.859,5.962,2.385v1.145a4.809,4.809,0,0,1-.786,2.57,2.3,2.3,0,0,0-.835-.185h-4.341A11.3,11.3,0,0,0,449.083,126.635Z" style="fill:none;stroke:#aebbc7;stroke-linecap:round;stroke-linejoin:round"/><path d="M404.411,115.745c-.706,2.776-1.756,6.9-2.552,10.008-.558,2.176-1.216,5.234-1.88,6.4" style="fill:none;stroke:#aebbc7;stroke-linecap:round;stroke-linejoin:round;stroke-width:0.5px"/><path d="M395.714,126.012c-.907,3.482-1.724,5.459-.323,6.953" style="fill:none;stroke:#aebbc7;stroke-linecap:round;stroke-linejoin:round;stroke-width:0.5px"/><ellipse cx="397.341" cy="130.506" rx="2.08" ry="2.048" style="fill:none;stroke:#aebbc7;stroke-linecap:round;stroke-linejoin:round;stroke-width:0.5px"/><ellipse cx="397.238" cy="130.365" rx="1.316" ry="1.295" style="fill:none;stroke:#aebbc7;stroke-linecap:round;stroke-linejoin:round;stroke-width:0.5px"/><path d="M392.177,132.579a3.91,3.91,0,0,1,1.879-4.17,4.269,4.269,0,0,0-1.395,4.047.25.25,0,0,1-.484.123Z" style="fill:#aebbc7"/><path d="M402.508,130.948a5.789,5.789,0,0,0-.67-2.1,2.782,2.782,0,0,1,.771.9c.158.309.726,1.292.141,1.391a.255.255,0,0,1-.242-.189Z" style="fill:#aebbc7"/><path d="M391.587,137.691a30.378,30.378,0,0,0,6,.015c5.94-1.166,11.106-4.736,16.733-6.859a105.3,105.3,0,0,1-10.817,5.537c-3.652,1.741-7.989,2.669-11.915,1.307Z" style="fill:#aebbc7"/><path d="M413.322,131.4s-2.731,2.559-4.611,4a14.015,14.015,0,0,1-6.256,2.788c-2.937.675-7.8,1.42-10.024-.245" style="fill:none;stroke:#aebbc7;stroke-linecap:round;stroke-linejoin:round;stroke-width:0.5px"/><path d="M379.994,130.658s4.987,2.339,9.614,4.009,7.489,2.1,14.549-1.383,11.5-5.963,16.028-7.823,5.565-2.886,6.742-3.828" style="fill:none;stroke:#aebbc7;stroke-linecap:round;stroke-linejoin:round;stroke-width:0.5px"/><path d="M424.941,128.679s.539.5,4.308-.5,16.409-3.96,17.6-4.2,1.86-.907,2.766-.907" style="fill:none;stroke:#aebbc7;stroke-linecap:round;stroke-linejoin:round;stroke-width:0.5px"/><path d="M456.145,120.749a2.829,2.829,0,1,1-5.307-.631" style="fill:none;stroke:#aebbc7;stroke-linecap:round;stroke-linejoin:round;stroke-width:0.5px"/><path d="M576.63,127.692c2.235,1.194,4.48,2.25,5.981,3.063,5.629,3.053,9.207,2.481,13.166,1.05s9.624-3.9,9.624-3.9" style="fill:none;stroke:#aebbc7;stroke-linecap:round;stroke-linejoin:round;stroke-width:0.5px"/><path d="M554.389,123.04c2.253,1.8,4.435,3.69,6.574,5.623.58.6,1.785,1.413,1.375,2.379.192-.473-.217-.89-.513-1.209-1.065-.939-2.279-1.765-3.362-2.694-1.488-1.211-2.961-2.437-4.393-3.714a.25.25,0,0,1,.319-.385Z" style="fill:#aebbc7"/><path d="M536.589,126.635a1.625,1.625,0,0,1,1.159-.092c4.3,1.267,30.564,9,38.92,11.187,9.111,2.385,12.86,2.852,17.344,1.135s11.558-4.388,11.558-4.388l.163-6.679c-8,2.576-11.82-.49-15.347-.668,0,0-2.607-9.715-3.355-12.895L579.51,116.2c1.1,4.29,3.2,11.117,3.2,11.117l-5.9.313c-6.147-3.285-13.512-7.189-13.512-7.189l-5.2,1.358-7.3-1.358c.055.007,1.564,1.236,3.441,2.787l-14.518-2.061a5.421,5.421,0,0,1-1.94-.668l-.669-.385h-3.244c-3.53,0-5.962.859-5.962,2.385v1.145a4.809,4.809,0,0,0,.786,2.57,2.3,2.3,0,0,1,.836-.185h4.34A11.314,11.314,0,0,1,536.589,126.635Z" style="fill:none;stroke:#aebbc7;stroke-linecap:round;stroke-linejoin:round"/><path d="M581.26,115.745c.706,2.776,1.756,6.9,2.552,10.008.574,2.24,1.255,5.415,1.939,6.495" style="fill:none;stroke:#aebbc7;stroke-linecap:round;stroke-linejoin:round;stroke-width:0.5px"/><path d="M589.957,126.012c.907,3.482,1.724,5.459.323,6.953" style="fill:none;stroke:#aebbc7;stroke-linecap:round;stroke-linejoin:round;stroke-width:0.5px"/><ellipse cx="588.33" cy="130.506" rx="2.08" ry="2.048" style="fill:none;stroke:#aebbc7;stroke-linecap:round;stroke-linejoin:round;stroke-width:0.5px"/><ellipse cx="588.433" cy="130.365" rx="1.316" ry="1.295" style="fill:none;stroke:#aebbc7;stroke-linecap:round;stroke-linejoin:round;stroke-width:0.5px"/><path d="M593.01,132.456a4.267,4.267,0,0,0-1.395-4.047,4.056,4.056,0,0,1,1.949,2.923c0,.341.184,1.474-.378,1.418a.252.252,0,0,1-.176-.294Z" style="fill:#aebbc7"/><path d="M582.667,130.888a3.075,3.075,0,0,1,1.166-2.041,5.789,5.789,0,0,0-.67,2.1.253.253,0,0,1-.5-.06Z" style="fill:#aebbc7"/><path d="M594.084,137.691c-3.926,1.361-8.263.434-11.915-1.308a105.087,105.087,0,0,1-10.817-5.536c5.626,2.123,10.794,5.694,16.733,6.859a30.378,30.378,0,0,0,6-.015Z" style="fill:#aebbc7"/><path d="M572.349,131.4s2.731,2.559,4.611,4a14.015,14.015,0,0,0,6.256,2.788c2.938.675,7.8,1.42,10.024-.245" style="fill:none;stroke:#aebbc7;stroke-linecap:round;stroke-linejoin:round;stroke-width:0.5px"/><path d="M605.678,130.658s-4.988,2.339-9.615,4.009-7.489,2.1-14.549-1.383-11.5-5.963-16.028-7.823-5.564-2.886-6.742-3.828" style="fill:none;stroke:#aebbc7;stroke-linecap:round;stroke-linejoin:round;stroke-width:0.5px"/><path d="M560.731,128.679s-.54.5-4.308-.5-16.41-3.96-17.6-4.2-1.86-.907-2.766-.907" style="fill:none;stroke:#aebbc7;stroke-linecap:round;stroke-linejoin:round;stroke-width:0.5px"/><path d="M529.526,120.749a2.829,2.829,0,1,0,5.307-.631" style="fill:none;stroke:#aebbc7;stroke-linecap:round;stroke-linejoin:round;stroke-width:0.5px"/></g><g id="fd0355cc-5f87-454e-bef6-c4822234d9eb" data-name="above"><path d="M7.7,117.661c.264,9.837.118,20.162,1.03,29.96.88,9.9,2.209,19.972,6.408,29.086C7.188,162.54,6.935,134.046,7.7,117.661Z" style="fill:#687581"/><path d="M14.149,136.3c1.306,13.709,1.491,27.814,6.274,40.886-3.136-6.227-3.977-13.318-4.99-20.133A154.255,154.255,0,0,1,14.149,136.3Z" style="fill:#687581"/><path d="M20.748,123.109c.675,9.162.835,18.341,1.655,27.491.878,9.08,1.439,18.4,4.453,27.063-2.049-4.138-2.722-8.8-3.462-13.315-.681-4.549-1.165-9.122-1.569-13.7-.651-9.165-1.27-18.345-1.077-27.538Z" style="fill:#687581"/><path d="M28.29,140.65c1.433,12.106,1.188,24.61,4.954,36.308-2.713-5.537-3.035-11.917-3.892-17.938a164.693,164.693,0,0,1-1.062-18.37Z" style="fill:#687581"/><path d="M34.479,126.184c.735,8.19.884,16.405,1.587,24.6.766,8.12,1,16.49,3.519,24.292-1.837-3.708-2.236-7.934-2.843-11.974-.533-4.081-.918-8.176-1.255-12.274-.533-8.2-1.141-16.412-1.008-24.639Z" style="fill:#687581"/><path d="M41.545,131.688c.734,6.943.858,13.917,1.479,20.867.66,6.891.832,13.993,2.9,20.628-1.6-3.129-1.9-6.736-2.413-10.165-.447-3.465-.775-6.941-1.068-10.418-.452-6.964-1.034-13.927-.9-20.912Z" style="fill:#687581"/><path d="M316.2,118.691c.724,16.132.4,44.036-7.458,58.016,4.126-8.958,5.476-18.84,6.364-28.574.923-9.625.8-19.777,1.094-29.442Z" style="fill:#687581"/><path d="M309.8,134.151a165.312,165.312,0,0,1-1.227,21.832c-1.018,7.173-1.854,14.638-5.119,21.2,5-13.757,5.081-28.61,6.346-43.034Z" style="fill:#687581"/><path d="M303.107,124.02c.186,9.042-.44,18.069-1.09,27.082-.4,4.5-.888,9-1.566,13.472-.734,4.439-1.407,9.023-3.428,13.089,2.969-8.523,3.542-17.68,4.416-26.609.82-9,.986-18.024,1.668-27.034Z" style="fill:#687581"/><path d="M295.555,141.329a159.61,159.61,0,0,1-1.065,18.03c-.85,5.908-1.18,12.17-3.855,17.6,3.7-11.48,3.491-23.747,4.92-35.629Z" style="fill:#687581"/><path d="M289.33,128.086c.129,7.91-.483,15.8-1.011,23.686-.335,3.939-.717,7.876-1.243,11.8-.594,3.885-1,7.946-2.783,11.5,2.429-7.5,2.7-15.538,3.447-23.345.7-7.871.851-15.769,1.59-23.64Z" style="fill:#687581"/><path d="M282.333,131.688c.134,6.986-.448,13.947-.9,20.912-.293,3.477-.621,6.953-1.068,10.418-.515,3.429-.813,7.036-2.413,10.165,2.071-6.635,2.243-13.737,2.9-20.628.621-6.95.745-13.924,1.478-20.867Z" style="fill:#687581"/><path d="M130.074,130.469v-2.528l-3.2-4.293V122.5c0-1.526-2.433-2.385-5.962-2.385h-9.97c-5.534,0-7.68.238-14.263,1.685,0,0-22.388-5.851-28.94-7.568a100.66,100.66,0,0,0-13.483-2.926c-5.407-.827-17.364-2.544-28.24-4.134s-12.4-4.325-14.756-13.739S8.275,70.412,8.275,58.582s.448-17.7,2.353-25.377a38.228,38.228,0,0,1,2.821-16.046c.617-1.4,2.013-4.82,3.619-8.8" style="fill:none;stroke:#687581;stroke-linecap:round;stroke-linejoin:round;stroke-width:1.5px"/><path d="M52.633,160.538c-2.012,0-3.643-17.656-3.643-39.434,0-3.659.046-7.2.132-10.562" style="fill:none;stroke:#687581;stroke-linecap:round;stroke-linejoin:round;stroke-width:1.5px"/><path d="M161.939,60.172c-16.356,0-40.845.609-48.833.82a12.14,12.14,0,0,0-4.957,1.2l-5.794,2.8A17.812,17.812,0,0,1,95.1,66.764c-6.431.194-19.923.669-32.06,1.549-12.275.891-16.8.942-27.6,1.223-9.031.235-11.176.874-10.813-7.583A120.455,120.455,0,0,1,25.848,48.66a9.641,9.641,0,0,1,6.914-7.632c4.07-1.209,24.551-4.834,24.551-4.834l-.008-1.735a1.3,1.3,0,0,1,1.107-1.288c6.05-.906,37.209-5.023,103.527-5.023" style="fill:none;stroke:#687581;stroke-linecap:round;stroke-linejoin:round;stroke-width:0.5px"/><path d="M22.744,47.42c1.355-7.249,5.4-10.277,12.351-11.827a268.711,268.711,0,0,1,26.873-4.919A799.292,799.292,0,0,1,162.19,26.426c-33.055.889-67.018.652-100.152,4.789-8.974,1.324-18,2.743-26.811,4.882C28.289,37.685,24.62,40.306,22.744,47.42Z" style="fill:#687581"/><path d="M10.8,33.205s.146,14.374.528,17.236,0,4.2,2.1,3.053,6.551-3.753,9.031-4.58l3.39-.254" style="fill:none;stroke:#687581;stroke-linecap:round;stroke-linejoin:round;stroke-width:0.5px"/><path d="M25.335,52.4c21.547-5.174,29.656-6.8,47.974-7.941s38.448-2.289,88.63-2.289" style="fill:none;stroke:#687581;stroke-linecap:round;stroke-linejoin:round;stroke-width:0.5px"/><path d="M50.293,37.464,50.06,44.4a1,1,0,0,1-.789.946c-3.231.7-15.99,3.6-23.936,7.06" style="fill:none;stroke:#687581;stroke-linecap:round;stroke-linejoin:round;stroke-width:0.5px"/><line x1="57.313" y1="36.194" x2="57.313" y2="45.914" style="fill:none;stroke:#687581;stroke-linecap:round;stroke-linejoin:round;stroke-width:0.5px"/><path d="M50.663,44.909l4.306,1.316-4.426-.83a.25.25,0,1,1,.12-.486Z" style="fill:#687581"/><path d="M63.037,68.313l-.414,3.053s0,22.134.382,29a81.356,81.356,0,0,0,1.917,13.13" style="fill:none;stroke:#687581;stroke-linecap:round;stroke-linejoin:round;stroke-width:0.5px"/><path d="M96.206,72.225c.01,6.133-.21,15.032-.36,21.256a74.589,74.589,0,0,0,1.409,21.1c-2.014-6.839-2.254-14.045-1.908-21.112.209-6.248.5-15.091.859-21.247Z" style="fill:#687581"/><line x1="161.939" y1="116.206" x2="75.265" y2="116.206" style="fill:none;stroke:#687581;stroke-linecap:round;stroke-linejoin:round;stroke-width:0.5px"/><line x1="8.485" y1="47.969" x2="11.099" y2="46.908" style="fill:none;stroke:#687581;stroke-linecap:round;stroke-linejoin:round;stroke-width:0.5px"/><path d="M11.028,44.914s3.89-3.062,6.882-5.626,4.772-5.982,5.341-11.68S25.246,6.6,25.246,6.6" style="fill:none;stroke:#687581;stroke-linecap:round;stroke-linejoin:round;stroke-width:0.5px"/><path d="M51.722,7.5c.093,2.544-.336,5.156.143,7.655A12.962,12.962,0,0,0,55.3,21.779a13.229,13.229,0,0,0,10.253,4l3.846-.245q30.8-2.11,61.672-2.905,15.432-.351,30.87-.323a.25.25,0,0,1,0,.5q-15.429.038-30.856.433-30.853.7-61.651,2.822l-3.854.24a13.863,13.863,0,0,1-7.552-1.765,13.284,13.284,0,0,1-6.609-9.294c-.456-2.583.11-5.161.3-7.735Z" style="fill:#687581"/><path d="M78.953,5.244c-.214,3.81-.378,6.72-.378,6.72-.321,5.744-5.519,10.684-11.889,11.155-6.575.493-11.906-3.965-11.906-9.95,0-.071.191-3.513.43-7.788" style="fill:none;stroke:#687581;stroke-linecap:round;stroke-linejoin:round;stroke-width:0.5px"/><path d="M76.849,4.579c-.187,3.408-.328,5.973-.328,5.973-.279,4.99-4.8,9.283-10.33,9.692-5.714.429-10.345-3.445-10.345-8.645,0-.059.158-2.964.361-6.68" style="fill:none;stroke:#687581;stroke-linecap:round;stroke-linejoin:round;stroke-width:0.5px"/><path d="M86.188,4.106c-.042,10.109-.217,13.3,11.22,12.848,12.651-.534,30.521-1.29,43.01-1.486,7.173-.152,14.347-.174,21.521-.163a.25.25,0,0,1,0,.5q-21.511.09-43.015.806c-5.089-.044-23.55,1.589-28.243.283a9.758,9.758,0,0,1-2.209-.946c-.206-.152-.6-.511-.8-.667a5.916,5.916,0,0,1-1.394-3.1c-.427-2.671-.1-5.391-.089-8.078Z" style="fill:#687581"/><path d="M193.054,130.469V129.36c.05-1.127-.137-1.351.149-1.867l3.2-4.293-.149.448v-1.015c.116-3.1,4.53-3.194,6.736-3.265,4.929.079,11.453-.211,16.3.255a75.3,75.3,0,0,1,8.067,1.448l-.351.007c6.292-1.644,22.076-5.775,28.14-7.36a129,129,0,0,1,19.068-3.84c4.772-.708,14.415-2.1,19.189-2.809,4.64-.815,9.652-.88,13.576-3.571,8.275-6.538,7.925-40.265,7.819-51.063a80.978,80.978,0,0,0-2.275-19.05,40.374,40.374,0,0,0-3.93-18.722l-2.47-6.009a.75.75,0,1,1,1.391-.561l2.458,5.978A41.122,41.122,0,0,1,314,33.251a63.555,63.555,0,0,1,1.728,9.41c.931,9.709.69,19.451.325,29.181-.59,9.685-1.253,19.711-4.974,28.817-2.9,6.716-11.3,6.88-17.456,7.894l-9.592,1.4c-5.65.825-13.621,1.916-19.133,2.915-10.708,2.476-26.715,6.9-37.511,9.657-2.759-.366-5.5-1.2-8.253-1.414a76.548,76.548,0,0,0-8.03-.247h-8.116c-1.733.081-3.884.047-5.1,1.25a.67.67,0,0,0-.107.219.258.258,0,0,0-.02.111l-.01.058v1.142a.748.748,0,0,1-.148.448l-3.2,4.293.148-.448v2.528a.75.75,0,0,1-1.5,0Z" style="fill:#687581"/><path d="M271.246,160.538c2.012,0,3.643-17.656,3.643-39.434,0-3.659-.046-7.2-.132-10.562" style="fill:none;stroke:#687581;stroke-linecap:round;stroke-linejoin:round;stroke-width:1.5px"/><path d="M161.94,60.172c16.356,0,40.845.608,48.833.819a12.167,12.167,0,0,1,4.956,1.2l5.795,2.8a17.812,17.812,0,0,0,7.258,1.771c6.431.193,19.923.668,32.06,1.549,12.275.89,16.8.941,27.6,1.223,9.031.235,11.176.874,10.813-7.583a120.408,120.408,0,0,0-1.227-13.293,9.643,9.643,0,0,0-6.914-7.633c-4.071-1.208-24.551-4.834-24.551-4.834l.008-1.734a1.3,1.3,0,0,0-1.107-1.289c-6.05-.905-37.209-5.022-103.527-5.022" style="fill:none;stroke:#687581;stroke-linecap:round;stroke-linejoin:round;stroke-width:0.5px"/><path d="M313.079,33.205s-.146,14.374-.528,17.236,0,4.2-2.1,3.053-6.551-3.753-9.031-4.58l-3.39-.254" style="fill:none;stroke:#687581;stroke-linecap:round;stroke-linejoin:round;stroke-width:0.5px"/><path d="M298.544,52.4c-21.547-5.174-29.656-6.8-47.974-7.941s-38.448-2.289-88.631-2.289" style="fill:none;stroke:#687581;stroke-linecap:round;stroke-linejoin:round;stroke-width:0.5px"/><path d="M273.586,37.464l.232,6.933a1,1,0,0,0,.789.946c3.232.7,15.991,3.6,23.937,7.06" style="fill:none;stroke:#687581;stroke-linecap:round;stroke-linejoin:round;stroke-width:0.5px"/><line x1="266.566" y1="36.194" x2="266.566" y2="45.914" style="fill:none;stroke:#687581;stroke-linecap:round;stroke-linejoin:round;stroke-width:0.5px"/><path d="M273.336,45.4l-4.426.83,4.306-1.316a.25.25,0,1,1,.12.486Z" style="fill:#687581"/><path d="M260.842,68.313l.413,3.053s0,22.134-.381,29a81.291,81.291,0,0,1-1.918,13.13" style="fill:none;stroke:#687581;stroke-linecap:round;stroke-linejoin:round;stroke-width:0.5px"/><path d="M227.673,72.225c.363,6.121.651,15.024.859,21.247.346,7.067.106,14.274-1.909,21.112a74.584,74.584,0,0,0,1.41-21.1c-.151-6.249-.37-15.088-.36-21.256Z" style="fill:#687581"/><line x1="161.939" y1="116.206" x2="248.614" y2="116.206" style="fill:none;stroke:#687581;stroke-linecap:round;stroke-linejoin:round;stroke-width:0.5px"/><line x1="315.393" y1="47.969" x2="312.78" y2="46.908" style="fill:none;stroke:#687581;stroke-linecap:round;stroke-linejoin:round;stroke-width:0.5px"/><line x1="298.633" y1="6.597" x2="297.85" y2="5.244" style="fill:none;stroke:#687581;stroke-linecap:round;stroke-linejoin:round;stroke-width:0.5px"/><path d="M312.851,44.914s-3.89-3.062-6.882-5.626-4.772-5.982-5.342-11.68S298.633,6.6,298.633,6.6" style="fill:none;stroke:#687581;stroke-linecap:round;stroke-linejoin:round;stroke-width:0.5px"/><path d="M272.011,4.938q.426,3.92.665,7.865c.22,6.823-5.565,12.985-12.334,13.443-11.812-.264-23.6-1.5-35.424-1.885q-15.733-.74-31.481-1.112-15.746-.4-31.5-.448a.25.25,0,0,1,0-.5q15.757-.018,31.513.338,15.753.395,31.494,1.153c11.784.406,23.585,1.641,35.348,1.934a13.094,13.094,0,0,0,11.349-9.115c1.121-3.787.188-7.782.368-11.673Z" style="fill:#687581"/><path d="M244.94,5.489c.207,3.688.363,6.475.363,6.475.322,5.744,5.52,10.684,11.889,11.155,6.576.493,11.906-3.965,11.906-9.95,0-.066-.164-3.027-.378-6.863" style="fill:none;stroke:#687581;stroke-linecap:round;stroke-linejoin:round;stroke-width:0.5px"/><path d="M247.023,4.46c.19,3.467.335,6.092.335,6.092.279,4.99,4.8,9.283,10.33,9.692,5.713.429,10.345-3.445,10.345-8.645,0-.059-.161-3.022-.367-6.792" style="fill:none;stroke:#687581;stroke-linecap:round;stroke-linejoin:round;stroke-width:0.5px"/><path d="M237.69,4.106c.011,2.687.338,5.407-.088,8.078a5.9,5.9,0,0,1-1.394,3.1c-.18.169-.625.514-.8.668a9.816,9.816,0,0,1-2.209.946c-4.586,1.3-23.271-.328-28.243-.283q-21.5-.738-43.016-.806a.25.25,0,0,1,0-.5c7.174-.011,14.349.011,21.522.163,12.419.194,30.413.955,43.01,1.486,11.469.433,11.247-2.721,11.219-12.848Z" style="fill:#687581"/><path d="M263.307,37.573a1.444,1.444,0,0,1-.16-.009c-.023,0-2.394-.266-6.788-.657a1.426,1.426,0,0,1,.253-2.84c4.43.394,6.827.661,6.851.664a1.425,1.425,0,0,1-.156,2.842ZM60.562,37.439a1.426,1.426,0,0,1-.143-2.844c1.356-.139,3.644-.362,6.841-.639a1.425,1.425,0,1,1,.246,2.84c-3.179.276-5.451.5-6.8.636A1.446,1.446,0,0,1,60.562,37.439Zm192.459-.824c-.041,0-.081,0-.121-.005q-3-.251-6.811-.536a1.425,1.425,0,1,1,.211-2.843q3.825.283,6.838.538a1.426,1.426,0,0,1-.117,2.846ZM70.85,36.51a1.425,1.425,0,0,1-.115-2.846q3.045-.249,6.838-.527a1.426,1.426,0,0,1,.207,2.844q-3.774.274-6.813.525C70.928,36.508,70.889,36.51,70.85,36.51Zm171.875-.683-.1,0q-3.184-.224-6.819-.452a1.426,1.426,0,1,1,.178-2.846q3.644.228,6.84.454a1.425,1.425,0,0,1-.1,2.847ZM81.146,35.739a1.426,1.426,0,0,1-.1-2.848q3.206-.219,6.841-.444a1.426,1.426,0,1,1,.174,2.846q-3.622.222-6.82.443Q81.2,35.739,81.146,35.739Zm151.276-.576c-.029,0-.057,0-.086,0q-3.257-.194-6.824-.381a1.425,1.425,0,1,1,.149-2.847q3.576.188,6.843.381a1.426,1.426,0,0,1-.082,2.849ZM91.45,35.088a1.425,1.425,0,0,1-.081-2.848q3.272-.189,6.843-.373a1.425,1.425,0,1,1,.146,2.847q-3.56.183-6.825.372C91.505,35.088,91.477,35.088,91.45,35.088ZM222.113,34.6c-.024,0-.047,0-.071,0q-3.3-.162-6.829-.315A1.426,1.426,0,0,1,213.85,32.8a1.443,1.443,0,0,1,1.486-1.364q3.54.153,6.846.317a1.425,1.425,0,0,1-.069,2.849Zm-120.354-.062a1.425,1.425,0,0,1-.067-2.849q3.311-.159,6.846-.309a1.426,1.426,0,1,1,.12,2.849q-3.526.148-6.829.308Zm110.041-.4h-.059q-3.323-.135-6.831-.255a1.425,1.425,0,1,1,.1-2.849q3.516.12,6.848.255a1.426,1.426,0,0,1-.056,2.85Zm-99.727-.051a1.426,1.426,0,0,1-.054-2.85q3.333-.129,6.847-.248a1.426,1.426,0,1,1,.095,2.85q-3.505.117-6.832.247Zm89.409-.318h-.045q-3.341-.1-6.834-.2a1.426,1.426,0,0,1,.037-2.851h.037q3.5.091,6.85.2a1.426,1.426,0,0,1-.045,2.851Zm-79.092-.04a1.425,1.425,0,0,1-.043-2.85q3.35-.1,6.85-.189h.036a1.426,1.426,0,0,1,.035,2.851q-3.492.086-6.834.189Zm68.773-.242h-.033q-3.352-.078-6.835-.139a1.426,1.426,0,0,1,.024-2.851h.026q3.49.063,6.85.14a1.426,1.426,0,0,1-.032,2.851Zm-58.453-.029a1.426,1.426,0,0,1-.031-2.851q3.361-.073,6.851-.133h.024a1.426,1.426,0,0,1,.023,2.851q-3.48.059-6.835.132Zm48.132-.167h-.022q-3.361-.051-6.836-.084A1.426,1.426,0,0,1,174,30.362h.014q3.481.035,6.851.085a1.426,1.426,0,0,1-.021,2.851Zm-37.811-.019a1.426,1.426,0,0,1-.019-2.851q3.369-.048,6.851-.078h.012a1.426,1.426,0,0,1,.012,2.851q-3.472.03-6.835.078Zm22.6-2.971q2.476.008,4.9.025a1.426,1.426,0,0,1-.01,2.851h-.01q-2.64-.018-5.339-.026m-6.038,0q-2.919,0-5.77.022h-.009a1.426,1.426,0,0,1-.009-2.851q2.677-.016,5.416-.022" style="fill:none;stroke:#687581;stroke-linecap:round;stroke-linejoin:round;stroke-width:0.5px"/><path d="M257.952,40.472c-.041,0-.082,0-.123-.005-1.825-.156-4.1-.342-6.808-.546a1.426,1.426,0,1,1,.214-2.843c2.717.2,5,.392,6.837.548a1.426,1.426,0,0,1-.12,2.846ZM65.485,40.4a1.426,1.426,0,0,1-.118-2.846c1.876-.158,4.162-.341,6.837-.54a1.425,1.425,0,1,1,.212,2.843c-2.665.2-4.941.381-6.81.538C65.566,40.4,65.525,40.4,65.485,40.4Zm182.174-.73-.1,0q-3.119-.222-6.817-.458a1.425,1.425,0,0,1-1.333-1.512,1.44,1.44,0,0,1,1.513-1.333q3.706.234,6.84.459a1.425,1.425,0,0,1-.1,2.847ZM75.778,39.612a1.425,1.425,0,0,1-.1-2.847q3.144-.221,6.84-.453a1.425,1.425,0,1,1,.178,2.845q-3.681.231-6.818.452ZM237.357,39a.824.824,0,0,1-.086,0q-3.23-.192-6.825-.386a1.426,1.426,0,0,1,.153-2.847q3.6.192,6.842.388A1.425,1.425,0,0,1,237.357,39Zm-151.276-.05A1.426,1.426,0,0,1,86,36.1q3.242-.191,6.841-.382a1.426,1.426,0,0,1,.151,2.847q-3.59.189-6.825.381Zm140.969-.517-.073,0q-3.282-.165-6.828-.324a1.425,1.425,0,0,1,.127-2.848q3.553.159,6.844.324a1.426,1.426,0,0,1-.07,2.85ZM96.388,38.391a1.426,1.426,0,0,1-.07-2.85q3.293-.162,6.845-.319a1.425,1.425,0,1,1,.125,2.848q-3.543.155-6.828.319Zm120.35-.432h-.06q-3.312-.138-6.83-.265a1.425,1.425,0,0,1,.1-2.848q3.525.126,6.846.264a1.426,1.426,0,0,1-.058,2.85ZM106.7,37.925a1.426,1.426,0,0,1-.056-2.85q3.32-.136,6.846-.26l.051,0a1.425,1.425,0,0,1,.049,2.85q-3.516.125-6.831.26Zm99.722-.351h-.048q-3.333-.111-6.833-.209a1.426,1.426,0,0,1,.079-2.85q3.507.1,6.848.209a1.426,1.426,0,0,1-.046,2.851Zm-89.407-.027a1.426,1.426,0,0,1-.046-2.851q3.342-.108,6.849-.2h.039a1.426,1.426,0,0,1,.039,2.851q-3.5.095-6.833.2Zm79.089-.275h-.037q-3.347-.084-6.835-.155a1.426,1.426,0,0,1,.029-2.851h.029q3.5.07,6.849.155a1.425,1.425,0,0,1-.035,2.85Zm-68.77-.02A1.426,1.426,0,0,1,127.3,34.4q3.356-.083,6.849-.152a1.445,1.445,0,0,1,1.453,1.4,1.425,1.425,0,0,1-1.4,1.453q-3.486.069-6.835.151Zm58.45-.2h-.026q-3.357-.06-6.835-.1a1.426,1.426,0,0,1,.017-2.851h.019q3.484.045,6.85.1a1.426,1.426,0,0,1-.025,2.851Zm-48.13-.015a1.426,1.426,0,0,1-.024-2.851q3.364-.057,6.85-.1a1.426,1.426,0,0,1,.034,2.851q-3.477.042-6.836.1Zm37.809-.128h-.015q-3.366-.035-6.836-.052a1.426,1.426,0,0,1,.007-2.851h.007q3.477.018,6.851.052a1.426,1.426,0,0,1-.014,2.851ZM147.976,36.9a1.426,1.426,0,0,1-.013-2.851q3.374-.032,6.85-.048h.007a1.426,1.426,0,0,1,.006,2.851q-3.469.017-6.836.048Zm17.062-2.908h.107a1.426,1.426,0,0,1,0,2.852h0c-2.259-.007-4.568-.008-6.836,0h0a1.426,1.426,0,0,1,0-2.851l.949,0" style="fill:none;stroke:#687581;stroke-linecap:round;stroke-linejoin:round;stroke-width:0.5px"/><path d="M263.307,44.632a1.4,1.4,0,0,1-.144-.007c-.023,0-2.4-.238-6.8-.589a1.426,1.426,0,0,1,.227-2.842c4.432.353,6.83.592,6.854.595a1.425,1.425,0,0,1-.14,2.843ZM60.512,44.517a1.425,1.425,0,0,1-.129-2.845c1.344-.123,3.622-.323,6.844-.574a1.425,1.425,0,1,1,.221,2.842c-3.2.25-5.47.448-6.8.571C60.6,44.515,60.555,44.517,60.512,44.517Zm192.5-.744c-.036,0-.072,0-.108,0q-3-.225-6.817-.481a1.425,1.425,0,1,1,.189-2.844q3.826.253,6.84.481a1.426,1.426,0,0,1-.1,2.848ZM70.806,43.682a1.425,1.425,0,0,1-.1-2.847q3.045-.222,6.841-.472a1.443,1.443,0,0,1,1.515,1.33,1.427,1.427,0,0,1-1.33,1.516q-3.779.244-6.818.47Zm171.9-.614-.091,0q-3.184-.2-6.823-.405a1.426,1.426,0,1,1,.159-2.847q3.646.2,6.843.406a1.426,1.426,0,0,1-.088,2.849Zm-161.6-.076a1.425,1.425,0,0,1-.086-2.848q3.206-.2,6.842-.4a1.426,1.426,0,0,1,.157,2.847q-3.624.2-6.825.4C81.167,42.991,81.137,42.992,81.108,42.992Zm151.295-.52c-.026,0-.051,0-.077,0q-3.26-.172-6.827-.341a1.425,1.425,0,1,1,.133-2.847q3.577.168,6.845.342a1.425,1.425,0,0,1-.074,2.848ZM91.416,42.408a1.425,1.425,0,0,1-.073-2.849q3.274-.169,6.846-.334a1.425,1.425,0,0,1,.13,2.848q-3.561.164-6.827.334Zm130.675-.436h-.064q-3.3-.145-6.831-.283a1.426,1.426,0,1,1,.111-2.849q3.539.136,6.846.284a1.425,1.425,0,0,1-.062,2.849Zm-120.363-.053a1.426,1.426,0,0,1-.06-2.85q3.31-.143,6.847-.276a1.441,1.441,0,0,1,1.478,1.371,1.426,1.426,0,0,1-1.371,1.478q-3.528.132-6.831.276Zm110.048-.359h-.053q-3.322-.12-6.832-.228a1.426,1.426,0,1,1,.087-2.85q3.516.108,6.848.229a1.425,1.425,0,0,1-.05,2.85Zm-99.732-.044a1.425,1.425,0,0,1-.049-2.85q3.333-.117,6.849-.222a1.426,1.426,0,1,1,.084,2.85q-3.506.105-6.833.221Zm89.413-.287h-.04q-3.342-.095-6.835-.176a1.425,1.425,0,0,1,.065-2.85q3.5.081,6.85.176a1.425,1.425,0,0,1-.04,2.85ZM122.363,41.2a1.425,1.425,0,0,1-.038-2.85q3.348-.091,6.849-.17h.032a1.425,1.425,0,0,1,.031,2.85q-3.492.078-6.835.17Zm68.774-.218h-.03q-3.352-.069-6.836-.124A1.426,1.426,0,0,1,184.293,38h.023q3.49.056,6.85.125a1.426,1.426,0,0,1-.029,2.851Zm-58.454-.025a1.426,1.426,0,0,1-.028-2.851q3.361-.066,6.85-.119h.022a1.426,1.426,0,0,1,.021,2.851q-3.481.053-6.837.119Zm48.133-.151h-.02q-3.361-.045-6.837-.075a1.426,1.426,0,0,1,.012-2.851h.013q3.482.03,6.85.075a1.426,1.426,0,0,1-.018,2.851ZM143,40.786a1.426,1.426,0,0,1-.017-2.851q3.369-.042,6.85-.07h.011a1.426,1.426,0,0,1,.011,2.851q-3.472.027-6.837.07Zm27.489-.086h-.009q-3.369-.021-6.837-.027a1.426,1.426,0,0,1,0-2.851h0q3.473.006,6.85.027a1.426,1.426,0,0,1-.009,2.851Zm-17.166-.007a1.426,1.426,0,0,1-.008-2.851q3.378-.019,6.851-.022h0a1.426,1.426,0,1,1,0,2.851q-3.467,0-6.837.022Z" style="fill:none;stroke:#687581;stroke-linecap:round;stroke-linejoin:round;stroke-width:0.5px"/><path d="M158.48,28.151l.764,5.85a.837.837,0,0,0,.831.73h4.13a.838.838,0,0,0,.828-.706l.937-5.871" style="fill:none;stroke:#687581;stroke-linecap:round;stroke-linejoin:round;stroke-width:0.5px"/><circle cx="162.119" cy="30.568" r="1.288" style="fill:none;stroke:#687581;stroke-linecap:round;stroke-linejoin:round;stroke-width:0.5px"/><path d="M97,76.454c2.38,11.8,4.186,24.116,1.4,36,2.112-11.981.316-24.089-1.4-36Z" style="fill:#687581"/><path d="M226.878,76.454c-1.715,11.911-3.511,24.019-1.4,36-2.787-11.885-.981-24.2,1.4-36Z" style="fill:#687581"/><path d="M64.075,71.281c6.981-.841,17.3-1.147,24.435-1.548,24.458-1.135,48.944-1.748,73.429-1.67a.25.25,0,0,1,.25.251c-16.035.787-32.894.307-49.195,1.034-16.052.328-32.858,1.56-48.919,1.933Z" style="fill:#687581"/><path d="M22.172,49.9c-.335,5.012-.856,10.015-1.08,15.022-.855,6.527,5.577,6.739,10.408,6.96,10.045.595,20.066-.484,30.1-.456-4.979.768-10.018.748-15.038,1.035-5.022.2-10.064.242-15.086-.016-3.518-.292-8.461-.125-10.4-3.728a8.173,8.173,0,0,1-.439-3.817c.366-5.02.894-10.011,1.533-15Z" style="fill:#687581"/><path d="M301.134,47.42C299.243,40.3,295.617,37.7,288.652,36.1A279.52,279.52,0,0,0,252.806,30.2c-30.187-3.106-61.083-2.963-91.117-3.774A798.7,798.7,0,0,1,261.91,30.674a268.96,268.96,0,0,1,26.874,4.918c6.923,1.541,11.009,4.584,12.35,11.828Z" style="fill:#687581"/><path d="M259.227,71.247c-15.971-.37-32.671-1.582-48.63-1.908-16.2-.723-32.975-.237-48.907-1.025a.251.251,0,0,1,.249-.251c32.264.074,65.116.637,97.288,3.184Z" style="fill:#687581"/><path d="M301.707,49.9c.625,4.889,1.139,9.782,1.511,14.7a9.549,9.549,0,0,1-.277,3.747c-1.546,3.8-6.473,3.761-9.938,4.071-4.921.262-9.863.253-14.785.069-4.923-.228-9.853-.307-14.742-.99,9.84.015,19.659.957,29.5.364,5.029-.276,10.685-.646,9.8-7.237-.233-4.908-.737-9.811-1.069-14.723Z" style="fill:#687581"/><path d="M12.51,94.9c3.086,7.641,8.794,7.805,16.014,8.6,4.132.439,15.259,1.466,19.537,1.858,3.807.422,9.3.615,13.017,1.384-3.771.166-9.247-.6-13.065-.832-6.28-.51-13.247-1.193-19.546-1.9-7.248-.837-13.289-1.179-15.957-9.113Z" style="fill:#687581"/><path d="M311.369,94.9c-2.613,7.67-8.213,8.234-15.318,9.041-6.1.691-12.819,1.362-18.9,1.858-3.7.226-8.966.977-12.638.8,3.57-.762,8.911-.942,12.589-1.357,4.19-.387,14.855-1.379,18.9-1.812,7.078-.765,12.354-1.147,15.375-8.534Z" style="fill:#687581"/><path d="M338.6,117.661c.265,9.837.118,20.162,1.031,29.96.88,9.9,2.209,19.972,6.407,29.086-7.952-14.167-8.2-42.661-7.438-59.046Z" style="fill:#687581"/><path d="M345.045,136.3c1.307,13.709,1.492,27.814,6.274,40.886-3.136-6.227-3.977-13.318-4.99-20.133a154.255,154.255,0,0,1-1.284-20.753Z" style="fill:#687581"/><path d="M351.644,123.109c.676,9.162.835,18.341,1.655,27.491.878,9.08,1.439,18.4,4.453,27.063-2.049-4.138-2.722-8.8-3.461-13.315-.682-4.549-1.166-9.122-1.57-13.7-.651-9.165-1.27-18.345-1.077-27.538Z" style="fill:#687581"/><path d="M359.186,140.65c1.433,12.106,1.188,24.61,4.954,36.308-2.713-5.537-3.034-11.917-3.892-17.938a164.933,164.933,0,0,1-1.062-18.37Z" style="fill:#687581"/><path d="M365.375,126.184c.735,8.19.884,16.405,1.587,24.6.766,8.12,1,16.49,3.519,24.292-1.837-3.708-2.236-7.934-2.843-11.974-.533-4.081-.918-8.176-1.254-12.274-.534-8.2-1.141-16.412-1.009-24.639Z" style="fill:#687581"/><path d="M372.442,131.688c.733,6.943.857,13.917,1.479,20.867.659,6.891.831,13.993,2.9,20.628-1.6-3.129-1.9-6.736-2.413-10.165-.447-3.465-.775-6.941-1.068-10.418-.452-6.964-1.034-13.927-.9-20.912Z" style="fill:#687581"/><path d="M647.093,118.691c.724,16.132.4,44.035-7.458,58.016,4.126-8.958,5.476-18.84,6.364-28.574.924-9.625.8-19.777,1.094-29.442Z" style="fill:#687581"/><path d="M640.7,134.151a165.311,165.311,0,0,1-1.226,21.832c-1.019,7.173-1.855,14.638-5.12,21.2,5-13.757,5.082-28.61,6.346-43.034Z" style="fill:#687581"/><path d="M634,124.02c.186,9.042-.439,18.069-1.09,27.082-.4,4.5-.888,9-1.566,13.472-.733,4.439-1.407,9.023-3.428,13.089,2.968-8.523,3.542-17.68,4.416-26.609.82-9,.986-18.024,1.668-27.034Z" style="fill:#687581"/><path d="M626.451,141.329a159.61,159.61,0,0,1-1.065,18.03c-.85,5.908-1.18,12.17-3.855,17.6,3.705-11.48,3.491-23.747,4.92-35.629Z" style="fill:#687581"/><path d="M620.227,128.086c.128,7.91-.483,15.8-1.012,23.686-.335,3.939-.717,7.876-1.243,11.8-.594,3.885-1,7.946-2.782,11.5,2.428-7.5,2.695-15.538,3.446-23.345.7-7.871.851-15.769,1.591-23.64Z" style="fill:#687581"/><path d="M613.23,131.688c.133,6.986-.449,13.947-.9,20.912-.293,3.477-.621,6.953-1.068,10.418-.515,3.429-.813,7.036-2.413,10.165,2.071-6.635,2.243-13.737,2.9-20.628.621-6.95.745-13.924,1.479-20.867Z" style="fill:#687581"/><path d="M460.97,130.469v-2.528l-3.2-4.293V122.5c0-1.526-2.432-2.385-5.962-2.385h-9.97c-5.534,0-7.68.238-14.263,1.685,0,0-22.388-5.851-28.939-7.568a100.671,100.671,0,0,0-13.484-2.926c-5.406-.827-17.364-2.544-28.24-4.134s-12.4-4.325-14.756-13.739-2.989-23.024-2.989-34.854.448-17.7,2.353-25.377a38.228,38.228,0,0,1,2.821-16.046c.618-1.4,2.014-4.82,3.619-8.8" style="fill:none;stroke:#687581;stroke-linecap:round;stroke-linejoin:round;stroke-width:1.5px"/><path d="M383.529,160.538c-2.012,0-3.643-17.656-3.643-39.434,0-3.659.046-7.2.132-10.562" style="fill:none;stroke:#687581;stroke-linecap:round;stroke-linejoin:round;stroke-width:1.5px"/><path d="M492.836,60.172c-16.357,0-40.846.609-48.834.82a12.135,12.135,0,0,0-4.956,1.2l-5.8,2.8a17.808,17.808,0,0,1-7.258,1.771c-6.431.194-19.923.669-32.06,1.549-12.275.891-16.8.942-27.6,1.223-9.031.235-11.176.874-10.813-7.583a120.7,120.7,0,0,1,1.227-13.293,9.641,9.641,0,0,1,6.914-7.632c4.071-1.209,24.551-4.834,24.551-4.834l-.008-1.735a1.3,1.3,0,0,1,1.107-1.288c6.05-.906,37.209-5.023,103.528-5.023" style="fill:none;stroke:#687581;stroke-linecap:round;stroke-linejoin:round;stroke-width:0.5px"/><path d="M353.641,47.42c1.354-7.249,5.4-10.277,12.35-11.827a268.678,268.678,0,0,1,26.874-4.919,799.268,799.268,0,0,1,100.221-4.248c-33.055.889-67.018.652-100.152,4.789-8.973,1.324-18,2.743-26.811,4.882-6.938,1.588-10.607,4.209-12.482,11.323Z" style="fill:#687581"/><path d="M341.7,33.205s.146,14.374.528,17.236,0,4.2,2.1,3.053,6.551-3.753,9.031-4.58l3.39-.254" style="fill:none;stroke:#687581;stroke-linecap:round;stroke-linejoin:round;stroke-width:0.5px"/><path d="M356.231,52.4c21.547-5.174,29.656-6.8,47.974-7.941s38.448-2.289,88.631-2.289" style="fill:none;stroke:#687581;stroke-linecap:round;stroke-linejoin:round;stroke-width:0.5px"/><path d="M381.189,37.464l-.233,6.933a1,1,0,0,1-.788.946c-3.232.7-15.991,3.6-23.937,7.06" style="fill:none;stroke:#687581;stroke-linecap:round;stroke-linejoin:round;stroke-width:0.5px"/><line x1="388.209" y1="36.194" x2="388.209" y2="45.914" style="fill:none;stroke:#687581;stroke-linecap:round;stroke-linejoin:round;stroke-width:0.5px"/><path d="M381.559,44.909l4.306,1.316-4.426-.83a.25.25,0,1,1,.12-.486Z" style="fill:#687581"/><path d="M393.933,68.313l-.413,3.053s0,22.134.381,29a81.291,81.291,0,0,0,1.918,13.13" style="fill:none;stroke:#687581;stroke-linecap:round;stroke-linejoin:round;stroke-width:0.5px"/><path d="M427.1,72.225c.01,6.133-.21,15.032-.36,21.256a74.589,74.589,0,0,0,1.41,21.1c-2.015-6.839-2.255-14.045-1.909-21.112.209-6.248.5-15.091.859-21.247Z" style="fill:#687581"/><line x1="492.836" y1="116.206" x2="406.161" y2="116.206" style="fill:none;stroke:#687581;stroke-linecap:round;stroke-linejoin:round;stroke-width:0.5px"/><line x1="339.382" y1="47.969" x2="341.995" y2="46.908" style="fill:none;stroke:#687581;stroke-linecap:round;stroke-linejoin:round;stroke-width:0.5px"/><path d="M341.924,44.914s3.89-3.062,6.882-5.626,4.772-5.982,5.342-11.68S356.142,6.6,356.142,6.6" style="fill:none;stroke:#687581;stroke-linecap:round;stroke-linejoin:round;stroke-width:0.5px"/><path d="M382.618,7.5c.093,2.544-.336,5.156.143,7.655a12.956,12.956,0,0,0,3.434,6.622,13.225,13.225,0,0,0,10.252,4l3.847-.245q30.8-2.11,61.671-2.905,15.432-.351,30.871-.323a.25.25,0,0,1,0,.5q-15.431.038-30.857.433-30.853.7-61.651,2.822l-3.854.24a13.86,13.86,0,0,1-7.551-1.765,13.282,13.282,0,0,1-6.61-9.294c-.456-2.583.11-5.161.305-7.735Z" style="fill:#687581"/><path d="M409.849,5.244c-.214,3.81-.377,6.72-.377,6.72-.322,5.744-5.52,10.684-11.889,11.155-6.576.493-11.906-3.965-11.906-9.95,0-.071.191-3.513.43-7.788" style="fill:none;stroke:#687581;stroke-linecap:round;stroke-linejoin:round;stroke-width:0.5px"/><path d="M407.746,4.579c-.188,3.408-.329,5.973-.329,5.973-.279,4.99-4.8,9.283-10.33,9.692-5.713.429-10.345-3.445-10.345-8.645,0-.059.158-2.964.361-6.68" style="fill:none;stroke:#687581;stroke-linecap:round;stroke-linejoin:round;stroke-width:0.5px"/><path d="M417.084,4.106c-.042,10.109-.217,13.3,11.22,12.848,12.651-.534,30.521-1.29,43.01-1.486,7.173-.152,14.348-.174,21.522-.163a.25.25,0,0,1,0,.5q-21.513.09-43.016.806c-5.089-.044-23.549,1.589-28.243.283a9.758,9.758,0,0,1-2.209-.946c-.206-.152-.6-.511-.8-.667a5.916,5.916,0,0,1-1.394-3.1c-.427-2.671-.1-5.391-.089-8.078Z" style="fill:#687581"/><path d="M523.951,130.469V129.36c.049-1.127-.138-1.352.148-1.867l3.2-4.293-.148.448v-1.015c.115-3.1,4.529-3.194,6.736-3.265,4.928.079,11.453-.211,16.3.255a75.3,75.3,0,0,1,8.067,1.448l-.35.007c6.292-1.644,22.075-5.775,28.139-7.36a129,129,0,0,1,19.068-3.84c4.772-.708,14.416-2.1,19.19-2.809,4.639-.815,9.651-.88,13.575-3.571,8.275-6.539,7.925-40.265,7.819-51.063a80.926,80.926,0,0,0-2.275-19.05,40.362,40.362,0,0,0-3.93-18.722l-2.47-6.009a.75.75,0,1,1,1.391-.561l2.458,5.978a41.122,41.122,0,0,1,4.027,19.18,63.555,63.555,0,0,1,1.728,9.41c.931,9.709.691,19.451.325,29.181-.59,9.685-1.253,19.711-4.974,28.817-2.9,6.716-11.3,6.88-17.456,7.894l-9.591,1.4c-5.651.825-13.622,1.916-19.134,2.915-10.708,2.476-26.715,6.9-37.511,9.657-2.759-.366-5.5-1.2-8.253-1.414a76.548,76.548,0,0,0-8.03-.247h-8.116c-1.733.081-3.884.047-5.1,1.25a.691.691,0,0,0-.107.219.258.258,0,0,0-.02.111l-.009.058v1.142a.749.749,0,0,1-.149.448l-3.2,4.293.149-.448v2.528a.75.75,0,1,1-1.5,0Z" style="fill:#687581"/><path d="M602.142,160.538c2.012,0,3.643-17.656,3.643-39.434,0-3.659-.046-7.2-.132-10.562" style="fill:none;stroke:#687581;stroke-linecap:round;stroke-linejoin:round;stroke-width:1.5px"/><path d="M492.836,60.172c16.356,0,40.845.608,48.833.819a12.172,12.172,0,0,1,4.957,1.2l5.794,2.8a17.812,17.812,0,0,0,7.258,1.771c6.431.193,19.923.668,32.06,1.549,12.276.89,16.8.941,27.6,1.223,9.03.235,11.175.874,10.812-7.583a120.165,120.165,0,0,0-1.227-13.293,9.643,9.643,0,0,0-6.914-7.633c-4.07-1.208-24.551-4.834-24.551-4.834l.008-1.734a1.3,1.3,0,0,0-1.107-1.289c-6.05-.905-37.209-5.022-103.527-5.022" style="fill:none;stroke:#687581;stroke-linecap:round;stroke-linejoin:round;stroke-width:0.5px"/><path d="M643.975,33.205s-.146,14.374-.528,17.236,0,4.2-2.1,3.053-6.551-3.753-9.031-4.58l-3.39-.254" style="fill:none;stroke:#687581;stroke-linecap:round;stroke-linejoin:round;stroke-width:0.5px"/><path d="M629.44,52.4c-21.547-5.174-29.656-6.8-47.974-7.941s-38.448-2.289-88.63-2.289" style="fill:none;stroke:#687581;stroke-linecap:round;stroke-linejoin:round;stroke-width:0.5px"/><path d="M604.482,37.464l.233,6.933a1,1,0,0,0,.789.946c3.231.7,15.99,3.6,23.936,7.06" style="fill:none;stroke:#687581;stroke-linecap:round;stroke-linejoin:round;stroke-width:0.5px"/><line x1="597.462" y1="36.194" x2="597.462" y2="45.914" style="fill:none;stroke:#687581;stroke-linecap:round;stroke-linejoin:round;stroke-width:0.5px"/><path d="M604.232,45.4l-4.426.83,4.306-1.316a.25.25,0,1,1,.12.486Z" style="fill:#687581"/><path d="M591.738,68.313l.413,3.053s0,22.134-.381,29a81.291,81.291,0,0,1-1.918,13.13" style="fill:none;stroke:#687581;stroke-linecap:round;stroke-linejoin:round;stroke-width:0.5px"/><path d="M558.569,72.225c.363,6.121.652,15.024.859,21.247.346,7.067.106,14.274-1.909,21.112a74.584,74.584,0,0,0,1.41-21.1c-.15-6.249-.37-15.088-.36-21.256Z" style="fill:#687581"/><line x1="492.836" y1="116.206" x2="579.51" y2="116.206" style="fill:none;stroke:#687581;stroke-linecap:round;stroke-linejoin:round;stroke-width:0.5px"/><line x1="646.29" y1="47.969" x2="643.676" y2="46.908" style="fill:none;stroke:#687581;stroke-linecap:round;stroke-linejoin:round;stroke-width:0.5px"/><line x1="629.529" y1="6.597" x2="628.746" y2="5.244" style="fill:none;stroke:#687581;stroke-linecap:round;stroke-linejoin:round;stroke-width:0.5px"/><path d="M643.747,44.914s-3.89-3.062-6.882-5.626-4.772-5.982-5.341-11.68-2-21.011-2-21.011" style="fill:none;stroke:#687581;stroke-linecap:round;stroke-linejoin:round;stroke-width:0.5px"/><path d="M602.907,4.938q.426,3.92.665,7.865c.22,6.823-5.565,12.985-12.334,13.443-11.812-.264-23.6-1.5-35.423-1.885q-15.734-.74-31.482-1.112-15.745-.4-31.5-.448a.25.25,0,0,1,0-.5q15.756-.018,31.512.338,15.753.395,31.494,1.153c11.784.406,23.585,1.641,35.349,1.934a13.094,13.094,0,0,0,11.348-9.115c1.122-3.787.188-7.782.368-11.673Z" style="fill:#687581"/><path d="M575.836,5.489c.207,3.688.364,6.475.364,6.475.321,5.744,5.519,10.684,11.888,11.155,6.576.493,11.907-3.965,11.907-9.95,0-.066-.165-3.027-.379-6.863" style="fill:none;stroke:#687581;stroke-linecap:round;stroke-linejoin:round;stroke-width:0.5px"/><path d="M577.919,4.46c.19,3.467.335,6.092.335,6.092.279,4.99,4.8,9.283,10.33,9.692,5.713.429,10.345-3.445,10.345-8.645,0-.059-.161-3.022-.367-6.792" style="fill:none;stroke:#687581;stroke-linecap:round;stroke-linejoin:round;stroke-width:0.5px"/><path d="M568.587,4.106c.011,2.687.337,5.407-.089,8.078a5.9,5.9,0,0,1-1.394,3.1c-.18.169-.625.514-.8.668a9.8,9.8,0,0,1-2.209.946c-4.586,1.3-23.271-.328-28.243-.283q-21.5-.738-43.015-.806a.25.25,0,1,1,0-.5c7.173-.011,14.348.011,21.521.163,12.419.194,30.413.955,43.01,1.486,11.469.433,11.248-2.721,11.22-12.848Z" style="fill:#687581"/><path d="M594.2,37.573a1.444,1.444,0,0,1-.16-.009c-.023,0-2.394-.266-6.787-.657a1.426,1.426,0,0,1,.252-2.84c4.43.394,6.827.661,6.851.664a1.425,1.425,0,0,1-.156,2.842Zm-202.745-.134a1.426,1.426,0,0,1-.143-2.844c1.356-.139,3.644-.362,6.841-.639a1.425,1.425,0,1,1,.246,2.84c-3.179.276-5.451.5-6.8.636A1.446,1.446,0,0,1,391.458,37.439Zm192.459-.824c-.04,0-.08,0-.121-.005-2-.167-4.271-.348-6.81-.536a1.425,1.425,0,1,1,.21-2.843q3.825.283,6.838.538a1.425,1.425,0,0,1-.117,2.846ZM401.746,36.51a1.425,1.425,0,0,1-.114-2.846q3.043-.249,6.837-.527a1.426,1.426,0,0,1,.207,2.844q-3.774.274-6.813.525C401.824,36.508,401.785,36.51,401.746,36.51Zm171.875-.683-.1,0q-3.183-.224-6.819-.452a1.426,1.426,0,0,1,.178-2.846q3.644.228,6.84.454a1.425,1.425,0,0,1-.1,2.847Zm-161.579-.088a1.426,1.426,0,0,1-.1-2.848q3.206-.219,6.841-.444a1.426,1.426,0,1,1,.174,2.846q-3.623.222-6.82.443Q412.092,35.739,412.042,35.739Zm151.276-.576c-.029,0-.057,0-.086,0q-3.256-.194-6.824-.381a1.425,1.425,0,1,1,.149-2.847q3.576.188,6.844.381a1.426,1.426,0,0,1-.083,2.849Zm-140.972-.075a1.425,1.425,0,0,1-.081-2.848q3.272-.189,6.843-.373a1.425,1.425,0,1,1,.146,2.847q-3.56.183-6.824.372C422.4,35.088,422.373,35.088,422.346,35.088ZM553.009,34.6c-.024,0-.047,0-.071,0q-3.3-.162-6.829-.315a1.426,1.426,0,0,1-1.363-1.485,1.444,1.444,0,0,1,1.486-1.364q3.54.153,6.846.317a1.425,1.425,0,0,1-.069,2.849Zm-120.353-.062a1.425,1.425,0,0,1-.068-2.849q3.31-.159,6.846-.309a1.426,1.426,0,1,1,.12,2.849q-3.526.148-6.829.308Zm110.04-.4h-.059q-3.322-.135-6.831-.255a1.425,1.425,0,1,1,.1-2.849q3.516.12,6.848.255a1.426,1.426,0,0,1-.056,2.85Zm-99.727-.051a1.426,1.426,0,0,1-.054-2.85q3.333-.129,6.848-.248a1.426,1.426,0,1,1,.094,2.85q-3.506.117-6.832.247Zm89.409-.318h-.045q-3.34-.1-6.834-.2a1.426,1.426,0,0,1,.037-2.851h.038q3.5.091,6.849.2a1.426,1.426,0,0,1-.045,2.851Zm-79.092-.04a1.425,1.425,0,0,1-.043-2.85q3.349-.1,6.85-.189h.036a1.426,1.426,0,0,1,.035,2.851q-3.492.086-6.834.189Zm68.773-.242h-.033q-3.352-.078-6.835-.139a1.426,1.426,0,0,1,.025-2.851h.025q3.49.063,6.851.14a1.426,1.426,0,0,1-.033,2.851Zm-58.453-.029a1.426,1.426,0,0,1-.031-2.851q3.361-.073,6.851-.133h.024a1.426,1.426,0,0,1,.024,2.851q-3.481.059-6.836.132Zm48.132-.167h-.022q-3.361-.051-6.836-.084a1.426,1.426,0,0,1,.014-2.852h.014q3.481.035,6.851.085a1.426,1.426,0,0,1-.021,2.851Zm-37.811-.019a1.426,1.426,0,0,1-.019-2.851q3.369-.048,6.851-.078h.012a1.426,1.426,0,0,1,.012,2.851q-3.472.03-6.835.078Zm22.595-2.971q2.477.008,4.9.025a1.426,1.426,0,0,1-.01,2.851h-.01q-2.64-.018-5.339-.026m-6.038,0q-2.919,0-5.77.022h-.009a1.426,1.426,0,0,1-.009-2.851q2.678-.016,5.416-.022" style="fill:none;stroke:#687581;stroke-linecap:round;stroke-linejoin:round;stroke-width:0.5px"/><path d="M588.848,40.472c-.04,0-.082,0-.123-.005-1.825-.156-4.1-.342-6.808-.546a1.426,1.426,0,1,1,.214-2.843c2.717.2,5,.392,6.837.548a1.426,1.426,0,0,1-.12,2.846ZM396.381,40.4a1.426,1.426,0,0,1-.118-2.846c1.876-.158,4.162-.341,6.838-.54a1.425,1.425,0,0,1,.211,2.843c-2.665.2-4.941.381-6.81.538C396.462,40.4,396.421,40.4,396.381,40.4Zm182.174-.73-.1,0q-3.118-.222-6.817-.458A1.425,1.425,0,0,1,570.3,37.7a1.441,1.441,0,0,1,1.513-1.333q3.706.234,6.84.459a1.425,1.425,0,0,1-.1,2.847Zm-171.881-.059a1.425,1.425,0,0,1-.1-2.847q3.144-.221,6.84-.453a1.425,1.425,0,1,1,.178,2.845q-3.681.231-6.818.452ZM568.253,39a.833.833,0,0,1-.086,0q-3.23-.192-6.824-.386a1.426,1.426,0,1,1,.152-2.847q3.6.192,6.842.388A1.425,1.425,0,0,1,568.253,39Zm-151.276-.05A1.426,1.426,0,0,1,416.9,36.1q3.243-.191,6.841-.382a1.426,1.426,0,0,1,.151,2.847q-3.588.189-6.825.381C417.034,38.948,417.005,38.949,416.977,38.949Zm140.969-.517-.073,0q-3.282-.165-6.828-.324a1.425,1.425,0,0,1,.127-2.848q3.553.159,6.844.324a1.426,1.426,0,0,1-.07,2.85Zm-130.662-.041a1.426,1.426,0,0,1-.069-2.85q3.293-.162,6.844-.319a1.425,1.425,0,1,1,.125,2.848q-3.543.155-6.828.319Zm120.35-.432h-.06q-3.312-.138-6.83-.265a1.425,1.425,0,0,1,.1-2.848q3.525.126,6.846.264a1.426,1.426,0,0,1-.058,2.85ZM437.6,37.925a1.426,1.426,0,0,1-.057-2.85q3.32-.136,6.846-.26l.051,0a1.425,1.425,0,0,1,.049,2.85q-3.516.125-6.83.26Zm99.721-.351h-.048q-3.333-.111-6.833-.209a1.426,1.426,0,0,1,.079-2.85q3.508.1,6.849.209a1.426,1.426,0,0,1-.047,2.851Zm-89.407-.027a1.426,1.426,0,0,1-.045-2.851q3.34-.108,6.848-.2h.039a1.426,1.426,0,0,1,.039,2.851q-3.5.095-6.833.2ZM527,37.272h-.036q-3.348-.084-6.836-.155a1.426,1.426,0,0,1,.029-2.851h.029q3.5.07,6.849.155a1.425,1.425,0,0,1-.035,2.85Zm-68.77-.02A1.426,1.426,0,0,1,458.2,34.4q3.355-.083,6.849-.152a1.445,1.445,0,0,1,1.453,1.4,1.424,1.424,0,0,1-1.4,1.453q-3.486.069-6.835.151Zm58.45-.2h-.025q-3.358-.06-6.836-.1a1.426,1.426,0,0,1,.018-2.851h.018q3.485.045,6.85.1a1.426,1.426,0,0,1-.025,2.851Zm-48.13-.015a1.426,1.426,0,0,1-.024-2.851q3.364-.057,6.85-.1a1.426,1.426,0,1,1,.034,2.851q-3.477.042-6.836.1Zm37.809-.128h-.015q-3.366-.035-6.836-.052a1.426,1.426,0,0,1,.007-2.851h.008q3.476.018,6.85.052a1.426,1.426,0,0,1-.014,2.851ZM478.873,36.9a1.426,1.426,0,0,1-.014-2.851q3.374-.032,6.85-.048h.007a1.426,1.426,0,0,1,.006,2.851q-3.469.017-6.836.048Zm17.061-2.908h.108a1.426,1.426,0,0,1,0,2.852h0c-2.259-.007-4.568-.008-6.836,0h0a1.426,1.426,0,0,1,0-2.851l.949,0" style="fill:none;stroke:#687581;stroke-linecap:round;stroke-linejoin:round;stroke-width:0.5px"/><path d="M594.2,44.632a1.416,1.416,0,0,1-.144-.007c-.023,0-2.4-.238-6.8-.589a1.426,1.426,0,0,1,.228-2.842c4.431.353,6.829.592,6.853.595a1.425,1.425,0,0,1-.14,2.843Zm-202.795-.115a1.425,1.425,0,0,1-.129-2.845c1.344-.123,3.622-.323,6.844-.574a1.425,1.425,0,1,1,.222,2.842c-3.206.25-5.47.448-6.805.571C391.5,44.515,391.451,44.517,391.408,44.517Zm192.5-.744c-.036,0-.072,0-.108,0q-3-.225-6.817-.481a1.425,1.425,0,1,1,.189-2.844q3.826.253,6.841.481a1.426,1.426,0,0,1-.105,2.848ZM401.7,43.682a1.425,1.425,0,0,1-.1-2.847q3.045-.222,6.841-.472a1.443,1.443,0,0,1,1.515,1.33,1.427,1.427,0,0,1-1.33,1.516q-3.779.244-6.817.47Zm171.9-.614-.091,0q-3.184-.2-6.823-.405a1.426,1.426,0,0,1,.159-2.847q3.647.2,6.844.406a1.426,1.426,0,0,1-.089,2.849ZM412,42.992a1.425,1.425,0,0,1-.086-2.848q3.206-.2,6.842-.4a1.426,1.426,0,1,1,.157,2.847q-3.624.2-6.824.4Zm151.295-.52c-.026,0-.051,0-.077,0q-3.258-.172-6.827-.341a1.425,1.425,0,1,1,.134-2.847q3.576.168,6.844.342a1.425,1.425,0,0,1-.074,2.848Zm-140.986-.064a1.425,1.425,0,0,1-.073-2.849q3.273-.169,6.845-.334a1.425,1.425,0,0,1,.13,2.848q-3.561.164-6.827.334Zm130.674-.436h-.064q-3.3-.145-6.83-.283a1.426,1.426,0,1,1,.11-2.849q3.539.136,6.846.284a1.425,1.425,0,0,1-.062,2.849Zm-120.363-.053a1.426,1.426,0,0,1-.06-2.85q3.31-.143,6.847-.276a1.441,1.441,0,0,1,1.478,1.371,1.426,1.426,0,0,1-1.371,1.478q-3.526.132-6.831.276Zm110.048-.359h-.053q-3.323-.12-6.832-.228a1.426,1.426,0,1,1,.087-2.85q3.516.108,6.848.229a1.425,1.425,0,0,1-.05,2.85Zm-99.732-.044a1.425,1.425,0,0,1-.049-2.85q3.333-.117,6.849-.222a1.426,1.426,0,1,1,.084,2.85q-3.505.105-6.833.221Zm89.413-.287h-.04q-3.342-.095-6.835-.176a1.425,1.425,0,1,1,.066-2.85q3.5.081,6.849.176a1.425,1.425,0,0,1-.04,2.85ZM453.259,41.2a1.425,1.425,0,0,1-.038-2.85q3.348-.091,6.849-.17h.032a1.425,1.425,0,0,1,.031,2.85q-3.492.078-6.834.17Zm68.774-.218H522q-3.353-.069-6.836-.124A1.426,1.426,0,0,1,515.189,38h.023q3.49.056,6.85.125a1.426,1.426,0,0,1-.029,2.851Zm-58.454-.025a1.426,1.426,0,0,1-.028-2.851q3.361-.066,6.85-.119h.022a1.426,1.426,0,0,1,.021,2.851q-3.482.053-6.837.119Zm48.133-.151h-.02q-3.361-.045-6.837-.075a1.426,1.426,0,0,1,.013-2.851h.012q3.482.03,6.85.075a1.426,1.426,0,0,1-.018,2.851ZM473.9,40.786a1.426,1.426,0,0,1-.017-2.851q3.371-.042,6.85-.07h.011a1.426,1.426,0,0,1,.011,2.851q-3.472.027-6.837.07Zm27.489-.086h-.009q-3.369-.021-6.836-.027a1.426,1.426,0,0,1,0-2.851h0q3.472.006,6.85.027a1.426,1.426,0,0,1-.009,2.851Zm-17.166-.007a1.426,1.426,0,0,1-.007-2.851q3.376-.019,6.85-.022h0a1.426,1.426,0,0,1,0,2.851q-3.466,0-6.837.022Z" style="fill:none;stroke:#687581;stroke-linecap:round;stroke-linejoin:round;stroke-width:0.5px"/><path d="M489.376,28.151,490.14,34a.837.837,0,0,0,.831.73h4.13a.838.838,0,0,0,.828-.706l.937-5.871" style="fill:none;stroke:#687581;stroke-linecap:round;stroke-linejoin:round;stroke-width:0.5px"/><circle cx="493.015" cy="30.568" r="1.288" style="fill:none;stroke:#687581;stroke-linecap:round;stroke-linejoin:round;stroke-width:0.5px"/><path d="M427.9,76.454c2.38,11.8,4.186,24.116,1.4,36,2.112-11.981.316-24.089-1.4-36Z" style="fill:#687581"/><path d="M557.774,76.454c-1.715,11.911-3.511,24.019-1.4,36-2.787-11.885-.981-24.2,1.4-36Z" style="fill:#687581"/><path d="M394.971,71.281c6.981-.841,17.3-1.147,24.435-1.548,24.459-1.135,48.944-1.748,73.43-1.67a.25.25,0,0,1,.249.251c-16.035.787-32.894.307-49.195,1.034-16.052.328-32.858,1.56-48.919,1.933Z" style="fill:#687581"/><path d="M353.068,49.9c-.334,5.012-.856,10.015-1.08,15.022-.855,6.527,5.577,6.739,10.408,6.96,10.045.595,20.066-.484,30.1-.456-4.98.768-10.019.748-15.039,1.035-5.022.2-10.063.242-15.086-.016-3.518-.292-8.461-.125-10.4-3.728a8.173,8.173,0,0,1-.439-3.817c.366-5.02.894-10.011,1.533-15Z" style="fill:#687581"/><path d="M632.031,47.42C630.14,40.3,626.514,37.7,619.548,36.1A279.52,279.52,0,0,0,583.7,30.2c-30.187-3.106-61.083-2.963-91.117-3.774a798.689,798.689,0,0,1,100.221,4.246,268.96,268.96,0,0,1,26.874,4.918c6.923,1.541,11.009,4.584,12.351,11.828Z" style="fill:#687581"/><path d="M590.123,71.247c-15.971-.37-32.67-1.582-48.63-1.908-16.2-.723-32.974-.237-48.907-1.025a.251.251,0,0,1,.25-.251c32.263.074,65.115.637,97.287,3.184Z" style="fill:#687581"/><path d="M632.6,49.9c.625,4.889,1.139,9.782,1.511,14.7a9.53,9.53,0,0,1-.277,3.747c-1.547,3.8-6.473,3.761-9.938,4.071-4.921.262-9.862.253-14.785.069-4.923-.228-9.853-.307-14.742-.99,9.84.015,19.659.957,29.5.364,5.028-.276,10.684-.646,9.8-7.237-.233-4.908-.737-9.811-1.069-14.723Z" style="fill:#687581"/><path d="M343.406,94.9c3.086,7.641,8.794,7.805,16.014,8.6,4.132.439,15.26,1.466,19.538,1.858,3.806.422,9.3.615,13.017,1.384-3.772.166-9.248-.6-13.066-.832-6.28-.51-13.247-1.193-19.546-1.9-7.248-.837-13.289-1.179-15.957-9.113Z" style="fill:#687581"/><path d="M642.265,94.9c-2.612,7.67-8.213,8.234-15.318,9.041-6.1.691-12.819,1.362-18.9,1.858-3.7.226-8.965.977-12.638.8,3.571-.762,8.911-.942,12.589-1.357,4.19-.387,14.855-1.379,18.9-1.812,7.078-.765,12.355-1.147,15.375-8.534Z" style="fill:#687581"/></g><g id="bfa83783-c151-495f-819f-52eb9d8fe96f" data-name="arrows/icons"><path d="M492.739,46.086c-2.366,0-4.3-2.337-4.393-5.322l-.3-9.05a7.558,7.558,0,0,1,1.833-5.437,3.939,3.939,0,0,1,2.856-1.285,1.435,1.435,0,1,1,0,2.869,1.141,1.141,0,0,0-.795.411,4.821,4.821,0,0,0-1.027,3.348l.3,9.05c.049,1.5.843,2.547,1.525,2.547a1.435,1.435,0,1,1,0,2.869Z" style="fill:#141b21"/><path d="M492.739,46.086c-2.366,0-4.3-2.337-4.393-5.322l-.3-9.05a7.558,7.558,0,0,1,1.833-5.437,3.939,3.939,0,0,1,2.856-1.285,1.435,1.435,0,1,1,0,2.869,1.141,1.141,0,0,0-.795.411,4.821,4.821,0,0,0-1.027,3.348l.3,9.05c.049,1.5.843,2.547,1.525,2.547a1.435,1.435,0,1,1,0,2.869Z" style="fill:none;stroke:#141b21;stroke-linecap:round;stroke-linejoin:round"/><path d="M492.516,58.334c-2.831,0-5.245-1.51-5.87-3.671l-2.088-7.223a5.1,5.1,0,0,1-.2-1.418c0-3.526,3.661-6.395,8.16-6.395s8.16,2.869,8.16,6.395a5.1,5.1,0,0,1-.2,1.418l-2.088,7.222C497.762,56.824,495.348,58.334,492.516,58.334Zm0-15.6c-2.829,0-5.132,1.631-5.132,3.637a2.654,2.654,0,0,0,.127.808l2.036,6.367a3.467,3.467,0,0,0,5.939,0h0l2.035-6.367a2.654,2.654,0,0,0,.127-.808C497.648,44.367,495.346,42.736,492.516,42.736Z" style="fill:#141b21;stroke:#141b21;stroke-linecap:round;stroke-linejoin:round"/><path d="M492.739,43.217c.682,0,1.476-1.046,1.525-2.547l.3-9.05a4.814,4.814,0,0,0-1.027-3.348,1.139,1.139,0,0,0-.794-.411V24.992a3.935,3.935,0,0,1,2.855,1.285,7.552,7.552,0,0,1,1.834,5.437l-.3,9.05c-.1,2.985-2.028,5.322-4.393,5.322Z" style="fill:#141b21"/><path d="M492.739,43.217c.682,0,1.476-1.046,1.525-2.547l.3-9.05a4.814,4.814,0,0,0-1.027-3.348,1.139,1.139,0,0,0-.794-.411" style="fill:none;stroke:#141b21;stroke-linecap:round;stroke-linejoin:round"/><path d="M492.739,24.992a3.935,3.935,0,0,1,2.855,1.285,7.552,7.552,0,0,1,1.834,5.437l-.3,9.05c-.1,2.985-2.028,5.322-4.393,5.322" style="fill:none;stroke:#141b21;stroke-linecap:round;stroke-linejoin:round"/><path d="M431.1,130.594a24.851,24.851,0,0,1-.265,3.621,24.167,24.167,0,1,1,.265-3.621Z" style="fill:none;stroke:#141b21;stroke-linecap:round;stroke-linejoin:round;stroke-width:5px"/><path d="M431.1,130.594a24.851,24.851,0,0,1-.265,3.621,24.167,24.167,0,1,1,.265-3.621Z" style="fill:none;stroke:#f4ae3d;stroke-miterlimit:10;stroke-width:1.5px"/><path d="M554.477,130.594a24.851,24.851,0,0,0,.265,3.621,24.167,24.167,0,1,0-.265-3.621Z" style="fill:none;stroke:#141b21;stroke-linecap:round;stroke-linejoin:round;stroke-width:5px"/><path d="M554.477,130.594a24.851,24.851,0,0,0,.265,3.621,24.167,24.167,0,1,0-.265-3.621Z" style="fill:none;stroke:#f4ae3d;stroke-miterlimit:10;stroke-width:1.5px"/><polygon points="488.903 51.037 401.582 131.202 408.673 127.862 492.428 54.668 488.903 51.037" style="fill:#f4ae3d;stroke:#141b21;stroke-linecap:round;stroke-linejoin:round"/><path d="M401.823,136.766c4.992-5,7.53-7.329,10.054-12.381l4.382-1.739c.117-.017-3.843,7.741-6.4,10.016C407.532,134.735,401.823,136.766,401.823,136.766Z" style="fill:#f4ae3d;stroke:#141b21;stroke-linecap:round;stroke-linejoin:round"/><polyline points="411.4 125.306 411.465 123.088 417.67 121.563 415.384 124.424 415.887 123.455 411.651 124.829 411.43 125.428" style="fill:#141b21;stroke:#141b21;stroke-linecap:round;stroke-linejoin:round"/><path d="M414.7,122.59s-.1-4.908,2.159-3.974C419.733,119.8,414.7,122.59,414.7,122.59Z" style="fill:#141b21;stroke:#141b21;stroke-linecap:round;stroke-linejoin:round"/><polygon points="496.13 51.037 583.451 131.202 576.36 127.862 492.604 54.668 496.13 51.037" style="fill:#f4ae3d;stroke:#141b21;stroke-linecap:round;stroke-linejoin:round"/><path d="M583.21,136.766c-4.992-5-7.531-7.329-10.054-12.381l-4.383-1.739c-.116-.017,3.844,7.741,6.4,10.016C577.5,134.735,583.21,136.766,583.21,136.766Z" style="fill:#f4ae3d;stroke:#141b21;stroke-linecap:round;stroke-linejoin:round"/><polyline points="573.632 125.306 573.568 123.088 567.362 121.563 569.649 124.424 569.145 123.455 573.381 124.829 573.603 125.428" style="fill:#141b21;stroke:#141b21;stroke-linecap:round;stroke-linejoin:round"/><path d="M570.333,122.59s.1-4.908-2.158-3.974C565.3,119.8,570.333,122.59,570.333,122.59Z" style="fill:#141b21;stroke:#141b21;stroke-linecap:round;stroke-linejoin:round"/><path d="M100.251,130.594a24.851,24.851,0,0,1-.265,3.621,24.167,24.167,0,1,1,.265-3.621Z" style="fill:none;stroke:#141b21;stroke-linecap:round;stroke-linejoin:round;stroke-width:5px"/><path d="M100.251,130.594a24.851,24.851,0,0,1-.265,3.621,24.167,24.167,0,1,1,.265-3.621Z" style="fill:none;stroke:#f4ae3d;stroke-miterlimit:10;stroke-width:1.5px"/><path d="M223.628,130.594a24.712,24.712,0,0,0,.265,3.621,24.167,24.167,0,1,0-.265-3.621Z" style="fill:none;stroke:#141b21;stroke-linecap:round;stroke-linejoin:round;stroke-width:5px"/><path d="M223.628,130.594a24.712,24.712,0,0,0,.265,3.621,24.167,24.167,0,1,0-.265-3.621Z" style="fill:none;stroke:#f4ae3d;stroke-miterlimit:10;stroke-width:1.5px"/><path d="M117.2,46.236s-40.438,84.872-41.023,87.315,3.047,2.985,3.563.946,44.038-88.7,44.038-88.7" style="fill:url(#b13282d4-a327-491c-bc14-92a8da4c3fc1)"/><path d="M117.2,46.236C105.064,74.4,89.366,105.1,76.97,133.167a1.248,1.248,0,0,0,1.554,1.882c.832-.374.869-1.557,1.318-2.262l1.361-2.843,2.77-5.647c12.859-25.59,26.236-53.366,39.8-78.5-13.409,28.84-29.168,58.728-42.861,87.49l-.592,1.337a2.218,2.218,0,0,1-1.357,1.537,2.506,2.506,0,0,1-3.367-1.5c-.319-1.2.477-2.315.87-3.359,4.675-10.4,13.742-29.36,18.68-39.862,6.4-13.28,15.115-32.394,22.049-45.2Z" style="fill:#141b21"/><path d="M117.2,46.236s-40.61,86.552-41.037,89.027-3.978,1.54-3.647-.538S112.6,45.64,112.6,45.64" style="fill:url(#ad8c76e3-4f42-4353-ad38-3dcd1ec23bbb)"/><path d="M117.2,46.236C105.11,74.521,90.5,103.931,78,132.1c-.409.951-.866,1.944-1.184,2.826-.2.363-.248,1.147-.745,1.644a2.457,2.457,0,0,1-3.554-.184c-.989-1.036-.3-2.389.137-3.461l.617-1.452c8.682-20.049,19.317-43.131,28.422-63.136,3.514-7.619,7.056-15.227,10.9-22.7-3.126,7.8-6.545,15.459-9.982,23.114-8.539,18.967-20.086,44.164-28.4,63.118l-.617,1.443c-.25.789-.958,1.679-.321,2.4a1.475,1.475,0,0,0,2.057.172c.571-1.082,1.122-2.986,1.738-4.19,12.96-28.617,25.94-57.439,40.122-85.462Z" style="fill:#141b21"/><path d="M75.8,126.184c-.329.949-.479,2.552,2.587,3.662s3.984-.735,4.445-1.752.918-2.035.918-2.035c.15,1.651.427,4.1-.741,5.79-1,1.456-2.8,2.288-5.486,1.469-3.229-.985-4.315-2.672-4.252-4.387a6.747,6.747,0,0,1,3.536-5.225Z" style="stroke:#141b21;stroke-linecap:round;stroke-linejoin:round;fill:url(#a77693a4-d6f2-417a-bb37-8e38c7774764)"/><path d="M207.041,46.236s40.438,84.872,41.023,87.315-3.047,2.985-3.563.946-44.038-88.7-44.038-88.7" style="fill:url(#b58b9999-64f4-4871-a810-bd3189b4c886)"/><path d="M207.041,46.236c6.9,12.729,15.674,31.957,22.05,45.2,4.973,10.585,13.967,29.382,18.679,39.862.394,1.045,1.188,2.156.87,3.359a2.507,2.507,0,0,1-3.367,1.5,2.218,2.218,0,0,1-1.357-1.537l-.592-1.337c-13.7-28.774-29.444-58.635-42.861-87.49,13.554,25.112,26.952,52.93,39.8,78.5l2.769,5.647,1.362,2.843c.451.71.483,1.882,1.318,2.262a1.583,1.583,0,0,0,1.1,0c.822-.362.858-1.054.454-1.879-.977-2.377-2.108-4.752-3.175-7.106l-5.289-11.4c-9.756-21.231-22.627-47.046-31.763-68.423Z" style="fill:#141b21"/><path d="M207.041,46.236s40.61,86.552,41.037,89.027,3.978,1.54,3.647-.538S211.642,45.64,211.642,45.64" style="fill:url(#a766ec37-c2f1-4669-b50b-c8ef099ab368)"/><path d="M207.041,46.236c14.181,28.02,27.163,56.848,40.123,85.461.616,1.207,1.166,3.109,1.737,4.191a1.476,1.476,0,0,0,2.057-.172c.638-.719-.074-1.618-.321-2.4l-.617-1.443c-8.3-18.92-19.875-44.192-28.4-63.118-3.437-7.655-6.856-15.317-9.982-23.114,3.844,7.469,7.386,15.077,10.9,22.7,9.125,20.053,19.723,43.048,28.422,63.136.516,1.5,2.038,3.576.754,4.913a2.456,2.456,0,0,1-3.554.184c-.5-.5-.544-1.281-.745-1.644-.318-.882-.775-1.875-1.184-2.826-12.5-28.182-27.1-57.56-39.194-85.863Z" style="fill:#141b21"/><path d="M248.442,126.184c.329.949.479,2.552-2.587,3.662s-3.984-.735-4.445-1.752-.918-2.035-.918-2.035c-.151,1.651-.427,4.1.741,5.79,1,1.456,2.8,2.288,5.486,1.469,3.228-.985,4.315-2.672,4.252-4.387a6.747,6.747,0,0,0-3.536-5.225Z" style="stroke:#141b21;stroke-linecap:round;stroke-linejoin:round;fill:url(#fb57715f-8323-4762-a36a-42b5474a6e0c)"/></g></svg>