<svg xmlns="http://www.w3.org/2000/svg" width="650" height="215.411" viewBox="0 0 650 215.411"><g id="b6c2c287-7b08-490a-961b-85576dd0a05b" data-name="below"><polygon points="290.058 103.396 294.383 108.55 206.291 97.106 207.226 92.646 290.058 103.396" style="fill:#f4ae3d;stroke:#12171d;stroke-linecap:round;stroke-linejoin:round"/><line x1="62.185" y1="64.064" x2="199.559" y2="93.429" style="fill:none;stroke:#687581;stroke-linecap:round;stroke-linejoin:round"/><path d="M210.507,95.516a3.136,3.136,0,0,1-3.651,2.52l-.622-.114a5.24,5.24,0,0,1-2.264-1.01l-4.479-3.462,5.415-1.65a5.256,5.256,0,0,1,2.476-.142l.622.114a3.137,3.137,0,0,1,2.52,3.651Z" style="fill:none;stroke:#687581;stroke-linecap:round;stroke-linejoin:round"/><path d="M301.284,115.311a32.15,32.15,0,0,0,5.458,2.141l.99,1.311L206.348,96.832l.821-3.912,89.137,18.071A20.535,20.535,0,0,0,301.284,115.311Z" style="fill:#f4ae3d;stroke:#12171d;stroke-linecap:round;stroke-linejoin:round"/><line x1="28.014" y1="68.88" x2="12.105" y2="69.092" style="fill:none;stroke:#687581;stroke-linecap:round;stroke-linejoin:round"/><line x1="316.507" y1="138.708" x2="70.423" y2="72.638" style="fill:none;stroke:#687581;stroke-linecap:round;stroke-linejoin:round"/><polyline points="530.868 208.094 485.401 184.054 357.872 149.814" style="fill:none;stroke:#687581;stroke-linecap:round;stroke-linejoin:round"/><polygon points="509.607 213.179 9.41 79.151 12.105 69.092 530.868 208.094 529.52 213.123 509.607 213.179" style="fill:none;stroke:#687581;stroke-linecap:round;stroke-linejoin:round"/><circle cx="23.668" cy="77.676" r="2.678" style="fill:none;stroke:#687581;stroke-linecap:round;stroke-linejoin:round"/><circle cx="490.108" cy="202.658" r="2.678" style="fill:none;stroke:#687581;stroke-linecap:round;stroke-linejoin:round"/><path d="M505,205.368a1.676,1.676,0,0,1-2.053,1.186l-4.2-1.126a1.676,1.676,0,1,1,.868-3.238l4.2,1.125A1.676,1.676,0,0,1,505,205.368Z" style="fill:none;stroke:#687581;stroke-linecap:round;stroke-linejoin:round"/><rect x="425.087" y="184.778" width="12.392" height="3.748" transform="matrix(0.966, 0.259, -0.259, 0.966, 63.005, -105.264)" style="fill:none;stroke:#687581;stroke-linecap:round;stroke-linejoin:round;stroke-width:0.5px"/><rect x="413.117" y="181.571" width="12.392" height="3.748" transform="translate(61.767 -102.275) rotate(15)" style="fill:none;stroke:#687581;stroke-linecap:round;stroke-linejoin:round;stroke-width:0.5px"/><rect x="340.915" y="162.224" width="12.392" height="3.748" transform="translate(54.299 -84.247) rotate(15)" style="fill:none;stroke:#687581;stroke-linecap:round;stroke-linejoin:round;stroke-width:0.5px"/><rect x="328.945" y="159.017" width="12.392" height="3.748" transform="matrix(0.966, 0.259, -0.259, 0.966, 53.061, -81.259)" style="fill:none;stroke:#687581;stroke-linecap:round;stroke-linejoin:round;stroke-width:0.5px"/><rect x="256.742" y="139.67" width="12.392" height="3.748" transform="translate(45.594 -63.23) rotate(15)" style="fill:none;stroke:#687581;stroke-linecap:round;stroke-linejoin:round;stroke-width:0.5px"/><rect x="244.773" y="136.463" width="12.392" height="3.748" transform="matrix(0.966, 0.259, -0.259, 0.966, 44.356, -60.242)" style="fill:none;stroke:#687581;stroke-linecap:round;stroke-linejoin:round;stroke-width:0.5px"/><rect x="172.57" y="117.117" width="12.392" height="3.748" transform="translate(36.888 -42.214) rotate(15)" style="fill:none;stroke:#687581;stroke-linecap:round;stroke-linejoin:round;stroke-width:0.5px"/><rect x="160.601" y="113.909" width="12.392" height="3.748" transform="translate(35.65 -39.225) rotate(15)" style="fill:none;stroke:#687581;stroke-linecap:round;stroke-linejoin:round;stroke-width:0.5px"/><rect x="88.398" y="94.563" width="12.392" height="3.748" transform="translate(28.183 -21.197) rotate(15)" style="fill:none;stroke:#687581;stroke-linecap:round;stroke-linejoin:round;stroke-width:0.5px"/><rect x="76.429" y="91.356" width="12.392" height="3.748" transform="matrix(0.966, 0.259, -0.259, 0.966, 26.945, -18.208)" style="fill:none;stroke:#687581;stroke-linecap:round;stroke-linejoin:round;stroke-width:0.5px"/><polygon points="17.241 126.42 17.241 189.063 20.185 189.063 24.599 181.198 24.599 122.129 21.656 122.129 17.241 126.42" style="fill:none;stroke:#687581;stroke-linecap:round;stroke-linejoin:round"/><polyline points="24.599 155.193 31.904 155.248 153.67 145.761 171.187 142.629 171.187 122.445" style="fill:none;stroke:#687581;stroke-linecap:round;stroke-linejoin:round"/><line x1="7.544" y1="155.193" x2="17.241" y2="155.193" style="fill:none;stroke:#687581;stroke-linecap:round;stroke-linejoin:round"/><polygon points="150.495 123.446 150.495 142.286 161.151 142.286 164.111 141.475 164.111 122.634 153.454 122.634 150.495 123.446" style="fill:none;stroke:#687581;stroke-linecap:round;stroke-linejoin:round"/><line x1="158.107" y1="123.446" x2="158.107" y2="142.286" style="fill:none;stroke:#687581;stroke-linecap:round;stroke-linejoin:round;stroke-width:0.5000000000025px"/><line x1="161.151" y1="123.446" x2="161.151" y2="142.286" style="fill:none;stroke:#687581;stroke-linecap:round;stroke-linejoin:round;stroke-width:0.5000000000025px"/><path d="M32.928,125.005a4.841,4.841,0,0,0-2.343,4.149v12.79a4.842,4.842,0,0,0,4.842,4.842H65.565a4.834,4.834,0,0,0,3.812-1.856" style="fill:none;stroke:#687581;stroke-linecap:round;stroke-linejoin:round"/><path d="M69.377,144.93a4.821,4.821,0,0,0,1.03-2.986v-12.79a4.842,4.842,0,0,0-4.842-4.842H35.427a4.825,4.825,0,0,0-2.5.693" style="fill:none;stroke:#687581;stroke-miterlimit:10;stroke-width:0.5000000000025px"/><rect x="41.23" y="117.235" width="18.532" height="36.629" rx="3.037" transform="translate(186.045 85.053) rotate(90)" style="fill:none;stroke:#687581;stroke-miterlimit:10;stroke-width:0.5000000000025px"/><line x1="61.149" y1="136.578" x2="61.149" y2="140.435" style="fill:none;stroke:#687581;stroke-linecap:round;stroke-linejoin:round;stroke-width:0.5000000000025px"/><line x1="61.149" y1="130.58" x2="61.149" y2="133.866" style="fill:none;stroke:#687581;stroke-linecap:round;stroke-linejoin:round;stroke-width:0.5000000000025px"/><circle cx="61.149" cy="135.222" r="1.356" style="fill:none;stroke:#687581;stroke-linecap:round;stroke-linejoin:round;stroke-width:0.5000000000025px"/><line x1="53.633" y1="136.578" x2="53.633" y2="140.435" style="fill:none;stroke:#687581;stroke-linecap:round;stroke-linejoin:round;stroke-width:0.5000000000025px"/><line x1="53.633" y1="130.58" x2="53.633" y2="133.866" style="fill:none;stroke:#687581;stroke-linecap:round;stroke-linejoin:round;stroke-width:0.5000000000025px"/><circle cx="53.633" cy="135.222" r="1.356" style="fill:none;stroke:#687581;stroke-linecap:round;stroke-linejoin:round;stroke-width:0.5000000000025px"/><line x1="46.118" y1="136.578" x2="46.118" y2="140.435" style="fill:none;stroke:#687581;stroke-linecap:round;stroke-linejoin:round;stroke-width:0.5000000000025px"/><line x1="46.118" y1="130.58" x2="46.118" y2="133.866" style="fill:none;stroke:#687581;stroke-linecap:round;stroke-linejoin:round;stroke-width:0.5000000000025px"/><circle cx="46.118" cy="135.222" r="1.356" style="fill:none;stroke:#687581;stroke-linecap:round;stroke-linejoin:round;stroke-width:0.5000000000025px"/><line x1="38.603" y1="136.578" x2="38.603" y2="140.435" style="fill:none;stroke:#687581;stroke-linecap:round;stroke-linejoin:round;stroke-width:0.5000000000025px"/><line x1="38.603" y1="130.58" x2="38.603" y2="133.866" style="fill:none;stroke:#687581;stroke-linecap:round;stroke-linejoin:round;stroke-width:0.5000000000025px"/><circle cx="38.603" cy="135.222" r="1.356" style="fill:none;stroke:#687581;stroke-linecap:round;stroke-linejoin:round;stroke-width:0.5000000000025px"/><path d="M69.377,144.93l2.4-3.063h0A4.634,4.634,0,0,0,72.771,139V126.7a4.656,4.656,0,0,0-4.656-4.656H39.136a4.635,4.635,0,0,0-2.4.667h0l-3.806,2.3" style="fill:none;stroke:#687581;stroke-linecap:round;stroke-linejoin:round"/><line x1="153.67" y1="117.806" x2="7.986" y2="117.806" style="fill:none;stroke:#687581;stroke-linecap:round;stroke-linejoin:round;stroke-width:0.5px"/><line x1="153.67" y1="122.634" x2="153.67" y2="117.806" style="fill:none;stroke:#687581;stroke-linecap:round;stroke-linejoin:round;stroke-width:0.5px"/><line x1="129.1" y1="111.222" x2="34.643" y2="111.222" style="fill:none;stroke:#687581;stroke-linecap:round;stroke-linejoin:round"/><path d="M45.2,46.125A13.4,13.4,0,0,1,57.364,63.016L53.839,75.929" style="fill:none;stroke:#687581;stroke-linecap:round;stroke-linejoin:round;stroke-width:0.5px"/><path d="M53.839,75.929,28.014,68.88l3.524-12.912A13.4,13.4,0,0,1,45.2,46.125" style="fill:none;stroke:#687581;stroke-linecap:round;stroke-linejoin:round"/><path d="M70.131,63.711c-.482,1.575-1.636,2.877-2.578,2.91l-6.716.233c-.942.033-1.314-1.216-.832-2.791s1.636-2.877,2.578-2.909L69.3,60.92C70.24,60.888,70.613,62.137,70.131,63.711Z" style="fill:none;stroke:#687581;stroke-linecap:round;stroke-linejoin:round;stroke-width:0.5px"/><path d="M68.993,63.751c-.2.65-.675,1.187-1.064,1.2l-6.443.224c-.389.013-.542-.5-.344-1.152s.676-1.188,1.065-1.2L68.65,62.6C69.038,62.586,69.192,63.1,68.993,63.751Z" style="fill:none;stroke:#687581;stroke-linecap:round;stroke-linejoin:round;stroke-width:0.5px"/><path d="M45.2,46.129l16.133.917.147.014a12.242,12.242,0,0,1,2.633.425,12.7,12.7,0,0,1,8.911,15.6L69.685,75.349l-15.841.585" style="fill:none;stroke:#687581;stroke-linecap:round;stroke-linejoin:round"/><circle cx="42.004" cy="58.195" r="8.536" style="fill:none;stroke:#687581;stroke-linecap:round;stroke-linejoin:round;stroke-width:0.5px"/><path d="M42.063,49.657l3.487.021a8.538,8.538,0,0,1-.118,17.075l-3.486-.021" style="fill:none;stroke:#687581;stroke-linecap:round;stroke-linejoin:round;stroke-width:0.5px"/><line x1="150.495" y1="123.446" x2="161.151" y2="123.446" style="fill:none;stroke:#687581;stroke-linecap:round;stroke-linejoin:round;stroke-width:0.5000000000025px"/><line x1="153.561" y1="142.286" x2="153.561" y2="145.761" style="fill:none;stroke:#687581;stroke-linecap:round;stroke-linejoin:round;stroke-width:0.5px"/><path d="M36.274,104.9c.46.389.7.773.575,1.094l-3.991,9.451h-8.3L29.725,103.2c.129-.33.587-.445,1.214-.409" style="fill:none;stroke:#687581;stroke-linecap:round;stroke-linejoin:round"/><line x1="6.217" y1="115.448" x2="144.511" y2="115.448" style="fill:none;stroke:#687581;stroke-linecap:round;stroke-linejoin:round"/><line x1="26.338" y1="111.222" x2="11.082" y2="111.222" style="fill:none;stroke:#687581;stroke-linecap:round;stroke-linejoin:round"/><path d="M43.439,88.269,37.7,86.73,30.62,103.551c-.3.77,5.031,2.865,5.334,2.095Z" style="fill:none;stroke:#687581;stroke-linecap:round;stroke-linejoin:round"/></g><g id="a3484518-9be6-40b9-8f68-5b039cbe3b5d" data-name="illustration"><line x1="489.885" y1="94.593" x2="499.672" y2="64.053" style="fill:none;stroke:#aebbc7;stroke-miterlimit:10;stroke-width:0.5000000000025px"/><line x1="474.462" y1="90.748" x2="488.186" y2="61.125" style="fill:none;stroke:#aebbc7;stroke-miterlimit:10;stroke-width:0.5000000000025px"/><path d="M493.646,62.515l-11.687,30.2L480.428,95.9a213.772,213.772,0,0,0-8.721,24.965c-2.569,9.588-2.556,10.734-5.086,23.039l-2.879,13.516" style="fill:none;stroke:#aebbc7;stroke-miterlimit:10;stroke-width:0.5000000000025px"/><line x1="530.867" y1="104.849" x2="539.688" y2="74.695" style="fill:none;stroke:#aebbc7;stroke-miterlimit:10;stroke-width:0.5000000000025px"/><path d="M388.824,138.836l.128-.118a23.62,23.62,0,0,1,2.689-2.069,7.07,7.07,0,0,1,6.043-.963c5.308,1.183,90.04,22.419,93.781,23.365,4.579,1.158,6.683,1.79,7.987,3.862a26.729,26.729,0,0,1,1.947,3.844" style="fill:none;stroke:#aebbc7;stroke-miterlimit:10;stroke-width:0.5000000000025px"/><line x1="624.109" y1="101.328" x2="625.705" y2="94.725" style="fill:none;stroke:#aebbc7;stroke-miterlimit:10;stroke-width:0.5000000000025px"/><path d="M380.638,108.869c64.584,15.842,130.712,32.012,132.612,32.362,6.2,1.146,8.451,2.4,10.785.618,2.207-1.682,4.421-3.775,7.664-6.625,8.342-7.331,15.937-5.9,32.584-1.7,19.643,4.953,23.87,6.552,28.11,13.833a60.745,60.745,0,0,1,3.709,8.329q.326.793.655,1.585a3.687,3.687,0,0,0,3.017,2.246l8.488.888a12.417,12.417,0,0,0,5.873-1.089l7.486-3.812a6.071,6.071,0,0,0,3.077-3.723h0c1.609-5.564,2.157-8.378,2.157-8.378" style="fill:none;stroke:#aebbc7;stroke-miterlimit:10;stroke-width:0.5000000000025px"/><path d="M631.9,172.885l-14.381,4.16a22.432,22.432,0,0,1-7.1.64l-16.277-1.658" style="fill:none;stroke:#aebbc7;stroke-miterlimit:10;stroke-width:0.5000000000025px"/><rect x="558.21" y="101.34" width="5.068" height="5.068" rx="0.653" transform="translate(23.188 294.288) rotate(-30)" style="fill:none;stroke:#aebbc7;stroke-miterlimit:10;stroke-width:0.5000000000025px"/><path d="M310.2,68.339l-1.085.611a1.2,1.2,0,0,0-.552.665c-.533,1.583-2.356,7.834-2.84,9.554-.975,3.469-1.023,4.973,1.612,5.7,2.944.814,3.978,1.066,4.718,1.265a3.28,3.28,0,0,0,3.552-.856c1.189-1.162,5.614-5.559,7.818-7.2,2.768-2.065,7.416-4.969,30.719,1.275s25.6,9.9,28.136,20.487l2.186,10.09" style="fill:none;stroke:#aebbc7;stroke-miterlimit:10;stroke-width:0.5000000000025px"/><path d="M311.284,61.463l.543-1.211a1.134,1.134,0,0,1,.847-.654c3.328-.556,15.98.494,17.906.789C347.23,62.932,399.574,76.8,399.574,76.8l.072.019,80.368,18.75s99.078,24.529,128.14,32.316l15.514,4.157c2.519.675,4.9,1.515,4.606,3.747" style="fill:none;stroke:#aebbc7;stroke-miterlimit:10;stroke-width:0.5000000000025px"/><path d="M301.833,115.071c6.733-13.791,10.484-19.813,13.887-24.579" style="fill:none;stroke:#aebbc7;stroke-miterlimit:10;stroke-width:0.5000000000025px"/><path d="M593.491,166.325c1.329,8.965.272,20.494.129,22.409" style="fill:none;stroke:#aebbc7;stroke-miterlimit:10;stroke-width:0.5000000000025px"/><path d="M513.208,169.686a175.065,175.065,0,0,1,11.986-21.26" style="fill:none;stroke:#aebbc7;stroke-miterlimit:10;stroke-width:0.5000000000025px"/><path d="M430.2,61.483c-.373.807-1.249,2.584-2.553,5.669" style="fill:none;stroke:#aebbc7;stroke-miterlimit:10;stroke-width:0.5000000000025px"/><path d="M302.025,59.334c10.678,2.449,10.678,2.449,18.027,4.211,3.792.815,4.891,1.833,3.138,3.13-1.953,1.445-4.029,3.5-7.689,2.76-2.894-.587-7.653-1.567-15.239-3.24" style="fill:none;stroke:#aebbc7;stroke-miterlimit:10;stroke-width:0.5000000000025px"/><path d="M572.119,84.009s-1.428,14.537-1.85,19.585-.8,9.6,8.6,12.12,47.187,12.5,47.187,12.5" style="fill:none;stroke:#aebbc7;stroke-miterlimit:10;stroke-width:0.5000000000025px"/><path d="M427,79.305l1.3.3s68.207,16.63,80.636,19.7c12.1,2.987,26.807,6.843,31.112,7.827s6.329-.25,7.45-4.434,6.4-23.976,6.4-23.976" style="fill:none;stroke:#aebbc7;stroke-miterlimit:10;stroke-width:0.5000000000025px"/><path d="M450.226,51.526s59.719,15.065,68.685,17.468C564.867,81.308,616.605,97.4,616.605,97.4c5.054,1.708,8.44,2.274,9.278,9.11.868,7.077.172,21.7.172,21.7l12.006,3.217" style="fill:none;stroke:#aebbc7;stroke-miterlimit:10;stroke-width:0.5000000000025px"/><path d="M589.383,188.662s.979-12.149-.223-21.271c-1.153-8.749-2.8-16.593-7.673-19.687s-18.107-6.2-18.107-6.2-14.16-3.588-19.421-2.936-10.295,4.574-17.561,15.777a153.971,153.971,0,0,0-10.343,19.36" style="fill:none;stroke:#aebbc7;stroke-miterlimit:10"/><line x1="522.037" y1="175.209" x2="371.015" y2="137.317" style="fill:none;stroke:#aebbc7;stroke-miterlimit:10;stroke-width:0.5000000000025px"/><path d="M545.6,208.662a31.934,31.934,0,1,1,39.111-22.58A31.969,31.969,0,0,1,545.6,208.662Z" style="fill:none;stroke:#aebbc7;stroke-miterlimit:10"/><path d="M548.164,199.1a22.031,22.031,0,1,1,26.983-15.578A22.056,22.056,0,0,1,548.164,199.1Z" style="fill:none;stroke:#aebbc7;stroke-miterlimit:10;stroke-width:0.5000000000025px"/><path d="M544.209,190.811a16.709,16.709,0,0,1-5.077-6.388l3.235-3.351a1.736,1.736,0,0,1,.974-.526l5.852-1.009a.821.821,0,0,0,.671-.827l-.042-.743-.032-.72a.828.828,0,0,0-.612-.741l-.041-.011-.093-.013-5.941-.4a1.682,1.682,0,0,1-.343-.055,1.737,1.737,0,0,1-.67-.353l-3.6-3.081a16.513,16.513,0,0,1,4.5-6.81l4.191,2.046a1.725,1.725,0,0,1,.785.75l2.784,5.268a.8.8,0,0,0,1,.372l1.353-.51a.821.821,0,0,0,.494-.96l-1.453-5.763a1.72,1.72,0,0,1,.081-1.1l1.808-4.36a16.517,16.517,0,0,1,7.862,2.166l-.638,4.612a1.774,1.774,0,0,1-.48.994l-4.143,4.266a.814.814,0,0,0-.054,1.072l.913,1.121a.813.813,0,0,0,1.049.19l5.048-3.178a1.737,1.737,0,0,1,1.067-.258l4.7.368a16.539,16.539,0,0,1,.375,8.162l-4.591.8a1.727,1.727,0,0,1-.765-.026,1.7,1.7,0,0,1-.32-.122l-5.384-2.645-.1-.03a.807.807,0,0,0-.9.35l-.39.593-.391.611a.8.8,0,0,0,.157,1.062l4.569,3.805a1.8,1.8,0,0,1,.577.941l1.1,4.581a16.787,16.787,0,0,1-7.6,2.889l-2.234-4.127a1.734,1.734,0,0,1-.2-1.075l.846-5.888a.808.808,0,0,0-.593-.9l-1.4-.374a.809.809,0,0,0-.963.483l-2.21,5.522a1.7,1.7,0,0,1-.7.828Z" style="fill:none;stroke:#aebbc7;stroke-linecap:round;stroke-linejoin:round;stroke-width:0.5000000000025px"/><path d="M552.884,194.047a16.51,16.51,0,0,1-6.282-1.683l3.98-2.3Z" style="fill:none;stroke:#aebbc7;stroke-linecap:round;stroke-linejoin:round;stroke-width:0.5000000000025px"/><path d="M569,183.766a16.482,16.482,0,0,1-3.542,5.454l-.96-4.5Z" style="fill:none;stroke:#aebbc7;stroke-linecap:round;stroke-linejoin:round;stroke-width:0.5000000000025px"/><path d="M564.2,165.262a16.5,16.5,0,0,1,4.093,5.054l-4.574-.476Z" style="fill:none;stroke:#aebbc7;stroke-linecap:round;stroke-linejoin:round;stroke-width:0.5000000000025px"/><path d="M545.12,164.107a16.512,16.512,0,0,1,6.072-2.33l-1.867,4.2Z" style="fill:none;stroke:#aebbc7;stroke-linecap:round;stroke-linejoin:round;stroke-width:0.5000000000025px"/><path d="M538.126,181.9a16.487,16.487,0,0,1-.341-6.494l3.421,3.074Z" style="fill:none;stroke:#aebbc7;stroke-linecap:round;stroke-linejoin:round;stroke-width:0.5000000000025px"/><path d="M544.065,176.15a9.916,9.916,0,0,1,4.377-6.659" style="fill:none;stroke:#aebbc7;stroke-linecap:round;stroke-linejoin:round;stroke-width:0.5000000000025px"/><path d="M549.3,186.646a9.976,9.976,0,0,1-5.033-6.26" style="fill:none;stroke:#aebbc7;stroke-linecap:round;stroke-linejoin:round;stroke-width:0.5000000000025px"/><path d="M560.9,184.848a10.091,10.091,0,0,1-7.5,2.9" style="fill:none;stroke:#aebbc7;stroke-linecap:round;stroke-linejoin:round;stroke-width:0.5000000000025px"/><path d="M562.725,173.317a9.907,9.907,0,0,1,.462,7.955" style="fill:none;stroke:#aebbc7;stroke-linecap:round;stroke-linejoin:round;stroke-width:0.5000000000025px"/><path d="M552.4,167.985a9.96,9.96,0,0,1,7.664,2.055" style="fill:none;stroke:#aebbc7;stroke-linecap:round;stroke-linejoin:round;stroke-width:0.5000000000025px"/><path d="M456.178,53.029a414.675,414.675,0,0,0-55.012,20.227" style="fill:none;stroke:#aebbc7;stroke-miterlimit:10;stroke-width:0.5000000000025px"/><path d="M637.964,138.369l-18.612-4.623a1.166,1.166,0,0,0-1.6.881l-.621,2.136c-.565,2.11.945,4.441,5.32,5.613l13.712,3.674" style="fill:none;stroke:#aebbc7;stroke-miterlimit:10;stroke-width:0.5000000000025px"/><path d="M311.441,119.555c-.049-.016-2.3-.8-3.38-1.181-.37-.131-.942-1.164-1.312-1.3-.569-.2-.733-.26-1.3-.463a17.1,17.1,0,0,1-7.548-4.637c-4.15-4.3-7.475-8.289-9.29-11.659a2.368,2.368,0,0,1-.2-1.7l2.416-9.607a1.209,1.209,0,0,1,.95-.894l5.207-.515.951-3.55a1.823,1.823,0,0,1-1.038-1.206c-.168-.579-.487-1.561-.707-2.23a2.422,2.422,0,0,1-.022-1.44l5.918-20.032a4.825,4.825,0,0,1,4.007-3.424c5.122-.664,16.348-1.378,32.67,1.652,22.947,4.259,41.372,9.276,43.752,9.711s4.531,2.226,6.923,2.867,7.017,2.015,7.017,2.015A416.741,416.741,0,0,1,450.17,51.543c3.8-1.183,5.138-2.6,20,.34,23.888,4.735,92.858,23.814,139.928,37.743l8.534,2.6c12.715,3.407,19.249,10.6,19.249,10.6s.186,4.441.2,8.05c.015,3.339-.025,24.053-.03,27.131l-1.882,8.042.01,0s-.166.81-2.172,8.578a77.746,77.746,0,0,1-5.855,15.229l3.941,2.324-.792,2.957c-1.183,4.415-6.469,10.393-11.992,11.461-4.08.79-10.948,2.559-29.924,2.06q-2.711-.071-5.405-.2" style="fill:none;stroke:#aebbc7;stroke-miterlimit:10;stroke-width:0.5000000000025px"/><path d="M378.634,139.228l.039-1.041c.14-3.764.5-16.589-.805-24.45-2.5-15.1-3.117-21.91-22.129-26.8-22-5.661-27.989-5.568-34.631,2.906-6.16,7.859-10.847,16.974-15.661,26.774" style="fill:none;stroke:#aebbc7;stroke-miterlimit:10"/><path d="M628.15,169.86a110.884,110.884,0,0,1-11.355,3.112c-6.2,1.3-12.067.285-16.4-.333s-6.088-.767-6.435-3.97c-.819-3.656-1.559-10.29-4.434-17.538-3.042-7.667-9.441-9.379-25.186-13.566-6.755-1.8-15.624-3.621-20.057-3.412-10.478.494-18.545,13.851-22.386,18.727-3.1,3.937-6.139,2.778-9.831,1.872-3.843-.942-124.317-30.162-124.317-30.162-4.323-1.158-5.354-.863-5.59-3.023a142.338,142.338,0,0,0-2.674-18.558c-2.315-9.776-4.071-14.309-25.816-20.136s-26.269-3.356-28.843-1.462c-2.183,1.606-5.8,5.364-9.386,9.357a1.989,1.989,0,0,1-1.921.609L296.984,87.6" style="fill:none;stroke:#aebbc7;stroke-miterlimit:10;stroke-width:0.5000000000025px"/><path d="M335.06,152.248a31.934,31.934,0,1,1,39.111-22.581A31.971,31.971,0,0,1,335.06,152.248Z" style="fill:none;stroke:#aebbc7;stroke-miterlimit:10"/><path d="M337.621,142.682A22.032,22.032,0,1,1,364.6,127.1,22.058,22.058,0,0,1,337.621,142.682Z" style="fill:none;stroke:#aebbc7;stroke-miterlimit:10;stroke-width:0.5000000000025px"/><path d="M333.666,134.4a16.709,16.709,0,0,1-5.077-6.388l3.236-3.351a1.73,1.73,0,0,1,.973-.526l5.852-1.009a.821.821,0,0,0,.671-.827l-.042-.742-.032-.72a.826.826,0,0,0-.611-.741l-.041-.011-.094-.014-5.941-.4a1.755,1.755,0,0,1-.343-.056,1.717,1.717,0,0,1-.67-.353l-3.6-3.08a16.509,16.509,0,0,1,4.5-6.811l4.191,2.046a1.733,1.733,0,0,1,.784.75l2.784,5.268a.8.8,0,0,0,.5.4.81.81,0,0,0,.5-.027l1.352-.51a.821.821,0,0,0,.494-.961l-1.452-5.763a1.713,1.713,0,0,1,.08-1.1l1.809-4.36a16.513,16.513,0,0,1,7.861,2.167l-.638,4.612a1.764,1.764,0,0,1-.48.993l-4.142,4.266a.813.813,0,0,0-.055,1.072l.914,1.121a.8.8,0,0,0,.422.276.817.817,0,0,0,.627-.086l5.047-3.178a1.738,1.738,0,0,1,1.067-.258l4.7.368a16.539,16.539,0,0,1,.374,8.162l-4.591.8a1.728,1.728,0,0,1-.765-.027,1.758,1.758,0,0,1-.319-.121l-5.385-2.646-.1-.03a.808.808,0,0,0-.9.35l-.39.593-.391.611a.8.8,0,0,0,.157,1.062l4.569,3.806a1.8,1.8,0,0,1,.577.94l1.1,4.582a16.805,16.805,0,0,1-7.6,2.888l-2.234-4.127a1.738,1.738,0,0,1-.2-1.074l.847-5.889a.808.808,0,0,0-.594-.9l-1.4-.374a.809.809,0,0,0-.963.484l-2.21,5.521a1.7,1.7,0,0,1-.7.829Z" style="fill:none;stroke:#aebbc7;stroke-linecap:round;stroke-linejoin:round;stroke-width:0.5000000000025px"/><path d="M342.341,137.632a16.51,16.51,0,0,1-6.282-1.683l3.98-2.3Z" style="fill:none;stroke:#aebbc7;stroke-linecap:round;stroke-linejoin:round;stroke-width:0.5000000000025px"/><path d="M358.456,127.351a16.482,16.482,0,0,1-3.542,5.454l-.96-4.5Z" style="fill:none;stroke:#aebbc7;stroke-linecap:round;stroke-linejoin:round;stroke-width:0.5000000000025px"/><path d="M353.658,108.847a16.5,16.5,0,0,1,4.093,5.054l-4.574-.476Z" style="fill:none;stroke:#aebbc7;stroke-linecap:round;stroke-linejoin:round;stroke-width:0.5000000000025px"/><path d="M334.577,107.692a16.509,16.509,0,0,1,2.923-1.468,16.312,16.312,0,0,1,3.149-.862l-1.867,4.2Z" style="fill:none;stroke:#aebbc7;stroke-linecap:round;stroke-linejoin:round;stroke-width:0.5000000000025px"/><path d="M327.583,125.482a16.462,16.462,0,0,1-.34-6.494l3.42,3.074Z" style="fill:none;stroke:#aebbc7;stroke-linecap:round;stroke-linejoin:round;stroke-width:0.5000000000025px"/><path d="M333.523,119.735a9.912,9.912,0,0,1,4.377-6.659" style="fill:none;stroke:#aebbc7;stroke-linecap:round;stroke-linejoin:round;stroke-width:0.5000000000025px"/><path d="M338.755,130.231a9.973,9.973,0,0,1-5.032-6.259" style="fill:none;stroke:#aebbc7;stroke-linecap:round;stroke-linejoin:round;stroke-width:0.5000000000025px"/><path d="M350.362,128.433a10.093,10.093,0,0,1-7.5,2.9" style="fill:none;stroke:#aebbc7;stroke-linecap:round;stroke-linejoin:round;stroke-width:0.5000000000025px"/><path d="M352.182,116.9a9.907,9.907,0,0,1,.462,7.955" style="fill:none;stroke:#aebbc7;stroke-linecap:round;stroke-linejoin:round;stroke-width:0.5000000000025px"/><path d="M341.852,111.57a9.964,9.964,0,0,1,7.664,2.055" style="fill:none;stroke:#aebbc7;stroke-linecap:round;stroke-linejoin:round;stroke-width:0.5000000000025px"/><path d="M297.935,84.053l3.624.971a2.787,2.787,0,0,1,1.814,1.555L304.047,88a1.885,1.885,0,0,1,.08,1.191l-2.255,7.069a3.44,3.44,0,0,1-3.037,2.386l-2.778.194a43.04,43.04,0,0,1-7.646-.225" style="fill:none;stroke:#aebbc7;stroke-miterlimit:10;stroke-width:0.5000000000025px"/><path d="M422.239,79.14l-3.738-1a2.7,2.7,0,0,1-1.548-1.313l-2.033-4.484a3.733,3.733,0,0,1-.325-1.285l-.009-.139" style="fill:none;stroke:#aebbc7;stroke-miterlimit:10;stroke-width:0.5000000000025px"/><path d="M416.118,78.732a2.016,2.016,0,0,0,.726.037,14.4,14.4,0,0,1,5.395.371c1.178.316,3.226.864,4.589.255,2.408-1.154,3.519-6.84,3.324-9.282-.227-2.844-2.144-3.1-6.231-3.5a13.87,13.87,0,0,0-8.6,3.048c-1.686,1.1.317,2.61-1.528,2.907-3.1.5-2.956.527-5.564,2.24a.607.607,0,0,0-.046.981l1.447,1.157a3.212,3.212,0,0,0,1.065.517Z" style="fill:none;stroke:#aebbc7;stroke-miterlimit:10;stroke-width:0.5000000000025px"/><line x1="429.185" y1="76.081" x2="422.758" y2="74.359" style="fill:none;stroke:#aebbc7;stroke-linecap:round;stroke-linejoin:round;stroke-width:0.5000000000025px"/><rect x="522.105" y="114.582" width="16.031" height="3.182" rx="1.591" transform="translate(44.857 -126.815) rotate(14.238)" style="fill:none;stroke:#aebbc7;stroke-linecap:round;stroke-linejoin:round;stroke-width:0.5000000000025px"/><rect x="454.506" y="98.021" width="16.031" height="3.182" rx="1.591" transform="translate(37.785 -108.829) rotate(13.986)" style="fill:none;stroke:#aebbc7;stroke-linecap:round;stroke-linejoin:round;stroke-width:0.5000000000025px"/><line x1="396.455" y1="71.966" x2="408.248" y2="74.797" style="fill:none;stroke:#aebbc7;stroke-miterlimit:10;stroke-width:0.5000000000025px"/><path d="M385.127,137.855l1.238-13.643s.8-8.836,1.594-13.507a192.788,192.788,0,0,1,5.887-23.215c2.144-5.979,4.42-11.046,4.42-11.046l2.9-3.188" style="fill:none;stroke:#aebbc7;stroke-miterlimit:10;stroke-width:0.5000000000025px"/><path d="M556.865,79.624c-3.109,15.983-4.492,21.666-5.5,26.08a28.644,28.644,0,0,0-.851,7.448,140.942,140.942,0,0,1-2.905,16.952l-2.224,8.3" style="fill:none;stroke:#aebbc7;stroke-miterlimit:10;stroke-width:0.5000000000025px"/><line x1="517.419" y1="170.73" x2="378.392" y2="136.248" style="fill:none;stroke:#aebbc7;stroke-miterlimit:10;stroke-width:0.5000000000025px"/><path d="M613.562,90.684l.3-.348s3.435-4.006,6.457-3.2l3.021.81-.9,5.468" style="fill:none;stroke:#aebbc7;stroke-miterlimit:10;stroke-width:0.5000000000025px"/><g id="ffa7ce78-4ca1-48ed-a9de-cb4909c8b072" data-name="Offset Group"><path d="M289.862,88.762l-2.42,9.61a3.359,3.359,0,0,0,.29,2.424c1.882,3.488,5.287,7.564,9.452,11.873a18.026,18.026,0,0,0,7.933,4.887l.593.211.605.215c.059.059.156.174.32.375a2.939,2.939,0,0,0,1.1.955l.724.254c.621.218,1.389.488,1.952.684a32.947,32.947,0,0,0,61.09,18.219l149.5,37.507a32.937,32.937,0,0,0,63.675,13.514q2.34.1,4.692.165c17.512.463,24.8-1,29.094-1.864.375-.075.722-.145,1.051-.209a15.949,15.949,0,0,0,7.53-4.162,18.43,18.43,0,0,0,5.236-8.02l.989-3.691-3.788-2.232a79.57,79.57,0,0,0,5.5-14.6l2.42-9.542-.031-.009,1.692-7.209.006-3.632c.012-6.928.037-20.923.024-23.616-.016-3.633-.224-8.451-.224-8.451l-.243-.267s-5.15-5.651-15.054-9.389l.91-5.549-3.9-1.045a4.741,4.741,0,0,0-2.641.105,12.068,12.068,0,0,0-4.7,3.259l-2.853-.871C563.32,74.737,494.3,55.641,470.365,50.9c-7.714-1.527-11.892-1.9-14.693-1.716a16.31,16.31,0,0,0-4.667,1.029c-.372.128-.739.253-1.12.371A418.635,418.635,0,0,0,396.374,70.9c-1.142-.338-4.673-1.38-6.675-1.916a15.667,15.667,0,0,1-3.024-1.31,14.62,14.62,0,0,0-3.979-1.579c-.55-.1-2.079-.478-4.489-1.073-7.242-1.79-21.97-5.428-39.256-8.634-16.432-3.053-27.771-2.334-32.982-1.662a5.8,5.8,0,0,0-3.022,1.336,5.873,5.873,0,0,0-1.822,2.8l-5.911,20.028a3.4,3.4,0,0,0,.029,2.037c.219.67.536,1.645.7,2.191a2.912,2.912,0,0,0,.679,1.21c.053.057.109.11.164.159l-.586,2.189s-4.519.446-4.607.458a2.206,2.206,0,0,0-1.73,1.631Z" style="fill:none;stroke:#aebbc7;stroke-miterlimit:3;stroke-width:0.5000000000025px"/><path d="M290.105,88.823l-2.421,9.611a3.108,3.108,0,0,0,.268,2.243c1.865,3.457,5.25,7.512,9.412,11.819a17.774,17.774,0,0,0,7.837,4.824l.593.211c.2.072.392.14.634.217a3.261,3.261,0,0,1,.4.452,2.726,2.726,0,0,0,.983.876l.725.254c.7.245,1.563.549,2.126.745a32.7,32.7,0,0,0,60.715,18.106l149.875,37.6A32.686,32.686,0,0,0,584.5,189.232q2.429.109,4.87.173c17.491.463,24.761-1,29.038-1.859.375-.076.723-.146,1.052-.209a15.7,15.7,0,0,0,7.408-4.1,18.184,18.184,0,0,0,5.165-7.9l.939-3.507-3.825-2.254a79.325,79.325,0,0,0,5.589-14.758l2.36-9.3-.028-.007,1.741-7.417.006-3.6c.012-6.928.037-20.922.024-23.614-.016-3.627-.22-8.35-.22-8.35l-.182-.2s-5.17-5.678-15.149-9.395l.907-5.528-3.68-.986a4.483,4.483,0,0,0-2.5.1,12.036,12.036,0,0,0-4.695,3.306l-3-.918C563.246,74.976,494.241,55.884,470.317,51.141c-7.711-1.526-11.861-1.9-14.628-1.711a16.03,16.03,0,0,0-4.6,1.016c-.372.127-.742.253-1.13.374a417.938,417.938,0,0,0-53.562,20.346c-1.031-.306-4.7-1.391-6.76-1.942a15.913,15.913,0,0,1-3.073-1.329,14.39,14.39,0,0,0-3.91-1.555c-.56-.1-2.1-.482-4.5-1.076-7.242-1.79-21.963-5.427-39.242-8.631-16.4-3.048-27.716-2.329-32.9-1.66a5.552,5.552,0,0,0-2.892,1.279,5.614,5.614,0,0,0-1.744,2.678s-5.913,20.034-5.911,20.029a3.147,3.147,0,0,0,.026,1.887c.22.669.537,1.647.7,2.2a2.672,2.672,0,0,0,.621,1.107,2.435,2.435,0,0,0,.264.242l-.671,2.509s-4.692.463-4.757.472a1.955,1.955,0,0,0-1.534,1.446Z" style="fill:none;stroke:#aebbc7;stroke-miterlimit:3;stroke-width:0.5000000000025px"/><path d="M290.347,88.884,287.926,98.5a2.862,2.862,0,0,0,.247,2.064c1.846,3.425,5.212,7.46,9.371,11.763a17.533,17.533,0,0,0,7.74,4.763l.594.211c.2.072.392.14.685.242a2.86,2.86,0,0,1,.46.5,2.523,2.523,0,0,0,.872.8l.725.255c.784.275,1.766.619,2.3.805a32.446,32.446,0,0,0,60.337,17.994l150.258,37.7a32.436,32.436,0,0,0,62.808,13.381q2.517.114,5.047.181c17.471.462,24.722-1,28.983-1.854.374-.076.723-.146,1.054-.21a15.441,15.441,0,0,0,7.284-4.037,17.935,17.935,0,0,0,5.094-7.784l.891-3.323-3.863-2.277a79.063,79.063,0,0,0,5.675-14.917l2.3-9.061-.023-.006,1.789-7.625.006-3.575c.012-6.929.037-20.921.024-23.613-.016-3.622-.216-8.25-.216-8.25l-.121-.134s-5.189-5.7-15.244-9.4l.9-5.508-3.462-.928a4.241,4.241,0,0,0-2.364.1,11.911,11.911,0,0,0-4.6,3.254l-.085.1-3.158-.965c-47.065-13.927-116.059-33.016-139.97-37.755-7.707-1.526-11.83-1.891-14.563-1.708a15.814,15.814,0,0,0-4.538,1c-.372.126-.745.254-1.139.377a417.585,417.585,0,0,0-53.614,20.372c-.882-.261-4.726-1.4-6.844-1.966a16.18,16.18,0,0,1-3.124-1.349,14.161,14.161,0,0,0-3.84-1.531c-.57-.1-2.121-.487-4.519-1.08-7.241-1.789-21.956-5.425-39.227-8.627-16.377-3.043-27.663-2.324-32.827-1.658a5.307,5.307,0,0,0-2.762,1.221A5.37,5.37,0,0,0,301.6,59l-5.911,20.031a2.9,2.9,0,0,0,.025,1.736c.219.669.537,1.65.7,2.21a2.418,2.418,0,0,0,.562,1.005,2.292,2.292,0,0,0,.368.314l-.761,2.839s-4.863.48-4.907.487a1.7,1.7,0,0,0-1.338,1.261Z" style="fill:none;stroke:#aebbc7;stroke-miterlimit:3;stroke-width:0.5000000000025px"/><path d="M290.59,88.945l-2.421,9.612a2.606,2.606,0,0,0,.224,1.883c1.829,3.393,5.175,7.408,9.331,11.709a17.3,17.3,0,0,0,7.644,4.7l.594.211.7.251a2.316,2.316,0,0,1,.552.574,2.357,2.357,0,0,0,.76.72l.725.254c.9.314,2.028.711,2.477.866a32.2,32.2,0,0,0,59.957,17.88l150.644,37.8a32.185,32.185,0,0,0,62.371,13.315q2.605.12,5.226.189c17.451.462,24.683-.994,28.926-1.849.375-.076.725-.146,1.056-.21a15.208,15.208,0,0,0,7.162-3.975,17.7,17.7,0,0,0,5.023-7.665l.841-3.14-3.9-2.3a78.647,78.647,0,0,0,5.763-15.075l2.238-8.821-.019,0S638.3,138.059,638.3,138c0-.6,0-1.853.006-3.518.012-6.929.037-20.92.024-23.611-.016-3.616-.212-8.15-.212-8.15l-.061-.066s-5.207-5.73-15.338-9.405l.9-5.489L620.38,86.9a3.989,3.989,0,0,0-2.225.1,11.69,11.69,0,0,0-4.484,3.178l-.19.225-3.314-1.012C563.1,75.454,494.117,56.369,470.219,51.632c-7.7-1.525-11.8-1.884-14.5-1.7a15.562,15.562,0,0,0-4.474.99c-.372.127-.748.255-1.149.38a416.686,416.686,0,0,0-53.664,20.4c-.662-.2-4.73-1.4-6.93-1.992a16.339,16.339,0,0,1-3.173-1.368,13.932,13.932,0,0,0-3.771-1.507c-.579-.106-2.143-.492-4.534-1.083-7.24-1.789-21.95-5.423-39.213-8.625-16.349-3.037-27.609-2.318-32.749-1.655a5.055,5.055,0,0,0-2.632,1.164,5.12,5.12,0,0,0-1.589,2.438L295.932,79.1a2.656,2.656,0,0,0,.023,1.586c.22.668.539,1.653.708,2.22a2.169,2.169,0,0,0,.5.9,2.055,2.055,0,0,0,.473.373l-.852,3.183-5.057.5a1.457,1.457,0,0,0-1.142,1.077Z" style="fill:none;stroke:#aebbc7;stroke-miterlimit:3;stroke-width:0.5000000000025px"/></g><path d="M290.832,89.006l-2.421,9.612a2.356,2.356,0,0,0,.2,1.7c1.812,3.362,5.137,7.356,9.291,11.654a17.041,17.041,0,0,0,7.547,4.638c.564.2.727.26,1.3.462.37.132.947,1.164,1.31,1.294,1.085.38,3.335,1.169,3.38,1.181a31.941,31.941,0,0,0,59.575,17.767l151.024,37.891.007,0a31.932,31.932,0,0,0,61.932,13.248c1.8.083,3.6.152,5.407.2,18.973.5,25.841-1.265,29.927-2.055,5.52-1.072,10.809-7.047,11.991-11.459l.792-2.956-3.943-2.324a77.969,77.969,0,0,0,5.853-15.233c2.007-7.765,2.177-8.581,2.177-8.581l-.015,0L638.054,138c0-3.078.046-23.791.03-27.127-.016-3.611-.208-8.049-.208-8.049s-5.225-5.755-15.433-9.408l.9-5.471-3.024-.811c-3.017-.808-6.454,3.194-6.454,3.194l-.3.351L610.1,89.622C563.027,75.693,494.055,56.611,470.171,51.877c-14.859-2.941-16.2-1.521-20-.338a415.644,415.644,0,0,0-53.715,20.427s-4.619-1.376-7.015-2.017-4.546-2.437-6.924-2.871-20.807-5.454-43.748-9.708c-16.321-3.033-27.554-2.313-32.671-1.653a4.837,4.837,0,0,0-4.013,3.425l-5.913,20.034a2.4,2.4,0,0,0,.022,1.436c.219.668.539,1.656.71,2.23a1.818,1.818,0,0,0,1.033,1.211l-.951,3.547-5.207.514A1.2,1.2,0,0,0,290.832,89.006Z" style="fill:none;stroke:#aebbc7;stroke-miterlimit:3;stroke-width:0.5000000000025px"/><path d="M533.742,202.609a29.681,29.681,0,0,1-26.879-30.571" style="fill:none;stroke:#aebbc7;stroke-linecap:round;stroke-linejoin:round"/><line x1="321.209" y1="68.152" x2="327.823" y2="79.865" style="fill:none;stroke:#aebbc7;stroke-miterlimit:10;stroke-width:0.5000000000025px"/><line x1="312.056" y1="86.134" x2="318.178" y2="87.774" style="fill:none;stroke:#aebbc7;stroke-miterlimit:10;stroke-width:0.5000000000025px"/></g></svg>
