<svg xmlns="http://www.w3.org/2000/svg" width="40.7167" height="35.604" viewBox="0 0 40.7167 35.604"><g id="f8fe64d7-20ce-4a0c-99f3-4b3c2e080e89" data-name="symbol"><path d="M27.4129,12.3376c-.3885.2528-.7153.4809-.9989.6782a6.6543,6.6543,0,0,1-3.9892,1.5168c-.9681.0925-2.0224.2035-3.0274.3083-1.5476.1665-2.9781.3144-3.8228.3885a4.0607,4.0607,0,0,0-2.8917,2.2566c-.0185.0308-.037.0678-.0555.0986L10.87,16.5673,20.3469,0Z" style="fill:#000001"/><path d="M39.2325,32.9805,25.3966,24.9712c.1357-.111.2713-.2405.4193-.3761C30.137,20.6115,28,20.8387,31.2911,19.1076Z" style="fill:#000001"/><path d="M20.39,20.8648a9.8455,9.8455,0,0,1-.0925,1.1592l-1.5538-.9C18.7589,21.1215,20.0879,20.9065,20.39,20.8648Z" style="fill:#000001"/><path d="M22.6776,26.9627c-1.2141.4047-2.7948,2.617-3.4837,3.65a3.1951,3.1951,0,0,0-2.46-.8755,3.9645,3.9645,0,0,0-1.4181,3.1137c-.8227-1.5936.8034-4.6,1.5846-5.6416.6341-.8294,1.6563-1.6291,2.1826-2.3307l-.8262-.4748a3.5025,3.5025,0,0,1-.1171.3946c-.4308.4547-.7131.707-.8324.8263-.0062-.0062-.0123-.0062-.0185-.0124a6.0457,6.0457,0,0,0,.16-1.677l-.82-.4748a4.7479,4.7479,0,0,1-.2775,2.5464c.0044.0019.3451.1435.407.1788A7.4713,7.4713,0,0,0,16,27.1477a6.0763,6.0763,0,0,0-.8632-1.005,3.8567,3.8567,0,0,0,.3638-1.0112v-.0062a4.6622,4.6622,0,0,0,.13-1.19,4.8742,4.8742,0,0,0,.6782-.66L15.63,22.881a4.81,4.81,0,0,1-.8016.6844,3.8093,3.8093,0,0,1-.7152,2.7376A5.0349,5.0349,0,0,1,15.55,27.8876a11.526,11.526,0,0,0-.9126,2.0778,4.7685,4.7685,0,0,0-.9618-2.0223,4.4329,4.4329,0,0,0-.0308-3.348,5.2111,5.2111,0,0,0,1.43-2.0347l-.6721-.3885a4.4391,4.4391,0,0,1-1.7264,2.1889,3.6107,3.6107,0,0,1,.08,3.6994c1.9635,2.2338,1.235,5.0355.0863,5.2656a4.8391,4.8391,0,0,0-.9064-3.1569,4.4323,4.4323,0,0,0-1.042.0185c-.4562-1.4489-.931-3.04-1.2146-4.18a4.9519,4.9519,0,0,1,.3638-3.6439c.2373-.4606.5167-1.039,1.079-2.09l-1.7819-1.03L0,35.604H37.6665ZM11.3943,31.7288c-.0987-.2959-.2035-.6166-.3083-.95a3.2565,3.2565,0,0,1,.5179-.0185,4.3168,4.3168,0,0,1,.6289,2.3738A3.0134,3.0134,0,0,1,11.3943,31.7288Zm6.511.82c-.074.1109-.1541.2158-.2343.3144a3.3563,3.3563,0,0,1-.2775.3021,1.6131,1.6131,0,0,1-.783.4748.9268.9268,0,0,1-.4994-.0431,1.1382,1.1382,0,0,1-.16-.5118,2.5255,2.5255,0,0,1-.0061-.53,3,3,0,0,1,.0493-.3946c.0247-.1233.0555-.2466.0925-.3761h.0062a3.06,3.06,0,0,1,.8015-1.3564.3678.3678,0,0,1,.0678-.074,3.2186,3.2186,0,0,1,.5858.0616,2.0113,2.0113,0,0,1,.7275.2837,1.3363,1.3363,0,0,1,.4933.5425l-.0185.037c-.222.3268-.4563.6844-.7091,1.0729A2.2322,2.2322,0,0,1,17.9053,32.5489Zm2.6759,0a.6477.6477,0,0,1-.3576.4378,1.7708,1.7708,0,0,1-1.4243-.08c-.0555-.0185-.111-.0432-.1664-.0617.0184-.0246.037-.0555.0554-.08.29-.4563.5611-.8632.8077-1.227.074-.1172.148-.222.2159-.3268.08-.111.1479-.2158.2219-.3144a.0725.0725,0,0,0-.0308-.0309c.0123.0062.0246.0062.037.0123,0,.0062-.0062.0124-.0062.0186a2.7384,2.7384,0,0,1,.3083.3452,1.7465,1.7465,0,0,1,.13.1912,1.4854,1.4854,0,0,1,.21.4809A1.232,1.232,0,0,1,20.5812,32.5489Zm1.7511-1.7511a.5353.5353,0,0,1-.2775.3761,1.2615,1.2615,0,0,1-.894.0925,2.6579,2.6579,0,0,0-.3021-.4933,3.7992,3.7992,0,0,0-.481-.5179c.1357-.1788.2528-.3452.37-.4933.0863-.1171.1664-.2219.2466-.32.0925-.1172.1788-.222.2652-.3207a.1629.1629,0,0,0,.0308-.037c.0432.0309.0925.0617.1356.0925a3.3084,3.3084,0,0,1,.5488.4995.4719.4719,0,0,1,.0678.0986,1.2457,1.2457,0,0,1,.2405.4254A1.102,1.102,0,0,1,22.3323,30.7978Zm.7645-1.7511a.4249.4249,0,0,1-.2158.29.6718.6718,0,0,1-.1541.0617,2.5884,2.5884,0,0,0-.1665-.222,3.9941,3.9941,0,0,0-.7337-.66,4.3206,4.3206,0,0,1,.7584-.5981,2.4218,2.4218,0,0,1,.2158.222A1.0779,1.0779,0,0,1,23.0968,29.0467Z" style="fill:#000001"/></g></svg>