<?xml version="1.0" encoding="UTF-8"?>
<svg xmlns="http://www.w3.org/2000/svg" version="1.1" viewBox="0 0 925.8 126.4">
  <!-- Generator: Adobe Illustrator 28.7.1, SVG Export Plug-In . SVG Version: 1.2.0 Build 142)  -->
  <g>
    <g id="uuid-c8dce0c0-ced7-412d-9fa1-cc7c60e9e235">
      <path d="M125.9,42.1C125.9,20.8,111.5,0,80.4,0H0v126.4h27.1V22.7h49.3c15.2,0,22.4,7.4,22.4,19.3s-7.2,19.5-22.4,19.5h-21c-9.5,0-14.8,5.3-14.8,14.8v7.9h15c7,0,12.3,2.3,16.6,7.9l26.7,34.1h33.2l-37.2-47.3c19.9-4.5,30.9-17.5,30.9-37h0s0,0,0,0Z"/>
      <rect x="198" width="27.1" height="126.4"/>
      <polygon points="434 0 405.1 0 359.2 97.8 313.3 0 284.4 0 344.8 126.4 373.7 126.4 434 0"/>
      <rect x="493.8" width="27.1" height="126.4"/>
      <path d="M671.3,0h-28.9l-62.2,126.4h28.9l7.8-16.2c3.2-6.9,8.3-9.9,15.9-9.9h47l-5.6-11.9c-3.4-7.4-9-10.8-17.3-10.8h-24l24-49.8,47.7,98.7h28.9L671.3,0h0Z"/>
      <polygon points="925.8 0 899.6 0 899.6 93.9 823.9 0 792.8 0 792.8 126.4 819 126.4 819 32.5 894.7 126.4 925.8 126.4 925.8 0"/>
    </g>
  </g>
</svg>