<svg width="55" height="55" viewBox="0 0 55 55" fill="none" xmlns="http://www.w3.org/2000/svg">
<path fill-rule="evenodd" clip-rule="evenodd" d="M28 26H43V29H28V26Z" fill="#AEBBC7"/>
<path fill-rule="evenodd" clip-rule="evenodd" d="M39.2516 20L41 21.813L35.5013 27.5L41 33.187L39.2516 35L32 27.5L39.2516 20Z" fill="#AEBBC7"/>
<path fill-rule="evenodd" clip-rule="evenodd" d="M30 13V42H27V13H30Z" fill="#AEBBC7"/>
<path fill-rule="evenodd" clip-rule="evenodd" d="M36 16.7253L29.7218 23L28 21.2747L34.2782 15L36 16.7253Z" fill="#AEBBC7"/>
<path fill-rule="evenodd" clip-rule="evenodd" d="M29.7218 32L36 38.2747L34.2782 40L28 33.7253L29.7218 32Z" fill="#AEBBC7"/>
<path fill-rule="evenodd" clip-rule="evenodd" d="M21.0815 21.9751C20.5686 23.0698 20.1429 23.9823 20.1429 25.7362C20.1429 26.5929 20.2869 27.1487 20.4709 27.5697C20.6673 28.0189 20.9326 28.3769 21.2996 28.8604C21.308 28.8714 21.3164 28.8825 21.3249 28.8937C21.6688 29.3466 22.1044 29.9201 22.4356 30.679C22.7871 31.4845 23 32.4405 23 33.6667C23 36.0955 22.3449 37.3777 21.7742 38.4875L21.7675 38.5004C21.2693 39.4691 20.8571 40.2705 20.8571 42H18.7143C18.7143 39.5747 19.3699 38.2943 19.9401 37.1855L19.9455 37.175C20.4438 36.2062 20.8571 35.4024 20.8571 33.6667C20.8571 32.8074 20.7129 32.2497 20.5287 31.8276C20.3323 31.3776 20.067 31.0191 19.7004 30.5361C19.6914 30.5243 19.6824 30.5125 19.6733 30.5005C19.3301 30.0485 18.8954 29.4762 18.5648 28.7199C18.2131 27.9154 18 26.9606 18 25.7362C18 23.3313 18.6436 21.9576 19.2016 20.7667L19.2042 20.761C19.7171 19.6664 20.1429 18.7539 20.1429 17H22.2857C22.2857 19.4048 21.6421 20.7786 21.0841 21.9695L21.0815 21.9751Z" fill="#AEBBC7"/>
<path d="M21 13L18 18H24L21 13Z" fill="#AEBBC7"/>
<path fill-rule="evenodd" clip-rule="evenodd" d="M14.6978 21.9751C14.0823 23.0698 13.5714 23.9823 13.5714 25.7362C13.5714 26.5929 13.7443 27.1487 13.9651 27.5697C14.2008 28.0189 14.5191 28.3769 14.9595 28.8604C14.9696 28.8714 14.9797 28.8825 14.9899 28.8937C15.4026 29.3466 15.9253 29.9201 16.3227 30.679C16.7445 31.4845 17 32.4405 17 33.6667C17 36.0955 16.2139 37.3777 15.529 38.4875L15.521 38.5004C14.9232 39.4691 14.4286 40.2705 14.4286 42H11.8571C11.8571 39.5747 12.6438 38.2943 13.3281 37.1855L13.3346 37.175C13.9325 36.2062 14.4286 35.4024 14.4286 33.6667C14.4286 32.8074 14.2555 32.2497 14.0345 31.8276C13.7988 31.3776 13.4804 31.0191 13.0405 30.5361C13.0297 30.5243 13.0189 30.5125 13.008 30.5005C12.5961 30.0485 12.0744 29.4762 11.6777 28.7199C11.2557 27.9154 11 26.9606 11 25.7362C11 23.3313 11.7724 21.9576 12.4419 20.7667L12.4451 20.761C13.0605 19.6664 13.5714 18.7539 13.5714 17H16.1429C16.1429 19.4048 15.3705 20.7786 14.7009 21.9695L14.6978 21.9751Z" fill="#AEBBC7"/>
<path d="M15 13L12 18H18L15 13Z" fill="#AEBBC7"/>
</svg>
