<svg width="55" height="55" viewBox="0 0 55 55" fill="none" xmlns="http://www.w3.org/2000/svg">
<path d="M27.5 44C36.6127 44 44 36.6127 44 27.5C44 18.3873 36.6127 11 27.5 11C18.3873 11 11 18.3873 11 27.5C11 36.6127 18.3873 44 27.5 44Z" stroke="#AEBBC7" stroke-width="3" stroke-miterlimit="10"/>
<path fill-rule="evenodd" clip-rule="evenodd" d="M27.5 16.9231C21.6585 16.9231 16.9231 21.6585 16.9231 27.5C16.9231 33.3415 21.6585 38.0769 27.5 38.0769C33.3415 38.0769 38.0769 33.3415 38.0769 27.5C38.0769 21.6585 33.3415 16.9231 27.5 16.9231ZM15 27.5C15 20.5964 20.5964 15 27.5 15C34.4036 15 40 20.5964 40 27.5C40 34.4036 34.4036 40 27.5 40C20.5964 40 15 34.4036 15 27.5Z" fill="#AEBBC7"/>
<path fill-rule="evenodd" clip-rule="evenodd" d="M38.9223 27.5C38.9223 33.8088 33.808 38.9231 27.4992 38.9231C21.1905 38.9231 16.0762 33.8088 16.0762 27.5C16.0762 21.1912 21.1905 16.0769 27.4992 16.0769C33.808 16.0769 38.9223 21.1912 38.9223 27.5ZM21.5968 27.5001C21.5968 24.243 24.2364 21.5982 27.4988 21.5982V19.6943C23.1838 19.6943 19.693 23.1926 19.693 27.5001H21.5968Z" fill="#AEBBC7"/>
</svg>
