<svg width="55" height="55" viewBox="0 0 55 55" fill="none" xmlns="http://www.w3.org/2000/svg">
<path fill-rule="evenodd" clip-rule="evenodd" d="M35.0836 36.1502V39.6144C35.0836 44.0558 31.4832 47.6562 27.0418 47.6562C22.6004 47.6562 19 44.0558 19 39.6144V36.1502C21.0138 38.2897 23.8718 39.6255 27.0418 39.6255C30.2118 39.6255 33.0698 38.2897 35.0836 36.1502ZM35.0836 28.5837V14.6981C35.0836 10.2567 31.4832 6.65625 27.0418 6.65625C22.6004 6.65625 19 10.2567 19 14.6981V28.5837C19 33.0251 22.6004 36.6255 27.0418 36.6255C31.4832 36.6255 35.0836 33.0251 35.0836 28.5837ZM38.0836 28.5837V39.6144C38.0836 45.7127 33.14 50.6562 27.0418 50.6562C20.9436 50.6562 16 45.7127 16 39.6144V28.5837V14.6981C16 12.0216 16.9523 9.56756 18.5365 7.65625C18.8698 7.25404 19.2312 6.87587 19.6175 6.52471C21.5784 4.74249 24.1833 3.65625 27.0418 3.65625C33.14 3.65625 38.0836 8.59984 38.0836 14.6981V28.5837Z" fill="#AEBBC7"/>
</svg>
