<svg width="276" height="266" viewBox="0 0 276 266" fill="none" xmlns="http://www.w3.org/2000/svg">

<path d="M103.909 192V193.5H106.325L105.253 191.335L103.909 192ZM78.8891 192L77.5392 192.654L77.949 193.5H78.8891V192ZM56.3891 145.56L57.739 144.906L57.3291 144.06H56.3891V145.56ZM39.4691 145.56V144.06H37.9691V145.56H39.4691ZM39.4691 192V193.5H40.9691V192H39.4691ZM16.6091 192H15.1091V193.5H16.6091V192ZM16.6091 66V64.5H15.1091V66H16.6091ZM85.9091 76.44L84.8843 77.5354L85.9091 76.44ZM78.1691 139.98L77.4878 138.644L76.1673 139.317L76.8246 140.645L78.1691 139.98ZM39.4691 86.88V85.38H37.9691V86.88H39.4691ZM39.4691 125.58H37.9691V127.08H39.4691V125.58ZM69.1691 91.2L68.1929 92.3389L69.1691 91.2ZM103.909 190.5H78.8891V193.5H103.909V190.5ZM80.239 191.346L57.739 144.906L55.0392 146.214L77.5392 192.654L80.239 191.346ZM56.3891 144.06H39.4691V147.06H56.3891V144.06ZM37.9691 145.56V192H40.9691V145.56H37.9691ZM39.4691 190.5H16.6091V193.5H39.4691V190.5ZM18.1091 192V66H15.1091V192H18.1091ZM16.6091 67.5H55.1291V64.5H16.6091V67.5ZM55.1291 67.5C67.9405 67.5 77.7944 70.9029 84.8843 77.5354L86.9338 75.3446C79.1437 68.0571 68.4777 64.5 55.1291 64.5V67.5ZM84.8843 77.5354C91.9579 84.1526 95.5691 93.3797 95.5691 105.42H98.5691C98.5691 92.7402 94.7403 82.6474 86.9338 75.3446L84.8843 77.5354ZM95.5691 105.42C95.5691 113.381 93.9894 120.141 90.8953 125.756L93.5228 127.204C96.9087 121.059 98.5691 113.779 98.5691 105.42H95.5691ZM90.8953 125.756C87.8037 131.367 83.347 135.657 77.4878 138.644L78.8503 141.316C85.2311 138.063 90.1345 133.353 93.5228 127.204L90.8953 125.756ZM76.8246 140.645L102.565 192.665L105.253 191.335L79.5135 139.315L76.8246 140.645ZM37.9691 86.88V125.58H40.9691V86.88H37.9691ZM39.4691 127.08H57.1091V124.08H39.4691V127.08ZM57.1091 127.08C62.793 127.08 67.417 125.493 70.7697 122.141L68.6484 120.019C66.0012 122.667 62.2252 124.08 57.1091 124.08V127.08ZM70.7697 122.141C74.1163 118.794 75.7091 114.235 75.7091 108.66H72.7091C72.7091 113.645 71.3019 117.366 68.6484 120.019L70.7697 122.141ZM75.7091 108.66V103.26H72.7091V108.66H75.7091ZM75.7091 103.26C75.7091 97.7426 73.8943 93.2746 70.1453 90.0611L68.1929 92.3389C71.1638 94.8854 72.7091 98.4574 72.7091 103.26H75.7091ZM70.1453 90.0611C66.4299 86.8765 61.3592 85.38 55.1291 85.38V88.38C60.8989 88.38 65.1882 89.7635 68.1929 92.3389L70.1453 90.0611ZM55.1291 85.38H39.4691V88.38H55.1291V85.38ZM180.561 192V193.5H182.061V192H180.561ZM112.161 192H110.661V193.5H112.161V192ZM112.161 171.66V170.16H110.661V171.66H112.161ZM136.641 171.66V173.16H138.141V171.66H136.641ZM136.641 86.34H138.141V84.84H136.641V86.34ZM116.841 86.34H115.341V87.84H116.841V86.34ZM116.841 66V64.5H115.341V66H116.841ZM158.781 66H160.281V64.5H158.781V66ZM158.781 171.66H157.281V173.16H158.781V171.66ZM180.561 171.66H182.061V170.16H180.561V171.66ZM180.561 190.5H112.161V193.5H180.561V190.5ZM113.661 192V171.66H110.661V192H113.661ZM112.161 173.16H136.641V170.16H112.161V173.16ZM138.141 171.66V86.34H135.141V171.66H138.141ZM136.641 84.84H116.841V87.84H136.641V84.84ZM118.341 86.34V66H115.341V86.34H118.341ZM116.841 67.5H158.781V64.5H116.841V67.5ZM157.281 66V171.66H160.281V66H157.281ZM158.781 173.16H180.561V170.16H158.781V173.16ZM179.061 171.66V192H182.061V171.66H179.061ZM216.89 86.88H218.39V85.38H216.89V86.88ZM184.85 86.88H183.35V88.38H184.85V86.88ZM184.85 66V64.5H183.35V66H184.85ZM271.61 66H273.11V64.5H271.61V66ZM271.61 86.88V88.38H273.11V86.88H271.61ZM239.75 86.88V85.38H238.25V86.88H239.75ZM239.75 192V193.5H241.25V192H239.75ZM216.89 192H215.39V193.5H216.89V192ZM216.89 85.38H184.85V88.38H216.89V85.38ZM186.35 86.88V66H183.35V86.88H186.35ZM184.85 67.5H271.61V64.5H184.85V67.5ZM270.11 66V86.88H273.11V66H270.11ZM271.61 85.38H239.75V88.38H271.61V85.38ZM238.25 86.88V192H241.25V86.88H238.25ZM239.75 190.5H216.89V193.5H239.75V190.5ZM218.39 192V86.88H215.39V192H218.39Z" fill="#F4AE3D"/>
</svg>
