<svg width="55" height="55" viewBox="0 0 55 55" fill="none" xmlns="http://www.w3.org/2000/svg">
<path d="M41.6719 41.6627L43.4064 43.3972C47.481 39.3227 50.001 33.7018 50.001 27.4999C50.001 21.2981 47.481 15.669 43.4064 11.5945L41.6719 13.329C45.2964 16.9618 47.5464 21.969 47.5464 27.4999C47.5464 33.0227 45.2964 38.0381 41.6719 41.6627Z" fill="#AEBBC7"/>
<path d="M11.6027 43.4055L13.3373 41.671C9.70455 38.0382 7.45455 33.0228 7.45455 27.5001C7.45455 21.9773 9.70455 16.9619 13.3291 13.3373L11.5945 11.6028C7.52 15.6691 5 21.2982 5 27.5001C5 33.7019 7.52 39.331 11.6027 43.4055Z" fill="#AEBBC7"/>
<path d="M27.4993 44.2728C18.2538 44.2728 10.7266 36.7455 10.7266 27.5C10.7266 18.2464 18.2538 10.7273 27.4993 10.7273C36.7447 10.7273 44.272 18.2464 44.272 27.5C44.272 36.7455 36.7447 44.2728 27.4993 44.2728ZM27.4993 13.1818C19.6038 13.1818 13.1811 19.6046 13.1811 27.5C13.1811 35.3955 19.6038 41.8182 27.4993 41.8182C35.3947 41.8182 41.8175 35.3955 41.8175 27.5C41.8175 19.6046 35.3947 13.1818 27.4993 13.1818Z" fill="#AEBBC7"/>
<path d="M32.0738 25.3238C32.0738 27.6147 30.4293 29.2838 27.762 29.2838H26.2238V33.6283H23.8184V21.3638H27.762C30.4211 21.3638 32.0738 22.992 32.0738 25.3238ZM26.2156 23.6056V27.0256H27.7538C28.8911 27.0256 29.6111 26.412 29.6111 25.3238C29.6111 24.2192 28.8911 23.6056 27.7538 23.6056H26.2156Z" fill="#AEBBC7"/>
</svg>
