<?xml version="1.0" encoding="UTF-8"?><svg xmlns="http://www.w3.org/2000/svg" width="654" height="268.583" xmlns:xlink="http://www.w3.org/1999/xlink" viewBox="0 0 654 268.583"><defs><clipPath id="uuid-2facce51-8277-493b-9109-a98c752ddcff"><rect x="-265.814" y="348.445" width="955.444" height="385.098" style="fill:none; stroke-width:0px;"/></clipPath></defs><g id="uuid-97db6881-f6b1-4ce8-a0b9-55ff6e431b08"><path d="m192.392,94.134l2.403-9.769c.188-.713.056-1.463-.375-2.082-.413-.6-1.088-.975-1.82-1.032-5.009-.413-16.415-1.126-34.612-1.126s-29.584.713-34.593,1.126c-.732.056-1.407.431-1.838,1.051-.413.6-.563,1.351-.356,2.064l2.401,9.764" style="fill:none; stroke:#a6abb0; stroke-linecap:round; stroke-linejoin:round; stroke-width:.5px;"/><path d="m137.202,93.36v-2.439c0-.694.544-1.238,1.238-1.238h28.402c.694,0,1.238.544,1.238,1.238v2.495" style="fill:none; stroke:#a6abb0; stroke-linecap:round; stroke-linejoin:round; stroke-width:.5px;"/><line x1="123.018" y1="83.231" x2="135.899" y2="89.361" style="fill:none; stroke:#a6abb0; stroke-linecap:round; stroke-linejoin:round; stroke-width:.5px;"/><line x1="192.913" y1="83.331" x2="169.372" y2="89.465" style="fill:none; stroke:#a6abb0; stroke-linecap:round; stroke-linejoin:round; stroke-width:.5px;"/><path d="m80.532,195.469c0-20.591-5.925-22.681-9.049-22.681-5.657,0-9.05,11.156-9.05,18.197" style="fill:none; stroke:#a6abb0; stroke-linecap:round; stroke-linejoin:round; stroke-width:.5px;"/><line x1="63.089" y1="157.464" x2="31.541" y2="169.832" style="fill:none; stroke:#a6abb0; stroke-linecap:round; stroke-linejoin:round; stroke-width:.5px;"/><path d="m31.541,171.517l-2.977-119.685c-.095-3.768,1.198-7.466,3.693-10.563l5.941-7.375c.69-.857,1.167-1.828,1.398-2.852l7.938-35.064" style="fill:none; stroke:#a6abb0; stroke-linecap:round; stroke-linejoin:round; stroke-width:.5px;"/><path d="m38.075,41.717l5.652,3.72c.587.386.932.986.932,1.623v11.731c0,.829.583,1.577,1.475,1.891l3.938,1.387c.884.311,1.465,1.048,1.475,1.869l.287,23.72c.006.471-.178.929-.52,1.297l-3.324,3.576c-.337.362-.52.812-.52,1.276v18.189c0,.222-.106.434-.292.588s-.438.234-.695.224l-4.56-.181c-2.609-.104-4.699-1.899-4.823-4.144l-3.337-60.054c-.023-.411.099-.818.349-1.168l3.963-5.543Z" style="fill:none; stroke:#a6abb0; stroke-linecap:round; stroke-linejoin:round; stroke-width:.5px;"/><line x1="34.037" y1="39.06" x2="38.075" y2="41.717" style="fill:none; stroke:#a6abb0; stroke-linecap:round; stroke-linejoin:round; stroke-width:.5px;"/><path d="m50.071,62.068c31.441,8.398,57.467,10.011,107.646,10.011" style="fill:none; stroke:#a6abb0; stroke-linecap:round; stroke-linejoin:round; stroke-width:.5px;"/><path d="m305.238-4.007l-.817,15.748c-.911,25.758,1.692,29.19,1.962,47.077.152,10.096-.508,30.156-.296,48.085.35,29.663-1.729,81.026-6.096,103.068-4.367,22.042-5.766,23.812-19.755,30.568-36.599,17.676-52.611,21.821-122.517,21.821-69.906,0-85.918-4.145-122.517-21.821-13.989-6.756-15.388-8.526-19.755-30.568s-6.446-73.406-6.096-103.068c.212-17.928-.448-37.989-.296-48.085.27-17.887,2.872-21.319,1.962-47.077l-.817-15.748" style="fill:none; stroke:#a6abb0; stroke-linecap:round; stroke-linejoin:round; stroke-width:1.5px;"/><path d="m62.431,190.986c-3.184-1.232-6.221-2.737-9.089-4.512-6.559-4.058-12.438-8.069-16.77-11.136-5.63-3.986-10.382-8.69-14.157-14.057-3.605-5.125-6.141-9.63-7.822-12.979-1.782-3.551-2.792-7.402-2.976-11.266" style="fill:none; stroke:#a6abb0; stroke-linecap:round; stroke-linejoin:round; stroke-width:.5px;"/><path d="m234.903,195.469c-15.693,2.796-41.004,5.812-77.185,5.812-36.181,0-61.492-3.016-77.185-5.812" style="fill:none; stroke:#a6abb0; stroke-linecap:round; stroke-linejoin:round; stroke-width:.5px;"/><path d="m232.756,206.1c-15.815,2.685-40.463,5.438-75.038,5.438-34.574,0-59.222-2.754-75.037-5.438" style="fill:none; stroke:#a6abb0; stroke-linecap:round; stroke-linejoin:round; stroke-width:.5px;"/><path d="m253.51,252.363c7.798-2.183,12.477-6.677,16.22-10.576,3.743-3.899,7.33-7.798,11.385-12.165s4.367-6.238,4.367-8.734c0-2.495,0-5.298,0-7.059s-1.716-2.378-10.293,1.766c-5.303,2.562-31.534,18.498-115.783,18.498s-110.482-15.937-115.783-18.498c-8.578-4.144-10.293-3.527-10.293-1.766v7.059c0,2.495.312,4.367,4.367,8.734,4.055,4.367,7.642,8.266,11.385,12.165,3.743,3.899,8.422,8.392,16.22,10.576" style="fill:none; stroke:#a6abb0; stroke-linecap:round; stroke-linejoin:round; stroke-width:.5px;"/><path d="m229.266,209.801v9.105c0,3.139-2.317,5.799-5.425,6.24-16.316,2.316-37.386,3.959-64.437,3.959h.002c-27.051,0-48.121-1.644-64.437-3.959-3.108-.441-5.425-3.101-5.425-6.24v-9.105" style="fill:none; stroke:#a6abb0; stroke-linecap:round; stroke-linejoin:round; stroke-width:.5px;"/><path d="m304.91,137.036c-.184,3.864-2.286,7.716-4.068,11.266-1.681,3.349-4.217,7.854-7.822,12.979-3.775,5.367-8.527,10.072-14.157,14.057-4.332,3.067-10.212,7.078-16.77,11.136-2.868,1.775-5.905,3.28-9.089,4.512" style="fill:none; stroke:#a6abb0; stroke-linecap:round; stroke-linejoin:round; stroke-width:.5px;"/><path d="m157.718,93.983c45.791,0,74.155.711,89.887,1.307,5.305.202,10.236,2.389,13.526,6.001,3.283,3.6,4.577,8.239,3.548,12.728l-8.234,35.873c-.941,4.106-3.562,7.796-7.381,10.387l-18.93,12.85c-3.538,2.401-7.756,4.01-12.197,4.653l-33.618,4.87c-.361.052-.723.079-1.084.079-1.286,0-2.546-.33-3.632-.961l-3.476-2.029c-.611-.355-1.324-.543-2.06-.543h-16.348s-.001,0-.001,0h-16.348c-.736,0-1.449.188-2.06.543l-3.476,2.029c-1.086.631-2.346.961-3.632.961-.361,0-.723-.027-1.084-.079l-33.618-4.87c-4.441-.643-8.658-2.251-12.197-4.653l-18.93-12.85c-3.819-2.592-6.44-6.281-7.381-10.387l-8.234-35.873c-1.029-4.489.264-9.128,3.548-12.728,3.291-3.611,8.222-5.799,13.526-6.001,15.731-.596,44.096-1.307,89.887-1.307" style="fill:none; stroke:#a6abb0; stroke-linecap:round; stroke-linejoin:round; stroke-width:.5px;"/><path d="m157.718,96.408c45.74,0,74.061.71,89.763,1.306,4.483.171,8.651,2.02,11.435,5.074,2.775,3.045,3.87,6.966,3.001,10.762l-8.234,35.873c-.813,3.54-3.073,6.719-6.363,8.953l-18.932,12.85c-3.166,2.149-6.941,3.59-10.916,4.166l-33.618,4.87c-.943.133-1.884-.044-2.671-.5l-3.476-2.029c-1.082-.628-2.339-.96-3.639-.96h-16.348s-16.348,0-16.348,0c-1.301,0-2.557.332-3.639.96l-3.476,2.029c-.787.456-1.728.633-2.671.5l-33.618-4.87c-3.975-.576-7.75-2.017-10.916-4.166l-18.932-12.85c-3.291-2.234-5.551-5.414-6.363-8.953l-8.234-35.873c-.869-3.795.226-7.717,3.001-10.762,2.785-3.054,6.952-4.904,11.435-5.074,15.702-.596,44.023-1.306,89.763-1.306Z" style="fill:none; stroke:#a6abb0; stroke-linecap:round; stroke-linejoin:round; stroke-width:.5px;"/><path d="m253.682,148.86c-.499,4.615-3.966,8.284-7.812,10.574,0,0-11.038,7.515-11.038,7.515l-5.519,3.757c-3.662,2.637-8.112,4.272-12.579,4.811,0,0-6.607.967-6.607.967l-26.462,3.862c-.632.056-1.279-.012-1.891-.206-2.354-.884-4.739-3.289-7.393-3.285-8.201.002-21.793.021-30.016-.007,0,0-3.31.003-3.31.003-1.938-.061-4.179,1.583-5.788,2.476-1.019.673-2.258,1.161-3.495,1.012-4.683-.688-28.863-4.216-33.067-4.837-4.465-.54-8.912-2.174-12.571-4.811,0,0-5.518-3.759-5.518-3.759l-11.036-7.517c-3.834-2.289-7.315-5.949-7.825-10.554,1.409,4.311,4.617,7.42,8.391,9.721,0,0,11.061,7.481,11.061,7.481l5.531,3.741c3.596,2.559,7.753,4.067,12.128,4.593,4.05.57,28.377,4.065,33.011,4.719.996.126,1.958-.33,2.769-.86,1.83-1.059,4.165-2.707,6.354-2.665,0,0,3.367-.015,3.367-.015,8.263-.024,21.834-.026,30.073.01,2.489-.018,4.99,1.942,7.074,3.083.615.353,1.337.5,2.048.439,0,0,26.401-3.78,26.401-3.78,3.685-.601,9.496-1.056,12.965-2.481,3.746-1.273,7.991-4.67,11.294-6.803,0,0,11.059-7.484,11.059-7.484,3.768-2.302,6.979-5.4,8.405-9.701h0Z" style="fill:#a6abb0; stroke-width:0px;"/><path d="m234.903,195.469c0-20.591,5.925-22.681,9.049-22.681,5.657,0,9.05,11.156,9.05,18.197" style="fill:none; stroke:#a6abb0; stroke-linecap:round; stroke-linejoin:round; stroke-width:.5px;"/><line x1="252.346" y1="157.464" x2="283.894" y2="169.832" style="fill:none; stroke:#a6abb0; stroke-linecap:round; stroke-linejoin:round; stroke-width:.5px;"/><path d="m277.361,41.717l-5.652,3.72c-.587.386-.932.986-.932,1.623v11.731c0,.829-.583,1.577-1.475,1.891l-3.938,1.387c-.884.311-1.465,1.048-1.475,1.869l-.287,23.72c-.006.471.178.929.52,1.297l3.324,3.576c.337.362.52.812.52,1.276v18.189c0,.222.106.434.292.588s.438.234.695.224l4.56-.181c2.609-.104,4.699-1.899,4.823-4.144l3.337-60.054c.023-.411-.099-.818-.349-1.168l-3.963-5.543Z" style="fill:none; stroke:#a6abb0; stroke-linecap:round; stroke-linejoin:round; stroke-width:.5px;"/><line x1="281.398" y1="39.06" x2="277.361" y2="41.717" style="fill:none; stroke:#a6abb0; stroke-linecap:round; stroke-linejoin:round; stroke-width:.5px;"/><path d="m265.364,62.068c-31.441,8.398-57.467,10.011-107.646,10.011" style="fill:none; stroke:#a6abb0; stroke-linecap:round; stroke-linejoin:round; stroke-width:.5px;"/><path d="m263.863,66.115c-30.777,8.052-56.767,9.614-106.145,9.614-56.205,0-77.04-2.306-106.145-9.598" style="fill:none; stroke:#a6abb0; stroke-linecap:round; stroke-linejoin:round; stroke-width:.5px;"/><path d="m159.383,189.275c0,.791-.745,1.433-1.665,1.433s-1.665-.642-1.665-1.433v-5.46c0-.791.745-1.433,1.665-1.433s1.665.642,1.665,1.433v5.46Z" style="fill:none; stroke:#a6abb0; stroke-linecap:round; stroke-linejoin:round; stroke-width:.5px;"/><path d="m180.206,184.347c-3.303,6.751-5.76,10.332-7.047,11.984-.578.741-1.551,1.187-2.588,1.187h-12.852s0,0,0,0h-12.852c-1.037,0-2.011-.446-2.588-1.187-1.287-1.652-3.745-5.233-7.047-11.984" style="fill:none; stroke:#a6abb0; stroke-linecap:round; stroke-linejoin:round; stroke-width:.5px;"/><line x1="50.558" y1="112.969" x2="46.482" y2="112.807" style="fill:none; stroke:#a6abb0; stroke-linecap:round; stroke-linejoin:round; stroke-width:.5px;"/><line x1="264.877" y1="112.969" x2="268.953" y2="112.807" style="fill:none; stroke:#a6abb0; stroke-linecap:round; stroke-linejoin:round; stroke-width:.5px;"/><path d="m49.781,147.838c0,2.28-1.634,4.219-3.963,5.012v1.617h-4.564v-1.617c-2.31-.776-3.963-2.732-3.963-5.012s1.653-4.236,3.963-5.012v-2.247h4.564v2.247c2.329.792,3.963,2.732,3.963,5.012Z" style="fill:none; stroke:#a6abb0; stroke-linecap:round; stroke-linejoin:round; stroke-width:.5px;"/><line x1="11.529" y1="28.939" x2="15.167" y2="149.424" style="fill:none; stroke:#a6abb0; stroke-linecap:round; stroke-linejoin:round; stroke-width:.5px;"/><line x1="303.908" y1="28.939" x2="300.27" y2="149.424" style="fill:none; stroke:#a6abb0; stroke-linecap:round; stroke-linejoin:round; stroke-width:.5px;"/><path d="m38.539,33.164c-4.612-2.026-7.247-10.08-7.544-16.434-.165-3.518-.729-10.845-1.028-20.57" style="fill:none; stroke:#a6abb0; stroke-linecap:round; stroke-linejoin:round; stroke-width:.5px;"/><path d="m283.854,171.416l3.017-119.583c.095-3.768-1.198-7.466-3.693-10.563l-5.941-7.375c-.69-.857-1.167-1.828-1.398-2.852l-7.938-35.064" style="fill:none; stroke:#a6abb0; stroke-linecap:round; stroke-linejoin:round; stroke-width:.5px;"/><path d="m276.896,33.164c4.612-2.026,7.247-10.08,7.544-16.434.143-3.042.61-8.931.891-16.757" style="fill:none; stroke:#a6abb0; stroke-linecap:round; stroke-linejoin:round; stroke-width:.5px;"/><line x1="284.44" y1="16.891" x2="279.253" y2="-3.305" style="fill:none; stroke:#a6abb0; stroke-linecap:round; stroke-linejoin:round; stroke-width:.5px;"/><line x1="30.995" y1="16.891" x2="35.798" y2="-1.813" style="fill:none; stroke:#a6abb0; stroke-linecap:round; stroke-linejoin:round; stroke-width:.5px;"/><path d="m60.646,195.601c0-5.177,4.933-8.02,11.017-6.35,6.085,1.67,11.017,7.22,11.017,12.397v14.784c0,12.312-22.035,8.669-22.035-3.79v-17.041Z" style="fill:none; stroke:#a6abb0; stroke-linecap:round; stroke-linejoin:round; stroke-width:.5px;"/><path d="m60.646,200.301c0-12.312,22.035-8.669,22.035,3.79" style="fill:none; stroke:#a6abb0; stroke-linecap:round; stroke-linejoin:round; stroke-width:.5px;"/><path d="m63.272,201.24c0-1.596.493-2.759,1.508-3.56,1.002-.791,2.525-1.226,4.285-1.226,4.45,0,10.615,2.979,10.615,8.576v12.34c0,4.164-3.629,4.785-5.793,4.785-4.45,0-10.615-2.981-10.615-8.576v-12.34Z" style="fill:none; stroke:#a6abb0; stroke-linecap:round; stroke-linejoin:round; stroke-width:.5px;"/><path d="m252.163,201.24c0-1.596-.493-2.759-1.508-3.56-1.002-.791-2.525-1.226-4.285-1.226-4.45,0-10.615,2.979-10.615,8.576v12.34c0,4.164,3.629,4.785,5.793,4.785,4.45,0,10.615-2.981,10.615-8.576v-12.34Z" style="fill:none; stroke:#a6abb0; stroke-linecap:round; stroke-linejoin:round; stroke-width:.5px;"/><path d="m254.79,195.601c0-5.177-4.933-8.02-11.017-6.35-6.085,1.67-11.017,7.22-11.017,12.397v14.784c0,12.312,22.035,8.669,22.035-3.79v-17.041Z" style="fill:none; stroke:#a6abb0; stroke-linecap:round; stroke-linejoin:round; stroke-width:.5px;"/><path d="m254.79,200.301c0-12.312-22.035-8.669-22.035,3.79" style="fill:none; stroke:#a6abb0; stroke-linecap:round; stroke-linejoin:round; stroke-width:.5px;"/><path d="m60.646,202.277c-11.929-5.615-25.237-15.18-30.332-19.027-5.095-3.847-8.491-8.861-8.82-23.302" style="fill:none; stroke:#a6abb0; stroke-linecap:round; stroke-linejoin:round; stroke-width:.5px;"/><path d="m254.79,202.277c11.929-5.615,25.237-15.18,30.332-19.027,5.095-3.847,8.491-8.861,8.82-23.302" style="fill:none; stroke:#a6abb0; stroke-linecap:round; stroke-linejoin:round; stroke-width:.5px;"/><path d="m10.874,165.69c.593,8.964,3.415,22.101,4.818,28.224.5,2.181,1.498,4.233,2.915,5.965l10.351,12.652c.408.499.966.855,1.59,1.016l2.781.715s7.59,8.395,14.452,15.985,9.771,9.685,24.642,12.269c34.103,5.927,55.018,7.174,86.982,7.174" style="fill:none; stroke:#a6abb0; stroke-linecap:round; stroke-linejoin:round; stroke-width:.5px;"/><path d="m304.561,165.69c-.593,8.964-3.415,22.101-4.818,28.224-.5,2.181-1.498,4.233-2.915,5.965l-10.351,12.652c-.286.35-.645.629-1.049.82" style="fill:none; stroke:#a6abb0; stroke-linecap:round; stroke-linejoin:round; stroke-width:.5px;"/><path d="m285.122,183.25s.552,12.685,1.176,16.22,1.872,3.535,4.263,1.04,6.446-8.214,7.902-10.501,4.373-10.825,4.908-14.449" style="fill:none; stroke:#a6abb0; stroke-linecap:round; stroke-linejoin:round; stroke-width:.5px;"/><path d="m60.059,142.042c.512-10.467,11.203-11.421,22.017,16.86" style="fill:none; stroke:#a6abb0; stroke-linecap:round; stroke-linejoin:round; stroke-width:.5px;"/><path d="m82.575,168.189l.442-7.348h18.197c.493,0,.966.198,1.312.548s.538.826.531,1.319l-.071,5.464" style="fill:none; stroke:#a6abb0; stroke-linecap:round; stroke-linejoin:round; stroke-width:.5px;"/><path d="m255.375,142.042c-.512-10.467-11.203-11.421-22.017,16.86" style="fill:none; stroke:#a6abb0; stroke-linecap:round; stroke-linejoin:round; stroke-width:.5px;"/><path d="m232.859,168.189l-.442-7.348h-18.197c-.493,0-.966.198-1.312.548s-.538.826-.531,1.319l.071,5.464" style="fill:none; stroke:#a6abb0; stroke-linecap:round; stroke-linejoin:round; stroke-width:.5px;"/><path d="m190.734,168.173l-2.535-27.291c-.291-3.137-2.891-5.561-6.041-5.622-6.55-.127-17.453-.315-24.441-.315-10.536,0-24.405.349-24.405.349-3.166.045-5.788,2.47-6.08,5.622l-2.531,27.257" style="fill:none; stroke:#a6abb0; stroke-linecap:round; stroke-linejoin:round; stroke-width:.5px;"/><path d="m258.016,130.535c1.525-6.643-1.523-14.92-18.957-16.412-21.367-1.829-50.392-2.591-81.342-2.591-30.95,0-59.975.762-81.342,2.591-17.435,1.493-20.482,9.77-18.957,16.412" style="fill:none; stroke:#a6abb0; stroke-linecap:round; stroke-linejoin:round; stroke-width:.5px;"/><path d="m202.314,76.587h9.826c1.42,0,2.573,1.153,2.573,2.573v15.051h-14.972v-15.051c0-1.42,1.153-2.573,2.573-2.573Z" style="fill:none; stroke:#a6abb0; stroke-linecap:round; stroke-linejoin:round; stroke-width:.5px;"/><ellipse cx="206.832" cy="83.157" rx="4.057" ry="3.239" style="fill:none; stroke:#a6abb0; stroke-linecap:round; stroke-linejoin:round; stroke-width:.5px;"/><path d="m265.062,39.418l-.17,8.079c-10.994,4.755-23.48,7.683-37.375,9.483-.497.064-.949.321-1.26.714l-4.197,5.321c-.322.408-.796.668-1.312.72-3.667.373-7.425.679-11.272.931-.595.039-1.175-.201-1.569-.649l-3.76-4.287c-.385-.439-.952-.679-1.536-.651-9.884.479-20.325.659-31.3.723-.506.003-.99.206-1.347.564l-3.721,3.733c-.359.36-.846.563-1.354.564-2.367.005-4.757.007-7.171.007-2.414,0-4.805-.002-7.171-.007-.508-.001-.995-.204-1.354-.564l-3.721-3.733c-.357-.358-.841-.561-1.347-.564-10.975-.064-21.416-.244-31.3-.723-.584-.028-1.151.212-1.536.651l-3.76,4.287c-.393.449-.973.688-1.569.649-3.848-.252-7.606-.558-11.272-.931-.517-.053-.991-.313-1.312-.72l-4.197-5.321c-.31-.394-.762-.65-1.26-.714-13.895-1.8-26.381-4.728-37.375-9.483l-.17-8.079" style="fill:none; stroke:#a6abb0; stroke-linecap:round; stroke-linejoin:round; stroke-width:.5px;"/><path d="m276.896,33.164c-28.006,17.833-68.374,18.665-119.178,18.665-50.804,0-91.172-.832-119.178-18.665" style="fill:none; stroke:#a6abb0; stroke-linecap:round; stroke-linejoin:round; stroke-width:.5px;"/><path d="m252.68,80.2c.41.33.599.777.566,1.218-.028.369-.211.733-.55,1.02l-4.538,3.84c-.745.63-1.959.65-2.712.044l-1.32-1.061c-.41-.33-.599-.777-.566-1.218.028-.369.211-.733.55-1.02l4.538-3.84c.745-.63,1.959-.65,2.712-.044l1.32,1.061Z" style="fill:none; stroke:#a6abb0; stroke-linecap:round; stroke-linejoin:round; stroke-width:.5px;"/><path d="m243.56,84.043l.535-6.353c.028-.369.211-.733.55-1.02l4.538-3.84c.745-.63,1.959-.65,2.712-.044l1.32,1.061c.41.33.599.777.566,1.218l-.535,6.353" style="fill:none; stroke:#a6abb0; stroke-linecap:round; stroke-linejoin:round; stroke-width:.5px;"/><path d="m259.747,83.239c.41.33.599.777.566,1.218-.028.369-.211.733-.55,1.02l-4.538,3.84c-.745.63-1.959.65-2.712.044l-1.32-1.061c-.41-.33-.599-.777-.566-1.218.028-.369.211-.733.55-1.02l4.538-3.84c.745-.63,1.959-.65,2.712-.044l1.32,1.061Z" style="fill:none; stroke:#a6abb0; stroke-linecap:round; stroke-linejoin:round; stroke-width:.5px;"/><path d="m253.518,78.181l2.732-2.312c.745-.63,1.959-.65,2.712-.044l1.32,1.061c.41.33.599.777.566,1.218l-.535,6.353" style="fill:none; stroke:#a6abb0; stroke-linecap:round; stroke-linejoin:round; stroke-width:.5px;"/><line x1="250.627" y1="87.082" x2="250.889" y2="83.966" style="fill:none; stroke:#a6abb0; stroke-linecap:round; stroke-linejoin:round; stroke-width:.5px;"/><path d="m62.754,80.2c-.41.33-.599.777-.566,1.218.028.369.211.733.55,1.02l4.538,3.84c.745.63,1.959.65,2.712.044l1.32-1.061c.41-.33.599-.777.566-1.218-.028-.369-.211-.733-.55-1.02l-4.538-3.84c-.745-.63-1.959-.65-2.712-.044l-1.32,1.061Z" style="fill:none; stroke:#a6abb0; stroke-linecap:round; stroke-linejoin:round; stroke-width:.5px;"/><path d="m71.874,84.043l-.535-6.353c-.028-.369-.211-.733-.55-1.02l-4.538-3.84c-.745-.63-1.959-.65-2.712-.044l-1.32,1.061c-.41.33-.599.777-.566,1.218l.535,6.353" style="fill:none; stroke:#a6abb0; stroke-linecap:round; stroke-linejoin:round; stroke-width:.5px;"/><path d="m55.687,83.239c-.41.33-.599.777-.566,1.218.028.369.211.733.55,1.02l4.538,3.84c.745.63,1.959.65,2.712.044l1.32-1.061c.41-.33.599-.777.566-1.218-.028-.369-.211-.733-.55-1.02l-4.538-3.84c-.745-.63-1.959-.65-2.712-.044l-1.32,1.061Z" style="fill:none; stroke:#a6abb0; stroke-linecap:round; stroke-linejoin:round; stroke-width:.5px;"/><path d="m61.916,78.181l-2.732-2.312c-.745-.63-1.959-.65-2.712-.044l-1.32,1.061c-.41.33-.599.777-.566,1.218l.535,6.353" style="fill:none; stroke:#a6abb0; stroke-linecap:round; stroke-linejoin:round; stroke-width:.5px;"/><line x1="64.807" y1="87.082" x2="64.544" y2="83.966" style="fill:none; stroke:#a6abb0; stroke-linecap:round; stroke-linejoin:round; stroke-width:.5px;"/><polyline points="72.409 70.685 72.409 72.027 74.566 76.319 82.197 77.212 85.236 74.322 85.236 72.649" style="fill:none; stroke:#a6abb0; stroke-linecap:round; stroke-linejoin:round; stroke-width:.5px;"/><polyline points="243.025 70.685 243.025 72.027 240.868 76.319 233.237 77.212 230.198 74.322 230.198 72.649" style="fill:none; stroke:#a6abb0; stroke-linecap:round; stroke-linejoin:round; stroke-width:.5px;"/><ellipse cx="236.841" cy="74.089" rx="1.481" ry="1.197" transform="translate(-7.536 30.93) rotate(-7.355)" style="fill:none; stroke:#a6abb0; stroke-linecap:round; stroke-linejoin:round; stroke-width:.5px;"/><ellipse cx="78.593" cy="74.089" rx="1.197" ry="1.481" transform="translate(-4.947 142.55) rotate(-82.645)" style="fill:none; stroke:#a6abb0; stroke-linecap:round; stroke-linejoin:round; stroke-width:.5px;"/><path d="m95.226,75.733c.728,3.639,3.847,16.532,3.847,16.532" style="fill:none; stroke:#a6abb0; stroke-linecap:round; stroke-linejoin:round; stroke-width:.5px;"/><line x1="59.072" y1="88.354" x2="59.427" y2="95.392" style="fill:none; stroke:#a6abb0; stroke-linecap:round; stroke-linejoin:round; stroke-width:.5px;"/><ellipse cx="87.98" cy="86.992" rx="2.939" ry="4.055" transform="translate(-22.093 143.49) rotate(-71.847)" style="fill:none; stroke:#a6abb0; stroke-linecap:round; stroke-linejoin:round; stroke-width:.5px;"/><path d="m101.745,90.609h3.431c1.557,0,2.819-1.117,2.819-2.495s-1.262-2.495-2.819-2.495h-4.575" style="fill:none; stroke:#a6abb0; stroke-linecap:round; stroke-linejoin:round; stroke-width:.5px;"/><ellipse cx="228.732" cy="86.881" rx="4.647" ry="3.563" transform="translate(-15.24 68.323) rotate(-16.449)" style="fill:none; stroke:#a6abb0; stroke-linecap:round; stroke-linejoin:round; stroke-width:.5px;"/><path d="m285.482,214.261s-7.59,8.395-14.452,15.985c-6.862,7.59-9.771,9.685-24.642,12.269-34.103,5.927-55.018,7.174-86.982,7.174" style="fill:none; stroke:#a6abb0; stroke-linecap:round; stroke-linejoin:round; stroke-width:.5px;"/><path d="m278.544,214.065c-2.69,6.504-15.091,10.967-24.59,16.037l-12.808,3.017-3.06-.723-.007-.044c-18.862,2.883-44.396,5.444-78.673,5.444-34.277,0-59.811-2.561-78.673-5.444l-.007.044-3.06.723-12.808-3.017c-9.5-5.07-21.901-9.533-24.59-16.037" style="fill:none; stroke:#a6abb0; stroke-linecap:round; stroke-linejoin:round; stroke-width:.5px;"/><line x1="80.726" y1="232.395" x2="80.682" y2="227.728" style="fill:none; stroke:#a6abb0; stroke-linecap:round; stroke-linejoin:round; stroke-width:.5px;"/><line x1="64.858" y1="230.101" x2="64.444" y2="223.821" style="fill:none; stroke:#a6abb0; stroke-linecap:round; stroke-linejoin:round; stroke-width:.5px;"/><line x1="238.086" y1="232.395" x2="238.13" y2="227.728" style="fill:none; stroke:#a6abb0; stroke-linecap:round; stroke-linejoin:round; stroke-width:.5px;"/><line x1="253.954" y1="230.101" x2="254.368" y2="223.821" style="fill:none; stroke:#a6abb0; stroke-linecap:round; stroke-linejoin:round; stroke-width:.5px;"/><path d="m165.923,170.045l-2.087-23.537c-.04-.449-.416-.793-.866-.793h-5.252s-5.252,0-5.252,0c-.45,0-.826.344-.866.793l-2.087,23.537" style="fill:none; stroke:#a6abb0; stroke-linecap:round; stroke-linejoin:round; stroke-width:.5px;"/><polyline points="102.986 176.119 102.986 168.173 124.7 168.173 128.027 170.045 149.513 170.045 151.177 171.189 157.718 171.189 164.26 171.189 165.923 170.045 187.406 170.045 190.734 168.173 212.448 168.173 212.448 176.119" style="fill:none; stroke:#a6abb0; stroke-linecap:round; stroke-linejoin:round; stroke-width:.5px;"/><path d="m413.391,195.496c0-20.591-5.925-22.681-9.049-22.681-5.657,0-9.05,11.156-9.05,18.197" style="fill:none; stroke:#a6abb0; stroke-linecap:round; stroke-linejoin:round; stroke-width:.5px;"/><line x1="395.947" y1="157.491" x2="364.399" y2="169.859" style="fill:none; stroke:#a6abb0; stroke-linecap:round; stroke-linejoin:round; stroke-width:.5px;"/><path d="m364.399,171.544l-2.977-119.685c-.095-3.768,1.198-7.466,3.693-10.563l5.941-7.375c.69-.857,1.167-1.828,1.398-2.852l7.938-35.064" style="fill:none; stroke:#a6abb0; stroke-linecap:round; stroke-linejoin:round; stroke-width:.5px;"/><path d="m370.933,41.744l5.652,3.72c.587.386.932.986.932,1.623v11.731c0,.829.583,1.577,1.475,1.891l3.938,1.387c.884.311,1.465,1.048,1.475,1.869l.287,23.72c.006.471-.178.929-.52,1.297l-3.324,3.576c-.337.362-.52.812-.52,1.276v18.189c0,.222-.106.434-.292.588s-.438.234-.695.224l-4.56-.181c-2.609-.104-4.699-1.899-4.823-4.144l-3.337-60.054c-.023-.411.099-.818.349-1.168l3.963-5.543Z" style="fill:none; stroke:#a6abb0; stroke-linecap:round; stroke-linejoin:round; stroke-width:.5px;"/><line x1="366.895" y1="39.087" x2="370.933" y2="41.744" style="fill:none; stroke:#a6abb0; stroke-linecap:round; stroke-linejoin:round; stroke-width:.5px;"/><path d="m382.929,62.095c31.441,8.398,57.467,10.011,107.646,10.011" style="fill:none; stroke:#a6abb0; stroke-linecap:round; stroke-linejoin:round; stroke-width:.5px;"/><path d="m638.096-3.98l-.817,15.748c-.911,25.758,1.692,29.19,1.962,47.077.152,10.096-.508,30.156-.296,48.085.35,29.663-1.729,81.026-6.096,103.068s-5.766,23.812-19.755,30.568c-36.599,17.676-52.611,21.821-122.517,21.821-69.906,0-85.918-4.145-122.517-21.821-13.989-6.756-15.388-8.526-19.755-30.568-4.367-22.042-6.446-73.406-6.096-103.068.212-17.928-.448-37.989-.296-48.085.27-17.887,2.872-21.319,1.962-47.077l-.817-15.748" style="fill:none; stroke:#a6abb0; stroke-linecap:round; stroke-linejoin:round; stroke-width:1.5px;"/><path d="m395.29,191.013c-3.184-1.232-6.221-2.737-9.089-4.512-6.559-4.058-12.438-8.069-16.77-11.136-5.63-3.986-10.382-8.69-14.157-14.057-3.605-5.125-6.141-9.63-7.822-12.979-1.782-3.551-2.792-7.402-2.976-11.266" style="fill:none; stroke:#a6abb0; stroke-linecap:round; stroke-linejoin:round; stroke-width:.5px;"/><path d="m567.761,195.496c-15.693,2.796-41.004,5.812-77.185,5.812-36.181,0-61.492-3.016-77.185-5.812" style="fill:none; stroke:#a6abb0; stroke-linecap:round; stroke-linejoin:round; stroke-width:.5px;"/><path d="m565.614,206.127c-15.815,2.685-40.463,5.438-75.038,5.438-34.574,0-59.222-2.754-75.037-5.438" style="fill:none; stroke:#a6abb0; stroke-linecap:round; stroke-linejoin:round; stroke-width:.5px;"/><path d="m586.369,252.39c7.798-2.183,12.477-6.677,16.22-10.576,3.743-3.899,7.33-7.798,11.385-12.165,4.055-4.367,4.367-6.238,4.367-8.734,0-2.495,0-5.298,0-7.059,0-1.761-1.716-2.378-10.293,1.766-5.303,2.562-31.534,18.498-115.783,18.498-84.251,0-110.482-15.937-115.783-18.498-8.578-4.144-10.293-3.527-10.293-1.766v7.059c0,2.495.312,4.367,4.367,8.734,4.055,4.367,7.642,8.266,11.385,12.165,3.743,3.899,8.422,8.392,16.22,10.576" style="fill:none; stroke:#a6abb0; stroke-linecap:round; stroke-linejoin:round; stroke-width:.5px;"/><path d="m562.124,209.828v9.105c0,3.139-2.317,5.799-5.425,6.24-16.316,2.316-37.386,3.959-64.437,3.959h.002c-27.051,0-48.121-1.644-64.437-3.959-3.108-.441-5.425-3.101-5.425-6.24v-9.105" style="fill:none; stroke:#a6abb0; stroke-linecap:round; stroke-linejoin:round; stroke-width:.5px;"/><path d="m637.768,137.063c-.184,3.864-2.286,7.716-4.068,11.266-1.681,3.349-4.217,7.854-7.822,12.979-3.775,5.367-8.527,10.072-14.157,14.057-4.332,3.067-10.212,7.078-16.77,11.136-2.868,1.775-5.905,3.28-9.089,4.512" style="fill:none; stroke:#a6abb0; stroke-linecap:round; stroke-linejoin:round; stroke-width:.5px;"/><path d="m490.577,94.01c45.791,0,74.155.711,89.887,1.307,5.305.202,10.236,2.389,13.526,6.001,3.283,3.6,4.577,8.239,3.548,12.728l-8.234,35.873c-.941,4.106-3.562,7.796-7.381,10.387l-18.93,12.85c-3.538,2.401-7.756,4.01-12.197,4.653l-33.618,4.87c-.361.052-.723.079-1.084.079-1.286,0-2.546-.33-3.632-.961l-3.476-2.029c-.611-.355-1.324-.543-2.06-.543h-16.348s-.001,0-.001,0h-16.348c-.736,0-1.449.188-2.06.543l-3.476,2.029c-1.086.631-2.346.961-3.632.961-.361,0-.723-.027-1.084-.079l-33.618-4.87c-4.441-.643-8.658-2.251-12.197-4.653l-18.93-12.85c-3.819-2.592-6.44-6.281-7.381-10.387l-8.234-35.873c-1.029-4.489.264-9.128,3.548-12.728,3.291-3.611,8.222-5.799,13.526-6.001,15.731-.596,44.096-1.307,89.887-1.307" style="fill:none; stroke:#a6abb0; stroke-linecap:round; stroke-linejoin:round; stroke-width:.5px;"/><path d="m490.576,96.435c45.74,0,74.061.71,89.763,1.306,4.483.171,8.651,2.02,11.435,5.074,2.775,3.045,3.87,6.966,3.001,10.762l-8.234,35.873c-.813,3.54-3.073,6.719-6.363,8.953l-18.932,12.85c-3.166,2.149-6.941,3.59-10.916,4.166l-33.618,4.87c-.943.133-1.884-.044-2.671-.5l-3.476-2.029c-1.082-.628-2.339-.96-3.639-.96h-16.348s-16.348,0-16.348,0c-1.301,0-2.557.332-3.639.96l-3.476,2.029c-.787.456-1.728.633-2.671.5l-33.618-4.87c-3.975-.576-7.75-2.017-10.916-4.166l-18.932-12.85c-3.291-2.234-5.551-5.414-6.363-8.953l-8.234-35.873c-.869-3.795.226-7.717,3.001-10.762,2.785-3.054,6.952-4.904,11.435-5.074,15.702-.596,44.023-1.306,89.763-1.306Z" style="fill:none; stroke:#a6abb0; stroke-linecap:round; stroke-linejoin:round; stroke-width:.5px;"/><path d="m586.541,148.887c-.499,4.615-3.966,8.284-7.812,10.574,0,0-11.038,7.515-11.038,7.515l-5.519,3.757c-3.662,2.637-8.112,4.272-12.579,4.811,0,0-6.607.967-6.607.967l-26.462,3.862c-.632.056-1.279-.012-1.891-.206-2.354-.884-4.739-3.289-7.393-3.285-8.201.002-21.793.021-30.016-.007,0,0-3.31.003-3.31.003-1.938-.061-4.179,1.583-5.788,2.476-1.019.673-2.258,1.161-3.495,1.012-4.683-.688-28.863-4.216-33.067-4.837-4.465-.54-8.912-2.174-12.571-4.811,0,0-5.518-3.759-5.518-3.759l-11.036-7.517c-3.834-2.289-7.315-5.949-7.825-10.554,1.409,4.311,4.617,7.42,8.391,9.721,0,0,11.061,7.481,11.061,7.481l5.531,3.74c3.596,2.559,7.753,4.068,12.128,4.593,4.05.57,28.377,4.065,33.011,4.719.996.126,1.958-.33,2.768-.86,1.83-1.059,4.165-2.707,6.354-2.665,0,0,3.367-.015,3.367-.015,8.263-.024,21.834-.026,30.073.01,2.489-.018,4.99,1.942,7.074,3.083.615.353,1.337.5,2.048.439l26.401-3.78c3.685-.601,9.496-1.056,12.965-2.481,3.746-1.273,7.991-4.67,11.294-6.803,0,0,11.059-7.484,11.059-7.484,3.768-2.302,6.979-5.4,8.405-9.701h0Z" style="fill:#a6abb0; stroke-width:0px;"/><path d="m567.761,195.496c0-20.591,5.925-22.681,9.049-22.681,5.657,0,9.05,11.156,9.05,18.197" style="fill:none; stroke:#a6abb0; stroke-linecap:round; stroke-linejoin:round; stroke-width:.5px;"/><line x1="585.204" y1="157.491" x2="616.752" y2="169.859" style="fill:none; stroke:#a6abb0; stroke-linecap:round; stroke-linejoin:round; stroke-width:.5px;"/><path d="m610.219,41.744l-5.652,3.72c-.587.386-.932.986-.932,1.623v11.731c0,.829-.583,1.577-1.475,1.891l-3.938,1.387c-.884.311-1.465,1.048-1.475,1.869l-.287,23.72c-.006.471.178.929.52,1.297l3.324,3.576c.337.362.52.812.52,1.276v18.189c0,.222.106.434.292.588s.438.234.695.224l4.56-.181c2.609-.104,4.699-1.899,4.823-4.144l3.337-60.054c.023-.411-.099-.818-.349-1.168l-3.963-5.543Z" style="fill:none; stroke:#a6abb0; stroke-linecap:round; stroke-linejoin:round; stroke-width:.5px;"/><line x1="614.256" y1="39.087" x2="610.219" y2="41.744" style="fill:none; stroke:#a6abb0; stroke-linecap:round; stroke-linejoin:round; stroke-width:.5px;"/><path d="m598.222,62.095c-31.441,8.398-57.467,10.011-107.646,10.011" style="fill:none; stroke:#a6abb0; stroke-linecap:round; stroke-linejoin:round; stroke-width:.5px;"/><path d="m596.721,66.142c-30.777,8.052-56.767,9.614-106.145,9.614-56.205,0-77.04-2.306-106.145-9.598" style="fill:none; stroke:#a6abb0; stroke-linecap:round; stroke-linejoin:round; stroke-width:.5px;"/><path d="m492.242,189.302c0,.791-.745,1.433-1.665,1.433s-1.665-.642-1.665-1.433v-5.46c0-.791.745-1.433,1.665-1.433s1.665.642,1.665,1.433v5.46Z" style="fill:none; stroke:#a6abb0; stroke-linecap:round; stroke-linejoin:round; stroke-width:.5px;"/><path d="m513.065,184.374c-3.303,6.751-5.76,10.332-7.047,11.984-.578.741-1.551,1.187-2.588,1.187h-12.852s0,0,0,0h-12.852c-1.037,0-2.011-.446-2.588-1.187-1.287-1.652-3.745-5.233-7.047-11.984" style="fill:none; stroke:#a6abb0; stroke-linecap:round; stroke-linejoin:round; stroke-width:.5px;"/><line x1="383.416" y1="112.996" x2="379.34" y2="112.834" style="fill:none; stroke:#a6abb0; stroke-linecap:round; stroke-linejoin:round; stroke-width:.5px;"/><line x1="597.736" y1="112.996" x2="601.812" y2="112.834" style="fill:none; stroke:#a6abb0; stroke-linecap:round; stroke-linejoin:round; stroke-width:.5px;"/><path d="m382.64,147.865c0,2.28-1.634,4.219-3.963,5.012v1.617h-4.564v-1.617c-2.31-.776-3.963-2.732-3.963-5.012s1.653-4.236,3.963-5.012v-2.247h4.564v2.247c2.329.792,3.963,2.732,3.963,5.012Z" style="fill:none; stroke:#a6abb0; stroke-linecap:round; stroke-linejoin:round; stroke-width:.5px;"/><line x1="344.387" y1="28.966" x2="348.025" y2="149.451" style="fill:none; stroke:#a6abb0; stroke-linecap:round; stroke-linejoin:round; stroke-width:.5px;"/><line x1="636.766" y1="28.966" x2="633.128" y2="149.451" style="fill:none; stroke:#a6abb0; stroke-linecap:round; stroke-linejoin:round; stroke-width:.5px;"/><path d="m371.398,33.191c-4.612-2.026-7.247-10.08-7.544-16.434-.165-3.518-.729-10.845-1.028-20.57" style="fill:none; stroke:#a6abb0; stroke-linecap:round; stroke-linejoin:round; stroke-width:.5px;"/><path d="m616.713,171.443l3.017-119.583c.095-3.768-1.198-7.466-3.693-10.563l-5.941-7.375c-.69-.857-1.167-1.828-1.398-2.852l-7.938-35.064" style="fill:none; stroke:#a6abb0; stroke-linecap:round; stroke-linejoin:round; stroke-width:.5px;"/><path d="m609.754,33.191c4.612-2.026,7.247-10.08,7.544-16.434.143-3.042.61-8.931.891-16.757" style="fill:none; stroke:#a6abb0; stroke-linecap:round; stroke-linejoin:round; stroke-width:.5px;"/><line x1="617.299" y1="16.918" x2="612.112" y2="-3.278" style="fill:none; stroke:#a6abb0; stroke-linecap:round; stroke-linejoin:round; stroke-width:.5px;"/><line x1="363.853" y1="16.918" x2="368.657" y2="-1.786" style="fill:none; stroke:#a6abb0; stroke-linecap:round; stroke-linejoin:round; stroke-width:.5px;"/><path d="m393.505,195.628c0-5.177,4.933-8.02,11.017-6.35,6.085,1.67,11.017,7.22,11.017,12.397v14.784c0,12.312-22.035,8.669-22.035-3.79v-17.041Z" style="fill:none; stroke:#a6abb0; stroke-linecap:round; stroke-linejoin:round; stroke-width:.5px;"/><path d="m393.505,200.328c0-12.312,22.035-8.669,22.035,3.79" style="fill:none; stroke:#a6abb0; stroke-linecap:round; stroke-linejoin:round; stroke-width:.5px;"/><path d="m396.13,201.267c0-1.596.493-2.759,1.508-3.56,1.002-.791,2.525-1.226,4.285-1.226,4.45,0,10.615,2.979,10.615,8.576v12.34c0,4.164-3.629,4.785-5.793,4.785-4.45,0-10.615-2.981-10.615-8.576v-12.34Z" style="fill:none; stroke:#a6abb0; stroke-linecap:round; stroke-linejoin:round; stroke-width:.5px;"/><path d="m585.022,201.267c0-1.596-.493-2.759-1.508-3.56-1.002-.791-2.525-1.226-4.285-1.226-4.45,0-10.615,2.979-10.615,8.576v12.34c0,4.164,3.629,4.785,5.793,4.785,4.45,0,10.615-2.981,10.615-8.576v-12.34Z" style="fill:none; stroke:#a6abb0; stroke-linecap:round; stroke-linejoin:round; stroke-width:.5px;"/><path d="m587.648,195.628c0-5.177-4.933-8.02-11.017-6.35-6.085,1.67-11.017,7.22-11.017,12.397v14.784c0,12.312,22.035,8.669,22.035-3.79v-17.041Z" style="fill:none; stroke:#a6abb0; stroke-linecap:round; stroke-linejoin:round; stroke-width:.5px;"/><path d="m587.648,200.328c0-12.312-22.035-8.669-22.035,3.79" style="fill:none; stroke:#a6abb0; stroke-linecap:round; stroke-linejoin:round; stroke-width:.5px;"/><path d="m393.505,202.304c-11.929-5.615-25.237-15.18-30.332-19.027-5.095-3.847-8.491-8.861-8.82-23.302" style="fill:none; stroke:#a6abb0; stroke-linecap:round; stroke-linejoin:round; stroke-width:.5px;"/><path d="m587.648,202.304c11.929-5.615,25.237-15.18,30.332-19.027,5.095-3.847,8.491-8.861,8.82-23.302" style="fill:none; stroke:#a6abb0; stroke-linecap:round; stroke-linejoin:round; stroke-width:.5px;"/><path d="m343.732,165.717c.593,8.964,3.415,22.101,4.818,28.224.5,2.181,1.498,4.233,2.915,5.965l10.351,12.652c.408.499.966.855,1.59,1.016l2.781.715s7.59,8.395,14.452,15.985,9.771,9.685,24.642,12.269c34.103,5.927,55.018,7.174,86.982,7.174" style="fill:none; stroke:#a6abb0; stroke-linecap:round; stroke-linejoin:round; stroke-width:.5px;"/><path d="m637.42,165.717c-.593,8.964-3.415,22.101-4.818,28.224-.5,2.181-1.498,4.233-2.915,5.965l-10.351,12.652c-.286.35-.645.629-1.049.82" style="fill:none; stroke:#a6abb0; stroke-linecap:round; stroke-linejoin:round; stroke-width:.5px;"/><path d="m617.98,183.277s.552,12.685,1.176,16.22,1.872,3.535,4.263,1.04,6.446-8.214,7.902-10.501,4.373-10.825,4.908-14.449" style="fill:none; stroke:#a6abb0; stroke-linecap:round; stroke-linejoin:round; stroke-width:.5px;"/><path d="m392.917,142.069c.512-10.467,11.203-11.421,22.017,16.86" style="fill:none; stroke:#a6abb0; stroke-linecap:round; stroke-linejoin:round; stroke-width:.5px;"/><path d="m415.433,168.216l.442-7.348h18.197c.493,0,.966.198,1.312.548s.538.826.531,1.319l-.071,5.464" style="fill:none; stroke:#a6abb0; stroke-linecap:round; stroke-linejoin:round; stroke-width:.5px;"/><path d="m588.233,142.069c-.512-10.467-11.203-11.421-22.017,16.86" style="fill:none; stroke:#a6abb0; stroke-linecap:round; stroke-linejoin:round; stroke-width:.5px;"/><path d="m565.717,168.216l-.442-7.348h-18.197c-.493,0-.966.198-1.312.548s-.538.826-.531,1.319l.071,5.464" style="fill:none; stroke:#a6abb0; stroke-linecap:round; stroke-linejoin:round; stroke-width:.5px;"/><path d="m523.592,168.2l-2.535-27.291c-.291-3.137-2.891-5.561-6.041-5.622-6.55-.127-17.453-.315-24.441-.315-10.536,0-24.405.349-24.405.349-3.166.045-5.788,2.47-6.08,5.622l-2.531,27.257" style="fill:none; stroke:#a6abb0; stroke-linecap:round; stroke-linejoin:round; stroke-width:.5px;"/><path d="m590.875,130.562c1.525-6.643-1.523-14.92-18.957-16.412-21.367-1.829-50.392-2.591-81.342-2.591-30.95,0-59.975.762-81.342,2.591-17.435,1.493-20.482,9.77-18.957,16.412" style="fill:none; stroke:#a6abb0; stroke-linecap:round; stroke-linejoin:round; stroke-width:.5px;"/><path d="m548.084,74.174v11.74c0,1.421,1.152,2.573,2.573,2.573h9.826c1.421,0,2.573-1.152,2.573-2.573v-13.238" style="fill:none; stroke:#a6abb0; stroke-linecap:round; stroke-linejoin:round; stroke-width:.5px;"/><ellipse cx="555.965" cy="77.889" rx="2.78" ry="2.219" style="fill:none; stroke:#a6abb0; stroke-linecap:round; stroke-linejoin:round; stroke-width:.5px;"/><path d="m597.92,39.445l-.17,8.079c-10.994,4.755-23.48,7.683-37.375,9.483-.497.064-.949.321-1.26.714l-4.197,5.321c-.322.408-.796.668-1.312.72-3.667.373-7.425.679-11.272.931-.595.039-1.175-.201-1.569-.649l-3.76-4.287c-.385-.439-.952-.679-1.536-.651-9.884.479-20.325.659-31.3.723-.506.003-.99.206-1.347.564l-3.721,3.733c-.359.36-.846.563-1.354.564-2.367.005-4.757.007-7.171.007-2.414,0-4.805-.002-7.171-.007-.508-.001-.995-.204-1.354-.564l-3.721-3.733c-.357-.358-.841-.561-1.347-.564-10.975-.064-21.416-.244-31.3-.723-.584-.028-1.151.212-1.536.651l-3.76,4.287c-.393.449-.973.688-1.569.649-3.848-.252-7.606-.558-11.272-.931-.517-.053-.991-.313-1.312-.72l-4.197-5.321c-.31-.394-.762-.65-1.26-.714-13.895-1.8-26.381-4.728-37.375-9.483l-.17-8.079" style="fill:none; stroke:#a6abb0; stroke-linecap:round; stroke-linejoin:round; stroke-width:.5px;"/><path d="m609.754,33.191c-28.006,17.833-68.374,18.665-119.178,18.665-50.804,0-91.172-.832-119.178-18.665" style="fill:none; stroke:#a6abb0; stroke-linecap:round; stroke-linejoin:round; stroke-width:.5px;"/><path d="m586.633,75.094l-.525,6.247v.113c-.037.356-.206.732-.563,1.013l-4.521,3.846c-.75.619-1.97.638-2.72.038l-1.313-1.069c-.413-.319-.6-.769-.582-1.201l.544-6.36" style="fill:none; stroke:#a6abb0; stroke-linecap:round; stroke-linejoin:round; stroke-width:.5px;"/><path d="m593.706,78.133l-.525,6.247v.113c-.037.356-.206.732-.563,1.013l-4.521,3.846c-.75.619-1.97.638-2.72.038l-1.313-1.069c-.413-.319-.6-.769-.582-1.201l.267-3.126" style="fill:none; stroke:#a6abb0; stroke-linecap:round; stroke-linejoin:round; stroke-width:.5px;"/><line x1="583.485" y1="87.109" x2="583.748" y2="83.993" style="fill:none; stroke:#a6abb0; stroke-linecap:round; stroke-linejoin:round; stroke-width:.5px;"/><path d="m394.52,75.094l.525,6.247v.113c.037.356.206.732.563,1.013l4.521,3.846c.75.619,1.97.638,2.72.038l1.313-1.069c.413-.319.6-.769.582-1.201l-.544-6.36" style="fill:none; stroke:#a6abb0; stroke-linecap:round; stroke-linejoin:round; stroke-width:.5px;"/><path d="m387.447,78.133l.525,6.247v.113c.037.356.206.732.563,1.013l4.521,3.846c.75.619,1.97.638,2.72.038l1.313-1.069c.413-.319.6-.769.582-1.201l-.267-3.126" style="fill:none; stroke:#a6abb0; stroke-linecap:round; stroke-linejoin:round; stroke-width:.5px;"/><line x1="397.668" y1="87.109" x2="397.405" y2="83.993" style="fill:none; stroke:#a6abb0; stroke-linecap:round; stroke-linejoin:round; stroke-width:.5px;"/><polyline points="405.267 70.712 405.267 72.054 407.424 76.346 415.056 77.239 418.094 74.349 418.094 72.676" style="fill:none; stroke:#a6abb0; stroke-linecap:round; stroke-linejoin:round; stroke-width:.5px;"/><polyline points="575.883 70.712 575.883 72.054 573.726 76.346 566.095 77.239 563.056 74.349 563.056 72.676" style="fill:none; stroke:#a6abb0; stroke-linecap:round; stroke-linejoin:round; stroke-width:.5px;"/><ellipse cx="569.699" cy="74.116" rx="1.481" ry="1.197" transform="translate(-4.801 73.544) rotate(-7.355)" style="fill:none; stroke:#a6abb0; stroke-linecap:round; stroke-linejoin:round; stroke-width:.5px;"/><ellipse cx="411.451" cy="74.116" rx="1.197" ry="1.481" transform="translate(285.271 472.693) rotate(-82.645)" style="fill:none; stroke:#a6abb0; stroke-linecap:round; stroke-linejoin:round; stroke-width:.5px;"/><path d="m428.085,75.76c.728,3.639,3.847,16.532,3.847,16.532" style="fill:none; stroke:#a6abb0; stroke-linecap:round; stroke-linejoin:round; stroke-width:.5px;"/><ellipse cx="420.838" cy="87.019" rx="2.939" ry="4.055" transform="translate(207.035 459.8) rotate(-71.847)" style="fill:none; stroke:#a6abb0; stroke-linecap:round; stroke-linejoin:round; stroke-width:.5px;"/><path d="m434.603,90.636h3.431c1.557,0,2.819-1.117,2.819-2.495s-1.262-2.495-2.819-2.495h-4.575" style="fill:none; stroke:#a6abb0; stroke-linecap:round; stroke-linejoin:round; stroke-width:.5px;"/><path d="m618.341,214.288s-7.59,8.395-14.452,15.985c-6.862,7.59-9.771,9.685-24.642,12.269-34.103,5.927-55.018,7.174-86.982,7.174" style="fill:none; stroke:#a6abb0; stroke-linecap:round; stroke-linejoin:round; stroke-width:.5px;"/><path d="m611.403,214.092c-2.69,6.504-15.091,10.967-24.59,16.037l-12.808,3.017-3.06-.723-.007-.044c-18.862,2.883-44.396,5.444-78.673,5.444-34.277,0-59.811-2.561-78.673-5.444l-.007.044-3.06.723-12.808-3.017c-9.5-5.07-21.901-9.533-24.59-16.037" style="fill:none; stroke:#a6abb0; stroke-linecap:round; stroke-linejoin:round; stroke-width:.5px;"/><line x1="413.584" y1="232.422" x2="413.54" y2="227.755" style="fill:none; stroke:#a6abb0; stroke-linecap:round; stroke-linejoin:round; stroke-width:.5px;"/><line x1="397.716" y1="230.128" x2="397.302" y2="223.848" style="fill:none; stroke:#a6abb0; stroke-linecap:round; stroke-linejoin:round; stroke-width:.5px;"/><line x1="570.944" y1="232.422" x2="570.989" y2="227.755" style="fill:none; stroke:#a6abb0; stroke-linecap:round; stroke-linejoin:round; stroke-width:.5px;"/><line x1="586.812" y1="230.128" x2="587.226" y2="223.848" style="fill:none; stroke:#a6abb0; stroke-linecap:round; stroke-linejoin:round; stroke-width:.5px;"/><path d="m498.782,170.072l-2.087-23.537c-.04-.449-.416-.793-.866-.793h-5.252s-5.252,0-5.252,0c-.45,0-.826.344-.866.793l-2.087,23.537" style="fill:none; stroke:#a6abb0; stroke-linecap:round; stroke-linejoin:round; stroke-width:.5px;"/><polyline points="435.844 176.146 435.844 168.2 457.559 168.2 460.886 170.072 482.371 170.072 484.035 171.216 490.577 171.216 497.118 171.216 498.782 170.072 520.265 170.072 523.592 168.2 545.306 168.2 545.306 176.146" style="fill:none; stroke:#a6abb0; stroke-linecap:round; stroke-linejoin:round; stroke-width:.5px;"/><polyline points="469.02 94.075 469.02 79.549 505.769 79.549 505.769 94.05" style="fill:none; stroke:#a6abb0; stroke-linecap:round; stroke-linejoin:round; stroke-width:.5px;"/><polyline points="507.876 94.059 507.876 79.549 544.625 79.549 544.625 94.435" style="fill:none; stroke:#a6abb0; stroke-linecap:round; stroke-linejoin:round; stroke-width:.5px;"/><path d="m67.83,95.29c-5.305.202-10.236,2.389-13.526,6.001-3.028,3.319-4.363,7.523-3.746,11.678l-8.636-.343s-4.625-.581-4.823-4.144l-3.383-60.885,4.359-5.879,5.652,3.72s.932.754.932,1.623v11.731c0,.861.602,1.583,1.475,1.891,1.313.462,2.593,1.027,3.938,1.387,31.441,8.398,57.467,10.011,107.646,10.011,50.179,0,76.206-1.613,107.646-10.011,1.345-.359,2.625-.924,3.938-1.387.873-.307,1.475-1.03,1.475-1.891,0,0,0-10.862,0-11.731,0-.869.932-1.623.932-1.623l5.652-3.72,4.359,5.879-3.383,60.885c-.198,3.564-4.823,4.144-4.823,4.144l-8.636.343c.618-4.155-.718-8.358-3.746-11.678-3.291-3.611-8.222-5.799-13.526-6.001-15.731-.596-44.097-1.307-89.887-1.307-45.791,0-74.156.711-89.887,1.307Z" style="fill:none; stroke:#a6abb0; stroke-linecap:round; stroke-linejoin:round; stroke-width:.5px;"/><g id="uuid-a5adaaf2-5d22-46d1-805e-d450d3d68ad4"><path d="m157.718,93.483c45.796,0,74.168.711,89.907,1.308,2.836.108,5.57.77,8.017,1.907,2.239,1.04,4.24,2.479,5.86,4.256,1.608,1.763,2.757,3.773,3.406,5.899.552,1.81.74,3.702.541,5.593l2.018-.08v-18.56c0-.329-.129-.659-.386-.936l-3.324-3.576c-.423-.455-.661-1.035-.654-1.644l.253-20.878c-28.836,7.182-49.819,9.455-105.637,9.455s-76.802-2.273-105.637-9.455l.253,20.878c.007.609-.231,1.189-.654,1.644l-3.324,3.576c-.257.276-.386.607-.386.936v18.56l2.018.08c-.199-1.891-.011-3.783.541-5.593.648-2.126,1.798-4.136,3.406-5.899,1.62-1.777,3.621-3.216,5.86-4.256,2.448-1.137,5.181-1.799,8.017-1.907,15.739-.596,44.111-1.308,89.906-1.308Z" style="fill:none; stroke:#30373e; stroke-linecap:round; stroke-linejoin:round; stroke-width:.5px;"/><path d="m157.718,93.733c45.793,0,74.162.711,89.897,1.307,2.803.107,5.504.761,7.921,1.884,2.211,1.027,4.185,2.447,5.78,4.198,1.584,1.737,2.714,3.714,3.351,5.804.57,1.87.745,3.828.498,5.781l2.55-.101v-18.8c0-.396-.156-.787-.453-1.106l-3.324-3.576c-.383-.412-.593-.931-.587-1.471l.257-21.202c-28.97,7.237-49.879,9.526-105.891,9.526s-76.921-2.29-105.891-9.526l.257,21.202c.007.54-.204,1.059-.587,1.471l-3.324,3.576c-.297.319-.453.71-.453,1.106v18.8l2.55.101c-.247-1.953-.072-3.911.498-5.781.637-2.089,1.767-4.067,3.351-5.804,1.596-1.751,3.57-3.171,5.78-4.198,2.417-1.123,5.118-1.778,7.921-1.884,15.735-.596,44.104-1.307,89.897-1.307Z" style="fill:none; stroke:#30373e; stroke-linecap:round; stroke-linejoin:round; stroke-width:.5px;"/></g><path d="m157.718,93.983c45.791,0,74.156.711,89.887,1.307,5.305.202,10.236,2.389,13.526,6.001,3.028,3.319,4.363,7.523,3.746,11.678l3.089-.123v-19.04c0-.464-.183-.914-.52-1.276l-3.324-3.576c-.342-.368-.526-.826-.52-1.297l.261-21.526c-29.106,7.292-49.94,9.598-106.145,9.598s-77.04-2.306-106.145-9.598l.261,21.526c.006.471-.178.929-.52,1.297l-3.324,3.576c-.337.362-.52.812-.52,1.276v19.04l3.089.123c-.618-4.155.718-8.358,3.746-11.678,3.291-3.611,8.222-5.799,13.526-6.001,15.731-.596,44.097-1.307,89.887-1.307Z" style="fill:none; stroke:#30373e; stroke-linecap:round; stroke-linejoin:round; stroke-width:.5px;"/><g id="uuid-a481897b-f217-438d-a077-7326dc6f3259"><path d="m400.669,94.818c-2.836.108-5.57.77-8.017,1.907-2.239,1.04-4.24,2.479-5.86,4.256-1.608,1.763-2.757,3.773-3.406,5.899-.552,1.81-.74,3.702-.541,5.593,0,0-8.045-.32-8.003-.316-.021-.003-2.257-.301-3.53-1.665-.471-.505-.809-1.155-.857-2.011l-3.373-60.705s3.969-5.354,3.97-5.354c0,0,5.257,3.46,5.217,3.431.01.009.419.346.632.792.075.156.114.305.114.441v11.731c0,.502.161.965.435,1.353.327.462.811.811,1.373,1.009.43.152.858.315,1.293.481.864.329,1.756.67,2.682.917,31.507,8.416,57.587,10.028,107.776,10.028,50.188,0,76.269-1.612,107.776-10.028.925-.247,1.818-.588,2.682-.917.435-.166.863-.329,1.293-.481.563-.198,1.047-.548,1.373-1.009.275-.388.435-.851.435-1.353,0,0,0-10.862,0-11.731,0-.136.039-.285.114-.441.207-.434.599-.765.595-.765l5.254-3.458,3.969,5.354-3.373,60.705c-.048.857-.386,1.507-.857,2.011-1.267,1.359-3.491,1.659-3.488,1.661l-8.045.32c.199-1.891.011-3.783-.541-5.593-.648-2.126-1.798-4.136-3.406-5.899-1.62-1.777-3.621-3.216-5.86-4.256-2.448-1.137-5.181-1.799-8.017-1.907-15.739-.596-44.111-1.308-89.906-1.308-45.796,0-74.168.711-89.907,1.308Z" style="fill:none; stroke:#a6abb0; stroke-linecap:round; stroke-linejoin:round; stroke-width:.5px;"/><path d="m400.679,95.068c-2.803.107-5.504.761-7.921,1.884-2.211,1.027-4.185,2.447-5.78,4.198-1.584,1.737-2.714,3.714-3.351,5.804-.57,1.87-.745,3.828-.498,5.781,0,0-8.337-.331-8.316-.329-.011-.001-2.338-.302-3.681-1.742-.506-.543-.872-1.247-.923-2.168l-3.378-60.795s4.164-5.617,4.164-5.617c0,0,5.454,3.59,5.435,3.575,0,0,.459.373.701.879.086.18.138.365.138.549v11.731c0,.447.143.86.389,1.208.294.415.733.735,1.252.918.434.153.865.317,1.3.483.866.33,1.746.666,2.657.909,31.474,8.407,57.527,10.019,107.711,10.019,50.184,0,76.237-1.612,107.711-10.019.911-.243,1.791-.579,2.657-.909.435-.166.866-.33,1.3-.483.519-.183.958-.503,1.252-.918.247-.348.389-.762.389-1.208,0,0,0-10.862,0-11.731,0-.184.053-.369.138-.549.237-.496.683-.865.681-.865l5.454-3.589,4.164,5.617-3.378,60.795c-.051.922-.417,1.626-.923,2.168-1.34,1.437-3.661,1.74-3.66,1.74l-8.337.331c.247-1.953.072-3.911-.498-5.781-.637-2.089-1.767-4.067-3.351-5.804-1.596-1.751-3.57-3.171-5.78-4.198-2.417-1.123-5.118-1.778-7.921-1.884-15.735-.596-44.104-1.307-89.897-1.307-45.793,0-74.162.711-89.897,1.307Z" style="fill:none; stroke:#a6abb0; stroke-linecap:round; stroke-linejoin:round; stroke-width:.5px;"/></g><path d="m400.688,95.317c-5.305.202-10.236,2.389-13.526,6.001-3.028,3.319-4.363,7.523-3.746,11.678l-8.636-.343s-4.625-.581-4.823-4.144l-3.383-60.885,4.359-5.879,5.652,3.72s.932.754.932,1.623v11.731c0,.861.602,1.583,1.475,1.891,1.313.462,2.593,1.027,3.938,1.387,31.441,8.398,57.467,10.011,107.646,10.011,50.179,0,76.206-1.613,107.646-10.011,1.345-.359,2.625-.924,3.938-1.387.873-.307,1.475-1.03,1.475-1.891,0,0,0-10.862,0-11.731,0-.869.932-1.623.932-1.623l5.652-3.72,4.359,5.879-3.383,60.885c-.198,3.564-4.823,4.144-4.823,4.144l-8.636.343c.618-4.155-.718-8.358-3.746-11.678-3.291-3.611-8.222-5.799-13.526-6.001-15.731-.596-44.097-1.307-89.887-1.307-45.791,0-74.156.711-89.887,1.307Z" style="fill:none; stroke:#a6abb0; stroke-linecap:round; stroke-linejoin:round; stroke-width:.5px;"/><g style="clip-path:url(#uuid-2facce51-8277-493b-9109-a98c752ddcff);"><path d="m824.673,228.186l2.554,51.363c3.624,72.878,12.506,111.951,13.805,198.018,1.085,71.897-3.616,214.753-2.108,342.425,2.495,211.238-12.314,577.01-43.412,733.981-31.098,156.971-41.062,169.575-140.682,217.686-260.631,125.873-374.657,155.391-872.48,155.391-497.823,0-611.849-29.518-872.48-155.391-99.62-48.112-109.584-60.715-140.682-217.686-31.098-156.971-45.907-522.743-43.412-733.981,1.508-127.672-3.193-270.528-2.108-342.425,1.293-85.696,10.105-124.802,13.758-197.077l2.495-49.361" style="fill:none; stroke:#a6abb0; stroke-linecap:round; stroke-linejoin:round; stroke-width:1.5px;"/><g id="uuid-a9c7a6c8-458e-464d-9459-5bcc85b7b582"><path d="m616.318,219.954v78.925c0,3.654-1.105,7.127-3.055,10.031s-4.746,5.242-8.128,6.626c-244.377,99.972-442.941,99.127-724.442,97.935-31.67-.134-64.389-.273-98.343-.273-33.954,0-66.673.139-98.343.273-281.501,1.192-480.065,2.037-724.442-97.935-3.382-1.383-6.178-3.721-8.128-6.626-1.95-2.905-3.055-6.377-3.055-10.031v-72.624" style="fill:none; stroke:#a6abb0; stroke-linecap:round; stroke-linejoin:round; stroke-width:.5px;"/><path d="m616.068,219.954v78.925c0,3.603-1.089,7.028-3.013,9.892s-4.68,5.169-8.015,6.534c-244.325,99.951-442.841,99.108-724.346,97.916-31.67-.134-64.39-.273-98.344-.273-33.954,0-66.674.139-98.344.273-281.505,1.192-480.021,2.035-724.346-97.916-3.335-1.364-6.092-3.669-8.015-6.534-1.923-2.864-3.013-6.289-3.013-9.892v-72.624" style="fill:none; stroke:#a6abb0; stroke-linecap:round; stroke-linejoin:round; stroke-width:.5px;"/></g><path d="m615.818,219.954v78.925c0,7.105-4.296,13.504-10.872,16.194-271.754,111.172-486.818,97.625-822.596,97.625-335.777,0-550.842,13.547-822.596-97.625-6.576-2.69-10.872-9.09-10.872-16.194v-72.624" style="fill:none; stroke:#a6abb0; stroke-linecap:round; stroke-linejoin:round; stroke-width:.5px;"/><g id="uuid-b155cc89-5aba-429c-8956-89092e1cffe5"><path d="m-217.645,599.822c337.574,0,546.684,6.092,662.664,11.197,19.583.867,38.477,5.982,55.519,14.745s32.367,21.287,44.569,36.845c11.189,14.252,19.255,30.401,23.957,47.446,4.661,16.898,6.017,34.676,3.833,52.363l29.455-1.359,33.613-1.551c9.489-.438,18.032-4.449,24.318-10.724,6.285-6.275,10.311-14.811,10.764-24.3l23.828-498.326" style="fill:none; stroke:#a6abb0; stroke-linecap:round; stroke-linejoin:round; stroke-width:.5px;"/><path d="m-217.645,600.072c337.571,0,546.677,6.092,662.653,11.197,19.547.865,38.405,5.97,55.416,14.718,17.086,8.787,32.307,21.248,44.487,36.778,11.169,14.226,19.22,30.345,23.913,47.358,4.679,16.96,6.021,34.809,3.79,52.56l29.751-1.373,33.613-1.551c9.554-.441,18.155-4.48,24.483-10.797,6.328-6.317,10.381-14.912,10.838-24.465l23.828-498.326" style="fill:none; stroke:#a6abb0; stroke-linecap:round; stroke-linejoin:round; stroke-width:.5px;"/></g><path d="m-217.645,600.322c337.568,0,546.671,6.092,662.642,11.197,39.108,1.731,75.457,20.467,99.717,51.4,22.322,28.433,32.167,64.439,27.614,100.027l30.048-1.387,33.613-1.551c19.236-.888,34.639-16.265,35.558-35.499l23.828-498.326" style="fill:none; stroke:#a6abb0; stroke-linecap:round; stroke-linejoin:round; stroke-width:.5px;"/></g></g><g id="uuid-44fa57ba-c5ef-4cea-bc03-ce1690bf9d9b"><line x1="158.534" y1="90.878" x2="158.534" y2="57.256" style="fill:none; stroke:#f4f4f4; stroke-linecap:round; stroke-width:1.5px;"/><rect x="156.034" y="64.432" width="5" height="26.446" style="fill:none; stroke:#f4f4f4; stroke-linecap:round; stroke-width:1.5px;"/><polygon points="163.52 65.891 158.534 57.256 153.547 65.891 163.52 65.891" style="fill:none; stroke:#f4f4f4; stroke-linecap:round; stroke-width:1.5px;"/><line x1="158.534" y1="90.878" x2="158.534" y2="64.432" style="fill:none; stroke:#f4ae3d; stroke-miterlimit:10; stroke-width:5px;"/><polygon points="163.52 65.891 158.534 57.256 153.547 65.891 163.52 65.891" style="fill:#f4ae3d; stroke-width:0px;"/><path d="m269.666,53.34v19.332l-.76,1.041-3.114.122c.628-4.174-.722-8.404-3.771-11.744-3.32-3.63-8.292-5.825-13.648-6.031-15.862-.6-44.47-1.313-90.657-1.313s-74.786.713-90.657,1.313c-5.347.206-10.327,2.401-13.638,6.031-3.058,3.339-4.409,7.57-3.78,11.744l-3.114-.122-.75-1.041v-19.332c0-.478.178-.929.525-1.304l3.377-3.63c.347-.366.535-.835.525-1.313l-.31-25.588c31.273,8.179,57.659,9.774,107.823,9.774s76.559-1.595,107.823-9.774l-.31,25.588c0,.478.188.947.535,1.313l3.367,3.63c.347.375.535.825.535,1.304Z" style="fill:none; stroke:#30373e; stroke-linecap:round; stroke-linejoin:round; stroke-width:1.5px;"/><path d="m157.718,33.776c-37.758,0-56.887-.711-63.877-1.051-.714-.035-1.402.238-1.834.728s-.553,1.134-.322,1.716l4.418,11.141c.871,2.196,2.879,3.487,6.519,3.487,12.244,0,42.941.436,55.097.436h.001c12.156,0,42.853-.436,55.097-.436,3.639,0,5.648-1.291,6.519-3.487.871-2.196,4.418-11.141,4.418-11.141.231-.583.11-1.226-.322-1.716s-1.12-.763-1.834-.728c-6.991.34-26.119,1.051-63.877,1.051Z" style="fill:none; stroke:#30373e; stroke-linecap:round; stroke-linejoin:round; stroke-width:1.5px;"/><line x1="194.219" y1="33.509" x2="189.62" y2="50.025" style="fill:none; stroke:#30373e; stroke-linecap:round; stroke-linejoin:round; stroke-width:1.5px;"/><line x1="121.217" y1="33.509" x2="125.815" y2="50.025" style="fill:none; stroke:#30373e; stroke-linecap:round; stroke-linejoin:round; stroke-width:1.5px;"/><path d="m216.35,34.855c-6.595.308-26.414.979-58.633.979-32.218,0-52.038-.671-58.632-.979" style="fill:none; stroke:#30373e; stroke-linecap:round; stroke-linejoin:round; stroke-width:1.5px;"/><path d="m215.755,36.984c-6.707.276-28.611.907-58.037.907-29.426,0-51.329-.63-58.037-.907" style="fill:none; stroke:#30373e; stroke-linecap:round; stroke-linejoin:round; stroke-width:1.5px;"/><path d="m215.159,39.113c-6.82.245-30.807.835-57.441.835-26.634,0-50.621-.59-57.441-.835" style="fill:none; stroke:#30373e; stroke-linecap:round; stroke-linejoin:round; stroke-width:1.5px;"/><path d="m214.563,41.242c-6.933.213-33.004.763-56.845.763-23.842,0-49.912-.55-56.845-.763" style="fill:none; stroke:#30373e; stroke-linecap:round; stroke-linejoin:round; stroke-width:1.5px;"/><path d="m213.967,43.372c-7.046.181-35.2.69-56.249.69-21.049,0-49.204-.51-56.249-.691" style="fill:none; stroke:#30373e; stroke-linecap:round; stroke-linejoin:round; stroke-width:1.5px;"/><path d="m213.372,45.501c-7.159.149-37.396.618-55.653.618-18.257,0-48.495-.47-55.654-.618" style="fill:none; stroke:#30373e; stroke-linecap:round; stroke-linejoin:round; stroke-width:1.5px;"/><path d="m210.623,47.63c-6.987.117-38.045.546-52.905.546-14.86,0-45.918-.429-52.905-.546" style="fill:none; stroke:#30373e; stroke-linecap:round; stroke-linejoin:round; stroke-width:1.5px;"/><path d="m45.771,72.67l3.136.125c-.627-4.219.729-8.487,3.803-11.858,3.342-3.667,8.348-5.888,13.735-6.093,15.974-.605,44.775-1.327,91.271-1.327,46.496,0,75.299.722,91.272,1.327,5.387.205,10.393,2.426,13.735,6.093,3.075,3.371,4.431,7.639,3.803,11.858l3.136-.125" style="fill:none; stroke:#30373e; stroke-linecap:round; stroke-linejoin:round; stroke-width:1.5px;"/><path d="m269.666,53.34v19.332l-.76,1.041-3.114.122c.628-4.174-.722-8.404-3.771-11.744-3.32-3.63-8.292-5.825-13.648-6.031-15.862-.6-44.47-1.313-90.657-1.313s-74.786.713-90.657,1.313c-5.347.206-10.327,2.401-13.638,6.031-3.058,3.339-4.409,7.57-3.78,11.744l-3.114-.122-.75-1.041v-19.332c0-.478.178-.929.525-1.304l3.377-3.63c.347-.366.535-.835.525-1.313l-.31-25.588c31.273,8.179,57.659,9.774,107.823,9.774s76.559-1.595,107.823-9.774l-.31,25.588c0,.478.188.947.535,1.313l3.367,3.63c.347.375.535.825.535,1.304Z" style="fill:#f4ae3d; stroke:#30373e; stroke-linecap:round; stroke-linejoin:round; stroke-width:.5px;"/><path d="m157.718,33.776c-37.758,0-56.887-.711-63.877-1.051-.714-.035-1.402.238-1.834.728s-.553,1.134-.322,1.716l4.418,11.141c.871,2.196,2.879,3.487,6.519,3.487,12.244,0,42.941.436,55.097.436h.001c12.156,0,42.853-.436,55.097-.436,3.639,0,5.648-1.291,6.519-3.487.871-2.196,4.418-11.141,4.418-11.141.231-.583.11-1.226-.322-1.716s-1.12-.763-1.834-.728c-6.991.34-26.119,1.051-63.877,1.051Z" style="fill:none; stroke:#30373e; stroke-linecap:round; stroke-linejoin:round; stroke-width:.5px;"/><line x1="194.219" y1="33.509" x2="189.62" y2="50.025" style="fill:none; stroke:#30373e; stroke-linecap:round; stroke-linejoin:round; stroke-width:.5px;"/><line x1="121.217" y1="33.509" x2="125.815" y2="50.025" style="fill:none; stroke:#30373e; stroke-linecap:round; stroke-linejoin:round; stroke-width:.5px;"/><path d="m216.35,34.855c-6.595.308-26.414.979-58.633.979-32.218,0-52.038-.671-58.632-.979" style="fill:none; stroke:#30373e; stroke-linecap:round; stroke-linejoin:round; stroke-width:.5px;"/><path d="m215.755,36.984c-6.707.276-28.611.907-58.037.907-29.426,0-51.329-.63-58.037-.907" style="fill:none; stroke:#30373e; stroke-linecap:round; stroke-linejoin:round; stroke-width:.5px;"/><path d="m215.159,39.113c-6.82.245-30.807.835-57.441.835-26.634,0-50.621-.59-57.441-.835" style="fill:none; stroke:#30373e; stroke-linecap:round; stroke-linejoin:round; stroke-width:.5px;"/><path d="m214.563,41.242c-6.933.213-33.004.763-56.845.763-23.842,0-49.912-.55-56.845-.763" style="fill:none; stroke:#30373e; stroke-linecap:round; stroke-linejoin:round; stroke-width:.5px;"/><path d="m213.967,43.372c-7.046.181-35.2.69-56.249.69-21.049,0-49.204-.51-56.249-.691" style="fill:none; stroke:#30373e; stroke-linecap:round; stroke-linejoin:round; stroke-width:.5px;"/><path d="m213.372,45.501c-7.159.149-37.396.618-55.653.618-18.257,0-48.495-.47-55.654-.618" style="fill:none; stroke:#30373e; stroke-linecap:round; stroke-linejoin:round; stroke-width:.5px;"/><path d="m210.623,47.63c-6.987.117-38.045.546-52.905.546-14.86,0-45.918-.429-52.905-.546" style="fill:none; stroke:#30373e; stroke-linecap:round; stroke-linejoin:round; stroke-width:.5px;"/><path d="m45.771,72.67l3.136.125c-.627-4.219.729-8.487,3.803-11.858,3.342-3.667,8.348-5.888,13.735-6.093,15.974-.605,44.775-1.327,91.271-1.327,46.496,0,75.299.722,91.272,1.327,5.387.205,10.393,2.426,13.735,6.093,3.075,3.371,4.431,7.639,3.803,11.858l3.136-.125" style="fill:none; stroke:#30373e; stroke-linecap:round; stroke-linejoin:round; stroke-width:.5px;"/><line x1="491.392" y1="90.905" x2="491.392" y2="57.47" style="fill:none; stroke:#f4f4f4; stroke-linecap:round; stroke-width:1.5px;"/><rect x="488.892" y="64.646" width="5" height="26.259" style="fill:none; stroke:#f4f4f4; stroke-linecap:round; stroke-width:1.5px;"/><polygon points="496.378 66.105 491.392 57.47 486.405 66.105 496.378 66.105" style="fill:none; stroke:#f4f4f4; stroke-linecap:round; stroke-width:1.5px;"/><line x1="491.392" y1="90.905" x2="491.392" y2="64.647" style="fill:none; stroke:#f4ae3d; stroke-miterlimit:10; stroke-width:5px;"/><polygon points="496.378 66.105 491.392 57.47 486.405 66.105 496.378 66.105" style="fill:#f4ae3d; stroke-width:0px;"/><path d="m527.278,34.398c-.413-.6-1.088-.975-1.82-1.032-5.009-.413-16.415-1.126-34.612-1.126s-29.584.713-34.593,1.126c-.732.056-1.407.431-1.838,1.051-.413.6-.563,1.351-.356,2.064l4.221,15.927c.338,1.257,1.482,2.139,2.795,2.139h59.563c1.313,0,2.458-.882,2.795-2.139l4.221-15.927c.188-.713.056-1.463-.375-2.082Zm-26.339,13.939c0,.694-.544,1.238-1.238,1.238h-22.193c-.375,0-.732-.169-.976-.469l-.769-.976c-.525-.675-1.276-1.163-2.101-1.407-.732-.206-1.707-.488-2.701-.769-.525-.15-.901-.619-.901-1.182v-3.827c0-.694.544-1.238,1.238-1.238h28.402c.694,0,1.238.544,1.238,1.238v7.391Z" style="fill:none; stroke:#30373e; stroke-linecap:round; stroke-linejoin:round; stroke-width:1.5px;"/><path d="m461.066,52.672c-.458,0-.861-.31-.978-.753l-4.225-15.922c-.046-.172-.013-.357.092-.506.106-.15.269-.244.451-.258,5.139-.416,16.453-1.11,34.448-1.11s29.309.694,34.451,1.11c.18.015.343.108.447.255.106.15.139.333.092.509l-4.225,15.922c-.117.443-.518.753-.978.753h-59.574Z" style="fill:none; stroke:#30373e; stroke-linecap:round; stroke-linejoin:round; stroke-width:1.5px;"/><line x1="457.679" y1="36.823" x2="468.4" y2="39.984" style="fill:none; stroke:#30373e; stroke-linecap:round; stroke-linejoin:round; stroke-width:1.5px;"/><line x1="524.134" y1="36.805" x2="502.985" y2="40.169" style="fill:none; stroke:#30373e; stroke-linecap:round; stroke-linejoin:round; stroke-width:1.5px;"/><path d="m470.961,45.954c-7.661-2.089-8.909-1.782-11.196.822" style="fill:none; stroke:#30373e; stroke-linecap:round; stroke-linejoin:round; stroke-width:1.5px;"/><path d="m468.72,45.369c-2.546-.555-3.029.472,1.754,5.878" style="fill:none; stroke:#30373e; stroke-linecap:round; stroke-linejoin:round; stroke-width:1.5px;"/><path d="m473.905,52.672c-1.456-3.4.552-3.097,3.603-3.097" style="fill:none; stroke:#30373e; stroke-linecap:round; stroke-linejoin:round; stroke-width:1.5px;"/><path d="m502.498,49.564c6.369,0,11.853.228,17.653,1.843" style="fill:none; stroke:#30373e; stroke-linecap:round; stroke-linejoin:round; stroke-width:1.5px;"/><path d="m527.278,34.398c-.413-.6-1.088-.975-1.82-1.032-5.009-.413-16.415-1.126-34.612-1.126s-29.584.713-34.593,1.126c-.732.056-1.407.431-1.838,1.051-.413.6-.563,1.351-.356,2.064l4.221,15.927c.338,1.257,1.482,2.139,2.795,2.139h59.563c1.313,0,2.458-.882,2.795-2.139l4.221-15.927c.188-.713.056-1.463-.375-2.082Zm-26.339,13.939c0,.694-.544,1.238-1.238,1.238h-22.193c-.375,0-.732-.169-.976-.469l-.769-.976c-.525-.675-1.276-1.163-2.101-1.407-.732-.206-1.707-.488-2.701-.769-.525-.15-.901-.619-.901-1.182v-3.827c0-.694.544-1.238,1.238-1.238h28.402c.694,0,1.238.544,1.238,1.238v7.391Z" style="fill:#f4ae3d; stroke:#30373e; stroke-linecap:round; stroke-linejoin:round; stroke-width:.5px;"/><path d="m461.066,52.672c-.458,0-.861-.31-.978-.753l-4.225-15.922c-.046-.172-.013-.357.092-.506.106-.15.269-.244.451-.258,5.139-.416,16.453-1.11,34.448-1.11s29.309.694,34.451,1.11c.18.015.343.108.447.255.106.15.139.333.092.509l-4.225,15.922c-.117.443-.518.753-.978.753h-59.574Z" style="fill:none; stroke:#30373e; stroke-linecap:round; stroke-linejoin:round; stroke-width:.5px;"/><line x1="457.679" y1="36.823" x2="468.4" y2="39.984" style="fill:none; stroke:#30373e; stroke-linecap:round; stroke-linejoin:round; stroke-width:.5px;"/><line x1="524.134" y1="36.805" x2="502.985" y2="40.169" style="fill:none; stroke:#30373e; stroke-linecap:round; stroke-linejoin:round; stroke-width:.5px;"/><path d="m470.961,45.954c-7.661-2.089-8.909-1.782-11.196.822" style="fill:none; stroke:#30373e; stroke-linecap:round; stroke-linejoin:round; stroke-width:.5px;"/><path d="m468.72,45.369c-2.546-.555-3.029.472,1.754,5.878" style="fill:none; stroke:#30373e; stroke-linecap:round; stroke-linejoin:round; stroke-width:.5px;"/><path d="m473.905,52.672c-1.456-3.4.552-3.097,3.603-3.097" style="fill:none; stroke:#30373e; stroke-linecap:round; stroke-linejoin:round; stroke-width:.5px;"/><path d="m502.498,49.564c6.369,0,11.853.228,17.653,1.843" style="fill:none; stroke:#30373e; stroke-linecap:round; stroke-linejoin:round; stroke-width:.5px;"/></g><g id="uuid-8b9c10cf-875c-4fbc-8eb9-74728415d7aa"><path d="m158.243,4.964c-3.934,0-7.123,3.189-7.123,7.123v2.338c0,3.934,3.189,7.123,7.123,7.123s7.123-3.189,7.123-7.123v-2.338c0-3.934-3.189-7.123-7.123-7.123Z" style="fill:none; stroke:#f4f4f4; stroke-miterlimit:10; stroke-width:4px;"/><circle cx="158.243" cy="13.256" r="8.275" style="fill:none; stroke:#f4f4f4; stroke-miterlimit:10; stroke-width:4px;"/><circle cx="158.243" cy="13.256" r="8.275" style="fill:#30373e; stroke-width:0px;"/><path d="m158.243,4.964c-3.934,0-7.123,3.189-7.123,7.123v2.338c0,3.934,3.189,7.123,7.123,7.123s7.123-3.189,7.123-7.123v-2.338c0-3.934-3.189-7.123-7.123-7.123Z" style="fill:#30373e; stroke-width:0px;"/><path d="m157.285,11.069c-.199.135-.455.284-.767.448l-.819-1.326c.477-.26.905-.535,1.287-.825.381-.29.732-.613,1.053-.969h1.808v9.334h-1.847v-7.215c-.277.234-.516.418-.715.553Z" style="fill:#f4f4f4; stroke-width:0px;"/><path d="m491.642,4.964c-4.462,0-8.079,3.617-8.079,8.079v.426c0,4.462,3.617,8.079,8.079,8.079s8.079-3.617,8.079-8.079v-.426c0-4.462-3.617-8.079-8.079-8.079Z" style="fill:none; stroke:#f4f4f4; stroke-miterlimit:10; stroke-width:4px;"/><circle cx="491.642" cy="13.256" r="8.275" style="fill:none; stroke:#f4f4f4; stroke-miterlimit:10; stroke-width:4px;"/><circle cx="491.642" cy="13.256" r="8.275" style="fill:#30373e; stroke-width:0px;"/><path d="m491.642,4.964c-4.462,0-8.079,3.617-8.079,8.079v.426c0,4.462,3.617,8.079,8.079,8.079s8.079-3.617,8.079-8.079v-.426c0-4.462-3.617-8.079-8.079-8.079Z" style="fill:#30373e; stroke-width:0px;"/><path d="m488.155,16.263l3.237-3.029c.304-.277.559-.544.767-.799.208-.256.369-.496.48-.722.113-.226.17-.438.17-.637v-.117c0-.312-.119-.567-.357-.768-.238-.199-.539-.299-.904-.299-.52,0-.918.113-1.195.338-.277.226-.459.611-.547,1.157l-1.637-.52c.139-.832.506-1.476,1.104-1.931s1.356-.683,2.274-.683c.581,0,1.105.104,1.574.312.467.208.838.512,1.111.91.272.398.409.871.409,1.417,0,.451-.089.882-.267,1.294-.178.411-.405.788-.683,1.131s-.594.674-.949.994l-2.002,1.794h3.966v1.625h-6.553v-1.469Z" style="fill:#f4f4f4; stroke-width:0px;"/></g></svg>