<?xml version="1.0" encoding="UTF-8"?><svg xmlns="http://www.w3.org/2000/svg" width="153.811mm" height="76.906mm" xmlns:xlink="http://www.w3.org/1999/xlink" viewBox="0 0 436 218"><defs><clipPath id="uuid-4eb53198-69a1-444d-8559-c937ae4276b7"><rect x="5.88" y="-345" width="313.239" height="289.12" style="fill:none; stroke-width:0px;"/></clipPath></defs><g id="uuid-c8d11ab6-debc-402f-a59a-fcc2b4366fee"><path d="m326.17,151.646c-.316-.568-1.336-1.578-2.272-2.44-.947-.863-1.799-1.588-1.799-1.588v-.021c-1.988-8.825-6.101-10.234-6.364-10.308,0-.011-.011-.011-.011-.011l-22.499-8.667h-.053c-.126-.978-.736-1.841-1.662-2.272l-8.499-3.986c-.757-.347-1.62-.358-2.367-.053-.179.074-.358.168-.515.284l-.053-.074-10.592-4.481c-1.893-1.02-4.186-.989-6.574-.105h-.01l-5.501-2.377c-.547-.231-1.168-.168-1.662.168l-3.387,2.335-6.332-2.724c-1.189-.6-2.63-.494-4.102.2l-10.455-4.502c-.263-1.409-.926-2.482-1.956-3.04l-2.945-1.578c-1.367-.736-3.145-.4-4.891.736l-6.911-2.977c-2.188-1.168-5.648,1.041-7.731,4.933-2.083,3.881-1.998,7.983.179,9.161l8.267,3.545c.347.957.926,1.693,1.714,2.114l2.829,1.504.116.063c1.147.621,2.588.484,4.06-.252l9.393,4.039h.011c-.105,2.703.726,4.87,2.44,5.743l5.564,2.398c-.126.557-.242,1.073-.368,1.536-.084.316-.074.642.032.936.063.21.158.4.294.568l4.113,5.133,5.869,3.155.81,1.157,17.208,8.352h.011s2.314,1.462,3.871.894c1.809-.536,3.702-1.578,5.543-3.05l.137-.042c.221.631.41,1.199.568,1.662.421,1.241,1.252,2.293,2.377,2.987,10.034,6.195,27.316,12.517,27.316,12.517,0,0,.095.032.252.084.757.231,2.998.883,4.05.768,3.555.505,8.299-2.977,11.307-8.604,2.882-5.375,3.25-11.002,1.178-13.821Z" style="fill:#cfd2d4; stroke-width:0px;"/><path d="m417.279,206.205l-51.887-25.349c1.567-4.88.873-9.393-1.883-10.739l-3.261-1.588c-1.315-.642-2.914-.473-4.533.358v-.011l-9.719-4.723c-2.64-1.283-6.648,1.483-8.941,6.185-2.293,4.702-2.009,9.572.631,10.855l9.719,4.723c.358,1.778,1.21,3.134,2.524,3.776l3.092,1.504.168.084c2.777,1.357,6.763-.905,9.656-5.186l51.908,25.307c.799.4,2.019-.452,2.724-1.883.694-1.441.61-2.924-.2-3.313Z" style="fill:#cfd2d4; stroke-width:0px;"/><path d="m364.646,63.566l-.021-.011-7.342-3.418c-1.315-.642-2.903-.473-4.523.337l-9.729-4.723c-2.64-1.283-6.637,1.494-8.93,6.195-2.293,4.702-2.009,9.561.621,10.844l9.729,4.733c.358,1.778,1.199,3.134,2.524,3.776l7.331,3.429h.021c3.282,1.609,8.257-1.841,11.107-7.678,2.84-5.848,2.493-11.886-.789-13.484Zm-10.213,12.233c-.074.063-.137.126-.21.179.053-.368.116-.757.221-1.146-.032.337-.032.663-.011.968Z" style="fill:#cfd2d4; stroke-width:0px;"/><path d="m397.084,140.529h-.01c-13.4-8.425-26.201-16.861-38.181-25.328-1.315-.642-2.914-.473-4.523.358l-.011-.011-9.719-4.723c-2.64-1.283-6.648,1.483-8.93,6.195-2.304,4.702-2.009,9.561.621,10.844l9.729,4.723c.358,1.778,1.199,3.145,2.524,3.787,13.958,3.524,28.683,8.089,43.945,13.474h.011c1.441.705,3.629-.81,4.891-3.387,1.252-2.566,1.094-5.228-.347-5.932Z" style="fill:#cfd2d4; stroke-width:0px;"/></g><g id="uuid-f3ed73fe-caea-4305-a471-d2bb589d18f0"><path d="m139.796,105.969c-6.967-3.202-7.991-15.857-2.288-28.264,5.703-12.408,15.975-19.87,22.941-16.667l37.748,17.352c6.967,3.202,7.991,15.857,2.288,28.264-5.703,12.408-15.975,19.87-22.941,16.667l-37.748-17.352Z" style="fill:none; stroke:#30373e; stroke-miterlimit:10;"/><ellipse cx="187.87" cy="100.855" rx="10.529" ry="5.912" transform="translate(17.767 229.432) rotate(-65.313)" style="fill:none; stroke:#30373e; stroke-miterlimit:10;"/><path d="m134.107,97.004l-.415-.193-5.641-6.222c1.135-4.646,2.138-17.991,2.138-17.991l13.61-10.675,4.983,1.399" style="fill:none; stroke:#30373e; stroke-miterlimit:10;"/><line x1="138.601" y1="75.496" x2="130.19" y2="72.598" style="fill:none; stroke:#30373e; stroke-miterlimit:10; stroke-width:.5px;"/><line x1="133.826" y1="92.875" x2="128.052" y2="90.589" style="fill:none; stroke:#30373e; stroke-miterlimit:10; stroke-width:.5px;"/><path d="m198.197,78.389c-6.967-3.202-17.238,4.26-22.941,16.667-5.703,12.408-4.679,25.062,2.288,28.264" style="fill:none; stroke:#30373e; stroke-miterlimit:10; stroke-width:.5px;"/><path d="m188.776,74.087c-6.967-3.202-17.238,4.26-22.941,16.667-5.703,12.408-4.679,25.062,2.288,28.264" style="fill:none; stroke:#30373e; stroke-miterlimit:10; stroke-width:.5px;"/><path d="m186.908,73.227c-6.967-3.202-17.238,4.26-22.941,16.667s-4.679,25.062,2.288,28.264" style="fill:none; stroke:#30373e; stroke-miterlimit:10; stroke-width:.5px;"/><path d="m182.126,71.026c-6.967-3.202-17.238,4.26-22.941,16.667s-4.679,25.062,2.288,28.264" style="fill:none; stroke:#30373e; stroke-miterlimit:10; stroke-width:.5px;"/><path d="m180.258,70.166c-6.967-3.202-17.238,4.26-22.941,16.667-5.703,12.408-4.679,25.062,2.288,28.264" style="fill:none; stroke:#30373e; stroke-miterlimit:10; stroke-width:.5px;"/><path d="m135.748,102.034l-10.998-3.815L39.604,50.058c-14.845-7.765-.936-34.356,13.909-26.591,0,0,57.226,24.986,90.763,33.372.651.163,1.259.452,1.792.858l5.327,4.054" style="fill:none; stroke:#30373e; stroke-miterlimit:10;"/><path d="m145.26,57.081l-16.991,12.95c-1.191.907-1.921,2.294-1.995,3.789l-1.078,21.573s-.09,2.949,1.714,3.574" style="fill:none; stroke:#30373e; stroke-miterlimit:10; stroke-width:.5px;"/><path d="m124.68,72.723c-7.398,5.288-7.079,12.695-1.386,19.182-1.323-1.339-2.549-2.808-3.438-4.505-3.049-5.47-.469-11.803,4.824-14.677h0Z" style="fill:#30373e; stroke-width:0px;"/><path d="m126.343,69.32c1.011-8.489,6.977-12.859,15.373-11.464-1.804-.043-3.606-.008-5.355.331-5.66.826-8.9,5.897-10.018,11.133h0Z" style="fill:#30373e; stroke-width:0px;"/><path d="m122.513,50.508c-5.667-2.605-14.023,3.465-18.662,13.559-4.64,10.093-3.806,20.387,1.861,22.992" style="fill:none; stroke:#30373e; stroke-miterlimit:10; stroke-width:.5px;"/><path d="m91.913,76.475l3.359,1.775-.151.11c-1.373-6.752.798-13.794,4.184-19.631,1.154-1.964,2.544-3.788,4.11-5.437l.046.211-4.577-2.047,4.678,1.804c.205.092.217.018.046.211-5.792,6.775-9.637,16.079-8.246,25.072,0,0-.191-.115-.191-.115l-3.258-1.954h0Z" style="fill:#30373e; stroke-width:0px;"/><path d="m116.529,48.408c-3.583-1.317-7.319.489-10.18,2.639-.11.073-.066.102-.215.031-1.583-.675-3.158-1.369-4.707-2.126,1.642.526,3.26,1.115,4.869,1.723l-.215.031c2.801-2.292,6.961-4.16,10.447-2.298h0Z" style="fill:#30373e; stroke-width:0px;"/><path d="m86.138,73.26l3.286,1.727-.151.11c-1.639-8.75,2.169-17.993,8.071-24.396,0,0,.046.211.046.211l-4.452-1.995,4.553,1.752.175.067c-5.718,6.605-9.509,15.731-8.152,24.544,0,0-.191-.115-.191-.115l-3.185-1.906h0Z" style="fill:#30373e; stroke-width:0px;"/><path d="m95.411,46.478c1.605.5,3.182,1.069,4.749,1.663l-.228.033c1.203-.969,2.538-1.803,4.003-2.338,1.455-.528,3.07-.763,4.572-.399-3.086-.198-5.892,1.312-8.291,3.099,0,0-.11.083-.11.083-1.582-.673-3.153-1.37-4.695-2.14h0Z" style="fill:#30373e; stroke-width:0px;"/><path d="m80.364,70.045l3.212,1.678-.152.111c-1.599-8.509,2.105-17.5,7.848-23.724,0,0,.046.211.046.211l-4.327-1.943,4.428,1.701c.207.091.215.019.046.211-5.474,6.417-9.112,15.219-7.799,23.729,0,0-.192-.114-.192-.114l-3.112-1.858h0Z" style="fill:#30373e; stroke-width:0px;"/><path d="m89.395,44.01c1.562.479,3.097,1.025,4.62,1.603l-.231.033c1.111-.894,2.339-1.667,3.682-2.183,1.336-.508,2.803-.778,4.209-.546-2.839.056-5.384,1.435-7.602,3.096,0,0-.111.084-.111.084-1.54-.651-3.068-1.333-4.566-2.087h0Z" style="fill:#30373e; stroke-width:0px;"/><path d="m74.589,66.83l3.139,1.629-.152.112c-1.558-8.268,2.042-17.007,7.626-23.052,0,0,.046.211.046.211l-4.203-1.891,4.304,1.649c.207.091.214.019.046.211-5.315,6.238-8.849,14.789-7.575,23.058,0,0-.192-.114-.192-.114l-3.038-1.81h0Z" style="fill:#30373e; stroke-width:0px;"/><path d="m83.38,41.537c1.52.46,3.012.989,4.491,1.551l-.232.033c1.063-.852,2.236-1.59,3.516-2.089,1.274-.49,2.667-.766,4.016-.582-2.714.151-5.125,1.46-7.242,3.04l-.113.084c-1.497-.633-2.981-1.299-4.436-2.037h0Z" style="fill:#30373e; stroke-width:0px;"/><path d="m68.815,63.615l3.066,1.58-.153.112c-1.518-8.027,1.978-16.514,7.403-22.381,0,0,.046.21.046.21l-4.078-1.839,4.179,1.597.175.067c-5.241,6.068-8.721,14.441-7.481,22.53,0,0-.192-.114-.192-.114l-2.965-1.762h0Z" style="fill:#30373e; stroke-width:0px;"/><path d="m77.37,39.063c1.475.444,2.922.955,4.356,1.499l-.232.033c1.034-.829,2.175-1.544,3.419-2.028,1.239-.476,2.59-.749,3.902-.578-2.634.179-4.972,1.444-7.031,2.976l-.113.084c-1.452-.616-2.891-1.264-4.301-1.985h0Z" style="fill:#30373e; stroke-width:0px;"/><path d="m63.04,60.4l2.993,1.531-.153.113c-1.478-7.786,1.914-16.021,7.18-21.709,0,0,.046.21.046.21l-3.954-1.787,4.055,1.545.175.067c-5.082,5.889-8.458,14.011-7.257,21.859,0,0-.193-.114-.193-.114l-2.892-1.714h0Z" style="fill:#30373e; stroke-width:0px;"/><path d="m71.354,36.59c1.433.427,2.838.923,4.231,1.449l-.231.033c1.021-.823,2.154-1.527,3.388-1.999,1.228-.464,2.57-.723,3.865-.538-2.606.153-4.928,1.391-6.964,2.904l-.113.084c-1.41-.6-2.807-1.23-4.176-1.932h0Z" style="fill:#30373e; stroke-width:0px;"/><path d="m57.265,57.185l2.92,1.482-.154.113c-1.437-7.545,1.85-15.529,6.958-21.037,0,0,.046.21.046.21l-3.829-1.736,3.93,1.493.175.067c-4.923,5.71-8.195,13.581-7.034,21.188,0,0-.193-.114-.193-.114l-2.818-1.666h0Z" style="fill:#30373e; stroke-width:0px;"/><path d="m65.339,34.117c1.389.412,2.75.893,4.1,1.4l-.229.033c1.026-.832,2.173-1.532,3.42-1.994,1.241-.453,2.6-.691,3.897-.462-2.614.071-4.976,1.297-7.032,2.819,0,0-.111.083-.111.083-1.366-.585-2.72-1.195-4.046-1.879h0Z" style="fill:#30373e; stroke-width:0px;"/><path d="m51.491,53.97l2.846,1.432-.154.114c-1.397-7.304,1.787-15.036,6.735-20.365,0,0,.046.21.046.21l-3.705-1.684,3.805,1.442.175.066c-4.764,5.531-7.933,13.151-6.81,20.517,0,0-.194-.114-.194-.114l-2.745-1.618h0Z" style="fill:#30373e; stroke-width:0px;"/><path d="m59.324,31.644c1.344.398,2.661.865,3.969,1.352l-.225.032c1.054-.86,2.244-1.571,3.537-2.024,1.285-.444,2.704-.647,4.022-.322-2.695-.104-5.163,1.154-7.279,2.703,0,0-.11.082-.11.082-1.32-.571-2.632-1.16-3.915-1.823h0Z" style="fill:#30373e; stroke-width:0px;"/><path d="m45.716,50.755l2.773,1.383-.155.115c-1.356-7.063,1.723-14.543,6.512-19.693,0,0,.046.21.046.21l-3.58-1.632,3.681,1.39.175.066c-4.605,5.352-7.67,12.721-6.586,19.845,0,0-.194-.114-.194-.114l-2.672-1.57h0Z" style="fill:#30373e; stroke-width:0px;"/><path d="m65.605,28.601c-3.028-.957-6.102.58-8.513,2.331-1.272-.561-2.543-1.124-3.784-1.759,1.298.389,2.569.847,3.838,1.309l-.215.031c2.318-1.879,5.799-3.397,8.674-1.911h0Z" style="fill:#30373e; stroke-width:0px;"/><path d="m42.557,23.772c-7.65-5.014-15.119-10.491-21.194-17.363,6.291,6.616,13.939,11.808,21.709,16.506,0,0-.515.857-.515.857h0Z" style="fill:#30373e; stroke-width:0px;"/><path d="m33.008,40.36c-7.65-5.014-15.119-10.491-21.194-17.363,6.291,6.616,13.939,11.808,21.709,16.506,0,0-.515.857-.515.857h0Z" style="fill:#30373e; stroke-width:0px;"/><path d="m293.204,129.109l-.062,1.634c-.03.79-.38,1.538-.969,2.069-.486.436-1.152,1.039-2.002,1.797-.942.844-2.109,1.882-3.495,3.1-.834.739-2.019.946-3.051.526l-7.444-3.008c-.823-.333-1.454-1.019-1.713-1.87-.312-1.035-.624-2.427-.854-3.523-.154-.747-.007-1.513.383-2.146.174-.28.396-.534.661-.746l5.268-4.219c.219-.175.462-.319.718-.422.748-.308,1.608-.3,2.366.056l8.5,3.978c1.074.501,1.739,1.594,1.694,2.774Z" style="fill:none; stroke:#30373e; stroke-miterlimit:10;"/><path d="m289.352,135.34s14.003,5.499,17.228,7.014,7.725,6.396,9.547,13.391" style="fill:none; stroke:#30373e; stroke-miterlimit:10; stroke-width:.5px;"/><path d="m323.379,164.607c1.417-3.188,3.05-8.72-.409-11.047-5.466-1.802-10.489,7.111-10.799,11.708-.391,2.916,1.052,6.387,4.533,5.318,2.929-.934,5.073-3.413,6.675-5.979-.894,1.865-2.124,3.603-3.731,4.98-2.58,2.368-6.921,2.897-8.091-1.158-.872-3.165.12-6.5,1.552-9.321,6.675-11.826,16.948-6.554,10.27,5.499h0Z" style="fill:#30373e; stroke-width:0px;"/><path d="m313.898,170.788c2.702-.094,6.037-2.752,8.211-6.813,2.223-4.16,2.544-8.517,1.013-10.77-.01-.02-.02-.035-.03-.049" style="fill:none; stroke:#30373e; stroke-miterlimit:10; stroke-width:.5px;"/><path d="m321.871,152.845c1.255,2.322.865,6.403-1.23,10.31-2.08,3.898-5.242,6.482-7.865,6.734" style="fill:none; stroke:#30373e; stroke-miterlimit:10; stroke-width:.5px;"/><path d="m320.735,152.904c.805,2.366.296,5.968-1.561,9.436-1.853,3.473-4.58,5.894-7,6.526" style="fill:none; stroke:#30373e; stroke-miterlimit:10; stroke-width:.5px;"/><path d="m319.515,153.279c.361,2.282-.237,5.311-1.803,8.24-1.581,2.954-3.794,5.143-5.909,6.096" style="fill:none; stroke:#30373e; stroke-miterlimit:10; stroke-width:.5px;"/><path d="m311.675,166.02c1.68-1.131,3.325-2.984,4.57-5.321,1.23-2.297,1.858-4.659,1.892-6.664" style="fill:none; stroke:#30373e; stroke-miterlimit:10; stroke-width:.5px;"/><path d="m311.927,163.763c1.052-1.042,2.04-2.356,2.851-3.878.795-1.487,1.339-2.999,1.625-4.421" style="fill:none; stroke:#30373e; stroke-miterlimit:10; stroke-width:.5px;"/><path d="m229.549,110.209c-2.184-1.17-5.644,1.036-7.727,4.926s-2.001,7.992.184,9.162" style="fill:none; stroke:#30373e; stroke-miterlimit:10;"/><path d="m231.466,111.034c-.268-1.404-.923-2.492-1.96-3.046l-2.946-1.576c-2.713-1.453-7.01,1.285-9.602,6.12-2.587,4.835-2.485,9.931.228,11.384l2.946,1.576c1.153.617,2.587.479,4.059-.256" style="fill:none; stroke:#30373e; stroke-miterlimit:10;"/><path d="m275.562,134.883c-.969,1.041-1.872,2.292-2.633,3.716-2.779,5.189-2.665,10.651.246,12.211l4.992,2.846" style="fill:none; stroke:#30373e; stroke-miterlimit:10;"/><path d="m278.98,156.094c-1.836,1.472-3.73,2.518-5.54,3.047-1.559.568-3.872-.884-3.872-.884l-17.217-8.354-4.004-5.724c-.966-1.386-1.34-3.096-1.05-4.756.529-2.991,1.636-6.211,3.329-9.37,5.083-9.496,13.525-14.879,18.859-12.021l10.596,4.485" style="fill:none; stroke:#30373e; stroke-miterlimit:10;"/><path d="m273.997,127.69c-2.506,2.184-4.879,5.163-6.784,8.719-2.235,4.166-3.446,8.436-3.652,12.156" style="fill:none; stroke:#30373e; stroke-miterlimit:10; stroke-width:.5px;"/><path d="m278.945,136.345c-1.037,1.297-2.513,2.92-3.031,3.818-.754,1.308-.969,2.854-.575,4.312,1.056,3.914,3.388,10.427,4.347,13.238.424,1.242,1.26,2.296,2.376,2.985,10.043,6.2,27.323,12.523,27.323,12.523,0,0,3.023.989,4.295.852,3.556.509,8.304-2.981,11.313-8.601,2.881-5.38,3.253-11.005,1.178-13.824h-.002c-.645-1.14-4.076-4.027-4.076-4.027-2.039-9.129-6.369-10.34-6.369-10.34l-22.503-8.67" style="fill:none; stroke:#30373e; stroke-miterlimit:10;"/><line x1="241.93" y1="115.532" x2="229.549" y2="110.209" style="fill:none; stroke:#30373e; stroke-miterlimit:10;"/><line x1="233.588" y1="129.278" x2="222.007" y2="124.298" style="fill:none; stroke:#30373e; stroke-miterlimit:10;"/><path d="m214.756,104.169c-2.184-1.17-5.644,1.036-7.727,4.926-2.083,3.89-2.001,7.992.184,9.162" style="fill:none; stroke:#30373e; stroke-miterlimit:10;"/><line x1="221.672" y1="107.14" x2="214.755" y2="104.167" style="fill:none; stroke:#30373e; stroke-miterlimit:10;"/><line x1="215.482" y1="121.81" x2="207.213" y2="118.256" style="fill:none; stroke:#30373e; stroke-miterlimit:10;"/><path d="m326.172,151.647c-.402-.546-.896-.987-1.481-1.301-3.606-1.931-9.317,1.71-12.756,8.133s-3.303,13.194.303,15.125c.451.241.934.396,1.442.468" style="fill:none; stroke:#30373e; stroke-miterlimit:10; stroke-width:.5px;"/><path d="m308.315,159.44c-1.225,4.403-2.655,10.536,1.541,13.74-4.773-2.664-3.494-9.601-1.541-13.74h0Z" style="fill:#30373e; stroke-width:0px;"/><path d="m322.047,147.837c-2.236-.539-4.572.475-6.431,1.715,1.839-1.42,4.12-2.6,6.536-2.203,0,0-.105.489-.105.489h0Z" style="fill:#30373e; stroke-width:0px;"/><path d="m276.081,143.214c5.277,2.33,12.844,5.935,18.132,8.454,1.497.722,3.001,1.478,4.492,2.172,4.696,1.941,9.997.29,13.954-2.63-3.843,3.176-9.303,5.025-14.126,3.045-1.538-.699-3.02-1.428-4.533-2.14-5.285-2.577-12.778-6.212-17.919-8.902h0Z" style="fill:#30373e; stroke-width:0px;"/><path d="m315.871,137.077c3.318,2.506,3.463,7.426.467,10.219.623-.72,1.16-1.516,1.509-2.394,1.114-2.616.002-5.84-2.267-7.419,0,0,.292-.406.292-.406h0Z" style="fill:#30373e; stroke-width:0px;"/><path d="m302.264,156.536c.488,2.289,1.107,4.672,1.554,6.969,0,0-.46-.074-.46-.074.664-1.095,1.434-2.1,2.326-3.007.895-.888,1.912-1.701,3.097-2.152-2.326,1.409-3.957,3.677-5.326,5.964-.476-2.515-1.052-5.14-1.191-7.7h0Z" style="fill:#30373e; stroke-width:0px;"/><path d="m274.582,129.14c2.37.778,4.683,1.694,6.983,2.643l1.722.737c1.248.547,1.889,2.01,1.656,3.293-.065.62-.113,1.24-.193,1.859-.033-.624-.034-1.246-.051-1.869.106-1.208-.496-2.381-1.608-2.853,0,0-1.718-.706-1.718-.706-2.292-.967-4.57-1.966-6.79-3.104h0Z" style="fill:#30373e; stroke-width:0px;"/><path d="m284.911,133.449c2.003-2.26,4.235-4.274,6.695-6.026-2.001,2.263-4.237,4.271-6.695,6.026h0Z" style="fill:#30373e; stroke-width:0px;"/><path d="m282.71,131.674c2.003-2.26,4.235-4.274,6.695-6.026-2.001,2.263-4.237,4.271-6.695,6.026h0Z" style="fill:#30373e; stroke-width:0px;"/><path d="m280.095,130.47c2.003-2.26,4.235-4.274,6.695-6.026-2.001,2.263-4.237,4.271-6.695,6.026h0Z" style="fill:#30373e; stroke-width:0px;"/><path d="m277.539,129.253c2.003-2.26,4.235-4.274,6.695-6.026-2.001,2.263-4.237,4.271-6.695,6.026h0Z" style="fill:#30373e; stroke-width:0px;"/><path d="m275.106,128.244c2.003-2.26,4.235-4.274,6.695-6.026-2.001,2.263-4.237,4.271-6.695,6.026h0Z" style="fill:#30373e; stroke-width:0px;"/><polyline points="247.159 141.515 263.558 148.565 269.571 158.258" style="fill:none; stroke:#30373e; stroke-miterlimit:10; stroke-width:.5px;"/><path d="m251.54,148.743l-5.865-3.152-4.116-5.136c-.339-.423-.461-.978-.323-1.502,1.019-3.879,2.186-11.835,2.535-14.298.067-.475.33-.899.725-1.172l11.248-7.767c.487-.336,1.113-.399,1.656-.165l5.512,2.37" style="fill:none; stroke:#30373e; stroke-miterlimit:10;"/><line x1="243.875" y1="123.912" x2="252.153" y2="127.471" style="fill:none; stroke:#30373e; stroke-miterlimit:10; stroke-width:.5px;"/><line x1="247.655" y1="142.881" x2="241.006" y2="139.765" style="fill:none; stroke:#30373e; stroke-miterlimit:10; stroke-width:.5px;"/><path d="m241.604,137.412l-5.565-2.392c-3.053-1.547-3.295-7.209-.54-12.646,2.755-5.437,7.463-8.591,10.516-7.044l6.354,2.732" style="fill:none; stroke:#30373e; stroke-miterlimit:10;"/><path d="m229.504,107.987c-2.714-1.453-7.013,1.287-9.601,6.121-2.588,4.834-2.486,9.931.228,11.384" style="fill:none; stroke:#30373e; stroke-miterlimit:10; stroke-width:.5px;"/><path d="m313.327,151.059c-1.65,2.045-3.147,4.113-4.512,6.347.735-2.526,2.386-4.805,4.512-6.347h0Z" style="fill:#30373e; stroke-width:0px;"/><path d="m361.53,178.973c.041-1.213-.328-2.191-1.096-2.561-.768-.375-1.758-.07-2.684.715-.68.562-1.324,1.395-1.811,2.396-.475.973-.727,1.963-.768,2.83h-.006c-.064,1.248.305,2.25,1.09,2.631.779.381,1.799.059,2.742-.762" style="fill:none; stroke:#30373e; stroke-miterlimit:10;"/><ellipse cx="415.917" cy="208.756" rx="1.577" ry=".886" transform="translate(46.05 491.182) rotate(-64.018)" style="fill:none; stroke:#30373e; stroke-miterlimit:10;"/><path d="m357.75,177.126l59.533,29.081c.806.393.892,1.874.193,3.309s-1.919,2.28-2.725,1.887l-59.58-29.051" style="fill:none; stroke:#30373e; stroke-miterlimit:10;"/><path d="m365.391,180.86c1.564-4.887.879-9.398-1.887-10.746l-3.258-1.588c-3.281-1.6-8.25,1.846-11.097,7.687-2.853,5.848-2.502,11.883.785,13.482l3.252,1.588c2.777,1.353,6.773-.908,9.662-5.185" style="fill:none; stroke:#30373e; stroke-miterlimit:10;"/><path d="m355.717,168.872l-9.722-4.723c-2.643-1.283-6.644,1.488-8.935,6.193-2.297,4.699-2.01,9.562.627,10.846l9.728,4.729" style="fill:none; stroke:#30373e; stroke-miterlimit:10;"/><path d="m345.995,164.149c-2.643-1.283-6.644,1.488-8.935,6.193-2.297,4.699-2.01,9.562.627,10.846" style="fill:none; stroke:#30373e; stroke-miterlimit:10; stroke-width:.5px;"/><path d="m347.344,164.802c-2.643-1.283-6.644,1.488-8.935,6.193-2.297,4.699-2.01,9.562.627,10.846" style="fill:none; stroke:#30373e; stroke-miterlimit:10; stroke-width:.5px;"/><path d="m348.693,165.456c-2.643-1.283-6.644,1.488-8.935,6.193-2.297,4.699-2.01,9.562.627,10.846" style="fill:none; stroke:#30373e; stroke-miterlimit:10; stroke-width:.5px;"/><path d="m350.043,166.109c-2.643-1.283-6.644,1.488-8.935,6.193-2.297,4.699-2.01,9.562.627,10.846" style="fill:none; stroke:#30373e; stroke-miterlimit:10; stroke-width:.5px;"/><path d="m351.392,166.763c-2.643-1.283-6.644,1.488-8.935,6.193-2.297,4.699-2.01,9.562.627,10.846" style="fill:none; stroke:#30373e; stroke-miterlimit:10; stroke-width:.5px;"/><path d="m352.741,167.417c-2.643-1.283-6.644,1.488-8.935,6.193-2.297,4.699-2.01,9.562.627,10.846" style="fill:none; stroke:#30373e; stroke-miterlimit:10; stroke-width:.5px;"/><path d="m354.09,168.07c-2.643-1.283-6.644,1.488-8.935,6.193-2.297,4.699-2.01,9.562.627,10.846" style="fill:none; stroke:#30373e; stroke-miterlimit:10; stroke-width:.5px;"/><path d="m363.505,170.114c-3.283-1.6-8.253,1.843-11.103,7.689-2.849,5.846-2.498,11.882.785,13.482" style="fill:none; stroke:#30373e; stroke-miterlimit:10; stroke-width:.5px;"/><path d="m417.282,206.206c-.806-.393-2.026.452-2.725,1.887-.699,1.435-.613,2.916.193,3.309" style="fill:none; stroke:#30373e; stroke-miterlimit:10; stroke-width:.5px;"/><line x1="363.352" y1="170.113" x2="360.094" y2="168.525" style="fill:none; stroke:#30373e; stroke-miterlimit:10; stroke-width:.5px;"/><line x1="361.956" y1="169.736" x2="358.698" y2="168.148" style="fill:none; stroke:#30373e; stroke-miterlimit:10; stroke-width:.5px;"/><line x1="360.435" y1="169.86" x2="357.177" y2="168.272" style="fill:none; stroke:#30373e; stroke-miterlimit:10; stroke-width:.5px;"/><line x1="358.841" y1="170.447" x2="355.584" y2="168.859" style="fill:none; stroke:#30373e; stroke-miterlimit:10; stroke-width:.5px;"/><line x1="357.231" y1="171.461" x2="353.973" y2="169.873" style="fill:none; stroke:#30373e; stroke-miterlimit:10; stroke-width:.5px;"/><line x1="355.657" y1="172.862" x2="352.399" y2="171.275" style="fill:none; stroke:#30373e; stroke-miterlimit:10; stroke-width:.5px;"/><line x1="354.174" y1="174.615" x2="350.917" y2="173.027" style="fill:none; stroke:#30373e; stroke-miterlimit:10; stroke-width:.5px;"/><line x1="352.838" y1="176.681" x2="349.58" y2="175.093" style="fill:none; stroke:#30373e; stroke-miterlimit:10; stroke-width:.5px;"/><line x1="351.718" y1="178.988" x2="348.46" y2="177.4" style="fill:none; stroke:#30373e; stroke-miterlimit:10; stroke-width:.5px;"/><line x1="350.936" y1="181.31" x2="347.678" y2="179.722" style="fill:none; stroke:#30373e; stroke-miterlimit:10; stroke-width:.5px;"/><line x1="350.501" y1="183.553" x2="347.243" y2="181.965" style="fill:none; stroke:#30373e; stroke-miterlimit:10; stroke-width:.5px;"/><line x1="350.403" y1="185.653" x2="347.145" y2="184.065" style="fill:none; stroke:#30373e; stroke-miterlimit:10; stroke-width:.5px;"/><line x1="350.634" y1="187.543" x2="347.376" y2="185.955" style="fill:none; stroke:#30373e; stroke-miterlimit:10; stroke-width:.5px;"/><line x1="351.184" y1="189.157" x2="347.926" y2="187.569" style="fill:none; stroke:#30373e; stroke-miterlimit:10; stroke-width:.5px;"/><line x1="352.045" y1="190.429" x2="348.788" y2="188.841" style="fill:none; stroke:#30373e; stroke-miterlimit:10; stroke-width:.5px;"/><line x1="353.209" y1="191.294" x2="349.951" y2="189.706" style="fill:none; stroke:#30373e; stroke-miterlimit:10; stroke-width:.5px;"/><ellipse cx="359.586" cy="73.943" rx="8.15" ry="4.576" transform="translate(135.584 364.792) rotate(-64.018)" style="fill:none; stroke:#30373e; stroke-miterlimit:10;"/><path d="m362.447,66.393c1.531,1.596,1.497,5.227-.222,8.759-1.778,3.651-4.752,5.948-6.981,5.543" style="fill:none; stroke:#30373e; stroke-miterlimit:10; stroke-width:.5px;"/><path d="m357.304,69.101c1.107-.983,2.312-1.383,3.236-.934,1.541.756,1.709,3.596.366,6.343-1.339,2.752-3.676,4.372-5.222,3.621-.968-.474-1.393-1.769-1.245-3.34" style="fill:none; stroke:#30373e; stroke-miterlimit:10;"/><path d="m357.26,69.15c.084,1.166-.207,2.594-.894,4.002-.578,1.186-1.339,2.164-2.144,2.826" style="fill:none; stroke:#30373e; stroke-miterlimit:10; stroke-width:.5px;"/><path d="m364.625,63.554l-7.338-3.421c-3.281-1.6-8.25,1.846-11.097,7.687-2.853,5.848-2.502,11.883.785,13.482l7.332,3.421" style="fill:none; stroke:#30373e; stroke-miterlimit:10;"/><path d="m352.757,60.479l-9.722-4.723c-2.643-1.283-6.644,1.488-8.935,6.193-2.297,4.699-2.01,9.562.627,10.846l9.728,4.729" style="fill:none; stroke:#30373e; stroke-miterlimit:10;"/><path d="m343.035,55.755c-2.643-1.283-6.644,1.488-8.935,6.193-2.297,4.699-2.01,9.562.627,10.846" style="fill:none; stroke:#30373e; stroke-miterlimit:10; stroke-width:.5px;"/><path d="m344.384,56.409c-2.643-1.283-6.644,1.488-8.935,6.193-2.297,4.699-2.01,9.562.627,10.846" style="fill:none; stroke:#30373e; stroke-miterlimit:10; stroke-width:.5px;"/><path d="m345.733,57.062c-2.643-1.283-6.644,1.488-8.935,6.193-2.297,4.699-2.01,9.562.627,10.846" style="fill:none; stroke:#30373e; stroke-miterlimit:10; stroke-width:.5px;"/><path d="m347.082,57.716c-2.643-1.283-6.644,1.488-8.935,6.193-2.297,4.699-2.01,9.562.627,10.846" style="fill:none; stroke:#30373e; stroke-miterlimit:10; stroke-width:.5px;"/><path d="m348.431,58.37c-2.643-1.283-6.644,1.488-8.935,6.193-2.297,4.699-2.01,9.562.627,10.846" style="fill:none; stroke:#30373e; stroke-miterlimit:10; stroke-width:.5px;"/><path d="m349.781,59.023c-2.643-1.283-6.644,1.488-8.935,6.193-2.297,4.699-2.01,9.562.627,10.846" style="fill:none; stroke:#30373e; stroke-miterlimit:10; stroke-width:.5px;"/><path d="m351.13,59.677c-2.643-1.283-6.644,1.488-8.935,6.193-2.297,4.699-2.01,9.562.627,10.846" style="fill:none; stroke:#30373e; stroke-miterlimit:10; stroke-width:.5px;"/><path d="m364.625,63.554c-3.283-1.6-8.253,1.843-11.103,7.689-2.849,5.846-2.498,11.882.785,13.482" style="fill:none; stroke:#30373e; stroke-miterlimit:10; stroke-width:.5px;"/><line x1="364.587" y1="63.502" x2="357.096" y2="60.079" style="fill:none; stroke:#30373e; stroke-miterlimit:10; stroke-width:.5px;"/><line x1="363.189" y1="63.129" x2="355.709" y2="59.706" style="fill:none; stroke:#30373e; stroke-miterlimit:10; stroke-width:.5px;"/><line x1="361.667" y1="63.262" x2="354.196" y2="59.84" style="fill:none; stroke:#30373e; stroke-miterlimit:10; stroke-width:.5px;"/><line x1="360.073" y1="63.863" x2="352.613" y2="60.44" style="fill:none; stroke:#30373e; stroke-miterlimit:10; stroke-width:.5px;"/><line x1="358.463" y1="64.889" x2="351.013" y2="61.467" style="fill:none; stroke:#30373e; stroke-miterlimit:10; stroke-width:.5px;"/><line x1="356.888" y1="66.303" x2="349.449" y2="62.881" style="fill:none; stroke:#30373e; stroke-miterlimit:10; stroke-width:.5px;"/><line x1="355.404" y1="68.064" x2="347.975" y2="64.642" style="fill:none; stroke:#30373e; stroke-miterlimit:10; stroke-width:.5px;"/><line x1="354.063" y1="70.131" x2="346.645" y2="66.709" style="fill:none; stroke:#30373e; stroke-miterlimit:10; stroke-width:.5px;"/><line x1="352.935" y1="72.439" x2="345.527" y2="69.017" style="fill:none; stroke:#30373e; stroke-miterlimit:10; stroke-width:.5px;"/><line x1="352.144" y1="74.763" x2="344.746" y2="71.341" style="fill:none; stroke:#30373e; stroke-miterlimit:10; stroke-width:.5px;"/><line x1="351.7" y1="77.009" x2="344.312" y2="73.587" style="fill:none; stroke:#30373e; stroke-miterlimit:10; stroke-width:.5px;"/><line x1="351.594" y1="79.11" x2="344.216" y2="75.689" style="fill:none; stroke:#30373e; stroke-miterlimit:10; stroke-width:.5px;"/><line x1="351.818" y1="81.002" x2="344.45" y2="77.58" style="fill:none; stroke:#30373e; stroke-miterlimit:10; stroke-width:.5px;"/><line x1="352.362" y1="82.617" x2="345.005" y2="79.196" style="fill:none; stroke:#30373e; stroke-miterlimit:10; stroke-width:.5px;"/><line x1="353.219" y1="83.891" x2="345.872" y2="80.469" style="fill:none; stroke:#30373e; stroke-miterlimit:10; stroke-width:.5px;"/><line x1="354.379" y1="84.757" x2="347.042" y2="81.335" style="fill:none; stroke:#30373e; stroke-miterlimit:10; stroke-width:.5px;"/><path d="m354.327,84.734c3.282,1.6,8.253-1.843,11.102-7.688,2.849-5.846,2.498-11.882-.785-13.482" style="fill:none; stroke:#30373e; stroke-miterlimit:10;"/><path d="m397.073,140.529c-13.398-8.423-26.205-16.863-38.18-25.327-3.281-1.6-8.25,1.846-11.097,7.687-2.853,5.848-2.502,11.883.785,13.482,13.961,3.53,28.682,8.094,43.952,13.473" style="fill:none; stroke:#30373e; stroke-miterlimit:10;"/><path d="m354.364,115.548l-9.722-4.723c-2.643-1.283-6.644,1.488-8.935,6.193-2.297,4.699-2.01,9.562.627,10.846l9.728,4.729" style="fill:none; stroke:#30373e; stroke-miterlimit:10;"/><path d="m344.641,110.824c-2.643-1.283-6.644,1.488-8.935,6.193-2.297,4.699-2.01,9.562.627,10.846" style="fill:none; stroke:#30373e; stroke-miterlimit:10; stroke-width:.5px;"/><path d="m345.991,111.478c-2.643-1.283-6.644,1.488-8.935,6.193-2.297,4.699-2.01,9.562.627,10.846" style="fill:none; stroke:#30373e; stroke-miterlimit:10; stroke-width:.5px;"/><path d="m347.34,112.132c-2.643-1.283-6.644,1.488-8.935,6.193-2.297,4.699-2.01,9.562.627,10.846" style="fill:none; stroke:#30373e; stroke-miterlimit:10; stroke-width:.5px;"/><path d="m348.689,112.785c-2.643-1.283-6.644,1.488-8.935,6.193-2.297,4.699-2.01,9.562.627,10.846" style="fill:none; stroke:#30373e; stroke-miterlimit:10; stroke-width:.5px;"/><path d="m350.038,113.439c-2.643-1.283-6.644,1.488-8.935,6.193-2.297,4.699-2.01,9.562.627,10.846" style="fill:none; stroke:#30373e; stroke-miterlimit:10; stroke-width:.5px;"/><path d="m351.387,114.092c-2.643-1.283-6.644,1.488-8.935,6.193-2.297,4.699-2.01,9.562.627,10.846" style="fill:none; stroke:#30373e; stroke-miterlimit:10; stroke-width:.5px;"/><path d="m352.737,114.746c-2.643-1.283-6.644,1.488-8.935,6.193-2.297,4.699-2.01,9.562.627,10.846" style="fill:none; stroke:#30373e; stroke-miterlimit:10; stroke-width:.5px;"/><path d="m397.073,140.529c-1.444-.704-3.632.811-4.886,3.383-1.254,2.573-1.099,5.229.345,5.933" style="fill:none; stroke:#30373e; stroke-miterlimit:10; stroke-width:.5px;"/><path d="m392.542,149.849c1.444.704,3.632-.811,4.885-3.383,1.254-2.572,1.099-5.228-.345-5.932" style="fill:none; stroke:#30373e; stroke-linecap:round; stroke-linejoin:round;"/><ellipse cx="394.741" cy="145.277" rx="3.664" ry="2.057" transform="translate(91.214 436.477) rotate(-64.018)" style="fill:none; stroke:#30373e; stroke-miterlimit:10;"/><polygon points="266.133 96.862 249.464 89.168 249.464 82.314 237.96 89.592 249.464 107.489 249.464 100.635 266.133 108.329 266.133 96.862" style="fill:#f4ae3d; stroke:#f4f4f4; stroke-miterlimit:10; stroke-width:1.5px;"/></g><g id="uuid-bcc566ba-462f-48d2-99bb-aa52f80a5294"><g style="clip-path:url(#uuid-4eb53198-69a1-444d-8559-c937ae4276b7);"><path d="m-63.128,49.686v-328.891c0-60.543,38.312-163.182,188.251-120.14,149.938,43.042,304.134,88.45,304.134,88.45" style="fill:none; stroke:#a6abb0; stroke-miterlimit:10; stroke-width:.5px;"/><path d="m-24.81,54.26c.947-1.431,0-253.523,0-292.788,0-38.508,32.048-89.6,117.124-79.962" style="fill:none; stroke:#a6abb0; stroke-miterlimit:10; stroke-width:.5px;"/><path d="m-24.816,44.794c.258-.48,297.985-126.289,297.985-126.289,0,0,40.677-106.896,62.908-112.572,22.231-5.676,43.988-6.864,43.988-6.864,0,0,24.123.716,35.947,12.54,11.825,11.825,30.271,37.839,39.258,53.448" style="fill:none; stroke:#a6abb0; stroke-miterlimit:10; stroke-width:.5px;"/><line x1="462.839" y1="-120.101" x2="161.543" y2="59.93" style="fill:none; stroke:#30373e; stroke-miterlimit:10; stroke-width:.5px;"/></g></g><g id="uuid-7a1bab57-d582-4a27-bcf3-bf80eb0d2b83"><circle cx="287.308" cy="109.226" r="8.275" style="fill:#30373e; stroke-width:0px;"/><path d="m287.308,100.934c-3.934,0-7.124,3.189-7.124,7.124v2.337c0,3.934,3.189,7.124,7.124,7.124s7.124-3.189,7.124-7.124v-2.337c0-3.934-3.189-7.124-7.124-7.124Z" style="fill:#30373e; stroke-width:0px;"/><path d="m286.349,107.039c-.199.134-.455.283-.767.448l-.819-1.326c.477-.26.906-.535,1.287-.825.382-.291.732-.613,1.053-.969h1.808v9.334h-1.846v-7.215c-.278.233-.517.418-.716.553Z" style="fill:#f4f4f4; stroke-width:0px;"/><circle cx="359.651" cy="46.917" r="8.275" style="fill:#30373e; stroke-width:0px;"/><path d="m359.651,38.626c-4.462,0-8.079,3.617-8.079,8.079v.425c0,4.462,3.617,8.079,8.079,8.079s8.079-3.617,8.079-8.079v-.425c0-4.462-3.617-8.079-8.079-8.079Z" style="fill:#30373e; stroke-width:0px;"/><path d="m356.164,49.924l3.236-3.029c.304-.277.56-.544.768-.8.208-.255.368-.496.48-.721.112-.226.169-.438.169-.638v-.117c0-.312-.119-.567-.357-.767s-.539-.299-.903-.299c-.52,0-.919.112-1.196.338s-.459.611-.546,1.157l-1.638-.521c.139-.832.507-1.476,1.104-1.931.599-.454,1.356-.682,2.275-.682.581,0,1.105.104,1.573.312s.838.512,1.111.91.409.871.409,1.417c0,.45-.089.882-.267,1.293-.178.412-.405.789-.682,1.132-.278.342-.594.674-.949.994l-2.002,1.794h3.965v1.625h-6.552v-1.469Z" style="fill:#f4f4f4; stroke-width:0px;"/><circle cx="382.501" cy="115.456" r="8.275" style="fill:#30373e; stroke-width:0px;"/><path d="m382.501,107.164c-4.451,0-8.059,3.608-8.059,8.059v.465c0,4.451,3.608,8.059,8.059,8.059s8.059-3.608,8.059-8.059v-.465c0-4.451-3.608-8.059-8.059-8.059Z" style="fill:#30373e; stroke-width:0px;"/><path d="m380.185,119.6c-.542-.316-1.008-.787-1.397-1.411l1.442-1.04c.243.442.51.759.8.949s.652.286,1.086.286c.468,0,.87-.093,1.209-.279.338-.187.507-.475.507-.865v-.155c0-.442-.149-.757-.449-.942-.299-.187-.804-.28-1.514-.28h-.65v-1.56h.624c.528,0,.96-.078,1.294-.234.333-.155.5-.45.5-.884v-.143c0-.312-.146-.544-.436-.696-.29-.151-.626-.228-1.008-.228-.363,0-.69.094-.981.28-.29.187-.53.461-.721.825l-1.365-.819c.312-.667.728-1.158,1.248-1.476.52-.315,1.152-.474,1.897-.474.91,0,1.653.216,2.229.649s.865,1.079.865,1.938c0,.45-.092.838-.273,1.163s-.438.592-.767.8c.416.217.729.494.942.832.212.338.318.754.318,1.248,0,.642-.158,1.188-.475,1.638-.316.451-.739.789-1.268,1.014-.528.226-1.109.338-1.742.338-.736,0-1.376-.157-1.917-.474Z" style="fill:#f4f4f4; stroke-width:0px;"/><circle cx="392.589" cy="180.044" r="8.275" style="fill:#30373e; stroke-width:0px;"/><path d="m392.589,171.753c-4.53,0-8.202,3.672-8.202,8.202v.179c0,4.53,3.672,8.202,8.202,8.202s8.202-3.672,8.202-8.202v-.179c0-4.53-3.672-8.202-8.202-8.202Z" style="fill:#30373e; stroke-width:0px;"/><path d="m393.009,182.439h-4.342v-1.339l4.251-5.915h1.82v5.668h1.273v1.586h-1.273v2.08h-1.729v-2.08Zm0-1.586v-3.159l-2.274,3.159h2.274Z" style="fill:#f4f4f4; stroke-width:0px;"/></g></svg>