<svg xmlns="http://www.w3.org/2000/svg" width="654" height="218" viewBox="0 0 654 218"><g id="af0f35de-b822-4bab-ba1a-7b3b47d2556d" data-name="illustration"><path d="M302.4648,92.1778c-2.0041,11.2147-5.19,25.1184-7.5714,36.3293-2.2558,9.9508-3.9644,21.1556-11.7228,28.5575-3.1119,2.9373-7.28,4.53-11.351,5.4606-6.02,1.4872-12.0985,2.6877-18.17,3.9107l-24.2594,4.74c-3.8189.6732-8.4439,1.8431-12.2224,2.3173a109.2758,109.2758,0,0,1-12.4465.484c-39.0288-.0924-85.0146.37-123.6692-.841-8.2426-.2664-16.4928-.5227-24.7435-1.2676-8.2221-.8238-16.9123-2.0559-23.8229-7.0187-7.99-5.8093-14.8752-12.8866-21.721-19.945a7.2027,7.2027,0,0,1-2.0081-4.6985l-.1139-3.0918-.4492-12.35c-.0263-1.3258-.2923-6.6079-.2276-7.8573a6.709,6.709,0,0,1,2.9461-4.2232c3.4875-2.5225,7.4757-3.8925,11.5305-5.1025l-.59.7774.0019-2.6752.4822.7375c-5.137-2.6947-6.4487-8.8422-8.2891-13.8237a34.76,34.76,0,0,1-1.9489-11.9307l.0529-3.9757q.1477-7.947.5565-15.8878c.6637-7.9279.4795-16.1865,3.5057-23.7179a26.579,26.579,0,0,1,4.6134-6.6918,94.9632,94.9632,0,0,1,11.5223-11.066C40.72,12.7933,49.4429,6.6762,59.0072,2.0153,46.32,11.4815,32.2948,19.2276,21.9457,31.3872a25.0959,25.0959,0,0,0-4.3586,6.32c-2.8831,7.2691-2.7038,15.4365-3.34,23.1787-.2941,7.817-.8319,15.8447-.43,23.6605a40.0592,40.0592,0,0,0,1.7422,7.5695c1.2858,3.625,2.3437,7.5,4.7043,10.5515A7.7922,7.7922,0,0,0,22.988,104.95a.8072.8072,0,0,1,.4761.7349l.0019,2.6752a.8133.8133,0,0,1-.5905.7776c-4.5277,1.4873-9.9042,2.9283-12.8823,6.83a3.921,3.921,0,0,0-.3781,2.5416l.2263,6.1823.4377,12.3654c.0936,2.2051-.1534,5.0655,1.6653,6.7285,3.8833,4.065,7.9021,8.1344,12.0306,11.9336,5.957,5.516,12.2447,10.9581,20.3946,12.6923,11.9935,2.755,24.4581,2.6617,36.73,3.2134,24.7124.8226,49.4359.859,74.1618.8665l49.4633-.1431c6.19.0314,12.2165-.1262,18.2421-1.5682,4.7749-.9261,25.3523-4.95,30.3739-5.9032,6.0508-1.2076,12.1121-2.3957,18.0993-3.8629,3.945-.9082,7.72-2.3114,10.6948-5.0864,7.4937-7.1617,8.9955-18.0822,11.4278-27.7376,2.4784-11.1914,6.07-24.9613,8.902-36.0121Z" style="fill:#a6abb0"/><path d="M39.6046,168.2038c.5791,6.95.4835,8.49,3.0888,9.0736,4.5723,1.0236,8.2279,1.613,9.9777,1.8706a2.3234,2.3234,0,0,0,1.9326-.6094l3.2533-3.0774a2.3187,2.3187,0,0,1,1.6611-.6333l13.15.3836a1.5733,1.5733,0,0,0,1.4869-.9414l.8107-1.8513" style="fill:none;stroke:#a6abb0;stroke-linecap:round;stroke-linejoin:round;stroke-width:1.5px"/><path d="M142.0748,172.8545c-4.823,12.5516-15.1133,21.2207-27.0288,21.2207-12.1192,0-22.5572-8.968-27.2714-21.8678" style="fill:none;stroke:#a6abb0;stroke-linecap:round;stroke-linejoin:round;stroke-width:0.5px"/><path d="M110.3273,213.2677c-19.4461-.7847-34.5654-17.951-39.58-35.7488,6.2125,17.8728,19.9053,33.59,39.58,35.7488Z" style="fill:#a6abb0"/><path d="M451.2643,211.3071c-15.2729-.49-28.3573-11.9833-33.6861-25.8753a54.9072,54.9072,0,0,1-3.6795-14.4222,76.7721,76.7721,0,0,0,4.1157,14.2421c5.6766,14.1739,17.9348,24.3064,33.25,26.0554Z" style="fill:#a6abb0"/><path d="M137.1416,172.8373c-4.4944,10.3443-13.2478,17.3645-23.31,17.3645-10.2428,0-19.1295-7.2745-23.5479-17.9248" style="fill:none;stroke:#a6abb0;stroke-linecap:round;stroke-linejoin:round"/><path d="M215.1882,173.2554l.156,1.3524a2.4621,2.4621,0,0,0,2.2294,2.17l5.7639.5086a3.2952,3.2952,0,0,1,1.7646.7059l7.8058,6.2235a3.2882,3.2882,0,0,0,2.1553.7161c4.7106-.1461,22.1135-.7747,33.9165-2.3887a4.6884,4.6884,0,0,0,4-3.9356l2.6994-17.708" style="fill:none;stroke:#a6abb0;stroke-linecap:round;stroke-linejoin:round;stroke-width:1.5px"/><path d="M158.4581,173.7317c-5.7536,24.1937-23.6457,41.8343-44.8265,41.8343q-1.3817,0-2.7439-.0992L89.4148,213.91c-17.84-1.2932-32.9247-15.4572-39.4261-35.1911" style="fill:none;stroke:#a6abb0;stroke-linecap:round;stroke-linejoin:round;stroke-width:1.5px"/><path d="M474.0861,171.3455c-4.3534,12.0884-13.219,20.3654-23.448,20.3654-10.446,0-19.47-8.6321-23.719-21.14" style="fill:none;stroke:#a6abb0;stroke-linecap:round;stroke-linejoin:round;stroke-width:0.5px"/><path d="M469.7078,171.3391c-4.04,9.8681-11.5454,16.4984-20.1366,16.4984-8.74,0-16.3557-6.8617-20.3431-17.0135" style="fill:none;stroke:#a6abb0;stroke-linecap:round;stroke-linejoin:round"/><path d="M488.778,171.3674c-5.0549,24.1938-20.7741,41.8343-39.3825,41.8343q-1.214,0-2.4107-.0992L428.12,211.5461c-19.2026-1.5843-34.7714-22.4882-37.2908-49.2851" style="fill:none;stroke:#a6abb0;stroke-linecap:round;stroke-linejoin:round;stroke-width:1.5px"/><path d="M21.834,109.1463s5.4472-1.7019,32.2175-8.0083,74.5193-15.3722,83.9146-16.9167c7.2971-1.2,13.1191-2.1306,19.9382-3.6257,4.59-1.0064-.0131-1.4426,85.2125-12.8483l5.8712-2.0111s31.4528-1.3352,35.9574-1.4639,6.95-.7722,9.6528-7.8509,9.1379-24.9685,9.1379-24.9685" style="fill:none;stroke:#a6abb0;stroke-linecap:round;stroke-linejoin:round;stroke-width:0.5px"/><path d="M9.4849,134.97l.0761,2.3182,2.2758,2.0536,9.9051-1.6508a2.3249,2.3249,0,0,0,1.4641-.88l4.557-5.9552a2.323,2.323,0,0,1,1.4387-.8756c2.9743-.5293,13.1636-2.312,27.0378-4.4092,16.6027-2.51,38.74-4.8908,41.1207-5.0838s3.6037.3217,5.663,1.48,2.8958,1.9949,5.0194,3.0245,2.2636,1.33,6.5.9653c33.5916-2.8958,35.78-3.1532,45.0462-4.0542s14.6722-1.03,29.8592-4.3759,38.8684-8.6231,45.4323-10.6824,10.2963-6.049,10.2963-14.1573c0-7.4979-1.4758-21.0884-1.4758-23.53s-4.2317-6.9173-7.4056-8.87-6.7435-2.4268-14.4856-2.0345a621.7347,621.7347,0,0,0-62.9883,6.8359c-2.93.4883-3.6621-.8138-5.3711-2.1973s-2.8483-2.0345-6.6731-1.3834-60.009,11.3982-82.6009,17.985C34.3092,88.2,25.7643,93.2458,24.4622,94.06s-1.1393.9766-1.1393,2.6042v11.4746" style="fill:none;stroke:#a6abb0;stroke-linecap:round;stroke-linejoin:round;stroke-width:0.5px"/><line x1="157.9051" y1="65.1867" x2="157.9051" y2="80.5843" style="fill:none;stroke:#a6abb0;stroke-linecap:round;stroke-linejoin:round;stroke-width:0.5px"/><path d="M70.8263,80.2359a.6976.6976,0,0,1,.5358.6786v4.62a.9093.9093,0,0,1-.698.8844l-2.0924.5a1.9761,1.9761,0,0,1-.8882.007l-2.0693-.46A1.9773,1.9773,0,0,1,64.2074,85.27l-2.0023-5.0041L66.1464,79.12Z" style="fill:none;stroke:#a6abb0;stroke-linecap:round;stroke-linejoin:round;stroke-width:0.5px"/><ellipse cx="65.6726" cy="83.2987" rx="1.1059" ry="1.608" transform="translate(-20.4642 21.3954) rotate(-16.0444)" style="fill:none;stroke:#a6abb0;stroke-linecap:round;stroke-linejoin:round;stroke-width:0.5px"/><path d="M26.7565,107.8044v-10.62c0-1.0008.1064-1.301,3.0022-2.7021s20.1985-7.4684,33.6037-11.3246" style="fill:none;stroke:#a6abb0;stroke-linecap:round;stroke-linejoin:round;stroke-width:0.5px"/><path d="M71.3621,81.0131c16.0611-4.0781,44.3574-10.2176,83.1572-17.196" style="fill:none;stroke:#a6abb0;stroke-linecap:round;stroke-linejoin:round;stroke-width:0.5px"/><path d="M12.9625,80.0742c0,2.512.9184,6.5638,2.7543,6.5638s3.1211-6.0812,3.2129-15.6375,1.3291-25.7758,1.5277-30.8888c.2471-6.3624-1.0746-7.0773-2.6539-4.387" style="fill:none;stroke:#a6abb0;stroke-linecap:round;stroke-linejoin:round"/><path d="M13.2431,74.0948c.3988,5.5061,2.4781,6.4514,3.0079.2106.3679-3.3452.29-6.7191.3758-10.1041.16-4.8888.4838-10.2794.8166-15.1835.1246-1.6852.2613-3.3674.2837-5.0571.0874,6.7573-.4693,13.5025-.6011,20.2552-.2455,4.593.2,9.447-1.3775,13.8688-.1826.3948-.5442.9435-1.0649.7718a1.6741,1.6741,0,0,1-.8565-1.0066,10.2634,10.2634,0,0,1-.584-3.7551Z" style="fill:#a6abb0"/><path d="M158.3134,122.0269l-3.4871,2.0638V127.18c19.4342,22.0082,26.9425,28.873,36.08,35.0508s14.242,8.7025,25.6969,10.1211" style="fill:none;stroke:#a6abb0;stroke-linecap:round;stroke-linejoin:round;stroke-width:0.5px"/><path d="M11.8368,139.342v2.51a113.1192,113.1192,0,0,0,15.4979,17.4416" style="fill:none;stroke:#a6abb0;stroke-linecap:round;stroke-linejoin:round"/><path d="M62.4338,171.1983c-11.4712-.517-36.44-24.07-36.44-24.07s24.1962,15.4444,59.6,25.0153" style="fill:none;stroke:#a6abb0;stroke-linecap:round;stroke-linejoin:round;stroke-width:0.5px"/><path d="M172.0629,173.116c-20.3919-1.2361-38.37-17.0941-51.9867-31.1353,11.0128,10.6629,22.8515,21.1325,37.1376,27.1067a46.1155,46.1155,0,0,0,14.87,3.529.25.25,0,0,1-.0208.5Z" style="fill:#a6abb0"/><path d="M264.2278,183.0353c2.9348,11.3511,6.7842,22.57,12.5181,32.8453a88.5533,88.5533,0,0,1-8.492-15.5891,86.1533,86.1533,0,0,1-5.494-16.9473.75.75,0,0,1,1.4679-.3089Z" style="fill:#a6abb0"/><path d="M14.797,140.6934c45.5975-7.0956,91.7036-10.4626,137.7126-13.643-45.2841,3.77-92.5393,7.5515-137.7126,13.643Z" style="fill:#a6abb0"/><path d="M158.9448,126.4073c5.3816-.4756,10.77-.67,16.107-1.385,15.9849-2.4033,31.6457-6.749,47.3-10.7213,9.6707-2.9949,22.58-4.6062,27.3349-14.8061,2.1249-4.9984,1.1269-10.6224.9913-15.9017q-.5144-8.07-1.2548-16.132c.6907,5.3516,1.2622,10.7207,1.6368,16.1071.2144,5.3516,1.1967,11.0009-.966,16.1011-4.8325,10.3978-17.7923,12.04-27.6214,15.08-10.4284,2.79-20.9135,5.351-31.4374,7.7515a126.2859,126.2859,0,0,1-32.0905,3.906Z" style="fill:#a6abb0"/><path d="M247.4927,63.0853c-3.1612-3.89-5.7966-8.3266-10.79-10.0678-9.52-3.498-19.9456-2.0871-29.8352-1.3066C151.8246,57.5862,96.8518,67.0981,43.9189,83.5187c-4.96,1.7473-26.2945,8.3844-25.7759,13.6728C16.7981,91.54,39.1852,84.7587,43.7811,83.0988c52.965-16.4486,107.9612-25.98,163.04-31.8759,9.9549-.7915,20.4657-2.2047,30.0689,1.3324a16.2314,16.2314,0,0,1,6.2515,4.321,60.84,60.84,0,0,1,4.3508,6.209Z" style="fill:#a6abb0"/><path d="M129.6122,15.8511c.247,6.3352.0976,12.6231-.2379,18.9852a12.098,12.098,0,0,1-1.5676,4.5429c-4.5072,6.8555-13.298,8.7365-20.7455,10.6175-8.9557,2.1558-18.7815,4.3878-27.5952,6.85a335.6932,335.6932,0,0,0-35.73,12.57c-5.1,2.092-10.1864,4.3145-15.1044,6.8112-2.5357,1.5115-4.8784,1.8623-5.7958-1.624-1.1055-4.664-.5728-9.5114-.1764-14.222.12,3.0027-1.5,18.0446,3.6569,16.4111,5.6911-2.6358,11.3882-5.4972,17.25-7.7908a324.4048,324.4048,0,0,1,54.1617-17.27c9.916-2.8295,29.3143-4.4265,31.1545-16.9662a37.2478,37.2478,0,0,0,.2043-4.7027c.1622-3.1118.3974-11.0269.5257-14.2126Z" style="fill:#a6abb0"/><path d="M139.2953,5.1955S94.8505,14.95,59.8432,31.5529C36.5226,42.6131,26.39,49.6716,22.2239,53.1517l-2.8789,6.29" style="fill:none;stroke:#a6abb0;stroke-miterlimit:10"/><path d="M139.4969.8609c.7083,7.683.1558,18.8415.17,26.6541.0241,4.2846.534,8.8525,2.8409,12.52,5.1874,7.8037,16.9678,4.1811,22.4216-1.6023a26.536,26.536,0,0,0,7.451-17.6471c.06-6.4549.057-13.5828.5928-19.9926.4753,6.41.3362,13.5405.3367,19.9926a27.5144,27.5144,0,0,1-7.61,18.3993c-5.8673,6.3725-18.59,10.0069-24.1416,1.4665-4.47-6.9313-2.5552-18.6622-2.76-26.47a116.9008,116.9008,0,0,1,.6984-13.32Z" style="fill:#a6abb0"/><path d="M140.5014,31.3688c2.1944,4.8072,6.5955,6.6612,11.6309,5.4454,8.2544-1.703,13.8323-9.99,14.6217-18.0574.2454-5.9706-.0214-11.9807.4235-17.9522.2925,6.0081.1843,11.983.0888,17.993a22.1769,22.1769,0,0,1-8.4246,15.56c-5.5013,4.3545-16.1672,5.3406-18.34-2.9888Z" style="fill:#a6abb0"/><path d="M20.1228,38.9261c9.0477-8.5872,19.605-15.2378,30.4064-21.3338A169.8806,169.8806,0,0,1,84.5244,2.7847,239.0149,239.0149,0,0,0,35.356,28.2915,122.7153,122.7153,0,0,0,20.8382,39.6249l-.7154-.6988Z" style="fill:#a6abb0"/><path d="M241.4437,11.1534c0,21.8153,2.8958,32.4333,21.4291,33.5916s34.8582,3.2509,34.8582,3.2509" style="fill:none;stroke:#a6abb0;stroke-linecap:round;stroke-linejoin:round;stroke-width:0.5px"/><path d="M249.5317,14.3805c.7451,9.3855-.0748,21.5386,11.75,23.6526,9.665,1.3228,19.5807,1.4191,29.2274,3.1694-7.3389-.5917-14.647-1.3975-21.9915-1.8765-4.8249-.294-10.2451-.4188-14.0646-3.8821-5.2741-4.909-5.2677-14.3436-4.9217-21.0634Z" style="fill:#a6abb0"/><line x1="26.9322" y1="96.2351" x2="23.3166" y2="95.0308" style="fill:none;stroke:#a6abb0;stroke-linecap:round;stroke-linejoin:round;stroke-width:0.5px"/><path d="M27.4079,116.2939c.4557,1.0644.6722,3.8738-.8149,4.1984-.55-.0446-.7549-.5058-.9239-.91a4.9037,4.9037,0,0,1,.1088-3.2879A6.731,6.731,0,0,0,26.11,119.41c.9872,2.1485,1.55-2.4111,1.2976-3.1161Z" style="fill:#a6abb0"/><path d="M94.5657,103.5853c.8468,1.5183.7478,3.923-.9711,4.8726a1.86,1.86,0,0,1-2.372-1.1694,3.9644,3.9644,0,0,1-.2216-2.6159,4.7949,4.7949,0,0,0,.5627,2.4383c1.1163,1.9228,2.7683.7194,3.0964-1.0165a4.9264,4.9264,0,0,0-.0944-2.5091Z" style="fill:#a6abb0"/><path d="M182.184,93.9927c2.7541,3.5214-2.4275,7.34-5.42,4.3611a3.1592,3.1592,0,0,1-.8358-3.18,3.273,3.273,0,0,0,1.0987,2.8991c2.77,2.4277,7.154-.74,5.1568-4.08Z" style="fill:#a6abb0"/><path d="M293.4658,108.95c.7132,1.6393.789,3.9122-.7239,5.2037-1.0031.6922-2.0625-.3854-2.2979-1.3137a5.0922,5.0922,0,0,1-.1242-2.7086,6.6357,6.6357,0,0,0,.4825,2.569c.2806.65.923,1.5257,1.667,1.0345,1.2537-1.0627,1.3236-3.2213.9965-4.7849Z" style="fill:#a6abb0"/><path d="M400.2841,86.9657a2.9239,2.9239,0,0,1-.5257,3.4461c-.6775.5043-1.4831-.22-1.5958-.8919a3.102,3.102,0,0,1,.0462-1.7857c.2774,4.1073,2.4548,2.078,2.0753-.7685Z" style="fill:#a6abb0"/><path d="M355.1192,98.8924a3.0689,3.0689,0,0,1-.0477,2.6787c-.54.6679-1.1462-.1571-1.1468-.7325a4.0173,4.0173,0,0,1,.0954-1.3343,5.5681,5.5681,0,0,0,.5193,1.75c.0475.0644.0978.0825.0819.0732-.0213.0027.0109-.0031.0555-.0634a4.5757,4.5757,0,0,0,.3937-1.4059,7.7549,7.7549,0,0,1,.0487-.9662Z" style="fill:#a6abb0"/><path d="M170.6919,63.2991V73.5479a1.5927,1.5927,0,0,0,1.8563,1.5706c6.0215-1.0041,26.3882-4.0936,56.6315-5.5065" style="fill:none;stroke:#a6abb0;stroke-linecap:round;stroke-linejoin:round;stroke-width:0.5px"/><line x1="171.2558" y1="74.7636" x2="157.9051" y2="80.5843" style="fill:none;stroke:#a6abb0;stroke-linecap:round;stroke-linejoin:round;stroke-width:0.5px"/><path d="M217.0531,159.1068c.221.1967.117.4165-.2316.4915l-2.1889.4714a1.3544,1.3544,0,0,1-1.04-.217c-.2278-.1958-.1294-.4162.2206-.4917l2.2025-.4751A1.3282,1.3282,0,0,1,217.0531,159.1068Z" style="fill:#a6abb0"/><path d="M216.4044,160.8229c.2195.1911.1177.4055-.2264.4794l-2.161.4639a1.3554,1.3554,0,0,1-1.0289-.2092c-.226-.19-.13-.4052.2157-.48l2.1743-.4676A1.3293,1.3293,0,0,1,216.4044,160.8229Z" style="fill:#a6abb0"/><path d="M219.8747,161.6174c.2109.1877.1049.3986-.236.4716l-2.141.4583a1.3154,1.3154,0,0,1-1.0077-.2047c-.2174-.1869-.1168-.3983.2255-.4717l2.1541-.4619A1.2905,1.2905,0,0,1,219.8747,161.6174Z" style="fill:#a6abb0"/><path d="M219.2062,163.2635c.21.1826.1059.3883-.2308.46l-2.1143.4513a1.3172,1.3172,0,0,1-.9972-.1975c-.2158-.1816-.1174-.3879.2206-.46l2.1271-.4548A1.2922,1.2922,0,0,1,219.2062,163.2635Z" style="fill:#a6abb0"/><path d="M222.5688,164.0146c.2015.1793.0938.3818-.24.4528l-2.0952.446a1.2788,1.2788,0,0,1-.977-.1933c-.2077-.1785-.1052-.3815.23-.4529l2.1077-.4493A1.2538,1.2538,0,0,1,222.5688,164.0146Z" style="fill:#a6abb0"/><path d="M215.8121,162.4878c.2178.1858.1182.395-.2215.4677l-2.1339.4568a1.3567,1.3567,0,0,1-1.0179-.2018c-.2242-.185-.13-.3947.2111-.4678l2.1469-.46A1.3309,1.3309,0,0,1,215.8121,162.4878Z" style="fill:#a6abb0"/><path d="M218.5934,164.8614c.2081.1776.1066.3784-.2259.4492l-2.0884.4445a1.3186,1.3186,0,0,1-.9868-.19c-.2142-.1768-.1179-.3781.216-.4493l2.1008-.4479A1.2936,1.2936,0,0,1,218.5934,164.8614Z" style="fill:#a6abb0"/><path d="M221.883,165.5952c.2.1745.0949.3722-.2346.4422l-2.07.4393a1.2806,1.2806,0,0,1-.9672-.1866c-.2063-.1736-.1059-.3718.2249-.4421l2.0819-.4426A1.2567,1.2567,0,0,1,221.883,165.5952Z" style="fill:#a6abb0"/><path d="M220.5869,159.9241c.2123.1931.1039.4093-.2414.4834l-2.1685.4656a1.313,1.313,0,0,1-1.0183-.2123c-.2189-.1922-.116-.4089.2307-.4835l2.182-.4692A1.2873,1.2873,0,0,1,220.5869,159.9241Z" style="fill:#a6abb0"/><path d="M223.2978,162.39c.2028.1844.0927.3918-.2451.4639l-2.1215.4528a1.2755,1.2755,0,0,1-.987-.2c-.2091-.1835-.1042-.3915.235-.464l2.1343-.4563A1.2512,1.2512,0,0,1,223.2978,162.39Z" style="fill:#a6abb0"/><path d="M225.8875,164.7446c.1938.1762.0823.3755-.2483.4457l-2.0765.4408a1.2415,1.2415,0,0,1-.9575-.1893c-.2-.1754-.0932-.3752.2387-.4458l2.0888-.444A1.2174,1.2174,0,0,1,225.8875,164.7446Z" style="fill:#a6abb0"/><path d="M225.1438,166.3058c.1928.1715.0837.3662-.2429.4353l-2.0514.4343a1.2442,1.2442,0,0,1-.9481-.1827c-.1986-.1707-.0944-.3658.2335-.4353l2.0633-.4374A1.2205,1.2205,0,0,1,225.1438,166.3058Z" style="fill:#a6abb0"/><path d="M217.7914,158.9477a1.3116,1.3116,0,0,0,1.0293.22l2.1965-.473c.35-.0753.4607-.297.2469-.4956a1.2863,1.2863,0,0,0-1.0265-.2241l-2.21.4768C217.6761,158.5277,217.5708,158.75,217.7914,158.9477Z" style="fill:#a6abb0"/><path d="M221.2913,159.7728a1.2721,1.2721,0,0,0,1.0077.2153l2.1759-.4672c.3465-.0744.4616-.2923.2563-.4873a1.2469,1.2469,0,0,0-1.0048-.2191l-2.19.4708C221.189,159.36,221.0794,159.5787,221.2913,159.7728Z" style="fill:#a6abb0"/><path d="M220.5968,161.4627a1.2741,1.2741,0,0,0,.9973.2077l2.1483-.46c.3421-.0732.4546-.2858.2506-.4754a1.2491,1.2491,0,0,0-.9945-.2114l-2.1615.4635C220.4935,161.0609,220.3863,161.274,220.5968,161.4627Z" style="fill:#a6abb0"/><path d="M223.9869,162.2423a1.2361,1.2361,0,0,0,.9768.2032l2.1286-.4543c.339-.0724.4554-.2815.26-.4677a1.2122,1.2122,0,0,0-.9741-.2068l-2.1415.4578C223.8959,161.8473,223.7846,162.057,223.9869,162.2423Z" style="fill:#a6abb0"/><path d="M223.2753,163.8641a1.2391,1.2391,0,0,0,.9671.1961l2.1022-.4475c.3348-.0712.4487-.2754.2538-.4565a1.2151,1.2151,0,0,0-.9644-.2l-2.1148.4508C223.1831,163.4792,223.0743,163.6838,223.2753,163.8641Z" style="fill:#a6abb0"/><path d="M224.6755,160.5889a1.2344,1.2344,0,0,0,.9869.2106l2.1556-.4615c.3433-.0735.4623-.2878.2652-.4792a1.21,1.21,0,0,0-.984-.2143l-2.1689.465C224.5857,160.1834,224.4719,160.3983,224.6755,160.5889Z" style="fill:#a6abb0"/><path d="M227.2662,163.014a1.2,1.2,0,0,0,.9572.1988l2.1091-.4489c.3358-.0715.456-.2772.2677-.46a1.1766,1.1766,0,0,0-.9543-.2023l-2.1219.4523C227.1868,162.6257,227.0717,162.832,227.2662,163.014Z" style="fill:#a6abb0"/><path d="M226.5619,164.6014a1.2027,1.2027,0,0,0,.9477.1919l2.0833-.4422c.3317-.07.4493-.2713.262-.4492a1.18,1.18,0,0,0-.945-.1954l-2.0957.4455C226.4812,164.2228,226.3685,164.4242,226.5619,164.6014Z" style="fill:#a6abb0"/><path d="M225.8355,166.1593a1.206,1.206,0,0,0,.9386.1853l2.058-.4356c.3277-.0694.4428-.2656.2564-.4388a1.1825,1.1825,0,0,0-.936-.1885l-2.07.4388C225.7535,165.79,225.6433,165.9869,225.8355,166.1593Z" style="fill:#a6abb0"/><path d="M513.9495,132.7012a.3449.3449,0,0,1-.1822.6223l-2.1033.55a1.1718,1.1718,0,0,1-1.0276-.2906c-.2413-.2471-.1734-.52.154-.6083l2.1-.5688A1.1823,1.1823,0,0,1,513.9495,132.7012Z" style="fill:#a6abb0"/><path d="M513.478,134.8546c.2361.2444.1573.508-.1737.5891l-2.0409.5a1.17,1.17,0,0,1-1-.2872c-.2356-.2375-.1707-.4957.1472-.5765l2.038-.5177A1.18,1.18,0,0,1,513.478,134.8546Z" style="fill:#a6abb0"/><path d="M517.0434,135.9582c.232.2442.14.5056-.2024.5842l-2.1124.4846a1.193,1.193,0,0,1-1.0129-.2911c-.2317-.2372-.1545-.4932.1746-.5716l2.11-.5022A1.2036,1.2036,0,0,1,517.0434,135.9582Z" style="fill:#a6abb0"/><path d="M516.5006,137.9828c.2267.2347.1393.4824-.1931.5537l-2.05.44a1.19,1.19,0,0,1-.9862-.2875c-.2264-.2282-.1527-.4711.1668-.5423l2.0475-.4559A1.2006,1.2006,0,0,1,516.5006,137.9828Z" style="fill:#a6abb0"/><path d="M520.0114,139.0826c.2226.2343.1226.48-.221.5485l-2.1189.4242a1.2138,1.2138,0,0,1-.9986-.2913c-.2226-.2279-.137-.4686.1934-.5373l2.1173-.44A1.2246,1.2246,0,0,1,520.0114,139.0826Z" style="fill:#a6abb0"/><path d="M513.0691,136.8871c.2308.235.1554.485-.1661.5588l-1.9832.455a1.1679,1.1679,0,0,1-.9744-.2838c-.23-.2286-.168-.4738.1411-.5473l1.98-.4714A1.1768,1.1768,0,0,1,513.0691,136.8871Z" style="fill:#a6abb0"/><path d="M516.0238,139.8965c.2217.2258.138.461-.1848.5257l-1.9918.3987a1.1885,1.1885,0,0,1-.9612-.284c-.2215-.22-.1508-.4507.16-.5154l1.99-.4139A1.1985,1.1985,0,0,1,516.0238,139.8965Z" style="fill:#a6abb0"/><path d="M519.4033,140.987c.2178.2254.1225.4583-.2108.52l-2.0563.3835a1.2112,1.2112,0,0,1-.9727-.2876c-.2178-.2194-.136-.448.1848-.51l2.0546-.3986A1.2216,1.2216,0,0,1,519.4033,140.987Z" style="fill:#a6abb0"/><path d="M517.644,133.815c.2374.2544.141.5307-.2129.6174l-2.18.5342a1.1958,1.1958,0,0,1-1.0414-.2947c-.2372-.2469-.1562-.5173.1832-.6035l2.1775-.5532A1.2073,1.2073,0,0,1,517.644,133.815Z" style="fill:#a6abb0"/><path d="M520.68,137.0693c.2276.2439.1225.503-.2322.5791l-2.1862.4689a1.2171,1.2171,0,0,1-1.0264-.2951c-.2276-.2369-.1378-.4908.2029-.5667l2.1847-.4865A1.2283,1.2283,0,0,1,520.68,137.0693Z" style="fill:#a6abb0"/><path d="M523.5921,140.19c.2183.234.1054.4771-.25.5434l-2.1905.4085a1.238,1.238,0,0,1-1.0116-.2953c-.2186-.2276-.1207-.4661.2209-.5323l2.19-.4249A1.25,1.25,0,0,1,523.5921,140.19Z" style="fill:#a6abb0"/><path d="M522.861,142.0823c.2138.225.1062.4556-.238.5152l-2.1233.3681a1.2344,1.2344,0,0,1-.9847-.2913c-.214-.2191-.1206-.4455.2106-.5053l2.1223-.3832A1.2457,1.2457,0,0,1,522.861,142.0823Z" style="fill:#a6abb0"/><path d="M514.679,132.5071a1.1988,1.1988,0,0,0,1.0709.2982l2.25-.5881c.3653-.0955.4666-.3878.2235-.6531a1.2106,1.2106,0,0,0-1.1047-.3034l-2.2473.6087C514.521,131.9642,514.4361,132.25,514.679,132.5071Z" style="fill:#a6abb0"/><path d="M518.3722,133.6333a1.2238,1.2238,0,0,0,1.0856.3024l2.3313-.5713c.3787-.0928.4948-.3826.2566-.6477a1.2366,1.2366,0,0,0-1.12-.3078l-2.33.5919C518.2328,133.093,518.1339,133.3763,518.3722,133.6333Z" style="fill:#a6abb0"/><path d="M517.7757,135.7871a1.2208,1.2208,0,0,0,1.055.2988l2.256-.5177c.3663-.084.4766-.3578.2438-.6119a1.2321,1.2321,0,0,0-1.0876-.304l-2.2545.5366C517.637,135.2725,517.5428,135.5405,517.7757,135.7871Z" style="fill:#a6abb0"/><path d="M521.41,136.91a1.2458,1.2458,0,0,0,1.0691.303l2.335-.5009c.3791-.0813.5037-.3526.2757-.6064a1.2581,1.2581,0,0,0-1.1025-.3085l-2.3342.52C521.29,136.3978,521.1818,136.6634,521.41,136.91Z" style="fill:#a6abb0"/><path d="M520.7456,138.9328a1.2415,1.2415,0,0,0,1.0394.299l2.26-.4524c.3667-.0734.4852-.33.2622-.5736a1.2538,1.2538,0,0,0-1.0711-.3044l-2.2591.47C520.6247,138.4447,520.5222,138.6962,520.7456,138.9328Z" style="fill:#a6abb0"/><path d="M522.0679,134.784a1.25,1.25,0,0,0,1.1.3067l2.4132-.5537c.392-.09.5231-.3771.29-.6419a1.2629,1.2629,0,0,0-1.1355-.3122l-2.4126.5742C521.9473,134.2466,521.8343,134.5274,522.0679,134.784Z" style="fill:#a6abb0"/><path d="M525.0454,138.0552a1.2709,1.2709,0,0,0,1.0831.3071l2.414-.4833c.392-.0784.5311-.3471.3081-.6a1.2846,1.2846,0,0,0-1.1174-.3128l-2.414.5023C524.943,137.5462,524.8216,137.8093,525.0454,138.0552Z" style="fill:#a6abb0"/><path d="M524.323,140.0511a1.2663,1.2663,0,0,0,1.0531.3032l2.3363-.4357c.3791-.0707.5115-.3248.293-.568a1.2789,1.2789,0,0,0-1.0854-.3087l-2.3361.4532C524.22,139.5658,524.104,139.8149,524.323,140.0511Z" style="fill:#a6abb0"/><path d="M523.5963,141.9522a1.2618,1.2618,0,0,0,1.0242.2991l2.2618-.3921c.3669-.0636.4928-.3042.2789-.5377a1.2737,1.2737,0,0,0-1.0549-.3046l-2.2615.4083C523.492,141.4889,523.3818,141.725,523.5963,141.9522Z" style="fill:#a6abb0"/><path d="M642.9963,59.61c-3.3847-.4786-6.7193-1.1922-10.0276-1.8019-4.6876-.9649-10.14-1.4278-13.1364,3.0551-2.8838,4.0636-4.6693,8.8917-6.6154,13.4814-2.5062,6.2828-4.7084,12.6983-6.7555,19.162q-3.0689,9.6984-5.6184,19.5585c-3.6622,12.4762-5.3651,28.7268-16.691,36.8461-5.653,4.0985-12.472,5.7473-18.9248,7.9862-6.454,2.1224-12.84,4.4389-19.5538,5.8074,6.1594-2.9854,12.646-5.0229,19.0648-7.2546,6.3884-2.2967,13.0649-3.99,18.4488-7.88,5.5491-3.8513,8.6278-10.0345,10.734-16.3138,6.9343-22.685,11.51-46.373,21.884-67.9173,1.5561-3.1264,3.5571-6.4334,6.9566-7.9063,3.4067-1.41,7.0818-.7262,10.4862.0466a80.39,80.39,0,0,1,9.7485,3.13Z" style="fill:#a6abb0"/><path d="M569.5826,171.5711c-9.6241,1.0363-24.2588.6719-34.116.7492-24.7095-.0307-60.7-.0073-85.2862-.1341-5.1808-.0284-12.017.0669-17.0976-.2237-8.5905-.4441-16.996-2.32-25.3032-4.3873-8.3372-1.89-16.4109-4.9695-24.376-8.0161-7.9636-3.1022-15.8614-6.3665-23.6206-9.958-5.1946-2.4508-10.4608-5.1412-14.4051-9.5109-3.7728-4.5474-5.5518-10.11-7.6947-15.454-1.3226-3.9941-3.5639-8.3374-3.0988-12.6547.0437-.7475.263-2.4912.3171-3.2026a4.6856,4.6856,0,0,1,1.7276-3.2824,44.7107,44.7107,0,0,1,5.2381-3.87l-.3554.8679A177.5663,177.5663,0,0,1,337.686,77.86c-.6854-7.0651-.2445-14.7352.0921-21.835a11.2733,11.2733,0,0,1,.7531-3.2333l-.04.4261-.1957-1.0232a5.02,5.02,0,0,1-.14-1.1983c.1472-1.6279.5834-4.6633.7612-6.2751l.5122-4.1358.128-1.0339a4.7164,4.7164,0,0,1,.2475-1.1882,6.13,6.13,0,0,1,1.3417-1.9079l-.1364.7386c-.6416-1.4441.2231-3.193.5686-4.597.77-2.791,2.84-9.4579,3.6727-12.2724,1.6928-5.446,3.3637-10.919,6.059-15.9819-1.8035,8.0249-4.83,16.6459-7.1119,24.5751-.4115,1.4836-1.3939,4.7346-1.7764,6.14a2.25,2.25,0,0,0-.0027,1.6325.751.751,0,0,1-.1366.7388,5.5491,5.5491,0,0,0-1.0714,1.4568,12.5763,12.5763,0,0,0-.2884,1.8826c-.3176,2.8284-.8742,7.02-1.1964,9.825l-.0312.2565-.014.1914a15.4481,15.4481,0,0,0,.3126,1.8871,25.3882,25.3882,0,0,0-.6841,3.2194c-.3107,7.0366-.741,14.5691-.0481,21.5856a175.9605,175.9605,0,0,0,3.84,24.3981.8194.8194,0,0,1-.3555.8682,43.0932,43.0932,0,0,0-5.0351,3.7342,3.0184,3.0184,0,0,0-.9987,1.3636,9.59,9.59,0,0,0-.2752,1.9081,17.7065,17.7065,0,0,0,.0637,6.1046c.4846,2.2985,1.961,5.6551,2.703,7.9615,2.0293,5.1216,3.8611,10.7334,7.3683,14.9728,5.7332,6.1936,14.0867,9.1764,21.628,12.6365,15.6242,6.6887,31.4711,13.1335,48.2123,16.4a106.6964,106.6964,0,0,0,25.239,2.5211c5.6714.0385,19.8031-.0285,25.5865-.0008,16.9465-.0427,51.2713.075,68.23.12,9.6289.0934,24.531-.2206,34.1139.85Z" style="fill:#a6abb0"/><path d="M342.4268,102.0907c6.08-3.9278,12.7992-6.3156,19.5434-8.7195,6.7287-2.316,13.5659-4.2855,20.4491-6.0534a574.4267,574.4267,0,0,1,83.9145-14.61c7.09-.6026,14.3306-.7017,21.3367.7786,20.8916,4.6184,38.7642,17.8994,59.6072,22.6944,6.8345,1.8852,13.7015,3.6754,20.6,5.297a88.83,88.83,0,0,0,10.3666,2,7.0671,7.0671,0,0,0,4.7678-1.0328c2.7348-2.0726,3.85-5.7255,5.2606-8.7934,4.79-11.1384,10.02-23.1167,15.3879-33.96,6.8246-15.688,20.3577-19.8111,35.8084-13.5437-15.4581-4.405-28.0187-1.5057-34.9127,13.9889-3.1487,6.3484-6.1045,12.7965-8.9862,19.2773-1.4321,3.3121-5.0277,11.44-6.3794,14.634-1.5008,3.2482-2.5791,6.9279-5.6055,9.2163a8.0819,8.0819,0,0,1-5.41,1.2109,88.73,88.73,0,0,1-10.5252-2.024c-13.7806-3.4223-27.7568-6.5606-40.7975-12.3071-16.1719-6.74-31.8319-16.65-49.8584-16.842-17.7008.1287-35.271,3.3763-52.7123,6.1833-20.9181,3.735-41.8345,8.0225-61.9862,14.8311-6.5855,2.3324-13.4032,4.7952-19.26,8.5667a.5067.5067,0,0,1-.7437-.1.4988.4988,0,0,1,.1343-.6927Z" style="fill:#a6abb0"/><path d="M475.8871,119.4574a64.8552,64.8552,0,0,0,11.6477-1.2871c4.6333-1.1583,6.8212-2.7671,3.6037-8.43a84.5182,84.5182,0,0,0-12.806-16.5384c-4.3116-4.2472-7.6083-5.6074-16.0236-4.8908-26.4485,2.2523-52.3179,5.9847-55.6642,6.5639s-3.7324,1.4157-4.569,3.5394-.8327,2.2774-3.668,2.7027c-5.1482.7722-14.6722,2.6384-20.5926,3.99s-14.8009,3.6037-16.1523,4.0542-2.1879.193-4.0541-1.094-3.0448-1.0836-4.8264-.3861c-13.6426,5.3412-16.8944,8.3566-16.0879,10.6624" style="fill:none;stroke:#a6abb0;stroke-linecap:round;stroke-linejoin:round;stroke-width:0.5px"/><path d="M475.6156,119.4346q.6291.7891,1.2585,1.5672c3.0246,3.7324,7.0787,6.8856,11.8408,10.0389,4.4733,2.962,26.55,16.032,29.21,17.6058" style="fill:none;stroke:#a6abb0;stroke-linecap:round;stroke-linejoin:round;stroke-width:0.5px"/><path d="M339.6931,126.5959c-.351-.9154.7337-2.1835,3.5008-3.5992s14.7817-6.2144,34.4925-9.91a645.4837,645.4837,0,0,1,74.5193-9.2666c7.7865-.3861,10.94.3218,14.9939,4.9551,3.49,3.9886,5.8217,7.405,8.416,10.66" style="fill:none;stroke:#a6abb0;stroke-linecap:round;stroke-linejoin:round;stroke-width:0.5px"/><path d="M568.5956,156.3851c1.2992,20.68,6.2521,41.5758,18.2256,58.8055-12.5128-12.4873-17.4315-33.7538-19.2479-50.8746-.2586-2.6243-.4379-5.2391-.4774-7.9009a.75.75,0,0,1,1.5-.03Z" style="fill:#a6abb0"/><path d="M380.0448,157.03c-2.173-.8737-3.8385-1.9222,4.1411-2.5657s27.9287-1.9306,46.2046-2.7028,83.2711-3.2176,98.5868-3.3463,23.2925-.3944,42.4707,6.1736" style="fill:none;stroke:#a6abb0;stroke-linecap:round;stroke-linejoin:round;stroke-width:0.5px"/><path d="M401.9916,109.088c2.24,12.2034,3.8809,15.5818,5.1357,18.2846a16.9469,16.9469,0,0,0,7.1431,8.2049c4.44,2.7993,5.1159,3.2819,2.51,3.7645s-25.3868,2.51-28.1861,2.7028a17.15,17.15,0,0,1-10.1354-2.3167c-8.2048-4.5367-12.92-7.4329-19.6362-22.25" style="fill:none;stroke:#a6abb0;stroke-linecap:round;stroke-linejoin:round;stroke-width:0.5px"/><path d="M437.083,121.0662c-1.3514.0643-1.9949-1.1584-1.4157-3.4107s1.8018-2.7028,3.99-2.96,20.7856-1.9949,23.2953-2.0592,3.282,1.03,4.0542,2.8315,1.6088,3.2819-1.3514,3.4106S437.083,121.0662,437.083,121.0662Z" style="fill:none;stroke:#a6abb0;stroke-linecap:round;stroke-linejoin:round;stroke-width:0.5px"/><path d="M347.28,130.0271A37.7638,37.7638,0,0,1,353.6993,128c1.5445-.1931,1.9306.4343,2.4615,1.834s1.11,2.2684-.3861,2.751-6.3709,1.7858-7.24,2.0271-1.5927-.6757-1.7858-2.3167S346.5028,130.3884,347.28,130.0271Z" style="fill:none;stroke:#a6abb0;stroke-linecap:round;stroke-linejoin:round;stroke-width:0.5px"/><path d="M476.5306,3.2382a293.1331,293.1331,0,0,0,6.9836,69.9647.25.25,0,0,1-.1855.3012.2542.2542,0,0,1-.3019-.1886,266.5264,266.5264,0,0,1-5.6979-34.8227c-.991-11.6982-1.9295-23.5389-.7983-35.2546Z" style="fill:#a6abb0"/><path d="M476.3173,16.3631S379.0378,34.7062,338.4815,70.8078" style="fill:none;stroke:#a6abb0;stroke-linecap:round;stroke-linejoin:round;stroke-width:0.5px"/><path d="M344.0055,66.7537c.1012,10.3051.3078,20.62,1.2476,30.8884a204.8,204.8,0,0,1-1.7477-30.89.25.25,0,0,1,.5.0016Z" style="fill:#a6abb0"/><path d="M462.1022,19.417c-13.077,3.8233-36.3451,15.6109-47.2849,20.1155s-28.3147,10.94-35.136,13.6426-16.86,6.8213-35.9244,13.2737c0,0-.0007.1048-.0014.3041" style="fill:none;stroke:#a6abb0;stroke-linecap:round;stroke-linejoin:round;stroke-width:0.5px"/><path d="M385.9193,44.3846a2.0335,2.0335,0,0,0-1.1628.171L380.427,46.59a.4493.4493,0,0,0-.1912.643l1.7708,2.866a.9274.9274,0,0,0,1.1332.3735l3.3632-1.3453a3.7048,3.7048,0,0,0,.7836-.4294l4.75-3.4058Z" style="fill:none;stroke:#a6abb0;stroke-linecap:round;stroke-linejoin:round;stroke-width:0.5px"/><ellipse cx="383.2565" cy="47.7504" rx="0.798" ry="1.4305" transform="translate(13.5798 159.5751) rotate(-23.9322)" style="fill:none;stroke:#a6abb0;stroke-linecap:round;stroke-linejoin:round;stroke-width:0.5px"/><path d="M452.7589,22.7917a400.5194,400.5194,0,0,0,8.52,43.479c-3.42-10.5665-5.5123-21.5069-7.4016-32.4343-.6243-3.6473-1.1438-7.309-1.6149-10.982a.25.25,0,0,1,.4961-.0627Z" style="fill:#a6abb0"/><path d="M339.5508,53.138c19.6574-18.7343,68.889-42.9129,95.5728-48.4132a283.96,283.96,0,0,0-50.0474,19.7544,259.1988,259.1988,0,0,0-34.7543,20.5262,93.94,93.94,0,0,0-10.4093,8.4777.2515.2515,0,0,1-.366.0074.2488.2488,0,0,1,.0042-.3525Z" style="fill:#a6abb0"/><path d="M341.9662,37.0422a157.9778,157.9778,0,0,1,23.8215-18.7168,213.5579,213.5579,0,0,1,26.32-14.9934c-12.7985,7.1869-26.83,15.19-38.314,24.2493a138.27,138.27,0,0,0-11.478,9.818c-.2169.2214-.5921-.1264-.35-.3571Z" style="fill:#a6abb0"/><path d="M337.1539,111.8233c6.2448-4.9711,14.0312-7.3947,21.4368-10.0727,30.0742-9.8847,61.73-13.6005,93.1186-16.5459,3.9351-.3241,7.86-.7229,11.8212-.8763,3.9354-.0961,8.1423.0344,11.63,2.0894,8.2225,5.529,14.6074,13.5452,19.6811,21.9761,3.6346,6.7706,1.6694,11.9749-6.4055,12.6078,7.6961-.9347,9.7578-5.7156,5.9869-12.38-5.1094-8.2606-11.3839-16.317-19.51-21.77-3.4178-2.0068-7.498-2.1126-11.3666-2.0237-3.9278.1518-7.862.5506-11.7927.8748-35.1671,3.4442-71.0695,7.3066-104.0537,20.703-3.5419,1.589-7.2779,3.2523-10.2106,5.7857a.2489.2489,0,0,1-.3349-.3684Z" style="fill:#a6abb0"/><path d="M402.3331,84.3213c15.9015-2.97,31.9275-5.1992,47.9761-7.2095,17.457-2.2823,31.3473-2.4268,47.3942,5.9126,7.2947,3.4976,14.1376,7.877,21.3549,11.4924,7.2531,3.5464,15.0693,5.7539,22.8253,7.9848,15.5753,4.321,31.31,8.0614,47.0695,11.6789-15.8438-3.244-31.6045-6.9211-47.1894-11.2522-7.7622-2.2295-15.5988-4.4367-22.904-8.0035-7.2409-3.6225-14.06-7.9861-21.36-11.4832-15.9607-8.2889-29.7622-8.1246-47.1327-5.8464-16.0576,1.8964-32.0016,4.6146-48.0335,6.7261Z" style="fill:#a6abb0"/><path d="M639.5335,50.3436c-11.7859-3.4124-20.6426-3.1965-26.8885,8.7338-4.6755,9.4991-8.0377,19.5976-11.39,29.6253-3.2648,10.08-6.3013,20.2471-9.207,30.4338-2.892,9.5711-4.3878,22.2243-13.3913,28.1209,8.6369-6.1185,10.08-18.7256,12.9642-28.2368,2.9036-10.2066,5.93-20.3656,9.1925-30.4616,2.8882-8.82,5.9434-17.6061,9.685-26.107,5.7859-14.0252,15.04-17.5048,29.0348-12.1084Z" style="fill:#a6abb0"/><path d="M584.7058,62.5705c-10.243-3.232-21.442-4.9476-30.28-11.4711a85.9167,85.9167,0,0,1-8.1038-7.2185c-5.1491-5.0612-10.5408-9.9356-15.1016-15.5487A34.0791,34.0791,0,0,1,524.73,8a34.1123,34.1123,0,0,0,6.6969,20.1772c4.5708,5.568,10.0266,10.3794,15.2,15.3827,2.6535,2.45,5.2069,5.0076,8.0745,7.1718,8.7251,6.5824,19.8939,8.2834,30.0046,11.8386Z" style="fill:#a6abb0"/><path d="M635.93,33.0974C627.322,31,616.99,29.9378,609.7181,36.01c-3.5779,2.8533-5.6319,7.113-8.1178,10.9475-2.4144,3.9062-4.6559,7.9163-6.9843,11.88l3.2476-6.0815q3.3125-6.05,7.0031-11.8831a22.3158,22.3158,0,0,1,4.5344-5.2491c7.3985-6.14,17.9095-5.0318,26.5287-2.527Z" style="fill:#a6abb0"/><path d="M341.7138,44.9381c4.8108-5.4531,10.828-9.6729,16.7431-13.8345C373.4224,20.8988,389.968,13.0184,406.94,6.7692c3.4128-1.2182,6.8737-2.3023,10.3231-3.4023-3.3866,1.2928-6.7939,2.5133-10.1906,3.76-23.5826,8.98-46.5482,20.768-65.3583,37.8109Z" style="fill:#a6abb0"/><path d="M409.1861,43.9708a.5945.5945,0,0,1,.8063.6228l-2.5517,21.8918a2.7844,2.7844,0,0,1-1.9638,2.3441l-34.009,10.227a.5946.5946,0,0,1-.76-.654l2.7306-18.9915a2.7842,2.7842,0,0,1,1.7456-2.1982Z" style="fill:none;stroke:#a6abb0;stroke-linecap:round;stroke-linejoin:round;stroke-width:0.5px"/><path d="M341.1025,53.529c-.026,2.2841-.0057,4.7932-.0754,7.0872a13.6,13.6,0,0,0,.0456,2.2988c.1238.8,1.1881-.1421,1.5482-.3654,6.8472-5.3047,14.7887-9.071,22.3361-13.2664,5.5955-2.9045,11.1605-5.8758,17.0046-8.2687,23.5-9.1091,47.7823-15.9817,71.5845-24.2146,7.0319-2.5707,11.6071-3.7264,11.6906-12.4035.1526,8.78-4.4315,10.0114-11.5741,12.7252-23.7205,8.45-48.06,15.1611-71.5218,24.3331-5.8128,2.3835-11.3825,5.3606-16.9565,8.2584-7.5513,4.1785-15.4024,7.9776-22.2854,13.2164-2.568,1.933-2.4016-.2766-2.252-2.3285.1581-2.3012.258-4.79.4556-7.072Z" style="fill:#a6abb0"/><path d="M337.1983,108.3891a3.1585,3.1585,0,0,1-.2478,2.479,3.1578,3.1578,0,0,1,.2478-2.479Z" style="fill:#a6abb0"/><path d="M457.5138,78.774c1.8209.2662,2.0044,2.9264.62,3.9008a1.8365,1.8365,0,0,1-2.3862-.0653,2.08,2.08,0,0,1-.4764-2.24,2.17,2.17,0,0,0,.7266,1.9476c2.21,1.44,3.8286-2.65,1.5161-3.5434Z" style="fill:#a6abb0"/><path d="M540.3286,106.468c2.2826.9735,1.6853,4.4976-.4313,5.3578a2.47,2.47,0,0,1-3.0926-.7945,2.8894,2.8894,0,0,1,.0039-3.1207,2.9807,2.9807,0,0,0,.3061,2.8931c2.6008,2.7661,6.1927-2.36,3.2139-4.3357Z" style="fill:#a6abb0"/><path d="M610.0979,79.4793c4.9615-2.3458,10.3629-3.3031,15.7466-4.0027,5.3439-.5461,10.7878-1.1153,16.1037-.0745a54.3594,54.3594,0,0,1-7.9669.9891,118.4584,118.4584,0,0,0-15.7146,2.2177,48.6722,48.6722,0,0,0-7.5448,2.23.75.75,0,0,1-.624-1.36Z" style="fill:#a6abb0"/><path d="M644.56,106.0988c-11.1811,7.5845-15.5517,21.6889-16.292,34.6111a115.7948,115.7948,0,0,0,4.7893,39.3129c2.7481,8.3833,6.4816,16.5794,12.0755,23.474-6.3051-6.3686-10.1483-14.7843-12.9734-23.1837-6.8252-21.2361-10.5151-61.6289,12.4006-74.2143Z" style="fill:#a6abb0"/><line x1="22.2239" y1="53.1517" x2="19.8387" y2="50.7955" style="fill:none;stroke:#a6abb0;stroke-miterlimit:10"/><path d="M439.5927,143.7179a187.4326,187.4326,0,0,1-17.3444-9.4424,17.3928,17.3928,0,0,1-6.5933-7.3268,32.1414,32.1414,0,0,1-2.5314-9.5834,7.9366,7.9366,0,0,1,.7122-4.9544c.98-1.4915,2.7885-2.0128,4.4369-2.2715,3.2959-.37,6.557-.6289,9.8377-.9425,6.8981-.4862,22.8436-2.3161,29.5431-2.3095,7.3167.1177,10.5034,7.51,14.7422,12.2561,6.2766,7.707,14.6409,13.0985,23.0505,18.2272,5.5924,3.4621,11.2641,6.7956,16.9283,10.144-5.7814-3.1435-11.4694-6.4547-17.1131-9.8412-8.486-4.9952-16.8966-10.5289-23.2084-18.2389-4.1993-4.639-7.25-11.9569-14.4281-12.0858-6.55-.0045-22.719,1.8458-29.4707,2.3259-3.2682.3142-6.5673.58-9.809.9452-1.5713.2417-3.2343.7411-4.0987,2.0565a7.5065,7.5065,0,0,0-.6333,4.64,31.8734,31.8734,0,0,0,2.4913,9.4182c2.7621,6.1557,9.3122,9.0118,14.8307,12.2481l8.6575,4.7355Z" style="fill:#a6abb0"/><path d="M341.6983,131.4192c-1.6013-2.9441-1.2616-4.8788,2.0175-6.14a57.6189,57.6189,0,0,1,7.0586-2.7593,6.5973,6.5973,0,0,1,3.8666-.2788,6.4175,6.4175,0,0,1,2.868,2.6126l4.4491,6.0827c5.8553,8.5866,16.4921,11.0232,25.2535,15.5644-9.1158-3.8837-19.7263-6.6976-25.7136-15.2107l-4.4415-6.1234c-1.6085-2.5458-3.2907-3.101-6.1346-2.1479a71.3487,71.3487,0,0,0-7.0252,2.6622c-3.157,1.1326-3.4438,2.7732-2.1984,5.7385Z" style="fill:#a6abb0"/><path d="M340.1321,121.5312c5.223-3.1947,11.1361-5.0978,16.9634-6.8763,17.63-5.1149,35.868-7.7159,53.9981-10.3215,14.7663-1.9428,29.5554-3.9226,44.4226-4.9079a18.6833,18.6833,0,0,1,9.8772,2.8913,35.849,35.849,0,0,1,12.4317,13.3138c-3.36-5.0332-7.4845-9.7391-12.659-12.9365a18.1586,18.1586,0,0,0-8.5084-2.7779,82.1967,82.1967,0,0,0-9.1078.5694c-24.2918,2.4709-48.5789,5.5482-72.5383,10.2908-11.8366,2.6405-24.0482,5.1382-34.88,10.7548Z" style="fill:#a6abb0"/><path d="M481.376,115.4133c2.4205-.6288,7.9915-.9135,6.7871-4.5974-2.07-4.7945-6.1138-8.9258-9.7534-12.6265a63.1841,63.1841,0,0,0-4.8308-4.2323,15.6881,15.6881,0,0,0-5.96-2.1052c-4.2363-.7194-8.5528-.3116-12.83.1607-8.5743.9166-17.1415,1.9288-25.707,2.942L416.2325,96.47l-6.4217.763a5.92,5.92,0,0,0-2.9378,1.1229,4.9738,4.9738,0,0,0-1.7353,2.6358,5.0427,5.0427,0,0,1,1.646-2.7457,5.753,5.753,0,0,1,2.9933-1.2428l6.4118-.8851c12.8328-1.6715,25.6871-3.1461,38.5508-4.5711,4.2712-.4749,8.6475-.8968,12.9579-.1687a16.1416,16.1416,0,0,1,6.1513,2.1746,62.5162,62.5162,0,0,1,4.9007,4.2809c3.76,3.8154,7.7344,7.8439,9.7926,12.8727,1.1719,4.0566-4.5037,4.2309-7.1661,4.7067Z" style="fill:#a6abb0"/><path d="M354.8049,110.4729c-4.549,2.3722-19.8047,5.4131-16.4,12.69a4.3173,4.3173,0,0,1-.84-2.8153c.6381-5.2112,12.6988-8.8547,17.24-9.8742Z" style="fill:#a6abb0"/><path d="M438.06,116.7629a1.23,1.23,0,0,0-.2286,2.1006,1.59,1.59,0,0,0,.8461.03c2.6434-.2481,5.3057-.35,7.946-.5372,1.2906-.0175,1.0144-2.4769-.2992-2.438a1.114,1.114,0,0,1,.9866.248,1.6665,1.6665,0,0,1-.0726,2.4914,32.5793,32.5793,0,0,1-4.5454.5047l-3.9728.2522a2.0144,2.0144,0,0,1-1.1126-.096c-1.1058-.5209-.8049-2.5911.4525-2.5556Z" style="fill:#a6abb0"/><path d="M351.9341,130.2184a1.25,1.25,0,0,0,.278,1.3878c.1184.0771.5659-.1006.7136-.1213.6926-.1914,1.67-.4249,2.3565-.6259.1063-.3136-.0427-1.4216-.6053-1.4672.8655-.4213,1.621,1.7382.6481,1.9635-.2808.1033-1.0523.3468-1.3469.4421-.6733.1179-1.3327.5537-2.02.2817-.64-.3668-.7916-1.7012-.0237-1.8607Z" style="fill:#a6abb0"/><path d="M240.8168,70.2306c-18.8673,3.8085-38.7959,7.2772-57.7157,10.9243-19.3058,3.3246-38.8037,5.2158-58.0834,8.7223C91.2907,95.7093,57.4083,101.4194,24.5132,111.03c-4.63,1.5193-9.4183,2.8245-13.6817,5.2275,4.22-2.4855,8.9855-3.9118,13.6118-5.451C57.2605,100.85,91.2164,95.3114,124.9409,89.4183c19.2652-3.511,38.7863-5.4136,58.0761-8.7423,18.9325-3.5364,38.7758-7.4863,57.8-10.4454Z" style="fill:#a6abb0"/><line x1="194.8971" y1="61.9552" x2="194.8971" y2="70.6346" style="fill:none;stroke:#a6abb0;stroke-linecap:round;stroke-linejoin:round;stroke-width:0.5px"/><line x1="218.249" y1="60.4158" x2="218.249" y2="68.1647" style="fill:none;stroke:#a6abb0;stroke-linecap:round;stroke-linejoin:round;stroke-width:0.5px"/></g><g id="b9eaca5e-78b7-48f1-8e76-9656d2c8f2ed" data-name="above"><ellipse cx="221.461" cy="162.3601" rx="6.9749" ry="12.1876" transform="translate(16.3696 344.9617) rotate(-77.9264)" style="fill:#f4ae3d"/><ellipse cx="519.5142" cy="136.9671" rx="7.3287" ry="12.8057" transform="translate(276.9108 616.3402) rotate(-77.9264)" style="fill:#f4ae3d"/><path d="M217.0531,159.1068c.221.1967.117.4165-.2316.4915l-2.1889.4714a1.3544,1.3544,0,0,1-1.04-.217c-.2278-.1958-.1294-.4162.2206-.4917l2.2025-.4751A1.3282,1.3282,0,0,1,217.0531,159.1068Z" style="fill:#30373e"/><path d="M216.4044,160.8229c.2195.1911.1177.4055-.2264.4794l-2.161.4639a1.3554,1.3554,0,0,1-1.0289-.2092c-.226-.19-.13-.4052.2157-.48l2.1743-.4676A1.3293,1.3293,0,0,1,216.4044,160.8229Z" style="fill:#30373e"/><path d="M219.8747,161.6174c.2109.1877.1049.3986-.236.4716l-2.141.4583a1.3154,1.3154,0,0,1-1.0077-.2047c-.2174-.1869-.1168-.3983.2255-.4717l2.1541-.4619A1.2905,1.2905,0,0,1,219.8747,161.6174Z" style="fill:#30373e"/><path d="M219.2062,163.2635c.21.1826.1059.3883-.2308.46l-2.1143.4513a1.3172,1.3172,0,0,1-.9972-.1975c-.2158-.1816-.1174-.3879.2206-.46l2.1271-.4548A1.2922,1.2922,0,0,1,219.2062,163.2635Z" style="fill:#30373e"/><path d="M222.5688,164.0146c.2015.1793.0938.3818-.24.4528l-2.0952.446a1.2788,1.2788,0,0,1-.977-.1933c-.2077-.1785-.1052-.3815.23-.4529l2.1077-.4493A1.2538,1.2538,0,0,1,222.5688,164.0146Z" style="fill:#30373e"/><path d="M215.8121,162.4878c.2178.1858.1182.395-.2215.4677l-2.1339.4568a1.3567,1.3567,0,0,1-1.0179-.2018c-.2242-.185-.13-.3947.2111-.4678l2.1469-.46A1.3309,1.3309,0,0,1,215.8121,162.4878Z" style="fill:#30373e"/><path d="M218.5934,164.8614c.2081.1776.1066.3784-.2259.4492l-2.0884.4445a1.3186,1.3186,0,0,1-.9868-.19c-.2142-.1768-.1179-.3781.216-.4493l2.1008-.4479A1.2936,1.2936,0,0,1,218.5934,164.8614Z" style="fill:#30373e"/><path d="M221.883,165.5952c.2.1745.0949.3722-.2346.4422l-2.07.4393a1.2806,1.2806,0,0,1-.9672-.1866c-.2063-.1736-.1059-.3718.2249-.4421l2.0819-.4426A1.2567,1.2567,0,0,1,221.883,165.5952Z" style="fill:#30373e"/><path d="M220.5869,159.9241c.2123.1931.1039.4093-.2414.4834l-2.1685.4656a1.313,1.313,0,0,1-1.0183-.2123c-.2189-.1922-.116-.4089.2307-.4835l2.182-.4692A1.2873,1.2873,0,0,1,220.5869,159.9241Z" style="fill:#30373e"/><path d="M223.2978,162.39c.2028.1844.0927.3918-.2451.4639l-2.1215.4528a1.2755,1.2755,0,0,1-.987-.2c-.2091-.1835-.1042-.3915.235-.464l2.1343-.4563A1.2512,1.2512,0,0,1,223.2978,162.39Z" style="fill:#30373e"/><path d="M225.8875,164.7446c.1938.1762.0823.3755-.2483.4457l-2.0765.4408a1.2415,1.2415,0,0,1-.9575-.1893c-.2-.1754-.0932-.3752.2387-.4458l2.0888-.444A1.2174,1.2174,0,0,1,225.8875,164.7446Z" style="fill:#30373e"/><path d="M225.1438,166.3058c.1928.1715.0837.3662-.2429.4353l-2.0514.4343a1.2442,1.2442,0,0,1-.9481-.1827c-.1986-.1707-.0944-.3658.2335-.4353l2.0633-.4374A1.2205,1.2205,0,0,1,225.1438,166.3058Z" style="fill:#30373e"/><path d="M217.7914,158.9477a1.3116,1.3116,0,0,0,1.0293.22l2.1965-.473c.35-.0753.4607-.297.2469-.4956a1.2863,1.2863,0,0,0-1.0265-.2241l-2.21.4768C217.6761,158.5277,217.5708,158.75,217.7914,158.9477Z" style="fill:#30373e"/><path d="M221.2913,159.7728a1.2721,1.2721,0,0,0,1.0077.2153l2.1759-.4672c.3465-.0744.4616-.2923.2563-.4873a1.2469,1.2469,0,0,0-1.0048-.2191l-2.19.4708C221.189,159.36,221.0794,159.5787,221.2913,159.7728Z" style="fill:#30373e"/><path d="M220.5968,161.4627a1.2741,1.2741,0,0,0,.9973.2077l2.1483-.46c.3421-.0732.4546-.2858.2506-.4754a1.2491,1.2491,0,0,0-.9945-.2114l-2.1615.4635C220.4935,161.0609,220.3863,161.274,220.5968,161.4627Z" style="fill:#30373e"/><path d="M223.9869,162.2423a1.2361,1.2361,0,0,0,.9768.2032l2.1286-.4543c.339-.0724.4554-.2815.26-.4677a1.2122,1.2122,0,0,0-.9741-.2068l-2.1415.4578C223.8959,161.8473,223.7846,162.057,223.9869,162.2423Z" style="fill:#30373e"/><path d="M223.2753,163.8641a1.2391,1.2391,0,0,0,.9671.1961l2.1022-.4475c.3348-.0712.4487-.2754.2538-.4565a1.2151,1.2151,0,0,0-.9644-.2l-2.1148.4508C223.1831,163.4792,223.0743,163.6838,223.2753,163.8641Z" style="fill:#30373e"/><path d="M224.6755,160.5889a1.2344,1.2344,0,0,0,.9869.2106l2.1556-.4615c.3433-.0735.4623-.2878.2652-.4792a1.21,1.21,0,0,0-.984-.2143l-2.1689.465C224.5857,160.1834,224.4719,160.3983,224.6755,160.5889Z" style="fill:#30373e"/><path d="M227.2662,163.014a1.2,1.2,0,0,0,.9572.1988l2.1091-.4489c.3358-.0715.456-.2772.2677-.46a1.1766,1.1766,0,0,0-.9543-.2023l-2.1219.4523C227.1868,162.6257,227.0717,162.832,227.2662,163.014Z" style="fill:#30373e"/><path d="M226.5619,164.6014a1.2027,1.2027,0,0,0,.9477.1919l2.0833-.4422c.3317-.07.4493-.2713.262-.4492a1.18,1.18,0,0,0-.945-.1954l-2.0957.4455C226.4812,164.2228,226.3685,164.4242,226.5619,164.6014Z" style="fill:#30373e"/><path d="M225.8355,166.1593a1.206,1.206,0,0,0,.9386.1853l2.058-.4356c.3277-.0694.4428-.2656.2564-.4388a1.1825,1.1825,0,0,0-.936-.1885l-2.07.4388C225.7535,165.79,225.6433,165.9869,225.8355,166.1593Z" style="fill:#30373e"/><path d="M513.9495,132.7012a.3449.3449,0,0,1-.1822.6223l-2.1033.55a1.1718,1.1718,0,0,1-1.0276-.2906c-.2413-.2471-.1734-.52.154-.6083l2.1-.5688A1.1823,1.1823,0,0,1,513.9495,132.7012Z" style="fill:#30373e"/><path d="M513.478,134.8546c.2361.2444.1573.508-.1737.5891l-2.0409.5a1.17,1.17,0,0,1-1-.2872c-.2356-.2375-.1707-.4957.1472-.5765l2.038-.5177A1.18,1.18,0,0,1,513.478,134.8546Z" style="fill:#30373e"/><path d="M517.0434,135.9582c.232.2442.14.5056-.2024.5842l-2.1124.4846a1.193,1.193,0,0,1-1.0129-.2911c-.2317-.2372-.1545-.4932.1746-.5716l2.11-.5022A1.2036,1.2036,0,0,1,517.0434,135.9582Z" style="fill:#30373e"/><path d="M516.5006,137.9828c.2267.2347.1393.4824-.1931.5537l-2.05.44a1.19,1.19,0,0,1-.9862-.2875c-.2264-.2282-.1527-.4711.1668-.5423l2.0475-.4559A1.2006,1.2006,0,0,1,516.5006,137.9828Z" style="fill:#30373e"/><path d="M520.0114,139.0826c.2226.2343.1226.48-.221.5485l-2.1189.4242a1.2138,1.2138,0,0,1-.9986-.2913c-.2226-.2279-.137-.4686.1934-.5373l2.1173-.44A1.2246,1.2246,0,0,1,520.0114,139.0826Z" style="fill:#30373e"/><path d="M513.0691,136.8871c.2308.235.1554.485-.1661.5588l-1.9832.455a1.1679,1.1679,0,0,1-.9744-.2838c-.23-.2286-.168-.4738.1411-.5473l1.98-.4714A1.1768,1.1768,0,0,1,513.0691,136.8871Z" style="fill:#30373e"/><path d="M516.0238,139.8965c.2217.2258.138.461-.1848.5257l-1.9918.3987a1.1885,1.1885,0,0,1-.9612-.284c-.2215-.22-.1508-.4507.16-.5154l1.99-.4139A1.1985,1.1985,0,0,1,516.0238,139.8965Z" style="fill:#30373e"/><path d="M519.4033,140.987c.2178.2254.1225.4583-.2108.52l-2.0563.3835a1.2112,1.2112,0,0,1-.9727-.2876c-.2178-.2194-.136-.448.1848-.51l2.0546-.3986A1.2216,1.2216,0,0,1,519.4033,140.987Z" style="fill:#30373e"/><path d="M517.644,133.815c.2374.2544.141.5307-.2129.6174l-2.18.5342a1.1958,1.1958,0,0,1-1.0414-.2947c-.2372-.2469-.1562-.5173.1832-.6035l2.1775-.5532A1.2073,1.2073,0,0,1,517.644,133.815Z" style="fill:#30373e"/><path d="M520.68,137.0693c.2276.2439.1225.503-.2322.5791l-2.1862.4689a1.2171,1.2171,0,0,1-1.0264-.2951c-.2276-.2369-.1378-.4908.2029-.5667l2.1847-.4865A1.2283,1.2283,0,0,1,520.68,137.0693Z" style="fill:#30373e"/><path d="M523.5921,140.19c.2183.234.1054.4771-.25.5434l-2.1905.4085a1.238,1.238,0,0,1-1.0116-.2953c-.2186-.2276-.1207-.4661.2209-.5323l2.19-.4249A1.25,1.25,0,0,1,523.5921,140.19Z" style="fill:#30373e"/><path d="M522.861,142.0823c.2138.225.1062.4556-.238.5152l-2.1233.3681a1.2344,1.2344,0,0,1-.9847-.2913c-.214-.2191-.1206-.4455.2106-.5053l2.1223-.3832A1.2457,1.2457,0,0,1,522.861,142.0823Z" style="fill:#30373e"/><path d="M514.679,132.5071a1.1988,1.1988,0,0,0,1.0709.2982l2.25-.5881c.3653-.0955.4666-.3878.2235-.6531a1.2106,1.2106,0,0,0-1.1047-.3034l-2.2473.6087C514.521,131.9642,514.4361,132.25,514.679,132.5071Z" style="fill:#30373e"/><path d="M518.3722,133.6333a1.2238,1.2238,0,0,0,1.0856.3024l2.3313-.5713c.3787-.0928.4948-.3826.2566-.6477a1.2366,1.2366,0,0,0-1.12-.3078l-2.33.5919C518.2328,133.093,518.1339,133.3763,518.3722,133.6333Z" style="fill:#30373e"/><path d="M517.7757,135.7871a1.2208,1.2208,0,0,0,1.055.2988l2.256-.5177c.3663-.084.4766-.3578.2438-.6119a1.2321,1.2321,0,0,0-1.0876-.304l-2.2545.5366C517.637,135.2725,517.5428,135.5405,517.7757,135.7871Z" style="fill:#30373e"/><path d="M521.41,136.91a1.2458,1.2458,0,0,0,1.0691.303l2.335-.5009c.3791-.0813.5037-.3526.2757-.6064a1.2581,1.2581,0,0,0-1.1025-.3085l-2.3342.52C521.29,136.3978,521.1818,136.6634,521.41,136.91Z" style="fill:#30373e"/><path d="M520.7456,138.9328a1.2415,1.2415,0,0,0,1.0394.299l2.26-.4524c.3667-.0734.4852-.33.2622-.5736a1.2538,1.2538,0,0,0-1.0711-.3044l-2.2591.47C520.6247,138.4447,520.5222,138.6962,520.7456,138.9328Z" style="fill:#30373e"/><path d="M522.0679,134.784a1.25,1.25,0,0,0,1.1.3067l2.4132-.5537c.392-.09.5231-.3771.29-.6419a1.2629,1.2629,0,0,0-1.1355-.3122l-2.4126.5742C521.9473,134.2466,521.8343,134.5274,522.0679,134.784Z" style="fill:#30373e"/><path d="M525.0454,138.0552a1.2709,1.2709,0,0,0,1.0831.3071l2.414-.4833c.392-.0784.5311-.3471.3081-.6a1.2846,1.2846,0,0,0-1.1174-.3128l-2.414.5023C524.943,137.5462,524.8216,137.8093,525.0454,138.0552Z" style="fill:#30373e"/><path d="M524.323,140.0511a1.2663,1.2663,0,0,0,1.0531.3032l2.3363-.4357c.3791-.0707.5115-.3248.293-.568a1.2789,1.2789,0,0,0-1.0854-.3087l-2.3361.4532C524.22,139.5658,524.104,139.8149,524.323,140.0511Z" style="fill:#30373e"/><path d="M523.5963,141.9522a1.2618,1.2618,0,0,0,1.0242.2991l2.2618-.3921c.3669-.0636.4928-.3042.2789-.5377a1.2737,1.2737,0,0,0-1.0549-.3046l-2.2615.4083C523.492,141.4889,523.3818,141.725,523.5963,141.9522Z" style="fill:#30373e"/></g></svg>