<svg xmlns="http://www.w3.org/2000/svg" width="654" height="218" viewBox="0 0 654 218"><g id="f6a17868-8086-4daf-b56c-e5ac854af149" data-name="illustration"><path d="M568.4458,152.6936c.76,15.575,3.82,31.3531,10.5916,45.4813a125.1434,125.1434,0,0,0,7.9781,13.5161c-12.8241-12.7086-18.0145-33.518-19.696-51.033-.2381-2.6453-.38-5.28-.3737-7.9645a.75.75,0,0,1,1.5,0Z" style="fill:#a6abb0"/><path d="M487.9754,75.7884c1.9587.3024,2.15,3.163.66,4.2136a1.9763,1.9763,0,0,1-2.5644-.0663,2.2592,2.2592,0,0,1-.5272-2.4166,2.3492,2.3492,0,0,0,.7773,2.1245c2.4282,1.5824,4.1943-2.873,1.6548-3.8552Z" style="fill:#a6abb0"/><path d="M548.6815,101.9915c1.9289-.4556,3.181,2.1236,2.194,3.6573a1.9765,1.9765,0,0,1-2.4016.9018,2.2591,2.2591,0,0,1-1.3963-2.0416,2.349,2.349,0,0,0,1.5184,1.6769c2.8449.5544,2.8079-4.2381.0855-4.1944Z" style="fill:#a6abb0"/><path d="M436.0612,84.2608c1.7666.37,1.6887,2.98.53,4.024a1.5968,1.5968,0,0,1-2.3458.0173,2.2881,2.2881,0,0,1-.3063-2.2815,2.4663,2.4663,0,0,0,.5844,2.0159c2.0379,1.4855,3.6076-2.949,1.5373-3.7757Z" style="fill:#a6abb0"/><path d="M366.4251,103.9212c1.2422-.0135,1.2317,2.0359.7974,2.8568-.2143.5752-1.0837,1.17-1.593.5572a1.8289,1.8289,0,0,1-.2793-1.6369c.3743,2.5853,1.7574,1.2346,1.7249-.5676-.02-.4624-.1074-1.0949-.65-1.21Z" style="fill:#a6abb0"/><path d="M349.206,112.0181c.8963.1254.6623,4.0359-.4653,3.62-.5168-.4543-.2816-1.3184-.1551-1.8616a6.5136,6.5136,0,0,0,.2607,1.3218.4246.4246,0,0,0,.0916.1487c-.1014-.02-.068.0106-.018-.0848a2.239,2.239,0,0,0,.2109-.5732,8.06,8.06,0,0,0,.2615-1.9817c-.0115-.208.0173-.486-.1863-.5892Z" style="fill:#a6abb0"/><path d="M302.4648,92.1778c-2.0293,11.7142-5.0249,24.6452-7.5145,36.3429-2.6961,11.6512-4.977,26.5049-17.1221,32.0636-7.7711,3.0195-16.0887,4.043-24.1775,5.8582-4.9808.9326-25.969,5.0949-30.3086,5.9417-6.0411,1.47-12.4476,1.6533-18.6211,1.5929l-49.46.0352c-24.7336-.0915-49.4824-.1013-74.2085-.8755-12.3623-.5376-24.9088-.4245-37.0636-3.2056C35.6758,168.195,28.9433,162.53,22.89,156.8974c-3.7914-3.4724-7.48-7.1762-11.0538-10.8718a14.8241,14.8241,0,0,1-2.1152-2.5018c-1.2293-1.6817-.925-4.4635-1.0785-6.4087l-.449-12.35c-.0253-1.3235-.2931-6.6095-.2277-7.8573.822-4.0176,5.2754-5.7418,8.5424-7.2712a53.07,53.07,0,0,1,5.9343-2.0543l-.59.7773.002-2.6752.4822.7375c-5.137-2.6946-6.4487-8.8423-8.2892-13.8237a34.7624,34.7624,0,0,1-1.9488-11.9307l.0529-3.9757q.1477-7.947.5565-15.8878c.6638-7.9279.4795-16.1865,3.5057-23.7179a26.5767,26.5767,0,0,1,4.6134-6.6917,94.94,94.94,0,0,1,11.5223-11.066C40.72,12.7933,49.4429,6.6762,59.0072,2.0153,46.32,11.4815,32.2947,19.2276,21.9457,31.3873a25.0962,25.0962,0,0,0-4.3586,6.32c-2.8831,7.2691-2.7037,15.4365-3.34,23.1788q-.4081,7.9074-.5315,15.8333a71.5264,71.5264,0,0,0,.1021,7.8271A40.0437,40.0437,0,0,0,15.56,92.1158c1.6923,4.5288,2.9057,10.3461,7.422,12.8311a.8066.8066,0,0,1,.4826.7376l.002,2.6752a.8132.8132,0,0,1-.5906.7776,51.4875,51.4875,0,0,0-5.741,1.9968c-2.64,1.1716-5.5241,2.4411-7.1412,4.8338a3.92,3.92,0,0,0-.3782,2.5414c.17,5.5768.6018,16.0235.7732,21.6346-.0117,1.9223,1.2958,3.5,2.62,4.7569l2.1447,2.2146c2.8759,2.9368,5.8064,5.8209,8.8222,8.6037,5.957,5.516,12.2447,10.9581,20.3947,12.6923,11.9934,2.755,24.4581,2.6617,36.73,3.2134,24.7124.8226,49.4359.859,74.1618.8667l49.4633-.1429c6.1905.0346,12.215-.1312,18.2406-1.575,4.7941-.929,25.3387-4.9476,30.3742-5.9031,7.9457-1.7612,16.24-2.7992,23.8424-5.7067,11.6661-5.4318,13.5878-19.7329,16.3237-30.9875,2.5956-11.6724,5.9233-24.4877,8.959-35.9985Z" style="fill:#a6abb0"/><path d="M39.6046,168.2038c.5791,6.95.4835,8.49,3.0888,9.0736,4.5723,1.0236,8.2279,1.613,9.9777,1.8706a2.3234,2.3234,0,0,0,1.9326-.6094l3.2533-3.0774a2.3187,2.3187,0,0,1,1.6611-.6333l13.15.3836a1.5733,1.5733,0,0,0,1.4869-.9414l.8107-1.8513" style="fill:none;stroke:#a6abb0;stroke-linecap:round;stroke-linejoin:round;stroke-width:1.5px"/><path d="M142.0748,172.8545c-4.823,12.5516-15.1133,21.2207-27.0288,21.2207-12.1192,0-22.5572-8.968-27.2714-21.8678" style="fill:none;stroke:#a6abb0;stroke-linecap:round;stroke-linejoin:round;stroke-width:0.5px"/><path d="M110.3273,213.2677c-19.4461-.7847-34.5654-17.951-39.58-35.7488,6.2125,17.8728,19.9053,33.59,39.58,35.7488Z" style="fill:#a6abb0"/><path d="M137.1416,172.8373c-4.4944,10.3443-13.2478,17.3645-23.31,17.3645-10.2428,0-19.1295-7.2745-23.5479-17.9248" style="fill:none;stroke:#a6abb0;stroke-linecap:round;stroke-linejoin:round"/><path d="M215.1882,173.2554l.156,1.3524a2.4621,2.4621,0,0,0,2.2294,2.17l5.7639.5086a3.2952,3.2952,0,0,1,1.7646.7059l7.8058,6.2235a3.2882,3.2882,0,0,0,2.1553.7161c4.7106-.1461,22.1135-.7747,33.9165-2.3887a4.6884,4.6884,0,0,0,4-3.9356l2.6994-17.708" style="fill:none;stroke:#a6abb0;stroke-linecap:round;stroke-linejoin:round;stroke-width:1.5px"/><path d="M158.4581,173.7317c-5.7536,24.1937-23.6457,41.8343-44.8265,41.8343q-1.3817,0-2.7439-.0992L89.4148,213.91c-17.84-1.2932-32.9247-15.4572-39.4261-35.1911" style="fill:none;stroke:#a6abb0;stroke-linecap:round;stroke-linejoin:round;stroke-width:1.5px"/><path d="M23.034,108.5463s4.2472-1.8019,31.0175-8.1083,74.5193-14.6722,83.9146-16.2167,16.3454-4.6333,26.1268-5.92,79.0239-10.5537,79.0239-10.5537l5.8712-2.0111s31.4528-1.3352,35.9574-1.4639,6.95-.7722,9.6528-7.8509,9.1379-24.9685,9.1379-24.9685" style="fill:none;stroke:#a6abb0;stroke-linecap:round;stroke-linejoin:round"/><path d="M9.4849,134.97l.0761,2.3182,2.2758,2.0536,9.9051-1.6508a2.3249,2.3249,0,0,0,1.4641-.88l4.557-5.9552a2.323,2.323,0,0,1,1.4387-.8756c2.9743-.5293,13.1636-2.312,27.0378-4.4092,16.6027-2.51,38.74-4.8908,41.1207-5.0838s3.6037.3217,5.663,1.48,2.8958,1.9949,5.0194,3.0245,2.2636,1.33,6.5.9653c33.5916-2.8958,35.78-3.1532,45.0462-4.0542s14.6722-1.03,29.8592-4.3759,38.8684-8.6231,45.4323-10.6824,10.2963-6.049,10.2963-14.1573c0-7.4979-1.4758-21.0884-1.4758-23.53s-4.2317-6.9173-7.4056-8.87-6.7435-2.4268-14.4856-2.0345a621.7347,621.7347,0,0,0-62.9883,6.8359c-2.93.4883-3.6621-.8138-5.3711-2.1973s-2.8483-2.0345-6.6731-1.3834-60.009,11.3982-82.6009,17.985C34.3092,88.2,25.7643,93.2458,24.4622,94.06s-1.1393.9766-1.1393,2.6042v11.4746" style="fill:none;stroke:#a6abb0;stroke-linecap:round;stroke-linejoin:round;stroke-width:0.5px"/><line x1="157.9051" y1="65.1867" x2="157.9051" y2="79.3843" style="fill:none;stroke:#a6abb0;stroke-linecap:round;stroke-linejoin:round;stroke-width:0.5px"/><path d="M70.8263,80.2359a.6976.6976,0,0,1,.5358.6786v4.62a.9093.9093,0,0,1-.698.8844l-2.0924.5a1.9761,1.9761,0,0,1-.8882.007l-2.0693-.46A1.9773,1.9773,0,0,1,64.2074,85.27l-2.0023-5.0041L66.1464,79.12Z" style="fill:none;stroke:#a6abb0;stroke-linecap:round;stroke-linejoin:round;stroke-width:0.5px"/><ellipse cx="65.6726" cy="83.2987" rx="1.1059" ry="1.608" transform="translate(-20.4642 21.3954) rotate(-16.0444)" style="fill:none;stroke:#a6abb0;stroke-linecap:round;stroke-linejoin:round;stroke-width:0.5px"/><path d="M26.7565,107.3574V97.1849c0-1.0008.1064-1.301,3.0022-2.7021s20.1985-7.4684,33.6037-11.3246" style="fill:none;stroke:#a6abb0;stroke-linecap:round;stroke-linejoin:round;stroke-width:0.5px"/><path d="M71.3621,81.0131c16.0611-4.0781,44.3574-10.2176,83.1572-17.196" style="fill:none;stroke:#a6abb0;stroke-linecap:round;stroke-linejoin:round;stroke-width:0.5px"/><path d="M12.9625,80.0742c0,2.512.9184,6.5638,2.7543,6.5638s3.1211-6.0812,3.2129-15.6375,1.3291-25.7758,1.5277-30.8888c.2471-6.3624-1.0746-7.0773-2.6539-4.387" style="fill:none;stroke:#a6abb0;stroke-linecap:round;stroke-linejoin:round"/><path d="M13.2431,74.0948c.3988,5.5061,2.4781,6.4514,3.0079.2106.3679-3.3452.29-6.7191.3758-10.1041.16-4.8888.4838-10.2794.8166-15.1835.1246-1.6852.2613-3.3674.2837-5.0571.0874,6.7573-.4693,13.5025-.6011,20.2552-.2455,4.593.2,9.447-1.3775,13.8688-.1826.3948-.5442.9435-1.0649.7718a1.6741,1.6741,0,0,1-.8565-1.0066,10.2634,10.2634,0,0,1-.584-3.7551Z" style="fill:#a6abb0"/><path d="M158.3134,122.0269l-3.4871,2.0638V127.18c19.4342,22.0082,26.9425,28.873,36.08,35.0508s14.242,8.7025,25.6969,10.1211" style="fill:none;stroke:#a6abb0;stroke-linecap:round;stroke-linejoin:round;stroke-width:0.5px"/><path d="M11.8368,139.342v2.51a113.1192,113.1192,0,0,0,15.4979,17.4416" style="fill:none;stroke:#a6abb0;stroke-linecap:round;stroke-linejoin:round"/><path d="M62.4338,171.1983c-11.4712-.517-36.44-24.07-36.44-24.07s24.1962,15.4444,59.6,25.0153" style="fill:none;stroke:#a6abb0;stroke-linecap:round;stroke-linejoin:round;stroke-width:0.5px"/><path d="M172.0629,173.1159c-20.3919-1.236-38.37-17.094-51.9867-31.1352,11.0128,10.6629,22.8514,21.1325,37.1376,27.1067a46.1155,46.1155,0,0,0,14.87,3.529.25.25,0,0,1-.0208.5Z" style="fill:#a6abb0"/><path d="M264.2278,183.0353c2.9348,11.3511,6.7842,22.57,12.5181,32.8453a88.5533,88.5533,0,0,1-8.492-15.5891,86.1533,86.1533,0,0,1-5.494-16.9473.75.75,0,0,1,1.4679-.3089Z" style="fill:#a6abb0"/><path d="M14.797,140.6934c45.5975-7.0956,91.7036-10.4626,137.7126-13.643-45.2841,3.77-92.5393,7.5515-137.7126,13.643Z" style="fill:#a6abb0"/><path d="M158.9448,126.4073c5.3816-.4756,10.77-.67,16.107-1.385,15.9849-2.4033,31.6457-6.749,47.3-10.7214,9.6707-2.9948,22.58-4.6062,27.3349-14.806,2.1249-4.9985,1.1269-10.6224.9913-15.9017q-.5144-8.07-1.2548-16.132c.6907,5.3516,1.2622,10.7207,1.6368,16.107.2144,5.3516,1.1967,11.001-.966,16.1012-4.8325,10.3978-17.7923,12.04-27.6214,15.08-10.4284,2.79-20.9135,5.351-31.4374,7.7515a126.2859,126.2859,0,0,1-32.0905,3.906Z" style="fill:#a6abb0"/><path d="M247.4927,63.0853c-3.1612-3.89-5.7966-8.3266-10.79-10.0678-9.52-3.498-19.9456-2.0871-29.8352-1.3066C151.8246,57.5862,96.8518,67.0981,43.9189,83.5187c-4.96,1.7473-26.2945,8.3844-25.7759,13.6728C16.7981,91.54,39.1852,84.7587,43.7811,83.0988c52.965-16.4486,107.9612-25.98,163.04-31.8759,9.9549-.7915,20.4657-2.2047,30.0689,1.3324a16.2314,16.2314,0,0,1,6.2515,4.321,60.84,60.84,0,0,1,4.3508,6.209Z" style="fill:#a6abb0"/><path d="M129.6122,15.8511c.247,6.3352.0976,12.6231-.2379,18.9852a12.098,12.098,0,0,1-1.5676,4.5429c-4.5072,6.8555-13.298,8.7365-20.7455,10.6175-8.9557,2.1558-18.7815,4.3878-27.5952,6.85a335.6932,335.6932,0,0,0-35.73,12.57c-5.1,2.092-10.1864,4.3145-15.1044,6.8112-2.5357,1.5115-4.8784,1.8623-5.7958-1.624-1.1055-4.664-.5728-9.5114-.1764-14.222.12,3.0027-1.5,18.0446,3.6569,16.4111,5.6911-2.6358,11.3882-5.4972,17.25-7.7908a324.4048,324.4048,0,0,1,54.1617-17.27c9.916-2.8295,29.3143-4.4265,31.1545-16.9662a37.2478,37.2478,0,0,0,.2043-4.7027c.1622-3.1118.3974-11.0269.5257-14.2126Z" style="fill:#a6abb0"/><path d="M139.2953,5.1955S94.8505,14.95,59.8432,31.5529C36.5226,42.6131,26.39,49.6716,22.2239,53.1517l-2.8789,6.29" style="fill:none;stroke:#a6abb0;stroke-miterlimit:10"/><path d="M139.4969.8609c.7083,7.683.1558,18.8415.17,26.6541.0241,4.2846.534,8.8525,2.8409,12.52,5.1874,7.8037,16.9678,4.1811,22.4216-1.6023a26.536,26.536,0,0,0,7.451-17.6471c.06-6.4549.057-13.5828.5928-19.9926.4753,6.41.3362,13.5405.3367,19.9926a27.5144,27.5144,0,0,1-7.61,18.3993c-5.8673,6.3725-18.59,10.0069-24.1416,1.4665-4.47-6.9313-2.5552-18.6622-2.76-26.47a116.9008,116.9008,0,0,1,.6984-13.32Z" style="fill:#a6abb0"/><path d="M140.5014,31.3688c2.1944,4.8072,6.5955,6.6612,11.6309,5.4454,8.2544-1.703,13.8323-9.99,14.6217-18.0574.2454-5.9706-.0214-11.9807.4235-17.9522.2925,6.0081.1843,11.983.0888,17.993a22.1769,22.1769,0,0,1-8.4246,15.56c-5.5013,4.3545-16.1672,5.3406-18.34-2.9888Z" style="fill:#a6abb0"/><path d="M20.1228,38.9261c9.0477-8.5872,19.605-15.2378,30.4064-21.3338A169.8806,169.8806,0,0,1,84.5244,2.7847,239.0149,239.0149,0,0,0,35.356,28.2915,122.7153,122.7153,0,0,0,20.8382,39.6249l-.7154-.6988Z" style="fill:#a6abb0"/><path d="M241.4437,11.1534c0,21.8153,2.8958,32.4333,21.4291,33.5916s34.8582,3.2509,34.8582,3.2509" style="fill:none;stroke:#a6abb0;stroke-linecap:round;stroke-linejoin:round;stroke-width:0.5px"/><path d="M249.5317,14.3805c.7451,9.3855-.0748,21.5385,11.75,23.6526,9.665,1.3228,19.5806,1.4191,29.2274,3.1694-7.3389-.5917-14.647-1.3976-21.9915-1.8765-4.8249-.2941-10.2451-.4188-14.0646-3.8821-5.2741-4.909-5.2677-14.3436-4.9217-21.0634Z" style="fill:#a6abb0"/><line x1="26.9322" y1="96.2351" x2="23.3166" y2="95.0308" style="fill:none;stroke:#a6abb0;stroke-linecap:round;stroke-linejoin:round;stroke-width:0.5px"/><path d="M27.4079,116.2939c.4557,1.0644.6722,3.8738-.8149,4.1984-.55-.0446-.7549-.5058-.9239-.91a4.9037,4.9037,0,0,1,.1088-3.2879A6.731,6.731,0,0,0,26.11,119.41c.9872,2.1485,1.55-2.4111,1.2976-3.1161Z" style="fill:#a6abb0"/><path d="M94.5657,103.5853c.8468,1.5183.7478,3.923-.9711,4.8726a1.86,1.86,0,0,1-2.372-1.1694,3.9644,3.9644,0,0,1-.2216-2.6159,4.7949,4.7949,0,0,0,.5627,2.4383c1.1163,1.9228,2.7683.7194,3.0964-1.0165a4.9264,4.9264,0,0,0-.0944-2.5091Z" style="fill:#a6abb0"/><path d="M182.184,93.9927c2.7541,3.5214-2.4275,7.34-5.42,4.3611a3.1592,3.1592,0,0,1-.8358-3.18,3.273,3.273,0,0,0,1.0987,2.8991c2.77,2.4277,7.154-.74,5.1568-4.08Z" style="fill:#a6abb0"/><path d="M293.4658,108.95c.7132,1.6393.789,3.9122-.7239,5.2037-1.0031.6922-2.0625-.3854-2.2979-1.3137a5.0922,5.0922,0,0,1-.1242-2.7086,6.6357,6.6357,0,0,0,.4825,2.569c.2806.65.923,1.5257,1.667,1.0345,1.2537-1.0627,1.3236-3.2213.9965-4.7849Z" style="fill:#a6abb0"/><path d="M170.6919,63.2991V73.5479a1.5927,1.5927,0,0,0,1.8563,1.5706c6.0215-1.0041,26.3882-4.0936,56.6315-5.5065" style="fill:none;stroke:#a6abb0;stroke-linecap:round;stroke-linejoin:round;stroke-width:0.5px"/><line x1="157.9051" y1="79.3843" x2="171.2558" y2="74.7636" style="fill:none;stroke:#a6abb0;stroke-linecap:round;stroke-linejoin:round;stroke-width:0.5px"/><path d="M217.0531,159.1068c.221.1967.117.4165-.2316.4915l-2.1889.4714a1.3544,1.3544,0,0,1-1.04-.217c-.2278-.1958-.1294-.4162.2206-.4917l2.2025-.4751A1.3282,1.3282,0,0,1,217.0531,159.1068Z" style="fill:#a6abb0"/><path d="M216.4044,160.8229c.2195.1911.1177.4055-.2264.4794l-2.161.4639a1.3554,1.3554,0,0,1-1.0289-.2092c-.226-.19-.13-.4052.2157-.48l2.1743-.4676A1.3293,1.3293,0,0,1,216.4044,160.8229Z" style="fill:#a6abb0"/><path d="M219.8747,161.6174c.2109.1877.1049.3986-.236.4716l-2.141.4583a1.3154,1.3154,0,0,1-1.0077-.2047c-.2174-.1869-.1168-.3983.2255-.4717l2.1541-.4619A1.2905,1.2905,0,0,1,219.8747,161.6174Z" style="fill:#a6abb0"/><path d="M219.2062,163.2635c.21.1826.1059.3883-.2308.46l-2.1143.4513a1.3172,1.3172,0,0,1-.9972-.1975c-.2158-.1816-.1174-.3879.2206-.46l2.1271-.4548A1.2922,1.2922,0,0,1,219.2062,163.2635Z" style="fill:#a6abb0"/><path d="M222.5688,164.0146c.2015.1793.0938.3818-.24.4528l-2.0952.446a1.2788,1.2788,0,0,1-.977-.1933c-.2077-.1785-.1052-.3815.23-.4529l2.1077-.4493A1.2538,1.2538,0,0,1,222.5688,164.0146Z" style="fill:#a6abb0"/><path d="M215.8121,162.4878c.2178.1858.1182.395-.2215.4677l-2.1339.4568a1.3567,1.3567,0,0,1-1.0179-.2018c-.2242-.185-.13-.3947.2111-.4678l2.1469-.46A1.3309,1.3309,0,0,1,215.8121,162.4878Z" style="fill:#a6abb0"/><path d="M218.5934,164.8614c.2081.1776.1066.3784-.2259.4492l-2.0884.4445a1.3186,1.3186,0,0,1-.9868-.19c-.2142-.1768-.1179-.3781.216-.4493l2.1008-.4479A1.2936,1.2936,0,0,1,218.5934,164.8614Z" style="fill:#a6abb0"/><path d="M221.883,165.5952c.2.1745.0949.3722-.2346.4422l-2.07.4393a1.2806,1.2806,0,0,1-.9672-.1866c-.2063-.1736-.1059-.3718.2249-.4421l2.0819-.4426A1.2567,1.2567,0,0,1,221.883,165.5952Z" style="fill:#a6abb0"/><path d="M220.5869,159.9241c.2123.1931.1039.4093-.2414.4834l-2.1685.4656a1.313,1.313,0,0,1-1.0183-.2123c-.2189-.1922-.116-.4089.2307-.4835l2.182-.4692A1.2873,1.2873,0,0,1,220.5869,159.9241Z" style="fill:#a6abb0"/><path d="M223.2978,162.39c.2028.1844.0927.3918-.2451.4639l-2.1215.4528a1.2755,1.2755,0,0,1-.987-.2c-.2091-.1835-.1042-.3915.235-.464l2.1343-.4563A1.2512,1.2512,0,0,1,223.2978,162.39Z" style="fill:#a6abb0"/><path d="M225.8875,164.7446c.1938.1762.0823.3755-.2483.4457l-2.0765.4408a1.2415,1.2415,0,0,1-.9575-.1893c-.2-.1754-.0932-.3752.2387-.4458l2.0888-.444A1.2174,1.2174,0,0,1,225.8875,164.7446Z" style="fill:#a6abb0"/><path d="M225.1438,166.3058c.1928.1715.0837.3662-.2429.4353l-2.0514.4343a1.2442,1.2442,0,0,1-.9481-.1827c-.1986-.1707-.0944-.3658.2335-.4353l2.0633-.4374A1.2205,1.2205,0,0,1,225.1438,166.3058Z" style="fill:#a6abb0"/><path d="M217.7914,158.9477a1.3116,1.3116,0,0,0,1.0293.22l2.1965-.473c.35-.0753.4607-.297.2469-.4956a1.2863,1.2863,0,0,0-1.0265-.2241l-2.21.4768C217.6761,158.5277,217.5708,158.75,217.7914,158.9477Z" style="fill:#a6abb0"/><path d="M221.2913,159.7728a1.2721,1.2721,0,0,0,1.0077.2153l2.1759-.4672c.3465-.0744.4616-.2923.2563-.4873a1.2469,1.2469,0,0,0-1.0048-.2191l-2.19.4708C221.189,159.36,221.0794,159.5787,221.2913,159.7728Z" style="fill:#a6abb0"/><path d="M220.5968,161.4627a1.2741,1.2741,0,0,0,.9973.2077l2.1483-.46c.3421-.0732.4546-.2858.2506-.4754a1.2491,1.2491,0,0,0-.9945-.2114l-2.1615.4635C220.4935,161.0609,220.3863,161.274,220.5968,161.4627Z" style="fill:#a6abb0"/><path d="M223.9869,162.2423a1.2361,1.2361,0,0,0,.9768.2032l2.1286-.4543c.339-.0724.4554-.2815.26-.4677a1.2122,1.2122,0,0,0-.9741-.2068l-2.1415.4578C223.8959,161.8473,223.7846,162.057,223.9869,162.2423Z" style="fill:#a6abb0"/><path d="M223.2753,163.8641a1.2391,1.2391,0,0,0,.9671.1961l2.1022-.4475c.3348-.0712.4487-.2754.2538-.4565a1.2151,1.2151,0,0,0-.9644-.2l-2.1148.4508C223.1831,163.4792,223.0743,163.6838,223.2753,163.8641Z" style="fill:#a6abb0"/><path d="M224.6755,160.5889a1.2344,1.2344,0,0,0,.9869.2106l2.1556-.4615c.3433-.0735.4623-.2878.2652-.4792a1.21,1.21,0,0,0-.984-.2143l-2.1689.465C224.5857,160.1834,224.4719,160.3983,224.6755,160.5889Z" style="fill:#a6abb0"/><path d="M227.2662,163.014a1.2,1.2,0,0,0,.9572.1988l2.1091-.4489c.3358-.0715.456-.2772.2677-.46a1.1766,1.1766,0,0,0-.9543-.2023l-2.1219.4523C227.1868,162.6257,227.0717,162.832,227.2662,163.014Z" style="fill:#a6abb0"/><path d="M226.5619,164.6014a1.2027,1.2027,0,0,0,.9477.1919l2.0833-.4422c.3317-.07.4493-.2713.262-.4492a1.18,1.18,0,0,0-.945-.1954l-2.0957.4455C226.4812,164.2228,226.3685,164.4242,226.5619,164.6014Z" style="fill:#a6abb0"/><path d="M225.8355,166.1593a1.206,1.206,0,0,0,.9386.1853l2.058-.4356c.3277-.0694.4428-.2656.2564-.4388a1.1825,1.1825,0,0,0-.936-.1885l-2.07.4388C225.7535,165.79,225.6433,165.9869,225.8355,166.1593Z" style="fill:#a6abb0"/><line x1="22.2239" y1="53.1517" x2="19.8387" y2="50.7955" style="fill:none;stroke:#a6abb0;stroke-miterlimit:10"/><path d="M618.1476,69.5876c-5.6517-.1368-8.2678,5.2785-9.7409,9.9849-1.3085,4.2365-2.9145,10.7571-4.0467,15.1453-2.7857,11.1536-6.61,27.1392-9.3167,38.2493-4.73,17.501-14.6025,18.7-30.44,20.936-2.58.4236-5.1378.9451-7.6774,1.4869-2.4839.6322-5.1763.8935-7.3522,2.3243a7.6627,7.6627,0,0,1,3.2548-2.3251c3.66-1.5953,7.6293-2.2449,11.5094-2.99,10.3118-1.8611,21.1054-2.0373,26.471-12.6624,2.4357-4.5748,3.3537-9.8016,4.6351-14.8008,2.5733-10.1594,4.8-20.4172,7.3046-30.6172,1.2674-5.101,2.4965-10.1951,4.1542-15.2406,1.4675-4.8632,5.1544-11.3739,11.2443-9.49Z" style="fill:#a6abb0"/><path d="M468.4206,170.9358c-3.2506,14.37-11.5412,24.5843-21.2554,24.5843-10.1025,0-19.4069-10.8119-21.6208-26.3266" style="fill:none;stroke:#a6abb0;stroke-linecap:round;stroke-linejoin:round;stroke-width:0.5px"/><path d="M464.2718,170.8118c-2.9775,11.9093-9.9688,20.27-18.1188,20.27-8.4405,0-15.6383-8.9671-18.4218-21.5567" style="fill:none;stroke:#a6abb0;stroke-linecap:round;stroke-linejoin:round"/><path d="M477.3071,170.358c-3.2635,24.2-17.1385,42.38-33.76,42.38q-1.0188,0-2.0234-.09L425.69,211.2318c-17.1374-1.5329-30.8266-22.9421-31.5675-49.54" style="fill:none;stroke:#a6abb0;stroke-linecap:round;stroke-linejoin:round;stroke-width:1.5px"/><path d="M389.0172,158.9068c-2.3162-.8924.1023-1.4938,6.2565-2.029s22.2087-2.23,40.047-4.2812,73.4045-6.6,84.5535-7.8488,19.2653-2.4082,28.4521-1.7839,10.7029,1.5163,15.2517,3.4785,10.7058,4.7433,10.7058,4.7433" style="fill:none;stroke:#a6abb0;stroke-linecap:round;stroke-linejoin:round;stroke-width:0.5px"/><path d="M350.2049,135.1637a5.9784,5.9784,0,0,0,3.5921,3.78c-1.8447-7.6421-1.7568-9.3111.3513-10.453a33.342,33.342,0,0,1,7.2029-2.46c1.5811-.3514,2.2839.3513,3.1623,2.2838s2.1081,5.1826,3.1622,7.2907a5.906,5.906,0,0,0,6.2982,3.4421L445.3263,127.7c-1.6982-1.9032-2.1081-4.4212-1.2883-8.3448a49.1652,49.1652,0,0,1,2.2253-8.0813c.82-2.1667,2.4595-3.8064,5.7974-4.3334s18.7393-2.46,22.5457-2.928,6.7344.82,7.847,3.9235,2.3424,6.2074,5.6218,8.1984c13.4688-2.1081,14.6985-2.928,13.176-8.7254s-2.5764-9.4874-3.7918-12.9564c-1.3364-3.8145-4.4652-4.963-11.7266-4.2017s-37.3028,5.3875-43.92,6.5-8.4326,3.0451-10.3065,8.6668-2.2253,6.6759-3.0452,8.96-1.9324,4.2164-5.7388,4.9776-39.3524,7.4372-42.0462,7.9642-3.5721-.2342-4.7433-2.7523-2.5767-5.329-3.7479-7.6128-2.05-3.2794-5.0361-2.401a139.3893,139.3893,0,0,0-14.8157,5.5047c-3.1623,1.5811-4.4671,2.4136-4.0812,5.2233" style="fill:none;stroke:#a6abb0;stroke-linecap:round;stroke-linejoin:round;stroke-width:0.5px"/><path d="M423.0231,119.2887l-.8292,1.7756s2.3258,8.0324,4.7952,9.552c0,0,25.9389,14.0967,28.0155,15.0935s2.1778,1.2866-.4984,1.5623c-10.6323,1.0958-33.4753,3.6708-34.97,3.7538a17.038,17.038,0,0,1-5.8977-.8306c-3.24-.8307-13.2073-3.4057-18.5235-4.9839a12.8339,12.8339,0,0,1-7.7446-5.9185l-3.9709-1.7442c-3.07-1.4745-5.0637-8.2541-5.0637-8.2541l1.4713-1.845" style="fill:none;stroke:#a6abb0;stroke-linecap:round;stroke-linejoin:round;stroke-width:0.5px"/><path d="M363.3007,116.9692c3.9095-1.3369,4.75-.2926,6.2515,3.1689,1.1928,2.3667,2.4,5.0242,3.8066,7.2443a3.979,3.979,0,0,0,4.55,1.7734l21.5034-4.0667c4.04-.962,23.3-3.8674,26.7188-5.4437,3.5392-1.5521,4.2469-5.58,5.3038-8.9185.5541-1.7422,1.1606-3.4673,1.7741-5.1852.6839-1.7081.9544-3.6813,2.3646-4.9813a10.128,10.128,0,0,1,4.9721-2.42c12.3053-1.979,30.9989-4.4757,43.35-6.2874,2.6588-.4019,6.0658.0656,7.4066,2.7627,1.75,4.24,2.3553,8.86,3.01,13.3722.7359,4.4776-5.2633,4.59-8.3237,5.077,2.9776-.5794,8.8283-.7624,8.0927-5.05-.6875-4.4473-1.3637-9.06-3.1158-13.213-1.33-2.5223-4.4238-2.8725-7.018-2.5136-12.324,1.8134-31.0378,4.3294-43.3019,6.3034a9.6826,9.6826,0,0,0-4.7443,2.2992c-1.3487,1.2548-1.5851,3.1754-2.2506,4.8075-.6126,1.7183-1.2155,3.4362-1.7663,5.1714-1.0427,3.3931-1.89,7.6237-5.5446,9.2042-3.47,1.6219-22.811,4.5282-26.8388,5.4993-7.1761,1.338-14.3317,2.7256-21.5312,3.987a5.9017,5.9017,0,0,1-2.7989-.1386,4.2562,4.2562,0,0,1-2.0971-1.8538c-.9478-1.583-1.7646-3.2089-2.5692-4.8516l-1.1674-2.4781c-1.4465-3.5218-2.1276-4.4408-6.0359-3.2692Z" style="fill:#a6abb0"/><path d="M452.6788,130.8411c-2.661-1.4825-6.2016-2.81-6.859-6.184a14.1472,14.1472,0,0,1,.1957-4.7664,27.63,27.63,0,0,1,2.7794-9.0606c.7351-1.5647,2.5684-2.1146,4.14-2.3378l9.3556-1.2631c3.1168-.4246,6.2344-.8392,9.3661-1.1829,2.3767-.1395,4.7993-.74,7.15-.0912,2.47.964,2.5358,4.0274,3.4271,6.1385a15.7471,15.7471,0,0,0,5.2236,7.5384c1.2195.9733,2.49,1.91,3.6522,2.9816-5.3365-2.9862-8.535-6.6274-10.0735-12.6063-.4323-1.3962-.9154-3.0523-2.4082-3.5639-2.2061-.5787-4.6493.0089-6.91.1557-3.118.3647-6.2344.7885-9.3519,1.1947l-9.3471,1.2342c-1.5092.2323-3.1057.6565-3.7616,2.0577a27.14,27.14,0,0,0-2.7467,8.8817,14.1566,14.1566,0,0,0-.2737,4.6043c.5842,3.2317,3.9614,4.624,6.4417,6.2694Z" style="fill:#a6abb0"/><path d="M364.5135,128.3149c-1.35-1.7462-4.13-.0549-5.8085.4362l-2.9738,1.2164a5.4463,5.4463,0,0,0-1.3636.6279,1.5414,1.5414,0,0,0-.3173,1.2668c.2088,5.395,2.2713,7.148,6.3642,10.2142-4.4325-2.106-6.7557-5.2081-6.9455-10.19a2.0526,2.0526,0,0,1,.5234-1.7162,5.557,5.557,0,0,1,1.5373-.7166l2.9872-1.1886c1.6841-.5378,4.95-2.19,5.9966.0494Z" style="fill:#a6abb0"/><path d="M416.8326,95.2379a.6083.6083,0,0,1,.5219.1387.6539.6539,0,0,1,.2539.4921l-.1183,18.63a1.8339,1.8339,0,0,1-1.5139,1.8494l-30.6231,6.1573a.6947.6947,0,0,1-.5581-.1531.6346.6346,0,0,1-.2536-.5l.6214-16.9183a1.8833,1.8833,0,0,1,1.4624-1.8Z" style="fill:none;stroke:#a6abb0;stroke-linecap:round;stroke-linejoin:round;stroke-width:0.5px"/><path d="M352.1,106.066a116.4858,116.4858,0,0,1,17.12-8.858c17.6671-7.5913,36.1567-13.1527,54.8254-17.6581A594.661,594.661,0,0,1,490.173,67.5018c10.0381-1.2155,19.3177,2.214,27.3382,7.9853,5.3032,3.5956,10.4684,7.3532,16.1177,10.2769,9.8507,5.1,24.9744,10.4124,35.3641,14.7192,2.9744,1.17,5.9518,2.3342,8.945,3.4356,1.4962.5426,2.9989,1.0956,4.505,1.5265,1.4949.4112,3.094.8324,4.318.2364,2.4953-1.5361,3.326-5.2,4.3691-7.8706,2.934-8.8351,6.0848-18.5733,9.5212-27.1958,2.3656-6.0524,6.3558-13.0706,14.0308-10.0248-7.7-2.0483-10.69,4.4387-13.1063,10.409-3.3922,8.5334-6.537,18.3616-9.4686,27.1421-1.3131,3.4828-2.6951,9.48-7.5235,8.8365-5.5626-1.074-10.6911-3.5842-15.98-5.5064-10.55-4.358-25.47-9.5617-35.4887-14.7311-5.7334-2.961-10.9534-6.7517-16.2345-10.3236-5.2252-3.5763-10.9283-6.6574-17.1761-7.5762-6.2393-.9808-12.6048.1525-18.9191,1.0057-6.3216.9162-12.6272,1.9674-18.9194,3.086-25.128,4.5691-50.1764,10.0748-74.3519,18.3882-11.9557,4.2259-24.09,8.7961-34.8311,15.5572a.5036.5036,0,0,1-.727-.1213.4983.4983,0,0,1,.1434-.6906Z" style="fill:#a6abb0"/><path d="M514.9835,102.8413c11.82,3.7375,24.5408,8.1213,36.0115,12.7053,5.764,2.5071,12.4749,4.3992,16.1738,9.9134,4.04,5.6666,1.1209,13.19-4.0492,16.9971,4.88-3.882,7.5931-11.29,3.5931-16.6892-3.72-5.2751-10.2974-7.12-15.9929-9.5354-10.2638-4.1528-25.2091-9.5033-35.7363-13.3912Z" style="fill:#a6abb0"/><path d="M499.1649,131.8764c.2515.2275.1759.4862-.1664.5781l-2.1094.5658a1.2669,1.2669,0,0,1-1.0463-.2384c-.2509-.2207-.19-.4735.1383-.5644l2.1059-.5832A1.278,1.278,0,0,1,499.1649,131.8764Z" style="fill:#a6abb0"/><path d="M498.75,133.8722c.2455.2183.1734.4633-.1588.5474l-2.0476.5183a1.2646,1.2646,0,0,1-1.0185-.2361c-.2448-.212-.1866-.4516.1323-.5349l2.0443-.5344A1.2752,1.2752,0,0,1,498.75,133.8722Z" style="fill:#a6abb0"/><path d="M502.383,134.7873c.2412.2182.156.4615-.188.5436l-2.12.506a1.29,1.29,0,0,1-1.0316-.2393c-.2407-.2118-.17-.45.16-.5312l2.1175-.5222A1.3014,1.3014,0,0,1,502.383,134.7873Z" style="fill:#a6abb0"/><path d="M501.892,136.6667c.2357.21.1544.44-.1794.5152l-2.0583.4628a1.2867,1.2867,0,0,1-1.0045-.2367c-.2352-.2037-.1676-.4295.1531-.504l2.0556-.4779A1.2986,1.2986,0,0,1,501.892,136.6667Z" style="fill:#a6abb0"/><path d="M505.47,137.58c.2315.2094.1375.4382-.2077.5113l-2.1287.4506a1.3125,1.3125,0,0,1-1.0172-.24c-.2313-.2035-.1516-.4276.18-.5l2.1266-.4656A1.3242,1.3242,0,0,1,505.47,137.58Z" style="fill:#a6abb0"/><path d="M498.3942,135.755c.24.21.1707.4422-.152.5193l-1.9907.4751a1.2626,1.2626,0,0,1-.9924-.2337c-.2391-.204-.1831-.4315.127-.5079l1.9874-.49A1.2729,1.2729,0,0,1,498.3942,135.755Z" style="fill:#a6abb0"/><path d="M501.4646,138.442c.23.2017.1525.4206-.1718.4892l-2.001.4236a1.2847,1.2847,0,0,1-.9791-.2343c-.23-.1961-.1652-.4107.1468-.479l1.9984-.4375A1.2957,1.2957,0,0,1,501.4646,138.442Z" style="fill:#a6abb0"/><path d="M504.91,139.35c.2264.2013.1366.4184-.1983.4851l-2.0666.4113a1.3091,1.3091,0,0,1-.9908-.2372c-.2262-.1959-.15-.4087.1722-.4751l2.0645-.4252A1.3206,1.3206,0,0,1,504.91,139.35Z" style="fill:#a6abb0"/><path d="M502.929,132.7971c.247.2275.1574.4846-.1976.5745l-2.187.5535a1.2933,1.2933,0,0,1-1.06-.2418c-.2466-.2206-.1724-.4718.1681-.5608l2.1842-.571A1.3054,1.3054,0,0,1,502.929,132.7971Z" style="fill:#a6abb0"/><path d="M506.0887,135.7072c.2368.2181.138.46-.2182.54l-2.1954.4937a1.3159,1.3159,0,0,1-1.0453-.2426c-.2366-.2117-.1531-.448.189-.5275l2.1933-.51A1.3283,1.3283,0,0,1,506.0887,135.7072Z" style="fill:#a6abb0"/><path d="M509.1189,138.498c.2272.2093.12.4363-.237.5074l-2.2014.4381a1.3379,1.3379,0,0,1-1.03-.2431c-.2273-.2034-.1352-.4257.208-.4964l2.2-.4532A1.35,1.35,0,0,1,509.1189,138.498Z" style="fill:#a6abb0"/><path d="M508.434,140.2607c.2223.2012.12.4164-.2258.4811l-2.1347.399a1.3343,1.3343,0,0,1-1.0031-.24c-.2224-.1957-.1345-.4068.1985-.4712l2.1332-.413A1.3465,1.3465,0,0,1,508.434,140.2607Z" style="fill:#a6abb0"/><path d="M499.8964,131.677a1.2962,1.2962,0,0,0,1.09.2441l2.2561-.6051c.3664-.0983.46-.37.2073-.6077a1.3087,1.3087,0,0,0-1.1246-.2479l-2.2532.624C499.7214,131.1816,499.6437,131.447,499.8964,131.677Z" style="fill:#a6abb0"/><path d="M503.66,132.6092a1.3236,1.3236,0,0,0,1.1053.2477l2.3391-.592c.38-.0962.489-.3664.2409-.6037a1.337,1.337,0,0,0-1.1405-.2516l-2.3369.6109C503.5033,132.1157,503.4114,132.3793,503.66,132.6092Z" style="fill:#a6abb0"/><path d="M503.1179,134.609a1.3194,1.3194,0,0,0,1.0743.2452l2.2646-.54c.3676-.0877.4713-.3429.2289-.57a1.3323,1.3323,0,0,0-1.1074-.2491l-2.2625.5579C502.9632,134.1392,502.8757,134.3886,503.1179,134.609Z" style="fill:#a6abb0"/><path d="M506.8216,135.54a1.3465,1.3465,0,0,0,1.0887.2486l2.3448-.5272c.3806-.0856.4989-.339.2614-.5662a1.36,1.36,0,0,0-1.1227-.2527l-2.3434.5447C506.6852,135.0717,506.5839,135.3193,506.8216,135.54Z" style="fill:#a6abb0"/><path d="M506.2075,137.421a1.3425,1.3425,0,0,0,1.0586.2459l2.27-.4806c.3684-.078.4809-.3176.2486-.5355a1.3548,1.3548,0,0,0-1.0907-.25l-2.269.4967C506.0716,136.9751,505.9751,137.21,506.2075,137.421Z" style="fill:#a6abb0"/><path d="M507.4258,133.5639a1.3508,1.3508,0,0,0,1.12.2512l2.4223-.5781c.3935-.0939.5178-.3621.2748-.5992a1.3654,1.3654,0,0,0-1.1561-.2553l-2.421.597C507.2888,133.0725,507.1825,133.3342,507.4258,133.5639Z" style="fill:#a6abb0"/><path d="M510.5267,136.4912a1.3736,1.3736,0,0,0,1.1029.2521l2.4251-.5133c.3938-.0834.5267-.3347.2942-.5616a1.3878,1.3878,0,0,0-1.1377-.2564l-2.4246.5308C510.4088,136.0255,510.2936,136.2712,510.5267,136.4912Z" style="fill:#a6abb0"/><path d="M509.8535,138.3493a1.369,1.369,0,0,0,1.0724.2493l2.348-.4674c.381-.0758.5075-.3135.28-.5312a1.3823,1.3823,0,0,0-1.1054-.2535l-2.3473.4835C509.7353,137.9054,509.6254,138.138,509.8535,138.3493Z" style="fill:#a6abb0"/><path d="M509.1731,140.12a1.3639,1.3639,0,0,0,1.0433.2464l2.2739-.4251c.3689-.0689.4893-.294.2665-.503a1.3771,1.3771,0,0,0-1.0744-.25l-2.2732.44C509.0547,139.6965,508.95,139.917,509.1731,140.12Z" style="fill:#a6abb0"/><path d="M517.4138,122.7517c-9.3312-5.85-9.8746-11.5727-12.9957-21.2218l-1.862-6.1037c-1.2407-3.8669-2.061-8.5872-5.8755-10.7373-3.7659-1.9565-8.2914-1.34-12.3913-1.0137-6.3436.6469-12.6654,1.5-18.9748,2.4254-8.4122,1.2457-16.8026,2.6473-25.1505,4.266-3.134.5081-6.32,1.6365-9.5451,1.07a4.666,4.666,0,0,1-2.7208-1.8031,5.7384,5.7384,0,0,0-5.431-2.22c-1.8174.1957-4.3851.9657-6.2052,1.3418-8.2684,1.9749-16.5721,3.8481-24.6935,6.3713q-6.0948,1.8725-12.129,3.9384c-1.9836.7213-4.083,1.3157-5.6367,2.7027-1.6026,1.4117-2.1958,3.6384-3.7861,5.0875-3.2138,2.9469-7.5831,3.8782-11.5075,5.4707a61.1685,61.1685,0,0,0-8.7664,3.7789c-.8536.5563-1.9225,1.1976-1.9916,2.3116.2209-2.8081,8.2522-5.219,10.672-6.3175,3.8452-1.6092,8.2351-2.5971,11.3433-5.498,1.5742-1.4728,2.1287-3.69,3.7573-5.1384,1.6491-1.5009,3.7961-2.0862,5.772-2.8108,4.0248-1.39,8.0745-2.6966,12.143-3.9483,8.1314-2.53,16.4441-4.4088,24.72-6.3888,3.0214-.5245,6.4661-2.1653,9.5068-.9751,1.5875.5654,2.4564,2.067,3.6763,3.0669,1.3029.8769,2.9582.7787,4.48.6531,10.4416-1.8833,20.9026-3.953,31.4245-5.4271,6.3157-.9287,12.6438-1.7855,18.9958-2.4357,4.21-.3347,8.7571-.9645,12.6772,1.0682,3.9749,2.2311,4.8386,7.06,6.1071,11.0181l1.8639,6.1015c1.1379,3.4767,2.5773,8.7555,4.1225,12.0251,1.8317,3.8236,5.1887,6.5892,8.4018,9.3417Z" style="fill:#a6abb0"/><path d="M399.4128,93.8731a1.57,1.57,0,0,0-.9079-.0116l-3.551,1.0231a.3471.3471,0,0,0-.2244.4671l1.0009,2.4025a.7162.7162,0,0,0,.8188.4233l2.73-.6155a2.8652,2.8652,0,0,0,.65-.2318l4.0394-2.0179Z" style="fill:none;stroke:#a6abb0;stroke-linecap:round;stroke-linejoin:round;stroke-width:0.5px"/><ellipse cx="396.9706" cy="96.1154" rx="0.6165" ry="1.1051" transform="translate(-11.3765 104.8581) rotate(-14.8372)" style="fill:none;stroke:#a6abb0;stroke-linecap:round;stroke-linejoin:round;stroke-width:0.5px"/><path d="M383.077,94.0573c8.6744-3.0527,17.6237-5.197,26.501-7.5584,17.8-4.5568,35.7407-8.6093,53.8654-11.6564,4.532-.7495,9.0669-1.4856,13.6185-2.1221,6.8144-.86,13.7606-2.0355,20.6366-1.1129,4.6992.5862,8.3791,3.8127,12.238,6.2284,9.6333,6.0684,19.4971,12.349,30.0176,16.7251,17.1158,6.6118,34.3622,12.9788,51.48,19.6409-16.9528-6.2238-34.8057-12.6665-51.6514-19.2326C529.22,90.58,519.3485,84.2951,509.6936,78.2209c-3.8469-2.3962-7.4255-5.5747-12.07-6.1589-6.81-.9077-13.7211.2647-20.4963,1.1218-4.5445.6372-9.0762,1.3745-13.6054,2.1253-27.2067,4.465-53.8434,11.6243-80.4444,18.7482Z" style="fill:#a6abb0"/><path d="M497.6635,68.0149a107.4987,107.4987,0,0,1-1.9648-11.1744,305.1009,305.1009,0,0,1-3.3643-33.8676.25.25,0,0,1,.5-.015c.4953,11.3184,1.833,22.59,3.3828,33.8087.4371,3.2887,1.2874,7.9628,1.4465,11.2483Z" style="fill:#a6abb0"/><path d="M351.6389,67.7624c36.2125-24.2868,78.1953-38.7893,120.6981-47.4519-31.3788,8.4348-62.9806,17.0986-91.9822,32.0562a284.83,284.83,0,0,0-28.1611,16.2274.5.5,0,0,1-.5548-.8317Z" style="fill:#a6abb0"/><path d="M352.9345,54.217c24.0033-19.8337,63.0576-35.6255,93.3515-42.6944-4.0649,1.4323-8.16,2.7273-12.2574,4.0121-20.3715,6.5667-40.4872,14.5547-59.1213,25.1455-7.3836,4.2765-14.7626,8.8-21.3019,14.2784a.5.5,0,1,1-.6709-.7416Z" style="fill:#a6abb0"/><path d="M352.99,62.446c13.4124-10.6884,29.1234-18.0865,44.7253-24.99A361.5053,361.5053,0,0,1,446.19,20.6232c-4.063,1.3476-8.1614,2.5678-12.2351,3.8668-28.33,9.2888-56.4968,20.6576-80.9642,37.956Z" style="fill:#a6abb0"/><path d="M352.5087,70.6333c-.0387,3.2828-.5361,6.7747.24,9.9622a1.8361,1.8361,0,0,0,.5708.9251c1.0723.5769,2.2008-.465,3.2189-.9177a434.9941,434.9941,0,0,1,60.5484-25.0867c18.9855-6.5813,38.8358-11.2447,58.1829-16.5917,8.2669-2.5073,9.5941-7.2127,9.8188-15.2565.47,8.1833-1.377,13.1658-9.6769,15.6726-19.3611,5.3645-39.1853,10.0259-58.1762,16.62a434.5142,434.5142,0,0,0-60.4632,25.0819c-1.0987.5077-2.4589,1.6838-3.7471.8822-1.07-.9285-.9873-2.4743-1.0941-3.73a44.9267,44.9267,0,0,1,.5778-7.5611Z" style="fill:#a6abb0"/><path d="M616.5334,51.1576c-12.317-4.4111-15.42,4.8894-20.0449,13.962L592.29,73.5365q1.8239-4.3381,3.8534-8.5862c4.3938-9.2411,8.1678-18.91,20.39-13.7927Z" style="fill:#a6abb0"/><path d="M583.4312,76.9866c-4.8684-1.8181-14.5768-5.581-19.3946-7.5164a84.3372,84.3372,0,0,1-9.5277-4.2083c-9.292-5.0369-15.5175-13.8612-22.5406-21.431a48.0785,48.0785,0,0,1-6.2589-8.3158,19.8917,19.8917,0,0,1-2.5149-10,19.7674,19.7674,0,0,0,2.7255,9.8827,48.4079,48.4079,0,0,0,6.2944,8.2135c7.079,7.5169,13.3441,16.1525,22.4979,21.2864,6.18,3.36,22.068,9.221,28.7189,12.089Z" style="fill:#a6abb0"/><path d="M568.7222,167.6921c-10.78,1.3325-21.6005,1.2989-32.4076,1.7077-16.2223.4765-48.6549,1.4857-64.86,1.8914l-16.2155.4384c-4.9356.1241-11.4622.4806-16.296-.0122-7.8311-.646-16.3451-2.5794-24.0588-4.1269C401.55,165.0285,388.709,160.3188,376.3,154.89q-7.4478-3.2663-14.7217-6.8958c-4.8769-2.3514-10.352-5.4252-11.9931-11.03a66.1176,66.1176,0,0,1-3.0293-20.2238l-.0144-2.0358a9.9745,9.9745,0,0,1,5.04-9.1344l-.3962.8426a136.6072,136.6072,0,0,1-2.2886-29.0674c.0969-2.4417.2575-4.8818.5689-7.3112a3.1926,3.1926,0,0,1,.5422-1.4838,12.2372,12.2372,0,0,1,.8665-.9944l-.1371.8911c-.1861-.4659-.5814-1.1609-.7444-1.7073-.5591-1.4406.1621-4.123.2484-5.5835l.4326-3.5051a5.1843,5.1843,0,0,1,.975-2.8352l.5174-.7131L352.1357,55c-1.3541-1.9927-.1459-4.4081.3061-6.465l.7649-2.9409a9.035,9.035,0,0,1,3.5177-5.3183c2.3169-1.9856,4.7567-3.82,7.2307-5.5959a252.7922,252.7922,0,0,1,42.3287-23.6515c7.3986-3.2452,14.7844-6.6091,22.6887-8.5276C421.7777,6.2782,414.21,8.9968,406.89,12.37q-11.0137,4.9539-21.592,10.7934c-9.6243,5.4022-19.0838,11.2108-27.5443,18.3091a7.4775,7.4775,0,0,0-2.8253,3.8227c-.072.3285-.843,3.2121-.9415,3.6388-.1791.9407-1.0114,3.2466-.8744,4.1276-.0181.6843.8362,1.3337.3554,1.9836A4.8492,4.8492,0,0,0,352.38,57.03c-.0317.4185-.4876,3.7983-.5308,4.3212-.0494,1.0985-.7054,3.8857-.3036,4.8954.1077.63,1.1631,1.7084.5368,2.408-.3943.506-.9733.8667-.9935,1.5925a105.4623,105.4623,0,0,0-.5014,16.7687,144.8355,144.8355,0,0,0,2.1727,19.1087.8139.8139,0,0,1-.3963.8429,8.3032,8.3032,0,0,0-4.123,5.8429,62.2906,62.2906,0,0,0,.0109,7.9326,61.2438,61.2438,0,0,0,2.7845,15.7038,14.1378,14.1378,0,0,0,1.7078,3.4358c2.3142,3.2276,6.0162,4.9372,9.51,6.76,14.461,7.1557,29.3979,13.7354,45.05,17.7212,10.3013,2.29,21.2792,4.7543,31.7758,5.7719,4.7826.5171,11.3.0488,16.1227-.0384l16.2131-.4821c16.1067-.5208,48.7353-1.3594,64.8561-1.79,10.8122-.2048,21.6112-.852,32.45-.1331Z" style="fill:#a6abb0"/><path d="M450.8461,117.524c-1.3315.1186-1.9656-.9655-1.3949-3.0408s1.7753-2.54,3.931-2.871,20.48-2.7389,22.9524-2.909,3.2336.7912,3.9945,2.3965,1.5851,2.9151-1.3315,3.1638S450.8461,117.524,450.8461,117.524Z" style="fill:none;stroke:#a6abb0;stroke-linecap:round;stroke-linejoin:round;stroke-width:0.5px"/><path d="M356.352,131.4905a44.4383,44.4383,0,0,1,6.5733-2.2057c1.5754-.2614,1.955.2906,2.4656,1.54s1.0816,2.0116-.4507,2.535-6.5192,1.9825-7.4081,2.2509-1.6062-.53-1.768-2.0184S355.5534,131.8635,356.352,131.4905Z" style="fill:none;stroke:#a6abb0;stroke-linecap:round;stroke-linejoin:round;stroke-width:0.5px"/><path d="M451.8091,113.5646c-.8422.3068-.9653,1.6258-.18,1.9207a2.5073,2.5073,0,0,0,.8514-.0412l3.8324-.4434c1.2781-.12,2.5609-.2315,3.83-.3752,1.2338.1326,1.2756-2.2414-.1914-2.1969,1.7713-.4439,2.05,2.6519.253,2.6528-2.2152.326-5.4051.6568-7.6616.8813a2.6242,2.6242,0,0,1-1.06.0077c-1.2577-.3455-.8949-2.4761.3257-2.4058Z" style="fill:#a6abb0"/><path d="M361.0827,131.409c-.2737.3253-.0707,1.145.264,1.2437a14.3732,14.3732,0,0,0,1.6207-.435c.3937-.11,1.128-.309,1.51-.4338.1283-.3194-.0323-1.2513-.587-1.2812a.4636.4636,0,0,1,.5039-.0151c.51.2753.888,1.3429.2766,1.7351-.1411.06-.5187.193-.6675.2473-.4307.1584-1.31.4379-1.7535.5562a2.2685,2.2685,0,0,1-1.0345.1453c-.7928-.2262-.9328-1.6155-.1329-1.7625Z" style="fill:#a6abb0"/><path d="M395.6558,97.6449c-4.4066,1.34-9.3151,2.81-13.7656,4.1-1.4534.41-3.0972.7117-3.6089,2.3455a10.4826,10.4826,0,0,0-.25,2.2984l-.1416,2.39c-.2692,4.6306-.5757,9.7351-1.079,14.3249.0254-5.4365.3975-11.3032.6913-16.7448l.0657-1.1952a3.6572,3.6572,0,0,1,3.0161-3.6146c.7453-.2217,4.9006-1.46,5.7355-1.7084,3.056-.9215,6.13-1.7811,9.1944-2.6747a.25.25,0,0,1,.1417.48Z" style="fill:#a6abb0"/><path d="M403.909,95.0694l17.6128-4.2561c1.9566-.2989,4.1634-1.54,6.0817-.5571a2.2746,2.2746,0,0,1,.8106,1.4446,21.2238,21.2238,0,0,1,.1108,4.5828c-.236,5.8476-.53,12.2873-.9422,18.094.03-5.8114.2021-12.2708.4113-18.1126a22.7972,22.7972,0,0,0-.0945-4.4526,1.7738,1.7738,0,0,0-.601-1.1369c-1.6251-.7915-3.92.349-5.665.625l-5.8685,1.4183-11.737,2.8363a.25.25,0,0,1-.119-.4857Z" style="fill:#a6abb0"/><path d="M626.4973,102.1318c-15.9293,14.098-12.8156,48.0114-8.39,66.9686,1.9784,7.5557,4.5977,15.0373,8.81,21.6635-4.9661-6.176-7.6694-13.8633-9.722-21.4291-4.5907-18.108-8.16-55.21,9.3021-67.203Z" style="fill:#a6abb0"/><path d="M604.3282,90.2506c7.41-3.7819,15.9343-4.7033,24.1346-4.29-2.0363.2159-4.06.43-6.0656.7479a71.8851,71.8851,0,0,0-17.36,4.8635.75.75,0,0,1-.7093-1.3217Z" style="fill:#a6abb0"/><path d="M445.7433,211.1968c-14.2448-.6389-25.0393-12.876-29.1877-25.74a58.2682,58.2682,0,0,1-2.8949-13.3846,90.9859,90.9859,0,0,0,3.34,13.228c4.4444,13.1208,14.5442,24.0166,28.7426,25.8967Z" style="fill:#a6abb0"/></g><g id="b2c2532f-efa8-4431-abb6-4e58d85488ef" data-name="above"><ellipse cx="221.461" cy="162.3601" rx="6.9749" ry="12.1876" transform="translate(16.3696 344.9617) rotate(-77.9264)" style="fill:#f4ae3d"/><path d="M217.0531,159.1068c.221.1967.117.4165-.2316.4915l-2.1889.4714a1.3544,1.3544,0,0,1-1.04-.217c-.2278-.1958-.1294-.4162.2206-.4917l2.2025-.4751A1.3282,1.3282,0,0,1,217.0531,159.1068Z" style="fill:#30373e"/><path d="M216.4044,160.8229c.2195.1911.1177.4055-.2264.4794l-2.161.4639a1.3554,1.3554,0,0,1-1.0289-.2092c-.226-.19-.13-.4052.2157-.48l2.1743-.4676A1.3293,1.3293,0,0,1,216.4044,160.8229Z" style="fill:#30373e"/><path d="M219.8747,161.6174c.2109.1877.1049.3986-.236.4716l-2.141.4583a1.3154,1.3154,0,0,1-1.0077-.2047c-.2174-.1869-.1168-.3983.2255-.4717l2.1541-.4619A1.2905,1.2905,0,0,1,219.8747,161.6174Z" style="fill:#30373e"/><path d="M219.2062,163.2635c.21.1826.1059.3883-.2308.46l-2.1143.4513a1.3172,1.3172,0,0,1-.9972-.1975c-.2158-.1816-.1174-.3879.2206-.46l2.1271-.4548A1.2922,1.2922,0,0,1,219.2062,163.2635Z" style="fill:#30373e"/><path d="M222.5688,164.0146c.2015.1793.0938.3818-.24.4528l-2.0952.446a1.2788,1.2788,0,0,1-.977-.1933c-.2077-.1785-.1052-.3815.23-.4529l2.1077-.4493A1.2538,1.2538,0,0,1,222.5688,164.0146Z" style="fill:#30373e"/><path d="M215.8121,162.4878c.2178.1858.1182.395-.2215.4677l-2.1339.4568a1.3567,1.3567,0,0,1-1.0179-.2018c-.2242-.185-.13-.3947.2111-.4678l2.1469-.46A1.3309,1.3309,0,0,1,215.8121,162.4878Z" style="fill:#30373e"/><path d="M218.5934,164.8614c.2081.1776.1066.3784-.2259.4492l-2.0884.4445a1.3186,1.3186,0,0,1-.9868-.19c-.2142-.1768-.1179-.3781.216-.4493l2.1008-.4479A1.2936,1.2936,0,0,1,218.5934,164.8614Z" style="fill:#30373e"/><path d="M221.883,165.5952c.2.1745.0949.3722-.2346.4422l-2.07.4393a1.2806,1.2806,0,0,1-.9672-.1866c-.2063-.1736-.1059-.3718.2249-.4421l2.0819-.4426A1.2567,1.2567,0,0,1,221.883,165.5952Z" style="fill:#30373e"/><path d="M220.5869,159.9241c.2123.1931.1039.4093-.2414.4834l-2.1685.4656a1.313,1.313,0,0,1-1.0183-.2123c-.2189-.1922-.116-.4089.2307-.4835l2.182-.4692A1.2873,1.2873,0,0,1,220.5869,159.9241Z" style="fill:#30373e"/><path d="M223.2978,162.39c.2028.1844.0927.3918-.2451.4639l-2.1215.4528a1.2755,1.2755,0,0,1-.987-.2c-.2091-.1835-.1042-.3915.235-.464l2.1343-.4563A1.2512,1.2512,0,0,1,223.2978,162.39Z" style="fill:#30373e"/><path d="M225.8875,164.7446c.1938.1762.0823.3755-.2483.4457l-2.0765.4408a1.2415,1.2415,0,0,1-.9575-.1893c-.2-.1754-.0932-.3752.2387-.4458l2.0888-.444A1.2174,1.2174,0,0,1,225.8875,164.7446Z" style="fill:#30373e"/><path d="M225.1438,166.3058c.1928.1715.0837.3662-.2429.4353l-2.0514.4343a1.2442,1.2442,0,0,1-.9481-.1827c-.1986-.1707-.0944-.3658.2335-.4353l2.0633-.4374A1.2205,1.2205,0,0,1,225.1438,166.3058Z" style="fill:#30373e"/><path d="M217.7914,158.9477a1.3116,1.3116,0,0,0,1.0293.22l2.1965-.473c.35-.0753.4607-.297.2469-.4956a1.2863,1.2863,0,0,0-1.0265-.2241l-2.21.4768C217.6761,158.5277,217.5708,158.75,217.7914,158.9477Z" style="fill:#30373e"/><path d="M221.2913,159.7728a1.2721,1.2721,0,0,0,1.0077.2153l2.1759-.4672c.3465-.0744.4616-.2923.2563-.4873a1.2469,1.2469,0,0,0-1.0048-.2191l-2.19.4708C221.189,159.36,221.0794,159.5787,221.2913,159.7728Z" style="fill:#30373e"/><path d="M220.5968,161.4627a1.2741,1.2741,0,0,0,.9973.2077l2.1483-.46c.3421-.0732.4546-.2858.2506-.4754a1.2491,1.2491,0,0,0-.9945-.2114l-2.1615.4635C220.4935,161.0609,220.3863,161.274,220.5968,161.4627Z" style="fill:#30373e"/><path d="M223.9869,162.2423a1.2361,1.2361,0,0,0,.9768.2032l2.1286-.4543c.339-.0724.4554-.2815.26-.4677a1.2122,1.2122,0,0,0-.9741-.2068l-2.1415.4578C223.8959,161.8473,223.7846,162.057,223.9869,162.2423Z" style="fill:#30373e"/><path d="M223.2753,163.8641a1.2391,1.2391,0,0,0,.9671.1961l2.1022-.4475c.3348-.0712.4487-.2754.2538-.4565a1.2151,1.2151,0,0,0-.9644-.2l-2.1148.4508C223.1831,163.4792,223.0743,163.6838,223.2753,163.8641Z" style="fill:#30373e"/><path d="M224.6755,160.5889a1.2344,1.2344,0,0,0,.9869.2106l2.1556-.4615c.3433-.0735.4623-.2878.2652-.4792a1.21,1.21,0,0,0-.984-.2143l-2.1689.465C224.5857,160.1834,224.4719,160.3983,224.6755,160.5889Z" style="fill:#30373e"/><path d="M227.2662,163.014a1.2,1.2,0,0,0,.9572.1988l2.1091-.4489c.3358-.0715.456-.2772.2677-.46a1.1766,1.1766,0,0,0-.9543-.2023l-2.1219.4523C227.1868,162.6257,227.0717,162.832,227.2662,163.014Z" style="fill:#30373e"/><path d="M226.5619,164.6014a1.2027,1.2027,0,0,0,.9477.1919l2.0833-.4422c.3317-.07.4493-.2713.262-.4492a1.18,1.18,0,0,0-.945-.1954l-2.0957.4455C226.4812,164.2228,226.3685,164.4242,226.5619,164.6014Z" style="fill:#30373e"/><path d="M225.8355,166.1593a1.206,1.206,0,0,0,.9386.1853l2.058-.4356c.3277-.0694.4428-.2656.2564-.4388a1.1825,1.1825,0,0,0-.936-.1885l-2.07.4388C225.7535,165.79,225.6433,165.9869,225.8355,166.1593Z" style="fill:#30373e"/><ellipse cx="504.9078" cy="135.6462" rx="6.7705" ry="12.9041" transform="translate(294.9025 614.4254) rotate(-81.3542)" style="fill:#f4ae3d"/><path d="M499.1649,131.8764c.2515.2275.1759.4862-.1664.5781l-2.1094.5658a1.2669,1.2669,0,0,1-1.0463-.2384c-.2509-.2207-.19-.4735.1383-.5644l2.1059-.5832A1.278,1.278,0,0,1,499.1649,131.8764Z" style="fill:#30373e"/><path d="M498.75,133.8722c.2455.2183.1734.4633-.1588.5474l-2.0476.5183a1.2646,1.2646,0,0,1-1.0185-.2361c-.2448-.212-.1866-.4516.1323-.5349l2.0443-.5344A1.2752,1.2752,0,0,1,498.75,133.8722Z" style="fill:#30373e"/><path d="M502.383,134.7873c.2412.2182.156.4615-.188.5436l-2.12.506a1.29,1.29,0,0,1-1.0316-.2393c-.2407-.2118-.17-.45.16-.5312l2.1175-.5222A1.3014,1.3014,0,0,1,502.383,134.7873Z" style="fill:#30373e"/><path d="M501.892,136.6667c.2357.21.1544.44-.1794.5152l-2.0583.4628a1.2867,1.2867,0,0,1-1.0045-.2367c-.2352-.2037-.1676-.4295.1531-.504l2.0556-.4779A1.2986,1.2986,0,0,1,501.892,136.6667Z" style="fill:#30373e"/><path d="M505.47,137.58c.2315.2094.1375.4382-.2077.5113l-2.1287.4506a1.3125,1.3125,0,0,1-1.0172-.24c-.2313-.2035-.1516-.4276.18-.5l2.1266-.4656A1.3242,1.3242,0,0,1,505.47,137.58Z" style="fill:#30373e"/><path d="M498.3942,135.755c.24.21.1707.4422-.152.5193l-1.9907.4751a1.2626,1.2626,0,0,1-.9924-.2337c-.2391-.204-.1831-.4315.127-.5079l1.9874-.49A1.2729,1.2729,0,0,1,498.3942,135.755Z" style="fill:#30373e"/><path d="M501.4646,138.442c.23.2017.1525.4206-.1718.4892l-2.001.4236a1.2847,1.2847,0,0,1-.9791-.2343c-.23-.1961-.1652-.4107.1468-.479l1.9984-.4375A1.2957,1.2957,0,0,1,501.4646,138.442Z" style="fill:#30373e"/><path d="M504.91,139.35c.2264.2013.1366.4184-.1983.4851l-2.0666.4113a1.3091,1.3091,0,0,1-.9908-.2372c-.2262-.1959-.15-.4087.1722-.4751l2.0645-.4252A1.3206,1.3206,0,0,1,504.91,139.35Z" style="fill:#30373e"/><path d="M502.929,132.7971c.247.2275.1574.4846-.1976.5745l-2.187.5535a1.2933,1.2933,0,0,1-1.06-.2418c-.2466-.2206-.1724-.4718.1681-.5608l2.1842-.571A1.3054,1.3054,0,0,1,502.929,132.7971Z" style="fill:#30373e"/><path d="M506.0887,135.7072c.2368.2181.138.46-.2182.54l-2.1954.4937a1.3159,1.3159,0,0,1-1.0453-.2426c-.2366-.2117-.1531-.448.189-.5275l2.1933-.51A1.3283,1.3283,0,0,1,506.0887,135.7072Z" style="fill:#30373e"/><path d="M509.1189,138.498c.2272.2093.12.4363-.237.5074l-2.2014.4381a1.3379,1.3379,0,0,1-1.03-.2431c-.2273-.2034-.1352-.4257.208-.4964l2.2-.4532A1.35,1.35,0,0,1,509.1189,138.498Z" style="fill:#30373e"/><path d="M508.434,140.2607c.2223.2012.12.4164-.2258.4811l-2.1347.399a1.3343,1.3343,0,0,1-1.0031-.24c-.2224-.1957-.1345-.4068.1985-.4712l2.1332-.413A1.3465,1.3465,0,0,1,508.434,140.2607Z" style="fill:#30373e"/><path d="M499.8964,131.677a1.2962,1.2962,0,0,0,1.09.2441l2.2561-.6051c.3664-.0983.46-.37.2073-.6077a1.3087,1.3087,0,0,0-1.1246-.2479l-2.2532.624C499.7214,131.1816,499.6437,131.447,499.8964,131.677Z" style="fill:#30373e"/><path d="M503.66,132.6092a1.3236,1.3236,0,0,0,1.1053.2477l2.3391-.592c.38-.0962.489-.3664.2409-.6037a1.337,1.337,0,0,0-1.1405-.2516l-2.3369.6109C503.5033,132.1157,503.4114,132.3793,503.66,132.6092Z" style="fill:#30373e"/><path d="M503.1179,134.609a1.3194,1.3194,0,0,0,1.0743.2452l2.2646-.54c.3676-.0877.4713-.3429.2289-.57a1.3323,1.3323,0,0,0-1.1074-.2491l-2.2625.5579C502.9632,134.1392,502.8757,134.3886,503.1179,134.609Z" style="fill:#30373e"/><path d="M506.8216,135.54a1.3465,1.3465,0,0,0,1.0887.2486l2.3448-.5272c.3806-.0856.4989-.339.2614-.5662a1.36,1.36,0,0,0-1.1227-.2527l-2.3434.5447C506.6852,135.0717,506.5839,135.3193,506.8216,135.54Z" style="fill:#30373e"/><path d="M506.2075,137.421a1.3425,1.3425,0,0,0,1.0586.2459l2.27-.4806c.3684-.078.4809-.3176.2486-.5355a1.3548,1.3548,0,0,0-1.0907-.25l-2.269.4967C506.0716,136.9751,505.9751,137.21,506.2075,137.421Z" style="fill:#30373e"/><path d="M507.4258,133.5639a1.3508,1.3508,0,0,0,1.12.2512l2.4223-.5781c.3935-.0939.5178-.3621.2748-.5992a1.3654,1.3654,0,0,0-1.1561-.2553l-2.421.597C507.2888,133.0725,507.1825,133.3342,507.4258,133.5639Z" style="fill:#30373e"/><path d="M510.5267,136.4912a1.3736,1.3736,0,0,0,1.1029.2521l2.4251-.5133c.3938-.0834.5267-.3347.2942-.5616a1.3878,1.3878,0,0,0-1.1377-.2564l-2.4246.5308C510.4088,136.0255,510.2936,136.2712,510.5267,136.4912Z" style="fill:#30373e"/><path d="M509.8535,138.3493a1.369,1.369,0,0,0,1.0724.2493l2.348-.4674c.381-.0758.5075-.3135.28-.5312a1.3823,1.3823,0,0,0-1.1054-.2535l-2.3473.4835C509.7353,137.9054,509.6254,138.138,509.8535,138.3493Z" style="fill:#30373e"/><path d="M509.1731,140.12a1.3639,1.3639,0,0,0,1.0433.2464l2.2739-.4251c.3689-.0689.4893-.294.2665-.503a1.3771,1.3771,0,0,0-1.0744-.25l-2.2732.44C509.0547,139.6965,508.95,139.917,509.1731,140.12Z" style="fill:#30373e"/></g></svg>