<svg xmlns="http://www.w3.org/2000/svg" width="218" height="218" viewBox="0 0 218 218"><g id="a6bd75ab-cb2c-42ec-b67f-c4d9a433e9f0" data-name="illustration"><path d="M-191.452-41.371s15.381,24.324,23.194,34.334,27.343,24.658,76.66,24.658H299.516" style="fill:none;stroke:#a6abb0;stroke-miterlimit:10;stroke-width:1.5px"/><path d="M-228.806-41.371c48.34,69.489,52.491,83.894,157.472,83.894H301.714" style="fill:none;stroke:#a6abb0;stroke-miterlimit:10;stroke-width:0.5px"/><path d="M-120.407,359.907c-7.324-4.639-14.16-16.6-14.892-21.24s-8.472-89.306-10.743-133.79c-1.767-34.623,16.6-34.668,75.9-40.493h0c73.585-4.048,187.685-6.727,342.8-.767" style="fill:none;stroke:#a6abb0;stroke-miterlimit:10;stroke-width:1.5px"/><path d="M299.516,145c-143.173-9.851-418.5-18.254-510.021,21.853" style="fill:none;stroke:#a6abb0;stroke-miterlimit:10;stroke-width:0.5px"/><path d="M37.225,67.766a47.539,47.539,0,0,1,.607-5.113c.433-2.253,2.859-2.86,5.546-2.946s22.532-.174,27.645,1.646c3.206.953,3.64,3.293,3.813,4.94s.607,8.666-1.56,19.325c-.867,2.947-3.033,5.893-8.406,7.453a125.763,125.763,0,0,1-15.6,3.467c-4.593.693-6.967-.471-9.827-3.417" style="fill:none;stroke:#a6abb0;stroke-miterlimit:10"/><path d="M74.91,73.073c.066-4.329-2.115-6.1-7.431-5.18S57.2,69.806,54.508,69.948s-7.088.425-9.782-3.048-5.109-6.462-5.109-6.462" style="fill:none;stroke:#a6abb0;stroke-miterlimit:10;stroke-width:0.5px"/><path d="M39.2,67.609c0-2.055,1.417-2.339,2.339-1.2s2.126,2.41,2.126,2.41a9.214,9.214,0,0,1,.993,3.828l1.417,1.063-.78.567s-1.772,11.341-1.63,16.3a1.736,1.736,0,0,0,.363.861s-1.146-.053-1.391.686-.4,1.793-1.984.738" style="fill:none;stroke:#a6abb0;stroke-miterlimit:10;stroke-width:0.5px"/><path d="M44.026,91.435a15.626,15.626,0,0,0,8.386.475,147.349,147.349,0,0,0,14.609-3.429c2.11-.791,2.743-2.32,3.27-5.432a57.068,57.068,0,0,0,.844-8.966c-.052-1.952-.527-3.27-4.588-2.479s-9.177,1.582-11.814,2a24.808,24.808,0,0,1-8.66.1" style="fill:none;stroke:#a6abb0;stroke-miterlimit:10;stroke-width:0.5px"/><path d="M49.036,74.98s-.527,11.761-1.529,16.033" style="fill:none;stroke:#a6abb0;stroke-miterlimit:10;stroke-width:0.5px"/><path d="M-83.078,66.4c18.067,6.669,90.256,10.089,125.038.508" style="fill:none;stroke:#a6abb0;stroke-miterlimit:10"/><path d="M-86.1,71.371c18.786,6.934,94.38,10.362,130.547.4" style="fill:none;stroke:#a6abb0;stroke-miterlimit:10;stroke-width:0.5px"/><path d="M-84.375,91.809c18.524,6.838,91.346,10.315,127.009.491" style="fill:none;stroke:#a6abb0;stroke-miterlimit:10"/><path d="M105.086,61.461s28.763.128,34.174.3,9.807,2.537,9.131,8.117-1.607,11.328-2.029,13.442-2.875,7.364-11.752,7.4-26.988-.175-31.976-.6-8.623-2.5-8.369-8.31.76-9.867,1.183-13S98.83,61.968,105.086,61.461Z" style="fill:#f4ae3d;stroke:#30373e;stroke-miterlimit:10;stroke-width:1.5px"/><path d="M133.513,89.693c-11.19,0-25.961-.209-30.589-.628-5.021-.453-5.343-2.568-5.241-5.076.243-6.008.724-10.147,1.155-13.553.194-1.538,1.759-4.24,6.382-4.691,3.356.027,28.764.142,33.933.313,2.49.084,4.418.752,5.286,1.833A3.376,3.376,0,0,1,145,70.639c-.651,5.74-1.573,11.867-1.987,14.081-.095.507-1.134,4.937-8.413,4.971Z" style="fill:none;stroke:#30373e;stroke-miterlimit:10;stroke-width:0.5px"/><path d="M132.387,85.181c-10.7,0-23.533-.171-27.928-.543-3.631-.307-3.591-1.209-3.521-2.848.231-5.308.685-8.975,1.094-12,.112-.83,1.223-2.48,4.635-2.792,2.065.023,26.141.121,31.071.275,2.095.065,3.452.585,3.869,1.071a1.832,1.832,0,0,1,.149,1.2c-.617,5.1-1.49,10.531-1.882,12.493-.025.126-.69,3.113-6.454,3.138Z" style="fill:none;stroke:#30373e;stroke-miterlimit:10;stroke-width:0.5px"/><path d="M202.71,235.924c-.123-.535-.226-1.087-.313-1.666a.06.06,0,0,0,0-.031c-1.273-8.786,1.748-21.944,2.435-29.33.741-7.871,2.639-22.357,2.782-29.446s-2.571-9.27-4.8-10.889-5.437-2.649-9.419-4.408c-1.946-5.072-4.456-5.449-7.1-5.938s-5.679-1.8-10.157-2.409c-2.346-1.773-6.036-7.7-10.742-14.024s-12.2-3.183-14.737.777c-1.17-3.84-4.565-18.113-4.565-18.113-.069-6.479-2.473-10.674-2.876-12.648s-2.337-19.483-3.52-26.164-5.219-8.6-7.867-8.421-7.049,1.574-7.191,10.649c-.152,10.067,2.144,20.531,2.7,27.633s2.857,15.206,3.667,19.069,2.389,14.932,2.219,18.683-.688,9.8-.292,12.973c0,0-1.023,4.356-1.659,9.606a40.68,40.68,0,0,1-2.437,9.59s-3.888-6.088-4.3-7.415-2.79-8.654-2.79-8.654,1.339-11.073-12.269-20.825c-3.286-1.711-8.075-1.007-9.124,2.964,2.031-3.078,5.829-3.847,7.081-2.14a12.693,12.693,0,0,1,1.662,7.023c-.264,1.034-.1,2.052-2.1,3.015a15,15,0,0,0-3.448,2.585.687.687,0,0,1-1.1-.2l-1.059-2.253-.137.032a13.015,13.015,0,0,0,.895,3.159s.859,4.656.823,5.5-.671,4.392.371,6.94c0,0,.325.82.748,1.828a35.911,35.911,0,0,0,1.537,3.351s2.768,7.091,3.427,11.65,2.16,10.921,2.4,12.512,2.288,5.755,5.727,9.651,30.2,36.645,31.725,40.128c5.736,13.182,22.467,39.25,25.317,53.215,17.684,8.09,46.263-7.284,59.713-1.571C233.939,301.918,204.714,244.623,202.71,235.924Z" style="fill:#f4f4f4"/><path d="M107.439,145.347a12.693,12.693,0,0,1,1.662,7.023c-.264,1.034-.1,2.052-2.1,3.015a15,15,0,0,0-3.448,2.585.687.687,0,0,1-1.1-.2l-1.059-2.253-.137.032c-.247-1.108-.558-2.592-.939-4.6a7.661,7.661,0,0,1,.038-3.464C102.389,144.409,106.187,143.64,107.439,145.347Z" style="fill:#f4f4f4"/><path d="M174.226,303.488c-1.5-5.923-4.205-11.429-6.9-16.881-5.812-11.6-12.658-22.643-18.284-34.357a24.473,24.473,0,0,0-3.51-5.708c-9.2-12.126-18.886-23.957-28.636-35.628-2.715-3.218-5.562-6.844-6.308-11.142-.1-.612-1.018-4.867-1.156-5.6-.668-2.947-.971-6.052-1.69-8.959a80.966,80.966,0,0,0-2.8-8.613c-.648-1.209-1.666-3.567-2.307-5.209-.882-2.265-.668-4.751-.428-7.1a49.237,49.237,0,0,0-.824-5.444l.165.354a6.182,6.182,0,0,1-.6-1.622c-.327-1.331-.694-2.822-.95-4.159-.363-1.919-.936-3.882-.472-5.885.891-4.559,6.683-5.736,10.311-3.7,5.237,3.7,9.837,8.838,11.782,15.085a17.879,17.879,0,0,1,.875,6.515l-.032-.324,2.709,8.423a57.62,57.62,0,0,0,4.28,7.483l-1.305.114c2.523-6.068,2.517-12.751,4.08-19.077-.491-3.281.2-9.294.293-13.455a112.342,112.342,0,0,0-1.428-13.442c-.854-6.014-2.707-11.783-3.687-17.785-.557-2.98-.742-6.065-1.1-9.056-.758-5.982-1.788-11.989-2.2-18.082-.441-6.326-1.086-16.879,7.442-17.73,4.392-.414,7.64,3.619,8.539,7.513,1.518,7.489,2.152,15.057,3.187,22.6a28.25,28.25,0,0,0,1.937,8.677,28.469,28.469,0,0,1,1.638,8.975q1.569,6.534,3.213,13.049a47.019,47.019,0,0,0,4.577,12.347l-.574-.31a8.644,8.644,0,0,1,4.411,1.334,28.638,28.638,0,0,0-4.383-.013l-.327.027-.247-.337c-2.7-3.723-3.955-8.288-5.01-12.652-1.106-4.354-2.156-8.714-3.194-13.08a30.907,30.907,0,0,0-2.337-10.965c-.851-2.178-.878-4.587-1.228-6.861-1-7.459-1.643-15.048-3.1-22.4-.681-2.676-2.3-5.37-5.007-6.221a5.93,5.93,0,0,0-6.305,2.085c-4.4,6.111-.382,24.083.348,31.884.533,7.583,2.212,14.906,4,22.281.88,4.5,1.484,9.008,1.963,13.567.808,6.023-.6,12.3.009,18.267-1.213,4.806-1.43,9.843-2.616,14.654a44.419,44.419,0,0,1-2.058,6.117l-.777-1.222c-1.56-2.611-3.332-4.978-4.463-7.839l-2.716-8.395-.044-.136a16.444,16.444,0,0,0-.816-6.068c-1.724-5.794-6.528-10.957-11.05-14.16-4.1-2.107-9.086.092-8.1,5.177.437,2.439.941,5.027,1.62,7.429.05.126.11.36.169.476-.012-.008.05.07-.061-.083l.165.354c.327,2.3,1.045,4.609.7,6.986a11.9,11.9,0,0,0,.416,5.286,55.834,55.834,0,0,0,2.281,5.192,82.491,82.491,0,0,1,2.855,8.827c.745,3.018,1.018,6.018,1.7,9.027.3,1.39,1.1,5.325,1.354,6.716a27.281,27.281,0,0,0,5.767,9.37c9.8,11.751,19.437,23.556,28.666,35.743a25.712,25.712,0,0,1,3.643,5.954c5.584,11.675,12.292,22.831,17.737,34.6,2.537,5.543,5.046,11.207,6.2,17.222Z" style="fill:#30373e"/><path d="M130.47,207.276c8.833,5.767,21.5,20.481,23.923,30.832-.268-.781-.475-1.581-.791-2.34a61.574,61.574,0,0,0-9.244-14.519c-4.181-5.047-8.551-10.112-13.888-13.973Z" style="fill:#30373e"/><path d="M129.552,181.636a12.526,12.526,0,0,0-.95,5.6l.461,2.953a11.2,11.2,0,0,1,.125,3,11,11,0,0,0-.492-2.925l-.83-2.884a13.485,13.485,0,0,1,.253-6.184l1.433.441Z" style="fill:#30373e"/><path d="M103.348,171.152a5.934,5.934,0,0,1,3.8-2.6c-1.127.786-2.608,1.913-3.8,2.6Z" style="fill:#30373e"/><path d="M104.1,172.983a44.317,44.317,0,0,0,7.188-4.567,13.029,13.029,0,0,1-7.188,4.567Z" style="fill:#30373e"/><path d="M101.4,155.517l1.056,2.251a.685.685,0,0,0,1.1.2A15.044,15.044,0,0,1,107,155.385c2-.966,1.84-1.981,2.107-3.015a12.755,12.755,0,0,0-1.662-7.025c-1.325-1.8-5.481-.845-7.4,2.674" style="fill:none;stroke:#30373e;stroke-miterlimit:10;stroke-width:0.5px"/><path d="M150.024,138.154c2.621-3.936,8.178-6.038,12.536-3.8a10.042,10.042,0,0,1,3.52,3.1c2.632,3.518,5.058,7.174,7.7,10.661a18.841,18.841,0,0,0,2.806,3.1l-.351-.145a40.227,40.227,0,0,1,5.06,1.05c2.557.795,4.839,1.269,7.409,1.883,2.738.735,4.506,3.448,5.389,5.885l-.4-.417c1.483.648,2.991,1.246,4.512,1.87,10.883,4.013,10.834,10.426,9.856,20.652-.647,7.542-1.791,16.834-2.573,24.391-1.035,8.054-2.8,16.149-2.679,24.219-.043,6.546,3.366,12.351,5.824,18.259,2.676,5.951,5.475,11.852,8.283,17.748,4.9,10.423,11.979,24.828,17.017,35.311-9.182-17.324-18.143-34.768-26.425-52.546-2.6-6-6.118-11.989-6.119-18.731-.191-8.311,1.5-16.323,2.47-24.451.7-7.55,1.872-16.827,2.507-24.344,1.389-14.174-.372-15.875-13.28-21.006l-.276-.124-.121-.294a9.755,9.755,0,0,0-2.488-3.934c-1.121-1.008-2.643-1.279-4.354-1.591-1.731-.362-3.328-.906-4.946-1.331a38.706,38.706,0,0,0-5.081-1.042,19.253,19.253,0,0,1-3.232-3.5c-2.662-3.506-5.094-7.171-7.72-10.682a8.552,8.552,0,0,0-3-2.657c-3.646-1.89-8.417.013-10.592,3.276l-1.263-.81Z" style="fill:#30373e"/><path d="M176.668,151.278a22.376,22.376,0,0,1,3.988,8.645,26.282,26.282,0,0,0-2.174-4.118,16.313,16.313,0,0,0-2.876-3.468l1.062-1.059Z" style="fill:#30373e"/><polygon points="194.091 159.866 196.3 167.532 192.704 160.437 194.091 159.866 194.091 159.866" style="fill:#30373e"/><path d="M127.141,76.949c1.889-3.02,6.993-4.291,9.846-.9.808,4.378.782,7.692-3.064,8.083S128.1,81.88,127.141,76.949Z" style="fill:none;stroke:#30373e;stroke-miterlimit:10;stroke-width:0.5px"/><path d="M132.915,116.624a11.094,11.094,0,0,1,9.912-.995,18.757,18.757,0,0,0-9.912.995Z" style="fill:#30373e"/><path d="M133.245,120.088a28.363,28.363,0,0,0,9.122-.662,12.311,12.311,0,0,1-9.122.662Z" style="fill:#30373e"/></g></svg>
