<?xml version="1.0" encoding="UTF-8"?><svg id="uuid-a171c6b7-dfef-4827-a7ab-713257f18afe" xmlns="http://www.w3.org/2000/svg" width="325" height="237.4133" viewBox="0 0 325 237.4133"><polyline points="311.8244 84.1848 313.9795 70.1597 308.0627 70.1597" style="fill:none; stroke:#a6abb0; stroke-linecap:round; stroke-linejoin:round; stroke-width:1.5px;"/><polyline points="12.9444 84.1848 10.7893 70.1597 16.7061 70.1597" style="fill:none; stroke:#a6abb0; stroke-linecap:round; stroke-linejoin:round; stroke-width:1.5px;"/><path d="m301.3827,129.1174l-5.2,45.85H80.7427c-8.42-7.52-30.31-20.63-55.69-31.54v-.01l-1.62-14.3h277.95Z" style="fill:#cfd2d4; stroke-width:0px;"/><polygon points="302.6027 42.8674 308.0627 70.1674 307.0427 79.1674 302.6227 118.1274 162.4027 118.1274 22.1927 118.1274 17.7727 79.1674 16.7527 70.1674 22.2127 42.8674 162.4027 42.8674 302.6027 42.8674" style="fill:#cfd2d4; stroke-width:0px;"/><line x1="-36.946" y1="25.3144" x2="384.5187" y2="25.3144" style="fill:none; stroke:#a6abb0; stroke-linecap:round; stroke-linejoin:round; stroke-width:.5px;"/><line x1="-36.946" y1="16.6931" x2="384.5187" y2="16.6931" style="fill:none; stroke:#a6abb0; stroke-linecap:round; stroke-linejoin:round; stroke-width:.5px;"/><line x1="-36.946" y1="218.4682" x2="384.5187" y2="218.4682" style="fill:none; stroke:#a6abb0; stroke-linecap:round; stroke-linejoin:round; stroke-width:1.5px;"/><line x1="-36.946" y1="206.4784" x2="384.5187" y2="206.4784" style="fill:none; stroke:#a6abb0; stroke-linecap:round; stroke-linejoin:round; stroke-width:.5px;"/><line x1="-36.946" y1="189.9742" x2="384.5187" y2="189.9742" style="fill:none; stroke:#a6abb0; stroke-linecap:round; stroke-linejoin:round; stroke-width:.5px;"/><path d="m41.2636,174.9667c24.9121-1.2736,61.5118-.6086,86.8598-.794,77.3733-.0528,183.212-.198,260.5806.044,0,0,0,1.4999,0,1.4999-77.3933.2416-183.1968.0969-260.5804.0438-25.3874-.1869-61.7877.4809-86.86-.7938h0Z" style="fill:#a6abb0; stroke-width:0px;"/><path d="m316.3922,112.3667c3.6171-2.7863,8.1537-5.2878,13.7602-6.815,8.9664-2.4424,33.0853-8.4884,56.4589-14.2911" style="fill:none; stroke:#a6abb0; stroke-linecap:round; stroke-linejoin:round; stroke-width:.5px;"/><path d="m11.2515,94.8475c-2.5043-1.3912-5.3337-2.7034-8.5272-3.8729-9.9701-3.6509-28.9976-9.7334-47.1294-15.3852" style="fill:none; stroke:#a6abb0; stroke-linecap:round; stroke-linejoin:round; stroke-width:.5px;"/><line x1="17.4916" y1="80.6327" x2="306.8312" y2="80.6327" style="fill:none; stroke:#30373e; stroke-miterlimit:10;"/><line x1="17.4916" y1="76.7875" x2="306.8312" y2="76.7875" style="fill:none; stroke:#30373e; stroke-miterlimit:10; stroke-width:.5px;"/><line x1="18.5932" y1="91.7376" x2="305.6043" y2="91.7376" style="fill:none; stroke:#30373e; stroke-miterlimit:10;"/><line x1="18.5932" y1="87.9541" x2="305.6043" y2="87.9541" style="fill:none; stroke:#30373e; stroke-miterlimit:10; stroke-width:.5px;"/><line x1="20.4577" y1="102.8425" x2="304.3773" y2="102.8425" style="fill:none; stroke:#30373e; stroke-miterlimit:10;"/><line x1="19.6948" y1="99.1206" x2="304.3773" y2="99.1206" style="fill:none; stroke:#30373e; stroke-miterlimit:10; stroke-width:.5px;"/><line x1="21.7174" y1="113.9474" x2="303.1504" y2="113.9474" style="fill:none; stroke:#30373e; stroke-miterlimit:10;"/><line x1="20.7964" y1="110.2872" x2="303.1504" y2="110.2872" style="fill:none; stroke:#30373e; stroke-miterlimit:10; stroke-width:.5px;"/><line x1="24.2427" y1="136.1571" x2="300.6966" y2="136.1571" style="fill:none; stroke:#30373e; stroke-miterlimit:10;"/><line x1="24.1011" y1="132.6202" x2="300.6966" y2="132.6202" style="fill:none; stroke:#30373e; stroke-miterlimit:10; stroke-width:.5px;"/><line x1="33.6481" y1="147.262" x2="299.4696" y2="147.262" style="fill:none; stroke:#30373e; stroke-miterlimit:10;"/><line x1="25.0527" y1="143.7868" x2="299.4696" y2="143.7868" style="fill:none; stroke:#30373e; stroke-miterlimit:10; stroke-width:.5px;"/><line x1="55.5407" y1="158.3669" x2="298.2427" y2="158.3669" style="fill:none; stroke:#30373e; stroke-miterlimit:10;"/><line x1="49.2281" y1="154.9533" x2="298.2427" y2="154.9533" style="fill:none; stroke:#30373e; stroke-miterlimit:10; stroke-width:.5px;"/><line x1="73.6186" y1="169.4717" x2="297.0158" y2="169.4717" style="fill:none; stroke:#30373e; stroke-miterlimit:10;"/><line x1="68.59" y1="166.1199" x2="297.0158" y2="166.1199" style="fill:none; stroke:#30373e; stroke-miterlimit:10; stroke-width:.5px;"/><path d="m147.1271,129.1169v15.3621c0,.8546.6928,1.5475,1.5475,1.5475h34.8114c.8546,0,1.5475-.6928,1.5475-1.5475v-15.3621" style="fill:#cfd2d4; stroke:#a6abb0; stroke-miterlimit:10; stroke-width:1.5px;"/><polyline points="147.1271 146.0265 154.0747 141.4707 178.0858 141.4707 185.0334 146.0265" style="fill:none; stroke:#a6abb0; stroke-miterlimit:10; stroke-width:.5px;"/><polyline points="147.1271 142.6774 154.0747 138.1216 178.0858 138.1216 185.0334 142.6774" style="fill:none; stroke:#a6abb0; stroke-miterlimit:10; stroke-width:1.5px;"/><line x1="178.0858" y1="141.4707" x2="178.0858" y2="138.1216" style="fill:none; stroke:#a6abb0; stroke-miterlimit:10; stroke-width:.5px;"/><line x1="154.0747" y1="141.4707" x2="154.0747" y2="138.1216" style="fill:none; stroke:#a6abb0; stroke-miterlimit:10; stroke-width:.5px;"/><path d="m307.7627,75.4274h2.62s6.01,36.52,7.35,45.53" style="fill:none; stroke:#a6abb0; stroke-linecap:round; stroke-linejoin:round; stroke-width:1.5px;"/><line x1="301.3827" y1="129.1146" x2="296.1827" y2="174.9646" style="fill:none; stroke:#a6abb0; stroke-linecap:round; stroke-linejoin:round; stroke-width:1.5px;"/><polyline points="162.4069 42.8646 302.6027 42.8646 308.0627 70.1646 302.6227 118.1246" style="fill:none; stroke:#30373e; stroke-linecap:round; stroke-linejoin:round; stroke-width:1.5px;"/><line x1="162.4069" y1="70.1597" x2="308.0607" y2="70.1597" style="fill:none; stroke:#30373e; stroke-linecap:round; stroke-linejoin:round; stroke-width:.5px;"/><polyline points="162.4069 129.1169 315.671 129.1169 309.1093 174.9666" style="fill:none; stroke:#a6abb0; stroke-linecap:round; stroke-linejoin:round; stroke-width:1.5px;"/><line x1="309.1093" y1="129.1148" x2="302.5476" y2="174.9645" style="fill:none; stroke:#a6abb0; stroke-linecap:round; stroke-linejoin:round; stroke-width:1.5px;"/><polyline points="5.2827 135.6974 3.4827 122.9574 3.4827 120.9574 162.4027 120.9574" style="fill:none; stroke:#a6abb0; stroke-linecap:round; stroke-linejoin:round; stroke-width:1.5px;"/><polyline points="162.4069 120.9528 321.3265 120.9528 321.3265 122.9518 313.9795 174.9666" style="fill:none; stroke:#a6abb0; stroke-linecap:round; stroke-linejoin:round; stroke-width:1.5px;"/><path d="m7.0827,120.9574c1.33-9,7.34-45.53,7.34-45.53h2.63" style="fill:none; stroke:#a6abb0; stroke-linecap:round; stroke-linejoin:round; stroke-width:1.5px;"/><line x1="25.0527" y1="143.4274" x2="23.4327" y2="129.1174" style="fill:none; stroke:#30373e; stroke-linecap:round; stroke-linejoin:round; stroke-width:1.5px;"/><polyline points="22.1912 118.1246 16.7512 70.1646 22.2112 42.8646 162.4069 42.8646" style="fill:none; stroke:#30373e; stroke-linecap:round; stroke-linejoin:round; stroke-width:1.5px;"/><line x1="162.4069" y1="70.1597" x2="16.7532" y2="70.1597" style="fill:none; stroke:#30373e; stroke-linecap:round; stroke-linejoin:round; stroke-width:.5px;"/><polyline points="10.3427 137.5274 9.1427 129.1174 15.7027 129.1174 23.4327 129.1174 162.4027 129.1174" style="fill:none; stroke:#a6abb0; stroke-linecap:round; stroke-linejoin:round; stroke-width:1.5px;"/><line x1="17.2927" y1="140.2074" x2="15.7027" y2="129.1174" style="fill:none; stroke:#a6abb0; stroke-linecap:round; stroke-linejoin:round; stroke-width:1.5px;"/><polygon points="180.184 66.0053 177.5804 38.6212 191.329 38.6212 166.0802 19.724 140.8315 38.6212 154.5801 38.6212 151.9764 66.0053 180.184 66.0053" style="fill:#f4ae3d; stroke:#f4f4f4; stroke-miterlimit:10; stroke-width:1.5px;"/><line x1="3.4827" y1="122.9574" x2="321.3265" y2="122.9574" style="fill:none; stroke:#a6abb0; stroke-miterlimit:10; stroke-width:.5px;"/><polyline points="307.5401 79.2271 308.0602 79.2271 313.9795 118.1236 305.3123 118.1236 162.4067 118.1236" style="fill:none; stroke:#a6abb0; stroke-linecap:round; stroke-linejoin:round; stroke-width:1.5px;"/><polyline points="162.4071 118.1236 19.5016 118.1236 10.8344 118.1236 16.7537 79.2271 17.2738 79.2271" style="fill:none; stroke:#a6abb0; stroke-linecap:round; stroke-linejoin:round; stroke-width:1.5px;"/><line x1="16.9317" y1="71.7559" x2="18.5932" y2="86.4042" style="fill:none; stroke:#30373e; stroke-linecap:round; stroke-linejoin:round; stroke-width:1.5px;"/><line x1="307.8047" y1="72.4396" x2="306.2347" y2="86.2805" style="fill:none; stroke:#30373e; stroke-linecap:round; stroke-linejoin:round; stroke-width:1.5px;"/><path d="m80.743,174.9666c-16.2931-14.5475-82.9638-50.0101-127.838-50.0101" style="fill:none; stroke:#a6abb0; stroke-miterlimit:10; stroke-width:1.5px;"/></svg>