<svg xmlns="http://www.w3.org/2000/svg" width="218" height="218" viewBox="0 0 218 218"><g id="a59ff91e-4c0f-441c-99e4-9d4a7ca49c62" data-name="annotations"><g id="a5725a93-b1d5-41c4-b8b7-20ac12b498be" data-name="Offset Group"><path d="M108.677,135.107c38.124.1,58.462,1.874,63.868,2.4a7.237,7.237,0,0,1,5.006,2.531c2.031,2.4,2.5,5.978,2.288,8.969-.313,4.477-1.023,14.7-3.214,21.348-1.151,3.493-2.334,6.131-4.569,7.864-1.948,1.51-4.556,2.229-8.255,2.474-12.819.85-38.065,1.779-55.186,1.73s-42.436-1.121-55.251-2.043c-3.7-.266-6.3-1-8.243-2.52-2.228-1.745-3.4-4.389-4.537-7.889-2.163-6.663-2.832-16.888-3.126-21.366-.2-2.992.284-6.57,2.326-8.958a7.236,7.236,0,0,1,5.017-2.5C50.209,136.649,70.554,134.988,108.677,135.107Z" style="fill:none;stroke:#a6abb0;stroke-miterlimit:10;stroke-width:0.5px"/><path d="M108.677,135.357c38.116.1,58.446,1.874,63.844,2.393a7,7,0,0,1,4.839,2.444c1.968,2.325,2.437,5.825,2.229,8.791-.313,4.486-1.022,14.672-3.2,21.287-1.15,3.49-2.315,6.062-4.486,7.744-1.89,1.466-4.439,2.179-8.118,2.423-12.813.849-38.054,1.778-55.168,1.729s-42.424-1.12-55.234-2.042c-3.678-.265-6.223-.993-8.107-2.468-2.164-1.694-3.317-4.272-4.453-7.769-2.151-6.628-2.82-16.817-3.115-21.305-.194-2.968.288-6.465,2.267-8.779a6.982,6.982,0,0,1,4.85-2.417C50.224,136.9,70.561,135.238,108.677,135.357Z" style="fill:none;stroke:#a6abb0;stroke-miterlimit:10;stroke-width:0.5px"/><path d="M108.676,135.607c38.108.1,58.431,1.873,63.821,2.392a6.741,6.741,0,0,1,4.672,2.357c1.906,2.251,2.376,5.67,2.171,8.612-.314,4.5-1.022,14.646-3.19,21.226-1.149,3.488-2.3,5.993-4.4,7.625-1.832,1.42-4.322,2.128-7.981,2.371-12.808.848-38.043,1.777-55.151,1.728S66.2,180.8,53.4,179.877c-3.658-.264-6.144-.985-7.971-2.416-2.1-1.643-3.234-4.155-4.369-7.649-2.14-6.592-2.808-16.747-3.1-21.244-.193-2.944.291-6.36,2.207-8.6a6.734,6.734,0,0,1,4.682-2.33C50.238,137.149,70.568,135.488,108.676,135.607Z" style="fill:none;stroke:#a6abb0;stroke-miterlimit:10;stroke-width:0.5px"/><path d="M108.675,135.857c38.1.1,58.416,1.873,63.8,2.391a6.49,6.49,0,0,1,4.5,2.27c1.844,2.177,2.316,5.515,2.113,8.432-.315,4.505-1.023,14.622-3.178,21.166-1.148,3.485-2.276,5.923-4.317,7.5-1.774,1.376-4.205,2.078-7.845,2.319-12.8.848-38.032,1.777-55.134,1.728s-42.4-1.12-55.2-2.041c-3.638-.261-6.066-.977-7.834-2.362-2.035-1.594-3.152-4.039-4.286-7.531-2.129-6.555-2.8-16.676-3.092-21.183-.191-2.918.295-6.254,2.148-8.421a6.481,6.481,0,0,1,4.515-2.244C50.253,137.4,70.575,135.738,108.675,135.857Z" style="fill:none;stroke:#a6abb0;stroke-miterlimit:10;stroke-width:0.5px"/></g><path d="M108.675,136.107c38.092.1,58.4,1.872,63.774,2.39s6.707,5.921,6.392,10.436-1.022,14.6-3.166,21.1-4.153,9.138-11.941,9.654c-12.8.847-38.02,1.776-55.116,1.727s-42.388-1.12-55.182-2.04c-7.786-.56-9.784-3.2-11.9-9.721s-2.784-16.606-3.08-21.122,1.059-9.912,6.435-10.4S70.582,135.988,108.675,136.107Z" style="fill:none;stroke:#a6abb0;stroke-miterlimit:10;stroke-width:0.5px"/><path d="M108.623,178.812c-16.676-.048-41.94-1.092-55.072-2.036-7.08-.51-8.438-2.686-10.266-8.316-2.062-6.35-2.694-15.98-2.964-20.092-.15-2.28.01-7.631,4.715-8.057,6.729-.61,26.023-2.029,59.779-2.029q1.9,0,3.855.007c36.06.092,56.507,1.7,63.625,2.383,4.7.453,4.841,5.8,4.682,8.084-.287,4.11-.959,13.736-3.048,20.074-1.851,5.62-3.219,7.789-10.3,8.258-12.528.83-36.625,1.726-53.709,1.726Z" style="fill:none;stroke:#a6abb0;stroke-miterlimit:10;stroke-width:0.5px"/><path d="M109.339,126.9H73.869a4.026,4.026,0,0,1-3.218-1.719l-3.9-5.275a4.023,4.023,0,0,0-3.218-1.719H28.37c-11.9,0-13.724-7.352-22.407-7.352H.146" style="fill:none;stroke:#a6abb0;stroke-miterlimit:10;stroke-width:1.5px"/><path d="M182.428,118.189c5.478,0,10.1-1.056,13-10.83s10.526-35.837,13.1-44.609.985-12.844-3.8-17.8a160.355,160.355,0,0,0-25.374-21.345c-7.407-4.938-9.623-5.258-70.018-5.258s-62.61.32-70.017,5.258A160.355,160.355,0,0,0,13.948,44.951c-4.782,4.955-6.374,9.028-3.8,17.8s10.2,34.835,13.1,44.609,7.518,10.83,13,10.83" style="fill:none;stroke:#a6abb0;stroke-miterlimit:10"/><path d="M109.339,69.3H44.584c-3.058,0-4.88.128-9.89,3.264-4.919,3.08-5.635,2.7-4.554,7.287.786,3.336,1.238,5.012,2.017,7.819.875,3.152,2.321,4.983,10.779,5.009,9.5.03,44.822.228,66.4.228" style="fill:none;stroke:#a6abb0;stroke-miterlimit:10;stroke-width:0.5px"/><path d="M66.086,73.619a1.768,1.768,0,0,0-1.753-1.541H48.678c-2.745,0-4,0-8.745,2.973l-2.4,1.379a2.073,2.073,0,0,0-.977,2.283c.738,3.007,1.528,5.88,2.265,8.531.425,1.529.73,2.632,8.07,2.655,2.778.009,7.58.031,13.574.059,3.24.014,3.154.031,5.431.047a2.016,2.016,0,0,0,2.016-2.268Z" style="fill:#f4ae3d;stroke:#30373e;stroke-miterlimit:10;stroke-width:1.5px"/><path d="M152.781,73.619a1.769,1.769,0,0,1,1.754-1.541h15.654c2.745,0,4,0,8.745,2.973l2.4,1.379a2.073,2.073,0,0,1,.977,2.283c-.738,3.007-1.528,5.88-2.265,8.531-.425,1.529-.73,2.632-8.07,2.655-2.778.009-7.58.031-13.574.059-3.24.014-3.154.031-5.431.047a2.016,2.016,0,0,1-2.016-2.268Z" style="fill:#f4ae3d;stroke:#30373e;stroke-miterlimit:10;stroke-width:1.5px"/><path d="M109.339,73.472c-18.072,0-29.166.115-34.481.466-2.045.136-3.625,1.759-3.293,4.646l.774,6.724c.262,2.285,1.519,3.292,3.129,3.426,3.949.328,13.165.36,33.871.36" style="fill:none;stroke:#a6abb0;stroke-miterlimit:10;stroke-width:0.5px"/><path d="M109.339,67.154h64.106c7.965,0,8.737,1.243,13.8,4.189,5.84,3.4,8.316,5.317,7.307,9.045s-1.779,7.133-3.11,11.52c-1.173,3.862-4.976,4.529-11.968,4.529H39.21c-6.992,0-10.8-.667-11.968-4.529-1.331-4.387-2.1-7.793-3.111-11.52s1.468-5.645,7.308-9.045c5.058-2.946,5.83-4.189,13.8-4.189Z" style="fill:none;stroke:#a6abb0;stroke-miterlimit:10;stroke-width:0.5px"/><path d="M109.339,69.3H174.1c3.058,0,4.88.128,9.89,3.264,4.919,3.08,5.635,2.7,4.554,7.287-.786,3.336-1.238,5.012-2.017,7.819-.875,3.152-2.321,4.983-10.779,5.009-9.5.03-44.822.228-66.4.228" style="fill:none;stroke:#a6abb0;stroke-miterlimit:10;stroke-width:0.5px"/><path d="M109.34,75.31c-19.441,0-29.4.134-34.361.462a1.645,1.645,0,0,0-1.176.546,2.705,2.705,0,0,0-.412,2.056l.774,6.724c.195,1.7,1.015,1.768,1.455,1.805,3.859.32,13.238.353,33.72.353s29.86-.033,33.719-.353c.44-.037,1.26-.105,1.455-1.805l.774-6.724a2.705,2.705,0,0,0-.412-2.056,1.645,1.645,0,0,0-1.176-.546c-4.965-.328-14.92-.462-34.36-.462" style="fill:none;stroke:#a6abb0;stroke-miterlimit:10;stroke-width:0.5px"/><path d="M109.339,73.472c18.073,0,29.167.115,34.482.466,2.045.136,3.625,1.759,3.293,4.646l-.774,6.724c-.262,2.285-1.519,3.292-3.129,3.426-3.949.328-13.165.36-33.872.36" style="fill:none;stroke:#a6abb0;stroke-miterlimit:10;stroke-width:0.5px"/><line x1="32.869" y1="107.609" x2="109.339" y2="107.609" style="fill:none;stroke:#a6abb0;stroke-linecap:round;stroke-linejoin:round"/><path d="M46.773,117.6l-4.7,0c-6.946,0-9.146-8.394-9.5-9.8" style="fill:none;stroke:#a6abb0;stroke-linecap:round;stroke-linejoin:round;stroke-width:0.5px"/><path d="M171.906,117.6l4.7,0c6.946,0,9.146-8.394,9.5-9.8" style="fill:none;stroke:#a6abb0;stroke-linecap:round;stroke-linejoin:round;stroke-width:0.5px"/><path d="M89.345,119.283c.166.679-.173,1.234-.755,1.234H73.355A1.581,1.581,0,0,1,72,119.283l-1.926-7.842c-.167-.678.173-1.233.755-1.233H86.058a1.581,1.581,0,0,1,1.361,1.233Z" style="fill:none;stroke:#a6abb0;stroke-miterlimit:10;stroke-width:0.5px"/><line x1="185.81" y1="107.609" x2="109.339" y2="107.609" style="fill:none;stroke:#a6abb0;stroke-linecap:round;stroke-linejoin:round"/><path d="M129.334,119.283c-.166.679.173,1.234.755,1.234h15.235a1.581,1.581,0,0,0,1.36-1.234l1.926-7.842c.167-.678-.173-1.233-.755-1.233H132.621a1.581,1.581,0,0,0-1.361,1.233Z" style="fill:none;stroke:#a6abb0;stroke-miterlimit:10;stroke-width:0.5px"/><path d="M103.274,126.317H99.745a1.988,1.988,0,0,1-1.838-1.551l-4.369-15.605a1.987,1.987,0,0,0-1.837-1.552H81.968" style="fill:none;stroke:#a6abb0;stroke-linecap:round;stroke-linejoin:round;stroke-width:0.5px"/><path d="M115.405,126.317h3.529a1.988,1.988,0,0,0,1.838-1.551l4.369-15.605a1.987,1.987,0,0,1,1.837-1.552h7.027" style="fill:none;stroke:#a6abb0;stroke-linecap:round;stroke-linejoin:round;stroke-width:0.5px"/><path d="M70.841,124.373l-11.808-15.98a1.831,1.831,0,0,0-1.465-.784H54.985" style="fill:none;stroke:#a6abb0;stroke-miterlimit:10;stroke-width:0.5px"/><path d="M109.339,126.9H144.81a4.026,4.026,0,0,0,3.218-1.719l3.9-5.275a4.023,4.023,0,0,1,3.218-1.719h35.166c11.9,0,13.724-7.352,22.407-7.352h7.29" style="fill:none;stroke:#a6abb0;stroke-miterlimit:10;stroke-width:1.5px"/><path d="M147.838,124.373l11.808-15.98a1.83,1.83,0,0,1,1.465-.784h2.583" style="fill:none;stroke:#a6abb0;stroke-miterlimit:10;stroke-width:0.5px"/><line x1="131.195" y1="79.747" x2="138.273" y2="79.747" style="fill:none;stroke:#a6abb0;stroke-linecap:round;stroke-linejoin:round;stroke-width:0.5px"/><line x1="131.061" y1="81.493" x2="138.122" y2="81.493" style="fill:none;stroke:#a6abb0;stroke-linecap:round;stroke-linejoin:round;stroke-width:0.5px"/><line x1="130.928" y1="83.23" x2="137.971" y2="83.23" style="fill:none;stroke:#a6abb0;stroke-linecap:round;stroke-linejoin:round;stroke-width:0.5px"/><path d="M80.961,81.081h-.575a.476.476,0,0,0-.532-.459c-.3,0-.479.152-.471.41.009.276.225.366.687.517.738.227,1.024.476,1.037.938.016.581-.451.918-1.105.918-.78,0-1.213-.4-1.242-.989h.574c.021.355.255.55.66.55.361,0,.548-.186.541-.444-.007-.239-.209-.368-.706-.52-.63-.186-1-.418-1.019-.93s.364-.9,1.046-.9C80.5,80.175,80.923,80.484,80.961,81.081Z" style="fill:#a6abb0"/><path d="M85.11,81.789a1.626,1.626,0,0,1-1.783,1.616,1.731,1.731,0,0,1-1.875-1.616,1.627,1.627,0,0,1,1.794-1.614A1.719,1.719,0,0,1,85.11,81.789Zm-3.063,0a1.187,1.187,0,0,0,1.268,1.155,1.118,1.118,0,0,0,1.206-1.155,1.18,1.18,0,0,0-1.263-1.149A1.114,1.114,0,0,0,82.047,81.789Z" style="fill:#a6abb0"/><path d="M87.722,81.081h-.574a.471.471,0,0,0-.528-.459c-.3,0-.481.152-.475.41.006.276.221.366.682.517.735.227,1.019.476,1.028.938.011.581-.459.918-1.113.918-.78,0-1.21-.4-1.233-.989h.574c.017.355.25.55.655.55.36,0,.55-.186.545-.444,0-.239-.206-.368-.7-.52-.629-.186-1-.418-1.011-.93s.373-.9,1.055-.9C87.267,80.175,87.69,80.484,87.722,81.081Z" style="fill:#a6abb0"/><path d="M62.625,118.189s1.683,6.817,4.263,18.605" style="fill:none;stroke:#a6abb0;stroke-miterlimit:10;stroke-width:0.5px"/><path d="M192.109,118.13c-6.52,20.709-10.139,30.919-13.859,37.905" style="fill:none;stroke:#a6abb0;stroke-miterlimit:10;stroke-width:0.5px"/><path d="M204.513,61.147c-.771,2.618-2,6.786-3.4,11.6-.679,2.314-1.413,4.812-2.159,7.374.891-6.97-5-9.695-9.814-12.5-5.625-3.355-9.813-4.712-17.813-4.712H47.357c-8.015,0-12.2,1.363-17.813,4.712-4.8,2.788-10.693,5.513-9.82,12.461-.746-2.547-1.474-5.031-2.153-7.338-1.413-4.811-2.632-8.979-3.4-11.6-2.019-6.864-.891-8.881,2.6-12.49A155.507,155.507,0,0,1,41.432,27.91C47.709,23.721,49.4,22.6,109.338,22.6s61.634,1.125,67.912,5.314a155.817,155.817,0,0,1,24.661,20.747C205.4,52.266,206.526,54.283,204.513,61.147Z" style="fill:none;stroke:#a6abb0;stroke-miterlimit:10;stroke-width:0.5px"/><polygon points="109.339 77.085 103.758 85.052 114.89 85.07 109.339 77.085" style="fill:none;stroke:#a6abb0;stroke-miterlimit:10;stroke-width:0.5px"/><polygon points="109.334 80.146 107.063 83.307 111.592 83.314 109.334 80.146" style="fill:none;stroke:#a6abb0;stroke-miterlimit:10;stroke-width:0.5px"/><line x1="124.544" y1="73.511" x2="123.408" y2="89.079" style="fill:none;stroke:#a6abb0;stroke-miterlimit:10;stroke-width:0.5px"/><line x1="94.135" y1="73.511" x2="95.271" y2="89.079" style="fill:none;stroke:#a6abb0;stroke-miterlimit:10;stroke-width:0.5px"/><path d="M80.961,81.081h-.575a.476.476,0,0,0-.532-.459c-.3,0-.479.152-.471.41.009.276.225.366.687.517.738.227,1.024.476,1.037.938.016.581-.451.918-1.105.918-.78,0-1.213-.4-1.242-.989h.574c.021.355.255.55.66.55.361,0,.548-.186.541-.444-.007-.239-.209-.368-.706-.52-.63-.186-1-.418-1.019-.93s.364-.9,1.046-.9C80.5,80.175,80.923,80.484,80.961,81.081Z" style="fill:#a6abb0"/><path d="M85.11,81.789a1.626,1.626,0,0,1-1.783,1.616,1.731,1.731,0,0,1-1.875-1.616,1.627,1.627,0,0,1,1.794-1.614A1.719,1.719,0,0,1,85.11,81.789Zm-3.063,0a1.187,1.187,0,0,0,1.268,1.155,1.118,1.118,0,0,0,1.206-1.155,1.18,1.18,0,0,0-1.263-1.149A1.114,1.114,0,0,0,82.047,81.789Z" style="fill:#a6abb0"/><path d="M87.722,81.081h-.574a.471.471,0,0,0-.528-.459c-.3,0-.481.152-.475.41.006.276.221.366.682.517.735.227,1.019.476,1.028.938.011.581-.459.918-1.113.918-.78,0-1.21-.4-1.233-.989h.574c.017.355.25.55.655.55.36,0,.55-.186.545-.444,0-.239-.206-.368-.7-.52-.629-.186-1-.418-1.011-.93s.373-.9,1.055-.9C87.267,80.175,87.69,80.484,87.722,81.081Z" style="fill:#a6abb0"/><path d="M94.27,75.348c-9.9.06-15.817.2-19.29.424a1.646,1.646,0,0,0-1.177.546,2.705,2.705,0,0,0-.412,2.056l.773,6.724c.2,1.7,1.016,1.768,1.456,1.805,2.823.234,8.6.315,19.517.341" style="fill:none;stroke:#a6abb0;stroke-miterlimit:10;stroke-width:0.5px"/><path d="M13.488,200.533c.05-.392.085-.794.107-1.216a.039.039,0,0,1,0-.022c.3-6.385-2.792-15.6-3.8-20.846-1.083-5.587-3.459-15.834-4.059-20.9s1.192-6.823,2.673-8.139,3.709-2.28,6.439-3.82c1.039-3.771,2.811-4.216,4.673-4.753s3.943-1.684,7.108-2.439c1.557-1.435,3.785-5.939,6.714-10.8s8.519-3.137,10.615-.477c.568-2.834,2-13.3,2-13.3-.405-4.648,1.024-7.823,1.174-9.265s.307-14.125.686-19,3.137-6.527,5.047-6.586,5.161.633,5.9,7.126c.816,7.2-.095,14.862,0,19.989s-.981,11.1-1.29,13.922-.664,10.867-.279,13.543,1.181,6.971,1.12,9.276c0,0,1.038,3.049,1.862,6.766a29.259,29.259,0,0,0,2.419,6.7,55.877,55.877,0,0,0,2.559-5.614c.2-.984,1.392-6.4,1.392-6.4s-1.736-7.84,7.331-15.783c2.234-1.456,5.714-1.288,6.745,1.484-1.671-2.063-4.446-2.348-5.224-1.036a9.145,9.145,0,0,0-.7,5.149c.262.722.217,1.463,1.717,2.012a10.79,10.79,0,0,1,2.653,1.611.5.5,0,0,0,.771-.22l.6-1.688.1.013a9.387,9.387,0,0,1-.419,2.326s-.289,3.4-.2,4,.789,3.1.221,5c0,0-.175.611-.407,1.363a25.787,25.787,0,0,1-.867,2.509,49.867,49.867,0,0,0-1.638,8.588c-.153,3.309-.781,7.977-.84,9.134s-1.235,4.284-3.426,7.317-19.071,28.378-19.917,30.98c-3.185,9.848-13.345,29.7-14.408,39.908-12.1,7.037-33.661-1.974-42.9,3.064C-4.259,250.013,12.662,206.907,13.488,200.533Z" style="fill:#f4f4f4"/><path d="M75.4,128.946a9.145,9.145,0,0,0-.7,5.149c.262.722.217,1.463,1.717,2.012a10.79,10.79,0,0,1,2.653,1.611.5.5,0,0,0,.771-.22l.6-1.688.1.013c.1-.811.218-1.9.35-3.362a5.508,5.508,0,0,0-.27-2.479C78.952,127.919,76.177,127.634,75.4,128.946Z" style="fill:#f4f4f4"/><path d="M38.638,246.948a53.973,53.973,0,0,1,3.129-12.813c3.021-8.831,7.025-17.31,10.2-26.061,1.231-3.721,3.736-6.837,5.7-10.171,4.749-7.414,9.559-14.748,14.545-22.027a19.513,19.513,0,0,0,3.438-7.027c.026-.414.108-1.218.15-1.63.411-3.222.565-6.655.928-9.871a59.811,59.811,0,0,1,1.434-6.56,39.413,39.413,0,0,0,1.265-3.873c.554-1.779-.3-3.736-.28-5.51a19.717,19.717,0,0,1,.332-3.69c-.1.171-.049.094-.062.112l.007-.025.024-.086.048-.214c.08-.315.172-1.117.229-1.442.2-2.587,1.517-6.973-2.113-7.626a5.224,5.224,0,0,0-3.225.651c-4.4,3.771-7.9,9.441-7.1,15.357l-1.359,6.2a39.63,39.63,0,0,1-2.668,5.983l-.656,1.291-.654-1.277c-2.3-4.283-2.767-9.174-4.355-13.7.025-4.3-1.431-8.753-1.271-13.121-.149-6.584.988-13.085,1.614-19.6.155-6.493.492-13.1.42-19.554-.188-3.116-.1-6.462-1.779-9.119a4.046,4.046,0,0,0-6.927.288c-1.08,1.778-1.113,3.9-1.22,5.979-.2,4.341-.28,8.7-.393,13.067-.091,1.313.022,3.837-.4,5.05a21.507,21.507,0,0,0-.884,7.908c-.97,5.637-1.093,11.476-3.045,16.911a13.492,13.492,0,0,1-1.329,2.615c-1.16-.005-2.277.016-3.46.127a4.307,4.307,0,0,1,1.416-.949,5.99,5.99,0,0,1,1.637-.5l-.54.364c2.427-5.907,2.733-12.429,3.746-18.691a21.152,21.152,0,0,1,.551-6.566,20,20,0,0,0,.663-3.06c.21-5.412.277-10.929.544-16.349.111-2.239.2-4.664,1.455-6.679a5.537,5.537,0,0,1,6.451-2.565c4.875,1.7,4.7,7.918,4.944,12.128.134,4.407-.185,8.79-.309,13.121.268,8.746-1.978,17.332-1.738,26.077-.132,4.448,1.293,8.527,1.3,13.027.934,2,1.747,7,2.85,9.948a27.612,27.612,0,0,0,1.364,3.151l-1.31.014c.687-1.346,1.416-2.877,2.039-4.264.518-.816,1.564-6.56,1.831-7.576v.326a13.06,13.06,0,0,1,.168-4.819c.966-4.668,3.939-8.731,7.474-11.775,3.676-2.418,8.675-.47,8.247,4.325-.109,1.623-.345,3.52-.58,5.12a7.8,7.8,0,0,1-.237,1.061.925.925,0,0,1-.111.228l.13-.368a37.278,37.278,0,0,0-.216,3.905,13.418,13.418,0,0,1,.37,4.29,28.345,28.345,0,0,1-1.522,4.933c-.385,1.411-1.067,4.3-1.35,6.223-.35,3.113-.525,6.665-.936,9.807-.05.4-.12,1.246-.155,1.652a20.485,20.485,0,0,1-3.7,7.683c-4.956,7.212-9.8,14.569-14.539,21.947-1.917,3.247-4.371,6.294-5.577,9.875-4.549,12.935-11.838,24.918-14.633,38.418Z" style="fill:#30373e"/><path d="M63.242,174.937a58.764,58.764,0,0,0-8.914,11.025,45.73,45.73,0,0,0-5.646,11.018c-.179.564-.276,1.15-.419,1.728,1.081-7.909,8.8-18.814,14.979-23.771Z" style="fill:#30373e"/><path d="M63.29,156a9.881,9.881,0,0,1,.525,4.5,18.724,18.724,0,0,0-.644,4.245,18.685,18.685,0,0,1-.1-4.318,8.93,8.93,0,0,0-1.163-3.853L63.29,156Z" style="fill:#30373e"/><path d="M80.141,147.149a13.025,13.025,0,0,1-2.9-1.595,3.589,3.589,0,0,1,2.9,1.595Z" style="fill:#30373e"/><path d="M79.732,148.514a8.3,8.3,0,0,1-5.471-2.769c1.522.94,3.84,2,5.471,2.769Z" style="fill:#30373e"/><path d="M80.442,135.809l-.6,1.687a.492.492,0,0,1-.77.221,10.818,10.818,0,0,0-2.652-1.609c-1.5-.553-1.457-1.291-1.721-2.013a9.18,9.18,0,0,1,.7-5.151c.823-1.382,3.868-.99,5.493,1.4" style="fill:none;stroke:#30373e;stroke-miterlimit:10;stroke-width:0.5px"/><path d="M43.367,127.578c-2.421-2.985-7.514-3.262-9.436.489-1.635,2.7-3.121,5.5-4.784,8.2A13.989,13.989,0,0,1,27,139.076l-.2.049a68.937,68.937,0,0,0-6.858,2.365,5.941,5.941,0,0,0-2.92,1.391,7.447,7.447,0,0,0-1.544,3.2c-3.806,2.268-9.088,3.957-9.011,9.11.285,6.589,2.443,14.054,3.65,20.613,1.21,6.981,3.6,13.678,4.139,20.835.469,4.86-1.646,9.42-3.105,13.921C6.44,223.877,1.2,236.99-4.26,250.011c3.415-9.55,11.147-30.6,14.241-39.85,1.329-4.39,3.352-8.764,2.858-13.423-.486-5.757-2.33-11.441-3.645-17.131-.451-2.164-1.707-8.118-2.18-10.364-.716-3.468-1.447-6.938-1.974-10.45-.364-2.427-.537-5.108.676-7.414,1.849-3.39,5.759-4.7,8.759-6.447l-.354.454a8.236,8.236,0,0,1,1.824-3.549,7.315,7.315,0,0,1,3.556-1.781,67.348,67.348,0,0,1,6.952-2.391l-.335.179c2.635-3.087,4.323-7.107,6.528-10.55a6.713,6.713,0,0,1,5.761-3.528,8.018,8.018,0,0,1,6.138,2.883l-1.178.929Z" style="fill:#30373e"/><path d="M27.207,138.87a15.513,15.513,0,0,0-3.249,5.657,16.076,16.076,0,0,1,2.088-6.607l1.161.95Z" style="fill:#30373e"/><polygon points="15.562 145.801 13.282 151.077 14.126 145.369 15.562 145.801 15.562 145.801" style="fill:#30373e"/><path d="M56.482,81.317c-1.565-2.031-5.312-2.584-7.118.049-.272,3.194-.02,5.567,2.763,5.577S56.144,84.917,56.482,81.317Z" style="fill:none;stroke:#30373e;stroke-miterlimit:10;stroke-width:0.5px"/><path d="M55.129,110.151a15.751,15.751,0,0,0-7.172-.017,7.441,7.441,0,0,1,7.172.017Z" style="fill:#30373e"/><path d="M55.135,112.657a8.043,8.043,0,0,1-6.583.166,27.8,27.8,0,0,0,6.583-.166Z" style="fill:#30373e"/><path d="M12.84,199.3a45.692,45.692,0,0,1,3.63-9.519c-.5,1.6-.948,3.218-1.336,4.841a26.668,26.668,0,0,0-.8,4.835L12.84,199.3Z" style="fill:#30373e"/></g></svg>
