<svg xmlns="http://www.w3.org/2000/svg" width="12" height="12" viewBox="0 0 12 12"><g id="below"><circle cx="6" cy="6" r="6" style="fill:#30373e"/></g><g id="illustration"><path d="M2.821,3.5a.084.084,0,0,0-.089-.006.086.086,0,0,0-.047.076V8.437a.086.086,0,0,0,.047.077.092.092,0,0,0,.039.009.086.086,0,0,0,.051-.016L6.2,6.054a.086.086,0,0,0,.036-.07.087.087,0,0,0-.036-.07Zm.7,3.453V5.04l1.326.949ZM7.756,3.538V8.462a.086.086,0,0,1-.086.086H7a.086.086,0,0,1-.086-.086V3.538A.086.086,0,0,1,7,3.452H7.67A.086.086,0,0,1,7.756,3.538Zm1.559,0V8.462a.086.086,0,0,1-.086.086H8.561a.086.086,0,0,1-.086-.086V3.538a.086.086,0,0,1,.086-.086h.668A.086.086,0,0,1,9.315,3.538Z" style="fill:#efefef"/></g></svg>
