<?xml version="1.0" encoding="UTF-8"?><svg id="uuid-1e159f1c-e5c1-4b2e-a769-eb648048a98b" xmlns="http://www.w3.org/2000/svg" width="90" height="77.8245" viewBox="0 0 90 77.8245"><polygon points="45.2975 1.6854 2.6236 76.1076 87.9714 76.2361 87.9714 76.2361 45.2975 1.6854" style="fill:#fff200; stroke-width:0px;"/><path d="m8.9443,72.9157L45,9.7846l36.0557,63.2651-72.1114-.134ZM45,0L.5,77.6069l89,.134h0L45,0Z" style="fill:#30373e; stroke-width:0px;"/><circle cx="44.3054" cy="52.6381" r="6.5169" style="fill:#30373e; stroke-width:0px;"/><polygon points="44.9072 48.9588 43.7037 48.9588 43.3134 33.2062 45.2975 33.2062 44.9072 48.9588" style="fill:#30373e; stroke-width:0px;"/><path d="m44.0075,48.9235l-1.1691.287-2.5349-9.2679c.5314-.1648,1.0735-.3029,1.6314-.3986l2.0725,9.3795Z" style="fill:#30373e; stroke-width:0px;"/><path d="m42.1902,49.5701l-.869.8331-6.8292-6.7588c.3778-.4084.7782-.7991,1.2136-1.1609l6.4846,7.0866Z" style="fill:#30373e; stroke-width:0px;"/><path d="m40.9395,51.0388l-.3361,1.156-9.2936-2.4387c.123-.5426.2744-1.0811.4706-1.6122l9.1591,2.8949Z" style="fill:#30373e; stroke-width:0px;"/><path d="m40.5908,52.936l.287,1.1691-9.2679,2.5349c-.1648-.5314-.3029-1.0735-.3986-1.6314l9.3795-2.0725Z" style="fill:#30373e; stroke-width:0px;"/><path d="m41.2374,54.7534l.8331.869-6.7588,6.8292c-.4084-.3778-.7991-.7782-1.1609-1.2136l7.0866-6.4846Z" style="fill:#30373e; stroke-width:0px;"/><path d="m42.7061,56.004l1.156.3361-2.4387,9.2936c-.5426-.123-1.0811-.2744-1.6122-.4706l2.8949-9.1591Z" style="fill:#30373e; stroke-width:0px;"/><path d="m44.6033,56.3528l1.1691-.287,2.5349,9.2679c-.5314.1648-1.0735.3029-1.6314.3986l-2.0725-9.3795Z" style="fill:#30373e; stroke-width:0px;"/><path d="m46.4207,55.7061l.869-.8331,6.8292,6.7588c-.3778.4084-.7782.7991-1.2136,1.1609l-6.4846-7.0866Z" style="fill:#30373e; stroke-width:0px;"/><path d="m47.6713,54.2375l.3361-1.156,9.2936,2.4387c-.123.5426-.2744,1.0811-.4706,1.6122l-9.1591-2.8949Z" style="fill:#30373e; stroke-width:0px;"/><path d="m48.02,52.3403l-.287-1.1691,9.2679-2.5349c.1648.5314.3029,1.0735.3986,1.6314l-9.3795,2.0725Z" style="fill:#30373e; stroke-width:0px;"/><path d="m47.3734,50.5229l-.8331-.869,6.7588-6.8292c.4084.3778.7991.7782,1.1609,1.2136l-7.0866,6.4846Z" style="fill:#30373e; stroke-width:0px;"/><path d="m45.9048,49.2723l-1.156-.3361,2.4387-9.2936c.5426.123,1.0811.2744,1.6122.4706l-2.8949,9.1591Z" style="fill:#30373e; stroke-width:0px;"/><polygon points="43.7037 56.3175 44.9072 56.3175 45.2975 72.0701 43.3134 72.0701 43.7037 56.3175" style="fill:#30373e; stroke-width:0px;"/><polygon points="47.9848 53.2399 47.9848 52.0364 71.3488 51.6461 71.3488 53.6302 47.9848 53.2399" style="fill:#30373e; stroke-width:0px;"/><polygon points="40.6261 52.0364 40.6261 53.2399 24.8735 53.6302 24.8735 51.6461 40.6261 52.0364" style="fill:#30373e; stroke-width:0px;"/><polygon points="41.4446 50.2475 40.832 51.2835 27.0737 43.6019 28.0836 41.894 41.4446 50.2475" style="fill:#30373e; stroke-width:0px;"/><polygon points="47.1663 55.0288 47.7789 53.9928 61.5371 61.6744 60.5273 63.3823 47.1663 55.0288" style="fill:#30373e; stroke-width:0px;"/><polygon points="46.6961 49.7773 45.6601 49.1647 53.3417 35.4064 55.0496 36.4163 46.6961 49.7773" style="fill:#30373e; stroke-width:0px;"/><polygon points="41.9148 55.499 42.9508 56.1116 35.2692 69.8699 33.5613 68.86 41.9148 55.499" style="fill:#30373e; stroke-width:0px;"/><polygon points="40.794 53.8911 41.3762 54.9445 27.7776 62.9054 26.8179 61.1688 40.794 53.8911" style="fill:#30373e; stroke-width:0px;"/><polygon points="47.8168 51.3852 47.2347 50.3318 60.8333 42.3709 61.793 44.1075 47.8168 51.3852" style="fill:#30373e; stroke-width:0px;"/><polygon points="43.0525 49.1267 41.9991 49.7089 34.0382 36.1103 35.7748 35.1506 43.0525 49.1267" style="fill:#30373e; stroke-width:0px;"/><polygon points="45.5584 56.1495 46.6118 55.5674 54.5727 69.166 52.8361 70.1257 45.5584 56.1495" style="fill:#30373e; stroke-width:0px;"/></svg>