<?xml version="1.0" encoding="UTF-8"?><svg xmlns="http://www.w3.org/2000/svg" width="161.7489" height="161.7489" viewBox="0 0 161.7489 161.7489"><g id="uuid-b76fcac2-0acf-4377-8983-55aef8bcf8a9"><path d="m138.8086,83.1979l1.0368-1.144-.0648-4.4195c-.0192-1.3132.4196-2.592,1.2412-3.6166l4.2517-5.3027c-2.627-6.461-4.2684-12.428-1.278-20.6609,2.9288-8.0633,5.835-15.2676,8.6004-21.6231l-.4472-.2935c-6.7164-4.4073-12.1323-7.3552-20.0545-11.6485-8.2537-4.473-13.577-6.7762-18.3179-8.8927-2.982-1.3312-5.9373-.7189-8.7862.7189s-25.088,14.5931-38.686,23.5098c-6.4965,4.26-7.8011,7.242-7.8011,8.946,0,.6007.0025,1.4556.2045,2.3682,0,0-17.0936,10.82-24.1225,15.5415s-8.449,8.6265-8.4845,10.934c-1.6685,2.911-1.5653,6.0307-1.103,7.9632,1.1312,4.7283,2.9725,10.0881,5.3716,14.1953l-.0082.0048c-.0779.1718-.1447.3586-.2049.5647-.1771.6061-3.7317,13.4712-6.2637,22.7429l-3.3411,12.2346s2.2054,1.0531,3.2459.6974c.3886,1.6525,1.9794,2.8554,3.3899,4.3523,1.8832,1.9985,5.3393,5.115,9.7494,8.9198,4.4101,3.8048,9.6562,7.4655,12.2792,8.7915,1.5792.7983,2.534,1.1099,3.665.7823l.0478.0176c-.1441.3911-.2772.7404-.3973,1.0408-.4911,1.2291.5308,2.0287,2.2658,2.9903,1.5323-1.3366,3.0264-2.624,4.3801-3.765l.6039-.5218c1.6507-1.4644,4.473-4.1801,4.473-4.1801,0,0,2.4584-1.3224,4.9789-3.4169.4127-.343,2.1641-1.8004,4.9999-4.1519.2591-1.2185.5461-2.2969.8522-3.368,0,0,0-5.3688,4.8407-16.1065,4.8407-10.7376,15.8686-17.9309,25.1405-21.8543,9.2813-3.9274,16.7487-7.2685,22.3526-9.382l.3299-.1244c-.0331-.0434-.0648-.0879-.0949-.1335-.6555-.9926-2.1464-3.5974-3.2788-8.18-.2041-.8261.0446-1.6993.6544-2.2927l5.6694-5.5172c.5524-.5376,1.3981-.6343,2.0576-.2355l3.5628,2.1546c.3087.1867.5224.497.5867.852l1.9027,10.5091Z" style="fill:#cfd2d4; stroke-width:0px;"/><path d="m6.6302,131.22l3.4449-2.1353c3.0791-1.9086,5.4772-3.3984,6.0303-3.7509,1.6896-1.0769,2.4466-.6814,4.2694.0851,1.5076.6339,2.3818.9542,3.4223.5985" style="fill:none; stroke:#30373e; stroke-linecap:round; stroke-linejoin:round; stroke-width:.5px;"/><line x1="6.5443" y1="123.8978" x2="22.8641" y2="113.7167" style="fill:none; stroke:#30373e; stroke-linecap:round; stroke-linejoin:round;"/><path d="m8.4778,137.6356l3.3414-2.1192c1.9648-1.2461,3.375-2.1362,3.6555-2.3028,1.136-.6745,2.4398-.8592,3.5259.4662,2.0945,2.556,5.5965,6.5737,11.7504,11.7149,10.2891,8.596,17.0656,12.2137,18.1172,12.7538" style="fill:none; stroke:#30373e; stroke-linecap:round; stroke-linejoin:round; stroke-width:.5px;"/><path d="m27.183,82.8408c-1.7463.9586-5.3444,2.8061-10.5739,4.8662-2.8595,1.1265-5.346,1.8948-7.5737,2.3233-2.5003.481-5.4367.0254-5.4367.0254" style="fill:none; stroke:#a6abb0; stroke-linecap:round; stroke-linejoin:round; stroke-width:.5px;"/><path d="m115.1038,6.1878c.4703-1.5768.912-3.0727,1.321-4.4688" style="fill:none; stroke:#a6abb0; stroke-linecap:round; stroke-linejoin:round; stroke-width:.5px;"/><path d="m24.2743,2.6687c3.8813,5.4933,8.1527,9.723,14.4571,10.4494,1.4626,1.4951,6.8586,4.9031,17.4376,11.3641,4.0546,2.4763,7.1855,4.3695,9.5051,5.7628" style="fill:none; stroke:#a6abb0; stroke-linecap:round; stroke-linejoin:round; stroke-width:.5px;"/><path d="m38.7314,13.1181c-1.2741-.9715-2.7476-3.5907-3.1933-8.0822" style="fill:none; stroke:#a6abb0; stroke-linecap:round; stroke-linejoin:round; stroke-width:.5px;"/><path d="m84.2993,3.0711c-2.0208,6.977-3.3749,12.9336-4.2146,18.0361" style="fill:none; stroke:#a6abb0; stroke-linecap:round; stroke-linejoin:round; stroke-width:.5px;"/><path d="m110.9957,1.3525c-.3146,1.1246-.6498,2.3092-.9965,3.5137" style="fill:none; stroke:#a6abb0; stroke-linecap:round; stroke-linejoin:round; stroke-width:.5px;"/><path d="m20.4561,10.7083c6.2544.3239,12.4156.4996,12.4156.4996" style="fill:none; stroke:#a6abb0; stroke-linecap:round; stroke-linejoin:round; stroke-width:.5px;"/><path d="m18.2551,21.5712c6.958.781,9.798,2.201,15.1229,5.183,5.325,2.982,15.0322,8.874,19.8089,12.5669,1.519,1.1744,2.6679,2.2122,3.5284,3.0815" style="fill:none; stroke:#a6abb0; stroke-linecap:round; stroke-linejoin:round; stroke-width:.5px;"/><path d="m27.2196,63.8682c-5.6019,2.7289-10.5848,5.1275-15.6384,7.4738-.35.1625-3.1675,1.6281-7.0711,2.1075" style="fill:none; stroke:#a6abb0; stroke-linecap:round; stroke-linejoin:round; stroke-width:.5px;"/><path d="m11.5065,11.4311c3.3376.2124,6.8039.7451,10.982,1.6846,12.8007,2.8783,14.3318,4.3481,21.8305,8.6655,5.9247,3.4112,11.0725,6.6805,17.8933,11.1156" style="fill:none; stroke:#a6abb0; stroke-linecap:round; stroke-linejoin:round; stroke-width:.5px;"/><path d="m25.8734,68.033c-2.8582,1.524-5.9387,3.139-9.0494,4.7237-1.1663.5942-2.2625,1.1406-3.3042,1.6237-3.9974,1.8537-7.8959,2.8156-7.8959,2.8156" style="fill:none; stroke:#a6abb0; stroke-linecap:round; stroke-linejoin:round; stroke-width:.5px;"/><path d="m25.3141,107.1017c-4.6614,1.3914-9.945,1.9955-15.437,1.6572-2.8132-.1733-5.7229-1.254-5.7229-1.254" style="fill:none; stroke:#a6abb0; stroke-linecap:round; stroke-linejoin:round; stroke-width:.5px;"/></g><g id="uuid-bc4f741c-4305-4ecc-9557-5c876a910df8"><path d="m133.1612,69.9269c1.9795-1.4939,3.3706-2.5584,3.9651-3.0401,2.5728-2.0846,4.5204-2.3569,6.188-1.9301" style="fill:none; stroke:#30373e; stroke-linecap:round; stroke-linejoin:round; stroke-width:.5px;"/><path d="m30.3702,89.7724c.0175.0315.0355.063.0539.0942,1.3322,2.2621,7.5512,7.9049,13.8347,12.6974,6.2835,4.7925,13.9036,9.4603,18.2701,11.111,4.3665,1.6507,8.8873,1.7222,14.5318-2.2716,4.0122-2.8388,30.4009-22.2964,46.9401-34.6191" style="fill:none; stroke:#30373e; stroke-linecap:round; stroke-linejoin:round; stroke-width:.5px;"/><path d="m145.6801,41.2728c-12.7973,9.167-61.3831,45.241-68.1403,49.5941-7.384,4.757-12.6734,6.177-18.1049,4.26-5.4315-1.917-13.7633-7.2259-19.9456-11.7069-6.1823-4.481-11.1944-9.7379-12.1818-10.942-1.4555-1.775-1.2674-4.1018-1.207-4.8635" style="fill:none; stroke:#30373e; stroke-linecap:round; stroke-linejoin:round; stroke-width:.5px;"/><path d="m100.4864,66.0315c-12.3762,9.0711-23.7499,17.3527-26.5889,19.1817-9.0354,5.8208-13.4567,2.953-18.0616.3578-2.3056-1.2994-7.8875-4.6199-12.1251-7.6913-5.2624-3.8143-9.8822-7.8023-11.046-9.0843-2.2948-2.5279-3.441-5.4258,3.3489-9.9883,6.1693-4.1455,20.4317-13.2005,23.5709-15.1906" style="fill:none; stroke:#30373e; stroke-linecap:round; stroke-linejoin:round; stroke-width:.5px;"/><path d="m25.6232,77.9892s.6176,2.1892,3.7563,5.1432c2.8946,2.7242,7.8834,6.9778,12.6622,10.4963,4.7787,3.5184,12.6463,8.102,16.9531,10.0434,4.9842,2.2467,7.0548,1.5189,7.7808,3.6101.4492,1.294.5628,1.6582.8243,2.4706.6433,1.9983-2.4047,1.8935-6.8066.2605-4.908-1.8207-11.5113-6.1535-18.7887-11.656-7.2775-5.5025-10.579-9.0525-11.5019-10.011s-2.3465-3.023-2.8126-4.1785" style="fill:none; stroke:#30373e; stroke-linecap:round; stroke-linejoin:round; stroke-width:.5px;"/><path d="m93.4709,65.6929l4.0277,2.5274c-11.1773,8.1834-20.9924,15.3123-23.601,16.993-9.0354,5.8208-13.4567,2.953-18.0616.3578-2.3056-1.2994-7.8875-4.6199-12.1251-7.6913-3.5203-2.5516-6.753-5.1809-8.8559-7.0259-.9663-2.389.2892-4.0726,5.2891-7.3519,5.3436-3.5048,21.848-14.4077,24.0526-15.8642" style="fill:none; stroke:#30373e; stroke-linecap:round; stroke-linejoin:round; stroke-width:.5px;"/><path d="m65.5195,87.1495c-.2475-.1727-27.5046-19.1892-27.5046-19.1892-.4607-.3214-.7372-.1532-.9706.1454-1.5621,1.9994-.3042,3.7294,9.3376,10.4774,13.0381,9.125,16.7206,9.5189,19.0798,9.079.3977-.0741.3053-.3401.0578-.5127Z" style="fill:none; stroke:#30373e; stroke-linecap:round; stroke-linejoin:round; stroke-width:.5px;"/><path d="m37.5401,67.7895s.0845,1.5978,1.668,5.4189" style="fill:none; stroke:#30373e; stroke-linecap:round; stroke-linejoin:round; stroke-width:.5px;"/><path d="m116.4507,56.0202c-16.8277,12.3632-37.77,27.7497-41.8074,30.3509-4.1473,2.6715-7.4576,3.6136-10.246,3.6136-3.5613,0-6.2721-1.5353-8.7951-2.9637l-.4425-.2502c-2.3774-1.3398-7.9985-4.6894-12.257-7.776-5.3443-3.8738-10.0488-7.9424-11.2574-9.2738-1.1215-1.2354-2.3743-2.9368-2.1055-5.1479.2777-2.2844,2.0909-4.4799,5.7057-6.909,5.8277-3.9158,19.0293-12.3122,23.8083-15.3415" style="fill:none; stroke:#30373e; stroke-linecap:round; stroke-linejoin:round; stroke-width:.5px;"/><path d="m62.9612,113.833c-.6834-.2263-.903-.9387-.903-.9387,0,0-.3089-.6966-.7789-1.9836-.0889-.2434-.1157-.5078-.1094-.7602" style="fill:none; stroke:#30373e; stroke-linecap:round; stroke-linejoin:round; stroke-width:.5px;"/><path d="m59.4349,95.1269l-.2381.5163c-.0869.1884-.1475.3877-.1802.5926l-.3479,2.1804c-.0642.4023-.0692.8194-.0129,1.2229.108.7743.3192,2.1923.6223,3.7925.0471.2488.2161.4586.4493.5572l.1657.0701" style="fill:none; stroke:#30373e; stroke-linecap:round; stroke-linejoin:round; stroke-width:.5px;"/><path d="m27.4264,72.6194c-.4206.2313-.7134.4709-.9264,2.521-.1819,1.751.0239,2.411.2929,3.6742.4106,1.9287.5793,2.1827,1.0049,2.6644" style="fill:none; stroke:#30373e; stroke-linecap:round; stroke-linejoin:round; stroke-width:.5px;"/><path d="m24.7037,72.9558s-.0807,1.5354,1.7374,3.7664c1.8181,2.231,5.8549,5.6911,12.3907,10.6122,6.5358,4.9211,14.8222,9.7251,19.7907,11.9174,4.9685,2.1923,11.5044,2.5768,22.423-5.5738,9.5379-7.1198,48.2366-35.5969,62.5104-46.094" style="fill:none; stroke:#30373e; stroke-linecap:round; stroke-linejoin:round; stroke-width:.5px;"/><path d="m58.7076,41.1391c.0519.2344.1169.4726.1985.7113.7037,2.0594,1.1209,2.9057,2.3115,3.805.2611.1972.6009.2614.9158.1724l.0131-.0037c5.7187,5.2324,10.3457,7.9858,11.7144,8.7507.2496.1395.5575.1266.7943-.0336l.5026-.3399.3193.8934c.214.5987.6394,1.0986,1.1962,1.4055l13.2573,7.3082c.2829.156.6196.1841.9245.0768,0,0,0,0,0,0l.2035.407c.0921.1841.2309.3375.4044.4482,3.2133,2.0489,9.4476,2.7753,15.5977-1.7388,3.2744-2.4033,6.5415-4.8037,9.6667-7.0997,14.017-10.2977,26.6364-19.5317,29.3458-21.3438,1.317-.8804,2.4422-1.5646,3.4363-2.0995" style="fill:none; stroke:#30373e; stroke-linecap:round; stroke-linejoin:round; stroke-width:.5px;"/><g id="uuid-c33fefb8-0660-446f-b6af-3156bbfe2349"><path d="m152.5602,25.5104c-6.7459-4.4267-12.1876-7.3882-20.1086-11.6808-7.641-4.1409-12.7827-6.4302-17.2583-8.423-.3749-.1669-.7448-.3316-1.1112-.4952-1.3233-.5907-2.6478-.8307-3.9589-.7996-1.8916.0449-3.7258.653-5.4709,1.5338-2.8875,1.4573-25.1551,14.6313-38.7593,23.5522-4.2473,2.7851-6.3938,5.0879-7.3888,6.9302-.5488,1.016-.7511,1.8997-.7511,2.6429,0,.4944.0005,1.2107.1241,2.0064-2.6915,1.7059-17.3313,10.9958-23.7103,15.2806-4.1961,2.8186-6.49,5.3937-7.6789,7.5838-.787,1.4498-1.085,2.7227-1.1314,3.766-1.6923,3.0742-1.5723,6.3215-1.0884,8.3445,1.1124,4.6501,2.9112,9.9338,5.2623,14.0852-.0338.0963-.065.1945-.0943.2948-.1794.6143-3.7364,13.488-6.2673,22.7556l-3.3411,12.2346" style="fill:none; stroke:#30373e; stroke-linecap:round; stroke-linejoin:round; stroke-width:.5px;"/><path d="m152.423,25.7195c-6.7361-4.4202-12.1692-7.3772-20.0906-11.6701-7.6324-4.1363-12.767-6.4224-17.2409-8.4144-.3749-.1669-.7449-.3317-1.1114-.4953-1.2882-.5751-2.5757-.8083-3.8511-.778-1.8421.0438-3.6391.6364-5.3642,1.507-2.8746,1.4508-25.1327,14.6186-38.7349,23.538-4.2314,2.7747-6.3391,5.0499-7.3059,6.84-.5318.9847-.721,1.8278-.721,2.5241,0,.5286.001,1.2918.1477,2.129-2.274,1.4409-17.3481,11.0018-23.8445,15.3656-4.1742,2.8038-6.4346,5.3514-7.5986,7.4955-.7847,1.4454-1.0676,2.7018-1.1037,3.716-1.6838,3.0199-1.5694,6.2244-1.0927,8.217,1.1183,4.6744,2.9302,9.9815,5.2936,14.1203-.0471.1247-.0896.2539-.1288.3879-.1786.6116-3.7348,13.4824-6.2661,22.7514l-3.3411,12.2346" style="fill:none; stroke:#30373e; stroke-linecap:round; stroke-linejoin:round; stroke-width:.5px;"/><path d="m152.2859,25.9285c-6.7262-4.4137-12.1508-7.3662-20.0725-11.6593-7.6238-4.1316-12.7514-6.4147-17.2235-8.4058-.3749-.1669-.745-.3317-1.1116-.4954-1.2531-.5594-2.5037-.7858-3.7432-.7563-1.7926.0426-3.5523.6197-5.2575,1.4803-2.8618,1.4443-25.1104,14.6058-38.7104,23.5239-4.2156,2.7643-6.2844,5.0118-7.223,6.7497-.5149.9533-.691,1.756-.691,2.4053,0,.5639.0017,1.3735.1744,2.2497-1.6779,1.0628-17.3306,10.9848-23.9818,15.4525-4.1523,2.7891-6.3793,5.3092-7.5183,7.4073-.7829,1.4421-1.0499,2.682-1.0754,3.6656-1.6759,2.9655-1.567,6.1274-1.0975,8.0899,1.1245,4.7004,2.9506,10.0327,5.3271,14.1583-.0618.1502-.1161.3091-.1655.4782-.1779.6089-3.7333,13.4768-6.2649,22.7471l-3.3411,12.2346" style="fill:none; stroke:#30373e; stroke-linecap:round; stroke-linejoin:round; stroke-width:.5px;"/></g><path d="m152.1487,26.1375c-6.7164-4.4073-12.1323-7.3552-20.0545-11.6485-8.2537-4.473-13.577-6.7762-18.3179-8.8927-2.982-1.3312-5.9373-.7189-8.7862.7189s-25.088,14.5931-38.686,23.5098c-6.4965,4.26-7.8011,7.242-7.8011,8.946,0,.6007.0025,1.4556.2045,2.3682h0s-17.0936,10.82-24.1226,15.5415-8.449,8.6265-8.4845,10.934c-1.6685,2.911-1.5653,6.0307-1.103,7.9632,1.1312,4.7283,2.9725,10.0881,5.3716,14.1953l-.0082.0048c-.0779.1718-.1447.3586-.2049.5647-.1771.6061-3.7317,13.4712-6.2637,22.7429l-3.3411,12.2346" style="fill:none; stroke:#30373e; stroke-linecap:round; stroke-linejoin:round; stroke-width:.5px;"/><path d="m90.3934,37.3363c2.6867,1.4789,4.7842.2606,5.7484-.3936.994-.6745,23.0749-15.1229,31.9587-20.51,3.022-1.8325,5.1763-1.3026,6.1512-.7736" style="fill:none; stroke:#30373e; stroke-linecap:round; stroke-linejoin:round; stroke-width:.5px;"/><path d="m127.1771,11.8972c-.9749-.529-3.1292-1.0589-6.1512.7736-8.8838,5.3871-30.9651,19.835-31.9587,20.51-2.0102,1.3657-1.5828,2.2048.2111,3.4638.3305.2319.4877.5156.5623.7267" style="fill:none; stroke:#30373e; stroke-linecap:round; stroke-linejoin:round; stroke-width:.5px;"/><path d="m131.7172,14.2852c-.9749-.529-3.1292-1.0589-6.1512.7736-8.8838,5.3871-30.9647,19.8355-31.9587,20.51l-2.6375,1.7897c-.1409.0956-.3233.1048-.4732.0239l-.0056-.003c-.2172-.1173-.4802-.1115-.6922.0148-1.8415,1.0966-9.2347,5.6636-15.1386,13.0669-.4192.5256-.5748,1.2171-.4201,1.8714l.0105.0443c.0607.2568.2137.4823.4299.6337l.1968.1378.2804,1.0529" style="fill:none; stroke:#30373e; stroke-linecap:round; stroke-linejoin:round; stroke-width:.5px;"/><path d="m74.8774,53.1483c2.8689,1.8501,9.8283,5.6343,12.1258,6.8279,1.894.984,2.6914,1.7867,3.852,3.909" style="fill:none; stroke:#30373e; stroke-linecap:round; stroke-linejoin:round; stroke-width:.5px;"/><path d="m72.9024,54.0166c-.2799-.1708-.4734-.4532-.5316-.776l-.1848-1.025c-.0766-.4247-.3188-.8016-.6733-1.0477-1.6361-1.1358-6.5266-4.5642-9.579-7.0583l.1664,1.3402c.03.2415.1458.4641.3262.6273l.4167.3768" style="fill:none; stroke:#30373e; stroke-linecap:round; stroke-linejoin:round; stroke-width:.5px;"/><path d="m58.5031,38.7709c0,1.0897,1.6241,2.3962,3.7009,4.0736,2.0767,1.6774,6.0438,4.7126,10.1444,7.3123.6764.4288,1.4897.1039,1.8914-.3999,5.3627-6.7246,11.924-11.0912,14.4619-12.657.5815-.3588.2275-.7086-.0055-.8899" style="fill:none; stroke:#30373e; stroke-linecap:round; stroke-linejoin:round; stroke-width:.5px;"/><path d="m74.3314,51.0395s7.3116,4.4677,15.6452,8.3017c5.3909,2.4801,8.5214,1.9033,13.0728-1.3579,11.9279-8.5466,30.7194-22.1871,39.7776-28.1957,4.7312-3.1384,7.6177-3.5816,9.2547-3.2827" style="fill:none; stroke:#30373e; stroke-linecap:round; stroke-linejoin:round; stroke-width:.5px;"/><path d="m23.9411,123.8614c.3624-1.4375,4.254-16.7356,5.248-19.6466.994-2.911,2.485-4.189,4.26-2.627s5.751,4.828,9.585,7.881c3.834,3.053,7.81,5.68,11.5729,7.952,3.763,2.272,5.822,7.1,4.828,10.863-.876,3.3163-5.2046,17.3853-6.9037,21.6379-.4911,1.2291.5308,2.0287,2.2658,2.9903" style="fill:none; stroke:#30373e; stroke-linecap:round; stroke-linejoin:round; stroke-width:.5px;"/><path d="m74.2328,136.8763c-2.8358,2.3515-4.5872,3.8089-4.9999,4.1519-2.5205,2.0945-4.9789,3.4169-4.9789,3.4169,0,0-2.8222,2.7157-4.473,4.1801l-.6039.5218c-3.7921,3.1963-8.6859,7.5397-12.4325,10.9019" style="fill:none; stroke:#30373e; stroke-linecap:round; stroke-linejoin:round; stroke-width:.5px;"/><line x1="64.1471" y1="144.5477" x2="74.6795" y2="112.8866" style="fill:none; stroke:#30373e; stroke-linecap:round; stroke-linejoin:round; stroke-width:.5px;"/><line x1="52.6146" y1="157.9949" x2="73.7459" y2="139.6023" style="fill:none; stroke:#30373e; stroke-linecap:round; stroke-linejoin:round; stroke-width:.5px;"/><g id="uuid-da75a34a-f185-4aed-bfda-fca214dfd859"><path d="m127.0659,85.2299c-3.8854,1.4654-8.6524,3.5137-14.2558,5.921-2.5364,1.0897-5.2473,2.2544-8.1335,3.4757-9.3601,3.9608-20.6681,11.286-25.6624,22.3642-4.4199,9.8042-4.8767,15.3732-4.9237,16.3589-1.0667,3.753-1.8921,7.6384-2.1254,16.9441-.1116,4.4497.0385,7.4233.4537,9.6248" style="fill:none; stroke:#a6abb0; stroke-linecap:round; stroke-linejoin:round; stroke-width:.5px;"/><path d="m127.1541,85.4638c-3.8789,1.4629-8.64,3.5086-14.2454,5.9168-2.5363,1.0897-5.2478,2.2546-8.1348,3.4762-9.3381,3.9514-20.576,11.2437-25.5319,22.2367-4.4727,9.9214-4.8687,15.4449-4.9036,16.298-1.0638,3.7381-1.8901,7.5988-2.1235,16.9084-.1114,4.4447.0392,7.3972.4494,9.5722" style="fill:none; stroke:#a6abb0; stroke-linecap:round; stroke-linejoin:round; stroke-width:.5px;"/><path d="m127.2423,85.6977c-3.8724,1.4605-8.6277,3.5036-14.2349,5.9126-2.5362,1.0896-5.2484,2.2548-8.1361,3.4768-9.316,3.9421-20.4839,11.2013-25.4015,22.1093-4.5368,10.0635-4.8602,15.5392-4.8832,16.2359-1.0611,3.7237-1.8884,7.5593-2.122,16.8741-.1113,4.4398.04,7.371.4452,9.5196" style="fill:none; stroke:#a6abb0; stroke-linecap:round; stroke-linejoin:round; stroke-width:.5px;"/><path d="m127.3305,85.9316c-3.8659,1.4581-8.6153,3.4986-14.2245,5.9084-2.5362,1.0896-5.2489,2.2551-8.1373,3.4773-9.2939,3.9328-20.3918,11.159-25.271,21.9818-4.8539,10.7668-4.8628,16.2092-4.8532,16.1405-1.0628,3.7198-1.8956,7.5249-2.1299,16.873-.1112,4.4348.0407,7.3449.4409,9.467" style="fill:none; stroke:#a6abb0; stroke-linecap:round; stroke-linejoin:round; stroke-width:.5px;"/></g><path d="m127.4188,86.1655c-5.6039,2.1135-13.0713,5.4546-22.3526,9.382-9.2719,3.9234-20.2997,11.1166-25.1405,21.8543-4.8407,10.7376-4.8407,16.1065-4.8407,16.1065-1.0562,3.6966-1.8865,7.4803-2.1204,16.8106-.1111,4.4299.0415,7.3188.4367,9.4144" style="fill:none; stroke:#a6abb0; stroke-linecap:round; stroke-linejoin:round; stroke-width:.5px;"/><g id="uuid-ea95e98b-cf23-4997-b42e-cba144bcfbfc"><path d="m159.1811,9.9977c-4.6946,9.317-10.3674,21.8624-16.1255,37.715-3.0273,8.3345-1.4673,14.4731,1.0717,20.8333l-3.8857,4.8462c-.967,1.206-1.4835,2.7112-1.4609,4.2568l.059,4.0254-1.0567,1.166c-.1307-.0229-.2635-.0411-.3984-.0551" style="fill:none; stroke:#a6abb0; stroke-linecap:round; stroke-linejoin:round; stroke-width:.5px;"/><path d="m159.4044,10.1102c-4.6904,9.3087-10.3593,21.8451-16.1138,37.6878-3.0185,8.3104-1.4376,14.4073,1.123,20.7905l-3.9769,4.96c-.9306,1.1606-1.4277,2.6093-1.406,4.0967l.0604,4.124-1.2169,1.3428c-.167-.034-.339-.0598-.5154-.0781" style="fill:none; stroke:#a6abb0; stroke-linecap:round; stroke-linejoin:round; stroke-width:.5px;"/><path d="m159.6276,10.2227c-4.6862,9.3003-10.3511,21.8277-16.102,37.6607-3.0095,8.2854-1.408,14.3399,1.1745,20.7475l-4.0684,5.074c-.8942,1.1153-1.372,2.5073-1.351,3.9367l.0619,4.2225-1.3804,1.5232c-.2005-.0475-.4105-.082-.6292-.1048" style="fill:none; stroke:#a6abb0; stroke-linecap:round; stroke-linejoin:round; stroke-width:.5px;"/><path d="m159.8509,10.3352c-4.682,9.292-10.3429,21.8104-16.0903,37.6335-3.0001,8.2596-1.3785,14.2708,1.2262,20.7043l-4.16,5.1883c-.8579,1.07-1.3162,2.4054-1.2961,3.7766l.0633,4.321-1.5478,1.708c-.23-.0637-.4766-.1084-.739-.1357" style="fill:none; stroke:#a6abb0; stroke-linecap:round; stroke-linejoin:round; stroke-width:.5px;"/></g><path d="m160.0742,10.4477c-4.6778,9.2837-10.3348,21.793-16.0786,37.6064-2.9904,8.2329-1.349,14.1999,1.278,20.6609l-4.2517,5.3027c-.8215,1.0246-1.2604,2.3034-1.2412,3.6166l.0648,4.4195-1.72,1.898c-.2541-.0829-.5355-.1399-.8441-.1719" style="fill:none; stroke:#a6abb0; stroke-linecap:round; stroke-linejoin:round; stroke-width:.5px;"/><path d="m138.1254,83.9519c3.2468,1.3508,5.391,4.9271,11.0354,4.6076,5.6445-.3195,8.5732-1.6507,8.5732-1.6507" style="fill:none; stroke:#a6abb0; stroke-linecap:round; stroke-linejoin:round; stroke-width:.5px;"/><path d="m145.2735,68.715c1.704,3.8695,3.5145,6.1592,5.3782,7.597,1.8637,1.4377,1.9702,1.5975,2.3962,3.834.5748,3.0179,1.3312,4.5262,4.686,6.7627.7032.4688,1.4573.8883,2.2321,1.2551" style="fill:none; stroke:#a6abb0; stroke-linecap:round; stroke-linejoin:round; stroke-width:.5px;"/><path d="m75.085,133.5083s-1.3224,11.4028,8.0893,21.3351" style="fill:none; stroke:#a6abb0; stroke-linecap:round; stroke-linejoin:round; stroke-width:.5px;"/><path d="m73.6836,140.036s-1.1742,9.134,5.9438,16.2469c.8856.885,1.7097,1.7069,2.4737,2.4679" style="fill:none; stroke:#a6abb0; stroke-linecap:round; stroke-linejoin:round; stroke-width:.5px;"/><path d="m73.0955,146.7416c-.0853,2.1815-.3554,6.3331,3.5763,11.7903" style="fill:none; stroke:#a6abb0; stroke-linecap:round; stroke-linejoin:round; stroke-width:.5px;"/><path d="m159.7998,107.2316c-3.1587-1.2111-6.2469-1.7088-10.6643-2.3793-9.0684-1.3765-11.9017-2.1974-39.0068,12.7105-18.1132,9.9623-24.5004,18.3162-24.5004,18.3162" style="fill:none; stroke:#a6abb0; stroke-linecap:round; stroke-linejoin:round; stroke-width:.5px;"/><path d="m159.5698,95.9636c-2.8005-.8657-5.7751-1.6608-9.1809-2.6004-10.295-2.84-14.2397-4.1186-26.1279.568-11.8881,4.6865-16.7841,7.6971-21.1626,10.027-4.3785,2.3299-9.7815,6.4268-13.5563,16.7399-5.1153,13.9756-4.9812,18.0088-.9973,23.4186,3.2767,4.4494,8.8154,9.8203,13.6451,14.1674" style="fill:none; stroke:#a6abb0; stroke-linecap:round; stroke-linejoin:round; stroke-width:.5px;"/><path d="m140.5809,85.3961l4.2798-5.1283c.546-.6278.759-1.107-.093-1.5863s-2.8222-1.5442-3.7275-2.0767-.8058-1.5327-.3159-2.1798" style="fill:none; stroke:#a6abb0; stroke-linecap:round; stroke-linejoin:round; stroke-width:.5px;"/><line x1="139.8454" y1="82.0539" x2="139.8949" y2="84.9261" style="fill:none; stroke:#a6abb0; stroke-linecap:round; stroke-linejoin:round; stroke-width:.5px;"/><path d="m146.4786,88.3982s4.3043-4.8398,6.5418-8.3964" style="fill:none; stroke:#a6abb0; stroke-linecap:round; stroke-linejoin:round; stroke-width:.5px;"/><g id="uuid-c4783911-c71d-4244-8646-c5b8a2efaa2d"><path d="m127.2365,86.1831c.2331.353.5435.6531.907.8729l2.1934,1.3264c.3266.1975.6997.2723,1.0589.2312s.7057-.1983.9793-.4645l6.0241-5.8624c.2-.1946.3451-.4327.4277-.6906s.1028-.536.0531-.8106l-1.4821-8.1859c-.0449-.2481-.142-.4806-.2818-.6836s-.3223-.3767-.5381-.5072l-3.5628-2.1546c-.4271-.2583-.9149-.3561-1.3846-.3023s-.9228.2592-1.2805.6073l-5.6694,5.5172c-.3683.3584-.6277.8013-.7642,1.279-.1368.4785-.1504.9925-.0269,1.492,1.1466,4.6402,2.6613,7.2974,3.347,8.3356Z" style="fill:none; stroke:#a6abb0; stroke-linecap:round; stroke-linejoin:round; stroke-width:.5px;"/><path d="m127.3408,86.1143c.223.3377.5199.6247.8674.8348l2.1934,1.3264c.3023.1828.6475.252.98.214s.6532-.1835.9063-.4299l6.0241-5.8624c.1851-.1801.3194-.4004.3958-.6392s.0952-.496.0491-.7502l-1.4821-8.1859c-.0417-.2304-.1319-.4464-.2618-.635s-.2994-.3499-.4998-.4711l-3.5628-2.1546c-.4028-.2436-.8627-.3358-1.3057-.2851s-.8702.2445-1.2075.5727l-5.6694,5.5172c-.3524.343-.6005.7667-.7312,1.2237-.1309.4579-.1439.9497-.0258,1.4277,1.143,4.6258,2.6518,7.2699,3.3299,8.2967Z" style="fill:none; stroke:#a6abb0; stroke-linecap:round; stroke-linejoin:round; stroke-width:.5px;"/><path d="m127.4451,86.0454c.2129.3224.4964.5963.8278.7967l2.1934,1.3264c.278.1681.5953.2318.9011.1968s.6006-.1687.8334-.3953l6.0241-5.8624c.1702-.1656.2936-.3682.3639-.5877s.0875-.4561.0452-.6898l-1.4821-8.1859c-.0385-.2128-.1218-.4122-.2418-.5864s-.2765-.3231-.4615-.435l-3.5628-2.1546c-.3784-.2289-.8105-.3155-1.2268-.2679s-.8176.2297-1.1346.5381l-5.6694,5.5172c-.3365.3275-.5734.732-.6982,1.1685-.125.4373-.1374.9069-.0246,1.3634,1.1395,4.6114,2.6423,7.2424,3.3129,8.2578Z" style="fill:none; stroke:#a6abb0; stroke-linecap:round; stroke-linejoin:round; stroke-width:.5px;"/><path d="m127.5495,85.9765c.2028.3071.4728.568.7881.7587l2.1934,1.3264c.2536.1534.5432.2115.8222.1795s.548-.1539.7604-.3607l6.0241-5.8624c.1553-.1511.2679-.3359.3321-.5362s.0798-.4162.0412-.6294l-1.4821-8.1859c-.0353-.1952-.1117-.378-.2217-.5377s-.2536-.2963-.4233-.399l-3.5628-2.1546c-.3541-.2141-.7583-.2952-1.1479-.2506s-.765.2149-1.0616.5035l-5.6694,5.5172c-.3206.312-.5463.6974-.6652,1.1133-.1191.4167-.1309.8641-.0235,1.299,1.1359,4.597,2.6328,7.2149,3.2958,8.2189Z" style="fill:none; stroke:#a6abb0; stroke-linecap:round; stroke-linejoin:round; stroke-width:.5px;"/></g><path d="m127.6538,85.9076c.1927.2918.4492.5396.7485.7206l2.1934,1.3264c.4586.2773,1.0466.21,1.4307-.1637l6.0241-5.8624c.2808-.2733.4073-.6683.3375-1.0538l-1.4821-8.1859c-.0643-.355-.2779-.6653-.5867-.852l-3.5628-2.1546c-.6596-.3989-1.5053-.3021-2.0576.2355l-5.6694,5.5172c-.6098.5935-.8586,1.4666-.6544,2.2927,1.1323,4.5826,2.6233,7.1874,3.2788,8.18Z" style="fill:none; stroke:#a6abb0; stroke-linecap:round; stroke-linejoin:round; stroke-width:.5px;"/><path d="m132.5244,70.5542c-.4219-.2602-.9648-.2007-1.3212.1437-1.462,1.4131-5.0918,4.9213-5.4555,5.2728-.4566.4413-.6019.9414-.1763,1.2856l3.1153,2.5193c.384.3106.9421.267,1.2741-.0988l5.5779-6.146c.4453-.4907.3863-.8793-.0077-1.1223l-3.0066-1.8544Z" style="fill:none; stroke:#a6abb0; stroke-linecap:round; stroke-linejoin:round; stroke-width:.5px;"/><path d="m126.1145,77.6956l.7632.6172c.1721.1391.3881.2124.6093.2068l2.5583-.3151,3.4638-3.8644.3698-2.4117c.0068-.3297-.1614-.6383-.442-.8114l-.5403-.3332" style="fill:none; stroke:#a6abb0; stroke-linecap:round; stroke-linejoin:round; stroke-width:.5px;"/><line x1="129.1443" y1="79.2096" x2="134.7867" y2="72.9146" style="fill:none; stroke:#a6abb0; stroke-linecap:round; stroke-linejoin:round; stroke-width:.5px;"/><path d="m28.9292,111.1441c.2657.8393,1.6263,2.2815,1.8763,2.5282.335.3306.6777.6689,1.0107,1.022,2.248,2.3853,5.8944,5.5791,9.6044,8.7798,4.4111,3.8057,8.3101,6.719,11.875,8.5205,1.3042.6602,2.0597,1.0401,2.7991,1.0401.519,0,1.2755-.3291,2.1818-.8628" style="fill:none; stroke:#30373e; stroke-linecap:round; stroke-linejoin:round; stroke-width:.5px;"/><path d="m57.7691,133.7305c-1.7122.9536-2.7097.7403-4.7696-.301-2.623-1.3259-7.8691-4.9866-12.2792-8.7915-4.4101-3.8048-8.0436-7.0237-9.9268-9.0222-.3948-.419-1.5835-1.5423-2.5338-2.7563-.7161-.9147-1.3947-1.976-.1692-2.6835" style="fill:none; stroke:#30373e; stroke-linecap:round; stroke-linejoin:round; stroke-width:.5px;"/><line x1="36.4063" y1="119.0086" x2="47.3422" y2="112.6948" style="fill:none; stroke:#30373e; stroke-linecap:round; stroke-linejoin:round; stroke-width:.5px;"/><path d="m52.8807,148.8632c-1.131.3276-2.0858.016-3.665-.7823-2.623-1.3259-7.8691-4.9866-12.2792-8.7915-4.4101-3.8048-7.8662-6.9213-9.7494-8.9198-1.8832-1.9985-4.0878-3.4731-3.3236-6.1931.0254-.0905,2.5673-9.9123,3.315-12.8015.1309-.5057.4595-.9379.9119-1.1991l9.2303-5.3291" style="fill:none; stroke:#30373e; stroke-linecap:round; stroke-linejoin:round; stroke-width:.5px;"/><path d="m94.4201,68.1821c.3199.1976.3323.5396.0277.76l-24.3421,17.607c-.3717.2689-.8729.2731-1.2491.0106l-29.2781-20.4265c-.3084-.2151-.304-.5608.0097-.768l23.7188-15.6698c.3506-.2316.8038-.2385,1.1613-.0177l29.9518,18.5044Z" style="fill:none; stroke:#30373e; stroke-linejoin:round; stroke-width:.5px;"/><path d="m76.4157,58.5168c-3.6498,2.4204-14.7624,10.1003-17.918,12.1813-.2808.1852-.4979.4464-.6305.7555l-.6352,1.4805.7897.5567c3.6531-2.4058,18.6102-12.713,20.1174-13.7128l-.8624-.7472-.861-.514Z" style="fill:none; stroke:#30373e; stroke-linecap:round; stroke-linejoin:round; stroke-width:.5px;"/><path d="m77.2767,59.0308c-3.6498,2.4204-14.8336,10.143-17.9892,12.224-.2808.1852-.4979.4464-.6305.7555l-.6352,1.4805" style="fill:none; stroke:#30373e; stroke-linecap:round; stroke-linejoin:round; stroke-width:.5px;"/><line x1="58.1449" y1="71.0096" x2="58.9596" y2="71.5408" style="fill:none; stroke:#30373e; stroke-linecap:round; stroke-linejoin:round; stroke-width:.5px;"/></g></svg>