<svg xmlns="http://www.w3.org/2000/svg" width="218" height="183.0414" viewBox="0 0 218 183.0414"><g id="a6aacb3b-b9cc-4bf6-9d46-ddbbc3f47c82" data-name="arrows below"><circle cx="70.0587" cy="125.3253" r="8.2222" style="fill:#f4ae3d"/><circle cx="26.5251" cy="125.3253" r="8.2222" style="fill:#f4ae3d"/><circle cx="148.0566" cy="125.3253" r="8.2222" style="fill:#f4ae3d"/><circle cx="191.5901" cy="125.3253" r="8.2222" style="fill:#f4ae3d"/></g><g id="b4d95a70-8876-438b-a1b1-63a9be2a95fb" data-name="illustration"><path d="M22.9226,127.1443a.971.971,0,0,0,.8413.4838h4.93a.9628.9628,0,0,0,.8428-.4935l.7833-1.3868a.974.974,0,0,0,.0956-.7341.9429.9429,0,0,0-.1657-.3338,1.0047,1.0047,0,0,0-.6459-.372.9845.9845,0,0,0-.3882.027.972.972,0,0,0-.5813.4552l-.51.9008H25.42a.97.97,0,0,0,.0658-.6773.9425.9425,0,0,0-.1659-.334.9571.9571,0,0,0-.2832-.2456.9164.9164,0,0,0-.3485-.125.986.986,0,0,0-.7364.1959.958.958,0,0,0-.2476.286l-.7814,1.391a.9519.9519,0,0,0-.1282.4735A.981.981,0,0,0,22.9226,127.1443Z" style="fill:none;stroke:#30373e;stroke-miterlimit:10;stroke-width:0.5px"/><path d="M23.1388,127.0188a.721.721,0,0,0,.6251.3593h4.93a.7129.7129,0,0,0,.6251-.3665l.7833-1.3868a.724.724,0,0,0,.0719-.5462.7028.7028,0,0,0-.3378-.4311.7128.7128,0,0,0-.5533-.0718.7223.7223,0,0,0-.4311.3377l-.5821,1.0275H24.9927l.18-.3161a.7235.7235,0,0,0,.0718-.5462.7033.7033,0,0,0-.3377-.4311.6917.6917,0,0,0-.5461-.0718.7168.7168,0,0,0-.4385.3377l-.7831,1.394A.7176.7176,0,0,0,23.1388,127.0188Z" style="fill:#f4ae3d"/><path d="M23.1388,127.0188a.721.721,0,0,0,.6251.3593h4.93a.7129.7129,0,0,0,.6251-.3665l.7833-1.3868a.724.724,0,0,0,.0719-.5462.7028.7028,0,0,0-.3378-.4311.7128.7128,0,0,0-.5533-.0718.7223.7223,0,0,0-.4311.3377l-.5821,1.0275H24.9927l.18-.3161a.7235.7235,0,0,0,.0718-.5462.7033.7033,0,0,0-.3377-.4311.6917.6917,0,0,0-.5461-.0718.7168.7168,0,0,0-.4385.3377l-.7831,1.394A.7176.7176,0,0,0,23.1388,127.0188Z" style="fill:#f4ae3d"/><path d="M23.1388,127.0188a.721.721,0,0,0,.6251.3593h4.93a.7129.7129,0,0,0,.6251-.3665l.7833-1.3868a.724.724,0,0,0,.0719-.5462.7028.7028,0,0,0-.3378-.4311.7128.7128,0,0,0-.5533-.0718.7223.7223,0,0,0-.4311.3377l-.5821,1.0275H24.9927l.18-.3161a.7235.7235,0,0,0,.0718-.5462.7033.7033,0,0,0-.3377-.4311.6917.6917,0,0,0-.5461-.0718.7168.7168,0,0,0-.4385.3377l-.7831,1.394A.7176.7176,0,0,0,23.1388,127.0188Z" style="fill:none;stroke:#30373e;stroke-miterlimit:10;stroke-width:0.5px"/><path d="M66.5846,127.254a.9953.9953,0,0,0,.3522.3.9527.9527,0,0,0,.4317.1041h4.93a.9657.9657,0,0,0,.9289-.6871l.423-1.3838a.9538.9538,0,0,0,.0418-.3794.9986.9986,0,0,0-.3362-.6472.9754.9754,0,0,0-.3445-.1868.9646.9646,0,0,0-.7311.0677.9782.9782,0,0,0-.48.5718l-.2186.7076-2.8661.0008.04-.1187a.9728.9728,0,0,0-.0578-.7429.9525.9525,0,0,0-.5523-.4769.97.97,0,0,0-1.0459.2845.9524.9524,0,0,0-.184.3252l-.4672,1.3875a.9684.9684,0,0,0,.1358.8734Z" style="fill:none;stroke:#30373e;stroke-miterlimit:10;stroke-width:0.5px"/><path d="M66.7865,127.1065a.7252.7252,0,0,0,.582.3018h4.93a.7158.7158,0,0,0,.69-.51l.424-1.3869a.7179.7179,0,0,0-.4743-.8982.7229.7229,0,0,0-.8983.4743l-.273.8838H68.3674l.151-.4455a.7193.7193,0,0,0-1.3655-.4527l-.467,1.3868A.7185.7185,0,0,0,66.7865,127.1065Z" style="fill:#f4ae3d"/><path d="M66.7865,127.1065a.7252.7252,0,0,0,.582.3018h4.93a.7158.7158,0,0,0,.69-.51l.424-1.3869a.7179.7179,0,0,0-.4743-.8982.7229.7229,0,0,0-.8983.4743l-.273.8838H68.3674l.151-.4455a.7193.7193,0,0,0-1.3655-.4527l-.467,1.3868A.7185.7185,0,0,0,66.7865,127.1065Z" style="fill:#f4ae3d"/><path d="M66.7865,127.1065a.7252.7252,0,0,0,.582.3018h4.93a.7158.7158,0,0,0,.69-.51l.424-1.3869a.7179.7179,0,0,0-.4743-.8982.7229.7229,0,0,0-.8983.4743l-.273.8838H68.3674l.151-.4455a.7193.7193,0,0,0-1.3655-.4527l-.467,1.3868A.7185.7185,0,0,0,66.7865,127.1065Z" style="fill:none;stroke:#30373e;stroke-miterlimit:10;stroke-width:0.5px"/><path d="M195.1926,127.1443a.971.971,0,0,1-.8412.4838h-4.93a.9628.9628,0,0,1-.8428-.4935l-.7832-1.3868a.9736.9736,0,0,1-.0957-.7341.9445.9445,0,0,1,.1657-.3338,1.0047,1.0047,0,0,1,.6459-.372.9852.9852,0,0,1,.3883.027.9725.9725,0,0,1,.5813.4552l.51.9008h2.7039a.97.97,0,0,1-.0658-.6773.9459.9459,0,0,1,.1659-.334.9571.9571,0,0,1,.2832-.2456.917.917,0,0,1,.3485-.125.9864.9864,0,0,1,.7365.1959.9591.9591,0,0,1,.2475.286l.7814,1.391a.9519.9519,0,0,1,.1282.4735A.98.98,0,0,1,195.1926,127.1443Z" style="fill:none;stroke:#30373e;stroke-miterlimit:10;stroke-width:0.5px"/><path d="M194.9764,127.0188a.7209.7209,0,0,1-.625.3593h-4.93a.7129.7129,0,0,1-.6251-.3665l-.7833-1.3868a.7235.7235,0,0,1-.0718-.5462.7023.7023,0,0,1,.3377-.4311.7129.7129,0,0,1,.5533-.0718.7223.7223,0,0,1,.4311.3377l.5821,1.0275h3.2767l-.18-.3161a.7236.7236,0,0,1-.0719-.5462.7033.7033,0,0,1,.3377-.4311.6918.6918,0,0,1,.5462-.0718.7169.7169,0,0,1,.4384.3377l.7831,1.394A.7176.7176,0,0,1,194.9764,127.0188Z" style="fill:#f4ae3d"/><path d="M194.9764,127.0188a.7209.7209,0,0,1-.625.3593h-4.93a.7129.7129,0,0,1-.6251-.3665l-.7833-1.3868a.7235.7235,0,0,1-.0718-.5462.7023.7023,0,0,1,.3377-.4311.7129.7129,0,0,1,.5533-.0718.7223.7223,0,0,1,.4311.3377l.5821,1.0275h3.2767l-.18-.3161a.7236.7236,0,0,1-.0719-.5462.7033.7033,0,0,1,.3377-.4311.6918.6918,0,0,1,.5462-.0718.7169.7169,0,0,1,.4384.3377l.7831,1.394A.7176.7176,0,0,1,194.9764,127.0188Z" style="fill:#f4ae3d"/><path d="M194.9764,127.0188a.7209.7209,0,0,1-.625.3593h-4.93a.7129.7129,0,0,1-.6251-.3665l-.7833-1.3868a.7235.7235,0,0,1-.0718-.5462.7023.7023,0,0,1,.3377-.4311.7129.7129,0,0,1,.5533-.0718.7223.7223,0,0,1,.4311.3377l.5821,1.0275h3.2767l-.18-.3161a.7236.7236,0,0,1-.0719-.5462.7033.7033,0,0,1,.3377-.4311.6918.6918,0,0,1,.5462-.0718.7169.7169,0,0,1,.4384.3377l.7831,1.394A.7176.7176,0,0,1,194.9764,127.0188Z" style="fill:none;stroke:#30373e;stroke-miterlimit:10;stroke-width:0.5px"/><path d="M151.5306,127.254a.9953.9953,0,0,1-.3522.3.9527.9527,0,0,1-.4317.1041h-4.93a.9659.9659,0,0,1-.9289-.6871l-.423-1.3838a.9538.9538,0,0,1-.0418-.3794,1,1,0,0,1,.3362-.6472.9754.9754,0,0,1,.3445-.1868.9646.9646,0,0,1,.7311.0677.9782.9782,0,0,1,.48.5718l.2187.7076,2.866.0008-.04-.1187a.9728.9728,0,0,1,.0578-.7429.9528.9528,0,0,1,.5523-.4769.97.97,0,0,1,1.0459.2845.9508.9508,0,0,1,.184.3252l.4672,1.3875a.9684.9684,0,0,1-.1358.8734Z" style="fill:none;stroke:#30373e;stroke-miterlimit:10;stroke-width:0.5px"/><path d="M151.3288,127.1065a.7254.7254,0,0,1-.5821.3018h-4.93a.7158.7158,0,0,1-.69-.51l-.4239-1.3869a.7176.7176,0,0,1,.4743-.8982.7229.7229,0,0,1,.8982.4743l.2731.8838h3.3988l-.1509-.4455a.7192.7192,0,0,1,1.3654-.4527l.467,1.3868A.7184.7184,0,0,1,151.3288,127.1065Z" style="fill:#f4ae3d"/><path d="M151.3288,127.1065a.7254.7254,0,0,1-.5821.3018h-4.93a.7158.7158,0,0,1-.69-.51l-.4239-1.3869a.7176.7176,0,0,1,.4743-.8982.7229.7229,0,0,1,.8982.4743l.2731.8838h3.3988l-.1509-.4455a.7192.7192,0,0,1,1.3654-.4527l.467,1.3868A.7184.7184,0,0,1,151.3288,127.1065Z" style="fill:#f4ae3d"/><path d="M151.3288,127.1065a.7254.7254,0,0,1-.5821.3018h-4.93a.7158.7158,0,0,1-.69-.51l-.4239-1.3869a.7176.7176,0,0,1,.4743-.8982.7229.7229,0,0,1,.8982.4743l.2731.8838h3.3988l-.1509-.4455a.7192.7192,0,0,1,1.3654-.4527l.467,1.3868A.7184.7184,0,0,1,151.3288,127.1065Z" style="fill:none;stroke:#30373e;stroke-miterlimit:10;stroke-width:0.5px"/><path d="M82.3413,29.1951a18.33,18.33,0,0,0-.3881,4.1814c0,2.688-.2987,26.4324-.2987,26.4324a2.8564,2.8564,0,0,0,.7467,1.8667v1.792a2.69,2.69,0,0,0-.7467,2.016c0,4.1254.1307,26.4138.1307,27.7018a29.6044,29.6044,0,0,0,.784,4.0881c.28,1.848,1.8107,2.072,3.9387,2.856" style="fill:none;stroke:#a6abb0;stroke-linecap:round;stroke-linejoin:round;stroke-width:0.5px"/><path d="M16.5816,60.78c1.7547,1.2693,3.024.896,4.6667,0s5.601-3.0412,7.393-4.1612a13.2524,13.2524,0,0,0,3.7325-4.0523,30.7418,30.7418,0,0,1,3.2107-4.6294c.952-.952,2.521-1.6113,5.0961-1.68,4.2-.112,13.8869-.1419,17.08,0a6.1272,6.1272,0,0,1,5.2641,3.024c.784,1.5681,1.68,2.9121,2.3521,4.0881s1.7007,2.1537,5.488,4.76c5.2081,3.584,4.48,3.5467,11.5362,3.5467H94.47" style="fill:none;stroke:#a6abb0;stroke-linecap:round;stroke-linejoin:round;stroke-width:0.5px"/><path d="M16.47,62.2356c.4106,1.1013,2.3707,2.0534,4.5547.7653s6.5521-3.472,8.5681-4.872,2.5061-1.9554,4.4241-4.6481c2.3684-3.325,3.1544-3.7642,6.1221-3.8081,4.45-.0658,16.1357,0,17.9925,0a4.0767,4.0767,0,0,1,4.2973,2.5108A12.4658,12.4658,0,0,0,65.93,56.9072a65.189,65.189,0,0,0,6.3133,4.7237c2.3874,1.5566,4.943,1.8367,10.158,1.8367l11.6511.0979" style="fill:none;stroke:#a6abb0;stroke-linecap:round;stroke-linejoin:round;stroke-width:0.5px"/><path d="M17.1039,132.45c-2.6775.8008-3.8925,1.181-6.9508,5.2818s-3.3363,4.3094-2.2242,6.3251A29.9116,29.9116,0,0,0,11.6822,149.2c1.1121,1.2511,2.2937,1.7377,5.491,1.7377H59.2246c2.7108,0,6.6031-1.6682,10.0089-4.4485s4.3789-4.0313,5.352-6.3945a33.1494,33.1494,0,0,0,1.8767-5.074c.2085-1.1121.278-2.78-4.4484-3.5448a67.9822,67.9822,0,0,0-11.5381-.7646c-2.9888,0-24.6051.07-28.428.07S20.2221,131.5169,17.1039,132.45Z" style="fill:none;stroke:#a6abb0;stroke-linecap:round;stroke-linejoin:round;stroke-width:0.5px"/><path d="M14.7512,150.7929a16.4534,16.4534,0,0,1,5.3413-9.7252c4.8654-4.4484,8.6883-5.56,13.6928-5.56H55.8188c5.63,0,11.399.4866,10.0089,3.9619s-3.3957,8.6266-3.8526,11.0207" style="fill:none;stroke:#a6abb0;stroke-linecap:round;stroke-linejoin:round;stroke-width:0.5px"/><path d="M78.3692,167.3305c-.3211-1.1685-.5647-8.477-.5647-12.07a75.1475,75.1475,0,0,1,2.9727-21.4181c.4-1.4534,2.08-1.6214,4.432-2.1814s2.4538-1.0443,2.4538-1.6715" style="fill:none;stroke:#a6abb0;stroke-linecap:round;stroke-linejoin:round;stroke-width:0.5px"/><path d="M20.1323,61.3122c-1.1415.2757-2.9161.5874-2.5427-3.6687a138.9489,138.9489,0,0,1,2.6133-14.3362c.6721-3.0614,3.2108-5.3761,6.1975-7.0188a23.6646,23.6646,0,0,1,11.9468-2.8373H57.7608A19.4354,19.4354,0,0,1,69.11,36.6619c4.6294,2.912,5.5255,3.6587,6.3468,8.8854A87.1033,87.1033,0,0,1,76.6518,56.15c.1493,3.0614-.3137,5.7531-3.05,3.8659" style="fill:none;stroke:#a6abb0;stroke-linecap:round;stroke-linejoin:round;stroke-width:0.5px"/><path d="M17.5941,96.4534c-1.3444-.3016-1.4979-2.0733-1.4979-4.7614s.2987-16.0535.5227-19.19.9707-4.9831,4.6294-7.0934,7.0188-3.93,9.1841-5.4577a13.9887,13.9887,0,0,0,4.7788-4.73c1.6427-2.547,2.464-3.7841,4.8534-3.7841H56.7155c1.3917,0,3.3344.0089,4.36,2.1743A10.639,10.639,0,0,0,64.811,58.54c2.49,2.0907,5.7865,4.3308,8.2037,6.3468s4.4584,3.36,4.4584,8.2881V95.76" style="fill:none;stroke:#a6abb0;stroke-linecap:round;stroke-linejoin:round;stroke-width:0.5px"/><path d="M81.7852,93.1854c0,1.456.728,2.072,2.632,2.632s2.2961,1.8481,2.2961,5.32-.112,7.2241-.168,11.5362.224,8.3441,1.008,9.4641c-.896.224-1.064.952-1.12,3.92s.56,3.976,1.568,3.976h21.0563" style="fill:none;stroke:#a6abb0;stroke-linecap:round;stroke-linejoin:round;stroke-width:0.5px"/><line x1="87.5533" y1="122.1378" x2="109.0576" y2="122.1378" style="fill:none;stroke:#a6abb0;stroke-linecap:round;stroke-linejoin:round;stroke-width:0.5px"/><path d="M3.5538,144.7629c-.45,1.362.1476,3.0046,3.657,6.8127s3.9573,5.2267,11.1255,5.2267H76.5957" style="fill:none;stroke:#a6abb0;stroke-linecap:round;stroke-linejoin:round;stroke-width:0.5px"/><path d="M79.0608,156.8543h29.9968" style="fill:none;stroke:#a6abb0;stroke-linecap:round;stroke-linejoin:round;stroke-width:0.5px"/><path d="M109.0576,130.9673a145.7343,145.7343,0,0,0-16.8.5973c-5.3761.5974-6.9441,1.4934-7.5415,3.1361a31.2139,31.2139,0,0,0-1.2693,4.7787c-.672,3.2854-.5227,3.8827,3.0613,7.3175s4.8534,3.8827,7.84,3.8827h14.71" style="fill:none;stroke:#a6abb0;stroke-linecap:round;stroke-linejoin:round;stroke-width:0.5px"/><path d="M91.4939,150.3522a22.2546,22.2546,0,0,1-.0206-10.2941c1.3441-5.4881,1.5681-5.3761,4.3121-6.16s5.1521-.952,13.2722-.952" style="fill:none;stroke:#a6abb0;stroke-linecap:round;stroke-linejoin:round;stroke-width:0.5px"/><path d="M21.1348,100.4282c-1.2311.0746-2.9752.784-3.3513,8.3628-.34,6.8491-.4006,13.5154-.4849,16.4439a.828.828,0,0,1-.8273.8043H14.4162" style="fill:none;stroke:#a6abb0;stroke-linecap:round;stroke-linejoin:round;stroke-width:0.5px"/><path d="M80.7772,133.842c.336-1.064-.168-1.68-3.64-2.016s-2.8487-1.3352-2.52-2.1719l.3111-7.59s.5289-17.6783.5849-19.9184,1.064-2.296,3.64-2.688,3.5893-1.3321,3.416-2.184" style="fill:none;stroke:#a6abb0;stroke-linecap:round;stroke-linejoin:round;stroke-width:0.5px"/><path d="M81.7852,93.1854c-.112,1.68-1.344,1.904-3.92,2.464s-2.26,3.2442-2.352,6.4961" style="fill:none;stroke:#a6abb0;stroke-linecap:round;stroke-linejoin:round;stroke-width:0.5px"/><path d="M86.02,131.4445v-4.7706l-.9733-2.7689a.7728.7728,0,0,0-.729-.5165H81.58a1.008,1.008,0,0,0-1.008,1.008v5.4772a1.8385,1.8385,0,0,0,.4036,1.1495l1.1572,1.4447" style="fill:none;stroke:#a6abb0;stroke-linecap:round;stroke-linejoin:round;stroke-width:0.5px"/><path d="M80.2777,132.4978v-5.8239l-.9733-2.7689a.7727.7727,0,0,0-.7289-.5165h-2.738a1.008,1.008,0,0,0-1.008,1.008v5.4772a1.8385,1.8385,0,0,0,.4036,1.1495l.4621.5768" style="fill:none;stroke:#a6abb0;stroke-linecap:round;stroke-linejoin:round;stroke-width:0.5px"/><polyline points="76.656 99.975 81.539 100.858 86.508 100.129" style="fill:none;stroke:#a6abb0;stroke-linecap:round;stroke-linejoin:round;stroke-width:0.5px"/><path d="M81.5391,100.8575c-.432,0-.4819,2.8-.4819,4.9841s.067,17.6605.067,17.6605" style="fill:none;stroke:#a6abb0;stroke-linecap:round;stroke-linejoin:round;stroke-width:0.5px"/><path d="M109.0576,50.3261H99.2919a2.116,2.116,0,0,0-2.03,1.52L94.47,61.35a6.686,6.686,0,0,0-.2712,1.885v37.0439a5.0028,5.0028,0,0,0,5.0028,5.0028h9.8561" style="fill:none;stroke:#a6abb0;stroke-linecap:round;stroke-linejoin:round;stroke-width:0.5px"/><path d="M97.2617,51.8457V29.68a1.2313,1.2313,0,0,1,1.2312-1.2312h10.5647" style="fill:none;stroke:#a6abb0;stroke-linecap:round;stroke-linejoin:round;stroke-width:0.5px"/><path d="M81.9658,32.2437a1.8726,1.8726,0,0,1,1.8725-1.8591H95.4151a1.8726,1.8726,0,0,1,1.8726,1.8726" style="fill:none;stroke:#a6abb0;stroke-linecap:round;stroke-linejoin:round;stroke-width:0.5px"/><path d="M81.9658,32.2572a1.8726,1.8726,0,0,0-1.8726-1.8726H33.7178a23.3918,23.3918,0,0,0-7.5414,1.6479c-2.9867,1.12-5.6921,2.7771-6.6776,4.3293" style="fill:none;stroke:#a6abb0;stroke-linecap:round;stroke-linejoin:round;stroke-width:0.5px"/><path d="M34.8005,27.5151a9.2179,9.2179,0,0,0,6.0854,1.8293H55.9688c1.7174,0,4.5548-.224,6.3468-2.0907" style="fill:none;stroke:#a6abb0;stroke-linecap:round;stroke-linejoin:round;stroke-width:0.5px"/><path d="M59.7638,6.0236c-.6331-.3317-1.63-.1248-.8829,3.2352s1.2887,6.369,2.016,10.2295c.9707,5.1521-.672,8.0641-5.3761,8.0641H40.2139c-2.7627,0-7.2428-2.3147-6.5708-8.4374S34.7545,10.25,35.0618,8.2135s1.2914-2.6317,2.0644-2.8464" style="fill:none;stroke:#a6abb0;stroke-linecap:round;stroke-linejoin:round;stroke-width:0.5px"/><path d="M109.0576,26.7537h25.0548a2.0936,2.0936,0,0,1,1.4526.63q.0588.0586.1138.1222a1.5552,1.5552,0,0,1,.1665-.1964,2.9119,2.9119,0,0,1,2.1313-.556h16.93c-.3723-.618-.9166-1.5467-1.4517-2.55a8,8,0,0,1-.4951-5.6815l.1027-.4674c.4911-2.236,1.6792-7.65,2.002-8.6181a6.0916,6.0916,0,0,1,1.7634-2.8461,6.6334,6.6334,0,0,1,2.2238-1.4764c2.13-.8823,5.4319-1.1715,11.5327-1.1715,6.173,0,9.557.3854,11.6156,1.355a5.5693,5.5693,0,0,1,1.986,1.5146,8.2428,8.2428,0,0,1,1.9009,4.4622,69.8578,69.8578,0,0,1,.9386,8.49c.007.16.0151.3188.0233.4784a8.5142,8.5142,0,0,1-.5088,4.16,8.5822,8.5822,0,0,1-2.0155,2.7139c6.3987.6345,8.7329,2.3989,11.7026,5.6222,3.0975,3.3619,4.7633,5.5682,5.8709,10.8008a67.5078,67.5078,0,0,1,1.728,12.3711,7.976,7.976,0,0,1-.487,3.8715,3.37,3.37,0,0,1-1.2832,1.2591l.0763.9927c.517.6281,2.4535,3.2976,2.85,8.4512.45,5.8436.6735,20.61.7107,23.1407a3.5969,3.5969,0,0,1-.5413,1.9727c-.9244,1.516-3.0447,2.7492-6.1139,4.3031.1508.0089.3081.018.4709.027a2.8961,2.8961,0,0,1,2,.86,4.7092,4.7092,0,0,1,.9364,1.433,19.2207,19.2207,0,0,1,1.1935,6.5418c.2741,5.0592.3821,10.0173.4568,13.443.0375,1.72.0664,3.0443.1033,3.8082a7.69,7.69,0,0,0,1.4069,4.7075c1.0309,1.51,2.8691,4.0473,2.8666,4.05a49.64,49.64,0,0,1,4.872,6.3079c2.0957,3.3376,2.2879,4.6635,1.4882,9.3475a50.5166,50.5166,0,0,1-4.5294,13.6616,8.315,8.315,0,0,1-3.1026,3.3365,12.6248,12.6248,0,0,1-6.5625,1.5621c-2.2333,0-24.0316.087-40.4476.1526-9.91.04-17.86.0714-18.3532.0714a2.48,2.48,0,0,1-1.2545-.3516,3.5251,3.5251,0,0,1-.851-.7139,3.0347,3.0347,0,0,1-.5345.4207,3.7871,3.7871,0,0,1-2.0268.5328H80.9452a3.7871,3.7871,0,0,1-2.0268-.5328,3.0337,3.0337,0,0,1-.5344-.4207,3.5257,3.5257,0,0,1-.8511.7139,2.48,2.48,0,0,1-1.2544.3516c-.4933,0-8.4432-.0318-18.3533-.0714-16.4159-.0656-38.2142-.1526-40.4476-.1526a12.625,12.625,0,0,1-6.5625-1.5621,8.3141,8.3141,0,0,1-3.1025-3.3365,50.5131,50.5131,0,0,1-4.5294-13.6616c-.8-4.684-.6076-6.01,1.4881-9.3475a48.9267,48.9267,0,0,1,4.835-6.2627c.03-.0417,1.8716-2.5836,2.9036-4.0949a7.69,7.69,0,0,0,1.4069-4.7075c.0369-.7639.0659-2.0886.1033-3.8082.0747-3.4257.1827-8.3838.4568-13.443a19.2232,19.2232,0,0,1,1.1935-6.5418,4.7074,4.7074,0,0,1,.9365-1.433,2.8957,2.8957,0,0,1,2-.86c.1628-.009.32-.0181.4709-.027-3.0692-1.5539-5.1894-2.7871-6.1139-4.3031a3.5969,3.5969,0,0,1-.5413-1.9727c.0372-2.53.2612-17.2971.7108-23.1407.3964-5.1536,2.333-7.8231,2.85-8.4512l.0763-.9927a3.371,3.371,0,0,1-1.2832-1.2591,7.9751,7.9751,0,0,1-.4869-3.8715A67.5066,67.5066,0,0,1,16.0177,43.54c1.1077-5.2326,2.7734-7.4389,5.8709-10.8008,2.97-3.2233,5.3039-4.9877,11.7027-5.6222a8.5812,8.5812,0,0,1-2.0156-2.7139,8.5153,8.5153,0,0,1-.5088-4.16c.0082-.16.0163-.3184.0234-.4784a69.8537,69.8537,0,0,1,.9385-8.49A8.2428,8.2428,0,0,1,33.93,6.8123a5.57,5.57,0,0,1,1.986-1.5146c2.0586-.97,5.4426-1.355,11.6157-1.355,6.1007,0,9.4028.2892,11.5326,1.1715a6.6334,6.6334,0,0,1,2.2238,1.4764,6.0927,6.0927,0,0,1,1.7635,2.8461c.3227.9684,1.5108,6.3821,2.0019,8.6181l.1027.4674a8,8,0,0,1-.4951,5.6815c-.5351,1.0033-1.0794,1.932-1.4516,2.55H80.1386a2.9119,2.9119,0,0,1,2.1313.556,1.5469,1.5469,0,0,1,.1665.1964q.055-.0634.1138-.1222a2.0938,2.0938,0,0,1,1.4526-.63Z" style="fill:none;stroke:#a6abb0;stroke-linecap:round;stroke-linejoin:round;stroke-width:1.5px"/><path d="M109.0576,27.2537h25.0548a1.8021,1.8021,0,0,1,1.6615,1.9414c0-1.792.7467-1.9414,2.2027-1.9414H155.8s-.9657-1.5261-1.904-3.2853a7.5072,7.5072,0,0,1-.448-5.3388c.4107-1.8667,1.7547-8.0268,2.0907-9.0348a5.6072,5.6072,0,0,1,1.6427-2.6507c1.904-1.904,4.7041-2.5014,13.4029-2.5014S182.22,5.2184,183.8,7.1308a7.75,7.75,0,0,1,1.792,4.2187,69.3589,69.3589,0,0,1,.9333,8.4375c.112,2.5387.4854,4.704-3.2107,7.7281,7.1681.5227,9.4828,2.24,12.5442,5.5627s4.6667,5.4508,5.7494,10.5655a67.02,67.02,0,0,1,1.7174,12.2829c.112,3.6587-.4854,4.032-1.792,4.8534l.112,1.456s2.3893,2.464,2.8373,8.2881.6721,20.571.7094,23.11-2.6881,3.9947-8.0268,6.6454c0,0,.9707.0747,2.3147.1494s3.248.784,3.6587,8.3628.448,14.9335.56,17.2482a8.1771,8.1771,0,0,0,1.4934,4.9654c1.0453,1.5307,2.912,4.1068,2.912,4.1068a49.1438,49.1438,0,0,1,4.8161,6.2347c2.016,3.2107,2.2027,4.4054,1.4187,8.9975a50.0206,50.0206,0,0,1-4.48,13.5149c-1.904,3.6587-5.6374,4.6294-9.2215,4.6294s-57.4941.224-58.8008.224a2.7618,2.7618,0,0,1-2.0907-1.3814A2.78,2.78,0,0,1,137.17,168.6H80.9452a2.78,2.78,0,0,1-2.576-1.2694,2.762,2.762,0,0,1-2.0907,1.3814c-1.3067,0-55.2169-.224-58.8009-.224s-7.3175-.9707-9.2215-4.6294a50.0206,50.0206,0,0,1-4.48-13.5149c-.784-4.5921-.5973-5.7868,1.4187-8.9975a49.1541,49.1541,0,0,1,4.8161-6.2347s1.8667-2.5761,2.912-4.1068a8.1771,8.1771,0,0,0,1.4934-4.9654c.112-2.3147.1493-9.6695.56-17.2482s2.3147-8.2882,3.6587-8.3628,2.3147-.1494,2.3147-.1494c-5.3387-2.6507-8.0641-4.1067-8.0268-6.6454s.2614-17.2856.7094-23.11S16.47,62.2356,16.47,62.2356l.112-1.456c-1.3067-.8214-1.9041-1.1947-1.7921-4.8534a67.02,67.02,0,0,1,1.7174-12.2829c1.0827-5.1147,2.688-7.2428,5.7494-10.5655s5.3761-5.04,12.5442-5.5627c-3.6961-3.0241-3.3227-5.1894-3.2107-7.7281a69.3792,69.3792,0,0,1,.9333-8.4375,7.75,7.75,0,0,1,1.7921-4.2187c1.58-1.9124,4.5174-2.6881,13.2162-2.6881S59.03,5.04,60.9342,6.9441a5.6072,5.6072,0,0,1,1.6427,2.6507c.336,1.008,1.68,7.1681,2.0907,9.0348a7.5072,7.5072,0,0,1-.448,5.3388c-.9382,1.7592-1.904,3.2853-1.904,3.2853h17.823c1.4561,0,2.2027.1494,2.2027,1.9414a1.8021,1.8021,0,0,1,1.6615-1.9414Z" style="fill:none;stroke:#a6abb0;stroke-linecap:round;stroke-linejoin:round;stroke-width:0.5px"/><path d="M135.7739,29.1951a18.33,18.33,0,0,1,.3881,4.1814c0,2.688.2987,26.4324.2987,26.4324a2.8564,2.8564,0,0,1-.7467,1.8667v1.792a2.69,2.69,0,0,1,.7467,2.016c0,4.1254-.1307,26.4138-.1307,27.7018a29.6044,29.6044,0,0,1-.784,4.0881c-.28,1.848-1.8107,2.072-3.9387,2.856" style="fill:none;stroke:#a6abb0;stroke-linecap:round;stroke-linejoin:round;stroke-width:0.5px"/><path d="M201.5337,60.78c-1.7547,1.2693-3.0241.896-4.6668,0s-5.601-3.0412-7.393-4.1612a13.255,13.255,0,0,1-3.7325-4.0523,30.7418,30.7418,0,0,0-3.2107-4.6294c-.952-.952-2.5209-1.6113-5.0961-1.68-4.2-.112-13.8869-.1419-17.08,0a6.1272,6.1272,0,0,0-5.2641,3.024c-.784,1.5681-1.68,2.9121-2.352,4.0881s-1.7007,2.1537-5.4881,4.76c-5.2081,3.584-4.48,3.5467-11.5362,3.5467H123.6454" style="fill:none;stroke:#a6abb0;stroke-linecap:round;stroke-linejoin:round;stroke-width:0.5px"/><path d="M201.6457,62.2356c-.4107,1.1013-2.3707,2.0534-4.5548.7653s-6.5521-3.472-8.5681-4.872-2.5061-1.9554-4.4241-4.6481c-2.3683-3.325-3.1543-3.7642-6.1221-3.8081-4.45-.0658-16.1357,0-17.9925,0a4.0768,4.0768,0,0,0-4.2973,2.5108,12.4647,12.4647,0,0,1-3.5015,4.7237,65.1766,65.1766,0,0,1-6.3133,4.7237c-2.3874,1.5566-4.9429,1.8367-10.158,1.8367l-11.651.0979" style="fill:none;stroke:#a6abb0;stroke-linecap:round;stroke-linejoin:round;stroke-width:0.5px"/><path d="M205.1924,93.6334c-.01,1.9458-1.2682,2.0938-3.7835,2.6117s-4.5127,1.4056-4.7347,4.8826-.2219,16.2458-.5178,20.8325.2959,7.6939-2.7373,7.6939H143.187" style="fill:none;stroke:#a6abb0;stroke-linecap:round;stroke-linejoin:round;stroke-width:0.5px"/><path d="M201.0113,132.45c2.6775.8008,3.8926,1.181,6.9508,5.2818s3.3364,4.3094,2.2243,6.3251A29.9169,29.9169,0,0,1,206.433,149.2c-1.1121,1.2511-2.2937,1.7377-5.491,1.7377H158.8906c-2.7107,0-6.6031-1.6682-10.0089-4.4485s-4.3789-4.0313-5.352-6.3945a33.1494,33.1494,0,0,1-1.8767-5.074c-.2085-1.1121-.278-2.78,4.4484-3.5448a67.9828,67.9828,0,0,1,11.5381-.7646c2.9888,0,24.6052.07,28.428.07S197.8931,131.5169,201.0113,132.45Z" style="fill:none;stroke:#a6abb0;stroke-linecap:round;stroke-linejoin:round;stroke-width:0.5px"/><path d="M203.364,150.7929a16.4534,16.4534,0,0,0-5.3413-9.7252c-4.8654-4.4484-8.6883-5.56-13.6927-5.56H162.2964c-5.63,0-11.399.4866-10.0089,3.9619s3.3957,8.6266,3.8526,11.0207" style="fill:none;stroke:#a6abb0;stroke-linecap:round;stroke-linejoin:round;stroke-width:0.5px"/><path d="M139.7461,167.3305c.321-1.1685.5646-8.477.5646-12.07a75.1475,75.1475,0,0,0-2.9727-21.4181c-.4-1.4534-2.08-1.6214-4.4319-2.1814s-2.4539-1.0443-2.4539-1.6715" style="fill:none;stroke:#a6abb0;stroke-linecap:round;stroke-linejoin:round;stroke-width:0.5px"/><path d="M197.983,61.3122c1.1414.2757,2.916.5874,2.5426-3.6687a138.9489,138.9489,0,0,0-2.6133-14.3362c-.672-3.0614-3.2107-5.3761-6.1975-7.0188a23.6646,23.6646,0,0,0-11.9468-2.8373H160.3544a19.4354,19.4354,0,0,0-11.35,3.2107c-4.6294,2.912-5.5254,3.6587-6.3468,8.8854A87.144,87.144,0,0,0,141.4634,56.15c-.1493,3.0614.3137,5.7531,3.05,3.8659" style="fill:none;stroke:#a6abb0;stroke-linecap:round;stroke-linejoin:round;stroke-width:0.5px"/><path d="M200.5211,96.4534c1.3444-.3016,1.4979-2.0733,1.4979-4.7614s-.2987-16.0535-.5227-19.19-.9707-4.9831-4.6294-7.0934-7.0187-3.93-9.1841-5.4577a13.9876,13.9876,0,0,1-4.7787-4.73c-1.6427-2.547-2.4641-3.7841-4.8535-3.7841H161.4c-1.3917,0-3.3343.0089-4.36,2.1743a10.639,10.639,0,0,1-3.7357,4.928c-2.49,2.0907-5.7865,4.3308-8.2037,6.3468s-4.4584,3.36-4.4584,8.2881V95.76" style="fill:none;stroke:#a6abb0;stroke-linecap:round;stroke-linejoin:round;stroke-width:0.5px"/><path d="M136.33,93.1854c0,1.456-.728,2.072-2.632,2.632s-2.2961,1.8481-2.2961,5.32.112,7.2241.168,11.5362-.224,8.3441-1.008,9.4641c.896.224,1.064.952,1.12,3.92s-.56,3.976-1.5681,3.976H109.0576" style="fill:none;stroke:#a6abb0;stroke-linecap:round;stroke-linejoin:round;stroke-width:0.5px"/><line x1="130.5619" y1="122.1378" x2="109.0576" y2="122.1378" style="fill:none;stroke:#a6abb0;stroke-linecap:round;stroke-linejoin:round;stroke-width:0.5px"/><path d="M214.5614,144.7629c.45,1.362-.1475,3.0046-3.6569,6.8127s-3.9574,5.2267-11.1255,5.2267H141.52" style="fill:none;stroke:#a6abb0;stroke-linecap:round;stroke-linejoin:round;stroke-width:0.5px"/><path d="M139.0544,156.8543H109.0576" style="fill:none;stroke:#a6abb0;stroke-linecap:round;stroke-linejoin:round;stroke-width:0.5px"/><path d="M109.0576,130.9673a145.737,145.737,0,0,1,16.8.5973c5.376.5974,6.9441,1.4934,7.5414,3.1361a31.214,31.214,0,0,1,1.2694,4.7787c.672,3.2854.5226,3.8827-3.0614,7.3175s-4.8534,3.8827-7.84,3.8827h-14.71" style="fill:none;stroke:#a6abb0;stroke-linecap:round;stroke-linejoin:round;stroke-width:0.5px"/><path d="M126.6213,150.3522a22.2546,22.2546,0,0,0,.0206-10.2941c-1.344-5.4881-1.568-5.3761-4.3121-6.16s-5.1521-.952-13.2722-.952" style="fill:none;stroke:#a6abb0;stroke-linecap:round;stroke-linejoin:round;stroke-width:0.5px"/><path d="M196.9805,100.4282c1.231.0746,2.9751.784,3.3512,8.3628.34,6.8491.4006,13.5154.4849,16.4439a.828.828,0,0,0,.8274.8043h2.055" style="fill:none;stroke:#a6abb0;stroke-linecap:round;stroke-linejoin:round;stroke-width:0.5px"/><path d="M143.4981,129.6541h49.921c2.13,0,2.7558.6421,2.9618.8723.6181.6907,1.2465.9486,4.1441,1.7835,3.304.9521,7.1081,1.9552,8.2935,3.6045" style="fill:none;stroke:#a6abb0;stroke-linecap:round;stroke-linejoin:round;stroke-width:0.5px"/><path d="M12.9228,93.6334c.01,1.9458,1.2682,2.0938,3.7835,2.6117s4.5127,1.4056,4.7347,4.8826.2219,16.2458.5178,20.8325-.2959,7.6939,2.7373,7.6939H74.9282" style="fill:none;stroke:#a6abb0;stroke-linecap:round;stroke-linejoin:round;stroke-width:0.5px"/><path d="M33.7216,129.6541c-1.11,0-2.222-4.0647-2.3673-11.9847-.2241-12.2077-.3282-30.6725-.148-37.7.2219-8.6556,5.9973-12.6294,11.9107-12.8724a59.26,59.26,0,0,1,10.5425.148c3.625.37,10.2092,2.1454,10.727,12.0586s.5179,26.307.5179,34.6667c0,13.5383.2959,15.6837,1.6275,15.6837" style="fill:none;stroke:#a6abb0;stroke-linecap:round;stroke-linejoin:round;stroke-width:0.5px"/><path d="M184.3936,129.6541c1.11,0,2.222-4.0647,2.3674-11.9847.224-12.2077.3281-30.6725.1479-37.7-.2219-8.6556-5.9973-12.6294-11.9107-12.8724a59.2589,59.2589,0,0,0-10.5424.148c-3.6251.37-10.2092,2.1454-10.7271,12.0586s-.5178,26.307-.5178,34.6667c0,13.5383-.296,15.6837-1.6276,15.6837" style="fill:none;stroke:#a6abb0;stroke-linecap:round;stroke-linejoin:round;stroke-width:0.5px"/><path d="M74.6171,129.6541H24.6961c-2.13,0-2.7557.6421-2.9618.8723-.6181.6907-1.2464.9486-4.144,1.7835-3.3041.9521-7.1082,1.9552-8.2936,3.6045" style="fill:none;stroke:#a6abb0;stroke-linecap:round;stroke-linejoin:round;stroke-width:0.5px"/><path d="M137.338,133.842c-.336-1.064.168-1.68,3.64-2.016s2.8487-1.3352,2.52-2.1719l-.3111-7.59s-.5289-17.6783-.5849-19.9184-1.064-2.296-3.64-2.688-3.5894-1.3321-3.4161-2.184" style="fill:none;stroke:#a6abb0;stroke-linecap:round;stroke-linejoin:round;stroke-width:0.5px"/><path d="M136.33,93.1854c.112,1.68,1.344,1.904,3.92,2.464s2.26,3.2442,2.352,6.4961" style="fill:none;stroke:#a6abb0;stroke-linecap:round;stroke-linejoin:round;stroke-width:0.5px"/><path d="M132.0951,131.4445v-4.7706l.9733-2.7689a.7728.7728,0,0,1,.729-.5165h2.738a1.008,1.008,0,0,1,1.008,1.008v5.4772a1.8391,1.8391,0,0,1-.4036,1.1495l-1.1573,1.4447" style="fill:none;stroke:#a6abb0;stroke-linecap:round;stroke-linejoin:round;stroke-width:0.5px"/><polyline points="141.459 99.975 136.576 100.858 131.607 100.129" style="fill:none;stroke:#a6abb0;stroke-linecap:round;stroke-linejoin:round;stroke-width:0.5px"/><path d="M136.5762,100.8575c.432,0,.4818,2.8.4818,4.9841s-.067,17.6605-.067,17.6605" style="fill:none;stroke:#a6abb0;stroke-linecap:round;stroke-linejoin:round;stroke-width:0.5px"/><path d="M109.0582,50.3241h9.7657a2.116,2.116,0,0,1,2.03,1.52l2.7918,9.5043a6.6848,6.6848,0,0,1,.2712,1.8849v37.044a5.0027,5.0027,0,0,1-5.0028,5.0027h-9.8561" style="fill:none;stroke:#a6abb0;stroke-linecap:round;stroke-linejoin:round;stroke-width:0.5px"/><path d="M120.8535,51.8457V29.68a1.2312,1.2312,0,0,0-1.2312-1.2312H109.0576" style="fill:none;stroke:#a6abb0;stroke-linecap:round;stroke-linejoin:round;stroke-width:0.5px"/><path d="M136.1494,32.2437a1.8726,1.8726,0,0,0-1.8725-1.8591H122.7a1.8725,1.8725,0,0,0-1.8725,1.8726" style="fill:none;stroke:#a6abb0;stroke-linecap:round;stroke-linejoin:round;stroke-width:0.5px"/><path d="M136.1494,32.2572a1.8726,1.8726,0,0,1,1.8726-1.8726h46.3754a23.3928,23.3928,0,0,1,7.5415,1.6479c2.9867,1.12,5.692,2.7771,6.6775,4.3293" style="fill:none;stroke:#a6abb0;stroke-linecap:round;stroke-linejoin:round;stroke-width:0.5px"/><path d="M183.3147,27.5151a9.2178,9.2178,0,0,1-6.0854,1.8293H162.1464c-1.7174,0-4.5547-.224-6.3468-2.0907" style="fill:none;stroke:#a6abb0;stroke-linecap:round;stroke-linejoin:round;stroke-width:0.5px"/><path d="M158.3515,6.0236c.633-.3317,1.63-.1248.8829,3.2352s-1.2887,6.369-2.0161,10.2295c-.9706,5.1521.672,8.0641,5.3761,8.0641h15.3069c2.7627,0,7.2428-2.3147,6.5708-8.4374s-1.1114-8.8654-1.4187-10.9015-1.2914-2.6317-2.0644-2.8464" style="fill:none;stroke:#a6abb0;stroke-linecap:round;stroke-linejoin:round;stroke-width:0.5px"/><path d="M81.5509,124.2688h1.1144a.632.632,0,0,1,.5939.3538l.5133,1.2328v3.0026l-.7707.97H81.5509Z" style="fill:none;stroke:#a6abb0;stroke-linecap:round;stroke-linejoin:round;stroke-width:0.5px"/><line x1="83.7725" y1="124.3241" x2="83.7725" y2="130.1564" style="fill:none;stroke:#a6abb0;stroke-linecap:round;stroke-linejoin:round;stroke-width:0.5px"/><path d="M133.8737,124.2688h1.1143a.632.632,0,0,1,.5939.3538l.5134,1.2328v3.0026l-.7708.97h-1.4508Z" style="fill:none;stroke:#a6abb0;stroke-linecap:round;stroke-linejoin:round;stroke-width:0.5px"/><line x1="136.0953" y1="124.3241" x2="136.0953" y2="130.1564" style="fill:none;stroke:#a6abb0;stroke-linecap:round;stroke-linejoin:round;stroke-width:0.5px"/><path d="M78.5545,124.2688H77.44a.6319.6319,0,0,0-.5939.3538l-.5134,1.2328v3.0026l.7708.97h1.4508Z" style="fill:none;stroke:#a6abb0;stroke-linecap:round;stroke-linejoin:round;stroke-width:0.5px"/><line x1="76.3329" y1="124.3241" x2="76.3329" y2="130.1564" style="fill:none;stroke:#a6abb0;stroke-linecap:round;stroke-linejoin:round;stroke-width:0.5px"/><path d="M34.3525,30.3846c-1.1736,0-1.3567-.59-.8015-1.7122s1.2517-1.01,1.4163-1.01" style="fill:none;stroke:#a6abb0;stroke-linecap:round;stroke-linejoin:round;stroke-width:0.5px"/><path d="M62.3156,27.2537c1.232,0,2.3147.4532,1.6427,1.7921s-1.4187,1.3388-2.5761,1.3388" style="fill:none;stroke:#a6abb0;stroke-linecap:round;stroke-linejoin:round;stroke-width:0.5px"/><path d="M183.7627,30.3846c1.1736,0,1.3567-.59.8015-1.7122s-1.2517-1.01-1.4163-1.01" style="fill:none;stroke:#a6abb0;stroke-linecap:round;stroke-linejoin:round;stroke-width:0.5px"/><path d="M155.8,27.2537c-1.232,0-2.3147.4532-1.6426,1.7921s1.4186,1.3388,2.576,1.3388" style="fill:none;stroke:#a6abb0;stroke-linecap:round;stroke-linejoin:round;stroke-width:0.5px"/></g></svg>