<svg xmlns="http://www.w3.org/2000/svg" width="218" height="155" viewBox="0 0 218 155"><g id="a69676c7-7f42-41fc-b3b9-d9ce1cb5c166" data-name="below"><path d="M38.156,87.26h.78a5.163,5.163,0,0,1,3.166.931l1.344,1.05c.366.286.263.75-.23,1.037a1.67,1.67,0,0,1-.825.214,1.2,1.2,0,0,1-.73-.214l-1.343-1.051a2.786,2.786,0,0,0-1.707-.5H16.605a3.891,3.891,0,0,0-1.928.5l-1.809,1.051a1.512,1.512,0,0,1-1.555,0c-.366-.287-.263-.751.229-1.037l1.809-1.05a7.223,7.223,0,0,1,3.578-.931h1.049" style="fill:none;stroke:#a6abb0;stroke-linecap:round;stroke-linejoin:round;stroke-width:0.5px"/><line x1="4.988" y1="83.266" x2="17.527" y2="83.266" style="fill:none;stroke:#a6abb0;stroke-linecap:round;stroke-linejoin:round;stroke-width:1.5px"/><path d="M17.569,59.136q-4.006-.06-8.473-.086" style="fill:none;stroke:#a6abb0;stroke-linecap:round;stroke-linejoin:round"/><path d="M30.761,32.831c-2.312,8.125-3.441,21.743-3.724,25.6" style="fill:none;stroke:#a6abb0;stroke-linecap:round;stroke-linejoin:round;stroke-width:0.5px"/><path d="M40,59.839s-.39-1.034-2.324-1.094c-7.265-.223-18.777-.553-18.777-.553s-1.469-.678-2.348,7.725,1.5,18.511,1.5,22.809h20.2c0-3.261-2.338-13.815-1.515-21.677s2.2-7.254,2.2-7.254Z" style="fill:none;stroke:#a6abb0;stroke-linecap:round;stroke-linejoin:round;stroke-width:0.5px"/><path d="M38.247,88.726c0-3.261-2.338-13.815-1.515-21.677s2.2-7.254,2.2-7.254L40,59.839s-.39-1.034-2.324-1.094c-7.265-.223-18.777-.553-18.777-.553s-1.469-.678-2.348,7.725,1.5,18.511,1.5,22.809" style="fill:none;stroke:#a6abb0;stroke-linejoin:round"/><path d="M40,59.839s-.39-1.034-2.324-1.094c-7.265-.223-19.094-.559-19.094-.559s-.456-.211-1.012,1.057" style="fill:none;stroke:#a6abb0;stroke-linecap:round;stroke-linejoin:round;stroke-width:1.5px"/><path d="M37.657,83.294H207.848a2.253,2.253,0,0,1,2.2,1.752l4.636,24.7a2.243,2.243,0,0,1,0,1l-.382,1.7a2.25,2.25,0,0,1-1.88,1.735c-11.483,1.636-66.016,8.674-209.215,17.534" style="fill:none;stroke:#a6abb0;stroke-linecap:round;stroke-linejoin:round;stroke-width:1.5px"/><path d="M17.928,59.159q-4.208-.068-8.848-.095" style="fill:none;stroke:#a6abb0;stroke-linecap:round;stroke-linejoin:round;stroke-width:1.5px"/><path d="M60.733,63.517a3.4,3.4,0,0,0-3.114-2.661c-3.928-.239-9.707-.648-17.617-1.017" style="fill:none;stroke:#a6abb0;stroke-linecap:round;stroke-linejoin:round"/><path d="M214.661,110.723a2.249,2.249,0,0,1-1.883,1.738c-11.455,1.632-65.677,8.63-207.8,17.454" style="fill:none;stroke:#a6abb0;stroke-linecap:round;stroke-linejoin:round;stroke-width:0.5px"/><path d="M154.952,63.936a3.221,3.221,0,0,1,2.981-3.565c2.9-.2,7.684-.5,14.421-.847,11.949-.61,29.852,6.2,31.092,12.071.468,2.218,2.193,10.673,2.4,11.682" style="fill:none;stroke:#a6abb0;stroke-linecap:round;stroke-linejoin:round;stroke-width:1.5px"/><path d="M197.807,116.019l-3.642,11.138a6.938,6.938,0,0,1-1.026,1.983l-15.008,20.191a1.939,1.939,0,0,1-1.556.782H12.116" style="fill:none;stroke:#a6abb0;stroke-linecap:round;stroke-linejoin:round;stroke-width:0.5px"/><path d="M12.567,131.109c.958,2.137,1.786,3.265,3.163,5.852,2.029,3.815,5.844,10.143,7.188,12.358a1.653,1.653,0,0,0,1.411.794" style="fill:none;stroke:#a6abb0;stroke-linecap:round;stroke-linejoin:round;stroke-width:0.5px"/><path d="M171.291,59.578s-.52-4.66-.931-9.459-8.152-13.962-18.883-17.675" style="fill:none;stroke:#a6abb0;stroke-linecap:round;stroke-linejoin:round;stroke-width:0.5px"/><path d="M62.967,30.616H33.824a3.119,3.119,0,0,0-3.062,2.2c.165-.89-.759-2.2-2.5-2.2H9.819" style="fill:none;stroke:#a6abb0;stroke-linecap:round;stroke-linejoin:round;stroke-width:0.5px"/><path d="M161.8,119.785c-1.5,5.339-3.892,13.932-4.807,17.409-.73,2.775-2.682,4.1-6.1,4.126-15.977.145-87.3,1.178-106.812,1.464a6.975,6.975,0,0,1-6.584-4.249c-1.031-2.809-2.259-6.2-3.21-8.825" style="fill:none;stroke:#a6abb0;stroke-linecap:round;stroke-linejoin:round;stroke-width:0.5px"/></g><g id="b0e98ca3-0399-4dc0-832a-c0b3b07ef1b7" data-name="illustration"><path d="M96.341,92.066a4.6,4.6,0,0,1,1.784-1.988,6.465,6.465,0,0,1,2.858-.927c1.562-.136,3.548-.206,5.9-.206s4.341.07,5.9.206a6.469,6.469,0,0,1,2.858.927,4.588,4.588,0,0,1,1.783,1.988l1.6,3.706a12.976,12.976,0,0,1,1.061,4.488l.644,12.348a4.228,4.228,0,0,1-1.348,3.291,6.217,6.217,0,0,1-3.739,1.577c-1.523.111-4.28.244-8.765.244s-7.242-.133-8.764-.244a5.993,5.993,0,0,1-3.739-1.577,4.378,4.378,0,0,1-1.348-3.291l.644-12.349a12.976,12.976,0,0,1,1.061-4.487Z" style="fill:#cfd2d4;stroke:#30373e;stroke-linecap:round;stroke-linejoin:round;stroke-width:1.5px"/><path d="M106.886,114.324c-4.314,0-6.944-.126-8.39-.232a3.617,3.617,0,0,1-2.256-.92,2.126,2.126,0,0,1-.658-1.559l.628-12.055a10.559,10.559,0,0,1,.864-3.647l1.565-3.618a2.36,2.36,0,0,1,.893-.958,4.044,4.044,0,0,1,1.79-.57c1.457-.128,3.33-.192,5.563-.192s4.107.064,5.565.192a4.04,4.04,0,0,1,1.79.571,2.356,2.356,0,0,1,.892.957l1.565,3.618a10.559,10.559,0,0,1,.864,3.647l.628,12.055a2.007,2.007,0,0,1-.658,1.559,3.831,3.831,0,0,1-2.256.92C113.829,114.2,111.2,114.324,106.886,114.324Z" style="fill:none;stroke:#30373e;stroke-linecap:round;stroke-linejoin:round;stroke-width:0.5px"/><path d="M117.058,113.2v-3.85c-.029-.844-.609-1.092-1.723-1.6-1.2-.549-2.17-.713-8.449-.713s-7.249.164-8.45.713c-1.113.508-1.73.757-1.739,1.6v3.858" style="fill:none;stroke:#30373e;stroke-linecap:round;stroke-linejoin:round"/><path d="M96.988,113.694V111.46c0-1.028.452-1.233,1.626-1.769s2.123-.7,8.267-.7,7.092.161,8.266.7,1.631.7,1.629,1.769v2.224" style="fill:none;stroke:#30373e;stroke-linecap:round;stroke-linejoin:round;stroke-width:0.5px"/><path d="M116.674,104.379H97.1c-.285,0-.285-3.087,0-3.087h19.579C116.962,101.292,116.962,104.379,116.674,104.379Z" style="fill:none;stroke:#30373e;stroke-linecap:round;stroke-linejoin:round;stroke-width:0.5px"/><path d="M99.5,101.292a57.826,57.826,0,0,0,.443-8.949" style="fill:none;stroke:#30373e;stroke-linecap:round;stroke-linejoin:round;stroke-width:0.5px"/><path d="M98.436,107.754c.159-.865.3-1.611.419-2.275q.1-.549.2-1.1" style="fill:none;stroke:#30373e;stroke-linecap:round;stroke-linejoin:round;stroke-width:0.5px"/><path d="M114.271,101.292a57.826,57.826,0,0,1-.443-8.949" style="fill:none;stroke:#30373e;stroke-linecap:round;stroke-linejoin:round;stroke-width:0.5px"/><path d="M115.335,107.754c-.159-.865-.3-1.611-.419-2.275q-.1-.549-.2-1.1" style="fill:none;stroke:#30373e;stroke-linecap:round;stroke-linejoin:round;stroke-width:0.5px"/><path d="M110.144,97.652v1.835a1.4,1.4,0,0,0-1.492,1.132l-.266,3.858a.474.474,0,0,1-.5.384H105.9a.474.474,0,0,1-.5-.384l-.266-3.858a1.4,1.4,0,0,0-1.491-1.132V97.6Z" style="fill:#f4ae3d;stroke:#30373e;stroke-linecap:round;stroke-linejoin:round;stroke-width:1.5px"/><path d="M107.031,99.647a47.414,47.414,0,0,1-8.428-.581,2.476,2.476,0,0,1-1.846-2.039l-1-5.046a2.9,2.9,0,0,1-.055-.546V88.619a1.6,1.6,0,0,1,1.546-1.644h.236a1.162,1.162,0,0,0,.707-.252l.777-.618a2.071,2.071,0,0,1,1.266-.445h13.541a2.063,2.063,0,0,1,1.262.441l.782.626a1.182,1.182,0,0,0,.706.248h.237a1.6,1.6,0,0,1,1.545,1.644v2.816a2.825,2.825,0,0,1-.054.547l-1,5.044a2.442,2.442,0,0,1-1.83,2.039A46.863,46.863,0,0,1,107.031,99.647Z" style="fill:#f4ae3d;stroke:#30373e;stroke-linecap:round;stroke-linejoin:round;stroke-width:1.5px"/><path d="M97.4,89.223v-.377a.5.5,0,0,1,.436-.489,2.667,2.667,0,0,0,1.408-.572l.786-.625a.41.41,0,0,1,.237-.085h13.465a.423.423,0,0,1,.247.092l.759.609a2.772,2.772,0,0,0,1.426.581.494.494,0,0,1,.435.482l.007.384" style="fill:none;stroke:#30373e;stroke-linecap:round;stroke-linejoin:round;stroke-width:0.5px"/><path d="M116.287,89.23H97.807c-50.037-8.4-59.483-9.818-58.053-27.253.083-1,.426-3.066,1.664-3,1.182.069,16.857,1.059,18.645,1.169A13.253,13.253,0,0,0,71.035,72.221h.014Z" style="fill:#f4ae3d;stroke:#30373e;stroke-linecap:round;stroke-linejoin:round;stroke-width:1.5px"/><path d="M115.97,89.23H97.49l44.977-16.9a13.293,13.293,0,0,0,11.715-12.21c3.149-.193,17.063-1.086,18.177-1.141,1.238-.069,1.581,1.993,1.664,3C175.453,79.412,165.993,80.829,115.97,89.23Z" style="fill:#f4ae3d;stroke:#30373e;stroke-linecap:round;stroke-linejoin:round;stroke-width:1.5px"/><path d="M116.611,89.223v2.652a.888.888,0,0,1-.016.172.762.762,0,0,1-.609.624,56.773,56.773,0,0,1-8.958.54,57.237,57.237,0,0,1-9-.543.769.769,0,0,1-.609-.624.885.885,0,0,1-.017-.171v-2.65s3.4-.176,9.6-.176S116.611,89.223,116.611,89.223Z" style="fill:#f4ae3d;stroke:#30373e;stroke-linecap:round;stroke-linejoin:round;stroke-width:0.5px"/><path d="M154.141,57.728A13.276,13.276,0,0,1,142,72.378c-4.66.372-16.94.958-34.877.958S76.9,72.75,72.243,72.377A13.276,13.276,0,0,1,60.1,57.727L64.327,18.3a7.227,7.227,0,0,1,1.651-3.858l4.765-5.673a5.854,5.854,0,0,1,3.876-2.058c4.846-.507,18.737-1.564,32.5-1.564s27.655,1.057,32.5,1.564A5.858,5.858,0,0,1,143.5,8.764l4.765,5.673a7.23,7.23,0,0,1,1.651,3.858Z" style="fill:none;stroke:#a6abb0;stroke-linecap:round;stroke-linejoin:round;stroke-width:1.5px"/><path d="M141.482,7.22l4.855,55.112c.407,3.681-4.136,6.815-6.349,6.973-4.808.344-16.332.86-32.868.86-16.774,0-28.028-.52-32.87-.863-2.193-.156-6.759-3.235-6.347-6.972.473-4.284.232-13.36,3.53-43.251L72.741,7.228" style="fill:none;stroke:#a6abb0;stroke-linecap:round;stroke-linejoin:round;stroke-width:0.5px"/></g></svg>