<svg xmlns="http://www.w3.org/2000/svg" width="218" height="218" viewBox="0 0 218 218"><g id="fae687d8-1d0d-406d-b1fa-7de7f59e7a43" data-name="below"><path d="M1.6886,128.9076c6.2727-2.1312,15.6435-4.3134,22.1187-6.1142,7.3907-1.97,14.7855-3.9251,22.1973-5.8156a.25.25,0,0,1,.1273.4835c-7.3814,2.0057-14.78,3.9471-22.1822,5.8729-6.5466,1.6278-15.7145,4.3315-22.2611,5.5734Z" style="fill:#a6abb0"/><path d="M74.8236,105.4651l-17.5982,4.372c-2.6344.6744-6.2564,1.6148-8.9483,1.582-6.0332.4727-12.0807-1.1161-18.0713-.4975-5.1233.6323-12.5944,2.6673-17.6973,3.7549-2.9411.6816-5.8865,1.3347-8.8839,1.7882,2.89-.903,5.8317-1.6065,8.7777-2.2816,5.1681-1.1168,12.5614-3.1477,17.7393-3.8033,6.068-.6452,12.0457.9372,18.11.4531,2.67.0309,6.2634-.9277,8.8447-1.589L74.703,104.98a.25.25,0,1,1,.1206.4853Z" style="fill:#a6abb0"/><path d="M17.1291,116.6959c.9107.4175,1.7892.8865,2.6512,1.3823a1.3854,1.3854,0,0,0,1.2456.1106l7.2158-1.8658c3.4173-.7858,8.2-2.1361,11.6313-2.6457-1.8746.6934-3.8,1.188-5.7221,1.6923-2.8713.7741-8.6643,2.2537-11.5543,2.95l-1.4468.3586c-1.5684.4736-2.8117-1.2116-4.0207-1.9825Z" style="fill:#a6abb0"/><path d="M24.5957,122.7859a101.1632,101.1632,0,0,1,6.1854,9.2575,101.2206,101.2206,0,0,1-6.5949-8.97.25.25,0,0,1,.41-.2871Z" style="fill:#a6abb0"/><path d="M8.6993,81.8954c10.9773-2.0214,27.1341-4.0686,38.3454-5.755l19.19-2.76c4.13-.4336,11.8394-2.6116,13.0129,3.1669a11.4566,11.4566,0,0,1-.6273,4.8837.25.25,0,0,1-.4776-.1479c3.1306-9.7319-5.2373-8.3623-11.8278-7.31L47.1216,76.6925c-11.2687,1.53-27.25,4.0549-38.4223,5.2029Z" style="fill:#a6abb0"/><path d="M104.3271,19.5627a1.1524,1.1524,0,0,0-1.3346.964c-1.8739,12.3923,5.5245,14.8438,9.2563,15.1948a1.0622,1.0622,0,0,0,1.1536-.9254l.4757-3.8062a1.0508,1.0508,0,0,0-.7773-1.1476c-3.0907-.8125-5.0633-2.1787-4.1977-8.4611a1.0527,1.0527,0,0,0-.8643-1.1814Z" style="fill:none;stroke:#a6abb0;stroke-linecap:round;stroke-linejoin:round;stroke-width:0.5px"/><path d="M111.6583,33.56c-6.7627-1.6791-7.2143-7.1122-6.8175-11.6035l1.9129.3283c-.5061,5.6262.8089,8.0614,5.1186,9.5639Z" style="fill:none;stroke:#a6abb0;stroke-linecap:round;stroke-linejoin:round;stroke-width:0.5px"/><path d="M195.949,67.8085c1.9217-5.1445,4.2777-4.6264,4.2777-4.6264s-2.4475-.2735-.7286-4.8572" style="fill:none;stroke:#a6abb0;stroke-linecap:round;stroke-linejoin:round;stroke-width:0.5px"/><path d="M200.2434,62.9326c3.8489.1833,7.681.6146,11.5129,1.018-3.8514-.1085-7.707-.19-11.5462-.5191a.25.25,0,0,1,.0333-.4989Z" style="fill:#a6abb0"/><path d="M173.5983,76.0718c-2.8279-2.188-4.7768-5.1494-7.4109-9.2831-2.6937-4.2269-3.8562-7.8828-7.07-8.4468-5.69-.9986-24.43-1.4075-28.45-1.2712s-6.4055,2.59-9.8808,5.5878-4.9745,4.9063-10.8348,6.6781-6.4321,2.2206-7.7.6133" style="fill:none;stroke:#a6abb0;stroke-linecap:round;stroke-linejoin:round;stroke-width:0.5px"/><path d="M191.4929,79.8535a1.8839,1.8839,0,0,1-2.0332,1.2448c-2.36-.3441-4.9615-.71-6.6787-1.0777" style="fill:none;stroke:#a6abb0;stroke-linecap:round;stroke-linejoin:round;stroke-width:0.5px"/><path d="M171.9,80.896a21.4547,21.4547,0,0,1-6.9873-7.7322c-3.37-6.5572-3.874-7.9285-8.4884-8.6058-7.8346-1.15-18.6558-1.4915-23.2351-1.6951s-6.1329.6815-10.29,4.02-5.5878,4.8382-12.2659,6.4736-8.1772,1.4311-8.1772,1.4311" style="fill:none;stroke:#a6abb0;stroke-linecap:round;stroke-linejoin:round;stroke-width:0.5px"/><path d="M188.9828,86.6546a2.4291,2.4291,0,0,0-1.1965-.5693l-6.7723-1.2905" style="fill:none;stroke:#a6abb0;stroke-linecap:round;stroke-linejoin:round;stroke-width:0.5px"/><path d="M165.9226,160.5453c13.142,5.7171,27.5511,11.7022,40.458,17.819-9.9236-3.8429-20.6858-8.74-30.5338-12.9255l-10.1232-4.4348a.25.25,0,0,1,.199-.4587Z" style="fill:#a6abb0"/><path d="M161.8985,177.8553c12.3257,6.2221,25.3033,12.6375,37.4166,19.2417-9.1912-4.2511-19.1695-9.4507-28.2766-14.0086-3.1363-1.5676-6.2447-3.19-9.3659-4.7872a.25.25,0,0,1,.2259-.4459Z" style="fill:#a6abb0"/><path d="M16.89,76.1631c6.8482-1.2419,16.9058-2.52,23.9062-3.488,3.5745-.4053,8.457-1.3454,12.02-1.4576,4.0985-.1546,8.0145,1.2418,11.8509,2.45a.25.25,0,0,1-.1464.478C60.693,72.9749,56.8673,71.678,52.8234,71.8c-3.4434.0929-8.4624,1.026-11.9546,1.4116-7.029.9225-17.0048,2.3307-23.9784,2.9513Z" style="fill:#a6abb0"/><path d="M87.3229,17.7269c-1.3769,11.1491-4.0924,23.45-6.1824,34.4773-.7494,3.8185-1.5426,7.6284-2.3465,11.4363a.51.51,0,0,1-.4361.4c-8.6367,1.0164-26.034,2.9808-34.68,3.9-10.177.9758-24.6482,2.8625-34.7549,3.2154,15.88-2.6805,35.8924-4.4012,51.97-6.3052L78.2489,63.047l-.4359.4c.6993-3.8283,1.4094-7.6545,2.1634-11.4721,2.2454-10.9981,4.3947-23.4068,7.3465-34.2482Z" style="fill:#a6abb0"/><path d="M92.7577,13.6779c-2.1,12.8394-6.014,31.5664-8.5135,44.5571L82.04,69.3625c-2.0459,9.1817-5.5021,18.1654-8.7823,26.9711-.346,1.2184-1.2269,2.6308-.9424,3.88.3983.7833,1.3955,1.138,2.039,1.7927,1.1471,1.1123.7263,2.9222.5264,4.281-.345,1.8762-.8207,3.7076-1.29,5.5407a60.4905,60.4905,0,0,1-3.5969,10.7886c-1.2327,2.5009-2.8752,5.349-5.6979,6.2688l-2.6994.8717c-10.4468,3.3675-21.9939,7.0774-32.3653,10.4852-7.1793,2.3643-14.2944,4.931-21.5877,6.96,14.1459-5.3587,28.6294-9.7508,42.9984-14.4583l10.7908-3.4811c1.5515-.5367,3.8719-1.0067,5-2.2716,3.8871-4.1121,5.1671-9.9694,6.6587-15.2929.5963-2.6874,1.6407-5.4776,1.4614-8.2275-.0948-.897-.8562-1.384-1.6575-1.9331a3.0735,3.0735,0,0,1-1.05-1.1183c-.4123-1.49.5465-2.8861.9321-4.2659l1.9885-5.3093a171.4848,171.4848,0,0,0,6.7779-21.587l2.2053-11.1209c2.595-12.9883,6.0878-31.695,9.0093-44.459Z" style="fill:#a6abb0"/><path d="M51.1728,216.5991c-5.9569-5.8433-12.5807-13.9512-18.2538-20.133-3.9385-4.4888-8.4755-8.9694-10.5384-14.7-1.1054-2.834-1.9244-5.7512-2.736-8.6606-1.1815-4.3668-2.4949-8.8067-2.5609-13.3806a12.39,12.39,0,0,1,3.331-8.3868,48.67,48.67,0,0,1,9.6193-9.6577c5.26-3.3453,11.7288-3.1152,17.6877-3.7309,11.9629-.6108,24.3662-1.7687,36.2153.4067a3.839,3.839,0,0,1-.1621.4684c-2.7357-1.6533-3.4951-5.003-3.9282-7.92-.7142-5.999.9122-11.9259,2.802-17.5484,2.8248-8.4546,6.085-16.7544,9.3564-25.0415C93.1186,85.55,94.1657,82.81,95.34,80.03c1.4948-2.7069,4.25-4.3524,7.0327-5.4771l-.1532.1558,1.2962-3.8568a.25.25,0,0,1,.4836.039.2757.2757,0,0,1-.2826.3135c-4.5493-2.0588-3.8645-6.8495-2.256-10.6667,1.2476-3.0859,2.6578-8.227,4.3669-11.0678,2.2436-3.3506,5.5905-5.6765,8.8435-7.9414a18.6049,18.6049,0,0,1,5.3615-2.6573,20.1153,20.1153,0,0,1,5.97-.35.25.25,0,1,1-.0191.5,19.6815,19.6815,0,0,0-5.8229.3339c-3.7345,1.113-6.9142,3.7278-9.9415,6.1133a19.9348,19.9348,0,0,0-3.9695,4.2713,28.4324,28.4324,0,0,0-2.2942,5.3947L101.9331,60.7c-1.0264,2.6286-1.994,5.801-.2567,8.2834a7.1565,7.1565,0,0,0,1.5867,1.426l.2938.1963a1.3251,1.3251,0,0,0,.1881.0993.2271.2271,0,0,0-.2393.2667l.4835.0388-1.296,3.8568a.25.25,0,0,1-.1534.1561,17.0868,17.0868,0,0,0-3.8465,2.0734,9.499,9.499,0,0,0-2.91,3.1628c-1.1319,2.6884-2.21,5.497-3.3136,8.24-2.189,5.5184-4.3452,11.05-6.3941,16.62-2.8447,8.2807-6.6973,16.7863-5.7328,25.7256.3921,2.7376,1.16,6.0278,3.6578,7.5341a.2524.2524,0,0,1-.1835.4635c-11.8447-2.12-24.1009-.9165-36.0522-.28-5.8289.5958-12.3134.3793-17.3915,3.6051a45.1714,45.1714,0,0,0-6.6228,6.0574c-1.9161,2.2433-4.0244,4.5434-5.2939,7.196-2.0762,5.6578.3719,11.9193,1.72,17.538,1.5652,5.7832,3.2881,11.67,7.198,16.3431,1.6305,2.1124,4.1855,4.7769,5.9372,6.821,5.548,6.2931,12.6256,13.9645,17.8605,20.4764Z" style="fill:#a6abb0"/><path d="M162.648,163.81c.5978-2.0137,3.1751-3.0351,3.1751-3.0351s-1.99-.9585-.88-4.1892" style="fill:none;stroke:#a6abb0;stroke-linecap:round;stroke-linejoin:round;stroke-width:0.5px"/><path d="M30.5489,193.5509c-8.5464,3.5786-17.075,7.1993-25.7751,10.3975,8.4154-3.886,17.0082-7.3516,25.5838-10.86a.25.25,0,0,1,.1913.4621Z" style="fill:#a6abb0"/><path d="M31.4724,194.2419c.8579,4.6105,1.8495,9.176,2.4718,13.8269.1284,2.8319-.7111,5.5922-1.1907,8.3626.2712-3.7048,1.2549-7.3875.229-11.0623-.7127-3.6705-1.3711-7.3512-2.0018-11.0369a.25.25,0,0,1,.4917-.09Z" style="fill:#a6abb0"/><path d="M127.7017,43.4429c-2.1865-3.0455-1.873-5.5611-1.4056-9.9172s2.8892-14.8367,4.1386-19.6,2.8247-6.751,4.6072-7.34c1.8844-.623,22.9209-7.338,32.4064-4.2949,3.4114,1.0945,5.7,3.3578,6.0128,9.5267.4857,9.5929.4657,24.1466.4657,24.1466" style="fill:none;stroke:#a6abb0;stroke-linecap:round;stroke-linejoin:round"/><path d="M173.9268,35.9639c-2.5769.1562-6.7128,4.1212-9.0554,6.4638s-6.4813,4.6072-9.6048,4.6853-12.9625.0781-18.8972-.0781-6.4813-.5466-8.6677-3.592" style="fill:none;stroke:#a6abb0;stroke-linecap:round;stroke-linejoin:round;stroke-width:0.5px"/><path d="M191.1717,35.2414q-4.6761.1863-9.3525.38c-4.2607.1763-7.2832.3058-7.8924.3427" style="fill:none;stroke:#a6abb0;stroke-linecap:round;stroke-linejoin:round"/><path d="M215.8651,34.2627a87.1,87.1,0,0,1-11.9454.9766.5007.5007,0,0,1-.04-.9992,87.0558,87.0558,0,0,1,11.9854.0226Z" style="fill:#a6abb0"/><path d="M169.6348,9.8381c1.3835.5443,1.7.7957,1.772,3.2549s-.0723,14.9-.1085,16.31-.2924,2.0572-1.8836,2.0572c-1.1212,0-1.6605-.5382-1.6605-2.455s.2531-16.2381.2531-17.8293S168.9275,9.56,169.6348,9.8381Z" style="fill:none;stroke:#a6abb0;stroke-linecap:round;stroke-linejoin:round;stroke-width:0.5px"/><path d="M162.8409,136.7044l-.1139.3612c-8.0553,25.532-9.6574,36.1872-8.3794,37.2433l-8.9064-4.6736c-1.1684-.9655.4-11.0517,8.2328-35.47l.2065-.6437" style="fill:none;stroke:#a6abb0;stroke-linecap:round;stroke-linejoin:round;stroke-width:0.5px"/><path d="M154.5183,130.873C164.615,102.1972,175.4425,70.83,185.32,41.9524c1.3446-3.3651,3.7047-7.11,7.613-7.8089,2.17-.1649,5.0885-.1865,7.2635-.3175.7395-.0311,4.36-.2449,4.0659.9995a.5.5,0,0,1-.637.2973c-1.7826-.6362-5.0633-.1-7.01-.1245l-3.5839.1513c-5.8323,1.2136-7.471,9.1975-9.3043,13.9413-9.4048,26.434-19.625,55.57-28.7356,81.9406a.25.25,0,1,1-.4742-.1585Z" style="fill:#a6abb0"/><path d="M204.337,34.9233c-1.944.0783-5.1139,1.4569-7.208,6.9823-6.78,17.8917-24.5434,64.4107-33.403,92.0205l-.1833-.0648-8.7873-2.909" style="fill:none;stroke:#a6abb0;stroke-linecap:round;stroke-linejoin:round;stroke-width:0.5px"/><path d="M212.8784,34.6451c-6.265.8642-7.657,10.3336-9.9177,15.2017-10.7448,27.89-22.8656,62.531-32.3945,91.0965l-6.2476,18.3a90.8056,90.8056,0,0,0-2.5928,9.2813c-.6327,3.1029-1.0073,6.4475.4076,9.3264a.2514.2514,0,0,1-.129.3362q-21.1978,6.1546-42.0445,13.4765c-2.7667.99-5.52,2.0245-8.1845,3.242-5.3681,2.4292-9.7254,6.5249-14.2256,10.2513,4.25-4.0518,8.59-8.2518,14.0114-10.712,16.338-6.73,33.3215-11.8006,50.2783-16.7291l-.1591.3468a11.0445,11.0445,0,0,1-1.02-4.7951c.3606-9.059,6.7944-23.7567,9.4323-32.4857,9.5459-28.6216,21.6319-63.154,32.4011-91.111,2.3905-5.1858,3.6742-14.5866,10.3647-15.5254a.25.25,0,1,1,.02.5Z" style="fill:#a6abb0"/><path d="M155.8548,127.6775l-1.5822-.0962a1.4383,1.4383,0,0,0-1.3977.8911l-.9586,2.3353a1.2636,1.2636,0,0,0,.3756,1.4993l2.5514,1.9505,6.2132,2.2115,3.9633.5229a1.434,1.434,0,0,0,1.5007-.9095l1.1636-3.0125a1.2522,1.2522,0,0,0-.5465-1.5757l-2.2286-1.2072" style="fill:none;stroke:#a6abb0;stroke-linecap:round;stroke-linejoin:round;stroke-width:0.5px"/><path d="M154.6972,134.2825l.648,2.1581-1.9773,5.8805a.5822.5822,0,0,0,.3461.748l2.6719.951a.6281.6281,0,0,0,.4976-.0384.6782.6782,0,0,0,.3331-.39l1.9207-5.8785,2.308-1.1931" style="fill:none;stroke:#a6abb0;stroke-linecap:round;stroke-linejoin:round;stroke-width:0.5px"/><polygon points="156.244 142.458 154.818 141.95 155.715 139.161 157.142 139.669 156.244 142.458" style="fill:none;stroke:#a6abb0;stroke-linecap:round;stroke-linejoin:round;stroke-width:0.5px"/><path d="M83.888,138.6019c5.8935,3.2394,9.2325,4.1253,11.0724,3.989,0,0,37.956,18.8758,39.9321,19.83a4.6612,4.6612,0,0,0,3.3391.477s.1025,1.9051,6.8656,5.2456" style="fill:none;stroke:#a6abb0;stroke-linecap:round;stroke-linejoin:round;stroke-width:0.5px"/><path d="M138.2316,162.8977c-.6815-2.7258,0-8.041,2.93-18.0581s8.1091-26.0989,10.426-32.1637,3.1346-11.38.2726-16.0819-3.2709-5.9285-8.7224-7.3595a122.6074,122.6074,0,0,0-17.9218-2.7939c-4.7019-.4089-6.8143.954-10.3578,3.0665s-5.724,3.9523-8.8586,11.0392-8.1091,22.2148-9.949,27.5982-3.1358,11.7876-1.09,14.4464" style="fill:none;stroke:#a6abb0;stroke-linecap:round;stroke-linejoin:round;stroke-width:0.5px"/><path d="M166.03,1.9231c-2.919-.4968-3.8459.5945-4.0367,4.7592-.4169,9.1024-.5559,17.8574-.6948,21.7485s-.8338,5.9756-3.1963,9.5888-4.1684,4.5874-8.06,4.5859-14.3872.0852-16.68.0434-3.5716-1.58-5.2772-4.49c-1.1944-2.0383-1.8167-4.3712-1.2161-8.3445" style="fill:none;stroke:#a6abb0;stroke-linecap:round;stroke-linejoin:round;stroke-width:0.5px"/></g><g id="a8afe8f8-3851-4cc9-8d1a-04ab30a3ddac" data-name="illustration"><path d="M84.7805,138.665c-30.5283-11.9933-50.3537-12.2775-53.6119,3.2848-2.5511,12.1852-2.6022,19.0546,14.4831,34.8182C65.7311,195.2941,83.678,197.6862,94.1392,190.48a194.923,194.923,0,0,0,28.5335-11.6218c18.07-9.43,6.8825-12.2658,14.2323-34.9156,3.1281-9.64,6.0926-14.0044,13.23-32.41,3.7334-9.6285,4.0019-12.7-.1363-20.7157-4.2313-8.1956-7.7557-8.8177-15.2152-9.97,0,0-18.7765-2.8743-25.03-3.8672-10.2325-1.6248-16.916-4.1831-25.0366,7.5682C70.5429,105.0585,77.9661,125.99,84.7805,138.665Z" style="fill:#cfd2d4;stroke:#30373e;stroke-linecap:round;stroke-linejoin:round;stroke-width:1.5px"/><path d="M95.312,79.3684c-8.5049,2.4285-20.0342,22.2148-17.1831,42.4214" style="fill:none;stroke:#30373e;stroke-linecap:round;stroke-linejoin:round;stroke-width:0.5px"/><path d="M106.836,149.7965c-29.3424-15.4432-58.3868-18.0807-62.2065-4.7484-1.6612,5.7982-4.1049,11.4588,7.8884,20.4538,14.0326,10.5245,21.2259,7.2682,25.0151,1.3339C82.91,158.4149,90.2,156.078,98.89,155.9436,109.7338,155.776,120.594,157.0374,106.836,149.7965Z" style="fill:none;stroke:#30373e;stroke-linecap:round;stroke-linejoin:round;stroke-width:0.5px"/><path d="M110.44,79.7773c-18.2457,14.5741-10.3578,44.43-19.432,61.8749" style="fill:none;stroke:#30373e;stroke-linecap:round;stroke-linejoin:round;stroke-width:0.5px"/><path d="M131.755,83.9422c5.1749,11.3941-1.05,20.9277-6.5049,34.3643" style="fill:none;stroke:#30373e;stroke-linecap:round;stroke-linejoin:round;stroke-width:0.5px"/><path d="M121.9028,127.0224a1.2169,1.2169,0,0,1-1.5365.6467l-23.1372-9.1983a1.217,1.217,0,0,1-.786-1.2676" style="fill:none;stroke:#30373e;stroke-linecap:round;stroke-linejoin:round;stroke-width:0.5px"/><path d="M141.7859,90.4077c4.4975,7.9046-6.2894,6.4619-16.232,27.2507-7.0379,14.7157-7.2487,28.6945-6.4034,38.845" style="fill:none;stroke:#30373e;stroke-linecap:round;stroke-linejoin:round;stroke-width:0.5px"/><path d="M152.6725,103.6805c-2.2052,6.9864-6.4787,5.0931-13.7019,18.9944-7.0961,13.6566-7.431,28.1229-7.431,38.7546" style="fill:none;stroke:#30373e;stroke-linecap:round;stroke-linejoin:round;stroke-width:0.5px"/><polyline points="111.122 31.945 106.478 57.808 101.224 56.257 106.859 28.095" style="fill:#f4ae3d;stroke:#30373e;stroke-linecap:round;stroke-linejoin:round"/><path d="M108.5181,79.0626l-9.5774.148a8.1847,8.1847,0,0,1-3.2913-.7088l-1.882-.8318a7.351,7.351,0,0,1-4.2-7.37c.4739-5.1744,1.8123-13.1335,5.5908-20.2783,5.7708-10.2289,20.9734-10.7615,22.4548-10.7584,3.96-2.3386,9.2275-1.2665,13.2565-.8208,6.84.7568,11.9322,2.0779,14.4774,4.821,15.4653,7.4525,16.4628,21.3028,8.2891,44.6958-1.0246,2.9323-3.49,5.1677-8.238,3.9127l-6.9208-1.8291c-1.892-.5-3.8237-1.9776-7.2413-5.9138Z" style="fill:#cfd2d4;stroke:#30373e;stroke-linecap:round;stroke-linejoin:round;stroke-width:1.5px"/><path d="M136.0426,88.41c1.2942.9248,5.9093,2.1562,7.512-1.6173,8.3866-19.747,8.7434-38.8836,2.1855-42.8747-.32-.1948-.6784.1341-.8057.4865L141.488,55.85a10.2626,10.2626,0,0,1-4.3874,5.7782l-1.5406.966a5.39,5.39,0,0,1-3.93.6645l-13.5362-2.6838a3.8962,3.8962,0,0,1-2.5785-1.8675,10.0134,10.0134,0,0,1-.9972-7.7078l2.4844-9.9455a3.6008,3.6008,0,0,1,2.091-2.1933" style="fill:none;stroke:#30373e;stroke-linecap:round;stroke-linejoin:round;stroke-width:0.5px"/><path d="M133.0745,85.7886c-3.8331-4.2439.7571-7.5958,3.7434-23.9836" style="fill:none;stroke:#30373e;stroke-linecap:round;stroke-linejoin:round;stroke-width:0.5px"/><path d="M107.7323,78.8746c5.5462-.8743,3.1678-8.1572,7.783-20.1677" style="fill:none;stroke:#30373e;stroke-linecap:round;stroke-linejoin:round;stroke-width:0.5px"/><path d="M95.6513,78.2269a7.5353,7.5353,0,0,1-4.1859-7.519c.4536-5.1923,1.7631-13.1782,5.5264-20.3457,2.07-3.9419,7.22-8.2579,11.4859-9.39" style="fill:none;stroke:#30373e;stroke-linecap:round;stroke-linejoin:round;stroke-width:0.5px"/><path d="M84.0712,134.6526c.1488-.384,16.0833-35.4871-28.6277-26.9613-13.5577,2.5853-10.2309,7.6821-7.4248,11,3.6652,4.3336,9.7714,5.404,19.9435,3.0863,10.7667-2.4532,10.6426,4.472,7.6321,10.63Z" style="fill:#cfd2d4;stroke:#30373e;stroke-linecap:round;stroke-linejoin:round;stroke-width:1.5px"/><path d="M65.5809,122.27c5.8792-1.6709,24.0427-7.7172,15.0323,11.4667" style="fill:none;stroke:#30373e;stroke-linecap:round;stroke-linejoin:round;stroke-width:0.5px"/><path d="M49.5176,109.3679c-2.5891,1.01-5.127,5.561,4.0889,3.5994,10.044-2.138,32.3-7.087,33.2549,6.8142" style="fill:none;stroke:#30373e;stroke-linecap:round;stroke-linejoin:round;stroke-width:0.5px"/><path d="M91.9109,88.168l-11.88,15.5784-18.7867,1.056a1.91,1.91,0,0,1-.9681-.2064l-5.7914-2.9571a1.8786,1.8786,0,0,0-1.3524-.2l-2.9908.6864a1.9046,1.9046,0,0,0-.965.5546,40.1849,40.1849,0,0,0-3.0363,3.4761c-.6312,1.177.1888,1.5011.1888,1.5011-.99,1.4175.1476,2.0322,1.3192,1.4527-.1286,1.1523.8365,1.1405,2.0623.9421-.2019.7058.8341,1.1914,2.04.66a13.8128,13.8128,0,0,0,1.94-1.75l1.0749-.3084c3.4295,2.9372,3.7777,1.7279,7.2034,1.9087.85.0449,13.7526,3.2828,20.7155,4.3219a5.406,5.406,0,0,0,4.9929-1.7084L96.1,103.2752" style="fill:none;stroke:#30373e;stroke-linecap:round;stroke-linejoin:round;stroke-width:1.5px"/><line x1="54.7654" y1="108.6536" x2="56.3312" y2="108.2101" style="fill:none;stroke:#30373e;stroke-linecap:round;stroke-linejoin:round;stroke-width:1.5px"/><path d="M46.3288,107.6572a40.17,40.17,0,0,1,3.0371-3.4768,1.9085,1.9085,0,0,1,.9631-.5536l3.09-.7093" style="fill:none;stroke:#30373e;stroke-linecap:round;stroke-linejoin:round;stroke-width:1.5px"/><path d="M47.648,109.11a40.17,40.17,0,0,1,3.0371-3.4768,1.9087,1.9087,0,0,1,.9631-.5537l3.2872-.7544" style="fill:none;stroke:#30373e;stroke-linecap:round;stroke-linejoin:round;stroke-width:1.5px"/><path d="M49.71,110.052a40.17,40.17,0,0,1,3.0371-3.4768,1.9085,1.9085,0,0,1,.9631-.5536l2.7475-.6306" style="fill:none;stroke:#30373e;stroke-linecap:round;stroke-linejoin:round;stroke-width:1.5px"/><path d="M61.29,110.2431c-3.0977,2.5222-2.8975,2.451-3.4026,2.5844a40.1892,40.1892,0,0,1-4.5032,1.0164c-.7168-.1583-.6509-1.3006.39-2.1087a13.8106,13.8106,0,0,1,2.4626-.8731l.31-1.1427" style="fill:none;stroke:#30373e;stroke-linecap:round;stroke-linejoin:round;stroke-width:1.5px"/><path d="M37.1928,160.2542c-7.3176,5.4266-11.1739,5.3728-15.3961,6.6993-5.5869.3515-6.6522,2.7908-6.264,5.46.4609,3.1682,10.0626,4.7954,15.301,3.2037,4.23-1.2855,5.1058.72,11.042.4892,4.7393-.1846,4.6341-2.0142,3.3575-5.9329a7.9311,7.9311,0,0,1,1.9943-5.0143" style="fill:none;stroke:#30373e;stroke-linecap:round;stroke-linejoin:round;stroke-width:1.5px"/><path d="M82.0829,128.3516c-6.816.8832-18.7669-1.2634-30.1755,1.1155-6.5911,1.3743-7.6648,11.1323-12.458,20.4578-2.3413,4.5552-5.8548,7.91-5.3068,10.33-.5393,1.0231-.7349,1.4076-.92,1.7912C31.65,165.3,43.9,172.1814,47.1236,166.4411c.38-.6769.0093-.0655.5219-.9278,1.8676-.3844,6.554-9.1591,9.3589-14.2682,1.9081-3.4753.0682-4.02,2.1806-4.2249,2.17-.21,32.5727,0,32.5727,0,10.63-.75,11.5162-8.79,11.5162-8.79" style="fill:none;stroke:#30373e;stroke-linecap:round;stroke-linejoin:round;stroke-width:1.5px"/><path d="M61.2242,177.1448l-10.3229-3.6816C48.2821,178.23,40.3774,185.3,40.3774,185.3s-6.161.6133-6.161,4.9871c0,1.9806,1.6424,4.4553,10.4106,4.12,7.3462-.2808,7.3067-3.2043,11.8594-4.1316,6.9783-1.4214,5.5338-4.6288,4.6594-8.9136A10.8819,10.8819,0,0,1,61.2242,177.1448Z" style="fill:none;stroke:#30373e;stroke-linecap:round;stroke-linejoin:round;stroke-width:1.5px"/><path d="M81.71,128.1686c6.7089-3.1247,17.7868-.7716,23.9833,2.4972,13.8145,7.2873,13.03,11.979,12.455,13.019-.9363,1.6946-1.8692,2.9606-2.4257,3.9071-3.885,6.6061-16.2873,5.5474-29.38,7.0446-6.8407.7822-5.7368,1.9475-8.8032,1.8248-1.961-.0784-.6846,2.089-3.8971,4.2428-4.6271,3.1024-6.9884,14.8492-10.1107,15.821-2.4119,3.2286-5.6972,3.2162-9.1016,1.7511-2.6037-1.12-4.483-3.0594-3.73-4.6607.1652-.3513.3591-.7876.3591-.7876-1.473-3.0365.8276-6.53,2.5379-10.5435,6.6269-15.5538,7.0187-22.0148,13.0917-23.256l15.225-2.7266c2.08-.4782,1.7974-1.8706,3.8377-1.7779" style="fill:none;stroke:#30373e;stroke-linecap:round;stroke-linejoin:round;stroke-width:1.5px"/><path d="M102.0974,95.8193c-4.66,6.907-7.2562,9.5622-8.4851,11.7733s-2.2189,3.3387-3.6913,2.2867c0,0-11.2515-6.5612-9.1742-8.9009s7.653-9.6579,11.001-13.8775c2.9711-3.7446,7.47-6.1967,11.1658-4.1675S105.2158,91.197,102.0974,95.8193Z" style="fill:none;stroke:#30373e;stroke-linecap:round;stroke-linejoin:round;stroke-width:1.5px"/><path d="M97.5158,87.3265c-9.3016,18.1943-5.6885,27.2107-15.8061,40.8421,9.0955,2.11,17.7069,8.48,24.3342,14.179,5.3939,4.6384,10.6314,6.2526,12.8759,1.8347,3.9206-7.7167,7.5912-18.42,10.1805-29.871,3.43-15.1688,8.183-22.3776-2.9669-29.3284-3.8448-2.3969-11.0489-3.1341-21.0093-3.4195C101.9438,81.4722,98.964,84.4937,97.5158,87.3265Z" style="fill:none;stroke:#30373e;stroke-linecap:round;stroke-linejoin:round;stroke-width:1.5px"/><path d="M110.0422,80.4786c.1542,2.1325-.5433,4.1552-.67,5.4913-.34,3.5712,1.0051,4.2589,5.7737,4.0319,7.9347-.3779,8.0513-5.5917,10.5733-13.0693" style="fill:none;stroke:#30373e;stroke-linecap:round;stroke-linejoin:round;stroke-width:1.5px"/><path d="M92.59,97.106c.2373-.7787.4975-1.5683.7862-2.3689,2.7087-7.5128,4.2267-10.5245,5.9644-13.0287s6.0133-2.9174,11.09-2.0955c.0511,2.811-1.2945,8.15-1.4329,15.0049,4.6125-6.1805,14.2661-9.8651,16.2619-16.22,1.1732.6128.346,3.0974-.56,4.93,9.2808,4.5548,12.3437,6.1421,7.85,24.8591-2.3649,9.849-5.3569,18.8676-12.7505,36.5338-1.9131,4.5712-8.3609,2.2656-13.7548-2.3728-6.6273-5.6989-15.2387-12.0692-24.3342-14.179l-1.4484-2.1175c-2.2538-2.3332,3.547-7.0922,5.8468-12.8162,2.0548-5.1141,4.4919-9.6,6.4818-16.1289" style="fill:none;stroke:#30373e;stroke-linecap:round;stroke-linejoin:round;stroke-width:1.5px"/><path d="M125.2511,82.1337a48.9439,48.9439,0,0,1-6.0408,9.6734,1.5808,1.5808,0,0,1-1.41.5954c-1.87-.1981-6.3971-.3665-8.8023,2.2153-1.7118,1.8374-3.391,3.2377-5.8846,14.4337-2.7361,12.2844-8.5808,12.19-11.4293,23.0421" style="fill:none;stroke:#30373e;stroke-linecap:round;stroke-linejoin:round;stroke-width:1.5px"/><path d="M110.4971,78.74c-2.3785,1.4251-5.4861,4.8353-6.67,6.1849a1.4723,1.4723,0,0,0-.3178,1.34,39.1041,39.1041,0,0,0,2.3995,5.5331" style="fill:none;stroke:#30373e;stroke-linecap:round;stroke-linejoin:round;stroke-width:1.5px"/><path d="M121.8843,79.6982A13.9727,13.9727,0,0,1,110.53,81.9269c-2.6237-.7421-2.8879-1.7436-3.9794-5.155-2.658-8.3074-.9093-9.8035.5281-17.1741,1.4671-7.5224,7.3115-9.8989,13.9866-8.01,9.9867,2.8264,9.7416,9.9063,7.3741,18.12-3.246,11.2612-5.8888,12.9534-5.8981,13.02" style="fill:none;stroke:#30373e;stroke-linecap:round;stroke-linejoin:round;stroke-width:1.5px"/><path d="M109.64,66.4942c-.0584,1.127-2.3525,2.1852-2.416,3.2546-.0526.888.7719,1.43,1.65,1.9192" style="fill:none;stroke:#30373e;stroke-linecap:round;stroke-linejoin:round;stroke-width:1.5px"/><path d="M107.7606,73.5954c.6814.8472,3.7649,1.2368,5.087.9773" style="fill:none;stroke:#30373e;stroke-linecap:round;stroke-linejoin:round;stroke-width:1.5px"/><path d="M100.0257,137.571c4.078,3.14,5.4515,10.7212,8.45,11.2664s-1.5445-3.5435-1.5445-3.5435" style="fill:none;stroke:#30373e;stroke-linecap:round;stroke-linejoin:round;stroke-width:1.5px"/><path d="M77.5393,156.4613c-.6958.0385-1.8087-.0424-2.9053-.0981" style="fill:none;stroke:#30373e;stroke-linecap:round;stroke-linejoin:round;stroke-width:1.5px"/><path d="M60.6912,177.2093a9.7318,9.7318,0,0,0,2.84-.6842" style="fill:none;stroke:#30373e;stroke-linecap:round;stroke-linejoin:round;stroke-width:1.5px"/><path d="M51.0594,172.8279a12.97,12.97,0,0,0,1.2026,1.3527" style="fill:none;stroke:#30373e;stroke-linecap:round;stroke-linejoin:round;stroke-width:1.5px"/><path d="M58.7,147.0819a5.3433,5.3433,0,0,1-3.2573-1.7642" style="fill:none;stroke:#30373e;stroke-linecap:round;stroke-linejoin:round;stroke-width:1.5px"/><path d="M43.5478,165.7937a12.0776,12.0776,0,0,0,4.0977-.28" style="fill:none;stroke:#30373e;stroke-linecap:round;stroke-linejoin:round;stroke-width:1.5px"/><path d="M34.1426,160.2547a4.2123,4.2123,0,0,0,.9124,2.0387" style="fill:none;stroke:#30373e;stroke-linecap:round;stroke-linejoin:round;stroke-width:1.5px"/><path d="M46.42,179.3039c1.3606-1.1583,4.6189.9545,6.1574,3.2986s3.9355.9819,4.4526.5557-.3862-1.5921-2.791-4.2988-5.184-3.7662-6.3446-2.6495a18.9613,18.9613,0,0,0-2.29,2.4092c-.4326.6226.159,1.3935.159,1.3935Z" style="fill:none;stroke:#30373e;stroke-linecap:round;stroke-linejoin:round;stroke-width:1.5px"/><path d="M30.8557,168.8836c-1.5318-1.4175-3.033-4.105-1.8535-4.7855a16.4753,16.4753,0,0,1,2.2487-1.1754c.5111-.2045,1.0661.319,1.0661.319l-.2373.1432a8.3591,8.3591,0,0,0,3.5263,4.1869" style="fill:none;stroke:#30373e;stroke-linecap:round;stroke-linejoin:round;stroke-width:1.5px"/><path d="M38.8175,192.1509s-.2131-.8153-.4741-2.1728l-2.862-.954a3.0516,3.0516,0,0,0-.989,2.56" style="fill:none;stroke:#30373e;stroke-linecap:round;stroke-linejoin:round;stroke-width:1.5px"/><path d="M42.5792,192.8353a16.4647,16.4647,0,0,1-3.7617-.6844" style="fill:none;stroke:#30373e;stroke-linecap:round;stroke-linejoin:round;stroke-width:1.5px"/><path d="M61.1458,181.3619c.0143,1.9085.0385,4.1921-2.3813,5.3668" style="fill:none;stroke:#30373e;stroke-linecap:round;stroke-linejoin:round;stroke-width:1.5px"/><path d="M44.1113,185.6286a5.8594,5.8594,0,0,0-3.7339-.3287" style="fill:none;stroke:#30373e;stroke-linecap:round;stroke-linejoin:round;stroke-width:1.5px"/><path d="M44.8816,183.82a5.4537,5.4537,0,0,0-2.7863-.1181" style="fill:none;stroke:#30373e;stroke-linecap:round;stroke-linejoin:round;stroke-width:1.5px"/><path d="M46.9478,182.5059a4.8037,4.8037,0,0,0-3.2332-.3837" style="fill:none;stroke:#30373e;stroke-linecap:round;stroke-linejoin:round;stroke-width:1.5px"/><path d="M47.9823,180.7271a4.37,4.37,0,0,0-2.7449-.1594" style="fill:none;stroke:#30373e;stroke-linecap:round;stroke-linejoin:round;stroke-width:1.5px"/><path d="M27.1632,165.5125a4.6838,4.6838,0,0,0,.4207,1.7856" style="fill:none;stroke:#30373e;stroke-linecap:round;stroke-linejoin:round;stroke-width:1.5px"/><path d="M25.1856,166.0492a5.46,5.46,0,0,0,1.4324,3.3361" style="fill:none;stroke:#30373e;stroke-linecap:round;stroke-linejoin:round;stroke-width:1.5px"/><path d="M23.208,166.5859a4.7294,4.7294,0,0,0,.5145,1.9753" style="fill:none;stroke:#30373e;stroke-linecap:round;stroke-linejoin:round;stroke-width:1.5px"/><path d="M21.23,167.1226a4.5253,4.5253,0,0,0,.2288,1.29" style="fill:none;stroke:#30373e;stroke-linecap:round;stroke-linejoin:round;stroke-width:1.5px"/><path d="M17.1716,172.5016a4.2629,4.2629,0,0,1-.5068-2.2444l-.05-1.6335" style="fill:none;stroke:#30373e;stroke-linecap:round;stroke-linejoin:round;stroke-width:1.5px"/><path d="M45.2332,170.1736c-.3692,1.6471-1.0974,2.5642-3.54,2.777" style="fill:none;stroke:#30373e;stroke-linecap:round;stroke-linejoin:round;stroke-width:1.5px"/><path d="M112.357,56.0944a26.9352,26.9352,0,0,0,7.0422,8.6071,26.0923,26.0923,0,0,0,.1234-3.6975,43.53,43.53,0,0,0,3.3511,7.24l1.522-1.28a37.7318,37.7318,0,0,1,.9089,11.4651c2.1564-.0314,4.1-.6645,4.7264-3.0278a2.1021,2.1021,0,0,0,2.3632.489c-1.0468-1.8115-.5579-4.4505.1379-8.6881.934-5.7168-.3447-11.9539-3.8927-13.8972-.9027-2.9148-8.6254-6.5819-15.3953-4.1121-6.3124,2.3006-6.9956,8.1422-10.8258,10.7658a9.2059,9.2059,0,0,0,1.8235,2.8978,5.95,5.95,0,0,0,1.198,3.9445c1.12-5.282,2.5655-9.1707,5.6234-11.5657" style="fill:none;stroke:#30373e;stroke-linecap:round;stroke-linejoin:round;stroke-width:1.5px"/><path d="M123.6942,67.5607c1.3547-1.7759,5.1243-.9459,3.788,3.17-1.06,3.2638-2.441,3.97-3.4775,3.5934" style="fill:none;stroke:#30373e;stroke-linecap:round;stroke-linejoin:round;stroke-width:1.5px"/><path d="M91.9109,88.168l-11.88,15.5784-18.7867,1.056a1.91,1.91,0,0,1-.9681-.2064l-5.7914-2.9571a1.8786,1.8786,0,0,0-1.3524-.2l-2.9908.6864a1.9046,1.9046,0,0,0-.965.5546,40.1849,40.1849,0,0,0-3.0363,3.4761c-.6312,1.177.1888,1.5011.1888,1.5011-.99,1.4175.1476,2.0322,1.3192,1.4527-.1286,1.1523.8365,1.1405,2.0623.9421-.2019.7058.8341,1.1914,2.04.66a13.8128,13.8128,0,0,0,1.94-1.75l1.0749-.3084c3.4295,2.9372,3.7777,1.7279,7.2034,1.9087.85.0449,13.7526,3.2828,20.7155,4.3219a5.406,5.406,0,0,0,4.9929-1.7084L96.1,103.2752" style="fill:#f4f4f4;stroke:#30373e;stroke-linecap:round;stroke-linejoin:round;stroke-width:0.5px"/><line x1="54.7654" y1="108.6536" x2="56.3312" y2="108.2101" style="fill:#f4f4f4;stroke:#30373e;stroke-linecap:round;stroke-linejoin:round;stroke-width:0.5px"/><path d="M46.3288,107.6572a40.17,40.17,0,0,1,3.0371-3.4768,1.9085,1.9085,0,0,1,.9631-.5536l3.09-.7093" style="fill:#f4f4f4;stroke:#30373e;stroke-linecap:round;stroke-linejoin:round;stroke-width:0.5px"/><path d="M47.648,109.11a40.17,40.17,0,0,1,3.0371-3.4768,1.9087,1.9087,0,0,1,.9631-.5537l3.2872-.7544" style="fill:#f4f4f4;stroke:#30373e;stroke-linecap:round;stroke-linejoin:round;stroke-width:0.5px"/><path d="M49.71,110.052a40.17,40.17,0,0,1,3.0371-3.4768,1.9085,1.9085,0,0,1,.9631-.5536l2.7475-.6306" style="fill:#f4f4f4;stroke:#30373e;stroke-linecap:round;stroke-linejoin:round;stroke-width:0.5px"/><path d="M61.29,110.2431c-3.0977,2.5222-2.8975,2.451-3.4026,2.5844a40.1892,40.1892,0,0,1-4.5032,1.0164c-.7168-.1583-.6509-1.3006.39-2.1087a13.8106,13.8106,0,0,1,2.4626-.8731l.31-1.1427" style="fill:#f4f4f4;stroke:#30373e;stroke-linecap:round;stroke-linejoin:round;stroke-width:0.5px"/><path d="M37.1928,160.2542c-7.3176,5.4266-11.1739,5.3728-15.3961,6.6993-5.5869.3515-6.6522,2.7908-6.264,5.46.4609,3.1682,10.0626,4.7954,15.301,3.2037,4.23-1.2855,5.1058.72,11.042.4892,4.7393-.1846,4.6341-2.0142,3.3575-5.9329a7.9311,7.9311,0,0,1,1.9943-5.0143" style="fill:#f4f4f4;stroke:#30373e;stroke-linecap:round;stroke-linejoin:round;stroke-width:0.5px"/><path d="M82.0829,128.3516c-6.816.8832-18.7669-1.2634-30.1755,1.1155-6.5911,1.3743-7.6648,11.1323-12.458,20.4578-2.3413,4.5552-5.8548,7.91-5.3068,10.33-.5393,1.0231-.7349,1.4076-.92,1.7912C31.65,165.3,43.9,172.1814,47.1236,166.4411c.38-.6769.0093-.0655.5219-.9278,1.8676-.3844,6.554-9.1591,9.3589-14.2682,1.9081-3.4753.0682-4.02,2.1806-4.2249,2.17-.21,32.5727,0,32.5727,0,10.63-.75,11.5162-8.79,11.5162-8.79" style="fill:#f4f4f4;stroke:#30373e;stroke-linecap:round;stroke-linejoin:round;stroke-width:0.5px"/><path d="M61.2242,177.1448l-10.3229-3.6816C48.2821,178.23,40.3774,185.3,40.3774,185.3s-6.161.6133-6.161,4.9871c0,1.9806,1.6424,4.4553,10.4106,4.12,7.3462-.2808,7.3067-3.2043,11.8594-4.1316,6.9783-1.4214,5.5338-4.6288,4.6594-8.9136A10.8819,10.8819,0,0,1,61.2242,177.1448Z" style="fill:#f4f4f4;stroke:#30373e;stroke-linecap:round;stroke-linejoin:round;stroke-width:0.5px"/><path d="M81.71,128.1686c6.7089-3.1247,17.7868-.7716,23.9833,2.4972,13.8145,7.2873,13.03,11.979,12.455,13.019-.9363,1.6946-1.8692,2.9606-2.4257,3.9071-3.885,6.6061-16.2873,5.5474-29.38,7.0446-6.8407.7822-5.7368,1.9475-8.8032,1.8248-1.961-.0784-.6846,2.089-3.8971,4.2428-4.6271,3.1024-6.9884,14.8492-10.1107,15.821-2.4119,3.2286-5.6972,3.2162-9.1016,1.7511-2.6037-1.12-4.483-3.0594-3.73-4.6607.1652-.3513.3591-.7876.3591-.7876-1.473-3.0365.8276-6.53,2.5379-10.5435,6.6269-15.5538,7.0187-22.0148,13.0917-23.256l15.225-2.7266c2.08-.4782,1.7974-1.8706,3.8377-1.7779" style="fill:#f4f4f4;stroke:#30373e;stroke-linecap:round;stroke-linejoin:round;stroke-width:0.5px"/><path d="M102.0974,95.8193c-4.66,6.907-7.2562,9.5622-8.4851,11.7733s-2.2189,3.3387-3.6913,2.2867c0,0-11.2515-6.5612-9.1742-8.9009s7.653-9.6579,11.001-13.8775c2.9711-3.7446,7.47-6.1967,11.1658-4.1675S105.2158,91.197,102.0974,95.8193Z" style="fill:#f4f4f4;stroke:#30373e;stroke-linecap:round;stroke-linejoin:round;stroke-width:0.5px"/><path d="M97.5158,87.3265c-9.3016,18.1943-5.6885,27.2107-15.8061,40.8421,9.0955,2.11,17.7069,8.48,24.3342,14.179,5.3939,4.6384,10.6314,6.2526,12.8759,1.8347,3.9206-7.7167,7.5912-18.42,10.1805-29.871,3.43-15.1688,8.183-22.3776-2.9669-29.3284-3.8448-2.3969-11.0489-3.1341-21.0093-3.4195C101.9438,81.4722,98.964,84.4937,97.5158,87.3265Z" style="fill:#f4f4f4;stroke:#30373e;stroke-linecap:round;stroke-linejoin:round;stroke-width:0.5px"/><path d="M110.0422,80.4786c.1542,2.1325-.5433,4.1552-.67,5.4913-.34,3.5712,1.0051,4.2589,5.7737,4.0319,7.9347-.3779,8.0513-5.5917,10.5733-13.0693" style="fill:#f4f4f4;stroke:#30373e;stroke-linecap:round;stroke-linejoin:round;stroke-width:0.5px"/><path d="M92.59,97.106c.2373-.7787.4975-1.5683.7862-2.3689,2.7087-7.5128,4.2267-10.5245,5.9644-13.0287s6.0133-2.9174,11.09-2.0955c.0511,2.811-1.2945,8.15-1.4329,15.0049,4.6125-6.1805,14.2661-9.8651,16.2619-16.22,1.1732.6128.346,3.0974-.56,4.93,9.2808,4.5548,12.3437,6.1421,7.85,24.8591-2.3649,9.849-5.3569,18.8676-12.7505,36.5338-1.9131,4.5712-8.3609,2.2656-13.7548-2.3728-6.6273-5.6989-15.2387-12.0692-24.3342-14.179l-1.4484-2.1175c-2.2538-2.3332,3.547-7.0922,5.8468-12.8162,2.0548-5.1141,4.4919-9.6,6.4818-16.1289" style="fill:#f4f4f4;stroke:#30373e;stroke-linecap:round;stroke-linejoin:round;stroke-width:0.5px"/><path d="M125.2511,82.1337a48.9439,48.9439,0,0,1-6.0408,9.6734,1.5808,1.5808,0,0,1-1.41.5954c-1.87-.1981-6.3971-.3665-8.8023,2.2153-1.7118,1.8374-3.391,3.2377-5.8846,14.4337-2.7361,12.2844-8.5808,12.19-11.4293,23.0421" style="fill:none;stroke:#30373e;stroke-linecap:round;stroke-linejoin:round;stroke-width:0.5px"/><path d="M110.4971,78.74c-2.3785,1.4251-5.4861,4.8353-6.67,6.1849a1.4723,1.4723,0,0,0-.3178,1.34,39.1041,39.1041,0,0,0,2.3995,5.5331" style="fill:none;stroke:#30373e;stroke-linecap:round;stroke-linejoin:round;stroke-width:0.5px"/><path d="M121.8843,79.6982A13.9727,13.9727,0,0,1,110.53,81.9269c-2.6237-.7421-2.8879-1.7436-3.9794-5.155-2.658-8.3074-.9093-9.8035.5281-17.1741,1.4671-7.5224,7.3115-9.8989,13.9866-8.01,9.9867,2.8264,9.7416,9.9063,7.3741,18.12-3.246,11.2612-5.8888,12.9534-5.8981,13.02" style="fill:#f4f4f4;stroke:#30373e;stroke-linecap:round;stroke-linejoin:round;stroke-width:0.5px"/><path d="M109.64,66.4942c-.0584,1.127-2.3525,2.1852-2.416,3.2546-.0526.888.7719,1.43,1.65,1.9192" style="fill:none;stroke:#30373e;stroke-linecap:round;stroke-linejoin:round;stroke-width:0.5px"/><path d="M107.7606,73.5954c.6814.8472,3.7649,1.2368,5.087.9773" style="fill:none;stroke:#30373e;stroke-linecap:round;stroke-linejoin:round;stroke-width:0.5px"/><path d="M100.0257,137.571c4.078,3.14,5.4515,10.7212,8.45,11.2664s-1.5445-3.5435-1.5445-3.5435" style="fill:none;stroke:#30373e;stroke-linecap:round;stroke-linejoin:round;stroke-width:0.5px"/><path d="M77.5393,156.4613c-.6958.0385-1.8087-.0424-2.9053-.0981" style="fill:none;stroke:#30373e;stroke-linecap:round;stroke-linejoin:round;stroke-width:0.5px"/><path d="M60.6912,177.2093a9.7318,9.7318,0,0,0,2.84-.6842" style="fill:#f4f4f4;stroke:#30373e;stroke-linecap:round;stroke-linejoin:round;stroke-width:0.5px"/><path d="M51.0594,172.8279a12.97,12.97,0,0,0,1.2026,1.3527" style="fill:#f4f4f4;stroke:#30373e;stroke-linecap:round;stroke-linejoin:round;stroke-width:0.5px"/><path d="M58.7,147.0819a5.3433,5.3433,0,0,1-3.2573-1.7642" style="fill:none;stroke:#30373e;stroke-linecap:round;stroke-linejoin:round;stroke-width:0.5px"/><path d="M43.5478,165.7937a12.0776,12.0776,0,0,0,4.0977-.28" style="fill:#f4f4f4;stroke:#30373e;stroke-linecap:round;stroke-linejoin:round;stroke-width:0.5px"/><path d="M34.1426,160.2547a4.2123,4.2123,0,0,0,.9124,2.0387" style="fill:#f4f4f4;stroke:#30373e;stroke-linecap:round;stroke-linejoin:round;stroke-width:0.5px"/><path d="M46.42,179.3039c1.3606-1.1583,4.6189.9545,6.1574,3.2986s3.9355.9819,4.4526.5557-.3862-1.5921-2.791-4.2988-5.184-3.7662-6.3446-2.6495a18.9613,18.9613,0,0,0-2.29,2.4092c-.4326.6226.159,1.3935.159,1.3935Z" style="fill:#f4f4f4;stroke:#30373e;stroke-linecap:round;stroke-linejoin:round;stroke-width:0.5px"/><path d="M30.8557,168.8836c-1.5318-1.4175-3.033-4.105-1.8535-4.7855a16.4753,16.4753,0,0,1,2.2487-1.1754c.5111-.2045,1.0661.319,1.0661.319l-.2373.1432a8.3591,8.3591,0,0,0,3.5263,4.1869" style="fill:#f4f4f4;stroke:#30373e;stroke-linecap:round;stroke-linejoin:round;stroke-width:0.5px"/><path d="M38.8175,192.1509s-.2131-.8153-.4741-2.1728l-2.862-.954a3.0516,3.0516,0,0,0-.989,2.56" style="fill:none;stroke:#30373e;stroke-linecap:round;stroke-linejoin:round;stroke-width:0.5px"/><path d="M42.5792,192.8353a16.4647,16.4647,0,0,1-3.7617-.6844" style="fill:none;stroke:#30373e;stroke-linecap:round;stroke-linejoin:round;stroke-width:0.5px"/><path d="M61.1458,181.3619c.0143,1.9085.0385,4.1921-2.3813,5.3668" style="fill:none;stroke:#30373e;stroke-linecap:round;stroke-linejoin:round;stroke-width:0.5px"/><path d="M44.1113,185.6286a5.8594,5.8594,0,0,0-3.7339-.3287" style="fill:none;stroke:#30373e;stroke-linecap:round;stroke-linejoin:round;stroke-width:0.5px"/><path d="M44.8816,183.82a5.4537,5.4537,0,0,0-2.7863-.1181" style="fill:none;stroke:#30373e;stroke-linecap:round;stroke-linejoin:round;stroke-width:0.5px"/><path d="M46.9478,182.5059a4.8037,4.8037,0,0,0-3.2332-.3837" style="fill:none;stroke:#30373e;stroke-linecap:round;stroke-linejoin:round;stroke-width:0.5px"/><path d="M47.9823,180.7271a4.37,4.37,0,0,0-2.7449-.1594" style="fill:none;stroke:#30373e;stroke-linecap:round;stroke-linejoin:round;stroke-width:0.5px"/><path d="M27.1632,165.5125a4.6838,4.6838,0,0,0,.4207,1.7856" style="fill:#f4f4f4;stroke:#30373e;stroke-linecap:round;stroke-linejoin:round;stroke-width:0.5px"/><path d="M25.1856,166.0492a5.46,5.46,0,0,0,1.4324,3.3361" style="fill:#f4f4f4;stroke:#30373e;stroke-linecap:round;stroke-linejoin:round;stroke-width:0.5px"/><path d="M23.208,166.5859a4.7294,4.7294,0,0,0,.5145,1.9753" style="fill:#f4f4f4;stroke:#30373e;stroke-linecap:round;stroke-linejoin:round;stroke-width:0.5px"/><path d="M21.23,167.1226a4.5253,4.5253,0,0,0,.2288,1.29" style="fill:#f4f4f4;stroke:#30373e;stroke-linecap:round;stroke-linejoin:round;stroke-width:0.5px"/><path d="M17.1716,172.5016a4.2629,4.2629,0,0,1-.5068-2.2444l-.05-1.6335" style="fill:none;stroke:#30373e;stroke-linecap:round;stroke-linejoin:round;stroke-width:0.5px"/><path d="M45.2332,170.1736c-.3692,1.6471-1.0974,2.5642-3.54,2.777" style="fill:none;stroke:#30373e;stroke-linecap:round;stroke-linejoin:round;stroke-width:0.5px"/><path d="M112.357,56.0944a26.9352,26.9352,0,0,0,7.0422,8.6071,26.0923,26.0923,0,0,0,.1234-3.6975,43.53,43.53,0,0,0,3.3511,7.24l1.522-1.28a37.7318,37.7318,0,0,1,.9089,11.4651c2.1564-.0314,4.1-.6645,4.7264-3.0278a2.1021,2.1021,0,0,0,2.3632.489c-1.0468-1.8115-.5579-4.4505.1379-8.6881.934-5.7168-.3447-11.9539-3.8927-13.8972-.9027-2.9148-8.6254-6.5819-15.3953-4.1121-6.3124,2.3006-6.9956,8.1422-10.8258,10.7658a9.2059,9.2059,0,0,0,1.8235,2.8978,5.95,5.95,0,0,0,1.198,3.9445c1.12-5.282,2.5655-9.1707,5.6234-11.5657" style="fill:#f4f4f4;stroke:#30373e;stroke-linecap:round;stroke-linejoin:round;stroke-width:0.5px"/><path d="M123.6942,67.5607c1.3547-1.7759,5.1243-.9459,3.788,3.17-1.06,3.2638-2.441,3.97-3.4775,3.5934" style="fill:#f4f4f4;stroke:#30373e;stroke-linecap:round;stroke-linejoin:round;stroke-width:0.5px"/><path d="M106.7537,22.2846c-.5061,5.6262.8089,8.0614,5.1186,9.5639" style="fill:none;stroke:#a6abb0;stroke-linecap:round;stroke-linejoin:round;stroke-width:0.5px"/><path d="M106.6988,130.7194c-8.4142-12.2544-14.0053-28.2505-10.6-52.0339,1.2343.5037,2.6249.65,5.6341.4819-3.6695,29.0466,13.5919,50.6643,13.5919,50.6643Z" style="fill:#f4ae3d;stroke:#30373e;stroke-linecap:round;stroke-linejoin:round;stroke-width:1.5px"/><path d="M102.5048,148.6156c-10.139-9.327-23.4777-15.0927-29.5876-20.6863l3.0766-5.404a97.8542,97.8542,0,0,1,30.8547,20.489Z" style="fill:#f4ae3d;stroke:#30373e;stroke-linecap:round;stroke-linejoin:round;stroke-width:1.5px"/><path d="M94.1392,190.48c8.0936-5.9343,7.4866-19.2877,17.7537-23.0786,4.2557-1.5713,11.8677-2.3385,13.5118-13.6489.7595-5.2246-2.2034-8.0316-11.691-5.87-11.5748,2.6373-16.2347,1.6892-20.4053-3.242-3.1931-3.7755-5.97-9.3116,9.0161-12.8617,41.334-9.7916,35.6006,19.21,32.5753,31.27-1.99,7.9309-3.3585,14.0257-11.178,17.6734C112.9986,185.724,99.63,189.622,94.1392,190.48Z" style="fill:#cfd2d4;stroke:#30373e;stroke-linecap:round;stroke-linejoin:round;stroke-width:1.5px"/><path d="M110.0924,148.3824c9.6508-1.9009,24.2951-8.1553,20.3182,9.9238-1.8558,8.4368-3.1536,10.43-6.6531,12.07-6.3692,2.9848-6.1226-4.37-11.8646-2.729" style="fill:none;stroke:#30373e;stroke-linecap:round;stroke-linejoin:round;stroke-width:0.5px"/><path d="M95.738,134.2249c-4.5174,1.7621-5.3678,6.9875,6.08,4.2618,16.7756-3.9942,33.9744-8.427,35.0474,7.1952" style="fill:none;stroke:#30373e;stroke-linecap:round;stroke-linejoin:round;stroke-width:0.5px"/><path d="M134.0919,162.2228a152.7483,152.7483,0,0,1-28.6868-12.9773c3.4611-.3654,5.8221-.9262,9.2829-1.5718l20.1041,9.2578Z" style="fill:#f4ae3d;stroke:#30373e;stroke-linecap:round;stroke-linejoin:round;stroke-width:1.5px"/><polygon points="148.822 166.071 148.152 172.393 159.677 176.686 148.822 166.071" style="fill:#f4ae3d;stroke:#30373e;stroke-linecap:round;stroke-miterlimit:10;stroke-width:1.5px"/><path d="M147.3007,172.9427a2.0311,2.0311,0,0,1-1.9253.0626l-10.6523-5.9221a1.1,1.1,0,0,1-.6713-1.1778l1.2186-5.7582a1.1774,1.1774,0,0,1,.5588-.7364l2.46-1.5316a2.0214,2.0214,0,0,1,2.034-.0037l9.2461,6.3245a2.5074,2.5074,0,0,1,1.3348,2.4253l-.4853,3.66a1.8469,1.8469,0,0,1-.9176,1.2928Z" style="fill:#f4ae3d;stroke:#30373e;stroke-linecap:round;stroke-linejoin:round;stroke-width:1.5px"/><polygon points="139.041 158.715 138.059 164.461 136.407 165.309 137.386 159.802 139.041 158.715" style="fill:#f4ae3d;stroke:#30373e;stroke-linecap:round;stroke-linejoin:round;stroke-width:0.5px"/><path d="M136.4485,165.0272c-.1245.7236-.82.9453-1.554.4951l-3.0269-1.8573a2.3156,2.3156,0,0,1-1.1032-2.1255l1.1419-6.6389c.1245-.7237.82-.9453,1.5539-.4951l3.0269,1.8572a2.3159,2.3159,0,0,1,1.1033,2.1255Z" style="fill:#f4ae3d;stroke:#30373e;stroke-linecap:round;stroke-linejoin:round;stroke-width:1.5px"/><path d="M119.7152,113.6671l-.4519,9.8762-13.5806,5.6388a2.0546,2.0546,0,0,1-1.2591.0427l-6.62-1.8872a2.0214,2.0214,0,0,0-1.4688.07l-3.0137,1.3458a2.6186,2.6186,0,0,0-.9031.7859c-1.4766,1.7738-1.9361,1.9982-2.7713,4.227-.5149,1.3739.5153,1.4817.5153,1.4817-.75,1.7017.863,2.25,1.979,1.3947.1037,1.2428,1.2433,1.3027,2.3723.5658-.0665.7867,1.1278,1.084,2.29.2729a14.8576,14.8576,0,0,0,1.6836-2.25l1.07-.5489c2.5285,3.189,5.943.7286,9.5959.2076,2.082-.2969,10.9455-1.2191,17.5662-1.95a3.9617,3.9617,0,0,0,3.3356-2.5889c1.6152-4.66,2.1732-11.0318,2.827-16.3464" style="fill:#f4f4f4;stroke:#30373e;stroke-linecap:round;stroke-miterlimit:10"/><line x1="99.4592" y1="134.3796" x2="101.363" y2="133.4207" style="fill:#f4f4f4;stroke:#30373e;stroke-linecap:round;stroke-linejoin:round;stroke-width:0.5px"/><path d="M90.4469,135.3837a40.3646,40.3646,0,0,1,2.4828-4.3,2.0307,2.0307,0,0,1,.9014-.7844l3.114-1.3906" style="fill:#f4f4f4;stroke:#30373e;stroke-linecap:round;stroke-linejoin:round;stroke-width:0.5px"/><path d="M92.1409,136.6427a42.6109,42.6109,0,0,1,2.4661-4.527,2.054,2.054,0,0,1,.9014-.7844l3.3125-1.4792" style="fill:#f4f4f4;stroke:#30373e;stroke-linecap:round;stroke-linejoin:round;stroke-width:0.5px"/><path d="M94.6551,137.1735a18.3132,18.3132,0,0,1,2.2853-4.2751,2.0526,2.0526,0,0,1,.9014-.7843l2.7686-1.2364" style="fill:#f4f4f4;stroke:#30373e;stroke-linecap:round;stroke-linejoin:round;stroke-width:0.5px"/><path d="M125.9779,89.8252c2.4455-1.8546,4.6577-1.5746,5.9648-.2122,6.0844,5.2093,3.2971,15.01,2.01,27.1772-.2727,2.5779-15.9588,1.4318-15.7966-1.7466.2253-4.4153-.1264-7.1342.399-10.6095" style="fill:#f4f4f4;stroke:#30373e;stroke-linecap:round;stroke-linejoin:round;stroke-width:0.5px"/><path d="M134.4885,92.4054c2.2525,7.0179.5317,14.2933-.5359,24.3848-.2485,2.3494-13.4877,1.5879-15.5416-.9554a1.6178,1.6178,0,0,1-.2036-.3246" style="fill:#f4f4f4;stroke:#30373e;stroke-linecap:round;stroke-linejoin:round"/><path d="M124.18,148.6338c3.38,2.557,10.6121,8.2977,10.6121,8.2977l-.7,5.2913s-12.4772-5.375-20.3782-14.34C119.983,146.3367,122.7236,147.372,124.18,148.6338Z" style="fill:#f4ae3d;stroke:#30373e;stroke-linecap:round;stroke-linejoin:round;stroke-width:1.5px"/></g><g id="ab901971-0b8b-46b4-a25c-582762c968bc" data-name="above"><path d="M124.18,148.6338c-1.6611-1.5882-4.968-2.0041-10.4663-.7514a42.5077,42.5077,0,0,1-11.1541,1.41" style="fill:none;stroke:#30373e;stroke-linecap:round;stroke-linejoin:round;stroke-width:1.5px"/></g></svg>