<svg xmlns="http://www.w3.org/2000/svg" width="218" height="218" viewBox="0 0 218 218"><g id="e8255ad2-fd92-42d6-bd1a-b424ad405bf3" data-name="below"><path d="M214.7554,142.2672a2.254,2.254,0,0,1-1.8842,1.7389c-11.4549,1.6313-65.6516,8.6267-207.6706,17.4483" style="fill:none;stroke:#a6abb0;stroke-linecap:round;stroke-linejoin:round;stroke-width:0.5px"/><path d="M205.9327,114.8054c-.2041-1.0088-1.93-9.4691-2.3984-11.688-1.2409-5.8782-19.1538-12.6879-31.11-12.0779-6.74.3439-12.8913.7408-15.7883.9405a3.2211,3.2211,0,0,0-2.9282,2.5274" style="fill:none;stroke:#a6abb0;stroke-linecap:round;stroke-linejoin:round;stroke-width:1.5px"/><path d="M197.8916,147.5661,194.2481,158.71a6.9414,6.9414,0,0,1-1.0268,1.9839L178.205,180.8965a1.94,1.94,0,0,1-1.5566.7825H12.0989" style="fill:none;stroke:#a6abb0;stroke-linecap:round;stroke-linejoin:round;stroke-width:0.5px"/><path d="M12.55,162.6639c.9586,2.1384,1.7878,3.2665,3.1647,5.855,2.0305,3.8175,5.8477,10.1494,7.1927,12.3651a1.6538,1.6538,0,0,0,1.4115.795" style="fill:none;stroke:#a6abb0;stroke-linecap:round;stroke-linejoin:round;stroke-width:0.5px"/><path d="M171.3613,91.0943s-.52-4.6632-.9318-9.4644-8.1563-13.97-18.8934-17.6849" style="fill:none;stroke:#a6abb0;stroke-linecap:round;stroke-linejoin:round;stroke-width:0.5px"/><path d="M62.978,62.1158H33.8187a3.12,3.12,0,0,0-3.063,2.2053c.1652-.8907-.76-2.2053-2.497-2.2053H9.8013" style="fill:none;stroke:#a6abb0;stroke-linecap:round;stroke-linejoin:round;stroke-width:0.5px"/><path d="M161.8621,151.3335c-1.4958,5.3419-3.8938,13.94-4.8092,17.4189-.7307,2.777-2.6841,4.0979-6.1,4.1287-15.9859.1444-87.3495,1.1783-106.87,1.464a6.9807,6.9807,0,0,1-6.588-4.2507c-1.031-2.8106-2.26-6.1995-3.2112-8.83" style="fill:none;stroke:#a6abb0;stroke-linecap:round;stroke-linejoin:round;stroke-width:0.5px"/><path d="M38.1379,118.76h.78a5.16,5.16,0,0,1,3.1663.931l1.3436,1.05c.3663.286.2636.75-.229,1.0363a1.6734,1.6734,0,0,1-.8252.2147,1.1972,1.1972,0,0,1-.73-.2147l-1.3439-1.05a2.7812,2.7812,0,0,0-1.7063-.5017H16.5868a3.89,3.89,0,0,0-1.9281.5017l-1.809,1.05a1.51,1.51,0,0,1-1.555,0c-.3659-.2862-.2632-.75.23-1.0363l1.8087-1.05a7.2188,7.2188,0,0,1,3.5782-.931H17.96" style="fill:none;stroke:#a6abb0;stroke-linecap:round;stroke-linejoin:round;stroke-width:0.5px"/><line x1="4.9697" y1="114.7662" x2="17.5087" y2="114.7662" style="fill:none;stroke:#a6abb0;stroke-linecap:round;stroke-linejoin:round"/><path d="M17.5513,90.6358q-4.0074-.06-8.4735-.0857" style="fill:none;stroke:#a6abb0;stroke-linecap:round;stroke-linejoin:round"/><path d="M30.7428,64.3306c-2.3115,8.1253-3.44,21.7429-3.7242,25.5985" style="fill:none;stroke:#a6abb0;stroke-linecap:round;stroke-linejoin:round;stroke-width:0.5px"/><path d="M39.9794,91.3389s-.389-1.0343-2.3233-1.0938c-7.265-.2232-18.7775-.5533-18.7775-.5533s-1.4686-.6773-2.3479,7.725,1.4968,18.5116,1.4968,22.8089H38.2291c0-3.2605-2.3384-13.8151-1.5157-21.6764s2.195-7.2545,2.195-7.2545Z" style="fill:none;stroke:#a6abb0;stroke-linecap:round;stroke-linejoin:round;stroke-width:0.5px"/><path d="M38.2291,120.2257c0-3.2605-2.3384-13.8151-1.5157-21.6764s2.195-7.2545,2.195-7.2545l1.071.0441s-.389-1.0343-2.3233-1.0938c-7.265-.2232-18.7775-.5533-18.7775-.5533s-1.4686-.6773-2.3479,7.725,1.4968,18.5116,1.4968,22.8089" style="fill:none;stroke:#a6abb0;stroke-linejoin:round"/><path d="M39.9794,91.3389s-.389-1.0343-2.3233-1.0938c-7.265-.2232-19.0944-.5595-19.0944-.5595s-.456-.21-1.012,1.0572" style="fill:none;stroke:#a6abb0;stroke-linecap:round;stroke-linejoin:round;stroke-width:1.5px"/><path d="M37.6385,114.7938H207.83a2.2535,2.2535,0,0,1,2.1969,1.7517l4.6361,24.7037a2.2528,2.2528,0,0,1,.0019.9949l-.382,1.703a2.2494,2.2494,0,0,1-1.88,1.7352c-11.4836,1.6353-66.0163,8.6734-209.2149,17.5341" style="fill:none;stroke:#a6abb0;stroke-linecap:round;stroke-linejoin:round;stroke-width:1.5px"/><path d="M17.91,90.6587q-4.2066-.0673-8.8474-.0942" style="fill:none;stroke:#a6abb0;stroke-linecap:round;stroke-linejoin:round;stroke-width:1.5px"/><path d="M60.7148,95.017a3.3961,3.3961,0,0,0-3.1137-2.6609c-3.9279-.239-9.7073-.6486-17.6172-1.0172" style="fill:none;stroke:#a6abb0;stroke-linecap:round;stroke-linejoin:round;stroke-width:1.5px"/></g><g id="b2c9c518-faa2-4f2e-9b45-ee32fa4039c6" data-name="illustration"><path d="M154.2024,89.2424a13.2847,13.2847,0,0,1-12.1511,14.6582c-4.6623.3724-16.9494.9588-34.8962.9588s-30.2339-.5868-34.8962-.9592A13.2846,13.2846,0,0,1,60.108,89.2415l4.23-39.4532a7.2363,7.2363,0,0,1,1.6517-3.86l4.768-5.6762a5.8607,5.8607,0,0,1,3.878-2.0591c4.8492-.5072,18.7471-1.5646,32.52-1.5646s27.6707,1.0578,32.52,1.565a5.861,5.861,0,0,1,3.878,2.0591l4.7679,5.6762a7.2355,7.2355,0,0,1,1.6517,3.86Z" style="fill:none;stroke:#a6abb0;stroke-linecap:round;stroke-linejoin:round;stroke-width:1.5px"/><path d="M141.5358,38.7068l4.8574,55.143c.4076,3.6828-4.1381,6.8179-6.3516,6.9763-4.8112.3443-16.3413.86-32.8866.86-16.7831,0-28.0436-.52-32.8874-.8633-2.1949-.1557-6.7635-3.2365-6.3508-6.9763.4731-4.286.2316-13.3664,3.5323-43.2741l1.3087-11.8576" style="fill:none;stroke:#a6abb0;stroke-linecap:round;stroke-linejoin:round;stroke-width:0.5px"/><path d="M96.3707,123.5993a4.5967,4.5967,0,0,1,1.7844-1.9888,6.47,6.47,0,0,1,2.86-.9275c1.563-.1365,3.5494-.2056,5.9056-.2056s4.3426.0691,5.9056.2056a6.47,6.47,0,0,1,2.86.9275,4.5959,4.5959,0,0,1,1.7843,1.9888l1.6036,3.7082a12.9846,12.9846,0,0,1,1.0618,4.49l.6441,12.355a4.23,4.23,0,0,1-1.3486,3.2928,6.2188,6.2188,0,0,1-3.7415,1.5777c-1.5232.1116-4.2822.2448-8.7691.2448s-7.2459-.1332-8.7691-.2448a5.99,5.99,0,0,1-3.7415-1.5777,4.38,4.38,0,0,1-1.3486-3.2928l.6441-12.355a12.9868,12.9868,0,0,1,1.0618-4.49Z" style="fill:#cfd2d4;stroke:#30373e;stroke-linecap:round;stroke-linejoin:round;stroke-width:1.5px"/><path d="M106.9207,145.87c-4.3161,0-6.9472-.1267-8.3942-.2326a3.6159,3.6159,0,0,1-2.2575-.9206,2.13,2.13,0,0,1-.6583-1.56l.6287-12.0611a10.5488,10.5488,0,0,1,.8645-3.6488l1.5655-3.62a2.3554,2.3554,0,0,1,.8935-.9588,4.0549,4.0549,0,0,1,1.7908-.5707c1.4585-.1272,3.3317-.1919,5.5667-.1919s4.1085.0647,5.5677.1919a4.054,4.054,0,0,1,1.7908.5713,2.3572,2.3572,0,0,1,.893.9582l1.565,3.62a10.5546,10.5546,0,0,1,.8648,3.6493l.6287,12.0611a2.0067,2.0067,0,0,1-.6586,1.56,3.8284,3.8284,0,0,1-2.2572.9206C113.8676,145.7434,111.2365,145.87,106.9207,145.87Z" style="fill:none;stroke:#30373e;stroke-linecap:round;stroke-linejoin:round;stroke-width:0.5px"/><path d="M117.0983,144.7489v-3.8517c-.0284-.8441-.6092-1.0926-1.7235-1.6014-1.2011-.5484-2.1713-.7129-8.4541-.7129s-7.253.1645-8.4541.7129c-1.1143.5088-1.731.758-1.7406,1.6014v3.86" style="fill:none;stroke:#30373e;stroke-linecap:round;stroke-linejoin:round"/><path d="M97.0179,145.2394v-2.2349c0-1.0285.4519-1.2336,1.627-1.77s2.1242-.6973,8.271-.6973,7.0959.161,8.271.6973,1.6319.7056,1.63,1.77V145.23" style="fill:none;stroke:#30373e;stroke-linecap:round;stroke-linejoin:round;stroke-width:0.5px"/><path d="M116.7142,135.92H97.1249c-.285,0-.285-3.0893,0-3.0893h19.5893C117.0029,132.8306,117.0029,135.92,116.7142,135.92Z" style="fill:none;stroke:#30373e;stroke-linecap:round;stroke-linejoin:round;stroke-width:0.5px"/><path d="M99.5312,132.8306a57.909,57.909,0,0,0,.4431-8.9541" style="fill:none;stroke:#30373e;stroke-linecap:round;stroke-linejoin:round;stroke-width:0.5px"/><path d="M98.4666,139.2958c.1591-.8652.2979-1.6111.4189-2.2753q.1-.55.1976-1.1006" style="fill:none;stroke:#30373e;stroke-linecap:round;stroke-linejoin:round;stroke-width:0.5px"/><path d="M114.31,132.8306a57.909,57.909,0,0,1-.4431-8.9541" style="fill:none;stroke:#30373e;stroke-linecap:round;stroke-linejoin:round;stroke-width:0.5px"/><path d="M115.3748,139.2958c-.1591-.8652-.2979-1.6111-.4189-2.2753q-.1-.55-.1976-1.1006" style="fill:none;stroke:#30373e;stroke-linecap:round;stroke-linejoin:round;stroke-width:0.5px"/><path d="M110.1806,129.1892v1.8358a1.4,1.4,0,0,0-1.4922,1.1323l-.2661,3.8605a.4745.4745,0,0,1-.5056.3837H105.93a.4744.4744,0,0,1-.5056-.3837l-.2662-3.8605a1.4,1.4,0,0,0-1.4922-1.1323v-1.8932Z" style="fill:#f4ae3d;stroke:#30373e;stroke-linecap:round;stroke-linejoin:round;stroke-width:1.5px"/><path d="M107.0663,131.1848a47.45,47.45,0,0,1-8.4327-.5815,2.4781,2.4781,0,0,1-1.8473-2.04L95.79,123.515a2.8747,2.8747,0,0,1-.0546-.5466v-2.8176a1.6,1.6,0,0,1,1.5464-1.645h.2365a1.1619,1.1619,0,0,0,.7072-.252l.7773-.6186a2.074,2.074,0,0,1,1.267-.4449h13.5484a2.0681,2.0681,0,0,1,1.2624.4412l.7822.6266a1.1842,1.1842,0,0,0,.7069.2477h.2367a1.6,1.6,0,0,1,1.5464,1.645v2.8176a2.8167,2.8167,0,0,1-.0545.5476l-1.0017,5.0463a2.4429,2.4429,0,0,1-1.831,2.04A46.8827,46.8827,0,0,1,107.0663,131.1848Z" style="fill:#f4ae3d;stroke:#30373e;stroke-linecap:round;stroke-linejoin:round;stroke-width:1.5px"/><path d="M97.4339,120.7555l.0011-.3772a.4943.4943,0,0,1,.4364-.49,2.6713,2.6713,0,0,0,1.4086-.5721l.786-.6252a.4113.4113,0,0,1,.2376-.0855h13.4723a.4221.4221,0,0,1,.2466.0924l.76.6092a2.773,2.773,0,0,0,1.4265.5812.4952.4952,0,0,1,.4355.4822l.007.3848" style="fill:none;stroke:#30373e;stroke-linecap:round;stroke-linejoin:round;stroke-width:0.5px"/><path d="M97.7252,120.74S96.83,81.04,96.5537,57.124c-.2346-20.3165,1.0942-20.821,1.0942-20.821s3.0271-.2656,9.5082-.2656,9.2774.2656,9.2774.2656,1.3085.4964,1.0942,20.821c-.2058,19.52-1.2183,63.6158-1.2183,63.6158" style="fill:#f4ae3d;stroke:#30373e;stroke-linecap:round;stroke-linejoin:round;stroke-width:1.5px"/><path d="M116.6517,120.7555v2.6534a.8987.8987,0,0,1-.0165.1716.7607.7607,0,0,1-.609.6243,56.7924,56.7924,0,0,1-8.9629.54,57.304,57.304,0,0,1-9.0032-.5426.7719.7719,0,0,1-.61-.6251.8889.8889,0,0,1-.0165-.1709v-2.651s3.4031-.1761,9.6089-.1761S116.6517,120.7555,116.6517,120.7555Z" style="fill:#f4ae3d;stroke:#30373e;stroke-linecap:round;stroke-linejoin:round;stroke-width:0.5px"/></g></svg>