<?xml version="1.0" encoding="UTF-8"?><svg xmlns="http://www.w3.org/2000/svg" width="218" height="187.111" viewBox="0 0 218 187.111"><g id="uuid-b4854b5e-a673-4b00-8dfb-14da46ddbe5b"><path d="M187.925,105.748c-4.793-5.43-13.324-4.416-25.96-1.735-20.281,4.303-57.869,18.844-68.798,23.335-7.862,3.23-9.259,5.671-10.222,9.703-.197,.825-.298,1.851-.347,2.787" style="fill:none; stroke:#a6abb0; stroke-linecap:round; stroke-linejoin:round; stroke-width:.5px;"/><g style="opacity:.5;"><g><path d="M57.809,118.449l-4.019,2.518c-1.061,.665-1.809,1.729-2.075,2.953l-1.254,5.775" style="fill:none; stroke:#30373e; stroke-linecap:round; stroke-linejoin:round; stroke-width:4px;"/><path d="M57.809,118.449l-4.019,2.518c-1.061,.665-1.809,1.729-2.075,2.953l-1.254,5.775" style="fill:none; stroke:#f8d480; stroke-linecap:round; stroke-linejoin:round; stroke-width:1.5px;"/></g><g><path d="M47.582,134.008l1.299-6c.279-1.286,1.064-2.406,2.18-3.104l3.549-2.224c.447-.28,.846-.632,1.18-1.04l2.02-3.19" style="fill:none; stroke:#30373e; stroke-linecap:round; stroke-linejoin:round; stroke-width:4px;"/><path d="M47.582,134.008l1.299-6c.279-1.286,1.064-2.406,2.18-3.104l3.549-2.224c.447-.28,.846-.632,1.18-1.04l2.02-3.19" style="fill:none; stroke:#f8d480; stroke-linecap:round; stroke-linejoin:round; stroke-width:1.5px;"/></g></g><g style="opacity:.5;"><g><path d="M45.259,140.912l-4.96,3.108c-1.31,.821-2.233,2.135-2.561,3.645l-1.548,7.128" style="fill:none; stroke:#30373e; stroke-linecap:round; stroke-linejoin:round; stroke-width:4px;"/><path d="M45.259,140.912l-4.96,3.108c-1.31,.821-2.233,2.135-2.561,3.645l-1.548,7.128" style="fill:none; stroke:#f8d480; stroke-linecap:round; stroke-linejoin:round; stroke-width:1.5px;"/></g><g><path d="M31.844,160.294l1.604-7.406c.344-1.588,1.314-2.969,2.69-3.832l4.38-2.744c.552-.346,1.044-.78,1.456-1.284l3.284-4.115" style="fill:none; stroke:#30373e; stroke-linecap:round; stroke-linejoin:round; stroke-width:4px;"/><path d="M31.844,160.294l1.604-7.406c.344-1.588,1.314-2.969,2.69-3.832l4.38-2.744c.552-.346,1.044-.78,1.456-1.284l3.284-4.115" style="fill:none; stroke:#f8d480; stroke-linecap:round; stroke-linejoin:round; stroke-width:1.5px;"/></g></g><path d="M199.7,162.653l1.053,1.363c.929,1.203,1.382,2.705,1.274,4.22l-.939,13.133" style="fill:none; stroke:#a6abb0; stroke-linecap:round; stroke-linejoin:round;"/><path d="M191.338,109.702c2.831,2.974,4.057,4.618-4.351,4.618s-14.589,.585-24.326,3.186c-11.803,3.153-45.04,13.378-56.115,16.612-11.075,3.234-17.745,5.552-28.267,6.04-13.348,.619-14.26,1.414-11.395-5.75,2.663-6.659,3.533-6.662,13.315-12.279,7.527-4.322,14.622-7.153,21.71-9.411,.051-.016,40.674-13.288,51.18-16.175,11.06-3.039,25.464-.639,28.058,2.085" style="fill:none; stroke:#a6abb0; stroke-linecap:round; stroke-linejoin:round; stroke-width:.5px;"/><path d="M52.142,135.543c5.316-9.894,2.986-24.351,1.178-35.061-1.533-8.522-4.305-17.688-7.221-25.876-.95-2.836-1.893-5.673-2.654-8.58,1.167,2.759,2.152,5.588,3.13,8.418,2.947,8.23,5.737,17.375,7.298,25.933,1.614,8.816,2.853,17.914,1.544,26.863-.471,2.969-1.291,5.937-2.848,8.563-.163,.267-.603,.029-.428-.259h0Z" style="fill:#a6abb0;"/><path d="M61.756,116.979c6.167-11.705,.355-34.554-3.64-46.761-.697-2.182-1.373-4.371-1.945-6.599,.875,2.123,1.646,4.284,2.396,6.451,4.111,12.229,10.064,35.434,3.618,47.167-.166,.271-.609,.046-.428-.259h0Z" style="fill:#a6abb0;"/><path d="M56.934,26.452c3.592,6.919,6.409,14.196,9.027,21.528,5.456,14.581,9.722,30.19,6.896,45.847-.504,2.915-1.281,5.812-2.508,8.524-.859,1.589-5.757,11.157-6.716,12.986l-10.765,20.691c-1.651,3.037-3.628,7.576-6.045,10.073-2.595,3.006-5.954,5.366-9.502,7.001l-10.424,5.23-5.212,2.615c-2.597,1.457-6.594,1.798-8.709-.799-.692-.774-1.034-1.786-1.431-2.709l-2.254-5.378c-1.499-3.587-2.93-7.202-4.042-10.952,1.905,3.416,3.49,6.966,5.008,10.545l2.271,5.371c.374,.847,.654,1.736,1.267,2.426,1.848,2.157,5.04,1.787,7.393,.51l5.203-2.632,10.407-5.264c3.502-1.632,6.625-3.859,9.121-6.751,2.329-2.412,4.285-6.94,5.87-9.89l10.704-20.723,5.386-10.342c1.993-3.309,3.11-6.947,3.78-10.746,4.321-23.495-7.415-45.502-14.725-67.161h0Z" style="fill:#a6abb0;"/><path d="M65.045,110.665c4.536-8.918,4.603-19.549,3.714-29.335-.544-4.978-1.563-9.903-2.998-14.702-1.434-4.808-3.305-9.479-4.506-14.38,1.009,2.308,1.834,4.684,2.645,7.064,4.347,11.807,6.842,24.455,5.602,37.065-.581,4.993-1.516,10.07-4.026,14.545-.159,.278-.61,.034-.429-.256h0Z" style="fill:#a6abb0;"/><path d="M59.013,122.823c13.04-5.933,22.67-9.825,42.948-16.188,9.508-2.984,39.313-12.715,48.137-15.14,10.29-2.828,23.69-.595,26.104,1.94" style="fill:none; stroke:#a6abb0; stroke-linecap:round; stroke-linejoin:round; stroke-width:.5px;"/><path d="M169.688,86.593c-1.715-1.801-4.616-3.376-11.11-3.99-6.494-.614-9.565-.527-19.568,2.369-2.778,.804-10.662,3.502-20.227,6.455-29.568,9.126-51.423,19.217-54.006,20.288" style="fill:none; stroke:#a6abb0; stroke-linecap:round; stroke-linejoin:round; stroke-width:.5px;"/><path d="M84.831,103.335c-.161,.015-.325,.03-.491,.044-4.373,.367-5.378,.14-4.042-3.267,1.491-3.797,5.522-5.208,12.408-8.067,14.603-6.064,38.449-12.388,51.752-15.048,9.034-1.807,14.702-1.461,18.533,2.563" style="fill:none; stroke:#a6abb0; stroke-linecap:round; stroke-linejoin:round; stroke-width:.5px;"/><path d="M72.098,94.553c20.177-8.756,56.607-24.648,76.889-23.465,6.741,.393,10.211,4.488,12.231,6.609l40.429,42.462c2.261,2.374,3.525,5.654,3.264,9.135l-2.086,27.394c-.248,3.252-2.331,6.077-5.365,7.275l-19.884,7.85c-3.702,1.462-7.647,2.212-11.627,2.212H22.105c-1.858,0-3.536-1.114-4.257-2.827l-2.029-4.846c-.396-.946-.361-2.018,.097-2.935s1.293-1.59,2.287-1.843l.944-.24" style="fill:none; stroke:#a6abb0; stroke-linecap:round; stroke-linejoin:round;"/><path d="M198.342,117.03c1.155,1.258,.341,2.323-4.225,2.051-3.395-.202-9.135-.202-12.449-.121-3.314,.081-6.063,.283-13.541,2.304-7.478,2.021-55.846,16.274-67.447,19.386l-81.299,20.888" style="fill:none; stroke:#a6abb0; stroke-linecap:round; stroke-linejoin:round; stroke-width:.5px;"/><path d="M22.671,41.257c4.832,8.737,8.299,18.162,11.989,27.42,7.26,19.134,21.857,59.105,11.378,77.94-1.87,2.6-4.812,4.149-7.572,5.539-.123,.062-.274,.013-.336-.111s-.012-.274,.111-.336c2.742-1.401,5.549-2.878,7.369-5.396,12.874-23.485-12.762-81.41-22.938-105.056h0Z" style="fill:#a6abb0;"/></g><g id="uuid-b64438dd-f2cb-45dd-aa2d-52f8f94a433b"><g><g><path d="M62.377,15.126c2.172,2.005,3.144,2.947,5.488,5.196,2.522,2.413,5.021,4.852,7.508,7.302,4.968,4.907,9.858,9.889,14.67,14.936,4.825,5.036,9.51,10.188,14.123,15.387,4.605,5.206,9.041,10.532,13.353,15.924l4.497-3.672,4.497-3.672c-4.647-5.441-9.389-10.769-14.269-15.939-4.888-5.162-9.833-10.255-14.898-15.21-5.054-4.968-10.174-9.858-15.368-14.665-2.6-2.4-5.211-4.788-7.847-7.151-2.483-2.231-3.545-3.07-5.908-5.143-3.187-2.797-6.197-4.042-9.068-5.115-1.716-.641-6.331-2.698-9.513,1.799-2.434,3.44-1.216,6.112,1.737,8.91" style="fill:none; stroke:#f4f4f4; stroke-linecap:round; stroke-linejoin:round; stroke-width:3px;"/><path d="M196.684,50.263c3.884,4.661,5,11.035,2.931,16.738l-3.772,10.398c-.471,1.299-1.804,2.075-3.167,1.844-27.22-4.612-48.056-13.885-73.225-24.421-5.148-2.155-9.771-5.477-13.434-9.687l-2.373-2.727c-3.93-4.517-8.064-7.095-13.912-5.813l-7.322,1.604c-.771,.169-1.556-.208-1.908-.914-1.637-3.281-6.136-12.61-7.845-19.338-.3-1.181,.282-2.163,1.388-2.651,8.68-3.827,28.738-9.47,37.113,10.324,.618,1.461,3.957,12.447,16.699,15.968l17.057,4.714c7.504,2.074,15.429,2.072,22.932-.005l13.82-3.826c4.217-1.167,8.727,.242,11.528,3.604l3.488,4.186Z" style="fill:none; stroke:#f4f4f4; stroke-linecap:round; stroke-linejoin:round; stroke-width:3px;"/><g><g><g><path d="M84.782,110.045l.544,.818s.602,.904,1.942,1.993c.291,.236,.681,.312,1.039,.202l.723-.223-.42-.739c-.14-.247-.161-.544-.056-.808s.324-.466,.595-.55l.565-.174-.573-1.861-4.36,1.342Z" style="fill:none; stroke:#f4f4f4; stroke-linecap:round; stroke-linejoin:round; stroke-width:3px;"/><g><path d="M85.385,112.436c-.309,.095-.643,.063-.928-.088s-.499-.41-.593-.719l-.161-.527c-.099-.323-.077-.671,.061-.979l.433-.966c.168-.375,.442-.692,.789-.912l3.796-2.408c.404-.256,.841-.457,1.298-.597l13.714-4.192c.373-.114,.768,.096,.882,.469l2.083,6.815c.051,.168,.038,.349-.036,.507l-.191,.407c-.085,.18-.242,.316-.433,.375l-17.831,5.451c-.279,.085-.582,.02-.802-.173l-.368-.324c-.106-.093-.153-.235-.123-.373,.01-.048,.029-.092,.055-.132,.049-.074,.122-.131,.21-.158l3.104-.955c.517-.159,.807-.707,.648-1.223s-.707-.807-1.223-.648l-4.384,1.349Z" style="fill:none; stroke:#f4f4f4; stroke-linecap:round; stroke-linejoin:round; stroke-width:3px;"/><path d="M85.385,112.436c-.309,.095-.643,.063-.928-.088s-.499-.41-.593-.719l-.161-.527c-.099-.323-.077-.671,.061-.979l.433-.966c.168-.375,.442-.692,.789-.912l3.796-2.408c.404-.256,.841-.457,1.298-.597l13.714-4.192c.373-.114,.768,.096,.882,.469l2.083,6.815c.051,.168,.038,.349-.036,.507l-.191,.407c-.085,.18-.242,.316-.433,.375l-17.831,5.451c-.279,.085-.582,.02-.802-.173l-.368-.324c-.106-.093-.153-.235-.123-.373,.01-.048,.029-.092,.055-.132,.049-.074,.122-.131,.21-.158l3.104-.955c.517-.159,.807-.707,.648-1.223s-.707-.807-1.223-.648l-4.384,1.349Z" style="fill:none; stroke:#f4f4f4; stroke-linecap:round; stroke-linejoin:round; stroke-width:3px;"/><path d="M85.385,112.436c-.309,.095-.643,.063-.928-.088s-.499-.41-.593-.719l-.161-.527c-.099-.323-.077-.671,.061-.979l.433-.966c.168-.375,.442-.692,.789-.912l3.796-2.408c.404-.256,.841-.457,1.298-.597l13.714-4.192c.373-.114,.768,.096,.882,.469l2.083,6.815c.051,.168,.038,.349-.036,.507l-.191,.407c-.085,.18-.242,.316-.433,.375l-17.831,5.451c-.279,.085-.582,.02-.802-.173l-.368-.324c-.106-.093-.153-.235-.123-.373,.01-.048,.029-.092,.055-.132,.049-.074,.122-.131,.21-.158l3.104-.955c.517-.159,.807-.707,.648-1.223s-.707-.807-1.223-.648l-4.384,1.349Z" style="fill:none; stroke:#f4f4f4; stroke-linecap:round; stroke-linejoin:round; stroke-width:3px;"/></g><path d="M83.691,111.056c-.158-.517,.057-1.076,.522-1.353l4.731-2.821c.356-.212,.736-.381,1.133-.502l13.316-4.071c.36-.11,.742,.093,.852,.453" style="fill:none; stroke:#f4f4f4; stroke-linecap:round; stroke-linejoin:round; stroke-width:3px;"/><path d="M95.974,106.783c.119,.377-.091,.778-.467,.897l-1.658,.522c-.377,.119-.778-.091-.897-.467s.091-.778,.467-.897l1.658-.522c.377-.119,.778,.091,.897,.467Z" style="fill:none; stroke:#f4f4f4; stroke-linecap:round; stroke-linejoin:round; stroke-width:3px;"/><circle cx="100.74" cy="107.058" r="1.069" style="fill:none; stroke:#f4f4f4; stroke-linecap:round; stroke-linejoin:round; stroke-width:3px;"/></g><g><polygon points="140.02 98.44 106.095 108.821 104.246 102.762 104.599 102.013 138.523 91.632 140.377 97.691 140.02 98.44" style="fill:none; stroke:#f4f4f4; stroke-linecap:round; stroke-linejoin:round; stroke-width:3px;"/><path d="M114.806,103.715c-.214,.067-.441-.051-.508-.265l-.296-.94c-.067-.214,.051-.441,.265-.508s.441,.051,.508,.265l.296,.94c.067,.214-.051,.441-.265,.508Z" style="fill:none; stroke:#f4f4f4; stroke-linecap:round; stroke-linejoin:round; stroke-width:3px;"/><circle cx="107.565" cy="104.958" r="1.104" style="fill:none; stroke:#f4f4f4; stroke-linecap:round; stroke-linejoin:round; stroke-width:3px;"/><circle cx="110.501" cy="104.036" r="1.104" style="fill:none; stroke:#f4f4f4; stroke-linecap:round; stroke-linejoin:round; stroke-width:3px;"/></g><path d="M114.722,98.521c.054,.119,.053,.256-.002,.374l-.089,.189c-.053,.113-.152,.198-.271,.235l-4.94,1.512c-.091,.028-.189,.013-.268-.04s-.13-.138-.139-.233l-.046-.487c-.02-.215,.018-.431,.109-.626l.109-.232c.128-.272,.344-.491,.614-.622l3.414-1.657c.169-.08,.364-.091,.539-.028,.178,.063,.32,.197,.399,.367l.571,1.249Z" style="fill:none; stroke:#f4f4f4; stroke-linecap:round; stroke-linejoin:round; stroke-width:3px;"/></g><g><g><path d="M84.782,110.045l.544,.818s.602,.904,1.942,1.993c.291,.236,.681,.312,1.039,.202l.723-.223-.42-.739c-.14-.247-.161-.544-.056-.808s.324-.466,.595-.55l.565-.174-.573-1.861-4.36,1.342Z" style="fill:none; stroke:#f4f4f4; stroke-linecap:round; stroke-linejoin:round; stroke-width:3px;"/><g><path d="M85.385,112.436c-.309,.095-.643,.063-.928-.088s-.499-.41-.593-.719l-.161-.527c-.099-.323-.077-.671,.061-.979l.433-.966c.168-.375,.442-.692,.789-.912l3.796-2.408c.404-.256,.841-.457,1.298-.597l13.714-4.192c.373-.114,.768,.096,.882,.469l2.083,6.815c.051,.168,.038,.349-.036,.507l-.191,.407c-.085,.18-.242,.316-.433,.375l-17.831,5.451c-.279,.085-.582,.02-.802-.173l-.368-.324c-.106-.093-.153-.235-.123-.373,.01-.048,.029-.092,.055-.132,.049-.074,.122-.131,.21-.158l3.104-.955c.517-.159,.807-.707,.648-1.223s-.707-.807-1.223-.648l-4.384,1.349Z" style="fill:none; stroke:#f4f4f4; stroke-linecap:round; stroke-linejoin:round; stroke-width:3px;"/><path d="M85.385,112.436c-.309,.095-.643,.063-.928-.088s-.499-.41-.593-.719l-.161-.527c-.099-.323-.077-.671,.061-.979l.433-.966c.168-.375,.442-.692,.789-.912l3.796-2.408c.404-.256,.841-.457,1.298-.597l13.714-4.192c.373-.114,.768,.096,.882,.469l2.083,6.815c.051,.168,.038,.349-.036,.507l-.191,.407c-.085,.18-.242,.316-.433,.375l-17.831,5.451c-.279,.085-.582,.02-.802-.173l-.368-.324c-.106-.093-.153-.235-.123-.373,.01-.048,.029-.092,.055-.132,.049-.074,.122-.131,.21-.158l3.104-.955c.517-.159,.807-.707,.648-1.223s-.707-.807-1.223-.648l-4.384,1.349Z" style="fill:none; stroke:#f4f4f4; stroke-linecap:round; stroke-linejoin:round; stroke-width:3px;"/><path d="M85.385,112.436c-.309,.095-.643,.063-.928-.088s-.499-.41-.593-.719l-.161-.527c-.099-.323-.077-.671,.061-.979l.433-.966c.168-.375,.442-.692,.789-.912l3.796-2.408c.404-.256,.841-.457,1.298-.597l13.714-4.192c.373-.114,.768,.096,.882,.469l2.083,6.815c.051,.168,.038,.349-.036,.507l-.191,.407c-.085,.18-.242,.316-.433,.375l-17.831,5.451c-.279,.085-.582,.02-.802-.173l-.368-.324c-.106-.093-.153-.235-.123-.373,.01-.048,.029-.092,.055-.132,.049-.074,.122-.131,.21-.158l3.104-.955c.517-.159,.807-.707,.648-1.223s-.707-.807-1.223-.648l-4.384,1.349Z" style="fill:none; stroke:#f4f4f4; stroke-linecap:round; stroke-linejoin:round; stroke-width:3px;"/></g><path d="M83.691,111.056c-.158-.517,.057-1.076,.522-1.353l4.731-2.821c.356-.212,.736-.381,1.133-.502l13.316-4.071c.36-.11,.742,.093,.852,.453" style="fill:none; stroke:#f4f4f4; stroke-linecap:round; stroke-linejoin:round; stroke-width:3px;"/><path d="M95.974,106.783c.119,.377-.091,.778-.467,.897l-1.658,.522c-.377,.119-.778-.091-.897-.467s.091-.778,.467-.897l1.658-.522c.377-.119,.778,.091,.897,.467Z" style="fill:none; stroke:#f4f4f4; stroke-linecap:round; stroke-linejoin:round; stroke-width:3px;"/><circle cx="100.74" cy="107.058" r="1.069" style="fill:none; stroke:#f4f4f4; stroke-linecap:round; stroke-linejoin:round; stroke-width:3px;"/></g><g><polygon points="140.02 98.44 106.095 108.821 104.246 102.762 104.599 102.013 138.523 91.632 140.377 97.691 140.02 98.44" style="fill:none; stroke:#f4f4f4; stroke-linecap:round; stroke-linejoin:round; stroke-width:3px;"/><path d="M114.806,103.715c-.214,.067-.441-.051-.508-.265l-.296-.94c-.067-.214,.051-.441,.265-.508s.441,.051,.508,.265l.296,.94c.067,.214-.051,.441-.265,.508Z" style="fill:none; stroke:#f4f4f4; stroke-linecap:round; stroke-linejoin:round; stroke-width:3px;"/><circle cx="107.565" cy="104.958" r="1.104" style="fill:none; stroke:#f4f4f4; stroke-linecap:round; stroke-linejoin:round; stroke-width:3px;"/><circle cx="110.501" cy="104.036" r="1.104" style="fill:none; stroke:#f4f4f4; stroke-linecap:round; stroke-linejoin:round; stroke-width:3px;"/></g><path d="M114.722,98.521c.054,.119,.053,.256-.002,.374l-.089,.189c-.053,.113-.152,.198-.271,.235l-4.94,1.512c-.091,.028-.189,.013-.268-.04s-.13-.138-.139-.233l-.046-.487c-.02-.215,.018-.431,.109-.626l.109-.232c.128-.272,.344-.491,.614-.622l3.414-1.657c.169-.08,.364-.091,.539-.028,.178,.063,.32,.197,.399,.367l.571,1.249Z" style="fill:none; stroke:#f4f4f4; stroke-linecap:round; stroke-linejoin:round; stroke-width:3px;"/></g><g><g><path d="M84.782,110.045l.544,.818s.602,.904,1.942,1.993c.291,.236,.681,.312,1.039,.202l.723-.223-.42-.739c-.14-.247-.161-.544-.056-.808s.324-.466,.595-.55l.565-.174-.573-1.861-4.36,1.342Z" style="fill:none; stroke:#f4f4f4; stroke-linecap:round; stroke-linejoin:round; stroke-width:3px;"/><g><path d="M85.385,112.436c-.309,.095-.643,.063-.928-.088s-.499-.41-.593-.719l-.161-.527c-.099-.323-.077-.671,.061-.979l.433-.966c.168-.375,.442-.692,.789-.912l3.796-2.408c.404-.256,.841-.457,1.298-.597l13.714-4.192c.373-.114,.768,.096,.882,.469l2.083,6.815c.051,.168,.038,.349-.036,.507l-.191,.407c-.085,.18-.242,.316-.433,.375l-17.831,5.451c-.279,.085-.582,.02-.802-.173l-.368-.324c-.106-.093-.153-.235-.123-.373,.01-.048,.029-.092,.055-.132,.049-.074,.122-.131,.21-.158l3.104-.955c.517-.159,.807-.707,.648-1.223s-.707-.807-1.223-.648l-4.384,1.349Z" style="fill:none; stroke:#f4f4f4; stroke-linecap:round; stroke-linejoin:round; stroke-width:3px;"/><path d="M85.385,112.436c-.309,.095-.643,.063-.928-.088s-.499-.41-.593-.719l-.161-.527c-.099-.323-.077-.671,.061-.979l.433-.966c.168-.375,.442-.692,.789-.912l3.796-2.408c.404-.256,.841-.457,1.298-.597l13.714-4.192c.373-.114,.768,.096,.882,.469l2.083,6.815c.051,.168,.038,.349-.036,.507l-.191,.407c-.085,.18-.242,.316-.433,.375l-17.831,5.451c-.279,.085-.582,.02-.802-.173l-.368-.324c-.106-.093-.153-.235-.123-.373,.01-.048,.029-.092,.055-.132,.049-.074,.122-.131,.21-.158l3.104-.955c.517-.159,.807-.707,.648-1.223s-.707-.807-1.223-.648l-4.384,1.349Z" style="fill:none; stroke:#f4f4f4; stroke-linecap:round; stroke-linejoin:round; stroke-width:3px;"/><path d="M85.385,112.436c-.309,.095-.643,.063-.928-.088s-.499-.41-.593-.719l-.161-.527c-.099-.323-.077-.671,.061-.979l.433-.966c.168-.375,.442-.692,.789-.912l3.796-2.408c.404-.256,.841-.457,1.298-.597l13.714-4.192c.373-.114,.768,.096,.882,.469l2.083,6.815c.051,.168,.038,.349-.036,.507l-.191,.407c-.085,.18-.242,.316-.433,.375l-17.831,5.451c-.279,.085-.582,.02-.802-.173l-.368-.324c-.106-.093-.153-.235-.123-.373,.01-.048,.029-.092,.055-.132,.049-.074,.122-.131,.21-.158l3.104-.955c.517-.159,.807-.707,.648-1.223s-.707-.807-1.223-.648l-4.384,1.349Z" style="fill:none; stroke:#f4f4f4; stroke-linecap:round; stroke-linejoin:round; stroke-width:3px;"/></g><path d="M83.691,111.056c-.158-.517,.057-1.076,.522-1.353l4.731-2.821c.356-.212,.736-.381,1.133-.502l13.316-4.071c.36-.11,.742,.093,.852,.453" style="fill:none; stroke:#f4f4f4; stroke-linecap:round; stroke-linejoin:round; stroke-width:3px;"/><path d="M95.974,106.783c.119,.377-.091,.778-.467,.897l-1.658,.522c-.377,.119-.778-.091-.897-.467s.091-.778,.467-.897l1.658-.522c.377-.119,.778,.091,.897,.467Z" style="fill:none; stroke:#f4f4f4; stroke-linecap:round; stroke-linejoin:round; stroke-width:3px;"/><circle cx="100.74" cy="107.058" r="1.069" style="fill:none; stroke:#f4f4f4; stroke-linecap:round; stroke-linejoin:round; stroke-width:3px;"/></g><g><polygon points="140.02 98.44 106.095 108.821 104.246 102.762 104.599 102.013 138.523 91.632 140.377 97.691 140.02 98.44" style="fill:none; stroke:#f4f4f4; stroke-linecap:round; stroke-linejoin:round; stroke-width:3px;"/><path d="M114.806,103.715c-.214,.067-.441-.051-.508-.265l-.296-.94c-.067-.214,.051-.441,.265-.508s.441,.051,.508,.265l.296,.94c.067,.214-.051,.441-.265,.508Z" style="fill:none; stroke:#f4f4f4; stroke-linecap:round; stroke-linejoin:round; stroke-width:3px;"/><circle cx="107.565" cy="104.958" r="1.104" style="fill:none; stroke:#f4f4f4; stroke-linecap:round; stroke-linejoin:round; stroke-width:3px;"/><circle cx="110.501" cy="104.036" r="1.104" style="fill:none; stroke:#f4f4f4; stroke-linecap:round; stroke-linejoin:round; stroke-width:3px;"/></g><path d="M114.722,98.521c.054,.119,.053,.256-.002,.374l-.089,.189c-.053,.113-.152,.198-.271,.235l-4.94,1.512c-.091,.028-.189,.013-.268-.04s-.13-.138-.139-.233l-.046-.487c-.02-.215,.018-.431,.109-.626l.109-.232c.128-.272,.344-.491,.614-.622l3.414-1.657c.169-.08,.364-.091,.539-.028,.178,.063,.32,.197,.399,.367l.571,1.249Z" style="fill:none; stroke:#f4f4f4; stroke-linecap:round; stroke-linejoin:round; stroke-width:3px;"/></g></g><path d="M71.216,29.913c15.292,36.552,40.619,96.074,60.261,90.366l3.484-1.012c.447,.784,1.373,1.16,2.239,.908l10.922-3.174,49.802-14.472c5.348-1.554,8.455-7.116,6.975-12.485l-2.509-9.103" style="fill:none; stroke:#f4f4f4; stroke-linecap:round; stroke-linejoin:round; stroke-width:3px;"/><path d="M190.4,87.174l-58.233,16.769c-2.119,.61-4.274,.904-6.406,.904-7.859,0-15.402-3.991-19.668-10.844-6.79-10.908-16.95-29.317-26.797-55.072" style="fill:none; stroke:#f4f4f4; stroke-linecap:round; stroke-linejoin:round; stroke-width:3px;"/><path d="M81.483,38.796c9.438,24.91,19.155,42.785,25.896,53.713,4.797,7.776,14.175,11.377,22.949,8.827l53.877-15.656" style="fill:none; stroke:#f4f4f4; stroke-linecap:round; stroke-linejoin:round; stroke-width:3px;"/><g><path d="M209.648,55.637c4.61,5.532,5.935,13.097,3.479,19.867l-4.476,12.341c-.559,1.542-2.141,2.463-3.759,2.189-32.307-5.474-52.073-14.397-81.945-26.902-19.836-8.304-24.788-27.102-40.239-23.717l-8.691,1.904c-.915,.201-1.847-.246-2.265-1.085-1.943-3.894-7.282-14.967-9.312-22.952-.356-1.401,.334-2.567,1.647-3.146,10.303-4.543,34.109-11.24,44.049,12.254,.734,1.734,4.697,14.773,19.821,18.953l20.245,5.595c8.906,2.461,18.313,2.459,27.218-.006l16.403-4.541c5.005-1.386,10.358,.288,13.683,4.278l4.14,4.969Z" style="fill:none; stroke:#f4f4f4; stroke-linecap:round; stroke-linejoin:round; stroke-width:3px;"/><path d="M80.096,10.067c9.452-.393,19.888,4.311,25.171,17.541,.678,1.697,5.159,16.123,21.861,20.738l20.245,5.595c4.699,1.299,9.553,1.957,14.428,1.957,4.883,0,9.746-.661,14.451-1.964l10.974-3.055c7.843-2.171,13.897-5.137,18.945,.92" style="fill:none; stroke:#f4f4f4; stroke-linecap:round; stroke-linejoin:round; stroke-width:3px;"/></g><path d="M133.535,85.336c.333,.598,.603,1.228,.804,1.882l1.569,5.09c.119,.386-.097,.795-.483,.914l-4.914,1.515c-.386,.119-.795-.097-.914-.483l-.551-1.787c-.287-.932-1.286-1.46-2.218-1.173-.937,.289-1.46,1.286-1.173,2.218l.551,1.787c.119,.386-.097,.795-.483,.914l-4.914,1.515c-.386,.119-.795-.097-.914-.483l-1.569-5.09c-.202-.654-.334-1.327-.395-2.008l-.502-5.596c-.031-.344,.183-.662,.513-.764l12.003-3.701c.33-.102,.686,.041,.854,.342l2.736,4.907Z" style="fill:none; stroke:#f4f4f4; stroke-linecap:round; stroke-linejoin:round; stroke-width:3px;"/><path d="M113.659,82.448l-9.101-6.932c-.661-.504-.943-1.364-.708-2.162,.386-1.309,1.236-3.472,3.076-6.161l9.492,11.913-2.758,3.342Z" style="fill:none; stroke:#f4f4f4; stroke-linecap:round; stroke-linejoin:round; stroke-width:3px;"/><path d="M59.696,6.977c2.068,1.772,3.359,2.869,5.888,5.141,3.184,2.855,6.339,5.74,9.48,8.64,6.275,5.808,12.461,11.715,18.567,17.718,6.119,5.987,12.093,12.141,17.999,18.377,5.896,6.246,11.625,12.683,17.239,19.257l-5.433,4.437-5.433,4.437c-5.21-6.514-10.569-12.948-16.133-19.238-5.574-6.28-11.235-12.505-17.063-18.589-5.813-6.097-11.721-12.117-17.723-18.045-3.005-2.96-6.025-5.906-9.071-8.821-2.833-2.717-4.006-3.856-6.63-6.277" style="fill:none; stroke:#f4f4f4; stroke-linecap:round; stroke-linejoin:round; stroke-width:3px;"/><path d="M126.488,78.054l-6.555,5.357-7.811-9.565c-.464-.568-.379-1.404,.188-1.868l4.499-3.676c.273-.223,.623-.328,.973-.293s.673,.208,.895,.481l7.81,9.564Z" style="fill:none; stroke:#f4f4f4; stroke-linecap:round; stroke-linejoin:round; stroke-width:3px;"/><g><path d="M115.051,85.924c-2.308-3.598-2.062-8.267,.609-11.604,2.672-3.337,7.174-4.597,11.19-3.131s6.649,5.329,6.544,9.602c-.105,4.273-2.924,8.003-7.006,9.269-2.44,.757-5.077,.548-7.366-.584-1.621-.802-2.994-2.029-3.97-3.552Z" style="fill:none; stroke:#f4f4f4; stroke-linecap:round; stroke-linejoin:round; stroke-width:3px;"/><path d="M117.405,84.414c-1.66-2.588-1.483-5.946,.438-8.346,1.922-2.4,5.16-3.306,8.048-2.252,2.888,1.054,4.782,3.832,4.706,6.906-.075,3.073-2.103,5.756-5.039,6.667-1.755,.544-3.651,.394-5.298-.42-1.166-.576-2.153-1.46-2.855-2.554Z" style="fill:none; stroke:#f4f4f4; stroke-linecap:round; stroke-linejoin:round; stroke-width:3px;"/></g><g><path d="M176.447,108.502c15.84-4.603,21.802-12.942,21.802-12.942" style="fill:none; stroke:#f4f4f4; stroke-linecap:round; stroke-linejoin:round; stroke-width:3px;"/><path d="M176.377,108.262c8.154-2.469,15.949-6.469,21.871-12.702-2.391,3.624-6.154,6.071-9.816,8.262-3.747,2.143-7.77,3.74-11.916,4.919-.31,.1-.462-.395-.14-.48h0Z" style="fill:none; stroke:#f4f4f4; stroke-linecap:round; stroke-linejoin:round; stroke-width:3px;"/></g><g><g><g><path d="M84.491,125.533l.644,.969s.712,1.071,2.299,2.36c.344,.279,.807,.37,1.23,.239l.856-.264-.497-.875c-.166-.292-.191-.645-.067-.957s.383-.552,.705-.651l.669-.206-.678-2.204-5.163,1.589Z" style="fill:none; stroke:#f4f4f4; stroke-linecap:round; stroke-linejoin:round; stroke-width:3px;"/><g><path d="M85.206,128.364c-.365,.112-.761,.075-1.099-.104s-.59-.485-.702-.851l-.191-.624c-.117-.382-.091-.794,.072-1.159l.513-1.144c.199-.444,.524-.819,.934-1.079l4.495-2.851c.478-.303,.995-.541,1.537-.707l16.238-4.964c.442-.135,.909,.114,1.044,.555l2.467,8.069c.061,.199,.045,.413-.043,.601l-.227,.481c-.101,.213-.287,.375-.512,.444l-21.112,6.454c-.33,.101-.69,.024-.949-.204l-.436-.383c-.125-.11-.181-.279-.146-.441,.012-.057,.035-.109,.065-.156,.058-.088,.145-.155,.249-.187l3.675-1.131c.612-.188,.955-.837,.767-1.448s-.837-.955-1.448-.767l-5.19,1.597Z" style="fill:none; stroke:#f4f4f4; stroke-linecap:round; stroke-linejoin:round; stroke-width:3px;"/><path d="M85.206,128.364c-.365,.112-.761,.075-1.099-.104s-.59-.485-.702-.851l-.191-.624c-.117-.382-.091-.794,.072-1.159l.513-1.144c.199-.444,.524-.819,.934-1.079l4.495-2.851c.478-.303,.995-.541,1.537-.707l16.238-4.964c.442-.135,.909,.114,1.044,.555l2.467,8.069c.061,.199,.045,.413-.043,.601l-.227,.481c-.101,.213-.287,.375-.512,.444l-21.112,6.454c-.33,.101-.69,.024-.949-.204l-.436-.383c-.125-.11-.181-.279-.146-.441,.012-.057,.035-.109,.065-.156,.058-.088,.145-.155,.249-.187l3.675-1.131c.612-.188,.955-.837,.767-1.448s-.837-.955-1.448-.767l-5.19,1.597Z" style="fill:none; stroke:#f4f4f4; stroke-linecap:round; stroke-linejoin:round; stroke-width:3px;"/><path d="M85.206,128.364c-.365,.112-.761,.075-1.099-.104s-.59-.485-.702-.851l-.191-.624c-.117-.382-.091-.794,.072-1.159l.513-1.144c.199-.444,.524-.819,.934-1.079l4.495-2.851c.478-.303,.995-.541,1.537-.707l16.238-4.964c.442-.135,.909,.114,1.044,.555l2.467,8.069c.061,.199,.045,.413-.043,.601l-.227,.481c-.101,.213-.287,.375-.512,.444l-21.112,6.454c-.33,.101-.69,.024-.949-.204l-.436-.383c-.125-.11-.181-.279-.146-.441,.012-.057,.035-.109,.065-.156,.058-.088,.145-.155,.249-.187l3.675-1.131c.612-.188,.955-.837,.767-1.448s-.837-.955-1.448-.767l-5.19,1.597Z" style="fill:none; stroke:#f4f4f4; stroke-linecap:round; stroke-linejoin:round; stroke-width:3px;"/></g><path d="M83.2,126.729c-.187-.612,.068-1.273,.618-1.601l5.602-3.34c.422-.251,.872-.451,1.341-.594l15.767-4.82c.427-.13,.878,.11,1.009,.536" style="fill:none; stroke:#f4f4f4; stroke-linecap:round; stroke-linejoin:round; stroke-width:3px;"/><path d="M97.743,121.67c.14,.446-.107,.921-.553,1.062l-1.964,.618c-.446,.14-.921-.107-1.062-.553s.107-.921,.553-1.062l1.964-.618c.446-.14,.921,.107,1.062,.553Z" style="fill:none; stroke:#f4f4f4; stroke-linecap:round; stroke-linejoin:round; stroke-width:3px;"/><circle cx="103.386" cy="121.996" r="1.266" style="fill:none; stroke:#f4f4f4; stroke-linecap:round; stroke-linejoin:round; stroke-width:3px;"/></g><g><polyline points="133.809 116.714 109.727 124.083 107.536 116.91 107.954 116.022 129.636 109.388" style="fill:none; stroke:#f4f4f4; stroke-linecap:round; stroke-linejoin:round; stroke-width:3px;"/><path d="M120.04,118.038c-.253,.08-.522-.061-.602-.314l-.35-1.113c-.08-.253,.061-.522,.314-.602s.522,.061,.602,.314l.35,1.113c.08,.253-.061,.522-.314,.602Z" style="fill:none; stroke:#f4f4f4; stroke-linecap:round; stroke-linejoin:round; stroke-width:3px;"/><circle cx="111.466" cy="119.51" r="1.307" style="fill:none; stroke:#f4f4f4; stroke-linecap:round; stroke-linejoin:round; stroke-width:3px;"/><circle cx="114.942" cy="118.417" r="1.307" style="fill:none; stroke:#f4f4f4; stroke-linecap:round; stroke-linejoin:round; stroke-width:3px;"/></g><path d="M119.941,111.887c.064,.141,.063,.303-.003,.442l-.106,.224c-.063,.134-.18,.235-.321,.278l-5.849,1.79c-.107,.033-.224,.016-.317-.047s-.154-.164-.164-.276l-.054-.577c-.024-.254,.021-.51,.129-.742l.129-.275c.151-.322,.408-.582,.727-.737l4.042-1.962c.201-.094,.431-.108,.638-.033,.211,.075,.378,.234,.473,.434l.676,1.479Z" style="fill:none; stroke:#f4f4f4; stroke-linecap:round; stroke-linejoin:round; stroke-width:3px;"/></g><g><g><path d="M84.491,125.533l.644,.969s.712,1.071,2.299,2.36c.344,.279,.807,.37,1.23,.239l.856-.264-.497-.875c-.166-.292-.191-.645-.067-.957s.383-.552,.705-.651l.669-.206-.678-2.204-5.163,1.589Z" style="fill:none; stroke:#f4f4f4; stroke-linecap:round; stroke-linejoin:round; stroke-width:3px;"/><g><path d="M85.206,128.364c-.365,.112-.761,.075-1.099-.104s-.59-.485-.702-.851l-.191-.624c-.117-.382-.091-.794,.072-1.159l.513-1.144c.199-.444,.524-.819,.934-1.079l4.495-2.851c.478-.303,.995-.541,1.537-.707l16.238-4.964c.442-.135,.909,.114,1.044,.555l2.467,8.069c.061,.199,.045,.413-.043,.601l-.227,.481c-.101,.213-.287,.375-.512,.444l-21.112,6.454c-.33,.101-.69,.024-.949-.204l-.436-.383c-.125-.11-.181-.279-.146-.441,.012-.057,.035-.109,.065-.156,.058-.088,.145-.155,.249-.187l3.675-1.131c.612-.188,.955-.837,.767-1.448s-.837-.955-1.448-.767l-5.19,1.597Z" style="fill:none; stroke:#f4f4f4; stroke-linecap:round; stroke-linejoin:round; stroke-width:3px;"/><path d="M85.206,128.364c-.365,.112-.761,.075-1.099-.104s-.59-.485-.702-.851l-.191-.624c-.117-.382-.091-.794,.072-1.159l.513-1.144c.199-.444,.524-.819,.934-1.079l4.495-2.851c.478-.303,.995-.541,1.537-.707l16.238-4.964c.442-.135,.909,.114,1.044,.555l2.467,8.069c.061,.199,.045,.413-.043,.601l-.227,.481c-.101,.213-.287,.375-.512,.444l-21.112,6.454c-.33,.101-.69,.024-.949-.204l-.436-.383c-.125-.11-.181-.279-.146-.441,.012-.057,.035-.109,.065-.156,.058-.088,.145-.155,.249-.187l3.675-1.131c.612-.188,.955-.837,.767-1.448s-.837-.955-1.448-.767l-5.19,1.597Z" style="fill:none; stroke:#f4f4f4; stroke-linecap:round; stroke-linejoin:round; stroke-width:3px;"/><path d="M85.206,128.364c-.365,.112-.761,.075-1.099-.104s-.59-.485-.702-.851l-.191-.624c-.117-.382-.091-.794,.072-1.159l.513-1.144c.199-.444,.524-.819,.934-1.079l4.495-2.851c.478-.303,.995-.541,1.537-.707l16.238-4.964c.442-.135,.909,.114,1.044,.555l2.467,8.069c.061,.199,.045,.413-.043,.601l-.227,.481c-.101,.213-.287,.375-.512,.444l-21.112,6.454c-.33,.101-.69,.024-.949-.204l-.436-.383c-.125-.11-.181-.279-.146-.441,.012-.057,.035-.109,.065-.156,.058-.088,.145-.155,.249-.187l3.675-1.131c.612-.188,.955-.837,.767-1.448s-.837-.955-1.448-.767l-5.19,1.597Z" style="fill:none; stroke:#f4f4f4; stroke-linecap:round; stroke-linejoin:round; stroke-width:3px;"/></g><path d="M83.2,126.729c-.187-.612,.068-1.273,.618-1.601l5.602-3.34c.422-.251,.872-.451,1.341-.594l15.767-4.82c.427-.13,.878,.11,1.009,.536" style="fill:none; stroke:#f4f4f4; stroke-linecap:round; stroke-linejoin:round; stroke-width:3px;"/><path d="M97.743,121.67c.14,.446-.107,.921-.553,1.062l-1.964,.618c-.446,.14-.921-.107-1.062-.553s.107-.921,.553-1.062l1.964-.618c.446-.14,.921,.107,1.062,.553Z" style="fill:none; stroke:#f4f4f4; stroke-linecap:round; stroke-linejoin:round; stroke-width:3px;"/><circle cx="103.386" cy="121.996" r="1.266" style="fill:none; stroke:#f4f4f4; stroke-linecap:round; stroke-linejoin:round; stroke-width:3px;"/></g><g><polyline points="133.809 116.714 109.727 124.083 107.536 116.91 107.954 116.022 129.636 109.388" style="fill:none; stroke:#f4f4f4; stroke-linecap:round; stroke-linejoin:round; stroke-width:3px;"/><path d="M120.04,118.038c-.253,.08-.522-.061-.602-.314l-.35-1.113c-.08-.253,.061-.522,.314-.602s.522,.061,.602,.314l.35,1.113c.08,.253-.061,.522-.314,.602Z" style="fill:none; stroke:#f4f4f4; stroke-linecap:round; stroke-linejoin:round; stroke-width:3px;"/><circle cx="111.466" cy="119.51" r="1.307" style="fill:none; stroke:#f4f4f4; stroke-linecap:round; stroke-linejoin:round; stroke-width:3px;"/><circle cx="114.942" cy="118.417" r="1.307" style="fill:none; stroke:#f4f4f4; stroke-linecap:round; stroke-linejoin:round; stroke-width:3px;"/></g><path d="M119.941,111.887c.064,.141,.063,.303-.003,.442l-.106,.224c-.063,.134-.18,.235-.321,.278l-5.849,1.79c-.107,.033-.224,.016-.317-.047s-.154-.164-.164-.276l-.054-.577c-.024-.254,.021-.51,.129-.742l.129-.275c.151-.322,.408-.582,.727-.737l4.042-1.962c.201-.094,.431-.108,.638-.033,.211,.075,.378,.234,.473,.434l.676,1.479Z" style="fill:none; stroke:#f4f4f4; stroke-linecap:round; stroke-linejoin:round; stroke-width:3px;"/></g><g><g><path d="M84.491,125.533l.644,.969s.712,1.071,2.299,2.36c.344,.279,.807,.37,1.23,.239l.856-.264-.497-.875c-.166-.292-.191-.645-.067-.957s.383-.552,.705-.651l.669-.206-.678-2.204-5.163,1.589Z" style="fill:none; stroke:#f4f4f4; stroke-linecap:round; stroke-linejoin:round; stroke-width:3px;"/><g><path d="M85.206,128.364c-.365,.112-.761,.075-1.099-.104s-.59-.485-.702-.851l-.191-.624c-.117-.382-.091-.794,.072-1.159l.513-1.144c.199-.444,.524-.819,.934-1.079l4.495-2.851c.478-.303,.995-.541,1.537-.707l16.238-4.964c.442-.135,.909,.114,1.044,.555l2.467,8.069c.061,.199,.045,.413-.043,.601l-.227,.481c-.101,.213-.287,.375-.512,.444l-21.112,6.454c-.33,.101-.69,.024-.949-.204l-.436-.383c-.125-.11-.181-.279-.146-.441,.012-.057,.035-.109,.065-.156,.058-.088,.145-.155,.249-.187l3.675-1.131c.612-.188,.955-.837,.767-1.448s-.837-.955-1.448-.767l-5.19,1.597Z" style="fill:none; stroke:#f4f4f4; stroke-linecap:round; stroke-linejoin:round; stroke-width:3px;"/><path d="M85.206,128.364c-.365,.112-.761,.075-1.099-.104s-.59-.485-.702-.851l-.191-.624c-.117-.382-.091-.794,.072-1.159l.513-1.144c.199-.444,.524-.819,.934-1.079l4.495-2.851c.478-.303,.995-.541,1.537-.707l16.238-4.964c.442-.135,.909,.114,1.044,.555l2.467,8.069c.061,.199,.045,.413-.043,.601l-.227,.481c-.101,.213-.287,.375-.512,.444l-21.112,6.454c-.33,.101-.69,.024-.949-.204l-.436-.383c-.125-.11-.181-.279-.146-.441,.012-.057,.035-.109,.065-.156,.058-.088,.145-.155,.249-.187l3.675-1.131c.612-.188,.955-.837,.767-1.448s-.837-.955-1.448-.767l-5.19,1.597Z" style="fill:none; stroke:#f4f4f4; stroke-linecap:round; stroke-linejoin:round; stroke-width:3px;"/><path d="M85.206,128.364c-.365,.112-.761,.075-1.099-.104s-.59-.485-.702-.851l-.191-.624c-.117-.382-.091-.794,.072-1.159l.513-1.144c.199-.444,.524-.819,.934-1.079l4.495-2.851c.478-.303,.995-.541,1.537-.707l16.238-4.964c.442-.135,.909,.114,1.044,.555l2.467,8.069c.061,.199,.045,.413-.043,.601l-.227,.481c-.101,.213-.287,.375-.512,.444l-21.112,6.454c-.33,.101-.69,.024-.949-.204l-.436-.383c-.125-.11-.181-.279-.146-.441,.012-.057,.035-.109,.065-.156,.058-.088,.145-.155,.249-.187l3.675-1.131c.612-.188,.955-.837,.767-1.448s-.837-.955-1.448-.767l-5.19,1.597Z" style="fill:none; stroke:#f4f4f4; stroke-linecap:round; stroke-linejoin:round; stroke-width:3px;"/></g><path d="M83.2,126.729c-.187-.612,.068-1.273,.618-1.601l5.602-3.34c.422-.251,.872-.451,1.341-.594l15.767-4.82c.427-.13,.878,.11,1.009,.536" style="fill:none; stroke:#f4f4f4; stroke-linecap:round; stroke-linejoin:round; stroke-width:3px;"/><path d="M97.743,121.67c.14,.446-.107,.921-.553,1.062l-1.964,.618c-.446,.14-.921-.107-1.062-.553s.107-.921,.553-1.062l1.964-.618c.446-.14,.921,.107,1.062,.553Z" style="fill:none; stroke:#f4f4f4; stroke-linecap:round; stroke-linejoin:round; stroke-width:3px;"/><circle cx="103.386" cy="121.996" r="1.266" style="fill:none; stroke:#f4f4f4; stroke-linecap:round; stroke-linejoin:round; stroke-width:3px;"/></g><g><polyline points="133.809 116.714 109.727 124.083 107.536 116.91 107.954 116.022 129.636 109.388" style="fill:none; stroke:#f4f4f4; stroke-linecap:round; stroke-linejoin:round; stroke-width:3px;"/><path d="M120.04,118.038c-.253,.08-.522-.061-.602-.314l-.35-1.113c-.08-.253,.061-.522,.314-.602s.522,.061,.602,.314l.35,1.113c.08,.253-.061,.522-.314,.602Z" style="fill:none; stroke:#f4f4f4; stroke-linecap:round; stroke-linejoin:round; stroke-width:3px;"/><circle cx="111.466" cy="119.51" r="1.307" style="fill:none; stroke:#f4f4f4; stroke-linecap:round; stroke-linejoin:round; stroke-width:3px;"/><circle cx="114.942" cy="118.417" r="1.307" style="fill:none; stroke:#f4f4f4; stroke-linecap:round; stroke-linejoin:round; stroke-width:3px;"/></g><path d="M119.941,111.887c.064,.141,.063,.303-.003,.442l-.106,.224c-.063,.134-.18,.235-.321,.278l-5.849,1.79c-.107,.033-.224,.016-.317-.047s-.154-.164-.164-.276l-.054-.577c-.024-.254,.021-.51,.129-.742l.129-.275c.151-.322,.408-.582,.727-.737l4.042-1.962c.201-.094,.431-.108,.638-.033,.211,.075,.378,.234,.473,.434l.676,1.479Z" style="fill:none; stroke:#f4f4f4; stroke-linecap:round; stroke-linejoin:round; stroke-width:3px;"/></g></g><path d="M135.22,119.192l-6.138-10.776c-.51-.896-1.569-1.325-2.559-1.036l-1.156,.337" style="fill:none; stroke:#f4f4f4; stroke-linecap:round; stroke-linejoin:round; stroke-width:3px;"/></g><g><path d="M62.377,15.126c2.172,2.005,3.144,2.947,5.488,5.196,2.522,2.413,5.021,4.852,7.508,7.302,4.968,4.907,9.858,9.889,14.67,14.936,4.825,5.036,9.51,10.188,14.123,15.387,4.605,5.206,9.041,10.532,13.353,15.924l4.497-3.672,4.497-3.672c-4.647-5.441-9.389-10.769-14.269-15.939-4.888-5.162-9.833-10.255-14.898-15.21-5.054-4.968-10.174-9.858-15.368-14.665-2.6-2.4-5.211-4.788-7.847-7.151-2.483-2.231-3.545-3.07-5.908-5.143-3.187-2.797-6.197-4.042-9.068-5.115-1.716-.641-6.331-2.698-9.513,1.799-2.434,3.44-1.216,6.112,1.737,8.91" style="fill:#f4f4f4; stroke:#30373e; stroke-linecap:round; stroke-linejoin:round; stroke-width:1.5px;"/><path d="M196.684,50.263c3.884,4.661,5,11.035,2.931,16.738l-3.772,10.398c-.471,1.299-1.804,2.075-3.167,1.844-27.22-4.612-48.056-13.885-73.225-24.421-5.148-2.155-9.771-5.477-13.434-9.687l-2.373-2.727c-3.93-4.517-8.064-7.095-13.912-5.813l-7.322,1.604c-.771,.169-1.556-.208-1.908-.914-1.637-3.281-6.136-12.61-7.845-19.338-.3-1.181,.282-2.163,1.388-2.651,8.68-3.827,28.738-9.47,37.113,10.324,.618,1.461,3.957,12.447,16.699,15.968l17.057,4.714c7.504,2.074,15.429,2.072,22.932-.005l13.82-3.826c4.217-1.167,8.727,.242,11.528,3.604l3.488,4.186Z" style="fill:#f4f4f4; stroke:#30373e; stroke-linecap:round; stroke-linejoin:round; stroke-width:1.5px;"/><g><g><path d="M84.782,110.045l.544,.818s.602,.904,1.942,1.993c.291,.236,.681,.312,1.039,.202l.723-.223-.42-.739c-.14-.247-.161-.544-.056-.808s.324-.466,.595-.55l.565-.174-.573-1.861-4.36,1.342Z" style="fill:#f4ae3d; stroke:#30373e; stroke-linecap:round; stroke-linejoin:round; stroke-width:.5px;"/><g><path d="M85.385,112.436c-.309,.095-.643,.063-.928-.088s-.499-.41-.593-.719l-.161-.527c-.099-.323-.077-.671,.061-.979l.433-.966c.168-.375,.442-.692,.789-.912l3.796-2.408c.404-.256,.841-.457,1.298-.597l13.714-4.192c.373-.114,.768,.096,.882,.469l2.083,6.815c.051,.168,.038,.349-.036,.507l-.191,.407c-.085,.18-.242,.316-.433,.375l-17.831,5.451c-.279,.085-.582,.02-.802-.173l-.368-.324c-.106-.093-.153-.235-.123-.373,.01-.048,.029-.092,.055-.132,.049-.074,.122-.131,.21-.158l3.104-.955c.517-.159,.807-.707,.648-1.223s-.707-.807-1.223-.648l-4.384,1.349Z" style="fill:none; stroke:#30373e; stroke-linecap:round; stroke-linejoin:round; stroke-width:1.5px;"/><path d="M85.385,112.436c-.309,.095-.643,.063-.928-.088s-.499-.41-.593-.719l-.161-.527c-.099-.323-.077-.671,.061-.979l.433-.966c.168-.375,.442-.692,.789-.912l3.796-2.408c.404-.256,.841-.457,1.298-.597l13.714-4.192c.373-.114,.768,.096,.882,.469l2.083,6.815c.051,.168,.038,.349-.036,.507l-.191,.407c-.085,.18-.242,.316-.433,.375l-17.831,5.451c-.279,.085-.582,.02-.802-.173l-.368-.324c-.106-.093-.153-.235-.123-.373,.01-.048,.029-.092,.055-.132,.049-.074,.122-.131,.21-.158l3.104-.955c.517-.159,.807-.707,.648-1.223s-.707-.807-1.223-.648l-4.384,1.349Z" style="fill:#f4ae3d;"/><path d="M85.385,112.436c-.309,.095-.643,.063-.928-.088s-.499-.41-.593-.719l-.161-.527c-.099-.323-.077-.671,.061-.979l.433-.966c.168-.375,.442-.692,.789-.912l3.796-2.408c.404-.256,.841-.457,1.298-.597l13.714-4.192c.373-.114,.768,.096,.882,.469l2.083,6.815c.051,.168,.038,.349-.036,.507l-.191,.407c-.085,.18-.242,.316-.433,.375l-17.831,5.451c-.279,.085-.582,.02-.802-.173l-.368-.324c-.106-.093-.153-.235-.123-.373,.01-.048,.029-.092,.055-.132,.049-.074,.122-.131,.21-.158l3.104-.955c.517-.159,.807-.707,.648-1.223s-.707-.807-1.223-.648l-4.384,1.349Z" style="fill:none; stroke:#30373e; stroke-linecap:round; stroke-linejoin:round; stroke-width:.5px;"/></g><path d="M83.691,111.056c-.158-.517,.057-1.076,.522-1.353l4.731-2.821c.356-.212,.736-.381,1.133-.502l13.316-4.071c.36-.11,.742,.093,.852,.453" style="fill:none; stroke:#30373e; stroke-linecap:round; stroke-linejoin:round; stroke-width:.5px;"/><path d="M95.974,106.783c.119,.377-.091,.778-.467,.897l-1.658,.522c-.377,.119-.778-.091-.897-.467s.091-.778,.467-.897l1.658-.522c.377-.119,.778,.091,.897,.467Z" style="fill:none; stroke:#30373e; stroke-linecap:round; stroke-linejoin:round; stroke-width:.5px;"/><circle cx="100.74" cy="107.058" r="1.069" style="fill:none; stroke:#30373e; stroke-linecap:round; stroke-linejoin:round; stroke-width:.5px;"/></g><g><polygon points="140.02 98.44 106.095 108.821 104.246 102.762 104.599 102.013 138.523 91.632 140.377 97.691 140.02 98.44" style="fill:#f4f4f4; stroke:#30373e; stroke-linecap:round; stroke-linejoin:round;"/><path d="M114.806,103.715c-.214,.067-.441-.051-.508-.265l-.296-.94c-.067-.214,.051-.441,.265-.508s.441,.051,.508,.265l.296,.94c.067,.214-.051,.441-.265,.508Z" style="fill:none; stroke:#30373e; stroke-linecap:round; stroke-linejoin:round; stroke-width:.5px;"/><circle cx="107.565" cy="104.958" r="1.104" style="fill:none; stroke:#30373e; stroke-linecap:round; stroke-linejoin:round; stroke-width:.5px;"/><circle cx="110.501" cy="104.036" r="1.104" style="fill:none; stroke:#30373e; stroke-linecap:round; stroke-linejoin:round; stroke-width:.5px;"/></g><path d="M114.722,98.521c.054,.119,.053,.256-.002,.374l-.089,.189c-.053,.113-.152,.198-.271,.235l-4.94,1.512c-.091,.028-.189,.013-.268-.04s-.13-.138-.139-.233l-.046-.487c-.02-.215,.018-.431,.109-.626l.109-.232c.128-.272,.344-.491,.614-.622l3.414-1.657c.169-.08,.364-.091,.539-.028,.178,.063,.32,.197,.399,.367l.571,1.249Z" style="fill:#cfd2d4; stroke:#30373e; stroke-linecap:round; stroke-linejoin:round; stroke-width:.5px;"/></g><path d="M71.216,29.913c15.292,36.552,40.619,96.074,60.261,90.366l3.484-1.012c.447,.784,1.373,1.16,2.239,.908l10.922-3.174,49.802-14.472c5.348-1.554,8.455-7.116,6.975-12.485l-2.509-9.103" style="fill:#f4f4f4; stroke:#30373e; stroke-linecap:round; stroke-linejoin:round; stroke-width:1.5px;"/><path d="M190.4,87.174l-58.233,16.769c-2.119,.61-4.274,.904-6.406,.904-7.859,0-15.402-3.991-19.668-10.844-6.79-10.908-16.95-29.317-26.797-55.072" style="fill:none; stroke:#30373e; stroke-linecap:round; stroke-linejoin:round; stroke-width:.5px;"/><path d="M81.483,38.796c9.438,24.91,19.155,42.785,25.896,53.713,4.797,7.776,14.175,11.377,22.949,8.827l53.877-15.656" style="fill:none; stroke:#30373e; stroke-linecap:round; stroke-linejoin:round; stroke-width:.5px;"/><g><path d="M209.648,55.637c4.61,5.532,5.935,13.097,3.479,19.867l-4.476,12.341c-.559,1.542-2.141,2.463-3.759,2.189-32.307-5.474-52.073-14.397-81.945-26.902-19.836-8.304-24.788-27.102-40.239-23.717l-8.691,1.904c-.915,.201-1.847-.246-2.265-1.085-1.943-3.894-7.282-14.967-9.312-22.952-.356-1.401,.334-2.567,1.647-3.146,10.303-4.543,34.109-11.24,44.049,12.254,.734,1.734,4.697,14.773,19.821,18.953l20.245,5.595c8.906,2.461,18.313,2.459,27.218-.006l16.403-4.541c5.005-1.386,10.358,.288,13.683,4.278l4.14,4.969Z" style="fill:#f4f4f4; stroke:#30373e; stroke-linecap:round; stroke-linejoin:round; stroke-width:1.5px;"/><path d="M80.096,10.067c9.452-.393,19.888,4.311,25.171,17.541,.678,1.697,5.159,16.123,21.861,20.738l20.245,5.595c4.699,1.299,9.553,1.957,14.428,1.957,4.883,0,9.746-.661,14.451-1.964l10.974-3.055c7.843-2.171,13.897-5.137,18.945,.92" style="fill:none; stroke:#30373e; stroke-linecap:round; stroke-linejoin:round; stroke-width:.5px;"/></g><path d="M133.535,85.336c.333,.598,.603,1.228,.804,1.882l1.569,5.09c.119,.386-.097,.795-.483,.914l-4.914,1.515c-.386,.119-.795-.097-.914-.483l-.551-1.787c-.287-.932-1.286-1.46-2.218-1.173-.937,.289-1.46,1.286-1.173,2.218l.551,1.787c.119,.386-.097,.795-.483,.914l-4.914,1.515c-.386,.119-.795-.097-.914-.483l-1.569-5.09c-.202-.654-.334-1.327-.395-2.008l-.502-5.596c-.031-.344,.183-.662,.513-.764l12.003-3.701c.33-.102,.686,.041,.854,.342l2.736,4.907Z" style="fill:#f4f4f4; stroke:#30373e; stroke-linecap:round; stroke-linejoin:round;"/><path d="M113.659,82.448l-9.101-6.932c-.661-.504-.943-1.364-.708-2.162,.386-1.309,1.236-3.472,3.076-6.161l9.492,11.913-2.758,3.342Z" style="fill:#f4f4f4; stroke:#30373e; stroke-linecap:round; stroke-linejoin:round;"/><path d="M59.696,6.977c2.068,1.772,3.359,2.869,5.888,5.141,3.184,2.855,6.339,5.74,9.48,8.64,6.275,5.808,12.461,11.715,18.567,17.718,6.119,5.987,12.093,12.141,17.999,18.377,5.896,6.246,11.625,12.683,17.239,19.257l-5.433,4.437-5.433,4.437c-5.21-6.514-10.569-12.948-16.133-19.238-5.574-6.28-11.235-12.505-17.063-18.589-5.813-6.097-11.721-12.117-17.723-18.045-3.005-2.96-6.025-5.906-9.071-8.821-2.833-2.717-4.006-3.856-6.63-6.277" style="fill:#f4f4f4; stroke:#30373e; stroke-linecap:round; stroke-linejoin:round; stroke-width:1.5px;"/><path d="M126.488,78.054l-6.555,5.357-7.811-9.565c-.464-.568-.379-1.404,.188-1.868l4.499-3.676c.273-.223,.623-.328,.973-.293s.673,.208,.895,.481l7.81,9.564Z" style="fill:none; stroke:#30373e; stroke-linecap:round; stroke-linejoin:round; stroke-width:.5px;"/><g><path d="M115.051,85.924c-2.308-3.598-2.062-8.267,.609-11.604,2.672-3.337,7.174-4.597,11.19-3.131s6.649,5.329,6.544,9.602c-.105,4.273-2.924,8.003-7.006,9.269-2.44,.757-5.077,.548-7.366-.584-1.621-.802-2.994-2.029-3.97-3.552Z" style="fill:#f4f4f4; stroke:#30373e; stroke-linecap:round; stroke-linejoin:round;"/><path d="M117.405,84.414c-1.66-2.588-1.483-5.946,.438-8.346,1.922-2.4,5.16-3.306,8.048-2.252,2.888,1.054,4.782,3.832,4.706,6.906-.075,3.073-2.103,5.756-5.039,6.667-1.755,.544-3.651,.394-5.298-.42-1.166-.576-2.153-1.46-2.855-2.554Z" style="fill:none; stroke:#30373e; stroke-linecap:round; stroke-linejoin:round; stroke-width:.5px;"/></g><path d="M176.377,108.262c8.154-2.469,15.949-6.469,21.871-12.702-2.391,3.624-6.154,6.071-9.816,8.262-3.747,2.143-7.77,3.74-11.916,4.919-.31,.1-.462-.395-.14-.48h0Z" style="fill:#30373e;"/><g><g><path d="M84.491,125.533l.644,.969s.712,1.071,2.299,2.36c.344,.279,.807,.37,1.23,.239l.856-.264-.497-.875c-.166-.292-.191-.645-.067-.957s.383-.552,.705-.651l.669-.206-.678-2.204-5.163,1.589Z" style="fill:#f4ae3d; stroke:#30373e; stroke-linecap:round; stroke-linejoin:round; stroke-width:.5px;"/><g><path d="M85.206,128.364c-.365,.112-.761,.075-1.099-.104s-.59-.485-.702-.851l-.191-.624c-.117-.382-.091-.794,.072-1.159l.513-1.144c.199-.444,.524-.819,.934-1.079l4.495-2.851c.478-.303,.995-.541,1.537-.707l16.238-4.964c.442-.135,.909,.114,1.044,.555l2.467,8.069c.061,.199,.045,.413-.043,.601l-.227,.481c-.101,.213-.287,.375-.512,.444l-21.112,6.454c-.33,.101-.69,.024-.949-.204l-.436-.383c-.125-.11-.181-.279-.146-.441,.012-.057,.035-.109,.065-.156,.058-.088,.145-.155,.249-.187l3.675-1.131c.612-.188,.955-.837,.767-1.448s-.837-.955-1.448-.767l-5.19,1.597Z" style="fill:none; stroke:#30373e; stroke-linecap:round; stroke-linejoin:round; stroke-width:1.5px;"/><path d="M85.206,128.364c-.365,.112-.761,.075-1.099-.104s-.59-.485-.702-.851l-.191-.624c-.117-.382-.091-.794,.072-1.159l.513-1.144c.199-.444,.524-.819,.934-1.079l4.495-2.851c.478-.303,.995-.541,1.537-.707l16.238-4.964c.442-.135,.909,.114,1.044,.555l2.467,8.069c.061,.199,.045,.413-.043,.601l-.227,.481c-.101,.213-.287,.375-.512,.444l-21.112,6.454c-.33,.101-.69,.024-.949-.204l-.436-.383c-.125-.11-.181-.279-.146-.441,.012-.057,.035-.109,.065-.156,.058-.088,.145-.155,.249-.187l3.675-1.131c.612-.188,.955-.837,.767-1.448s-.837-.955-1.448-.767l-5.19,1.597Z" style="fill:#f4ae3d;"/><path d="M85.206,128.364c-.365,.112-.761,.075-1.099-.104s-.59-.485-.702-.851l-.191-.624c-.117-.382-.091-.794,.072-1.159l.513-1.144c.199-.444,.524-.819,.934-1.079l4.495-2.851c.478-.303,.995-.541,1.537-.707l16.238-4.964c.442-.135,.909,.114,1.044,.555l2.467,8.069c.061,.199,.045,.413-.043,.601l-.227,.481c-.101,.213-.287,.375-.512,.444l-21.112,6.454c-.33,.101-.69,.024-.949-.204l-.436-.383c-.125-.11-.181-.279-.146-.441,.012-.057,.035-.109,.065-.156,.058-.088,.145-.155,.249-.187l3.675-1.131c.612-.188,.955-.837,.767-1.448s-.837-.955-1.448-.767l-5.19,1.597Z" style="fill:none; stroke:#30373e; stroke-linecap:round; stroke-linejoin:round; stroke-width:.5px;"/></g><path d="M83.2,126.729c-.187-.612,.068-1.273,.618-1.601l5.602-3.34c.422-.251,.872-.451,1.341-.594l15.767-4.82c.427-.13,.878,.11,1.009,.536" style="fill:none; stroke:#30373e; stroke-linecap:round; stroke-linejoin:round; stroke-width:.5px;"/><path d="M97.743,121.67c.14,.446-.107,.921-.553,1.062l-1.964,.618c-.446,.14-.921-.107-1.062-.553s.107-.921,.553-1.062l1.964-.618c.446-.14,.921,.107,1.062,.553Z" style="fill:none; stroke:#30373e; stroke-linecap:round; stroke-linejoin:round; stroke-width:.5px;"/><circle cx="103.386" cy="121.996" r="1.266" style="fill:none; stroke:#30373e; stroke-linecap:round; stroke-linejoin:round; stroke-width:.5px;"/></g><g><polyline points="133.809 116.714 109.727 124.083 107.536 116.91 107.954 116.022 129.636 109.388" style="fill:#f4f4f4; stroke:#30373e; stroke-linejoin:round;"/><path d="M120.04,118.038c-.253,.08-.522-.061-.602-.314l-.35-1.113c-.08-.253,.061-.522,.314-.602s.522,.061,.602,.314l.35,1.113c.08,.253-.061,.522-.314,.602Z" style="fill:none; stroke:#30373e; stroke-linecap:round; stroke-linejoin:round; stroke-width:.5px;"/><circle cx="111.466" cy="119.51" r="1.307" style="fill:none; stroke:#30373e; stroke-linecap:round; stroke-linejoin:round; stroke-width:.5px;"/><circle cx="114.942" cy="118.417" r="1.307" style="fill:none; stroke:#30373e; stroke-linecap:round; stroke-linejoin:round; stroke-width:.5px;"/></g><path d="M119.941,111.887c.064,.141,.063,.303-.003,.442l-.106,.224c-.063,.134-.18,.235-.321,.278l-5.849,1.79c-.107,.033-.224,.016-.317-.047s-.154-.164-.164-.276l-.054-.577c-.024-.254,.021-.51,.129-.742l.129-.275c.151-.322,.408-.582,.727-.737l4.042-1.962c.201-.094,.431-.108,.638-.033,.211,.075,.378,.234,.473,.434l.676,1.479Z" style="fill:#f4f4f4; stroke:#30373e; stroke-linecap:round; stroke-linejoin:round; stroke-width:.75px;"/></g><path d="M135.22,119.192l-6.138-10.776c-.51-.896-1.569-1.325-2.559-1.036l-1.156,.337" style="fill:none; stroke:#30373e; stroke-linecap:round; stroke-linejoin:round;"/></g></g></g><g id="uuid-0c3b7408-b37e-497c-a461-c7590033c702"><g><g><line x1="54.417" y1="139.307" x2="76.865" y2="132.172" style="fill:none; stroke:#f4f4f4; stroke-width:1.5px;"/><g><rect x="59.82" y="132.69" width="17.455" height="4.25" transform="translate(-37.607 27.088) rotate(-17.627)" style="fill:none; stroke:#f4f4f4; stroke-width:1.5px;"/><polygon points="62.696 141.123 54.417 139.307 60.129 133.044 62.696 141.123" style="fill:none; stroke:#f4f4f4; stroke-width:1.5px;"/></g></g><g><line x1="60.231" y1="137.459" x2="76.865" y2="132.172" style="fill:none; stroke:#f4ae3d; stroke-miterlimit:10; stroke-width:4.25px;"/><polygon points="62.696 141.123 54.417 139.307 60.129 133.044 62.696 141.123" style="fill:#f4ae3d;"/></g></g><g><g><line x1="61.716" y1="121.071" x2="80.265" y2="115.099" style="fill:none; stroke:#f4f4f4; stroke-width:1.5px;"/><g><rect x="67.201" y="115.026" width="13.387" height="4.25" transform="translate(-32.356 28.294) rotate(-17.852)" style="fill:none; stroke:#f4f4f4; stroke-width:1.5px;"/><polygon points="70.002 122.856 61.717 121.071 67.404 114.787 70.002 122.856" style="fill:none; stroke:#f4f4f4; stroke-width:1.5px;"/></g></g><g><line x1="67.523" y1="119.202" x2="80.265" y2="115.099" style="fill:none; stroke:#f4ae3d; stroke-miterlimit:10; stroke-width:4.25px;"/><polygon points="70.002 122.856 61.717 121.071 67.404 114.787 70.002 122.856" style="fill:#f4ae3d;"/></g></g></g></svg>