<svg xmlns="http://www.w3.org/2000/svg" width="218" height="218" viewBox="0 0 218 218"><g id="abcf7341-ff8e-4be9-90c8-6569f832965b" data-name="below"><path d="M201.1433,228.2913c.4362-21.5229.6264-50.7774.3368-59.9442-1.4606-46.2311-3.6961-62.0911-4.788-68.1384a11.9628,11.9628,0,0,0-4.7787-7.58l-13.2807-9.5694a10.1458,10.1458,0,0,0-5.9755-1.93" style="fill:none;stroke:#a6abb0;stroke-linecap:round;stroke-linejoin:round;stroke-width:0.5px"/><path d="M141.3685,78.14l-101.2722-.088a15.7605,15.7605,0,0,0-15.7719,15.76l-.9616,131.3627" style="fill:none;stroke:#a6abb0;stroke-linecap:round;stroke-linejoin:round;stroke-width:0.5px"/><path d="M172.6753,70.9428V85.327a5.35,5.35,0,0,1-5.35,5.35H146.7181a5.35,5.35,0,0,1-5.35-5.35V67.27" style="fill:none;stroke:#a6abb0;stroke-linecap:round;stroke-linejoin:round;stroke-width:0.5px"/><path d="M167.2614,67.27V82.1367a1.8855,1.8855,0,0,1-1.8855,1.8855H148.4764a1.8855,1.8855,0,0,1-1.8855-1.8855V67.27" style="fill:none;stroke:#a6abb0;stroke-linecap:round;stroke-linejoin:round;stroke-width:0.5px"/><line x1="207.849" y1="144.7363" x2="200.5573" y2="144.7363" style="fill:none;stroke:#a6abb0;stroke-linecap:round;stroke-linejoin:round;stroke-width:0.5px"/><line x1="207.849" y1="151.5114" x2="200.8627" y2="151.5114" style="fill:none;stroke:#a6abb0;stroke-linecap:round;stroke-linejoin:round;stroke-width:0.5px"/><line x1="16.5097" y1="224.2846" x2="17.9263" y2="75.1033" style="fill:none;stroke:#a6abb0;stroke-linecap:round;stroke-linejoin:round;stroke-width:0.5px"/><path d="M-6.7521,86.8739H12.8517a4.8223,4.8223,0,0,1,4.8222,4.8223" style="fill:none;stroke:#a6abb0;stroke-linecap:round;stroke-linejoin:round;stroke-width:0.5px"/><path d="M-6.3041,105.7488H12.8517a4.8223,4.8223,0,0,1,4.8222,4.8223" style="fill:none;stroke:#a6abb0;stroke-linecap:round;stroke-linejoin:round;stroke-width:0.5px"/><path d="M55.77,68.2753,40.0479,68.24,24.325,68.2046a6.9011,6.9011,0,0,0-6.3987,4.3187,6.9008,6.9008,0,0,0-6.3987-4.3187H-2.72" style="fill:none;stroke:#a6abb0;stroke-linecap:round;stroke-linejoin:round;stroke-width:1.5px"/><path d="M55.7686,68.7753,40.0468,68.74,24.325,68.7046a6.3989,6.3989,0,0,0-6.3987,6.3987,6.3987,6.3987,0,0,0-6.3987-6.3987H-2.72" style="fill:none;stroke:#a6abb0;stroke-linecap:round;stroke-linejoin:round;stroke-width:0.5px"/><path d="M211.8485,226.9574c.1151-5.9907.2124-12.5174.2871-19.0326.2-17.428.2387-34.7886.0241-41.5821a54.1112,54.1112,0,0,0-.7508-7.8815A20.8108,20.8108,0,0,0,210,153.5867a8.0369,8.0369,0,0,0-1.0044-1.6984,3.7031,3.7031,0,0,0-.6469-.64v-6.0545a2.395,2.395,0,0,0,1.0916-.489,4.9511,4.9511,0,0,0,1.4734-2.857c.5356-2.2979.699-6.0349.481-11.8382-.1567-4.1745-.5121-9.4407-1.0778-16.0454a118.6353,118.6353,0,0,0-2.0715-15.3283c-1.66-7.3832-4.0611-10.3371-7.9392-13.1316L192.594,79.947,184.8815,74.39a20.8186,20.8186,0,0,0-11.7253-3.9408v-.2343a3.4446,3.4446,0,0,0-3.4446-3.4446h-29.03" style="fill:none;stroke:#a6abb0;stroke-linecap:round;stroke-linejoin:round;stroke-width:1.5px"/><path d="M211.3486,226.9478c.1151-5.9892.2123-12.5146.287-19.0288.2-17.43.2385-34.78.0244-41.5605a53.631,53.631,0,0,0-.7431-7.8081c-1.1272-6.2151-3.0679-7.039-3.0679-7.039v-6.7751c2.377,0,3.4822-3.1019,3.0464-14.7077-.1564-4.1631-.511-9.4205-1.0764-16.0214a118.1618,118.1618,0,0,0-2.0611-15.2613c-1.6352-7.2728-3.9719-10.1177-7.7437-12.8357l-7.7125-5.5575-7.7125-5.5576a20.3247,20.3247,0,0,0-11.9139-3.8523h-.0191v-.7284a2.9444,2.9444,0,0,0-2.9446-2.9446h-29.03" style="fill:none;stroke:#a6abb0;stroke-linecap:round;stroke-linejoin:round;stroke-width:0.5px"/></g><g id="a0ec68ad-68d9-4df9-bd05-f7669d9b1205" data-name="illustration"><path d="M102.845,146.8308a4.4026,4.4026,0,0,1,2.78,1.3581,4.1914,4.1914,0,0,1,1.0988,2.518,78.2123,78.2123,0,0,1,.2192,9.2059,92.0239,92.0239,0,0,1-.7789,11.5884,4.4165,4.4165,0,0,1-3.9619,3.7292c-1.1523.1048-3.2987.1525-5.7469.1579-1.8429.0041-3.8569.014-5.7465-.1578a4.4166,4.4166,0,0,1-3.962-3.7293,92.0254,92.0254,0,0,1-.7788-11.5884,78.1912,78.1912,0,0,1,.2191-9.2058,4.1915,4.1915,0,0,1,1.0989-2.518,4.4026,4.4026,0,0,1,2.78-1.3581c1.76-.1511,4.1091-.1573,6.39-.1546C98.9559,146.6794,101.3744,146.7046,102.845,146.8308Z" style="fill:#cfd2d4;stroke:#30373e;stroke-linecap:round;stroke-linejoin:round;stroke-width:1.5px"/><path d="M91.7818,172.1354c-1.49-.0639-2.4023-.3518-2.4023-11.5911v-8.02a1.7463,1.7463,0,0,1,1.6464-1.744c2.211-.1254,3.82-.1586,5.4294-.1586s3.2184.0332,5.4294.1586a1.7463,1.7463,0,0,1,1.6464,1.744v8.02c0,11.2393-.9123,11.5272-2.4023,11.5911-1.6114.0692-3.2169.0938-4.6735.093C94.5251,172.2273,92.8564,172.1815,91.7818,172.1354Z" style="fill:none;stroke:#30373e;stroke-linecap:round;stroke-linejoin:round"/><line x1="103.531" y1="161.3671" x2="89.3795" y2="161.3671" style="fill:none;stroke:#30373e;stroke-linecap:round;stroke-linejoin:round"/><line x1="89.3795" y1="157.742" x2="103.5311" y2="157.742" style="fill:none;stroke:#30373e;stroke-linecap:round;stroke-linejoin:round"/><path d="M100.5077,153.6446v2.1359a1.629,1.629,0,0,0-1.7361,1.3174l-.31,4.4915a.552.552,0,0,1-.5883.4463H95.5622a.552.552,0,0,1-.5883-.4463l-.31-4.4915a1.6291,1.6291,0,0,0-1.7362-1.3174v-2.2027Z" style="fill:#f4ae3d;stroke:#30373e;stroke-linecap:round;stroke-linejoin:round;stroke-width:1.5px"/><path d="M96.8843,155.9664a55.2043,55.2043,0,0,1-9.8109-.6765,2.8833,2.8833,0,0,1-2.1493-2.3734l-.48-12.6883a2.4918,2.4918,0,0,1-.06-.5329v-2.747a1.6591,1.6591,0,0,1,1.7058-1.6038h.2608a1.3907,1.3907,0,0,0,.78-.2457l.8575-.6031a2.4837,2.4837,0,0,1,1.3975-.4338H104.331a2.4773,2.4773,0,0,1,1.3925.43l.8628.6109a1.42,1.42,0,0,0,.78.2415h.2611a1.6591,1.6591,0,0,1,1.7058,1.6038v2.747a2.435,2.435,0,0,1-.06.5339l-.4862,12.686a2.842,2.842,0,0,1-2.13,2.3734A54.5441,54.5441,0,0,1,96.8843,155.9664Z" style="fill:#f4ae3d;stroke:#30373e;stroke-linecap:round;stroke-linejoin:round;stroke-width:1.5px"/><path d="M107.4565,137.5129v2.21a.5691.5691,0,0,1-.0181.143.7594.7594,0,0,1-.6718.52,82.6515,82.6515,0,0,1-9.8869.45,83.3842,83.3842,0,0,1-9.9314-.4521.77.77,0,0,1-.6725-.5207.5666.5666,0,0,1-.0182-.1423v-2.2085s3.7539-.1468,10.6-.1468S107.4565,137.5129,107.4565,137.5129Z" style="fill:#f4ae3d;stroke:#30373e;stroke-linecap:round;stroke-linejoin:round;stroke-width:0.5px"/><path d="M88.3681,136.8234H105.346L62.7831,70.21c-6.28,0-6.8545-.4745-8.1156-3.5156H44.8307C38.5781,66.6946,71.1033,108.8247,88.3681,136.8234Z" style="fill:#f4ae3d;stroke:#30373e;stroke-linecap:round;stroke-linejoin:round;stroke-width:1.5px"/><path d="M105.346,136.8234H88.3681l44.39-66.6132c3.67,0,6.4927-1.1291,7.9227-2.94a9.39,9.39,0,0,0,.87-1.2155h9.3193C157.1235,66.0543,122.6109,108.8247,105.346,136.8234Z" style="fill:#f4ae3d;stroke:#30373e;stroke-linecap:round;stroke-linejoin:round;stroke-width:1.5px"/></g><g id="bf1ae531-24b2-47e9-8857-f534980a2c3c" data-name="above"><path d="M65.9532,10.4334s-5.8858,33.1-6.8738,38.887-.6219,8.4688,4.036,11.5741,6.4089,3.2464,11.6314,3.2464h46.861c5.2225,0,6.9735-.1412,11.6314-3.2464s5.024-5.7871,4.036-11.5741-6.8739-38.887-6.8739-38.887" style="fill:none;stroke:#a6abb0;stroke-linecap:round;stroke-linejoin:round;stroke-width:0.5px"/><path d="M98.2253,9.438c-5.7475,0-11.1637.0766-16.1015.2267-7.9343.2438-13.1129.6393-16.0593.9285a5.185,5.185,0,0,0-4.5487,4.0015c-.9785,4.2454-2.4337,10.6244-3.814,16.905-1.7975,8.1781-2.9652,13.8866-3.4685,16.969a54.7728,54.7728,0,0,0-.805,10.3321c.1282,4.2642.96,7.59,2.4728,9.8867.0141.0219.8379,1.363,4.8926,1.363H132.759c3.5107,0,6.3509-1.05,7.7967-2.8792A16.8321,16.8321,0,0,0,143.027,58.06a51.3811,51.3811,0,0,0-.81-9.59c-.5033-3.0731-1.6694-8.7831-3.4685-16.9706-1.4881-6.7651-3.0277-13.4959-3.814-16.905a5.1893,5.1893,0,0,0-4.5486-4.0015c-2.948-.2892-8.1282-.6847-16.0593-.9285C109.389,9.5146,103.9729,9.438,98.2253,9.438Z" style="fill:none;stroke:#a6abb0;stroke-linecap:round;stroke-linejoin:round;stroke-width:1.5px"/></g></svg>