<?xml version="1.0" encoding="UTF-8"?><svg xmlns="http://www.w3.org/2000/svg" width="487.497" height="230.06" viewBox="0 0 487.497 230.06"><g id="uuid-d1ba2937-abbb-4fa1-be99-78d37eb25505"><path d="m94.262,106.159c.35-3.126,2.974-5.484,6.119-5.509l59.394-.478c1.738-.014,3.475.11,5.194.369l9.115,1.378c1.842.278,3.204,1.862,3.204,3.725v21.1c0,1.863-1.362,3.446-3.204,3.725l-9.115,1.378c-1.719.26-3.456.383-5.194.369l-59.394-.478c-3.139-.025-5.77-2.39-6.119-5.509-.322-2.878-.628-6.53-.628-10.035s.305-7.157.628-10.035Z" style="fill:none; stroke:#a6abb0; stroke-linecap:round; stroke-linejoin:round; stroke-width:.5px;"/><path d="m100.399,129.577c-2.046-.017-3.761-1.56-3.989-3.589-.407-3.65-.614-6.945-.614-9.793s.207-6.143.614-9.795c.228-2.028,1.943-3.569,3.989-3.588l59.63-.478c1.546,0,3.101.116,4.616.347l9.115,1.378c.791.119,1.365.786,1.365,1.586v21.1c0,.799-.576,1.467-1.366,1.586l-9.112,1.378c-1.52.23-3.065.346-4.593.346l-59.655-.478Z" style="fill:none; stroke:#a6abb0; stroke-linecap:round; stroke-linejoin:round; stroke-width:.5px;"/><line x1="162.392" y1="102.427" x2="162.392" y2="129.981" style="fill:none; stroke:#a6abb0; stroke-linecap:round; stroke-linejoin:round; stroke-width:.5px;"/><line x1="168.579" y1="116.194" x2="114.51" y2="116.194" style="fill:none; stroke:#a6abb0; stroke-linecap:round; stroke-linejoin:round; stroke-width:.5px;"/><path d="m121.594,129.761c-6.153,0-7.085-4.764-7.085-13.567,0-8.803.931-13.567,7.085-13.567" style="fill:none; stroke:#a6abb0; stroke-linecap:round; stroke-linejoin:round; stroke-width:.5px;"/><line x1="168.579" y1="103.299" x2="168.579" y2="129.174" style="fill:none; stroke:#a6abb0; stroke-linecap:round; stroke-linejoin:round; stroke-width:.5px;"/><line x1="173.554" y1="121.589" x2="173.554" y2="119.791" style="fill:none; stroke:#a6abb0; stroke-linecap:round; stroke-linejoin:round; stroke-width:.5px;"/><line x1="173.554" y1="110.799" x2="173.554" y2="112.598" style="fill:none; stroke:#a6abb0; stroke-linecap:round; stroke-linejoin:round; stroke-width:.5px;"/><path d="m176.767,103.732l2.654,1.418c1.243.664,2.019,1.958,2.019,3.367v15.355c0,1.409-.776,2.703-2.019,3.367l-2.654,1.418" style="fill:none; stroke:#a6abb0; stroke-linecap:round; stroke-linejoin:round; stroke-width:.5px;"/><rect x="179.14" y="113.589" width="2.3" height="6.686" rx=".562" ry=".562" style="fill:none; stroke:#a6abb0; stroke-linecap:round; stroke-linejoin:round; stroke-width:.5px;"/><rect x="126.318" y="113.77" width="34.361" height="4.849" rx="1.503" ry="1.503" style="fill:none; stroke:#a6abb0; stroke-linecap:round; stroke-linejoin:round; stroke-width:.5px;"/><line x1="101.65" y1="102.802" x2="101.65" y2="129.587" style="fill:none; stroke:#a6abb0; stroke-linecap:round; stroke-linejoin:round; stroke-width:.5px;"/><line x1="97.066" y1="130.745" x2="71.067" y2="131.808" style="fill:none; stroke:#a6abb0; stroke-linecap:round; stroke-linejoin:round; stroke-width:.5px;"/><path d="m87.107,116.194c0,4.304.51,10.527.941,12.321l-16.996.686" style="fill:none; stroke:#a6abb0; stroke-linecap:round; stroke-linejoin:round; stroke-width:.5px;"/><line x1="97.066" y1="101.643" x2="71.177" y2="100.585" style="fill:none; stroke:#a6abb0; stroke-linecap:round; stroke-linejoin:round; stroke-width:.5px;"/><path d="m87.107,116.194c0-4.304.51-10.527.941-12.321l-16.837-.679" style="fill:none; stroke:#a6abb0; stroke-linecap:round; stroke-linejoin:round; stroke-width:.5px;"/><path d="m169.916,75.337l-3.868,12.861c-.179.595-.111,1.228.192,1.781l1.718,3.14c.437.799,1.439,1.206,2.389.971l2.322-.573" style="fill:none; stroke:#a6abb0; stroke-linecap:round; stroke-linejoin:round; stroke-width:.5px;"/><path d="m144.891,31.441s-11.363-2.184-24.715-2.955c-13.352-.771-14.357-.771-22.737,2.826-9.014,3.869-11.779,5.649-11.779,31.217,0,25.568,2.764,27.348,11.779,31.217,8.38,3.597,9.386,3.597,22.737,2.826s24.715-2.955,24.715-2.955" style="fill:none; stroke:#a6abb0; stroke-linecap:round; stroke-linejoin:round; stroke-width:.5px;"/><path d="m151.993,62.529c0-11.176.447-21.04.447-21.04-3.578-2.73-6.274-6.076-7.466-7.679-.429-.576-.524-1.305-.254-1.955l.431-1.04c.326-.786,1.13-1.329,2.056-1.389,2.284-.148,7.163-.387,14.869-.387,7.549,0,14.433,1.707,18.101,2.813,1.867.563,3.404,1.781,4.266,3.381,2.225,4.131,6.158,13.397,6.158,27.295s-3.933,23.165-6.158,27.295c-.862,1.6-2.399,2.818-4.266,3.381-3.668,1.106-10.553,2.813-18.101,2.813-7.706,0-12.585-.239-14.869-.387-.926-.06-1.73-.603-2.056-1.389l-.431-1.04c-.27-.65-.175-1.379.254-1.955,1.192-1.603,3.889-4.949,7.466-7.679,0,0-.447-9.864-.447-21.04Z" style="fill:none; stroke:#a6abb0; stroke-linecap:round; stroke-linejoin:round; stroke-width:.5px;"/><g id="uuid-a3ef920b-77c9-44f9-a712-2880f574d0fa"><path d="m191.104,62.52c0,14.003-3.957,23.348-6.209,27.541-.932,1.717-2.583,3.016-4.564,3.628-3.698,1.108-10.627,2.833-18.249,2.833-7.716,0-12.605-.237-14.907-.391-.581-.042-1.124-.241-1.568-.561-.398-.287-.718-.675-.905-1.128,0,0-.113-.26-.113-.26-2.115.388-12.449,2.201-24.381,2.881-13.382.781-14.47.783-22.955-2.868-3.766-1.611-6.59-2.912-8.524-5.842-.71-1.076-1.292-2.359-1.766-3.935-1.302-4.337-1.802-10.987-1.802-21.897s.499-17.539,1.799-21.875c.473-1.578,1.055-2.862,1.765-3.939,1.934-2.935,4.758-4.241,8.527-5.86,8.486-3.634,9.573-3.632,22.955-2.868,11.932.696,22.266,2.51,24.382,2.896,0,0,.112-.258.107-.247.192-.474.516-.871.923-1.161.443-.317.984-.508,1.557-.539,2.299-.153,7.188-.391,14.904-.391,7.623,0,14.551,1.725,18.249,2.833,1.027.308,1.965.806,2.761,1.455.739.604,1.356,1.339,1.804,2.174,2.25,4.191,6.208,13.536,6.208,27.522Z" style="fill:none; stroke:#a6abb0; stroke-linecap:round; stroke-linejoin:round; stroke-width:.5px;"/><path d="m190.854,62.52c0,13.954-3.943,23.259-6.178,27.422-.898,1.655-2.494,2.914-4.416,3.508-3.686,1.104-10.589,2.822-18.177,2.822-7.711,0-12.595-.237-14.889-.39-.536-.039-1.034-.222-1.439-.515-.363-.262-.652-.614-.822-1.024l-.192-.443c-1.563.291-12.196,2.21-24.546,2.914-13.364.78-14.408.781-22.842-2.848-3.774-1.614-6.526-2.891-8.413-5.75-.694-1.052-1.267-2.311-1.735-3.869-1.29-4.298-1.792-10.913-1.792-21.825s.501-17.507,1.789-21.803c.468-1.56,1.04-2.82,1.734-3.873,1.887-2.864,4.64-4.145,8.417-5.768,8.435-3.613,9.478-3.612,22.842-2.848,12.35.72,22.984,2.64,24.547,2.931,0,0,.192-.443.189-.437.173-.427.466-.787.836-1.051.404-.289.899-.464,1.428-.493,2.292-.153,7.176-.39,14.887-.39,7.588,0,14.491,1.718,18.177,2.822.996.299,1.905.781,2.675,1.41.715.584,1.31,1.294,1.742,2.099,2.234,4.162,6.178,13.467,6.178,27.404Z" style="fill:none; stroke:#a6abb0; stroke-linecap:round; stroke-linejoin:round; stroke-width:.5px;"/></g><path d="m190.604,62.52c0,13.905-3.929,23.17-6.148,27.302-.864,1.592-2.405,2.811-4.268,3.387-3.675,1.101-10.552,2.811-18.106,2.811-7.706,0-12.584-.237-14.871-.39-.932-.068-1.728-.61-2.049-1.389l-.271-.627s-11.348,2.185-24.711,2.947c-13.346.779-14.346.779-22.729-2.828-9.027-3.862-11.788-5.64-11.788-31.215s2.761-27.336,11.788-31.215c8.384-3.591,9.383-3.591,22.729-2.829,13.363.779,24.711,2.964,24.711,2.964l.271-.627c.322-.796,1.118-1.338,2.049-1.389,2.286-.152,7.164-.39,14.871-.39,7.554,0,14.43,1.711,18.106,2.811,1.863.559,3.404,1.778,4.268,3.387,2.219,4.133,6.148,13.397,6.148,27.286Z" style="fill:none; stroke:#a6abb0; stroke-linecap:round; stroke-linejoin:round; stroke-width:.5px;"/><path d="m155.637,29.102c7.549,0,14.433,1.645,18.101,2.751,1.867.563,3.404,1.781,4.266,3.381,1.511,2.806,3.811,7.981,5.13,15.367.139.78.066,1.583-.218,2.331l-1.232,3.248c-.191.504-.289,1.033-.289,1.565v4.784s0,4.784,0,4.784c0,.533.098,1.062.289,1.565l1.232,3.248c.284.747.357,1.551.218,2.331-1.32,7.387-3.619,12.562-5.13,15.367-.862,1.6-2.399,2.818-4.266,3.381-3.668,1.106-10.553,2.751-18.101,2.751" style="fill:none; stroke:#a6abb0; stroke-linecap:round; stroke-linejoin:round; stroke-width:.5px;"/><path d="m152.439,41.489s5.515.7,9.212,1.214c3.697.514,5.966,3.768,5.966,19.826,0,16.058-2.269,19.312-5.966,19.826s-9.212,1.214-9.212,1.214" style="fill:none; stroke:#a6abb0; stroke-linecap:round; stroke-linejoin:round; stroke-width:.5px;"/><path d="m183.049,50.488l-2.33-1.336c-.517-.297-1.117-.454-1.73-.454h-6.616c-.917,0-1.792.353-2.404.97l-1.02,1.028c-.857.864-1.332,1.984-1.332,3.145v8.688s0,8.688,0,8.688c0,1.161.474,2.281,1.332,3.145l1.02,1.028c.613.618,1.487.97,2.404.97h6.616c.613,0,1.213-.158,1.73-.454l2.33-1.336" style="fill:none; stroke:#a6abb0; stroke-linecap:round; stroke-linejoin:round; stroke-width:.5px;"/><path d="m88.311,86.587c2.058.025,4.118.046,6.179.062,5.615.044,26.525.175,32.409-.269,6.818-.514,7.765-1.456,10.606-4.453,3.711-3.915,3.788-5.053,3.788-19.398,0-14.345-.077-15.483-3.788-19.398-2.841-2.997-3.788-3.94-10.606-4.453-5.885-.444-26.794-.313-32.409-.269-2.061.016-4.12.037-6.179.062" style="fill:none; stroke:#a6abb0; stroke-linecap:round; stroke-linejoin:round; stroke-width:.5px;"/><path d="m169.916,49.721l-3.868-12.861c-.179-.595-.111-1.228.192-1.781l1.718-3.14c.437-.799,1.439-1.206,2.389-.971l2.322.573" style="fill:none; stroke:#a6abb0; stroke-linecap:round; stroke-linejoin:round; stroke-width:.5px;"/><path d="m189.023,62.529c0-3.4-.262-6.143-.262-6.143l-2.954,2.295-.029,3.848.029,3.848,2.954,2.295s.262-2.744.262-6.143Z" style="fill:none; stroke:#a6abb0; stroke-linecap:round; stroke-linejoin:round; stroke-width:.5px;"/><path d="m177.123,73.611c-.04-.181-.268-.314-.537-.314h-2.912c-.268,0-.496.133-.537.314l-.284,1.27c-.024.106.022.215.125.296s.254.129.412.129h3.479c.158,0,.309-.047.412-.129s.149-.19.125-.296l-.284-1.27Z" style="fill:none; stroke:#a6abb0; stroke-linecap:round; stroke-linejoin:round; stroke-width:.5px;"/><path d="m177.123,51.447c-.04.181-.268.314-.537.314h-2.912c-.268,0-.496-.133-.537-.314l-.284-1.27c-.024-.106.022-.215.125-.296s.254-.129.412-.129h3.479c.158,0,.309.047.412.129s.149.19.125.296l-.284,1.27Z" style="fill:none; stroke:#a6abb0; stroke-linecap:round; stroke-linejoin:round; stroke-width:.5px;"/><path d="m170.411,158.612l-3.868-12.861c-.179-.595-.111-1.228.192-1.781l1.718-3.14c.437-.799,1.439-1.206,2.389-.971l2.322.573" style="fill:none; stroke:#a6abb0; stroke-linecap:round; stroke-linejoin:round; stroke-width:.5px;"/><path d="m87.7,150.514c1.661-6.417,4.82-7.987,10.232-10.31,8.38-3.597,9.386-3.597,22.737-2.826s24.715,2.955,24.715,2.955" style="fill:none; stroke:#a6abb0; stroke-linecap:round; stroke-linejoin:round; stroke-width:.5px;"/><g id="uuid-0f8f685f-e500-48ed-b359-f82b1789a271"><path d="m86.094,157.685c-.139,1.64-.242,3.458-.314,5.48" style="fill:none; stroke:#a6abb0; stroke-linecap:round; stroke-linejoin:round; stroke-width:.5px;"/><path d="m86.343,157.706c-.138,1.635-.242,3.449-.313,5.468" style="fill:none; stroke:#a6abb0; stroke-linecap:round; stroke-linejoin:round; stroke-width:.5px;"/></g><path d="m86.592,157.727c-.138,1.63-.241,3.44-.312,5.455" style="fill:none; stroke:#a6abb0; stroke-linecap:round; stroke-linejoin:round; stroke-width:.5px;"/><g id="uuid-d5f776c2-ce07-4f78-931d-2d135bbdcbe8"><path d="m85.805,180.339c.081,2.047.197,3.879.352,5.524" style="fill:none; stroke:#a6abb0; stroke-linecap:round; stroke-linejoin:round; stroke-width:.5px;"/><path d="m86.055,180.329c.081,2.043.197,3.871.351,5.51" style="fill:none; stroke:#a6abb0; stroke-linecap:round; stroke-linejoin:round; stroke-width:.5px;"/></g><path d="m86.304,180.319c.081,2.04.197,3.863.35,5.497" style="fill:none; stroke:#a6abb0; stroke-linecap:round; stroke-linejoin:round; stroke-width:.5px;"/><path d="m145.385,202.509s-11.363,2.184-24.715,2.955c-13.352.771-14.357.771-22.737-2.826-5.175-2.221-8.291-3.754-10.005-9.495" style="fill:none; stroke:#a6abb0; stroke-linecap:round; stroke-linejoin:round; stroke-width:.5px;"/><path d="m152.487,171.42c0,11.176.447,21.04.447,21.04-3.578,2.73-6.274,6.076-7.466,7.679-.429.576-.524,1.305-.254,1.955l.431,1.04c.326.786,1.13,1.329,2.056,1.389,2.284.148,7.163.387,14.869.387,7.549,0,14.433-1.707,18.101-2.813,1.867-.563,3.404-1.781,4.266-3.381,2.225-4.131,6.158-13.397,6.158-27.295,0-13.898-3.933-23.165-6.158-27.295-.862-1.6-2.399-2.818-4.266-3.381-3.668-1.106-10.553-2.813-18.101-2.813-7.706,0-12.585.239-14.869.387-.926.06-1.73.603-2.056,1.389l-.431,1.04c-.27.65-.175,1.379.254,1.955,1.192,1.603,3.889,4.949,7.466,7.679,0,0-.447,9.864-.447,21.04Z" style="fill:none; stroke:#a6abb0; stroke-linecap:round; stroke-linejoin:round; stroke-width:.5px;"/><g id="uuid-c957613b-9491-44fb-9294-baff42742ab9"><path d="m87.437,193.241c.672,2.268,1.566,3.929,2.733,5.241,1.867,2.101,4.388,3.251,7.578,4.621,8.486,3.634,9.573,3.632,22.955,2.868,11.932-.696,22.266-2.51,24.382-2.896,0,0,.112.258.107.247.192.474.516.871.923,1.161.443.317.984.508,1.557.539,2.299.153,7.188.391,14.904.391,7.623,0,14.551-1.725,18.249-2.833,1.027-.308,1.965-.806,2.761-1.455.739-.604,1.356-1.339,1.804-2.174,2.25-4.191,6.208-13.536,6.208-27.522,0-14.003-3.957-23.348-6.209-27.541-.932-1.717-2.583-3.016-4.564-3.628-3.698-1.108-10.627-2.833-18.249-2.833-7.716,0-12.605.237-14.907.391-.581.042-1.124.241-1.568.561-.398.287-.718.675-.905,1.128l-.113.26c-2.115-.388-12.449-2.201-24.381-2.881-13.382-.781-14.47-.783-22.955,2.868-3.161,1.352-5.666,2.49-7.529,4.554-1.143,1.267-2.028,2.862-2.7,5.024-.11.352-.209.705-.299,1.059" style="fill:none; stroke:#a6abb0; stroke-linecap:round; stroke-linejoin:round; stroke-width:.5px;"/><path d="m87.677,193.17c.664,2.241,1.543,3.867,2.68,5.146,1.825,2.053,4.292,3.184,7.49,4.557,8.435,3.613,9.478,3.612,22.842,2.848,12.35-.72,22.984-2.64,24.547-2.931,0,0,.192.443.189.437.173.427.466.787.836,1.051.404.289.899.464,1.428.493,2.292.153,7.176.39,14.887.39,7.588,0,14.491-1.718,18.177-2.822.996-.299,1.905-.781,2.675-1.41.715-.584,1.31-1.294,1.742-2.099,2.234-4.162,6.178-13.467,6.178-27.404,0-13.954-3.943-23.259-6.178-27.422-.898-1.655-2.494-2.914-4.416-3.508-3.686-1.104-10.589-2.822-18.177-2.822-7.711,0-12.595.237-14.889.39-.536.039-1.034.222-1.439.515-.363.262-.652.614-.822,1.024l-.192.443c-1.563-.291-12.196-2.21-24.546-2.914-13.364-.78-14.408-.781-22.842,2.848-3.169,1.356-5.621,2.475-7.441,4.492-1.114,1.235-1.983,2.796-2.647,4.931-.108.348-.207.697-.296,1.046" style="fill:none; stroke:#a6abb0; stroke-linecap:round; stroke-linejoin:round; stroke-width:.5px;"/></g><path d="m87.916,193.099c1.712,5.776,4.832,7.312,10.028,9.545,8.384,3.591,9.383,3.591,22.729,2.829,13.363-.779,24.711-2.964,24.711-2.964l.271.627c.322.796,1.118,1.338,2.049,1.389,2.286.152,7.164.39,14.871.39,7.554,0,14.43-1.711,18.106-2.811,1.863-.559,3.404-1.778,4.268-3.387,2.219-4.133,6.148-13.397,6.148-27.286,0-13.905-3.929-23.17-6.148-27.302-.864-1.592-2.405-2.811-4.268-3.387-3.675-1.101-10.552-2.811-18.106-2.811-7.706,0-12.584.237-14.871.39-.932.068-1.728.61-2.049,1.389l-.271.627s-11.348-2.185-24.711-2.947c-13.346-.779-14.346-.779-22.729,2.828-5.116,2.188-8.219,3.708-9.948,9.267-.107.344-.204.688-.292,1.033" style="fill:none; stroke:#a6abb0; stroke-linecap:round; stroke-linejoin:round; stroke-width:.5px;"/><path d="m156.131,204.848c7.549,0,14.433-1.645,18.101-2.751,1.867-.563,3.404-1.781,4.266-3.381,1.511-2.806,3.811-7.981,5.13-15.367.139-.78.066-1.583-.218-2.331l-1.232-3.248c-.191-.504-.289-1.033-.289-1.565v-4.784s0-4.784,0-4.784c0-.533.098-1.062.289-1.565l1.232-3.248c.284-.747.357-1.551.218-2.331-1.32-7.387-3.619-12.562-5.13-15.367-.862-1.6-2.399-2.818-4.266-3.381-3.668-1.106-10.553-2.751-18.101-2.751" style="fill:none; stroke:#a6abb0; stroke-linecap:round; stroke-linejoin:round; stroke-width:.5px;"/><path d="m152.934,192.46s5.515-.7,9.212-1.214c3.697-.514,5.966-3.768,5.966-19.826s-2.269-19.312-5.966-19.826c-3.697-.514-9.212-1.214-9.212-1.214" style="fill:none; stroke:#a6abb0; stroke-linecap:round; stroke-linejoin:round; stroke-width:.5px;"/><path d="m183.544,183.461l-2.33,1.336c-.517.297-1.117.454-1.73.454h-6.616c-.917,0-1.792-.353-2.404-.97l-1.02-1.028c-.857-.864-1.332-1.984-1.332-3.145v-8.688s0-8.688,0-8.688c0-1.161.474-2.281,1.332-3.145l1.02-1.028c.613-.618,1.487-.97,2.404-.97h6.616c.613,0,1.213.158,1.73.454l2.33,1.336" style="fill:none; stroke:#a6abb0; stroke-linecap:round; stroke-linejoin:round; stroke-width:.5px;"/><path d="m88.805,147.362c2.058-.025,4.118-.046,6.179-.062,5.615-.044,26.525-.175,32.409.269,6.818.514,7.765,1.456,10.606,4.453,3.711,3.915,3.788,5.053,3.788,19.398s-.077,15.483-3.788,19.398c-2.841,2.997-3.788,3.94-10.606,4.453-5.885.444-26.794.313-32.409.269-2.061-.016-4.12-.037-6.179-.062" style="fill:none; stroke:#a6abb0; stroke-linecap:round; stroke-linejoin:round; stroke-width:.5px;"/><path d="m170.411,184.228l-3.868,12.861c-.179.595-.111,1.228.192,1.781l1.718,3.14c.437.799,1.439,1.206,2.389.971l2.322-.573" style="fill:none; stroke:#a6abb0; stroke-linecap:round; stroke-linejoin:round; stroke-width:.5px;"/><path d="m189.517,171.42c0,3.4-.262,6.143-.262,6.143l-2.954-2.295-.029-3.848.029-3.848,2.954-2.295s.262,2.744.262,6.143Z" style="fill:none; stroke:#a6abb0; stroke-linecap:round; stroke-linejoin:round; stroke-width:.5px;"/><path d="m177.617,160.338c-.04.181-.268.314-.537.314h-2.912c-.268,0-.496-.133-.537-.314l-.284-1.27c-.024-.106.022-.215.125-.296s.254-.129.412-.129h3.479c.158,0,.309.047.412.129s.149.19.125.296l-.284,1.27Z" style="fill:none; stroke:#a6abb0; stroke-linecap:round; stroke-linejoin:round; stroke-width:.5px;"/><path d="m177.617,182.502c-.04-.181-.268-.314-.537-.314h-2.912c-.268,0-.496.133-.537.314l-.284,1.27c-.024.106.022.215.125.296s.254.129.412.129h3.479c.158,0,.309-.047.412-.129s.149-.19.125-.296l-.284-1.27Z" style="fill:none; stroke:#a6abb0; stroke-linecap:round; stroke-linejoin:round; stroke-width:.5px;"/><path d="m48.182,12.631c1.23.368,2.522.85,3.977,1.477,4.255,1.835,6.311,7.539,6.75,12.152.597,6.27,3.491,37.128,3.946,49.504.187,5.098,1.182,5.732,4.331,8.315,3.945,3.235,3.808,5.614,3.875,7.803.418,13.676.109,28.2,0,42.489-.077,10.07-12.02,5.474-12.02,18.016,0,1.766-.005,3.124-.015,4.829" style="fill:none; stroke:#a6abb0; stroke-linejoin:round;"/><path d="m47.647,220.55c.609-.237,1.244-.499,1.912-.788,4.255-1.835,6.311-7.539,6.75-12.152.308-3.232.807-12.761,1.448-21.32" style="fill:none; stroke:#a6abb0; stroke-linejoin:round;"/><path d="m83.368,152.99c1.415,1.133,2.771,3.163,3.831,5.83.463,1.163.698,2.403.698,3.686v1.159" style="fill:none; stroke:#a6abb0; stroke-linecap:round; stroke-linejoin:round; stroke-width:.5px;"/><path d="m79.406,191.042c-2.077-1.04-7.076-6.52-7.076-19.357,0-9.952,3.513-17.685,7.112-19.369" style="fill:none; stroke:#a6abb0; stroke-linecap:round; stroke-linejoin:round; stroke-width:.5px;"/><path d="m87.897,179.705v1.159c0,1.266-.241,2.541-.696,3.686-1.063,2.674-2.423,4.706-3.841,5.837" style="fill:none; stroke:#a6abb0; stroke-linecap:round; stroke-linejoin:round; stroke-width:.5px;"/><path d="m85.271,180.399l2.77-.732c.415-.11.798-.35,1.109-.696l.652-.724c.346-.385.543-.924.543-1.489v-10.146c0-.565-.197-1.104-.543-1.489l-.652-.724c-.311-.346-.694-.586-1.109-.696l-2.859-.756" style="fill:none; stroke:#a6abb0; stroke-linecap:round; stroke-linejoin:round; stroke-width:.5px;"/><path d="m73.934,182.762l2.804.942c.686.231,1.21.84,1.379,1.603.349,1.572.935,4.216,1.17,5.273.344,1.549.837,1.717,1.587,1.971l1.435.488c1.114.378,1.248-.446,1.081-2.302-.167-1.856-.376-4.188-.438-4.881-.112-1.243.072-2.365.735-3.277l1.494-2.055c.756-1.039,1.164-2.321,1.164-3.649v-10.278c0-1.325-.41-2.612-1.164-3.649-.561-.771-1.178-1.621-1.494-2.055-.663-.912-.846-2.033-.735-3.277.062-.693.271-3.025.438-4.881.167-1.856.032-2.681-1.081-2.302l-1.435.488c-.749.255-1.243.423-1.587,1.971-.256,1.153-.931,4.194-1.259,5.673-.114.514-.469.926-.931,1.082-.619.208-1.652.555-3.199,1.075" style="fill:none; stroke:#a6abb0; stroke-linecap:round; stroke-linejoin:round; stroke-width:.5px;"/><path d="m73.302,180.357l7.364,2.064c.845.139,1.691-.248,2.21-1.012l1.782-2.623c.408-.6.629-1.335.629-2.091v-10.021c0-.756-.221-1.491-.629-2.091l-1.782-2.623c-.519-.764-1.365-1.151-2.21-1.012l-7.364,2.064" style="fill:none; stroke:#a6abb0; stroke-linecap:round; stroke-linejoin:round; stroke-width:.5px;"/><polygon points="82.217 174.641 80.988 171.685 82.217 168.73 83.556 171.685 82.217 174.641" style="fill:none; stroke:#a6abb0; stroke-linecap:round; stroke-linejoin:round; stroke-width:.5px;"/><g id="uuid-24b919e4-bcc9-4a60-b7e9-a9e1ef597d1e"><path d="m74.691,159.929c.845-2.405,1.906-4.319,3.032-5.607.311-.355.624-.66.935-.912-.188.839-.515,2.326-1.115,5.047-.041.187-.128.351-.242.478-.103.114-.225.194-.361.238-.482.165-1.217.412-2.249.757Zm12.71,3.09l-1.915-.507c-.53-.731-1.096-1.51-1.393-1.913-.57-.784-.747-1.767-.64-2.935.021-.226.056-.621.1-1.115.063-.702.143-1.603.224-2.503,1.071,1.123,2.104,2.812,2.957,4.963.444,1.103.667,2.28.667,3.496v.515Zm-3.63,26.312c-.134-1.501-.269-2.995-.318-3.519-.107-1.176.07-2.16.638-2.94.314-.427.924-1.26,1.49-2.04l1.82-.481v.515c0,1.201-.23,2.409-.66,3.498-.858,2.148-1.897,3.842-2.97,4.967Zm-5.14.599c-.368-.306-.801-.734-1.265-1.324-.84-1.068-1.786-2.67-2.632-5.048.81.271,1.842.617,1.843.618.245.083.465.231.644.43.195.217.341.494.413.808.326,1.473.563,2.549.737,3.339.109.494.193.878.26,1.178Zm-2.22,5.998c1.307.792,2.714,1.229,4.185,1.229,1.639,0,3.2-.541,4.63-1.512,2.519-1.709,4.651-4.759,6.188-8.628.728-1.831,1.094-3.822,1.094-5.811v-19.043c0-2.005-.367-3.966-1.094-5.811-1.538-3.869-3.67-6.918-6.188-8.628-1.43-.97-2.99-1.512-4.63-1.512-1.471,0-2.878.436-4.185,1.229-2.118,1.284-3.976,3.505-5.461,6.353-2.4,4.604-3.87,10.929-3.87,17.89,0,6.961,1.47,13.287,3.87,17.89,1.485,2.848,3.343,5.069,5.461,6.353Z" style="fill:none; stroke:#a6abb0; stroke-linecap:round; stroke-linejoin:round; stroke-width:.5px;"/><path d="m74.291,160.326c.877-2.65,2.016-4.764,3.244-6.169.498-.569,1.006-1.017,1.513-1.337-.143.615-.456,2.04-1.261,5.69-.05.229-.157.432-.301.591-.13.143-.288.249-.466.307-.554.189-1.442.488-2.729.917Zm13.36,3.018l-2.315-.613c-.545-.752-1.138-1.568-1.445-1.985-.618-.849-.797-1.901-.687-3.105.021-.225.056-.621.1-1.115.075-.839.175-1.963.272-3.03,1.239,1.141,2.432,3.003,3.39,5.418.457,1.134.685,2.343.685,3.59v.84Zm-4.082,26.537c-.148-1.664-.31-3.46-.365-4.046-.11-1.212.069-2.263.686-3.111.318-.432.939-1.279,1.504-2.059.007-.01.014-.021.023-.033.004-.005.008-.011.012-.018l2.222-.587v.84c0,1.232-.236,2.471-.678,3.59-.964,2.414-2.163,4.282-3.404,5.424Zm-4.548.65c-.466-.303-1.124-.845-1.852-1.77-.915-1.163-1.943-2.934-2.837-5.601.797.267,2.325.779,2.326.779.287.098.543.27.749.499.224.249.39.565.471.921.326,1.473.563,2.549.737,3.339.214.97.333,1.512.406,1.832Zm-2.481,5.184c1.273.772,2.636,1.193,4.055,1.193,1.582,0,3.094-.522,4.489-1.469,2.462-1.671,4.569-4.67,6.096-8.513.716-1.8,1.076-3.76,1.076-5.719v-19.043c0-1.974-.361-3.904-1.076-5.719-1.527-3.843-3.634-6.842-6.096-8.513-1.395-.947-2.907-1.469-4.489-1.469-1.419,0-2.782.421-4.055,1.193-2.066,1.253-3.897,3.432-5.369,6.255-2.378,4.561-3.842,10.846-3.842,17.775s1.464,13.213,3.842,17.775c1.472,2.823,3.302,5.002,5.369,6.255Z" style="fill:none; stroke:#a6abb0; stroke-linecap:round; stroke-linejoin:round; stroke-width:.5px;"/></g><path d="m90.949,156.537c-2.375-5.975-6.133-9.824-10.353-9.824-7.185,0-13.016,11.178-13.016,24.972s5.831,24.972,13.016,24.972c4.22,0,7.979-3.849,10.353-9.824.703-1.77,1.059-3.698,1.059-5.627v-19.043c0-1.944-.355-3.842-1.059-5.627Zm-3.751,2.284c.469,1.165.703,2.405.703,3.683v1.165l-2.715-.718c-.56-.771-1.18-1.626-1.497-2.057-.666-.915-.847-2.034-.734-3.275.061-.666.25-2.813.416-4.628,1.414,1.134,2.768,3.161,3.827,5.831Zm-7.752-6.504c-.103.285-.037.001-1.414,6.247-.113.514-.469.93-.93,1.081-.62.212-1.656.56-3.199,1.074,1.361-4.364,3.433-7.419,5.543-8.402Zm-5.506,30.448l2.798.938c.688.234,1.21.84,1.384,1.603,1.239,5.602,1.196,5.455,1.286,5.725-.836-.371-3.519-2.119-5.468-8.266Zm13.961-1.898c0,1.263-.242,2.534-.696,3.683-1.066,2.67-2.428,4.704-3.842,5.838-.159-1.785-.348-3.887-.408-4.53-.113-1.248.068-2.367.734-3.282.318-.431.938-1.278,1.497-2.049.03-.045.061-.083.083-.129l2.632-.696v1.165Z" style="fill:none; stroke:#a6abb0; stroke-linecap:round; stroke-linejoin:round; stroke-width:.5px;"/><path d="m65.568,88.727c.652,0,1.168.515,1.168,1.168v46.924c0,.652-.515,1.168-1.168,1.168h-12.26c-.635,0-1.168-.515-1.168-1.168v-46.924c0-.652.532-1.168,1.168-1.168h12.26Z" style="fill:none; stroke:#a6abb0; stroke-linecap:round; stroke-linejoin:round; stroke-width:.5px;"/><path d="m54.494,88.727c-.644,0-1.166.522-1.166,1.166v46.928c0,.644.522,1.166,1.166,1.166" style="fill:none; stroke:#a6abb0; stroke-linecap:round; stroke-linejoin:round; stroke-width:.5px;"/><rect x="45.355" y="148.408" width="6.158" height="43.43" rx=".816" ry=".816" style="fill:none; stroke:#a6abb0; stroke-linecap:round; stroke-linejoin:round; stroke-width:.5px;"/><path d="m47.36,148.408c-.451,0-.816.365-.816.816v41.798c0,.451.365.816.816.816" style="fill:none; stroke:#a6abb0; stroke-linecap:round; stroke-linejoin:round; stroke-width:.5px;"/><path d="m45.788,198.051l-2.919-3.54c-1.099-1.333-1.704-3.018-1.704-4.744v-40.215c0-1.355.516-2.642,1.451-3.622l5.16-5.405" style="fill:none; stroke:#a6abb0; stroke-linecap:round; stroke-linejoin:round; stroke-width:.5px;"/><path d="m48.145,218.206l.992-18.866c.059-1.126-.306-2.234-1.023-3.105l-2.969-3.601c-.666-.807-1.03-1.821-1.03-2.868v-40.215c0-.591.228-1.159.636-1.586l5.159-5.405c.801-.839,1.247-1.954,1.247-3.113v-26.091c0-71.694-3.513-100.88-3.513-100.88" style="fill:none; stroke:#a6abb0; stroke-linecap:round; stroke-linejoin:round; stroke-width:.5px;"/><path d="m62.138,137.986v1.454c0,1.01-.355,1.987-1.003,2.762l-3.779,4.518c-.648.775-1.003,1.752-1.003,2.762v7.715" style="fill:none; stroke:#a6abb0; stroke-linecap:round; stroke-linejoin:round; stroke-width:.5px;"/><g id="uuid-2e45ef24-5580-4b4e-b9d2-15155cb19f91"><path d="m69.762,156.942l-1.989.627-1.233-.643h-2.516l6.011-8.543c.089-.126.15-.268.182-.416s.034-.302.004-.454-.089-.294-.174-.419-.194-.234-.324-.318l-1.565-1.014c-.254-.165-.551-.215-.827-.163s-.535.206-.712.452l-7.848,10.876h-7.258" style="fill:none; stroke:#a6abb0; stroke-linecap:round; stroke-linejoin:round; stroke-width:.5px;"/><path d="m69.837,157.18l-2.088.658-1.271-.663h-2.936l6.288-8.937c.069-.098.117-.209.142-.324s.026-.236.003-.354-.069-.229-.135-.327-.152-.182-.253-.248l-1.565-1.014c-.198-.128-.429-.168-.645-.127s-.417.161-.555.352l-7.923,10.98h-7.386" style="fill:none; stroke:#a6abb0; stroke-linecap:round; stroke-linejoin:round; stroke-width:.5px;"/></g><path d="m69.912,157.419l-2.187.689-1.308-.683h-3.356l6.565-9.331c.099-.141.137-.317.104-.487s-.133-.319-.279-.413l-1.565-1.014c-.284-.184-.663-.113-.862.162l-7.998,11.084h-7.514" style="fill:none; stroke:#a6abb0; stroke-linecap:round; stroke-linejoin:round; stroke-width:.5px;"/><g id="uuid-8a75d62e-b684-4b8a-8d0e-e6c73e078949"><path d="m51.513,186.445h6.623l8.618,12.019c.091.127.207.233.339.312s.279.131.435.152.312.009.46-.033.287-.114.409-.213l1.798-1.468c.233-.19.372-.455.408-.732s-.029-.569-.205-.813l-6.658-9.224h2.801l1.233-.643,1.989.627" style="fill:none; stroke:#a6abb0; stroke-linecap:round; stroke-linejoin:round; stroke-width:.5px;"/><path d="m51.513,186.195h6.751l8.693,12.124c.071.099.162.182.264.243s.218.102.339.119.243.007.358-.026.224-.089.319-.166l1.798-1.468c.182-.148.29-.355.318-.571s-.023-.444-.16-.634l-6.944-9.621h3.229l1.271-.663,2.088.658" style="fill:none; stroke:#a6abb0; stroke-linecap:round; stroke-linejoin:round; stroke-width:.5px;"/></g><path d="m51.513,185.945h6.879l8.768,12.228c.102.143.259.237.433.26s.35-.027.486-.138l1.798-1.468c.261-.213.311-.592.114-.865l-7.231-10.017h3.656l1.308-.683,2.187.689" style="fill:none; stroke:#a6abb0; stroke-linecap:round; stroke-linejoin:round; stroke-width:.5px;"/><path d="m69.912,185.952l-4.296-1.354c-1.378-.434-2.315-1.712-2.315-3.157v-9.756s0-9.756,0-9.756c0-1.445.937-2.723,2.315-3.157l4.296-1.354" style="fill:none; stroke:#a6abb0; stroke-linecap:round; stroke-linejoin:round; stroke-width:.5px;"/><path d="m63.061,157.425c-.352.541-1.11.877-2.455.877s-1.974-.33-1.579-.877" style="fill:none; stroke:#a6abb0; stroke-linecap:round; stroke-linejoin:round; stroke-width:.5px;"/><path d="m58.392,185.945c-.341-.397.759-.554,2.11-.554s1.875.024,2.258.554" style="fill:none; stroke:#a6abb0; stroke-linecap:round; stroke-linejoin:round; stroke-width:.5px;"/><path d="m48.295,19.37c-.048-.578.494-1.025,1.05-.874,0,0,.322.096,1.262.461,1.221.473,1.989,1.333,2.063,2.532" style="fill:none; stroke:#a6abb0; stroke-linecap:round; stroke-linejoin:round; stroke-width:.5px;"/><path d="m48.043,15.802c2.517.795,3.985,1.095,4.369,3.825,2.836,20.158,4.089,40.518,5.287,60.839.06,1.011.473,1.969,1.17,2.705l2.091,2.013c.757.8,1.179,1.859,1.179,2.96v.584" style="fill:none; stroke:#a6abb0; stroke-linecap:round; stroke-linejoin:round; stroke-width:.5px;"/><path d="m50.839,21.601s2.622,33.014,3.655,67.126" style="fill:none; stroke:#a6abb0; stroke-linecap:round; stroke-linejoin:round; stroke-width:.5px;"/><path d="m48.393,214.164c-.043.578.447,1.025.951.874,0,0,.322-.096,1.262-.461,1.221-.473,1.989-1.333,2.063-2.532" style="fill:none; stroke:#a6abb0; stroke-linecap:round; stroke-linejoin:round; stroke-width:.5px;"/><path d="m48.145,218.206c2.737-1.263,3.888-1.602,4.267-4.299,1.306-9.285,2.277-18.614,3.061-27.962" style="fill:none; stroke:#a6abb0; stroke-linecap:round; stroke-linejoin:round; stroke-width:.5px;"/><path d="m50.839,211.933s.842-10.597,1.759-25.988" style="fill:none; stroke:#a6abb0; stroke-linecap:round; stroke-linejoin:round; stroke-width:.5px;"/><path d="m279.014,220.767l-2.274-6.258c-.793-2.182-2.805-3.626-5.053-3.626h-59.955c-2.26,0-4.281,1.46-5.065,3.66l-2.255,6.33" style="fill:none; stroke:#a6abb0; stroke-miterlimit:10;"/><path d="m205.248,218.527h36.436c1.012,0,1.969-.48,2.597-1.304l3.838-5.035c.628-.824,1.585-1.304,2.597-1.304h11.463" style="fill:none; stroke:#a6abb0; stroke-miterlimit:10; stroke-width:.5px;"/><path d="m225.626,218.527v-2.892c0-.711.556-1.288,1.241-1.288h19.607" style="fill:none; stroke:#a6abb0; stroke-miterlimit:10; stroke-width:.5px;"/><path d="m279.014,220.767l-2.274-6.258c-.793-2.182-2.805-3.626-5.053-3.626h-59.955c-2.26,0-4.281,1.46-5.065,3.66l-2.255,6.33" style="fill:none; stroke:#a6abb0; stroke-linecap:round; stroke-linejoin:round; stroke-width:.5px;"/><path d="m205.248,218.527h36.436c1.012,0,1.969-.48,2.597-1.304l3.838-5.035c.628-.824,1.585-1.304,2.597-1.304h11.463" style="fill:none; stroke:#a6abb0; stroke-linecap:round; stroke-linejoin:round; stroke-width:.5px;"/><path d="m225.626,218.527v-2.892c0-.711.556-1.288,1.241-1.288h19.607" style="fill:none; stroke:#a6abb0; stroke-linecap:round; stroke-linejoin:round; stroke-width:.5px;"/><path d="m150.429,220.95l-2.431-7.833c-.483-1.556-1.922-2.616-3.551-2.616h-62.46c-2.26,0-4.281,1.46-5.065,3.66l-2.458,6.898" style="fill:none; stroke:#a6abb0; stroke-miterlimit:10;"/><path d="m74.356,221.054h34.859c1.362,0,2.649-.646,3.494-1.755l5.37-7.044c.845-1.108,2.132-1.755,3.494-1.755h15.421" style="fill:none; stroke:#a6abb0; stroke-linecap:round; stroke-linejoin:round; stroke-width:.5px;"/><path d="m96.195,220.784v-3.89c0-.957.748-1.732,1.67-1.732h17.998" style="fill:none; stroke:#a6abb0; stroke-linecap:round; stroke-linejoin:round; stroke-width:.5px;"/><path d="m82.741,213.347c-1.077,0-2.038.674-2.405,1.687l-.863,2.38c-.121.334-.072.706.132.997s.537.464.892.464h11.176c.602,0,1.09-.488,1.09-1.09v-3.349c0-.602-.488-1.09-1.09-1.09h-8.932Z" style="fill:none; stroke:#a6abb0; stroke-linecap:round; stroke-linejoin:round; stroke-width:.5px;"/><line x1="89.308" y1="218.875" x2="89.308" y2="213.347" style="fill:none; stroke:#a6abb0; stroke-linecap:round; stroke-linejoin:round; stroke-width:.5px;"/><line x1="86.613" y1="218.875" x2="86.613" y2="213.347" style="fill:none; stroke:#a6abb0; stroke-linecap:round; stroke-linejoin:round; stroke-width:.5px;"/><line x1="83.434" y1="218.875" x2="83.434" y2="213.347" style="fill:none; stroke:#a6abb0; stroke-linecap:round; stroke-linejoin:round; stroke-width:.5px;"/><line x1="83.434" y1="216.18" x2="86.613" y2="216.18" style="fill:none; stroke:#a6abb0; stroke-linecap:round; stroke-linejoin:round; stroke-width:.5px;"/><line x1="89.308" y1="216.18" x2="92.763" y2="216.18" style="fill:none; stroke:#a6abb0; stroke-linecap:round; stroke-linejoin:round; stroke-width:.5px;"/><path d="m35.817,116.384v10.84c0,1.609-.584,3.164-1.643,4.376l-5.297,6.061c-5.775,7.447-8.662,8.359-6.383,28.115,1.221,10.582,3.576,28.034,5.499,41.961" style="fill:none; stroke:#a6abb0; stroke-linecap:round; stroke-linejoin:round; stroke-width:.5px;"/><path d="m31.992,207.737l-.39-5.329c-.084-1.146.595-2.211,1.669-2.618l5.565-2.111c.887-.337,1.887-.162,2.609.454l3.492,2.984c.578.494.91,1.215.91,1.975v10.804" style="fill:none; stroke:#a6abb0; stroke-linecap:round; stroke-linejoin:round; stroke-width:.5px;"/><path d="m35.815,116.384v-10.84c0-1.609-.584-3.164-1.643-4.376l-5.297-6.061c-5.775-7.447-8.662-8.359-6.383-28.115,1.232-10.678,3.619-28.352,5.552-42.341" style="fill:none; stroke:#a6abb0; stroke-linecap:round; stroke-linejoin:round; stroke-width:.5px;"/><path d="m7.056,163.531c-.166-.91.048-1.848.592-2.596l3.111-4.278c.532-.732.749-1.646.602-2.539-.72-4.371-3.306-13.8-3.306-37.923,0-24.123,2.586-33.552,3.306-37.923.147-.893-.07-1.807-.602-2.539l-3.111-4.278c-.544-.748-.758-1.686-.592-2.596" style="fill:none; stroke:#a6abb0; stroke-linecap:round; stroke-linejoin:round; stroke-width:.5px;"/><path d="m32.019,24.652l-.418,5.709c-.084,1.146.595,2.211,1.669,2.618l5.565,2.111c.887.337,1.887.162,2.609-.454l3.492-2.984c.578-.494.91-1.215.91-1.975v-5.025" style="fill:none; stroke:#a6abb0; stroke-linecap:round; stroke-linejoin:round; stroke-width:.5px;"/><path d="m297.789,209c-9.043,0-14.21-1.28-31.535-1.128-17.325.152-75.834.608-95.591.608-40.525,0-75.985-.271-105.594-.329l-8.761-.017" style="fill:none; stroke:#a6abb0; stroke-linecap:round; stroke-linejoin:round; stroke-width:.5px;"/><path d="m186.854,220.898l-.135-1.133c-.153-1.283-.491-4.101-.696-5.739-.271-2.17.949-3.12,9.63-3.12,6.103,0,16.08-.023,16.08-.023" style="fill:none; stroke:#a6abb0; stroke-linecap:round; stroke-linejoin:round; stroke-width:.5px;"/><line x1="195.652" y1="210.906" x2="195.652" y2="208.383" style="fill:none; stroke:#a6abb0; stroke-linecap:round; stroke-linejoin:round; stroke-width:.5px;"/><path d="m206.405,215.28s-6.437,0-9.924,0c-3.486,0-5.692.309-6.371-2.205-.601-2.224.944-2.116,3.243-2.143" style="fill:none; stroke:#a6abb0; stroke-linecap:round; stroke-linejoin:round; stroke-width:.5px;"/><line x1="54.524" y1="214.391" x2="76.843" y2="214.383" style="fill:none; stroke:#a6abb0; stroke-linecap:round; stroke-linejoin:round; stroke-width:.5px;"/><path d="m278.741,12.754l-2,5.505c-.793,2.182-2.805,3.626-5.053,3.626h-59.955c-2.26,0-4.281-1.46-5.065-3.66l-2.164-6.074" style="fill:none; stroke:#a6abb0; stroke-miterlimit:10;"/><path d="m205.248,14.242h36.436c1.012,0,1.969.48,2.597,1.304l3.838,5.035c.628.824,1.585,1.304,2.597,1.304h11.463" style="fill:none; stroke:#a6abb0; stroke-miterlimit:10; stroke-width:.5px;"/><path d="m225.626,14.242v2.892c0,.711.556,1.288,1.241,1.288h19.607" style="fill:none; stroke:#a6abb0; stroke-miterlimit:10; stroke-width:.5px;"/><path d="m278.741,12.754l-2,5.505c-.793,2.182-2.805,3.626-5.053,3.626h-59.955c-2.26,0-4.281-1.46-5.065-3.66l-2.164-6.074" style="fill:none; stroke:#a6abb0; stroke-linecap:round; stroke-linejoin:round; stroke-width:.5px;"/><path d="m205.248,14.242h36.436c1.012,0,1.969.48,2.597,1.304l3.838,5.035c.628.824,1.585,1.304,2.597,1.304h11.463" style="fill:none; stroke:#a6abb0; stroke-linecap:round; stroke-linejoin:round; stroke-width:.5px;"/><path d="m225.626,14.242v2.892c0,.711.556,1.288,1.241,1.288h19.607" style="fill:none; stroke:#a6abb0; stroke-linecap:round; stroke-linejoin:round; stroke-width:.5px;"/><path d="m150.195,12.571l-2.197,7.08c-.483,1.556-1.922,2.616-3.551,2.616h-62.46c-2.26,0-4.281-1.46-5.065-3.66l-2.189-6.144" style="fill:none; stroke:#a6abb0; stroke-miterlimit:10;"/><path d="m74.562,11.985h34.859c1.362,0,2.649.646,3.494,1.755l5.163,6.774c.845,1.108,2.132,1.755,3.494,1.755h15.421" style="fill:none; stroke:#a6abb0; stroke-linecap:round; stroke-linejoin:round; stroke-width:.5px;"/><path d="m96.195,11.985v3.89c0,.957.748,1.732,1.67,1.732h17.998" style="fill:none; stroke:#a6abb0; stroke-linecap:round; stroke-linejoin:round; stroke-width:.5px;"/><path d="m82.741,19.422c-1.077,0-2.038-.674-2.405-1.687l-.863-2.38c-.121-.334-.072-.706.132-.997s.537-.464.892-.464h11.176c.602,0,1.09.488,1.09,1.09v3.349c0,.602-.488,1.09-1.09,1.09h-8.932Z" style="fill:none; stroke:#a6abb0; stroke-linecap:round; stroke-linejoin:round; stroke-width:.5px;"/><line x1="89.308" y1="13.894" x2="89.308" y2="19.422" style="fill:none; stroke:#a6abb0; stroke-linecap:round; stroke-linejoin:round; stroke-width:.5px;"/><line x1="86.613" y1="13.894" x2="86.613" y2="19.422" style="fill:none; stroke:#a6abb0; stroke-linecap:round; stroke-linejoin:round; stroke-width:.5px;"/><line x1="83.434" y1="13.894" x2="83.434" y2="19.422" style="fill:none; stroke:#a6abb0; stroke-linecap:round; stroke-linejoin:round; stroke-width:.5px;"/><line x1="83.434" y1="16.589" x2="86.613" y2="16.589" style="fill:none; stroke:#a6abb0; stroke-linecap:round; stroke-linejoin:round; stroke-width:.5px;"/><line x1="89.308" y1="16.589" x2="92.763" y2="16.589" style="fill:none; stroke:#a6abb0; stroke-linecap:round; stroke-linejoin:round; stroke-width:.5px;"/><path d="m297.789,23.769c-9.043,0-14.21,1.28-31.535,1.128-17.325-.152-75.834-.608-95.591-.608-40.525,0-75.985.271-105.594.329l-6.265.012" style="fill:none; stroke:#a6abb0; stroke-linecap:round; stroke-linejoin:round; stroke-width:.5px;"/><path d="m186.764,12.623c-.119.994-.513,4.291-.741,6.119-.271,2.17.949,3.12,9.63,3.12,6.103,0,16.08.023,16.08.023" style="fill:none; stroke:#a6abb0; stroke-linecap:round; stroke-linejoin:round; stroke-width:.5px;"/><line x1="195.652" y1="21.862" x2="195.652" y2="24.386" style="fill:none; stroke:#a6abb0; stroke-linecap:round; stroke-linejoin:round; stroke-width:.5px;"/><path d="m206.405,17.488s-6.437,0-9.924,0-5.692-.309-6.371,2.205c-.601,2.224.944,2.116,3.243,2.143" style="fill:none; stroke:#a6abb0; stroke-linecap:round; stroke-linejoin:round; stroke-width:.5px;"/><line x1="56.332" y1="18.378" x2="76.843" y2="18.386" style="fill:none; stroke:#a6abb0; stroke-linecap:round; stroke-linejoin:round; stroke-width:.5px;"/><path d="m147.422,211.996l7.324,3.059c.567.237,1.176.359,1.79.359h26.172c.853,0,1.656-.399,2.171-1.079l1.515-2.001" style="fill:none; stroke:#a6abb0; stroke-linecap:round; stroke-linejoin:round; stroke-width:.5px;"/><path d="m147.422,20.772l7.324-3.059c.567-.237,1.176-.359,1.79-.359h26.172c.853,0,1.656.399,2.171,1.079l1.515,2.001" style="fill:none; stroke:#a6abb0; stroke-linecap:round; stroke-linejoin:round; stroke-width:.5px;"/><rect x="407.041" y="77.453" width="27.518" height="9.477" rx="2.822" ry="2.822" transform="translate(338.608 502.992) rotate(-90)" style="fill:none; stroke:#a6abb0; stroke-linecap:round; stroke-linejoin:round; stroke-width:.5px;"/><path d="m416.062,93.129c0-1.498,9.477-1.057,9.477,0" style="fill:none; stroke:#a6abb0; stroke-linecap:round; stroke-linejoin:round; stroke-width:.5px;"/><path d="m416.062,71.305c0,1.498,9.477,1.057,9.477,0" style="fill:none; stroke:#a6abb0; stroke-linecap:round; stroke-linejoin:round; stroke-width:.5px;"/><polyline points="378.729 116.535 378.729 111.692 394.46 111.692 394.46 116.535" style="fill:none; stroke:#a6abb0; stroke-linecap:round; stroke-linejoin:round; stroke-width:.5px;"/><path d="m390.352,111.692c0,5.048-2.935,4.843-6.105,4.843" style="fill:none; stroke:#a6abb0; stroke-linecap:round; stroke-linejoin:round; stroke-width:.5px;"/><path d="m394.72,61.446s5.14,0,7.253,0c2.113,0,6.457-.646,6.457,20.574,0,21.22-5.375,20.163-6.855,20.163-1.48,0-6.176,0-6.176,0" style="fill:none; stroke:#a6abb0; stroke-linecap:round; stroke-linejoin:round; stroke-width:.5px;"/><path d="m394.46,111.692h11.505s5.635.47,7.044-5.283c1.409-5.752,2.348-10.331,2.348-10.331" style="fill:none; stroke:#a6abb0; stroke-linecap:round; stroke-linejoin:round; stroke-width:.5px;"/><path d="m415.357,68.433c-1.996-10.861-1.996-14.853-6.926-15.44s-15.141-.646-15.141-.646c0,0,.232,5.694,1.431,9.099-1.501,4.226-1.551,36.745.679,40.972-2.348,4.226-.939,9.274-.939,9.274" style="fill:none; stroke:#a6abb0; stroke-linecap:round; stroke-linejoin:round; stroke-width:.5px;"/><path d="m418.883,68.433c-.591-10.626-.943-20.686-7.635-20.686" style="fill:none; stroke:#a6abb0; stroke-linecap:round; stroke-linejoin:round; stroke-width:.5px;"/><path d="m418.883,95.951c0,7.523,0,20.584,0,20.584" style="fill:none; stroke:#a6abb0; stroke-linecap:round; stroke-linejoin:round; stroke-width:.5px;"/><line x1="381.459" y1="49.103" x2="394.153" y2="49.103" style="fill:none; stroke:#a6abb0; stroke-linecap:round; stroke-linejoin:round; stroke-width:.5px;"/><line x1="389.765" y1="52.347" x2="389.765" y2="111.701" style="fill:none; stroke:#a6abb0; stroke-linecap:round; stroke-linejoin:round; stroke-width:.5px;"/><path d="m322.41,61.444s39.985,0,44.432,0c4.447,0,10.095,4.327,10.095,11.297v17.614c0,6.971-5.649,11.297-10.095,11.297h-44.432" style="fill:none; stroke:#a6abb0; stroke-linecap:round; stroke-linejoin:round; stroke-width:.5px;"/><line x1="342.354" y1="47.746" x2="321.709" y2="47.746" style="fill:none; stroke:#a6abb0; stroke-linecap:round; stroke-linejoin:round; stroke-width:.5px;"/><line x1="425.772" y1="50.068" x2="472.069" y2="50.068" style="fill:none; stroke:#a6abb0; stroke-linecap:round; stroke-linejoin:round; stroke-width:.5px;"/><rect x="450.074" y="109.228" width="20.789" height="14.818" rx="3.552" ry="3.552" transform="translate(343.831 577.106) rotate(-90)" style="fill:none; stroke:#a6abb0; stroke-linecap:round; stroke-linejoin:round; stroke-width:.5px;"/><rect x="407.041" y="146.344" width="27.518" height="9.477" rx="2.822" ry="2.822" transform="translate(571.883 -269.717) rotate(90)" style="fill:none; stroke:#a6abb0; stroke-linecap:round; stroke-linejoin:round; stroke-width:.5px;"/><path d="m416.062,140.146c0,1.498,9.477,1.057,9.477,0" style="fill:none; stroke:#a6abb0; stroke-linecap:round; stroke-linejoin:round; stroke-width:.5px;"/><path d="m416.062,161.969c0-1.498,9.477-1.057,9.477,0" style="fill:none; stroke:#a6abb0; stroke-linecap:round; stroke-linejoin:round; stroke-width:.5px;"/><polyline points="216.854 91.4 261.441 91.4 261.441 87.72 270.716 84.307 284.195 84.307 284.195 91.134 320.822 91.134" style="fill:none; stroke:#a6abb0; stroke-linecap:round; stroke-linejoin:round; stroke-width:.5px;"/><line x1="274.302" y1="35.29" x2="274.302" y2="84.307" style="fill:none; stroke:#a6abb0; stroke-linecap:round; stroke-linejoin:round; stroke-width:.5px;"/><path d="m280.98,84.307s.495-5.194,2.597-7.296c-1.608-4.452-2.226-22.259,0-33.265,0,0-1.979-4.051-2.597-8.456" style="fill:none; stroke:#a6abb0; stroke-linecap:round; stroke-linejoin:round; stroke-width:.5px;"/><path d="m302.143,28.374c-3.238-.332-7.577,1.523-4.354,7.582,2.314,4.35,4.815,9.146,6.042,11.506.505.971.768,2.049.768,3.144v20.102c0,1.217-.323,2.408-.941,3.457-1.6,2.716-4.781,8.067-5.868,9.525-1.476,1.979-.998,7.445,0,7.445" style="fill:none; stroke:#a6abb0; stroke-linecap:round; stroke-linejoin:round; stroke-width:.5px;"/><path d="m283.576,77.011s7.631,0,9.937,0,5.397-3.215,5.397-16.323c0-13.108-1.979-16.942-6.059-16.942-4.081,0-9.275,0-9.275,0" style="fill:none; stroke:#a6abb0; stroke-linecap:round; stroke-linejoin:round; stroke-width:.5px;"/><path d="m296.855,87.854c2.434-.403,5.632-1.088,7.744-5.884s3.939-11.21,3.939-21.591c0-10.381-2.434-24.539-5.841-26.138s-5.841-2.626-5.841-2.626" style="fill:none; stroke:#a6abb0; stroke-linecap:round; stroke-linejoin:round; stroke-width:.5px;"/><rect x="301.458" y="55.251" width="27.518" height="9.477" rx="2.822" ry="2.822" transform="translate(255.228 375.207) rotate(-90)" style="fill:none; stroke:#a6abb0; stroke-linecap:round; stroke-linejoin:round; stroke-width:.5px;"/><path d="m310.479,70.927c0-1.498,9.477-1.057,9.477,0" style="fill:none; stroke:#a6abb0; stroke-linecap:round; stroke-linejoin:round; stroke-width:.5px;"/><path d="m310.479,49.103c0,1.498,9.477,1.057,9.477,0" style="fill:none; stroke:#a6abb0; stroke-linecap:round; stroke-linejoin:round; stroke-width:.5px;"/><path d="m215.752,39.22s31.921,0,37.546,0c5.625,0,11.651,3.214,11.651,10.982v17.334c0,7.768-6.027,10.982-11.651,10.982-5.625,0-39.272,0-39.272,0" style="fill:none; stroke:#a6abb0; stroke-linecap:round; stroke-linejoin:round; stroke-width:.5px;"/><path d="m218.077,116.535v-12.624c0-.563.456-1.019,1.019-1.019h35.676c6.562,0,9.509,3.482,9.509,5.893v7.751" style="fill:none; stroke:#a6abb0; stroke-linecap:round; stroke-linejoin:round; stroke-width:.5px;"/><polyline points="261.441 91.4 261.441 94.187 270.976 96.329 280.98 96.329 284.074 91.134" style="fill:none; stroke:#a6abb0; stroke-linecap:round; stroke-linejoin:round; stroke-width:.5px;"/><line x1="274.302" y1="96.329" x2="274.302" y2="116.535" style="fill:none; stroke:#a6abb0; stroke-linecap:round; stroke-linejoin:round; stroke-width:.5px;"/><line x1="279.135" y1="96.329" x2="279.135" y2="116.535" style="fill:none; stroke:#a6abb0; stroke-linecap:round; stroke-linejoin:round; stroke-width:.5px;"/><path d="m280.334,116.535v-11.805c0-1.015.823-1.838,1.838-1.838h12.801c.284,0,.565.066.82.193l4.446,2.215c.255.127.535.193.82.193h15.003c1.015,0,1.838.823,1.838,1.838v9.307" style="fill:none; stroke:#a6abb0; stroke-linecap:round; stroke-linejoin:round; stroke-width:.5px;"/><polyline points="312.585 105.492 312.585 91.134 312.585 73.749" style="fill:none; stroke:#a6abb0; stroke-linecap:round; stroke-linejoin:round; stroke-width:.5px;"/><path d="m313.3,46.23s0-7.079,0-10.277c0-3.197-3.628-6.744-7.393-7.162" style="fill:none; stroke:#a6abb0; stroke-linecap:round; stroke-linejoin:round; stroke-width:.5px;"/><line x1="295.793" y1="103.084" x2="295.793" y2="91.134" style="fill:none; stroke:#a6abb0; stroke-linecap:round; stroke-linejoin:round; stroke-width:.5px;"/><line x1="301.059" y1="105.492" x2="301.059" y2="116.637" style="fill:none; stroke:#a6abb0; stroke-linecap:round; stroke-linejoin:round; stroke-width:.5px;"/><path d="m272.758,96.329c.154-2.941.497-5.196-2.814-5.196s-8.502,0-8.502,0" style="fill:none; stroke:#a6abb0; stroke-linecap:round; stroke-linejoin:round; stroke-width:.5px;"/><path d="m272.758,84.424c.154,2.941.497,5.196-2.814,5.196-3.311,0-8.502,0-8.502,0" style="fill:none; stroke:#a6abb0; stroke-linecap:round; stroke-linejoin:round; stroke-width:.5px;"/><path d="m214.064,116.637v22.447s.155,2.79,2.79,2.79c0,0-2.79.775-2.79,3.1s-.31,38.44.775,45.725c1.085,7.285,7.44,13.102,17.515,15.153,10.075,2.052,25.885.812,25.885.812,0,0,5.115.017,7.285-2.316,1.857-1.998,5.532-5.238,6.552-6.13.172-.151.393-.234.622-.234h8.254c.584,0,1.011.523.929,1.101-.508,3.573,1.39,6.601,6.738,6.772,5.89.188,23.405-2.137,26.35-2.447,2.945-.31,6.665-3.565,6.665-9.455s.775-49.321.775-49.321c0,0,.362-2.111-1.588-2.493,0,0,1.588.043,1.588-2.437v-46.134c0-2.48-1.588-2.437-1.588-2.437,1.95-.381,1.588-2.493,1.588-2.493,0,0-.775-43.431-.775-49.321,0-5.89-3.72-9.145-6.665-9.455-2.945-.31-20.46-2.635-26.35-2.447-5.348.17-7.246,3.199-6.738,6.772.082.578-.345,1.101-.929,1.101h-8.254c-.229,0-.45-.083-.622-.234-1.02-.892-4.695-4.132-6.552-6.13-2.17-2.334-7.285-2.316-7.285-2.316,0,0-15.81-1.24-25.885.812-10.075,2.052-16.43,7.868-17.515,15.153-1.085,7.285-.775,43.4-.775,45.725,0,2.325,2.79,3.1,2.79,3.1-2.635,0-2.79,2.79-2.79,2.79v22.447" style="fill:none; stroke:#a6abb0; stroke-miterlimit:10; stroke-width:.5px;"/><g id="uuid-368eda28-4465-456b-b661-d863796110e3"><path d="m213.814,116.637s0,22.447,0,22.461c0,0,.072,1.383,1.022,2.282.28.265.632.484,1.07.614-.479.246-1.059.632-1.486,1.194-.355.467-.607,1.058-.607,1.786,0,.22-.003.744-.007,1.521-.039,7.384-.201,37.623.785,44.241.473,3.175,1.93,6.073,4.24,8.509,3.081,3.249,7.675,5.672,13.473,6.853,10.115,2.06,25.955.816,25.934.817,0,0,3.022.012,5.449-1.04.76-.329,1.474-.768,2.02-1.356,1.847-1.986,5.511-5.218,6.534-6.112.127-.111.289-.172.457-.172h8.254c.106,0,.203.023.289.063.09.042.17.104.234.181.063.076.111.165.139.263.027.096.036.2.02.309-.147,1.03-.1,2.026.171,2.932.212.711.562,1.363,1.062,1.93.482.547,1.1,1.011,1.86,1.368,1.03.485,2.319.776,3.884.826,4.824.154,17.368-1.366,23.42-2.098,1.379-.167,2.422-.293,2.965-.35,1.444-.152,3.039-.972,4.329-2.404,1.48-1.644,2.56-4.097,2.56-7.3,0-5.885.774-49.285.771-49.279,0-.005.189-1.082-.386-1.916-.16-.232-.377-.441-.663-.601.053-.031.106-.066.159-.106.207-.156.409-.381.568-.7.198-.397.325-.931.325-1.648v-46.134c0-.717-.127-1.251-.325-1.648-.159-.319-.361-.544-.568-.7-.053-.04-.106-.075-.159-.106.286-.16.502-.369.663-.601.567-.822.393-1.879.39-1.879-.004-.235-.775-43.444-.775-49.315,0-3.202-1.081-5.656-2.56-7.3-1.289-1.432-2.885-2.252-4.329-2.404-.543-.057-1.585-.183-2.965-.35-6.052-.733-18.596-2.252-23.42-2.098-1.565.05-2.854.341-3.884.826-.76.358-1.378.821-1.86,1.368-.5.567-.85,1.22-1.062,1.93-.271.906-.317,1.901-.171,2.932.015.108.007.213-.02.309-.028.098-.076.187-.139.263-.064.077-.143.139-.234.181-.086.04-.183.063-.289.063h-8.254c-.168,0-.331-.061-.457-.172-1.022-.894-4.687-4.126-6.534-6.112-.546-.587-1.261-1.026-2.02-1.356-2.427-1.052-5.449-1.04-5.428-1.04,0,0-15.839-1.244-25.955.816-5.798,1.181-10.391,3.604-13.473,6.853-2.31,2.436-3.767,5.334-4.24,8.509-.986,6.618-.824,36.857-.785,44.241.004.777.007,1.301.007,1.521,0,.728.252,1.319.607,1.786.427.562,1.007.948,1.486,1.194-.438.13-.79.349-1.07.614-.95.899-1.022,2.282-1.023,2.296v22.447" style="fill:none; stroke:#a6abb0; stroke-miterlimit:10; stroke-width:.5px;"/><path d="m213.564,116.637s0,22.447,0,22.475c0,0,.073,1.478,1.1,2.45.192.182.415.343.67.473-.387.248-.79.577-1.114,1.002-.383.504-.658,1.147-.658,1.937,0,.219-.003.742-.007,1.52-.039,7.367-.202,37.636.787,44.279.481,3.229,1.963,6.173,4.306,8.644,3.124,3.294,7.768,5.737,13.604,6.926,10.145,2.066,25.989.823,25.983.822.016,0,3.076.011,5.549-1.061.78-.338,1.527-.794,2.104-1.415,1.836-1.975,5.49-5.198,6.515-6.094.081-.071.185-.11.293-.11h8.254c.069,0,.13.015.183.04.056.026.107.065.148.115.041.049.072.107.09.171.018.063.024.132.013.205-.151,1.059-.104,2.092.179,3.039.222.743.589,1.428,1.114,2.024.507.575,1.153,1.058,1.941,1.429,1.068.503,2.392.799,3.983.85,4.848.154,17.419-1.369,23.458-2.1,1.381-.167,2.42-.293,2.961-.35,1.514-.159,3.164-1.015,4.488-2.485,1.523-1.692,2.624-4.206,2.624-7.467,0-5.88.774-49.258.768-49.236.002-.01.209-1.178-.427-2.1-.118-.171-.262-.329-.435-.468.192-.17.372-.395.517-.686.219-.439.351-1.013.351-1.76v-46.134c0-.746-.133-1.321-.351-1.76-.145-.292-.325-.516-.517-.686.173-.139.317-.297.435-.468.619-.898.439-2.028.434-2.028-.008-.445-.775-43.455-.775-49.308,0-3.261-1.101-5.775-2.624-7.467-1.324-1.47-2.974-2.326-4.488-2.485-.54-.057-1.58-.183-2.961-.35-6.039-.731-18.609-2.254-23.458-2.1-1.591.051-2.915.347-3.983.85-.788.371-1.435.854-1.941,1.429-.525.596-.892,1.281-1.114,2.024-.283.946-.329,1.979-.179,3.039.01.073.005.142-.013.205-.018.064-.05.122-.09.171-.041.049-.092.088-.148.115-.053.025-.114.04-.183.04h-8.254c-.108,0-.212-.039-.293-.11-1.025-.897-4.679-4.119-6.515-6.094-.577-.621-1.324-1.077-2.104-1.415-2.463-1.068-5.509-1.061-5.509-1.06-.092-.007-15.897-1.242-26.024.82-5.837,1.189-10.48,3.632-13.604,6.926-2.343,2.471-3.825,5.415-4.306,8.644-.989,6.643-.827,36.912-.787,44.279.004.777.007,1.301.007,1.52,0,.79.274,1.433.658,1.937.323.425.726.754,1.114,1.002-.255.13-.478.291-.67.473-1.027.972-1.1,2.45-1.101,2.477v22.447" style="fill:none; stroke:#a6abb0; stroke-miterlimit:10; stroke-width:.5px;"/><path d="m213.314,116.637s0,22.447.001,22.489c0,0,.074,1.573,1.178,2.617.117.111.244.214.381.308-.302.227-.599.503-.851.835-.412.542-.709,1.237-.709,2.089,0,.218-.003.741-.007,1.519-.039,7.35-.203,37.649.79,44.317.489,3.283,1.996,6.274,4.372,8.779,3.166,3.339,7.86,5.802,13.736,6.999,10.176,2.072,26.032.829,26.032.827.025,0,3.128.012,5.649-1.082.799-.347,1.579-.82,2.187-1.474,1.826-1.964,5.469-5.177,6.497-6.076.036-.031.081-.048.128-.048h8.254c.032,0,.057.007.077.016.022.01.043.026.062.048.018.022.033.049.042.079.008.029.012.063.006.101-.155,1.088-.108,2.158.187,3.145.232.776.616,1.493,1.166,2.118.531.603,1.206,1.106,2.023,1.49,1.106.521,2.465.822,4.081.874,4.873.155,17.469-1.372,23.496-2.102,1.382-.167,2.419-.293,2.957-.349,1.585-.167,3.289-1.058,4.648-2.567,1.567-1.74,2.689-4.315,2.689-7.634,0-5.767.745-47.633.774-49.259.036-.271.13-1.339-.477-2.22-.082-.118-.174-.23-.278-.335.14-.158.269-.345.379-.565.24-.481.378-1.096.378-1.871v-46.134c0-.775-.138-1.39-.378-1.871-.11-.221-.239-.408-.379-.565.104-.105.196-.217.278-.335.607-.88.514-1.949.477-2.22-.029-1.625-.774-43.492-.774-49.259,0-3.319-1.122-5.894-2.689-7.634-1.358-1.509-3.063-2.4-4.648-2.567-.538-.057-1.575-.182-2.957-.349-6.026-.73-18.623-2.257-23.496-2.102-1.617.052-2.976.353-4.081.874-.817.385-1.492.888-2.023,1.49-.55.624-.934,1.342-1.166,2.118-.295.987-.341,2.057-.187,3.145.005.038.002.072-.006.101-.009.031-.023.057-.042.079-.018.022-.04.038-.062.048-.02.009-.045.016-.077.016h-8.254c-.047,0-.093-.017-.128-.048-1.028-.899-4.671-4.113-6.497-6.076-.608-.654-1.388-1.127-2.187-1.474-2.507-1.087-5.589-1.082-5.589-1.079-.136-.011-15.94-1.243-26.093.825-5.875,1.196-10.569,3.66-13.736,6.999-2.376,2.505-3.883,5.496-4.372,8.779-.993,6.668-.829,36.967-.79,44.317.004.778.007,1.3.007,1.519,0,.852.297,1.547.709,2.089.252.332.549.608.851.835-.137.094-.264.197-.381.308-1.104,1.044-1.178,2.617-1.179,2.659v22.447" style="fill:none; stroke:#a6abb0; stroke-miterlimit:10; stroke-width:.5px;"/><path d="m213.064,116.637s0,22.447.002,22.503c0,0,.075,1.668,1.256,2.785.048.045.097.089.147.131-.229.196-.449.421-.645.678-.44.579-.76,1.326-.76,2.24,0,.217-.003.739-.007,1.517-.039,7.333-.204,37.662.793,44.355.497,3.337,2.029,6.374,4.437,8.914,3.209,3.384,7.953,5.867,13.867,7.072,10.21,2.079,26.08.835,26.082.832.036,0,3.18.012,5.749-1.102.819-.355,1.632-.846,2.271-1.533,1.815-1.952,5.448-5.157,6.442-6.045,0,0,8.254,0,8.194-.042,0,0,0,0,0,.002-.159,1.117-.113,2.225.195,3.252.242.808.642,1.558,1.218,2.211.555.63,1.258,1.153,2.104,1.551,1.143.538,2.537.845,4.18.897,4.897.156,17.52-1.375,23.534-2.103,1.383-.167,2.418-.293,2.953-.349,1.656-.174,3.414-1.101,4.807-2.648,1.61-1.789,2.753-4.424,2.753-7.802,0-5.747.741-47.39.774-49.239.041-.318.127-1.441-.521-2.381-.048-.07-.099-.137-.154-.202.099-.133.191-.28.273-.445.261-.524.404-1.178.404-1.983v-46.134c0-.804-.143-1.459-.404-1.983-.082-.164-.174-.312-.273-.445.055-.065.106-.133.154-.202.648-.94.562-2.063.521-2.381-.033-1.85-.774-43.492-.774-49.239,0-3.378-1.143-6.013-2.753-7.802-1.393-1.547-3.152-2.474-4.807-2.648-.535-.056-1.57-.182-2.953-.349-6.013-.728-18.636-2.259-23.534-2.103-1.642.052-3.037.359-4.18.897-.845.398-1.548.921-2.104,1.551-.575.653-.976,1.403-1.218,2.211-.304,1.015-.352,2.109-.2,3.212,0,0-8.188,0-8.152.014-1.03-.901-4.663-4.106-6.478-6.058-.639-.687-1.452-1.178-2.271-1.533-2.551-1.106-5.669-1.103-5.67-1.099-.18-.014-15.983-1.244-26.161.829-5.914,1.204-10.658,3.688-13.867,7.072-2.409,2.54-3.94,5.577-4.437,8.914-.997,6.693-.832,37.022-.793,44.355.004.778.007,1.3.007,1.517,0,.914.319,1.661.76,2.24.195.257.416.482.645.678-.051.043-.1.086-.147.131-1.181,1.117-1.256,2.785-1.257,2.841v22.447" style="fill:none; stroke:#a6abb0; stroke-miterlimit:10; stroke-width:.5px;"/></g><polyline points="216.854 141.875 261.441 141.875 261.441 145.555 270.716 148.968 284.195 148.968 284.195 142.141 320.822 142.141" style="fill:none; stroke:#a6abb0; stroke-linecap:round; stroke-linejoin:round; stroke-width:.5px;"/><line x1="274.302" y1="197.985" x2="274.302" y2="148.968" style="fill:none; stroke:#a6abb0; stroke-linecap:round; stroke-linejoin:round; stroke-width:.5px;"/><path d="m280.98,148.968s.495,5.194,2.597,7.296c-1.608,4.452-2.226,22.259,0,33.265,0,0-1.979,4.051-2.597,8.456" style="fill:none; stroke:#a6abb0; stroke-linecap:round; stroke-linejoin:round; stroke-width:.5px;"/><path d="m302.143,204.901c-3.238.332-7.577-1.523-4.354-7.582,2.314-4.35,4.815-9.146,6.042-11.506.505-.971.768-2.049.768-3.144v-20.102c0-1.217-.323-2.408-.941-3.457-1.6-2.716-4.781-8.067-5.868-9.525-1.476-1.979-.998-7.445,0-7.445" style="fill:none; stroke:#a6abb0; stroke-linecap:round; stroke-linejoin:round; stroke-width:.5px;"/><path d="m283.576,156.264s7.631,0,9.937,0c2.306,0,5.397,3.215,5.397,16.323s-1.979,16.942-6.059,16.942c-4.081,0-9.275,0-9.275,0" style="fill:none; stroke:#a6abb0; stroke-linecap:round; stroke-linejoin:round; stroke-width:.5px;"/><path d="m296.855,145.421c2.434.403,5.632,1.088,7.744,5.884,2.112,4.796,3.939,11.21,3.939,21.591s-2.434,24.539-5.841,26.138c-3.408,1.599-5.841,2.626-5.841,2.626" style="fill:none; stroke:#a6abb0; stroke-linecap:round; stroke-linejoin:round; stroke-width:.5px;"/><rect x="301.458" y="168.547" width="27.518" height="9.477" rx="2.822" ry="2.822" transform="translate(488.503 -141.932) rotate(90)" style="fill:none; stroke:#a6abb0; stroke-linecap:round; stroke-linejoin:round; stroke-width:.5px;"/><path d="m310.479,162.348c0,1.498,9.477,1.057,9.477,0" style="fill:none; stroke:#a6abb0; stroke-linecap:round; stroke-linejoin:round; stroke-width:.5px;"/><path d="m310.479,184.172c0-1.498,9.477-1.057,9.477,0" style="fill:none; stroke:#a6abb0; stroke-linecap:round; stroke-linejoin:round; stroke-width:.5px;"/><path d="m215.752,194.055s31.921,0,37.546,0,11.651-3.214,11.651-10.982v-17.334c0-7.768-6.027-10.982-11.651-10.982-5.625,0-39.272,0-39.272,0" style="fill:none; stroke:#a6abb0; stroke-linecap:round; stroke-linejoin:round; stroke-width:.5px;"/><path d="m218.077,116.74v12.624c0,.563.456,1.019,1.019,1.019h35.676c6.562,0,9.509-3.482,9.509-5.893,0-2.411,0-7.751,0-7.751" style="fill:none; stroke:#a6abb0; stroke-linecap:round; stroke-linejoin:round; stroke-width:.5px;"/><polyline points="261.441 141.875 261.441 139.088 270.976 136.946 280.98 136.946 284.074 142.141" style="fill:none; stroke:#a6abb0; stroke-linecap:round; stroke-linejoin:round; stroke-width:.5px;"/><line x1="274.302" y1="136.946" x2="274.302" y2="116.74" style="fill:none; stroke:#a6abb0; stroke-linecap:round; stroke-linejoin:round; stroke-width:.5px;"/><line x1="279.135" y1="136.946" x2="279.135" y2="116.74" style="fill:none; stroke:#a6abb0; stroke-linecap:round; stroke-linejoin:round; stroke-width:.5px;"/><path d="m280.334,116.74v11.805c0,1.015.823,1.838,1.838,1.838h12.801c.284,0,.565-.066.82-.193l4.446-2.215c.255-.127.535-.193.82-.193h15.003c1.015,0,1.838-.823,1.838-1.838v-9.307" style="fill:none; stroke:#a6abb0; stroke-linecap:round; stroke-linejoin:round; stroke-width:.5px;"/><polyline points="312.585 127.783 312.585 142.141 312.585 159.526" style="fill:none; stroke:#a6abb0; stroke-linecap:round; stroke-linejoin:round; stroke-width:.5px;"/><path d="m313.3,187.045v10.277c0,3.197-3.628,6.744-7.393,7.162" style="fill:none; stroke:#a6abb0; stroke-linecap:round; stroke-linejoin:round; stroke-width:.5px;"/><line x1="295.793" y1="130.191" x2="295.793" y2="142.141" style="fill:none; stroke:#a6abb0; stroke-linecap:round; stroke-linejoin:round; stroke-width:.5px;"/><line x1="301.059" y1="127.783" x2="301.059" y2="116.637" style="fill:none; stroke:#a6abb0; stroke-linecap:round; stroke-linejoin:round; stroke-width:.5px;"/><path d="m272.758,136.946c.154,2.941.497,5.196-2.814,5.196h-8.502" style="fill:none; stroke:#a6abb0; stroke-linecap:round; stroke-linejoin:round; stroke-width:.5px;"/><path d="m272.758,148.851c.154-2.941.497-5.196-2.814-5.196s-8.502,0-8.502,0" style="fill:none; stroke:#a6abb0; stroke-linecap:round; stroke-linejoin:round; stroke-width:.5px;"/><path d="m322.666,173.286c0,3.267,9.336,12.243,19.688,12.243,10.351,0,39.105,0,39.105,0v-4.601h11.83s-.493,4.601,4.108,4.601h23.66c3.615,0,5.751-1.807,5.751-7.558v-58.822s-.513-1.569-1.702-2.226c-.23-.127-.23-.442,0-.569,1.189-.658,1.702-2.226,1.702-2.226,0,0,0-53.071,0-58.822,0-5.751-2.136-7.558-5.751-7.558s-19.06,0-23.66,0c-4.601,0-4.108,4.601-4.108,4.601h-11.83v-4.601s-28.754,0-39.105,0c-10.351,0-19.688,8.976-19.688,12.243" style="fill:none; stroke:#a6abb0; stroke-miterlimit:10; stroke-width:.5px;"/><g id="uuid-5f46fc18-5a3c-411d-8dd0-04ee74f274f5"><path d="m322.416,173.286c0,1.242,1.191,3.119,3.075,5.003,3.602,3.602,10.002,7.49,16.863,7.49h39.355v-4.601h11.317c-.01.426.023,1.285.359,2.142.248.63.663,1.272,1.354,1.742.643.439,1.508.716,2.658.716h23.66c1.087,0,2.063-.16,2.898-.548.584-.272,1.095-.653,1.524-1.163,1.042-1.238,1.579-3.2,1.579-6.097,0-5.751,0-58.822-.012-58.9,0,0-.534-1.657-1.818-2.367-.018-.01-.029-.022-.034-.032-.006-.011-.009-.022-.009-.034s.003-.024.009-.034c.006-.01.016-.021.034-.032,1.284-.71,1.818-2.367,1.831-2.445,0,0,0-53.071,0-58.822,0-2.897-.536-4.859-1.579-6.097-.429-.51-.941-.892-1.524-1.163-.835-.388-1.81-.548-2.898-.548-3.615,0-19.06,0-23.66,0-1.15,0-2.015.278-2.658.716-.691.471-1.106,1.112-1.354,1.742-.337.857-.369,1.715-.359,2.142h-11.317v-4.601s-39.355,0-39.355,0c-5.245,0-10.218,2.272-13.873,4.945-2.703,1.976-4.713,4.19-5.583,5.905-.305.601-.482,1.163-.482,1.644" style="fill:none; stroke:#a6abb0; stroke-miterlimit:10; stroke-width:.5px;"/><path d="m322.166,173.286c0,1.355,1.266,3.298,3.148,5.18,3.632,3.632,10.092,7.563,17.04,7.563h39.605v-4.601h10.817c.01.488.083,1.237.376,1.983.261.665.704,1.352,1.446,1.858.692.471,1.607.76,2.799.76h23.66c1.11,0,2.125-.163,3.003-.572.616-.286,1.156-.69,1.61-1.229,1.099-1.305,1.637-3.339,1.637-6.258v-58.9l-.025-.078s-.489-1.535-1.688-2.355c1.199-.82,1.688-2.355,1.688-2.355l.025-.078s0-53.149,0-58.9c0-2.919-.538-4.953-1.637-6.258-.454-.539-.995-.942-1.61-1.229-.878-.409-1.893-.572-3.003-.572-3.615,0-19.06,0-23.66,0-1.192,0-2.107.289-2.799.76-.742.505-1.184,1.192-1.446,1.858-.293.746-.366,1.495-.376,1.983h-10.817v-4.601s-39.605,0-39.605,0c-5.314,0-10.338,2.3-14.021,4.993-2.72,1.989-4.764,4.231-5.658,5.993-.314.618-.509,1.22-.509,1.757" style="fill:none; stroke:#a6abb0; stroke-miterlimit:10; stroke-width:.5px;"/><path d="m321.916,173.286c0,1.469,1.342,3.477,3.221,5.356,3.662,3.662,10.181,7.637,17.217,7.637h39.855v-4.601h10.328c.029.498.123,1.163.383,1.825.275.7.745,1.433,1.538,1.973.74.504,1.706.803,2.94.803h23.66c1.133,0,2.187-.166,3.109-.595.647-.301,1.218-.727,1.696-1.295,1.155-1.372,1.696-3.478,1.696-6.419v-58.937l-.037-.118s-.434-1.379-1.512-2.278c1.078-.898,1.512-2.278,1.512-2.278l.037-.118s0-53.186,0-58.937c0-2.94-.541-5.047-1.696-6.419-.478-.568-1.048-.993-1.696-1.295-.922-.429-1.976-.595-3.109-.595-3.615,0-19.06,0-23.66,0-1.234,0-2.2.299-2.94.803-.793.54-1.263,1.273-1.538,1.973-.26.662-.354,1.326-.383,1.825h-10.328v-4.601s-39.855,0-39.855,0c-5.383,0-10.458,2.328-14.168,5.041-2.737,2.001-4.815,4.272-5.734,6.082-.322.634-.536,1.277-.536,1.87" style="fill:none; stroke:#a6abb0; stroke-miterlimit:10; stroke-width:.5px;"/><path d="m321.666,173.286c0,1.582,1.418,3.657,3.294,5.533,3.692,3.692,10.271,7.71,17.394,7.71h40.105v-4.601h9.846c.045.484.15,1.076.382,1.666.289.735.786,1.513,1.629,2.088.788.537,1.805.847,3.08.847h23.66c1.156,0,2.249-.169,3.214-.618.679-.316,1.279-.764,1.782-1.36,1.212-1.439,1.755-3.618,1.755-6.58v-58.974l-.05-.159s-.392-1.259-1.374-2.2c.983-.941,1.374-2.2,1.374-2.2l.05-.159s0-53.223,0-58.974c0-2.962-.543-5.141-1.755-6.58-.502-.597-1.102-1.044-1.782-1.36-.965-.449-2.058-.618-3.214-.618-3.615,0-19.06,0-23.66,0-1.275,0-2.293.31-3.08.847-.844.575-1.341,1.353-1.629,2.088-.232.59-.337,1.181-.382,1.666h-9.846v-4.601s-40.105,0-40.105,0c-5.453,0-10.578,2.356-14.316,5.089-2.755,2.014-4.866,4.312-5.809,6.171-.33.65-.563,1.334-.563,1.983" style="fill:none; stroke:#a6abb0; stroke-miterlimit:10; stroke-width:.5px;"/></g><polyline points="378.729 116.74 378.729 121.583 394.46 121.583 394.46 116.74" style="fill:none; stroke:#a6abb0; stroke-linecap:round; stroke-linejoin:round; stroke-width:.5px;"/><path d="m390.352,121.583c0-5.048-2.935-5.048-6.105-5.048" style="fill:none; stroke:#a6abb0; stroke-linecap:round; stroke-linejoin:round; stroke-width:.5px;"/><path d="m394.72,171.829h7.253c2.113,0,6.457.646,6.457-20.574s-5.375-20.163-6.855-20.163c-1.48,0-6.176,0-6.176,0" style="fill:none; stroke:#a6abb0; stroke-linecap:round; stroke-linejoin:round; stroke-width:.5px;"/><path d="m394.46,121.583h11.505s5.635-.47,7.044,5.283c1.409,5.752,2.348,10.331,2.348,10.331" style="fill:none; stroke:#a6abb0; stroke-linecap:round; stroke-linejoin:round; stroke-width:.5px;"/><path d="m415.357,164.842c-1.996,10.861-1.996,14.853-6.926,15.44-4.931.587-15.141.646-15.141.646,0,0,.232-5.694,1.431-9.099-1.501-4.226-1.551-36.745.679-40.972-2.348-4.226-.939-9.274-.939-9.274" style="fill:none; stroke:#a6abb0; stroke-linecap:round; stroke-linejoin:round; stroke-width:.5px;"/><path d="m418.883,164.842c-.591,10.626-.943,20.686-7.635,20.686" style="fill:none; stroke:#a6abb0; stroke-linecap:round; stroke-linejoin:round; stroke-width:.5px;"/><path d="m418.883,137.324v-20.584" style="fill:none; stroke:#a6abb0; stroke-linecap:round; stroke-linejoin:round; stroke-width:.5px;"/><line x1="381.459" y1="184.172" x2="394.153" y2="184.172" style="fill:none; stroke:#a6abb0; stroke-linecap:round; stroke-linejoin:round; stroke-width:.5px;"/><line x1="389.765" y1="180.928" x2="389.765" y2="121.574" style="fill:none; stroke:#a6abb0; stroke-linecap:round; stroke-linejoin:round; stroke-width:.5px;"/><path d="m322.41,171.831h44.432c4.447,0,10.095-4.327,10.095-11.297v-17.614c0-6.971-5.649-11.297-10.095-11.297s-44.432,0-44.432,0" style="fill:none; stroke:#a6abb0; stroke-linecap:round; stroke-linejoin:round; stroke-width:.5px;"/><path d="m479.752,115.751c0,55.874-11.525,76.641-11.525,76.641h-36.498s-79.362,0-88.51,0c-12.342,0-12.637,13.174-22.788,13.174h-8.937s-7.577,0-7.577,0c-3.83,0-7.181,2.748-7.751,6.526l-.88,6.97c-.146.967-.976,1.682-1.954,1.684l-244.272.348c-.942.001-1.755-.662-1.942-1.585l-1.484-8.442c-.394-1.938-2.098-3.331-4.075-3.331h-23.828c-3.611-11.883-7.983-28.396-11.174-47.276-2.461-14.561-4.081-29.397-4.081-44.266,0-13.243,1.621-29.705,4.081-44.266,3.19-18.88,7.563-35.393,11.174-47.276h23.828c1.978,0,3.682-1.393,4.075-3.331l1.484-7.806c.187-.923,1-1.586,1.942-1.585l244.272.348c.978.001,1.808,1.214,1.954,2.181l.88,5.837c.569,3.779,3.921,6.526,7.751,6.526h7.577s8.937,0,8.937,0c10.151,0,10.446,13.174,22.788,13.174,9.148,0,88.51,0,88.51,0h36.498s11.525,20.766,11.525,76.641" style="fill:none; stroke:#a6abb0; stroke-linecap:round; stroke-linejoin:round;"/><line x1="342.354" y1="185.529" x2="321.709" y2="185.529" style="fill:none; stroke:#a6abb0; stroke-linecap:round; stroke-linejoin:round; stroke-width:.5px;"/><line x1="425.772" y1="183.207" x2="472.069" y2="183.207" style="fill:none; stroke:#a6abb0; stroke-linecap:round; stroke-linejoin:round; stroke-width:.5px;"/><rect x="450.074" y="109.228" width="20.789" height="14.818" rx="3.552" ry="3.552" transform="translate(577.106 -343.831) rotate(90)" style="fill:none; stroke:#a6abb0; stroke-linecap:round; stroke-linejoin:round; stroke-width:.5px;"/><line x1="384.247" y1="116.535" x2="322.41" y2="116.535" style="fill:none; stroke:#a6abb0; stroke-linecap:round; stroke-linejoin:round; stroke-width:.5px;"/><line x1="424.015" y1="116.637" x2="394.46" y2="116.637" style="fill:none; stroke:#a6abb0; stroke-linecap:round; stroke-linejoin:round; stroke-width:.5px;"/></g><g id="uuid-00553832-45f1-4b1d-a25f-a2932e790ceb"><path d="m47.317,119.244c-4.252,0-7.698,3.447-7.698,7.698v90.142c0,2.04.81,4,2.26,5.44,1.44,1.44,3.4,2.26,5.44,2.25l143.935-.066c4.25-.002,7.695-3.448,7.695-7.698v-90.067c0-4.252-3.447-7.698-7.698-7.698H47.317Z" style="fill:none; stroke:#30373e; stroke-miterlimit:10; stroke-width:1.5px;"/><path d="m47.317,113.825c-4.252,0-7.698-3.447-7.698-7.698V15.985c0-2.04.81-4,2.26-5.44,1.44-1.44,3.4-2.26,5.44-2.25l143.935.066c4.25.002,7.695,3.448,7.695,7.698v90.067c0,4.252-3.447,7.698-7.698,7.698H47.317Z" style="fill:none; stroke:#30373e; stroke-miterlimit:10; stroke-width:1.5px;"/><path d="m482.37,89.62h-.002c-2.089-20.461-6.153-38.647-8.369-47.585-.85-3.43-3.93-5.84-7.47-5.84h-124.91c-2.04,0-4-.81-5.45-2.25l-23.243-23.274c-1.443-1.445-3.401-2.258-5.443-2.258l-94.052-.044c-2.042,0-4.001.81-5.446,2.254s-2.256,3.402-2.256,5.445v73.553h-.48.48v127.383c0,2.042.812,4.001,2.256,5.445,1.444,1.444,3.403,2.254,5.446,2.254l94.052-.044c2.042,0,4-.813,5.443-2.258l23.243-23.274c1.45-1.44,3.41-2.25,5.45-2.25h124.91c3.54,0,6.62-2.41,7.47-5.84,2.322-9.362,6.67-28.869,8.653-50.51h.002c1.692-14.524,1.943-31.326-.283-50.904Z" style="fill:none; stroke:#30373e; stroke-miterlimit:10; stroke-width:1.5px;"/></g><g id="uuid-bde96a8b-512f-4910-b102-587e0a94c08e"><circle cx="123.658" cy="62.614" r="5.958" style="fill:none; stroke:#f4f4f4; stroke-miterlimit:10; stroke-width:2.16px;"/><circle cx="123.658" cy="62.614" r="5.958" style="fill:#30373e; stroke-width:0px;"/><path d="m123.658,56.644c-3.212,0-5.816,2.604-5.816,5.816v.307c0,3.212,2.604,5.816,5.816,5.816s5.816-2.604,5.816-5.816v-.307c0-3.212-2.604-5.816-5.816-5.816Z" style="fill:#30373e; stroke-width:0px;"/><path d="m121.148,64.778l2.33-2.181c.219-.199.402-.391.553-.575.148-.184.264-.357.346-.52.082-.163.121-.315.121-.459v-.084c0-.225-.086-.409-.256-.552-.172-.144-.389-.215-.652-.215-.373,0-.66.081-.859.243-.201.163-.332.44-.395.833l-1.18-.374c.102-.599.365-1.062.797-1.39.43-.328.977-.491,1.637-.491.418,0,.797.075,1.133.225.338.149.604.368.801.655.197.287.295.627.295,1.02,0,.325-.064.635-.191.931-.129.296-.293.568-.492.814s-.428.485-.684.716l-1.441,1.292h2.855v1.17h-4.717v-1.058Z" style="fill:#f4f4f4; stroke-width:0px;"/><circle cx="125.653" cy="172.574" r="5.958" style="fill:none; stroke:#f4f4f4; stroke-miterlimit:10; stroke-width:2.16px;"/><circle cx="125.653" cy="172.574" r="5.958" style="fill:#30373e; stroke-width:0px;"/><path d="m125.653,166.604c-2.833,0-5.129,2.296-5.129,5.129v1.682c0,2.833,2.296,5.129,5.129,5.129s5.129-2.296,5.129-5.129v-1.682c0-2.833-2.296-5.129-5.129-5.129Z" style="fill:#30373e; stroke-width:0px;"/><path d="m124.963,170.999c-.144.097-.328.204-.553.323l-.59-.955c.344-.188.652-.385.927-.594s.527-.441.759-.698h1.301v6.721h-1.329v-5.195c-.2.168-.371.301-.515.398Z" style="fill:#f4f4f4; stroke-width:0px;"/><circle cx="350.451" cy="117.11" r="5.958" style="fill:none; stroke:#f4f4f4; stroke-miterlimit:10; stroke-width:2.16px;"/><circle cx="350.451" cy="117.11" r="5.958" style="fill:#30373e; stroke-width:0px;"/><path d="m350.451,111.14c-3.205,0-5.803,2.598-5.803,5.803v.334c0,3.205,2.598,5.803,5.803,5.803s5.803-2.598,5.803-5.803v-.334c0-3.205-2.598-5.803-5.803-5.803Z" style="fill:#30373e; stroke-width:0px;"/><path d="m348.782,120.093c-.39-.228-.726-.566-1.006-1.016l1.039-.749c.174.318.366.546.575.683s.47.206.781.206c.337,0,.628-.067.871-.201s.365-.342.365-.623v-.112c0-.318-.108-.544-.323-.679-.216-.134-.579-.201-1.091-.201h-.468v-1.123h.449c.381,0,.691-.056.932-.168s.36-.325.36-.637v-.103c0-.225-.104-.392-.313-.5-.209-.109-.451-.164-.726-.164-.262,0-.498.067-.707.201-.209.134-.382.333-.52.595l-.982-.59c.225-.48.524-.834.898-1.062.374-.228.83-.341,1.366-.341.655,0,1.19.156,1.605.468s.623.777.623,1.395c0,.325-.065.604-.197.838-.131.234-.314.426-.552.576.3.156.525.355.679.599.152.243.229.542.229.898,0,.462-.114.855-.342,1.179-.229.325-.532.568-.913.73-.381.163-.799.244-1.254.244-.53,0-.991-.114-1.381-.342Z" style="fill:#f4f4f4; stroke-width:0px;"/></g></svg>