<?xml version="1.0" encoding="UTF-8"?><svg xmlns="http://www.w3.org/2000/svg" width="218" height="218" viewBox="0 0 218 218"><g id="uuid-96c9bf28-2bf8-4831-89c9-9a355f844408"><path d="m54.249,69.074c0-2.673.891-5.247,2.475-7.326l1.188-1.584c1.188-1.485,2.97-2.376,4.851-2.376h92.569c1.881,0,3.663.891,4.851,2.376l1.188,1.584c1.584,2.079,2.476,4.653,2.476,7.326v45.542c0,2.97-1.485,5.742-4.059,7.227-.99.594-2.079.891-3.267.891H61.575c-1.188,0-2.277-.297-3.267-.891-2.475-1.584-4.059-4.356-4.059-7.326v-45.443Z" style="fill:#cfd2d4; stroke:#30373e; stroke-linecap:round; stroke-linejoin:round; stroke-width:1.5px;"/><path d="m109.008,130.158h33.463c1.881,0,3.663.891,4.851,2.376l1.188,1.584c1.584,2.079,2.475,4.653,2.475,7.326v21.385s0,22.177,0,22.177c0,2.97-1.485,5.742-4.059,7.326-.99.594-2.079.891-3.267.891h-69.501c-1.188,0-2.277-.297-3.267-.891-2.475-1.584-4.059-4.356-4.059-7.326v-22.177s0-21.385,0-21.385c0-2.673.891-5.248,2.475-7.326l1.188-1.584c1.188-1.485,2.97-2.376,4.851-2.376h33.662Z" style="fill:#cfd2d4; stroke:#30373e; stroke-linecap:round; stroke-linejoin:round; stroke-width:1.5px;"/><path d="m99.507,3.583c.746,8.346.443,17.628.535,26.035-.077,1.353.191,3.158-.287,4.474-.642,2.37-2.709,3.692-4.75,4.789-.343.167-.74.363-1.263.384-.653-.009-4.684.022-5.439.015-6.264.026-15.457.014-21.696-.018,0,0-2.17-.008-2.17-.008-.641-.024-1.648.138-2.447-.644l.108.087-1.949-1.212c-2.187-1.353-2.947-4.02-2.75-6.46,0,0,.033-9.147.033-9.147.027-6.104-.035-12.202.479-18.295.514,6.093.452,12.191.479,18.295,0,0,.033,9.147.033,9.147-.148,2.081.409,4.413,2.303,5.555,0,0,1.943,1.19,1.943,1.19.197.181.402.318.763.362.574.044,2.533.001,3.174.01,6.228-.026,15.444-.05,21.696-.018.704-.003,4.77.016,5.409.013.885-.127,1.78-.896,2.604-1.345,1.17-.661,1.996-1.764,2.397-3.024.432-1.102.191-2.966.259-4.149.064-8.416-.185-17.675.535-26.035h0Z" style="fill:#a6abb0; stroke-width:0px;"/><path d="m78.707,38.701h5.815c1.454,0,2.572-1.17,2.572-2.692v-4.798c0-1.521-1.118-2.692-2.572-2.692h-11.629c-1.454,0-2.572,1.17-2.572,2.692v4.798c0,1.521,1.118,2.692,2.572,2.692h5.814Z" style="fill:none; stroke:#a6abb0; stroke-linecap:round; stroke-linejoin:round; stroke-width:.513px;"/><path d="m57.911,24.307v-5.617c0-1.053.558-1.989,1.45-2.458l1.004-.585c.781-.468,1.784-.351,2.565.117l3.234,2.106c.446.234.892.468,1.338.468h22.303c.446,0,1.004-.117,1.338-.468l3.234-2.106c.781-.468,1.673-.585,2.565-.117l1.115.585c.892.468,1.45,1.404,1.45,2.458v5.617" style="fill:none; stroke:#a6abb0; stroke-linecap:round; stroke-linejoin:round; stroke-width:.513px;"/><path d="m90.674,18.338v5.383c0,.936-.447,1.755-1.23,2.341l-3.243,2.106c-.447.234-.895.468-1.342.468h-12.3c-.447,0-1.006-.117-1.342-.468l-3.243-2.106c-.783-.468-1.23-1.404-1.23-2.341v-5.383" style="fill:none; stroke:#a6abb0; stroke-linecap:round; stroke-linejoin:round; stroke-width:.513px;"/><path d="m91.681,3.583c.108,1.153.146,2.438.199,3.6.07.827-.187,1.757-.791,2.373-.616.577-2.242,1.635-2.928,2.158,0,0-.976.702-.976.702-1.058.768-2.48.385-3.675.483,0,0-4.8.023-4.8.023l-4.8-.023c-1.196-.097-2.617.285-3.675-.483,0,0-.976-.702-.976-.702-.68-.525-2.304-1.57-2.928-2.158-.603-.616-.863-1.547-.791-2.373.058-1.162.09-2.445.199-3.6.094,1.153.156,2.438.199,3.6-.079,1.242.641,2.118,1.675,2.713,0,0,1.968,1.381,1.968,1.381.553.341,1.257,1.051,1.952,1.035,1.559.024,5.55-.03,7.177-.025,0,0,4.8.023,4.8.023,1.123-.094,2.38.295,3.35-.343.645-.436,2.285-1.622,2.947-2.071.656-.444,1.262-.836,1.511-1.601.257-.607.14-1.651.215-2.312.03-.8.082-1.6.148-2.4h0Z" style="fill:#a6abb0; stroke-width:0px;"/><path d="m159.322,3.583c.765,8.786.435,18.585.538,27.442.192,2.447-.569,5.122-2.766,6.476,0,0-1.95,1.21-1.95,1.21l.111-.09c-.807.788-1.819.623-2.459.647l-2.17.005c-6.228.024-15.444.032-21.696-.004-.726-.009-4.774-.012-5.438-.021-.518-.021-.914-.216-1.256-.383-2.032-1.096-4.101-2.417-4.734-4.78-.476-1.306-.227-3.123-.281-4.466.104-8.414-.163-17.675.504-26.035.459,5.786.465,11.571.473,17.357l.031,8.678.008,2.17c-.085,2.03.887,4.011,2.668,5.021.825.45,1.721,1.22,2.614,1.344.631-.012,4.676-.008,5.41-.019,6.264-.042,15.457-.023,21.696-.004,0,0,2.17.005,2.17.005.66.001,1.33.076,1.751-.374.009-.005,1.942-1.191,1.951-1.197,1.882-1.141,2.441-3.466,2.287-5.54.082-8.867-.208-18.641.538-27.442h0Z" style="fill:#a6abb0; stroke-width:0px;"/><path d="m144.34,38.701c1.454,0,2.572-1.17,2.572-2.692v-4.798c0-1.521-1.118-2.692-2.572-2.692h-5.814s-5.815,0-5.815,0c-1.454,0-2.572,1.17-2.572,2.692v4.798c0,1.521,1.118,2.692,2.572,2.692h5.815s5.814,0,5.814,0Z" style="fill:none; stroke:#a6abb0; stroke-linecap:round; stroke-linejoin:round; stroke-width:.513px;"/><path d="m117.726,24.307v-5.617c0-1.053.558-1.989,1.45-2.458l1.115-.585c.892-.468,1.784-.351,2.565.117l3.234,2.106c.335.351.892.468,1.338.468h11.152s11.152,0,11.152,0c.446,0,.892-.234,1.338-.468l3.234-2.106c.781-.468,1.784-.585,2.565-.117l1.004.585c.892.468,1.45,1.404,1.45,2.458v5.617" style="fill:none; stroke:#a6abb0; stroke-linecap:round; stroke-linejoin:round; stroke-width:.513px;"/><path d="m150.488,18.338v5.383c0,.936-.447,1.872-1.23,2.341l-3.243,2.106c-.336.351-.895.468-1.342.468h-6.15s-6.15,0-6.15,0c-.447,0-.895-.234-1.342-.468l-3.243-2.106c-.783-.585-1.23-1.404-1.23-2.341v-5.383" style="fill:none; stroke:#a6abb0; stroke-linecap:round; stroke-linejoin:round; stroke-width:.513px;"/><path d="m151.494,3.583c.108,1.153.146,2.438.199,3.6.071.827-.187,1.757-.791,2.373-.616.577-2.242,1.635-2.928,2.158,0,0-.976.702-.976.702-1.058.768-2.48.385-3.675.483,0,0-4.8.023-4.8.023l-4.8-.023c-1.196-.097-2.617.285-3.675-.483,0,0-.976-.702-.976-.702-.68-.525-2.304-1.57-2.928-2.158-.603-.616-.863-1.547-.791-2.373.058-1.162.091-2.445.199-3.6.094,1.153.156,2.438.199,3.6-.079,1.242.641,2.118,1.675,2.713,0,0,1.968,1.381,1.968,1.381.553.341,1.257,1.051,1.952,1.035,1.559.024,5.55-.03,7.177-.025,0,0,4.8.023,4.8.023,1.123-.094,2.38.295,3.35-.343.645-.436,2.285-1.622,2.947-2.071.657-.444,1.262-.836,1.511-1.601.257-.607.14-1.651.215-2.312.03-.8.082-1.6.148-2.4h0Z" style="fill:#a6abb0; stroke-width:0px;"/><path d="m143.854,130.356v24.652c0,.891-.495,1.782-1.188,2.277l-3.763,2.575c-.495.297-.99.495-1.584.495h-14.85c-.594,0-1.089-.198-1.584-.495l-3.762-2.575c-.792-.495-1.188-1.386-1.188-2.277v-24.85" style="fill:none; stroke:#30373e; stroke-linecap:round; stroke-linejoin:round; stroke-width:.5px;"/><path d="m101.98,130.158v24.85c0,.891-.495,1.782-1.188,2.277l-3.762,2.575c-.495.297-.99.495-1.584.495h-14.851c-.594,0-1.089-.198-1.584-.495l-3.762-2.575c-.792-.495-1.188-1.386-1.188-2.277v-24.652" style="fill:none; stroke:#30373e; stroke-linecap:round; stroke-linejoin:round; stroke-width:.5px;"/><path d="m79.501,185.502c0-1.485,1.287-2.772,2.772-2.772h11.583c1.485,0,2.772,1.287,2.772,2.772v7.722h-17.128v-7.722Z" style="fill:none; stroke:#30373e; stroke-linecap:round; stroke-linejoin:round; stroke-width:.5px;"/><path d="m76.533,166.118v5.424c0,.99.495,1.881,1.287,2.376l3.564,2.178c.396.297.99.396,1.485.396h10.494c.495,0,.99-.098,1.485-.396l3.564-2.178c.792-.495,1.287-1.386,1.287-2.376v-5.347" style="fill:none; stroke:#30373e; stroke-linecap:round; stroke-linejoin:round; stroke-width:.5px;"/><path d="m138.404,185.502c0-1.485-1.287-2.772-2.772-2.772h-11.584c-1.485,0-2.772,1.287-2.772,2.772v7.722s17.128,0,17.128,0v-7.722Z" style="fill:none; stroke:#30373e; stroke-linecap:round; stroke-linejoin:round; stroke-width:.5px;"/><path d="m141.374,166.105v5.437c0,.99-.495,1.881-1.288,2.376l-3.564,2.178c-.396.297-.99.396-1.485.396h-10.494c-.495,0-.99-.098-1.485-.396l-3.564-2.178c-.792-.495-1.287-1.386-1.287-2.376v-5.347" style="fill:none; stroke:#30373e; stroke-linecap:round; stroke-linejoin:round; stroke-width:.5px;"/><path d="m150.986,165.602c0-1.485-1.289-2.772-2.775-2.772h-.496c-.495,0-.991.099-1.487.396l-4.163,2.574c-.396.297-.991.396-1.487.396h-24.185c-.496,0-.992-.098-1.487-.396l-4.163-2.574c-.397-.297-.992-.396-1.487-.396h-.694c-.495,0-.991.099-1.487.396l-4.163,2.574c-.396.297-.991.396-1.487.396h-24.185c-.496,0-.991-.098-1.487-.396l-4.163-2.574c-.396-.297-.991-.396-1.487-.396h-.496c-1.487,0-2.775,1.287-2.775,2.772" style="fill:none; stroke:#30373e; stroke-linecap:round; stroke-linejoin:round; stroke-width:.5px;"/><path d="m109.009,130.158v63.066" style="fill:none; stroke:#30373e; stroke-linecap:round; stroke-linejoin:round; stroke-width:.5px;"/><path d="m155.223,57.788v26.83c0,.891-.495,1.782-1.188,2.277l-3.762,2.574c-.495.297-.99.495-1.584.495h-14.85c-.594,0-1.089-.198-1.584-.495l-3.762-2.574c-.792-.495-1.189-1.386-1.189-2.277v-26.83" style="fill:none; stroke:#30373e; stroke-linecap:round; stroke-linejoin:round; stroke-width:.5px;"/><path d="m62.761,57.788v26.83c0,.891.495,1.782,1.188,2.277l3.762,2.574c.495.297.99.495,1.584.495h14.851c.594,0,1.089-.198,1.584-.495l3.762-2.574c.792-.495,1.189-1.386,1.189-2.277v-26.83" style="fill:none; stroke:#30373e; stroke-linecap:round; stroke-linejoin:round; stroke-width:.5px;"/><path d="m150.375,115.012c0-1.485-1.287-2.772-2.772-2.772h-12.474c-1.485,0-2.772,1.287-2.772,2.772v7.723s18.019,0,18.019,0v-7.723Z" style="fill:none; stroke:#30373e; stroke-linecap:round; stroke-linejoin:round; stroke-width:.5px;"/><path d="m67.613,115.012c0-1.485,1.287-2.772,2.772-2.772h12.475c1.485,0,2.772,1.287,2.772,2.772v7.723h-18.019v-7.723Z" style="fill:none; stroke:#30373e; stroke-linecap:round; stroke-linejoin:round; stroke-width:.5px;"/><path d="m54.249,98.974v-3.763c0-1.485,1.287-2.772,2.772-2.772h.495c.495,0,.99.099,1.485.396l4.158,2.574c.396.297.99.396,1.485.396h24.157c.495,0,.99-.099,1.485-.396l4.158-2.574c.396-.297.99-.396,1.485-.396h26.236c.495,0,.99.099,1.485.396l4.158,2.574c.396.297.99.396,1.485.396h24.157c.495,0,.99-.099,1.485-.396l4.158-2.574c.396-.297.99-.396,1.485-.396h.495c1.485,0,2.772,1.287,2.772,2.772v5.742" style="fill:none; stroke:#30373e; stroke-linecap:round; stroke-linejoin:round; stroke-width:.5px;"/><path d="m154.235,95.709v5.443c0,.99-.495,1.881-1.287,2.377l-3.564,2.178c-.396.297-.99.396-1.485.396h-13.168c-.495,0-.99-.099-1.485-.396l-3.564-2.178c-.792-.495-1.287-1.386-1.287-2.377v-5.464" style="fill:none; stroke:#30373e; stroke-linecap:round; stroke-linejoin:round; stroke-width:.5px;"/><path d="m63.754,95.691v5.462c0,.99.495,1.881,1.287,2.377l3.564,2.178c.396.297.99.396,1.485.396h13.168c.495,0,.99-.099,1.485-.396l3.564-2.178c.792-.495,1.287-1.386,1.287-2.377v-5.446" style="fill:none; stroke:#30373e; stroke-linecap:round; stroke-linejoin:round; stroke-width:.5px;"/><path d="m118.099,57.788v65.046" style="fill:none; stroke:#30373e; stroke-linecap:round; stroke-linejoin:round; stroke-width:.5px;"/><path d="m99.984,122.834V57.788" style="fill:none; stroke:#30373e; stroke-linecap:round; stroke-linejoin:round; stroke-width:.5px;"/><path d="m42.124,3.583c.594,31.91.382,65.349,1.118,97.227.417,27.665,2.595,69.157,3.637,97.158.008.137-.098.255-.236.263s-.256-.101-.264-.239c-1.141-28.183-3.337-69.364-3.705-97.171-.43-31.875-1.096-65.333-.551-97.237h0Z" style="fill:#a6abb0; stroke-width:0px;"/><path d="m175.869,3.583c.535,31.913-.086,65.356-.53,97.237-.376,27.671-2.575,69.169-3.712,97.171-.006.138-.123.245-.261.238s-.245-.126-.239-.264c1.052-28.182,3.21-69.356,3.645-97.157.74-31.871.508-65.325,1.096-97.226h0Z" style="fill:#a6abb0; stroke-width:0px;"/><path d="m38.036,3.583c1.382,18.909.8,46.819.931,66.092-.013,11.026.223,22.116-1.19,33.094-.776,5.436-1.802,10.805-1.743,16.332-.223,9.506.065,23.37-.047,33.032.316,13.676,4.688,26.988,8.28,40.115,1.052,3.206,2.119,6.435,4.174,9.07,2.195,2.355,4.679,4.947,7.656,6.233,6.487,1.961,13.325,3.068,20.054,4.025,21.758,2.809,43.953,2.81,65.71-.011,6.731-.957,13.566-2.082,20.063-4.016,3.417-1.552,6.65-4.73,8.759-7.828,2.619-4.71,3.853-10.181,5.273-15.392,2.811-10.562,5.924-21.24,6.057-32.197-.171-9.703.161-23.471-.047-33.032.059-5.526-.966-10.898-1.743-16.332-1.413-10.978-1.176-22.067-1.189-33.093.076-19.285-.473-47.058.93-66.091,1.666,25.577.29,56.902.61,82.6.129,8.252.997,16.442,2.361,24.569.939,8.263.458,16.58.578,24.857,0,0,0,16.523,0,16.523-.131,11.158-3.275,21.929-6.106,32.577-1.471,5.371-2.677,10.827-5.433,15.775-1.499,2.447-3.646,4.342-5.801,6.202-2.109,1.911-5.073,2.803-7.787,3.381-26.976,6.03-55.071,6.366-82.435,2.996-5.477-.747-10.932-1.686-16.324-2.982-2.71-.576-5.673-1.498-7.773-3.408-2.163-1.847-4.33-3.733-5.809-6.194-2.755-4.945-3.975-10.4-5.448-15.769-2.838-10.648-5.962-21.42-6.109-32.578,0,0,0-16.523,0-16.523.119-8.278-.36-16.595.578-24.857.343-2.743.907-5.422,1.223-8.168,1.412-10.912,1.17-21.915,1.101-32.907.275-19.286-.874-47.053.646-66.094h0Z" style="fill:#a6abb0; stroke-width:0px;"/></g><g id="uuid-dadd5e31-7d68-4c02-9214-95122bf64ad0"><circle cx="108.956" cy="77.003" r="8.275" style="fill:none; stroke:#f4f4f4; stroke-miterlimit:10; stroke-width:3px;"/><circle cx="108.956" cy="77.003" r="8.275" style="fill:#30373e; stroke-width:0px;"/><path d="m108.956,68.711c-3.934,0-7.124,3.189-7.124,7.124v2.337c0,3.934,3.189,7.124,7.124,7.124s7.124-3.189,7.124-7.124v-2.337c0-3.934-3.189-7.124-7.124-7.124Z" style="fill:#30373e; stroke-width:0px;"/><path d="m107.998,74.815c-.2.135-.455.285-.768.449l-.818-1.326c.477-.26.905-.535,1.286-.826.382-.289.732-.612,1.054-.968h1.807v9.334h-1.846v-7.215c-.277.233-.516.418-.715.552Z" style="fill:#f4f4f4; stroke-width:0px;"/><circle cx="108.956" cy="146.273" r="8.275" style="fill:none; stroke:#f4f4f4; stroke-miterlimit:10; stroke-width:3px;"/><circle cx="108.956" cy="146.273" r="8.275" style="fill:#30373e; stroke-width:0px;"/><path d="m108.956,137.981c-4.462,0-8.079,3.617-8.079,8.079v.425c0,4.462,3.617,8.079,8.079,8.079s8.079-3.617,8.079-8.079v-.425c0-4.462-3.617-8.079-8.079-8.079Z" style="fill:#30373e; stroke-width:0px;"/><path d="m105.469,149.279l3.237-3.029c.303-.277.559-.544.767-.799.208-.256.368-.496.48-.722.113-.226.17-.438.17-.637v-.117c0-.312-.12-.567-.358-.768-.238-.199-.539-.299-.903-.299-.52,0-.918.113-1.195.338-.278.226-.46.611-.547,1.157l-1.638-.52c.139-.832.507-1.476,1.105-1.931.598-.455,1.356-.683,2.274-.683.581,0,1.105.104,1.573.312s.839.512,1.111.91c.273.398.41.871.41,1.417,0,.451-.09.882-.267,1.294-.178.411-.405.788-.683,1.131s-.594.674-.949.994l-2.002,1.794h3.965v1.625h-6.552v-1.469Z" style="fill:#f4f4f4; stroke-width:0px;"/></g></svg>