<?xml version="1.0" encoding="UTF-8"?><svg id="uuid-94602e0c-1d64-4b67-9169-109116a7c44e" xmlns="http://www.w3.org/2000/svg" width="39" height="39" viewBox="0 0 39 39"><path d="m10.8026,24.5532c.7338,0,1.3287-.5949,1.3287-1.3287s-.5949-1.3287-1.3287-1.3287-1.3287.5949-1.3287,1.3287.5949,1.3287,1.3287,1.3287Z" style="fill:#30373e; stroke-width:0px;"/><path d="m19.5399,24.5532c.7338,0,1.3287-.5949,1.3287-1.3287s-.5949-1.3287-1.3287-1.3287-1.3287.5949-1.3287,1.3287.5949,1.3287,1.3287,1.3287Z" style="fill:#30373e; stroke-width:0px;"/><path d="m19.3597,27.932c-.9989,1.0894-2.6907,1.8056-4.6096,1.8056-1.7441,0-3.3007-.5918-4.3198-1.5177" style="fill:none; stroke:#30373e; stroke-linecap:round; stroke-linejoin:round; stroke-width:2px;"/><path d="m22.1857,17.2117v-6.5788c0-1.8073,1.2179-3.4676,2.9921-3.8123,2.3855-.4635,4.4812,1.3602,4.4812,3.6641v2.5226c0,.6711.5441,1.2152,1.2152,1.2152h1.5533c.6711,0,1.2152-.5441,1.2152-1.2152v-2.1988c0-4.2272-3.2574-7.9134-7.4827-8.0402-4.3721-.1312-7.9576,3.374-7.9576,7.7166v4.7028" style="fill:none; fill-rule:evenodd; stroke:#30373e; stroke-miterlimit:10; stroke-width:2px;"/><path d="m15.4627,14.8334h-1.3279c-5.9099,0-10.7009,4.7909-10.7009,10.7009h0c0,5.91,4.7909,10.7009,10.7009,10.7009h1.3279c5.9099,0,10.7009-4.7909,10.7009-10.7009h0c0-5.91-4.7909-10.7009-10.7009-10.7009Z" style="fill:none; fill-rule:evenodd; stroke:#30373e; stroke-miterlimit:10; stroke-width:2px;"/></svg>