<?xml version="1.0" encoding="UTF-8"?><svg id="uuid-ca496f3b-5872-4606-aaae-e68c5e273e01" xmlns="http://www.w3.org/2000/svg" width="119.3276" height="39" viewBox="0 0 119.3276 39"><rect x="-.2406" y="-.6499" width="119.8088" height="40.2997"/><rect x="2.2949" y="3.8623" width="53.3749" height="31.2753" rx="4.3978" ry="4.3978" style="fill:#3b3938;"/><rect x="63.6578" y="3.8623" width="53.3749" height="31.2753" rx="4.3978" ry="4.3978" style="fill:#3b3938;"/><path d="m30.965,25.1974c0,.7402-.6021,1.3422-1.3422,1.3422s-1.3422-.5983-1.3422-1.3422v-3.8311c0-.7402.6021-1.3422,1.3422-1.3422s1.3422.6021,1.3422,1.3422v3.8311Z" style="fill:#f4f4f4; fill-rule:evenodd;"/><path d="m23.6772,17.1138h11.9616v11.0289c0,.8165-.6629,1.4794-1.4794,1.4794h-9.0027c-.8165,0-1.4794-.6629-1.4794-1.4794v-11.0289h0Z" style="fill:none; stroke:#f4f4f4; stroke-miterlimit:10; stroke-width:2px;"/><path d="m23.6772,17.1138v-1.2835c0-3.3031,2.6777-5.9808,5.9808-5.9808s5.9808,2.6777,5.9808,5.9808v1.2835" style="fill:none; fill-rule:evenodd; stroke:#f4f4f4; stroke-miterlimit:10; stroke-width:2px;"/><path d="m88.3939,24.1729c0,.6235-.5072,1.1306-1.1306,1.1306s-1.1306-.504-1.1306-1.1306v-3.2271c0-.6235.5072-1.1306,1.1306-1.1306s1.1306.5072,1.1306,1.1306v3.2271Z" style="fill:#f4f4f4; fill-rule:evenodd;"/><path d="m82.2552,17.3639h10.0756v9.29c0,.6878-.5584,1.2462-1.2462,1.2462h-7.5833c-.6878,0-1.2462-.5584-1.2462-1.2462v-9.29h0Z" style="fill:none; stroke:#f4f4f4; stroke-miterlimit:10; stroke-width:2px;"/><path d="m92.3309,17.3639v-2.983c0-1.576,1.2776-2.8537,2.8537-2.8537h0c1.576,0,2.8537,1.2776,2.8537,2.8537v1.3401" style="fill:none; fill-rule:evenodd; stroke:#f4f4f4; stroke-miterlimit:10; stroke-width:2px;"/><circle cx="110.7705" cy="9.8495" r="1.9397" style="fill:#f4ae3d;"/></svg>