<svg width="33" height="31" viewBox="0 0 33 31" fill="none" xmlns="http://www.w3.org/2000/svg">
<path d="M18.5456 0.888129C17.8423 0.309071 16.9582 -0.00516441 16.0472 6.42122e-05C15.1362 -0.00516441 14.2521 0.309071 13.5488 0.888129C11.7135 2.34456 1.93291 12.433 0.127174 14.2979C0.0942614 14.3369 0.0732623 14.3846 0.0666776 14.4353C0.0600928 14.4859 0.0681997 14.5374 0.0900332 14.5835C0.111867 14.6297 0.146507 14.6686 0.189828 14.6956C0.23315 14.7227 0.283329 14.7367 0.334389 14.736H4.59118C4.75413 14.7542 4.91898 14.7287 5.06881 14.6621C5.21864 14.5955 5.34804 14.4903 5.44372 14.3571L7.1192 12.581C8.89533 10.6746 13.1995 6.46518 14.7743 5.139C15.1306 4.83627 15.5799 4.66491 16.0472 4.65352C16.5146 4.66491 16.9639 4.83627 17.3201 5.139C18.8949 6.46518 23.2405 10.6746 24.9752 12.581L26.6507 14.3571C26.7464 14.4903 26.8758 14.5955 27.0256 14.6621C27.1755 14.7287 27.3403 14.7542 27.5033 14.736H31.7364C31.7874 14.7367 31.8376 14.7227 31.8809 14.6956C31.9242 14.6686 31.9589 14.6297 31.9807 14.5835C32.0026 14.5374 32.0107 14.4859 32.0041 14.4353C31.9975 14.3846 31.9765 14.3369 31.9436 14.2979C30.1615 12.433 20.381 2.34456 18.5456 0.888129Z" fill="#6A6F74"/>
<path d="M31.7381 16.2633H27.505C27.342 16.2451 27.1772 16.2706 27.0273 16.3372C26.8775 16.4038 26.7481 16.509 26.6524 16.6422L24.9769 18.4183C23.2127 20.3365 18.8967 24.546 17.3218 25.8603C16.9656 26.163 16.5163 26.3344 16.0489 26.3458C15.5816 26.3344 15.1323 26.163 14.776 25.8603C13.2012 24.5341 8.8556 20.3247 7.12091 18.4183L5.44543 16.6422C5.34975 16.509 5.22035 16.4038 5.07052 16.3372C4.92069 16.2706 4.75584 16.2451 4.59289 16.2633H0.35978C0.30872 16.2626 0.258541 16.2766 0.215219 16.3037C0.171897 16.3307 0.137257 16.3696 0.115424 16.4158C0.0935904 16.4619 0.0854834 16.5134 0.0920682 16.564C0.0986529 16.6147 0.119652 16.6624 0.152565 16.7014C1.9583 18.5663 11.7389 28.6547 13.5742 30.1112C14.2775 30.6902 15.1616 31.0045 16.0726 30.9992C16.9836 31.0045 17.8677 30.6902 18.571 30.1112C20.4064 28.6547 30.1869 18.5663 31.9926 16.7014C32.0302 16.6595 32.0534 16.6068 32.0591 16.5508C32.0649 16.4949 32.0527 16.4385 32.0245 16.3899C31.9962 16.3413 31.9533 16.3028 31.9018 16.2801C31.8504 16.2573 31.7931 16.2515 31.7381 16.2633Z" fill="#6A6F74"/>
<path d="M7.77566 16.8616C9.11959 18.4009 13.104 22.3735 14.9216 24.0371C14.9476 24.0712 14.9841 24.0958 15.0255 24.1071C15.0669 24.1184 15.1109 24.1158 15.1506 24.0996C15.1903 24.0835 15.2236 24.0547 15.2454 24.0177C15.2671 23.9807 15.2761 23.9376 15.2709 23.895V19.7152C15.2823 19.5457 15.2509 19.3761 15.1795 19.2219C15.1081 19.0677 14.9991 18.934 14.8624 18.8331C14.0572 18.0989 12.6363 16.7195 12.1094 16.1037C11.9679 15.9386 11.8883 15.7292 11.8844 15.5117C11.8878 15.2941 11.9674 15.0846 12.1094 14.9197C12.6363 14.298 14.0572 12.9186 14.8624 12.1844C14.9986 12.0844 15.1074 11.9517 15.1788 11.7986C15.2502 11.6454 15.2819 11.4768 15.2709 11.3082V7.07508C15.2763 7.03256 15.2679 6.98943 15.2471 6.95198C15.2262 6.91454 15.1939 6.88473 15.155 6.86689C15.116 6.84905 15.0723 6.84412 15.0304 6.85282C14.9884 6.86151 14.9503 6.88338 14.9216 6.91523C13.1455 8.58479 9.11959 12.5515 7.77566 14.0908C7.59028 14.2686 7.44239 14.4818 7.34071 14.7177C7.23903 14.9536 7.18561 15.2075 7.18361 15.4643C7.18243 15.7252 7.2343 15.9836 7.33608 16.2238C7.43786 16.464 7.58741 16.681 7.77566 16.8616Z" fill="#6A6F74"/>
<path d="M17.2332 18.8329C17.0966 18.9339 16.9876 19.0676 16.9162 19.2218C16.8448 19.3759 16.8133 19.5456 16.8247 19.7151V23.889C16.8178 23.9321 16.8256 23.9763 16.8467 24.0145C16.8679 24.0527 16.9012 24.0827 16.9414 24.0998C16.9816 24.1168 17.0264 24.1199 17.0686 24.1085C17.1107 24.0971 17.1479 24.072 17.174 24.037C18.9502 22.3734 22.9761 18.4007 24.32 16.8614C24.5054 16.6836 24.6533 16.4704 24.7549 16.2345C24.8566 15.9986 24.91 15.7448 24.912 15.4879C24.91 15.231 24.8566 14.9771 24.7549 14.7412C24.6533 14.5053 24.5054 14.2922 24.32 14.1144C22.9761 12.575 18.9916 8.60835 17.174 6.93879C17.1459 6.90815 17.109 6.88695 17.0684 6.87813C17.0278 6.8693 16.9854 6.87327 16.9471 6.88949C16.9088 6.90571 16.8765 6.93339 16.8546 6.96872C16.8327 7.00405 16.8223 7.0453 16.8247 7.0868V11.2607C16.8133 11.4302 16.8448 11.5999 16.9162 11.754C16.9876 11.9082 17.0966 12.0419 17.2332 12.1428C18.0384 12.877 19.4593 14.2564 19.9862 14.8781C20.1282 15.043 20.2078 15.2525 20.2112 15.4701C20.2073 15.6876 20.1278 15.897 19.9862 16.0622C19.4593 16.7193 18.0384 18.0988 17.2332 18.8329Z" fill="#6A6F74"/>
</svg>
