<svg xmlns="http://www.w3.org/2000/svg" width="161.7489" height="135.8107" viewBox="0 0 161.7489 135.8107"><g id="b397b2bc-a6e4-47e0-a4c5-1b48f34141e4" data-name="below"><path d="M34.734,79.9093C12.4491,80.0162,9.6781,68.3889,7.77,36.8314c-.4146-6.8577.0734-7.799,3.4025-10.729l1.9833-1.83a1.6287,1.6287,0,0,1,1.0359-.41l.5548-.0225" style="fill:none;stroke:#a6abb0;stroke-linecap:round;stroke-linejoin:round;stroke-width:0.5px"/><path d="M35.6073,83.9382c-20.7366.1139-27.5551-7.4134-30.3126-29.1841" style="fill:none;stroke:#a6abb0;stroke-linecap:round;stroke-linejoin:round;stroke-width:0.5px"/><path d="M30.2786,66.1247A13.5216,13.5216,0,0,1,26.014,59.6a114.2539,114.2539,0,0,1-2.9623-18.752c-1.05-11.2922,5.3538-9.5449,15.2177-10.0237,14.5556-.7065,13.4393-6.62,27.0538-6.62H136.35c10.7778,0,15.7247,1.7971,21.7705,3.0694" style="fill:none;stroke:#a6abb0;stroke-linecap:round;stroke-linejoin:round;stroke-width:0.5px"/><path d="M157.85,23.4029c-5.1637-1.2854-11.83-2.5767-25.757-2.5767H65.3232C51.2561,20.831,51.4193,27.9493,35.4886,28.3c-6.7482.1486-23.7489.4078-26.83.4544" style="fill:none;stroke:#a6abb0;stroke-linecap:round;stroke-linejoin:round;stroke-width:0.5px"/><path d="M25.5413,32.2831l-14.78.07c1.6536,20.8986.8437,44.46,23.4528,44.14" style="fill:none;stroke:#a6abb0;stroke-linecap:round;stroke-linejoin:round;stroke-width:0.5px"/><path d="M34.0091,74.56C17.334,71.7666,17.6768,48.7415,16.476,33.2671a.884.884,0,0,1,.2231-.66.8421.8421,0,0,1,.6247-.2809h2.6521" style="fill:none;stroke:#a6abb0;stroke-linecap:round;stroke-linejoin:round;stroke-width:0.5px"/><line x1="8.6583" y1="28.7545" x2="10.7617" y2="32.353" style="fill:none;stroke:#a6abb0;stroke-linecap:round;stroke-linejoin:round;stroke-width:0.5px"/><line x1="146.2036" y1="94.0273" x2="158.869" y2="94.0273" style="fill:none;stroke:#a6abb0;stroke-linecap:round;stroke-linejoin:round;stroke-width:0.5px"/><line x1="115.463" y1="94.0273" x2="137.2316" y2="94.0273" style="fill:none;stroke:#a6abb0;stroke-linecap:round;stroke-linejoin:round;stroke-width:0.5px"/><line x1="48.0558" y1="94.0273" x2="69.8243" y2="94.0273" style="fill:none;stroke:#a6abb0;stroke-linecap:round;stroke-linejoin:round;stroke-width:0.5px"/><line x1="9.3249" y1="94.0273" x2="38.2431" y2="94.0273" style="fill:none;stroke:#a6abb0;stroke-linecap:round;stroke-linejoin:round;stroke-width:0.5px"/><path d="M37.0758,51.9219a2.8081,2.8081,0,0,1-.83-1.6314l-.4928-3.4831a.9777.9777,0,0,1,.224-.772.9509.9509,0,0,1,.7223-.3342h2.3978" style="fill:none;stroke:#a6abb0;stroke-linecap:round;stroke-linejoin:round;stroke-width:0.5px"/><line x1="21.6294" y1="64.8701" x2="15.5754" y2="64.8701" style="fill:none;stroke:#a6abb0;stroke-linecap:round;stroke-linejoin:round;stroke-width:0.5px"/><line x1="19.8345" y1="60.1623" x2="13.9616" y2="60.1623" style="fill:none;stroke:#a6abb0;stroke-linecap:round;stroke-linejoin:round;stroke-width:0.5px"/><line x1="18.6933" y1="55.4544" x2="13.0268" y2="55.4544" style="fill:none;stroke:#a6abb0;stroke-linecap:round;stroke-linejoin:round;stroke-width:0.5px"/><line x1="17.9175" y1="50.7466" x2="12.3069" y2="50.7466" style="fill:none;stroke:#a6abb0;stroke-linecap:round;stroke-linejoin:round;stroke-width:0.5px"/><line x1="17.394" y1="46.0387" x2="11.7525" y2="46.0387" style="fill:none;stroke:#a6abb0;stroke-linecap:round;stroke-linejoin:round;stroke-width:0.5px"/><line x1="17.0216" y1="41.3309" x2="11.3905" y2="41.3309" style="fill:none;stroke:#a6abb0;stroke-linecap:round;stroke-linejoin:round;stroke-width:0.5px"/><line x1="16.7122" y1="36.623" x2="11.0842" y2="36.623" style="fill:none;stroke:#a6abb0;stroke-linecap:round;stroke-linejoin:round;stroke-width:0.5px"/><path d="M151.4668,71.691c2.5246,1.1812,4.0488,3.8013,6.46,8.8824.9107,1.919,1.709,3.6449,2.4294,5.1954" style="fill:none;stroke:#a6abb0;stroke-linecap:round;stroke-linejoin:round;stroke-width:0.5px"/><path d="M62.6241,83.92c-6.2664-.0027-11.7988-.0057-16.0948-.0089l-1.2971-.001" style="fill:none;stroke:#a6abb0;stroke-linecap:round;stroke-linejoin:round;stroke-width:0.5px"/><path d="M139.5017,83.94l-4.0815-.0007c-3.7372-.0007-8.0638-.0014-12.7756-.0024" style="fill:none;stroke:#a6abb0;stroke-linecap:round;stroke-linejoin:round;stroke-width:0.5px"/><path d="M159.4817,83.8861q-4.5887.05-9.1882.0548l-.6143.0005" style="fill:none;stroke:#a6abb0;stroke-linecap:round;stroke-linejoin:round;stroke-width:0.5px"/><path d="M132.3265,116.3739c9.0181.0727,18.237.1354,26.9879.1758" style="fill:none;stroke:#a6abb0;stroke-linecap:round;stroke-linejoin:round;stroke-width:0.5px"/><path d="M121.2919,17.1324l1.8536-.007c10.5724-.04,22.4048-.0823,34.6438-.1207" style="fill:none;stroke:#a6abb0;stroke-linecap:round;stroke-linejoin:round;stroke-width:0.5px"/><path d="M52.0276,115.46l-22.2748-.3166a5.2024,5.2024,0,0,1-3.8784-1.8189L9.3555,94.0273H9.3249a1.8324,1.8324,0,0,1-1.2164-.4609A13.8273,13.8273,0,0,1,3.3636,83.4217c-.1357-5.4173.2433-12.1541.5825-20.3494a27.92,27.92,0,0,1,1.3422-8.46l.0064.1422c-.6459-5.0991-1.069-10.98-1.396-17.7262-.3962-8.175.3-8.44,5.1463-12.6215A1.6408,1.6408,0,0,1,10.05,24.027c1.8532-.0718,7.6861-.3008,11.69-.49,4.8165-.2281,5.2913-.7413,7.8691-2.5658s3.2448-2.159,7.0551-2.3948c8.0874-.5,16.4035-.8493,24.8838-1.06q1.5192-.0376,3.0374-.0695" style="fill:none;stroke:#a6abb0;stroke-linecap:round;stroke-linejoin:round;stroke-width:0.5px"/><line x1="135.0161" y1="45.731" x2="48.4163" y2="45.731" style="fill:none;stroke:#a6abb0;stroke-linecap:round;stroke-linejoin:round;stroke-width:0.5px"/><line x1="158.7806" y1="45.731" x2="147.0237" y2="45.731" style="fill:none;stroke:#a6abb0;stroke-linecap:round;stroke-linejoin:round;stroke-width:0.5px"/><line x1="138.6818" y1="52.5791" x2="46.6056" y2="52.5791" style="fill:none;stroke:#a6abb0;stroke-linecap:round;stroke-linejoin:round;stroke-width:0.5px"/><line x1="159.2761" y1="52.5791" x2="149.3164" y2="52.5791" style="fill:none;stroke:#a6abb0;stroke-linecap:round;stroke-linejoin:round;stroke-width:0.5px"/><line x1="27.1418" y1="114.3976" x2="29.5442" y2="127.8758" style="fill:none;stroke:#a6abb0;stroke-linecap:round;stroke-linejoin:round;stroke-width:0.5px"/><line x1="5.1991" y1="8.9759" x2="10.0495" y2="24.027" style="fill:none;stroke:#a6abb0;stroke-linecap:round;stroke-linejoin:round;stroke-width:0.5px"/><line x1="41.2112" y1="18.2929" x2="31.3075" y2="7.6384" style="fill:none;stroke:#a6abb0;stroke-linecap:round;stroke-linejoin:round;stroke-width:0.5px"/><line x1="150.5556" y1="79.8967" x2="157.604" y2="79.8967" style="fill:none;stroke:#a6abb0;stroke-linecap:round;stroke-linejoin:round;stroke-width:0.5px"/></g><g id="abab65c3-b5c4-4ad5-a506-a90835d08781" data-name="illustration"><rect x="52.0382" y="19.1014" width="81.587" height="34.9791" rx="2.2995" style="fill:#cfd2d4;stroke:#30373e;stroke-miterlimit:10;stroke-width:1.5px"/><path d="M130.22,49.6583a1.0174,1.0174,0,0,1-1.0175,1.0175H56.4605a1.0174,1.0174,0,0,1-1.0175-1.0175V23.5237a1.0174,1.0174,0,0,1,1.0175-1.0175H129.203a1.0174,1.0174,0,0,1,1.0175,1.0175V49.6583Z" style="fill:none;stroke:#30373e;stroke-miterlimit:10;stroke-width:0.5px"/></g><g id="aecaa390-12f6-4035-b30e-63ca85c6668c" data-name="above"><g id="a3d414c6-4ef0-461f-a92e-7b67a1f091f5" data-name="Offset Group"><path d="M35.306,56.7612h-.64a3.2873,3.2873,0,0,0-1.32.2752l-1.8481.8076a1.3493,1.3493,0,0,0-.59.4985,1.381,1.381,0,0,0-.22.63,1.0046,1.0046,0,0,0-.17.0963,1.537,1.537,0,0,0-.53.76l-.0059.0172a.5744.5744,0,0,0-.0243.0784s-.4866,1.5049-.4765,1.4767c-.0187.0478-.034.0931-.0529.1521a2.8092,2.8092,0,0,0-.1039.76v3.25a2.8133,2.8133,0,0,0,.11.7785c.0131.04.0283.0854.037.105,0,0,.4863,1.5058.4755,1.4671a1.0834,1.0834,0,0,0,.0351.1156l.0163.0484a1.5148,1.5148,0,0,0,.5207.7314,1.0153,1.0153,0,0,0,.1633.093v.0069a1.3822,1.3822,0,0,0,.2.7171,1.3491,1.3491,0,0,0,.5288.4972l1.8281.96a3.3743,3.3743,0,0,0,.352.159" style="fill:none;stroke:#a6abb0;stroke-miterlimit:10;stroke-width:0.5px"/><path d="M35.306,57.0112h-.64a3.0363,3.0363,0,0,0-1.22.2543l-1.8487.8079a1.0983,1.0983,0,0,0-.4809.4063,1.1313,1.1313,0,0,0-.185.6208v.0548a.7174.7174,0,0,0-.2713.1179,1.2783,1.2783,0,0,0-.4332.6261l-.0095.0285a.5706.5706,0,0,0-.0224.0729s-.4866,1.5047-.4816,1.4908c-.0162.0413-.03.0813-.0451.1291a2.5547,2.5547,0,0,0-.0945.6916v3.25a2.5581,2.5581,0,0,0,.0973.701c.0126.0384.0261.0784.0373.1057,0,0,.4865,1.5064.481,1.4866a.83.83,0,0,0,.0275.09l.0152.0456a1.2671,1.2671,0,0,0,.4292.6123.714.714,0,0,0,.27.1176v.1873a1.1319,1.1319,0,0,0,.1635.5875,1.0983,1.0983,0,0,0,.4313.4054l1.8276.96a3.1071,3.1071,0,0,0,.3258.1472" style="fill:none;stroke:#a6abb0;stroke-miterlimit:10;stroke-width:0.5px"/></g><path d="M35.306,57.2612h-.64a2.7887,2.7887,0,0,0-1.1194.2333l-1.8492.8082a.8677.8677,0,0,0-.5155.7978v.2925h-.1242c-.2467,0-.4628.2282-.59.5766-.01.0348-.0255.07-.0341.108l-.4865,1.5049c-.0136.0347-.0255.07-.0375.1062a2.307,2.307,0,0,0-.085.6235v3.25a2.297,2.297,0,0,0,.085.6235c.012.0366.0239.0715.0375.1064l.4865,1.5065c.0086.0366.0238.0714.0341.1063.1275.3483.3436.5782.59.5782h.1242v.425a.8667.8667,0,0,0,.461.7716l1.8272.96a2.8416,2.8416,0,0,0,.3.1354" style="fill:none;stroke:#a6abb0;stroke-miterlimit:10;stroke-width:0.5px"/><path d="M31.0578,68.4818c-.2387,0-.46-.216-.5933-.5779,0,0-.5468-1.6841-.5574-1.72a2.1952,2.1952,0,0,1-.0856-.6222V62.3132a2.2314,2.2314,0,0,1,.0856-.6227c.0106-.0366.56-1.7253.56-1.7253.1312-.3582.3521-.5721.5908-.5721h1.3488c.3937,0,.714.5852.714,1.3044v6.48c0,.7192-.32,1.3044-.714,1.3044Z" style="fill:none;stroke:#a6abb0;stroke-miterlimit:10;stroke-width:0.5px"/><g id="e5e7ad56-fd56-425f-81f5-243621e72424" data-name="Offset Group"><path d="M151.4749,71.3649a3.3454,3.3454,0,0,0,.7444-.2827l1.8257-.959a1.35,1.35,0,0,0,.53-.4979,1.3822,1.3822,0,0,0,.2-.7171v-.0068a1.0223,1.0223,0,0,0,.1632-.0931,1.5418,1.5418,0,0,0,.5308-.7618l.0062-.018a.6491.6491,0,0,0,.0241-.0761s.4864-1.5062.4767-1.4789c.0186-.0476.0338-.0925.0526-.1515a2.7969,2.7969,0,0,0,.104-.76v-3.25a2.8251,2.8251,0,0,0-.11-.7785c-.0131-.04-.0285-.0855-.0371-.1051,0,0-.4862-1.5039-.4744-1.46a1.0521,1.0521,0,0,0-.0365-.1229l-.0159-.0477a1.51,1.51,0,0,0-.52-.7293,1.0055,1.0055,0,0,0-.17-.0963,1.381,1.381,0,0,0-.22-.63,1.347,1.347,0,0,0-.5892-.4979l-1.8489-.808a3.2874,3.2874,0,0,0-1.32-.2754h-.81" style="fill:none;stroke:#a6abb0;stroke-miterlimit:10;stroke-width:0.5px"/><path d="M151.4147,71.1223a3.0943,3.0943,0,0,0,.6883-.2614l1.8264-.9594a1.1,1.1,0,0,0,.4321-.4058,1.1329,1.1329,0,0,0,.1635-.5875v-.1873a.7142.7142,0,0,0,.27-.1176,1.2823,1.2823,0,0,0,.4344-.628l.01-.03a.6316.6316,0,0,0,.0219-.07s.4865-1.5065.4816-1.4927c.0161-.0412.03-.0812.045-.129a2.543,2.543,0,0,0,.0946-.6916v-3.25a2.5657,2.5657,0,0,0-.0974-.701c-.0125-.0384-.0261-.0785-.0373-.1056,0,0-.4865-1.5049-.48-1.4822a.8373.8373,0,0,0-.0285-.0956l-.0148-.0442a1.2635,1.2635,0,0,0-.428-.61.717.717,0,0,0-.2712-.1179v-.0548a1.1314,1.1314,0,0,0-.1851-.6208,1.0975,1.0975,0,0,0-.48-.406l-1.8491-.8081a3.0364,3.0364,0,0,0-1.22-.2544h-.81" style="fill:none;stroke:#a6abb0;stroke-miterlimit:10;stroke-width:0.5px"/></g><path d="M151.3545,70.88a2.8469,2.8469,0,0,0,.6322-.24l1.8272-.96a.8668.8668,0,0,0,.4611-.7716v-.425h.1241c.2467,0,.4628-.23.59-.5782.01-.0349.0255-.07.034-.1062l.4866-1.5066c.0136-.0349.0255-.07.0374-.1063a2.2982,2.2982,0,0,0,.0851-.6236v-3.25a2.3075,2.3075,0,0,0-.0851-.6235c-.0119-.0366-.0238-.0715-.0374-.1062l-.4866-1.5049c-.0085-.0384-.0238-.0732-.034-.108-.1276-.3484-.3437-.5766-.59-.5766h-.1241v-.2925a.8678.8678,0,0,0-.5155-.7978l-1.8493-.8082a2.7883,2.7883,0,0,0-1.1194-.2333h-.81" style="fill:none;stroke:#a6abb0;stroke-miterlimit:10;stroke-width:0.5px"/><path d="M154.3993,68.4834h-1.348c-.3944,0-.7155-.586-.7155-1.306v-6.48c0-.72.3211-1.306.7155-1.306h1.348" style="fill:none;stroke:#a6abb0;stroke-miterlimit:10;stroke-width:0.5px"/><g id="ab6172a6-37fc-4331-a4a7-54c8c52af27d" data-name="Offset Group"><path d="M92.6437,10.5718A56.9719,56.9719,0,0,1,133.1278,27.52a61.2713,61.2713,0,0,1,17.8907,43.6784c0,13.8127-4.9051,27.4876-14.1852,39.5464a4.8326,4.8326,0,0,1-1.8267,1.5427,1.0655,1.0655,0,0,0-.58,1.04,1.7571,1.7571,0,0,1-.4816.7156,59.4515,59.4515,0,0,1-9.3915,8.0157,17.7289,17.7289,0,0,1-8.3255,3.0184c-7.4434.7062-15.3783,1.0643-23.5841,1.0643s-16.1408-.3581-23.5815-1.0641l-.0941-.0092a17.7378,17.7378,0,0,1-8.234-3.01,59.4492,59.4492,0,0,1-9.3915-8.0156,1.642,1.642,0,0,1-.4879-.7578,1,1,0,0,0-.7069-.9427,1.6634,1.6634,0,0,1-.3594-.1589,2.77,2.77,0,0,1-.7471-.6854c-9.6643-12.248-14.7725-26.1835-14.7725-40.3A61.4262,61.4262,0,0,1,51.3727,28.3221,58.0293,58.0293,0,0,1,70.5379,15.0694a56.1785,56.1785,0,0,1,22.1058-4.4976M48.838,59.4111c2.58,0,6.61-.8132,12.2021-1.9417q1.5216-.3071,3.2064-.644c1.171-.2333,2.2159-.4456,3.1675-.639,8.3294-1.6924,9.4-1.91,25.23-1.91s16.9.2175,25.23,1.91c.9516.1934,1.9965.4057,3.1677.639,1.1191.2228,2.184.4377,3.2208.6469,5.5773,1.1256,9.6071,1.9388,12.1876,1.9388a4.4868,4.4868,0,0,0,2.3-.5872,3.41,3.41,0,0,0,1.2717-1.3253,4.467,4.467,0,0,0,.4964-1.9189A11.6316,11.6316,0,0,0,139.4119,50.7c-1.9551-4.66-3.892-5.9973-5.8-7.3153a12.9272,12.9272,0,0,1-2.82-2.4079,15.7984,15.7984,0,0,1-1.069-1.672l-.0318-.0536a39.372,39.372,0,0,0-14.57-15.0657c-6.2756-3.5723-13.838-5.3835-22.4771-5.3835s-16.2016,1.8112-22.4771,5.3835a39.3733,39.3733,0,0,0-14.57,15.0657l-.0317.0533a15.7843,15.7843,0,0,1-1.0695,1.6729,13.0715,13.0715,0,0,1-2.8545,2.4317c-1.8732,1.2936-3.81,2.6312-5.7653,7.2909a11.6288,11.6288,0,0,0-1.1061,4.88,4.4655,4.4655,0,0,0,.4963,1.9189,3.4105,3.4105,0,0,0,1.2717,1.3253,4.4874,4.4874,0,0,0,2.3006.5872m61.7488,57.59.0236,0c1.8437-.0434,3.494-.1524,4.9044-.3237a13.484,13.484,0,0,0,6.3623-2.4884c.3207-.2389.6388-.4828.9417-.7217a2.2027,2.2027,0,0,1,.8709-.4232c.0353-.0076.0692-.0135.1015-.018a1,1,0,0,0,.8532-.8555,1.0291,1.0291,0,0,1,.3685-.5338,55.1583,55.1583,0,0,0,15.1607-23.8308,6.4974,6.4974,0,0,0,.0662-4.342,3.1759,3.1759,0,0,0-1.1525-1.3929,4.7841,4.7841,0,0,0-2.5867-.7106c-.5161-.0128-1.05-.0187-1.5933-.0187-3.2789,0-6.8633.2156-8.9606.4291a5.5843,5.5843,0,0,0-2.2061.7376,8.3963,8.3963,0,0,0-2.4093,2.1256c-1.18,1.7729-2.9418,4.3052-4.5028,6.5492-.8423,1.2109-1.6158,2.3228-2.1928,3.1645l-.2436.3546-.0557.0808a12.3647,12.3647,0,0,0-2.6113,6.66c-.0075.0513-1.72,11.6513-2.1275,14.4117a1,1,0,0,0,.9892,1.146m-35.8863,0a1,1,0,0,0,.9893-1.146L73.5612,101.437a12.3543,12.3543,0,0,0-2.61-6.6542l-.8237.5671.79-.6162-.2656-.3865c-.577-.8417-1.3509-1.9543-2.1937-3.1658-1.4817-2.13-3.1516-4.5306-4.34-6.305a1.0021,1.0021,0,0,0-.1094-.1934,8.5787,8.5787,0,0,0-2.4613-2.1746,5.582,5.582,0,0,0-2.2065-.7377l-.0683-.0069c-2.0945-.21-5.6563-.4222-8.8918-.4222-.5435,0-1.0775.0059-1.5936.0187a4.7848,4.7848,0,0,0-2.5865.7105,3.1763,3.1763,0,0,0-1.1525,1.3929,6.5309,6.5309,0,0,0,.0735,4.3659,55.13,55.13,0,0,0,15.1528,23.8065,1.03,1.03,0,0,1,.369.5343,1,1,0,0,0,.854.8558c.0325.0044.0662.01.1009.0177a2.168,2.168,0,0,1,.8539.41c.32.2522.638.496.9576.7341a13.4837,13.4837,0,0,0,6.3623,2.4889c1.4108.1715,3.0612.28,4.9053.3239l.0236,0M92.6437,99.979c-1.9044,0-3.6242-.0237-5.0061-.0428-.9247-.0128-1.6837-.0232-2.2341-.0232-.2236,0-.4142.0018-.5689.0056a1.7034,1.7034,0,0,0-.8952.264,1.781,1.781,0,0,0-.6347.74,3.2414,3.2414,0,0,0-.2685,1.5144c.0805,1.4115.2432,2.8574.36,3.6035a3.0568,3.0568,0,0,0,.8942,1.7335,3.1122,3.1122,0,0,0,1.8857.8071l.086.0077c1.2976.1013,3.1918.1143,4.697.1143l.95-.0012.07,0,.6642-.0009.6641.0009.07,0,.9479.0012c1.5062,0,3.4022-.0131,4.7053-.1149a3.1412,3.1412,0,0,0,1.9437-.794,3.0519,3.0519,0,0,0,.9162-1.7555c.1165-.7509.2788-2.1982.36-3.602a3.2427,3.2427,0,0,0-.2686-1.5143,1.7818,1.7818,0,0,0-.6344-.74,1.7042,1.7042,0,0,0-.8956-.2641c-.1546-.0038-.3451-.0056-.5688-.0056-.55,0-1.3095.01-2.2341.0232-1.3819.0191-3.1016.0428-5.006.0428m0-90.4072a57.3292,57.3292,0,0,0-22.4972,4.5773A59.3541,59.3541,0,0,0,50.6524,27.6283a62.6272,62.6272,0,0,0-17.3836,43.57c0,15.7247,6.1147,29.6745,14.9875,40.9194a3.7158,3.7158,0,0,0,1.0259.9285,2.6751,2.6751,0,0,0,.5726.2525,1.199,1.199,0,0,0,.033.2589,2.739,2.739,0,0,0,.731,1.1755,60.28,60.28,0,0,0,9.55,8.15,18.7049,18.7049,0,0,0,8.6994,3.18l.0969.0095c6.1073.58,14.0934,1.0688,23.6786,1.0688s17.5713-.4893,23.6786-1.0688a18.7055,18.7055,0,0,0,8.7963-3.189,60.2807,60.2807,0,0,0,9.55-8.1506,2.7394,2.7394,0,0,0,.7311-1.1755,1.1434,1.1434,0,0,0,.029-.3636,5.8882,5.8882,0,0,0,2.1972-1.8394c8.55-11.11,14.3927-24.7855,14.3927-40.1563a62.5906,62.5906,0,0,0-18.1836-44.3855A58.0668,58.0668,0,0,0,92.6437,9.5718ZM48.838,58.4111a3.5109,3.5109,0,0,1-1.7884-.446,2.4178,2.4178,0,0,1-.9041-.9418,3.4577,3.4577,0,0,1-.3773-1.4925,10.566,10.566,0,0,1,1.0294-4.4437c1.85-4.409,3.6372-5.63,5.4346-6.871A13.9934,13.9934,0,0,0,55.26,41.6222a16.3947,16.3947,0,0,0,1.1966-1.86A38.245,38.245,0,0,1,70.6613,25.0548c5.3118-3.0237,12.4263-5.2526,21.9824-5.2526s16.6705,2.2289,21.9823,5.2526a38.2456,38.2456,0,0,1,14.205,14.7071,16.3882,16.3882,0,0,0,1.1964,1.86,13.9919,13.9919,0,0,0,3.0277,2.5941c1.7975,1.2413,3.5847,2.462,5.4347,6.871a10.5692,10.5692,0,0,1,1.0294,4.4438,3.4576,3.4576,0,0,1-.3774,1.4924,2.4176,2.4176,0,0,1-.904.9418,3.5109,3.5109,0,0,1-1.7884.446c-2.4671,0-6.3714-.7852-11.99-1.9191q-1.5294-.3086-3.2233-.6474c-1.17-.233-2.2134-.445-3.1639-.6381-8.4456-1.7161-9.5295-1.93-25.4287-1.93s-16.9831.2139-25.4288,1.93c-.9505.1931-1.9941.4051-3.1638.6381q-1.6941.3374-3.2233.6474c-5.6184,1.1339-9.5227,1.9191-11.99,1.9191Zm25.8625,57.59c-2.0282-.0478-3.6022-.17-4.8083-.3169a12.5388,12.5388,0,0,1-5.8849-2.2977c-.3131-.2332-.6238-.4715-.9367-.718a3.17,3.17,0,0,0-1.2635-.6026c-.0594-.0127-.1173-.0227-.1733-.03a1.96,1.96,0,0,0-.6748-1.128A54.4719,54.4719,0,0,1,46.0749,87.5294a5.6023,5.6023,0,0,1-.11-3.6672,2.1779,2.1779,0,0,1,.7941-.962,3.7867,3.7867,0,0,1,2.0526-.54c.508-.0126,1.0338-.0184,1.5688-.0184,3.1669,0,6.6636.2037,8.792.4172l.068.0069a4.6,4.6,0,0,1,1.81.6109,7.5509,7.5509,0,0,1,2.1468,1.8919.4975.4975,0,0,1-.0868-.0992c1.2,1.8022,2.9794,4.36,4.5262,6.5831.8413,1.2094,1.6138,2.32,2.19,3.16q.1427.2082.2747.4a11.432,11.432,0,0,1,2.4713,6.2747l2.1279,14.4142Zm35.8864,0,2.1276-14.4122a11.4338,11.4338,0,0,1,2.4715-6.2766q.132-.1918.2747-.4c.5758-.84,1.3479-1.95,2.1887-3.1586,1.547-2.2239,3.3266-4.7821,4.5143-6.566a7.401,7.401,0,0,1,2.073-1.8115,4.6008,4.6008,0,0,1,1.8108-.6109c2.1213-.216,5.6591-.4241,8.86-.4241.5351,0,1.0605.0058,1.5686.0184a3.7873,3.7873,0,0,1,2.0527.54,2.1777,2.1777,0,0,1,.794.962,5.5915,5.5915,0,0,1-.1077,3.6593,54.48,54.48,0,0,1-14.8867,23.3863,1.959,1.959,0,0,0-.6746,1.1276c-.0551.0077-.1131.0177-.1734.0306a3.1812,3.1812,0,0,0-1.2691.607q-.4607.3631-.9314.7139a12.54,12.54,0,0,1-5.8848,2.2975c-1.2059.1465-2.78.269-4.808.3168ZM92.6437,100.979c1.911,0,3.6425-.0239,5.02-.0429.9189-.0127,1.6734-.0231,2.22-.0231.214,0,.3962.0016.5441.0053a.7088.7088,0,0,1,.3784.1048.7979.7979,0,0,1,.2761.3351,2.1975,2.1975,0,0,1,.17,1.0218c-.0817,1.413-.2441,2.8245-.35,3.5057a2.0633,2.0633,0,0,1-.6073,1.175,2.1463,2.1463,0,0,1-1.343.5309c-1.25.0977-3.0677.1118-4.6267.1118-.3295,0-.6473-.0006-.9458-.0012-.2628-.0006-.51-.0011-.7365-.0011s-.4738.0005-.7365.0011c-.2991.0006-.6178.0012-.9478.0012-1.5585,0-3.374-.0141-4.6191-.1113l-.0747-.0067a2.1075,2.1075,0,0,1-1.2878-.5376,2.0686,2.0686,0,0,1-.5934-1.1621c-.107-.6814-.2693-2.0924-.35-3.5053a2.2,2.2,0,0,1,.17-1.0222.7981.7981,0,0,1,.2762-.3351.7085.7085,0,0,1,.3784-.1048c.1478-.0037.33-.0053.544-.0053.547,0,1.3014.01,2.22.0231,1.3774.019,3.1088.0429,5.02.0429Z" style="fill:#f4f4f4"/><path d="M92.6437,10.8218A56.7233,56.7233,0,0,1,132.951,27.697a61.0227,61.0227,0,0,1,17.8175,43.5016c0,13.7571-4.8872,27.3792-14.1333,39.394a4.5316,4.5316,0,0,1-1.88,1.5329,1,1,0,0,0-.5815,1.1746,1.8069,1.8069,0,0,1-.41.5708,59.1984,59.1984,0,0,1-9.352,7.9819,17.4774,17.4774,0,0,1-8.2077,2.9758c-7.4358.7055-15.3627,1.0632-23.5605,1.0632s-16.1248-.3577-23.5577-1.0629l-.0937-.0092a17.4865,17.4865,0,0,1-8.1169-2.9669,59.2014,59.2014,0,0,1-9.3519-7.9819,1.7379,1.7379,0,0,1-.4136-.5821,1,1,0,0,0-.77-1.1538,1.4154,1.4154,0,0,1-.4255-.1667,2.5234,2.5234,0,0,1-.6773-.6246C39.6085,99.14,34.5188,85.2584,34.5188,71.1986A61.1775,61.1775,0,0,1,51.5527,28.4955a57.782,57.782,0,0,1,19.083-13.1961,55.9316,55.9316,0,0,1,22.008-4.4776M48.838,59.6611c2.6055,0,6.6455-.8153,12.2371-1.9438l.0889-.0179q1.4883-.3,3.1313-.6289c1.1643-.2318,2.2039-.4431,3.1685-.6391,8.3076-1.688,9.375-1.9049,25.18-1.9049s16.8722.2169,25.1955,1.9081c.9474.1925,1.9877.4039,3.153.636,1.116.2222,2.1781.4365,3.22.6467,5.5915,1.1285,9.6315,1.9438,12.2371,1.9438a4.7368,4.7368,0,0,0,2.4286-.6224,3.6574,3.6574,0,0,0,1.3636-1.4212,4.7145,4.7145,0,0,0,.5261-2.0255,11.8671,11.8671,0,0,0-1.1253-4.9885c-1.9834-4.7269-3.9568-6.09-5.8832-7.42a12.7633,12.7633,0,0,1-2.7766-2.3673,16.5475,16.5475,0,0,1-1.0768-1.6921,39.6036,39.6036,0,0,0-14.6614-15.1553c-6.3138-3.5939-13.9178-5.4162-22.6007-5.4162s-16.287,1.8223-22.6008,5.4162a39.6457,39.6457,0,0,0-14.679,15.1851,16.1965,16.1965,0,0,1-1.06,1.6628A12.8357,12.8357,0,0,1,51.51,43.1957c-1.9084,1.318-3.8818,2.6809-5.8651,7.4077A11.8671,11.8671,0,0,0,44.52,55.592a4.7128,4.7128,0,0,0,.526,2.0253,3.6587,3.6587,0,0,0,1.3636,1.4214,4.7374,4.7374,0,0,0,2.4287.6224m61.4583,57.5964.02,0c1.9743-.0387,3.7338-.15,5.2291-.332a13.7389,13.7389,0,0,0,6.4817-2.5362c.3224-.24.6422-.4854.9468-.7257a1.9491,1.9491,0,0,1,.7686-.3752,1.2191,1.2191,0,0,1,.1991-.0262.9853.9853,0,0,0,.7073-.3259.9665.9665,0,0,0,.2436-.7314c0-.0013.0268-.1365.2921-.386a55.4075,55.4075,0,0,0,15.2279-23.938,6.6507,6.6507,0,0,0,.057-4.5168,3.4246,3.4246,0,0,0-1.2421-1.5006,5.0284,5.0284,0,0,0-2.72-.753c-.5183-.0128-1.0544-.0188-1.6-.0188-3.2868,0-6.8814.2162-8.9852.43a5.8311,5.8311,0,0,0-2.3048.7691,8.6791,8.6791,0,0,0-2.4868,2.1946c-1.1875,1.7833-2.9508,4.3181-4.5065,6.5545-.8422,1.2106-1.6162,2.3234-2.1937,3.1658l-.2862.4164a12.6019,12.6019,0,0,0-2.6653,6.783l-2.1711,14.706a1,1,0,0,0,.9893,1.146m-49.9015-5.0759.0005-.0007a1,1,0,0,0,.9491,1.0812,1.2479,1.2479,0,0,1,.201.0262,1.922,1.922,0,0,1,.7543.3642q.4785.3771.96.7361a13.7364,13.7364,0,0,0,6.4817,2.5366c1.4959.1818,3.2555.2935,5.23.3322l.02,0a1,1,0,0,0,.9892-1.146l-2.1717-14.711a12.6277,12.6277,0,0,0-2.6777-6.797l-.2733-.3976c-.5776-.8426-1.3521-1.956-2.1951-3.1679-1.5555-2.2361-3.3185-4.7706-4.5116-6.5616l-.028.0186a8.6936,8.6936,0,0,0-2.4521-2.2038,5.8283,5.8283,0,0,0-2.3044-.7691l-.0693-.0071c-2.1008-.2108-5.6725-.4234-8.9162-.4234-.5456,0-1.0822.006-1.6.0188a5.0272,5.0272,0,0,0-2.72.7531,3.4223,3.4223,0,0,0-1.2421,1.5005,6.6761,6.6761,0,0,0,.0631,4.5366,55.3837,55.3837,0,0,0,15.2213,23.9177,1.2414,1.2414,0,0,1,.2921.3633M92.6437,99.729c-1.9051,0-3.6226-.0237-5.0026-.0428-.9213-.0127-1.6824-.0232-2.2366-.0232-.2261,0-.4192.0018-.576.0057a1.95,1.95,0,0,0-1.0247.3038,2.0275,2.0275,0,0,0-.7242.8416,3.4358,3.4358,0,0,0-.293,1.6375c.0809,1.4194.2448,2.8756.3629,3.6279a3.3082,3.3082,0,0,0,.9695,1.8765,3.3562,3.3562,0,0,0,2.0326.8742l.0885.0078c1.3084.1023,3.2091.1154,4.7189.1154l.9507-.0012.0712,0,.6628-.0009.6627.0009.0712,0,.95.0012c1.51,0,3.4118-.0131,4.7235-.1157a3.3849,3.3849,0,0,0,2.0941-.86,3.3024,3.3024,0,0,0,.9932-1.9c.1174-.7565.2809-2.2138.3627-3.6264a3.4373,3.4373,0,0,0-.2931-1.6375,2.0285,2.0285,0,0,0-.7243-.8415,1.95,1.95,0,0,0-1.0245-.3037c-.1569-.0039-.35-.0057-.5761-.0057-.5542,0-1.3153.0105-2.2366.0232-1.38.0191-3.0974.0428-5.0025.0428m-32.2482,12.45h0M92.6437,9.8218a57.0778,57.0778,0,0,0-22.3993,4.5574A59.1018,59.1018,0,0,0,50.8325,27.8018,62.3772,62.3772,0,0,0,33.5188,71.1986c0,15.6574,6.0882,29.5542,14.9337,40.7646a3.4683,3.4683,0,0,0,.9562.8676,2.4138,2.4138,0,0,0,.7171.2809.8147.8147,0,0,0,.0053.3887,2.5027,2.5027,0,0,0,.6686,1.0605,60.03,60.03,0,0,0,9.51,8.1168,18.4551,18.4551,0,0,0,8.5824,3.137l.0963.0094c6.1.5788,14.0782,1.0677,23.6549,1.0677s17.5549-.4889,23.6549-1.0677a18.4539,18.4539,0,0,0,8.6787-3.1464,60.0289,60.0289,0,0,0,9.51-8.1168,2.5017,2.5017,0,0,0,.6686-1.0605.7752.7752,0,0,0-.0147-.4525,5.5614,5.5614,0,0,0,2.2862-1.8455c8.5236-11.0758,14.3408-24.6987,14.3408-40.0038a62.34,62.34,0,0,0-18.11-44.2087A57.8167,57.8167,0,0,0,92.6437,9.8218ZM48.838,58.6611a3.7592,3.7592,0,0,1-1.9165-.4813,2.6669,2.6669,0,0,1-.9959-1.0377,3.7048,3.7048,0,0,1-.4071-1.599A10.8065,10.8065,0,0,1,46.567,50.99c1.8743-4.4669,3.7009-5.7215,5.5231-6.98a13.7515,13.7515,0,0,0,2.9787-2.5494,16.28,16.28,0,0,0,1.1726-1.8267A38.4925,38.4925,0,0,1,70.5376,24.8375c5.3516-3.0463,12.5091-5.2853,22.1061-5.2853s16.7544,2.239,22.106,5.2853a38.4919,38.4919,0,0,1,14.2962,14.7968,16.254,16.254,0,0,0,1.1726,1.8265,13.7485,13.7485,0,0,0,2.9787,2.55c1.8223,1.2586,3.6488,2.5132,5.5231,6.98a10.8057,10.8057,0,0,1,1.0486,4.5527,3.7048,3.7048,0,0,1-.4071,1.599,2.6665,2.6665,0,0,1-.996,1.0377,3.7589,3.7589,0,0,1-1.9164.4813c-2.4989,0-6.435-.793-12.0393-1.924q-1.5294-.3087-3.2227-.6473c-1.17-.2331-2.2143-.4452-3.1647-.6383-8.4235-1.7116-9.4894-1.925-25.379-1.925s-16.9555.2134-25.379,1.925c-.9505.1931-1.9945.4052-3.1647.6383q-1.6938.3371-3.2227.6473c-5.6044,1.131-9.5405,1.924-12.0393,1.924Zm26.153,57.5964a51.1658,51.1658,0,0,1-5.1288-.325,12.7883,12.7883,0,0,1-6.0042-2.3454q-.4725-.3519-.9393-.72a2.923,2.923,0,0,0-1.1639-.5566,2.25,2.25,0,0,0-.3629-.0473.8044.8044,0,0,0,.0025-.0965,1.6079,1.6079,0,0,0-.6066-1.0769A54.725,54.725,0,0,1,45.8353,87.6a5.8361,5.8361,0,0,1-.1-3.8378,2.427,2.427,0,0,1,.8836-1.07,4.031,4.031,0,0,1,2.1861-.5827c.51-.0127,1.0385-.0185,1.5757-.0185,3.1765,0,6.681.2042,8.8164.4184l.0681.0069a4.8507,4.8507,0,0,1,1.9093.6426A7.5762,7.5762,0,0,1,63.32,85.0323l-.0016-.0015c1.1988,1.8,2.9761,4.3545,4.5234,6.5789.8411,1.2091,1.6142,2.32,2.1908,3.1616q.1424.2078.2744.3993a11.6675,11.6675,0,0,1,2.5127,6.38l2.1711,14.707Zm35.3053,0c.3086-2.09,2.171-14.706,2.171-14.706a11.669,11.669,0,0,1,2.5128-6.3808q.132-.192.2744-.3993c.5764-.8408,1.349-1.9516,2.19-3.16,1.5476-2.2248,3.3254-4.7806,4.518-6.5713a7.6828,7.6828,0,0,1,2.1505-1.8806,4.8522,4.8522,0,0,1,1.9094-.6426c2.1285-.2167,5.6742-.4253,8.8845-.4253.5373,0,1.0652.0058,1.5755.0185a4.0314,4.0314,0,0,1,2.1862.5827,2.4276,2.4276,0,0,1,.8836,1.07,5.8314,5.8314,0,0,1-.0986,3.8339A54.7285,54.7285,0,0,1,124.5,111.09a1.6078,1.6078,0,0,0-.6065,1.0768.7782.7782,0,0,0,.0026.0964,2.2161,2.2161,0,0,0-.363.0474,2.9273,2.9273,0,0,0-1.1668.5588q-.4632.3652-.9365.718a12.7908,12.7908,0,0,1-6.0043,2.3453,51.1945,51.1945,0,0,1-5.1287.3249ZM92.6437,100.729c1.9091,0,3.639-.0239,5.0164-.0429.9155-.0126,1.672-.0231,2.2227-.0231.2165,0,.4012.0016.5513.0054a.9561.9561,0,0,1,.5076.1446,1.0454,1.0454,0,0,1,.3658.4364,2.4451,2.4451,0,0,1,.1949,1.145c-.0822,1.42-.2454,2.84-.3524,3.53a2.3133,2.3133,0,0,1-.6845,1.32,2.3947,2.3947,0,0,1-1.4933.5966c-1.26.0985-3.0857.1126-4.6449.1126-.3306,0-.649-.0007-.9477-.0012-.2628-.0006-.51-.0011-.7359-.0011s-.4732.0005-.736.0011c-.2989,0-.6179.0012-.9487.0012-1.559,0-3.3838-.0141-4.641-.1123l-.0772-.0069a2.3552,2.3552,0,0,1-1.4347-.6048,2.3175,2.3175,0,0,1-.6687-1.3049c-.1083-.69-.2715-2.11-.3524-3.53a2.4432,2.4432,0,0,1,.1949-1.1453,1.0452,1.0452,0,0,1,.3657-.4364.9565.9565,0,0,1,.5077-.1446c.15-.0038.3348-.0054.5513-.0054.5507,0,1.307.0105,2.2227.0231,1.3774.019,3.1073.0429,5.0164.0429Z" style="fill:#f4f4f4"/></g><path d="M92.6437,11.0718c31.9123,0,57.8748,26.9727,57.8748,60.1268,0,13.7014-4.8692,27.2708-14.0815,39.2415a4.1576,4.1576,0,0,1-2.0455,1.5556,1,1,0,0,0-.5653,1.4133,2.6686,2.6686,0,0,1-.2434.2894,58.9527,58.9527,0,0,1-9.3122,7.9483,17.2289,17.2289,0,0,1-8.09,2.933c-7.428.7048-15.347,1.0621-23.5369,1.0621s-16.1089-.3573-23.5368-1.0621a17.2291,17.2291,0,0,1-8.09-2.9331,58.9458,58.9458,0,0,1-9.3123-7.9483,2.6441,2.6441,0,0,1-.2432-.2893,1,1,0,0,0-.5754-1.4167,2.2529,2.2529,0,0,0-.3272-.0719,1.582,1.582,0,0,1-1.1248-.7315C39.84,99.03,34.7688,85.2016,34.7688,71.1986c0-33.1541,25.9625-60.1268,57.8749-60.1268M48.838,59.9111c2.6306,0,6.6813-.8175,12.2877-1.9489q1.5277-.3084,3.2184-.6465c1.1722-.2335,2.218-.446,3.17-.6393,8.2859-1.6836,9.35-1.9,25.13-1.9s16.8441.2163,25.13,1.9c.9516.1933,1.9974.4058,3.17.6394q1.6911.3366,3.2183.6464c5.6064,1.1314,9.6571,1.9489,12.2877,1.9489a4.4506,4.4506,0,0,0,3.8225-1.8589c1.1258-1.6935.9916-4.2321-.399-7.5455-2.0117-4.7943-4.0216-6.1824-5.9653-7.5249a12.601,12.601,0,0,1-2.7339-2.3271,16.737,16.737,0,0,1-1.0529-1.6586c-3.3606-5.66-12.2873-20.6939-37.4771-20.6939S58.5271,33.3364,55.1666,38.9961a16.728,16.728,0,0,1-1.0534,1.659A12.5979,12.5979,0,0,1,51.38,42.9818c-1.9438,1.3425-3.9537,2.7306-5.9654,7.5249-1.3905,3.3134-1.5248,5.852-.399,7.5454a4.4508,4.4508,0,0,0,3.8226,1.859m61.1679,57.6016.0158,0a53.9125,53.9125,0,0,0,5.5534-.3391,13.99,13.99,0,0,0,6.6011-2.584c.324-.2414.6457-.4881.9521-.73a1.4653,1.4653,0,0,1,.8739-.3508l.019,0,.0129-.0011a.9488.9488,0,0,0,.2837.0442.9805.9805,0,0,0,.8752-1.376,1.5061,1.5061,0,0,1,.1624-.1753,55.651,55.651,0,0,0,15.2951-24.0451c.6773-2.2838.5514-4.1563-.3642-5.4151a4.5176,4.5176,0,0,0-3.7733-1.68c-.52-.0128-1.0581-.0188-1.6058-.0188-3.2965,0-6.9014.2168-9.0111.4317a7.9136,7.9136,0,0,0-4.9677,3.0645c-1.1917,1.7889-2.9547,4.3234-4.51,6.5594-.842,1.21-1.6168,2.3242-2.1949,3.1676l-.2729.397a12.84,12.84,0,0,0-2.72,6.9062l-2.2142,14.9986a1,1,0,0,0,.9892,1.1461m-49.9138-5.34a.97.97,0,0,0,.8436,1.3865.9322.9322,0,0,0,.291-.0477.4443.4443,0,0,1,.0585-.003,1.4477,1.4477,0,0,1,.8626.3421q.4767.3756.9628.738a13.99,13.99,0,0,0,6.601,2.5843,53.92,53.92,0,0,0,5.5541.3392l.0157,0a1,1,0,0,0,.9893-1.1461L74.0559,101.364a12.8348,12.8348,0,0,0-2.719-6.9021l-.2731-.3973c-.5784-.8439-1.3539-1.9586-2.1966-3.17C67.3124,88.6593,65.55,86.126,64.3327,84.3a7.9044,7.9044,0,0,0-4.9408-3.027c-2.1105-.2149-5.7155-.4317-9.0117-.4317-.5474,0-1.0858.006-1.6059.0188a4.5178,4.5178,0,0,0-3.7732,1.68c-.9156,1.2588-1.0416,3.1314-.3594,5.4311a55.6384,55.6384,0,0,0,15.29,24.0288,1.53,1.53,0,0,1,.16.1727M92.6437,99.479c-1.9007,0-3.619-.0237-5-.0428-.9181-.0127-1.6814-.0232-2.2393-.0232-.2281,0-.4235.0018-.5822.0057a2.1526,2.1526,0,0,0-1.5687.6935,3.3,3.3,0,0,0-.7167,2.3536c.0814,1.4281.2466,2.8945.3655,3.6525a3.4537,3.4537,0,0,0,3.3153,2.9687c1.32.1032,3.2264.1164,4.74.1164l.9524-.0013.7336-.001.7335.001.9524.0013c1.5136,0,3.42-.0132,4.7407-.1164a3.454,3.454,0,0,0,3.3148-2.9705c.1183-.7629.2831-2.23.3653-3.6506a3.3,3.3,0,0,0-.7168-2.3538,2.1527,2.1527,0,0,0-1.5686-.6934c-.1589-.0039-.354-.0057-.5823-.0057-.558,0-1.3212.0105-2.24.0232-1.3807.0191-3.0991.0428-4.9995.0428m0-89.4072c-32.5165,0-58.8749,27.3669-58.8749,61.1268,0,15.59,6.0616,29.4338,14.88,40.61a2.6366,2.6366,0,0,0,1.9275,1.1349c-.3711.1464-.302.7043.4044,1.4452a59.7785,59.7785,0,0,0,9.4707,8.0831,18.2044,18.2044,0,0,0,8.561,3.1037c6.0928.5781,14.0631,1.0666,23.6313,1.0666s17.5385-.4885,23.6313-1.0666a18.2036,18.2036,0,0,0,8.5609-3.1037,59.7792,59.7792,0,0,0,9.4708-8.0831c.7064-.7409.7755-1.2988.4044-1.4452A5.2048,5.2048,0,0,0,137.23,111.05c8.497-11.0414,14.2889-24.612,14.2889-39.8514,0-33.76-26.3583-61.1268-58.8748-61.1268ZM48.838,58.9111c-2.3782,0-5.141-1.7279-2.5015-8.0175,2.9071-6.9281,5.7377-6.2692,8.5412-9.5939,2.1661-2.566,9.4375-21.9975,37.766-21.9975S128.2435,38.7337,130.41,41.3c2.8036,3.3247,5.6342,2.6658,8.5412,9.5939,2.64,6.29-.1233,8.0175-2.5014,8.0175-2.9922,0-7.9938-1.1195-15.3108-2.5761-11.52-2.2947-10.8183-2.5585-28.4949-2.5585S75.6685,54.04,64.1488,56.335c-7.317,1.4566-12.3187,2.5761-15.3108,2.5761Zm61.1679,57.6016L112.22,101.514c.5733-3.7777,1.1885-4.4909,2.8282-6.884s4.865-6.9646,6.7124-9.7378a6.9234,6.9234,0,0,1,4.2361-2.624c2.1357-.2174,5.69-.4266,8.91-.4266.5392,0,1.0688.0058,1.5811.0185,3.611.09,4.1022,2.7809,3.2035,5.8114a54.9781,54.9781,0,0,1-15.0211,23.6006c-.8482.7976-.42,1.2584-.42,1.2584a1.19,1.19,0,0,0-.2481-.0215,2.4483,2.4483,0,0,0-1.4816.5566q-.4659.3674-.9418.722a13.0389,13.0389,0,0,1-6.1236,2.3931,52.407,52.407,0,0,1-5.4493.332ZM61.037,112.5305s.4278-.4608-.42-1.2584a54.9794,54.9794,0,0,1-15.021-23.6006c-.8988-3.03-.4075-5.7219,3.2035-5.8114.512-.0127,1.0421-.0185,1.5811-.0185,3.22,0,6.7745.2091,8.91.4266a6.9234,6.9234,0,0,1,4.2361,2.624c1.8474,2.7732,5.0727,7.3459,6.7123,9.7378s2.255,3.1063,2.8282,6.884l2.2142,14.9987a52.4309,52.4309,0,0,1-5.4492-.332,13.0389,13.0389,0,0,1-6.1236-2.3931q-.4752-.354-.9419-.722a2.4478,2.4478,0,0,0-1.4815-.5566,1.19,1.19,0,0,0-.2482.0215ZM92.6437,100.479c3.1709,0,5.8474-.066,7.239-.066.2186,0,.4054.0017.5576.0054,1.1206.0278,1.3548,1.2345,1.3117,1.99-.0826,1.4276-.2466,2.8551-.3551,3.5544a2.4688,2.4688,0,0,1-2.4052,2.1268c-1.2689.0991-3.1027.1133-4.6621.1133-.6238,0-1.2036-.0023-1.6859-.0023s-1.0623.0023-1.686.0023c-1.5594,0-3.393-.0142-4.662-.1133a2.4691,2.4691,0,0,1-2.4053-2.1268c-.11-.6993-.2736-2.1268-.355-3.5544-.0432-.756.191-1.9627,1.3117-1.99.1521-.0037.3391-.0054.5575-.0054,1.3916,0,4.0679.066,7.2391.066Z" style="fill:#f4f4f4"/><g id="b51150ef-bdb2-47dc-830a-f15b4cb749ae" data-name="Offset Group"><path d="M47.05,57.965a2.4175,2.4175,0,0,1-.9041-.9417,3.4592,3.4592,0,0,1-.3773-1.4925,10.5676,10.5676,0,0,1,1.0294-4.4437c1.85-4.409,3.6372-5.63,5.4346-6.871A13.9934,13.9934,0,0,0,55.26,41.6222a16.37,16.37,0,0,0,1.1965-1.86,38.245,38.245,0,0,1,14.205-14.7072c5.3118-3.0237,12.4263-5.2526,21.9824-5.2526s16.6705,2.2289,21.9823,5.2526a38.2449,38.2449,0,0,1,14.205,14.7071,16.3649,16.3649,0,0,0,1.1964,1.86,13.9943,13.9943,0,0,0,3.0277,2.5941c1.7975,1.2413,3.5847,2.462,5.4347,6.8711a10.5685,10.5685,0,0,1,1.0294,4.4436,3.4577,3.4577,0,0,1-.3774,1.4925,2.4183,2.4183,0,0,1-.904.9418,3.5109,3.5109,0,0,1-1.7884.446c-2.4672,0-6.3714-.7852-11.99-1.9191q-1.5294-.3086-3.2233-.6474c-1.17-.233-2.2134-.445-3.1638-.6381-8.4457-1.7161-9.53-1.93-25.4288-1.93s-16.9831.2139-25.4288,1.93c-.9505.1931-1.9941.4051-3.1637.6381q-1.6942.3374-3.2234.6474c-5.6184,1.1339-9.5227,1.9191-11.99,1.9191A3.51,3.51,0,0,1,47.05,57.965Zm39.216,49.62a2.1075,2.1075,0,0,1-1.2878-.5376,2.068,2.068,0,0,1-.5934-1.1621c-.107-.6813-.2693-2.0924-.35-3.5053a2.2,2.2,0,0,1,.17-1.0222.7974.7974,0,0,1,.2762-.3351.7085.7085,0,0,1,.3784-.1048c.5258-.013,1.4859,0,2.7643.0178,1.3774.019,3.1088.0429,5.02.0429s3.6425-.0239,5.02-.0429c1.2785-.0177,2.2386-.0308,2.7644-.0178a.7088.7088,0,0,1,.3784.1048.7979.7979,0,0,1,.2761.3351,2.1975,2.1975,0,0,1,.17,1.0218c-.0817,1.413-.2441,2.8245-.35,3.5057a2.064,2.064,0,0,1-.6073,1.175,2.1463,2.1463,0,0,1-1.343.5309c-1.5144.1183-3.861.114-5.5726.1106-.2627-.0006-.51-.0011-.7364-.0011s-.4738.0005-.7365.0011c-1.7115.0034-4.0581.0077-5.5669-.11Zm24.3213,8.4158,2.1276-14.4122h0a11.4338,11.4338,0,0,1,2.4715-6.2766q.132-.1918.2747-.4c.5758-.84,1.3479-1.95,2.1887-3.1586,1.547-2.2239,3.3266-4.7821,4.5143-6.566a7.4018,7.4018,0,0,1,2.0731-1.8116,4.6025,4.6025,0,0,1,1.8107-.6109,94.7458,94.7458,0,0,1,10.4284-.4056,3.7864,3.7864,0,0,1,2.0527.54,2.177,2.177,0,0,1,.794.962,5.5915,5.5915,0,0,1-.1077,3.6593,54.48,54.48,0,0,1-14.8867,23.3863,1.959,1.959,0,0,0-.6746,1.1276c-.0551.0077-.1131.0177-.1734.0306a3.1826,3.1826,0,0,0-1.2691.607q-.4608.3631-.9314.7139a12.541,12.541,0,0,1-5.8848,2.2975C114.189,115.8309,112.6151,115.9534,110.5869,116.0012Zm-40.6947-.3169a12.54,12.54,0,0,1-5.8849-2.2977c-.3131-.2332-.6238-.4715-.9367-.7181a3.1726,3.1726,0,0,0-1.2635-.6025c-.0594-.0127-.1173-.0227-.1733-.03a1.96,1.96,0,0,0-.6748-1.128A54.4719,54.4719,0,0,1,46.0749,87.5294a5.6023,5.6023,0,0,1-.11-3.6672,2.1779,2.1779,0,0,1,.7941-.962,3.7861,3.7861,0,0,1,2.0526-.54,94.9036,94.9036,0,0,1,10.3608.3988l.068.0069a4.6015,4.6015,0,0,1,1.81.6108,7.5526,7.5526,0,0,1,2.1468,1.8919.4964.4964,0,0,1-.0868-.099c1.2,1.8022,2.9794,4.3595,4.5262,6.583.8413,1.2094,1.6138,2.32,2.19,3.16q.1427.2082.2747.4a11.432,11.432,0,0,1,2.4713,6.2747l2.1279,14.4142C72.6723,115.9534,71.0983,115.8309,69.8922,115.6843Zm-9.7234,7.2a18.7059,18.7059,0,0,0,8.6994,3.18l.0969.0095c6.1073.58,14.0934,1.0688,23.6786,1.0688s17.5713-.4893,23.6786-1.0688a18.7051,18.7051,0,0,0,8.7963-3.189,60.2806,60.2806,0,0,0,9.55-8.1506,2.7387,2.7387,0,0,0,.7309-1.1755,1.14,1.14,0,0,0,.0291-.3636,5.8873,5.8873,0,0,0,2.1972-1.8394c8.55-11.11,14.3927-24.7854,14.3927-40.1563a62.59,62.59,0,0,0-18.1836-44.3854A58.0666,58.0666,0,0,0,92.6437,9.5717a57.3293,57.3293,0,0,0-22.4972,4.5774A59.3541,59.3541,0,0,0,50.6524,27.6283a62.6274,62.6274,0,0,0-17.3836,43.57c0,15.7247,6.1147,29.6745,14.9874,40.9194a3.7153,3.7153,0,0,0,1.026.9284,2.6709,2.6709,0,0,0,.5726.2526,1.199,1.199,0,0,0,.033.2589,2.739,2.739,0,0,0,.731,1.1755A60.2858,60.2858,0,0,0,60.1688,122.884Z" style="fill:none;stroke:#a6abb0;stroke-miterlimit:10;stroke-width:0.5px"/><path d="M46.9215,58.18a2.6676,2.6676,0,0,1-.9959-1.0377,3.7048,3.7048,0,0,1-.4071-1.599A10.806,10.806,0,0,1,46.5671,50.99c1.8742-4.4668,3.7008-5.7215,5.5231-6.98a13.7508,13.7508,0,0,0,2.9785-2.5494,16.2629,16.2629,0,0,0,1.1727-1.8267A38.4925,38.4925,0,0,1,70.5376,24.8375c5.3516-3.0463,12.5091-5.2853,22.1061-5.2853s16.7544,2.239,22.106,5.2853a38.4912,38.4912,0,0,1,14.2962,14.7968,16.2669,16.2669,0,0,0,1.1726,1.8266,13.7541,13.7541,0,0,0,2.9787,2.5495c1.8223,1.2585,3.6488,2.5131,5.5231,6.98a10.806,10.806,0,0,1,1.0486,4.5527,3.7071,3.7071,0,0,1-.4071,1.5991,2.6682,2.6682,0,0,1-.996,1.0376,3.7589,3.7589,0,0,1-1.9164.4813c-2.4989,0-6.4349-.793-12.0393-1.924q-1.5294-.3087-3.2227-.6473c-1.17-.2331-2.2143-.4452-3.1647-.6383-8.4235-1.7116-9.4893-1.925-25.379-1.925s-16.9555.2134-25.379,1.9249c-.9505.1932-1.9945.4053-3.1647.6384q-1.6936.3372-3.2227.6473c-5.6044,1.131-9.5405,1.924-12.0393,1.924A3.7592,3.7592,0,0,1,46.9215,58.18Zm39.3193,49.6544a2.3558,2.3558,0,0,1-1.4348-.6048,2.3182,2.3182,0,0,1-.6686-1.3049c-.1083-.69-.2715-2.11-.3524-3.53a2.443,2.443,0,0,1,.1949-1.1452,1.0445,1.0445,0,0,1,.3657-.4364.9574.9574,0,0,1,.5077-.1446c.532-.0132,1.4985,0,2.774.0177,1.3774.019,3.1073.0429,5.0164.0429s3.639-.0239,5.0164-.0429c1.2754-.0176,2.242-.0309,2.774-.0177a.957.957,0,0,1,.5076.1446,1.0454,1.0454,0,0,1,.3658.4364,2.4453,2.4453,0,0,1,.1949,1.1451c-.0822,1.42-.2454,2.84-.3524,3.53a2.3133,2.3133,0,0,1-.6845,1.32,2.3947,2.3947,0,0,1-1.4933.5966c-1.5268.1193-3.885.1148-5.5926.1114-.2628-.0006-.51-.0011-.7359-.0011s-.4732.0005-.736.0011c-1.7075.0034-4.0658.0079-5.59-.1111Zm24.0555,8.4233,2.171-14.706h0a11.67,11.67,0,0,1,2.5128-6.3808q.132-.192.2744-.3993c.5764-.8408,1.3491-1.9516,2.19-3.16,1.5476-2.2248,3.3255-4.7806,4.518-6.5712a7.6822,7.6822,0,0,1,2.1505-1.8807,4.8522,4.8522,0,0,1,1.9094-.6426,94.9887,94.9887,0,0,1,10.46-.4068,4.03,4.03,0,0,1,2.1862.5828,2.4268,2.4268,0,0,1,.8836,1.07,5.8314,5.8314,0,0,1-.0986,3.8339A54.7285,54.7285,0,0,1,124.5,111.09a1.6078,1.6078,0,0,0-.6065,1.0768.7782.7782,0,0,0,.0026.0964,2.2175,2.2175,0,0,0-.363.0474,2.9273,2.9273,0,0,0-1.1668.5588q-.4632.3652-.9366.7179a12.7891,12.7891,0,0,1-6.0042,2.3454A51.1945,51.1945,0,0,1,110.2963,116.2575Zm-40.4341-.325a12.7883,12.7883,0,0,1-6.0042-2.3454q-.4725-.3519-.9393-.72a2.923,2.923,0,0,0-1.1639-.5566,2.2388,2.2388,0,0,0-.3629-.0473.8044.8044,0,0,0,.0025-.0965,1.6076,1.6076,0,0,0-.6066-1.0768A54.725,54.725,0,0,1,45.8353,87.6a5.8362,5.8362,0,0,1-.1-3.8378,2.4268,2.4268,0,0,1,.8836-1.07,4.03,4.03,0,0,1,2.1861-.5828,95.139,95.139,0,0,1,10.3921.4l.0681.0068a4.8523,4.8523,0,0,1,1.9093.6426,7.55,7.55,0,0,1,2.1439,1.8713c1.1988,1.8,2.9761,4.3545,4.5234,6.5789.8411,1.2091,1.6142,2.32,2.1908,3.1616q.1424.2078.2744.3993a11.6675,11.6675,0,0,1,2.5127,6.38l2.1711,14.707A51.1658,51.1658,0,0,1,69.8622,115.9325ZM60.31,122.6777a18.4551,18.4551,0,0,0,8.5824,3.137l.0963.0094c6.1.5788,14.0782,1.0677,23.6549,1.0677s17.5549-.4889,23.655-1.0677a18.455,18.455,0,0,0,8.6786-3.1464,60.0289,60.0289,0,0,0,9.51-8.1168,2.5017,2.5017,0,0,0,.6686-1.0605.7752.7752,0,0,0-.0147-.4525,5.5607,5.5607,0,0,0,2.2862-1.8455c8.5236-11.0758,14.3408-24.6987,14.3408-40.0038a62.34,62.34,0,0,0-18.11-44.2087A57.8168,57.8168,0,0,0,92.6437,9.8217a57.0778,57.0778,0,0,0-22.3993,4.5575A59.1018,59.1018,0,0,0,50.8325,27.8018,62.3772,62.3772,0,0,0,33.5188,71.1986c0,15.6574,6.0882,29.5542,14.9337,40.7646a3.4671,3.4671,0,0,0,.9563.8676,2.413,2.413,0,0,0,.7169.2809.816.816,0,0,0,.0054.3887,2.5027,2.5027,0,0,0,.6686,1.0605A60.03,60.03,0,0,0,60.31,122.6777Z" style="fill:none;stroke:#a6abb0;stroke-miterlimit:10;stroke-width:0.5px"/></g><path d="M151.5185,71.1986c0-33.76-26.3583-61.1269-58.8748-61.1269S33.7688,37.4387,33.7688,71.1986c0,15.59,6.0616,29.4338,14.88,40.61a2.6366,2.6366,0,0,0,1.9275,1.1349c-.3711.1464-.3021.7043.4044,1.4452a59.7747,59.7747,0,0,0,9.4708,8.0831,18.2025,18.2025,0,0,0,8.5609,3.1037c6.0927.5781,14.0631,1.0666,23.6313,1.0666s17.5385-.4885,23.6313-1.0666a18.2025,18.2025,0,0,0,8.5609-3.1037,59.7792,59.7792,0,0,0,9.4708-8.0831c.7064-.7409.7755-1.2988.4044-1.4452A5.2054,5.2054,0,0,0,137.23,111.05C145.7266,100.0086,151.5185,86.4379,151.5185,71.1986ZM46.3365,50.8937c2.9071-6.9282,5.7377-6.2694,8.5412-9.594,2.1661-2.566,9.4375-21.9975,37.766-21.9975s35.6,19.4315,37.766,21.9975c2.8035,3.3246,5.6341,2.6658,8.5411,9.594,2.64,6.2895-.1233,8.0174-2.5014,8.0174-2.9922,0-7.9938-1.1195-15.3108-2.5761-11.52-2.2947-10.8183-2.5585-28.4949-2.5585S75.6685,54.04,64.1488,56.335c-7.317,1.4566-12.3187,2.5761-15.3108,2.5761C46.46,58.9111,43.697,57.1832,46.3365,50.8937Zm23.4957,65.287a13.0389,13.0389,0,0,1-6.1236-2.3931q-.4752-.354-.9418-.722a2.2148,2.2148,0,0,0-1.73-.5351s.4278-.4608-.4205-1.2584a54.9785,54.9785,0,0,1-15.021-23.6006c-.8988-3.03-.4075-5.7219,3.2035-5.8114a95.2521,95.2521,0,0,1,10.4915.4081,6.9234,6.9234,0,0,1,4.2361,2.624c1.8474,2.7733,5.0727,7.3459,6.7124,9.7378s2.2548,3.1063,2.8281,6.884l2.2142,14.9987A52.4028,52.4028,0,0,1,69.8322,116.1807Zm31.92-13.7718c-.0826,1.4275-.2466,2.8551-.3551,3.5544a2.4688,2.4688,0,0,1-2.4052,2.1268c-1.7766.1388-4.66.111-6.348.111s-4.5714.0278-6.348-.111a2.4691,2.4691,0,0,1-2.4053-2.1268c-.11-.6993-.2736-2.1269-.355-3.5544-.0432-.756.191-1.9627,1.3117-1.99s4.1276.0606,7.7966.0606,6.6759-.0883,7.7966-.0606S101.7951,101.6529,101.752,102.4089Zm22.9188,8.8632c-.8483.7976-.4205,1.2584-.4205,1.2584a2.2147,2.2147,0,0,0-1.73.5351q-.4659.3674-.9419.722a13.0381,13.0381,0,0,1-6.1235,2.3931,52.4051,52.4051,0,0,1-5.4493.332L112.22,101.514c.5733-3.7777,1.1885-4.4909,2.8282-6.884s4.865-6.9645,6.7124-9.7378a6.9234,6.9234,0,0,1,4.2361-2.624,95.2521,95.2521,0,0,1,10.4915-.4081c3.611.09,4.1023,2.7809,3.2035,5.8114A54.9794,54.9794,0,0,1,124.6708,111.2721Z" style="fill:none;stroke:#a6abb0;stroke-miterlimit:10;stroke-width:0.5px"/><path d="M93.7,77.9961a1.47,1.47,0,0,1-2.1127,0l-5.733-5.8694a1.5579,1.5579,0,0,1,0-2.163l5.733-5.87a1.4686,1.4686,0,0,1,2.1133.0007l5.7324,5.8688a1.5577,1.5577,0,0,1,.0007,2.1623Z" style="fill:none;stroke:#a6abb0;stroke-linecap:round;stroke-linejoin:round;stroke-width:0.5px"/><path d="M92.3632,66.7046a.39.39,0,0,1,.561,0l3.8117,3.9024a.6227.6227,0,0,0,.4455.189h1.6128a.1626.1626,0,0,0,.15-.1027.17.17,0,0,0-.0352-.1813h0L93.164,64.63a.7239.7239,0,0,0-1.0406,0L86.3783,70.512a.17.17,0,0,0-.0352.1813.1627.1627,0,0,0,.15.1027h1.6126a.6229.6229,0,0,0,.4456-.189Zm.561,8.6812a.39.39,0,0,1-.5611,0l-3.8116-3.9035a.6229.6229,0,0,0-.4456-.189H86.4933a.1626.1626,0,0,0-.15.1027.17.17,0,0,0,.0352.1813h0l5.7451,5.8818a.7239.7239,0,0,0,1.0406,0l5.7451-5.8818a.17.17,0,0,0,.0352-.1814.1626.1626,0,0,0-.15-.1026H97.1815a.6226.6226,0,0,0-.4456.189Z" style="fill:none;stroke:#a6abb0;stroke-linecap:round;stroke-linejoin:round;stroke-width:0.5px"/><path d="M92.323,69.46a.3915.3915,0,0,1-.1106.2734l-1.0632,1.0885a.3189.3189,0,0,0,0,.4435l1.0632,1.0885a.3913.3913,0,0,1,.1106.2734v1.668a.1665.1665,0,0,1-.1.1538.16.16,0,0,1-.1771-.0362L89.2053,71.5a.656.656,0,0,1,0-.9119l2.84-2.9075a.16.16,0,0,1,.1771-.0361.1667.1667,0,0,1,.1.1538Z" style="fill:none;stroke:#a6abb0;stroke-linecap:round;stroke-linejoin:round;stroke-width:0.5px"/><path d="M96.0811,70.5882a.656.656,0,0,1,0,.9119L93.19,74.4656a.16.16,0,0,1-.1771.0362.1663.1663,0,0,1-.1-.1537V72.68a.3913.3913,0,0,1,.1106-.2734l1.1145-1.141a.3189.3189,0,0,0,0-.4435l-1.1145-1.141a.3913.3913,0,0,1-.1106-.2733v-1.662a.1664.1664,0,0,1,.1-.1537.16.16,0,0,1,.1771.036Z" style="fill:none;stroke:#a6abb0;stroke-linecap:round;stroke-linejoin:round;stroke-width:0.5px"/><path d="M61.0373,112.5307c-.5232.3124-2.1657.6516-5.4619.6516a38.2461,38.2461,0,0,1-4.9979-.24" style="fill:none;stroke:#a6abb0;stroke-miterlimit:10;stroke-width:0.5px"/><path d="M68.1957,62.5828a.5035.5035,0,0,0-.5564-.5372S53.0332,63.3462,50.0541,63.654s-4.1818,1.0073-4.6464,2.8821a66.5379,66.5379,0,0,0-1.4212,7.6951c-.246,2.3785-.1367,3.6937,2.7058,3.8056,2.538.1,17.8016.5172,20.8582.5987a.507.507,0,0,0,.3838-.1617.5332.5332,0,0,0,.1418-.4" style="fill:none;stroke:#a6abb0;stroke-linecap:round;stroke-linejoin:round;stroke-width:0.5px"/><path d="M68.02,73.35a.5187.5187,0,0,1-.5125.5186c-2.5741.0019-14.1951.01-16.9612-.0006-1.6128-.006-1.8312-.6715-1.7332-1.7639a31.054,31.054,0,0,1,.5033-3.1889,1.897,1.897,0,0,1,2.0225-1.4831c1.2382-.05,13.4986-.4086,16.2224-.4881a.5066.5066,0,0,1,.3743.15.5318.5318,0,0,1,.1535.3807Z" style="fill:none;stroke:#a6abb0;stroke-linecap:round;stroke-linejoin:round;stroke-width:0.5px"/><path d="M117.0061,62.6048a.5312.5312,0,0,1,.1609-.396.5053.5053,0,0,1,.3956-.1411s14.6913,1.2785,17.67,1.5863,4.1817,1.0073,4.6464,2.8821a66.5379,66.5379,0,0,1,1.4212,7.6951c.246,2.3785.1367,3.6937-2.7058,3.8056-2.538.1-17.7986.4749-20.8552.5564a.507.507,0,0,1-.3838-.1617.5323.5323,0,0,1-.1418-.4" style="fill:none;stroke:#a6abb0;stroke-linecap:round;stroke-linejoin:round;stroke-width:0.5px"/><path d="M117.2693,73.3494a.5187.5187,0,0,0,.5125.5186c2.5739.0019,14.1932.01,16.9592,0,1.6128-.0061,1.8313-.6716,1.7333-1.764a31.0814,31.0814,0,0,0-.5033-3.1889,1.8971,1.8971,0,0,0-2.0226-1.483c-1.2382-.05-13.4968-.4086-16.22-.4882a.5066.5066,0,0,0-.3743.1505.5318.5318,0,0,0-.1535.3807Z" style="fill:none;stroke:#a6abb0;stroke-linecap:round;stroke-linejoin:round;stroke-width:0.5px"/><path d="M49.681,72.3236a.6473.6473,0,0,0,.6291.7325c1.1541.0036,3.89.008,12.6924.0031.4018,0,1.2276-.0716,1.3125-1.3722.0483-.74.0811-1.6174.11-2.1888.0579-1.1557-.43-1.6174-1.547-1.5888s-10.6293.2708-11.51.3061a1.1369,1.1369,0,0,0-1.2305.95C50.1288,69.1982,49.94,70.2021,49.681,72.3236Z" style="fill:none;stroke:#a6abb0;stroke-linecap:round;stroke-linejoin:round;stroke-width:0.5px"/><path d="M50.8563,80.7439c0,.9355.1352,1.0931.4253,1.1029" style="fill:none;stroke:#a6abb0;stroke-miterlimit:10;stroke-width:0.5px"/><path d="M59.4844,71.6953a.5773.5773,0,0,1-.57.584H55.483a.5773.5773,0,0,1-.57-.584V69.4407a.5776.5776,0,0,1,.5573-.5838l3.431-.0806a.5631.5631,0,0,1,.4117.1662.5909.5909,0,0,1,.1717.4176Z" style="fill:none;stroke:#a6abb0;stroke-linecap:round;stroke-linejoin:round;stroke-width:0.5px"/><path d="M92.6435,113.9613c-2.2033,0-5.9678-.0048-8.2871-.2334-2.3192-.2308-2.9163-2.3069-3.103-3.4519-.2619-1.6062-.5431-2.874-.9542-7.26-.2034-2.1714.2228-2.668,1.7461-2.7057s5.6109.0823,10.5982.0823,9.0748-.12,10.5983-.0823,1.95.5343,1.7461,2.7057c-.4111,4.3865-.6923,5.6543-.9542,7.26-.1867,1.145-.7838,3.2211-3.1031,3.4519C98.6114,113.9565,94.8469,113.9613,92.6435,113.9613Z" style="fill:none;stroke:#a6abb0;stroke-linecap:round;stroke-linejoin:round;stroke-width:0.5px"/><path d="M134.71,112.9427a38.2461,38.2461,0,0,1-4.9979.24c-3.2962,0-4.9387-.3392-5.4619-.6516" style="fill:none;stroke:#a6abb0;stroke-miterlimit:10;stroke-width:0.5px"/><path d="M110.0059,116.5122v0a1.2715,1.2715,0,0,1-.36.6844c-.5018.4936-1.575,1.5406-2.5439,2.4288-1.7,1.5586-3.226,2.14-14.4586,2.14s-12.7583-.5813-14.4585-2.14c-.9689-.8882-2.0421-1.9352-2.5439-2.4288a1.2715,1.2715,0,0,1-.36-.6844l0,0" style="fill:none;stroke:#a6abb0;stroke-linecap:round;stroke-linejoin:round;stroke-width:0.5px"/><path d="M109.6336,54.2415c2.6313.3618,3.0782.724,4.9231,2.277s2.3778,2.0987,2.5008,5.0788.246,12.76.205,15.11a8.2659,8.2659,0,0,1-1.4759,5.3306c-1.3119,2.1826-4.6327,6.8417-6.56,9.2761s-3.5668,2.6863-7.0516,2.98-7.6665.2518-9.5319.2518-6.0471.042-9.5318-.2518-5.1247-.5456-7.0516-2.98-5.2477-7.0935-6.56-9.2761a8.2659,8.2659,0,0,1-1.4759-5.3306c-.041-2.35.082-12.13.205-15.11s.656-3.5258,2.5008-5.0788,2.2918-1.9152,4.9231-2.277" style="fill:none;stroke:#a6abb0;stroke-linecap:round;stroke-linejoin:round;stroke-width:0.5px"/><path d="M135.6061,72.3236a.6473.6473,0,0,1-.6291.7325c-1.1541.0036-3.89.008-12.6924.0031-.4018,0-1.2276-.0716-1.3125-1.3721-.0483-.74-.0811-1.6175-.11-2.1889-.0579-1.1557.43-1.6174,1.547-1.5888s10.6293.2708,11.51.3061a1.1369,1.1369,0,0,1,1.2305.95C135.1583,69.1982,135.3474,70.2021,135.6061,72.3236Z" style="fill:none;stroke:#a6abb0;stroke-linecap:round;stroke-linejoin:round;stroke-width:0.5px"/><path d="M116.1582,55.3293s3.1678,2.4764,4.0971,3.12A7.2471,7.2471,0,0,0,124.519,59.82c2.4052.1679,9.7027,1.0074,12.5452,1.2872s4.8924,1.0913,5.767,4.3372a77.3056,77.3056,0,0,1,1.8859,10.0736c.3694,2.9245.0137,5.0425-4.66,5.0927-5.2069.056-14.6363.4757-16.3856.5317a4.089,4.089,0,0,0-2.941,1.83c-.8086,1.1417-6.0088,8.6683-8.9655,12.4908-2.3088,2.985-4.3012,3.95-19.1217,3.95s-16.8128-.9649-19.1216-3.95c-2.9567-3.8225-8.1569-11.3491-8.9655-12.4908a4.0887,4.0887,0,0,0-2.9411-1.83c-1.7492-.056-11.1786-.4757-16.3855-.5317-4.6735-.05-5.0292-2.1682-4.66-5.0927a77.3056,77.3056,0,0,1,1.8859-10.0736c.8746-3.2459,2.9245-4.0574,5.767-4.3372s10.14-1.1193,12.5452-1.2872a7.2471,7.2471,0,0,0,4.2637-1.3711c.9293-.6436,4.0971-3.12,4.0971-3.12" style="fill:none;stroke:#a6abb0;stroke-miterlimit:10;stroke-width:0.5px"/><path d="M134.4308,80.7439c0,.9355-.1352,1.0931-.4253,1.103" style="fill:none;stroke:#a6abb0;stroke-miterlimit:10;stroke-width:0.5px"/><path d="M105.5729,53.9418c1.1025,0,2.18.8765,4.1891,2.3456a5.7452,5.7452,0,0,1,2.243,4.9527c.0381,3.6658.0455,7.3319.0455,10.9979,0,1.7761.03,2.9834-2.4867,7.59-2.65,4.85-4.2941,5.714-7.3869,5.8378-3.1681.1268-6.356.276-9.5334.276s-6.3652-.1492-9.5333-.276c-3.0928-.1238-4.7373-.9882-7.3869-5.8378-2.5168-4.6065-2.4867-5.8138-2.4867-7.59,0-3.666.0074-7.3321.0454-10.9979a5.7456,5.7456,0,0,1,2.2431-4.9527c2.0089-1.4691,3.0866-2.3456,4.1891-2.3456" style="fill:none;stroke:#a6abb0;stroke-linecap:round;stroke-linejoin:round;stroke-width:0.5px"/><path d="M108.5227,54.1311c1.1025,0,2.18.8764,4.1891,2.3455a5.7452,5.7452,0,0,1,2.243,4.9527c.051,4.9119.1351,9.8532.0531,12.54a9.5081,9.5081,0,0,1-1.3942,5.0057c-.6969,1.3851-3.3618,5.4142-4.5507,7.0512s-2.6238,3.064-4.92,3.19-8.4044.2939-11.5.2939-9.2039-.1679-11.5-.2939-3.7308-1.553-4.92-3.19S72.37,80.36,71.6734,78.9745a9.5081,9.5081,0,0,1-1.3942-5.0057c-.082-2.6863.0021-7.6276.0531-12.54a5.7452,5.7452,0,0,1,2.243-4.9527c2.0089-1.4691,3.0866-2.3455,4.1891-2.3455" style="fill:none;stroke:#a6abb0;stroke-linecap:round;stroke-linejoin:round;stroke-width:0.5px"/><path d="M125.8024,71.6953a.5773.5773,0,0,0,.57.5839h3.431a.5772.5772,0,0,0,.57-.5839V69.4406a.5776.5776,0,0,0-.5572-.5838l-3.4311-.0805a.563.563,0,0,0-.4117.1661.5909.5909,0,0,0-.1717.4176Z" style="fill:none;stroke:#a6abb0;stroke-linecap:round;stroke-linejoin:round;stroke-width:0.5px"/></g><g id="b8a62a5e-4d1c-4ff5-81b9-fb5c9371987c" data-name="Isolation Mode"><g style="opacity:0.75"><path d="M151.4527,71.194c0,15.235-5.7923,28.7939-14.2852,39.8322a5.1345,5.1345,0,0,1-2.5143,1.8873c.3725.149.3042.7078-.4036,1.4465a59.569,59.569,0,0,1-9.4676,8.077,18.1581,18.1581,0,0,1-8.555,3.1041c-6.09.5774-14.0555,1.0679-23.6162,1.0679s-17.5322-.49-23.6163-1.0679a18.205,18.205,0,0,1-8.5612-3.1041,59.2541,59.2541,0,0,1-9.4614-8.077c-.7077-.7387-.776-1.2975-.4035-1.4465a2.6183,2.6183,0,0,1-1.9308-1.13c-8.8095-11.1687-14.8688-25.0069-14.8688-40.59,0-33.742,26.3417-61.0894,58.842-61.0894C125.1048,10.1046,151.4527,37.452,151.4527,71.194Zm-11.82,16.4643c.9-3.03.4035-5.7178-3.2035-5.8047a93.95,93.95,0,0,0-10.4857.4035,6.9413,6.9413,0,0,0-4.2341,2.6261c-1.8438,2.7689-5.0659,7.3382-6.7049,9.7283-1.639,2.3964-2.2536,3.1042-2.831,6.885l-2.21,14.9868a53.0953,53.0953,0,0,0,5.4446-.3291,13.01,13.01,0,0,0,6.1214-2.3964c.3166-.2359.6332-.4718.9436-.72a2.2032,2.2032,0,0,1,1.7259-.5339s-.4283-.4594.4222-1.26A54.9076,54.9076,0,0,0,139.6322,87.6583ZM136.3915,58.914c2.3777,0,5.1342-1.7259,2.5019-8.0149-2.9055-6.9222-5.7364-6.2641-8.5364-9.5855C128.19,38.75,120.9205,19.33,92.6108,19.33c-28.3159,0-35.58,19.4194-37.7463,21.9835-2.8,3.3214-5.6309,2.6633-8.5364,9.5855-2.6385,6.289.1242,8.0149,2.502,8.0149,2.9861,0,7.99-1.1175,15.3033-2.5764,11.51-2.2909,10.8086-2.5516,28.4774-2.5516s16.9672.2607,28.4773,2.5516C128.4014,57.7965,133.3991,58.914,136.3915,58.914ZM75.2587,116.4833l-2.2164-14.9868c-.5712-3.7808-1.1858-4.4886-2.8248-6.885-1.6389-2.39-4.861-6.9594-6.7111-9.7283a6.9173,6.9173,0,0,0-4.2278-2.6261,94.015,94.015,0,0,0-10.4858-.4035c-3.6132.0869-4.1037,2.775-3.2035,5.8047a54.9076,54.9076,0,0,0,15.0116,23.5852c.8506.8009.4222,1.26.4222,1.26a2.2066,2.2066,0,0,1,1.7259.5339c.31.2483.627.4842.9437.72a12.9842,12.9842,0,0,0,6.1213,2.3964A52.9773,52.9773,0,0,0,75.2587,116.4833Z" style="fill:#f4f4f4"/></g></g></svg>