<svg xmlns="http://www.w3.org/2000/svg" width="324.248" height="161.749" viewBox="0 0 324.248 161.749"><path d="M85.681,116.234h31.23c6.74,0,3.48-5.11,2.39-7.6s-10.32-15.76-14.89-23.15-7.28-7.55-11.74-7.55c-10.72.03-23.77.11-26.73.29-5.22.3-3.82,4.97-.93,10.19s16.36,22.5,18.86,25.76A20.351,20.351,0,0,0,85.681,116.234Zm58.19-.93a11.061,11.061,0,0,1,.29,7.31l-1.58,3.27c-1.78,2.5-4.79,4.33-9.22,4.33H87.121c-3.76,0-10.69-.53-14.9-6.32-.1-.15-.21-.3-.31-.45-7.24-10.8-33.7-50.25-34.6-51.6-1.05-1.57-1.51-3.28-.59-4.65,0,0,1.99,2.03,6.96,2.03H102c5.35,0,12.62-2.3,20.46,9.94S141.581,109.944,143.871,115.3Z" style="fill:#cfd2d4"/><path d="M36.717,67.193l-7.6-11.663a2.726,2.726,0,0,1,.917-3.8s-3.08-5.635-3.8-7.077a4.477,4.477,0,0,1,0-3.8c0-1.441-.066-2.621,1.048-3.866.9-1.007,2.575-2.53,3.181-3.074a.789.789,0,0,1,.532-.2h1.463a.8.8,0,0,1,.735.481l.248.568s39-2.153,50.612-1.579,32.982.717,53.632.717h89.267C229.39,33.9,292.89,41.58,327,41.58" style="fill:none;stroke:#a6abb0;stroke-linecap:round;stroke-linejoin:round"/><path d="M333.01,152.805H96.407a19.19,19.19,0,0,1-15.949-8.066c-5.542-3.246-7.377-11.305-6.722-18.578l-1.823-2.718" style="fill:none;stroke:#a6abb0;stroke-miterlimit:10"/><line x1="33.193" y1="34.192" x2="8.121" y2="-5.346" style="fill:none;stroke:#a6abb0;stroke-miterlimit:10"/><line x1="19.094" y1="-1.969" x2="42.108" y2="33.084" style="fill:none;stroke:#a6abb0;stroke-miterlimit:10;stroke-width:0.5px"/><path d="M44.48,34.853a20.778,20.778,0,0,0,7.532,1.256c4.6,0,84.8,3.766,129.158,3.766h108.4" style="fill:none;stroke:#a6abb0;stroke-miterlimit:10;stroke-width:0.5px"/><path d="M42.894-3.859c14.917,23.09,20.9,33.075,44.228,37.173" style="fill:none;stroke:#a6abb0;stroke-miterlimit:10;stroke-width:0.5px"/><path d="M326.573,33.737c-34.053,0-65.8-6.5-78.96-8.943s-27.4-3.256-37.716-3.527-97.435-.018-146.659-1.113c-3.16-.07-3.592-.466-4.58-1.6" style="fill:none;stroke:#a6abb0;stroke-miterlimit:10;stroke-width:0.5px"/><path d="M326.573,30.811c-34.367,0-66.407-6.561-79.689-9.026s-27.658-3.286-38.065-3.56S110.484,18.207,60.806,17.1c-3.19-.071-3.626-.471-4.623-1.616" style="fill:none;stroke:#a6abb0;stroke-linecap:round;stroke-linejoin:round;stroke-width:0.25px;stroke-dasharray:4,2"/><path d="M30.034,51.73c1.414,3.152,8.2,3.343,12.074,3.343H327.769" style="fill:none;stroke:#a6abb0;stroke-miterlimit:10"/><path d="M25.807,43.038c1.434,3.2,8.32,3.391,12.246,3.391H327.769" style="fill:none;stroke:#a6abb0;stroke-miterlimit:10;stroke-width:0.5px"/><path d="M26.482,38.187c1.428,3.183,8.283,3.376,12.191,3.376H327.094" style="fill:none;stroke:#a6abb0;stroke-miterlimit:10;stroke-width:0.5px"/><path d="M293.013,55.073c1.338,2.3,1.721,3.06,0,6.5s-25.621,44.168-36.329,56.214S236.417,132.7,220.738,132.7s-128.679,1.529-132.5,1.72-9.662-1.051-14.5-8.261" style="fill:none;stroke:#a6abb0;stroke-miterlimit:10"/><path d="M36.717,67.193s2,2.029,6.968,2.029H102c5.353,0,12.619-2.294,20.458,9.943s19.12,30.783,21.415,36.137a11.1,11.1,0,0,1,.284,7.316l-1.573,3.261c-1.787,2.507-4.794,4.337-9.227,4.337H87.122c-3.858,0-11.044-.564-15.209-6.773h0c-7.253-10.812-33.7-50.242-34.606-51.6C36.258,70.272,35.8,68.568,36.717,67.193Z" style="fill:none;stroke:#30373e;stroke-miterlimit:10"/><path d="M36.273,68.3c.268,2.2,5.835,2.815,5.835,2.815h58.317c5.354,0,12.619-2.294,20.459,9.943S139.861,111.9,142.3,117.19c1.564,3.394,1.837,6.051.288,8.689" style="fill:none;stroke:#30373e;stroke-miterlimit:10;stroke-width:0.5px"/><path d="M139.489,115.367c1.7,4.133.187,6.771-1.317,8.124a7.625,7.625,0,0,1-5.094,1.893c-.2,0-.4-.008-.6-.022-2.447-.183-18.463-.455-29.264-.02-11.839.493-18.488-5.807-21.394-9.6l-1.165-1.513c-7.094-9.19-15.541-20.29-17.909-24.565-1.955-3.531-3.974-7.992-2.22-11.176.661-1.2,2.111-2.67,5.265-2.854,5.174-.3,39.611-.322,41.82-.323a14.175,14.175,0,0,1,12.5,6.993s18.57,31.6,19.379,33.059" style="fill:none;stroke:#30373e;stroke-miterlimit:10;stroke-width:0.5px"/><path d="M137.994,117.976a4.276,4.276,0,0,1-1.745,4.264,5.258,5.258,0,0,1-2.28.905,5.706,5.706,0,0,1-1.225.062l-1.134-.053c-3.031-.1-6.078-.134-9.119-.155-6.084-.031-12.172,0-18.244.223a27.306,27.306,0,0,1-9.211-.866,22.218,22.218,0,0,1-8.223-4.325,22.621,22.621,0,0,1-3.263-3.35l-2.8-3.61-5.568-7.249q-2.77-3.635-5.454-7.341c-1.78-2.485-3.569-4.938-5.151-7.623a30.036,30.036,0,0,1-2.007-4.2,12.813,12.813,0,0,1-.639-2.312,4.926,4.926,0,0,1,.207-2.565,3.3,3.3,0,0,1,1.986-1.81,8.5,8.5,0,0,1,2.423-.359c1.539-.06,3.057-.078,4.583-.1,12.187-.144,24.364-.143,36.546-.15l-.038,0A11.389,11.389,0,0,1,113.77,79a10.155,10.155,0,0,1,2.423,2.028,11.244,11.244,0,0,1,1.7,2.6,14.86,14.86,0,0,0-2.083-2.213,11.321,11.321,0,0,0-2.461-1.655,11.746,11.746,0,0,0-2.759-1.006,11.247,11.247,0,0,0-2.874-.313l-.039,0c-12.176.031-24.358.055-36.528.223-1.518.027-3.045.049-4.548.111a7.405,7.405,0,0,0-2.079.3,2.1,2.1,0,0,0-1.291,1.156c-.446,1.132-.039,2.66.457,4.008a28.984,28.984,0,0,0,1.936,4.027c1.515,2.561,3.32,5.037,5.091,7.5s3.617,4.888,5.439,7.324l5.519,7.271,2.779,3.62a21.525,21.525,0,0,0,3.081,3.2,21.154,21.154,0,0,0,7.8,4.158,26.267,26.267,0,0,0,8.882.876c6.1-.187,12.194-.185,18.289-.12,3.048.039,6.091.087,9.146.208l1.146.06a4.86,4.86,0,0,0,1.051-.048,4.405,4.405,0,0,0,1.93-.751,4.951,4.951,0,0,0,1.417-1.518A7.867,7.867,0,0,0,137.994,117.976Z" style="fill:#30373e"/><path d="M92.675,77.933c4.455,0,7.172.158,11.737,7.548s13.8,20.649,14.889,23.148,4.347,7.608-2.391,7.608H85.678" style="fill:none;stroke:#30373e;stroke-miterlimit:10"/><path d="M121.909,115.367a39.167,39.167,0,0,0,3.628,1.89c1.24.561,2.492,1.094,3.775,1.547,2.543.976,5.173,1.691,7.812,2.432a35.2,35.2,0,0,1-4.044-.757,40.691,40.691,0,0,1-3.941-1.207A26.43,26.43,0,0,1,121.909,115.367Z" style="fill:#30373e"/><path d="M123.579,66.4c12.812-.522,25.621-.4,38.43-.345l38.428.173,38.428.173,19.214.087a59.076,59.076,0,0,1,9.682.58,23.235,23.235,0,0,1,4.787,1.258,9.689,9.689,0,0,1,4.195,2.952,6.856,6.856,0,0,1,1.241,5.065,14.908,14.908,0,0,1-1.541,4.784c-1.532,2.887-3.135,5.623-4.762,8.4-3.268,5.522-6.619,10.987-10.179,16.339-.9,1.337-1.787,2.665-2.824,3.963a34.7,34.7,0,0,1-3.4,3.525,42.883,42.883,0,0,1-7.9,5.7,35.136,35.136,0,0,1-9.075,3.585,30.8,30.8,0,0,1-4.844.748c-1.641.107-3.219.116-4.831.174-12.819.276-25.626.322-38.436.386-12.81,0-25.62.279-38.43-.5,12.808-.791,25.616-.579,38.423-.7,12.806-.091,25.618-.164,38.41-.466,1.588-.06,3.214-.076,4.769-.182a29.332,29.332,0,0,0,4.637-.726,33.811,33.811,0,0,0,8.729-3.472,41.555,41.555,0,0,0,7.636-5.537,33.331,33.331,0,0,0,3.258-3.387c.961-1.206,1.854-2.546,2.739-3.866,3.523-5.32,6.859-10.786,10.1-16.293,1.6-2.75,3.23-5.548,4.695-8.321a13.544,13.544,0,0,0,1.392-4.313,5.459,5.459,0,0,0-.964-4.036,8.312,8.312,0,0,0-3.575-2.492,21.856,21.856,0,0,0-4.484-1.186,57.867,57.867,0,0,0-9.473-.588l-19.211-.137-38.424-.275L162,67.187C149.192,67.089,136.385,67.066,123.579,66.4Z" style="fill:#a6abb0"/><path d="M156.49,122.737a49.762,49.762,0,0,0,7.013-1.583,60.776,60.776,0,0,0,6.746-2.451,66.181,66.181,0,0,0,6.458-3.139,68.3,68.3,0,0,0,6.112-3.8A46.723,46.723,0,0,1,176.9,115.9a57.736,57.736,0,0,1-6.454,3.265,53.606,53.606,0,0,1-6.838,2.359A37.414,37.414,0,0,1,156.49,122.737Z" style="fill:#a6abb0"/><path d="M156.947,66.353c4.012,9.142,8.044,18.279,12.213,27.349,1.045,2.266,2.1,4.528,3.209,6.76a13.486,13.486,0,0,0,1.949,3.131,12.251,12.251,0,0,0,2.843,2.349,20.959,20.959,0,0,0,6.987,2.478,44.841,44.841,0,0,0,7.447.646,44.793,44.793,0,0,1-7.468-.523,21.123,21.123,0,0,1-7.094-2.387,12.51,12.51,0,0,1-2.948-2.354,13.82,13.82,0,0,1-2.05-3.169c-1.15-2.222-2.244-4.467-3.328-6.718-4.323-9.007-8.506-18.075-12.673-27.154Z" style="fill:#a6abb0"/><path d="M165.1,66.557s9.113,17.89,10.8,20.931a14.322,14.322,0,0,0,12.321,7.269h15.865c3.713,0,8.27-2.371,12.827-8.953s12.32-18.851,12.32-18.851" style="fill:none;stroke:#a6abb0;stroke-miterlimit:10"/><path d="M243.834,66.7a13.834,13.834,0,0,1,2.181,2.971,10.5,10.5,0,0,1,1.119,3.536,15.747,15.747,0,0,1-.972,7.2,36.092,36.092,0,0,1-3.08,6.5c-1.2,2.062-2.39,4.1-3.514,6.2-1.147,2.085-2.269,4.193-3.6,6.183a18.148,18.148,0,0,1-4.953,5.161A17.812,17.812,0,0,1,224.359,107a38.078,38.078,0,0,1-7.11.572,37.959,37.959,0,0,0,7.086-.695,17.642,17.642,0,0,0,6.538-2.635,17.864,17.864,0,0,0,4.781-5.162c1.282-1.989,2.363-4.107,3.473-6.211,2.1-4.279,4.9-8.221,6.324-12.708a14.971,14.971,0,0,0,.817-6.835,10.524,10.524,0,0,0-3.16-5.941Z" style="fill:#a6abb0"/><path d="M293.013,61.574c1.7-3.095,2.951-6.5,8.914-6.5" style="fill:none;stroke:#a6abb0;stroke-miterlimit:10"/><path d="M328.653,72.209c-10.927,0-21.038,1.758-31.183,15.279s-23.052,30.864-28.788,37.9S251.6,142.6,232.035,142.6s-138.159,2.143-142.6,2.143-10.438.112-12.189-2.9" style="fill:none;stroke:#a6abb0;stroke-miterlimit:10;stroke-width:0.5px"/><path d="M328.653,69.621c-6.284,0-12.648.561-18.961,3.717-4.923,2.461-9.654,6.417-14.292,12.6-1.572,2.1-3.211,4.283-4.878,6.509-9.116,12.168-19.041,25.415-23.845,31.3a44.05,44.05,0,0,1-15.185,12.077,44.756,44.756,0,0,1-19.457,4.184c-13.279,0-71.979.983-109.832,1.618-18.078.3-31.367.525-32.773.525h-.464c-3.76,0-11.725-.309-14.376-5.8" style="fill:none;stroke:#a6abb0;stroke-linecap:round;stroke-linejoin:round;stroke-width:0.25px;stroke-dasharray:4,2"/><path d="M328.653,74.8c-6,0-11.406.55-16.647,3.171-4.079,2.038-8.219,5.413-12.467,11.074-1.571,2.094-3.208,4.279-4.875,6.505-9.075,12.113-19.086,25.478-23.977,31.473A49.223,49.223,0,0,1,253.712,140.5a49.922,49.922,0,0,1-21.677,4.684c-13.222,0-71.852.982-109.746,1.617-18.027.3-31.395.526-32.859.526h-.46a48.649,48.649,0,0,1-6.592-.29" style="fill:none;stroke:#a6abb0;stroke-linecap:round;stroke-linejoin:round;stroke-width:0.25px;stroke-dasharray:4,2"/><path d="M56.055,109.863l13.514,15.9L56.055,139.63v-6.079c-13.089-5.3-19.867-12.282-19.867-18.4,0-3.095,1.739-5.984,5.272-8.3A33.927,33.927,0,0,0,56.055,116Z" style="fill:#f4ae3d"/><path d="M44.486,87.313l9.611,15.02c-5.49.986-9.694,2.56-12.637,4.518-3.341-3.683-5.162-7.708-5.272-11.145C36.038,91.3,38.68,87.847,44.486,87.313Z" style="fill:#f5bc38"/><path d="M36.188,95.706c.11,3.437,1.931,7.462,5.272,11.145-3.533,2.314-5.272,5.2-5.272,8.3h-.013V95.706Z" style="fill:#f4ae3d"/><path d="M69.569,125.76l-13.514-15.9V116a33.927,33.927,0,0,1-14.595-9.146c2.944-1.958,7.147-3.532,12.637-4.518l-9.611-15.02c-5.806.534-8.448,3.984-8.3,8.393h-.013v19.443h.013c0,6.12,6.778,13.1,19.867,18.4v6.079Z" style="fill:none;stroke:#efefef;stroke-miterlimit:10"/><path d="M56.05,116C35.473,109.239,29.6,88.662,44.485,87.311" style="fill:none;stroke:#efefef;stroke-miterlimit:10"/></svg>
