<?xml version="1.0" encoding="UTF-8"?><svg xmlns="http://www.w3.org/2000/svg" width="325" height="114.9425" viewBox="0 0 325 114.9425"><g id="uuid-f7e1bdf1-6aea-41c9-a965-abd28bbbc0d4"><path d="m267.7879,57.1879c3.381-1.9922,6.4773-4.8267,8.9704-8.4012,8.0369-11.5203,6.6823-26.3306-3.0167-33.0925-3.2444-2.254-7.001-3.3354-10.8715-3.3354H34.3303c-3.8705,0-7.6385,1.0815-10.8715,3.3354-9.6989,6.7619-11.0536,21.5722-3.0167,33.0925,2.6752,3.8363,6.0561,6.8189,9.7217,8.8452,3.6769,2.0263,7.6499,3.0964,11.509,3.0964h48.1532" style="fill:none; stroke:#30373e; stroke-miterlimit:10; stroke-width:.5px;"/><path d="m272.2231,16.0822c11.091,8.2001,7.4783,25.556-2.0361,33.5235-3.1396,2.7547-6.9537,4.7883-11.0515,5.5455,4.0727-.8807,7.7878-3.0168,10.7995-5.8228,8.7894-7.8381,12.1562-24.4451,1.43-32.0159,0,.0002.8581-1.2302.8581-1.2302h0Z" style="fill:#30373e; stroke-width:0px;"/><path d="m290.5772,73.3468s.33,4.8-.06,7.07c-.3,2.94-1.42,5.96-3.3,8.81-1.87,2.85-4.5,5.54-7.82,7.82-7.48,5.12-16.56,6.86-23.9,5.2v.01L69.0272,55.5168l-28.52-7.15c-3.66-.78-7.1-2.38-9.96-4.66-2.87-2.27-5.14-5.21-6.49-8.66-2.92-7.47-.66-15.28,5.09-20.23,1.63-.56,3.38-.84,5.18-.84h73.22c22.14,4.6,23.65,10.93,23.65,10.93l146.37,34.6c3.68.83,6.91,2.52,9.29,5.06,2.35,2.52,3.56,5.56,3.72,8.78Z" style="fill:#cfd2d4; stroke-width:0px;"/><path d="m69.0279,55.5132l-19.3315.1875c-2.8981-.035-6.8266.178-9.6885.008-3.2676-.2566-6.4306-1.3849-9.2339-3.0605-8.4222-5.0133-13.9596-15.1494-12.5674-25.0282.4612-3.2886,1.7883-6.5233,4.0158-9.0839l1.1226.9948c-4.2258,4.669-4.9336,11.6692-3.2768,17.6012,3.0239,10.915,13.2302,19.1488,24.7954,18.1464,3.2009.0321,20.6034.1996,24.1643.2347h0Z" style="fill:#30373e; stroke-width:0px;"/><path d="m64.8501,13.9753l175.7648,41.5392,36.9516,8.7313c3.6883.831,6.9099,2.5272,9.2891,5.0658,2.9111,3.1161,4.0727,7.0344,3.6595,11.1048" style="fill:none; stroke:#30373e; stroke-miterlimit:10; stroke-width:.5px;"/><path d="m84.2281,28.8777c-7.6684-1.6849-23.0465-5.1615-30.6932-6.9227,0,0-7.669-1.7507-7.669-1.7507l-3.8346-.8754c-3.837-1.0977-7.7075,1.662-9.3778,5.0111-1.1966,2.3304-1.233,4.9966-.3982,7.4644.7011,2.4994,1.7896,4.911,3.5231,6.8366,3.5607,3.9432,8.9082,5.307,13.8896,6.575,4.9754,1.3204,32.5832,8.0987,38.1648,9.4811-12.6844-2.8819-25.6234-5.9382-38.2566-9.1258-5.0418-1.2519-10.4804-2.6261-14.1276-6.6322-1.802-1.9802-2.9348-4.4696-3.6571-7.0003-.8837-2.5125-.8342-5.4204.4347-7.813,1.7585-3.5108,5.8877-6.3805,9.9052-5.2033,0,0,3.8284.8977,3.8284.8977l7.657,1.7955c7.6291,1.7749,22.9992,5.4127,30.6111,7.2621h0Z" style="fill:#30373e; stroke-width:0px;"/><path d="m107.5448,13.9726c22.1455,4.607,23.6539,10.9383,23.6539,10.9383l146.3715,34.5923c3.6792.8315,6.9087,2.5241,9.2897,5.0656,2.3485,2.5158,3.5578,5.5546,3.7194,8.7738,0,0,.3282,4.8086-.0652,7.0738h.0012c-.5967,5.8779-4.4773,12.0726-11.1158,16.6261-7.4791,5.1227-16.5633,6.8644-23.9058,5.2024v.0114L69.0279,55.5145l-28.5163-7.149c-3.6656-.7741-7.1034-2.3792-9.9608-4.6559-2.8687-2.2767-5.1454-5.2137-6.4887-8.663-2.9256-7.4677-.6603-15.277,5.0885-20.2289" style="fill:none; stroke:#30373e; stroke-miterlimit:10; stroke-width:1.5px;"/><path d="m22.7837,19.0336c.7779-.8778,1.6563-1.662,2.6282-2.3395,2.5536-1.7798,5.6374-2.7214,8.918-2.7214h228.5407c3.2706,0,6.3555.9427,8.9236,2.7248" style="fill:none; stroke:#30373e; stroke-miterlimit:10; stroke-width:1.5px;"/></g><g id="uuid-8a9a2a09-9732-42e4-bb84-e34b6116e58b"><line x1="297.4742" y1="79.1664" x2="297.2012" y2="84.3312" style="fill:#f4ae3d; stroke:#f4f4f4; stroke-miterlimit:10; stroke-width:1.5px;"/><path d="m303.3665,63.723c-.202,14.5457-1.4953,29.2564-24.266,31.0192l-.8245,8.0262-12.6959-13.0438,15.7243-16.4358-.8245,8.0262c11.0922,1.7132,39.4757-14.3456,9.2008-37.2981l-.5423,13.6319s9.8319,7.6946,11.3341,14.4356" style="fill:#f4ae3d; stroke:#f4f4f4; stroke-miterlimit:10; stroke-width:1.5px;"/><path d="m249.271,81.5272l-19.0221-4.753c-1.5948-.3985-2.468-1.6916-1.9504-2.8884h0c.5176-1.1967,2.2301-1.8438,3.8249-1.4453l19.0221,4.753c1.5948.3985,2.468,1.6916,1.9504,2.8884h0c-.5176,1.1967-2.2301,1.8438-3.8249,1.4453Z" style="fill:none; stroke:#30373e; stroke-miterlimit:10; stroke-width:.5px;"/><path d="m252.1332,78.6372c-1.5429,1.0045-3.9969-.0708-5.6104-.3831,0,0-5.5966-1.3552-5.5966-1.3552-2.5693-.711-7.258-1.7649-9.7442-2.5818-.4382-.2032-.8353-.5109-1.0977-.915.5741.8314,1.5821,1.0282,2.5072,1.2226,4.0187.9621,9.9614,2.4061,13.9714,3.4687,0,0,2.7879.7193,2.7879.7193.903.2931,1.921.2632,2.7823-.1755h0Z" style="fill:#30373e; stroke-width:0px;"/></g></svg>