<?xml version="1.0" encoding="UTF-8"?><svg xmlns="http://www.w3.org/2000/svg" width="325" height="161.7489" viewBox="0 0 325 161.7489"><g id="uuid-683761b4-7942-437d-a58d-6b5e8c52d950"><path d="m267.7879,57.1879c3.381-1.9922,6.4773-4.8267,8.9704-8.4012,8.0369-11.5203,6.6823-26.3306-3.0167-33.0925-3.2444-2.254-7.001-3.3354-10.8715-3.3354H34.3303c-3.8705,0-7.6385,1.0815-10.8715,3.3354-9.6989,6.7619-11.0536,21.5722-3.0167,33.0925,2.6752,3.8363,6.0561,6.8189,9.7217,8.8452,3.6769,2.0263,7.6499,3.0964,11.509,3.0964h48.1532" style="fill:none; stroke:#30373e; stroke-miterlimit:10; stroke-width:.5px;"/><path d="m272.2231,16.0822c11.091,8.2001,7.4783,25.556-2.0361,33.5235-3.1396,2.7547-6.9537,4.7883-11.0515,5.5455,4.0727-.8807,7.7878-3.0168,10.7995-5.8228,8.7894-7.8381,12.1562-24.4451,1.43-32.0159,0,.0002.8581-1.2302.8581-1.2302h0Z" style="fill:#30373e; stroke-width:0px;"/><path d="m290.5772,73.3468s.33,4.8-.06,7.07c-.3,2.94-1.42,5.96-3.3,8.81-1.87,2.85-4.5,5.54-7.82,7.82-7.48,5.12-16.56,6.86-23.9,5.2v.01L69.0272,55.5168l-28.52-7.15c-3.66-.78-7.1-2.38-9.96-4.66-2.87-2.27-5.14-5.21-6.49-8.66-2.92-7.47-.66-15.28,5.09-20.23,1.63-.56,3.38-.84,5.18-.84h73.22c22.14,4.6,23.65,10.93,23.65,10.93l146.37,34.6c3.68.83,6.91,2.52,9.29,5.06,2.35,2.52,3.56,5.56,3.72,8.78Z" style="fill:#cfd2d4; stroke-width:0px;"/><path d="m69.0279,55.5132l-19.3315.1875c-2.8981-.035-6.8266.178-9.6885.008-3.2676-.2566-6.4306-1.3849-9.2339-3.0605-8.4222-5.0133-13.9596-15.1494-12.5674-25.0282.4612-3.2886,1.7883-6.5233,4.0158-9.0839l1.1226.9948c-4.2258,4.669-4.9336,11.6692-3.2768,17.6012,3.0239,10.915,13.2302,19.1488,24.7954,18.1464,3.2009.0321,20.6034.1996,24.1643.2347h0Z" style="fill:#30373e; stroke-width:0px;"/><path d="m64.8501,13.9753l175.7648,41.5392,36.9516,8.7313c3.6883.831,6.9099,2.5272,9.2891,5.0658,2.9111,3.1161,4.0727,7.0344,3.6595,11.1048" style="fill:none; stroke:#30373e; stroke-miterlimit:10; stroke-width:.5px;"/><path d="m84.2281,28.8777c-7.6684-1.6849-23.0465-5.1615-30.6932-6.9227,0,0-7.669-1.7507-7.669-1.7507l-3.8346-.8754c-3.837-1.0977-7.7075,1.662-9.3778,5.0111-1.1966,2.3304-1.233,4.9966-.3982,7.4644.7011,2.4994,1.7896,4.911,3.5231,6.8366,3.5607,3.9432,8.9082,5.307,13.8896,6.575,4.9754,1.3204,32.5832,8.0987,38.1648,9.4811-12.6844-2.8819-25.6234-5.9382-38.2566-9.1258-5.0418-1.2519-10.4804-2.6261-14.1276-6.6322-1.802-1.9802-2.9348-4.4696-3.6571-7.0003-.8837-2.5125-.8342-5.4204.4347-7.813,1.7585-3.5108,5.8877-6.3805,9.9052-5.2033,0,0,3.8284.8977,3.8284.8977l7.657,1.7955c7.6291,1.7749,22.9992,5.4127,30.6111,7.2621h0Z" style="fill:#30373e; stroke-width:0px;"/><path d="m107.5448,13.9726c22.1455,4.607,23.6539,10.9383,23.6539,10.9383l146.3715,34.5923c3.6792.8315,6.9087,2.5241,9.2897,5.0656,2.3485,2.5158,3.5578,5.5546,3.7194,8.7738,0,0,.3282,4.8086-.0652,7.0738h.0012c-.5967,5.8779-4.4773,12.0726-11.1158,16.6261-7.4791,5.1227-16.5633,6.8644-23.9058,5.2024v.0114L69.0279,55.5145l-28.5163-7.149c-3.6656-.7741-7.1034-2.3792-9.9608-4.6559-2.8687-2.2767-5.1454-5.2137-6.4887-8.663-2.9256-7.4677-.6603-15.277,5.0885-20.2289" style="fill:none; stroke:#30373e; stroke-miterlimit:10; stroke-width:1.5px;"/><path d="m22.7837,19.0336c.7779-.8778,1.6563-1.662,2.6282-2.3395,2.5536-1.7798,5.6374-2.7214,8.918-2.7214h228.5407c3.2706,0,6.3555.9427,8.9236,2.7248" style="fill:none; stroke:#30373e; stroke-miterlimit:10; stroke-width:1.5px;"/></g><g id="uuid-1ab74388-e6da-4a38-aa85-5e2843faf4fc"><path d="m54.737,32.1924c-.6674,3.4394-2.197,8.0791.8234,10.7446,3.0528,2.1416,7.7957,1.5849,9.9997-1.5375,1.6286-1.8743,2.4974-4.9919,3.1677-6.6802-2.5423-4.9005-9.9596-6.6472-13.9907-2.5269h0Zm0,0c4.0138-4.4483,11.7926-2.7451,14.4284,2.3982-.7067,2.4937-1.5636,5.0247-3.2194,7.1182-2.3663,3.2696-7.4116,3.9072-10.6208,1.5206-3.1265-2.802-1.4522-7.5581-.5882-11.037h0Z" style="fill:#30373e; stroke-width:0px;"/><path d="m91.4445,128.111c-2.1294,2.4534-3.4872,8.4728-3.2128,10.0021.2657,1.5297-.0844,2.9891,2.7067,4.614,1.8219,1.0616,3.6526,2.9545,4.7094,4.1445.459.506,1.2787.4278,1.6128-.1641l1.7937-3.1485.1952.0618c.4852-1.5788,1.1053-3.6974,1.8864-6.5669.5313-1.9397.61-3.6065.34-5.031-2.5964-4.6974-8.0197-6.2466-10.0315-3.912Z" style="fill:#fffefd; stroke-width:0px;"/><path d="m101.5872,132.8268c-.02-.27-.06-.53-.11-.78v-.02c-1.0699-5.89-7.95-7.46-12.91-5.34-20.85,12.6-20.17,28.81-20.17,28.81,0,0-4.3,10.36-5.04,12.2499-.74,1.88-7.07,10.27-7.07,10.27,0,0-2.1299-6.5-2.45-14.19-.32-7.7-1.31-14.14-1.31-14.14.94-4.56.87-13.4,1.05-18.86.19-5.45,3.73-21.33,5.35-26.85s5.87-17.01,7.49-27.25c1.63-10.25,4.43-17.17,5.35-31.79.83-13.19-5.39-15.71-9.22-16.27-3.83-.56-9.9,1.75-12.38,11.31-2.47,9.57-5.55,26.76-6.36,29.57s-4.78,8.64-5.62,18.03c0,0-6.55,20.32-8.68,25.76-3.24-6.03-13.75-11.45-21.3-2.81-7.55,8.65-13.58,16.82-17.19,19.13-6.56.38-11.12,1.93-15.01,2.34-3.89.41-7.59.67-10.99,7.8l-.01.01c-5.97,2.09-10.75,3.22-14.16,5.32-3.4,2.09-7.6,4.94-8.2,15.2499-.59,10.31.51,31.54.68,43.05.17,10.84,3.07,30.4.15,43-.18.78-.38,1.54-.61,2.2599-3.9,12.4-52.84,92.21-52.84,92.21l86.48,9.09c5.73-19.94,32.97-55.86,42.8-74.34,2.6-4.88,45.18-49.35,50.61-54.61,5.43-5.27,8.89-11.07,9.41-13.35.52-2.29,3.43-11.35,4.91-17.89,1.47-6.54,6.29-16.51,6.29-16.51.59-.82,1.72-2.95,2.62-4.69.72-1.41,1.29-2.57,1.29-2.57,1.81-3.57,1.28-8.8,1.33-10.03.05-1.24,1.83-7.89,1.83-7.89,0,0,.39-.4,1.65-4.49.05-.16.1-.33.16-.5.0099-.03.02-.07.03-.11.07-.22.13-.44.2-.67.11-.35.22-.73.33-1.12.0699-.24.14-.48.21-.73.08-.25.15-.51.23-.78.14-.5099.29-1.04.4399-1.61.1-.34.19-.68.29-1.04.34-1.23.49-2.36.49-3.39,0-.29-.01-.57-.04-.84ZM58.2672,44.2768c-.86-.16-1.57-.41-2.17-.74.6.33,1.3101.57,2.17.73.3.05.6.1.89.13-.29-.03-.58-.07-.89-.12Zm33.17,83.83h.01c-.49.56-.93,1.31-1.33,2.15.39-.84.84-1.59,1.32-2.15Zm5.83,18.6c-.05.08-.1.16-.17.22.0601-.06.1201-.14.16-.22l.9-1.57-.89,1.57Z" style="fill:#f4f4f4; stroke-width:0px;"/><path d="m-23.4954,349.9825c2.4174-8.5757,6.7393-16.478,11.0791-24.2119,9.8617-17.4189,21.6826-33.6364,31.4491-51.0864,9.7591-12.1808,20.8095-23.1863,31.413-34.6095,6.1314-6.4378,12.2386-12.8704,18.5186-19.1964,3.1664-3.0455,5.9832-6.4465,8.1699-10.1986.5274-.9328,1.0357-1.911,1.3381-2.8526.1986-.8213.6506-2.3919.8787-3.2004,0,0,1.854-6.3949,1.854-6.3949,1.324-4.2788,2.0693-8.6192,3.4869-12.8945,1.4786-4.2929,3.221-8.4494,5.1876-12.523,1.1168-1.7226,2.1241-3.7792,3.1194-5.7187,1.0117-1.8454,1.7414-3.8723,1.8682-6.0019.1788-1.5414.0939-3.3351.0728-4.9063.2986-2.8889,1.1799-5.5212,1.8393-8.3012.0001,0,.2087-.3688.2087-.3688-.1267.1482-.0476.059-.0555.0577l.0404-.0768c1.0327-2.369,1.6868-4.891,2.4281-7.3686.6655-2.5123,1.6718-5.0697,1.2867-7.655-.6375-5.6284-7.7208-6.8518-11.6817-5.0676-10.0086,6.0014-19.2508,15.8923-19.7927,28.0587,0,0,.0006.1971.0006.1971l-.0621.1507-4.897,11.8774c-2.2082,4.4141-5.426,8.0714-8.2738,12.0581-.9022-2.8094-1.6408-5.6842-2.1245-8.5622-.421-2.3796-.6862-4.7892-.8029-7.211-.1656-4.8325-.7393-9.6733-1.2959-14.4433,1.4455-7.8309.3193-16.4512,1.7121-24.2945,1.4174-8.0706,3.0543-16.0543,5.4805-23.8945,2.5035-7.748,5.065-15.467,6.4997-23.4146,1.2092-8.0896,3.5779-15.9403,4.6309-23.9411.6405-5.8745,1.8008-12.0764.1001-17.8281-2.6686-8.5931-13.1304-8.9435-17.2071-1.0665-.9668,1.6863-1.6131,3.5448-2.1114,5.4722-2.2011,8.8274-3.8321,17.8929-5.6984,26.8394-.4331,3.0277-2.1403,5.9386-3.2403,8.6901-1.5311,3.698-2.5259,7.5876-2.8825,11.5552-1.9648,6.2892-4.0634,12.5447-6.1713,18.7963-2.0081,6.2084-4.4752,12.6223-8.6228,17.7394,0,0-.2807.3385-.2807.3385l-.3657-.0525c-2.1065-.2524-4.2553-.4059-6.386-.235.986-.5013,2.0791-.8171,3.178-.9825,1.1192-.1906,2.2052-.2628,3.3507-.2069,0,0-.6462.2859-.6462.2859,1.7005-2.6969,3.4552-5.4385,4.7752-8.351,3.6529-8.9684,6.3994-18.4675,9.5045-27.6699.1939-3.0746,1.4412-8.3783,2.9849-11.8566,1.1659-2.9076,2.6806-5.3189,3.1674-8.4016,0,0,.6201-2.9794.6201-2.9794,1.6313-7.971,3.1482-15.9727,5.1394-23.9117,1.3489-6.0722,5.8812-12.8512,12.8833-12.3347,7.4048.5547,10.5135,7.453,10.4378,14.0905.0724,12.3456-3.6848,24.2834-5.6826,36.2729-2.1115,12.162-7.144,23.3293-9.5939,35.358-1.2293,5.9063-2.6944,11.8791-3.0011,17.8968-.1911,5.5227-.0579,13.7264-1.0362,18.1251,1.5436,9.3719.774,19.0842,3.7499,28.1919,0,0-1.4004-.2334-1.4004-.2334,2.403-3.382,5.2619-6.7403,7.1038-10.4344-.0002-.0001,4.8907-11.9085,4.8907-11.9085l-.0616.3474c.4518-12.8121,10.0917-23.2856,20.556-29.5703,4.0305-1.7654,9.4084-1.3535,12.4363,2.1392,3.0977,3.5785,1.7091,8.494.461,12.4933-.8007,2.6221-1.4659,5.326-2.6387,7.82-.05.0729-.0137.0577-.1937.2726l.2085-.3684c-.6291,2.5862-1.5039,5.2758-1.8203,7.8785,0,0,.0294,1.6426.0294,1.6426.1062,3.4234-.3925,6.9773-2.1724,9.9835-1.0248,1.7732-2.0583,4.2357-3.2645,5.9247-1.554,3.2971-3.6496,8.15-4.9792,12.0942-1.3805,4.1571-2.1671,8.6087-3.4752,12.8201-.6103,2.0248-2.217,7.5983-2.7492,9.6231-2.077,5.3388-5.9383,9.7499-9.9168,13.7012-12.4475,12.6228-24.6668,25.5606-36.7169,38.5754-3.0006,3.2685-5.9956,6.5454-8.9055,9.8822-1.7765,2.1251-3.6783,4.0292-4.9585,6.4606-9.6046,16.9327-21.2047,32.5933-31.1633,49.2918-4.5033,7.6237-9.0272,15.3352-11.8106,23.7836h0Z" style="fill:#30373e; stroke-width:0px;"/><path d="m93.1436,168.5958c-3.8667-1.512-7.5516-3.9811-9.9102-7.4475,2.8899,3.0107,6.3393,5.3089,9.9102,7.4475h0Z" style="fill:#30373e; stroke-width:0px;"/><path d="m99.0522,143.5578l-1.7898,3.1462c-.3382.5944-1.1583.6769-1.6126.1657-1.0565-1.189-2.889-3.0794-4.7085-4.1414-2.7932-1.6304-2.4431-3.0846-2.7131-4.6155s1.0859-7.5455,3.2128-10.0056c2.1269-2.4601,8.0497-.6005,10.4392,4.7251" style="fill:none; stroke:#30373e; stroke-miterlimit:10; stroke-width:.5px;"/><path d="m28.8446,113.6898c-2.878-5.1449-9.7535-8.5094-15.4293-6.1152-1.85.7547-3.4413,2.0504-4.7789,3.6048-4.2124,4.798-8.1574,9.8371-12.4157,14.6173-1.4937,1.6206-2.9884,3.2853-4.9507,4.5962,0,0-.2086.0125-.2086.0125-4.9557.2121-9.608,1.5497-14.5398,2.285-2.4865.255-4.8357.4782-6.6587,1.8759-1.9271,1.3871-3.2301,3.6162-4.3104,5.8385-4.4847,1.6744-9.3256,2.7741-13.5396,4.9685-7.0382,3.4815-8.5193,10.0626-8.6178,17.3277-.2064,7.1075.0034,14.2267.1848,21.3419.143,4.6376.4907,16.8772.5709,21.3825.5057,11.8901,2.1024,23.7262.8968,35.7113-.3995,4.7997-1.8953,9.5822-4.1805,13.7809-2.1389,4.2715-4.4302,8.4441-6.7484,12.6016-14.007,24.8686-28.9366,49.197-44.0883,73.3764,8.7052-14.7323,20.537-34.6373,28.9175-49.1844,4.766-8.2264,9.5115-16.4655,14.0889-24.7913,2.2832-4.1641,4.5406-8.3465,6.6296-12.5938,2.2327-4.2224,3.6034-8.5935,3.9915-13.3385,1.1555-11.8089-.4938-23.6812-1.036-35.5028-.0893-4.4599-.4979-16.7616-.6509-21.394-.1484-4.7554-.2796-9.5135-.3228-14.2803.1356-7.1115-.7043-15.1423,3.8151-21.2009,4.7236-5.8813,12.6379-7.0719,19.3082-9.5191.0002,0-.429.3857-.4278.3843,2.4933-5.4174,5.9008-8.0384,11.9949-8.2729,4.8036-.7209,9.7031-2.0939,14.6363-2.2937,0-.0001-.3614.1172-.3614.1172,3.2841-2.3895,5.9455-5.9542,8.6421-9.0553,2.727-3.2642,5.4422-6.5569,8.2503-9.7764,2.8119-3.4668,7.5188-5.6135,12.0118-4.7304,4.4413.7973,8.4238,3.573,10.6488,7.5177,0,0-1.3219.709-1.3219.709h0Z" style="fill:#30373e; stroke-width:0px;"/><path d="m68.9247,34.6138c-2.3962-4.5965-9.6588-7.0228-14.1858-2.4215-1.6713,6.261-2.0107,11.0732,3.5259,12.0785,5.5366,1.0053,8.7121-2.6105,10.6599-9.657Z" style="fill:none; stroke:#30373e; stroke-miterlimit:10; stroke-width:.5px;"/><path d="m57.7488,83.5265c-4.3049-2.4719-9.3975-2.9685-14.2696-2.5727,4.7946-1.1015,10.3073-.5215,14.2696,2.5727h0Z" style="fill:#30373e; stroke-width:0px;"/><path d="m56.8752,88.5159c-4.414.8729-9.2281.1987-13.1621-2.0002,4.2139,1.5532,8.6708,2.1743,13.1621,2.0002h0Z" style="fill:#30373e; stroke-width:0px;"/><line x1="297.4742" y1="79.1664" x2="297.2012" y2="84.3312" style="fill:#f4ae3d; stroke:#f4f4f4; stroke-miterlimit:10; stroke-width:1.5px;"/><path d="m303.3665,63.723c-.202,14.5457-1.4953,29.2564-24.266,31.0192l-.8245,8.0262-12.6959-13.0438,15.7243-16.4358-.8245,8.0262c11.0922,1.7132,39.4757-14.3456,9.2008-37.2981l-.5423,13.6319s9.8319,7.6946,11.3341,14.4356" style="fill:#f4ae3d; stroke:#f4f4f4; stroke-miterlimit:10; stroke-width:1.5px;"/><path d="m249.271,81.5272l-19.0221-4.753c-1.5948-.3985-2.468-1.6916-1.9504-2.8884h0c.5176-1.1967,2.2301-1.8438,3.8249-1.4453l19.0221,4.753c1.5948.3985,2.468,1.6916,1.9504,2.8884h0c-.5176,1.1967-2.2301,1.8438-3.8249,1.4453Z" style="fill:none; stroke:#30373e; stroke-miterlimit:10; stroke-width:.5px;"/><path d="m252.1332,78.6372c-1.5429,1.0045-3.9969-.0708-5.6104-.3831,0,0-5.5966-1.3552-5.5966-1.3552-2.5693-.711-7.258-1.7649-9.7442-2.5818-.4382-.2032-.8353-.5109-1.0977-.915.5741.8314,1.5821,1.0282,2.5072,1.2226,4.0187.9621,9.9614,2.4061,13.9714,3.4687,0,0,2.7879.7193,2.7879.7193.903.2931,1.921.2632,2.7823-.1755h0Z" style="fill:#30373e; stroke-width:0px;"/></g></svg>