<?xml version="1.0" encoding="UTF-8"?><svg id="uuid-778451c0-e99e-4285-80fd-6a71ff292bc5" xmlns="http://www.w3.org/2000/svg" width="325" height="182.4587" xmlns:xlink="http://www.w3.org/1999/xlink" viewBox="0 0 325 182.4587"><defs><clipPath id="uuid-dd72fb4f-70b4-4e23-b245-32153b022e14"><rect x="5.3408" y="-33.4902" width="314.7779" height="214.8452" style="fill:none; stroke-width:0px;"/></clipPath></defs><g style="clip-path:url(#uuid-dd72fb4f-70b4-4e23-b245-32153b022e14);"><path d="m-45.7642-21.7507s-9.9992,4.6825-12.6125,6.1028c-3.5539,1.9316-7.7146,6.6962-7.7146,10.8569v2.7514s-.0671,1.6106.8053,2.3488c0,0-1.9461,1.2079-1.9461,2.3488v2.9527c0,.5369,1.0737,3.8922,2.9527,6.6437,0,0-1.0989.5395-.8724,2.5501,2.4858,22.0652,16.9952,65.7623,16.9952,65.7623,0,0,.6749,5.0614,10.2916,8.4357,9.6167,3.3743,173.6691,54.2311,242.2743,71.8725,11.81,3.0369,24.4636,1.181,31.7184-6.9173,7.2547-8.0983,9.7855-11.6413,9.7855-11.6413,0,0,2.362-2.0246,3.3743-4.3866s2.6994-4.8927,2.6994-4.8927c0,0,.5061-1.181,0-2.362,0,0,21.5955-21.2581,51.2893-58.3753,0,0,1.3497-1.6871-1.3497-5.0614,0,0,5.8922-5.8217,6.4346-8.3307s.4747-4.4755.4747-4.4755c0,0-.0678-2.5768-2.6446-4.0686" style="fill:none; stroke:#a6abb0; stroke-miterlimit:10;"/><path d="m-65.2859.3092c2.4575,1.51,4.2229,2.1405,7.5017,2.8972S21.6618,18.5911,26.5798,19.6s13.1149,2.2699,23.7077,1.5133,42.8756-4.0354,51.1986-5.0442c8.3229-1.0088,18.5374-.6305,30.6435,1.3872,12.1061,2.0177,108.4501,17.7808,117.1514,19.0418,8.7012,1.261,24.8426-1.6394,31.7784-9.3318" style="fill:none; stroke:#a6abb0; stroke-miterlimit:10;"/><path d="m258.8754,36.4675c19.2233,2.8257,30.1593,5.9486,34.6919,11.1854.7762.8969,1.7734,1.5653,2.9284,1.8352,2.3417.5471,6.3757,1.2892,9.6956.8752" style="fill:none; stroke:#a6abb0; stroke-miterlimit:10;"/><path d="m301.9265,67.2383c-9.1394,4.8213-15.9016,7.0912-19.3932,8.6045s-13.58,2.6482-25.4339,1.0088c-11.8539-1.6394-185.6263-34.931-219.6746-42.8756C19.6015,29.8171-58.4161,14.6187-64.2793,12.2543" style="fill:none; stroke:#a6abb0; stroke-miterlimit:10;"/><path d="m-65.9942,15.8169c3.6035,1.1612,9.259,2.1936,13.0261,3.0405,18.7945,3.943,46.6851,9.499,65.5411,13.5163,0,0,13.0866,2.8122,13.0866,2.8122,3.1697.9035,6.8015.9845,9.4772,3.0918.8719.7079,1.5315,1.6434,2.0228,2.6406-.5091-.9888-1.1832-1.9082-2.0602-2.5946-2.7001-2.0481-6.3127-2.0593-9.4905-2.9033,0,.0002-13.1034-2.7227-13.1034-2.7227-18.933-3.7911-46.7344-9.4927-65.5253-13.6023-3.7177-.9069-9.3701-2.048-12.9744-3.2787h0Z" style="fill:#a6abb0; stroke-width:0px;"/><path d="m302.723,71.3423c-4.9772,2.6544-10.1302,4.9726-15.3752,7.0484-2.6302,1.0212-5.1887,2.3111-8.0062,2.7088-8.3702,1.3561-16.9743.858-25.2919-.6287-27.767-4.9306-55.4584-10.27-83.1628-15.5355-44.2681-8.7127-88.6299-17.0182-132.6655-26.8552,43.4429,9.3125,89.1843,17.9294,132.7599,26.3654,27.6889,5.3334,55.3664,10.7413,83.1176,15.7399,8.2909,1.5023,16.8603,2.0107,25.2115.7345,2.8186-.3788,5.3648-1.6453,7.9928-2.6424,5.2575-2.0372,10.4235-4.3166,15.42-6.9354h0Z" style="fill:#a6abb0; stroke-width:0px;"/><path d="m37.4249,33.9759s-1.3872,2.396,0,5.5486c1.3872,3.1526,18.7896,38.3359,25.8515,47.7937,7.0619,9.4579,11.8539,13.6193,24.5904,17.2764s112.2333,31.274,123.7088,33.7961c11.4755,2.5221,24.9584,2.8538,40.4114-7.7157" style="fill:none; stroke:#a6abb0; stroke-miterlimit:10;"/><path d="m278.624,86.9173c2.092,1.329,2.3135,2.4489.5169,4.6271s-22.643,27.2209-26.5441,31.1957-7.0513,7.8758-13.7212,8.9957-16.9454,1.9443-28.5622-2.3997c-2.855-1.4275-4.2825-3.3718-2.1043-6.9775,2.1782-3.5934,19.2712-27.8854,20.9202-29.9159,1.649-2.0182,3.5195-4.7993,10.6447-5.0209,4.2948.5538,19.1728,5.8084,38.8501-.5045Z" style="fill:#cfd2d4; stroke-width:0px;"/><path d="m231.4182,91.4238c2.7769-2.2871,6.7813-2.386,10.1-1.6262,3.1254.5139,6.2492,1.0412,9.3981,1.3623,6.2819.685,12.6479.8725,18.9166-.0225,3.1261-.463,6.2047-1.2297,9.2064-2.248.2086-.0468.4219-.0573.6322-.016.7601.1556.4885,1.0996.2482,1.5871.2086-.486.465-1.3871-.2621-1.5178-.1834-.0328-.4197-.0092-.5863.0354-2.9579,1.1536-6.0421,1.996-9.1818,2.5226-6.2875,1.0201-12.7187.8616-19.0245.117-3.161-.3388-6.2919-.8916-9.4092-1.4909-3.31-.8062-7.2017-.8511-10.0377,1.297h0Z" style="fill:#30373e; stroke-width:0px;"/><path d="m-64.1944-6.5559c.6604.4803,1.9113.9736,4.5241,1.5179,5.5696,1.1603,78.6711,14.4656,84.9369,15.4712,6.2659,1.0056,17.4051,2.3207,28.3896,0S83.7478,3.3889,95.0418,1.7668c11.294-1.622,19.2617-1.622,33.1084.5439,13.8467,2.166,146.6671,21.8918,149.2198,22.2785,1.8584.2816,3.2113.4811,4.5161.3301" style="fill:none; stroke:#a6abb0; stroke-dasharray:0 0 2.0007 1.0004; stroke-miterlimit:10; stroke-width:.25px;"/><path d="m282.3861,24.8436c.3192-.0602.6389-.1436.9661-.2542" style="fill:none; stroke:#a6abb0; stroke-miterlimit:10; stroke-width:.25px;"/><path d="m-64.8996-3.83c.6612.4796,1.9123.9722,4.5211,1.5157C-54.8089-1.1539,16.546,12.1513,22.8118,13.1569c6.2658,1.0056,17.4051,2.3207,28.3896,0s30.0915-7.0443,41.3855-8.6663c11.2939-1.622,19.2616-1.622,33.1083.5439s146.6671,21.8918,149.2198,22.2785c1.8575.2815,3.2101.481,4.5143.3304" style="fill:none; stroke:#a6abb0; stroke-dasharray:0 0 2.0081 1.0041; stroke-miterlimit:10; stroke-width:.25px;"/><path d="m279.9313,27.5674c.3192-.0602.639-.1436.9662-.2543" style="fill:none; stroke:#a6abb0; stroke-miterlimit:10; stroke-width:.25px;"/><path d="m34.888,20.8832s189.7921,36.1699,217.099,39.8269c27.3069,3.657,35.7666-1.5194,54.2043-10.3468" style="fill:none; stroke:#a6abb0; stroke-miterlimit:10; stroke-width:.5px;"/><path d="m-61.5614,23.434c.9736.2127,2.1947.4947,3.3814.8155,3.9684,1.0727,65.057,15.3077,72.825,17.0619,7.8447,1.7715,14.1995,4.9428,19.7177,14.6622l1.0588,1.8653c5.1917,9.1479,15.9937,28.1834,19.77,33.3895,3.9273,5.4122,8.3779,11.547,26.1892,16.6981,1.0621.3066,106.3567,30.7354,129.5396,35.9042,11.7542,1.8709,17.448.8388,19.7999.0561,4.8494-1.616,14.5717-5.2171,18.4344-7.3953" style="fill:none; stroke:#a6abb0; stroke-dasharray:0 0 2.0011 1.0006; stroke-miterlimit:10; stroke-width:.25px;"/><path d="m249.5907,136.2364c.3401-.2074.6163-.399.8177-.5713" style="fill:none; stroke:#a6abb0; stroke-miterlimit:10; stroke-width:.25px;"/><path d="m244.5356,144.1104c-.2942.15-.5922.2998-.8929.449" style="fill:none; stroke:#a6abb0; stroke-miterlimit:10; stroke-width:.25px;"/><path d="m242.7479,144.9978c-3.6531,1.7674-7.5809,3.4029-10.23,4.2856-2.5731.8577-5.8971,1.2865-9.8533,1.2865-3.7162,0-7.9902-.3777-12.7274-1.1365l-.1678-.0311c-23.1818-5.1516-128.903-35.7037-129.9684-36.012-19.6888-5.6932-24.9694-12.9724-29.2133-18.8217-3.9628-5.4627-14.4683-23.9761-20.1132-33.9222l-1.0577-1.8637c-4.5239-7.9669-9.3011-10.4044-16.0248-11.9231-5.8738-1.326-68.7477-15.9543-73.0561-17.1186-.5687-.1537-1.0861-.3077-1.5571-.4612" style="fill:none; stroke:#a6abb0; stroke-dasharray:0 0 1.9936 .9968; stroke-miterlimit:10; stroke-width:.25px;"/><path d="m-63.5114,24.9713s.457.907,4.5899,2.024c4.1329,1.117,66.0144,15.5262,72.9398,17.09,6.9254,1.5638,12.7337,4.2446,17.8719,13.2922,5.1382,9.0477,16.8666,29.8238,20.9995,35.5205s9.1594,12.3986,27.7015,17.7602c18.5421,5.3616,108.6837,31.2759,129.7949,35.9673,11.17,1.7872,17.6704,1.1475,21.2325-.0399,5.4172-1.8057,14.9066-6.2934,17.669-8.6559" style="fill:none; stroke:#a6abb0; stroke-miterlimit:10; stroke-width:.25px;"/><path d="m228.3762,151.4735c-1.1553,5.4817-5.1793,9.0102-10.7802,9.3873-.726.0655-1.4573.0583-2.1811.0676,1.4392-.1982,2.8766-.3655,4.2478-.7928,4.4099-1.015,7.268-4.536,8.7135-8.6621h0Z" style="fill:#a6abb0; stroke-width:0px;"/><path d="m238.8773,129.3742c8.3222-11.3504,17.831-23.5595,26.2929-34.8049-8.1953,12.0151-17.1628,23.4904-26.2929,34.8049h0Z" style="fill:#30373e; stroke-width:0px;"/><path d="m68.5446,88.6411c-6.7986-10.6821-12.7184-21.896-18.5758-33.1137-.514-1.1484-1.7065-3.0411-1.9932-4.3148-1.4164-6.5518,7.7698-3.4974,11.2018-2.8424,11.7974,2.5495,79.5419,16.9101,92.8696,19.7499,0,0,9.2757,2.0316,9.2757,2.0316l4.6364,1.0547c4.9916,1.0551,9.0776,5.6129,6.2856,10.7201-1.5585,2.8018-3.699,5.1569-5.6884,7.6406-5.0338,6.032-10.4114,11.9864-15.6303,17.8698-.9621,1.0461-2.1337,2.608-3.231,3.4996-8.135,6.408-18.6293,1.1174-27.4383-.8373-8.8231-2.3934-18.5734-5.2104-27.408-7.7582-2.6347-.8593-6.5219-1.7854-9.0815-2.7726-5.7362-2.4445-11.6138-5.6881-15.2224-10.9273h0Zm0,0c3.6217,5.224,9.5101,8.4442,15.2452,10.8677,5.0813,1.7298,12.9922,3.7995,18.2163,5.3416,9.14,2.5648,18.2796,5.1424,27.4841,7.465,5.9186,1.6989,12.9497,2.648,18.0232-1.5967,1.076-.8572,2.2404-2.4643,3.1882-3.4795,0,0,3.1439-3.5577,3.1439-3.5577,4.1903-4.743,8.3804-9.4881,12.4202-14.3553,3.4591-4.3781,10.1971-10.8636,3.7846-15.7557-2.4817-1.9463-5.7817-2.1974-8.8292-2.9588l-9.2794-2.0053c-17.2506-3.7233-81.3275-17.5415-97.4389-21.0651-2.8435-.5946-7.6479-.6363-6.392,3.6352.3402,1.2689,1.3716,3.0909,1.9686,4.294,5.8196,11.2353,11.7021,22.4673,18.465,33.1705h0Z" style="fill:#a6abb0; stroke-width:0px;"/><path d="m64.0061,49.5135c-8.2444.5936-1.8079,10.2722.2968,14.1365,2.9021,5.1378,5.887,10.2323,9.0101,15.2362,3.0493,4.9613,7.0665,9.6774,12.6308,11.7998,4.7587,1.789,12.003,3.5416,16.9646,4.9739,5.6985,1.5304,11.408,3.0282,17.1324,4.4492,4.1607,1.3733,8.7856,1.2873,12.3792-1.4405,1.1786-.8376,2.0914-1.9223,3.0072-3.0931,3.6661-4.6162,7.2635-9.2977,10.8402-13.9886,2.0457-2.9539,4.7453-5.6531,6.2191-8.9003.5598-2.1379-1.6736-3.4275-3.3146-4.4463,0,0,.4974-.8675.4974-.8675,3.1521,1.7611,5.3366,4.254,2.6498,7.6649-1.7447,2.4266-3.5513,4.7377-5.3522,7.085-3.6141,4.6707-7.2431,9.3246-10.9515,13.9264-3.0214,4.3328-8.8187,6.7253-13.9747,5.2043,0,0-2.1523-.534-2.1523-.534-8.2668-2.0973-17.3863-4.6351-25.6339-6.9878-10.462-2.7743-15.3611-5.1389-21.1546-14.7125-3.0917-5.0324-6.0397-10.1472-8.9067-15.308-2.1153-3.9144-8.4458-13.65-.1868-14.1979h0Z" style="fill:#a6abb0; stroke-width:0px;"/><path d="m110.3942,59.4441c1.3705,16.4391,6.0253,15.5831,20.1987,19.6554,3.4386.8812,6.8844,1.748,10.3481,2.5279,2.4503.5462,5.0304-.3222,7.1026-1.6387-2.0588,1.4168-4.6612,2.4028-7.1581,1.9041-3.4861-.7071-6.9577-1.478-10.4043-2.3577-14.1334-3.8736-19.4263-3.6356-20.087-20.091h0Z" style="fill:#a6abb0; stroke-width:0px;"/><path d="m113.9968,74.0491c-9.7181,4.721-20.6003,9.4829-30.3673,14.099,9.7881-5.373,20.0554-9.8374,30.3673-14.099h0Z" style="fill:#a6abb0; stroke-width:0px;"/><path d="m48.727,52.9498c-4.1978-8.8668,7.5026-5.1969,11.9254-4.3366,0,0,17.2427,3.5968,17.2427,3.5968,27.0788,5.6942,59.432,12.0551,86.1081,18.5019,6.351,1.0454,11.8329,5.8099,7.3757,12.3096,4.1561-6.4012-1.1303-11.0361-7.4934-11.7863-26.8496-5.2866-59.1458-12.571-86.1078-18.4773,0,0-17.1973-3.8141-17.1973-3.8141-4.3104-.9155-15.8859-4.8216-11.8535,4.006h0Z" style="fill:#a6abb0; stroke-width:0px;"/><path d="m150.4378,81.3309s3.4047-4.2889,4.5936-5.8848,2.4372-2.268,5.4688-1.397,6.4199,2.2382,7.6682,2.7732,2.2588,2.1327.7728,4.2763-4.161,5.5913-4.8743,6.6018-2.5296,1.6644-4.2369,1.07-8.1867-2.8533-9.0784-3.4477-1.5345-2.4489-.3137-3.9919Z" style="fill:none; stroke:#a6abb0; stroke-miterlimit:10; stroke-width:.5px;"/><path d="m54.5226,192.5662c-1.1465-4.4509-2.2248-8.9173-3.2438-13.4021-.4895-2.2492-.9971-4.4929-1.1406-6.8391-.0704-1.1938.1407-2.6074,1.1788-3.3868,1.9286-1.2538,3.7658-2.5211,6.0803-2.3375,2.0587.0596,6.5437,1.9431,8.5399,2.5341,25.9456,8.8378,52.0219,17.859,77.7481,27.274-26.0562-8.4438-52.1553-17.4157-78.0292-26.4496-1.8684-.5646-6.3962-2.4919-8.3089-2.5931-2.1519-.2153-3.9134,1.042-5.6249,2.0829-.8535.6129-1.0269,1.7494-.994,2.8591.0883,2.2485.5765,4.515.9863,6.765.8746,4.5074,1.8596,8.9966,2.808,13.493h0Z" style="fill:#a6abb0; stroke-width:0px;"/><path d="m36.8616,112.4468c-5.1093,2.9369-1.6638,14.7104-.9262,19.5367,4.1084,20.5546,8.6582,41.0211,13.1696,61.491-4.6339-20.4455-9.3056-40.8835-13.5372-61.4178-.7954-4.902-4.4335-17.3075,1.187-20.0984.0002.0001.1068.4886.1068.4886h0Z" style="fill:#a6abb0; stroke-width:0px;"/><path d="m77.4715,124.5022l6.96,38.4989s9.7854,1.4672,12.6239,8.5777,2.9972,9.7762,2.9972,9.7762" style="fill:none; stroke:#a6abb0; stroke-miterlimit:10; stroke-width:.5px;"/><line x1="84.4315" y1="163.0012" x2="71.5174" y2="171.5138" style="fill:none; stroke:#a6abb0; stroke-miterlimit:10; stroke-width:.5px;"/><path d="m50.4257,173.2718c-.1961-4.8869,6.4177-1.5485,8.858-.8109,0,0,10.1603,3.6538,10.1603,3.6538,14.6692,5.2183,36.1611,13.1303,50.7074,18.5158,0,0,10.103,3.81,10.103,3.81l-10.1868-3.5802c-14.5812-5.2243-36.17-13.0031-50.741-18.4358,0,0-10.1295-3.7364-10.1295-3.7364-2.4141-.7796-8.8548-4.2545-8.7714.5838h0Z" style="fill:#a6abb0; stroke-width:0px;"/><polygon points="228.5133 159.0806 288.1671 176.6016 228.2392 160.0423 228.5133 159.0806 228.5133 159.0806" style="fill:#a6abb0; stroke-width:0px;"/><path d="m182.9658,34.5334c.9681-.9604,2.8375-1.8041,2.0756-3.0997-.3348-.5551-.9932-.903-1.6618-1.1154-3.5776-.7529-7.2903-1.1174-10.8955-1.772-16.2509-2.6759-36.3234-5.8714-52.4435-8.7915,16.1072,2.8007,36.2574,5.8638,52.5017,8.4213,3.6592.6403,7.3426.9615,10.9756,1.7106,1.6349.3767,3.0892,2.1898,1.4568,3.5857,0,0-1.6929,1.4486-1.6929,1.4486l-.3159-.3876h0Z" style="fill:#a6abb0; stroke-width:0px;"/><path d="m76.6302,25.721c4.1988.6998,78.1776,14.0993,84.4757,15.1973s10.9968,1.5979,15.0957-1.1014c2.7641-1.8203,5.2554-3.7315,6.9221-5.0897" style="fill:none; stroke:#a6abb0; stroke-miterlimit:10; stroke-width:.5px;"/><path d="m120.0405,19.7547c-4.2426-.8078-8.597-1.063-12.9109-1.0192-3.721.1248-9.1365.928-12.9066,1.2844,0,0-12.8938,1.4802-12.8938,1.4802l-3.2184.3996c-1.208.1977-5.7842.4406-4.2643,2.437.7102.6749,1.8033.9568,2.8249,1.1378l-.0822.4932c-1.2583-.2748-3.1118-.6316-3.5244-2.1328.0629-2.2174,3.4568-2.0298,4.9955-2.3384,0,0,3.2259-.3689,3.2259-.3689l12.9103-1.3561c3.7936-.3205,9.1694-1.0694,12.9306-1.1609,4.3223-.0021,8.6733.2948,12.9135,1.1442h0Z" style="fill:#a6abb0; stroke-width:0px;"/><path d="m214.851,37.0084c6.5528,1.0808,13.0943,2.1843,13.9021,2.3663,1.661.3982,1.9226,1.1945,1.0011,2.0136-.9329.8191-7.2241,6.5301-9.0784,8.1228-1.8544,1.6041-5.62.785-7.4061.5233-1.659-.2415-23.6104-3.9813-26.9835-4.5563-.1627-.0277-.2049-.2371-.0705-.333l6.8153-4.8604" style="fill:none; stroke:#a6abb0; stroke-miterlimit:10; stroke-width:.5px;"/><path d="m194.9194,38.9424l5.2632-3.9802c.2692-.1924.5973-.2715.9242-.2196.1759.0279.6227.1265.9194.1704" style="fill:none; stroke:#a6abb0; stroke-miterlimit:10; stroke-width:.5px;"/><path d="m187.1388,45.6184s5.6998-4.3116,6.2389-4.7,1.7249-.8197,4.0966-.4963,8.876,1.653,9.4151,1.7608,1.0062.4471,1.0062.7805v.8725s-.0359.4312-.4672.8624-3.8092,2.9826-3.8092,2.9826c0,0-.9997.5692-1.7102.4487" style="fill:none; stroke:#a6abb0; stroke-miterlimit:10; stroke-width:.5px;"/><path d="m207.4067,42.3703s.6611.4236,0,.9985-3.1765,2.5155-3.6078,2.8389-1.7608.8624-3.342.6468-11.3915-1.8993-11.3915-1.8993c0,0-1.1581.0019-1.9266.6632" style="fill:none; stroke:#a6abb0; stroke-miterlimit:10; stroke-width:.25px;"/><path d="m195.9546,39.0903c1.7292-1.3083,4.4254-3.3333,4.7895-3.595.5347-.3868,1.3352-.8651,3.7129-.5466,2.3663.3299,9.2563,1.707,9.791,1.8093.1934.0341.3754.1024.5233.1934,0,0,.0228.0114.0455.0341.273.1365.4437.3413.4437.5574v.876s-.0341.4209-.4664.8532-3.8111,2.9806-3.8111,2.9806c0,0-.2389.1365-.5574.2617" style="fill:none; stroke:#a6abb0; stroke-miterlimit:10; stroke-width:.5px;"/><path d="m214.7713,36.9515s.0455.0228.091.0683c.1593.1479.4096.5006-.091.9215-.6598.5802-3.174,2.5256-3.6063,2.8441-.3185.2389-1.1149.5802-2.1388.6712" style="fill:none; stroke:#a6abb0; stroke-miterlimit:10; stroke-width:.25px;"/><path d="m192.7439,41.3898l.526-2.0458.7546-.539s11.7149,1.7472,13.5476,2.1133,3.6295,1.886,4.456,4.0369,1.2364,5.0788,1.2364,5.0788" style="fill:none; stroke:#a6abb0; stroke-miterlimit:10; stroke-width:.5px;"/><path d="m212.3254,49.8752c-.1706-1.0011-.5461-2.8782-1.1149-4.3799-.8305-2.1502-2.628-3.6746-4.4596-4.0386-1.5131-.2958-9.7724-1.5472-12.5938-1.9795-.603-.0796-.9556-.1365-.9556-.1365" style="fill:none; stroke:#a6abb0; stroke-miterlimit:10; stroke-width:.25px;"/><path d="m211.8682,41.5814c.4096,1.5227,1.0249,3.3209,4.0805,5.3745.3277.2202.5371.5855.5371.9803v1.939l-.5233.5361" style="fill:none; stroke:#a6abb0; stroke-miterlimit:10; stroke-width:.5px;"/><path d="m250.6781,43.0164c6.0034.9748,27.0629,4.8662,30.7121,5.5664.1845.0354.22.2865.0592.3836-17.2621,10.428-29.758,7.6373-31.5042,7.3868-1.6376-.2333-23.3579-3.8812-26.6602-4.4361-.164-.0275-.2113-.2354-.0809-.3385l6.3565-5.0284" style="fill:none; stroke:#a6abb0; stroke-miterlimit:10; stroke-width:.5px;"/><path d="m231.3224,45.1613l4.8948-4.1151c.2511-.1991.5668-.2827.8894-.2324.1736.0271.6163.1242.909.1666" style="fill:none; stroke:#a6abb0; stroke-miterlimit:10; stroke-width:.5px;"/><path d="m224.136,52.0548s5.3007-4.4577,5.8032-4.8596,1.6344-.8528,3.9721-.5419,8.7764,1.6165,9.3098,1.7223,1.0111.4488,1.0319.7899l.0544.8924s-.0082.4414-.4027.8861-3.5361,3.0826-3.5361,3.0826c0,0-.9414.5906-1.6432.4733" style="fill:none; stroke:#a6abb0; stroke-miterlimit:10; stroke-width:.5px;"/><path d="m243.7383,48.563s.6724.4277.0623,1.0213-2.9471,2.5995-3.3483,2.9339-1.6668.8969-3.2253.6896-11.2498-1.8474-11.2498-1.8474c0,0-1.1315.0117-1.8413.6944" style="fill:none; stroke:#a6abb0; stroke-miterlimit:10; stroke-width:.25px;"/><path d="m232.3433,45.3039c1.6081-1.3526,4.1165-3.4465,4.4559-3.7171.4984-.4001,1.2508-.896,3.594-.5901,2.3328.3177,9.1513,1.6685,9.6802,1.7688.1911.0333.3732.1016.5234.1934,0,0,.0229.0114.0466.0345.2753.1374.4548.3454.4683.5665l.0546.896s-.0071.4308-.4026.8766-3.5382,3.0806-3.5382,3.0806c0,0-.2249.1416-.5284.2723" style="fill:none; stroke:#a6abb0; stroke-miterlimit:10; stroke-width:.5px;"/><path d="m250.5968,42.9589s.0459.0229.0932.0691c.1649.1499.4314.5086-.0315.9433-.6086.599-2.944,2.6098-3.3466,2.9393-.2964.247-1.0532.6028-2.0481.7044" style="fill:none; stroke:#a6abb0; stroke-miterlimit:10; stroke-width:.25px;"/><path d="m229.3493,47.6828l.3864-2.0969.7038-.5577s11.5563,1.6891,13.37,2.0483,3.6642,1.8987,4.606,4.0918c.9418,2.1931,1.5249,5.1844,1.5249,5.1844" style="fill:none; stroke:#a6abb0; stroke-miterlimit:10; stroke-width:.5px;"/><path d="m249.0127,56.1982c-.2292-1.0226-.7131-2.9394-1.3626-4.4707-.9456-2.1923-2.7971-3.7366-4.6096-4.0936-1.497-.2899-9.6457-1.5008-12.4295-1.9194-.5941-.0764-.9423-.1316-.9423-.1316" style="fill:none; stroke:#a6abb0; stroke-miterlimit:10; stroke-width:.25px;"/><path d="m248.0487,47.7188c.4952,1.5541,1.2086,3.3881,4.3225,5.4632.3339.2225.5613.5944.586.9982l.1209,1.9833-.4779.5527" style="fill:none; stroke:#a6abb0; stroke-miterlimit:10; stroke-width:.5px;"/><path d="m305.8033,50.0479c10.162-12.4294,24.6076-30.7712,34.7156-43.5658,11.3548-14.6833,23.0577-29.1435,33.4825-44.5119-14.9903,22.2407-33.7552,45.437-50.1652,66.831-5.7217,7.3159-11.4504,14.6218-17.257,21.8776l-.7759-.6309h0Z" style="fill:#a6abb0; stroke-width:0px;"/><path d="m293.3743,47.4939c25.5696-30.8178,49.9255-65.4681,75.4537-96.3691-18.669,22.5602-38.0015,49.6654-56.0668,72.6906-6.2449,8.067-12.529,16.1056-19.0011,23.9966l-.3857-.3181h0Z" style="fill:#a6abb0; stroke-width:0px;"/><path d="m280.688,26.8314c13.987-15.4662,27.0954-31.7486,39.4307-48.5678-12.0788,17.0327-24.9249,33.5211-38.688,49.2374,0,0-.7427-.6697-.7427-.6697h0Z" style="fill:#a6abb0; stroke-width:0px;"/><path d="m262.1489,120.1105c-11.8188,12.4418-30.5434,17.0377-46.99,12.6265-2.149-.4285-4.7062-1.4742-6.7958-2.1292-3.8461-1.6643-4.6882-5.8495-2.3557-9.1803,6.5187-9.9098,13.9657-20.4132,20.9659-30.023,4.2771-6.399,12.3772-5.0524,18.7495-3.4417,3.6512.7349,7.3418,1.2296,11.0567,1.4073,9.3213.4538,18.6538-1.3615,27.316-4.7677,0,.0001,5.1361-2.2743,5.1361-2.2743,1.7534-.8458,4.8012-1.5175,3.6304,1.6933-.6962,1.7771-1.8348,3.305-3.053,4.7247.9808-1.154,4.7124-6.4664,2.1821-6.8206-.8768-.0108-1.763.3855-2.5937.7639l-5.0835,2.4358c-8.6738,3.7392-18.12,5.6637-27.5774,5.3979-3.7836-.1006-7.5604-.5484-11.2636-1.2879-5.855-1.4065-13.5237-2.8884-17.3627,3.0146-6.8641,9.6423-14.4149,20.1171-20.9543,29.9105-2.3497,3.4211-.8231,6.7399,3.0262,7.6957,1.5538.5269,3.7079,1.3395,5.2906,1.6702,16.1364,4.6378,34.5575.3348,46.6762-11.4156h0Z" style="fill:#30373e; stroke-width:0px;"/><path d="m278.6274,86.9186c2.0887,1.3267,2.3136,2.4514.5141,4.6259s-22.6447,27.2186-26.5438,31.1927c-3.8991,3.9741-7.0483,7.8731-13.7218,8.9979-6.6734,1.1247-16.946,1.9495-28.5683-2.3994-2.8493-1.4247-4.274-3.3742-2.0995-6.9734s19.2705-27.8934,20.9201-29.918,3.5242-4.7989,10.6475-5.0238" style="fill:none; stroke:#30373e; stroke-miterlimit:10; stroke-width:1.5px;"/><path d="m271.7686,130.6716s-1.8829,8.0963-8.7898,14.2137c-6.8287,6.0481-28.0477,14.1706-49.3263,7.0499l-3.1398,8.881-14.558-20.9549,26.0903-11.6643-3.1398,8.881c26.8442,10.111,68.3286-3.1558,48.1637-25.0847l-9.599,15.3686s4.2281,3.8958,3.6643,7.987" style="fill:#f4ae3d; stroke:#f4f4f4; stroke-miterlimit:10; stroke-width:1.5px;"/><path d="m271.7686,130.6716c.659-2.5419,1.3375-7.6477,0-11.2427" style="fill:none; stroke:#f4f4f4; stroke-miterlimit:10; stroke-width:1.5px;"/></g></svg>