<svg xmlns="http://www.w3.org/2000/svg" width="324.248" height="161.749" viewBox="0 0 324.248 161.749"><path d="M231.277,118.435l23.293,3.334a26.1,26.1,0,0,0,8.594-.184c16.7-3.15,27.19-21.875,23.423-41.813-3.269-17.318-16.225-29.863-30.523-30.794l-.357-.021L56.2,36.109v.011a19.95,19.95,0,0,0-5.12.3,20.168,20.168,0,0,0-4.7,1.493h-.01c-.011,0-.011.011-.022.011a17.029,17.029,0,0,0-1.873.985C35.377,44.238,30.3,56.4,32.725,69.2c2.435,12.924,11.754,22.46,22.308,23.975l34.917,5" style="fill:none;stroke:#30373e;stroke-miterlimit:10"/><path d="M63.237,90.834h-.022l-5.433-.779C47.51,88.583,38.44,79.3,36.069,66.719c-2.035-10.8,1.4-21.139,8.118-27.092a22.093,22.093,0,0,1,2.187-1.711h.01" style="fill:none;stroke:#30373e;stroke-miterlimit:10;stroke-width:0.5px"/><path d="M66.971,37.1H66.96a22.038,22.038,0,0,0-2.186,1.71c-.4.357-.779.725-1.158,1.1" style="fill:none;stroke:#30373e;stroke-miterlimit:10;stroke-width:0.5px"/><polyline points="233.096 115.177 251.669 117.84 252.081 117.905" style="fill:none;stroke:#30373e;stroke-miterlimit:10;stroke-width:0.5px"/><path d="M269.605,53.535a39.241,39.241,0,0,1,13.648,23.477c3.67,19.407-6.548,37.645-22.805,40.709a25.244,25.244,0,0,1-8.779.119" style="fill:none;stroke:#30373e;stroke-miterlimit:10;stroke-width:0.5px"/><polyline points="236.386 105.013 258.294 108.152 258.705 108.217" style="fill:none;stroke:#30373e;stroke-miterlimit:10;stroke-width:0.5px"/><path d="M258.294,108.152a25.19,25.19,0,0,0,8.778-.119,26.178,26.178,0,0,0,13.616-7.263s.011,0,.011-.01" style="fill:none;stroke:#30373e;stroke-miterlimit:10;stroke-width:0.5px"/><path d="M58.42,89.514l.152.043,4.643,1.277h.022l138,37.916v-.011a18.526,18.526,0,0,0,7.141.577h0l8.264-.98h0q.607-.072,1.215-.187c14.06-2.652,22.275-21.669,18.346-42.462-3.506-18.574-15.5-32.287-28.033-33.121l.4.03L66.085,39.875l0,.006a11.506,11.506,0,0,0-2.412.028h0l-8.263.979.656-.058a11.142,11.142,0,0,0-1.449.182c-9.1,1.71-14.417,14.017-11.873,27.482C44.8,79.361,51.342,87.641,58.572,89.546Z" style="fill:#cfd2d4;stroke:#30373e;stroke-miterlimit:10;stroke-width:1.5px"/><path d="M97.634,52.045,82.369,50.392l-15.256-1.73L63.3,48.228a13.559,13.559,0,0,0-3.775-.139,7.633,7.633,0,0,0-3.441,1.378,11.922,11.922,0,0,0-2.557,2.745,14.973,14.973,0,0,0-1.708,3.369,19.2,19.2,0,0,0-.967,3.664,25.441,25.441,0,0,0-.091,7.575,24.3,24.3,0,0,0,6.172,13.624,12.8,12.8,0,0,0,6.437,3.764l7.457,1.823L85.74,89.677l14.9,3.724L85.681,89.915,70.745,86.353l-7.467-1.782a11.974,11.974,0,0,1-3.608-1.419,16.149,16.149,0,0,1-3.036-2.416,24.731,24.731,0,0,1-6.369-13.85,25.9,25.9,0,0,1,.136-7.718,19.559,19.559,0,0,1,1.009-3.74,15.362,15.362,0,0,1,1.773-3.45,12.334,12.334,0,0,1,2.667-2.83,8.031,8.031,0,0,1,3.621-1.429,9.255,9.255,0,0,1,1.954-.06c.652.06,1.275.147,1.914.219l3.812.454L82.4,50.15Z" style="fill:#30373e"/><path d="M257.963,76.026l-.451.6a.487.487,0,0,1-.335.193l-.724.081a.516.516,0,0,0-.439.581l.086.765a.542.542,0,0,1-.105.387l-.451.6a.549.549,0,0,0,.082.743l.573.484a.547.547,0,0,1,.187.355l.085.765a.514.514,0,0,0,.556.469l.724-.08a.484.484,0,0,1,.368.114l.573.484a.481.481,0,0,0,.7-.078l.452-.6a.486.486,0,0,1,.334-.193l.724-.081a.514.514,0,0,0,.439-.58l-.085-.765a.544.544,0,0,1,.1-.388l.452-.6a.549.549,0,0,0-.083-.742l-.572-.484a.538.538,0,0,1-.187-.355l-.086-.765a.514.514,0,0,0-.555-.47l-.724.081a.491.491,0,0,1-.369-.115l-.572-.484A.483.483,0,0,0,257.963,76.026Z" style="fill:none;stroke:#a6abb0;stroke-miterlimit:10;stroke-width:0.5px"/><path d="M262.751,83.821a5,5,0,0,0-1.1-9.917l-3.243.5a5,5,0,0,0,1.1,9.917Z" style="fill:none;stroke:#a6abb0;stroke-miterlimit:10;stroke-width:0.5px"/><ellipse cx="260.685" cy="79.031" rx="6.981" ry="7.374" transform="matrix(0.994, -0.111, 0.111, 0.994, -7.149, 29.356)" style="fill:none;stroke:#a6abb0;stroke-miterlimit:10;stroke-width:0.5px"/><path d="M259.508,84.318a5,5,0,0,0-1.1-9.917" style="fill:none;stroke:#a6abb0;stroke-miterlimit:10;stroke-width:0.5px"/><path d="M199.91,53.546,57.825,40.85v.01a11.825,11.825,0,0,0-1.755-.03" style="fill:none;stroke:#30373e;stroke-miterlimit:10;stroke-width:0.5px"/><path d="M208.382,129.316q.608-.072,1.215-.187c7.2-1.364,12.87-7.014,16.149-15,3.139-7.6,4.113-17.318,2.2-27.46-3.507-18.574-15.5-32.288-28.034-33.121l.4.033" style="fill:none;stroke:#30373e;stroke-miterlimit:10;stroke-width:0.5px"/><path d="M245.68,78.52l-.038.545c-.147,2.12-2.456,4.7-7.958,7.239-1.091-8.831-2.727-11.793-2.727-11.793C240.884,73.882,245.832,75.434,245.68,78.52Z" style="fill:#f6c44f"/><path d="M245.642,79.065c-.05,1.972-2.456,4.7-7.958,7.239-6.717,3.089-18.172,6.1-36.232,8.079l.526-7.581L183.15,105.748l16.568,13.659.462-6.669c33.947-3.7,43.867-10.473,44.279-15.35l0-.061Z" style="fill:#f4ae3d"/><path d="M234.957,74.511s1.636,2.962,2.727,11.793c-6.717,3.089-18.172,6.1-36.232,8.079l.526-7.581L183.15,105.748l16.568,13.659.462-6.669c33.947-3.7,43.867-10.473,44.279-15.35l0-.061,1.179-18.262a3.9,3.9,0,0,1-.774,2.06,4.286,4.286,0,0,0,.774-2.06l.038-.545C245.832,75.434,240.884,73.882,234.957,74.511Z" style="fill:none;stroke:#efefef;stroke-miterlimit:10;stroke-width:1.5px"/><path d="M245.642,79.065c-.05,1.972-2.456,4.7-7.958,7.239" style="fill:none;stroke:#efefef;stroke-miterlimit:10;stroke-width:1.5px"/></svg>
