<?xml version="1.0" encoding="UTF-8"?><svg xmlns="http://www.w3.org/2000/svg" width="218" height="218" viewBox="0 0 218 218"><g id="uuid-2f0d0f99-eb0e-48f6-9391-289e0fba9745"><path d="m71.227,216.706c.162-1.516.331-3.193.509-5.062.609-6.416-.666-7.883-5.224-7.994-4.558-.112-16.788.243-31.711.243-6.961,0-13.336-.077-18.62-.148" style="fill:none; stroke:#a6abb0; stroke-linecap:round; stroke-linejoin:round; stroke-width:.5px;"/><path d="m9.413,186.106c9.691.616,20.356.515,25.388.515,5.581,0,18.094.124,28.52-.744,10.427-.868,15.334-1.612,21.099-8.805,5.765-7.193,15.702-20.958,19.627-27.407,3.925-6.449,4.293-8.805,4.416-15.75.123-6.945-.245-35.84-.613-44.645-.368-8.805-1.963-10.417-7.483-15.006-5.52-4.589-6.857-5.659-14.73-6.728" style="fill:none; stroke:#a6abb0; stroke-linecap:round; stroke-linejoin:round;"/><path d="m11.908,200.612c6.227.27,13.742.391,22.892.391,44.344,0,50.306-2.851,57.214-11.67,8.847-11.294,24.406-33.532,26.826-36.905,2.015-2.81,5.369-5.3,8.8-5.408,5.234-.165,33.447-1.405,49.027-1.571,13.983-.148,15.048-6.406,13.942-15.047-1.206-9.429-3.026-20.173-5.643-29.763-2.617-9.59-8.75-11.988-17.255-12.815-8.505-.827-30.34-3.307-37.536-3.803-7.197-.496-9.977-2.15-12.757-4.051s-12.259-9.219-12.259-9.219" style="fill:none; stroke:#a6abb0; stroke-linecap:round; stroke-linejoin:round; stroke-width:.5px;"/><path d="m101.728,75.023c.392.303,9.766,7.436,12.644,9.403,3.356,2.295,7.062,4.403,15.431,4.979,4.551.315,34.366,3.102,37.387,3.397,8.088.786,10.908,3.169,12.569,9.258,2.195,8.044,3.965,17.986,5.365,28.93.831,6.503-3.494,9.82-13.035,10.099l-44.618,1.457c-5.678.179-10.447,4.073-13.016,7.656-.406.567-19.397,26.489-26.69,35.801-5.349,6.83-9.263,9.603-52.964,9.603-10.252,0-18.314-.153-24.719-.474" style="fill:none; stroke:#a6abb0; stroke-linecap:round; stroke-linejoin:round; stroke-width:.5px;"/><path d="m8.665,160.478c8.692.35,17.427.72,26.135.72,9.507,0,19.045-.441,28.525-.816,9.254-.366,14.174-2.92,22.102-17.248,7.53-13.61,7.44-17.178,7.44-22.425,0-10.832-.022-21.664-.136-32.495-.044-4.218-.701-10.293-6.711-14.633-6.011-4.341-9.235-6.93-12.534-6.93" style="fill:none; stroke:#a6abb0; stroke-linecap:round; stroke-linejoin:round; stroke-width:.5px;"/><path d="m7.611,171.172c8.458.293,20.311.567,27.189.567,9.261,0,27.539-.496,34.408-.868,6.869-.372,11.163-4.589,14.72-9.425,3.557-4.837,11.531-16.741,13.616-20.834,2.085-4.092,3.926-6.853,4.172-14.79.245-7.937-.006-22.537-.159-37.049-.044-4.218-.701-10.293-6.711-14.633-6.011-4.341-9.235-6.93-12.534-6.93" style="fill:none; stroke:#a6abb0; stroke-linecap:round; stroke-linejoin:round; stroke-width:.5px;"/><path d="m31.639,137.722c.844.853,1.966,1.323,3.161,1.323s2.317-.469,3.161-1.323l17.154-17.342c1.742-1.765,1.742-4.63,0-6.391l-17.154-17.342c-.843-.853-1.966-1.324-3.161-1.324s-2.318.471-3.163,1.326l-17.152,17.34c-1.742,1.761-1.742,4.626-.002,6.389l17.156,17.344Z" style="fill:none; stroke:#a6abb0; stroke-linecap:round; stroke-linejoin:round; stroke-width:.5px;"/><path d="m47.044,115.89c.354.357.833.558,1.333.558h4.825c.197,0,.374-.12.449-.303s.034-.395-.105-.536l-17.19-17.378c-.859-.869-2.254-.869-3.113,0l-17.19,17.378s0,0,0,0c-.139.141-.181.352-.105.536s.253.303.449.303h4.825c.5,0,.98-.201,1.333-.558l11.405-11.53c.464-.469,1.215-.469,1.679,0l11.405,11.53Zm-24.489,2.586c-.354-.358-.833-.558-1.333-.558h-4.825c-.197,0-.374.12-.449.303s-.034.395.105.536l17.19,17.378c.86.869,2.254.869,3.113,0l17.19-17.378s0,0,0,0c.139-.141.181-.352.105-.536s-.253-.303-.449-.303h-4.825c-.5,0-.98.201-1.333.558l-11.405,11.533c-.223.225-.525.352-.839.352s-.617-.126-.839-.352l-11.405-11.533Z" style="fill:none; stroke:#a6abb0; stroke-linecap:round; stroke-linejoin:round; stroke-width:.5px;"/><path d="m35.759,112.502c0,.303.119.593.331.808l3.181,3.216c.358.362.358.948,0,1.31l-3.181,3.216c-.212.214-.331.505-.331.808v4.928c0,.199.119.378.3.454s.391.034.53-.107l8.498-8.607c.735-.745.735-1.95-.001-2.694l-8.497-8.591c-.139-.141-.348-.183-.53-.107s-.3.255-.3.454v4.91Z" style="fill:none; stroke:#a6abb0; stroke-linecap:round; stroke-linejoin:round; stroke-width:.5px;"/><path d="m24.515,115.834c-.736.744-.736,1.95-.001,2.694l8.652,8.762c.139.141.348.183.53.107s.3-.255.3-.454v-4.928c0-.303-.119-.593-.331-.808l-3.335-3.371c-.358-.362-.358-.948,0-1.31l3.335-3.371c.212-.214.331-.505.331-.808v-4.911c0-.199-.118-.378-.3-.454s-.391-.034-.53.107l-8.651,8.746Z" style="fill:none; stroke:#a6abb0; stroke-linecap:round; stroke-linejoin:round; stroke-width:.5px;"/><path d="m107.95,92.181c-.023-.742.504-1.688,1.665-1.587,0,0,43.703,3.843,52.617,4.752,8.914.909,12.512,2.976,13.902,8.516,1.39,5.539,3.516,15.708,4.252,22.736.736,7.027.409,10.913-8.096,11.244-7.594.295-53.264,1.528-62.41,1.769-.432.011-.849-.162-1.148-.478s-.454-.745-.424-1.181" style="fill:none; stroke:#a6abb0; stroke-linecap:round; stroke-linejoin:round; stroke-width:.5px;"/><path d="m108.478,123.993c.01.849.693,1.532,1.533,1.532,7.702.006,42.473.029,50.75-.002,4.826-.018,5.479-1.984,5.186-5.212-.217-2.393-1.015-7.438-1.506-9.422s-1.881-4.216-6.052-4.382c-3.705-.147-40.389-1.207-48.539-1.442-.418-.012-.822.149-1.12.445s-.464.702-.459,1.125l.207,17.358Z" style="fill:none; stroke:#a6abb0; stroke-linecap:round; stroke-linejoin:round; stroke-width:.5px;"/><path d="m163.348,120.962c.142,1.154-.752,2.161-1.882,2.164-3.453.011-11.639.024-37.977.009-1.202,0-3.673-.212-3.927-4.054-.145-2.186-.243-4.779-.328-6.467-.173-3.415,1.286-4.779,4.629-4.694,3.343.084,31.804.8,34.44.904,2.735.108,3.386,1.608,3.682,2.805.024.098.59,3.064,1.364,9.332Z" style="fill:none; stroke:#a6abb0; stroke-linecap:round; stroke-linejoin:round; stroke-width:.5px;"/><path d="m159.831,145.841c0,2.764-.404,3.23-1.272,3.259" style="fill:none; stroke:#a6abb0; stroke-miterlimit:10; stroke-width:.5px;"/><path d="m134.015,119.106c0,.953.764,1.725,1.707,1.725h10.266c.942,0,1.707-.772,1.707-1.725v-6.662c0-.937-.74-1.703-1.667-1.725l-10.266-.238c-.459-.011-.903.166-1.232.491s-.514.769-.514,1.234v6.9Z" style="fill:none; stroke:#a6abb0; stroke-linecap:round; stroke-linejoin:round; stroke-width:.5px;"/><path d="m92.047,216.086l1.327-8.878c1.715-11.162,3.556-13.269,8.462-20.34,4.906-7.067,14.556-20.578,20.084-28.771,0,0,5.211-7.006,12.675-7.753,7.46-.75,20.705-1.467,31.392-1.206,10.804.264,12.274,8.216,9.585,17.17-5.687,17.848-14.392,33.99-25.35,48.267m-135.213-10.611c4.461.039,11.57.185,19.79.185,10.978,0,19.975-.261,23.328-.179,3.353.082,4.054,3.647,3.925,5.881-.119,2.058-.296,4.116-.485,5.924m121.99-2.726c16.793-27.974,27.401-60.184,27.401-95.412,0-39.856-12.592-76.697-33.919-106.568m-45.295-5.427c9.111,11.103,13.642,20.833,16.055,23.656,8.388,9.823,16.858,7.876,25.556,28.346,7.898,18.583-.369,23.689-7.485,23.689-8.953,0-23.918-3.308-45.811-7.611-34.468-6.78-32.369-7.559-85.259-7.559-9.618,0-17.418.026-23.95.109" style="fill:none; stroke:#a6abb0; stroke-linecap:round; stroke-linejoin:round;"/><path d="m144.645,113.827l.482.482c.037.033.085.056.137.056.022,0,.048-.007.074-.015l.007-1.317c-.067-.037-.159-.026-.219.033l-.482.482c-.078.078-.078.2,0,.278Z" style="fill:#30373e; stroke:#a6abb0; stroke-miterlimit:10;"/><path d="m143.477,112.746l.483.483c.035.035.086.055.136.055s.101-.019.136-.055l.483-.483c.078-.078.078-.198,0-.276l-.483-.483c-.074-.074-.198-.074-.272,0l-.483.483c-.078.078-.078.198,0,.276Z" style="fill:#30373e; stroke:#a6abb0; stroke-miterlimit:10;"/><path d="m142.309,111.666l.483.483c.035.035.086.055.136.055s.101-.019.136-.055l.483-.483c.078-.078.078-.198,0-.276l-.483-.483c-.074-.074-.198-.074-.272,0l-.483.483c-.078.078-.078.198,0,.276Z" style="fill:#30373e; stroke:#a6abb0; stroke-miterlimit:10;"/><path d="m144.645,115.986l.482.482c.037.037.085.056.137.056.022,0,.044-.004.067-.015l.007-1.324c-.067-.026-.156-.015-.211.041l-.482.486c-.078.078-.078.197,0,.275Z" style="fill:#30373e; stroke:#a6abb0; stroke-miterlimit:10;"/><path d="m143.477,114.906l.483.483c.035.035.086.055.136.055s.101-.019.136-.055l.483-.483c.078-.078.078-.198,0-.276l-.483-.483c-.074-.074-.198-.074-.272,0l-.483.483c-.078.078-.078.198,0,.276Z" style="fill:#30373e; stroke:#a6abb0; stroke-miterlimit:10;"/><path d="m142.309,113.826l.483.483c.035.035.086.055.136.055s.101-.019.136-.055l.483-.483c.078-.078.078-.198,0-.276l-.483-.483c-.074-.074-.198-.074-.272,0l-.483.483c-.078.078-.078.198,0,.276Z" style="fill:#30373e; stroke:#a6abb0; stroke-miterlimit:10;"/><path d="m141.142,112.746l.483.483c.035.035.086.055.136.055s.101-.019.136-.055l.483-.483c.078-.078.078-.198,0-.276l-.483-.483c-.074-.074-.198-.074-.272,0l-.483.483c-.078.078-.078.198,0,.276Z" style="fill:#30373e; stroke:#a6abb0; stroke-miterlimit:10;"/><path d="m141.265,110.707l.36.364c.033.033.085.052.137.052.048,0,.1-.018.133-.052l.338-.341-.968-.022Z" style="fill:#30373e; stroke:#a6abb0; stroke-miterlimit:10;"/><path d="m138.872,110.651l.415.419c.037.033.089.052.137.052.052,0,.1-.018.137-.052l.39-.393-1.079-.026Z" style="fill:#30373e; stroke:#a6abb0; stroke-miterlimit:10;"/><path d="m144.645,111.668l.482.482c.037.033.085.052.137.052.03,0,.059-.007.085-.022l.004-1.302c-.071-.041-.167-.03-.226.03l-.482.482c-.078.078-.078.2,0,.278Z" style="fill:#30373e; stroke:#a6abb0; stroke-miterlimit:10;"/><path d="m143.654,110.763l.304.308c.037.033.085.052.137.052s.1-.018.137-.052l.286-.286-.864-.022Z" style="fill:#30373e; stroke:#a6abb0; stroke-miterlimit:10;"/><path d="m139.974,111.666l.483.483c.035.035.086.055.136.055s.101-.019.136-.055l.483-.483c.078-.078.078-.198,0-.276l-.483-.483c-.074-.074-.198-.074-.272,0l-.483.483c-.078.078-.078.198,0,.276Z" style="fill:#30373e; stroke:#a6abb0; stroke-miterlimit:10;"/><path d="m144.645,118.145l.482.482c.037.037.085.056.137.056.018,0,.041-.004.059-.011l.004-1.324c-.067-.026-.148-.011-.2.041l-.482.482c-.078.078-.078.197,0,.275Z" style="fill:#30373e; stroke:#a6abb0; stroke-miterlimit:10;"/><path d="m143.477,117.066l.483.483c.035.035.086.055.136.055s.101-.019.136-.055l.483-.483c.078-.078.078-.198,0-.276l-.483-.483c-.074-.074-.198-.074-.272,0l-.483.483c-.078.078-.078.198,0,.276Z" style="fill:#30373e; stroke:#a6abb0; stroke-miterlimit:10;"/><path d="m142.309,115.986l.483.483c.035.035.086.055.136.055s.101-.019.136-.055l.483-.483c.078-.078.078-.198,0-.276l-.483-.483c-.074-.074-.198-.074-.272,0l-.483.483c-.078.078-.078.198,0,.276Z" style="fill:#30373e; stroke:#a6abb0; stroke-miterlimit:10;"/><path d="m141.142,114.906l.483.483c.035.035.086.055.136.055s.101-.019.136-.055l.483-.483c.078-.078.078-.198,0-.276l-.483-.483c-.074-.074-.198-.074-.272,0l-.483.483c-.078.078-.078.198,0,.276Z" style="fill:#30373e; stroke:#a6abb0; stroke-miterlimit:10;"/><path d="m139.974,113.826l.483.483c.035.035.086.055.136.055s.101-.019.136-.055l.483-.483c.078-.078.078-.198,0-.276l-.483-.483c-.074-.074-.198-.074-.272,0l-.483.483c-.078.078-.078.198,0,.276Z" style="fill:#30373e; stroke:#a6abb0; stroke-miterlimit:10;"/><path d="m137.639,111.666l.483.483c.035.035.086.055.136.055s.101-.019.136-.055l.483-.483c.078-.078.078-.198,0-.276l-.483-.483c-.074-.074-.198-.074-.272,0l-.483.483c-.078.078-.078.198,0,.276Z" style="fill:#30373e; stroke:#a6abb0; stroke-miterlimit:10;"/><path d="m138.807,112.746l.483.483c.035.035.086.055.136.055s.101-.019.136-.055l.483-.483c.078-.078.078-.198,0-.276l-.483-.483c-.074-.074-.198-.074-.272,0l-.483.483c-.078.078-.078.198,0,.276Z" style="fill:#30373e; stroke:#a6abb0; stroke-miterlimit:10;"/><path d="m144.645,120.308l.482.482c.037.033.085.052.137.052.018,0,.033-.004.052-.011l.004-1.328c-.063-.022-.141-.007-.193.044l-.482.482c-.078.078-.078.2,0,.278Z" style="fill:#30373e; stroke:#a6abb0; stroke-miterlimit:10;"/><path d="m143.477,119.226l.483.483c.035.035.086.055.136.055s.101-.019.136-.055l.483-.483c.078-.078.078-.198,0-.276l-.483-.483c-.074-.074-.198-.074-.272,0l-.483.483c-.078.078-.078.198,0,.276Z" style="fill:#30373e; stroke:#a6abb0; stroke-miterlimit:10;"/><path d="m142.309,118.146l.483.483c.035.035.086.055.136.055s.101-.019.136-.055l.483-.483c.078-.078.078-.198,0-.276l-.483-.483c-.074-.074-.198-.074-.272,0l-.483.483c-.078.078-.078.198,0,.276Z" style="fill:#30373e; stroke:#a6abb0; stroke-miterlimit:10;"/><path d="m141.142,117.066l.483.483c.035.035.086.055.136.055s.101-.019.136-.055l.483-.483c.078-.078.078-.198,0-.276l-.483-.483c-.074-.074-.198-.074-.272,0l-.483.483c-.078.078-.078.198,0,.276Z" style="fill:#30373e; stroke:#a6abb0; stroke-miterlimit:10;"/><path d="m139.974,115.986l.483.483c.035.035.086.055.136.055s.101-.019.136-.055l.483-.483c.078-.078.078-.198,0-.276l-.483-.483c-.074-.074-.198-.074-.272,0l-.483.483c-.078.078-.078.198,0,.276Z" style="fill:#30373e; stroke:#a6abb0; stroke-miterlimit:10;"/><path d="m138.807,114.906l.483.483c.035.035.086.055.136.055s.101-.019.136-.055l.483-.483c.078-.078.078-.198,0-.276l-.483-.483c-.074-.074-.198-.074-.272,0l-.483.483c-.078.078-.078.198,0,.276Z" style="fill:#30373e; stroke:#a6abb0; stroke-miterlimit:10;"/><path d="m136.472,112.746l.483.483c.035.035.086.055.136.055s.101-.019.136-.055l.483-.483c.078-.078.078-.198,0-.276l-.483-.483c-.074-.074-.198-.074-.272,0l-.483.483c-.078.078-.078.198,0,.276Z" style="fill:#30373e; stroke:#a6abb0; stroke-miterlimit:10;"/><path d="m137.639,113.826l.483.483c.035.035.086.055.136.055s.101-.019.136-.055l.483-.483c.078-.078.078-.198,0-.276l-.483-.483c-.074-.074-.198-.074-.272,0l-.483.483c-.078.078-.078.198,0,.276Z" style="fill:#30373e; stroke:#a6abb0; stroke-miterlimit:10;"/><path d="m143.721,120.864l.746-.004-.234-.234c-.074-.074-.2-.074-.275,0l-.237.237Z" style="fill:#30373e; stroke:#a6abb0; stroke-miterlimit:10;"/><path d="m142.309,120.306l.483.483c.035.035.086.055.136.055s.101-.019.136-.055l.483-.483c.078-.078.078-.198,0-.276l-.483-.483c-.074-.074-.198-.074-.272,0l-.483.483c-.078.078-.078.198,0,.276Z" style="fill:#30373e; stroke:#a6abb0; stroke-miterlimit:10;"/><path d="m141.142,119.226l.483.483c.035.035.086.055.136.055s.101-.019.136-.055l.483-.483c.078-.078.078-.198,0-.276l-.483-.483c-.074-.074-.198-.074-.272,0l-.483.483c-.078.078-.078.198,0,.276Z" style="fill:#30373e; stroke:#a6abb0; stroke-miterlimit:10;"/><path d="m139.974,118.146l.483.483c.035.035.086.055.136.055s.101-.019.136-.055l.483-.483c.078-.078.078-.198,0-.276l-.483-.483c-.074-.074-.198-.074-.272,0l-.483.483c-.078.078-.078.198,0,.276Z" style="fill:#30373e; stroke:#a6abb0; stroke-miterlimit:10;"/><path d="m138.807,117.066l.483.483c.035.035.086.055.136.055s.101-.019.136-.055l.483-.483c.078-.078.078-.198,0-.276l-.483-.483c-.074-.074-.198-.074-.272,0l-.483.483c-.078.078-.078.198,0,.276Z" style="fill:#30373e; stroke:#a6abb0; stroke-miterlimit:10;"/><path d="m137.639,115.986l.483.483c.035.035.086.055.136.055s.101-.019.136-.055l.483-.483c.078-.078.078-.198,0-.276l-.483-.483c-.074-.074-.198-.074-.272,0l-.483.483c-.078.078-.078.198,0,.276Z" style="fill:#30373e; stroke:#a6abb0; stroke-miterlimit:10;"/><path d="m136.064,114.305l.479-.479c.078-.078.078-.2,0-.278l-.475-.475-.004,1.232Z" style="fill:#30373e; stroke:#a6abb0; stroke-miterlimit:10;"/><path d="m136.472,114.906l.483.483c.035.035.086.055.136.055s.101-.019.136-.055l.483-.483c.078-.078.078-.198,0-.276l-.483-.483c-.074-.074-.198-.074-.272,0l-.483.483c-.078.078-.078.198,0,.276Z" style="fill:#30373e; stroke:#a6abb0; stroke-miterlimit:10;"/><path d="m141.387,120.864h.746s-.237-.237-.237-.237c-.074-.074-.197-.074-.271,0l-.237.237Z" style="fill:#30373e; stroke:#a6abb0; stroke-miterlimit:10;"/><path d="m139.974,120.306l.483.483c.035.035.086.055.136.055s.101-.019.136-.055l.483-.483c.078-.078.078-.198,0-.276l-.483-.483c-.074-.074-.198-.074-.272,0l-.483.483c-.078.078-.078.198,0,.276Z" style="fill:#30373e; stroke:#a6abb0; stroke-miterlimit:10;"/><path d="m138.807,119.226l.483.483c.035.035.086.055.136.055s.101-.019.136-.055l.483-.483c.078-.078.078-.198,0-.276l-.483-.483c-.074-.074-.198-.074-.272,0l-.483.483c-.078.078-.078.198,0,.276Z" style="fill:#30373e; stroke:#a6abb0; stroke-miterlimit:10;"/><path d="m137.639,118.146l.483.483c.035.035.086.055.136.055s.101-.019.136-.055l.483-.483c.078-.078.078-.198,0-.276l-.483-.483c-.074-.074-.198-.074-.272,0l-.483.483c-.078.078-.078.198,0,.276Z" style="fill:#30373e; stroke:#a6abb0; stroke-miterlimit:10;"/><path d="m136.472,117.066l.483.483c.035.035.086.055.136.055s.101-.019.136-.055l.483-.483c.078-.078.078-.198,0-.276l-.483-.483c-.074-.074-.198-.074-.272,0l-.483.483c-.078.078-.078.198,0,.276Z" style="fill:#30373e; stroke:#a6abb0; stroke-miterlimit:10;"/><path d="m136.057,116.472l.486-.486c.078-.078.078-.197,0-.275l-.482-.486-.004,1.247Z" style="fill:#30373e; stroke:#a6abb0; stroke-miterlimit:10;"/><path d="m139.047,120.868h.757s-.241-.241-.241-.241c-.074-.074-.2-.074-.275,0l-.241.241Z" style="fill:#30373e; stroke:#a6abb0; stroke-miterlimit:10;"/><path d="m137.639,120.306l.483.483c.035.035.086.055.136.055s.101-.019.136-.055l.483-.483c.078-.078.078-.198,0-.276l-.483-.483c-.074-.074-.198-.074-.272,0l-.483.483c-.078.078-.078.198,0,.276Z" style="fill:#30373e; stroke:#a6abb0; stroke-miterlimit:10;"/><path d="m136.472,119.226l.483.483c.035.035.086.055.136.055s.101-.019.136-.055l.483-.483c.078-.078.078-.198,0-.276l-.483-.483c-.074-.074-.198-.074-.272,0l-.483.483c-.078.078-.078.198,0,.276Z" style="fill:#30373e; stroke:#a6abb0; stroke-miterlimit:10;"/><path d="m136.045,118.635c.007,0,.011-.004.015-.007l.482-.482c.078-.078.078-.197,0-.275l-.482-.482s-.004-.004-.007-.004l-.007,1.25Z" style="fill:#30373e; stroke:#a6abb0; stroke-miterlimit:10;"/><path d="m136.709,120.872h.761s-.245-.245-.245-.245c-.071-.074-.197-.074-.271,0l-.245.245Z" style="fill:#30373e; stroke:#a6abb0; stroke-miterlimit:10;"/><path d="m136.038,120.801c.007,0,.015-.004.022-.011l.482-.482c.078-.078.078-.2,0-.278l-.482-.482s-.011-.011-.019-.011l-.004,1.265Z" style="fill:#30373e; stroke:#a6abb0; stroke-miterlimit:10;"/><path d="m136.487,110.599l.467.471c.033.033.085.052.137.052.048,0,.1-.018.134-.052l.445-.445-1.183-.026Z" style="fill:#30373e; stroke:#a6abb0; stroke-miterlimit:10;"/><path d="m136.071,112.139l.471-.471c.078-.078.078-.2,0-.278l-.464-.464-.007,1.213Z" style="fill:#30373e; stroke:#a6abb0; stroke-miterlimit:10;"/></g><g id="uuid-bd77eee7-b3ab-477b-853e-dde3c54c12f4"><path d="m163.348,120.962c.142,1.154-.752,2.161-1.882,2.164-3.453.011-11.639.024-37.977.009-1.202,0-3.673-.212-3.927-4.054-.145-2.186-.243-4.779-.328-6.467-.173-3.415,1.286-4.779,4.629-4.694,3.343.084,31.804.8,34.44.904,2.735.108,3.386,1.608,3.682,2.805.024.098.59,3.064,1.364,9.332Z" style="fill:#f4ae3d; stroke:#1f262d; stroke-linecap:round; stroke-linejoin:round;"/><path d="m134.015,119.106c0,.953.764,1.725,1.707,1.725h10.266c.942,0,1.707-.772,1.707-1.725v-6.662c0-.937-.74-1.703-1.667-1.725l-10.266-.238c-.459-.011-.903.166-1.232.491s-.514.769-.514,1.234v6.9Z" style="fill:#f4ae3d; stroke:#1f262d; stroke-linecap:round; stroke-linejoin:round;"/><path d="m144.645,113.827l.482.482c.037.033.085.056.137.056.022,0,.048-.007.074-.015l.007-1.317c-.067-.037-.159-.026-.219.033l-.482.482c-.078.078-.078.2,0,.278Z" style="fill:#1f262d; stroke-width:0px;"/><path d="m143.477,112.746l.483.483c.035.035.086.055.136.055s.101-.019.136-.055l.483-.483c.078-.078.078-.198,0-.276l-.483-.483c-.074-.074-.198-.074-.272,0l-.483.483c-.078.078-.078.198,0,.276Z" style="fill:#1f262d; stroke-width:0px;"/><path d="m142.309,111.666l.483.483c.035.035.086.055.136.055s.101-.019.136-.055l.483-.483c.078-.078.078-.198,0-.276l-.483-.483c-.074-.074-.198-.074-.272,0l-.483.483c-.078.078-.078.198,0,.276Z" style="fill:#1f262d; stroke-width:0px;"/><path d="m144.645,115.986l.482.482c.037.037.085.056.137.056.022,0,.044-.004.067-.015l.007-1.324c-.067-.026-.156-.015-.211.041l-.482.486c-.078.078-.078.197,0,.275Z" style="fill:#1f262d; stroke-width:0px;"/><path d="m143.477,114.906l.483.483c.035.035.086.055.136.055s.101-.019.136-.055l.483-.483c.078-.078.078-.198,0-.276l-.483-.483c-.074-.074-.198-.074-.272,0l-.483.483c-.078.078-.078.198,0,.276Z" style="fill:#1f262d; stroke-width:0px;"/><path d="m142.309,113.826l.483.483c.035.035.086.055.136.055s.101-.019.136-.055l.483-.483c.078-.078.078-.198,0-.276l-.483-.483c-.074-.074-.198-.074-.272,0l-.483.483c-.078.078-.078.198,0,.276Z" style="fill:#1f262d; stroke-width:0px;"/><path d="m141.142,112.746l.483.483c.035.035.086.055.136.055s.101-.019.136-.055l.483-.483c.078-.078.078-.198,0-.276l-.483-.483c-.074-.074-.198-.074-.272,0l-.483.483c-.078.078-.078.198,0,.276Z" style="fill:#1f262d; stroke-width:0px;"/><path d="m141.265,110.707l.36.364c.033.033.085.052.137.052.048,0,.1-.018.133-.052l.338-.341-.968-.022Z" style="fill:#1f262d; stroke-width:0px;"/><path d="m138.872,110.651l.415.419c.037.033.089.052.137.052.052,0,.1-.018.137-.052l.39-.393-1.079-.026Z" style="fill:#1f262d; stroke-width:0px;"/><path d="m144.645,111.668l.482.482c.037.033.085.052.137.052.03,0,.059-.007.085-.022l.004-1.302c-.071-.041-.167-.03-.226.03l-.482.482c-.078.078-.078.2,0,.278Z" style="fill:#1f262d; stroke-width:0px;"/><path d="m143.654,110.763l.304.308c.037.033.085.052.137.052s.1-.018.137-.052l.286-.286-.864-.022Z" style="fill:#1f262d; stroke-width:0px;"/><path d="m139.974,111.666l.483.483c.035.035.086.055.136.055s.101-.019.136-.055l.483-.483c.078-.078.078-.198,0-.276l-.483-.483c-.074-.074-.198-.074-.272,0l-.483.483c-.078.078-.078.198,0,.276Z" style="fill:#1f262d; stroke-width:0px;"/><path d="m144.645,118.145l.482.482c.037.037.085.056.137.056.018,0,.041-.004.059-.011l.004-1.324c-.067-.026-.148-.011-.2.041l-.482.482c-.078.078-.078.197,0,.275Z" style="fill:#1f262d; stroke-width:0px;"/><path d="m143.477,117.066l.483.483c.035.035.086.055.136.055s.101-.019.136-.055l.483-.483c.078-.078.078-.198,0-.276l-.483-.483c-.074-.074-.198-.074-.272,0l-.483.483c-.078.078-.078.198,0,.276Z" style="fill:#1f262d; stroke-width:0px;"/><path d="m142.309,115.986l.483.483c.035.035.086.055.136.055s.101-.019.136-.055l.483-.483c.078-.078.078-.198,0-.276l-.483-.483c-.074-.074-.198-.074-.272,0l-.483.483c-.078.078-.078.198,0,.276Z" style="fill:#1f262d; stroke-width:0px;"/><path d="m141.142,114.906l.483.483c.035.035.086.055.136.055s.101-.019.136-.055l.483-.483c.078-.078.078-.198,0-.276l-.483-.483c-.074-.074-.198-.074-.272,0l-.483.483c-.078.078-.078.198,0,.276Z" style="fill:#1f262d; stroke-width:0px;"/><path d="m139.974,113.826l.483.483c.035.035.086.055.136.055s.101-.019.136-.055l.483-.483c.078-.078.078-.198,0-.276l-.483-.483c-.074-.074-.198-.074-.272,0l-.483.483c-.078.078-.078.198,0,.276Z" style="fill:#1f262d; stroke-width:0px;"/><path d="m137.639,111.666l.483.483c.035.035.086.055.136.055s.101-.019.136-.055l.483-.483c.078-.078.078-.198,0-.276l-.483-.483c-.074-.074-.198-.074-.272,0l-.483.483c-.078.078-.078.198,0,.276Z" style="fill:#1f262d; stroke-width:0px;"/><path d="m138.807,112.746l.483.483c.035.035.086.055.136.055s.101-.019.136-.055l.483-.483c.078-.078.078-.198,0-.276l-.483-.483c-.074-.074-.198-.074-.272,0l-.483.483c-.078.078-.078.198,0,.276Z" style="fill:#1f262d; stroke-width:0px;"/><path d="m144.645,120.308l.482.482c.037.033.085.052.137.052.018,0,.033-.004.052-.011l.004-1.328c-.063-.022-.141-.007-.193.044l-.482.482c-.078.078-.078.2,0,.278Z" style="fill:#1f262d; stroke-width:0px;"/><path d="m143.477,119.226l.483.483c.035.035.086.055.136.055s.101-.019.136-.055l.483-.483c.078-.078.078-.198,0-.276l-.483-.483c-.074-.074-.198-.074-.272,0l-.483.483c-.078.078-.078.198,0,.276Z" style="fill:#1f262d; stroke-width:0px;"/><path d="m142.309,118.146l.483.483c.035.035.086.055.136.055s.101-.019.136-.055l.483-.483c.078-.078.078-.198,0-.276l-.483-.483c-.074-.074-.198-.074-.272,0l-.483.483c-.078.078-.078.198,0,.276Z" style="fill:#1f262d; stroke-width:0px;"/><path d="m141.142,117.066l.483.483c.035.035.086.055.136.055s.101-.019.136-.055l.483-.483c.078-.078.078-.198,0-.276l-.483-.483c-.074-.074-.198-.074-.272,0l-.483.483c-.078.078-.078.198,0,.276Z" style="fill:#1f262d; stroke-width:0px;"/><path d="m139.974,115.986l.483.483c.035.035.086.055.136.055s.101-.019.136-.055l.483-.483c.078-.078.078-.198,0-.276l-.483-.483c-.074-.074-.198-.074-.272,0l-.483.483c-.078.078-.078.198,0,.276Z" style="fill:#1f262d; stroke-width:0px;"/><path d="m138.807,114.906l.483.483c.035.035.086.055.136.055s.101-.019.136-.055l.483-.483c.078-.078.078-.198,0-.276l-.483-.483c-.074-.074-.198-.074-.272,0l-.483.483c-.078.078-.078.198,0,.276Z" style="fill:#1f262d; stroke-width:0px;"/><path d="m136.472,112.746l.483.483c.035.035.086.055.136.055s.101-.019.136-.055l.483-.483c.078-.078.078-.198,0-.276l-.483-.483c-.074-.074-.198-.074-.272,0l-.483.483c-.078.078-.078.198,0,.276Z" style="fill:#1f262d; stroke-width:0px;"/><path d="m137.639,113.826l.483.483c.035.035.086.055.136.055s.101-.019.136-.055l.483-.483c.078-.078.078-.198,0-.276l-.483-.483c-.074-.074-.198-.074-.272,0l-.483.483c-.078.078-.078.198,0,.276Z" style="fill:#1f262d; stroke-width:0px;"/><path d="m143.721,120.864l.746-.004-.234-.234c-.074-.074-.2-.074-.275,0l-.237.237Z" style="fill:#1f262d; stroke-width:0px;"/><path d="m142.309,120.306l.483.483c.035.035.086.055.136.055s.101-.019.136-.055l.483-.483c.078-.078.078-.198,0-.276l-.483-.483c-.074-.074-.198-.074-.272,0l-.483.483c-.078.078-.078.198,0,.276Z" style="fill:#1f262d; stroke-width:0px;"/><path d="m141.142,119.226l.483.483c.035.035.086.055.136.055s.101-.019.136-.055l.483-.483c.078-.078.078-.198,0-.276l-.483-.483c-.074-.074-.198-.074-.272,0l-.483.483c-.078.078-.078.198,0,.276Z" style="fill:#1f262d; stroke-width:0px;"/><path d="m139.974,118.146l.483.483c.035.035.086.055.136.055s.101-.019.136-.055l.483-.483c.078-.078.078-.198,0-.276l-.483-.483c-.074-.074-.198-.074-.272,0l-.483.483c-.078.078-.078.198,0,.276Z" style="fill:#1f262d; stroke-width:0px;"/><path d="m138.807,117.066l.483.483c.035.035.086.055.136.055s.101-.019.136-.055l.483-.483c.078-.078.078-.198,0-.276l-.483-.483c-.074-.074-.198-.074-.272,0l-.483.483c-.078.078-.078.198,0,.276Z" style="fill:#1f262d; stroke-width:0px;"/><path d="m137.639,115.986l.483.483c.035.035.086.055.136.055s.101-.019.136-.055l.483-.483c.078-.078.078-.198,0-.276l-.483-.483c-.074-.074-.198-.074-.272,0l-.483.483c-.078.078-.078.198,0,.276Z" style="fill:#1f262d; stroke-width:0px;"/><path d="m136.064,114.305l.479-.479c.078-.078.078-.2,0-.278l-.475-.475-.004,1.232Z" style="fill:#1f262d; stroke-width:0px;"/><path d="m136.472,114.906l.483.483c.035.035.086.055.136.055s.101-.019.136-.055l.483-.483c.078-.078.078-.198,0-.276l-.483-.483c-.074-.074-.198-.074-.272,0l-.483.483c-.078.078-.078.198,0,.276Z" style="fill:#1f262d; stroke-width:0px;"/><path d="m141.387,120.864h.746s-.237-.237-.237-.237c-.074-.074-.197-.074-.271,0l-.237.237Z" style="fill:#1f262d; stroke-width:0px;"/><path d="m139.974,120.306l.483.483c.035.035.086.055.136.055s.101-.019.136-.055l.483-.483c.078-.078.078-.198,0-.276l-.483-.483c-.074-.074-.198-.074-.272,0l-.483.483c-.078.078-.078.198,0,.276Z" style="fill:#1f262d; stroke-width:0px;"/><path d="m138.807,119.226l.483.483c.035.035.086.055.136.055s.101-.019.136-.055l.483-.483c.078-.078.078-.198,0-.276l-.483-.483c-.074-.074-.198-.074-.272,0l-.483.483c-.078.078-.078.198,0,.276Z" style="fill:#1f262d; stroke-width:0px;"/><path d="m137.639,118.146l.483.483c.035.035.086.055.136.055s.101-.019.136-.055l.483-.483c.078-.078.078-.198,0-.276l-.483-.483c-.074-.074-.198-.074-.272,0l-.483.483c-.078.078-.078.198,0,.276Z" style="fill:#1f262d; stroke-width:0px;"/><path d="m136.472,117.066l.483.483c.035.035.086.055.136.055s.101-.019.136-.055l.483-.483c.078-.078.078-.198,0-.276l-.483-.483c-.074-.074-.198-.074-.272,0l-.483.483c-.078.078-.078.198,0,.276Z" style="fill:#1f262d; stroke-width:0px;"/><path d="m136.057,116.472l.486-.486c.078-.078.078-.197,0-.275l-.482-.486-.004,1.247Z" style="fill:#1f262d; stroke-width:0px;"/><path d="m139.047,120.868h.757s-.241-.241-.241-.241c-.074-.074-.2-.074-.275,0l-.241.241Z" style="fill:#1f262d; stroke-width:0px;"/><path d="m137.639,120.306l.483.483c.035.035.086.055.136.055s.101-.019.136-.055l.483-.483c.078-.078.078-.198,0-.276l-.483-.483c-.074-.074-.198-.074-.272,0l-.483.483c-.078.078-.078.198,0,.276Z" style="fill:#1f262d; stroke-width:0px;"/><path d="m136.472,119.226l.483.483c.035.035.086.055.136.055s.101-.019.136-.055l.483-.483c.078-.078.078-.198,0-.276l-.483-.483c-.074-.074-.198-.074-.272,0l-.483.483c-.078.078-.078.198,0,.276Z" style="fill:#1f262d; stroke-width:0px;"/><path d="m136.045,118.635c.007,0,.011-.004.015-.007l.482-.482c.078-.078.078-.197,0-.275l-.482-.482s-.004-.004-.007-.004l-.007,1.25Z" style="fill:#1f262d; stroke-width:0px;"/><path d="m136.709,120.872h.761s-.245-.245-.245-.245c-.071-.074-.197-.074-.271,0l-.245.245Z" style="fill:#1f262d; stroke-width:0px;"/><path d="m136.038,120.801c.007,0,.015-.004.022-.011l.482-.482c.078-.078.078-.2,0-.278l-.482-.482s-.011-.011-.019-.011l-.004,1.265Z" style="fill:#1f262d; stroke-width:0px;"/><path d="m136.487,110.599l.467.471c.033.033.085.052.137.052.048,0,.1-.018.134-.052l.445-.445-1.183-.026Z" style="fill:#1f262d; stroke-width:0px;"/><path d="m136.071,112.139l.471-.471c.078-.078.078-.2,0-.278l-.464-.464-.007,1.213Z" style="fill:#1f262d; stroke-width:0px;"/><line x1="140.24" y1="149.249" x2="140.24" y2="127.026" style="fill:none; stroke:#f4f4f4; stroke-linecap:round; stroke-linejoin:round; stroke-width:3px;"/><rect x="137.74" y="127.026" width="5" height="15.047" style="fill:none; stroke:#f4f4f4; stroke-linecap:round; stroke-linejoin:round; stroke-width:3px;"/><polygon points="145.226 140.614 140.24 149.249 135.254 140.614 145.226 140.614" style="fill:none; stroke:#f4f4f4; stroke-linecap:round; stroke-linejoin:round; stroke-width:3px;"/><line x1="140.24" y1="142.073" x2="140.24" y2="127.026" style="fill:none; stroke:#f4ae3d; stroke-miterlimit:10; stroke-width:5px;"/><polygon points="145.226 140.614 140.24 149.249 135.254 140.614 145.226 140.614" style="fill:#f4ae3d; stroke-width:0px;"/><line x1="140.24" y1="83.225" x2="140.24" y2="104.893" style="fill:none; stroke:#f4f4f4; stroke-linecap:round; stroke-linejoin:round; stroke-width:3px;"/><rect x="137.74" y="90.401" width="5" height="14.492" style="fill:none; stroke:#f4f4f4; stroke-linecap:round; stroke-linejoin:round; stroke-width:3px;"/><polygon points="135.254 91.86 140.24 83.225 145.226 91.86 135.254 91.86" style="fill:none; stroke:#f4f4f4; stroke-linecap:round; stroke-linejoin:round; stroke-width:3px;"/><line x1="140.24" y1="90.401" x2="140.24" y2="104.893" style="fill:none; stroke:#f4ae3d; stroke-miterlimit:10; stroke-width:5px;"/><polygon points="135.254 91.86 140.24 83.225 145.226 91.86 135.254 91.86" style="fill:#f4ae3d; stroke-width:0px;"/><line x1="186.365" y1="115.374" x2="160.553" y2="115.374" style="fill:none; stroke:#f4f4f4; stroke-width:3px;"/><line x1="186.365" y1="115.374" x2="160.553" y2="115.374" style="fill:none; stroke:#f4f4f4; stroke-width:3px;"/><line x1="186.365" y1="115.374" x2="160.553" y2="115.374" style="fill:none; stroke:#f4f4f4; stroke-width:3px;"/><path d="m186.974,117.232h-4.342v-1.339l4.251-5.915h1.82v5.668h1.273v1.586h-1.273v2.08h-1.729v-2.08Zm0-1.586v-3.159l-2.274,3.159h2.274Z" style="fill:none; stroke:#f4f4f4; stroke-width:3px;"/><circle cx="186.555" cy="114.837" r="8.275" style="fill:none; stroke:#f4f4f4; stroke-width:3px;"/><path d="m186.555,106.545c-4.53,0-8.202,3.672-8.202,8.202v.179c0,4.53,3.672,8.202,8.202,8.202s8.202-3.672,8.202-8.202v-.179c0-4.53-3.672-8.202-8.202-8.202Z" style="fill:none; stroke:#f4f4f4; stroke-width:3px;"/><path d="m186.974,117.232h-4.342v-1.339l4.251-5.915h1.82v5.668h1.273v1.586h-1.273v2.08h-1.729v-2.08Zm0-1.586v-3.159l-2.274,3.159h2.274Z" style="fill:none; stroke:#f4f4f4; stroke-width:3px;"/><line x1="186.365" y1="115.374" x2="160.553" y2="115.374" style="fill:none; stroke:#f4f4f4; stroke-linecap:round; stroke-miterlimit:10; stroke-width:3px;"/><line x1="186.365" y1="115.374" x2="160.553" y2="115.374" style="fill:none; stroke:#30373e; stroke-linecap:round; stroke-miterlimit:10;"/><circle cx="186.555" cy="114.837" r="8.275" style="fill:#30373e; stroke-width:0px;"/><path d="m186.555,106.545c-4.53,0-8.202,3.672-8.202,8.202v.179c0,4.53,3.672,8.202,8.202,8.202s8.202-3.672,8.202-8.202v-.179c0-4.53-3.672-8.202-8.202-8.202Z" style="fill:#30373e; stroke-width:0px;"/><path d="m186.974,117.232h-4.342v-1.339l4.251-5.915h1.82v5.668h1.273v1.586h-1.273v2.08h-1.729v-2.08Zm0-1.586v-3.159l-2.274,3.159h2.274Z" style="fill:#f4f4f4; stroke-width:0px;"/><line x1="95.725" y1="115.374" x2="122.536" y2="115.374" style="fill:none; stroke:#f4f4f4; stroke-width:3px;"/><line x1="95.725" y1="115.374" x2="122.536" y2="115.374" style="fill:none; stroke:#f4f4f4; stroke-width:3px;"/><line x1="95.725" y1="115.374" x2="122.536" y2="115.374" style="fill:none; stroke:#f4f4f4; stroke-width:3px;"/><path d="m93.721,119.797c-.542-.316-1.008-.787-1.397-1.411l1.442-1.04c.243.442.51.759.8.949s.652.286,1.086.286c.468,0,.87-.093,1.209-.279.338-.187.507-.475.507-.865v-.155c0-.442-.149-.757-.449-.942-.299-.187-.804-.28-1.514-.28h-.65v-1.56h.624c.528,0,.96-.078,1.294-.234.333-.155.5-.45.5-.884v-.143c0-.312-.146-.544-.436-.696-.29-.151-.626-.228-1.008-.228-.363,0-.69.094-.981.28-.29.187-.53.461-.721.825l-1.365-.819c.312-.667.728-1.158,1.248-1.476.52-.315,1.152-.474,1.897-.474.91,0,1.653.216,2.229.649s.865,1.079.865,1.938c0,.45-.092.838-.273,1.163s-.438.592-.767.8c.416.217.729.494.942.832.212.338.318.754.318,1.248,0,.642-.158,1.188-.475,1.638-.316.451-.739.789-1.268,1.014-.528.226-1.109.338-1.742.338-.736,0-1.376-.157-1.917-.474Z" style="fill:none; stroke:#f4f4f4; stroke-width:3px;"/><circle cx="96.038" cy="115.653" r="8.275" style="fill:none; stroke:#f4f4f4; stroke-width:3px;"/><path d="m96.038,107.361c-4.451,0-8.059,3.608-8.059,8.059v.465c0,4.451,3.608,8.059,8.059,8.059s8.059-3.608,8.059-8.059v-.465c0-4.451-3.608-8.059-8.059-8.059Z" style="fill:none; stroke:#f4f4f4; stroke-width:3px;"/><path d="m93.721,119.797c-.542-.316-1.008-.787-1.397-1.411l1.442-1.04c.243.442.51.759.8.949s.652.286,1.086.286c.468,0,.87-.093,1.209-.279.338-.187.507-.475.507-.865v-.155c0-.442-.149-.757-.449-.942-.299-.187-.804-.28-1.514-.28h-.65v-1.56h.624c.528,0,.96-.078,1.294-.234.333-.155.5-.45.5-.884v-.143c0-.312-.146-.544-.436-.696-.29-.151-.626-.228-1.008-.228-.363,0-.69.094-.981.28-.29.187-.53.461-.721.825l-1.365-.819c.312-.667.728-1.158,1.248-1.476.52-.315,1.152-.474,1.897-.474.91,0,1.653.216,2.229.649s.865,1.079.865,1.938c0,.45-.092.838-.273,1.163s-.438.592-.767.8c.416.217.729.494.942.832.212.338.318.754.318,1.248,0,.642-.158,1.188-.475,1.638-.316.451-.739.789-1.268,1.014-.528.226-1.109.338-1.742.338-.736,0-1.376-.157-1.917-.474Z" style="fill:none; stroke:#f4f4f4; stroke-width:3px;"/><line x1="95.725" y1="115.374" x2="122.536" y2="115.374" style="fill:none; stroke:#f4f4f4; stroke-linecap:round; stroke-miterlimit:10; stroke-width:3px;"/><line x1="95.725" y1="115.374" x2="122.536" y2="115.374" style="fill:none; stroke:#30373e; stroke-linecap:round; stroke-miterlimit:10;"/><circle cx="96.038" cy="115.653" r="8.275" style="fill:#30373e; stroke-width:0px;"/><path d="m96.038,107.361c-4.451,0-8.059,3.608-8.059,8.059v.465c0,4.451,3.608,8.059,8.059,8.059s8.059-3.608,8.059-8.059v-.465c0-4.451-3.608-8.059-8.059-8.059Z" style="fill:#30373e; stroke-width:0px;"/><path d="m93.721,119.797c-.542-.316-1.008-.787-1.397-1.411l1.442-1.04c.243.442.51.759.8.949s.652.286,1.086.286c.468,0,.87-.093,1.209-.279.338-.187.507-.475.507-.865v-.155c0-.442-.149-.757-.449-.942-.299-.187-.804-.28-1.514-.28h-.65v-1.56h.624c.528,0,.96-.078,1.294-.234.333-.155.5-.45.5-.884v-.143c0-.312-.146-.544-.436-.696-.29-.151-.626-.228-1.008-.228-.363,0-.69.094-.981.28-.29.187-.53.461-.721.825l-1.365-.819c.312-.667.728-1.158,1.248-1.476.52-.315,1.152-.474,1.897-.474.91,0,1.653.216,2.229.649s.865,1.079.865,1.938c0,.45-.092.838-.273,1.163s-.438.592-.767.8c.416.217.729.494.942.832.212.338.318.754.318,1.248,0,.642-.158,1.188-.475,1.638-.316.451-.739.789-1.268,1.014-.528.226-1.109.338-1.742.338-.736,0-1.376-.157-1.917-.474Z" style="fill:#f4f4f4; stroke-width:0px;"/><circle cx="140.287" cy="72.75" r="8.275" style="fill:#30373e; stroke-width:0px;"/><path d="m140.287,64.458c-3.934,0-7.124,3.189-7.124,7.124v2.337c0,3.934,3.189,7.124,7.124,7.124s7.124-3.189,7.124-7.124v-2.337c0-3.934-3.189-7.124-7.124-7.124Z" style="fill:#30373e; stroke-width:0px;"/><path d="m139.328,70.563c-.199.134-.455.283-.767.448l-.819-1.326c.477-.26.906-.535,1.287-.825.382-.291.732-.613,1.053-.969h1.808v9.334h-1.846v-7.215c-.278.233-.517.418-.716.553Z" style="fill:#f4f4f4; stroke-width:0px;"/><circle cx="139.851" cy="162.36" r="8.275" style="fill:#30373e; stroke-width:0px;"/><path d="m139.851,154.068c-4.462,0-8.079,3.617-8.079,8.079v.426c0,4.462,3.617,8.079,8.079,8.079s8.079-3.617,8.079-8.079v-.426c0-4.462-3.617-8.079-8.079-8.079Z" style="fill:#30373e; stroke-width:0px;"/><path d="m136.364,165.367l3.236-3.03c.304-.277.56-.544.768-.8.208-.255.368-.496.48-.721.112-.226.169-.438.169-.638v-.117c0-.312-.119-.567-.357-.767s-.539-.299-.903-.299c-.52,0-.919.112-1.196.338s-.459.611-.546,1.157l-1.638-.521c.139-.832.507-1.476,1.104-1.931.599-.454,1.356-.682,2.275-.682.581,0,1.105.104,1.573.312s.838.512,1.111.91.409.871.409,1.417c0,.45-.089.882-.267,1.293-.178.412-.405.789-.682,1.132-.278.342-.594.674-.949.995l-2.002,1.794h3.965v1.625h-6.552v-1.469Z" style="fill:#f4f4f4; stroke-width:0px;"/></g></svg>