<?xml version="1.0" encoding="UTF-8"?><svg id="uuid-1ffdaafb-c580-454b-a6e2-d157ba2650a8" xmlns="http://www.w3.org/2000/svg" width="74.7902" height="39" viewBox="0 0 74.7902 39"><path d="m66.9841,14.2223c2.6151,0,4.735,2.1199,4.735,4.735s-2.1199,4.735-4.735,4.735h-24.5516c-2.6151,0-4.735-2.1199-4.735-4.735s2.1199-4.735,4.735-4.735h24.5516Z" style="fill:none; stroke:#a6abb0; stroke-width:2px;"/><path d="m39.2758,18.9573c0,1.7434,1.4131,3.1566,3.1566,3.1566h17.1861v-6.3133h-17.1861c-1.7435,0-3.1566,1.4133-3.1566,3.1566Z" style="fill:#33921a; fill-rule:evenodd; stroke-width:0px;"/><path d="m6.3525,19.6237c.1973.3086.2959.6738.2959,1.0957,0,.6787-.2197,1.2119-.6592,1.5986-.4395.3887-1.0469.582-1.8223.582-.4434,0-.8564-.085-1.2402-.2549-.3848-.1689-.7012-.4102-.9502-.7217l.9443-.7363c.1318.166.3027.2959.5146.3887.2109.0938.4404.1406.6904.1406.373,0,.6729-.0889.8975-.2646.2256-.1768.3379-.4141.3379-.7119v-.207c0-.2979-.1094-.5352-.3271-.7119-.2178-.1758-.5039-.2646-.8564-.2646h-.4463v-1.0381h.4463c.2969,0,.5381-.0859.7217-.2598.1826-.1729.2744-.3975.2744-.6748v-.207c0-.2705-.0986-.4863-.2959-.6494-.1973-.1621-.4512-.2441-.7627-.2441-.2012,0-.3945.0469-.5811.1406-.1875.0938-.3467.2227-.4775.3896l-.9453-.7373c.249-.3115.5518-.5518.9082-.7217s.7324-.2549,1.127-.2549c.4502,0,.8477.0869,1.1943.2598.3457.1729.6143.417.8047.7324.1895.3145.2852.6768.2852,1.085,0,.3457-.0801.6523-.2393.9189s-.3838.4824-.6748.6484c.3604.1455.6387.3721.8359.6797Z" style="fill:#30373e; stroke-width:0px;"/><path d="m12.0791,19.6862c.2002.3018.3008.6738.3008,1.1162,0,.6582-.2129,1.1719-.6387,1.542s-1.0156.5557-1.7705.5557c-.7539,0-1.3438-.1836-1.7695-.5508-.4258-.3662-.6387-.875-.6387-1.5264,0-.3662.1006-.6797.3008-.9395.2012-.2598.5225-.4932.9658-.7002-.374-.2012-.6455-.4453-.8154-.7324-.1689-.2871-.2539-.6484-.2539-1.085,0-.6504.1953-1.1572.5869-1.5215.3906-.3633.9326-.5449,1.624-.5449.6992,0,1.2432.1807,1.6309.54.3877.3604.5811.8623.5811,1.5059,0,.3594-.085.6641-.2539.9131-.1699.25-.4414.4678-.8154.6543.4434.2148.7646.4727.9658.7734Zm-.9863,1.0439c0-.291-.0977-.5225-.291-.6963-.1934-.1729-.5361-.332-1.0283-.4775-.3047.1182-.5342.2734-.6904.4678-.1553.1934-.2334.4189-.2334.6748v.1035c0,.291.1006.5156.3018.6748.2002.1592.4805.2393.8408.2393.3457,0,.6162-.0781.8096-.2334.1934-.1562.291-.3721.291-.6494v-.1035Zm-2.0771-3.3018c0,.2842.0801.5068.2393.6699.1592.1621.4326.3027.8203.4199l.1143.0312c.2422-.0898.4258-.2285.5498-.415.125-.1875.1875-.415.1875-.6855v-.1035c0-.2705-.0869-.4814-.2598-.6338s-.4121-.2285-.7168-.2285c-.29,0-.5186.0752-.6855.2236-.166.1484-.249.3545-.249.6172v.1045Z" style="fill:#30373e; stroke-width:0px;"/><path d="m17.3584,19.6237c.1973.3086.2959.6738.2959,1.0957,0,.6787-.2197,1.2119-.6592,1.5986-.4395.3887-1.0469.582-1.8223.582-.4434,0-.8564-.085-1.2402-.2549-.3848-.1689-.7012-.4102-.9502-.7217l.9443-.7363c.1318.166.3027.2959.5146.3887.2109.0938.4404.1406.6904.1406.373,0,.6729-.0889.8975-.2646.2256-.1768.3379-.4141.3379-.7119v-.207c0-.2979-.1094-.5352-.3271-.7119-.2178-.1758-.5039-.2646-.8564-.2646h-.4463v-1.0381h.4463c.2969,0,.5381-.0859.7217-.2598.1826-.1729.2744-.3975.2744-.6748v-.207c0-.2705-.0986-.4863-.2959-.6494-.1973-.1621-.4512-.2441-.7627-.2441-.2012,0-.3945.0469-.5811.1406-.1875.0938-.3467.2227-.4775.3896l-.9453-.7373c.249-.3115.5518-.5518.9082-.7217s.7324-.2549,1.127-.2549c.4502,0,.8477.0869,1.1943.2598.3457.1729.6143.417.8047.7324.1895.3145.2852.6768.2852,1.085,0,.3457-.0801.6523-.2393.9189s-.3838.4824-.6748.6484c.3604.1455.6387.3721.8359.6797Z" style="fill:#30373e; stroke-width:0px;"/><path d="m23.8633,19.6608l2.1699,3.0732h-1.5049l-1.0283-1.4326c-.1729-.25-.3115-.4951-.415-.7373l-.5605.6123v1.5576h-1.2461v-7.6836h1.2461v4.4854l1.8584-2.4092h1.4951l-2.0146,2.5342Z" style="fill:#30373e; stroke-width:0px;"/><path d="m33.415,17.527c.2842.3496.4258.8252.4258,1.4277v3.7793h-1.2451v-3.582c0-.3115-.0693-.5537-.208-.7275-.1387-.1729-.3291-.2588-.5713-.2588-.2695,0-.4912.124-.6641.373-.1738.25-.2598.582-.2598.9971v3.1982h-1.2461v-3.582c0-.3115-.0713-.5537-.2129-.7275-.1416-.1729-.334-.2588-.5762-.2588-.2695,0-.4912.124-.6641.373-.1738.25-.2598.582-.2598.9971v3.1982h-1.2461v-5.6074h.9551l.083.8936c.1104-.3184.2959-.5674.5557-.748.2598-.1797.5869-.2695.9814-.2695.3457,0,.6367.0869.8721.2598s.4111.4189.5293.7373c.1172-.3184.3066-.5645.5654-.7373.2598-.1729.5869-.2598.9814-.2598.5195,0,.9209.1748,1.2041.5244Z" style="fill:#30373e; stroke-width:0px;"/></svg>