<?xml version="1.0" encoding="UTF-8"?><svg xmlns="http://www.w3.org/2000/svg" width="654" height="261.654" viewBox="0 0 654 261.654"><g id="uuid-a337cf05-5290-479d-83c5-f8c2357d218a"><line x1="360.676" y1="79.277" x2="363.547" y2="19.933" style="fill:none; stroke:#a6abb0; stroke-miterlimit:10; stroke-width:.5px;"/><line x1="331.233" y1="79.792" x2="341.588" y2="20.2" style="fill:none; stroke:#a6abb0; stroke-miterlimit:10; stroke-width:.5px;"/><path d="m352.025,20.068l-6.434,59.643-1.212,6.434s-3.636,25.176-3.636,48.859c0,18.39.573,20.434,1.945,43.667l1.329,25.569" style="fill:none; stroke:#a6abb0; stroke-miterlimit:10; stroke-width:.5px;"/><line x1="438.934" y1="77.98" x2="440.26" y2="19.788" style="fill:none; stroke:#a6abb0; stroke-miterlimit:10; stroke-width:.5px;"/><path d="m201.037,206.912l.173-.273s1.547-2.433,3.821-4.991c2.958-3.328,5.995-4.436,10.353-4.622,10.066-.428,171.88-3.055,179.029-3.156,8.75-.123,12.818,0,16.145,3.081,2.306,2.135,4.31,4.617,5.328,5.946" style="fill:none; stroke:#a6abb0; stroke-miterlimit:10; stroke-width:.5px;"/><line x1="604.107" y1="26.968" x2="603.796" y2="14.386" style="fill:none; stroke:#a6abb0; stroke-miterlimit:10; stroke-width:.5px;"/><path d="m172.02,157.21c123.172-2.618,249.265-5.391,252.833-5.675,11.647-.924,16.272.235,19.596-4.067,3.143-4.067,6.101-8.874,10.537-15.529,11.414-17.121,25.692-18.202,57.494-18.672,37.528-.555,45.859.279,56.939,11.277,3.79,3.761,5.644,6.568,10.63,13.126.642.844,1.286,1.685,1.932,2.523,1.525,1.978,4.011,2.963,6.477,2.571l15.614-2.48c3.135-.498,7.629-2.642,9.989-4.765l11.569-10.412c2.311-2.08,3.66-5.028,3.721-8.137,0,0,0,0,0,0,.212-10.728-.158-16.028-.158-16.028" style="fill:none; stroke:#a6abb0; stroke-miterlimit:10; stroke-width:.5px;"/><path d="m652.367,151.285l-23.74,14.34c-3.165,1.912-8.741,3.959-12.391,4.549l-29.923,4.837" style="fill:none; stroke:#a6abb0; stroke-miterlimit:10; stroke-width:.5px;"/><path d="m25.971,119.008l-1.082,1.059c-.396.387-.634.903-.669,1.456-.193,3.089-.46,15.148-.5,18.459-.081,6.675.553,9.389,5.618,9.428,5.659.043,7.63,0,9.048,0,2.434,0,4.376-.587,5.947-3.235,1.57-2.648,7.382-12.639,10.537-16.638,3.962-5.022,10.889-12.448,55.585-12.448s50.563,5.444,60.174,23.17l8.75,17.008" style="fill:none; stroke:#a6abb0; stroke-miterlimit:10; stroke-width:.5px;"/><line x1="45.918" y1="147.406" x2="49.383" y2="147.406" style="fill:none; stroke:#a6abb0; stroke-linecap:round; stroke-linejoin:round; stroke-width:.5px;"/><line x1="46.453" y1="146.172" x2="49.917" y2="146.172" style="fill:none; stroke:#a6abb0; stroke-linecap:round; stroke-linejoin:round; stroke-width:.5px;"/><line x1="46.987" y1="144.938" x2="50.452" y2="144.938" style="fill:none; stroke:#a6abb0; stroke-linecap:round; stroke-linejoin:round; stroke-width:.5px;"/><path d="m25.175,105.631l.391-2.429c.112-.693.563-1.285,1.202-1.576,5.689-2.592,28.834-6.778,32.423-7.175,31.016-3.429,131.339-3.705,131.339-3.705h.139c.567-.018,152.812-4.984,152.812-4.984,0,0,189.066-3.613,244.809-3.613,10.332,0,24.925,0,29.756,0,4.831,0,9.491.364,10.039,4.497" style="fill:none; stroke:#a6abb0; stroke-miterlimit:10; stroke-width:.5px;"/><path d="m33.968,206.096c5.435-27.908,9.261-40.483,13.065-50.645" style="fill:none; stroke:#a6abb0; stroke-miterlimit:10; stroke-width:.5px;"/><path d="m580.481,157.965c6.678,15.406,10.313,36.545,10.975,40.041" style="fill:none; stroke:#a6abb0; stroke-miterlimit:10; stroke-width:.5px;"/><path d="m438.422,202.476c1.362-7.874,4.521-23.025,11.256-43.792" style="fill:none; stroke:#a6abb0; stroke-miterlimit:10; stroke-width:.5px;"/><path d="m237.992,48.645c-.295,1.706-1.078,5.638-1.995,12.429" style="fill:none; stroke:#a6abb0; stroke-miterlimit:10; stroke-width:.5px;"/><path d="m502.763,20.905s4.415,26.699,6.081,35.936c1.666,9.237,3.18,17.565,21.199,17.565s90.437-.262,90.437-.262" style="fill:none; stroke:#a6abb0; stroke-miterlimit:10; stroke-width:.5px;"/><path d="m239.309,82.123l157.711-3.548c23.089-.458,51.253-.609,59.43-.912,8.177-.303,11.205-3.483,11.205-11.508s-.049-45.973-.049-45.973" style="fill:none; stroke:#a6abb0; stroke-miterlimit:10; stroke-width:.5px;"/><path d="m269.053,21.225s114.095-1.676,131.292-1.676c88.145,0,188.448,3.989,188.448,3.989,9.865.634,16.194.023,20.973,11.854,4.947,12.249,10.714,38.754,10.714,38.754h23.026" style="fill:none; stroke:#a6abb0; stroke-miterlimit:10; stroke-width:.5px;"/><path d="m583.84,199.909s-4.073-22.211-10.599-37.96c-6.259-15.103-12.961-28.353-23.17-31.551-10.209-3.198-35.379-2.415-35.379-2.415,0,0-27.06.369-36.162,4.059-9.102,3.69-16.229,13.121-23.862,36.654-6.113,18.848-9.225,39.606-9.225,39.606" style="fill:none; stroke:#a6abb0; stroke-miterlimit:10;"/><line x1="456.871" y1="208.127" x2="168.44" y2="212.733" style="fill:none; stroke:#a6abb0; stroke-miterlimit:10; stroke-width:.5px;"/><path d="m515.084,256.693c-32.623,0-59.164-26.541-59.164-59.163,0-32.623,26.541-59.164,59.164-59.164s59.164,26.541,59.164,59.164-26.541,59.163-59.164,59.163Z" style="fill:none; stroke:#a6abb0; stroke-miterlimit:10; stroke-width:1px;"/><path d="m515.08,238.346c-22.507,0-40.817-18.31-40.817-40.816,0-22.507,18.31-40.817,40.817-40.817,22.507,0,40.817,18.31,40.817,40.817,0,22.506-18.31,40.816-40.817,40.816Z" style="fill:none; stroke:#a6abb0; stroke-miterlimit:10; stroke-width:.5px;"/><path d="m515.08,235.075c-20.703,0-37.546-16.843-37.546-37.545s16.844-37.546,37.546-37.546,37.545,16.843,37.545,37.546-16.843,37.545-37.545,37.545Z" style="fill:none; stroke:#a6abb0; stroke-miterlimit:10; stroke-width:.5px;"/><path d="m504.029,225.415c-4.647-1.91-8.895-5.011-12.148-8.996l4.182-7.549c.326-.617.84-1.1,1.49-1.408l9.988-4.612c.684-.337,1.014-1.091.804-1.802l-.431-1.309-.403-1.273c-.221-.628-.8-1.033-1.449-1.033h-.079l-.174.021-10.821,2.139c-.216.043-.429.066-.641.066-.471,0-.945-.109-1.368-.311l-7.924-3.785c.362-5.026,1.993-10.029,4.786-14.345l8.481,1.652c.688.131,1.316.474,1.764.965l7.508,8.093c.274.302.673.476,1.087.476.319,0,.626-.101.887-.291l2.176-1.562c.624-.495.789-1.307.424-1.955l-5.363-9.617c-.343-.594-.476-1.303-.382-2.006l1.145-8.668c7.406-1.731,12.898-.487,15.108.107l1.069,8.56c.092.686-.045,1.4-.382,2.008l-5.367,9.621c-.369.656-.191,1.494.416,1.944l2.173,1.569c.259.189.566.291.889.291.407,0,.789-.161,1.08-.454l7.508-8.108c.467-.504,1.085-.842,1.787-.973l8.593-1.597c2.664,4.265,4.295,9.272,4.584,14.427l-7.83,3.639c-.441.212-.913.319-1.382.319-.21,0-.422-.021-.63-.064l-10.905-2.152-.189-.007c-.666,0-1.258.435-1.44,1.057l-.412,1.249-.407,1.28c-.247.703.09,1.498.789,1.826l10.001,4.619c.63.302,1.147.791,1.485,1.406l4.167,7.671c-3.247,3.841-7.472,6.934-12.208,8.811l-5.976-6.314c-.484-.506-.791-1.155-.872-1.828l-1.309-10.944c-.082-.752-.725-1.325-1.494-1.325h-2.677c-.763,0-1.404.57-1.492,1.327l-1.307,10.94c-.082.688-.388,1.333-.862,1.82l-6.046,6.385Z" style="fill:none; stroke:#a6abb0; stroke-linecap:round; stroke-linejoin:round; stroke-width:.5px;"/><path d="m521.105,227.047c-1.941.393-3.969.6-6.03.6s-4.078-.207-6.019-.6l6.019-6.03,6.03,6.03Z" style="fill:none; stroke:#a6abb0; stroke-linecap:round; stroke-linejoin:round; stroke-width:.5px;"/><path d="m545.014,200.921c-.226,1.967-.656,3.96-1.293,5.92-.637,1.96-1.457,3.814-2.43,5.539l-3.875-7.588,7.598-3.871Z" style="fill:none; stroke:#a6abb0; stroke-linecap:round; stroke-linejoin:round; stroke-width:.5px;"/><path d="m527.555,170.108c1.801.823,3.563,1.848,5.231,3.059,1.667,1.211,3.177,2.565,4.517,4.023l-8.414,1.34-1.334-8.423Z" style="fill:none; stroke:#a6abb0; stroke-linecap:round; stroke-linejoin:round; stroke-width:.5px;"/><path d="m492.855,177.191c1.34-1.458,2.858-2.818,4.526-4.029s3.421-2.229,5.222-3.053l-1.325,8.416-8.423-1.334Z" style="fill:none; stroke:#a6abb0; stroke-linecap:round; stroke-linejoin:round; stroke-width:.5px;"/><path d="m488.869,212.381c-.973-1.725-1.797-3.589-2.434-5.55-.637-1.96-1.063-3.943-1.29-5.91l7.595,3.861-3.871,7.598Z" style="fill:none; stroke:#a6abb0; stroke-linecap:round; stroke-linejoin:round; stroke-width:.5px;"/><path d="m496.742,199.247c-.617-6.607,2.335-11.444,4.64-14.016" style="fill:none; stroke:#a6abb0; stroke-linecap:round; stroke-linejoin:round; stroke-width:.5px;"/><path d="m511.139,215.522c-5.121-1.121-9.452-4.379-12.007-8.788" style="fill:none; stroke:#a6abb0; stroke-linecap:round; stroke-linejoin:round; stroke-width:.5px;"/><path d="m531.048,206.739c-1.812,2.816-5.219,7.295-12.034,8.784" style="fill:none; stroke:#a6abb0; stroke-linecap:round; stroke-linejoin:round; stroke-width:.5px;"/><path d="m528.776,185.23c4.487,4.992,4.951,10.672,4.641,14.015" style="fill:none; stroke:#a6abb0; stroke-linecap:round; stroke-linejoin:round; stroke-width:.5px;"/><path d="m507.733,180.642c6.953-3.04,12.978-.75,14.701.003" style="fill:none; stroke:#a6abb0; stroke-linecap:round; stroke-linejoin:round; stroke-width:.5px;"/><path d="m280.426,21.059c-12.379,7.612-46.95,28.416-88.749,62.576" style="fill:none; stroke:#a6abb0; stroke-miterlimit:10; stroke-width:.5px;"/><path d="m646.662,86.613l-35.523.65c-1.294,0-2.434.585-2.434,2.342l-.087,4.122c0,4.046,3.821,7.493,12.212,7.493h26.3" style="fill:none; stroke:#a6abb0; stroke-miterlimit:10; stroke-width:.5px;"/><path d="m53.312,209.514c-.095-.007-4.504-.331-6.615-.494-.725-.056-2.244-1.63-2.969-1.688-1.115-.088-1.436-.114-2.552-.205-4.548-.369-9.231-.772-15.732-4.679-9.486-5.701-17.351-11.25-22.215-16.409-.751-.796-1.153-1.857-1.17-2.951l-.284-18.35c-.014-.875.483-1.677,1.272-2.055l9.072-3.418v-6.81s-1.495-.111-2.436-1.661c-.579-.954-1.621-2.559-2.335-3.652-.498-.762-.752-1.656-.729-2.566l.985-38.686c.09-3.543,2.251-6.698,5.528-8.049,8.847-3.645,28.596-10.305,59.258-12.71,43.106-3.381,78.484-3.239,82.952-3.601,4.468-.362,9.177,1.811,13.765,1.811s13.523.241,13.523.241c0,0,38.518-32.903,86.333-62.305,6.229-3.939,7.946-7.125,35.947-8.98,45.018-2.981,177.593-1.91,268.505.446l16.521.565c24.388,0,39.528,9.735,39.528,9.735,0,0,2.463,7.859,4.223,14.31,1.628,5.969,11.49,43.056,12.955,48.566l.49,15.295h.019s.091,1.528.227,16.392c.144,15.767-3.176,30.061-3.176,30.061l8.168,2.269s0,2.236,0,5.672c0,8.468-6.593,21.7-15.964,26.26-6.924,3.369-18.367,9.828-52.563,18.036-3.257.782-6.514,1.525-9.77,2.229" style="fill:none; stroke:#a6abb0; stroke-miterlimit:10; stroke-width:.5px;"/><path d="m182.991,212.501l-.43-1.882c-1.554-6.802-7.068-29.924-13.165-43.369-11.708-25.82-16.084-37.713-52.451-37.351-42.086.419-52.758,3.458-60.581,21.806-7.255,17.018-11.271,35.578-15.187,55.423" style="fill:none; stroke:#a6abb0; stroke-miterlimit:10;"/><path d="m644.2,147.673s-9.125,6.109-18.827,11.013c-10.478,5.297-21.459,6.297-29.516,7.269-8.05.971-11.262,1.548-13.42-4.018-3.218-6.15-7.723-17.668-16.343-29.259-9.12-12.263-21.393-12.258-51.578-12.201-12.948.024-29.696,1.013-37.528,3.512-18.514,5.908-26.545,33.678-31.08,44.247-3.661,8.532-9.655,7.914-16.696,8.064-7.33.156-236.934,5.635-236.934,5.635-8.291,0-9.995,1.022-11.453-2.729-1.748-4.496-6.806-19.167-13.684-31.928-8.832-16.386-14.147-23.656-55.855-23.656-41.708,0-48.62,6.592-52.317,11.213-3.138,3.922-7.803,12.381-12.31,21.245-.605,1.19-1.812,1.963-3.146,2.013l-31.392,1.173" style="fill:none; stroke:#a6abb0; stroke-miterlimit:10; stroke-width:.5px;"/><path d="m111.256,256.693c-32.623,0-59.164-26.541-59.164-59.163,0-32.623,26.541-59.164,59.164-59.164,32.623,0,59.164,26.541,59.164,59.164,0,32.622-26.541,59.163-59.164,59.163Z" style="fill:none; stroke:#a6abb0; stroke-miterlimit:10; stroke-width:1px;"/><path d="m111.252,238.346c-22.507,0-40.817-18.31-40.817-40.816,0-22.507,18.31-40.817,40.817-40.817,22.507,0,40.817,18.31,40.817,40.817,0,22.506-18.31,40.816-40.817,40.816Z" style="fill:none; stroke:#a6abb0; stroke-miterlimit:10; stroke-width:.5px;"/><path d="m111.252,235.075c-20.703,0-37.546-16.843-37.546-37.545s16.844-37.546,37.546-37.546,37.545,16.843,37.545,37.546-16.843,37.545-37.545,37.545Z" style="fill:none; stroke:#a6abb0; stroke-miterlimit:10; stroke-width:.5px;"/><path d="m100.201,225.415c-4.647-1.91-8.895-5.011-12.148-8.996l4.182-7.549c.326-.617.84-1.1,1.49-1.408l9.988-4.612c.684-.337,1.014-1.091.804-1.802l-.431-1.309-.403-1.273c-.221-.628-.8-1.033-1.449-1.033h-.079l-.174.021-10.821,2.139c-.216.043-.429.066-.641.066-.471,0-.945-.109-1.368-.311l-7.924-3.785c.362-5.026,1.993-10.029,4.786-14.345l8.481,1.652c.688.131,1.316.474,1.764.965l7.508,8.093c.274.302.673.476,1.087.476.319,0,.626-.101.887-.291l2.176-1.562c.624-.495.789-1.307.424-1.955l-5.363-9.617c-.343-.594-.476-1.303-.382-2.006l1.145-8.668c7.406-1.731,12.898-.487,15.108.107l1.069,8.56c.092.686-.045,1.4-.382,2.008l-5.367,9.621c-.369.656-.191,1.494.416,1.944l2.173,1.569c.259.189.566.291.889.291.407,0,.789-.161,1.08-.454l7.508-8.108c.467-.504,1.085-.842,1.787-.973l8.593-1.597c2.664,4.265,4.295,9.272,4.584,14.427l-7.83,3.639c-.441.212-.913.319-1.382.319-.21,0-.422-.021-.63-.064l-10.905-2.152-.189-.007c-.666,0-1.258.435-1.44,1.057l-.412,1.249-.407,1.28c-.247.703.09,1.498.789,1.826l10.001,4.619c.63.302,1.147.791,1.485,1.406l4.167,7.671c-3.247,3.841-7.472,6.934-12.208,8.811l-5.976-6.314c-.484-.506-.791-1.155-.872-1.828l-1.309-10.944c-.082-.752-.725-1.325-1.494-1.325h-2.677c-.763,0-1.404.57-1.492,1.327l-1.307,10.94c-.082.688-.388,1.333-.862,1.82l-6.046,6.385Z" style="fill:none; stroke:#a6abb0; stroke-linecap:round; stroke-linejoin:round; stroke-width:.5px;"/><path d="m117.277,227.047c-1.941.393-3.969.6-6.03.6s-4.078-.207-6.019-.6l6.019-6.03,6.03,6.03Z" style="fill:none; stroke:#a6abb0; stroke-linecap:round; stroke-linejoin:round; stroke-width:.5px;"/><path d="m141.186,200.921c-.226,1.967-.656,3.96-1.293,5.92-.637,1.96-1.457,3.814-2.43,5.539l-3.875-7.588,7.598-3.871Z" style="fill:none; stroke:#a6abb0; stroke-linecap:round; stroke-linejoin:round; stroke-width:.5px;"/><path d="m123.727,170.108c1.801.823,3.563,1.848,5.231,3.059,1.667,1.211,3.177,2.565,4.517,4.023l-8.414,1.34-1.334-8.423Z" style="fill:none; stroke:#a6abb0; stroke-linecap:round; stroke-linejoin:round; stroke-width:.5px;"/><path d="m89.028,177.191c1.34-1.458,2.858-2.818,4.526-4.029s3.421-2.229,5.222-3.053l-1.325,8.416-8.423-1.334Z" style="fill:none; stroke:#a6abb0; stroke-linecap:round; stroke-linejoin:round; stroke-width:.5px;"/><path d="m85.041,212.381c-.973-1.725-1.797-3.589-2.434-5.55-.637-1.96-1.063-3.943-1.29-5.91l7.595,3.861-3.871,7.598Z" style="fill:none; stroke:#a6abb0; stroke-linecap:round; stroke-linejoin:round; stroke-width:.5px;"/><path d="m92.914,199.247c-.617-6.607,2.335-11.444,4.64-14.016" style="fill:none; stroke:#a6abb0; stroke-linecap:round; stroke-linejoin:round; stroke-width:.5px;"/><path d="m107.311,215.522c-5.121-1.121-9.452-4.379-12.007-8.788" style="fill:none; stroke:#a6abb0; stroke-linecap:round; stroke-linejoin:round; stroke-width:.5px;"/><path d="m127.22,206.739c-1.812,2.816-5.219,7.295-12.034,8.784" style="fill:none; stroke:#a6abb0; stroke-linecap:round; stroke-linejoin:round; stroke-width:.5px;"/><path d="m124.948,185.23c4.487,4.992,4.951,10.672,4.641,14.015" style="fill:none; stroke:#a6abb0; stroke-linecap:round; stroke-linejoin:round; stroke-width:.5px;"/><path d="m103.905,180.642c6.953-3.04,12.978-.75,14.701.003" style="fill:none; stroke:#a6abb0; stroke-linecap:round; stroke-linejoin:round; stroke-width:.5px;"/><path d="m12.12,152.457h6.951c1.437,0,2.874.596,3.991,1.913l1.889,2.227c.423.499.744,1.441.713,2.094l-.645,13.73c-.122,2.607-1.823,4.876-4.291,5.726l-4.879,1.68c-6.862,2.362-13.791,3.264-13.791,3.264" style="fill:none; stroke:#a6abb0; stroke-miterlimit:10; stroke-width:.5px;"/><rect x="428.178" y="95.655" width="29.7" height="5.895" rx="2.947" ry="2.947" transform="translate(-1.272 5.901) rotate(-.762)" style="fill:none; stroke:#a6abb0; stroke-linecap:round; stroke-linejoin:round; stroke-width:.5px;"/><rect x="299.265" y="98.433" width="29.7" height="5.895" rx="2.947" ry="2.947" transform="translate(-1.745 5.576) rotate(-1.014)" style="fill:none; stroke:#a6abb0; stroke-linecap:round; stroke-linejoin:round; stroke-width:.5px;"/><line x1="182.63" y1="83.586" x2="203.653" y2="83.035" style="fill:none; stroke:#a6abb0; stroke-miterlimit:10; stroke-width:.5px;"/><path d="m193.952,206.929l-4.327-25.008s-2.802-16.197-3.624-24.936c-.822-8.739-1.569-32.641-.598-44.368.971-11.727,2.614-21.885,2.614-21.885l3.66-7.096" style="fill:none; stroke:#a6abb0; stroke-miterlimit:10; stroke-width:.5px;"/><path d="m473.363,20.373c2.1,30.092,2.35,40.926,2.668,49.307.329,8.673,2.049,13.737,2.049,13.737,0,0,2.929,18.893,2.929,31.73v15.919" style="fill:none; stroke:#a6abb0; stroke-miterlimit:10; stroke-width:.5px;"/><line x1="446.458" y1="202.326" x2="181.129" y2="207.284" style="fill:none; stroke:#a6abb0; stroke-miterlimit:10; stroke-width:.5px;"/><path d="m580.127,12.978l.367-.766s4.226-8.814,10.022-8.814h5.796l1.011,10.218" style="fill:none; stroke:#a6abb0; stroke-miterlimit:10; stroke-width:.5px;"/><g id="uuid-21ac83f7-8578-4614-99dd-3cb4611cb4ba"><path d="m.783,164.742s.276,18.362.276,18.361c.018,1.328.514,2.634,1.45,3.624,4.955,5.251,12.919,10.863,22.427,16.57,6.698,4.031,11.565,4.454,16.168,4.822.499.039.838.067,1.163.093.394.032.768.062,1.329.102.147.042.47.257,1.041.67.413.3,1.263.966,1.98,1.024.405.031.893.067,1.419.107,1.506.114,3.389.257,4.45.334,2.965,13.49,10.47,25.296,20.823,33.729s23.574,13.505,37.95,13.505c13.761,0,26.455-4.639,36.598-12.435,10.181-7.825,17.796-18.832,21.349-31.527,0,0,286.869-4.584,286.854-4.584,2.704,13.79,10.134,25.903,20.525,34.58,10.437,8.715,23.867,13.966,38.499,13.966,15.747,0,30.103-6.083,40.837-16.019,10.63-9.84,17.713-23.465,19.082-38.712,3.022-.665,6.045-1.356,9.068-2.085,31.493-7.552,43.775-13.639,50.991-17.221.634-.315,1.225-.608,1.786-.881,4.491-2.19,8.312-6.234,11.13-10.745,3.359-5.374,5.395-11.571,5.395-16.411v-6.43s-7.992-2.219-7.992-2.219c.723-3.439,3.115-15.875,2.991-29.364-.129-14.629-.246-16.416-.248-16.423l-.483-15.409-1.705-6.408c-3.3-12.405-9.966-37.457-11.28-42.268-1.765-6.476-4.351-14.689-4.351-14.689l-.304-.195s-12.013-7.714-31.759-9.519l-1.025-10.296h-6.707c-1.56,0-2.983.543-4.222,1.323-4.084,2.569-6.708,8.078-6.699,8.061,0,0-.083.175-.082.175,0,0-6.059-.21-6.067-.21-90.901-2.355-223.527-3.433-268.593-.449-14.524.965-22.087,2.29-26.898,3.931-3.513,1.198-5.537,2.558-7.658,3.98-.604.405-1.21.812-1.855,1.219-45.454,27.944-82.519,59.068-86.163,62.155-1.757-.047-9.123-.237-13.165-.237-2.005,0-4.055-.442-6.221-.914-2.447-.533-5.061-1.11-7.629-.901-1.066.087-4.023.145-8.6.235-13.816.27-41.895.82-74.34,3.371-30.775,2.408-50.634,9.108-59.562,12.779-1.816.747-3.322,1.991-4.39,3.537-1.08,1.563-1.712,3.435-1.769,5.417,0,0-.974,38.688-.974,38.68-.036,1.113.286,2.216.889,3.138.714,1.092,1.753,2.695,2.32,3.616.441.737.991,1.229,1.513,1.552.288.178.565.304.773.354,0,0,0,5.364,0,5.364,0,0-8.425,3.173-8.506,3.208-.568.274-1.032.7-1.35,1.216s-.491,1.12-.481,1.75Z" style="fill:none; stroke:#a6abb0; stroke-miterlimit:3; stroke-width:.5px;"/><path d="m1.033,164.738s.276,18.362.276,18.361c.017,1.269.491,2.513,1.382,3.456,4.93,5.225,12.87,10.822,22.374,16.528,6.648,4.001,11.469,4.42,16.059,4.786.5.039.838.067,1.164.093.394.032.768.062,1.368.109.159.031.523.271,1.129.711.45.326,1.226.926,1.852.977.405.031.893.067,1.419.107,1.611.122,3.634.275,4.635.348,2.925,13.509,10.419,25.334,20.776,33.771,10.316,8.404,23.476,13.449,37.792,13.449,13.704,0,26.344-4.62,36.446-12.384,10.187-7.829,17.794-18.858,21.311-31.576,0,0,287.262-4.59,287.251-4.59,2.659,13.817,10.08,25.957,20.48,34.641,10.394,8.679,23.768,13.908,38.339,13.908,15.682,0,29.978-6.057,40.667-15.952,10.629-9.839,17.696-23.476,19.018-38.733,3.08-.677,6.162-1.381,9.243-2.123,31.473-7.547,43.737-13.628,50.938-17.202.634-.315,1.225-.608,1.787-.881,4.436-2.163,8.225-6.167,11.028-10.652,3.341-5.346,5.357-11.498,5.357-16.279v-6.24s-8.036-2.231-8.036-2.231c.654-3.067,3.161-15.752,3.034-29.54-.129-14.687-.247-16.413-.247-16.417l-.483-15.38-1.698-6.38c-3.301-12.406-9.966-37.457-11.279-42.266-1.763-6.471-4.321-14.593-4.321-14.593l-.228-.146s-12.038-7.734-31.852-9.499l-1.023-10.277h-6.48c-1.5,0-2.878.522-4.089,1.284-4.015,2.526-6.613,7.969-6.606,7.956,0,0-.153.324-.153.324,0,0-6.223-.216-6.23-.216-90.904-2.355-223.518-3.432-268.57-.449-14.521.965-22.055,2.289-26.834,3.918-3.48,1.187-5.483,2.531-7.599,3.951-.604.405-1.213.813-1.864,1.225-45.766,28.136-83.022,59.495-86.205,62.194-1.565-.042-9.138-.24-13.254-.24-2.037,0-4.113-.449-6.274-.919-2.455-.534-5.031-1.101-7.555-.896-1.076.088-4.045.146-8.615.236-13.815.27-41.888.82-74.326,3.37-30.747,2.405-50.581,9.099-59.487,12.761-1.771.729-3.238,1.941-4.279,3.448-1.053,1.524-1.669,3.348-1.725,5.282,0,0-.974,38.688-.974,38.682-.034,1.06.273,2.113.849,2.993.713,1.092,1.754,2.697,2.325,3.624.418.699.939,1.163,1.43,1.468.348.215.679.35.892.372,0,0,0,5.732,0,5.732,0,0-8.587,3.234-8.648,3.26-.525.253-.952.646-1.246,1.122s-.453,1.034-.444,1.615Z" style="fill:none; stroke:#a6abb0; stroke-miterlimit:3; stroke-width:.5px;"/><path d="m1.283,164.734s.276,18.362.276,18.362c.016,1.209.468,2.393,1.314,3.288,4.905,5.199,12.82,10.782,22.321,16.485,6.598,3.971,11.373,4.386,15.949,4.751.5.039.839.067,1.164.093.393.032.767.062,1.379.11.187.015.607.295,1.244.756.486.352,1.188.887,1.724.93.405.031.893.067,1.419.107,1.735.131,3.923.297,4.822.361,2.884,13.528,10.368,25.373,20.729,33.813,10.274,8.369,23.378,13.393,37.634,13.393,13.647,0,26.234-4.6,36.294-12.332,10.193-7.834,17.792-18.884,21.272-31.625,0,0,287.656-4.596,287.648-4.596,2.613,13.844,10.025,26.011,20.434,34.703,10.351,8.643,23.668,13.85,38.179,13.85,15.616,0,29.852-6.032,40.498-15.886s17.679-23.488,18.955-38.754c3.139-.689,6.278-1.405,9.418-2.162,31.453-7.542,43.7-13.616,50.886-17.183.634-.315,1.226-.609,1.789-.882,4.38-2.136,8.138-6.099,10.926-10.56,3.324-5.319,5.319-11.424,5.319-16.146v-6.05s-8.08-2.243-8.08-2.243c.562-2.59,3.209-15.571,3.078-29.716-.13-14.744-.247-16.409-.247-16.411l-.482-15.352-1.691-6.353c-3.301-12.407-9.965-37.456-11.279-42.265-1.762-6.466-4.291-14.497-4.291-14.497l-.152-.098s-12.063-7.753-31.945-9.478l-1.021-10.257h-6.254c-1.441,0-2.773.501-3.956,1.246-3.946,2.483-6.517,7.86-6.513,7.851,0,0-.223.473-.223.473,0,0-6.388-.221-6.392-.221-90.906-2.355-223.508-3.432-268.547-.45-14.517.965-22.024,2.287-26.77,3.905-3.448,1.176-5.428,2.505-7.541,3.922-.604.405-1.215.815-1.872,1.23-46.138,28.365-83.622,60.005-86.247,62.234-1.321-.036-9.139-.242-13.343-.242-2.068,0-4.171-.456-6.327-.925-2.463-.536-5.002-1.093-7.482-.891-1.086.088-4.067.147-8.631.236-13.814.27-41.881.82-74.311,3.369-30.718,2.403-50.527,9.09-59.411,12.743-1.725.71-3.154,1.891-4.168,3.358-1.026,1.484-1.626,3.262-1.68,5.146,0,0-.974,38.688-.974,38.684-.033,1.007.259,2.009.808,2.848.713,1.091,1.756,2.7,2.33,3.632.396.661.886,1.098,1.347,1.384.421.261.814.394,1.01.377,0,0,0,6.113,0,6.113,0,0-8.748,3.295-8.789,3.312-.481.231-.872.592-1.142,1.028s-.415.947-.406,1.48Z" style="fill:none; stroke:#a6abb0; stroke-miterlimit:3; stroke-width:.5px;"/><path d="m1.533,164.73s.276,18.362.276,18.362c.015,1.15.445,2.272,1.246,3.12,4.881,5.173,12.771,10.741,22.268,16.442,6.549,3.941,11.276,4.352,15.84,4.716.5.039.839.067,1.165.094.393.032.767.062,1.379.11.276.022.77.368,1.371.803.522.379,1.151.847,1.596.883.405.031.894.067,1.419.107,1.893.143,4.296.325,5.008.375,2.843,13.548,10.316,25.411,20.681,33.855,10.231,8.334,23.28,13.337,37.476,13.337,13.59,0,26.124-4.581,36.141-12.28,10.199-7.839,17.79-18.911,21.232-31.673,0,0,288.051-4.603,288.047-4.603,2.567,13.871,9.97,26.065,20.387,34.764,10.308,8.607,23.569,13.792,38.019,13.792,15.551,0,29.727-6.006,40.328-15.819,10.626-9.836,17.662-23.499,18.891-38.775,3.198-.701,6.396-1.429,9.594-2.2,31.433-7.538,43.662-13.605,50.833-17.163.634-.315,1.227-.609,1.79-.883,4.325-2.109,8.051-6.032,10.823-10.468,3.307-5.291,5.281-11.351,5.281-16.014v-5.86s-8.124-2.255-8.124-2.255c.423-1.912,3.258-15.278,3.123-29.891-.131-14.854-.248-16.416-.247-16.405,0,0-.48-15.295-.488-15.351-.284-1.067-.883-3.318-1.676-6.297-3.301-12.408-9.965-37.456-11.278-42.263-1.761-6.46-4.261-14.402-4.261-14.402l-.076-.049s-12.087-7.773-32.037-9.457l-1.019-10.239h-6.028c-1.381,0-2.667.48-3.823,1.207-3.878,2.439-6.422,7.751-6.42,7.746l-.293.622s-6.552-.227-6.554-.227c-90.908-2.355-223.499-3.432-268.524-.45-14.513.965-21.993,2.286-26.706,3.893-3.416,1.165-5.373,2.478-7.482,3.893-.603.405-1.217.817-1.88,1.236-46.625,28.664-84.409,60.674-86.289,62.273-.974-.027-9.113-.245-13.432-.245-2.1,0-4.23-.463-6.38-.931-2.471-.538-4.972-1.084-7.408-.886-1.096.089-4.089.148-8.646.237-13.814.27-41.875.82-74.296,3.368-30.69,2.401-50.474,9.081-59.335,12.725-1.679.691-3.071,1.84-4.058,3.269-.998,1.445-1.584,3.176-1.636,5.01,0,0-.974,38.688-.974,38.686-.031.954.246,1.906.768,2.704.713,1.091,1.758,2.702,2.335,3.641.373.623.833,1.033,1.264,1.3.517.32.99.435,1.128.378,0,0,0,6.497,0,6.497,0,0-8.91,3.356-8.931,3.364-.437.21-.793.538-1.037.934s-.377.86-.369,1.345Z" style="fill:none; stroke:#a6abb0; stroke-miterlimit:3; stroke-width:.5px;"/></g><path d="m1.783,164.727l.276,18.362c.015,1.09.422,2.152,1.178,2.951,4.856,5.147,12.721,10.7,22.215,16.4,6.499,3.911,11.18,4.318,15.731,4.681,1.105.087,1.425.116,2.544.204.727.058,2.253,1.628,2.966,1.686,2.123.16,6.528.494,6.615.494,5.554,26.897,29.427,47.178,57.951,47.178,27.376,0,50.449-18.668,57.181-43.951l288.433-4.609h.015c5.001,27.58,29.194,48.559,58.198,48.559,31.069,0,56.628-24.076,58.984-54.549,3.257-.712,6.513-1.454,9.77-2.239,34.195-8.2,45.637-14.655,52.572-18.028,9.363-4.565,15.963-17.795,15.963-26.257,0-3.446,0-5.67,0-5.67l-8.171-2.268s3.315-14.306,3.169-30.066c-.131-14.859-.247-16.4-.247-16.4l-.48-15.295c-1.468-5.51-11.326-42.598-12.954-48.559-1.759-6.455-4.231-14.306-4.231-14.306,0,0-12.111-7.793-32.13-9.436l-1.018-10.221h-5.801c-5.786,0-10.017,8.81-10.017,8.81l-.363.771-6.717-.233c-90.911-2.355-223.489-3.431-268.501-.451-28.002,1.861-29.717,5.045-35.954,8.985-47.818,29.397-86.331,62.313-86.331,62.313,0,0-8.927-.247-13.521-.247s-9.305-2.181-13.768-1.817c-4.463.363-39.851.218-82.943,3.606-30.662,2.399-50.42,9.072-59.26,12.707-3.286,1.352-5.437,4.507-5.539,8.054l-.974,38.688c-.029.901.232,1.803.727,2.559.712,1.09,1.759,2.704,2.341,3.649.931,1.556,2.428,1.672,2.428,1.672v6.804s-9.072,3.417-9.072,3.417c-.785.378-1.28,1.178-1.265,2.05Z" style="fill:none; stroke:#a6abb0; stroke-miterlimit:3; stroke-width:.5px;"/><path d="m472.76,239.858c-16.259-4.009-29.431-15.948-35.159-31.462" style="fill:none; stroke:#a6abb0; stroke-miterlimit:10; stroke-width:1px;"/><path d="m187.043,212.437c-6.587,13.941-19.398,24.389-34.825,27.737" style="fill:none; stroke:#a6abb0; stroke-miterlimit:10; stroke-width:1px;"/><line x1="45.806" y1="112.496" x2="63.598" y2="130.632" style="fill:none; stroke:#a6abb0; stroke-miterlimit:10; stroke-width:.5px;"/><line x1="38.386" y1="149.41" x2="50.129" y2="149.41" style="fill:none; stroke:#a6abb0; stroke-miterlimit:10; stroke-width:.5px;"/><path d="m487.507,61.888c.273,0,.397-.081.546-.24,0,0,2.97-3.034,3.592-3.557.137-.116.297-.118.299-.118.009,0,.169.002.307.118.58.489,3.592,3.557,3.592,3.557.147.159.273.24.546.24l1.652-.002c.366,0,.602-.346.301-.657-1.69-1.746-4.579-4.631-5.242-5.237-.319-.292-.725-.408-1.152-.408s-.814.138-1.152.409c-.726.576-4.55,4.439-5.243,5.236-.268.309-.135.657.303.657l1.652.002Z" style="fill:none; stroke:#a6abb0; stroke-linecap:round; stroke-linejoin:round; stroke-width:.375px;"/><path d="m490.796,67.784c.338.27.725.408,1.151.408s.815-.138,1.153-.409c.735-.584,4.555-4.445,5.242-5.236.25-.288.019-.656-.302-.656l-1.652-.002c-.274,0-.399.081-.547.241,0,0-3.01,3.067-3.591,3.556-.137.116-.297.118-.299.118-.01,0-.169-.002-.307-.118-.622-.523-3.592-3.557-3.592-3.557-.149-.159-.274-.24-.546-.24l-1.652.002c-.247,0-.629.32-.305.655,2.111,2.177,4.661,4.775,5.245,5.239Z" style="fill:none; stroke:#a6abb0; stroke-linecap:round; stroke-linejoin:round; stroke-width:.375px;"/><path d="m491.954,65.803v-2.28h-.013c0-.233-.067-.384-.25-.555-.222-.206-.581-.549-.833-.806-.132-.135-.141-.349-.019-.494.241-.288.599-.635.849-.862.186-.174.253-.324.253-.559l.013-.002v-2.272" style="fill:none; stroke:#a6abb0; stroke-linecap:round; stroke-linejoin:round; stroke-width:.375px;"/><path d="m491.928,65.803v-2.28h.013c0-.233.067-.384.25-.555.222-.206.581-.549.833-.806.132-.135.141-.349.019-.494-.241-.288-.599-.635-.849-.862-.186-.174-.253-.324-.253-.559l-.013-.002v-2.272" style="fill:none; stroke:#a6abb0; stroke-linecap:round; stroke-linejoin:round; stroke-width:.375px;"/><line x1="609.268" y1="96.371" x2="646.966" y2="96.038" style="fill:none; stroke:#a6abb0; stroke-miterlimit:10; stroke-width:.5px;"/><path d="m7.293,106.42c-.002-.263.21-.481.473-.487l39.157-.928c2.504-.059,3.457,1.193,2.149,3.349-1.308,2.156-5.67,6.841-6.608,7.76-.939.92-3.337,2.582-6.454,2.656l-28.107.666c-.111.003-.219-.034-.306-.103l-.346-.278c-.206-.166-.233-.472-.058-.677l1.5-3.022-1.172-2.143c-.115-.088-.182-.223-.183-.369l-.027-3.892c0-.14.06-.275.167-.368l.704-.613c.01-.009.009-.024-.002-.031l-.656-.397c-.139-.084-.223-.234-.225-.397l-.005-.726Z" style="fill:none; stroke:#a6abb0; stroke-miterlimit:10; stroke-width:.5px;"/><path d="m25.532,114.203c-.004-.547-.182-1.57-1.996-1.527l-16.016.38" style="fill:none; stroke:#a6abb0; stroke-miterlimit:10; stroke-width:.5px;"/><path d="m8.182,107.971s35.409-.84,36.914-.875c1.506-.036,2.025.847,1.11,2.066-.916,1.219-4.006,4.714-4.381,5.031s-2.176,2.173-5.735,2.257c-3.559.084-10.541.25-10.541.25l-.017-2.497" style="fill:none; stroke:#a6abb0; stroke-miterlimit:10; stroke-width:.5px;"/><line x1="8.693" y1="115.356" x2="25.537" y2="114.957" style="fill:none; stroke:#a6abb0; stroke-miterlimit:10; stroke-width:.5px;"/><path d="m229.842,85.242h-7.189c-1.147,0-2.681-.725-3.409-1.612l-5.805-7.069c-.525-.639-.932-1.367-1.2-2.15l-.084-.246" style="fill:none; stroke:#a6abb0; stroke-miterlimit:10; stroke-width:.5px;"/><g id="uuid-23f50bf7-f0b3-4f01-b41b-186e1b6ef137"><path d="m218.677,87.954c.511-.016,1.022-.125,1.496-.321,1.369-.566,5.068-1.891,9.669-1.891,2.202,0,6.355.024,8.712-1.895,2.645-2.641,2.709-3.77,2.849-7.023.004-.104.009-.21.014-.319.034-.77.037-2.758.014-3.525-.091-3.06-.131-4.332-1.252-7.894-.613-1.949-1.183-3.315-2.354-4.041-.38-.235-.807-.394-1.292-.492-1.792-.362-4.587.088-9.269.827-.165.026-.333.053-.538.086-8.939,2.049-14.233,9.756-14.23,9.759-.519.581-.795,1.15-.897,1.709-.164.903.151,1.689.375,2.266.243.628.33.928.228,1.174-.066.16-.262.402-.881.679-4.989,2.236-5.18,2.425-8.283,5.926-.245.276-.508.573-.794.894-.177.199-.297.429-.36.669-.066.253-.069.514-.015.761s.166.484.331.686c.157.192.362.351.606.457l3.153,1.379c.636.278,1.681.479,2.375.457l10.341-.331Z" style="fill:none; stroke:#a6abb0; stroke-miterlimit:10; stroke-width:.5px;"/><path d="m218.669,87.704c.482-.015.963-.118,1.409-.302,1.386-.573,5.118-1.91,9.764-1.91,2.235,0,6.281.012,8.536-1.822,2.584-2.581,2.637-3.639,2.776-6.856.004-.104.009-.21.014-.319.033-.762.037-2.745.014-3.507-.09-3.047-.129-4.294-1.241-7.827-.617-1.96-1.166-3.234-2.248-3.904-.35-.217-.749-.366-1.21-.459-1.735-.35-4.47.086-9.18.829-.165.026-.333.053-.521.083-8.87,2.033-14.119,9.707-14.099,9.682-.493.553-.746,1.081-.838,1.588-.15.824.135,1.546.362,2.131.232.598.373,1.002.226,1.359-.101.247-.367.524-1.01.812-4.959,2.222-5.12,2.391-8.198,5.864-.245.276-.508.573-.794.895-.151.169-.251.363-.304.566-.056.213-.059.435-.013.645s.141.41.28.581c.133.162.305.296.513.387l3.153,1.379c.602.263,1.61.457,2.267.436l10.341-.331Z" style="fill:none; stroke:#a6abb0; stroke-miterlimit:10; stroke-width:.5px;"/></g><path d="m218.661,87.454c.452-.014.903-.11,1.321-.283,1.402-.58,5.169-1.929,9.86-1.929,2.267,0,6.207,0,8.359-1.749,2.606-2.602,2.566-3.57,2.717-7.009.033-.755.036-2.731.014-3.489-.09-3.034-.127-4.256-1.229-7.759-1.62-5.147-2.61-4.899-12.864-3.283-8.77,2.01-13.968,9.604-13.968,9.604-2.493,2.794,1.826,4.532-1.344,5.953-5.324,2.386-5.051,2.368-8.908,6.696-.51.572-.312,1.475.39,1.782l3.153,1.379c.568.248,1.539.435,2.159.416l10.341-.331Z" style="fill:none; stroke:#a6abb0; stroke-miterlimit:10; stroke-width:.5px;"/><path d="m240.837,76.484h-13.229c-.274,0-.521-.165-.626-.418s-.047-.544.147-.738l1.4-1.4c.597-.597,1.407-.932,2.251-.932h10.151" style="fill:none; stroke:#a6abb0; stroke-linecap:round; stroke-linejoin:round; stroke-width:.5px;"/><line x1="240.837" y1="76.484" x2="213.438" y2="76.484" style="fill:none; stroke:#a6abb0; stroke-linecap:round; stroke-linejoin:round; stroke-width:.5px;"/><ellipse cx="207.859" cy="82.975" rx=".817" ry="1.314" style="fill:none; stroke:#a6abb0; stroke-miterlimit:10; stroke-width:.5px;"/><ellipse cx="231.484" cy="81.014" rx="1.603" ry=".831" transform="translate(-1.396 4.104) rotate(-1.013)" style="fill:none; stroke:#a6abb0; stroke-miterlimit:10; stroke-width:.5px;"/><line x1="208.262" y1="84.117" x2="206.74" y2="85.509" style="fill:none; stroke:#a6abb0; stroke-linecap:round; stroke-linejoin:round; stroke-width:.5px;"/><line x1="207.493" y1="81.802" x2="204.804" y2="84.487" style="fill:none; stroke:#a6abb0; stroke-linecap:round; stroke-linejoin:round; stroke-width:.5px;"/><circle cx="237.274" cy="74.74" r="1.093" style="fill:none; stroke:#a6abb0; stroke-miterlimit:10; stroke-width:.5px;"/></g><g id="uuid-9a10d301-4d95-4d10-967f-670a26752910"><line x1="30.084" y1="54.708" x2="30.084" y2="132.704" style="fill:none; stroke:#f4f4f4; stroke-linecap:round; stroke-linejoin:round; stroke-width:4px;"/><line x1="30.084" y1="54.708" x2="30.084" y2="132.704" style="fill:none; stroke:#f4f4f4; stroke-linecap:round; stroke-linejoin:round; stroke-width:4px;"/><line x1="30.084" y1="54.708" x2="30.084" y2="132.704" style="fill:none; stroke:#f4f4f4; stroke-linecap:round; stroke-linejoin:round; stroke-width:4px;"/><path d="m29.471,54.312c-.199.134-.455.283-.767.448l-.819-1.326c.477-.26.906-.535,1.287-.825.382-.291.732-.613,1.053-.969h1.808v9.334h-1.846v-7.215c-.278.233-.517.418-.716.553Z" style="fill:none; stroke:#f4f4f4; stroke-linecap:round; stroke-linejoin:round; stroke-width:4px;"/><circle cx="30.43" cy="56.5" r="8.275" style="fill:none; stroke:#f4f4f4; stroke-linecap:round; stroke-linejoin:round; stroke-width:4px;"/><path d="m30.43,48.208c-3.934,0-7.124,3.189-7.124,7.124v2.337c0,3.934,3.189,7.124,7.124,7.124s7.124-3.189,7.124-7.124v-2.337c0-3.934-3.189-7.124-7.124-7.124Z" style="fill:none; stroke:#f4f4f4; stroke-linecap:round; stroke-linejoin:round; stroke-width:4px;"/><path d="m29.471,54.312c-.199.134-.455.283-.767.448l-.819-1.326c.477-.26.906-.535,1.287-.825.382-.291.732-.613,1.053-.969h1.808v9.334h-1.846v-7.215c-.278.233-.517.418-.716.553Z" style="fill:none; stroke:#f4f4f4; stroke-linecap:round; stroke-linejoin:round; stroke-width:4px;"/><line x1="30.084" y1="54.708" x2="30.084" y2="132.704" style="fill:none; stroke:#f4f4f4; stroke-linecap:round; stroke-linejoin:round; stroke-width:4px;"/><line x1="30.084" y1="54.708" x2="30.084" y2="132.704" style="fill:none; stroke:#30373e; stroke-linecap:round; stroke-linejoin:round; stroke-width:1.333px;"/><circle cx="30.43" cy="56.5" r="8.275" style="fill:#30373e; stroke-width:0px;"/><path d="m30.43,48.208c-3.934,0-7.124,3.189-7.124,7.124v2.337c0,3.934,3.189,7.124,7.124,7.124s7.124-3.189,7.124-7.124v-2.337c0-3.934-3.189-7.124-7.124-7.124Z" style="fill:#30373e; stroke-width:0px;"/><path d="m29.471,54.312c-.199.134-.455.283-.767.448l-.819-1.326c.477-.26.906-.535,1.287-.825.382-.291.732-.613,1.053-.969h1.808v9.334h-1.846v-7.215c-.278.233-.517.418-.716.553Z" style="fill:#f4f4f4; stroke-width:0px;"/><line x1="49.844" y1="54.708" x2="49.844" y2="136.125" style="fill:none; stroke:#f4f4f4; stroke-linecap:round; stroke-linejoin:round; stroke-width:4px;"/><line x1="49.844" y1="54.708" x2="49.844" y2="136.125" style="fill:none; stroke:#f4f4f4; stroke-linecap:round; stroke-linejoin:round; stroke-width:4px;"/><line x1="49.844" y1="54.708" x2="49.844" y2="136.125" style="fill:none; stroke:#f4f4f4; stroke-linecap:round; stroke-linejoin:round; stroke-width:4px;"/><path d="m46.703,59.506l3.236-3.029c.304-.277.56-.544.768-.8.208-.255.368-.496.48-.721.112-.226.169-.438.169-.638v-.117c0-.312-.119-.567-.357-.767s-.539-.299-.903-.299c-.52,0-.919.112-1.196.338s-.459.611-.546,1.157l-1.638-.521c.139-.832.507-1.476,1.104-1.931.599-.454,1.356-.682,2.275-.682.581,0,1.105.104,1.573.312s.838.512,1.111.91.409.871.409,1.417c0,.45-.089.882-.267,1.293-.178.412-.405.789-.682,1.132-.278.342-.594.674-.949.994l-2.002,1.794h3.965v1.625h-6.552v-1.469Z" style="fill:none; stroke:#f4f4f4; stroke-linecap:round; stroke-linejoin:round; stroke-width:4px;"/><circle cx="50.19" cy="56.5" r="8.275" style="fill:none; stroke:#f4f4f4; stroke-linecap:round; stroke-linejoin:round; stroke-width:4px;"/><path d="m50.19,48.208c-4.462,0-8.079,3.617-8.079,8.079v.425c0,4.462,3.617,8.079,8.079,8.079s8.079-3.617,8.079-8.079v-.425c0-4.462-3.617-8.079-8.079-8.079Z" style="fill:none; stroke:#f4f4f4; stroke-linecap:round; stroke-linejoin:round; stroke-width:4px;"/><path d="m46.703,59.506l3.236-3.029c.304-.277.56-.544.768-.8.208-.255.368-.496.48-.721.112-.226.169-.438.169-.638v-.117c0-.312-.119-.567-.357-.767s-.539-.299-.903-.299c-.52,0-.919.112-1.196.338s-.459.611-.546,1.157l-1.638-.521c.139-.832.507-1.476,1.104-1.931.599-.454,1.356-.682,2.275-.682.581,0,1.105.104,1.573.312s.838.512,1.111.91.409.871.409,1.417c0,.45-.089.882-.267,1.293-.178.412-.405.789-.682,1.132-.278.342-.594.674-.949.994l-2.002,1.794h3.965v1.625h-6.552v-1.469Z" style="fill:none; stroke:#f4f4f4; stroke-linecap:round; stroke-linejoin:round; stroke-width:4px;"/><line x1="49.844" y1="54.708" x2="49.844" y2="136.125" style="fill:none; stroke:#f4f4f4; stroke-linecap:round; stroke-linejoin:round; stroke-width:4px;"/><line x1="49.844" y1="54.708" x2="49.844" y2="136.125" style="fill:none; stroke:#30373e; stroke-linecap:round; stroke-linejoin:round; stroke-width:1.333px;"/><circle cx="50.19" cy="56.5" r="8.275" style="fill:#30373e; stroke-width:0px;"/><path d="m50.19,48.208c-4.462,0-8.079,3.617-8.079,8.079v.425c0,4.462,3.617,8.079,8.079,8.079s8.079-3.617,8.079-8.079v-.425c0-4.462-3.617-8.079-8.079-8.079Z" style="fill:#30373e; stroke-width:0px;"/><path d="m46.703,59.506l3.236-3.029c.304-.277.56-.544.768-.8.208-.255.368-.496.48-.721.112-.226.169-.438.169-.638v-.117c0-.312-.119-.567-.357-.767s-.539-.299-.903-.299c-.52,0-.919.112-1.196.338s-.459.611-.546,1.157l-1.638-.521c.139-.832.507-1.476,1.104-1.931.599-.454,1.356-.682,2.275-.682.581,0,1.105.104,1.573.312s.838.512,1.111.91.409.871.409,1.417c0,.45-.089.882-.267,1.293-.178.412-.405.789-.682,1.132-.278.342-.594.674-.949.994l-2.002,1.794h3.965v1.625h-6.552v-1.469Z" style="fill:#f4f4f4; stroke-width:0px;"/><line x1="313.709" y1="236.69" x2="313.709" y2="107.008" style="fill:none; stroke:#f4f4f4; stroke-linecap:round; stroke-linejoin:round; stroke-width:4px;"/><line x1="313.709" y1="236.69" x2="313.709" y2="107.008" style="fill:none; stroke:#f4f4f4; stroke-linecap:round; stroke-linejoin:round; stroke-width:4px;"/><line x1="313.709" y1="236.69" x2="313.709" y2="107.008" style="fill:none; stroke:#f4f4f4; stroke-linecap:round; stroke-linejoin:round; stroke-width:4px;"/><path d="m314.475,240.876h-4.342v-1.339l4.251-5.915h1.82v5.668h1.273v1.586h-1.273v2.08h-1.729v-2.08Zm0-1.586v-3.159l-2.274,3.159h2.274Z" style="fill:none; stroke:#f4f4f4; stroke-linecap:round; stroke-linejoin:round; stroke-width:4px;"/><circle cx="314.055" cy="238.481" r="8.275" style="fill:none; stroke:#f4f4f4; stroke-linecap:round; stroke-linejoin:round; stroke-width:4px;"/><path d="m314.055,230.189c-4.53,0-8.202,3.672-8.202,8.202v.179c0,4.53,3.672,8.202,8.202,8.202s8.202-3.672,8.202-8.202v-.179c0-4.53-3.672-8.202-8.202-8.202Z" style="fill:none; stroke:#f4f4f4; stroke-linecap:round; stroke-linejoin:round; stroke-width:4px;"/><path d="m314.475,240.876h-4.342v-1.339l4.251-5.915h1.82v5.668h1.273v1.586h-1.273v2.08h-1.729v-2.08Zm0-1.586v-3.159l-2.274,3.159h2.274Z" style="fill:none; stroke:#f4f4f4; stroke-linecap:round; stroke-linejoin:round; stroke-width:4px;"/><line x1="313.709" y1="236.69" x2="313.709" y2="107.008" style="fill:none; stroke:#f4f4f4; stroke-linecap:round; stroke-linejoin:round; stroke-width:4px;"/><line x1="313.709" y1="236.69" x2="313.709" y2="107.008" style="fill:none; stroke:#30373e; stroke-linecap:round; stroke-linejoin:round; stroke-width:1.333px;"/><circle cx="314.055" cy="238.481" r="8.275" style="fill:#30373e; stroke-width:0px;"/><path d="m314.055,230.189c-4.53,0-8.202,3.672-8.202,8.202v.179c0,4.53,3.672,8.202,8.202,8.202s8.202-3.672,8.202-8.202v-.179c0-4.53-3.672-8.202-8.202-8.202Z" style="fill:#30373e; stroke-width:0px;"/><path d="m314.475,240.876h-4.342v-1.339l4.251-5.915h1.82v5.668h1.273v1.586h-1.273v2.08h-1.729v-2.08Zm0-1.586v-3.159l-2.274,3.159h2.274Z" style="fill:#f4f4f4; stroke-width:0px;"/><polyline points="247.855 18.263 247.855 65.124 240.622 72.357" style="fill:none; stroke:#f4f4f4; stroke-linecap:round; stroke-linejoin:round; stroke-width:4px;"/><polyline points="247.855 18.263 247.855 65.124 240.622 72.357" style="fill:none; stroke:#f4f4f4; stroke-linecap:round; stroke-linejoin:round; stroke-width:4px;"/><polyline points="247.855 18.263 247.855 65.124 240.622 72.357" style="fill:none; stroke:#f4f4f4; stroke-linecap:round; stroke-linejoin:round; stroke-width:4px;"/><path d="m245.884,24.198c-.542-.316-1.008-.787-1.397-1.411l1.442-1.04c.243.442.51.759.8.949s.652.286,1.086.286c.468,0,.87-.093,1.209-.279.338-.187.507-.475.507-.865v-.155c0-.442-.149-.757-.449-.942-.299-.187-.804-.28-1.514-.28h-.65v-1.56h.624c.528,0,.96-.078,1.294-.234.333-.155.5-.45.5-.884v-.143c0-.312-.146-.544-.436-.696-.29-.151-.626-.228-1.008-.228-.363,0-.69.094-.981.28-.29.187-.53.461-.721.825l-1.365-.819c.312-.667.728-1.158,1.248-1.476.52-.315,1.152-.474,1.897-.474.91,0,1.653.216,2.229.649s.865,1.079.865,1.938c0,.45-.092.838-.273,1.163s-.438.592-.767.8c.416.217.729.494.942.832.212.338.318.754.318,1.248,0,.642-.158,1.188-.475,1.638-.316.451-.739.789-1.268,1.014-.528.226-1.109.338-1.742.338-.736,0-1.376-.157-1.917-.474Z" style="fill:none; stroke:#f4f4f4; stroke-linecap:round; stroke-linejoin:round; stroke-width:4px;"/><circle cx="248.201" cy="20.054" r="8.275" style="fill:none; stroke:#f4f4f4; stroke-linecap:round; stroke-linejoin:round; stroke-width:4px;"/><path d="m248.201,11.762c-4.451,0-8.06,3.608-8.06,8.06v.464c0,4.451,3.609,8.06,8.06,8.06s8.06-3.608,8.06-8.06v-.464c0-4.451-3.609-8.06-8.06-8.06Z" style="fill:none; stroke:#f4f4f4; stroke-linecap:round; stroke-linejoin:round; stroke-width:4px;"/><path d="m245.884,24.198c-.542-.316-1.008-.787-1.397-1.411l1.442-1.04c.243.442.51.759.8.949s.652.286,1.086.286c.468,0,.87-.093,1.209-.279.338-.187.507-.475.507-.865v-.155c0-.442-.149-.757-.449-.942-.299-.187-.804-.28-1.514-.28h-.65v-1.56h.624c.528,0,.96-.078,1.294-.234.333-.155.5-.45.5-.884v-.143c0-.312-.146-.544-.436-.696-.29-.151-.626-.228-1.008-.228-.363,0-.69.094-.981.28-.29.187-.53.461-.721.825l-1.365-.819c.312-.667.728-1.158,1.248-1.476.52-.315,1.152-.474,1.897-.474.91,0,1.653.216,2.229.649s.865,1.079.865,1.938c0,.45-.092.838-.273,1.163s-.438.592-.767.8c.416.217.729.494.942.832.212.338.318.754.318,1.248,0,.642-.158,1.188-.475,1.638-.316.451-.739.789-1.268,1.014-.528.226-1.109.338-1.742.338-.736,0-1.376-.157-1.917-.474Z" style="fill:none; stroke:#f4f4f4; stroke-linecap:round; stroke-linejoin:round; stroke-width:4px;"/><polyline points="247.855 18.263 247.855 65.124 240.622 72.357" style="fill:none; stroke:#f4f4f4; stroke-linecap:round; stroke-linejoin:round; stroke-width:4px;"/><polyline points="247.855 18.263 247.855 65.124 240.622 72.357" style="fill:none; stroke:#30373e; stroke-linecap:round; stroke-linejoin:round; stroke-width:1.333px;"/><circle cx="248.201" cy="20.054" r="8.275" style="fill:#30373e; stroke-width:0px;"/><path d="m248.201,11.762c-4.451,0-8.06,3.608-8.06,8.06v.464c0,4.451,3.609,8.06,8.06,8.06s8.06-3.608,8.06-8.06v-.464c0-4.451-3.609-8.06-8.06-8.06Z" style="fill:#30373e; stroke-width:0px;"/><path d="m245.884,24.198c-.542-.316-1.008-.787-1.397-1.411l1.442-1.04c.243.442.51.759.8.949s.652.286,1.086.286c.468,0,.87-.093,1.209-.279.338-.187.507-.475.507-.865v-.155c0-.442-.149-.757-.449-.942-.299-.187-.804-.28-1.514-.28h-.65v-1.56h.624c.528,0,.96-.078,1.294-.234.333-.155.5-.45.5-.884v-.143c0-.312-.146-.544-.436-.696-.29-.151-.626-.228-1.008-.228-.363,0-.69.094-.981.28-.29.187-.53.461-.721.825l-1.365-.819c.312-.667.728-1.158,1.248-1.476.52-.315,1.152-.474,1.897-.474.91,0,1.653.216,2.229.649s.865,1.079.865,1.938c0,.45-.092.838-.273,1.163s-.438.592-.767.8c.416.217.729.494.942.832.212.338.318.754.318,1.248,0,.642-.158,1.188-.475,1.638-.316.451-.739.789-1.268,1.014-.528.226-1.109.338-1.742.338-.736,0-1.376-.157-1.917-.474Z" style="fill:#f4f4f4; stroke-width:0px;"/><polyline points="187.896 18.263 187.896 63.967 204.575 80.645" style="fill:none; stroke:#f4f4f4; stroke-linecap:round; stroke-linejoin:round; stroke-width:4px;"/><polyline points="187.896 18.263 187.896 63.967 204.575 80.645" style="fill:none; stroke:#f4f4f4; stroke-linecap:round; stroke-linejoin:round; stroke-width:4px;"/><polyline points="187.896 18.263 187.896 63.967 204.575 80.645" style="fill:none; stroke:#f4f4f4; stroke-linecap:round; stroke-linejoin:round; stroke-width:4px;"/><path d="m184.527,22.774l1.442-1.027c.286.442.576.759.871.949s.646.286,1.053.286c.512,0,.908-.128,1.189-.384.282-.255.423-.63.423-1.124v-.144c0-.468-.135-.81-.403-1.026s-.654-.325-1.156-.325c-.277,0-.529.032-.754.098-.226.064-.478.18-.755.344l-1.286-.338.649-4.875h5.109v1.703h-3.602l-.208,1.573c.174-.052.35-.091.527-.117.177-.026.365-.039.565-.039.649,0,1.211.128,1.684.384.472.256.834.611,1.085,1.065.251.455.377.978.377,1.567,0,.667-.154,1.252-.461,1.755-.309.502-.73.891-1.268,1.163-.538.273-1.14.409-1.808.409-1.369,0-2.461-.632-3.275-1.897Z" style="fill:none; stroke:#f4f4f4; stroke-linecap:round; stroke-linejoin:round; stroke-width:4px;"/><circle cx="188.241" cy="20.054" r="8.275" style="fill:none; stroke:#f4f4f4; stroke-linecap:round; stroke-linejoin:round; stroke-width:4px;"/><path d="m188.241,11.762c-4.473,0-8.098,3.626-8.098,8.098v.387c0,4.473,3.626,8.098,8.098,8.098s8.098-3.626,8.098-8.098v-.387c0-4.473-3.626-8.098-8.098-8.098Z" style="fill:none; stroke:#f4f4f4; stroke-linecap:round; stroke-linejoin:round; stroke-width:4px;"/><path d="m184.527,22.774l1.442-1.027c.286.442.576.759.871.949s.646.286,1.053.286c.512,0,.908-.128,1.189-.384.282-.255.423-.63.423-1.124v-.144c0-.468-.135-.81-.403-1.026s-.654-.325-1.156-.325c-.277,0-.529.032-.754.098-.226.064-.478.18-.755.344l-1.286-.338.649-4.875h5.109v1.703h-3.602l-.208,1.573c.174-.052.35-.091.527-.117.177-.026.365-.039.565-.039.649,0,1.211.128,1.684.384.472.256.834.611,1.085,1.065.251.455.377.978.377,1.567,0,.667-.154,1.252-.461,1.755-.309.502-.73.891-1.268,1.163-.538.273-1.14.409-1.808.409-1.369,0-2.461-.632-3.275-1.897Z" style="fill:none; stroke:#f4f4f4; stroke-linecap:round; stroke-linejoin:round; stroke-width:4px;"/><polyline points="187.896 18.263 187.896 63.967 204.575 80.645" style="fill:none; stroke:#f4f4f4; stroke-linecap:round; stroke-linejoin:round; stroke-width:4px;"/><polyline points="187.896 18.263 187.896 63.967 204.575 80.645" style="fill:none; stroke:#30373e; stroke-linecap:round; stroke-linejoin:round; stroke-width:1.333px;"/><circle cx="188.241" cy="20.054" r="8.275" style="fill:#30373e; stroke-width:0px;"/><path d="m188.241,11.762c-4.473,0-8.098,3.626-8.098,8.098v.387c0,4.473,3.626,8.098,8.098,8.098s8.098-3.626,8.098-8.098v-.387c0-4.473-3.626-8.098-8.098-8.098Z" style="fill:#30373e; stroke-width:0px;"/><path d="m184.527,22.774l1.442-1.027c.286.442.576.759.871.949s.646.286,1.053.286c.512,0,.908-.128,1.189-.384.282-.255.423-.63.423-1.124v-.144c0-.468-.135-.81-.403-1.026s-.654-.325-1.156-.325c-.277,0-.529.032-.754.098-.226.064-.478.18-.755.344l-1.286-.338.649-4.875h5.109v1.703h-3.602l-.208,1.573c.174-.052.35-.091.527-.117.177-.026.365-.039.565-.039.649,0,1.211.128,1.684.384.472.256.834.611,1.085,1.065.251.455.377.978.377,1.567,0,.667-.154,1.252-.461,1.755-.309.502-.73.891-1.268,1.163-.538.273-1.14.409-1.808.409-1.369,0-2.461-.632-3.275-1.897Z" style="fill:#f4f4f4; stroke-width:0px;"/><polyline points="222.352 18.263 222.352 70.877 229.371 77.896" style="fill:none; stroke:#f4f4f4; stroke-linecap:round; stroke-linejoin:round; stroke-width:4px;"/><polyline points="222.352 18.263 222.352 70.877 229.371 77.896" style="fill:none; stroke:#f4f4f4; stroke-linecap:round; stroke-linejoin:round; stroke-width:4px;"/><polyline points="222.352 18.263 222.352 70.877 229.371 77.896" style="fill:none; stroke:#f4f4f4; stroke-linecap:round; stroke-linejoin:round; stroke-width:4px;"/><path d="m220.666,24.263c-.507-.265-.898-.642-1.176-1.131s-.416-1.06-.416-1.71c0-.441.071-.879.214-1.312.144-.434.384-.944.722-1.534.528-.91,1.36-2.036,2.496-3.38h2.262l-.715.871c-.364.441-.711.862-1.04,1.261s-.598.75-.806,1.053c.173-.034.372-.052.598-.052.599,0,1.131.135,1.6.403.468.269.829.642,1.085,1.118s.384,1.014.384,1.611c0,.65-.147,1.218-.442,1.703s-.704.856-1.229,1.111c-.524.256-1.12.384-1.787.384-.659,0-1.241-.132-1.749-.396Zm2.965-1.632c.299-.251.448-.61.448-1.078v-.183c0-.477-.146-.838-.436-1.085-.291-.247-.679-.371-1.164-.371s-.886.122-1.202.364c-.316.243-.475.606-.475,1.092v.183c0,.477.146.838.436,1.085s.687.37,1.189.37.903-.125,1.203-.377Z" style="fill:none; stroke:#f4f4f4; stroke-linecap:round; stroke-linejoin:round; stroke-width:4px;"/><circle cx="222.697" cy="20.054" r="8.275" style="fill:none; stroke:#f4f4f4; stroke-linecap:round; stroke-linejoin:round; stroke-width:4px;"/><path d="m222.697,11.762c-4.516,0-8.176,3.661-8.176,8.176v.231c0,4.516,3.661,8.176,8.176,8.176s8.176-3.661,8.176-8.176v-.231c0-4.516-3.661-8.176-8.176-8.176Z" style="fill:none; stroke:#f4f4f4; stroke-linecap:round; stroke-linejoin:round; stroke-width:4px;"/><path d="m220.666,24.263c-.507-.265-.898-.642-1.176-1.131s-.416-1.06-.416-1.71c0-.441.071-.879.214-1.312.144-.434.384-.944.722-1.534.528-.91,1.36-2.036,2.496-3.38h2.262l-.715.871c-.364.441-.711.862-1.04,1.261s-.598.75-.806,1.053c.173-.034.372-.052.598-.052.599,0,1.131.135,1.6.403.468.269.829.642,1.085,1.118s.384,1.014.384,1.611c0,.65-.147,1.218-.442,1.703s-.704.856-1.229,1.111c-.524.256-1.12.384-1.787.384-.659,0-1.241-.132-1.749-.396Zm2.965-1.632c.299-.251.448-.61.448-1.078v-.183c0-.477-.146-.838-.436-1.085-.291-.247-.679-.371-1.164-.371s-.886.122-1.202.364c-.316.243-.475.606-.475,1.092v.183c0,.477.146.838.436,1.085s.687.37,1.189.37.903-.125,1.203-.377Z" style="fill:none; stroke:#f4f4f4; stroke-linecap:round; stroke-linejoin:round; stroke-width:4px;"/><polyline points="222.352 18.263 222.352 70.877 229.371 77.896" style="fill:none; stroke:#f4f4f4; stroke-linecap:round; stroke-linejoin:round; stroke-width:4px;"/><polyline points="222.352 18.263 222.352 70.877 229.371 77.896" style="fill:none; stroke:#30373e; stroke-linecap:round; stroke-linejoin:round; stroke-width:1.333px;"/><circle cx="222.697" cy="20.054" r="8.275" style="fill:#30373e; stroke-width:0px;"/><path d="m222.697,11.762c-4.516,0-8.176,3.661-8.176,8.176v.231c0,4.516,3.661,8.176,8.176,8.176s8.176-3.661,8.176-8.176v-.231c0-4.516-3.661-8.176-8.176-8.176Z" style="fill:#30373e; stroke-width:0px;"/><path d="m220.666,24.263c-.507-.265-.898-.642-1.176-1.131s-.416-1.06-.416-1.71c0-.441.071-.879.214-1.312.144-.434.384-.944.722-1.534.528-.91,1.36-2.036,2.496-3.38h2.262l-.715.871c-.364.441-.711.862-1.04,1.261s-.598.75-.806,1.053c.173-.034.372-.052.598-.052.599,0,1.131.135,1.6.403.468.269.829.642,1.085,1.118s.384,1.014.384,1.611c0,.65-.147,1.218-.442,1.703s-.704.856-1.229,1.111c-.524.256-1.12.384-1.787.384-.659,0-1.241-.132-1.749-.396Zm2.965-1.632c.299-.251.448-.61.448-1.078v-.183c0-.477-.146-.838-.436-1.085-.291-.247-.679-.371-1.164-.371s-.886.122-1.202.364c-.316.243-.475.606-.475,1.092v.183c0,.477.146.838.436,1.085s.687.37,1.189.37.903-.125,1.203-.377Z" style="fill:#f4f4f4; stroke-width:0px;"/></g></svg>