<?xml version="1.0" encoding="UTF-8"?><svg xmlns="http://www.w3.org/2000/svg" width="218" height="140.006" viewBox="0 0 218 140.006"><g id="uuid-cf9666b4-f534-4671-8d16-fb2b4f3b9126"><path d="m42.098,80.832c-3.899.004-7.532-.311-7.871-1.57l4.068-.162c.257-.01.496-.135.652-.339l3.212-4.213c.1-.131.146-.296.127-.46-.25-2.212-2.043-18.13-2.401-21.878-.385-4.03-.444-7.348.059-11.644.504-4.296.919-4.118,2.341-5.244s19.822-16.505,19.822-16.505" style="fill:none; stroke:#a6abb0; stroke-linecap:round; stroke-linejoin:round; stroke-width:.5px;"/><path d="m174.658,80.832c3.899.004,7.532-.311,7.871-1.57l-4.068-.162c-.257-.01-.496-.135-.652-.339l-3.212-4.213c-.1-.131-.146-.296-.127-.46.25-2.212,2.043-18.13,2.401-21.878.385-4.03.444-7.348-.059-11.644-.504-4.296-.919-4.118-2.341-5.244s-19.822-16.505-19.822-16.505" style="fill:none; stroke:#a6abb0; stroke-linecap:round; stroke-linejoin:round; stroke-width:.5px;"/><polyline points="108.378 95.373 105.996 95.373 104.87 96.573 91.537 96.573 90.717 95.672 84.924 95.672 84.248 96.573 71.201 96.573 70.372 95.648 64.304 95.648 63.938 96.573 50.974 96.573 50.066 95.71 44.097 95.71 43.587 96.573 31.386 96.573" style="fill:none; stroke:#a6abb0; stroke-linecap:round; stroke-linejoin:round; stroke-width:.5px;"/><g id="uuid-d5dca2eb-151f-4738-a228-e589e08a1142"><path d="m33.73,92.629c-2.425,0-4.029.061-5.151.642-.504.261-.901.62-1.237,1.096l-4.037,5.754" style="fill:none; stroke:#a6abb0; stroke-linecap:round; stroke-linejoin:round; stroke-width:.5px;"/><path d="m33.73,92.879c-2.445,0-3.98.067-5.036.614-.465.241-.833.572-1.147,1.017l-4.037,5.754" style="fill:none; stroke:#a6abb0; stroke-linecap:round; stroke-linejoin:round; stroke-width:.5px;"/></g><path d="m33.73,93.129c-3.526,0-5.007.148-5.978,1.525l-4.037,5.754" style="fill:none; stroke:#a6abb0; stroke-linecap:round; stroke-linejoin:round; stroke-width:.5px;"/><path d="m20.764,30.783c-.432,1.215,0,1.514,3.194,1.855.206.022.415-.024.593-.13l1.703-1.022c.198-.119.421-.189.651-.206l5.331-.392c.157-.012.309-.062.442-.146l29.04-18.403h46.661" style="fill:none; stroke:#a6abb0; stroke-linecap:round; stroke-linejoin:round; stroke-width:.5px;"/><path d="m24.287,32.616c-.284,1.375-.65,3.194-.848,4.384-.356,2.133-.316,5.017-.158,7.585s.237,6.084.83,11.457c.593,5.373.988,8.691,1.501,12.602.514,3.911,1.106,7.19,2.133,11.536.59,2.496,1.349,5.469,1.889,7.547l.718,2.764,1.106,1.106c-2.484-.06-4.605.651-5.487.999-.27.107-.579.039-.779-.172l-1.279-1.341" style="fill:none; stroke:#a6abb0; stroke-linecap:round; stroke-linejoin:round; stroke-width:.5px;"/><path d="m29.634,87.728s2.257-3.379,2.506-3.751.551-.534.888-.562,7.714-.627,7.714-.627" style="fill:none; stroke:#a6abb0; stroke-linecap:round; stroke-linejoin:round; stroke-width:.5px;"/><path d="m61.794,12.339l.46,7.24c.037.575-.19,1.135-.615,1.523l-3.062,2.794c-.433.395-.659.968-.613,1.552l1.172,14.778" style="fill:none; stroke:#a6abb0; stroke-linecap:round; stroke-linejoin:round; stroke-width:.5px;"/><path d="m53.848,38.048c.682-.525,1.007-.326,2.37.148s1.778.741,2.548,1.63,1.659,1.896,2.252,2.607,1.156,1.807,1.63,3.141.593,1.244-.059,2.163-5.185,7.467-5.63,7.97-.622.8-1.541,1.067-2.888.822-3.704,1.037c-.563.148-1.837.237-2.518.237h-1.939" style="fill:none; stroke:#a6abb0; stroke-linecap:round; stroke-linejoin:round; stroke-width:.5px;"/><path d="m41.346,65.692s4.947-6.133,5.48-6.785.504-1.215.681-2.815.919-7.585,1.244-9.778,1.215-4.741,2.222-5.778,2.192-1.964,2.874-2.489" style="fill:none; stroke:#a6abb0; stroke-linecap:round; stroke-linejoin:round; stroke-width:.5px;"/><polyline points="62.111 44.247 66.737 44.625 108.408 44.625" style="fill:none; stroke:#a6abb0; stroke-linecap:round; stroke-linejoin:round; stroke-width:.5px;"/><path d="m60.335,54.154l7.868-.705.714-1.227,3.432-.093.794.783,4.802-.346c.38-.027.761-.041,1.142-.041h2.102l.332-.796,3.63.009.678.787h7.769l.332-.475,3.622-.021.7.497h7.908l.664-.537h1.536" style="fill:none; stroke:#a6abb0; stroke-linecap:round; stroke-linejoin:round; stroke-width:.5px;"/><path d="m43.848,78.261h10.208l.504-.903h4.553l1.142.903h6.51c.072,0,.139.036.178.097s.045.137.016.202l-.233.521c-.028.062-.024.134.01.193s.095.098.163.105l3.658.366.238-.654,4.781.478,1.086.786,10.803,1.08.515-.315,4.842.484.912.458.737.074h13.908" style="fill:none; stroke:#a6abb0; stroke-linecap:round; stroke-linejoin:round; stroke-width:.5px;"/><path d="m108.378,38.403h-35.74c-1.575,0-2.88-1.223-2.98-2.795l-.848-13.207c-.056-.875.252-1.734.852-2.373s1.437-1.002,2.314-1.002h36.403" style="fill:none; stroke:#a6abb0; stroke-linecap:round; stroke-linejoin:round; stroke-width:.5px;"/><path d="m31.171,40.725c-.239.179-.529.272-.828.264l-3.32-.085c-.245-.006-.44-.208-.437-.453l.01-.999c.001-.12.051-.235.137-.318s.203-.129.323-.126l3.243.083c.298.008.589-.085.828-.264l.366-.275c.463-.348.616-.161.612.542-.004.662.082.867-.427,1.249l-.509.382Z" style="fill:none; stroke:#a6abb0; stroke-linecap:round; stroke-linejoin:round; stroke-width:.5px;"/><path d="m185.584,40.725c.239.179.529.272.828.264l3.32-.085c.245-.006.44-.208.437-.453l-.01-.999c-.001-.12-.051-.235-.137-.318s-.203-.129-.323-.126l-3.243.083c-.298.008-.589-.085-.828-.264l-.366-.275c-.463-.348-.616-.161-.612.542.004.662-.082.867.427,1.249l.509.382Z" style="fill:none; stroke:#a6abb0; stroke-linecap:round; stroke-linejoin:round; stroke-width:.5px;"/><path d="m30.761,39.021l-.029-4.732c-.002-.349.172-.676.464-.869l30.704-19.792h46.478" style="fill:none; stroke:#a6abb0; stroke-linecap:round; stroke-linejoin:round; stroke-width:.5px;"/><path d="m23.434,47.499c-3.587-.165-6.783-1.055-8.233-2.076" style="fill:none; stroke:#a6abb0; stroke-linecap:round; stroke-linejoin:round; stroke-width:.5px;"/><path d="m16.256,57.121c1.412,1.29,4.821,2.626,8.316,3.035" style="fill:none; stroke:#a6abb0; stroke-linecap:round; stroke-linejoin:round; stroke-width:.5px;"/><line x1="29.634" y1="87.728" x2="36.71" y2="88.75" style="fill:none; stroke:#a6abb0; stroke-linecap:round; stroke-linejoin:round; stroke-width:.5px;"/><path d="m36.082,89.672l-.278-1.053,2.278-3.41c.301-.451.129-.644-.438-.623-.356.014-3.197.094-4.341.126-.297.008-.573.161-.738.408l-1.846,2.764.394,1.459,4.727.683" style="fill:none; stroke:#a6abb0; stroke-linecap:round; stroke-linejoin:round; stroke-width:.5px;"/><line x1="31.458" y1="91.598" x2="32.632" y2="89.563" style="fill:none; stroke:#a6abb0; stroke-linecap:round; stroke-linejoin:round; stroke-width:.5px;"/><line x1="14.682" y1="115.62" x2="108.285" y2="115.62" style="fill:none; stroke:#a6abb0; stroke-linecap:round; stroke-linejoin:round; stroke-width:.5px;"/><line x1="17.648" y1="109.264" x2="22.605" y2="109.477" style="fill:none; stroke:#a6abb0; stroke-linecap:round; stroke-linejoin:round; stroke-width:.5px;"/><path d="m56.071,3.389l-1.578,6.593s10.608.157,53.885.157" style="fill:none; stroke:#a6abb0; stroke-linecap:round; stroke-linejoin:round; stroke-width:.5px;"/><path d="m108.378,8.588c-21.423,0-50.704-.418-53.441-.458" style="fill:none; stroke:#a6abb0; stroke-linecap:round; stroke-linejoin:round; stroke-width:.5px;"/><line x1="57.895" y1="8.172" x2="58.762" y2="3.389" style="fill:none; stroke:#a6abb0; stroke-linecap:round; stroke-linejoin:round; stroke-width:.5px;"/><line x1="57.895" y1="8.172" x2="55.205" y2="7.006" style="fill:none; stroke:#a6abb0; stroke-linecap:round; stroke-linejoin:round; stroke-width:.5px;"/><line x1="52.08" y1="11.243" x2="54.493" y2="9.982" style="fill:none; stroke:#a6abb0; stroke-linecap:round; stroke-linejoin:round; stroke-width:.5px;"/><path d="m108.377,121.698H13.244c-3.161,0-3.95-2.09-3.95-2.09,0,0,1.626-1.112,4.123-1.112h94.961" style="fill:none; stroke:#a6abb0; stroke-linecap:round; stroke-linejoin:round; stroke-width:.5px;"/><line x1="4.107" y1="119.608" x2="9.294" y2="119.608" style="fill:none; stroke:#a6abb0; stroke-linecap:round; stroke-linejoin:round; stroke-width:.5px;"/><polyline points="42.098 80.832 66.737 44.625 64.616 11.122 66.31 10.04 66.31 8.51" style="fill:none; stroke:#a6abb0; stroke-linecap:round; stroke-linejoin:round; stroke-width:.5px;"/><path d="m17.947,111.755c1.123-.127,3.469-.531,4.282-1.726l19.869-29.196" style="fill:none; stroke:#a6abb0; stroke-linecap:round; stroke-linejoin:round;"/><path d="m172.896,78.244l21.63,31.785c.785,1.154,3.002,1.57,4.164,1.712" style="fill:none; stroke:#a6abb0; stroke-linecap:round; stroke-linejoin:round;"/><polyline points="150.446 8.51 150.446 10.04 152.139 11.122 150.019 44.625 172.896 78.244" style="fill:none; stroke:#a6abb0; stroke-linecap:round; stroke-linejoin:round; stroke-width:.5px;"/><g id="uuid-81a11b56-6ea5-434b-9d6a-ecba4c56795d"><path d="m53.368,2.8l-2.138,7.765c-4.808,2.584-22.264,11.978-29.703,17.391-.913.664-1.148,1.209-1.505,2.031-.036.083-.074.169-.113.26-4.275,5.037-6.48,7.621-6.438,11.368.009.792.031,1.646.064,2.545.018.494.172.97.44,1.377-.231.433-.338.919-.311,1.409.151,2.772.374,5.798.623,8.709.052.613.313,1.19.741,1.634l.056.059-.282.693c-.164.404-.226.836-.185,1.266.261,2.733.529,5.204.757,7.052.691,5.607.957,6.417,2.931,12.368.087.263.178.537.272.822,1.905,5.749,3.784,10.399,4.284,11.614-1.168,4.657-1.057,5.398-.434,8.085.067.29.14.602.216.947l-5.66,8.067c-.147.209-.249.444-.302.689s-.058.501-.012.752l.237,1.283c-.015.008-.029.016-.043.024-.208.12-.39.286-.534.49l-2.855,4.099c-.008.012-.017.025-.025.037-.003,0-.007.002-.015.007-.037.024-.16.092-.427.105-.395.019-1.749.067-3.156.117-1.47.052-2.996.106-3.478.13-.215.011-.424.066-.612.159s-.359.226-.498.391l-1.806,2.148c-.152.181-.259.392-.316.615s-.064.459-.017.691l1.119,5.493c.078.381.264.721.526.985s.6.455.98.536c18.624,3.983,52.452,9.74,102.624,9.74,50.173,0,84-5.757,102.624-9.74.38-.081.718-.272.98-.536s.449-.604.526-.985l1.119-5.493c.047-.232.04-.468-.017-.691s-.164-.434-.316-.615l-1.806-2.148c-.139-.165-.309-.297-.498-.391s-.397-.149-.612-.159c-.482-.024-2.007-.078-3.478-.13-1.406-.05-2.76-.098-3.156-.117-.267-.013-.39-.081-.427-.105-.008-.005-.012-.007-.015-.007-.008-.012-.016-.025-.025-.037,0,0-2.853-4.099-2.856-4.102-.142-.202-.324-.367-.532-.488-.014-.008-.028-.016-.043-.024l.237-1.283c.047-.252.042-.507-.012-.752s-.155-.48-.302-.689l-5.66-8.067c.077-.345.149-.657.216-.947.623-2.686.734-3.428-.434-8.085.5-1.215,2.379-5.865,4.284-11.614.094-.285.185-.558.272-.822,1.974-5.951,2.24-6.761,2.931-12.368.228-1.848.495-4.319.757-7.052.041-.428-.021-.864-.185-1.266l-.282-.693.056-.059c.428-.444.688-1.02.741-1.634.249-2.912.473-5.937.623-8.709.027-.489-.081-.976-.311-1.409.268-.407.422-.883.44-1.377.033-.899.055-1.753.064-2.545.043-3.748-2.163-6.331-6.438-11.368-.04-.091-.077-.177-.113-.26-.357-.822-.592-1.367-1.505-2.031-7.439-5.413-24.895-14.807-29.703-17.391l-2.138-7.765" style="fill:none; stroke:#a6abb0; stroke-linecap:round; stroke-linejoin:round; stroke-width:.5px;"/><path d="m53.609,2.866l-2.167,7.868c-4.677,2.513-22.298,11.987-29.769,17.423-.857.624-1.071,1.118-1.423,1.928-.04.093-.083.191-.129.295-4.313,5.082-6.443,7.59-6.402,11.232.009.789.031,1.641.064,2.538.018.499.189.977.486,1.372l-.022.037c-.246.416-.361.891-.335,1.372.15,2.769.374,5.792.623,8.702.048.556.284,1.079.672,1.482l.169.176-.343.844c-.149.366-.205.757-.167,1.148.261,2.731.528,5.2.756,7.045.689,5.586.95,6.379,2.92,12.32.087.263.178.537.272.822,1.946,5.872,3.864,10.593,4.309,11.673-1.183,4.702-1.068,5.395-.453,8.047.074.319.155.667.241,1.057l-5.723,8.157c-.128.182-.216.386-.262.599s-.051.435-.01.654l.273,1.473c-.069.027-.135.059-.199.096-.177.102-.332.243-.454.417l-2.855,4.099c-.017.024-.032.049-.046.075-.005.001-.022.01-.064.036-.076.049-.241.129-.55.145-.397.019-1.754.068-3.159.118-1.472.052-2.995.106-3.474.13-.181.009-.355.055-.514.134s-.301.189-.417.328l-1.806,2.148c-.128.152-.217.328-.265.516s-.054.385-.014.579l1.119,5.493c.068.332.231.628.459.859s.523.397.855.468c18.61,3.98,52.419,9.735,102.572,9.735,50.152,0,83.962-5.754,102.572-9.735.331-.071.626-.237.855-.468s.391-.527.459-.859l1.119-5.493c.04-.194.034-.392-.014-.579s-.137-.364-.265-.516l-1.806-2.148c-.116-.138-.259-.249-.417-.328s-.333-.125-.514-.134c-.479-.023-2.003-.078-3.474-.13-1.405-.05-2.762-.098-3.159-.118-.309-.015-.474-.095-.55-.145-.041-.027-.058-.035-.064-.036-.014-.026-.029-.051-.046-.075,0,0-2.853-4.099-2.855-4.101-.12-.172-.276-.312-.453-.415-.064-.037-.13-.069-.199-.095l.273-1.473c.04-.219.036-.441-.01-.654s-.135-.417-.262-.599l-5.723-8.157c.086-.39.166-.737.241-1.057.615-2.653.73-3.346-.453-8.047.445-1.08,2.363-5.802,4.309-11.673.094-.285.185-.558.272-.822,1.971-5.941,2.232-6.734,2.92-12.32.227-1.845.495-4.314.756-7.045.037-.389-.019-.784-.167-1.148l-.343-.844.169-.176c.388-.403.624-.925.672-1.482.249-2.91.472-5.933.623-8.702.026-.479-.09-.957-.335-1.372l-.022-.037c.296-.395.467-.873.486-1.372.033-.898.055-1.749.064-2.538.041-3.641-2.089-6.149-6.402-11.232-.046-.104-.088-.201-.129-.295-.352-.811-.566-1.305-1.423-1.928-7.471-5.436-25.092-14.91-29.769-17.423l-2.167-7.868" style="fill:none; stroke:#a6abb0; stroke-linecap:round; stroke-linejoin:round; stroke-width:.5px;"/><path d="m53.85,2.933l-2.195,7.971s-.009.005-.014.007c-4.559,2.449-22.323,11.993-29.821,17.448-.802.583-.993,1.026-1.34,1.826-.045.103-.092.212-.144.329-4.351,5.128-6.406,7.56-6.366,11.094.009.787.031,1.636.064,2.532.019.503.21.983.539,1.359l-.111.187c-.221.373-.324.799-.301,1.231.15,2.765.373,5.786.622,8.694.043.499.255.968.603,1.329l.282.293-.404.994c-.133.328-.184.679-.15,1.03.261,2.729.528,5.196.755,7.038.686,5.565.942,6.341,2.91,12.272.087.263.178.537.272.822,1.994,6.018,3.958,10.824,4.334,11.733-1.197,4.747-1.079,5.391-.472,8.01.081.348.17.731.265,1.167l-5.786,8.247c-.108.154-.183.328-.223.508s-.043.369-.009.555l.314,1.695c-.128.025-.25.071-.361.136-.146.084-.274.2-.374.343,0,0-2.855,4.099-2.889,4.156,0,0,0,.028-.145.121-.115.074-.323.167-.673.184-.4.02-1.759.068-3.162.118-1.473.052-2.994.106-3.471.13-.146.007-.287.045-.415.108s-.243.153-.337.265l-1.806,2.148c-.103.123-.175.265-.214.416s-.043.311-.011.468l1.119,5.493c.058.283.197.536.392.733s.447.338.729.399c18.595,3.977,52.387,9.729,102.52,9.729,50.132,0,83.925-5.752,102.52-9.729.283-.06.534-.202.729-.399s.334-.45.392-.733l1.119-5.493c.032-.157.027-.317-.011-.468s-.111-.294-.214-.416l-1.806-2.148c-.094-.112-.209-.201-.337-.265s-.269-.101-.415-.108c-.477-.023-1.998-.077-3.471-.13-1.403-.05-2.763-.098-3.162-.118-.351-.017-.559-.11-.673-.184-.144-.093-.145-.121-.179-.178,0,0-2.853-4.099-2.855-4.101-.099-.141-.227-.257-.373-.342-.111-.064-.233-.11-.36-.136l.314-1.695c.034-.186.031-.374-.009-.555s-.114-.354-.223-.508l-5.786-8.247c.095-.436.184-.819.265-1.167.607-2.618.726-3.262-.472-8.01.376-.909,2.34-5.715,4.334-11.733.094-.285.185-.558.272-.822,1.967-5.931,2.224-6.707,2.91-12.272.227-1.842.494-4.309.755-7.038.033-.349-.017-.704-.15-1.03l-.404-.994.282-.293c.348-.362.56-.83.603-1.329.249-2.908.472-5.929.622-8.694.023-.43-.081-.859-.301-1.231l-.111-.187c.33-.376.521-.856.539-1.359.033-.896.055-1.745.064-2.532.04-3.534-2.015-5.967-6.366-11.094-.052-.117-.099-.226-.144-.329-.347-.799-.539-1.242-1.34-1.826-7.497-5.455-25.262-14.999-29.821-17.448-.005-.002-.009-.005-.014-.007l-2.195-7.971" style="fill:none; stroke:#a6abb0; stroke-linecap:round; stroke-linejoin:round; stroke-width:.5px;"/><path d="m54.091,2.999l-2.223,8.075c-.035.019-.071.038-.108.058-4.567,2.454-22.312,11.987-29.792,17.43-.746.543-.916.935-1.258,1.723-.053.122-.11.253-.136.337-4.407,5.193-6.392,7.551-6.353,10.985.009.784.031,1.631.064,2.526.018.495.226.965.58,1.311l.022.021-.207.35c-.195.33-.287.707-.266,1.09.15,2.762.373,5.78.622,8.686.038.442.226.858.534,1.177l.394.41-.465,1.145c-.118.29-.163.601-.133.912.261,2.728.528,5.192.754,7.031.683,5.543.935,6.302,2.899,12.224.087.263.178.537.272.822,2.058,6.209,4.082,11.125,4.36,11.792-1.212,4.794-1.09,5.389-.491,7.973.087.377.184.795.289,1.277l-5.849,8.337c-.089.127-.151.269-.183.418s-.035.304-.007.456l.362,1.957c-.055.006-.105.011-.151.015-.135.012-.264.054-.379.121s-.215.158-.294.27c0,0-2.855,4.099-2.872,4.128,0,0-.042.094-.232.217-.153.099-.404.205-.797.224-.402.02-1.764.068-3.166.118-1.474.052-2.993.106-3.468.13-.111.005-.218.034-.316.082s-.185.117-.257.202l-1.806,2.148c-.078.093-.133.202-.163.317s-.033.237-.009.356l1.119,5.493c.048.235.163.444.324.607s.37.28.604.33c18.58,3.974,52.355,9.724,102.467,9.724,50.112,0,83.887-5.75,102.467-9.724.234-.05.442-.167.604-.33s.277-.372.324-.607l1.119-5.493c.024-.119.021-.241-.009-.356s-.084-.224-.163-.317l-1.806-2.148c-.072-.085-.159-.153-.257-.202s-.205-.077-.316-.082c-.475-.023-1.993-.077-3.468-.13-1.402-.05-2.764-.098-3.166-.118-.392-.019-.643-.125-.797-.224-.19-.122-.232-.217-.249-.245,0,0-2.853-4.099-2.854-4.1-.078-.111-.179-.203-.294-.269s-.244-.108-.379-.12c-.046-.004-.096-.009-.15-.014l.362-1.957c.028-.153.025-.308-.007-.456s-.094-.291-.183-.418l-5.849-8.337c.104-.482.201-.901.289-1.277.599-2.584.722-3.178-.491-7.973.278-.668,2.302-5.583,4.36-11.792.094-.285.185-.558.272-.822,1.964-5.921,2.215-6.68,2.899-12.224.227-1.84.494-4.304.754-7.031.03-.309-.015-.623-.133-.912l-.465-1.145.394-.41c.308-.32.496-.735.534-1.177.249-2.906.471-5.924.622-8.686.021-.381-.071-.761-.266-1.09l-.207-.35.022-.021c.354-.347.561-.816.58-1.311.033-.894.055-1.742.064-2.526.039-3.433-1.946-5.791-6.315-10.925-.064-.144-.121-.275-.174-.396-.342-.788-.512-1.18-1.258-1.723-7.48-5.443-25.225-14.977-29.792-17.43-.037-.02-.073-.039-.108-.058l-2.223-8.075" style="fill:none; stroke:#a6abb0; stroke-linecap:round; stroke-linejoin:round; stroke-width:.5px;"/></g><path d="m54.332,3.065l-2.252,8.178c-4.227,2.272-22.387,12.007-29.965,17.521-.799.581-.872.946-1.351,2.019-4.43,5.221-6.331,7.501-6.293,10.82.009.782.031,1.627.064,2.519.016.431.197.84.505,1.142l.162.158-.307.519c-.17.287-.25.615-.232.949.15,2.759.372,5.774.621,8.678.033.385.197.747.465,1.025l.507.527-.526,1.295c-.103.253-.142.523-.116.794.261,2.726.527,5.188.754,7.025.711,5.768.948,6.321,3.16,12.997s4.385,11.852,4.385,11.852c-1.422,5.61-1.027,5.452-.198,9.323l-5.912,8.426c-.14.199-.193.446-.149.685l.411,2.221c-.165.02-.308.035-.423.046-.197.018-.377.122-.49.284l-2.855,4.099s-.272.529-1.238.576c-.83.041-5.712.202-6.633.247-.152.007-.295.078-.393.195l-1.806,2.148c-.108.128-.151.299-.118.463l1.119,5.493c.076.372.365.663.736.743,18.566,3.971,52.323,9.718,102.415,9.718,50.092,0,83.849-5.747,102.415-9.718.371-.079.66-.371.736-.743l1.119-5.493c.033-.164-.01-.335-.118-.463l-1.806-2.148c-.098-.117-.241-.188-.393-.195-.922-.045-5.804-.207-6.633-.247-.967-.047-1.238-.576-1.238-.576l-2.853-4.099c-.114-.162-.294-.266-.491-.284-.115-.01-.258-.025-.423-.045l.411-2.221c.044-.239-.009-.486-.149-.685l-5.912-8.426c.83-3.872,1.225-3.714-.198-9.323,0,0,2.173-5.175,4.385-11.852s2.449-7.23,3.16-12.997c.226-1.837.493-4.298.754-7.025.026-.27-.014-.543-.116-.794l-.526-1.295.507-.527c.268-.279.432-.64.465-1.025.249-2.904.471-5.92.621-8.678.018-.332-.062-.663-.232-.949l-.307-.519.162-.158c.308-.302.489-.711.505-1.142.033-.893.055-1.738.064-2.519.038-3.319-1.863-5.599-6.293-10.82-.479-1.074-.552-1.438-1.351-2.019-7.578-5.514-25.738-15.249-29.965-17.521l-2.252-8.178" style="fill:none; stroke:#a6abb0; stroke-linecap:round; stroke-linejoin:round; stroke-width:.5px;"/><g id="uuid-1bb3d7cc-737f-4fe5-a7d7-0271da207b50"><path d="m193.45,100.121s-4.037-5.754-4.038-5.755c-.334-.475-.732-.834-1.236-1.095-1.121-.582-2.726-.642-5.151-.642" style="fill:none; stroke:#a6abb0; stroke-linecap:round; stroke-linejoin:round; stroke-width:.5px;"/><path d="m193.245,100.264s-4.037-5.754-4.037-5.754c-.313-.445-.682-.776-1.147-1.017-1.056-.548-2.591-.614-5.036-.614" style="fill:none; stroke:#a6abb0; stroke-linecap:round; stroke-linejoin:round; stroke-width:.5px;"/></g><path d="m193.04,100.408l-4.037-5.754c-.97-1.377-2.452-1.525-5.978-1.525" style="fill:none; stroke:#a6abb0; stroke-linecap:round; stroke-linejoin:round; stroke-width:.5px;"/><path d="m195.991,30.783c.432,1.215,0,1.514-3.194,1.855-.206.022-.415-.024-.593-.13l-1.703-1.022c-.198-.119-.421-.189-.651-.206l-5.331-.392c-.157-.012-.309-.062-.442-.146l-29.04-18.403h-46.661" style="fill:none; stroke:#a6abb0; stroke-linecap:round; stroke-linejoin:round; stroke-width:.5px;"/><path d="m192.469,32.616c.284,1.375.65,3.194.848,4.384.356,2.133.316,5.017.158,7.585s-.237,6.084-.83,11.457c-.593,5.373-.988,8.691-1.501,12.602-.514,3.911-1.106,7.19-2.133,11.536-.59,2.496-1.349,5.469-1.889,7.547l-.718,2.764-1.106,1.106c2.484-.06,4.605.651,5.487.999.27.107.579.039.779-.172l1.279-1.341" style="fill:none; stroke:#a6abb0; stroke-linecap:round; stroke-linejoin:round; stroke-width:.5px;"/><path d="m187.122,87.728s-2.257-3.379-2.506-3.751-.551-.534-.888-.562-7.714-.627-7.714-.627" style="fill:none; stroke:#a6abb0; stroke-linecap:round; stroke-linejoin:round; stroke-width:.5px;"/><path d="m154.962,12.339l-.46,7.24c-.037.575.19,1.135.615,1.523l3.062,2.794c.433.395.659.968.613,1.552l-1.172,14.778" style="fill:none; stroke:#a6abb0; stroke-linecap:round; stroke-linejoin:round; stroke-width:.5px;"/><path d="m162.907,38.048c-.682-.525-1.007-.326-2.37.148s-1.778.741-2.548,1.63-1.659,1.896-2.252,2.607-1.156,1.807-1.63,3.141-.593,1.244.059,2.163,5.185,7.467,5.63,7.97.622.8,1.541,1.067,2.888.822,3.704,1.037c.563.148,1.837.237,2.518.237h1.939" style="fill:none; stroke:#a6abb0; stroke-linecap:round; stroke-linejoin:round; stroke-width:.5px;"/><path d="m175.41,65.692s-4.947-6.133-5.48-6.785-.504-1.215-.681-2.815-.919-7.585-1.244-9.778c-.326-2.193-1.215-4.741-2.222-5.778s-2.192-1.964-2.874-2.489" style="fill:none; stroke:#a6abb0; stroke-linecap:round; stroke-linejoin:round; stroke-width:.5px;"/><polyline points="154.645 44.247 150.019 44.625 108.348 44.625" style="fill:none; stroke:#a6abb0; stroke-linecap:round; stroke-linejoin:round; stroke-width:.5px;"/><path d="m108.378,38.403h35.74c1.575,0,2.88-1.223,2.98-2.795l.848-13.207c.056-.875-.252-1.734-.852-2.373s-1.437-1.002-2.314-1.002h-36.403" style="fill:none; stroke:#a6abb0; stroke-linecap:round; stroke-linejoin:round; stroke-width:.5px;"/><path d="m73.433,32.429s7.866,1.123,34.944,1.123c27.078,0,34.944-1.123,34.944-1.123" style="fill:none; stroke:#a6abb0; stroke-linecap:round; stroke-linejoin:round; stroke-width:.5px;"/><path d="m73.433,24.429s17.586-.406,34.944-.406c17.359,0,34.944.406,34.944.406" style="fill:none; stroke:#a6abb0; stroke-linecap:round; stroke-linejoin:round; stroke-width:.5px;"/><path d="m183.753,83.262l4.812-36.814c.03-.231.153-.44.339-.579l1.684-1.256c.223-.166.352-.429.346-.707l-.172-9.139c-.011-.562-.296-1.083-.764-1.395l-.626-.417c-.177-.118-.276-.323-.258-.535l.104-1.187" style="fill:none; stroke:#a6abb0; stroke-linecap:round; stroke-linejoin:round; stroke-width:.5px;"/><path d="m185.952,41l-.081,2.666c-.006.253-.125.491-.324.647l-1.977,1.551c-.177.139-.293.342-.322.566l-4.302,32.69" style="fill:none; stroke:#a6abb0; stroke-linecap:round; stroke-linejoin:round; stroke-width:.5px;"/><path d="m15.141,53.89c1.427,1.304,5.554,2.81,9.088,3.223" style="fill:none; stroke:#a6abb0; stroke-linecap:round; stroke-linejoin:round; stroke-width:.5px;"/><path d="m193.322,47.499c3.587-.165,6.783-1.055,8.233-2.076" style="fill:none; stroke:#a6abb0; stroke-linecap:round; stroke-linejoin:round; stroke-width:.5px;"/><path d="m200.5,57.121c-1.412,1.29-4.821,2.626-8.316,3.035" style="fill:none; stroke:#a6abb0; stroke-linecap:round; stroke-linejoin:round; stroke-width:.5px;"/><path d="m201.615,53.89c-1.427,1.304-5.554,2.81-9.088,3.223" style="fill:none; stroke:#a6abb0; stroke-linecap:round; stroke-linejoin:round; stroke-width:.5px;"/><line x1="187.122" y1="87.728" x2="179.803" y2="88.393" style="fill:none; stroke:#a6abb0; stroke-linecap:round; stroke-linejoin:round; stroke-width:.5px;"/><line x1="185.297" y1="91.598" x2="182.22" y2="91.945" style="fill:none; stroke:#a6abb0; stroke-linecap:round; stroke-linejoin:round; stroke-width:.5px;"/><line x1="202.072" y1="115.62" x2="108.469" y2="115.62" style="fill:none; stroke:#a6abb0; stroke-linecap:round; stroke-linejoin:round; stroke-width:.5px;"/><line x1="199.108" y1="109.264" x2="194.151" y2="109.477" style="fill:none; stroke:#a6abb0; stroke-linecap:round; stroke-linejoin:round; stroke-width:.5px;"/><path d="m160.684,3.389l1.578,6.593s-10.608.157-53.885.157" style="fill:none; stroke:#a6abb0; stroke-linecap:round; stroke-linejoin:round; stroke-width:.5px;"/><path d="m108.378,8.588c21.423,0,50.704-.418,53.441-.458" style="fill:none; stroke:#a6abb0; stroke-linecap:round; stroke-linejoin:round; stroke-width:.5px;"/><line x1="158.861" y1="8.172" x2="157.994" y2="3.389" style="fill:none; stroke:#a6abb0; stroke-linecap:round; stroke-linejoin:round; stroke-width:.5px;"/><line x1="158.861" y1="8.172" x2="161.55" y2="7.006" style="fill:none; stroke:#a6abb0; stroke-linecap:round; stroke-linejoin:round; stroke-width:.5px;"/><line x1="164.675" y1="11.243" x2="162.263" y2="9.982" style="fill:none; stroke:#a6abb0; stroke-linecap:round; stroke-linejoin:round; stroke-width:.5px;"/><path d="m108.377,121.698h95.134c3.161,0,3.95-2.09,3.95-2.09,0,0-1.626-1.112-4.123-1.112h-94.961" style="fill:none; stroke:#a6abb0; stroke-linecap:round; stroke-linejoin:round; stroke-width:.5px;"/><line x1="212.648" y1="119.608" x2="207.461" y2="119.608" style="fill:none; stroke:#a6abb0; stroke-linecap:round; stroke-linejoin:round; stroke-width:.5px;"/><path d="m104.445,109.065l1.879-62.752.44-.409c.103-.096.238-.149.378-.149h2.413c.14,0,.276.053.378.149l.44.409,2.13,62.752c0,.89-1.804,1.611-4.03,1.611s-4.03-.721-4.03-1.611Z" style="fill:none; stroke:#a6abb0; stroke-linecap:round; stroke-linejoin:round; stroke-width:.5px;"/><path d="m72.85,45.901c-.2,0-.384.107-.483.28l-35.714,62.527c-.642,1.136,1.706,1.967,3.931,1.967,1.992,0,3.646-.578,3.971-1.337l31.754-62.863-.389-.405c-.105-.109-.25-.171-.401-.171h-2.67Z" style="fill:none; stroke:#a6abb0; stroke-linecap:round; stroke-linejoin:round; stroke-width:.5px;"/><path d="m87.731,46.487l-20.614,62.715c-.163.825-1.892,1.474-3.999,1.474-3.035,0-4.321-1.139-3.958-1.907l24.506-62.516c.083-.213.289-.353.518-.353h2.706c.142,0,.279.054.382.152l.46.434Z" style="fill:none; stroke:#a6abb0; stroke-linecap:round; stroke-linejoin:round; stroke-width:.5px;"/><path d="m99.078,46.483l-9.399,62.583c0,.891-1.803,1.611-4.027,1.611-3.846,0-4.069-1.448-3.985-1.846l13.209-62.346.12-.261c.091-.197.288-.323.505-.323h2.793c.155,0,.302.064.407.178l.376.405Z" style="fill:none; stroke:#a6abb0; stroke-linecap:round; stroke-linejoin:round; stroke-width:.5px;"/><polyline points="108.341 95.373 110.722 95.373 111.848 96.573 125.181 96.573 126.001 95.672 131.795 95.672 132.47 96.573 145.517 96.573 146.347 95.648 152.414 95.648 152.78 96.573 165.744 96.573 166.653 95.71 172.622 95.71 173.132 96.573 185.332 96.573" style="fill:none; stroke:#a6abb0; stroke-linecap:round; stroke-linejoin:round; stroke-width:.5px;"/><path d="m156.383,54.154l-7.868-.705-.714-1.227-3.432-.093-.794.783-4.802-.346c-.38-.027-.761-.041-1.142-.041h-2.102s-.332-.796-.332-.796l-3.63.009-.678.787h-7.769s-.332-.475-.332-.475l-3.622-.021-.7.497h-7.908s-.664-.537-.664-.537h-1.536" style="fill:none; stroke:#a6abb0; stroke-linecap:round; stroke-linejoin:round; stroke-width:.5px;"/><path d="m172.871,78.261h-10.208s-.504-.903-.504-.903h-4.553s-1.142.903-1.142.903h-6.51c-.072,0-.139.036-.178.097s-.045.137-.016.202l.233.521c.028.062.024.134-.01.193s-.095.098-.163.105l-3.658.366-.238-.654-4.781.478-1.086.786-10.803,1.08-.515-.315-4.842.484-.912.458-.737.074h-13.908" style="fill:none; stroke:#a6abb0; stroke-linecap:round; stroke-linejoin:round; stroke-width:.5px;"/><path d="m143.868,45.901c.2,0,.384.107.483.28l35.714,62.527c.642,1.136-1.706,1.967-3.931,1.967-1.992,0-3.646-.578-3.971-1.337l-31.754-62.863.389-.405c.105-.109.25-.171.401-.171h2.67Z" style="fill:none; stroke:#a6abb0; stroke-linecap:round; stroke-linejoin:round; stroke-width:.5px;"/><path d="m128.987,46.487l20.614,62.715c.163.825,1.892,1.474,3.999,1.474,3.035,0,4.321-1.139,3.958-1.907l-24.426-62.311-.259-.339c-.105-.138-.268-.218-.442-.218h-2.603c-.142,0-.279.054-.382.152l-.46.434Z" style="fill:none; stroke:#a6abb0; stroke-linecap:round; stroke-linejoin:round; stroke-width:.5px;"/><path d="m117.641,46.483l9.399,62.583c0,.891,1.803,1.611,4.027,1.611,3.846,0,4.069-1.448,3.985-1.846l-13.24-62.489c-.054-.257-.281-.441-.544-.441h-2.844c-.155,0-.302.064-.407.178l-.376.405Z" style="fill:none; stroke:#a6abb0; stroke-linecap:round; stroke-linejoin:round; stroke-width:.5px;"/><line x1="58.578" y1="23.895" x2="40.021" y2="39.953" style="fill:none; stroke:#a6abb0; stroke-linecap:round; stroke-linejoin:round; stroke-width:.5px;"/><line x1="158.177" y1="23.895" x2="176.734" y2="39.953" style="fill:none; stroke:#a6abb0; stroke-linecap:round; stroke-linejoin:round; stroke-width:.5px;"/><path d="m55.582,12.868c.858-.466-1.644-.563-2.726-.074s-1.7.8-2.785,1.363,1.793.607,2.756.119,2.756-1.407,2.756-1.407Z" style="fill:none; stroke:#a6abb0; stroke-linecap:round; stroke-linejoin:round; stroke-width:.5px;"/><path d="m54.995,13.168h-2.777c-.114,0-.227.026-.329.077l-1.105.544" style="fill:none; stroke:#a6abb0; stroke-linecap:round; stroke-linejoin:round; stroke-width:.5px;"/><path d="m161.174,12.868c-.858-.466,1.644-.563,2.726-.074s1.7.8,2.785,1.363-1.793.607-2.756.119-2.756-1.407-2.756-1.407Z" style="fill:none; stroke:#a6abb0; stroke-linecap:round; stroke-linejoin:round; stroke-width:.5px;"/><path d="m161.761,13.168h2.777c.114,0,.227.026.329.077l1.105.544" style="fill:none; stroke:#a6abb0; stroke-linecap:round; stroke-linejoin:round; stroke-width:.5px;"/><path d="m31.044,27.307c-1.916,1.067-7.35,1.329-5.175.04,2.311-1.37,3.136-1.919,5.275-3.081,1.778-.966,6.089-.847,4.384.198-1.748,1.071-4.484,2.844-4.484,2.844Z" style="fill:none; stroke:#a6abb0; stroke-linecap:round; stroke-linejoin:round; stroke-width:.5px;"/><line x1="32.165" y1="26.585" x2="27.144" y2="26.585" style="fill:none; stroke:#a6abb0; stroke-linecap:round; stroke-linejoin:round; stroke-width:.5px;"/><path d="m182.545,25.283c1.827,1.017,7.008,1.267,4.934.038l-1.868-1.055c-1.778-.966-6.089-.847-4.384.198l1.317.82Z" style="fill:none; stroke:#a6abb0; stroke-linecap:round; stroke-linejoin:round; stroke-width:.5px;"/><path d="m181.987,24.935l1.108-.46c.111-.046.231-.07.351-.07h2.173c.158,0,.313.041.451.118l1.204.68" style="fill:none; stroke:#a6abb0; stroke-linecap:round; stroke-linejoin:round; stroke-width:.5px;"/><path d="m34.769,24.935l-1.108-.46c-.111-.046-.231-.07-.351-.07h-2.173c-.158,0-.313.041-.451.118l-1.204.68" style="fill:none; stroke:#a6abb0; stroke-linecap:round; stroke-linejoin:round; stroke-width:.5px;"/><path d="m93.789,27.443c-.011-.83-.583-1.64-1.79-1.64h-3.124l.086,4.913h1.048l-.066-4.026h1.915c.589,0,.874.289.88.753.007.471-.27.759-.858.759h-.814c-.368,0-.572.208-.566.577l.005.307h.583c.273,0,.477.091.648.308l1.054,1.322h1.286l-1.465-1.834c.768-.175,1.188-.681,1.178-1.439Z" style="fill:none; stroke:#a6abb0; stroke-linecap:round; stroke-linejoin:round; stroke-width:.5px;"/><polygon points="97.712 25.803 96.659 25.803 96.71 30.716 97.758 30.716 97.712 25.803" style="fill:none; stroke:#a6abb0; stroke-linecap:round; stroke-linejoin:round; stroke-width:.5px;"/><polygon points="106.342 25.803 105.219 25.803 103.451 29.611 101.653 25.803 100.53 25.803 102.897 30.716 104.014 30.716 106.342 25.803" style="fill:none; stroke:#a6abb0; stroke-linecap:round; stroke-linejoin:round; stroke-width:.5px;"/><polygon points="110.142 25.803 109.089 25.803 109.083 30.716 110.132 30.716 110.142 25.803" style="fill:none; stroke:#a6abb0; stroke-linecap:round; stroke-linejoin:round; stroke-width:.5px;"/><path d="m116.475,25.803h-1.123l-2.438,4.914h1.118l.304-.629c.127-.266.324-.385.618-.385h1.819l-.213-.462c-.131-.287-.347-.421-.669-.421h-.931l.945-1.939,1.817,3.836h1.118l-2.365-4.914Z" style="fill:none; stroke:#a6abb0; stroke-linecap:round; stroke-linejoin:round; stroke-width:.5px;"/><polygon points="126.855 25.803 125.837 25.803 125.777 29.457 122.896 25.803 121.689 25.803 121.626 30.716 122.64 30.716 122.689 27.071 125.568 30.716 126.77 30.716 126.855 25.803" style="fill:none; stroke:#a6abb0; stroke-linecap:round; stroke-linejoin:round; stroke-width:.5px;"/><path d="m177.498,62.005c.025-.249.148-.371.374-.124l1.01,1.101c.167.182.247.426.222.672-.136,1.293-.57,5.435-.651,6.244-.096.961-.654,1.423-1.057,1.057s-.634-1.596-.519-2.788c.094-.976.436-4.34.621-6.162Z" style="fill:none; stroke:#a6abb0; stroke-linecap:round; stroke-linejoin:round; stroke-width:.5px;"/><path d="m178.997,64.669l-.775-.832c-.451-.473-.887-.127-.917.165" style="fill:none; stroke:#a6abb0; stroke-linecap:round; stroke-linejoin:round; stroke-width:.5px;"/><path d="m39.258,62.005c-.025-.249-.148-.371-.374-.124l-1.01,1.101c-.167.182-.247.426-.222.672.136,1.293.57,5.435.651,6.244.096.961.654,1.423,1.057,1.057s.634-1.596.519-2.788c-.094-.976-.436-4.34-.621-6.162Z" style="fill:none; stroke:#a6abb0; stroke-linecap:round; stroke-linejoin:round; stroke-width:.5px;"/><path d="m37.758,64.669l.775-.832c.451-.473.887-.127.917.165" style="fill:none; stroke:#a6abb0; stroke-linecap:round; stroke-linejoin:round; stroke-width:.5px;"/><line x1="185.72" y1="44.13" x2="190.91" y2="44.13" style="fill:none; stroke:#a6abb0; stroke-linecap:round; stroke-linejoin:round; stroke-width:.5px;"/><line x1="183.325" y1="46.174" x2="188.58" y2="46.174" style="fill:none; stroke:#a6abb0; stroke-linecap:round; stroke-linejoin:round; stroke-width:.5px;"/><path d="m33.002,83.262l-4.812-36.814c-.03-.231-.153-.44-.339-.579l-1.684-1.256c-.223-.166-.352-.429-.346-.707l.172-9.139c.011-.562.296-1.083.764-1.395l.626-.417" style="fill:none; stroke:#a6abb0; stroke-linecap:round; stroke-linejoin:round; stroke-width:.5px;"/><path d="m30.804,41l.081,2.666c.006.253.125.491.324.647l1.977,1.551c.177.139.293.342.322.566l4.302,32.69" style="fill:none; stroke:#a6abb0; stroke-linecap:round; stroke-linejoin:round; stroke-width:.5px;"/><line x1="31.036" y1="44.13" x2="25.846" y2="44.13" style="fill:none; stroke:#a6abb0; stroke-linecap:round; stroke-linejoin:round; stroke-width:.5px;"/><line x1="33.431" y1="46.174" x2="28.176" y2="46.174" style="fill:none; stroke:#a6abb0; stroke-linecap:round; stroke-linejoin:round; stroke-width:.5px;"/><line x1="32.587" y1="32.525" x2="27.382" y2="32.955" style="fill:none; stroke:#a6abb0; stroke-linecap:round; stroke-linejoin:round; stroke-width:.5px;"/><path d="m185.995,39.021l.029-4.732c.002-.349-.172-.676-.464-.869l-30.704-19.792h-46.478" style="fill:none; stroke:#a6abb0; stroke-linecap:round; stroke-linejoin:round; stroke-width:.5px;"/><line x1="184.169" y1="32.525" x2="189.374" y2="32.955" style="fill:none; stroke:#a6abb0; stroke-linecap:round; stroke-linejoin:round; stroke-width:.5px;"/><path d="m55.874,56.615s.666-5.653.818-7.019.455-2.074,1.062-2.984,1.589-1.921,2.453-3.085,1.232-.619,1.568.051" style="fill:none; stroke:#a6abb0; stroke-linecap:round; stroke-linejoin:round; stroke-width:.5px;"/><path d="m160.881,56.615s-.666-5.653-.818-7.019-.455-2.074-1.062-2.984-1.589-1.921-2.453-3.085-1.232-.619-1.568.051" style="fill:none; stroke:#a6abb0; stroke-linecap:round; stroke-linejoin:round; stroke-width:.5px;"/></g><g id="uuid-55a45c5c-d935-4714-a537-27d441894e0f"><path d="m162.17,27.361s-1.777-1.645-2.771-3.17.199-.776.199-.776l9.062,7.595s2.664,2.119,4.113,4.463-.626.747-.626.747l-9.977-8.859Z" style="fill:#cfd2d4; stroke:#30373e; stroke-linecap:round; stroke-linejoin:round;"/><path d="m54.586,27.361s1.777-1.645,2.771-3.17-.199-.776-.199-.776l-9.062,7.595s-2.664,2.119-4.113,4.463.626.747.626.747l9.977-8.859Z" style="fill:#cfd2d4; stroke:#30373e; stroke-linecap:round; stroke-linejoin:round;"/></g><g id="uuid-6e4aa8a2-b51d-4612-b4b5-ac4f1eced594"><path d="m214.422,12.321c0-4.064-2.931-7.436-6.793-8.135-.478-.101-.973-.157-1.482-.157s-1.004.055-1.482.157c-3.609.654-6.403,3.642-6.753,7.348h-28.895c-.276,0-.5.224-.5.5v15.872c0,.276.224.5.5.5s.5-.224.5-.5v-15.372h28.366c.101,3.967,2.989,7.236,6.783,7.923.478.101.973.157,1.482.157s1.004-.055,1.482-.157c3.862-.699,6.793-4.072,6.793-8.135Z" style="fill:none; stroke:#f4f4f4; stroke-linecap:round; stroke-linejoin:round; stroke-width:3px;"/><polyline points="205.713 12.034 169.017 12.034 169.017 27.905" style="fill:none; stroke:#30373e; stroke-linecap:round; stroke-linejoin:round;"/><circle cx="206.147" cy="12.321" r="8.275" style="fill:#30373e; stroke-width:0px;"/><path d="m206.147,4.029c-3.934,0-7.124,3.189-7.124,7.124v2.337c0,3.934,3.189,7.124,7.124,7.124s7.124-3.189,7.124-7.124v-2.337c0-3.934-3.189-7.124-7.124-7.124Z" style="fill:#30373e; stroke-width:0px;"/><path d="m205.189,10.133c-.199.135-.455.284-.768.449l-.818-1.326c.477-.26.905-.535,1.287-.826.381-.29.732-.612,1.053-.968h1.807v9.334h-1.846v-7.215c-.277.233-.516.418-.715.552Z" style="fill:#f4f4f4; stroke-width:0px;"/><path d="m47.739,11.533h-26.396c-.35-3.706-3.144-6.694-6.754-7.348-.478-.101-.973-.156-1.481-.156s-1.003.055-1.481.156c-3.862.699-6.794,4.072-6.794,8.135s2.932,7.436,6.794,8.135c.478.101.973.156,1.481.156s1.003-.055,1.481-.156c3.794-.687,6.682-3.955,6.783-7.923h25.867v15.372c0,.276.224.5.5.5s.5-.224.5-.5v-15.872c0-.276-.224-.5-.5-.5Z" style="fill:none; stroke:#f4f4f4; stroke-linecap:round; stroke-linejoin:round; stroke-width:3px;"/><polyline points="13.043 12.034 47.739 12.034 47.739 27.905" style="fill:none; stroke:#30373e; stroke-linecap:round; stroke-linejoin:round;"/><circle cx="13.108" cy="12.321" r="8.275" style="fill:#30373e; stroke-width:0px;"/><path d="m13.108,4.029c-3.934,0-7.123,3.189-7.123,7.123v2.338c0,3.934,3.189,7.123,7.123,7.123s7.123-3.189,7.123-7.123v-2.338c0-3.934-3.189-7.123-7.123-7.123Z" style="fill:#30373e; stroke-width:0px;"/><path d="m12.149,10.133c-.199.135-.455.284-.767.449l-.819-1.326c.477-.26.906-.535,1.287-.826.381-.29.732-.612,1.053-.968h1.808v9.334h-1.847v-7.215c-.277.233-.516.418-.715.552Z" style="fill:#f4f4f4; stroke-width:0px;"/></g></svg>