<svg xmlns="http://www.w3.org/2000/svg" width="218" height="138.6336" viewBox="0 0 218 138.6336"><g id="b9773a99-921b-4ca6-8c6c-3a40f2341cb8" data-name="below"><path d="M150.7588,25.6839c8.1695-3.5257,19.3913,4.2727,25.0647,17.418,5.55,12.86,3.7342,26.0737-3.9963,29.9421" style="fill:none;stroke:#a6abb0;stroke-linecap:round;stroke-linejoin:round;stroke-width:0.5px"/><path d="M216.8629,52.3763c-7.1242,4.244-14.5776,7.7987-22.0232,11.37L172.5186,74.4912l-.0472.0208-.0086.0034a12.3026,12.3026,0,0,1-4.3908.8622,15.4107,15.4107,0,0,1-4.3828-.6424,22.5371,22.5371,0,0,1-7.6308-4.0964,38.0475,38.0475,0,0,1-10.4492-13.4441,42.7148,42.7148,0,0,1-2.8933-8.053,36.5266,36.5266,0,0,1-1.0152-8.5267,24.4717,24.4717,0,0,1,1.4706-8.5342A14.5393,14.5393,0,0,1,148.479,25.06l1.0056-.5611a5.73,5.73,0,0,1,.9968-.4824l1.9549-.7522,3.91-1.5045,7.8193-3.0089,15.6382-6.0175c10.4185-4.0258,20.84-8.0574,31.5442-11.3389-10.1177,4.79-20.5181,8.83-30.9214,12.8752l-15.5946,6.0894-7.7971,3.0447-3.8984,1.5223-1.9493.7611a4.49,4.49,0,0,0-.88.434l-.8219.46a12.7135,12.7135,0,0,0-4.5691,6.16,22.6143,22.6143,0,0,0-1.3081,7.8828,34.6088,34.6088,0,0,0,1.0014,8.0554,44.2173,44.2173,0,0,0,2.74,7.689,36.2041,36.2041,0,0,0,9.8376,12.8463,20.78,20.78,0,0,0,6.9994,3.83,13.6672,13.6672,0,0,0,3.867.5985,10.5764,10.5764,0,0,0,3.7856-.7167l-.0553.024L194.174,62.3512C201.6325,58.8073,209.0831,55.2471,216.8629,52.3763Z" style="fill:#a6abb0"/><path d="M170.7588,70.6567c-7.24,2.8346-17.1613-3.91-22.41-15.3635-5.3648-11.7073-3.8159-23.9008,3.46-27.235,7.3481-3.1712,17.4417,3.8431,22.5447,15.6668C179.3457,55.2922,177.7121,67.1772,170.7588,70.6567Z" style="fill:none;stroke:#a6abb0;stroke-linecap:round;stroke-linejoin:round;stroke-width:0.5px"/><path d="M154.9763,27.3137c-6.317,3.8-7.4829,15.1407-2.4849,26.0476,4.9137,10.7225,14.0342,17.206,20.9948,15.233" style="fill:none;stroke:#a6abb0;stroke-linecap:round;stroke-linejoin:round;stroke-width:0.5px"/><path d="M174.9205,66.667c-6.3132-.4739-13.4581-6.5044-17.6057-15.5552-4.2037-9.1735-4.047-18.6537-.1325-23.6964" style="fill:none;stroke:#a6abb0;stroke-linecap:round;stroke-linejoin:round;stroke-width:0.5px"/><path d="M175.9215,64.6207c-5.99.0207-12.9833-5.6468-16.9692-14.345-4.0283-8.7906-3.7064-17.8872.34-22.3621" style="fill:none;stroke:#a6abb0;stroke-linecap:round;stroke-linejoin:round;stroke-width:0.5px"/></g><g id="bf155968-dce1-49dc-a016-f08fdefd628b" data-name="illustration"><path d="M176.8409,16.2593a26.0263,26.0263,0,0,0-2.6993,1.4371,8.5583,8.5583,0,0,0-1.199.9049,3.3012,3.3012,0,0,0-.8816,1.126,1.3808,1.3808,0,0,0,.03,1.273,2.9814,2.9814,0,0,0,.9982.9729,9.0625,9.0625,0,0,0,2.7729,1.0572,23.1518,23.1518,0,0,0,11.9619-.8467c3.8124-1.4214,7.6411-2.9288,11.4608-4.389,3.8215-1.4723,7.6394-2.9538,11.5316-4.2444-3.7382,1.6856-7.55,3.18-11.3595,4.684-3.8175,1.4978-7.5968,3.0254-11.4455,4.4986a24.7226,24.7226,0,0,1-6.0793,1.2068,21.2632,21.2632,0,0,1-6.1864-.4024,9.544,9.544,0,0,1-2.9306-1.14,3.25,3.25,0,0,1-1.1535-1.1712,1.8515,1.8515,0,0,1-.0036-1.6784,5.26,5.26,0,0,1,2.3339-2.1035A16.4173,16.4173,0,0,1,176.8409,16.2593Z" style="fill:#a6abb0"/></g><g id="a5ae47b3-b988-4462-9c06-319715ca9847" data-name="above"><polygon points="164.036 54.971 164.174 51.506 151.655 57.113 151.932 50.155 164.451 44.548 164.589 41.083 172.611 44.295 164.036 54.971" style="fill:#f4ae3d;stroke:#f4f4f4;stroke-miterlimit:10"/><path d="M138.565,84.5972c-.45.2-1.36.58-1.81.76a9.0587,9.0587,0,0,1-4.24.6,9.2188,9.2188,0,0,1-3.78,3.3c-.45.21-1.36.58-1.81.77a9.257,9.257,0,0,1-4.25.62,9.18,9.18,0,0,1-3.78,3.28c-.45.21-1.36.58-1.81.77a10.02,10.02,0,0,1-5.96.39l-36.31,16.98c-.01.01-.01.02-.02.03a10.84,10.84,0,0,1-5.06,5.16c-.45.21-.93.43-1.38.62a10.0918,10.0918,0,0,1-4.16.72,10.1885,10.1885,0,0,1-3.86,3.17c-.45.2-4.05,1.65-4.5,1.83a9.29,9.29,0,0,1-2.31.62,13.0217,13.0217,0,0,1-5.79,6.16l-.76.43c-.04.02-.08.05-.12.07l-.58.33-.26.15v-.01a13.5148,13.5148,0,0,1-9.55-.17l-3.9,1.9c-8.11,3.17-19.38-4.72-25.45-17.96-7.03-15.36-3.65-28.55,3.94-31.43.14-.05.29-.11.44-.16h.01l3.26-1.19a12.6305,12.6305,0,0,1,6.84-7.03h.01a.688.688,0,0,1,.13-.05l1.71-.65a13.04,13.04,0,0,1,8.72.01,9.3415,9.3415,0,0,1,1.48-.83c.45-.2,4.04-1.64,4.5-1.83a10.5341,10.5341,0,0,1,5.17-.78h.01a9.7415,9.7415,0,0,1,3.22-2.28c.44-.21.92-.42,1.37-.6a10.2226,10.2226,0,0,1,4.08-.82,12.8811,12.8811,0,0,1,3.63.54c.02,0,.03.01.05.01l37.07-14.08a9.5419,9.5419,0,0,1,4.39-4.03c.45-.21,1.36-.59,1.82-.78a9.6626,9.6626,0,0,1,5.18-.64,8.9733,8.9733,0,0,1,3.21-2.42c.44-.2,1.35-.57,1.81-.76a9.4662,9.4662,0,0,1,5.18-.61,8.95,8.95,0,0,1,3.22-2.45c.45-.2,1.35-.59,1.81-.77" style="fill:none;stroke:#30373e;stroke-linecap:round;stroke-linejoin:round;stroke-width:2.5px"/><path d="M146.1722,81.4846l-7.4732,3.5637L119.4852,40.9266l7.7153-2.8667c7.2309-2.7317,17.0981,4.4307,22.22,16.2491C154.5141,66.0616,153.036,78.049,146.1722,81.4846Z" style="fill:#ae2422;stroke:#30373e;stroke-linecap:round;stroke-miterlimit:10;stroke-width:1.5px"/><path d="M135.8657,83.3824,35.1921,130.5353,14.7438,83.579,118.7382,44.0613c6.528-2.4734,15.436,4.0121,20.06,14.7135C143.3967,69.4169,142.0622,80.2714,135.8657,83.3824Z" style="fill:#cfd2d4;stroke:#30373e;stroke-linecap:round;stroke-linejoin:round;stroke-width:0.5px"/><path d="M51.3164,95.0378l6.596-2.788c.102.2125.1955.425.289.6375a37.4459,37.4459,0,0,1,3.1365,13.0475l-6.239,2.7795a34.0139,34.0139,0,0,1,.1955,3.4255l5.984-2.703a20.1549,20.1549,0,0,1-1.3431,5.9585l-5.1339,2.38a18.6692,18.6692,0,0,1-2.499,6.545,10.2062,10.2062,0,0,0,3.5275-.7225c.45-.187,4.0544-1.632,4.505-1.836a10.2012,10.2012,0,0,0,3.859-3.17,9.9819,9.9819,0,0,0,4.1565-.7225c.4505-.187.9265-.408,1.377-.612a10.843,10.843,0,0,0,5.066-5.168c0-.0085.0085-.017.0085-.0255l36.32-16.983a9.9626,9.9626,0,0,0,5.9585-.391c.4505-.187,1.36-.561,1.8105-.765a9.2409,9.2409,0,0,0,3.7825-3.281,9.2869,9.2869,0,0,0,4.2415-.62c.45-.187,1.36-.561,1.81-.765a9.2417,9.2417,0,0,0,3.7824-3.3065,9.0385,9.0385,0,0,0,4.2416-.595c.4505-.187,1.36-.561,1.81-.765a9.5277,9.5277,0,0,0,4.3946-4.3945,15.7034,15.7034,0,0,0,1.309-3.621c1.241-5.27.4675-12.24-2.4735-19.057-.085-.187-.1615-.374-.2465-.561q-.5738-1.275-1.2241-2.4735a33.0569,33.0569,0,0,0-7.2334-9.265,23.8315,23.8315,0,0,0-2.567-1.9295c-3.808-2.465-7.7861-3.2555-11.152-1.81-.4591.187-1.36.5695-1.8105.7735a8.8591,8.8591,0,0,0-3.213,2.448,9.5634,9.5634,0,0,0-5.185.612c-.459.187-1.3685.561-1.8105.765a8.9613,8.9613,0,0,0-3.2131,2.414,9.6337,9.6337,0,0,0-5.1764.646c-.459.187-1.3685.5695-1.819.7735a9.5737,9.5737,0,0,0-4.3945,4.029l5.2869-2.006c.17-.068.3316-.136.5016-.1955a8.6866,8.6866,0,0,1,3.8335-.4335,11.0187,11.0187,0,0,1,1.972.374,13.0111,13.0111,0,0,1,2.32.8925l-45.9425,17.85a19.0144,19.0144,0,0,0-5.0831-2.4055h-.0084a11.3047,11.3047,0,0,0-7.701.272c-.459.187-.935.3995-1.3771.6035a9.97,9.97,0,0,0-3.2214,2.278,10.5833,10.5833,0,0,0-5.1765.782c-.459.187-4.046,1.632-4.4965,1.836a9.9981,9.9981,0,0,0-2.992,2.04,14.2047,14.2047,0,0,1,3.0175.74,8.2059,8.2059,0,0,1,.9689-.527,9.6713,9.6713,0,0,1,3.8931-.765,11.4123,11.4123,0,0,1,2.363.2805A15.3006,15.3006,0,0,1,44.38,76.8053l-5.831,2.261a28.607,28.607,0,0,1,2.924,2.278l6.239-2.465a33.0494,33.0494,0,0,1,8.78,10.5145l-6.6045,2.754Z" style="fill:#cfd2d4;stroke:#30373e;stroke-linecap:round;stroke-linejoin:round;stroke-width:0.5px"/><path d="M123.1414,49.1378l6.477-2.55a28.5148,28.5148,0,0,1,7.6925,9.1545" style="fill:none;stroke:#30373e;stroke-linecap:round;stroke-linejoin:round;stroke-width:0.5px"/><path d="M113.2218,53.0478l6.4346-2.533a23.6069,23.6069,0,0,1,3.0855,2.754,31.6277,31.6277,0,0,1,4.743,6.5705" style="fill:none;stroke:#30373e;stroke-linecap:round;stroke-linejoin:round;stroke-width:0.5px"/><path d="M116.7154,45.27a7.5392,7.5392,0,0,1,1.7-1.071c.11-.0425.2125-.085.323-.1275a9.9391,9.9391,0,0,1,7.93.7225" style="fill:none;stroke:#30373e;stroke-linecap:round;stroke-linejoin:round;stroke-width:0.5px"/><path d="M106.6,49.07a7.2741,7.2741,0,0,1,1.6235-1.003,5.47,5.47,0,0,1,.5185-.204,8.6839,8.6839,0,0,1,3.8929-.408,11.8388,11.8388,0,0,1,1.9041.391,13.3143,13.3143,0,0,1,2.1334.833" style="fill:none;stroke:#30373e;stroke-linecap:round;stroke-linejoin:round;stroke-width:0.5px"/><path d="M63.5819,72.6148l46.121-18.1815c.4845.357.96.748,1.4365,1.1645.4929.442.986.91,1.462,1.4025a32.039,32.039,0,0,1,5.066,6.9275" style="fill:none;stroke:#30373e;stroke-linecap:round;stroke-linejoin:round;stroke-width:0.5px"/><path d="M46.3269,71.7818a9.1867,9.1867,0,0,1,1.1985-.6715c.1444-.0595.2974-.119.442-.1785,2.788-1.0285,5.9585-.62,9.095.9265" style="fill:none;stroke:#30373e;stroke-linecap:round;stroke-linejoin:round;stroke-width:0.5px"/><path d="M54.0874,76.3633l6.2645-2.465a32.486,32.486,0,0,1,8.6445,10.3445" style="fill:none;stroke:#30373e;stroke-linecap:round;stroke-linejoin:round;stroke-width:0.5px"/><path d="M73.6968,103.98a19.793,19.793,0,0,1-1.3429,5.8565l-5.4061,2.499" style="fill:none;stroke:#30373e;stroke-linecap:round;stroke-linejoin:round;stroke-width:0.5px"/><path d="M70.3989,87.0478c.0935.204.187.4165.2805.629a36.6778,36.6778,0,0,1,3.077,12.852l-6.3241,2.822" style="fill:none;stroke:#30373e;stroke-linecap:round;stroke-linejoin:round;stroke-width:0.5px"/><path d="M121.96,82.1348a17.57,17.57,0,0,1-1.258,5.3295l-44.48,20.5445" style="fill:none;stroke:#30373e;stroke-linecap:round;stroke-linejoin:round;stroke-width:0.5px"/><path d="M118.9593,66.5033c.0851.187.17.3825.2551.578a33.8282,33.8282,0,0,1,2.805,11.424c.0085.153.017.3145.017.4675l-45.322,20.213" style="fill:none;stroke:#30373e;stroke-linecap:round;stroke-linejoin:round;stroke-width:0.5px"/><path d="M131.7009,77.7318a17.4026,17.4026,0,0,1-1.2495,5.2275l-5.627,2.601" style="fill:none;stroke:#30373e;stroke-linecap:round;stroke-linejoin:round;stroke-width:0.5px"/><path d="M128.7514,62.3638c.085.187.17.374.255.57a33.3069,33.3069,0,0,1,2.737,10.99c.0169.238.0255.4675.0255.7055l-6.477,2.89" style="fill:none;stroke:#30373e;stroke-linecap:round;stroke-linejoin:round;stroke-width:0.5px"/><path d="M141.4333,73.3288a17.0417,17.0417,0,0,1-1.224,5.1255l-5.6779,2.618" style="fill:none;stroke:#30373e;stroke-linecap:round;stroke-linejoin:round;stroke-width:0.5px"/><path d="M138.5519,58.2243c.085.1785.17.3655.2465.5525a32.1344,32.1344,0,0,1,2.72,11.509l-6.5025,2.8985" style="fill:none;stroke:#30373e;stroke-linecap:round;stroke-linejoin:round;stroke-width:0.5px"/><line x1="53.6252" y1="112.8975" x2="51.5379" y2="113.8404" style="fill:none;stroke:#30373e;stroke-linecap:round;stroke-linejoin:round;stroke-width:0.5px"/><line x1="63.3662" y1="108.4945" x2="61.2789" y2="109.4374" style="fill:none;stroke:#30373e;stroke-linecap:round;stroke-linejoin:round;stroke-width:0.5px"/><line x1="143.5206" y1="72.3859" x2="141.4333" y2="73.3288" style="fill:none;stroke:#30373e;stroke-linecap:round;stroke-linejoin:round;stroke-width:0.5px"/><path d="M122.6739,90.6434a14.0311,14.0311,0,0,0,2.15-5.0831,19.9908,19.9908,0,0,0,.425-2.4395c.068-.595.1105-1.1985.1359-1.8105.0086-.238.0171-.4845.0171-.731l6.2985-2.8475,2.0873-.9429" style="fill:none;stroke:#30373e;stroke-linecap:round;stroke-linejoin:round;stroke-width:0.5px"/><path d="M132.5083,85.9513a14.2025,14.2025,0,0,0,2.0231-4.879c.0425-.1615.0765-.323.1105-.4845a22.5481,22.5481,0,0,0,.4674-4.403l6.324-2.856" style="fill:none;stroke:#30373e;stroke-linecap:round;stroke-linejoin:round;stroke-width:0.5px"/><path d="M64.1921,118.5941a16.81,16.81,0,0,0,2.754-6.256l.0017-.0028a25.8234,25.8234,0,0,0,.6206-5.5845l6.1284-2.771.0068-.0057,2.0873-.9429" style="fill:none;stroke:#30373e;stroke-linecap:round;stroke-linejoin:round;stroke-width:0.5px"/><path d="M51.6994,124.3294a16.0773,16.0773,0,0,0,2.8917-6.7555" style="fill:none;stroke:#30373e;stroke-linecap:round;stroke-linejoin:round;stroke-width:0.5px"/><path d="M41.8734,129.0129a13.9981,13.9981,0,0,0,1.605-2.6187" style="fill:none;stroke:#30373e;stroke-linecap:round;stroke-linejoin:round;stroke-width:0.5px"/><path d="M116.7154,45.27a12.3581,12.3581,0,0,0-2.3715-.5695" style="fill:none;stroke:#30373e;stroke-linecap:round;stroke-linejoin:round;stroke-width:0.5px"/><path d="M33.5179,76.6614a14.681,14.681,0,0,0-3.0526-.6266" style="fill:none;stroke:#30373e;stroke-linecap:round;stroke-linejoin:round;stroke-width:0.5px"/><path d="M23.43,80.4627a14.1224,14.1224,0,0,0-3.19-.6147" style="fill:none;stroke:#30373e;stroke-linecap:round;stroke-linejoin:round;stroke-width:0.5px"/><path d="M74.7934,112.0888a19.0738,19.0738,0,0,0,1.428-4.08,25.4161,25.4161,0,0,0,.629-5.491l45.11-20.383,2.0872-.9429" style="fill:none;stroke:#30373e;stroke-linecap:round;stroke-linejoin:round;stroke-width:0.5px"/><line x1="65.4948" y1="116.4583" x2="72.0026" y2="113.4154" style="fill:none;stroke:#30373e;stroke-linecap:round;stroke-linejoin:round;stroke-width:0.5px"/><line x1="53.11" y1="122.0548" x2="59.3882" y2="119.1192" style="fill:none;stroke:#30373e;stroke-linecap:round;stroke-linejoin:round;stroke-width:0.5px"/><line x1="44.3195" y1="126.1651" x2="49.3851" y2="123.7965" style="fill:none;stroke:#30373e;stroke-linecap:round;stroke-linejoin:round;stroke-width:0.5px"/><line x1="120.0238" y1="90.9181" x2="111.1224" y2="95.0803" style="fill:none;stroke:#30373e;stroke-linecap:round;stroke-linejoin:round;stroke-width:0.5px"/><line x1="129.6453" y1="86.4192" x2="123.4912" y2="89.2968" style="fill:none;stroke:#30373e;stroke-linecap:round;stroke-linejoin:round;stroke-width:0.5px"/><line x1="137.701" y1="82.6524" x2="133.2222" y2="84.7467" style="fill:none;stroke:#30373e;stroke-linecap:round;stroke-linejoin:round;stroke-width:0.5px"/><path d="M68.9964,84.2428l-6.6131,2.754a38.1091,38.1091,0,0,0-8.2959-10.6335l-.0018.0028q-.6754-.585-1.3647-1.1031" style="fill:none;stroke:#30373e;stroke-linecap:round;stroke-linejoin:round;stroke-width:0.5px"/><path d="M41.4739,81.3449q-.6753-.585-1.3647-1.1031" style="fill:#cfd2d4;stroke:#30373e;stroke-linecap:round;stroke-linejoin:round;stroke-width:0.5px"/><line x1="34.3594" y1="80.6989" x2="37.106" y2="79.6295" style="fill:none;stroke:#30373e;stroke-linecap:round;stroke-linejoin:round;stroke-width:0.5px"/><line x1="44.3809" y1="76.8059" x2="47.1275" y2="75.7365" style="fill:none;stroke:#30373e;stroke-linecap:round;stroke-linejoin:round;stroke-width:0.5px"/><path d="M59.8072,70.7917l-2.7466,1.0694.0018-.0028-5.8906,2.2865a19.4309,19.4309,0,0,0-4.8449-2.363l-.0218-.0013a13.4411,13.4411,0,0,0-2.9805-.6079" style="fill:none;stroke:#30373e;stroke-linecap:round;stroke-linejoin:round;stroke-width:0.5px"/><line x1="106.6599" y1="52.5718" x2="109.4065" y2="51.5024" style="fill:none;stroke:#30373e;stroke-linecap:round;stroke-linejoin:round;stroke-width:0.5px"/><path d="M119.4194,47.6094l-2.7466,1.0694-6.0944,2.363A17.8463,17.8463,0,0,0,106.6,49.07a13.5729,13.5729,0,0,0-2.4651-.578" style="fill:none;stroke:#30373e;stroke-linecap:round;stroke-linejoin:round;stroke-width:0.5px"/><path d="M128.6762,44.0128l-2.0073.7815-6.12,2.38c-.2125-.1445-.4166-.272-.6291-.4a17.5481,17.5481,0,0,0-3.2044-1.5045" style="fill:none;stroke:#30373e;stroke-linecap:round;stroke-linejoin:round;stroke-width:0.5px"/><path d="M47.735,130.37l-1.7224.9785-.3091-.7126c-8.7138.67-19.3506-7.83-25.3944-21.0247-6.971-15.2126-4.8849-28.5451,1.52-33.7819l-.2233-.5237,1.8426-.7038c9.2546-3.5113,21.8832,5.6919,28.4507,20.87C58.4233,110.5555,56.526,125.957,47.735,130.37Z" style="fill:#cfd2d4;stroke:#30373e;stroke-linecap:round;stroke-linejoin:round;stroke-width:0.5px"/><path d="M46.0116,131.3463c-9.2111,3.5872-21.9947-5.362-28.8775-20.3818-7.9836-17.4219-4.1417-32.3921,4.4685-35.66,9.3063-3.5319,22,5.7189,28.5933,20.9663C56.7531,111.4353,54.8461,126.9134,46.0116,131.3463Z" style="fill:#cfd2d4;stroke:#30373e;stroke-linecap:round;stroke-linejoin:round;stroke-width:0.5px"/><path d="M42.5725,128.1854l-10.0077,4.8911c-8.1172,3.1653-19.3824-4.7264-25.453-17.96C.0786,99.7579,3.4608,86.5587,11.049,83.68c.1474-.052.2948-.1127.4423-.1561L21.525,79.8811c8.0218-3.0353,18.9662,4.9258,24.6465,18.0729C51.8171,111.0317,50.178,124.3609,42.5725,128.1854Z" style="fill:#cfd2d4;stroke:#30373e;stroke-linecap:round;stroke-linejoin:round;stroke-width:0.5px"/><path d="M72.0318,86.3573l-1.6329.6905-6.613,2.7965q.14.3187.2805.6375a42.676,42.676,0,0,1,3.3659,12.869" style="fill:none;stroke:#30373e;stroke-linecap:round;stroke-linejoin:round;stroke-width:0.5px"/><line x1="70.6293" y1="83.5523" x2="68.9964" y2="84.2428" style="fill:none;stroke:#30373e;stroke-linecap:round;stroke-linejoin:round;stroke-width:0.5px"/><path d="M119.3,63.2373l-1.6329.6905L71.7419,83.0783a37.02,37.02,0,0,0-8.16-10.4635q-.6754-.585-1.3647-1.1031" style="fill:none;stroke:#30373e;stroke-linecap:round;stroke-linejoin:round;stroke-width:0.5px"/><path d="M120.5923,65.8128l-1.633.6905-45.84,19.3715c.0935.2125.187.4165.2805.629a41.87,41.87,0,0,1,3.315,12.682" style="fill:none;stroke:#30373e;stroke-linecap:round;stroke-linejoin:round;stroke-width:0.5px"/><path d="M130.3843,61.6733l-1.6329.6905-6.7661,2.8645c.0936.187.1786.3825.2636.5695a38.1039,38.1039,0,0,1,3.043,11.7215" style="fill:none;stroke:#30373e;stroke-linecap:round;stroke-linejoin:round;stroke-width:0.5px"/><path d="M129.1178,59.1488l-1.6329.6905-6.766,2.8135a33.99,33.99,0,0,0-7.4971-9.605h0q-.6753-.5852-1.3647-1.1032" style="fill:none;stroke:#30373e;stroke-linecap:round;stroke-linejoin:round;stroke-width:0.5px"/><path d="M138.9438,55.0518l-1.6329.6905-6.7915,2.822a33.0288,33.0288,0,0,0-7.378-9.4265q-.6754-.585-1.3647-1.1031" style="fill:none;stroke:#30373e;stroke-linecap:round;stroke-linejoin:round;stroke-width:0.5px"/><path d="M140.1848,57.5338l-1.6329.6905-6.783,2.8645c.085.187.17.3825.255.5695a37.38,37.38,0,0,1,2.992,11.526" style="fill:none;stroke:#30373e;stroke-linecap:round;stroke-linejoin:round;stroke-width:0.5px"/><path d="M32.2029,127.1877c-6.4439,2.51-15.3871-3.7512-20.2022-14.2588-5.5852-12.1881-2.8975-22.6611,3.1261-24.9472,6.5105-2.4709,15.3911,4.0009,20.0034,14.6677C39.7175,113.2583,38.3835,124.0866,32.2029,127.1877Z" style="fill:#f4f4f4;stroke:#30373e;stroke-linecap:round;stroke-linejoin:round;stroke-width:0.5px"/><path d="M29.5042,121.1794c-4.4675,1.74-10.6677-2.6007-14.0059-9.8854-3.8722-8.45-2.0088-15.7106,2.1672-17.2956,4.5137-1.713,10.67,2.7738,13.8681,10.1689C34.7139,111.5223,33.789,119.0294,29.5042,121.1794Z" style="fill:none;stroke:#30373e;stroke-linecap:round;stroke-linejoin:round;stroke-width:0.5px"/><path d="M26.7658,115.0828c-2.462.9589-5.8789-1.4332-7.7186-5.4478-2.134-4.6567-1.1071-8.6581,1.1944-9.5315,2.4874-.9441,5.88,1.5286,7.6426,5.604C29.6369,109.7608,29.1272,113.898,26.7658,115.0828Z" style="fill:#cfd2d4;stroke:#30373e;stroke-linecap:round;stroke-linejoin:round;stroke-width:0.5px"/><path d="M25.8033,112.94c-1.7571.6843-4.1957-1.0229-5.5087-3.888-1.5229-3.3234-.79-6.1791.8524-6.8025,1.7753-.6737,4.1968,1.091,5.4544,4C27.8523,109.1417,27.4885,112.0943,25.8033,112.94Z" style="fill:#f4f4f4;stroke:#30373e;stroke-linecap:round;stroke-linejoin:round;stroke-width:0.5px"/><path d="M36.255,102.1573c-5.81-13.44-17-21.59-25.21-18.48-7.58,2.88-10.97,16.08-3.93,31.44,6.07,13.23,17.33,21.12,25.45,17.96C40.3551,129.1772,42.035,115.5273,36.255,102.1573Zm-5.53,26.83c-6.77,2.63-16.17-3.94-21.23-14.99-5.87-12.81-3.04-23.81,3.29-26.22,6.84-2.6,16.17,4.21,21.02,15.41C38.625,114.3473,37.225,125.7273,30.725,128.9873Z" style="fill:#cfd2d4;stroke:#30373e;stroke-linecap:round;stroke-linejoin:round;stroke-width:0.5px"/></g></svg>
