<?xml version="1.0" encoding="UTF-8"?><svg xmlns="http://www.w3.org/2000/svg" width="436" height="254.037" viewBox="0 0 436 254.037"><g id="uuid-f270c0a7-dc71-4ad9-87d3-d0d34aa3aabb"><rect x="-172.0126" width="654" height="254.037" style="fill:none; stroke-width:0px;"/></g><g id="uuid-73fd3187-4ce8-459d-af5c-09578825dd99"><path d="m146.2769,81.9486c-6.1057-36.4882,5.6524-68.9483,29.7127-76.6544,27.931-8.9458,61.8638,18.8552,75.7911,62.0954,1.8157,5.6372,3.2018,11.2585,4.1774,16.7921" style="fill:none; stroke:#a6abb0; stroke-linecap:round; stroke-linejoin:round; stroke-width:1.5px;"/><path d="m160.8528,69.0413c1.2691-.4641,7.487-2.5972,21.06-4.5126,10.9006-1.5383,16.8494-2.1412,21.6632-2.3337,1.7912-.0716,3.4252-.0864,5.0986-.0714,6.1709.0553,7.9088.7788,7.9088.7788,0,0,9.2209-.5187,12.8118-.6993,2.2347-.1124,3.2098-1.6533,3.139-3.4239-.0307-.7667-.2574-1.5765-.6629-2.332-2.12-4.0652-7.0811-6.8475-9.4989-10.3959-3.6947-5.4225-5.0171-11.2422-9.1622-15.2468-9.413-9.0941-19.6052-14.2034-28.8417-13.8342-8.1211.3247-15.0312,5.1419-19.4164,13.797-3.9969,7.8888-.9837,12.5191-1.7261,20.4382-.5325,5.6807-3.4599,9.7807-2.3732,17.8358Z" style="fill:none; stroke:#a6abb0; stroke-linecap:round; stroke-linejoin:round; stroke-width:1.5px;"/><path d="m215.6646,62.9946c3.3578,1.1711,5.3702,4.2126,7.0011,8.4282,1.631,4.2157,3.0652,9.1879,3.746,11.503.0614.2089.1188.4349.1719.6761" style="fill:none; stroke:#a6abb0; stroke-linecap:round; stroke-linejoin:round; stroke-width:.5px;"/><path d="m160.6429,69.1393c1.4836-.4688,10.7416.4096,12.8782.7689,1.7846.3,2.564,1.2333,3.1207,2.7009,1.1637,3.0677,2.4318,6.7135,3.5355,10.0297" style="fill:none; stroke:#a6abb0; stroke-linecap:round; stroke-linejoin:round; stroke-width:.5px;"/><path d="m174.6403,70.2322s-7.0266,1.9534-9.7704,2.7603c-2.7438.8069-3.8536,3.3691-3.19,6.9562.1189.6428.2869,1.4382.4866,2.3233" style="fill:none; stroke:#a6abb0; stroke-linecap:round; stroke-linejoin:round; stroke-width:.5px;"/><path d="m226.8445,62.3366s8.3805-.177,11.096-.1931,4.8541.2867,6.7121,3.6903c1.858,3.4036,5.011,10.1342,6.0459,12.8296.8787,2.2888,1.244,4.1105-.9793,5.3912" style="fill:none; stroke:#a6abb0; stroke-linecap:round; stroke-linejoin:round; stroke-width:.5px;"/><path d="m176.987,73.5277s-6.612,1.7121-8.7576,2.399c-2.1457.6869-3.6013,1.059-3.1626,4.2139.0894.6428.2066,1.3923.3418,2.1975" style="fill:none; stroke:#a6abb0; stroke-linecap:round; stroke-linejoin:round; stroke-width:.5px;"/><path d="m220.2992,66.7283s13.071-.9443,16.7283-1.1953,4.606.5041,5.8451,2.6271c1.2392,2.123,3.6266,7.7232,4.4875,9.7478.8609,2.0246,1.0696,3.3047-1.7584,4.0945-1.0584.2955-3.8888,1.0266-7.0167,1.8257" style="fill:none; stroke:#a6abb0; stroke-linecap:round; stroke-linejoin:round; stroke-width:.5px;"/><path d="m223.0389,72.4088s12.4071-1.7994,13.8976-1.9582c1.4904-.1588,2.2061-.006,3.0035,1.4225.7974,1.4284.8277,1.6439,1.5828,3.3875.7551,1.7436.0355,2.3144-1.5994,2.6884-2.1286.4869-12.6462,2.779-14.0676,3.0886" style="fill:none; stroke:#a6abb0; stroke-linecap:round; stroke-linejoin:round; stroke-width:.5px;"/><path d="m168.7628,82.8761c-.0012-.0053-.0024-.0106-.0036-.0158-.1957-.8554.1695-1.5777,1.2509-1.7653,1.0814-.1876,9.1461-1.4779,9.1461-1.4779" style="fill:none; stroke:#a6abb0; stroke-linecap:round; stroke-linejoin:round; stroke-width:.5px;"/><path d="m203.5716,70.3019c.3888-1.1844,1.5869-1.3284,2.6129-.324l6.4928,6.3563c1.026,1.0044,1.5425,2.7787,1.1536,3.9631l-.9871,3.0066" style="fill:none; stroke:#a6abb0; stroke-linecap:round; stroke-linejoin:round; stroke-width:.5px;"/><path d="m214.0142,83.3277l.9979-3.0396c.4244-1.2927-.1393-3.2294-1.2592-4.3257l-7.0869-6.9379c-1.1198-1.0963-2.3717-.9371-2.7961.3557l-2.6859,8.181c-.4244,1.2927.1393,3.2294,1.2592,4.3257l1.2573,1.2308" style="fill:none; stroke:#a6abb0; stroke-linecap:round; stroke-linejoin:round; stroke-width:.5px;"/><path d="m231.6304,73.2292c-.1591.0314-.2965.1307-.3761.2719s-.0936.3102-.0382.4625l1.0887,2.9932c.095.2613.3687.412.6403.3526l2.8736-.6279c.2776-.0607.465-.3213.4333-.6036-.1229-1.0945-.4631-2.1222-1.2704-3.2111-.122-.1645-.3364-.2324-.5373-.1927l-2.8139.5551Z" style="fill:none; stroke:#a6abb0; stroke-linecap:round; stroke-linejoin:round; stroke-width:.5px;"/><polygon points="207.919 76.2833 206.8554 78.7256 209.404 81.2442 210.5029 78.6927 207.919 76.2833" style="fill:none; stroke:#a6abb0; stroke-linecap:round; stroke-linejoin:round; stroke-width:.5px;"/><line x1="207.919" y1="76.2833" x2="206.7857" y2="72.5743" style="fill:none; stroke:#a6abb0; stroke-linecap:round; stroke-linejoin:round; stroke-width:.5px;"/><line x1="209.404" y1="81.2442" x2="209.9906" y2="83.2458" style="fill:none; stroke:#a6abb0; stroke-linecap:round; stroke-linejoin:round; stroke-width:.5px;"/><polyline points="211.1248 83.2689 212.9919 78.3161 206.7857 72.5743 204.3723 78.9371 208.7292 83.2201" style="fill:none; stroke:#a6abb0; stroke-linecap:round; stroke-linejoin:round; stroke-width:.5px;"/><line x1="204.3723" y1="78.9371" x2="201.2045" y2="79.6879" style="fill:none; stroke:#a6abb0; stroke-linecap:round; stroke-linejoin:round; stroke-width:.5px;"/><line x1="212.9919" y1="78.3161" x2="213.839" y2="78.4543" style="fill:none; stroke:#a6abb0; stroke-linecap:round; stroke-linejoin:round; stroke-width:.5px;"/><path d="m366.5889,2.4958c-1.7963,12.1386-5.6462,29.8442-7.9803,42.1044,0,0-8.1943,42.0551-8.1943,42.0551-.026.1402-.1133.2591-.2241.3312l-3.0405,1.9269.2011-.2485-1.0868,2.9332.0222-.2677.1248.6512c.0227.1183.0014.2353-.0519.3334.0074-.0074-15.3188,28.1453-15.1878,27.8888-13.0318,36.9411-21.4914,75.7712-23.49,114.9401-.277,5.6001-.3693,11.1966-.7494,16.8159-.4735-5.6072-.5369-11.2436-.255-16.8596,1.8774-39.3326,10.3588-78.2623,23.5842-115.3074-.0185.27,15.6425-29.1619,15.1677-27.6231,0,.0002-.1248-.651-.1248-.651-.0177-.0924-.008-.1857.0222-.268l1.0868-2.9332c.0396-.1068.112-.1922.2013-.2488l3.0405-1.9269-.2238.3309c2.518-14.0633,5.1872-28.0994,8.0054-42.1055,2.5654-12.1964,5.8768-29.9668,9.1524-41.8715h0Z" style="fill:#a6abb0; stroke-width:0px;"/><path d="m-169.7234,104.3225c193.4164,5.1185,413.4791,13.9282,607.0133,19.9944,13.4885.4646,26.9799.8434,40.4488,1.8869-13.5087.1318-26.9948-.4011-40.4839-.8492-193.5424-7.0143-413.6175-13.0792-606.9783-21.032h0Z" style="fill:#a6abb0; stroke-width:0px;"/><polyline points="-4.5072 31.829 21.9275 6.9291 5.2994 78.9391 -3.5072 78.8781" style="fill:none; stroke:#a6abb0; stroke-linecap:round; stroke-linejoin:round; stroke-width:2px;"/><path d="m35.6443,3.2894c-3.5131,22.546-9.2646,44.5896-14.3757,66.7964-.0004,0-2.3359,9.4767-2.3359,9.4767l-.9536-1.2262c-.1954.6161,282.3037,4.3888,277.3907,6.4377.7363-3.4494,1.5232-6.8866,2.3086-10.3254,3.9274-17.1927,8.2514-34.2913,12.7135-51.3526,1.8314-6.8128,3.8051-13.5908,6.1818-20.2597-1.1531,6.9861-2.6802,13.8708-4.2833,20.7374-4.0637,16.2153-8.3173,35.3597-12.4161,51.3979.0004,0-2.5595,10.26-2.5595,10.26-.1549,2.291-278.4006-5.6566-279.3782-4.8941-.6217-.0072-1.1026-.6195-.9518-1.228,0,0,2.0859-9.5348,2.0859-9.5348C24.2834,47.3913,28.8473,25.0719,35.6443,3.2894h0Z" style="fill:#a6abb0; stroke-width:0px;"/><path d="m445.7319,4.9932c-1.2378,14.0457-3.4778,27.9322-5.4594,41.8749-1.7775,12.3235-4.2383,29.6315-6.0705,41.7655,0,.0008-.9554-1.1315-.9555-1.1313l46.488,2.661-46.5593-.6623c-.5919-.0044-1.048-.5484-.9556-1.1319,1.6506-13.9843,3.6237-27.929,5.8327-41.8352,2.2097-13.9137,4.3588-27.8313,7.6797-41.5409h0Z" style="fill:#a6abb0; stroke-width:0px;"/><path d="m-3.9294,79.0084c146.7975,3.5931,306.7058,6.2148,453.4475,9.8963,10.0763.2389,20.1529.4687,30.2164,1.2586-10.0894.3177-20.1655.0753-30.2419-.1575-103.3716-2.6567-228.5469-5.2162-332.5316-7.2969-35.3303-.8092-86.0193-1.523-120.9209-2.7009-.2769-.0075-.4947-.2372-.4874-.5133.0071-.2777.2404-.4966.5179-.4864h0Z" style="fill:#a6abb0; stroke-width:0px;"/><line x1="-4.8411" y1="82.6029" x2="479.8542" y2="94.6475" style="fill:none; stroke:#a6abb0; stroke-linecap:round; stroke-linejoin:round;"/><path d="m419.171,5.116c-3.2865,26.4982-8.4197,56.7094-11.9714,83.2472-.0839.6139-1.0724.5376-.9915-.1324,3.6546-27.2967,7.4588-56.0972,12.963-83.1149h0Z" style="fill:#a6abb0; stroke-width:0px;"/><path d="m438.4212,2.3371c-3.5152,27.525-8.8032,58.9271-12.5082,86.5043-.0858.6058-1.064.5521-.9915-.1324,3.7898-28.3992,7.8168-58.2526,13.4997-86.3719h0Z" style="fill:#a6abb0; stroke-width:0px;"/><path d="m58.5885,3.6812c-6.8748,6.5441-13.911,12.9092-21.0434,19.1672-2.3943,2.0633-4.7912,4.1233-7.2477,6.1152-.3208.2673-.8.2209-1.0629-.1039-.2515-.3102-.2131-.7618.0781-1.0276,2.3408-2.1276,4.7411-4.187,7.1441-6.2432,7.2653-6.1055,14.6236-12.1014,22.1318-17.9077h0Z" style="fill:#a6abb0; stroke-width:0px;"/><path d="m13.7136,42.5004c-2.9201,2.5776-5.1513,4.5579-6.5215,5.7767-1.032.9179-2.2657,1.5446-3.6142,1.8431l-7.2412,1.6025" style="fill:none; stroke:#a6abb0; stroke-linecap:round; stroke-linejoin:round;"/><path d="m27.2524,39.3738s49.7992-6.8733,125.6883-13.467" style="fill:none; stroke:#a6abb0; stroke-linecap:round; stroke-linejoin:round; stroke-width:1.5px;"/><path d="m169.0883,24.5422c10.5077-.863,21.4435-1.7124,32.7527-2.5317" style="fill:none; stroke:#a6abb0; stroke-linecap:round; stroke-linejoin:round; stroke-width:1.5px;"/><path d="m223.34,19.7707l37.1186-2.2369-.4197.157,20.4199-14.9455-19.4985,16.1292c-.1239.1023-.2699.1524-.4201.1571,0,0-37.1015,2.2358-37.1015,2.2358-.97.0566-1.103-1.4166-.0987-1.4967h0Z" style="fill:#a6abb0; stroke-width:0px;"/><path d="m-5.6613,16.3522L11.5404.8805-4.9767,17.0811c-.4776.4627-1.1797-.2771-.6846-.7289h0Z" style="fill:#a6abb0; stroke-width:0px;"/><path d="m23.7739.9367c-.502,5.7977-2.7939,13.9808-3.9953,19.7435-3.9367,17.5007-9.4672,41.4041-13.6396,58.8489-.1372.5787-1.1077.4676-.9743-.2251,3.8999-17.5123,9.408-41.415,13.5437-58.8709,1.449-5.7114,2.9655-14.0295,5.0655-19.4964h0Z" style="fill:#a6abb0; stroke-width:0px;"/><path d="m260.507,18.4695c23.6738-.9465,35.7452-1.6682,52.0902-.1168" style="fill:none; stroke:#a6abb0; stroke-linecap:round; stroke-linejoin:round;"/><path d="m42.8453,80.3099c-6.2652-14.1557-8.368-20.4061,5.2391-22.1342,14.3993-1.8287,15.0795-1.9486,15.6475-6.5449.5681-4.5962,1.2253-7.2588,7.6389-7.9488,11.4729-1.2344,77.3888-7.8498,77.3888-7.8498" style="fill:none; stroke:#a6abb0; stroke-linecap:round; stroke-linejoin:round;"/><path d="m66.6774,45.0221c-1.8241.9421-1.1413,2.8623-.003,5.784l11.3615,29.7532" style="fill:none; stroke:#a6abb0; stroke-linecap:round; stroke-linejoin:round;"/><path d="m162.8322,39.862c4.8751,1.4269,14.4508,1.4956,24.5999.0964,2.9728-.4098,14.7516-1.6725,29.9224-3.2532" style="fill:none; stroke:#a6abb0; stroke-linecap:round; stroke-linejoin:round;"/><path d="m235.6944,34.8078c34.5391-3.5529,74.6701-7.5876,74.6701-7.5876" style="fill:none; stroke:#a6abb0; stroke-linecap:round; stroke-linejoin:round;"/><line x1="185.4795" y1="52.1351" x2="185.4828" y2="52.1435" style="fill:none; stroke:#a6abb0; stroke-linecap:round; stroke-linejoin:round;"/><path d="m189.7232,63.4792c-.2321-.6283-3.4615-9.3335-4.2404-11.3357-.0007-.0019-.0014-.0037-.0022-.0055-.0004-.001-.0008-.0019-.0011-.0029-.8742-2.2472-1.88-4.4756,2.3239-5.1473,1.8008-.2877,17.0038-2.0803,32.7534-3.9279" style="fill:none; stroke:#a6abb0; stroke-linecap:round; stroke-linejoin:round;"/><path d="m239.656,40.8199c9.4221-1.1071,16.645-1.9631,17.7162-2.1224,3.3217-.494,4.447.5447,5.3414,2.5861.8382,1.913,14.9593,38.7511,16.7318,43.3764" style="fill:none; stroke:#a6abb0; stroke-linecap:round; stroke-linejoin:round;"/><line x1="267.9436" y1="54.7201" x2="304.9585" y2="49.0857" style="fill:none; stroke:#a6abb0; stroke-linecap:round; stroke-linejoin:round;"/><line x1="270.7334" y1="61.966" x2="303.2996" y2="55.898" style="fill:none; stroke:#a6abb0; stroke-linecap:round; stroke-linejoin:round;"/><line x1="163.2893" y1="46.4578" x2="170.9062" y2="66.4048" style="fill:none; stroke:#a6abb0; stroke-linecap:round; stroke-linejoin:round;"/><path d="m242.0005,167.4553c-5.8407-.3451-64.1941-5.0055-69.5029-5.3192" style="fill:none; stroke:#a6abb0; stroke-linecap:round; stroke-linejoin:round; stroke-width:1.5px;"/><path d="m173.4402,140.4918l78.5674,3.7554c5.6221.2973,9.9301,5.8551,9.6175,12.4038-.3214,6.5586-5.137,11.6244-10.7684,11.3275-.0005,0-3.4312-.2026-8.8562-.5231" style="fill:none; stroke:#a6abb0; stroke-linecap:round; stroke-linejoin:round; stroke-width:1.5px;"/><path d="m180.7178,144.9164c-1.3613.0402-2.7198.0233-4.0797.0344-1.1392.0433-2.9012-.1812-3.9674.1267-3.7834,1.0486-5.4905,5.8365-4.3627,9.3791.585,1.7829,2.2879,3.0936,4.162,3.2896,0,0,2.0228.2527,2.0228.2527,1.3483.1715,2.6936.379,4.0367.6144-1.9682.0348-4.145-.0464-6.1199-.128-2.2122-.0796-4.2943-1.5934-5.0166-3.7123-1.3639-4.039.6767-9.467,5.1157-10.4092,1.2562-.2699,2.9034.0763,4.1516.1279,1.3525.1412,2.7063.2544,4.0575.4247h0Z" style="fill:#a6abb0; stroke-width:0px;"/><path d="m173.4402,140.4918c-5.9696,0-10.0843,5.2577-10.3493,11.2305-.2573,5.9819,3.563,9.881,9.4066,10.4139" style="fill:none; stroke:#a6abb0; stroke-linecap:round; stroke-linejoin:round; stroke-width:1.5px;"/></g><g id="uuid-ff90d494-e513-4989-bc28-52339718adf7"><ellipse cx="242.4382" cy="156.4921" rx="24.7189" ry="21.314" transform="translate(73.6528 390.5381) rotate(-87.0442)" style="fill:none; stroke:#f4ae3d; stroke-miterlimit:10; stroke-width:3px;"/><ellipse cx="242.4382" cy="156.4921" rx="35.8056" ry="30.8736" transform="translate(73.6528 390.5381) rotate(-87.0442)" style="fill:none; stroke:#f4ae3d; stroke-miterlimit:10; stroke-width:3px;"/></g><g id="uuid-7f058214-c45b-433b-ab71-311276240742"><path d="m246.3422,159.0166l-14.7614-.8404c-1.3886-.0893-2.4461-1.4054-2.3618-2.9395.0842-1.5342,1.2782-2.7054,2.6669-2.6162l14.7613.8404c1.389.0892,2.447,1.4053,2.362,2.9395-.084,1.5342-1.278,2.7054-2.667,2.6162Z" style="fill:#f4ae3d; stroke-width:0px;"/><path d="m234.8139,164.7778c-1.05-2.13-3.76-3.12-7.02-2.55-1.08.19-2.21.55-3.37,1.1.16-2.93-2.13-5.27-5.73-5.31-.94-.01-1.97.13-3.07.47-6.8,2.0699-9.77,3.03-16.32,5.28s-9.44,2.86-19.26,6.51c-9.81,3.66-11.77,3.52-16.57,4.18-4.8.66-8.36,1.68-14.36,4.04-6,2.36-14.58,4.53-22.1,7.86-7.52,3.3199-15.45,12.18-22.25,13.69-6.97,2.54-29.35,9.53-57.68,18.31,17.58,4.7,26.39,39.37,52.24,31.95,0,0,9.46-2.93,13.54-4.28,10.75-3.55,13.39.21,34.13-3.26,8.89-1.49,10.75-2.45,16.91-4.53,9.31-3.17,8.77-5.32,11.67-8.39,2.9-3.08,6.64-8.76,2.61-10.91,9-4.03,14.09-5.04,12.04-12.08-2.04-7.04-10.7-6.13-10.72-6.33,10.38-5.71,14.91-7.28,27.7-14.02,12.79-6.73,17.32-9.36,22.75-12.65,2.03-1.23,3.66-2.53,4.59-3.96,1-1.53,1.2-3.21.27-5.12Z" style="fill:#f4f4f4; stroke-width:0px;"/><path d="m99.3273,250.3099c5.4706-2.0768,11.0155-4.2606,16.6133-5.9645,3.8417-1.0403,7.9299-.9954,11.8458-.9896,5.814.0003,11.5748-.5051,17.316-1.4721,7.6703-1.0914,15.0643-3.3565,22.1837-6.2576,1.7122-.7657,3.3064-1.6622,4.4662-2.9262,1.149-1.3607,2.4089-3.1474,3.7188-4.4633,1.5926-1.9253,5.307-6.5362,2.2408-8.4173-.71-.3898-.683-1.4722.0623-1.795,3.562-1.7279,7.6393-2.8183,10.6105-5.3438,2.5495-2.5302.9524-7.3519-1.684-9.2542-2.0132-1.4683-4.6996-1.8259-7.1621-1.8776-1.014-.0131-1.4469-1.3906-.5159-1.9016,14.8372-7.8664,29.7501-14.5352,44.4072-23.0909,3.835-2.6274,14.5125-6.4852,9.7794-12.2663-2.204-1.9307-5.8134-1.2547-8.3545-.061-.5045.2321-1.1016.0113-1.3336-.4932-.0701-.15-.0975-.3083-.0913-.464.1465-2.3871-1.8997-4.0973-4.2214-4.2337-2.0953-.2659-5.5044,1.1703-7.5494,1.78-10.3287,3.4283-20.8677,6.5518-31.0813,10.3321-2.5724.956-5.1688,1.8814-7.8447,2.6479-2.641.7893-5.4839,1.214-8.198,1.5257-5.4261.592-10.4751,2.2537-15.5322,4.2854-10.1847,3.883-21.1042,5.7586-29.7161,12.7736-4.5369,3.2349-8.68,7.1286-14.3021,8.6408-3.5073,1.4205-10.1877,3.3489-14.314,4.6082-13.9938,4.1784-29.6017,8.7306-43.5833,12.722,15.1282-5.054,38.9899-12.8795,53.7696-18.066,0,0,3.568-1.1799,3.568-1.1799,7.8184-2.3008,13.4125-9.2242,20.6443-12.9187,7.4109-3.6367,15.6008-5.572,23.2159-8.4468,2.5399-.9901,5.1365-1.9816,7.8114-2.7561,5.2388-1.6853,10.8801-1.5603,16.0914-3.1123,2.5815-.7394,5.141-1.6496,7.6929-2.5983,10.3001-3.8117,20.7512-6.9048,31.1773-10.3653,2.3782-.6966,5.707-2.1794,8.3222-1.8649,3.2079.1344,6.3469,2.9163,6.0465,6.3315.0002-.0001-1.4246-.9572-1.4246-.9572,3.2819-1.4938,7.5325-2.2448,10.5764.4127,3.2322,3.2394,1.759,7.7238-1.5184,10.0852-5.5257,3.9538-11.5195,6.9396-17.4201,10.2382-5.8892,3.158-11.7946,6.3022-17.8114,9.2466-6.0231,2.9343-12.0288,5.7637-17.8429,8.9974l.5155-.9518c.0162-.413-.4439-.8724-.7866-.8915.2347.0111.6216.0253.8528.0341,5.4814.0569,10.5586,3.166,11.0276,9.0194.5889,4.0505-2.2062,6.3648-5.4825,7.906-2.5234,1.2347-5.0511,2.2158-7.5217,3.3338l.0625-1.7948c.0089.0053.7722.4978.7817.5038,5.0055,4.5181-3.234,11.9847-5.926,15.7626-1.4952,1.6328-3.3997,2.6756-5.2301,3.5062-3.739,1.5882-7.3446,2.7425-11.1844,3.9954-11.4629,3.1239-23.334,3.937-35.1414,3.494-3.8859-.026-7.5367.9369-11.2719,2.0145-3.7662,1.0592-7.5552,2.0424-11.3543,2.9783h0Z" style="fill:#30373e; stroke-width:0px;"/><path d="m224.6947,164.3023c-4.7212,1.973-8.9885,4.7631-13.6577,6.9266-4.7406,2.1004-9.6135,3.5115-14.3481,5.5278-7.9583,3.2348-15.7477,7.2496-23.9004,10.1304-1.7403.4977-3.7093-.2262-4.8281-1.4884,1.332.1815,2.5449.3612,3.6304.2152.8642-.0705,2.5002-.8569,3.3837-1.1844,7.1372-2.8693,13.8656-6.4386,21.0059-9.4098,4.686-1.9841,9.68-3.4348,14.2974-5.4662,4.5895-2.0247,8.9747-4.8301,13.8603-6.644.8746-.3254,1.4528,1.0065.5566,1.3928h0Z" style="fill:#30373e; stroke-width:0px;"/><path d="m179.8432,201.4645c-1.7582.3265-3.6612.7098-5.0396,1.9298.9326-1.7269,2.7167-2.8281,4.3623-3.8117.4882-.2859,1.1181-.1167,1.397.3753.3563.598-.0351,1.4069-.7197,1.5066h0Z" style="fill:#30373e; stroke-width:0px;"/><path d="m178.5199,219.3114c-1.7156.721-3.6345,1.1794-5.3042,1.9014-.396.1983-.7231.4108-.9297.7836-.7228,1.1769-.8215,2.6379-.5879,3.9991-.4257-1.3521-.5088-2.9209.0957-4.2588.1899-.4953.6333-.8988,1.0459-1.1668,1.6687-1.0104,3.3864-1.6449,5.0376-2.614.9205-.5011,1.6178.9574.6426,1.3554h0Z" style="fill:#30373e; stroke-width:0px;"/><path d="m166.039,189.6665c-1.6288.4168-3.3368.0199-4.9209.5161-1.6002.4276-2.9179,1.3841-4.4775,2.0376,2.4891-3.4095,5.6075-3.6145,9.3984-2.5537h0Z" style="fill:#30373e; stroke-width:0px;"/><path d="m166.0126,207.51c-2.2799-.0528-4.233.4876-6.4096,1.1027,1.3958-1.9798,4.4538-2.4602,6.4096-1.1027h0Z" style="fill:#30373e; stroke-width:0px;"/><path d="m162.5834,176.7786c-1.5645.394-3.207.0004-4.7373.421-1.5317.369-2.8436,1.1859-4.3452,1.7956,2.2429-3.2638,5.6245-3.2154,9.0825-2.2167h0Z" style="fill:#30373e; stroke-width:0px;"/><path d="m162.1815,227.1649c.6291-1.6961,2.9608-2.5185,4.5527-1.6727-1.6863.6371-2.8757,1.0185-4.5527,1.6727h0Z" style="fill:#30373e; stroke-width:0px;"/><path d="m228.0063,163.6661c-1.5049.9206-3.0938,1.8004-4.4126,2.8603-1.2246,1.1174-.4658,3.0856.3955,4.2497.9631,1.4927,2.3431,2.0709,4.0172,1.3675,1.6162-.6193,3.25-1.309,4.8188-2.14-2.7171,2.1524-7.0529,5.4895-9.6361,1.3514-.8266-1.1487-1.402-2.708-.9376-4.1406.1563-.4894.4985-.9468.9087-1.2304,1.5469-1.0278,3.1821-1.6734,4.8462-2.3179h0Z" style="fill:#30373e; stroke-width:0px;"/><path d="m218.6317,159.309c-1.4416.6588-2.8966,1.3188-4.2598,2.116-.4678.2635-.7651.5653-.9438,1.0064-.6483,1.7383.591,4.022,1.8754,5.1082.5051.3555-.0275,1.1561-.5503.8341-1.8589-1.3284-2.8596-4.0546-1.9142-6.2212.2531-.5404.8068-.971,1.2887-1.1716,1.4536-.6936,2.9771-1.1869,4.5039-1.6719h0Z" style="fill:#30373e; stroke-width:0px;"/></g></svg>