<?xml version="1.0" encoding="UTF-8"?><svg id="uuid-a4f7d0fa-f142-4c37-9c3b-73b6a2936551" xmlns="http://www.w3.org/2000/svg" width="325" height="187.997" viewBox="0 0 325 187.997"><path d="m162.5,146.291c-44.189,0-71.549-.797-86.719-1.466-2.142-.099-4.238-.66-6.144-1.642-1.906-.983-3.578-2.365-4.902-4.052-1.324-1.687-2.268-3.64-2.769-5.725-.501-2.085-.546-4.253-.133-6.358l7.955-40.268c.786-3.975,2.967-7.539,6.148-10.05l18.291-14.425c3.069-2.417,6.695-4.025,10.547-4.677l32.478-5.467c.9-.151,1.824.05,2.58.562l3.358,2.277c1.038.703,2.263,1.078,3.517,1.077h15.794" style="fill:none; stroke:#a6abb0; stroke-linecap:round; stroke-linejoin:round;"/><path d="m162.502,146.291c44.188,0,71.549-.797,86.719-1.466,2.142-.099,4.238-.66,6.143-1.642,1.906-.983,3.578-2.365,4.903-4.052,1.323-1.687,2.268-3.64,2.769-5.725.5-2.085.546-4.253.132-6.358l-7.955-40.268c-.787-3.975-2.967-7.539-6.148-10.05l-18.291-14.425c-3.068-2.417-6.695-4.025-10.547-4.677l-32.478-5.467c-.9-.151-1.823.05-2.58.562l-3.358,2.277c-1.037.703-2.263,1.078-3.517,1.077h-15.794" style="fill:none; stroke:#a6abb0; stroke-linecap:round; stroke-linejoin:round;"/><path d="m58.973,127.701l-3.938.182" style="fill:none; stroke:#a6abb0; stroke-linecap:round; stroke-linejoin:round; stroke-width:.5px;"/><path d="m266.778,88.559c-.001,1.214.363,2.4,1.046,3.404.683,1.004,1.653,1.778,2.783,2.222v2.522h4.41v-2.522c1.129-.445,2.098-1.22,2.781-2.223.683-1.003,1.048-2.189,1.048-3.402s-.365-2.399-1.048-3.403c-.683-1.003-1.652-1.778-2.781-2.223v-1.815h-4.41v1.815c-1.13.444-2.099,1.219-2.782,2.222s-1.048,2.19-1.046,3.403h0Z" style="fill:#f4ae3d; stroke:#30373e; stroke-miterlimit:10;"/><path d="m162.501,149.013c44.239,0,71.642-.798,86.84-1.468,2.534-.116,5.013-.779,7.266-1.941,2.255-1.162,4.233-2.795,5.799-4.791,1.566-1.995,2.682-4.304,3.274-6.771.592-2.466.646-5.031.157-7.519l-7.955-40.269c-.911-4.613-3.44-8.748-7.131-11.66l-18.29-14.424c-3.429-2.7-7.48-4.496-11.783-5.223l-32.478-5.467c-.345-.059-.696-.088-1.048-.089-1.251,0-2.473.377-3.508,1.079l-3.358,2.277c-.588.398-1.281.61-1.99.61h-31.589c-.709,0-1.402-.212-1.99-.61l-3.358-2.277c-1.035-.703-2.258-1.079-3.509-1.079-.351,0-.701.03-1.047.089l-32.479,5.468c-4.303.727-8.355,2.523-11.783,5.223l-18.289,14.425c-3.691,2.912-6.22,7.047-7.131,11.659l-7.955,40.268c-.489,2.489-.436,5.054.156,7.52.592,2.466,1.709,4.776,3.275,6.771,1.566,1.995,3.543,3.63,5.798,4.791,2.255,1.162,4.733,1.823,7.267,1.941,15.198.669,42.601,1.467,86.84,1.467" style="fill:none; stroke:#a6abb0; stroke-linecap:round; stroke-linejoin:round;"/><path d="m284.4,63.871l2.876,132.456c.092,4.23-1.157,8.381-3.568,11.857l-5.739,8.279c-.668.963-1.127,2.053-1.352,3.201l-16.97,87.096" style="fill:none; stroke:#a6abb0; stroke-linecap:round; stroke-linejoin:round; stroke-width:.5px;"/><path d="m87.932,35.093c0,23.114-5.724,25.46-8.743,25.46-5.465,0-8.743-12.522-8.743-20.426" style="fill:none; stroke:#a6abb0; stroke-linecap:round; stroke-linejoin:round; stroke-width:.5px;"/><path d="m71.08,77.754l-30.479-13.883" style="fill:none; stroke:#a6abb0; stroke-linecap:round; stroke-linejoin:round; stroke-width:.5px;"/><path d="m40.601,63.871l-2.876,132.456c-.092,4.23,1.157,8.381,3.567,11.857l5.74,8.279c.667.963,1.127,2.053,1.351,3.201l16.971,87.096" style="fill:none; stroke:#a6abb0; stroke-linecap:round; stroke-linejoin:round; stroke-width:.5px;"/><path d="m46.913,207.683l5.46-4.175c.28-.214.507-.49.663-.806.156-.316.237-.664.237-1.015v-13.169c0-.455.135-.9.389-1.278.254-.378.614-.672,1.035-.845l3.805-1.556c.418-.171.775-.462,1.029-.834.253-.374.391-.813.396-1.264l.277-26.627c.006-.528-.172-1.044-.502-1.456l-3.21-4.014c-.325-.407-.502-.912-.502-1.432v-20.418c0-.123-.025-.245-.074-.359-.048-.114-.12-.216-.209-.301-.089-.085-.195-.151-.31-.195s-.239-.063-.362-.057l-4.404.203c-1.216.056-2.368.565-3.23,1.424-.862.861-1.372,2.011-1.43,3.229l-3.223,67.411c-.022.462.096.918.338,1.311l3.828,6.222Z" style="fill:none; stroke:#a6abb0; stroke-linecap:round; stroke-linejoin:round; stroke-width:.5px;"/><path d="m58.503,184.838c30.375-9.427,55.52-11.237,103.997-11.237" style="fill:none; stroke:#a6abb0; stroke-linecap:round; stroke-linejoin:round; stroke-width:.5px;"/><path d="m162.501,152.641c-13.003,0-48.307.43-55.884.524-.422.005-.833.141-1.175.389-.342.248-.599.595-.736.995l-5.032,14.745c-.108.317-.137.656-.084.987.054.33.187.642.39.91.203.267.468.48.772.62.304.14.638.203.973.184,6.651-.376,24.85-1.162,60.776-1.162" style="fill:none; stroke:#a6abb0; stroke-linecap:round; stroke-linejoin:round; stroke-width:.5px;"/><path d="m237.069,35.093c0,23.114,5.725,25.46,8.743,25.46,5.465,0,8.742-12.522,8.742-20.426" style="fill:none; stroke:#a6abb0; stroke-linecap:round; stroke-linejoin:round; stroke-width:.5px;"/><path d="m278.087,207.683l-5.46-4.175c-.28-.214-.507-.49-.663-.806-.157-.316-.237-.664-.237-1.015v-13.169c0-.455-.135-.9-.389-1.278-.254-.378-.614-.672-1.035-.845l-3.804-1.556c-.417-.171-.776-.462-1.028-.834-.254-.374-.392-.813-.396-1.264l-.278-26.627c-.005-.528.173-1.044.503-1.456l3.21-4.015c.325-.406.502-.911.502-1.431v-20.418c0-.123.025-.245.074-.359.048-.114.119-.216.209-.301.089-.085.194-.151.31-.195.115-.043.238-.063.362-.057" style="fill:none; stroke:#a6abb0; stroke-linecap:round; stroke-linejoin:round; stroke-width:.5px;"/><path d="m266.497,184.838c-30.375-9.427-55.519-11.237-103.996-11.237" style="fill:none; stroke:#a6abb0; stroke-linecap:round; stroke-linejoin:round; stroke-width:.5px;"/><path d="m162.501,152.641c13.004,0,48.308.43,55.884.524.423.005.833.141,1.176.389.341.248.599.595.735.995l5.032,14.745c.108.317.137.656.084.987-.054.33-.188.643-.391.91-.202.267-.468.48-.772.62-.304.14-.638.203-.973.184-6.651-.376-24.85-1.162-60.775-1.162" style="fill:none; stroke:#a6abb0; stroke-linecap:round; stroke-linejoin:round; stroke-width:.5px;"/><path d="m164.109,42.046c.002-.212-.038-.423-.118-.619-.08-.197-.198-.375-.348-.526-.15-.151-.328-.27-.524-.352-.196-.082-.406-.124-.618-.124s-.422.042-.618.124c-.196.082-.374.201-.523.352-.15.151-.268.33-.349.526-.08.197-.12.407-.118.619v6.129c-.002.212.038.423.118.62.081.197.199.375.349.526s.327.27.523.352c.196.082.406.124.618.124s.422-.042.618-.124c.196-.082.375-.201.524-.352.15-.151.268-.33.348-.526.08-.197.12-.407.118-.62v-6.129Z" style="fill:none; stroke:#a6abb0; stroke-linecap:round; stroke-linejoin:round;"/><path d="m184.227,47.577c-1.851-4.684-4.13-9.187-6.809-13.452-.276-.41-.649-.746-1.084-.979-.436-.233-.923-.354-1.417-.355h-24.832c-.495,0-.981.122-1.417.355-.436.233-.808.569-1.084.979-2.679,4.265-4.958,8.768-6.809,13.452" style="fill:none; stroke:#a6abb0; stroke-linecap:round; stroke-linejoin:round; stroke-width:.5px;"/><path d="m21.267,222.026l3.515-135.246" style="fill:none; stroke:#a6abb0; stroke-linecap:round; stroke-linejoin:round; stroke-width:.5px;"/><path d="m284.777,80.557l2.499,115.77c.092,4.23-1.157,8.381-3.568,11.857l-1.719,2.481-3.9-2.982,3.829-6.222c.241-.393.36-.851.337-1.311l-3.224-67.412c-.059-1.216-.568-2.367-1.43-3.228-.862-.861-2.013-1.368-3.23-1.424l-4.406-.203-3.938-.182" style="fill:none; stroke:#a6abb0; stroke-linecap:round; stroke-linejoin:round; stroke-width:.5px;"/><path d="m253.921,77.753l30.478-13.882.364,16.735" style="fill:none; stroke:#a6abb0; stroke-linecap:round; stroke-linejoin:round; stroke-width:.5px;"/><path d="m162.501,28.569c-43.464,0-70.69,5.233-84.006,8.72-6.05,1.573-11.756,4.251-16.831,7.901-6.336,4.556-12.016,9.058-16.202,12.501-5.421,4.446-10.046,9.782-13.677,15.779-2.845,4.68-5.37,9.548-7.556,14.569-1.753,3.995-2.728,8.287-2.875,12.646l-2.271,86.708c-.881,33.6,5.824,43.16,5.983,72.854-2.334,1.604-5.129,3.541-7.908,5.542-.063.047-.143.095-.222.159-4.526,3.255-8.972,6.686-11.211,9.195-4.716,5.304-4.907,7.828-4.716,13.037.175,5.208,1.222,6.336,3.223,5.986,1.667-.286,14.911-5.256,20.802-7.559v.446s.013,5.501.033,13.879l.01,4.26" style="fill:none; stroke:#a6abb0; stroke-linecap:round; stroke-linejoin:round; stroke-width:1.5px;"/><path d="m162.5,28.569c43.463,0,70.689,5.233,84.005,8.72,6.05,1.573,11.756,4.251,16.831,7.901,6.336,4.556,12.016,9.058,16.202,12.501,5.422,4.446,10.046,9.782,13.677,15.779,2.846,4.68,5.37,9.548,7.556,14.569,1.753,3.995,2.729,8.287,2.875,12.646l2.272,86.708c.881,33.6-5.825,43.16-5.983,72.854,2.335,1.604,5.129,3.541,7.908,5.542.064.047.142.095.222.159,4.526,3.255,8.972,6.686,11.21,9.195,4.717,5.304,4.908,7.828,4.717,13.037-.175,5.208-1.222,6.336-3.224,5.986-1.667-.286-14.911-5.256-20.802-7.559v.446s-.012,5.501-.032,13.879l-.01,4.26" style="fill:none; stroke:#a6abb0; stroke-linecap:round; stroke-linejoin:round; stroke-width:1.5px;"/><path d="m117.485,97.769l-.027-2.114c-.126-.832.304-1.786,1.22-1.906,2.135-.054,4.288-.009,6.389.006.325-.034.865.071,1.133.279,1.528.862,3.087,1.726,4.509,2.768-1.326-.514-2.576-1.165-3.825-1.818l-.932-.5c-.329-.199-.479-.209-.886-.195l-2.114.02-4.179.02c-.676.119-.799.736-.76,1.326,0,0-.028,2.114-.028,2.114h-.5Z" style="fill:#a6abb0; stroke-width:0px;"/><path d="m171.589,87.031c-1.17-.012-2.398.34-2.765,1.559,0,0-.96,3.614-.96,3.614-.605,2.139-1.314,5.205-2.177,7.235.135-1.265.422-2.488.71-3.711l.909-3.657c.812-2.648.575-5.747,4.284-5.54,0,0,0,.5,0,.5h0Z" style="fill:#a6abb0; stroke-width:0px;"/><path d="m165.825,104.544l2.904,3.238c.205.228.496.358.803.358h41.894c.596,0,1.078.483,1.078,1.078v9.638c0,.596.483,1.078,1.078,1.078h23.75l4.94-5.44-2.807-17.189c-.123-.751-.511-1.434-1.095-1.922l-21.152-17.712c-.571-.478-1.293-.741-2.038-.741h-27.264c-.806,0-1.581.306-2.17.857l-8.692,8.136c-.588.551-1.364.857-2.17.857h-12.073" style="fill:none; stroke:#a6abb0; stroke-miterlimit:10; stroke-width:.5px;"/><path d="m144.768,54.717c-11.485.335-31.059,2.098-43.646,5.813-1.364.403-2.635,1.051-3.777,1.899-3.858,2.866-13.563,10.201-20.827,16.765-2.016,1.822-3.418,4.218-4.019,6.868-1.845,8.145-5.989,27.22-7.686,41.43-.674,5.642,4.013,7.364,7.067,7.522.264.014.468.241.468.505v1.546s1.587,2.324,3.583,4.389c.897.927,2.125,1.462,3.414,1.462h22.249c.534,0,1.062-.09,1.566-.268,2.384-.84,9.799-3.476,14.218-5.317" style="fill:none; stroke:#a6abb0; stroke-miterlimit:10; stroke-width:.5px;"/><path d="m162.813,63.476l-7.164.027c-1.352-.057-4.166.202-5.435-.215-2.267-.53-4.515-1.689-6.864-1.514,0,0-1.788.064-1.788.064-7.085.364-14.348.656-21.273,2.194-1.126.378-1.932,1.233-2.787,2.036,0,0-2.616,2.447-2.616,2.447-1.755,1.62-3.521,3.229-5.308,4.815,1.667-1.712,3.355-3.402,5.054-5.081l2.565-2.501c2.55-3.094,6.356-2.732,10.038-3.379,5.952-.6,11.959-1.228,17.94-1.102,1.724.421,3.503.991,5.204,1.46,1.161.37,4.046.157,5.27.22,0,0,7.164.027,7.164.027v.5h0Z" style="fill:#a6abb0; stroke-width:0px;"/><path d="m162.813,78.9l-6.858.017c-1.101-.061-2.508.231-3.504-.381-.855-.622-1.813-1.636-2.576-2.356-.713-.644-1.717-1.777-2.467-2.261-.749-.473-2.35-.24-3.232-.287,0,0-6.858.015-6.858.015-4.58-.003-16.155-.011-20.574-.014l-3.429-.002c-.959.031-2.398-.096-3.306.274-1.085.328-1.896,1.058-2.746,1.803,0,0-2.603,2.232-2.603,2.232-3.331,2.854-12.182,10.448-15.619,13.393-1.36,1.269-3.983,2.939-4.453,4.882-.327.919-.414,2.357-.646,3.325-.404,2.21-1.386,7.86-1.796,10.123-.37,2.114-1.179,4.634.839,6.216-1.408-.531-2.08-2.329-1.809-3.76.101-.484.343-2.017.446-2.534.396-2.311,1.402-7.921,1.785-10.137.199-1.056.364-2.372.66-3.403.504-2.107,3.129-3.756,4.612-5.136,3.482-2.995,12.243-10.526,15.601-13.414l2.6-2.236c.857-.762,1.802-1.582,2.944-1.92.976-.394,2.454-.291,3.491-.308,6.203-.027,17.696.005,24.004-.016,0,0,6.858.016,6.858.016,1,.067,2.574-.211,3.514.377.533.244.923.813,1.349,1.169.598.6,1.857,1.792,2.458,2.391.423.383.798.849,1.227,1.091.86.517,2.263.266,3.23.324,0,0,6.858.016,6.858.016v.5h0Z" style="fill:#a6abb0; stroke-width:0px;"/><path d="m162.813,69.705h-8.904c-.689,0-1.35.183-1.845.509l-3.953,2.608c-.495.326-1.156.509-1.845.509" style="fill:none; stroke:#a6abb0; stroke-miterlimit:10; stroke-width:.5px;"/><path d="m162.813,87.031c-2.273.006-7.714.015-9.89.021-1.056-.051-2.349.166-3.369-.204-.979-.335-1.901-1.442-2.654-2.098-1.512-1.401-5.66-5.291-7.223-6.755-.793-.771-1.801-.817-2.883-.777-7.452-.012-18.873-.012-26.372-.022-1.107-.028-1.889.689-2.697,1.389,0,0-5.059,4.229-5.059,4.229l-10.118,8.458-5.077,4.207c-.415.325-.734.737-.933,1.215-1.211,5.838-2.028,11.935-3.185,17.801.913-5.951,1.664-12.048,2.818-17.951.213-.542.584-1.03,1.03-1.389l5.034-4.259,10.104-8.474,5.052-4.237c.818-.736,1.823-1.565,3.029-1.516,7.517-.002,18.906-.02,26.376-.023,1.096-.066,2.433.062,3.277.927,1.567,1.47,5.703,5.328,7.218,6.762.642.559,1.637,1.731,2.456,1.992.877.324,2.237.133,3.178.184,0,0,3.297.007,3.297.007l6.593.014v.5h0Z" style="fill:#a6abb0; stroke-width:0px;"/><path d="m108.497,78.522c-2.573,3.314-4.68,7.073-7.743,9.962,0,0-3.059,2.883-3.059,2.883l-6.101,5.74c-.432.504-.631,1.107-.689,1.81-.204,1.379-.665,4.912-.918,6.316-1.819,2.717-3.673,5.41-5.533,8.1,1.671-2.653,3.626-5.864,5.206-8.222,0,0,.523-4.17.523-4.17.247-1.261.116-3.11,1.05-4.136,2.943-2.866,6.235-5.826,9.231-8.629,3.103-2.82,5.302-6.479,8.032-9.652h0Z" style="fill:#a6abb0; stroke-width:0px;"/><path d="m87.081,96.371c1.247-.044,2.424.242,3.508.861-1.247.047-2.423-.244-3.508-.861h0Z" style="fill:#a6abb0; stroke-width:0px;"/><path d="m103.066,87.304c3.162-.189,6.325-.222,9.489-.245.818.004,1.723-.112,2.433.387.708.381,1.021,1.399,1.29,2.095.544,1.486,1.092,2.97,1.573,4.481-.697-1.424-1.327-2.876-1.962-4.325l-.454-1.081c-.307-.638-.99-1.072-1.698-1.066-3.556-.008-7.121-.037-10.672-.246h0Z" style="fill:#a6abb0; stroke-width:0px;"/><path d="m90.751,105.494c3.936,2.935,8.989,6.24,8.812,11.75-.346-2.426-1.506-4.887-3.234-6.599-1.837-1.722-3.779-3.358-5.578-5.151h0Z" style="fill:#a6abb0; stroke-width:0px;"/><path d="m118.261,64.031c-.542-.692-2.983-4.039-3.554-4.574-.951-.765-2.196-.259-3.307-.179-4.443.843-9.487.954-12.985,4.153-2.264,1.861-8.439,6.935-10.786,8.864-2.41,2.099-8.573,6.664-10.667,8.917-2.056,2.347-2.59,5.535-3.192,8.508-.364,1.883-1.067,4.098,1.587,4.458,2.047.392,5.909,1.137,7.996,1.537-2.102-.349-5.963-.982-8.034-1.326-2.817-.345-2.263-2.651-1.86-4.725.57-3.037,1.063-6.314,3.173-8.731,1.012-1.234,2.327-2.122,3.498-3.122l7.188-5.906c2.375-1.931,8.524-6.936,10.824-8.807,3.54-3.219,8.739-3.289,13.228-4.061,1.122-.06,2.466-.529,3.433.303.616.544,2.892,4.003,3.458,4.692h0Z" style="fill:#a6abb0; stroke-width:0px;"/><path d="m113.121,59.681c-12.309,10.656-26.079,22.104-38.808,32.255,12.307-10.658,26.08-22.102,38.808-32.255h0Z" style="fill:#a6abb0; stroke-width:0px;"/><polygon points="96.475 76.932 103.066 71.628 104.093 72.261 97.502 77.565 96.475 76.932" style="fill:none; stroke:#a6abb0; stroke-miterlimit:10;"/><rect x="116.567" y="96.801" width="49.259" height="24.735" rx="3.629" ry="3.629" style="fill:#f4ae3d; stroke:#30373e; stroke-miterlimit:10;"/><line x1="71.881" y1="135.013" x2="77.786" y2="131.558" style="fill:none; stroke:#a6abb0; stroke-miterlimit:10; stroke-width:.5px;"/><polyline points="72.349 137.064 75.918 137.064 77.365 135.998 94.236 135.998" style="fill:none; stroke:#a6abb0; stroke-miterlimit:10; stroke-width:.5px;"/><polyline points="74.833 140.249 75.971 140.249 82.085 135.998" style="fill:none; stroke:#a6abb0; stroke-miterlimit:10; stroke-width:.5px;"/><polyline points="75.918 137.064 75.918 135.376 80.117 132.734" style="fill:none; stroke:#a6abb0; stroke-miterlimit:10; stroke-width:.5px;"/><line x1="75.918" y1="135.376" x2="72.349" y2="135.376" style="fill:none; stroke:#a6abb0; stroke-miterlimit:10; stroke-width:.5px;"/><path d="m76.675,134.899c.21-.132,12.76,0,12.76,0" style="fill:none; stroke:#a6abb0; stroke-miterlimit:10; stroke-width:.5px;"/><line x1="78.459" y1="134.841" x2="81.377" y2="133.029" style="fill:none; stroke:#a6abb0; stroke-miterlimit:10; stroke-width:.5px;"/><line x1="75.971" y1="140.249" x2="75.971" y2="137.064" style="fill:none; stroke:#a6abb0; stroke-miterlimit:10; stroke-width:.5px;"/><path d="m80.64,114.495c-.706,1.986-1.743,4.752-2.335,6.739-.587,2.201-1.432,4.701-.288,6.856-2.506-3.591.899-10.126,2.623-13.594h0Z" style="fill:#a6abb0; stroke-width:0px;"/><path d="m115.493,118.002c0,.007-15.397.039-15.152.031,0,0-9.214,1.888-9.214,1.888l-2.304.472-.534.112c-.062.02-.103.099-.086.162.101.221.423.711.55.949.187.275.195.444.461.606.319.229.754.547,1.071.776.017.013.031.019.049.024l2.28.009c5.54.007,13.349.002,18.811.161-.126.036,1.699-.512,1.683-.504,0,0,.051-.015.051-.015l-.002.051-.037,1.129-.037-1.129.049.035-1.676.621c-6.165.191-14.383.147-20.605.168-.231-.015-.384.03-.656-.023-.21-.054-.394-.25-.572-.361-.305-.242-.701-.458-.988-.746-.266-.345-.412-.699-.636-1.039-.097-.217-.231-.309-.313-.585-.084-.32.102-.677.415-.789.27-.074.405-.089.614-.137l2.302-.479c.056-.005,9.216-1.93,9.266-1.923,0,0,15.21.037,15.21.037v.5h0Z" style="fill:#a6abb0; stroke-width:0px;"/><path d="m88.642,120.35c7.593-.308,15.189-.299,22.784-.128-.318.139,4.133-2.496,4.067-2.471,0,0-3.998,2.706-3.998,2.706l-.029.019h-.04c-7.595.171-15.191.181-22.784-.127h0Z" style="fill:#a6abb0; stroke-width:0px;"/><path d="m123.936,93.477c4.069-5.341,8.335-10.678,13.543-14.955-4.749,4.774-8.945,10.035-13.543,14.955h0Z" style="fill:#a6abb0; stroke-width:0px;"/><path d="m136.195,95.927c3.52-3.522,7.4-6.844,11.891-9.055-4.139,2.806-7.909,6.035-11.891,9.055h0Z" style="fill:#a6abb0; stroke-width:0px;"/><path d="m115.493,89.464c.327,10.909.33,22.914,0,33.823-.33-10.909-.327-22.914,0-33.823h0Z" style="fill:#a6abb0; stroke-width:0px;"/><path d="m180.857,54.717c11.485.335,31.059,2.098,43.646,5.813,1.364.403,2.635,1.051,3.777,1.899,3.858,2.866,13.563,10.201,20.827,16.765,2.016,1.822,3.418,4.218,4.019,6.868,1.845,8.145,5.989,27.22,7.686,41.43.674,5.642-4.013,7.364-7.067,7.522-.264.014-.468.241-.468.505v1.546s-1.587,2.324-3.583,4.389c-.897.927-2.125,1.462-3.414,1.462h-22.249c-.534,0-1.062-.09-1.566-.268-2.384-.84-9.799-3.476-14.218-5.317" style="fill:none; stroke:#a6abb0; stroke-miterlimit:10; stroke-width:.5px;"/><path d="m162.813,62.976l7.164-.027c1.246-.063,4.119.151,5.27-.22,2.291-.532,4.658-1.715,7.047-1.515,0,0,1.792.07,1.792.07,7.185.397,14.365.688,21.417,2.289,1.187.39,2.072,1.334,2.925,2.177,0,0,2.565,2.501,2.565,2.501,1.699,1.679,3.387,3.369,5.054,5.081-1.787-1.586-3.553-3.195-5.308-4.815l-2.616-2.447c-.856-.803-1.66-1.658-2.787-2.036-2.236-.575-4.658-.862-7.005-1.154-5.323-.609-10.699-.92-16.055-1.104-2.353-.176-4.598.986-6.864,1.514-1.275.417-4.106.158-5.435.215,0,0-7.164-.028-7.164-.028v-.5h0Z" style="fill:#a6abb0; stroke-width:0px;"/><path d="m162.813,78.4l6.858-.012c.979-.056,2.402.193,3.233-.323.677-.502,1.801-1.651,2.458-2.286.409-.441,1.45-1.376,1.845-1.792,1.02-1.214,2.861-.911,4.242-.942,0,0,6.858-.012,6.858-.012,4.578.004,16.157.014,20.574.018l3.429.003c1.033.027,2.507-.086,3.484.307,1.858.56,3.978,2.948,5.536,4.153,3.328,2.86,12.165,10.466,15.598,13.417,1.464,1.353,4.086,3.034,4.602,5.124.353,1.02.415,2.367.658,3.399.402,2.214,1.375,7.869,1.783,10.136.099.96.562,2.433.492,3.433-.066,1.175-.717,2.423-1.824,2.856.937-.702,1.335-1.796,1.377-2.883.01-.883-.372-2.411-.507-3.337-.4-2.309-1.413-7.91-1.799-10.124-.373-2.158-.579-4.606-2.506-5.992-6.515-5.539-15.627-13.468-22.126-18.931-1.396-1.042-3.044-1.051-4.768-1.003,0,0-3.429.003-3.429.003l-6.858.006-13.716.012-6.858-.012c-.833.06-2.502-.197-3.237.291-.436.229-.806.69-1.233,1.074-.601.597-1.864,1.785-2.468,2.38-.755.849-1.883,1.727-3.126,1.552-1.387-.005-7.129-.011-8.573-.015,0,0,0-.5,0-.5h0Z" style="fill:#a6abb0; stroke-width:0px;"/><path d="m162.813,69.705h8.904c.689,0,1.35.183,1.845.509l3.953,2.608c.495.326,1.156.509,1.845.509" style="fill:none; stroke:#a6abb0; stroke-miterlimit:10; stroke-width:.5px;"/><path d="m207.364,64.031c.548-.732,2.867-4.113,3.458-4.692.968-.832,2.314-.361,3.433-.303,4.487.77,9.689.843,13.228,4.06,2.272,1.849,8.469,6.891,10.824,8.807,2.401,2.113,8.628,6.77,10.686,9.029,2.109,2.417,2.603,5.693,3.173,8.731.396,2.047.967,4.389-1.86,4.725-2.055.338-5.938.981-8.034,1.326,2.094-.405,5.934-1.139,7.996-1.537,2.63-.349,1.964-2.568,1.586-4.458-.601-2.972-1.136-6.161-3.192-8.508-2.06-2.224-8.283-6.84-10.667-8.918-2.367-1.944-8.494-6.98-10.786-8.863-3.499-3.201-8.541-3.309-12.985-4.154-1.113-.08-2.356-.585-3.307.18-.6.499-2.99,3.928-3.554,4.574h0Z" style="fill:#a6abb0; stroke-width:0px;"/><path d="m212.504,59.681c12.727,10.153,26.501,21.597,38.808,32.255-12.729-10.151-26.499-21.599-38.808-32.255h0Z" style="fill:#a6abb0; stroke-width:0px;"/><polygon points="229.15 76.932 222.559 71.628 221.533 72.261 228.123 77.565 229.15 76.932" style="fill:none; stroke:#a6abb0; stroke-miterlimit:10;"/><line x1="253.744" y1="135.013" x2="247.839" y2="131.558" style="fill:none; stroke:#a6abb0; stroke-miterlimit:10; stroke-width:.5px;"/><polyline points="253.277 137.064 249.708 137.064 248.26 135.998 231.39 135.998" style="fill:none; stroke:#a6abb0; stroke-miterlimit:10; stroke-width:.5px;"/><polyline points="250.792 140.249 249.654 140.249 243.541 135.998" style="fill:none; stroke:#a6abb0; stroke-miterlimit:10; stroke-width:.5px;"/><polyline points="249.708 137.064 249.708 135.376 245.509 132.734" style="fill:none; stroke:#a6abb0; stroke-miterlimit:10; stroke-width:.5px;"/><line x1="249.708" y1="135.376" x2="253.277" y2="135.376" style="fill:none; stroke:#a6abb0; stroke-miterlimit:10; stroke-width:.5px;"/><path d="m248.95,134.899c-.21-.132-12.76,0-12.76,0" style="fill:none; stroke:#a6abb0; stroke-miterlimit:10; stroke-width:.5px;"/><line x1="247.166" y1="134.841" x2="244.248" y2="133.029" style="fill:none; stroke:#a6abb0; stroke-miterlimit:10; stroke-width:.5px;"/><line x1="249.654" y1="140.249" x2="249.654" y2="137.064" style="fill:none; stroke:#a6abb0; stroke-miterlimit:10; stroke-width:.5px;"/><path d="m244.986,114.495c1.721,3.463,5.129,10.002,2.623,13.594,1.144-2.155.299-4.654-.288-6.856-.589-1.977-1.634-4.767-2.335-6.739h0Z" style="fill:#a6abb0; stroke-width:0px;"/><path d="m237.478,119.732c.176.117,1.224.822,1.373.921,0,0-.171.243-.171.243-.525.693-1.136,1.752-1.66,2.261-1.099.412-2.142.956-3.348,1.114.952-.757,2.068-1.129,3.128-1.633l-.12.097c.489-.739,1.014-1.452,1.527-2.173l.068.403-1.087-.826.291-.407h0Z" style="fill:#a6abb0; stroke-width:0px;"/><rect x="171.086" y="91.004" width="41.418" height="15.285" rx="1.759" ry="1.759" style="fill:none; stroke:#a6abb0; stroke-miterlimit:10; stroke-width:.5px;"/><path d="m181.49,86.908c-.778.762-.243,2.083.845,2.081,8.861-.017,34.986-.002,43.531.004.898,0,1.288-1.132.58-1.685-3.005-2.348-8.3-6.488-10.256-8.031-.493-.388-1.097-.596-1.725-.596h-23.436c-.731,0-1.432.286-1.954.797l-7.585,7.43Z" style="fill:none; stroke:#a6abb0; stroke-miterlimit:10; stroke-width:.5px;"/><path d="m222.39,88.992s.866-.445,0-1.312-1.996-1.544-1.996-1.544c0,0-.866-.866-2.599-.866h-20.75c-.716,0-1.695.461-3.013,1.511s-1.431,1.804-1.431,2.199" style="fill:none; stroke:#a6abb0; stroke-miterlimit:10; stroke-width:.5px;"/><rect x="214.302" y="91.004" width="17.948" height="24.335" rx="2.153" ry="2.153" style="fill:none; stroke:#a6abb0; stroke-miterlimit:10; stroke-width:.5px;"/><rect x="215.207" y="93.11" width="16.137" height="20.951" rx="2.395" ry="2.395" style="fill:#f4ae3d; stroke:#30373e; stroke-miterlimit:10;"/><rect x="228.552" y="70.051" width="7.397" height="4.084" rx="2.042" ry="2.042" transform="translate(90.642 -125.606) rotate(37.142)" style="fill:#f4ae3d; stroke:#30373e; stroke-miterlimit:10;"/><rect x="229.928" y="70.969" width="4.643" height="2.248" rx="1.124" ry="1.124" transform="translate(90.642 -125.606) rotate(37.142)" style="fill:none; stroke:#30373e; stroke-miterlimit:10; stroke-width:.5px;"/><path d="m224.123,69.338l5.506-1.937s1.886-.719,2.901.112" style="fill:none; stroke:#a6abb0; stroke-miterlimit:10; stroke-width:.5px;"/><path d="m236.863,79.927s.76-5.626.815-6.42.115-1.683-.676-2.331" style="fill:none; stroke:#a6abb0; stroke-miterlimit:10; stroke-width:.5px;"/><path d="m162.813,123.852h-69.096s-7.42,1.886-12.314,2.082c-1.046.042-1.981.667-2.45,1.604l-1.084,2.167c-.055.11-.084.232-.084.355v1.498c0,.369.249.688.608.772,3.067.72,16.909,3.962,22.684,5.187h61.735" style="fill:none; stroke:#30373e; stroke-miterlimit:10;"/><path d="m77.786,129.872s16.778,3.948,23.292,5.33h61.735" style="fill:none; stroke:#30373e; stroke-miterlimit:10; stroke-width:.5px;"/><path d="m162.813,123.852h69.096s7.42,1.886,12.314,2.082c1.046.042,1.981.667,2.45,1.604l1.084,2.167c.055.11.084.232.084.355v1.498c0,.369-.249.688-.608.772-3.067.72-16.909,3.962-22.684,5.187h-61.735" style="fill:none; stroke:#30373e; stroke-miterlimit:10;"/><path d="m247.839,129.872s-16.778,3.948-23.292,5.33h-61.735" style="fill:none; stroke:#30373e; stroke-miterlimit:10; stroke-width:.5px;"/><line x1="272.79" y1="10.149" x2="272.79" y2="88.329" style="fill:none; stroke:#f4f4f4; stroke-linecap:round; stroke-linejoin:round; stroke-width:3px;"/><line x1="272.79" y1="10.149" x2="272.79" y2="88.329" style="fill:none; stroke:#f4f4f4; stroke-linecap:round; stroke-linejoin:round; stroke-width:3px;"/><line x1="272.79" y1="10.149" x2="272.79" y2="88.329" style="fill:none; stroke:#f4f4f4; stroke-linecap:round; stroke-linejoin:round; stroke-width:3px;"/><path d="m271.552,12.564c-.365-.19-.647-.462-.847-.814-.2-.353-.3-.763-.3-1.23,0-.318.052-.634.154-.946.104-.312.276-.68.52-1.104.381-.654.979-1.466,1.797-2.434h1.629l-.515.628c-.262.318-.512.621-.749.907-.237.287-.431.54-.58.759.125-.025.269-.038.431-.038.431,0,.814.098,1.151.291s.598.461.781.805c.185.343.276.729.276,1.16,0,.469-.106.877-.318,1.227s-.507.616-.885.8c-.377.185-.807.276-1.287.276-.474,0-.894-.095-1.259-.285Zm2.135-1.175c.215-.181.322-.44.322-.777v-.131c0-.343-.104-.604-.313-.781s-.488-.267-.838-.267-.638.087-.865.262c-.229.175-.342.437-.342.786v.131c0,.344.104.604.313.782s.494.267.856.267.65-.091.866-.271Z" style="fill:none; stroke:#f4f4f4; stroke-linecap:round; stroke-linejoin:round; stroke-width:3px;"/><circle cx="273.015" cy="9.533" r="5.958" style="fill:none; stroke:#f4f4f4; stroke-linecap:round; stroke-linejoin:round; stroke-width:3px;"/><path d="m273.015,3.563c-3.251,0-5.887,2.636-5.887,5.887v.166c0,3.251,2.636,5.887,5.887,5.887s5.887-2.636,5.887-5.887v-.166c0-3.251-2.636-5.887-5.887-5.887Z" style="fill:none; stroke:#f4f4f4; stroke-linecap:round; stroke-linejoin:round; stroke-width:3px;"/><path d="m271.552,12.564c-.365-.19-.647-.462-.847-.814-.2-.353-.3-.763-.3-1.23,0-.318.052-.634.154-.946.104-.312.276-.68.52-1.104.381-.654.979-1.466,1.797-2.434h1.629l-.515.628c-.262.318-.512.621-.749.907-.237.287-.431.54-.58.759.125-.025.269-.038.431-.038.431,0,.814.098,1.151.291s.598.461.781.805c.185.343.276.729.276,1.16,0,.469-.106.877-.318,1.227s-.507.616-.885.8c-.377.185-.807.276-1.287.276-.474,0-.894-.095-1.259-.285Zm2.135-1.175c.215-.181.322-.44.322-.777v-.131c0-.343-.104-.604-.313-.781s-.488-.267-.838-.267-.638.087-.865.262c-.229.175-.342.437-.342.786v.131c0,.344.104.604.313.782s.494.267.856.267.65-.091.866-.271Z" style="fill:none; stroke:#f4f4f4; stroke-linecap:round; stroke-linejoin:round; stroke-width:3px;"/><line x1="272.79" y1="10.149" x2="272.79" y2="88.329" style="fill:none; stroke:#f4f4f4; stroke-linecap:round; stroke-linejoin:round; stroke-width:3px;"/><line x1="272.79" y1="10.149" x2="272.79" y2="88.329" style="fill:none; stroke:#30373e; stroke-linecap:round; stroke-miterlimit:10;"/><circle cx="273.015" cy="9.533" r="5.958" style="fill:#30373e; stroke-width:0px;"/><path d="m273.015,3.563c-3.251,0-5.887,2.636-5.887,5.887v.166c0,3.251,2.636,5.887,5.887,5.887s5.887-2.636,5.887-5.887v-.166c0-3.251-2.636-5.887-5.887-5.887Z" style="fill:#30373e; stroke-width:0px;"/><path d="m271.552,12.564c-.365-.19-.647-.462-.847-.814-.2-.353-.3-.763-.3-1.23,0-.318.052-.634.154-.946.104-.312.276-.68.52-1.104.381-.654.979-1.466,1.797-2.434h1.629l-.515.628c-.262.318-.512.621-.749.907-.237.287-.431.54-.58.759.125-.025.269-.038.431-.038.431,0,.814.098,1.151.291s.598.461.781.805c.185.343.276.729.276,1.16,0,.469-.106.877-.318,1.227s-.507.616-.885.8c-.377.185-.807.276-1.287.276-.474,0-.894-.095-1.259-.285Zm2.135-1.175c.215-.181.322-.44.322-.777v-.131c0-.343-.104-.604-.313-.781s-.488-.267-.838-.267-.638.087-.865.262c-.229.175-.342.437-.342.786v.131c0,.344.104.604.313.782s.494.267.856.267.65-.091.866-.271Z" style="fill:#f4f4f4; stroke-width:0px;"/><line x1="232.507" y1="10.149" x2="232.507" y2="67.513" style="fill:none; stroke:#f4f4f4; stroke-linecap:round; stroke-linejoin:round; stroke-width:3px;"/><line x1="232.507" y1="10.149" x2="232.507" y2="67.513" style="fill:none; stroke:#f4f4f4; stroke-linecap:round; stroke-linejoin:round; stroke-width:3px;"/><line x1="232.507" y1="10.149" x2="232.507" y2="67.513" style="fill:none; stroke:#f4f4f4; stroke-linecap:round; stroke-linejoin:round; stroke-width:3px;"/><path d="m230.058,11.492l1.038-.739c.206.318.415.546.628.684.212.137.465.206.758.206.368,0,.653-.093.856-.276s.304-.454.304-.81v-.104c0-.337-.097-.583-.29-.739-.193-.155-.471-.233-.833-.233-.199,0-.381.023-.543.07-.162.046-.343.129-.543.248l-.926-.244.468-3.51h3.679v1.227h-2.593l-.15,1.132c.125-.037.251-.065.379-.084s.264-.028.407-.028c.469,0,.872.093,1.213.276.34.185.601.44.781.768.181.328.271.704.271,1.128,0,.48-.111.901-.332,1.264-.222.362-.526.641-.913.838-.387.196-.82.295-1.301.295-.986,0-1.772-.456-2.358-1.367Z" style="fill:none; stroke:#f4f4f4; stroke-linecap:round; stroke-linejoin:round; stroke-width:3px;"/><circle cx="232.732" cy="9.533" r="5.958" style="fill:none; stroke:#f4f4f4; stroke-linecap:round; stroke-linejoin:round; stroke-width:3px;"/><path d="m232.732,3.563c-3.22,0-5.831,2.611-5.831,5.831v.278c0,3.22,2.611,5.831,5.831,5.831s5.831-2.611,5.831-5.831v-.278c0-3.22-2.611-5.831-5.831-5.831Z" style="fill:none; stroke:#f4f4f4; stroke-linecap:round; stroke-linejoin:round; stroke-width:3px;"/><path d="m230.058,11.492l1.038-.739c.206.318.415.546.628.684.212.137.465.206.758.206.368,0,.653-.093.856-.276s.304-.454.304-.81v-.104c0-.337-.097-.583-.29-.739-.193-.155-.471-.233-.833-.233-.199,0-.381.023-.543.07-.162.046-.343.129-.543.248l-.926-.244.468-3.51h3.679v1.227h-2.593l-.15,1.132c.125-.037.251-.065.379-.084s.264-.028.407-.028c.469,0,.872.093,1.213.276.34.185.601.44.781.768.181.328.271.704.271,1.128,0,.48-.111.901-.332,1.264-.222.362-.526.641-.913.838-.387.196-.82.295-1.301.295-.986,0-1.772-.456-2.358-1.367Z" style="fill:none; stroke:#f4f4f4; stroke-linecap:round; stroke-linejoin:round; stroke-width:3px;"/><line x1="232.507" y1="10.149" x2="232.507" y2="67.513" style="fill:none; stroke:#f4f4f4; stroke-linecap:round; stroke-linejoin:round; stroke-width:3px;"/><line x1="232.507" y1="10.149" x2="232.507" y2="67.513" style="fill:none; stroke:#30373e; stroke-linecap:round; stroke-miterlimit:10;"/><circle cx="232.732" cy="9.533" r="5.958" style="fill:#30373e; stroke-width:0px;"/><path d="m232.732,3.563c-3.22,0-5.831,2.611-5.831,5.831v.278c0,3.22,2.611,5.831,5.831,5.831s5.831-2.611,5.831-5.831v-.278c0-3.22-2.611-5.831-5.831-5.831Z" style="fill:#30373e; stroke-width:0px;"/><path d="m230.058,11.492l1.038-.739c.206.318.415.546.628.684.212.137.465.206.758.206.368,0,.653-.093.856-.276s.304-.454.304-.81v-.104c0-.337-.097-.583-.29-.739-.193-.155-.471-.233-.833-.233-.199,0-.381.023-.543.07-.162.046-.343.129-.543.248l-.926-.244.468-3.51h3.679v1.227h-2.593l-.15,1.132c.125-.037.251-.065.379-.084s.264-.028.407-.028c.469,0,.872.093,1.213.276.34.185.601.44.781.768.181.328.271.704.271,1.128,0,.48-.111.901-.332,1.264-.222.362-.526.641-.913.838-.387.196-.82.295-1.301.295-.986,0-1.772-.456-2.358-1.367Z" style="fill:#f4f4f4; stroke-width:0px;"/><polyline points="212.951 10.149 212.951 85.271 223.608 95.927" style="fill:none; stroke:#f4f4f4; stroke-linecap:round; stroke-linejoin:round; stroke-width:3px;"/><polyline points="212.951 10.149 212.951 85.271 223.608 95.927" style="fill:none; stroke:#f4f4f4; stroke-linecap:round; stroke-linejoin:round; stroke-width:3px;"/><polyline points="212.951 10.149 212.951 85.271 223.608 95.927" style="fill:none; stroke:#f4f4f4; stroke-linecap:round; stroke-linejoin:round; stroke-width:3px;"/><path d="m213.479,11.258h-3.126v-.965l3.061-4.259h1.311v4.081h.917v1.143h-.917v1.497h-1.245v-1.497Zm0-1.143v-2.274l-1.638,2.274h1.638Z" style="fill:none; stroke:#f4f4f4; stroke-linecap:round; stroke-linejoin:round; stroke-width:3px;"/><circle cx="213.177" cy="9.533" r="5.958" style="fill:none; stroke:#f4f4f4; stroke-linecap:round; stroke-linejoin:round; stroke-width:3px;"/><path d="m213.177,3.563c-3.262,0-5.906,2.644-5.906,5.906v.128c0,3.262,2.644,5.906,5.906,5.906s5.906-2.644,5.906-5.906v-.128c0-3.262-2.644-5.906-5.906-5.906Z" style="fill:none; stroke:#f4f4f4; stroke-linecap:round; stroke-linejoin:round; stroke-width:3px;"/><path d="m213.479,11.258h-3.126v-.965l3.061-4.259h1.311v4.081h.917v1.143h-.917v1.497h-1.245v-1.497Zm0-1.143v-2.274l-1.638,2.274h1.638Z" style="fill:none; stroke:#f4f4f4; stroke-linecap:round; stroke-linejoin:round; stroke-width:3px;"/><polyline points="212.951 10.149 212.951 85.271 223.608 95.927" style="fill:none; stroke:#f4f4f4; stroke-linecap:round; stroke-linejoin:round; stroke-width:3px;"/><polyline points="212.951 10.149 212.951 85.271 223.608 95.927" style="fill:none; stroke:#30373e; stroke-linecap:round; stroke-miterlimit:10;"/><circle cx="213.177" cy="9.533" r="5.958" style="fill:#30373e; stroke-width:0px;"/><path d="m213.177,3.563c-3.262,0-5.906,2.644-5.906,5.906v.128c0,3.262,2.644,5.906,5.906,5.906s5.906-2.644,5.906-5.906v-.128c0-3.262-2.644-5.906-5.906-5.906Z" style="fill:#30373e; stroke-width:0px;"/><path d="m213.479,11.258h-3.126v-.965l3.061-4.259h1.311v4.081h.917v1.143h-.917v1.497h-1.245v-1.497Zm0-1.143v-2.274l-1.638,2.274h1.638Z" style="fill:#f4f4f4; stroke-width:0px;"/><line x1="195.416" y1="10.149" x2="195.416" y2="94.605" style="fill:none; stroke:#f4f4f4; stroke-linecap:round; stroke-linejoin:round; stroke-width:3px;"/><line x1="195.416" y1="10.149" x2="195.416" y2="94.605" style="fill:none; stroke:#f4f4f4; stroke-linecap:round; stroke-linejoin:round; stroke-width:3px;"/><line x1="195.416" y1="10.149" x2="195.416" y2="94.605" style="fill:none; stroke:#f4f4f4; stroke-linecap:round; stroke-linejoin:round; stroke-width:3px;"/><path d="m193.973,12.517c-.39-.228-.726-.566-1.006-1.016l1.039-.749c.174.318.366.546.575.684.209.137.47.206.781.206.337,0,.628-.067.871-.201.243-.135.365-.342.365-.623v-.112c0-.318-.108-.544-.323-.679-.216-.134-.579-.201-1.091-.201h-.468v-1.123h.449c.381,0,.691-.056.932-.168s.36-.325.36-.637v-.104c0-.225-.104-.392-.313-.5-.209-.109-.451-.164-.726-.164-.262,0-.498.067-.707.201s-.382.332-.52.595l-.982-.59c.225-.48.524-.835.898-1.062s.83-.342,1.366-.342c.655,0,1.19.156,1.605.468.415.312.623.777.623,1.395,0,.325-.065.604-.197.838-.131.234-.314.426-.552.576.3.155.525.355.679.599.152.243.229.543.229.898,0,.462-.114.855-.342,1.18-.229.324-.532.567-.913.729-.381.163-.799.244-1.254.244-.53,0-.991-.114-1.381-.342Z" style="fill:none; stroke:#f4f4f4; stroke-linecap:round; stroke-linejoin:round; stroke-width:3px;"/><circle cx="195.641" cy="9.533" r="5.958" style="fill:none; stroke:#f4f4f4; stroke-linecap:round; stroke-linejoin:round; stroke-width:3px;"/><path d="m195.641,3.563c-3.205,0-5.803,2.598-5.803,5.803v.335c0,3.205,2.598,5.803,5.803,5.803s5.803-2.598,5.803-5.803v-.335c0-3.205-2.598-5.803-5.803-5.803Z" style="fill:none; stroke:#f4f4f4; stroke-linecap:round; stroke-linejoin:round; stroke-width:3px;"/><path d="m193.973,12.517c-.39-.228-.726-.566-1.006-1.016l1.039-.749c.174.318.366.546.575.684.209.137.47.206.781.206.337,0,.628-.067.871-.201.243-.135.365-.342.365-.623v-.112c0-.318-.108-.544-.323-.679-.216-.134-.579-.201-1.091-.201h-.468v-1.123h.449c.381,0,.691-.056.932-.168s.36-.325.36-.637v-.104c0-.225-.104-.392-.313-.5-.209-.109-.451-.164-.726-.164-.262,0-.498.067-.707.201s-.382.332-.52.595l-.982-.59c.225-.48.524-.835.898-1.062s.83-.342,1.366-.342c.655,0,1.19.156,1.605.468.415.312.623.777.623,1.395,0,.325-.065.604-.197.838-.131.234-.314.426-.552.576.3.155.525.355.679.599.152.243.229.543.229.898,0,.462-.114.855-.342,1.18-.229.324-.532.567-.913.729-.381.163-.799.244-1.254.244-.53,0-.991-.114-1.381-.342Z" style="fill:none; stroke:#f4f4f4; stroke-linecap:round; stroke-linejoin:round; stroke-width:3px;"/><line x1="195.416" y1="10.149" x2="195.416" y2="94.605" style="fill:none; stroke:#f4f4f4; stroke-linecap:round; stroke-linejoin:round; stroke-width:3px;"/><line x1="195.416" y1="10.149" x2="195.416" y2="94.605" style="fill:none; stroke:#30373e; stroke-linecap:round; stroke-miterlimit:10;"/><circle cx="195.641" cy="9.533" r="5.958" style="fill:#30373e; stroke-width:0px;"/><path d="m195.641,3.563c-3.205,0-5.803,2.598-5.803,5.803v.335c0,3.205,2.598,5.803,5.803,5.803s5.803-2.598,5.803-5.803v-.335c0-3.205-2.598-5.803-5.803-5.803Z" style="fill:#30373e; stroke-width:0px;"/><path d="m193.973,12.517c-.39-.228-.726-.566-1.006-1.016l1.039-.749c.174.318.366.546.575.684.209.137.47.206.781.206.337,0,.628-.067.871-.201.243-.135.365-.342.365-.623v-.112c0-.318-.108-.544-.323-.679-.216-.134-.579-.201-1.091-.201h-.468v-1.123h.449c.381,0,.691-.056.932-.168s.36-.325.36-.637v-.104c0-.225-.104-.392-.313-.5-.209-.109-.451-.164-.726-.164-.262,0-.498.067-.707.201s-.382.332-.52.595l-.982-.59c.225-.48.524-.835.898-1.062s.83-.342,1.366-.342c.655,0,1.19.156,1.605.468.415.312.623.777.623,1.395,0,.325-.065.604-.197.838-.131.234-.314.426-.552.576.3.155.525.355.679.599.152.243.229.543.229.898,0,.462-.114.855-.342,1.18-.229.324-.532.567-.913.729-.381.163-.799.244-1.254.244-.53,0-.991-.114-1.381-.342Z" style="fill:#f4f4f4; stroke-width:0px;"/><line x1="142.119" y1="10.149" x2="142.119" y2="107.154" style="fill:none; stroke:#f4f4f4; stroke-linecap:round; stroke-linejoin:round; stroke-width:3px;"/><line x1="142.119" y1="10.149" x2="142.119" y2="107.154" style="fill:none; stroke:#f4f4f4; stroke-linecap:round; stroke-linejoin:round; stroke-width:3px;"/><line x1="142.119" y1="10.149" x2="142.119" y2="107.154" style="fill:none; stroke:#f4f4f4; stroke-linecap:round; stroke-linejoin:round; stroke-width:3px;"/><path d="m141.654,7.958c-.144.097-.328.204-.553.323l-.59-.955c.344-.188.652-.385.927-.594s.527-.441.759-.698h1.301v6.721h-1.329v-5.194c-.2.168-.371.301-.515.397Z" style="fill:none; stroke:#f4f4f4; stroke-linecap:round; stroke-linejoin:round; stroke-width:3px;"/><circle cx="142.343" cy="9.533" r="5.958" style="fill:none; stroke:#f4f4f4; stroke-linecap:round; stroke-linejoin:round; stroke-width:3px;"/><path d="m142.343,3.563c-2.833,0-5.129,2.296-5.129,5.129v1.682c0,2.833,2.296,5.129,5.129,5.129s5.129-2.296,5.129-5.129v-1.682c0-2.833-2.296-5.129-5.129-5.129Z" style="fill:none; stroke:#f4f4f4; stroke-linecap:round; stroke-linejoin:round; stroke-width:3px;"/><path d="m141.654,7.958c-.144.097-.328.204-.553.323l-.59-.955c.344-.188.652-.385.927-.594s.527-.441.759-.698h1.301v6.721h-1.329v-5.194c-.2.168-.371.301-.515.397Z" style="fill:none; stroke:#f4f4f4; stroke-linecap:round; stroke-linejoin:round; stroke-width:3px;"/><line x1="142.119" y1="10.149" x2="142.119" y2="107.154" style="fill:none; stroke:#f4f4f4; stroke-linecap:round; stroke-linejoin:round; stroke-width:3px;"/><line x1="142.119" y1="10.149" x2="142.119" y2="107.154" style="fill:none; stroke:#30373e; stroke-linecap:round; stroke-miterlimit:10;"/><circle cx="142.343" cy="9.533" r="5.958" style="fill:#30373e; stroke-width:0px;"/><path d="m142.343,3.563c-2.833,0-5.129,2.296-5.129,5.129v1.682c0,2.833,2.296,5.129,5.129,5.129s5.129-2.296,5.129-5.129v-1.682c0-2.833-2.296-5.129-5.129-5.129Z" style="fill:#30373e; stroke-width:0px;"/><path d="m141.654,7.958c-.144.097-.328.204-.553.323l-.59-.955c.344-.188.652-.385.927-.594s.527-.441.759-.698h1.301v6.721h-1.329v-5.194c-.2.168-.371.301-.515.397Z" style="fill:#f4f4f4; stroke-width:0px;"/><path d="m211.219,103.183l-1.201-9.011c-.069-.52-.513-.908-1.037-.908h-35.571c-.633,0-1.12.557-1.037,1.184l1.201,9.011c.069.52.513.908,1.037.908h35.571c.633,0,1.12-.557,1.037-1.184Z" style="fill:#f4ae3d; stroke:#30373e; stroke-miterlimit:10;"/><g style="opacity:.38;"><rect x="197.076" y="97.506" width="6.315" height="3.213" rx="1.607" ry="1.607" style="fill:none; stroke:#30373e; stroke-miterlimit:10;"/><rect x="183.349" y="97.754" width="6.081" height="2.718" rx=".415" ry=".415" style="fill:none; stroke:#30373e; stroke-miterlimit:10;"/><path d="m183.369,100.171h-4.865c-.231,0-.421-.19-.421-.421v-1.271c0-.238.19-.428.421-.428h4.865" style="fill:none; stroke:#30373e; stroke-miterlimit:10;"/><path d="m201.48,95.734h-2.494c-1.153,0-2.162.581-2.768,1.464-.359.523-.934.853-1.568.853h-5.241v2.12h5.239c.634,0,1.21.331,1.569.855.606.884,1.616,1.466,2.77,1.466h2.494c1.866,0,3.379-1.513,3.379-3.379h0c0-1.866-1.513-3.379-3.379-3.379Z" style="fill:none; stroke:#30373e; stroke-miterlimit:10;"/></g><line x1="206.702" y1="104.367" x2="205.222" y2="93.264" style="fill:none; stroke:#30373e; stroke-miterlimit:10; stroke-width:.5px;"/><line x1="201.253" y1="104.367" x2="199.772" y2="93.264" style="fill:none; stroke:#30373e; stroke-miterlimit:10; stroke-width:.5px;"/><line x1="176.201" y1="10.149" x2="176.201" y2="94.605" style="fill:none; stroke:#f4f4f4; stroke-linecap:round; stroke-linejoin:round; stroke-width:3px;"/><line x1="176.201" y1="10.149" x2="176.201" y2="94.605" style="fill:none; stroke:#f4f4f4; stroke-linecap:round; stroke-linejoin:round; stroke-width:3px;"/><line x1="176.201" y1="10.149" x2="176.201" y2="94.605" style="fill:none; stroke:#f4f4f4; stroke-linecap:round; stroke-linejoin:round; stroke-width:3px;"/><path d="m173.915,11.698l2.33-2.181c.219-.199.403-.392.553-.575.149-.185.265-.357.347-.52.081-.163.121-.315.121-.459v-.084c0-.225-.086-.409-.257-.553-.172-.144-.389-.215-.651-.215-.374,0-.661.081-.86.243-.2.162-.331.439-.394.833l-1.18-.374c.101-.6.365-1.062.796-1.391.431-.327.977-.491,1.638-.491.418,0,.796.075,1.133.225s.604.368.801.655c.196.287.295.627.295,1.021,0,.324-.064.635-.192.931-.128.297-.292.568-.491.814-.2.247-.428.485-.684.716l-1.441,1.292h2.855v1.17h-4.718v-1.058Z" style="fill:none; stroke:#f4f4f4; stroke-linecap:round; stroke-linejoin:round; stroke-width:3px;"/><circle cx="176.426" cy="9.533" r="5.958" style="fill:none; stroke:#f4f4f4; stroke-linecap:round; stroke-linejoin:round; stroke-width:3px;"/><path d="m176.426,3.563c-3.213,0-5.817,2.604-5.817,5.817v.306c0,3.213,2.604,5.817,5.817,5.817s5.817-2.604,5.817-5.817v-.306c0-3.213-2.604-5.817-5.817-5.817Z" style="fill:none; stroke:#f4f4f4; stroke-linecap:round; stroke-linejoin:round; stroke-width:3px;"/><path d="m173.915,11.698l2.33-2.181c.219-.199.403-.392.553-.575.149-.185.265-.357.347-.52.081-.163.121-.315.121-.459v-.084c0-.225-.086-.409-.257-.553-.172-.144-.389-.215-.651-.215-.374,0-.661.081-.86.243-.2.162-.331.439-.394.833l-1.18-.374c.101-.6.365-1.062.796-1.391.431-.327.977-.491,1.638-.491.418,0,.796.075,1.133.225s.604.368.801.655c.196.287.295.627.295,1.021,0,.324-.064.635-.192.931-.128.297-.292.568-.491.814-.2.247-.428.485-.684.716l-1.441,1.292h2.855v1.17h-4.718v-1.058Z" style="fill:none; stroke:#f4f4f4; stroke-linecap:round; stroke-linejoin:round; stroke-width:3px;"/><line x1="176.201" y1="10.149" x2="176.201" y2="94.605" style="fill:none; stroke:#f4f4f4; stroke-linecap:round; stroke-linejoin:round; stroke-width:3px;"/><line x1="176.201" y1="10.149" x2="176.201" y2="94.605" style="fill:none; stroke:#30373e; stroke-linecap:round; stroke-miterlimit:10;"/><circle cx="176.426" cy="9.533" r="5.958" style="fill:#30373e; stroke-width:0px;"/><path d="m176.426,3.563c-3.213,0-5.817,2.604-5.817,5.817v.306c0,3.213,2.604,5.817,5.817,5.817s5.817-2.604,5.817-5.817v-.306c0-3.213-2.604-5.817-5.817-5.817Z" style="fill:#30373e; stroke-width:0px;"/><path d="m173.915,11.698l2.33-2.181c.219-.199.403-.392.553-.575.149-.185.265-.357.347-.52.081-.163.121-.315.121-.459v-.084c0-.225-.086-.409-.257-.553-.172-.144-.389-.215-.651-.215-.374,0-.661.081-.86.243-.2.162-.331.439-.394.833l-1.18-.374c.101-.6.365-1.062.796-1.391.431-.327.977-.491,1.638-.491.418,0,.796.075,1.133.225s.604.368.801.655c.196.287.295.627.295,1.021,0,.324-.064.635-.192.931-.128.297-.292.568-.491.814-.2.247-.428.485-.684.716l-1.441,1.292h2.855v1.17h-4.718v-1.058Z" style="fill:#f4f4f4; stroke-width:0px;"/><line x1="195.416" y1="93.11" x2="195.416" y2="95.927" style="fill:none; opacity:.38; stroke:#30373e; stroke-linecap:round; stroke-linejoin:round;"/></svg>