<?xml version="1.0" encoding="UTF-8"?><svg xmlns="http://www.w3.org/2000/svg" width="436" height="161.749" xmlns:xlink="http://www.w3.org/1999/xlink" viewBox="0 0 436 161.749"><defs><clipPath id="uuid-156bbf77-a55b-4d47-97d6-2e98fa5cc544"><rect x="6.509" y="9.451" width="249.917" height="138.566" style="fill:none; stroke-width:0px;"/></clipPath></defs><g id="uuid-b88b2be6-2bf6-41db-8011-c716330db068"><polygon points="351.936 91.819 349.852 91.819 350.032 93.737 351.756 93.737 351.936 91.819" style="fill:none; stroke:#a6abb0; stroke-linecap:round; stroke-linejoin:round; stroke-width:.5px;"/><path d="m300.719,127.295c-.002,1.301-.003,2.316-.003,2.852,0,5.048-1.016,5.671-3.334,5.671-.722,0-2.371.012-4.248.024" style="fill:#f4f4f4; stroke:#a6abb0; stroke-miterlimit:10; stroke-width:.5px;"/><g id="uuid-78027bb4-e38b-444b-965d-47967723eca9"><path d="m433.429,47.007c0,.66-.121,1.257-.379,1.805-.305.647-.768,1.159-1.307,1.604-1.114.923-3.97,1.734-6.777,2.108-.986.134-1.981.183-2.854.226-1.56.077-2.481.151-2.885.381-.029.017-.044.028-.044.026-.251.378-.47.712-.647.983.301.258.581.504.827.726,1.78,1.619,7.087,9.533,8.47,12.443,1.293,2.729,1.309,8.245,1.396,19.109.013,1.669.028,3.47.047,5.416.032,3.112-.063,6.194-.274,9.056,0,.62-.009,5.709-.02,12.093-.018,10.761-.043,25.206-.043,28.164,0,2.896-.273,4.838-1.1,6.034-.315.456-.705.798-1.163,1.038-.791.415-1.708.483-2.591.483-.63,0-1.877.008-3.396.018-1.05.007-2.227.015-3.424.021-1.176-.006-2.344-.014-3.389-.021-1.526-.01-2.783-.018-3.42-.018-.883,0-1.799-.068-2.589-.483-.458-.241-.847-.583-1.161-1.039-.824-1.196-1.095-3.138-1.095-6.033,0-1.054-.004-3.625-.009-6.945-.002-1.119-.004-2.323-.006-3.584-.452-.114-.896-.279-1.252-.484,0,0-2.545-1.457-2.55-1.459-.16-.093-.536-.207-.738-.22,0,0-5.388-.392-5.385-.391-.608-.042-1.144-.327-1.524-.734-.182-.195-.333-.423-.441-.675-3.166.137-6.711.234-10.708.291-.323,0-.637-.07-.934-.197-.169-.076-.404-.155-.64-.155h-63.252c-.243,0-.469.078-.655.162-.288.123-.609.191-.941.19-3.983-.058-7.522-.155-10.687-.291-.109.251-.259.477-.44.671-.382.41-.921.696-1.529.738,0,0-5.381.392-5.385.392-.198.014-.574.127-.739.223,0,0-2.545,1.457-2.541,1.454-.36.208-.804.373-1.257.487-.002,1.129-.003,2.213-.005,3.232-.005,3.49-.009,6.206-.009,7.297,0,2.896-.273,4.838-1.1,6.034-.315.456-.705.798-1.163,1.038-.791.415-1.708.483-2.591.483-.63,0-1.877.008-3.395.018-1.05.007-2.227.015-3.424.021-1.176-.006-2.344-.014-3.389-.021-1.526-.01-2.783-.018-3.42-.018-.883,0-1.8-.068-2.59-.483-.458-.241-.847-.583-1.161-1.039-.824-1.196-1.095-3.138-1.095-6.033,0-2.96-.025-17.432-.043-28.196-.011-6.371-.02-11.446-.017-11.989-.214-2.934-.308-6.016-.277-9.129.02-1.946.034-3.747.047-5.416.087-10.864.103-16.38,1.396-19.108,1.375-2.911,6.683-10.827,8.473-12.446.244-.221.522-.464.817-.724-.177-.272-.398-.608-.64-.975,0,0-.013-.013-.051-.034-.404-.23-1.324-.304-2.882-.381-.872-.043-1.865-.092-2.847-.226-2.806-.374-5.674-1.185-6.779-2.108-.541-.447-1.009-.962-1.316-1.614-.257-.545-.378-1.139-.378-1.796,0-.367.034-.831.067-1.304.027-.377.055-.78.075-1.209.035-.649.122-1.244.378-1.776.176-.365.413-.666.695-.918.216-.199.4-.38.607-.584.33-.325.701-.69,1.288-1.208,1.046-.923,2.767-1.873,4.374-2.162,1.413-.248,4.318-.642,5.968-.823.96-.106,2.05-.12,2.91.502.654.473,1.018,1.197,1.202,2.068.353,1.711.337,5.445.334,6.555,0,.093,0,.168,0,.226,0,.131-.002.266-.003.395-.008.663.003,1.066.053,1.24.231.272.814,1.008,1.346,1.685,4.101-13.941,8.394-25.623,10.399-30.894,1.04-2.719,1.98-4.356,3.202-5.329,1.258-1.002,2.69-1.188,4.286-1.411,23.095-2.048,46.454-2.048,46.454-2.048,0,0,23.358,0,46.505,2.054,1.541.217,2.97.404,4.226,1.405,1.221.973,2.162,2.609,3.202,5.33,2.012,5.27,6.298,16.951,10.405,30.889.525-.664,1.106-1.394,1.342-1.673.049-.176.06-.58.052-1.24-.002-.132-.003-.27-.003-.403,0-.049,0-.111,0-.185-.002-1.064-.015-4.867.342-6.596.179-.865.539-1.59,1.192-2.064.861-.626,1.956-.611,2.92-.505,1.651.182,4.555.576,5.974.825,1.593.288,3.323,1.237,4.36,2.161.592.521.965.887,1.3,1.214.205.201.389.381.598.573.795.721,1.01,1.581,1.07,2.699.02.372.045.729.069,1.066.037.534.074,1.05.074,1.448Z" style="fill:none; stroke:#a6abb0; stroke-miterlimit:3; stroke-width:.5px;"/><path d="m433.179,47.007c0,.628-.115,1.188-.355,1.699-.284.604-.719,1.087-1.24,1.518-1.053.873-3.841,1.679-6.651,2.053-.974.132-1.958.18-2.832.224-1.527.076-2.526.146-2.996.413-.086.049-.116.086-.125.1-.313.471-.578.876-.772,1.174.363.308.7.603.988.863,1.746,1.588,7.036,9.47,8.412,12.366,1.262,2.664,1.285,8.097,1.372,19.004.013,1.669.028,3.47.047,5.416.032,3.106-.063,6.181-.274,9.054,0,.619-.009,5.708-.02,12.093-.018,10.761-.043,25.207-.043,28.165,0,2.901-.278,4.768-1.055,5.892-.293.423-.652.738-1.073.959-.733.385-1.598.454-2.475.454-.631,0-1.879.008-3.397.018-1.05.007-2.227.015-3.421.021-1.176-.006-2.344-.014-3.388-.021-1.525-.01-2.784-.018-3.422-.018-.877,0-1.741-.07-2.473-.455-.421-.221-.78-.536-1.072-.96-.775-1.124-1.051-2.99-1.051-5.891,0-1.054-.004-3.625-.009-6.946-.002-1.178-.004-2.449-.006-3.782-.498-.109-.995-.282-1.378-.504,0,0-2.545-1.457-2.549-1.459-.194-.113-.608-.237-.845-.253,0,0-5.388-.392-5.386-.391-.54-.038-1.018-.29-1.359-.655-.2-.215-.358-.474-.455-.762-3.209.141-6.81.24-10.877.299-.287,0-.568-.062-.832-.175-.184-.082-.456-.177-.743-.177h-63.252c-.294,0-.557.094-.754.182-.257.11-.545.17-.839.17-4.057-.059-7.651-.158-10.859-.299-.097.286-.255.544-.454.758-.342.367-.824.622-1.364.659,0,0-5.381.392-5.384.392-.235.016-.648.141-.846.255,0,0-2.545,1.457-2.542,1.455-.386.223-.883.396-1.381.505-.002,1.2-.004,2.352-.005,3.43-.005,3.49-.009,6.206-.009,7.298,0,2.901-.278,4.768-1.055,5.892-.293.423-.652.738-1.073.959-.733.385-1.598.454-2.475.454-.631,0-1.879.008-3.397.018-1.05.007-2.227.015-3.421.021-1.176-.006-2.344-.014-3.388-.021-1.525-.01-2.783-.018-3.421-.018-.877,0-1.741-.07-2.473-.455-.421-.221-.78-.536-1.072-.96-.775-1.124-1.051-2.99-1.051-5.891,0-2.961-.025-17.432-.043-28.197-.011-6.372-.02-11.445-.018-12.006-.213-2.927-.308-6.002-.276-9.108.02-1.946.034-3.748.047-5.416.087-10.908.11-16.34,1.372-19.003,1.368-2.896,6.659-10.779,8.415-12.368.287-.259.621-.551.981-.859-.194-.299-.459-.704-.774-1.178-.009-.014-.039-.051-.125-.1-.47-.267-1.468-.338-2.993-.413-.874-.043-1.856-.092-2.826-.224-2.809-.375-5.609-1.18-6.652-2.053-.523-.433-.963-.919-1.249-1.528-.239-.508-.354-1.064-.354-1.689,0-.356.033-.809.066-1.286.027-.377.055-.782.076-1.214.035-.638.119-1.194.353-1.682.16-.333.376-.607.639-.842.22-.202.406-.386.613-.59.33-.325.696-.686,1.278-1.199,1.017-.898,2.698-1.824,4.252-2.103,1.407-.246,4.306-.64,5.952-.821.955-.106,1.959-.106,2.736.456.587.425.928,1.083,1.104,1.916.346,1.679.332,5.38.329,6.504,0,.092,0,.168,0,.226,0,.129-.002.262-.003.392-.009.761.008,1.227.064,1.349.207.233,1.053,1.305,1.689,2.116,4.139-14.137,8.504-26.015,10.53-31.341,1.038-2.714,1.959-4.294,3.124-5.222,1.196-.952,2.556-1.134,4.152-1.358,23.084-2.047,46.432-2.047,46.432-2.047,0,0,23.348,0,46.47,2.052,1.553.219,2.911.401,4.106,1.353,1.164.928,2.086,2.509,3.124,5.223,2.033,5.325,6.39,17.2,10.535,31.334.631-.8,1.48-1.871,1.662-2.07.078-.155.094-.622.085-1.381-.002-.132-.003-.268-.003-.4,0-.05,0-.112,0-.186-.002-1.078-.013-4.847.337-6.545.171-.828.509-1.487,1.094-1.913.778-.566,1.786-.565,2.745-.459,1.647.181,4.546.575,5.957.822,1.541.279,3.23,1.204,4.24,2.102.587.517.957.879,1.291,1.206.205.201.391.383.605.58.723.657.93,1.437.989,2.527.02.374.045.733.069,1.07.037.538.073,1.044.073,1.43Z" style="fill:none; stroke:#a6abb0; stroke-miterlimit:3; stroke-width:.5px;"/><path d="m432.929,47.007c0,.597-.109,1.119-.331,1.592-.263.56-.67,1.016-1.173,1.432-.992.822-3.712,1.623-6.525,1.998-.961.131-1.935.178-2.811.222-1.494.074-2.572.142-3.107.446-.111.063-.174.125-.209.179-.384.578-.695,1.055-.893,1.361.425.358.821.703,1.15,1,1.712,1.557,6.985,9.407,8.355,12.288,1.232,2.599,1.26,7.948,1.348,18.899.013,1.669.028,3.471.047,5.417.031,3.099-.063,6.167-.274,9.051,0,.619-.009,5.707-.02,12.092-.018,10.761-.043,25.207-.043,28.165,0,2.907-.283,4.697-1.011,5.75-.27.391-.599.678-.984.88-.676.354-1.487.426-2.359.426-.632,0-1.882.008-3.399.018-1.05.007-2.226.015-3.418.021-1.176-.006-2.344-.014-3.388-.021-1.525-.01-2.784-.018-3.423-.018-.871,0-1.682-.071-2.357-.426-.385-.202-.713-.489-.982-.88-.725-1.053-1.007-2.843-1.007-5.749,0-1.055-.004-3.626-.009-6.946-.002-1.238-.004-2.579-.006-3.986-.542-.1-1.096-.28-1.503-.516,0,0-2.545-1.457-2.548-1.458-.229-.133-.679-.268-.953-.286,0,0-5.388-.392-5.387-.391-.472-.033-.893-.254-1.193-.576-.218-.233-.378-.526-.451-.85-3.255.145-6.919.248-11.064.308-.252,0-.499-.054-.729-.153-.198-.089-.507-.199-.845-.199h-63.252c-.345,0-.646.11-.853.202-.226.097-.481.15-.737.15-4.138-.06-7.795-.162-11.049-.308-.073.323-.234.613-.45.846-.303.325-.727.548-1.2.581,0,0-5.381.392-5.383.392-.271.019-.722.154-.953.288,0,0-2.545,1.457-2.543,1.455-.409.237-.964.417-1.506.517-.002,1.274-.004,2.495-.005,3.634-.005,3.49-.009,6.206-.009,7.298,0,2.907-.283,4.697-1.011,5.75-.27.391-.599.678-.984.88-.676.354-1.487.426-2.359.426-.632,0-1.882.008-3.399.018-1.05.007-2.226.015-3.418.021-1.176-.006-2.344-.014-3.388-.021-1.525-.01-2.784-.018-3.423-.018-.871,0-1.682-.071-2.357-.426-.385-.202-.713-.489-.982-.88-.725-1.053-1.007-2.843-1.007-5.749,0-2.961-.025-17.433-.043-28.197-.011-6.372-.02-11.445-.018-12.024-.213-2.92-.307-5.988-.275-9.087.02-1.946.034-3.748.047-5.417.088-10.951.116-16.3,1.348-18.899,1.361-2.881,6.635-10.731,8.356-12.289.328-.297.72-.637,1.142-.996-.198-.306-.51-.784-.894-1.364-.036-.054-.098-.115-.209-.179-.535-.304-1.612-.372-3.104-.446-.875-.043-1.847-.091-2.805-.222-2.813-.375-5.543-1.176-6.526-1.998-.506-.418-.917-.877-1.183-1.442-.221-.47-.33-.99-.33-1.583,0-.345.032-.788.066-1.269.027-.376.056-.785.076-1.218.034-.628.117-1.145.329-1.587.144-.3.339-.548.583-.767.223-.206.413-.392.619-.595.329-.324.691-.681,1.268-1.19.989-.872,2.629-1.774,4.129-2.044,1.4-.245,4.293-.638,5.937-.819.951-.105,1.868-.092,2.562.41.52.376.838.968,1.006,1.764.34,1.647.327,5.315.324,6.453,0,.092,0,.168,0,.227,0,.127-.002.259-.003.389-.01.834.013,1.373.127,1.518.237.266,1.349,1.681,1.979,2.487,4.177-14.334,8.613-26.408,10.66-31.789,1.035-2.708,1.937-4.233,3.046-5.116,1.133-.903,2.422-1.081,4.018-1.305,23.073-2.046,46.41-2.046,46.41-2.046,0,0,23.337,0,46.435,2.049,1.566.221,2.853.399,3.985,1.301,1.108.883,2.01,2.408,3.046,5.117,2.054,5.379,6.481,17.45,10.665,31.78.626-.794,1.741-2.207,1.98-2.476.109-.145.132-.684.121-1.513-.002-.133-.003-.267-.003-.396,0-.05,0-.112,0-.186-.002-1.092-.012-4.828.332-6.494.163-.792.478-1.384.996-1.761.695-.505,1.615-.518,2.571-.413,1.644.181,4.537.574,5.94.82,1.489.269,3.138,1.171,4.119,2.044.582.513.948.871,1.281,1.197.205.2.394.385.612.586.652.592.849,1.292.907,2.356.021.377.046.737.069,1.074.038.542.073,1.037.073,1.413Z" style="fill:none; stroke:#a6abb0; stroke-miterlimit:3; stroke-width:.5px;"/><path d="m432.679,47.007c0,.565-.103,1.051-.307,1.486-.243.516-.621.944-1.107,1.346-.931.771-3.583,1.567-6.399,1.943-.949.129-1.912.176-2.79.22-1.461.072-2.618.137-3.219.478-.136.078-.232.164-.294.258-.474.713-.837,1.275-1.014,1.55.487.407.943.802,1.311,1.135,1.678,1.527,6.935,9.344,8.297,12.21,1.201,2.535,1.236,7.8,1.324,18.794.013,1.669.028,3.471.047,5.417.031,3.092-.063,6.154-.274,9.049,0,.619-.009,5.707-.02,12.092-.018,10.761-.043,25.207-.043,28.166,0,2.912-.288,4.627-.967,5.608-.247.358-.546.617-.894.8-.618.324-1.377.397-2.242.397-.633,0-1.884.008-3.4.018-1.05.007-2.226.015-3.415.021-1.175-.006-2.343-.014-3.388-.021-1.524-.01-2.785-.018-3.425-.018-.866,0-1.623-.073-2.241-.397-.348-.183-.646-.443-.892-.801-.676-.981-.962-2.696-.962-5.608,0-1.055-.004-3.626-.009-6.946-.002-1.3-.004-2.714-.006-4.198-.583-.085-1.201-.273-1.629-.521,0,0-2.545-1.457-2.547-1.457-.263-.152-.751-.298-1.06-.319,0,0-5.388-.392-5.388-.392-.404-.028-.767-.218-1.028-.497-.234-.251-.391-.58-.421-.939-3.308.151-7.042.256-11.276.317-.216,0-.43-.047-.627-.132-.213-.095-.559-.221-.947-.221h-63.252c-.396,0-.734.125-.951.223-.195.084-.417.13-.635.13-4.231-.061-7.958-.167-11.265-.317-.031.358-.188.685-.421.935-.263.282-.629.474-1.035.502,0,0-5.381.392-5.382.392-.308.021-.796.167-1.06.32,0,0-2.545,1.457-2.544,1.456-.429.249-1.047.436-1.63.522-.002,1.35-.004,2.644-.006,3.845-.005,3.49-.009,6.207-.009,7.299,0,2.912-.288,4.627-.967,5.608-.247.358-.546.617-.894.8-.618.324-1.377.397-2.243.397-.633,0-1.884.008-3.4.018-1.05.007-2.226.015-3.415.021-1.176-.006-2.343-.014-3.388-.021-1.524-.01-2.785-.018-3.425-.018-.866,0-1.623-.073-2.241-.397-.348-.183-.646-.443-.893-.801-.676-.981-.962-2.696-.962-5.608,0-2.961-.025-17.433-.043-28.197-.011-6.372-.02-11.445-.019-12.042-.212-2.913-.306-5.974-.275-9.067.02-1.947.034-3.749.047-5.417.088-10.994.123-16.26,1.324-18.794,1.354-2.866,6.611-10.684,8.298-12.21.368-.333.818-.722,1.304-1.133-.177-.274-.541-.836-1.015-1.551-.062-.094-.158-.18-.294-.258-.6-.341-1.757-.406-3.215-.478-.877-.044-1.838-.091-2.785-.22-2.816-.375-5.477-1.171-6.4-1.943-.488-.404-.871-.835-1.116-1.356-.204-.433-.306-.915-.306-1.476,0-.334.031-.767.065-1.251.027-.376.056-.787.076-1.222.033-.618.114-1.095.305-1.492.128-.267.302-.49.527-.691.227-.209.419-.398.625-.601.328-.323.686-.676,1.258-1.18.96-.847,2.56-1.725,4.007-1.985,1.393-.244,4.281-.636,5.921-.817.947-.105,1.777-.078,2.388.364.453.327.747.854.907,1.612.333,1.615.322,5.249.319,6.402,0,.092,0,.169,0,.228,0,.125-.002.255-.003.386-.01.809,0,1.479.191,1.687.274.307,1.765,2.213,2.253,2.838.011-.008.021-.016.03-.023,4.21-14.511,8.711-26.764,10.777-32.194,1.033-2.702,1.916-4.171,2.968-5.01,1.071-.853,2.289-1.027,3.885-1.251,23.061-2.045,46.388-2.045,46.388-2.045,0,0,23.327,0,46.401,2.047,1.579.223,2.794.396,3.864,1.249,1.052.838,1.935,2.307,2.969,5.011,2.073,5.43,6.567,17.683,10.784,32.194.007.005.015.011.023.018.056-.071.125-.159.204-.259.609-.773,1.81-2.297,2.055-2.573.183-.206.193-.874.183-1.681-.002-.133-.003-.266-.003-.393,0-.05,0-.113,0-.187-.002-1.107-.011-4.809.327-6.443.156-.755.448-1.281.899-1.609.611-.445,1.445-.471,2.397-.366,1.64.181,4.528.573,5.923.817,1.438.26,3.045,1.138,3.998,1.985.577.508.939.863,1.272,1.188.205.2.396.387.619.592.58.527.769,1.147.826,2.184.021.379.046.741.069,1.077.038.545.072,1.03.072,1.396Z" style="fill:none; stroke:#a6abb0; stroke-miterlimit:3; stroke-width:.5px;"/></g><path d="m432.429,47.007c0,1.167-.462,1.927-1.324,2.639-.869.721-3.454,1.512-6.273,1.888-2.827.384-5.796.039-6.477,1.065-.681,1.026-1.136,1.739-1.136,1.739.548.454,1.065.901,1.473,1.269,1.645,1.496,6.884,9.281,8.239,12.132,1.347,2.843,1.198,9.281,1.347,24.107.031,3.086-.063,6.14-.274,9.046,0,1.66-.063,35.542-.063,40.257,0,5.835-1.175,6.555-3.853,6.555-1.073,0-3.916.024-6.814.039-2.89-.016-5.733-.039-6.814-.039-2.678,0-3.845-.721-3.845-6.555,0-1.488-.008-5.992-.016-11.357v-.008c-.619-.063-1.308-.258-1.754-.517l-2.545-1.457c-.298-.172-.822-.329-1.167-.352l-5.388-.392c-.674-.047-1.222-.634-1.222-1.316v-.133c-3.368.157-7.182.266-11.521.329-.18,0-.36-.039-.525-.11-.227-.102-.611-.243-1.049-.243h-63.252c-.446,0-.822.141-1.05.243-.164.071-.352.11-.533.11-4.339-.063-8.145-.172-11.513-.329v.133c0,.681-.556,1.269-1.23,1.316l-5.381.392c-.345.024-.869.18-1.167.352l-2.545,1.457c-.446.258-1.136.454-1.754.517v.008c-.008,5.365-.015,9.869-.015,11.357,0,5.835-1.175,6.555-3.853,6.555-1.073,0-3.916.024-6.814.039-2.89-.016-5.733-.039-6.814-.039-2.679,0-3.846-.721-3.846-6.555,0-4.715-.063-38.605-.063-40.257-.211-2.906-.306-5.96-.274-9.046.149-14.826,0-21.264,1.347-24.107,1.347-2.851,6.587-10.636,8.239-12.132.407-.368.916-.807,1.465-1.269,0,0-.454-.713-1.136-1.739-.681-1.026-3.65-.681-6.469-1.065-2.819-.376-5.412-1.167-6.273-1.888-.862-.713-1.332-1.472-1.332-2.639,0-.572.094-1.457.141-2.459.055-1.01.235-1.551.752-2.013.595-.548.955-.963,1.88-1.778.932-.822,2.491-1.676,3.885-1.927,1.386-.243,4.269-.634,5.905-.815,1.629-.18,2.663.071,3.023,1.778.352,1.707.313,5.764.313,6.579,0,.822-.071,1.888.251,2.24.321.36,2.397,3.023,2.397,3.023.188-.149.29-.227.29-.227,4.214-14.536,8.725-26.817,10.793-32.252,2.075-5.428,3.47-5.655,6.642-6.101,23.05-2.044,46.366-2.044,46.366-2.044,0,0,23.316,0,46.366,2.044,3.164.446,4.558.674,6.634,6.101,2.075,5.435,6.579,17.716,10.8,32.252,0,0,.102.078.282.219.133-.164,2.091-2.663,2.404-3.015.313-.352.243-1.418.243-2.24,0-.815-.031-4.872.321-6.579s1.386-1.958,3.023-1.778c1.637.18,4.519.572,5.905.815,1.386.251,2.953,1.104,3.877,1.927.924.815,1.292,1.23,1.887,1.778.509.462.689,1.003.744,2.013.055,1.002.141,1.888.141,2.459Z" style="fill:none; stroke:#a6abb0; stroke-miterlimit:3; stroke-width:.5px;"/><line x1="303.11" y1="92.919" x2="303.11" y2="97.72" style="fill:none; stroke:#a6abb0; stroke-linecap:round; stroke-linejoin:round; stroke-width:.5px;"/><path d="m285.714,51.629s-2.08-2.665-2.398-3.021-.247-1.423-.247-2.241.036-4.874-.32-6.581-1.387-1.957-3.024-1.779-4.518.569-5.905.818-2.953,1.103-3.878,1.921-1.289,1.236-1.885,1.779c-.512.466-.692,1.006-.746,2.012s-.144,1.887-.144,2.462c0,1.169.467,1.923,1.33,2.642.863.719,3.451,1.51,6.273,1.887,2.822.377,5.791.036,6.472,1.06.681,1.024,1.138,1.738,1.138,1.738" style="fill:none; stroke:#a6abb0; stroke-linecap:round; stroke-linejoin:round; stroke-width:.5px;"/><path d="m281.124,95.704c-1.734-.172-2.876-.351-4.652-.535-1.845-.271-2.551-1.031-2.714-3.039-.163-2.008.111-25.051.111-25.051l.019-1.562" style="fill:none; stroke:#a6abb0; stroke-linecap:round; stroke-linejoin:round; stroke-width:.5px;"/><path d="m303.11,97.72s-10.196-.848-21.985-2.016" style="fill:none; stroke:#a6abb0; stroke-linecap:round; stroke-linejoin:round; stroke-width:.5px;"/><path d="m293.002,129.775c-.008,5.368-.014,9.879-.014,11.368,0,5.83-1.173,6.556-3.853,6.556-1.076,0-3.918.023-6.812.034-2.894-.01-5.736-.034-6.812-.034-2.68,0-3.853-.726-3.853-6.556,0-4.835-.062-40.322-.062-40.322" style="fill:none; stroke:#a6abb0; stroke-linecap:round; stroke-linejoin:round; stroke-width:.5px;"/><path d="m278.135,122.678s.576,1.619,1.461,4.958c.158.595.67,1.029,1.283,1.087l11.399,1.072c.728.068,1.843-.173,2.477-.536l2.547-1.458c.298-.171.823-.331,1.166-.355l5.385-.385c.673-.048,1.224-.448,1.224-1.123h0" style="fill:none; stroke:#a6abb0; stroke-linecap:round; stroke-miterlimit:10;"/><path d="m300.719,125.37v-11.645c0-.904.733-1.637,1.637-1.637h.766" style="fill:none; stroke:#a6abb0; stroke-linecap:round; stroke-linejoin:round; stroke-width:.5px;"/><path d="m349.8,109.948h22.519c6.54,0,3.933,2.356,10.668,2.356,2.426,0,17.36-.231,20.941-.462,3.582-.231,10.327-3.42,12.356-4.416,2.029-.995,2.496-1.252,2.496-5.691v-3.292c0-4.159-1.429-5.524-4.318-5.524s-17.972,0-17.972,0c0,0-.652-1.617-4.138-1.617h-42.552s-42.552,0-42.552,0c-3.487,0-4.138,1.617-4.138,1.617,0,0-15.084,0-17.972,0-2.888,0-4.318,1.365-4.318,5.524v3.292c0,4.439.467,4.696,2.496,5.691,2.029.995,8.774,4.185,12.356,4.416,3.582.231,18.515.462,20.941.462,6.735,0,4.128-2.356,10.668-2.356h22.519Z" style="fill:none; stroke:#a6abb0; stroke-linecap:round; stroke-linejoin:round; stroke-width:.5px;"/><path d="m396.491,97.72s-.255,2.209-4.365,2.209c-8.087,0-42.325-.128-42.325-.128,0,0-34.238.128-42.325.128-4.11,0-4.365-2.209-4.365-2.209" style="fill:none; stroke:#a6abb0; stroke-linecap:round; stroke-linejoin:round; stroke-width:.5px;"/><line x1="396.491" y1="92.919" x2="396.491" y2="97.72" style="fill:none; stroke:#a6abb0; stroke-linecap:round; stroke-linejoin:round; stroke-width:.5px;"/><path d="m413.886,51.629s2.08-2.665,2.398-3.021.247-1.423.247-2.241-.036-4.874.32-6.581,1.387-1.957,3.024-1.779c1.636.178,4.518.569,5.905.818s2.953,1.103,3.878,1.921c.925.818,1.289,1.236,1.885,1.779.512.466.692,1.006.746,2.012.054,1.007.144,1.887.144,2.462,0,1.169-.467,1.923-1.33,2.642-.863.719-3.451,1.51-6.273,1.887s-5.791.036-6.472,1.06-1.138,1.738-1.138,1.738" style="fill:none; stroke:#a6abb0; stroke-linecap:round; stroke-linejoin:round; stroke-width:.5px;"/><path d="m413.599,51.404c-4.217-14.543-8.723-26.822-10.796-32.252-2.073-5.43-3.47-5.656-6.637-6.108-23.05-2.042-46.366-2.042-46.366-2.042,0,0-23.315,0-46.366,2.042-3.167.452-4.564.679-6.637,6.108-2.073,5.43-6.579,17.709-10.796,32.252" style="fill:none; stroke:#a6abb0; stroke-linecap:round; stroke-linejoin:round; stroke-width:.5px;"/><path d="m418.476,95.704c1.734-.172,2.876-.351,4.652-.535,1.845-.271,2.551-1.031,2.714-3.039.163-2.008-.111-25.051-.111-25.051l-.019-1.562" style="fill:none; stroke:#a6abb0; stroke-linecap:round; stroke-linejoin:round; stroke-width:.5px;"/><path d="m396.491,97.72s10.196-.848,21.985-2.016" style="fill:none; stroke:#a6abb0; stroke-linecap:round; stroke-linejoin:round; stroke-width:.5px;"/><path d="m406.598,129.775c.008,5.368.014,9.879.014,11.368,0,5.83,1.173,6.556,3.853,6.556,1.076,0,3.918.023,6.812.034,2.894-.01,5.736-.034,6.812-.034,2.68,0,3.853-.726,3.853-6.556,0-4.835.062-40.322.062-40.322" style="fill:none; stroke:#a6abb0; stroke-linecap:round; stroke-linejoin:round; stroke-width:.5px;"/><path d="m421.335,122.356s-.446,1.942-1.331,5.28c-.158.595-.67,1.029-1.283,1.087l-11.399,1.072c-.728.068-1.843-.173-2.477-.536l-2.547-1.458c-.298-.171-.823-.331-1.166-.355l-5.385-.385c-.673-.048-1.224-.448-1.224-1.123h0" style="fill:none; stroke:#a6abb0; stroke-linecap:round; stroke-linejoin:round;"/><path d="m401.973,17.179c-5.375-.241-25.353-1.308-52.173-1.308-26.82,0-46.798,1.067-52.173,1.308" style="fill:none; stroke:#a6abb0; stroke-linecap:round; stroke-linejoin:round; stroke-width:.5px;"/><path d="m398.881,125.37v-11.645c0-.904-.733-1.637-1.637-1.637h-.766" style="fill:none; stroke:#a6abb0; stroke-linecap:round; stroke-linejoin:round; stroke-width:.5px;"/><path d="m290.218,51.08c5.542-22.652,11.793-35.624,12.611-37.218.223-.434.803-.826,1.289-.871" style="fill:none; stroke:#a6abb0; stroke-linecap:round; stroke-linejoin:round; stroke-width:.5px;"/><path d="m267.311,46.351c4.936.797,9.229.741,15.747.741" style="fill:none; stroke:#a6abb0; stroke-linecap:round; stroke-linejoin:round; stroke-width:.5px;"/><path d="m432.29,46.351c-4.936.797-9.229.741-15.747.741" style="fill:none; stroke:#a6abb0; stroke-linecap:round; stroke-linejoin:round; stroke-width:.5px;"/><path d="m311.784,56.963c-.034-1.594-.046-3.701.095-4.641.242-1.612,1.517-2.509,6.772-2.697" style="fill:none; stroke:#a6abb0; stroke-linecap:round; stroke-linejoin:round; stroke-width:.5px;"/><line x1="316.901" y1="125.904" x2="316.902" y2="114.91" style="fill:none; stroke:#a6abb0; stroke-linecap:round; stroke-linejoin:round; stroke-width:.5px;"/><path d="m409.382,51.08c-5.542-22.652-11.793-35.624-12.611-37.218-.223-.434-.803-.826-1.289-.871" style="fill:none; stroke:#a6abb0; stroke-linecap:round; stroke-linejoin:round; stroke-width:.5px;"/><path d="m387.817,56.963c.034-1.594.046-3.701-.095-4.641-.242-1.612-1.517-2.509-6.772-2.697" style="fill:none; stroke:#a6abb0; stroke-linecap:round; stroke-linejoin:round; stroke-width:.5px;"/><line x1="382.699" y1="125.904" x2="382.698" y2="114.91" style="fill:none; stroke:#a6abb0; stroke-linecap:round; stroke-linejoin:round; stroke-width:.5px;"/><path d="m387.818,75.42v6.244c0,2.526-2.027,4.576-4.552,4.611-7.601.094-23.061.27-33.464.27s-25.869-.176-33.464-.27c-2.526-.035-4.552-2.085-4.552-4.611v-6.244" style="fill:none; stroke:#a6abb0; stroke-miterlimit:10; stroke-width:.5px;"/><path d="m278.658,64.782c.04-1.462.073-2.721.088-3.504.07-3.404,1.951-5.53,2.292-5.79" style="fill:none; stroke:#a6abb0; stroke-linecap:round; stroke-linejoin:round; stroke-width:.5px;"/><path d="m278.077,72.612c0,.862-.496,8.469-.496,11.478,0,2.106-.057,3.397-1.966,3.371-1.908-.025-1.899-1.265-1.899-3.113" style="fill:none; stroke:#a6abb0; stroke-linecap:round; stroke-linejoin:round; stroke-width:.5px;"/><g id="uuid-da1f17d1-018c-4306-87ac-9122cb181163"><path d="m349.8,126.587h31.628c.246,0,.479.079.632.149.302.138.63.206.959.202,23.946-.336,31.885-2.249,38.336-4.032,1.06-.293,1.944-1.052,2.677-2.024,3.496-4.642,5.37-16.75,5.246-29.052-.02-1.956-.034-3.766-.048-5.442-.087-10.848-.104-16.359-1.396-19.088-1.376-2.905-6.686-10.822-8.468-12.443-1.681-1.528-5.148-4.241-5.148-4.241l-.228-.178-.287-.029s-20.64-2.106-63.901-2.106c-43.26,0-63.901,2.106-63.901,2.106l-.287.029-.228.178s-3.468,2.713-5.148,4.241c-1.782,1.62-7.092,9.537-8.468,12.443-1.293,2.729-1.309,8.24-1.396,19.088-.013,1.676-.028,3.486-.048,5.442-.124,12.302,1.749,24.41,5.246,29.052.732.972,1.617,1.732,2.677,2.024,6.45,1.783,14.39,3.696,38.336,4.032.328.005.657-.063.959-.202.153-.07.386-.149.632-.149h31.628Z" style="fill:none; stroke:#a6abb0; stroke-linecap:round; stroke-linejoin:round; stroke-width:.5px;"/><path d="m349.8,126.087h31.628c.344,0,.651.107.84.194.233.107.488.16.743.156,23.913-.335,31.809-2.245,38.21-4.014.914-.252,1.714-.919,2.41-1.843,3.381-4.489,5.269-16.429,5.145-28.746-.02-1.957-.034-3.767-.048-5.443-.088-10.934-.117-16.278-1.348-18.878-1.362-2.875-6.638-10.728-8.353-12.287-1.664-1.513-5.12-4.217-5.12-4.217l-.114-.089-.144-.015s-20.606-2.103-63.85-2.103c-43.244,0-63.85,2.103-63.85,2.103l-.144.015-.114.089s-3.456,2.704-5.12,4.217c-1.715,1.559-6.99,9.411-8.353,12.287-1.231,2.6-1.26,7.944-1.348,18.878-.013,1.676-.028,3.486-.048,5.443-.124,12.317,1.764,24.257,5.145,28.746.697.925,1.497,1.591,2.41,1.843,6.401,1.769,14.297,3.678,38.21,4.014.255.004.51-.049.743-.156.189-.087.496-.194.84-.194h31.628Z" style="fill:none; stroke:#a6abb0; stroke-linecap:round; stroke-linejoin:round; stroke-width:.5px;"/></g><path d="m349.8,125.587h31.628c.441,0,.822.136,1.048.24.165.076.346.113.528.111,23.88-.335,31.732-2.241,38.083-3.996,4.558-1.26,7.338-15.276,7.189-30.102-.15-14.827,0-21.266-1.348-24.112-1.348-2.846-6.59-10.633-8.237-12.131s-5.092-4.193-5.092-4.193c0,0-20.571-2.1-63.799-2.1-43.228,0-63.799,2.1-63.799,2.1,0,0-3.445,2.696-5.092,4.193-1.647,1.498-6.889,9.285-8.237,12.131s-1.198,9.285-1.348,24.112c-.15,14.827,2.631,28.843,7.189,30.102,6.351,1.755,14.203,3.661,38.083,3.996.182.003.363-.035.528-.111.226-.104.607-.24,1.048-.24h31.628Z" style="fill:none; stroke:#a6abb0; stroke-linecap:round; stroke-linejoin:round; stroke-width:.5px;"/><path d="m267.32,44.345l2.779.36c.309.04.591.197.789.438l1.447,1.768" style="fill:none; stroke:#a6abb0; stroke-linecap:round; stroke-linejoin:round; stroke-width:.5px;"/><path d="m432.281,44.345l-2.779.36c-.309.04-.591.197-.789.438l-1.447,1.768" style="fill:none; stroke:#a6abb0; stroke-linecap:round; stroke-linejoin:round; stroke-width:.5px;"/><rect x="391.146" y="63.223" width="11.657" height="23.976" rx="5.828" ry="5.828" style="fill:none; stroke:#a6abb0; stroke-linecap:round; stroke-linejoin:round; stroke-width:.5px;"/><path d="m396.974,85.399c2.221,0,4.028-1.807,4.028-4.028v-12.32c0-2.221-1.807-4.028-4.028-4.028s-4.028,1.807-4.028,4.028v12.32c0,2.221,1.807,4.028,4.028,4.028Z" style="fill:none; stroke:#a6abb0; stroke-linecap:round; stroke-linejoin:round; stroke-width:.5px;"/><path d="m398.509,82.44c.77-1.093.162-2.146,0-2.376h-3.073c-.502.713-.502,1.664,0,2.376h3.073Z" style="fill:none; stroke:#a6abb0; stroke-linecap:round; stroke-linejoin:round; stroke-width:.5px;"/><path d="m398.509,78.821c.77-1.093.162-2.146,0-2.376h-3.073c-.502.713-.502,1.664,0,2.376h3.073Z" style="fill:none; stroke:#a6abb0; stroke-linecap:round; stroke-linejoin:round; stroke-width:.5px;"/><path d="m398.508,67.596c.77,1.093.162,2.146,0,2.376h-3.073c-.502-.713-.502-1.664,0-2.376h3.073Z" style="fill:none; stroke:#a6abb0; stroke-linecap:round; stroke-linejoin:round; stroke-width:.5px;"/><path d="m398.508,71.215c.77,1.093.162,2.146,0,2.376h-3.073c-.502-.713-.502-1.664,0-2.376h3.073Z" style="fill:none; stroke:#a6abb0; stroke-linecap:round; stroke-linejoin:round; stroke-width:.5px;"/><rect x="296.797" y="63.223" width="11.657" height="23.976" rx="5.828" ry="5.828" transform="translate(605.252 150.422) rotate(180)" style="fill:none; stroke:#a6abb0; stroke-linecap:round; stroke-linejoin:round; stroke-width:.5px;"/><path d="m302.626,85.399c-2.221,0-4.028-1.807-4.028-4.028v-12.32c0-2.221,1.807-4.028,4.028-4.028s4.028,1.807,4.028,4.028v12.32c0,2.221-1.807,4.028-4.028,4.028Z" style="fill:none; stroke:#a6abb0; stroke-linecap:round; stroke-linejoin:round; stroke-width:.5px;"/><path d="m301.092,82.44c-.77-1.093-.162-2.146,0-2.376h3.073c.502.713.502,1.664,0,2.376h-3.073Z" style="fill:none; stroke:#a6abb0; stroke-linecap:round; stroke-linejoin:round; stroke-width:.5px;"/><path d="m301.092,78.821c-.77-1.093-.162-2.146,0-2.376h3.073c.502.713.502,1.664,0,2.376h-3.073Z" style="fill:none; stroke:#a6abb0; stroke-linecap:round; stroke-linejoin:round; stroke-width:.5px;"/><path d="m301.092,67.596c-.77,1.093-.162,2.146,0,2.376h3.073c.502-.713.502-1.664,0-2.376h-3.073Z" style="fill:none; stroke:#a6abb0; stroke-linecap:round; stroke-linejoin:round; stroke-width:.5px;"/><path d="m301.092,71.215c-.77,1.093-.162,2.146,0,2.376h3.073c.502-.713.502-1.664,0-2.376h-3.073Z" style="fill:none; stroke:#a6abb0; stroke-linecap:round; stroke-linejoin:round; stroke-width:.5px;"/><path d="m352.651,58.656c.136-.068.136-.172,0-.24-.831-.416-2.126-.988-2.338-1.065-.15-.054-.321-.082-.51-.082s-.359.028-.509.082c-.265.095-1.38.612-2.338,1.06-.148.069-.148.179,0,.249,1.41.66,1.999.932,2.339,1.057.296.109.719.111,1.018.003.226-.081,1.52-.656,2.338-1.064Z" style="fill:none; stroke:#a6abb0; stroke-linecap:round; stroke-linejoin:round; stroke-width:.75px;"/><path d="m401.002,64.782h19.94c.876,0,1.627.622,1.794,1.482.181.936.162,2.36.342,4.391.093,1.052-.738,1.957-1.794,1.957h-18.35" style="fill:none; stroke:#a6abb0; stroke-linecap:round; stroke-linejoin:round; stroke-width:.5px;"/><path d="m402.934,69.639h15.188c1.107,0,1.193.941,1.193.941l1.745-.199c.503-.12.882-.486.867-.994l-.121-3.564s.052-.817-.865-1.042" style="fill:none; stroke:#a6abb0; stroke-linecap:round; stroke-linejoin:round; stroke-width:.5px;"/><line x1="392.841" y1="64.782" x2="306.594" y2="64.782" style="fill:none; stroke:#a6abb0; stroke-linecap:round; stroke-linejoin:round; stroke-width:.5px;"/><line x1="391.146" y1="69.639" x2="308.454" y2="69.639" style="fill:none; stroke:#a6abb0; stroke-linecap:round; stroke-linejoin:round; stroke-width:.5px;"/><line x1="308.454" y1="72.612" x2="391.146" y2="72.612" style="fill:none; stroke:#a6abb0; stroke-linecap:round; stroke-linejoin:round; stroke-width:.5px;"/><path d="m419.316,70.58v-1.679c0-.39-.316-.707-.707-.707h-15.675" style="fill:none; stroke:#a6abb0; stroke-linecap:round; stroke-linejoin:round; stroke-width:.5px;"/><path d="m278.658,64.782c.04-1.462.073-2.721.088-3.504.07-3.404,1.951-5.53,2.292-5.79" style="fill:none; stroke:#a6abb0; stroke-linecap:round; stroke-linejoin:round; stroke-width:.5px;"/><path d="m278.077,72.612c0,.862-.496,8.469-.496,11.478,0,2.106-.057,3.397-1.966,3.371-1.908-.025-1.899-1.265-1.899-3.113" style="fill:none; stroke:#a6abb0; stroke-linecap:round; stroke-linejoin:round; stroke-width:.5px;"/><path d="m420.943,64.782c-.04-1.462-.073-2.721-.088-3.504-.07-3.404-1.951-5.53-2.292-5.79" style="fill:none; stroke:#a6abb0; stroke-linecap:round; stroke-linejoin:round; stroke-width:.5px;"/><path d="m421.523,72.612c0,.862.496,8.469.496,11.478,0,2.106.057,3.397,1.966,3.371s1.899-1.265,1.899-3.113" style="fill:none; stroke:#a6abb0; stroke-linecap:round; stroke-linejoin:round; stroke-width:.5px;"/><path d="m298.598,64.782h-19.94c-.876,0-1.627.622-1.794,1.482-.181.936-.162,2.36-.342,4.391-.093,1.052.738,1.957,1.794,1.957h18.35" style="fill:none; stroke:#a6abb0; stroke-linecap:round; stroke-linejoin:round; stroke-width:.5px;"/><path d="m296.666,69.639h-15.188c-1.107,0-1.193.941-1.193.941l-1.745-.199c-.503-.12-.882-.486-.867-.994l.121-3.564s-.052-.817.865-1.042" style="fill:none; stroke:#a6abb0; stroke-linecap:round; stroke-linejoin:round; stroke-width:.5px;"/><path d="m280.285,70.58v-1.679c0-.39.316-.707.707-.707h15.675" style="fill:none; stroke:#a6abb0; stroke-linecap:round; stroke-linejoin:round; stroke-width:.5px;"/><line x1="391.209" y1="68.195" x2="308.39" y2="68.195" style="fill:none; stroke:#a6abb0; stroke-linecap:round; stroke-linejoin:round; stroke-width:.5px;"/><path d="m399.006,127.295c.002,1.298.002,2.312.002,2.848,0,5.043,1.015,5.671,3.333,5.671.724,0,2.374.012,4.25.022" style="fill:none; stroke:#a6abb0; stroke-miterlimit:10; stroke-width:2px;"/><path d="m300.719,127.295c-.002,1.301-.003,2.316-.003,2.852,0,5.048-1.016,5.671-3.334,5.671-.722,0-2.371.012-4.248.024" style="fill:none; stroke:#a6abb0; stroke-miterlimit:10; stroke-width:2px;"/><g id="uuid-7c84c13b-c783-4f77-bbf6-4d4aceee7210"><path d="m433.429,47.007c0,.66-.121,1.257-.379,1.805-.305.647-.768,1.159-1.307,1.604-1.114.923-3.97,1.734-6.777,2.108-.986.134-1.981.183-2.854.226-1.56.077-2.481.151-2.885.381-.029.017-.044.028-.044.026-.251.378-.47.712-.647.983.301.258.581.504.827.726,1.78,1.619,7.087,9.533,8.47,12.443,1.293,2.729,1.309,8.245,1.396,19.109.013,1.669.028,3.47.047,5.416.032,3.112-.063,6.194-.274,9.056,0,.62-.009,5.709-.02,12.093-.018,10.761-.043,25.206-.043,28.164,0,2.896-.273,4.838-1.1,6.034-.315.456-.705.798-1.163,1.038-.791.415-1.708.483-2.591.483-.63,0-1.877.008-3.396.018-1.05.007-2.227.015-3.424.021-1.176-.006-2.344-.014-3.389-.021-1.526-.01-2.783-.018-3.42-.018-.883,0-1.799-.068-2.589-.483-.458-.241-.847-.583-1.161-1.039-.824-1.196-1.095-3.138-1.095-6.033,0-1.054-.004-3.625-.009-6.945-.002-1.119-.004-2.323-.006-3.584-.452-.114-.896-.279-1.252-.484,0,0-2.545-1.457-2.55-1.459-.16-.093-.536-.207-.738-.22,0,0-5.388-.392-5.385-.391-.608-.042-1.144-.327-1.524-.734-.182-.195-.333-.423-.441-.675-3.166.137-6.711.234-10.708.291-.323,0-.637-.07-.934-.197-.169-.076-.404-.155-.64-.155h-63.252c-.243,0-.469.078-.655.162-.288.123-.609.191-.941.19-3.983-.058-7.522-.155-10.687-.291-.109.251-.259.477-.44.671-.382.41-.921.696-1.529.738,0,0-5.381.392-5.385.392-.198.014-.574.127-.739.223,0,0-2.545,1.457-2.541,1.454-.36.208-.804.373-1.257.487-.002,1.129-.003,2.213-.005,3.232-.005,3.49-.009,6.206-.009,7.297,0,2.896-.273,4.838-1.1,6.034-.315.456-.705.798-1.163,1.038-.791.415-1.708.483-2.591.483-.63,0-1.877.008-3.395.018-1.05.007-2.227.015-3.424.021-1.176-.006-2.344-.014-3.389-.021-1.526-.01-2.783-.018-3.42-.018-.883,0-1.8-.068-2.59-.483-.458-.241-.847-.583-1.161-1.039-.824-1.196-1.095-3.138-1.095-6.033,0-2.96-.025-17.432-.043-28.196-.011-6.371-.02-11.446-.017-11.989-.214-2.934-.308-6.016-.277-9.129.02-1.946.034-3.747.047-5.416.087-10.864.103-16.38,1.396-19.108,1.375-2.911,6.683-10.827,8.473-12.446.244-.221.522-.464.817-.724-.177-.272-.398-.608-.64-.975,0,0-.013-.013-.051-.034-.404-.23-1.324-.304-2.882-.381-.872-.043-1.865-.092-2.847-.226-2.806-.374-5.674-1.185-6.779-2.108-.541-.447-1.009-.962-1.316-1.614-.257-.545-.378-1.139-.378-1.796,0-.367.034-.831.067-1.304.027-.377.055-.78.075-1.209.035-.649.122-1.244.378-1.776.176-.365.413-.666.695-.918.216-.199.4-.38.607-.584.33-.325.701-.69,1.288-1.208,1.046-.923,2.767-1.873,4.374-2.162,1.413-.248,4.318-.642,5.968-.823.96-.106,2.05-.12,2.91.502.654.473,1.018,1.197,1.202,2.068.353,1.711.337,5.445.334,6.555,0,.093,0,.168,0,.226,0,.131-.002.266-.003.395-.008.663.003,1.066.053,1.24.231.272.814,1.008,1.346,1.685,4.101-13.941,8.394-25.623,10.399-30.894,1.04-2.719,1.98-4.356,3.202-5.329,1.258-1.002,2.69-1.188,4.286-1.411,23.095-2.048,46.454-2.048,46.454-2.048,0,0,23.358,0,46.505,2.054,1.541.217,2.97.404,4.226,1.405,1.221.973,2.162,2.609,3.202,5.33,2.012,5.27,6.298,16.951,10.405,30.889.525-.664,1.106-1.394,1.342-1.673.049-.176.06-.58.052-1.24-.002-.132-.003-.27-.003-.403,0-.049,0-.111,0-.185-.002-1.064-.015-4.867.342-6.596.179-.865.539-1.59,1.192-2.064.861-.626,1.956-.611,2.92-.505,1.651.182,4.555.576,5.974.825,1.593.288,3.323,1.237,4.36,2.161.592.521.965.887,1.3,1.214.205.201.389.381.598.573.795.721,1.01,1.581,1.07,2.699.02.372.045.729.069,1.066.037.534.074,1.05.074,1.448Z" style="fill:none; stroke:#a6abb0; stroke-miterlimit:3; stroke-width:.5px;"/><path d="m433.179,47.007c0,.628-.115,1.188-.355,1.699-.284.604-.719,1.087-1.24,1.518-1.053.873-3.841,1.679-6.651,2.053-.974.132-1.958.18-2.832.224-1.527.076-2.526.146-2.996.413-.086.049-.116.086-.125.1-.313.471-.578.876-.772,1.174.363.308.7.603.988.863,1.746,1.588,7.036,9.47,8.412,12.366,1.262,2.664,1.285,8.097,1.372,19.004.013,1.669.028,3.47.047,5.416.032,3.106-.063,6.181-.274,9.054,0,.619-.009,5.708-.02,12.093-.018,10.761-.043,25.207-.043,28.165,0,2.901-.278,4.768-1.055,5.892-.293.423-.652.738-1.073.959-.733.385-1.598.454-2.475.454-.631,0-1.879.008-3.397.018-1.05.007-2.227.015-3.421.021-1.176-.006-2.344-.014-3.388-.021-1.525-.01-2.784-.018-3.422-.018-.877,0-1.741-.07-2.473-.455-.421-.221-.78-.536-1.072-.96-.775-1.124-1.051-2.99-1.051-5.891,0-1.054-.004-3.625-.009-6.946-.002-1.178-.004-2.449-.006-3.782-.498-.109-.995-.282-1.378-.504,0,0-2.545-1.457-2.549-1.459-.194-.113-.608-.237-.845-.253,0,0-5.388-.392-5.386-.391-.54-.038-1.018-.29-1.359-.655-.2-.215-.358-.474-.455-.762-3.209.141-6.81.24-10.877.299-.287,0-.568-.062-.832-.175-.184-.082-.456-.177-.743-.177h-63.252c-.294,0-.557.094-.754.182-.257.11-.545.17-.839.17-4.057-.059-7.651-.158-10.859-.299-.097.286-.255.544-.454.758-.342.367-.824.622-1.364.659,0,0-5.381.392-5.384.392-.235.016-.648.141-.846.255,0,0-2.545,1.457-2.542,1.455-.386.223-.883.396-1.381.505-.002,1.2-.004,2.352-.005,3.43-.005,3.49-.009,6.206-.009,7.298,0,2.901-.278,4.768-1.055,5.892-.293.423-.652.738-1.073.959-.733.385-1.598.454-2.475.454-.631,0-1.879.008-3.397.018-1.05.007-2.227.015-3.421.021-1.176-.006-2.344-.014-3.388-.021-1.525-.01-2.783-.018-3.421-.018-.877,0-1.741-.07-2.473-.455-.421-.221-.78-.536-1.072-.96-.775-1.124-1.051-2.99-1.051-5.891,0-2.961-.025-17.432-.043-28.197-.011-6.372-.02-11.445-.018-12.006-.213-2.927-.308-6.002-.276-9.108.02-1.946.034-3.748.047-5.416.087-10.908.11-16.34,1.372-19.003,1.368-2.896,6.659-10.779,8.415-12.368.287-.259.621-.551.981-.859-.194-.299-.459-.704-.774-1.178-.009-.014-.039-.051-.125-.1-.47-.267-1.468-.338-2.993-.413-.874-.043-1.856-.092-2.826-.224-2.809-.375-5.609-1.18-6.652-2.053-.523-.433-.963-.919-1.249-1.528-.239-.508-.354-1.064-.354-1.689,0-.356.033-.809.066-1.286.027-.377.055-.782.076-1.214.035-.638.119-1.194.353-1.682.16-.333.376-.607.639-.842.22-.202.406-.386.613-.59.33-.325.696-.686,1.278-1.199,1.017-.898,2.698-1.824,4.252-2.103,1.407-.246,4.306-.64,5.952-.821.955-.106,1.959-.106,2.736.456.587.425.928,1.083,1.104,1.916.346,1.679.332,5.38.329,6.504,0,.092,0,.168,0,.226,0,.129-.002.262-.003.392-.009.761.008,1.227.064,1.349.207.233,1.053,1.305,1.689,2.116,4.139-14.137,8.504-26.015,10.53-31.341,1.038-2.714,1.959-4.294,3.124-5.222,1.196-.952,2.556-1.134,4.152-1.358,23.084-2.047,46.432-2.047,46.432-2.047,0,0,23.348,0,46.47,2.052,1.553.219,2.911.401,4.106,1.353,1.164.928,2.086,2.509,3.124,5.223,2.033,5.325,6.39,17.2,10.535,31.334.631-.8,1.48-1.871,1.662-2.07.078-.155.094-.622.085-1.381-.002-.132-.003-.268-.003-.4,0-.05,0-.112,0-.186-.002-1.078-.013-4.847.337-6.545.171-.828.509-1.487,1.094-1.913.778-.566,1.786-.565,2.745-.459,1.647.181,4.546.575,5.957.822,1.541.279,3.23,1.204,4.24,2.102.587.517.957.879,1.291,1.206.205.201.391.383.605.58.723.657.93,1.437.989,2.527.02.374.045.733.069,1.07.037.538.073,1.044.073,1.43Z" style="fill:none; stroke:#a6abb0; stroke-miterlimit:3; stroke-width:.5px;"/><path d="m432.929,47.007c0,.597-.109,1.119-.331,1.592-.263.56-.67,1.016-1.173,1.432-.992.822-3.712,1.623-6.525,1.998-.961.131-1.935.178-2.811.222-1.494.074-2.572.142-3.107.446-.111.063-.174.125-.209.179-.384.578-.695,1.055-.893,1.361.425.358.821.703,1.15,1,1.712,1.557,6.985,9.407,8.355,12.288,1.232,2.599,1.26,7.948,1.348,18.899.013,1.669.028,3.471.047,5.417.031,3.099-.063,6.167-.274,9.051,0,.619-.009,5.707-.02,12.092-.018,10.761-.043,25.207-.043,28.165,0,2.907-.283,4.697-1.011,5.75-.27.391-.599.678-.984.88-.676.354-1.487.426-2.359.426-.632,0-1.882.008-3.399.018-1.05.007-2.226.015-3.418.021-1.176-.006-2.344-.014-3.388-.021-1.525-.01-2.784-.018-3.423-.018-.871,0-1.682-.071-2.357-.426-.385-.202-.713-.489-.982-.88-.725-1.053-1.007-2.843-1.007-5.749,0-1.055-.004-3.626-.009-6.946-.002-1.238-.004-2.579-.006-3.986-.542-.1-1.096-.28-1.503-.516,0,0-2.545-1.457-2.548-1.458-.229-.133-.679-.268-.953-.286,0,0-5.388-.392-5.387-.391-.472-.033-.893-.254-1.193-.576-.218-.233-.378-.526-.451-.85-3.255.145-6.919.248-11.064.308-.252,0-.499-.054-.729-.153-.198-.089-.507-.199-.845-.199h-63.252c-.345,0-.646.11-.853.202-.226.097-.481.15-.737.15-4.138-.06-7.795-.162-11.049-.308-.073.323-.234.613-.45.846-.303.325-.727.548-1.2.581,0,0-5.381.392-5.383.392-.271.019-.722.154-.953.288,0,0-2.545,1.457-2.543,1.455-.409.237-.964.417-1.506.517-.002,1.274-.004,2.495-.005,3.634-.005,3.49-.009,6.206-.009,7.298,0,2.907-.283,4.697-1.011,5.75-.27.391-.599.678-.984.88-.676.354-1.487.426-2.359.426-.632,0-1.882.008-3.399.018-1.05.007-2.226.015-3.418.021-1.176-.006-2.344-.014-3.388-.021-1.525-.01-2.784-.018-3.423-.018-.871,0-1.682-.071-2.357-.426-.385-.202-.713-.489-.982-.88-.725-1.053-1.007-2.843-1.007-5.749,0-2.961-.025-17.433-.043-28.197-.011-6.372-.02-11.445-.018-12.024-.213-2.92-.307-5.988-.275-9.087.02-1.946.034-3.748.047-5.417.088-10.951.116-16.3,1.348-18.899,1.361-2.881,6.635-10.731,8.356-12.289.328-.297.72-.637,1.142-.996-.198-.306-.51-.784-.894-1.364-.036-.054-.098-.115-.209-.179-.535-.304-1.612-.372-3.104-.446-.875-.043-1.847-.091-2.805-.222-2.813-.375-5.543-1.176-6.526-1.998-.506-.418-.917-.877-1.183-1.442-.221-.47-.33-.99-.33-1.583,0-.345.032-.788.066-1.269.027-.376.056-.785.076-1.218.034-.628.117-1.145.329-1.587.144-.3.339-.548.583-.767.223-.206.413-.392.619-.595.329-.324.691-.681,1.268-1.19.989-.872,2.629-1.774,4.129-2.044,1.4-.245,4.293-.638,5.937-.819.951-.105,1.868-.092,2.562.41.52.376.838.968,1.006,1.764.34,1.647.327,5.315.324,6.453,0,.092,0,.168,0,.227,0,.127-.002.259-.003.389-.01.834.013,1.373.127,1.518.237.266,1.349,1.681,1.979,2.487,4.177-14.334,8.613-26.408,10.66-31.789,1.035-2.708,1.937-4.233,3.046-5.116,1.133-.903,2.422-1.081,4.018-1.305,23.073-2.046,46.41-2.046,46.41-2.046,0,0,23.337,0,46.435,2.049,1.566.221,2.853.399,3.985,1.301,1.108.883,2.01,2.408,3.046,5.117,2.054,5.379,6.481,17.45,10.665,31.78.626-.794,1.741-2.207,1.98-2.476.109-.145.132-.684.121-1.513-.002-.133-.003-.267-.003-.396,0-.05,0-.112,0-.186-.002-1.092-.012-4.828.332-6.494.163-.792.478-1.384.996-1.761.695-.505,1.615-.518,2.571-.413,1.644.181,4.537.574,5.94.82,1.489.269,3.138,1.171,4.119,2.044.582.513.948.871,1.281,1.197.205.2.394.385.612.586.652.592.849,1.292.907,2.356.021.377.046.737.069,1.074.038.542.073,1.037.073,1.413Z" style="fill:none; stroke:#a6abb0; stroke-miterlimit:3; stroke-width:.5px;"/><path d="m432.679,47.007c0,.565-.103,1.051-.307,1.486-.243.516-.621.944-1.107,1.346-.931.771-3.583,1.567-6.399,1.943-.949.129-1.912.176-2.79.22-1.461.072-2.618.137-3.219.478-.136.078-.232.164-.294.258-.474.713-.837,1.275-1.014,1.55.487.407.943.802,1.311,1.135,1.678,1.527,6.935,9.344,8.297,12.21,1.201,2.535,1.236,7.8,1.324,18.794.013,1.669.028,3.471.047,5.417.031,3.092-.063,6.154-.274,9.049,0,.619-.009,5.707-.02,12.092-.018,10.761-.043,25.207-.043,28.166,0,2.912-.288,4.627-.967,5.608-.247.358-.546.617-.894.8-.618.324-1.377.397-2.242.397-.633,0-1.884.008-3.4.018-1.05.007-2.226.015-3.415.021-1.175-.006-2.343-.014-3.388-.021-1.524-.01-2.785-.018-3.425-.018-.866,0-1.623-.073-2.241-.397-.348-.183-.646-.443-.892-.801-.676-.981-.962-2.696-.962-5.608,0-1.055-.004-3.626-.009-6.946-.002-1.3-.004-2.714-.006-4.198-.583-.085-1.201-.273-1.629-.521,0,0-2.545-1.457-2.547-1.457-.263-.152-.751-.298-1.06-.319,0,0-5.388-.392-5.388-.392-.404-.028-.767-.218-1.028-.497-.234-.251-.391-.58-.421-.939-3.308.151-7.042.256-11.276.317-.216,0-.43-.047-.627-.132-.213-.095-.559-.221-.947-.221h-63.252c-.396,0-.734.125-.951.223-.195.084-.417.13-.635.13-4.231-.061-7.958-.167-11.265-.317-.031.358-.188.685-.421.935-.263.282-.629.474-1.035.502,0,0-5.381.392-5.382.392-.308.021-.796.167-1.06.32,0,0-2.545,1.457-2.544,1.456-.429.249-1.047.436-1.63.522-.002,1.35-.004,2.644-.006,3.845-.005,3.49-.009,6.207-.009,7.299,0,2.912-.288,4.627-.967,5.608-.247.358-.546.617-.894.8-.618.324-1.377.397-2.243.397-.633,0-1.884.008-3.4.018-1.05.007-2.226.015-3.415.021-1.176-.006-2.343-.014-3.388-.021-1.524-.01-2.785-.018-3.425-.018-.866,0-1.623-.073-2.241-.397-.348-.183-.646-.443-.893-.801-.676-.981-.962-2.696-.962-5.608,0-2.961-.025-17.433-.043-28.197-.011-6.372-.02-11.445-.019-12.042-.212-2.913-.306-5.974-.275-9.067.02-1.947.034-3.749.047-5.417.088-10.994.123-16.26,1.324-18.794,1.354-2.866,6.611-10.684,8.298-12.21.368-.333.818-.722,1.304-1.133-.177-.274-.541-.836-1.015-1.551-.062-.094-.158-.18-.294-.258-.6-.341-1.757-.406-3.215-.478-.877-.044-1.838-.091-2.785-.22-2.816-.375-5.477-1.171-6.4-1.943-.488-.404-.871-.835-1.116-1.356-.204-.433-.306-.915-.306-1.476,0-.334.031-.767.065-1.251.027-.376.056-.787.076-1.222.033-.618.114-1.095.305-1.492.128-.267.302-.49.527-.691.227-.209.419-.398.625-.601.328-.323.686-.676,1.258-1.18.96-.847,2.56-1.725,4.007-1.985,1.393-.244,4.281-.636,5.921-.817.947-.105,1.777-.078,2.388.364.453.327.747.854.907,1.612.333,1.615.322,5.249.319,6.402,0,.092,0,.169,0,.228,0,.125-.002.255-.003.386-.01.809,0,1.479.191,1.687.274.307,1.765,2.213,2.253,2.838.011-.008.021-.016.03-.023,4.21-14.511,8.711-26.764,10.777-32.194,1.033-2.702,1.916-4.171,2.968-5.01,1.071-.853,2.289-1.027,3.885-1.251,23.061-2.045,46.388-2.045,46.388-2.045,0,0,23.327,0,46.401,2.047,1.579.223,2.794.396,3.864,1.249,1.052.838,1.935,2.307,2.969,5.011,2.073,5.43,6.567,17.683,10.784,32.194.007.005.015.011.023.018.056-.071.125-.159.204-.259.609-.773,1.81-2.297,2.055-2.573.183-.206.193-.874.183-1.681-.002-.133-.003-.266-.003-.393,0-.05,0-.113,0-.187-.002-1.107-.011-4.809.327-6.443.156-.755.448-1.281.899-1.609.611-.445,1.445-.471,2.397-.366,1.64.181,4.528.573,5.923.817,1.438.26,3.045,1.138,3.998,1.985.577.508.939.863,1.272,1.188.205.2.396.387.619.592.58.527.769,1.147.826,2.184.021.379.046.741.069,1.077.038.545.072,1.03.072,1.396Z" style="fill:none; stroke:#a6abb0; stroke-miterlimit:3; stroke-width:.5px;"/></g><path d="m432.429,47.007c0,1.167-.462,1.927-1.324,2.639-.869.721-3.454,1.512-6.273,1.888-2.827.384-5.796.039-6.477,1.065-.681,1.026-1.136,1.739-1.136,1.739.548.454,1.065.901,1.473,1.269,1.645,1.496,6.884,9.281,8.239,12.132,1.347,2.843,1.198,9.281,1.347,24.107.031,3.086-.063,6.14-.274,9.046,0,1.66-.063,35.542-.063,40.257,0,5.835-1.175,6.555-3.853,6.555-1.073,0-3.916.024-6.814.039-2.89-.016-5.733-.039-6.814-.039-2.678,0-3.845-.721-3.845-6.555,0-1.488-.008-5.992-.016-11.357v-.008c-.619-.063-1.308-.258-1.754-.517l-2.545-1.457c-.298-.172-.822-.329-1.167-.352l-5.388-.392c-.674-.047-1.222-.634-1.222-1.316v-.133c-3.368.157-7.182.266-11.521.329-.18,0-.36-.039-.525-.11-.227-.102-.611-.243-1.049-.243h-63.252c-.446,0-.822.141-1.05.243-.164.071-.352.11-.533.11-4.339-.063-8.145-.172-11.513-.329v.133c0,.681-.556,1.269-1.23,1.316l-5.381.392c-.345.024-.869.18-1.167.352l-2.545,1.457c-.446.258-1.136.454-1.754.517v.008c-.008,5.365-.015,9.869-.015,11.357,0,5.835-1.175,6.555-3.853,6.555-1.073,0-3.916.024-6.814.039-2.89-.016-5.733-.039-6.814-.039-2.679,0-3.846-.721-3.846-6.555,0-4.715-.063-38.605-.063-40.257-.211-2.906-.306-5.96-.274-9.046.149-14.826,0-21.264,1.347-24.107,1.347-2.851,6.587-10.636,8.239-12.132.407-.368.916-.807,1.465-1.269,0,0-.454-.713-1.136-1.739-.681-1.026-3.65-.681-6.469-1.065-2.819-.376-5.412-1.167-6.273-1.888-.862-.713-1.332-1.472-1.332-2.639,0-.572.094-1.457.141-2.459.055-1.01.235-1.551.752-2.013.595-.548.955-.963,1.88-1.778.932-.822,2.491-1.676,3.885-1.927,1.386-.243,4.269-.634,5.905-.815,1.629-.18,2.663.071,3.023,1.778.352,1.707.313,5.764.313,6.579,0,.822-.071,1.888.251,2.24.321.36,2.397,3.023,2.397,3.023.188-.149.29-.227.29-.227,4.214-14.536,8.725-26.817,10.793-32.252,2.075-5.428,3.47-5.655,6.642-6.101,23.05-2.044,46.366-2.044,46.366-2.044,0,0,23.316,0,46.366,2.044,3.164.446,4.558.674,6.634,6.101,2.075,5.435,6.579,17.716,10.8,32.252,0,0,.102.078.282.219.133-.164,2.091-2.663,2.404-3.015.313-.352.243-1.418.243-2.24,0-.815-.031-4.872.321-6.579s1.386-1.958,3.023-1.778c1.637.18,4.519.572,5.905.815,1.386.251,2.953,1.104,3.877,1.927.924.815,1.292,1.23,1.887,1.778.509.462.689,1.003.744,2.013.055,1.002.141,1.888.141,2.459Z" style="fill:none; stroke:#a6abb0; stroke-miterlimit:3; stroke-width:.5px;"/></g><g id="uuid-984596e7-408d-408e-99ee-26b519d6ac69"><polygon points="4.721 7.663 4.721 149.805 258.214 149.805 258.214 130.597 336.624 95.217 258.214 108.41 258.214 7.663 4.721 7.663" style="fill:none; stroke:#f4f4f4; stroke-miterlimit:20; stroke-width:3px;"/><polygon points="4.721 7.663 4.721 149.805 258.214 149.805 258.214 130.597 336.624 95.217 258.214 108.41 258.214 7.663 4.721 7.663" style="fill:#f4f4f4; stroke-width:0px;"/><polygon points="4.721 7.663 4.721 149.805 258.214 149.805 258.214 130.597 336.624 95.217 258.214 108.41 258.214 7.663 4.721 7.663" style="fill:none; stroke:#30373e; stroke-miterlimit:20; stroke-width:1.5px;"/></g><g id="uuid-bfaa4cac-72d3-4255-899a-f683b9f865db"><g style="clip-path:url(#uuid-156bbf77-a55b-4d47-97d6-2e98fa5cc544);"><path d="m294.906,57.068c-119.247-.265-221.434,5.219-241.331,6.359-2.234.128-4.321,1.158-5.781,2.853l-1.653,1.92c-1.238,1.437-2.959,2.364-4.84,2.607-6.161.798-21.378,2.8-38.883,5.341" style="fill:none; stroke:#a6abb0; stroke-linecap:round; stroke-linejoin:round; stroke-width:.5px;"/><line x1="46.98" y1="73.327" x2="45.894" y2="90.912" style="fill:none; stroke:#a6abb0; stroke-linecap:round; stroke-linejoin:round; stroke-width:.5px;"/><path d="m235.938,64.496c-92.618,1.16-165.845,3.614-182.363,4.895-1.913.148-4.252,1.099-5.873,3.225-.581.763-1.444,1.261-2.395,1.382-1.251.159-2.934.374-4.007.513-6.161.798-21.378,2.8-38.883,5.341" style="fill:none; stroke:#a6abb0; stroke-linecap:round; stroke-linejoin:round; stroke-width:.75px;"/><path d="m295.588,64.185c-15.595-.037-30.901.024-45.771.161" style="fill:none; stroke:#a6abb0; stroke-linecap:round; stroke-linejoin:round; stroke-width:.5px;"/><path d="m68.605,77.609c-1.766,0-3.186-1.369-3.199-3.118-.013-1.797,1.46-3.317,3.292-3.394,4.099-.173,8.707-.352,13.756-.533,1.828-.082,3.323,1.338,3.329,3.137s-1.477,3.31-3.312,3.376c-5.034.179-9.632.357-13.72.53-.049.002-.098.003-.146.003Zm22.203-.821c-1.782,0-3.208-1.388-3.209-3.149,0-1.798,1.484-3.305,3.317-3.366,4.346-.144,8.94-.289,13.75-.433,1.857-.049,3.32,1.357,3.319,3.157,0,1.799-1.489,3.303-3.324,3.358-4.805.144-9.397.287-13.738.431-.039.001-.077.002-.115.002Zm22.213-.678c-1.79,0-3.223-1.399-3.22-3.166.004-1.799,1.493-3.299,3.327-3.351,4.443-.126,9.036-.251,13.754-.375,1.797-.041,3.321,1.371,3.317,3.171s-1.496,3.299-3.332,3.347c-4.718.123-9.308.247-13.748.373-.033,0-.066.001-.099.001Zm22.226-.589c-1.796,0-3.235-1.407-3.23-3.179.005-1.8,1.498-3.295,3.333-3.341,4.497-.112,9.091-.222,13.762-.33.026,0,.053,0,.08,0,1.799,0,3.241,1.409,3.236,3.183-.005,1.801-1.499,3.296-3.337,3.338-4.669.107-9.262.217-13.758.329-.029,0-.058,0-.087,0Zm22.241-.518c-1.804,0-3.247-1.413-3.241-3.189.007-1.8,1.501-3.292,3.337-3.332,4.537-.1,9.133-.197,13.771-.29.024,0,.047,0,.07,0,1.805,0,3.254,1.416,3.248,3.194-.006,1.801-1.501,3.292-3.34,3.329-4.638.093-9.233.189-13.769.288-.026,0-.051,0-.076,0Zm22.254-.454c-1.809,0-3.259-1.42-3.251-3.2.007-1.801,1.503-3.289,3.341-3.324,4.569-.088,9.169-.171,13.783-.251,1.846-.071,3.324,1.402,3.318,3.204s-1.503,3.29-3.344,3.321c-4.614.079-9.213.163-13.781.25-.022,0-.044,0-.066,0Zm22.283-.392c-1.815,0-3.27-1.427-3.262-3.211.009-1.801,1.507-3.285,3.347-3.315,4.598-.074,9.2-.144,13.791-.21.017,0,.034,0,.05,0,1.817,0,3.277,1.429,3.269,3.215-.008,1.803-1.508,3.286-3.349,3.312-4.591.065-9.192.135-13.789.209-.019,0-.037,0-.056,0Zm34.882-.473c-4.162.045-8.352.095-12.56.15-.015,0-.031,0-.046,0-1.821,0-3.282-1.434-3.273-3.222.01-1.802,1.51-3.282,3.351-3.306,3.901-.051,7.787-.099,11.648-.142m13.56-.136c3.672-.032,7.312-.061,10.91-.084h.022c1.833,0,3.305,1.447,3.291,3.243-.014,1.804-1.52,3.277-3.365,3.289-3.891.025-7.832.056-11.811.091" style="fill:none; stroke:#a6abb0; stroke-linecap:round; stroke-linejoin:round; stroke-width:.5px;"/><path d="m51.883,78.623c-1.735,0-3.143-1.324-3.192-3.048-.05-1.796,1.393-3.345,3.224-3.462.695-.044,3.158-.346,3.855-.387,1.377-.081,2.91-.164,4.588-.248,1.838-.096,3.339,1.29,3.367,3.086.028,1.797-1.435,3.329-3.268,3.42-1.659.083-4.939.425-6.3.505-.685.04-1.37.082-2.055.126-.073.005-.147.007-.219.007Z" style="fill:none; stroke:#a6abb0; stroke-linecap:round; stroke-linejoin:round; stroke-width:.5px;"/><path d="m80.058,84.93c-1.794,0-3.222-1.407-3.207-3.181.015-1.802,1.515-3.299,3.349-3.346,4.207-.107,8.741-.216,13.558-.325,1.785-.035,3.309,1.384,3.293,3.187-.016,1.803-1.518,3.299-3.355,3.34-4.812.108-9.344.217-13.548.323-.03,0-.059,0-.089,0Zm21.905-.505c-1.803,0-3.237-1.417-3.218-3.196.019-1.802,1.522-3.294,3.356-3.333,4.343-.092,8.873-.185,13.56-.276.023,0,.046,0,.068,0,1.805,0,3.243,1.419,3.225,3.2-.018,1.803-1.522,3.295-3.359,3.33-4.686.091-9.215.182-13.558.274-.025,0-.05,0-.074,0Zm21.915-.433c-1.808,0-3.248-1.423-3.228-3.205.018-1.803,1.524-3.291,3.36-3.326,4.413-.082,8.942-.163,13.568-.242,1.802-.054,3.313,1.404,3.295,3.208-.017,1.804-1.523,3.292-3.361,3.324-4.626.079-9.155.159-13.567.24-.022,0-.044,0-.065,0Zm21.928-.379c-1.813,0-3.258-1.428-3.239-3.214.02-1.803,1.526-3.289,3.363-3.319,4.458-.072,8.988-.144,13.577-.213.018,0,.036,0,.053,0,1.814,0,3.262,1.429,3.246,3.216-.018,1.805-1.523,3.291-3.364,3.318-4.589.069-9.121.14-13.578.211-.019,0-.038,0-.057,0Zm21.945-.333c-1.817,0-3.267-1.433-3.249-3.222.019-1.804,1.525-3.287,3.364-3.313,4.489-.064,9.023-.126,13.585-.186.015,0,.031,0,.046,0,1.819,0,3.272,1.434,3.256,3.223-.017,1.806-1.523,3.289-3.365,3.313-4.562.06-9.097.122-13.587.185-.017,0-.033,0-.05,0Zm21.959-.291c-1.821,0-3.276-1.438-3.259-3.229.018-1.805,1.525-3.286,3.366-3.308,4.518-.056,9.055-.109,13.595-.16h.039c1.823,0,3.282,1.439,3.266,3.232-.016,1.806-1.524,3.287-3.367,3.307-4.54.05-9.078.103-13.597.157-.014,0-.029,0-.043,0Zm21.975-.246c-1.826,0-3.286-1.443-3.27-3.237.018-1.806,1.524-3.284,3.366-3.303,4.547-.047,9.088-.09,13.607-.13h.032c1.828,0,3.292,1.445,3.276,3.24-.016,1.807-1.524,3.285-3.368,3.301-4.52.04-9.06.082-13.607.129h-.037Zm21.991-.199c-1.831,0-3.297-1.449-3.28-3.246.018-1.806,1.526-3.282,3.37-3.296,4.576-.036,9.12-.069,13.617-.097,1.852,0,3.326,1.444,3.31,3.25-.017,1.808-1.526,3.283-3.372,3.294-4.496.028-9.04.06-13.617.095h-.028Zm22.009-.143c-1.838,0-3.309-1.455-3.291-3.257.018-1.807,1.528-3.279,3.373-3.288,4.61-.024,9.16-.043,13.629-.057h.011c1.841,0,3.316,1.458,3.298,3.262-.018,1.808-1.53,3.279-3.377,3.285-4.468.013-9.015.032-13.625.055h-.018Z" style="fill:none; stroke:#a6abb0; stroke-linecap:round; stroke-linejoin:round; stroke-width:.5px;"/><path d="m59.331,85.548c-1.788,0-3.213-1.396-3.205-3.163.007-1.803,1.502-3.309,3.339-3.367,2.068-.064,10.137-.327,12.502-.394,1.787-.038,3.313,1.366,3.302,3.167s-1.506,3.305-3.342,3.357c-2.358.066-10.423.335-12.487.399-.036,0-.072.001-.108.001Z" style="fill:none; stroke:#a6abb0; stroke-linecap:round; stroke-linejoin:round; stroke-width:.5px;"/><path d="m66.727,90.717c-.158-.385-.241-.809-.233-1.256.034-1.805,1.549-3.291,3.384-3.322,4.128-.068,8.734-.137,13.752-.208.017,0,.034,0,.05,0,1.812,0,3.246,1.433,3.213,3.222-.005.289-.049.57-.126.838m2.029-.033c-.065-.264-.098-.543-.092-.83.036-1.805,1.554-3.288,3.39-3.311,4.356-.056,8.953-.113,13.755-.17.014,0,.028,0,.042,0,1.818,0,3.256,1.438,3.223,3.23-.006.287-.048.565-.124.831m2.03-.02c-.066-.265-.098-.543-.093-.831.035-1.806,1.553-3.286,3.39-3.307,4.45-.05,9.046-.099,13.762-.147,1.849-.059,3.303,1.43,3.27,3.237-.006.311-.055.612-.143.897m2.067-.012c-.079-.287-.118-.59-.113-.904.033-1.807,1.551-3.286,3.39-3.304,4.505-.044,9.102-.087,13.773-.128h.032c1.824,0,3.274,1.446,3.244,3.242-.008.452-.108.883-.284,1.277m2.337-.026c-.16-.389-.245-.816-.238-1.266.032-1.807,1.548-3.284,3.388-3.3l13.782-.112h.029c1.828,0,3.283,1.449,3.254,3.247-.006.406-.088.795-.231,1.155m2.287.1c-.161-.389-.247-.817-.24-1.267.029-1.808,1.545-3.285,3.387-3.298,4.574-.034,9.177-.066,13.792-.097h.024c1.832,0,3.292,1.452,3.266,3.252-.007.452-.106.884-.281,1.277m2.366.028c-.175-.402-.269-.847-.262-1.316.027-1.809,1.542-3.284,3.385-3.295,4.604-.029,9.21-.055,13.804-.08h.019c1.835,0,3.3,1.455,3.276,3.257-.006.453-.105.884-.279,1.277m2.418.175c-.218-.439-.338-.936-.331-1.461.024-1.809,1.539-3.283,3.384-3.292,4.632-.023,9.242-.043,13.814-.061h.015c1.839,0,3.309,1.459,3.287,3.264-.006.453-.104.884-.278,1.277m2.344-.01c-.164-.391-.251-.821-.246-1.273.023-1.81,1.537-3.282,3.383-3.289,4.667-.016,9.282-.029,13.826-.039h.009c1.843,0,3.318,1.463,3.298,3.27-.005.453-.104.885-.278,1.277" style="fill:none; stroke:#a6abb0; stroke-linecap:round; stroke-linejoin:round; stroke-width:.5px;"/><path d="m47.46,91.232c-.159-.383-.244-.804-.238-1.249.023-1.805,1.531-3.303,3.367-3.347,1.91-.046,8.436-.3,10.955-.35.023,0,.046,0,.068,0,1.803,0,3.231,1.421,3.202,3.203-.005.33-.06.65-.158.952" style="fill:none; stroke:#a6abb0; stroke-linecap:round; stroke-linejoin:round; stroke-width:.5px;"/><path d="m294.71,78.988c-.018,1.808-1.53,3.279-3.377,3.285-4.468.013-9.015.032-13.625.055h-.018c-1.838,0-3.309-1.455-3.291-3.257.018-1.807,1.528-3.279,3.373-3.288,4.61-.024,9.16-.043,13.629-.057h.011c1.841,0,3.316,1.458,3.298,3.262" style="fill:none; stroke:#a6abb0; stroke-linecap:round; stroke-linejoin:round; stroke-width:.5px;"/><path d="m285.943,70.09c-.018,1.808-1.53,3.279-3.377,3.285-4.468.013-9.015.032-13.625.055h-.018c-1.838,0-3.309-1.455-3.291-3.257.018-1.807,1.528-3.279,3.373-3.288,4.61-.024,9.16-.043,13.629-.057h.011c1.841,0,3.316,1.458,3.298,3.262" style="fill:none; stroke:#a6abb0; stroke-linecap:round; stroke-linejoin:round; stroke-width:.5px;"/><path d="m308.723,70.09c-.018,1.808-1.53,3.279-3.377,3.285-4.468.013-9.015.032-13.625.055h-.018c-1.838,0-3.309-1.455-3.291-3.257.018-1.807,1.528-3.279,3.373-3.288,4.61-.024,9.16-.043,13.629-.057h.011c1.841,0,3.316,1.458,3.298,3.262" style="fill:none; stroke:#a6abb0; stroke-linecap:round; stroke-linejoin:round; stroke-width:.5px;"/><path d="m267.378,89.467c-.288-.485-.451-1.052-.445-1.659.018-1.807,1.528-3.279,3.373-3.288,4.61-.024,9.16-.043,13.629-.057h.011c1.841,0,3.316,1.458,3.298,3.262" style="fill:none; stroke:#a6abb0; stroke-linecap:round; stroke-linejoin:round; stroke-width:.5px;"/><path d="m287.244,87.725c-.006.642-.201,1.241-.532,1.748" style="fill:none; stroke:#a6abb0; stroke-linecap:round; stroke-linejoin:round; stroke-width:.5px;"/><path d="m289.992,89.474c-.291-.487-.455-1.056-.449-1.666.018-1.807,1.528-3.279,3.373-3.288,4.61-.024,9.16-.043,13.629-.057h.011c1.841,0,3.316,1.458,3.298,3.262-.006.636-.197,1.23-.523,1.733" style="fill:none; stroke:#a6abb0; stroke-linecap:round; stroke-linejoin:round; stroke-width:.5px;"/><path d="m238.297,59.979c.179-.097.38-.148.584-.148h8.912c.31,0,.608.117.834.329l.999.933c.274.256.416.624.384.998l-.887,10.353c-.08.929-.804,1.673-1.731,1.775-1.145.126-2.843.259-4.892.259-1.998,0-3.599-.19-4.68-.375-.915-.156-1.591-.932-1.622-1.86l-.345-10.295c-.013-.385.193-.744.531-.928l1.913-1.04Z" style="fill:none; stroke:#a6abb0; stroke-linecap:round; stroke-linejoin:round; stroke-width:.5px;"/><path d="m248.627,60.165l-.652,8.458c-.058.759-.591,1.367-1.271,1.45-.841.103-2.088.212-3.592.212-1.467,0-2.642-.156-3.436-.306-.672-.127-1.168-.762-1.191-1.52l-.253-8.411" style="fill:none; stroke:#a6abb0; stroke-linecap:round; stroke-linejoin:round; stroke-width:.5px;"/><ellipse cx="243.125" cy="65.606" rx="2.828" ry="2.624" style="fill:none; stroke:#a6abb0; stroke-linecap:round; stroke-linejoin:round; stroke-width:.5px;"/><path d="m249.313,70.065c-.081.948-.821,1.708-1.767,1.812-1.169.128-2.903.265-4.995.265-2.039,0-3.674-.194-4.778-.382-.934-.159-1.624-.952-1.656-1.899" style="fill:none; stroke:#a6abb0; stroke-linecap:round; stroke-linejoin:round; stroke-width:.5px;"/><path d="m312.161,89.454c-134.973.199-279.585-1.51-309.744,5.322" style="fill:none; stroke:#a6abb0; stroke-linecap:round; stroke-linejoin:round;"/><path d="m291.291,93.165c-128.665.029-260.265-1.176-288.874,5.305" style="fill:none; stroke:#a6abb0; stroke-linecap:round; stroke-linejoin:round; stroke-width:.5px;"/><path d="m294.569,130.346l-19.004-.008c-49.751-.022-99.295-.174-142.52.059-2.506.014-5.003.561-7.28,1.608l-16.961,7.802c-2.264,1.041-4.684,1.579-7.176,1.607-52.935.601-75.767,2.008-88.864,3.39l-14.784,1.56" style="fill:none; stroke:#a6abb0; stroke-linecap:round; stroke-linejoin:round;"/><path d="m294.568,122.823h-10.094c-53.399,0-107.077-.193-153.474.057-2.506.014-5.003.561-7.28,1.608l-16.961,7.802c-2.264,1.041-4.684,1.579-7.176,1.607-55.073.625-77.672,2.156-89.061,3.424l-14.527,1.617" style="fill:none; stroke:#a6abb0; stroke-linecap:round; stroke-linejoin:round; stroke-width:.5px;"/><path d="m294.908,43.575c-97.216-.08-188.411,1.161-257.377,7.93-24.604,2.415-31.061-9.536-27.832-29.34,1.103-6.767,2.691-16.57,3.418-21.059" style="fill:none; stroke:#a6abb0; stroke-linecap:round; stroke-linejoin:round; stroke-width:.5px;"/><path d="m296.956,31.681c-89.829-.147-175.036,1.648-191.993,2.938-20.853,1.587-26.122-7.493-25.613-17.68.342-6.852,1.022-21.471,1.022-21.471" style="fill:none; stroke:#a6abb0; stroke-linecap:round; stroke-linejoin:round; stroke-width:.5px;"/><path d="m66.309,1.22l-1.866,20.794c-1.19,13.257-12.559,23.369-28.648,24.562-8.935.662-23.227-3.898-20.658-22.068L18.429,1.227" style="fill:none; stroke:#a6abb0; stroke-linecap:round; stroke-linejoin:round;"/><line x1="193.683" y1="60.132" x2="193.79" y2="60.142" style="fill:none; stroke:#a6abb0; stroke-linecap:round; stroke-linejoin:round; stroke-width:.5px;"/><path d="m212.467,61.383c.001,1.063-1.785,1.94-4.012,1.984h-.146s-15.697.278-15.697.278l-.416.014h-.146c-2.305.003-4.162-.882-4.163-1.972-.001-1.077,1.774-1.94,4-1.984h.157s15.697-.278,15.697-.278l.416-.014h.146c2.294-.003,4.162.882,4.163,1.972Z" style="fill:#f4ae3d; stroke:#30373e; stroke-linecap:round; stroke-linejoin:round;"/><ellipse cx="136.047" cy="106.061" rx="5.1" ry="4.761" transform="translate(-11.026 15.91) rotate(-6.433)" style="fill:none; stroke:#a6abb0; stroke-linecap:round; stroke-linejoin:round; stroke-width:.5px;"/><ellipse cx="136.047" cy="106.061" rx="2.73" ry="2.548" transform="translate(-11.026 15.91) rotate(-6.433)" style="fill:none; stroke:#a6abb0; stroke-linecap:round; stroke-linejoin:round; stroke-width:.5px;"/><path d="m27.219,143.609c-.607.039-1.118.467-1.264,1.057l-.567,2.296c-.397,1.607-.534,3.267-.405,4.917l1.473,18.848" style="fill:none; stroke:#a6abb0; stroke-linecap:round; stroke-linejoin:round;"/><path d="m33.344,149.057c34.418-1.135,107.72-2.669,232.3-1.322l33.013.357" style="fill:none; stroke:#a6abb0; stroke-linecap:round; stroke-linejoin:round; stroke-width:.5px;"/><path d="m-1.916,151.402l11.226-1.023s2.909-.265,9.054-.719c.463-.034.926-.068,1.389-.102" style="fill:none; stroke:#a6abb0; stroke-linecap:round; stroke-linejoin:round; stroke-width:.5px;"/><line x1="30.733" y1="75.905" x2="28.993" y2="91.863" style="fill:none; stroke:#a6abb0; stroke-linecap:round; stroke-linejoin:round; stroke-width:.5px;"/><path d="m61.731-.392s-1.36,15.599-1.866,20.794c-1.056,10.83-12.949,19.738-24.742,19.738-9.263,0-20.879-3.59-19.537-17.002" style="fill:none; stroke:#a6abb0; stroke-linecap:round; stroke-linejoin:round; stroke-width:.5px;"/></g></g></svg>