<svg xmlns="http://www.w3.org/2000/svg" xmlns:xlink="http://www.w3.org/1999/xlink" width="487.497" height="269.427" viewBox="0 0 487.497 269.427"><defs><radialGradient id="ffa9634e-27b7-40b0-b968-a0d293276b37" cx="360.856" cy="126.078" r="56.112" gradientTransform="translate(38.33 -0.668) scale(1.072 1.072)" gradientUnits="userSpaceOnUse"><stop offset="0.569" stop-color="#f4ae3d"/><stop offset="1" stop-color="#f4ae3d" stop-opacity="0"/></radialGradient><radialGradient id="a227e649-486d-4cbc-a8a0-00c0a2e30b4a" cx="147.214" cy="208.737" r="43.826" xlink:href="#ffa9634e-27b7-40b0-b968-a0d293276b37"/><radialGradient id="ab133a74-256d-4315-9ecc-484e477aa177" cx="147.214" cy="208.737" r="43.826" gradientTransform="matrix(1.072, 0, 0, -1.072, 38.33, 271.093)" xlink:href="#ffa9634e-27b7-40b0-b968-a0d293276b37"/><radialGradient id="a125d9ee-6138-4b3b-84e9-7917e0bb1cd0" cx="24.125" cy="127.459" r="57.699" xlink:href="#ffa9634e-27b7-40b0-b968-a0d293276b37"/></defs><g id="e59f2e53-cc0a-4377-ac63-d58115b3fb52" data-name="below"><path d="M426.213,134.208,436.791,194.2a60.922,60.922,0,0,0,0-119.988Z" style="opacity:0.5;fill:url(#ffa9634e-27b7-40b0-b968-a0d293276b37)"/><path d="M242.3,231.691a47.105,47.105,0,0,1-92.776,0l46.388-8.179Z" style="opacity:0.5;fill:url(#a227e649-486d-4cbc-a8a0-00c0a2e30b4a)"/><path d="M195.907,46.913,242.3,38.734a47.105,47.105,0,0,0-92.776,0Z" style="opacity:0.5;fill:url(#ab133a74-256d-4315-9ecc-484e477aa177)"/><path d="M53.07,197.152a62.9,62.9,0,0,1,0-123.879l10.921,61.939Z" style="opacity:0.5;fill:url(#a125d9ee-6138-4b3b-84e9-7917e0bb1cd0)"/></g><g id="b0dde68b-b403-40fd-811e-7a86881c729e" data-name="illustration"><path d="M337.738,193.843c.264-.121.264-.319,0-.44l-2.748-1.269a1.289,1.289,0,0,0-.954,0l-2.748,1.269c-.264.121-.264.319,0,.44l2.748,1.269a1.289,1.289,0,0,0,.954,0Z" style="fill:none;stroke:#a6abb0;stroke-miterlimit:10;stroke-width:0.5px"/><path d="M261.326,198.63a52.911,52.911,0,0,0,1.6-10.062" style="fill:none;stroke:#a6abb0;stroke-linecap:round;stroke-linejoin:round;stroke-width:0.5px"/><path d="M232.385,181.149a1.5,1.5,0,0,1,0-3h6.29a1.5,1.5,0,0,1,0,3Z" style="fill:none;stroke:#a6abb0;stroke-linecap:round;stroke-linejoin:round;stroke-width:0.5px"/><line x1="235.53" y1="181.149" x2="235.53" y2="178.147" style="fill:none;stroke:#a6abb0;stroke-linecap:round;stroke-linejoin:round;stroke-width:0.5px"/><path d="M186.337,209.676s-3.027-4.316-2.62-7.215c.185-1.322,2.037-1.009,3.253-1.009s4.971.3,4.971.3" style="fill:none;stroke:#a6abb0;stroke-linecap:round;stroke-linejoin:round;stroke-width:0.5px"/><path d="M185.206,198.189c.665.5,2.608,1.633,3.665,2.568,1.011.893,2.757.983,4.707,1.117s2.127.983,2.659,2.189,4.21,10.9,4.388,11.929-.4,1.563-3.059,1.653-3.944,0-6.648-2.413c-2.335-2.084-6.206-7.877-8.338-10.923a6.048,6.048,0,0,0-2.115-1.871l-8.911-4.717" style="fill:none;stroke:#a6abb0;stroke-linecap:round;stroke-linejoin:round;stroke-width:0.5px"/><path d="M171.289,205.792q-.118-.228-.216-.471a7.424,7.424,0,0,1-.418-3.4,15.42,15.42,0,0,1,1.088-4.215" style="fill:none;stroke:#a6abb0;stroke-linecap:round;stroke-linejoin:round;stroke-width:0.5px"/><path d="M251.842,205.158a18.037,18.037,0,0,0,1.143-3.4,19.773,19.773,0,0,0,.429-3.084,52.76,52.76,0,0,0,3.114-10.132" style="fill:none;stroke:#a6abb0;stroke-linecap:round;stroke-linejoin:round;stroke-width:0.5px"/><path d="M250.4,188.515a44.422,44.422,0,0,1-5.384,10.177" style="fill:none;stroke:#a6abb0;stroke-linecap:round;stroke-linejoin:round;stroke-width:0.5px"/><path d="M73.407,185.892s57.465,2.81,71.306,3.319c8.876.326,13.3,3.24,17.782,5.64" style="fill:none;stroke:#a6abb0;stroke-linecap:round;stroke-linejoin:round;stroke-width:0.5px"/><path d="M83.1,198.041s58,1.344,62.978,1.523c5.23.188,8.741.626,12.073-1.692l4.342-3.021" style="fill:none;stroke:#a6abb0;stroke-linecap:round;stroke-linejoin:round;stroke-width:0.5px"/><line x1="210.848" y1="185.162" x2="162.495" y2="194.851" style="fill:none;stroke:#a6abb0;stroke-linecap:round;stroke-linejoin:round;stroke-width:0.5px"/><line x1="171.743" y1="197.705" x2="219.162" y2="188.396" style="fill:none;stroke:#a6abb0;stroke-linecap:round;stroke-linejoin:round;stroke-width:0.5px"/><path d="M355.322,175.805a1.5,1.5,0,0,0,0,3h6.29a1.5,1.5,0,0,0,0-3Z" style="fill:none;stroke:#a6abb0;stroke-linecap:round;stroke-linejoin:round;stroke-width:0.5px"/><line x1="358.467" y1="175.805" x2="358.467" y2="178.806" style="fill:none;stroke:#a6abb0;stroke-linecap:round;stroke-linejoin:round;stroke-width:0.5px"/><path d="M299.864,181.385a1.5,1.5,0,0,1,0-3h6.289a1.5,1.5,0,0,1,0,3Z" style="fill:none;stroke:#a6abb0;stroke-linecap:round;stroke-linejoin:round;stroke-width:0.5px"/><line x1="303.008" y1="181.385" x2="303.008" y2="178.384" style="fill:none;stroke:#a6abb0;stroke-linecap:round;stroke-linejoin:round;stroke-width:0.5px"/><path d="M194.84,202.144c11.645.069,89.74.134,137.082-1.366,26.167-.829,72.336-3.068,72.336-3.068" style="fill:none;stroke:#a6abb0;stroke-linecap:round;stroke-linejoin:round;stroke-width:0.5px"/><path d="M325.05,208.107s.359-3.837.359-7.122c-.976-7.117-.018-4.32.648-13.211" style="fill:none;stroke:#a6abb0;stroke-linecap:round;stroke-linejoin:round;stroke-width:0.5px"/><path d="M307.048,188.179a64.868,64.868,0,0,1-1.826,10.332" style="fill:none;stroke:#a6abb0;stroke-linecap:round;stroke-linejoin:round;stroke-width:0.5px"/><path d="M340.552,187.378a39.222,39.222,0,0,0,1.677,4.268c1.171,2.368,1.916,3.539,7.664,3.326s40.023-2.21,46.445-2.768,13.337-1.352,15.772-3.938a11.179,11.179,0,0,0,2.89-5.13" style="fill:none;stroke:#a6abb0;stroke-linecap:round;stroke-linejoin:round;stroke-width:0.5px"/><path d="M399.394,178.542c-1.359.232-2.868.437-4.565.614-4.948.518-10.727.737-17.5,1.078-14.554.733-37.907,1.809-56.417,2.3-40.579,1.077-47.388.914-91.859.931a69.892,69.892,0,0,0-18.2,1.7" style="fill:none;stroke:#a6abb0;stroke-linecap:round;stroke-linejoin:round;stroke-width:0.5px"/><line x1="192.92" y1="193.546" x2="189.852" y2="198.305" style="fill:none;stroke:#a6abb0;stroke-linecap:round;stroke-linejoin:round;stroke-width:0.5px"/><path d="M337.738,76.581c.264.122.264.319,0,.44L334.99,78.29a1.289,1.289,0,0,1-.954,0l-2.748-1.269c-.264-.121-.264-.318,0-.44l2.748-1.269a1.3,1.3,0,0,1,.954,0Z" style="fill:none;stroke:#a6abb0;stroke-miterlimit:10;stroke-width:0.5px"/><path d="M261.326,71.794a52.911,52.911,0,0,1,1.6,10.062" style="fill:none;stroke:#a6abb0;stroke-linecap:round;stroke-linejoin:round;stroke-width:0.5px"/><path d="M232.385,89.275a1.5,1.5,0,0,0,0,3h6.29a1.5,1.5,0,0,0,0-3Z" style="fill:none;stroke:#a6abb0;stroke-linecap:round;stroke-linejoin:round;stroke-width:0.5px"/><line x1="235.53" y1="89.275" x2="235.53" y2="92.277" style="fill:none;stroke:#a6abb0;stroke-linecap:round;stroke-linejoin:round;stroke-width:0.5px"/><path d="M183.31,65.064c-15.158-.079-29.3-2.192-37.195-2.192-3.658,0-30,.731-38.9.853s-18.167,5.121-20.849,6.34-4.276,3.292-7.56,7.316-6.1,7.194-7.8,12.315c-2.682,8.413-5.974,27.09-5.974,45.516s3.292,37.1,5.974,45.516c1.707,5.121,4.52,8.291,7.8,12.315s4.877,6.1,7.56,7.316,11.949,6.218,20.849,6.34,35.238.854,38.9.854c7.9,0,22.037-2.114,37.195-2.193" style="fill:none;stroke:#a6abb0;stroke-linecap:round;stroke-miterlimit:10;stroke-width:0.5px"/><path d="M186.337,60.748s-3.027,4.316-2.62,7.215c.185,1.323,2.037,1.009,3.253,1.009s4.971-.295,4.971-.295" style="fill:none;stroke:#a6abb0;stroke-linecap:round;stroke-linejoin:round;stroke-width:0.5px"/><path d="M185.206,72.236c.665-.5,2.608-1.634,3.665-2.569,1.011-.893,2.757-.982,4.707-1.116s2.127-.983,2.659-2.19,4.21-10.9,4.388-11.928-.4-1.564-3.059-1.653-3.944,0-6.648,2.412c-2.335,2.084-6.206,7.877-8.338,10.923a6.048,6.048,0,0,1-2.115,1.871L171.554,72.7" style="fill:none;stroke:#a6abb0;stroke-linecap:round;stroke-linejoin:round;stroke-width:0.5px"/><path d="M171.289,64.632q-.118.228-.216.471a7.427,7.427,0,0,0-.418,3.4,15.433,15.433,0,0,0,1.088,4.215" style="fill:none;stroke:#a6abb0;stroke-linecap:round;stroke-linejoin:round;stroke-width:0.5px"/><path d="M251.842,65.266a18.031,18.031,0,0,1,1.143,3.4,19.754,19.754,0,0,1,.429,3.083,52.791,52.791,0,0,1,3.114,10.132" style="fill:none;stroke:#a6abb0;stroke-linecap:round;stroke-linejoin:round;stroke-width:0.5px"/><path d="M250.4,81.909a44.422,44.422,0,0,0-5.384-10.177" style="fill:none;stroke:#a6abb0;stroke-linecap:round;stroke-linejoin:round;stroke-width:0.5px"/><path d="M76.573,99.979c19.57-1.524,44.191-1.2,54.771-.965a5,5,0,0,1,4.855,5.327c-.385,6.161-.936,17.4-.936,30.871s.551,24.71.936,30.871a5,5,0,0,1-4.855,5.327c-10.58.238-35.2.559-54.771-.965" style="fill:none;stroke:#a6abb0;stroke-linecap:round;stroke-linejoin:round;stroke-width:0.5px"/><path d="M73.407,84.532s57.465-2.81,71.306-3.318c8.876-.327,13.3-3.24,17.782-5.641" style="fill:none;stroke:#a6abb0;stroke-linecap:round;stroke-linejoin:round;stroke-width:0.5px"/><path d="M83.1,72.383s58-1.344,62.978-1.523c5.23-.188,8.741-.626,12.073,1.693l4.342,3.02" style="fill:none;stroke:#a6abb0;stroke-linecap:round;stroke-linejoin:round;stroke-width:0.5px"/><line x1="210.848" y1="85.263" x2="162.495" y2="75.573" style="fill:none;stroke:#a6abb0;stroke-linecap:round;stroke-linejoin:round;stroke-width:0.5px"/><line x1="171.743" y1="72.72" x2="219.162" y2="82.028" style="fill:none;stroke:#a6abb0;stroke-linecap:round;stroke-linejoin:round;stroke-width:0.5px"/><path d="M67.251,135.212a.7.7,0,0,1,.145-.436l2.2-2.732a.432.432,0,0,1,.7,0l2.2,2.732a.728.728,0,0,1,0,.872l-2.2,2.732a.432.432,0,0,1-.7,0l-2.2-2.732A.7.7,0,0,1,67.251,135.212Z" style="fill:none;stroke:#a6abb0;stroke-linecap:round;stroke-linejoin:round;stroke-width:0.5px"/><path d="M355.322,94.619a1.5,1.5,0,0,1,0-3h6.29a1.5,1.5,0,0,1,0,3Z" style="fill:none;stroke:#a6abb0;stroke-linecap:round;stroke-linejoin:round;stroke-width:0.5px"/><line x1="358.467" y1="94.619" x2="358.467" y2="91.618" style="fill:none;stroke:#a6abb0;stroke-linecap:round;stroke-linejoin:round;stroke-width:0.5px"/><path d="M299.864,89.039a1.5,1.5,0,0,0,0,3h6.289a1.5,1.5,0,0,0,0-3Z" style="fill:none;stroke:#a6abb0;stroke-linecap:round;stroke-linejoin:round;stroke-width:0.5px"/><line x1="303.008" y1="89.039" x2="303.008" y2="92.041" style="fill:none;stroke:#a6abb0;stroke-linecap:round;stroke-linejoin:round;stroke-width:0.5px"/><path d="M194.84,68.28c11.645-.068,89.74-.133,137.082,1.366,26.167.829,72.336,3.068,72.336,3.068" style="fill:none;stroke:#a6abb0;stroke-linecap:round;stroke-linejoin:round;stroke-width:0.5px"/><path d="M325.05,62.317s.359,3.837.359,7.122c-.976,7.117-.018,4.32.648,13.211" style="fill:none;stroke:#a6abb0;stroke-linecap:round;stroke-linejoin:round;stroke-width:0.5px"/><path d="M307.048,82.245a64.868,64.868,0,0,0-1.826-10.332" style="fill:none;stroke:#a6abb0;stroke-linecap:round;stroke-linejoin:round;stroke-width:0.5px"/><path d="M397.5,85.212c2.322,2.6,1.885,5.209,1.9,6.67.051,5.943.175,22.624.175,43.33s-.124,37.388-.175,43.33c-.012,1.462.425,4.066-1.9,6.671" style="fill:none;stroke:#a6abb0;stroke-linecap:round;stroke-linejoin:round;stroke-width:0.5px"/><path d="M196.767,65.047c99.168.226,7.181.181,92.729.181a159.156,159.156,0,0,0,23.59-1.767c6.239-1.079,9.239-1.2,19.559-1.2h26.134c7.079,0,17.637,2.159,26.157,4.559S404.188,71.38,408,75.126c1.309,1.285,4.961,4.623,5.876,7.658.9,2.99,5.921,21.644,5.921,52.428s-5.019,49.438-5.921,52.429c-.915,3.034-4.567,6.372-5.876,7.658-3.813,3.745-14.546,5.9-23.065,8.3s-19.078,4.56-26.157,4.56H332.645c-10.32,0-13.32-.12-19.559-1.2A159.156,159.156,0,0,0,289.5,205.2c-85.548,0,6.439-.045-92.729.181" style="fill:none;stroke:#a6abb0;stroke-linecap:round;stroke-miterlimit:10;stroke-width:0.5px"/><path d="M340.552,83.046a39.222,39.222,0,0,1,1.677-4.268c1.171-2.368,1.916-3.539,7.664-3.326s40.023,2.21,46.445,2.768,13.337,1.353,15.772,3.938a11.179,11.179,0,0,1,2.89,5.13" style="fill:none;stroke:#a6abb0;stroke-linecap:round;stroke-linejoin:round;stroke-width:0.5px"/><polyline points="377.803 90.19 377.803 135.212 377.803 180.234" style="fill:none;stroke:#a6abb0;stroke-linecap:round;stroke-linejoin:round;stroke-width:0.5px"/><polyline points="339.996 88.521 339.996 135.212 339.996 181.903" style="fill:none;stroke:#a6abb0;stroke-linecap:round;stroke-linejoin:round;stroke-width:0.5px"/><polyline points="320.908 87.89 320.908 135.212 320.908 182.534" style="fill:none;stroke:#a6abb0;stroke-linecap:round;stroke-linejoin:round;stroke-width:0.5px"/><path d="M399.394,91.882a35.522,35.522,0,0,1,6.662,1.724c.738.278,1.014.383,1.283,1.766,2.727,13.834,3.376,27.684,3.376,39.84s-.649,26.006-3.376,39.84c-.269,1.384-.545,1.488-1.283,1.766a35.522,35.522,0,0,1-6.662,1.724" style="fill:none;stroke:#a6abb0;stroke-linecap:round;stroke-linejoin:round;stroke-width:0.5px"/><path d="M229.049,86.959s-3.447,25.115-3.447,48.253,3.447,48.253,3.447,48.253" style="fill:none;stroke:#a6abb0;stroke-linecap:round;stroke-linejoin:round;stroke-width:0.5px"/><path d="M399.394,91.882c-1.359-.232-2.868-.437-4.565-.614-4.948-.517-10.727-.737-17.5-1.078-14.554-.733-37.907-1.809-56.417-2.3-40.579-1.077-47.388-.914-91.859-.931a69.924,69.924,0,0,1-18.2-1.7" style="fill:none;stroke:#a6abb0;stroke-linecap:round;stroke-linejoin:round;stroke-width:0.5px"/><polyline points="394.827 91.268 394.827 135.212 394.827 179.156" style="fill:none;stroke:#a6abb0;stroke-linecap:round;stroke-linejoin:round;stroke-width:0.5px"/><path d="M414.766,86.457l-1.883,2.064a2.338,2.338,0,0,0-.569,2.01,259.507,259.507,0,0,1,4.249,44.681,259.482,259.482,0,0,1-4.249,44.681,2.34,2.34,0,0,0,.569,2.011l1.883,2.064" style="fill:none;stroke:#a6abb0;stroke-linecap:round;stroke-linejoin:round;stroke-width:0.5px"/><path d="M401.05,78.695a7.535,7.535,0,0,1-.831,4.51c-1.03,2.232-2.722,2.261-7.527,2.017-87.5-4.447-138.706-3.169-177.873-3.169-2.965,0-3.589,1.986-3.971,3.21-5.954,19.066-6.04,49.44-6.039,49.949s.085,30.884,6.039,49.95c.382,1.223,1.006,3.209,3.971,3.209,39.167,0,90.376,1.279,177.873-3.169,4.805-.244,6.5-.214,7.527,2.017a7.535,7.535,0,0,1,.831,4.51" style="fill:none;stroke:#a6abb0;stroke-linecap:round;stroke-linejoin:round;stroke-width:0.5px"/><path d="M320.607,82.517a29.779,29.779,0,0,0-1.669-7.9c-.745-1.359-2.248-2.344-5.176-2.5-4.566-.243-22.341-.367-31.772-.367-45.316,0-42.664-.061-58.061.007,0,0-11.625.044-24.956.2s-24.274.613-27.975.763-6.5.871-9.573,3.782-9.705,9.611-12.147,19.013-3.382,18.411-3.382,39.691.939,30.289,3.382,39.691,9.076,16.1,12.147,19.014S167.3,197.549,171,197.7s14.645.606,27.975.762,24.956.2,24.956.2c15.4.068,12.745.008,58.061.008,9.431,0,27.206-.125,31.772-.367,2.928-.156,4.431-1.141,5.176-2.5a29.8,29.8,0,0,0,1.669-7.9" style="fill:none;stroke:#a6abb0;stroke-linecap:round;stroke-linejoin:round;stroke-width:0.5px"/><path d="M380.854,135.212c0-.354-.542-2.549,10.229-2.5v4.994C380.312,137.762,380.854,135.566,380.854,135.212Z" style="fill:none;stroke:#a6abb0;stroke-linecap:round;stroke-linejoin:round;stroke-width:0.5px"/><path d="M232.881,99.348a3.936,3.936,0,0,1,3.91-3.4c26.575.038,34.127.005,75.27.925a3.941,3.941,0,0,1,3.854,3.939v68.794a3.943,3.943,0,0,1-3.854,3.94c-41.143.919-48.695.886-75.27.924a3.935,3.935,0,0,1-3.91-3.4,261.6,261.6,0,0,1,0-71.728Z" style="fill:none;stroke:#a6abb0;stroke-linecap:round;stroke-linejoin:round;stroke-width:0.5px"/><path d="M343.1,135.212v-33a3.945,3.945,0,0,1,4.1-3.942c8.1.329,15.635.578,23.6.745a3.941,3.941,0,0,1,3.858,3.942v64.51a3.941,3.941,0,0,1-3.858,3.942c-7.969.168-15.5.416-23.6.745a3.945,3.945,0,0,1-4.1-3.941Z" style="fill:none;stroke:#a6abb0;stroke-linecap:round;stroke-linejoin:round;stroke-width:0.5px"/><g id="a8e33595-1ac6-41dd-9cd3-3e6bf4058c7c" data-name="Offset Group"><path d="M420.8,135.212c0-30.895-5.034-49.639-5.96-52.716s-4.252-6.257-5.724-7.686c-.156-.151-.292-.283-.41-.4-3.316-3.252-11.229-5.3-18.351-7.168-1.76-.462-3.494-.918-5.142-1.382-8.542-2.406-19.213-4.6-26.431-4.6H332.643c-10.335,0-13.4.122-19.732,1.215A158.319,158.319,0,0,1,289.5,64.225c-18.644,0-28.856,0-34.451,0-5.615,0-6.584,0-6.52.051-.737-.105-5.582-.127-50.3-.23,1.268-3.3,3.24-8.6,3.386-9.451a2.235,2.235,0,0,0-.131-1.328,1.973,1.973,0,0,0-.8-.873,6.657,6.657,0,0,0-3.073-.616c-2.852-.095-4.411.044-7.354,2.661-2.111,1.881-5.3,6.5-7.453,9.617-8.453-.071-16.574-.766-23.47-1.356-5.224-.447-9.785-.838-13.21-.838-1.815,0-9.1.179-17.074.374-8.276.2-17.312.424-21.835.486-8.147.111-16.52,4.159-20.115,5.89-.467.224-.844.406-1.135.538-2.8,1.268-4.514,3.407-7.418,6.97l-.507.622c-.261.319-.518.634-.774.945-2.943,3.591-5.566,6.78-7.2,11.7-2.719,8.526-6.022,27.31-6.022,45.824s3.3,37.3,6.026,45.837c1.633,4.9,4.256,8.093,7.2,11.684.256.312.513.626.774.946l.507.622c2.9,3.562,4.62,5.7,7.416,6.968.293.133.67.315,1.137.54,3.595,1.731,11.968,5.778,20.115,5.889,4.523.062,13.559.283,21.835.486,7.972.195,15.259.374,17.074.374,3.425,0,7.986-.391,13.21-.838,6.9-.59,15.02-1.285,23.47-1.356,2.152,3.115,5.342,7.736,7.453,9.618,2.943,2.616,4.5,2.756,7.354,2.66a6.658,6.658,0,0,0,3.073-.615,1.975,1.975,0,0,0,.8-.874,2.226,2.226,0,0,0,.131-1.325c-.146-.852-2.118-6.15-3.386-9.454,49.619-.114,50.149-.129,50.022-.173.016-.007.016-.007,6.8-.006,5.6,0,15.809,0,34.453,0a158.313,158.313,0,0,1,23.412,1.753c6.329,1.092,9.4,1.214,19.732,1.214h26.136c7.218,0,17.889-2.2,26.431-4.6,1.648-.464,3.382-.92,5.142-1.382,7.122-1.872,15.035-3.915,18.353-7.17.116-.115.252-.247.408-.4,1.472-1.429,4.8-4.622,5.724-7.686S420.8,166.107,420.8,135.212Z" style="fill:none;stroke:#a6abb0;stroke-miterlimit:3;stroke-width:0.5px"/><path d="M420.547,135.212c0-30.869-5.03-49.589-5.949-52.644-.9-2.988-4.17-6.133-5.659-7.578-.156-.152-.293-.284-.412-.4-3.255-3.193-11.078-5.222-18.239-7.1-1.76-.462-3.5-.918-5.146-1.383-8.537-2.405-19.18-4.593-26.363-4.593H332.643c-10.331,0-13.382.122-19.689,1.211A158.574,158.574,0,0,1,289.5,64.475c-18.644,0-28.856,0-34.452,0-5.686,0-6.607,0-6.579.039-.574-.086-4.859-.113-50.607-.218,1.262-3.275,3.358-8.894,3.5-9.744a1.988,1.988,0,0,0-.112-1.181,1.734,1.734,0,0,0-.7-.763,6.447,6.447,0,0,0-2.953-.58c-2.8-.094-4.3.033-7.18,2.6-2.1,1.871-5.3,6.52-7.467,9.649l-.022.032c-8.512-.065-16.69-.765-23.621-1.358-5.229-.447-9.777-.837-13.189-.837-1.811,0-9.093.179-17.068.374-8.275.2-17.313.424-21.838.486-8.083.11-16.408,4.13-20.01,5.865-.465.224-.846.407-1.139.541-2.734,1.239-4.413,3.324-7.328,6.9l-.508.622q-.39.478-.773.945c-2.945,3.593-5.54,6.75-7.158,11.615-2.71,8.5-6.011,27.256-6.011,45.748s3.3,37.25,6.014,45.758c1.615,4.855,4.21,8.012,7.155,11.6q.382.466.774.946l.507.622c2.915,3.576,4.594,5.66,7.326,6.9.3.135.676.318,1.141.542,3.6,1.735,11.927,5.755,20.01,5.865,4.525.062,13.563.284,21.838.486,7.975.2,15.257.374,17.068.374,3.412,0,7.96-.39,13.189-.837,6.932-.593,15.112-1.293,23.621-1.358l.022.032c2.162,3.129,5.367,7.778,7.468,9.65,2.883,2.564,4.375,2.691,7.179,2.6a6.421,6.421,0,0,0,2.953-.58,1.734,1.734,0,0,0,.7-.763,1.983,1.983,0,0,0,.112-1.179c-.146-.852-2.242-6.471-3.5-9.745,50.051-.115,50.472-.137,50.385-.174.016-.007.016-.007,6.8-.006,5.6,0,15.808,0,34.452,0a158.574,158.574,0,0,1,23.455,1.756c6.307,1.089,9.358,1.211,19.689,1.211h26.136c7.183,0,17.826-2.188,26.363-4.592,1.651-.465,3.386-.921,5.146-1.384,7.161-1.882,14.984-3.911,18.241-7.106l.41-.4c1.489-1.445,4.758-4.59,5.659-7.578C415.517,184.8,420.547,166.081,420.547,135.212Z" style="fill:none;stroke:#a6abb0;stroke-miterlimit:3;stroke-width:0.5px"/><path d="M420.3,135.212c0-30.842-5.026-49.538-5.939-52.572-.877-2.912-4.088-6.01-5.593-7.471q-.234-.227-.413-.4c-3.195-3.135-10.929-5.149-18.128-7.041-1.759-.462-3.5-.919-5.15-1.385-8.531-2.4-19.148-4.583-26.3-4.583H332.643c-10.328,0-13.361.122-19.647,1.207a158.668,158.668,0,0,1-23.5,1.76c-18.644,0-28.856,0-34.452,0-5.769,0-6.633,0-6.642.026-.393-.066-3.905-.1-50.908-.206,1.245-3.22,3.475-9.185,3.621-10.036a1.735,1.735,0,0,0-.092-1.034,1.491,1.491,0,0,0-.607-.653,6.227,6.227,0,0,0-2.833-.544c-2.755-.092-4.179.022-7.005,2.534-2.071,1.847-5.255,6.462-7.427,9.605l-.1.141c-8.571-.059-16.807-.763-23.773-1.359-5.234-.448-9.769-.837-13.168-.837-1.807,0-9.084.179-17.062.374-8.274.2-17.314.424-21.84.486-8.02.109-16.3,4.1-19.9,5.84-.465.224-.848.408-1.145.544-2.67,1.21-4.312,3.24-7.237,6.83l-.508.622q-.391.48-.774.946C74.7,81.6,72.133,84.727,70.532,89.539c-2.7,8.471-6,27.2-6,45.673s3.3,37.2,6,45.679c1.6,4.806,4.165,7.93,7.111,11.525l.775.947.507.622c2.925,3.589,4.567,5.62,7.236,6.829.3.136.681.32,1.146.544,3.609,1.738,11.885,5.731,19.905,5.84,4.526.062,13.566.284,21.84.486,7.978.2,15.255.374,17.062.374,3.4,0,7.934-.389,13.168-.836,6.966-.6,15.2-1.3,23.773-1.36l.1.141c2.172,3.143,5.356,7.759,7.428,9.606,2.825,2.511,4.249,2.626,7,2.533a6.213,6.213,0,0,0,2.833-.544,1.486,1.486,0,0,0,.607-.653,1.739,1.739,0,0,0,.093-1.033c-.147-.852-2.377-6.817-3.622-10.037,50.483-.115,50.8-.144,50.749-.174.016-.007.016-.007,6.8-.006,5.6,0,15.808,0,34.452,0a158.8,158.8,0,0,1,23.5,1.76c6.286,1.085,9.319,1.207,19.647,1.207h26.136c7.147,0,17.764-2.18,26.3-4.583,1.654-.466,3.391-.922,5.15-1.385,7.2-1.892,14.933-3.906,18.13-7.042.117-.116.255-.25.411-.4,1.5-1.461,4.716-4.559,5.593-7.471C415.271,184.75,420.3,166.054,420.3,135.212Z" style="fill:none;stroke:#a6abb0;stroke-miterlimit:3;stroke-width:0.5px"/><path d="M420.047,135.212c0-30.816-5.022-49.487-5.928-52.5-.855-2.836-4.006-5.886-5.528-7.363q-.234-.227-.414-.4c-3.135-3.075-10.779-5.075-18.016-6.977-1.759-.463-3.5-.92-5.154-1.386-8.526-2.4-19.116-4.574-26.228-4.574H332.643c-10.324,0-13.34.122-19.6,1.2a159.075,159.075,0,0,1-23.54,1.763c-18.644,0-28.856,0-34.452,0-5.9,0-6.67,0-6.711.012-.181-.043-2.334-.081-51.2-.193,1.218-3.134,3.594-9.476,3.74-10.328a1.489,1.489,0,0,0-.074-.887,1.228,1.228,0,0,0-.508-.542,5.993,5.993,0,0,0-2.712-.509c-2.707-.091-4.064.011-6.83,2.471-2.043,1.821-5.207,6.4-7.389,9.561l-.172.249c-8.629-.053-16.924-.762-23.925-1.361-5.237-.448-9.76-.836-13.146-.836-1.8,0-9.075.178-17.055.374-8.274.2-17.316.424-21.844.486-7.956.108-16.184,4.074-19.8,5.815-.464.224-.849.409-1.15.546-2.6,1.181-4.21,3.158-7.147,6.761q-.246.3-.507.621-.391.482-.774.947c-2.948,3.6-5.485,6.689-7.069,11.449-2.692,8.443-5.987,27.149-5.987,45.6s3.3,37.154,5.988,45.6c1.583,4.757,4.12,7.849,7.068,11.446q.382.466.774.947l.507.622c2.937,3.6,4.542,5.579,7.146,6.76.3.137.687.323,1.151.546,3.616,1.741,11.844,5.707,19.8,5.816,4.528.061,13.57.283,21.844.485,7.98.2,15.252.374,17.055.374,3.386,0,7.909-.387,13.146-.835,7-.6,15.3-1.309,23.925-1.361l.172.249c2.182,3.157,5.346,7.739,7.389,9.561,2.766,2.459,4.123,2.561,6.83,2.47a6.01,6.01,0,0,0,2.712-.508,1.238,1.238,0,0,0,.508-.542,1.49,1.49,0,0,0,.074-.887c-.146-.852-2.522-7.2-3.74-10.329,50.918-.116,51.122-.152,51.114-.175.016-.007.016-.007,6.8-.006,5.6,0,15.808,0,34.452,0a159.075,159.075,0,0,1,23.54,1.763c6.264,1.082,9.28,1.2,19.6,1.2h26.136c7.112,0,17.7-2.172,26.228-4.574,1.655-.466,3.395-.923,5.154-1.385,7.237-1.9,14.881-3.9,18.017-6.979q.179-.176.413-.4c1.522-1.478,4.673-4.527,5.528-7.364C415.025,184.7,420.047,166.028,420.047,135.212Z" style="fill:none;stroke:#a6abb0;stroke-miterlimit:3;stroke-width:0.5px"/></g><path d="M419.8,135.212c0-30.789-5.017-49.436-5.917-52.428-.916-3.04-4.572-6.371-5.878-7.66-3.818-3.746-14.543-5.9-23.063-8.3s-19.083-4.564-26.16-4.564H332.643c-10.32,0-13.319.122-19.562,1.2A159.3,159.3,0,0,1,289.5,65.225c-85.55,0,6.437.049-92.732-.178,1.175-3.008,3.713-9.768,3.859-10.62.178-1.021-.4-1.556-3.056-1.645s-3.949,0-6.656,2.407c-2.092,1.865-5.4,6.7-7.6,9.874h-.008c-15.16-.081-29.3-2.2-37.194-2.2-3.664,0-29.994.738-38.9.86S89.054,68.841,86.37,70.065s-4.28,3.291-7.563,7.312-6.1,7.2-7.8,12.314c-2.683,8.415-5.975,27.1-5.975,45.521s3.292,37.106,5.975,45.521c1.7,5.115,4.516,8.285,7.8,12.314s4.88,6.1,7.563,7.312,11.949,6.218,20.851,6.34,35.231.859,38.9.859c7.9,0,22.034-2.116,37.194-2.2h.008c2.2,3.178,5.5,8.009,7.6,9.874,2.707,2.408,4,2.5,6.656,2.408s3.234-.625,3.056-1.646c-.146-.851-2.684-7.612-3.859-10.62,99.169-.227,7.182-.178,92.732-.178a159.3,159.3,0,0,1,23.582,1.767c6.243,1.078,9.242,1.2,19.562,1.2h26.136c7.077,0,17.64-2.165,26.16-4.564s19.245-4.556,23.063-8.3c1.306-1.289,4.962-4.621,5.878-7.661C414.78,184.648,419.8,166,419.8,135.212Z" style="fill:none;stroke:#a6abb0;stroke-miterlimit:3;stroke-width:0.5px"/><line x1="192.92" y1="76.878" x2="189.852" y2="72.119" style="fill:none;stroke:#a6abb0;stroke-linecap:round;stroke-linejoin:round;stroke-width:0.5px"/></g><g id="b05cac9b-82d3-41bf-9681-6d91559473be" data-name="above"><rect x="190.106" y="204.964" width="11.261" height="12.966" style="fill:none;stroke:#efefef;stroke-width:5px"/><rect x="190.106" y="204.964" width="11.261" height="12.966" style="fill:none;stroke:#efefef;stroke-width:5px"/><polygon points="191.471 222.708 191.471 221.512 193.518 217.93 197.954 217.93 200.002 221.512 200.002 222.708 191.471 222.708" style="fill:none;stroke:#efefef;stroke-width:5px"/><polygon points="191.471 222.708 191.471 221.512 193.518 217.93 197.954 217.93 200.002 221.512 200.002 222.708 191.471 222.708" style="fill:none;stroke:#efefef;stroke-width:5px"/><path d="M195.907,210.423a1.024,1.024,0,1,0,1.024,1.024A1.023,1.023,0,0,0,195.907,210.423Z" style="fill:none;stroke:#efefef;stroke-width:5px"/><rect x="190.106" y="204.964" width="11.261" height="12.966" style="fill:#f4ae3d"/><rect x="190.106" y="204.964" width="11.261" height="12.966" style="fill:none;stroke:#30373e;stroke-miterlimit:10;stroke-width:1.5px"/><polygon points="191.471 222.708 191.471 221.512 193.518 217.93 197.954 217.93 200.002 221.512 200.002 222.708 191.471 222.708" style="fill:#f4ae3d"/><polygon points="191.471 222.708 191.471 221.512 193.518 217.93 197.954 217.93 200.002 221.512 200.002 222.708 191.471 222.708" style="fill:none;stroke:#30373e;stroke-miterlimit:10;stroke-width:1.5px"/><path d="M195.907,210.423a1.024,1.024,0,1,0,1.024,1.024A1.023,1.023,0,0,0,195.907,210.423Z" style="fill:#30373e"/><rect x="190.106" y="52.495" width="11.261" height="12.966" style="fill:none;stroke:#efefef;stroke-width:5px"/><rect x="190.106" y="52.495" width="11.261" height="12.966" style="fill:none;stroke:#efefef;stroke-width:5px"/><polygon points="191.471 47.718 191.471 48.913 193.518 52.495 197.954 52.495 200.002 48.913 200.002 47.718 191.471 47.718" style="fill:none;stroke:#efefef;stroke-width:5px"/><polygon points="191.471 47.718 191.471 48.913 193.518 52.495 197.954 52.495 200.002 48.913 200.002 47.718 191.471 47.718" style="fill:none;stroke:#efefef;stroke-width:5px"/><path d="M195.907,60a1.024,1.024,0,1,1,1.024-1.024A1.023,1.023,0,0,1,195.907,60Z" style="fill:none;stroke:#efefef;stroke-width:5px"/><rect x="190.106" y="52.495" width="11.261" height="12.966" style="fill:#f4ae3d"/><rect x="190.106" y="52.495" width="11.261" height="12.966" style="fill:none;stroke:#30373e;stroke-miterlimit:10;stroke-width:1.5px"/><polygon points="191.471 47.718 191.471 48.913 193.518 52.495 197.954 52.495 200.002 48.913 200.002 47.718 191.471 47.718" style="fill:#f4ae3d"/><polygon points="191.471 47.718 191.471 48.913 193.518 52.495 197.954 52.495 200.002 48.913 200.002 47.718 191.471 47.718" style="fill:none;stroke:#30373e;stroke-miterlimit:10;stroke-width:1.5px"/><path d="M195.907,60a1.024,1.024,0,1,1,1.024-1.024A1.023,1.023,0,0,1,195.907,60Z" style="fill:#30373e"/><rect x="406.66" y="129.411" width="12.966" height="11.261" style="fill:none;stroke:#efefef;stroke-width:5px"/><rect x="406.66" y="129.411" width="12.966" height="11.261" style="fill:none;stroke:#efefef;stroke-width:5px"/><polygon points="424.404 139.307 423.208 139.307 419.626 137.259 419.626 132.823 423.208 130.776 424.404 130.776 424.404 139.307" style="fill:none;stroke:#efefef;stroke-width:5px"/><polygon points="424.404 139.307 423.208 139.307 419.626 137.259 419.626 132.823 423.208 130.776 424.404 130.776 424.404 139.307" style="fill:none;stroke:#efefef;stroke-width:5px"/><path d="M413.143,136.236a1.024,1.024,0,1,0-1.024-1.024A1.025,1.025,0,0,0,413.143,136.236Z" style="fill:none;stroke:#efefef;stroke-width:5px"/><rect x="406.66" y="129.411" width="12.966" height="11.261" style="fill:#f4ae3d"/><rect x="406.66" y="129.411" width="12.966" height="11.261" style="fill:none;stroke:#30373e;stroke-miterlimit:10;stroke-width:1.5px"/><polygon points="424.404 139.307 423.208 139.307 419.626 137.259 419.626 132.823 423.208 130.776 424.404 130.776 424.404 139.307" style="fill:#f4ae3d"/><polygon points="424.404 139.307 423.208 139.307 419.626 137.259 419.626 132.823 423.208 130.776 424.404 130.776 424.404 139.307" style="fill:none;stroke:#30373e;stroke-miterlimit:10;stroke-width:1.5px"/><path d="M413.143,136.236a1.024,1.024,0,1,0-1.024-1.024A1.025,1.025,0,0,0,413.143,136.236Z" style="fill:#30373e"/><rect x="69.573" y="129.411" width="12.966" height="11.261" style="fill:none;stroke:#efefef;stroke-width:5px"/><rect x="69.573" y="129.411" width="12.966" height="11.261" style="fill:none;stroke:#efefef;stroke-width:5px"/><polygon points="64.795 130.776 65.991 130.776 69.573 132.823 69.573 137.259 65.991 139.307 64.795 139.307 64.795 130.776" style="fill:none;stroke:#efefef;stroke-width:5px"/><polygon points="64.795 130.776 65.991 130.776 69.573 132.823 69.573 137.259 65.991 139.307 64.795 139.307 64.795 130.776" style="fill:none;stroke:#efefef;stroke-width:5px"/><path d="M77.08,135.212a1.024,1.024,0,1,0-1.024,1.024A1.024,1.024,0,0,0,77.08,135.212Z" style="fill:none;stroke:#efefef;stroke-width:5px"/><rect x="69.573" y="129.411" width="12.966" height="11.261" style="fill:#f4ae3d"/><rect x="69.573" y="129.411" width="12.966" height="11.261" style="fill:none;stroke:#30373e;stroke-miterlimit:10;stroke-width:1.5px"/><polygon points="64.795 130.776 65.991 130.776 69.573 132.823 69.573 137.259 65.991 139.307 64.795 139.307 64.795 130.776" style="fill:#f4ae3d"/><polygon points="64.795 130.776 65.991 130.776 69.573 132.823 69.573 137.259 65.991 139.307 64.795 139.307 64.795 130.776" style="fill:none;stroke:#30373e;stroke-miterlimit:10;stroke-width:1.5px"/><path d="M77.08,135.212a1.024,1.024,0,1,0-1.024,1.024A1.024,1.024,0,0,0,77.08,135.212Z" style="fill:#30373e"/></g></svg>
