<svg xmlns="http://www.w3.org/2000/svg" width="161.749" height="161.749" viewBox="0 0 161.749 161.749"><g id="below"><path d="M102.264,9.656V2.587" style="fill:none;stroke:#a6abb0;stroke-miterlimit:10;stroke-width:0.517410755157471px"/><path d="M99.411,9.313V1.249" style="fill:none;stroke:#a6abb0;stroke-miterlimit:10;stroke-width:0.517410755157471px"/><path d="M97.612,9.161v-6.4" style="fill:none;stroke:#a6abb0;stroke-miterlimit:10;stroke-width:0.517410755157471px"/><path d="M33.554,4.2c.691,5.982,1.526,12.054,2.387,18.32.957,6.968,1.928,14.035,2.729,21.225" style="fill:none;stroke:#a6abb0;stroke-miterlimit:10;stroke-width:0.517410755157471px"/><path d="M38.475,74.034c.036-25.391-4.738-49.174-7.237-72.045" style="fill:none;stroke:#a6abb0;stroke-miterlimit:10;stroke-width:0.517410755157471px"/><path d="M20.675,36.223S20.144,25.5,19.911,9.648" style="fill:none;stroke:#a6abb0;stroke-miterlimit:10;stroke-width:0.517410755157471px"/></g><g id="illustration"><path d="M2.4,25.413q1.034.271,2.027.572c9.426,2.856,12.832,6.03,18.535,12.934s9.743,13.014,9.743,25.235c0,17.09-1.135,38.455-2.2,54.8" style="fill:none;stroke:#a6abb0;stroke-miterlimit:10;stroke-width:1.03482151031494px"/><path d="M4.562,26.116c4.494,2.066,7.929,5.915,13.2,13.833,7.38,11.089,7.38,23,6.56,34.637-.538,7.632-2.251,29.789-3.367,44.137" style="fill:none;stroke:#a6abb0;stroke-miterlimit:10;stroke-width:0.517410755157471px"/><path d="M140.47,33.471s4.732-1.117,18.438-1.833" style="fill:none;stroke:#a6abb0;stroke-miterlimit:10;stroke-width:1.03482151031494px"/><path d="M19.817,141.889l-1.273-11.317a18.8,18.8,0,0,1-.083-2.443l.376-8.47a1.111,1.111,0,0,1,1.527-1.063,3.123,3.123,0,0,0,2.643-.343l.517-.373a2.32,2.32,0,0,1,1.364-.451c3.007.379,6.114.281,6.185,3.2.078,3.225.218,9.195.307,13.965a46.307,46.307,0,0,1-.882,10.6" style="fill:none;stroke:#a6abb0;stroke-linecap:round;stroke-linejoin:round;stroke-width:1.03482151031494px"/><polygon points="22.549 128.989 21.217 128.989 21.422 122.828 22.754 122.828 22.549 128.989" style="fill:none;stroke:#a6abb0;stroke-linecap:round;stroke-linejoin:round;stroke-width:0.517410755157471px"/><path d="M21.422,122.828c0-.875-.829-2.072-1.412-3.135" style="fill:none;stroke:#a6abb0;stroke-linecap:round;stroke-linejoin:round;stroke-width:0.517410755157471px"/><path d="M25.916,118.705c-.388-.041-.781-.083-1.172-.132a1.676,1.676,0,0,0-.548.243l-.517.373a4.288,4.288,0,0,1-3.669.5l-.022-.006,0,.023-.376,8.47c-.007.158-.009.344-.009.543a.528.528,0,0,0,.658.51l.958-.244" style="fill:none;stroke:#a6abb0;stroke-linecap:round;stroke-linejoin:round;stroke-width:0.517410755157471px"/><path d="M22.549,128.989l.841.236a5.333,5.333,0,0,0,1.481.2l3.872-.025A1.363,1.363,0,0,0,30.1,128c-.063-2.862-.127-5.553-.17-7.336-.032-1.334-.932-1.63-4.01-1.954a1.463,1.463,0,0,0-1.514.858l-1.319,2.606a3.334,3.334,0,0,0-.356,1.392Z" style="fill:none;stroke:#a6abb0;stroke-linecap:round;stroke-linejoin:round;stroke-width:0.517410755157471px"/><line x1="25.185" y1="119.66" x2="25.082" y2="129.424" style="fill:none;stroke:#a6abb0;stroke-linecap:round;stroke-linejoin:round;stroke-width:0.517410755157471px"/><path d="M5.17,152.028a74.4,74.4,0,0,1,6.577-5.7c5.467-4.039,6.765-5.271,11.206-3.9a55.9,55.9,0,0,1,7.926,2.943c1.982.89,5.466,2.807,5.466,14.033" style="fill:none;stroke:#a6abb0;stroke-linecap:round;stroke-linejoin:round;stroke-width:1.03482151031494px"/><path d="M152.111,32.066a12.5,12.5,0,0,0-9.617,4.884" style="fill:none;stroke:#a6abb0;stroke-miterlimit:10;stroke-width:0.517410755157471px"/><path d="M42.409,29.645c.712-9.845,2.559-13.852,6.384-16.056,5.249-3.024,15.156-3.171,32.215-3.171,14.566,0,24.189,0,29.989,3.848,7.213,4.785,8.914,16.548,10.716,29q.185,1.279.373,2.568" style="fill:none;stroke:#a6abb0;stroke-miterlimit:10;stroke-width:0.517410755157471px"/><path d="M120.625,49.984s-.786-5.313-.946-6.421c-1.733-11.985-3.371-23.305-9.816-27.581-5.285-3.506-14.661-3.506-28.855-3.506-16.708,0-26.292.135-31.088,2.9C47.579,16.722,45.905,18.982,45,25.565" style="fill:none;stroke:#a6abb0;stroke-miterlimit:10;stroke-width:0.517410755157471px"/><path d="M123.46,42.067C119.047,9.67,113.28,8.783,80.7,8.783c-36.134,0-39.553,1.236-40.594,26.179" style="fill:none;stroke:#a6abb0;stroke-miterlimit:10;stroke-width:1.03482151031494px"/><path d="M51.316,27.862c1.555-8.893,9.659-8.647,30.518-8.647,24.684,0,29.445,2.226,31.18,14.3L117.3,63.343" style="fill:none;stroke:#a6abb0;stroke-miterlimit:10;stroke-width:0.517410755157471px"/><path d="M53.831,26.467c2.034-5.086,9.2-5.524,28.149-5.524,20.241,0,23.386,1.541,26.244,5.4.416.563.318.8-.779.8H54.9C53.73,27.151,53.608,27.026,53.831,26.467Z" style="fill:none;stroke:#a6abb0;stroke-miterlimit:10;stroke-width:0.517410755157471px"/><path d="M115.558,85.092l-6.789,15.163a5.376,5.376,0,0,0-.384,1.579l-.527,9.422a4.68,4.68,0,0,1-.42,1.561l-9.754,19.169" style="fill:none;stroke:#a6abb0;stroke-miterlimit:10;stroke-width:0.517410755157471px"/><path d="M61.58,110.866h43.275c2.506,0,3.293.554,2.275,2.554" style="fill:none;stroke:#a6abb0;stroke-miterlimit:10;stroke-width:0.517410755157471px"/><path d="M61,100.005h44.216c2.3,0,3.269.518,3.169,1.829" style="fill:none;stroke:#a6abb0;stroke-miterlimit:10;stroke-width:0.517410755157471px"/><path d="M100.9,159.4l-2.627-25.814a2.493,2.493,0,0,0-2.84-2.454H62.663" style="fill:none;stroke:#a6abb0;stroke-miterlimit:10;stroke-width:0.517410755157471px"/><path d="M99.154,159.4,96.64,134.7a1.459,1.459,0,0,0-1.662-1.436h-32.2" style="fill:none;stroke:#a6abb0;stroke-miterlimit:10;stroke-width:0.517410755157471px"/><path d="M60.2,85.092h55.942a.573.573,0,0,0,.521-.336l2.426-6.624" style="fill:none;stroke:#a6abb0;stroke-miterlimit:10;stroke-width:0.517410755157471px"/><line x1="118.408" y1="72.947" x2="129.217" y2="154.717" style="fill:none;stroke:#a6abb0;stroke-miterlimit:10;stroke-width:0.517410755157471px"/><path d="M120.632,72.19c-1.681,0-2.176.1-2.659,1.942-.488,1.858-.01,2.065.864,2.065" style="fill:none;stroke:#a6abb0;stroke-miterlimit:10;stroke-width:0.517410755157471px"/><path d="M119.688,74.247l4.372-9.518a6.313,6.313,0,0,0,.646-4.2c-.223-1.486-.544-3.888-.767-4.977s-.543-.322-1.236,1.015-1.8,4.234-2.546,6.042c-.094.23-.182.467-.264.705" style="fill:none;stroke:#a6abb0;stroke-miterlimit:10;stroke-width:0.517410755157471px"/><path d="M121.952,69.317h-5.073a6.565,6.565,0,0,0-2.979.865L105.511,75.5a3.648,3.648,0,0,0-1.359,1.856l-1.306,4.93a.827.827,0,0,1-.756.583h-1.119a.515.515,0,0,1-.523-.6l.806-6.051a1.348,1.348,0,0,0-1.368-1.565H74.151a2.071,2.071,0,0,0-1.986,1.732l-.81,5.831a.779.779,0,0,1-.747.651H69.389a.659.659,0,0,1-.656-.657V77.4a2.4,2.4,0,0,0-.1-.636,3.092,3.092,0,0,0-.835-1.41L60.251,68.8a4.051,4.051,0,0,0-.949-.587" style="fill:none;stroke:#a6abb0;stroke-miterlimit:10;stroke-width:0.517410755157471px"/><path d="M101.254,76.22c.2-1.527-1.136-2.362-2.084-3.946" style="fill:none;stroke:#a6abb0;stroke-miterlimit:10;stroke-width:0.517410755157471px"/><path d="M72.165,76.387c.3-2.348,2.348-3.6,2.239-5.2-.01-.15-.035-.8-.114-1.839-.022-.3-.167-.246-.351.019" style="fill:none;stroke:#a6abb0;stroke-miterlimit:10;stroke-width:0.517410755157471px"/><line x1="68.635" y1="76.761" x2="67.335" y2="72.198" style="fill:none;stroke:#a6abb0;stroke-miterlimit:10;stroke-width:0.517410755157471px"/><g id="Offset_Group" data-name="Offset Group"><path d="M124.58,62.9h-8.872a6.827,6.827,0,0,0-3.132.909l-5.306,3.364a4.436,4.436,0,0,0-1.567,1.615l-1.193,2.156a1.849,1.849,0,0,1-1.425.842H99.366a5.6,5.6,0,0,1-.538-1.467c0-.009,0-.031-.005-.084a2.512,2.512,0,0,0-.615-1.691,1.623,1.623,0,0,0-1.158-.427H75.525a2.32,2.32,0,0,0-1.258.383,2.469,2.469,0,0,0-.907,1.041l-.711,1.4a1.754,1.754,0,0,1-1.383.849H67.645l-.924-3.246a3.424,3.424,0,0,0-.942-1.576L60.63,62.5a4.9,4.9,0,0,0-1.519-.837" style="fill:none;stroke:#a6abb0;stroke-linecap:round;stroke-linejoin:round;stroke-width:0.517410755157471px"/><path d="M124.58,63.107h-8.872a6.617,6.617,0,0,0-3.022.877l-5.305,3.363a4.227,4.227,0,0,0-1.5,1.542l-1.193,2.156a2.051,2.051,0,0,1-1.605.947H99.244a5.8,5.8,0,0,1-.62-1.645c0-.01,0-.038-.007-.1a2.309,2.309,0,0,0-.55-1.553,1.419,1.419,0,0,0-1.017-.37H75.525a2.119,2.119,0,0,0-1.146.349,2.273,2.273,0,0,0-.835.963l-.712,1.4a1.958,1.958,0,0,1-1.566.96H67.49l-.967-3.4a3.215,3.215,0,0,0-.879-1.477L60.5,62.652a4.7,4.7,0,0,0-1.453-.8" style="fill:none;stroke:#a6abb0;stroke-linecap:round;stroke-linejoin:round;stroke-width:0.517410755157471px"/></g><path d="M124.58,63.313h-8.872a6.424,6.424,0,0,0-2.912.845l-5.305,3.363a4.024,4.024,0,0,0-1.428,1.467l-1.193,2.156a2.254,2.254,0,0,1-1.785,1.054h-3.96a6.009,6.009,0,0,1-.7-1.811c-.039-.181.075-1.858-1.373-1.858H75.525a2.036,2.036,0,0,0-1.8,1.2l-.712,1.4A2.16,2.16,0,0,1,71.266,72.2H67.335l-1.01-3.544a3.025,3.025,0,0,0-.815-1.379l-5.15-4.468a4.5,4.5,0,0,0-1.387-.761" style="fill:none;stroke:#a6abb0;stroke-linecap:round;stroke-linejoin:round;stroke-width:0.517410755157471px"/><path d="M104.152,77.356c.788-3.088,3.257-4.485,3.038-6.13l-.33-2.475c-.073-.549-.376-.524-1.108.8" style="fill:none;stroke:#a6abb0;stroke-miterlimit:10;stroke-width:0.517410755157471px"/><line x1="119.419" y1="72.261" x2="131.417" y2="159.399" style="fill:none;stroke:#a6abb0;stroke-miterlimit:10;stroke-width:0.517410755157471px"/><path d="M118.138,63.313c-.253-3.833.189-6.615,2.461-13.254,1.932-5.644,5.048-13.868,5.94-16.208a1.348,1.348,0,0,1,.907-.821l6.723-1.814.149-.33a1.391,1.391,0,0,1,1-.729l1.74-.193a1.344,1.344,0,0,1,1.165.457c1.773,2.049,7.937,10.2,11.146,27.6a3.79,3.79,0,0,1-.212,2.106l-.45,1.115a3.342,3.342,0,0,0-.164,1.549l10.5,60.067" style="fill:none;stroke:#a6abb0;stroke-miterlimit:10;stroke-width:1.03482151031494px"/><path d="M156.179,159.4l-21.4-127.79c-.079-.47-.318-.47-.606-.393" style="fill:none;stroke:#a6abb0;stroke-miterlimit:10;stroke-width:0.517410755157471px"/><path d="M145.977,159.4,126.947,34.535c-.212-1.031-.487-.478-.741.191" style="fill:none;stroke:#a6abb0;stroke-miterlimit:10;stroke-width:0.517410755157471px"/><path d="M54.323,29.1a1.673,1.673,0,0,1,.744-.174h53.139a1.676,1.676,0,0,1,1.649,1.38c.991,5.532,3.982,25.632,4.874,31.653l.212,1.426" style="fill:none;stroke:#a6abb0;stroke-miterlimit:10;stroke-width:0.517410755157471px"/><g id="Offset_Group-2" data-name="Offset Group"><path d="M64.689,159.372,57.835,31.054a2.055,2.055,0,0,0-1.3-1.729l-7.416-2.581a1.474,1.474,0,0,0-.974-1.293l-1.475-.527a2.273,2.273,0,0,0-2.644.863c-4.962,7.286-6.676,17.786-6.409,31.207L39.654,159.41" style="fill:none;stroke:#a6abb0;stroke-linecap:round;stroke-linejoin:round;stroke-width:0.517410755157471px"/><path d="M64.431,159.386,57.577,31.068a1.8,1.8,0,0,0-1.125-1.5L48.868,26.93l0-.117a1.216,1.216,0,0,0-.8-1.119l-1.475-.526a2.012,2.012,0,0,0-2.343.765c-4.915,7.216-6.631,17.648-6.365,31.055L39.913,159.4" style="fill:none;stroke:#a6abb0;stroke-linecap:round;stroke-linejoin:round;stroke-width:0.517410755157471px"/></g><path d="M64.173,159.4,57.319,31.082a1.544,1.544,0,0,0-.952-1.269l-7.754-2.7-.006-.3a.957.957,0,0,0-.634-.88L46.5,25.411a1.754,1.754,0,0,0-2.042.668c-4.868,7.147-6.586,17.511-6.32,30.9L40.172,159.4" style="fill:none;stroke:#a6abb0;stroke-linecap:round;stroke-linejoin:round;stroke-width:0.517410755157471px"/><line x1="48.613" y1="27.115" x2="54.217" y2="159.399" style="fill:none;stroke:#a6abb0;stroke-linecap:round;stroke-linejoin:round;stroke-width:0.517410755157471px"/><path d="M38.108,54.707c.028,3.191,1.954,2.346,2.01,5.031.544,26.006,1.776,84.121,2.049,97.023" style="fill:none;stroke:#a6abb0;stroke-linecap:round;stroke-linejoin:round;stroke-width:0.517410755157471px"/></g><g id="above"><path d="M76,105.764a.9.9,0,0,1,0-1.8h2.767a.9.9,0,0,1,0,1.8Z" style="fill:#f4ae3d;stroke:#30373e;stroke-miterlimit:10"/><path d="M86.068,105.764a.9.9,0,0,1,0-1.8h2.767a.9.9,0,0,1,0,1.8Z" style="fill:#f4ae3d;stroke:#30373e;stroke-miterlimit:10"/><path d="M83.124,82.606l-.405,3c-.036.268-.4.351-.665.351H78.108c-.668,0-.666-.337-.66-.381l.405-3.016c.025-.186.315-.331.665-.331h3.946C82.964,82.225,83.146,82.445,83.124,82.606Z" style="fill:none;stroke:#efefef;stroke-width:3px"/><path d="M76.478,81.766a2.417,2.417,0,0,1-.078-1.011l1.829-13.524a2.723,2.723,0,0,1,2.711-2.164h3.3A2.023,2.023,0,0,1,86.321,66.5l.105.357a4.482,4.482,0,0,1,.193,2.078L84.83,82.15a1.248,1.248,0,0,1-1.236,1.082H77.846a1.248,1.248,0,0,1-1.2-.893Z" style="fill:none;stroke:#efefef;stroke-width:3px"/><path d="M85.445,69.562l.175-1.3a.835.835,0,0,0-.892-.91H80.9a1.159,1.159,0,0,0-1.139.91l-.176,1.3" style="fill:none;stroke:#efefef;stroke-width:3px"/><path d="M83.124,82.606l-.405,3c-.036.268-.4.351-.665.351H78.108c-.668,0-.666-.337-.66-.381l.405-3.016c.025-.186.315-.331.665-.331h3.946C82.964,82.225,83.146,82.445,83.124,82.606Z" style="fill:none;stroke:#30373e;stroke-linecap:round;stroke-linejoin:round"/><path d="M76.478,81.766a2.417,2.417,0,0,1-.078-1.011l1.829-13.524a2.723,2.723,0,0,1,2.711-2.164h3.3A2.023,2.023,0,0,1,86.321,66.5l.105.357a4.482,4.482,0,0,1,.193,2.078L84.83,82.15a1.248,1.248,0,0,1-1.236,1.082H77.846a1.248,1.248,0,0,1-1.2-.893Z" style="fill:none;stroke:#30373e;stroke-linecap:round;stroke-linejoin:round"/><path d="M85.445,69.562l.175-1.3a.835.835,0,0,0-.892-.91H80.9a1.159,1.159,0,0,0-1.139.91l-.176,1.3" style="fill:none;stroke:#30373e;stroke-linecap:round;stroke-linejoin:round"/><path d="M83.124,82.606l-.405,3c-.036.268-.4.351-.665.351H78.108c-.668,0-.666-.337-.66-.381l.405-3.016c.025-.186.315-.331.665-.331h3.946C82.964,82.225,83.146,82.445,83.124,82.606Z" style="fill:#e8e8e9;stroke:#30373e;stroke-linecap:round;stroke-linejoin:round;stroke-width:0.541926479409606px"/><path d="M76.478,81.766a2.417,2.417,0,0,1-.078-1.011l1.829-13.524a2.723,2.723,0,0,1,2.711-2.164h3.3A2.023,2.023,0,0,1,86.321,66.5l.105.357a4.482,4.482,0,0,1,.193,2.078L84.83,82.15a1.248,1.248,0,0,1-1.236,1.082H77.846a1.248,1.248,0,0,1-1.2-.893Z" style="fill:#f4ae3d;stroke:#30373e;stroke-linecap:round;stroke-linejoin:round;stroke-width:0.541926479409606px"/><path d="M85.445,69.562l.175-1.3a.835.835,0,0,0-.892-.91H80.9a1.159,1.159,0,0,0-1.139.91l-.176,1.3" style="fill:none;stroke:#30373e;stroke-linecap:round;stroke-linejoin:round;stroke-width:0.541926479409606px"/><polygon points="75.333 95.407 72.628 95.407 77.77 101.854 84.804 95.407 82.092 95.407 83.113 87.866 76.354 87.866 75.333 95.407" style="fill:#f4ae3d;stroke:#efefef;stroke-miterlimit:10"/></g></svg>
