<svg xmlns="http://www.w3.org/2000/svg" width="218" height="218" viewBox="0 0 218 218"><g id="b0c7c543-3d34-4dea-8f28-2ad16ed39820" data-name="below"><path d="M155.8,133.034a90.122,90.122,0,0,0,9.539,2.673,4.939,4.939,0,0,0,3.375-.433" style="fill:none;stroke:#a6abb0;stroke-linecap:round;stroke-linejoin:round;stroke-width:0.75px"/><path d="M-3.187,86.662s57.114,15.3,60.688,16.294,5.238.5,5.238.5" style="fill:none;stroke:#a6abb0;stroke-linecap:round;stroke-linejoin:round;stroke-width:0.75px"/><path d="M67.882,106.7c-2.725-1.022-6.554-2.256-6.844-10.128-.488-13.292,8.677-71.238,9.377-76.7,1.109-8.646.111-13.3-3.1-20.729" style="fill:none;stroke:#a6abb0;stroke-linecap:round;stroke-linejoin:round;stroke-width:0.75px"/><path d="M-6.928,155.165s40.653-26.52,42.482-27.85,2.785-2.389,2-4.6a31.293,31.293,0,0,0-2.942-6.046c-.774-1.337-2.465-3.972-10.668-6.571-6.439-2.04-21.215-6.087-26.668-7.494" style="fill:none;stroke:#a6abb0;stroke-linecap:round;stroke-linejoin:round;stroke-width:0.5px"/><path d="M225.49,169.963a145.9,145.9,0,0,0-18.844,2.883c-3.1.775-4.766,1.33-6.983,4.323s-19.177,28.931-27.379,43.562" style="fill:none;stroke:#a6abb0;stroke-linecap:round;stroke-linejoin:round;stroke-width:0.5px"/><path d="M194.248,142.613c-2.234,2.188-7.111,10.225-7.887,11.5s-2.328,1.718-4.434.776a50.85,50.85,0,0,0-11.417-4.434c-5.709-1.33-9.644-2.106-10.918-2.327s-2.273,0-3.714,1.662-8.923,9.478-17.68,19.731-26.659,30.1-32.035,50.325" style="fill:none;stroke:#a6abb0;stroke-linecap:round;stroke-linejoin:round;stroke-width:0.75px"/><path d="M156.551,149.087c5.119-5.27,14.261-12.123,14.261-12.123" style="fill:none;stroke:#a6abb0;stroke-linecap:round;stroke-linejoin:round;stroke-width:0.75px"/><path d="M170.852,137.018s-6.945,5.377-8.33,6.585c-1.953,1.7-1.515,1.967-1.776,4.517" style="fill:none;stroke:#a6abb0;stroke-linecap:round;stroke-linejoin:round;stroke-width:0.75px"/><path d="M175.607,138.6c1.06,1.613,1.547,2.213,1.547,4.13v5.644" style="fill:none;stroke:#a6abb0;stroke-linecap:round;stroke-linejoin:round;stroke-width:0.75px"/><path d="M187.031,141.136a17.868,17.868,0,0,0-4.577,1.975c-1.039.665-1,.374-2.868,2.535s-2.479,2.725-3.019,3.514a4.759,4.759,0,0,0-1.059,2.814" style="fill:none;stroke:#a6abb0;stroke-linecap:round;stroke-linejoin:round;stroke-width:0.75px"/><path d="M189.794,141.74c1.486.3,2.162,1.306,2.162,3.728" style="fill:none;stroke:#a6abb0;stroke-linecap:round;stroke-linejoin:round;stroke-width:0.75px"/><path d="M170.184,150.2c0-1.466-.253-2.307-1.884-2.773-1.164-.332-1.718-.437-2.369-.623-1.455-.416-.54-.915-2.536-1.621-1.153-.409-2.522-.047-2.522,1.2" style="fill:none;stroke:#a6abb0;stroke-linecap:round;stroke-linejoin:round;stroke-width:0.5px"/><line x1="164.857" y1="146.092" x2="164.857" y2="148.989" style="fill:none;stroke:#a6abb0;stroke-linecap:round;stroke-linejoin:round;stroke-width:0.5px"/><path d="M176.464,152.349c0-1.507.711-2.463,2.54-1.756a4.507,4.507,0,0,0,3.117.416c1.58-.083,1.123-.25,2.286.083s1.414.79,1.414,1.662v2.073" style="fill:none;stroke:#a6abb0;stroke-linecap:round;stroke-linejoin:round;stroke-width:0.5px"/><line x1="182.121" y1="151.009" x2="182.121" y2="154.888" style="fill:none;stroke:#a6abb0;stroke-linecap:round;stroke-linejoin:round;stroke-width:0.5px"/><path d="M36.607,162.2c-5.21,4.1-19.056,22.27-22.27,27.7-1.729,2.92-3.487,6.641-5.261,13.513S7.011,214.746,7.9,220.842" style="fill:none;stroke:#a6abb0;stroke-linecap:round;stroke-linejoin:round;stroke-width:0.75px"/><path d="M86.342,64.43c-.45,8.964-.427,16.825-.605,26.839" style="fill:none;stroke:#a6abb0;stroke-linecap:round;stroke-linejoin:round;stroke-width:0.75px"/><path d="M88.449,36.392c-.51,6.438-1.419,15.431-1.837,22.931" style="fill:none;stroke:#a6abb0;stroke-linecap:round;stroke-linejoin:round;stroke-width:0.75px"/><path d="M92.585-3.623s-1.3,9.224-2.786,24.6" style="fill:none;stroke:#a6abb0;stroke-linecap:round;stroke-linejoin:round;stroke-width:0.75px"/><path d="M72.017,61.532c-.952,17.816-1.271,33.721-.65,42.429" style="fill:none;stroke:#a6abb0;stroke-linecap:round;stroke-linejoin:round;stroke-width:0.75px"/><path d="M77.934-4.52C75.8,10.488,73.6,34.389,72.327,56.006" style="fill:none;stroke:#a6abb0;stroke-linecap:round;stroke-linejoin:round;stroke-width:0.75px"/><path d="M72.524,50.24l-1.344.14c-1.051.127-1.365.371-1.836,1.962s-.785,2.791-1.217,4.14-.417,2.4.754,3.129l4.6,2.817,9.694,2.341,5.014-.536c1.466-.088,1.836-.993,2.15-1.86s.55-1.788,1.06-3.664.078-2.94-1.6-3.686l-2.859-1.26" style="fill:none;stroke:#a6abb0;stroke-linecap:round;stroke-linejoin:round;stroke-width:0.75px"/><path d="M72.445,54.036c-1.083-.224-1.723,1.489-.118,1.97l14.285,3.317c1.617.276,1.633-1.612.108-1.9" style="fill:none;stroke:#a6abb0;stroke-linecap:round;stroke-linejoin:round;stroke-width:0.75px"/><path d="M73.5,62.411l.981,1.978s-.979,7.765-1.208,8.917a1.874,1.874,0,0,0,1.122,2.4c.98.309,3.052.935,3.8,1.109A1.454,1.454,0,0,0,80,75.634c.154-.954,1.489-9.452,1.489-9.452l1.792-1.424" style="fill:none;stroke:#a6abb0;stroke-linecap:round;stroke-linejoin:round;stroke-width:0.75px"/><path d="M75.974,65.91c-.088.7-.779,6.294-.982,7.316a1.347,1.347,0,0,0-.029.339c1,.315,2.624.8,3.173.927l.01,0c.04,0,.129-.015.136-.059.133-.828,1.21-7.679,1.21-7.679Z" style="fill:none;stroke:#a6abb0;stroke-linecap:round;stroke-linejoin:round;stroke-width:0.75px"/></g><g id="acb80810-6fb8-481a-8f9f-de6870190500" data-name="illustration"><path d="M80.563,106.814s23.061-24.739,24.668-26.457,4.285-2.142,6.918-1.454c3.4.886,44.173,10.142,47,10.752s3.436,1.884,2,3.935-20.575,29.423-20.575,29.423" style="fill:#cfd2d4;stroke:#30373e;stroke-linecap:round;stroke-linejoin:round;stroke-width:0.5px"/><path d="M159.148,89.655a4.211,4.211,0,0,1,2.514.872,1.746,1.746,0,0,1,.553,1.388,3.151,3.151,0,0,1-.443,1.36c-.958,1.517-1.955,2.866-2.93,4.307L152.96,106.1q-5.921,8.489-11.933,16.913a.375.375,0,0,1-.615-.43q5.835-8.55,11.792-17.013l5.98-8.448c.981-1.4,2.029-2.834,2.955-4.2a1.675,1.675,0,0,0,.143-2.031A5.256,5.256,0,0,0,159.148,89.655Z" style="fill:#30373e"/><g id="e79e715d-8964-4deb-a571-cc4bb7905204" data-name="Offset Group"><path d="M176.881,74.006c-1.107-5.86-6.108-32.319-6.6-34.881a6.19,6.19,0,0,0-1.361-3.25,5.687,5.687,0,0,0-2.948-1.409l-2.54-.611c-7.845-1.89-20.682-4.982-35.784-7.764-16.82-3.1-30.071-5.439-35.955-5.46-2.166-.008-3.588.3-4.489,1a3.114,3.114,0,0,0-1.115,1.759c-.052.2-.1.384-.146.557a20.94,20.94,0,0,0-.6,2.71,9.742,9.742,0,0,0,.781,5.1c.262.585,2.286,5.214,4.834,11.042C95.64,53.5,102.094,68.261,102.6,69.324a4.5,4.5,0,0,0,1.166,1.523,4.379,4.379,0,0,0,.666.465L73.105,104.273a4.383,4.383,0,0,0-2.393-.129,3.074,3.074,0,0,0-1.533.987c-.341.392-3.741,4.015-7.705,8.239-5.123,5.457-11.168,11.9-12.654,13.545a7.552,7.552,0,0,0-2.316,5.816l-.544.506c-1.161-.346-1.892-.563-2.1-.622a6.85,6.85,0,0,0-3.96-.2,6.709,6.709,0,0,0-3.127,2.266c-2.357,2.793-2.528,5.014-2.612,8.04-.095,3.43.22,12.507.386,15.338a5.58,5.58,0,0,0,1.089,3.112,6.259,6.259,0,0,0,3,2.061c.5.173,1.769.632,3.582,1.288,7.409,2.678,23.8,8.6,32.707,11.283,4.911,1.477,11.5,3.645,18.133,5.827,8.265,2.719,16.6,5.461,21.782,6.9a7.483,7.483,0,0,0,4.794.107,6.468,6.468,0,0,0,3-2.989c1.359-2.239,44.478-69.825,47.542-74.628" style="fill:none;stroke:#30373e;stroke-linecap:round;stroke-linejoin:round;stroke-width:0.5px"/><path d="M176.636,74.053c-1.108-5.861-6.108-32.319-6.6-34.881a5.96,5.96,0,0,0-1.3-3.124,5.455,5.455,0,0,0-2.826-1.339l-2.54-.611c-7.845-1.889-20.677-4.981-35.771-7.761-16.835-3.1-30.055-5.436-35.911-5.456-2.154-.008-3.5.307-4.336.947a2.862,2.862,0,0,0-1.025,1.625c-.053.2-.1.384-.147.557a21.12,21.12,0,0,0-.592,2.681,9.5,9.5,0,0,0,.762,4.96c.263.586,2.287,5.217,4.835,11.044,4.683,10.709,11.135,25.463,11.636,26.522a4.256,4.256,0,0,0,1.1,1.439,4.115,4.115,0,0,0,.914.588L73.18,104.557a4.259,4.259,0,0,0-2.4-.172,2.815,2.815,0,0,0-1.41.91c-.345.4-3.751,4.026-7.712,8.246-5.124,5.458-11.166,11.9-12.65,13.541-1.9,2.1-2.14,3.226-2.257,5.762l-.724.673c-1.241-.37-2.019-.6-2.232-.661a6.588,6.588,0,0,0-3.818-.2,6.451,6.451,0,0,0-3.009,2.187c-2.3,2.727-2.47,4.876-2.553,7.886-.095,3.419.219,12.487.386,15.316a5.328,5.328,0,0,0,1.038,2.976A6.017,6.017,0,0,0,38.716,163c.5.173,1.773.633,3.585,1.288,7.412,2.68,23.8,8.6,32.694,11.279,4.915,1.479,11.509,3.648,18.139,5.829,8.268,2.72,16.6,5.46,21.771,6.892a7.248,7.248,0,0,0,4.635.116,6.232,6.232,0,0,0,2.878-2.887c1.361-2.242,44.483-69.832,47.546-74.632" style="fill:none;stroke:#30373e;stroke-linecap:round;stroke-linejoin:round;stroke-width:0.5px"/></g><path d="M176.39,74.1c-1.108-5.861-6.108-32.318-6.6-34.88-.554-2.882-1.385-3.658-3.935-4.267-7.419-1.774-21.449-5.265-38.3-8.369s-30.04-5.432-35.867-5.452c-3.546-.013-4.721.861-5.119,2.385a25.924,25.924,0,0,0-.732,3.209,9.247,9.247,0,0,0,.742,4.824c.748,1.669,15.7,35.934,16.469,37.561a3.885,3.885,0,0,0,2.225,2.04L73.252,104.844c-1.769-.6-2.894-.306-3.695.615s-17.74,18.879-20.366,21.79c-1.87,2.074-2.083,3.14-2.2,5.709l-.9.839c-1.322-.393-2.148-.639-2.366-.7-2.328-.665-4.323-.748-6.568,1.912s-2.411,4.739-2.494,7.732c-.095,3.408.219,12.468.385,15.294a5.121,5.121,0,0,0,3.749,4.731c2.56.885,25.213,9.238,36.27,12.564s30.593,10.142,39.9,12.719c4.436,1.228,5.82-.332,7.233-2.66,1.363-2.245,44.488-69.839,47.549-74.637" style="fill:none;stroke:#30373e;stroke-linecap:round;stroke-linejoin:round;stroke-width:0.5px"/><path d="M174.39,86.884c-.665,0-1.275.055-1.663-1.829s-7.593-36.026-8.037-38.52a19.428,19.428,0,0,1-.387-5.32c.11-1.5-.222-2.882-2.162-3.492s-21.556-5.051-34.363-7.648c-15.574-3.16-33.143-5.155-34.972-5.321s-2.328.554-2.882,2.217-.609,2.549.333,4.711S105.781,68.6,105.781,68.6c.208.556.648.857,1.713,1.065s65.048,14.506,65.048,14.506" style="fill:none;stroke:#30373e;stroke-linecap:round;stroke-linejoin:round;stroke-width:0.5px"/><path d="M105.275,71.15a1.916,1.916,0,0,0,2.219-1.485" style="fill:none;stroke:#30373e;stroke-linecap:round;stroke-linejoin:round;stroke-width:0.5px"/><path d="M73.252,104.844s67.662,18.231,69.158,18.675,2.273.776,4.157,2.937" style="fill:none;stroke:#30373e;stroke-linecap:round;stroke-linejoin:round;stroke-width:0.75px"/><line x1="172.815" y1="85.434" x2="145.187" y2="125.014" style="fill:none;stroke:#30373e;stroke-linecap:round;stroke-linejoin:round;stroke-width:0.5px"/><path d="M142.648,123.59c-.374-.11-.59-.188-1.434.907s-14.283,19.8-15.675,21.881-4.632,3.948-9.857,2.533S59.075,132.346,55.63,131.274s-4.86-3.035-2.373-5.75,17.87-18.943,18.732-19.873,1.337-.787,1.829-.654" style="fill:none;stroke:#30373e;stroke-linecap:round;stroke-linejoin:round;stroke-width:0.5px"/><path d="M96.621,113.107a.907.907,0,0,1,.869-.225l15.605,4.209c.448.121.568.282.332.575s-.5.621-.714.87c-.36.415-1.081.8-3.99,1.275s-3.409.443-4.822.138-3.88-.831-5.072-1.247a4.427,4.427,0,0,1-2.549-2.078c-.914-1.275-1.173-1.967-.527-2.661C96.2,113.487,96.384,113.338,96.621,113.107Z" style="fill:#f4ae3d;stroke:#1f262d;stroke-linecap:round;stroke-linejoin:round;stroke-width:0.75px"/><path d="M94.607,118.281a7.527,7.527,0,0,0,3.381,2.189c1.774.5,4.212,1.081,5.4,1.386a8.916,8.916,0,0,0,3.464.194c1.774-.111,3.713-.222,5.071-.333a12.656,12.656,0,0,1,4.6.721c2.134.582,12.027,3.547,14.494,4.406s3.935,2.355,2.078,5.016-9.172,12.858-10.142,14.1-3.155,2.639-7.233,1.524c-4.309-1.177-14.286-4.129-16.239-4.669a14.154,14.154,0,0,1-4.988-2.827c-1.912-1.413-2.494-2.161-4.282-2.66s-4.614-1.289-6.152-1.663a20.79,20.79,0,0,0-5.071-.291,24.492,24.492,0,0,1-6.36-.582c-2.452-.582-12.387-3.491-14.881-4.323s-3.533-1.912-1.7-3.824,9.477-10.35,11.6-12.47a7.968,7.968,0,0,1,8.064-2.37c3.658.749,10.932,2.661,13.676,3.326A10.652,10.652,0,0,1,94.607,118.281Z" style="fill:none;stroke:#30373e;stroke-linecap:round;stroke-linejoin:round;stroke-width:0.5px"/><path d="M59.658,131.06c-2.338-.779-3.312-1.793-1.6-3.585s8.764-8.788,10.751-10.775a7.471,7.471,0,0,1,7.561-2.222c3.429.7,10.249,2.5,12.821,3.118a9.993,9.993,0,0,1,4.9,2.949,7.048,7.048,0,0,0,3.17,2.053c1.662.467,3.949,1.013,5.066,1.3a8.381,8.381,0,0,0,3.248.181c1.662-.1,3.481-.207,4.754-.311a11.882,11.882,0,0,1,4.313.675c2,.546,11.276,3.326,13.588,4.131s3.689,2.209,1.949,4.7-8.478,11.138-9.387,12.308-2.958,2.474-6.781,1.429" style="fill:none;stroke:#30373e;stroke-linecap:round;stroke-linejoin:round;stroke-width:0.5px"/><path d="M58.241,127.369a3.926,3.926,0,0,0-.471.958,1.668,1.668,0,0,0-.083.938c.214.513.926.853,1.556,1.11,1.327.5,2.75.861,4.132,1.289,2.783.815,5.572,1.624,8.369,2.373a21.24,21.24,0,0,0,4.229.749c1.428.1,2.881.063,4.331.059a14.248,14.248,0,0,1,4.381.441l4.211,1.132c.7.2,1.4.347,2.117.608a7.5,7.5,0,0,1,1.96,1.107c1.156.894,2.292,1.776,3.476,2.6a10.749,10.749,0,0,0,3.846,1.751l4.183,1.217,8.357,2.43a11.739,11.739,0,0,0,4.176.73,4.517,4.517,0,0,0,3.557-1.81l-.051.122.341-2.493.17-1.246a2.231,2.231,0,0,1,.514-1.269l.812-.965a2.279,2.279,0,0,1,1.152-.746c.9-.167,1.682-.217,2.529-.331l-.158.09,3.762-5a2.737,2.737,0,0,0,.717-2.678,4.456,4.456,0,0,0-2.208-2,3.822,3.822,0,0,1,2.553,1.838,2.146,2.146,0,0,1,.088,1.675,5.077,5.077,0,0,1-.787,1.42l-3.753,5.035a.23.23,0,0,1-.151.089h-.007c-.813.11-1.706.185-2.453.325a1.8,1.8,0,0,0-.92.6l-.8.962a1.747,1.747,0,0,0-.4,1.028l-.165,1.244-.331,2.49a.244.244,0,0,1-.04.106l-.011.016a5.043,5.043,0,0,1-3.924,2.021,12.207,12.207,0,0,1-4.354-.732l-8.373-2.4-4.181-1.2a14.224,14.224,0,0,1-2.1-.706,11.843,11.843,0,0,1-1.923-1.124c-1.2-.837-2.35-1.739-3.487-2.623a6.884,6.884,0,0,0-1.812-1.032c-.647-.239-1.372-.4-2.064-.6l-4.2-1.139a13.66,13.66,0,0,0-4.243-.435c-1.452,0-2.9.031-4.373-.071a21.778,21.778,0,0,1-4.327-.777c-2.808-.758-5.592-1.574-8.377-2.4-1.388-.433-2.787-.784-4.173-1.314a5.845,5.845,0,0,1-1.017-.507,1.7,1.7,0,0,1-.777-.951A2.233,2.233,0,0,1,58.241,127.369Z" style="fill:#30373e"/><path d="M65.625,132.851c1.359-1.407,2.54-2.629,3.186-3.3a7.3,7.3,0,0,1,7.561-2.309c3.429.729,10.249,2.593,12.821,3.241a9.939,9.939,0,0,1,4.9,3.065,7.028,7.028,0,0,0,3.17,2.134c1.662.486,3.949,1.053,5.066,1.35a8.059,8.059,0,0,0,3.248.189c1.662-.108,3.481-.216,4.754-.324a11.461,11.461,0,0,1,4.313.7c1.121.318,4.525,1.365,7.709,2.371" style="fill:none;stroke:#30373e;stroke-linecap:round;stroke-linejoin:round;stroke-width:0.5px"/><line x1="76.189" y1="105.635" x2="110.249" y2="70.272" style="fill:none;stroke:#30373e;stroke-linecap:round;stroke-linejoin:round;stroke-width:0.5px"/><path d="M89.439,109.207S105.92,90.844,107.22,89.27a4.311,4.311,0,0,1,4.763-1.389c4.488,1.057,45.562,10.85,45.562,10.85" style="fill:none;stroke:#30373e;stroke-linecap:round;stroke-linejoin:round;stroke-width:0.5px"/><path d="M170.3,83.669l-2.734,3.654a.965.965,0,0,1-.988.362l-4-.923a.658.658,0,0,1-.5-.75l.682-4.027" style="fill:none;stroke:#30373e;stroke-linecap:round;stroke-linejoin:round;stroke-width:0.5px"/><path d="M124.432,73.429l-.647,3.744a.658.658,0,0,0,.5.753l26.627,6.145a1.111,1.111,0,0,0,.947-.219l1.134-.919" style="fill:none;stroke:#30373e;stroke-linecap:round;stroke-linejoin:round;stroke-width:0.5px"/><path d="M152.741,79.748l.246,3.108a1.109,1.109,0,0,0,.86.994l8.276,1.876" style="fill:none;stroke:#30373e;stroke-linecap:round;stroke-linejoin:round;stroke-width:0.5px"/><path d="M110.205,70.262c-.44.506-.689,1.757-1.064,3.5a.657.657,0,0,0,.495.778l4.425,1.022a1.113,1.113,0,0,0,.948-.219l1.134-.919" style="fill:none;stroke:#30373e;stroke-linecap:round;stroke-linejoin:round;stroke-width:0.5px"/><path d="M115.913,71.531l.224,2.821a1.109,1.109,0,0,0,.86.994l6.836,1.55" style="fill:none;stroke:#30373e;stroke-linecap:round;stroke-linejoin:round;stroke-width:0.5px"/><path d="M128.727,156.036c-.658.884-1.392,5.322-2.7,5.322-1.386,0-1.627-4.38-4.219-1.194-2.661,3.27-2.575,3.922-2.671,7.361-.166,5.986,0,13.357-.11,16.294s1.467,4.289,3.182,1.569" style="fill:none;stroke:#30373e;stroke-linecap:round;stroke-linejoin:round;stroke-width:0.5px"/><path d="M105.33,132.234a1.077,1.077,0,0,0,.177.585l1.516,2.316a1.136,1.136,0,0,0,1.015.512l2.235-.125a1.135,1.135,0,0,0,.888-.513l1.449-2.215a1.079,1.079,0,0,0,.176-.591v-4.789a1.08,1.08,0,0,0-.365-.809l-1.183-1.045a1.083,1.083,0,0,0-.783-.267l-2.556.161a1.55,1.55,0,0,0-.91.368l-1.3,1.112a1.079,1.079,0,0,0-.379.827Z" style="fill:none;stroke:#30373e;stroke-linecap:round;stroke-linejoin:round;stroke-width:0.5px"/><path d="M92.51,120.949a1.4,1.4,0,0,1,.43.5l.84,1.616a1.4,1.4,0,0,1,.159.678l-.108,5.2a1.405,1.405,0,0,1-.463,1.015l-.7.635a.348.348,0,0,1-.367.062l-2.283-.964a2.09,2.09,0,0,1-.6-.385l-1.083-.989a1.757,1.757,0,0,1-.571-1.27l-.049-3.42a1.749,1.749,0,0,1,.436-1.183l2.28-2.6a.35.35,0,0,1,.467-.053Z" style="fill:none;stroke:#30373e;stroke-linecap:round;stroke-linejoin:round;stroke-width:0.5px"/><path d="M68.536,129.838a1.49,1.49,0,0,0,.416-1.106l-.2-4.107a1.492,1.492,0,0,0-.476-1.021l-2.129-1.973c-.229-.212-.457-.343-.895.107l-1.248,1.282a1.556,1.556,0,0,0-.358.581l-.582,1.666a1.6,1.6,0,0,0-.085.622l.321,4.958a1.567,1.567,0,0,0,.141.558l.43.934,1.955-.2a1.487,1.487,0,0,0,.918-.447Z" style="fill:none;stroke:#30373e;stroke-linecap:round;stroke-linejoin:round;stroke-width:0.5px"/><path d="M126.2,138.592l-2.435.293a1.433,1.433,0,0,0-.924.5l-.967,1.156a1.42,1.42,0,0,0-.321.726l-.545,4.04" style="fill:none;stroke:#30373e;stroke-linecap:round;stroke-linejoin:round;stroke-width:0.5px"/><path d="M128.526,39.569a.372.372,0,0,0,.449-.356,27,27,0,0,1,.591-5.093.616.616,0,0,0-.473-.741l-6.4-1.347a.372.372,0,0,0-.436.267,22.269,22.269,0,0,0-.657,5.31.616.616,0,0,0,.489.6Z" style="fill:none;stroke:#30373e;stroke-linecap:round;stroke-linejoin:round;stroke-width:0.5px"/><path d="M129.352,35.191l-5.756-1.08a.427.427,0,0,0-.493.31l-1.018,3.793" style="fill:none;stroke:#30373e;stroke-linecap:round;stroke-linejoin:round;stroke-width:0.5px"/><path d="M118.024,34.342c.183,1.114.358,2.223.576,3.313a10.924,10.924,0,0,0,.428,1.589,1.926,1.926,0,0,0,.34.65,1.193,1.193,0,0,0,.619.3l6.6,1.3,3.3.684,1.648.343a11.255,11.255,0,0,0,1.613.272.532.532,0,0,0,.254-.047c.013,0,.029-.042.006-.153l-.245-.791c-.163-.542-.3-1.09-.426-1.639a17.7,17.7,0,0,1-.525-3.342c.26,1.1.6,2.164.9,3.244l.482,1.607.266.815a.593.593,0,0,1-.158.62.891.891,0,0,1-.546.161,11.143,11.143,0,0,1-1.712-.253l-1.657-.317-3.315-.639c-2.2-.458-4.407-.887-6.613-1.369a1.69,1.69,0,0,1-.862-.453,2.375,2.375,0,0,1-.44-.83,10.43,10.43,0,0,1-.373-1.682A17.94,17.94,0,0,1,118.024,34.342Z" style="fill:#30373e"/><path d="M46.091,133.8c12.77,3.807,69.631,20.93,74.759,22.4,1.919.549,3.193,1.134,3.963,2.165.8,1.075,2.023.521,3.3-1.419s38.519-55.368,39.3-56.532a9.808,9.808,0,0,0,1.285-3.613c.222-1.108.378-1.929-.952-2.262-1.059-.265-1.228-.067-1.828.793" style="fill:none;stroke:#30373e;stroke-linecap:round;stroke-linejoin:round;stroke-width:0.5px"/><line x1="176.548" y1="74.934" x2="176.232" y2="73.264" style="fill:none;stroke:#30373e;stroke-linecap:round;stroke-linejoin:round;stroke-width:0.5px"/><line x1="170.233" y1="109.998" x2="169.272" y2="111.504" style="fill:none;stroke:#30373e;stroke-linecap:round;stroke-linejoin:round;stroke-width:0.5px"/><path d="M90.42,129.338a1.458,1.458,0,0,1-.867-.723,2.7,2.7,0,0,1-.216-1.135c-.039-.741-.054-1.459-.046-2.218a1.7,1.7,0,0,1,.59-1.1,5.643,5.643,0,0,1,.892-.692c.609-.42,1.225-.829,1.867-1.2-.526.525-1.077,1.01-1.635,1.485-.535.466-1.184.969-1.219,1.528,0,.713-.01,1.465-.051,2.2a2.428,2.428,0,0,0,.051,1.034A1.5,1.5,0,0,0,90.42,129.338Z" style="fill:#30373e"/><path d="M107.105,127.232a3.61,3.61,0,0,1,.786,1.794,12.847,12.847,0,0,1,.1,1.946,26.665,26.665,0,0,1-.25,3.853,26.665,26.665,0,0,1-.25-3.853c0-.644.039-1.288.018-1.9A5.3,5.3,0,0,0,107.105,127.232Z" style="fill:#30373e"/><path d="M111.4,126.65c.045.651-.026,1.292-.011,1.921l.039,1.911a26.674,26.674,0,0,1-.25,3.844,26.818,26.818,0,0,1-.25-3.844,18.73,18.73,0,0,1,.077-1.931A12.979,12.979,0,0,1,111.4,126.65Z" style="fill:#30373e"/><path d="M65.846,124.6a2.191,2.191,0,0,1,.861.456,1.886,1.886,0,0,1,.486.894,12.467,12.467,0,0,1,.19,1.909c.024.629.049,1.259.03,1.891a1.534,1.534,0,0,1-.281.98,2.18,2.18,0,0,1-.8.562,1.528,1.528,0,0,0,.705-1.524c-.081-.627-.118-1.256-.156-1.885s-.02-1.278-.071-1.859A1.869,1.869,0,0,0,65.846,124.6Z" style="fill:#30373e"/><path d="M105.833,80.667a25.673,25.673,0,0,1,1.018,3.617A25.231,25.231,0,0,1,107.379,88a25.223,25.223,0,0,1-1.017-3.616A25.535,25.535,0,0,1,105.833,80.667Z" style="fill:#30373e"/><path d="M110.908,79.438a28.508,28.508,0,0,1,.08,7.534,25.493,25.493,0,0,1-.29-3.764A25.918,25.918,0,0,1,110.908,79.438Z" style="fill:#30373e"/></g><g id="a8df525f-1443-40c8-b217-b2a380a0ff83" data-name="above"><path d="M192.647-3.387s-8.572,36.519-14.858,72.049c-2.9,16.369-7.777,39.136-9.822,58.929-.727,7.04-.062,8.786,6.173,10.615s37.912,7.97,44.394,9.062c8.4,1.413,9.894-.084,9.894-.084" style="fill:none;stroke:#a6abb0;stroke-linecap:round;stroke-linejoin:round;stroke-width:0.75px"/></g><g id="bc2bd2a5-9f8b-4e31-8d75-e358e2ba0851" data-name="arrows"><path d="M131.127,54.255l-2.748-.516c-4.663,6.614-8.96,16.765-11.634,28.539A90.315,90.315,0,0,0,114.39,109l-5.037-1.36a90.6,90.6,0,0,1,2.354-26.719c2.637-11.568,6.83-21.569,11.39-28.183l-2.815-.535,9.514-5.5Z" style="fill:none;stroke:#efefef;stroke-width:1.5px"/><path d="M131.127,54.255l-2.748-.516c-4.663,6.614-8.96,16.765-11.634,28.539A90.315,90.315,0,0,0,114.39,109l-5.037-1.36a90.6,90.6,0,0,1,2.354-26.719c2.637-11.568,6.83-21.569,11.39-28.183l-2.815-.535,9.514-5.5Z" style="fill:#f4ae3d"/><polygon points="107.346 110.304 103.375 115.696 99.405 108.176 101.386 108.707 101.386 99.044 105.364 100.11 105.364 109.773 107.346 110.304" style="fill:none;stroke:#efefef;stroke-width:1.5px"/><polygon points="107.346 110.304 103.375 115.696 99.405 108.176 101.386 108.707 101.386 99.044 105.364 100.11 105.364 109.773 107.346 110.304" style="fill:#f4ae3d"/></g></svg>
