<?xml version="1.0" encoding="UTF-8"?><svg xmlns="http://www.w3.org/2000/svg" width="654" height="335.387" viewBox="0 0 654 335.387"><g id="uuid-4628de27-0d41-4096-926f-66d6b8ff474c"><path d="m257.95,71.171h-28.972" style="fill:none; stroke:#a6abb0; stroke-linecap:round; stroke-linejoin:round; stroke-width:.5px;"/><path d="m327.089,77.611h-24.585c-11.363,0-12.7-6.44-28.853-6.44h-4.587" style="fill:none; stroke:#a6abb0; stroke-linecap:round; stroke-linejoin:round; stroke-width:.5px;"/><path d="m327.089,83.202h-31.659c-.892,0-1.615.723-1.615,1.615v37.431c0,.892.723,1.615,1.615,1.615h31.659" style="fill:none; stroke:#a6abb0; stroke-linecap:round; stroke-linejoin:round; stroke-width:.5px;"/><path d="m375.26,117.285l-3.337,6.849c-1.38,2.833-4.256,4.631-7.408,4.631h-27.384s-10.043,0-10.043,0h-28.724c-3.152,0-6.027-1.798-7.408-4.631l-5.694-11.688c-.789-1.62-2.363-2.698-4.134-2.867" style="fill:none; stroke:#a6abb0; stroke-linecap:round; stroke-linejoin:round; stroke-width:.5px;"/><path d="m366.071,128.613l-4.267,7.292c-2.54,4.34-7.191,7.008-12.22,7.008h-12.452s-10.043,0-10.043,0h-13.792c-5.029,0-9.68-2.668-12.22-7.008l-4.267-7.292" style="fill:none; stroke:#a6abb0; stroke-linecap:round; stroke-linejoin:round; stroke-width:.5px;"/><path d="m327.089,77.611c25.729,0,54.966.285,76.917.653" style="fill:none; stroke:#a6abb0; stroke-linecap:round; stroke-linejoin:round; stroke-width:.5px;"/><path d="m327.088,83.202h39.988c.892,0,1.615.723,1.615,1.615v37.431c0,.892-.723,1.615-1.615,1.615h-39.988" style="fill:none; stroke:#a6abb0; stroke-linecap:round; stroke-linejoin:round; stroke-width:.5px;"/><line x1="264.224" y1="76.625" x2="245.043" y2="76.625" style="fill:none; stroke:#a6abb0; stroke-linecap:round; stroke-linejoin:round; stroke-width:.5px;"/><path d="m281.695,93.9l.452-15.66c.026-.892-.677-1.615-1.569-1.615h-6.421" style="fill:none; stroke:#a6abb0; stroke-linecap:round; stroke-linejoin:round; stroke-width:.5px;"/><path d="m283.633,143.74h13.317c1.02,0,1.858.806,1.897,1.826l.814,21.287" style="fill:none; stroke:#a6abb0; stroke-linecap:round; stroke-linejoin:round; stroke-width:.5px;"/><path d="m354.516,166.852l.814-21.287c.039-1.019.877-1.826,1.897-1.826h13.317" style="fill:none; stroke:#a6abb0; stroke-linecap:round; stroke-linejoin:round; stroke-width:.5px;"/><path d="m430.514,71.51c-4.017-.198-14.545-.849-38.45-1.335-2.098-.043-5.954.854-8.235.814-14.767-.256-33.416-.442-56.595-.442-9.847,0-20.313.127-30.077.267-2.466.035-7.004-.832-9.359-.832-7.044,0-12.71.037-19.936.168" style="fill:none; stroke:#a6abb0; stroke-linecap:round; stroke-linejoin:round; stroke-width:.5px;"/><path d="m228.974,64.141c4.432-1.754,9.263-2.718,14.32-2.718,21.503,0,38.935,17.432,38.935,38.935,0,5.376-1.089,10.497-3.06,15.155" style="fill:none; stroke:#a6abb0; stroke-linecap:round; stroke-linejoin:round; stroke-width:.5px;"/><path d="m224.952,73.155c5.236-3.537,11.548-5.603,18.342-5.603,4.504,0,8.909.662,12.704,2.55,6.736,3.351,8.737,7.286,12.195,11.818,1.777,2.33,3.955,2.395,5.557,6.222.335.8.615,1.625.875,2.46.586,2.069-1.586,3.238-1.586,3.238" style="fill:none; stroke:#a6abb0; stroke-linecap:round; stroke-linejoin:round; stroke-width:.5px;"/><path d="m282.041,96.528h2.477c.337,0,.645.191.795.494l.449.909c.069.14.1.296.09.452l-.156,2.312c-.011.169-.071.33-.171.466l-.58.786c-.167.227-.432.36-.713.36h-2.063" style="fill:none; stroke:#a6abb0; stroke-linecap:round; stroke-linejoin:round; stroke-width:.5px;"/></g><g id="uuid-c47b1619-2352-4d27-ab7b-9021830aac1f"><g id="uuid-9a06a77b-8dbc-4e1e-a2b0-d17e5a4aead9"><path d="m292.219,265.531s.67-17.264.149-31.861c0-.025-.002-.049-.003-.074-.054-1.526-.071-3.554-1.441-4.876-.776-.749-1.869-1.175-3.319-1.315.648-4.839,3.204-24.537,3.204-33.952,0-10.751-2.158-33.861-5.081-45.474-.184-.73-.354-1.417-.514-2.066-1.172-4.738-1.869-7.695-3.852-9.705-1.735-1.759-4.369-2.714-8.677-3.879,3.066-1.825,5.021-3.986,6.162-6.305,1.509-3.065,1.533-6.275,1.028-9.095-.895-4.997-1.796-9.951-4.565-18.334-2.86-8.656-5.705-11.498-17.122-17.507-11.382-5.99-12.501-6.052-28.834-6.783-.052-.002-.103-.005-.155-.007-.696-.339-3.37-1.694-5.994-3.719,2.014-1.035,3.982-2.747,6.6-6.522.335-.483.653-.923.958-1.345,1.21-1.674,2.242-3.084,2.732-5.192.524-2.251.413-5.203-.421-10.097-1.677-9.849-3.722-19.95-5.884-28.377-1.408-5.486-2.405-7.296-5.818-10.71-.009-.009-.019-.019-.028-.028-3.304-3.304-4.396-4.385-8.927-5.1-2.193-.346-10.922-1.628-22.874-1.628-10.227,0-20.458,1.316-23.267,1.797-2.834.485-4.594.938-5.927,1.823-1.325.88-2.135,2.13-3.217,3.826-2.306,3.613-2.889,4.81-3.274,9.821-.055.715-.133,1.696-.227,2.88-.538,6.777-1.601,20.173-1.855,27.538-.004.113-.008.226-.012.337-.183,5.224-.269,8.95,5.623,15.701-.57,2.012-1.285,3.49-2.244,4.721-1.347,1.73-3.248,3.069-6.189,4.685-1.978,1.087-4.511,2.367-7.359,3.805-4.659,2.354-10.134,5.119-15.24,8.09-3.245,1.888-5.473,4.084-7.003,6.548-2.466,3.97-3.049,8.525-3.371,13.265-.477,7.021-.271,11.018.049,17.246.032.617.065,1.256.098,1.923.155,3.082,1.131,5.73,2.93,7.485,1.201,1.172,2.728,1.903,4.505,2.104l.895,3.826c-1.768,1.185-3.401,2.678-4.355,5.037-1.137,2.812-1.236,6.671.175,12.374,2.644,10.687,8.544,31.246,12.229,44.087.049.171.098.341.146.509,3.6,12.547,4.198,15.009,7.305,29.755-2.634,1.028-4.596,2.284-6.128,3.964-2.936,3.221-4.132,7.862-5.865,14.699-.891,3.516-.819,6.692-.372,9.298.763,4.451,2.664,7.321,2.664,7.321" style="fill:none; stroke:#a6abb0; stroke-linecap:round; stroke-linejoin:round; stroke-width:.5px;"/><path d="m291.884,265.518s.669-17.253.149-31.836c0-.025-.002-.049-.003-.074-.056-1.569-.085-3.437-1.339-4.647-.761-.734-1.883-1.151-3.466-1.25.558-4.141,3.248-24.621,3.248-34.258,0-10.732-2.157-33.813-5.07-45.392-.184-.731-.354-1.418-.515-2.068-1.182-4.777-1.862-7.622-3.765-9.55-1.765-1.789-4.518-2.732-9.312-4.001,3.429-1.88,5.543-4.144,6.735-6.566,1.467-2.98,1.496-6.111.999-8.888-.894-4.99-1.791-9.926-4.554-18.288-2.822-8.543-5.586-11.329-16.96-17.316-11.323-5.96-12.39-6.015-28.693-6.744-.074-.003-.149-.007-.224-.01-.627-.303-3.675-1.823-6.537-4.118,2.125-.981,4.152-2.609,6.951-6.646.337-.486.657-.929.962-1.351,1.214-1.68,2.204-3.038,2.677-5.072.508-2.182.408-5.077-.425-9.965-1.676-9.843-3.719-19.935-5.879-28.35-1.395-5.437-2.366-7.191-5.731-10.556-.009-.009-.019-.019-.028-.028-3.284-3.284-4.315-4.307-8.742-5.006-2.182-.344-10.893-1.624-22.822-1.624-10.205,0-20.416,1.314-23.21,1.792-2.837.485-4.532.931-5.798,1.772-1.256.834-2.03,2.019-3.12,3.727-2.28,3.572-2.842,4.717-3.223,9.667-.055.715-.133,1.697-.227,2.881-.538,6.781-1.601,20.168-1.854,27.523-.004.113-.008.226-.012.338-.182,5.204-.28,8.851,5.66,15.605-.587,2.131-1.33,3.701-2.351,5.012-1.39,1.786-3.341,3.152-6.292,4.772-1.984,1.09-4.523,2.373-7.37,3.811-4.66,2.354-10.127,5.116-15.222,8.08-3.203,1.864-5.388,4.023-6.887,6.435-2.419,3.894-3,8.374-3.322,13.111-.476,7.001-.271,10.981.05,17.206.032.617.065,1.256.098,1.923.152,3.027,1.109,5.583,2.83,7.262,1.198,1.169,2.736,1.88,4.543,2.035l1.003,4.286c-1.814,1.187-3.471,2.655-4.424,5.012-1.099,2.718-1.214,6.495.189,12.168,2.642,10.679,8.54,31.231,12.226,44.075.049.171.098.341.146.509,3.626,12.635,4.21,15.057,7.37,30.058-2.735,1.034-4.728,2.292-6.267,3.979-2.867,3.145-4.047,7.69-5.787,14.556-.878,3.464-.807,6.592-.367,9.159.752,4.389,2.612,7.192,2.612,7.192" style="fill:none; stroke:#a6abb0; stroke-linecap:round; stroke-linejoin:round; stroke-width:.5px;"/><path d="m291.549,265.505s.669-17.241.149-31.811c0-.025-.002-.049-.003-.074-.057-1.613-.1-3.321-1.236-4.418-.736-.71-1.877-1.121-3.614-1.173.421-3.102,3.294-24.639,3.294-34.576,0-10.713-2.155-33.765-5.06-45.311-.184-.731-.354-1.42-.515-2.069-1.191-4.816-1.855-7.548-3.679-9.395-1.735-1.759-4.487-2.686-9.536-4.012v-.356c3.559-1.884,5.706-4.163,6.897-6.583,1.425-2.895,1.459-5.947.97-8.681-.892-4.983-1.787-9.902-4.542-18.242-2.785-8.431-5.467-11.16-16.798-17.124-11.265-5.929-12.278-5.978-28.552-6.706-.097-.004-.195-.009-.293-.013-.492-.235-3.977-1.937-7.09-4.537,2.246-.93,4.32-2.436,7.312-6.749.339-.489.661-.934.966-1.356,1.218-1.685,2.167-2.993,2.623-4.951.491-2.113.403-4.951-.429-9.833-1.675-9.837-3.716-19.919-5.873-28.323-1.383-5.388-2.327-7.086-5.643-10.403-.009-.009-.019-.019-.028-.028-3.265-3.265-4.233-4.229-8.558-4.912-2.171-.343-10.864-1.619-22.77-1.619-10.182,0-20.375,1.312-23.154,1.787-2.841.486-4.469.924-5.669,1.721-1.187.788-1.925,1.908-3.023,3.628-2.254,3.531-2.795,4.624-3.171,9.512-.055.716-.133,1.698-.227,2.881-.538,6.784-1.6,20.162-1.853,27.508-.004.113-.008.226-.012.338-.182,5.182-.291,8.75,5.695,15.507-.602,2.25-1.375,3.914-2.457,5.304-1.434,1.841-3.435,3.234-6.395,4.86-1.991,1.093-4.536,2.379-7.38,3.816-4.662,2.355-10.119,5.112-15.205,8.071-3.161,1.839-5.304,3.961-6.771,6.323-2.371,3.818-2.95,8.224-3.272,12.957-.474,6.98-.27,10.943.05,17.166.032.617.065,1.257.098,1.923.149,2.971,1.087,5.437,2.729,7.039,1.192,1.163,2.74,1.855,4.579,1.958l1.113,4.756c-1.865,1.194-3.543,2.634-4.493,4.985-1.061,2.623-1.192,6.319.204,11.962,2.64,10.672,8.536,31.216,12.223,44.063.049.171.098.341.146.509,3.651,12.723,4.222,15.104,7.435,30.364-2.841,1.04-4.864,2.299-6.406,3.992-2.798,3.07-3.963,7.517-5.71,14.412-.865,3.412-.795,6.492-.361,9.02.741,4.326,2.561,7.062,2.561,7.062" style="fill:none; stroke:#a6abb0; stroke-linecap:round; stroke-linejoin:round; stroke-width:.5px;"/></g><path d="m291.214,265.492s.668-17.23.149-31.786c-.101-2.82-.149-5.347-4.902-5.347,0,0,3.342-24.211,3.342-34.906s-2.154-33.717-5.05-45.229-2.377-12.328-13.739-15.299v-.817c7.872-4.085,8.764-10.026,7.872-15.002s-1.782-9.878-4.53-18.196-5.347-10.992-16.636-16.933c-11.289-5.941-12.18-5.941-28.771-6.684,0,0-4.159-1.931-7.65-4.976,2.377-.891,4.485-2.228,7.679-6.833,3.194-4.605,4.891-5.404,3.105-15.893-1.674-9.832-3.713-19.904-5.867-28.296-1.37-5.339-2.288-6.981-5.556-10.249s-4.167-4.178-8.401-4.846c-2.16-.341-10.835-1.615-22.717-1.615-10.16,0-20.333,1.31-23.097,1.782-5.644.965-6.238,1.708-8.466,5.199-2.228,3.491-2.748,4.53-3.119,9.358s-1.782,21.76-2.079,30.375c-.184,5.349-.446,8.838,5.719,15.745-1.411,5.422-3.788,7.65-9.061,10.546s-14.408,7.13-22.577,11.883-9.358,11.363-9.878,19.012-.223,11.66.149,19.05c.257,5.123,2.896,8.578,7.241,8.689l1.225,5.236c-3.998,2.505-7.018,5.904-4.345,16.71,2.674,10.806,8.689,31.749,12.366,44.56s4.233,15.151,7.501,30.672c-8.169,2.896-9.432,7.427-12.18,18.27-2.31,9.115,2.154,15.815,2.154,15.815" style="fill:none; stroke:#a6abb0; stroke-linecap:round; stroke-linejoin:round; stroke-width:.5px;"/><path d="m295.444,194.598c-2.019,10.355-2.264,14.164-1.686,26.563.336,7.217.511,12.618,1.371,16.918,2.183,10.896,6.05,11.614,31.958,11.614" style="fill:none; stroke:#a6abb0; stroke-linecap:round; stroke-linejoin:round; stroke-width:.5px;"/><path d="m327.089,157.767c0-.446-.263-1.188-1.637-1.188-5.644,0-13.999.408-20.646,1.522-2.186.366-3.494,1.299-4.122,4.122-3.082,13.851-4.854,22.643-6.339,31.035-1.485,8.392-2.833,13.265-2.164,27.599.388,8.331.512,15.453,1.501,20.766,2.385,12.808,7.326,13.694,33.407,13.694" style="fill:none; stroke:#a6abb0; stroke-linecap:round; stroke-linejoin:round; stroke-width:.5px;"/><line x1="296.949" y1="250.13" x2="299.052" y2="265.492" style="fill:none; stroke:#a6abb0; stroke-linecap:round; stroke-linejoin:round; stroke-width:.5px;"/><path d="m294.876,190.305c-.626,3.482.049,5.285,4.032,5.285h24.518c1.992,0,3.662-.788,3.662-2.541v-35.281" style="fill:none; stroke:#a6abb0; stroke-linecap:round; stroke-linejoin:round; stroke-width:.5px;"/><path d="m298.793,195.587c0,10.213.233,30.515,1.307,38.961,1.089,8.567,1.178,9.267,26.988,9.267" style="fill:none; stroke:#a6abb0; stroke-linecap:round; stroke-linejoin:round; stroke-width:.5px;"/><path d="m296.927,195.377c-.588,9.661-.068,30.679,1.046,39.442,1.329,10.453,3.045,11.14,29.116,11.14" style="fill:none; stroke:#a6abb0; stroke-linecap:round; stroke-linejoin:round; stroke-width:.5px;"/><path d="m299.048,215.883c-.007-.293.104-.577.308-.787s.485-.328.778-.328h26.954" style="fill:none; stroke:#a6abb0; stroke-linecap:round; stroke-linejoin:round; stroke-width:.5px;"/><path d="m316.54,240.052c0,.446-.362.808-.808.808h-2.005c-.446,0-.808-.362-.808-.808s.362-.808.808-.808h2.005c.446,0,.808.362.808.808Z" style="fill:none; stroke:#a6abb0; stroke-linecap:round; stroke-linejoin:round; stroke-width:.5px;"/><line x1="298.8" y1="198.782" x2="327.089" y2="198.782" style="fill:none; stroke:#a6abb0; stroke-linecap:round; stroke-linejoin:round; stroke-width:.5px;"/><line x1="327.089" y1="211.982" x2="298.954" y2="211.982" style="fill:none; stroke:#a6abb0; stroke-linecap:round; stroke-linejoin:round; stroke-width:.5px;"/><line x1="325.507" y1="211.982" x2="325.507" y2="198.782" style="fill:none; stroke:#a6abb0; stroke-linecap:round; stroke-linejoin:round; stroke-width:.5px;"/><line x1="328.755" y1="211.982" x2="328.755" y2="198.782" style="fill:none; stroke:#a6abb0; stroke-linecap:round; stroke-linejoin:round; stroke-width:.5px;"/><line x1="298.807" y1="200.913" x2="325.507" y2="200.913" style="fill:none; stroke:#a6abb0; stroke-linecap:round; stroke-linejoin:round; stroke-width:.5px;"/><line x1="298.844" y1="203.781" x2="325.507" y2="203.781" style="fill:none; stroke:#a6abb0; stroke-linecap:round; stroke-linejoin:round; stroke-width:.5px;"/><line x1="316.345" y1="206.648" x2="325.507" y2="206.648" style="fill:none; stroke:#a6abb0; stroke-linecap:round; stroke-linejoin:round; stroke-width:.5px;"/><line x1="298.881" y1="206.648" x2="306.711" y2="206.648" style="fill:none; stroke:#a6abb0; stroke-linecap:round; stroke-linejoin:round; stroke-width:.5px;"/><line x1="298.918" y1="209.516" x2="325.507" y2="209.516" style="fill:none; stroke:#a6abb0; stroke-linecap:round; stroke-linejoin:round; stroke-width:.5px;"/><path d="m316.345,206.721c0,.584-.474,1.058-1.058,1.058h-7.52c-.584,0-1.058-.474-1.058-1.058s.474-1.058,1.058-1.058h7.52c.584,0,1.058.474,1.058,1.058Z" style="fill:none; stroke:#a6abb0; stroke-linecap:round; stroke-linejoin:round; stroke-width:.5px;"/><path d="m109.844,267.704s-6.279-23.607-16.107-68.31c-6.548-29.787-12.271-57.469-13.63-64.264s-6.724-8.512-14.807-8.512-14.091.286-14.091.286l-43.036,15.531" style="fill:none; stroke:#a6abb0; stroke-linecap:round; stroke-linejoin:round; stroke-width:.5px;"/><g id="uuid-b606020e-d8e6-4d79-8f27-52535677935e"><path d="m60.839,17.903c-8.889,56.052-10.701,96.865-10.946,103.45l-38.452,12.987" style="fill:none; stroke:#a6abb0; stroke-linecap:round; stroke-linejoin:round; stroke-width:.5px;"/><path d="m61.17,17.956c-8.504,53.628-10.528,93.293-10.959,104.342l.989.029-.322-.952-.659.223c-.017.463-.024.7-.024.7,0,0,.016,0,.073-1.97-.022.527-.038.952-.049,1.269l-38.671,13.061" style="fill:none; stroke:#a6abb0; stroke-linecap:round; stroke-linejoin:round; stroke-width:.5px;"/><path d="m61.501,18.008c-9.128,57.565-10.788,99.027-10.955,103.832l-38.891,13.135" style="fill:none; stroke:#a6abb0; stroke-linecap:round; stroke-linejoin:round; stroke-width:.5px;"/><path d="m61.832,18.06c-9.298,58.637-10.844,100.55-10.959,104.022l-39.11,13.209" style="fill:none; stroke:#a6abb0; stroke-linecap:round; stroke-linejoin:round; stroke-width:.5px;"/></g><path d="m62.163,18.113c-9.71,61.234-10.962,104.213-10.962,104.213l-39.33,13.283" style="fill:none; stroke:#a6abb0; stroke-linecap:round; stroke-linejoin:round; stroke-width:.5px;"/><line x1="51.201" y1="122.326" x2="51.21" y2="126.904" style="fill:none; stroke:#a6abb0; stroke-linecap:round; stroke-linejoin:round; stroke-width:.5px;"/><path d="m158.498,65.044c.965-3.804,3.93-22.609,5.794-33.705s5.023-11.465,9.495-12.398c4.472-.933,15.798-1.102,23.373-.531,6.278.473,8.892,3.527,11.433,12.929,2.541,9.402,5.506,20.245,7.115,26.937s3.73,10.557,5.591,12.042" style="fill:none; stroke:#a6abb0; stroke-linecap:round; stroke-linejoin:round; stroke-width:.5px;"/><path d="m159.091,62.309c-1.347,7.336-2.062,11.549-11.2,16.568-2.04,1.121-4.563,2.396-7.485,3.872-4.702,2.375-10.032,5.068-15.034,7.978-7.142,4.155-7.969,9.633-8.447,16.655" style="fill:none; stroke:#a6abb0; stroke-linecap:round; stroke-linejoin:round; stroke-width:.5px;"/><path d="m228.949,75.293c9.545,4.074,22.421,9.326,30.214,13.815s9.572,7.285,11.605,13.976,3.473,11.351,4.405,17.28,1.847,9.17-4.159,11.743c-6.006,2.572-6.091,3.42-16.51-.562-10.419-3.981-10.419-4.235-16.856-11.689-6.438-7.454-11.693-12.568-21.769-12.833-12.875-.339-45.487,0-53.958,0s-13.299,3.092-18.127,11.054-5.659,9.768-10.305,11.995c-5.47,2.622-9.115,4.151-9.115,4.151" style="fill:none; stroke:#a6abb0; stroke-linecap:round; stroke-linejoin:round; stroke-width:.5px;"/><path d="m129.562,131.917c4.646-2.227,6.702-5.877,11.53-13.839s9.656-11.054,18.127-11.054h5.02" style="fill:none; stroke:#a6abb0; stroke-linecap:round; stroke-linejoin:round; stroke-width:.5px;"/><path d="m258.38,132.964c3.38.983,4.457.44,7.284-.807,4.9-2.164,5.429-3.071,4.186-9.427-1.107-5.66-1.561-8.373-4.483-17.929-1.797-5.911-2.998-8.18-10.377-12.432-6.532-3.764-16.678-8.06-25.63-11.849-12.562-5.313-16.163-8.496-19.092-20.68-1.4-5.819-3.803-14.697-6.128-23.282l-.968-3.582c-2.554-9.453-4.825-10.638-9.048-10.957-2.874-.216-6.213-.318-9.476-.318-5.445,0-10.672.284-13.149.801l-.348.072c-3.804.788-5.539,1.146-7.051,10.147" style="fill:none; stroke:#a6abb0; stroke-linecap:round; stroke-linejoin:round; stroke-width:.5px;"/><path d="m125.598,139.46s7.946-3.171,12.012-5.288,5.161-3.373,9.877-9.513,7.47-8.575,13.557-8.792c8.252-.295,43.127-.442,52.459-.098s11.241,1.629,18.518,8.547c6.975,6.631,7.81,7.515,14.343,9.726s11.396,3.635,14.441,4.617,3.635,1.081,5.747-.344,3.438-2.554,3.438-2.554l1.024-2.835" style="fill:none; stroke:#a6abb0; stroke-linecap:round; stroke-linejoin:round; stroke-width:.5px;"/><path d="m281.786,251.818c-1.515-17.685,3.245-20.588,2.519-46.073-.421-14.787-4.125-35.462-6.755-47.434s-6.258-13.423-21.464-18.29c-2.931-.938-6.865-1.913-11.386-3.442-6.949-2.35-8.159-3.502-14.877-9.89l-.454-.432c-6.981-6.637-8.366-7.501-16.77-7.81-3.782-.14-11.686-.196-20.302-.196-12.833,0-27.248.126-31.964.294-4.983.178-7.04,1.903-11.527,7.746-4.717,6.145-6.143,7.852-10.763,10.257-4.139,2.157-11.663,5.13-11.99,5.268-4.874,2.06-6.964,6.047-4.801,14.355" style="fill:none; stroke:#a6abb0; stroke-linecap:round; stroke-linejoin:round; stroke-width:.5px;"/><path d="m269.989,135.76c7.117,3.564,8.794,7.337,11.225,18.07s2.935,15.848,4.696,29.599,1.689,40.052.551,44.929c-1.138,4.878-5.575,13.357-4.514,27.58.406,5.441.776,9.553.776,9.553" style="fill:none; stroke:#a6abb0; stroke-linecap:round; stroke-linejoin:round; stroke-width:.5px;"/><path d="m141.12,231.403c1.389,7.612,2.688,13.418,3.765,18.497,1.018,4.801,2.554,6.088,2.554,6.088,0,0,1.685,5.528,3.682,9.503" style="fill:none; stroke:#a6abb0; stroke-linecap:round; stroke-linejoin:round; stroke-width:.5px;"/><path d="m147.439,255.988c1.186.749,4.431.998,11.919,1.061s32.949.106,55.726.106,52.294-.296,64.15-.793c2.737-.115,2.572-3.244,2.572-3.244" style="fill:none; stroke:#a6abb0; stroke-linecap:round; stroke-linejoin:round; stroke-width:.5px;"/><path d="m219.922,249.44c-15.44,0-36.366-.17-41.705-.415-11.017-.505-14.693-4.814-21.673-16.089-6.072-9.811-6.667-11.72-8.808-20.215-.258-1.021-.543-2.155-.874-3.435-2.94-11.393-6.902-30.413-7.927-36.791-1.738-10.805,3.205-14.638,10.942-19.252,8.219-4.901,12.03-5.772,18.641-5.772.116-.001,17.292-.141,31.167-.141,8.215,0,13.718.05,16.356.145,1.026.038,1.951.063,2.806.085,7.226.194,10.604.454,21.754,5.026,13.516,5.541,15.546,8.655,18.358,19.567l.107.416c2.426,9.413,5.722,30.302,6.709,38.539,1.154,9.643.126,13.218-4.422,23.169-5.298,11.592-9.571,14.532-21.768,14.983-3.976.148-12.887.179-19.663.179Z" style="fill:none; stroke:#a6abb0; stroke-linecap:round; stroke-linejoin:round; stroke-width:.5px;"/><path d="m168.519,153.099c-5.183,0-7.734.37-15.21,4.827-7.516,4.48-8.763,6.194-7.759,12.433,1.011,6.287,4.968,25.209,7.8,36.181,2.869,11.115,2.421,11.343,8.891,21.796,6.549,10.58,8.607,12.571,16.282,12.923,7.678.352,51.348.587,60.814.235s11.557-1.524,15.923-11.075c4.318-9.448,4.817-11.622,3.863-19.586-.945-7.891-4.214-28.621-6.545-37.662-2.306-8.945-2.549-10.551-14.518-15.458-11.899-4.878-13.589-4.297-22.263-4.614-8.671-.317-47.278,0-47.278,0Z" style="fill:none; stroke:#a6abb0; stroke-linecap:round; stroke-linejoin:round; stroke-width:.5px;"/><path d="m197.73,44.769c-.84-5.154-3.453-7.408-7.909-7.575s-7.464-.056-10.806.056-6.071,1.504-6.963,7.854-2.451,22.67-2.841,29.856,1.615,10.695,7.52,10.917,13.814.501,18.883-.056,7.464-2.785,6.795-9.302c-.668-6.517-2.021-15.45-4.679-31.749Z" style="fill:none; stroke:#a6abb0; stroke-linecap:round; stroke-linejoin:round; stroke-width:.5px;"/><path d="m181.107,76.481c-1.746,0-3.161-1.415-3.162-3.16-.009-13.223.519-21.883.855-26.052.132-1.641,1.502-2.908,3.149-2.908h6.801c1.645,0,3.015,1.261,3.151,2.9l2.147,25.796c.073.881-.226,1.753-.824,2.404s-1.443,1.021-2.327,1.021h-9.789Z" style="fill:none; stroke:#a6abb0; stroke-linecap:round; stroke-linejoin:round; stroke-width:.5px;"/><path d="m181.107,75.008c-.93,0-1.688-.758-1.689-1.688-.008-13.286.53-21.95.852-25.932.069-.872.807-1.553,1.679-1.553h6.801c.872,0,1.61.68,1.682,1.548l2.147,25.795c.039.47-.12.938-.438,1.284-.321.348-.773.547-1.243.547h-9.79Z" style="fill:none; stroke:#a6abb0; stroke-linecap:round; stroke-linejoin:round; stroke-width:.5px;"/><path d="m179.674,59.205c.015-.834.695-1.501,1.529-1.501h6.915c.781,0,1.436.588,1.52,1.364l1.413,13.021c.047.432-.092.863-.382,1.186s-.704.508-1.138.508h-8.563c-.958,0-1.536-.805-1.529-1.544l.235-13.033Z" style="fill:none; stroke:#a6abb0; stroke-linecap:round; stroke-linejoin:round; stroke-width:.5px;"/><path d="m187.426,53.402c0,.502-.407.91-.91.91s-.91-.407-.91-.91v-2.154c0-.502.407-.91.91-.91s.91.407.91.91v2.154Z" style="fill:none; stroke:#a6abb0; stroke-linecap:round; stroke-linejoin:round; stroke-width:.5px;"/><line x1="190.324" y1="65.389" x2="191.918" y2="65.389" style="fill:none; stroke:#a6abb0; stroke-linecap:round; stroke-linejoin:round; stroke-width:.5px;"/><path d="m79.47,16.465c-6.949,38.477-11.324,79.398-10.82,110.276" style="fill:none; stroke:#a6abb0; stroke-linecap:round; stroke-linejoin:round; stroke-width:.5px;"/><path d="m84.284,16.465c-9.014,49.913-11.241,88.652-10.804,111.148" style="fill:none; stroke:#a6abb0; stroke-linecap:round; stroke-linejoin:round; stroke-width:.5px;"/><path d="m6.365,165c14.823-6.087,40.908-16.719,50.313-20.044,13.442-4.753,17.601-.594,17.676,14.556s-4.902,53.324-4.902,53.324c0,0,7.57,1.301,10.321,1.748s3.233,2.133,3.061,3.887-.722,2.889-.722,2.889c.86.963.757,5.022.516,8.221s-1.794,13.826-3.164,23.252c-.71,4.88-2.047,8.445-2.047,8.445,1.281,4.512,1.337,7.575-2.228,11.474-2.198,2.405-18.251,18.536-30.234,30.55" style="fill:none; stroke:#a6abb0; stroke-linecap:round; stroke-linejoin:round; stroke-width:.5px;"/><path d="m15.728,170.896c15.204-6.334,34.366-14.254,39.612-16.146,9.061-3.268,12.862-.726,11.957,8.624-1.114,11.511-5.05,34.163-7.427,42.704s-3.491,11.66-10.843,17.156c-5.22,3.902-27.851,20.048-40.537,29.083" style="fill:none; stroke:#a6abb0; stroke-linecap:round; stroke-linejoin:round; stroke-width:.5px;"/><path d="m82.112,221.36c-.74,1.54-2.3,2.765-6.088,6.107-3.206,2.828-55.764,45.674-71.841,58.775" style="fill:none; stroke:#a6abb0; stroke-linecap:round; stroke-linejoin:round; stroke-width:.5px;"/><path d="m54.58,218.238c3.001-2.22,8.939-3.381,11.277-3.767.661-.109,1.306-.336,1.889-.666l1.707-.968" style="fill:none; stroke:#a6abb0; stroke-linecap:round; stroke-linejoin:round; stroke-width:.5px;"/><path d="m68.509,242.814c.204-1.166-1.154-1.953-2.06-1.191-13.05,10.983-33.634,28.471-36.155,30.627-3.843,3.286-4.846,6.628-3.342,9.413s5.124,7.909,6.684,9.915,3.788,2.785,6.294.724,19.326-17.355,21.721-19.583,2.674-5.013,3.119-8.132c.301-2.106,2.404-14.16,3.739-21.773Z" style="fill:none; stroke:#a6abb0; stroke-linecap:round; stroke-linejoin:round; stroke-width:.5px;"/><path d="m33.636,291.578c2.507-2.061,19.551-17.728,21.946-19.956s2.674-5.013,3.119-8.132c.253-1.771,1.781-10.58,3.054-17.865" style="fill:none; stroke:#a6abb0; stroke-linecap:round; stroke-linejoin:round; stroke-width:.5px;"/><path d="m50.736,234.749c-1.853-.005-9.747-.028-11.53-.033s-2.752.249-5.068,1.909c-1.871,1.342-25.693,18.427-27.524,19.74s-2.201,2.152-.021,3.083c1.343.573,4.057,1.732,7.338,3.133,2.045.873,3.976.185,6.02-1.393,8.394-6.48,29.979-23.141,31.518-24.33,1.914-1.478,1.884-2.103-.734-2.11Z" style="fill:none; stroke:#a6abb0; stroke-linecap:round; stroke-linejoin:round; stroke-width:.5px;"/><line x1="39.745" y1="264.216" x2="39.018" y2="270.095" style="fill:none; stroke:#a6abb0; stroke-linecap:round; stroke-linejoin:round; stroke-width:.5px;"/><line x1="37.227" y1="234.939" x2="35.509" y2="248.846" style="fill:none; stroke:#a6abb0; stroke-linecap:round; stroke-linejoin:round; stroke-width:.5px;"/><polyline points="26.689 280.292 39.018 270.095 56.873 270.113" style="fill:none; stroke:#a6abb0; stroke-linecap:round; stroke-linejoin:round; stroke-width:.5px;"/><path d="m58.367,228.358l-7.742-.111,9.933-7.033c.241-.171.536-.245.829-.209,6.158.762,4.717,1.549,2.161,3.399-2.618,1.894-5.18,3.955-5.18,3.955Z" style="fill:none; stroke:#a6abb0; stroke-linecap:round; stroke-linejoin:round; stroke-width:.5px;"/><path d="m61.756,225.728l-.004-.087c-.024-.573-.485-1.031-1.058-1.051l-3.893-.137c-.506-.018-1.004.131-1.417.424l-3.031,2.146" style="fill:none; stroke:#a6abb0; stroke-linecap:round; stroke-linejoin:round; stroke-width:.5px;"/><path d="m13.22,278.876c.759-.619,1.738-.903,2.711-.786s1.857.624,2.448,1.405l13.699,18.1c.778,1.028,1.954,1.679,3.238,1.794s2.557-.319,3.504-1.193l38.597-36.919" style="fill:none; stroke:#a6abb0; stroke-linecap:round; stroke-linejoin:round; stroke-width:.5px;"/><path d="m214.127,4.568c-1.867-.368-.935,2.674.147,8.117,1.328,6.686,5.514,26.458,7.13,36.54.992,6.192.78,11.976-3.374,16.2" style="fill:none; stroke:#a6abb0; stroke-linecap:round; stroke-linejoin:round; stroke-width:.5px;"/><path d="m230.075,49.741c.164,0,.32-.073.425-.2s.149-.294.119-.457c-1.125-6.253-4.548-23.897-6.467-31.996-.06-.254-.285-.439-.544-.447l-.873-.026c-.169-.005-.329.066-.435.194s-.148.299-.114.465c.937,4.528,4.684,24.183,6.022,31.684.081.452.471.782.928.782h.938Z" style="fill:none; stroke:#a6abb0; stroke-linecap:round; stroke-linejoin:round; stroke-width:.5px;"/><path d="m256.892,195.876s-5.758.04-16.662.076l-.76-7.81c-.036-.366-.344-.644-.712-.643-2.762.009-5.862.018-9.29.027-.268,0-.514.152-.635.391l-4.081,8.074c-6.477.011-13.878.019-22.154.019-8.446,0-15.836-.008-22.187-.02l-6.218-8.18c-.135-.177-.344-.281-.566-.282-3.608-.009-6.814-.018-9.623-.028-.201,0-.39.092-.513.251s-.165.366-.113.56l2.025,7.639c-9.803-.036-14.613-.074-14.613-.074" style="fill:none; stroke:#a6abb0; stroke-linecap:round; stroke-linejoin:round; stroke-width:.5px;"/><path d="m228.517,188.542c-7.721.012-16.374.02-25.914.02-10.533,0-19.812-.009-27.856-.024" style="fill:none; stroke:#a6abb0; stroke-linecap:round; stroke-linejoin:round; stroke-width:.5px;"/><path d="m225.362,194.782c-6.902.009-14.498.015-22.76.015-8.521,0-16.221-.006-23.111-.016" style="fill:none; stroke:#a6abb0; stroke-linecap:round; stroke-linejoin:round; stroke-width:.5px;"/><path d="m161.374,188.303l-.067-.265c-.188-.741-.953-1.34-1.709-1.34h-9.415c-.756,0-1.241.599-1.082,1.34l1.371,6.442c.165.771.929,1.399,1.705,1.399h5.418l.456-.627-1.678-6.947,2.155-.014" style="fill:none; stroke:#a6abb0; stroke-linecap:round; stroke-linejoin:round; stroke-width:.5px;"/><path d="m160.062,194.272l-.227.417.226,1.191h1.779c.776,0,1.246-.628,1.051-1.399l-.044-.174" style="fill:none; stroke:#a6abb0; stroke-linecap:round; stroke-linejoin:round; stroke-width:.5px;"/><path d="m152.081,193.82c.056.264.29.453.56.453h3.051s-1.275-5.494-1.275-5.494c-.064-.277-.311-.473-.595-.473h-2.913s1.173,5.514,1.173,5.514Z" style="fill:none; stroke:#a6abb0; stroke-linecap:round; stroke-linejoin:round; stroke-width:.5px;"/><path d="m164.909,194.314c-1.78-.006-3.395-.013-4.847-.019l-1.532-6.004c1.452.006,3.067.013,4.847.019" style="fill:none; stroke:#a6abb0; stroke-linecap:round; stroke-linejoin:round; stroke-width:.5px;"/><path d="m244.637,194.39l.02.166c.115.695.84,1.257,1.622,1.257h2.082l-.236-1.431h-1.283c-.244,0-.46-.166-.495-.383l-.628-5.647h3.152l1.002,6.905c.053.321.372.568.735.568l4.912.013c.782,0,1.322-.562,1.207-1.257l-1.121-6.626c-.115-.695-.84-1.257-1.622-1.257h-8.905c-.782,0-1.322.562-1.207,1.257l.048.4" style="fill:none; stroke:#a6abb0; stroke-linecap:round; stroke-linejoin:round; stroke-width:.5px;"/><path d="m255.067,194.283l-3.317-.013c-.244,0-.46-.166-.495-.383l-.775-5.535h3.149c.244,0,.46.166.495.383l.943,5.548Z" style="fill:none; stroke:#a6abb0; stroke-linecap:round; stroke-linejoin:round; stroke-width:.5px;"/><line x1="245.719" y1="188.353" x2="239.489" y2="188.363" style="fill:none; stroke:#a6abb0; stroke-linecap:round; stroke-linejoin:round; stroke-width:.5px;"/><path d="m247.471,194.383c-2.464.007-4.928.013-7.392.019" style="fill:none; stroke:#a6abb0; stroke-linecap:round; stroke-linejoin:round; stroke-width:.5px;"/><path d="m182.153,63.856l1.879-1.899c.162-.164.425-.173.598-.021l1.979,1.734" style="fill:none; stroke:#a6abb0; stroke-linecap:round; stroke-linejoin:round; stroke-width:.5px;"/><path d="m112.717,17.438c-.079.334-11.985,57.867-10.139,117.514.352,11.365-13.694,16.261-11.475,26.762,14.531,68.747,22.605,99.707,23.999,104.946" style="fill:none; stroke:#a6abb0; stroke-linecap:round; stroke-linejoin:round; stroke-width:.5px;"/><path d="m541.46,17.438c.079.334,11.985,57.867,10.139,117.514-.352,11.365,13.694,16.261,11.475,26.762-14.531,68.747-22.605,99.707-23.999,104.946" style="fill:none; stroke:#a6abb0; stroke-linecap:round; stroke-linejoin:round; stroke-width:.5px;"/><path d="m558.086,156.254l-8.687-12.341c-.757-1.076-2.284-1.549-2.681.585-10.98,59.017-21.481,105.176-21.481,105.176" style="fill:none; stroke:#a6abb0; stroke-linecap:round; stroke-linejoin:round; stroke-width:.5px;"/><path d="m96.382,156.254s3.68-5.228,8.687-12.341c.757-1.076,2.284-1.549,2.681.585,9.678,52.021,18.985,94.051,21.055,103.285" style="fill:none; stroke:#a6abb0; stroke-linecap:round; stroke-linejoin:round; stroke-width:.5px;"/><path d="m134.296,17.438c-.056.237-6.071,32.477-8.899,70.201" style="fill:none; stroke:#a6abb0; stroke-linecap:round; stroke-linejoin:round; stroke-width:1.34px;"/><path d="m74.073,153.849h2.013c.618,0,1.228-.149,1.776-.434l4.616-2.398c.48-.249.736-.788.625-1.317l-.277-1.329" style="fill:none; stroke:#a6abb0; stroke-linecap:round; stroke-linejoin:round; stroke-width:.5px;"/><path d="m81.999,234.977l15.792-12.579c.571-.455.831-1.197.669-1.909l-.316-1.386" style="fill:none; stroke:#a6abb0; stroke-linecap:round; stroke-linejoin:round; stroke-width:.5px;"/><line x1="70.747" y1="277.334" x2="72.424" y2="285.27" style="fill:none; stroke:#a6abb0; stroke-linecap:round; stroke-linejoin:round; stroke-width:.5px;"/><path d="m77.854,262.996l3.547-2.878c3.309-2.685,4.968-4.26,12.043-3.464,1.411.159,2.753.409,3.935.679,2.737.626,4.914,2.701,5.674,5.405l1.751,6.226" style="fill:none; stroke:#a6abb0; stroke-linecap:round; stroke-linejoin:round; stroke-width:.5px;"/><path d="m73.452,125.824s19.739-.741,23.257-.926,4.691-.741,9.628-2.777,10.429-4.382,10.429-4.382" style="fill:none; stroke:#a6abb0; stroke-linecap:round; stroke-linejoin:round; stroke-width:.5px;"/><g id="uuid-7f8c2374-0c44-4830-9749-f66e4edb03f1"><path d="m523.92,266.045s1.901-2.869,2.664-7.321c.447-2.606.519-5.782-.372-9.298-1.733-6.837-2.929-11.478-5.865-14.699-1.532-1.68-3.493-2.936-6.128-3.964,3.107-14.746,3.705-17.209,7.305-29.755.048-.168.097-.338.146-.509,3.685-12.841,9.585-33.401,12.229-44.087,1.411-5.703,1.312-9.562.175-12.374-.954-2.36-2.587-3.852-4.355-5.037l.895-3.826c1.777-.202,3.304-.932,4.505-2.104,1.799-1.755,2.775-4.403,2.93-7.485.033-.666.066-1.305.098-1.923.321-6.228.527-10.224.049-17.246-.322-4.74-.905-9.295-3.371-13.265-1.531-2.464-3.758-4.66-7.003-6.548-5.106-2.971-10.58-5.736-15.24-8.09-2.848-1.439-5.381-2.719-7.359-3.805-2.941-1.616-4.842-2.955-6.189-4.685-.959-1.232-1.673-2.709-2.244-4.721,5.892-6.751,5.806-10.477,5.623-15.701-.004-.112-.008-.224-.012-.337-.254-7.365-1.317-20.761-1.855-27.538-.094-1.183-.172-2.165-.227-2.88-.385-5.011-.968-6.208-3.274-9.821-1.082-1.696-1.892-2.946-3.217-3.826-1.332-.884-3.093-1.338-5.927-1.823-2.809-.48-13.04-1.797-23.267-1.797-11.952,0-20.682,1.281-22.874,1.628-4.53.715-5.623,1.796-8.927,5.1-.009.009-.018.018-.028.028-3.414,3.414-4.411,5.224-5.818,10.71-2.163,8.427-4.207,18.528-5.884,28.377-.834,4.895-.944,7.846-.421,10.097.49,2.108,1.522,3.518,2.732,5.192.305.422.624.863.958,1.345,2.618,3.775,4.586,5.487,6.6,6.522-2.624,2.025-5.298,3.38-5.994,3.719-.052.002-.104.005-.155.007-16.332.731-17.452.792-28.834,6.783-11.417,6.009-14.262,8.851-17.122,17.507-2.769,8.383-3.67,13.337-4.565,18.334-.505,2.82-.481,6.03,1.028,9.095,1.141,2.318,3.096,4.479,6.162,6.305-4.308,1.165-6.941,2.12-8.677,3.879-1.983,2.009-2.68,4.967-3.852,9.705-.161.649-.331,1.336-.514,2.066-2.922,11.614-5.081,34.723-5.081,45.474,0,9.415,2.556,29.114,3.204,33.952-1.45.14-2.543.566-3.319,1.315-1.37,1.322-1.386,3.35-1.441,4.876,0,.025-.002.049-.003.074-.521,14.598.149,31.861.149,31.861" style="fill:none; stroke:#a6abb0; stroke-linecap:round; stroke-linejoin:round; stroke-width:.5px;"/><path d="m523.641,265.859s1.86-2.803,2.612-7.192c.44-2.567.511-5.695-.367-9.159-1.74-6.866-2.921-11.41-5.787-14.556-1.538-1.688-3.531-2.946-6.267-3.979,3.16-15.001,3.744-17.423,7.37-30.058.048-.168.097-.338.146-.509,3.686-12.844,9.584-33.396,12.226-44.075,1.404-5.673,1.288-9.45.189-12.168-.953-2.357-2.61-3.825-4.424-5.012l1.003-4.286c1.807-.154,3.345-.866,4.543-2.035,1.721-1.679,2.677-4.236,2.83-7.262.033-.667.066-1.306.098-1.923.32-6.225.525-10.205.05-17.206-.322-4.737-.903-9.217-3.322-13.111-1.499-2.413-3.684-4.572-6.887-6.435-5.096-2.965-10.562-5.726-15.222-8.08-2.846-1.438-5.385-2.721-7.37-3.811-2.951-1.621-4.902-2.987-6.292-4.772-1.02-1.31-1.764-2.881-2.351-5.012,5.94-6.753,5.842-10.401,5.66-15.605-.004-.112-.008-.224-.012-.338-.254-7.355-1.316-20.742-1.854-27.523-.094-1.183-.172-2.165-.227-2.881-.381-4.95-.942-6.095-3.223-9.667-1.09-1.708-1.865-2.893-3.12-3.727-1.266-.841-2.961-1.286-5.798-1.772-2.794-.478-13.006-1.792-23.21-1.792-11.929,0-20.64,1.279-22.822,1.624-4.427.699-5.458,1.722-8.742,5.006-.009.009-.018.018-.028.028-3.365,3.365-4.335,5.119-5.731,10.556-2.16,8.415-4.202,18.507-5.879,28.35-.833,4.888-.932,7.783-.425,9.965.473,2.033,1.464,3.392,2.677,5.072.305.422.625.865.962,1.351,2.799,4.036,4.826,5.665,6.951,6.646-2.862,2.295-5.91,3.815-6.537,4.118-.075.003-.15.007-.224.01-16.303.73-17.37.785-28.693,6.744s-14.138,8.772-16.96,17.316c-2.762,8.361-3.66,13.298-4.554,18.288-.497,2.777-.468,5.908.999,8.888,1.192,2.422,3.306,4.686,6.735,6.566-4.794,1.269-7.546,2.212-9.312,4.001-1.903,1.928-2.584,4.773-3.765,9.55-.161.649-.331,1.337-.515,2.068-2.914,11.58-5.07,34.66-5.07,45.392,0,9.638,2.69,30.118,3.248,34.258-1.583.098-2.705.515-3.466,1.25-1.254,1.21-1.283,3.078-1.339,4.647,0,.025-.002.049-.003.074-.521,14.584.149,31.836.149,31.836" style="fill:none; stroke:#a6abb0; stroke-linecap:round; stroke-linejoin:round; stroke-width:.5px;"/><path d="m523.362,265.673s1.82-2.737,2.561-7.062c.433-2.528.503-5.608-.361-9.02-1.747-6.895-2.912-11.343-5.71-14.412-1.543-1.692-3.565-2.952-6.406-3.992,3.213-15.26,3.784-17.641,7.435-30.364.048-.168.097-.338.146-.509,3.687-12.847,9.582-33.392,12.223-44.063,1.396-5.643,1.265-9.338.204-11.962-.951-2.351-2.628-3.791-4.493-4.985l1.113-4.756c1.839-.103,3.386-.794,4.579-1.958,1.642-1.603,2.58-4.068,2.729-7.039.034-.667.066-1.306.098-1.923.32-6.222.524-10.186.05-17.166-.322-4.733-.901-9.139-3.272-12.957-1.467-2.362-3.61-4.484-6.771-6.323-5.086-2.959-10.543-5.716-15.205-8.071-2.844-1.437-5.389-2.723-7.38-3.816-2.96-1.626-4.961-3.019-6.395-4.86-1.082-1.39-1.855-3.054-2.457-5.304,5.987-6.757,5.877-10.325,5.695-15.507-.004-.112-.008-.224-.012-.338-.253-7.346-1.315-20.724-1.853-27.508-.094-1.183-.172-2.166-.227-2.881-.376-4.889-.917-5.981-3.171-9.512-1.098-1.72-1.837-2.84-3.023-3.628-1.201-.797-2.829-1.235-5.669-1.721-2.779-.475-12.971-1.787-23.154-1.787-11.906,0-20.599,1.277-22.77,1.619-4.324.683-5.293,1.647-8.558,4.912-.009.009-.018.018-.028.028-3.316,3.316-4.26,5.015-5.643,10.403-2.157,8.404-4.197,18.485-5.873,28.323-.831,4.882-.92,7.72-.429,9.833.456,1.959,1.405,3.266,2.623,4.951.305.422.627.867.966,1.356,2.992,4.313,5.067,5.819,7.312,6.749-3.113,2.6-6.598,4.302-7.09,4.537-.098.004-.196.009-.293.013-16.274.728-17.287.777-28.552,6.706-11.331,5.964-14.013,8.694-16.798,17.124-2.755,8.34-3.65,13.259-4.542,18.242-.49,2.734-.455,5.786.97,8.681,1.191,2.419,3.339,4.698,6.897,6.583v.356c-5.049,1.326-7.8,2.253-9.536,4.012-1.823,1.847-2.487,4.579-3.679,9.395-.161.649-.331,1.337-.515,2.069-2.905,11.546-5.06,34.597-5.06,45.311,0,9.938,2.873,31.474,3.294,34.576-1.737.052-2.879.463-3.614,1.173-1.137,1.097-1.179,2.805-1.236,4.418,0,.025-.002.049-.003.074-.52,14.57.149,31.811.149,31.811" style="fill:none; stroke:#a6abb0; stroke-linecap:round; stroke-linejoin:round; stroke-width:.5px;"/></g><path d="m523.083,265.488s4.464-6.7,2.154-15.815c-2.748-10.843-4.01-15.373-12.18-18.27,3.268-15.522,3.825-17.861,7.501-30.672s9.692-33.755,12.366-44.56c2.674-10.806-.347-14.205-4.345-16.71l1.225-5.236c4.345-.111,6.984-3.566,7.241-8.689.371-7.39.668-11.4.149-19.05s-1.708-14.259-9.878-19.012c-8.169-4.753-17.304-8.986-22.577-11.883-5.273-2.896-7.65-5.124-9.061-10.546,6.164-6.907,5.903-10.396,5.719-15.745-.297-8.615-1.708-25.548-2.079-30.375s-.891-5.867-3.119-9.358c-2.228-3.491-2.822-4.233-8.466-5.199-2.764-.473-12.937-1.782-23.097-1.782-11.883,0-20.557,1.274-22.717,1.615-4.233.668-5.133,1.578-8.401,4.846s-4.185,4.91-5.556,10.249c-2.154,8.392-4.193,18.464-5.867,28.296-1.786,10.489-.089,11.289,3.105,15.893,3.194,4.605,5.302,5.941,7.679,6.833-3.491,3.045-7.65,4.976-7.65,4.976-16.591.743-17.482.743-28.771,6.684s-13.888,8.615-16.636,16.933c-2.748,8.318-3.639,13.22-4.53,18.196-.891,4.976,0,10.917,7.872,15.002v.817c-11.363,2.971-10.843,3.788-13.739,15.299-2.896,11.511-5.05,34.534-5.05,45.229,0,10.695,3.342,34.906,3.342,34.906-4.753,0-4.801,2.527-4.902,5.347-.52,14.556.149,31.786.149,31.786" style="fill:none; stroke:#a6abb0; stroke-linecap:round; stroke-linejoin:round; stroke-width:.5px;"/><path d="m358.733,194.598c2.019,10.355,2.264,14.164,1.686,26.563-.336,7.217-.511,12.618-1.371,16.918-2.183,10.896-6.05,11.614-31.958,11.614" style="fill:none; stroke:#a6abb0; stroke-linecap:round; stroke-linejoin:round; stroke-width:.5px;"/><path d="m327.089,157.767c0-.446.263-1.188,1.637-1.188,5.644,0,13.999.408,20.646,1.522,2.186.366,3.494,1.299,4.122,4.122,3.082,13.851,4.854,22.643,6.339,31.035,1.485,8.392,2.833,13.265,2.164,27.599-.388,8.331-.512,15.453-1.501,20.766-2.385,12.808-7.326,13.694-33.407,13.694" style="fill:none; stroke:#a6abb0; stroke-linecap:round; stroke-linejoin:round; stroke-width:.5px;"/><g id="uuid-c0894485-4b81-4e7f-aed8-4e882a58ebd7"><path d="m362.627,235.174c.229-2.964.366-6.242.513-9.755.061-1.458.124-2.959.196-4.5.595-12.753-.395-18.147-1.661-25.022-.171-.926-.345-1.874-.522-2.873-1.49-8.418-3.266-17.23-6.351-31.093-.344-1.545-.91-2.76-1.838-3.64-.954-.905-2.132-1.305-3.37-1.512-6.746-1.131-15.182-1.541-20.868-1.541-.61,0-1.167.111-1.637.351-.47-.241-1.027-.351-1.637-.351-5.686,0-14.121.41-20.868,1.541-1.238.207-2.416.607-3.37,1.512-.928.88-1.494,2.096-1.838,3.64-3.085,13.863-4.861,22.675-6.351,31.093-.177.998-.351,1.947-.522,2.873-1.267,6.875-2.256,12.269-1.661,25.022.072,1.541.135,3.041.196,4.5.147,3.512.284,6.791.513,9.755" style="fill:none; stroke:#a6abb0; stroke-linecap:round; stroke-linejoin:round; stroke-width:.5px;"/><path d="m362.293,235.148c.228-2.957.365-6.229.512-9.743.061-1.458.124-2.959.196-4.501.593-12.72-.392-18.087-1.656-24.946-.171-.926-.346-1.875-.522-2.875-1.489-8.411-3.264-17.219-6.348-31.078-.335-1.507-.879-2.652-1.742-3.47-.886-.84-1.99-1.223-3.195-1.425-6.722-1.127-15.137-1.536-20.812-1.536-.643,0-1.197.131-1.637.4-.44-.269-.994-.4-1.637-.4-5.676,0-14.091.41-20.812,1.536-1.205.202-2.309.585-3.195,1.425-.862.818-1.406,1.963-1.742,3.47-3.084,13.86-4.859,22.667-6.348,31.078-.177,1-.352,1.949-.522,2.875-1.264,6.859-2.249,12.226-1.656,24.946.072,1.542.135,3.043.196,4.501.147,3.514.284,6.786.512,9.743" style="fill:none; stroke:#a6abb0; stroke-linecap:round; stroke-linejoin:round; stroke-width:.5px;"/><path d="m361.959,235.122c.228-2.95.364-6.216.511-9.731.061-1.458.124-2.96.196-4.503.592-12.686-.39-18.027-1.651-24.87-.171-.925-.346-1.876-.523-2.877-1.488-8.405-3.262-17.207-6.345-31.064-.327-1.469-.848-2.544-1.645-3.3-.818-.776-1.848-1.141-3.02-1.337-6.697-1.122-15.092-1.532-20.757-1.532-.696,0-1.243.164-1.637.472-.394-.308-.941-.472-1.637-.472-5.665,0-14.06.409-20.757,1.532-1.172.196-2.202.562-3.02,1.337-.797.756-1.318,1.83-1.645,3.3-3.083,13.857-4.857,22.659-6.345,31.064-.177,1.001-.352,1.952-.523,2.877-1.261,6.843-2.243,12.183-1.651,24.87.072,1.543.135,3.045.196,4.503.147,3.515.284,6.781.511,9.731" style="fill:none; stroke:#a6abb0; stroke-linecap:round; stroke-linejoin:round; stroke-width:.5px;"/><path d="m361.625,235.096c.227-2.943.363-6.203.511-9.719.061-1.458.124-2.961.196-4.505.59-12.653-.388-17.966-1.646-24.793-.17-.925-.346-1.877-.523-2.879-1.486-8.399-3.259-17.196-6.342-31.05-.319-1.432-.817-2.436-1.549-3.129-.75-.711-1.706-1.059-2.845-1.25-6.672-1.118-15.047-1.527-20.702-1.527-.739,0-1.243.199-1.563.518-.026.026-.051.053-.074.08-.023-.027-.048-.053-.074-.08-.32-.319-.824-.518-1.563-.518-5.655,0-14.03.409-20.702,1.527-1.139.191-2.095.539-2.845,1.25-.731.694-1.23,1.697-1.549,3.129-3.083,13.854-4.856,22.651-6.342,31.05-.177,1.002-.353,1.954-.523,2.879-1.258,6.827-2.236,12.14-1.646,24.793.072,1.544.135,3.047.196,4.505.147,3.517.284,6.777.511,9.719" style="fill:none; stroke:#a6abb0; stroke-linecap:round; stroke-linejoin:round; stroke-width:.5px;"/></g><path d="m361.291,235.071c.32-4.152.46-8.941.706-14.214.668-14.334-.679-19.207-2.164-27.599-1.485-8.392-3.257-17.184-6.339-31.035-.628-2.823-1.936-3.756-4.122-4.122-6.647-1.114-15.002-1.522-20.646-1.522-1.374,0-1.637.743-1.637,1.188,0-.446-.263-1.188-1.637-1.188-5.644,0-13.999.408-20.646,1.522-2.186.366-3.494,1.299-4.122,4.122-3.082,13.851-4.854,22.643-6.339,31.035-1.485,8.392-2.833,13.265-2.164,27.599.246,5.273.386,10.062.706,14.214" style="fill:none; stroke:#a6abb0; stroke-linecap:round; stroke-linejoin:round; stroke-width:.5px;"/><line x1="357.228" y1="250.13" x2="355.125" y2="265.492" style="fill:none; stroke:#a6abb0; stroke-linecap:round; stroke-linejoin:round; stroke-width:.5px;"/><path d="m359.301,190.305c.626,3.482-.049,5.285-4.032,5.285h-24.518c-1.992,0-3.662-.788-3.662-2.541,0-1.753,0-35.281,0-35.281" style="fill:none; stroke:#a6abb0; stroke-linecap:round; stroke-linejoin:round; stroke-width:.5px;"/><path d="m355.384,195.587c0,10.213-.233,30.515-1.307,38.961-1.089,8.567-1.178,9.267-26.988,9.267" style="fill:none; stroke:#a6abb0; stroke-linecap:round; stroke-linejoin:round; stroke-width:.5px;"/><path d="m357.25,195.377c.588,9.661.068,30.679-1.046,39.442-1.329,10.453-3.045,11.14-29.116,11.14" style="fill:none; stroke:#a6abb0; stroke-linecap:round; stroke-linejoin:round; stroke-width:.5px;"/><path d="m355.129,215.883c.007-.293-.104-.577-.308-.787s-.485-.328-.778-.328h-26.954" style="fill:none; stroke:#a6abb0; stroke-linecap:round; stroke-linejoin:round; stroke-width:.5px;"/><path d="m337.637,240.052c0,.446.362.808.808.808h2.005c.446,0,.808-.362.808-.808s-.362-.808-.808-.808h-2.005c-.446,0-.808.362-.808.808Z" style="fill:none; stroke:#a6abb0; stroke-linecap:round; stroke-linejoin:round; stroke-width:.5px;"/><line x1="355.377" y1="198.782" x2="327.089" y2="198.782" style="fill:none; stroke:#a6abb0; stroke-linecap:round; stroke-linejoin:round; stroke-width:.5px;"/><line x1="327.089" y1="211.982" x2="355.223" y2="211.982" style="fill:none; stroke:#a6abb0; stroke-linecap:round; stroke-linejoin:round; stroke-width:.5px;"/><line x1="355.37" y1="200.913" x2="328.755" y2="200.913" style="fill:none; stroke:#a6abb0; stroke-linecap:round; stroke-linejoin:round; stroke-width:.5px;"/><line x1="355.333" y1="203.781" x2="328.755" y2="203.781" style="fill:none; stroke:#a6abb0; stroke-linecap:round; stroke-linejoin:round; stroke-width:.5px;"/><line x1="337.832" y1="206.648" x2="328.755" y2="206.648" style="fill:none; stroke:#a6abb0; stroke-linecap:round; stroke-linejoin:round; stroke-width:.5px;"/><line x1="355.296" y1="206.648" x2="347.466" y2="206.648" style="fill:none; stroke:#a6abb0; stroke-linecap:round; stroke-linejoin:round; stroke-width:.5px;"/><line x1="355.259" y1="209.516" x2="328.755" y2="209.516" style="fill:none; stroke:#a6abb0; stroke-linecap:round; stroke-linejoin:round; stroke-width:.5px;"/><path d="m337.832,206.721c0,.584.474,1.058,1.058,1.058h7.52c.584,0,1.058-.474,1.058-1.058s-.474-1.058-1.058-1.058h-7.52c-.584,0-1.058.474-1.058,1.058Z" style="fill:none; stroke:#a6abb0; stroke-linecap:round; stroke-linejoin:round; stroke-width:.5px;"/><path d="m544.333,267.704s6.279-23.607,16.107-68.31c6.548-29.787,12.271-57.469,13.63-64.264s6.724-8.512,14.807-8.512c8.083,0,14.091.286,14.091.286l42.757,15.43" style="fill:none; stroke:#a6abb0; stroke-linecap:round; stroke-linejoin:round; stroke-width:.5px;"/><g id="uuid-a43fef0c-34a6-43ea-907c-56ead054da25"><path d="m642.052,134.109l-37.768-12.756c-.239-6.406-1.96-45.207-10.237-98.916" style="fill:none; stroke:#a6abb0; stroke-linecap:round; stroke-linejoin:round; stroke-width:.5px;"/><path d="m641.944,134.426l-37.987-12.83c-.203-5.631-1.86-44.718-10.242-99.108" style="fill:none; stroke:#a6abb0; stroke-linecap:round; stroke-linejoin:round; stroke-width:.5px;"/><path d="m641.837,134.744l-38.206-12.904c-.163-4.678-1.74-44.101-10.246-99.301" style="fill:none; stroke:#a6abb0; stroke-linecap:round; stroke-linejoin:round; stroke-width:.5px;"/><path d="m641.73,135.061l-38.426-12.978c-.112-3.382-1.581-43.237-10.251-99.493" style="fill:none; stroke:#a6abb0; stroke-linecap:round; stroke-linejoin:round; stroke-width:.5px;"/></g><path d="m641.623,135.378l-38.646-13.052s-1.191-40.871-10.254-99.685" style="fill:none; stroke:#a6abb0; stroke-linecap:round; stroke-linejoin:round; stroke-width:.5px;"/><line x1="602.976" y1="122.326" x2="602.967" y2="126.904" style="fill:none; stroke:#a6abb0; stroke-linecap:round; stroke-linejoin:round; stroke-width:.5px;"/><path d="m495.679,65.044c-.965-3.804-3.93-22.609-5.794-33.705-1.864-11.096-5.023-11.465-9.495-12.398s-15.798-1.102-23.373-.531c-6.278.473-8.892,3.527-11.433,12.929-2.541,9.402-5.506,20.245-7.115,26.937-1.609,6.692-3.73,10.557-5.591,12.042" style="fill:none; stroke:#a6abb0; stroke-linecap:round; stroke-linejoin:round; stroke-width:.5px;"/><path d="m495.086,62.309c1.347,7.336,2.062,11.549,11.2,16.568,2.04,1.121,4.563,2.396,7.485,3.872,4.702,2.375,10.032,5.068,15.034,7.978,7.142,4.155,7.969,9.633,8.447,16.655" style="fill:none; stroke:#a6abb0; stroke-linecap:round; stroke-linejoin:round; stroke-width:.5px;"/><path d="m425.228,75.293c-9.545,4.074-22.421,9.326-30.214,13.815-7.793,4.489-9.572,7.285-11.605,13.976s-3.473,11.351-4.405,17.28-1.847,9.17,4.159,11.743,6.091,3.42,16.51-.562,10.419-4.235,16.856-11.689c6.438-7.454,11.693-12.568,21.769-12.833,12.875-.339,45.487,0,53.958,0,8.471,0,13.299,3.092,18.127,11.054s5.659,9.768,10.305,11.995c5.47,2.622,9.115,4.151,9.115,4.151" style="fill:none; stroke:#a6abb0; stroke-linecap:round; stroke-linejoin:round; stroke-width:.5px;"/><path d="m524.615,131.917c-4.646-2.227-6.702-5.877-11.53-13.839s-9.656-11.054-18.127-11.054h-5.02" style="fill:none; stroke:#a6abb0; stroke-linecap:round; stroke-linejoin:round; stroke-width:.5px;"/><path d="m395.797,132.964c-3.38.983-4.457.44-7.284-.807-4.9-2.164-5.429-3.071-4.186-9.427,1.107-5.66,1.561-8.373,4.483-17.929,1.797-5.911,2.998-8.18,10.377-12.432,6.532-3.764,16.678-8.06,25.63-11.849,12.562-5.313,16.163-8.496,19.092-20.68,1.4-5.819,3.803-14.697,6.128-23.282l.968-3.582c2.554-9.453,4.825-10.638,9.048-10.957,2.874-.216,6.213-.318,9.476-.318,5.445,0,10.672.284,13.149.801l.348.072c3.804.788,5.539,1.146,7.051,10.147" style="fill:none; stroke:#a6abb0; stroke-linecap:round; stroke-linejoin:round; stroke-width:.5px;"/><path d="m528.579,139.46s-7.946-3.171-12.012-5.288-5.161-3.373-9.877-9.513c-4.715-6.14-7.47-8.575-13.557-8.792-8.252-.295-43.127-.442-52.459-.098s-11.241,1.629-18.518,8.547c-6.975,6.631-7.81,7.515-14.343,9.726-6.533,2.21-11.396,3.635-14.441,4.617s-3.635,1.081-5.747-.344-3.438-2.554-3.438-2.554l-1.024-2.835" style="fill:none; stroke:#a6abb0; stroke-linecap:round; stroke-linejoin:round; stroke-width:.5px;"/><path d="m372.391,251.818c1.515-17.685-3.245-20.588-2.519-46.073.421-14.787,4.125-35.462,6.755-47.434,2.63-11.972,6.258-13.423,21.464-18.29,2.931-.938,6.865-1.913,11.386-3.442,6.949-2.35,8.159-3.502,14.877-9.89l.454-.432c6.981-6.637,8.366-7.501,16.77-7.81,3.782-.14,11.686-.196,20.302-.196,12.833,0,27.248.126,31.964.294,4.983.178,7.04,1.903,11.527,7.746,4.717,6.145,6.143,7.852,10.763,10.257,4.139,2.157,11.663,5.13,11.99,5.268,4.874,2.06,6.964,6.047,4.801,14.355" style="fill:none; stroke:#a6abb0; stroke-linecap:round; stroke-linejoin:round; stroke-width:.5px;"/><path d="m384.188,135.76c-7.117,3.564-8.794,7.337-11.225,18.07-2.432,10.733-2.935,15.848-4.696,29.599-1.761,13.751-1.689,40.052-.551,44.929,1.138,4.878,5.575,13.357,4.514,27.58-.406,5.441-.776,9.553-.776,9.553" style="fill:none; stroke:#a6abb0; stroke-linecap:round; stroke-linejoin:round; stroke-width:.5px;"/><path d="m513.057,231.403c-1.389,7.612-2.688,13.418-3.765,18.497-1.018,4.801-2.554,6.088-2.554,6.088,0,0-1.685,5.528-3.682,9.503" style="fill:none; stroke:#a6abb0; stroke-linecap:round; stroke-linejoin:round; stroke-width:.5px;"/><path d="m506.738,255.988c-1.186.749-4.431.998-11.919,1.061-7.488.062-32.949.106-55.726.106-22.777,0-52.294-.296-64.15-.793-2.737-.115-2.572-3.244-2.572-3.244" style="fill:none; stroke:#a6abb0; stroke-linecap:round; stroke-linejoin:round; stroke-width:.5px;"/><path d="m434.254,249.44c-6.776,0-15.687-.031-19.663-.179-12.196-.451-16.469-3.392-21.767-14.985-4.549-9.951-5.577-13.527-4.423-23.167.989-8.251,4.288-29.148,6.71-38.539l.106-.412c2.811-10.915,4.84-14.029,18.358-19.571,11.151-4.572,14.528-4.833,21.754-5.026.856-.022,1.78-.047,2.804-.085,2.639-.096,8.142-.145,16.357-.145,13.875,0,31.05.14,31.222.141,6.666,0,10.303.835,18.586,5.772,7.738,4.613,12.68,8.446,10.942,19.252-1.022,6.36-4.979,25.374-7.926,36.791-.331,1.281-.618,2.416-.875,3.436-2.141,8.494-2.736,10.403-8.807,20.213-6.979,11.276-10.656,15.585-21.672,16.09-5.343.245-26.269.415-41.707.415Z" style="fill:none; stroke:#a6abb0; stroke-linecap:round; stroke-linejoin:round; stroke-width:.5px;"/><path d="m485.658,153.099c5.183,0,7.734.37,15.21,4.827,7.516,4.48,8.763,6.194,7.759,12.433-1.011,6.287-4.968,25.209-7.8,36.181-2.869,11.115-2.421,11.343-8.891,21.796-6.549,10.58-8.607,12.571-16.282,12.923s-51.348.587-60.814.235c-9.462-.352-11.557-1.524-15.923-11.075-4.318-9.448-4.817-11.622-3.863-19.586.945-7.891,4.214-28.621,6.545-37.662,2.306-8.945,2.549-10.551,14.518-15.458,11.899-4.878,13.589-4.297,22.263-4.614s47.278,0,47.278,0Z" style="fill:none; stroke:#a6abb0; stroke-linecap:round; stroke-linejoin:round; stroke-width:.5px;"/><path d="m456.447,44.769c.84-5.154,3.453-7.408,7.909-7.575s7.464-.056,10.806.056,6.071,1.504,6.963,7.854,2.451,22.67,2.841,29.856-1.615,10.695-7.52,10.917c-5.904.223-13.814.501-18.883-.056-5.069-.557-7.464-2.785-6.795-9.302.668-6.517,2.021-15.45,4.679-31.749Z" style="fill:none; stroke:#a6abb0; stroke-linecap:round; stroke-linejoin:round; stroke-width:.5px;"/><path d="m473.07,76.481c1.746,0,3.161-1.415,3.162-3.16.009-13.223-.519-21.883-.855-26.052-.132-1.641-1.502-2.908-3.149-2.908h-6.801c-1.645,0-3.015,1.261-3.151,2.9l-2.147,25.796c-.073.881.226,1.753.824,2.404s1.443,1.021,2.327,1.021h9.789Z" style="fill:none; stroke:#a6abb0; stroke-linecap:round; stroke-linejoin:round; stroke-width:.5px;"/><path d="m473.07,75.008c.93,0,1.688-.758,1.689-1.688.008-13.286-.53-21.95-.852-25.932-.069-.872-.807-1.553-1.679-1.553h-6.801c-.872,0-1.61.68-1.682,1.548l-2.147,25.795c-.039.47.12.938.438,1.284.321.348.773.547,1.243.547h9.79Z" style="fill:none; stroke:#a6abb0; stroke-linecap:round; stroke-linejoin:round; stroke-width:.5px;"/><path d="m474.503,59.205c-.015-.834-.695-1.501-1.529-1.501h-6.915c-.781,0-1.436.588-1.52,1.364l-1.413,13.021c-.047.432.092.863.382,1.186s.704.508,1.138.508h8.563c.958,0,1.536-.805,1.529-1.544l-.235-13.033Z" style="fill:none; stroke:#a6abb0; stroke-linecap:round; stroke-linejoin:round; stroke-width:.5px;"/><path d="m466.751,53.402c0,.502.407.91.91.91s.91-.407.91-.91v-2.154c0-.502-.407-.91-.91-.91s-.91.407-.91.91v2.154Z" style="fill:none; stroke:#a6abb0; stroke-linecap:round; stroke-linejoin:round; stroke-width:.5px;"/><line x1="463.853" y1="65.389" x2="462.259" y2="65.389" style="fill:none; stroke:#a6abb0; stroke-linecap:round; stroke-linejoin:round; stroke-width:.5px;"/><path d="m574.707,16.465c6.949,38.477,11.324,79.398,10.82,110.276" style="fill:none; stroke:#a6abb0; stroke-linecap:round; stroke-linejoin:round; stroke-width:.5px;"/><path d="m569.893,16.465c9.014,49.913,11.241,88.652,10.804,111.148" style="fill:none; stroke:#a6abb0; stroke-linecap:round; stroke-linejoin:round; stroke-width:.5px;"/><path d="m647.837,165.01c-14.819-6.086-40.928-16.727-50.337-20.054-13.442-4.753-17.601-.594-17.676,14.556s4.902,53.324,4.902,53.324c0,0-7.57,1.301-10.321,1.748s-3.233,2.133-3.061,3.887.722,2.889.722,2.889c-.86.963-.757,5.022-.516,8.221s1.794,13.826,3.164,23.252c.71,4.88,2.047,8.445,2.047,8.445-1.281,4.512-1.337,7.575,2.228,11.474,2.198,2.405,18.251,18.536,30.234,30.55" style="fill:none; stroke:#a6abb0; stroke-linecap:round; stroke-linejoin:round; stroke-width:.5px;"/><path d="m643.949,173.19c-15.677-6.545-39.208-16.311-45.113-18.44-9.061-3.268-12.862-.726-11.957,8.624,1.114,11.511,5.05,34.163,7.427,42.704,2.377,8.541,3.491,11.66,10.843,17.156,5.033,3.762,26.245,18.902,39.13,28.081" style="fill:none; stroke:#a6abb0; stroke-linecap:round; stroke-linejoin:round; stroke-width:.5px;"/><path d="m572.065,221.36c.74,1.54,2.3,2.765,6.088,6.107,3.161,2.789,54.299,44.48,71.143,58.206" style="fill:none; stroke:#a6abb0; stroke-linecap:round; stroke-linejoin:round; stroke-width:.5px;"/><path d="m599.597,218.238c-3.001-2.22-8.939-3.381-11.277-3.767-.661-.109-1.306-.336-1.889-.666l-1.707-.968" style="fill:none; stroke:#a6abb0; stroke-linecap:round; stroke-linejoin:round; stroke-width:.5px;"/><path d="m603.441,234.749c1.853-.005,9.747-.028,11.53-.033s2.752.249,5.068,1.909c1.871,1.342,25.693,18.427,27.524,19.74s2.201,2.152.021,3.083l-7.338,3.133c-2.045.873-3.976.185-6.02-1.393-8.394-6.48-29.979-23.141-31.518-24.33-1.914-1.478-1.884-2.103.734-2.11Z" style="fill:none; stroke:#a6abb0; stroke-linecap:round; stroke-linejoin:round; stroke-width:.5px;"/><line x1="616.95" y1="234.939" x2="618.668" y2="248.846" style="fill:none; stroke:#a6abb0; stroke-linecap:round; stroke-linejoin:round; stroke-width:.5px;"/><path d="m595.81,228.358l7.742-.111-9.933-7.033c-.241-.171-.536-.245-.829-.209-6.158.762-4.717,1.549-2.161,3.399,2.618,1.894,5.18,3.955,5.18,3.955Z" style="fill:none; stroke:#a6abb0; stroke-linecap:round; stroke-linejoin:round; stroke-width:.5px;"/><path d="m592.421,225.728l.004-.087c.024-.573.485-1.031,1.058-1.051l3.893-.137c.506-.018,1.004.131,1.417.424l3.031,2.146" style="fill:none; stroke:#a6abb0; stroke-linecap:round; stroke-linejoin:round; stroke-width:.5px;"/><path d="m440.05,4.568c1.867-.368.935,2.674-.147,8.117-1.328,6.686-5.514,26.458-7.13,36.54-.992,6.192-.78,11.976,3.374,16.2" style="fill:none; stroke:#a6abb0; stroke-linecap:round; stroke-linejoin:round; stroke-width:.5px;"/><path d="m424.102,49.741c-.164,0-.32-.073-.425-.2s-.149-.294-.119-.457c1.125-6.253,4.548-23.897,6.467-31.996.06-.254.285-.439.544-.447l.873-.026c.169-.005.329.066.435.194s.148.299.114.465c-.937,4.528-4.684,24.183-6.022,31.684-.081.452-.471.782-.928.782h-.938Z" style="fill:none; stroke:#a6abb0; stroke-linecap:round; stroke-linejoin:round; stroke-width:.5px;"/><path d="m397.285,195.876s5.758.04,16.662.076l.76-7.81c.036-.366.344-.644.712-.643,2.762.009,5.862.018,9.29.027.268,0,.514.152.635.391l4.081,8.074c6.477.011,13.878.019,22.154.019,8.446,0,15.836-.008,22.187-.02l6.218-8.18c.135-.177.344-.281.566-.282,3.608-.009,6.814-.018,9.623-.028.201,0,.39.092.513.251s.165.366.113.56l-2.025,7.639c9.803-.036,14.613-.074,14.613-.074" style="fill:none; stroke:#a6abb0; stroke-linecap:round; stroke-linejoin:round; stroke-width:.5px;"/><path d="m425.661,188.542c7.721.012,16.374.02,25.914.02,10.533,0,19.812-.009,27.856-.024" style="fill:none; stroke:#a6abb0; stroke-linecap:round; stroke-linejoin:round; stroke-width:.5px;"/><path d="m428.815,194.782c6.902.009,14.498.015,22.76.015,8.521,0,16.221-.006,23.111-.016" style="fill:none; stroke:#a6abb0; stroke-linecap:round; stroke-linejoin:round; stroke-width:.5px;"/><path d="m492.803,188.303l.067-.265c.188-.741.953-1.34,1.709-1.34h9.415c.756,0,1.241.599,1.082,1.34l-1.371,6.442c-.165.771-.929,1.399-1.705,1.399h-5.418s-.456-.627-.456-.627l1.678-6.947-2.155-.014" style="fill:none; stroke:#a6abb0; stroke-linecap:round; stroke-linejoin:round; stroke-width:.5px;"/><path d="m494.115,194.272l.227.417-.226,1.191h-1.779c-.776,0-1.246-.628-1.051-1.399l.044-.174" style="fill:none; stroke:#a6abb0; stroke-linecap:round; stroke-linejoin:round; stroke-width:.5px;"/><path d="m502.096,193.82c-.056.264-.29.453-.56.453h-3.051s1.275-5.494,1.275-5.494c.064-.277.311-.473.595-.473h2.913s-1.173,5.514-1.173,5.514Z" style="fill:none; stroke:#a6abb0; stroke-linecap:round; stroke-linejoin:round; stroke-width:.5px;"/><path d="m489.268,194.314c1.78-.006,3.395-.013,4.847-.019l1.532-6.004c-1.452.006-3.067.013-4.847.019" style="fill:none; stroke:#a6abb0; stroke-linecap:round; stroke-linejoin:round; stroke-width:.5px;"/><path d="m410.258,188.356l.048-.4c.115-.695-.425-1.257-1.207-1.257h-8.905c-.782,0-1.507.562-1.622,1.257l-1.121,6.626c-.115.695.425,1.257,1.207,1.257l4.912-.013c.363,0,.682-.247.735-.568l1.002-6.905h3.152s-.628,5.647-.628,5.647c-.036.216-.251.383-.495.383h-1.283s-.236,1.431-.236,1.431h2.082c.782,0,1.507-.562,1.622-1.257l.02-.166" style="fill:none; stroke:#a6abb0; stroke-linecap:round; stroke-linejoin:round; stroke-width:.5px;"/><path d="m400.053,188.736c.036-.216.251-.383.495-.383h3.149s-.775,5.535-.775,5.535c-.036.216-.251.383-.495.383l-3.317.013.943-5.548Z" style="fill:none; stroke:#a6abb0; stroke-linecap:round; stroke-linejoin:round; stroke-width:.5px;"/><line x1="408.458" y1="188.353" x2="414.688" y2="188.363" style="fill:none; stroke:#a6abb0; stroke-linecap:round; stroke-linejoin:round; stroke-width:.5px;"/><path d="m406.706,194.383c2.464.007,4.928.013,7.392.019" style="fill:none; stroke:#a6abb0; stroke-linecap:round; stroke-linejoin:round; stroke-width:.5px;"/><path d="m472.024,63.856l-1.879-1.899c-.162-.164-.425-.173-.598-.021l-1.979,1.734" style="fill:none; stroke:#a6abb0; stroke-linecap:round; stroke-linejoin:round; stroke-width:.5px;"/><path d="m519.881,17.438c.056.237,6.073,32.483,8.9,70.212" style="fill:none; stroke:#a6abb0; stroke-linecap:round; stroke-linejoin:round; stroke-width:1.34px;"/><path d="m580.104,153.849h-2.013c-.618,0-1.228-.149-1.776-.434l-4.616-2.398c-.48-.249-.736-.788-.625-1.317l.277-1.329" style="fill:none; stroke:#a6abb0; stroke-linecap:round; stroke-linejoin:round; stroke-width:.5px;"/><path d="m572.178,234.977l-15.792-12.579c-.571-.455-.831-1.197-.669-1.909l.316-1.386" style="fill:none; stroke:#a6abb0; stroke-linecap:round; stroke-linejoin:round; stroke-width:.5px;"/><line x1="583.43" y1="277.334" x2="581.753" y2="285.27" style="fill:none; stroke:#a6abb0; stroke-linecap:round; stroke-linejoin:round; stroke-width:.5px;"/><path d="m576.323,262.996s-.26-.211-3.547-2.878c-3.309-2.685-4.968-4.26-12.043-3.464-1.411.159-2.753.409-3.935.679-2.737.626-4.914,2.701-5.674,5.405l-1.751,6.226" style="fill:none; stroke:#a6abb0; stroke-linecap:round; stroke-linejoin:round; stroke-width:.5px;"/><path d="m580.725,125.824s-19.739-.741-23.257-.926-4.691-.741-9.628-2.777c-4.937-2.037-10.429-4.382-10.429-4.382" style="fill:none; stroke:#a6abb0; stroke-linecap:round; stroke-linejoin:round; stroke-width:.5px;"/><path d="m327.089,160.475c0-.281-.127-.549-.349-.734s-.516-.269-.807-.232l-2.499.321c-.491.063-.863.455-.882.929l-.688,17.026c-.017.423.147.835.453,1.14s.73.478,1.173.478h2.558c.575,0,1.042.446,1.042.997" style="fill:none; stroke:#a6abb0; stroke-linecap:round; stroke-linejoin:round; stroke-width:.5px;"/><path d="m327.089,160.475c0-.281.127-.549.349-.734s.516-.269.807-.232l2.499.321c.491.063.863.455.882.929l.688,17.026c.017.423-.147.835-.453,1.14s-.73.478-1.173.478h-2.558c-.575,0-1.042.446-1.042.997" style="fill:none; stroke:#a6abb0; stroke-linecap:round; stroke-linejoin:round; stroke-width:.5px;"/><path d="m6.756,275.685l69.008-54.383c5.117-3.964,7.789-6.087,4.009-6.719" style="fill:none; stroke:#a6abb0; stroke-linecap:round; stroke-linejoin:round; stroke-width:.5px;"/><path d="m648.367,276.431l-69.955-55.128c-5.117-3.964-7.789-6.087-4.009-6.719" style="fill:none; stroke:#a6abb0; stroke-linecap:round; stroke-linejoin:round; stroke-width:.5px;"/><rect x="322.042" y="256.95" width="10.083" height="5.989" rx="1.145" ry="1.145" style="fill:none; stroke:#a6abb0; stroke-linecap:round; stroke-linejoin:round; stroke-width:.5px;"/><path d="m63.339,250.808l2.006-.367c.39-.071.692-.383.75-.776l.509-3.415c.094-.629-.459-1.163-1.084-1.049l-2.006.367c-.39.071-.692.383-.75.776l-.509,3.415c-.094.629.459,1.163,1.084,1.049Z" style="fill:none; stroke:#a6abb0; stroke-linecap:round; stroke-linejoin:round; stroke-width:.5px;"/><path d="m585.787,242.814c-.204-1.166,1.154-1.953,2.06-1.191,13.05,10.983,33.634,28.471,36.155,30.627,3.843,3.286,4.846,6.628,3.342,9.413s-5.124,7.909-6.684,9.915-3.788,2.785-6.294.724-19.326-17.355-21.721-19.583-2.674-5.013-3.119-8.132c-.301-2.106-2.404-14.16-3.739-21.773Z" style="fill:none; stroke:#a6abb0; stroke-linecap:round; stroke-linejoin:round; stroke-width:.5px;"/><path d="m620.66,291.578c-2.507-2.061-19.551-17.728-21.946-19.956s-2.674-5.013-3.119-8.132c-.253-1.771-1.781-10.58-3.054-17.865" style="fill:none; stroke:#a6abb0; stroke-linecap:round; stroke-linejoin:round; stroke-width:.5px;"/><line x1="614.552" y1="264.216" x2="615.278" y2="270.095" style="fill:none; stroke:#a6abb0; stroke-linecap:round; stroke-linejoin:round; stroke-width:.5px;"/><polyline points="627.607 280.292 615.278 270.095 597.423 270.113" style="fill:none; stroke:#a6abb0; stroke-linecap:round; stroke-linejoin:round; stroke-width:.5px;"/><path d="m641.077,278.876c-.759-.619-1.738-.903-2.711-.786s-1.857.624-2.448,1.405l-13.699,18.1c-.778,1.028-1.954,1.679-3.238,1.794s-2.557-.319-3.504-1.193l-38.597-36.919" style="fill:none; stroke:#a6abb0; stroke-linecap:round; stroke-linejoin:round; stroke-width:.5px;"/><path d="m590.957,250.808l-2.006-.367c-.39-.071-.692-.383-.75-.776l-.509-3.415c-.094-.629.459-1.163,1.084-1.049l2.006.367c.39.071.692.383.75.776l.509,3.415c.094.629-.459,1.163-1.084,1.049Z" style="fill:none; stroke:#a6abb0; stroke-linecap:round; stroke-linejoin:round; stroke-width:.5px;"/></g><g id="uuid-ef6d6990-4c14-40c1-991e-f2932c23004a"><path d="m287.241,265.492c-1.003,0-1.729.804-3.065,7.376s-1.391,8.517-2.95,20.214c-.375,2.813-.821,6.397-1.282,10.219" style="fill:none; stroke:#a6abb0; stroke-linecap:round; stroke-linejoin:round; stroke-width:.5px;"/><path d="m240.453,265.492c-1.448,0-3.119,4.308-5.124,12.217-.908,3.581-3.597,14.603-6.269,25.592" style="fill:none; stroke:#a6abb0; stroke-linecap:round; stroke-linejoin:round; stroke-width:.5px;"/><path d="m129.389,265.5c-1.45,0-5.239,2.294-9.918,10.983-2.143,3.979-8.187,15.499-14.11,26.818" style="fill:none; stroke:#a6abb0; stroke-linecap:round; stroke-linejoin:round; stroke-width:.5px;"/><path d="m587.941,292.949c-8.216-11.472-14.807-16.646-31.382-21.87-19.087-6.016-26.383-5.588-39.454-5.588-71.854,0-190.016,0-190.016,0h-190.016c-13.071,0-20.367-.428-39.454,5.588-16.575,5.224-23.166,10.398-31.382,21.87-.575.803-1.179,1.65-1.807,2.533" style="fill:none; stroke:#a6abb0; stroke-linecap:round; stroke-linejoin:round; stroke-width:2.01px;"/><path d="m366.936,265.492c1.003,0,1.729.804,3.065,7.376s1.391,8.517,2.95,20.214c.375,2.813.821,6.397,1.282,10.219" style="fill:none; stroke:#a6abb0; stroke-linecap:round; stroke-linejoin:round; stroke-width:.5px;"/><path d="m413.724,265.492c1.448,0,3.119,4.308,5.124,12.217.908,3.581,3.597,14.603,6.269,25.592" style="fill:none; stroke:#a6abb0; stroke-linecap:round; stroke-linejoin:round; stroke-width:.5px;"/><path d="m524.788,265.5c1.45,0,5.239,2.294,9.918,10.983,2.143,3.979,8.187,15.499,14.11,26.818" style="fill:none; stroke:#a6abb0; stroke-linecap:round; stroke-linejoin:round; stroke-width:.5px;"/></g><g id="uuid-71c7c507-a4a3-45a9-b1eb-008c6e4d34a9"><polyline points="174.794 321.043 174.794 52.119 182.811 52.119" style="fill:none; stroke:#f4f4f4; stroke-linecap:round; stroke-linejoin:round; stroke-width:4.02px;"/><polyline points="174.794 321.043 174.794 52.119 182.811 52.119" style="fill:none; stroke:#f4f4f4; stroke-linecap:round; stroke-linejoin:round; stroke-width:4.02px;"/><polyline points="174.794 321.043 174.794 52.119 182.811 52.119" style="fill:none; stroke:#f4f4f4; stroke-linecap:round; stroke-linejoin:round; stroke-width:4.02px;"/><path d="m171.556,325.38l3.236-3.029c.304-.277.56-.544.768-.8.208-.255.368-.496.48-.721.112-.226.169-.438.169-.638v-.117c0-.312-.119-.567-.357-.767s-.539-.299-.903-.299c-.52,0-.919.112-1.196.338s-.459.611-.546,1.157l-1.638-.521c.139-.832.507-1.476,1.104-1.931.599-.454,1.356-.682,2.275-.682.581,0,1.105.104,1.573.312s.838.512,1.111.91.409.871.409,1.417c0,.45-.089.882-.267,1.293-.178.412-.405.789-.682,1.132-.278.342-.594.674-.949.994l-2.002,1.794h3.965v1.625h-6.552v-1.469Z" style="fill:none; stroke:#f4f4f4; stroke-linecap:round; stroke-linejoin:round; stroke-width:4.02px;"/><circle cx="175.043" cy="322.374" r="8.275" style="fill:none; stroke:#f4f4f4; stroke-linecap:round; stroke-linejoin:round; stroke-width:4.02px;"/><path d="m175.043,314.082c-4.462,0-8.079,3.617-8.079,8.079v.425c0,4.462,3.617,8.079,8.079,8.079s8.079-3.617,8.079-8.079v-.425c0-4.462-3.617-8.079-8.079-8.079Z" style="fill:none; stroke:#f4f4f4; stroke-linecap:round; stroke-linejoin:round; stroke-width:4.02px;"/><path d="m171.556,325.38l3.236-3.029c.304-.277.56-.544.768-.8.208-.255.368-.496.48-.721.112-.226.169-.438.169-.638v-.117c0-.312-.119-.567-.357-.767s-.539-.299-.903-.299c-.52,0-.919.112-1.196.338s-.459.611-.546,1.157l-1.638-.521c.139-.832.507-1.476,1.104-1.931.599-.454,1.356-.682,2.275-.682.581,0,1.105.104,1.573.312s.838.512,1.111.91.409.871.409,1.417c0,.45-.089.882-.267,1.293-.178.412-.405.789-.682,1.132-.278.342-.594.674-.949.994l-2.002,1.794h3.965v1.625h-6.552v-1.469Z" style="fill:none; stroke:#f4f4f4; stroke-linecap:round; stroke-linejoin:round; stroke-width:4.02px;"/><polyline points="174.794 321.043 174.794 52.119 182.811 52.119" style="fill:none; stroke:#f4f4f4; stroke-linecap:round; stroke-miterlimit:10; stroke-width:4.02px;"/><polyline points="174.794 321.043 174.794 52.119 182.811 52.119" style="fill:none; stroke:#30373e; stroke-linecap:round; stroke-linejoin:round; stroke-width:1.34px;"/><circle cx="175.043" cy="322.374" r="8.275" style="fill:#30373e; stroke-width:0px;"/><path d="m175.043,314.082c-4.462,0-8.079,3.617-8.079,8.079v.425c0,4.462,3.617,8.079,8.079,8.079s8.079-3.617,8.079-8.079v-.425c0-4.462-3.617-8.079-8.079-8.079Z" style="fill:#30373e; stroke-width:0px;"/><path d="m171.556,325.38l3.236-3.029c.304-.277.56-.544.768-.8.208-.255.368-.496.48-.721.112-.226.169-.438.169-.638v-.117c0-.312-.119-.567-.357-.767s-.539-.299-.903-.299c-.52,0-.919.112-1.196.338s-.459.611-.546,1.157l-1.638-.521c.139-.832.507-1.476,1.104-1.931.599-.454,1.356-.682,2.275-.682.581,0,1.105.104,1.573.312s.838.512,1.111.91.409.871.409,1.417c0,.45-.089.882-.267,1.293-.178.412-.405.789-.682,1.132-.278.342-.594.674-.949.994l-2.002,1.794h3.965v1.625h-6.552v-1.469Z" style="fill:#f4f4f4; stroke-width:0px;"/><polyline points="480.053 321.043 480.053 52.119 471.366 52.119" style="fill:none; stroke:#f4f4f4; stroke-linecap:round; stroke-linejoin:round; stroke-width:4.02px;"/><polyline points="480.053 321.043 480.053 52.119 471.366 52.119" style="fill:none; stroke:#f4f4f4; stroke-linecap:round; stroke-linejoin:round; stroke-width:4.02px;"/><polyline points="480.053 321.043 480.053 52.119 471.366 52.119" style="fill:none; stroke:#f4f4f4; stroke-linecap:round; stroke-linejoin:round; stroke-width:4.02px;"/><path d="m476.817,325.38l3.236-3.029c.304-.277.56-.544.768-.8.208-.255.368-.496.48-.721.112-.226.169-.438.169-.638v-.117c0-.312-.119-.567-.357-.767s-.539-.299-.903-.299c-.52,0-.919.112-1.196.338s-.459.611-.546,1.157l-1.638-.521c.139-.832.507-1.476,1.104-1.931.599-.454,1.356-.682,2.275-.682.581,0,1.105.104,1.573.312s.838.512,1.111.91.409.871.409,1.417c0,.45-.089.882-.267,1.293-.178.412-.405.789-.682,1.132-.278.342-.594.674-.949.994l-2.002,1.794h3.965v1.625h-6.552v-1.469Z" style="fill:none; stroke:#f4f4f4; stroke-linecap:round; stroke-linejoin:round; stroke-width:4.02px;"/><circle cx="480.304" cy="322.374" r="8.275" style="fill:none; stroke:#f4f4f4; stroke-linecap:round; stroke-linejoin:round; stroke-width:4.02px;"/><path d="m480.304,314.082c-4.462,0-8.079,3.617-8.079,8.079v.425c0,4.462,3.617,8.079,8.079,8.079s8.079-3.617,8.079-8.079v-.425c0-4.462-3.617-8.079-8.079-8.079Z" style="fill:none; stroke:#f4f4f4; stroke-linecap:round; stroke-linejoin:round; stroke-width:4.02px;"/><path d="m476.817,325.38l3.236-3.029c.304-.277.56-.544.768-.8.208-.255.368-.496.48-.721.112-.226.169-.438.169-.638v-.117c0-.312-.119-.567-.357-.767s-.539-.299-.903-.299c-.52,0-.919.112-1.196.338s-.459.611-.546,1.157l-1.638-.521c.139-.832.507-1.476,1.104-1.931.599-.454,1.356-.682,2.275-.682.581,0,1.105.104,1.573.312s.838.512,1.111.91.409.871.409,1.417c0,.45-.089.882-.267,1.293-.178.412-.405.789-.682,1.132-.278.342-.594.674-.949.994l-2.002,1.794h3.965v1.625h-6.552v-1.469Z" style="fill:none; stroke:#f4f4f4; stroke-linecap:round; stroke-linejoin:round; stroke-width:4.02px;"/><polyline points="480.053 321.043 480.053 52.119 471.366 52.119" style="fill:none; stroke:#f4f4f4; stroke-linecap:round; stroke-miterlimit:10; stroke-width:4.02px;"/><polyline points="480.053 321.043 480.053 52.119 471.366 52.119" style="fill:none; stroke:#30373e; stroke-linecap:round; stroke-linejoin:round; stroke-width:1.34px;"/><circle cx="480.304" cy="322.374" r="8.275" style="fill:#30373e; stroke-width:0px;"/><path d="m480.304,314.082c-4.462,0-8.079,3.617-8.079,8.079v.425c0,4.462,3.617,8.079,8.079,8.079s8.079-3.617,8.079-8.079v-.425c0-4.462-3.617-8.079-8.079-8.079Z" style="fill:#30373e; stroke-width:0px;"/><path d="m476.817,325.38l3.236-3.029c.304-.277.56-.544.768-.8.208-.255.368-.496.48-.721.112-.226.169-.438.169-.638v-.117c0-.312-.119-.567-.357-.767s-.539-.299-.903-.299c-.52,0-.919.112-1.196.338s-.459.611-.546,1.157l-1.638-.521c.139-.832.507-1.476,1.104-1.931.599-.454,1.356-.682,2.275-.682.581,0,1.105.104,1.573.312s.838.512,1.111.91.409.871.409,1.417c0,.45-.089.882-.267,1.293-.178.412-.405.789-.682,1.132-.278.342-.594.674-.949.994l-2.002,1.794h3.965v1.625h-6.552v-1.469Z" style="fill:#f4f4f4; stroke-width:0px;"/><polyline points="318.818 321.044 318.818 268.199 325.179 261.838" style="fill:none; stroke:#f4f4f4; stroke-linecap:round; stroke-linejoin:round; stroke-width:4.02px;"/><polyline points="318.818 321.044 318.818 268.199 325.179 261.838" style="fill:none; stroke:#f4f4f4; stroke-linecap:round; stroke-linejoin:round; stroke-width:4.02px;"/><polyline points="318.818 321.044 318.818 268.199 325.179 261.838" style="fill:none; stroke:#f4f4f4; stroke-linecap:round; stroke-linejoin:round; stroke-width:4.02px;"/><path d="m318.11,320.188c-.199.134-.455.283-.767.448l-.819-1.326c.477-.26.906-.535,1.287-.825.382-.291.732-.613,1.053-.969h1.808v9.334h-1.846v-7.215c-.278.233-.517.418-.716.553Z" style="fill:none; stroke:#f4f4f4; stroke-linecap:round; stroke-linejoin:round; stroke-width:4.02px;"/><circle cx="319.069" cy="322.375" r="8.275" style="fill:none; stroke:#f4f4f4; stroke-linecap:round; stroke-linejoin:round; stroke-width:4.02px;"/><path d="m319.069,314.083c-3.934,0-7.124,3.189-7.124,7.124v2.337c0,3.934,3.189,7.124,7.124,7.124s7.124-3.189,7.124-7.124v-2.337c0-3.934-3.189-7.124-7.124-7.124Z" style="fill:none; stroke:#f4f4f4; stroke-linecap:round; stroke-linejoin:round; stroke-width:4.02px;"/><path d="m318.11,320.188c-.199.134-.455.283-.767.448l-.819-1.326c.477-.26.906-.535,1.287-.825.382-.291.732-.613,1.053-.969h1.808v9.334h-1.846v-7.215c-.278.233-.517.418-.716.553Z" style="fill:none; stroke:#f4f4f4; stroke-linecap:round; stroke-linejoin:round; stroke-width:4.02px;"/><polyline points="318.818 321.044 318.818 268.199 325.179 261.838" style="fill:none; stroke:#f4f4f4; stroke-linecap:round; stroke-miterlimit:10; stroke-width:4.02px;"/><polyline points="318.818 321.044 318.818 268.199 325.179 261.838" style="fill:none; stroke:#30373e; stroke-linecap:round; stroke-linejoin:round; stroke-width:1.34px;"/><circle cx="319.069" cy="322.375" r="8.275" style="fill:#30373e; stroke-width:0px;"/><path d="m319.069,314.083c-3.934,0-7.124,3.189-7.124,7.124v2.337c0,3.934,3.189,7.124,7.124,7.124s7.124-3.189,7.124-7.124v-2.337c0-3.934-3.189-7.124-7.124-7.124Z" style="fill:#30373e; stroke-width:0px;"/><path d="m318.11,320.188c-.199.134-.455.283-.767.448l-.819-1.326c.477-.26.906-.535,1.287-.825.382-.291.732-.613,1.053-.969h1.808v9.334h-1.846v-7.215c-.278.233-.517.418-.716.553Z" style="fill:#f4f4f4; stroke-width:0px;"/><polyline points="298.121 321.044 298.121 241.274 305.916 233.479" style="fill:none; stroke:#f4f4f4; stroke-linecap:round; stroke-linejoin:round; stroke-width:4.02px;"/><polyline points="298.121 321.044 298.121 241.274 305.916 233.479" style="fill:none; stroke:#f4f4f4; stroke-linecap:round; stroke-linejoin:round; stroke-width:4.02px;"/><polyline points="298.121 321.044 298.121 241.274 305.916 233.479" style="fill:none; stroke:#f4f4f4; stroke-linecap:round; stroke-linejoin:round; stroke-width:4.02px;"/><path d="m296.054,326.519c-.542-.316-1.008-.787-1.397-1.411l1.442-1.04c.243.442.51.759.8.949s.652.286,1.086.286c.468,0,.87-.093,1.209-.279.338-.187.507-.475.507-.865v-.155c0-.442-.149-.757-.449-.942-.299-.187-.804-.28-1.514-.28h-.65v-1.56h.624c.528,0,.96-.078,1.294-.234.333-.155.5-.45.5-.884v-.143c0-.312-.146-.544-.436-.696-.29-.151-.626-.228-1.008-.228-.363,0-.69.094-.981.28-.29.187-.53.461-.721.825l-1.365-.819c.312-.667.728-1.158,1.248-1.476.52-.315,1.152-.474,1.897-.474.91,0,1.653.216,2.229.649s.865,1.079.865,1.938c0,.45-.092.838-.273,1.163s-.438.592-.767.8c.416.217.729.494.942.832.212.338.318.754.318,1.248,0,.642-.158,1.188-.475,1.638-.316.451-.739.789-1.268,1.014-.528.226-1.109.338-1.742.338-.736,0-1.376-.157-1.917-.474Z" style="fill:none; stroke:#f4f4f4; stroke-linecap:round; stroke-linejoin:round; stroke-width:4.02px;"/><circle cx="298.371" cy="322.375" r="8.275" style="fill:none; stroke:#f4f4f4; stroke-linecap:round; stroke-linejoin:round; stroke-width:4.02px;"/><path d="m298.371,314.083c-4.451,0-8.059,3.608-8.059,8.059v.465c0,4.451,3.608,8.059,8.059,8.059s8.059-3.608,8.059-8.059v-.465c0-4.451-3.608-8.059-8.059-8.059Z" style="fill:none; stroke:#f4f4f4; stroke-linecap:round; stroke-linejoin:round; stroke-width:4.02px;"/><path d="m296.054,326.519c-.542-.316-1.008-.787-1.397-1.411l1.442-1.04c.243.442.51.759.8.949s.652.286,1.086.286c.468,0,.87-.093,1.209-.279.338-.187.507-.475.507-.865v-.155c0-.442-.149-.757-.449-.942-.299-.187-.804-.28-1.514-.28h-.65v-1.56h.624c.528,0,.96-.078,1.294-.234.333-.155.5-.45.5-.884v-.143c0-.312-.146-.544-.436-.696-.29-.151-.626-.228-1.008-.228-.363,0-.69.094-.981.28-.29.187-.53.461-.721.825l-1.365-.819c.312-.667.728-1.158,1.248-1.476.52-.315,1.152-.474,1.897-.474.91,0,1.653.216,2.229.649s.865,1.079.865,1.938c0,.45-.092.838-.273,1.163s-.438.592-.767.8c.416.217.729.494.942.832.212.338.318.754.318,1.248,0,.642-.158,1.188-.475,1.638-.316.451-.739.789-1.268,1.014-.528.226-1.109.338-1.742.338-.736,0-1.376-.157-1.917-.474Z" style="fill:none; stroke:#f4f4f4; stroke-linecap:round; stroke-linejoin:round; stroke-width:4.02px;"/><polyline points="298.121 321.044 298.121 241.274 305.916 233.479" style="fill:none; stroke:#f4f4f4; stroke-linecap:round; stroke-miterlimit:10; stroke-width:4.02px;"/><polyline points="298.121 321.044 298.121 241.274 305.916 233.479" style="fill:none; stroke:#30373e; stroke-linecap:round; stroke-linejoin:round; stroke-width:1.34px;"/><circle cx="298.371" cy="322.375" r="8.275" style="fill:#30373e; stroke-width:0px;"/><path d="m298.371,314.083c-4.451,0-8.059,3.608-8.059,8.059v.465c0,4.451,3.608,8.059,8.059,8.059s8.059-3.608,8.059-8.059v-.465c0-4.451-3.608-8.059-8.059-8.059Z" style="fill:#30373e; stroke-width:0px;"/><path d="m296.054,326.519c-.542-.316-1.008-.787-1.397-1.411l1.442-1.04c.243.442.51.759.8.949s.652.286,1.086.286c.468,0,.87-.093,1.209-.279.338-.187.507-.475.507-.865v-.155c0-.442-.149-.757-.449-.942-.299-.187-.804-.28-1.514-.28h-.65v-1.56h.624c.528,0,.96-.078,1.294-.234.333-.155.5-.45.5-.884v-.143c0-.312-.146-.544-.436-.696-.29-.151-.626-.228-1.008-.228-.363,0-.69.094-.981.28-.29.187-.53.461-.721.825l-1.365-.819c.312-.667.728-1.158,1.248-1.476.52-.315,1.152-.474,1.897-.474.91,0,1.653.216,2.229.649s.865,1.079.865,1.938c0,.45-.092.838-.273,1.163s-.438.592-.767.8c.416.217.729.494.942.832.212.338.318.754.318,1.248,0,.642-.158,1.188-.475,1.638-.316.451-.739.789-1.268,1.014-.528.226-1.109.338-1.742.338-.736,0-1.376-.157-1.917-.474Z" style="fill:#f4f4f4; stroke-width:0px;"/><polyline points="272.673 321.044 272.673 206.625 300.373 178.925" style="fill:none; stroke:#f4f4f4; stroke-linecap:round; stroke-linejoin:round; stroke-width:4.02px;"/><polyline points="272.673 321.044 272.673 206.625 300.373 178.925" style="fill:none; stroke:#f4f4f4; stroke-linecap:round; stroke-linejoin:round; stroke-width:4.02px;"/><polyline points="272.673 321.044 272.673 206.625 300.373 178.925" style="fill:none; stroke:#f4f4f4; stroke-linecap:round; stroke-linejoin:round; stroke-width:4.02px;"/><path d="m269.209,325.095l1.442-1.027c.286.442.576.759.871.949s.646.286,1.053.286c.512,0,.908-.128,1.189-.384.282-.255.423-.63.423-1.124v-.144c0-.468-.135-.81-.403-1.026s-.654-.325-1.156-.325c-.277,0-.529.032-.754.098-.226.064-.478.18-.755.344l-1.286-.338.649-4.875h5.109v1.703h-3.602l-.208,1.573c.174-.052.35-.091.527-.117.177-.026.365-.039.565-.039.649,0,1.211.128,1.684.384.472.256.834.611,1.085,1.065.251.455.377.978.377,1.567,0,.667-.154,1.252-.461,1.755-.309.502-.73.891-1.268,1.163-.538.273-1.14.409-1.808.409-1.369,0-2.461-.632-3.275-1.897Z" style="fill:none; stroke:#f4f4f4; stroke-linecap:round; stroke-linejoin:round; stroke-width:4.02px;"/><circle cx="272.923" cy="322.375" r="8.275" style="fill:none; stroke:#f4f4f4; stroke-linecap:round; stroke-linejoin:round; stroke-width:4.02px;"/><path d="m272.923,314.083c-4.473,0-8.098,3.626-8.098,8.098v.387c0,4.473,3.626,8.098,8.098,8.098s8.098-3.626,8.098-8.098v-.387c0-4.473-3.626-8.098-8.098-8.098Z" style="fill:none; stroke:#f4f4f4; stroke-linecap:round; stroke-linejoin:round; stroke-width:4.02px;"/><path d="m269.209,325.095l1.442-1.027c.286.442.576.759.871.949s.646.286,1.053.286c.512,0,.908-.128,1.189-.384.282-.255.423-.63.423-1.124v-.144c0-.468-.135-.81-.403-1.026s-.654-.325-1.156-.325c-.277,0-.529.032-.754.098-.226.064-.478.18-.755.344l-1.286-.338.649-4.875h5.109v1.703h-3.602l-.208,1.573c.174-.052.35-.091.527-.117.177-.026.365-.039.565-.039.649,0,1.211.128,1.684.384.472.256.834.611,1.085,1.065.251.455.377.978.377,1.567,0,.667-.154,1.252-.461,1.755-.309.502-.73.891-1.268,1.163-.538.273-1.14.409-1.808.409-1.369,0-2.461-.632-3.275-1.897Z" style="fill:none; stroke:#f4f4f4; stroke-linecap:round; stroke-linejoin:round; stroke-width:4.02px;"/><polyline points="272.673 321.044 272.673 206.625 300.373 178.925" style="fill:none; stroke:#f4f4f4; stroke-linecap:round; stroke-miterlimit:10; stroke-width:4.02px;"/><polyline points="272.673 321.044 272.673 206.625 300.373 178.925" style="fill:none; stroke:#30373e; stroke-linecap:round; stroke-linejoin:round; stroke-width:1.34px;"/><circle cx="272.923" cy="322.375" r="8.275" style="fill:#30373e; stroke-width:0px;"/><path d="m272.923,314.083c-4.473,0-8.098,3.626-8.098,8.098v.387c0,4.473,3.626,8.098,8.098,8.098s8.098-3.626,8.098-8.098v-.387c0-4.473-3.626-8.098-8.098-8.098Z" style="fill:#30373e; stroke-width:0px;"/><path d="m269.209,325.095l1.442-1.027c.286.442.576.759.871.949s.646.286,1.053.286c.512,0,.908-.128,1.189-.384.282-.255.423-.63.423-1.124v-.144c0-.468-.135-.81-.403-1.026s-.654-.325-1.156-.325c-.277,0-.529.032-.754.098-.226.064-.478.18-.755.344l-1.286-.338.649-4.875h5.109v1.703h-3.602l-.208,1.573c.174-.052.35-.091.527-.117.177-.026.365-.039.565-.039.649,0,1.211.128,1.684.384.472.256.834.611,1.085,1.065.251.455.377.978.377,1.567,0,.667-.154,1.252-.461,1.755-.309.502-.73.891-1.268,1.163-.538.273-1.14.409-1.808.409-1.369,0-2.461-.632-3.275-1.897Z" style="fill:#f4f4f4; stroke-width:0px;"/><polyline points="366.448 321.044 366.447 234.138 344.291 211.982" style="fill:none; stroke:#f4f4f4; stroke-linecap:round; stroke-linejoin:round; stroke-width:4.02px;"/><polyline points="366.448 321.044 366.447 234.138 344.291 211.982" style="fill:none; stroke:#f4f4f4; stroke-linecap:round; stroke-linejoin:round; stroke-width:4.02px;"/><polyline points="366.448 321.044 366.447 234.138 344.291 211.982" style="fill:none; stroke:#f4f4f4; stroke-linecap:round; stroke-linejoin:round; stroke-width:4.02px;"/><path d="m367.115,324.77h-4.342v-1.339l4.251-5.915h1.82v5.668h1.273v1.586h-1.273v2.08h-1.729v-2.08Zm0-1.586v-3.159l-2.274,3.159h2.274Z" style="fill:none; stroke:#f4f4f4; stroke-linecap:round; stroke-linejoin:round; stroke-width:4.02px;"/><circle cx="366.696" cy="322.375" r="8.275" style="fill:none; stroke:#f4f4f4; stroke-linecap:round; stroke-linejoin:round; stroke-width:4.02px;"/><path d="m366.696,314.083c-4.53,0-8.202,3.672-8.202,8.202v.179c0,4.53,3.672,8.202,8.202,8.202s8.202-3.672,8.202-8.202v-.179c0-4.53-3.672-8.202-8.202-8.202Z" style="fill:none; stroke:#f4f4f4; stroke-linecap:round; stroke-linejoin:round; stroke-width:4.02px;"/><path d="m367.115,324.77h-4.342v-1.339l4.251-5.915h1.82v5.668h1.273v1.586h-1.273v2.08h-1.729v-2.08Zm0-1.586v-3.159l-2.274,3.159h2.274Z" style="fill:none; stroke:#f4f4f4; stroke-linecap:round; stroke-linejoin:round; stroke-width:4.02px;"/><polyline points="366.448 321.044 366.447 234.138 344.291 211.982" style="fill:none; stroke:#f4f4f4; stroke-linecap:round; stroke-miterlimit:10; stroke-width:4.02px;"/><polyline points="366.448 321.044 366.447 234.138 344.291 211.982" style="fill:none; stroke:#30373e; stroke-linecap:round; stroke-linejoin:round; stroke-width:1.34px;"/><circle cx="366.696" cy="322.375" r="8.275" style="fill:#30373e; stroke-width:0px;"/><path d="m366.696,314.083c-4.53,0-8.202,3.672-8.202,8.202v.179c0,4.53,3.672,8.202,8.202,8.202s8.202-3.672,8.202-8.202v-.179c0-4.53-3.672-8.202-8.202-8.202Z" style="fill:#30373e; stroke-width:0px;"/><path d="m367.115,324.77h-4.342v-1.339l4.251-5.915h1.82v5.668h1.273v1.586h-1.273v2.08h-1.729v-2.08Zm0-1.586v-3.159l-2.274,3.159h2.274Z" style="fill:#f4f4f4; stroke-width:0px;"/><line x1="339.711" y1="321.044" x2="339.711" y2="243.205" style="fill:none; stroke:#f4f4f4; stroke-linecap:round; stroke-linejoin:round; stroke-width:4.02px;"/><line x1="339.711" y1="321.044" x2="339.711" y2="243.205" style="fill:none; stroke:#f4f4f4; stroke-linecap:round; stroke-linejoin:round; stroke-width:4.02px;"/><line x1="339.711" y1="321.044" x2="339.711" y2="243.205" style="fill:none; stroke:#f4f4f4; stroke-linecap:round; stroke-linejoin:round; stroke-width:4.02px;"/><path d="m336.473,325.381l3.236-3.029c.304-.277.56-.544.768-.8.208-.255.368-.496.48-.721.112-.226.169-.438.169-.638v-.117c0-.312-.119-.567-.357-.767s-.539-.299-.903-.299c-.52,0-.919.112-1.196.338s-.459.611-.546,1.157l-1.638-.521c.139-.832.507-1.476,1.104-1.931.599-.454,1.356-.682,2.275-.682.581,0,1.105.104,1.573.312s.838.512,1.111.91.409.871.409,1.417c0,.45-.089.882-.267,1.293-.178.412-.405.789-.682,1.132-.278.342-.594.674-.949.994l-2.002,1.794h3.965v1.625h-6.552v-1.469Z" style="fill:none; stroke:#f4f4f4; stroke-linecap:round; stroke-linejoin:round; stroke-width:4.02px;"/><circle cx="339.96" cy="322.375" r="8.275" style="fill:none; stroke:#f4f4f4; stroke-linecap:round; stroke-linejoin:round; stroke-width:4.02px;"/><path d="m339.96,314.083c-4.462,0-8.079,3.617-8.079,8.079v.425c0,4.462,3.617,8.079,8.079,8.079s8.079-3.617,8.079-8.079v-.425c0-4.462-3.617-8.079-8.079-8.079Z" style="fill:none; stroke:#f4f4f4; stroke-linecap:round; stroke-linejoin:round; stroke-width:4.02px;"/><path d="m336.473,325.381l3.236-3.029c.304-.277.56-.544.768-.8.208-.255.368-.496.48-.721.112-.226.169-.438.169-.638v-.117c0-.312-.119-.567-.357-.767s-.539-.299-.903-.299c-.52,0-.919.112-1.196.338s-.459.611-.546,1.157l-1.638-.521c.139-.832.507-1.476,1.104-1.931.599-.454,1.356-.682,2.275-.682.581,0,1.105.104,1.573.312s.838.512,1.111.91.409.871.409,1.417c0,.45-.089.882-.267,1.293-.178.412-.405.789-.682,1.132-.278.342-.594.674-.949.994l-2.002,1.794h3.965v1.625h-6.552v-1.469Z" style="fill:none; stroke:#f4f4f4; stroke-linecap:round; stroke-linejoin:round; stroke-width:4.02px;"/><polyline points="314.729 243.205 314.729 252.421 339.711 252.421" style="fill:none; stroke:#f4f4f4; stroke-linecap:round; stroke-linejoin:round; stroke-width:4.02px;"/><line x1="339.711" y1="321.044" x2="339.711" y2="243.205" style="fill:none; stroke:#f4f4f4; stroke-linecap:round; stroke-miterlimit:10; stroke-width:4.02px;"/><line x1="339.711" y1="321.044" x2="339.711" y2="243.205" style="fill:none; stroke:#30373e; stroke-linecap:round; stroke-linejoin:round; stroke-width:1.34px;"/><circle cx="339.96" cy="322.375" r="8.275" style="fill:#30373e; stroke-width:0px;"/><path d="m339.96,314.083c-4.462,0-8.079,3.617-8.079,8.079v.425c0,4.462,3.617,8.079,8.079,8.079s8.079-3.617,8.079-8.079v-.425c0-4.462-3.617-8.079-8.079-8.079Z" style="fill:#30373e; stroke-width:0px;"/><path d="m336.473,325.381l3.236-3.029c.304-.277.56-.544.768-.8.208-.255.368-.496.48-.721.112-.226.169-.438.169-.638v-.117c0-.312-.119-.567-.357-.767s-.539-.299-.903-.299c-.52,0-.919.112-1.196.338s-.459.611-.546,1.157l-1.638-.521c.139-.832.507-1.476,1.104-1.931.599-.454,1.356-.682,2.275-.682.581,0,1.105.104,1.573.312s.838.512,1.111.91.409.871.409,1.417c0,.45-.089.882-.267,1.293-.178.412-.405.789-.682,1.132-.278.342-.594.674-.949.994l-2.002,1.794h3.965v1.625h-6.552v-1.469Z" style="fill:#f4f4f4; stroke-width:0px;"/><polyline points="314.729 243.205 314.729 252.421 339.711 252.421" style="fill:none; stroke:#30373e; stroke-linecap:round; stroke-linejoin:round; stroke-width:1.34px;"/><polyline points="74.544 321.438 74.544 258.206 67.774 251.436" style="fill:none; stroke:#f4f4f4; stroke-linecap:round; stroke-linejoin:round; stroke-width:4.02px;"/><polyline points="74.544 321.438 74.544 258.206 67.774 251.436" style="fill:none; stroke:#f4f4f4; stroke-linecap:round; stroke-linejoin:round; stroke-width:4.02px;"/><polyline points="74.544 321.438 74.544 258.206 67.774 251.436" style="fill:none; stroke:#f4f4f4; stroke-linecap:round; stroke-linejoin:round; stroke-width:4.02px;"/><path d="m72.823,326.583c-.507-.265-.898-.642-1.176-1.131s-.416-1.06-.416-1.71c0-.441.071-.879.214-1.312.144-.434.384-.944.722-1.534.528-.91,1.36-2.036,2.496-3.38h2.262l-.715.871c-.364.441-.711.862-1.04,1.261s-.598.75-.806,1.053c.173-.034.372-.052.598-.052.599,0,1.131.135,1.6.403.468.269.829.642,1.085,1.118s.384,1.014.384,1.611c0,.65-.147,1.218-.442,1.703s-.704.856-1.229,1.111c-.524.256-1.12.384-1.787.384-.659,0-1.241-.132-1.749-.396Zm2.965-1.632c.299-.251.448-.61.448-1.078v-.183c0-.477-.146-.838-.436-1.085-.291-.247-.679-.371-1.164-.371s-.886.122-1.202.364c-.316.243-.475.606-.475,1.092v.183c0,.477.146.838.436,1.085s.687.37,1.189.37.903-.125,1.203-.377Z" style="fill:none; stroke:#f4f4f4; stroke-linecap:round; stroke-linejoin:round; stroke-width:4.02px;"/><circle cx="74.854" cy="322.375" r="8.275" style="fill:none; stroke:#f4f4f4; stroke-linecap:round; stroke-linejoin:round; stroke-width:4.02px;"/><path d="m74.854,314.083c-4.516,0-8.176,3.661-8.176,8.176v.231c0,4.516,3.661,8.176,8.176,8.176s8.176-3.661,8.176-8.176v-.231c0-4.516-3.661-8.176-8.176-8.176Z" style="fill:none; stroke:#f4f4f4; stroke-linecap:round; stroke-linejoin:round; stroke-width:4.02px;"/><path d="m72.823,326.583c-.507-.265-.898-.642-1.176-1.131s-.416-1.06-.416-1.71c0-.441.071-.879.214-1.312.144-.434.384-.944.722-1.534.528-.91,1.36-2.036,2.496-3.38h2.262l-.715.871c-.364.441-.711.862-1.04,1.261s-.598.75-.806,1.053c.173-.034.372-.052.598-.052.599,0,1.131.135,1.6.403.468.269.829.642,1.085,1.118s.384,1.014.384,1.611c0,.65-.147,1.218-.442,1.703s-.704.856-1.229,1.111c-.524.256-1.12.384-1.787.384-.659,0-1.241-.132-1.749-.396Zm2.965-1.632c.299-.251.448-.61.448-1.078v-.183c0-.477-.146-.838-.436-1.085-.291-.247-.679-.371-1.164-.371s-.886.122-1.202.364c-.316.243-.475.606-.475,1.092v.183c0,.477.146.838.436,1.085s.687.37,1.189.37.903-.125,1.203-.377Z" style="fill:none; stroke:#f4f4f4; stroke-linecap:round; stroke-linejoin:round; stroke-width:4.02px;"/><polyline points="74.544 321.438 74.544 258.206 67.774 251.436" style="fill:none; stroke:#f4f4f4; stroke-linecap:round; stroke-miterlimit:10; stroke-width:4.02px;"/><polyline points="74.544 321.438 74.544 258.206 67.774 251.436" style="fill:none; stroke:#30373e; stroke-linecap:round; stroke-linejoin:round; stroke-width:1.34px;"/><circle cx="74.854" cy="322.375" r="8.275" style="fill:#30373e; stroke-width:0px;"/><path d="m74.854,314.083c-4.516,0-8.176,3.661-8.176,8.176v.231c0,4.516,3.661,8.176,8.176,8.176s8.176-3.661,8.176-8.176v-.231c0-4.516-3.661-8.176-8.176-8.176Z" style="fill:#30373e; stroke-width:0px;"/><path d="m72.823,326.583c-.507-.265-.898-.642-1.176-1.131s-.416-1.06-.416-1.71c0-.441.071-.879.214-1.312.144-.434.384-.944.722-1.534.528-.91,1.36-2.036,2.496-3.38h2.262l-.715.871c-.364.441-.711.862-1.04,1.261s-.598.75-.806,1.053c.173-.034.372-.052.598-.052.599,0,1.131.135,1.6.403.468.269.829.642,1.085,1.118s.384,1.014.384,1.611c0,.65-.147,1.218-.442,1.703s-.704.856-1.229,1.111c-.524.256-1.12.384-1.787.384-.659,0-1.241-.132-1.749-.396Zm2.965-1.632c.299-.251.448-.61.448-1.078v-.183c0-.477-.146-.838-.436-1.085-.291-.247-.679-.371-1.164-.371s-.886.122-1.202.364c-.316.243-.475.606-.475,1.092v.183c0,.477.146.838.436,1.085s.687.37,1.189.37.903-.125,1.203-.377Z" style="fill:#f4f4f4; stroke-width:0px;"/><polyline points="579.752 321.438 579.752 258.206 586.523 251.436" style="fill:none; stroke:#f4f4f4; stroke-linecap:round; stroke-linejoin:round; stroke-width:4.02px;"/><polyline points="579.752 321.438 579.752 258.206 586.523 251.436" style="fill:none; stroke:#f4f4f4; stroke-linecap:round; stroke-linejoin:round; stroke-width:4.02px;"/><polyline points="579.752 321.438 579.752 258.206 586.523 251.436" style="fill:none; stroke:#f4f4f4; stroke-linecap:round; stroke-linejoin:round; stroke-width:4.02px;"/><path d="m577.911,326.583c-.507-.265-.898-.642-1.176-1.131s-.416-1.06-.416-1.71c0-.441.071-.879.214-1.312.144-.434.384-.944.722-1.534.528-.91,1.36-2.036,2.496-3.38h2.262l-.715.871c-.364.441-.711.862-1.04,1.261s-.598.75-.806,1.053c.173-.034.372-.052.598-.052.599,0,1.131.135,1.6.403.468.269.829.642,1.085,1.118s.384,1.014.384,1.611c0,.65-.147,1.218-.442,1.703s-.704.856-1.229,1.111c-.524.256-1.12.384-1.787.384-.659,0-1.241-.132-1.749-.396Zm2.965-1.632c.299-.251.448-.61.448-1.078v-.183c0-.477-.146-.838-.436-1.085-.291-.247-.679-.371-1.164-.371s-.886.122-1.202.364c-.316.243-.475.606-.475,1.092v.183c0,.477.146.838.436,1.085s.687.37,1.189.37.903-.125,1.203-.377Z" style="fill:none; stroke:#f4f4f4; stroke-linecap:round; stroke-linejoin:round; stroke-width:4.02px;"/><circle cx="579.942" cy="322.375" r="8.275" style="fill:none; stroke:#f4f4f4; stroke-linecap:round; stroke-linejoin:round; stroke-width:4.02px;"/><path d="m579.942,314.083c-4.516,0-8.176,3.661-8.176,8.176v.231c0,4.516,3.661,8.176,8.176,8.176s8.176-3.661,8.176-8.176v-.231c0-4.516-3.661-8.176-8.176-8.176Z" style="fill:none; stroke:#f4f4f4; stroke-linecap:round; stroke-linejoin:round; stroke-width:4.02px;"/><path d="m577.911,326.583c-.507-.265-.898-.642-1.176-1.131s-.416-1.06-.416-1.71c0-.441.071-.879.214-1.312.144-.434.384-.944.722-1.534.528-.91,1.36-2.036,2.496-3.38h2.262l-.715.871c-.364.441-.711.862-1.04,1.261s-.598.75-.806,1.053c.173-.034.372-.052.598-.052.599,0,1.131.135,1.6.403.468.269.829.642,1.085,1.118s.384,1.014.384,1.611c0,.65-.147,1.218-.442,1.703s-.704.856-1.229,1.111c-.524.256-1.12.384-1.787.384-.659,0-1.241-.132-1.749-.396Zm2.965-1.632c.299-.251.448-.61.448-1.078v-.183c0-.477-.146-.838-.436-1.085-.291-.247-.679-.371-1.164-.371s-.886.122-1.202.364c-.316.243-.475.606-.475,1.092v.183c0,.477.146.838.436,1.085s.687.37,1.189.37.903-.125,1.203-.377Z" style="fill:none; stroke:#f4f4f4; stroke-linecap:round; stroke-linejoin:round; stroke-width:4.02px;"/><polyline points="579.752 321.438 579.752 258.206 586.523 251.436" style="fill:none; stroke:#f4f4f4; stroke-linecap:round; stroke-miterlimit:10; stroke-width:4.02px;"/><polyline points="579.752 321.438 579.752 258.206 586.523 251.436" style="fill:none; stroke:#30373e; stroke-linecap:round; stroke-linejoin:round; stroke-width:1.34px;"/><circle cx="579.942" cy="322.375" r="8.275" style="fill:#30373e; stroke-width:0px;"/><path d="m579.942,314.083c-4.516,0-8.176,3.661-8.176,8.176v.231c0,4.516,3.661,8.176,8.176,8.176s8.176-3.661,8.176-8.176v-.231c0-4.516-3.661-8.176-8.176-8.176Z" style="fill:#30373e; stroke-width:0px;"/><path d="m577.911,326.583c-.507-.265-.898-.642-1.176-1.131s-.416-1.06-.416-1.71c0-.441.071-.879.214-1.312.144-.434.384-.944.722-1.534.528-.91,1.36-2.036,2.496-3.38h2.262l-.715.871c-.364.441-.711.862-1.04,1.261s-.598.75-.806,1.053c.173-.034.372-.052.598-.052.599,0,1.131.135,1.6.403.468.269.829.642,1.085,1.118s.384,1.014.384,1.611c0,.65-.147,1.218-.442,1.703s-.704.856-1.229,1.111c-.524.256-1.12.384-1.787.384-.659,0-1.241-.132-1.749-.396Zm2.965-1.632c.299-.251.448-.61.448-1.078v-.183c0-.477-.146-.838-.436-1.085-.291-.247-.679-.371-1.164-.371s-.886.122-1.202.364c-.316.243-.475.606-.475,1.092v.183c0,.477.146.838.436,1.085s.687.37,1.189.37.903-.125,1.203-.377Z" style="fill:#f4f4f4; stroke-width:0px;"/><line x1="55.986" y1="321.438" x2="55.986" y2="230.945" style="fill:none; stroke:#f4f4f4; stroke-linecap:round; stroke-linejoin:round; stroke-width:4.02px;"/><line x1="55.986" y1="321.438" x2="55.986" y2="230.945" style="fill:none; stroke:#f4f4f4; stroke-linecap:round; stroke-linejoin:round; stroke-width:4.02px;"/><line x1="55.986" y1="321.438" x2="55.986" y2="230.945" style="fill:none; stroke:#f4f4f4; stroke-linecap:round; stroke-linejoin:round; stroke-width:4.02px;"/><path d="m57.189,319.128h-4.329v-1.612h6.37v1.274l-3.744,8.06h-1.95l3.653-7.722Z" style="fill:none; stroke:#f4f4f4; stroke-linecap:round; stroke-linejoin:round; stroke-width:4.02px;"/><circle cx="56.295" cy="322.375" r="8.275" style="fill:none; stroke:#f4f4f4; stroke-linecap:round; stroke-linejoin:round; stroke-width:4.02px;"/><path d="m56.295,314.083c-4.261,0-7.715,3.454-7.715,7.715v1.154c0,4.261,3.454,7.715,7.715,7.715s7.715-3.454,7.715-7.715v-1.154c0-4.261-3.454-7.715-7.715-7.715Z" style="fill:none; stroke:#f4f4f4; stroke-linecap:round; stroke-linejoin:round; stroke-width:4.02px;"/><path d="m57.189,319.128h-4.329v-1.612h6.37v1.274l-3.744,8.06h-1.95l3.653-7.722Z" style="fill:none; stroke:#f4f4f4; stroke-linecap:round; stroke-linejoin:round; stroke-width:4.02px;"/><line x1="55.986" y1="321.438" x2="55.986" y2="230.945" style="fill:none; stroke:#f4f4f4; stroke-linecap:round; stroke-miterlimit:10; stroke-width:4.02px;"/><line x1="55.986" y1="321.438" x2="55.986" y2="230.945" style="fill:none; stroke:#30373e; stroke-linecap:round; stroke-linejoin:round; stroke-width:1.34px;"/><circle cx="56.295" cy="322.375" r="8.275" style="fill:#30373e; stroke-width:0px;"/><path d="m56.295,314.083c-4.261,0-7.715,3.454-7.715,7.715v1.154c0,4.261,3.454,7.715,7.715,7.715s7.715-3.454,7.715-7.715v-1.154c0-4.261-3.454-7.715-7.715-7.715Z" style="fill:#30373e; stroke-width:0px;"/><path d="m57.189,319.128h-4.329v-1.612h6.37v1.274l-3.744,8.06h-1.95l3.653-7.722Z" style="fill:#f4f4f4; stroke-width:0px;"/><line x1="598.191" y1="321.438" x2="598.191" y2="230.945" style="fill:none; stroke:#f4f4f4; stroke-linecap:round; stroke-linejoin:round; stroke-width:4.02px;"/><line x1="598.191" y1="321.438" x2="598.191" y2="230.945" style="fill:none; stroke:#f4f4f4; stroke-linecap:round; stroke-linejoin:round; stroke-width:4.02px;"/><line x1="598.191" y1="321.438" x2="598.191" y2="230.945" style="fill:none; stroke:#f4f4f4; stroke-linecap:round; stroke-linejoin:round; stroke-width:4.02px;"/><path d="m599.274,319.128h-4.329v-1.612h6.37v1.274l-3.744,8.06h-1.95l3.653-7.722Z" style="fill:none; stroke:#f4f4f4; stroke-linecap:round; stroke-linejoin:round; stroke-width:4.02px;"/><circle cx="598.38" cy="322.375" r="8.275" style="fill:none; stroke:#f4f4f4; stroke-linecap:round; stroke-linejoin:round; stroke-width:4.02px;"/><path d="m598.38,314.083c-4.261,0-7.715,3.454-7.715,7.715v1.154c0,4.261,3.454,7.715,7.715,7.715s7.715-3.454,7.715-7.715v-1.154c0-4.261-3.454-7.715-7.715-7.715Z" style="fill:none; stroke:#f4f4f4; stroke-linecap:round; stroke-linejoin:round; stroke-width:4.02px;"/><path d="m599.274,319.128h-4.329v-1.612h6.37v1.274l-3.744,8.06h-1.95l3.653-7.722Z" style="fill:none; stroke:#f4f4f4; stroke-linecap:round; stroke-linejoin:round; stroke-width:4.02px;"/><line x1="598.191" y1="321.438" x2="598.191" y2="230.945" style="fill:none; stroke:#f4f4f4; stroke-linecap:round; stroke-miterlimit:10; stroke-width:4.02px;"/><line x1="598.191" y1="321.438" x2="598.191" y2="230.945" style="fill:none; stroke:#30373e; stroke-linecap:round; stroke-linejoin:round; stroke-width:1.34px;"/><circle cx="598.38" cy="322.375" r="8.275" style="fill:#30373e; stroke-width:0px;"/><path d="m598.38,314.083c-4.261,0-7.715,3.454-7.715,7.715v1.154c0,4.261,3.454,7.715,7.715,7.715s7.715-3.454,7.715-7.715v-1.154c0-4.261-3.454-7.715-7.715-7.715Z" style="fill:#30373e; stroke-width:0px;"/><path d="m599.274,319.128h-4.329v-1.612h6.37v1.274l-3.744,8.06h-1.95l3.653-7.722Z" style="fill:#f4f4f4; stroke-width:0px;"/></g></svg>