<svg xmlns="http://www.w3.org/2000/svg" xmlns:xlink="http://www.w3.org/1999/xlink" width="654" height="186.906" viewBox="0 0 654 186.906"><defs><clipPath id="b9f35d26-edbe-47db-a764-70d7ca144197"><rect x="13.1766" y="7.9929" width="307.1275" height="166.9625" style="fill:none"/></clipPath><clipPath id="ac50e100-6d3e-46af-a962-43f43cf513f8"><rect x="343.7213" y="7.0657" width="295.9414" height="171.568" style="fill:none"/></clipPath></defs><g id="ade4165e-30df-4cd2-8a5d-fdc395c5c8bc" data-name="annotations"><g style="clip-path:url(#b9f35d26-edbe-47db-a764-70d7ca144197)"><path d="M299.5947,178.4685l-.7478-18.9524s2.7065-3.8747,2.7065-10.8085V134.1262c0-5.564-.8157-8.6672-8.2593-21.4131s-8.212-11.8031-8.06-25.2515l.0048-10.539s1.7335-4.4866-5.3023-4.4866H259.033c-7.6475,0-6.73-4.3846-14.7852-4.3846,0,0-93.1982-1.9374-96.971-2.1413a19.8906,19.8906,0,0,1-15.0911-8.0489c-4.7925-6.43-33.134-45.0464-33.134-45.0464" style="fill:none;stroke:#a6abb0;stroke-miterlimit:10;stroke-width:0.5px"/><path d="M129.939-7.6862,80.3863,19.413a21.1009,21.1009,0,0,1-9.8909,2.7531H6.5431" style="fill:none;stroke:#a6abb0;stroke-miterlimit:10;stroke-width:0.5px"/><path d="M94.79,17.95s3.5256-4.5907,6.2873-6.1808S135.4727-7.6862,135.4727-7.6862" style="fill:none;stroke:#a6abb0;stroke-miterlimit:10"/><path d="M290.95,151.3612l7.117-7.4717a2.8252,2.8252,0,0,0,.7795-1.9486v-6.8973c0-3.8533-.6422-9.5261-6.5291-18.945s-9.74-14.8778-9.74-26.1164v-12.3a2.2567,2.2567,0,0,0-2.2567-2.2567H149.7637a25.3641,25.3641,0,0,1-20.46-10.3728L94.79,17.95a1.9405,1.9405,0,0,0-2.5225-.5412L80.1764,24.2634s-2.89,1.6055-10.0612,1.6055H25.5058l-.4739,138.502h242.08a4.77,4.77,0,0,0,3.838-1.9374l4.6812-6.3424a4.21,4.21,0,0,0,.72-1.5732l.5545-2.4559,12.3455.0256A2.3412,2.3412,0,0,0,290.95,151.3612Z" style="fill:#cfd2d4;stroke:#30373e;stroke-miterlimit:10;stroke-width:1.5px"/><line x1="22.6378" y1="22.1661" x2="22.1639" y2="167.1538" style="fill:none;stroke:#a6abb0;stroke-miterlimit:10;stroke-width:0.5px"/><path d="M298.8469,143.0711l-13.4875.375c-4.7941-.1679-6.9126,4.777-7.7253,8.7919l-1.4582-.352c1.05-4.3094,4-9.6964,9.1836-9.19l13.4874.3749Z" style="fill:#30373e"/><path d="M276.35,154.5179s-1.6932,3.2169-7.6871,3.2169H25.0319" style="fill:none;stroke:#30373e;stroke-miterlimit:10;stroke-width:0.5px"/><ellipse cx="92.2912" cy="67.5251" rx="10.5671" ry="9.6639" style="fill:none;stroke:#30373e;stroke-miterlimit:10;stroke-width:0.5px"/><path d="M92.2912,60.5389c11.5713.065,11.47,15.2527,0,15.6882-11.4751-.4341-11.57-15.6281,0-15.6883-6.6979.186-10.8478,7.9746-5.4357,12.7357,4.5722,4.11,13.2264,1.3861,13.3568-5.1414.1351-4.2-3.86-7.4748-7.9212-7.5942Z" style="fill:#30373e"/><ellipse cx="92.2912" cy="70.9195" rx="2.2229" ry="2.0329" style="fill:none;stroke:#30373e;stroke-miterlimit:10;stroke-width:0.5px"/><path d="M85.876,72.9524a5.6342,5.6342,0,0,1-.3453-1.95,6.7876,6.7876,0,0,1,13.521,0,5.6365,5.6365,0,0,1-.3452,1.95" style="fill:none;stroke:#30373e;stroke-miterlimit:10;stroke-width:0.5px"/><path d="M309.7108,194.1619c.102-.8946-3.161-33.6758-3.3649-38.0355s-2.2433-21.1844,22.5348-36.6834" style="fill:none;stroke:#a6abb0;stroke-miterlimit:10;stroke-width:0.5px"/><line x1="308.5044" y1="180.3063" x2="297.2043" y2="177.9755" style="fill:none;stroke:#a6abb0;stroke-miterlimit:10;stroke-width:0.5px"/><line x1="128.549" y1="64.0224" x2="128.549" y2="55.0228" style="fill:none;stroke:#30373e;stroke-miterlimit:10;stroke-width:1.5px"/><path d="M122.0909,46.3324s-1.4524,2.003-5.6206,1.2054" style="fill:none;stroke:#30373e;stroke-miterlimit:10;stroke-width:1.5px"/><path d="M128.549,51.658V33.7322a1.5733,1.5733,0,0,0-1.5733-1.5733h-3.3115a1.5733,1.5733,0,0,0-1.5733,1.5733v8.5215" style="fill:none;stroke:#a6abb0;stroke-miterlimit:10;stroke-width:1.5px"/><path d="M128.549,60.0552l2.5333,2.9767a.3289.3289,0,0,0,.5793-.2132V59.7636a1.8281,1.8281,0,0,0-.3683-1.1L119.6046,43.1578a.3288.3288,0,0,0-.5914.1979v2.73a1.8278,1.8278,0,0,0,.7688,1.49h0" style="fill:none;stroke:#30373e;stroke-miterlimit:10;stroke-width:1.5px"/><path d="M217.8185,72.4665h1.8667a1.3261,1.3261,0,0,0,1.3106-1.1187l.1726-1.1188a1.147,1.147,0,0,0-1.1315-1.33H202.303a1.3319,1.3319,0,0,0-1.31,1.1188l-.179,1.1187a1.15,1.15,0,0,0,1.1315,1.33h2.18" style="fill:none;stroke:#30373e;stroke-miterlimit:10;stroke-width:1.5px"/><line x1="217.8168" y1="68.9008" x2="217.8168" y2="75.4256" style="fill:none;stroke:#30373e;stroke-miterlimit:10;stroke-width:1.5px"/><line x1="204.1236" y1="68.9008" x2="204.1236" y2="75.4256" style="fill:none;stroke:#30373e;stroke-miterlimit:10;stroke-width:1.5px"/><path d="M217.8168,66.6144v-3.537a2.4794,2.4794,0,0,0-2.4794-2.4794H206.603a2.4794,2.4794,0,0,0-2.4794,2.4794V66.255" style="fill:none;stroke:#a6abb0;stroke-miterlimit:10;stroke-width:1.5px"/><path d="M265.7643,72.436c-6.7313,0-8.1657-3.6584-7.0672-9.2877,7.9972-40.9822,23.1314-66.3915,23.1314-66.3915" style="fill:none;stroke:#a6abb0;stroke-miterlimit:10;stroke-width:0.5px"/><path d="M251.0777,68.1618s1.3251-.5456,2.3189-3.7819,9.5507-48.9153,21.42-67.6231" style="fill:none;stroke:#a6abb0;stroke-miterlimit:10;stroke-width:0.5px"/><path d="M284.0673,152.062s-2.2388.0917-2.2388,1.9582v6.2754a1.58,1.58,0,0,1-.9229,1.4389,54.9844,54.9844,0,0,1-8.517,3.191" style="fill:none;stroke:#a6abb0;stroke-miterlimit:10;stroke-width:0.5px"/><ellipse cx="236.4438" cy="90.0154" rx="13.9709" ry="15.2423" transform="translate(19.7817 220.6522) rotate(-51.93)" style="fill:none;stroke:#30373e;stroke-miterlimit:10;stroke-width:0.5px"/><ellipse cx="269.6688" cy="92.0476" rx="6.3188" ry="6.8938" transform="translate(30.9195 247.5879) rotate(-51.93)" style="fill:none;stroke:#30373e;stroke-miterlimit:10;stroke-width:0.5px"/><ellipse cx="269.5424" cy="92.2089" rx="3.7741" ry="4.1176" transform="translate(30.7441 247.5503) rotate(-51.93)" style="fill:none;stroke:#30373e;stroke-miterlimit:10;stroke-width:0.5px"/><ellipse cx="269.5507" cy="92.1984" rx="1.2536" ry="1.3677" transform="translate(30.7555 247.5527) rotate(-51.93)" style="fill:none;stroke:#30373e;stroke-miterlimit:10;stroke-width:0.5px"/><ellipse cx="273.9304" cy="54.0811" rx="7.2182" ry="7.8751" transform="translate(62.4428 236.3874) rotate(-51.93)" style="fill:none;stroke:#a6abb0;stroke-miterlimit:10;stroke-width:0.5px"/><ellipse cx="273.4176" cy="54.7358" rx="4.9089" ry="5.3556" transform="translate(61.7307 236.2347) rotate(-51.93)" style="fill:none;stroke:#a6abb0;stroke-miterlimit:10;stroke-width:0.5px"/><ellipse cx="273.0863" cy="55.1587" rx="2.185" ry="2.3838" transform="translate(61.2708 236.1361) rotate(-51.93)" style="fill:none;stroke:#a6abb0;stroke-miterlimit:10;stroke-width:0.5px"/><ellipse cx="286.7839" cy="133.2419" rx="6.8691" ry="7.4942" transform="translate(5.0505 276.8549) rotate(-51.93)" style="fill:none;stroke:#30373e;stroke-miterlimit:10;stroke-width:0.5px"/><ellipse cx="267.1117" cy="116.1889" rx="9.7783" ry="10.6681" transform="translate(10.9337 254.8301) rotate(-51.93)" style="fill:none;stroke:#30373e;stroke-miterlimit:10;stroke-width:0.5px"/><path d="M271.3563,110.77c3.5375,2.3841,4.8768,7.7467,2.1331,11.2746-4.4374,5.8044-14.0337,2.3977-15.0945-4.4581-1.3951-7.578,7.5-11.6563,12.9615-6.8164-5.3594-3.9582-13.3723-.3863-12.0671,6.6487,1.0507,6.0286,9.4974,9.1841,13.5974,4.1534,2.6808-3.202,1.5766-8.2164-1.53-10.8022Z" style="fill:#30373e"/><ellipse cx="265.8771" cy="117.7653" rx="6.2354" ry="6.8028" transform="translate(9.2194 254.4624) rotate(-51.93)" style="fill:none;stroke:#30373e;stroke-miterlimit:10;stroke-width:0.5px"/><ellipse cx="265.8771" cy="117.7653" rx="2.5608" ry="2.7938" transform="translate(9.2194 254.4624) rotate(-51.93)" style="fill:none;stroke:#30373e;stroke-miterlimit:10;stroke-width:0.5px"/><ellipse cx="286.6465" cy="133.4173" rx="4.1028" ry="4.4762" transform="matrix(0.6166, -0.7873, 0.7873, 0.6166, 4.8597, 276.814)" style="fill:none;stroke:#30373e;stroke-miterlimit:10;stroke-width:0.5px"/><ellipse cx="287.3597" cy="157.7348" rx="4.1028" ry="4.4762" transform="translate(-14.011 286.6982) rotate(-51.93)" style="fill:none;stroke:#a6abb0;stroke-miterlimit:10;stroke-width:0.5px"/><ellipse cx="287.6955" cy="157.3061" rx="2.5602" ry="2.7932" transform="translate(-13.5448 286.7982) rotate(-51.93)" style="fill:none;stroke:#a6abb0;stroke-miterlimit:10;stroke-width:0.5px"/><ellipse cx="287.9456" cy="156.9868" rx="1.047" ry="1.1422" transform="translate(-13.1975 286.8727) rotate(-51.93)" style="fill:none;stroke:#a6abb0;stroke-miterlimit:10;stroke-width:0.5px"/><ellipse cx="286.6554" cy="133.4059" rx="1.3628" ry="1.4868" transform="translate(4.8721 276.8166) rotate(-51.93)" style="fill:none;stroke:#30373e;stroke-miterlimit:10;stroke-width:0.5px"/><path d="M249.8815,167.1538c1.1146,9.7376,2.2292,19.9408,1.8,27.6576" style="fill:none;stroke:#a6abb0;stroke-miterlimit:10;stroke-width:0.5px"/><path d="M252.4476,167.1538c1.1147,9.7376,2.2293,19.9408,1.8006,27.6576" style="fill:none;stroke:#a6abb0;stroke-miterlimit:10;stroke-width:0.25px"/><path d="M297.8836,194.1619s-.8563-24.5463-1.7125-31.5035l-2.0337-2.1407-1.1774-6.315a2.89,2.89,0,0,0-2.6758-2.1407h-8.4557l-5.4587,5.6728v3.104a3.36,3.36,0,0,1-2.1407,3.5321,64.713,64.713,0,0,1-19.8013,2.7829H11.0975" style="fill:none;stroke:#a6abb0;stroke-miterlimit:10"/><path d="M290.07,127.4434a1.3885,1.3885,0,0,0,2.0136,1.896l3.8126-4.1649-2.3412-1.6077Z" style="fill:#f4ae3d;stroke:#30373e;stroke-miterlimit:10"/><line x1="290.1315" y1="129.5408" x2="286.6465" y2="133.4173" style="fill:#f4ae3d;stroke:#30373e;stroke-miterlimit:10;stroke-width:0.5px"/><ellipse cx="295.3" cy="123.9223" rx="2.4582" ry="2.6897" transform="translate(2.6435 253.9645) rotate(-46.7233)" style="fill:#f4ae3d;stroke:#30373e;stroke-miterlimit:10"/><path d="M294.6628,124.226l.26-.5926a.1985.1985,0,0,0-.0517-.2215l-.5108-.4809a.18.18,0,0,1,.1406-.32l.6715.1147a.1736.1736,0,0,0,.1923-.0986l.26-.5926a.1953.1953,0,0,1,.3627.062l.1549.6635a.2145.2145,0,0,0,.1705.16l.6716.1147a.1953.1953,0,0,1,.0836.3584l-.5758.2953a.1735.1735,0,0,0-.0869.1978l.1549.6635a.18.18,0,0,1-.3111.1595l-.5108-.4809a.1982.1982,0,0,0-.2241-.0383l-.5759.2954A.2056.2056,0,0,1,294.6628,124.226Z" style="fill:none;stroke:#30373e;stroke-miterlimit:10;stroke-width:0.5px"/><path d="M271.4611,85.654a1.3885,1.3885,0,0,0,2.3565,1.448l2.8881-4.852-2.6187-1.0991Z" style="fill:#f4ae3d;stroke:#30373e;stroke-miterlimit:10"/><line x1="271.9467" y1="87.6953" x2="269.3208" y2="92.1984" style="fill:#f4ae3d;stroke:#30373e;stroke-miterlimit:10;stroke-width:0.5px"/><ellipse cx="275.8675" cy="81.1449" rx="2.4582" ry="2.6897" transform="translate(62.3084 273.7064) rotate(-58.4312)" style="fill:#f4ae3d;stroke:#30373e;stroke-miterlimit:10"/><path d="M275.3052,81.5716l.1345-.633a.1983.1983,0,0,0-.0955-.2064l-.5978-.3673a.18.18,0,0,1,.0727-.3419l.6809-.024a.1736.1736,0,0,0,.1682-.1355l.1345-.6331a.1953.1953,0,0,1,.3678-.0129l.2863.6182a.2143.2143,0,0,0,.2.1226l.6809-.024a.1953.1953,0,0,1,.1546.334l-.5039.406a.1736.1736,0,0,0-.0449.2114l.2862.6182a.18.18,0,0,1-.2722.2193l-.5977-.3672a.1983.1983,0,0,0-.2273.008l-.5039.406A.2056.2056,0,0,1,275.3052,81.5716Z" style="fill:none;stroke:#30373e;stroke-miterlimit:10;stroke-width:0.5px"/><path d="M273.5529,112.5183a2.1305,2.1305,0,0,1-3.0832-2.9269l4.4982-4.7384a2.1305,2.1305,0,0,1,3.0832,2.9269Z" style="fill:#f4ae3d;stroke:#30373e;stroke-miterlimit:10"/><line x1="265.8771" y1="117.7653" x2="270.3753" y2="113.0269" style="fill:#f4ae3d;stroke:#30373e;stroke-miterlimit:10;stroke-width:0.5px"/><path d="M273.24,103.6853a4.4465,4.4465,0,0,0,6.4348,6.1087l.5037-.5306a4.4465,4.4465,0,0,0-6.4348-6.1087Z" style="fill:#f4ae3d;stroke:#30373e;stroke-miterlimit:10"/><path d="M280.178,109.2634a4.4465,4.4465,0,0,1-6.4348-6.1087" style="fill:none;stroke:#30373e;stroke-miterlimit:10;stroke-width:0.5px"/><polygon points="279.627 106.887 280.094 104.652 278.353 102.999 276.146 103.581 275.22 104.557 274.753 106.791 276.494 108.444 278.701 107.862 279.627 106.887" style="fill:none;stroke:#30373e;stroke-miterlimit:10"/><polyline points="276.146 103.581 275.679 105.816 277.419 107.469 279.627 106.887" style="fill:none;stroke:#30373e;stroke-miterlimit:10;stroke-width:0.5px"/><line x1="275.6787" y1="105.8162" x2="274.7531" y2="106.7913" style="fill:none;stroke:#30373e;stroke-miterlimit:10;stroke-width:0.5px"/><line x1="276.4938" y1="108.4438" x2="277.4195" y2="107.4688" style="fill:none;stroke:#30373e;stroke-miterlimit:10;stroke-width:0.5px"/><path d="M93.422,61.84a2.13,2.13,0,0,1-4.234.3814l-.5862-6.5071a2.13,2.13,0,0,1,4.234-.3814Z" style="fill:#f4ae3d;stroke:#30373e;stroke-miterlimit:10"/><line x1="92.2912" y1="71.0691" x2="91.705" y2="64.562" style="fill:#f4ae3d;stroke:#30373e;stroke-miterlimit:10;stroke-width:0.5px"/><path d="M86.5834,56.2411A4.4465,4.4465,0,0,0,95.42,55.445l-.0656-.7287a4.4466,4.4466,0,0,0-8.8369.7961Z" style="fill:#f4ae3d;stroke:#30373e;stroke-miterlimit:10"/><path d="M95.3546,54.7163a4.4466,4.4466,0,0,1-8.8369.7961" style="fill:none;stroke:#30373e;stroke-miterlimit:10;stroke-width:0.5px"/><polygon points="93.206 53.56 91.837 51.733 89.446 51.949 88.425 53.991 88.546 55.33 89.915 57.156 92.306 56.941 93.327 54.899 93.206 53.56" style="fill:none;stroke:#30373e;stroke-miterlimit:10"/><polyline points="88.425 53.991 89.795 55.817 92.185 55.602 93.206 53.56" style="fill:none;stroke:#30373e;stroke-miterlimit:10;stroke-width:0.5px"/><line x1="89.7945" y1="55.8173" x2="89.9151" y2="57.1563" style="fill:none;stroke:#30373e;stroke-miterlimit:10;stroke-width:0.5px"/><line x1="92.3057" y1="56.941" x2="92.185" y2="55.6019" style="fill:none;stroke:#30373e;stroke-miterlimit:10;stroke-width:0.5px"/><polygon points="302.4 91.675 309.821 76.212 317.147 76.212 308.348 66.514 290.241 76.212 297.566 76.212 290.145 91.675 302.4 91.675" style="fill:#f4ae3d;stroke:#f4f4f4;stroke-miterlimit:10;stroke-width:1.5px"/><polygon points="82.881 44.239 81.007 28.776 73.681 28.776 85.958 19.078 100.587 28.776 93.262 28.776 95.136 44.239 82.881 44.239" style="fill:#f4ae3d;stroke:#f4f4f4;stroke-miterlimit:10;stroke-width:1.5px"/></g><line x1="327" y1="4.4101" x2="327" y2="180.6353" style="fill:none;stroke:#30373e;stroke-miterlimit:10"/><g style="clip-path:url(#ac50e100-6d3e-46af-a962-43f43cf513f8)"><path d="M448.7222,44.07c-9.9146-13.4787-23.0837-31.4215-23.0837-31.4215" style="fill:none;stroke:#a6abb0;stroke-miterlimit:10;stroke-width:0.5px"/><path d="M544.6427,67.4417c15.0412.3168,26.4822.5544,26.4822.5544,8.0714,0,7.15,4.3921,14.8107,4.3921h20.9453c7.0489,0,5.3137,4.5,5.3137,4.5l-.0072,10.5554c-.1512,13.4787.6192,12.5355,8.0786,25.3014,7.4593,12.7731,8.28,15.8835,8.28,21.4565v14.6091c0,6.9481-2.7145,10.829-2.7145,10.829l.7488,18.994" style="fill:none;stroke:#a6abb0;stroke-miterlimit:10;stroke-width:0.5px"/><path d="M455.1952,52.8614c1.6344,2.2176,2.916,3.9457,3.6433,4.9249a19.9168,19.9168,0,0,0,15.12,8.0642c2.0736.1152,31.1551.7488,56.96,1.3032" style="fill:none;stroke:#a6abb0;stroke-miterlimit:10;stroke-width:0.5px"/><path d="M455.1962,63.96V33.61a1.5763,1.5763,0,0,0-1.5763-1.5764h-3.3181a1.5764,1.5764,0,0,0-1.5764,1.5764V46.2354s-1.4553,2.007-5.6317,1.2079" style="fill:#cfd2d4;stroke:#30373e;stroke-miterlimit:10;stroke-width:1.5px"/><path d="M530.9192,75.3862V63.0136a2.4845,2.4845,0,0,1,2.4841-2.4841h8.7554a2.4844,2.4844,0,0,1,2.484,2.4841V75.3862" style="fill:#cfd2d4;stroke:#30373e;stroke-miterlimit:10;stroke-width:1.5px"/><path d="M456.589-7.89,406.9383,19.2628a21.1419,21.1419,0,0,1-9.91,2.7586H332.9491" style="fill:none;stroke:#a6abb0;stroke-miterlimit:10;stroke-width:0.5px"/><path d="M421.3707,17.7966s3.5326-4.6,6.3-6.193S462.1336-7.89,462.1336-7.89" style="fill:none;stroke:#a6abb0;stroke-miterlimit:10"/><path d="M617.9187,151.4719l7.1311-7.4865a2.8309,2.8309,0,0,0,.7811-1.9524v-6.911c0-3.8608-.6435-9.5449-6.542-18.9825S609.53,101.2324,609.53,89.9716V77.6473a2.2611,2.2611,0,0,0-2.2611-2.2611H476.4529a25.4146,25.4146,0,0,1-20.5-10.3933l-34.582-47.1963a1.9444,1.9444,0,0,0-2.5275-.5423L406.728,24.1228s-2.8956,1.6086-10.0811,1.6086H351.9493l-.4748,138.7759H594.0328a4.78,4.78,0,0,0,3.8456-1.9412l4.69-6.3549a4.22,4.22,0,0,0,.7209-1.5763l.5557-2.4608,12.37.0256A2.3453,2.3453,0,0,0,617.9187,151.4719Z" style="fill:#cfd2d4;stroke:#30373e;stroke-miterlimit:10;stroke-width:1.5px"/><line x1="349.0757" y1="22.0214" x2="348.6008" y2="167.2957" style="fill:none;stroke:#a6abb0;stroke-miterlimit:10;stroke-width:0.5px"/><path d="M625.8309,143.1654l-13.5142.375c-4.804-.1686-6.9275,4.7865-7.7421,8.81l-1.4581-.352c1.0521-4.3176,4.0073-9.7149,9.2-9.2076l13.5141.3749Z" style="fill:#30373e"/><path d="M603.29,154.6349s-1.6965,3.2232-7.7022,3.2232H351.4745" style="fill:none;stroke:#30373e;stroke-miterlimit:10;stroke-width:0.5px"/><ellipse cx="418.8668" cy="67.47" rx="10.588" ry="9.683" style="fill:none;stroke:#30373e;stroke-miterlimit:10;stroke-width:0.5px"/><path d="M418.8668,60.47c11.593.0659,11.4921,15.2819,0,15.7182-11.4969-.4349-11.5916-15.6572,0-15.7182-6.7117.1858-10.87,7.9906-5.4469,12.7615,4.5816,4.1188,13.254,1.3889,13.3845-5.1522.1352-4.2082-3.8678-7.49-7.9376-7.6093Z" style="fill:#30373e"/><ellipse cx="418.8668" cy="70.8711" rx="2.2273" ry="2.037" style="fill:none;stroke:#30373e;stroke-miterlimit:10;stroke-width:0.5px"/><path d="M412.4388,72.9081a5.6468,5.6468,0,0,1-.3459-1.9537c0-3.4206,3.03-6.1942,6.7771-6.1942a6.501,6.501,0,0,1,6.7706,6.1942,5.6468,5.6468,0,0,1-.3459,1.9537" style="fill:none;stroke:#30373e;stroke-miterlimit:10;stroke-width:0.5px"/><path d="M636.7162,194.3572c.1022-.8963-3.1672-33.7423-3.3715-38.1107s-2.2478-21.2263,22.5793-36.756" style="fill:none;stroke:#a6abb0;stroke-miterlimit:10;stroke-width:0.5px"/><line x1="635.5075" y1="180.4742" x2="624.185" y2="178.1388" style="fill:none;stroke:#a6abb0;stroke-miterlimit:10;stroke-width:0.5px"/><path d="M446.411,47.4829a1.8394,1.8394,0,0,1-.77-1.4977V43.2564a.3289.3289,0,0,1,.59-.2016l2.4336,3.2256" style="fill:none;stroke:#30373e;stroke-miterlimit:10;stroke-width:1.5px"/><path d="M455.1952,54.9422l2.75,3.6505a1.8415,1.8415,0,0,1,.3672,1.1016v3.06a.3274.3274,0,0,1-.576.216l-2.5416-2.9881" style="fill:none;stroke:#30373e;stroke-miterlimit:10;stroke-width:1.5px"/><path d="M544.6427,68.8457h2.2249a1.1461,1.1461,0,0,1,1.13,1.3321l-.1728,1.1232a1.33,1.33,0,0,1-1.31,1.1232h-1.8721" style="fill:none;stroke:#30373e;stroke-miterlimit:10;stroke-width:1.5px"/><path d="M530.9192,68.8457h-1.8216A1.3438,1.3438,0,0,0,527.78,69.969l-.1728,1.1232a1.1461,1.1461,0,0,0,1.13,1.332h2.1816" style="fill:none;stroke:#30373e;stroke-miterlimit:10;stroke-width:1.5px"/><path d="M592.6828,72.3907c-6.7445,0-8.1818-3.6657-7.0812-9.3062,8.013-41.0631,23.1772-66.5227,23.1772-66.5227" style="fill:none;stroke:#a6abb0;stroke-miterlimit:10;stroke-width:0.5px"/><path d="M577.9672,68.108s1.3277-.5467,2.3235-3.7894,9.57-49.0119,21.4627-67.7568" style="fill:none;stroke:#a6abb0;stroke-miterlimit:10;stroke-width:0.5px"/><path d="M611.022,152.1741s-2.2432.0918-2.2432,1.962v6.2878a1.5827,1.5827,0,0,1-.9247,1.4418,55.0931,55.0931,0,0,1-8.5338,3.1973" style="fill:none;stroke:#a6abb0;stroke-miterlimit:10;stroke-width:0.5px"/><ellipse cx="563.3044" cy="90.0048" rx="13.9985" ry="15.2724" transform="translate(145.1008 477.9719) rotate(-51.93)" style="fill:none;stroke:#30373e;stroke-miterlimit:10;stroke-width:0.5px"/><ellipse cx="596.5951" cy="92.041" rx="6.3313" ry="6.9075" transform="translate(156.2607 504.9609) rotate(-51.93)" style="fill:none;stroke:#30373e;stroke-miterlimit:10;stroke-width:0.5px"/><ellipse cx="596.4684" cy="92.2027" rx="3.7816" ry="4.1257" transform="translate(156.0848 504.9231) rotate(-51.93)" style="fill:none;stroke:#30373e;stroke-miterlimit:10;stroke-width:0.5px"/><ellipse cx="596.4767" cy="92.1921" rx="1.2561" ry="1.3704" transform="translate(156.0963 504.9256) rotate(-51.93)" style="fill:none;stroke:#30373e;stroke-miterlimit:10;stroke-width:0.5px"/><ellipse cx="600.8651" cy="53.9994" rx="7.2325" ry="7.8907" transform="translate(187.8462 493.7382) rotate(-51.93)" style="fill:none;stroke:#a6abb0;stroke-miterlimit:10;stroke-width:0.5px"/><ellipse cx="600.3512" cy="54.6555" rx="4.9186" ry="5.3662" transform="translate(187.1327 493.5852) rotate(-51.93)" style="fill:none;stroke:#a6abb0;stroke-miterlimit:10;stroke-width:0.5px"/><ellipse cx="600.0194" cy="55.0792" rx="2.1893" ry="2.3886" transform="translate(186.6719 493.4864) rotate(-51.93)" style="fill:none;stroke:#a6abb0;stroke-miterlimit:10;stroke-width:0.5px"/><ellipse cx="613.744" cy="133.3168" rx="6.8827" ry="7.509" transform="translate(130.3404 534.2857) rotate(-51.93)" style="fill:none;stroke:#30373e;stroke-miterlimit:10;stroke-width:0.5px"/><ellipse cx="594.033" cy="116.2301" rx="9.7976" ry="10.6892" transform="translate(136.2353 512.2173) rotate(-51.93)" style="fill:none;stroke:#30373e;stroke-miterlimit:10;stroke-width:0.5px"/><path d="M598.2859,110.8c9.0289,7.1535-.3933,19.02-9.65,12.321-8.7265-7.3848.5466-19.3763,9.6506-12.321-5.37-3.9668-13.4-.3873-12.0918,6.6621,1.0527,6.0413,9.5173,9.2034,13.6258,4.162,2.6861-3.2087,1.5795-8.2333-1.5341-10.8241Z" style="fill:#30373e"/><ellipse cx="592.7958" cy="117.8095" rx="6.2477" ry="6.8163" transform="translate(134.5176 511.8489) rotate(-51.93)" style="fill:none;stroke:#30373e;stroke-miterlimit:10;stroke-width:0.5px"/><ellipse cx="592.7958" cy="117.8095" rx="2.5658" ry="2.7993" transform="translate(134.5176 511.8489) rotate(-51.93)" style="fill:none;stroke:#30373e;stroke-miterlimit:10;stroke-width:0.5px"/><ellipse cx="613.6063" cy="133.4925" rx="4.1109" ry="4.485" transform="translate(130.1493 534.2447) rotate(-51.93)" style="fill:none;stroke:#30373e;stroke-miterlimit:10;stroke-width:0.5px"/><ellipse cx="614.321" cy="157.8581" rx="4.1109" ry="4.485" transform="translate(111.2413 544.1485) rotate(-51.93)" style="fill:none;stroke:#a6abb0;stroke-miterlimit:10;stroke-width:0.5px"/><ellipse cx="614.6574" cy="157.4286" rx="2.5653" ry="2.7987" transform="translate(111.7084 544.2486) rotate(-51.93)" style="fill:none;stroke:#a6abb0;stroke-miterlimit:10;stroke-width:0.5px"/><ellipse cx="614.908" cy="157.1086" rx="1.049" ry="1.1445" transform="translate(112.0564 544.3233) rotate(-51.93)" style="fill:none;stroke:#a6abb0;stroke-miterlimit:10;stroke-width:0.5px"/><ellipse cx="613.6153" cy="133.4811" rx="1.3655" ry="1.4897" transform="translate(130.1617 534.2473) rotate(-51.93)" style="fill:none;stroke:#30373e;stroke-miterlimit:10;stroke-width:0.5px"/><path d="M576.7686,167.2957c1.1168,9.7569,2.2337,19.98,1.8041,27.7123" style="fill:none;stroke:#a6abb0;stroke-miterlimit:10;stroke-width:0.5px"/><path d="M579.34,167.2957c1.1169,9.7569,2.2337,19.98,1.8042,27.7123" style="fill:none;stroke:#a6abb0;stroke-miterlimit:10;stroke-width:0.25px"/><path d="M624.8657,194.3572s-.858-24.5948-1.716-31.5658l-2.0376-2.1449-1.18-6.3275a2.8964,2.8964,0,0,0-2.6812-2.1449h-8.4724l-5.47,5.684v3.11a3.3669,3.3669,0,0,1-2.1449,3.5391,64.8407,64.8407,0,0,1-19.8405,2.7884H337.5125" style="fill:none;stroke:#a6abb0;stroke-miterlimit:10"/><g style="opacity:0.48"><polygon points="602.31 145.043 599.298 147.047 594.389 147.047 594.389 144.03 596.909 138.967 602.31 138.967 602.31 145.043" style="fill:#f4ae3d;stroke:#30373e;stroke-miterlimit:10"/><rect x="596.2862" y="143.0177" width="7.4996" height="2.0252" transform="translate(1200.0719 288.0609) rotate(-180)" style="fill:#f4ae3d;stroke:#30373e;stroke-miterlimit:10"/><rect x="596.2862" y="138.9673" width="7.4996" height="2.0252" transform="translate(1200.072 279.9601) rotate(-180)" style="fill:#f4ae3d;stroke:#30373e;stroke-miterlimit:10"/></g><g style="opacity:0.48"><polygon points="422.418 156.67 425.43 158.675 430.339 158.675 430.339 155.658 427.818 150.595 422.418 150.595 422.418 156.67" style="fill:#f4ae3d;stroke:#30373e;stroke-miterlimit:10"/><rect x="420.9418" y="154.6451" width="7.4996" height="2.0252" style="fill:#f4ae3d;stroke:#30373e;stroke-miterlimit:10"/><rect x="420.9418" y="150.5947" width="7.4996" height="2.0252" style="fill:#f4ae3d;stroke:#30373e;stroke-miterlimit:10"/></g><g style="opacity:0.48"><polygon points="365.452 156.67 368.464 158.675 373.373 158.675 373.373 155.658 370.853 150.595 365.452 150.595 365.452 156.67" style="fill:#f4ae3d;stroke:#30373e;stroke-miterlimit:10"/><rect x="363.9765" y="154.645" width="7.4996" height="2.0252" style="fill:#f4ae3d;stroke:#30373e;stroke-miterlimit:10"/><rect x="363.9765" y="150.5946" width="7.4996" height="2.0252" style="fill:#f4ae3d;stroke:#30373e;stroke-miterlimit:10"/></g><polygon points="452.531 157.636 440.274 142.142 432.934 142.142 438.727 132.426 459.893 142.142 452.553 142.142 464.81 157.636 452.531 157.636" style="fill:#f4ae3d;stroke:#f4f4f4;stroke-miterlimit:10;stroke-width:1.5px"/><polygon points="584.208 146.58 596.465 131.087 603.805 131.087 598.012 121.37 576.846 131.087 584.185 131.087 571.929 146.58 584.208 146.58" style="fill:#f4ae3d;stroke:#f4f4f4;stroke-miterlimit:10;stroke-width:1.5px"/><polygon points="393.684 157.636 381.427 142.142 374.087 142.142 379.88 132.426 401.046 142.142 393.706 142.142 405.963 157.636 393.684 157.636" style="fill:#f4ae3d;stroke:#f4f4f4;stroke-miterlimit:10;stroke-width:1.5px"/></g></g></svg>
