<?xml version="1.0" encoding="UTF-8"?><svg id="uuid-7fc0f002-f468-442b-83e5-30f2f43d8a3b" xmlns="http://www.w3.org/2000/svg" width="654" height="174.145" xmlns:xlink="http://www.w3.org/1999/xlink" viewBox="0 0 654 174.145"><defs><clipPath id="uuid-13cddf19-dbce-4357-9914-c7afd3e93742"><rect y="7.533" width="165.076" height="158.442" style="fill:none; stroke-width:0px;"/></clipPath></defs><path d="m456.817,86.754c0-17.878,3.193-36.016,5.797-44.18,1.652-4.963,4.381-8.038,7.567-11.948,3.185-3.901,4.735-5.915,7.338-7.095,2.603-1.188,11.594-6.033,20.23-6.151,8.636-.118,34.183-.834,37.738-.834,7.661,0,21.378,2.053,36.087,2.131.794-1.156,1.754-2.541,2.745-3.917.024-.031.047-.071.079-.11,1.612-2.242,3.311-4.444,4.554-5.553,2.627-2.336,3.878-2.43,6.457-2.336,2.58.087,3.138.606,2.965,1.597-.142.826-2.603,7.386-3.744,10.304h.22s41.592.094,47.295.142c5.702.047,43.228.606,49.064.794,5.844.181,12.105.37,14.205.464,2.108.094,11.405.558,15.377.189,3.972-.378,12.435-1.683,15.518-2.242,3.083-.566,7.991-1.778,17.194-1.778h36.708c5.868,0,10.909.464,16.242,1.73,5.325,1.258,21.543,5.742,25.932,6.772,4.397,1.03,9.116,2.478,10.752,3.178,1.636.7,4.814,4.491,5.695,7.433.889,2.942,5.749,20.749,5.749,51.408s-4.861,48.459-5.749,51.408c-.881,2.942-4.058,6.725-5.695,7.425-1.636.708-6.355,2.155-10.752,3.178-4.389,1.03-20.608,5.514-25.932,6.78-5.333,1.258-10.374,1.73-16.242,1.73h-36.708c-9.203,0-14.111-1.219-17.194-1.778s-11.546-1.872-15.518-2.242c-3.972-.378-13.269.094-15.377.189-2.1.087-8.361.275-14.205.464-5.836.189-43.362.747-49.064.794-4.727.039-34.159.11-47.515.142,1.141,2.918,3.602,9.47,3.744,10.296.173.999-.386,1.518-2.965,1.605-2.58.087-3.831,0-6.457-2.344-1.243-1.109-2.942-3.311-4.554-5.553-.039-.055-.079-.102-.11-.157-.975-1.353-1.919-2.721-2.706-3.862h-.008c-14.708.079-28.426,2.124-36.087,2.124-3.555,0-29.102-.708-37.738-.826-8.636-.118-17.626-4.971-20.23-6.151-2.603-1.188-4.153-3.193-7.338-7.102-3.186-3.901-5.915-6.977-7.567-11.948-2.603-8.164-5.797-26.294-5.797-44.172Z" style="fill:#cfd2d4; stroke-width:0px;"/><path d="m535.273,86.754c0,20.647.911,29.402,3.281,38.524,2.37,9.122,8.806,15.624,11.786,18.448,2.981,2.823,5.696,3.525,9.287,3.669,3.591.145,14.209.588,27.143.74,12.934.152,24.213.195,24.213.195,22.901.101,51.224-.044,60.926-.322,7.77-.223,14.863-.261,24.124-1.697,3.725-.578,3.627-1.404,4.954-6.887,0,0-17.974-.789-24.797-.789-6.823,0-70.598-.29-74.046-.29-2.877,0-3.482-1.927-3.853-3.114-5.776-18.499-5.86-47.983-5.86-48.477s.083-29.979,5.86-48.477c.371-1.187.976-3.114,3.853-3.114,3.448,0,67.223-.29,74.046-.29,6.823,0,24.797-.789,24.797-.789-1.328-5.484-1.229-6.31-4.954-6.887-9.261-1.436-16.354-1.475-24.124-1.697-9.702-.278-38.025-.423-60.926-.322,0,0-11.279.043-24.213.195-12.934.152-23.552.595-27.143.74s-6.307.846-9.287,3.669c-2.981,2.823-9.416,9.326-11.786,18.448-2.37,9.122-3.281,17.877-3.281,38.524Z" style="fill:none; stroke:#30373e; stroke-linecap:round; stroke-linejoin:round; stroke-width:.5px;"/><path d="m571.574,154.828c-14.707.077-28.427,2.127-36.089,2.127-3.549,0-29.102-.71-37.738-.828-8.636-.118-17.627-4.969-20.229-6.152-2.603-1.183-4.148-3.194-7.335-7.098-3.187-3.904-5.915-6.98-7.571-11.948-2.603-8.163-5.797-26.298-5.797-44.176,0-17.878,3.194-36.013,5.797-44.176,1.656-4.969,4.385-8.044,7.571-11.948,3.187-3.904,4.732-5.915,7.335-7.098,2.603-1.183,11.593-6.033,20.229-6.152,8.636-.118,34.189-.828,37.738-.828,7.662,0,21.382,2.05,36.089,2.127" style="fill:none; stroke:#30373e; stroke-linecap:round; stroke-miterlimit:10; stroke-width:2px;"/><path d="m584.63,154.845c13.359-.03,42.786-.102,47.515-.141,5.701-.047,43.226-.608,49.068-.794,5.841-.187,12.103-.374,14.206-.467s11.402-.561,15.375-.187,12.43,1.682,15.515,2.243,7.991,1.776,17.197,1.776h36.709c5.863,0,10.91-.467,16.237-1.729,5.327-1.262,21.543-5.748,25.936-6.776,4.393-1.028,9.113-2.477,10.748-3.178,1.636-.701,4.813-4.486,5.701-7.43.888-2.944,5.748-20.747,5.748-51.408,0-30.661-4.86-48.464-5.748-51.408-.888-2.944-4.066-6.729-5.701-7.43-1.636-.701-6.355-2.15-10.748-3.178s-20.608-5.514-25.936-6.776c-5.327-1.262-10.374-1.729-16.237-1.729h-36.709c-9.206,0-14.113,1.215-17.197,1.776-3.084.561-11.543,1.869-15.515,2.243-3.972.374-13.272-.093-15.375-.187-2.103-.093-8.365-.28-14.206-.467-5.841-.187-43.366-.748-49.068-.794-5.701-.047-47.292-.14-47.292-.14h-.223" style="fill:none; stroke:#30373e; stroke-linecap:round; stroke-miterlimit:10; stroke-width:2px;"/><path d="m574.51,159.016s-2.936-4.187-2.542-7c.18-1.283,1.977-.979,3.156-.979s4.823.286,4.823.286" style="fill:none; stroke:#30373e; stroke-linecap:round; stroke-linejoin:round; stroke-width:.5px;"/><path d="m573.413,147.87c.645.486,2.531,1.585,3.557,2.492.981.867,2.674.954,4.566,1.084,1.892.13,2.064.954,2.58,2.124s4.085,10.577,4.257,11.574-.387,1.517-2.967,1.604c-2.58.087-3.827,0-6.45-2.341-2.266-2.022-6.022-7.642-8.091-10.598-.53-.757-1.235-1.383-2.052-1.815l-8.646-4.577" style="fill:none; stroke:#30373e; stroke-linecap:round; stroke-linejoin:round; stroke-width:2px;"/><path d="m574.51,14.492s-2.936,4.187-2.542,7c.18,1.283,1.977.979,3.156.979,1.179,0,4.823-.286,4.823-.286" style="fill:none; stroke:#30373e; stroke-linecap:round; stroke-linejoin:round; stroke-width:.5px;"/><path d="m573.413,25.637c.645-.486,2.531-1.585,3.557-2.492.981-.867,2.674-.954,4.566-1.084s2.064-.954,2.58-2.124,4.085-10.577,4.257-11.574-.387-1.517-2.967-1.604-3.827,0-6.45,2.341c-2.266,2.022-6.022,7.642-8.091,10.598-.53.757-1.235,1.383-2.052,1.815l-8.646,4.577" style="fill:none; stroke:#30373e; stroke-linecap:round; stroke-linejoin:round; stroke-width:2px;"/><path d="m559.91,18.26c-.077.147-.146.3-.209.457-.26.651-.538,1.748-.406,3.3.177,2.071,1.056,4.09,1.056,4.09" style="fill:none; stroke:#30373e; stroke-linecap:round; stroke-linejoin:round; stroke-width:.5px;"/><path d="m638.065,18.9s.74,1.552,1.109,3.275c.37,1.723.416,2.992.416,2.992,0,0,1.807,3.972,3.017,9.806" style="fill:none; stroke:#30373e; stroke-linecap:round; stroke-linejoin:round; stroke-width:.5px;"/><path d="m636.655,34.995s-1.916-5.398-5.214-9.846" style="fill:none; stroke:#30373e; stroke-linecap:round; stroke-linejoin:round; stroke-width:.5px;"/><path d="m464.941,37.567s55.755-2.726,69.184-3.22c8.612-.316,12.928-3.164,17.278-5.493" style="fill:none; stroke:#30373e; stroke-linecap:round; stroke-linejoin:round; stroke-width:.5px;"/><path d="m582.76,21.799c21.687-.128,41.237-.038,56.275.183,20.303.298,32.681.278,37.291.537,6.78.382,10.672.158,22.304,3.278,2.263.607,2.579,1.473,2.973,2.541.623,1.687,1.208,4.094,1.617,5.693" style="fill:none; stroke:#30373e; stroke-linecap:round; stroke-linejoin:round; stroke-width:.5px;"/><path d="m474.348,25.78s56.276-1.304,61.104-1.478c5.075-.183,8.481-.607,11.714,1.642,2.091,1.455,3.487,2.426,4.212,2.931" style="fill:none; stroke:#30373e; stroke-linecap:round; stroke-linejoin:round; stroke-width:.5px;"/><line x1="598.292" y1="38.276" x2="551.403" y2="28.855" style="fill:none; stroke:#30373e; stroke-linecap:round; stroke-linejoin:round; stroke-width:.5px;"/><path d="m615.951,39.923c-3.435,0-9.414.293-17.659-1.646" style="fill:none; stroke:#30373e; stroke-linecap:round; stroke-linejoin:round; stroke-width:.5px;"/><path d="m560.35,26.107l52.794,10.364c1.722.338,3.48.507,5.234.508,14.946.005,88.305.028,97.938.028,3.613,0,3.072-1.579,3.015-2.774-.056-1.195-.452-5.217-.546-6.393s-.056-1.802,4.184-1.679c3.642.106,107.07,3.336,107.07,3.336,4.164.238,7.397,2.559,8.872,6.369" style="fill:none; stroke:#30373e; stroke-linecap:round; stroke-linejoin:round; stroke-width:.5px;"/><path d="m621.459,42.169h-2.271c-.798,0-1.445.652-1.445,1.456,0,.804.647,1.456,1.445,1.456h2.271s1.56,0,1.56,0h2.271c.798,0,1.445-.652,1.445-1.456,0-.804-.647-1.456-1.445-1.456h-2.271s-1.56,0-1.56,0Z" style="fill:none; stroke:#30373e; stroke-linecap:round; stroke-linejoin:round; stroke-width:.5px;"/><line x1="622.239" y1="42.169" x2="622.239" y2="45.082" style="fill:none; stroke:#30373e; stroke-linecap:round; stroke-linejoin:round; stroke-width:.5px;"/><path d="m559.91,155.247c-.077-.147-.146-.3-.209-.457-.26-.651-.538-1.748-.406-3.3.177-2.071,1.056-4.09,1.056-4.09" style="fill:none; stroke:#30373e; stroke-linecap:round; stroke-linejoin:round; stroke-width:.5px;"/><path d="m638.065,154.607s.74-1.552,1.109-3.275c.37-1.723.416-2.992.416-2.992,0,0,1.807-3.972,3.017-9.806" style="fill:none; stroke:#30373e; stroke-linecap:round; stroke-linejoin:round; stroke-width:.5px;"/><path d="m647.267,148.298c.26-1.444,1.438-5.373,1.553-9.763" style="fill:none; stroke:#30373e; stroke-linecap:round; stroke-linejoin:round; stroke-width:.5px;"/><path d="m647.267,25.209c.26,1.444,1.438,5.373,1.553,9.763" style="fill:none; stroke:#30373e; stroke-linecap:round; stroke-linejoin:round; stroke-width:.5px;"/><path d="m636.655,138.513s-1.916,5.398-5.214,9.846" style="fill:none; stroke:#30373e; stroke-linecap:round; stroke-linejoin:round; stroke-width:.5px;"/><path d="m693.67,86.754v34.163c0,2.11-1.708,3.821-3.818,3.825-13.125.024-56.15.104-66.39.118-1.914.003-3.531-1.4-3.794-3.295-1.564-11.289-2.469-23.637-2.362-34.811-.107-11.174.798-23.522,2.362-34.811.263-1.896,1.88-3.298,3.794-3.295,10.239.014,53.264.094,66.39.118,2.11.004,3.818,1.715,3.818,3.825v34.163Z" style="fill:none; stroke:#30373e; stroke-linecap:round; stroke-linejoin:round; stroke-width:.5px;"/><path d="m468.013,120.953c18.988,1.479,42.876,1.167,53.14.936,2.742-.062,4.883-2.409,4.711-5.168-.374-5.978-.908-16.9-.908-29.967s.534-23.989.908-29.967c.173-2.759-1.969-5.107-4.711-5.168-10.265-.231-34.153-.542-53.14.936" style="fill:none; stroke:#30373e; stroke-linecap:round; stroke-linejoin:round; stroke-width:.5px;"/><path d="m464.941,135.94s55.755,2.726,69.184,3.22c8.612.316,12.903,3.143,17.253,5.473" style="fill:none; stroke:#30373e; stroke-linecap:round; stroke-linejoin:round; stroke-width:.5px;"/><path d="m582.76,151.708c21.687.128,41.237.038,56.275-.183,20.303-.298,32.681-.278,37.291-.537,6.78-.382,10.672-.158,22.304-3.278,2.263-.607,2.579-1.473,2.973-2.541.623-1.687,1.208-4.094,1.617-5.693" style="fill:none; stroke:#30373e; stroke-linecap:round; stroke-linejoin:round; stroke-width:.5px;"/><path d="m474.348,147.727s56.276,1.304,61.104,1.478c5.075.183,8.481.607,11.714-1.642,2.091-1.455,3.487-2.426,4.212-2.931" style="fill:none; stroke:#30373e; stroke-linecap:round; stroke-linejoin:round; stroke-width:.5px;"/><line x1="598.292" y1="135.231" x2="551.378" y2="144.632" style="fill:none; stroke:#30373e; stroke-linecap:round; stroke-linejoin:round; stroke-width:.5px;"/><path d="m615.951,133.585c-3.435,0-9.414-.293-17.659,1.646" style="fill:none; stroke:#30373e; stroke-linecap:round; stroke-linejoin:round; stroke-width:.5px;"/><path d="m560.35,147.401l52.794-10.364c1.722-.338,3.48-.507,5.234-.508,14.946-.005,88.305-.028,97.938-.028,3.613,0,3.072,1.579,3.015,2.774s-.452,5.217-.546,6.393-.056,1.802,4.184,1.679c3.642-.106,107.07-3.336,107.07-3.336,4.164-.238,7.397-2.559,8.872-6.369" style="fill:none; stroke:#30373e; stroke-linecap:round; stroke-linejoin:round; stroke-width:.5px;"/><path d="m621.459,131.338h-2.271c-.798,0-1.445-.652-1.445-1.456,0-.804.647-1.456,1.445-1.456h2.271s1.56,0,1.56,0h2.271c.798,0,1.445.652,1.445,1.456,0,.804-.647,1.456-1.445,1.456h-2.271s-1.56,0-1.56,0Z" style="fill:none; stroke:#30373e; stroke-linecap:round; stroke-linejoin:round; stroke-width:.5px;"/><line x1="622.239" y1="131.338" x2="622.239" y2="128.426" style="fill:none; stroke:#30373e; stroke-linecap:round; stroke-linejoin:round; stroke-width:.5px;"/><path d="m722.168,142.613c-.003-.097-.004-.202-.004-.315,0-2.992.032-5.255.032-6.349s-.161-2.401-5.298-2.401-100.947.037-100.947.037c0,0-3.345-24.382-3.345-46.831s3.345-46.831,3.345-46.831c0,0,95.81.037,100.947.037s5.298-1.308,5.298-2.401-.032-3.356-.032-6.349c0-.113,0-.218.004-.315" style="fill:none; stroke:#30373e; stroke-linecap:round; stroke-linejoin:round; stroke-width:.5px;"/><line x1="580.905" y1="30.142" x2="577.929" y2="25.524" style="fill:none; stroke:#30373e; stroke-linecap:round; stroke-linejoin:round; stroke-width:.5px;"/><line x1="580.905" y1="143.366" x2="577.929" y2="147.983" style="fill:none; stroke:#30373e; stroke-linecap:round; stroke-linejoin:round; stroke-width:.5px;"/><path d="m461.33,83.888c.15-.137.38-.137.53,0,.92.835,2.187,2.136,2.356,2.349.12.151.182.322.182.512,0,.189-.062.361-.181.511-.211.266-1.355,1.386-2.346,2.349-.153.149-.397.149-.55,0-1.46-1.416-2.062-2.008-2.34-2.349-.242-.297-.245-.723-.006-1.023.18-.227,1.451-1.527,2.356-2.348Z" style="fill:none; stroke:#30373e; stroke-linecap:round; stroke-linejoin:round; stroke-width:.75px;"/><path d="m461.125,48.095h-3.354c-.932,0-1.688.756-1.688,1.688v5.041c0,.932.756,1.688,1.688,1.688h1.026" style="fill:none; stroke:#30373e; stroke-linecap:round; stroke-miterlimit:10; stroke-width:2px;"/><path d="m461.125,125.412h-3.354c-.932,0-1.688-.756-1.688-1.688v-5.041c0-.932.756-1.688,1.688-1.688h1.026" style="fill:none; stroke:#30373e; stroke-linecap:round; stroke-miterlimit:10; stroke-width:2px;"/><line x1="239.194" y1="86.164" x2="457.53" y2="52.303" style="fill:none; stroke:#30373e; stroke-linecap:round; stroke-miterlimit:10; stroke-width:2px;"/><line x1="239.194" y1="86.164" x2="457.603" y2="121.204" style="fill:none; stroke:#30373e; stroke-linecap:round; stroke-miterlimit:10; stroke-width:2px;"/><g style="clip-path:url(#uuid-13cddf19-dbce-4357-9914-c7afd3e93742);"><path d="m132.733,108.845v37.638c0,3.873-3.699,6.339-3.699,6.339,0,5.276-6.244,4.831-6.244,4.831h-57.365c-12.477,1.492-25.87,1.81-40.914,0H-51.278s-2.91.153-2.91-3.069c0,3.223-2.905,3.069-2.905,3.069h-10.964c-.884,1.921-1.974,1.714-1.974,1.714h-11.117c-.937,0-1.302-1.714-1.302-1.714h-84.595c-7.424,2.064-47.93.619-51.714-1.582-.148-.09-.333-.037-.418.111-.534.99-1.254,1.132-1.254,1.132l-15.25-.963c-4.164-.265-7.921-2.677-9.789-6.408-7.387-14.737-10.816-34.776-10.816-63.778s3.429-49.041,10.816-63.783c1.868-3.73,5.625-6.143,9.789-6.403l15.25-.963s.72.138,1.254,1.127c.085.148.27.201.418.116,3.783-2.201,44.29-3.651,51.714-1.582h84.595s.365-1.714,1.302-1.714h11.117s1.09-.206,1.974,1.714h10.964s2.905-.159,2.905,3.064c0-3.223,2.91-3.064,2.91-3.064H24.512c15.044-1.815,28.436-1.492,40.914,0h57.365s6.244-.45,6.244,4.831c0,0,3.699,2.461,3.699,6.334v37.644c0,.921-.291,1.826-.836,2.572l-1.455,2.016v36.183l1.455,2.011c.545.751.836,1.651.836,2.577Z" style="fill:#cfd2d4; stroke:#30373e; stroke-miterlimit:10;"/><line x1="129.036" y1="19.508" x2="129.036" y2="86.164" style="fill:none; stroke:#30373e; stroke-miterlimit:10; stroke-width:.5px;"/><polyline points="124.901 86.164 124.901 24.083 -48.511 24.083 -48.511 86.164" style="fill:none; stroke:#30373e; stroke-miterlimit:10;"/><path d="m-48.511,29.221H-1.734c4.223,0,9.267.376,12.2,3.66,2.933,3.285,9.737,10.792,17.244,10.792h31.204c1.994,0,6.687-.469,11.144-5.162,4.458-4.692,7.39-9.291,13.608-9.291h41.234" style="fill:none; stroke:#30373e; stroke-miterlimit:10; stroke-width:.5px;"/><rect x="118.795" y="18.66" width="4.352" height="3.574" rx=".575" ry=".575" style="fill:none; stroke:#30373e; stroke-miterlimit:10; stroke-width:.5px;"/><rect x="35.249" y="18.66" width="4.352" height="3.574" rx=".575" ry=".575" style="fill:none; stroke:#30373e; stroke-miterlimit:10; stroke-width:.5px;"/><line x1="124.901" y1="24.083" x2="129.036" y2="24.083" style="fill:none; stroke:#30373e; stroke-miterlimit:10; stroke-width:.5px;"/><line x1="-34.05" y1="35.51" x2="7.587" y2="35.51" style="fill:none; stroke:#30373e; stroke-miterlimit:10; stroke-width:.5px;"/><line x1="-34.05" y1="41.804" x2="7.587" y2="41.804" style="fill:none; stroke:#30373e; stroke-miterlimit:10; stroke-width:.5px;"/><line x1="102.585" y1="35.51" x2="112.017" y2="35.51" style="fill:none; stroke:#30373e; stroke-miterlimit:10; stroke-width:.5px;"/><line x1="102.585" y1="41.804" x2="112.017" y2="41.804" style="fill:none; stroke:#30373e; stroke-miterlimit:10; stroke-width:.5px;"/><line x1="77.522" y1="35.51" x2="89.919" y2="35.51" style="fill:none; stroke:#30373e; stroke-miterlimit:10; stroke-width:.5px;"/><line x1="72.401" y1="41.804" x2="89.919" y2="41.804" style="fill:none; stroke:#30373e; stroke-miterlimit:10; stroke-width:.5px;"/><line x1="129.036" y1="152.821" x2="129.036" y2="86.164" style="fill:none; stroke:#30373e; stroke-miterlimit:10; stroke-width:.5px;"/><polyline points="124.901 86.164 124.901 148.246 -48.511 148.246 -48.511 86.164" style="fill:none; stroke:#30373e; stroke-miterlimit:10;"/><path d="m-48.511,143.108H-1.734c4.223,0,9.267-.376,12.2-3.66,2.933-3.285,9.737-10.792,17.244-10.792h31.204c1.994,0,6.687.469,11.144,5.162,4.458,4.692,7.39,9.291,13.608,9.291h41.234" style="fill:none; stroke:#30373e; stroke-miterlimit:10; stroke-width:.5px;"/><rect x="118.795" y="150.095" width="4.352" height="3.574" rx=".575" ry=".575" style="fill:none; stroke:#30373e; stroke-miterlimit:10; stroke-width:.5px;"/><rect x="35.249" y="150.095" width="4.352" height="3.574" rx=".575" ry=".575" style="fill:none; stroke:#30373e; stroke-miterlimit:10; stroke-width:.5px;"/><line x1="124.901" y1="148.246" x2="129.036" y2="148.246" style="fill:none; stroke:#30373e; stroke-miterlimit:10; stroke-width:.5px;"/><line x1="-34.05" y1="136.819" x2="7.587" y2="136.819" style="fill:none; stroke:#30373e; stroke-miterlimit:10; stroke-width:.5px;"/><line x1="-34.05" y1="130.525" x2="7.587" y2="130.525" style="fill:none; stroke:#30373e; stroke-miterlimit:10; stroke-width:.5px;"/><line x1="102.585" y1="136.819" x2="112.017" y2="136.819" style="fill:none; stroke:#30373e; stroke-miterlimit:10; stroke-width:.5px;"/><line x1="102.585" y1="130.525" x2="112.017" y2="130.525" style="fill:none; stroke:#30373e; stroke-miterlimit:10; stroke-width:.5px;"/><line x1="77.522" y1="136.819" x2="89.919" y2="136.819" style="fill:none; stroke:#30373e; stroke-miterlimit:10; stroke-width:.5px;"/><line x1="72.401" y1="130.525" x2="89.919" y2="130.525" style="fill:none; stroke:#30373e; stroke-miterlimit:10; stroke-width:.5px;"/><line x1="-42.936" y1="54.455" x2="112.294" y2="54.455" style="fill:none; stroke:#30373e; stroke-miterlimit:10; stroke-width:.5px;"/><line x1="-42.936" y1="48.113" x2="112.294" y2="48.113" style="fill:none; stroke:#30373e; stroke-miterlimit:10; stroke-width:.5px;"/><line x1="-42.936" y1="60.797" x2="112.294" y2="60.797" style="fill:none; stroke:#30373e; stroke-miterlimit:10; stroke-width:.5px;"/><line x1="-42.936" y1="73.481" x2="112.294" y2="73.481" style="fill:none; stroke:#30373e; stroke-miterlimit:10; stroke-width:.5px;"/><line x1="-42.936" y1="67.139" x2="112.294" y2="67.139" style="fill:none; stroke:#30373e; stroke-miterlimit:10; stroke-width:.5px;"/><line x1="-42.936" y1="79.823" x2="112.294" y2="79.823" style="fill:none; stroke:#30373e; stroke-miterlimit:10; stroke-width:.5px;"/><line x1="-42.936" y1="86.164" x2="112.294" y2="86.164" style="fill:none; stroke:#30373e; stroke-miterlimit:10; stroke-width:.5px;"/><line x1="-42.936" y1="117.874" x2="112.294" y2="117.874" style="fill:none; stroke:#30373e; stroke-miterlimit:10; stroke-width:.5px;"/><line x1="-42.936" y1="124.216" x2="112.294" y2="124.216" style="fill:none; stroke:#30373e; stroke-miterlimit:10; stroke-width:.5px;"/><line x1="-42.936" y1="111.532" x2="112.294" y2="111.532" style="fill:none; stroke:#30373e; stroke-miterlimit:10; stroke-width:.5px;"/><line x1="-42.936" y1="98.848" x2="112.294" y2="98.848" style="fill:none; stroke:#30373e; stroke-miterlimit:10; stroke-width:.5px;"/><line x1="-42.936" y1="105.19" x2="112.294" y2="105.19" style="fill:none; stroke:#30373e; stroke-miterlimit:10; stroke-width:.5px;"/><line x1="-42.936" y1="92.506" x2="112.294" y2="92.506" style="fill:none; stroke:#30373e; stroke-miterlimit:10; stroke-width:.5px;"/><path d="m-256.286,86.164c0-29.004,3.432-49.042,10.817-63.781,1.869-3.729,5.625-6.143,9.787-6.405l15.252-.962s.718.139,1.255,1.128c.082.15.268.202.415.116,3.786-2.202,44.29-3.65,51.714-1.583h84.597s.364-1.714,1.299-1.714h11.118s1.091-.208,1.974,1.714h10.962s2.909-.156,2.909,3.065c0-3.221,2.909-3.065,2.909-3.065H24.514c15.043-1.812,28.432-1.493,40.911,0h57.364s6.247-.448,6.247,4.831c0,0,3.695,2.463,3.695,6.335v37.642c0,.924-.291,1.825-.832,2.574l-1.455,2.015v18.09" style="fill:none; stroke:#30373e; stroke-miterlimit:10; stroke-width:2px;"/><path d="m-256.286,86.164c0,29.004,3.432,49.042,10.817,63.781,1.869,3.729,5.625,6.143,9.787,6.405l15.252.962s.718-.139,1.255-1.128c.082-.15.268-.202.415-.116,3.786,2.202,44.29,3.65,51.714,1.583h84.597s.364,1.714,1.299,1.714h11.118s1.091.208,1.974-1.714h10.962s2.909.156,2.909-3.065c0,3.221,2.909,3.065,2.909,3.065H24.514c15.043,1.812,28.432,1.493,40.911,0h57.364s6.247.448,6.247-4.831c0,0,3.695-2.463,3.695-6.335v-37.642c0-.924-.291-1.825-.832-2.574l-1.455-2.015v-18.09" style="fill:none; stroke:#30373e; stroke-miterlimit:10; stroke-width:2px;"/><path d="m130.442,84.08h4.509c.452,0,.819.367.819.819v2.532c0,.452-.367.819-.819.819h-4.509v-4.169h0Z" style="fill:none; stroke:#30373e; stroke-miterlimit:10; stroke-width:2px;"/></g><line x1="239.194" y1="86.164" x2="135.77" y2="86.164" style="fill:none; stroke:#30373e; stroke-linecap:round; stroke-miterlimit:10; stroke-width:2px;"/><path d="m405.038,66.723c4.241,7.821,5.871,17.116,3.984,26.521-.812,4.046-2.217,7.822-4.106,11.256" style="fill:none; stroke:#f4ae3d; stroke-miterlimit:10; stroke-width:1.25px;"/><polygon points="403.227 68.637 403.188 63.651 407.525 66.109 403.227 68.637" style="fill:#f4ae3d; stroke-width:0px;"/><polygon points="403.117 102.578 403.043 107.563 407.397 105.136 403.117 102.578" style="fill:#f4ae3d; stroke-width:0px;"/><path d="m382.199,88.6h-4.008v-1.236l3.924-5.46h1.68v5.232h1.177v1.464h-1.177v1.92h-1.596v-1.92Zm0-1.464v-2.916l-2.1,2.916h2.1Z" style="fill:#30373e; stroke-width:0px;"/><path d="m385.306,88.9l1.332-.948c.264.408.532.7.804.876.272.176.597.264.973.264.472,0,.838-.118,1.098-.354.26-.236.39-.582.39-1.038v-.132c0-.432-.124-.748-.371-.948-.248-.2-.604-.3-1.068-.3-.256,0-.488.03-.696.09s-.439.166-.695.318l-1.188-.312.6-4.5h4.717v1.572h-3.324l-.192,1.452c.16-.048.322-.084.486-.108s.338-.036.521-.036c.601,0,1.118.118,1.555.354.436.236.77.564,1.002.984.231.42.348.902.348,1.446,0,.616-.142,1.156-.426,1.62s-.674.822-1.17,1.074-1.053.378-1.668.378c-1.265,0-2.272-.583-3.024-1.752Z" style="fill:#30373e; stroke-width:0px;"/><path d="m392.686,85.223c-.279-.172-.5-.402-.659-.69-.16-.288-.24-.592-.24-.912,0-.344.084-.658.252-.942.168-.284.392-.506.672-.666s.584-.24.912-.24c.336,0,.646.082.93.246s.508.388.672.672c.164.284.246.594.246.93s-.082.648-.246.936-.386.514-.666.678c-.279.164-.592.246-.936.246s-.656-.086-.937-.258Zm1.519-1.02c.156-.156.234-.35.234-.582s-.078-.426-.234-.582c-.156-.156-.351-.234-.582-.234-.224,0-.414.08-.57.24-.155.16-.233.352-.233.576s.078.416.233.576c.156.16.347.24.57.24.231,0,.426-.078.582-.234Z" style="fill:#30373e; stroke-width:0px;"/></svg>