<?xml version="1.0" encoding="UTF-8"?><svg xmlns="http://www.w3.org/2000/svg" width="218" height="210" xmlns:xlink="http://www.w3.org/1999/xlink" viewBox="0 0 218 210"><defs><clipPath id="uuid-9a5d6689-06e1-4637-8931-b41c9f850fbf"><path d="m177.6807,174.3052c-3.0048,2.2346-7.3314,3.7986-13.5451,3.7986h-44.1311l-6.9198-69.8568,25.1142-.6413,21.9073,23.4546,17.5746,43.2448Z" style="fill:none; stroke-width:0px;"/></clipPath></defs><g id="uuid-2f368d36-1e89-4398-a3a6-8d838e39ecdb"><path d="m49.8323,178.1038c-.0747-.2242-3.3696-15.7023-4.4531-21.2293-.2129-1.0859.6188-2.0942,1.7254-2.0942h110.1418c4.9819,0,9.1335-.0923,14.7612-3.598,5.6277-3.5058,12.3625-7.9342,12.3625-7.9342" style="fill:none; stroke:#cfd2d4; stroke-linecap:round; stroke-linejoin:round;"/><path d="m47.1046,154.7803l-3.4273-8.1187s-1.6606-.369-3.0445-1.1993-9.8716-7.8419-9.8716-7.8419c0,0-1.9374-1.3839-.5535-3.6903s11.5322-14.669,11.5322-14.669c0,0,2.3987-2.491,6.458-2.491h65.9557c.4575,0,.9029.1468,1.2708.4188l1.5614,1.1546c.545.403.8666,1.0407.8666,1.7186v4.6298c0,.1926-.0247.3795-.076.5651-.4173,1.5086-2.4493,8.7809-3.522,11.2563l7.6574,18.267" style="fill:none; stroke:#cfd2d4; stroke-linecap:round; stroke-linejoin:round;"/><path d="m114.2543,136.5133h-53.1404c-3.6903,0-5.8122.4613-8.2109,2.2142-2.3987,1.7529-9.2258,7.9342-9.2258,7.9342" style="fill:none; stroke:#cfd2d4; stroke-linecap:round; stroke-linejoin:round; stroke-width:.5px;"/><path d="m30.7612,137.6204l11.9012-14.2999s2.9522-3.1368,8.1187-3.1368h67.0713" style="fill:none; stroke:#cfd2d4; stroke-linecap:round; stroke-linejoin:round; stroke-width:.5px;"/><path d="m56.5933,110.3122s-7.7282-16.3296-12.075-21.3115c-4.3468-4.9819-9.3288-6.3658-9.3288-6.3658v-1.4761s3.6903.1845,3.0445-3.229-3.5058-11.4399-6.7348-18.1747c0,0-1.9374-2.7677-7.6574-2.7677v-1.2916h8.0264s2.86-1.8452,2.86-5.3509v-16.4219c0-1.8452-2.0115-4.1516-5.019-4.1516h-5.0371c-1.4761,0-4.3361,1.0148-4.3361,4.9819,0,0-1.4761.8303-2.491,1.9374s-4.9819,24.2637-4.9819,29.9837v14.2077c0,1.9374,1.5684,4.4284,2.86,6.3658s7.2884,10.5174,9.318,17.898c2.0297,7.3806,7.248,25.9147,7.248,25.9147" style="fill:none; stroke:#cfd2d4; stroke-linecap:round; stroke-linejoin:round;"/><path d="m23.8419,55.6957c-1.4116,0-4.3231-.9533-4.1411-3.9255s.6353-17.017.6353-17.017" style="fill:none; stroke:#cfd2d4; stroke-linecap:round; stroke-linejoin:round; stroke-width:.5px;"/><path d="m12.9115,65.3536c-.0483,1.3207,1.5121,3.5218,1.8154,6.0694s1.1525,5.1558,2.4263,6.369c1.2738,1.2131,2.7296,2.8509,5.9444,3.1541,3.2148.3033,12.092.2127,12.092.2127" style="fill:none; stroke:#cfd2d4; stroke-linecap:round; stroke-linejoin:round; stroke-width:.5px;"/><path d="m12.8632,70.4963c.5472,4.8525,2.9555,9.2366,5.3818,11.6023s8.4919,11.6461,10.1297,15.5281c1.6377,3.882,9.3251,26.6037,9.3251,26.6037" style="fill:none; stroke:#cfd2d4; stroke-linecap:round; stroke-linejoin:round; stroke-width:.5px;"/><path d="m15.2159,48.535c-.3324,1.9572-.9743,7.2386.6635,9.6042s3.7607,7.8247,4.246,10.6756c.4853,2.8509,1.6419,9.2198,1.6419,9.2198,0,0,.5229,2.3363-.9841,2.3813" style="fill:none; stroke:#cfd2d4; stroke-linecap:round; stroke-linejoin:round; stroke-width:.5px;"/><rect x="25.2205" y="34.2404" width="4.7919" height="13.0412" rx="1.7428" ry="1.7428" style="fill:none; stroke:#cfd2d4; stroke-linecap:round; stroke-linejoin:round; stroke-width:.5px;"/><path d="m23.4545,55.317v-19.6263c0-1.6719,1.3554-3.0273,3.0273-3.0273h2.2693c1.6719,0,3.0273,1.3554,3.0273,3.0273v19.6263" style="fill:none; stroke:#cfd2d4; stroke-linecap:round; stroke-linejoin:round; stroke-width:.5px;"/><path d="m19.7007,51.7702c0,2.9722.6756,5.3984,2.0665,7.4608s3.4373,7.1575,4.2338,10.6756,1.6154,9.2198,1.6154,9.2198c0,0,.1206,1.0997-.3343,2.0025" style="fill:none; stroke:#cfd2d4; stroke-linecap:round; stroke-linejoin:round; stroke-width:.5px;"/><line x1="23.8419" y1="56.9873" x2="20.5939" y2="56.9873" style="fill:none; stroke:#cfd2d4; stroke-linecap:round; stroke-linejoin:round; stroke-width:.5px;"/><path d="m26.001,81.0975c3.0332,2.7785,12.4989,20.1759,17.0611,37.1465" style="fill:none; stroke:#cfd2d4; stroke-linecap:round; stroke-linejoin:round; stroke-width:.5px;"/><path d="m45.3458,117.2022c-.7747-.432-.746-1.5391-.746-1.5391,4.7248-5.8822,9.0412-5.3509,11.9935-5.3509h31.0908c3.6903,0,6.1813,2.86,6.1813,2.86l-1.2916,3.598" style="fill:none; stroke:#cfd2d4; stroke-linecap:round; stroke-linejoin:round;"/><path d="m93.8654,113.1722h-36.3186c-3.5533,0-8.7505-.2143-12.201,4.03" style="fill:none; stroke:#cfd2d4; stroke-linecap:round; stroke-linejoin:round; stroke-width:.5px;"/><line x1="109.5623" y1="136.5133" x2="116.6069" y2="154.7803" style="fill:none; stroke:#cfd2d4; stroke-linecap:round; stroke-linejoin:round; stroke-width:.5px;"/><path d="m115.3025,133.602h-57.0653c-2.0846,0-4.6725.3877-6.3977,2.1733-1.7252,1.7856-9.9,10.3246-9.9,10.3246" style="fill:none; stroke:#cfd2d4; stroke-linecap:round; stroke-linejoin:round; stroke-width:.5px;"/><line x1="52.8459" y1="154.7803" x2="58.8206" y2="178.1038" style="fill:none; stroke:#cfd2d4; stroke-linecap:round; stroke-linejoin:round; stroke-width:.5px;"/><path d="m14.8088,27.6915c3.2407,0,6.2694.819,8.0249,2.5223" style="fill:none; stroke:#cfd2d4; stroke-linecap:round; stroke-linejoin:round;"/><path d="m3.955,27.6916l10.8538-.75c.4142-.0288.7732.2839.8018.698.0348.4509-.3515.836-.8019.802,0,0-10.8538-.75-10.8538-.75h0Z" style="fill:#cfd2d4; stroke-width:0px;"/><path d="m55.1746,27.6915c-6.8415,0-7.6464,5.8354-6.9421,9.4574.7043,3.622,7.747,39.8417,7.747,40.3447,0,0,59.4607,1.1067,67.3082,1.6098" style="fill:none; stroke:#cfd2d4; stroke-linecap:round; stroke-linejoin:round;"/><path d="m24.5585,178.1038h139.577c18.3111,0,20.2346-13.5824,20.2346-17.8803v-40.5742c0-8.4513-.4143-18.9147-2.7284-29.9819s-10.9665-16.0976-14.9909-19.1711-39.0368-28.7193-46.8844-34.3535c-7.8476-5.6342-14.4464-8.4513-20.8705-8.4513h-43.7213" style="fill:none; stroke:#cfd2d4; stroke-linecap:round; stroke-linejoin:round; stroke-width:1.5px;"/><path d="m3.955,178.1039l20.6036-.75c.4142-.0151.7622.3085.7773.7227.0177.4333-.3441.7946-.7773.7773,0,0-20.6036-.75-20.6036-.75h0Z" style="fill:#cfd2d4; stroke-width:0px;"/><path d="m197.5381,180.6709l12.6769.25-12.6769.25c-.3291.0107-.3316-.5105,0-.5h0Z" style="fill:#cfd2d4; stroke-width:0px;"/><line x1="13.7004" y1="180.9209" x2="197.5381" y2="180.9209" style="fill:none; stroke:#cfd2d4; stroke-linecap:round; stroke-linejoin:round; stroke-width:.5px;"/><path d="m3.955,180.9209l9.7454-.25c.1381-.0035.2529.1056.2564.2437.0041.1426-.1139.2604-.2564.2563l-9.7454-.25h0Z" style="fill:#cfd2d4; stroke-width:0px;"/><path d="m199.2485,185.3996l10.9665.25-10.9665.25c-.3303.0116-.3325-.5116,0-.5h0Z" style="fill:#cfd2d4; stroke-width:0px;"/><line x1="13.7004" y1="185.6496" x2="199.2485" y2="185.6496" style="fill:none; stroke:#cfd2d4; stroke-linecap:round; stroke-linejoin:round; stroke-width:.5px;"/><path d="m3.955,185.6496l9.7454-.25c.1381-.0035.2529.1055.2564.2435.0041.1426-.1139.2605-.2564.2565l-9.7454-.25h0Z" style="fill:#cfd2d4; stroke-width:0px;"/><line x1="55.9795" y1="77.4936" x2="60.8088" y2="110.2997" style="fill:none; stroke:#cfd2d4; stroke-linecap:round; stroke-linejoin:round; stroke-width:.5px;"/><line x1="56.3027" y1="79.6891" x2="38.1208" y2="79.6891" style="fill:none; stroke:#cfd2d4; stroke-linecap:round; stroke-linejoin:round; stroke-width:.5px;"/><path d="m12.9104,76.7375l-8.9554-.25,8.9554-.25c.3322-.0131.3339.5131,0,.5h0Z" style="fill:#cfd2d4; stroke-width:0px;"/><path d="m127.6767,30.8446c18.7449,13.8571,50.1015,37.5651,65.4347,50.7531,2.033,1.7485,3.5636,4.0034,4.4525,6.5332l.6919,1.9694c.4018,1.1435.6659,2.3251.7889,3.5308.9383,9.1962,4.6311,50.9791-1.5066,87.2898l1.7104,4.7287" style="fill:none; stroke:#cfd2d4; stroke-linecap:round; stroke-linejoin:round; stroke-width:.5px;"/><path d="m205.8944,83.1369c-6.3897-5.8138-13.5975-11.3256-20.307-16.7545-20.6747-16.283-41.4717-32.5713-63.8171-46.5208-8.2357-5.5378-18.411-7.6668-28.2263-7.894,0,.0001-29.8605-.0746-29.8605-.0746-14.8459.0044-44.875-.1025-59.7286-.1787,14.9284-.0733,44.8151-.1805,59.7287-.1789-.0002,0,29.8672-.0218,29.8672-.0218,9.9277.194,20.1831,2.3272,28.502,7.9835,22.1967,13.9527,43.1007,30.3489,63.6693,46.7167,6.6678,5.4852,13.8315,11.0577,20.1721,16.923h0Z" style="fill:#cfd2d4; stroke-width:0px;"/><path d="m3.955,6.6697c14.502-.1461,43.5461-.3602,58.0349-.4042-.0002,0,29.0172-.0606,29.0172-.0606,4.8392-.027,9.7609-.1288,14.5448.8192,10.8464,1.8975,20.7464,7.1758,29.7378,13.3347,10.9913,7.4924,21.6971,15.4377,32.278,23.4865,15.3958,11.7188,30.5899,23.6972,45.6486,35.844-22.9269-17.7709-45.9028-35.5101-69.5077-52.3722-11.6711-8.3118-23.9411-16.8201-38.3311-19.3343-4.7422-.9516-9.5465-.8555-14.3704-.8485,0,0-29.0174-.0606-29.0174-.0606-14.4281-.0425-43.6006-.2562-58.0348-.4041h0Z" style="fill:#cfd2d4; stroke-width:0px;"/><path d="m121.9117,19.6796s4.3837-.2655,8.2337-2.1241" style="fill:none; stroke:#cfd2d4; stroke-linecap:round; stroke-linejoin:round; stroke-width:.5px;"/><path d="m45.3458,18.6176h27.5817c28.1443,0,38.4028,0,54.7491,12.227" style="fill:none; stroke:#cfd2d4; stroke-linecap:round; stroke-linejoin:round; stroke-width:.5px;"/><path d="m3.955,18.6176l41.3908-.25c.3195-.0069.3309.5026.003.5,0,.0001-41.3928-.25-41.3938-.25h0Z" style="fill:#cfd2d4; stroke-width:0px;"/><path d="m184.3701,126.8222s-27.1533-18.1821-29.4139-20.1013-2.0095-4.2369-1.3396-5.9247,5.1074-8.3023,5.9447-9.2234,2.8467-2.4281,6.2796-2.5118,15.4963-.6716,15.4963-.6716" style="fill:none; stroke:#cfd2d4; stroke-linecap:round; stroke-linejoin:round; stroke-width:.5px;"/><path d="m172.9354,75.3324c-7.597,1.002-10.1926,1.9341-11.7834,4.3567-1.5908,2.4225-8.289,19.6133-8.7914,21.1071s-.023,4.0117,2.5956,5.9247" style="fill:none; stroke:#cfd2d4; stroke-linecap:round; stroke-linejoin:round; stroke-width:.5px;"/><path d="m180.2065,124.0282c-.2506-.1684-26.5063-4.4903-29.9391-5.3276-3.4328-.8373-7.4518-2.5515-6.9494-4.7923l3.5166-5.5062-3.004-2.3319c-.3277-.2544-.4442-.6969-.2842-1.0797l11.4935-27.4969,2.2606-2.9857s3.9644-2.6491,9.3502-4.0116" style="fill:none; stroke:#cfd2d4; stroke-linecap:round; stroke-linejoin:round;"/><line x1="146.8346" y1="108.4021" x2="157.2455" y2="108.4021" style="fill:none; stroke:#cfd2d4; stroke-linecap:round; stroke-linejoin:round; stroke-width:.5px;"/><path d="m143.5463,104.9905l-9.9408-4.71s-1.4234.1103-2.8467.5157-12.9065,4.8429-12.9065,4.8429" style="fill:none; stroke:#cfd2d4; stroke-linecap:round; stroke-linejoin:round;"/><path d="m129.6704,79.6891s3.9352.4544,11.2195,3.4479l6.5308,2.9935s2.9202,2.6048,1.9625,4.8961" style="fill:none; stroke:#cfd2d4; stroke-linecap:round; stroke-linejoin:round;"/><line x1="154.1222" y1="79.6891" x2="129.6704" y2="79.6891" style="fill:none; stroke:#cfd2d4; stroke-linecap:round; stroke-linejoin:round;"/><line x1="150.2674" y1="79.6891" x2="146.8346" y2="55.8864" style="fill:none; stroke:#cfd2d4; stroke-linecap:round; stroke-linejoin:round;"/><path d="m91.65,111.4309h44.5046c.8477,0,1.3839.9103.9728,1.6517l-8.8467,15.9542c-.6924,1.2488-2.0079,2.0235-3.4358,2.0235h-8.2379" style="fill:none; stroke:#cfd2d4; stroke-linecap:round; stroke-linejoin:round; stroke-width:.5px;"/><path d="m127.456,130.0556h26.2636c1.5284,0,3.0353.3605,4.3982,1.0522l9.4973,4.82c3.2638,1.6564,5.3202,5.0061,5.3202,8.6662v6.0083" style="fill:none; stroke:#cfd2d4; stroke-linecap:round; stroke-linejoin:round; stroke-width:.5px;"/><path d="m63.1489,110.2997c0,.0124-3.235-18.6949-3.3968-21.1212-.1618-2.4263.5661-4.4482,4.6099-4.4482s55.6424,1.5366,55.6424,1.5366" style="fill:none; stroke:#cfd2d4; stroke-linecap:round; stroke-linejoin:round; stroke-width:.5px;"/><rect x="122.2422" y="59.3313" width="5.3378" height="48.4363" rx="2.6689" ry="2.6689" transform="translate(43.4192 -42.7136) rotate(23.3838)" style="fill:none; stroke:#cfd2d4; stroke-linecap:round; stroke-linejoin:round;"/><path d="m127.456,111.4309s4.8415-.223,6.7825-3.0288c1.941-2.8058,3.9602-5.9453,3.9602-5.9453" style="fill:none; stroke:#cfd2d4; stroke-linecap:round; stroke-linejoin:round; stroke-width:.5px;"/><path d="m135.829,87.1168l5.6599,2.5341c.2472.1107.4055.354.4036.6249-.0039.5411-.0078,1.4677.0039,2.1398,0,.9837,2.9351.9837,2.9351,0l-.1584-4.4627c-.0262-.7372-.4703-1.395-1.1442-1.6949l-6.1493-2.7361c-.4745-.2111-1.0297.0095-1.23.4886l-.7961,1.9049c-.1936.4632.0175.9962.4757,1.2014Z" style="fill:none; stroke:#cfd2d4; stroke-linecap:round; stroke-linejoin:round; stroke-width:.5px;"/><line x1="141.8992" y1="83.5949" x2="141.1112" y2="85.1854" style="fill:none; stroke:#cfd2d4; stroke-linecap:round; stroke-linejoin:round; stroke-width:.5px;"/><line x1="139.3601" y1="88.7022" x2="133.6035" y2="100.2812" style="fill:none; stroke:#cfd2d4; stroke-linecap:round; stroke-linejoin:round; stroke-width:.5px;"/><path d="m26.001,108.6144s1.6021,41.505,1.6299,46.1659-1.674,15.2626-14.7677,15.2626" style="fill:none; stroke:#cfd2d4; stroke-linecap:round; stroke-linejoin:round; stroke-width:.5px;"/><path d="m12.8632,170.2929c-2.6542-.0654-6.9301-.17-9.5446-.2344.2121-.0573.4242-.0068.6363-.0156-.2121-.0087-.4242.0416-.6364-.0156l.6359-.0156c.8027-.0201,2.9863-.0731,3.818-.0938,0,0,5.0907-.125,5.0907-.125.3288-.0121.3346.5121,0,.5h0Z" style="fill:#cfd2d4; stroke-width:0px;"/><path d="m34.7282,140.8654c.1893,13.0362,2.5771,37.2384-17.6712,37.2384" style="fill:none; stroke:#cfd2d4; stroke-linecap:round; stroke-linejoin:round; stroke-width:.5px;"/><line x1="55.1746" y1="27.6915" x2="14.8088" y2="27.6915" style="fill:none; stroke:#cfd2d4; stroke-linecap:round; stroke-linejoin:round; stroke-width:1.5px;"/><path d="m199.4965,185.681l-2.1596,15.0603,1.6636-15.1232c.0317-.3263.5472-.2641.496.0629h0Z" style="fill:#cfd2d4; stroke-width:0px;"/></g><g id="uuid-78ec202e-6080-4fd4-a1ba-7fd0608d5497"><g style="clip-path:url(#uuid-9a5d6689-06e1-4637-8931-b41c9f850fbf);"><polygon points="134.3837 167.7498 137.4759 179.4965 147.532 177.0773 144.6831 163.3229 134.3837 167.7498" style="fill:#f4f4f4; stroke:#30373e; stroke-miterlimit:10; stroke-width:1.5px;"/><path d="m148.1023,171.4555c.3719.1719,3.0191,2.3467,6.6657,3.7986,5.4882-.2119,10.6352.2947,10.7322,1.6746.0833,1.1854.3148,2.5802.4089,3.4638s-2.8074,2.3096-9.6398,3.1859c-6.8324.8763-22.1015,1.687-22.1015,1.687-2.1118.1647-2.4583-3.9306-1.8466-5.3173-.2822-2.6509,1.5603-5.2026,2.1681-5.7886,4.9572,2.0238,11.2357.4178,13.613-2.704Z" style="fill:#f4f4f4; stroke:#30373e; stroke-miterlimit:10; stroke-width:1.5px;"/><path d="m132.4062,179.6795c.5401,1.6781,3.7081,1.5982,7.4768,1.3529,5.3726-.3497,10.8169-.7907,14.4382-1.123,3.1112-.2855,9.2808-.8965,10.6978-3.6179" style="fill:#f4f4f4; stroke:#30373e; stroke-miterlimit:10; stroke-width:1.5px;"/></g><path d="m147.1259,169.731c.1223-1.7182-7.6367-35.3739-10.7901-48.3133-.7512-3.0825-3.3425-5.3775-6.4964-5.7228-13.1606-1.4406-43.5794-.8345-52.6703.8608-8.2996,1.4561-25.2003,11.542-19.6667,21.0647,1.7394,2.3235,2.5831,4.0746,9.5515,3.245,12.6963-1.5114,52.9171-7.6782,52.9171-7.6782,0,0,.0239-.0184.0582-.0448,2.3092,5.687,11.4131,28.352,14.6065,39.977,7.7104-1.5519,12.4902-3.3884,12.4902-3.3884Z" style="fill:#f4f4f4; stroke:#30373e; stroke-linecap:round; stroke-linejoin:round; stroke-width:1.5px;"/><path d="m59.9663,66.7242l-.5298-8.8266,4.1033,1.7097c.6454.2689,1.3811-.0838,1.5755-.7554l.8414-3.1369-.0529-.9431.5061-.5482.1833-3.8765.8348-.1098c1.0435-.1372,1.671-1.2289,1.2644-2.1997l-2.0429-4.8769c1.1385-7.67-1.9878-8.7272-1.9878-8.7272,0,0,.8348-.8014,2.1854-2.8199-2.5327-.2153-7.8269-3.3862-10.2294-4.0552-2.5508-.7103-9.7916-.4121-12.3563,3.922-5.0007,1.6555-6.6292,13.6377,1.8433,20.3268l-.1552,6.289-.9673,4.3632" style="fill:#f4f4f4; stroke:#30373e; stroke-linecap:round; stroke-linejoin:round; stroke-width:1.5px;"/><path d="m59.9663,66.7243l-.5298-8.8265,4.1033,1.7097c.6454.2689,1.3811-.0838,1.5755-.7554l.8414-3.1369-.0529-.9431.5061-.5482.1833-3.8765.8348-.1098c1.0435-.1372,1.671-1.2289,1.2644-2.1997l-2.0428-4.8769c.8866-6.3553-1.9878-8.7272-1.9878-8.7272,0,0,1.5696-1.1392,2.9203-3.1577-3.2571.1237-8.5617-3.0484-10.9643-3.7175-2.5508-.7103-9.7916-.4121-12.3563,3.9219-5.0007,1.6555-6.6292,13.6377,1.8433,20.3267l-.1552,6.289-.9673,4.3632" style="fill:#f4f4f4; stroke:#30373e; stroke-linecap:round; stroke-linejoin:round; stroke-width:1.5px;"/><path d="m44.929,60.2006s5.486-1.3579,15.6647,4.5422c2.0624,6.3417,8.3384,7.5368,9.9495,19.6872l5.972,31.1049c-8.249,10.3354-13.7321,14.78-22.2257,14.9575,0,0-3.4479-15.1171-6.2438-25.2082-3.0279-10.9284-13.9275-30.4166-3.1167-45.0837Z" style="fill:#f4f4f4; stroke:#30373e; stroke-linecap:round; stroke-linejoin:round; stroke-width:1.5px;"/><path d="m91.1638,112.5204c6.6452-.1045,9.4924.0862,11.4608.942,1.9684.8558,3.7513,1.9816,3.7661,2.3298s.4144,2.2213-.3174,2.6817c-.4114.6636-1.2952,1.5577-2.6041,1.9851-1.4943,1.4801-2.4774,2.0833-4.1803,1.6831-1.7029-.4002-4.0343-1.868-5.5505-2.9469-1.5163-1.0789-5.4973-3.8352-5.4973-3.8352l2.9227-2.8395Z" style="fill:#f4f4f4; stroke:#30373e; stroke-linecap:round; stroke-linejoin:round; stroke-width:1.5px;"/><path d="m44.6072,71.5193c-1.1305,2.4572-.6219,7.7986,3.8094,13.2682,4.4313,5.4696,12.5745,21.3074,13.6305,23.0517,5.6029,2.9676,27.9411,10.731,29.5192,11.3511,1.5782.6201,5.8037-6.908,2.0298-8.3909l-21.7354-11.2315-6.676-17.2698s-2.2508-11.703-7.1553-13.9736" style="fill:#f4f4f4; stroke-width:0px;"/><path d="m44.6072,71.5193c-1.0871,5.0675,2.0442,9.8614,5.0536,13.6509,3.0715,4.2018,5.5933,8.7354,8.1488,13.24,0,0,4.9434,9.0017,4.9434,9.0017,0,0-.3195-.3016-.3195-.3016,9.0862,4.2922,19.8941,7.8139,29.3706,11.3743,1.5189-.8876,4.099-5.9377,1.4961-7.0406.0015.0026-21.7196-11.3133-21.7282-11.3165,0,0-.2111-.11-.2111-.11l-.0872-.2225-6.756-17.2385c-.0149-.03-.0305-.0903-.0353-.1231-1.1727-5.0399-2.6614-10.3725-6.4527-14.1087,4.8066,1.1968,6.8334,9.5685,7.8579,13.8383-.2127-.6455,6.6097,17.337,6.5605,17.1779,0,.0001-.2981-.332-.2981-.332l21.7714,11.1615-.0659-.0299c.5083.198,1.0107.5461,1.3548,1.0227,1.8391,2.1892-.8067,8.7996-3.6139,8.7936-9.7982-3.4998-20.5171-7.0104-29.9352-11.3879,0-.0002-.2077-.1033-.2077-.1033l-.1121-.1989c-1.7252-3.0627-3.2652-6.0658-4.9418-9.0732-2.4938-4.4628-4.9673-8.9776-7.9494-13.1162-3.139-3.8733-6.2657-9.6129-3.8427-14.5578h0Z" style="fill:#30373e; stroke-width:0px;"/><path d="m71.8607,99.568s-2.1013.7954-4.7456,5.1844" style="fill:#f4f4f4; stroke-width:0px;"/><path d="m72.1262,100.2695c-2.0797.8473-3.6292,2.7404-5.0112,4.4828,1.0951-2.1969,2.3111-4.5363,4.48-5.8857,0,0,.5311,1.4029.5311,1.4029h0Z" style="fill:#30373e; stroke-width:0px;"/><path d="m37.4375,38.0406c.1818,3.8185.3541,9.9053.2105,11.1781-.201,1.7418-1.292,4.0769-1.7801,4.967-.4785.8805-.4785,1.2059-1.6461,1.292-.2201.0096-.5742.0191-1.0049.0383" style="fill:none; stroke:#cfd2d4; stroke-linecap:round; stroke-linejoin:round; stroke-width:1.5px;"/><path d="m37.283,140.7462s-1.2908-2.1782-2.1378-4.2354-1.2101-3.9127-1.2908-4.8807-.2824-3.7917-.484-7.301c-.2017-3.5093-.8471-4.8404-1.2908-6.0909s-3.7513-9.9632-7.543-19.402c-3.7917-9.4388-6.0909-12.9078-6.7362-13.9565s-1.1294-2.5009-1.1698-2.9446-.7261-9.9632-.7261-10.3665.6454-1.0084.6454-1.0084c0,0-.2824-2.8236-.3227-4.1547s.7664-8.6724.8874-10.0035,2.7832-17.3448,3.1059-18.4339.8471-1.3714,2.3799-2.1782c.7664-6.2119,5.9295-5.7278,9.5195-5.6471s4.9211,3.3076,5.1228,4.9614.6051,12.3834.4034,14.1179-1.2908,4.074-1.7748,4.9614-.484,1.2101-1.6538,1.2908c-1.1698.0807-5.9698.0403-6.8169,0s-.3281.1776-2.7886-.5081l-.1963,1.3552s.8067.121,3.711.2017,3.8804.7923,5.0905,2.2041c3.8723,5.1228,6.0538,14.968,6.6116,17.4129.4856,2.1284-.7806,2.3994-1.3714,2.6219-.7074.2663-1.9751.6134-1.9751.6134,1.2157,1.1836,3.1643,2.8503,4.4482,4.1104,2.8989,2.845,3.1583,3.4419,5.2961,6.1041,6.0123,7.9216,10.1395,14.6,12.2912,19.3999,2.0975,4.6791,3.3415,12.7079,2.6558,16.6609-.6857,3.953-1.8666,5.7376-2.3506,6.9477s-1.6941,3.348-1.6941,3.348c-2.4957,4.8699-14.3664,13.0413-19.8457,4.8001Z" style="fill:#f4f4f4; stroke:#30373e; stroke-linecap:round; stroke-linejoin:round; stroke-width:1.5px;"/><path d="m22.6004,35.7899s-.7261,12.5447-.8874,14.5212.7959,3.7032,2.8988,4.655" style="fill:none; stroke:#30373e; stroke-linecap:round; stroke-linejoin:round; stroke-width:1.5px;"/><path d="m22.0875,52.5865c-.2534,2.0811-.6971,2.4441.755,6.4778,1.4521,4.0337,2.4605,7.422,3.3076,11.3346s1.4521,7.5833,1.4521,7.5833c0,0,.2824,1.4925.9681,1.5731" style="fill:none; stroke:#30373e; stroke-linecap:round; stroke-linejoin:round; stroke-width:.5px;"/><path d="m16.5499,70.5602c.7261,3.2269.7664,4.6387,1.6538,5.7278.8874,1.0891,1.4521,1.8555,1.4521,1.8555,0,0,.8929.9681,2.0397,1.0891s13.0768.8836,14.7865.1426" style="fill:none; stroke:#30373e; stroke-linecap:round; stroke-linejoin:round; stroke-width:1.5px;"/><path d="m35.0309,79.7024c.5081-.0664.7193-1.0748.3562-2.9303s-4.437-16.1347-4.8404-17.5465-1.2523-2.361-2.7841-2.7133" style="fill:none; stroke:#30373e; stroke-linecap:round; stroke-linejoin:round; stroke-width:.5px;"/><path d="m19.6558,78.1435c1.2504.5244,2.1782.4034,1.8152-2.2185s-1.4118-10.4472-2.0168-12.3027-2.6933-5.3979-1.7378-11.2012" style="fill:none; stroke:#30373e; stroke-linecap:round; stroke-linejoin:round; stroke-width:.5px;"/><path d="m26.584,55.4581s-1.8566-.2259-1.9722-3.3318c-.1156-3.1059.2474-14.6826.2474-15.8927,0-1.2101.3227-3.3883,2.3799-3.4286,2.0572-.0403,3.7917,0,3.7917,0,0,0,2.1782.121,2.2589,2.7429.0807,2.6219.363,15.449.363,16.4574,0,1.0084-.1613,3.2753,1.1698,3.4528" style="fill:none; stroke:#30373e; stroke-linecap:round; stroke-linejoin:round; stroke-width:.5px;"/><rect x="26.6682" y="34.428" width="4.7155" height="12.4691" rx="1.8748" ry="1.8748" style="fill:none; stroke:#30373e; stroke-linecap:round; stroke-linejoin:round; stroke-width:.5px;"/><rect x="28.1556" y="36.3585" width="1.7723" height="7.4372" rx=".65" ry=".65" style="fill:none; stroke:#30373e; stroke-linecap:round; stroke-linejoin:round; stroke-width:.5px;"/><path d="m27.1546,30.366c4.3873-.4003,8.3278-.3054,8.4147,4.5367s.3717,14.0832.3717,14.8111.5234,2.7619,1.4326.8113" style="fill:none; stroke:#30373e; stroke-linecap:round; stroke-linejoin:round; stroke-width:.5px;"/><path d="m24.4156,56.3213s-1.8326.0392-2.211.7983" style="fill:none; stroke:#30373e; stroke-linecap:round; stroke-linejoin:round; stroke-width:.5px;"/><path d="m17.7425,75.5406c.3176,1.7382.5708,2.4028,1.2037,3.3839s.7279,1.1393.7279,1.1393c0,0,.7469,1.076,2.1457,1.2343,1.3988.1582,11.8425.4747,12.5704.5064s1.0127-.2215,1.0127-.538v-1.564" style="fill:none; stroke:#30373e; stroke-linecap:round; stroke-linejoin:round; stroke-width:.5px;"/><path d="m16.0896,74.4203c.1981,2.8124,1.1116,4.7027,3.1802,7.3867,2.0686,2.684,4.8461,5.8665,7.3029,11.489,2.4568,5.6224,9.1404,22.9671,9.9094,25.1949.769,2.2278,1.2463,5.039,1.0342,7.2137s-2.6101,8.9771-.5359,14.5135" style="fill:none; stroke:#30373e; stroke-linecap:round; stroke-linejoin:round; stroke-width:.5px;"/><path d="m44.1465,132.6275c-.2122-.1865.5835-6.2863.6365-7.6654s-.5835-6.0468-1.273-8.2745-4.3494-11.5631-6.4711-16.5491c-2.1217-4.9859-7.1645-15.5607-7.4789-16.2839-.5304-1.22-1.326-3.4477-.9897-4.2993" style="fill:none; stroke:#30373e; stroke-linecap:round; stroke-linejoin:round; stroke-width:.5px;"/><path d="m50.0027,162.2729s-1.1189.4025-1.2206,2.2343-.952,13.5967-.952,13.5967h82.844s-1.93-6.3536-2.5943-8.0609c-.6643-1.7073-3.9935-1.8723-3.9935-1.8723,0,0-1.6282-7.0725-2.0352-8.3954s-1.5264-4.7828-5.9022-4.4267c-4.3758.3562-6.7646.4209-6.7646.4209" style="fill:#f4f4f4; stroke:#cfd2d4; stroke-linecap:round; stroke-linejoin:round;"/><path d="m80.7097,167.5092c-.4976-1.6146-.8396-3.9307-.8014-4.3886s.3435-1.4502,2.2897-1.6791,27.0949-2.5187,30.1097-2.6332c3.0148-.1145,3.8162.6869,4.5413,2.8621s.8014,3.053.7632,3.7399.3816,1.8699-1.8318,2.0989c-2.2134.229-31.2546,1.2593-32.8574,1.2975s-2.0852-.8817-2.2134-1.2975Z" style="fill:none; stroke:#cfd2d4; stroke-linecap:round; stroke-linejoin:round; stroke-width:.25px;"/><path d="m83.9535,163.2351s23.7749-2.0989,25.454-2.1371,2.0989.3816,2.3279,1.2975.3435,1.9081.3435,1.9081c0,0,.4961,1.1449-1.2593,1.2593-1.7554.1145-25.1487,1.183-25.7974,1.183s-1.3357-.4198-1.4502-1.2593-.4579-1.9844.3816-2.2516Z" style="fill:none; stroke:#cfd2d4; stroke-linecap:round; stroke-linejoin:round; stroke-width:.25px;"/><path d="m104.7834,157.5871c8.6693-.5343,11.0353-.5724,11.913-.5724s2.4735.3816,3.183,3.3582c.7095,2.9766,1.9681,8.2047,1.9681,8.2047" style="fill:none; stroke:#cfd2d4; stroke-linecap:round; stroke-linejoin:round; stroke-width:.25px;"/><path d="m37.283,140.7462c.1802-5.0696,3.9462-7.2974,5.9087-7.8278,1.9626-.5304,7.188-1.5643,21.9886,8.024,4.4025-2.1747,18.064-7.3208,24.3967-9.0711,6.3328-1.7504,13.2282-4.1373,19.8054-2.0156l10.9972,3.406c1.4717.4558,2.4753,1.819,2.4673,3.3597-.0004.0741-.0008.1484-.0008.2229,0,1.0891-.121,11.6374-.2824,12.7669s-1.4925,1.4925-4.2757,2.5412-5.7771,1.542-7.7536,2.9134c-1.9765,1.3714-5.0824,2.5009-7.6236,2.9446s-43.9671,4.195-48.6058,4.5984c-4.6387.4034-6.0909-1.1698-6.9379-2.1782s-6.2522-9.6808-8.269-13.1094c-2.0168-3.4286-1.8152-6.5749-1.8152-6.5749" style="fill:#f4f4f4; stroke:#30373e; stroke-linecap:round; stroke-linejoin:round; stroke-width:1.5px;"/><path d="m65.1803,140.9424c.7664,1.3644.9318,1.7142,3.2277,3.5171,2.0888,1.6403,5.5989,4.462,8.0641,5.2825,1.7579.585,6.1298.6802,11.7522.2559,5.6224-.4243,13.4726-1.5382,17.6099-2.0686,4.1373-.5304,13.022-1.5766,14.295-2.1772s2.0498-.4419,2.6427-1.7677" style="fill:none; stroke:#30373e; stroke-linecap:round; stroke-linejoin:round; stroke-width:.5px;"/><path d="m39.4268,147.8756c-2.0696-3.235-2.482-11.5452,2.133-14.2736,3.2263-1.9075,9.0935-.4407,13.4429,2.3175,4.3494,2.7582,11.8928,8.9752,17.6363,13.1466,3.4762,2.5247,6.2778,3.3786,15.7569,2.4388,8.1515-.8082,18.2279-2.4532,23.7476-3.2915,4.3119-.6549,10.5479-1.4396,10.5882-3.2074" style="fill:none; stroke:#30373e; stroke-linecap:round; stroke-linejoin:round; stroke-width:.5px;"/><path d="m67.0539,143.1771c12.1526-3.0822,23.5043-6.2158,31.4075-7.0703,7.9032-.8546,13.95,1.4673,16.2308,1.8976s8.222,1.6837,8.1555-.0667" style="fill:none; stroke:#30373e; stroke-linecap:round; stroke-linejoin:round; stroke-width:.5px;"/><path d="m81.4806,147.7686c-.9746-1.253-1.6545-4.039-1.7264-4.7336-.0969-.9369.7208-2.0456,2.6174-2.506,4.8172-1.1695,13.1985-2.8402,16.1222-3.3414s4.7058-.6404,6.822,1.086c2.1162,1.7264,1.615,3.6477,1.3087,4.8729s-.4455,1.6707-.4455,1.6707c0,0-.2228,1.4479-2.0327,1.8656s-15.9826,2.1134-19.2966,2.1162c-2.4225.0021-3.3692-1.0303-3.3692-1.0303Z" style="fill:none; stroke:#30373e; stroke-linecap:round; stroke-linejoin:round; stroke-width:.5px;"/><path d="m81.4806,147.7686c-.9746-1.253-1.6545-4.039-1.7264-4.7336-.0969-.9369.7208-2.0456,2.6174-2.506,4.8172-1.1695,13.1985-2.8402,16.1222-3.3414s4.7058-.6404,6.822,1.086c2.1162,1.7264,1.615,3.6477,1.3087,4.8729s-.4455,1.6707-.4455,1.6707c0,0-.2228,1.4479-2.0327,1.8656s-15.9826,2.1134-19.2966,2.1162c-2.4225.0021-3.3692-1.0303-3.3692-1.0303Z" style="fill:none; stroke:#30373e; stroke-linecap:round; stroke-linejoin:round; stroke-width:.5px;"/><circle cx="85.2849" cy="144.3961" r="2.2909" style="fill:none; stroke:#30373e; stroke-linecap:round; stroke-linejoin:round; stroke-width:.5px;"/><circle cx="85.2849" cy="144.3961" r="3.111" style="fill:none; stroke:#30373e; stroke-linecap:round; stroke-linejoin:round; stroke-width:.5px;"/><path d="m89.3876,141.5288s2.5463,3.7927,2.7474,4.0607.6567.7371,1.2598.6969.9247-.067,1.1659-.0804.9247-.3752.4021-1.2196-2.5195-3.7257-2.7876-4.0875-.8041-.6299-1.367-.5227-.9783.2278-1.1391.268-.5897.4257-.2814.8845Z" style="fill:none; stroke:#30373e; stroke-linecap:round; stroke-linejoin:round; stroke-width:.5px;"/><path d="m90.4061,141.7164s2.1443,3.069,2.3051,3.2968.3752.4155.6969.3886.6031-.067.6031-.067c0,0,.4021-.0402.0804-.5093s-2.1041-3.069-2.2649-3.2834-.3172-.4753-.679-.3949l-.5271.1378s-.3969.1279-.2144.4313Z" style="fill:none; stroke:#30373e; stroke-linecap:round; stroke-linejoin:round; stroke-width:.5px;"/><path d="m97.6003,142.9356s5.742-1.01,6.264-1.078.8511.1601.7717.6417-.1475.7994-.2156,1.015-.3972.7876-.9305.8818-3.8015.6729-4.1987.7183-.9759-.0454-1.2937-.3972-.556-.7376-.7376-.9646-.1021-.6695.3404-.817Z" style="fill:none; stroke:#30373e; stroke-linecap:round; stroke-linejoin:round; stroke-width:.5px;"/><path d="m98.5535,143.3206s4.3349-.7583,4.7207-.8213.4312.1467.3631.4106-.1929.5755-.1929.5755c0,0-.1248.3806-.6014.4714s-2.837.4993-3.0639.5333-.6128-.0227-.8057-.2383-.488-.556-.556-.6695.0113-.24.1362-.2618Z" style="fill:none; stroke:#30373e; stroke-linecap:round; stroke-linejoin:round; stroke-width:.5px;"/><path d="m85.6075,142.9725q.0175.0137.0194.0295c.0037.0315-.026.0507-.0416.0525l-.1899.0063c-.0157.0018-.0332-.0121-.0489-.0103l-.1575-.1249-.0175-.0137-.0156.0018-.1265.1419c-.0137.0176-.0295.0194-.0451.0212l-.19.0062c-.0313.0036-.0487-.0101-.0524-.0416-.0018-.0156-.0036-.0313.0119-.0331l.3811-.4103c.0139-.0174.0295-.0194.0295-.0194.0157-.0018.0313-.0035.0331.0121l.4099.3818Z" style="fill:#30373e; stroke-width:0px;"/><path d="m85.7688,145.7211q.0139-.0176.0121-.0331c-.0037-.0315-.0212-.0452-.0525-.0416l-.1899.0062c-.0157.0018-.0313.0036-.0452.0212l-.1264.1418-.0157.0018s-.0156.0018-.0174-.0138l-.1576-.1249c-.0174-.0139-.0331-.0121-.0487-.0103l-.1899.0063c-.0315.0037-.0452.0211-.0416.0525.0018.0157.0036.0313.0192.0295l.4236.3642q.0176.0139.0333.0121c.0156-.0018.0313-.0036.0295-.0194l.3672-.3927Z" style="fill:#30373e; stroke-width:0px;"/><path d="m83.7787,144.0442q.0138-.0174.0295-.0192c.0313-.0036.0489.0101.0525.0416l.0062.1902c.0018.0156-.0119.0331-.0101.0489l-.1265.142-.0138.0174.0018.0157.1574.1247c.0176.0139.0194.0296.0212.0454l.0062.19c.0037.0315-.0258.0507-.0416.0525-.0156.0018-.0313.0036-.0331-.0119l-.4236-.3642q-.0176-.0139-.0194-.0295c-.0018-.0157-.0037-.0315.0121-.0333l.3811-.4103Z" style="fill:#30373e; stroke-width:0px;"/><path d="m86.6473,143.8534q-.0175-.0137-.0333-.0119c-.0313.0036-.0451.021-.0414.0525l.0062.19c.0018.0157.0037.0315.0212.0454l.1574.1247.0018.0157s.0018.0157-.0139.0176l-.1264.1418c-.0139.0176-.0121.0333-.0103.0489l.0064.1902c.0037.0315.0211.0452.0525.0416.0156-.0018.0313-.0036.0295-.0192l.3811-.4103q.0138-.0175.0119-.0331c-.0018-.0157-.0037-.0315-.0192-.0297l-.4236-.3642Z" style="fill:#30373e; stroke-width:0px;"/><path d="m49.093,172.6482s1.2155.1526,3.556-.5597c2.3405-.7123,17.5941-5.2408,17.5941-5.2408,0,0,1.232-.7123,2.0969.9667s1.2826,2.5949,2.5493,2.5441,46.5001-1.73,46.9581-1.7808,2.2388-.407,2.2388-.407" style="fill:none; stroke:#cfd2d4; stroke-linecap:round; stroke-linejoin:round; stroke-width:.25px;"/></g><g id="uuid-785c401d-ef88-4eac-9e69-0df6d93be829"><path d="m24.5585,178.1038h139.577c18.3111,0,20.2346-13.5824,20.2346-17.8803v-40.5742c0-8.4513-.4143-18.9147-2.7284-29.9819s-10.9665-16.0976-14.9909-19.1711-39.0368-28.7193-46.8844-34.3535c-7.8476-5.6342-14.4464-8.4513-20.8705-8.4513" style="fill:none; stroke:#cfd2d4; stroke-linecap:round; stroke-linejoin:round; stroke-width:1.5px;"/><circle cx="189.3515" cy="27.2621" r="18.3524" style="fill:none; stroke:#f4ae3d; stroke-miterlimit:10; stroke-width:4px;"/><polyline points="199.3109 20.1322 186.3301 33.113 180.7095 27.4923" style="fill:none; stroke:#f4ae3d; stroke-miterlimit:10; stroke-width:4px;"/></g></svg>