<?xml version="1.0" encoding="UTF-8"?><svg xmlns="http://www.w3.org/2000/svg" width="325" height="362" viewBox="0 0 325 362"><g id="uuid-6812bdea-603e-4a81-af6e-31bc899ca674"><path d="m239.8921,115.4738s-1.3458-.5123-3.5555-1.361c-.9864-.3747-2.141-.8182-3.4255-1.3075-1.0628-.4052-2.2174-.8411-3.4255-1.3075-1.101-.4206-2.248-.8564-3.4255-1.3152-7.998-3.0585-17.5788-6.744-23.2677-8.9767-1.4605-.5735-3.1273-.4588-4.8094.2523l-.0689-.1682-56.3607-25.8826-.4512-.2065c-.7111-1.231-1.7128-2.1945-2.959-2.7756l-20.0028-9.1755c-4.4195-2.0339-10.3835,1.5063-13.3198,7.891-2.9361,6.3923-1.7281,13.2204,2.6915,15.2467l19.9949,9.1908c1.2541.5735,2.638.6958,4.0373.4435l.4512.2065,56.3607,25.875.1224-.0459c.5582,1.7586,1.5674,3.1044,2.9897,3.8002,6.2316,3.0662,15.2466,7.6234,22.5947,11.3624,1.1317.5735,2.2251,1.1317,3.265,1.6593,1.1698.5964,2.2709,1.1622,3.2725,1.6745,1.1852.5964,2.2252,1.1316,3.1044,1.5827,1.8428.9405,2.9439,1.5063,2.9439,1.5063l.0077-.0077c.0305.023.061.0382.0917.0612.1912-1.0705.4589-2.2557.8335-3.5632.6804-2.378,1.6898-5.1536,3.1731-8.3803l2.141-4.6643c1.7204-3.7466,3.3949-6.6217,4.9395-8.8238.7111-1.0093,1.3917-1.881,2.0339-2.6303h.0077c.0305-.0306.0535-.0688.0841-.0994l-.0688-.0612Z" style="fill:#f4ae3d; stroke-width:0px;"/><path d="m117.4524,62.9816c-.843-1.866-2.1623-3.3256-3.9187-4.1322l-54.8578-25.1915c-5.1433-2.3619-12.0775,1.749-15.4916,9.1838-3.4113,7.4285-2.0104,15.367,3.133,17.7289l54.8578,25.1915c1.7564.8066,3.7233.856,5.688.2794" style="fill:none; stroke:#a6abb0; stroke-miterlimit:10;"/><path d="m73.6513,40.5349c-5.1433-2.3619-12.0775,1.749-15.4916,9.1838-3.4113,7.4285-2.0104,15.367,3.133,17.7289" style="fill:none; stroke:#a6abb0; stroke-miterlimit:10;"/><path d="m367.464,223.1173l-117.1202-61.6693c-2.7884-1.2805-1.0624-10.9997,3.8552-21.7084,4.9176-10.7087,11.1646-18.3518,13.953-17.0714l106.4947,41.0178" style="fill:none; stroke:#a6abb0; stroke-miterlimit:10;"/><path d="m47.2992,61.0216c-2.2035.9472-4.3844,1.0815-6.2541.2229l-1.6683-.7661-4.2871-1.9687-8.0581-3.7004c-5.798-2.6625-7.2079-11.9925-3.1491-20.8312,4.0617-8.845,12.0571-13.8559,17.8552-11.1934l8.0581,3.7004,4.2871,1.9687,1.6683.7661c1.8697.8586,3.1891,2.6003,3.9066,4.8889" style="fill:none; stroke:#a6abb0; stroke-miterlimit:10;"/><path d="m49.7958,26.4852c-1.0288-3.636-3.1099-6.4745-6.1443-7.8679-7.3089-3.3564-17.3876,2.9542-22.5075,14.1033-5.1169,11.1428-3.3352,22.8999,3.9738,26.2563,3.0344,1.3934,6.5436,1.122,9.9719-.4672" style="fill:none; stroke:#a6abb0; stroke-miterlimit:10;"/><path d="m34.1602,14.7015c.9273.1349,1.8287.3966,2.6917.7929l6.7996,3.1229" style="fill:none; stroke:#a6abb0; stroke-miterlimit:10;"/><path d="m12.339,35.2262c.4741-1.8657,1.1393-3.762,2.0033-5.6353,2.6991-5.88,6.7899-10.4219,11.1177-12.8993" style="fill:none; stroke:#a6abb0; stroke-miterlimit:10;"/><path d="m11.4214,41.8784c-.0918,6.484,2.3168,11.8747,6.8969,13.9774l6.7975,3.1197" style="fill:none; stroke:#a6abb0; stroke-miterlimit:10;"/><path d="m39.594,3.9476c8.9961,4.1311,14.1754,13.6521,14.489,24.5064l-12.3452-5.6691c-5.798-2.6625-13.7934,2.3484-17.8552,11.1933-4.0589,8.8387-2.649,18.1687,3.149,20.8312l12.3452,5.6691c-8.4307,6.8386-19.0276,9.1152-28.03,4.9811C-2.4023,59.1458-7.2289,40.258.5708,23.2731,8.3705,6.2882,25.8449-2.3662,39.594,3.9476Z" style="fill:none; stroke:#a6abb0; stroke-miterlimit:10;"/><path d="m6.2984,62.2634c-.5123-.1912-1.017-.3976-1.514-.627-13.748-6.3158-18.5728-25.2021-10.7736-42.1845C1.81,2.4619,19.2818-6.186,33.0298.1221c1.8428.8487,3.5173,1.9192,5.0312,3.1885l.0076.0076" style="fill:none; stroke:#a6abb0; stroke-miterlimit:10;"/><path d="m32.8157,56.6587c-.2141.1759-.4282.3441-.6499.5047" style="fill:none; stroke:#a6abb0; stroke-miterlimit:10;"/><path d="m.3802,58.9602c-1.0399-.3059-2.0721-.6882-3.0738-1.1469-13.748-6.3158-18.5804-25.2021-10.7812-42.1845C-5.6757-1.3612,11.8037-10.0168,25.5517-3.701c1.5828.7264,3.0509,1.621,4.3966,2.6685" style="fill:none; stroke:#a6abb0; stroke-miterlimit:10;"/><path d="m-7.2967,54.9841c-1.1393-.3211-2.2633-.7264-3.3644-1.2311-13.748-6.3082-18.5804-25.2021-10.7736-42.1845C-13.6354-5.4138,3.8363-14.0694,17.5843-7.7535c1.6592.7646,3.1885,1.7051,4.5801,2.8138" style="fill:none; stroke:#a6abb0; stroke-miterlimit:10;"/><path d="m-15.5623,50.6793h-.0076c-1.2387-.3288-2.4545-.7646-3.6396-1.3075-13.748-6.3158-18.5804-25.2021-10.7812-42.1845C-22.1916-9.8027-4.7122-18.4507,9.0358-12.1425c1.7892.8258,3.4255,1.858,4.9089,3.0814" style="fill:none; stroke:#a6abb0; stroke-miterlimit:10;"/><path d="m101.1754,85.7658c-5.1406-2.3606-6.5408-10.3-3.1275-17.7331,3.4134-7.4331,10.3477-11.5451,15.4884-9.1844" style="fill:none; stroke:#a6abb0; stroke-miterlimit:10; stroke-width:.5px;"/><path d="m41.047,61.244c-5.1768-2.3773-6.0817-11.4726-2.0211-20.315,4.0605-8.8424,11.5489-14.0834,16.7257-11.7062" style="fill:none; stroke:#a6abb0; stroke-miterlimit:10; stroke-width:.5px;"/><path d="m241.4654,160.9853c3.6398-2.4895,9.5651-9.7548,7.301-21.3355,4.7603-2.7147,14.4532-13.1505,12.5195-23.8398" style="fill:none; stroke:#a6abb0; stroke-miterlimit:10;"/><line x1="248.7664" y1="139.6497" x2="234.8685" y2="133.2676" style="fill:none; stroke:#a6abb0; stroke-miterlimit:10;"/><path d="m228.6635,136.8023s2.0939-5.0527,6.205-3.5346c0,0-3.5473-2.6989-1.2524-7.6964" style="fill:none; stroke:#a6abb0; stroke-miterlimit:10;"/><path d="m155.9756,107.2379c-3.0524,12.6724-2.3043,22.7145-1.5561,31.1598.7481,8.4453,3.1421,30.8892,4.788,35.6772s11.9701,39.6509,12.8678,44.1397,2.394,12.1197,2.6933,17.5062c.2993,5.3865,2.2634,37.1516,2.2634,37.1516" style="fill:none; stroke:#a6abb0; stroke-miterlimit:10;"/><path d="m197.5962,301.3043c13.2233,2.7555,19.5166-11.1196,18.7685-19.9475-.7481-8.8279-2.394-24.9875-2.394-24.9875,0,0,4.0399-7.3317-1.7955-16.01,0,0-1.5761-21.8454-4.4539-30.2245-2.8778-8.3791-11.7057-40.3936-12.9027-49.1494-1.197-8.7558-1.9293-26.1444-.8898-33.909" style="fill:none; stroke:#a6abb0; stroke-miterlimit:10;"/><path d="m187.9695,125.5712c.0919,14.8279-.1799,29.8875,2.9219,44.4536,3.935,16.2578,9.7275,32.1256,13.0117,48.5404,2.6892,21.2177,5.6452,45.3179,7.7333,66.5596.7258,5.4837-1.4848,11.5805-6.0968,14.7934,4.5589-3.2523,6.6948-9.3239,5.9138-14.7798-2.0177-18.95-4.8564-42.0191-7.2877-60.9754-.4565-3.2177-.9028-7.8833-1.8336-10.9729-3.7598-14.3988-8.0982-28.6465-11.7635-43.0912-3.0854-14.6234-2.6931-29.6706-2.5991-44.5279h0Z" style="fill:#a6abb0; stroke-width:0px;"/><path d="m327.8171,362.38c-24.639-6.611-36.9788-4.3226-66.2795-3.814-29.3008.5085-88.8,7.1196-151.3504-23.3928-62.5504-30.5124-99.1182-50.6002-115.7476-52.1253" style="fill:none; stroke:#a6abb0; stroke-miterlimit:10;"/><path d="m238.2195,260.7174c6.1411,13.1972,5.8051,26.7758,5.2052,30.9756-1.0171,7.1196-5.5939,15.2562-17.0798,23.6471-39.2013,10.4251-70.8976-6.3567-93.2734-16.019-22.3758-9.6623-87.2146-43.4802-126.3722-56.4479,0,0-14.7718-4.8335-19.919-7.0171s-9.8265-5.3032-4.0554-10.9183" style="fill:none; stroke:#a6abb0; stroke-miterlimit:10;"/><path d="m213.9315,237.0249c10.775,4.4328,19.7556,12.9137,24.7412,23.4816,0-.0001-.9065.4218-.9065.4218-4.6269-10.582-13.2704-19.1935-23.8347-23.9034h0Z" style="fill:#a6abb0; stroke-width:0px;"/><path d="m199.0071,318.6362s-28.8121-16.5182-43.3055-33.8085c-14.4934-12.9678-20.0356-13.9204-30.4866-14.8425s-63.5766-4.4297-63.5766-4.4297" style="fill:none; stroke:#a6abb0; stroke-miterlimit:10;"/><path d="m186.3452,300.4678c3.3032,3.1732,5.88,5.4824,7.0881,6.2241,4.9854,3.0509,19.4368,11.8211,37.7649,4.7713" style="fill:none; stroke:#a6abb0; stroke-miterlimit:10;"/><path d="m54.3705,262.2364c-5.2071-4.6183-1.9039-11.4847,9.5426-11.2247,11.4388.2523,53.3939,4.6107,63.3112,5.6124,9.9172.994,20.0103,4.5572,26.5326,10.9112,2.9973,2.9209,10.5672,10.7812,18.3434,18.7181" style="fill:none; stroke:#a6abb0; stroke-miterlimit:10;"/><path d="m161.1284,265.5554c-18.3195-17.5841-36.1352-19.7049-60.3798-20.5325-12.629-.4892-30.9321-.9433-43.7548-1.3568-7.2935-.2508-14.5864-.408-21.8787-.8927-1.8697.0021-3.6437-.6432-5.2256-1.6-10.9214-6.5422-22.8124-11.7998-35.4501-13.8104,7.2097,1.1585,14.2822,3.1459,21.008,6.0062,4.8507,2.0324,9.9874,4.9308,14.5903,7.5306,1.587.9428,3.248,1.547,5.1036,1.5421,7.2712.4554,14.5741.5853,21.8645.8077,12.889.3339,31.0586.7849,43.7602,1.3584,24.361.9503,42.1472,3.0432,60.3623,20.9476h0Z" style="fill:#a6abb0; stroke-width:0px;"/><path d="m172.0754,218.2145c-11.1362-6.8965-30.6917-5.9781-43.678-6.3594-41.3265-.5849-92.8737-.8854-133.9777-2.2189-4.7998-.0753-9.9887.5345-14.3529,2.8233,4.3806-2.3368,9.4636-2.9988,14.3761-2.9707,41.1925.9918,92.521,1.271,133.9591,2.0483,13.1393.4123,32.4119-.4008,43.6735,6.6774h0Z" style="fill:#a6abb0; stroke-width:0px;"/><path d="m210.0804,221.198c15.7997,3.3677,24.5482,2.0964,33.6503,7.9446" style="fill:none; stroke:#a6abb0; stroke-miterlimit:10;"/><path d="m213.9315,229.1426c21.5143,12.2354,39.7524,29.7179,55.8323,48.3693,16.1232,18.6973,35.5704,34.7597,58.0534,45.2019-5.6267-2.5647-11.1118-5.4393-16.4147-8.6299-15.8509-9.7094-29.8009-22.2808-42.0141-36.2429-7.9048-9.5135-16.5576-18.3609-25.7689-26.6047-9.242-8.1783-18.913-16.0098-29.6879-22.0937h0Z" style="fill:#a6abb0; stroke-width:0px;"/><path d="m331.4021,337.4616c-14.5298-2.799-29.3573-3.4782-44.125-3.1423-14.7722.2829-29.536.962-44.2729,2.0313-22.0579,1.6469-44.5103,2.2951-66.2866-2.2613-14.5027-2.8074-28.5986-7.8862-41.902-14.2705-20.004-9.5591-39.627-19.8876-59.3483-30.0056-26.3996-13.0181-52.373-28.0223-81.0275-35.4985,14.4262,3.3075,28.0162,9.4462,41.4318,15.5628,34.3054,16.0467,67.3872,34.569,101.6433,50.7135,2.2713,1.0003,6.58,2.8831,8.8723,3.8839,9.8734,3.8455,20.0024,7.1608,30.4208,9.1663,21.7398,4.5892,44.1205,3.9815,66.1738,2.3785,14.7419-1.0387,29.5139-1.6993,44.2917-1.9438,14.7743-.255,29.6097.5058,44.1285,3.3855h0Z" style="fill:#a6abb0; stroke-width:0px;"/><path d="m168.4559,204.97c-27.7563-15.2393-114.9709-71.6872-149.0431-99.9112-2.797-9.1537-9.2077-21.5879-24.9732-21.3435" style="fill:none; stroke:#a6abb0; stroke-miterlimit:10;"/><path d="m-5.5604,129.9773s2.5975-1.6453,9.2085,6.2969c6.611,7.9422,27.9697,37.4375,42.4631,47.6083,0,0-10.9336,3.0512-27.9697,2.5427s-36.3606-1.7799-36.3606-1.7799" style="fill:none; stroke:#a6abb0; stroke-miterlimit:10;"/><path d="m46.1112,183.8825c19.8331-6.611,22.911-20.3416,10.1842-29.241-12.7269-8.8994-45.0192-35.0706-54.1729-44.615,0,0-4.1538-4.294-8.5763-5.428" style="fill:none; stroke:#a6abb0; stroke-miterlimit:10;"/><path d="m234.058,208.6437c-7.8833-9.8331-.4435-31.5791,10.8883-46.9022" style="fill:none; stroke:#a6abb0; stroke-miterlimit:10;"/><path d="m253.6139,163.1698c-12.1485,11.9412-27.4966,48.7951-14.7794,58.0282l3.7243,2.9653" style="fill:none; stroke:#a6abb0; stroke-miterlimit:10;"/><path d="m267.3486,170.3874c-15.0072,14.7512-33.9671,60.2775-18.2572,71.6833l9.3446,5.2522" style="fill:none; stroke:#a6abb0; stroke-miterlimit:10;"/><path d="m289.091,181.8502c-40.0808,50.7251-33.2891,84.0344-21.7423,85.0515s14.7251,1.1442,14.7251,1.1442" style="fill:none; stroke:#a6abb0; stroke-miterlimit:10;"/><path d="m311.8285,193.8225c-21.2367,34.4301-42.214,93.2936-21.491,93.8021,11.9507-1.1442,19.0702-3.3055,19.0702-3.3055,0,0,6.3567,10.6793,7.6281,13.7306s4.6536,6.9924,10.7813,3.0512" style="fill:none; stroke:#a6abb0; stroke-miterlimit:10;"/><line x1="233.4362" y1="183.503" x2="195.1815" y2="163.1698" style="fill:none; stroke:#a6abb0; stroke-miterlimit:10;"/><path d="m218.9364,175.796s-3.4475,32.9431,0,46.9839" style="fill:none; stroke:#a6abb0; stroke-miterlimit:10;"/><path d="m154.7376,141.799l-66.6173-36.18h-9.2504c-1.0735,0-2.1299-.2685-3.0731-.7811L-7.2476,59.7094" style="fill:none; stroke:#a6abb0; stroke-miterlimit:10;"/><path d="m108.4604,56.5197c-.382-9.1874,1.2056-15.7109-7.4127-17.7222s-9.6389-2.1175-11.5666-5.8065c-1.9278-3.6891-11.4532-22.4384-6.9173-36.6506,0,0,1.3608-4.1197,7.2575-6.1609" style="fill:none; stroke:#a6abb0; stroke-miterlimit:10;"/><path d="m115.9029-8.8254l18.9525,68.7042.7916,5.4687c.0578.3992.4.6955.8034.6955h1.6861l6.116,4.0823,2.5043,7.6701" style="fill:none; stroke:#a6abb0; stroke-miterlimit:10;"/><path d="m172.7991,291.1751c1.5073,1.9617,5.1063,6.4684,8.2677,9.0652.8344.6854,1.9357.9452,2.9916.7196l8.5626-1.8296,5.6671-2.995c.4446-.235.7297-.689.7475-1.1916.086-2.4271.3503-9.7008.5618-13.5733.0206-.3771-.1104-.7401-.3672-1.0171-1.5435-1.6649-7.1292-7.7244-9.2918-10.5405-.3327-.4333-.8834-.6296-1.4165-.5102l-9.0546,2.0291-5.016,3.1765c-.8559.542-1.4448,1.4222-1.6048,2.4226-.3242,2.0273-.7905,6.0105-.7792,12.1064.0014.7743.2599,1.5239.7317,2.1379Z" style="fill:none; stroke:#a6abb0; stroke-miterlimit:10;"/><path d="m172.1725,284.0633l.805-7.1905c.1066-.9521.7604-1.7499,1.6741-2.0382,1.7947-.5662,4.9049-1.4572,7.6866-1.8049.7896-.0987,1.574.2106,2.0995.8081l8.3412,9.4836c.4182.4755.6334,1.096.5994,1.7284l-.6579,12.2307c-.0587,1.0916-.8419,2.0083-1.911,2.2367l-1.8766.401" style="fill:none; stroke:#a6abb0; stroke-miterlimit:10;"/><line x1="199.4662" y1="280.7098" x2="193.158" y2="283.9136" style="fill:none; stroke:#a6abb0; stroke-miterlimit:10;"/><path d="m188.1497,300.0855c3.1426,1.8428,6.484,2.378,9.4431,1.2158l3.5096-1.3763c6.6752-2.615,8.885-12.884,4.9395-22.9388-3.9378-10.0549-12.5475-16.0801-19.2227-13.4651l-3.502,1.3763c-3.1426,1.2311-5.2989,4.1672-6.2852,7.9751" style="fill:none; stroke:#a6abb0; stroke-miterlimit:10;"/><path d="m197.5962,301.3043c6.6731-2.6177,8.8856-12.8899,4.9418-22.9435-3.9438-10.0537-12.5505-16.0817-19.2236-13.464" style="fill:none; stroke:#a6abb0; stroke-miterlimit:10;"/><path d="m52.6926,181.1299s5.5271-3.7649-2.8968-10.1599c-8.4239-6.395-35.5638-33.6908-40.8669-38.838-5.3032-5.1472-10.9183-12.3221-17.3133-11.0743" style="fill:none; stroke:#a6abb0; stroke-miterlimit:10; stroke-width:.5px;"/><line x1="16.1187" y1="152.085" x2="-26.4777" y2="158.1592" style="fill:none; stroke:#a6abb0; stroke-miterlimit:10;"/><path d="m88.1203,105.619c-6.0387-3.1224-4.2557-21.2853,0-25.8518" style="fill:none; stroke:#a6abb0; stroke-miterlimit:10;"/><path d="m77.2341,105.4071c-6.926-3.7638-10.6831-14.415-1.9039-31.5132" style="fill:none; stroke:#a6abb0; stroke-miterlimit:10;"/><line x1="359.7729" y1="113.1954" x2="241.3881" y2="-71.0251" style="fill:none; stroke:#a6abb0; stroke-miterlimit:10;"/><polyline points="159.8546 -72.1708 170.0254 38.7975 175.4498 53.6578" style="fill:none; stroke:#a6abb0; stroke-miterlimit:10;"/><path d="m154.7376,81.4603l-4.1718-14.0413,14.8185-4.2558s-.0409-5.4847,2.2679-6.6435,18.4454-5.9466,18.4454-5.9466c0,0,4.7878-.4309,5.6744,5.9466.8866,6.3775,1.8619,18.4427,1.8619,18.4427l-26.9535,7.3762-1.2962-19.1753" style="fill:none; stroke:#a6abb0; stroke-miterlimit:10;"/><line x1="166.6805" y1="82.3386" x2="165.3843" y2="86.3495" style="fill:none; stroke:#a6abb0; stroke-miterlimit:10;"/><path d="m191.6833,50.567l3.2234.1348c2.0577.1808,4.7009-.0091,5.9961,1.959.6131.9496.7942,2.0584.9741,3.1189,0,0-.0948-.1327-.0948-.1327l6.6704,3.3277c2.2974,2.4327,2.4247,5.9226,2.734,9.0358,0,0,.7781,9.3765.7781,9.3765.4561,5.464.9145,13.2322,1.2638,18.7716-.7968-8.3455-1.785-19.7542-2.5354-28.1019-.2215-2.9429-.5579-6.5884-2.4419-8.6845.0001,0-6.6284-3.4105-6.6284-3.4105l-.0817-.042c-.2193-2.2422-.968-4.3059-3.4586-4.6943-1.8273-.4205-4.514-.4784-6.3991-.6583h0Z" style="fill:#a6abb0; stroke-width:0px;"/><path d="m208.9727,61.4786c-3.5662-1.2858-4.8084,2.1733-5.9944,4.7547-3.5756,7.7295-7.4973,16.222-11.1706,23.8518-.6033,1.8693-1.1872,4.0677-.6563,6.0732-.3321-.9925-.3369-2.0651-.2364-3.1018.1122-1.0452.3173-2.0789.6443-3.0859,2.3716-5.3527,4.8044-10.6771,7.3025-15.9716,1.2545-2.6447,2.4955-5.2958,3.8081-7.9141l.9904-1.9621c.7974-2.0578,3.1209-3.7595,5.3125-2.6443h0Z" style="fill:#a6abb0; stroke-width:0px;"/><path d="m171.2023,37.5397c.1301-4.614,7.2206-7.108,10.8778-8.5053,4.5881-1.5767,9.3549-2.5638,14.1508-3.2268,7.1794-.8535,14.6183-1.1905,21.6714.6826,2.3081.6814,4.6398,1.6555,6.3203,3.4245-1.7386-1.7088-4.076-2.5895-6.3845-3.1882-7.0363-1.6888-14.4115-1.3055-21.5421-.4237-4.7759.6183-9.5137,1.6071-14.0933,3.0946-3.6239,1.3222-10.7445,3.6384-11.0004,8.1424h0Z" style="fill:#a6abb0; stroke-width:0px;"/><path d="m230.8723,62.6736c-6.7528,5.646-6.7243,17.9673-6.6499,26.113-.767-8.1445-.6652-20.8592,6.6499-26.113h0Z" style="fill:#a6abb0; stroke-width:0px;"/><path d="m237.9653,111.9721c2.1292-6.119,3.2462-12.0556,10.7276-13.2376,7.1739-2.079,14.5936-3.9239,21.4347-6.8964,6.1961-4.0983,10.4519-11.4124,10.0476-18.941-.1365-3.0011-.9352-5.9505-2.1345-8.7142,1.2694,2.7315,2.1505,5.6704,2.3668,8.7012.5506,7.6591-3.719,15.1652-10.0327,19.3533-6.9095,3.0752-14.3153,4.8373-21.5841,6.8784-7.2833.9757-8.581,6.965-10.8254,12.8562h0Z" style="fill:#a6abb0; stroke-width:0px;"/><path d="m248.5162-8.2546l51.0697,105.8632s.8866,3.3692,0,5.3198c-.8866,1.9506-4.4331,3.4578-4.4331,3.4578l11.2944,31.0317" style="fill:none; stroke:#a6abb0; stroke-miterlimit:10;"/><path d="m295.1527,106.3863s-1.2413-2.6599-6.0291-1.5073c-4.7878,1.1526-30.9965,10.0069-30.9965,10.0069" style="fill:none; stroke:#a6abb0; stroke-miterlimit:10;"/><path d="m299.5859,102.9284c.3759-1.6987-2.2166-5.8517-10.1962-3.9898s-39.5388,13.0334-39.5388,13.0334" style="fill:none; stroke:#a6abb0; stroke-miterlimit:10; stroke-width:.5px;"/><path d="m180.366,58.4742c-.1384,1.4945.4874,3.4666,2.0738,3.7465,2.3519.1587,3.4893-3.0638,2.7246-4.9625-1.1583-2.8671-4.1808-1.0859-4.7983,1.2162.0627-.8501.3984-1.6958.975-2.3922,2.6519-2.8218,5.7182.4846,4.9509,3.5859-1.1372,5.1492-7.3051,4.0629-5.926-1.1937h0Z" style="fill:#a6abb0; stroke-width:0px;"/><ellipse cx="184.0505" cy="59.2164" rx="2.3535" ry="1.7869" transform="translate(89.6576 227.9504) rotate(-78.6116)" style="fill:none; stroke:#a6abb0; stroke-miterlimit:10; stroke-width:.5px;"/><path d="m170.4502,65.9053c-.1386,1.4945.4873,3.4666,2.0738,3.7465,2.3519.1586,3.4891-3.0639,2.7245-4.9625-1.1583-2.8672-4.1807-1.0859-4.7981,1.2161.0625-.8501.3984-1.6958.9749-2.3922,2.652-2.8218,5.7184.4848,4.9509,3.5859-1.1372,5.1494-7.3052,4.0628-5.9259-1.1937h0Z" style="fill:#a6abb0; stroke-width:0px;"/><ellipse cx="174.1347" cy="66.6474" rx="2.3535" ry="1.7869" transform="translate(74.415 224.1935) rotate(-78.6116)" style="fill:none; stroke:#a6abb0; stroke-miterlimit:10; stroke-width:.5px;"/><line x1="134.8554" y1="59.8789" x2="173.5211" y2="48.374" style="fill:none; stroke:#a6abb0; stroke-miterlimit:10; stroke-width:.5px;"/><line x1="135.7476" y1="66.043" x2="169.0565" y2="55.9506" style="fill:none; stroke:#a6abb0; stroke-miterlimit:10; stroke-width:.5px;"/><line x1="144.2525" y1="70.1253" x2="150.83" y2="68.2891" style="fill:none; stroke:#a6abb0; stroke-miterlimit:10; stroke-width:.5px;"/><line x1="64.9733" y1="138.3976" x2="138.1365" y2="133.2676" style="fill:none; stroke:#a6abb0; stroke-miterlimit:10;"/><polyline points="10.5725 89.6504 23.0442 90.6088 36.852 95.5736 61.6571 97.1541" style="fill:none; stroke:#a6abb0; stroke-miterlimit:10;"/><path d="m13.946,89.9097s14.6247,6.7811,14.7874,7.2444c.0948.2701,4.357,1.4777,7.8952,2.4378,2.8635.777,5.0131,3.1457,5.5091,6.0711l3.2565,19.206" style="fill:none; stroke:#a6abb0; stroke-miterlimit:10; stroke-width:.5px;"/><path d="m62.6324,137.0737l1.2883-13.5236s-.4103-1.6991,5.3111-1.4434,23.7437,1.4434,23.7437,1.4434l18.4514,6.286v5.3044" style="fill:none; stroke:#a6abb0; stroke-miterlimit:10; stroke-width:.5px;"/><line x1="92.9755" y1="123.55" x2="96.1817" y2="109.9971" style="fill:none; stroke:#a6abb0; stroke-miterlimit:10; stroke-width:.5px;"/><polygon points="-2.2817 39.868 18.2958 42.3747 18.151 43.3642 -2.2817 39.868 -2.2817 39.868" style="fill:#a6abb0; stroke-width:0px;"/><polygon points="18.181 41.7236 12.1246 35.4418 12.4084 35.523 -1.1279 38.2965 12.2722 34.9254 12.4291 34.8859 12.5563 35.0067 18.8853 41.0138 18.181 41.7236 18.181 41.7236" style="fill:#a6abb0; stroke-width:0px;"/><path d="m36.4572,18.0231L25.2942,3.1943l.379-.1367c.0224,2.2709.073,8.0497.0297,10.2432-.0621.9872.0334,2.4545-.2414,3.3936.1711-.5372.1127-1.1259.1415-1.6882.014-1.0755-.0575-4.0027-.0866-5.1166,0,0-.2667-6.8187-.2667-6.8187l-.0251-.6404.4042.5036,11.6179,14.4752-.7895.6137h0Z" style="fill:#a6abb0; stroke-width:0px;"/><path d="m25.3506,16.2069c3.8537-.5541,8.0538-.4369,11.5014,1.5093-3.5265-1.6123-7.5996-1.3844-11.2798-.5342,0,0-.2216-.9751-.2216-.9751h0Z" style="fill:#a6abb0; stroke-width:0px;"/><polyline points="25.4614 67.5258 28.178 59.8789 36.852 62.3464" style="fill:none; stroke:#a6abb0; stroke-miterlimit:10; stroke-width:.5px;"/><path d="m215.187,248.0296c4.389,2.8521,8.4721,6.8358,11.7676,11.7982,9.9325,14.9408,8.9844,33.0396-2.118,40.4259-5.8953,3.9225-13.4727,4.0372-20.7673,1.0475" style="fill:none; stroke:#a6abb0; stroke-miterlimit:10;"/><path d="m188.3544,122.1067l-56.809-26.0875c-1.3988.2572-2.7823.1326-4.035-.4427l-19.9999-9.1862c-4.4199-2.0297-5.6238-8.856-2.689-15.247,2.9348-6.391,8.897-9.9265,13.317-7.8968l20.0019,9.1819c1.2528.5753,2.2489,1.5435,2.9654,2.772l56.809,26.0875" style="fill:none; stroke:#30373e; stroke-miterlimit:10; stroke-width:1.5px;"/><path d="m239.8935,115.4735s-25.9791-9.904-37.104-14.2705c-4.0833-1.6027-9.7526,2.2052-12.8793,9.0141-3.1268,6.8089-2.3804,13.7084,1.5563,15.6432,12.2296,6.0107,35.1822,17.7798,35.1822,17.7798" style="fill:none; stroke:#30373e; stroke-miterlimit:10; stroke-width:1.5px;"/><path d="m214.1302,137.0737c-3.4844-1.6001-3.5609-8.8818-.1708-16.2642,3.3901-7.3824,8.963-12.0699,12.4474-10.4698" style="fill:none; stroke:#30373e; stroke-miterlimit:10; stroke-width:.5px;"/><path d="m217.3816,138.7803c-3.5315-1.6217-3.6089-9.0018-.1731-16.4839,3.4359-7.4821,9.084-12.2329,12.6155-10.6112" style="fill:none; stroke:#30373e; stroke-miterlimit:10; stroke-width:.5px;"/><path d="m220.6331,140.487c-3.5785-1.6433-3.657-9.1217-.1754-16.7036,3.4817-7.5818,9.2051-12.3959,12.7836-10.7526" style="fill:none; stroke:#30373e; stroke-miterlimit:10; stroke-width:.5px;"/><path d="m223.8846,142.1937c-3.6256-1.6649-3.7051-9.2417-.1777-16.9232,3.5275-7.6815,9.3261-12.5589,12.9517-10.894" style="fill:none; stroke:#30373e; stroke-miterlimit:10; stroke-width:.5px;"/><path d="m240.0756,115.7185c-.0688-.0306-.1376-.0612-.2064-.0841-3.6779-1.4146-9.4049,3.4867-12.9146,11.1253-3.4408,7.4933-3.4943,14.8949-.2064,16.9365" style="fill:none; stroke:#30373e; stroke-miterlimit:10; stroke-width:.5px;"/><path d="m227.5816,140.1331c-.2294-3.2726.6423-7.5622,2.6227-11.89,2.0645-4.5037,4.8936-8.0668,7.631-9.9784" style="fill:none; stroke:#30373e; stroke-miterlimit:10; stroke-width:.5px;"/><path d="m127.5085,95.5736c-4.4199-2.0297-5.6238-8.856-2.689-15.247,2.9348-6.391,8.897-9.9265,13.317-7.8968" style="fill:none; stroke:#30373e; stroke-miterlimit:10; stroke-width:.5px;"/><path d="m132.0248,96.1584c-3.9502-1.814-5.0261-7.9148-2.4032-13.6265,2.6229-5.7117,7.9515-8.8715,11.9016-7.0575" style="fill:none; stroke:#30373e; stroke-miterlimit:10; stroke-width:.5px;"/><path d="m268.1864,122.5932s-2.8347-4.3614-5.1442-5.9767l-16.2213-5.7112c-.3214-.1476-.6845-.1467-.9916-.0012-1.7245.8167-7.0304,3.3341-12.9329,16.1875l-2.1391,4.6581c-5.9025,12.8534-4.354,18.5185-3.8496,20.3587.0898.3277.3258.6037.6472.7513l14.9032,8.5816c2.7304.699,7.8857.0068,7.8857.0068" style="fill:none; stroke:#a6abb0; stroke-miterlimit:10;"/></g><g id="uuid-5baa933b-23aa-406d-ada6-889ad4116d17"><polygon points="175.2308 143.2942 158.7673 122.215 142.3037 143.2942 149.9316 143.2942 149.9316 166.4668 167.6029 166.4668 167.6029 143.2942 175.2308 143.2942" style="fill:#f4ae3d; stroke:#f4f4f4; stroke-miterlimit:10; stroke-width:1.5px;"/></g></svg>