<svg xmlns="http://www.w3.org/2000/svg" width="325" height="243.4445" viewBox="0 0 325 243.4445"><g id="bc3d2f73-561d-4297-9b0a-8af7a8604670" data-name="below"><path d="M337.9407,228.3786c-6.9517-5.9343-19.4985-19.8376-29.8412-31.8758s-25.0937-32.2149-25.6023-38.3187-1.0173-14.751-3.5606-24.5851-7.9689-29.1629-9.6645-33.0626-3.8614-7.2225-5.0482-8.24c-1.5-2.8568-2.2855-13.7842-2.2141-14.7841l.9285-.9285s-2.4283-11.3559-2.5-18.7122c-.0714-4.2853.7143-6.0708.7857-7.8563.07-1.7439.8208-16.6369,3.7836-28.842a4.5707,4.5707,0,0,1,.7414-1.5967l2.26-3.1292s.7142-6.2136,3.0711-8.499,5.785-4.2139,11.3559-5.3566a25.2931,25.2931,0,0,1,15.9983,2.5711c1.5.8571,3.2853,3.4282,3.4282,7.1421s.5,19.2837-.5714,27.7828-6.285,14.3555-7.9991,14.4984a47.4117,47.4117,0,0,1-9.6419,0c8.7848,2.5711,19.7836,6.0708,23.926,10.4274s8.57,8.0706,11.9987,15.1413,7.0707,15.9982,7.6421,18.2837,1.0713,7.4992-5.2138,8.4991c4.071,1.2856,14.7127,7.7849,19.5694,17.141s13.5982,28.9969,13.5982,28.9969" style="fill:none;stroke:#cfd2d4;stroke-miterlimit:10"/><path d="M261.4968,68.6144c2.1557,2.1131,10.3691,5.7556,12.0118,6.684s3.4282,1.2856,5.0708,5.5709,6.8565,13.7842,9.2848,16.2125,10.07,7.7135,11.713,8.999,6.9992,1.857,10.7131,1.9284a106.488,106.488,0,0,0,11.713-1.0713" style="fill:none;stroke:#cfd2d4;stroke-miterlimit:10"/><path d="M264.2239,92.2966c12.7843,9.6418,22.069,17.3553,25.7115,21.9262a56.4371,56.4371,0,0,1,8.8562,16.8554c2.0712,6.2136,10.6417,33.1392,11.57,36.8531s-.7856,6.9993-1.4284,8.2849-3.3568,8.7847-7.4277,5.3565-16.411-15.4165-18.8115-22.3138" style="fill:none;stroke:#cfd2d4;stroke-miterlimit:10;stroke-width:0.5px"/><path d="M311.7237,200.6924s-13.4981.4985-17.4751-.3853-6.8933-1.9442-9.3678-4.7723a44.3315,44.3315,0,0,1-5.8328-7.8655,32.1238,32.1238,0,0,1-2.2094-7.07c-.3535-1.7676-3.1816-28.8106-3.1816-28.8106s-11.4889-9.8179-14.9355-14.4094c-2.3862-3.531-1.3257-5.2985,0-7.5079s8.5031-11.6656,11.4889-14.3657l2.9857-2.7" style="fill:none;stroke:#cfd2d4;stroke-miterlimit:10"/><path d="M262.81,141.8679c1.5667,1.5293,3.5115,1.5251,5.5442-.6843s9.807-10.54,9.807-10.54" style="fill:none;stroke:#cfd2d4;stroke-miterlimit:10;stroke-width:0.5px"/><path d="M273.657,151.7887l3.9769,3.0048s2.5489,1.5024,4.5886,0" style="fill:none;stroke:#cfd2d4;stroke-miterlimit:10"/><path d="M257.7266,135.5756c-4.1309-3.76-8.4614-12.6859-8.7265-13.658s-2.74-2.89-2.2978-6.615-.3535-9.2927-1.2372-13.5348-7.4236-23.6847-8.219-25.7174a24.7083,24.7083,0,0,0-4.1537-6.2747c-.707-.53-1.2372-1.5908-1.5908-3.535s-1.2372-7.2469-1.2372-7.2469,0-.707,1.2372-1.5907l-.707-3.8886a9.843,9.843,0,0,1-1.1489-2.3861c-.1767-.8838-1.414-14.8472,1.5024-32.6108a10.4638,10.4638,0,0,1,2.4746-3.3583c.8837-4.6839,1.5907-6.0979,4.0653-7.2468s5.3025-2.5629,9.3678-1.5908,6.54,2.9164,6.6282,6.8933.2652,15.731-.0883,18.9125-2.2094,9.1027-5.0375,9.1027h-6.8933s8.6608,2.74,10.34,3.3583a17.2336,17.2336,0,0,1,8.94,7.4582" style="fill:none;stroke:#cfd2d4;stroke-miterlimit:10"/><path d="M233.2142,14.871A2.7734,2.7734,0,0,1,236.0834,13.6a1.9494,1.9494,0,0,1,1.8519.8506,2.38,2.38,0,0,1,.2066,1.3537l-.0228,1.1089-.0146,2.2558c.0013,5.2293-.0027,12.9232-.1305,18.0662a10.1813,10.1813,0,0,0,3.5877,7.7638c2.0487,2.2206,4.0849,4.3955,6.3512,6.4153a20.2576,20.2576,0,0,1,4.5851,7.7842c1.3024,4.1579,3.0166,8.6552,4.5211,12.77.3572,1.3138,1.6183,3.0293.5046,4.2394,1.0978-1.2125-.1961-2.9259-.5629-4.2173L255.34,67.7724c-2.3165-5.4643-3.303-11.7836-7.6952-16.0962-2.2622-1.9574-4.3825-4.1565-6.4475-6.3348a10.746,10.746,0,0,1-3.8478-8.09c.0694-6.09-.09-14.22-.1365-20.3431a7.4421,7.4421,0,0,0-.0951-1.9995c-.2871-.48-1.1613-.3092-1.6434-.3865a1.75,1.75,0,0,0-1.4432.925l-.817-.5767Z" style="fill:#cfd2d4"/><path d="M262.7807,75.8211c6.5795,3.3546,9.79,5.2366,11.34,6.2329a19.7972,19.7972,0,0,1,5.5352,6.8637,35.005,35.005,0,0,0,9.1623,11.6241c5.008,4.2068,13.0895,10.2956,16.5214,12.7312a32.0607,32.0607,0,0,1,11.4027,12.7311c3.5426,7.0851,15.2773,35.5365,17.0486,40.961s2.967,11.3127-2.5019,20.9891" style="fill:none;stroke:#cfd2d4;stroke-miterlimit:10;stroke-width:0.5px"/><path d="M230.3879,52.8354c3.0931,1.3257,6.6814,2.6234,7.7419,5.0979s2.6513,6.7166,3.4467,7.9539a34.6814,34.6814,0,0,0,5.391,6.0095c2.5629,2.2978,5.3909,3.977,8.0422,4.2421a50.6129,50.6129,0,0,0,7.771-.3177" style="fill:none;stroke:#cfd2d4;stroke-miterlimit:10"/><path d="M233.0924,69.7757C239.19,74.2829,248.47,82.59,249.6187,85.9485s10.3184,28.4571,10.8153,30.8433a15.1331,15.1331,0,0,1,0,6.8933c-.5636,2.2978-1.8009,7.07-4.3638,5.4793s-7.07-7.2468-7.07-7.2468" style="fill:none;stroke:#cfd2d4;stroke-miterlimit:10;stroke-width:0.5px"/><path d="M267.6367,16.1141a8.3029,8.3029,0,0,1,2.9711-2.3755,9.14,9.14,0,0,1,3.7883.048,6.7991,6.7991,0,0,1,1.8916.4241c1.3755.6572,1.5294,2.2275,1.4235,3.56-.104,5.7264-.36,17.7393-.4643,23.3667.0274,5.6379-.9538,12.6063,3.7279,16.7087l2.647,2.4243c3.5533,3.2137,7.1626,6.3641,10.6988,9.6085,7.0447,6.7868,9.5643,16.6141,12.5993,25.5889l2.2127,6.84c.8079,1.9607.9652,5.868-2.0674,5.5327,3.0168.2967,2.8279-3.565,2.0079-5.513l-2.2719-6.82c-2.3638-6.76-4.2995-13.7794-8.2427-19.8279a26.207,26.207,0,0,0-4.4921-5.5245c-4.4122-3.9729-9.0491-7.914-13.4534-11.92-4.859-4.1514-4-11.3754-4.0536-17.11.0617-6.0692.2073-18.1243.2713-24.2529a1.8125,1.8125,0,0,0-1.6878-2.0262l-.878-.1306a8.8491,8.8491,0,0,0-3.3411-.0606,7.5973,7.5973,0,0,0-2.5422,2.1269l-.7449-.6671Z" style="fill:#cfd2d4"/><path d="M283.65,54.5864a41.3765,41.3765,0,0,1-5.9362-1.4856" style="fill:none;stroke:#cfd2d4;stroke-miterlimit:10"/><path d="M241.6649,41.23a14.271,14.271,0,0,1-3.5564-.9045" style="fill:none;stroke:#cfd2d4;stroke-miterlimit:10"/><path d="M276.8383,46.5837a31.2684,31.2684,0,0,0,2.2469-8.3875c.3842-4.1617,1.3446-22.9853,2.1769-26.1866s2.433-6.2745,9.0277-7.427,10.7,1.8384,11.4645,6.5215" style="fill:none;stroke:#cfd2d4;stroke-miterlimit:10;stroke-width:0.5px"/><path d="M289.2963,15.467s-1.2474,20.5523-1.3115,22.6011.1281,3.7135,2.369,3.8416a36.4026,36.4026,0,0,0,4.0976,0,3.4759,3.4759,0,0,0,2.4971-3.3294c.192-2.8171.32-21.5767.2561-23.1133a2.5053,2.5053,0,0,0-2.305-2.6251c-1.1524.0641-3.7135.2561-3.7135.2561A2.8079,2.8079,0,0,0,289.2963,15.467Z" style="fill:none;stroke:#cfd2d4;stroke-miterlimit:10;stroke-width:0.5px"/><path d="M244.7446,14.6042s-.8379,13.8041-.8809,15.18.086,2.4942,1.5911,2.58a24.4426,24.4426,0,0,0,2.7522,0,2.3345,2.3345,0,0,0,1.6771-2.2361c.1291-1.8922.2151-14.4922.1721-15.5243a1.6827,1.6827,0,0,0-1.5482-1.7631c-.774.043-2.4942.172-2.4942.172A1.8857,1.8857,0,0,0,244.7446,14.6042Z" style="fill:none;stroke:#cfd2d4;stroke-miterlimit:10;stroke-width:0.5px"/><path d="M265.0078,21.1735s.12-1.5448,2.1046-1.4808a15.124,15.124,0,0,1,2.7531.2561s1.9208,0,1.7287,2.369-.96,20.04-1.1525,24.2659.5122,9.86,3.4574,12.613,9.54,8.8377,12.1009,11.59a29.743,29.743,0,0,1,7.299,12.42c1.6647,5.8263,6.5306,20.36,6.5306,20.36s.89,3.3659-.2524,2.5142" style="fill:none;stroke:#cfd2d4;stroke-miterlimit:10;stroke-width:0.5px"/><path d="M262.01,77.5125c5.9349,3.3249,11.8893,6.078,13.7461,9.9836s6.6587,10.9485,9.6039,13.3814,11.7167,9.5783,14.4058,11.9281,9.3824,12.0816,11.9581,19.7648,10.643,28.2354,12.1156,33.6776,3.7135,11.5246.4482,17.1589a111.7881,111.7881,0,0,0-5.57,11.7167c-.8324,1.6007-1.0245,5.6983,1.0244,9.1557" style="fill:none;stroke:#cfd2d4;stroke-miterlimit:10;stroke-width:0.5px"/><path d="M333.8184,224.5829s-8.9547-10.4436-11.5157-15.3736-5.3782-11.4606,2.2409-17.7351a16.01,16.01,0,0,1,20.7444-.3842c4.6739,3.8416,6.9788,6.4666,10.7563,6.5307" style="fill:none;stroke:#cfd2d4;stroke-miterlimit:10;stroke-width:0.5px"/><path d="M336.5805,225.9841c-6.8508-8.1953-10.5-13.6375-12.421-17.5431a11.8046,11.8046,0,0,1,4.8659-15.3022c6.8508-4.2257,12.6131-2.8811,17.7992,1.1525s7.1069,6.2956,9.924,6.5412" style="fill:none;stroke:#cfd2d4;stroke-miterlimit:10;stroke-width:0.5px"/><path d="M230.2644,58.9938s.0742-1.0052,1.17-.3479,3.6155,2.2992,3.6155,2.2992a8.8189,8.8189,0,0,1,2.6842,3.2336c1.0408,2.1365,2.4651,5.4233,4.8206,7.6693s7.56,6.6284,8.82,7.6692A30.2552,30.2552,0,0,1,257.74,88.83c1.7421,4.1633,8.4437,20.4331,10.27,28.65" style="fill:none;stroke:#cfd2d4;stroke-miterlimit:10;stroke-width:0.5px"/><path d="M267.2289,122.6781l8.5247,8.6194s-6.1093,6.82-6.7724,7.53-1.8944.9945-3.3625,0a25.5415,25.5415,0,0,1-4.7867-5.4937c-.1861-.5683-.426-1.3735.6648-3.1731S267.2289,122.6781,267.2289,122.6781Z" style="fill:none;stroke:#cfd2d4;stroke-miterlimit:10;stroke-width:0.5px"/><path d="M253.6023,12.19c.2042-1.8211-1.9248-4.9873-6.9472-4.6052s-6.4417,3.1663-6.9876,7.206-.71,13.3747-.7643,14.5211-.2469,5.8984-1.2425,6.716" style="fill:none;stroke:#cfd2d4;stroke-miterlimit:10;stroke-width:0.5px"/><path d="M231.1481,18.5176c.2623-.5383.9313-.6694,1.6956-.56s1.2556.3822,1.2556,2.02-.68,15.8313-.4766,18.3971a11.903,11.903,0,0,0,3.6974,8.2094c2.7841,2.5995,7.206,6.9945,9.0621,11.8392s5.2407,15.1078,5.2407,15.1078.7476,2.0752-.5269,1.3232" style="fill:none;stroke:#cfd2d4;stroke-miterlimit:10;stroke-width:0.5px"/></g><g id="aca552d1-2c48-4640-be89-03968685ff3a" data-name="illustration"><path d="M79.9478,155.4367S67.2519,182.05,65.6965,184.21s-4.0292,7.1472-8.9368,9.419-19.6171,7.1553-40.28,7.2893c-13.1431.0852-45.1227,0-45.1227,0a4.4644,4.4644,0,0,1-3.9767-2.7108,34.3239,34.3239,0,0,1-1.3256-7.4s-.4971-3.3153.6628-4.43.311-1.7368-2.91-1.9231" style="fill:none;stroke:#cfd2d4;stroke-miterlimit:10"/><path d="M67.517,121.8853s-27.1726,1.2121-44.9418,5.3884l-6.48-14.9181s-.1657-9.4448-3.8111-17.2325S-3.1258,62.0839-9.9194,51.1806c-4.4738-7.258-11.93-11.2347-22.7-11.2347,5.0835-.9273,8.8651-5.346,8.19-9.62s-3.4765-15.4833-3.4765-15.4833-1.25-4.727-9.219-4.592" style="fill:none;stroke:#cfd2d4;stroke-miterlimit:10"/><path d="M-33.9668,188.0168c23.5229-2.4988,75.0388-8.3527,82.7134-7.4983s14.8047,2.2781,18.77-5.1184,11.2977-22.8644,11.2977-22.8644" style="fill:none;stroke:#cfd2d4;stroke-miterlimit:10;stroke-width:0.5px"/><path d="M-14.7763,181.1242c20.3076-2.2,47.1374-7.2949,67.7185-6.7339,6.4511.1759,11.5373.59,12.7543-2.6444a154.6843,154.6843,0,0,1,7.3092-14.7422c1.5231-2.5385,1.3539-3.773-2.0307-5.948s-8.9141-4.754-27.7262-3.38-33.8843,3.7634-36.92,4.7966c-7.8274,2.6646-12.3087,5.0357-17.2288,8.64s-11.4642,10.6386-13.6456,12.7171-3.2247,8.8124,9.7689,7.2949" style="fill:none;stroke:#cfd2d4;stroke-miterlimit:10;stroke-width:0.5px"/><path d="M73.8342,153.9094c-15.0438-3.3364-56.5194.9988-67.505,5.1118-4.3182,1.6168-7.7325,5.1424-10.1036,7.6475s-5.7144,5.92-7.1252,7.6268-2.328,6.7758,9.8741,5.11" style="fill:none;stroke:#cfd2d4;stroke-miterlimit:10;stroke-width:0.5px"/><path d="M77.3656,147.7527c-8.1245-6.0713-50.6933-.6644-73.8409,3.054,0,0-.66.8922-3.3631,1.39s-7.0984,1.2092-7.0984,1.2092-1.3417-3.9913-10.6013-2.4225" style="fill:none;stroke:#cfd2d4;stroke-miterlimit:10;stroke-width:0.5px"/><path d="M74.7884,141.8638C67.94,139.6887,34.736,143.9205,24.87,144.698s-18.0056-.2456-13.4711-4.535c7.02-6.6407,11.687-11.9936,29.9872-16.0527" style="fill:none;stroke:#cfd2d4;stroke-miterlimit:10;stroke-width:0.5px"/><path d="M24.87,144.698c-4.1733.2346-4.4587-1.2146-1.2332-4.535s6.1663-6.178,13.9455-8.5439,25.6447-4.7177,31.7958-4.5379" style="fill:none;stroke:#cfd2d4;stroke-miterlimit:10;stroke-width:0.5px"/><path d="M16.0951,112.3556S17.96,123.2916,13.382,126.44-6.9368,142.5635-6.9368,142.5635" style="fill:none;stroke:#cfd2d4;stroke-miterlimit:10"/><path d="M-3.6172,152.8565l-1.775-1.1134a1.9757,1.9757,0,0,1-.7015-2.5919c1.148-2.1909,3.1612-5.9628,4.05-7.1975,1.28-1.7783,1.9917-2.9954,3.3432-2.6358.2845-1.1342,1.5812-2.3435,2.889-1.7033s5.22,3.0587,5.22,3.0587,1.4034,1.0774.7017,1.89-4.4371,7.168-5.3436,8.045" style="fill:none;stroke:#cfd2d4;stroke-miterlimit:10;stroke-width:0.5px"/><path d="M3.5247,150.8067s3.2522-5.165,3.8924-6.0842.097-1.77-1.0879-2.4131-5.03-2.9915-5.03-2.9915" style="fill:none;stroke:#cfd2d4;stroke-miterlimit:10;stroke-width:0.5px"/><path d="M-.0662,139.5639c-.2449.1992-.91,1.76,1.01,3s4.41,2.5832,4.41,2.5832a1.5557,1.5557,0,0,0,2.0628-.4242" style="fill:none;stroke:#cfd2d4;stroke-miterlimit:10;stroke-width:0.5px"/><path d="M-5.4533,141.3448c1.0119-5.2189.33-11.9706-4.6639-23.5188s-8.7754-20.597-10.9364-23.5683-3.9146-10.5319.8114-12.8968l4.726-2.3649s7.0231-3.2414,13.3708,7.1581S16.56,122.4533,11.0563,128.1416" style="fill:none;stroke:#cfd2d4;stroke-miterlimit:10;stroke-width:0.5px"/><path d="M-36.1926,82.47c2.5785,2.0637,7.7751.5676,7.1352-3.9516A91.4833,91.4833,0,0,1-30.0345,64.68c.2021-2.4311-.3381-4.5255,5.3343-6.1794s6.54-1.3839,8.6724,1.0472,4.7046,6.4828,9.091,8.2386,7.3684,2.63,7.3684,2.63" style="fill:none;stroke:#cfd2d4;stroke-miterlimit:10;stroke-width:0.5px"/><path d="M14.4149,125.4762a9.9519,9.9519,0,0,1,8.16,1.7975A182.1927,182.1927,0,0,0,7.6314,139.4491" style="fill:none;stroke:#cfd2d4;stroke-miterlimit:10;stroke-width:0.5px"/><path d="M209.3357,127.1961s.5122-1.076-.7777-3.14-4.8154-8.07-6.1053-9.8823a12.1454,12.1454,0,0,0-6.5353-4.564,25.5641,25.5641,0,0,0-12.9022-.9459,303.1265,303.1265,0,0,0-37.746,11.8007l-9.7169-25.9031s1.3573-.86-.4392-4.0416S124.89,64.3791,121.3639,58.1018,108.7233,40.3878,106.23,37.8081s-6.9652-3.44-6.9652-3.44,2.89-2.0638,3.036-3.6976-.5423-14.79-.8-16.51a6.1516,6.1516,0,0,0-4.3022-4.9875C94.1049,7.97,86.28,8.8294,85.85,13.7308a118.7638,118.7638,0,0,0,0,15.65c.5159,2.2358,1.2421,4.3,5.48,5.7614l-6.3982,1.9389" style="fill:none;stroke:#cfd2d4;stroke-miterlimit:10"/><path d="M91.3294,35.1424s4.8393.9459,7.935-.7739" style="fill:none;stroke:#cfd2d4;stroke-miterlimit:10"/><path d="M85.8034,14.3011c.0339-2.3774,2.3428-4.1091,6.1526-4.0514s5.7724,1.5008,5.9456,4.4447.635,14.662.6927,16.2205-.221,3.7007,1.9387,2.3987" style="fill:none;stroke:#cfd2d4;stroke-miterlimit:10;stroke-width:0.5px"/><path d="M89.76,34.4982c-.3982-.2026-.9784-.6971-.9784-3.7565s-.0577-14.431,0-15.2391.3464-2.0683,3.0594-2.2175,3.3914,1.1207,3.4563,2.8524.5487,13.7384.6531,15.47.6626,3.6584,1.2479,3.5113" style="fill:none;stroke:#cfd2d4;stroke-miterlimit:10;stroke-width:0.5px"/><path d="M89.8216,27.4168s.0387-10.5786,0-11.2373a1.2543,1.2543,0,0,1,.8576-1.395,12.8841,12.8841,0,0,1,2.0873-.155c.74-.0072,1.3175.465,1.3175,1.705s.31,9.7261.31,10.4623-.3978,1.7437-1.2258,1.7437H90.9841A1.1254,1.1254,0,0,1,89.8216,27.4168Z" style="fill:none;stroke:#cfd2d4;stroke-miterlimit:10;stroke-width:0.5px"/><path d="M91.4161,17.5268l-.1052,7.6217a.3844.3844,0,0,0,.3842.39h.7886a.3843.3843,0,0,0,.3841-.3948l-.2091-7.6217a.3842.3842,0,0,0-.384-.3737H91.8A.3842.3842,0,0,0,91.4161,17.5268Z" style="fill:none;stroke:#cfd2d4;stroke-linecap:round;stroke-linejoin:round;stroke-width:0.5px"/><path d="M106.422,49.82c1-.5,2.0559.5,3.6117,3.1672s2.2226,3.6117,3.7229,4.5007,3.6673,2.4449,4.3063,2.2226" style="fill:none;stroke:#cfd2d4;stroke-miterlimit:10;stroke-width:0.5px"/><path d="M109.6752,56.8212A25.2468,25.2468,0,0,0,116.09,61.322c1.3336.4445,1.8892.4445,1.9726-.2223a4.391,4.391,0,0,0,0-2.6115,85.8785,85.8785,0,0,0-3.8062-8.246c-1.1669-2.3669-1.2467-4.221-2.3669-5.6387" style="fill:none;stroke:#cfd2d4;stroke-miterlimit:10;stroke-width:0.5px"/><path d="M109.6752,58.026a31.1734,31.1734,0,0,0,6.6374,4.9074c2.167,1.0557,6.5011,2.7782,8.9459,7.1123s5.0719,9.04,5.0719,9.04" style="fill:none;stroke:#cfd2d4;stroke-miterlimit:10;stroke-width:0.5px"/><path d="M134.4324,89.8268a5.78,5.78,0,0,0-.8392,5.39c.8335,2.5,4.3852,15.1315.5473,21.3925" style="fill:none;stroke:#cfd2d4;stroke-miterlimit:10;stroke-width:0.5px"/><path d="M134.5786,117.8315a5.5364,5.5364,0,0,1,4.3633.7779c1.208.8335,3.2083,2.4449,3.375,3.1672l2.9523-1.3118" style="fill:none;stroke:#cfd2d4;stroke-miterlimit:10;stroke-width:0.5px"/><line x1="142.3169" y1="121.7766" x2="140.8722" y2="135.6678" style="fill:none;stroke:#cfd2d4;stroke-miterlimit:10;stroke-width:0.5px"/><path d="M138.5145,138.8678s2.191-3.2,3.8024-3.9779a1.3694,1.3694,0,0,1,.2779-2c1.1668-.8891,6.89-5.1637,7.6679-5.6935s1.5049.137,1.9471.6926,2.7759,3.89,2.7759,3.89.7779,1.5,0,2.1114-5.051,3.9446-5.051,3.9446" style="fill:none;stroke:#cfd2d4;stroke-miterlimit:10;stroke-width:0.5px"/><line x1="142.3169" y1="134.8899" x2="145.5793" y2="139.4418" style="fill:none;stroke:#cfd2d4;stroke-miterlimit:10;stroke-width:0.5px"/><path d="M152.21,127.8887a5.9466,5.9466,0,0,1,4.1095-6.1121c3.0561-1.1669,29.8383-9.446,33.3945-10.3351s7.7791-1.7781,9.9461,1.3336a58.2119,58.2119,0,0,1,3.834,6.4709s1.3891,1.7864-.9446,1.7973-18.1932,1.3445-44.6581,10.9572a3.8021,3.8021,0,0,1-2.9055-.2222" style="fill:none;stroke:#cfd2d4;stroke-miterlimit:10;stroke-width:0.5px"/><path d="M144.3531,131.5666c.7421-5.5115,1.2262-8.6231,1.2262-8.6231s.3493-2.4421,7.4061-5.2495" style="fill:none;stroke:#cfd2d4;stroke-miterlimit:10;stroke-width:0.5px"/><path d="M68.5072,46.1547s-8.2719.1452-10.1584-.7981c-2.3219-1.5963-4.789-4.0634-5.2969-5.1518s-2.54-4.2084-1.0884-26.1216a7.3267,7.3267,0,0,1,4.4987-6.0224c4.3536-1.9592,12.1175-2.4671,17.1967,0a9.44,9.44,0,0,1,4.4262,6.3852c.29,2.1043,3.12,17.56.653,25.9765C77.8674,42.817,73.58,46.2292,68.5072,46.1547Z" style="fill:none;stroke:#30373e;stroke-miterlimit:10;stroke-width:1.5px"/><path d="M52.35,12.3725c2.128-3.0687,4.1844-4.3843,9.1185-4.2392s8.1267,1.5238,8.562,5.95,1.4512,22.0583,1.814,25.2509.6531,3.7731,2.54,3.1927a23.7974,23.7974,0,0,0,4.3536-2.1043" style="fill:none;stroke:#30373e;stroke-miterlimit:10;stroke-width:0.5px"/><path d="M58.3488,45.3566c-3.12-6.603-2.4671-27.21-2.3219-29.1691s1.814-2.9024,4.4987-2.9024,4.9867.1451,5.0692,2.9749.3,29.834,4.22,29.834" style="fill:none;stroke:#30373e;stroke-miterlimit:10;stroke-width:0.5px"/><path d="M63.7488,16.3871c.4088,3.94.8177,17.0986.7805,17.6562s-.1486,1.97-1.4868,2.0072-3.3454,0-3.3454,0a2.3,2.3,0,0,1-2.1559-2.0816c-.1115-1.9329.1115-15.3887.1859-16.6154a2.0917,2.0917,0,0,1,1.8213-2.1559c1.0037-.0743,2.7507,0,2.7507,0A1.8451,1.8451,0,0,1,63.7488,16.3871Z" style="fill:none;stroke:#30373e;stroke-miterlimit:10;stroke-width:0.5px"/><path d="M60.18,30.7722s-.0372-9.9618,0-10.4822a1.0586,1.0586,0,0,1,.8407-1.0407,1.6986,1.6986,0,0,1,.7005.058s.655.1183.655,1.0476.2424,9.6592.257,10.0828c.0209.6028-.0371.9293-.5947.9293H60.7751S60.1607,31.5187,60.18,30.7722Z" style="fill:none;stroke:#30373e;stroke-miterlimit:10;stroke-width:0.5px"/><path d="M124.8876,180.3472s.8423-8.338-.4211-13.8968a35.9622,35.9622,0,0,0,.6962-5.6429c3.3465-3.2847,5.62-11.6227,3.2623-21.3926a138.811,138.811,0,0,0-3.9585-14.0652,5.4817,5.4817,0,0,1,.8423-4.8849" style="fill:none;stroke:#30373e;stroke-miterlimit:10;stroke-width:1.5px"/><path d="M129.7726,144.721s7.2213,13.3072,9.1693,14.2336c0,0,.8532,1.3476-1.5051,4.2954" style="fill:none;stroke:#30373e;stroke-miterlimit:10"/><path d="M79.0266,39.288l5.9046-2.2067h6.1334a40.26,40.26,0,0,1,6.1333.5576s4.1261.446,5.4643,4.126,10.2594,23.53,10.2594,23.53a11.2926,11.2926,0,0,1,.4461,4.9067,8.6975,8.6975,0,0,1,4.1261,3.457c1.5612,2.5649,16.5043,28.6595,15.6122,40.1456,0,0,2.5648,6.3564,1.8957,9.8134s-.211,19.0915-3.5625,24.0985" style="fill:none;stroke:#30373e;stroke-miterlimit:10;stroke-width:1.5px"/><path d="M134.1405,136.1129s4.3182,1.5554,6.3255,5.2355c13.7164-5.13,39.4765-14.72,51.1856-16.2813s17.731.446,20.2959,5.13,8.7857,17.8088,8.7857,17.8088" style="fill:none;stroke:#30373e;stroke-miterlimit:10"/><path d="M60.1638,100.73c7.8128-.0272,15.6294.0609,23.4285-.0013,3.5827-.0679,8.48-.0681,9.2113-4.45.415-1.6132-.9246-3.9019-1.4625-5.39l-2.2967-5.3864-4.64-10.76c-1.72-4.1-2.7049-4.869,1.5826-7.5789,2.259-1.6413,3.97-.6007,5.1148,1.594,1.4212,2.51,2.7325,5.2077,5.155,6.885,1.6455.9119,7.7629,5.6426,8.6261,2.3668a2.8158,2.8158,0,0,0-.24-1.4177c.45.85.5013,2.1717-.5668,2.5733a3.9765,3.9765,0,0,1-2.9063-.3389,49.7429,49.7429,0,0,1-5.1754-2.8113,13.3137,13.3137,0,0,1-3.93-4.4205c-1.0019-1.489-1.6954-3.6577-3.29-4.5057a2.6932,2.6932,0,0,0-2.4484.5991c-1.0339.7921-2.59,1.4674-2.7854,2.8316-.0595.8492,1.1578,3.1484,1.443,3.9757,2.1417,4.976,6.0614,13.9313,8.0631,18.8653a5.7042,5.7042,0,0,1-.8863,5.82c-2.2189,2.2485-5.6845,2.0665-8.5562,2.1992-7.8235.0892-15.6292-.1318-23.4393-.15v-.5Z" style="fill:#30373e"/><path d="M83.2489,70.3122c1.7938-2.1181,3.355-2.7872,5.6969.4468s4.6836,6.914,6.6909,8.0291,5.6873,3.1224,5.6873,3.1224,1.45.8922,3.457-.8921,2.7879-2.3418,2.7879-2.3418a5.0362,5.0362,0,0,0,.6691-5.13C107.0113,70.536,99.0937,55.37,96.64,51.0207s-4.0146-7.9176-12.1553-9.59" style="fill:none;stroke:#30373e;stroke-miterlimit:10;stroke-width:0.5px"/><path d="M85.9349,100.98s1.8957,0,0-4.2376-15.6122-35.0159-16.95-38.6959-2.5777-7.36.83-9.2558S92.6258,37.75,92.6258,37.75a5.6069,5.6069,0,0,1,4.5721-.1115" style="fill:none;stroke:#30373e;stroke-miterlimit:10;stroke-width:0.5px"/><path d="M86.2694,78.2778c-5.2412-11.5334-9.0328-20.12-9.2558-21.9043s-.2347-3.234,2.7263-4.9067,9.3174-2.8994,14.1126,5.2412,9.7018,17.0619,10.4824,19.1807,2.4534,3.0109.4461,5.13" style="fill:none;stroke:#30373e;stroke-miterlimit:10;stroke-width:0.5px"/><line x1="47.6072" y1="52.8092" x2="67.6334" y2="53.0156" style="fill:none;stroke:#30373e;stroke-miterlimit:10;stroke-width:0.5px"/><path d="M92.0682,98.7494c4.1261,3.5685,11.0857,11.9322,16.5829,23.0837s9.9578,19.9041,11.073,22.8879,1.1151,3.5413,1.0036,4.991-1.0208,3.3455.0472,5.4643a30.201,30.201,0,0,1,3.6916,11.2741" style="fill:none;stroke:#30373e;stroke-miterlimit:10;stroke-width:0.5px"/><path d="M88.0823,171.9249c1.31-.8019,32.1989-19.321,32.1989-19.321" style="fill:none;stroke:#30373e;stroke-miterlimit:10;stroke-width:0.5px"/><path d="M94.7935,183.5588l-6.7112-11.6339L86.2294,170.83c-6.2325-13.3914-19.54-50.7863-21.6453-57.0188a53.9031,53.9031,0,0,1-2.5267-9.8541c-1.2633-.3369-2.8636-3.79-2.8636-3.79S49.5082,71.3629,48.1606,66.478A39.4216,39.4216,0,0,1,47.15,53.6761a6.5332,6.5332,0,0,1,3.2-4.4638c1.2634-.5054,9.8134-3.4067,9.8134-3.4067" style="fill:none;stroke:#30373e;stroke-miterlimit:10;stroke-width:1.5px"/><path d="M125.1627,160.8075s5.2836-1.9371,7.2208-.6738,5.98,4.0427,5.98,4.0427.8684,1.0107.729,1.516c0,0,7.1037-3.3689,13.42-6.7378a75.4072,75.4072,0,0,1,13.3915-5.8114c4.38-1.516,24.7615-7.3273,29.6464-8.4222s18.6132-3.5374,25.1826,3.2846c0,0,11.707,22.9929,13.223,26.8671s1.4318,5.98,1.1791,9.5172-1.8529,12.8861-1.8529,12.8861-1.4228,6.93-29.1663,10.99" style="fill:none;stroke:#30373e;stroke-miterlimit:10;stroke-width:1.5px"/><path d="M95.1092,101.7325c2.8693-5.548,4.7932-6.4958,9.0725,0s17.5168,33.76,20.0423,42.9885a35.8946,35.8946,0,0,1,.9387,16.0865" style="fill:none;stroke:#30373e;stroke-miterlimit:10;stroke-width:0.5px"/><path d="M106.76,79.3167l.9566,1.7017a8.1611,8.1611,0,0,1,6.2284,4.8905c2.2342,4.6036,12.5924,26.9019,16.1805,36.3677,1.0155,3.508,1.354,2.8987,1.8957.8s1.0155-6.0931.4739-8.26-13.2017-32.97-18.1439-39.8758" style="fill:none;stroke:#30373e;stroke-miterlimit:10;stroke-width:0.5px"/><path d="M104.1817,81.7791s.176,1.8,1.5506,2.0848a9.1645,9.1645,0,0,1,5.572,4.8207c1.6248,3.1142,13.7433,29.3145,13.7433,29.3145s.1988,1.4217.6072,1.4217,1.7623.3632,2.5747,2.8558a46.9782,46.9782,0,0,1,3.3173,24.2922" style="fill:none;stroke:#30373e;stroke-miterlimit:10;stroke-width:0.5px"/><line x1="140.466" y1="141.3484" x2="139.0923" y2="158.3826" style="fill:none;stroke:#30373e;stroke-miterlimit:10;stroke-width:0.5px"/><path d="M62.0574,103.9571s16.6828.2768,23.0467,0,7.5825-.9538,7.3794-1.9693a12.8537,12.8537,0,0,0-1.0207-2.5787" style="fill:none;stroke:#30373e;stroke-miterlimit:10;stroke-width:0.5px"/><path d="M87.4065,103.8231A49.2274,49.2274,0,0,1,100.54,119.2515c3.25,6.0931,14.6233,24.5823,16.6544,34.734" style="fill:none;stroke:#30373e;stroke-miterlimit:10;stroke-width:0.5px"/><path d="M102.833,62.6581s3.5558-3.2541,2.8993-4.9466a151.488,151.488,0,0,0-7.63-14.6911A10.3166,10.3166,0,0,0,90.6792,38.67" style="fill:none;stroke:#30373e;stroke-miterlimit:10;stroke-width:0.5px"/><path d="M104.789,60.4752a2.6568,2.6568,0,0,1,2.9272,1.3068c1.0832,1.8194,6.3638,11.7715,6.3638,11.7715a1.8862,1.8862,0,0,1,0,2.5049,36.3252,36.3252,0,0,1-2.3018,2.9111,7.1629,7.1629,0,0,1-4.062,2.0489" style="fill:none;stroke:#30373e;stroke-miterlimit:10;stroke-width:0.5px"/><path d="M84.3883,74.1257l1.9344-1.52s2.9111-.9478,5.3484,2.3357,4.8744,6.4654,8.1918,8.4965,9.8843,4.5359,13.4047,12.4569,11.6288,25.1486,11.6288,25.1486" style="fill:none;stroke:#30373e;stroke-miterlimit:10;stroke-width:0.5px"/><line x1="139.0923" y1="165.6924" x2="136.5238" y2="195.8037" style="fill:none;stroke:#30373e;stroke-miterlimit:10;stroke-width:0.5px"/><path d="M141.14,196.67a41.0307,41.0307,0,0,0,24.56,1.8694c9.408-2.2984,50.21-13.5,54.4025-14.5973s15.9386-2.1513,14.8964-5.61" style="fill:none;stroke:#30373e;stroke-miterlimit:10;stroke-width:0.5px"/><path d="M219.1815,151.2464c-4.2949-3.8859-15.0322-7.7718-21.6791-5.7266s-30.0646,7.9763-35.6889,10.5328-9.817,4.2474-16.0548,9.64c-2.5565,2.2224-3.4769,4.1653-3.8859,13.3688s0,11.6576,3.6813,12.578a39.0583,39.0583,0,0,0,19.225,0c8.9989-2.1475,40.16-11.3509,59.3989-15.0323,3.7979-.6135,5.8431-1.7384,5.1273-4.1927S221.84,154.4164,219.1815,151.2464Z" style="fill:none;stroke:#30373e;stroke-miterlimit:10;stroke-width:0.5px"/><path d="M219.1815,151.2464c-3.6848-2.5158-39.7792,7.9494-58.3906,15.572-6.2379,2.7326-8.2831,6.3117-8.4876,9.993a74.6784,74.6784,0,0,0,0,9.7148c.2045,1.4316,1.3294,6.7491,13.2939,3.5791S210.5917,177.3545,217.75,175.6a54.4634,54.4634,0,0,1,11.6969-1.7543" style="fill:none;stroke:#30373e;stroke-miterlimit:10;stroke-width:0.5px"/><path d="M144.1161,163.25l-4.337-3.9251a3.29,3.29,0,0,1,.9982-4.09c2.22-1.8407,8.2537-7.2289,8.2537-7.2289s.9244-.8118,2.4379.7386,4.1713,5.02,4.1713,5.02a4.543,4.543,0,0,1,.1738,3.4856" style="fill:none;stroke:#30373e;stroke-miterlimit:10;stroke-width:0.5px"/><path d="M149.9554,148.7442c-.1718.3-.3417.6018-.5332.8868-.2058.6658.7012,1.3111,1.1312,1.7857,1.42,1.4091,2.797,2.9152,4.0764,4.4573.2056.3064.6245.6281.9.2161a.4182.4182,0,0,1-.52.277c-.4336-.1007-1.0848-.8968-1.4208-1.1675-.59-.5516-1.1533-1.13-1.7138-1.7112-.9232-1.0779-2.1385-1.9769-2.6962-3.318-.2178-.5956.4345-.9776.7766-1.4262Z" style="fill:#30373e"/><path d="M139.414,154.3934s5.558-5.3857,8.6588-7.8246c1.0336-.7408,1.8826-.7727,2.6209,0s4.1344,4.4641,4.1344,4.4641,1.0318,1.2437.35,2.1353" style="fill:none;stroke:#30373e;stroke-miterlimit:10;stroke-width:0.5px"/><path d="M148.5527,150.7007a51.9252,51.9252,0,0,1-7.4129,7.1613,51.92,51.92,0,0,1,7.4129-7.1613Z" style="fill:#30373e"/><path d="M143.8818,150.1973c.4808-5.3223.856-9.2479,9.7924-13.7256" style="fill:none;stroke:#30373e;stroke-miterlimit:10;stroke-width:0.5px"/><path d="M152.3935,148.3935a11.7866,11.7866,0,0,1,0-4.0194c.4133-1.7175,1.9161-3.7212,6.9969-5.7249a236.8132,236.8132,0,0,1,40.0026-11.1635c4.6515-.7872,8.5873.0716,9.7323,2.0753s4.5083,8.5873,4.5083,8.5873.93,1.8606-1.36,1.5743-11.8666-2.1158-50.1643,10.4747c-3.65,1.19-6.96,1.1838-7.8588.2087" style="fill:none;stroke:#30373e;stroke-miterlimit:10;stroke-width:0.5px"/><path d="M66.4912,48.6157l-2.4726,1.5152a1.7613,1.7613,0,0,1-.9517.2592l-7.3758-.1323a.2778.2778,0,0,1-.1084-.5314l3.5984-1.608a1.76,1.76,0,0,1,.7557-.1529l6.4152.1356A.2778.2778,0,0,1,66.4912,48.6157Z" style="fill:#f4ae3d;stroke:#30373e;stroke-miterlimit:10;stroke-width:0.75px"/><path d="M224.08,46.1677a16.2284,16.2284,0,0,0-2.34-2.46c-.25-.21-.49-.41-.74-.59-.05-.03-.09-.06-.13-.08a12.1748,12.1748,0,0,0-3.31-1.72,17.91,17.91,0,0,0-11.85,1.04c-7.63,3.73-14.15,8.9-15.98,10.01a4.0868,4.0868,0,0,0-2.06,2.47c-1.33,1.81-1.12,5.18-1.06,5.95a7.2494,7.2494,0,0,0-1.23-1.67s-8.5-8.51-9.75-9.44c-1.26-.94-3.88,1.24-3.88,1.24-22.6,19.54-58.68,54.02-60.06,55.56a17.55,17.55,0,0,0-2.5,4.48s-8.59,23.2-9.08,24.78a8.8293,8.8293,0,0,0,.09,3.89,9.341,9.341,0,0,0-2.36,3.64l-6.08,20.28s-3.68,12.68,3.03,20.42h.08c-1.04-4.99.13-10.03,5.95-13.63,8.52-5.26,17.56-1.58,22.07,6.41.63,1.11,1.39,2.43,2.24,3.89,7.92-3.58,16-10.7,16-10.7,4.24,2.23,6.82,1.32,6.82,1.32,10.88-9.43,21.75-23.82,24.78-28.48,3.04-4.65,2.62-12.47,2.62-12.47l2.22-1.88c2.1.67,4.87.68,6.23-.8,4.62-4.4,12.62-14.11,18.29-22.38,5.67-8.26,2.94-20.97,2.94-20.97a30.6756,30.6756,0,0,0-4.72-11.25,13.1086,13.1086,0,0,0,7.63-2.05c3.98-2.63,14.31-10.82,17.33-14.31C228.29,53.1677,225.99,48.6376,224.08,46.1677Z" style="fill:#f4f4f4;opacity:0.79"/><path d="M152.6456,229.6727c-.13-.0665-8.2022,1.2014-10.0036,1.51s-2.9373,1.5081-2.425,3.95,1.3256,7.4167,5.1853,7.2159,53.12-4.0465,55.5676-4.4862,3.6965-2.0153,2.9135-4.2129-2.3751-6.8834-2.3751-6.8834-.1146-1.3766-3.3112-2.7" style="fill:none;stroke:#30373e;stroke-miterlimit:10;stroke-width:0.5px"/><path d="M159.1082,231.25s-10.774,1.3958-11.7771,1.6323-1.5407,1.5791-1.3463,2.9266l.1943,1.3475s.4,2.0126,3.5149,1.6593,43.4016-3.9021,43.4016-3.9021,3.1207-.2826,2.9974-2.4665-.92-5.101-2.0862-5.9893" style="fill:none;stroke:#30373e;stroke-miterlimit:10;stroke-width:0.5px"/><path d="M196.093,232.4472a38.9045,38.9045,0,0,1,8.1117,3.2944" style="fill:none;stroke:#30373e;stroke-miterlimit:10;stroke-width:0.5px"/><path d="M124.6105,245.5221s-1.0476-14.9648-3.4838-20.0867-17.8358-31.5394-20.0419-35.7308-3.0456-9.457,2.9015-12.48,11.1551,1.1916,13.4142,5.1588,10.12,16.9252,11.04,18.6152c2.1915,4.0285,7.1147,8.5805,10.0909,9.007" style="fill:none;stroke:#30373e;stroke-miterlimit:10;stroke-width:0.5px"/><path d="M139.7629,204.2061a2.3487,2.3487,0,0,1-.8307-.6235s-11.5259-19.2581-16.0407-27.24c-4.5158-7.991-13.55-11.6734-22.0672-6.4122-8.5265,5.262-7.0666,13.6236-3.369,20.3875,3.7071,6.7631,16.6869,28.7883,19.481,34.3328,2.0986,4.15,3.1776,13.8245,3.5876,18.4281a2.7388,2.7388,0,0,0,2.8331,2.4966c14.8364-.5608,82.37-6.0993,88.8936-6.7532,7.1061-.7124,8.5534-3.33,8.7335-5.395s2.2894-24.3523,2.736-29.1482" style="fill:none;stroke:#30373e;stroke-miterlimit:10;stroke-width:1.5px"/><path d="M195.5782,67.3509c3.2556,2.4811,8.01,8.8878,9.4483,16.5243" style="fill:none;stroke:#f4ae3d;stroke-miterlimit:10;stroke-width:1.5px"/><path d="M196.8356,68.3723s-5.3953-4.3823-7.3634-5.9844a7.5515,7.5515,0,0,0-2.795-1.732c-.0374-.6522-1.2969-1.9417-1.2969-1.9417s-8.501-8.5072-9.7539-9.445-3.8812,1.247-3.8812,1.247c-22.5953,19.54-58.6788,54.0184-60.0564,55.5517a17.6269,17.6269,0,0,0-2.4965,4.4816s-8.5969,23.208-9.0867,24.7834a8.7814,8.7814,0,0,0,.0969,3.8871,9.3271,9.3271,0,0,0-2.364,3.64l-6.0757,20.2819s-3.68,12.6837,3.0307,20.4165" style="fill:none;stroke:#f4ae3d;stroke-miterlimit:10;stroke-width:1.5px"/><path d="M186.63,60.5575s-.47-4.06,1.04-6.12a4.0869,4.0869,0,0,1,2.06-2.47c1.83-1.11,8.35-6.28,15.98-10.01a17.9109,17.9109,0,0,1,11.85-1.04,12.1776,12.1776,0,0,1,3.31,1.72c.04.02.08.05.13.08.25.18.49.38.74.59a16.2322,16.2322,0,0,1,2.34,2.46c1.91,2.47,4.21,7,1.19,10.5-3.02,3.49-13.35,11.68-17.33,14.31a13.1087,13.1087,0,0,1-7.63,2.05" style="fill:none;stroke:#f4ae3d;stroke-miterlimit:10;stroke-width:1.5px"/><path d="M124.8876,180.3472c8.0046-3.5525,16.2434-10.8111,16.2434-10.8111,4.24,2.2276,6.8143,1.3172,6.8143,1.3172,10.888-9.4336,21.7573-23.8251,24.7894-28.4771s2.6123-12.4779,2.6123-12.4779l2.2244-1.872c2.1023.6707,4.87.6789,6.2236-.8015,4.6254-4.4052,12.6209-14.1122,18.2913-22.3783s2.94-20.9713,2.94-20.9713" style="fill:none;stroke:#f4ae3d;stroke-miterlimit:10;stroke-width:1.5px"/><path d="M139.7629,204.2061a2.3487,2.3487,0,0,1-.8307-.6235s-11.5259-19.2581-16.0407-27.24c-4.5158-7.991-13.55-11.6734-22.0672-6.4122-8.5265,5.262-7.0666,13.6236-3.369,20.3875,3.7071,6.7631,16.6869,28.7883,19.481,34.3328,2.0986,4.15,3.1776,13.8245,3.5876,18.4281a2.7388,2.7388,0,0,0,2.8331,2.4966c14.8364-.5608,82.37-6.0993,88.8936-6.7532,7.1061-.7124,8.5534-3.33,8.7335-5.395s2.2894-24.3523,2.736-29.1482" style="fill:none;stroke:#30373e;stroke-miterlimit:10;stroke-width:1.5px"/><path d="M203.8333,208.4557c.8776,1.31,1.5017,2.2472,1.5017,2.2472s2.0632,5.0746-1.24,8.2218-5.8977,5.14-5.8977,5.14-4.5428,3.1918-8.3,3.74c-3.7563.5579-16.0872,2.5469-22.9844,3.1673s-13.9625.969-18.1916-4.58-8.941-13.1688-9.7919-15.292c-.7674-1.9394-1.6884-4.7353.8336-6.8941" style="fill:none;stroke:#30373e;stroke-miterlimit:10"/><path d="M139.7629,204.2061a5.6189,5.6189,0,0,0,3.26.405c3.0654-.3714,43.4768-6.6078,46.9312-7.1194s7.6608,1.8071,9.73,4.8249c1.2053,1.7528,2.9244,4.31,4.15,6.1391" style="fill:none;stroke:#30373e;stroke-miterlimit:10;stroke-width:1.5px"/><path d="M95.2131,184.984c-2.5685-6.9583,3.1682-10.6935,6.3036-12.4389s13.0141-4.17,18.81,5.7709,11.7449,19.137,11.7449,19.137,4.4314,6.3481,7.6909,6.7531" style="fill:none;stroke:#30373e;stroke-miterlimit:10;stroke-width:0.5px"/><path d="M192.0706,224.9494c-2.9261,1.0518-7.5413,1.34-10.64,1.9145-4.3214.5454-9.4632,1.8319-13.1284-1.2869-1.3158-1.3117-3.65-5.0586-4.8085-6.5741l-3.119-4.43c-.8624-1.361-2.3966-3.0477-2.944-4.596l.4732-.1615c.465,1.4054,2.0378,3.2305,2.8376,4.5192l3.0628,4.4577c1.1185,1.5008,3.432,5.292,4.6879,6.5772,3.57,3.0887,8.6574,1.8494,12.9212,1.37,3.1049-.54,7.7054-.7691,10.6574-1.7906Z" style="fill:#30373e"/><path d="M202.6868,213.1459c1.39,4.9794-4.1091,7.6312-7.3859,10.0508a10.94,10.94,0,0,1-3.23,1.7527,10.9023,10.9023,0,0,0,3.1563-1.8326c3.0824-2.4774,8.4067-5.0961,6.9794-9.8327l.4805-.1382Z" style="fill:#30373e"/><path d="M157.6671,209.8963c-.8251-2.4182.66-4.1674,4.1453-4.729,4.1108-.6624,23.78-3.2365,26.6768-3.57s5.7728-.08,8.0066,2.7917,4.8955,6.73,5.6068,7.9828a3.918,3.918,0,0,1,.3439.8433" style="fill:none;stroke:#30373e;stroke-miterlimit:10;stroke-width:0.5px"/><path d="M157.6175,207.6977a6.4819,6.4819,0,0,0,.4468.8206c1.8746,2.9779,8.8431,12.7185,8.8431,12.7185a5.9134,5.9134,0,0,0,2.4335,1.9617" style="fill:none;stroke:#30373e;stroke-miterlimit:10;stroke-width:0.5px"/><path d="M196.087,203.9026l.0008.01c1.7011,2.3241,3.3529,4.7387,3.8763,5.6671a5.1831,5.1831,0,0,1-.8628,5.8256,46.7663,46.7663,0,0,1-5.6875,4.5,9.6923,9.6923,0,0,1-2.7621,1.6161" style="fill:none;stroke:#30373e;stroke-miterlimit:10;stroke-width:0.5px"/><path d="M166.4561,219.5032s-.3059-1.06-.5833-2.1935.4608-1.509,2.122-1.7669,11.8234-1.2,13.46-.9473a33.43,33.43,0,0,1,7.2609,2.6948,7.4414,7.4414,0,0,1,1.81,2.96c.11.8323.1691,1.88.1691,1.88a1.8694,1.8694,0,0,1-1.71,1.6628c-1.6584.29-12.1935,1.3775-13.5542,1.4648a10.5634,10.5634,0,0,1-5.3137-1.3819,25.1017,25.1017,0,0,1-2.9849-3.0959A4.6263,4.6263,0,0,1,166.4561,219.5032Z" style="fill:#cfd2d4;stroke:#30373e;stroke-miterlimit:10;stroke-width:1.5px"/><path d="M167.1324,220.78c-.4365-.6993-1.3116-2.0973,1.5081-2.3509s11.2153-.9387,12.4872-.8425a42.955,42.955,0,0,1,7.75,2.6717c.8887.5166,1.9907,2.4583.6959,3.3616" style="fill:none;stroke:#30373e;stroke-miterlimit:10;stroke-width:0.5px"/><path d="M173.9252,224.1227a12.8723,12.8723,0,0,1-4.6-3.54c-.2816-.4-.49-1.1535.8014-1.2346s10.2659-.9585,11.3764-.7075a64.0749,64.0749,0,0,1,6.4151,2.2655c.7717.3868,1.5254,1.7427.4532,1.9169s-12.3638,1.4354-12.3638,1.4354A3.9648,3.9648,0,0,1,173.9252,224.1227Z" style="fill:none;stroke:#30373e;stroke-miterlimit:10;stroke-width:0.5px"/><path d="M171.486,219.238c.95,1.2012,2.7128,2.4645,6.09,2.1691s9.3022-.9316,9.3022-.9316" style="fill:none;stroke:#30373e;stroke-miterlimit:10;stroke-width:0.5px"/><path d="M188.6983,199.8043s-39.2293,5.882-41.6887,6.3-1.8421,2.8979-.7494,4.8177,6.9829,11.8828,8.3418,13.841a11.4217,11.4217,0,0,0,10.1628,4.9776c5.3612-.4166,24.0715-2.8036,26.8179-3.6843s8.38-4.8905,11.4412-7.4931c1.3205-1.1225,2.0488-3.9831.3583-6.7048s-5.8267-8.5265-7.0814-10.0564S192.1284,199.29,188.6983,199.8043Z" style="fill:none;stroke:#30373e;stroke-miterlimit:10;stroke-width:0.5px"/><path d="M94.7935,160.9264c.3517-.156,8.38-7.578,10.498-9.37s2.7811-2.3151,3.9015-1.3434a216.5207,216.5207,0,0,0,31.938,19.3228" style="fill:none;stroke:#f4ae3d;stroke-miterlimit:10;stroke-width:0.5px"/><path d="M110.066,149.403s43.4541-37.9976,48.0407-41.8386S189.1645,80.9571,192.156,78.273s5.3921-6.8476,4.68-9.9007" style="fill:none;stroke:#f4ae3d;stroke-miterlimit:10;stroke-width:0.5px"/><line x1="177.5714" y1="128.0263" x2="164.1533" y2="102.4189" style="fill:none;stroke:#f4ae3d;stroke-miterlimit:10;stroke-width:0.5px"/><line x1="175.347" y1="129.8983" x2="161.6362" y2="104.5696" style="fill:none;stroke:#f4ae3d;stroke-miterlimit:10;stroke-width:0.5px"/><path d="M189.57,63.0275s3.32,3.29,10.87-2.47c7.54-5.76,15.25-11.34,16.98-12.24,1.72-.91,3.03.32,3.85,1.47a15.4054,15.4054,0,0,1,1.15,1.81s1.72,2.54-.49,4.39c-2.22,1.84-15.01,11.77-17.56,13.08a37.2,37.2,0,0,1-4.96,2.3" style="fill:none;stroke:#f4ae3d;stroke-miterlimit:10;stroke-width:0.5px"/><path d="M187.6664,54.4349c4.5674,2.081,5.5517,2.4912,8.5046,1.2608s13.206-8.4486,16.323-10.4992,6.9069-4.3514,9.246-1.8895" style="fill:none;stroke:#f4ae3d;stroke-miterlimit:10;stroke-width:0.5px"/><path d="M204.932,59.3692s10.6718-7.6946,12.2958-8.8159c0,0,1.2759-.8506,2.1652,0a7.2,7.2,0,0,1,1.6627,2.204c.116.3866.3093,1.1213-.812,2.2039s-11.7544,9.1252-12.2571,9.4732a1.4987,1.4987,0,0,1-2.0879-.348,26.9146,26.9146,0,0,1-1.856-2.7066A1.9529,1.9529,0,0,1,204.932,59.3692Z" style="fill:none;stroke:#f4ae3d;stroke-miterlimit:10;stroke-width:0.5px"/><path d="M207.4959,59.3448,216.33,53.1a.5083.5083,0,0,1,.6891.0962l.5526.686a.5082.5082,0,0,1-.0967.73l-8.7773,6.3869a.5082.5082,0,0,1-.7082-.11l-.61-.8278A.5082.5082,0,0,1,207.4959,59.3448Z" style="fill:none;stroke:#f4ae3d;stroke-miterlimit:10;stroke-width:0.5px"/><path d="M100.2025,139.22a24.4213,24.4213,0,0,1,4.1676-5.2816c2.8776-2.8446,8.1959-7.8914,9.4841-8.866a4.7119,4.7119,0,0,0,2.06-3.3119l70.7632-61.1046" style="fill:none;stroke:#f4ae3d;stroke-miterlimit:10;stroke-width:0.5px"/><path d="M115.914,121.7605c.0441-.536-.9035-.73-2.9946,1.0369s-7.8778,7.6752-9.0466,8.6179-4.0459,4.3265-3.9587,5.5126" style="fill:none;stroke:#f4ae3d;stroke-miterlimit:10;stroke-width:0.5px"/><path d="M108.8549,135.8715a6.1945,6.1945,0,0,0-.8855,4.1539s-.0619,1.2261,1.3772.0009,10.4869-9.0546,11.7909-10.1386a7.0826,7.0826,0,0,0,2.1039-3.8478c.1976-.973.3467-2.4064.3467-2.4064s.014-1.2921-1.1706-.24-10.1609,8.7836-11.0752,9.5533A17.4124,17.4124,0,0,0,108.8549,135.8715Z" style="fill:none;stroke:#f4ae3d;stroke-miterlimit:10;stroke-width:0.5px"/></g><g id="b018c250-4bca-4347-abec-38305c1b91cf" data-name="arrows/icons"><polygon points="178.973 209.589 171.903 192.754 178.476 191.678 161.526 182.038 154.334 195.632 160.907 194.556 167.977 211.39 178.973 209.589" style="fill:#f4ae3d;stroke:#f4f4f4;stroke-miterlimit:10;stroke-width:1.5px"/><path d="M175.282,65.0876l-3.6391-20.6684-5.0684,6.69c-15.7006-10.015-35.0047-11.0465-54.9362-2.759l4.6657,11.2251c15.7124-6.53,30.744-6.0273,42.8932,1.2714L154.4,67.1784Z" style="fill:#f4ae3d;stroke:#f4f4f4;stroke-miterlimit:10;stroke-width:1.5px"/></g></svg>