<svg xmlns="http://www.w3.org/2000/svg" width="325" height="144.3029" viewBox="0 0 325 144.3029"><g id="a42c00b3-c1ae-4ef9-8ce3-0f424f551314" data-name="illustration"><path d="M158.3746,47.5529v17.78a2.6961,2.6961,0,0,1-2.68,2.7224H63.73c-1.6164,0-3.488-.638-2.9351-2.5947s4.2963-16.079,4.7216-17.44.5956-2.297,3.2754-2.297h86.7752C156.9708,45.7238,158.3746,46.49,158.3746,47.5529Z" style="fill:none;stroke:#a6abb0;stroke-width:0.25px"/><path d="M162.4326,45.6705v26.275a.2018.2018,0,0,0,.2017.2018H266.5761a.284.284,0,0,0,.284-.284V69.37l-6.4317-24.0577a1.2249,1.2249,0,0,0-1.1834-.9086H164.0378S162.4326,44.5721,162.4326,45.6705Z" style="fill:none;stroke:#a6abb0;stroke-width:0.5px"/><path d="M165.385,47.5529v17.78a2.6961,2.6961,0,0,0,2.68,2.7224H260.03c1.6164,0,3.488-.638,2.9351-2.5947s-4.2963-16.079-4.7216-17.44-.5956-2.297-3.2754-2.297H168.1925C166.7887,45.7238,165.385,46.49,165.385,47.5529Z" style="fill:none;stroke:#a6abb0;stroke-width:0.25px"/><path d="M161.327,45.6705v26.275a.2018.2018,0,0,1-.2017.2018H57.1835a.284.284,0,0,1-.284-.284V69.37l6.4317-24.0577a1.2249,1.2249,0,0,1,1.1834-.9086h95.2072S161.327,44.5721,161.327,45.6705Z" style="fill:none;stroke:#a6abb0;stroke-width:0.5px"/><path d="M162.6343,70.1473H266.5761" style="fill:none;stroke:#a6abb0;stroke-width:0.25px"/><path d="M161.1253,70.1473H57.1835" style="fill:none;stroke:#a6abb0;stroke-width:0.25px"/><line x1="249.1536" y1="3.1621" x2="245.7969" y2="-6.5836" style="fill:none;stroke:#a6abb0;stroke-width:0.5px"/><line x1="74.606" y1="3.1621" x2="77.9627" y2="-6.5836" style="fill:none;stroke:#a6abb0;stroke-width:0.5px"/><path d="M161.48,118.8548h113.046c2.3822,0,5.8471-1.0166,5.9268-3.008l.08-1.9914s.1194-1.6727,1.5532-1.6727h7.8858" style="fill:none;stroke:#a6abb0;stroke-width:0.25px"/><path d="M161.4638,121.8216H273.5629c1.8719,0,3.7039.517,4.1022,2.3889s.9957,5.4165,1.0753,6.2529.1992,2.9073-2.23,2.9073H161.4245" style="fill:none;stroke:#a6abb0;stroke-width:0.25px"/><path d="M306.2107,132.3836c-2.6977-.1349-3.4171-.139-4.3613.9871s-7.3289,2.9822-8.408-1.0482-3.47-11.8539-3.47-11.8539,2.7054-18.0748,2.8852-20.0082a22.24,22.24,0,0,0-.63-7.638c-.7643-2.6584-15.6918-49.554-16.1414-50.8129s-1.214-1.3489-1.5737.9442" style="fill:none;stroke:#a6abb0;stroke-width:0.5px"/><polygon points="274.759 42.992 272.444 60.669 274.265 42.915 274.759 42.992 274.759 42.992" style="fill:#a6abb0"/><path d="M290.8594,114.4975,275.1418,62.782s-3.1024-1.2589-3.3722-2.1132S257.2018-.3,257.2018-.3" style="fill:none;stroke:#a6abb0;stroke-width:0.5px"/><path d="M246.4559,6.9389s.6744-2.8776,2.6977-3.7768S257.2018-.3,257.2018-.3s4.4963-15.8267,5.1257-17.31a7.0875,7.0875,0,0,1,3.5071-4.0016c2.0233-.9892,14.8375-6.5195,14.8375-6.5195L283.37-40.9009" style="fill:none;stroke:#a6abb0;stroke-width:0.5px"/><path d="M313.1349,103.0682s-7.7785.1349-11.2855,0-4.2715-2.7427-4.2715-2.7427S263.5865-10.5964,262.8221-13.6538s1.9556-4.4932,1.1349-6.6" style="fill:none;stroke:#a6abb0;stroke-width:0.5px"/><line x1="299.475" y1="102.4624" x2="294.8417" y2="134.2153" style="fill:none;stroke:#a6abb0;stroke-width:0.5px"/><path d="M276.33,96.0575s-2.9372-10.2146-3.3441-11.7216,1.1337-2.3779,2.8752-2.3779,3.8179,1.0382,4.32,2.6793,3.0141,10.1811,3.416,11.42-1.0382,2.3444-2.6123,2.4114S276.8022,97.7025,276.33,96.0575Z" style="fill:none;stroke:#a6abb0;stroke-width:0.5px"/><path d="M273.31,85.4964a.9964.9964,0,0,1,.174-.01c1.74,0,3.8169,1.0336,4.3184,2.6811.1023.3275.2865.9312.5116,1.6987" style="fill:none;stroke:#a6abb0;stroke-width:0.5px"/><path d="M278.9793,92.0968c.6651,2.2513,1.4428,4.8608,1.9033,6.3753" style="fill:none;stroke:#a6abb0;stroke-width:0.5px"/><path d="M274.5123,89.7208l6.3051.2415a4.8387,4.8387,0,0,1,.7033,1.8754c-.3014,1.1387-.77,1.842-1.3731.3014l-4.0859-.1339-.7222.6036" style="fill:none;stroke:#a6abb0;stroke-width:0.5px"/><line x1="275.1418" y1="62.782" x2="277.3109" y2="45.7959" style="fill:none;stroke:#a6abb0;stroke-width:0.5px"/><path d="M275.673,28.7265c.6506,2.1307,3.644,3.6783,7.1383,3.9635a59.78,59.78,0,0,0,12.9075,0c4.7066-.6418,9.7878-4.9918,10.4919-13.1927s1.0607-13.692,1.0607-15.2608a23.9738,23.9738,0,0,0-1.64-8.7714c-1.4263-3.28-15.5461-34.0159-16.5444-35.5135s-3.4295-3.1377-5.0665,2.2107L281.7416-28.21s-.7844,3.0664.1427,5.2057,2.5672,5.6337,2.5672,5.6337a3.6283,3.6283,0,0,1-1.4976,4.2074c-2.4246,1.4263-13.5493,6.1329-13.5493,6.1329s-2.8718,1.0258-2.9691,5.4334" style="fill:none;stroke:#a6abb0;stroke-width:0.5px"/><path d="M285.3072-14.3047c.7132-.4992,2.1394.9271,3.2091,3.7083s9.9124,29.1666,11.3386,34.1585" style="fill:none;stroke:#a6abb0;stroke-width:0.25px"/><path d="M269.4046-7.0308c-1.3355.9489-1.9254,2.7811-.8557,6.2041s6.8459,21.6789,7.4878,23.747,1.7115,4.2074,6.4181,5.1344,10.7681.7845,13.3353,0a10.0586,10.0586,0,0,0,6.846-9.2705c.2852-5.6337.4279-8.7863.3565-11.8453a23.7035,23.7035,0,0,0-1.64-9.3344c-1.4976-3.8509-12.48-30.6643-14.0485-33.5881s-3.0248-2.9477-3.6221-.4243" style="fill:none;stroke:#a6abb0;stroke-width:0.25px"/><path d="M162.6947,35.5272h2.4643a1.3835,1.3835,0,0,1,1.2546,1.5234v7.3526" style="fill:none;stroke:#a6abb0;stroke-width:0.5px"/><path d="M172.8658,44.4032V36.11c0-1.2994-.9858-3.8086-3.54-3.8086h-2.9125s-1.8594.0448-1.8594-1.389V-4.3389h55.8413A72.9083,72.9083,0,0,1,238.44-1.2216a6.2805,6.2805,0,0,1,3.9565,4.0764c1.2589,3.4171,8.4527,28.5353,8.2729,28.5353s-7.5535,1.1391-7.5535,1.1391-2.338.1811-1.6785,2.998,2.0981,8.876,2.0981,8.876" style="fill:none;stroke:#a6abb0;stroke-width:0.5px"/><path d="M250.07,44.4032s-1.3788-5.46-1.6786-6.5986-.06-2.2774,1.6786-2.2774h4.4338" style="fill:none;stroke:#a6abb0;stroke-width:0.5px"/><path d="M282.8113,32.69a1.555,1.555,0,0,0-1.2906,2.0984c.6082,1.7651,18.9129,55.4269,18.9129,55.4269s.7191,2.6071,2.9418,2.6071h10.9828" style="fill:none;stroke:#a6abb0;stroke-width:0.5px"/><path d="M291.9864,65.4535h6.5514c1.7,0,3.0725.5836,3.5955,2.1526s7.9756,25.2163,7.9756,25.2163" style="fill:none;stroke:#a6abb0;stroke-width:0.5px"/><path d="M301.0477,65.4535c1.615-12.7686,3.4238-26.015,4.1582-38.8368-.0726,13.0405-1.8745,26.0186-4.1582,38.8368Z" style="fill:#a6abb0"/><path d="M161.4061,138.7721H289.9717c5.3128,0,14.1838.1689,17.0563-7.7728s7.6883-33.9135,8.6176-45.5131,4.5594-42.5325,4.47-63.2879" style="fill:none;stroke:#a6abb0;stroke-width:0.5px"/><path d="M283.37-40.9009c1.6917-6.5345,3.55-8.3932,6.17-3.24s30.5759,66.3388,30.5759,66.3388S340.36,11.8972,344.4476,10.4932" style="fill:none;stroke:#a6abb0;stroke-width:0.5px"/><path d="M162.2794,118.8548H49.2334c-2.3822,0-5.8471-1.0166-5.9268-3.008l-.08-1.9914s-.1194-1.6727-1.5532-1.6727H33.7879" style="fill:none;stroke:#a6abb0;stroke-width:0.25px"/><path d="M162.2958,121.8216H50.1967c-1.8719,0-3.7039.517-4.1022,2.3889s-.9957,5.4165-1.0753,6.2529-.1992,2.9073,2.23,2.9073H162.3351" style="fill:none;stroke:#a6abb0;stroke-width:0.25px"/><path d="M17.5489,132.3836c2.6977-.1349,3.4171-.139,4.3613.9871s7.3289,2.9822,8.408-1.0482,3.47-11.8539,3.47-11.8539-2.7054-18.0748-2.8852-20.0082a22.24,22.24,0,0,1,.63-7.638C32.2965,90.164,47.224,43.2684,47.6736,42.01s1.214-1.3489,1.5737.9442" style="fill:none;stroke:#a6abb0;stroke-width:0.5px"/><polygon points="49.494 42.915 51.316 60.669 49 42.992 49.494 42.915 49.494 42.915" style="fill:#a6abb0"/><path d="M32.9,114.4975,48.6178,62.782S51.72,61.5231,51.99,60.6688,66.5578-.3,66.5578-.3" style="fill:none;stroke:#a6abb0;stroke-width:0.5px"/><path d="M77.3037,6.9389s-.6744-2.8776-2.6977-3.7768S66.5578-.3,66.5578-.3s-4.4963-15.8267-5.1257-17.31a7.0875,7.0875,0,0,0-3.5071-4.0016c-2.0233-.9892-14.8375-6.5195-14.8375-6.5195L40.39-40.9009" style="fill:none;stroke:#a6abb0;stroke-width:0.5px"/><path d="M10.6247,103.0682s7.7785.1349,11.2855,0,4.2715-2.7427,4.2715-2.7427S60.1731-10.5964,60.9375-13.6538s-1.9556-4.4932-1.1349-6.6" style="fill:none;stroke:#a6abb0;stroke-width:0.5px"/><line x1="24.2846" y1="102.4624" x2="28.9179" y2="134.2153" style="fill:none;stroke:#a6abb0;stroke-width:0.5px"/><path d="M47.43,96.0575s2.9372-10.2146,3.3441-11.7216S49.64,81.958,47.8988,81.958s-3.8179,1.0382-4.32,2.6793-3.0141,10.1811-3.416,11.42,1.0382,2.3444,2.6123,2.4114S46.9574,97.7025,47.43,96.0575Z" style="fill:none;stroke:#a6abb0;stroke-width:0.5px"/><path d="M45.4455,89.866c.2251-.7675.4093-1.3712.5116-1.6987.5015-1.6475,2.5788-2.6811,4.3184-2.6811a.9964.9964,0,0,1,.174.01" style="fill:none;stroke:#a6abb0;stroke-width:0.5px"/><path d="M42.877,98.4721c.46-1.5145,1.2382-4.124,1.9033-6.3753" style="fill:none;stroke:#a6abb0;stroke-width:0.5px"/><path d="M49.2473,89.7208l-6.3051.2415a4.8387,4.8387,0,0,0-.7033,1.8754c.3014,1.1387.77,1.842,1.3731.3014l4.0859-.1339.7222.6036" style="fill:none;stroke:#a6abb0;stroke-width:0.5px"/><line x1="48.6178" y1="62.782" x2="46.4487" y2="45.7959" style="fill:none;stroke:#a6abb0;stroke-width:0.5px"/><path d="M48.0866,28.7265c-.6506,2.1307-3.644,3.6783-7.1383,3.9635a59.78,59.78,0,0,1-12.9075,0c-4.7066-.6418-9.7878-4.9918-10.4919-13.1927S16.4882,5.8053,16.4882,4.2365a23.9738,23.9738,0,0,1,1.64-8.7714c1.4262-3.28,15.546-34.0159,16.5444-35.5135s3.4295-3.1377,5.0664,2.2107L42.018-28.21s.7844,3.0664-.1427,5.2057-2.5672,5.6337-2.5672,5.6337a3.6282,3.6282,0,0,0,1.4976,4.2074C43.23-11.7374,54.355-7.0308,54.355-7.0308s2.8718,1.0258,2.9691,5.4334" style="fill:none;stroke:#a6abb0;stroke-width:0.5px"/><path d="M38.4524-14.3047c-.7132-.4992-2.1394.9271-3.2091,3.7083S25.3309,18.57,23.9047,23.5621" style="fill:none;stroke:#a6abb0;stroke-width:0.25px"/><path d="M54.355-7.0308c1.3355.9489,1.9254,2.7811.8557,6.2041s-6.846,21.6789-7.4878,23.747-1.7115,4.2074-6.4181,5.1344-10.7681.7845-13.3353,0a10.0586,10.0586,0,0,1-6.846-9.2705c-.2852-5.6337-.4279-8.7863-.3565-11.8453a23.7035,23.7035,0,0,1,1.64-9.3344c1.4976-3.8509,12.48-30.6643,14.0485-33.5881s3.0248-2.9477,3.6221-.4243" style="fill:none;stroke:#a6abb0;stroke-width:0.25px"/><path d="M161.0649,35.5272h-2.4643a1.3835,1.3835,0,0,0-1.2546,1.5234v7.3526" style="fill:none;stroke:#a6abb0;stroke-width:0.5px"/><path d="M150.8938,44.4032V36.11c0-1.2994.9857-3.8086,3.54-3.8086h2.9125s1.8594.0448,1.8594-1.389V-4.3389H103.3641A72.9083,72.9083,0,0,0,85.32-1.2216a6.2805,6.2805,0,0,0-3.9565,4.0764C80.1043,6.2719,72.9105,31.39,73.09,31.39s7.5535,1.1391,7.5535,1.1391,2.338.1811,1.6785,2.998-2.0982,8.876-2.0982,8.876" style="fill:none;stroke:#a6abb0;stroke-width:0.5px"/><path d="M73.69,44.4032s1.3788-5.46,1.6786-6.5986.06-2.2774-1.6786-2.2774H69.256" style="fill:none;stroke:#a6abb0;stroke-width:0.5px"/><path d="M40.9483,32.69a1.555,1.555,0,0,1,1.2906,2.0984C41.6307,36.5535,23.326,90.2153,23.326,90.2153s-.7191,2.6071-2.9418,2.6071H9.4014" style="fill:none;stroke:#a6abb0;stroke-width:0.5px"/><path d="M31.7732,65.4535H25.2218c-1.7,0-3.0725.5836-3.5955,2.1526s-7.9756,25.2163-7.9756,25.2163" style="fill:none;stroke:#a6abb0;stroke-width:0.5px"/><path d="M22.7119,65.4535c-2.2837-12.8181-4.0856-25.7964-4.1583-38.8368.7334,12.8119,2.5445,26.0788,4.1583,38.8368Z" style="fill:#a6abb0"/><path d="M162.3535,138.7721H33.7879c-5.3128,0-14.1838.1689-17.0563-7.7728S9.0433,97.0858,8.114,85.4862s-4.5594-42.5325-4.47-63.2879" style="fill:none;stroke:#a6abb0;stroke-width:0.5px"/><path d="M40.39-40.9009c-1.6917-6.5345-3.55-8.3932-6.1695-3.24S3.6443,22.1983,3.6443,22.1983-16.6008,11.8972-20.688,10.4932" style="fill:none;stroke:#a6abb0;stroke-width:0.5px"/><path d="M262.1256,64.1307h1.5l.3738,1.4485" style="fill:none;stroke:#f4ae3d;stroke-width:1.25px"/><path d="M264.7532,68.5022c2.5887,10.0432,8.77,34.0686,9.2119,36.2043.56,2.7069-1.4934,4.0143-4.1107,4.0143H164.5" style="fill:none;stroke:#f4ae3d;stroke-width:1.25px;stroke-dasharray:3.0196075439453125,3.0196075439453125"/><path d="M162.988,108.7208h-2.2164" style="fill:none;stroke:#f4ae3d;stroke-width:1.25px"/><path d="M157.7541,108.7208H53.9052c-2.6173,0-4.6708-1.3074-4.1107-4.0143.465-2.2475,7.286-28.736,9.5875-37.6613" style="fill:none;stroke:#f4ae3d;stroke-width:1.25px;stroke-dasharray:3.0196075439453125,3.0196075439453125"/><path d="M59.76,65.5792l.3738-1.4485h1.5" style="fill:none;stroke:#f4ae3d;stroke-width:1.25px"/><line x1="64.6265" y1="64.1307" x2="260.6293" y2="64.1307" style="fill:none;stroke:#f4ae3d;stroke-width:1.25px;stroke-dasharray:2.992410659790039,2.992410659790039"/><path d="M266.8947,73.6439a.59.59,0,0,1,.5779.4437c1.0576,4.1588,9.2041,36.208,9.7429,38.8122.5763,2.7854-1.5367,4.1307-4.23,4.1307H50.774c-2.6932,0-4.8062-1.3453-4.23-4.1307.5387-2.604,8.63-34.6486,9.6821-38.8113a.59.59,0,0,1,.5782-.4446Z" style="fill:#cfd2d4;stroke:#30373e;stroke-width:1.25px"/><path d="M161.4913,113.7689h9.911c1.408,0,3.6045-.6761,3.6045-2.4783s-.3979-5.5195-.3979-6.5333-1.07-2.5908-3.6045-2.5908h-9.4736" style="fill:none;stroke:#30373e;stroke-width:0.5px"/><path d="M161.4913,110.7193h9.2148a1.6073,1.6073,0,0,0,1.69-1.8229v-3.5793a1.5344,1.5344,0,0,0-1.624-1.624h-9.2811" style="fill:none;stroke:#30373e"/><path d="M161.4913,99.7491h12.5953c1.6571,0,5.1039.8286,5.1039,3.944v8.4181c0,.9943.5966,2.3863,3.944,2.3863h86.8c2.0548,0,3.5131-.5966,2.9165-3.3142s-8.909-35.8823-8.909-35.8823a2.2232,2.2232,0,0,0-1.7565-1.6571" style="fill:none;stroke:#30373e;stroke-width:0.5px"/><path d="M162.2683,113.7689h-9.911c-1.408,0-3.6045-.6761-3.6045-2.4783s.3979-5.5195.3979-6.5333,1.07-2.5908,3.6045-2.5908h9.4736" style="fill:none;stroke:#30373e;stroke-width:0.5px"/><path d="M162.2683,110.7193h-9.2148a1.6073,1.6073,0,0,1-1.69-1.8229v-3.5793a1.5344,1.5344,0,0,1,1.624-1.624h9.2811" style="fill:none;stroke:#30373e"/><path d="M162.2683,99.7491H149.673c-1.6571,0-5.1039.8286-5.1039,3.944v8.4181c0,.9943-.5966,2.3863-3.944,2.3863h-86.8c-2.0548,0-3.5131-.5966-2.9165-3.3142s8.909-35.8823,8.909-35.8823a2.2232,2.2232,0,0,1,1.7565-1.6571" style="fill:none;stroke:#30373e;stroke-width:0.5px"/><path d="M223.233,69.1069l5.9792,19.72a19.6194,19.6194,0,0,1,.6152,8.68l-.9611,6.2376H234.89l.9611-6.2376a19.6194,19.6194,0,0,0-.6152-8.68l-5.9792-19.72Z" style="fill:#f4ae3d"/><polygon points="218.769 71.64 234.971 71.64 225.053 65.957 218.769 71.64" style="fill:#f4ae3d"/><path d="M101.3036,69.1069l-5.9792,19.72a19.6194,19.6194,0,0,0-.6152,8.68l.9611,6.2376H89.6466l-.9611-6.2376a19.6194,19.6194,0,0,1,.6152-8.68l5.9792-19.72Z" style="fill:#f4ae3d"/><polygon points="105.767 71.64 89.566 71.64 99.484 65.957 105.767 71.64" style="fill:#f4ae3d"/></g><g id="f2c954ce-59c1-423e-a652-88f5c3f815c8" data-name="above"><path d="M253.473,44.4032s1.12-7.711,1.0306-8.876S247.8274,9.5841,244.96,2.415c-1.8371-4.0326-4.1222-4.615-6.3178-5.2871a67.9466,67.9466,0,0,0-18.2811-2.9125c-9.051-.1792-55.6947-.3584-55.6947-.3584s-1.9715,0-1.9715,1.6578V44.998" style="fill:none;stroke:#a6abb0"/><path d="M70.2865,44.4032s-1.12-7.711-1.0305-8.876S75.9322,9.5841,78.8,2.415C80.6369-1.6176,82.922-2.2,85.1176-2.8721a67.9466,67.9466,0,0,1,18.2811-2.9125c9.051-.1792,55.6947-.3584,55.6947-.3584s1.9715,0,1.9715,1.6578V44.998" style="fill:none;stroke:#a6abb0"/><path d="M11.0888,36.448,7.3211,44.481a.4658.4658,0,0,1-.85-.26L6.44,39.5236a1.2576,1.2576,0,0,1,.2192-.7178l3.7677-8.033a.4658.4658,0,0,1,.85.26l.0311,4.6977A1.2571,1.2571,0,0,1,11.0888,36.448Z" style="fill:none;stroke:#a6abb0;stroke-width:0.5px"/></g><g id="f6730bab-8102-43e3-84ae-ca508a2e5d3b" data-name="body"><path d="M137.3231,126.1838c.0986-1.4381-.836-2.8284-3.05-2.8284H128.544l-.8143,8.6376h1.9788l.6314-7.1138h3.53c1.0862,0,1.5664.4987,1.5067,1.3046-.0609.8218-.6194,1.3266-1.7138,1.3266h-1.5133a1.0441,1.0441,0,0,0-1.1578,1.0162l-.0468.5443h1.0906a1.313,1.313,0,0,1,1.16.5482l1.7637,2.3739h2.4273l-2.4717-3.2825a2.714,2.714,0,0,0,2.4084-2.5267Z" style="fill:none;stroke:#cfd2d4;stroke-miterlimit:10;stroke-width:0.25px"/><polygon points="144.46 123.355 142.529 123.355 142.06 131.993 144.039 131.993 144.46 123.355" style="fill:none;stroke:#cfd2d4;stroke-miterlimit:10;stroke-width:0.25px"/><polygon points="159.344 123.355 157.284 123.355 153.872 130.006 150.744 123.355 148.684 123.355 152.774 131.993 154.885 131.993 159.344 123.355" style="fill:none;stroke:#cfd2d4;stroke-miterlimit:10;stroke-width:0.25px"/><polygon points="165.534 123.355 163.602 123.355 163.655 131.993 165.634 131.993 165.534 123.355" style="fill:none;stroke:#cfd2d4;stroke-miterlimit:10;stroke-width:0.25px"/><path d="M176.2465,123.3554h-2.06l-4.2234,8.6376h2.1107l.5319-1.1343a1.1223,1.1223,0,0,1,1.1335-.69h3.4125l-.4421-.8242a1.328,1.328,0,0,0-1.2867-.7459h-1.7379l1.6043-3.3912,3.75,6.7854H181.15Z" style="fill:none;stroke:#cfd2d4;stroke-miterlimit:10;stroke-width:0.25px"/><polygon points="194.38 123.355 192.513 123.355 193.08 129.731 187.12 123.355 184.905 123.355 185.485 131.993 187.398 131.993 186.93 125.536 192.926 131.993 195.195 131.993 194.38 123.355" style="fill:none;stroke:#cfd2d4;stroke-miterlimit:10;stroke-width:0.25px"/></g></svg>
