<svg xmlns="http://www.w3.org/2000/svg" width="161.749" height="120.821" viewBox="0 0 161.749 120.821"><g id="a35d147a-646f-4434-9095-387d8b92cb38" data-name="below"><g id="bb967de8-a566-49ee-b3c3-8044f64b0e89" data-name="Offset Group"><path d="M80.436,84.955c27.123.069,41.6,1.333,45.45,1.7a5.435,5.435,0,0,1,3.753,1.9c1.517,1.791,1.846,4.43,1.695,6.586-.221,3.172-.727,10.481-2.3,15.253-.82,2.487-1.682,4.44-3.347,5.731-1.453,1.125-3.376,1.643-6.029,1.819-9.123.605-27.085,1.266-39.269,1.231s-30.195-.8-39.316-1.454c-2.652-.19-4.573-.719-6.02-1.853-1.659-1.3-2.514-3.257-3.323-5.749-1.552-4.78-2.029-12.092-2.237-15.266-.141-2.156.2-4.794,1.723-6.577a5.426,5.426,0,0,1,3.762-1.88C38.834,86.052,53.313,84.87,80.436,84.955Z" style="fill:none;stroke:#a6abb0;stroke-miterlimit:10;stroke-width:0.5px"/><path d="M80.435,85.205c27.116.069,41.582,1.333,45.427,1.7a5.187,5.187,0,0,1,3.586,1.814c1.455,1.718,1.786,4.276,1.637,6.407-.222,3.182-.727,10.457-2.288,15.193-.818,2.484-1.662,4.371-3.263,5.611-1.394,1.081-3.258,1.593-5.892,1.768-9.117.6-27.074,1.265-39.251,1.23s-30.184-.8-39.3-1.453c-2.632-.189-4.494-.712-5.883-1.8-1.6-1.249-2.432-3.14-3.24-5.63-1.54-4.745-2.017-12.022-2.225-15.2-.14-2.132.2-4.689,1.663-6.4A5.182,5.182,0,0,1,35,86.651C38.848,86.3,53.32,85.12,80.435,85.205Z" style="fill:none;stroke:#a6abb0;stroke-miterlimit:10;stroke-width:0.5px"/><path d="M80.434,85.455c27.108.069,41.566,1.332,45.4,1.7a4.942,4.942,0,0,1,3.42,1.727,8.868,8.868,0,0,1,1.577,6.228c-.222,3.191-.727,10.431-2.275,15.131-.818,2.482-1.644,4.3-3.179,5.492-1.336,1.036-3.141,1.543-5.755,1.716-9.113.6-27.063,1.265-39.235,1.23s-30.171-.8-39.281-1.452c-2.613-.188-4.415-.7-5.747-1.748-1.531-1.2-2.349-3.023-3.156-5.51-1.529-4.709-2-11.951-2.214-15.144-.138-2.108.205-4.584,1.6-6.22A4.928,4.928,0,0,1,35.024,86.9C38.863,86.552,53.327,85.37,80.434,85.455Z" style="fill:none;stroke:#a6abb0;stroke-miterlimit:10;stroke-width:0.5px"/><path d="M80.434,85.705c27.1.069,41.55,1.332,45.38,1.7a4.688,4.688,0,0,1,3.253,1.639,8.631,8.631,0,0,1,1.519,6.049c-.223,3.2-.727,10.407-2.264,15.071-.816,2.48-1.624,4.233-3.094,5.373-1.279.991-3.025,1.492-5.619,1.664-9.107.6-27.052,1.264-39.217,1.229s-30.16-.8-39.264-1.452c-2.593-.186-4.337-.7-5.611-1.695-1.466-1.148-2.266-2.906-3.072-5.39-1.518-4.673-1.992-11.881-2.2-15.084a8.624,8.624,0,0,1,1.545-6.041,4.683,4.683,0,0,1,3.26-1.62C38.878,86.8,53.334,85.62,80.434,85.705Z" style="fill:none;stroke:#a6abb0;stroke-miterlimit:10;stroke-width:0.5px"/></g><path d="M80.433,85.955c27.092.069,41.535,1.332,45.357,1.7s4.771,4.211,4.547,7.422-.727,10.381-2.252,15.01-2.954,6.5-8.493,6.865c-9.1.6-27.04,1.264-39.2,1.229s-30.148-.8-39.247-1.451c-5.537-.4-6.958-2.277-8.464-6.914s-1.979-11.81-2.19-15.022.753-7.05,4.577-7.4S53.341,85.87,80.433,85.955Z" style="fill:none;stroke:#a6abb0;stroke-miterlimit:10;stroke-width:0.5px"/><path d="M80.4,116.328c-11.86-.034-29.828-.777-39.168-1.449-5.035-.362-6-1.91-7.3-5.914-1.466-4.516-1.916-11.365-2.108-14.29-.106-1.622.007-5.427,3.354-5.73C39.958,88.511,53.68,87.5,77.688,87.5c.9,0,1.812,0,2.742.005,25.646.065,40.189,1.207,45.251,1.695,3.345.322,3.443,4.128,3.33,5.749-.2,2.923-.683,9.77-2.168,14.277-1.317,4-2.289,5.54-7.326,5.873-8.911.591-26.049,1.228-38.2,1.228Z" style="fill:none;stroke:#a6abb0;stroke-miterlimit:10;stroke-width:0.5px"/><path d="M80.906,79.408H55.678a2.864,2.864,0,0,1-2.288-1.222l-2.772-3.752a2.862,2.862,0,0,0-2.289-1.223H23.318c-8.465,0-9.76-5.229-15.935-5.229H3.245" style="fill:none;stroke:#a6abb0;stroke-miterlimit:10;stroke-width:1.5px"/><path d="M132.888,73.211c3.9,0,7.18-.751,9.243-7.7s7.486-25.488,9.319-31.727.7-9.135-2.7-12.659A114.1,114.1,0,0,0,130.7,5.942c-5.268-3.512-6.844-3.74-49.8-3.74s-44.53.228-49.8,3.74A114.043,114.043,0,0,0,13.062,21.123c-3.4,3.524-4.534,6.421-2.7,12.659s7.257,24.775,9.32,31.727,5.347,7.7,9.242,7.7" style="fill:none;stroke:#a6abb0;stroke-miterlimit:10"/><path d="M80.906,38.443H34.85c-2.175,0-3.47.091-7.033,2.321-3.5,2.191-4.008,1.92-3.24,5.183.559,2.372.881,3.565,1.435,5.56.623,2.243,1.651,3.545,7.666,3.564,6.757.021,31.878.161,47.228.161" style="fill:none;stroke:#a6abb0;stroke-miterlimit:10;stroke-width:0.5px"/><path d="M80.906,41.408c-12.854,0-20.744.081-24.524.331-1.455.1-2.578,1.251-2.342,3.305l.55,4.782a2.4,2.4,0,0,0,2.225,2.436c2.809.234,9.364.257,24.091.257" style="fill:none;stroke:#a6abb0;stroke-miterlimit:10;stroke-width:0.5px"/><path d="M80.906,36.914H126.5c5.664,0,6.214.885,9.811,2.979,4.154,2.419,5.915,3.782,5.2,6.433s-1.265,5.074-2.212,8.194c-.834,2.747-3.539,3.221-8.512,3.221H31.028c-4.973,0-7.678-.474-8.511-3.221-.947-3.12-1.5-5.543-2.213-8.194s1.044-4.014,5.2-6.433c3.6-2.094,4.147-2.979,9.812-2.979Z" style="fill:none;stroke:#a6abb0;stroke-miterlimit:10;stroke-width:0.5px"/><path d="M80.906,38.443h46.055c2.175,0,3.471.091,7.034,2.321,3.5,2.191,4.008,1.92,3.239,5.183-.559,2.372-.88,3.565-1.435,5.56-.622,2.243-1.65,3.545-7.666,3.564-6.756.021-31.878.161-47.227.161" style="fill:none;stroke:#a6abb0;stroke-miterlimit:10;stroke-width:0.5px"/><path d="M80.906,42.715c-13.826,0-20.907.095-24.438.329a1.166,1.166,0,0,0-.837.388,1.921,1.921,0,0,0-.292,1.462l.55,4.783c.139,1.208.722,1.257,1.035,1.283,2.744.228,9.415.252,23.982.252s21.237-.024,23.982-.252c.313-.026.9-.075,1.035-1.283l.55-4.783a1.926,1.926,0,0,0-.293-1.462,1.166,1.166,0,0,0-.837-.388c-3.531-.234-10.611-.329-24.437-.329" style="fill:none;stroke:#a6abb0;stroke-miterlimit:10;stroke-width:0.5px"/><path d="M80.906,41.408c12.853,0,20.743.081,24.524.331,1.454.1,2.577,1.251,2.341,3.305l-.55,4.782A2.393,2.393,0,0,1,105,52.262c-2.809.234-9.363.257-24.09.257" style="fill:none;stroke:#a6abb0;stroke-miterlimit:10;stroke-width:0.5px"/><line x1="26.519" y1="65.687" x2="80.906" y2="65.687" style="fill:none;stroke:#a6abb0;stroke-linecap:round;stroke-linejoin:round"/><path d="M36.407,72.8h-3.34c-4.94,0-6.5-5.97-6.756-6.97" style="fill:none;stroke:#a6abb0;stroke-linecap:round;stroke-linejoin:round;stroke-width:0.5px"/><path d="M125.4,72.8h3.34c4.94,0,6.5-5.97,6.756-6.97" style="fill:none;stroke:#a6abb0;stroke-linecap:round;stroke-linejoin:round;stroke-width:0.5px"/><path d="M66.685,73.99c.118.482-.123.877-.537.877H55.313a1.124,1.124,0,0,1-.967-.877l-1.37-5.578c-.119-.482.123-.877.536-.877H64.348a1.124,1.124,0,0,1,.967.877Z" style="fill:none;stroke:#a6abb0;stroke-miterlimit:10;stroke-width:0.5px"/><line x1="135.293" y1="65.687" x2="80.906" y2="65.687" style="fill:none;stroke:#a6abb0;stroke-linecap:round;stroke-linejoin:round"/><path d="M95.126,73.99c-.118.482.123.877.537.877H106.5a1.125,1.125,0,0,0,.968-.877l1.37-5.578c.118-.482-.123-.877-.537-.877H97.464a1.125,1.125,0,0,0-.968.877Z" style="fill:none;stroke:#a6abb0;stroke-miterlimit:10;stroke-width:0.5px"/><path d="M76.592,78.992h-2.51a1.414,1.414,0,0,1-1.307-1.1l-3.107-11.1a1.414,1.414,0,0,0-1.307-1.1H61.439" style="fill:none;stroke:#a6abb0;stroke-linecap:round;stroke-linejoin:round;stroke-width:0.5px"/><path d="M85.219,78.992H87.73a1.414,1.414,0,0,0,1.307-1.1l3.107-11.1a1.412,1.412,0,0,1,1.307-1.1h5" style="fill:none;stroke:#a6abb0;stroke-linecap:round;stroke-linejoin:round;stroke-width:0.5px"/><path d="M53.525,77.609l-8.4-11.365a1.3,1.3,0,0,0-1.042-.557H42.248" style="fill:none;stroke:#a6abb0;stroke-miterlimit:10;stroke-width:0.5px"/><path d="M80.906,79.408h25.227a2.864,2.864,0,0,0,2.288-1.222l2.773-3.752a2.86,2.86,0,0,1,2.288-1.223h25.011c8.466,0,9.761-5.229,15.936-5.229h5.185" style="fill:none;stroke:#a6abb0;stroke-miterlimit:10;stroke-width:1.5px"/><path d="M108.287,77.609l8.4-11.365a1.3,1.3,0,0,1,1.042-.557h1.837" style="fill:none;stroke:#a6abb0;stroke-miterlimit:10;stroke-width:0.5px"/><line x1="96.45" y1="45.871" x2="101.484" y2="45.871" style="fill:none;stroke:#a6abb0;stroke-linecap:round;stroke-linejoin:round;stroke-width:0.5px"/><line x1="96.355" y1="47.112" x2="101.376" y2="47.112" style="fill:none;stroke:#a6abb0;stroke-linecap:round;stroke-linejoin:round;stroke-width:0.5px"/><line x1="96.26" y1="48.348" x2="101.269" y2="48.348" style="fill:none;stroke:#a6abb0;stroke-linecap:round;stroke-linejoin:round;stroke-width:0.5px"/><path d="M47.681,73.211s1.2,4.849,3.033,13.233" style="fill:none;stroke:#a6abb0;stroke-miterlimit:10;stroke-width:0.5px"/><path d="M139.773,73.169c-4.637,14.729-7.211,21.99-9.857,26.959" style="fill:none;stroke:#a6abb0;stroke-miterlimit:10;stroke-width:0.5px"/><path d="M148.6,32.642c-.548,1.862-1.42,4.826-2.42,8.248-.483,1.646-1.005,3.422-1.536,5.244.634-4.957-3.559-6.894-6.98-8.887-4-2.387-6.979-3.352-12.669-3.352H36.823c-5.7,0-8.676.969-12.67,3.352-3.416,1.982-7.6,3.92-6.983,8.862-.531-1.812-1.049-3.578-1.532-5.219-1.005-3.422-1.872-6.386-2.42-8.248-1.436-4.882-.634-6.316,1.851-8.883A110.538,110.538,0,0,1,32.608,9c4.465-2.98,5.664-3.78,48.3-3.78s43.836.8,48.3,3.78a110.725,110.725,0,0,1,17.539,14.755C149.224,26.326,150.027,27.76,148.6,32.642Z" style="fill:none;stroke:#a6abb0;stroke-miterlimit:10;stroke-width:0.5px"/><polygon points="80.906 43.977 76.936 49.644 84.853 49.656 80.906 43.977" style="fill:none;stroke:#a6abb0;stroke-miterlimit:10;stroke-width:0.5px"/><polygon points="80.902 46.154 79.287 48.402 82.508 48.408 80.902 46.154" style="fill:none;stroke:#a6abb0;stroke-miterlimit:10;stroke-width:0.5px"/><line x1="91.719" y1="41.435" x2="90.911" y2="52.508" style="fill:none;stroke:#a6abb0;stroke-miterlimit:10;stroke-width:0.5px"/><line x1="70.092" y1="41.435" x2="70.9" y2="52.508" style="fill:none;stroke:#a6abb0;stroke-miterlimit:10;stroke-width:0.5px"/></g><g id="e7697df3-9e1e-429c-beb8-1447effd4342" data-name="illustration"><path d="M60.722,46.82h-.408a.339.339,0,0,0-.379-.327c-.213,0-.34.108-.335.292s.16.26.489.367c.524.162.728.339.737.667.012.413-.32.653-.785.653-.555,0-.864-.287-.884-.7h.408c.015.252.182.391.47.391.256,0,.39-.133.384-.315s-.148-.263-.5-.37c-.448-.133-.713-.3-.725-.662s.259-.638.745-.638C60.393,46.175,60.7,46.4,60.722,46.82Z" style="fill:#a6abb0"/><path d="M63.673,47.323a1.156,1.156,0,0,1-1.268,1.149,1.23,1.23,0,0,1-1.333-1.149,1.156,1.156,0,0,1,1.276-1.148A1.222,1.222,0,0,1,63.673,47.323Zm-2.178,0a.843.843,0,0,0,.9.821.794.794,0,0,0,.857-.821.839.839,0,0,0-.9-.817A.792.792,0,0,0,61.5,47.323Z" style="fill:#a6abb0"/><path d="M65.531,46.82h-.408a.336.336,0,0,0-.376-.327c-.214,0-.342.108-.338.292s.158.26.485.367c.523.162.725.339.732.667.007.413-.327.653-.792.653-.555,0-.861-.287-.877-.7h.408c.013.252.178.391.466.391.256,0,.391-.133.387-.315s-.146-.263-.5-.37c-.447-.133-.711-.3-.719-.662s.265-.638.75-.638C65.208,46.175,65.508,46.4,65.531,46.82Z" style="fill:#a6abb0"/><path d="M91.719,41.435c-3.118-.019-6.713-.027-10.813-.027s-7.7.008-10.814.027L70.9,52.51c2.824.007,6.132.009,10.006.009s7.182,0,10-.009Z" style="fill:none;stroke:#f4f4f4;stroke-miterlimit:10;stroke-width:2.5px"/><path d="M91.719,41.435c-3.118-.019-6.713-.027-10.813-.027s-7.7.008-10.814.027L70.9,52.51c2.824.007,6.132.009,10.006.009s7.182,0,10-.009Z" style="fill:#f4ae3d"/><path d="M91.719,41.435c-3.118-.019-6.713-.027-10.813-.027s-7.7.008-10.814.027L70.9,52.51c2.824.007,6.132.009,10.006.009s7.182,0,10-.009Z" style="fill:none;stroke:#30373e;stroke-miterlimit:10"/><path d="M70.805,51.2c2.849.007,6.19.009,10.1.009s7.251,0,10.1-.009" style="fill:none;stroke:#30373e;stroke-miterlimit:10;stroke-width:0.5px"/><path d="M91.624,42.742c-3.022-.019-6.566-.027-10.718-.027s-7.7.008-10.719.027" style="fill:none;stroke:#30373e;stroke-miterlimit:10;stroke-width:0.5px"/><polygon points="80.906 43.977 76.936 49.644 84.853 49.656 80.906 43.977" style="fill:none;stroke:#30373e;stroke-miterlimit:10;stroke-width:0.5px"/><polygon points="80.902 46.154 79.287 48.402 82.508 48.408 80.902 46.154" style="fill:none;stroke:#30373e;stroke-miterlimit:10;stroke-width:0.5px"/></g></svg>