<?xml version="1.0" encoding="UTF-8"?><svg xmlns="http://www.w3.org/2000/svg" width="487.497" height="463.879" viewBox="0 0 487.497 463.879"><g id="uuid-8805274d-03eb-44da-8de4-27ea0cae3a1f"><path d="m479.647,243.156C479.647,109.908,374.292,1.892,244.324,1.892c-129.969,0-235.324,108.016-235.324,241.264,0,61.533,24.228,116.174,59.475,160.284,3.569,4.467,6.682,4.151,7.704,4.479-1.483.578-1.207,2.78,1.616,5.704,11.659,12.076,24.323,22.747,37.855,31.904,10.195,6.9,22.002,11.104,34.218,12.25,24.353,2.282,56.211,4.21,94.455,4.21s70.102-1.928,94.455-4.21c12.216-1.146,24.023-5.35,34.218-12.25,13.532-9.157,26.196-19.828,37.855-31.904,2.824-2.924,3.1-5.126,1.616-5.704,4.656-1.551,7.662-4.387,10.066-7.473,33.963-43.58,57.113-97.142,57.113-157.291ZM59.233,163.014c11.619-27.345,22.934-24.745,34.139-37.867,8.658-10.128,37.722-86.823,150.951-86.823,113.229,0,142.293,76.695,150.951,86.823,11.206,13.122,22.52,10.522,34.139,37.867,10.55,24.824-.493,31.644-9.998,31.644-11.96,0-31.952-4.419-61.198-10.168-46.045-9.057-43.241-10.098-113.894-10.098-70.654,0-67.85,1.041-113.894,10.098-29.246,5.749-49.238,10.168-61.197,10.168-9.506,0-20.549-6.82-9.998-31.644Zm93.913,257.684c-8.599-1.026-17.444-4.264-24.476-9.445-1.266-.932-2.523-1.883-3.765-2.85-3.765-2.845-6.914-2.112-6.914-2.112,0,0,1.71-1.818-1.68-4.967-27.088-25.128-48.341-56.439-60.039-93.15-3.592-11.961-1.629-22.584,12.804-22.937,14.275-.349,31.969.609,41.935,1.611,9.971.997,16.932,10.357,16.932,10.357,7.384,10.946,20.276,28.994,26.829,38.435,6.554,9.445,9.013,12.26,11.304,27.171l8.85,59.199c-9.313-.144-16.424-.668-21.781-1.31Zm127.584-54.357c-.33,5.634-.986,11.269-1.419,14.029-.439,2.76-2.513,7.841-9.614,8.394-7.101.548-18.627.438-25.373.438-6.746,0-18.272.11-25.373-.438-7.101-.553-9.175-5.634-9.614-8.394s-1.094-8.394-1.419-14.029c-.173-2.984.764-7.747,5.243-7.856,4.479-.11,16.498.239,31.163.239,14.665,0,26.684-.349,31.163-.239,4.479.11,5.415,4.872,5.243,7.856Zm91.607,34.982c-3.39,3.148-1.68,4.967-1.68,4.967,0,0-3.149-.732-6.914,2.112-1.242.966-2.498,1.918-3.765,2.85-7.032,5.181-15.877,8.419-24.476,9.445-5.356.643-12.467,1.166-21.781,1.31l8.85-59.199c2.291-14.911,4.75-17.725,11.304-27.171,6.554-9.441,19.445-27.489,26.829-38.435,0,0,6.961-9.359,16.932-10.357,9.966-1.002,27.66-1.959,41.935-1.611,14.433.353,16.397,10.976,12.804,22.937-11.699,36.711-32.952,68.022-60.039,93.15Z" style="fill:none; stroke:#a6abb0; stroke-miterlimit:10;"/><path d="m452.45,260.2c-1.601-12.594-4.028-26.946-7.528-39.751-3.5-12.822-11.697-16.024-23.059-17.132-11.362-1.091-40.525-4.415-50.129-5.066-9.621-.668-13.332-2.885-17.044-5.417-3.729-2.55-16.375-12.312-16.375-12.312-10.166-2.023-17.659-3.395-26.084-4.292,10.518,1.425,12.295,2.849,19.682,8.988,7.37,6.121,9.498,8.284,9.991,20.034.035.827.07,1.794.106,2.867.088-.158.193-.317.334-.44.422-.405,1.003-.616,1.583-.563,0,0,58.712,5.048,70.62,6.262,11.908,1.214,16.727,3.975,18.574,11.38,1.864,7.387,4.696,20.984,5.681,30.359.985,9.393.545,14.581-10.817,15.021-10.149.405-71.13,1.882-83.354,2.199-.58.017-1.143-.211-1.53-.633-.369-.387-.58-.915-.58-1.46-.405,5.576-1.601,8.97-5.699,15.689-5.241,8.619-18.521,26.999-26.225,36.62-7.686,9.604-14.247,10.606-28.178,11.749-13.93,1.161-30.64,1.003-38.098,1.003s-24.167.158-38.098-1.003c-13.93-1.143-20.491-2.146-28.195-11.749-7.686-9.621-20.966-28.002-26.208-36.62-4.081-6.701-5.277-10.096-5.699-15.637.035.58-.158,1.143-.563,1.565-.405.422-.95.668-1.53.651-12.224-.334-73.223-1.97-83.372-2.374-11.363-.44-11.802-5.629-10.817-15.021.985-9.375,3.817-22.971,5.681-30.359,1.847-7.405,6.666-10.166,18.574-11.38,11.908-1.214,70.286-6.35,70.286-6.35,1.513-.141,2.216,1.073,2.216,2.04.053-1.46.106-2.744.141-3.817.493-11.749,2.621-13.913,9.991-20.034,7.387-6.139,9.164-7.563,19.682-8.988-8.425.915-15.918,2.269-26.085,4.292,0,0-12.646,9.762-16.375,12.312-3.711,2.533-7.423,4.749-17.044,5.417-9.604.651-38.766,3.975-50.129,5.066-11.362,1.108-19.559,4.309-23.059,17.132-3.5,12.805-5.927,27.157-7.528,39.751-1.478,11.538-.07,19.911,18.609,20.104,20.825.229,58.501,1.882,65.502,2.093,4.591.158,9.058,3.483,11.749,7.229,3.236,4.503,24.027,34.211,35.846,49.302,9.217,11.785,17.184,15.584,76.424,15.584s67.208-3.799,76.424-15.584c11.82-15.091,32.61-44.799,35.846-49.302,2.691-3.746,7.159-7.071,11.749-7.229,6.983-.211,44.676-1.864,65.501-2.093,18.68-.193,20.087-8.566,18.609-20.104Z" style="fill:none; stroke:#a6abb0; stroke-miterlimit:10;"/><path d="m248.545,269.985c-1.128,1.14-2.626,1.767-4.222,1.767s-3.095-.627-4.222-1.767l-22.915-23.166c-2.327-2.357-2.327-6.185,0-8.537l22.915-23.166c1.126-1.14,2.626-1.769,4.222-1.769,1.596,0,3.096.629,4.225,1.772l22.912,23.164c2.327,2.352,2.327,6.18.003,8.535l-22.917,23.169Z" style="fill:none; stroke:#a6abb0; stroke-linecap:round; stroke-linejoin:round; stroke-width:.5px;"/><path d="m243.202,225.418c.619-.626,1.623-.626,2.242,0l15.235,15.403c.472.477,1.113.746,1.781.746h6.446c.263,0,.5-.16.6-.405s.045-.528-.141-.716c0,0,0,0,0,0l-22.963-23.215c-1.148-1.161-3.011-1.161-4.159,0l-22.963,23.215c-.186.188-.241.47-.141.716s.337.405.6.405h6.446c.668,0,1.308-.268,1.781-.746l15.235-15.403Zm2.242,34.264c-.297.301-.701.47-1.121.47s-.824-.169-1.121-.47l-15.235-15.407c-.472-.478-1.113-.746-1.781-.746h-6.446c-.263,0-.499.16-.6.405s-.045.528.141.716c0,0,0,0,0,0l22.963,23.215c1.148,1.161,3.011,1.161,4.159,0l22.963-23.215c.186-.188.241-.47.141-.716s-.337-.405-.6-.405h-6.446c-.668,0-1.309.268-1.781.746l-15.235,15.407Z" style="fill:none; stroke:#a6abb0; stroke-linecap:round; stroke-linejoin:round; stroke-width:.5px;"/><path d="m243.042,236.295c0,.405-.159.793-.442,1.079l-4.25,4.296c-.478.483-.478,1.267,0,1.75l4.25,4.296c.283.286.442.674.442,1.079v6.584c0,.266-.158.505-.401.607s-.522.045-.708-.143l-11.352-11.498c-.982-.995-.981-2.605.002-3.599l11.351-11.476c.186-.188.465-.244.708-.142s.401.341.401.607v6.56Z" style="fill:none; stroke:#a6abb0; stroke-linecap:round; stroke-linejoin:round; stroke-width:.5px;"/><path d="m258.063,240.747c.983.994.984,2.605.002,3.599l-11.557,11.705c-.186.188-.465.244-.708.143s-.401-.341-.401-.607v-6.584c0-.405.159-.793.442-1.079l4.455-4.503c.478-.483.478-1.267,0-1.75l-4.455-4.503c-.283-.286-.442-.674-.442-1.079v-6.56c0-.266.158-.505.401-.607s.522-.045.708.142l11.556,11.683Z" style="fill:none; stroke:#a6abb0; stroke-linecap:round; stroke-linejoin:round; stroke-width:.5px;"/><path d="m76.185,407.917c3.703.484,9.445.946,19.976.946,13.175,0,19.74-1.339,21.832-2.572" style="fill:none; stroke:#a6abb0; stroke-miterlimit:10; stroke-width:.5px;"/><path d="m146.605,209.15c.031-.991-.674-2.254-2.224-2.12,0,0-58.381,5.133-70.288,6.348-11.908,1.215-16.714,3.976-18.572,11.376-1.857,7.4-4.698,20.984-5.681,30.372-.983,9.388-.546,14.579,10.815,15.02,10.144.394,71.153,2.041,83.371,2.363.577.015,1.134-.217,1.534-.638s.607-.995.567-1.577" style="fill:none; stroke:#a6abb0; stroke-linecap:round; stroke-linejoin:round; stroke-width:.5px;"/><path d="m145.9,251.645c-.014,1.134-.926,2.046-2.048,2.047-10.289.008-56.738.039-67.794-.002-6.446-.024-7.319-2.651-6.928-6.962.29-3.197,1.356-9.936,2.012-12.586.655-2.651,2.513-5.633,8.084-5.854,4.949-.196,53.954-1.613,64.841-1.927.558-.016,1.098.199,1.496.594s.62.938.614,1.502l-.276,23.188Z" style="fill:none; stroke:#a6abb0; stroke-linecap:round; stroke-linejoin:round; stroke-width:.5px;"/><path d="m341.701,209.237c-.016-.59.218-1.158.643-1.563s1-.607,1.581-.557c0,0,58.721,5.046,70.629,6.261,11.908,1.215,16.714,3.976,18.572,11.376s4.698,20.984,5.681,30.372c.983,9.388.546,14.579-10.815,15.02-10.144.394-71.141,1.874-83.359,2.196-.577.015-1.134-.217-1.534-.638s-.607-.995-.567-1.577" style="fill:none; stroke:#a6abb0; stroke-linecap:round; stroke-linejoin:round; stroke-width:.5px;"/><path d="m342.753,251.645c.014,1.134.926,2.046,2.048,2.047,10.288.008,56.73.039,67.787-.002,6.446-.024,7.319-2.651,6.928-6.962-.29-3.197-1.356-9.936-2.012-12.586s-2.513-5.633-8.084-5.854c-4.949-.196-53.947-1.613-64.833-1.927-.558-.016-1.098.199-1.496.594s-.62.938-.614,1.502l.276,23.187Z" style="fill:none; stroke:#a6abb0; stroke-linecap:round; stroke-linejoin:round; stroke-width:.5px;"/><path d="m72.601,247.596c-.19,1.541,1.005,2.887,2.514,2.891,4.613.014,15.548.032,50.732.012,1.606,0,4.907-.283,5.246-5.416.193-2.92.324-6.384.438-8.639.231-4.561-1.718-6.384-6.183-6.271-4.465.113-42.485,1.069-46.007,1.208-3.653.145-4.523,2.148-4.918,3.748-.032.131-.788,4.093-1.822,12.467Z" style="fill:none; stroke:#a6abb0; stroke-linecap:round; stroke-linejoin:round; stroke-width:.5px;"/><path d="m77.299,280.831c0,3.692.54,4.314,1.7,4.353" style="fill:none; stroke:#a6abb0; stroke-miterlimit:10; stroke-width:.5px;"/><path d="m111.786,245.117c0,1.273-1.021,2.305-2.28,2.305h-13.714c-1.259,0-2.28-1.032-2.28-2.305v-8.899c0-1.252.989-2.275,2.227-2.304l13.714-.318c.614-.014,1.207.222,1.646.656s.686,1.028.686,1.648v9.217Z" style="fill:none; stroke:#a6abb0; stroke-linecap:round; stroke-linejoin:round; stroke-width:.5px;"/><path d="m244.323,411.938c-8.807,0-23.853-.019-33.124-.921-9.27-.911-11.657-9.105-12.403-13.624-1.047-6.339-2.171-11.343-3.814-28.657-.813-8.57.89-10.53,6.979-10.679,6.089-.149,22.427.325,42.361.325,19.935,0,36.272-.474,42.361-.325,6.089.149,7.792,2.109,6.979,10.679-1.643,17.313-2.767,22.317-3.814,28.657-.746,4.519-3.133,12.714-12.403,13.624-9.27.902-24.317.921-33.124.921Z" style="fill:none; stroke:#a6abb0; stroke-linecap:round; stroke-linejoin:round; stroke-width:.5px;"/><path d="m412.461,407.917c-3.703.484-9.445.946-19.976.946-13.175,0-19.74-1.339-21.832-2.572" style="fill:none; stroke:#a6abb0; stroke-miterlimit:10; stroke-width:.5px;"/><path d="m313.721,422.006h0c-.187,1.035-.689,1.974-1.438,2.702-2.006,1.948-6.295,6.081-10.168,9.587-6.796,6.152-12.895,8.446-57.791,8.446-44.896,0-50.995-2.294-57.791-8.446-3.873-3.506-8.162-7.638-10.168-9.587-.75-.728-1.251-1.667-1.438-2.701h0" style="fill:none; stroke:#a6abb0; stroke-linecap:round; stroke-linejoin:round; stroke-width:.5px;"/><path d="m312.233,176.227c10.517,1.428,12.303,2.858,19.677,8.987,7.374,6.13,9.504,8.283,9.996,20.046.492,11.762.983,50.362.819,59.64-.164,9.277-.655,12.425-5.899,21.04-5.244,8.615-18.517,27.004-26.219,36.612-7.702,9.609-14.256,10.603-28.185,11.762-13.929,1.16-30.643.994-38.099.994-7.456,0-24.17.166-38.099-.994-13.929-1.16-20.483-2.154-28.185-11.762-7.702-9.609-20.975-27.998-26.219-36.612-5.244-8.615-5.735-11.762-5.899-21.04-.164-9.277.328-47.877.819-59.64.492-11.762,2.622-13.916,9.996-20.046,7.374-6.13,9.16-7.559,19.677-8.987" style="fill:none; stroke:#a6abb0; stroke-linecap:round; stroke-linejoin:round;"/><path d="m338.312,180.521s12.662,9.774,16.376,12.315c3.714,2.54,7.429,4.749,17.042,5.412,9.614.663,38.782,3.976,50.143,5.08,11.361,1.104,19.555,4.307,23.051,17.119,3.496,12.811,5.927,27.165,7.538,39.76,1.477,11.543.055,19.903-18.625,20.101-20.812.221-58.502,1.878-65.493,2.098-4.583.145-9.064,3.471-11.756,7.224-3.232,4.506-24.017,34.213-35.835,49.3-9.228,11.782-17.192,15.59-76.429,15.59-59.238,0-67.201-3.808-76.429-15.59-11.818-15.087-32.603-44.794-35.835-49.3-2.692-3.753-7.172-7.08-11.756-7.224-6.992-.221-44.681-1.878-65.493-2.098-18.68-.198-20.102-8.558-18.625-20.101,1.611-12.595,4.042-26.948,7.538-39.76s11.689-16.014,23.051-17.119c11.361-1.104,40.53-4.418,50.143-5.08,9.614-.663,13.328-2.872,17.042-5.412s16.376-12.315,16.376-12.315" style="fill:none; stroke:#a6abb0; stroke-miterlimit:10; stroke-width:.5px;"/><path d="m154.917,186.228c-.524.405-13.046,9.933-16.891,12.561-4.483,3.066-9.433,5.881-20.614,6.651-6.079.421-45.908,4.144-49.943,4.538-10.804,1.05-14.571,4.233-16.79,12.368-2.932,10.746-5.296,24.026-7.167,38.647-1.11,8.687,4.668,13.118,17.413,13.49l59.603,1.947c7.585.239,13.956,5.442,17.388,10.227.543.757,25.911,35.386,35.654,47.826,7.146,9.124,12.374,12.828,70.753,12.828,58.379,0,63.607-3.703,70.753-12.828,9.743-12.439,35.111-47.068,35.654-47.826,3.432-4.785,9.803-9.988,17.388-10.227l59.603-1.947c12.745-.373,18.523-4.804,17.413-13.49-1.871-14.621-4.235-27.901-7.167-38.647-2.219-8.135-5.986-11.318-16.79-12.368-4.035-.393-43.864-4.117-49.943-4.538-11.18-.77-16.131-3.585-20.614-6.651-3.844-2.628-16.191-12.156-16.715-12.561" style="fill:none; stroke:#a6abb0; stroke-miterlimit:10; stroke-width:.5px;"/><path d="m411.347,280.831c0,3.692-.54,4.314-1.7,4.353" style="fill:none; stroke:#a6abb0; stroke-miterlimit:10; stroke-width:.5px;"/><path d="m296.002,175.045c4.407,0,8.714,3.459,16.744,9.258,8.029,5.798,8.906,13.913,8.965,19.548.152,14.469.182,28.939.182,43.408,0,7.01.12,11.775-9.939,29.957-10.59,19.141-17.164,22.553-29.525,23.041-12.663.501-25.405,1.09-38.105,1.09-12.7,0-25.442-.589-38.105-1.09-12.362-.489-18.935-3.9-29.525-23.041-10.06-18.182-9.939-22.947-9.939-29.957,0-14.47.03-28.939.182-43.408.059-5.635.936-13.75,8.965-19.548,8.029-5.798,12.337-9.258,16.744-9.258" style="fill:none; stroke:#a6abb0; stroke-linecap:round; stroke-linejoin:round; stroke-width:.5px;"/><path d="m307.792,175.791c4.407,0,8.714,3.459,16.744,9.258,8.029,5.798,8.906,13.913,8.965,19.548.204,19.387.54,38.89.212,49.493-.328,10.603-2.787,14.29-5.573,19.757s-13.437,21.37-18.189,27.831c-4.752,6.461-10.487,12.094-19.664,12.591-9.177.497-33.593,1.16-45.965,1.16-12.372,0-36.788-.663-45.965-1.16-9.177-.497-14.912-6.13-19.664-12.591-4.752-6.461-15.404-22.364-18.189-27.831-2.786-5.467-5.245-9.154-5.573-19.757-.328-10.603.009-30.106.212-49.493.059-5.635.936-13.75,8.965-19.548,8.029-5.798,12.337-9.258,16.744-9.258" style="fill:none; stroke:#a6abb0; stroke-linecap:round; stroke-linejoin:round; stroke-width:.5px;"/><path d="m479.647,243.156C479.647,109.908,374.292,1.892,244.324,1.892c-129.969,0-235.324,108.016-235.324,241.264,0,61.533,24.228,116.174,59.475,160.284,3.569,4.467,6.682,4.151,7.704,4.479-1.483.578-1.207,2.78,1.616,5.704,11.659,12.076,24.323,22.747,37.855,31.904,10.195,6.9,22.002,11.104,34.218,12.25,24.353,2.282,56.211,4.21,94.455,4.21s70.102-1.928,94.455-4.21c12.216-1.146,24.023-5.35,34.218-12.25,13.532-9.157,26.196-19.828,37.855-31.904,2.824-2.924,3.1-5.126,1.616-5.704,4.656-1.551,7.662-4.387,10.066-7.473,33.963-43.58,57.113-97.142,57.113-157.291ZM59.233,163.014c11.619-27.345,22.934-24.745,34.139-37.867,8.658-10.128,37.722-86.823,150.951-86.823,113.229,0,142.293,76.695,150.951,86.823,11.206,13.122,22.52,10.522,34.139,37.867,10.55,24.824-.493,31.644-9.998,31.644-11.96,0-31.952-4.419-61.198-10.168-46.045-9.057-43.241-10.098-113.894-10.098-70.654,0-67.85,1.041-113.894,10.098-29.246,5.749-49.238,10.168-61.197,10.168-9.506,0-20.549-6.82-9.998-31.644Zm93.913,257.684c-8.599-1.026-17.444-4.264-24.476-9.445-1.266-.932-2.523-1.883-3.765-2.85-3.765-2.845-6.914-2.112-6.914-2.112,0,0,1.71-1.818-1.68-4.967-27.088-25.128-48.341-56.439-60.039-93.15-3.592-11.961-1.629-22.584,12.804-22.937,14.275-.349,31.969.609,41.935,1.611,9.971.997,16.932,10.357,16.932,10.357,7.384,10.946,20.276,28.994,26.829,38.435,6.554,9.445,9.013,12.26,11.304,27.171l8.85,59.199c-9.313-.144-16.424-.668-21.781-1.31Zm127.584-54.357c-.33,5.634-.986,11.269-1.419,14.029-.439,2.76-2.513,7.841-9.614,8.394-7.101.548-18.627.438-25.373.438-6.746,0-18.272.11-25.373-.438-7.101-.553-9.175-5.634-9.614-8.394s-1.094-8.394-1.419-14.029c-.173-2.984.764-7.747,5.243-7.856,4.479-.11,16.498.239,31.163.239,14.665,0,26.684-.349,31.163-.239,4.479.11,5.415,4.872,5.243,7.856Zm91.607,34.982c-3.39,3.148-1.68,4.967-1.68,4.967,0,0-3.149-.732-6.914,2.112-1.242.966-2.498,1.918-3.765,2.85-7.032,5.181-15.877,8.419-24.476,9.445-5.356.643-12.467,1.166-21.781,1.31l8.85-59.199c2.291-14.911,4.75-17.725,11.304-27.171,6.554-9.441,19.445-27.489,26.829-38.435,0,0,6.961-9.359,16.932-10.357,9.966-1.002,27.66-1.959,41.935-1.611,14.433.353,16.397,10.976,12.804,22.937-11.699,36.711-32.952,68.022-60.039,93.15Z" style="fill:none; stroke:#a6abb0; stroke-miterlimit:10;"/><line x1="96.643" y1="234.123" x2="96.643" y2="247.421" style="fill:none; stroke:#a6abb0; stroke-linecap:round; stroke-linejoin:round; stroke-width:.5px;"/><line x1="109.001" y1="233.606" x2="109.001" y2="247.382" style="fill:none; stroke:#a6abb0; stroke-linecap:round; stroke-linejoin:round; stroke-width:.5px;"/><path d="m416.045,247.596c.19,1.541-1.005,2.887-2.514,2.891-4.613.014-15.548.032-50.732.012-1.606,0-4.907-.283-5.246-5.416-.193-2.92-.324-6.384-.438-8.639-.231-4.561,1.718-6.384,6.183-6.271,4.465.113,42.485,1.069,46.007,1.208,3.653.145,4.523,2.148,4.918,3.748.032.131.788,4.093,1.822,12.467Z" style="fill:none; stroke:#a6abb0; stroke-linecap:round; stroke-linejoin:round; stroke-width:.5px;"/><path d="m376.861,245.117c0,1.273,1.021,2.305,2.28,2.305h13.714c1.259,0,2.28-1.032,2.28-2.305v-8.899c0-1.252-.989-2.275-2.227-2.304l-13.714-.318c-.614-.014-1.207.222-1.646.656s-.686,1.028-.686,1.648v9.217Z" style="fill:none; stroke:#a6abb0; stroke-linecap:round; stroke-linejoin:round; stroke-width:.5px;"/><line x1="392.003" y1="234.123" x2="392.003" y2="247.421" style="fill:none; stroke:#a6abb0; stroke-linecap:round; stroke-linejoin:round; stroke-width:.5px;"/><line x1="379.645" y1="233.606" x2="379.645" y2="247.382" style="fill:none; stroke:#a6abb0; stroke-linecap:round; stroke-linejoin:round; stroke-width:.5px;"/></g><g id="uuid-b7a86730-8d99-4a45-989d-ae080e114365"><path d="m416.045,247.596c.19,1.541-1.005,2.887-2.514,2.891-4.613.014-15.548.032-50.732.012-1.606,0-4.907-.283-5.246-5.416-.193-2.92-.324-6.384-.438-8.639-.231-4.561,1.718-6.384,6.183-6.271,4.465.113,42.485,1.069,46.007,1.208,3.653.145,4.523,2.148,4.918,3.748.032.131.788,4.093,1.822,12.467Z" style="fill:#f4ae3d; stroke:#30373e; stroke-linecap:round; stroke-linejoin:round;"/><path d="m376.86,245.116c0,1.273,1.021,2.305,2.28,2.305h13.714c1.259,0,2.28-1.032,2.28-2.305v-8.899c0-1.252-.989-2.275-2.227-2.304l-13.714-.318c-.614-.014-1.207.222-1.646.656-.439.434-.686,1.028-.686,1.648v9.217Z" style="fill:#f4ae3d; stroke:#30373e; stroke-linecap:round; stroke-linejoin:round;"/><path d="m391.06,238.065l.644.644c.05.045.114.074.183.074.03,0,.064-.01.099-.02l.01-1.759c-.089-.05-.213-.035-.292.045l-.644.644c-.104.104-.104.268,0,.372Z" style="fill:#30373e; stroke-width:0px;"/><path d="m389.5,236.621l.645.645c.047.047.114.073.182.073s.135-.026.182-.073l.645-.645c.104-.104.104-.265,0-.369l-.645-.645c-.099-.099-.265-.099-.364,0l-.645.645c-.104.104-.104.265,0,.369Z" style="fill:#30373e; stroke-width:0px;"/><path d="m387.94,235.179l.645.645c.047.047.114.073.182.073s.135-.026.182-.073l.645-.645c.104-.104.104-.265,0-.369l-.645-.645c-.099-.099-.265-.099-.364,0l-.645.645c-.104.104-.104.265,0,.369Z" style="fill:#30373e; stroke-width:0px;"/><path d="m391.06,240.949l.644.644c.05.049.114.074.183.074.03,0,.059-.005.089-.02l.01-1.769c-.089-.035-.208-.02-.283.054l-.644.649c-.104.104-.104.263,0,.367Z" style="fill:#30373e; stroke-width:0px;"/><path d="m389.5,239.507l.645.645c.047.047.114.073.182.073s.135-.026.182-.073l.645-.645c.104-.104.104-.265,0-.369l-.645-.645c-.099-.099-.265-.099-.364,0l-.645.645c-.104.104-.104.265,0,.369Z" style="fill:#30373e; stroke-width:0px;"/><path d="m387.94,238.064l.645.645c.047.047.114.073.182.073s.135-.026.182-.073l.645-.645c.104-.104.104-.265,0-.369l-.645-.645c-.099-.099-.265-.099-.364,0l-.645.645c-.104.104-.104.265,0,.369Z" style="fill:#30373e; stroke-width:0px;"/><path d="m386.381,236.621l.645.645c.047.047.114.073.182.073s.135-.026.182-.073l.645-.645c.104-.104.104-.265,0-.369l-.645-.645c-.099-.099-.265-.099-.364,0l-.645.645c-.104.104-.104.265,0,.369Z" style="fill:#30373e; stroke-width:0px;"/><path d="m386.545,233.897l.481.486c.045.045.114.069.183.069.064,0,.134-.025.178-.069l.451-.456-1.293-.03Z" style="fill:#30373e; stroke-width:0px;"/><path d="m383.349,233.823l.555.56c.05.045.119.069.183.069.069,0,.134-.025.183-.069l.52-.525-1.442-.035Z" style="fill:#30373e; stroke-width:0px;"/><path d="m391.06,235.181l.644.644c.05.045.114.069.183.069.04,0,.079-.01.114-.03l.005-1.739c-.094-.055-.223-.04-.302.04l-.644.644c-.104.104-.104.268,0,.372Z" style="fill:#30373e; stroke-width:0px;"/><path d="m389.737,233.972l.406.411c.05.045.114.069.183.069s.134-.025.183-.069l.382-.382-1.155-.03Z" style="fill:#30373e; stroke-width:0px;"/><path d="m384.821,235.179l.645.645c.047.047.114.073.182.073s.135-.026.182-.073l.645-.645c.104-.104.104-.265,0-.369l-.645-.645c-.099-.099-.265-.099-.364,0l-.645.645c-.104.104-.104.265,0,.369Z" style="fill:#30373e; stroke-width:0px;"/><path d="m391.06,243.833l.644.644c.05.05.114.074.183.074.025,0,.054-.005.079-.015l.005-1.769c-.089-.035-.198-.015-.268.055l-.644.644c-.104.104-.104.263,0,.367Z" style="fill:#30373e; stroke-width:0px;"/><path d="m389.5,242.392l.645.645c.047.047.114.073.182.073s.135-.026.182-.073l.645-.645c.104-.104.104-.265,0-.369l-.645-.645c-.099-.099-.265-.099-.364,0l-.645.645c-.104.104-.104.265,0,.369Z" style="fill:#30373e; stroke-width:0px;"/><path d="m387.94,240.949l.645.645c.047.047.114.073.182.073s.135-.026.182-.073l.645-.645c.104-.104.104-.265,0-.369l-.645-.645c-.099-.099-.265-.099-.364,0l-.645.645c-.104.104-.104.265,0,.369Z" style="fill:#30373e; stroke-width:0px;"/><path d="m386.381,239.507l.645.645c.047.047.114.073.182.073s.135-.026.182-.073l.645-.645c.104-.104.104-.265,0-.369l-.645-.645c-.099-.099-.265-.099-.364,0l-.645.645c-.104.104-.104.265,0,.369Z" style="fill:#30373e; stroke-width:0px;"/><path d="m384.821,238.064l.645.645c.047.047.114.073.182.073s.135-.026.182-.073l.645-.645c.104-.104.104-.265,0-.369l-.645-.645c-.099-.099-.265-.099-.364,0l-.645.645c-.104.104-.104.265,0,.369Z" style="fill:#30373e; stroke-width:0px;"/><path d="m381.702,235.179l.645.645c.047.047.114.073.182.073s.135-.026.182-.073l.645-.645c.104-.104.104-.265,0-.369l-.645-.645c-.099-.099-.265-.099-.364,0l-.645.645c-.104.104-.104.265,0,.369Z" style="fill:#30373e; stroke-width:0px;"/><path d="m383.261,236.621l.645.645c.047.047.114.073.182.073s.135-.026.182-.073l.645-.645c.104-.104.104-.265,0-.369l-.645-.645c-.099-.099-.265-.099-.364,0l-.645.645c-.104.104-.104.265,0,.369Z" style="fill:#30373e; stroke-width:0px;"/><path d="m391.06,246.722l.644.644c.05.045.114.069.183.069.025,0,.045-.005.069-.015l.005-1.774c-.084-.03-.188-.01-.258.059l-.644.644c-.104.104-.104.268,0,.372Z" style="fill:#30373e; stroke-width:0px;"/><path d="m389.5,245.277l.645.645c.047.047.114.073.182.073s.135-.026.182-.073l.645-.645c.104-.104.104-.265,0-.369l-.645-.645c-.099-.099-.265-.099-.364,0l-.645.645c-.104.104-.104.265,0,.369Z" style="fill:#30373e; stroke-width:0px;"/><path d="m387.94,243.835l.645.645c.047.047.114.073.182.073s.135-.026.182-.073l.645-.645c.104-.104.104-.265,0-.369l-.645-.645c-.099-.099-.265-.099-.364,0l-.645.645c-.104.104-.104.265,0,.369Z" style="fill:#30373e; stroke-width:0px;"/><path d="m386.381,242.392l.645.645c.047.047.114.073.182.073s.135-.026.182-.073l.645-.645c.104-.104.104-.265,0-.369l-.645-.645c-.099-.099-.265-.099-.364,0l-.645.645c-.104.104-.104.265,0,.369Z" style="fill:#30373e; stroke-width:0px;"/><path d="m384.821,240.949l.645.645c.047.047.114.073.182.073s.135-.026.182-.073l.645-.645c.104-.104.104-.265,0-.369l-.645-.645c-.099-.099-.265-.099-.364,0l-.645.645c-.104.104-.104.265,0,.369Z" style="fill:#30373e; stroke-width:0px;"/><path d="m383.261,239.507l.645.645c.047.047.114.073.182.073s.135-.026.182-.073l.645-.645c.104-.104.104-.265,0-.369l-.645-.645c-.099-.099-.265-.099-.364,0l-.645.645c-.104.104-.104.265,0,.369Z" style="fill:#30373e; stroke-width:0px;"/><path d="m380.142,236.621l.645.645c.047.047.114.073.182.073s.135-.026.182-.073l.645-.645c.104-.104.104-.265,0-.369l-.645-.645c-.099-.099-.265-.099-.364,0l-.645.645c-.104.104-.104.265,0,.369Z" style="fill:#30373e; stroke-width:0px;"/><path d="m381.702,238.064l.645.645c.047.047.114.073.182.073s.135-.026.182-.073l.645-.645c.104-.104.104-.265,0-.369l-.645-.645c-.099-.099-.265-.099-.364,0l-.645.645c-.104.104-.104.265,0,.369Z" style="fill:#30373e; stroke-width:0px;"/><path d="m389.826,247.466l.996-.005-.312-.312c-.099-.099-.268-.099-.367,0l-.317.317Z" style="fill:#30373e; stroke-width:0px;"/><path d="m387.94,246.72l.645.645c.047.047.114.073.182.073s.135-.026.182-.073l.645-.645c.104-.104.104-.265,0-.369l-.645-.645c-.099-.099-.265-.099-.364,0l-.645.645c-.104.104-.104.265,0,.369Z" style="fill:#30373e; stroke-width:0px;"/><path d="m386.381,245.277l.645.645c.047.047.114.073.182.073s.135-.026.182-.073l.645-.645c.104-.104.104-.265,0-.369l-.645-.645c-.099-.099-.265-.099-.364,0l-.645.645c-.104.104-.104.265,0,.369Z" style="fill:#30373e; stroke-width:0px;"/><path d="m384.821,243.835l.645.645c.047.047.114.073.182.073s.135-.026.182-.073l.645-.645c.104-.104.104-.265,0-.369l-.645-.645c-.099-.099-.265-.099-.364,0l-.645.645c-.104.104-.104.265,0,.369Z" style="fill:#30373e; stroke-width:0px;"/><path d="m383.261,242.392l.645.645c.047.047.114.073.182.073s.135-.026.182-.073l.645-.645c.104-.104.104-.265,0-.369l-.645-.645c-.099-.099-.265-.099-.364,0l-.645.645c-.104.104-.104.265,0,.369Z" style="fill:#30373e; stroke-width:0px;"/><path d="m381.702,240.949l.645.645c.047.047.114.073.182.073s.135-.026.182-.073l.645-.645c.104-.104.104-.265,0-.369l-.645-.645c-.099-.099-.265-.099-.364,0l-.645.645c-.104.104-.104.265,0,.369Z" style="fill:#30373e; stroke-width:0px;"/><path d="m379.597,238.704l.639-.639c.104-.104.104-.268,0-.372l-.634-.634-.005,1.645Z" style="fill:#30373e; stroke-width:0px;"/><path d="m380.142,239.507l.645.645c.047.047.114.073.182.073s.135-.026.182-.073l.645-.645c.104-.104.104-.265,0-.369l-.645-.645c-.099-.099-.265-.099-.364,0l-.645.645c-.104.104-.104.265,0,.369Z" style="fill:#30373e; stroke-width:0px;"/><path d="m386.709,247.466h.996s-.317-.317-.317-.317c-.099-.099-.263-.099-.362,0l-.317.317Z" style="fill:#30373e; stroke-width:0px;"/><path d="m384.821,246.72l.645.645c.047.047.114.073.182.073s.135-.026.182-.073l.645-.645c.104-.104.104-.265,0-.369l-.645-.645c-.099-.099-.265-.099-.364,0l-.645.645c-.104.104-.104.265,0,.369Z" style="fill:#30373e; stroke-width:0px;"/><path d="m383.261,245.277l.645.645c.047.047.114.073.182.073s.135-.026.182-.073l.645-.645c.104-.104.104-.265,0-.369l-.645-.645c-.099-.099-.265-.099-.364,0l-.645.645c-.104.104-.104.265,0,.369Z" style="fill:#30373e; stroke-width:0px;"/><path d="m381.702,243.835l.645.645c.047.047.114.073.182.073s.135-.026.182-.073l.645-.645c.104-.104.104-.265,0-.369l-.645-.645c-.099-.099-.265-.099-.364,0l-.645.645c-.104.104-.104.265,0,.369Z" style="fill:#30373e; stroke-width:0px;"/><path d="m380.142,242.392l.645.645c.047.047.114.073.182.073s.135-.026.182-.073l.645-.645c.104-.104.104-.265,0-.369l-.645-.645c-.099-.099-.265-.099-.364,0l-.645.645c-.104.104-.104.265,0,.369Z" style="fill:#30373e; stroke-width:0px;"/><path d="m379.587,241.598l.649-.649c.104-.104.104-.263,0-.367l-.644-.649-.005,1.665Z" style="fill:#30373e; stroke-width:0px;"/><path d="m383.582,247.471h1.011s-.322-.322-.322-.322c-.099-.099-.268-.099-.367,0l-.322.322Z" style="fill:#30373e; stroke-width:0px;"/><path d="m381.702,246.72l.645.645c.047.047.114.073.182.073s.135-.026.182-.073l.645-.645c.104-.104.104-.265,0-.369l-.645-.645c-.099-.099-.265-.099-.364,0l-.645.645c-.104.104-.104.265,0,.369Z" style="fill:#30373e; stroke-width:0px;"/><path d="m380.142,245.277l.645.645c.047.047.114.073.182.073s.135-.026.182-.073l.645-.645c.104-.104.104-.265,0-.369l-.645-.645c-.099-.099-.265-.099-.364,0l-.645.645c-.104.104-.104.265,0,.369Z" style="fill:#30373e; stroke-width:0px;"/><path d="m379.572,244.487c.01,0,.015-.005.02-.01l.644-.644c.104-.104.104-.263,0-.367l-.644-.644s-.005-.005-.01-.005l-.01,1.67Z" style="fill:#30373e; stroke-width:0px;"/><path d="m380.46,247.476h1.016s-.327-.327-.327-.327c-.094-.099-.263-.099-.362,0l-.327.327Z" style="fill:#30373e; stroke-width:0px;"/><path d="m379.563,247.382c.01,0,.02-.005.03-.015l.644-.644c.104-.104.104-.268,0-.372l-.644-.644s-.015-.015-.025-.015l-.005,1.69Z" style="fill:#30373e; stroke-width:0px;"/><path d="m380.162,233.754l.624.629c.045.045.114.069.183.069.064,0,.134-.025.178-.069l.595-.595-1.581-.035Z" style="fill:#30373e; stroke-width:0px;"/><path d="m379.607,235.81l.629-.629c.104-.104.104-.268,0-.372l-.619-.619-.01,1.621Z" style="fill:#30373e; stroke-width:0px;"/><path d="m72.601,247.596c-.19,1.541,1.005,2.887,2.514,2.891,4.613.014,15.548.032,50.732.012,1.606,0,4.907-.283,5.246-5.416.193-2.92.324-6.384.438-8.639.231-4.561-1.718-6.384-6.183-6.271-4.465.113-42.485,1.069-46.007,1.208-3.653.145-4.523,2.148-4.918,3.748-.032.131-.788,4.093-1.822,12.467Z" style="fill:#f4ae3d; stroke:#30373e; stroke-linecap:round; stroke-linejoin:round;"/><path d="m111.786,245.117c0,1.273-1.021,2.305-2.28,2.305h-13.714c-1.259,0-2.28-1.032-2.28-2.305v-8.899c0-1.252.989-2.275,2.227-2.304l13.714-.318c.614-.014,1.207.222,1.646.656s.686,1.028.686,1.648v9.217Z" style="fill:#f4ae3d; stroke:#30373e; stroke-linecap:round; stroke-linejoin:round;"/><path d="m97.586,238.065l-.644.644c-.05.045-.114.074-.183.074-.03,0-.064-.01-.099-.02l-.01-1.759c.089-.05.213-.035.292.045l.644.644c.104.104.104.268,0,.372Z" style="fill:#30373e; stroke-width:0px;"/><path d="m99.146,236.621l-.645.645c-.047.047-.114.073-.182.073s-.135-.026-.182-.073l-.645-.645c-.104-.104-.104-.265,0-.369l.645-.645c.099-.099.265-.099.364,0l.645.645c.104.104.104.265,0,.369Z" style="fill:#30373e; stroke-width:0px;"/><path d="m100.706,235.179l-.645.645c-.047.047-.114.073-.182.073s-.135-.026-.182-.073l-.645-.645c-.104-.104-.104-.265,0-.369l.645-.645c.099-.099.265-.099.364,0l.645.645c.104.104.104.265,0,.369Z" style="fill:#30373e; stroke-width:0px;"/><path d="m97.586,240.949l-.644.644c-.05.049-.114.074-.183.074-.03,0-.059-.005-.089-.02l-.01-1.769c.089-.035.208-.02.283.054l.644.649c.104.104.104.263,0,.367Z" style="fill:#30373e; stroke-width:0px;"/><path d="m99.146,239.507l-.645.645c-.047.047-.114.073-.182.073s-.135-.026-.182-.073l-.645-.645c-.104-.104-.104-.265,0-.369l.645-.645c.099-.099.265-.099.364,0l.645.645c.104.104.104.265,0,.369Z" style="fill:#30373e; stroke-width:0px;"/><path d="m100.706,238.064l-.645.645c-.047.047-.114.073-.182.073s-.135-.026-.182-.073l-.645-.645c-.104-.104-.104-.265,0-.369l.645-.645c.099-.099.265-.099.364,0l.645.645c.104.104.104.265,0,.369Z" style="fill:#30373e; stroke-width:0px;"/><path d="m102.266,236.621l-.645.645c-.047.047-.114.073-.182.073s-.135-.026-.182-.073l-.645-.645c-.104-.104-.104-.265,0-.369l.645-.645c.099-.099.265-.099.364,0l.645.645c.104.104.104.265,0,.369Z" style="fill:#30373e; stroke-width:0px;"/><path d="m102.101,233.897l-.481.486c-.045.045-.114.069-.183.069-.064,0-.134-.025-.178-.069l-.451-.456,1.293-.03Z" style="fill:#30373e; stroke-width:0px;"/><path d="m105.297,233.823l-.555.56c-.05.045-.119.069-.183.069-.069,0-.134-.025-.183-.069l-.52-.525,1.442-.035Z" style="fill:#30373e; stroke-width:0px;"/><path d="m97.586,235.181l-.644.644c-.05.045-.114.069-.183.069-.04,0-.079-.01-.114-.03l-.005-1.739c.094-.055.223-.04.302.04l.644.644c.104.104.104.268,0,.372Z" style="fill:#30373e; stroke-width:0px;"/><path d="m98.91,233.972l-.406.411c-.05.045-.114.069-.183.069s-.134-.025-.183-.069l-.382-.382,1.155-.03Z" style="fill:#30373e; stroke-width:0px;"/><path d="m103.825,235.179l-.645.645c-.047.047-.114.073-.182.073s-.135-.026-.182-.073l-.645-.645c-.104-.104-.104-.265,0-.369l.645-.645c.099-.099.265-.099.364,0l.645.645c.104.104.104.265,0,.369Z" style="fill:#30373e; stroke-width:0px;"/><path d="m97.586,243.833l-.644.644c-.05.05-.114.074-.183.074-.025,0-.054-.005-.079-.015l-.005-1.769c.089-.035.198-.015.268.055l.644.644c.104.104.104.263,0,.367Z" style="fill:#30373e; stroke-width:0px;"/><path d="m99.146,242.392l-.645.645c-.047.047-.114.073-.182.073s-.135-.026-.182-.073l-.645-.645c-.104-.104-.104-.265,0-.369l.645-.645c.099-.099.265-.099.364,0l.645.645c.104.104.104.265,0,.369Z" style="fill:#30373e; stroke-width:0px;"/><path d="m100.706,240.949l-.645.645c-.047.047-.114.073-.182.073s-.135-.026-.182-.073l-.645-.645c-.104-.104-.104-.265,0-.369l.645-.645c.099-.099.265-.099.364,0l.645.645c.104.104.104.265,0,.369Z" style="fill:#30373e; stroke-width:0px;"/><path d="m102.266,239.507l-.645.645c-.047.047-.114.073-.182.073s-.135-.026-.182-.073l-.645-.645c-.104-.104-.104-.265,0-.369l.645-.645c.099-.099.265-.099.364,0l.645.645c.104.104.104.265,0,.369Z" style="fill:#30373e; stroke-width:0px;"/><path d="m103.825,238.064l-.645.645c-.047.047-.114.073-.182.073s-.135-.026-.182-.073l-.645-.645c-.104-.104-.104-.265,0-.369l.645-.645c.099-.099.265-.099.364,0l.645.645c.104.104.104.265,0,.369Z" style="fill:#30373e; stroke-width:0px;"/><path d="m106.945,235.179l-.645.645c-.047.047-.114.073-.182.073s-.135-.026-.182-.073l-.645-.645c-.104-.104-.104-.265,0-.369l.645-.645c.099-.099.265-.099.364,0l.645.645c.104.104.104.265,0,.369Z" style="fill:#30373e; stroke-width:0px;"/><path d="m105.385,236.621l-.645.645c-.047.047-.114.073-.182.073s-.135-.026-.182-.073l-.645-.645c-.104-.104-.104-.265,0-.369l.645-.645c.099-.099.265-.099.364,0l.645.645c.104.104.104.265,0,.369Z" style="fill:#30373e; stroke-width:0px;"/><path d="m97.586,246.722l-.644.644c-.05.045-.114.069-.183.069-.025,0-.045-.005-.069-.015l-.005-1.774c.084-.03.188-.01.258.059l.644.644c.104.104.104.268,0,.372Z" style="fill:#30373e; stroke-width:0px;"/><path d="m99.146,245.277l-.645.645c-.047.047-.114.073-.182.073s-.135-.026-.182-.073l-.645-.645c-.104-.104-.104-.265,0-.369l.645-.645c.099-.099.265-.099.364,0l.645.645c.104.104.104.265,0,.369Z" style="fill:#30373e; stroke-width:0px;"/><path d="m100.706,243.835l-.645.645c-.047.047-.114.073-.182.073s-.135-.026-.182-.073l-.645-.645c-.104-.104-.104-.265,0-.369l.645-.645c.099-.099.265-.099.364,0l.645.645c.104.104.104.265,0,.369Z" style="fill:#30373e; stroke-width:0px;"/><path d="m102.266,242.392l-.645.645c-.047.047-.114.073-.182.073s-.135-.026-.182-.073l-.645-.645c-.104-.104-.104-.265,0-.369l.645-.645c.099-.099.265-.099.364,0l.645.645c.104.104.104.265,0,.369Z" style="fill:#30373e; stroke-width:0px;"/><path d="m103.825,240.949l-.645.645c-.047.047-.114.073-.182.073s-.135-.026-.182-.073l-.645-.645c-.104-.104-.104-.265,0-.369l.645-.645c.099-.099.265-.099.364,0l.645.645c.104.104.104.265,0,.369Z" style="fill:#30373e; stroke-width:0px;"/><path d="m105.385,239.507l-.645.645c-.047.047-.114.073-.182.073s-.135-.026-.182-.073l-.645-.645c-.104-.104-.104-.265,0-.369l.645-.645c.099-.099.265-.099.364,0l.645.645c.104.104.104.265,0,.369Z" style="fill:#30373e; stroke-width:0px;"/><path d="m108.504,236.621l-.645.645c-.047.047-.114.073-.182.073s-.135-.026-.182-.073l-.645-.645c-.104-.104-.104-.265,0-.369l.645-.645c.099-.099.265-.099.364,0l.645.645c.104.104.104.265,0,.369Z" style="fill:#30373e; stroke-width:0px;"/><path d="m106.945,238.064l-.645.645c-.047.047-.114.073-.182.073s-.135-.026-.182-.073l-.645-.645c-.104-.104-.104-.265,0-.369l.645-.645c.099-.099.265-.099.364,0l.645.645c.104.104.104.265,0,.369Z" style="fill:#30373e; stroke-width:0px;"/><path d="m98.82,247.466l-.996-.005.312-.312c.099-.099.268-.099.367,0l.317.317Z" style="fill:#30373e; stroke-width:0px;"/><path d="m100.706,246.72l-.645.645c-.047.047-.114.073-.182.073s-.135-.026-.182-.073l-.645-.645c-.104-.104-.104-.265,0-.369l.645-.645c.099-.099.265-.099.364,0l.645.645c.104.104.104.265,0,.369Z" style="fill:#30373e; stroke-width:0px;"/><path d="m102.266,245.277l-.645.645c-.047.047-.114.073-.182.073s-.135-.026-.182-.073l-.645-.645c-.104-.104-.104-.265,0-.369l.645-.645c.099-.099.265-.099.364,0l.645.645c.104.104.104.265,0,.369Z" style="fill:#30373e; stroke-width:0px;"/><path d="m103.825,243.835l-.645.645c-.047.047-.114.073-.182.073s-.135-.026-.182-.073l-.645-.645c-.104-.104-.104-.265,0-.369l.645-.645c.099-.099.265-.099.364,0l.645.645c.104.104.104.265,0,.369Z" style="fill:#30373e; stroke-width:0px;"/><path d="m105.385,242.392l-.645.645c-.047.047-.114.073-.182.073s-.135-.026-.182-.073l-.645-.645c-.104-.104-.104-.265,0-.369l.645-.645c.099-.099.265-.099.364,0l.645.645c.104.104.104.265,0,.369Z" style="fill:#30373e; stroke-width:0px;"/><path d="m106.945,240.949l-.645.645c-.047.047-.114.073-.182.073s-.135-.026-.182-.073l-.645-.645c-.104-.104-.104-.265,0-.369l.645-.645c.099-.099.265-.099.364,0l.645.645c.104.104.104.265,0,.369Z" style="fill:#30373e; stroke-width:0px;"/><path d="m109.049,238.704l-.639-.639c-.104-.104-.104-.268,0-.372l.634-.634.005,1.645Z" style="fill:#30373e; stroke-width:0px;"/><path d="m108.504,239.507l-.645.645c-.047.047-.114.073-.182.073s-.135-.026-.182-.073l-.645-.645c-.104-.104-.104-.265,0-.369l.645-.645c.099-.099.265-.099.364,0l.645.645c.104.104.104.265,0,.369Z" style="fill:#30373e; stroke-width:0px;"/><path d="m101.938,247.466h-.996l.317-.317c.099-.099.263-.099.362,0l.317.317Z" style="fill:#30373e; stroke-width:0px;"/><path d="m103.825,246.72l-.645.645c-.047.047-.114.073-.182.073s-.135-.026-.182-.073l-.645-.645c-.104-.104-.104-.265,0-.369l.645-.645c.099-.099.265-.099.364,0l.645.645c.104.104.104.265,0,.369Z" style="fill:#30373e; stroke-width:0px;"/><path d="m105.385,245.277l-.645.645c-.047.047-.114.073-.182.073s-.135-.026-.182-.073l-.645-.645c-.104-.104-.104-.265,0-.369l.645-.645c.099-.099.265-.099.364,0l.645.645c.104.104.104.265,0,.369Z" style="fill:#30373e; stroke-width:0px;"/><path d="m106.945,243.835l-.645.645c-.047.047-.114.073-.182.073s-.135-.026-.182-.073l-.645-.645c-.104-.104-.104-.265,0-.369l.645-.645c.099-.099.265-.099.364,0l.645.645c.104.104.104.265,0,.369Z" style="fill:#30373e; stroke-width:0px;"/><path d="m108.504,242.392l-.645.645c-.047.047-.114.073-.182.073s-.135-.026-.182-.073l-.645-.645c-.104-.104-.104-.265,0-.369l.645-.645c.099-.099.265-.099.364,0l.645.645c.104.104.104.265,0,.369Z" style="fill:#30373e; stroke-width:0px;"/><path d="m109.059,241.598l-.649-.649c-.104-.104-.104-.263,0-.367l.644-.649.005,1.665Z" style="fill:#30373e; stroke-width:0px;"/><path d="m105.064,247.471h-1.011l.322-.322c.099-.099.268-.099.367,0l.322.322Z" style="fill:#30373e; stroke-width:0px;"/><path d="m106.945,246.72l-.645.645c-.047.047-.114.073-.182.073s-.135-.026-.182-.073l-.645-.645c-.104-.104-.104-.265,0-.369l.645-.645c.099-.099.265-.099.364,0l.645.645c.104.104.104.265,0,.369Z" style="fill:#30373e; stroke-width:0px;"/><path d="m108.504,245.277l-.645.645c-.047.047-.114.073-.182.073s-.135-.026-.182-.073l-.645-.645c-.104-.104-.104-.265,0-.369l.645-.645c.099-.099.265-.099.364,0l.645.645c.104.104.104.265,0,.369Z" style="fill:#30373e; stroke-width:0px;"/><path d="m109.074,244.487c-.01,0-.015-.005-.02-.01l-.644-.644c-.104-.104-.104-.263,0-.367l.644-.644s.005-.005.01-.005l.01,1.67Z" style="fill:#30373e; stroke-width:0px;"/><path d="m108.187,247.476h-1.016l.327-.327c.094-.099.263-.099.362,0l.327.327Z" style="fill:#30373e; stroke-width:0px;"/><path d="m109.084,247.382c-.01,0-.02-.005-.03-.015l-.644-.644c-.104-.104-.104-.268,0-.372l.644-.644s.015-.015.025-.015l.005,1.69Z" style="fill:#30373e; stroke-width:0px;"/><path d="m108.484,233.754l-.624.629c-.045.045-.114.069-.183.069-.064,0-.134-.025-.178-.069l-.595-.595,1.581-.035Z" style="fill:#30373e; stroke-width:0px;"/><path d="m109.039,235.81l-.629-.629c-.104-.104-.104-.268,0-.372l.619-.619.01,1.621Z" style="fill:#30373e; stroke-width:0px;"/></g><g id="uuid-aa90d92c-341b-407b-9bda-df5093d45047"><line x1="385.789" y1="203.677" x2="385.789" y2="227.253" style="fill:none; stroke:#f4f4f4; stroke-linecap:round; stroke-linejoin:round; stroke-width:3px;"/><rect x="383.289" y="210.853" width="5" height="16.4" style="fill:none; stroke:#f4f4f4; stroke-linecap:round; stroke-linejoin:round; stroke-width:3px;"/><polygon points="380.802 212.312 385.789 203.677 390.775 212.312 380.802 212.312" style="fill:none; stroke:#f4f4f4; stroke-linecap:round; stroke-linejoin:round; stroke-width:3px;"/><line x1="385.789" y1="210.853" x2="385.789" y2="227.253" style="fill:none; stroke:#f4ae3d; stroke-miterlimit:10; stroke-width:5px;"/><polygon points="380.802 212.312 385.789 203.677 390.775 212.312 380.802 212.312" style="fill:#f4ae3d; stroke-width:0px;"/><line x1="102.858" y1="203.677" x2="102.858" y2="227.253" style="fill:none; stroke:#f4f4f4; stroke-linecap:round; stroke-linejoin:round; stroke-width:3px;"/><rect x="100.357" y="210.853" width="5" height="16.4" style="fill:none; stroke:#f4f4f4; stroke-linecap:round; stroke-linejoin:round; stroke-width:3px;"/><polygon points="97.871 212.312 102.858 203.677 107.844 212.312 97.871 212.312" style="fill:none; stroke:#f4f4f4; stroke-linecap:round; stroke-linejoin:round; stroke-width:3px;"/><line x1="102.858" y1="210.853" x2="102.858" y2="227.253" style="fill:none; stroke:#f4ae3d; stroke-miterlimit:10; stroke-width:5px;"/><polygon points="97.871 212.312 102.858 203.677 107.844 212.312 97.871 212.312" style="fill:#f4ae3d; stroke-width:0px;"/><line x1="385.789" y1="277.289" x2="385.789" y2="253.608" style="fill:none; stroke:#f4f4f4; stroke-linecap:round; stroke-linejoin:round; stroke-width:3px;"/><rect x="383.289" y="253.608" width="5" height="16.505" style="fill:none; stroke:#f4f4f4; stroke-linecap:round; stroke-linejoin:round; stroke-width:3px;"/><polygon points="390.775 268.654 385.789 277.289 380.802 268.654 390.775 268.654" style="fill:none; stroke:#f4f4f4; stroke-linecap:round; stroke-linejoin:round; stroke-width:3px;"/><line x1="385.789" y1="270.113" x2="385.789" y2="253.608" style="fill:none; stroke:#f4ae3d; stroke-miterlimit:10; stroke-width:5px;"/><polygon points="390.775 268.654 385.789 277.289 380.802 268.654 390.775 268.654" style="fill:#f4ae3d; stroke-width:0px;"/><line x1="102.858" y1="277.289" x2="102.858" y2="253.608" style="fill:none; stroke:#f4f4f4; stroke-linecap:round; stroke-linejoin:round; stroke-width:3px;"/><rect x="100.357" y="253.608" width="5" height="16.505" style="fill:none; stroke:#f4f4f4; stroke-linecap:round; stroke-linejoin:round; stroke-width:3px;"/><polygon points="107.844 268.654 102.858 277.289 97.871 268.654 107.844 268.654" style="fill:none; stroke:#f4f4f4; stroke-linecap:round; stroke-linejoin:round; stroke-width:3px;"/><line x1="102.858" y1="270.113" x2="102.858" y2="253.608" style="fill:none; stroke:#f4ae3d; stroke-miterlimit:10; stroke-width:5px;"/><polygon points="107.844 268.654 102.858 277.289 97.871 268.654 107.844 268.654" style="fill:#f4ae3d; stroke-width:0px;"/></g><g id="uuid-09cbb6dc-dc6e-41ae-b2f6-97bc1ce2ae7d"><circle cx="385.969" cy="193.694" r="5.958" style="fill:#30373e; stroke-width:0px;"/><path d="m385.969,187.724c-3.213,0-5.817,2.604-5.817,5.817v.306c0,3.213,2.604,5.817,5.817,5.817s5.817-2.604,5.817-5.817v-.306c0-3.213-2.604-5.817-5.817-5.817Z" style="fill:#30373e; stroke-width:0px;"/><path d="m383.459,195.858l2.33-2.181c.219-.199.403-.392.553-.575.149-.185.265-.357.347-.52.081-.163.121-.315.121-.459v-.084c0-.225-.086-.409-.257-.553-.172-.144-.389-.215-.651-.215-.374,0-.661.081-.86.243-.2.162-.331.439-.394.833l-1.18-.374c.101-.6.365-1.062.796-1.391.431-.327.977-.491,1.638-.491.418,0,.796.075,1.133.225s.604.368.801.655c.196.287.295.627.295,1.021,0,.324-.064.635-.192.931-.128.297-.292.568-.491.814-.2.247-.428.485-.684.716l-1.441,1.292h2.855v1.17h-4.718v-1.058Z" style="fill:#f4f4f4; stroke-width:0px;"/><circle cx="385.969" cy="287.5" r="5.958" style="fill:#30373e; stroke-width:0px;"/><path d="m385.969,281.53c-3.205,0-5.803,2.598-5.803,5.803v.335c0,3.205,2.598,5.803,5.803,5.803s5.803-2.598,5.803-5.803v-.335c0-3.205-2.598-5.803-5.803-5.803Z" style="fill:#30373e; stroke-width:0px;"/><path d="m384.301,290.483c-.39-.228-.726-.566-1.006-1.016l1.039-.748c.174.318.366.546.575.683.209.138.47.206.781.206.337,0,.628-.066.871-.201.243-.134.365-.342.365-.622v-.112c0-.318-.108-.545-.323-.679-.216-.135-.579-.201-1.091-.201h-.468v-1.123h.449c.381,0,.691-.057.932-.169s.36-.324.36-.637v-.103c0-.225-.104-.392-.313-.501s-.451-.164-.726-.164c-.262,0-.498.067-.707.201-.209.135-.382.333-.52.595l-.982-.59c.225-.48.524-.834.898-1.062.374-.228.83-.341,1.366-.341.655,0,1.19.155,1.605.468.415.312.623.776.623,1.395,0,.324-.065.604-.197.838-.131.233-.314.426-.552.575.3.156.525.355.679.6.152.243.229.542.229.898,0,.462-.114.854-.342,1.179-.229.325-.532.568-.913.73s-.799.243-1.254.243c-.53,0-.991-.113-1.381-.342Z" style="fill:#f4f4f4; stroke-width:0px;"/><circle cx="103.039" cy="193.694" r="5.958" style="fill:#30373e; stroke-width:0px;"/><path d="m103.039,187.724c-3.213,0-5.817,2.604-5.817,5.817v.306c0,3.213,2.604,5.817,5.817,5.817s5.817-2.604,5.817-5.817v-.306c0-3.213-2.604-5.817-5.817-5.817Z" style="fill:#30373e; stroke-width:0px;"/><path d="m100.528,195.858l2.33-2.181c.219-.199.403-.392.553-.575.149-.185.265-.357.347-.52.081-.163.121-.315.121-.459v-.084c0-.225-.086-.409-.257-.553-.172-.144-.389-.215-.651-.215-.374,0-.661.081-.86.243-.2.162-.331.439-.394.833l-1.18-.374c.101-.6.365-1.062.796-1.391.431-.327.977-.491,1.638-.491.418,0,.796.075,1.133.225s.604.368.801.655c.196.287.295.627.295,1.021,0,.324-.064.635-.192.931-.128.297-.292.568-.491.814-.2.247-.428.485-.684.716l-1.441,1.292h2.855v1.17h-4.718v-1.058Z" style="fill:#f4f4f4; stroke-width:0px;"/><circle cx="103.038" cy="287.5" r="5.958" style="fill:#30373e; stroke-width:0px;"/><path d="m103.038,281.53c-3.205,0-5.803,2.598-5.803,5.803v.335c0,3.205,2.598,5.803,5.803,5.803s5.803-2.598,5.803-5.803v-.335c0-3.205-2.598-5.803-5.803-5.803Z" style="fill:#30373e; stroke-width:0px;"/><path d="m101.37,290.483c-.39-.228-.726-.566-1.006-1.016l1.039-.748c.174.318.366.546.575.683.209.138.47.206.781.206.337,0,.628-.066.871-.201.243-.134.365-.342.365-.622v-.112c0-.318-.108-.545-.323-.679-.216-.135-.579-.201-1.091-.201h-.468v-1.123h.449c.381,0,.691-.057.932-.169s.36-.324.36-.637v-.103c0-.225-.104-.392-.313-.501s-.451-.164-.726-.164c-.262,0-.498.067-.707.201-.209.135-.382.333-.52.595l-.982-.59c.225-.48.524-.834.898-1.062.374-.228.83-.341,1.366-.341.655,0,1.19.155,1.605.468.415.312.623.776.623,1.395,0,.324-.065.604-.197.838-.131.233-.314.426-.552.575.3.156.525.355.679.6.152.243.229.542.229.898,0,.462-.114.854-.342,1.179-.229.325-.532.568-.913.73s-.799.243-1.254.243c-.53,0-.991-.113-1.381-.342Z" style="fill:#f4f4f4; stroke-width:0px;"/><polyline points="439.146 207.72 419.6 207.72 393.997 233.917" style="fill:none; stroke:#f4f4f4; stroke-width:3px;"/><polyline points="439.146 207.72 419.6 207.72 393.997 233.917" style="fill:none; stroke:#f4f4f4; stroke-width:3px;"/><polyline points="439.146 207.72 419.6 207.72 393.997 233.917" style="fill:none; stroke:#f4f4f4; stroke-width:3px;"/><path d="m438.561,206.191c-.144.097-.328.204-.553.323l-.59-.955c.344-.188.652-.386.927-.595s.527-.441.759-.697h1.301v6.721h-1.329v-5.194c-.2.168-.371.301-.515.397Z" style="fill:none; stroke:#f4f4f4; stroke-width:3px;"/><circle cx="439.251" cy="207.766" r="5.958" style="fill:none; stroke:#f4f4f4; stroke-width:3px;"/><path d="m439.251,201.796c-2.833,0-5.129,2.296-5.129,5.129v1.682c0,2.833,2.296,5.129,5.129,5.129s5.129-2.296,5.129-5.129v-1.682c0-2.833-2.296-5.129-5.129-5.129Z" style="fill:none; stroke:#f4f4f4; stroke-width:3px;"/><path d="m438.561,206.191c-.144.097-.328.204-.553.323l-.59-.955c.344-.188.652-.386.927-.595s.527-.441.759-.697h1.301v6.721h-1.329v-5.194c-.2.168-.371.301-.515.397Z" style="fill:none; stroke:#f4f4f4; stroke-width:3px;"/><polyline points="439.146 207.72 419.6 207.72 393.997 233.917" style="fill:none; stroke:#f4f4f4; stroke-linecap:round; stroke-miterlimit:10; stroke-width:3px;"/><polyline points="439.146 207.72 419.6 207.72 393.997 233.917" style="fill:none; stroke:#30373e; stroke-linecap:round; stroke-miterlimit:10;"/><circle cx="439.251" cy="207.766" r="5.958" style="fill:#30373e; stroke-width:0px;"/><path d="m439.251,201.796c-2.833,0-5.129,2.296-5.129,5.129v1.682c0,2.833,2.296,5.129,5.129,5.129s5.129-2.296,5.129-5.129v-1.682c0-2.833-2.296-5.129-5.129-5.129Z" style="fill:#30373e; stroke-width:0px;"/><path d="m438.561,206.191c-.144.097-.328.204-.553.323l-.59-.955c.344-.188.652-.386.927-.595s.527-.441.759-.697h1.301v6.721h-1.329v-5.194c-.2.168-.371.301-.515.397Z" style="fill:#f4f4f4; stroke-width:0px;"/><line x1="432.379" y1="241.301" x2="411.044" y2="241.301" style="fill:none; stroke:#f4f4f4; stroke-width:3px;"/><line x1="432.379" y1="241.301" x2="411.044" y2="241.301" style="fill:none; stroke:#f4f4f4; stroke-width:3px;"/><line x1="432.379" y1="241.301" x2="411.044" y2="241.301" style="fill:none; stroke:#f4f4f4; stroke-width:3px;"/><path d="m429.808,243.304l1.038-.739c.206.318.415.546.628.684.212.137.465.205.758.205.368,0,.653-.092.856-.275.203-.185.304-.454.304-.81v-.104c0-.337-.097-.583-.29-.739s-.471-.234-.833-.234c-.199,0-.381.023-.543.07s-.343.13-.543.248l-.926-.243.468-3.51h3.679v1.226h-2.593l-.15,1.133c.125-.037.251-.065.379-.084s.264-.028.407-.028c.469,0,.872.092,1.213.276.34.184.601.439.781.768.181.327.271.703.271,1.128,0,.48-.111.901-.332,1.264-.222.361-.526.641-.913.838-.387.196-.82.294-1.301.294-.986,0-1.772-.455-2.358-1.366Z" style="fill:none; stroke:#f4f4f4; stroke-width:3px;"/><circle cx="432.483" cy="241.346" r="5.958" style="fill:none; stroke:#f4f4f4; stroke-width:3px;"/><path d="m432.483,235.376c-3.22,0-5.831,2.611-5.831,5.831v.278c0,3.22,2.611,5.831,5.831,5.831s5.831-2.611,5.831-5.831v-.278c0-3.22-2.611-5.831-5.831-5.831Z" style="fill:none; stroke:#f4f4f4; stroke-width:3px;"/><path d="m429.808,243.304l1.038-.739c.206.318.415.546.628.684.212.137.465.205.758.205.368,0,.653-.092.856-.275.203-.185.304-.454.304-.81v-.104c0-.337-.097-.583-.29-.739s-.471-.234-.833-.234c-.199,0-.381.023-.543.07s-.343.13-.543.248l-.926-.243.468-3.51h3.679v1.226h-2.593l-.15,1.133c.125-.037.251-.065.379-.084s.264-.028.407-.028c.469,0,.872.092,1.213.276.34.184.601.439.781.768.181.327.271.703.271,1.128,0,.48-.111.901-.332,1.264-.222.361-.526.641-.913.838-.387.196-.82.294-1.301.294-.986,0-1.772-.455-2.358-1.366Z" style="fill:none; stroke:#f4f4f4; stroke-width:3px;"/><line x1="432.379" y1="241.301" x2="411.044" y2="241.301" style="fill:none; stroke:#f4f4f4; stroke-linecap:round; stroke-miterlimit:10; stroke-width:3px;"/><line x1="432.379" y1="241.301" x2="411.044" y2="241.301" style="fill:none; stroke:#30373e; stroke-linecap:round; stroke-miterlimit:10;"/><circle cx="432.483" cy="241.346" r="5.958" style="fill:#30373e; stroke-width:0px;"/><path d="m432.483,235.376c-3.22,0-5.831,2.611-5.831,5.831v.278c0,3.22,2.611,5.831,5.831,5.831s5.831-2.611,5.831-5.831v-.278c0-3.22-2.611-5.831-5.831-5.831Z" style="fill:#30373e; stroke-width:0px;"/><path d="m429.808,243.304l1.038-.739c.206.318.415.546.628.684.212.137.465.205.758.205.368,0,.653-.092.856-.275.203-.185.304-.454.304-.81v-.104c0-.337-.097-.583-.29-.739s-.471-.234-.833-.234c-.199,0-.381.023-.543.07s-.343.13-.543.248l-.926-.243.468-3.51h3.679v1.226h-2.593l-.15,1.133c.125-.037.251-.065.379-.084s.264-.028.407-.028c.469,0,.872.092,1.213.276.34.184.601.439.781.768.181.327.271.703.271,1.128,0,.48-.111.901-.332,1.264-.222.361-.526.641-.913.838-.387.196-.82.294-1.301.294-.986,0-1.772-.455-2.358-1.366Z" style="fill:#f4f4f4; stroke-width:0px;"/><line x1="339.444" y1="239.727" x2="366.834" y2="239.727" style="fill:none; stroke:#f4f4f4; stroke-width:3px;"/><line x1="339.444" y1="239.727" x2="366.834" y2="239.727" style="fill:none; stroke:#f4f4f4; stroke-width:3px;"/><line x1="339.444" y1="239.727" x2="366.834" y2="239.727" style="fill:none; stroke:#f4f4f4; stroke-width:3px;"/><path d="m340.006,242.531h-3.126v-.964l3.061-4.259h1.311v4.081h.917v1.142h-.917v1.498h-1.245v-1.498Zm0-1.142v-2.274l-1.638,2.274h1.638Z" style="fill:none; stroke:#f4f4f4; stroke-width:3px;"/><circle cx="339.704" cy="240.807" r="5.958" style="fill:none; stroke:#f4f4f4; stroke-width:3px;"/><path d="m339.704,234.837c-3.262,0-5.906,2.644-5.906,5.906v.129c0,3.262,2.644,5.906,5.906,5.906s5.906-2.644,5.906-5.906v-.129c0-3.262-2.644-5.906-5.906-5.906Z" style="fill:none; stroke:#f4f4f4; stroke-width:3px;"/><path d="m340.006,242.531h-3.126v-.964l3.061-4.259h1.311v4.081h.917v1.142h-.917v1.498h-1.245v-1.498Zm0-1.142v-2.274l-1.638,2.274h1.638Z" style="fill:none; stroke:#f4f4f4; stroke-width:3px;"/><line x1="339.444" y1="239.727" x2="366.834" y2="239.727" style="fill:none; stroke:#f4f4f4; stroke-linecap:round; stroke-miterlimit:10; stroke-width:3px;"/><line x1="339.444" y1="239.727" x2="366.834" y2="239.727" style="fill:none; stroke:#30373e; stroke-linecap:round; stroke-miterlimit:10;"/><circle cx="339.704" cy="240.807" r="5.958" style="fill:#30373e; stroke-width:0px;"/><path d="m339.704,234.837c-3.262,0-5.906,2.644-5.906,5.906v.129c0,3.262,2.644,5.906,5.906,5.906s5.906-2.644,5.906-5.906v-.129c0-3.262-2.644-5.906-5.906-5.906Z" style="fill:#30373e; stroke-width:0px;"/><path d="m340.006,242.531h-3.126v-.964l3.061-4.259h1.311v4.081h.917v1.142h-.917v1.498h-1.245v-1.498Zm0-1.142v-2.274l-1.638,2.274h1.638Z" style="fill:#f4f4f4; stroke-width:0px;"/><polyline points="47.948 206.681 67.494 206.681 95.107 234.911" style="fill:none; stroke:#f4f4f4; stroke-width:3px;"/><polyline points="47.948 206.681 67.494 206.681 95.107 234.911" style="fill:none; stroke:#f4f4f4; stroke-width:3px;"/><polyline points="47.948 206.681 67.494 206.681 95.107 234.911" style="fill:none; stroke:#f4f4f4; stroke-width:3px;"/><path d="m47.516,205.152c-.144.097-.328.204-.553.323l-.59-.955c.344-.188.652-.386.927-.595s.527-.441.759-.697h1.301v6.721h-1.329v-5.194c-.2.168-.371.301-.515.397Z" style="fill:none; stroke:#f4f4f4; stroke-width:3px;"/><circle cx="48.206" cy="206.727" r="5.958" style="fill:none; stroke:#f4f4f4; stroke-width:3px;"/><path d="m48.206,200.757c-2.833,0-5.129,2.296-5.129,5.129v1.682c0,2.833,2.296,5.129,5.129,5.129s5.129-2.296,5.129-5.129v-1.682c0-2.833-2.296-5.129-5.129-5.129Z" style="fill:none; stroke:#f4f4f4; stroke-width:3px;"/><path d="m47.516,205.152c-.144.097-.328.204-.553.323l-.59-.955c.344-.188.652-.386.927-.595s.527-.441.759-.697h1.301v6.721h-1.329v-5.194c-.2.168-.371.301-.515.397Z" style="fill:none; stroke:#f4f4f4; stroke-width:3px;"/><polyline points="47.948 206.681 67.494 206.681 95.107 234.911" style="fill:none; stroke:#f4f4f4; stroke-linecap:round; stroke-miterlimit:10; stroke-width:3px;"/><polyline points="47.948 206.681 67.494 206.681 95.107 234.911" style="fill:none; stroke:#30373e; stroke-linecap:round; stroke-miterlimit:10;"/><circle cx="48.206" cy="206.727" r="5.958" style="fill:#30373e; stroke-width:0px;"/><path d="m48.206,200.757c-2.833,0-5.129,2.296-5.129,5.129v1.682c0,2.833,2.296,5.129,5.129,5.129s5.129-2.296,5.129-5.129v-1.682c0-2.833-2.296-5.129-5.129-5.129Z" style="fill:#30373e; stroke-width:0px;"/><path d="m47.516,205.152c-.144.097-.328.204-.553.323l-.59-.955c.344-.188.652-.386.927-.595s.527-.441.759-.697h1.301v6.721h-1.329v-5.194c-.2.168-.371.301-.515.397Z" style="fill:#f4f4f4; stroke-width:0px;"/><line x1="50.801" y1="241.301" x2="77.602" y2="241.301" style="fill:none; stroke:#f4f4f4; stroke-width:3px;"/><line x1="50.801" y1="241.301" x2="77.602" y2="241.301" style="fill:none; stroke:#f4f4f4; stroke-width:3px;"/><line x1="50.801" y1="241.301" x2="77.602" y2="241.301" style="fill:none; stroke:#f4f4f4; stroke-width:3px;"/><path d="m51.36,243.07h-3.126v-.964l3.061-4.259h1.311v4.081h.917v1.142h-.917v1.498h-1.245v-1.498Zm0-1.142v-2.274l-1.638,2.274h1.638Z" style="fill:none; stroke:#f4f4f4; stroke-width:3px;"/><circle cx="51.058" cy="241.346" r="5.958" style="fill:none; stroke:#f4f4f4; stroke-width:3px;"/><path d="m51.058,235.376c-3.262,0-5.906,2.644-5.906,5.906v.129c0,3.262,2.644,5.906,5.906,5.906s5.906-2.644,5.906-5.906v-.129c0-3.262-2.644-5.906-5.906-5.906Z" style="fill:none; stroke:#f4f4f4; stroke-width:3px;"/><path d="m51.36,243.07h-3.126v-.964l3.061-4.259h1.311v4.081h.917v1.142h-.917v1.498h-1.245v-1.498Zm0-1.142v-2.274l-1.638,2.274h1.638Z" style="fill:none; stroke:#f4f4f4; stroke-width:3px;"/><line x1="50.801" y1="241.301" x2="77.602" y2="241.301" style="fill:none; stroke:#f4f4f4; stroke-linecap:round; stroke-miterlimit:10; stroke-width:3px;"/><line x1="50.801" y1="241.301" x2="77.602" y2="241.301" style="fill:none; stroke:#30373e; stroke-linecap:round; stroke-miterlimit:10;"/><circle cx="51.058" cy="241.346" r="5.958" style="fill:#30373e; stroke-width:0px;"/><path d="m51.058,235.376c-3.262,0-5.906,2.644-5.906,5.906v.129c0,3.262,2.644,5.906,5.906,5.906s5.906-2.644,5.906-5.906v-.129c0-3.262-2.644-5.906-5.906-5.906Z" style="fill:#30373e; stroke-width:0px;"/><path d="m51.36,243.07h-3.126v-.964l3.061-4.259h1.311v4.081h.917v1.142h-.917v1.498h-1.245v-1.498Zm0-1.142v-2.274l-1.638,2.274h1.638Z" style="fill:#f4f4f4; stroke-width:0px;"/><line x1="145.289" y1="239.727" x2="121.812" y2="239.727" style="fill:none; stroke:#f4f4f4; stroke-width:3px;"/><line x1="145.289" y1="239.727" x2="121.812" y2="239.727" style="fill:none; stroke:#f4f4f4; stroke-width:3px;"/><line x1="145.289" y1="239.727" x2="121.812" y2="239.727" style="fill:none; stroke:#f4f4f4; stroke-width:3px;"/><path d="m142.716,242.765l1.038-.739c.206.318.415.546.628.684.212.137.465.205.758.205.368,0,.653-.092.856-.275.203-.185.304-.454.304-.81v-.104c0-.337-.097-.583-.29-.739s-.471-.234-.833-.234c-.199,0-.381.023-.543.07s-.343.13-.543.248l-.926-.243.468-3.51h3.679v1.226h-2.593l-.15,1.133c.125-.037.251-.065.379-.084s.264-.028.407-.028c.469,0,.872.092,1.213.276.34.184.601.439.781.768.181.327.271.703.271,1.128,0,.48-.111.901-.332,1.264-.222.361-.526.641-.913.838-.387.196-.82.294-1.301.294-.986,0-1.772-.455-2.358-1.366Z" style="fill:none; stroke:#f4f4f4; stroke-width:3px;"/><circle cx="145.39" cy="240.807" r="5.958" style="fill:none; stroke:#f4f4f4; stroke-width:3px;"/><path d="m145.39,234.837c-3.22,0-5.831,2.611-5.831,5.831v.278c0,3.22,2.611,5.831,5.831,5.831s5.831-2.611,5.831-5.831v-.278c0-3.22-2.611-5.831-5.831-5.831Z" style="fill:none; stroke:#f4f4f4; stroke-width:3px;"/><path d="m142.716,242.765l1.038-.739c.206.318.415.546.628.684.212.137.465.205.758.205.368,0,.653-.092.856-.275.203-.185.304-.454.304-.81v-.104c0-.337-.097-.583-.29-.739s-.471-.234-.833-.234c-.199,0-.381.023-.543.07s-.343.13-.543.248l-.926-.243.468-3.51h3.679v1.226h-2.593l-.15,1.133c.125-.037.251-.065.379-.084s.264-.028.407-.028c.469,0,.872.092,1.213.276.34.184.601.439.781.768.181.327.271.703.271,1.128,0,.48-.111.901-.332,1.264-.222.361-.526.641-.913.838-.387.196-.82.294-1.301.294-.986,0-1.772-.455-2.358-1.366Z" style="fill:none; stroke:#f4f4f4; stroke-width:3px;"/><line x1="145.289" y1="239.727" x2="121.812" y2="239.727" style="fill:none; stroke:#f4f4f4; stroke-linecap:round; stroke-miterlimit:10; stroke-width:3px;"/><line x1="145.289" y1="239.727" x2="121.812" y2="239.727" style="fill:none; stroke:#30373e; stroke-linecap:round; stroke-miterlimit:10;"/><circle cx="145.39" cy="240.807" r="5.958" style="fill:#30373e; stroke-width:0px;"/><path d="m145.39,234.837c-3.22,0-5.831,2.611-5.831,5.831v.278c0,3.22,2.611,5.831,5.831,5.831s5.831-2.611,5.831-5.831v-.278c0-3.22-2.611-5.831-5.831-5.831Z" style="fill:#30373e; stroke-width:0px;"/><path d="m142.716,242.765l1.038-.739c.206.318.415.546.628.684.212.137.465.205.758.205.368,0,.653-.092.856-.275.203-.185.304-.454.304-.81v-.104c0-.337-.097-.583-.29-.739s-.471-.234-.833-.234c-.199,0-.381.023-.543.07s-.343.13-.543.248l-.926-.243.468-3.51h3.679v1.226h-2.593l-.15,1.133c.125-.037.251-.065.379-.084s.264-.028.407-.028c.469,0,.872.092,1.213.276.34.184.601.439.781.768.181.327.271.703.271,1.128,0,.48-.111.901-.332,1.264-.222.361-.526.641-.913.838-.387.196-.82.294-1.301.294-.986,0-1.772-.455-2.358-1.366Z" style="fill:#f4f4f4; stroke-width:0px;"/></g></svg>