<?xml version="1.0" encoding="UTF-8"?><svg xmlns="http://www.w3.org/2000/svg" width="161.749" height="161.749" viewBox="0 0 161.749 161.749"><g id="uuid-3f9c1dfc-d849-44e7-a6d5-c6f6773509ba"><path d="m51.069,157.956c.18-1.555.373-3.38.581-5.572.438-4.619-.48-5.676-3.762-5.756-3.282-.08-12.087.175-22.832.175-5.012,0-9.602-.056-13.406-.107" style="fill:none; stroke:#a6abb0; stroke-linecap:round; stroke-linejoin:round; stroke-width:.5px;"/><path d="m6.777,133.996c6.978.444,14.656.371,18.279.371,4.019,0,13.027.089,20.535-.536s11.04-1.161,15.191-6.34,11.305-15.09,14.131-19.733c2.826-4.643,3.091-6.34,3.18-11.34.088-5-.177-25.805-.442-32.145-.265-6.34-1.413-7.5-5.388-10.804-3.974-3.304-4.937-4.074-10.606-4.844" style="fill:none; stroke:#a6abb0; stroke-linecap:round; stroke-linejoin:round;"/><path d="m8.574,144.44c4.483.194,9.894.282,16.482.282,31.928,0,36.22-2.053,41.194-8.403,6.37-8.132,17.572-24.143,19.314-26.572,1.451-2.023,3.866-3.816,6.336-3.894,3.768-.119,24.082-1.012,35.3-1.131,10.068-.107,10.834-4.612,10.039-10.834-.868-6.789-2.179-14.525-4.063-21.43-1.884-6.905-6.3-8.631-12.424-9.227-6.124-.595-21.845-2.381-27.026-2.738-5.181-.357-7.183-1.548-9.185-2.917s-8.826-6.637-8.826-6.637" style="fill:none; stroke:#a6abb0; stroke-linecap:round; stroke-linejoin:round; stroke-width:.5px;"/><path d="m73.244,54.016c.282.218,7.032,5.354,9.104,6.77,2.416,1.653,5.084,3.17,11.11,3.585,3.276.227,24.744,2.234,26.918,2.446,5.823.566,7.853,2.281,9.05,6.666,1.58,5.792,2.855,12.95,3.863,20.83.598,4.682-2.516,7.07-9.385,7.271l-32.125,1.049c-4.088.129-7.522,2.933-9.372,5.512-.293.408-13.966,19.072-19.217,25.777-3.851,4.918-6.669,6.914-38.134,6.914-7.381,0-13.186-.11-17.797-.341" style="fill:none; stroke:#a6abb0; stroke-linecap:round; stroke-linejoin:round; stroke-width:.5px;"/><path d="m6.239,115.544c6.258.252,12.547.518,18.817.518,6.845,0,13.713-.317,20.538-.587,6.663-.263,10.206-2.102,15.914-12.419,5.422-9.8,5.357-12.368,5.357-16.146,0-7.799-.016-15.598-.098-23.396-.032-3.037-.504-7.411-4.832-10.536-4.328-3.125-6.65-4.99-9.025-4.99" style="fill:none; stroke:#a6abb0; stroke-linecap:round; stroke-linejoin:round; stroke-width:.5px;"/><path d="m5.48,123.244c6.09.211,14.624.408,19.576.408,6.668,0,19.828-.357,24.774-.625,4.946-.268,8.037-3.304,10.599-6.786,2.561-3.482,8.302-12.054,9.804-15,1.501-2.947,2.827-4.934,3.004-10.649.177-5.715-.005-16.226-.114-26.676-.032-3.037-.504-7.411-4.832-10.536-4.328-3.125-6.65-4.99-9.025-4.99" style="fill:none; stroke:#a6abb0; stroke-linecap:round; stroke-linejoin:round; stroke-width:.5px;"/><path d="m22.78,99.16c.608.614,1.416.952,2.276.952s1.668-.338,2.276-.952l12.351-12.486c1.254-1.271,1.254-3.334,0-4.601l-12.351-12.486c-.607-.614-1.416-.954-2.276-.954s-1.669.339-2.277.955l-12.349,12.485c-1.254,1.268-1.254,3.331-.001,4.6l12.352,12.488Z" style="fill:none; stroke:#a6abb0; stroke-linecap:round; stroke-linejoin:round; stroke-width:.5px;"/><path d="m33.872,83.441c.255.257.6.402.96.402h3.474c.142,0,.269-.086.323-.218s.024-.284-.076-.386l-12.377-12.512c-.619-.626-1.623-.626-2.242,0l-12.377,12.512s0,0,0,0c-.1.101-.13.253-.076.386s.182.218.323.218h3.474c.36,0,.705-.145.96-.402l8.212-8.302c.334-.337.875-.337,1.209,0l8.212,8.302Zm-17.632,1.862c-.255-.257-.6-.402-.96-.402h-3.474c-.142,0-.269.086-.323.218s-.024.284.076.386l12.377,12.512c.619.626,1.623.626,2.242,0l12.377-12.512s0,0,0,0c.1-.101.13-.253.076-.386s-.182-.218-.323-.218h-3.474c-.36,0-.705.145-.96.402l-8.212,8.304c-.16.162-.378.253-.604.253s-.444-.091-.604-.253l-8.212-8.304Z" style="fill:none; stroke:#a6abb0; stroke-linecap:round; stroke-linejoin:round; stroke-width:.5px;"/><path d="m25.747,81.001c0,.218.086.427.238.582l2.29,2.316c.258.261.258.683,0,.943l-2.29,2.316c-.153.154-.238.363-.238.582v3.548c0,.143.085.272.216.327s.282.024.382-.077l6.119-6.197c.529-.536.529-1.404,0-1.94l-6.118-6.185c-.1-.101-.251-.132-.382-.077s-.216.184-.216.327v3.536Z" style="fill:none; stroke:#a6abb0; stroke-linecap:round; stroke-linejoin:round; stroke-width:.5px;"/><path d="m17.65,83.401c-.53.536-.53,1.404,0,1.94l6.229,6.309c.1.101.251.132.382.077s.216-.184.216-.327v-3.548c0-.218-.086-.427-.238-.582l-2.401-2.427c-.258-.261-.258-.683,0-.943l2.401-2.427c.153-.154.238-.363.238-.582v-3.536c0-.143-.085-.272-.216-.327s-.281-.025-.382.077l-6.229,6.297Z" style="fill:none; stroke:#a6abb0; stroke-linecap:round; stroke-linejoin:round; stroke-width:.5px;"/><path d="m77.724,66.371c-.017-.534.363-1.215,1.199-1.143,0,0,31.466,2.767,37.884,3.421,6.418.655,9.009,2.143,10.01,6.131s2.532,11.31,3.062,16.37c.53,5.06.294,7.858-5.829,8.096-5.468.213-38.35,1.1-44.935,1.274-.311.008-.611-.117-.827-.344s-.327-.536-.305-.85" style="fill:none; stroke:#a6abb0; stroke-linecap:round; stroke-linejoin:round; stroke-width:.5px;"/><path d="m78.104,89.275c.007.611.499,1.103,1.104,1.103,5.546.004,30.581.021,36.54-.001,3.474-.013,3.945-1.429,3.734-3.753-.157-1.723-.731-5.355-1.084-6.784s-1.354-3.036-4.357-3.155c-2.667-.106-29.08-.869-34.948-1.038-.301-.009-.592.107-.806.32s-.334.506-.331.81l.149,12.498Z" style="fill:none; stroke:#a6abb0; stroke-linecap:round; stroke-linejoin:round; stroke-width:.5px;"/><path d="m117.61,87.092c.103.831-.542,1.556-1.355,1.558-2.486.008-8.38.017-27.343.007-.866,0-2.645-.152-2.828-2.919-.104-1.574-.175-3.441-.236-4.656-.125-2.458.926-3.441,3.333-3.38s22.899.576,24.797.651c1.969.078,2.438,1.158,2.651,2.02.017.071.425,2.206.982,6.719Z" style="fill:none; stroke:#a6abb0; stroke-linecap:round; stroke-linejoin:round; stroke-width:.5px;"/><path d="m115.079,105.005c0,1.99-.291,2.325-.916,2.346" style="fill:none; stroke:#a6abb0; stroke-miterlimit:10; stroke-width:.5px;"/><path d="m96.491,85.756c0,.686.55,1.242,1.229,1.242h7.391c.679,0,1.229-.556,1.229-1.242v-4.796c0-.675-.533-1.226-1.201-1.242l-7.391-.171c-.331-.008-.65.12-.887.353s-.37.554-.37.888v4.968Z" style="fill:none; stroke:#a6abb0; stroke-linecap:round; stroke-linejoin:round; stroke-width:.5px;"/><path d="m65.808,158.697l1.421-9.507c1.235-8.036,2.56-9.554,6.093-14.645,3.532-5.088,10.481-14.816,14.461-20.715,0,0,3.752-5.044,9.126-5.582,5.372-.54,14.908-1.056,22.602-.868,7.779.19,8.837,5.916,6.901,12.363-4.095,12.85-10.362,24.473-18.252,34.752m-97.353-7.64c3.212.028,8.331.134,14.249.134,7.904,0,14.382-.188,16.796-.129,2.414.059,2.919,2.626,2.826,4.234-.129,2.236-.354,4.471-.559,6.089m88.042-3.786c12.091-20.141,19.729-43.333,19.729-68.697,0-28.697-9.066-55.222-24.422-76.729m-32.613-3.907c6.56,7.994,9.822,15,11.559,17.032,6.04,7.073,12.138,5.671,18.4,20.409,5.686,13.38-.266,17.056-5.389,17.056-6.446,0-17.221-2.382-32.984-5.48-24.817-4.882-23.306-5.443-61.387-5.443-6.925,0-12.541.019-17.244.078" style="fill:none; stroke:#a6abb0; stroke-linecap:round; stroke-linejoin:round;"/><line x1="97.971" y1="79.551" x2="97.971" y2="86.998" style="fill:none; stroke:#a6abb0; stroke-miterlimit:10; stroke-width:.5px;"/><line x1="104.654" y1="79.706" x2="104.654" y2="87.006" style="fill:none; stroke:#a6abb0; stroke-miterlimit:10; stroke-width:.5px;"/></g><g id="uuid-4b356555-fa4f-4679-8fc1-2453d5954311"><path d="m117.61,87.092c.103.831-.542,1.556-1.355,1.558-2.486.008-8.38.017-27.343.007-.866,0-2.645-.152-2.828-2.919-.104-1.574-.175-3.441-.236-4.656-.125-2.458.926-3.441,3.333-3.38s22.899.576,24.797.651c1.969.078,2.438,1.158,2.651,2.02.017.071.425,2.206.982,6.719Z" style="fill:#f4ae3d; stroke:#30373e; stroke-linecap:round; stroke-linejoin:round;"/><path d="m96.491,85.756c0,.686.55,1.242,1.229,1.242h7.391c.679,0,1.229-.556,1.229-1.242v-4.796c0-.675-.533-1.226-1.201-1.242l-7.391-.171c-.331-.008-.65.12-.887.353s-.37.554-.37.888v4.968Z" style="fill:#f4ae3d; stroke:#30373e; stroke-linecap:round; stroke-linejoin:round;"/><path d="m104.144,81.955l.347.347c.027.024.061.04.099.04.016,0,.035-.005.053-.011l.005-.948c-.048-.027-.115-.019-.158.024l-.347.347c-.056.056-.056.144,0,.2Z" style="fill:#30373e; stroke-width:0px;"/><path d="m103.303,81.177l.347.347c.025.025.062.039.098.039s.073-.014.098-.039l.347-.347c.056-.056.056-.143,0-.199l-.347-.347c-.053-.053-.143-.053-.196,0l-.347.347c-.056.056-.056.143,0,.199Z" style="fill:#30373e; stroke-width:0px;"/><path d="m102.463,80.4l.347.347c.025.025.062.039.098.039s.073-.014.098-.039l.347-.347c.056-.056.056-.143,0-.199l-.347-.347c-.053-.053-.143-.053-.196,0l-.347.347c-.056.056-.056.143,0,.199Z" style="fill:#30373e; stroke-width:0px;"/><path d="m104.144,83.51l.347.347c.027.027.061.04.099.04.016,0,.032-.003.048-.011l.005-.954c-.048-.019-.112-.011-.152.029l-.347.35c-.056.056-.056.142,0,.198Z" style="fill:#30373e; stroke-width:0px;"/><path d="m103.303,82.732l.347.347c.025.025.062.039.098.039s.073-.014.098-.039l.347-.347c.056-.056.056-.143,0-.199l-.347-.347c-.053-.053-.143-.053-.196,0l-.347.347c-.056.056-.056.143,0,.199Z" style="fill:#30373e; stroke-width:0px;"/><path d="m102.463,81.955l.347.347c.025.025.062.039.098.039s.073-.014.098-.039l.347-.347c.056-.056.056-.143,0-.199l-.347-.347c-.053-.053-.143-.053-.196,0l-.347.347c-.056.056-.056.143,0,.199Z" style="fill:#30373e; stroke-width:0px;"/><path d="m101.622,81.177l.347.347c.025.025.062.039.098.039s.073-.014.098-.039l.347-.347c.056-.056.056-.143,0-.199l-.347-.347c-.053-.053-.143-.053-.196,0l-.347.347c-.056.056-.056.143,0,.199Z" style="fill:#30373e; stroke-width:0px;"/><path d="m101.711,79.709l.259.262c.024.024.061.037.099.037.035,0,.072-.013.096-.037l.243-.246-.697-.016Z" style="fill:#30373e; stroke-width:0px;"/><path d="m99.988,79.669l.299.302c.027.024.064.037.099.037.037,0,.072-.013.099-.037l.28-.283-.777-.019Z" style="fill:#30373e; stroke-width:0px;"/><path d="m104.144,80.401l.347.347c.027.024.061.037.099.037.021,0,.043-.005.061-.016l.003-.938c-.051-.029-.12-.021-.163.021l-.347.347c-.056.056-.056.144,0,.2Z" style="fill:#30373e; stroke-width:0px;"/><path d="m103.431,79.749l.219.222c.027.024.061.037.099.037s.072-.013.099-.037l.206-.206-.622-.016Z" style="fill:#30373e; stroke-width:0px;"/><path d="m100.781,80.4l.347.347c.025.025.062.039.098.039s.073-.014.098-.039l.347-.347c.056-.056.056-.143,0-.199l-.347-.347c-.053-.053-.143-.053-.196,0l-.347.347c-.056.056-.056.143,0,.199Z" style="fill:#30373e; stroke-width:0px;"/><path d="m104.144,85.064l.347.347c.027.027.061.04.099.04.013,0,.029-.003.043-.008l.003-.954c-.048-.019-.107-.008-.144.029l-.347.347c-.056.056-.056.142,0,.198Z" style="fill:#30373e; stroke-width:0px;"/><path d="m103.303,84.288l.347.347c.025.025.062.039.098.039s.073-.014.098-.039l.347-.347c.056-.056.056-.143,0-.199l-.347-.347c-.053-.053-.143-.053-.196,0l-.347.347c-.056.056-.056.143,0,.199Z" style="fill:#30373e; stroke-width:0px;"/><path d="m102.463,83.51l.347.347c.025.025.062.039.098.039s.073-.014.098-.039l.347-.347c.056-.056.056-.143,0-.199l-.347-.347c-.053-.053-.143-.053-.196,0l-.347.347c-.056.056-.056.143,0,.199Z" style="fill:#30373e; stroke-width:0px;"/><path d="m101.622,82.732l.347.347c.025.025.062.039.098.039s.073-.014.098-.039l.347-.347c.056-.056.056-.143,0-.199l-.347-.347c-.053-.053-.143-.053-.196,0l-.347.347c-.056.056-.056.143,0,.199Z" style="fill:#30373e; stroke-width:0px;"/><path d="m100.781,81.955l.347.347c.025.025.062.039.098.039s.073-.014.098-.039l.347-.347c.056-.056.056-.143,0-.199l-.347-.347c-.053-.053-.143-.053-.196,0l-.347.347c-.056.056-.056.143,0,.199Z" style="fill:#30373e; stroke-width:0px;"/><path d="m99.1,80.4l.347.347c.025.025.062.039.098.039s.073-.014.098-.039l.347-.347c.056-.056.056-.143,0-.199l-.347-.347c-.053-.053-.143-.053-.196,0l-.347.347c-.056.056-.056.143,0,.199Z" style="fill:#30373e; stroke-width:0px;"/><path d="m99.941,81.177l.347.347c.025.025.062.039.098.039s.073-.014.098-.039l.347-.347c.056-.056.056-.143,0-.199l-.347-.347c-.053-.053-.143-.053-.196,0l-.347.347c-.056.056-.056.143,0,.199Z" style="fill:#30373e; stroke-width:0px;"/><path d="m104.144,86.621l.347.347c.027.024.061.037.099.037.013,0,.024-.003.037-.008l.003-.956c-.045-.016-.101-.005-.139.032l-.347.347c-.056.056-.056.144,0,.2Z" style="fill:#30373e; stroke-width:0px;"/><path d="m103.303,85.843l.347.347c.025.025.062.039.098.039s.073-.014.098-.039l.347-.347c.056-.056.056-.143,0-.199l-.347-.347c-.053-.053-.143-.053-.196,0l-.347.347c-.056.056-.056.143,0,.199Z" style="fill:#30373e; stroke-width:0px;"/><path d="m102.463,85.065l.347.347c.025.025.062.039.098.039s.073-.014.098-.039l.347-.347c.056-.056.056-.143,0-.199l-.347-.347c-.053-.053-.143-.053-.196,0l-.347.347c-.056.056-.056.143,0,.199Z" style="fill:#30373e; stroke-width:0px;"/><path d="m101.622,84.288l.347.347c.025.025.062.039.098.039s.073-.014.098-.039l.347-.347c.056-.056.056-.143,0-.199l-.347-.347c-.053-.053-.143-.053-.196,0l-.347.347c-.056.056-.056.143,0,.199Z" style="fill:#30373e; stroke-width:0px;"/><path d="m100.781,83.51l.347.347c.025.025.062.039.098.039s.073-.014.098-.039l.347-.347c.056-.056.056-.143,0-.199l-.347-.347c-.053-.053-.143-.053-.196,0l-.347.347c-.056.056-.056.143,0,.199Z" style="fill:#30373e; stroke-width:0px;"/><path d="m99.941,82.732l.347.347c.025.025.062.039.098.039s.073-.014.098-.039l.347-.347c.056-.056.056-.143,0-.199l-.347-.347c-.053-.053-.143-.053-.196,0l-.347.347c-.056.056-.056.143,0,.199Z" style="fill:#30373e; stroke-width:0px;"/><path d="m98.26,81.177l.347.347c.025.025.062.039.098.039s.073-.014.098-.039l.347-.347c.056-.056.056-.143,0-.199l-.347-.347c-.053-.053-.143-.053-.196,0l-.347.347c-.056.056-.056.143,0,.199Z" style="fill:#30373e; stroke-width:0px;"/><path d="m99.1,81.955l.347.347c.025.025.062.039.098.039s.073-.014.098-.039l.347-.347c.056-.056.056-.143,0-.199l-.347-.347c-.053-.053-.143-.053-.196,0l-.347.347c-.056.056-.056.143,0,.199Z" style="fill:#30373e; stroke-width:0px;"/><path d="m103.479,87.022l.537-.003-.168-.168c-.053-.053-.144-.053-.198,0l-.171.171Z" style="fill:#30373e; stroke-width:0px;"/><path d="m102.463,86.62l.347.347c.025.025.062.039.098.039s.073-.014.098-.039l.347-.347c.056-.056.056-.143,0-.199l-.347-.347c-.053-.053-.143-.053-.196,0l-.347.347c-.056.056-.056.143,0,.199Z" style="fill:#30373e; stroke-width:0px;"/><path d="m101.622,85.843l.347.347c.025.025.062.039.098.039s.073-.014.098-.039l.347-.347c.056-.056.056-.143,0-.199l-.347-.347c-.053-.053-.143-.053-.196,0l-.347.347c-.056.056-.056.143,0,.199Z" style="fill:#30373e; stroke-width:0px;"/><path d="m100.781,85.065l.347.347c.025.025.062.039.098.039s.073-.014.098-.039l.347-.347c.056-.056.056-.143,0-.199l-.347-.347c-.053-.053-.143-.053-.196,0l-.347.347c-.056.056-.056.143,0,.199Z" style="fill:#30373e; stroke-width:0px;"/><path d="m99.941,84.288l.347.347c.025.025.062.039.098.039s.073-.014.098-.039l.347-.347c.056-.056.056-.143,0-.199l-.347-.347c-.053-.053-.143-.053-.196,0l-.347.347c-.056.056-.056.143,0,.199Z" style="fill:#30373e; stroke-width:0px;"/><path d="m99.1,83.51l.347.347c.025.025.062.039.098.039s.073-.014.098-.039l.347-.347c.056-.056.056-.143,0-.199l-.347-.347c-.053-.053-.143-.053-.196,0l-.347.347c-.056.056-.056.143,0,.199Z" style="fill:#30373e; stroke-width:0px;"/><path d="m97.966,82.3l.345-.345c.056-.056.056-.144,0-.2l-.342-.342-.003.887Z" style="fill:#30373e; stroke-width:0px;"/><path d="m98.26,82.732l.347.347c.025.025.062.039.098.039s.073-.014.098-.039l.347-.347c.056-.056.056-.143,0-.199l-.347-.347c-.053-.053-.143-.053-.196,0l-.347.347c-.056.056-.056.143,0,.199Z" style="fill:#30373e; stroke-width:0px;"/><path d="m101.799,87.022h.537s-.171-.171-.171-.171c-.053-.053-.142-.053-.195,0l-.171.171Z" style="fill:#30373e; stroke-width:0px;"/><path d="m100.781,86.62l.347.347c.025.025.062.039.098.039s.073-.014.098-.039l.347-.347c.056-.056.056-.143,0-.199l-.347-.347c-.053-.053-.143-.053-.196,0l-.347.347c-.056.056-.056.143,0,.199Z" style="fill:#30373e; stroke-width:0px;"/><path d="m99.941,85.843l.347.347c.025.025.062.039.098.039s.073-.014.098-.039l.347-.347c.056-.056.056-.143,0-.199l-.347-.347c-.053-.053-.143-.053-.196,0l-.347.347c-.056.056-.056.143,0,.199Z" style="fill:#30373e; stroke-width:0px;"/><path d="m99.1,85.065l.347.347c.025.025.062.039.098.039s.073-.014.098-.039l.347-.347c.056-.056.056-.143,0-.199l-.347-.347c-.053-.053-.143-.053-.196,0l-.347.347c-.056.056-.056.143,0,.199Z" style="fill:#30373e; stroke-width:0px;"/><path d="m98.26,84.288l.347.347c.025.025.062.039.098.039s.073-.014.098-.039l.347-.347c.056-.056.056-.143,0-.199l-.347-.347c-.053-.053-.143-.053-.196,0l-.347.347c-.056.056-.056.143,0,.199Z" style="fill:#30373e; stroke-width:0px;"/><path d="m97.961,83.86l.35-.35c.056-.056.056-.142,0-.198l-.347-.35-.003.897Z" style="fill:#30373e; stroke-width:0px;"/><path d="m100.114,87.025h.545s-.174-.174-.174-.174c-.053-.053-.144-.053-.198,0l-.174.174Z" style="fill:#30373e; stroke-width:0px;"/><path d="m99.1,86.62l.347.347c.025.025.062.039.098.039s.073-.014.098-.039l.347-.347c.056-.056.056-.143,0-.199l-.347-.347c-.053-.053-.143-.053-.196,0l-.347.347c-.056.056-.056.143,0,.199Z" style="fill:#30373e; stroke-width:0px;"/><path d="m98.26,85.843l.347.347c.025.025.062.039.098.039s.073-.014.098-.039l.347-.347c.056-.056.056-.143,0-.199l-.347-.347c-.053-.053-.143-.053-.196,0l-.347.347c-.056.056-.056.143,0,.199Z" style="fill:#30373e; stroke-width:0px;"/><path d="m97.953,85.417c.005,0,.008-.003.011-.005l.347-.347c.056-.056.056-.142,0-.198l-.347-.347s-.003-.003-.005-.003l-.005.9Z" style="fill:#30373e; stroke-width:0px;"/><path d="m98.431,87.027h.548s-.176-.176-.176-.176c-.051-.053-.142-.053-.195,0l-.176.176Z" style="fill:#30373e; stroke-width:0px;"/><path d="m97.947,86.977c.005,0,.011-.003.016-.008l.347-.347c.056-.056.056-.144,0-.2l-.347-.347s-.008-.008-.013-.008l-.003.911Z" style="fill:#30373e; stroke-width:0px;"/><path d="m98.271,79.632l.337.339c.024.024.061.037.099.037.035,0,.072-.013.096-.037l.321-.321-.852-.019Z" style="fill:#30373e; stroke-width:0px;"/><path d="m97.971,80.74l.339-.339c.056-.056.056-.144,0-.2l-.334-.334-.005.873Z" style="fill:#30373e; stroke-width:0px;"/></g><g id="uuid-fe77b8eb-e97a-40f6-b333-7024e31a2f85"><line x1="100.973" y1="107.459" x2="100.973" y2="91.458" style="fill:none; stroke:#f4f4f4; stroke-linecap:round; stroke-linejoin:round; stroke-width:3px;"/><rect x="98.473" y="91.458" width="5" height="8.825" style="fill:none; stroke:#f4f4f4; stroke-linecap:round; stroke-linejoin:round; stroke-width:3px;"/><polygon points="105.959 98.824 100.973 107.459 95.986 98.824 105.959 98.824" style="fill:none; stroke:#f4f4f4; stroke-linecap:round; stroke-linejoin:round; stroke-width:3px;"/><line x1="100.973" y1="100.283" x2="100.973" y2="91.458" style="fill:none; stroke:#f4ae3d; stroke-miterlimit:10; stroke-width:5px;"/><polygon points="105.959 98.824 100.973 107.459 95.986 98.824 105.959 98.824" style="fill:#f4ae3d; stroke-width:0px;"/><line x1="100.973" y1="59.922" x2="100.973" y2="75.523" style="fill:none; stroke:#f4f4f4; stroke-linecap:round; stroke-linejoin:round; stroke-width:3px;"/><rect x="98.473" y="67.098" width="5" height="8.425" style="fill:none; stroke:#f4f4f4; stroke-linecap:round; stroke-linejoin:round; stroke-width:3px;"/><polygon points="95.986 68.557 100.973 59.922 105.959 68.557 95.986 68.557" style="fill:none; stroke:#f4f4f4; stroke-linecap:round; stroke-linejoin:round; stroke-width:3px;"/><line x1="100.973" y1="67.098" x2="100.973" y2="75.523" style="fill:none; stroke:#f4ae3d; stroke-miterlimit:10; stroke-width:5px;"/><polygon points="95.986 68.557 100.973 59.922 105.959 68.557 95.986 68.557" style="fill:#f4ae3d; stroke-width:0px;"/><polyline points="68.967 64.788 81.091 64.788 95.939 79.637" style="fill:none; stroke:#f4f4f4; stroke-width:3px;"/><polyline points="68.967 64.788 81.091 64.788 95.939 79.637" style="fill:none; stroke:#f4f4f4; stroke-width:3px;"/><polyline points="68.967 64.788 81.091 64.788 95.939 79.637" style="fill:none; stroke:#f4f4f4; stroke-width:3px;"/><path d="m68.502,63.097c-.145.097-.328.204-.553.323l-.59-.955c.344-.188.652-.385.926-.594.275-.209.527-.441.76-.698h1.301v6.721h-1.33v-5.195c-.199.168-.371.301-.514.398Z" style="fill:none; stroke:#f4f4f4; stroke-width:3px;"/><circle cx="69.192" cy="64.672" r="5.958" style="fill:none; stroke:#f4f4f4; stroke-width:3px;"/><path d="m69.192,58.702c-2.833,0-5.129,2.296-5.129,5.129v1.682c0,2.833,2.296,5.129,5.129,5.129s5.129-2.296,5.129-5.129v-1.682c0-2.833-2.296-5.129-5.129-5.129Z" style="fill:none; stroke:#f4f4f4; stroke-width:3px;"/><path d="m68.502,63.097c-.145.097-.328.204-.553.323l-.59-.955c.344-.188.652-.385.926-.594.275-.209.527-.441.76-.698h1.301v6.721h-1.33v-5.195c-.199.168-.371.301-.514.398Z" style="fill:none; stroke:#f4f4f4; stroke-width:3px;"/><polyline points="68.967 64.788 81.091 64.788 95.939 79.637" style="fill:none; stroke:#f4f4f4; stroke-linecap:round; stroke-miterlimit:10; stroke-width:3px;"/><polyline points="68.967 64.788 81.091 64.788 95.939 79.637" style="fill:none; stroke:#30373e; stroke-linecap:round; stroke-miterlimit:10;"/><circle cx="69.192" cy="64.672" r="5.958" style="fill:#30373e; stroke-width:0px;"/><path d="m69.192,58.702c-2.833,0-5.129,2.296-5.129,5.129v1.682c0,2.833,2.296,5.129,5.129,5.129s5.129-2.296,5.129-5.129v-1.682c0-2.833-2.296-5.129-5.129-5.129Z" style="fill:#30373e; stroke-width:0px;"/><path d="m68.502,63.097c-.145.097-.328.204-.553.323l-.59-.955c.344-.188.652-.385.926-.594.275-.209.527-.441.76-.698h1.301v6.721h-1.33v-5.195c-.199.168-.371.301-.514.398Z" style="fill:#f4f4f4; stroke-width:0px;"/><line x1="134.183" y1="83.07" x2="115.598" y2="83.07" style="fill:none; stroke:#f4f4f4; stroke-width:3px;"/><line x1="134.183" y1="83.07" x2="115.598" y2="83.07" style="fill:none; stroke:#f4f4f4; stroke-width:3px;"/><line x1="134.183" y1="83.07" x2="115.598" y2="83.07" style="fill:none; stroke:#f4f4f4; stroke-width:3px;"/><path d="m131.645,84.911l1.038-.739c.206.318.415.546.628.684.212.137.465.206.758.206.368,0,.653-.093.856-.276s.304-.454.304-.81v-.104c0-.337-.097-.583-.29-.739-.193-.155-.471-.233-.833-.233-.199,0-.381.023-.543.07-.162.046-.343.129-.543.248l-.926-.244.468-3.51h3.679v1.227h-2.593l-.15,1.132c.125-.037.251-.065.379-.084s.264-.028.407-.028c.469,0,.872.093,1.213.276.34.185.601.44.781.768.181.328.271.704.271,1.128,0,.48-.111.901-.332,1.264-.222.362-.526.641-.913.838-.387.196-.82.295-1.301.295-.986,0-1.772-.456-2.358-1.367Z" style="fill:none; stroke:#f4f4f4; stroke-width:3px;"/><circle cx="134.319" cy="82.953" r="5.958" style="fill:none; stroke:#f4f4f4; stroke-width:3px;"/><path d="m134.319,76.983c-3.22,0-5.831,2.611-5.831,5.831v.278c0,3.22,2.611,5.831,5.831,5.831s5.831-2.611,5.831-5.831v-.278c0-3.22-2.611-5.831-5.831-5.831Z" style="fill:none; stroke:#f4f4f4; stroke-width:3px;"/><path d="m131.645,84.911l1.038-.739c.206.318.415.546.628.684.212.137.465.206.758.206.368,0,.653-.093.856-.276s.304-.454.304-.81v-.104c0-.337-.097-.583-.29-.739-.193-.155-.471-.233-.833-.233-.199,0-.381.023-.543.07-.162.046-.343.129-.543.248l-.926-.244.468-3.51h3.679v1.227h-2.593l-.15,1.132c.125-.037.251-.065.379-.084s.264-.028.407-.028c.469,0,.872.093,1.213.276.34.185.601.44.781.768.181.328.271.704.271,1.128,0,.48-.111.901-.332,1.264-.222.362-.526.641-.913.838-.387.196-.82.295-1.301.295-.986,0-1.772-.456-2.358-1.367Z" style="fill:none; stroke:#f4f4f4; stroke-width:3px;"/><line x1="134.183" y1="83.07" x2="115.598" y2="83.07" style="fill:none; stroke:#f4f4f4; stroke-linecap:round; stroke-miterlimit:10; stroke-width:3px;"/><line x1="134.183" y1="83.07" x2="115.598" y2="83.07" style="fill:none; stroke:#30373e; stroke-linecap:round; stroke-miterlimit:10;"/><circle cx="134.319" cy="82.953" r="5.958" style="fill:#30373e; stroke-width:0px;"/><path d="m134.319,76.983c-3.22,0-5.831,2.611-5.831,5.831v.278c0,3.22,2.611,5.831,5.831,5.831s5.831-2.611,5.831-5.831v-.278c0-3.22-2.611-5.831-5.831-5.831Z" style="fill:#30373e; stroke-width:0px;"/><path d="m131.645,84.911l1.038-.739c.206.318.415.546.628.684.212.137.465.206.758.206.368,0,.653-.093.856-.276s.304-.454.304-.81v-.104c0-.337-.097-.583-.29-.739-.193-.155-.471-.233-.833-.233-.199,0-.381.023-.543.07-.162.046-.343.129-.543.248l-.926-.244.468-3.51h3.679v1.227h-2.593l-.15,1.132c.125-.037.251-.065.379-.084s.264-.028.407-.028c.469,0,.872.093,1.213.276.34.185.601.44.781.768.181.328.271.704.271,1.128,0,.48-.111.901-.332,1.264-.222.362-.526.641-.913.838-.387.196-.82.295-1.301.295-.986,0-1.772-.456-2.358-1.367Z" style="fill:#f4f4f4; stroke-width:0px;"/><line x1="68.922" y1="83.07" x2="88.226" y2="83.07" style="fill:none; stroke:#f4f4f4; stroke-width:3px;"/><line x1="68.922" y1="83.07" x2="88.226" y2="83.07" style="fill:none; stroke:#f4f4f4; stroke-width:3px;"/><line x1="68.922" y1="83.07" x2="88.226" y2="83.07" style="fill:none; stroke:#f4f4f4; stroke-width:3px;"/><path d="m69.45,85.265h-3.125v-.964l3.061-4.259h1.311v4.081h.916v1.142h-.916v1.498h-1.246v-1.498Zm0-1.142v-2.274l-1.637,2.274h1.637Z" style="fill:none; stroke:#f4f4f4; stroke-width:3px;"/><circle cx="69.148" cy="83.541" r="5.958" style="fill:none; stroke:#f4f4f4; stroke-width:3px;"/><path d="m69.148,77.571c-3.261,0-5.905,2.644-5.905,5.905v.13c0,3.261,2.644,5.905,5.905,5.905s5.905-2.644,5.905-5.905v-.13c0-3.261-2.644-5.905-5.905-5.905Z" style="fill:none; stroke:#f4f4f4; stroke-width:3px;"/><path d="m69.45,85.265h-3.125v-.964l3.061-4.259h1.311v4.081h.916v1.142h-.916v1.498h-1.246v-1.498Zm0-1.142v-2.274l-1.637,2.274h1.637Z" style="fill:none; stroke:#f4f4f4; stroke-width:3px;"/><line x1="68.922" y1="83.07" x2="88.226" y2="83.07" style="fill:none; stroke:#f4f4f4; stroke-linecap:round; stroke-miterlimit:10; stroke-width:3px;"/><line x1="68.922" y1="83.07" x2="88.226" y2="83.07" style="fill:none; stroke:#30373e; stroke-linecap:round; stroke-miterlimit:10;"/><circle cx="69.148" cy="83.541" r="5.958" style="fill:#30373e; stroke-width:0px;"/><path d="m69.148,77.571c-3.261,0-5.905,2.644-5.905,5.905v.13c0,3.261,2.644,5.905,5.905,5.905s5.905-2.644,5.905-5.905v-.13c0-3.261-2.644-5.905-5.905-5.905Z" style="fill:#30373e; stroke-width:0px;"/><path d="m69.45,85.265h-3.125v-.964l3.061-4.259h1.311v4.081h.916v1.142h-.916v1.498h-1.246v-1.498Zm0-1.142v-2.274l-1.637,2.274h1.637Z" style="fill:#f4f4f4; stroke-width:0px;"/><circle cx="101.008" cy="50.418" r="5.958" style="fill:#30373e; stroke-width:0px;"/><path d="m101.008,44.448c-3.212,0-5.816,2.604-5.816,5.816v.307c0,3.212,2.604,5.816,5.816,5.816s5.816-2.604,5.816-5.816v-.307c0-3.212-2.604-5.816-5.816-5.816Z" style="fill:#30373e; stroke-width:0px;"/><path d="m98.498,52.582l2.33-2.181c.219-.199.402-.391.553-.575.148-.184.264-.357.346-.52.082-.163.121-.315.121-.459v-.084c0-.225-.086-.409-.256-.552-.172-.144-.389-.215-.652-.215-.373,0-.66.081-.859.243-.201.163-.332.44-.395.833l-1.18-.374c.102-.599.365-1.062.797-1.39.43-.328.977-.491,1.637-.491.418,0,.797.075,1.133.225.338.149.604.368.801.655.197.287.295.627.295,1.02,0,.325-.064.635-.191.931-.129.296-.293.568-.492.814s-.428.485-.684.716l-1.441,1.292h2.855v1.17h-4.717v-1.058Z" style="fill:#f4f4f4; stroke-width:0px;"/><circle cx="100.693" cy="117.095" r="5.958" style="fill:#30373e; stroke-width:0px;"/><path d="m100.693,111.125c-3.205,0-5.803,2.598-5.803,5.803v.335c0,3.205,2.598,5.803,5.803,5.803s5.803-2.598,5.803-5.803v-.335c0-3.205-2.598-5.803-5.803-5.803Z" style="fill:#30373e; stroke-width:0px;"/><path d="m99.025,120.079c-.39-.228-.726-.566-1.006-1.016l1.039-.749c.174.318.366.546.575.684.209.137.47.206.781.206.337,0,.628-.067.871-.201.243-.135.365-.342.365-.623v-.112c0-.318-.108-.544-.323-.679-.216-.134-.579-.201-1.091-.201h-.468v-1.123h.449c.381,0,.691-.056.932-.168s.36-.325.36-.637v-.104c0-.225-.104-.392-.313-.5-.209-.109-.451-.164-.726-.164-.262,0-.498.067-.707.201s-.382.332-.52.595l-.982-.59c.225-.48.524-.835.898-1.062s.83-.342,1.366-.342c.655,0,1.19.156,1.605.468.415.312.623.777.623,1.395,0,.325-.065.604-.197.838-.131.234-.314.426-.552.576.3.155.525.355.679.599.152.243.229.543.229.898,0,.462-.114.855-.342,1.18-.229.324-.532.567-.913.729-.381.163-.799.244-1.254.244-.53,0-.991-.114-1.381-.342Z" style="fill:#f4f4f4; stroke-width:0px;"/></g></svg>