<?xml version="1.0" encoding="UTF-8"?><svg id="uuid-994e59a2-dd8d-4d21-98ff-cbc71172f9a2" xmlns="http://www.w3.org/2000/svg" width="325" height="394.1193" xmlns:xlink="http://www.w3.org/1999/xlink" viewBox="0 0 325 394.1193"><defs><clipPath id="uuid-7cd7df0b-299a-4ef9-ae9e-4cc117e3f227"><polygon points="1015 228.974 696.6956 228.974 702.5579 10.8804 1013.5482 5.6833 1015 228.974" style="fill:none;"/></clipPath></defs><path d="m46.775,299.574l37.1052-92.6885c1.6483-4.1173,5.6367-6.8168,10.0717-6.8168h145.9968c4.435,0,8.4234,2.6995,10.0717,6.8168l37.1052,92.6885c1.4261,3.5624,2.1589,7.3644,2.1589,11.2017v53.369c0,5.9916-4.8571,10.8487-10.8487,10.8487H55.4648c-5.9916,0-10.8487-4.8571-10.8487-10.8487v-53.369c0-3.8373.7327-7.6393,2.1589-11.2017Z" style="fill:none; stroke:#30373e; stroke-miterlimit:10;"/><path d="m203.2077,256.4697v-12.819c-1.4874-9.9388-17.6726-17.4167-36.2575-17.4167s-34.7701,7.4778-36.2575,17.4167v12.8177" style="fill:none; stroke:#30373e; stroke-miterlimit:10;"/><path d="m166.9503,223.8555c12.611.0737,26.2539,2.2917,36.281,10.5381,13.2254,11.8275,2.0818,24.296-11.034,29.0595-18.23,6.8748-46.1057,6.35-61.6191-6.4993-7.7042-6.6235-7.7384-16.0061.0905-22.5609,10.0278-8.2476,23.6699-10.4636,36.2816-10.5376-12.5528.3104-26.0089,2.7922-35.8639,11.011-12.6403,11.4462-1.5665,23.2394,10.9464,27.7393,15.8268,5.7015,34.0085,5.7028,49.8357.0014,12.489-4.4911,23.602-16.2865,10.9465-27.7416-9.856-8.2199-23.3108-10.6993-35.8646-11.0098h0Z" style="fill:#30373e;"/><path d="m91.0888,202.3873l-8.1638,21.8468h51.065c8.9243-3.9285,20.4849-6.2858,32.9603-6.2858s24.0359,2.3574,32.9602,6.2858h51.065l-8.1638-21.8468H91.0888Z" style="fill:none; stroke:#30373e; stroke-miterlimit:10; stroke-width:.5px;"/><path d="m166.9503,234.3769c6.3873-.0627,16.1673,1.3955,18.7975,8.1594,1.8542,8.7394-12.3868,11.7953-18.7974,11.6563-6.4105.1434-20.6545-2.92-18.7992-11.6566,2.6274-6.764,12.414-8.2229,18.799-8.1593-6.0611.262-15.7468,1.9655-18.0916,8.3579-1.1768,6.3897,7.526,9.1959,12.4953,10.0353,7.1995.9472,15.4894.5137,21.3778-4.1651,2.1207-1.7219,3.2758-4.6669,1.7947-7.1016-3.5475-5.4937-11.4652-6.7991-17.5761-7.1264h0Z" style="fill:#30373e;"/><path d="m176.6776,251.9024v-8.2518c-.1104-2.749-4.4644-4.9321-9.7273-4.9321s-9.617,2.1831-9.7273,4.9321v8.6332" style="fill:none; stroke:#30373e; stroke-miterlimit:10;"/><path d="m172.9386,243.6507c.0426,1.7239-2.6382,3.1396-5.9884,3.1396s-6.031-1.4156-5.9884-3.1396c.042-1.6997,2.7229-3.0602,5.9884-3.0602s5.9464,1.3605,5.9884,3.0602Z" style="fill:none; stroke:#30373e; stroke-miterlimit:10; stroke-width:.5px;"/><line x1="160.6991" y1="234.9402" x2="153.7956" y2="227.5296" style="fill:none; stroke:#30373e; stroke-miterlimit:10; stroke-width:.5px;"/><line x1="173.2015" y1="234.9401" x2="180.1048" y2="227.5297" style="fill:none; stroke:#30373e; stroke-miterlimit:10; stroke-width:.5px;"/><line x1="175.1099" y1="252.4098" x2="183.8818" y2="261.8261" style="fill:none; stroke:#30373e; stroke-miterlimit:10; stroke-width:.5px;"/><line x1="158.7906" y1="252.4098" x2="150.0187" y2="261.8261" style="fill:none; stroke:#30373e; stroke-miterlimit:10; stroke-width:.5px;"/><path d="m234.0073,281.5394H63.2024c-2.8657,0-5.8612,1.7415-6.7021,3.9195l-4.7715,12.359c-.9296,2.4078.799,4.3884,3.8746,4.3884h183.3154c3.0756,0,5.0617-1.9806,4.4452-4.3884l-3.1644-12.359c-.5577-2.1781-3.3267-3.9195-6.1924-3.9195Z" style="fill:none; stroke:#30373e; stroke-miterlimit:10; stroke-width:.5px;"/><path d="m188.1509,288.2015h-122.2056c-.558,0-1.1323.3454-1.2832.7726l-2.0891,5.9147c-.1576.4461.1784.8088.7509.8088h125.3773c.5725,0,1.0087-.3627.9744-.8088l-.4548-5.9147c-.0329-.4272-.5117-.7726-1.0697-.7726Z" style="fill:none; stroke:#30373e; stroke-miterlimit:10; stroke-width:.5px;"/><path d="m111.7317,273.7011c-3.1374,0-5.8297-.8525-7.3506-2.2932h-19.1288c-.8738,0-1.4564-.4111-1.3017-.9164.1541-.5034.9824-.9102,1.8503-.9102h19.8307c.5456,0,1.0164.1636,1.2431.4326.9612,1.1429,2.9196,1.8298,5.231,1.8298,3.6508,0,6.9247-1.7178,7.2932-3.7999.3629-2.0504-2.2341-3.6954-5.7845-3.6954-2.2478,0-4.4397.6529-5.8714,1.7537-.3409.2618-.8781.4215-1.4175.4215h-19.6062c-.8581,0-1.4324-.3965-1.2832-.8838.1487-.4856.9599-.878,1.8124-.878h18.6614c2.1005-1.357,5.0429-2.1468,8.0535-2.1468,5.2152,0,9.0604,2.4079,8.5609,5.4288-.511,3.0904-5.3576,5.6574-10.7924,5.6574Z" style="fill:none; stroke:#30373e; stroke-miterlimit:10; stroke-width:.5px;"/><line x1="81.4928" y1="288.2015" x2="82.6047" y2="284.4435" style="fill:none; stroke:#30373e; stroke-miterlimit:10; stroke-width:.5px;"/><line x1="85.6815" y1="288.2015" x2="86.2137" y2="286.3102" style="fill:none; stroke:#30373e; stroke-miterlimit:10; stroke-width:.5px;"/><line x1="89.8702" y1="288.2015" x2="90.3749" y2="286.3102" style="fill:none; stroke:#30373e; stroke-miterlimit:10; stroke-width:.5px;"/><line x1="94.0589" y1="288.2015" x2="94.5362" y2="286.3102" style="fill:none; stroke:#30373e; stroke-miterlimit:10; stroke-width:.5px;"/><line x1="98.2475" y1="288.2015" x2="98.6974" y2="286.3102" style="fill:none; stroke:#30373e; stroke-miterlimit:10; stroke-width:.5px;"/><line x1="102.4362" y1="288.2015" x2="103.2756" y2="284.4435" style="fill:none; stroke:#30373e; stroke-miterlimit:10; stroke-width:.5px;"/><line x1="106.6249" y1="288.2015" x2="107.0199" y2="286.3102" style="fill:none; stroke:#30373e; stroke-miterlimit:10; stroke-width:.5px;"/><line x1="110.8136" y1="288.2015" x2="111.1812" y2="286.3102" style="fill:none; stroke:#30373e; stroke-miterlimit:10; stroke-width:.5px;"/><line x1="115.0023" y1="288.2015" x2="115.3424" y2="286.3102" style="fill:none; stroke:#30373e; stroke-miterlimit:10; stroke-width:.5px;"/><line x1="119.1909" y1="288.2015" x2="119.5037" y2="286.3102" style="fill:none; stroke:#30373e; stroke-miterlimit:10; stroke-width:.5px;"/><line x1="123.3796" y1="288.2015" x2="123.9465" y2="284.4435" style="fill:none; stroke:#30373e; stroke-miterlimit:10; stroke-width:.5px;"/><line x1="127.5683" y1="288.2015" x2="127.8262" y2="286.3102" style="fill:none; stroke:#30373e; stroke-miterlimit:10; stroke-width:.5px;"/><line x1="131.757" y1="288.2015" x2="131.9874" y2="286.3102" style="fill:none; stroke:#30373e; stroke-miterlimit:10; stroke-width:.5px;"/><line x1="135.9457" y1="288.2015" x2="136.1487" y2="286.3102" style="fill:none; stroke:#30373e; stroke-miterlimit:10; stroke-width:.5px;"/><line x1="140.1343" y1="288.2015" x2="140.3099" y2="286.3102" style="fill:none; stroke:#30373e; stroke-miterlimit:10; stroke-width:.5px;"/><line x1="144.323" y1="288.2015" x2="144.6174" y2="284.4435" style="fill:none; stroke:#30373e; stroke-miterlimit:10; stroke-width:.5px;"/><line x1="148.5117" y1="288.2015" x2="148.6324" y2="286.3102" style="fill:none; stroke:#30373e; stroke-miterlimit:10; stroke-width:.5px;"/><line x1="152.7004" y1="288.2015" x2="152.7937" y2="286.3102" style="fill:none; stroke:#30373e; stroke-miterlimit:10; stroke-width:.5px;"/><line x1="156.8891" y1="288.2015" x2="156.9549" y2="286.3102" style="fill:none; stroke:#30373e; stroke-miterlimit:10; stroke-width:.5px;"/><line x1="161.0777" y1="288.2015" x2="161.1162" y2="286.3102" style="fill:none; stroke:#30373e; stroke-miterlimit:10; stroke-width:.5px;"/><line x1="165.2664" y1="288.2015" x2="165.2883" y2="284.4435" style="fill:none; stroke:#30373e; stroke-miterlimit:10; stroke-width:.5px;"/><line x1="169.4551" y1="288.2015" x2="169.4387" y2="286.3102" style="fill:none; stroke:#30373e; stroke-miterlimit:10; stroke-width:.5px;"/><line x1="173.6438" y1="288.2015" x2="173.5999" y2="286.3102" style="fill:none; stroke:#30373e; stroke-miterlimit:10; stroke-width:.5px;"/><line x1="177.8325" y1="288.2015" x2="177.7612" y2="286.3102" style="fill:none; stroke:#30373e; stroke-miterlimit:10; stroke-width:.5px;"/><line x1="182.0211" y1="288.2015" x2="181.9225" y2="286.3102" style="fill:none; stroke:#30373e; stroke-miterlimit:10; stroke-width:.5px;"/><line x1="182.3987" y1="295.4365" x2="182.6103" y2="299.492" style="fill:none; stroke:#30373e; stroke-miterlimit:10; stroke-width:.5px;"/><line x1="178.1051" y1="295.4365" x2="178.1809" y2="297.4505" style="fill:none; stroke:#30373e; stroke-miterlimit:10; stroke-width:.5px;"/><line x1="173.8115" y1="295.4365" x2="173.8581" y2="297.4505" style="fill:none; stroke:#30373e; stroke-miterlimit:10; stroke-width:.5px;"/><line x1="169.5178" y1="295.4365" x2="169.5353" y2="297.4505" style="fill:none; stroke:#30373e; stroke-miterlimit:10; stroke-width:.5px;"/><line x1="165.2242" y1="295.4365" x2="165.2125" y2="297.4505" style="fill:none; stroke:#30373e; stroke-miterlimit:10; stroke-width:.5px;"/><line x1="160.9306" y1="295.4365" x2="160.8482" y2="299.492" style="fill:none; stroke:#30373e; stroke-miterlimit:10; stroke-width:.5px;"/><line x1="156.637" y1="295.4365" x2="156.5669" y2="297.4505" style="fill:none; stroke:#30373e; stroke-miterlimit:10; stroke-width:.5px;"/><line x1="152.3434" y1="295.4365" x2="152.2441" y2="297.4505" style="fill:none; stroke:#30373e; stroke-miterlimit:10; stroke-width:.5px;"/><line x1="148.0498" y1="295.4365" x2="147.9212" y2="297.4505" style="fill:none; stroke:#30373e; stroke-miterlimit:10; stroke-width:.5px;"/><line x1="143.7562" y1="295.4365" x2="143.5984" y2="297.4505" style="fill:none; stroke:#30373e; stroke-miterlimit:10; stroke-width:.5px;"/><line x1="139.4626" y1="295.4365" x2="139.0861" y2="299.492" style="fill:none; stroke:#30373e; stroke-miterlimit:10; stroke-width:.5px;"/><line x1="135.169" y1="295.4365" x2="134.9528" y2="297.4505" style="fill:none; stroke:#30373e; stroke-miterlimit:10; stroke-width:.5px;"/><line x1="130.8754" y1="295.4365" x2="130.63" y2="297.4505" style="fill:none; stroke:#30373e; stroke-miterlimit:10; stroke-width:.5px;"/><line x1="126.5818" y1="295.4365" x2="126.3072" y2="297.4505" style="fill:none; stroke:#30373e; stroke-miterlimit:10; stroke-width:.5px;"/><line x1="122.2882" y1="295.4365" x2="121.9844" y2="297.4505" style="fill:none; stroke:#30373e; stroke-miterlimit:10; stroke-width:.5px;"/><line x1="117.9946" y1="295.4365" x2="117.324" y2="299.492" style="fill:none; stroke:#30373e; stroke-miterlimit:10; stroke-width:.5px;"/><line x1="113.701" y1="295.4365" x2="113.3387" y2="297.4505" style="fill:none; stroke:#30373e; stroke-miterlimit:10; stroke-width:.5px;"/><line x1="109.4073" y1="295.4365" x2="109.0159" y2="297.4505" style="fill:none; stroke:#30373e; stroke-miterlimit:10; stroke-width:.5px;"/><line x1="105.1137" y1="295.4365" x2="104.6931" y2="297.4505" style="fill:none; stroke:#30373e; stroke-miterlimit:10; stroke-width:.5px;"/><line x1="100.8201" y1="295.4365" x2="100.3703" y2="297.4505" style="fill:none; stroke:#30373e; stroke-miterlimit:10; stroke-width:.5px;"/><line x1="96.5265" y1="295.4365" x2="95.5619" y2="299.492" style="fill:none; stroke:#30373e; stroke-miterlimit:10; stroke-width:.5px;"/><line x1="92.2329" y1="295.4365" x2="91.7247" y2="297.4505" style="fill:none; stroke:#30373e; stroke-miterlimit:10; stroke-width:.5px;"/><line x1="87.9393" y1="295.4365" x2="87.4018" y2="297.4505" style="fill:none; stroke:#30373e; stroke-miterlimit:10; stroke-width:.5px;"/><line x1="83.6457" y1="295.4365" x2="83.079" y2="297.4505" style="fill:none; stroke:#30373e; stroke-miterlimit:10; stroke-width:.5px;"/><line x1="79.3521" y1="295.4365" x2="78.7562" y2="297.4505" style="fill:none; stroke:#30373e; stroke-miterlimit:10; stroke-width:.5px;"/><path d="m176.6776,243.6507c.1129,2.8128-4.2411,5.1414-9.7273,5.1414s-9.8403-2.3286-9.7273-5.1414" style="fill:none; stroke:#30373e; stroke-miterlimit:10; stroke-width:.5px;"/><path d="m203.2077,243.6507c1.6203,10.8272-14.5518,20.3413-36.2575,20.3413s-37.8778-9.5141-36.2575-20.3413" style="fill:none; stroke:#30373e; stroke-miterlimit:10; stroke-width:.5px;"/><path d="m277.7918,276.2584l8.8422,22.0878c1.2693,3.1707-1.0657,6.6207-4.4811,6.6207H51.8992c-3.4556,0-5.7918-3.525-4.4453-6.7075l15.0802-35.6445" style="fill:none; stroke:#30373e; stroke-miterlimit:10; stroke-width:.5px;"/><path d="m288.927,334.1384c1.2944,3.2335-1.0868,6.7518-4.5698,6.7518H49.5437c-2.8246,0-4.9158-2.3095-4.9276-4.8975" style="fill:none; stroke:#30373e; stroke-miterlimit:10; stroke-width:.5px;"/><path d="m289.1942,307.1676c-.43,2.1989-2.3534,3.9877-4.837,3.9877H49.5437c-2.8246,0-4.9158-2.3095-4.9276-4.8975" style="fill:none; stroke:#30373e; stroke-miterlimit:10; stroke-width:.5px;"/><rect x="60.3892" y="306.2579" width="4.0271" height="31.2564" rx=".0627" ry=".0627" style="fill:#f4f4f4; stroke:#30373e; stroke-miterlimit:10; stroke-width:.5px;"/><rect x="70.1602" y="306.2579" width="4.0271" height="31.2564" rx=".0627" ry=".0627" style="fill:#f4f4f4; stroke:#30373e; stroke-miterlimit:10; stroke-width:.5px;"/><rect x="79.9312" y="306.2579" width="4.0271" height="31.2564" rx=".0627" ry=".0627" style="fill:#f4f4f4; stroke:#30373e; stroke-miterlimit:10; stroke-width:.5px;"/><rect x="89.7023" y="306.2579" width="4.0271" height="31.2564" rx=".0627" ry=".0627" style="fill:#f4f4f4; stroke:#30373e; stroke-miterlimit:10; stroke-width:.5px;"/><rect x="99.4733" y="306.2579" width="4.0271" height="31.2564" rx=".0627" ry=".0627" style="fill:#f4f4f4; stroke:#30373e; stroke-miterlimit:10; stroke-width:.5px;"/><rect x="109.2444" y="306.2579" width="4.0271" height="31.2564" rx=".0627" ry=".0627" style="fill:#f4f4f4; stroke:#30373e; stroke-miterlimit:10; stroke-width:.5px;"/><rect x="119.0154" y="306.2579" width="4.0271" height="31.2564" rx=".0627" ry=".0627" style="fill:#f4f4f4; stroke:#30373e; stroke-miterlimit:10; stroke-width:.5px;"/><rect x="128.7865" y="306.2579" width="4.0271" height="31.2564" rx=".0627" ry=".0627" style="fill:#f4f4f4; stroke:#30373e; stroke-miterlimit:10; stroke-width:.5px;"/><rect x="138.5575" y="306.2579" width="4.0271" height="31.2564" rx=".0627" ry=".0627" style="fill:#f4f4f4; stroke:#30373e; stroke-miterlimit:10; stroke-width:.5px;"/><rect x="148.3285" y="306.2579" width="4.0271" height="31.2564" rx=".0627" ry=".0627" style="fill:#f4f4f4; stroke:#30373e; stroke-miterlimit:10; stroke-width:.5px;"/><rect x="158.0996" y="306.2579" width="4.0271" height="31.2564" rx=".0627" ry=".0627" style="fill:#f4f4f4; stroke:#30373e; stroke-miterlimit:10; stroke-width:.5px;"/><rect x="167.8706" y="306.2579" width="4.0271" height="31.2564" rx=".0627" ry=".0627" style="fill:#f4f4f4; stroke:#30373e; stroke-miterlimit:10; stroke-width:.5px;"/><rect x="177.6417" y="306.2579" width="4.0271" height="31.2564" rx=".0627" ry=".0627" style="fill:#f4f4f4; stroke:#30373e; stroke-miterlimit:10; stroke-width:.5px;"/><rect x="187.4127" y="306.2579" width="4.0271" height="31.2564" rx=".0627" ry=".0627" style="fill:#f4f4f4; stroke:#30373e; stroke-miterlimit:10; stroke-width:.5px;"/><rect x="197.1838" y="306.2579" width="4.0271" height="31.2564" rx=".0627" ry=".0627" style="fill:#f4f4f4; stroke:#30373e; stroke-miterlimit:10; stroke-width:.5px;"/><rect x="206.9548" y="306.2579" width="4.0271" height="31.2564" rx=".0627" ry=".0627" style="fill:#f4f4f4; stroke:#30373e; stroke-miterlimit:10; stroke-width:.5px;"/><rect x="216.7259" y="306.2579" width="4.0271" height="31.2564" rx=".0627" ry=".0627" style="fill:#f4f4f4; stroke:#30373e; stroke-miterlimit:10; stroke-width:.5px;"/><rect x="226.4969" y="306.2579" width="4.0271" height="31.2564" rx=".0627" ry=".0627" style="fill:#f4f4f4; stroke:#30373e; stroke-miterlimit:10; stroke-width:.5px;"/><rect x="236.2679" y="306.2579" width="4.0271" height="31.2564" rx=".0627" ry=".0627" style="fill:#f4f4f4; stroke:#30373e; stroke-miterlimit:10; stroke-width:.5px;"/><rect x="246.039" y="306.2579" width="4.0271" height="31.2564" rx=".0627" ry=".0627" style="fill:#f4f4f4; stroke:#30373e; stroke-miterlimit:10; stroke-width:.5px;"/><rect x="255.81" y="306.2579" width="4.0271" height="31.2564" rx=".0627" ry=".0627" style="fill:#f4f4f4; stroke:#30373e; stroke-miterlimit:10; stroke-width:.5px;"/><rect x="265.5811" y="306.2579" width="4.0271" height="31.2564" rx=".0627" ry=".0627" style="fill:#f4f4f4; stroke:#30373e; stroke-miterlimit:10; stroke-width:.5px;"/><rect x="275.3521" y="306.2579" width="4.0271" height="31.2564" rx=".0627" ry=".0627" style="fill:#f4f4f4; stroke:#30373e; stroke-miterlimit:10; stroke-width:.5px;"/><rect x="236.2679" y="346.0726" width="4.0271" height="28.9209" rx=".0603" ry=".0603" style="fill:#f4f4f4; stroke:#30373e; stroke-miterlimit:10; stroke-width:.5px;"/><rect x="246.039" y="346.0726" width="4.0271" height="28.9209" rx=".0603" ry=".0603" style="fill:#f4f4f4; stroke:#30373e; stroke-miterlimit:10; stroke-width:.5px;"/><rect x="255.81" y="346.0726" width="4.0271" height="28.9209" rx=".0603" ry=".0603" style="fill:#f4f4f4; stroke:#30373e; stroke-miterlimit:10; stroke-width:.5px;"/><rect x="265.5811" y="346.0726" width="4.0271" height="28.9209" rx=".0603" ry=".0603" style="fill:#f4f4f4; stroke:#30373e; stroke-miterlimit:10; stroke-width:.5px;"/><rect x="275.3521" y="346.0726" width="4.0271" height="28.9209" rx=".0603" ry=".0603" style="fill:#f4f4f4; stroke:#30373e; stroke-miterlimit:10; stroke-width:.5px;"/><path d="m167.0089,11.0497c30.5587,0,58.0935,7.2979,68.8919,17.9613,2.9831,2.9458,4.5554,7.0295,4.3954,11.2188l-4.2833,112.1797c-1.5407,22.431-27.1721,39.2023-69.004,39.2023s-68.2135-18.3232-69.004-39.2023l-4.2842-112.2033c-.1501-3.9305,1.1751-7.8285,3.8874-10.6771,10.4206-10.9444,38.3497-18.4794,69.4008-18.4794" style="fill:#cfd2d4; stroke:#30373e; stroke-miterlimit:10; stroke-width:1.5px;"/><path d="m166.9503,16.8643c25.3829-.1498,25.1615,14.8678-.0001,15.2583-25.1698-.3888-25.3784-15.4133.0002-15.2584-5.2513.2379-10.7592.938-15.3729,3.5884-2.1727,1.1775-4.0623,3.789-1.9217,5.9271,1.7692,1.9049,4.3525,2.7856,6.8219,3.5044,3.4009.8973,6.9455,1.2309,10.4727,1.2399,3.5273-.0067,7.0719-.3422,10.4729-1.2391,2.4707-.7178,5.051-1.6011,6.8233-3.5038,2.1338-2.1387.2595-4.7501-1.9229-5.9293-4.6142-2.6508-10.1215-3.3502-15.3733-3.5873h0Z" style="fill:#30373e;"/><path d="m176.6776,30.255v-6.3049c-.1104-2.1004-4.4644-3.7684-9.7273-3.7684s-9.617,1.668-9.7273,3.7684v6.5963" style="fill:none; stroke:#30373e; stroke-miterlimit:10;"/><path d="m172.9386,23.9501c.0426,1.3172-2.6382,2.3988-5.9884,2.3988s-6.031-1.0816-5.9884-2.3988c.042-1.2987,2.7229-2.3382,5.9884-2.3382s5.9464,1.0395,5.9884,2.3382Z" style="fill:none; stroke:#30373e; stroke-miterlimit:10; stroke-width:.5px;"/><path d="m176.6776,23.9501c.1129,2.1492-4.2411,3.9284-9.7273,3.9284s-9.8403-1.7792-9.7273-3.9284" style="fill:none; stroke:#30373e; stroke-miterlimit:10; stroke-width:.5px;"/><path d="m236.3704,137.5062v.0115c-4.9,19.745-32.99,35.5639-69.36,35.5639-36.4,0-64.5-15.8419-69.37-35.6098v-.0115" style="fill:none; stroke:#30373e; stroke-miterlimit:10; stroke-width:.5px;"/><path d="m107.5283,31.6233c2.786-11.7939,29.3144-20.5736,59.4806-20.5736" style="fill:none; stroke:#30373e; stroke-miterlimit:10; stroke-width:.5px;"/><path d="m226.4895,31.6233c3.0739,13.0129-23.422,24.5923-59.4806,24.5923s-62.5546-11.5793-59.4806-24.5923" style="fill:none; stroke:#30373e; stroke-miterlimit:10; stroke-width:.5px;"/><path d="m167.0089,11.0497c30.1662,0,56.6946,8.7797,59.4806,20.5736" style="fill:none; stroke:#30373e; stroke-miterlimit:10; stroke-width:.5px;"/><path d="m94.8404,69.5834c6.84,12.4,35.5,22.1,72.17,22.1s65.33-9.71,72.17-22.1" style="fill:none; stroke:#30373e; stroke-miterlimit:10; stroke-width:.5px;"/><path d="m238.7482,36.1807c2.7154,14.1926-19.1427,21.8618-29.8575,24.8205-30.2495,7.8307-75.6321,7.7663-103.2579-7.9541-5.7427-3.4961-12.0712-9.496-10.3292-16.8664-1.6463,7.36,4.7017,13.2406,10.4577,16.6575,27.2026,15.4449,73.1825,15.4355,103.0431,7.8436,10.7003-2.944,32.4815-10.398,29.9438-24.501h0Z" style="fill:#30373e;"/><path d="m157.8666,119.6134c-53.7018-1.8069-95.8425-19.3525-95.8425-40.7303,0-7.4908,5.1741-14.5112,14.2067-20.5487" style="fill:none; stroke:#f4ae3d; stroke-miterlimit:10; stroke-width:5px;"/><polygon points="77.8034 64.2052 83.3616 54.1751 71.8961 54.3751 77.8034 64.2052" style="fill:#f4ae3d;"/><path d="m246.022,51.9487c16.1914,7.1935,26.0056,16.6177,26.0056,26.9344,0,18.5117-31.5984,34.1498-74.94,39.1835" style="fill:none; stroke:#f4ae3d; stroke-miterlimit:10; stroke-width:5px;"/><polygon points="198.1658 112.1599 188.8745 118.8805 199.3398 123.5682 198.1658 112.1599" style="fill:#f4ae3d;"/><polygon points="158.4478 194.4741 158.4478 223.7987 148.2203 223.7987 167.0026 244.0351 185.7849 223.7987 175.5575 223.7987 175.5575 194.4741 158.4478 194.4741" style="fill:#f4ae3d; stroke:#f4f4f4; stroke-miterlimit:10; stroke-width:1.5px;"/><g style="clip-path:url(#uuid-7cd7df0b-299a-4ef9-ae9e-4cc117e3f227);"><path d="m396.9428,446.9685c-60.1869-87.528-97.7042-192.3044-97.7531-299.1075-.9252-105.8134,42.0178-216.6268,131.9054-277.3212,137.4258-95.0889,323.685-44.1162,443.3673,56.8199,142.0439,117.8554,232.1569,311.2133,197.2485,496.4428-32.9339,172.1643-181.1477,274.0492-353.7215,242.9729-132.0342-23.3889-246.184-110.7752-321.0467-219.8068,74.9692,108.8767,189.2056,195.9666,321.1389,219.2774,172.176,30.9037,320.0722-70.7043,352.8512-242.5981,34.7582-184.9496-55.3883-377.8101-197.0501-495.5843-119.3551-100.765-305.2517-151.809-442.4135-56.9766-89.7573,60.5613-132.6375,171.1327-131.7922,276.7752-.1163,106.7271,37.2427,211.535,97.2658,299.1062h0Z" style="fill:#a6abb0;"/><ellipse cx="676.8771" cy="254.5919" rx="424.1345" ry="544.6589" transform="translate(-25.1646 428.1347) rotate(-34.4977)" style="fill:none; stroke:#a6abb0; stroke-miterlimit:10; stroke-width:.5px;"/><ellipse cx="709.3383" cy="232.2839" rx="521.9046" ry="670.2118" transform="translate(-6.8216 442.597) rotate(-34.4977)" style="fill:none; stroke:#a6abb0; stroke-miterlimit:10; stroke-width:.5px;"/><path d="m311.9815-376.9205C54.2554-199.8057,29.7073,212.0727,257.152,543.0357c227.4446,330.963,620.7533,455.6816,878.4794,278.5669l173.9528-119.544c257.7261-177.1148,282.2742-588.9931,54.8295-919.9561-227.4446-330.963-620.7533-455.6816-878.4794-278.5669l-173.9528,119.544Z" style="fill:none; stroke:#a6abb0; stroke-miterlimit:10;"/><path d="m311.9815-376.9205c257.7261-177.1148,651.0348-52.3961,878.4794,278.5669,227.4446,330.963,202.8966,742.8414-54.8295,919.9561" style="fill:none; stroke:#a6abb0; stroke-miterlimit:10; stroke-width:.5px;"/></g></svg>