<?xml version="1.0" encoding="UTF-8"?><svg xmlns="http://www.w3.org/2000/svg" width="218" height="180.6783" xmlns:xlink="http://www.w3.org/1999/xlink" viewBox="0 0 218 180.6783"><defs><clipPath id="uuid-9c35919c-d0c8-4350-b936-a8de9c6d0055"><rect x="2.6398" y="276.6729" width="212.7502" height="133.6899" style="fill:none; stroke-width:0px;"/></clipPath></defs><g id="uuid-40553b79-9336-454a-89eb-a4d1a1416fb4"><path d="m-19.6401,112.5529s21.0477-2.2404,25.5285-4.9288,8.2894-5.937,8.2894-5.937l14.8985-.7841s7.3932.8962,14.6745,0,33.9417-4.4808,35.1739-5.1529c1.2322-.6721,12.6581-8.1774,14.1144-8.5134s99.5211-17.2043,126.4755-27.4584" style="fill:none; stroke:#a6abb0; stroke-miterlimit:10; stroke-width:1.5px;"/><path d="m-19.6401,67.4093c16.567,7.0572,29.2251,12.4341,43.3395,12.2101,14.1144-.224,15.2346-.3361,19.0432-.6721,3.8086-.3361,48.3696-4.2488,54.4412-5.4295,9.5216-1.8517,16.2427-8.3488,21.7317-9.2449s69.1209-9.4205,100.5992-18.2557" style="fill:none; stroke:#a6abb0; stroke-miterlimit:10;"/><path d="m-19.6401,32.4594s18.2472,5.713,65.5192,5.937h7.7293s3.8086,1.9043,11.5379,1.2322,118.5672-9.0044,155.9644-18.1524" style="fill:none; stroke:#a6abb0; stroke-miterlimit:10;"/><path d="m-20.436,39.7723c15.7947,3.665,28.7889,6.3534,46.0398,6.2414,17.2509-.112,97.7029-3.4261,193.9109-19.8125" style="fill:none; stroke:#a6abb0; stroke-miterlimit:10; stroke-width:.5px;"/><path d="m-20.436,70.8819c17.531,7.0572,27.6127,10.6418,40.4948,11.0899,12.8822.4481,21.9557-.112,30.5812-.7841,8.6255-.6721,80.6017-7.0031,168.8747-27.3407" style="fill:none; stroke:#a6abb0; stroke-miterlimit:10; stroke-width:.5px;"/><path d="m29.0763,100.903c8.2334-4.4808,14.5408-13.0846,14.1876-19.2004l-.5213-2.7553" style="fill:none; stroke:#a6abb0; stroke-miterlimit:10; stroke-width:.5px;"/><path d="m-19.6401,75.4747c21.9999,7.5053,27.1527,9.4096,41.7152,9.6336,14.5625.224,28.3408-.238,51.9768-2.9755s98.6034-12.8042,145.4627-25.7013" style="fill:none; stroke:#a6abb0; stroke-miterlimit:10; stroke-width:.5px;"/><path d="m41.2304,100.903c7.6173-4.8168,10.4377-11.2825,12.7801-16.7871v-3.1661" style="fill:none; stroke:#a6abb0; stroke-miterlimit:10; stroke-width:.5px;"/><path d="m.1194,46.017c1.2739,9.1896,2.7108,18.3645,5.0408,27.3538C2.1795,64.5646.7264,55.275.1194,46.017H.1194Z" style="fill:#a6abb0; stroke-width:0px;"/><path d="m-19.6401,16.7169c16.0641,1.6306,39.9229,2.5242,65.0151,1.068,0,0,.5601-3.9207,5.2649-4.4808s97.2849-.8756,168.8747-11.5318" style="fill:none; stroke:#a6abb0; stroke-miterlimit:10;"/><path d="m45.3751,31.5632s-34.9028.8962-51.3047-1.3442l-16.4019-2.2404" style="fill:none; stroke:#a6abb0; stroke-miterlimit:10; stroke-width:.5px;"/><path d="m53.6085,38.3964s-7.6733-3.3606-8.2334-6.8332" style="fill:none; stroke:#a6abb0; stroke-miterlimit:10;"/><path d="m-19.6401,26.0743c19.9835,2.2404,28.6137,2.6237,47.6009,3.1683,0,0,3.5239.4163,3.6359-3.1683s0-7.4311,0-7.4311" style="fill:none; stroke:#a6abb0; stroke-miterlimit:10;"/><path d="m45.3751,31.5632s-10.3622-1.4574-15.2643-2.7357" style="fill:none; stroke:#a6abb0; stroke-miterlimit:10; stroke-width:.5px;"/><line x1="45.3751" y1="17.7849" x2="45.3751" y2="31.5632" style="fill:none; stroke:#a6abb0; stroke-miterlimit:10;"/><line x1="45.3751" y1="31.5632" x2="45.8792" y2="38.3964" style="fill:none; stroke:#a6abb0; stroke-miterlimit:10; stroke-width:.5px;"/><path d="m-20.436,12.1824c22.306,1.6725,45.6483,1.3341,68.0565.9908-22.6693,1.0215-45.4557,1.3544-68.0565-.9908h0Z" style="fill:#a6abb0; stroke-width:0px;"/><path d="m-16.3193,1.7723c50.4357,2.8444,101.0052,3.6789,151.4749,1.2689,25.0403-1.2681,50.5591-3.3327,75.5866-5.3391,4.2551-.4346,10.8639-.846,15.0622-1.6183-4.2036.8036-10.7073,1.2651-15.0513,1.7401C185.7246.0576,160.2281,2.0927,135.1762,3.4576c-50.4722,2.5372-101.0789,1.556-151.4955-1.6854h0Z" style="fill:#a6abb0; stroke-width:0px;"/><path d="m98.1546,75.8584c5.5172-.7526,7.6383-1.4089,12.2751-5.0638s5.8783-6.155,12.8769-7.1699" style="fill:none; stroke:#a6abb0; stroke-miterlimit:10; stroke-width:.5px;"/><ellipse cx="10.8069" cy="59.3162" rx="3.5053" ry="3.883" transform="translate(-46.0366 39.2158) rotate(-60.2004)" style="fill:none; stroke:#a6abb0; stroke-miterlimit:10; stroke-width:.5px;"/><ellipse cx="10.8069" cy="59.3162" rx="1.7992" ry="1.9931" transform="translate(-46.0366 39.2158) rotate(-60.2004)" style="fill:none; stroke:#a6abb0; stroke-miterlimit:10; stroke-width:.5px;"/><ellipse cx="122.8344" cy="50.6306" rx="3.883" ry="3.5053" transform="translate(6.2823 114.4064) rotate(-51.0877)" style="fill:none; stroke:#a6abb0; stroke-miterlimit:10; stroke-width:.5px;"/><ellipse cx="80.7541" cy="58.6793" rx="7.2284" ry="6.5253" transform="translate(-18.6009 68.3263) rotate(-41.5496)" style="fill:#f4ae3d; stroke:#30373e; stroke-miterlimit:10; stroke-width:1.5px;"/><ellipse cx="122.8344" cy="50.6306" rx="1.9931" ry="1.7992" transform="translate(6.2823 114.4064) rotate(-51.0877)" style="fill:none; stroke:#a6abb0; stroke-miterlimit:10; stroke-width:.5px;"/><path d="m45.3751,29.8595s4.3176,3.6265,10.3935,3.518c6.0759-.1085,95.9037-5.2079,163.7461-16.6002" style="fill:none; stroke:#a6abb0; stroke-miterlimit:10; stroke-width:.5px;"/><path d="m74.5531,26.7464l-11.3346.6316c-1.0286.0534-2.016-.7543-2.1474-1.7566h0c-.1656-1.2633.7101-2.2935,2.0065-2.3608l11.9396-.563c.9847-.0505,1.8052.7456,1.7844,1.7314h0c-.0262,1.2424-1.0074,2.2537-2.2485,2.3174Z" style="fill:none; stroke:#a6abb0; stroke-miterlimit:10; stroke-width:.25px;"/><path d="m47.3023,23.872l10.9275-.5153c.9847-.0505,1.8052.7456,1.7844,1.7314h0c-.0262,1.2424-1.0074,2.2537-2.2485,2.3174l-10.2854.5732" style="fill:none; stroke:#a6abb0; stroke-miterlimit:10; stroke-width:.25px;"/><path d="m66.3048,32.0011l-11.0841.6177c-1.0059.0522-1.9714-.7377-2.0999-1.7178h0c-.1619-1.2353.6944-2.2428,1.9622-2.3086l11.6756-.5505c.9629-.0494,1.7653.7291,1.7449,1.6931h0c-.0256,1.215-.9852,2.2039-2.1988,2.2661Z" style="fill:none; stroke:#a6abb0; stroke-miterlimit:10; stroke-width:.25px;"/><path d="m65.9363,21.8599l-10.9666.5963c-.9953.0502-1.962-.7499-2.1024-1.7401h0c-.177-1.2481.6573-2.2634,1.9117-2.3267l11.5532-.5271c.9528-.0475,1.7577.7408,1.7506,1.7143h0c-.0089,1.227-.9457,2.2235-2.1465,2.2833Z" style="fill:none; stroke:#a6abb0; stroke-miterlimit:10; stroke-width:.25px;"/><path d="m75.8355,12.5695c.4374.3171.7218.8311.7108,1.4108-.0109,1.2248-.9514,2.22-2.1435,2.2856l-10.9689.5905c-.9952.0547-1.9576-.7437-2.0997-1.7388-.0219-.1203-.0219-.2297-.0219-.339,0-.864.5031-1.5748,1.2795-1.8482" style="fill:none; stroke:#a6abb0; stroke-miterlimit:10; stroke-width:.25px;"/><path d="m59.1488,13.0575c.628.2473,1.0795.8732,1.0742,1.6034h0c-.0089,1.227-.9457,2.2235-2.1465,2.2833l-10.9666.5963" style="fill:none; stroke:#a6abb0; stroke-miterlimit:10; stroke-width:.25px;"/><path d="m90.9895,25.5327l-10.8828.6555c-.9876.0556-1.9365-.7344-2.0637-1.7183h0c-.1603-1.24.6795-2.2543,1.9242-2.3244l11.4637-.59c.9454-.0527,1.7341.7265,1.7151,1.6946h0c-.0239,1.2201-.965,2.2162-2.1566,2.2826Z" style="fill:none; stroke:#a6abb0; stroke-miterlimit:10; stroke-width:.25px;"/><path d="m83.0749,30.7183l-10.6422.641c-.9658.0544-1.8937-.7182-2.018-1.6803h0c-.1567-1.2125.6645-2.2045,1.8817-2.2731l11.2103-.577c.9245-.0515,1.6957.7105,1.6772,1.6571h0c-.0234,1.1931-.9437,2.1672-2.109,2.2321Z" style="fill:none; stroke:#a6abb0; stroke-miterlimit:10; stroke-width:.25px;"/><path d="m82.7107,20.7612l-10.5294.6197c-.9556.0524-1.8846-.7303-2.0205-1.7022h0c-.1712-1.225.6288-2.2247,1.8332-2.2907l11.0928-.5535c.9148-.0496,1.6885.7219,1.6827,1.678h0c-.0073,1.2049-.9058,2.1863-2.0587,2.2488Z" style="fill:none; stroke:#a6abb0; stroke-miterlimit:10; stroke-width:.25px;"/><path d="m92.6005,12.0336c.1859.2734.2843.6015.2843.9624,0,1.203-.8968,2.1872-2.056,2.2419l-10.5314.6234c-.9514.0547-1.881-.7327-2.0122-1.706-.0109-.1094-.0219-.2297-.0219-.3281,0-.5249.175-.9842.5031-1.3342" style="fill:none; stroke:#a6abb0; stroke-miterlimit:10; stroke-width:.25px;"/><path d="m106.9287,24.2568l-10.4309.6794c-.9466.0579-1.857-.7146-1.98-1.6799h0c-.155-1.2167.6489-2.2152,1.842-2.2881l10.9878-.617c.9062-.0548,1.663.7075,1.6459,1.6578h0c-.0216,1.1978-.9226,2.1787-2.0647,2.2478Z" style="fill:none; stroke:#a6abb0; stroke-miterlimit:10; stroke-width:.25px;"/><path d="m99.3478,29.3734l-10.2003.6644c-.9257.0566-1.816-.6988-1.9362-1.6428h0c-.1515-1.1898.6345-2.1662,1.8012-2.2375l10.7449-.6034c.8862-.0536,1.6262.6918,1.6095,1.6212h0c-.0211,1.1713-.9022,2.1305-2.0191,2.1981Z" style="fill:none; stroke:#a6abb0; stroke-miterlimit:10; stroke-width:.25px;"/><path d="m98.988,19.6003l-10.0922.6431c-.9159.0546-1.8073-.7106-1.9386-1.6643h0c-.1654-1.2019.6003-2.1859,1.7547-2.2547l10.6323-.58c.8768-.0517,1.6193.7031,1.6148,1.6416h0c-.0057,1.1828-.8659,2.1491-1.971,2.2143Z" style="fill:none; stroke:#a6abb0; stroke-miterlimit:10; stroke-width:.25px;"/><path d="m108.6437,11.3774c.0656.175.0984.3609.0984.5577-.0109,1.192-.8749,2.1544-1.9794,2.22l-10.094.6452c-.9077.0547-1.8045-.7108-1.9357-1.6623-.0109-.1094-.0219-.2187-.0219-.3171,0-.3171.0656-.6124.1968-.8749" style="fill:none; stroke:#a6abb0; stroke-miterlimit:10; stroke-width:.25px;"/><path d="m122.3179,22.9345l-9.979.7033c-.9056.0601-1.7775-.6947-1.8963-1.6415h0c-.1497-1.1934.6183-2.176,1.7597-2.2518l10.5119-.6441c.8669-.057,1.5919.6884,1.5766,1.621h0c-.0193,1.1755-.8802,2.1412-1.9729,2.213Z" style="fill:none; stroke:#a6abb0; stroke-miterlimit:10; stroke-width:.25px;"/><path d="m115.0707,27.982l-9.7585.6878c-.8856.0588-1.7383-.6793-1.8544-1.6052h0c-.1463-1.167.6046-2.1279,1.7208-2.202l10.2796-.6298c.8478-.0557,1.5567.6732,1.5417,1.5852h0c-.0188,1.1495-.8608,2.0939-1.9293,2.1641Z" style="fill:none; stroke:#a6abb0; stroke-miterlimit:10; stroke-width:.25px;"/><path d="m114.7152,18.3929l-9.6551.6665c-.8763.0568-1.73-.691-1.8567-1.6264h0c-.1597-1.1789.5718-2.1471,1.6762-2.2187l10.1718-.6065c.8388-.0538,1.5501.6843,1.5468,1.6052h0c-.0041,1.1607-.8259,2.112-1.8832,2.1798Z" style="fill:none; stroke:#a6abb0; stroke-miterlimit:10; stroke-width:.25px;"/><path d="m124.0089,10.6338c.0219.0656.0219.1312.0219.2078,0,1.1592-.8202,2.1107-1.881,2.1763l-9.6566.6671c-.8749.0656-1.7279-.689-1.8591-1.6185-.0109-.1094-.0219-.2078-.0219-.3062,0-.164.0219-.3171.0547-.4703" style="fill:none; stroke:#a6abb0; stroke-miterlimit:10; stroke-width:.25px;"/><path d="m137.1041,21.5814l-9.5272.7272c-.8646.0623-1.6981-.6748-1.8126-1.6032h0c-.1444-1.1701.5876-2.1369,1.6774-2.2155l10.0361-.6711c.8277-.0591,1.5208.6693,1.5073,1.5843h0c-.0169,1.1531-.8378,2.1037-1.881,2.1782Z" style="fill:none; stroke:#a6abb0; stroke-miterlimit:10; stroke-width:.25px;"/><path d="m130.1907,26.5597l-9.3166.7112c-.8455.061-1.6605-.6599-1.7725-1.5677h0c-.1412-1.1442.5747-2.0896,1.6403-2.1665l9.8142-.6562c.8094-.0578,1.4872.6545,1.474,1.5492h0c-.0166,1.1276-.8193,2.0572-1.8394,2.1301Z" style="fill:none; stroke:#a6abb0; stroke-miterlimit:10; stroke-width:.25px;"/><path d="m129.8395,17.1547l-9.2179.6899c-.8366.059-1.6526-.6714-1.7747-1.5884h0c-.1539-1.1558.5434-2.1084,1.5978-2.1827l9.7114-.6329c.8009-.0559,1.4809.6654,1.4789,1.5689h0c-.0025,1.1386-.786,2.0748-1.7954,2.1453Z" style="fill:none; stroke:#a6abb0; stroke-miterlimit:10; stroke-width:.25px;"/><path d="m138.7289,9.7808c-.0328,1.1045-.8093,2.0122-1.7935,2.0779l-9.2191.689c-.8421.0547-1.6513-.6671-1.7716-1.5857-.0109-.1094-.0219-.2297-.0219-.3281,0-.0328,0-.0656.0109-.0984" style="fill:none; stroke:#a6abb0; stroke-miterlimit:10; stroke-width:.25px;"/><path d="m151.2345,20.213l-9.0753.7511c-.8236.0646-1.6186-.6549-1.7289-1.5648h0c-.1391-1.1468.557-2.0977,1.5951-2.1791l9.5602-.6981c.7884-.0613,1.4497.6503,1.4381,1.5475h0c-.0146,1.1308-.7954,2.0662-1.7891,2.1434Z" style="fill:none; stroke:#a6abb0; stroke-miterlimit:10; stroke-width:.25px;"/><path d="m144.6548,25.1224l-8.8747.7345c-.8054.0632-1.5828-.6404-1.6907-1.5302h0c-.136-1.1214.5447-2.0514,1.5598-2.131l9.3489-.6827c.771-.0599,1.4176.6359,1.4063,1.5133h0c-.0143,1.1058-.7778,2.0205-1.7496,2.096Z" style="fill:none; stroke:#a6abb0; stroke-miterlimit:10; stroke-width:.25px;"/><path d="m144.3079,15.9014l-8.7807.7133c-.7969.0612-1.5753-.6517-1.6928-1.5505h0c-.1481-1.1328.5149-2.0696,1.5193-2.1467l9.2509-.6594c.7629-.058,1.4117.6466,1.4109,1.5325h0c-.0009,1.1165-.7461,2.0377-1.7076,2.1108Z" style="fill:none; stroke:#a6abb0; stroke-miterlimit:10; stroke-width:.25px;"/><path d="m152.749,8.8293c-.1094.9952-.8093,1.7826-1.6951,1.8482l-8.7817.7108c-.7874.0656-1.5748-.6452-1.6842-1.542-.0109-.0656-.0109-.1312-.0109-.1859" style="fill:none; stroke:#a6abb0; stroke-miterlimit:10; stroke-width:.25px;"/><path d="m164.6562,18.8452l-8.6235.775c-.7826.0668-1.5391-.635-1.6452-1.5264h0c-.1338-1.1235.5264-2.0586,1.5128-2.1428l9.0843-.7251c.7492-.0634,1.3786.6312,1.3688,1.5107h0c-.0123,1.1085-.753,2.0287-1.6972,2.1086Z" style="fill:none; stroke:#a6abb0; stroke-miterlimit:10; stroke-width:.25px;"/><path d="m158.4102,23.6854l-8.4328.7579c-.7653.0653-1.5051-.621-1.6089-1.4927h0c-.1308-1.0986.5148-2.0131,1.4794-2.0954l8.8835-.7091c.7326-.062,1.3481.6172,1.3385,1.4773h0c-.012,1.084-.7363,1.9838-1.6597,2.062Z" style="fill:none; stroke:#a6abb0; stroke-miterlimit:10; stroke-width:.25px;"/><path d="m158.0676,14.6485l-8.3435.7367c-.7572.0634-1.498-.6321-1.6109-1.5126h0c-.1424-1.1097.4864-2.0308,1.4408-2.1107l8.7905-.6859c.7249-.0601,1.3424.6278,1.343,1.4961h0c.0007,1.0944-.7062,2.0005-1.6198,2.0763Z" style="fill:none; stroke:#a6abb0; stroke-miterlimit:10; stroke-width:.25px;"/><path d="m166.0582,7.7904c-.1312.9186-.7655,1.6404-1.5857,1.706l-8.3442.7437c-.7546.0656-1.4982-.6343-1.6076-1.5201v-.0219" style="fill:none; stroke:#a6abb0; stroke-miterlimit:10; stroke-width:.25px;"/><path d="m177.3162,17.4935l-8.1716.7989c-.7416.0691-1.4596-.6152-1.5615-1.4881h0c-.1285-1.1002.4958-2.0194,1.4305-2.1065l8.6084-.7521c.7099-.0656,1.3075.6121,1.2995,1.4739h0c-.01,1.0862-.7106,1.9912-1.6054,2.0738Z" style="fill:none; stroke:#a6abb0; stroke-miterlimit:10; stroke-width:.25px;"/><path d="m171.404,22.2646l-7.991.7813c-.7252.0675-1.4273-.6016-1.527-1.4552h0c-.1256-1.0759.4849-1.9748,1.3989-2.0599l8.4182-.7355c.6942-.0641,1.2786.5986,1.2708,1.4413h0c-.0098,1.0622-.6949,1.9472-1.5699,2.028Z" style="fill:none; stroke:#a6abb0; stroke-miterlimit:10; stroke-width:.25px;"/><path d="m171.0657,13.4117l-7.9064.7601c-.7176.0656-1.4206-.6125-1.529-1.4747h0c-.1366-1.0867.4579-1.992,1.3623-2.0747l8.33-.7123c.6869-.0623,1.2732.6089,1.2751,1.4598h0c.0023,1.0723-.6663,1.9634-1.5321,2.0419Z" style="fill:none; stroke:#a6abb0; stroke-miterlimit:10; stroke-width:.25px;"/><path d="m178.6347,6.664c-.1312.8968-.7327,1.6076-1.5092,1.6732l-7.8959.7655c-.7108.0656-1.4108-.6015-1.5201-1.4545" style="fill:none; stroke:#a6abb0; stroke-miterlimit:10; stroke-width:.25px;"/><path d="m189.1618,16.1735l-7.7197.8228c-.7006.0713-1.3801-.5953-1.4778-1.4497h0c-.1232-1.0769.4652-1.9803,1.3482-2.0702l8.1326-.7792c.6707-.0677,1.2364.5931,1.2303,1.4371h0c-.0077,1.0638-.6682,1.9537-1.5135,2.039Z" style="fill:none; stroke:#a6abb0; stroke-miterlimit:10; stroke-width:.25px;"/><path d="m183.5832,20.8756l-7.5491.8046c-.6851.0697-1.3496-.5821-1.4452-1.4177h0c-.1204-1.0531.4549-1.9365,1.3184-2.0244l7.9528-.7619c.6559-.0662,1.209.58,1.2031,1.4054h0c-.0075,1.0403-.6534,1.9105-1.48,1.994Z" style="fill:none; stroke:#a6abb0; stroke-miterlimit:10; stroke-width:.25px;"/><path d="m183.2493,12.2067l-7.4692.7835c-.6779.0678-1.3433-.5928-1.4471-1.4367h0c-.1308-1.0636.4294-1.9533,1.2838-2.0387l7.8696-.7388c.649-.0644,1.204.5901,1.2071,1.4234h0c.0039,1.0502-.6263,1.9262-1.4443,2.0074Z" style="fill:none; stroke:#a6abb0; stroke-miterlimit:10; stroke-width:.25px;"/><path d="m190.391,5.472c-.0875.9186-.678,1.6623-1.4217,1.7388l-7.4693.7765c-.678.0766-1.3451-.5905-1.4436-1.4326v-.0328" style="fill:none; stroke:#a6abb0; stroke-miterlimit:10; stroke-width:.25px;"/><path d="m200.1399,14.901l-7.2679.8467c-.6596.0735-1.3006-.5754-1.3941-1.4113h0c-.1179-1.0536.4346-1.9411,1.2659-2.0338l7.6567-.8062c.6314-.0699,1.1653.574,1.161,1.4004h0c-.0054,1.0415-.6258,1.9162-1.4216,2.0043Z" style="fill:none; stroke:#a6abb0; stroke-miterlimit:10; stroke-width:.25px;"/><path d="m194.8951,19.534l-7.1072.828c-.645.0719-1.2719-.5627-1.3633-1.3801h0c-.1152-1.0303.425-1.8982,1.238-1.9889l7.4875-.7884c.6175-.0684,1.1395.5613,1.1353,1.3694h0c-.0053,1.0185-.6119,1.8738-1.3902,1.96Z" style="fill:none; stroke:#a6abb0; stroke-miterlimit:10; stroke-width:.25px;"/><path d="m194.5654,11.0491l-7.032.8069c-.6382.07-1.2659-.5732-1.3652-1.3988h0c-.1251-1.0405.401-1.9145,1.2054-2.0027l7.4091-.7653c.611-.0665,1.1348.5713,1.1392,1.387h0c.0055,1.0281-.5864,1.8891-1.3565,1.9729Z" style="fill:none; stroke:#a6abb0; stroke-miterlimit:10; stroke-width:.25px;"/><path d="m201.3052,4.2143c-.0219.9952-.6124,1.8263-1.3561,1.9138l-7.0319.8093c-.6452.0656-1.2686-.5796-1.367-1.3998-.0109-.0656-.0109-.1312-.0109-.1859" style="fill:none; stroke:#a6abb0; stroke-miterlimit:10; stroke-width:.25px;"/><path d="m210.1977,13.6915l-6.816.8706c-.6186.0758-1.2212-.5555-1.3105-1.373h0c-.1126-1.0303.404-1.902,1.1836-1.9975l7.1808-.8332c.5922-.0721,1.0942.5549,1.0917,1.3636h0c-.0031,1.0192-.5834,1.8787-1.3297,1.9695Z" style="fill:none; stroke:#a6abb0; stroke-miterlimit:10; stroke-width:.25px;"/><path d="m205.2866,18.2554l-6.6653.8514c-.6049.0741-1.1942-.5432-1.2815-1.3426h0c-.1101-1.0075.3951-1.86,1.1575-1.9533l7.0221-.8148c.5791-.0705,1.07.5427,1.0676,1.3334h0c-.003.9967-.5705,1.8371-1.3003,1.9259Z" style="fill:none; stroke:#a6abb0; stroke-miterlimit:10; stroke-width:.25px;"/><path d="m204.9612,9.9545l-6.5948.8303c-.5986.0722-1.1886-.5536-1.2832-1.3609h0c-.1193-1.0175.3725-1.8757,1.1269-1.9667l6.9486-.7917c.573-.0686,1.0656.5525,1.0712,1.3507h0c.0071,1.006-.5465,1.8519-1.2687,1.9384Z" style="fill:none; stroke:#a6abb0; stroke-miterlimit:10; stroke-width:.25px;"/><path d="m211.2461,2.9457c.0109.0656.0219.1422.0219.2187v.0328c0,.9842-.5577,1.8263-1.2686,1.9029l-6.5945.8311c-.6015.0766-1.192-.5468-1.2795-1.3561-.0109-.0984-.0219-.2078-.0219-.3062,0-.0547,0-.1094.0109-.1531" style="fill:none; stroke:#a6abb0; stroke-miterlimit:10; stroke-width:.25px;"/><path d="m219.2823,12.5606l-6.3641.8945c-.5776.078-1.1417-.5356-1.2268-1.3346h0c-.1073-1.007.3734-1.8628,1.1014-1.9612l6.705-.8602c.5529-.0742,1.0231.5359,1.0225,1.3268h0c-.0008.9969-.541,1.8412-1.2379,1.9347Z" style="fill:none; stroke:#a6abb0; stroke-miterlimit:10; stroke-width:.25px;"/><path d="m214.7049,17.0554l-6.2235.8748c-.5648.0763-1.1164-.5238-1.1997-1.3051h0c-.1049-.9847.3651-1.8217,1.077-1.9178l6.5567-.8412c.5407-.0726,1.0005.524.9999,1.2975h0c-.0007.9748-.529,1.8005-1.2105,1.8919Z" style="fill:none; stroke:#a6abb0; stroke-miterlimit:10; stroke-width:.25px;"/><path d="m224.2244,15.7253l-6.2235.8748c-.5648.0763-1.1164-.5238-1.1997-1.3051h0c-.1049-.9847.3651-1.8217,1.077-1.9178l6.5567-.8412c.5407-.0726,1.0005.524.9999,1.2975h0c-.0007.9748-.529,1.8005-1.2105,1.8919Z" style="fill:none; stroke:#a6abb0; stroke-miterlimit:10; stroke-width:.25px;"/><path d="m214.3839,8.9386l-6.1577.8536c-.5589.0744-1.1113-.5339-1.2013-1.3229h0c-.1135-.9944.344-1.837,1.0484-1.9307l6.4882-.8182c.535-.0707.9964.5336,1.0033,1.3143h0c.0088.9839-.5066,1.8148-1.1809,1.9039Z" style="fill:none; stroke:#a6abb0; stroke-miterlimit:10; stroke-width:.25px;"/><path d="m224.2084,7.5981l-6.1577.8536c-.5589.0744-1.1113-.5339-1.2013-1.3229h0c-.1135-.9944.344-1.837,1.0484-1.9307l6.4882-.8182c.535-.0707.9964.5336,1.0033,1.3143h0c.0088.9839-.5066,1.8148-1.1809,1.9039Z" style="fill:none; stroke:#a6abb0; stroke-miterlimit:10; stroke-width:.25px;"/><path d="m219.0782,4.1639l-6.1577.8536c-.5589.0744-1.1113-.5339-1.2013-1.3229h0c-.0284-.2486-.0211-.4877.0169-.708" style="fill:none; stroke:#a6abb0; stroke-miterlimit:10; stroke-width:.25px;"/><g style="clip-path:url(#uuid-9c35919c-d0c8-4350-b936-a8de9c6d0055);"><path d="m-60.0222,160.7942c6.4815,52.1933,93.6632,51.4537,93.6464,3.0702" style="fill:none; stroke:#a6abb0; stroke-miterlimit:10;"/><path d="m62.2569,160.8316l.5842,9.3834c.2143,6.3289,4.0337,12.1194,9.3703,15.3785,13.7633,8.2338,30.5854,5.7336,45.8998,5.6356,75.0452-2.9784,150.4014-6.3095,225.237-12.9122-74.874,7.1084-150.0807,10.4824-225.227,13.2438-15.3545.0568-32.2529,2.5578-46.009-5.8138-5.3423-3.3091-9.163-9.171-9.3317-15.5279,0,0-.5236-9.3874-.5236-9.3874h0Z" style="fill:#a6abb0; stroke-width:0px;"/></g></g><g id="uuid-ef74a492-26d2-4360-a4c8-8e99da25290d"><polygon points="108.6973 37.1175 108.6973 72.3544 92.8849 67.2401 108.6973 87.7513 108.6973 170.6058 213.0049 170.6058 213.0049 37.1175 108.6973 37.1175" style="fill:#f4f4f4; stroke:#30373e; stroke-miterlimit:10; stroke-width:2px;"/><path d="m195.8395,136.1568c-1.2617-3.4991-3.4992-6.8974-6.5273-9.8498-.8495-.8327-1.7664-1.6318-2.7421-2.3805l.2187-1.2617.8075-1.8926c.042-.1008.0589-.2103.0589-.3195v-.5636c0-.2607-.1262-.5131-.3365-.6644-3.8272-2.7086-7.9488-4.046-9.4545-4.4834-.3533-.1009-.7234.0505-.9168.3616l-1.0347,1.7076c-.1261.2019-.2019.4374-.2271.6814-.0168.0589-.0168.1261-.0168.1934v.6393c-6.847-2.0692-13.7023-1.7076-19.01.7738l.4458-3.701c.1934-1.5898-.3953-3.1796-1.5814-4.2563l-16.7893-15.2752-5.274-4.803-8.8237-8.0245v-.0084l-2.8431-2.5824c-.9673-.2355-1.9683-.1094-2.7337.3365.8832,1.2617,1.8842,2.4478,2.9777,3.5329l.1851.1766,1.2028,1.1103,9.1265,8.4619,20.2634,18.783c.4206.3953.6309.9589.5636,1.5225l-.8496,7.3685c-1.6318,1.3962-2.9609,3.0785-3.9197,5.0385-.0084.0168-.0168.042-.0253.0588l-.4374.9842-.7065,1.6149c-2.8095,5.7367-1.7832,12.5667,2.0945,18.5222,2.1029,3.2385,5.0469,6.2161,8.6807,8.6218,1.2197.8159,2.515,1.5562,3.8777,2.2291,12.9285,6.3254,27.3374,3.4487,32.1824-6.4432l1.1692-2.658c2.0524-4.1889,2.0524-8.9584.3953-13.551Z" style="fill:#cfd2d4; stroke-width:0px;"/><path d="m138.7314,95.8638c1.4212.236,2.8844.3566,4.3738.3566,14.8153,0,26.8249-12.0096,26.8249-26.8249s-12.0096-26.8301-26.8249-26.8301-26.8249,12.0148-26.8249,26.8301c0,11.0708,6.7023,20.5736,16.2732,24.6694" style="fill:none; stroke:#30373e; stroke-linecap:round; stroke-linejoin:round; stroke-width:1.5px;"/><path d="m132.8053,44.616l.7657,2.9473c.0839.3251-.0734.6555-.3723.8076-6.7652,3.4088-11.4065,10.4153-11.4065,18.5126,0,10.2108,7.3841,18.6961,17.1071,20.4005,1.4789.6083,1.9771,2.1502,2.0663,4.8458-2.6064,0-5.129-.3723-7.5099-1.0698" style="fill:none; stroke:#30373e; stroke-linecap:round; stroke-linejoin:round; stroke-width:1.5px;"/><path d="m123.4231,85.6006c-.4615-.3986-.9073-.8129-1.3373-1.2429l-.0472-.042c-1.395-1.3898-2.6327-2.9263-3.6973-4.5941" style="fill:none; stroke:#30373e; stroke-linecap:round; stroke-linejoin:round; stroke-width:1.5px;"/><path d="m165.7294,54.9788c1.3268,3.1781,2.061,6.6656,2.061,10.3261,0,9.0948-4.5257,17.1322-11.448,21.9831,0,0-1.682-3.5347-.6588-4.4211,4.8477-4.0007,7.8446-10.1639,7.5137-17.0128-.5132-10.6218-9.1973-19.2363-19.8226-19.6702-.6028-.0246-1.2003-.0235-1.7913.0025-.3522.0154-.6633-.2222-.7297-.5684l-.5574-2.9044" style="fill:none; stroke:#30373e; stroke-linecap:round; stroke-linejoin:round; stroke-width:1.5px;"/><path d="m143.1061,70.8971c-6.3897,4.8488-16.0947,3.2368-20.8018-2.7971,0,.0002-1.1472-1.5989-1.1472-1.5989-.5669-.798.6425-1.6701,1.2189-.8743.0132.0102.9836,1.5663,1.0226,1.6236,4.0892,5.9678,13.2859,7.9394,19.7074,3.6467h0Z" style="fill:#30373e; stroke-width:0px;"/><path d="m143.5045,45.5559c8.7238,6.0657,8.6342,19.6558-.3986,25.3412,8.2969-5.7932,8.151-18.7158-.4526-24.1059-.8374-.5487.0306-1.826.8512-1.2352h0Z" style="fill:#30373e; stroke-width:0px;"/><path d="m143.5667,46.1945c.3094.3304.6031.6765.8758,1.0331,1.9457,2.5225,3.0994,5.6796,3.0994,9.1147,0,8.2546-6.697,14.9464-14.9517,14.9464-3.7182,0-7.1271-1.3583-9.7388-3.6134-.3723-.3147-.729-.6503-1.0594-1.0069" style="fill:none; stroke:#30373e; stroke-linecap:round; stroke-linejoin:round; stroke-width:1.5px;"/><path d="m124.6398,83.0361c-.5664-1.4684-1.6729-2.3023-2.8477-2.5907-.965-.236-1.9666-.1049-2.7323.3409" style="fill:none; stroke:#30373e; stroke-linecap:round; stroke-linejoin:round; stroke-width:1.5px;"/><line x1="127.875" y1="81.5459" x2="162.8917" y2="70.5744" style="fill:none; stroke:#30373e; stroke-linecap:round; stroke-linejoin:round; stroke-width:.5px;"/><path d="m121.7922,80.4457l33.7274,30.6948c1.1856,1.079,1.7765,2.6646,1.5862,4.2563l-.6559,5.4857" style="fill:none; stroke:#30373e; stroke-linecap:round; stroke-linejoin:round; stroke-width:1.5px;"/><path d="m122.04,84.3136l30.7779,28.5383c.4193.3888.6282.9542.5624,1.5222l-.8533,7.3695" style="fill:none; stroke:#30373e; stroke-linecap:round; stroke-linejoin:round; stroke-width:1.5px;"/><path d="m123.7903,83.8725l30.2782,28.075c.7334.6801,1.0988,1.669.9838,2.6625l-.908,7.8418" style="fill:none; stroke:#30373e; stroke-linecap:round; stroke-linejoin:round; stroke-width:.5px;"/><path d="m156.6627,119.0977c5.3005-2.4775,12.1598-2.8392,19.0099-.7716v-.642c0-.3081.0842-.6102.2436-.8739l1.0307-1.7048c.1897-.3138.5632-.4619.9158-.3614,1.5112.4309,5.6262,1.7687,9.4524,4.4806.215.1524.3422.4036.3422.6671v.5584c0,.1095-.0222.2179-.0652.3187l-.8076,1.8924-.2161,1.2627" style="fill:none; stroke:#30373e; stroke-linecap:round; stroke-linejoin:round; stroke-width:1.5px;"/><path d="m168.7816,153.3577c2.4386,1.2744,4.3423,2.2813,4.3528,2.3232.0157.0472-.3566.8968-.7709,1.8145-.5035,1.1275-1.0751,2.3652-1.0751,2.3652-1.6834-.3251-3.3774-.7919-5.066-1.4107-.4877-.1783-.9754-.3723-1.4579-.5769-.6083-.2517-1.2114-.5297-1.8145-.8234-.9702-.4772-1.9089-.9912-2.8057-1.5418-.3094-.1836-.6083-.3723-.9073-.5716-1.395-.9125-2.6956-1.9089-3.8808-2.9788l.3094-.902,1.0279-1.1957,1.6572-1.9247s1.3163.6818,3.1571,1.631" style="fill:none; stroke:#30373e; stroke-linecap:round; stroke-linejoin:round;"/><path d="m167.3499,152.6077c-1.5471-.8076-3.1886-1.6625-4.6413-2.4176" style="fill:none; stroke:#30373e; stroke-linecap:round; stroke-linejoin:round;"/><path d="m156.4807,120.9404c2.8892-1.5441,6.4146-2.3843,10.3185-2.3843,4.4262,0,9.0255,1.1066,13.2997,3.1991,12.1354,5.9419,18.3815,18.1717,13.929,27.2654-2.7323,5.58-9.0046,8.9154-16.7767,8.9154-1.6153,0-3.2515-.1468-4.8877-.4405" style="fill:none; stroke:#30373e; stroke-linecap:round; stroke-linejoin:round; stroke-width:.5px;"/><path d="m156.6933,149.8597c-7.1533-6.4191-10.1268-15.345-6.6761-22.3881.9655-1.9698,2.3706-3.6591,4.1262-5.0208" style="fill:none; stroke:#30373e; stroke-linecap:round; stroke-linejoin:round; stroke-width:.5px;"/><path d="m186.5686,123.9239c8.9864,6.9362,12.929,17.5055,8.8741,25.7872l-1.1686,2.6566c-4.8415,9.8884-19.2512,12.7709-32.1848,6.4383-12.9336-6.3326-19.4936-19.4823-14.6521-29.3706l1.1686-2.6566c.9595-1.9597,2.2949-3.6443,3.9201-5.0365" style="fill:none; stroke:#30373e; stroke-linecap:round; stroke-linejoin:round; stroke-width:1.5px;"/><path d="m176.4794,117.5521c5.3041.7144,9.4825,4.633,9.4825,4.633l-.0665,1.233c.2274.1664.4519.335.6732.5059" style="fill:none; stroke:#30373e; stroke-linecap:round; stroke-linejoin:round; stroke-width:.5px;"/><path d="m162.2209,149.4349c-.2372-.7056-1.0581-1.9369-.1098-2.402.8461-.4585,1.8327-.8607,2.7096-1.2623.0677-.005.8827-1.7032.9523-1.8032-.0212.0562-.0124.1115.021.1601l-.0382-.0471-.2592-.3243c.0483.0485.1028.0712.158.0767.0154.0049.0862-.0052.0573-.001l-.1173.0234c-.297.0593-1.9235.3872-2.2568.4553-.0992.0345-.1922.1116-.2496.2026-.5478.8486-1.1286,1.7738-1.6938,2.6071l.0634-.3582.6245,3.1381c.0268.1349-.0056.2705-.0767.3762l-1.2743,1.8826.0578-.1149-1.0809,3.0591c-.2164.6098-1.1601.289-.9429-.3332-.0001,0,1.08-3.056,1.0799-3.0562.0141-.0405.0353-.0812.058-.1154l1.2743-1.8826-.0766.3759-.6236-3.1338c.0257-.6208.7365-1.424,1.0119-2.0299.2217-.3339.5452-1.0487.8296-1.3276.4143-.4617,1.1045-.5062,1.635-.6237.3067-.0522,1.1056-.232,1.4028-.2851.3253-.097.7403-.039.9924.235.3501.4065.7377.859.5261,1.4216-.2446.5214-.6873,1.242-.962,1.7577-.2041.4433-.5759.6393-1.0191.7824,0,0-.8916.343-.8916.343-.509.175-1.2409.5146-1.6422.5425-.0218.5069-.0308,1.1233-.1393,1.6611h0Z" style="fill:#30373e; stroke-width:0px;"/><polyline points="160.1441 155.5131 160.1441 155.5079 161.2874 153.2738 162.5932 150.7093 162.7086 150.1901 162.8292 149.6394 164.0616 146.6659" style="fill:none; stroke:#30373e; stroke-linecap:round; stroke-linejoin:round;"/><path d="m160.9667,146.8607c1.1199-.7201,2.3706-1.227,3.5779-1.7258.4267-.5058.8005-1.3763,1.2737-1.9337-.2882.7926-.4375,1.6612-.9894,2.3124-1.2298.6202-2.5113,1.032-3.8621,1.3471h0Z" style="fill:#30373e; stroke-width:0px;"/><polyline points="169.4007 149.4791 168.3066 151.7749 167.5329 152.235 164.7307 157.9355" style="fill:none; stroke:#30373e; stroke-linecap:round; stroke-linejoin:round;"/><path d="m165.8099,158.2427l2.8586-5.6917c.0474-.0944.1231-.1655.2115-.2083l1.8609-.899-.2121.2097c.257-.6001.5305-1.192.8046-1.7836.1092-.3185.6235-1.089.4662-1.3852-.1983-.3931-.9333-1.8559-1.1207-2.2236.038.0762.1182.1277.2036.1316-.0827-.0031-.5023-.0007-.5745-.0039.0527-.002.1036-.0297.1348-.0731l-.746,1.6538c-.033.1024-.1453.2309-.0992.3187.2609.9562.589,1.9324.7656,2.9093.0399,1.102-1.4861.9267-2.2449,1.0377.4427-.3549.976-.643,1.4481-.9086.0002-.0131-.009-.0237-.0169-.0274.012.1473-.1785-.3411-.2727-.6078-.1161-.3053-.2211-.6139-.3235-.9233-.1152-.4228-.4451-1.1213-.4602-1.5651-.0063-.4541.4154-1.1601.5592-1.5837.1803-.3703.2209-.6252.4632-1.0136.207-.2819.5597-.4152.9022-.3944.4747-.0328,1.0838.0022,1.3073.505.31.6313.717,1.4641,1.0261,2.0952.303.4875.28,1.2528-.0014,1.6704-.4507.8353-.9274,1.7613-1.3957,2.5817-.0477.0925-.1231.1685-.2124.2101l-1.8609.8992.2112-.208-2.8586,5.6917c-.2689.5315-1.0939.131-.8236-.4137h0Z" style="fill:#30373e; stroke-width:0px;"/><path d="m171.1087,145.8005c-.1922.7528-.5157,1.5392-.7947,2.2388-.0183.0902-.0226.1583.0103.2671.3008,1.1631.5422,2.3374.6171,3.5522-.4939-1.1124-.8214-2.2657-1.0912-3.4363-.0409-.1472-.0491-.3564.0123-.5211.3748-.7696.7591-1.4102,1.2462-2.1007h0Z" style="fill:#30373e; stroke-width:0px;"/><line x1="185.9619" y1="122.1851" x2="187.1743" y2="119.7604" style="fill:none; stroke:#30373e; stroke-linecap:round; stroke-linejoin:round; stroke-width:.5px;"/><line x1="154.1443" y1="122.4519" x2="152.527" y2="121.7437" style="fill:none; stroke:#30373e; stroke-linecap:round; stroke-linejoin:round; stroke-width:.5px;"/><line x1="174.7262" y1="120.8825" x2="160.1441" y2="147.2959" style="fill:none; stroke:#30373e; stroke-linecap:round; stroke-linejoin:round; stroke-width:.5px;"/><line x1="179.2495" y1="122.4507" x2="165.0292" y2="149.4791" style="fill:none; stroke:#30373e; stroke-linecap:round; stroke-linejoin:round; stroke-width:.5px;"/><line x1="182.9812" y1="124.4534" x2="172.4038" y2="145.8005" style="fill:none; stroke:#30373e; stroke-linecap:round; stroke-linejoin:round; stroke-width:.5px;"/><path d="m171.599,158.9597c10.2858,1.9805,20.0313-1.4619,23.8437-9.2485" style="fill:none; stroke:#30373e; stroke-linecap:round; stroke-linejoin:round; stroke-width:.5px;"/><path d="m155.665,151.0555c-7.6851-6.8965-10.8298-16.5756-7.0592-24.2767" style="fill:none; stroke:#30373e; stroke-linecap:round; stroke-linejoin:round; stroke-width:.5px;"/><path d="m146.7399,131.9497c-10.7586,2.4921-25.8803,6.1661-36.5574,8.3076,10.5552-2.4112,25.6793-6.5119,36.313-9.2773.6352-.1687.8964.8124.2444.9697h0Z" style="fill:#30373e; stroke-width:0px;"/><path d="m145.9685,139.4014c-11.6217,2.7766-23.3212,5.1376-35.0362,7.4594,11.6311-2.6447,23.2698-5.3337,34.7861-8.4276.6341-.1719.9003.8067.2501.9682h0Z" style="fill:#30373e; stroke-width:0px;"/><path d="m158.353,157.0652c-15.7392,4.0703-31.5768,7.6717-47.4207,11.2879,15.7525-3.9371,31.5256-7.866,47.1556-12.2521.6266-.1789.9124.791.2651.9642h0Z" style="fill:#30373e; stroke-width:0px;"/><path d="m149.6986,148.1766l-37.9968,9.7594,37.8684-10.2427c.3096-.0895.4494.4053.1284.4833h0Z" style="fill:#30373e; stroke-width:0px;"/><path d="m187.5292,119.4086l22.8626-5.7802-22.6065,6.7468c-.6451.187-.9134-.8079-.2561-.9667h0Z" style="fill:#30373e; stroke-width:0px;"/><path d="m189.1855,125.8244l20.9979-5.2739-20.7458,6.2416c-.6493.189-.9147-.8141-.2521-.9677h0Z" style="fill:#30373e; stroke-width:0px;"/><path d="m196.3615,146.3803l13.7426-3.4528-13.4653,4.4136c-.6438.2049-.9343-.7897-.2773-.9608h0Z" style="fill:#30373e; stroke-width:0px;"/><path d="m195.7724,135.9139l14.411-3.6516-14.2803,4.1343c-.3141.0954-.4529-.4057-.1307-.4827h0Z" style="fill:#30373e; stroke-width:0px;"/><path d="m138.7843,58.5353c15.5368,3.9295,38.835,19.9607,40.7137,49.3157" style="fill:none; stroke:#f4f4f4; stroke-miterlimit:10; stroke-width:8px;"/><path d="m138.7843,58.5353c14.2305,3.5992,34.9722,17.3506,39.8029,42.1934" style="fill:none; stroke:#f4ae3d; stroke-miterlimit:10; stroke-width:5px;"/><polygon points="173.3215 100.0228 179.498 107.8509 183.1904 98.5884 173.3215 100.0228" style="fill:#f4ae3d; stroke-width:0px;"/></g></svg>