<?xml version="1.0" encoding="UTF-8"?><svg xmlns="http://www.w3.org/2000/svg" width="218" height="142.8661" xmlns:xlink="http://www.w3.org/1999/xlink" viewBox="0 0 218 142.8661"><defs><clipPath id="uuid-0c8cc0e4-c45a-493b-8547-5ad2694aa424"><rect x="2.6398" y="220.2518" width="212.7502" height="133.6899" style="fill:none; stroke-width:0px;"/></clipPath><clipPath id="uuid-c3c8f5d3-6533-4080-9e5e-25df7453885c"><rect x="2.6398" y="1.7723" width="212.7502" height="133.6899" style="fill:none; stroke-width:0px;"/></clipPath></defs><g id="uuid-1250cd0f-45d1-4323-8284-5bc4ff39ee60"><g style="clip-path:url(#uuid-0c8cc0e4-c45a-493b-8547-5ad2694aa424);"><path d="m-155.6102,170.0952c31.5361,3.2011,78.3742,4.9554,127.6337,2.0966,0,0,1.0995-7.6968,10.3357-8.7963s190.9836-1.719,331.5242-22.6386" style="fill:none; stroke:#a6abb0; stroke-miterlimit:10;"/><path d="m-86.3536,96.9336c6.4815,52.1933,93.6632,51.4537,93.6464,3.0702" style="fill:none; stroke:#a6abb0; stroke-miterlimit:10;"/><path d="m-149.091,140.7568c98.9961,5.9157,198.2979,7.4305,297.377,2.7117,54.4382-2.9405,108.9158-7.0192,163.1956-12.0066,3.8521-.4581,10.882-1.0075,14.7494-1.8725-4.0586.8854-10.5204,1.404-14.7465,1.9034-54.2704,5.1021-108.7458,9.2962-163.1799,12.3518-99.082,4.9895-198.4069,2.9501-297.3956-3.0878h0Z" style="fill:#a6abb0; stroke-width:0px;"/><path d="m35.9255,96.971l.5842,9.3834c.2143,6.3288,4.0337,12.1195,9.3704,15.3785,13.7632,8.2338,30.5853,5.7336,45.8997,5.6356,75.0452-2.9784,150.4015-6.3095,225.2371-12.9122-74.8739,7.1084-150.0807,10.4824-225.2271,13.2438-15.3546.0568-32.2529,2.5578-46.009-5.8138-5.3422-3.3091-9.1629-9.171-9.3317-15.5279,0,0-.5236-9.3874-.5236-9.3874h0Z" style="fill:#a6abb0; stroke-width:0px;"/></g><g style="clip-path:url(#uuid-c3c8f5d3-6533-4080-9e5e-25df7453885c);"><path d="m-129.2789,147.1943s41.3196-4.3982,50.1159-9.676c8.7963-5.2778,16.2732-11.6552,16.2732-11.6552l29.2478-1.5394s14.514,1.7593,28.808,0c14.2941-1.7593,66.6323-8.7963,69.0513-10.1158,2.419-1.3195,24.8497-16.0533,27.7085-16.713s195.3737-33.7745,248.2889-53.9047" style="fill:none; stroke:#a6abb0; stroke-miterlimit:10; stroke-width:1.5px;"/><path d="m-129.2789,58.5712c32.5232,13.8542,57.3729,24.4098,85.0814,23.97,27.7085-.4398,29.9076-.6597,37.3845-1.3195s94.9561-8.3409,106.8755-10.6589c18.6922-3.6351,31.8867-16.3898,42.6623-18.1491,10.7755-1.7593,135.6938-18.4938,197.49-35.8385" style="fill:none; stroke:#a6abb0; stroke-miterlimit:10;"/><path d="m-129.2789-10.0403S-93.457,1.175-.6556,1.6148h15.1737s7.4769,3.7384,22.6506,2.419c15.1737-1.3195,232.7637-17.6768,306.1796-35.6356" style="fill:none; stroke:#a6abb0; stroke-miterlimit:10;"/><path d="m-130.8415,4.3159c31.0071,7.1949,56.5165,12.4727,90.3824,12.2528s191.8042-6.7259,380.6738-38.8947" style="fill:none; stroke:#a6abb0; stroke-miterlimit:10; stroke-width:.5px;"/><path d="m-130.8415,65.3883c34.4157,13.8542,54.2075,20.8913,79.4969,21.7709,25.2895.8796,43.1021-.2199,60.035-1.5394,16.933-1.3195,158.2322-13.7481,331.5242-53.6735" style="fill:none; stroke:#a6abb0; stroke-miterlimit:10; stroke-width:.5px;"/><path d="m-129.2789,74.4046c43.1888,14.7339,53.3046,18.4723,81.8927,18.9121s55.6369-.4673,102.0376-5.8413c46.4007-5.374,193.572-25.1364,285.5634-50.4553" style="fill:none; stroke:#a6abb0; stroke-miterlimit:10; stroke-width:.5px;"/><path d="m-9.7818,124.3238c14.9538-9.4561,20.4906-22.1491,25.0891-32.9554v-6.2154" style="fill:none; stroke:#a6abb0; stroke-miterlimit:10; stroke-width:.5px;"/><path d="m14.5181,1.6148S-.5457-4.9824-1.6452-11.7996" style="fill:none; stroke:#a6abb0; stroke-miterlimit:10;"/><path d="m101.9683,75.1578c10.831-1.4775,14.9951-2.7658,24.0977-9.9409s11.54-12.0831,25.2791-14.0755" style="fill:none; stroke:#a6abb0; stroke-miterlimit:10; stroke-width:.5px;"/><ellipse cx="150.4181" cy="25.6323" rx="7.6229" ry="6.8815" transform="translate(35.9912 126.5734) rotate(-51.0877)" style="fill:none; stroke:#a6abb0; stroke-miterlimit:10; stroke-width:.5px;"/><ellipse cx="150.4181" cy="25.6323" rx="3.9127" ry="3.5321" transform="translate(35.9912 126.5734) rotate(-51.0877)" style="fill:none; stroke:#a6abb0; stroke-miterlimit:10; stroke-width:.5px;"/><path d="m63.8813,97.5899c.9022-1.8029,1.4003-3.9511,1.4279-6.2432.0095-.6447-.0194-1.3032-.0901-1.9661l.5771-.3856,1.0448-.3902c.0553-.0212.1046-.0555.1475-.0963l.2213-.2106c.1024-.0974.1543-.2413.1351-.3804-.3668-2.5147-1.3819-4.6325-1.7728-5.3871-.0924-.1764-.2901-.2651-.4846-.2248l-1.057.2319c-.1264.0259-.2472.0842-.3524.1655-.0294.0154-.0558.0405-.0822.0657l-.251.2389c-1.7462-3.4613-4.4499-6.0175-7.4074-7.174l1.6196-1.208c.6964-.5181,1.1006-1.3433,1.0801-2.2113l-.2768-12.2994-.0851-3.8653-.1468-6.4627.0033-.0031-.0486-2.0812c-.269-.4678-2.4672-.6393-2.9282-.7732-.1653.8182,1.1584,1.3256,1.141,2.1604l.3591.2932.0136.8871.0883,6.745.1979,14.974c.002.3128-.1407.606-.3871.7902l-3.2103,2.4199c-1.1579-.1189-2.315-.012-3.4428.3439-.0098.003-.0228.0091-.0325.0121l-.5498.196-.898.3261c-3.302,1.0407-5.6,3.9958-6.489,7.7436-.4856,2.0357-.5545,4.3042-.1411,6.6297.1355.7837.3289,1.5689.5739,2.3553,2.3478,7.4393,8.8614,12.0212,14.5554,10.2269l1.4804-.5342c2.4115-.7595,4.2839-2.5418,5.4678-4.9085Z" style="fill:#f4f4f4; stroke-width:0px;"/><path d="m61.9947,54.3737c2.5435,1.1682,4.9117,1.1682,5.719,1.1682,8.0299,0,14.5391-6.5092,14.5391-14.5391s-6.5092-14.5419-14.5391-14.5419-14.5391,6.512-14.5391,14.5419c0,6.0004,3.6326,11.1509,8.8201,13.3708" style="fill:none; stroke:#30373e; stroke-linecap:round; stroke-linejoin:round;"/><path d="m62.1312,27.5723l.415,1.5974c.0455.1762-.0398.3553-.2018.4377-3.6667,1.8476-6.1823,5.6451-6.1823,10.0338,0,5.5342,4.0022,10.1333,9.272,11.0571.8016.3297,1.0716,1.1654,1.1199,2.6264-1.4127,0-3.6811,0-8.1006-2.6242" style="fill:none; stroke:#30373e; stroke-linecap:round; stroke-linejoin:round; stroke-width:.5px;"/><path d="m57.046,49.786c-.2501-.216-.4917-.4406-.7248-.6737l-.0256-.0227c-.7561-.7532-1.4269-1.5861-2.0039-2.49" style="fill:none; stroke:#30373e; stroke-linecap:round; stroke-linejoin:round; stroke-width:.5px;"/><path d="m79.976,33.189c.7191,1.7225,1.1171,3.6127,1.1171,5.5968,0,4.9294-2.4529,9.2856-6.2048,11.9149,0,0-.9117-1.9158-.357-2.3962,2.6275-2.1684,4.2518-5.5088,4.0724-9.2209-.2781-5.757-4.9849-10.4261-10.7439-10.6612-.3267-.0133-.6505-.0127-.9709.0013-.1909.0084-.3595-.1204-.3955-.3081l-.3021-1.5742" style="fill:none; stroke:#30373e; stroke-linecap:round; stroke-linejoin:round; stroke-width:.5px;"/><path d="m67.7142,41.8166c-3.7505,2.7869-9.4683,1.4786-11.7605-2.4605-.2011-.29.2797-.5674.4338-.2484,2.0472,3.8682,7.611,5.287,11.3267,2.7088h0Z" style="fill:#30373e; stroke-width:0px;"/><path d="m67.8413,28.2106c4.7045,3.1361,4.6647,10.6095-.1273,13.606,4.5613-3.0233,4.4836-10.3192-.1566-13.1942-.2755-.1768.0172-.6081.2839-.4118h0Z" style="fill:#30373e; stroke-width:0px;"/><path d="m67.9638,28.4279c.1677.1791.3269.3667.4747.56,1.0545,1.3672,1.6799,3.0784,1.6799,4.9402,0,4.474-3.6298,8.1009-8.1038,8.1009-2.0153,0-3.8629-.7362-5.2784-1.9584-.2018-.1705-.3951-.3525-.5742-.5457" style="fill:none; stroke:#30373e; stroke-linecap:round; stroke-linejoin:round; stroke-width:.5px;"/><path d="m62.0199,41.5348c-1.8242,0-3.583-.6558-4.9526-1.8472-.1406-.1143-.2749-.2354-.4023-.3623.1187-3.9341,2.3701-7.4756,5.9141-9.2773.3662-.1694.5669-.6089.4507-1.0146l-.3057-1.1611c.9893-.3774,2.0176-.6401,3.0674-.7837l.2188,1.1196c.0845.4209.4375.7129.8594.7129.1982-.0073.3516-.0103.5068-.0103.1191,0,.2393.002.3608.0054.1084.1177.2114.2407.3086.3701,1.0308,1.3462,1.5742,2.9482,1.5742,4.6362,0,4.1973-3.4092,7.6123-7.6001,7.6123Z" style="fill:#f4ae3d; stroke-width:0px;"/><path d="m65.3928,27.6562l.1274.6526c.129.6445.6967,1.1123,1.3499,1.1123l.0439-.0007.0192-.0007c.1473-.0057.2945-.0085.4431-.0085.0432,0,.0864.0002.1309.0007.0491.0587.0972.1196.1446.1827.9604,1.2542,1.4681,2.7509,1.4681,4.3282,0,3.9216-3.1849,7.1121-7.0998,7.1121-1.7037,0-3.3461-.6123-4.6503-1.7456-.0648-.0526-.1306-.1095-.1962-.1694.1891-3.6624,2.3171-6.9408,5.5978-8.6099.6047-.2791.9225-.9727.7449-1.5936l-.1923-.7297c.6744-.2317,1.3659-.4089,2.0688-.5304m.8002-1.1193c-1.4279.1477-2.7943.5046-4.0622,1.0339v.0123l.4185,1.588c.0493.1724-.0369.3569-.197.4308-3.6313,1.8466-6.1426,5.5764-6.1918,9.9218.1847.1969.3817.3816.5786.5416,1.4156,1.231,3.2621,1.9695,5.2809,1.9695,4.4684,0,8.0998-3.6313,8.0998-8.1121,0-1.8588-.6277-3.5698-1.6741-4.9363-.1477-.1969-.3077-.3816-.48-.554-.0369-.0122-.0616-.0122-.0985-.0122-.1662-.0062-.3293-.0093-.4908-.0093s-.3216.0031-.4816.0093c-.0082.0005-.0164.0007-.0246.0007-.1855,0-.3339-.1317-.3693-.3085l-.3078-1.5757h0Z" style="fill:#30373e; stroke-width:0px;"/><path d="m58.103,48.5871c-.307-.7959-1.3043-1.439-1.941-1.5953-.523-.1279-1.0659-.0568-1.4809.1848" style="fill:none; stroke:#30373e; stroke-linecap:round; stroke-linejoin:round; stroke-width:.75px;"/><line x1="59.4589" y1="47.5883" x2="78.438" y2="41.6418" style="fill:none; stroke:#30373e; stroke-linecap:round; stroke-linejoin:round; stroke-width:.5px;"/><path d="m58.103,48.5871l.5328,23.8254c.0194.8687-.3823,1.6931-1.0783,2.2132l-2.3987,1.7924" style="fill:none; stroke:#30373e; stroke-linecap:round; stroke-linejoin:round;"/><path d="m56.6573,49.2441l.2971,22.7473c.004.3099-.1399.6032-.3874.7896l-3.2121,2.4188" style="fill:none; stroke:#30373e; stroke-linecap:round; stroke-linejoin:round;"/><path d="m57.4846,49.7665l.2922,22.378c.0071.5421-.2446,1.055-.6777,1.3812l-3.418,2.5738" style="fill:none; stroke:#30373e; stroke-linecap:round; stroke-linejoin:round; stroke-width:.5px;"/><path d="m55.9391,75.8348c2.9533,1.1551,5.6585,3.7129,7.4065,7.1748l.252-.2399c.1209-.1151.2711-.195.4341-.2309l1.0544-.2324c.1941-.0428.3918.0485.4841.2245.3955.7543,1.408,2.8697,1.7731,5.3852.0205.1414-.0305.2852-.134.3837l-.2192.2087c-.043.0409-.0938.0727-.1495.0935l-1.0447.3901-.5765.387" style="fill:none; stroke:#30373e; stroke-linecap:round; stroke-linejoin:round;"/><path d="m47.0174,93.3947c.4109,1.4336.727,2.5572.7145,2.577-.0127.0238-.4853.1951-1.0005.3754-.6308.2237-1.3303.4617-1.3303.4617-.5014-.7824-.9512-1.6218-1.3392-2.5161-.1122-.2581-.2183-.5221-.3183-.7879-.1285-.3329-.2447-.6735-.3548-1.02-.1752-.5592-.3242-1.1198-.4431-1.6777-.0436-.1901-.0811-.378-.1146-.5698-.163-.8887-.2578-1.7716-.2807-2.6367l.4698-.2156.8535-.0433,1.3749-.0686s.2242.7715.5394,1.8489" style="fill:none; stroke:#30373e; stroke-linecap:round; stroke-linejoin:round; stroke-width:.5px;"/><path d="m46.7768,92.5524c-.261-.9092-.5388-1.873-.7852-2.7255" style="fill:none; stroke:#30373e; stroke-linecap:round; stroke-linejoin:round; stroke-width:.5px;"/><path d="m55.1476,76.4519c1.6858.5573,3.3331,1.6274,4.7918,3.16,1.654,1.7377,2.9382,3.9569,3.7139,6.4168,2.202,6.9846-.2653,14.0068-5.4992,15.6569-3.2117,1.0124-6.8649-.2036-9.7692-3.2549-.6036-.6341-1.1574-1.3314-1.6535-2.0835" style="fill:none; stroke:#30373e; stroke-linecap:round; stroke-linejoin:round; stroke-width:.5px;"/><path d="m43.8736,87.3418c-.1529-5.207,2.2402-9.7098,6.2947-10.9869,1.1341-.357,2.3224-.4366,3.513-.2562" style="fill:none; stroke:#30373e; stroke-linecap:round; stroke-linejoin:round; stroke-width:.5px;"/><path d="m65.2195,89.3791c.6349,6.1199-2.0413,11.6172-6.8078,13.12l-1.4796.534c-5.6913,1.7943-12.2075-2.7857-14.5544-10.2297-2.3469-7.444.3643-14.9331,6.0556-16.7274l1.4796-.534c1.1279-.3556,2.2883-.4608,3.4421-.343" style="fill:none; stroke:#30373e; stroke-linecap:round; stroke-linejoin:round;"/><path d="m63.9509,83.0371c1.7016,2.3493,1.7245,5.454,1.7245,5.454l-.5089.4346c.0197.1515.0373.3026.053.4533" style="fill:none; stroke:#30373e; stroke-linecap:round; stroke-linejoin:round; stroke-width:.5px;"/><path d="m46.1059,89.3532c.0991-.2392.2336-.4811.3634-.7031.0247-.0464.1134-.215.2941-.2465.2023-.035.4166.1012.6024.1561.2393.0954.7204.2933.9575.3942.1776.0556.1526.1128.3162.0587,0,0,.9525-.2839.9525-.2839-.0214-.0096-.0452.069-.038.0188l.0305-.2322c-.0018.0402.0161.0772.0432.0964-.0325-.0178-.2278-.1638-.2649-.1863,0,0-.8146-.5697-.8146-.5697-.1282-.0904-.6457.081-.8172.0958,0,0-1.0179.1895-1.0179.1895-.0495.0181.1487-.0996.1398-.0983-.0828.0674-1.0313,1.5944-1.1612,1.5197,0,0-1.2152.2031-1.2152.2031.2858-.1056-1.5986.7184-1.5434.7001-.2914.136-.5043-.3275-.2043-.4563-.0002-.0002,1.6033-.718,1.6034-.7181.0195-.0088.0416-.0153.0618-.0188l1.2151-.2031-.1625.1017c.0747-.0612,1.0386-1.5901,1.149-1.5165.3398-.0805,1.1905-.2972,1.5206-.3716.6497-.2431,1.2928.5145,1.7979.8043.2909.1606.2898.4528.2218.7444.0002.1229-.13.3683-.3123.4265-.3126.0487-1.1163.3778-1.4337.2872-.3947-.1583-.8344-.385-1.2124-.5628-.0812-.0478-.3-.1433-.3592-.1985-.048-.0226-.4896.4473-.7124.5692h0Z" style="fill:#30373e; stroke-width:0px;"/><polyline points="42.9436 90.8091 42.9456 90.8072 44.2499 90.4212 45.7447 89.9756 45.9916 89.8268 46.2529 89.6684 47.8808 89.0411" style="fill:none; stroke:#30373e; stroke-linecap:round; stroke-linejoin:round; stroke-width:.5px;"/><path d="m46.6478,87.8989c.7365.0788,1.3919.3387,2.0325.6528.3026-.0092.8423-.1536,1.2171-.1156-.4158.2558-.7969.5616-1.2954.5824-.7343-.2417-1.3584-.5987-1.9541-1.1197h0Z" style="fill:#30373e; stroke-width:0px;"/><polyline points="48.7715 92.1884 47.4613 92.6168 46.9915 92.485 43.7065 93.515" style="fill:none; stroke:#30373e; stroke-linecap:round; stroke-linejoin:round; stroke-width:.5px;"/><path d="m43.9948,94.072l3.3026-1.0045c.0506-.0154.1025-.0125.1484.0048l1.0483.3947-.149-.0045,1.0018-.3477c.163-.0794.6685-.1555.7329-.3453.0759-.2267.3849-1.0611.4561-1.2736-.0128.0351-.0049.0763.0197.1046-.0296-.0341-.1876-.1991-.2133-.229.0149.0134.0376.0207.0576.017l-.9357.3234c-.2305.0934-.0903-.014-.2424.2101-.2076.3581-.4534.7943-.6809,1.1371-.0486.1319-.3286.3765-.5648.2426-.1162-.0561-.2459-.1728-.3479-.2384-.4695-.3458-.4507-.393.1111-.2208.0454.0034.3888.1498.3776.1008.1231-.3245.5968-1.2581.836-1.5669.1732-.1662.6065-.2644.8213-.365.2058-.0665.3305-.1493.5638-.1981.286-.0496.4883.2151.6627.3969.2193.226.0754.5465-.0235.7926-.211.4642-.3409,1.3863-.9623,1.479-.3275.097-1.2019.3289-1.5419.4231-.0652.0691-1.1045-.3875-1.1896-.4012,0,0,.148.0047.148.0047l-3.3026,1.0046c-.2818.09-.4235-.3573-.1341-.4409h0Z" style="fill:#30373e; stroke-width:0px;"/><path d="m50.8539,91.4844c-.332.2599-.7693.4607-1.1275.6212-.0423.0261-.1351.206-.1674.2531-.3194.4814-.6692.9434-1.1459,1.3237.147-.5919.421-1.1025.7253-1.5935.1028-.1433.1925-.3311.3767-.4054.4752-.1381.8508-.195,1.3388-.1991h0Z" style="fill:#30373e; stroke-width:0px;"/><line x1="65.6754" y1="88.4911" x2="67.0804" y2="88.061" style="fill:none; stroke:#30373e; stroke-linecap:round; stroke-linejoin:round; stroke-width:.5px;"/><line x1="53.6812" y1="76.0994" x2="53.3549" y2="75.1999" style="fill:none; stroke:#30373e; stroke-linecap:round; stroke-linejoin:round; stroke-width:.5px;"/><line x1="61.9883" y1="83.5933" x2="46.1696" y2="87.7386" style="fill:none; stroke:#30373e; stroke-linecap:round; stroke-linejoin:round; stroke-width:.5px;"/><line x1="63.0629" y1="85.9551" x2="47.1379" y2="90.4722" style="fill:none; stroke:#30373e; stroke-linecap:round; stroke-linejoin:round; stroke-width:.5px;"/><line x1="63.6711" y1="88.1685" x2="51.3378" y2="91.9928" style="fill:none; stroke:#30373e; stroke-linecap:round; stroke-linejoin:round; stroke-width:.5px;"/><path d="m45.8709,96.5941c3.066,4.7782,8.0592,7.3178,12.5408,5.9049" style="fill:none; stroke:#30373e; stroke-linecap:round; stroke-linejoin:round; stroke-width:.5px;"/><path d="m43.0199,87.385c-.1642-5.5942,2.4606-10.4456,6.893-11.843" style="fill:none; stroke:#30373e; stroke-linecap:round; stroke-linejoin:round; stroke-width:.5px;"/></g><path d="m171.9659,58.7114c-1.8711-.8-7.4352-3.0528-9.934-3.9884-2.4989-.9356-5.6871-1.157-5.6871-1.157,0,0-1.0094-.2092-4.1607-.0863-.5047.0123-1.0464.0493-1.6619.0863-3.4221.2093-6.3272.8863-10.9434,6.4873l-18.3538-7.632c-.2216-.0986-.4431-.1725-.677-.2216-.4924-.6032-1.1079-1.0709-1.8096-1.391-.16-.0739-.32-.1354-.4923-.1968l-18.8339-7.7306c-.6525-.2954-1.3541-.4186-2.0681-.3817v-.0123l-2.6712-1.1078-2.0188-.8371-2.5235-1.0586-3.0282-1.2556-2.9297-1.2187-1.2926-.5416c-6.8811-3.2499-13.8115,11.448-6.9303,14.6978,0,0,.7878.3694,2.1542,1.0217.677.3324,1.5141.7262,2.4742,1.1818.7386.3569,1.5634.7507,2.4497,1.1694.7754.3694,1.6003.7755,2.4742,1.1817.7878.3817,1.6126.7755,2.462,1.194.5663.2585,1.1448.5417,1.7357.8248.517.8864,1.2555,1.5879,2.1665,1.9942l18.3785,8.9492c.1354.0739.2708.1354.4062.1968.9356.4186,1.9696.5172,3.0036.3201,8.1245,3.8778,14.9441,7.1521,15.8304,7.5707,2.6342,1.2678,5.4778,3.8159,7.5951,9.8478,2.8805,8.5676,8.1491,12.0512,9.7124,12.9867,1.5756.9232,10.3402,5.2563,12.1866,5.9825.9232.3694,4.5054,1.8465,8.703,1.945,6.3272.1599,14.0332-2.856,16.0397-17.7139,3.2744-24.2995-9.8971-30.2942-11.7558-31.1068Zm-.357,29.1251c-.3816,2.9296-1.5141,5.9947-3.3113,7.9274-4.7762-2.3389-8.3091-3.9391-10.4018-5.0716-2.4373-1.3294-8.5676-6.7581-7.4597-18.1201.4432-4.456,1.6988-7.0042,3.1883-8.4197l.0123-.0493c3.4221,1.2556,8.8261,3.2743,12.1866,4.776,6.5365,2.9176,6.3888,14.4025,5.7856,18.9572Z" style="fill:#cfd2d4; stroke-width:0px;"/><path d="m89.6979,57.7382c-7.8696-3.762-13.7526-6.5739-13.7526-6.5739-6.8791-3.2459.0564-17.9436,6.9355-14.6977l14.4593,6.0152" style="fill:none; stroke:#30373e; stroke-miterlimit:10;"/><path d="m78.1764,52.0342c-6.8791-3.2459.0564-17.9436,6.9355-14.6977" style="fill:none; stroke:#30373e; stroke-miterlimit:10; stroke-width:.5px;"/><path d="m80.636,53.2297c-6.9185-3.2644.0567-18.0463,6.9752-14.7818" style="fill:none; stroke:#30373e; stroke-miterlimit:10; stroke-width:.5px;"/><path d="m83.0956,54.4253c-6.9579-3.283.057-18.149,7.0149-14.866" style="fill:none; stroke:#30373e; stroke-miterlimit:10; stroke-width:.5px;"/><path d="m85.5552,55.6208c-6.9973-3.3016.0573-18.2517,7.0546-14.9501" style="fill:none; stroke:#30373e; stroke-miterlimit:10; stroke-width:.5px;"/><path d="m88.0147,56.8164c-7.0366-3.3202.0576-18.3544,7.0943-15.0342" style="fill:none; stroke:#30373e; stroke-miterlimit:10; stroke-width:.5px;"/><path d="m121.2298,52.4201l18.3458,7.632c4.6245-5.5981,7.5279-6.2759,10.9528-6.4905,4.4602-.2795,5.8181,0,5.8181,0,0,0,3.1826.2297,5.6863,1.1633,2.5037.9336,8.0627,3.1826,9.9299,3.9889,1.8672.8063,15.032,6.8041,11.7546,31.1051-3.3302,24.6923-22.4143,16.6742-24.7398,15.7647-1.8389-.7192-10.6088-5.0498-12.1789-5.9834-1.5701-.9336-6.8321-4.4133-9.7177-12.9852-2.1218-6.0258-4.9649-8.5719-7.5959-9.845-.9696-.4692-9.1769-4.3926-18.3778-8.7922-1.0595-.5066-1.6799-1.6319-1.5417-2.7982l1.1688-9.8661c.1452-1.2257,1.0914-2.2033,2.3117-2.3885l5.4966-.8341c.909-.1379,1.8384-.0242,2.6873.329Z" style="fill:none; stroke:#30373e; stroke-miterlimit:10;"/><path d="m120.5479,52.1996c-.4924-.6032-1.1079-1.071-1.8095-1.391l-19.3263-7.9275c-3.2129-1.4402-7.509,1.1571-9.6016,5.8225-2.0804,4.6531-1.1571,9.5893,2.0557,11.0296l18.7847,9.1462c.9355.4185,1.9696.517,3.0036.3201" style="fill:none; stroke:#30373e; stroke-miterlimit:10;"/><path d="m118.7444,50.8083c-3.4495-1.5448-8.0572,1.2476-10.2916,6.237-2.2344,4.9894-1.2494,10.2864,2.2,11.8312" style="fill:none; stroke:#30373e; stroke-miterlimit:10; stroke-width:.5px;"/><path d="m139.9345,60.4002c-1.7923,1.3645-4.0665,1.698-6.2342,1.6924,1.0473-.148,2.0724-.41,3.0306-.797.8835-.3668,1.8657-.9099,2.4858-1.5915,0,0,.7179.6962.7179.6962h0Z" style="fill:#30373e; stroke-width:0px;"/><path d="m113.4886,54.2637c6.0608,2.0931,11.9995,4.4962,17.8068,7.2148-6.0618-2.0903-11.9984-4.4988-17.8068-7.2148h0Z" style="fill:#30373e; stroke-width:0px;"/><path d="m143.2851,85.3939c-3.5291-5.4692-4.3303-17.9077,1.2922-22.2791.0002,0,.5593.8292.5593.8292-5.3751,3.9036-5.0356,16.1232-1.8514,21.45h0Z" style="fill:#30373e; stroke-width:0px;"/><path d="m165.4909,98.0651c-2.3461.5803-4.4852-.7252-6.4337-1.7314,0,0-5.794-2.9669-5.794-2.9669l-2.8952-1.4825-1.4472-.7411c-2.4644-1.1876-4.3151-3.4217-5.6358-5.7494,1.4193,2.2818,3.2981,4.3877,5.7842,5.4744,0,0,1.4752.6852,1.4752.6852,1.8701.8685,6.9106,3.2097,8.8449,4.1082,1.8623.8501,3.8061,2.0163,5.8626,1.4325,0,0,.239.9711.239.9711h0Z" style="fill:#30373e; stroke-width:0px;"/><path d="m144.857,63.5294c2.1349-1.4395,4.5115-.9628,5.5768-.5656,0,0,10.1731,3.5755,15.3946,5.9127,6.5358,2.9255,6.3854,14.3999,5.7817,18.9554-.5681,4.2869-2.7137,8.8801-6.2386,9.7477" style="fill:none; stroke:#30373e; stroke-miterlimit:10;"/><path d="m153.6243,64.1524c-1.4895,1.4156-2.7451,3.9637-3.1882,8.4199-1.1079,11.3619,5.0224,16.7905,7.4597,18.12,2.0927,1.1325,5.6256,2.7328,10.4018,5.0716" style="fill:none; stroke:#30373e; stroke-miterlimit:10;"/><path d="m167.0598,106.2953c11.7937.1267,11.9759-21.5699,10.7979-29.8627-.7657-5.7258-3.6099-11.6206-9.1809-13.9622-5.4404-2.2608-10.9302-4.4699-16.4361-6.5801,5.5797,1.9422,11.0984,4.0274,16.591,6.2281,5.7378,2.3035,8.7137,8.4149,9.5195,14.2374,1.1721,8.4791.8137,30.2698-11.2913,29.9395h0Z" style="fill:#30373e; stroke-width:0px;"/></g><g id="uuid-d9656eec-9124-4ac6-9a88-b97f9c46db50"><path d="m107.2574,76.1374c-6.3643,6.2731-13.5946,9.0209-19.2184,6.4629-8.9567-4.074-10.447-20.0633-3.3286-35.7132,7.1184-15.6499,20.1498-25.034,29.1065-20.96,5.8211,2.6478,8.4885,10.3285,7.6885,19.678" style="fill:none; stroke:#f4f4f4; stroke-miterlimit:10; stroke-width:8px;"/><path d="m101.641,80.6137c-4.753,2.9347-9.5869,3.8129-13.602,1.9866-8.9567-4.074-10.447-20.0634-3.3286-35.7131,7.1183-15.6499,20.1498-25.0339,29.1065-20.96,5.8212,2.6477,8.4885,10.3285,7.6885,19.678" style="fill:none; stroke:#f4ae3d; stroke-miterlimit:10; stroke-width:5px;"/><polygon points="97.3652 77.3924 107.2574 76.1374 103.3994 85.3324 97.3652 77.3924" style="fill:#f4ae3d; stroke-width:0px;"/></g></svg>