<?xml version="1.0" encoding="UTF-8"?><svg id="uuid-1678b38e-bf95-48a5-be51-7f18ef497b93" xmlns="http://www.w3.org/2000/svg" width="654" height="218.486" viewBox="0 0 654 218.486"><path d="m95.364,69.222l-.014,11.304h-8.669l.09-10.55,8.592-.754h0Zm-24.373-12.97c8.192-.36,16.378-.896,24.568-1.339,2.627-.142,10.277-1.053,12.158-.204,1.173.53,7.821,3.816,8.306,4.26l-9.492,7.705c-1.07.553-33.835,2.02-35.292,2.079l-.248-12.502h0Zm15.958-6.876h6.912l.004,3.815-6.925.522.008-4.337h0Zm-22.211-9.06c1.288-.834,2.712-1.741,4.058-2.514,1.369-.786,2.604-1.658,3.942-2.407,1.436-.803,8.807.326,11.168.534,7.833.691,15.714,1.492,23.566,2.062l-.055,10.033-31.629.008c-1.584.016-1.528.215-2.561-.65l-8.489-7.066h0Zm22.308-6.235c0-2.675-.443-6.022,1.903-6.794,2.311-.761,4.79,1.561,6.057,2.344l-.05,5.242-7.91-.791h0Zm-33.372,22.887c1.914,19.101,18.5,35.013,39.916,33.243,19.247-1.59,35.439-18.641,33.568-40.045-1.685-19.279-18.688-35.337-40.187-33.452-19.042,1.669-35.44,18.873-33.297,40.254h0Z" style="fill:#30373e; fill-rule:evenodd; stroke-width:0px;"/><path d="m317.012,64.27c-3.501.211-8.951,3.878-11.019-.047-1.657-3.145,1.365-6.036,3.981-9.517,2.099-2.794,4.022-5.64,6.209-8.486,3.064-3.987,5.434-2.896,11.515-2.896,11.251,0,8.43-1.371,17.825,11.535,1.407,1.933,5.79,6.044,3.795,9.536-2.193,3.837-7.623-.168-10.88-.061l-.157,5.972-21.239-.011-.029-6.025h0Zm9.48-36.255c4.083-1.056,7.338,1.96,8.076,5.097.957,4.071-1.763,7.427-4.993,8.253-8.447,2.16-12.751-10.85-3.083-13.35h0Zm-.869-10.974c-18.76,1.228-34.228,17.135-32.86,37.404,1.251,18.539,17.256,33.952,37.433,32.597,18.438-1.238,33.868-17.237,32.567-37.265-1.204-18.532-17.14-34.046-37.14-32.737h0Z" style="fill:#30373e; fill-rule:evenodd; stroke-width:0px;"/><path d="m565.152,68.802c-5.168,0-6.494.046-10.801-1.787-4.09-1.741-6.886,2.099-9.342-1.555-1.838-2.733-1.125-7.804-1.095-11.535.029-3.579.979-7.215,5.523-6.335,2.299.445,3.299.22,4.824-1.007,3.377-2.715,5.799-6.746,7.797-10.945,2.251-4.732,6.309-2.461,5.732,1.669-.479,3.426-3.94,5.865-3.15,8.807,5.596,1.562,14.664-2.22,14.678,2.999.006,1.999-1.166,2.512-2.991,2.854.793.693,2.031,1.645,1.442,3.65-.489,1.664-1.942,1.393-3.252,2.111.669,1.156,2.054,1.932.977,4.009-.691,1.333-2.125,1.315-4.038,1.402.398.971,2.78,2.908.42,4.858-1.29,1.066-4.678.804-6.724.804h0Zm-6.444-51.408c-17.684,1.637-32.571,16.933-30.664,36.723,1.68,17.433,17.092,32.148,36.71,30.321,17.466-1.627,32.073-17.112,30.326-36.652-1.547-17.304-17.044-32.181-36.371-30.392h0Z" style="fill:#30373e; fill-rule:evenodd; stroke-width:0px;"/><path d="m197.693,141.983c-2.321-1.353-4.306-4.893-6.613-7.186-6.332-6.293-5.531-4.848-5.368-14.343,1.133.667,1.401,1.422,2.133,2.369l4.374,4.494c1.175,1.064.526,1.702,2.263,2.384.262-9.863.026-24.949.028-35.16l6.221-.005.258,34.992c2.637-2.032,7.344-8.919,8.086-9.629.806.961.744,6.329.492,8.011-.29,1.929-4.271,5.183-5.701,7.206-1.501,2.123-.705.903-1.974,2.328-1.131,1.271-2.751,3.672-4.198,4.539h0Zm13.509-25.283c-.475-1.167-.577-5.862-.23-7.184.345-1.317,2.824-3.243,3.778-4.068.75-.65,1.27-1.112,1.887-1.916,1.26-1.645,2.318-2.458,3.896-3.953.69-.655,1.267-1.328,1.985-2.034.959.34,2.791,2.088,3.52,2.798,2.561,2.498,3.094,3.539,6.683,6.493,2.878,2.369,2.15,3.974,2.035,9.395-1.002-.384-1.446-1.255-2.115-1.964-.845-.896-1.3-.818-2.159-1.897-1.867-2.342-1.031-.552-3.024-3.052-.479-.601-.622-.685-1.483-1.045l-.024,30.667-6.184-.046c-.33-9.806-.071-20.344-.285-30.471l-7.121,7.317c-.071.087-.39.471-.465.54-.418.386-.121.314-.694.421h0Zm-5.232-32.39c-5.057.631-8.87,1.984-12.742,4.181-11.162,6.333-18.598,19.411-16.678,33.742,2.285,17.058,17.848,31.503,37.84,28.991,16.93-2.127,31.531-17.919,29.085-37.632-2.112-17.018-17.729-31.75-37.506-29.283h0Z" style="fill:#30373e; fill-rule:evenodd; stroke-width:0px;"/><path d="m450.862,140.199c3.066-.03,4.157-1.482,5.319-2.056.653.48.962.482,1.498,1.208-7.879,4.684-16.537,4.217-24.511-.077.342-.412.854-.861,1.201-1.174,1.126.423,2.128,2.114,5.594,2.099,3.193-.015,3.705-1.247,5.566-2.095,1.296,1.189,2.744,2.12,5.334,2.094h0Zm-25.557-8.133c5.243,2.22,6.717.19,9.335-1.113,1.513,1.061,2.628,2.043,5.322,2.046,2.913.004,3.642-1.028,5.321-2.055.891.372,1.087.886,2.381,1.444,4.649,2.005,7.806-1.17,8.516-1.444,1.517.827,1.814,1.712,4.328,2.001,2.232.257,3.286-.239,4.969-.899-.862,1.548-2.824,3.366-4.098,4.624-2.827,2.794-3.803-1.504-5.2-1.517-1.945.715-1.864,2.921-5.564,2.855-3.859-.069-3.582-2.686-5.587-2.793-1.005.543-.716,1.14-2.144,1.968-4.901,2.842-7.594-1.972-8.246-2.034-2.274.571-2.22,4.113-5.175,1.498-1.666-1.475-2.955-2.596-4.16-4.583h0Zm36.958-1.311c-4.163.449-4.268-2.126-6.082-2.801-1.067-.034-1.775,2.907-5.58,2.85-3.755-.056-4.088-2.904-5.317-2.836-1.572.523-1.845,2.942-5.576,2.829-3.956-.12-3.321-2.775-5.602-2.822-.515.173-1.484,3.276-5.799,2.767-3.697-.436-2.695-3.062-5.518-2.576-1.029-2.831-3.058-6.189-2.53-9.778l8.673-.031-.021-3.616-4.332-.099,2.361-4.611-1.367-.361,2.454-4.421-1.118-.565c1.002-1.596,1.794-4.393,3.239-5.37.965,1.295,2.097,3.639,2.971,5.296l-1.018.761,2.231,4.357-1.229.365c.594,1.733,1.686,2.752,2.255,4.633l-4.239.047.013,3.546c1.875.139,11.156.271,12.51-.12l-.035-2.086-6.791.02c.625-2.784,2.715-5.062,3.604-7.503l-2.74-.118,4.447-8.551-2.096-.186c.709-1.59,4.271-8.638,5.452-9.266.815.686,4.909,8.116,5.219,9.404l-1.966.039c.264,2.106,3.902,6.252,4.28,8.6l-2.593.103c.757,2.708,2.922,4.558,3.559,7.451l-6.785.082-.026,2.035c1.275.313,10.879.227,12.49.031l.046-3.507-4.337-.102,2.405-4.581-1.486-.386,2.387-4.56c-.039-.042-.103-.091-.128-.111l-.776-.649c.547-1.151,2.142-4.315,2.971-4.988.79.742,2.581,3.684,3.021,4.988-.641.531-.439.122-.952.829.963,1.444,1.661,2.925,2.429,4.493l-1.392.505c.644,1.554,1.8,2.806,2.279,4.536l-4.066.08.012,3.56,8.484.021c.374,3.644-1.478,6.847-2.567,9.727-2.945.058-1.005-.318-2.692,1.333-.615.601-1.88,1.189-3.036,1.314h0Zm-20.438-47.751c-17.643,2.088-31.889,18.18-29.847,38.469,1.779,17.681,17.171,33.428,37.176,31.067,17.354-2.048,31.705-18.28,29.681-38.354-1.913-18.972-18.292-33.398-37.01-31.182h0Z" style="fill:#30373e; fill-rule:evenodd; stroke-width:0px;"/><path d="m53.673,56.969c-2.143-21.381,14.255-38.584,33.297-40.254,21.499-1.885,38.502,14.173,40.187,33.452,1.871,21.405-14.321,38.455-33.568,40.045-21.416,1.77-38.001-14.142-39.916-33.243h0Zm-4.484-3.801c0,12.897,5.503,22.835,12.1,29.46.961.965,1.683,1.492,2.662,2.407.771.722,1.954,1.558,2.874,2.195,11.548,7.982,27.47,10.053,40.485,3.785,5.163-2.486,8.449-4.697,12.266-8.514,3.331-3.331,6.496-7.632,8.501-12.28,1.083-2.512,1.888-4.895,2.561-7.829.387-1.688.507-2.762.697-4.624.264-2.585,1.071-2.302,1.482-3.841-.392-.534-.718-.646-1.267-1.013,0-9.973-3.563-18.321-9.23-25.489-.762-.963-1.514-1.866-2.363-2.705-6.838-6.761-16.986-12.353-27.434-12.353-5.313,0-7.689-.152-13.071,1.374-5.392,1.529-12.104,4.767-16.138,8.697-1.826,1.779-2.978,2.602-4.859,5.024-5.687,7.321-9.266,15.499-9.266,25.706h0Z" style="fill:#f4ae3d; fill-rule:evenodd; stroke-width:0px;"/><path d="m440.03,99.776l2.096.186-4.447,8.551,2.74.118c-.889,2.44-2.979,4.719-3.604,7.503l6.791-.02.035,2.086c-1.354.391-10.635.259-12.51.12l-.013-3.546,4.239-.047c-.569-1.881-1.661-2.901-2.255-4.633l1.229-.365-2.231-4.357,1.018-.761c-.875-1.657-2.007-4.001-2.971-5.296-1.444.976-2.237,3.773-3.239,5.37l1.118.565-2.454,4.421,1.367.361-2.361,4.611,4.332.099.021,3.616-8.673.031c-.528,3.589,1.501,6.947,2.53,9.778,2.823-.486,1.82,2.14,5.518,2.576,4.315.509,5.284-2.594,5.799-2.767,2.28.047,1.645,2.702,5.602,2.822,3.731.113,4.004-2.306,5.576-2.829,1.229-.068,1.563,2.779,5.317,2.836,3.805.057,4.513-2.884,5.58-2.85,1.814.675,1.919,3.25,6.082,2.801,1.156-.125,2.421-.713,3.036-1.314,1.687-1.65-.253-1.275,2.692-1.333,1.089-2.88,2.941-6.082,2.567-9.727l-8.484-.021-.012-3.56,4.066-.08c-.479-1.73-1.636-2.982-2.279-4.536l1.392-.505c-.768-1.568-1.467-3.049-2.429-4.493.513-.707.311-.298.952-.829-.44-1.304-2.231-4.245-3.021-4.988-.829.673-2.423,3.837-2.971,4.988l.776.649c.025.021.089.07.128.111l-2.387,4.56,1.486.386-2.405,4.581,4.337.102-.046,3.507c-1.611.196-11.214.282-12.49-.031l.026-2.035,6.785-.082c-.637-2.893-2.803-4.743-3.559-7.451l2.593-.103c-.379-2.348-4.017-6.494-4.28-8.6l1.966-.039c-.31-1.289-4.404-8.718-5.219-9.404-1.181.628-4.743,7.677-5.452,9.266h0Z" style="fill:#f4ae3d; fill-rule:evenodd; stroke-width:0px;"/><path d="m325.623,17.041c20-1.309,35.936,14.205,37.14,32.737,1.301,20.028-14.129,36.027-32.567,37.265-20.177,1.355-36.181-14.058-37.433-32.597-1.368-20.27,14.1-36.176,32.86-37.404h0Zm-37.206,35.873c-.549.368-.875.479-1.267,1.013.404,1.513,1.213,1.197,1.57,3.245,1.083,6.224,2.937,12.32,6.722,17.353l5.715,6.449c1.797,1.732,1.674,1.715,4.034,3.315.955.648,1.892,1.34,2.911,1.905,18.294,10.144,39.498,5.254,51.82-11.447.628-.852,1.391-1.939,1.904-2.911,3.256-6.166,3.723-8.029,4.959-14.808.283-1.554,1.356-2.017,1.713-3.355-.94-.251-.328-.256-1.267-.507,0-9.539-3.159-19.267-8.944-26.027l-2.395-2.674c-15.845-15.687-40.165-15.967-56.134.001-1.8,1.8-3.094,3.261-4.5,5.384-1.599,2.415-2.321,3.613-3.544,6.339-2.16,4.816-3.297,9.74-3.297,16.723h0Z" style="fill:#f4ae3d; fill-rule:evenodd; stroke-width:0px;"/><path d="m441.826,83.005c18.718-2.216,35.098,12.211,37.01,31.182,2.024,20.074-12.327,36.306-29.681,38.354-20.005,2.361-35.397-13.386-37.176-31.067-2.042-20.289,12.204-36.38,29.847-38.469h0Zm3.205,74.065c3.501,0,6.034-.313,9.076-1.061,3.639-.896,7.036-2.295,10.235-4.21,3.593-2.151,5.151-3.614,7.995-6.449,3.051-3.041,5.768-7.134,7.596-11.411,4.475-10.469,4.575-20.941.396-31.427-3.389-8.504-10.283-16.057-18.403-20.117-12.65-6.325-27.615-4.881-38.801,3.606-5.487,4.163-9.684,9.618-12.49,16.147-6.085,14.162-3.149,32.267,7.723,43.075,7.298,7.255,15.559,11.847,26.673,11.847h0Z" style="fill:#f4ae3d; fill-rule:evenodd; stroke-width:0px;"/><path d="m558.708,17.394c19.328-1.789,34.824,13.088,36.371,30.392,1.747,19.54-12.86,35.025-30.326,36.652-19.618,1.827-35.03-12.888-36.71-30.321-1.907-19.79,12.98-35.086,30.664-36.723h0Zm-35.116,35.774c-.94.251-.328.256-1.268.507.588,2.201.971.18,2.026,4.817,1.434,6.307,3.985,12.193,8.304,17.038,1.455,1.632,2.955,3.26,4.728,4.648.952.745,1.579,1.291,2.578,1.984,10.629,7.374,25.546,9.008,37.445,3.279,2.288-1.102,3.957-2.08,5.946-3.43,4.904-3.325,10.538-9.923,12.867-15.516,4.288-10.296,4.678-20.924-.062-31.151l-1.521-3.041c-1.328-2.629-4.183-6.167-6.231-8.214-2.175-2.175-5.311-4.676-8.046-6.146-16.052-8.631-33.322-6.075-46.06,6.652-2.952,2.951-6.141,7.474-7.816,11.698-2.121,5.35-2.891,9.518-2.891,16.875h0Z" style="fill:#f4ae3d; fill-rule:evenodd; stroke-width:0px;"/><path d="m205.969,84.31c19.777-2.467,35.394,12.264,37.506,29.283,2.446,19.713-12.155,35.504-29.085,37.632-19.992,2.512-35.555-11.933-37.84-28.991-1.92-14.331,5.515-27.409,16.678-33.742,3.872-2.197,7.684-3.55,12.742-4.181h0Zm3.381,71.492c13.452,0,24.41-5.935,31.863-16.287l1.756-2.806c1.162-2.147,2.112-3.92,2.974-6.402,1.14-3.283,1.751-6.48,1.927-9.987.054-1.083.321-1.339.342-1.982.043-1.309-.302-2.508-.339-4.1-.151-6.504-4.034-15.086-8.191-20.192-6.698-8.23-17.319-14.27-28.304-14.27-9.46,0-16.545,2.029-23.715,7.202-7.19,5.188-13.042,13.747-14.829,22.677-.897,4.481-.458,3.3-.773,6.324-.468,4.489-.129,1.258.04,3.821.524,7.935,2.186,12.891,6.483,19.378,3.764,5.681,9.154,10.048,15.304,13.079,3.721,1.834,9.897,3.544,15.462,3.544h0Z" style="fill:#f4ae3d; fill-rule:evenodd; stroke-width:0px;"/><path d="m565.152,68.802c2.046,0,5.434.262,6.724-.804,2.359-1.949-.022-3.886-.42-4.858,1.913-.088,3.347-.07,4.038-1.402,1.077-2.077-.309-2.853-.977-4.009,1.31-.718,2.763-.447,3.252-2.111.589-2.005-.65-2.957-1.442-3.65,1.825-.343,2.996-.856,2.991-2.854-.014-5.219-9.082-1.438-14.678-2.999-.791-2.942,2.671-5.381,3.15-8.807.576-4.13-3.481-6.401-5.732-1.669-1.998,4.199-4.419,8.23-7.797,10.945-1.525,1.227-2.525,1.452-4.824,1.007-4.544-.88-5.493,2.756-5.523,6.335-.03,3.732-.743,8.802,1.095,11.535,2.457,3.654,5.253-.186,9.342,1.555,4.307,1.833,5.634,1.787,10.801,1.787h0Z" style="fill:#f4ae3d; fill-rule:evenodd; stroke-width:0px;"/><path d="m317.002,56.19l.05-8.06c2.413.666,8.605,3.189,10.656,3.252,2.119.064,7.919-2.702,10.636-3.219l.079,7.996c-3.021-.404-5.071-.455-5.879,2.12-.339,1.078-.168,2.217.315,3.149.673,1.3,1.111.979,2.361,1.875-.62.577-6.31,2.516-7.522,2.513-1.36-.004-6.755-1.848-7.592-2.529,1.732-.883,3.661-2.105,2.785-5.065-.728-2.457-3.09-2.465-5.888-2.033h0Zm.01,8.08l.029,6.025,21.239.011.157-5.972c3.257-.107,8.688,3.897,10.88.061,1.996-3.492-2.387-7.603-3.795-9.536-9.396-12.906-6.575-11.535-17.825-11.535-6.081,0-8.451-1.091-11.515,2.896-2.187,2.846-4.11,5.692-6.209,8.486-2.616,3.481-5.638,6.372-3.981,9.517,2.068,3.926,7.518.258,11.019.047h0Z" style="fill:#f4ae3d; fill-rule:evenodd; stroke-width:0px;"/><path d="m70.99,56.252l.248,12.502c1.457-.059,34.223-1.526,35.292-2.079l9.492-7.705c-.485-.443-7.133-3.73-8.306-4.26-1.881-.849-9.531.062-12.158.204-8.19.443-16.376.979-24.568,1.339h0Z" style="fill:#f4ae3d; fill-rule:evenodd; stroke-width:0px;"/><path d="m64.737,40.316l8.489,7.066c1.033.865.977.666,2.561.65l31.629-.008.055-10.033c-7.852-.57-15.733-1.372-23.566-2.062-2.361-.208-9.733-1.337-11.168-.534-1.338.749-2.573,1.621-3.942,2.407-1.345.773-2.77,1.68-4.058,2.514h0Z" style="fill:#f4ae3d; fill-rule:evenodd; stroke-width:0px;"/><path d="m197.693,141.983c1.447-.867,3.067-3.268,4.198-4.539,1.269-1.426.473-.205,1.974-2.328,1.43-2.022,5.411-5.276,5.701-7.206.253-1.682.314-7.05-.492-8.011-.743.709-5.449,7.597-8.086,9.629l-.258-34.992-6.221.005c-.003,10.211.234,25.297-.028,35.16-1.737-.682-1.087-1.319-2.263-2.384l-4.374-4.494c-.731-.946-1-1.702-2.133-2.369-.163,9.496-.964,8.05,5.368,14.343,2.307,2.293,4.292,5.832,6.613,7.186h0Z" style="fill:#f4ae3d; fill-rule:evenodd; stroke-width:0px;"/><path d="m211.202,116.701c.573-.107.276-.035.694-.421.075-.069.394-.453.465-.54l7.121-7.317c.215,10.128-.044,20.665.285,30.471l6.184.046.024-30.667c.861.36,1.004.444,1.483,1.045,1.993,2.499,1.157.71,3.024,3.052.859,1.078,1.314,1.001,2.159,1.897.669.709,1.113,1.581,2.115,1.964.115-5.421.844-7.026-2.035-9.395-3.589-2.954-4.122-3.994-6.683-6.493-.729-.71-2.562-2.458-3.52-2.798-.718.707-1.295,1.379-1.985,2.034-1.577,1.496-2.636,2.308-3.896,3.953-.617.804-1.136,1.266-1.887,1.916-.953.825-3.432,2.751-3.778,4.068-.347,1.322-.245,6.017.23,7.184h0Z" style="fill:#f4ae3d; fill-rule:evenodd; stroke-width:0px;"/><path d="m317.002,56.19c2.798-.432,5.161-.424,5.888,2.033.876,2.96-1.053,4.182-2.785,5.065.837.681,6.232,2.525,7.592,2.529,1.212.003,6.902-1.936,7.522-2.513-1.25-.897-1.688-.576-2.361-1.875-.483-.932-.653-2.071-.315-3.149.808-2.575,2.858-2.524,5.879-2.12l-.079-7.996c-2.717.517-8.517,3.283-10.636,3.219-2.052-.063-8.243-2.586-10.656-3.252l-.05,8.06h0Z" style="fill:#30373e; fill-rule:evenodd; stroke-width:0px;"/><path d="m425.305,132.066c1.206,1.987,2.495,3.108,4.16,4.583,2.955,2.615,2.901-.927,5.175-1.498.652.062,3.345,4.876,8.246,2.034,1.428-.828,1.139-1.426,2.144-1.968,2.005.107,1.728,2.724,5.587,2.793,3.7.066,3.619-2.14,5.564-2.855,1.396.013,2.372,4.311,5.2,1.517,1.273-1.258,3.235-3.076,4.098-4.624-1.683.66-2.737,1.155-4.969.899-2.515-.29-2.812-1.174-4.328-2.001-.71.274-3.867,3.449-8.516,1.444-1.294-.558-1.49-1.072-2.381-1.444-1.679,1.027-2.408,2.059-5.321,2.055-2.695-.003-3.809-.985-5.322-2.046-2.618,1.303-4.093,3.333-9.335,1.113h0Z" style="fill:#f4ae3d; fill-rule:evenodd; stroke-width:0px;"/><path d="m326.492,28.015c-9.668,2.5-5.364,15.51,3.083,13.35,3.23-.826,5.95-4.182,4.993-8.253-.738-3.137-3.993-6.153-8.076-5.097h0Z" style="fill:#f4ae3d; fill-rule:evenodd; stroke-width:0px;"/><polygon points="86.771 69.976 86.681 80.527 95.35 80.527 95.364 69.222 86.771 69.976 86.771 69.976" style="fill:#f4ae3d; fill-rule:evenodd; stroke-width:0px;"/><path d="m433.168,139.275c7.974,4.294,16.632,4.761,24.511.077-.536-.726-.845-.728-1.498-1.208-1.163.574-2.253,2.025-5.319,2.056-2.59.025-4.038-.906-5.334-2.094-1.861.848-2.372,2.08-5.566,2.095-3.466.016-4.468-1.676-5.594-2.099-.347.312-.859.762-1.201,1.174h0Z" style="fill:#f4ae3d; fill-rule:evenodd; stroke-width:0px;"/><path d="m87.045,34.082l7.91.791.05-5.242c-1.267-.783-3.746-3.104-6.057-2.344-2.346.773-1.903,4.119-1.903,6.794h0Z" style="fill:#f4ae3d; fill-rule:evenodd; stroke-width:0px;"/><polygon points="86.94 53.713 93.865 53.191 93.861 49.376 86.948 49.376 86.94 53.713 86.94 53.713" style="fill:#f4ae3d; fill-rule:evenodd; stroke-width:0px;"/><path d="m500.988,84.586c-.019.596,2.449.691,3.344.766,0-1.539.253-2.031.253-3.295-.985-.082-2.31-.425-3.294-.507l-.303,3.035h0Z" style="fill:#f4ae3d; fill-rule:evenodd; stroke-width:0px;"/><path d="m152.837,101.317c0,.825.708,2.464,1.014,3.041,1.215-.283,1.826-.731,3.041-1.014-.197-.845-.675-2.334-1.014-3.041-.72.345-3.041.372-3.041,1.014h0Z" style="fill:#f4ae3d; fill-rule:evenodd; stroke-width:0px;"/><path d="m263.076,103.344c1.157.27,2.035.78,3.041,1.014,2.49-4.706-.211-3.183-2.028-4.055-.145.302-.931,2.686-1.013,3.041h0Z" style="fill:#f4ae3d; fill-rule:evenodd; stroke-width:0px;"/><path d="m265.609,84.845c1.049.245,2.246.262,3.295.507.244-1.049.262-2.246.507-3.295-.985-.082-2.309-.425-3.294-.507-.245,1.049-.263,2.246-.507,3.294h0Z" style="fill:#f4ae3d; fill-rule:evenodd; stroke-width:0px;"/><path d="m264.596,97.516c1.121.025,1.79.253,3.294.253.13-1.556.254-.736.254-3.294-3.348,0-3.45-1.359-3.548,3.041h0Z" style="fill:#f4ae3d; fill-rule:evenodd; stroke-width:0px;"/><path d="m386.237,82.057c0,1.446.254,1.753.254,3.295.854-.071,2.499-.322,3.294-.507,0-1.542-.253-1.848-.253-3.294-.985.082-2.31.425-3.295.507h0Z" style="fill:#f4ae3d; fill-rule:evenodd; stroke-width:0px;"/><path d="m265.863,91.434h2.787v-3.295h-2.281c-1.136,0-.948-.852-1.035,1.251-.046,1.1-.495,2.044.529,2.044h0Z" style="fill:#f4ae3d; fill-rule:evenodd; stroke-width:0px;"/><path d="m499.77,97.516c.622.014,2.821.476,3.294.253l.562-3.286-3.35-.262c-.014.642-.306,2.877-.507,3.295h0Z" style="fill:#f4ae3d; fill-rule:evenodd; stroke-width:0px;"/><path d="m153.598,88.139h-2.281v3.295c4.206,0,3.404.305,3.32-1.777-.017-.436.071-1.03-.138-1.391-.539-.932.056-.127-.902-.127h0Z" style="fill:#f4ae3d; fill-rule:evenodd; stroke-width:0px;"/><path d="m384.97,76.229c.115.491.594,2.44.76,2.787,1.38,0,2.092-.407,3.294-.507-.177-.37-.714-2.742-.76-3.295-1.185.027-2.496.591-3.294,1.014h0Z" style="fill:#f4ae3d; fill-rule:evenodd; stroke-width:0px;"/><path d="m382.69,70.653c.205.882.863,2.024,1.267,2.788,1.232-.287,1.809-.98,3.041-1.267l-1.526-3.038c-1.027.083-2.045,1.024-2.782,1.517h0Z" style="fill:#f4ae3d; fill-rule:evenodd; stroke-width:0px;"/><path d="m249.898,114.241c.154.661.955,2.452,1.267,3.041.739-.172.771-.266,1.438-.59.622-.302,1.064-.418,1.603-.677-.254-1.094-.968-2.216-1.52-3.041-.763.404-1.905,1.062-2.787,1.267h0Z" style="fill:#f4ae3d; fill-rule:evenodd; stroke-width:0px;"/><path d="m500.53,90.166c0,1.547-.119,1.267,3.294,1.267,0-2,.564-2.769-.108-3.167-.583-.345-1.929.101-2.934-.381-.026,1.146-.253,1.007-.253,2.281h0Z" style="fill:#f4ae3d; fill-rule:evenodd; stroke-width:0px;"/><path d="m369.258,58.489c1.377.368,1.319,1.178,2.788,1.521.59-.882,1.183-1.653,1.774-2.534-1.282-.859-1.96-1.684-3.041-1.774-.313,1.17-1.208,1.618-1.521,2.787h0Z" style="fill:#f4ae3d; fill-rule:evenodd; stroke-width:0px;"/><path d="m388.772,94.475h-1.521c0,.593.201,3.03.446,3.282.342.351,2.328-.177,3.102-.241,0-1.539-.253-2.031-.253-3.295-.793.066-.9.254-1.774.254h0Z" style="fill:#f4ae3d; fill-rule:evenodd; stroke-width:0px;"/><path d="m147.009,70.653c.267,1.001.975,1.535,1.267,2.788l3.041-1.267c-.287-1.232-.98-1.808-1.267-3.041-1.206.1-2.033.987-3.041,1.52h0Z" style="fill:#f4ae3d; fill-rule:evenodd; stroke-width:0px;"/><path d="m133.831,58.489c1.528.809,1.614,1.275,2.534,1.521.695-.509,1.702-1.926,1.774-2.787-1.117-.298-1.362-1.189-2.788-1.521-.507.957-1.277,1.745-1.521,2.787h0Z" style="fill:#f4ae3d; fill-rule:evenodd; stroke-width:0px;"/><path d="m150.557,82.057c.184.383.459,2.716.507,3.295,1.049-.245,2.246-.262,3.294-.507-.244-1.049-.262-2.246-.507-3.294-.985.082-2.31.425-3.295.507h0Z" style="fill:#f4ae3d; fill-rule:evenodd; stroke-width:0px;"/><path d="m138.9,62.037c.537.733,1.341,1.002,2.027,2.028.899-.602,1.998-1.575,2.281-2.788-.397-.265-.791-.495-1.193-.835-.512-.433-.539-.571-1.088-.939-.682.457-1.796,1.667-2.027,2.534h0Z" style="fill:#f4ae3d; fill-rule:evenodd; stroke-width:0px;"/><path d="m149.543,75.975c.028,1.266.479,1.775.507,3.041,1.353,0,2.217-.256,3.294-.507-.019-.834-.492-2.736-.76-3.295-1.284.107-1.757.654-3.041.76h0Z" style="fill:#f4ae3d; fill-rule:evenodd; stroke-width:0px;"/><path d="m503.818,72.171c1.238.29,1.814.983,3.047,1.27.404-.764,1.062-1.906,1.267-2.788-.854-.572-1.652-1.256-2.788-1.52l-1.526,3.038h0Z" style="fill:#f4ae3d; fill-rule:evenodd; stroke-width:0px;"/><path d="m495.208,108.159c1.669,1.118,1.788,1.527,2.534,2.027.646-.964,1.759-1.887,2.027-3.041-.855-.229-1.972-1.089-2.788-1.521-.655,1.237-1.119,1.297-1.774,2.535h0Z" style="fill:#f4ae3d; fill-rule:evenodd; stroke-width:0px;"/><path d="m268.65,72.174c1.233.287,1.809.98,3.041,1.267.292-1.253,1-1.787,1.268-2.788-.958-.506-1.746-1.277-2.788-1.52-.552.825-1.265,1.947-1.52,3.041h0Z" style="fill:#f4ae3d; fill-rule:evenodd; stroke-width:0px;"/><path d="m165.762,116.015c1.233.287,1.809.98,3.041,1.267.413-.779,1.05-2.108,1.267-3.041-.882-.205-2.024-.863-2.788-1.267-.522.988-1.242,1.848-1.52,3.041h0Z" style="fill:#f4ae3d; fill-rule:evenodd; stroke-width:0px;"/><path d="m160.187,112.721c1.377.367,1.319,1.178,2.788,1.52.47-.702,1.293-1.682,1.521-2.535-.43-.641-1.695-1.55-2.534-1.774-.342.511-.52.836-.963,1.318-.646.706-.72.372-.811,1.47h0Z" style="fill:#f4ae3d; fill-rule:evenodd; stroke-width:0px;"/><path d="m498.503,103.344c1.006.234,1.884.744,3.041,1.014l1.051-3.282c-1.101-.26-2.24-.518-3.331-.773-.107,1.284-.654,1.758-.76,3.041h0Z" style="fill:#f4ae3d; fill-rule:evenodd; stroke-width:0px;"/><path d="m155.625,107.399c.356,1.333,1.451,1.576,1.774,2.787,1.057-.282,1.987-1.463,2.534-2.281-.55-.821-1.221-1.16-1.521-2.281-.555.148-2.385,1.224-2.788,1.774h0Z" style="fill:#f4ae3d; fill-rule:evenodd; stroke-width:0px;"/><path d="m501.797,78.509c1.203.1,1.914.507,3.295.507.175-.753.473-2.188.76-2.787-.799-.423-2.109-.987-3.295-1.014-.086,1.044-.527,2.294-.76,3.295h0Z" style="fill:#f4ae3d; fill-rule:evenodd; stroke-width:0px;"/><path d="m511.934,61.53c.5.746.909.865,2.027,2.534.827-.554,1.708-1.474,2.535-2.028-.59-.881-1.184-1.653-1.774-2.534-1.337.357-1.784,1.355-2.787,2.027h0Z" style="fill:#f4ae3d; fill-rule:evenodd; stroke-width:0px;"/><path d="m401.189,116.015c1.221.284,1.825.925,3.295,1.267.254-1.093.917-1.884,1.014-3.041-.891-.471-1.875-.784-2.788-1.267-.168.627-1.165,2.369-1.52,3.041h0Z" style="fill:#f4ae3d; fill-rule:evenodd; stroke-width:0px;"/><path d="m389.278,88.139h-2.534c0,1.446.253,1.753.253,3.295,4.669,0,3.041.315,3.041-3.548-.309.174-.271.253-.76.253h0Z" style="fill:#f4ae3d; fill-rule:evenodd; stroke-width:0px;"/><path d="m388.265,101.063c.137.586.306,1.089.45,1.577.256.867.391.976.563,1.717,1.215-.283,1.826-.731,3.041-1.014-.107-1.284-.653-1.757-.76-3.041-1.091.255-2.23.513-3.294.76h0Z" style="fill:#f4ae3d; fill-rule:evenodd; stroke-width:0px;"/><path d="m260.035,107.906c.639.954,1.486,1.727,2.534,2.281.258-.965.975-1.215,2.028-2.787-.917-.614-1.876-1.163-2.788-1.774-.528.789-1.28,1.543-1.773,2.281h0Z" style="fill:#f4ae3d; fill-rule:evenodd; stroke-width:0px;"/><path d="m276.76,61.53c.311.464.544.877.952,1.329.484.535.677.61,1.075,1.206.348-.233,2.065-1.733,2.281-2.028-.298-1.116-1.222-1.418-1.52-2.534-.978.228-2.239,1.278-2.787,2.027h0Z" style="fill:#f4ae3d; fill-rule:evenodd; stroke-width:0px;"/><path d="m485.071,114.241c.412.778,1.05,2.108,1.267,3.041,1.469-.343,2.073-.983,3.294-1.267-.39-.739-1.354-2.325-1.521-3.041-.778.412-2.108,1.05-3.041,1.267h0Z" style="fill:#f4ae3d; fill-rule:evenodd; stroke-width:0px;"/><path d="m507.372,66.345c.816.547,1.616,1.412,2.534,2.027.295-.216,1.795-1.933,2.027-2.281l-2.221-2.341c-.4.288-2.083,2.209-2.34,2.594h0Z" style="fill:#f4ae3d; fill-rule:evenodd; stroke-width:0px;"/><path d="m490.647,111.454c.228.855,1.089,1.972,1.52,2.788.992-.232,2.233-1.234,3.041-1.774-.615-.918-1.481-1.718-2.028-2.534-.949.502-1.586,1.019-2.534,1.52h0Z" style="fill:#f4ae3d; fill-rule:evenodd; stroke-width:0px;"/><path d="m391.053,107.146c.302,1.297,1.374,2.065,2.027,3.041,1.099-.735,1.165-1.302,2.534-2.027-.628-.939-1.257-1.556-1.774-2.535-.816.432-1.932,1.292-2.787,1.521h0Z" style="fill:#f4ae3d; fill-rule:evenodd; stroke-width:0px;"/><path d="m281.828,57.222c.197.847,1.19,2.36,1.774,2.787.92-.246,1.006-.712,2.534-1.521-.243-1.042-1.014-1.83-1.52-2.787-1.426.332-1.67,1.222-2.788,1.521h0Z" style="fill:#f4ae3d; fill-rule:evenodd; stroke-width:0px;"/><path d="m395.614,112.467c.763.511,1.937,1.547,2.787,1.774.55-.403,1.626-2.233,1.774-2.788-.982-.262-1.61-.937-2.281-1.52-1.051.704-1.585,1.495-2.281,2.534h0Z" style="fill:#f4ae3d; fill-rule:evenodd; stroke-width:0px;"/><path d="m378.828,66.032c.293.408,1.793,2.125,2.087,2.341.827-.553,1.708-1.474,2.534-2.027-.21-.314-2.025-2.347-2.281-2.534l-2.341,2.221h0Z" style="fill:#f4ae3d; fill-rule:evenodd; stroke-width:0px;"/><path d="m266.623,78.509c1.33.11,1.606.507,3.295.507.028-1.266.479-1.775.507-3.041-1.284-.107-1.757-.653-3.041-.76-.257,1.103-.731,1.973-.76,3.295h0Z" style="fill:#f4ae3d; fill-rule:evenodd; stroke-width:0px;"/><path d="m517.002,57.476c.612.914,1.109,1.919,2.028,2.534.959-.508,1.561-1.261,2.534-1.521-.532-1.006-1.156-1.865-1.773-2.787-1.062.283-1.953,1.215-2.788,1.774h0Z" style="fill:#f4ae3d; fill-rule:evenodd; stroke-width:0px;"/><path d="m374.327,62.037c.816.546,1.616,1.413,2.534,2.028.311-.464.545-.877.952-1.329.483-.536.677-.61,1.075-1.206-.844-.565-1.725-1.744-2.788-2.027-.59.881-1.184,1.653-1.774,2.534h0Z" style="fill:#f4ae3d; fill-rule:evenodd; stroke-width:0px;"/><path d="m153.598,94.475h-1.774l.253,3.294,3.295-.253c0-.759-.113-1.589-.237-2.314-.292-1.709-.268-.727-1.537-.727h0Z" style="fill:#f4ae3d; fill-rule:evenodd; stroke-width:0px;"/><path d="m255.473,111.707c.227.852,1.05,1.833,1.521,2.535,1.425-.332,1.67-1.222,2.787-1.52-.108-1.293-.344-.653-1.774-2.788l-2.534,1.774h0Z" style="fill:#f4ae3d; fill-rule:evenodd; stroke-width:0px;"/><path d="m143.401,66.032c.617.893,1.259,1.786,2.088,2.341l2.281-2.027c-1.118-1.67-1.528-1.788-2.028-2.534l-2.341,2.221h0Z" style="fill:#f4ae3d; fill-rule:evenodd; stroke-width:0px;"/><path d="m272.199,66.345c.43.587,1.872,1.584,2.534,2.027l1.774-2.281-2.081-2.228c-.997.651-1.531,1.442-2.227,2.481h0Z" style="fill:#f4ae3d; fill-rule:evenodd; stroke-width:0px;"/><path d="m46.976,103.293h3.083l3.63,10.363,3.649-10.363h2.947l-5.133,14.012h-3.005l-5.172-14.012Z" style="fill:#30373e; stroke-width:0px;"/><path d="m63.311,116.847c-.755-.449-1.334-1.077-1.737-1.883s-.604-1.743-.604-2.811c0-1.041.201-1.961.604-2.761s.982-1.428,1.737-1.883c.754-.455,1.646-.683,2.673-.683,1.055,0,1.958.225,2.713.673s1.327,1.077,1.718,1.883.585,1.73.585,2.771c0,1.067-.194,2.007-.585,2.82s-.963,1.441-1.718,1.883-1.658.664-2.713.664c-1.027,0-1.919-.225-2.673-.673Zm3.884-2.01c.338-.228.598-.537.78-.927.182-.391.279-.826.293-1.308v-.82c.025-.742-.17-1.363-.586-1.864-.416-.5-.982-.751-1.698-.751-.702,0-1.258.241-1.668.722-.41.481-.615,1.119-.615,1.913v.8c0,.481.091.917.273,1.308.183.39.445.699.79.927.345.228.752.341,1.22.341s.872-.113,1.211-.341Z" style="fill:#30373e; stroke-width:0px;"/><path d="m72.366,120.818v-2.205c.26.013.521.026.78.039.391,0,.689-.072.898-.215.208-.143.377-.384.507-.722l.332-.819-3.688-9.855h2.83l2.322,6.752,2.264-6.752h2.752l-4.06,10.851c-.391,1.08-.885,1.847-1.483,2.303s-1.393.683-2.381.683c-.403,0-.761-.02-1.073-.059Z" style="fill:#30373e; stroke-width:0px;"/><path d="m83.089,117.09c-.565-.26-1.012-.634-1.337-1.122s-.487-1.05-.487-1.688c0-.911.321-1.62.966-2.127.644-.507,1.506-.878,2.586-1.112l2.615-.527v-.332c0-.377-.121-.638-.361-.781-.241-.143-.596-.215-1.063-.215-.508,0-.904.082-1.19.244s-.43.452-.43.868h-2.654c0-1.314.449-2.221,1.347-2.722s1.906-.751,3.025-.751c1.171,0,2.13.25,2.878.751s1.122,1.252,1.122,2.254v7.475h-2.575v-.566c-.339.234-.729.417-1.171.546-.443.13-.905.195-1.386.195-.69,0-1.317-.13-1.884-.391Zm3.337-2.029c.319-.143.566-.338.742-.585s.264-.534.264-.859v-.937l-1.913.371c-.599.13-1.005.29-1.22.478-.215.189-.322.426-.322.712,0,.364.12.628.361.791s.569.244.985.244.784-.071,1.103-.214Z" style="fill:#30373e; stroke-width:0px;"/><path d="m93.765,120.525c-.813-.495-1.402-1.243-1.767-2.245l2.537-.878c.156.52.413.914.771,1.181.357.267.81.4,1.356.4h.136c.729,0,1.282-.192,1.659-.576s.579-.946.605-1.688l.02-.468c-.43.338-.879.569-1.347.693-.469.124-.918.185-1.347.185-.897,0-1.698-.234-2.4-.703-.703-.468-1.249-1.096-1.64-1.883-.391-.787-.585-1.642-.585-2.566,0-.95.179-1.818.536-2.605s.878-1.408,1.562-1.864c.683-.455,1.493-.683,2.43-.683.585,0,1.115.098,1.591.293.475.195.874.468,1.2.819v-.897h2.731v9.387c0,.911-.188,1.734-.565,2.469-.378.735-.95,1.314-1.718,1.737-.768.422-1.711.634-2.829.634-1.146,0-2.125-.248-2.938-.742Zm4.82-6.382c.396-.494.596-1.151.596-1.971v-.234c0-.807-.212-1.467-.635-1.981-.423-.514-.979-.771-1.669-.771-.754,0-1.327.238-1.717.712-.391.475-.599,1.116-.625,1.922v.292c.026.833.231,1.503.615,2.01s.953.761,1.707.761,1.33-.247,1.728-.742Z" style="fill:#30373e; stroke-width:0px;"/><path d="m105.806,116.856c-.749-.442-1.324-1.067-1.728-1.874s-.604-1.737-.604-2.791c0-1.041.198-1.968.595-2.781s.969-1.447,1.718-1.903c.748-.455,1.622-.683,2.625-.683s1.851.211,2.546.634c.696.423,1.22,1.012,1.571,1.766.352.755.527,1.62.527,2.596v1.054h-6.929v.02c.091.703.345,1.262.762,1.678.416.417.949.625,1.6.625.495,0,.934-.123,1.317-.371.384-.247.667-.631.85-1.151l2.342.917c-.442,1.028-1.044,1.773-1.806,2.235-.761.462-1.668.693-2.722.693-1.028,0-1.916-.221-2.664-.664Zm4.693-5.835v-.078c-.053-.585-.267-1.041-.645-1.366-.377-.325-.858-.488-1.443-.488-.365,0-.706.068-1.025.205-.318.137-.589.341-.81.615-.222.273-.371.612-.449,1.015l-.02.098h4.392Z" style="fill:#30373e; stroke-width:0px;"/><path d="m114.032,115.295l5.211-5.972h-5.152v-2.283h8.432v2.029l-5.035,5.953h5.094v2.283h-8.549v-2.01Z" style="fill:#30373e; stroke-width:0px;"/><path d="m10.843,127.113h2.693v.976c.234-.247.501-.458.8-.634.3-.176.664-.296,1.093-.361.391-.052.872-.039,1.444.039v2.615c-.352-.026-.709-.045-1.073-.058-.702,0-1.249.182-1.64.546-.39.364-.585.865-.585,1.502v5.64h-2.732v-10.265Z" style="fill:#30373e; stroke-width:0px;"/><path d="m20.104,136.93c-.749-.442-1.324-1.067-1.728-1.874s-.604-1.737-.604-2.791c0-1.041.198-1.968.595-2.781s.969-1.447,1.718-1.903c.748-.455,1.622-.683,2.625-.683s1.851.211,2.546.634c.696.423,1.22,1.012,1.571,1.766.352.755.527,1.62.527,2.596v1.054h-6.929v.02c.091.703.345,1.262.762,1.678.416.417.949.625,1.6.625.495,0,.934-.123,1.317-.371.384-.247.667-.631.85-1.151l2.342.917c-.442,1.028-1.044,1.773-1.806,2.235-.761.462-1.668.693-2.722.693-1.028,0-1.916-.221-2.664-.664Zm4.693-5.835v-.078c-.053-.585-.267-1.041-.645-1.366-.377-.325-.858-.488-1.443-.488-.365,0-.706.068-1.025.205-.318.137-.589.341-.81.615-.222.273-.371.612-.449,1.015l-.02.098h4.392Z" style="fill:#30373e; stroke-width:0px;"/><path d="m29.988,137.095c-.807-.332-1.477-.868-2.01-1.61l2.01-1.502c.378.468.768.807,1.171,1.015s.879.312,1.425.312h.117c.416,0,.78-.091,1.093-.273s.469-.429.469-.742c0-.234-.095-.416-.283-.546-.188-.13-.459-.234-.81-.312l-1.601-.371c-.924-.221-1.686-.543-2.283-.966-.599-.423-.897-1.064-.897-1.922,0-.676.198-1.262.595-1.756s.92-.872,1.571-1.132c.65-.26,1.347-.39,2.088-.39.768,0,1.474.15,2.117.449.645.3,1.246.761,1.806,1.386l-1.951,1.464c-.287-.325-.608-.576-.967-.751-.357-.176-.726-.264-1.103-.264h-.098c-.338,0-.653.068-.946.205s-.439.335-.439.595v.059c0,.195.071.341.215.439s.416.192.82.283l1.932.449c.819.182,1.499.481,2.039.898s.811,1.08.811,1.99c0,.729-.192,1.356-.576,1.883s-.904.927-1.562,1.2c-.657.273-1.382.41-2.176.41-.911,0-1.77-.166-2.576-.498Z" style="fill:#30373e; stroke-width:0px;"/><path d="m38.477,127.113h2.732v.897c.325-.351.729-.625,1.21-.819.481-.195,1.008-.293,1.581-.293.897,0,1.69.234,2.381.703.689.468,1.223,1.112,1.6,1.932.378.819.566,1.73.566,2.732,0,.989-.183,1.887-.547,2.693s-.891,1.447-1.58,1.922c-.69.475-1.497.712-2.42.712-.586,0-1.116-.098-1.591-.293-.476-.195-.875-.468-1.2-.82v4.372h-2.732v-13.739Zm6.626,7.445c.409-.449.641-1.09.692-1.922.026-.234.026-.469,0-.703-.026-.507-.134-.959-.322-1.356-.188-.396-.455-.712-.8-.946-.345-.234-.751-.352-1.22-.352-.43,0-.816.101-1.161.303s-.618.478-.819.829c-.202.352-.316.749-.342,1.19-.014.195-.02.414-.02.654s.006.465.02.673c.052.703.286,1.262.702,1.679.417.417.957.624,1.62.624.689,0,1.239-.224,1.649-.673Z" style="fill:#30373e; stroke-width:0px;"/><path d="m51.923,136.92c-.755-.449-1.334-1.077-1.737-1.883s-.604-1.743-.604-2.811c0-1.041.201-1.961.604-2.761s.982-1.428,1.737-1.883c.754-.455,1.646-.683,2.673-.683,1.055,0,1.958.225,2.713.673s1.327,1.077,1.718,1.883.585,1.73.585,2.771c0,1.067-.194,2.007-.585,2.82s-.963,1.441-1.718,1.883-1.658.664-2.713.664c-1.027,0-1.919-.225-2.673-.673Zm3.884-2.01c.338-.228.598-.537.78-.927.182-.391.279-.826.293-1.308v-.82c.025-.742-.17-1.363-.586-1.864-.416-.5-.982-.751-1.698-.751-.702,0-1.258.241-1.668.722-.41.481-.615,1.119-.615,1.913v.8c0,.481.091.917.273,1.308.183.39.445.699.79.927.345.228.752.341,1.22.341s.872-.113,1.211-.341Z" style="fill:#30373e; stroke-width:0px;"/><path d="m61.271,127.113h2.752v.897c.325-.338.709-.608,1.151-.81s.963-.303,1.562-.303c.741,0,1.382.16,1.922.478.54.319.946.771,1.22,1.356s.41,1.262.41,2.03v6.616h-2.732v-6.089c0-.572-.134-1.034-.4-1.386-.267-.351-.66-.527-1.181-.527-.351,0-.677.078-.976.234-.3.156-.54.377-.722.664-.183.286-.273.611-.273.976v6.128h-2.732v-10.265Z" style="fill:#30373e; stroke-width:0px;"/><path d="m73.468,137.095c-.807-.332-1.477-.868-2.01-1.61l2.01-1.502c.378.468.768.807,1.171,1.015s.879.312,1.425.312h.117c.416,0,.78-.091,1.093-.273s.469-.429.469-.742c0-.234-.095-.416-.283-.546-.188-.13-.459-.234-.81-.312l-1.601-.371c-.924-.221-1.686-.543-2.283-.966-.599-.423-.897-1.064-.897-1.922,0-.676.198-1.262.595-1.756s.92-.872,1.571-1.132c.65-.26,1.347-.39,2.088-.39.768,0,1.474.15,2.117.449.645.3,1.246.761,1.806,1.386l-1.951,1.464c-.287-.325-.608-.576-.967-.751-.357-.176-.726-.264-1.103-.264h-.098c-.338,0-.653.068-.946.205s-.439.335-.439.595v.059c0,.195.071.341.215.439s.416.192.82.283l1.932.449c.819.182,1.499.481,2.039.898s.811,1.08.811,1.99c0,.729-.192,1.356-.576,1.883s-.904.927-1.562,1.2c-.657.273-1.382.41-2.176.41-.911,0-1.77-.166-2.576-.498Z" style="fill:#30373e; stroke-width:0px;"/><path d="m83.099,137.163c-.565-.26-1.012-.634-1.337-1.122s-.487-1.05-.487-1.688c0-.911.321-1.62.966-2.127.644-.507,1.506-.878,2.586-1.112l2.615-.527v-.332c0-.377-.121-.638-.361-.781-.241-.143-.596-.215-1.063-.215-.508,0-.904.082-1.19.244s-.43.452-.43.868h-2.654c0-1.314.449-2.221,1.347-2.722s1.906-.751,3.025-.751c1.171,0,2.13.25,2.878.751s1.122,1.252,1.122,2.254v7.475h-2.575v-.566c-.339.234-.729.417-1.171.546-.443.13-.905.195-1.386.195-.69,0-1.317-.13-1.884-.391Zm3.337-2.029c.319-.143.566-.338.742-.585s.264-.534.264-.859v-.937l-1.913.371c-.599.13-1.005.29-1.22.478-.215.189-.322.426-.322.712,0,.364.12.628.361.791s.569.244.985.244.784-.071,1.103-.214Z" style="fill:#30373e; stroke-width:0px;"/><path d="m96.282,137.3c-.481-.195-.885-.468-1.21-.82v.898h-2.732v-14.012h2.732v4.645c.325-.351.725-.625,1.2-.819.475-.195,1.005-.293,1.591-.293.923,0,1.729.238,2.42.712.689.475,1.216,1.116,1.58,1.922s.547,1.705.547,2.693c0,1.002-.188,1.913-.566,2.732-.377.82-.91,1.464-1.6,1.932-.69.468-1.483.703-2.381.703-.573,0-1.1-.098-1.581-.293Zm2.703-2.83c.409-.495.634-1.132.673-1.913.026-.234.026-.468,0-.703-.052-.833-.283-1.474-.692-1.922-.41-.449-.96-.673-1.649-.673-.663,0-1.203.208-1.62.625-.416.417-.65.976-.702,1.678-.014.208-.02.433-.02.673s.006.459.02.654c.025.442.14.839.342,1.19.201.352.475.628.819.83s.731.303,1.161.303c.702,0,1.259-.247,1.669-.742Z" style="fill:#30373e; stroke-width:0px;"/><path d="m104.048,123.366h2.732v14.012h-2.732v-14.012Z" style="fill:#30373e; stroke-width:0px;"/><path d="m110.772,136.93c-.749-.442-1.324-1.067-1.728-1.874s-.604-1.737-.604-2.791c0-1.041.198-1.968.595-2.781s.969-1.447,1.718-1.903c.748-.455,1.622-.683,2.625-.683s1.851.211,2.546.634c.696.423,1.22,1.012,1.571,1.766.352.755.527,1.62.527,2.596v1.054h-6.929v.02c.091.703.345,1.262.762,1.678.416.417.949.625,1.6.625.495,0,.934-.123,1.317-.371.384-.247.667-.631.85-1.151l2.342.917c-.442,1.028-1.044,1.773-1.806,2.235-.761.462-1.668.693-2.722.693-1.028,0-1.916-.221-2.664-.664Zm4.693-5.835v-.078c-.053-.585-.267-1.041-.645-1.366-.377-.325-.858-.488-1.443-.488-.365,0-.706.068-1.025.205-.318.137-.589.341-.81.615-.222.273-.371.612-.449,1.015l-.02.098h4.392Z" style="fill:#30373e; stroke-width:0px;"/><path d="m119.641,127.113h2.752v.897c.247-.299.565-.556.956-.771.391-.215.885-.322,1.483-.322.585,0,1.119.117,1.601.351.48.234.891.566,1.229.996.377-.429.825-.761,1.346-.996.521-.234,1.094-.351,1.718-.351.755,0,1.425.166,2.01.498.586.332,1.038.794,1.356,1.386.319.592.479,1.266.479,2.02v6.557h-2.771v-6.089c0-.546-.107-.999-.322-1.356-.214-.357-.602-.537-1.161-.537-.338,0-.647.082-.927.244-.28.163-.501.387-.663.673-.163.287-.244.599-.244.937v6.128h-2.771v-6.089c0-.559-.117-1.015-.352-1.366-.233-.351-.611-.527-1.132-.527-.338,0-.647.082-.927.244-.28.163-.501.384-.663.664-.163.28-.244.595-.244.946v6.128h-2.752v-10.265Z" style="fill:#30373e; stroke-width:0px;"/><path d="m138.503,136.93c-.749-.442-1.324-1.067-1.728-1.874s-.604-1.737-.604-2.791c0-1.041.198-1.968.595-2.781s.969-1.447,1.718-1.903c.748-.455,1.622-.683,2.625-.683s1.851.211,2.546.634c.696.423,1.22,1.012,1.571,1.766.352.755.527,1.62.527,2.596v1.054h-6.929v.02c.091.703.345,1.262.762,1.678.416.417.949.625,1.6.625.495,0,.934-.123,1.317-.371.384-.247.667-.631.85-1.151l2.342.917c-.442,1.028-1.044,1.773-1.806,2.235-.761.462-1.668.693-2.722.693-1.028,0-1.916-.221-2.664-.664Zm4.693-5.835v-.078c-.053-.585-.267-1.041-.645-1.366-.377-.325-.858-.488-1.443-.488-.365,0-.706.068-1.025.205-.318.137-.589.341-.81.615-.222.273-.371.612-.449,1.015l-.02.098h4.392Z" style="fill:#30373e; stroke-width:0px;"/><path d="m147.374,127.113h2.752v.897c.325-.338.709-.608,1.151-.81s.963-.303,1.562-.303c.741,0,1.382.16,1.922.478.54.319.946.771,1.22,1.356s.41,1.262.41,2.03v6.616h-2.732v-6.089c0-.572-.134-1.034-.4-1.386-.267-.351-.66-.527-1.181-.527-.351,0-.677.078-.976.234-.3.156-.54.377-.722.664-.183.286-.273.611-.273.976v6.128h-2.732v-10.265Z" style="fill:#30373e; stroke-width:0px;"/><path d="m159.687,136.773c-.481-.455-.722-1.105-.722-1.952v-5.425h-1.483v-2.283h1.483v-2.928h2.713v2.928h2.127v2.283h-2.127v4.918c0,.221.064.39.194.507s.312.176.547.176c.442,0,.819-.013,1.132-.039v2.4c-.195.026-.481.049-.858.068-.378.02-.703.029-.976.029-.872,0-1.549-.228-2.03-.683Z" style="fill:#30373e; stroke-width:0px;"/><path d="m163.685,169.643h5.64c1.613,0,2.872.377,3.776,1.132.904.755,1.356,1.834,1.356,3.24,0,.95-.221,1.766-.663,2.449s-1.08,1.188-1.913,1.512l2.986,5.679h-3.182l-2.731-5.269h-2.439v5.269h-2.83v-14.012Zm7.436,5.776c.364-.377.547-.839.547-1.385,0-.689-.222-1.188-.664-1.493s-1.048-.458-1.814-.458h-2.674v3.903h2.674c.923,0,1.567-.188,1.932-.566Z" style="fill:#30373e; stroke-width:0px;"/><path d="m178.039,183.206c-.749-.442-1.324-1.067-1.728-1.874s-.604-1.737-.604-2.791c0-1.041.198-1.968.595-2.781s.969-1.447,1.718-1.903c.748-.455,1.622-.683,2.625-.683s1.851.211,2.546.634c.696.423,1.22,1.012,1.571,1.766.352.755.527,1.62.527,2.596v1.054h-6.929v.02c.091.703.345,1.262.762,1.678.416.417.949.625,1.6.625.495,0,.934-.123,1.317-.371.384-.247.667-.631.85-1.151l2.342.917c-.442,1.028-1.044,1.773-1.806,2.235-.761.462-1.668.693-2.722.693-1.028,0-1.916-.221-2.664-.664Zm4.693-5.835v-.078c-.053-.585-.267-1.041-.645-1.366-.377-.325-.858-.488-1.443-.488-.365,0-.706.068-1.025.205-.318.137-.589.341-.81.615-.222.273-.371.612-.449,1.015l-.02.098h4.392Z" style="fill:#30373e; stroke-width:0px;"/><path d="m187.923,183.372c-.807-.332-1.477-.868-2.01-1.61l2.01-1.502c.378.468.768.807,1.171,1.015s.879.312,1.425.312h.117c.416,0,.78-.091,1.093-.273s.469-.429.469-.742c0-.234-.095-.416-.283-.546-.188-.13-.459-.234-.81-.312l-1.601-.371c-.924-.221-1.686-.543-2.283-.966-.599-.423-.897-1.064-.897-1.922,0-.676.198-1.262.595-1.756s.92-.872,1.571-1.132c.65-.26,1.347-.39,2.088-.39.768,0,1.474.15,2.117.449.645.3,1.246.761,1.806,1.386l-1.951,1.464c-.287-.325-.608-.576-.967-.751-.357-.176-.726-.264-1.103-.264h-.098c-.338,0-.653.068-.946.205s-.439.335-.439.595v.059c0,.195.071.341.215.439s.416.192.82.283l1.932.449c.819.182,1.499.481,2.039.898s.811,1.08.811,1.99c0,.729-.192,1.356-.576,1.883s-.904.927-1.562,1.2c-.657.273-1.382.41-2.176.41-.911,0-1.77-.166-2.576-.498Z" style="fill:#30373e; stroke-width:0px;"/><path d="m196.413,173.39h2.732v.897c.325-.351.729-.625,1.21-.819.481-.195,1.008-.293,1.581-.293.897,0,1.69.234,2.381.703.689.468,1.223,1.112,1.6,1.932.378.819.566,1.73.566,2.732,0,.989-.183,1.887-.547,2.693s-.891,1.447-1.58,1.922c-.69.475-1.497.712-2.42.712-.586,0-1.116-.098-1.591-.293-.476-.195-.875-.468-1.2-.82v4.372h-2.732v-13.739Zm6.626,7.445c.409-.449.641-1.09.692-1.922.026-.234.026-.469,0-.703-.026-.507-.134-.959-.322-1.356-.188-.396-.455-.712-.8-.946-.345-.234-.751-.352-1.22-.352-.43,0-.816.101-1.161.303s-.618.478-.819.829c-.202.352-.316.749-.342,1.19-.014.195-.02.414-.02.654s.006.465.02.673c.052.703.286,1.262.702,1.679.417.417.957.624,1.62.624.689,0,1.239-.224,1.649-.673Z" style="fill:#30373e; stroke-width:0px;"/><path d="m209.849,183.206c-.749-.442-1.324-1.067-1.728-1.874s-.604-1.737-.604-2.791c0-1.041.198-1.968.595-2.781s.969-1.447,1.718-1.903c.748-.455,1.622-.683,2.625-.683s1.851.211,2.546.634c.696.423,1.22,1.012,1.571,1.766.352.755.527,1.62.527,2.596v1.054h-6.929v.02c.091.703.345,1.262.762,1.678.416.417.949.625,1.6.625.495,0,.934-.123,1.317-.371.384-.247.667-.631.85-1.151l2.342.917c-.442,1.028-1.044,1.773-1.806,2.235-.761.462-1.668.693-2.722.693-1.028,0-1.916-.221-2.664-.664Zm4.693-5.835v-.078c-.053-.585-.267-1.041-.645-1.366-.377-.325-.858-.488-1.443-.488-.365,0-.706.068-1.025.205-.318.137-.589.341-.81.615-.222.273-.371.612-.449,1.015l-.02.098h4.392Z" style="fill:#30373e; stroke-width:0px;"/><path d="m220.456,183.206c-.755-.442-1.334-1.064-1.737-1.864-.403-.8-.604-1.721-.604-2.762,0-1.054.201-1.991.604-2.81.403-.82.979-1.457,1.728-1.913.748-.455,1.636-.683,2.664-.683,1.015,0,1.905.241,2.673.722s1.354,1.229,1.757,2.244l-2.361.976c-.208-.599-.485-1.021-.83-1.269s-.764-.371-1.258-.371c-.794,0-1.373.273-1.737.82s-.547,1.269-.547,2.166v.195c0,.911.179,1.623.537,2.137.357.514.946.771,1.767.771.494,0,.937-.117,1.326-.351.391-.234.709-.637.957-1.21l2.342.976c-.43,1.002-1.054,1.734-1.874,2.196-.819.462-1.73.693-2.732.693-1.027,0-1.919-.221-2.673-.664Z" style="fill:#30373e; stroke-width:0px;"/><path d="m230.194,183.05c-.481-.455-.722-1.105-.722-1.952v-5.425h-1.483v-2.283h1.483v-2.928h2.713v2.928h2.127v2.283h-2.127v4.918c0,.221.064.39.194.507s.312.176.547.176c.442,0,.819-.013,1.132-.039v2.4c-.195.026-.481.049-.858.068-.378.02-.703.029-.976.029-.872,0-1.549-.228-2.03-.683Z" style="fill:#30373e; stroke-width:0px;"/><path d="m237.678,183.206c-.749-.442-1.324-1.067-1.728-1.874s-.604-1.737-.604-2.791c0-1.041.198-1.968.595-2.781s.969-1.447,1.718-1.903c.748-.455,1.622-.683,2.625-.683s1.851.211,2.546.634c.696.423,1.22,1.012,1.571,1.766.352.755.527,1.62.527,2.596v1.054h-6.929v.02c.091.703.345,1.262.762,1.678.416.417.949.625,1.6.625.495,0,.934-.123,1.317-.371.384-.247.667-.631.85-1.151l2.342.917c-.442,1.028-1.044,1.773-1.806,2.235-.761.462-1.668.693-2.722.693-1.028,0-1.916-.221-2.664-.664Zm4.693-5.835v-.078c-.053-.585-.267-1.041-.645-1.366-.377-.325-.858-.488-1.443-.488-.365,0-.706.068-1.025.205-.318.137-.589.341-.81.615-.222.273-.371.612-.449,1.015l-.02.098h4.392Z" style="fill:#30373e; stroke-width:0px;"/><path d="m245.904,181.645l5.211-5.972h-5.152v-2.283h8.432v2.029l-5.035,5.953h5.094v2.283h-8.549v-2.01Z" style="fill:#30373e; stroke-width:0px;"/><path d="m169.344,189.716h2.732v14.012h-2.732v-14.012Z" style="fill:#30373e; stroke-width:0px;"/><path d="m176.068,203.28c-.749-.442-1.324-1.067-1.728-1.874s-.604-1.737-.604-2.791c0-1.041.198-1.968.595-2.781s.969-1.447,1.718-1.903c.748-.455,1.622-.683,2.625-.683s1.851.211,2.546.634c.696.423,1.22,1.012,1.571,1.766.352.755.527,1.62.527,2.596v1.054h-6.929v.02c.091.703.345,1.262.762,1.678.416.417.949.625,1.6.625.495,0,.934-.123,1.317-.371.384-.247.667-.631.85-1.151l2.342.917c-.442,1.028-1.044,1.773-1.806,2.235-.761.462-1.668.693-2.722.693-1.028,0-1.916-.221-2.664-.664Zm4.693-5.835v-.078c-.053-.585-.267-1.041-.645-1.366-.377-.325-.858-.488-1.443-.488-.365,0-.706.068-1.025.205-.318.137-.589.341-.81.615-.222.273-.371.612-.449,1.015l-.02.098h4.392Z" style="fill:#30373e; stroke-width:0px;"/><path d="m185.952,203.445c-.807-.332-1.477-.868-2.01-1.61l2.01-1.502c.378.468.768.807,1.171,1.015s.879.312,1.425.312h.117c.416,0,.78-.091,1.093-.273s.469-.429.469-.742c0-.234-.095-.416-.283-.546-.188-.13-.459-.234-.81-.312l-1.601-.371c-.924-.221-1.686-.543-2.283-.966-.599-.423-.897-1.064-.897-1.922,0-.676.198-1.262.595-1.756s.92-.872,1.571-1.132c.65-.26,1.347-.39,2.088-.39.768,0,1.474.15,2.117.449.645.3,1.246.761,1.806,1.386l-1.951,1.464c-.287-.325-.608-.576-.967-.751-.357-.176-.726-.264-1.103-.264h-.098c-.338,0-.653.068-.946.205s-.439.335-.439.595v.059c0,.195.071.341.215.439s.416.192.82.283l1.932.449c.819.182,1.499.481,2.039.898s.811,1.08.811,1.99c0,.729-.192,1.356-.576,1.883s-.904.927-1.562,1.2c-.657.273-1.382.41-2.176.41-.911,0-1.77-.166-2.576-.498Z" style="fill:#30373e; stroke-width:0px;"/><path d="m199.505,203.513c-.565-.26-1.012-.634-1.337-1.122s-.487-1.05-.487-1.688c0-.911.321-1.62.966-2.127.644-.507,1.506-.878,2.586-1.112l2.615-.527v-.332c0-.377-.121-.638-.361-.781-.241-.143-.596-.215-1.063-.215-.508,0-.904.082-1.19.244s-.43.452-.43.868h-2.654c0-1.314.449-2.221,1.347-2.722s1.906-.751,3.025-.751c1.171,0,2.13.25,2.878.751s1.122,1.252,1.122,2.254v7.475h-2.575v-.566c-.339.234-.729.417-1.171.546-.443.13-.905.195-1.386.195-.69,0-1.317-.13-1.884-.391Zm3.337-2.029c.319-.143.566-.338.742-.585s.264-.534.264-.859v-.937l-1.913.371c-.599.13-1.005.29-1.22.478-.215.189-.322.426-.322.712,0,.364.12.628.361.791s.569.244.985.244.784-.071,1.103-.214Z" style="fill:#30373e; stroke-width:0px;"/><path d="m217.684,203.728h-2.752v-.898c-.325.339-.709.608-1.151.81s-.963.303-1.562.303c-.741,0-1.382-.16-1.922-.479-.54-.318-.946-.771-1.22-1.356s-.41-1.262-.41-2.03v-6.616h2.732v6.089c0,.573.133,1.034.4,1.386.267.351.66.527,1.181.527.351,0,.676-.078.976-.234.299-.156.54-.377.722-.664.183-.286.273-.611.273-.976v-6.128h2.732v10.265Z" style="fill:#30373e; stroke-width:0px;"/><path d="m221.06,203.123c-.481-.455-.722-1.105-.722-1.952v-5.425h-1.483v-2.283h1.483v-2.928h2.713v2.928h2.127v2.283h-2.127v4.918c0,.221.064.39.194.507s.312.176.547.176c.442,0,.819-.013,1.132-.039v2.4c-.195.026-.481.049-.858.068-.378.02-.703.029-.976.029-.872,0-1.549-.228-2.03-.683Z" style="fill:#30373e; stroke-width:0px;"/><path d="m226.817,193.463h2.693v.976c.234-.247.501-.458.8-.634.3-.176.664-.296,1.093-.361.391-.052.872-.039,1.444.039v2.615c-.352-.026-.709-.045-1.073-.058-.702,0-1.249.182-1.64.546-.39.364-.585.865-.585,1.502v5.64h-2.732v-10.265Z" style="fill:#30373e; stroke-width:0px;"/><path d="m236.078,203.28c-.749-.442-1.324-1.067-1.728-1.874s-.604-1.737-.604-2.791c0-1.041.198-1.968.595-2.781s.969-1.447,1.718-1.903c.748-.455,1.622-.683,2.625-.683s1.851.211,2.546.634c.696.423,1.22,1.012,1.571,1.766.352.755.527,1.62.527,2.596v1.054h-6.929v.02c.091.703.345,1.262.762,1.678.416.417.949.625,1.6.625.495,0,.934-.123,1.317-.371.384-.247.667-.631.85-1.151l2.342.917c-.442,1.028-1.044,1.773-1.806,2.235-.761.462-1.668.693-2.722.693-1.028,0-1.916-.221-2.664-.664Zm4.693-5.835v-.078c-.053-.585-.267-1.041-.645-1.366-.377-.325-.858-.488-1.443-.488-.365,0-.706.068-1.025.205-.318.137-.589.341-.81.615-.222.273-.371.612-.449,1.015l-.02.098h4.392Z" style="fill:#30373e; stroke-width:0px;"/><path d="m245.961,203.445c-.807-.332-1.477-.868-2.01-1.61l2.01-1.502c.378.468.768.807,1.171,1.015s.879.312,1.425.312h.117c.416,0,.78-.091,1.093-.273s.469-.429.469-.742c0-.234-.095-.416-.283-.546-.188-.13-.459-.234-.81-.312l-1.601-.371c-.924-.221-1.686-.543-2.283-.966-.599-.423-.897-1.064-.897-1.922,0-.676.198-1.262.595-1.756s.92-.872,1.571-1.132c.65-.26,1.347-.39,2.088-.39.768,0,1.474.15,2.117.449.645.3,1.246.761,1.806,1.386l-1.951,1.464c-.287-.325-.608-.576-.967-.751-.357-.176-.726-.264-1.103-.264h-.098c-.338,0-.653.068-.946.205s-.439.335-.439.595v.059c0,.195.071.341.215.439s.416.192.82.283l1.932.449c.819.182,1.499.481,2.039.898s.811,1.08.811,1.99c0,.729-.192,1.356-.576,1.883s-.904.927-1.562,1.2c-.657.273-1.382.41-2.176.41-.911,0-1.77-.166-2.576-.498Z" style="fill:#30373e; stroke-width:0px;"/><path d="m289.581,103.293h2.869v14.012h-2.869v-14.012Z" style="fill:#30373e; stroke-width:0px;"/><path d="m294.791,107.04h2.752v.897c.325-.338.709-.608,1.151-.81s.963-.303,1.562-.303c.741,0,1.382.16,1.922.478.54.319.946.771,1.22,1.356s.41,1.262.41,2.03v6.616h-2.732v-6.089c0-.572-.134-1.034-.4-1.386-.267-.351-.66-.527-1.181-.527-.351,0-.677.078-.976.234-.3.156-.54.377-.722.664-.183.286-.273.611-.273.976v6.128h-2.732v-10.265Z" style="fill:#30373e; stroke-width:0px;"/><path d="m306.149,109.323h-1.21v-2.283h1.21v-.234c0-1.093.293-1.955.878-2.586.586-.631,1.379-.946,2.381-.946.052,0,.527.02,1.425.059v2.381c-.521-.039-.95-.059-1.288-.059-.299,0-.507.078-.624.234-.117.156-.176.397-.176.722v.43h2.088v2.283h-2.088v7.982h-2.596v-7.982Z" style="fill:#30373e; stroke-width:0px;"/><path d="m313.799,116.847c-.755-.449-1.334-1.077-1.737-1.883s-.604-1.743-.604-2.811c0-1.041.201-1.961.604-2.761s.982-1.428,1.737-1.883c.754-.455,1.646-.683,2.673-.683,1.055,0,1.958.225,2.713.673s1.327,1.077,1.718,1.883.585,1.73.585,2.771c0,1.067-.194,2.007-.585,2.82s-.963,1.441-1.718,1.883-1.658.664-2.713.664c-1.027,0-1.919-.225-2.673-.673Zm3.884-2.01c.338-.228.598-.537.78-.927.182-.391.279-.826.293-1.308v-.82c.025-.742-.17-1.363-.586-1.864-.416-.5-.982-.751-1.698-.751-.702,0-1.258.241-1.668.722-.41.481-.615,1.119-.615,1.913v.8c0,.481.091.917.273,1.308.183.39.445.699.79.927.345.228.752.341,1.22.341s.872-.113,1.211-.341Z" style="fill:#30373e; stroke-width:0px;"/><path d="m323.147,107.04h2.693v.976c.234-.247.501-.458.8-.634.3-.176.664-.296,1.093-.361.391-.052.872-.039,1.444.039v2.615c-.352-.026-.709-.045-1.073-.058-.702,0-1.249.182-1.64.546-.39.364-.585.865-.585,1.502v5.64h-2.732v-10.265Z" style="fill:#30373e; stroke-width:0px;"/><path d="m330.679,107.04h2.752v.897c.247-.299.565-.556.956-.771.391-.215.885-.322,1.483-.322.585,0,1.119.117,1.601.351.48.234.891.566,1.229.996.377-.429.825-.761,1.346-.996.521-.234,1.094-.351,1.718-.351.755,0,1.425.166,2.01.498.586.332,1.038.794,1.356,1.386.319.592.479,1.266.479,2.02v6.557h-2.771v-6.089c0-.546-.107-.999-.322-1.356-.214-.357-.602-.537-1.161-.537-.338,0-.647.082-.927.244-.28.163-.501.387-.663.673-.163.287-.244.599-.244.937v6.128h-2.771v-6.089c0-.559-.117-1.015-.352-1.366-.233-.351-.611-.527-1.132-.527-.338,0-.647.082-.927.244-.28.163-.501.384-.663.664-.163.28-.244.595-.244.946v6.128h-2.752v-10.265Z" style="fill:#30373e; stroke-width:0px;"/><path d="m349.542,116.856c-.749-.442-1.324-1.067-1.728-1.874s-.604-1.737-.604-2.791c0-1.041.198-1.968.595-2.781s.969-1.447,1.718-1.903c.748-.455,1.622-.683,2.625-.683s1.851.211,2.546.634c.696.423,1.22,1.012,1.571,1.766.352.755.527,1.62.527,2.596v1.054h-6.929v.02c.091.703.345,1.262.762,1.678.416.417.949.625,1.6.625.495,0,.934-.123,1.317-.371.384-.247.667-.631.85-1.151l2.342.917c-.442,1.028-1.044,1.773-1.806,2.235-.761.462-1.668.693-2.722.693-1.028,0-1.916-.221-2.664-.664Zm4.693-5.835v-.078c-.053-.585-.267-1.041-.645-1.366-.377-.325-.858-.488-1.443-.488-.365,0-.706.068-1.025.205-.318.137-.589.341-.81.615-.222.273-.371.612-.449,1.015l-.02.098h4.392Z" style="fill:#30373e; stroke-width:0px;"/><path d="m357.767,115.295l5.211-5.972h-5.152v-2.283h8.432v2.029l-5.035,5.953h5.094v2.283h-8.549v-2.01Z" style="fill:#30373e; stroke-width:0px;"/><path d="m306.705,127.113h2.83l2.303,6.947,2.283-6.947h2.752l-3.708,10.265h-2.732l-3.728-10.265Z" style="fill:#30373e; stroke-width:0px;"/><path d="m319.761,136.92c-.755-.449-1.334-1.077-1.737-1.883s-.604-1.743-.604-2.811c0-1.041.201-1.961.604-2.761s.982-1.428,1.737-1.883c.754-.455,1.646-.683,2.673-.683,1.055,0,1.958.225,2.713.673s1.327,1.077,1.718,1.883.585,1.73.585,2.771c0,1.067-.194,2.007-.585,2.82s-.963,1.441-1.718,1.883-1.658.664-2.713.664c-1.027,0-1.919-.225-2.673-.673Zm3.884-2.01c.338-.228.598-.537.78-.927.182-.391.279-.826.293-1.308v-.82c.025-.742-.17-1.363-.586-1.864-.416-.5-.982-.751-1.698-.751-.702,0-1.258.241-1.668.722-.41.481-.615,1.119-.615,1.913v.8c0,.481.091.917.273,1.308.183.39.445.699.79.927.345.228.752.341,1.22.341s.872-.113,1.211-.341Z" style="fill:#30373e; stroke-width:0px;"/><path d="m338.046,137.378h-2.752v-.898c-.325.339-.709.608-1.151.81s-.963.303-1.562.303c-.741,0-1.382-.16-1.922-.479-.54-.318-.946-.771-1.22-1.356s-.41-1.262-.41-2.03v-6.616h2.732v6.089c0,.573.133,1.034.4,1.386.267.351.66.527,1.181.527.351,0,.676-.078.976-.234.299-.156.54-.377.722-.664.183-.286.273-.611.273-.976v-6.128h2.732v10.265Z" style="fill:#30373e; stroke-width:0px;"/><path d="m341.305,137.095c-.807-.332-1.477-.868-2.01-1.61l2.01-1.502c.378.468.768.807,1.171,1.015s.879.312,1.425.312h.117c.416,0,.78-.091,1.093-.273s.469-.429.469-.742c0-.234-.095-.416-.283-.546-.188-.13-.459-.234-.81-.312l-1.601-.371c-.924-.221-1.686-.543-2.283-.966-.599-.423-.897-1.064-.897-1.922,0-.676.198-1.262.595-1.756s.92-.872,1.571-1.132c.65-.26,1.347-.39,2.088-.39.768,0,1.474.15,2.117.449.645.3,1.246.761,1.806,1.386l-1.951,1.464c-.287-.325-.608-.576-.967-.751-.357-.176-.726-.264-1.103-.264h-.098c-.338,0-.653.068-.946.205s-.439.335-.439.595v.059c0,.195.071.341.215.439s.416.192.82.283l1.932.449c.819.182,1.499.481,2.039.898s.811,1.08.811,1.99c0,.729-.192,1.356-.576,1.883s-.904.927-1.562,1.2c-.657.273-1.382.41-2.176.41-.911,0-1.77-.166-2.576-.498Z" style="fill:#30373e; stroke-width:0px;"/><path d="m527.056,103.292h4.82c1.431,0,2.684.283,3.757.849,1.073.566,1.899,1.376,2.479,2.43.579,1.054.868,2.297.868,3.728s-.292,2.674-.878,3.728c-.586,1.054-1.412,1.864-2.479,2.43-1.067.566-2.316.849-3.747.849h-4.82v-14.012Zm7.094,11.007c.645-.364,1.139-.888,1.483-1.571.345-.683.518-1.493.518-2.43s-.173-1.747-.518-2.43-.839-1.207-1.483-1.571c-.644-.364-1.408-.546-2.293-.546h-1.99v9.094h2.01c.871,0,1.63-.182,2.273-.546Z" style="fill:#30373e; stroke-width:0px;"/><path d="m542.396,116.846c-.755-.449-1.334-1.077-1.737-1.883s-.604-1.743-.604-2.811c0-1.041.201-1.961.604-2.761s.982-1.428,1.737-1.883c.754-.455,1.646-.683,2.673-.683,1.055,0,1.958.225,2.713.673s1.327,1.077,1.718,1.883.585,1.73.585,2.771c0,1.067-.194,2.007-.585,2.82s-.963,1.441-1.718,1.883-1.658.664-2.713.664c-1.027,0-1.919-.225-2.673-.673Zm3.884-2.01c.338-.228.598-.537.78-.927.182-.391.279-.826.293-1.308v-.82c.025-.742-.17-1.363-.586-1.864-.416-.5-.982-.751-1.698-.751-.702,0-1.258.241-1.668.722-.41.481-.615,1.119-.615,1.913v.8c0,.481.091.917.273,1.308.183.39.445.699.79.927.345.228.752.341,1.22.341s.872-.113,1.211-.341Z" style="fill:#30373e; stroke-width:0px;"/><path d="m551.744,107.039h2.752v.897c.325-.338.709-.608,1.151-.81s.963-.303,1.562-.303c.741,0,1.382.16,1.922.478.54.319.946.771,1.22,1.356s.41,1.262.41,2.03v6.616h-2.732v-6.089c0-.572-.134-1.034-.4-1.386-.267-.351-.66-.527-1.181-.527-.351,0-.677.078-.976.234-.3.156-.54.377-.722.664-.183.286-.273.611-.273.976v6.128h-2.732v-10.265Z" style="fill:#30373e; stroke-width:0px;"/><path d="m562.945,107.039h2.752v.897c.325-.338.709-.608,1.151-.81s.963-.303,1.562-.303c.741,0,1.382.16,1.922.478.54.319.946.771,1.22,1.356s.41,1.262.41,2.03v6.616h-2.732v-6.089c0-.572-.134-1.034-.4-1.386-.267-.351-.66-.527-1.181-.527-.351,0-.677.078-.976.234-.3.156-.54.377-.722.664-.183.286-.273.611-.273.976v6.128h-2.732v-10.265Z" style="fill:#30373e; stroke-width:0px;"/><path d="m575.875,116.856c-.749-.442-1.324-1.067-1.728-1.874s-.604-1.737-.604-2.791c0-1.041.198-1.968.595-2.781s.969-1.447,1.718-1.903c.748-.455,1.622-.683,2.625-.683s1.851.211,2.546.634c.696.423,1.22,1.012,1.571,1.766.352.755.527,1.62.527,2.596v1.054h-6.929v.02c.091.703.345,1.262.762,1.678.416.417.949.625,1.6.625.495,0,.934-.123,1.317-.371.384-.247.667-.631.85-1.151l2.342.917c-.442,1.028-1.044,1.773-1.806,2.235-.761.462-1.668.693-2.722.693-1.028,0-1.916-.221-2.664-.664Zm4.693-5.835v-.078c-.053-.585-.267-1.041-.645-1.366-.377-.325-.858-.488-1.443-.488-.365,0-.706.068-1.025.205-.318.137-.589.341-.81.615-.222.273-.371.612-.449,1.015l-.02.098h4.392Z" style="fill:#30373e; stroke-width:0px;"/><path d="m584.1,115.294l5.211-5.972h-5.152v-2.283h8.432v2.029l-5.035,5.953h5.094v2.283h-8.549v-2.01Z" style="fill:#30373e; stroke-width:0px;"/><path d="m520.47,123.366h2.732v14.012h-2.732v-14.012Z" style="fill:#30373e; stroke-width:0px;"/><path d="m525.779,127.444c.221-.195.332-.481.332-.858v-.195h-1.347v-3.025h3.2v3.064c0,.858-.29,1.539-.868,2.039-.579.501-1.356.758-2.332.771v-1.444c.455-.039.793-.156,1.015-.352Z" style="fill:#30373e; stroke-width:0px;"/><path d="m531.252,136.929c-.749-.442-1.324-1.067-1.728-1.874s-.604-1.737-.604-2.791c0-1.041.198-1.968.595-2.781s.969-1.447,1.718-1.903c.748-.455,1.622-.683,2.625-.683s1.851.211,2.546.634c.696.423,1.22,1.012,1.571,1.766.352.755.527,1.62.527,2.596v1.054h-6.929v.02c.091.703.345,1.262.762,1.678.416.417.949.625,1.6.625.495,0,.934-.123,1.317-.371.384-.247.667-.631.85-1.151l2.342.917c-.442,1.028-1.044,1.773-1.806,2.235-.761.462-1.668.693-2.722.693-1.028,0-1.916-.221-2.664-.664Zm4.693-5.835v-.078c-.053-.585-.267-1.041-.645-1.366-.377-.325-.858-.488-1.443-.488-.365,0-.706.068-1.025.205-.318.137-.589.341-.81.615-.222.273-.371.612-.449,1.015l-.02.098h4.392Z" style="fill:#30373e; stroke-width:0px;"/><path d="m541.976,132.07l-3.337-4.957h3.044l1.933,2.947,1.951-2.947h2.928l-3.337,4.957,3.591,5.308h-3.045l-2.186-3.279-2.186,3.279h-2.928l3.571-5.308Z" style="fill:#30373e; stroke-width:0px;"/><path d="m551.588,136.929c-.749-.442-1.324-1.067-1.728-1.874s-.604-1.737-.604-2.791c0-1.041.198-1.968.595-2.781s.969-1.447,1.718-1.903c.748-.455,1.622-.683,2.625-.683s1.851.211,2.546.634c.696.423,1.22,1.012,1.571,1.766.352.755.527,1.62.527,2.596v1.054h-6.929v.02c.091.703.345,1.262.762,1.678.416.417.949.625,1.6.625.495,0,.934-.123,1.317-.371.384-.247.667-.631.85-1.151l2.342.917c-.442,1.028-1.044,1.773-1.806,2.235-.761.462-1.668.693-2.722.693-1.028,0-1.916-.221-2.664-.664Zm4.693-5.835v-.078c-.053-.585-.267-1.041-.645-1.366-.377-.325-.858-.488-1.443-.488-.365,0-.706.068-1.025.205-.318.137-.589.341-.81.615-.222.273-.371.612-.449,1.015l-.02.098h4.392Z" style="fill:#30373e; stroke-width:0px;"/><path d="m560.458,127.113h2.752v.897c.247-.299.565-.556.956-.771.391-.215.885-.322,1.483-.322.585,0,1.119.117,1.601.351.48.234.891.566,1.229.996.377-.429.825-.761,1.346-.996.521-.234,1.094-.351,1.718-.351.755,0,1.425.166,2.01.498.586.332,1.038.794,1.356,1.386.319.592.479,1.266.479,2.02v6.557h-2.771v-6.089c0-.546-.107-.999-.322-1.356-.214-.357-.602-.537-1.161-.537-.338,0-.647.082-.927.244-.28.163-.501.387-.663.673-.163.287-.244.599-.244.937v6.128h-2.771v-6.089c0-.559-.117-1.015-.352-1.366-.233-.351-.611-.527-1.132-.527-.338,0-.647.082-.927.244-.28.163-.501.384-.663.664-.163.28-.244.595-.244.946v6.128h-2.752v-10.265Z" style="fill:#30373e; stroke-width:0px;"/><path d="m577.592,127.113h2.732v.897c.325-.351.729-.625,1.21-.819.481-.195,1.008-.293,1.581-.293.897,0,1.69.234,2.381.703.689.468,1.223,1.112,1.6,1.932.378.819.566,1.73.566,2.732,0,.989-.183,1.887-.547,2.693s-.891,1.447-1.58,1.922c-.69.475-1.497.712-2.42.712-.586,0-1.116-.098-1.591-.293-.476-.195-.875-.468-1.2-.82v4.372h-2.732v-13.739Zm6.626,7.445c.409-.449.641-1.09.692-1.922.026-.234.026-.469,0-.703-.026-.507-.134-.959-.322-1.356-.188-.396-.455-.712-.8-.946-.345-.234-.751-.352-1.22-.352-.43,0-.816.101-1.161.303s-.618.478-.819.829c-.202.352-.316.749-.342,1.19-.014.195-.02.414-.02.654s.006.465.02.673c.052.703.286,1.262.702,1.679.417.417.957.624,1.62.624.689,0,1.239-.224,1.649-.673Z" style="fill:#30373e; stroke-width:0px;"/><path d="m589.302,123.366h2.732v14.012h-2.732v-14.012Z" style="fill:#30373e; stroke-width:0px;"/><path d="m596.025,136.929c-.749-.442-1.324-1.067-1.728-1.874s-.604-1.737-.604-2.791c0-1.041.198-1.968.595-2.781s.969-1.447,1.718-1.903c.748-.455,1.622-.683,2.625-.683s1.851.211,2.546.634c.696.423,1.22,1.012,1.571,1.766.352.755.527,1.62.527,2.596v1.054h-6.929v.02c.091.703.345,1.262.762,1.678.416.417.949.625,1.6.625.495,0,.934-.123,1.317-.371.384-.247.667-.631.85-1.151l2.342.917c-.442,1.028-1.044,1.773-1.806,2.235-.761.462-1.668.693-2.722.693-1.028,0-1.916-.221-2.664-.664Zm4.693-5.835v-.078c-.053-.585-.267-1.041-.645-1.366-.377-.325-.858-.488-1.443-.488-.365,0-.706.068-1.025.205-.318.137-.589.341-.81.615-.222.273-.371.612-.449,1.015l-.02.098h4.392Z" style="fill:#30373e; stroke-width:0px;"/><path d="m403.352,169.642h9.68v2.479h-6.85v3.123h5.737v2.459h-5.737v3.474h6.85v2.479h-9.68v-14.012Zm4.84-3.767h3.688l-3.083,2.986h-2.226l1.62-2.986Z" style="fill:#30373e; stroke-width:0px;"/><path d="m413.442,173.389h2.83l2.303,6.947,2.283-6.947h2.752l-3.708,10.265h-2.732l-3.728-10.265Z" style="fill:#30373e; stroke-width:0px;"/><path d="m424.721,169.642h2.791v2.537h-2.791v-2.537Zm.039,3.747h2.732v10.265h-2.732v-10.265Z" style="fill:#30373e; stroke-width:0px;"/><path d="m430.849,183.05c-.481-.455-.722-1.105-.722-1.952v-5.425h-1.483v-2.283h1.483v-2.928h2.713v2.928h2.127v2.283h-2.127v4.918c0,.221.064.39.194.507s.312.176.547.176c.442,0,.819-.013,1.132-.039v2.4c-.195.026-.481.049-.858.068-.378.02-.703.029-.976.029-.872,0-1.549-.228-2.03-.683Z" style="fill:#30373e; stroke-width:0px;"/><path d="m438.334,183.206c-.749-.442-1.324-1.067-1.728-1.874s-.604-1.737-.604-2.791c0-1.041.198-1.968.595-2.781s.969-1.447,1.718-1.903c.748-.455,1.622-.683,2.625-.683s1.851.211,2.546.634c.696.423,1.22,1.012,1.571,1.766.352.755.527,1.62.527,2.596v1.054h-6.929v.02c.091.703.345,1.262.762,1.678.416.417.949.625,1.6.625.495,0,.934-.123,1.317-.371.384-.247.667-.631.85-1.151l2.342.917c-.442,1.028-1.044,1.773-1.806,2.235-.761.462-1.668.693-2.722.693-1.028,0-1.916-.221-2.664-.664Zm4.693-5.835v-.078c-.053-.585-.267-1.041-.645-1.366-.377-.325-.858-.488-1.443-.488-.365,0-.706.068-1.025.205-.318.137-.589.341-.81.615-.222.273-.371.612-.449,1.015l-.02.098h4.392Z" style="fill:#30373e; stroke-width:0px;"/><path d="m446.559,181.644l5.211-5.972h-5.152v-2.283h8.432v2.029l-5.035,5.953h5.094v2.283h-8.549v-2.01Z" style="fill:#30373e; stroke-width:0px;"/><path d="m460.864,169.642h2.732v14.012h-2.732v-14.012Z" style="fill:#30373e; stroke-width:0px;"/><path d="m467.587,183.206c-.749-.442-1.324-1.067-1.728-1.874s-.604-1.737-.604-2.791c0-1.041.198-1.968.595-2.781s.969-1.447,1.718-1.903c.748-.455,1.622-.683,2.625-.683s1.851.211,2.546.634c.696.423,1.22,1.012,1.571,1.766.352.755.527,1.62.527,2.596v1.054h-6.929v.02c.091.703.345,1.262.762,1.678.416.417.949.625,1.6.625.495,0,.934-.123,1.317-.371.384-.247.667-.631.85-1.151l2.342.917c-.442,1.028-1.044,1.773-1.806,2.235-.761.462-1.668.693-2.722.693-1.028,0-1.916-.221-2.664-.664Zm4.693-5.835v-.078c-.053-.585-.267-1.041-.645-1.366-.377-.325-.858-.488-1.443-.488-.365,0-.706.068-1.025.205-.318.137-.589.341-.81.615-.222.273-.371.612-.449,1.015l-.02.098h4.392Z" style="fill:#30373e; stroke-width:0px;"/><path d="m477.471,183.371c-.807-.332-1.477-.868-2.01-1.61l2.01-1.502c.378.468.768.807,1.171,1.015s.879.312,1.425.312h.117c.416,0,.78-.091,1.093-.273s.469-.429.469-.742c0-.234-.095-.416-.283-.546-.188-.13-.459-.234-.81-.312l-1.601-.371c-.924-.221-1.686-.543-2.283-.966-.599-.423-.897-1.064-.897-1.922,0-.676.198-1.262.595-1.756s.92-.872,1.571-1.132c.65-.26,1.347-.39,2.088-.39.768,0,1.474.15,2.117.449.645.3,1.246.761,1.806,1.386l-1.951,1.464c-.287-.325-.608-.576-.967-.751-.357-.176-.726-.264-1.103-.264h-.098c-.338,0-.653.068-.946.205s-.439.335-.439.595v.059c0,.195.071.341.215.439s.416.192.82.283l1.932.449c.819.182,1.499.481,2.039.898s.811,1.08.811,1.99c0,.729-.192,1.356-.576,1.883s-.904.927-1.562,1.2c-.657.273-1.382.41-2.176.41-.911,0-1.77-.166-2.576-.498Z" style="fill:#30373e; stroke-width:0px;"/><path d="m385.242,201.718l5.211-5.972h-5.152v-2.283h8.432v2.029l-5.035,5.953h5.094v2.283h-8.549v-2.01Z" style="fill:#30373e; stroke-width:0px;"/><path d="m397.342,203.269c-.755-.449-1.334-1.077-1.737-1.883s-.604-1.743-.604-2.811c0-1.041.201-1.961.604-2.761s.982-1.428,1.737-1.883c.754-.455,1.646-.683,2.673-.683,1.055,0,1.958.225,2.713.673s1.327,1.077,1.718,1.883.585,1.73.585,2.771c0,1.067-.194,2.007-.585,2.82s-.963,1.441-1.718,1.883-1.658.664-2.713.664c-1.027,0-1.919-.225-2.673-.673Zm3.884-2.01c.338-.228.598-.537.78-.927.182-.391.279-.826.293-1.308v-.82c.025-.742-.17-1.363-.586-1.864-.416-.5-.982-.751-1.698-.751-.702,0-1.258.241-1.668.722-.41.481-.615,1.119-.615,1.913v.8c0,.481.091.917.273,1.308.183.39.445.699.79.927.345.228.752.341,1.22.341s.872-.113,1.211-.341Z" style="fill:#30373e; stroke-width:0px;"/><path d="m406.69,193.463h2.752v.897c.325-.338.709-.608,1.151-.81s.963-.303,1.562-.303c.741,0,1.382.16,1.922.478.54.319.946.771,1.22,1.356s.41,1.262.41,2.03v6.616h-2.732v-6.089c0-.572-.134-1.034-.4-1.386-.267-.351-.66-.527-1.181-.527-.351,0-.677.078-.976.234-.3.156-.54.377-.722.664-.183.286-.273.611-.273.976v6.128h-2.732v-10.265Z" style="fill:#30373e; stroke-width:0px;"/><path d="m419.619,203.279c-.749-.442-1.324-1.067-1.728-1.874s-.604-1.737-.604-2.791c0-1.041.198-1.968.595-2.781s.969-1.447,1.718-1.903c.748-.455,1.622-.683,2.625-.683s1.851.211,2.546.634c.696.423,1.22,1.012,1.571,1.766.352.755.527,1.62.527,2.596v1.054h-6.929v.02c.091.703.345,1.262.762,1.678.416.417.949.625,1.6.625.495,0,.934-.123,1.317-.371.384-.247.667-.631.85-1.151l2.342.917c-.442,1.028-1.044,1.773-1.806,2.235-.761.462-1.668.693-2.722.693-1.028,0-1.916-.221-2.664-.664Zm4.693-5.835v-.078c-.053-.585-.267-1.041-.645-1.366-.377-.325-.858-.488-1.443-.488-.365,0-.706.068-1.025.205-.318.137-.589.341-.81.615-.222.273-.371.612-.449,1.015l-.02.098h4.392Z" style="fill:#30373e; stroke-width:0px;"/><path d="m429.502,203.445c-.807-.332-1.477-.868-2.01-1.61l2.01-1.502c.378.468.768.807,1.171,1.015s.879.312,1.425.312h.117c.416,0,.78-.091,1.093-.273s.469-.429.469-.742c0-.234-.095-.416-.283-.546-.188-.13-.459-.234-.81-.312l-1.601-.371c-.924-.221-1.686-.543-2.283-.966-.599-.423-.897-1.064-.897-1.922,0-.676.198-1.262.595-1.756s.92-.872,1.571-1.132c.65-.26,1.347-.39,2.088-.39.768,0,1.474.15,2.117.449.645.3,1.246.761,1.806,1.386l-1.951,1.464c-.287-.325-.608-.576-.967-.751-.357-.176-.726-.264-1.103-.264h-.098c-.338,0-.653.068-.946.205s-.439.335-.439.595v.059c0,.195.071.341.215.439s.416.192.82.283l1.932.449c.819.182,1.499.481,2.039.898s.811,1.08.811,1.99c0,.729-.192,1.356-.576,1.883s-.904.927-1.562,1.2c-.657.273-1.382.41-2.176.41-.911,0-1.77-.166-2.576-.498Z" style="fill:#30373e; stroke-width:0px;"/><path d="m442.09,195.746h-1.21v-2.283h1.21v-.234c0-1.093.293-1.955.878-2.586.586-.631,1.379-.946,2.381-.946.052,0,.527.02,1.425.059v2.381c-.521-.039-.95-.059-1.288-.059-.299,0-.507.078-.624.234-.117.156-.176.397-.176.722v.43h2.088v2.283h-2.088v7.982h-2.596v-7.982Z" style="fill:#30373e; stroke-width:0px;"/><path d="m448.003,193.463h2.693v.976c.234-.247.501-.458.8-.634.3-.176.664-.296,1.093-.361.391-.052.872-.039,1.444.039v2.615c-.352-.026-.709-.045-1.073-.058-.702,0-1.249.182-1.64.546-.39.364-.585.865-.585,1.502v5.64h-2.732v-10.265Z" style="fill:#30373e; stroke-width:0px;"/><path d="m456.385,203.513c-.565-.26-1.012-.634-1.337-1.122s-.487-1.05-.487-1.688c0-.911.321-1.62.966-2.127.644-.507,1.506-.878,2.586-1.112l2.615-.527v-.332c0-.377-.121-.638-.361-.781-.241-.143-.596-.215-1.063-.215-.508,0-.904.082-1.19.244s-.43.452-.43.868h-2.654c0-1.314.449-2.221,1.347-2.722s1.906-.751,3.025-.751c1.171,0,2.13.25,2.878.751s1.122,1.252,1.122,2.254v7.475h-2.575v-.566c-.339.234-.729.417-1.171.546-.443.13-.905.195-1.386.195-.69,0-1.317-.13-1.884-.391Zm3.337-2.029c.319-.143.566-.338.742-.585s.264-.534.264-.859v-.937l-1.913.371c-.599.13-1.005.29-1.22.478-.215.189-.322.426-.322.712,0,.364.12.628.361.791s.569.244.985.244.784-.071,1.103-.214Z" style="fill:#30373e; stroke-width:0px;"/><path d="m467.06,206.948c-.813-.495-1.402-1.243-1.767-2.245l2.537-.878c.156.52.413.914.771,1.181.357.267.81.4,1.356.4h.136c.729,0,1.282-.192,1.659-.576s.579-.946.605-1.688l.02-.468c-.43.338-.879.569-1.347.693-.469.124-.918.185-1.347.185-.897,0-1.698-.234-2.4-.703-.703-.468-1.249-1.096-1.64-1.883-.391-.787-.585-1.642-.585-2.566,0-.95.179-1.818.536-2.605s.878-1.408,1.562-1.864c.683-.455,1.493-.683,2.43-.683.585,0,1.115.098,1.591.293.475.195.874.468,1.2.819v-.897h2.731v9.387c0,.911-.188,1.734-.565,2.469-.378.735-.95,1.314-1.718,1.737-.768.422-1.711.634-2.829.634-1.146,0-2.125-.248-2.938-.742Zm4.82-6.382c.396-.494.596-1.151.596-1.971v-.234c0-.807-.212-1.467-.635-1.981-.423-.514-.979-.771-1.669-.771-.754,0-1.327.238-1.717.712-.391.475-.599,1.116-.625,1.922v.292c.026.833.231,1.503.615,2.01s.953.761,1.707.761,1.33-.247,1.728-.742Z" style="fill:#30373e; stroke-width:0px;"/><path d="m477.335,189.716h2.791v2.537h-2.791v-2.537Zm.039,3.747h2.732v10.265h-2.732v-10.265Z" style="fill:#30373e; stroke-width:0px;"/><path d="m482.35,189.716h2.732v14.012h-2.732v-14.012Z" style="fill:#30373e; stroke-width:0px;"/><path d="m489.074,203.279c-.749-.442-1.324-1.067-1.728-1.874s-.604-1.737-.604-2.791c0-1.041.198-1.968.595-2.781s.969-1.447,1.718-1.903c.748-.455,1.622-.683,2.625-.683s1.851.211,2.546.634c.696.423,1.22,1.012,1.571,1.766.352.755.527,1.62.527,2.596v1.054h-6.929v.02c.091.703.345,1.262.762,1.678.416.417.949.625,1.6.625.495,0,.934-.123,1.317-.371.384-.247.667-.631.85-1.151l2.342.917c-.442,1.028-1.044,1.773-1.806,2.235-.761.462-1.668.693-2.722.693-1.028,0-1.916-.221-2.664-.664Zm4.693-5.835v-.078c-.053-.585-.267-1.041-.645-1.366-.377-.325-.858-.488-1.443-.488-.365,0-.706.068-1.025.205-.318.137-.589.341-.81.615-.222.273-.371.612-.449,1.015l-.02.098h4.392Z" style="fill:#30373e; stroke-width:0px;"/><path d="m498.958,203.445c-.807-.332-1.477-.868-2.01-1.61l2.01-1.502c.378.468.768.807,1.171,1.015s.879.312,1.425.312h.117c.416,0,.78-.091,1.093-.273s.469-.429.469-.742c0-.234-.095-.416-.283-.546-.188-.13-.459-.234-.81-.312l-1.601-.371c-.924-.221-1.686-.543-2.283-.966-.599-.423-.897-1.064-.897-1.922,0-.676.198-1.262.595-1.756s.92-.872,1.571-1.132c.65-.26,1.347-.39,2.088-.39.768,0,1.474.15,2.117.449.645.3,1.246.761,1.806,1.386l-1.951,1.464c-.287-.325-.608-.576-.967-.751-.357-.176-.726-.264-1.103-.264h-.098c-.338,0-.653.068-.946.205s-.439.335-.439.595v.059c0,.195.071.341.215.439s.416.192.82.283l1.932.449c.819.182,1.499.481,2.039.898s.811,1.08.811,1.99c0,.729-.192,1.356-.576,1.883s-.904.927-1.562,1.2c-.657.273-1.382.41-2.176.41-.911,0-1.77-.166-2.576-.498Z" style="fill:#30373e; stroke-width:0px;"/></svg>