<?xml version="1.0" encoding="UTF-8"?><svg id="uuid-8d152e54-7e74-4a00-8dec-2a6057bd3178" xmlns="http://www.w3.org/2000/svg" width="39" height="39" viewBox="0 0 39 39"><circle cx="19.5" cy="19.5" r="18.4757" style="fill:#f4ae3d;"/><path d="m13.7415,30.7677c-1.0812-.6304-2.0056-2.2788-3.0801-3.3466-2.9491-2.9309-2.5759-2.2577-2.5001-6.6801.5274.3106.6526.6625.9932,1.1031l2.037,2.0928c.5473.4958.2449.7928,1.0538,1.1103.122-4.5936.0119-11.6198.0132-16.3751l2.8974-.0024.1204,16.297c1.2282-.9463,3.4202-4.1541,3.766-4.4844.3752.4476.3467,2.9474.2289,3.731-.1351.8986-1.989,2.4141-2.6552,3.356-.6991.9888-.3283.4205-.9194,1.0844-.5269.5919-1.2814,1.7101-1.9551,2.114h0Zm6.2915-11.7748c-.221-.5435-.2687-2.7303-.1071-3.3459.1608-.6136,1.3153-1.5102,1.7593-1.8946.3495-.3027.5915-.5179.8788-.8925.5869-.7663,1.0797-1.1445,1.8143-1.8412.3215-.3052.5902-.6184.9246-.9474.4465.1583,1.3.9723,1.6395,1.3032,1.1927,1.1634,1.441,1.648,3.1125,3.0238,1.3405,1.1035,1.0013,1.851.9476,4.3757-.4665-.1787-.6735-.5845-.9849-.9148-.3935-.4172-.6053-.3811-1.0054-.8833-.8694-1.0908-.48-.2573-1.4082-1.4213-.2231-.2799-.2897-.3189-.6909-.4868l-.011,14.2827-2.8799-.0215c-.1535-4.5671-.0329-9.4747-.1329-14.1914l-3.3164,3.4079c-.0331.0407-.1816.2194-.2166.2516-.1949.1798-.0565.1461-.3234.196h0Zm-2.4369-15.0851c-2.3554.2939-4.1309.9241-5.9343,1.9473-5.1987,2.9495-8.6616,9.0403-7.7674,15.7147,1.0643,7.9443,8.3125,14.6719,17.6234,13.502,7.8848-.9907,14.6851-8.3454,13.546-17.5262-.9834-7.926-8.2571-14.7869-17.4677-13.6378h0Z" style="fill:#30373e; fill-rule:evenodd;"/><path d="m17.5961,3.9078c9.2106-1.1491,16.4842,5.7118,17.4677,13.6378,1.1392,9.1808-5.6611,16.5355-13.546,17.5262-9.3109,1.1699-16.5591-5.5578-17.6234-13.502-.8942-6.6744,2.5687-12.7653,7.7674-15.7147,1.8033-1.0232,3.5789-1.6533,5.9343-1.9473h0Zm1.5746,33.296c6.2651,0,11.3683-2.7641,14.8397-7.5852l.8178-1.3068c.5411-.9998.9835-1.8258,1.3852-2.9817.5311-1.5291.8156-3.0177.8973-4.6514.0252-.5045.1494-.6236.1592-.9229.0201-.6097-.1408-1.1683-.1581-1.9095-.0701-3.0292-1.8789-7.0259-3.8147-9.4041-3.1197-3.833-8.0659-6.6461-13.1822-6.6461-4.4059,0-7.7057.9448-11.0448,3.3543-3.3488,2.4164-6.0739,6.4023-6.9063,10.5616-.4177,2.0871-.3579,2.2341-.4051,2.7862-.0659.7711-.0148.745.0639,1.9386.2442,3.6955,1.0179,6.0038,3.0194,9.0249,1.7531,2.6456,4.2633,4.6795,7.1273,6.0914,1.7328.8542,4.6094,1.6507,7.2013,1.6507h0Z" style="fill:#f4ae3d; fill-rule:evenodd;"/><path d="m13.7415,30.7677c.6737-.4039,1.4283-1.5221,1.9551-2.114.5911-.6639.2203-.0957.9194-1.0844.6662-.9419,2.5201-2.4574,2.6552-3.356.1178-.7836.1463-3.2835-.2289-3.731-.3458.3304-2.5378,3.5382-3.766,4.4844l-.1204-16.297-2.8974.0024c-.0013,4.7553.1088,11.7815-.0132,16.3751-.8088-.3175-.5065-.6145-1.0538-1.1103l-2.037-2.0928c-.3406-.4406-.4658-.7925-.9932-1.1031-.0758,4.4225-.449,3.7492,2.5001,6.6801,1.0745,1.0677,1.9989,2.7162,3.0801,3.3466h0Z" style="fill:#f4ae3d; fill-rule:evenodd;"/><path d="m20.033,18.9929c.2669-.0499.1285-.0162.3234-.196.035-.0322.1835-.2109.2166-.2516l3.3164-3.4079c.0999,4.7167-.0206,9.6243.1329,14.1914l2.8799.0215.011-14.2827c.4012.1679.4678.2069.6909.4868.9283,1.164.5388.3305,1.4082,1.4213.4001.5022.6119.4662,1.0054.8833.3114.3304.5184.7361.9849.9148.0537-2.5247.3929-3.2723-.9476-4.3757-1.6716-1.3757-1.9198-1.8603-3.1125-3.0238-.3395-.3309-1.1931-1.1449-1.6395-1.3032-.3344.329-.6031.6423-.9246.9474-.7347.6967-1.2275,1.0749-1.8143,1.8412-.2873.3747-.5293.5898-.8788.8925-.4441.3844-1.5985,1.281-1.7593,1.8946-.1616.6156-.1139,2.8025.1071,3.3459h0Z" style="fill:#f4ae3d; fill-rule:evenodd;"/></svg>