<?xml version="1.0" encoding="UTF-8"?><svg id="uuid-6554090f-36c1-4868-bff2-67c62f64adba" xmlns="http://www.w3.org/2000/svg" width="436" height="172.3961" viewBox="0 0 436 172.3961"><path d="m333.6812,26.0874c-21.98-10.1799-35.28-10.3899-35.28-10.3899,0,0-6.69-1.0601-7.75,5.1599h-1.54v.3599h-1.52l.58-1.9697c-1.81-3.5103-3.6-5.4302-5.36-5.4302h-30.51c-2.66,0-5.45,1.97-5.8,6.5h-7l-.18-2.0698c-.12-4.4302-4.4-4.4302-4.4-4.4302h-40.53c-3.96,0-4.44,2.3701-4.44,2.3701l-.6,4.1299h-7.3c-.35-4.53-3.14-6.5-5.8-6.5h-30.51c-1.76,0-3.55,1.9199-5.36,5.4302l.58,1.9697h-1.52v-.3599h-1.54c-1.07-6.22-7.75-5.1599-7.75-5.1599,0,0-13.3101.21-35.28,10.3899C51.7212,46.0674,13.1412,134.1675,13.1412,197.3774c0,.05,43.16.0601,101.19.0601,61.13,0,138.77-.01,199.89-.03,58.03-.02,101.1801-.03,101.1801-.03-13.47-61.76-38.58-151.3101-81.72-171.29Z" style="fill:#f4f4f4; stroke-width:0px;"/><path d="m13.1446,197.2425C26.618,135.4823,51.7238,45.925,94.8708,25.9443c21.9753-10.1764,35.2805-10.3855,35.2805-10.3855,0,0,6.6811-1.0581,7.7467,5.1575h2.9125" style="fill:none; stroke:#a6abb0; stroke-miterlimit:10;"/><path d="m98.7412,197.2474c4.3-69.26,12.83-116.43,20.25-144.07" style="fill:none; stroke:#a6abb0; stroke-miterlimit:10; stroke-width:.5px;"/><path d="m121.3412,44.9074c2.91-9.59,5.53-15.96,7.5-19.3,2.13-3.6,4.93-4.75,9.06-4.75" style="fill:none; stroke:#a6abb0; stroke-miterlimit:10; stroke-width:.5px;"/><path d="m169.5212,197.2474c0-51.31,4.01-110.13,6.84-144.15" style="fill:none; stroke:#a6abb0; stroke-miterlimit:10; stroke-width:.5px;"/><path d="m177.0612,44.9074c1.04-11.95,1.82-19.38,1.99-20.14.61-2.81,1.1-4.45,3-4.45" style="fill:none; stroke:#a6abb0; stroke-miterlimit:10; stroke-width:.5px;"/><path d="m119.4112,32.0374c-1.22,2.97-2.5,6.49-3.8,10.65" style="fill:none; stroke:#a6abb0; stroke-miterlimit:10; stroke-width:.5px;"/><path d="m113.4512,50.0574v.01c-.66,2.4-1.32,4.97-2,7.72" style="fill:none; stroke:#a6abb0; stroke-miterlimit:10; stroke-width:.5px;"/><path d="m108.1612,72.6374c-.57,2.81-1.14,5.77-1.72,8.87" style="fill:none; stroke:#a6abb0; stroke-miterlimit:10; stroke-width:.5px;"/><path d="m104.2812,93.8574c-.64,3.81-1.28,7.82-1.92,12.02v.01" style="fill:none; stroke:#a6abb0; stroke-miterlimit:10; stroke-width:.5px;"/><path d="m100.2712,120.4974v.01c-.6,4.36-1.2,8.9-1.79,13.63v.01" style="fill:none; stroke:#a6abb0; stroke-miterlimit:10; stroke-width:.5px;"/><path d="m98.1312,136.9274c-.86,6.96-1.71,14.32-2.56,22.11" style="fill:none; stroke:#a6abb0; stroke-miterlimit:10; stroke-width:.5px;"/><path d="m100.4312,119.2874c.51-3.71,1.02-7.29,1.53-10.74v-.01" style="fill:none; stroke:#a6abb0; stroke-miterlimit:10; stroke-width:.5px;"/><path d="m104.5012,92.4974c.51-3,1.01-5.89,1.52-8.66.01-.07.03-.15.04-.22" style="fill:none; stroke:#a6abb0; stroke-miterlimit:10; stroke-width:.5px;"/><path d="m111.0312,59.5574c-.9,3.77-1.7,7.41-2.62,11.86" style="fill:none; stroke:#a6abb0; stroke-miterlimit:10; stroke-width:.5px;"/><path d="m115.2712,43.7674c-.48,1.57-.96,3.22-1.45,4.97" style="fill:none; stroke:#a6abb0; stroke-miterlimit:10; stroke-width:.5px;"/><path d="m133.4712,15.7674c-2.49,0-7.49.88-13.62,15.25" style="fill:none; stroke:#a6abb0; stroke-miterlimit:10; stroke-width:.5px;"/><path d="m95.4412,160.3174c-.52,4.8-1.04,9.76-1.55,14.89v.01" style="fill:none; stroke:#a6abb0; stroke-miterlimit:10; stroke-width:.5px;"/><path d="m167.4512,136.1674c-.45,10.3-.85,20.75-1.18,31.09" style="fill:none; stroke:#a6abb0; stroke-miterlimit:10; stroke-width:.5px;"/><path d="m170.3612,83.1574c-.47,7-.92,14.32-1.35,21.87" style="fill:none; stroke:#a6abb0; stroke-miterlimit:10; stroke-width:.5px;"/><path d="m175.4812,28.4374c1.38-9.37,2.77-14.43,4.08-13.47" style="fill:none; stroke:#a6abb0; stroke-miterlimit:10; stroke-width:.5px;"/><path d="m175.3312,29.4274c-.43,3.05-.86,6.52-1.29,10.36" style="fill:none; stroke:#a6abb0; stroke-miterlimit:10; stroke-width:.5px;"/><path d="m172.3512,57.0274c-.47,5.41-.92,11.21-1.37,17.32" style="fill:none; stroke:#a6abb0; stroke-miterlimit:10; stroke-width:.5px;"/><path d="m173.9312,40.7874c-.5,4.6-1,9.72-1.49,15.25" style="fill:none; stroke:#a6abb0; stroke-miterlimit:10; stroke-width:.5px;"/><path d="m170.9112,75.3574c-.17,2.23-.33,4.5-.48,6.8" style="fill:none; stroke:#a6abb0; stroke-miterlimit:10; stroke-width:.5px;"/><path d="m168.9612,106.0274c-.54,9.44-1.03,19.22-1.47,29.14" style="fill:none; stroke:#a6abb0; stroke-miterlimit:10; stroke-width:.5px;"/><path d="m166.2412,168.2674c-.14,4.38-.26,8.74-.37,13.06" style="fill:none; stroke:#a6abb0; stroke-miterlimit:10; stroke-width:.5px;"/><path d="m137.8979,21.355c-3.5928-.3331-7.1705,1.0382-9.0578,4.2517,1.5796-3.4513,5.3582-5.2746,9.0579-5.2514-.0001-.0002-.0001.9998-.0001.9998h0Z" style="fill:#a6abb0; stroke-width:0px;"/><path d="m182.0464,20.8127c-.9154-.1234-1.5676.4215-1.9749,1.2271-.4437.8342-.7286,1.7905-1.0231,2.7234.1349-.9736.2457-1.9492.5645-2.9226.2686-1.056,1.2799-2.0269,2.4336-2.0278,0,0,0,.9999,0,.9999h0Z" style="fill:#a6abb0; stroke-width:0px;"/><path d="m119.8457,31.009c-2.0594-.1499-5.6267.4768-9.668,1.449l-.3849-4.105c-.04-.4126-.3965-.7241-.8174-.6768-.4121.0386-.7148.4043-.6768.8164l.4059,4.3286c-6.8441,1.7349-14.6519,4.2791-18.7808,5.7068-6.9272,2.3953-16.0085,6.2876-22.1719,11.3777l-1.3328,1.813c6.453-4.8958,10.582-7.302,20.0376-10.6758-.0597.7983-.0162,1.7134.0052,3.0586-4.7402,1.5249-8.1041,2.6802-8.1945,2.7114-.2607.0898-.3994.3745-.3096.6357.0713.207.2656.3369.4727.3369.0537,0,.1094-.0088.1631-.0273.0883-.0303,3.3141-1.1382,7.8885-2.613.015.6628.0296,1.1321.0314,1.1912.0137.4058.3467.7261.75.7261.0078,0,.0156,0,.0234-.0005.4141-.0132.7393-.3594.7266-.7734-.0007-.0178-.0223-.7029-.0408-1.6216,4.7144-1.5044,10.5317-3.2866,15.8254-4.6978.0504,1.5845.1344,2.8081-.0541,4.2925-.0092.0725.0045.1411.0156.21-8.223,1.6113-15.0309,3.7402-21.1817,5.7976l-1.4575.4934c-10.7062,3.6492-17.8254,7.2009-24.0322,15.6108l-1.6727,3.009c9.6912-10.4944,14.6315-12.9646,24.1004-16.2581.5197-.1809,1.0508-.3647,1.5865-.5493-.0099,1.2744-.0172,2.9514-.0062,4.5046-4.2611,1.3848-7.7452,2.6577-9.8317,3.5979-.252.1138-.3643.4097-.251.6616.084.1851.2656.2944.4561.2944.0693,0,.1387-.0142.2051-.0439,2.0169-.9089,5.351-2.1311,9.4327-3.4641.0045.3223.0097.637.0165.9294.0098.4082.3438.7324.75.7324h.0176c.4141-.0098.7422-.3535.7324-.7676-.01-.426-.0172-.8918-.0223-1.3767,4.9681-1.585,10.8655-3.2876,16.7938-4.7888.0943,1.8521.1201,4.3408-.1699,6.6814-10.8728,2.041-20.4982,4.9988-24.3879,6.3135-5.3146,1.7966-20.3854,7.9717-27.6709,20.229l-1.1475,2.4514c8.61-11.4798,14.4766-15.8728,29.7485-20.8676l.0014.0009c.0093,1.4389.0689,3.3623.1444,5.3276-7.5153,2.3965-13.7692,4.896-17.7768,7.0132-.2441.1289-.3379.4312-.209.6753.0898.1699.2637.2666.4424.2666.0791,0,.1592-.0186.2334-.0581,3.921-2.0715,10.0189-4.5132,17.3509-6.8623.0601,1.4762.1254,2.9314.1816,4.1759l-.6274.8861c-6.5596,1.9373-14.3505,4.3861-20.7791,8.5742-.2314.1509-.2969.4604-.1465.6919.0957.147.2559.2271.4189.2271.0938,0,.1885-.0264.2725-.0811,6.4481-4.2002,14.3541-6.6377,20.9373-8.5767.0319.7424.0541,1.3123.053,1.4844-.0078.0645-.0078.1313.001.1992.0518.3755.374.6475.7422.6475.0342,0,.0684-.0024.1035-.0068.6129-.0847.6914-.0977.5818-2.7615,1.125-.3306,2.2053-.6489,3.2053-.9578,3.1808-.981,8.1705-2.1313,13.1241-3.1907.143,2.3464.2062,4.8525.1086,7.1565-14.0277,1.9116-27.6657,5.5638-36.257,9.5278-7.1559,3.3017-15.5666,7.7009-20.9332,19.5205-1.1919,2.3171-1.9733,5.5942-.7039,3.3906,6.0966-11.9714,14.2726-16.3821,24.3048-20.3647,2.6688-1.0596,5.6672-2.0608,8.839-3.0066-.4702,2.8938-.5234,6.0935-.4363,8.7197-2.5985.6743-4.8344,1.269-6.5637,1.7292-9.4023,2.5015-14.1787,6.0742-20.3926,11.2393-.2129.1763-.2412.4917-.0654.7041.0996.1187.2412.1802.3848.1802.1133,0,.2266-.0381.3193-.1157,6.1123-5.0796,10.8066-8.5928,20.0117-11.041,1.6799-.447,3.8413-1.022,6.3466-1.673.1169,2.4347.3262,4.1835.3467,4.3483.0625.5068.4932.8774.9912.8774.041,0,.082-.0024.124-.0078.5479-.0674.9375-.5669.8691-1.1147-.0049-.0419-.235-1.9697-.3448-4.6162,5.1522-1.3232,11.4635-2.8816,18.0006-4.3147.3141,4.5522.511,9.9814.5142,10.0647.0011.0317.0168.0581.0208.0891-17.352,2.2188-35.3384,7.5004-40.6319,10.4121-6.9052,3.7982-14.5209,8.1923-20.9501,22.772-1.1918,2.3173-1.8671,6.1382,0,2.7192,6.0966-11.9714,13.5782-19.3472,23.6104-23.3298,3.4161-1.3562,7.665-2.6609,12.303-3.8718-.2886,3.1252-.2247,7.1448-.0948,10.7986-2.33.5547-4.3998,1.0801-6.1071,1.5527-9.8223,2.7202-16.4883,5.835-22.2891,10.4155-.2168.1714-.2539.4858-.083.7026.0986.125.2451.1899.3926.1899.1084,0,.2178-.0352.3096-.1074,5.6904-4.4932,12.251-7.5547,21.9375-10.2368,1.6512-.4572,3.6387-.9636,5.8774-1.4985.0334.8567.0686,1.6882.1021,2.4702.0469,1.0913.0908,2.1064.1211,3.0034.0176.5405.4619.9663.998.9663.0117,0,.0234,0,.0342-.0005.5518-.0186.9844-.481.9658-1.0332-.0303-.9019-.0732-1.9233-.1201-3.0215-.0386-.8978-.0797-1.8577-.1173-2.8507,5.2427-1.2117,11.6223-2.5344,18.3256-3.76.0621,2.5564.0881,5.4747.113,8.35.0106,1.2053.022,2.3951.0351,3.5652-17.8707,1.845-35.2591,6.7837-40.7678,9.0571-6.9833,2.8821-15.8511,8.6393-22.2802,23.2191-1.1918,2.3171-1.8671,6.1381,0,2.7191,6.0966-11.9714,13.9667-19.3982,27.1575-23.2778,2.8982-.8524,6.2902-1.7301,9.958-2.5952-.0797,2.5981-.0304,5.9634.0773,9.4045-2.0049.3801-3.8701.7585-5.4915,1.1277-11.3809,2.5913-16.7686,5.1313-23.0596,10.8701-.2041.1865-.2188.5024-.0322.7065.0986.1084.2334.1631.3691.1631.1201,0,.2412-.043.3369-.1309,6.1416-5.6025,11.4238-8.0874,22.6084-10.6343,1.5684-.3572,3.3679-.7231,5.3021-1.0911.1235,3.5914.3029,7.1912.4604,10.0222-1.7119.327-3.3142.6479-4.7586.9556-12.4512,2.6519-16.2383,3.792-24.8691,8.9131-.2373.1411-.3164.4478-.1748.6855.0928.1572.2598.2446.4297.2446.0869,0,.1748-.0225.2549-.0698,8.5029-5.0454,12.2471-6.1714,24.5684-8.7949,1.4011-.2985,2.9522-.6096,4.6066-.9265.145,2.5286.2605,4.2606.2762,4.4949.0361.5278.4756.9326.9971.9326.0225,0,.0449-.0005.0684-.0024.5508-.0371.9678-.5137.9307-1.0649-.0042-.061-.1296-1.9419-.2874-4.7336,5.5793-1.0339,12.0765-2.1035,18.0743-2.9912.2699,4.6643.5101,9.3975.6005,12.7903-18.7769.7212-40.176,4.3243-47.7619,8.7192-10.475,6.069-13.551,10.6189-15.5463,13.8308h3.6151c8.7126-5.6448,9.9403-9.0049,32.3792-13.1077-.6299,5.1742-.007,14.4434.3395,17.5396.0576.5112.4902.8887.9932.8887.0371,0,.0742-.002.1123-.0063.5488-.0615.9443-.5562.8828-1.105-.4803-4.2915-.9139-13.4568-.254-17.6877,9.0301-1.5788,21.2495-3.2781,38.2517-5.2649.6076-.071,1.2265.1099,1.6964.5016l1.9967,1.6646v-2.2782l-1.7548-2.6664c-.3899-.5924-1.0306-.969-1.7388-1.005-3.4879-.1769-7.2794-.1977-11.2115-.0893-.0924-3.4551-.3384-8.2808-.6132-13.0142,5.9283-.853,11.1819-1.496,14.2829-1.7021l1.8838,2.8545c.1514.2305.4619.292.6924.1421.2305-.1523.2939-.4624.1416-.6929l-2.043-3.0967c-.0977-.1489-.249-.2319-.4473-.2236-3.0616.1843-8.4546.8391-14.5691,1.7178-.2172-3.6794-.4463-7.2351-.6289-9.9788.5578-.085,1.1073-.1687,1.6433-.2502,4.6133-.7021,8.2568-1.2563,9.9707-1.5908.2715-.0527.4482-.3154.3955-.5864-.0537-.2715-.3223-.4487-.5869-.395-1.6934.3306-5.3281.8833-9.9297,1.584-.5088.0774-1.0314.157-1.5598.2374-.1679-2.4991-.2828-4.1163-.2869-4.173-.0391-.5503-.5088-.9609-1.0684-.9263-.5508.0396-.9658.5176-.9258,1.0684.0039.0577.1234,1.746.2969,4.3337-5.7221.8759-12.2294,1.8967-17.8651,2.9215-.1086-3.5505-.1527-6.9821-.0535-9.5018,12.6761-2.896,28.0443-5.5702,37.8055-6.5663l2.5394,3.4214v-2.1061l-2.1923-4.1122c-3.9898-.0521-8.116.1447-12.239.5148-.0122-1.114-.0231-2.2446-.0331-3.3889-.0261-2.9955-.0529-6.04-.1216-8.6921,4.6575-.8296,9.4273-1.604,14.0503-2.2502l2.1309,2.8481c.167.2222.4805.2661.7002.1011.2207-.1655.2656-.4785.1006-.6997l-2.3076-3.085c-.1089-.1456-.2869-.221-.4671-.196-4.678.6495-9.513,1.4318-14.2362,2.2715-.0715-2.261-.1804-4.1658-.3563-5.4001-.0781-.5469-.5869-.9302-1.1318-.8486-.5459.0776-.9268.584-.8486,1.1309.1732,1.2141.2784,3.1588.3472,5.4762-6.6917,1.2212-13.0739,2.5411-18.3351,3.7532-.1288-3.7869-.1732-7.8916.1796-10.8612,12.3055-3.0662,26.8235-5.4519,35.9623-6.3844l2.5393,3.4213v-2.106l-2.1922-4.1122c-3.4416.0726-7.0638.3488-10.7363.7689-.0259-.7166-.2212-5.9387-.5353-10.342,4.4317-.9468,9.0766-1.5042,13.3352-2.1914l1.5916,3.2051c.124.249.4258.3486.6709.2256.2471-.1226.3477-.4229.2256-.6699l-1.911-3.8502c-.0971-.1956-.3074-.3064-.523-.272-4.3428.6919-8.9331,1.5801-13.4648,2.5463-.1544-1.9719-.3334-3.6763-.532-4.5706-.1191-.5396-.6562-.875-1.1934-.7593-.5391.1196-.8789.6538-.7598,1.1929.1895.8528.3629,2.5703.5135,4.5635-6.5116,1.425-12.8043,2.9755-17.9626,4.2985-.0722-2.7509.0186-6.0497.5905-8.8339,11.288-3.1947,24.4369-5.664,33.811-7.2138.4374-.0723.867.1241,1.1073.4967l1.6563,3.2505.2067-2.7304-1.4047-2.6348c-.1956-.367-.5716-.5983-.9875-.5933-3.053.0369-6.5617.3213-10.2748.7867.0884-2.3762.0174-4.9175-.1304-7.2737,3.2872-.6926,6.4761-1.333,9.0182-1.8435,1.4346-.2881,2.6465-.5312,3.5303-.7148l1.6777,2.8472c.1396.2378.4473.3154.6846.1768.2383-.1401.3174-.4463.1768-.6846l-1.8593-3.1563c-.1092-.1853-.32-.2805-.5305-.2361-.8984.1895-2.2427.4593-3.8768.7874-2.509.5039-5.6464,1.134-8.8892,1.8164-.142-1.97-.3213-3.748-.4763-5.1069,3.4382-.76,6.9546-1.4502,10.4934-2.04.2725-.0454.457-.3027.4111-.5752s-.3105-.4595-.5752-.4111c-3.5219.5869-7.0223,1.2734-10.4472,2.0295-.1152-.9404-.201-1.5481-.2149-1.6433-.0586-.4097-.4258-.6973-.8496-.6353-.4092.0591-.6943.439-.6348.8491.0037.0251.097.6812.2262,1.7605-5.6466,1.2876-11.0591,2.7571-15.9792,4.2834-.0764-2.0422-.1315-3.9905-.1273-5.3438,13.2263-4.1891,28.3802-7.2703,32.8476-7.9534.6137-.0938,1.2164.1946,1.5329.7287l1.1746,1.9821.1886-1.4031-1.0691-1.8852c-.2973-.5243-.8757-.8284-1.4754-.7678-3.2473.3282-6.5156.8071-9.6979,1.372.2616-2.4456.2143-4.9531.111-6.771,4.185-1.0345,8.3474-1.9556,12.1692-2.6479.1723-.0312.3379.0697.3942.2354l.9653,2.8406c.0898.2612.373.4028.6348.312.2617-.0889.4014-.3726.3125-.6343l-1.2021-3.5356c-.0791-.2324-.3096-.3716-.5605-.3315-3.983.6992-8.3664,1.6602-12.7805,2.7488-.0734-.9612-.1478-1.5828-.157-1.6565-.0508-.4106-.4209-.7031-.8359-.6523-.4111.0503-.7031.4248-.6523.8359.0024.0193.0877.7329.1656,1.8423-5.8914,1.4883-11.7611,3.1777-16.7407,4.7595-.0079-1.6333.0025-3.3481.0132-4.5398,8.8591-3.0211,19.7472-6.3935,32.1983-8.221.2749-.0403.5484.1017.6718.3505l.9789,1.9739v-1.647l-.6543-1.4135c-.1156-.2498-.3835-.3983-.6572-.3681-3.5215.3897-6.8013.8862-9.8894,1.4553.1741-1.592.0915-3.0168.0328-4.6116,3.2167-.8289,6.1699-1.4907,8.4659-1.8284.2734-.04.4629-.2939.4229-.5674-.041-.2734-.3008-.4629-.5674-.4219-2.278.335-5.1929.9854-8.3664,1.7991-.04-.7776-.0798-1.2991-.0848-1.363-.0322-.4126-.3789-.7134-.8066-.689-.4131.0322-.7217.3931-.6895.8057.0014.0176.0514.6729.0963,1.6335-5.2669,1.3977-11.0663,3.1682-15.8027,4.6763-.017-1.311-.064-1.9373.0056-2.6301.0165-.1626-.0317-.3108-.1072-.4421,1.1743-.4087,2.4059-.8289,3.7508-1.2744,13.3239-4.4163,24.8558-7.2278,27.8102-7.2444l1.158,2.0796.4282-.9788c.0597-.1366.0464-.294-.0354-.4186l-1.1198-1.7053Zm-41.537,120.0652c.1832,2.76.4112,6.307.6265,9.9655-5.9913.8856-12.4827,1.9523-18.0718,2.9857-.157-2.8621-.3339-6.4607-.4539-10.0205,5.6271-1.0261,12.1532-2.0508,17.8992-2.9307Zm15.1819-81.835c.1529,1.3696.3288,3.1448.4656,5.0898-5.0237,1.0728-10.1094,2.2429-13.353,3.2437-.9246.2849-1.922.5798-2.9551.8833-.0049-.1091-.0094-.2104-.0146-.3262-.0612-1.3564-.1332-2.9639-.1973-4.5728,4.9318-1.5371,10.3709-3.0195,16.0544-4.3179Z" style="fill:none; stroke:#a6abb0; stroke-miterlimit:10; stroke-width:.5px;"/><path d="m99.4881,23.8715v3.4697c0,.4141-.3359.75-.75.75s-.75-.3359-.75-.75v-2.402" style="fill:none; stroke:#a6abb0; stroke-miterlimit:10; stroke-width:.5px;"/><path d="m122.3732,23.1263c-.0596-.2686-.3252-.437-.5977-.3774l-.062.006c-2.3445.5276-4.8127,1.0854-7.3858,1.7041-.0006-.0044.0012-.0083.0005-.0125l-.6108-3.7664c-.0607-.3738-.4094-.6287-.7856-.5664-.3737.0608-.627.4126-.5663.7856l.6108,3.7664c.0065.0405.0264.0742.0395.1116-9.681,2.3801-20.8694,5.7375-33.2397,12.0322-.2461.1255-.3447.4263-.2188.6724.0879.1738.2637.2734.4453.2734.0771,0,.1543-.0176.2266-.0542,3.8668-1.9678,7.6157-3.6401,11.2433-5.0916v3.6169c0,.3623.2939.6562.6561.6562s.6561-.2939.6561-.6562v-3.9287c0-.0671-.0195-.1282-.0381-.189,11.0136-4.2812,20.8492-6.5024,29.1867-8.3784l.0629-.006c.2695-.061.4385-.3286.377-.5981Z" style="fill:none; stroke:#a6abb0; stroke-linecap:round; stroke-linejoin:round; stroke-width:.5px;"/><path d="m160.8657,13.8174l-8.1091,4.7373c-.1592.0928-.333.1367-.5039.1367-.3438,0-.6787-.1772-.8643-.4956-.2783-.4771-.1182-1.0894.3584-1.3677l4.8545-2.8359" style="fill:none; stroke:#a6abb0; stroke-miterlimit:10; stroke-width:.5px;"/><path d="m133.0712,41.4475c.33.0198.66.0398,1,.0598,4.028.2664,9.088.6016,14.3965,1.5247l-3.1045,5.6121c-3.6121-.6431-6.883-1.0144-9.1711-1.1606-.2637-.0103-.5137.1914-.5312.4673-.0176.2754.1914.5132.4668.5308,2.1902.1401,5.2928.4888,8.725,1.0854l-1.1528,2.084c-.2676.4829-.0928,1.0918.3906,1.3589.1533.085.3193.125.4834.125.3525,0,.6934-.186.876-.5161l1.4751-2.6665c6.1278,1.2092,12.9248,3.2029,17.4751,6.2622.0693.0464.1494.0747.2314.0825l7.7227.7354c.0166.002.0322.0024.0488.0024.2539,0,.4717-.1938.4971-.4526.0264-.2749-.1758-.519-.4502-.5449l-7.5977-.7236c-4.585-3.0439-11.312-5.0466-17.4208-6.2771l3.1059-5.6145c4.6188.9341,9.3469,2.3535,13.6838,4.5955.15.0701.3.1101.46.1101.36,0,.71-.2.89-.54.25-.49.06-1.0898-.4301-1.3501-10.39-5.3699-22.75-6.1799-30.93-6.72-.22-.0198-.43-.03-.64-.05" style="fill:none; stroke:#a6abb0; stroke-miterlimit:10; stroke-width:.5px;"/><path d="m136.8712,27.9574c9.61.13,18.24.5,28.98,4.3.52.19.79.76.6,1.28-.14.41-.53.67-.94.67-.11,0-.22-.02-.33-.06-4.5-1.59-8.56-2.56-12.5-3.16l-3.12,3.99c5.58.67,11.47,1.92,15.27,4.09l9.2.72h.01c.27.03.47.26.45.54-.02.26-.24.46-.5.46h-.06l-9.29-.73c-.08-.01-.15-.03-.21-.07-3.57-2.07-9.49-3.41-15.58-4.11l-1.95,2.49c-.2.26-.49.39-.79.39-.21,0-.43-.07-.61-.21-.44-.34-.52-.97-.17-1.41l1.16-1.49c-2.68-.24-5.34-.36-7.8-.36-.28,0-.5-.22-.5-.5,0-.27.22-.5.5-.5,2.27,0,5.28.13,8.53.43l3.17-4.05c-4.62-.56-9.17-.66-14.16-.72" style="fill:none; stroke:#a6abb0; stroke-miterlimit:10; stroke-width:.5px;"/><path d="m139.4412,21.2173c5.3976.1758,9.7367.374,13.4206.6526l-2.445,2.3826c-4.4841-.3901-7.765-.4512-7.837-.4521-.2803.0171-.5029.2158-.5078.4922-.0039.2759.2158.5034.4922.5078.0664.001,2.9116.054,6.9053.3752l-.9854.9602c-.3955.3857-.4033,1.0186-.0176,1.4141.1953.2012.4561.3022.7158.3022.252,0,.5039-.0942.6982-.2837l2.2122-2.1558c5.1063.5134,11.3078,1.449,16.0827,3.1499.0352.0122.0723.021.1094.0254l7.0693.8384c.0195.0024.04.0034.0596.0034.249,0,.4658-.187.4951-.4409.0332-.2744-.1631-.5229-.4375-.5557l-7.0137-.8315c-4.5922-1.627-10.4512-2.561-15.4338-3.0962l2.0939-2.0405c.1135-.1108.1859-.2437.2354-.3835,5.0767.4788,8.8846,1.1697,12.7079,2.2761.1.02.19.04.28.04.44,0,.84-.29.96-.73.16-.53-.15-1.0801-.68-1.24-7.04-2.03-13.91-2.6902-28.24-3.1799" style="fill:none; stroke:#a6abb0; stroke-miterlimit:10; stroke-width:.5px;"/><path d="m118.5512,135.6374c5.8742.9543,13.2987,2.6475,20.3549,5.5649l-3.1348,10.1345c-3.4499-1.3032-6.8259-2.3494-9.959-3.3184l-1.6572-.5137c-.2627-.082-.543.0654-.626.3286-.082.2637.0654.5439.3291.6265l1.6582.5142c3.132.9685,6.5099,2.0164,9.9581,3.3225l-3.222,10.4165c-3.4694-1.2141-7.1411-2.1663-11.1257-2.8879-.2676-.0488-.5312.1304-.5811.4033-.0488.2715.1318.5317.4033.5811,3.9429.7141,7.575,1.6577,11.0069,2.8622l-1.4424,4.6632c-.2451.7915.1982,1.6313.9893,1.8765.1475.0454.2969.0674.4434.0674.6406,0,1.2334-.4136,1.4326-1.0571l1.3868-4.4834c7.9266,3.2399,14.8291,8.0894,21.9872,15.2637.0635.0645.1436.1099.2324.1318l8.749,2.1909c.04.0103.0811.0151.1211.0151.2246,0,.4277-.1514.4854-.3784.0664-.2681-.0957-.5396-.3643-.6064l-8.6143-2.1572c-7.2515-7.2502-14.2529-12.1494-22.299-15.4216l3.2046-10.36c6.4443,2.7091,12.9708,6.4818,18.4684,12.5228.0684.0747.1572.127.2549.1499l9.1533,2.165c.0391.0093.0771.0137.1152.0137.2266,0,.4326-.1548.4863-.3848.0635-.269-.1025-.5381-.3711-.6021l-9.0029-2.1294c-5.6292-6.1428-12.2692-9.9614-18.8064-12.6978l3.1031-10.0319c5.2953,2.4872,10.231,5.7238,13.9327,9.9657.39.45.95.6899,1.51.6899.46,0,.93-.1699,1.31-.5.83-.72.92-1.98.19-2.8199-9.67-11.1-26.27-15.9801-39.66-18.12" style="fill:none; stroke:#a6abb0; stroke-miterlimit:10; stroke-width:.5px;"/><path d="m121.8512,106.4874c4.0605.4452,10.5667,1.4845,17.6303,3.8082l-3.8118,10.7097c-3.3455-1.064-6.4594-1.8337-8.9336-2.2119-.2676-.0391-.5273.1455-.5693.4185s.1455.5283.4189.5698c2.4259.3708,5.4752,1.1227,8.7505,2.1604l-1.7359,4.8772c-.2783.7803.1299,1.6382.9102,1.916.166.0591.3359.0874.5029.0874.6162,0,1.1943-.3833,1.4131-.9976l1.7542-4.9287c7.6727,2.7283,15.9938,6.8739,20.5192,11.5967.0732.0762.168.1274.2725.1465l8.4131,1.5249c.0303.0054.0596.0078.0898.0078.2363,0,.4473-.1694.4912-.4106.0488-.272-.1309-.5322-.4033-.5815l-8.2539-1.4961c-4.6491-4.7772-13.0519-8.9636-20.7958-11.7224l3.799-10.6736c5.254,1.9612,10.6734,4.6565,15.5287,8.3894.37.2799.79.4099,1.22.4099.6,0,1.19-.27,1.59-.78.67-.8799.5-2.1299-.37-2.7999-13.09-10.0599-29.92-13.09-37.92-13.9901" style="fill:none; stroke:#a6abb0; stroke-miterlimit:10; stroke-width:.5px;"/><path d="m125.3412,81.7173c4.7155.2842,11.0856,1.1235,17.3704,2.8513l-3.7574,8.9275c-3.2551-1.073-6.511-1.9014-9.513-2.2656-.2646-.0283-.5234.1621-.5566.4365-.0332.2739.1621.5229.4355.5566,2.9159.3535,6.0789,1.1538,9.2466,2.1934l-2.0513,4.8735c-.3213.7637.0371,1.6431.8008,1.9644.1904.0801.3877.1182.5811.1182.5859,0,1.1426-.3452,1.3838-.9185l2.1234-5.0449c8.2428,3.0505,16.0204,7.3308,18.9802,9.1807.0557.0352.1182.0591.1836.0698l8.334,1.3633c.0273.0044.0547.0063.082.0063.2402,0,.4521-.1743.4922-.4194.0449-.2725-.1396-.5293-.4121-.5742l-8.2354-1.3467c-3.0439-1.8914-10.7971-6.1436-19.0377-9.199l3.81-9.0522c5.2978,1.7126,10.342,4.1018,14.05,7.3892.29.26.64.3801,1,.3801.41,0,.82-.1702,1.12-.5.55-.6201.4901-1.5701-.13-2.1201-9.2599-8.23-25.55-11.22-35.83-11.8501" style="fill:none; stroke:#a6abb0; stroke-miterlimit:10; stroke-width:.5px;"/><path d="m129.5612,57.5774c5.0636.4678,10.6808,1.1255,16.7032,2.5713l-2.2503,5.4973c-3.2299-.7117-6.5737-1.207-10.4841-1.6714-.2529-.0273-.5225.1631-.5547.4375-.0332.2744.1631.5229.4375.5557,3.8058.4519,7.0684.9341,10.2157,1.6199l-2.2928,5.6008c-2.5297-.7146-5.1506-1.377-7.8585-1.9766-.2773-.0576-.5371.1113-.5967.3804-.0596.2695.1104.5366.3799.5962,2.6509.5869,5.2164,1.2344,7.6939,1.9316l-.5543,1.354c-.209.5112.0361,1.0952.5469,1.3042.124.0508.252.0752.3789.0752.3936,0,.7666-.2344.9258-.6216l.635-1.5513c7.6595,2.2874,14.3648,5.0867,19.7058,8.2568.0547.0327.1162.0542.1797.064l7.5498,1.1528c.0254.0039.0508.0059.0762.0059.2422,0,.4551-.1772.4932-.4243.042-.2729-.1455-.5283-.4189-.5698l-7.4541-1.1382c-5.373-3.1777-12.0911-5.9827-19.7509-8.2769l2.3344-5.7026c5.1267,1.2852,10.1745,3.2334,17.022,6.6641.04.02.083.0347.127.0435l8.0977,1.5879c.0332.0063.0654.0093.0977.0093.2334,0,.4434-.1655.4893-.4038.0537-.271-.123-.5337-.3936-.5869l-8.0312-1.5747c-6.8368-3.4219-11.8992-5.3813-17.0246-6.6777l2.2371-5.4646c4.4655,1.1873,9.1376,2.8264,13.9683,5.1721.21.1101.43.1499.66.1499.55,0,1.09-.3098,1.34-.8398.37-.75.06-1.6401-.69-2.01-12.48-6.0701-23.86-7.6101-33.35-8.51" style="fill:none; stroke:#a6abb0; stroke-miterlimit:10; stroke-width:.5px;"/><path d="m415.4031,197.2425c-13.4734-61.7602-38.5793-151.3175-81.7263-171.2982-21.9753-10.1764-35.2805-10.3855-35.2805-10.3855,0,0-6.6811-1.0581-7.7467,5.1575h-2.9125" style="fill:none; stroke:#a6abb0; stroke-miterlimit:10;"/><path d="m290.6498,20.855c4.1297,0,6.93,1.1533,9.0579,4.7514,7.3257,12.3871,23.5754,66.5972,30.1019,171.6361" style="fill:none; stroke:#a6abb0; stroke-miterlimit:10; stroke-width:.5px;"/><path d="m246.5013,20.3128c1.8987,0,2.3873,1.6412,2.998,4.4505s9.5271,96.0043,9.5271,172.4792" style="fill:none; stroke:#a6abb0; stroke-miterlimit:10; stroke-width:.5px;"/><path d="m312.9365,42.6874c-1.3-4.16-2.58-7.68-3.8-10.65" style="fill:none; stroke:#a6abb0; stroke-miterlimit:10; stroke-width:.5px;"/><path d="m317.0965,57.7874c-.68-2.75-1.34-5.32-2-7.72v-.01" style="fill:none; stroke:#a6abb0; stroke-miterlimit:10; stroke-width:.5px;"/><path d="m322.1065,81.5074c-.58-3.1-1.15-6.06-1.72-8.87" style="fill:none; stroke:#a6abb0; stroke-miterlimit:10; stroke-width:.5px;"/><path d="m326.1865,105.8874v-.01c-.64-4.2-1.28-8.21-1.92-12.02" style="fill:none; stroke:#a6abb0; stroke-miterlimit:10; stroke-width:.5px;"/><path d="m330.0665,134.1474v-.01c-.59-4.73-1.19-9.27-1.79-13.63v-.01" style="fill:none; stroke:#a6abb0; stroke-miterlimit:10; stroke-width:.5px;"/><path d="m332.9765,159.0374c-.85-7.79-1.7-15.15-2.56-22.11" style="fill:none; stroke:#a6abb0; stroke-miterlimit:10; stroke-width:.5px;"/><path d="m326.5865,108.5374v.01c.51,3.45,1.02,7.03,1.53,10.74" style="fill:none; stroke:#a6abb0; stroke-miterlimit:10; stroke-width:.5px;"/><path d="m322.4865,83.6174c.01.07.03.15.04.22.51,2.77,1.01,5.66,1.52,8.66" style="fill:none; stroke:#a6abb0; stroke-miterlimit:10; stroke-width:.5px;"/><path d="m320.1365,71.4174c-.92-4.45-1.72-8.09-2.62-11.86" style="fill:none; stroke:#a6abb0; stroke-miterlimit:10; stroke-width:.5px;"/><path d="m314.7265,48.7374c-.49-1.75-.97-3.4-1.45-4.97" style="fill:none; stroke:#a6abb0; stroke-miterlimit:10; stroke-width:.5px;"/><path d="m308.6965,31.0174c-6.13-14.37-11.13-15.25-13.62-15.25" style="fill:none; stroke:#a6abb0; stroke-miterlimit:10; stroke-width:.5px;"/><path d="m334.6565,175.2174v-.01c-.51-5.13-1.03-10.09-1.55-14.89" style="fill:none; stroke:#a6abb0; stroke-miterlimit:10; stroke-width:.5px;"/><path d="m262.2765,167.2574c-.33-10.34-.73-20.79-1.18-31.09" style="fill:none; stroke:#a6abb0; stroke-miterlimit:10; stroke-width:.5px;"/><path d="m259.5365,105.0274c-.43-7.55-.88-14.87-1.35-21.87" style="fill:none; stroke:#a6abb0; stroke-miterlimit:10; stroke-width:.5px;"/><path d="m248.9865,14.9674c1.31-.96,2.7,4.1,4.08,13.47" style="fill:none; stroke:#a6abb0; stroke-miterlimit:10; stroke-width:.5px;"/><path d="m254.5065,39.7874c-.43-3.84-.86-7.31-1.29-10.36" style="fill:none; stroke:#a6abb0; stroke-miterlimit:10; stroke-width:.5px;"/><path d="m257.5665,74.3474c-.45-6.11-.9-11.91-1.37-17.32" style="fill:none; stroke:#a6abb0; stroke-miterlimit:10; stroke-width:.5px;"/><path d="m256.1065,56.0374c-.49-5.53-.99-10.65-1.49-15.25" style="fill:none; stroke:#a6abb0; stroke-miterlimit:10; stroke-width:.5px;"/><path d="m258.1165,82.1574c-.15-2.3-.31-4.57-.48-6.8" style="fill:none; stroke:#a6abb0; stroke-miterlimit:10; stroke-width:.5px;"/><path d="m261.0565,135.1674c-.44-9.92-.93-19.7-1.47-29.14" style="fill:none; stroke:#a6abb0; stroke-miterlimit:10; stroke-width:.5px;"/><path d="m262.6765,181.3274c-.11-4.32-.23-8.68-.37-13.06" style="fill:none; stroke:#a6abb0; stroke-miterlimit:10; stroke-width:.5px;"/><path d="m290.6498,20.355c3.6992-.0232,7.4789,1.8009,9.0577,5.2517-1.8877-3.214-5.4648-4.5844-9.0578-4.2515,0-.0002,0-1.0002,0-1.0002h0Z" style="fill:#a6abb0; stroke-width:0px;"/><path d="m246.5013,19.8127c2.4978.099,2.7473,3.0626,2.9979,4.9505-.568-1.506-.9347-4.1279-2.9979-3.9505,0,0,0-.9999,0-.9999h0Z" style="fill:#a6abb0; stroke-width:0px;"/><path d="m307.5822,32.7143c-.0818.1246-.0951.2821-.0354.4186l.4282.9788,1.158-2.0796c2.9544.0166,14.4863,2.8281,27.8102,7.2444,1.3448.4456,2.5765.8657,3.7508,1.2744-.0755.1313-.1237.2795-.1072.4421.0695.6929.0225,1.3191.0056,2.6301-4.7364-1.5081-10.5358-3.2786-15.8027-4.6763.0449-.9607.0948-1.616.0963-1.6335.0322-.4126-.2764-.7734-.6895-.8057-.4277-.0244-.7744.2764-.8066.689-.0049.064-.0447.5854-.0848,1.363-3.1735-.8137-6.0884-1.4641-8.3664-1.7991-.2666-.041-.5264.1484-.5674.4219-.04.2734.1494.5273.4229.5674,2.2961.3376,5.2492.9995,8.4659,1.8284-.0587,1.5947-.1412,3.0195.0328,4.6116-3.0881-.5691-6.3679-1.0656-9.8894-1.4553-.2736-.0303-.5415.1182-.6572.3681l-.6543,1.4135v1.647s.9789-1.9739.9789-1.9739c.1234-.2489.397-.3909.6718-.3505,12.4511,1.8275,23.3392,5.1999,32.1983,8.221.0107,1.1917.0211,2.9065.0132,4.5398-4.9796-1.5818-10.8494-3.2712-16.7407-4.7595.0779-1.1094.1632-1.823.1656-1.8423.0508-.4111-.2412-.7856-.6523-.8359-.415-.0508-.7852.2417-.8359.6523-.0092.0737-.0836.6953-.157,1.6565-4.4141-1.0886-8.7975-2.0496-12.7805-2.7488-.251-.04-.4814.0991-.5605.3315l-1.2021,3.5356c-.0889.2617.0508.5454.3125.6343.2617.0908.5449-.0508.6348-.312l.9653-2.8406c.0563-.1657.222-.2666.3942-.2354,3.8219.6923,7.9842,1.6133,12.1692,2.6479-.1033,1.8179-.1506,4.3254.111,6.771-3.1823-.5649-6.4506-1.0438-9.6979-1.372-.5997-.0606-1.178.2434-1.4754.7678l-1.0691,1.8852.1886,1.4031,1.1746-1.9821c.3165-.5341.9192-.8225,1.5329-.7287,4.4674.6831,19.6213,3.7643,32.8476,7.9534.0042,1.3533-.051,3.3015-.1273,5.3438-4.92-1.5264-10.3326-2.9958-15.9792-4.2834.1292-1.0793.2225-1.7354.2262-1.7605.0596-.4102-.2256-.79-.6348-.8491-.4238-.062-.791.2256-.8496.6353-.0139.0952-.0997.7029-.2149,1.6433-3.4249-.7561-6.9253-1.4426-10.4472-2.0295-.2646-.0483-.5293.1387-.5752.4111s.1387.5298.4111.5752c3.5388.5898,7.0552,1.28,10.4934,2.04-.155,1.3589-.3342,3.137-.4763,5.1069-3.2428-.6824-6.3802-1.3125-8.8892-1.8164-1.6341-.3281-2.9784-.5979-3.8768-.7874-.2105-.0444-.4213.0508-.5305.2361l-1.8593,3.1563c-.1406.2383-.0615.5444.1768.6846.2373.1387.5449.061.6846-.1768l1.6777-2.8472c.8838.1836,2.0957.4268,3.5303.7148,2.5421.5105,5.731,1.1509,9.0182,1.8435-.1478,2.3562-.2188,4.8975-.1304,7.2737-3.7131-.4654-7.2218-.7498-10.2748-.7867-.4158-.005-.7918.2263-.9875.5933l-1.4047,2.6348.2067,2.7304,1.6563-3.2505c.2403-.3726.6699-.569,1.1073-.4967,9.3741,1.5497,22.523,4.0191,33.811,7.2138.5719,2.7842.6627,6.083.5905,8.8339-5.1583-1.323-11.451-2.8734-17.9626-4.2985.1506-1.9932.324-3.7107.5135-4.5635.1191-.5391-.2207-1.0732-.7598-1.1929-.5371-.1157-1.0742.2197-1.1934.7593-.1986.8943-.3776,2.5986-.532,4.5706-4.5317-.9662-9.122-1.8544-13.4648-2.5463-.2156-.0343-.4259.0765-.523.272l-1.911,3.8502c-.1221.2471-.0215.5474.2256.6699.2451.123.5469.0234.6709-.2256l1.5916-3.2051c4.2586.6873,8.9035,1.2446,13.3352,2.1914-.3141,4.4033-.5094,9.6255-.5353,10.342-3.6725-.4202-7.2947-.6963-10.7363-.7689l-2.1922,4.1122v2.106s2.5393-3.4213,2.5393-3.4213c9.1387.9325,23.6568,3.3182,35.9623,6.3844.3528,2.9696.3085,7.0743.1796,10.8612-5.2612-1.212-11.6434-2.532-18.3351-3.7532.0687-2.3174.174-4.2621.3472-5.4762.0781-.5469-.3027-1.0532-.8486-1.1309-.5449-.0815-1.0537.3018-1.1318.8486-.176,1.2344-.2849,3.1392-.3563,5.4001-4.7232-.8397-9.5582-1.622-14.2362-2.2715-.1801-.025-.3581.0504-.4671.196l-2.3076,3.085c-.165.2212-.1201.5342.1006.6997.2197.165.5332.1211.7002-.1011l2.1309-2.8481c4.623.6462,9.3928,1.4207,14.0503,2.2502-.0687,2.6521-.0955,5.6967-.1216,8.6921-.01,1.1443-.0209,2.2749-.0331,3.3889-4.123-.3701-8.2492-.5669-12.239-.5148l-2.1923,4.1122v2.1061s2.5394-3.4214,2.5394-3.4214c9.7613.9961,25.1295,3.6703,37.8055,6.5663.0992,2.5198.0551,5.9513-.0535,9.5018-5.6356-1.0248-12.1429-2.0457-17.8651-2.9215.1735-2.5878.293-4.276.2969-4.3337.04-.5508-.375-1.0288-.9258-1.0684-.5596-.0347-1.0293.376-1.0684.9263-.0041.0566-.119,1.6738-.2869,4.173-.5284-.0804-1.051-.16-1.5598-.2374-4.6016-.7007-8.2363-1.2534-9.9297-1.584-.2646-.0537-.5332.1235-.5869.395-.0527.271.124.5337.3955.5864,1.7139.3345,5.3574.8887,9.9707,1.5908.536.0815,1.0855.1653,1.6433.2502-.1826,2.7437-.4117,6.2993-.6289,9.9788-6.1145-.8787-11.5075-1.5334-14.5691-1.7178-.1982-.0083-.3496.0747-.4473.2236l-2.043,3.0967c-.1523.2305-.0889.5405.1416.6929.2305.1499.541.0884.6924-.1421l1.8838-2.8545c3.101.2062,8.3546.8491,14.2829,1.7021-.2748,4.7334-.5208,9.5591-.6132,13.0142-3.9321-.1084-7.7236-.0876-11.2115.0893-.7083.0359-1.349.4126-1.7388,1.005l-1.7548,2.6664v2.2782s1.9967-1.6646,1.9967-1.6646c.4699-.3917,1.0887-.5727,1.6964-.5016,17.0022,1.9868,29.2215,3.686,38.2517,5.2649.6599,4.231.2263,13.3962-.254,17.6877-.0615.5488.334,1.0435.8828,1.105.0381.0044.0752.0063.1123.0063.5029,0,.9355-.3774.9932-.8887.3466-3.0962.9695-12.3654.3395-17.5396,22.4389,4.1028,23.6666,7.4629,32.3792,13.1077h3.6151c-1.9952-3.2119-5.0712-7.7618-15.5463-13.8308-7.5859-4.3949-28.985-7.998-47.7619-8.7192.0904-3.3928.3306-8.126.6005-12.7903,5.9977.8877,12.495,1.9573,18.0743,2.9912-.1578,2.7917-.2833,4.6726-.2874,4.7336-.0371.5513.3799,1.0278.9307,1.0649.0234.002.0459.0024.0684.0024.5215,0,.9609-.4048.9971-.9326.0157-.2343.1313-1.9663.2762-4.4949,1.6544.3169,3.2055.6281,4.6066.9265,12.3213,2.6235,16.0654,3.7495,24.5684,8.7949.0801.0474.168.0698.2549.0698.1699,0,.3369-.0874.4297-.2446.1416-.2378.0625-.5444-.1748-.6855-8.6309-5.1211-12.418-6.2612-24.8691-8.9131-1.4444-.3076-3.0468-.6285-4.7586-.9556.1575-2.8311.3369-6.4308.4604-10.0222,1.9343.3679,3.7338.7339,5.3021,1.0911,11.1846,2.5469,16.4668,5.0317,22.6084,10.6343.0957.0879.2168.1309.3369.1309.1357,0,.2705-.0547.3691-.1631.1865-.2041.1719-.52-.0322-.7065-6.291-5.7388-11.6787-8.2788-23.0596-10.8701-1.6214-.3691-3.4866-.7476-5.4915-1.1277.1077-3.4412.157-6.8064.0773-9.4045,3.6678.8651,7.0598,1.7428,9.958,2.5952,13.1908,3.8796,21.0609,11.3064,27.1575,23.2778,1.8671,3.4189,1.1918-.402,0-2.7191-6.4291-14.5798-15.2969-20.337-22.2802-23.2191-5.5087-2.2734-22.897-7.2122-40.7678-9.0571.0131-1.17.0245-2.3599.0351-3.5652.0249-2.8752.0508-5.7936.113-8.35,6.7033,1.2256,13.0829,2.5483,18.3256,3.76-.0376.993-.0787,1.9529-.1173,2.8507-.0469,1.0981-.0898,2.1196-.1201,3.0215-.0186.5522.4141,1.0146.9658,1.0332.0107.0005.0225.0005.0342.0005.5361,0,.9805-.4258.998-.9663.0303-.897.0742-1.9121.1211-3.0034.0335-.782.0687-1.6135.1021-2.4702,2.2387.5349,4.2262,1.0414,5.8774,1.4985,9.6865,2.6821,16.2471,5.7437,21.9375,10.2368.0918.0723.2012.1074.3096.1074.1475,0,.2939-.0649.3926-.1899.1709-.2168.1338-.5313-.083-.7026-5.8008-4.5806-12.4668-7.6953-22.2891-10.4155-1.7073-.4727-3.7771-.998-6.1071-1.5527.1299-3.6538.1938-7.6733-.0948-10.7986,4.6381,1.2109,8.8869,2.5156,12.303,3.8718,10.0322,3.9827,17.5138,11.3584,23.6104,23.3298,1.8671,3.4189,1.1918-.402,0-2.7192-6.4291-14.5797-14.0449-18.9738-20.9501-22.772-5.2935-2.9117-23.2799-8.1934-40.6319-10.4121.004-.031.0197-.0574.0208-.0891.0032-.0833.2001-5.5125.5142-10.0647,6.5371,1.4331,12.8484,2.9915,18.0006,4.3147-.1098,2.6465-.34,4.5743-.3448,4.6162-.0684.5479.3213,1.0474.8691,1.1147.042.0054.083.0078.124.0078.498,0,.9287-.3706.9912-.8774.0206-.1648.2299-1.9136.3467-4.3483,2.5053.651,4.6667,1.226,6.3466,1.673,9.2051,2.4482,13.8994,5.9614,20.0117,11.041.0928.0776.2061.1157.3193.1157.1436,0,.2852-.0615.3848-.1802.1758-.2124.1475-.5278-.0654-.7041-6.2139-5.165-10.9902-8.7378-20.3926-11.2393-1.7294-.4602-3.9652-1.0549-6.5637-1.7292.087-2.6262.0339-5.8259-.4363-8.7197,3.1718.9458,6.1702,1.947,8.839,3.0066,10.0322,3.9827,18.2082,8.3933,24.3048,20.3647,1.2695,2.2036.488-1.0735-.7039-3.3906-5.3666-11.8196-13.7773-16.2188-20.9332-19.5205-8.5914-3.9641-22.2293-7.6162-36.257-9.5278-.0976-2.304-.0344-4.8101.1086-7.1565,4.9536,1.0593,9.9432,2.2097,13.1241,3.1907,1,.3088,2.0803.6272,3.2053.9578-.1096,2.6638-.0311,2.6768.5818,2.7615.0352.0044.0693.0068.1035.0068.3682,0,.6904-.272.7422-.6475.0088-.0679.0088-.1348.001-.1992-.0012-.1721.0211-.7419.053-1.4844,6.5832,1.939,14.4891,4.3765,20.9373,8.5767.084.0547.1787.0811.2725.0811.1631,0,.3232-.0801.4189-.2271.1504-.2314.085-.541-.1465-.6919-6.4286-4.1882-14.2195-6.637-20.7791-8.5742l-.6274-.8861c.0561-1.2445.1215-2.6997.1816-4.1759,7.332,2.3491,13.4299,4.7908,17.3509,6.8623.0742.0396.1543.0581.2334.0581.1787,0,.3525-.0967.4424-.2666.1289-.2441.0352-.5464-.209-.6753-4.0076-2.1172-10.2615-4.6167-17.7768-7.0132.0755-1.9653.1351-3.8887.1444-5.3276l.0014-.0009c15.272,4.9947,21.1385,9.3878,29.7485,20.8676l-1.1475-2.4514c-7.2855-12.2573-22.3563-18.4324-27.6709-20.229-3.8898-1.3147-13.5151-4.2725-24.3879-6.3135-.2899-2.3406-.2642-4.8293-.1699-6.6814,5.9283,1.5012,11.8257,3.2039,16.7938,4.7888-.0052.4849-.0123.9507-.0223,1.3767-.0098.4141.3184.7578.7324.7676h.0176c.4062,0,.7402-.3242.75-.7324.0068-.2925.012-.6072.0165-.9294,4.0817,1.333,7.4158,2.5552,9.4327,3.4641.0664.0298.1357.0439.2051.0439.1904,0,.3721-.1094.4561-.2944.1133-.252.001-.5479-.251-.6616-2.0865-.9402-5.5706-2.2131-9.8317-3.5979.011-1.5532.0037-3.2302-.0062-4.5046.5358.1846,1.0668.3684,1.5865.5493,9.4689,3.2935,14.4092,5.7637,24.1004,16.2581l-1.6727-3.009c-6.2068-8.4099-13.326-11.9617-24.0322-15.6108l-1.4575-.4934c-6.1508-2.0574-12.9587-4.1863-21.1817-5.7976.011-.0688.0247-.1375.0156-.21-.1885-1.4844-.1045-2.708-.0541-4.2925,5.2937,1.4111,11.111,3.1934,15.8254,4.6978-.0185.9187-.04,1.6038-.0408,1.6216-.0127.4141.3125.7603.7266.7734.0078.0005.0156.0005.0234.0005.4033,0,.7363-.3203.75-.7261.0018-.0591.0164-.5283.0314-1.1912,4.5745,1.4749,7.8003,2.5828,7.8885,2.613.0537.0186.1094.0273.1631.0273.207,0,.4014-.1299.4727-.3369.0898-.2612-.0488-.5459-.3096-.6357-.0904-.0312-3.4543-1.1865-8.1945-2.7114.0215-1.3452.0649-2.2603.0052-3.0586,9.4556,3.3738,13.5846,5.78,20.0376,10.6758l-1.3328-1.813c-6.1633-5.0901-15.2446-8.9824-22.1719-11.3777-4.1289-1.4277-11.9368-3.9719-18.7808-5.7068l.4059-4.3286c.0381-.4121-.2646-.7778-.6768-.8164-.4209-.0474-.7773.2642-.8174.6768l-.3849,4.105c-4.0413-.9722-7.6086-1.5989-9.668-1.449l-1.1198,1.7053Zm60.556,121.2905c-.1201,3.5598-.2969,7.1584-.4539,10.0205-5.5891-1.0334-12.0806-2.1001-18.0718-2.9857.2153-3.6584.4433-7.2054.6265-9.9655,5.746.8799,12.2721,1.9045,17.8992,2.9307Zm-17.0267-80.4478c-.0641,1.6089-.1362,3.2163-.1973,4.5728-.0052.1157-.0097.217-.0146.3262-1.0331-.3035-2.0305-.5984-2.9551-.8833-3.2435-1.0007-8.3293-2.1709-13.353-3.2437.1368-1.9451.3127-3.7202.4656-5.0898,5.6835,1.2983,11.1226,2.7808,16.0544,4.3179Z" style="fill:none; stroke:#a6abb0; stroke-miterlimit:10; stroke-width:.5px;"/><path d="m329.0596,23.8715v3.4697c0,.4141.3359.75.75.75s.75-.3359.75-.75v-2.402" style="fill:none; stroke:#a6abb0; stroke-miterlimit:10; stroke-width:.5px;"/><path d="m306.1745,23.1263c.0596-.2686.3252-.437.5977-.3774l.062.006c2.3445.5276,4.8127,1.0854,7.3858,1.7041.0006-.0044-.0012-.0083-.0005-.0125l.6108-3.7664c.0607-.3738.4094-.6287.7856-.5664.3737.0608.627.4126.5663.7856l-.6108,3.7664c-.0065.0405-.0264.0742-.0395.1116,9.681,2.3801,20.8694,5.7375,33.2397,12.0322.2461.1255.3447.4263.2188.6724-.0879.1738-.2637.2734-.4453.2734-.0771,0-.1543-.0176-.2266-.0542-3.8668-1.9678-7.6157-3.6401-11.2433-5.0916v3.6169c0,.3623-.2939.6563-.6561.6563s-.6561-.2939-.6561-.6562v-3.9287c0-.0671.0195-.1282.0381-.189-11.0136-4.2812-20.8492-6.5024-29.1867-8.3784l-.0629-.006c-.2695-.061-.4385-.3286-.377-.5981Z" style="fill:none; stroke:#a6abb0; stroke-linecap:round; stroke-linejoin:round; stroke-width:.5px;"/><path d="m267.682,13.8174l8.1091,4.7373c.1592.0928.333.1367.5039.1367.3438,0,.6787-.1772.8643-.4956.2783-.4771.1182-1.0894-.3584-1.3677l-4.8545-2.8359" style="fill:none; stroke:#a6abb0; stroke-miterlimit:10; stroke-width:.5px;"/><path d="m295.4765,41.4475c-.33.0198-.66.0398-1,.0598-4.028.2664-9.088.6016-14.3965,1.5247l3.1045,5.6121c3.6121-.6431,6.883-1.0144,9.1711-1.1606.2637-.0103.5137.1914.5313.4673.0176.2754-.1914.5132-.4668.5308-2.1902.1401-5.2928.4888-8.725,1.0854l1.1528,2.084c.2676.4829.0928,1.0918-.3906,1.3589-.1533.085-.3193.125-.4834.125-.3525,0-.6934-.186-.876-.5161l-1.4751-2.6665c-6.1278,1.2092-12.9248,3.2029-17.4751,6.2622-.0693.0464-.1494.0747-.2314.0825l-7.7227.7354c-.0166.002-.0322.0024-.0488.0024-.2539,0-.4717-.1938-.4971-.4526-.0264-.2749.1758-.519.4502-.5449l7.5977-.7236c4.585-3.0439,11.312-5.0466,17.4208-6.2771l-3.1059-5.6145c-4.6188.9341-9.3469,2.3535-13.6838,4.5955-.15.0701-.3.1101-.46.1101-.36,0-.71-.2-.89-.54-.25-.49-.06-1.0898.4301-1.3501,10.39-5.3699,22.75-6.1799,30.93-6.72.22-.0198.43-.03.64-.05" style="fill:none; stroke:#a6abb0; stroke-miterlimit:10; stroke-width:.5px;"/><path d="m292.3165,29.9474c-4.99.06-9.54.16-14.16.72l3.17,4.05c3.25-.3,6.26-.43,8.53-.43.28,0,.5.23.5.5,0,.28-.22.5-.5.5-2.46,0-5.12.12-7.8.36l1.16,1.49c.35.44.27,1.07-.17,1.41-.18.14-.4.21-.61.21-.3,0-.59-.13-.79-.39l-1.95-2.49c-6.09.7-12.01,2.04-15.58,4.11-.06.04-.13.06-.21.07l-9.29.73h-.06c-.26,0-.48-.2-.5-.46-.02-.28.18-.51.45-.54h.01l9.2-.72c3.8-2.17,9.69-3.42,15.27-4.09l-3.12-3.99c-3.94.6-8,1.57-12.5,3.16-.11.04-.22.06-.33.06-.41,0-.8-.26-.94-.67-.19-.52.08-1.09.6-1.28,10.74-3.8,19.37-4.17,28.98-4.3" style="fill:none; stroke:#a6abb0; stroke-miterlimit:10; stroke-width:.5px;"/><path d="m289.1065,21.2173c-5.3976.1758-9.7367.374-13.4206.6526l2.445,2.3826c4.4841-.3901,7.765-.4512,7.837-.4521.2803.0171.5029.2158.5078.4922.0039.2759-.2158.5034-.4922.5078-.0664.001-2.9116.054-6.9053.3752l.9854.9602c.3955.3857.4033,1.0186.0176,1.4141-.1953.2012-.4561.3022-.7158.3022-.252,0-.5039-.0942-.6982-.2837l-2.2122-2.1558c-5.1063.5134-11.3078,1.449-16.0827,3.1499-.0352.0122-.0723.021-.1094.0254l-7.0693.8384c-.0195.0024-.04.0034-.0596.0034-.249,0-.4658-.187-.4951-.4409-.0332-.2744.1631-.5229.4375-.5557l7.0137-.8315c4.5922-1.627,10.4512-2.561,15.4338-3.0962l-2.0939-2.0405c-.1135-.1108-.1859-.2437-.2354-.3835-5.0767.4788-8.8846,1.1697-12.7079,2.2761-.1.02-.19.04-.28.04-.44,0-.84-.29-.96-.73-.16-.53.15-1.0801.68-1.24,7.04-2.03,13.91-2.6902,28.24-3.1799" style="fill:none; stroke:#a6abb0; stroke-miterlimit:10; stroke-width:.5px;"/><path d="m309.9965,135.6374c-5.8742.9543-13.2987,2.6475-20.3549,5.5649l3.1348,10.1345c3.4499-1.3032,6.8259-2.3494,9.959-3.3184l1.6572-.5137c.2627-.082.543.0654.626.3286.082.2637-.0654.5439-.3291.6265l-1.6582.5142c-3.132.9685-6.5099,2.0164-9.9581,3.3225l3.222,10.4165c3.4694-1.2141,7.1411-2.1663,11.1257-2.8879.2676-.0488.5313.1304.5811.4033.0488.2715-.1318.5317-.4033.5811-3.9429.7141-7.575,1.6577-11.0069,2.8622l1.4424,4.6632c.2451.7915-.1982,1.6313-.9893,1.8765-.1475.0454-.2969.0674-.4434.0674-.6406,0-1.2334-.4136-1.4326-1.0571l-1.3868-4.4834c-7.9266,3.2399-14.8291,8.0894-21.9872,15.2637-.0635.0645-.1436.1099-.2324.1318l-8.749,2.1909c-.04.0103-.0811.0151-.1211.0151-.2246,0-.4277-.1514-.4854-.3784-.0664-.2681.0957-.5396.3643-.6064l8.6143-2.1572c7.2515-7.2502,14.2529-12.1494,22.299-15.4216l-3.2046-10.36c-6.4443,2.7091-12.9708,6.4818-18.4684,12.5228-.0684.0747-.1572.127-.2549.1499l-9.1533,2.165c-.0391.0093-.0771.0137-.1152.0137-.2266,0-.4326-.1548-.4863-.3848-.0635-.269.1025-.5381.3711-.6021l9.0029-2.1294c5.6292-6.1428,12.2692-9.9614,18.8064-12.6978l-3.1031-10.0319c-5.2953,2.4872-10.231,5.7238-13.9327,9.9657-.39.45-.95.6899-1.51.6899-.46,0-.93-.1699-1.31-.5-.83-.72-.92-1.98-.19-2.8199,9.67-11.1,26.27-15.9801,39.66-18.12" style="fill:none; stroke:#a6abb0; stroke-miterlimit:10; stroke-width:.5px;"/><path d="m306.6965,106.4874c-4.0605.4452-10.5667,1.4845-17.6303,3.8082l3.8118,10.7097c3.3455-1.064,6.4594-1.8337,8.9336-2.2119.2676-.0391.5273.1455.5693.4185s-.1455.5283-.4189.5698c-2.4259.3708-5.4752,1.1227-8.7505,2.1604l1.7359,4.8772c.2783.7803-.1299,1.6382-.9102,1.916-.166.0591-.3359.0874-.5029.0874-.6162,0-1.1943-.3833-1.4131-.9976l-1.7542-4.9287c-7.6727,2.7283-15.9938,6.8739-20.5192,11.5967-.0732.0762-.168.1274-.2725.1465l-8.4131,1.5249c-.0303.0054-.0596.0078-.0898.0078-.2363,0-.4473-.1694-.4912-.4106-.0488-.272.1309-.5322.4033-.5815l8.2539-1.4961c4.6491-4.7772,13.0519-8.9636,20.7958-11.7224l-3.799-10.6736c-5.254,1.9612-10.6734,4.6565-15.5287,8.3894-.37.2799-.79.4099-1.22.4099-.6,0-1.19-.27-1.59-.78-.67-.8799-.5-2.1299.37-2.7999,13.09-10.0599,29.92-13.09,37.92-13.9901" style="fill:none; stroke:#a6abb0; stroke-miterlimit:10; stroke-width:.5px;"/><path d="m303.2065,81.7173c-4.7155.2842-11.0856,1.1235-17.3704,2.8513l3.7574,8.9275c3.2551-1.073,6.511-1.9014,9.513-2.2656.2646-.0283.5234.1621.5566.4365.0332.2739-.1621.5229-.4355.5566-2.9159.3535-6.0789,1.1538-9.2466,2.1934l2.0513,4.8735c.3213.7637-.0371,1.6431-.8008,1.9644-.1904.0801-.3877.1182-.5811.1182-.5859,0-1.1426-.3452-1.3838-.9185l-2.1234-5.0449c-8.2428,3.0505-16.0204,7.3308-18.9802,9.1807-.0557.0352-.1182.0591-.1836.0698l-8.334,1.3633c-.0273.0044-.0547.0063-.082.0063-.2402,0-.4521-.1743-.4922-.4194-.0449-.2725.1396-.5293.4121-.5742l8.2354-1.3467c3.0439-1.8914,10.7971-6.1436,19.0377-9.199l-3.81-9.0522c-5.2978,1.7126-10.342,4.1018-14.05,7.3892-.29.26-.64.3801-1,.3801-.41,0-.82-.1702-1.12-.5-.55-.6201-.4901-1.5701.13-2.1201,9.2599-8.23,25.55-11.22,35.83-11.8501" style="fill:none; stroke:#a6abb0; stroke-miterlimit:10; stroke-width:.5px;"/><path d="m298.9865,57.5774c-5.0636.4678-10.6808,1.1255-16.7032,2.5713l2.2503,5.4973c3.2299-.7117,6.5737-1.207,10.4841-1.6714.2529-.0273.5225.1631.5547.4375.0332.2744-.1631.5229-.4375.5557-3.8058.4519-7.0684.9341-10.2157,1.6199l2.2928,5.6008c2.5297-.7146,5.1506-1.377,7.8585-1.9766.2773-.0576.5371.1113.5967.3804.0596.2695-.1104.5366-.3799.5962-2.6509.5869-5.2164,1.2344-7.6939,1.9316l.5543,1.354c.209.5112-.0361,1.0952-.5469,1.3042-.124.0508-.252.0752-.3789.0752-.3936,0-.7666-.2344-.9258-.6216l-.635-1.5513c-7.6595,2.2874-14.3648,5.0867-19.7058,8.2568-.0547.0327-.1162.0542-.1797.064l-7.5498,1.1528c-.0254.0039-.0508.0059-.0762.0059-.2422,0-.4551-.1772-.4932-.4243-.042-.2729.1455-.5283.4189-.5698l7.4541-1.1382c5.373-3.1777,12.0911-5.9827,19.7509-8.2769l-2.3344-5.7026c-5.1267,1.2852-10.1745,3.2334-17.022,6.6641-.04.02-.083.0347-.127.0435l-8.0977,1.5879c-.0332.0063-.0654.0093-.0977.0093-.2334,0-.4434-.1655-.4893-.4038-.0537-.271.123-.5337.3936-.5869l8.0312-1.5747c6.8368-3.4219,11.8992-5.3813,17.0246-6.6777l-2.2371-5.4646c-4.4655,1.1873-9.1376,2.8264-13.9683,5.1721-.21.1101-.43.1499-.66.1499-.55,0-1.09-.3098-1.34-.8398-.37-.75-.06-1.6401.69-2.01,12.48-6.0701,23.86-7.6101,33.35-8.51" style="fill:none; stroke:#a6abb0; stroke-miterlimit:10; stroke-width:.5px;"/><path d="m207.5758,46.9111c12.0698-3.0247,26.0668-4.8669,33.1604-5.4189-.0648-1.4377-.1297-2.8342-.1949-4.1836-7.9204.5916-22.7719,2.6726-34.8721,5.8481l1.9067,3.7544Z" style="fill:none; stroke:#a6abb0; stroke-miterlimit:10; stroke-width:.5px;"/><path d="m209.7483,51.1894c5.6606-1.4287,11.5272-2.759,17.1205-3.7612.5459-.0962,1.0635.2646,1.1611.8081s-.2646,1.063-.8076,1.1606c-13.89,2.4883-29.5083,7.0048-39.2919,10.0493-.5122.1594-.8606.6176-.8797,1.1536-.1546,4.3358-.306,8.8603-.4534,13.5203-.0534,1.6901,1.6615,2.8633,3.2136,2.1921,5.3205-2.3008,11.9747-4.5998,18.5426-6.5879l-1.5282-3.6238c-4.9375,1.4893-9.4772,3.2214-12.9604,5.2031-.0781.0444-.1631.0654-.2471.0654-.1738,0-.3428-.0908-.4346-.2529-.1367-.2397-.0527-.5449.1875-.6816,3.5178-2.0012,8.0931-3.7507,13.0663-5.2546l-2.0215-4.7937c-4.5713,1.4233-8.7551,3.0618-12.0165,4.917-.0781.0444-.1631.0654-.2471.0654-.1738,0-.3428-.0908-.4346-.2529-.1367-.2397-.0527-.5449.1875-.6816,3.2954-1.8748,7.5151-3.53,12.1226-4.968l-.1294-.3069c-.1602-.3818.0186-.8218.4004-.9824.3789-.1592.8203.0166.9824.3994l.1902.4512c13.3201-3.9629,29.3276-6.1658,35.7196-6.6416-.1349-3.4673-.2717-6.7778-.4098-9.8945-7.5928.5913-21.1539,2.4854-32.7285,5.3589l1.6958,3.3394Z" style="fill:none; stroke:#a6abb0; stroke-miterlimit:10; stroke-width:.5px;"/><path d="m207.8854,64.7519c12.3292-3.5588,26.6686-5.6377,33.5352-6.262-.0632-1.7339-.1267-3.4387-.1908-5.1047-6.364.4773-22.1988,2.6555-35.3701,6.563l2.0258,4.8037Z" style="fill:none; stroke:#a6abb0; stroke-miterlimit:10; stroke-width:.5px;"/><path d="m244.0586,167.7379c-11.5841,2.6436-24.7087,7.7603-36.2219,13.2775l2.5218,12.7238c10.8623-5.0961,22.9781-9.7596,33.8576-12.3514-.0396-4.2664-.0925-8.8394-.1575-13.6498Z" style="fill:none; stroke:#a6abb0; stroke-miterlimit:10; stroke-width:.5px;"/><path d="m208.3213,36.8223l-1.628-3.0103c-5.3045,1.0195-10.1844,2.28-13.7805,3.8418-.0645.0283-.1328.0415-.1992.0415-.1934,0-.377-.1123-.459-.3008-.1094-.2534.0068-.5479.2598-.6577,3.5906-1.5593,8.426-2.821,13.6819-3.8438l-1.1779-2.178c-4.8311.9397-9.1257,1.9749-12.1339,3.0662-.0566.02-.1143.0298-.1709.0298-.2041,0-.3965-.126-.4697-.3296-.0947-.2593.04-.5464.2988-.6406,3.1399-1.1387,7.6635-2.2158,12.7305-3.1885.0064-.0037.0099-.0103.0165-.0137.1394-.0757.2902-.0886.4367-.0723,12.187-2.3098,27.341-4.0107,34.1311-4.5037-.1489-2.239-.298-4.1946-.4465-5.8213l-2.2961.157c-6.9946.4717-18.7536,1.2651-28.9127,2.6653l1.9034,2.4148c7.0255-1.1003,13.1505-1.8796,15.7759-1.8359.4141.0063.7441.3472.7383.7617-.0068.4141-.3701.7476-.7617.7383-5.1741-.0728-24.1262,3.0806-36.5121,5.5446-.5651.1124-.9737.5833-1.0057,1.1586-.1289,2.3198-.2572,4.8351-.3847,7.5226-.0725,1.5296,1.3334,2.7146,2.8252,2.3694,1.0436-.2415,2.0959-.4874,3.1699-.7387,4.5623-1.0669,9.2048-2.1511,14.3704-3.1768Z" style="fill:none; stroke:#a6abb0; stroke-miterlimit:10; stroke-width:.5px;"/><path d="m205.487,18.6184l2.0003,2.5381c10.3385-1.4583,22.4205-2.2744,29.5603-2.7556l2.2687-.155c-.0411-.4124-.0822-.8035-.1232-1.1638-.0766-.6733-.2833-1.2014-.5823-1.6257l-1.5076.1033c-7.6251.5146-20.9148,1.4106-31.6163,3.0588Z" style="fill:none; stroke:#a6abb0; stroke-miterlimit:10; stroke-width:.5px;"/><path d="m207.7444,32.6003c12.297-2.2522,26.423-3.2527,32.3481-3.6716.002,0,.0038.001.0058.0007-.0585-1.0007-.1171-1.9541-.1758-2.8691-6.6538.4836-21.3522,2.126-33.3568,4.3608l1.1786,2.1792Z" style="fill:none; stroke:#a6abb0; stroke-miterlimit:10; stroke-width:.5px;"/><path d="m208.0274,194.8408l-2.5155-12.6919c-5.0209,2.4763-9.6915,5.0016-13.7055,7.3965-.1211.0718-.2529.106-.3838.106-.2559,0-.5049-.1304-.6455-.3657-.2119-.356-.0957-.8159.2598-1.0283,4.1404-2.4702,8.9743-5.0784,14.1734-7.6304l-1.024-5.1665c-.1338-.6772.3066-1.335.9834-1.4692.6807-.1343,1.3359.3066,1.4697.9829l.897,4.5259c11.626-5.5463,24.8476-10.6749,36.5014-13.2977-.1073-7.7108-.2449-16.0018-.4077-24.5868-11.1041,2.4656-23.3043,6.4965-34.1528,11.1921l2.0151,7.0659c6.3795-2.7341,13.344-5.2627,20.6928-7.2222.8833-.238,1.7878.3646,1.881,1.3136.073.7434-.4655,1.4132-1.1871,1.6061-20.6469,5.5194-38.2355,15.6065-47.9547,21.9407-.3539.2306-.5612.6244-.5655,1.0468-.073,7.0832-.112,13.4091-.112,18.6839h18.9565c1.5691-.8037,3.1767-1.6064,4.824-2.4016Z" style="fill:none; stroke:#a6abb0; stroke-miterlimit:10; stroke-width:.5px;"/><path d="m243.4247,131.2724c-11.8504,2.5103-25.0995,6.8772-36.6724,11.98l2.3109,8.1028c10.9905-4.7424,23.331-8.803,34.5379-11.2678-.056-2.9098-.1149-5.8521-.1764-8.8149Z" style="fill:none; stroke:#a6abb0; stroke-miterlimit:10; stroke-width:.5px;"/><path d="m188.6721,25.3365c-.0992,1.5089,1.2527,2.7061,2.7374,2.4192,5.242-1.0129,11.3319-2.0977,16.9989-3.0077l-1.9225-2.439c-5.271.7783-9.9946,1.73-13.2196,2.8999-.0566.02-.1143.0298-.1709.0298-.2041,0-.3965-.126-.4697-.3296-.0947-.2593.04-.5464.2988-.6406,3.1686-1.1492,7.741-2.0894,12.8502-2.8621l-1.774-2.2507c-.0668-.0847-.1103-.1792-.1356-.2773-4.2037.6968-7.919,1.5186-10.5988,2.4907-.0566.02-.1143.0298-.1709.0298-.2041,0-.3965-.126-.4697-.3296-.0947-.2593.04-.5464.2988-.6406,9.793-3.5518,32.9727-5.1157,44.1113-5.8667l.4962-.0339" style="fill:none; stroke:#a6abb0; stroke-miterlimit:10; stroke-width:.5px;"/><path d="m207.322,91.9255c-4.9719,1.665-9.5158,3.5439-13.3329,5.7156-.1172.0664-.2451.0981-.3701.0981-.2607,0-.5146-.1362-.6533-.3789-.2041-.3604-.0781-.8184.2812-1.0229,3.9113-2.2251,8.5498-4.1445,13.6162-5.8406l-2.3685-7.3743c-4.2706,1.5095-8.1938,3.186-11.5466,5.0933-.1172.0664-.2451.0981-.3701.0981-.2607,0-.5146-.1362-.6533-.3794-.2041-.3599-.0781-.8179.2812-1.0225,3.444-1.959,7.4637-3.675,11.8304-5.2166l-.3987-1.2415c-.1689-.5259.1201-1.0889.6465-1.2578.5254-.1689,1.0889.1201,1.2578.6465l.3834,1.1936c10.9924-3.6687,23.9843-6.2854,35.9692-8.6733-.1424-4.4373-.2883-8.7434-.4372-12.8728-6.8265.6233-20.9979,2.6772-33.1831,6.1836l1.5254,3.6172c6.7216-1.9924,13.2348-3.6326,17.9913-4.584.5488-.1079,1.0693.2432,1.1768.7842.1084.5415-.2432,1.0684-.7842,1.1768-10.7552,2.1512-30.553,7.8424-41.1055,13.1053-.4157.2073-.6739.6227-.6878,1.087-.2262,7.5429-.4413,15.3635-.6417,23.2669-.0429,1.6923,1.6884,2.8491,3.2372,2.1659,6.1484-2.7124,13.2612-5.5827,20.3625-8.0597l-2.026-6.3079Z" style="fill:none; stroke:#a6abb0; stroke-miterlimit:10; stroke-width:.5px;"/><path d="m208.7671,89.885c10.3663-3.2937,22.293-5.728,33.4229-7.9482-.0811-2.7246-.1637-5.4089-.2475-8.054-11.8804,2.3677-24.7302,4.9663-35.5587,8.5818l2.3833,7.4204Z" style="fill:none; stroke:#a6abb0; stroke-miterlimit:10; stroke-width:.5px;"/><path d="m207.1681,153.8264c-5.0728,2.281-9.804,4.6904-13.9008,7.135-.1211.0718-.2529.106-.3838.106-.2559,0-.5049-.1304-.6455-.3657-.2119-.3555-.0957-.8159.2598-1.0283,4.1967-2.5039,9.0498-4.9717,14.2548-7.3038l-2.3026-8.0739c-4.6429,2.1281-8.9772,4.3593-12.7676,6.6208-.1211.0718-.2529.106-.3838.106-.2559,0-.5049-.1304-.6455-.3657-.2119-.3555-.0957-.8159.2598-1.0283,3.8901-2.321,8.3475-4.6099,13.1216-6.7898l-.647-2.2688c-.1895-.6641.1953-1.3555.8594-1.5449.6582-.1899,1.3545.1943,1.5449.8594l.5463,1.9156c11.7167-5.1493,25.1065-9.5485,37.0548-12.0551-.1266-6.028-.2642-12.1338-.4109-18.23-11.3577,2.2933-23.547,5.1108-34.4988,9.0984l1.5581,6.2927c6.7308-2.62,13.8033-5.0499,20.6011-6.9358.7998-.2212,1.624.2461,1.8467,1.0444.2217.7983-.2461,1.625-1.0439,1.8462-16.8265,4.6681-35.3378,12.6925-45.9066,18.6014-.3918.2191-.6299.6307-.6383,1.0796-.1825,9.7082-.3322,19.0201-.442,27.5302-.0234,1.8111,1.9546,2.9241,3.5011,1.9812,5.6392-3.4382,12.877-7.4479,21.2215-11.1692l-2.0128-7.0575Z" style="fill:none; stroke:#a6abb0; stroke-miterlimit:10; stroke-width:.5px;"/><path d="m208.121,119.1506c11.0875-4.0221,23.3867-6.8547,34.8242-9.1586-.0679-2.7874-.1376-5.5699-.209-8.3408-12.055,2.4325-25.0534,5.453-36.512,9.8383l1.8969,7.6611Z" style="fill:none; stroke:#a6abb0; stroke-miterlimit:10; stroke-width:.5px;"/><path d="m206.5965,121.3147c-5.0582,1.9319-9.8218,4.1229-14.0606,6.6516-.1201.0718-.252.106-.3828.106-.2559,0-.5049-.1304-.6455-.3657-.2119-.356-.0957-.8159.2607-1.0283,4.3647-2.604,9.265-4.8545,14.4647-6.8315l-1.8874-7.6228c-4.3318,1.7427-8.4192,3.688-12.1085,5.8894-.1211.0718-.2529.106-.3838.106-.2559,0-.5049-.1304-.6455-.3657-.2119-.3555-.0957-.8159.2598-1.0283,3.8142-2.2759,8.0411-4.2783,12.5148-6.0684l-.3634-1.4678c-.1328-.5361.1943-1.0781.7305-1.2109.5332-.1343,1.0781.1934,1.2109.7305l.3002,1.2126c11.5991-4.4187,24.7063-7.4507,36.836-9.8923-.1472-5.6411-.3015-11.2212-.4617-16.6714-11.0186,2.1987-22.8014,4.6123-33.0092,7.8547l2.0131,6.2678c6.3061-2.1362,12.5341-3.9219,17.9963-4.9614.8875-.1706,1.7549.4907,1.7807,1.443.0203.7505-.5639,1.3786-1.3012,1.5198-14.0025,2.6808-32.9098,10.3897-43.4317,15.224-.4384.2014-.7152.6325-.7268,1.1148-.1813,7.5531-.3483,15.118-.498,22.5265-.0352,1.7398,1.7932,2.8826,3.3419,2.0891,5.5433-2.8405,12.4089-5.9618,19.764-8.8908l-1.5674-6.3303Z" style="fill:none; stroke:#a6abb0; stroke-miterlimit:10; stroke-width:.5px;"/><path d="m118.5912,44.9074h13.66c-.61,2.63-1.21,5.39-1.81,8.27h-11.65c-1.17-.28-2.26-2.05-2.26-2.05,0,0,1.87-6.09,2.06-6.22Z" style="fill:#f4ae3d; stroke-width:0px;"/><ellipse cx="123.5775" cy="48.0575" rx="2.5374" ry="1.7561" transform="translate(-5.93 19.6195) rotate(-8.8656)" style="fill:none; stroke:#30373e; stroke-miterlimit:10; stroke-width:.5px;"/><line x1="116.5296" y1="51.1317" x2="130.8746" y2="51.1317" style="fill:none; stroke:#30373e; stroke-miterlimit:10; stroke-width:.5px;"/><path d="m132.2502,44.9061h-13.6575c-.1924.1314-2.0631,6.2255-2.0631,6.2255,0,0,1.0889,1.7653,2.2654,2.0457h11.6505" style="fill:none; stroke:#30373e; stroke-miterlimit:10;"/><path d="m206.5624,48.2287c-5.0508,1.312-9.642,2.8118-13.0685,4.4739-.0703.0342-.1445.0503-.2178.0503-.1855,0-.3633-.1035-.4502-.2817-.1201-.2485-.0166-.5474.2324-.668,3.5099-1.7026,8.0679-3.209,13.0284-4.511l-1.8978-3.7371c-4.3329,1.1931-8.2456,2.5288-11.2575,3.9897-.0703.0342-.1445.0503-.2178.0503-.1855,0-.3633-.1035-.4502-.2817-.1201-.2485-.0166-.5479.2324-.668,3.1133-1.51,7.0521-2.8657,11.3646-4.0615.0335-.2336.163-.4502.3893-.5654.3247-.1641.6996-.0605.9165.2126,12.6327-3.3547,27.9839-5.3735,35.3262-5.9214-.1118-2.2703-.2242-4.4016-.337-6.3835-5.8618.4143-19.7664,1.4004-31.9121,3.5967l1.6216,2.9985c5.0443-.969,10.6048-1.8782,17.0908-2.6587.4023-.0532.7852.2437.834.6548.0498.4116-.2432.7852-.6543.8345-13.8535,1.667-23.5068,3.9243-32.8428,6.1074-1.9128.4474-3.7564.8782-5.6061,1.2975-.5555.1259-.9584.5991-.9831,1.1681-.1424,3.2818-.2831,6.7653-.4218,10.4116-.0603,1.5849,1.4527,2.7638,2.9701,2.3024,5.1215-1.5573,11.3873-3.3695,18.0063-5.0713l-1.6957-3.3391Z" style="fill:none; stroke:#a6abb0; stroke-miterlimit:10; stroke-width:.5px;"/><path d="m187.6512,44.9074h.01c-.11,2.64-.22,5.4-.34,8.27h-10.71c-1.17-.28-2.26-2.05-2.26-2.05l.63-6.22h12.67Z" style="fill:#f4ae3d; stroke-width:0px;"/><line x1="174.3485" y1="51.1317" x2="187.4785" y2="51.1317" style="fill:none; stroke:#30373e; stroke-miterlimit:10; stroke-width:.5px;"/><ellipse cx="181.1508" cy="48.251" rx="2.414" ry="1.5488" style="fill:none; stroke:#30373e; stroke-miterlimit:10; stroke-width:.5px;"/><path d="m187.6523,44.9061h-12.6696l-.6342,6.2255s1.0889,1.7653,2.2654,2.0457h10.8647" style="fill:none; stroke:#30373e; stroke-miterlimit:10;"/><path d="m309.8062,44.9074h-13.66c.61,2.63,1.21,5.39,1.81,8.27h11.65c1.17-.28,2.26-2.05,2.26-2.05,0,0-1.87-6.09-2.06-6.22Z" style="fill:#f4ae3d; stroke-width:0px;"/><ellipse cx="304.8198" cy="48.0575" rx="1.7561" ry="2.5374" transform="translate(210.3587 341.8291) rotate(-81.1344)" style="fill:none; stroke:#30373e; stroke-miterlimit:10; stroke-width:.5px;"/><line x1="311.8678" y1="51.1317" x2="297.5228" y2="51.1317" style="fill:none; stroke:#30373e; stroke-miterlimit:10; stroke-width:.5px;"/><path d="m296.1472,44.9061h13.6575c.1924.1314,2.0631,6.2255,2.0631,6.2255,0,0-1.0889,1.7653-2.2654,2.0457h-11.6505" style="fill:none; stroke:#30373e; stroke-miterlimit:10;"/><path d="m240.7462,44.9074h-.01c.11,2.64.22,5.4.34,8.27h10.71c1.17-.28,2.26-2.05,2.26-2.05l-.63-6.22h-12.67Z" style="fill:#f4ae3d; stroke-width:0px;"/><line x1="254.0489" y1="51.1317" x2="240.9189" y2="51.1317" style="fill:none; stroke:#30373e; stroke-miterlimit:10; stroke-width:.5px;"/><ellipse cx="247.2466" cy="48.251" rx="2.414" ry="1.5488" style="fill:none; stroke:#30373e; stroke-miterlimit:10; stroke-width:.5px;"/><path d="m240.7451,44.9061s12.6696,0,12.6696,0l.6342,6.2255s-1.0889,1.7653-2.2654,2.0457h-10.8647" style="fill:none; stroke:#30373e; stroke-miterlimit:10;"/><path d="m189.3512,20.3174c-2.6154,17.2691-5.8247,170.914-5.1043,176.925" style="fill:none; stroke:#a6abb0; stroke-miterlimit:10;"/><path d="m244.3008,197.2424c-.4687-44.3578-3.1099-144.8567-4.7547-176.4349" style="fill:none; stroke:#a6abb0; stroke-miterlimit:10;"/><path d="m13.1446,197.3811C26.618,135.6209,51.7238,46.0637,94.8708,26.083c21.9753-10.1764,35.2805-10.3855,35.2805-10.3855,0,0,6.6811-1.0581,7.7467,5.1575h2.0151" style="fill:none; stroke:#a6abb0; stroke-miterlimit:10;"/><path d="m415.4031,197.3811c-13.4734-61.7602-38.5793-151.3175-81.7263-171.2982-21.9753-10.1764-35.2805-10.3855-35.2805-10.3855,0,0-6.6811-1.0581-7.7467,5.1575h-2.0151" style="fill:none; stroke:#a6abb0; stroke-miterlimit:10;"/><path d="m114.3312,197.2474c.19-6.3.49-12.89.88-19.69l1.0311-1.0181-.7811-3.0119c.75-12.25,1.8-25.07,3.09-37.89l1.0165-1.49-.6165-2.51c.87-8.46,1.85-16.9,2.9-25.15l.9865-1.3336-.4765-2.6364c.94-7.14,1.94-14.1,2.98-20.8l.9327-.9499-.4627-2.0301c1.2-7.47,2.45-14.58,3.75-21.16l1.0189-.6928-.4289-2.2772c.96-4.7,1.93-9.11,2.92-13.16l.8541-.6385-.3541-1.3415c.88-3.47,1.77-6.66,2.66-9.52l.8038-.2304-.1638-1.7596c.86-2.57,1.71-4.83,2.57-6.74h1.5157l-.5757-1.97c1.81-3.51,3.6-5.43,5.36-5.43h30.51c2.66,0,5.45,1.97,5.8,6.5h7.3l.6028-4.1273s.4814-2.3735,4.4358-2.3735h40.5334s4.2733,0,4.3931,4.4292l.2297,2.5617" style="fill:none; stroke:#a6abb0; stroke-miterlimit:10;"/><path d="m239.1965,20.3174h7.3c.35-4.53,3.14-6.5,5.8-6.5,2.67,0,26.11,0,30.51,0,1.76,0,3.55,1.92,5.36,5.43l-.5757,1.97h1.5157c.86,1.91,1.71,4.17,2.57,6.74l-.1638,1.7596.8038.2304c.89,2.86,1.78,6.05,2.66,9.52l-.3541,1.3415.8541.6385c.99,4.05,1.96,8.46,2.92,13.16l-.4289,2.2772,1.0189.6928c1.3,6.58,2.55,13.69,3.75,21.16l-.4627,2.0301.9327.9499c1.04,6.7,2.04,13.66,2.98,20.8l-.4765,2.6364.9865,1.3336c1.05,8.25,2.03,16.69,2.9,25.15l-.6165,2.51,1.0165,1.49c1.29,12.82,2.34,25.64,3.09,37.89l-.7811,3.0119,1.0311,1.0181c.39,6.8.69,13.39.88,19.69" style="fill:none; stroke:#a6abb0; stroke-miterlimit:10;"/></svg>