<?xml version="1.0" encoding="UTF-8"?><svg xmlns="http://www.w3.org/2000/svg" width="325" height="312.482" xmlns:xlink="http://www.w3.org/1999/xlink" viewBox="0 0 325 312.482"><defs><linearGradient id="uuid-21a123a6-0425-437b-bfba-c7059fc3b4cc" x1="77.263" y1="234.403" x2="78.746" y2="234.403" gradientUnits="userSpaceOnUse"><stop offset="0" stop-color="#f4ae3d"/><stop offset="1" stop-color="#f4ae3d" stop-opacity="0"/></linearGradient><clipPath id="uuid-e9b88b0e-3740-4fc6-976f-2aacba104d1b"><rect x="220.709" y="106.632" width="96.143" height="111.784" rx="5.297" ry="5.297" style="fill:none; stroke-width:0px;"/></clipPath></defs><g id="uuid-3a327dd3-e926-4b82-9dc4-f34c4b7afde2"><path d="m180.769,61.002l-.117.677c-.125.722-.751,1.25-1.484,1.25h-9.009c-.733,0-1.359-.528-1.484-1.25l-.117-.677" style="fill:none; stroke:#a6abb0; stroke-miterlimit:10;"/><path d="m92.475,165.602c-8.877.398-23.273,1.323-30.418,1.784-2.305.149-4.556-.796-6.061-2.549l-2.485-2.894c-1.157-1.347-1.932-2.949-2.278-4.69-4.385-22.067-7.736-47.161-10.608-84.631-.154-2.006.289-4.017,1.276-5.77l1.479-2.625c1.152-2.045,3.281-3.349,5.627-3.445l15.984-.656c1.019,1.358,1.235,2.84,5.542,2.748l95.527-.327c1.349,0,.745-1.938,2.583-1.938h12.134c1.82,0,1.246,1.933,2.577,1.933,5.582,0,8.59-.955,9.995-2.835" style="fill:none; stroke:#a6abb0; stroke-miterlimit:10;"/><path d="m259.306,162.89c-.847,0,.847,0,0,0-13.636,0-58.401-.131-106.385.825" style="fill:none; stroke:#a6abb0; stroke-miterlimit:10; stroke-width:1.5px;"/><path d="m25.225,177.506c.285-.285.674-.467,1.062-.492,1.969-.104,8.135-.389,12.383-.622,5.104-.285,5.596-.933,8.342-3.265,2.72-2.332,3.445-2.747,7.462-3.058,11.745-.876,21.07-1.719,34.036-2.455" style="fill:none; stroke:#a6abb0; stroke-linecap:round; stroke-linejoin:round;"/><path d="m172.427,197.385v16.323c0,1.627-.697,3.086-1.802,4.094" style="fill:none; stroke:#a6abb0; stroke-miterlimit:10; stroke-width:.5px;"/><path d="m94.041,178.802h61.471" style="fill:none; stroke:#a6abb0; stroke-linecap:round; stroke-linejoin:round;"/><path d="m77.724,217.803c-1.091-1.012-1.773-2.464-1.773-4.068v-14.948" style="fill:none; stroke:#a6abb0; stroke-miterlimit:10; stroke-width:.5px;"/><path d="m111.988,171.687h25.903" style="fill:none; stroke:#a6abb0; stroke-linecap:round; stroke-linejoin:round; stroke-width:.5px;"/><path d="m150.154,175.407h-50.689" style="fill:none; stroke:#a6abb0; stroke-linecap:round; stroke-linejoin:round; stroke-width:.5px;"/><path d="m9.451,150.509c3.895,9.13,10.123,21.594,12.756,31.058.187.631-.785.919-.962.273-2.321-9.444-8.209-22.183-11.794-31.332h0Z" style="fill:#a6abb0; stroke-width:0px;"/><path d="m65.235,217.802h15.405c.513,0,.993.044,1.442.129" style="fill:none; stroke:#a6abb0; stroke-miterlimit:10; stroke-width:.5px;"/><path d="m184.365,217.802h-15.176c-.573,0-1.105.055-1.6.161" style="fill:none; stroke:#a6abb0; stroke-miterlimit:10; stroke-width:.5px;"/><path d="m259.306,273.902h-35.477c-8.496,0-9.063-.69-16.005-9.142-.569-.693-1.196-1.463-1.87-2.298" style="fill:none; stroke:#a6abb0; stroke-linecap:round; stroke-linejoin:round; stroke-width:.5px;"/><path d="m259.306,278.681h-35.477c-10.486,0-12.293-1.872-19.698-10.888-1.192-1.452-2.636-3.242-4.242-5.253" style="fill:none; stroke:#a6abb0; stroke-linecap:round; stroke-linejoin:round;"/><path d="m259.306,186.346l-35.597-.17c-19.074,0-3.353,0-31.759,0-3.173,0-7.163-.831-10.78-1.817" style="fill:none; stroke:#a6abb0; stroke-linecap:round; stroke-linejoin:round;"/><polyline points="194.941 262.462 223.481 262.462 259.306 262.462" style="fill:none; stroke:#a6abb0; stroke-linecap:round; stroke-linejoin:round;"/><path d="m259.306,193.146h-60.82c-1.266,0-2.48.504-3.373,1.401s-1.394,2.113-1.39,3.379l.021,6.855" style="fill:none; stroke:#a6abb0; stroke-linecap:round; stroke-linejoin:round; stroke-width:.5px;"/><path d="m196.626,257.548c.615.29,1.302.452,2.027.452h60.653" style="fill:none; stroke:#a6abb0; stroke-linecap:round; stroke-linejoin:round; stroke-width:.5px;"/><path d="m259.306,183.829h-64.494c-3.835,0-7.85-1.166-15.026-4.172-2.008-.841-3.94-1.544-5.846-2.12" style="fill:none; stroke:#a6abb0; stroke-linecap:round; stroke-linejoin:round; stroke-width:.5px;"/><path d="m155.829,261.428l3.798.07c9.977.183,17.909.332,22.187.417" style="fill:none; stroke:#a6abb0; stroke-linecap:round; stroke-linejoin:round;"/><path d="m193.351,59.707c.539-.869,1.501-2.922.18-6.774,0,0-7.452-21.743-9.803-28.605-2.352-6.862-6.929-11.389-30.516-11.389H36.78c-15.748,0-16.962,6.09-11.252,15.657,3.096,5.187,8.848,14.824,12.148,20.352,3.241,5.429,5.354,7.24,11.137,7.24,3.89,0,6.354-.169,8.127-.169,3.9,0,6.172.886,8.051,4.107" style="fill:none; stroke:#a6abb0; stroke-miterlimit:10;"/><path d="m41.695,68.486c-1.334,3.523-3.482,6.489-5.367,9.578-1.387,2.311-3.197,4.807-5.957,5.615-4.453,1.212-9.111.423-13.635.203-3.621-.291-7.233-.672-10.829-1.171,3.606.416,7.225.714,10.846.921,4.458.113,9.106.788,13.44-.487,2.626-.862,4.151-3.151,5.497-5.474,1.828-3.14,3.901-6.193,5.067-9.528.213-.615,1.175-.284.939.343h0Z" style="fill:#a6abb0; stroke-width:0px;"/><path d="m46.307,127.858c-.11,3.185-.371,3.887-3.102,4.66-2.732.773-3.974,1.398-6.749,1.943-2.037.4-3.724.812-3.145,3.466s1.651,6.406,1.985,8.341c.335,1.934.803,2.9,3.581,4.226s4.102,1.235,7.206.104c3.105-1.131,3.091-3.837,2.846-5.801" style="fill:none; stroke:#a6abb0; stroke-linecap:round; stroke-linejoin:round; stroke-width:.5px;"/><path d="m66.948,259.857l2.073.035c6.847.116,14.728.252,23.093.398l.776.014" style="fill:none; stroke:#a6abb0; stroke-linecap:round; stroke-linejoin:round;"/><g id="uuid-5fbea1be-c6c4-440b-b6bc-e413e5ba85c5"><path d="m52.049,217.302h-.839c-.542,0-1.112.085-1.622.325,0,0-2.358,1.011-2.372,1.017-.284.132-.52.342-.685.6-.151.238-.241.516-.251.812-.101.036-.194.086-.279.146-.262.186-.452.47-.573.782-.048.076-.083.165-.099.262,0,0-.605,1.839-.578,1.776-.029.059-.045.106-.052.129-.003.008-.037.105-.037.105l-.002.01c-.053.238-.116.543-.116.886v4.069c0,.311.028.631.152.991,0,0,0,.002.003.01.008.023.023.071.025.063,0,0,.622,1.892.645,1.949,0,0,0,.002.003.01.008.023.023.07.029.073.12.339.318.654.6.854.084.06.178.11.278.146v.104c0,.294.088.58.238.822.149.241.365.449.63.582,0,0,2.331,1.192,2.318,1.185.147.081.297.15.449.21" style="fill:none; stroke:#a6abb0; stroke-miterlimit:10; stroke-width:.5px;"/><path d="m52.049,217.552h-.839c-.517,0-1.049.081-1.524.305,0,0-2.358,1.011-2.365,1.014-.24.112-.441.29-.579.508-.135.212-.212.463-.212.729v.145c-.14.018-.27.073-.384.154-.217.154-.384.402-.494.692-.048.068-.081.158-.069.176,0,0-.622,1.892-.608,1.858-.021.043-.032.076-.04.098-.006.018-.008.023-.033.09-.052.236-.11.517-.11.832v4.069c0,.298.027.587.13.889.005.009.006.014.012.032.007.021.018.055.026.064,0,0,.622,1.892.636,1.926.005.009.007.014.012.032.007.021.018.055.027.069.108.307.281.572.509.733.114.081.244.136.384.154v.3c0,.245.073.485.201.691.126.204.309.379.532.491,0,0,2.331,1.192,2.324,1.189.137.075.277.14.42.196" style="fill:none; stroke:#a6abb0; stroke-miterlimit:10; stroke-width:.5px;"/></g><path d="m52.049,217.802h-.839c-.492,0-.985.078-1.425.285l-2.358,1.011c-.389.181-.648.57-.648,1.011v.389h-.155c-.311,0-.596.285-.751.726-.026.026-.052.078-.052.129l-.622,1.892c-.026.052-.026.078-.052.13-.052.233-.104.492-.104.777v4.069c0,.285.026.544.104.777.026.052.026.078.052.13l.622,1.892c.026.052.026.078.052.129.155.441.44.726.751.726h.155v.544c0,.389.233.778.596.959l2.331,1.192c.127.07.257.13.39.182" style="fill:none; stroke:#a6abb0; stroke-miterlimit:10; stroke-width:.5px;"/><path d="m46.779,220.497h1.405c.337,0,.7.57.7,1.425v8.545c0,.829-.363,1.425-.7,1.425l-1.405-.021" style="fill:none; stroke:#a6abb0; stroke-miterlimit:10; stroke-width:.5px;"/><path d="m32.828,238.02c-5.489-3.781-8.539-10.199-10.418-20.313" style="fill:none; stroke:#a6abb0; stroke-linecap:round; stroke-linejoin:round; stroke-width:.5px;"/><path d="m45.42,221.546c-1.258-1.67-1.94-3.294-2.217-4.366-.777-3.11-2.073-8.422-3.135-19.617-1.114-11.817,5.674-9.977,16.115-10.469,4.614-.225,7.05-.507,11.505-1.87" style="fill:none; stroke:#a6abb0; stroke-linecap:round; stroke-linejoin:round;"/><path d="m76.268,177.044c-1.593.623-3.458,1.47-5.811,2.613-7.357,3.576-8.34,4.561-17.227,4.742l-25.991.427c-.817.013-1.592.364-2.141.969s-.824,1.41-.758,2.225l.068.841c.175,2.183.332,4.328.483,6.403.816,11.212,1.52,20.894,4.658,28.236,1.76,4.118,4.162,7.228,7.343,9.509,1.073.769,2.226,1.439,3.468,2.012" style="fill:none; stroke:#a6abb0; stroke-linecap:round; stroke-linejoin:round; stroke-width:.5px;"/><path d="m42.686,188.572l-13.693.068c-.505.003-.985.215-1.327.586s-.513.868-.475,1.371c1.863,24.331,1.762,42.134,22.901,44.191" style="fill:none; stroke:#a6abb0; stroke-linecap:round; stroke-linejoin:round; stroke-width:.5px;"/><path d="m23.951,255.221c-4.125-2.861-4.316-6.432-4.368-8.328-.144-5.21-.072-11.689.288-19.571.36-7.882,2.289-9.617,2.289-9.617l-.009.002c-1.199-6.455-1.886-14.417-2.368-24.16-.414-8.552.311-10.703,5.441-16.041.123-.127.245-.255.366-.383" style="fill:none; stroke:#a6abb0; stroke-linecap:round; stroke-linejoin:round;"/><g id="uuid-cfdec2b7-5939-432b-bb3d-379a89236bd1"><path d="m255.901,73.722c22.119.057,33.924,1.088,37.071,1.391,1.377.133,2.434.73,3.183,1.614,1.283,1.515,1.549,3.726,1.425,5.502-.18,2.579-.593,8.564-1.884,12.48-.669,2.03-1.386,3.671-2.791,4.76-1.227.951-2.838,1.378-5.016,1.522-7.441.493-22.089,1.032-32.027,1.004-9.937-.028-24.626-.65-32.065-1.186-2.177-.157-3.786-.592-5.008-1.55-1.401-1.097-2.111-2.742-2.771-4.775-1.274-3.924-1.663-9.91-1.832-12.491-.117-1.776.159-3.986,1.449-5.495.753-.88,1.813-1.472,3.19-1.597,3.148-.285,14.958-1.249,37.076-1.18Z" style="fill:none; stroke:#a6abb0; stroke-miterlimit:10; stroke-width:.5px;"/><path d="m255.901,73.972c22.111.057,33.909,1.087,37.048,1.389,1.313.126,2.31.693,3.016,1.527,1.22,1.441,1.489,3.571,1.367,5.323-.181,2.589-.593,8.539-1.872,12.42-.668,2.027-1.366,3.602-2.707,4.641-1.169.906-2.721,1.327-4.88,1.47-7.436.493-22.078,1.032-32.01,1.003-9.931-.028-24.614-.65-32.048-1.185-2.157-.155-3.708-.585-4.872-1.497-1.336-1.046-2.028-2.625-2.687-4.656-1.262-3.888-1.651-9.84-1.821-12.43-.115-1.752.163-3.881,1.389-5.316.71-.83,1.71-1.391,3.023-1.51,3.141-.285,14.943-1.248,37.053-1.179Z" style="fill:none; stroke:#a6abb0; stroke-miterlimit:10; stroke-width:.5px;"/><path d="m255.9,74.222c22.103.057,33.893,1.087,37.025,1.388,1.248.12,2.186.656,2.849,1.44,1.158,1.367,1.428,3.417,1.308,5.144-.181,2.598-.593,8.514-1.86,12.359-.667,2.024-1.347,3.533-2.623,4.521-1.111.861-2.604,1.277-4.743,1.418-7.431.492-22.067,1.031-31.992,1.003-9.925-.028-24.602-.65-32.031-1.184-2.138-.154-3.629-.577-4.736-1.445-1.271-.996-1.945-2.508-2.604-4.536-1.251-3.852-1.638-9.769-1.809-12.369-.113-1.727.166-3.776,1.33-5.137.667-.78,1.607-1.31,2.856-1.424,3.133-.284,14.927-1.247,37.03-1.178Z" style="fill:none; stroke:#a6abb0; stroke-miterlimit:10; stroke-width:.5px;"/><path d="m255.899,74.472c22.095.057,33.877,1.086,37.001,1.387,1.184.114,2.061.619,2.683,1.353,1.095,1.294,1.368,3.263,1.249,4.965-.182,2.608-.593,8.489-1.848,12.298-.666,2.022-1.327,3.464-2.538,4.402-1.053.816-2.487,1.226-4.606,1.366-7.425.492-22.056,1.03-31.975,1.002-9.919-.028-24.59-.65-32.013-1.184-2.118-.152-3.55-.57-4.6-1.392-1.207-.945-1.862-2.391-2.52-4.417-1.239-3.816-1.626-9.699-1.797-12.308-.112-1.703.17-3.671,1.27-4.958.625-.73,1.504-1.23,2.688-1.337,3.125-.283,14.912-1.246,37.007-1.177Z" style="fill:none; stroke:#a6abb0; stroke-miterlimit:10; stroke-width:.5px;"/></g><path d="m255.899,74.722c22.087.057,33.862,1.086,36.978,1.386s3.889,3.433,3.706,6.051-.593,8.464-1.836,12.237-2.408,5.298-6.924,5.597c-7.42.492-22.045,1.03-31.958,1.002-9.913-.028-24.578-.649-31.996-1.183-4.514-.325-5.673-1.856-6.9-5.636-1.227-3.78-1.614-9.629-1.786-12.247-.172-2.619.614-5.747,3.732-6.03,3.118-.282,14.896-1.245,36.983-1.176Z" style="fill:none; stroke:#a6abb0; stroke-miterlimit:10; stroke-width:.5px;"/><path d="m255.869,99.484c-9.669-.028-24.318-.633-31.932-1.181-4.105-.296-4.893-1.557-5.953-4.822-1.196-3.682-1.562-9.265-1.719-11.65-.087-1.322.006-4.424,2.734-4.671,3.901-.354,15.089-1.176,34.661-1.176.734,0,1.477.001,2.235.004,20.908.054,32.764.984,36.891,1.382,2.727.263,2.807,3.366,2.715,4.688-.166,2.383-.556,7.965-1.767,11.639-1.074,3.259-1.867,4.516-5.973,4.788-7.264.481-21.237,1.001-31.142,1.001h-.752Z" style="fill:none; stroke:#a6abb0; stroke-miterlimit:10; stroke-width:.5px;"/><path d="m256.284,69.385h-20.567c-.716,0-1.398-.364-1.866-.997l-2.26-3.059c-.468-.633-1.149-.997-1.866-.997h-20.39c-6.902,0-7.957-4.263-12.992-4.263h-3.373" style="fill:none; stroke:#a6abb0; stroke-miterlimit:10;"/><path d="m298.663,64.333c3.176,0,5.854-.613,7.535-6.28,1.681-5.667,6.103-20.779,7.598-25.865,1.495-5.086.571-7.448-2.202-10.32-3.933-4.075-9.165-8.678-14.713-12.376-4.295-2.863-5.58-3.049-40.598-3.049-35.018,0-36.303.186-40.598,3.049-5.547,3.698-10.78,8.301-14.713,12.376-2.773,2.873-3.696,5.235-2.202,10.32,1.495,5.086,5.916,20.198,7.598,25.865,1.681,5.667,4.359,6.28,7.535,6.28" style="fill:none; stroke:#a6abb0; stroke-miterlimit:10;"/><path d="m256.284,35.988h-37.547c-1.773,0-2.829.074-5.734,1.893-2.852,1.786-3.268,1.565-2.641,4.225.456,1.934.718,2.906,1.169,4.533.508,1.828,1.346,2.889,6.25,2.905,5.508.017,25.989.132,38.503.132" style="fill:none; stroke:#a6abb0; stroke-miterlimit:10; stroke-width:.5px;"/><path d="m256.284,38.405c-10.479,0-16.911.067-19.993.271-1.186.079-2.102,1.02-1.909,2.694l.448,3.899c.152,1.325.881,1.909,1.814,1.986,2.29.19,7.633.209,19.64.209" style="fill:none; stroke:#a6abb0; stroke-miterlimit:10; stroke-width:.5px;"/><path d="m256.284,34.741s33.511,0,37.17,0c4.618,0,5.066.721,7.999,2.429,3.386,1.972,4.822,3.083,4.237,5.245-.585,2.161-1.032,4.136-1.804,6.68-.68,2.239-2.885,2.626-6.939,2.626h-40.663s-40.663,0-40.663,0c-4.054,0-6.259-.387-6.939-2.626-.772-2.544-1.219-4.519-1.804-6.68-.585-2.161.851-3.273,4.237-5.245,2.933-1.708,3.381-2.429,7.999-2.429h37.17Z" style="fill:none; stroke:#a6abb0; stroke-miterlimit:10; stroke-width:.5px;"/><path d="m256.284,35.988s35.774,0,37.547,0c1.773,0,2.829.074,5.734,1.893,2.852,1.786,3.268,1.565,2.641,4.225-.456,1.934-.718,2.906-1.169,4.533-.508,1.828-1.346,2.889-6.25,2.905-5.508.017-25.989.132-38.503.132" style="fill:none; stroke:#a6abb0; stroke-miterlimit:10; stroke-width:.5px;"/><path d="m256.284,39.471c-11.272,0-17.044.078-19.923.268-.202.014-.484.079-.682.316-.216.259-.299.671-.239,1.192l.448,3.899c.113.985.589,1.025.844,1.046,2.238.186,7.676.205,19.552.205,11.876,0,17.314-.019,19.552-.205.255-.022.73-.061.844-1.046l.448-3.899c.06-.521-.023-.933-.239-1.192-.198-.237-.48-.303-.682-.316-2.879-.19-8.651-.268-19.923-.268" style="fill:none; stroke:#a6abb0; stroke-miterlimit:10; stroke-width:.5px;"/><path d="m256.284,38.405c10.479,0,16.911.067,19.993.271,1.186.079,2.102,1.02,1.909,2.694l-.448,3.899c-.152,1.325-.881,1.909-1.814,1.986-2.29.19-7.633.209-19.64.209" style="fill:none; stroke:#a6abb0; stroke-miterlimit:10; stroke-width:.5px;"/><line x1="211.945" y1="58.199" x2="256.284" y2="58.199" style="fill:none; stroke:#a6abb0; stroke-linecap:round; stroke-linejoin:round;"/><path d="m220.006,63.994h-2.723c-4.027-.003-5.303-4.868-5.508-5.683" style="fill:none; stroke:#a6abb0; stroke-linecap:round; stroke-linejoin:round; stroke-width:.5px;"/><path d="m292.562,63.994h2.723c4.027-.003,5.303-4.868,5.508-5.683" style="fill:none; stroke:#a6abb0; stroke-linecap:round; stroke-linejoin:round; stroke-width:.5px;"/><path d="m244.691,64.968c.097.393-.1.715-.437.715h-8.833c-.337,0-.692-.322-.789-.715l-1.117-4.547c-.097-.393.1-.715.437-.715h8.833c.337,0,.692.322.789.715l1.117,4.547Z" style="fill:none; stroke:#a6abb0; stroke-miterlimit:10; stroke-width:.5px;"/><line x1="300.624" y1="58.199" x2="256.284" y2="58.199" style="fill:none; stroke:#a6abb0; stroke-linecap:round; stroke-linejoin:round;"/><path d="m267.878,64.968c-.097.393.1.715.437.715h8.833c.337,0,.692-.322.789-.715l1.117-4.547c.097-.393-.1-.715-.437-.715h-8.833c-.337,0-.692.322-.789.715l-1.117,4.547Z" style="fill:none; stroke:#a6abb0; stroke-miterlimit:10; stroke-width:.5px;"/><path d="m252.767,69.046h-2.047c-.484,0-.914-.363-1.065-.899l-2.533-9.048c-.151-.537-.581-.899-1.065-.899h-5.643" style="fill:none; stroke:#a6abb0; stroke-linecap:round; stroke-linejoin:round; stroke-width:.5px;"/><path d="m259.801,69.046h2.047c.484,0,.914-.363,1.065-.899l2.533-9.048c.151-.537.581-.899,1.065-.899h4.075" style="fill:none; stroke:#a6abb0; stroke-linecap:round; stroke-linejoin:round; stroke-width:.5px;"/><path d="m233.962,67.919l-6.847-9.266c-.213-.288-.523-.454-.85-.454h-1.498" style="fill:none; stroke:#a6abb0; stroke-miterlimit:10; stroke-width:.5px;"/><path d="m256.284,69.385h20.567c.716,0,1.398-.364,1.866-.997l2.26-3.059c.468-.633,1.149-.997,1.866-.997h20.39c6.902,0,7.957-4.263,12.992-4.263h4.227" style="fill:none; stroke:#a6abb0; stroke-miterlimit:10;"/><path d="m278.607,67.919l6.847-9.266c.213-.288.523-.454.85-.454h1.498" style="fill:none; stroke:#a6abb0; stroke-miterlimit:10; stroke-width:.5px;"/><path d="m229.198,64.333s.976,3.953,2.472,10.788" style="fill:none; stroke:#a6abb0; stroke-miterlimit:10; stroke-width:.5px;"/><path d="m304.276,64.299c-3.78,12.008-5.878,17.928-8.036,21.979" style="fill:none; stroke:#a6abb0; stroke-miterlimit:10; stroke-width:.5px;"/><path d="m311.468,31.258c-.447,1.518-1.157,3.935-1.973,6.725-.394,1.342-.819,2.79-1.252,4.275.517-4.041-2.901-5.621-5.69-7.246-3.262-1.946-5.69-2.733-10.329-2.733h-71.879c-4.647,0-7.073.79-10.329,2.733-2.785,1.617-6.2,3.196-5.694,7.225-.433-1.477-.855-2.917-1.248-4.255-.819-2.79-1.526-5.207-1.973-6.725-1.171-3.98-.517-5.149,1.509-7.242,2.522-2.618,7.737-7.656,14.299-12.03,3.64-2.429,4.618-3.081,39.374-3.081s35.737.652,39.377,3.081c6.562,4.374,11.774,9.412,14.299,12.03,2.022,2.092,2.676,3.262,1.509,7.242Z" style="fill:none; stroke:#a6abb0; stroke-miterlimit:10; stroke-width:.5px;"/><line x1="265.1" y1="38.427" x2="264.441" y2="47.454" style="fill:none; stroke:#a6abb0; stroke-miterlimit:10; stroke-width:.5px;"/><line x1="247.468" y1="38.427" x2="248.127" y2="47.454" style="fill:none; stroke:#a6abb0; stroke-miterlimit:10; stroke-width:.5px;"/></g><g id="uuid-b6e4696c-73ee-4001-a6c8-aa063e44085f"><path d="m304.38,110.363h-22.827l-25.268-60.687,7.997,60.687h-45.45c-2.925,0-5.297,2.372-5.297,5.297v101.19c0,2.925,2.372,5.297,5.297,5.297h85.549c2.925,0,5.297-2.372,5.297-5.297v-101.19c0-2.925-2.372-5.297-5.297-5.297Z" style="fill:#f4f4f4; stroke:#30373e; stroke-linecap:round; stroke-linejoin:round; stroke-width:1.5px;"/><path d="m65.153,256.222c4.387.267,5.241-3.658,2.589-4.532-.776-.256-1.791-.592-2.769-.917" style="fill:none; stroke:#30373e; stroke-miterlimit:10; stroke-width:1.5px;"/><path d="m65.108,250.514c2.691,1.429,6.443,2.797,8.415.552.716-.816.905-1.509.745-2.136" style="fill:none; stroke:#30373e; stroke-miterlimit:10; stroke-width:1.5px;"/><line x1="167.651" y1="232.503" x2="167.651" y2="236.6" style="fill:none; stroke:#a6abb0; stroke-linecap:round; stroke-linejoin:round; stroke-width:.5px;"/><line x1="171.699" y1="232.606" x2="171.699" y2="236.6" style="fill:none; stroke:#a6abb0; stroke-linecap:round; stroke-linejoin:round; stroke-width:.5px;"/><line x1="82.021" y1="232.503" x2="82.021" y2="236.6" style="fill:none; stroke:#a6abb0; stroke-linecap:round; stroke-linejoin:round; stroke-width:.5px;"/><line x1="77.973" y1="232.606" x2="77.973" y2="236.6" style="fill:none; stroke:#a6abb0; stroke-linecap:round; stroke-linejoin:round; stroke-width:.5px;"/><path d="m16.125,278.23c2.25-3.446,5.125-6.277,7.93-9.176l-.208.389c1.454-7.135,3.211-16.953,4.812-23.98.517-2.085,1.419-4.432,3.328-5.684.925-.643,1.856-1.103,2.756-1.577,2.714-1.543,5.758-2.899,8.955-2.943,2.118-.031,4.092.035,6.145.063v1.5l-6.061.106c-2.874.059-5.747,1.494-8.198,2.889-1.686.893-3.386,1.648-4.208,3.415-.401.807-.681,1.743-.933,2.691-1.472,6.726-3.586,17.005-5.067,23.837,0,0-.049.23-.049.23l-.159.159c-2.853,2.853-5.635,5.775-9.044,8.081h0Z" style="fill:#30373e; stroke-width:0px;"/><path d="m55.653,262.098c1.282,6.659.458,14.045-3.544,19.669-1.781,2.918-5.226,4.516-7.835,6.342-2.495,1.865-4.111,4.871-6.363,7.341,1.448-3.056,2.765-6.236,5.427-8.5,2.68-2.072,5.571-3.235,7.328-6.185,1.795-2.636,2.983-5.626,3.447-8.791.521-3.161.559-6.435.068-9.596l1.474-.28h0Z" style="fill:#30373e; stroke-width:0px;"/><g id="uuid-361316b4-966f-42e7-a1b6-aef2114020a1"><path d="m199.789,235.249c.153-.059.303-.129.436-.203,0,0,2.332-1.193,2.328-1.19.27-.135.486-.343.635-.584.15-.242.238-.528.238-.822v-.104c.101-.036.194-.086.278-.146.282-.2.481-.515.576-.797.03-.059.045-.107.053-.13.003-.008.003-.009.027-.067,0,0,.621-1.891.595-1.827.029-.059.045-.106.052-.129.003-.008.003-.009.026-.065.102-.305.129-.624.129-.936v-4.07c0-.343-.063-.648-.116-.886l-.002-.01s-.035-.097-.037-.105c-.008-.023-.023-.071-.025-.063l-.605-1.842c-.015-.096-.051-.186-.099-.262-.122-.312-.311-.596-.574-.782-.085-.06-.178-.11-.279-.146-.009-.296-.099-.575-.251-.813-.164-.258-.401-.468-.699-.607,0,0-2.359-1.011-2.343-1.004-.526-.248-1.097-.333-1.639-.333h-.84" style="fill:none; stroke:#a6abb0; stroke-miterlimit:10; stroke-width:.5px;"/><path d="m199.698,235.016c.143-.055.283-.121.413-.192,0,0,2.332-1.193,2.33-1.191.225-.113.408-.288.534-.492.127-.206.201-.446.201-.691v-.3c.14-.018.27-.073.384-.154.228-.161.401-.426.497-.704.021-.043.032-.076.039-.097.006-.018.008-.023.026-.066,0,0,.622-1.892.608-1.859.021-.043.032-.076.039-.097.006-.018.008-.023.026-.065.09-.269.117-.558.117-.857v-4.07c0-.314-.057-.596-.13-.889-.005-.009-.006-.014-.012-.032-.007-.021-.018-.055-.026-.064,0,0-.621-1.89-.61-1.817,0-.094-.034-.183-.081-.251-.109-.29-.277-.539-.494-.693-.114-.081-.244-.136-.384-.154v-.145c0-.266-.077-.517-.213-.73-.139-.218-.339-.396-.587-.511,0,0-2.359-1.011-2.351-1.008-.483-.227-1.015-.309-1.532-.309h-.84" style="fill:none; stroke:#a6abb0; stroke-miterlimit:10; stroke-width:.5px;"/></g><path d="m199.608,234.783c.133-.052.263-.112.39-.182l2.332-1.193c.363-.181.596-.57.596-.959v-.544h.155c.311,0,.596-.285.752-.726.026-.052.026-.078.052-.13l.622-1.893c.026-.052.026-.078.052-.13.078-.233.104-.492.104-.778v-4.07c0-.285-.052-.544-.104-.778-.026-.052-.026-.078-.052-.13l-.622-1.893c0-.052-.026-.104-.052-.13-.155-.441-.441-.726-.752-.726h-.155v-.389c0-.441-.259-.83-.648-1.011l-2.359-1.011c-.44-.207-.933-.285-1.426-.285h-.84" style="fill:none; stroke:#a6abb0; stroke-miterlimit:10; stroke-width:.5px;"/><path d="m202.926,231.903l-1.406.021c-.337,0-.7-.596-.7-1.426v-8.549c0-.856.363-1.426.7-1.426h1.406" style="fill:none; stroke:#a6abb0; stroke-miterlimit:10; stroke-width:.5px;"/><g id="uuid-90fb2bf6-7dff-4199-8f9b-1cfc4968ab57"><path d="m54.096,262.115c4.588,12.866,13.226,27.522,29.28,38.358,3.383,2.301,7.303,3.679,11.329,4.058,7.778.728,17.917,1.352,30.106,1.352s22.329-.624,30.107-1.352c4.057-.379,7.948-1.785,11.326-4.056,11.131-7.513,21.121-19.302,27.417-33.392,3.295-7.374,5.534-15.336,6.446-23.371.313-2.76.477-5.558.477-8.386,0-21.435-8.472-40.849-22.175-54.904-7.028-7.208-15.432-13.008-24.778-16.949-8.878-3.743-18.602-5.808-28.795-5.808s-19.923,2.064-28.805,5.807c-9.345,3.938-17.751,9.735-24.78,16.939-13.71,14.052-22.189,33.466-22.189,54.914,0,1.859.134,4.683.578,8.179" style="fill:none; stroke:#a6abb0; stroke-miterlimit:10; stroke-width:.5px;"/><path d="m54.331,262.031c4.575,12.829,13.185,27.436,29.185,38.236,3.347,2.277,7.227,3.641,11.211,4.015,7.771.728,17.902,1.351,30.082,1.351s22.313-.624,30.084-1.351c4.014-.375,7.866-1.767,11.209-4.014,11.09-7.486,21.051-19.238,27.329-33.286,3.285-7.352,5.517-15.289,6.426-23.297.312-2.75.475-5.54.475-8.358,0-21.369-8.445-40.72-22.104-54.73-7.005-7.185-15.382-12.965-24.696-16.893-8.848-3.731-18.539-5.788-28.698-5.788s-19.856,2.057-28.707,5.787c-9.314,3.925-17.692,9.702-24.698,16.884-13.666,14.006-22.118,33.358-22.118,54.74,0,1.848.133,4.662.576,8.147" style="fill:none; stroke:#a6abb0; stroke-miterlimit:10; stroke-width:.5px;"/><path d="m54.567,261.947c4.562,12.793,13.144,27.349,29.09,38.113,3.311,2.252,7.151,3.603,11.094,3.973,7.764.727,17.887,1.35,30.059,1.35s22.297-.623,30.061-1.35c3.972-.371,7.784-1.748,11.093-3.972,11.049-7.458,20.98-19.173,27.24-33.181,3.275-7.329,5.5-15.242,6.406-23.223.311-2.741.473-5.521.473-8.33,0-21.302-8.418-40.591-22.033-54.555-6.982-7.161-15.332-12.923-24.614-16.837-8.818-3.718-18.476-5.768-28.601-5.768s-19.789,2.05-28.61,5.768c-9.282,3.912-17.633,9.67-24.617,16.828-13.621,13.961-22.047,33.25-22.047,54.565,0,1.837.132,4.64.574,8.115" style="fill:none; stroke:#a6abb0; stroke-miterlimit:10; stroke-width:.5px;"/><path d="m54.802,261.863c4.549,12.756,13.103,27.263,28.995,37.99,3.275,2.228,7.075,3.564,10.977,3.931,7.757.726,17.873,1.349,30.036,1.349s22.28-.623,30.038-1.349c3.93-.367,7.702-1.73,10.976-3.931,11.008-7.431,20.91-19.108,27.152-33.076,3.265-7.307,5.483-15.194,6.386-23.15.31-2.732.472-5.503.472-8.302,0-21.235-8.391-40.462-21.962-54.381-6.959-7.138-15.281-12.88-24.532-16.781-8.788-3.705-18.413-5.749-28.504-5.749s-19.722,2.043-28.513,5.748c-9.251,3.899-17.574,9.637-24.535,16.772-13.577,13.915-21.976,33.143-21.976,54.39,0,1.826.132,4.619.572,8.084" style="fill:none; stroke:#a6abb0; stroke-miterlimit:10; stroke-width:.5px;"/></g><path d="m55.037,261.779c4.536,12.72,13.063,27.177,28.901,37.867,3.24,2.204,6.998,3.526,10.859,3.889,7.75.726,17.858,1.348,30.012,1.348s22.264-.622,30.014-1.348c3.887-.363,7.62-1.711,10.859-3.889,10.968-7.403,20.839-19.043,27.064-32.971,3.256-7.285,5.466-15.147,6.366-23.076.309-2.723.47-5.484.47-8.274,0-42.336-33.459-76.66-74.747-76.66s-74.774,34.299-74.774,76.66c0,1.815.131,4.597.57,8.052" style="fill:none; stroke:#a6abb0; stroke-miterlimit:10; stroke-width:.5px;"/><g id="uuid-3fbe2445-2097-4e50-af7e-7ca2635e0168"><path d="m66.949,210.233c2.304-5.434,4.513-6.914,6.756-8.446,1.248-.852,2.59-1.763,3.918-3.324.428-.501.952-1.379,1.554-2.381,2.51-4.177,7.462-12.408,17.793-18.253,6.698-3.789,15.7-6.6,27.84-6.6s21.144,2.81,27.842,6.6c10.331,5.845,15.283,14.076,17.792,18.253.602,1.002,1.125,1.88,1.552,2.38,1.33,1.563,2.671,2.474,3.919,3.326,2.244,1.531,4.452,3.011,6.755,8.446,1.016,2.393,1.336,4.148,1.274,5.402-.036.737-.205,1.293-.434,1.713-.252.46-.598.796-1.006,1.038-.594.353-1.339.515-2.101.515-3.145,0-8.159-1.001-15.474-2.468-1.198-.24-2.455-.492-3.772-.754-1.493-.294-2.825-.561-4.037-.805-10.728-2.155-12.151-2.428-32.338-2.428s-21.608.273-32.333,2.428c-1.213.244-2.546.511-4.039.805-1.597.312-3.108.613-4.533.897-6.92,1.378-11.706,2.325-14.714,2.325-.746,0-1.482-.16-2.071-.51-.405-.24-.75-.574-1-1.033-.228-.418-.396-.973-.431-1.71-.061-1.254.262-3.012,1.286-5.416Z" style="fill:none; stroke:#a6abb0; stroke-miterlimit:10; stroke-width:.5px;"/><path d="m66.718,210.135c2.329-5.492,4.577-7.007,6.846-8.554,1.248-.852,2.564-1.747,3.869-3.28.411-.481.921-1.336,1.529-2.348,2.514-4.183,7.493-12.463,17.884-18.342,6.737-3.812,15.783-6.632,27.963-6.632s21.228,2.82,27.965,6.632c10.391,5.879,15.37,14.158,17.884,18.341.608,1.012,1.118,1.867,1.528,2.346,1.306,1.535,2.622,2.43,3.87,3.281,2.269,1.548,4.517,3.062,6.844,8.555,1.024,2.413,1.359,4.207,1.294,5.512-.038.77-.214,1.363-.464,1.82-.275.503-.654.87-1.098,1.133-.643.381-1.434.55-2.229.55-3.176,0-8.222-1.008-15.523-2.473-1.198-.24-2.454-.492-3.771-.754-1.494-.294-2.826-.562-4.038-.805-10.706-2.151-12.111-2.424-32.289-2.424s-21.58.273-32.284,2.423c-1.213.244-2.546.511-4.04.806-1.596.312-3.107.613-4.532.897-6.907,1.375-11.724,2.33-14.763,2.33-.779,0-1.561-.167-2.199-.545-.44-.261-.819-.627-1.092-1.129-.249-.456-.424-1.048-.462-1.817-.063-1.306.274-3.102,1.306-5.525Z" style="fill:none; stroke:#a6abb0; stroke-miterlimit:10; stroke-width:.5px;"/><path d="m66.488,210.038c2.353-5.55,4.642-7.099,6.935-8.663,1.248-.851,2.539-1.73,3.82-3.236.394-.461.891-1.292,1.505-2.314,2.517-4.19,7.525-12.518,17.975-18.431,6.777-3.834,15.866-6.664,28.086-6.664s21.311,2.83,28.089,6.665c10.45,5.912,15.458,14.241,17.975,18.43.614,1.022,1.111,1.853,1.504,2.313,1.282,1.506,2.573,2.385,3.82,3.237,2.293,1.565,4.581,3.113,6.933,8.664,1.032,2.433,1.381,4.266,1.314,5.622-.04.802-.224,1.433-.494,1.928-.298.545-.711.944-1.19,1.229-.691.41-1.529.585-2.356.585-3.208,0-8.285-1.016-15.572-2.478-1.198-.24-2.454-.492-3.77-.753-1.494-.294-2.827-.562-4.039-.805-10.685-2.146-12.072-2.419-32.239-2.419s-21.553.272-32.235,2.418c-1.213.244-2.546.512-4.041.806-1.596.312-3.106.613-4.531.896-6.893,1.372-11.741,2.335-14.811,2.335-.811,0-1.641-.173-2.326-.58-.476-.283-.887-.68-1.184-1.224-.269-.493-.453-1.123-.492-1.925-.066-1.357.285-3.193,1.325-5.635Z" style="fill:none; stroke:#a6abb0; stroke-miterlimit:10; stroke-width:.5px;"/><path d="m66.258,209.94c2.378-5.609,4.706-7.191,7.024-8.772,1.248-.851,2.513-1.714,3.771-3.192.377-.441.86-1.248,1.481-2.28,2.521-4.196,7.556-12.573,18.066-18.519,6.817-3.857,15.948-6.697,28.21-6.697s21.394,2.84,28.212,6.697c10.51,5.946,15.545,14.323,18.066,18.519.621,1.033,1.104,1.84,1.481,2.28,1.258,1.478,2.523,2.341,3.771,3.192,2.318,1.582,4.646,3.164,7.023,8.773,1.041,2.453,1.403,4.325,1.333,5.732-.041.834-.234,1.503-.525,2.035-.321.587-.767,1.018-1.282,1.324-.739.438-1.624.62-2.484.62-3.239,0-8.349-1.024-15.621-2.483-1.198-.24-2.454-.492-3.769-.753-1.495-.294-2.828-.562-4.04-.806-10.663-2.142-12.032-2.414-32.19-2.414s-21.526.272-32.186,2.413c-1.213.244-2.547.512-4.042.806-1.596.312-3.105.613-4.53.896-6.879,1.369-11.759,2.34-14.86,2.34-.844,0-1.721-.18-2.454-.615-.512-.304-.956-.733-1.276-1.319-.29-.531-.482-1.199-.522-2.033-.068-1.408.296-3.283,1.345-5.745Z" style="fill:none; stroke:#a6abb0; stroke-miterlimit:10; stroke-width:.5px;"/></g><path d="m66.028,209.842c3.682-8.685,7.284-7.855,10.835-12.029,2.747-3.215,11.974-27.584,47.947-27.584s45.202,24.369,47.949,27.584c3.551,4.174,7.153,3.344,10.833,12.029,3.344,7.881-.155,10.059-3.187,10.059-3.811,0-10.16-1.4-19.438-3.241-14.618-2.878-13.737-3.215-36.182-3.215s-21.562.337-36.18,3.215c-9.279,1.815-15.656,3.241-19.438,3.241-2.98,0-6.506-2.152-3.137-10.059Z" style="fill:none; stroke:#a6abb0; stroke-miterlimit:10; stroke-width:.5px;"/><g id="uuid-a65fa84c-10a7-4942-912c-9b861ac26f72"><path d="m98.994,273.49c-.677-4.268-1.332-5.18-3.067-7.684-.119-.171-.243-.35-.372-.538-.857-1.243-2.062-2.955-3.351-4.786-1.814-2.577-3.794-5.389-5.153-7.394,0,0-.968-1.295-2.528-2.175-.656-.37-1.385-.645-2.169-.722-3.119-.333-8.701-.616-13.215-.513-1.173,0-1.945.243-2.448.575-.393.26-.668.603-.851,1.031-.435,1.017-.362,2.555.184,4.376,3.49,10.985,11.243,22.969,19.399,29.745,3.642,3.025,7.271,4.935,10.559,5.342,1.413.174,3.273.312,5.636.38,0,0-2.625-17.647-2.623-17.638Z" style="fill:none; stroke:#a6abb0; stroke-miterlimit:10; stroke-width:.5px;"/><path d="m99.241,273.45c-.684-4.313-1.357-5.26-3.109-7.788-.119-.171-.243-.35-.372-.537-.858-1.244-2.064-2.957-3.352-4.788-1.814-2.578-3.793-5.388-5.158-7.399,0,0-.999-1.337-2.605-2.243-.678-.383-1.441-.672-2.265-.753-3.13-.334-8.722-.617-13.241-.514-1.206,0-2.03.249-2.586.616-.437.288-.742.672-.943,1.142-.47,1.099-.377,2.708.175,4.55,3.502,11.025,11.281,23.052,19.478,29.861,3.66,3.04,7.333,4.982,10.688,5.398,1.482.182,3.447.325,5.958.39,0,0-2.669-17.942-2.667-17.935Z" style="fill:none; stroke:#a6abb0; stroke-miterlimit:10; stroke-width:.5px;"/><path d="m99.488,273.411c-.691-4.359-1.383-5.341-3.15-7.891-.119-.171-.242-.35-.371-.537-.859-1.245-2.065-2.96-3.354-4.79-1.815-2.578-3.792-5.387-5.162-7.405,0,0-1.031-1.38-2.683-2.311-.7-.395-1.496-.698-2.361-.783-3.14-.335-8.744-.619-13.268-.516-1.238,0-2.115.256-2.723.657-.48.317-.817.74-1.035,1.252-.504,1.181-.391,2.861.167,4.724,3.515,11.065,11.318,23.134,19.556,29.978,3.677,3.055,7.395,5.03,10.817,5.454,1.55.191,3.621.338,6.279.399,0,0-2.712-18.236-2.712-18.232Z" style="fill:none; stroke:#a6abb0; stroke-miterlimit:10; stroke-width:.5px;"/><path d="m99.735,273.372c-.698-4.405-1.408-5.421-3.192-7.994-.119-.171-.242-.35-.371-.536-.859-1.247-2.067-2.962-3.355-4.792-1.815-2.579-3.791-5.385-5.166-7.411,0,0-1.063-1.422-2.76-2.379-.722-.407-1.552-.725-2.458-.814-3.151-.336-8.765-.621-13.294-.517-1.271,0-2.2.263-2.861.699-.524.346-.891.809-1.128,1.363-.539,1.263-.406,3.013.159,4.898,3.528,11.105,11.356,23.217,19.635,30.095,3.695,3.07,7.457,5.077,10.946,5.51,1.618.199,3.793.351,6.601.407,0,0-2.756-18.529-2.756-18.527Z" style="fill:none; stroke:#a6abb0; stroke-miterlimit:10; stroke-width:.5px;"/></g><path d="m102.781,292.155l-2.799-18.822c-.752-4.744-1.53-5.626-3.604-8.633-2.073-3.007-6.168-8.737-8.527-12.211,0,0-2.228-2.981-5.392-3.292-3.161-.337-8.786-.622-13.321-.518-4.683,0-5.211,3.474-4.068,7.285,5.121,16.119,19.261,34.349,30.789,35.777,1.685.207,3.966.363,6.922.415Z" style="fill:none; stroke:#a6abb0; stroke-miterlimit:10; stroke-width:.5px;"/><g id="uuid-f6357d1f-1e7e-49c5-9d5b-3f5192a142da"><path d="m135.896,274.419c-.102,1.773-.307,3.547-.436,4.415-.062.422-.273,1.039-.781,1.515-.38.356-.952.659-1.823.729-1.848.149-4.664.139-6.813.131-.435-.002-.842-.003-1.207-.003-.254,0-.528,0-.818,0-2.182.003-5.24.007-7.202-.129-.845-.068-1.402-.355-1.778-.696-.528-.48-.749-1.116-.826-1.548-.127-.868-.332-2.643-.436-4.414-.024-.432.033-.953.226-1.348.1-.206.229-.361.388-.462.134-.085.311-.147.556-.151.645-.012,1.793.003,3.312.024,1.78.024,4.054.054,6.579.054,2.525,0,4.8-.03,6.581-.054,1.518-.02,2.666-.035,3.301-.024.235.009.409.071.544.158.163.106.297.267.401.477.196.398.257.914.234,1.325Z" style="fill:none; stroke:#a6abb0; stroke-miterlimit:10; stroke-width:.5px;"/><path d="m136.146,274.434c-.102,1.781-.308,3.562-.438,4.437-.067.461-.297,1.136-.858,1.661-.424.397-1.05.722-1.974.796-1.861.15-4.689.14-6.834.132-.435-.002-.842-.003-1.206-.003-.253,0-.528,0-.818,0-2.179.003-5.247.007-7.222-.13-.896-.072-1.507-.38-1.926-.761-.583-.53-.821-1.225-.905-1.697-.128-.875-.334-2.656-.438-4.437-.025-.456.033-1.024.25-1.471.116-.237.272-.432.478-.563.176-.112.399-.185.686-.19.65-.012,1.804.003,3.32.024,1.78.024,4.053.054,6.576.054,2.524,0,4.797-.03,6.577-.054,1.516-.02,2.669-.036,3.314-.024.277.01.496.085.67.198.209.136.37.335.489.576.221.448.284,1.011.26,1.45Z" style="fill:none; stroke:#a6abb0; stroke-miterlimit:10; stroke-width:.5px;"/></g><path d="m136.395,274.448c-.103,1.789-.31,3.578-.44,4.459-.129.881-.802,2.489-3.059,2.67-2.254.182-5.908.13-8.06.13-2.152,0-5.806.026-8.06-.13-2.254-.181-2.902-1.789-3.059-2.67-.129-.881-.336-2.67-.44-4.459-.052-.959.233-2.463,1.659-2.489,1.426-.026,5.235.078,9.9.078,4.666,0,8.476-.104,9.9-.078,1.4.052,1.711,1.556,1.659,2.489Z" style="fill:none; stroke:#a6abb0; stroke-miterlimit:10; stroke-width:.5px;"/><g id="uuid-0ad7e180-6460-4656-80cc-b341d0900596"><path d="m183.594,255.675c.546-1.813.598-3.324.155-4.333-.188-.429-.47-.778-.87-1.046-.508-.34-1.275-.592-2.419-.618-4.489-.103-10.072.206-13.203.514-.789.077-1.527.356-2.186.73-1.55.879-2.498,2.162-2.475,2.129-1.39,2.049-3.38,4.875-5.2,7.46-1.282,1.82-2.479,3.521-3.334,4.762-.121.173-.238.34-.349.499-1.775,2.531-2.428,3.428-3.083,7.709,0,0-2.625,17.647-2.625,17.647,2.355-.068,4.201-.206,5.633-.38,3.323-.412,6.952-2.322,10.577-5.333,8.216-6.825,15.941-18.918,19.379-29.74Z" style="fill:none; stroke:#a6abb0; stroke-miterlimit:10; stroke-width:.5px;"/><path d="m183.833,255.747c.552-1.833.624-3.415.145-4.505-.206-.47-.518-.858-.96-1.153-.559-.374-1.376-.634-2.552-.66-4.501-.103-10.095.206-13.233.515-.832.081-1.603.375-2.285.761-1.596.905-2.576,2.231-2.558,2.206-1.389,2.047-3.377,4.871-5.197,7.457-1.281,1.82-2.479,3.521-3.335,4.762-.121.173-.237.339-.349.498-1.791,2.554-2.463,3.487-3.126,7.816l-2.669,17.942c2.504-.065,4.453-.208,5.955-.39,3.389-.42,7.063-2.362,10.706-5.389,8.257-6.86,16.007-18.995,19.459-29.86Z" style="fill:none; stroke:#a6abb0; stroke-miterlimit:10; stroke-width:.5px;"/><path d="m184.072,255.819c.558-1.853.649-3.506.135-4.678-.224-.511-.566-.937-1.05-1.261-.609-.408-1.477-.675-2.686-.702-4.513-.103-10.117.207-13.263.516-.875.085-1.68.393-2.384.793-1.642.931-2.654,2.299-2.642,2.283-1.387,2.045-3.374,4.867-5.195,7.453-1.281,1.82-2.48,3.522-3.335,4.763-.121.173-.237.339-.349.498-1.808,2.577-2.499,3.546-3.168,7.922l-2.712,18.236c2.653-.061,4.705-.209,6.277-.399,3.456-.428,7.174-2.403,10.835-5.445,8.299-6.894,16.073-19.072,19.539-29.98Z" style="fill:none; stroke:#a6abb0; stroke-miterlimit:10; stroke-width:.5px;"/><path d="m184.312,255.891c.564-1.873.674-3.597.124-4.85-.242-.552-.614-1.016-1.14-1.368-.659-.441-1.577-.716-2.819-.744-4.525-.103-10.139.207-13.293.517-.918.09-1.757.412-2.483.824-1.688.957-2.731,2.368-2.726,2.36-1.386,2.042-3.371,4.862-5.193,7.449-1.281,1.819-2.48,3.523-3.336,4.764-.12.173-.237.338-.348.498-1.824,2.601-2.534,3.605-3.211,8.029l-2.756,18.529c2.804-.057,4.958-.208,6.598-.407,3.523-.436,7.285-2.444,10.964-5.5,8.34-6.929,16.139-19.149,19.618-30.1Z" style="fill:none; stroke:#a6abb0; stroke-miterlimit:10; stroke-width:.5px;"/></g><path d="m184.551,255.963c1.14-3.785.519-7.181-4.068-7.285-4.537-.104-10.162.207-13.323.518-3.187.311-5.392,3.292-5.392,3.292-2.357,3.474-6.453,9.203-8.527,12.211-2.1,3.007-2.876,3.889-3.602,8.633l-2.799,18.822c2.954-.052,5.211-.208,6.92-.415,11.729-1.453,25.757-19.933,30.791-35.777Z" style="fill:none; stroke:#a6abb0; stroke-miterlimit:10; stroke-width:.5px;"/><path d="m124.423,228.844c.239-.239.598-.239.807,0l5.586,5.647c.181.179.42.269.658.269h2.359c.09,0,.178-.06.209-.149.03-.09.03-.179-.06-.269l-8.392-8.515c-.42-.418-1.106-.418-1.523,0l-8.395,8.515c-.06.06-.09.179-.06.269.03.089.121.149.211.149h2.359c.239,0,.477-.089.656-.269l5.586-5.647Z" style="fill:none; stroke:#a6abb0; stroke-linecap:round; stroke-linejoin:round; stroke-width:.5px;"/><path d="m125.229,241.393c-.118.12-.269.179-.417.179-.151,0-.299-.06-.42-.179l-5.586-5.647c-.178-.179-.417-.269-.656-.269h-2.359c-.09,0-.181.06-.211.149-.028.09-.028.179.06.269l8.395,8.516c.417.418,1.106.418,1.523,0l8.395-8.516c.058-.06.088-.179.058-.269s-.118-.149-.209-.149h-2.359c-.239,0-.477.09-.658.269l-5.556,5.647Z" style="fill:none; stroke:#a6abb0; stroke-linecap:round; stroke-linejoin:round; stroke-width:.5px;"/><path d="m124.4,232.989c0,.139-.055.277-.136.36l-1.425,1.468c-.166.166-.166.443,0,.582l1.425,1.468c.081.111.136.221.136.36v2.243c0,.083-.055.166-.136.194-.083.028-.166.027-.247-.055l-3.811-3.905c-.328-.332-.328-.886,0-1.219l3.811-3.905c.055-.055.164-.083.247-.055.081.027.136.111.136.194v2.271Z" style="fill:none; stroke:#a6abb0; stroke-linecap:round; stroke-linejoin:round; stroke-width:.5px;"/><path d="m129.443,234.511c.33.332.33.886,0,1.219l-3.892,3.96c-.055.055-.164.083-.247.055-.081-.028-.136-.111-.136-.194v-2.243c0-.139.055-.277.136-.36l1.508-1.523c.164-.166.164-.443,0-.582l-1.508-1.523c-.081-.111-.136-.221-.136-.36v-2.215c0-.083.055-.166.136-.194.083-.028.166-.028.247.055l3.892,3.905Z" style="fill:none; stroke:#a6abb0; stroke-linecap:round; stroke-linejoin:round; stroke-width:.5px;"/><path d="m65.267,243.762c.35.064.749.104,1.203.12,3.214.13,22.801.648,26.688.752.181,0,.364-.078.493-.207.131-.13.181-.311.181-.493" style="fill:none; stroke:#a6abb0; stroke-linecap:round; stroke-linejoin:round; stroke-width:.5px;"/><path d="m93.989,224.516c0-.311-.207-.726-.7-.674,0,0-18.759,1.633-22.543,2.022-3.783.389-5.313,1.27-5.908,3.604l-.618,2.423" style="fill:none; stroke:#a6abb0; stroke-linecap:round; stroke-linejoin:round; stroke-width:.5px;"/><path d="m71.859,230.7c.216-.048.455-.08.721-.092,1.581-.052,17.132-.519,20.605-.622.181,0,.336.052.467.181.129.13.207.311.207.467" style="fill:none; stroke:#a6abb0; stroke-linecap:round; stroke-linejoin:round; stroke-width:.5px;"/><path d="m93.754,238.023c0,.363-.284.648-.648.648h-21.538c-.512,0-.914-.052-1.226-.151" style="fill:none; stroke:#a6abb0; stroke-linecap:round; stroke-linejoin:round; stroke-width:.5px;"/><path d="m87.228,231.177c-1.426.028-13.505.342-14.627.39-.19.01-.361.038-.504.067.304,1.749-.143,3.821-1.207,5.902.114.057.247.095.39.095h16.128c.513,0,1.549-.076,1.654-1.711.048-.931.105-2.015.133-2.747.076-1.445-.551-2.015-1.967-1.996Zm-4.22,4.676c0,.409-.333.751-.741.751h-4.505c-.409,0-.741-.342-.741-.751v-2.5c0-.409.323-.741.732-.751l4.495-.105c.2,0,.39.076.542.219.143.143.219.333.219.532v2.604Z" style="fill:url(#uuid-21a123a6-0425-437b-bfba-c7059fc3b4cc); stroke:#30373e; stroke-linecap:round; stroke-linejoin:round;"/><path d="m178.583,232.539c-.07-.515-.502-.9-1.021-.914-3.373-.089-13.958-.423-15.223-.448-1.416-.019-2.043.551-1.967,1.996.029.732.086,1.815.133,2.747.105,1.635,1.14,1.711,1.654,1.711l16.354.084c.195,0,.381-.084.51-.232s.187-.343.161-.536l-.599-4.407Zm-12.024.71c0-.2.076-.39.219-.532.152-.143.342-.219.542-.219l4.495.105c.409.01.732.342.732.751v2.5c0,.409-.333.751-.741.751h-4.505c-.409,0-.741-.342-.741-.751v-2.604Z" style="fill:none; stroke:#a6abb0; stroke-linecap:round; stroke-linejoin:round; stroke-width:.5px;"/><path d="m124.81,288.94c-2.799,0-7.567,0-10.522-.285-2.956-.285-3.706-2.904-3.94-4.33-.338-2.022-.7-3.604-1.219-9.1-.259-2.722.286-3.344,2.228-3.396,1.945-.052,7.127.104,13.452.104s11.533-.156,13.452-.104c1.945.052,2.488.674,2.228,3.396-.517,5.496-.881,7.104-1.217,9.1-.233,1.426-.985,4.044-3.94,4.33-2.93.285-7.724.285-10.524.285Z" style="fill:none; stroke:#a6abb0; stroke-linecap:round; stroke-linejoin:round; stroke-width:.5px;"/><path d="m59.47,235.723c.44-2.567.981-5.187,1.635-7.629,1.114-4.07,3.706-5.081,7.334-5.444,3.602-.363,12.881-1.4,15.939-1.607,3.059-.207,4.225-.907,5.418-1.711,1.191-.804,5.209-3.915,5.209-3.915" style="fill:none; stroke:#a6abb0; stroke-miterlimit:10; stroke-width:.5px;"/><path d="m154.667,215.416s4.018,3.111,5.211,3.915c1.191.804,2.357,1.504,5.416,1.711,3.059.208,12.311,1.27,15.939,1.607,3.63.337,6.22,1.374,7.336,5.444.561,2.051,1.037,4.227,1.434,6.392.345,1.88.596,3.777.872,5.668.575,3.942.406,6.888-5.831,6.943-6.61.078-18.584.596-20.812.674-1.452.052-2.878,1.115-3.732,2.307-1.038,1.426-7.62,10.862-11.378,15.659-2.928,3.733-5.468,4.952-24.285,4.952-18.817,0-21.357-1.218-24.285-4.952-3.759-4.796-10.367-14.233-11.378-15.659-.855-1.193-2.28-2.256-3.732-2.307-2.228-.078-14.202-.596-20.812-.674-.623-.005-1.185-.04-1.692-.101" style="fill:none; stroke:#a6abb0; stroke-miterlimit:10; stroke-width:.5px;"/><path d="m146.286,214.019c3.266.441,3.923,1.165,6.23,3.083,1.243,1.037,1.969,1.685,2.409,2.593.39.804.571,1.841.65,3.604.155,3.733.31,15.996.257,18.925-.05,2.904-.207,3.863-1.84,6.559-1.657,2.722-5.882,8.555-8.32,11.614-.907,1.141-1.788,1.893-2.721,2.385-1.502.804-3.292,1.011-6.039,1.244-4.215.358-9.483.311-12.102.311-.233,0,.286,0,0,0s.233,0,0,0c-2.619,0-7.888.047-12.102-.311-2.747-.233-4.537-.441-6.039-1.244-.933-.492-1.814-1.244-2.721-2.385-2.437-3.059-6.662-8.892-8.32-11.614-1.633-2.696-1.79-3.655-1.84-6.559-.052-2.929.103-15.192.257-18.925.078-1.763.259-2.8.65-3.604.44-.907,1.166-1.556,2.409-2.593,2.307-1.918,2.964-2.642,6.23-3.083" style="fill:none; stroke:#a6abb0; stroke-linecap:round; stroke-linejoin:round; stroke-width:.5px;"/><path d="m141.242,213.653c1.501.077,2.747,1.115,5.313,2.956,2.566,1.841,2.823,4.433,2.85,6.222.052,4.589.052,9.203.052,13.792,0,2.23.026,3.733-3.161,9.515-3.37,6.066-5.444,7.155-9.383,7.311-4.016.156-8.06.337-12.102.337-4.042,0-8.086-.181-12.102-.337-3.94-.155-6.013-1.244-9.383-7.311-3.187-5.781-3.161-7.285-3.161-9.515,0-4.589,0-9.203.052-13.792.026-1.789.284-4.381,2.85-6.222s3.812-2.879,5.313-2.956" style="fill:none; stroke:#a6abb0; stroke-linecap:round; stroke-linejoin:round; stroke-width:.5px;"/><path d="m155.788,243.934c0,.181.05.363.181.493.129.13.312.207.493.207,3.887-.104,23.475-.622,26.688-.752,3.195-.114,3.678-1.413,3.535-3.757-.224-3.678-.926-7.342-1.962-10.878-.636-2.169-2.187-3.007-5.848-3.383-3.785-.389-22.543-2.022-22.543-2.022-.493-.052-.7.363-.7.674" style="fill:none; stroke:#a6abb0; stroke-linecap:round; stroke-linejoin:round; stroke-width:.5px;"/><path d="m155.761,230.634c0-.156.078-.337.207-.467.131-.13.286-.181.467-.181,3.473.104,19.024.57,20.605.622,1.651.073,2.362.899,2.522,1.709.481,2.435.404,2.307.691,4.145.267,1.71-.152,2.209-2.202,2.209-3.525,0-18.272,0-21.538,0-.364,0-.648-.285-.648-.648" style="fill:none; stroke:#a6abb0; stroke-linecap:round; stroke-linejoin:round; stroke-width:.5px;"/><path d="m45.388,247.344c-.898-2.58-.42-6.346-3.324-7.647,1.554.227,2.58,1.734,3.074,3.115.543,1.392.926,2.82,1.29,4.252.076.288-.096.582-.384.658-.285.075-.577-.096-.657-.378h0Z" style="fill:#30373e; stroke-width:0px;"/><path d="m37.577,248.869c1.312.392,2.616.807,3.917,1.227l-.283.038c3.318-2.927,7.296-5.075,10.325-8.303,1.557-1.52,2.954-3.286,4.749-4.804,1.777-1.477,3.735-2.369,5.415-3.91,1.624-1.336,3.449-3.353,5.464-4.219,2.635-1.27,5.519,1.477,5.556,4.118.089,1.281-.221,2.498-.682,3.599-1.406,3.255-4.109,5.79-7.157,7.485,0,0,.254-.227.254-.227l-6.053,8.616c-2.221,6.689-4.483,17.799-11.874,22.167,5.821-6.554,7.722-15.003,10.646-23.029,0,0,6.053-8.616,6.053-8.616,1.859-1.224,3.778-2.484,5.131-4.293,1.759-2.249,3.4-5.806,1.015-8-.778-.68-1.419-.799-2.322-.432-2.756,1.377-5.109,4.465-7.811,6.036-3.031,1.652-4.855,4.121-7.253,6.629-3.12,3.317-7.427,5.074-11.104,7.651-.079.063-.195.083-.283.038-1.238-.58-2.475-1.164-3.702-1.772h0Z" style="fill:#30373e; stroke-width:0px;"/><path d="m68.902,229.859c-.705-.141-1.433.077-1.946.58-1.056,1.035-1.847,2.348-2.205,2.998-.15.272-.151.602-.003.874.276.507.875,1.323,2.069,1.939.272.141.599.134.865-.017.555-.314,1.615-.994,2.972-2.24.327-.3.512-.726.509-1.169-.006-.731-.161-1.826-.963-2.4-.448-.321-.901-.486-1.299-.565Z" style="fill:none; stroke:#30373e; stroke-linecap:round; stroke-linejoin:round; stroke-width:.5px;"/><path d="m146.857,292.098c-.052.337-.207.622-.466.855-.647.622-1.994,1.943-3.238,3.058-2.151,1.943-4.093,2.695-18.343,2.695-14.248,0-16.192-.726-18.341-2.695-1.218-1.114-2.591-2.436-3.238-3.058-.233-.233-.39-.518-.466-.855" style="fill:none; stroke:#a6abb0; stroke-linecap:round; stroke-linejoin:round; stroke-width:.5px;"/><g style="clip-path:url(#uuid-e9b88b0e-3740-4fc6-976f-2aacba104d1b);"><rect x="229.46" y="114.661" width="31.746" height="16.464" style="fill:#f4ae3d; stroke:#30373e; stroke-linecap:round; stroke-linejoin:round;"/><path d="m229.46,128.867c4.145.01,10.044.013,15.733.013,1.019,0,15.047,0,16.013,0" style="fill:none; stroke:#30373e; stroke-miterlimit:10; stroke-width:.5px;"/><path d="m260.788,116.557c-4.397-.027-9.553-.039-15.594-.039-6.041,0-11.198.013-15.594.039" style="fill:none; stroke:#30373e; stroke-miterlimit:10; stroke-width:.5px;"/><polygon points="245.193 118.355 239.418 126.598 250.937 126.617 245.193 118.355" style="fill:none; stroke:#30373e; stroke-miterlimit:10; stroke-width:.5px;"/><polygon points="245.187 121.522 242.838 124.793 247.524 124.8 245.187 121.522" style="fill:none; stroke:#30373e; stroke-miterlimit:10; stroke-width:.5px;"/><path d="m306.615,275.223l-8.708-26.591c-1.052-3.079-1.027-7.939-1.748-10.334-.72-2.396-2.13-5.682-2.418-7.792-1.05-7.685,2.704-8.016,2.628-28.827-.013-3.645-.077-7.907-.297-12.943-.215-4.902-.565-6.223-2.413-8.141-1.847-1.919-3.34-4.013-5.078-4.539s-2.848-.586-4.317.415c0,0-.486-.551-.916-2.599-.645-3.068-.718-4.933-5.209-5.266-2.848-.211-4.089.26-5.11,1.236-.811-3.078-.488-5.022-5.016-5.358-4.409-.327-4.968.982-6.821,3.266-.476-4.038-1.233-15.506-1.496-18.65-.331-3.957-.98-7.482-1.308-14.277-.361-7.484-.982-8.563-3.735-8.571-4.319-.012-4.653,4.614-4.893,10.16-.393,9.065-.28,14.631-.28,14.631l.548,19.508-.339,8.956-2.348,1.382c-1.767,1.04-2.92,2.871-3.093,4.914l-1.793,16.47c-.212,2.494.258,4.999,1.361,7.247l6.765,13.789c3.917,6.387,6.541,9.705,7.979,16.623,2.293,11.028,1.312,3.638,7.752,48.022" style="fill:#f4f4f4; stroke:#30373e; stroke-linecap:round; stroke-linejoin:round; stroke-width:1.5px;"/><path d="m261.936,167.668c.018,1.85-.354,3.812.894,5.358-1.627-1.14-1.906-3.418-2.385-5.194-.102-.406.144-.817.549-.919.477-.128.962.263.942.755h0Z" style="fill:#30373e; stroke-width:0px;"/><path d="m273.763,169.695c.175,1.684-.278,3.614,1.2,4.79-1.81-.718-2.048-2.919-2.671-4.496-.35-1.096,1.371-1.442,1.471-.294h0Z" style="fill:#30373e; stroke-width:0px;"/><path d="m284.984,176.264c.045.579.048,1.131.241,1.503.206.395.786.679,1.306.923-.581-.025-1.199.027-1.838-.394-.567-.421-.831-1.053-1.151-1.619-.529-1.116,1.299-1.64,1.442-.414h0Z" style="fill:#30373e; stroke-width:0px;"/><path d="m252.317,132.115c.047.423.318.767.682.864.664.177,1.861.34,3.441-.087.327-.089.578-.393.634-.771.118-.794.26-2.383.14-4.126-.017-.245-.116-.473-.276-.637-.336-.342-1.028-.852-2.201-.887-1.129-.034-1.985.603-2.416,1.012-.197.187-.308.466-.302.758.042,2.012.224,3.211.297,3.874Z" style="fill:none; stroke:#30373e; stroke-linecap:round; stroke-linejoin:round; stroke-width:.5px;"/><path d="m250.437,179.521c.167,6.551.118,13.669-.091,20.243.005.494-.039,1.197-.425,1.592-.403.423-.894.642-1.392.698.396-.292.75-.637.878-1.026-.574-7.125-.879-14.352-.47-21.538.051-.94,1.487-.922,1.5.03h0Z" style="fill:#30373e; stroke-width:0px;"/><path d="m263.169,174.541c.753,1.104,1.182,2.491.955,3.838-.231,1.33-.823,2.465-.88,3.819-.342-1.29.181-2.648.387-3.896.227-1.28-.082-2.526-.461-3.762h0Z" style="fill:#30373e; stroke-width:0px;"/><path d="m273.936,176.815c.753,1.104,1.182,2.491.955,3.838-.231,1.33-.823,2.465-.88,3.819-.342-1.29.181-2.648.387-3.896.227-1.28-.082-2.526-.461-3.762h0Z" style="fill:#30373e; stroke-width:0px;"/><path d="m283.941,180.608c.753,1.104,1.182,2.492.955,3.838-.231,1.33-.823,2.465-.88,3.82-.342-1.29.181-2.648.387-3.896.227-1.28-.082-2.526-.461-3.762h0Z" style="fill:#30373e; stroke-width:0px;"/><path d="m293.298,184.098c.753,1.104,1.182,2.491.955,3.838-.231,1.33-.823,2.465-.88,3.819-.342-1.29.181-2.648.387-3.896.227-1.28-.082-2.526-.461-3.762h0Z" style="fill:#30373e; stroke-width:0px;"/></g></g><g id="uuid-255cbd02-f9f1-42c5-8dd4-4c8c1d1d969c"><polyline points="75.52 228.667 75.52 155.68 107.952 123.248 226.514 123.248" style="fill:none; stroke:#f4f4f4; stroke-linecap:round; stroke-linejoin:round; stroke-width:3px;"/><polyline points="75.52 228.667 75.52 155.68 107.952 123.248 226.514 123.248" style="fill:none; stroke:#f4f4f4; stroke-linecap:round; stroke-linejoin:round; stroke-width:3px;"/><polyline points="93.773 136.333 86.485 129.045 59.103 129.045" style="fill:none; stroke:#f4f4f4; stroke-linecap:round; stroke-linejoin:round; stroke-width:3px;"/><polyline points="93.773 136.333 86.485 129.045 59.103 129.045" style="fill:none; stroke:#f4f4f4; stroke-linecap:round; stroke-linejoin:round; stroke-width:3px;"/><line x1="65.235" y1="129.024" x2="65.235" y2="115.667" style="fill:none; stroke:#f4f4f4; stroke-linecap:round; stroke-linejoin:round; stroke-width:3px;"/><line x1="65.235" y1="129.024" x2="56.14" y2="119.929" style="fill:none; stroke:#f4f4f4; stroke-linecap:round; stroke-linejoin:round; stroke-width:3px;"/><line x1="65.235" y1="129.024" x2="74.331" y2="119.929" style="fill:none; stroke:#f4f4f4; stroke-linecap:round; stroke-linejoin:round; stroke-width:3px;"/><polyline points="67.698 115.667 65.235 115.667 62.773 115.667" style="fill:none; stroke:#f4f4f4; stroke-linecap:round; stroke-linejoin:round; stroke-width:3px;"/><circle cx="65.235" cy="129.045" r="11.005" style="fill:none; stroke:#f4f4f4; stroke-linecap:round; stroke-linejoin:round; stroke-width:3px;"/><path d="m58.676,129.99l-.883-1.429c.995-.546,1.808-1.148,2.521-1.933h1.947v10.058h-1.989v-7.774c-.588.49-.91.715-1.597,1.079Z" style="fill:none; stroke:#f4f4f4; stroke-linecap:round; stroke-linejoin:round; stroke-width:3px;"/><path d="m63.244,134.794l1.555-1.106c.616.953,1.191,1.331,2.073,1.331,1.079,0,1.737-.546,1.737-1.625v-.154c0-1.037-.631-1.457-1.681-1.457-.589,0-1.023.126-1.625.477l-1.387-.364.7-5.253h5.505v1.835h-3.88l-.225,1.695c.364-.112.742-.168,1.177-.168,2.144,0,3.39,1.345,3.39,3.25,0,2.199-1.639,3.586-3.81,3.586-1.485,0-2.647-.672-3.53-2.045Z" style="fill:none; stroke:#f4f4f4; stroke-linecap:round; stroke-linejoin:round; stroke-width:3px;"/><path d="m73.171,129.158c0-4.454-3.611-8.065-8.065-8.065v3.386" style="fill:none; stroke:#f4f4f4; stroke-linecap:round; stroke-linejoin:round; stroke-width:3px;"/><polyline points="75.52 228.667 75.52 155.68 107.952 123.248 226.514 123.248" style="fill:none; stroke:#30373e; stroke-linecap:round; stroke-miterlimit:10;"/><polyline points="93.773 136.333 86.485 129.045 59.103 129.045" style="fill:none; stroke:#30373e; stroke-linecap:round; stroke-miterlimit:10;"/><line x1="65.235" y1="129.024" x2="65.235" y2="115.667" style="fill:none; stroke:#30373e; stroke-miterlimit:10; stroke-width:3px;"/><line x1="65.235" y1="129.024" x2="56.14" y2="119.929" style="fill:none; stroke:#30373e; stroke-miterlimit:10; stroke-width:3px;"/><line x1="65.235" y1="129.024" x2="74.331" y2="119.929" style="fill:none; stroke:#30373e; stroke-miterlimit:10; stroke-width:3px;"/><polyline points="67.698 115.667 65.235 115.667 62.773 115.667" style="fill:none; stroke:#30373e; stroke-miterlimit:10; stroke-width:3px;"/><circle cx="65.235" cy="129.045" r="11.005" style="fill:#30373e; stroke-width:0px;"/><path d="m58.676,129.99l-.883-1.429c.995-.546,1.808-1.148,2.521-1.933h1.947v10.058h-1.989v-7.774c-.588.49-.91.715-1.597,1.079Z" style="fill:#f4f4f4; stroke-width:0px;"/><path d="m63.244,134.794l1.555-1.106c.616.953,1.191,1.331,2.073,1.331,1.079,0,1.737-.546,1.737-1.625v-.154c0-1.037-.631-1.457-1.681-1.457-.589,0-1.023.126-1.625.477l-1.387-.364.7-5.253h5.505v1.835h-3.88l-.225,1.695c.364-.112.742-.168,1.177-.168,2.144,0,3.39,1.345,3.39,3.25,0,2.199-1.639,3.586-3.81,3.586-1.485,0-2.647-.672-3.53-2.045Z" style="fill:#f4f4f4; stroke-width:0px;"/><path d="m73.171,129.158c0-4.454-3.611-8.065-8.065-8.065v3.386" style="fill:none; stroke:#f4f4f4; stroke-miterlimit:10; stroke-width:2px;"/></g></svg>