<?xml version="1.0" encoding="UTF-8"?><svg xmlns="http://www.w3.org/2000/svg" width="325" height="273.567" xmlns:xlink="http://www.w3.org/1999/xlink" viewBox="0 0 325 273.567"><defs><linearGradient id="uuid-eb9bfdaf-9438-4084-82bb-bacb1412baca" x1="96.643" y1="169.754" x2="98.704" y2="169.754" gradientUnits="userSpaceOnUse"><stop offset="0" stop-color="#f4ae3d"/><stop offset="1" stop-color="#f4ae3d" stop-opacity="0"/></linearGradient><linearGradient id="uuid-a6de6347-a626-406f-a2ab-ef7e9fcab8d5" x1="17.785" y1="169.754" x2="19.846" y2="169.754" gradientTransform="translate(246.432) rotate(-180) scale(1 -1)" xlink:href="#uuid-eb9bfdaf-9438-4084-82bb-bacb1412baca"/></defs><g id="uuid-5a6d29e6-76f5-462a-b659-a9216cf849a3"><path d="m321.237,102.874l-21.138-.086c-26.503,0-4.658,0-44.128,0-4.409,0-9.952-1.155-14.978-2.525" style="fill:none; stroke:#a6abb0; stroke-linecap:round; stroke-linejoin:round;"/><path d="m319.575,112.472h-54.523c-1.759,0-3.445.7-4.687,1.947s-1.937,2.936-1.931,4.696l.029,9.525" style="fill:none; stroke:#a6abb0; stroke-linecap:round; stroke-linejoin:round; stroke-width:.5px;"/><path d="m64.876,135.244c-.28-.409-.47-.886-.539-1.402l-.575-4.141c-.036-.324.036-.648.251-.9.218-.252.542-.396.866-.396h2.643" style="fill:none; stroke:#a6abb0; stroke-linecap:round; stroke-linejoin:round; stroke-width:.5px;"/><g id="uuid-52fc3e54-f923-4bda-b8a4-3d7b5b00c539"><path d="m119.645,73.613c-12.339.554-34.262,1.927-44.189,2.568-1.524.098-3.031-.165-4.406-.744s-2.611-1.468-3.604-2.624l-3.453-4.022c-1.551-1.806-2.589-3.953-3.054-6.289-3.442-17.32-6.425-35.985-9.089-58.342" style="fill:none; stroke:#a6abb0; stroke-linecap:round; stroke-linejoin:round; stroke-width:.5px;"/><path d="m119.656,73.862c-12.337.554-34.257,1.927-44.184,2.568-1.564.101-3.109-.169-4.519-.763s-2.678-1.506-3.697-2.692l-3.453-4.022c-1.579-1.839-2.637-4.025-3.109-6.403-3.443-17.327-6.428-35.998-9.092-58.361" style="fill:none; stroke:#a6abb0; stroke-linecap:round; stroke-linejoin:round; stroke-width:.5px;"/></g><path d="m119.667,74.112c-12.334.554-34.251,1.927-44.179,2.568-3.203.207-6.331-1.106-8.421-3.541l-3.453-4.022c-1.607-1.872-2.684-4.097-3.165-6.517-3.445-17.334-6.43-36.011-9.095-58.38" style="fill:none; stroke:#a6abb0; stroke-linecap:round; stroke-linejoin:round; stroke-width:.5px;"/><g id="uuid-6fd5a5ef-be93-4fb0-a275-68808f0448d6"><path d="m320.573,69.931c-29.007.034-72.861.232-118.843,1.148" style="fill:none; stroke:#a6abb0; stroke-linecap:round; stroke-linejoin:round; stroke-width:.5px;"/><path d="m320.574,70.181c-29.007.034-72.858.232-118.838,1.148" style="fill:none; stroke:#a6abb0; stroke-linecap:round; stroke-linejoin:round; stroke-width:.5px;"/></g><path d="m320.574,70.431c-29.006.034-72.856.232-118.833,1.148" style="fill:none; stroke:#a6abb0; stroke-linecap:round; stroke-linejoin:round; stroke-width:.5px;"/><path d="m24.31,90.741c.396-.396.936-.648,1.476-.684,2.736-.144,11.303-.54,17.206-.864,7.092-.396,7.775-1.296,11.591-4.537,3.779-3.241,4.787-3.817,10.368-4.249,16.319-1.217,31.002-2.389,49.018-3.411" style="fill:none; stroke:#a6abb0; stroke-linecap:round; stroke-linejoin:round; stroke-width:.5px;"/><path d="m228.844,118.363v22.68c0,2.261-.968,4.287-2.503,5.689" style="fill:none; stroke:#a6abb0; stroke-miterlimit:10; stroke-width:.5px;"/><path d="m119.928,92.542h85.412" style="fill:none; stroke:#a6abb0; stroke-linecap:round; stroke-linejoin:round;"/><path d="m97.256,146.732c-1.516-1.406-2.464-3.423-2.464-5.653v-20.77" style="fill:none; stroke:#a6abb0; stroke-miterlimit:10; stroke-width:.5px;"/><path d="m220.726,82.721c6.875.895,13.392,2.736,20.502,5.716,3.634,1.512,7.161,3.241,10.619,5.113" style="fill:none; stroke:#a6abb0; stroke-linecap:round; stroke-linejoin:round; stroke-width:.5px;"/><path d="m144.865,82.656h35.992" style="fill:none; stroke:#a6abb0; stroke-linecap:round; stroke-linejoin:round; stroke-width:.5px;"/><path d="m74.49,93.586c.073-.036,7.631-3.781,10.186-5.041,9.983-4.858,14.479-6.287,20.943-6.462" style="fill:none; stroke:#a6abb0; stroke-linecap:round; stroke-linejoin:round; stroke-width:.5px;"/><path d="m197.897,87.824h-70.43" style="fill:none; stroke:#a6abb0; stroke-linecap:round; stroke-linejoin:round; stroke-width:.5px;"/><path d="m228.807,128.368h11.401" style="fill:none; stroke:#a6abb0; stroke-linecap:round; stroke-linejoin:round; stroke-width:.5px;"/><path d="m228.807,136.686h15.94" style="fill:none; stroke:#a6abb0; stroke-linecap:round; stroke-linejoin:round; stroke-width:.5px;"/><path d="m85.127,128.404h9.665" style="fill:none; stroke:#a6abb0; stroke-linecap:round; stroke-linejoin:round; stroke-width:.5px;"/><path d="m94.756,136.686h-14.142" style="fill:none; stroke:#a6abb0; stroke-linecap:round; stroke-linejoin:round; stroke-width:.5px;"/><path d="m1.746,51.705l12.52,29.458c2.556,6.409,4.212,11.99,5.184,15.411" style="fill:none; stroke:#a6abb0; stroke-linecap:round; stroke-linejoin:round; stroke-width:.5px;"/><path d="m79.904,146.732h21.405c.713,0,1.379.061,2.004.179" style="fill:none; stroke:#a6abb0; stroke-miterlimit:10; stroke-width:.5px;"/><path d="m245.431,146.732h-21.087c-.796,0-1.535.076-2.223.223" style="fill:none; stroke:#a6abb0; stroke-miterlimit:10; stroke-width:.5px;"/><path d="m321.57,99.526h-61.623c-5.329,0-10.907-1.62-20.878-5.797-2.789-1.168-5.475-2.145-8.123-2.946" style="fill:none; stroke:#a6abb0; stroke-linecap:round; stroke-linejoin:round; stroke-width:.5px;"/><path d="m53.603,21.757c-.153,4.425-.515,5.401-4.311,6.475s-5.522,1.943-9.377,2.7c-2.83.556-5.174,1.128-4.37,4.816.804,3.688,2.294,8.901,2.759,11.589s1.115,4.029,4.976,5.872c3.861,1.843,5.699,1.716,10.013.144,4.314-1.572,4.295-5.331,3.955-8.061" style="fill:none; stroke:#a6abb0; stroke-linecap:round; stroke-linejoin:round; stroke-width:.5px;"/><path d="m82.284,205.166l2.88.049c9.514.161,20.465.35,32.088.553l1.079.019" style="fill:none; stroke:#a6abb0; stroke-linecap:round; stroke-linejoin:round;"/><g id="uuid-881b5a5c-dba5-432e-a0ba-cdcaac39a5ba"><path d="m61.582,146.232h-1.166c-.734,0-1.496.115-2.177.437,0,0-3.276,1.404-3.29,1.411-.361.168-.661.434-.869.762-.203.319-.319.696-.319,1.095v.074c-.171.041-.329.117-.469.216-.33.233-.576.601-.735,1.016-.06.091-.105.201-.121.321,0,0-.846,2.573-.819,2.508-.034.069-.052.124-.063.154-.008.024-.008.022-.009.025l-.028.055-.013.06c-.073.329-.156.734-.156,1.189v5.653c0,.422.038.843.197,1.304.001.002.001,0,.009.025.01.03.028.086.035.088,0,0,.864,2.629.892,2.696.001.003.001.001.009.025.01.03.028.086.039.098.157.446.413.845.763,1.092.14.099.298.175.469.216v.29c0,.37.111.732.301,1.04.189.306.463.57.799.738,0,0,3.239,1.656,3.225,1.649.196.108.397.201.601.281" style="fill:none; stroke:#a6abb0; stroke-miterlimit:10; stroke-width:.5px;"/><path d="m61.582,146.482h-1.166c-.709,0-1.432.112-2.079.416,0,0-3.276,1.404-3.283,1.408-.317.148-.581.382-.764.67-.178.28-.28.61-.28.961v.291c-.209.007-.404.083-.574.203-.284.201-.509.533-.656.928-.059.08-.102.19-.089.228,0,0-.864,2.628-.85,2.595-.026.053-.04.094-.049.122-.008.025-.013.038-.043.115-.073.327-.15.709-.15,1.134v5.653c0,.409.037.799.171,1.192.01.019.014.032.022.057.01.029.023.07.036.089,0,0,.864,2.629.878,2.662.01.019.014.032.023.057.01.029.023.07.037.094.146.414.376.762.671.971.17.121.365.196.574.203v.507c0,.321.096.637.264.908.167.27.407.5.7.646,0,0,3.239,1.656,3.232,1.653.186.102.377.191.571.267" style="fill:none; stroke:#a6abb0; stroke-miterlimit:10; stroke-width:.5px;"/></g><path d="m61.582,146.732h-1.166c-.684,0-1.369.108-1.98.396l-3.276,1.404c-.54.252-.9.792-.9,1.404v.54h-.216c-.432,0-.828.396-1.044,1.008-.036.036-.072.108-.072.18l-.864,2.629c-.036.072-.036.108-.072.18-.072.324-.144.684-.144,1.08v5.653c0,.396.036.756.144,1.08.036.072.036.108.072.18l.864,2.629c.036.072.036.108.072.18.216.612.612,1.008,1.044,1.008h.216v.756c0,.54.324,1.08.828,1.332l3.239,1.656c.177.097.358.181.542.253" style="fill:none; stroke:#a6abb0; stroke-miterlimit:10; stroke-width:.5px;"/><path d="m54.259,150.476h1.953c.468,0,.972.792.972,1.981v11.873c0,1.152-.504,1.981-.972,1.981l-1.953-.029" style="fill:none; stroke:#a6abb0; stroke-miterlimit:10; stroke-width:.5px;"/><path d="m37.581,176.461c-9.359-4.949-14.278-14.226-17.181-29.862" style="fill:none; stroke:#a6abb0; stroke-linecap:round; stroke-linejoin:round; stroke-width:.5px;"/><path d="m52.371,151.934c-1.747-2.32-2.696-4.577-3.08-6.066-1.08-4.321-2.88-11.702-4.356-27.257-1.548-16.419,7.883-13.863,22.391-14.547,6.412-.312,9.795-.705,15.986-2.599" style="fill:none; stroke:#a6abb0; stroke-linecap:round; stroke-linejoin:round;"/><path d="m95.234,90.098c-2.213.865-4.805,2.042-8.075,3.631-10.223,4.969-11.588,6.337-23.937,6.589l-36.114.594c-1.135.019-2.212.506-2.975,1.347s-1.144,1.96-1.053,3.091l.094,1.169c.244,3.033.461,6.014.671,8.897,1.133,15.578,2.112,29.032,6.473,39.233,2.446,5.722,5.783,10.044,10.203,13.213,1.49,1.069,3.093,1.999,4.818,2.795" style="fill:none; stroke:#a6abb0; stroke-linecap:round; stroke-linejoin:round; stroke-width:.5px;"/><path d="m48.572,106.117l-19.027.095c-.701.003-1.369.298-1.844.814s-.713,1.206-.66,1.905c2.589,33.808,2.448,58.543,31.821,61.402" style="fill:none; stroke:#a6abb0; stroke-linecap:round; stroke-linejoin:round; stroke-width:.5px;"/><path d="m52.709,164.431c-14.933-8.876-15.361-30.073-17.457-56.874-.036-.36.108-.684.324-.972.216-.288.576-.396.936-.396h3.888" style="fill:none; stroke:#a6abb0; stroke-linecap:round; stroke-linejoin:round; stroke-width:.5px;"/><path d="m27.11,201.144c-10.177-4.128-10.55-10.784-10.639-13.991-.2-7.239-.1-16.242.401-27.194.501-10.952,3.181-13.362,3.181-13.362l-.012.002c-1.666-8.97-2.621-20.032-3.29-33.57-.576-11.882.432-14.871,7.559-22.288.17-.177.34-.355.509-.533" style="fill:none; stroke:#a6abb0; stroke-linecap:round; stroke-linejoin:round;"/><line x1="323.344" y1="224.681" x2="308.069" y2="224.681" style="fill:none; stroke:#a6abb0; stroke-linecap:round; stroke-linejoin:round; stroke-width:.5px;"/><line x1="323.344" y1="231.321" x2="314.3" y2="231.321" style="fill:none; stroke:#a6abb0; stroke-linecap:round; stroke-linejoin:round;"/><line x1="299.888" y1="208.785" x2="323.122" y2="208.785" style="fill:none; stroke:#a6abb0; stroke-linecap:round; stroke-linejoin:round;"/><line x1="298.619" y1="202.586" x2="323.455" y2="202.586" style="fill:none; stroke:#a6abb0; stroke-linecap:round; stroke-linejoin:round; stroke-width:.5px;"/><line x1="301.102" y1="214.689" x2="323.122" y2="214.689" style="fill:none; stroke:#a6abb0; stroke-linecap:round; stroke-linejoin:round; stroke-width:.5px;"/><line x1="302.106" y1="218.849" x2="323.122" y2="218.849" style="fill:none; stroke:#a6abb0; stroke-linecap:round; stroke-linejoin:round; stroke-width:.5px;"/><path d="m205.781,207.348l5.277.097c13.863.254,24.885.461,30.828.579" style="fill:none; stroke:#a6abb0; stroke-linecap:round; stroke-linejoin:round;"/></g><g id="uuid-421727b9-8e63-40bf-b166-66bbcd989b4e"><path d="m260.676,209.069c-.234,4.471-.045,8.979.873,13.319.456,2.166,1.094,4.294,2.028,6.271.462.996.983,1.932,1.605,2.862.585.945,1.229,1.836,1.888,2.717,1.344,1.741,2.945,3.205,4.806,4.349,1.838,1.162,4.016,2.055,5.897,3.515,1.895,1.425,3.419,3.263,4.696,5.159,1.28,1.893,2.447,3.849,3.548,5.848-1.492-1.727-2.938-3.484-4.375-5.229-1.45-1.724-2.95-3.336-4.744-4.58-1.752-1.294-3.836-2.115-5.865-3.327-2.034-1.193-3.865-2.808-5.328-4.638-.716-.926-1.435-1.853-2.033-2.846-.638-.958-1.224-2.012-1.713-3.076-1.001-2.134-1.667-4.388-2.141-6.662-.93-4.559-1.036-9.214-.637-13.792l1.496.111Z" style="fill:#30373e; stroke-width:0px;"/><path d="m245.61,200.057c-6.093.37-7.279-5.08-3.596-6.295,1.078-.355,2.487-.822,3.846-1.273" style="fill:none; stroke:#30373e; stroke-miterlimit:10; stroke-width:1.5px;"/><path d="m245.673,192.13c-3.737,1.984-8.949,3.885-11.687.766-.995-1.133-1.256-2.095-1.034-2.967" style="fill:none; stroke:#30373e; stroke-miterlimit:10; stroke-width:1.5px;"/><path d="m79.825,200.057c6.093.37,7.279-5.08,3.596-6.295-1.078-.355-2.487-.822-3.846-1.273" style="fill:none; stroke:#30373e; stroke-miterlimit:10; stroke-width:1.5px;"/><path d="m79.762,192.13c3.737,1.984,8.949,3.885,11.687.766.995-1.133,1.256-2.095,1.034-2.967" style="fill:none; stroke:#30373e; stroke-miterlimit:10; stroke-width:1.5px;"/><line x1="222.183" y1="167.114" x2="222.183" y2="172.806" style="fill:none; stroke:#a6abb0; stroke-linecap:round; stroke-linejoin:round; stroke-width:.5px;"/><line x1="227.805" y1="167.258" x2="227.805" y2="172.806" style="fill:none; stroke:#a6abb0; stroke-linecap:round; stroke-linejoin:round; stroke-width:.5px;"/><line x1="103.252" y1="167.114" x2="103.252" y2="172.806" style="fill:none; stroke:#a6abb0; stroke-linecap:round; stroke-linejoin:round; stroke-width:.5px;"/><line x1="97.63" y1="167.258" x2="97.63" y2="172.806" style="fill:none; stroke:#a6abb0; stroke-linecap:round; stroke-linejoin:round; stroke-width:.5px;"/><path d="m11.731,230.625c3.35-4.565,7.325-8.514,11.231-12.532l-.208.389,3.302-16.628c1.127-5.559,2.123-11.052,3.431-16.65.378-1.396.788-2.804,1.47-4.176.664-1.375,1.756-2.649,3.011-3.519,1.25-.87,2.535-1.508,3.786-2.165,1.276-.65,2.431-1.312,3.785-1.97,2.658-1.263,5.572-1.984,8.505-2.107,2.909-.048,5.674.03,8.519.054v1.5l-4.239.053c-1.396.028-2.865-.006-4.196.062-2.713.152-5.383.855-7.814,2.052l-3.719,1.971c-1.249.656-2.498,1.29-3.567,2.04-1.062.754-1.858,1.689-2.432,2.856-.578,1.161-.969,2.48-1.325,3.809-.663,2.681-1.165,5.482-1.752,8.244l-1.745,8.297-3.49,16.593-.048.229-.16.161c-3.953,3.971-7.836,8.012-12.344,11.436Z" style="fill:#30373e; stroke-width:0px;"/><path d="m66.344,208.274c.912,4.617.947,9.358.231,13.998-.372,2.318-.937,4.617-1.779,6.836-.442,1.096-.926,2.207-1.514,3.225l-.872,1.533-.984,1.478c-1.358,1.937-3.044,3.735-5.034,5.071-1.972,1.37-4.036,2.321-5.749,3.707-3.484,2.701-5.768,6.831-8.656,10.421.984-2.092,2.077-4.119,3.25-6.111,1.172-1.999,2.629-3.928,4.468-5.469,1.839-1.551,3.977-2.58,5.747-3.876,1.809-1.267,3.284-2.903,4.53-4.745l.9-1.408.828-1.464c.564-.971.999-1.973,1.42-3.004.793-2.076,1.338-4.26,1.698-6.475.722-4.431.761-9.009.041-13.437l1.474-.28Z" style="fill:#30373e; stroke-width:0px;"/><g id="uuid-1f4a947d-6851-4574-8a10-0f54fe0bcc53"><path d="m266.748,170.747c.204-.079.405-.173.588-.274,0,0,3.239-1.656,3.234-1.654.34-.17.614-.434.803-.74.19-.308.301-.67.301-1.04v-.29c.171-.041.329-.117.469-.216.35-.247.605-.646.738-1.035.035-.069.053-.125.063-.155.008-.024.008-.022.037-.092,0,0,.863-2.627.837-2.562.034-.069.052-.124.063-.154.008-.024.008-.022.036-.09.132-.396.17-.816.17-1.238v-5.653c0-.454-.083-.86-.156-1.189l-.013-.06-.028-.055s-.001,0-.009-.025c-.01-.03-.028-.086-.035-.088l-.846-2.574c-.017-.119-.062-.23-.121-.321-.159-.415-.405-.783-.735-1.016-.14-.099-.298-.175-.469-.216v-.074c0-.399-.116-.776-.319-1.095-.209-.327-.509-.594-.884-.768,0,0-3.276-1.404-3.26-1.397-.697-.328-1.46-.444-2.193-.444h-1.166" style="fill:none; stroke:#a6abb0; stroke-miterlimit:10; stroke-width:.5px;"/><path d="m266.658,170.514c.194-.076.385-.164.565-.263,0,0,3.239-1.656,3.236-1.655.296-.148.536-.378.702-.647.168-.271.264-.588.264-.908v-.507c.209-.007.404-.083.574-.203.295-.209.525-.557.659-.942.026-.053.04-.094.05-.122.008-.025.013-.038.036-.091,0,0,.864-2.628.85-2.595.026-.053.04-.094.049-.123.008-.025.013-.038.036-.09.12-.36.157-.75.157-1.159v-5.653c0-.425-.077-.808-.171-1.192-.01-.019-.014-.032-.022-.057-.01-.029-.023-.07-.036-.089,0,0-.863-2.627-.851-2.552,0-.115-.043-.224-.102-.304-.147-.396-.371-.727-.656-.929-.17-.121-.365-.196-.574-.203v-.291c0-.351-.102-.681-.28-.961-.183-.288-.447-.522-.771-.673,0,0-3.276-1.404-3.268-1.401-.654-.308-1.378-.42-2.087-.42h-1.166" style="fill:none; stroke:#a6abb0; stroke-miterlimit:10; stroke-width:.5px;"/></g><path d="m266.567,170.281c.184-.072.365-.156.542-.253l3.239-1.656c.504-.252.828-.792.828-1.332v-.756h.216c.432,0,.828-.396,1.044-1.008.036-.072.036-.108.072-.18l.864-2.629c.036-.072.036-.108.072-.18.108-.324.144-.684.144-1.08v-5.653c0-.396-.072-.756-.144-1.08-.036-.072-.036-.108-.072-.18l-.864-2.629c0-.072-.036-.144-.072-.18-.216-.612-.612-1.008-1.044-1.008h-.216v-.54c0-.612-.36-1.152-.9-1.404l-3.276-1.404c-.612-.288-1.296-.396-1.98-.396h-1.166" style="fill:none; stroke:#a6abb0; stroke-miterlimit:10; stroke-width:.5px;"/><path d="m271.175,166.282l-1.953.029c-.468,0-.972-.828-.972-1.981v-11.873c0-1.188.504-1.981.972-1.981h1.953" style="fill:none; stroke:#a6abb0; stroke-miterlimit:10; stroke-width:.5px;"/><g id="uuid-36fb9d39-b4bb-4306-8475-0fd753d3bbc1"><path d="m266.874,182.641c.433-3.818.659-7.691.659-11.604,0-29.667-11.725-56.534-30.688-75.984-9.725-9.975-21.355-18.001-34.286-23.453-12.283-5.179-25.738-8.036-39.842-8.036s-27.566,2.855-39.855,8.035c-12.93,5.449-24.562,13.47-34.29,23.44-18.973,19.446-30.707,46.313-30.707,75.998,0,2.565.185,6.471.8,11.31" style="fill:none; stroke:#a6abb0; stroke-miterlimit:10; stroke-width:.5px;"/><path d="m266.625,182.613c.432-3.809.658-7.673.658-11.576,0-29.6-11.698-56.405-30.617-75.81-9.702-9.952-21.305-17.958-34.204-23.397-12.253-5.167-25.675-8.016-39.745-8.016s-27.499,2.849-39.758,8.015c-12.899,5.436-24.503,13.437-34.208,23.384-18.928,19.4-30.636,46.205-30.636,75.824,0,2.554.184,6.449.798,11.279" style="fill:none; stroke:#a6abb0; stroke-miterlimit:10; stroke-width:.5px;"/><path d="m266.377,182.584c.431-3.8.656-7.654.656-11.547,0-29.534-11.671-56.276-30.546-75.635-9.68-9.928-21.255-17.915-34.122-23.341-12.223-5.154-25.612-7.996-39.648-7.996s-27.432,2.842-39.661,7.995c-12.867,5.423-24.444,13.405-34.126,23.329-18.884,19.355-30.565,46.097-30.565,75.649,0,2.543.183,6.428.796,11.247" style="fill:none; stroke:#a6abb0; stroke-miterlimit:10; stroke-width:.5px;"/><path d="m266.129,182.556c.43-3.791.655-7.635.655-11.519,0-29.467-11.644-56.147-30.475-75.461-9.657-9.905-21.204-17.873-34.041-23.285-12.193-5.141-25.549-7.977-39.551-7.977s-27.365,2.835-39.564,7.976c-12.836,5.41-24.385,13.372-34.044,23.273-18.84,19.309-30.494,45.99-30.494,75.474,0,2.532.183,6.406.794,11.215" style="fill:none; stroke:#a6abb0; stroke-miterlimit:10; stroke-width:.5px;"/></g><path d="m265.88,182.528c.429-3.782.653-7.617.653-11.491,0-58.8-46.471-106.473-103.816-106.473s-103.852,47.637-103.852,106.473c0,2.521.182,6.385.792,11.184" style="fill:none; stroke:#a6abb0; stroke-miterlimit:10; stroke-width:.5px;"/><g id="uuid-6b64882d-4477-46ca-b3c3-4b48dec98a18"><path d="m64.833,208.112c6.353,17.812,18.306,38.091,40.519,53.085,4.643,3.158,10.025,5.05,15.552,5.57,10.792,1.011,24.862,1.877,41.777,1.877s30.988-.866,41.78-1.877c5.568-.52,10.912-2.451,15.549-5.568,15.396-10.392,29.225-26.708,37.942-46.214l2.676-5.988" style="fill:none; stroke:#a6abb0; stroke-miterlimit:10; stroke-width:.5px;"/><path d="m65.069,208.029c6.34,17.776,18.265,38.004,40.424,52.962,4.607,3.134,9.949,5.012,15.435,5.528,10.785,1.01,24.847,1.875,41.754,1.875s30.971-.865,41.756-1.875c5.526-.516,10.829-2.432,15.432-5.526,15.355-10.365,29.155-26.643,37.854-46.108l2.676-5.988" style="fill:none; stroke:#a6abb0; stroke-miterlimit:10; stroke-width:.5px;"/><path d="m65.304,207.945c6.326,17.739,18.224,37.918,40.329,52.839,4.571,3.109,9.872,4.974,15.317,5.486,10.778,1.009,24.832,1.874,41.73,1.874s30.955-.865,41.733-1.874c5.484-.512,10.747-2.414,15.316-5.485,15.314-10.337,29.084-26.578,37.765-46.003l2.676-5.988" style="fill:none; stroke:#a6abb0; stroke-miterlimit:10; stroke-width:.5px;"/><path d="m65.539,207.861c6.313,17.703,18.183,37.832,40.235,52.716,4.535,3.085,9.796,4.935,15.2,5.443,10.771,1.009,24.817,1.873,41.707,1.873s30.939-.865,41.71-1.873c5.441-.508,10.665-2.395,15.199-5.443,15.274-10.31,29.014-26.513,37.677-45.898l2.676-5.988" style="fill:none; stroke:#a6abb0; stroke-miterlimit:10; stroke-width:.5px;"/></g><path d="m65.775,207.777c6.3,17.666,18.142,37.746,40.14,52.594,4.5,3.061,9.72,4.897,15.083,5.401,10.764,1.008,24.802,1.872,41.684,1.872s30.922-.864,41.687-1.872c5.399-.504,10.583-2.377,15.083-5.401,15.233-10.282,28.944-26.449,37.588-45.793l2.676-5.988" style="fill:none; stroke:#a6abb0; stroke-miterlimit:10; stroke-width:.5px;"/><g id="uuid-7e74f940-422e-4094-9168-afeb71ed0c36"><path d="m81.96,136.032c3.238-7.638,6.368-9.747,9.523-11.899,1.733-1.183,3.557-2.423,5.366-4.548.568-.665,1.274-1.848,2.12-3.255,3.492-5.811,10.413-17.319,24.854-25.489,9.364-5.298,21.935-9.217,38.858-9.217s29.497,3.919,38.861,9.217c14.441,8.171,21.362,19.678,24.854,25.489.846,1.407,1.552,2.59,2.119,3.253,1.81,2.127,3.633,3.367,5.367,4.55,3.155,2.153,6.284,4.262,9.521,11.9,1.424,3.355,1.891,5.852,1.8,7.674-.053,1.074-.299,1.905-.65,2.546-.385.705-.918,1.221-1.541,1.59-.9.534-2.007.77-3.117.77-4.417,0-11.43-1.402-21.568-3.435-1.664-.334-3.409-.684-5.237-1.047-2.075-.408-3.925-.78-5.609-1.118-14.866-2.986-16.815-3.365-44.837-3.365-28.02,0-29.968.379-44.831,3.365-1.685.338-3.536.71-5.611,1.119-2.217.434-4.315.851-6.294,1.245-9.59,1.909-16.286,3.237-20.512,3.237-1.087,0-2.182-.232-3.075-.763-.618-.367-1.148-.88-1.532-1.583-.349-.639-.594-1.468-.646-2.542-.088-1.822.382-4.324,1.817-7.692Z" style="fill:none; stroke:#a6abb0; stroke-miterlimit:10; stroke-width:.5px;"/><path d="m81.73,135.935c3.263-7.696,6.433-9.839,9.612-12.008,1.733-1.183,3.532-2.407,5.317-4.504.551-.645,1.244-1.804,2.096-3.221,3.496-5.818,10.444-17.374,24.945-25.578,9.404-5.32,22.017-9.249,38.982-9.249s29.58,3.929,38.985,9.25c14.501,8.204,21.449,19.76,24.945,25.578.852,1.418,1.545,2.577,2.095,3.22,1.786,2.099,3.584,3.323,5.317,4.505,3.179,2.17,6.349,4.312,9.61,12.009,1.432,3.375,1.913,5.911,1.82,7.784-.055,1.107-.309,1.975-.68,2.654-.408.747-.975,1.295-1.632,1.685-.948.563-2.102.805-3.244.805-4.448,0-11.493-1.409-21.617-3.44-1.664-.334-3.408-.684-5.236-1.046-2.075-.409-3.926-.78-5.61-1.119-14.845-2.982-16.775-3.36-44.788-3.36-28.011,0-29.941.378-44.782,3.36-1.685.338-3.537.71-5.612,1.119-2.217.434-4.314.851-6.293,1.245-9.576,1.906-16.304,3.242-20.56,3.242-1.12,0-2.261-.239-3.203-.798-.653-.388-1.217-.933-1.624-1.679-.369-.677-.623-1.544-.676-2.65-.091-1.873.393-4.414,1.836-7.802Z" style="fill:none; stroke:#a6abb0; stroke-miterlimit:10; stroke-width:.5px;"/><path d="m81.5,135.837c3.288-7.754,6.497-9.931,9.701-12.117,1.733-1.183,3.506-2.39,5.268-4.46.534-.624,1.213-1.76,2.072-3.188,3.499-5.824,10.476-17.429,25.036-25.667,9.444-5.343,22.1-9.281,39.105-9.281s29.664,3.939,39.108,9.282c14.561,8.238,21.537,19.843,25.036,25.667.858,1.428,1.538,2.563,2.071,3.187,1.762,2.07,3.535,3.278,5.268,4.461,3.204,2.186,6.413,4.363,9.699,12.118,1.44,3.394,1.935,5.97,1.84,7.894-.056,1.139-.319,2.045-.71,2.761-.432.79-1.031,1.369-1.724,1.78-.997.591-2.198.84-3.372.84-4.48,0-11.557-1.417-21.666-3.445-1.664-.334-3.408-.684-5.235-1.046-2.076-.409-3.927-.78-5.611-1.119-14.823-2.977-16.735-3.355-44.739-3.355-28.001,0-29.914.378-44.733,3.355-1.685.338-3.537.71-5.614,1.119-2.216.433-4.313.851-6.293,1.245-9.563,1.904-16.321,3.247-20.609,3.247-1.152,0-2.341-.245-3.33-.833-.689-.409-1.286-.986-1.716-1.774-.39-.714-.651-1.619-.707-2.757-.093-1.924.405-4.505,1.856-7.912Z" style="fill:none; stroke:#a6abb0; stroke-miterlimit:10; stroke-width:.5px;"/><path d="m81.27,135.739c3.312-7.812,6.562-10.023,9.791-12.226,1.733-1.182,3.481-2.374,5.218-4.416.516-.604,1.183-1.716,2.047-3.154,3.503-5.83,10.507-17.484,25.127-25.756,9.483-5.365,22.182-9.314,39.228-9.314s29.747,3.949,39.231,9.314c14.62,8.272,21.624,19.925,25.127,25.756.864,1.438,1.531,2.55,2.047,3.154,1.738,2.042,3.486,3.234,5.218,4.416,3.229,2.203,6.478,4.414,9.788,12.227,1.449,3.414,1.957,6.029,1.859,8.004-.058,1.171-.329,2.115-.741,2.869-.455.832-1.087,1.443-1.816,1.875-1.045.62-2.293.875-3.499.875-4.512,0-11.62-1.425-21.715-3.45-1.664-.334-3.408-.684-5.234-1.046-2.076-.409-3.928-.781-5.612-1.119-14.801-2.973-16.695-3.351-44.689-3.351-27.992,0-29.886.377-44.683,3.35-1.685.338-3.537.711-5.615,1.12-2.216.433-4.313.851-6.292,1.245-9.549,1.901-16.339,3.251-20.658,3.251-1.185,0-2.421-.252-3.458-.868-.724-.43-1.355-1.038-1.808-1.869-.41-.752-.68-1.694-.737-2.865-.096-1.975.416-4.595,1.876-8.021Z" style="fill:none; stroke:#a6abb0; stroke-miterlimit:10; stroke-width:.5px;"/></g><path d="m81.039,135.642c5.114-12.062,10.117-10.91,15.049-16.707,3.815-4.465,16.63-38.312,66.593-38.312s62.78,33.846,66.595,38.312c4.933,5.797,9.935,4.645,15.046,16.707,4.645,10.946-.215,13.971-4.427,13.971-5.293,0-14.111-1.944-26.998-4.501-20.303-3.997-19.079-4.465-50.253-4.465-31.174,0-29.947.468-50.25,4.465-12.887,2.52-21.744,4.501-26.998,4.501-4.139,0-9.036-2.989-4.357-13.971Z" style="fill:none; stroke:#a6abb0; stroke-miterlimit:10; stroke-width:.5px;"/><g id="uuid-7167b531-9c70-4133-a109-b5e77dbb48a5"><path d="m127.21,223.98c-.951-5.998-1.889-7.319-4.325-10.834-.165-.238-.337-.486-.516-.746-1.192-1.728-2.866-4.108-4.656-6.65-2.52-3.58-5.268-7.483-7.164-10.278,0,0-1.393-1.864-3.631-3.127-.946-.533-2.01-.937-3.162-1.05-4.349-.464-12.118-.858-18.395-.714-1.68,0-2.834.347-3.614.863-.614.405-1.044.944-1.325,1.604-.658,1.54-.525,3.787.242,6.348,4.867,15.319,15.674,32.03,27.065,41.494,5.086,4.225,10.195,6.928,14.866,7.506,2.069.255,4.817.454,8.328.544,0,0-3.714-24.969-3.712-24.959Z" style="fill:none; stroke:#a6abb0; stroke-miterlimit:10; stroke-width:.5px;"/><path d="m127.457,223.941c-.958-6.044-1.915-7.4-4.366-10.937-.165-.238-.337-.486-.516-.745-1.192-1.729-2.868-4.11-4.658-6.652-2.521-3.581-5.267-7.482-7.168-10.284,0,0-1.425-1.907-3.709-3.195-.968-.546-2.066-.964-3.258-1.081-4.359-.465-12.139-.859-18.422-.716-1.713,0-2.919.354-3.752.904-.658.434-1.118,1.013-1.418,1.715-.693,1.622-.54,3.939.234,6.522,4.879,15.359,15.712,32.113,27.144,41.61,5.103,4.24,10.257,6.975,14.995,7.562,2.138.263,4.99.467,8.65.553,0,0-3.757-25.263-3.756-25.256Z" style="fill:none; stroke:#a6abb0; stroke-miterlimit:10; stroke-width:.5px;"/><path d="m127.704,223.901c-.965-6.09-1.941-7.48-4.408-11.04-.165-.238-.337-.486-.515-.745-1.193-1.731-2.87-4.112-4.659-6.654-2.521-3.582-5.266-7.481-7.172-10.289,0,0-1.457-1.949-3.786-3.263-.99-.558-2.121-.991-3.354-1.112-4.37-.466-12.16-.861-18.448-.717-1.745,0-3.004.361-3.89.945-.701.463-1.192,1.081-1.51,1.825-.728,1.704-.555,4.092.225,6.696,4.892,15.399,15.749,32.195,27.222,41.727,5.121,4.254,10.319,7.023,15.124,7.618,2.206.271,5.163.48,8.971.561,0,0-3.801-25.556-3.8-25.552Z" style="fill:none; stroke:#a6abb0; stroke-miterlimit:10; stroke-width:.5px;"/><path d="m127.951,223.862c-.973-6.136-1.966-7.561-4.449-11.143-.165-.238-.336-.485-.515-.744-1.194-1.732-2.871-4.115-4.661-6.656-2.522-3.582-5.265-7.479-7.176-10.295,0,0-1.488-1.991-3.864-3.331-1.012-.571-2.177-1.018-3.451-1.143-4.38-.467-12.182-.863-18.475-.719-1.778,0-3.089.367-4.027.987-.745.492-1.266,1.15-1.602,1.936-.763,1.786-.57,4.245.217,6.87,4.905,15.44,15.787,32.278,27.301,41.843,5.139,4.269,10.38,7.07,15.253,7.674,2.273.28,5.336.492,9.293.569,0,0-3.845-25.849-3.844-25.847Z" style="fill:none; stroke:#a6abb0; stroke-miterlimit:10; stroke-width:.5px;"/></g><path d="m132.086,249.964l-3.888-26.141c-1.045-6.589-2.126-7.813-5.005-11.99-2.88-4.177-8.566-12.134-11.843-16.959,0,0-3.095-4.141-7.488-4.573-4.391-.468-12.203-.864-18.501-.72-6.504,0-7.237,4.825-5.65,10.118,7.112,22.388,26.752,47.706,42.762,49.69,2.341.288,5.508.504,9.614.576Z" style="fill:none; stroke:#a6abb0; stroke-miterlimit:10; stroke-width:.5px;"/><g id="uuid-d45c5a83-f4dc-449b-ab66-7aa8b1b6ab9b"><path d="m178.273,225.343c-.142,2.469-.428,4.938-.607,6.149-.09.616-.398,1.518-1.144,2.218-.562.527-1.398.964-2.649,1.065-2.576.208-6.497.194-9.479.183-.604-.002-1.169-.004-1.675-.004-.352,0-.733,0-1.136.001-3.028.004-7.283.009-10.019-.18-1.213-.098-2.029-.513-2.584-1.017-.776-.705-1.097-1.635-1.209-2.265-.177-1.211-.463-3.681-.607-6.148-.034-.619.046-1.379.333-1.968.151-.311.352-.557.609-.721.218-.139.5-.234.873-.241.9-.016,2.499.005,4.606.033,2.472.033,5.63.075,9.135.075,3.506,0,6.665-.042,9.137-.075,2.107-.028,3.705-.049,4.595-.033.359.013.635.11.854.251.263.17.469.424.625.74.292.592.378,1.345.345,1.937Z" style="fill:none; stroke:#a6abb0; stroke-miterlimit:10; stroke-width:.5px;"/><path d="m178.522,225.357c-.142,2.477-.429,4.954-.609,6.171-.096.655-.422,1.616-1.221,2.364-.606.568-1.496,1.027-2.8,1.131-2.589.209-6.522.194-9.5.184-.604-.002-1.169-.004-1.674-.004-.352,0-.733,0-1.136.001-3.024.004-7.29.009-10.039-.18-1.265-.102-2.133-.537-2.732-1.081-.831-.755-1.169-1.744-1.288-2.414-.178-1.218-.465-3.695-.609-6.171-.035-.642.045-1.45.357-2.091.166-.342.395-.628.699-.822.26-.166.588-.272,1.003-.28.905-.016,2.509.005,4.614.033,2.472.033,5.628.075,9.132.075,3.504,0,6.661-.042,9.134-.075,2.105-.028,3.708-.049,4.607-.033.401.015.722.124.98.291.309.2.542.493.713.839.317.642.405,1.442.371,2.062Z" style="fill:none; stroke:#a6abb0; stroke-miterlimit:10; stroke-width:.5px;"/></g><path d="m178.772,225.372c-.142,2.484-.43,4.969-.612,6.193-.179,1.224-1.114,3.457-4.248,3.709-3.131.252-8.206.18-11.195.18-2.989,0-8.064.036-11.195-.18-3.131-.252-4.03-2.484-4.248-3.709-.179-1.224-.466-3.709-.612-6.193-.073-1.332.324-3.421,2.304-3.457,1.98-.036,7.27.108,13.75.108,6.48,0,11.773-.144,13.75-.108,1.944.072,2.377,2.16,2.304,3.457Z" style="fill:none; stroke:#a6abb0; stroke-miterlimit:10; stroke-width:.5px;"/><g id="uuid-2d39772e-ccc0-4ad7-b42f-04d7e37291de"><path d="m244.698,199.41c.768-2.549.87-4.758.2-6.286-.29-.659-.727-1.204-1.348-1.62-.784-.525-1.928-.887-3.567-.924-6.253-.143-14.024.287-18.384.716-1.163.114-2.24.523-3.191,1.062-2.225,1.261-3.591,3.11-3.567,3.077-1.928,2.842-4.69,6.764-7.218,10.356-1.78,2.528-3.443,4.891-4.632,6.615-.168.24-.329.471-.485.692-2.491,3.551-3.427,4.853-4.349,10.873,0,0-3.714,24.969-3.714,24.969,3.503-.089,6.226-.289,8.325-.543,4.719-.585,9.828-3.288,14.891-7.494,11.475-9.533,22.243-26.395,27.04-41.492Z" style="fill:none; stroke:#a6abb0; stroke-miterlimit:10; stroke-width:.5px;"/><path d="m244.937,199.482c.774-2.569.896-4.849.189-6.459-.308-.701-.775-1.284-1.438-1.727-.835-.559-2.029-.928-3.701-.966-6.265-.143-14.046.287-18.414.717-1.206.118-2.316.542-3.29,1.094-2.271,1.287-3.668,3.178-3.651,3.154-1.927,2.84-4.687,6.76-7.216,10.352-1.779,2.527-3.444,4.892-4.632,6.615-.168.24-.329.47-.484.692-2.507,3.575-3.463,4.912-4.391,10.98l-3.757,25.263c3.652-.086,6.478-.29,8.646-.553,4.786-.593,9.939-3.329,15.02-7.549,11.517-9.568,22.309-26.472,27.119-41.612Z" style="fill:none; stroke:#a6abb0; stroke-miterlimit:10; stroke-width:.5px;"/><path d="m245.176,199.554c.78-2.589.921-4.94.179-6.631-.326-.742-.824-1.363-1.528-1.834-.885-.592-2.129-.97-3.834-1.008-6.277-.144-14.069.287-18.444.718-1.249.122-2.393.561-3.389,1.125-2.317,1.313-3.746,3.247-3.734,3.231-1.925,2.838-4.684,6.756-7.213,10.349-1.779,2.527-3.445,4.892-4.633,6.616-.167.24-.329.47-.484.691-2.523,3.598-3.498,4.971-4.434,11.086l-3.801,25.556c3.802-.081,6.731-.29,8.968-.561,4.853-.601,10.05-3.369,15.149-7.605,11.558-9.602,22.375-26.549,27.199-41.732Z" style="fill:none; stroke:#a6abb0; stroke-miterlimit:10; stroke-width:.5px;"/><path d="m245.416,199.626c.786-2.609.947-5.031.168-6.804-.344-.783-.872-1.442-1.618-1.942-.935-.626-2.23-1.011-3.967-1.05-6.289-.144-14.091.288-18.474.719-1.292.126-2.47.579-3.488,1.156-2.363,1.339-3.824,3.316-3.818,3.308-1.924,2.836-4.681,6.752-7.211,10.345-1.779,2.526-3.445,4.893-4.634,6.617-.167.24-.328.469-.484.691-2.54,3.621-3.533,5.029-4.476,11.193l-3.845,25.849c3.952-.077,6.984-.289,9.29-.569,4.919-.609,10.161-3.41,15.278-7.661,11.599-9.636,22.441-26.626,27.278-41.853Z" style="fill:none; stroke:#a6abb0; stroke-miterlimit:10; stroke-width:.5px;"/></g><path d="m245.655,199.699c1.584-5.257.721-9.974-5.65-10.118-6.301-.144-14.113.288-18.504.72-4.427.432-7.488,4.573-7.488,4.573-3.273,4.825-8.963,12.782-11.843,16.959-2.916,4.177-3.994,5.401-5.002,11.99l-3.888,26.141c4.103-.072,7.237-.288,9.611-.576,16.291-2.018,35.774-27.685,42.765-49.69Z" style="fill:none; stroke:#a6abb0; stroke-miterlimit:10; stroke-width:.5px;"/><path d="m162.143,162.033c.332-.332.83-.332,1.12,0l7.758,7.843c.251.249.583.373.914.373h3.277c.126,0,.248-.083.29-.207.042-.125.042-.249-.084-.374l-11.656-11.827c-.583-.581-1.535-.581-2.115,0l-11.659,11.827c-.084.083-.126.249-.084.374.042.124.167.207.293.207h3.277c.332,0,.663-.124.911-.373l7.758-7.843Z" style="fill:none; stroke:#a6abb0; stroke-linecap:round; stroke-linejoin:round; stroke-width:.5px;"/><path d="m163.263,179.463c-.164.166-.373.249-.579.249-.209,0-.415-.083-.583-.249l-7.758-7.843c-.248-.249-.579-.373-.911-.373h-3.277c-.126,0-.251.083-.293.208-.039.125-.039.249.084.373l11.659,11.827c.579.581,1.535.581,2.115,0l11.659-11.827c.08-.083.122-.249.08-.373s-.164-.208-.29-.208h-3.277c-.332,0-.663.125-.914.373l-7.716,7.843Z" style="fill:none; stroke:#a6abb0; stroke-linecap:round; stroke-linejoin:round; stroke-width:.5px;"/><path d="m162.112,167.789c0,.192-.077.385-.189.5l-1.979,2.038c-.23.231-.23.616,0,.808l1.979,2.038c.112.154.189.308.189.5v3.116c0,.115-.077.231-.189.269-.115.038-.23.038-.343-.077l-5.293-5.423c-.455-.462-.455-1.231,0-1.693l5.293-5.423c.077-.077.227-.115.343-.077.112.038.189.154.189.269v3.154Z" style="fill:none; stroke:#a6abb0; stroke-linecap:round; stroke-linejoin:round; stroke-width:.5px;"/><path d="m169.116,169.904c.458.462.458,1.231,0,1.693l-5.405,5.5c-.077.077-.227.115-.343.077-.112-.038-.189-.154-.189-.269v-3.116c0-.192.077-.385.189-.5l2.094-2.115c.227-.231.227-.616,0-.808l-2.094-2.115c-.112-.154-.189-.308-.189-.5v-3.077c0-.115.077-.231.189-.269.115-.038.23-.038.343.077l5.405,5.423Z" style="fill:none; stroke:#a6abb0; stroke-linecap:round; stroke-linejoin:round; stroke-width:.5px;"/><path d="m79.983,182.752c.487.088,1.041.144,1.671.166,4.463.18,31.668.9,37.067,1.044.251,0,.506-.108.684-.288.182-.18.251-.432.251-.684" style="fill:none; stroke:#a6abb0; stroke-linecap:round; stroke-linejoin:round; stroke-width:.5px;"/><path d="m119.874,156.022c0-.432-.288-1.008-.972-.936,0,0-26.054,2.268-31.31,2.808-5.254.54-7.379,1.764-8.206,5.005l-.859,3.365" style="fill:none; stroke:#a6abb0; stroke-linecap:round; stroke-linejoin:round; stroke-width:.5px;"/><path d="m89.138,164.611c.299-.067.632-.111,1.001-.128,2.195-.072,23.794-.72,28.618-.864.251,0,.466.072.648.252.179.18.288.432.288.648" style="fill:none; stroke:#a6abb0; stroke-linecap:round; stroke-linejoin:round; stroke-width:.5px;"/><path d="m119.548,174.781c0,.504-.394.9-.899.9h-29.914c-.711,0-1.269-.072-1.703-.21" style="fill:none; stroke:#a6abb0; stroke-linecap:round; stroke-linejoin:round; stroke-width:.5px;"/><path d="m110.484,165.273c-1.98.04-18.757.475-20.315.541-.264.013-.502.053-.7.092.422,2.429-.198,5.306-1.676,8.197.158.079.343.132.541.132h22.4c.713,0,2.152-.106,2.297-2.376.066-1.294.145-2.798.185-3.815.106-2.006-.766-2.798-2.732-2.772Zm-5.861,6.494c0,.568-.462,1.043-1.03,1.043h-6.257c-.568,0-1.03-.475-1.03-1.043v-3.472c0-.568.449-1.03,1.016-1.043l6.244-.145c.277,0,.541.106.752.304.198.198.304.462.304.739v3.617Z" style="fill:url(#uuid-eb9bfdaf-9438-4084-82bb-bacb1412baca); stroke:#30373e; stroke-linecap:round; stroke-linejoin:round; stroke-width:.75px;"/><path d="m212.073,168.045c.04,1.016.119,2.521.185,3.815.145,2.27,1.584,2.376,2.297,2.376h22.4c.198,0,.383-.053.541-.132-1.478-2.891-2.099-5.768-1.676-8.197-.198-.04-.436-.079-.7-.092-1.558-.066-18.335-.502-20.315-.541-1.967-.026-2.838.766-2.732,2.772Zm8.593.106c0-.277.106-.541.304-.739.211-.198.475-.304.752-.304l6.244.145c.568.013,1.016.475,1.016,1.043v3.472c0,.568-.462,1.043-1.03,1.043h-6.257c-.568,0-1.03-.475-1.03-1.043v-3.617Z" style="fill:url(#uuid-a6de6347-a626-406f-a2ab-ef7e9fcab8d5); stroke:#30373e; stroke-linecap:round; stroke-linejoin:round; stroke-width:.75px;"/><path d="m162.681,245.5c-3.888,0-10.51,0-14.613-.396-4.106-.396-5.148-4.033-5.472-6.013-.469-2.808-.972-5.005-1.693-12.638-.36-3.781.397-4.645,3.095-4.717,2.701-.072,9.899.144,18.683.144s16.018-.216,18.683-.144c2.701.072,3.455.936,3.095,4.717-.718,7.633-1.223,9.866-1.69,12.638-.324,1.981-1.369,5.617-5.472,6.013-4.069.396-10.728.396-14.616.396Z" style="fill:none; stroke:#a6abb0; stroke-linecap:round; stroke-linejoin:round; stroke-width:.5px;"/><path d="m71.931,171.587c.611-3.566,1.363-7.204,2.271-10.596,1.547-5.653,5.148-7.057,10.186-7.561,5.002-.504,17.89-1.944,22.138-2.232,4.248-.288,5.868-1.26,7.525-2.376,1.653-1.116,7.234-5.437,7.234-5.437" style="fill:none; stroke:#a6abb0; stroke-miterlimit:10; stroke-width:.5px;"/><path d="m204.15,143.383s5.581,4.321,7.237,5.437c1.653,1.116,3.273,2.088,7.522,2.376,4.248.288,17.099,1.764,22.138,2.232,5.042.468,8.639,1.909,10.189,7.561.78,2.849,1.44,5.871,1.991,8.878" style="fill:none; stroke:#a6abb0; stroke-miterlimit:10; stroke-width:.5px;"/><path d="m248.553,187.26c-.668.075-1.404.117-2.214.124-9.181.108-25.811.828-28.906.936-2.017.072-3.997,1.548-5.184,3.205-1.441,1.98-10.583,15.087-15.803,21.748-4.067,5.185-7.594,6.877-33.729,6.877-26.135,0-29.662-1.692-33.729-6.877-5.22-6.661-14.398-19.768-15.803-21.748-1.187-1.657-3.167-3.133-5.184-3.205-3.095-.108-19.725-.828-28.906-.936-.865-.008-1.645-.055-2.349-.14" style="fill:none; stroke:#a6abb0; stroke-miterlimit:10; stroke-width:.5px;"/><path d="m192.508,141.442c4.536.612,5.449,1.618,8.653,4.282,1.726,1.44,2.734,2.341,3.346,3.601.542,1.116.793,2.556.902,5.005.215,5.185.43,22.216.357,26.285-.07,4.033-.288,5.365-2.556,9.11-2.301,3.781-8.17,11.882-11.555,16.131-1.26,1.584-2.483,2.629-3.779,3.313-2.086,1.116-4.572,1.404-8.388,1.728-5.854.497-13.171.432-16.809.432-.324,0,.397,0,0,0s.324,0,0,0c-3.638,0-10.955.065-16.809-.432-3.815-.324-6.301-.612-8.388-1.728-1.296-.684-2.519-1.728-3.779-3.313-3.385-4.249-9.253-12.35-11.555-16.131-2.268-3.745-2.486-5.077-2.556-9.11-.073-4.069.142-21.1.357-26.285.109-2.448.36-3.889.902-5.005.612-1.26,1.62-2.16,3.346-3.601,3.204-2.664,4.117-3.67,8.653-4.282" style="fill:none; stroke:#a6abb0; stroke-linecap:round; stroke-linejoin:round; stroke-width:.5px;"/><path d="m185.503,140.935c2.085.106,3.815,1.548,7.379,4.105,3.564,2.557,3.921,6.157,3.958,8.642.073,6.373.073,12.782.073,19.156,0,3.097.036,5.185-4.391,13.215-4.681,8.426-7.561,9.938-13.033,10.154-5.578.216-11.195.468-16.809.468-5.614,0-11.231-.252-16.809-.468-5.472-.216-8.351-1.728-13.033-10.154-4.427-8.03-4.391-10.118-4.391-13.215,0-6.373,0-12.783.073-19.156.036-2.484.394-6.085,3.958-8.642,3.564-2.557,5.295-3.999,7.379-4.105" style="fill:none; stroke:#a6abb0; stroke-linecap:round; stroke-linejoin:round; stroke-width:.5px;"/><path d="m205.706,182.991c0,.252.07.504.251.684.179.18.433.288.684.288,5.399-.144,32.604-.864,37.067-1.044.467-.017.893-.052,1.28-.105" style="fill:none; stroke:#a6abb0; stroke-linecap:round; stroke-linejoin:round; stroke-width:.5px;"/><path d="m245.892,162.593c-.883-3.012-3.037-4.176-8.122-4.699-5.257-.54-31.31-2.808-31.31-2.808-.684-.072-.972.504-.972.936" style="fill:none; stroke:#a6abb0; stroke-linecap:round; stroke-linejoin:round; stroke-width:.5px;"/><path d="m205.669,164.519c0-.216.109-.468.288-.648.182-.18.397-.252.648-.252,4.824.144,26.422.792,28.618.864.342.015.652.054.933.113" style="fill:none; stroke:#a6abb0; stroke-linecap:round; stroke-linejoin:round; stroke-width:.5px;"/><path d="m238.271,175.49c-.425.126-.964.192-1.643.192-4.896,0-25.378,0-29.914,0-.506,0-.899-.396-.899-.9" style="fill:none; stroke:#a6abb0; stroke-linecap:round; stroke-linejoin:round; stroke-width:.5px;"/><path d="m52.575,187.673c-.272-.998-.5-2.001-.71-3.002-.198-1.003-.394-2.001-.661-2.97-.275-.963-.594-1.921-1.136-2.751-.536-.829-1.34-1.493-2.312-1.843,1.011.194,1.954.786,2.632,1.605.696.812,1.139,1.792,1.504,2.765.722,1.963,1.222,3.953,1.724,5.917v.005c.075.288-.099.582-.387.655-.285.073-.576-.097-.653-.38Z" style="fill:#30373e; stroke-width:0px;"/><path d="m41.525,189.845c1.806.586,3.603,1.196,5.398,1.81l-.283.038c2.402-1.967,4.912-3.836,7.481-5.572,2.582-1.724,4.87-3.634,7.011-5.833,2.175-2.129,4.102-4.591,6.564-6.668,1.212-1.056,2.616-1.89,3.888-2.705,1.281-.817,2.472-1.736,3.635-2.727l3.484-3.073c1.202-1.01,2.428-2.057,4.025-2.738.79-.332,1.743-.528,2.691-.349.469.088.923.258,1.32.493.372.231.727.464,1.057.753,1.352,1.117,2.157,2.869,2.247,4.574.12,1.716-.297,3.365-.925,4.865-.632,1.507-1.503,2.881-2.492,4.145-2.002,2.514-4.524,4.567-7.32,6.108l.254-.227-8.408,11.967.099-.197-2.722,8.467c-.921,2.823-1.882,5.644-3.017,8.416-1.16,2.755-2.463,5.498-4.228,7.963-1.742,2.472-3.912,4.639-6.384,6.305,2.041-2.178,3.818-4.51,5.308-7.006,1.493-2.493,2.718-5.146,3.78-7.88,2.156-5.456,3.94-11.118,5.839-16.734l.002-.006c.023-.069.058-.134.097-.191l8.408-11.967c.067-.096.158-.174.254-.227,2.628-1.447,5.002-3.384,6.863-5.722.918-1.174,1.719-2.441,2.285-3.795.567-1.346.914-2.79.812-4.178-.085-1.386-.683-2.666-1.726-3.54-.253-.224-.548-.415-.832-.594-.27-.16-.554-.262-.845-.318-.582-.109-1.216-.002-1.848.263-1.27.532-2.461,1.507-3.616,2.487l-3.487,3.076c-1.194,1.019-2.462,1.997-3.795,2.846-1.334.854-2.608,1.609-3.737,2.593-2.3,1.915-4.159,4.424-6.399,6.641-1.088,1.129-2.273,2.186-3.529,3.158-1.262.968-2.61,1.794-3.933,2.601-2.651,1.604-5.256,3.24-7.809,4.994l-.021.014c-.08.055-.18.061-.262.024-1.732-.774-3.463-1.553-5.184-2.356Z" style="fill:#30373e; stroke-width:0px;"/><path d="m85.031,163.443c-.979-.195-1.991.107-2.703.806-1.466,1.437-2.565,3.261-3.062,4.164-.208.377-.209.836-.003,1.214.384.705,1.216,1.838,2.874,2.693.378.195.832.187,1.202-.023.77-.436,2.244-1.381,4.128-3.111.454-.417.711-1.008.707-1.624-.008-1.016-.224-2.537-1.337-3.333-.623-.445-1.251-.675-1.805-.785Z" style="fill:none; stroke:#30373e; stroke-linecap:round; stroke-linejoin:round; stroke-width:.5px;"/><path d="m318.578,236.996c-6.155-5.572-11.661-11.734-17.239-17.831l-.142-.155-.045-.212-3.49-16.593-1.745-8.297c-.587-2.762-1.089-5.564-1.752-8.244-.356-1.329-.747-2.647-1.325-3.809-.575-1.167-1.371-2.102-2.432-2.856-1.07-.751-2.319-1.384-3.567-2.04l-3.719-1.971c-2.431-1.197-5.101-1.9-7.814-2.052-1.331-.068-2.8-.034-4.196-.062l-4.239-.053v-1.5c2.844-.024,5.61-.103,8.519-.054,2.933.123,5.847.844,8.505,2.107,1.354.658,2.51,1.321,3.785,1.97,1.25.657,2.536,1.295,3.786,2.165,1.255.87,2.347,2.144,3.011,3.519.682,1.371,1.093,2.78,1.47,4.176,1.307,5.598,2.303,11.091,3.431,16.65l3.302,16.628-.186-.367c5.529,6.141,11.131,12.216,16.082,18.88Z" style="fill:#30373e; stroke-width:0px;"/><path d="m271.82,187.393c.501-1.964,1.002-3.954,1.724-5.917.365-.974.808-1.954,1.504-2.765.678-.819,1.621-1.411,2.632-1.605-.971.35-1.776,1.014-2.312,1.843-.541.83-.86,1.788-1.136,2.751-.267.97-.464,1.967-.661,2.97-.21,1-.438,2.004-.71,3.002-.078.287-.374.456-.662.378-.284-.077-.453-.368-.38-.653v-.005Z" style="fill:#30373e; stroke-width:0px;"/><path d="m283.91,189.845c-1.721.802-3.452,1.581-5.184,2.356-.089.04-.187.027-.262-.024l-.021-.015c-2.554-1.755-5.158-3.39-7.809-4.994-1.323-.806-2.671-1.633-3.933-2.601-1.256-.972-2.441-2.029-3.529-3.158-2.24-2.217-4.098-4.726-6.399-6.641-1.129-.984-2.403-1.739-3.737-2.593-1.332-.85-2.6-1.827-3.795-2.846l-3.487-3.076c-1.154-.98-2.346-1.955-3.616-2.487-.632-.265-1.266-.372-1.848-.263-.291.056-.575.157-.845.318-.284.179-.579.37-.832.594-1.043.874-1.641,2.154-1.726,3.54-.101,1.388.246,2.832.812,4.178.566,1.353,1.367,2.621,2.285,3.795,1.861,2.338,4.235,4.275,6.863,5.722.103.056.19.138.254.227l8.408,11.967c.042.059.073.122.096.188l.003.009c1.899,5.616,3.683,11.278,5.839,16.734,1.061,2.734,2.286,5.387,3.78,7.88,1.489,2.496,3.267,4.828,5.308,7.006-2.473-1.666-4.643-3.833-6.384-6.305-1.765-2.465-3.068-5.208-4.228-7.963-1.135-2.772-2.096-5.593-3.017-8.416l-2.722-8.467.099.197-8.408-11.967.254.227c-2.796-1.541-5.317-3.593-7.32-6.108-.989-1.264-1.86-2.638-2.492-4.145-.628-1.5-1.045-3.149-.925-4.865.091-1.704.896-3.456,2.247-4.574.33-.289.685-.522,1.057-.753.397-.235.851-.405,1.32-.493.948-.179,1.901.017,2.691.349,1.597.681,2.823,1.728,4.025,2.738l3.484,3.073c1.162.991,2.354,1.91,3.635,2.727,1.272.815,2.676,1.649,3.888,2.705,2.462,2.077,4.388,4.539,6.564,6.668,2.141,2.199,4.429,4.109,7.011,5.833,2.569,1.735,5.079,3.605,7.481,5.572l-.283-.038c1.795-.614,3.592-1.224,5.398-1.81Z" style="fill:#30373e; stroke-width:0px;"/><path d="m240.403,163.443c.979-.195,1.991.107,2.703.806,1.466,1.437,2.565,3.261,3.062,4.164.208.377.209.836.003,1.214-.384.705-1.216,1.838-2.874,2.693-.378.195-.832.187-1.202-.023-.77-.436-2.244-1.381-4.128-3.111-.454-.417-.711-1.008-.707-1.624.008-1.016.224-2.537,1.337-3.333.623-.445,1.251-.675,1.805-.785Z" style="fill:none; stroke:#30373e; stroke-linecap:round; stroke-linejoin:round; stroke-width:.5px;"/><path d="m193.316,249.964c-.073.468-.288.864-.648,1.188-.899.864-2.771,2.7-4.5,4.249-2.989,2.7-5.687,3.745-25.487,3.745-19.797,0-22.498-1.008-25.484-3.745-1.693-1.548-3.6-3.385-4.5-4.249-.324-.324-.542-.72-.648-1.188" style="fill:none; stroke:#a6abb0; stroke-linecap:round; stroke-linejoin:round; stroke-width:.5px;"/></g><g id="uuid-63846560-868a-445e-b413-15b1d17392fc"><line x1="161.717" y1="132.911" x2="161.717" y2="45.453" style="fill:none; stroke:#f4f4f4; stroke-linecap:round; stroke-linejoin:round; stroke-width:3px;"/><polyline points="92.156 162.618 92.156 132.911 161.717 132.911 231.278 132.911 231.278 162.618" style="fill:none; stroke:#f4f4f4; stroke-linecap:round; stroke-linejoin:round; stroke-width:3px;"/><line x1="161.717" y1="132.911" x2="161.717" y2="45.453" style="fill:none; stroke:#30373e; stroke-linecap:round; stroke-miterlimit:10;"/><polyline points="92.156 162.618 92.156 132.911 161.717 132.911 231.278 132.911 231.278 162.618" style="fill:none; stroke:#30373e; stroke-linecap:round; stroke-miterlimit:10;"/><line x1="161.717" y1="43.821" x2="161.717" y2="30.464" style="fill:none; stroke:#30373e; stroke-miterlimit:10; stroke-width:3px;"/><line x1="161.717" y1="43.821" x2="152.622" y2="34.725" style="fill:none; stroke:#30373e; stroke-miterlimit:10; stroke-width:3px;"/><line x1="161.717" y1="43.821" x2="170.813" y2="34.725" style="fill:none; stroke:#30373e; stroke-miterlimit:10; stroke-width:3px;"/><polyline points="164.18 30.464 161.717 30.464 159.255 30.464" style="fill:none; stroke:#30373e; stroke-miterlimit:10; stroke-width:3px;"/><circle cx="161.717" cy="43.841" r="11.005" style="fill:#30373e; stroke-width:0px;"/><path d="m155.158,44.786l-.883-1.429c.995-.546,1.808-1.148,2.521-1.933h1.947v10.058h-1.989v-7.774c-.588.49-.91.715-1.597,1.079Z" style="fill:#f4f4f4; stroke-width:0px;"/><path d="m159.726,49.591l1.555-1.106c.616.953,1.191,1.331,2.073,1.331,1.079,0,1.737-.546,1.737-1.625v-.154c0-1.037-.631-1.457-1.681-1.457-.589,0-1.023.126-1.625.477l-1.387-.364.7-5.253h5.505v1.835h-3.88l-.225,1.695c.364-.112.742-.168,1.177-.168,2.144,0,3.39,1.345,3.39,3.25,0,2.199-1.639,3.586-3.81,3.586-1.485,0-2.647-.672-3.53-2.045Z" style="fill:#f4f4f4; stroke-width:0px;"/><path d="m169.653,43.954c0-4.454-3.611-8.065-8.065-8.065v3.386" style="fill:none; stroke:#f4f4f4; stroke-miterlimit:10; stroke-width:2px;"/></g></svg>