<?xml version="1.0" encoding="UTF-8"?><svg xmlns="http://www.w3.org/2000/svg" width="218" height="218" viewBox="0 0 218 218"><g id="uuid-7b60fa5b-4f68-487c-ac55-9eb788ffcc4a"><path d="m205.9899,160.227c-5.833,13.1243-12.9159,23.5403-24.7903,30.415-11.8743,6.8746-45.2616,19.4392-45.2616,19.4392-11.0266,4.3188-23.9517,4.0382-37.8119-1.7626C56.9655,191.0921,23.1438,131.7078,22.5832,75.6798c-.3785-37.821,14.496-64.4446,36.8642-72.4552,0,0,34.8391-14.6546,50.9014-13.613" style="fill:none; stroke:#a6abb0; stroke-miterlimit:10; stroke-width:1.5px;"/><path d="m46.2063,27.1579c15.3167-15.0695,36.9873-12.6138,54.0131-1.8578,16.5589,10.446,28.9585,26.4218,37.9094,43.6298-4.6468-8.5467-10.0358-16.7021-16.3497-24.0938C103.874,23.1495,70.6812,4.463,46.2063,27.1579h0Z" style="fill:#a6abb0; stroke-width:0px;"/><path d="m50.4416,154.1402c-15.1825-24.0199-23.6302-52.6951-22.1375-81.1859.2629-4.0617.7557-8.1079,1.5131-12.1029-.6771,4.0094-1.0878,8.0592-1.2687,12.1162-1.2191,28.4466,7.2653,56.904,21.8931,81.1726h0Z" style="fill:#a6abb0; stroke-width:0px;"/><path d="m132.5632,190.2664c-16.8243,12.6297-39.3176,6.4604-54.749-5.4114-5.2739-3.8958-10.0524-8.4333-14.3652-13.3623,4.4446,4.7934,9.2878,9.2325,14.5621,13.0948,15.5314,11.6115,37.5289,17.796,54.5521,5.6789h0Z" style="fill:#a6abb0; stroke-width:0px;"/><path d="m154.1144,120.1827c2.2204,16.9003,1.2202,34.8207-6.0961,50.4361,6.6767-15.8529,7.6335-33.4761,6.0961-50.4361h0Z" style="fill:#a6abb0; stroke-width:0px;"/><path d="m59.4473,3.2246c10.768-3.8563,23.2727-3.3992,36.6483,2.1988,41.1605,17.2264,74.9822,76.6108,75.5429,132.6387.3719,37.1612-13.9817,63.5123-35.7005,72.019" style="fill:none; stroke:#a6abb0; stroke-miterlimit:10; stroke-width:.5px;"/><path d="m22.5832,75.6798s-7.4159-5.8644-8.6658-9.6142c-1.2499-3.7498-7.2913-46.7701-3.9581-76.507,0,0-3.9581-20.9875-3.7498-27.2371" style="fill:none; stroke:#a6abb0; stroke-miterlimit:10; stroke-width:1.5px;"/><path d="m20.792,72.3153s-3.3331-10.2078-3.5415-18.3323S19.7504,8.3606,25.5834-7.0552c5.833-15.4158,11.869-24.3736,29.2665-21.2488,17.3975,3.1248,47.7459,12.4993,73.1944,26.4568,13.5742,7.2913,26.0735,24.1455,31.0732,37.9047,4.9997,13.7591,29.165,92.3552,32.9148,101.5961,3.7498,9.2409,8.5412,22.0784,16.2491,23.68,7.7079,1.6016,19.664,4.3098,19.664,4.3098,0,0,20.7504,5.9771,37.8328,13.9254" style="fill:none; stroke:#a6abb0; stroke-miterlimit:10; stroke-width:1.5px;"/><path d="m15.6299,68.9299s-3.3792-3.9229-3.3792-19.9552S12.2508,1.0815,26-28.9229c4.1664-9.1723,11.4524-17.0885,28.8499-13.547,17.3975,3.5415,41.5628,8.9578,75.5192,26.4568,17.2907,8.9578,31.2482,24.7903,37.2896,39.1645,6.0413,14.3742,15.2075,39.1645,17.499,42.081,2.2915,2.9165,10.8327,14.4085,12.4993,18.7661,1.6666,4.3576,8.5412,21.8049,9.3745,23.4973s2.7082,5.6505,9.5828,8.567,59.7961,23.1237,68.5378,27.0818" style="fill:none; stroke:#a6abb0; stroke-miterlimit:10; stroke-width:.5px;"/><path d="m175.0679,41.563c8.215,23.6694,17.5894,56.8812,21.1309,66.1072,3.5415,9.226,6.8746,17.9883,18.124,22.2525,11.2494,4.2642,51.4554,20.5644,51.4554,20.5644" style="fill:none; stroke:#a6abb0; stroke-miterlimit:10; stroke-width:.5px;"/><path d="m224.6804,119.2813s-7.4411,4.5023-10.3576,10.6413c0,0,4.3748,27.0901,11.2494,34.9469" style="fill:none; stroke:#a6abb0; stroke-miterlimit:10; stroke-width:.5px;"/><line x1="185.1577" y1="65.2324" x2="254.7371" y2="91.0326" style="fill:none; stroke:#a6abb0; stroke-miterlimit:10; stroke-width:.5px;"/><path d="m226.983,120.1827l-4.7441-5.3789s-4.3262-26.9954-13.1-40.6791c0,0-3.5658-32.016-1.8992-49.515" style="fill:none; stroke:#a6abb0; stroke-miterlimit:10; stroke-width:.5px;"/><path d="m21.8521-18.7146c6.4256-19.1363,20.4969-23.8546,38.9094-17.8413,9.431,2.5313,18.8034,5.2808,28.0969,8.28,31.0365,9.6559,63.0719,23.9925,75.6255,56.3809,7.8834,24.359,15.5601,50.0728,23.7086,74.4211,4.0964,12.1274,7.553,25.1521,12.1262,37.109,2.3882,6.0183,4.7711,12.2004,8.7959,17.3424-4.0578-5.1176-6.4843-11.294-8.9101-17.2984-4.6578-11.9233-8.1768-24.9352-12.288-37.062-8.2028-24.3422-15.9272-50.002-23.8594-74.3456C151.4207-3.9804,119.7308-18.2472,88.7559-27.9602c-9.2808-3.0175-18.644-5.7862-28.0642-8.3366-18.3019-6.0049-32.2763-1.5363-38.8396,17.5823h0Z" style="fill:#a6abb0; stroke-width:0px;"/><path d="m67.9519,143.1365c-3.4812-4.1877-6.6325-9.2128-9.2118-14.9021-.1969-.4342-.0294-.9623.3657-1.1505.4408-.21,1.0243-.4766,1.5765-.6938.343-.1349.7276.0198.9182.3727,1.1626,2.1527,5.2708,9.6317,8.1188,13.1886.1892.2362.2498.5582.1563.8508l-.6565,2.0561c-.188.5888-.8786.7456-1.2672.2782Z" style="fill:none; stroke:#a6abb0; stroke-miterlimit:10; stroke-width:.5px;"/><path d="m53.566,104.013c-.5194-.2248-1.0702.2224-1.02.8361.4879,5.9729,1.876,12.2958,4.2179,18.5892.1833.4595,3.1582-.2362,2.7193-2.1002s-3.1028-11.4617-3.015-14.1808c.0334-2.2561-1.4565-2.41-2.1433-2.7832-.2204-.1197-.4918-.2455-.759-.3611Z" style="fill:none; stroke:#a6abb0; stroke-miterlimit:10; stroke-width:.5px;"/><path d="m117.1169,133.9536c.791-7.781.0033-16.6033-2.4867-25.5925-.2403-.8673.1279-1.7785.8722-2.1183,2.7798-1.2689,7.71-2.8979,9.1375-3.3615.2633-.0855.5439-.0941.8135-.0212,2.7129.7332,4.6895,1.9657,5.5841,2.5989.3396.2403.5881.6085.6993,1.0367,3.1832,12.2534,4.1176,24.2313,2.9625,34.8089-.0709.6495-.4647,1.1852-1.0172,1.4018-1.0166.3985-2.7509.9618-4.4432.9676-.2846.001-.5606-.0963-.8063-.2624-1.617-1.0932-8.0636-5.4889-10.7251-7.8657-.4345-.388-.6524-.9849-.5906-1.5922Z" style="fill:none; stroke:#a6abb0; stroke-miterlimit:10; stroke-width:.5px;"/><path d="m54.7786,121.9457c-2.3466-6.6595-3.7519-13.3238-4.2657-19.641-.0507-.6232-.3838-1.1712-.8933-1.4472-1.6228-.8793-5.1694-2.7726-6.0931-3.0337-.4492-.127-.8766-.0293-1.2365.1438-.6313.3035-1.0015,1.0377-.9114,1.8045.8874,7.5543,2.6629,15.4054,5.3679,23.2617.0497.1442.1114.2776.1916.4042.4093.6454,1.8067,2.562,3.6499,1.9754,1.1321-.3603,2.3653-.8269,3.2976-1.1958.8266-.3271,1.2178-1.3499.8929-2.2718Z" style="fill:none; stroke:#a6abb0; stroke-miterlimit:10; stroke-width:.5px;"/><path d="m48.2537,95.6563l-4.5082-1.8908c-.1814-.0761-.3543-.1784-.4994-.3226-1.4157-1.4074-2.2388-4.1696-2.4694-5.032-.0461-.1725-.067-.3486-.0656-.5275.0587-7.4547,1.0586-14.4162,2.9529-20.5541" style="fill:none; stroke:#a6abb0; stroke-miterlimit:10; stroke-width:.5px;"/><path d="m43.664,67.3293c.3283-1.0638,1.4523-1.5078,2.3225-.8968.7925.5565,1.6977,1.3352,2.3291,2.3093,1.0826,1.6703,3.8929,6.4303,5.0244,8.3541.3006.5111.3381,1.1445.117,1.691-1.8021,4.4549-2.8521,9.6778-3.1065,15.3609-.0523,1.1685-1.1037,1.9249-2.0968,1.5084" style="fill:none; stroke:#a6abb0; stroke-miterlimit:10; stroke-width:.5px;"/><path d="m43.664,67.3294c.1641-.7759.931-1.4191,1.7609-1.2756.814.1733,1.3701.7558,1.998,1.2427,1.0597.8736,1.946,2.6143,2.714,3.7311.8331,1.2763,1.6227,2.5806,2.4331,3.8722.441.8312,1.6883,2.3158,1.5154,3.3298-.0044.3963-.2182.8654-.3554,1.2328-1.6241,4.2066-2.5637,8.6936-3.0451,13.1847-.1172.659-.0616,1.6733-.4005,2.292-.3628.7266-1.3078,1.1059-2.0308.7171.7416.2757,1.5388-.179,1.7927-.8333.2365-.5406.1049-1.6013.1498-2.2105.1691-4.6014.9298-9.1934,2.6021-13.511.0849-.2542.3022-.6678.302-.9413.1406-.6379-1.0159-2.1142-1.339-2.7735-.7581-1.316-1.5368-2.6195-2.2721-3.951-.6689-1.1069-1.4659-2.9024-2.405-3.7889-.5021-.4829-1.0498-1.129-1.7084-1.3342-.6845-.1865-1.4569.2933-1.7116,1.0168h0Z" style="fill:#a6abb0; stroke-width:0px;"/><path d="m61.0796,44.6769c.2631-.1275.5274-.2503.7929-.3683.6604-.2938,1.4229-.0702,1.8682.5658.7654,1.0936,1.9141,2.8588,2.4508,4.3077.044.1188.0731.2375.0951.3632l2.2892,13.1089c.1545.8844-.3131,1.7425-1.087,1.9778-.9253.2813-1.8346.6365-2.7245,1.0677-3.6164,1.7524-6.5894,4.6037-8.88,8.2787" style="fill:none; stroke:#a6abb0; stroke-linecap:round; stroke-linejoin:round; stroke-width:.5px;"/><path d="m61.0796,44.6769c1.3727-.918,2.3232-.7425,3.2092.6651.9459,1.3447,2.0191,2.7743,2.3875,4.4073.8254,4.0088,1.5647,8.053,2.2584,12.0856.0536.4068.1971.8977.152,1.3381-.0334,1.0348-.915,1.8938-1.9061,2.0538-4.669,1.4667-8.4761,4.7583-11.2962,8.7514,2.3446-4.3826,6.2442-8.0312,10.9976-9.6498.2477-.1157.7182-.1786.8902-.4218.5048-.5464.3273-1.153.1884-1.9017-.7141-4.0291-1.3892-8.0844-1.9713-12.1356-.2794-1.5852-1.2404-2.9285-2.012-4.318-.7161-1.4151-1.5187-1.5492-2.8976-.8745h0Z" style="fill:#a6abb0; stroke-width:0px;"/><path d="m55.8843,73.9783l-6.9936-9.6467c-.1441-.1987-.2528-.4356-.311-.681-.6717-2.834-.73-4.795-.7103-5.6678.0073-.3253.0981-.637.2576-.906,3.2815-5.534,7.6201-9.8159,12.9527-12.3999" style="fill:none; stroke:#a6abb0; stroke-linecap:round; stroke-linejoin:round; stroke-width:.5px;"/><path d="m91.1836,70.9063c-5.6665-4.3704-11.6493-6.8784-17.3295-7.0817-.6979-.025-1.3181-.5179-1.5272-1.2633-.7644-2.7242-2.5494-9.2238-3.2053-12.7964-.0397-.2165-.0401-.4271-.0058-.6429.1601-1.0062.6893-4.1027,1.4228-6.0316.2352-.6186.7642-1.0378,1.3725-1.0571,7.6493-.2425,15.7627,2.5895,23.5551,7.9351.376.2579.6425.6736.7372,1.1506.2703,1.3604.7928,4.3146.7471,6.618-.0029.1487-.0218.2837-.0566.4265-.3013,1.2381-1.8996,7.7157-3.3819,11.9762-.358,1.0291-1.4979,1.4071-2.3284.7665Z" style="fill:none; stroke:#a6abb0; stroke-miterlimit:10; stroke-width:.5px;"/><path d="m126.1162,90.0232c-5.2149-12.2548-12.0927-22.6952-19.7344-30.6786-.4436-.4635-1.085-.6083-1.6463-.3806-1.9908.8077-3.5762,2.1267-4.2403,2.7314-.2216.2018-.3832.468-.4754.771-1.6808,5.522-2.833,10.1845-3.3014,12.1591-.1476.6222.0319,1.2802.4587,1.7311,5.576,5.8908,10.567,13.6263,14.2756,22.7079.0885.2166.1759.4333.2623.6501.3063.768,1.033,1.2093,1.7654,1.0511,2.0427-.4413,6.182-1.4598,9.4471-3.0635.2786-.1368.507-.3611.6686-.6474.5347-.9474,1.7977-3.2975,2.5891-5.6836.1439-.4338.1118-.9233-.069-1.348Z" style="fill:none; stroke:#a6abb0; stroke-miterlimit:10; stroke-width:.5px;"/><path d="m107.9566,155.6834c3.5582-3.3764,6.1522-8.1467,7.7136-13.828.2778-1.011,1.3026-1.492,2.1682-1.0163,2.5642,1.4091,7.376,4.1817,9.5724,6.2889.0811.0778.1494.1595.2163.2524.528.7337,2.9426,4.1598,3.9289,6.8013.1615.4325.1755.9139.0252,1.3435-2.4462,6.9902-6.1167,12.7981-10.9358,16.89-.3873.3289-.8972.4227-1.3748.2756-1.1592-.3571-3.396-1.1891-5.2303-2.7233-.1673-.1399-.3055-.3152-.415-.5134-.8155-1.4771-4.4535-8.1037-6.0685-11.6729-.3297-.7287-.147-1.5789.3998-2.0978Z" style="fill:none; stroke:#a6abb0; stroke-miterlimit:10; stroke-width:.5px;"/><path d="m110.8609,177.7728c-5.085,1.5221-10.5128,1.4648-16.0173.0186-.2377-.0624-.4567-.1821-.6502-.3506-.6581-.5731-2.182-2.1017-3.3105-4.7879-.0598-.1424-.1036-.2977-.1297-.4514l-2.0224-11.9247" style="fill:none; stroke:#a6abb0; stroke-miterlimit:10; stroke-width:.5px;"/><path d="m88.7309,160.2768c4.9499,1.3057,9.8133,1.0311,14.2067-1.0978.0043-.0021.0086-.0042.0129-.0063.728-.3534,1.5896-.0674,2.0167.6967l6.5409,11.7017c.1248.2232.2031.4675.2312.7264.084.7743.2559,2.5385.2394,3.8622-.0094.7565-.4644,1.4173-1.1179,1.613" style="fill:none; stroke:#a6abb0; stroke-miterlimit:10; stroke-width:.5px;"/><path d="m88.7309,160.2769c4.7088.943,9.6326.6583,13.9288-1.498.6351-.3564,1.5613-.3031,2.139.1666.6299.4668.9784,1.4484,1.3878,2.081,1.8659,3.3484,3.7361,6.7882,5.4925,10.2031.4314.6091.3684,1.6671.4311,2.3769-.0561,1.3914.5037,3.665-1.2492,4.1664,1.6184-.736.8145-2.7646.7607-4.1264-.1208-.6477-.0703-1.5691-.494-2.1087-1.9901-3.2865-3.9376-6.6789-5.8136-10.0235-.2826-.4338-.7343-1.5258-1.1039-1.7901-.35-.2601-.7393-.2846-1.136-.0807-4.4568,2.1104-9.7151,2.2061-14.3433.6335h0Z" style="fill:#a6abb0; stroke-width:0px;"/><path d="m83.2326,172.7592c-4.8678-2.933-9.6486-6.8564-14.1559-11.6367,0,0-1.5452-1.5563-1.1258-4.1855s3.0092-7.9599,3.0092-7.9599" style="fill:none; stroke:#a6abb0; stroke-miterlimit:10; stroke-width:.5px;"/><path d="m70.9602,148.9771c4.5659,4.7197,9.5078,8.2071,14.4488,10.1929.5742.2307.9926.7865,1.0719,1.4566l1.1403,9.6399c.0352.2975.005.5932-.0949.8685-.2065.569-.6416,1.5569-1.3545,2.2124-.4589.4219-1.1216.4629-1.6633.1568-.4259-.2407-.8512-.489-1.2758-.7449" style="fill:none; stroke:#a6abb0; stroke-miterlimit:10; stroke-width:.5px;"/><path d="m70.9602,148.9771c4.3079,3.8915,8.9926,7.4053,14.3747,9.6227.6674.2174,1.251.7158,1.4885,1.3751.1563.3742.1665.8505.2183,1.2332.2404,2.1806.51,4.5747.6936,6.7487.0175.8252.4423,2.7549-.0291,3.4967-.5484,1.3903-1.9831,3.2525-3.5348,1.9412,0,.0001-.9387-.6355-.9387-.6355l1.0139.5046c1.5196,1.05,2.4822-.7568,2.9363-2.0179.3616-.6452-.1692-2.5111-.2115-3.1987-.4169-2.4888-.6324-5.2269-1.0687-7.7117-.1035-.2568-.2841-.478-.5085-.6139-5.599-2.3086-10.5383-6.1486-14.434-10.7445h0Z" style="fill:#a6abb0; stroke-width:0px;"/><path d="m68.0536,145.7438s-.9161,4.3163-1.8983,6.7156c-.6706,1.6381-1.9983,1.5903-2.7733,1.3952-.3547-.0893-.6709-.3049-.9044-.6182-4.3031-5.7735-8.2169-12.3825-11.5383-19.6821-.0494-.1085-.0879-.2167-.1184-.3331-.1909-.7281-.7327-3.3191,1.011-3.9958,1.2461-.4836,2.9405-.9021,4.0671-1.154.7031-.1572,1.4141.2427,1.744.963,2.9228,6.3823,6.4833,12.0166,10.4106,16.7094" style="fill:none; stroke:#a6abb0; stroke-miterlimit:10; stroke-width:.5px;"/><path d="m107.2539,103.9101c-.2449-.6509-.4999-1.3015-.7653-1.9513-3.0191-7.3933-6.9985-13.7788-11.4578-18.8132-.8624-.9736-2.3142-.7193-2.7937.5099-.5588,1.4325-.9598,3.2887-.6313,4.4345.0653.2279.204.4189.3553.5905,3.7109,4.2091,7.0219,9.5353,9.5378,15.6962.1527.3739.2643.7679.4459,1.1226.4839.9451,5.7401-.4705,5.3091-1.5892Z" style="fill:none; stroke:#a6abb0; stroke-miterlimit:10; stroke-width:.5px;"/><path d="m111.4079,133.6997c.8548-7.1292.1831-15.304-2.1411-23.6363-.294-1.0541-1.2689-1.6878-2.2346-1.4884-1.587.3277-3.5859,1.1998-3.3056,2.2368,1.8512,6.4824,2.5096,12.8622,2.0593,18.5458-.0473.5971.1215,1.193.4926,1.6388,1.3173,1.5824,4.5475,4.1878,5.1293,2.7032Z" style="fill:none; stroke:#a6abb0; stroke-miterlimit:10; stroke-width:.5px;"/><path d="m84.5126,155.0133c.0756.7811-.6111,1.3376-1.276,1.0603-3.9243-1.6365-7.9081-4.8439-11.5793-8.439,0,0-.5619-.5979-.2079-1.7578s.6278-1.5854.6278-1.5854c0,0,.9088-.8424,2.008.2289,1.0992,1.0713,4.4711,4.2146,8.3632,5.8009,0,0,1.2919.4963,1.6629,2.0173.1629.6678.3341,1.9799.4013,2.6749Z" style="fill:none; stroke:#a6abb0; stroke-miterlimit:10; stroke-width:.5px;"/><path d="m53.607,100.9094c1.0911.7782,2.5064.0276,2.6098-1.3915.3235-4.4402,1.3193-8.4643,2.9478-11.7923.588-1.2991-2.8342-6.1701-3.4018-5.1268-2.2091,4.7454-3.373,10.6183-3.4151,17.0767-.0183.189.5511.7289,1.2593,1.2339Z" style="fill:none; stroke:#a6abb0; stroke-miterlimit:10; stroke-width:.5px;"/><path d="m61.1747,84.4052c1.5515-2.0799,3.4469-3.7165,5.6698-4.7936,1.3154-.6374,2.6877-1.0509,4.098-1.2537,1.0515-.9504-1.0414-6.9462-2.111-7.2086-1.2563.2762-2.4834.6988-3.6717,1.2746-3.0194,1.4631-5.5321,3.7916-7.5092,6.781-.6537,1.1417,2.7564,6.1576,3.5242,5.2004Z" style="fill:none; stroke:#a6abb0; stroke-miterlimit:10; stroke-width:.5px;"/><path d="m103.6116,153.6681c3.8491-3.3224,6.5182-8.3993,7.9082-14.531.1862-2.1032-5.2517-4.7911-5.5799-3.7939-1.031,4.7955-2.9819,8.8459-5.7868,11.6865-.529.5705,2.6191,7.4107,3.4586,6.6384Z" style="fill:none; stroke:#a6abb0; stroke-miterlimit:10; stroke-width:.5px;"/><path d="m86.5433,151.4707c3.0628.4944,6.0481.1382,8.7873-1.1891.5869-.2844,1.1511-.6078,1.692-.9681.4399-.206,4.4367,5.8296,3.5686,6.3287-.4815.2959-.9776.5681-1.4882.8155-3.6694,1.7781-7.7093,2.0949-11.8344,1.1541-.4352-.367-1.4868-6.2459-.7254-6.1411Z" style="fill:none; stroke:#a6abb0; stroke-miterlimit:10; stroke-width:.5px;"/><path d="m89.3989,77.7085c-4.8041-3.9097-9.8973-6.3074-14.7887-6.8422-1.0622-.1161-1.9378.842-1.8527,2.0244.1026,1.4254.5055,3.2194,1.0662,4.4318.27.5838.7892.9564,1.3714,1.0352,3.7998.5139,7.7319,2.3525,11.4715,5.2837.8424.6603,2.012.3417,2.4645-.6628.4618-1.0252.8198-2.3585.9667-3.4366.0951-.6983-.1789-1.4103-.6989-1.8335Z" style="fill:none; stroke:#a6abb0; stroke-miterlimit:10; stroke-width:.5px;"/><path d="m62.2796,123.381c2.8979,6.6632,6.9002,13.0075,12.4739,17.7302,5.2096,4.5826,13.2331,7.9977,19.7158,4.15,6.3692-3.7212,8.4714-11.6887,8.7851-18.6467.3456-14.2864-5.5089-29.2748-16.1417-38.9485-7.887-7.0992-19.0953-8.9812-25.1448,1.3336-5.6314,10.5832-3.7732,23.5417.3114,34.3813-4.3689-10.806-6.5263-23.9412-.8891-34.7131.7924-1.3855,1.8406-2.739,2.9481-3.8901.3431-.3197,1.2598-1.0387,1.6151-1.3583,1.9498-1.3186,4.1829-2.2452,6.5402-2.4352,5.6495-.4804,11.0691,2.3944,15.2145,5.9939,13.3949,11.7215,21.608,36.5766,12.987,53.0175-.805,1.3882-1.8741,2.7307-3.0004,3.8735-.3608.3096-1.2651,1.0299-1.6346,1.3411-2.7176,1.8402-6.088,2.7454-9.3545,2.2907-12.0234-1.7109-20.1316-13.6766-24.426-24.12h0Z" style="fill:#a6abb0; stroke-width:0px;"/><ellipse cx="83.7591" cy="112.9728" rx="14.5669" ry="24.0827" transform="translate(-33.7273 35.6722) rotate(-20.1033)" style="fill:none; stroke:#a6abb0; stroke-miterlimit:10; stroke-width:.5px;"/><ellipse cx="82.7218" cy="113.4754" rx="4.4726" ry="7.3944" transform="translate(-33.9632 35.3462) rotate(-20.1033)" style="fill:none; stroke:#a6abb0; stroke-miterlimit:10;"/><path d="m75.3978,103.9417c-.0922.0916-.2074.163-.3239.2231-1.1112.5369-2.6414-.5526-3.4102-2.4352-.623-1.5212-.5601-3.0797.0626-3.9135" style="fill:none; stroke:#a6abb0; stroke-miterlimit:10;"/><path d="m71.2855,106.5629c2.077,1.583,3.7667.0364,3.7252-2.2972.1392-2.0898-1.786-6.9717-4.4061-5.7652-2.1485,1.9213-1.0546,6.0834.6808,8.0623-2.0742-1.6227-3.1248-4.7842-2.281-7.3806.3515-1.1764,1.6719-2.1822,2.9477-1.8096,2.8128.8761,4.0077,4.2428,3.8232,6.9377-.1169,2.5286-2.4041,4.5041-4.4897,2.2525h0Z" style="fill:#a6abb0; stroke-width:0px;"/><path d="m87.0114,98.6258c-.0922.0916-.2074.163-.3239.2231-1.1112.5369-2.6414-.5526-3.4102-2.4352-.623-1.5212-.5601-3.0797.0626-3.9135" style="fill:none; stroke:#a6abb0; stroke-miterlimit:10;"/><path d="m83.5782,101.7328c3.7687,1.3246,3.4696-4.3581,2.1765-6.3954-.6741-1.4424-2.6665-3.4271-4.0001-1.6888-1.4418,2.4935-.432,6.3076,1.8234,8.0843-.9786-.4281-1.7084-1.3002-2.2624-2.2171-1.2434-2.2141-1.902-6.4919,1.2146-7.4894,4.0947-.3292,6.0948,6.362,4.0179,9.2649-.678.9452-2.0755,1.1526-2.97.4415h0Z" style="fill:#a6abb0; stroke-width:0px;"/><path d="m97.551,115.9104c-.0922.0916-.2074.163-.3239.2231-1.1112.5369-2.6414-.5526-3.4102-2.4352-.623-1.5212-.5601-3.0797.0626-3.9135" style="fill:none; stroke:#a6abb0; stroke-miterlimit:10;"/><path d="m93.5217,118.6032c2.136,1.5371,3.7293-.192,3.6451-2.4716.1236-2.0991-1.9336-7-4.4771-5.6149-2.05,2.0227-.9689,6.1187.8319,8.0865-2.1164-1.5805-3.1803-4.7292-2.4049-7.3377.3202-1.1719,1.5585-2.2593,2.8575-1.95,2.8833.7525,4.1019,4.2104,3.9579,6.8478-.0665,2.4775-2.2582,4.6333-4.4102,2.44h0Z" style="fill:#a6abb0; stroke-width:0px;"/><path d="m91.8905,130.1785c-.0922.0916-.2074.163-.3239.2231-1.1112.5369-2.6414-.5526-3.4102-2.4352-.623-1.5212-.5601-3.0797.0626-3.9135" style="fill:none; stroke:#a6abb0; stroke-miterlimit:10;"/><path d="m87.752,132.7763c2.0559,1.5968,3.7784.109,3.7502-2.2407.1442-2.1007-1.749-6.9593-4.3831-5.8136-2.1783,1.8921-1.0832,6.0702.6328,8.0543-2.3451-1.8299-3.8315-6.593-1.1473-8.8491.5352-.3873,1.2727-.4585,1.8824-.3091,2.7935.921,3.9779,4.2663,3.7796,6.9664-.1324,2.5446-2.4526,4.4609-4.5145,2.1919h0Z" style="fill:#a6abb0; stroke-width:0px;"/><path d="m79.1534,122.4659c-.0922.0916-.2074.163-.3239.2231-1.1112.5369-2.6414-.5526-3.4102-2.4352-.623-1.5212-.5601-3.0797.0626-3.9135" style="fill:none; stroke:#a6abb0; stroke-miterlimit:10;"/><path d="m74.5599,124.5959c1.6945,1.731,3.8391,1.3792,4.1291-1.1699.3102-2.3534-1.0729-6.6732-3.8643-6.6061-2.6803,1.0267-1.6413,5.8932-.2649,7.7759-1.812-1.8367-2.8051-5.1286-1.4407-7.5811.6113-1.1385,2.273-1.5031,3.3468-.828,2.8375,1.7218,4.0723,6.0797,2.3096,8.9414-1.1384,1.6891-3.2972.9491-4.2156-.5322h0Z" style="fill:#a6abb0; stroke-width:0px;"/><path d="m89.5277,65.6032c-3.4829-2.1048-7.0268-3.5203-10.5056-4.1562-.8423-.154-1.5498-.7964-1.7946-1.7081-.6085-2.2659-1.6986-6.562-1.9116-9.0071-.0124-.142-.0118-.2699-.0024-.4116.0374-.5617.1612-2.1323.4548-3.6063.2329-1.169,1.2072-1.9393,2.2853-1.8054,2.5341.3147,7.7158,1.4169,14.7186,5.2543.6333.3471,1.0775,1.0258,1.1898,1.7965.1924,1.3204.4761,3.4186.5642,4.8629.0173.2838-.0182.564-.0943.8333l-1.8775,6.6417c-.3966,1.4031-1.8456,2.0197-3.0267,1.3059Z" style="fill:none; stroke:#a6abb0; stroke-miterlimit:10;"/><path d="m112.0764,91.9743c-2.7792-5.6287-6.0402-10.6455-9.5946-14.916-.5466-.6568-.7371-1.5777-.4803-2.4085l2.4121-7.8044c.1571-.5084.4658-.9365.8775-1.2154s.966-.6533,1.484-1c.8388-.5613,1.9265-.4025,2.6273.3909,3.2126,3.6376,8.9615,10.6668,13.2086,20.2545.2499.5642.2921,1.2138.115,1.8007-.2691.8919-.7651,2.2593-1.5459,3.4393-.2476.3743-.6161.6282-1.0176.7645l-5.5495,1.8839c-.9791.3324-2.0359-.1757-2.5365-1.1895Z" style="fill:none; stroke:#a6abb0; stroke-miterlimit:10;"/><path d="m120.7477,128.2097c.0624-5.5201-.5791-11.4126-1.9598-17.428-.2739-1.1935.275-2.4029,1.3076-2.8052,1.0616-.4136,2.632-.9489,4.8086-1.5137.3114-.0808.6461-.085.9607-.0034.7962.2065,2.4363.712,4.0324,1.6952.5343.3291.9262.8833,1.077,1.5384.6768,2.9412,2.5693,12.2136,2.1982,22.5346-.039,1.0843-.7587,1.9761-1.7179,2.1589-.7899.1505-1.7401.2847-2.5485.2649-.3775-.0092-.7453-.1269-1.0731-.3432l-6.0167-3.9698c-.6778-.4472-1.0781-1.2615-1.0683-2.1287Z" style="fill:none; stroke:#a6abb0; stroke-miterlimit:10;"/><path d="m118.0976,144.561c-1.2408,3.5355-2.9081,6.6588-4.9837,9.2417-.5993.7458-.6676,1.8542-.2002,2.7337,1.0132,1.9066,2.6783,5.0141,3.2762,5.9797.0886.1431.1824.2629.2963.382.3501.3664,1.266,1.2999,2.2112,2.0582.8206.6582,1.9292.5984,2.6613-.1423,1.7822-1.8033,5.2005-5.7726,7.4749-11.6154.2706-.6952.1966-1.5084-.1681-2.1649l-2.1046-3.7884c-.1903-.3425-.4541-.6281-.767-.8303l-4.6669-3.0158c-1.138-.7354-2.5593-.1778-3.0294,1.1618Z" style="fill:none; stroke:#a6abb0; stroke-miterlimit:10;"/><path d="m105.0491,160.091c-2.7992,1.2188-5.771,1.7316-8.8258,1.6024-1.3211-.0559-2.3687,1.1596-2.196,2.62l.406,3.4321c.0346.2923.1147.5705.2421.8314.3128.6409.9578,1.9342,1.5286,2.8993.3351.5666.8569.9494,1.4538,1.0652,1.4825.2877,4.8112.6532,10.1735-.2345,1.0515-.1741,1.8069-1.2008,1.7648-2.3868-.0194-.545-.0413-1.1807-.0642-1.8847" style="fill:none; stroke:#a6abb0; stroke-miterlimit:10;"/><path d="m68.6731,62.5714c-2.596.9595-5.0265,2.3388-7.0326,4.2651-.3318.2829-.7285.7628-1.0854,1.0122-1.2148.9528-3.0478.3771-3.7767-.8805,0,.0001-.4317-.5617-.4317-.5617-.5588-.7625-2.0464-2.6379-2.5899-3.3706-.8157-1.2695-1.2037-2.7357-1.5383-4.1931-.0804-.4768-.2092-.9481-.1716-1.5449.141-1.5627,1.4615-2.6674,2.3686-3.8379,2.0696-2.3474,4.5267-4.3832,7.298-5.8565,1.324-.7329,3.0555.2126,3.5289,1.4835.6551,1.2188,1.3688,2.5473,1.9291,3.8051,0,0-.5475.3069-.5475.3069-.7676-1.1331-1.5445-2.42-2.2273-3.6111-.4255-.9276-1.3002-1.5246-2.2353-1.081-3.4582,1.8658-6.4146,4.6216-8.6917,7.8137-.5241.7074-.4079,1.4504-.224,2.3131.293,1.2816.6613,2.6297,1.3504,3.7556.5398.7234,2.0376,2.6192,2.599,3.3637.2232.2579.6183.8446.8363,1.0513.5058.5185,1.3149.5945,1.8985.1669,2.4039-2.4045,5.2024-4.2331,8.4225-5.3469,0-.0001.3206.9471.3206.9471h0Z" style="fill:#a6abb0; stroke-width:0px;"/><path d="m73.6856,151.7537l-.9321,2.644c-.0655.1859-.1101.3784-.1301.5779-.0558.5552-.1494,1.7745-.0367,2.8875.0641.633.3876,1.1991.8498,1.5847,1.7242,1.4384,6.4389,5.3024,9.8958,7.4825,1.213.765,2.7053.0885,3.0826-1.3789.1544-.6006.2909-1.3391.3836-2.2434" style="fill:none; stroke:#a6abb0; stroke-miterlimit:10;"/><path d="m56.7107,128.1337s-1.1023,1.8976-1.6531,3.7869c-.1792.6147-.0972,1.2909.1949,1.8619,1.171,2.289,4.5267,8.6817,7.4555,12.6552.7487,1.0157,2.0757,1.1793,2.981.3815.4677-.4122,1.0158-1.012,1.6449-1.8791" style="fill:none; stroke:#a6abb0; stroke-miterlimit:10;"/><path d="m53.8228,118.9686l-1.1878.7264c-.5716.3495-1.2592.3793-1.8701.0899-.6953-.3293-1.5248-.8586-1.7939-1.5894-.442-1.2007-3.1916-11.1695-3.8606-15.4631-.1379-.8848.1874-1.7657.8388-2.2745.3635-.2839.8393-.5712,1.4453-.7874" style="fill:none; stroke:#a6abb0; stroke-miterlimit:10;"/><path d="m50.3648,91.7577c-1.4944-.6593-3.1366-1.0941-4.4803-2.0626-.5496-.5475-.9724-1.2023-1.3696-1.8295-.5395-.8891-1.2899-1.9472-1.1273-3.0928.4105-4.4605.9236-8.9285,1.9713-13.295.1761-1.7454,2.1768-3.2767,3.7388-1.9965,0,0-.3.532-.3.532-1.8773-.5256-2.4087,1.0357-2.6474,2.5362-.8724,4.0476-1.3379,8.1858-1.693,12.3126-.1025.9318.5232,1.621.9801,2.4282.5715.9149,1.1039,1.8347,2.1545,2.183,1.0224.4783,2.086.9223,3.1415,1.3548l-.3687.9296h0Z" style="fill:#a6abb0; stroke-width:0px;"/><path d="m78.0549,71.5394c-.5117.1304-.8387.7325-.5678,1.6764s.6419,2.7336,1.9573,2.8554c1.3153.1218,5.9694,1.9842,7.9563,3.5191,1.9869,1.5349,1.2832-2.4506,1.2832-2.4506" style="fill:none; stroke:#a6abb0; stroke-miterlimit:10; stroke-width:.5px;"/><path d="m96.0127,84.2857c-.3028,1.1337-.4196,2.3911.6236,3.8037s5.4678,8.0683,6.5691,10.4211c1.1013,2.3527,2.361,1.2881,2.361,1.2881" style="fill:none; stroke:#a6abb0; stroke-miterlimit:10; stroke-width:.5px;"/><path d="m109.3884,110.5055c-.7217-.1667-1.8486-.2668-1.3867,1.3939s1.5274,9.3753,1.6007,11.7639c0,0,.0648,2.4142,2.1588,3.3466" style="fill:none; stroke:#a6abb0; stroke-miterlimit:10; stroke-width:.5px;"/><path d="m106.982,136.9459c-.4225,1.5904-1.6581,4.6115-2.7439,6.4305,0,0-.8318,1.0481.3176,2.6846,1.1494,1.6365,1.8897,1.3864,2.5545.4978s3.4178-6.3068,3.5961-7.1754-.3716-1.7015-1.3682-2.2704-2.1501-.8599-2.3561-.1671Z" style="fill:none; stroke:#a6abb0; stroke-miterlimit:10; stroke-width:.5px;"/><path d="m88.9661,151.6815c.0327,1.1216.4928,3.4404,1.6018,3.6133,1.109.1729,5.7547.1696,8.4815-1.0187,0,0,.6916-.2911.6345-1.4085" style="fill:none; stroke:#a6abb0; stroke-miterlimit:10; stroke-width:.5px;"/><path d="m74.0851,144.5202c-.1579,1.1728-.4044,1.5579.5974,2.6203s6.1612,4.7283,8.2376,5.8971c0,0,.7563.6186,1.3444-.1631" style="fill:none; stroke:#a6abb0; stroke-miterlimit:10; stroke-width:.5px;"/><path d="m55.3016,104.8179s.2608,7.673,2.2773,13.9697c0,0,.399.9815,1.4036.5814" style="fill:none; stroke:#a6abb0; stroke-miterlimit:10; stroke-width:.5px;"/><path d="m57.7859,84.1239s-.9592.2717-1.1525,1.3311-1.2878,6.5498-1.1944,8.048.4497,2.8951,1.0736,3.2537" style="fill:none; stroke:#a6abb0; stroke-miterlimit:10; stroke-width:.5px;"/><path d="m64.6229,80.2528c-.4621.3817-2.8207-2.4993-1.9538-3.6996s4.3309-3.5626,5.3096-4.0424,1.7064-.1667,1.9326,1.4107.7336,3.1734-.3994,3.6957c-1.1329.5223-4.1419,1.7458-4.8891,2.6356Z" style="fill:none; stroke:#a6abb0; stroke-miterlimit:10; stroke-width:.5px;"/><line x1="96.7084" y1="75.5208" x2="101.9168" y2="75.7506" style="fill:none; stroke:#a6abb0; stroke-miterlimit:10; stroke-width:.5px;"/><line x1="113.5683" y1="93.2106" x2="112.5605" y2="100.6469" style="fill:none; stroke:#a6abb0; stroke-miterlimit:10; stroke-width:.5px;"/><line x1="121.18" y1="90.5155" x2="123.596" y2="97.0548" style="fill:none; stroke:#a6abb0; stroke-miterlimit:10; stroke-width:.5px;"/><line x1="119.0538" y1="108.9041" x2="114.6748" y2="107.175" style="fill:none; stroke:#a6abb0; stroke-miterlimit:10; stroke-width:.5px;"/><line x1="121.004" y1="129.3846" x2="117.7075" y2="135.5458" style="fill:none; stroke:#a6abb0; stroke-miterlimit:10; stroke-width:.5px;"/><line x1="128.9059" y1="134.6513" x2="129.2389" y2="143.6739" style="fill:none; stroke:#a6abb0; stroke-miterlimit:10; stroke-width:.5px;"/><line x1="120.276" y1="165.378" x2="119.2706" y2="172.6908" style="fill:none; stroke:#a6abb0; stroke-miterlimit:10; stroke-width:.5px;"/><line x1="112.6522" y1="155.1348" x2="107.8113" y2="158.3326" style="fill:none; stroke:#a6abb0; stroke-miterlimit:10; stroke-width:.5px;"/><line x1="96.6479" y1="172.0127" x2="94.1935" y2="177.4408" style="fill:none; stroke:#a6abb0; stroke-miterlimit:10; stroke-width:.5px;"/><line x1="85.1581" y1="167.17" x2="86.1717" y2="173.3473" style="fill:none; stroke:#a6abb0; stroke-miterlimit:10; stroke-width:.5px;"/><line x1="72.5866" y1="157.8631" x2="68.3756" y2="160.0537" style="fill:none; stroke:#a6abb0; stroke-miterlimit:10; stroke-width:.5px;"/><line x1="63.6552" y1="147.1753" x2="63.382" y2="153.8545" style="fill:none; stroke:#a6abb0; stroke-miterlimit:10; stroke-width:.5px;"/><line x1="54.9836" y1="132.9138" x2="50.821" y2="133.2212" style="fill:none; stroke:#a6abb0; stroke-miterlimit:10; stroke-width:.5px;"/><line x1="50.7649" y1="119.7849" x2="48.6342" y2="125.159" style="fill:none; stroke:#a6abb0; stroke-miterlimit:10; stroke-width:.5px;"/><line x1="45.2114" y1="101.0337" x2="41.6454" y2="98.5608" style="fill:none; stroke:#a6abb0; stroke-miterlimit:10; stroke-width:.5px;"/><line x1="46.4958" y1="89.5054" x2="42.6203" y2="92.9651" style="fill:none; stroke:#a6abb0; stroke-miterlimit:10; stroke-width:.5px;"/><line x1="52.5855" y1="57.89" x2="47.8693" y2="57.9828" style="fill:none; stroke:#a6abb0; stroke-miterlimit:10; stroke-width:.5px;"/><line x1="75.316" y1="50.7318" x2="69.1158" y2="49.122" style="fill:none; stroke:#a6abb0; stroke-miterlimit:10; stroke-width:.5px;"/><line x1="77.4823" y1="60.3479" x2="72.7765" y2="63.3379" style="fill:none; stroke:#a6abb0; stroke-miterlimit:10; stroke-width:.5px;"/><line x1="91.2649" y1="65.7668" x2="92.2887" y2="70.8901" style="fill:none; stroke:#a6abb0; stroke-miterlimit:10; stroke-width:.5px;"/><line x1="105.291" y1="65.63" x2="100.4952" y2="61.6954" style="fill:none; stroke:#a6abb0; stroke-miterlimit:10; stroke-width:.5px;"/><line x1="94.5263" y1="56.8222" x2="96.9505" y2="57.7371" style="fill:none; stroke:#a6abb0; stroke-miterlimit:10; stroke-width:.5px;"/><line x1="58.2322" y1="67.5899" x2="55.8843" y2="73.9783" style="fill:none; stroke:#a6abb0; stroke-linecap:round; stroke-linejoin:round; stroke-width:.5px;"/><line x1="109.0954" y1="171.5251" x2="111.5515" y2="177.3118" style="fill:none; stroke:#a6abb0; stroke-miterlimit:10; stroke-width:.5px;"/><line x1="128.9556" y1="151.8627" x2="131.5811" y2="155.5252" style="fill:none; stroke:#a6abb0; stroke-miterlimit:10; stroke-width:.5px;"/><line x1="132.7672" y1="133.4836" x2="134.6994" y2="141.3045" style="fill:none; stroke:#a6abb0; stroke-miterlimit:10; stroke-width:.5px;"/><line x1="129.8972" y1="108.1546" x2="131.0375" y2="105.4589" style="fill:none; stroke:#a6abb0; stroke-miterlimit:10; stroke-width:.5px;"/><line x1="124.9041" y1="106.4628" x2="124.6399" y2="102.8813" style="fill:none; stroke:#a6abb0; stroke-miterlimit:10; stroke-width:.5px;"/><line x1="108.3461" y1="64.2234" x2="106.3818" y2="59.3446" style="fill:none; stroke:#a6abb0; stroke-miterlimit:10; stroke-width:.5px;"/><line x1="122.6109" y1="85.2754" x2="126.1162" y2="90.0232" style="fill:none; stroke:#a6abb0; stroke-miterlimit:10; stroke-width:.5px;"/><line x1="76.4748" y1="45.4362" x2="71.9111" y2="42.0334" style="fill:none; stroke:#a6abb0; stroke-miterlimit:10; stroke-width:.5px;"/><line x1="93.5501" y1="50.8854" x2="95.4662" y2="49.9685" style="fill:none; stroke:#a6abb0; stroke-miterlimit:10; stroke-width:.5px;"/><line x1="62.9418" y1="47.8211" x2="63.1843" y2="44.3703" style="fill:none; stroke:#a6abb0; stroke-miterlimit:10; stroke-width:.5px;"/><line x1="46.5287" y1="70.1161" x2="44.9557" y2="66.1673" style="fill:none; stroke:#a6abb0; stroke-miterlimit:10; stroke-width:.5px;"/><line x1="62.4964" y1="77.448" x2="57.6505" y2="79.2049" style="fill:none; stroke:#a6abb0; stroke-miterlimit:10; stroke-width:.5px;"/><line x1="79.4444" y1="76.0712" x2="75.1952" y2="78.3577" style="fill:none; stroke:#a6abb0; stroke-miterlimit:10; stroke-width:.5px;"/><line x1="96.0043" y1="86.8998" x2="91.9612" y2="88.6805" style="fill:none; stroke:#a6abb0; stroke-miterlimit:10; stroke-width:.5px;"/><line x1="104.3215" y1="99.893" x2="101.9449" y2="105.4993" style="fill:none; stroke:#a6abb0; stroke-miterlimit:10; stroke-width:.5px;"/><line x1="107.8611" y1="111.0494" x2="103.7266" y2="110.8119" style="fill:none; stroke:#a6abb0; stroke-miterlimit:10; stroke-width:.5px;"/><line x1="110.0551" y1="125.3421" x2="106.2786" y2="130.9965" style="fill:none; stroke:#a6abb0; stroke-miterlimit:10; stroke-width:.5px;"/><line x1="106.2231" y1="147.2433" x2="103.6116" y2="153.6681" style="fill:none; stroke:#a6abb0; stroke-miterlimit:10; stroke-width:.5px;"/><line x1="103.9658" y1="144.6656" x2="100.153" y2="147.0297" style="fill:none; stroke:#a6abb0; stroke-miterlimit:10; stroke-width:.5px;"/><line x1="90.5679" y1="155.2948" x2="87.2687" y2="157.6118" style="fill:none; stroke:#a6abb0; stroke-miterlimit:10; stroke-width:.5px;"/><line x1="74.6826" y1="147.1405" x2="71.6573" y2="147.6345" style="fill:none; stroke:#a6abb0; stroke-miterlimit:10; stroke-width:.5px;"/><line x1="57.5789" y1="118.7877" x2="56.7639" y2="123.4384" style="fill:none; stroke:#a6abb0; stroke-miterlimit:10; stroke-width:.5px;"/><line x1="55.4391" y1="93.503" x2="52.3477" y2="99.6755" style="fill:none; stroke:#a6abb0; stroke-miterlimit:10; stroke-width:.5px;"/><path d="m130.2512,91.6894c-.2171-.5539-.4386-1.1076-.6646-1.6609-2.9415-7.2033-6.4252-13.8375-10.2939-19.7904" style="fill:none; stroke:#a6abb0; stroke-miterlimit:10; stroke-width:.5px;"/><path d="m130.2695,166.6518c10.1735-17.3753,10.5873-46.2549-.4795-74.49" style="fill:none; stroke:#a6abb0; stroke-miterlimit:10; stroke-width:.5px;"/><path d="m122.0459,177.7728c3.5459-2.6777,6.3352-6.0214,8.7788-10.1949" style="fill:none; stroke:#a6abb0; stroke-miterlimit:10; stroke-width:.5px;"/><path d="m74.9813,170.4894c13.7013,11.4482,28.883,15.5778,41.4715,9.4778,1.7033-.8254,3.3107-1.8146,4.8204-2.9546" style="fill:none; stroke:#a6abb0; stroke-miterlimit:10; stroke-width:.5px;"/><path d="m65.7047,161.9045c2.9777,3.4215,6.087,6.4831,9.2766,9.1482" style="fill:none; stroke:#a6abb0; stroke-miterlimit:10; stroke-width:.5px;"/><path d="m40.7289,110.4184c1.4575,6.5745,3.5298,13.2582,6.2392,19.8931,4.9568,12.1382,11.453,22.6606,18.7366,31.0298" style="fill:none; stroke:#a6abb0; stroke-miterlimit:10; stroke-width:.5px;"/><path d="m37.8266,95.4925c.4066,4.8133,1.1603,9.7601,2.271,14.7704" style="fill:none; stroke:#a6abb0; stroke-miterlimit:10; stroke-width:.5px;"/><path d="m50.226,48.0579c-9.2828,10.4305-13.4319,27.8928-11.7681,47.5901" style="fill:none; stroke:#a6abb0; stroke-miterlimit:10; stroke-width:.5px;"/><path d="m59.4315,40.3305c-3.5637,1.7268-6.7076,4.1707-9.4148,7.2127" style="fill:none; stroke:#a6abb0; stroke-miterlimit:10; stroke-width:.5px;"/><path d="m118.8315,70.7105c-16.7642-25.7959-40.7575-38.7975-59.1908-29.8653" style="fill:none; stroke:#a6abb0; stroke-miterlimit:10; stroke-width:.5px;"/><ellipse cx="89.8467" cy="109.534" rx="49.674" ry="82.1233" transform="translate(-32.1744 37.555) rotate(-20.1033)" style="fill:none; stroke:#a6abb0; stroke-miterlimit:10;"/><path d="m109.9414,100.2858c-5.9772-13.9082-16.1533-28.3814-31.2109-33.0339-18.3246-4.9437-27.3308,12.6321-27.6355,28.3938-.5106,20.3508,7.9878,42.1584,23.1823,55.8956,13.0657,11.7329,30.4573,12.4866,37.9789-5.4779,5.7424-14.6787,3.2681-31.3853-2.3147-45.7776,5.822,14.3376,8.6312,31.1815,2.8511,46.0006-7.6046,18.4269-25.576,17.8776-39.0606,5.8847-15.6583-14.0496-24.0678-35.6612-23.4671-56.5611.4065-16.2016,9.8363-34.0624,28.6214-28.9155,15.2981,4.7852,25.1967,19.4334,31.055,33.5913h0Z" style="fill:#a6abb0; stroke-width:0px;"/><line x1="48.7301" y1="41.2789" x2="50.226" y2="48.0579" style="fill:none; stroke:#a6abb0; stroke-linecap:round; stroke-linejoin:bevel; stroke-width:.5px;"/><line x1="56.9499" y1="34.5938" x2="59.6408" y2="40.8452" style="fill:none; stroke:#a6abb0; stroke-linecap:round; stroke-linejoin:bevel; stroke-width:.5px;"/><line x1="124.8661" y1="67.8589" x2="118.7179" y2="70.4642" style="fill:none; stroke:#a6abb0; stroke-linecap:round; stroke-linejoin:bevel; stroke-width:.5px;"/><line x1="134.0096" y1="86.1644" x2="129.8003" y2="92.1901" style="fill:none; stroke:#a6abb0; stroke-linecap:round; stroke-linejoin:bevel; stroke-width:.5px;"/><line x1="134.4778" y1="173.2689" x2="130.2695" y2="166.6518" style="fill:none; stroke:#a6abb0; stroke-linecap:round; stroke-linejoin:bevel; stroke-width:.5px;"/><line x1="126.4058" y1="182.0279" x2="121.272" y2="177.0113" style="fill:none; stroke:#a6abb0; stroke-linecap:round; stroke-linejoin:bevel; stroke-width:.5px;"/><line x1="73.5209" y1="173.3425" x2="75.0453" y2="170.5417" style="fill:none; stroke:#a6abb0; stroke-linecap:round; stroke-linejoin:bevel; stroke-width:.5px;"/><line x1="66.1088" y1="165.881" x2="65.7047" y2="161.3413" style="fill:none; stroke:#a6abb0; stroke-linecap:round; stroke-linejoin:bevel; stroke-width:.5px;"/><line x1="38.0594" y1="108.9481" x2="40.7681" y2="110.5921" style="fill:none; stroke:#a6abb0; stroke-linecap:round; stroke-linejoin:bevel; stroke-width:.5px;"/><line x1="35.9129" y1="95.566" x2="38.4656" y2="95.73" style="fill:none; stroke:#a6abb0; stroke-linecap:round; stroke-linejoin:bevel; stroke-width:.5px;"/><path d="m138.4436,148.1524c2.9365.164,5.8666-.8919,8.6295-1.771-2.5109,1.5207-5.7127,2.6314-8.6295,1.771h0Z" style="fill:#30373e; stroke-width:0px;"/><path d="m130.6142,140.4034h0l-1.8743,6.3639.3999,4.4981c.711,1.5877,4.3788,3.7594,4.3788,3.7594l1.4674,2.7984c.3105,3.8589-1.0222,4.4476-1.9565,10.9873-.6566,4.5652,3.0607,10.5617,4.2908,12.3318,1.4874,2.0851,2.844,4.2583,4.0597,6.5129,1.3799,2.4574,12.4026,21.1827,18.395,31.353l-7.1386,8.0932c4.1615-.3287,10.3424,10.5471,21.2258,13.2342l12.3614-17.5006c1.2173-1.7909,1.133-4.1639-.2211-5.856-3.5761-4.6684-2.6757-6.5956-8.3198-15.0686-8.6-10.9309-20.8739-17.1939-29.8292-28.192l-.3567-18.7604-4.2434-9.925-4.9352-4.6784-4.2104-1.6576c-2.2272-1.0402-3.1105.6471-3.4935,1.7064Z" style="fill:#f4f4f4; stroke-width:0px;"/><path d="m130.6917,139.6031c-.0589,1.5746.7619,2.2214,5.3556,4.3205l1.6759,2.1218" style="fill:none; stroke:#30373e; stroke-linecap:round; stroke-linejoin:round;"/><path d="m129.5893,143.044c.0157.6691.4602,2.508,4.7057,4.2392l3.232,4.8688,1.2656,3.2372" style="fill:none; stroke:#30373e; stroke-linecap:round; stroke-linejoin:round;"/><path d="m129.1155,146.6903c.0157.6691.5235,2.8024,4.769,4.5335l3.232,4.8688.852,2.1795" style="fill:none; stroke:#30373e; stroke-linecap:round; stroke-linejoin:round;"/><path d="m138.8524,170.8506c-1.135-1.8721-2.4149-4.8854-1.9403-7.9806.4608-2.4831,1.0911-4.9317,1.8865-7.3286-.0288-1.0262-.3304-2.0262-.8736-2.8973-.4659-.7499-.9677-1.5581-1.0268-1.6715-1.843-3.5116.8932-6.751,2.4624-3.7811.9515,1.8006,3.0852,4.0591,3.5011,5.2112s1.3479,5.1856,1.3479,5.1856" style="fill:none; stroke:#30373e; stroke-linecap:round; stroke-linejoin:round;"/><path d="m128.5082,150.3288c.8566,1.9191,5.0083,4.6976,5.0083,4.6976l1.4695,2.7994c.3081,3.8608-1.0223,4.4472-1.9579,10.9819-.6525,4.5658,3.0643,10.5628,4.2884,12.3347,1.488,2.0833,2.8437,4.2581,4.0589,6.5115,1.3826,2.4606,12.4097,21.184,18.4026,31.3514l-7.1421,8.0927" style="fill:none; stroke:#30373e; stroke-linecap:round; stroke-linejoin:round; stroke-width:1.5px;"/><path d="m173.8658,240.3342l12.3564-17.5015c1.2205-1.7862,1.1304-4.1603-.2221-5.8488-3.575-4.6715-2.676-6.5988-8.3164-15.074-8.5994-10.9321-20.8768-17.197-29.828-28.194l-.3587-18.7542-4.2478-9.9289-4.9272-4.6782-4.2171-1.6596c-1.981-.8953-3.2958.0686-3.4942,1.7073" style="fill:none; stroke:#30373e; stroke-linecap:round; stroke-linejoin:round; stroke-width:1.5px;"/><path d="m130.6917,139.6031c-.0589,1.5746.7619,2.2214,5.3556,4.3205l1.6759,2.1218" style="fill:none; stroke:#30373e; stroke-linecap:round; stroke-linejoin:round;"/><path d="m129.5893,143.044c.0157.6691.4602,2.508,4.7057,4.2392l3.232,4.8688,1.2656,3.2372" style="fill:none; stroke:#30373e; stroke-linecap:round; stroke-linejoin:round;"/><path d="m128.8036,146.3602c.0157.6691.8354,3.1325,5.0809,4.8636l3.232,4.8688.852,2.1795" style="fill:none; stroke:#30373e; stroke-linecap:round; stroke-linejoin:round;"/><path d="m138.8524,170.8506c-1.135-1.8721-2.4149-4.8854-1.9403-7.9806.4608-2.4831,1.0911-4.9317,1.8865-7.3286-.0288-1.0262-.3304-2.0262-.8736-2.8973-.4659-.7499-.9677-1.5581-1.0268-1.6715-1.843-3.5116.8932-6.751,2.4624-3.7811.9515,1.8006,3.0852,4.0591,3.5011,5.2112s1.3479,5.1856,1.3479,5.1856" style="fill:none; stroke:#30373e; stroke-linecap:round; stroke-linejoin:round;"/><path d="m126.5453,170.4954l-2.2971-3.8163.3194-.5767c9.7432-17.5571,9.5404-46.4124-.5172-73.513l-.2028-.5483,2.714-4.0991c-2.5458-6.4-5.483-12.3499-8.7141-17.7819l-2.8457,1.2737-.8224.574-.5709-.9223c-12.395-20.0093-28.5887-31.9553-43.3182-31.9553-4.0046,0-7.8124.9105-11.3191,2.7058l-.9735.4991-1.3455-3.2848c-2.451,1.5624-4.6725,3.5178-6.6614,5.8136l.735,3.5076-.3519.4167c-8.4949,10.0608-12.469,27.1081-10.9043,46.7719l.0041.1225v1.2245l-1.101-.0815c.4063,4.0168,1.0408,8.1156,1.8897,12.2573l.6522.417h.5557l.1805.8586c1.3751,6.543,3.3312,13.1186,5.8137,19.5429,4.4923,11.5919,10.5707,22.2155,17.58,30.7223l.2211.2691.1822,2.1519c2.169,2.5777,4.4052,4.9491,6.691,7.1025l.6695-1.3002.9745.857c8.9117,7.8365,18.1823,11.9792,26.809,11.9792,4.0025,0,7.8094-.9089,11.3171-2.7031,1.5231-.7719,2.9996-1.7284,4.3919-2.8427l.7159-.574,1.3741,1.4289,1.2559,1.2918c2.6038-2.1357,4.9103-4.7496,6.8984-7.7883Zm-27.73-10.9168c-2.52,1.2887-5.2529,1.9419-8.1227,1.9419-13.3756,0-28.2653-14.3421-36.2095-34.8772-9.8781-25.5236-6.1372-52.3081,8.3377-59.707,2.519-1.2882,5.2499-1.9413,8.1197-1.9413,13.3736,0,28.2653,14.3421,36.2125,34.8767,9.8781,25.5236,6.1372,52.3081-8.3377,59.707Zm21.8315,5.9477s-2.8179,3.6074-3.5023,4.2998c-.6844.6923-2.4783-1.4115-2.4783-1.4115l-2.8307-3.5943,4.0382-5.4175c.5746.6706,4.3132,4.7583,4.7116,5.2475.3984.4892.0615.876.0615.876Z" style="fill:#cfd2d4; stroke:#30373e; stroke-miterlimit:10; stroke-width:1.5px;"/><path d="m119.601,160.9005c8.0881-15.8636,8.0234-41.5428-1.616-66.4475-13.2143-34.1408-39.4178-53.8976-58.5273-44.128-19.1095,9.7696-23.8885,45.3661-10.6743,79.5069" style="fill:none; stroke:#30373e; stroke-miterlimit:10; stroke-width:.5px;"/><path d="m48.7835,129.8319c13.2143,34.1408,39.4178,53.8976,58.5273,44.128,1.5219-.778,2.9528-1.7199,4.2911-2.8118" style="fill:none; stroke:#30373e; stroke-miterlimit:10; stroke-width:.5px;"/><path d="m106.5392,152.5937l6.389,7.643s.7267.6097,1.641.663" style="fill:none; stroke:#30373e; stroke-miterlimit:10; stroke-width:.5px;"/><path d="m104.8915,154.9568l6.389,7.643s.7267.6097,1.641.663" style="fill:none; stroke:#30373e; stroke-miterlimit:10; stroke-width:.5px;"/><path d="m115.8737,159.4028l-4.0382,5.4175,2.8308,3.5942s1.7939,2.1039,2.4783,1.4115c.6844-.6923,3.5023-4.2998,3.5023-4.2998,0,0,.3369-.3868-.0615-.876s-4.1371-4.577-4.7116-5.2475Z" style="fill:none; stroke:#30373e; stroke-miterlimit:10;"/><path d="m112.7286,159.9962c.394-.5391.764-1.0438,1.0836-1.476.537-.7311,1.5038-.8303,2.0362-.2155,1.0802,1.2466,2.7413,3.1555,3.5479,4.0469.8521.9365,2.205,2.5008,2.9917,3.4141.3531.4103.3307,1.0732-.0457,1.5414l-4.4926,5.5784c-.3571.4406-.931.5745-1.3673.3225-1.9162-1.1009-3.5693-2.5662-3.5693-2.5662-1.0261-1.0316-2.6183-3.2994-3.455-4.5247-.3336-.4903-.3019-1.199.0814-1.7357.3905-.5471.9216-1.2827,1.4964-2.0747" style="fill:none; stroke:#30373e; stroke-miterlimit:10; stroke-width:.5px;"/><line x1="116.63" y1="169.9454" x2="117.1415" y2="173.3147" style="fill:none; stroke:#30373e; stroke-miterlimit:10; stroke-width:.5px;"/><line x1="111.8354" y1="164.8203" x2="109.2341" y2="165.3979" style="fill:none; stroke:#30373e; stroke-miterlimit:10; stroke-width:.5px;"/><line x1="120.7792" y1="165.1292" x2="122.5959" y2="166.1759" style="fill:none; stroke:#30373e; stroke-miterlimit:10; stroke-width:.5px;"/><line x1="115.8737" y1="159.4028" x2="115.4786" y2="158.0188" style="fill:none; stroke:#30373e; stroke-miterlimit:10; stroke-width:.5px;"/><line x1="113.0701" y1="160.9569" x2="111.9001" y2="162.5258" style="fill:none; stroke:#30373e; stroke-miterlimit:10; stroke-width:.5px;"/><path d="m118.6833,69.739l-4.5038,2.2685c4.0964,6.7785,7.3825,13.4635,9.6682,20.0334l3.3494-5.0587s-3.6114-8.9704-8.5138-17.2432Z" style="fill:#f4ae3d; stroke:#30373e; stroke-miterlimit:10; stroke-width:1.5px;"/><path d="m117.0169,175.563s5.0087-4.4496,7.2314-8.8839l2.2971,3.8163s-3.0447,4.8439-6.8984,7.7883l-2.63-2.7207Z" style="fill:#f4ae3d; stroke:#30373e; stroke-miterlimit:10; stroke-width:1.5px;"/><path d="m65.0754,158.6435c2.5117,3.1011,5.3993,5.9596,8.5257,8.6637l-1.4622,2.8397-6.691-7.1025-.3725-4.4009Z" style="fill:#f4ae3d; stroke:#30373e; stroke-miterlimit:10; stroke-width:1.5px;"/><path d="m38.0987,96.8254s.848,7.7404,1.8897,12.2573l2.6246,1.1802s-1.3559-9.8553-1.5744-12.9976l-2.9399-.4399Z" style="fill:#f4ae3d; stroke:#30373e; stroke-miterlimit:10; stroke-width:1.5px;"/><path d="m49.8987,44.4234c1.6904-1.8121,3.9603-3.5643,6.7536-5.3733l1.3455,3.2848s-5.4477,3.7442-7.2719,6.0364l-.8273-3.9479Z" style="fill:#f4ae3d; stroke:#30373e; stroke-miterlimit:10; stroke-width:1.5px;"/></g><g id="uuid-36c83bd8-a487-40e0-befa-bcaaca7837a4"><polygon points="99.1343 81.4682 100.6557 85.6716 113.2732 80.0309 117.0439 88.1546 103.7139 94.1208 105.2352 98.3237 91.6944 94.0211 99.1343 81.4682" style="fill:#f4ae3d; stroke:#f4f4f4; stroke-miterlimit:10; stroke-width:1.5px;"/><polygon points="108.9954 141.1859 110.5169 145.3894 123.1343 139.7486 126.9051 147.8723 113.5751 153.8385 115.0963 158.0414 101.5555 153.7389 108.9954 141.1859" style="fill:#f4ae3d; stroke:#f4f4f4; stroke-miterlimit:10; stroke-width:1.5px;"/><polygon points="29.2906 46.6634 30.812 50.8669 43.4294 45.2261 47.2002 53.3498 33.8702 59.316 35.3915 63.5189 21.8507 59.2164 29.2906 46.6634" style="fill:#f4ae3d; stroke:#f4f4f4; stroke-miterlimit:10; stroke-width:1.5px;"/><polygon points="17.9339 101.8249 19.4554 106.0284 32.0728 100.3876 35.8435 108.5113 22.5136 114.4775 24.0348 118.6804 10.494 114.3779 17.9339 101.8249" style="fill:#f4ae3d; stroke:#f4f4f4; stroke-miterlimit:10; stroke-width:1.5px;"/><polygon points="45.3817 165.1571 46.9031 169.3606 59.5206 163.7198 63.2913 171.8436 49.9614 177.8098 51.4826 182.0127 37.9418 177.7101 45.3817 165.1571" style="fill:#f4ae3d; stroke:#f4f4f4; stroke-miterlimit:10; stroke-width:1.5px;"/></g></svg>