<svg xmlns="http://www.w3.org/2000/svg" width="12" height="12" viewBox="0 0 12 12"><g id="ec73b98d-9081-4734-858a-6b9dbf3b63c9" data-name="below"><circle cx="6" cy="6" r="6" style="fill:#30373e"/></g><g id="b19dc53b-9cbf-4887-8e36-1fd8323a1338" data-name="illustration"><path d="M6.578,9.364H5.419L5.3,8.627a.469.469,0,0,0-.26-.3.462.462,0,0,0-.4.029l-.607.434-.821-.82.435-.608a.465.465,0,0,0,.029-.4.469.469,0,0,0-.3-.26l-.737-.123V5.42L3.373,5.3a.469.469,0,0,0,.3-.26.462.462,0,0,0-.029-.4l-.435-.608.821-.82.607.434a.462.462,0,0,0,.4.029.475.475,0,0,0,.261-.3l.122-.738H6.58l.122.738a.469.469,0,0,0,.261.3.462.462,0,0,0,.4-.029l.607-.435.82.819-.434.609a.465.465,0,0,0-.029.4.469.469,0,0,0,.3.26l.737.122V6.578L8.627,6.7a.443.443,0,0,0-.274.658l.435.608-.819.82-.608-.434a.461.461,0,0,0-.4-.029.475.475,0,0,0-.262.3ZM5.73,9h.537l.071-.43A.809.809,0,0,1,7.57,8.054l.356.255.38-.381-.254-.356A.809.809,0,0,1,8.564,6.34l.43-.071V5.732l-.43-.072a.809.809,0,0,1-.512-1.232l.254-.356-.38-.379-.356.254a.808.808,0,0,1-1.232-.511l-.07-.43H5.73l-.071.43a.809.809,0,0,1-1.233.512l-.354-.254-.381.379.255.356a.809.809,0,0,1-.513,1.232L3,5.733V6.27l.43.071a.81.81,0,0,1,.513,1.233l-.255.355.381.38.354-.255a.81.81,0,0,1,1.233.513ZM6,7.509A1.508,1.508,0,1,1,7.506,6,1.509,1.509,0,0,1,6,7.509ZM6,4.86A1.141,1.141,0,1,0,7.14,6,1.142,1.142,0,0,0,6,4.86Z" style="fill:#f4f4f4"/></g></svg>
