<svg xmlns="http://www.w3.org/2000/svg" width="39" height="39" viewBox="0 0 39 39"><g id="b43fc6f0-675b-4171-aab9-f3028c652e2e" data-name="illustration"><path d="M17.75,8.0729c.471,1.9227-.3835,3.8181-1.9009,4.2289s-3.1333-.8107-3.599-2.7335c-.471-1.9227.3835-3.818,1.9009-4.2289S17.2787,6.15,17.75,8.0729ZM6.3613,12.8112c-1.2708.8819-1.4735,2.8868-.4546,4.47S8.788,19.434,10.0589,18.552s1.4736-2.8868.4547-4.47-2.8814-2.1528-4.1523-1.2709ZM21.1844,8.0729c-.4655,1.9172.3835,3.8071,1.8954,4.2179s3.1224-.8107,3.588-2.7279-.3835-3.8072-1.8954-4.218-3.1223.8107-3.588,2.728Zm7.313,5.9928c-1.0188,1.5831-.8162,3.577.4546,4.459s3.1224.3176,4.1413-1.2654.8162-3.5771-.4547-4.459-3.1224-.3123-4.1412,1.2654Zm-9.0768,1.8734c-4.2673,0-5.3245,3.8509-6.8254,5.6806C10.037,24.742,5.9834,27.4316,8.3279,31.551c2.4815,4.36,6.8254.86,11.0872.86h.1479c4.2672,0,8.6112,3.4511,11.0872-.9093,2.3444-4.1248-1.7037-6.7214-4.2673-9.8437-1.4845-1.8241-2.5472-5.7189-6.809-5.7189Z" style="fill:#30373e"/></g></svg>