<?xml version="1.0" encoding="UTF-8"?><svg id="uuid-ea5eae87-bdb5-443e-a4dd-3c096b9796a0" xmlns="http://www.w3.org/2000/svg" width="39" height="39" viewBox="0 0 39 39"><path d="M4.084,14.717h2.567l4.11,10.971h-2.276l-.871-2.353H3.09l-.871,2.353H-.012l4.095-10.971ZM6.895,21.425l-1.558-4.217-1.543,4.217h3.102Z" style="fill:#000001;"/><path d="M11.54,24.649c-.794-.794-1.192-1.91-1.192-3.346v-6.585h2.261v6.509c0,.866.194,1.523.581,1.971.387.449.947.672,1.681.672.743,0,1.309-.224,1.696-.672.387-.448.581-1.105.581-1.971v-6.509h2.246v6.585c0,1.437-.397,2.552-1.192,3.346-.794.794-1.905,1.192-3.331,1.192s-2.537-.397-3.331-1.192Z" style="fill:#000001;"/><path d="M23.433,16.658h-3.453v-1.94h9.137v1.94h-3.438v9.03h-2.246v-9.03Z" style="fill:#000001;"/><path d="M31.084,25.1c-.749-.504-1.314-1.187-1.696-2.047-.382-.861-.573-1.815-.573-2.865,0-1.08.196-2.045.588-2.896.392-.851.962-1.521,1.711-2.009.749-.489,1.643-.733,2.682-.733,1.06,0,1.963.252,2.712.756.749.504,1.311,1.184,1.688,2.04.377.856.565,1.803.565,2.842,0,1.069-.196,2.035-.588,2.896s-.962,1.538-1.711,2.032c-.749.494-1.638.741-2.667.741-1.06,0-1.963-.252-2.712-.756ZM35.27,23.48c.413-.27.731-.642.955-1.115.224-.474.351-1.016.382-1.627.01-.143.015-.321.015-.535s-.005-.392-.015-.535c-.031-.611-.161-1.156-.39-1.635-.229-.479-.55-.853-.962-1.123-.413-.27-.899-.405-1.459-.405-.57,0-1.064.138-1.482.413-.418.275-.739.652-.963,1.131-.224.479-.346,1.019-.367,1.62-.01.143-.015.321-.015.535s.005.392.015.535c.021.591.14,1.126.359,1.604.219.479.537.855.955,1.131.417.275.917.413,1.497.413.57,0,1.062-.135,1.475-.405Z" style="fill:#000001;"/></svg>