<?xml version="1.0" encoding="UTF-8"?><svg id="uuid-e90d4304-585f-42f5-8729-76bd33294718" xmlns="http://www.w3.org/2000/svg" width="39" height="39" viewBox="0 0 39 39"><path d="M28.919,28.142c-2.07,0-3.754-1.675-3.754-3.733s1.684-3.733,3.754-3.733,3.754,1.675,3.754,3.733-1.684,3.733-3.754,3.733ZM28.919,22.333c-1.156,0-2.096.931-2.096,2.076s.94,2.076,2.096,2.076,2.096-.931,2.096-2.076-.94-2.076-2.096-2.076Z" style="fill:#000001;"/><path d="M9.417,28.142c-2.07,0-3.754-1.675-3.754-3.733s1.684-3.733,3.754-3.733,3.754,1.675,3.754,3.733-1.684,3.733-3.754,3.733ZM9.417,22.333c-1.156,0-2.096.931-2.096,2.076s.94,2.076,2.096,2.076,2.096-.931,2.096-2.076-.94-2.076-2.096-2.076Z" style="fill:#000001;"/><rect x="12.325" y="23.904" width="13.687" height="1.658" style="fill:#000001;"/><path d="M31.825,25.562v-1.658h2.812c.128-.027.224-.04.31-.113.084-.072.139-.171.156-.279.274-1.734.429-3.498.462-5.249-.004-.369-.024-.748-.062-1.128h-9.095v-4.481h-10.428c-.095,0-.186.028-.265.08l-1.902,1.411-.987-1.332,1.936-1.434c.385-.258.795-.382,1.218-.382h10.607c.395,0,.765.153,1.044.431.28.278.435.649.435,1.044v3.006h8.876l.11.701c.108.689.166,1.393.172,2.093-.034,1.849-.196,3.691-.481,5.495-.076.497-.331.955-.718,1.286-.386.329-.876.509-1.383.509h-2.815Z" style="fill:#000001;"/><polygon points="6.492 25.561 4.291 25.561 1.763 23.873 1.763 17.82 3.421 17.82 3.421 22.987 4.793 23.903 6.492 23.903 6.492 25.561" style="fill:#000001;"/><path d="M18.728,19.977v-3.322l2.318,1.646-2.318,1.676Z" style="fill:#212121;"/><path d="M17.899,21.6v-6.549l4.57,3.245-4.57,3.304ZM19.557,18.261v.094l.066-.048-.066-.047Z" style="fill:#000001;"/><path d="M18.492,19.147c-.701,0-7.155-.109-11.113-4.023-1.989-1.967-2.997-4.547-2.997-7.669h1.658c0,2.66.841,4.842,2.499,6.485,3.602,3.569,9.924,3.544,9.988,3.55l.018,1.658h-.053Z" style="fill:#000001;"/></svg>