<?xml version="1.0" encoding="UTF-8"?><svg id="uuid-6a780a22-45fa-481d-881f-f2a788eec8f1" xmlns="http://www.w3.org/2000/svg" width="39" height="39" viewBox="0 0 39 39"><path d="M37.063,16.094l-.123-.826h-8.791v-2.864c0-.89-.722-1.612-1.612-1.612h-10.526c-.451,0-.884.135-1.296.413l-5.56,4.147-5.386.8c-1.142.129-2.006,1.09-2.006,2.245v5.476l2.606,1.754h1.49c.535,1.503,1.961,2.58,3.644,2.58s3.109-1.077,3.644-2.58h12.061c.535,1.503,1.961,2.58,3.644,2.58s3.109-1.077,3.644-2.58h2.032c1.109,0,2.07-.826,2.232-1.922.219-1.458.477-3.593.477-5.495,0-.639-.058-1.348-.174-2.116ZM9.503,26.272c-1.064,0-1.935-.871-1.935-1.935s.871-1.935,1.935-1.935,1.935.871,1.935,1.935-.871,1.935-1.935,1.935ZM28.852,26.272c-1.064,0-1.935-.871-1.935-1.935s.871-1.935,1.935-1.935,1.935.871,1.935,1.935-.871,1.935-1.935,1.935ZM34.844,23.422c-.019.155-.161.271-.316.271h-1.864c-.31-1.825-1.896-3.225-3.812-3.225s-3.502,1.4-3.812,3.225h-11.726c-.31-1.825-1.896-3.225-3.812-3.225s-3.502,1.4-3.812,3.225h-.729l-1.264-.851v-4.444c0-.168.123-.303.322-.322l5.902-.877,5.908-4.412c.058-.039.116-.058.181-.058h10.204v4.476h9.036c.032.361.052.697.052,1.006,0,1.877-.284,4.07-.458,5.212Z" style="fill:#000001;"/><path d="M22.028,16.443h-3.502v-2.341l-4.515,3.251,4.515,3.199v-2.174h3.502c.535,0,.967.432.967.967s-.432.967-.967.967h-1.612v1.935h1.612c1.6,0,2.902-1.303,2.902-2.902s-1.296-2.902-2.902-2.902Z" style="fill:#000001;"/></svg>