<?xml version="1.0" encoding="UTF-8"?><svg xmlns="http://www.w3.org/2000/svg" width="116.625" height="39" viewBox="0 0 116.625 39"><g id="uuid-2a86db3b-eccd-4be8-85a9-dfab2e3a5cdb"><path d="m115.408,37.548c-1.202,1.452-3.713,1.452-7.515,1.452H20.877C1.548,39,.826,36.919.17,17.987-.117,9.76.188,5.122,2.653,2.611,4.91.308,8.808-.08,15.208.012c3.283.046,7.172.097,11.45.157,21.314.291,53.522.731,68.32,1.193,13.688.425,15.639,1.609,19.196,20.777.245,1.332.476,2.548.689,3.667,1.36,7.126,1.919,10.076.546,11.741Z" style="fill:#3b3938;"/></g><g id="uuid-39e9a1ef-c5ca-46f2-b338-5034c229eab4"><g style="opacity:.5;"><path d="m64.835,31.676c2.089,0,3.708-.013,4.983-.201,1.314-.193,2.191-.564,2.812-1.239.63-.685,1.059-1.749,1.322-3.467.262-1.715.349-4.016.349-7.117s-.108-5.362-.394-7.026c-.286-1.665-.742-2.67-1.387-3.313-.642-.64-1.534-.985-2.845-1.188-1.082-.168-2.391-.232-4.005-.311-.351-.017-.715-.035-1.096-.055l-7.388-.13h-7.396c-2.207,0-3.902.006-5.227.201-1.314.193-2.191.564-2.812,1.239-.63.685-1.059,1.749-1.322,3.467-.262,1.715-.349,4.016-.349,7.117s.087,5.402.349,7.117c.262,1.718.691,2.782,1.322,3.467.621.675,1.498,1.045,2.812,1.239,1.273.187,2.889.2,4.973.201" style="fill:none; stroke:#fefefe; stroke-miterlimit:10; stroke-width:2px;"/><path d="m60.441,14.036l-2.112-2.633h4.219l-2.106,2.633Z" style="fill:#fefefe;"/><path d="m66.947,14.036l-2.112-2.633h4.218l-2.106,2.633Z" style="fill:#fefefe;"/><path d="m51.821,11.403h4.219l-2.112,2.633-2.106-2.633Z" style="fill:#fefefe;"/><path d="m47.42,14.036l-2.112-2.633h4.219l-2.106,2.633Z" style="fill:#fefefe;"/><path d="m59.295,15.77l-2.112,2.639-2.112-2.633,2.112-2.702,2.112,2.696Z" style="fill:#fefefe;"/><path d="m65.8,15.77l-2.112,2.639-2.112-2.633,2.112-2.702,2.112,2.696Z" style="fill:#fefefe;"/><path d="m70.217,15.77v2.639s-2.112-2.633-2.112-2.633l2.112-2.702v2.696Z" style="fill:#fefefe;"/><path d="m52.786,15.77l-2.112,2.639-2.112-2.633,2.112-2.702,2.112,2.696Z" style="fill:#fefefe;"/><path d="m44.166,13.074l2.112,2.696-2.112,2.639v-5.335Z" style="fill:#fefefe;"/><path d="m59.295,24.004l-2.112,2.639-2.112-2.633,2.112-2.702,2.112,2.696Z" style="fill:#fefefe;"/><path d="m65.8,24.077l-2.112,2.639-2.112-2.633,2.112-2.702,2.112,2.696Z" style="fill:#fefefe;"/><path d="m70.217,24.077v2.639s-2.112-2.633-2.112-2.633l2.112-2.702v2.696Z" style="fill:#fefefe;"/><path d="m52.786,24.004l-2.112,2.639-2.112-2.633,2.112-2.702,2.112,2.696Z" style="fill:#fefefe;"/><path d="m44.166,21.308l2.112,2.696-2.112,2.639v-5.335Z" style="fill:#fefefe;"/><path d="m58.329,19.563l2.112-2.633,2.112,2.633-2.112,2.696-2.112-2.696Z" style="fill:#fefefe;"/><path d="m64.686,19.563l2.112-2.633,2.112,2.633-2.112,2.696-2.112-2.696Z" style="fill:#fefefe;"/><path d="m58.329,27.902l2.112-2.633,2.112,2.633h-4.225Z" style="fill:#fefefe;"/><path d="m64.835,27.902l2.112-2.633,2.112,2.633h-4.224Z" style="fill:#fefefe;"/><path d="m51.821,19.563l2.112-2.633,2.112,2.633-2.112,2.696-2.112-2.696Z" style="fill:#fefefe;"/><path d="m51.821,27.902l2.112-2.633,2.112,2.633h-4.224Z" style="fill:#fefefe;"/><path d="m45.313,19.563l2.112-2.633,2.112,2.633-2.112,2.696-2.112-2.696Z" style="fill:#fefefe;"/><path d="m45.313,27.902l2.112-2.633,2.112,2.633h-4.224Z" style="fill:#fefefe;"/></g><path d="m61.887,31.213l-4.891,4.624-4.891-4.621h1.559l3.332,3.143,3.328-3.147h1.563Z" style="fill:#fefefe; stroke:#fefefe;"/><g style="opacity:.5;"><circle cx="21.122" cy="19.653" r="12.486" style="fill:none; stroke:#fefefe; stroke-width:2px;"/></g><circle cx="93.261" cy="19.653" r="12.948" style="fill:#f4ae3d;"/><line x1="96.617" y1="23.139" x2="89.911" y2="23.139" style="fill:none; stroke:#30373e; stroke-miterlimit:10;"/><line x1="96.617" y1="20.778" x2="89.911" y2="20.778" style="fill:none; stroke:#30373e; stroke-miterlimit:10;"/><path d="m99.31,24.784c0,.264-.214.477-.477.477h-11.136c-.264,0-.477-.214-.477-.477v-7.88c0-.094.028-.192.078-.279.045-.077.115-.146.197-.194l5.459-3.194c.071-.043.15-.065.231-.065.087,0,.164.02.23.059l5.61,3.197c.086.049.157.121.207.205.05.086.077.185.078.285v7.866Z" style="fill:none; stroke:#30373e; stroke-miterlimit:10;"/><path d="m89.911,25.262v-6.419c0-.159.129-.289.289-.289h6.128c.159,0,.289.129.289.289v6.419" style="fill:none; stroke:#30373e; stroke-miterlimit:10;"/><line x1="17.333" y1="15.864" x2="24.91" y2="23.441" style="fill:none; stroke:#fefefe; stroke-width:2px;"/><line x1="17.333" y1="23.441" x2="24.91" y2="15.864" style="fill:none; stroke:#fefefe; stroke-width:2px;"/></g></svg>