<svg xmlns="http://www.w3.org/2000/svg" width="39" height="39" viewBox="0 0 39 39"><g id="b08a88cc-022c-4065-86ed-c16f41ce8966" data-name="illustration"><path d="M28.887,2.328V14.865c0,5.544-4.221,10.08-9.387,10.08s-9.387-4.536-9.387-10.08V2.328Z" style="fill:none;stroke:#30373e;stroke-width:2px"/><path d="M10.5539,6.108H4.38v4.095a7.11,7.11,0,0,0,5.67,6.678" style="fill:none;stroke:#30373e;stroke-width:2px"/><path d="M28.95,16.944a7.11,7.11,0,0,0,5.67-6.678V6.108h-6.174" style="fill:none;stroke:#30373e;stroke-width:2px"/><path d="M29.7512,36.4247l-2.5651-5.2429h-15.12l-2.89,5.4372" style="fill:none;stroke:#30373e;stroke-width:2px"/><path d="M13.6411,31.1821a2.7219,2.7219,0,0,0,2.772-2.583v-4.095" style="fill:none;stroke:#30373e;stroke-width:2px"/><path d="M25.3589,31.1821a2.7219,2.7219,0,0,1-2.772-2.583v-4.095" style="fill:none;stroke:#30373e;stroke-width:2px"/></g></svg>