<svg xmlns="http://www.w3.org/2000/svg" width="39" height="39" viewBox="0 0 39 39"><g id="b16c5360-a0a0-4e79-9162-1c79ba414f9d" data-name="illustration"><path d="M35.88,19.5A16.3816,16.3816,0,0,1,20.1552,35.8674h-.0063c-.2142.0063-.4347.0126-.6489.0126A16.381,16.381,0,0,1,3.6744,23.721v-.0063A16.3278,16.3278,0,0,1,5.3313,11.2911,15.6446,15.6446,0,0,1,7.65,8.2041,16.3718,16.3718,0,0,1,35.88,19.5Z" style="fill:none;stroke:#30373e;stroke-miterlimit:10;stroke-width:2px"/><path d="M5.3312,11.291c.3843.1449,14.8869,5.7267,13.2615,9.6012-1.8711,4.4667-14.9184,2.8224-14.9184,2.8224v.0063A16.381,16.381,0,0,0,19.5,35.88c.2142,0,.4347-.0063.6489-.0126h.0063A22.4345,22.4345,0,0,0,29.46,23.0846C32.0684,12.6581,8.1851,8.3048,7.65,8.204" style="fill:none;stroke:#30373e;stroke-miterlimit:10;stroke-width:2px"/></g></svg>