<?xml version="1.0" encoding="UTF-8"?><svg id="uuid-f3866955-8690-4b04-aa3e-a88b5b9e4d61" xmlns="http://www.w3.org/2000/svg" width="39" height="39" viewBox="0 0 39 39"><path d="m19.5,39C8.747,39,0,30.253,0,19.5S8.747,0,19.5,0s19.5,8.748,19.5,19.5-8.747,19.5-19.5,19.5Zm0-36.431C10.164,2.569,2.568,10.164,2.568,19.5s7.596,16.931,16.932,16.931,16.932-7.596,16.932-16.931S28.836,2.569,19.5,2.569Z" style="fill:#30373e; stroke-width:0px;"/><path d="m17.983,10.9h3.391l6.361,16.791h-3.017l-1.45-3.835h-7.249l-1.427,3.835h-2.971l6.361-16.791Zm4.303,10.337l-2.666-7.016-2.619,7.016h5.285Z" style="fill:#30373e; stroke-width:0px;"/></svg>