<svg xmlns="http://www.w3.org/2000/svg" width="39" height="39" viewBox="0 0 39 39"><g id="f000fbd0-98ed-4db8-a737-badc59874adb" data-name="illustration"><path d="M34.652,18.139H26.24a2.072,2.072,0,0,0-.354-1c-.006-.006-.012-.011-.012-.017a2.171,2.171,0,0,0-.208-.25c-.018-.017-.035-.029-.053-.046a1.916,1.916,0,0,0-.215-.18c-.034-.023-.075-.047-.11-.07-.064-.041-.128-.081-.191-.116s-.128-.052-.192-.075a1.509,1.509,0,0,0-.151-.053,2.014,2.014,0,0,0-.371-.064c-1.173-.092-3.06-.2-5.387-.2s-4.209.11-5.382.2a2.687,2.687,0,0,0-.371.064,1.509,1.509,0,0,0-.151.053,1.269,1.269,0,0,0-.192.075,2.157,2.157,0,0,0-.191.116,1.132,1.132,0,0,0-.111.07,2,2,0,0,0-.214.18c-.018.017-.035.029-.053.046a2.287,2.287,0,0,0-.209.25c0,.006-.011.011-.011.017a2.079,2.079,0,0,0-.36,1h-6.6A14.243,14.243,0,0,1,18.984,7.074V5.333a16.01,16.01,0,0,0-7.651,30.035l.192.11H26.484l.2-.11a16.013,16.013,0,0,0,8.29-14.031A16.285,16.285,0,0,0,34.652,18.139Zm-20.9-.128c1.143-.087,2.978-.192,5.248-.192s4.11.105,5.253.192a.282.282,0,0,1,.261.29v4.383a3.768,3.768,0,0,1-.841,2.374l-.854,1.051a2.035,2.035,0,0,1-1.579.755H16.755a2.018,2.018,0,0,1-1.579-.755l-.853-1.051a3.8,3.8,0,0,1-.842-2.374V18.3A.291.291,0,0,1,13.748,18.011ZM4.785,21.337a13.413,13.413,0,0,1,.075-1.451h6.885v2.8a5.361,5.361,0,0,0,.047.685H4.936A13.86,13.86,0,0,1,4.785,21.337Zm7.192,12.4A14.28,14.28,0,0,1,5.29,25.11h7.018a4.082,4.082,0,0,0,.279.5.716.716,0,0,0,.04.064c.1.162.221.325.343.481l.853,1.051a3.765,3.765,0,0,0,.395.412c.035.029.064.058.1.087a4.153,4.153,0,0,0,.453.337l.789,5.613c.006.029.012.053.017.076h-3.6Zm8.406,0H17.626a.344.344,0,0,1-.337-.308L16.61,28.6c.046,0,.1.006.145.006h4.481c.053,0,.1-.006.151-.006l-.667,4.842A.336.336,0,0,1,20.383,33.737Zm5.654,0H22.432l.018-.07.777-5.625a4.153,4.153,0,0,0,.453-.337c.035-.029.07-.058.1-.087a3.765,3.765,0,0,0,.395-.412l.853-1.051a4.74,4.74,0,0,0,.342-.481.509.509,0,0,1,.041-.064c.1-.163.192-.331.279-.5h7.035A14.284,14.284,0,0,1,26.037,33.737Zm7.041-10.368H26.205a5.361,5.361,0,0,0,.047-.685v-2.8h6.89c.047.482.082.964.082,1.451A13.2,13.2,0,0,1,33.078,23.369Z" style="fill:#30373e"/><path d="M22.072,7.585a4.147,4.147,0,0,0-.354,1.759,4.147,4.147,0,0,0,.354,1.759,2.4,2.4,0,0,1,.227,1.1,2.4,2.4,0,0,1-.227,1.1,4.147,4.147,0,0,0-.354,1.759H23.46a2.4,2.4,0,0,1,.226-1.1,4.147,4.147,0,0,0,.354-1.759,4.147,4.147,0,0,0-.354-1.759,2.4,2.4,0,0,1-.226-1.1,2.4,2.4,0,0,1,.226-1.1,3.986,3.986,0,0,0,.331-1.277h1.114L23.1,3.458,21.068,6.964h1.19A2.494,2.494,0,0,1,22.072,7.585Z" style="fill:#30373e"/><path d="M26.681,7.585a4.163,4.163,0,0,0-.354,1.759,4.163,4.163,0,0,0,.354,1.759,2.4,2.4,0,0,1,.227,1.1,2.4,2.4,0,0,1-.227,1.1,4.163,4.163,0,0,0-.354,1.759h1.742a2.415,2.415,0,0,1,.226-1.1,4.147,4.147,0,0,0,.354-1.759,4.147,4.147,0,0,0-.354-1.759,2.415,2.415,0,0,1-.226-1.1,2.415,2.415,0,0,1,.226-1.1,3.986,3.986,0,0,0,.331-1.277h1.149L27.744,3.458,25.712,6.964h1.155A2.723,2.723,0,0,1,26.681,7.585Z" style="fill:#30373e"/><path d="M31.227,7.585a4.147,4.147,0,0,0-.354,1.759,4.147,4.147,0,0,0,.354,1.759,2.415,2.415,0,0,1,.226,1.1,2.415,2.415,0,0,1-.226,1.1,4.147,4.147,0,0,0-.354,1.759h1.741a2.415,2.415,0,0,1,.226-1.1,4.144,4.144,0,0,0,.355-1.759,4.144,4.144,0,0,0-.355-1.759,2.415,2.415,0,0,1-.226-1.1,2.415,2.415,0,0,1,.226-1.1,3.986,3.986,0,0,0,.331-1.277h1.19L32.33,3.458,30.3,6.964h1.114A2.721,2.721,0,0,1,31.227,7.585Z" style="fill:#30373e"/></g></svg>
