<?xml version="1.0" encoding="UTF-8"?><svg id="uuid-55286d30-1de4-47fa-ba09-a0c8c63f3a94" xmlns="http://www.w3.org/2000/svg" width="39" height="39" viewBox="0 0 39 39"><path d="m27.2896,9.4655c-.1917-.4601-.7696-.9969-1.4014-1.365.0662-1.4553.0229-2.8477-.1594-3.9258-.2102-1.1134-.912-2.7184-2.6243-2.9554-1.6022-.2216-2.8772-.2298-3.2775-.2298s-1.6753.0082-3.2775.2298c-1.7123.237-2.4141,1.842-2.6243,2.9554-.1823,1.0781-.2256,2.4704-.1594,3.9258-.6318.3682-1.2097.9049-1.4014,1.365-.3919.9412.1521,2.1467,1.456,1.8411v5.8154c0,.2443.0074.6291.0159,1.0744.0172.8967.039,2.0388.0149,2.7734l-.0024.0249c-.0903.9344-.2391,2.4736.0858,3.811l.379,1.5677c.1908.6855.6877,1.1693,1.3493,1.285,1.375.2378,2.7692.3598,4.1572.3598h.0138c1.3879,0,2.7821-.122,4.1572-.3598.6616-.1158,1.1586-.5995,1.3493-1.285l.379-1.5677c.3249-1.3374.1762-2.8766.0859-3.811h0s-.0024-.0249-.0024-.0249c-.0239-.7343-.0021-1.8758.0149-2.7723.0085-.4458.0158-.831.0158-1.0755v-5.8154c1.3038.3056,1.8478-.8999,1.456-1.8411Zm-10.6593,9.5979l-.8968-.3703c-.2283-.0943-.3773-.3169-.3773-.5639v-7.9009l.968,1.0949c.1973.2231.3061.5106.3061.8084v6.9319Zm-.3059,4.8998l-.9682,1.0951v-4.5092c0-.1273.1293-.2139.247-.1652l1.0271.4241v2.3474c0,.2976-.1088.585-.3059.8079Zm6.6994-11.8317c0-.2978.1088-.5853.3061-.8084l.968-1.0949v7.9009c0,.247-.1489.4697-.3773.5639l-.8968.3703v-6.9319Zm0,11.0238v-2.3474l1.0271-.4241c.1177-.0486.247.0379.247.1652v4.5092l-.9682-1.0951c-.1971-.223-.3059-.5103-.3059-.8079Zm-1.0692-12.8418c-1.4195-.3077-2.847-.3077-4.2662-.0004-.1892.041-.3831-.0249-.5064-.1738-.429-.518-1.0209-1.1588-1.5773-1.6886-.1293-.1229-.1168-.3377.0346-.4312,2.1767-1.3428,5.9794-1.5342,8.3778-.0089.1499.0953.1609.3101.0319.4322-.5612.5318-1.154,1.1761-1.5899,1.6992-.1233.1478-.3164.2123-.5044.1716Zm-15.2672,5.2226l-4.0667,5.7197h3.0922v4.2335c0,2.3566,1.3954,4.4896,3.5545,5.4337l.3889-.8893-.3889.8893,8.791,3.8438c.6785.2966,1.117.9669,1.117,1.7074v1.5373h1.9412v-1.5373c0-.7405.4385-1.4107,1.117-1.7074l8.791-3.8438-.3889-.8893.3889.8893c2.1592-.9441,3.5545-3.0771,3.5545-5.4337v-4.2335h3.092l-4.0586-5.7197-4.0667,5.7197h3.0922v4.2335c0,1.5853-.9386,3.0201-2.3911,3.6552l-8.791,3.8438c-.5097.2229-.953.549-1.3099.9475-.3568-.3986-.8002-.7247-1.3099-.9475l-8.791-3.8438c-1.4524-.6351-2.3911-2.0699-2.3911-3.6552v-4.2335h3.092l-4.0586-5.7197Z" style="fill:#30373e; fill-rule:evenodd; stroke-width:0px;"/></svg>