<?xml version="1.0" encoding="UTF-8"?><svg id="uuid-626a9304-64ab-4df1-9393-3d5620d9cd45" xmlns="http://www.w3.org/2000/svg" width="39" height="39" viewBox="0 0 39 39"><path d="m14.3574,10.8379v6.7781c0,.2334.0073.6011.015,1.0265h0v.0003c.0165.8558.0373,1.9454.0145,2.6464l-.0024.0234c-.0864.8919-.2285,2.3616.082,3.6385l.3615,1.4965c.1825.6543.6566,1.1161,1.2884,1.2267,1.3122.227,2.6433.3435,3.9681.3435h.0136c1.3248,0,2.6554-.1165,3.9681-.3435.6318-.1105,1.1059-.5723,1.2884-1.2267l.3615-1.4965c.3101-1.2769.1684-2.7466.082-3.6385l-.0024-.0234c-.0228-.7014-.0019-1.7918.0146-2.6479h0c.0078-.4251.015-.7922.015-1.0253v-6.7781c1.2447.2917,1.764-.859,1.3898-1.7575-.1829-.4392-.7347-.9516-1.3379-1.3031.0631-1.3893.0218-2.7184-.1519-3.7476-.2009-1.0629-.8706-2.5951-2.5055-2.8213-1.5291-.2116-2.7467-.2194-3.1286-.2194-.3824,0-1.5995.0078-3.1286.2194-1.6349.2263-2.3046,1.7585-2.5055,2.8213-.1737,1.0292-.2154,2.3583-.1519,3.7476-.6032.3514-1.155.8639-1.3379,1.3031-.3741.8985.1451,2.0492,1.3898,1.7575Zm9.6822-2.7559c-.5202.4953-1.0739,1.0945-1.4748,1.579-.1155.1393-.297.2008-.4736.1626-1.3272-.2874-2.6617-.2874-3.9895.0003-.1757.038-.3562-.0223-.4717-.1604-.4072-.4892-.9618-1.0918-1.4864-1.5889-.1208-.1142-.1106-.315.0296-.4042,2.243-1.4262,5.7986-1.2473,7.8343.0083.1412.0875.1529.2884.032.4033Zm-.9589,9.8581v-6.2275c0-.2785.1019-.5471.2858-.7558l.9055-1.024v7.6829c-.3305.1199-.772.2357-1.1913.3243Zm-6.6357,6.7693l.0024-5.3646c2.4997.5438,4.9299.5435,7.2908,0v5.369c0,.4909-.3989.8898-.89.8898h-5.5108c-.3475,0-.6638-.205-.807-.5226-.0485-.1009-.0732-.205-.0772-.3148l-.0082-.0568Zm-.5343-14.7766l.9055,1.024c.1844.2086.2858.4773.2858.7557v6.2275c-.4193-.0886-.8609-.2043-1.1914-.3242v-7.683Zm-9.6046,5.511l4.0666,5.7197h-.0655l.0655.0919h-3.0922v4.1416c0,1.5853.9385,3.0201,2.391,3.6552l8.7913,3.8438c1.385.6057,2.2803,1.9741,2.2803,3.4859v1.6293s-1.9411,0-1.9411,0v-1.5373c0-.7405-.4387-1.4107-1.1171-1.7074l-8.7908-3.8438.0335-.0772-.0335.0772c-2.1595-.9441-3.5547-3.0771-3.5547-5.4337v-.092s0-4.1416,0-4.1416h-3.0922s.0655-.0919.0655-.0919h-.0655s4.0589-5.7197,4.0589-5.7197Z" style="fill:#30373e; fill-rule:evenodd; stroke-width:0px;"/></svg>