<?xml version="1.0" encoding="UTF-8"?><svg id="uuid-56e1cbd8-ae2c-4ddd-a60d-00c183611a78" xmlns="http://www.w3.org/2000/svg" width="12" height="12" viewBox="0 0 12 12"><circle cx="6" cy="6" r="6" style="fill:#30373e; stroke-width:0px;"/><path d="m4.0117,2.1301c-1.0392,0-1.8816.8424-1.8816,1.8816v3.9766c0,1.0392.8424,1.8816,1.8816,1.8816h3.9766c1.0392,0,1.8816-.8424,1.8816-1.8816v-3.9766c0-1.0392-.8424-1.8816-1.8816-1.8816h-3.9766Zm.8068,6.395c-.1465.0675-.279.1013-.3976.1013-.2108,0-.3844-.0625-.5211-.1876-.1366-.1252-.205-.2848-.205-.4791,0-.405.2486-.6569.7458-.7557l.3853-.079c.0856-.0198.1284-.0807.1284-.1828l-.0099-2.7709c0-.1548.0905-.2519.2716-.2914l2.3511-.484c.1416-.0329.2453-.0272.3112.0173.0659.0444.0988.1309.0988.2593v3.4229c0,.2404-.051.433-.1531.5779-.1021.1449-.2247.2494-.368.3136-.1433.0642-.2758.0963-.3976.0963-.214,0-.3902-.0626-.5285-.1877-.1383-.1251-.2074-.2848-.2074-.4791,0-.3787.2519-.624.7557-.7359l.3655-.084c.1054-.0198.158-.0856.158-.1976l-.0148-1.546c0-.0724-.0461-.0988-.1383-.079l-1.9905.4099c-.0494.0099-.0799.0222-.0914.037-.0115.0148-.0173.0486-.0173.1013v2.3017c0,.2404-.0519.4338-.1556.5804-.1037.1465-.2289.2535-.3754.321Z" style="fill:#f4f4f4; stroke-width:0px;"/></svg>