<svg xmlns="http://www.w3.org/2000/svg" width="12" height="12" viewBox="0 0 12 12"><g id="ae306635-fb0f-46d4-9dac-bd91e6b8458b" data-name="illustration"><circle cx="6" cy="6" r="6" style="fill:#30373e"/><rect x="3.5149" y="1.7538" width="4.6514" height="7.9074" rx="0.5272" style="fill:none;stroke:#f4f4f4;stroke-miterlimit:10;stroke-width:0.75px"/><path d="M4.91,2.9167H6.7709" style="fill:none;stroke:#f4f4f4;stroke-miterlimit:10;stroke-width:0.75px"/><path d="M5.957,8.8429a.3489.3489,0,1,0-.3489-.3489A.3489.3489,0,0,0,5.957,8.8429Z" style="fill:#212121"/><path d="M7.5565,6.63h0A2.1087,2.1087,0,0,1,9.6651,8.7387h0a2.1087,2.1087,0,0,1-2.1086,2.1086h0A2.1087,2.1087,0,0,1,5.4478,8.7387h0A2.1087,2.1087,0,0,1,7.5565,6.63Z" style="fill:#f4f4f4"/><path d="M6.7563,9.4268,8.728,9.429" style="fill:none;stroke:#30373e;stroke-miterlimit:10;stroke-width:0.5px"/><path d="M6.9245,8.974v.9075l-.6388-.4552Z" style="fill:#30373e"/><path d="M8.3566,8.0837,6.385,8.086" style="fill:none;stroke:#30373e;stroke-miterlimit:10;stroke-width:0.5px"/><path d="M8.1884,7.631v.9075l.6388-.4552Z" style="fill:#30373e"/></g></svg>
