<svg xmlns="http://www.w3.org/2000/svg" width="39" height="39" viewBox="0 0 39 39"><g id="acf04b71-356a-4c30-a00d-05c55b4c31f6" data-name="below"><path d="M19.5,0h0A19.5,19.5,0,0,1,39,19.5h0A19.5,19.5,0,0,1,19.5,39h0A19.5,19.5,0,0,1,0,19.5H0A19.5,19.5,0,0,1,19.5,0Z" style="fill:#30373e"/></g><g id="bb757ddb-1981-47cb-ac7e-63e3967be1f5" data-name="illustration"><path d="M26.9984,23.214q2.3966.6843,4.7937,1.3693a1.4318,1.4318,0,0,0,1.703-.7793,6.4868,6.4868,0,0,0-3.1069-8.7054,24.41,24.41,0,0,0-21.0029,0A6.4867,6.4867,0,0,0,6.2784,23.804a1.4332,1.4332,0,0,0,1.7036.78q2.3958-.6852,4.7931-1.37a1.7754,1.7754,0,0,0,1.3035-1.6266q.09-1.5285.18-3.0565a14.9273,14.9273,0,0,1,11.2569,0q.0892,1.5277.18,3.0566A1.7756,1.7756,0,0,0,26.9984,23.214Z" style="fill:#f4f4f4;fill-rule:evenodd"/></g></svg>
