<svg id="a6b1480f-b1f4-4fd3-b1e2-3f93d17a70e3" data-name="Layer 1" xmlns="http://www.w3.org/2000/svg" width="55" height="55" viewBox="0 0 55 55"><path d="M29,10.53H26V23.47h3Z" style="fill:#30373e"/><path d="M29,26.47H26v3h3Z" style="fill:#30373e"/><path d="M39.56,8.33A17.34,17.34,0,0,0,26.67,3.52a17.451,17.451,0,0,0-8.65,32.09v12.2a3.7,3.7,0,0,0,3.69,3.7H33.28a3.7,3.7,0,0,0,3.7-3.7V35.61a17.534,17.534,0,0,0,7.98-14.65A17.324,17.324,0,0,0,39.56,8.33ZM21.02,36.79H33.98V41.5H21.02ZM33.29,48.5H21.71a.694.694,0,0,1-.69-.7V44.5H33.98v3.3A.694.694,0,0,1,33.29,48.5Zm1.44-15.03-.55.32H20.82l-.55-.32A14.456,14.456,0,0,1,26.81,6.51c.23-.01.46-.02.69-.02A14.467,14.467,0,0,1,41.96,20.95,14.513,14.513,0,0,1,34.73,33.47Z" style="fill:#30373e"/></svg>