<svg id="ac1123d6-ae9a-422a-a33f-d10c75498585" data-name="Layer 1" xmlns="http://www.w3.org/2000/svg" xmlns:xlink="http://www.w3.org/1999/xlink" width="55" height="55" viewBox="0 0 55 55"><defs><clipPath id="f0bbfc42-7533-43cf-9755-92585beea702"><rect x="3.5" width="48" height="48" style="fill:none"/></clipPath></defs><g style="clip-path:url(#f0bbfc42-7533-43cf-9755-92585beea702)"><path d="M37.362,36.445S34.421,33.6,27.5,33.6s-10.438,2.784-10.438,2.784L5.245,18.292a41.133,41.133,0,0,1,44.51.061Z" style="fill:none;stroke:#30373e;stroke-miterlimit:10;stroke-width:3px"/><path d="M18.947,42.746c0-3.238,1.746-2.81,1.746-6.048s-1.746-2.932-1.746-6.17,1.746-3.552,1.746-6.8" style="fill:none;stroke:#30373e;stroke-miterlimit:10;stroke-width:3px"/><path d="M20.562,19.183l-3.055,5.271h6.109Z" style="fill:#30373e"/><path d="M25.929,42.746c0-3.238,1.745-2.81,1.745-6.048s-1.745-2.932-1.745-6.17,1.745-3.552,1.745-6.8" style="fill:none;stroke:#30373e;stroke-miterlimit:10;stroke-width:3px"/><path d="M27.544,19.183l-3.055,5.271H30.6Z" style="fill:#30373e"/><path d="M32.824,42.746c0-3.238,1.745-2.81,1.745-6.048s-1.745-2.932-1.745-6.17,1.745-3.552,1.745-6.8" style="fill:none;stroke:#30373e;stroke-miterlimit:10;stroke-width:3px"/><path d="M34.438,19.183l-3.054,5.271h6.109Z" style="fill:#30373e"/></g></svg>