<?xml version="1.0" encoding="UTF-8"?><svg xmlns="http://www.w3.org/2000/svg" width="645" height="302.959" viewBox="0 0 645 302.959"><g id="uuid-bcb9e615-89c3-4fd4-a6b1-7999c304c8ca"><path d="m31.4825,227.8585c.1468-.4271.2202-.684.2402-.7675l.04-.1068-.9243-4.6014-.6941-.307,1.5883-1.585-.6674-.6674-1.8452,1.8453-.8542-.3771c.8437-.3059,1.2797-1.2379.9738-2.0816s-1.2379-1.2797-2.0816-.9738-1.2797,1.2379-.9738,2.0816c.1642.4529.5209.8096.9738.9738l-2.4759,1.0911-.921,4.6048v.0267l-2.0021,2.0021.614.7141c.6185-.4176,1.2837-.7614,1.982-1.0244,0,.0434.0367.0868.0534.1335l.1134.287c.4171,1.001.921,2.0855,1.4982,3.19h1.0644c-.4905-.9176-.931-1.8152-1.3114-2.6694,1.2347-.5536,2.6451-.5633,3.8873-.0267-.3837.8676-.8275,1.7718-1.3347,2.6961h1.0644c.5773-1.1078,1.0731-2.1937,1.5016-3.21.0325-.0771.0601-.1468.0868-.2169l.0601-.1468c.6205.2568,1.2049.5933,1.7385,1.001l.604-.7274c-.612-.4728-1.2842-.8621-1.9987-1.1579Zm-2.9797-5.4757l-3.4436,3.4469-.2202,1.0978c.0234.0767.0567.1935.1034.3337l4.4846-4.4813-.9243-.3971Zm-3.4736,5.1453c1.8152-.5442,3.7512-.5372,5.5624.02-.0834.2402-.1902.5339-.3337.8843-1.6016-.4755-3.3068-.4755-4.9084,0-.1335-.3671-.2402-.664-.3203-.9043Z" style="fill:#30373e; fill-rule:evenodd; stroke-width:0px;"/><path d="m109.1962,222.0959c.8127,0,1.4715-.6588,1.4715-1.4715s-.6588-1.4715-1.4715-1.4715-1.4706.6588-1.4715,1.4715c-.0009.8109.654,1.4697,1.4649,1.4715h.0067Z" style="fill:#30373e; stroke-width:0px;"/><path d="m104.3145,226.7106l-1.5383-.4338c-.4873-.144-1.0052.0998-1.2046.5673l-1.6684,3.7772c-.2343.517-.0049,1.1256.5118,1.3603.0084.0038.0169.0075.0254.0111.1238.0644.2609.0994.4004.1001.4031.0021.7688-.2363.9343-.604l1.3047-2.9731,1.7385.4672-.5039-2.2724Z" style="fill:#30373e; stroke-width:0px;"/><path d="m108.7257,223.3004c-.5188-.2302-1.1259-.0032-1.3594.5142-.003.0065-.676,1.5913-.676,1.5913.0784.1072.1247.2345.1335.367l.6373,2.943,1.7718-4.0775c.2324-.5016.0141-1.0963-.4874-1.3291-.0066-.0031-.0132-.006-.0198-.0089Z" style="fill:#30373e; stroke-width:0px;"/><path d="m106.8538,232.5267c-.2022-.0039-.3781-.1393-.4338-.3337l-1.1378-4.8484c-.0461-.2426.1132-.4767.3557-.5228.2296-.0437.4542.0969.5152.3226l1.1378,4.8484c.0522.2391-.0959.4761-.3337.5339h-.1034Z" style="fill:#30373e; stroke-width:0px;"/><path d="m110.8345,223.7009c-.1596.0052-.3063-.0873-.3704-.2336-.1249-.1936-.0692-.4518.1244-.5766.0137-.0088.0279-.0168.0425-.024l3.2434-1.9053c.1953-.1255.4555-.069.581.1264.0084.0131.0161.0266.023.0405.1242.194.0676.452-.1264.5762-.0141.009-.0287.0172-.0438.0245l-3.2734,1.9387c-.063.0272-.1318.0386-.2002.0334Z" style="fill:#30373e; stroke-width:0px;"/><path d="m102.6094,218.2853c-1.865.0028-3.3768,1.5119-3.3768,3.3768s1.5118,3.3768,3.3768,3.3768,3.374-1.5119,3.3768-3.3768c.0028-1.8594-1.4973-3.3713-3.3568-3.3768-.0067,0-.0134,0-.0201,0Z" style="fill:#30373e; stroke-width:0px;"/><path d="m190.8973,221.1349l-1.5149-2.6094c-.1722-.3091-.5125-.4852-.8642-.4471h-3.5537c-.27.0324-.5044.2013-.6206.4471l-1.5182,2.6094h-1.1078v.7841h1.0744v4.0041h.7808v-1.3347h6.5368v1.3347h.7875v-4.0041h1.0711v-.7841h-1.0711Zm-5.8794-2.2256v-.0267h3.4669c.0574-.0011.1146.0056.1702.02l1.3047,2.2523h-6.2298l1.288-2.2456Z" style="fill:#30373e; stroke-width:0px;"/><path d="m184.6609,226.9676h-.7708c.5773.3337,1.1145.7741,1.1178,1.0311-.0968.2469-1.211.5846-1.8786.7875-1.4544.4419-2.833.8576-2.8262,1.8386.002.2882.0745.5716.2069.8275.3172.6133.9546.9938,1.645.9844h.4004c-.7408-.5139-1.4582-1.1812-1.4582-1.8119,0-.4004,1.4216-.8306,2.269-1.0878,1.3616-.4133,2.4381-.7408,2.4358-1.5249-.0002-.0858-.0121-.1714-.0367-.2536-.1443-.4833-.6004-.8056-1.1045-.7908Z" style="fill:#30373e; stroke-width:0px;"/><path d="m190.7471,226.9676h-.7841c.5773.3604,1.1112.8275,1.1812,1.1178-.4361.2237-.8993.3854-1.3714.5172-1.4487.4045-3.06.9443-3.0632,2.1522-.0004.1646.0253.3286.0801.4838.2589.7339.9637,1.2156,1.7418,1.2012h.2736c-.7408-.5773-1.3114-1.1912-1.3114-1.6684,0-.6273,1.507-1.0986,2.5093-1.4015,1.1198-.3383,1.9407-.5973,1.932-1.2113-.0034-.2392-.0867-.4688-.2202-.6674-.218-.3242-.577-.5253-.9677-.5239Z" style="fill:#30373e; stroke-width:0px;"/><path d="m217.3113,221.1349l-1.5182-2.6094c-.1704-.3092-.51-.4856-.8609-.4471h-3.557c-.27.0324-.5044.2013-.6206.4471l-1.5049,2.6094h-1.1078v.7841h1.0744v4.0041h.7841v-1.3347h6.5334v1.3347h.7841v-4.0041h1.0711v-.7841h-1.0778Zm-5.8761-2.2256v-.0267h3.4869c.0564-.0028.1127.004.1668.02l1.3047,2.2523h-6.2498l1.2913-2.2456Z" style="fill:#30373e; stroke-width:0px;"/><path d="m209.3831,229.0097h.3337c-.6674-.2302-1.298-.5339-1.298-.8142,0-.1802,1.2644-.375,2.0021-.4905,1.2076-.189,2.1643-.3337,2.1622-.6874-.0002-.0408-.0107-.0809-.03-.1168-.1166-.217-.5339-.3537-.9777-.3537h-.6674c.5105.1435,1.001.3504,1.001.4638-.0868.1101-1.0775.2653-1.6684.357-1.2908.2005-2.5093.3837-2.5093.8275.0094.1437.0748.2799.1869.3704.4102.3314.9387.48,1.4649.4438Z" style="fill:#30373e; stroke-width:0px;"/><path d="m217.0076,226.5471h-.6941c.5139.1602,1.001.3737,1.0478.5039-.4007.1023-.8084.1726-1.2179.2302-1.2777.1797-2.7273.4272-2.7195.971.0011.0775.0274.1522.0701.2169.218.3308.8609.5406,1.5449.5406h.2436c-.6674-.2569-1.1645-.5339-1.1645-.7575,0-.2803,1.335-.4922,2.229-.6307,1.0013-.155,1.7151-.2703,1.7151-.5472-.0184-.1233-.0913-.2308-.1969-.297-.2569-.1611-.5547-.2447-.8575-.2302Z" style="fill:#30373e; stroke-width:0px;"/><path d="m212.5263,231.0384c-.0053.785-.6163,1.4303-1.4013,1.4413s-1.4303-.6163-1.4413-1.4013c-.0111-.785.6163-1.4298,1.4013-1.4413.0066,0,.0133,0,.0199-.0001.7536-.0158,1.3893.5532,1.4208,1.3063.0013.0317.0009.0634.0007.0952Zm-2.1455,0c-.0384.3999.2546.7552.6545.7936.3999.0384.7552-.2546.7936-.6545.0044-.0463.0044-.0928,0-.1391.0384-.3999-.2546-.7552-.6545-.7936-.3999-.0384-.7552.2546-.7936.6545-.0044.0463-.0044.0928,0,.1391Z" style="fill:#30373e; stroke-width:0px;"/><path d="m213.7643,230.7315h.7875v.624h-.7875v1.0411h-.6674v-2.7095h1.5983v.6206h-.931v.4238Z" style="fill:#30373e; stroke-width:0px;"/><path d="m215.8898,230.7315h.7841v.624h-.7841v1.0411h-.6674v-2.7095h1.5983v.6206h-.931v.4238Z" style="fill:#30373e; stroke-width:0px;"/><path d="m243.3248,231.3287h-8.739l-.1101-.0734c-2.1188-1.4482-2.2867-2.3859-2.3157-6.1363-.0132-1.7083.4887-3.3809,1.4715-4.7783.3003-.4805.5372-.8576.5372-1.1645v-1.4382h.8676v1.4348c0,.5572-.3137,1.0511-.6674,1.6284-.8879,1.2631-1.3448,2.7739-1.3347,4.3178.023,3.5102.1135,4.151,1.8252,5.3389h8.2018c1.7051-1.1846,1.8143-1.8886,1.8286-5.3389.0065-1.5623-.4683-3.0887-1.3748-4.3612-.3704-.5906-.6674-1.0578-.6674-1.5816v-1.4382h.8676v1.4348c0,.277.2286.6707.5339,1.1178.9735,1.4258,1.5099,3.1019,1.5049,4.8283-.0103,3.537-.0968,4.6214-2.3157,6.1363l-.1134.0734Z" style="fill:#30373e; stroke-width:0px;"/><path d="m235.3399,231.1919h-.8676v1.5883h.8676v-1.5883Z" style="fill:#30373e; stroke-width:0px;"/><path d="m243.4383,231.1919h-.8676v1.5883h.8676v-1.5883Z" style="fill:#30373e; stroke-width:0px;"/><path d="m241.4129,231.1919h-.8676v1.5883h.8676v-1.5883Z" style="fill:#30373e; stroke-width:0px;"/><path d="m239.3874,231.1919h-.8676v1.5883h.8676v-1.5883Z" style="fill:#30373e; stroke-width:0px;"/><path d="m237.3653,231.1919h-.8676v1.5883h.8676v-1.5883Z" style="fill:#30373e; stroke-width:0px;"/><path d="m239.3874,223.0902h-.8676v2.6027h.8676v-2.6027Z" style="fill:#30373e; stroke-width:0px;"/><path d="m239.3874,226.5605h-.8676v.8676h.8676v-.8676Z" style="fill:#30373e; stroke-width:0px;"/><path d="m287.0934,230.8516h-.8209v1.9287h.8209v-1.9287Z" style="fill:#30373e; stroke-width:0px;"/><path d="m287.0934,227.5582h-.8209v1.942h.8209v-1.942Z" style="fill:#30373e; stroke-width:0px;"/><path d="m287.0934,224.2848h-.8209v1.932h.8209v-1.932Z" style="fill:#30373e; stroke-width:0px;"/><path d="m291.9384,229.6971l-.2636-.1335c-.6114-.3147-1.1827-.7078-1.6684-1.1946s-.8785-1.0578-1.1946-1.6684l-.1335-.2636,5.3389-5.3389.2636.1235c.6127.3042,1.185.6905,1.6684,1.1746.4941.4948.8941,1.0753,1.2179,1.6951l.1335.2636-5.3622,5.3422Zm-2.2557-3.1099c.2484.4379.5439.8497.9009,1.2046.3562.3541.7665.6493,1.2012.9009l4.4813-4.4813c-.2585-.4444-.562-.8632-.9243-1.2279-.3458-.3482-.747-.6367-1.1746-.8776l-4.4846,4.4813Z" style="fill:#30373e; stroke-width:0px;"/><path d="m292.8193,226.9342l-1.3781-1.3814-.5773.5806,1.3781,1.3781.5773-.5773Z" style="fill:#30373e; stroke-width:0px;"/><path d="m293.9772,225.3659l-.9743-.971.5973-1.0811c.3227.1394.6118.3465.8475.6073.2593.2371.4662.5258.6073.8475l-1.0778.5973Z" style="fill:#30373e; stroke-width:0px;"/><path d="m295.0249,228.6793v4.1009h.8209v-4.9217l-.8209.8208Z" style="fill:#30373e; stroke-width:0px;"/><path d="m287.0934,221.0114h-.8209v1.922h.8209v-1.922Z" style="fill:#30373e; stroke-width:0px;"/><path d="m295.0249,217.738v1.9153l.8209.8209v-2.7362h-.8209Z" style="fill:#30373e; stroke-width:0px;"/><path d="m287.0934,217.738h-.8209v1.9153h.8209v-1.9153Z" style="fill:#30373e; stroke-width:0px;"/><path d="m325.0359,232.7802h-.8175v-4.7449c-.498-.1317-1.0098-.2125-1.5249-.2136-.4909-.001-.9787.0782-1.4515.2102v4.7482h-.8208v-5.3389l.2736-.1001c.6465-.2124,1.3216-.3351,2.0021-.3337.6999.0015,1.3943.1244,2.0621.3337l.2803.0901v5.3389l-.0034.01Z" style="fill:#30373e; stroke-width:0px;"/><path d="m323.3976,230.4745h-1.3647l-.3337-1.1879c.6679-.2314,1.3942-.2314,2.0621,0l-.3637,1.1879Z" style="fill:#30373e; stroke-width:0px;"/><path d="m316.5872,227.8318l-.4605-.6674c.6847-.4582,1.0954-1.2282,1.0945-2.0521h.8075c.0028,1.0901-.5377,2.1099-1.4415,2.7195Z" style="fill:#30373e; stroke-width:0px;"/><path d="m317.4514,229.3066l-.4605-.6674c1.1741-.7848,1.8779-2.1048,1.8753-3.517h.8309c-.0037,1.682-.846,3.2514-2.2456,4.1843Z" style="fill:#30373e; stroke-width:0px;"/><path d="m313.6542,226.1634c-.6888-.0015-1.3717-.1272-2.0288-.3337l-.2803-.0934v-7.5411l.2736-.0968c.6461-.2142,1.3214-.3368,2.0021-.3337.6998.0032,1.3939.1258,2.0621.3337l.2836.0934v7.5445l-.2836.0934c-.6564.2095-1.3397.3352-2.0287.3337Zm-1.4882-1.0377c.9717.2847,2.0047.2847,2.9764,0v-6.3399c-.4968-.1317-1.0076-.2125-1.5216-.2136-.492-.001-.9809.0783-1.4548.2102v6.3432Z" style="fill:#30373e; stroke-width:0px;"/><path d="m314.6319,223.1403h-1.942v.8175h1.952l-.01-.8175Z" style="fill:#30373e; stroke-width:0px;"/><path d="m314.3582,221.2116h-1.3781l-.3337-1.1879c.6679-.2314,1.3942-.2314,2.0621,0l-.3504,1.1879Z" style="fill:#30373e; stroke-width:0px;"/><path d="m0,12.42C.0092,5.5873,5.5468.0512,12.3795.0438h620.2444c6.8321.0074,12.3687,5.544,12.3761,12.3761v219.8305c-.0074,6.8326-5.5435,12.3702-12.3761,12.3795h-265.401l-4.7082-4.3378h270.1092c4.4384-.0055,8.0346-3.6032,8.0383-8.0416V12.42c-.0037-4.4379-3.6004-8.0346-8.0383-8.0383H12.3795c-4.4385.0037-8.0361,3.5999-8.0416,8.0383H0Z" style="fill:#cfd2d4; stroke-width:0px;"/><path d="m12.3795.0438C5.5468.0512.0092,5.5873,0,12.42v219.8305c.0074,6.8339,5.5455,12.3721,12.3795,12.3795h3.0298v-4.3378h-3.0298c-4.439-.0055-8.0361-3.6026-8.0416-8.0416V12.42c.0055-4.4384,3.6032-8.0346,8.0416-8.0383V.0438Z" style="fill:#cfd2d4; stroke-width:0px;"/><path d="m180.5733,154.7037c-1.1061.0442-2.0446-.8013-2.0972-1.907s.8012-2.0446,1.907-2.0972l22.1796-2.1689c1.1011-.1078,2.0811.6974,2.1889,1.7985.1078,1.1011-.6974,2.0811-1.7985,2.1889,0,0-22.3139,2.183-22.3798,2.1856Z" style="fill:#cfd2d4; stroke-width:0px;"/><path d="m3.914,64.1067c-1.1057.0054-2.0077-.8837-2.0147-1.9894-.0054-.858.5367-1.6234,1.3473-1.9046,7.6399-2.6506,15.6679-4.0102,23.7546-4.0041h206.053c1.1057,0,2.0021.8964,2.0021,2.0021s-.8964,2.0021-2.0021,2.0021H27.0112c-7.6389-.0052-15.2291,1.2591-22.4399,3.7806-.2114.0739-.4334.1123-.6573.1134Z" style="fill:#cfd2d4; stroke-width:0px;"/><path d="m46.4146,60.206c-1.1057,0-2.0021-.8964-2.0021-2.0021v-11.315c.0001-2.0412-.5472-4.045-1.585-5.8027l-3.6037-6.113c-.8768-1.4818-2.4693-2.3922-4.191-2.3958H2.1689c-1.1057,0-2.0021-.8964-2.0021-2.0021s.8964-2.0021,2.0021-2.0021h32.874c3.1381.007,6.041,1.665,7.6412,4.3645l3.6037,6.1163c1.3956,2.375,2.1306,5.0801,2.1289,7.8348v11.315c0,1.1057-.8964,2.0021-2.0021,2.0021Z" style="fill:#cfd2d4; stroke-width:0px;"/><path d="m158.8976,42.5645H53.4552c-1.1057,0-2.0021-.8964-2.0021-2.0021V2.2127c0-1.1057.8964-2.0021,2.0021-2.0021s2.0021.8964,2.0021,2.0021v36.3476h101.4382V2.2127c0-1.1057.8964-2.0021,2.0021-2.0021s2.0021.8964,2.0021,2.0021v38.3496c0,1.1057-.8964,2.0021-2.0021,2.0021Z" style="fill:#cfd2d4; stroke-width:0px;"/><path d="m101.3548,76.7364v64.2631c-1.3979.5122-2.7396,1.1663-4.0041,1.952v-66.0683l-2.5727-18.3923c-.0104-.092-.016-.1844-.0167-.277v-17.6049l-1.7385-38.3063c-.0498-1.1057.8063-2.0424,1.912-2.0922,1.1057-.0498,2.0424.8063,2.0922,1.912,0,0,1.7351,38.4097,1.7351,38.4397v17.5014l2.576,18.409c.0116.0874.0171.1755.0167.2636Z" style="fill:#cfd2d4; stroke-width:0px;"/><path d="m99.3527,117.4252h-22.4132c-1.1057,0-2.0021-.8964-2.0021-2.0021s.8964-2.0021,2.0021-2.0021h22.4132c1.1057,0,2.0021.8964,2.0021,2.0021s-.8964,2.0021-2.0021,2.0021Z" style="fill:#cfd2d4; stroke-width:0px;"/><path d="m158.8976,74.7344h-59.5449c-1.1057,0-2.0021.8964-2.0021,2.0021s.8964,2.0021,2.0021,2.0021h9.1428v60.9196h.4505c1.1904-.0006,2.3789.0948,3.5537.287v-61.2066h44.3959v100.2269h-34.2254c-2.3123,1.8494-4.9752,3.2115-7.8281,4.0041h44.0455c1.1057,0,2.0021-.8964,2.0021-2.0021v-104.2311c0-1.1018-.8903-1.9966-1.9921-2.0021Z" style="fill:#cfd2d4; stroke-width:0px;"/><path d="m180.5766,99.3765h-21.6891c-1.1057,0-2.0021-.8964-2.0021-2.0021s.8964-2.0021,2.0021-2.0021h21.6891c1.1057,0,2.0021.8964,2.0021,2.0021s-.8964,2.0021-2.0021,2.0021Z" style="fill:#cfd2d4; stroke-width:0px;"/><path d="m180.5766,154.7037h-21.6891c-1.1057,0-2.0021-.8964-2.0021-2.0021s.8964-2.0021,2.0021-2.0021h21.6891c1.1057,0,2.0021.8964,2.0021,2.0021s-.8964,2.0021-2.0021,2.0021Z" style="fill:#cfd2d4; stroke-width:0px;"/><path d="m180.5766,202.5698c-1.1057,0-2.0021-.8964-2.0021-2.0021V2.2127c0-1.1057.8964-2.0021,2.0021-2.0021s2.0021.8964,2.0021,2.0021v198.355c0,1.1057-.8964,2.0021-2.0021,2.0021Z" style="fill:#cfd2d4; stroke-width:0px;"/><path d="m233.0542,162.4016h-27.5985c-2.4515-.0115-4.4528-1.9641-4.5247-4.4146l-.9276-39.374c-.0834-3.5236,0-7.0907.2202-10.6076l1.1112-17.101c.2417-3.6964,1.812-7.1807,4.4212-9.8101l25.9268-24.3585c.8063-.7574,2.0738-.7178,2.8313.0884s.7178,2.0738-.0884,2.8313l-25.8434,24.2918c-1.9137,1.9403-3.065,4.5047-3.2433,7.2241l-1.1112,17.101c-.2202,3.4002-.2936,6.8471-.2102,10.2539l.9276,39.374c.0037.2838.2367.5109.5204.5072h27.5986c1.1057,0,2.0021.8964,2.0021,2.0021s-.8964,2.0021-2.0021,2.0021l-.01-.01Z" style="fill:#cfd2d4; stroke-width:0px;"/><path d="m180.5733,179.8597c-1.1057.0359-2.0312-.8313-2.0671-1.937-.0359-1.1057.8313-2.0312,1.937-2.0671l52.4976-3.4702c1.1057-.0728,2.0611.7646,2.1339,1.8703s-.7645,2.0611-1.8703,2.1339l-52.6311,3.4702Z" style="fill:#cfd2d4; stroke-width:0px;"/><circle cx="108.9493" cy="161.7076" r="13.821" style="fill:#cfd2d4; stroke-width:0px;"/><path d="m108.3854,154.8705c.1067-.2709.4129-.404.6838-.2972.136.0536.2436.1612.2972.2972l4.9117,12.2426c.1114.269-.0163.5774-.2853.6888-.1643.0681-.3519.0487-.4988-.0515l-3.7339-2.4825c-.5358-.3558-1.2327-.3558-1.7685,0l-3.7339,2.4992c-.2405.1641-.5686.1021-.7326-.1385-.1002-.1469-.1196-.3345-.0515-.4988l4.9117-12.2593Z" style="fill:#f4f4f4; stroke-width:0px;"/><path d="m42.237,284.0974c.2736-.7908.4071-1.268.4471-1.4181l.0767-.2002-1.7118-8.5088-1.2847-.5706,2.9364-2.9364-1.2313-1.2313-3.3968,3.4135-1.5783-.6974c1.5594-.5648,2.3657-2.2869,1.8009-3.8463-.5648-1.5594-2.2869-2.3657-3.8463-1.8009s-2.3657,2.2869-1.8009,3.8463c.3034.8377.9632,1.4974,1.8009,1.8009l-4.5781,2.0021-1.7051,8.5155.0167.0467-3.7205,3.7238,1.1345,1.318c1.1459-.7718,2.3777-1.4078,3.6705-1.8953.03.0801.0634.1635.0968.2436l.2102.5339c.7675,1.8719,1.6984,3.8573,2.7695,5.8961h1.9654c-.9076-1.6984-1.7218-3.3535-2.4258-4.9384,2.2849-1.0206,4.8928-1.0376,7.1908-.0467-.7107,1.6083-1.5316,3.2767-2.4425,4.9852h1.9654c1.0678-2.0454,2.0076-4.0452,2.7795-5.9361.0571-.14.2669-.6707.2669-.6707,1.1467.4694,2.2279,1.0851,3.2167,1.8319l1.1178-1.3347c-1.1435-.8767-2.4021-1.5919-3.7405-2.1255Zm-5.499-10.1271l-6.3699,6.3699-.4071,2.0288v.02c.04.1401.1034.3537.1935.6273l8.2852-8.3019-1.7018-.7441Zm-6.42,9.5165c3.3556-1.0078,6.935-.9962,10.284.0334-.1535.4438-.3504,1.001-.6073,1.635-2.9574-.8892-6.1095-.8997-9.0727-.03-.2669-.6507-.4638-1.1979-.614-1.6384h.01Z" style="fill:#bb2025; fill-rule:evenodd; stroke-width:0px;"/><path d="m185.9155,273.4431c1.5019,0,2.7195-1.2176,2.7195-2.7195s-1.2175-2.7195-2.7195-2.7195-2.7195,1.2175-2.7195,2.7195,1.2175,2.7195,2.7195,2.7195Z" style="fill:#bb2025; stroke-width:0px;"/><path d="m176.8828,281.9719l-2.8429-.8042c-.9008-.2614-1.8553.1893-2.2256,1.0511l-3.0899,6.9839c-.4307.956-.0049,2.0802.9511,2.511.0165.0075.0332.0147.0499.0216.2288.1195.4826.1852.7408.1869.7448.0047,1.4213-.4341,1.7318-1.1112l2.4091-5.5024,3.2167.8642-.941-4.201Z" style="fill:#bb2025; stroke-width:0px;"/><path d="m185.0513,275.6654c-.9577-.436-2.0878-.0009-2.5179.9594-.0062.0138-1.2527,2.9446-1.2527,2.9446.1425.1953.228.4263.2469.6674l1.1746,5.439,3.2767-7.5411c.4178-.9383.0071-2.0436-.9276-2.4692Z" style="fill:#bb2025; stroke-width:0px;"/><path d="m181.5877,292.733c-.3735-.0076-.6984-.258-.8008-.6173l-2.1022-8.9626c-.1192-.4393.1403-.8921.5796-1.0112s.8919.1404,1.0112.5796c.0055.0202.0102.0407.0141.0612l2.1022,8.9593c.1063.4464-.1702.8946-.6166,1.0009l-.1876-.0098Z" style="fill:#bb2025; stroke-width:0px;"/><path d="m188.9453,276.4095c-.2894.0025-.5521-.1683-.6674-.4338-.2301-.3603-.1246-.839.2357-1.0691.0241-.0154.049-.0294.0746-.042l6.0062-3.5236c.3819-.2407.8868-.1263,1.1275.2557s.1262.8866-.2557,1.1275c-.0219.0138-.0445.0266-.0677.0383l-6.0563,3.5837c-.1243.0562-.2614.0781-.3971.0634Z" style="fill:#bb2025; stroke-width:0px;"/><path d="m173.7396,266.3958c-3.448.0032-6.2431,2.7951-6.2431,6.2431s2.7951,6.2431,6.2431,6.2431,6.2385-2.7951,6.2431-6.2431c.0046-3.4388-2.7709-6.2354-6.2097-6.2431-.0111,0-.0223,0-.0334,0Z" style="fill:#bb2025; stroke-width:0px;"/><path d="m221.1352,264.5772c-5.1727,5.1743-5.1727,13.5618,0,18.736l1.3114-1.3114c-4.4505-4.4496-4.4504-11.6654-.0008-16.1159l-1.3106-1.3088Zm22.6234,9.3663c.0004,3.5154-1.3908,6.888-3.8807,9.3697l-1.3114-1.3114c4.4505-4.447,4.4533-11.6599.0063-16.1104l-.0063-.0063,1.3114-1.3114c2.4893,2.4821,3.8803,5.8544,3.8807,9.3697Z" style="fill:#bb2025; fill-rule:evenodd; stroke-width:0px;"/><path d="m230.5083,266.5259c-4.0967,0-7.4177,3.321-7.4177,7.4177s3.321,7.4177,7.4177,7.4177c4.0967,0,7.4177-3.321,7.4177-7.4177s-3.321-7.4177-7.4177-7.4177Zm-9.2696,7.4177c0-5.1213,4.1516-9.2729,9.2729-9.2729s9.2729,4.1516,9.2729,9.2729-4.1516,9.2729-9.2729,9.2729h-.0033c-5.1194,0-9.2696-4.1501-9.2696-9.2696v-.0033Z" style="fill:#bb2025; fill-rule:evenodd; stroke-width:0px;"/><path d="m238.5632,293.1835c-1.4249,1.2288-3.5765,1.0686-4.8048-.3567s-1.0686-3.5765.3567-4.8048c1.3182-1.1361,3.2802-1.0954,4.5516.0929.3054.2854.5556.6247.7374,1.001h-2.4992c-.2554.0018-.462.2084-.4638.4638v2.1522c.0018.2554.2084.462.4638.4638h2.4492c-.2007.375-.4687.7099-.7908.9877Z" style="fill:#bb2025; stroke-width:0px;"/><path d="m233.6548,289.0859h-10.4942c-.8505.0396-1.5078.7612-1.4682,1.6117.037.795.6732,1.4311,1.4682,1.4682h10.4942v-3.0798Z" style="fill:#bb2025; stroke-width:0px;"/><path d="m233.3145,272.6523c0,1.3347-.971,2.299-2.5159,2.299h-.9009v2.546h-1.4048v-7.1574h2.299c1.5516,0,2.5226.951,2.5226,2.3124Zm-3.4102,1.001h.9009c.6674,0,1.0811-.357,1.0811-1.001s-.4204-1.001-1.0811-1.001h-.9009v2.0021Z" style="fill:#bb2025; stroke-width:0px;"/><path d="m336.9783,271.6646l-2.7996-4.8283c-.1935-.3804-.6307-.8209-1.595-.8209h-6.5835c-.4976.0598-.9304.3692-1.1478.8209l-2.8196,4.8283h-2.0488v1.4482h1.9854v7.3976h1.4515v-2.4592h12.0791v2.4525h1.4515v-7.391h1.9787v-1.4482h-1.952Zm-10.8646-4.1176l.0233-.0467c.0056-.0115.0136-.0217.0233-.03h6.4133c.1031.0015.2059.0126.307.0334l2.4192,4.1643h-11.5786l2.3925-4.1209Z" style="fill:#d48228; stroke-width:0px;"/><path d="m325.4363,282.4457h-1.4014c1.0678.604,2.0621,1.4348,2.0654,1.9086-.1769.4538-2.2421,1.0818-3.4736,1.4548-2.6923.8156-5.2439,1.5884-5.2288,3.4002.0044.5326.1415,1.0557.3871,1.5283.5884,1.1323,1.7639,1.837,3.0398,1.8219h.7208c-1.3681-.9477-2.6961-2.1856-2.6961-3.3368,0-.7374,2.6275-1.53,4.1977-2.0021,2.515-.7562,4.5056-1.3681,4.498-2.8162-.0008-.1586-.0183-.3174-.0601-.4705-.248-.9074-1.1084-1.511-2.0487-1.4882Z" style="fill:#d48228; stroke-width:0px;"/><path d="m336.6913,282.4457h-1.4515c1.0678.6674,2.0588,1.5316,2.1856,2.0688-.3337.2836-1.6654.6766-2.5393.9543-2.6606.8456-5.6793,1.7485-5.6725,3.9841.0009.3031.0506.6046.1501.8909.4725,1.359,1.7782,2.2502,3.2167,2.219h.5105c-1.3681-1.0644-2.4258-2.2023-2.4258-3.1099,0-1.1645,2.7925-2.0268,4.6415-2.596,2.075-.6388,3.5896-1.1013,3.5703-2.239-.0074-.4376-.1637-.8565-.4104-1.2179-.403-.5904-1.0604-.956-1.7752-.9543Z" style="fill:#d48228; stroke-width:0px;"/><path d="m433.8985,290.5107h-16.1601l-.2035-.1368c-3.9107-2.6694-4.2811-4.4112-4.2811-11.3451,0-4.5047,1.576-7.0045,2.7228-8.8325.556-.8863,1.001-1.585,1.001-2.1556v-2.6694h1.6017v2.6694c0,1.0311-.5767,1.9457-1.2379,3.0031-1.0436,1.6689-2.4759,3.9407-2.4759,7.9849,0,6.49.2136,7.6746,3.3768,9.8835h15.1657c3.1466-2.1923,3.3768-3.4903,3.3768-9.8835,0-4.0342-1.477-6.3556-2.5393-8.065-.6751-1.0864-1.228-1.952-1.228-2.923v-2.6694h1.6017v2.6694c0,.5139.4361,1.2031.9843,2.0688,1.1159,1.7622,2.7862,4.4279,2.7862,8.9259,0,6.5368-.1835,8.5488-4.2811,11.3451l-.2102.1301Z" style="fill:#d48228; stroke-width:0px;"/><path d="m419.1332,290.2538h-1.605v2.943h1.605v-2.943Z" style="fill:#d48228; stroke-width:0px;"/><path d="m434.1053,290.2538h-1.605v2.943h1.605v-2.943Z" style="fill:#d48228; stroke-width:0px;"/><path d="m430.3648,290.2538h-1.605v2.943h1.605v-2.943Z" style="fill:#d48228; stroke-width:0px;"/><path d="m426.6209,290.2538h-1.605v2.943h1.605v-2.943Z" style="fill:#d48228; stroke-width:0px;"/><path d="m422.8771,290.2538h-1.6017v2.943h1.6017v-2.943Z" style="fill:#d48228; stroke-width:0px;"/><path d="m426.6209,275.2783h-1.605v4.8116h1.605v-4.8116Z" style="fill:#d48228; stroke-width:0px;"/><path d="m426.6209,281.6949h-1.605v1.605h1.605v-1.605Z" style="fill:#d48228; stroke-width:0px;"/><path d="m514.8154,289.6298h-1.5149v3.567h1.5149v-3.567Z" style="fill:#d48228; stroke-width:0px;"/><path d="m514.8154,283.5435h-1.5149v3.5837h1.5149v-3.5837Z" style="fill:#d48228; stroke-width:0px;"/><path d="m514.8154,277.4906h-1.5149v3.5637h1.5149v-3.5637Z" style="fill:#d48228; stroke-width:0px;"/><path d="m523.778,287.4909l-.4905-.2402c-2.3041-1.1339-4.1683-2.9981-5.3022-5.3022l-.2402-.4905,9.8535-9.8535.4872.2269c1.1253.5614,2.1737,1.2765,3.0598,2.1689.9112.9176,1.6534,1.9889,2.2557,3.1332l.2469.4905-9.8702,9.8669Zm-4.1743-5.7426c.8976,1.6419,2.2481,2.9912,3.8907,3.8874l8.2819-8.2819c-.4754-.8238-1.0365-1.5992-1.7084-2.2723-.6403-.6414-1.3808-1.1742-2.1689-1.6217l-8.2952,8.2886Z" style="fill:#d48228; stroke-width:0px;"/><path d="m525.4064,282.389l-2.5493-2.5493-1.0711,1.0711,2.5493,2.5493,1.0711-1.0711Z" style="fill:#d48228; stroke-width:0px;"/><path d="m527.5453,279.486l-1.7952-1.7952,1.1012-2.0021c.5975.2562,1.1326.6386,1.5683,1.1212.4797.4383.8616.9726,1.1212,1.5683l-1.9954,1.1078Z" style="fill:#d48228; stroke-width:0px;"/><path d="m529.4806,285.609v7.5878h1.5183v-9.1028l-1.5183,1.5149Z" style="fill:#d48228; stroke-width:0px;"/><path d="m514.8154,271.4343h-1.5149v3.557h1.5149v-3.557Z" style="fill:#d48228; stroke-width:0px;"/><path d="m529.4806,265.3714v3.5403l1.5183,1.5182v-5.0586h-1.5183Z" style="fill:#d48228; stroke-width:0px;"/><path d="m514.8154,265.3714h-1.5149v3.5403h1.5149v-3.5403Z" style="fill:#d48228; stroke-width:0px;"/><path d="m584.9379,293.1968h-1.5149v-8.7724c-.919-.2472-1.8645-.3978-2.8162-.4004-.9086-.0025-1.8115.1442-2.6861.3904v8.7757h-1.5183v-9.8735l.5072-.1835c1.1948-.3939,2.4424-.6268,3.7005-.624,1.2945.0029,2.5783.235,3.814.6206l.5206.1702v9.8969h-.0067Z" style="fill:#d48228; stroke-width:0px;"/><path d="m581.9415,288.9291h-2.546l-.634-2.1956c1.2351-.4225,2.5755-.4225,3.8106,0l-.6307,2.1956Z" style="fill:#d48228; stroke-width:0px;"/><path d="m569.3451,284.0574l-.8476-1.258c1.2655-.8474,2.0243-2.2709,2.0221-3.7939h1.5149c.0065,2.0282-1.0032,3.9249-2.6895,5.0519Z" style="fill:#d48228; stroke-width:0px;"/><path d="m570.9568,286.7702l-.8509-1.258c2.1697-1.4511,3.4717-3.8898,3.4703-6.5h1.5149c.0071,3.1149-1.5447,6.0269-4.1343,7.758Z" style="fill:#d48228; stroke-width:0px;"/><path d="m563.9262,280.9308c-1.2749-.001-2.5385-.2391-3.7539-.624l-.5139-.1769v-13.9377l.5072-.1835c1.1943-.3965,2.4421-.6304,3.7005-.6273,1.2936.0031,2.5765.2362,3.8106.624l.5206.1702v13.9511l-.5206.1702c-1.2125.3933-2.4758.635-3.7505.634Zm-2.7428-1.9186c1.7948.5295,3.6975.5295,5.4923,0v-11.7121c-.919-.2474-1.8645-.3986-2.8162-.4004-.9031-.0017-1.8069.1453-2.6761.3904v11.7221Z" style="fill:#d48228; stroke-width:0px;"/><path d="m565.7314,275.3817h-3.6104v1.5116h3.6104v-1.5116Z" style="fill:#d48228; stroke-width:0px;"/><path d="m565.2008,271.8047h-2.5426l-.634-2.1956c1.2362-.4225,2.5777-.4225,3.814,0l-.6373,2.1956Z" style="fill:#d48228; stroke-width:0px;"/><path d="m320.4045,209.5404h11.1949c.4442.0019.8694.1808,1.1812.4972l42.2737,43.0445c.3137.3201.743.5005,1.1912.5005h214.9155c.9136.011,1.6484.7547,1.6484,1.6684v45.6138c0,.9124-.7328,1.654-1.6451,1.6667H17.0743c-.9214,0-1.6684-.7486-1.6684-1.6701v-89.6827c0-.903.732-1.635,1.635-1.635h9.1828" style="fill:none; stroke:#30373e; stroke-miterlimit:3; stroke-width:.7841px;"/><path d="m299.5029,147.4266c.0514.1113.1346.1113.186,0l.536-1.161c.0514-.1113.0514-.2916,0-.4029l-.536-1.161c-.0514-.1113-.1346-.1113-.186,0l-.536,1.161c-.0514.1113-.0514.2916,0,.4029l.536,1.161Z" style="fill:none; stroke:#cfd2d4; stroke-miterlimit:10; stroke-width:.5px;"/><path d="m349.1535,147.4266c-.0514.1113-.1346.1113-.186,0l-.536-1.161c-.0514-.1113-.0514-.2916,0-.4029l.536-1.161c.0514-.1113.1346-.1113.186,0l.536,1.161c.0514.1113.0514.2916,0,.4029l-.536,1.161Z" style="fill:none; stroke:#cfd2d4; stroke-miterlimit:10; stroke-width:.5px;"/><path d="m353.8274,111.1432c-1.1821.5635-2.498.6551-2.7398.6639,0,0-1.7293.7867-4.2691,1.3134" style="fill:none; stroke:#cfd2d4; stroke-linecap:round; stroke-linejoin:round; stroke-width:.5px;"/><path d="m297.4807,115.1492c.6287.113,2.339.6261,4.2504.6762" style="fill:none; stroke:#cfd2d4; stroke-linecap:round; stroke-linejoin:round; stroke-width:.5px;"/><path d="m351.0695,115.1492c-.6287.113-2.339.6261-4.2504.6762" style="fill:none; stroke:#cfd2d4; stroke-linecap:round; stroke-linejoin:round; stroke-width:.5px;"/><path d="m343.6857,102.9246c0-.3473-.2838-.6289-.634-.6289s-.634.2816-.634.6289v2.6568c0,.3473.2838.6289.634.6289s.634-.2816.634-.6289v-2.6568Z" style="fill:none; stroke:#cfd2d4; stroke-linecap:round; stroke-linejoin:round; stroke-width:.5px;"/><line x1="343.6857" y1="104.253" x2="342.4178" y2="104.253" style="fill:none; stroke:#cfd2d4; stroke-linecap:round; stroke-linejoin:round; stroke-width:.5px;"/><path d="m304.865,102.9246c0-.3473.2838-.6289.634-.6289s.634.2816.634.6289v2.6568c0,.3473-.2838.6289-.634.6289s-.634-.2816-.634-.6289v-2.6568Z" style="fill:none; stroke:#cfd2d4; stroke-linecap:round; stroke-linejoin:round; stroke-width:.5px;"/><line x1="304.865" y1="104.253" x2="306.1329" y2="104.253" style="fill:none; stroke:#cfd2d4; stroke-linecap:round; stroke-linejoin:round; stroke-width:.5px;"/><path d="m294.638,82.195c-.0334-6.403-.9261-12.3762-.9261-15.7118,0-1.5451.309-12.6699.3605-16.4297.0515-3.7598,2.1632-7.6741,2.6782-8.8071s1.3904-1.8059,3.0902-3.1932,3.0387-2.5752,5.2019-3.2962c3.5538-1.1331,11.4491-2.5237,19.2326-2.5237,7.7835,0,15.6789,1.3906,19.2326,2.5237,2.1632.7211,3.5021,1.9089,5.2019,3.2962s2.5752,2.0601,3.0902,3.1932c.515,1.1331,2.6267,5.0474,2.6782,8.8071.0515,3.7598.3605,14.8846.3605,16.4297,0,3.3357-.8927,9.3088-.9261,15.7118" style="fill:none; stroke:#cfd2d4; stroke-linecap:round; stroke-miterlimit:10; stroke-width:.5px;"/><path d="m292.815,83.4735s1.823-1.2784,3.0477-1.1069c.5585.0783.4262.8608.4262,1.3742s-.1247,2.0998-.1247,2.0998" style="fill:none; stroke:#cfd2d4; stroke-linecap:round; stroke-linejoin:round; stroke-width:.5px;"/><path d="m297.6674,82.9955c-.2115.2809-.6902,1.1019-1.0848,1.5485-.3774.4271-.4152,1.1642-.4718,1.988s-.4152.8986-.9247,1.1233-4.6047,1.7785-5.0388,1.8534-.6605-.1685-.6983-1.2918,0-1.6662,1.0191-2.8082c.8804-.9866,3.3272-2.6217,4.6138-3.5224.3296-.2308.6021-.5377.7903-.8933l1.9926-3.7641" style="fill:none; stroke:#cfd2d4; stroke-linecap:round; stroke-linejoin:round; stroke-width:.5px;"/><path d="m355.7357,83.4735s-1.823-1.2784-3.0477-1.1069c-.5585.0783-.4262.8608-.4262,1.3742s.1247,2.0998.1247,2.0998" style="fill:none; stroke:#cfd2d4; stroke-linecap:round; stroke-linejoin:round; stroke-width:.5px;"/><path d="m350.8833,82.9955c.2115.2809.6902,1.1019,1.0848,1.5485.3774.4271.4152,1.1642.4718,1.988s.4152.8986.9247,1.1233,4.6047,1.7785,5.0388,1.8534.6605-.1685.6983-1.2918,0-1.6662-1.0191-2.8082c-.8804-.9866-3.3272-2.6217-4.6138-3.5224-.3296-.2308-.6021-.5377-.7903-.8933l-1.9926-3.7641" style="fill:none; stroke:#cfd2d4; stroke-linecap:round; stroke-linejoin:round; stroke-width:.5px;"/><path d="m354.095,77.1169c-.0641-.0333-.1304-.0638-.1989-.0911-.2833-.1131-.7609-.2344-1.4367-.1767-.9018.0769-1.7805.4597-1.7805.4597" style="fill:none; stroke:#cfd2d4; stroke-linecap:round; stroke-linejoin:round; stroke-width:.5px;"/><path d="m346.8093,110.529s2.3503-.8344,4.2866-2.2698" style="fill:none; stroke:#cfd2d4; stroke-linecap:round; stroke-linejoin:round; stroke-width:.5px;"/><path d="m345.6893,35.7709s1.1869,24.2736,1.4017,30.1202c.1378,3.7494,1.3773,5.6285,2.3913,7.5221" style="fill:none; stroke:#cfd2d4; stroke-linecap:round; stroke-linejoin:round; stroke-width:.5px;"/><path d="m350.8209,39.8662s.5678,24.5004.6434,26.6025c.0795,2.2093.2643,3.6923-.7149,5.0998-.6334.9105-1.0563,1.5182-1.2759,1.8338" style="fill:none; stroke:#cfd2d4; stroke-linecap:round; stroke-linejoin:round; stroke-width:.5px;"/><line x1="345.3806" y1="93.827" x2="349.4823" y2="73.4132" style="fill:none; stroke:#cfd2d4; stroke-linecap:round; stroke-linejoin:round; stroke-width:.5px;"/><line x1="350.6789" y1="77.3087" x2="346.7469" y2="97.339" style="fill:none; stroke:#cfd2d4; stroke-linecap:round; stroke-linejoin:round; stroke-width:.5px;"/><path d="m294.4557,77.1169c.0641-.0333.1304-.0638.1989-.0911.2833-.1131.7609-.2344,1.4367-.1767.9018.0769,1.7805.4597,1.7805.4597" style="fill:none; stroke:#cfd2d4; stroke-linecap:round; stroke-linejoin:round; stroke-width:.5px;"/><path d="m294.7233,111.1432s.6866.3219,1.4369.4828,1.3027.1811,1.3027.1811c.0461.021,1.7169.7781,4.2797,1.3155" style="fill:none; stroke:#cfd2d4; stroke-linecap:round; stroke-linejoin:round; stroke-width:.5px;"/><path d="m301.7534,110.5333c-.0497-.0176-2.3765-.8491-4.2987-2.2741" style="fill:none; stroke:#cfd2d4; stroke-linecap:round; stroke-linejoin:round; stroke-width:.5px;"/><path d="m309.3863,37.1085c-.6437,8.2665-.5082,18.6665-.4077,23.1355.0269,1.1938,1.0488,2.1261,2.2502,2.0509,2.6027-.1628,7.3575-.3953,13.0465-.3953s10.4438.2326,13.0465.3953c1.2013.0751,2.2233-.8571,2.2502-2.0509.1005-4.469.2361-14.8689-.4077-23.1355" style="fill:none; stroke:#cfd2d4; stroke-linecap:round; stroke-linejoin:round; stroke-width:.5px;"/><path d="m302.8614,35.7709s-1.1869,24.2736-1.4017,30.1202c-.1378,3.7494-1.3686,5.6175-2.3826,7.5112" style="fill:none; stroke:#cfd2d4; stroke-linecap:round; stroke-linejoin:round; stroke-width:.5px;"/><path d="m297.7298,39.8662s-.5678,24.5004-.6434,26.6025c-.0795,2.2093-.2643,3.6923.7149,5.0998.6334.9105,1.0563,1.5182,1.2759,1.8338" style="fill:none; stroke:#cfd2d4; stroke-linecap:round; stroke-linejoin:round; stroke-width:.5px;"/><line x1="303.1701" y1="93.827" x2="299.0772" y2="73.4024" style="fill:none; stroke:#cfd2d4; stroke-linecap:round; stroke-linejoin:round; stroke-width:.5px;"/><line x1="297.8718" y1="77.3087" x2="301.8038" y2="97.339" style="fill:none; stroke:#cfd2d4; stroke-linecap:round; stroke-linejoin:round; stroke-width:.5px;"/><path d="m322.9309,34.4558c-.1014-.0815-.1014-.2148,0-.2963l1.154-.9278c.1014-.0815.2672-.0815.3686,0l1.154.9278c.1014.0815.1014.2148,0,.2963l-1.154.9278c-.1014.0815-.2672.0815-.3686,0l-1.154-.9278Z" style="fill:none; stroke:#cfd2d4; stroke-linecap:round; stroke-linejoin:round; stroke-width:.5px;"/><path d="m343.5891,131.428c0-.3473-.2838-.6289-.634-.6289s-.634.2816-.634.6289v2.6568c0,.3473.2838.6289.634.6289s.634-.2816.634-.6289v-2.6568Z" style="fill:none; stroke:#cfd2d4; stroke-linecap:round; stroke-linejoin:round; stroke-width:.5px;"/><line x1="343.5891" y1="132.7564" x2="342.3212" y2="132.7564" style="fill:none; stroke:#cfd2d4; stroke-linecap:round; stroke-linejoin:round; stroke-width:.5px;"/><path d="m342.4457,154.8541c0-.3473-.2838-.6289-.634-.6289s-.634.2816-.634.6289v2.6568c0,.3473.2838.6289.634.6289s.634-.2816.634-.6289v-2.6568Z" style="fill:none; stroke:#cfd2d4; stroke-linecap:round; stroke-linejoin:round; stroke-width:.5px;"/><line x1="342.4457" y1="156.1825" x2="341.1778" y2="156.1825" style="fill:none; stroke:#cfd2d4; stroke-linecap:round; stroke-linejoin:round; stroke-width:.5px;"/><path d="m307.1225,154.8541c0-.3473-.2838-.6289-.634-.6289s-.634.2816-.634.6289v2.6568c0,.3473.2838.6289.634.6289s.634-.2816.634-.6289v-2.6568Z" style="fill:none; stroke:#cfd2d4; stroke-linecap:round; stroke-linejoin:round; stroke-width:.5px;"/><line x1="307.1225" y1="156.1825" x2="305.8546" y2="156.1825" style="fill:none; stroke:#cfd2d4; stroke-linecap:round; stroke-linejoin:round; stroke-width:.5px;"/><path d="m304.7652,131.428c0-.3473.2838-.6289.634-.6289s.634.2816.634.6289v2.6568c0,.3473-.2838.6289-.634.6289s-.634-.2816-.634-.6289v-2.6568Z" style="fill:none; stroke:#cfd2d4; stroke-linecap:round; stroke-linejoin:round; stroke-width:.5px;"/><line x1="304.7652" y1="132.7564" x2="306.0331" y2="132.7564" style="fill:none; stroke:#cfd2d4; stroke-linecap:round; stroke-linejoin:round; stroke-width:.5px;"/><path d="m295.9965,87.0652c-.0289,4.9191-.0563,37.9066.5771,57.9044.3501,11.0531,1.2959,30.5555,1.2959,30.5555" style="fill:none; stroke:#cfd2d4; stroke-linecap:round; stroke-linejoin:round; stroke-width:.5px;"/><path d="m293.4776,142.0668s1.6208.1517,3.0086.1517c3.0144-.4133,1.8182-.0053,5.6106.276" style="fill:none; stroke:#cfd2d4; stroke-linecap:round; stroke-linejoin:round; stroke-width:.5px;"/><path d="m346.6553,134.4629c2.6157-.2785,4.1433-.713,4.3643-.7715" style="fill:none; stroke:#cfd2d4; stroke-linecap:round; stroke-linejoin:round; stroke-width:.5px;"/><path d="m301.8954,134.4629c-2.6157-.2785-4.1433-.713-4.3643-.7715" style="fill:none; stroke:#cfd2d4; stroke-linecap:round; stroke-linejoin:round; stroke-width:.5px;"/><path d="m352.5542,87.0652c.0722,12.2647-.0262,20.8421-.0803,24.5282-.0015,18.4918-.2152,24.4857-.4968,33.3762-.3501,11.0531-1.2959,30.5555-1.2959,30.5555" style="fill:none; stroke:#cfd2d4; stroke-linecap:round; stroke-linejoin:round; stroke-width:.5px;"/><path d="m355.0731,142.0668s-1.6208.1517-3.0086.1517c-3.0046-.4119-1.8259-.0079-5.5738.2732" style="fill:none; stroke:#cfd2d4; stroke-linecap:round; stroke-linejoin:round; stroke-width:.5px;"/><path d="m345.4021,172.6692c-1.1.9809-2.2003.796-2.8178.8013-2.51.0214-9.5624.0739-18.309.0739s-15.799-.0525-18.309-.0739c-.6175-.0053-1.7177.1796-2.8178-.8013" style="fill:none; stroke:#cfd2d4; stroke-linecap:round; stroke-linejoin:round; stroke-width:.5px;"/><path d="m353.9198,87.8791l-.0002.0971s-.0407,18.1071-.061,20.5892c-.0037.4533-.0149,1.3688-.0312,2.5779-.0022,5.8114.016,12.9751.016,15.9053,0,3.1733.29,7.329.7462,9.9647.4562,2.6357.5069,3.9028.5069,8.2618v11.0393c0,2.9905-.9123,7.4503-1.9261,11.049-1.0137,3.5987-1.9257,8.132-3.5078,9.7429-.5429.5527-1.9531,2.0955-3.2349,2.4821-1.2631.3809-9.1489,2.5011-22.1524,2.5011s-20.8893-2.1202-22.1524-2.5011c-1.2817-.3866-2.692-1.9294-3.2349-2.4821-1.5822-1.6109-2.4941-6.1442-3.5078-9.7429s-1.9261-8.0585-1.9261-11.049v-11.0393c0-4.359.0507-5.6261.5069-8.2618s.7462-6.7914.7462-9.9647c0-36.136.019,2.7202-.0764-39.1694" style="fill:none; stroke:#cfd2d4; stroke-linecap:round; stroke-miterlimit:10; stroke-width:.5px;"/><path d="m302.2339,148.6151c-.6004.2044-1.3134.4665-1.8029.7086-1.0001.4946-1.4947.8093-1.4048,3.2373.0899,2.428.9333,16.9058,1.169,19.6185s.5714,5.6338,1.6636,6.6623c1.0922,1.0285,2.1667,1.2204,2.1667,1.2204" style="fill:none; stroke:#cfd2d4; stroke-linecap:round; stroke-linejoin:round; stroke-width:.5px;"/><polyline points="343.2991 164.3501 324.2753 164.3501 305.2515 164.3501" style="fill:none; stroke:#cfd2d4; stroke-linecap:round; stroke-linejoin:round; stroke-width:.5px;"/><polyline points="344.004 148.3804 324.2753 148.3804 304.5164 148.3804" style="fill:none; stroke:#cfd2d4; stroke-linecap:round; stroke-linejoin:round; stroke-width:.5px;"/><polyline points="344.2708 140.3175 324.2753 140.3175 304.2799 140.3175" style="fill:none; stroke:#cfd2d4; stroke-linecap:round; stroke-linejoin:round; stroke-width:.5px;"/><path d="m342.5846,173.4705c-.1966,1.1525-.4395,2.0487-.7282,2.8139-.1177.3118-.1617.4285-.7462.542-5.8434,1.1521-11.7001,1.426-16.8348,1.426s-10.9914-.2739-16.8348-1.426c-.5845-.1136-.6285-.2302-.7462-.542-.2888-.7652-.5316-1.6614-.7282-2.8139" style="fill:none; stroke:#cfd2d4; stroke-linecap:round; stroke-linejoin:round; stroke-width:.5px;"/><path d="m342.5846,173.4705c.0979-.574.1844-1.2116.2593-1.9283.2185-2.09.3111-4.5315.4552-7.394.3095-6.1479.7642-16.0123.9716-23.8308.3598-13.5564.3919-18.6414.3887-26.9687.0025-6.7312.0045-11.8334.0045-11.8334,0-1.4956-.1277-4.0985.7167-7.6883" style="fill:none; stroke:#cfd2d4; stroke-linecap:round; stroke-linejoin:round; stroke-width:.5px;"/><path d="m303.8868,101.5153s10.615-1.4562,20.3886-1.4562,20.3886,1.4562,20.3886,1.4562" style="fill:none; stroke:#cfd2d4; stroke-linecap:round; stroke-linejoin:round; stroke-width:.5px;"/><path d="m305.9661,173.4705c-.0979-.574-.1844-1.2116-.2594-1.9283-.2185-2.09-.3111-4.5315-.4552-7.394-.3095-6.1479-.7642-16.0123-.9716-23.8308-.4549-17.1411-.386-20.0172-.3931-38.8022,0-1.4956.1277-4.0985-.7167-7.6883" style="fill:none; stroke:#cfd2d4; stroke-linecap:round; stroke-linejoin:round; stroke-width:.5px;"/><polyline points="305.7067 171.5414 324.2753 171.5414 342.844 171.5414" style="fill:none; stroke:#cfd2d4; stroke-linecap:round; stroke-linejoin:round; stroke-width:.5px;"/><path d="m344.8762,179.9636l-.8719-.7952c-.2294-.2092-.544-.2982-.8491-.2406-2.0207.3812-10.1063,1.7947-18.8799,1.7947-8.7737,0-16.8592-1.4136-18.8799-1.7947-.3051-.0576-.6197.0314-.8491.2406l-.8719.7952" style="fill:none; stroke:#cfd2d4; stroke-linecap:round; stroke-linejoin:round; stroke-width:.5px;"/><path d="m346.3569,147.3721c.5918.2024,1.2842.4582,1.7629.6949,1.0001.4946,1.4947.8093,1.4048,3.2373s-.9333,18.1624-1.169,20.8751c-.2358,2.7127-.5714,5.6338-1.6636,6.6623-1.0922,1.0285-2.1667,1.2204-2.1667,1.2204" style="fill:none; stroke:#cfd2d4; stroke-linecap:round; stroke-linejoin:round; stroke-width:.5px;"/><path d="m348.1548,174.1697s-.7552.1797-1.905-.351c-.9427-.4351-.9552-1.1498-.852-3.1794,1.1314-22.2588,1.4095-37.6566,1.4103-57.5188-.0341-8.162-.0716-16.7971-.0716-17.616,0-1.2525-.839-1.5161-1.3559-1.6775-8.0536-2.5148-20.8903-2.5514-21.1053-2.551-.215-.0004-13.0517.0362-21.1053,2.551-.5169.1614-1.3559.425-1.3559,1.6775,0,16.5445-.5399,38.1756,1.3387,75.1348.1032,2.0296.0906,2.7443-.852,3.1794-1.1498.5307-1.905.351-1.905.351" style="fill:none; stroke:#cfd2d4; stroke-linecap:round; stroke-linejoin:round; stroke-width:.5px;"/><path d="m346.5449,140.1895c1.5043-.1563,2.926-.482,3.331-.7042.574-.3149.9899-.9495,1.0557-2.1866.1025-1.9287.155-9.4367.155-13.4206,0-3.8123-.0112-8.249.0012-12.0709.0136-4.0813.0134-8.4576-.0042-12.4545,0,0-.0188-4.9106-.085-10.5415s-.2591-10.2537-.3221-11.8171c-.063-1.5634-.3683-2.7458-1.5976-4.0434-1.2292-1.2976-4.0601-4.0995-8.0315-5.1314-3.9714-1.0318-7.783-1.4285-16.7719-1.4285-8.989,0-12.8005.3967-16.7719,1.4285-3.9714,1.0318-6.8023,3.8338-8.0315,5.1314-1.2292,1.2976-1.5345,2.48-1.5976,4.0434s-.256,6.1861-.3221,11.8171c-.0661,5.6309-.085,10.5415-.085,10.5415-.0286,6.5039-.003,5.3835-.003,24.5254,0,3.9839.0524,11.492.155,13.4206.0658,1.2371.4817,1.8717,1.0557,2.1866.4079.2238,1.8472.5526,3.3634.7076" style="fill:none; stroke:#cfd2d4; stroke-linecap:round; stroke-linejoin:round; stroke-width:.5px;"/><path d="m324.2753,169.9597h1.0609c.0223-4.5498-.9115-4.3206-1.0609-4.3206-.1494,0-1.0831-.2293-1.0609,4.3206h1.0609Z" style="fill:none; stroke:#cfd2d4; stroke-linecap:round; stroke-linejoin:round; stroke-width:.5px;"/><path d="m324.2753,138.2081h14.5358c.9049,0,1.6438-.7233,1.6641-1.628.3883-17.3789.3745-20.5691.3904-31.7943.0012-.8332-.6093-1.5374-1.4346-1.6517-4.915-.6808-10.2909-1.0748-15.1556-1.0284-4.8647-.0464-10.2406.3476-15.1556,1.0284-.8253.1143-1.4358.8186-1.4346,1.6517.0159,11.2252.002,14.4154.3904,31.7943.0202.9047.7592,1.628,1.6641,1.628h14.5358Z" style="fill:none; stroke:#cfd2d4; stroke-linecap:round; stroke-linejoin:round; stroke-width:.5px;"/><path d="m324.2753,163.0246h13.6311c.9063,0,1.6458-.7234,1.6648-1.6295.0709-3.3662.1759-6.5476.315-9.9707.0184-.453-.1498-.8941-.4639-1.221s-.7478-.5119-1.2011-.5119h-13.9459s-13.9459,0-13.9459,0c-.4534,0-.887.185-1.2011.5119s-.4823.768-.4639,1.221c.1391,3.423.2441,6.6045.315,9.9707.0191.9061.7586,1.6295,1.6648,1.6295h13.6311Z" style="fill:none; stroke:#cfd2d4; stroke-linecap:round; stroke-linejoin:round; stroke-width:.5px;"/><g id="uuid-3c5a9ecb-e3c8-473f-b48c-3c5622fc016f"><path d="m324.2752,31.2339c7.871,0,15.8719,1.4018,19.5463,2.5748,2.1932.7288,3.6168,1.9078,5.1312,3.1511.1282.1053.2569.2109.3867.3169.0814.0664.161.1311.239.1946,1.4918,1.214,2.5224,2.0258,3.1323,3.3627.0544.1201.1308.2792.2308.4873.7264,1.5122,2.4873,5.1454,2.5361,8.7191.026,1.9004.1179,5.6948.2024,9.1833.0818,3.3743.1572,6.4816.1572,7.2602,0,1.4771-.1675,3.4324-.3548,5.6294-.2414,2.8325-.5222,6.1313-.5652,9.5636,1.2857.8893,3.1109,2.169,3.9134,3.0654,1.2256,1.3782,1.3134,2.1935,1.2692,3.5094-.0188.5591-.0803,1.1413-.3433,1.5776-.1367.2269-.3397.4363-.6236.566-.345.1576-.6784.138-.9003.0995-.3506-.0602-1.9802-.6566-3.3164-1.162-.01,4.2521-.0414,17.1692-.0585,19.2403-.0035.4553-.0138,1.3755-.0308,2.5715-.0021,3.6014.005,7.7229.0107,11.0347.0035,2.0294.0065,3.7556.0065,4.8706,0,3.1321.2854,7.2294.7282,9.7899.4741,2.7243.5216,4.0612.5216,8.4343v11.04c0,3.1304-.9418,7.6994-1.9619,11.3214-.1945.6906-.3857,1.4178-.5814,2.1623-.7677,2.9208-1.6638,6.4697-3.1762,8.0115-.0456.0461-.0985.1006-.1617.1657-.5654.582-2.0297,2.1284-3.4977,2.5719-1.3485.4057-9.3318,2.5422-22.44,2.5422s-21.0916-2.1365-22.4404-2.5423c-1.4685-.4425-2.9279-1.9851-3.4942-2.5685-.0646-.0665-.1185-.1221-.1671-.1713-1.5101-1.5394-2.4062-5.0884-3.1739-8.0093-.1957-.7444-.3868-1.4715-.5813-2.1621-1.0199-3.6212-1.9654-8.1906-1.9654-11.3214v-11.04c0-4.3744.0511-5.7101.5214-8.4333.4431-2.5621.7319-6.6596.7319-9.7909,0-7.8755.001-12.1892.0015-14.5532.0019-8.3852-.0016,7.7016-.0736-23.1644-1.3375.5055-2.9694,1.1022-3.3172,1.1619-.2232.039-.556.0586-.9005-.0988-.2848-.1301-.4877-.3405-.6241-.5676-.2615-.4356-.3232-1.0166-.342-1.5762-.0441-1.3159.0436-2.1312,1.27-3.5103.7985-.8957,2.6286-2.1767,3.9126-3.0645-.0433-3.4352-.325-6.7324-.5672-9.5637-.1879-2.1967-.3561-4.1521-.3561-5.6293,0-.7763.0757-3.8656.158-7.2264.0857-3.4979.179-7.3107.2051-9.2171.049-3.5884,1.8215-7.237,2.545-8.7395.0959-.1992.1696-.3524.2219-.4669.6029-1.3303,1.6313-2.1415,3.105-3.3429.0854-.0696.1726-.1407.2628-.2144.1343-.1094.2664-.2177.3981-.3256,1.5126-1.2396,2.9343-2.415,5.1314-3.1462,3.6664-1.1692,11.6671-2.571,19.5382-2.571Z" style="fill:none; stroke:#cfd2d4; stroke-miterlimit:3; stroke-width:.5px;"/><path d="m324.2752,31.4839c7.8491,0,15.8239,1.399,19.4675,2.562,2.1439.7124,3.5351,1.8623,5.0514,3.1071.1282.1052.2571.2111.3874.3175.0815.0664.1612.1312.2392.1947,1.5052,1.2249,2.4819,1.9996,3.0624,3.272.0559.1233.1336.2852.2331.4924.7297,1.5191,2.4635,5.104,2.5115,8.6143.026,1.9021.118,5.6982.2025,9.1859.0818,3.3772.1571,6.4795.1571,7.2542,0,1.4639-.1662,3.4068-.3539,5.6082-.2444,2.8676-.5301,6.2234-.5676,9.7148,1.2986.8976,3.1767,2.2063,3.9781,3.1014,1.1735,1.3196,1.2487,2.0671,1.2062,3.3349-.0188.5597-.0814,1.0817-.3075,1.4569-.1153.1913-.2827.3623-.5133.4676-.2811.1284-.5574.1146-.7542.0805-.356-.0611-2.2249-.7512-3.6079-1.2777-.0089,3.8223-.0417,17.4674-.0593,19.6005-.0034.4544-.0138,1.374-.0308,2.5733-.0021,3.6017.005,7.7235.0107,11.0353.0035,2.0295.0065,3.7555.0065,4.8702,0,3.1418.286,7.2541.7319,9.8328.4703,2.7024.5179,4.0219.5179,8.3914v11.04c0,3.0952-.9341,7.6374-1.9525,11.2536-.1952.6931-.3869,1.4225-.5825,2.1665-.7777,2.9589-1.6595,6.4183-3.1123,7.8994-.0464.047-.1001.1023-.1631.1671-.5816.5986-1.9981,2.0861-3.3905,2.5067-1.3273.3993-9.2863,2.5316-22.368,2.5316s-21.0408-2.1323-22.3683-2.5317c-1.393-.4197-2.8045-1.9033-3.387-2.5033-.0643-.0663-.1191-.1227-.168-.1723-1.4511-1.4793-2.3329-4.9388-3.1106-7.8977-.1955-.744-.3872-1.4733-.5824-2.1663-1.0183-3.6156-1.956-8.1581-1.956-11.2536v-11.04c0-4.3706.0512-5.6891.5178-8.3907.4462-2.5799.7355-6.6923.7355-9.8336,0-7.8755.001-12.1892.0015-14.5531.0019-8.4101-.0017,7.8128-.0743-23.5264-1.3841.5265-3.2554,1.2168-3.6094,1.2775-.1974.0345-.473.0483-.7536-.0799-.2312-.1057-.3986-.2774-.5136-.4689-.2249-.3746-.2877-.8958-.3065-1.4558-.0425-1.2677.0327-2.0153,1.2068-3.3356.7977-.8948,2.6804-2.2044,3.9775-3.1008-.0377-3.4938-.3244-6.8483-.5697-9.7151-.1883-2.2012-.3552-4.144-.3552-5.608,0-.7722.0756-3.8566.158-7.2203.0856-3.497.179-7.3116.2051-9.2198.0482-3.5248,1.7935-7.125,2.5203-8.6345.0955-.1983.1705-.3542.2243-.4722.5738-1.2661,1.5481-2.04,3.0353-3.2523.0853-.0696.1727-.1407.2628-.2143.1346-.1097.267-.2182.3986-.326,1.5145-1.2412,2.9039-2.3875,5.0488-3.1013,3.6384-1.1602,11.613-2.5592,19.4622-2.5592Z" style="fill:none; stroke:#cfd2d4; stroke-miterlimit:3; stroke-width:.5px;"/><path d="m324.2752,31.7339c7.8272,0,15.7759,1.3961,19.3887,2.5493,2.0947.6961,3.4535,1.8168,4.9716,3.063.1281.1052.2573.2112.3882.3181.0816.0665.1613.1313.2393.1948,1.5186,1.2358,2.4414,1.9734,2.9925,3.1813.0573.1264.1365.2913.2355.4975.7331,1.5261,2.4397,5.0627,2.4868,8.5094.026,1.9038.118,5.7017.2025,9.1886.0819,3.38.157,6.4774.157,7.2481,0,1.4508-.165,3.3812-.353,5.587-.2474,2.9026-.538,6.3155-.5698,9.8663,1.3121.9067,3.2434,2.2446,4.0426,3.1373,1.1213,1.2609,1.184,1.9408,1.1431,3.1604-.0188.5603-.0825,1.0222-.2718,1.3362-.0939.1558-.2258.2883-.4031.3693-.2171.0992-.4364.0913-.608.0615-.359-.0616-2.5009-.8582-3.8993-1.3941-.0075,3.2215-.0419,17.7548-.0602,19.9614-.0034.4536-.0137,1.3726-.0308,2.575-.0021,3.6021.005,7.7242.0107,11.0359.0035,2.0296.0065,3.7553.0065,4.8697,0,3.1515.2865,7.2787.7356,9.8756.4665,2.6805.5142,3.9825.5142,8.3486v11.04c0,3.0599-.9263,7.5754-1.9431,11.1858-.1959.6956-.3882,1.4271-.5837,2.1707-.7877,2.9969-1.6552,6.3669-3.0484,7.7873-.0473.0479-.1018.104-.1646.1686-.5977.6153-1.9665,2.0437-3.2832,2.4415-1.306.3929-9.2408,2.521-22.296,2.521s-20.99-2.1281-22.2962-2.521c-1.3174-.3969-2.6812-1.8214-3.2797-2.438-.0641-.0661-.1197-.1233-.169-.1732-1.3921-1.4192-2.2595-4.7893-3.0473-7.7862-.1954-.7435-.3877-1.475-.5836-2.1705-1.0168-3.6101-1.9467-8.1257-1.9467-11.1858v-11.04c0-4.3668.0513-5.6681.5141-8.3481.4493-2.5977.7392-6.725.7392-9.8762,0-7.8754.001-12.1891.0015-14.5531.0019-8.4347-.0017,7.9233-.0752-23.8892-1.3993.5359-3.5439,1.3326-3.9015,1.394-.1716.03-.3901.0379-.6067-.061-.1777-.0812-.3095-.2142-.4032-.3702-.1883-.3137-.2522-.775-.271-1.3355-.0409-1.2196.0218-1.8994,1.1435-3.1608.7956-.8925,2.7312-2.2311,4.0422-3.1369-.0319-3.5525-.3236-6.9646-.5719-9.8666-.1887-2.2056-.3543-4.1359-.3543-5.5866,0-.7682.0755-3.8476.1579-7.2142.0856-3.4962.1791-7.3126.2052-9.2226.0473-3.4612,1.7654-7.013,2.4956-8.5294.095-.1973.1714-.356.2268-.4775.5447-1.2018,1.4649-1.9385,2.9655-3.1617.0853-.0696.1727-.1408.2628-.2143.1349-.1099.2676-.2186.3991-.3265,1.5164-1.2427,2.8735-2.36,4.9663-3.0565,3.6104-1.1513,11.559-2.5474,19.3863-2.5474Z" style="fill:none; stroke:#cfd2d4; stroke-miterlimit:3; stroke-width:.5px;"/><path d="m324.2752,31.9839c7.8054,0,15.7279,1.3932,19.3098,2.5365,2.0454.6797,3.3719,1.7712,4.8918,3.019.1281.1052.2575.2114.3889.3187.0817.0665.1614.1315.2394.1949,1.532,1.2467,2.4009,1.9471,2.9226,3.0905.0587.1295.1393.2974.2379.5025.7364,1.5331,2.416,5.0213,2.4622,8.4046.026,1.9055.1181,5.7051.2026,9.1912.082,3.3829.157,6.4754.157,7.2421,0,1.4376-.1637,3.3556-.352,5.5657-.2503,2.9372-.546,6.4077-.5717,10.0179.0065.0045.013.009.0195.0135,1.3264.9166,3.2954,2.2751,4.0873,3.1596,1.0692,1.2023,1.1194,1.8145,1.0801,2.9859-.0188.5609-.0836.9627-.2361,1.2156-.0725.1203-.1688.2143-.2928.2709-.1532.07-.3154.0679-.4618.0425-.36-.0618-2.8213-.9824-4.1908-1.5114-.0052,2.2557-.042,18.0184-.061,20.3232-.0034.4528-.0137,1.3712-.0308,2.5768-.0021,3.6024.005,7.7248.0107,11.0365.0035,2.0297.0065,3.7551.0065,4.8693,0,3.1612.2871,7.3034.7393,9.9185.4627,2.6586.5105,3.9431.5105,8.3057v11.04c0,3.0247-.9186,7.5134-1.9338,11.1181-.1966.6981-.3895,1.4318-.5848,2.1749-.7977,3.0349-1.6508,6.3155-2.9845,7.6751-.0482.0488-.1034.1057-.166.1701-.6139.6319-1.9348,2.0014-3.1759,2.3763-1.2848.3865-9.1953,2.5104-22.224,2.5104s-20.9392-2.1238-22.224-2.5104c-1.2419-.3742-2.5578-1.7396-3.1724-2.3728-.0639-.0658-.1203-.1239-.1699-.1741-1.3331-1.359-2.1862-4.6397-2.9839-7.6747-.1953-.7431-.3881-1.4767-.5847-2.1748-1.0152-3.6045-1.9373-8.0933-1.9373-11.1181v-11.04c0-4.363.0513-5.6471.5105-8.3055.4524-2.6155.7429-6.7577.7429-9.9188,0-7.8754.001-12.1891.0015-14.553.0019-8.459-.0018,8.0333-.076-24.2529-1.37.529-3.8344,1.4497-4.1937,1.5114-.1459.0255-.3072.0276-.4598-.0421-.1241-.0567-.2204-.151-.2928-.2715-.1517-.2527-.2166-.6542-.2354-1.2152-.0393-1.1714.0109-1.7836,1.0803-2.9861.7839-.8793,2.7387-2.2277,4.0643-3.1435.0142-.0098.0283-.0196.0424-.0293-.0258-3.6112-.3226-7.0814-.5738-10.0183-.1891-2.21-.3534-4.1277-.3534-5.5653,0-.7642.0753-3.8385.1578-7.208.0856-3.4954.1791-7.3136.2052-9.2253.0464-3.3976,1.7373-6.901,2.4708-8.4244.0946-.1964.1723-.3578.2293-.4827.5156-1.1376,1.3817-1.8369,2.8958-3.0712.0853-.0696.1728-.1409.2627-.2143.1352-.1102.2681-.2191.3997-.3269,1.5182-1.2442,2.843-2.3325,4.8838-3.0117,3.5824-1.1424,11.505-2.5356,19.3103-2.5356Z" style="fill:none; stroke:#cfd2d4; stroke-miterlimit:3; stroke-width:.5px;"/></g><path d="m324.2752,32.2339c7.7835,0,15.68,1.3903,19.231,2.5238,2.1642.7191,3.5031,1.9074,5.2016,3.2942,1.7019,1.3868,2.5751,2.0614,3.0922,3.1948.5136,1.1335,2.6264,5.0474,2.6778,8.8073s.3595,14.8821.3595,16.4299c0,3.3354-.8903,9.3074-.9245,15.7108v.0034c1.3423.928,3.3798,2.3251,4.1708,3.2086,1.0171,1.1437,1.0547,1.6882,1.0171,2.8114-.0377,1.1231-.2637,1.3663-.6986,1.291-.3595-.0617-3.212-1.1335-4.4824-1.6301v.096s-.0411,18.1078-.0616,20.5904c-.0034.452-.0137,1.3697-.0308,2.5785-.0034,5.8111.0171,12.9747.0171,15.9059,0,3.1709.2876,7.328.7431,9.9614.4589,2.6367.5068,3.9037.5068,8.2628v11.04c0,2.9894-.9108,7.4513-1.9244,11.0503-1.0136,3.599-1.9245,8.1293-3.5065,9.7422-.5445.5514-1.9553,2.0957-3.236,2.4826-1.2636.3801-9.1498,2.4998-22.1519,2.4998s-20.8884-2.1196-22.1519-2.4998c-1.2841-.3869-2.6915-1.9313-3.236-2.4826-1.5821-1.6128-2.4929-6.1432-3.5065-9.7422-1.0136-3.599-1.9279-8.0609-1.9279-11.0503v-11.04c0-4.3592.0514-5.6261.5068-8.2628.4555-2.6334.7465-6.7905.7465-9.9614,0-36.1369.0206,2.7189-.0753-39.1708-1.2705.4966-4.1263,1.5684-4.4859,1.6301-.4315.0753-.6575-.1679-.6951-1.291-.0377-1.1232,0-1.6677,1.017-2.8114.7876-.8835,2.8285-2.2807,4.1708-3.2086v-.0034c-.0342-6.4035-.928-12.3755-.928-15.7108,0-1.5478.3116-12.67.363-16.4299.0514-3.7599,2.1608-7.6739,2.6778-8.8073.5136-1.1334,1.3903-1.8081,3.0887-3.1948,1.7019-1.3869,3.0408-2.5751,5.2015-3.2942,3.5544-1.1335,11.4509-2.5238,19.2344-2.5238Z" style="fill:none; stroke:#cfd2d4; stroke-miterlimit:3; stroke-width:.5px;"/><line x1="348.9222" y1="86.254" x2="350.9325" y2="84.9584" style="fill:none; stroke:#cfd2d4; stroke-linecap:round; stroke-linejoin:round; stroke-width:.5px;"/><line x1="299.6284" y1="86.254" x2="297.6181" y2="84.9584" style="fill:none; stroke:#cfd2d4; stroke-linecap:round; stroke-linejoin:round; stroke-width:.5px;"/><path d="m483.5017,283.2316c-1.02,0-1.9125-.6222-2.2899-1.53h-6.8952c-.3774.9078-1.2648,1.53-2.2899,1.53s-1.9125-.6222-2.2899-1.53h-.816l-1.6779-1.1271v-3.3507c0-.7803.5865-1.4331,1.3617-1.5198l3.2691-.4692,3.2589-2.4276c.2856-.1938.5814-.2805.8823-.2805h10.5672c.6783,0,1.2648.4335,1.4637,1.0812.2346.7548.6222,2.2185.6222,3.5088,0,1.1373-.153,2.4174-.2856,3.2895-.1122.7548-.7497,1.3005-1.5147,1.3005h-1.0812c-.3723.9027-1.2597,1.5249-2.2848,1.5249Zm-10.455-3.06h9.4401l.0765.6783c.0561.4845.459.8517.9435.8517s.8874-.3672.9435-.8517l.0765-.6783h2.346c.102-.6681.2703-1.9635.2703-3.06,0-1.0914-.3468-2.3868-.5559-3.06h-10.5672l-3.5394,2.6418-3.6771.5253-.0255,2.5398.612.4131h1.6167l.0765.6783c.0561.4845.459.8517.9435.8517s.8874-.3672.9435-.8517l.0765-.6783Z" style="fill:#d48228; stroke-width:0px;"/><path d="m464.5858,273.6028c-.1989-.6477-.7854-1.0812-1.4637-1.0812h-2.5041v1.53h2.5041c.2091.6732.5559,1.9686.5559,3.06,0,1.1016-.1683,2.3919-.2703,3.06h-2.346l-.0765.6783c-.0306.2703-.1683.4947-.3672.6528v1.6575c.7701-.1836,1.4076-.7242,1.7136-1.4535h1.0812c.765,0,1.4025-.5457,1.5147-1.3005.1275-.8772.2805-2.1573.2805-3.2946,0-1.2903-.3876-2.754-.6222-3.5088Z" style="fill:#d48228; stroke-width:0px;"/><polygon points="473.3673 287.3076 473.3673 288.8375 463.9873 288.8275 466.2072 291.0476 466.2173 291.0476 466.2173 293.2175 461.0672 288.0676 466.2173 282.9276 466.2173 285.0975 464.0073 287.2976 473.3673 287.3076" style="fill:#d48228; stroke-width:0px;"/><path d="m468.7729,265.3714h-1.53v4.59h1.53v-4.59Z" style="fill:#d48228; stroke-width:0px;"/><path d="m468.7729,271.4914h-1.53v1.53h1.53v-1.53Z" style="fill:#d48228; stroke-width:0px;"/><path d="m270.1399,227.3825c-.5508,0-1.0328-.336-1.2365-.8262h-3.7234c-.2038.4902-.683.8262-1.2365.8262s-1.0328-.336-1.2365-.8262h-.4406l-.9061-.6086v-1.8094c0-.4214.3167-.7739.7353-.8207l1.7653-.2534,1.7598-1.3109c.1542-.1047.314-.1515.4764-.1515h5.7063c.3663,0,.683.2341.7904.5838.1267.4076.336,1.198.336,1.8948,0,.6141-.0826,1.3054-.1542,1.7763-.0606.4076-.4048.7023-.8179.7023h-.5838c-.201.4875-.6802.8234-1.2338.8234Zm-5.6457-1.6524h5.0977l.0413.3663c.0303.2616.2479.4599.5095.4599s.4792-.1983.5095-.4599l.0413-.3663h1.2668c.0551-.3608.146-1.0603.146-1.6524,0-.5894-.1873-1.2889-.3002-1.6524h-5.7063l-1.9113,1.4266-1.9856.2837-.0138,1.3715.3305.2231h.873l.0413.3663c.0303.2616.2479.4599.5095.4599s.4792-.1983.5095-.4599l.0413-.3663Z" style="fill:#30373e; stroke-width:0px;"/><path d="m259.9253,222.183c-.1074-.3498-.4241-.5838-.7904-.5838h-1.3522v.8262h1.3522c.1129.3635.3002,1.063.3002,1.6524,0,.5949-.0909,1.2916-.146,1.6524h-1.2668l-.0413.3663c-.0165.146-.0909.2671-.1983.3525v.8951c.4159-.0991.7601-.3911.9253-.7849h.5838c.4131,0,.7573-.2947.8179-.7023.0688-.4737.1515-1.1649.1515-1.7791,0-.6968-.2093-1.4872-.336-1.8948Z" style="fill:#30373e; stroke-width:0px;"/><polygon points="264.6673 229.5836 264.6673 230.4097 259.6021 230.4043 260.8008 231.6032 260.8063 231.6032 260.8063 232.7749 258.0252 229.994 260.8063 227.2184 260.8063 228.3902 259.6129 229.5782 264.6673 229.5836" style="fill:#30373e; stroke-width:0px;"/><path d="m262.1863,217.738h-.8262v2.4786h.8262v-2.4786Z" style="fill:#30373e; stroke-width:0px;"/><path d="m262.1863,221.0428h-.8262v.8262h.8262v-.8262Z" style="fill:#30373e; stroke-width:0px;"/><path d="m128.2459,217.3009c-2.7984,2.7971-2.7983,7.3343-.0011,10.1327l.7119-.7063c-2.4049-2.4076-2.4049-6.3081,0-8.7157l-.7107-.7107Zm12.236,5.0686c-.0003,1.9006-.7521,3.724-2.0988,5.0652l-.7107-.7074c2.4077-2.4033,2.41-6.3022.0079-8.7111l-.0079-.0079.7107-.7074c1.3472,1.3422,2.0991,3.1668,2.0988,5.0686Z" style="fill:#30373e; fill-rule:evenodd; stroke-width:0px;"/><path d="m137.669,232.7736c-.7771.6507-1.9298.5649-2.5872-.2066s-.5649-1.9298.2066-2.5872,1.9298-.5649,2.5872.2066c.0991.1163.1832.2444.2506.3816h-1.3514c-.1375.0018-.2485.1128-.2503.2503v1.1712c.0018.1375.1128.2485.2503.2503h1.3347c-.1111.2047-.2619.3844-.4405.5339Z" style="fill:#30373e; stroke-width:0px;"/><path d="m135.0162,230.5579h-5.6725c-.4607,0-.8342.3735-.8342.8342s.3735.8342.8342.8342h5.6725v-1.6684Z" style="fill:#30373e; stroke-width:0px;"/><path d="m134.8394,221.6688c0,.7207-.5239,1.2446-1.3614,1.2446h-.4872v1.3781h-.7608v-3.8707h1.2446c.8342,0,1.3647.5139,1.3647,1.248Zm-1.8452.5372h.4872c.2976.0235.5579-.1988.5814-.4964s-.1988-.558-.4964-.5814c-.0283-.0022-.0567-.0022-.085,0h-.4872v1.0778Z" style="fill:#30373e; stroke-width:0px;"/><path d="m133.3051,217.3551c-2.76,0-5.01,2.25-5.01,5.01,0,2.77,2.25,5.0099,5.01,5.0099,2.77,0,5.01-2.24,5.01-5.0099,0-2.76-2.24-5.01-5.01-5.01Zm0,9.04c-2.22,0-4.02-1.8-4.02-4.03,0-2.22,1.8-4.02,4.02-4.02,2.23,0,4.03,1.8,4.03,4.02,0,2.23-1.8,4.03-4.03,4.03Z" style="fill:#30373e; fill-rule:evenodd; stroke-width:0px;"/><g id="uuid-889fa4e8-8962-45e5-9b53-dc42c03da118"><path d="m290.3189,289.2473l1.1921,1.1921c6.1579-6.1394,6.1729-16.1084.0335-22.2663-.0111-.0112-.0223-.0223-.0335-.0335l-1.1921,1.1921c2.6497,2.6362,4.1388,6.2201,4.1374,9.9578-.0582,3.7255-1.5383,7.2879-4.1374,9.9577Z" style="fill:#bb2025; stroke-width:0px;"/><path d="m269.2112,290.4394l1.1921-1.1921c-5.423-5.531-5.423-14.3845,0-19.9155l-1.1921-1.1921c-6.1579,6.1394-6.1729,16.1084-.0335,22.2663.0111.0112.0223.0223.0335.0335Z" style="fill:#bb2025; stroke-width:0px;"/><path d="m280.3611,291.0705c-6.5065,0-11.781-5.2745-11.781-11.781s5.2745-11.781,11.781-11.781,11.781,5.2745,11.781,11.781c-.014,6.5006-5.2804,11.767-11.781,11.781Zm0-21.8089c-5.5382,0-10.0279,4.4896-10.0279,10.0279s4.4896,10.0279,10.0279,10.0279,10.0279-4.4896,10.0279-10.0279h0c.0012-5.5371-4.4866-10.0267-10.0237-10.0279-.0014,0-.0028,0-.0042,0Z" style="fill:#bb2025; stroke-width:0px;"/><path d="m278.5379,281.8841h-1.1921l-.4909-1.2622h-2.244l-.4909,1.2622h-1.1921l2.1739-5.6801h1.2622l2.1739,5.6801Zm-2.9452-3.9971l-.7013,1.7531h1.6129l-.7013-1.7531-.1402-.3506-.0701.3506Z" style="fill:#bb2025; stroke-width:0px;"/><path d="m282.7454,277.8169c.0003.4261-.1777.833-.4909,1.122.5064.2161.8368.7117.8415,1.2622,0,.9818-.7714,1.683-1.9635,1.683h-2.1037v-5.6801h1.8233c1.1921,0,1.8934.561,1.8934,1.6129Zm-2.5946-.561v1.2622h.7013c.3564.0298.6694-.235.6992-.5914.0011-.0132.0018-.0265.0021-.0398.022-.3653-.2562-.6792-.6215-.7013-.0266-.0016-.0532-.0016-.0798,0h-.7013v.0701Zm0,2.244v1.3324h.9817c.3873.037.7312-.247.7682-.6343s-.247-.7312-.6343-.7682c-.0445-.0042-.0893-.0042-.1339,0h-.9817v.0701Z" style="fill:#bb2025; stroke-width:0px;"/><path d="m287.2334,277.7468h-1.122c.0425-.3448-.2026-.6587-.5473-.7013-.0511-.0063-.1028-.0063-.1539,0-.305-.0436-.5875.1683-.6311.4733-.0075.0523-.0075.1055,0,.1578,0,.4207.2805.561.9818.8415,1.1921.4207,1.6129.9116,1.6129,1.7531.0161.9562-.7459,1.7443-1.7021,1.7605-.0639.0011-.1277-.0014-.1913-.0074-1.0044.1125-1.9098-.6105-2.0223-1.6149-.0077-.0692-.0115-.1387-.0114-.2084h1.122c0,.561.3506.8415.9116.8415.4909,0,.7714-.2805.7714-.6311s-.2805-.6311-.9818-.8415c-1.0519-.3506-1.6129-.7714-1.6129-1.7531-.017-.9168.7124-1.6737,1.6291-1.6908.0648-.0012.1296.0014.1941.0078.845-.1165,1.6244.474,1.7409,1.319.0134.0973.0175.1958.0122.2939Z" style="fill:#bb2025; stroke-width:0px;"/></g><g id="uuid-bb000cb9-7898-4d85-b761-561ded5d3497"><path d="m165.5359,230.3477l.6557.6557c3.3868-3.3767,3.3951-8.8596.0184-12.2465-.0061-.0061-.0123-.0123-.0184-.0184l-.6557.6557c1.4573,1.4499,2.2763,3.421,2.2756,5.4768-.032,2.049-.8461,4.0084-2.2756,5.4768Z" style="fill:#30373e; stroke-width:0px;"/><path d="m153.9267,231.0034l.6557-.6557c-2.9827-3.042-2.9827-7.9115,0-10.9535l-.6557-.6557c-3.3868,3.3767-3.3951,8.8596-.0184,12.2465.0061.0061.0123.0123.0184.0184Z" style="fill:#30373e; stroke-width:0px;"/><path d="m160.0591,231.3505c-3.5786,0-6.4795-2.901-6.4795-6.4795s2.901-6.4795,6.4795-6.4795,6.4795,2.901,6.4795,6.4795c-.0077,3.5754-2.9042,6.4718-6.4795,6.4795Zm0-11.9949c-3.046,0-5.5153,2.4693-5.5153,5.5153s2.4693,5.5153,5.5153,5.5153,5.5153-2.4693,5.5153-5.5153h0c.0006-3.0454-2.4676-5.5147-5.513-5.5153-.0008,0-.0015,0-.0023,0Z" style="fill:#30373e; stroke-width:0px;"/><path d="m159.0563,226.298h-.6557l-.27-.6942h-1.2342l-.27.6942h-.6557l1.1956-3.1241h.6942l1.1956,3.1241Zm-1.6199-2.1984l-.3857.9642h.8871l-.3857-.9642-.0771-.1928-.0386.1928Z" style="fill:#30373e; stroke-width:0px;"/><path d="m161.3705,224.061c.0001.2344-.0977.4581-.27.6171.2785.1189.4602.3914.4628.6942,0,.54-.4243.9256-1.0799.9256h-1.1571v-3.1241h1.0028c.6557,0,1.0414.3086,1.0414.8871Zm-1.427-.3085v.6942h.3857c.196.0164.3682-.1292.3845-.3253.0006-.0073.001-.0146.0012-.0219.0121-.2009-.1409-.3736-.3418-.3857-.0146-.0009-.0293-.0009-.0439,0h-.3857v.0386Zm0,1.2342v.7328h.54c.213.0203.4022-.1359.4225-.3489s-.1359-.4022-.3489-.4225c-.0245-.0023-.0491-.0023-.0736,0h-.54v.0386Z" style="fill:#30373e; stroke-width:0px;"/><path d="m163.8389,224.0225h-.6171c.0234-.1896-.1114-.3623-.301-.3857-.0281-.0035-.0565-.0035-.0846,0-.1677-.024-.3231.0926-.3471.2603-.0041.0288-.0041.058,0,.0868,0,.2314.1543.3085.54.4628.6557.2314.8871.5014.8871.9642.0089.5259-.4102.9594-.9361.9683-.0351.0006-.0703-.0008-.1052-.004-.5524.0619-1.0504-.3358-1.1122-.8882-.0043-.0381-.0063-.0763-.0063-.1146h.6171c0,.3085.1928.4628.5014.4628.27,0,.4243-.1543.4243-.3471s-.1543-.3471-.54-.4628c-.5785-.1928-.8871-.4243-.8871-.9642-.0094-.5042.3918-.9206.896-.9299.0356-.0007.0713.0008.1068.0043.4647-.0641.8934.2607.9575.7254.0074.0535.0096.1077.0067.1616Z" style="fill:#30373e; stroke-width:0px;"/></g><path d="m80.2467,291.0514c-6.4834,0-11.7619-5.2785-11.7619-11.7619,0-6.4892,5.2784-11.7619,11.7619-11.7619s11.7619,5.2728,11.7619,11.7619c0,6.4833-5.2785,11.7619-11.7619,11.7619Zm0-21.8025c-5.5367,0-10.0406,4.5039-10.0406,10.0406s4.5039,10.0406,10.0406,10.0406,10.0406-4.504,10.0406-10.0406-4.504-10.0406-10.0406-10.0406Zm11.1538,21.1885l-1.2163-1.2164c2.5417-2.5417,4.1195-6.0588,4.1195-9.9316,0-3.8785-1.5778-7.3899-4.1195-9.9373l1.2163-1.2164c2.8573,2.8573,4.6245,6.8047,4.6245,11.1537s-1.7672,8.2907-4.6245,11.148Zm-21.0853-1.2109l-1.2164,1.2164c-2.863-2.8573-4.6301-6.8047-4.6301-11.1537s1.7671-8.2964,4.6244-11.148l1.2164,1.2164c-2.5417,2.5417-4.1195,6.0588-4.1195,9.9316s1.5778,7.3899,4.1253,9.9373Zm10.1153-8.6867c1.8704,0,3.0236-1.1705,3.0236-2.777,0-1.6352-1.159-2.7769-3.0236-2.7769h-2.7654v8.6005h1.6868v-3.0466h1.0787Zm-1.0844-1.5836v-2.3983h1.0787c.7975,0,1.3024.4303,1.3024,1.2049,0,.7631-.5049,1.1934-1.3024,1.1934h-1.0787Z" style="fill:#bb2025; fill-rule:evenodd; stroke-width:0px;"/><g id="uuid-d157df20-e74a-4e31-a6cb-f8c92feb0bf3"><path d="m120.1005,290.4435l1.2163-1.2163c-5.4882-5.4709-5.5023-14.3551-.0313-19.8433.0085-.0086.0171-.0171.0256-.0256l-1.2163-1.2163c-6.1568,6.144-6.1672,16.1159-.0232,22.2727.0096.0096.0193.0193.0289.0289Z" style="fill:#bb2025; stroke-width:0px;"/><path d="m141.1858,269.3521c5.4867,5.4782,5.4935,14.3671.0152,19.8537-.0051.0051-.0102.0102-.0152.0152l1.2163,1.2164c6.1585-6.1478,6.1671-16.124.0193-22.2824-.0064-.0064-.0129-.0129-.0193-.0193l-1.2163,1.2164Z" style="fill:#bb2025; stroke-width:0px;"/><path d="m131.2485,291.0514c-6.4959,0-11.7619-5.266-11.7619-11.7619s5.266-11.7619,11.7619-11.7619,11.7619,5.266,11.7619,11.7619c-.0088,6.4922-5.2696,11.753-11.7619,11.7619Zm0-21.8025c-5.5453,0-10.0406,4.4953-10.0406,10.0406s4.4953,10.0406,10.0406,10.0406,10.0406-4.4953,10.0406-10.0406c-.006-5.5428-4.4978-10.0346-10.0406-10.0406Z" style="fill:#bb2025; stroke-width:0px;"/><rect x="130.4035" y="274.6697" width="1.6896" height="5.5433" style="fill:#bb2025; stroke-width:0px;"/><path d="m132.1728,282.0614h-1.8482v1.8479h1.8482v-1.8479Z" style="fill:#bb2025; stroke-width:0px;"/></g><path d="m53.5904,231.34c-3.5659,0-6.469-2.9032-6.469-6.469,0-3.569,2.9031-6.4691,6.469-6.4691s6.469,2.9,6.469,6.4691c0,3.5658-2.9032,6.469-6.469,6.469Zm0-11.9914c-3.0452,0-5.5224,2.4772-5.5224,5.5224s2.4772,5.5224,5.5224,5.5224,5.5224-2.4772,5.5224-5.5224-2.4772-5.5224-5.5224-5.5224Zm6.1346,11.6537l-.669-.669c1.3979-1.3979,2.2657-3.3323,2.2657-5.4624,0-2.1332-.8678-4.0645-2.2657-5.4655l.669-.669c1.5715,1.5715,2.5435,3.7426,2.5435,6.1346s-.9719,4.5599-2.5435,6.1314Zm-11.5969-.666l-.669.669c-1.5746-1.5715-2.5466-3.7426-2.5466-6.1346s.9719-4.563,2.5434-6.1314l.669.669c-1.3979,1.3979-2.2657,3.3323-2.2657,5.4624s.8678,4.0645,2.2689,5.4655Zm5.5634-4.7777c1.0287,0,1.663-.6438,1.663-1.5273,0-.8993-.6374-1.5273-1.663-1.5273h-1.521v4.7303h.9277v-1.6756h.5933Zm-.5964-.871v-1.3191h.5933c.4386,0,.7163.2367.7163.6627,0,.4197-.2777.6564-.7163.6564h-.5933Z" style="fill:#30373e; fill-rule:evenodd; stroke-width:0px;"/><g id="uuid-72ecb43c-4ba8-4cb9-a849-2e401ca21f44"><path d="m74.1129,231.0057l.669-.669c-3.0185-3.009-3.0263-7.8953-.0172-10.9138.0047-.0047.0094-.0094.0141-.0141l-.669-.669c-3.3863,3.3792-3.392,8.8637-.0127,12.25.0053.0053.0106.0106.0159.0159Z" style="fill:#30373e; stroke-width:0px;"/><path d="m85.7098,219.4054c3.0177,3.013,3.0214,7.9019.0084,10.9195-.0028.0028-.0056.0056-.0084.0084l.669.669c3.3871-3.3813,3.3919-8.8682.0106-12.2553-.0035-.0035-.0071-.0071-.0106-.0106l-.669.669Z" style="fill:#30373e; stroke-width:0px;"/><path d="m80.2443,231.34c-3.5727,0-6.469-2.8963-6.469-6.469s2.8963-6.469,6.469-6.469,6.469,2.8963,6.469,6.469c-.0049,3.5707-2.8983,6.4642-6.469,6.469Zm0-11.9914c-3.0499,0-5.5223,2.4724-5.5223,5.5223s2.4724,5.5223,5.5223,5.5223,5.5223-2.4724,5.5223-5.5223c-.0033-3.0485-2.4738-5.519-5.5223-5.5223Z" style="fill:#30373e; stroke-width:0px;"/><rect x="79.7795" y="222.3301" width=".9293" height="3.0488" style="fill:#30373e; stroke-width:0px;"/><path d="m80.7527,226.3955h-1.0165v1.0163h1.0165v-1.0163Z" style="fill:#30373e; stroke-width:0px;"/></g><path d="m385.8054,271.6646l-2.8096-4.8283c-.1902-.3804-.6273-.8209-1.5917-.8209h-6.5734c-.4981.0586-.9314.3684-1.1478.8209l-2.8096,4.8283h-2.0488v1.4482h2.0021v7.3976h1.4515v-2.4592h12.0791v2.4525h1.4515v-7.391h1.9587v-1.4482h-1.962Zm-10.8646-4.1176l.0267-.0467c.0056-.0115.0136-.0217.0233-.03h6.4133c.1034-.0027.2066.0085.307.0334l2.4158,4.1643h-11.5752l2.3891-4.1209Z" style="fill:#d48228; stroke-width:0px;"/><path d="m371.1436,286.2229h.644c-1.2179-.4271-2.3991-1.001-2.3991-1.5049,0-.3337,2.3348-.6967,3.7272-.9109,2.2308-.3433,4.0092-.6173,4.0041-1.2713-.0006-.0742-.0219-.1467-.0601-.2102-.2102-.4004-1.001-.6674-1.8019-.6674h-1.2546c.9443.2703,1.8286.6473,1.8352.8609-.1602.2002-2.001.4938-3.0865.6674-2.3869.3816-4.6415.7141-4.6415,1.5316.0211.2571.1406.4962.3337.6674.5005.5305,1.5683.8375,2.6994.8375Z" style="fill:#d48228; stroke-width:0px;"/><path d="m385.2448,281.6682h-1.2847c.9443.3003,1.8319.6907,1.9353.931-.7397.1914-1.4924.3241-2.249.4304-2.3642.3324-5.0439.7875-5.0319,1.7919.0017.1444.0499.2837.1301.4038.4032.6032,1.5917,1.001,2.8563,1.001h.4505c-1.2179-.4772-2.1522-1.001-2.1522-1.4015,0-.5205,2.4794-.9101,4.1209-1.1679,1.8421-.2893,3.1699-.4972,3.1699-1.001-.0347-.2289-.171-.4275-.367-.5506-.4733-.2972-1.0199-.4571-1.5784-.4371Z" style="fill:#d48228; stroke-width:0px;"/><path d="m374.7311,287.7984c-.3604-.2432-.7988-.3662-1.3027-.3662-.4951,0-.9287.1191-1.2871.3545-.3604.2354-.6377.5596-.8232.9648-.1855.4014-.2793.8613-.2793,1.3691,0,.4922.0918.9473.2715,1.3535.1826.4102.4561.7412.8145.9834h.001c.3594.2422.7979.3652,1.3027.3652.4912,0,.9219-.1201,1.2803-.3574.3584-.2363.6357-.5645.8242-.9766.1846-.4062.2783-.8672.2783-1.3682,0-.4863-.0898-.9375-.2676-1.3428-.1807-.4092-.4541-.7393-.8125-.9795Zm-.7012,3.7148c-.166.1084-.3682.1641-.6016.1641-.2383,0-.4443-.0557-.6123-.167-.1689-.1113-.2998-.2666-.3896-.4619-.0908-.2002-.1426-.4297-.1514-.6875-.0049-.0615-.0068-.1396-.0068-.2334,0-.0928.002-.1709.0068-.2383.0088-.2578.0615-.4893.1553-.6885.0918-.1953.2236-.3506.3926-.4619.168-.1113.3721-.167.6055-.167.2285,0,.4287.0547.5947.1631.168.1104.3008.2656.3936.46.0967.2031.1523.4365.165.6973.0039.0635.0068.1416.0068.2354,0,.0947-.0029.1729-.0068.2373-.0127.2578-.0674.4912-.1621.6924-.0908.1934-.2227.3467-.3896.4561Z" style="fill:#d48228; stroke-width:0px;"/><polygon points="376.3248 292.7466 377.5827 292.7466 377.5827 290.7671 379.5827 290.7671 379.5827 289.6343 377.5827 289.6343 377.5827 288.6411 379.9791 288.6411 379.9791 287.5093 376.3248 287.5093 376.3248 292.7466" style="fill:#d48228; stroke-width:0px;"/><polygon points="384.1539 288.6411 384.1539 287.5093 380.4996 287.5093 380.4996 292.7466 381.7575 292.7466 381.7575 290.7671 383.7575 290.7671 383.7575 289.6343 381.7575 289.6343 381.7575 288.6411 384.1539 288.6411" style="fill:#d48228; stroke-width:0px;"/></g><g id="uuid-919db393-bae0-48f8-811e-64f5f49646a2"><path d="m612.5533,124.3576c0,.61-.43.94-1.2.94h-1.3v-1.88h1.3c.78,0,1.2.33,1.2.94Z" style="fill:#cfd2d4; stroke-width:0px;"/><path d="m611.0734,117.0275c-2.36,0-4.49.95-6.04,2.5-1.54,1.55-2.5,3.68-2.5,6.04,0,2.35.96,4.49,2.5,6.04,1.55,1.54,3.68,2.5,6.04,2.5s4.5-.96,6.04-2.5c1.54-1.55,2.5-3.69,2.5-6.04,0-4.72-3.82-8.54-8.54-8.54Zm.34,9.21h-1.36v2.38h-1.1v-6.13h2.46c1.4,0,2.22.68,2.22,1.87,0,1.2-.82,1.88-2.22,1.88Z" style="fill:#cfd2d4; stroke-width:0px;"/><path d="m596.5206,122.4827v6.1317h-.9565l-3.0402-4.5006v4.5006h-1.0504v-6.1317h1.1273l2.8694,4.2956v-4.2956h1.0504Z" style="fill:#cfd2d4; stroke-width:0px;"/><path d="m591.5821,145.6944v-6.1317h2.0496c1.9557,0,3.0829,1.2554,3.0829,3.0659s-1.1273,3.0659-3.0829,3.0659h-2.0496Zm2.0496-.9394c1.2383,0,2.0069-.8198,2.0069-2.1265,0-1.3237-.7601-2.1265-2.0154-2.1265h-.9736v4.2529h.9821Z" style="fill:#cfd2d4; stroke-width:0px;"/><path d="m591.8029,111.5344v-6.1317h2.451c1.4091,0,2.2204.6832,2.2204,1.8788,0,.8711-.427,1.4774-1.2041,1.7336l1.3237,2.5193h-1.2212l-1.2298-2.3741h-1.2468v2.3741h-1.0931Zm2.3912-3.3135c.7771,0,1.2041-.3331,1.2041-.9394,0-.6149-.4185-.9394-1.2041-.9394h-1.2981v1.8788h1.2981Z" style="fill:#cfd2d4; stroke-width:0px;"/><path d="m502.4443,147.5244h-7.808v-43.798h17.507c5.0426,0,8.9466,1.1794,11.712,3.538,2.7651,2.318,4.148,5.612,4.148,9.882s-1.403,7.5844-4.209,9.943c-2.7654,2.318-6.649,3.477-11.651,3.477h-9.699v16.958Zm9.272-23.668c2.7651,0,4.88-.5694,6.344-1.708,1.5046-1.1794,2.257-2.8466,2.257-5.002,0-2.196-.732-3.8634-2.196-5.002-1.464-1.1386-3.599-1.708-6.405-1.708h-9.272v13.42h9.272Z" style="fill:#cfd2d4; stroke-width:0px;"/><rect x="509.2738" y="69.353" width="1.0781" height="3.4355" style="fill:#cfd2d4; stroke-width:0px;"/><rect x="509.2738" y="64.1646" width="1.0781" height="3.3994" style="fill:#cfd2d4; stroke-width:0px;"/><rect x="509.2767" y="58.7808" width="1.0781" height="3.7549" style="fill:#cfd2d4; stroke-width:0px;"/><path d="m513.2065,58.7807h1.0919l2.3015,13.9705h-1.0916l-2.3018-13.9705Z" style="fill:#cfd2d4; stroke-width:0px;"/><path d="m505.3335,58.7807h1.0919l-2.3018,13.9705h-1.0916l2.3015-13.9705Z" style="fill:#cfd2d4; stroke-width:0px;"/><path d="m516.7028,230.2711c-.449,0-.8686-.0927-1.259-.2782-.3855-.1903-.6856-.4636-.9004-.8198l.6661-.5344c.3562.5417.8491.8125,1.4786.8125h.0586c.2782,0,.5173-.0756.7174-.2269.2001-.1562.3001-.3562.3001-.6002,0-.1854-.0683-.3221-.205-.4099-.1318-.0927-.3123-.1684-.5417-.2269l-.7759-.1903c-.4782-.1171-.8345-.2733-1.0687-.4685-.2342-.2001-.3514-.5002-.3514-.9004,0-.3367.083-.6222.2489-.8564.1708-.2391.4002-.4172.6881-.5344.2879-.122.61-.183.9662-.183.405,0,.7613.0781,1.0687.2342.3074.1513.5807.388.8198.71v.0073l-.6515.5051v-.0073c-.283-.4246-.7003-.6368-1.2517-.6368h-.0512c-.2635,0-.4856.0586-.6661.1757-.1757.1122-.2635.2708-.2635.4758v.0366c0,.1269.0268.2269.0805.3001.0586.0732.1318.1293.2196.1684.0878.0342.2172.0756.388.1244l.9809.2489c.4099.1025.7296.2635.9589.4831.2294.2196.344.5148.344.8857,0,.3465-.0903.649-.2708.9077-.1757.2586-.4148.4563-.7174.5929-.3026.1366-.6393.205-1.0102.205Zm3.7897-.0586c-.3074,0-.5466-.0805-.7174-.2416-.1708-.161-.2562-.3928-.2562-.6954v-2.1814h-.5783v-.7613h.5783v-1.0248h.8491v1.0248h.8272v.7613h-.8272v2.1228c0,.0878.022.1464.0659.1757.0439.0293.1025.0439.1757.0439h.3953c.0537-.0049.083-.0073.0878-.0073v.754c-.083.0098-.1854.0171-.3074.022-.1171.0049-.2147.0073-.2928.0073Zm2.4151.0439c-.3953,0-.7174-.1049-.9662-.3148-.244-.2147-.366-.4978-.366-.8491,0-.3074.1049-.5563.3148-.7466.2098-.1952.5344-.3392.9736-.4319l1.0614-.2196v-.1903c0-.161-.0512-.2782-.1537-.3514-.1025-.0781-.2586-.1171-.4685-.1171-.2245,0-.3953.0439-.5124.1318-.1122.083-.1732.2123-.183.388h-.8564c.0146-.4099.161-.7247.4392-.9443.2782-.2245.6612-.3367,1.1492-.3367.4538,0,.8076.0952,1.0614.2855s.3806.4587.3806.8052v2.8255h-.8198v-.3074c-.1269.122-.2806.2147-.4612.2782s-.3782.0952-.5929.0952Zm-.4612-1.1785c0,.1513.0512.2684.1537.3514.1025.083.2489.1244.4392.1244.2489,0,.4587-.0659.6295-.1976.1708-.1366.2562-.3099.2562-.5197v-.4685l-.8272.1757c-.2342.0488-.4026.1147-.5051.1976-.0976.083-.1464.1952-.1464.3367Zm3.1672-2.7304h.8784v.3587c.1269-.1366.2757-.2416.4465-.3148.1757-.0781.3636-.1171.5636-.1171.4148,0,.7393.1318.9736.3953.2391.2635.3587.6124.3587,1.0468v2.4742h-.8711v-2.2985c0-.2489-.0586-.4465-.1757-.5929-.1122-.1464-.2782-.2196-.4978-.2196-.2342,0-.427.0781-.5783.2342-.1464.1562-.2196.344-.2196.5636v2.3131h-.8784v-3.843Zm5.5743,3.9235c-.3465,0-.649-.0903-.9077-.2708-.2586-.1854-.4563-.4294-.5929-.732-.1366-.3074-.205-.6417-.205-1.0028s.0683-.693.205-.9955c.1366-.3026.3343-.5441.5929-.7247.2586-.1806.5636-.2708.915-.2708.2196,0,.4221.039.6076.1171.1854.0732.344.1781.4758.3148v-1.7714h.8857v5.2558h-.8857v-.3514c-.2879.2879-.6515.4319-1.0907.4319Zm-.8052-2.013c0,.4002.0854.7076.2562.9223.1757.2147.4124.3221.71.3221.2733,0,.4953-.0878.6661-.2635.1757-.1806.2708-.4172.2855-.71.0049-.039.0073-.1244.0073-.2562,0-.1366-.0024-.2269-.0073-.2708-.0195-.3026-.1171-.5392-.2928-.71-.1708-.1708-.3904-.2562-.6588-.2562-.2782,0-.5026.0952-.6734.2855-.1708.1903-.266.4563-.2855.7979l-.0073.1391Zm4.7558,1.9984c-.3953,0-.7174-.1049-.9662-.3148-.244-.2147-.366-.4978-.366-.8491,0-.3074.1049-.5563.3148-.7466.2098-.1952.5344-.3392.9736-.4319l1.0614-.2196v-.1903c0-.161-.0512-.2782-.1537-.3514-.1025-.0781-.2586-.1171-.4685-.1171-.2245,0-.3953.0439-.5124.1318-.1122.083-.1732.2123-.183.388h-.8564c.0146-.4099.161-.7247.4392-.9443.2782-.2245.6612-.3367,1.1492-.3367.4538,0,.8076.0952,1.0614.2855s.3806.4587.3806.8052v2.8255h-.8198v-.3074c-.1269.122-.2806.2147-.4612.2782-.1806.0634-.3782.0952-.5929.0952Zm-.4612-1.1785c0,.1513.0512.2684.1537.3514.1025.083.2489.1244.4392.1244.2489,0,.4587-.0659.6295-.1976.1708-.1366.2562-.3099.2562-.5197v-.4685l-.8272.1757c-.2342.0488-.4026.1147-.5051.1976-.0976.083-.1464.1952-.1464.3367Zm3.1672-2.7304h.8784v.4392c.0878-.1269.2074-.2294.3587-.3074.1513-.0781.3123-.1244.4831-.1391.0439-.0049.1147-.0073.2123-.0073.0439,0,.1196.0049.2269.0146v.8564c-.0976-.0098-.2098-.0146-.3367-.0146-.2782,0-.5051.0805-.6808.2416-.1757.1562-.2635.3684-.2635.6368v2.1228h-.8784v-3.843Zm4.0875,3.9235c-.3465,0-.649-.0903-.9077-.2708-.2586-.1854-.4563-.4294-.5929-.732-.1366-.3074-.205-.6417-.205-1.0028s.0683-.693.205-.9955.3343-.5441.5929-.7247c.2586-.1806.5636-.2708.915-.2708.2196,0,.4221.039.6076.1171.1854.0732.344.1781.4759.3148v-1.7714h.8857v5.2558h-.8857v-.3514c-.288.2879-.6516.4319-1.0908.4319Zm-.8052-2.013c0,.4002.0854.7076.2562.9223.1757.2147.4124.3221.71.3221.2733,0,.4953-.0878.6661-.2635.1758-.1806.271-.4172.2856-.71.0049-.039.0073-.1244.0073-.2562,0-.1366-.0024-.2269-.0073-.2708-.0195-.3026-.1171-.5392-.2929-.71-.1708-.1708-.3904-.2562-.6588-.2562-.2782,0-.5026.0952-.6734.2855-.1708.1903-.266.4563-.2855.7979l-.0073.1391Z" style="fill:#cfd2d4; stroke-width:0px;"/><path d="m550.3847,221.3455h3.66c.2527,0,.4575.2048.4575.4575h0c0,.2527-.2048.4575-.4575.4575h-3.66c-.2527,0-.4575-.2048-.4575-.4575h0c0-.2527.2048-.4575.4575-.4575Z" style="fill:#cfd2d4; stroke-width:0px;"/><path d="m550.3847,224.243h9.76c.2527,0,.4575.2048.4575.4575h0c0,.2527-.2048.4575-.4575.4575h-9.76c-.2527,0-.4575-.2048-.4575-.4575h0c0-.2527.2048-.4575.4575-.4575Z" style="fill:#cfd2d4; stroke-width:0px;"/><path d="m550.3847,227.1405h9.76c.2527,0,.4575.2048.4575.4575h0c0,.2527-.2048.4575-.4575.4575h-9.76c-.2527,0-.4575-.2048-.4575-.4575h0c0-.2527.2048-.4575.4575-.4575Z" style="fill:#cfd2d4; stroke-width:0px;"/><path d="m550.3847,230.038h9.76c.2527,0,.4575.2048.4575.4575h0c0,.2527-.2048.4575-.4575.4575h-9.76c-.2527,0-.4575-.2048-.4575-.4575h0c0-.2527.2048-.4575.4575-.4575Z" style="fill:#cfd2d4; stroke-width:0px;"/><path d="m550.3847,232.9355h3.66c.2527,0,.4575.2048.4575.4575h0c0,.2527-.2048.4575-.4575.4575h-3.66c-.2527,0-.4575-.2048-.4575-.4575h0c0-.2527.2048-.4575.4575-.4575Z" style="fill:#cfd2d4; stroke-width:0px;"/><path d="m627.7021,232.02h-21.3496c-2.5234,0-4.5752-2.0518-4.5752-4.5742s2.0518-4.5752,4.5752-4.5752h21.3496c2.5225,0,4.5742,2.0518,4.5742,4.5752s-2.0518,4.5742-4.5742,4.5742Zm-21.3496-8.2354c-2.0186,0-3.6611,1.6426-3.6611,3.6611s1.6426,3.6602,3.6611,3.6602h21.3496c2.0176,0,3.6602-1.6426,3.6602-3.6602s-1.6426-3.6611-3.6602-3.6611h-21.3496Z" style="fill:#cfd2d4; stroke-width:0px;"/><path d="m603.6072,227.4455c0,1.516,1.2288,2.745,2.745,2.745h14.945v-5.49h-14.945c-1.5162,0-2.745,1.229-2.745,2.745Z" style="fill:#cfd2d4; stroke-width:0px;"/><path d="m573.7669,230.3864c-.2793-.1602-.5391-.4082-.7773-.7451l.7158-.5186c.1602.249.3203.4229.4785.5225s.3613.1494.6094.1494c.2734,0,.5088-.0557.709-.168.1992-.1113.2998-.2939.2998-.5479v-.0869c0-.2734-.0918-.4707-.2744-.5918-.1826-.1221-.4785-.1826-.8877-.1826h-.3066v-.7891h.292c.2969,0,.5498-.0537.7568-.1611.207-.1064.3105-.2949.3105-.5625v-.0801c0-.2295-.0898-.3838-.2676-.4639s-.373-.1211-.5879-.1211c-.2188,0-.4053.0469-.5586.1396-.1533.0918-.2959.2529-.4277.4814l-.6787-.4238c.1748-.3457.4014-.6016.6787-.7666.2783-.166.6162-.248,1.0156-.248.4971,0,.9014.1182,1.2129.3535.3115.2363.4678.5859.4678,1.0488,0,.2676-.0566.5029-.168.7051-.1123.2021-.2686.3545-.4678.4561.248.1074.4375.2607.5664.4609.1289.1992.1934.4473.1934.7451,0,.3457-.085.6426-.2559.8906-.1709.249-.4004.4346-.6904.5596-.29.124-.6094.1855-.9609.1855-.3848,0-.7168-.0801-.9971-.2412Z" style="fill:#cfd2d4; stroke-width:0px;"/><path d="m577.6175,230.2223c-.3438-.2705-.5156-.6436-.5156-1.1211,0-.3213.0723-.5918.2158-.8115.1436-.2188.3545-.3838.6318-.4961-.2236-.0977-.3936-.2412-.5078-.4316-.1143-.1895-.1719-.4258-.1719-.708,0-.3018.0762-.5615.2266-.7783.1514-.2168.3555-.3799.6143-.4893.2578-.1094.5498-.1641.876-.1641.332,0,.626.0566.8848.1709.2578.1152.46.2783.6064.4902.1455.2109.2188.459.2188.7412,0,.2725-.0605.5088-.1826.708-.1221.2002-.29.3535-.5039.4609.2822.1016.4961.2637.6426.4854s.2188.4961.2188.8223c0,.4775-.1709.8506-.5146,1.1211s-.7998.4053-1.3701.4053c-.5693,0-1.0264-.1348-1.3691-.4053Zm2.0742-.5664c.1875-.1113.2812-.2891.2812-.5332v-.1309c0-.2686-.084-.4658-.252-.5918-.168-.127-.4121-.1904-.7344-.1904-.3262,0-.5723.0635-.7373.1904-.166.126-.248.3232-.248.5918v.1309c0,.2441.0918.4219.2773.5332.1846.1123.4209.168.708.168.2832,0,.5176-.0557.7051-.168Zm-.0547-2.4326c.1172-.1162.1758-.2744.1758-.4746v-.0947c0-.2148-.0693-.375-.208-.4824-.1396-.1074-.3447-.1611-.6182-.1611-.2432,0-.4424.0508-.5986.1504s-.2334.2637-.2334.4932v.0947c0,.2002.0596.3584.1787.4746.1191.1172.3369.1758.6533.1758.3174,0,.5342-.0586.6504-.1758Z" style="fill:#cfd2d4; stroke-width:0px;"/><path d="m581.9632,230.3864c-.2793-.1602-.5391-.4082-.7773-.7451l.7158-.5186c.1602.249.3203.4229.4785.5225s.3613.1494.6094.1494c.2734,0,.5088-.0557.709-.168.1992-.1113.2998-.2939.2998-.5479v-.0869c0-.2734-.0918-.4707-.2744-.5918-.1826-.1221-.4785-.1826-.8877-.1826h-.3066v-.7891h.292c.2969,0,.5498-.0537.7568-.1611.207-.1064.3105-.2949.3105-.5625v-.0801c0-.2295-.0898-.3838-.2676-.4639s-.373-.1211-.5879-.1211c-.2188,0-.4053.0469-.5586.1396-.1533.0918-.2959.2529-.4277.4814l-.6787-.4238c.1748-.3457.4014-.6016.6787-.7666.2783-.166.6162-.248,1.0156-.248.4971,0,.9014.1182,1.2129.3535.3115.2363.4678.5859.4678,1.0488,0,.2676-.0566.5029-.168.7051-.1123.2021-.2686.3545-.4678.4561.248.1074.4375.2607.5664.4609.1289.1992.1934.4473.1934.7451,0,.3457-.085.6426-.2559.8906-.1709.249-.4004.4346-.6904.5596-.29.124-.6094.1855-.9609.1855-.3848,0-.7168-.0801-.9971-.2412Z" style="fill:#cfd2d4; stroke-width:0px;"/><path d="m587.0442,225.3024h.877v3.0244l1.4756-1.6143h1.0742l-1.4463,1.4902,1.5625,2.3447h-1.0146l-1.1475-1.7314-.5039.5117v1.2197h-.877v-5.2451Z" style="fill:#cfd2d4; stroke-width:0px;"/><path d="m591.0335,226.7126h.877v.3574c.127-.1357.2656-.2422.416-.3174.1514-.0762.3291-.1133.5332-.1133.2197,0,.4277.0449.625.1348.1973.0908.3516.2207.4639.3906.1562-.1699.3311-.2998.5264-.3906.1943-.0898.4062-.1348.6357-.1348.2725,0,.5107.0605.7158.1826.2041.1221.3613.292.4707.5107.1094.2197.1641.4678.1641.7461v2.4688h-.876v-2.2939c0-.2529-.0527-.4512-.1572-.5957-.1045-.1436-.2617-.2148-.4717-.2148-.1455,0-.2773.0361-.3945.1094-.1162.0732-.208.1709-.2734.292-.0654.1221-.0986.2529-.0986.3945v2.3086h-.8838v-2.2939c0-.2529-.0537-.4512-.1611-.5957-.1074-.1436-.2627-.2148-.4678-.2148-.1455,0-.2773.0352-.3945.1055-.1162.0713-.208.166-.2734.2852s-.0986.2549-.0986.4053v2.3086h-.877v-3.835Z" style="fill:#cfd2d4; stroke-width:0px;"/></g></svg>