<svg id="f78279d2-6ea2-4708-a882-9faa4f911a8b" data-name="Layer 1" xmlns="http://www.w3.org/2000/svg" width="55" height="55" viewBox="0 0 55 55"><path d="M54.95,7.15A3.07,3.07,0,0,0,53.89,5a2.579,2.579,0,0,0-2-.5L37.04,6.12l-1.97,3.2H-.07v3H34.86a39.123,39.123,0,0,1,2.19,11.97c0,4.65-.72,6.64-1.01,7.26l-7.67,2.43a9.027,9.027,0,0,0-16.88.34H-.07v3H10.96v.04a9.04,9.04,0,0,0,18.08,0c0-.15-.02-.29-.02-.43l8.8-2.79.26-.27c.46-.47,1.97-2.56,1.97-9.58a41.636,41.636,0,0,0-2.48-13.31l1.26-2.04L51.97,7.5l.32-.04h-.01ZM20,43.4a6.04,6.04,0,1,1,6.04-6.04A6.047,6.047,0,0,1,20,43.4Z" style="fill:#30373e"/></svg>
