<svg id="ff82135d-7c68-433e-9426-d58fbb6ef8f2" data-name="Layer 1" xmlns="http://www.w3.org/2000/svg" width="55" height="55" viewBox="0 0 55 55"><path d="M5.6,24.02l19.66-1.38,13.47-9.2a1.547,1.547,0,0,1,.88-.27H52.25v-3H39.61a4.578,4.578,0,0,0-2.57.79l-12.15,8.3L14.24,8.61a2.636,2.636,0,0,0-1.9-.86h-.01a3.041,3.041,0,0,0-2.15,1.04l1.95,1.94a.01.01,0,0,1-.01-.01l9.2,9.19L5.33,21.03a4.679,4.679,0,0,0-4.08,4.64V36.04l5.98,1.7c-.01.16-.02.31-.02.47a9.04,9.04,0,1,0,18.08,0v-.04H52.25v-3H24.75A9.029,9.029,0,0,0,7.88,34.8L4.25,33.77v-8.1A1.659,1.659,0,0,1,5.6,24.02Zm10.65,8.15a6.04,6.04,0,1,1-6.04,6.04A6.047,6.047,0,0,1,16.25,32.17Z" style="fill:#30373e"/></svg>