<svg id="a020ef9a-3bb9-4846-8ddd-c6c7fe159f40" data-name="Layer 1" xmlns="http://www.w3.org/2000/svg" width="55" height="55" viewBox="0 0 55 55"><path d="M41.764,15.163,37.23,7.353a2.617,2.617,0,0,0-2.58-1.33H24a2.375,2.375,0,0,0-1.86,1.33L17.6,15.163H14.283v2.345H17.5v11.97h2.345V25.506H39.388v3.972h2.345V17.508h3.205V15.163ZM24.181,8.5l.039-.078a.207.207,0,0,1,.039-.047H34.634a2.648,2.648,0,0,1,.5.054l3.91,6.74H20.311Z" style="fill:#30373e"/><path d="M23.087,32.6H20.8c1.728.977,3.338,2.322,3.346,3.088-.289.735-3.628,1.752-5.621,2.354-4.355,1.321-8.459,2.572-8.459,5.5a5.494,5.494,0,0,0,5.543,5.418H16.77c-2.213-1.533-4.363-3.534-4.363-5.418,0-1.2,4.253-2.487,6.794-3.261,4.066-1.235,7.279-2.212,7.279-4.558a3.082,3.082,0,0,0-.1-.758A3.366,3.366,0,0,0,23.087,32.6Z" style="fill:#30373e"/><path d="M41.3,32.6H38.95c1.728,1.079,3.33,2.479,3.534,3.346A19.159,19.159,0,0,1,38.379,37.5c-4.3,1.322-9.163,2.831-9.163,6.443a4.535,4.535,0,0,0,.242,1.446,5.421,5.421,0,0,0,5.207,3.588h.821c-2.212-1.72-3.924-3.565-3.924-5.034,0-1.885,4.519-3.276,7.513-4.2,3.354-1.032,5.778-1.782,5.778-3.62a3.649,3.649,0,0,0-.665-1.97A3.434,3.434,0,0,0,41.3,32.6Z" style="fill:#30373e"/></svg>