<svg xmlns="http://www.w3.org/2000/svg" width="70" height="70" viewBox="0 0 70 70"><g id="aac756aa-f14e-4dae-8a72-1e860e6fb8c2" data-name="illustration"><path d="M40.8,41.006l0-.017c-1.147-7.055-6.855-14.371-16.679-13.73-7.1.457-14.414,5.51-14.751,15.789a15.966,15.966,0,0,0,8.391,14.02l14.632.06.109-.057A15.954,15.954,0,0,0,40.8,41.006Zm-8.12,1.367,0-.094h5.305a9.867,9.867,0,0,1-.08,2.347H32.653C32.7,44.022,32.694,43.217,32.678,42.373ZM24.044,54.256l-.516-3.517h3.123l-.44,3.517ZM32.756,39.5a2.628,2.628,0,0,0-2.346-2.518c-.992-.083-2.712-.182-5.282-.182-2.255,0-3.781.088-5.1.182A2.558,2.558,0,0,0,17.682,39.5H12.739A12.744,12.744,0,0,1,20,31.2a12.451,12.451,0,0,1,11.477.567l.013.008A12.505,12.505,0,0,1,37.523,39.5Zm-12.286.319a66.6,66.6,0,0,1,9.317,0v4.317a3.279,3.279,0,0,1-.714,2.134l-.808,1.073a1.442,1.442,0,0,1-1.148.531H23.1c-.668.09-1.273-.729-1.737-1.364l-.178-.241a3.423,3.423,0,0,1-.714-2.134ZM18.624,47.5l.074.121c.07.119.142.239.269.423.1.124.218.267.337.417A8.821,8.821,0,0,0,20.513,49.8l.617,4.457H18.574a12.9,12.9,0,0,1-5.6-6.757Zm10.414,6.757.615-4.367a8.342,8.342,0,0,0,.919-.773l.2-.247a9.149,9.149,0,0,0,1-1.37H37.2A12.258,12.258,0,0,1,31.6,54.256ZM17.6,44.626H12.274a12.546,12.546,0,0,1-.118-1.578c0-.29,0-.527.023-.769h5.4v.1C17.564,43.227,17.555,44.036,17.6,44.626Z" style="fill:#30373e"/><polygon points="49.472 57.127 46.575 57.127 46.509 56.708 41.187 22.493 44.071 22.493 44.136 22.899 49.472 57.127" style="fill:#30373e"/><polygon points="9.253 22.493 3.681 57.127 0.784 57.127 6.369 22.493 9.253 22.493" style="fill:#30373e"/><path d="M33.138,18.98,31.08,14.208a2.393,2.393,0,0,0-2.242-1.35H20.972a1.9,1.9,0,0,0-1.717,1.376L17.131,18.98H14.51v2.871h2.176v4.614l.708-.341a18.243,18.243,0,0,1,15.468,0l.708.341V21.851h2.255V18.98Zm-3.251,0H20.265l1.389-3.251h6.764Z" style="fill:#30373e"/><polygon points="62.122 34.357 54.519 26.203 58.229 26.203 62.122 30.319 66.028 26.203 69.738 26.203 62.122 34.357" style="fill:#30373e"/><polygon points="66.028 34.868 69.738 34.868 62.122 43.022 54.519 34.868 58.229 34.868 62.122 38.984 66.028 34.868" style="fill:#30373e"/></g></svg>