<?xml version="1.0" encoding="UTF-8"?><svg id="uuid-1d7b9265-e920-4c5a-ace4-3d2bd9362b93" xmlns="http://www.w3.org/2000/svg" width="57.852" height="55" viewBox="0 0 57.852 55"><path d="M51.818,8.227c-.19-1.637-1.67-2.813-3.3-2.632l-12.209,1.351-.751.083-.38.653-1,1.716c-.648-.275-1.355-.424-2.08-.428l-1.25-.007c-.615-.004-1.278-.007-1.982-.011v3c.687.004,1.335.008,1.937.011h.027s.003,0,.003,0l1.248.007c.913.005,1.72.515,2.094,1.302.631,1.328,1.336,2.888,1.927,4.359.602,1.498,1.046,2.809,1.207,3.674.288,1.54.463,4.047.425,6.614-.035,2.377-.252,4.636-.659,6.146-.562.451-1.571,1.139-2.8,1.687-1.389-4.064-5.241-6.987-9.776-6.987-4.992,0-9.156,3.541-10.119,8.248l-6.835-.025-1.5-.005-.011,3,1.5.005,6.677.024c.465,5.274,4.893,9.41,10.288,9.41,5.704,0,10.328-4.624,10.328-10.328,0-.107,0-.214-.005-.32,2.164-.841,3.873-2.103,4.58-2.752l.217-.199,8.949-.01c1.65-.002,3-1.346,3-3.004h-3v.002h-.01s-8.18.011-8.18.011c.225-1.517.331-3.218.356-4.858.04-2.683-.139-5.405-.475-7.209-.22-1.177-.763-2.723-1.373-4.242-.622-1.547-1.354-3.167-2.002-4.529-.107-.226-.229-.441-.364-.645l.87-1.493,11.448-1.268s0,0,0,0h0s.01,0,.01,0c0,0,0,0,0,0h0s-.01,0-.01,0h0s.01-.001.01-.001l2.97-.348ZM24.499,31.766c-4.048,0-7.329,3.281-7.329,7.328s3.281,7.328,7.329,7.328,7.328-3.281,7.328-7.328-3.281-7.328-7.328-7.328ZM6.282,8.975c4.211-.052,8.833-.064,13.135-.058v3c-4.293-.006-8.901.006-13.098.058l-.037-3ZM25.42,5.743h-2.617v7.851h2.617v-7.851ZM22.803,16.209h2.617v2.617h-2.617v-2.617Z" style="fill:#30373e; fill-rule:evenodd;"/></svg>