<svg id="f9756d70-3f8e-43f7-b82d-03dcea90ad32" data-name="Layer 1" xmlns="http://www.w3.org/2000/svg" width="55" height="56" viewBox="0 0 55 56"><path d="M27.4,42.3h-.8a1.268,1.268,0,0,1-.9-.4A22.7,22.7,0,0,1,21.3,28a22.7,22.7,0,0,1,4.4-13.9,1.086,1.086,0,0,1,.9-.4c.5,0,13.5.1,19.9,6.4a11.322,11.322,0,0,1,3.4,8.3,11.328,11.328,0,0,1-3.4,8.2C41,41.9,30.5,42.3,27.4,42.3Zm-.1-26.1A21.556,21.556,0,0,0,23.8,28a22,22,0,0,0,3.5,11.9c2.5,0,12.6-.3,17.6-5.1a8.384,8.384,0,0,0,2.7-6.4c0-5-3.4-8.5-10.1-10.6A39.432,39.432,0,0,0,27.3,16.2Z" style="fill:#30373e"/><path d="M19.7,13.7H5v2.5H19.7Z" style="fill:#30373e"/><path d="M18.1,22.4H5v2.5H18.1Z" style="fill:#30373e"/><path d="M18.1,31.1H5v2.5H18.1Z" style="fill:#30373e"/><path d="M19.7,39.9H5v2.5H19.7Z" style="fill:#30373e"/></svg>