<?xml version="1.0" encoding="UTF-8"?><svg id="uuid-5fe16085-2c56-4c12-9f3a-d55885f69886" xmlns="http://www.w3.org/2000/svg" width="57.852" height="55" viewBox="0 0 57.852 55"><path d="M51.819,8.227c-.191-1.637-1.669-2.813-3.307-2.632l-12.205,1.351-.751.083-.38.653-1,1.716c-.648-.275-1.354-.424-2.079-.428l-1.251-.007h0c-5.834-.034-16.04-.094-24.565.011l.037,3c8.496-.105,18.676-.045,24.513-.011l1.249.007c.912.005,1.719.515,2.094,1.302.631,1.327,1.336,2.887,1.926,4.358.602,1.498,1.047,2.809,1.208,3.674.287,1.54.463,4.047.425,6.614-.036,2.377-.253,4.636-.66,6.146-.562.451-1.57,1.139-2.8,1.687-1.388-4.064-5.241-6.987-9.776-6.987-4.991,0-9.156,3.541-10.119,8.248l-6.834-.025-1.5-.005-.011,3,1.5.005,6.676.024c.465,5.274,4.894,9.41,10.288,9.41,5.705,0,10.329-4.624,10.329-10.328,0-.107-.002-.214-.005-.32,2.164-.841,3.873-2.103,4.58-2.752l.217-.199,8.945-.01c1.657-.002,3-1.346,3-3.004h-3s-.001.002-.001.002h0s-.002.001-.002.001l-8.182.01c.224-1.517.331-3.218.355-4.857.04-2.683-.139-5.405-.475-7.209-.219-1.177-.762-2.723-1.373-4.242-.621-1.547-1.353-3.167-2.001-4.529-.108-.226-.23-.441-.365-.645l.87-1.493,11.453-1.268s0,0,0,0h0s0,0,0,0c.002,0,.002,0,.001,0h-.001s0,0,0,0h-.001s.002-.001.002-.001l2.977-.348ZM24.497,31.766c-4.047,0-7.328,3.281-7.328,7.328s3.281,7.328,7.328,7.328,7.329-3.281,7.329-7.328-3.281-7.328-7.329-7.328Z" style="fill:#30373e; fill-rule:evenodd;"/></svg>