<svg id="fa8f4da2-62df-4b1e-b738-8cb038da5fa8" data-name="Layer 1" xmlns="http://www.w3.org/2000/svg" width="55" height="55" viewBox="0 0 55 55"><path d="M38.887,35.278c.442-1.28.658-2.051.724-2.3l.123-.32L36.967,18.9l-2.08-.923,4.752-4.752-1.994-2L32.12,16.749,29.57,15.62a4.865,4.865,0,1,0-3.312,0l-7.406,3.265L16.094,32.662l.029.075L10.1,38.76,11.935,40.9a28.828,28.828,0,0,1,5.929-3.067l.155.395h0c.11.28.222.566.343.866,1.243,3.03,2.748,6.239,4.48,9.542h3.18c-1.467-2.748-2.785-5.43-3.924-7.99a14.454,14.454,0,0,1,11.632-.075c-1.148,2.6-2.475,5.3-3.953,8.065h3.181c1.732-3.313,3.247-6.55,4.5-9.608.094-.227.178-.441.261-.649.057-.146.114-.29.172-.434a23.012,23.012,0,0,1,5.2,2.965L44.9,38.732l0,0A25.649,25.649,0,0,0,38.887,35.278ZM29.975,18.9,19.67,29.2l-.658,3.284.009.03h0c.066.227.167.573.311,1.014l13.41-13.41ZM19.586,34.29a28.631,28.631,0,0,1,16.637.057c-.244.715-.564,1.6-.978,2.644a25.729,25.729,0,0,0-14.681-.047C20.15,35.89,19.83,35.005,19.586,34.29Z" style="fill:#30373e;fill-rule:evenodd"/></svg>