<svg id="b747a8b3-0c33-4912-bdc1-5d0708aa9072" data-name="Layer 1" xmlns="http://www.w3.org/2000/svg" xmlns:xlink="http://www.w3.org/1999/xlink" width="55" height="56" viewBox="0 0 55 56"><defs><clipPath id="e9d029ff-a9fc-43f9-938e-ec19f23c9713"><rect x="5" y="5.313" width="45" height="45" style="fill:none"/></clipPath></defs><g style="clip-path:url(#e9d029ff-a9fc-43f9-938e-ec19f23c9713)"><path d="M27.5,5.313A22.5,22.5,0,1,0,50,27.813,22.529,22.529,0,0,0,27.5,5.313Zm0,42.545A20.045,20.045,0,1,1,47.546,27.813,20.066,20.066,0,0,1,27.5,47.858Z" style="fill:#30373e"/><path d="M39.413,27.87a10.781,10.781,0,0,0-20.52-3.134h-.8a5.723,5.723,0,0,0-5.727,5.728H18.2l-.965,3.4h3.854l.965-3.4h.573v-.049H36.009l.982,3.436h3.854l-.966-3.395h.164a2.6,2.6,0,0,0,2.6-2.6H39.413Z" style="fill:#30373e"/></g></svg>