<?xml version="1.0" encoding="UTF-8"?><svg id="uuid-e4cb7056-f1f9-452b-9269-d2a917ec21dc" xmlns="http://www.w3.org/2000/svg" width="55" height="55" viewBox="0 0 55 55"><path d="m27.501,9.05c-10.17,0-18.45,8.27-18.45,18.45s8.28,18.45,18.45,18.45,18.45-8.28,18.45-18.45-8.28-18.45-18.45-18.45Zm0,34.2c-8.69,0-15.75-7.07-15.75-15.75s7.06-15.75,15.75-15.75,15.75,7.06,15.75,15.75-7.07,15.75-15.75,15.75Z" style="fill:#30373e; fill-rule:evenodd; stroke-width:0px;"/><path d="m44.996,44.987l-1.908-1.908c3.987-3.987,6.462-9.504,6.462-15.579s-2.475-11.592-6.462-15.588l1.908-1.908c4.482,4.482,7.254,10.674,7.254,17.496s-2.772,13.005-7.254,17.487Z" style="fill:#30373e; fill-rule:evenodd; stroke-width:0px;"/><path d="m11.921,43.087l-1.908,1.908c-4.491-4.482-7.263-10.674-7.263-17.496s2.772-13.014,7.254-17.487l1.908,1.908c-3.987,3.987-6.462,9.504-6.462,15.579s2.475,11.592,6.471,15.588Z" style="fill:#30373e; fill-rule:evenodd; stroke-width:0px;"/><path d="m22.642,20.651h5.558c1.613,0,2.861.371,3.744,1.115.882.744,1.323,1.803,1.323,3.176,0,1.361-.444,2.417-1.333,3.167s-2.134,1.125-3.734,1.125h-2.778v4.991h-2.779v-13.574h0Zm7.231,5.719c.422-.334.633-.81.633-1.428,0-.63-.211-1.108-.633-1.437-.423-.328-1.03-.491-1.824-.491h-2.628v3.856h2.628c.794,0,1.401-.167,1.824-.501h0Z" style="fill:#30373e; stroke-width:0px;"/></svg>