<?xml version="1.0" encoding="UTF-8"?><svg id="uuid-e39fdf1b-24ec-4eac-a374-57b2fe340b18" xmlns="http://www.w3.org/2000/svg" width="140" height="39" viewBox="0 0 140 39"><path d="m24.613,12.151c1.8,0,3.259-1.459,3.259-3.259s-1.459-3.259-3.259-3.259-3.259,1.459-3.259,3.259,1.459,3.259,3.259,3.259Z" style="fill:#30373e; stroke-width:0px;"/><path d="m13.78,22.384l-3.409-.945c-1.089-.3-2.236.241-2.692,1.271l-3.728,8.395c-.508,1.154.007,2.497,1.16,3.011.3.137.613.196.926.196.873,0,1.708-.508,2.086-1.356l2.927-6.59,3.833,1.062-1.102-5.045Z" style="fill:#30373e; stroke-width:0px;"/><path d="m23.525,14.81c-1.16-.502-2.496.026-3.005,1.18l-1.525,3.507c.143.254.267.521.332.821l1.434,6.544,3.937-9.054c.508-1.154-.02-2.496-1.173-2.998Z" style="fill:#30373e; stroke-width:0px;"/><path d="m19.399,35.29c-.443,0-.847-.306-.952-.756l-2.49-10.755c-.124-.528.209-1.049.73-1.173s1.049.202,1.173.73l2.49,10.755c.124.528-.209,1.049-.73,1.173-.078.02-.15.026-.222.026Z" style="fill:#30373e; stroke-width:0px;"/><path d="m28.198,15.735c-.332,0-.658-.169-.841-.482-.274-.463-.124-1.062.345-1.336l7.17-4.237c.463-.274,1.062-.124,1.336.345.274.463.124,1.062-.345,1.336l-7.17,4.237c-.156.091-.326.137-.495.137Z" style="fill:#30373e; stroke-width:0px;"/><path d="m5.401,5.211l-1.752-1.752-1.416,1.416,1.752,1.752c-.963,1.261-1.535,2.837-1.535,4.546s.572,3.285,1.535,4.546l-1.679,1.679,1.416,1.416,1.679-1.679c1.261.963,2.837,1.535,4.546,1.535s3.285-.572,4.546-1.535l1.752,1.752,1.416-1.416-1.752-1.752c.963-1.261,1.535-2.837,1.535-4.546s-.572-3.285-1.535-4.546l1.679-1.679-1.416-1.416-1.679,1.679c-1.261-.963-2.837-1.535-4.546-1.535s-3.285.572-4.546,1.535Zm.017,2.849c-.609.885-.966,1.957-.966,3.113s.357,2.228.966,3.113l3.113-3.113-3.113-3.113Zm4.529,1.697l-3.113-3.113c.885-.609,1.957-.966,3.113-.966s2.228.357,3.113.966l-3.113,3.113Zm0,2.831l-3.113,3.113c.885.609,1.957.966,3.113.966s2.228-.357,3.113-.966l-3.113-3.113Zm4.529,1.697l-3.113-3.113,3.113-3.113c.609.885.966,1.957.966,3.113s-.357,2.228-.966,3.113Z" style="fill:#30373e; fill-rule:evenodd; stroke-width:0px;"/><path d="m45.928,3.772h4.729c1.372,0,2.434.317,3.185.949.751.633,1.126,1.534,1.126,2.703,0,1.158-.378,2.057-1.134,2.694-.756.638-1.815.957-3.177.957h-2.365v4.247h-2.364V3.772Zm6.153,4.866c.358-.284.538-.689.538-1.214,0-.536-.18-.943-.538-1.223-.36-.279-.877-.418-1.553-.418h-2.236v3.281h2.236c.676,0,1.192-.142,1.553-.426Z" style="fill:#30373e; stroke-width:0px;"/><path d="m58.345,3.772h2.703l4.327,11.55h-2.396l-.917-2.478h-4.762l-.917,2.478h-2.349l4.311-11.55Zm2.96,7.062l-1.641-4.44-1.625,4.44h3.266Z" style="fill:#30373e; stroke-width:0px;"/><path d="m67.323,14.864c-.869-.423-1.539-1.021-2.011-1.793l1.721-1.352c.429.644.898,1.086,1.408,1.327.509.241,1.086.362,1.729.362h.129c.354,0,.684-.062.989-.185.306-.124.55-.306.732-.547.182-.242.273-.528.273-.861,0-.354-.129-.614-.387-.78-.257-.166-.616-.308-1.077-.426l-1.657-.402c-.697-.182-1.271-.388-1.721-.619-.451-.23-.802-.544-1.054-.941-.253-.397-.378-.906-.378-1.528,0-.75.188-1.392.562-1.922s.882-.93,1.521-1.198c.638-.268,1.354-.402,2.147-.402.879,0,1.656.172,2.332.515.676.343,1.287.863,1.834,1.561l-1.625,1.319c-.343-.482-.727-.826-1.149-1.029-.424-.204-.898-.306-1.424-.306h-.112c-.483,0-.907.104-1.271.313-.364.209-.547.518-.547.925v.064c0,.225.046.402.137.531.091.128.223.23.395.306.171.075.429.161.771.257l2.14.547c.901.225,1.611.59,2.132,1.094.52.504.78,1.169.78,1.995,0,.74-.19,1.4-.571,1.979s-.909,1.029-1.584,1.351c-.676.322-1.438.482-2.285.482-1.051,0-2.011-.211-2.879-.635Z" style="fill:#30373e; stroke-width:0px;"/><path d="m76.942,14.864c-.869-.423-1.539-1.021-2.011-1.793l1.721-1.352c.429.644.898,1.086,1.408,1.327.509.241,1.086.362,1.729.362h.129c.354,0,.684-.062.989-.185.306-.124.55-.306.732-.547.182-.242.273-.528.273-.861,0-.354-.129-.614-.387-.78-.257-.166-.616-.308-1.077-.426l-1.657-.402c-.697-.182-1.271-.388-1.721-.619-.451-.23-.802-.544-1.054-.941-.253-.397-.378-.906-.378-1.528,0-.75.188-1.392.562-1.922s.882-.93,1.521-1.198c.638-.268,1.354-.402,2.147-.402.879,0,1.656.172,2.332.515.676.343,1.287.863,1.834,1.561l-1.625,1.319c-.343-.482-.727-.826-1.149-1.029-.424-.204-.898-.306-1.424-.306h-.112c-.483,0-.907.104-1.271.313-.364.209-.547.518-.547.925v.064c0,.225.046.402.137.531.091.128.223.23.395.306.171.075.429.161.771.257l2.14.547c.901.225,1.611.59,2.132,1.094.52.504.78,1.169.78,1.995,0,.74-.19,1.4-.571,1.979s-.909,1.029-1.584,1.351c-.676.322-1.438.482-2.285.482-1.051,0-2.011-.211-2.879-.635Z" style="fill:#30373e; stroke-width:0px;"/><path d="m85.581,3.772h7.979v2.043h-5.646v2.574h4.729v2.027h-4.729v2.863h5.646v2.043h-7.979V3.772Z" style="fill:#30373e; stroke-width:0px;"/><path d="m95.184,3.772h2.396l5.067,7.577V3.772h2.269v11.55h-2.06l-5.405-7.963v7.963h-2.268V3.772Z" style="fill:#30373e; stroke-width:0px;"/><path d="m108.914,14.735c-.811-.509-1.438-1.212-1.883-2.107-.444-.896-.667-1.906-.667-3.032v-.129c0-1.04.201-2.008.603-2.904.402-.895,1.003-1.614,1.802-2.155s1.762-.812,2.888-.812c.815,0,1.51.097,2.083.29.574.193,1.072.518,1.496.973.424.456.797,1.075,1.118,1.858l-2.043.853c-.278-.654-.622-1.134-1.029-1.439-.408-.306-.891-.458-1.448-.458h-.225c-.654,0-1.196.172-1.625.515-.429.343-.748.791-.957,1.343-.209.553-.313,1.156-.313,1.81v.402c0,.676.112,1.29.338,1.842.225.553.558.992.997,1.319s.976.491,1.608.491h.129c.482,0,.917-.107,1.303-.322.387-.214.694-.499.925-.853.23-.354.362-.729.395-1.126v-.064h-3.104v-2.091h5.438v1.56c0,.923-.212,1.765-.636,2.526-.424.762-1.017,1.365-1.777,1.81-.762.445-1.636.667-2.622.667-1.052,0-1.981-.254-2.791-.764Z" style="fill:#30373e; stroke-width:0px;"/><path d="m118.187,3.772h7.979v2.043h-5.646v2.574h4.729v2.027h-4.729v2.863h5.646v2.043h-7.979V3.772Z" style="fill:#30373e; stroke-width:0px;"/><path d="m127.791,3.772h4.648c1.33,0,2.367.312,3.113.933.745.622,1.118,1.512,1.118,2.67,0,.783-.183,1.456-.547,2.019-.365.563-.891.979-1.577,1.247l2.462,4.681h-2.622l-2.253-4.343h-2.011v4.343h-2.332V3.772Zm6.129,4.762c.3-.311.45-.691.45-1.142,0-.568-.183-.979-.547-1.23s-.863-.378-1.496-.378h-2.204v3.217h2.204c.762,0,1.292-.156,1.593-.467Z" style="fill:#30373e; stroke-width:0px;"/><path d="m45.6,23.052h2.703l4.327,11.551h-2.396l-.917-2.478h-4.762l-.917,2.478h-2.349l4.311-11.551Zm2.96,7.062l-1.641-4.44-1.625,4.44h3.266Z" style="fill:#30373e; stroke-width:0px;"/><path d="m54.094,23.052h2.364v11.551h-2.364v-11.551Z" style="fill:#30373e; stroke-width:0px;"/><path d="m58.792,23.052h4.648c1.33,0,2.367.312,3.113.934.745.622,1.118,1.512,1.118,2.67,0,.783-.183,1.456-.547,2.02-.365.562-.891.979-1.577,1.246l2.462,4.682h-2.622l-2.253-4.344h-2.011v4.344h-2.332v-11.551Zm6.129,4.762c.3-.311.45-.691.45-1.142,0-.568-.183-.979-.547-1.23s-.863-.378-1.496-.378h-2.204v3.217h2.204c.762,0,1.292-.155,1.593-.467Z" style="fill:#30373e; stroke-width:0px;"/><path d="m69.601,23.052h4.762c1.243,0,2.195.264,2.855.789.659.525.989,1.286.989,2.284,0,.579-.14,1.083-.419,1.512-.278.429-.676.751-1.19.965.611.204,1.092.55,1.44,1.038.348.488.522,1.064.522,1.729,0,1.008-.346,1.799-1.037,2.372-.692.574-1.649.861-2.872.861h-5.051v-11.551Zm5.903,4.352c.312-.23.467-.57.467-1.021,0-.439-.155-.777-.467-1.013-.311-.236-.767-.354-1.367-.354h-2.269v2.734h2.269c.601,0,1.057-.114,1.367-.346Zm.298,4.826c.316-.263.475-.625.475-1.086,0-.45-.161-.81-.482-1.078-.322-.268-.757-.401-1.304-.401h-2.622v2.96h2.622c.558,0,.995-.132,1.312-.395Z" style="fill:#30373e; stroke-width:0px;"/><path d="m83.515,23.052h2.703l4.327,11.551h-2.396l-.917-2.478h-4.762l-.917,2.478h-2.349l4.311-11.551Zm2.96,7.062l-1.641-4.44-1.625,4.44h3.266Z" style="fill:#30373e; stroke-width:0px;"/><path d="m93.98,34.016c-.811-.51-1.438-1.212-1.883-2.107-.444-.896-.667-1.906-.667-3.032v-.129c0-1.04.201-2.008.603-2.904.402-.895,1.003-1.613,1.802-2.155.799-.541,1.762-.812,2.888-.812.815,0,1.51.097,2.083.29.574.192,1.072.518,1.496.973.424.456.797,1.075,1.118,1.858l-2.043.853c-.278-.654-.622-1.134-1.029-1.439-.408-.306-.891-.459-1.448-.459h-.225c-.654,0-1.196.172-1.625.515-.429.344-.748.791-.957,1.344s-.313,1.155-.313,1.81v.402c0,.676.112,1.289.338,1.842.225.553.558.992.997,1.319s.976.49,1.608.49h.129c.482,0,.917-.107,1.303-.321.387-.215.694-.499.925-.853.23-.354.362-.729.395-1.127v-.063h-3.104v-2.092h5.438v1.561c0,.923-.212,1.765-.636,2.525-.424.762-1.017,1.365-1.777,1.81-.762.445-1.636.668-2.622.668-1.052,0-1.981-.255-2.791-.764Z" style="fill:#30373e; stroke-width:0px;"/><path d="m112.528,33.984c-.788-.531-1.384-1.25-1.786-2.156-.401-.906-.603-1.911-.603-3.016,0-1.137.206-2.153.619-3.049s1.014-1.601,1.802-2.115,1.729-.772,2.823-.772c1.115,0,2.067.266,2.855.797.788.53,1.38,1.246,1.777,2.147.396.9.595,1.897.595,2.992,0,1.126-.206,2.142-.619,3.048s-1.014,1.62-1.802,2.14c-.788.521-1.724.78-2.807.78-1.115,0-2.067-.266-2.855-.796Zm4.407-1.706c.435-.283.77-.675,1.006-1.174.235-.499.37-1.069.402-1.713.011-.15.016-.338.016-.563s-.005-.413-.016-.562c-.032-.644-.169-1.218-.41-1.722s-.579-.898-1.014-1.183-.946-.426-1.536-.426c-.601,0-1.121.145-1.561.435-.439.289-.777.686-1.014,1.189-.235.505-.364,1.073-.386,1.706-.011.149-.017.337-.017.562s.006.413.017.563c.021.622.147,1.185.378,1.688.23.505.565.901,1.006,1.19.439.29.965.435,1.576.435.601,0,1.118-.142,1.552-.427Z" style="fill:#30373e; stroke-width:0px;"/><path d="m122.381,23.052h7.882v2.043h-5.55v2.88h4.633v2.043h-4.633v4.585h-2.332v-11.551Z" style="fill:#30373e; stroke-width:0px;"/><path d="m132.049,23.052h7.882v2.043h-5.55v2.88h4.633v2.043h-4.633v4.585h-2.332v-11.551Z" style="fill:#30373e; stroke-width:0px;"/><path d="m26.282,30.574l3.644-3.409c.341-.312.629-.611.863-.899s.414-.559.541-.812c.127-.253.19-.492.19-.717v-.132c0-.351-.135-.639-.402-.863-.269-.224-.607-.336-1.017-.336-.586,0-1.034.127-1.347.38-.312.254-.517.688-.614,1.303l-1.844-.585c.156-.937.571-1.661,1.244-2.173.673-.512,1.526-.769,2.561-.769.653,0,1.243.117,1.77.352.527.234.944.575,1.251,1.023.308.449.461.98.461,1.596,0,.507-.1.992-.3,1.455-.2.464-.456.888-.768,1.273-.312.385-.669.758-1.068,1.119l-2.253,2.019h4.462v1.829h-7.374v-1.653Z" style="fill:#30373e; stroke-width:0px;"/></svg>