<svg xmlns="http://www.w3.org/2000/svg" width="55" height="55" viewBox="0 0 55 55"><g id="a77eb74f-ce6a-44a2-b9eb-614d3187c497" data-name="illustration"><path d="M19.95,40.4192v-.0165H10.56l3.582-3.5827h.0082V33.304l-2.6227,2.6144L5.8025,41.652,11.71,47.5593,14.1505,50V46.4838l-3.6072-3.599h6.1141v.0165h9.101V40.4192Z" style="fill:#30373e"/><path d="M12.3635,21.787l-.1572-1.059H5V23.21h5.03c.0166.2317.0249.4468.0249.6536a36.4428,36.4428,0,0,1-.4385,4.9724H5.8025l-.1241,1.1A1.552,1.552,0,0,1,5,31.053v2.6392A4,4,0,0,0,7.8627,31.31h1.754a2.5044,2.5044,0,0,0,2.4572-2.11,37.9492,37.9492,0,0,0,.4633-5.3365A16.4258,16.4258,0,0,0,12.3635,21.787Z" style="fill:#30373e"/><path d="M18.2875,5H15.8054v7.4462h2.4821Z" style="fill:#30373e"/><path d="M18.2875,14.9282H15.8054V17.41h2.4821Z" style="fill:#30373e"/><path d="M42.241,33.8a4.04,4.04,0,0,1-3.7267-2.49H27.2927a4.0338,4.0338,0,0,1-7.4534,0h-1.328l-2.7307-1.834V24.0229A2.489,2.489,0,0,1,17.9967,21.55l5.32-.7636L28.62,16.8356a2.5107,2.5107,0,0,1,1.4359-.4565H47.2542a2.4752,2.4752,0,0,1,2.3821,1.76,21.1079,21.1079,0,0,1,1.0126,5.71,38.07,38.07,0,0,1-.4648,5.3535,2.471,2.471,0,0,1-2.4651,2.1165h-1.76A4.0164,4.0164,0,0,1,42.241,33.8ZM25.226,28.82H40.5893l.1245,1.1039a1.5436,1.5436,0,0,0,3.071,0l.1245-1.1039h3.818a36.4111,36.4111,0,0,0,.44-4.98,18.6426,18.6426,0,0,0-.9047-4.98H30.0654l-5.76,4.2994-5.9843.8549L18.28,28.1477l.996.6723h2.6311l.1245,1.1039a1.5436,1.5436,0,0,0,3.071,0Z" style="fill:#30373e"/></g></svg>