<svg id="b4debe7d-8fe5-4df0-948c-881edf7c96a2" data-name="Layer 1" xmlns="http://www.w3.org/2000/svg" width="55" height="55" viewBox="0 0 55 55"><path d="M36.4,45.1a37.495,37.495,0,0,1-8.9,1.4,32.942,32.942,0,0,1-8.9-1.4V36.4l-2.3,2.3v8.1l.8.3a36.944,36.944,0,0,0,10.4,1.7,41.47,41.47,0,0,0,10.4-1.7l.8-.3V38.9l-2.3-2.3Z" style="fill:#30373e"/><path d="M38.7,27.3,36.4,25v7.2l9.3,9.4V38.3l-7-7Z" style="fill:#30373e"/><path d="M32.7,33.8H22.3v4.3H32.7Z" style="fill:#30373e"/><path d="M31.1,23.6H23.8L22,17.3a13.326,13.326,0,0,1,5.5-.9,13.326,13.326,0,0,1,5.5.9Z" style="fill:#30373e"/><path d="M18.6,24.8l-2.4,2.3v4L9.3,38v3.3L18.6,32Z" style="fill:#30373e"/><path d="M38.7,19.6V8.2l-.8-.3A37.391,37.391,0,0,0,27.3,6.2,38.226,38.226,0,0,0,17,7.9l-.8.3V19.4l-7,7v3.3l9.3-9.3V9.9a33.8,33.8,0,0,1,8.7-1.4,33.266,33.266,0,0,1,9.1,1.4V20.6l9.3,9.3V26.6Z" style="fill:#30373e"/></svg>