<svg xmlns="http://www.w3.org/2000/svg" width="12" height="12" viewBox="0 0 12 12"><g id="bf916830-df58-41f5-a994-cd5d64fa79a0" data-name="below"><circle cx="6" cy="6" r="6" style="fill:#30373e"/></g><g id="edd16f4f-0ade-4948-ab7a-7b44ed829495" data-name="illustration"><path d="M8.483,2.231h.132a1.452,1.452,0,0,1,1.422,1.477v.675H9.6V3.708a1.016,1.016,0,0,0-.986-1.042H8.483A1.016,1.016,0,0,0,7.5,3.708V8.822a.8.8,0,0,1-.8.8H3.35a.8.8,0,0,1-.8-.8V4.385H7.061V3.71A1.453,1.453,0,0,1,8.483,2.231ZM5.5,7.718a.507.507,0,0,1-1.014,0V6.272a.507.507,0,1,1,1.014,0Z" style="fill:#efefef;fill-rule:evenodd"/></g></svg>
