<svg xmlns="http://www.w3.org/2000/svg" width="39" height="39" viewBox="0 0 39 39"><g id="ed482d57-f851-4ccf-9aed-d7d860e800f6" data-name="Layer 1"><path d="M11.257,8.8h0a1.7,1.7,0,0,1,.821,2.255L3.528,29.384a1.7,1.7,0,0,1-2.254.821h0A1.7,1.7,0,0,1,.453,27.95L9,9.616A1.7,1.7,0,0,1,11.257,8.8Z" style="fill:#30373e"/><path d="M19.954,8.8h0a1.7,1.7,0,0,1,.82,2.255L12.225,29.384a1.7,1.7,0,0,1-2.255.821h0a1.7,1.7,0,0,1-.82-2.255L17.7,9.616A1.7,1.7,0,0,1,19.954,8.8Z" style="fill:#30373e"/><path d="M28.84,8.8h0a1.7,1.7,0,0,1,.821,2.255l-8.55,18.334a1.7,1.7,0,0,1-2.254.821h0a1.7,1.7,0,0,1-.821-2.255l8.55-18.334A1.7,1.7,0,0,1,28.84,8.8Z" style="fill:#30373e"/><path d="M37.726,8.8h0a1.7,1.7,0,0,1,.821,2.255L30,29.384a1.7,1.7,0,0,1-2.254.821h0a1.7,1.7,0,0,1-.821-2.255l8.55-18.334A1.7,1.7,0,0,1,37.726,8.8Z" style="fill:#30373e"/></g></svg>
