<svg xmlns="http://www.w3.org/2000/svg" width="39" height="39" viewBox="0 0 39 39"><g id="bbb395d2-5029-4875-a6be-c1e922b53cda" data-name="Layer 1"><path d="M22.854,8.8h0a1.7,1.7,0,0,1,.821,2.255l-10.3,22.09a1.7,1.7,0,0,1-2.255.821h0a1.7,1.7,0,0,1-.82-2.255L20.6,9.616A1.7,1.7,0,0,1,22.854,8.8Z" style="fill:#30373e"/><path d="M31.741,8.8h0a1.7,1.7,0,0,1,.82,2.255L27.454,22a1.7,1.7,0,0,1-2.254.82h0a1.7,1.7,0,0,1-.821-2.254L29.486,9.616A1.7,1.7,0,0,1,31.741,8.8Z" style="fill:#30373e"/><path d="M13.8,8.8h0a1.7,1.7,0,0,1,.821,2.255L9.514,22a1.7,1.7,0,0,1-2.255.82h0a1.7,1.7,0,0,1-.82-2.254L11.546,9.616A1.7,1.7,0,0,1,13.8,8.8Z" style="fill:#30373e"/></g></svg>
