<svg xmlns="http://www.w3.org/2000/svg" width="12" height="12" viewBox="0 0 12 12"><g id="bad12ba3-11a1-4302-923c-affe08e42a30" data-name="below"><circle cx="6" cy="6" r="6" style="fill:#aebbc7"/></g><g id="a7538e74-ebe6-45b8-ae32-6508129462ef" data-name="illustration"><path d="M9.655,4.723a.161.161,0,0,0,.121-.159v-.13A.166.166,0,0,0,9.71,4.3a1.319,1.319,0,0,0-.46-.219l-.08-.021a.205.205,0,0,0-.251.148l-.092.361-.562-1.59A.479.479,0,0,0,7.851,2.7c-.36-.017-1.258-.06-1.851-.06s-1.491.043-1.849.062a.47.47,0,0,0-.415.285l-.563,1.59-.092-.362a.2.2,0,0,0-.251-.147l-.08.02a1.365,1.365,0,0,0-.46.219.164.164,0,0,0-.066.131v.13a.163.163,0,0,0,.121.159,1.548,1.548,0,0,0,.378.041h.026l-.04.016a.76.76,0,0,0-.485.705V7.068l0,.027h0V8.884a.481.481,0,0,0,.481.48h.574a.481.481,0,0,0,.481-.48V8.128H8.247v.756a.481.481,0,0,0,.481.48H9.3a.481.481,0,0,0,.481-.48V7.1h0l0-.03V5.485a.757.757,0,0,0-.485-.7l-.04-.016h.026A1.64,1.64,0,0,0,9.655,4.723ZM4.115,3.145a.07.07,0,0,1,.056-.036c.356-.019,1.246-.06,1.829-.06s1.473.041,1.829.058a.067.067,0,0,1,.056.038L8.37,4.517A22.786,22.786,0,0,0,6,4.422a22.878,22.878,0,0,0-2.373.1Zm-.38,3.472a.275.275,0,0,0,.274-.275V6.069H7.991v.273a.275.275,0,1,0,.549,0V6.069h.824v1a.843.843,0,0,1-.187.517.488.488,0,0,1-.362.132H3.185c-.523,0-.547-.588-.549-.652v-1H3.46v.273A.276.276,0,0,0,3.735,6.617ZM3.348,8.884a.069.069,0,0,1-.069.069H2.705a.069.069,0,0,1-.069-.069V7.961c.173.154.278.154.712.167ZM9.3,8.953H8.728a.069.069,0,0,1-.069-.069V8.128c.366-.013.518,0,.705-.165v.921A.069.069,0,0,1,9.3,8.953Zm.069-3.468v.173H8.54a.275.275,0,1,0-.549,0H4.009a.275.275,0,1,0-.549,0H2.636V5.485a.342.342,0,0,1,.22-.319l.522-.2A17.223,17.223,0,0,1,6,4.833a15.426,15.426,0,0,1,2.62.132,1.435,1.435,0,0,1,.522.2C9.171,5.19,9.364,5.345,9.364,5.485Z" style="fill:#141b21"/></g></svg>
