<svg xmlns="http://www.w3.org/2000/svg" width="12" height="12" viewBox="0 0 12 12"><g id="f85c28ec-6464-4781-998a-22b8e8287c78" data-name="below"><circle cx="6" cy="6" r="6" style="fill:#aebbc7"/><circle cx="6" cy="6" r="6" style="fill:#aebbc7"/></g><g id="a8d57475-f62c-46b0-97d0-459b14f79f92" data-name="illustration"><path d="M10.0293,7.5585a.221.221,0,0,0,.0459-.2971l-.7287-1.07a.2232.2232,0,0,0-.1793-.0962.218.218,0,0,0-.0972.0212c-.066-.18-.1355-.359-.2123-.5349l.2538.047-.1881-.3939c-.155-.3242-.3255-.6439-.509-.9548l.2827.0144-.2513-.37c-.04-.059-.0795-.12-.1192-.1818a3.4268,3.4268,0,0,0-.401-.539.2216.2216,0,0,0,.0062-.0725l-.029-.3465a.2224.2224,0,0,0-.2652-.1994L7.6,2.5923A1.7462,1.7462,0,0,0,6,1.6158a1.7462,1.7462,0,0,0-1.6.9765l-.0377-.0066a.2226.2226,0,0,0-.2652.1994l-.0289.3465a.2222.2222,0,0,0,.0061.0726,3.4436,3.4436,0,0,0-.4006.5385c-.04.0617-.0791.1231-.1194.1822l-.2515.37L3.5855,4.28c-.1834.3106-.3539.63-.5089.9549l-.1881.394.26-.0483c-.0758.177-.1461.3565-.2132.537a.2048.2048,0,0,0-.1013-.023.2225.2225,0,0,0-.1809.097l-.7285,1.07a.222.222,0,0,0,.0522.3038c-.0187.0276-.04.0576-.06.0887l.0094-.0116a3.5462,3.5462,0,0,0-.5278.9962v.2223h9.2027V8.6385A2.4175,2.4175,0,0,0,10.0293,7.5585Zm-.4435-.2259c-.1481.1067-.34.2443-.3637.2607a.48.48,0,0,0-.1685.1951.4922.4922,0,0,0-.0414.27c.006.0347.0131.11.0215.1972.0051.0526.0106.107.0163.1606H7.0084l0-.3849A.6071.6071,0,0,1,7.4744,7.44,3.8908,3.8908,0,0,0,9.131,6.665ZM6,2.06a1.2744,1.2744,0,0,1,1.13.6092,8.2716,8.2716,0,0,1-2.2611,0A1.2748,1.2748,0,0,1,6,2.06ZM3.7264,5.38l.1854-.3926-.2358.0437c.1567-.2986.3264-.5914.507-.8741l.2322-.3633-.2517.0126a1.73,1.73,0,0,1,.3235-.38A8.0935,8.0935,0,0,0,6,3.5438a8.0935,8.0935,0,0,0,1.5129-.1181,1.73,1.73,0,0,1,.3237.38l-.2516-.0126.232.3633c.1807.283.35.5756.507.8741L8.079,4.9853l.1961.3978a9.0146,9.0146,0,0,1,.4339,1.049,3.7319,3.7319,0,0,1-1.3384.5752,1.0521,1.0521,0,0,0-.8071,1.0248l0,.3842H5.4356l0-.3839a1.0519,1.0519,0,0,0-.8066-1.0249,3.7443,3.7443,0,0,1-1.3331-.5713A11.35,11.35,0,0,1,3.7264,5.38ZM2.8687,6.665A3.8926,3.8926,0,0,0,4.5256,7.44a.6069.6069,0,0,1,.4658.5918l0,.3847H2.95c.0057-.0536.0111-.1079.0163-.16.0084-.087.0154-.1626.0236-.2127a.4834.4834,0,0,0-.0432-.2541.4761.4761,0,0,0-.1634-.1921c-.0242-.0171-.2192-.157-.3691-.2645Zm-.5313,1.16c.0945.0678.1747.1252.19.1358l.0224.022c-.0071.0407-.016.1289-.0259.23-.0061.0623-.0132.1358-.0209.2036H1.97A6.4649,6.4649,0,0,1,2.3374,7.8246Zm7.16.5917c-.0076-.0678-.0148-.1413-.0209-.2036-.01-.1016-.0188-.19-.0258-.23L9.2312,8.02l.237-.0569c.0116-.0078.0985-.07.2-.1426a3.2985,3.2985,0,0,1,.3954.5954Z" style="fill:#141b21"/><path d="M5.5416,5.192a.2233.2233,0,0,0,.1534.0738L6,5.2813a.2234.2234,0,1,0,.0227-.4463L5.7177,4.82a.2234.2234,0,0,0-.1761.3725Z" style="fill:#141b21"/><path d="M6.7826,4.3873a.3538.3538,0,0,0,.4236-.4842h0a.3768.3768,0,0,1-.67-.0823S6.2352,4.3325,6.7826,4.3873Z" style="fill:#141b21"/><path d="M4.85,4.2812a.3538.3538,0,0,0,.3672.1061c.5474-.0548.2468-.5665.2468-.5665a.3768.3768,0,0,1-.67.0823h0a.3536.3536,0,0,0,.0564.3781Z" style="fill:#141b21"/></g></svg>
