<?xml version="1.0" encoding="UTF-8"?><svg id="uuid-3d6d35dc-8852-49b0-9d47-37efa25d73ed" xmlns="http://www.w3.org/2000/svg" width="12" height="12" viewBox="0 0 12 12"><circle cx="6" cy="6" r="6" style="fill:#aebbc7; stroke-width:0px;"/><path d="m9.194,9.5382h1.0419c-.1716-.1778-.9951-1.0311-1.2895-1.3438-.0131-.0139-.0298-.0178-.0434-.0306.1441-.0889.3243-.2305.4698-.4922l1.1359,1.1479v-1.0661l-.703-.7104c-.1183-.1092-.1679-.2625-.1846-.3278.0775-1.0012.0271-2.336.0098-2.7278-.0176-.3906-.1963-.7529-.502-1.0205-.3193-.2783-.7305-.4209-1.1309-.3799-.5596.0498-2.1123.2646-2.3975.3242l-.002.001c-.7969.1748-1.0859.4033-1.3223.5908-.2471.1943-.5605.4678-.8701.7529-.3107.2833-.4593.6622-.5299,1.015-.3315.1392-.5646.4663-.5646.8484,0,.3991.2573.7307.6125.8582.1959.6078.6846,1.0598,1.3942,1.2541.7793.2119,2.6494.4287,3.0166.4707.0518.0059.1055.0088.1582.0088.1299,0,.2617-.0186.3926-.0537.0062-.0016.0156-.0062.022-.0081l.0004.0013c.0039-.002.3369-.1045.4912.0576.1662.1765.5015.5258.7945.8301Zm-1.5045-1.6046c-.0947.0244-.1807.0322-.2705.0225-.2188-.0244-2.1621-.2471-2.9033-.4482-.6055-.166-.9395-.5742-.9395-1.1514l-.001-.6963c.0176-.2188.084-.6201.3379-.8516.2949-.2715.5928-.5312.8545-.7383.1709-.1348.3643-.2881.9902-.4258.2666-.0557,1.7803-.2637,2.3076-.3115.1973-.0127.4072.0576.5703.1992.1494.1309.2373.3047.2451.4883.0176.3887.0684,1.7295-.0117,2.6924-.0527.6465-.2715.7666-.4717.877-.2969.165-.6074.3164-.708.3438Z" style="fill:#141b21; stroke-width:0px;"/><rect x=".5967" y="5.7432" width="1.2217" height=".75" style="fill:#141b21; stroke-width:0px;"/><rect x="1.1976" y="7.4686" width="1.3051" height=".7513" transform="translate(-5.0048 3.6058) rotate(-45)" style="fill:#141b21; stroke-width:0px;"/><polygon points="2.5772 4.5899 1.6544 3.6661 1.1231 4.1954 2.046 5.1192 2.5772 4.5899" style="fill:#141b21; stroke-width:0px;"/></svg>