<?xml version="1.0" encoding="UTF-8"?><svg id="uuid-402250ad-f0c2-4e89-8d3b-334f60758f8e" xmlns="http://www.w3.org/2000/svg" width="39" height="39" viewBox="0 0 39 39"><path d="M23.266,30.327c0,2.42-1.969,4.389-4.389,4.389s-4.389-1.969-4.389-4.389v-12.698l-1.881-1.881v14.579c0,3.455,2.815,6.27,6.27,6.27s6.27-2.815,6.27-6.27v-2.038l-1.881-1.881v3.919Z" style="fill:#aebbc7;"/><path d="M25.144,22.991v-14.61c0-3.455-2.815-6.27-6.27-6.27s-6.27,2.815-6.27,6.27v2.069l-5.217-5.217-1.329,1.329,24.31,24.31,1.329-1.329-6.553-6.553ZM14.484,8.381c0-2.42,1.969-4.389,4.389-4.389s4.389,1.969,4.389,4.389v12.729l-8.779-8.779v-3.95Z" style="fill:#aebbc7;"/></svg>