<?xml version="1.0" encoding="UTF-8"?><svg id="uuid-b9181b81-4024-40e7-80ba-2debb8fdb88c" xmlns="http://www.w3.org/2000/svg" width="49.618" height="14.868" viewBox="0 0 49.618 14.868"><path d="M5.123,1.929h2.507l4.702,12.412h-2.23l-1.072-2.835H3.67l-1.055,2.835H.42L5.123,1.929ZM8.303,9.569l-1.971-5.186-1.936,5.186h3.907Z" style="fill:#aebbc7;"/><path d="M12.71,5.265h2.075v1.037c.208-.299.49-.542.847-.726.357-.184.737-.294,1.141-.329.288-.034.634-.028,1.038.018v2.022c-.277-.023-.542-.035-.795-.035-.657,0-1.193.188-1.608.562-.415.375-.622.879-.622,1.513v5.013h-2.075V5.265Z" style="fill:#aebbc7;"/><path d="M18.34,5.265h2.075v1.037c.208-.299.49-.542.847-.726.357-.184.737-.294,1.141-.329.288-.034.634-.028,1.038.018v2.022c-.277-.023-.542-.035-.795-.035-.657,0-1.193.188-1.608.562-.415.375-.622.879-.622,1.513v5.013h-2.075V5.265Z" style="fill:#aebbc7;"/><path d="M23.936,1.929h2.144v2.126h-2.144V1.929ZM23.97,5.265h2.075v9.076h-2.075V5.265Z" style="fill:#aebbc7;"/><path d="M28.878,13.917c-.663-.409-1.173-.968-1.53-1.677-.357-.708-.536-1.506-.536-2.394,0-.875.179-1.677.536-2.403.357-.726.867-1.299,1.53-1.72.663-.42,1.432-.631,2.308-.631.853,0,1.579.199,2.178.596.599.398,1.052.928,1.357,1.59.306.663.458,1.398.458,2.204v.795h-6.327v.069c.058.737.296,1.325.717,1.763.42.438.965.657,1.634.657.507,0,.948-.126,1.322-.38.375-.253.637-.605.787-1.054l1.763.708c-.323.784-.827,1.395-1.513,1.833s-1.478.657-2.377.657c-.876,0-1.645-.204-2.308-.613ZM28.489,1.929h2.559l1.037,2.438h-1.642l-1.954-2.438ZM33.105,8.705v-.086c-.058-.53-.259-.959-.605-1.288-.346-.329-.795-.493-1.348-.493-.369,0-.703.072-1.003.216-.3.145-.553.352-.761.623s-.357.585-.449.942l-.018.086h4.184Z" style="fill:#aebbc7;"/><path d="M35.92,5.265h2.075v1.037c.208-.299.49-.542.847-.726.357-.184.737-.294,1.141-.329.288-.034.634-.028,1.038.018v2.022c-.277-.023-.542-.035-.795-.035-.657,0-1.193.188-1.608.562-.415.375-.622.879-.622,1.513v5.013h-2.075V5.265Z" style="fill:#aebbc7;"/><path d="M42.915,13.917c-.663-.409-1.173-.968-1.53-1.677-.357-.708-.536-1.506-.536-2.394,0-.875.179-1.677.536-2.403.357-.726.867-1.299,1.53-1.72.663-.42,1.432-.631,2.308-.631.853,0,1.579.199,2.178.596.599.398,1.052.928,1.357,1.59.306.663.458,1.398.458,2.204v.795h-6.327v.069c.058.737.296,1.325.717,1.763.42.438.965.657,1.634.657.507,0,.948-.126,1.322-.38.375-.253.637-.605.787-1.054l1.763.708c-.323.784-.827,1.395-1.513,1.833s-1.478.657-2.377.657c-.876,0-1.645-.204-2.308-.613ZM47.141,8.705v-.086c-.058-.53-.259-.959-.605-1.288-.346-.329-.795-.493-1.348-.493-.369,0-.703.072-1.003.216-.3.145-.553.352-.761.623s-.357.585-.449.942l-.018.086h4.184Z" style="fill:#aebbc7;"/></svg>