<?xml version="1.0" encoding="UTF-8"?><svg id="uuid-6ed3321c-9817-4c27-9af3-67377b32a4ef" xmlns="http://www.w3.org/2000/svg" width="39" height="39" viewBox="0 0 39 39"><path d="M12.321,14.526c-.785-1.29-2.467-1.7-3.757-.916-1.29.785-1.7,2.467-.916,3.757l4.515,7.426c.496.816,1.382,1.314,2.337,1.314h4.876l4.974,7.845c.809,1.276,2.498,1.654,3.774.845,1.276-.809,1.654-2.498.845-3.774l-5.779-9.115c-.501-.791-1.373-1.27-2.309-1.27h-4.843l-3.716-6.112Z" style="fill:#aebbc7; fill-rule:evenodd;"/><path d="M12.075,8.521c0-2.014-1.632-3.646-3.646-3.646s-3.646,1.632-3.646,3.646,1.632,3.646,3.646,3.646,3.646-1.632,3.646-3.646Z" style="fill:#aebbc7; fill-rule:evenodd;"/></svg>