<?xml version="1.0" encoding="UTF-8"?><svg id="uuid-26879102-7d75-415d-91b9-9d2ee272be0a" xmlns="http://www.w3.org/2000/svg" width="42.684" height="14.715" viewBox="0 0 42.684 14.715"><path d="M-.112,1.786h3.043l3.198,9.508L9.327,1.786h2.974v12.412h-2.058V4.604l-3.25,9.594h-1.798L1.945,4.604v9.594H-.112V1.786Z" style="fill:#aebbc7;"/><path d="M14.058,1.786h2.144v2.126h-2.144V1.786ZM14.092,5.123h2.075v9.076h-2.075V5.123Z" style="fill:#aebbc7;"/><path d="M17.897,1.786h2.075v12.412h-2.075V1.786Z" style="fill:#aebbc7;"/><path d="M21.668,1.786h2.144v2.126h-2.144V1.786ZM21.702,5.123h2.075v9.076h-2.075V5.123Z" style="fill:#aebbc7;"/><path d="M27.094,13.775c-.663-.409-1.173-.968-1.53-1.677-.357-.708-.536-1.506-.536-2.394,0-.875.179-1.677.536-2.403.357-.726.867-1.299,1.53-1.72.663-.42,1.432-.631,2.308-.631.853,0,1.579.199,2.178.596.599.398,1.052.928,1.357,1.59.306.663.458,1.398.458,2.204v.795h-6.327v.069c.058.737.296,1.325.717,1.763.42.438.965.657,1.634.657.507,0,.948-.126,1.322-.38.375-.253.637-.605.787-1.054l1.763.708c-.323.784-.827,1.395-1.513,1.833s-1.478.657-2.377.657c-.876,0-1.645-.204-2.308-.613ZM31.32,8.563v-.086c-.058-.53-.259-.959-.605-1.288-.346-.329-.795-.493-1.348-.493-.369,0-.703.072-1.003.216-.3.145-.553.352-.761.623s-.357.585-.449.942l-.018.086h4.184Z" style="fill:#aebbc7;"/><path d="M42.14,14.198h-2.075v-.847c-.3.323-.654.574-1.063.752-.409.179-.85.268-1.323.268-.657,0-1.222-.141-1.694-.423-.473-.282-.833-.68-1.081-1.193-.248-.513-.372-1.109-.372-1.79v-5.843h2.057v5.428c0,.587.135,1.054.406,1.4.271.346.666.519,1.184.519.369,0,.694-.086.977-.259.282-.173.504-.403.666-.692.162-.288.242-.599.242-.933v-5.463h2.075v9.076Z" style="fill:#aebbc7;"/></svg>