<?xml version="1.0" encoding="UTF-8"?><svg xmlns="http://www.w3.org/2000/svg" width="12" height="12" viewBox="0 0 12 12"><g id="uuid-44b16c40-e9f1-4207-a49b-eaff0c0c710a"><circle cx="6" cy="6" r="6" style="fill:#aebbc7;"/></g><g id="uuid-09fc0ea8-6bfa-4b44-8602-71360b3399d5"><path d="M6.278,3.484h1.957c.511,0,.902.108,1.174.324.271.216.406.529.406.939,0,.237-.058.445-.172.621-.114.177-.277.309-.489.396.251.084.448.227.592.427.144.201.215.438.215.711,0,.414-.142.739-.427.976-.284.235-.678.354-1.18.354h-2.076V3.484ZM8.705,5.273c.128-.095.191-.235.191-.42,0-.181-.063-.319-.191-.417-.128-.097-.315-.146-.562-.146h-.933v1.124h.933c.247,0,.435-.047.562-.142ZM8.827,7.257c.13-.107.195-.257.195-.446,0-.185-.066-.333-.198-.442-.133-.11-.312-.166-.536-.166h-1.078v1.217h1.078c.229,0,.409-.054.539-.162Z" style="fill:#141b21;"/></g><g id="uuid-12c8c915-04fe-478f-8dc5-ac87baf535f5"><path d="M1.715,4.59h.452c.799,0,1.557-.349,2.077-.955l.414-.483c.52-.606,1.279-.955,2.077-.955h.452" style="fill:none; stroke:#141b21; stroke-width:.514px;"/><path d="M1.715,7.326h.452c.799,0,1.557.349,2.077.955l.414.483c.52.606,1.279.955,2.077.955h.452" style="fill:none; stroke:#141b21; stroke-width:.514px;"/><path d="M7.978,2.196l-1.069-.855v1.71l1.069-.855Z" style="fill:#141b21;"/><path d="M7.978,9.72l-1.069-.855v1.71l1.069-.855Z" style="fill:#141b21;"/><path d="M5.242,5.958l-1.069-.855v1.71l1.069-.855Z" style="fill:#141b21;"/><path d="M1.715,5.958h2.65" style="fill:none; stroke:#141b21; stroke-width:.514px;"/></g></svg>