<?xml version="1.0" encoding="UTF-8"?><svg xmlns="http://www.w3.org/2000/svg" width="39" height="39" viewBox="0 0 39 39"><g id="uuid-97adc75d-ffcc-43da-9223-1bca03929125"><path d="M22.81,13.351h4.727c1.234,0,2.179.261,2.834.782.654.521.981,1.277.981,2.267,0,.575-.139,1.075-.415,1.501s-.671.745-1.182.958c.607.202,1.083.545,1.43,1.03.346.484.519,1.057.519,1.716,0,1.001-.344,1.786-1.03,2.355s-1.637.854-2.85.854h-5.014v-11.464ZM28.669,17.67c.309-.229.464-.567.464-1.014,0-.436-.155-.771-.464-1.006-.309-.234-.761-.351-1.356-.351h-2.252v2.714h2.252c.596,0,1.048-.114,1.356-.343ZM28.965,22.46c.313-.261.471-.62.471-1.078,0-.447-.159-.804-.479-1.07s-.751-.399-1.294-.399h-2.603v2.938h2.603c.554,0,.987-.13,1.302-.391Z" style="fill:#aebbc7;"/></g><g id="uuid-057d71ec-733d-48f3-bc13-47302063a425"><path d="M3.725,14.22h1.74c3.077,0,5.999-1.344,8.002-3.68l1.595-1.861c2.002-2.336,4.925-3.68,8.002-3.68h1.74" style="fill:none; stroke:#aebbc7; stroke-width:1.98px;"/><path d="M3.725,24.759h1.74c3.077,0,5.999,1.344,8.002,3.68l1.595,1.861c2.002,2.336,4.925,3.68,8.002,3.68h1.74" style="fill:none; stroke:#aebbc7; stroke-width:1.98px;"/><path d="M27.849,4.998l-4.117-3.293v6.587l4.117-3.293Z" style="fill:#aebbc7;"/><path d="M27.849,33.981l-4.117-3.293v6.587l4.117-3.293Z" style="fill:#aebbc7;"/><path d="M17.31,19.49l-4.117-3.293v6.587l4.117-3.293Z" style="fill:#aebbc7;"/><path d="M3.725,19.49h10.21" style="fill:none; stroke:#aebbc7; stroke-width:1.98px;"/></g></svg>