<svg xmlns="http://www.w3.org/2000/svg" width="39" height="39" viewBox="0 0 39 39"><g id="bca269e7-2fc7-4836-b794-93e753d8c09d" data-name="illustration"><path d="M13.358,33.614a1.015,1.015,0,0,1-.406-.084c-.4-.173-9.861-4.354-9.861-14.382s9.458-14.209,9.86-14.382a1.032,1.032,0,0,1,1.2.291,23.33,23.33,0,0,1,4.433,14.091A23.335,23.335,0,0,1,14.152,33.24,1.027,1.027,0,0,1,13.358,33.614ZM13.032,7.019c-2.093,1.122-7.884,4.886-7.884,12.129,0,7.167,5.805,10.985,7.886,12.124a22.33,22.33,0,0,0,3.495-12.124A22.194,22.194,0,0,0,13.032,7.019Z" style="fill:#aebbc7"/><path d="M29,11.292c-.009.185-.017.386-.017.6a7.908,7.908,0,0,0,.756,3.594,10.157,10.157,0,0,1,.806,2.638h4.963v2.057H30.654a9.8,9.8,0,0,1-.915,4.082,7.913,7.913,0,0,0-.731,2.754h6.5v2.058H29.05a7.844,7.844,0,0,0,.689,2.368,9.819,9.819,0,0,1,.924,4.392H28.605a7.915,7.915,0,0,0-.756-3.594,9.689,9.689,0,0,1-.865-3.166H22.071V27.013h4.88a9.738,9.738,0,0,1,.9-3.552,7.767,7.767,0,0,0,.748-3.284H22.071V18.12h6.383a8.452,8.452,0,0,0-.605-1.84,9.826,9.826,0,0,1-.924-4.392c0-.21.009-.4.017-.6H22.071V9.234h5.157a12.045,12.045,0,0,1,.621-1.73,7.912,7.912,0,0,0,.756-3.594h2.058A9.819,9.819,0,0,1,29.739,8.3c-.135.311-.252.613-.361.932h6.13v2.058Z" style="fill:#aebbc7"/></g></svg>
