<svg xmlns="http://www.w3.org/2000/svg" width="39" height="39" viewBox="0 0 39 39"><g id="b81852ff-969c-4d50-9d01-8c2f1e334642" data-name="illustration"><path d="M34.3,12.62c-4.934-4.952-15.023-5.009-15.442-5a.948.948,0,0,0-.736.351,17.974,17.974,0,0,0-3.391,10.83,17.969,17.969,0,0,0,3.391,10.829.925.925,0,0,0,.7.345c.057,0,.273.007.622.007,2.337,0,10.54-.313,14.839-4.485a8.6,8.6,0,0,0,2.666-6.409A8.869,8.869,0,0,0,34.3,12.62ZM32.962,24.127c-3.809,3.706-11.657,3.948-13.619,3.948a16.781,16.781,0,0,1-2.711-9.27,16.772,16.772,0,0,1,2.7-9.252,32.3,32.3,0,0,1,7.854,1.265c5.212,1.6,7.86,4.39,7.86,8.287A6.651,6.651,0,0,1,32.962,24.127Z" style="fill:#aebbc7"/><path d="M13.458,7.605H2.029V9.521H13.458Z" style="fill:#aebbc7"/><path d="M12.188,14.435H2.029v1.916H12.188Z" style="fill:#aebbc7"/><path d="M12.188,21.258H2.029v1.917H12.188Z" style="fill:#aebbc7"/><path d="M13.458,28.088H2.029v1.917H13.458Z" style="fill:#aebbc7"/><path d="M29.934,23.635,26.079,13.8H24.4l-3.869,9.839h1.7l.936-2.4h4.12l.936,2.4ZM25.045,16.3l.182-.549.182.549,1.383,3.514H23.677Z" style="fill:#aebbc7"/></g></svg>
