<?xml version="1.0" encoding="UTF-8"?><svg id="uuid-8042d1ff-8a06-49b1-82c1-6df18ae09065" xmlns="http://www.w3.org/2000/svg" width="12" height="12" viewBox="0 0 12 12"><circle cx="6" cy="6" r="6" style="fill:#aebbc7; stroke-width:0px;"/><path d="m4.2817,3.1369c-.7509.0332-1.3185.0877-1.5121.1451-.353.1049-.6313.385-.7384.7432-.1806.6045-.2235,2.5254-.0794,3.5552.0589.4208.1428.6443.3132.8338.381.4237.7833.4743,3.761.4732,2.4646-.001,3.0412-.0432,3.4333-.2516.3137-.1668.4824-.4363.56-.8948.154-.9098.1535-2.6065-.0011-3.4663-.0648-.3605-.1738-.581-.3777-.7643-.2771-.2492-.6242-.3162-1.9352-.3736-.7373-.0323-2.6913-.0322-3.4236.0002Zm2.0302,2.3036l.9869.5697-.9869.5689c-.5427.3128-1.0199.5903-1.0602.6165l-.0734.0477v-2.4492l.0734.0384c.0403.0211.5175.2947,1.0602.608Z" style="fill:#141b21; stroke-width:0px;"/></svg>