<?xml version="1.0" encoding="UTF-8"?><svg id="uuid-47c13df3-2f16-43ad-bd3b-2f5df2c689ae" xmlns="http://www.w3.org/2000/svg" width="39" height="39" viewBox="0 0 39 39"><path d="m26.305,9.0803c-.183-.4392-.7347-.9516-1.3379-1.3031.0631-1.3893.0218-2.7184-.1519-3.7476-.2009-1.0629-.8706-2.595-2.5055-2.8213-1.5291-.2116-2.7462-.2194-3.1286-.2194-.3819,0-1.5995.0078-3.1286.2194-1.6349.2262-2.3046,1.7585-2.5055,2.8213-.1737,1.0292-.215,2.3583-.1519,3.7476-.6032.3514-1.155.8639-1.3379,1.3031-.3741.8985.1451,2.0492,1.3898,1.7575v6.7781c0,.2331.0073.6003.015,1.0252h0c.0165.8561.0374,1.9466.0146,2.648l-.0024.0234c-.0864.8919-.2281,2.3616.082,3.6385l.3615,1.4965c.1825.6544.6566,1.1161,1.2884,1.2267,1.3127.227,2.6433.3435,3.9681.3435h.0136c1.3248,0,2.6554-.1165,3.9681-.3435.6318-.1105,1.1059-.5724,1.2884-1.2267l.3615-1.4965c.3106-1.2769.1684-2.7466.082-3.6385l-.0024-.0234c-.0228-.701-.0019-1.7906.0146-2.6464v-.0002h0c.0078-.4255.015-.7932.015-1.0266v-6.7781c1.2447.2917,1.764-.859,1.3898-1.7575Zm-11.04-1.4017c2.0357-1.2556,5.5914-1.4345,7.8343-.0083.1402.0891.1504.29.0296.4042-.5246.4972-1.0793,1.0998-1.4864,1.5889-.1155.1381-.296.1984-.4717.1604-1.3277-.2878-2.6622-.2878-3.9895-.0003-.1766.0382-.3581-.0233-.4736-.1626-.4008-.4845-.9545-1.0837-1.4748-1.579-.1208-.1149-.1092-.3158.032-.4033Zm-.2645,9.9371v-7.6829l.9055,1.024c.1839.2087.2858.4773.2858.7558v6.2275c-.4193-.0886-.8609-.2044-1.1914-.3243Zm7.8188,7.1503c-.0039.1098-.0291.2139-.0772.3148-.1432.3176-.4596.5226-.807.5226h-5.5108c-.4911,0-.89-.3989-.89-.8898v-5.369c2.3609.5435,4.7911.5438,7.2908,0l.0024,5.3646-.0082.0568Zm.5425-7.1503c-.3305.12-.7721.2356-1.1914.3242v-6.2275c0-.2785.1014-.5471.2858-.7557l.9055-1.024v7.683Zm-13.2616,3.5476h-.065l.065.0919h-3.0922v4.1416c0,1.5853.939,3.0201,2.3914,3.6552l8.7908,3.8438c.5095.2229.9531.549,1.3098.9475.3572-.3986.8002-.7247,1.3098-.9475l8.7913-3.8438c1.4524-.6351,2.391-2.0699,2.391-3.6552v-4.1416h-3.0922l.0655-.0919h-.0655l4.0666-5.7197,4.0589,5.7197h-.0655l.0655.0919h-3.0922v4.2336c0,2.3565-1.3952,4.4896-3.5547,5.4337l-.0335-.0772.0335.0772-8.7908,3.8438c-.6784.2966-1.1171.9669-1.1171,1.7074v1.5373h-1.9411v-1.5373c0-.7405-.4382-1.4107-1.1171-1.7074l-8.7908-3.8438.0335-.0772-.0335.0772c-2.159-.9441-3.5547-3.0771-3.5547-5.4337v-4.2336H1.9747l.0655-.0919h-.0655l4.0666-5.7197,4.0589,5.7197Z" style="fill:#aebbc7; fill-rule:evenodd; stroke-width:0px;"/></svg>