<?xml version="1.0" encoding="UTF-8"?><svg id="uuid-6925d42c-222c-41f3-8380-01cddadbf3f2" xmlns="http://www.w3.org/2000/svg" width="12" height="12" viewBox="0 0 12 12"><circle cx="6" cy="6" r="6" style="fill:#aebbc7;"/><path d="M7.778,2.787l-.819.161.813.546.819-.161-.813-.546ZM6.455,3.753l-.813-.546-.819.161.813.546.819-.161ZM4.319,4.173l-.813-.546-.819.161.813.546.819-.161ZM9.679,2.755c-.099-.502-.585-.828-1.087-.73l-6.157,1.211c-.501.099-.828.585-.73,1.087h0l.12.613v4.13c0,.511.415.926.926.926h6.275c.511,0,.926-.414.926-.926v-4.455h-4.802l4.422-.87.29-.057-.057-.29-.126-.64ZM7.086,7.17c.1.074.099.224-.003.296l-1.854,1.314c-.121.086-.289-.002-.288-.15l.022-2.658c.001-.149.17-.234.29-.146l1.833,1.344Z" style="fill:#141b21; fill-rule:evenodd;"/></svg>