<?xml version="1.0" encoding="UTF-8"?><svg id="uuid-0a38a11d-eeb3-4fb6-a3ba-2a98021c5abf" xmlns="http://www.w3.org/2000/svg" width="12" height="12" viewBox="0 0 12 12"><circle cx="6" cy="6" r="6" style="fill:#aebbc7; stroke-width:0px;"/><path d="m2.9026,4.3825c-.1929.1578-.3759.3271-.5482.5071.4601-.6543,1.0709-1.1884,1.7807-1.557.7099-.3687,1.498-.5611,2.2979-.5611s1.5881.1925,2.2979.5611c.7099.3687,1.3206.9027,1.7807,1.557l-.7949.477v-.0164c-.3798-.5162-.8588-.9515-1.4089-1.2804-.5502-.3288-1.1604-.5446-1.7949-.6347-.6346-.0901-1.2807-.0527-1.9006.11-.6199.1627-1.2012.4474-1.7097.8375Zm3.5633,1.3705c.3-.0021.5962.0668.8645.2011.2682.1344.5008.3303.6787.5719l-.7401.4413c-.1601-.225-.3706-.4094-.6148-.5384-.2442-.129-.5152-.199-.7913-.2044-.3339.0017-.6596.1039-.9347.2933.1798-.2398.4133-.4341.6818-.5674.2685-.1333.5644-.2018.8641-.2001l-.0082.0027Zm-.2741-1.4884c.5521-.006,1.0974.122,1.5892.3732.4917.2511.9152.6178,1.2341,1.0686l-.7675.4605c-.2708-.3501-.6086-.6429-.9935-.8613-.385-.2184-.8096-.3581-1.2491-.4109s-.8851-.0177-1.3109.1033c-.4258.121-.8232.3255-1.1693.6015l-.1261.1069c.3156-.4471.7342-.8118,1.2203-1.0631.4861-.2514,1.0256-.3822,1.5729-.3814v.0027Zm-.1919,4.1116l5.208-3.1138v.8442l-5.208,3.122L.792,6.0984v-.836l5.208,3.1138Z" style="fill:#141b21; stroke-width:0px;"/></svg>