<svg xmlns="http://www.w3.org/2000/svg" width="39" height="12.358" viewBox="0 0 39 12.358"><g id="a4b26a00-3805-49ac-ae15-57b4da247ef5" data-name="Layer 1"><path d="M22.41,7.187a2.7,2.7,0,0,0-.446-.057q-1.374,0-1.375.9c0,.445.259.666.776.666A.923.923,0,0,0,22.41,7.651Zm.115,1.843a1.123,1.123,0,0,1-.55.426,2.1,2.1,0,0,1-.818.165,1.853,1.853,0,0,1-1.261-.4,1.429,1.429,0,0,1-.46-1.137,1.593,1.593,0,0,1,.646-1.348,3,3,0,0,1,1.834-.487,1.947,1.947,0,0,1,.48.072c0-.589-.367-.883-1.105-.883A2.5,2.5,0,0,0,20.2,5.65l-.25-.9a3.278,3.278,0,0,1,1.423-.285,2.306,2.306,0,0,1,1.663.516,2.741,2.741,0,0,1,.529,1.958V8a1.862,1.862,0,0,0,.143.928.469.469,0,0,1-.469.721.747.747,0,0,1-.446-.219.946.946,0,0,1-.267-.4" style="fill:#aebbc7"/><path d="M33.693,7.033q0,1.648,1.176,1.648a1.01,1.01,0,0,0,.856-.428,2.031,2.031,0,0,0,.316-1.22q0-1.623-1.172-1.624a1.017,1.017,0,0,0-.858.428,1.971,1.971,0,0,0-.318,1.2m-1.209,0a2.626,2.626,0,0,1,.655-1.849,2.52,2.52,0,0,1,3.486-.028,2.682,2.682,0,0,1,.625,1.877,2.693,2.693,0,0,1-.637,1.887,2.528,2.528,0,0,1-3.5-.007,2.727,2.727,0,0,1-.627-1.88" style="fill:#aebbc7"/><path d="M31.07,3.986a.669.669,0,0,0,.669-.669.669.669,0,1,0-.669.669" style="fill:#aebbc7"/><path d="M29.833,4.571a.477.477,0,0,0,.031.953h.609v4H31.64V4.569H29.833Z" style="fill:#aebbc7"/><path d="M27.793,8.338a.752.752,0,0,1-.318.2,1.115,1.115,0,0,1-.41.1q-1.493,0-1.492-1.548a1.779,1.779,0,0,1,.375-1.216,1.358,1.358,0,0,1,1.071-.424,1.227,1.227,0,0,1,.774.3ZM28.945,2.69a.576.576,0,0,0-1.151,0v.022h0V4.7a2.283,2.283,0,0,0-1.031-.231,2.238,2.238,0,0,0-1.714.739,2.708,2.708,0,0,0-.685,1.917,2.635,2.635,0,0,0,.6,1.836,2.093,2.093,0,0,0,1.635.659,2.121,2.121,0,0,0,.711-.122,1.22,1.22,0,0,0,.487-.278v.3h1.152V2.69" style="fill:#aebbc7"/><path d="M17.092,5.481a2.194,2.194,0,0,1-1.1.212c-.118,0-.287-.009-.509-.027V3.786a3.227,3.227,0,0,1,.407-.028,2.637,2.637,0,0,1,1.181.2.72.72,0,0,1,.375.7.889.889,0,0,1-.35.827m1.926,3.386h0l-1.581-2.4a1.919,1.919,0,0,0,.9-.7,1.825,1.825,0,0,0,.357-1.095q0-1.993-2.586-1.994c-.278,0-.645.011-1.1.034s-.715.035-.783.035V9.521h1.253V6.685q.491.029.764.033l1.773,2.743a.566.566,0,0,0,.106.142.583.583,0,0,0,.994-.412.551.551,0,0,0-.1-.324" style="fill:#aebbc7"/><path d="M6.335.1a.621.621,0,0,0-.066,1.24,4.786,4.786,0,0,1-.258,9.566H5.867v1.241h.144A6.028,6.028,0,0,0,6.335.1m3.12,6.025a3.406,3.406,0,0,1-3.4,3.4H4.877a.7.7,0,0,1-.1.009.619.619,0,0,1-.621-.62V6.636h-2.8V8.953a.62.62,0,1,1-1.24,0v-5.7a.62.62,0,1,1,1.24,0V5.4h2.8V3.244a.621.621,0,0,1,1.241,0V8.288h.658a2.162,2.162,0,0,0,.205-4.315H5.869V2.732H6.3a.463.463,0,0,1,.054,0,3.424,3.424,0,0,1,3.1,3.39" style="fill:#f8971d"/><path d="M38.024,5.181V4.908h.181c.092,0,.192.02.192.13,0,.135-.1.143-.214.143Zm0,.113h.153l.233.381h.148l-.25-.387a.23.23,0,0,0,.228-.243c0-.173-.1-.249-.311-.249H37.89v.879h.134Zm.161.7a.763.763,0,1,0-.775-.765A.762.762,0,0,0,38.185,6m-.621-.765a.62.62,0,1,1,.621.637.617.617,0,0,1-.621-.637" style="fill:#aebbc7"/></g></svg>