<svg xmlns="http://www.w3.org/2000/svg" width="12" height="12" viewBox="0 0 12 12"><g id="aebe649c-801f-4bb9-9633-cec090fdd4d5" data-name="below"><path d="M6,12c2.62,0,4.426-1.245,4.426-6S8.62,0,6,0,1.573,1.245,1.573,6,3.38,12,6,12" style="fill:#aebbc7"/></g><g id="aec67fde-39be-48c9-a431-49b17176f66e" data-name="illustration"><path d="M8.719,3.948,5.612.84v4.1L3.9,3.228l-.622.621L5.425,6,3.28,8.151l.622.621,1.71-1.709v4.1L8.719,8.052,6.666,6Zm-1.242.007-.992.992V2.963Zm0,4.09-.993.992V7.053Z" style="fill:#141b21"/><path d="M9.852,11.5h.087a.121.121,0,0,0,.08-.024.089.089,0,0,0,.031-.071c0-.063-.04-.1-.111-.1H9.852Zm.179.247-.11-.2H9.852v.2H9.788v-.49h.166a.175.175,0,0,1,.065.012.148.148,0,0,1,.05.03.14.14,0,0,1,.046.105.137.137,0,0,1-.028.086.153.153,0,0,1-.076.053l-.021.007.115.2Zm-.1-.646a.4.4,0,0,0-.155.031.409.409,0,0,0-.126.086.385.385,0,0,0-.084.128.428.428,0,0,0,0,.32.379.379,0,0,0,.084.129.406.406,0,0,0,.126.085.391.391,0,0,0,.31,0,.406.406,0,0,0,.126-.085.382.382,0,0,0,.085-.129.442.442,0,0,0,0-.32.387.387,0,0,0-.085-.128.409.409,0,0,0-.126-.086.4.4,0,0,0-.155-.031m0,.871a.449.449,0,0,1-.18-.037.49.49,0,0,1-.147-.1.472.472,0,0,1-.1-.148.464.464,0,0,1-.036-.181.452.452,0,0,1,.036-.18.472.472,0,0,1,.1-.148.456.456,0,0,1,.147-.1.449.449,0,0,1,.18-.036.465.465,0,0,1,.182.036.461.461,0,0,1,.148.1.472.472,0,0,1,.1.148.456.456,0,0,1,0,.36.465.465,0,0,1-.1.149.5.5,0,0,1-.148.1.466.466,0,0,1-.182.037" style="fill:#aebbc7"/></g></svg>