<svg xmlns="http://www.w3.org/2000/svg" width="12" height="12" viewBox="0 0 12 12"><g id="below"><circle cx="6" cy="6" r="6" style="fill:#aebbc7"/></g><g id="illustration"><path d="M9.5,6.6l-.767.127A.487.487,0,0,0,8.419,7a.48.48,0,0,0,.029.413l.453.634L8.048,8.9l-.632-.451a.463.463,0,0,0-.684.285L6.6,9.5H5.4l-.127-.767A.487.487,0,0,0,5,8.419a.478.478,0,0,0-.412.029L3.955,8.9,3.1,8.047l.45-.634A.48.48,0,0,0,3.581,7a.487.487,0,0,0-.314-.271L2.5,6.6V5.4l.767-.127A.487.487,0,0,0,3.581,5a.478.478,0,0,0-.029-.412L3.1,3.953,3.953,3.1l.632.451A.478.478,0,0,0,5,3.581a.484.484,0,0,0,.273-.314L5.4,2.5H6.6l.127.767A.493.493,0,0,0,7,3.581a.478.478,0,0,0,.412-.029L8.047,3.1l.852.853-.451.633a.463.463,0,0,0,.285.685L9.5,5.4ZM4.814,6A1.187,1.187,0,1,1,6,7.186,1.188,1.188,0,0,1,4.814,6Z" style="fill:#12171D;fill-rule:evenodd"/></g></svg>