<svg xmlns="http://www.w3.org/2000/svg" width="12" height="12" viewBox="0 0 12 12"><g id="ac5f24c3-829f-48a5-bf71-eb0cdbbf2840" data-name="illustration"><circle cx="6" cy="6" r="6" style="fill:#aebbc7"/><path d="M3.7983,8.0354a9.6442,9.6442,0,0,0,4.0078,2.1991.6358.6358,0,0,0,.6228-.1614L9.5845,8.9174,7.9174,7.25,6.8,8.3682A7.5571,7.5571,0,0,1,4.93,6.904a7.5562,7.5562,0,0,1-1.4642-1.87L4.5833,3.9162,2.9162,2.2491,1.7606,3.4048a.6354.6354,0,0,0-.1614.6227A9.6438,9.6438,0,0,0,3.7983,8.0354Z" style="fill:#141b21"/><polygon points="5.96 2.759 6.539 3.339 8.004 3.339 5.416 5.927 5.825 6.337 8.413 3.748 8.413 5.213 8.993 5.793 8.993 2.759 5.96 2.759" style="fill:#141b21"/></g></svg>
