<?xml version="1.0" encoding="UTF-8"?><svg id="uuid-4df1cdac-feba-4722-b5ef-b49e2c61012c" xmlns="http://www.w3.org/2000/svg" width="39" height="39" viewBox="0 0 39 39"><path d="m12.829,1.595h0c6.204,0,11.234,5.03,11.234,11.234h0c0,6.204-5.03,11.234-11.234,11.234h0c-6.204,0-11.234-5.03-11.234-11.234h0c0-6.204,5.03-11.234,11.234-11.234Z" style="fill:none; stroke:#aebbc7; stroke-miterlimit:10; stroke-width:2px;"/><path d="m26.613,15.379h0c6.204,0,11.234,5.03,11.234,11.234h0c0,6.204-5.03,11.234-11.234,11.234h0c-6.204,0-11.234-5.03-11.234-11.234h0c0-6.204,5.03-11.234,11.234-11.234Z" style="fill:#aebbc7; stroke:#141b21; stroke-miterlimit:10;"/><path d="m24.53,22.587c-.465-.837-.93-1.674-1.395-2.511-.2-.36-.624-.518-1.011-.376-1.967.72-3.005,2.828-2.281,4.812,1.483,4.062,4.494,7.073,8.556,8.556,1.984.724,4.092-.314,4.812-2.281.142-.387-.016-.811-.376-1.012-.837-.465-1.674-.93-2.511-1.395-.393-.218-.858-.167-1.194.132-.44.391-.879.781-1.318,1.172-2.031-.834-3.752-2.555-4.586-4.586.391-.439.781-.879,1.172-1.318.298-.336.35-.801.132-1.194Z" style="fill:#141b21; fill-rule:evenodd;"/><rect x="14.273" y="7.914" width="2.599" height="9.831" style="fill:#aebbc7;"/><rect x="8.787" y="7.914" width="2.599" height="9.831" style="fill:#aebbc7;"/></svg>