<svg xmlns="http://www.w3.org/2000/svg" width="12" height="12" viewBox="0 0 12 12"><g id="bef13dfd-5975-43f4-91f4-e7e85721c759" data-name="below"><circle cx="6" cy="6" r="6" style="fill:#aebbc7"/></g><g id="eeec7d70-1ba0-42f1-8f3f-5d220550e728" data-name="Layer 1"><path d="M5.7929,1.5526a.5125.5125,0,0,1,.5134.002L9.7474,3.568a.5648.5648,0,0,1,.281.4912V9.026a.5183.5183,0,0,1-.5191.5155H2.4907a.5183.5183,0,0,1-.5191-.5155V4.0627A.5745.5745,0,0,1,2.26,3.5661ZM9.5405,9.026a.0289.0289,0,0,1-.0293.0286H8.3423V5.2526a.3574.3574,0,0,0-.3587-.3563H4.02a.3574.3574,0,0,0-.3587.3563v3.802H2.4907a.0288.0288,0,0,1-.0293-.0286V4.0627a.0894.0894,0,0,1,.0421-.0737L6.0353,1.9742l.01-.0036.0048.0008.0021.0007L9.4978,3.9868a.0869.0869,0,0,1,.0427.0722ZM7.8525,6.2584H4.1512V5.3832H7.8525Zm-3.7013.4868H7.8525v.9492H4.1512Zm0,2.3094V8.18H7.8525v.8751Z" style="fill:#141b21;fill-rule:evenodd"/></g></svg>