<svg id="baa654b1-3f9c-45cf-a7bf-814190275329" data-name="ab164ed9-e226-4cf3-9ec1-beb10fec6b0c" xmlns="http://www.w3.org/2000/svg" width="55" height="56" viewBox="0 0 55 56"><path d="M27.5,5.313A22.5,22.5,0,1,0,50,27.813h0A22.529,22.529,0,0,0,27.5,5.313Zm0,42.545A20.045,20.045,0,1,1,47.546,27.813,20.044,20.044,0,0,1,27.5,47.858Z" style="fill:#aebbc7"/><path d="M39.413,27.87a10.781,10.781,0,0,0-20.52-3.134h-.8a5.723,5.723,0,0,0-5.727,5.719v.009H18.2l-.965,3.4h3.854l.965-3.4h.573v-.049H36.009l.982,3.436h3.854l-.966-3.395h.164a2.6,2.6,0,0,0,2.6-2.6h-3.23Z" style="fill:#aebbc7"/></svg>
