<svg xmlns="http://www.w3.org/2000/svg" width="12" height="12" viewBox="0 0 12 12"><g id="bae7ccbc-1a19-4e3d-87f5-7027e802284d" data-name="below"><circle cx="6" cy="6" r="6" style="fill:#aebbc7"/></g><g id="f85afd70-8a06-44af-a0b5-f47fd8262073" data-name="illustration"><path d="M7.547,7.6781l-.3747-.3973A1.6951,1.6951,0,0,0,7.7092,6.035a1.7148,1.7148,0,0,0-3.4295,0,1.6957,1.6957,0,0,0,.5368,1.2458l-.3747.3973a2.2609,2.2609,0,1,1,3.1052,0Z" style="fill:#141b21"/><path d="M9.0064,9.1978l-.3771-.3949a3.8242,3.8242,0,1,0-5.2723,0L2.98,9.1978A4.37,4.37,0,1,1,10.3632,6.035,4.3353,4.3353,0,0,1,9.0064,9.1978Z" style="fill:#141b21"/><path d="M5.9861,6.5264a.473.473,0,1,0-.4729-.473A.473.473,0,0,0,5.9861,6.5264Z" style="fill:#141b21"/></g></svg>