<?xml version="1.0" encoding="UTF-8"?><svg id="uuid-13049f57-c694-412e-ac04-6ebd1d87f262" xmlns="http://www.w3.org/2000/svg" width="80" height="116.274" viewBox="0 0 80 116.274"><path d="m59.781,54.786c0,1.718-1.211,2.648-3.38,2.648h-3.662v-5.296h3.662c2.197,0,3.38.93,3.38,2.648Z" style="fill:#aebbc7; stroke-width:0px;"/><path d="m55.612,34.139c-6.648,0-12.647,2.676-17.013,7.042-4.338,4.366-7.042,10.366-7.042,17.013s2.704,12.647,7.042,17.013c4.366,4.338,10.366,7.042,17.013,7.042s12.675-2.704,17.013-7.042c4.338-4.366,7.042-10.394,7.042-17.013,0-13.295-10.76-24.055-24.055-24.055Zm.958,25.942h-3.831v6.704h-3.098v-17.267h6.929c3.943,0,6.253,1.915,6.253,5.267,0,3.38-2.31,5.296-6.253,5.296Z" style="fill:#aebbc7; stroke-width:0px;"/><path d="m14.62,49.505v17.272h-2.694l-8.564-12.677v12.677H.403v-17.272h3.175l8.083,12.1v-12.1s2.959,0,2.959,0Z" style="fill:#aebbc7; stroke-width:0px;"/><path d="m.709,114.887v-17.272h5.773c5.509,0,8.684,3.536,8.684,8.636s-3.175,8.636-8.684,8.636c0,0-5.773,0-5.773,0Zm5.773-2.646c3.488,0,5.653-2.309,5.653-5.99,0-3.729-2.141-5.99-5.677-5.99h-2.742v11.979h2.766,0Z" style="fill:#aebbc7; stroke-width:0px;"/><path d="m1.331,18.666V1.394h6.904c3.969,0,6.254,1.924,6.254,5.292,0,2.454-1.203,4.162-3.392,4.883l3.729,7.096h-3.44l-3.464-6.687h-3.512v6.687H1.331Zm6.735-9.333c2.189,0,3.392-.938,3.392-2.646,0-1.732-1.179-2.646-3.392-2.646h-3.656v5.292h3.656Z" style="fill:#aebbc7; stroke-width:0px;"/></svg>