<svg width="55" height="55" viewBox="0 0 55 55" fill="none" xmlns="http://www.w3.org/2000/svg">
<path d="M19.81 42.6399C19.81 42.6399 24.81 36.5699 24.81 26.6399C24.81 16.7099 19.81 10.6399 19.81 10.6399C19.81 10.6399 8.81 15.3699 8.81 26.6399C8.81 37.9099 19.81 42.6399 19.81 42.6399Z" stroke="#aebbc7" stroke-width="3" stroke-miterlimit="10" stroke-linecap="round" stroke-linejoin="round"/>
<path d="M39.19 8.5C39.19 13.25 37.19 13.25 37.19 18C37.19 22.75 39.19 22.75 39.19 27.5C39.19 32.25 37.19 32.25 37.19 37C37.19 41.75 39.19 41.75 39.19 46.5" stroke="#aebbc7" stroke-width="3" stroke-miterlimit="10"/>
<path d="M30.19 16.0601H46.19" stroke="#aebbc7" stroke-width="3" stroke-miterlimit="10"/>
<path d="M30.19 26.6399H46.19" stroke="#aebbc7" stroke-width="3" stroke-miterlimit="10"/>
<path d="M30.19 37.23H46.19" stroke="#aebbc7" stroke-width="3" stroke-miterlimit="10"/>
</svg>
