<svg width="55" height="55" viewBox="0 0 55 55" fill="none" xmlns="http://www.w3.org/2000/svg">
<path fill-rule="evenodd" clip-rule="evenodd" d="M38.8867 35.2784C39.329 33.9985 39.5454 33.2269 39.6113 32.9822L39.7336 32.6623L36.9669 18.8947L34.8872 17.9725L39.6395 13.2202L37.6445 11.2252L32.1205 16.7491L29.5703 15.6199C31.4336 14.9423 32.7793 13.1637 32.7793 11.0652C32.7793 8.38319 30.596 6.19995 27.914 6.19995C25.232 6.19995 23.0488 8.38319 23.0488 11.0652C23.0488 13.1637 24.3945 14.9423 26.2578 15.6199L18.8517 18.8853L16.0945 32.6623L16.1227 32.7375L10.1 38.7603L11.935 40.8964C11.9727 40.8682 14.25 39.2308 17.8636 37.8286C17.9153 37.9592 17.9669 38.0909 18.0192 38.2241L18.0193 38.2243C18.1289 38.5037 18.2413 38.7902 18.3624 39.0896C19.6046 42.1198 21.1103 45.3288 22.8418 48.6319H26.0225C24.5545 45.884 23.237 43.202 22.0984 40.6424C24.7239 39.579 28.601 38.4685 33.7297 40.5671C32.5816 43.1644 31.2548 45.8652 29.7773 48.6319H32.9581C34.6896 45.3194 36.2047 42.0822 37.4563 39.0237C37.5502 38.7971 37.6344 38.5835 37.7166 38.3753C37.7742 38.2289 37.8309 38.0852 37.8892 37.9415C41.1358 39.3155 43.0649 40.8776 43.0932 40.9058L44.9 38.732L44.8957 38.7285C44.7119 38.5791 42.5347 36.8085 38.8867 35.2784ZM29.9749 18.8947L19.6704 29.1992L19.0117 32.4835L19.0205 32.5135L19.0205 32.5136C19.0866 32.7406 19.1876 33.0869 19.3316 33.528L32.7416 20.1181L29.9749 18.8947ZM19.5857 34.2902C25.1661 32.6716 30.7936 32.6716 36.2234 34.3467C35.9787 35.0619 35.6588 35.9465 35.2447 36.9911C30.4454 35.5418 25.5049 35.5418 20.5644 36.944C20.1503 35.89 19.8303 35.0054 19.5857 34.2902Z" fill="#aebbc7"/>
</svg>
