<?xml version="1.0" encoding="UTF-8"?><svg id="uuid-d7abde08-4f3b-4dba-8154-b598164f1b1a" xmlns="http://www.w3.org/2000/svg" width="57.852" height="55" viewBox="0 0 57.852 55"><path d="M48.511,5.596c1.639-.181,3.116.994,3.308,2.632l-2.978.348h0s0,.001,0,.001h.001s0,0-.001,0h0s0,0,0,0c0,0,0,0,0,0l-11.452,1.268-.87,1.493c.135.204.257.419.364.645.648,1.362,1.38,2.982,2.002,4.529.61,1.52,1.153,3.065,1.373,4.242.336,1.804.515,4.526.475,7.209-.04,2.658-.295,5.478-.919,7.413l-.121.377-.292.268c-.707.649-2.416,1.911-4.58,2.752.004.106.005.213.005.32,0,5.704-4.624,10.328-10.328,10.328-5.395,0-9.823-4.136-10.288-9.41l-6.677-.024-1.5-.005.011-3,1.5.005,6.835.025c.963-4.707,5.127-8.248,10.119-8.248,4.535,0,8.387,2.923,9.776,6.987,1.229-.548,2.238-1.236,2.8-1.687.407-1.51.624-3.769.659-6.146.038-2.567-.137-5.074-.425-6.614-.161-.865-.605-2.176-1.207-3.674-.591-1.471-1.296-3.031-1.927-4.359-.374-.787-1.181-1.297-2.094-1.302l-1.248-.007h-.021s-.009,0-.009,0c-.602-.003-1.25-.007-1.937-.011v-3c.704.004,1.367.008,1.982.011l1.25.007c.725.004,1.432.153,2.08.428l1-1.716.38-.653.751-.083,12.204-1.351ZM17.168,39.094c0-4.047,3.281-7.328,7.329-7.328s7.328,3.281,7.328,7.328-3.281,7.328-7.328,7.328-7.329-3.281-7.329-7.328ZM6.28,8.975c4.211-.052,8.833-.064,13.135-.058v3c-4.293-.006-8.901.006-13.098.058l-.037-3ZM25.418,5.743h-2.617v7.851h2.617v-7.851ZM22.801,16.209h2.617v2.617h-2.617v-2.617Z" style="fill:#aebbc7; fill-rule:evenodd;"/></svg>