<svg id="b3640208-e916-4509-aea7-4bb5c14cdd3c" data-name="Layer 1" xmlns="http://www.w3.org/2000/svg" width="57.852" height="55" viewBox="0 0 57.852 55"><path d="M37.031,34.21l0-3,14.92-.01h3a3.083,3.083,0,0,1-.8,2.261A2.61,2.61,0,0,1,52.2,34.2Z" style="fill:#aebbc7"/><path d="M20,46.4a9.04,9.04,0,1,1,9.04-9.039A9.049,9.049,0,0,1,20,46.4ZM20,31.32a6.04,6.04,0,1,0,6.04,6.04A6.047,6.047,0,0,0,20,31.32Z" style="fill:#aebbc7"/><rect x="-0.07" y="34.32" width="12.6" height="3" style="fill:#aebbc7"/><path d="M27.992,37.25l-.906-2.86,8.959-2.838c.286-.62,1-2.618,1-7.262a41.9,41.9,0,0,0-2.218-11.97H-.07v-3H36.938l.366.972a45.991,45.991,0,0,1,2.746,14c0,7-1.5,9.1-1.962,9.573l-.264.272Z" style="fill:#aebbc7"/></svg>
