<svg id="bcfd3fd9-e470-4dfa-bb9a-5ca06d449cb5" data-name="f37d6b14-0fd0-4512-8f7e-85b0cc9776dc" xmlns="http://www.w3.org/2000/svg" width="55" height="55" viewBox="0 0 55 55"><path d="M41.76,15.163l-4.542-7.81a2.616,2.616,0,0,0-2.58-1.33H24.005a2.375,2.375,0,0,0-1.86,1.33L17.6,15.163H14.287v2.345H17.5v11.97h2.346V25.506H39.391v3.972h2.346V17.508h3.2V15.163ZM24.185,8.5l.039-.078a.222.222,0,0,1,.039-.047H34.638a2.054,2.054,0,0,1,.5.054l3.909,6.74H20.315Z" style="fill:#aebbc7"/><path d="M18.04,38.72h1.04c-1.97-.7-3.878-1.595-3.878-2.439,0-.539,3.776-1.118,6.028-1.47,3.612-.555,6.465-1,6.465-2.056a.726.726,0,0,0-.093-.344c-.344-.649-1.595-1.063-2.917-1.063H22.653c1.532.438,2.963,1.048,2.971,1.391-.258.329-3.221.79-5,1.064-3.862.594-7.506,1.157-7.506,2.478a1.617,1.617,0,0,0,.555,1.11A6.471,6.471,0,0,0,18.04,38.72Z" style="fill:#aebbc7"/><path d="M40.853,31.348H38.774c1.532.485,2.963,1.118,3.135,1.509a29.673,29.673,0,0,1-3.643.7c-3.816.594-8.139,1.274-8.139,2.9a1.2,1.2,0,0,0,.211.649c.641.985,2.572,1.618,4.62,1.618h.728c-1.971-.774-3.479-1.6-3.479-2.267,0-.844,4.01-1.478,6.668-1.892C41.854,34.1,44,33.765,44,32.931a1.254,1.254,0,0,0-.594-.891A4.4,4.4,0,0,0,40.853,31.348Z" style="fill:#aebbc7"/><path d="M27.445,44.786A4.08,4.08,0,0,1,23.505,49c-.1,0-.2,0-.3,0a4.2,4.2,0,0,1,0-8.41,4.071,4.071,0,0,1,4.243,3.891C27.448,44.583,27.448,44.684,27.445,44.786Zm-6.414,0A2.171,2.171,0,1,0,23.2,42.461a2.139,2.139,0,0,0-2.177,2.1A2.106,2.106,0,0,0,21.031,44.786Z" style="fill:#aebbc7"/><path d="M31.152,43.868H33.5V45.73H31.152v3.119H29.147V40.742h4.784V42.6H31.152Z" style="fill:#aebbc7"/><path d="M37.5,43.868h2.352V45.73H37.5v3.119h-2V40.742h4.784V42.6H37.5Z" style="fill:#aebbc7"/></svg>
