<svg width="55" height="55" viewBox="0 0 55 55" fill="none" xmlns="http://www.w3.org/2000/svg">
<path d="M29 10.53H26V23.47H29V10.53Z" fill="#aebbc7"/>
<path d="M29 26.47H26V29.47H29V26.47Z" fill="#aebbc7"/>
<path d="M39.56 8.32994C36.07 4.99994 31.5 3.29994 26.67 3.51994C17.41 3.94994 9.95001 11.8399 10.04 21.1199C10.09 26.9599 13.13 32.4299 18.02 35.6099V47.8099C18.02 49.8499 19.68 51.5099 21.71 51.5099H33.28C35.32 51.5099 36.98 49.8499 36.98 47.8099V35.6099C41.92 32.3999 44.96 26.8699 44.96 20.9599C44.96 16.1399 43.04 11.6599 39.56 8.32994ZM21.02 36.7899H33.98V41.4999H21.02V36.7899ZM33.29 48.4999H21.71C21.33 48.4999 21.02 48.1899 21.02 47.7999V44.4999H33.98V47.7999C33.98 48.1899 33.67 48.4999 33.29 48.4999ZM34.73 33.4699L34.18 33.7899H20.82L20.27 33.4699C15.85 30.9099 13.08 26.1699 13.04 21.0899C12.97 13.3999 19.15 6.85994 26.81 6.50994C27.04 6.49994 27.27 6.48994 27.5 6.48994C31.24 6.48994 34.76 7.89994 37.48 10.4899C40.37 13.2499 41.96 16.9599 41.96 20.9499C41.96 26.0899 39.19 30.8899 34.73 33.4699Z" fill="#aebbc7"/>
</svg>
