<svg width="55" height="55" viewBox="0 0 55 55" fill="none" xmlns="http://www.w3.org/2000/svg">
<path d="M10.39 47.95H7.39001V55H10.39V47.95Z" fill="#aebbc7"/>
<path d="M10.39 35.91H7.39001V43H10.39V35.91Z" fill="#aebbc7"/>
<path d="M10.39 23.94H7.39001V31H10.39V23.94Z" fill="#aebbc7"/>
<path d="M28.1101 43.72L27.1401 43.24C27.0001 43.17 23.6201 41.47 21.0301 38.87C18.4401 36.28 16.7301 32.9 16.6601 32.76L16.1801 31.79L35.6701 12.3L36.6301 12.75C36.7701 12.81 40.0001 14.37 42.6801 17.04C45.3401 19.7 47.0601 23.09 47.1401 23.24L47.6301 24.21L28.1101 43.72ZM19.8601 32.36C20.4901 33.45 21.6701 35.28 23.1501 36.76C24.6301 38.24 26.4601 39.41 27.5501 40.05L43.9301 23.67C43.2801 22.57 42.0801 20.71 40.5501 19.18C39.0501 17.68 37.3001 16.57 36.2601 15.97L19.8601 32.36Z" fill="#aebbc7"/>
<path d="M31.3311 33.6195L26.2894 28.5779L24.1752 30.6921L29.2168 35.7338L31.3311 33.6195Z" fill="#aebbc7"/>
<path d="M35.56 27.89L32.01 24.34L34.19 20.39C34.19 20.39 35.52 20.83 37.29 22.61C39.06 24.38 39.51 25.71 39.51 25.71L35.56 27.89Z" fill="#aebbc7"/>
<path d="M39.39 40V55H42.39V37L39.39 40Z" fill="#aebbc7"/>
<path d="M10.39 11.97H7.39001V19H10.39V11.97Z" fill="#aebbc7"/>
<path d="M39.39 0V7L42.39 10V0H39.39Z" fill="#aebbc7"/>
<path d="M10.39 0H7.39001V7H10.39V0Z" fill="#aebbc7"/>
</svg>
