<svg id="a1ecff35-b4c2-4f6e-b0ec-3998c3bfcfce" data-name="ad2fe5d6-9653-4da7-8673-a6c9bdc9bce2" xmlns="http://www.w3.org/2000/svg" width="55" height="55" viewBox="0 0 55 55"><path d="M18.235,44.272c0-3.507,1.89-3.044,1.89-6.552s-1.89-3.176-1.89-6.684,1.89-3.848,1.89-7.365" style="fill:none;stroke:#aebbc7;stroke-miterlimit:10;stroke-width:3px"/><path d="M19.984,18.745l-3.309,5.711h6.618Z" style="fill:#aebbc7"/><path d="M25.8,44.272c0-3.507,1.891-3.044,1.891-6.552S25.8,34.544,25.8,31.036s1.891-3.848,1.891-7.365" style="fill:none;stroke:#aebbc7;stroke-miterlimit:10;stroke-width:3px"/><path d="M27.547,18.745l-3.309,5.711h6.618Z" style="fill:#aebbc7"/><path d="M33.267,44.272c0-3.507,1.891-3.044,1.891-6.552s-1.891-3.176-1.891-6.684,1.891-3.848,1.891-7.365" style="fill:none;stroke:#aebbc7;stroke-miterlimit:10;stroke-width:3px"/><path d="M35.016,18.745l-3.309,5.711h6.619Z" style="fill:#aebbc7"/><path d="M50.191,10.727H4.809a1.9,1.9,0,0,0-1.891,1.891V34.364a1.9,1.9,0,0,0,1.891,1.891H50.191a1.9,1.9,0,0,0,1.891-1.891V12.618A1.891,1.891,0,0,0,50.191,10.727Z" style="fill:none;stroke:#aebbc7;stroke-miterlimit:10;stroke-width:3px"/></svg>
