<?xml version="1.0" encoding="UTF-8"?><svg id="uuid-54b09b02-ae36-473d-89a8-12627736ed70" xmlns="http://www.w3.org/2000/svg" width="55" height="55" viewBox="0 0 55 55"><path d="m27.5012,9.0501c-10.17,0-18.45,8.27-18.45,18.45,0,10.17,8.28,18.45,18.45,18.45s18.45-8.28,18.45-18.45c0-10.18-8.28-18.45-18.45-18.45Zm0,34.2c-8.69,0-15.75-7.07-15.75-15.75,0-8.69,7.06-15.75,15.75-15.75,8.68,0,15.75,7.06,15.75,15.75,0,8.68-7.07,15.75-15.75,15.75Z" style="fill:#aebbc7; fill-rule:evenodd; stroke-width:0px;"/><path d="m44.9959,44.987l-1.908-1.9081c3.987-3.987,6.462-9.504,6.462-15.579,0-6.084-2.475-11.592-6.462-15.588l1.908-1.9081c4.4821,4.4821,7.2541,10.6741,7.2541,17.4961s-2.772,13.005-7.2541,17.487Z" style="fill:#aebbc7; fill-rule:evenodd; stroke-width:0px;"/><path d="m11.921,43.0875l-1.9081,1.9081c-4.491-4.4821-7.263-10.6741-7.263-17.4961s2.772-13.014,7.2539-17.487l1.9081,1.9081c-3.987,3.9869-6.462,9.504-6.462,15.579s2.475,11.592,6.471,15.588Z" style="fill:#aebbc7; fill-rule:evenodd; stroke-width:0px;"/><path d="m22.642,20.6514h5.5576c1.6133,0,2.8613.3711,3.7441,1.1152.8818.7441,1.3232,1.8027,1.3232,3.1758,0,1.3613-.4443,2.417-1.333,3.167s-2.1338,1.125-3.7344,1.125h-2.7783v4.9912h-2.7793v-13.5742Zm7.2314,5.7188c.4219-.334.6328-.8096.6328-1.4277,0-.6299-.2109-1.1084-.6328-1.4365-.4229-.3281-1.0303-.4912-1.8242-.4912h-2.6279v3.8564h2.6279c.7939,0,1.4014-.167,1.8242-.501Z" style="fill:#aebbc7; stroke-width:0px;"/></svg>