<svg id="b771512d-48f6-47de-8f95-370de6b83d79" data-name="Layer 1" xmlns="http://www.w3.org/2000/svg" width="187.323" height="45.361" viewBox="0 0 187.323 45.361"><path d="M31.334,12.573a4.395,4.395,0,1,0-4.395-4.395A4.395,4.395,0,0,0,31.334,12.573Z" style="fill:#aebbc7"/><path d="M16.725,26.373l-4.6-1.274A3.078,3.078,0,0,0,8.5,26.813L3.47,38.134A3.079,3.079,0,0,0,5.034,42.2a2.993,2.993,0,0,0,1.248.264A3.085,3.085,0,0,0,9.1,40.63l3.947-8.886,5.168,1.432Z" style="fill:#aebbc7"/><path d="M29.866,16.159a3.082,3.082,0,0,0-4.052,1.591l-2.057,4.729a3.971,3.971,0,0,1,.448,1.108l1.934,8.825L31.448,20.2A3.063,3.063,0,0,0,29.866,16.159Z" style="fill:#aebbc7"/><path d="M24.3,43.777a1.322,1.322,0,0,1-1.284-1.02l-3.357-14.5a1.317,1.317,0,0,1,2.566-.6l3.358,14.5a1.319,1.319,0,0,1-.984,1.582A1.228,1.228,0,0,1,24.3,43.777Z" style="fill:#aebbc7"/><path d="M36.168,17.407a1.318,1.318,0,0,1-.668-2.452l9.669-5.713a1.316,1.316,0,1,1,1.336,2.267l-9.669,5.714A1.32,1.32,0,0,1,36.168,17.407Z" style="fill:#aebbc7"/><path d="M5.426,3.215,3.063.852,1.154,2.761,3.517,5.124a10.109,10.109,0,0,0,0,12.261L1.252,19.65l1.909,1.909,2.265-2.265a10.109,10.109,0,0,0,12.261,0l2.362,2.363,1.91-1.909L19.6,17.385a10.113,10.113,0,0,0,0-12.261l2.265-2.265L19.952.95,17.687,3.215a10.113,10.113,0,0,0-12.261,0Zm.023,3.842a7.412,7.412,0,0,0,0,8.4l4.2-4.2Zm6.107,2.288-4.2-4.2a7.419,7.419,0,0,1,8.4,0Zm0,3.819-4.2,4.2a7.414,7.414,0,0,0,8.4,0Zm6.107,2.288-4.2-4.2,4.2-4.2a7.412,7.412,0,0,1,0,8.4Z" style="fill:#aebbc7;fill-rule:evenodd"/><path d="M42.789,29.41a6.349,6.349,0,0,1-1.7,4l-2.9,3.5h4.6v2.5H34.383v-2l4.2-5c.9-1.1,1.4-1.8,1.4-2.9,0-1-.4-1.6-1.4-1.6-.9,0-1.6.6-1.6,1.9h-2.6a4.072,4.072,0,0,1,4.3-4.4A3.758,3.758,0,0,1,42.789,29.41Z" style="fill:#aebbc7"/><path d="M71.129,42.989l-5.984-15.4h-3.3l-5.962,15.4h3.256l1.276-3.41h6.16l1.276,3.41ZM63.209,32.1l.286-.858.286.858,1.826,4.84H61.383Zm13.754,10.89v-15.4H73.949v15.4Zm14.869,0L88.51,36.675a4.444,4.444,0,0,0,2.662-4.18c0-2.926-2.09-4.906-5.413-4.906h-4.73v15.4h3.014V37.2h1.364l3.015,5.786ZM84.043,30.405h1.716c1.43,0,2.355.7,2.355,2.09,0,1.364-.925,2.068-2.355,2.068H84.043Zm15.568-2.816H94.727v15.4h5.588c3.212,0,5.214-1.8,5.214-4.532a3.626,3.626,0,0,0-2.2-3.476,3.591,3.591,0,0,0,1.342-2.992C104.671,29.261,102.735,27.589,99.611,27.589Zm-1.87,2.816h1.87c1.232,0,2,.594,2,1.8,0,1.034-.748,1.694-1.958,1.694H97.741Zm0,6.116h2.574c1.32,0,2.112.66,2.112,1.826,0,1.188-.792,1.826-2.112,1.826H97.741Zm24.59,6.468-5.984-15.4h-3.3l-5.962,15.4h3.256l1.276-3.41h6.16l1.276,3.41Zm-7.92-10.89.286-.858.286.858,1.826,4.84h-4.224Zm16.618-4.8c-4.51,0-7.7,3.367-7.7,7.965,0,4.62,3.19,8.008,7.766,8.008,4.224,0,7.106-2.64,7.106-7.26V34.673h-6.908v2.816h3.7c-.176,1.936-1.65,2.97-3.894,2.97-2.794,0-4.642-2.2-4.642-5.192,0-2.97,1.848-5.148,4.51-5.148a3.607,3.607,0,0,1,3.828,2.42h3.3A6.791,6.791,0,0,0,131.029,27.3Zm23.125,0a7.69,7.69,0,0,0-7.986,7.965,7.975,7.975,0,1,0,15.95,0A7.685,7.685,0,0,0,154.154,27.3Zm0,2.817c2.926,0,4.84,2.178,4.84,5.148,0,2.992-1.914,5.192-4.84,5.192-2.948,0-4.862-2.2-4.862-5.192C149.292,32.3,151.206,30.119,154.154,30.119Zm20.028.286V27.589h-8.734v15.4h3.014V36.7h4.84V33.881h-4.84V30.405Zm11.785,0V27.589h-8.734v15.4h3.014V36.7h4.84V33.881h-4.84V30.405Z" style="fill:#aebbc7"/><path d="M67.341,1.589h-4.95v15.4h3.014V11.511h1.936c3.322,0,5.412-2.09,5.412-4.95C72.753,3.635,70.663,1.589,67.341,1.589ZM65.405,4.405h1.936a2.063,2.063,0,0,1,2.332,2.156A2.058,2.058,0,0,1,67.341,8.7H65.405ZM87.761,16.989l-5.985-15.4h-3.3l-5.962,15.4H75.77l1.276-3.41h6.16l1.276,3.41ZM79.84,6.1l.286-.858.286.858,1.826,4.84H78.014ZM94.466,1.3C91.43,1.3,89.6,3.217,89.6,5.879c0,2.574,1.606,3.806,4.4,4.73,1.914.638,2.728,1.232,2.728,2.266s-.726,1.76-2.024,1.76a2.192,2.192,0,0,1-2.42-2.354H89.252c.066,2.926,1.892,4.994,5.412,4.994,2.9,0,5.1-1.694,5.1-4.664,0-2.31-1.166-3.652-4.422-4.774-1.87-.66-2.706-1.034-2.706-2.222a1.552,1.552,0,0,1,1.738-1.65A1.812,1.812,0,0,1,96.27,5.9h3.036C99.2,2.843,97.326,1.3,94.466,1.3Zm13.032,0c-3.036,0-4.862,1.915-4.862,4.577,0,2.574,1.606,3.806,4.4,4.73,1.914.638,2.728,1.232,2.728,2.266s-.726,1.76-2.024,1.76a2.192,2.192,0,0,1-2.42-2.354h-3.036c.066,2.926,1.892,4.994,5.412,4.994,2.9,0,5.1-1.694,5.1-4.664,0-2.31-1.166-3.652-4.422-4.774-1.87-.66-2.706-1.034-2.706-2.222a1.552,1.552,0,0,1,1.738-1.65A1.812,1.812,0,0,1,109.3,5.9h3.036C112.228,2.843,110.358,1.3,107.5,1.3Zm17.431,3.1V1.589h-8.866v15.4h8.866V14.173h-5.852v-3.7h5.06V7.683h-5.06V4.405Zm16.436,12.584V1.589h-3.014V12.017l-.638-1.078L131.4,1.589h-2.992v15.4h3.014V6.649l.594,1.012,6.358,9.328ZM152.386,1.3c-4.51,0-7.7,3.367-7.7,7.965,0,4.62,3.19,8.008,7.766,8.008,4.224,0,7.106-2.64,7.106-7.26V8.673H152.65v2.816h3.7c-.176,1.936-1.65,2.97-3.894,2.97-2.794,0-4.642-2.2-4.642-5.192,0-2.97,1.848-5.148,4.51-5.148a3.607,3.607,0,0,1,3.828,2.42h3.3A6.791,6.791,0,0,0,152.386,1.3Zm19.457,3.1V1.589h-8.866v15.4h8.866V14.173h-5.852v-3.7h5.06V7.683h-5.06V4.405Zm14.28,12.584L182.8,10.675a4.444,4.444,0,0,0,2.662-4.18c0-2.926-2.09-4.906-5.412-4.906h-4.73v15.4h3.014V11.2H179.7l3.014,5.786ZM178.335,4.405h1.716c1.43,0,2.354.7,2.354,2.09,0,1.364-.924,2.068-2.354,2.068h-1.716Z" style="fill:#aebbc7"/></svg>
