<svg id="b4f676f9-3c56-4826-8d9f-37401fce08a5" data-name="b1169026-0fb4-4602-9436-f8a075d6f05b" xmlns="http://www.w3.org/2000/svg" width="55" height="55" viewBox="0 0 55 55"><path d="M37.362,36.445S34.421,33.6,27.5,33.6s-10.438,2.784-10.438,2.784L5.245,18.292a41.134,41.134,0,0,1,44.51.061Z" style="fill:none;stroke:#aebbc7;stroke-miterlimit:10;stroke-width:3px"/><path d="M18.947,42.746c0-3.238,1.746-2.81,1.746-6.048s-1.746-2.932-1.746-6.17,1.746-3.552,1.746-6.8" style="fill:none;stroke:#aebbc7;stroke-miterlimit:10;stroke-width:3px"/><path d="M20.562,19.183l-3.055,5.271h6.109Z" style="fill:#aebbc7"/><path d="M25.929,42.746c0-3.238,1.745-2.81,1.745-6.048s-1.745-2.932-1.745-6.17,1.745-3.552,1.745-6.8" style="fill:none;stroke:#aebbc7;stroke-miterlimit:10;stroke-width:3px"/><path d="M27.544,19.183l-3.055,5.271H30.6Z" style="fill:#aebbc7"/><path d="M32.824,42.746c0-3.238,1.745-2.81,1.745-6.048s-1.745-2.932-1.745-6.17,1.745-3.552,1.745-6.8" style="fill:none;stroke:#aebbc7;stroke-miterlimit:10;stroke-width:3px"/><path d="M34.438,19.183l-3.054,5.271h6.109Z" style="fill:#aebbc7"/></svg>
