<svg xmlns="http://www.w3.org/2000/svg" width="39" height="39" viewBox="0 0 39 39"><g id="bf41ad70-a453-4b71-b985-674167286bf2" data-name="illustration"><path d="M13.51,18.246l-1.5346-1.5347a8.2684,8.2684,0,0,0,1.8012,9.507l1.378-1.45A6.2848,6.2848,0,0,1,13.51,18.246Z" style="fill:#aebbc7"/><path d="M14.4861,16.3944a6.3021,6.3021,0,0,1,11.3291,3.8088A6.22,6.22,0,0,1,23.8835,24.74l1.3829,1.4453A8.3051,8.3051,0,1,0,13.06,14.9679Z" style="fill:#aebbc7"/><line x1="4.9977" y1="5.6697" x2="34.1551" y2="34.8271" style="fill:none;stroke:#aebbc7;stroke-miterlimit:10;stroke-width:2px"/><path d="M7.7759,12.5124,6.3374,11.0739A15.9942,15.9942,0,0,0,8.4231,31.7954l1.3838-1.4443a13.9985,13.9985,0,0,1-2.031-17.8387Z" style="fill:#aebbc7"/><path d="M9.0087,10.9171A14.0217,14.0217,0,1,1,29.2229,30.3208l1.3838,1.4444a15.87,15.87,0,0,0,4.9282-11.562,16.0114,16.0114,0,0,0-27.94-10.7Z" style="fill:#aebbc7"/></g></svg>
