<svg width="55" height="56" viewBox="0 0 55 56" fill="none" xmlns="http://www.w3.org/2000/svg">
<path d="M40.5708 45.9704H14.429L14.1003 45.7455C7.76807 41.4203 7.17119 38.6088 7.17119 27.3891C7.17119 20.1054 9.71444 16.0569 11.5743 13.0985C12.474 11.6625 13.1833 10.5379 13.1833 9.6123V5.31299H15.7785V9.60365C15.7785 11.2732 14.8442 12.7524 13.7715 14.4739C12.0847 17.1642 9.76634 20.8493 9.76634 27.3891C9.76634 37.8908 10.1124 39.8113 15.2335 43.3839H39.7663C44.8615 39.8372 45.2335 37.7351 45.2335 27.3891C45.2335 20.8666 42.8632 17.095 41.1245 14.3441C40.0172 12.5794 39.1349 11.1867 39.1349 9.6123V5.31299H41.73V9.60365C41.73 10.4341 42.4307 11.55 43.3217 12.9514C45.121 15.8061 47.8286 20.114 47.8286 27.3891C47.8286 37.9687 47.5345 41.2213 40.8996 45.7455L40.5708 45.9704Z" fill="#aebbc7"/>
<path d="M16.6868 45.5552H14.0916V50.313H16.6868V45.5552Z" fill="#aebbc7"/>
<path d="M40.9082 45.5552H38.3131V50.313H40.9082V45.5552Z" fill="#aebbc7"/>
<path d="M34.8528 45.5552H32.2577V50.313H34.8528V45.5552Z" fill="#aebbc7"/>
<path d="M28.7975 45.5552H26.2023V50.313H28.7975V45.5552Z" fill="#aebbc7"/>
<path d="M22.7421 45.5552H20.147V50.313H22.7421V45.5552Z" fill="#aebbc7"/>
<path d="M28.7975 21.3252H26.2023V29.1107H28.7975V21.3252Z" fill="#aebbc7"/>
<path d="M28.7975 31.7058H26.2023V34.301H28.7975V31.7058Z" fill="#aebbc7"/>
</svg>
