<?xml version="1.0" encoding="UTF-8"?><svg id="uuid-f2a60382-1701-44cc-a14c-08e8d4710d25" xmlns="http://www.w3.org/2000/svg" width="12" height="12" viewBox="0 0 12 12"><circle cx="6" cy="6" r="6" style="fill:#aebbc7; stroke-width:0px;"/><path d="m9.033,5.1495l.1721-.1721c.2927-.2927.454-.6804.454-1.0915s-.1613-.7986-.4537-1.091c-.2913-.2924-.6789-.4535-1.0916-.4535h-.0002c-.4126,0-.8006.161-1.091.4527l-.172.1712-.0005-.0005-.0009.0009,2.1837,2.1838Z" style="fill:#141b21; stroke-width:0px;"/><polygon points="2.8659 6.9489 2.3409 7.474 2.3409 9.6586 4.5258 9.6586 5.0501 9.133 2.8659 6.9489" style="fill:#141b21; stroke-width:0px;"/><rect x="3.0304" y="4.7704" width="4.5564" height="1.2757" transform="translate(-2.2694 5.3377) rotate(-44.999)" style="fill:#141b21; stroke-width:0px;"/><rect x="4.3127" y="6.0534" width="4.5563" height="1.2743" transform="translate(-2.8005 6.62) rotate(-44.9994)" style="fill:#141b21; stroke-width:0px;"/></svg>