<?xml version="1.0" encoding="UTF-8"?><svg id="uuid-4dc693bb-c051-43e8-849b-898850574046" xmlns="http://www.w3.org/2000/svg" width="12" height="12" viewBox="0 0 12 12"><circle cx="6" cy="6" r="6" style="fill:#aebbc7;"/><circle cx="5.087" cy="6.7621" r="3.3906" style="fill:none; stroke:#141b21; stroke-miterlimit:10; stroke-width:.75px;"/><ellipse cx="5.087" cy="6.7621" rx="1.8837" ry="3.3906" style="fill:none; stroke:#141b21; stroke-miterlimit:10; stroke-width:.75px;"/><line x1="1.6715" y1="6.8009" x2="8.4776" y2="6.8009" style="fill:none; stroke:#141b21; stroke-miterlimit:10; stroke-width:.75px;"/><line x1="5.0745" y1="3.3979" x2="5.0745" y2="10.2039" style="fill:none; stroke:#141b21; stroke-miterlimit:10; stroke-width:.75px;"/><path d="m7.8197.9009c-1.541,0-2.7482,1.1989-2.7482,2.7294,0,1.9522,1.9293,3.6114,2.2042,3.8378l.5579.4877.5605-.5131c2.017-1.8464,2.1738-3.3841,2.1738-3.8114,0-1.5311-1.2072-2.7304-2.7482-2.7304Z" style="fill:#aebbc7; fill-rule:evenodd;"/><circle cx="7.8197" cy="3.7608" r=".6962" style="fill:#141b21;"/><path d="m7.8198,6.6021c-.0708-.0578-1.7288-1.4287-1.7288-2.8977,0-.9758.7432-1.7116,1.7287-1.7116s1.7286.7363,1.7286,1.7126c0,1.2788-1.5471,2.732-1.7235,2.8935l-.0043.0038-.0007-.0006Z" style="fill:none; stroke:#141b21; stroke-miterlimit:10; stroke-width:.75px;"/></svg>