<?xml version="1.0" encoding="UTF-8"?><svg xmlns="http://www.w3.org/2000/svg" width="12" height="12" viewBox="0 0 12 12"><g id="uuid-3b7ee995-4c49-47eb-b506-ffc041ef8875"><circle cx="6" cy="6" r="6" style="fill:#aebbc7;"/></g><g id="uuid-88e6c861-b2a6-43c1-8e26-74615f53bd50"><path d="m6.0053,1.0846v1.2274" style="fill:none; stroke:#141b21; stroke-miterlimit:10; stroke-width:.75px;"/><path d="m10.8221,5.7407h-1.2274" style="fill:none; stroke:#141b21; stroke-miterlimit:10; stroke-width:.75px;"/><path d="m2.4054,5.7407h-1.2274" style="fill:none; stroke:#141b21; stroke-miterlimit:10; stroke-width:.75px;"/><path d="m9.4105,2.331l-.868.8679" style="fill:none; stroke:#141b21; stroke-miterlimit:10; stroke-width:.75px;"/><path d="m3.4575,3.1989l-.868-.8679" style="fill:none; stroke:#141b21; stroke-miterlimit:10; stroke-width:.75px;"/><path d="m4.7217,9.2382h2.5496" style="fill:none; stroke:#141b21; stroke-miterlimit:10; stroke-width:.75px;"/><path d="m7.2713,8.0414h-2.5496" style="fill:none; stroke:#141b21; stroke-miterlimit:10; stroke-width:.75px;"/><path d="m8.546,5.8355c0,.4472-.1175.8866-.3419,1.2738-.2244.3872-.5453.7087-.9328.932v2.0831c0,.0461-.0088.0917-.0263.1343-.0175.0426-.0438.0812-.0771.1138-.0316.0324-.0701.0584-.114.0759-.0421.0177-.0877.0267-.1333.0267h-1.8482c-.0456,0-.0912-.0089-.135-.0267-.0421-.0175-.0807-.0435-.114-.0759-.0316-.0326-.0579-.0712-.0754-.1138-.0175-.0426-.0263-.0882-.0263-.1343v-2.0831c-.384-.2211-.7031-.5386-.9276-.9212-.2227-.3826-.3437-.817-.3472-1.2601-.0035-.6762.2613-1.326.7382-1.8064.4752-.4804,1.1222-.7522,1.7991-.7554.6751-.0033,1.3256.2622,1.8061.7381.4805.4758.7522,1.123.7558,1.7992h0Z" style="fill:none; stroke:#141b21; stroke-miterlimit:10; stroke-width:.75px;"/></g></svg>