<svg xmlns="http://www.w3.org/2000/svg" width="12" height="12" viewBox="0 0 12 12"><g id="b9a7c9d4-0a5d-4093-91ed-4bcf3b2b8207" data-name="below"><circle cx="6" cy="6" r="6" style="fill:#aebbc7"/></g><g id="b18d0798-ecdd-4fd5-81ec-5b27726c8b02" data-name="Layer 1"><path d="M10.6771,4.5079A8.3792,8.3792,0,0,0,1.42,4.4948l-.2159.16L3.7213,8.5912l.1644.2587.24-.19a2.8747,2.8747,0,0,1,1.2113-.4523l.4724.8251.0168-.0095v.0055h.6245l-.1729-.2757.0148-.0076-.3386-.5917c.0329-.002.0635-.002.095-.002a3.0934,3.0934,0,0,1,1.8865.5171l.24.2051,2.7181-4.2029ZM4.0392,8.0455,1.9706,4.8123a7.62,7.62,0,0,1,1.1088-.5492L5.0385,7.6846a3.6534,3.6534,0,0,0-.9993.3622Zm3.9945.0095A3.95,3.95,0,0,0,6.0486,7.58q-.218,0-.4132.0174l-2.02-3.528a7.8945,7.8945,0,0,1,2.4324-.3918,8.0161,8.0161,0,0,1,4.076,1.1462Z" style="fill:#141b21"/></g></svg>