<?xml version="1.0" encoding="UTF-8"?><svg xmlns="http://www.w3.org/2000/svg" width="654" height="167.84" xmlns:xlink="http://www.w3.org/1999/xlink" viewBox="0 0 654 167.84"><defs><linearGradient id="uuid-f7bed41d-ca4f-4dbe-89b7-bf9d8cb121a6" x1="243.121" y1="140.391" x2="261.684" y2="130.522" gradientUnits="userSpaceOnUse"><stop offset="0" stop-color="#fff" stop-opacity="0"/><stop offset="1" stop-color="#fff"/></linearGradient><linearGradient id="uuid-950a628b-5d28-4e69-86e3-0513f54a0e5e" x1="459.717" y1="139.473" x2="485.347" y2="127.573" gradientUnits="userSpaceOnUse"><stop offset="0" stop-color="#d3d5d6" stop-opacity="0"/><stop offset="1" stop-color="#d3d5d6"/></linearGradient><linearGradient id="uuid-a9aef04b-0c7a-44e4-ac1e-368296badf49" x1="7.001" y1="102.246" x2="19.065" y2="102.246" xlink:href="#uuid-950a628b-5d28-4e69-86e3-0513f54a0e5e"/></defs><g id="uuid-99ec38e4-a785-4301-8bed-6e64c2fd4f4a"><path d="m285.363,69.831l4.332.902v3.148l33.369,4.617s4.128,26.423,6.122,34.083" style="fill:none; stroke:#a7abae; stroke-linecap:round; stroke-linejoin:round; stroke-width:.5px;"/><path d="m279.772,71.749l.747,1.953c15.3,39.994,43.483,46.399,49.281,46.965,5.897.575,79.542,5.466,79.542,5.466,5.858.262,6.05-1.278,2.779-4.068s-26.313-14.02-25.009-77.986" style="fill:none; stroke:#a7abae; stroke-linecap:round; stroke-linejoin:round;"/><path d="m285.363,69.831c11.339,29.594,28.462,40.249,38.742,43.933" style="fill:none; stroke:#a7abae; stroke-linecap:round; stroke-linejoin:round; stroke-width:.5px;"/><path d="m283.302,70.524c11.494,29.999,28.583,40.407,38.98,44.204,4.694,1.714,7.891,2.332,11.789,2.628,7.841.597,32.899,2.448,52.428,3.62,7.255.435,21.032,1.684,25.621,1.088" style="fill:none; stroke:#a7abae; stroke-linecap:round; stroke-linejoin:round; stroke-width:.5px;"/><polygon points="283.627 87.209 283.627 92.194 328.137 89.063 328.377 83.579 283.627 87.209" style="fill:none; stroke:#fff; stroke-linecap:round; stroke-linejoin:round; stroke-width:3px;"/><polygon points="328.377 83.579 328.137 89.063 283.627 92.194 283.627 87.209 328.377 83.579" style="fill:#f2a900; stroke-width:0px;"/><polygon points="328.137 89.063 339.437 88.133 339 82.619 328.377 83.579 328.137 89.063" style="fill:#f2a900; stroke-width:0px;"/><path d="m183.87,157.901c-17.019-3.08-35.244-6.437-39.429-7.43-8.288-1.967-38.348-12.221-55.063-20.508-16.716-8.288-38.067-20.227-40.736-25.144-2.669-4.916-9.271-21.492-10.676-26.267-1.405-4.776-3.231-8.288-3.09-11.659s1.545-9.411,1.967-10.956,8.428-11.237,9.692-12.502c0,0-2.811-20.667-1.711-40.578" style="fill:none; stroke:#a7abae; stroke-linecap:round; stroke-linejoin:round; stroke-width:1.5px;"/><path d="m89.377,129.962c22.728,4.06,64.575,10.624,102.538,16.48" style="fill:none; stroke:#a7abae; stroke-linecap:round; stroke-linejoin:round; stroke-width:.5px;"/><path d="m38.388,79.881c3.917-7.664,23.445-17.428,80.927-34.226,28.741-8.399,62.718-16.562,90.284-22.769" style="fill:none; stroke:#a7abae; stroke-linecap:round; stroke-linejoin:round; stroke-width:.5px;"/><path d="m37.278,76.378c.303-5.001-2.531-9.306,18.886-22.324,0,0,1.785-1.785,4.934.63,3.15,2.415,5.039,3.57,7.559,2.415s35.696-16.798,91.55-31.707c0,0,6.059-1.785,8.121-5.039s6.341-9.029,7.561-11.339,4.947-5.669,9.593-6.929" style="fill:none; stroke:#a7abae; stroke-linecap:round; stroke-linejoin:round; stroke-width:.5px;"/><path d="m46.535,43.434c13.819-12.443,39.262-27.802,62.51-40.202" style="fill:none; stroke:#a7abae; stroke-linecap:round; stroke-linejoin:round; stroke-width:1.5px;"/><path d="m35.183,69.845c-1.171-7.287,15.522-26.71,74.316-51.382,14.609-6.131,28.259-11.73,40.695-16.717" style="fill:none; stroke:#a7abae; stroke-linecap:round; stroke-linejoin:round; stroke-width:.5px;"/><path d="m62.396,71.749l.747,1.953c15.3,39.994,43.483,46.399,49.281,46.965,5.897.575,79.542,5.466,79.542,5.466,5.858.262,6.05-1.278,2.779-4.068s-26.313-14.02-25.009-77.986" style="fill:none; stroke:#a7abae; stroke-linecap:round; stroke-linejoin:round;"/><path d="m67.987,69.831c11.339,29.594,28.462,40.249,38.742,43.933" style="fill:none; stroke:#a7abae; stroke-linecap:round; stroke-linejoin:round; stroke-width:.5px;"/><path d="m65.926,70.524c11.494,29.999,28.583,40.407,38.98,44.204,4.694,1.714,7.891,2.332,11.789,2.628,7.841.597,32.899,2.448,52.428,3.62,7.255.435,21.032,1.684,25.621,1.088" style="fill:none; stroke:#a7abae; stroke-linecap:round; stroke-linejoin:round; stroke-width:.5px;"/><path d="m40.084,84.568c-1.378-3.787,12.764-12.137,73.449-27.82,30.202-7.805,67.202-15.061,96.752-20.382" style="fill:none; stroke:#a7abae; stroke-linecap:round; stroke-linejoin:round;"/><line x1="105.688" y1="78.497" x2="111.354" y2="77.498" style="fill:none; stroke:#a7abae; stroke-linecap:round; stroke-linejoin:round; stroke-width:.5px;"/><path d="m72.319,73.881c19.308-5.561,58.658-15.215,93.916-20.777" style="fill:none; stroke:#a7abae; stroke-linecap:round; stroke-linejoin:round; stroke-width:.5px;"/><path d="m72.319,70.732c19.308-5.561,58.658-15.374,93.916-20.935" style="fill:none; stroke:#a7abae; stroke-linecap:round; stroke-linejoin:round; stroke-width:.5px;"/><path d="m185.411,113.648c-19.806-15.213-18.757-56.452-19.176-66.841l3.466-.733" style="fill:none; stroke:#a7abae; stroke-linecap:round; stroke-linejoin:round; stroke-width:.5px;"/><path d="m152.488,69.054c3.673-.21,4.092.735,3.987,3.148s.027,18.468.014,20.777.511,4.092,4.498,4.302c2.281.12,4.496.103,5.973.066.986-.025,1.798.767,1.798,1.754v4.592c0,.976-.797,1.764-1.772,1.754l-39.158-.402s-1.855.315-2.396-1.889" style="fill:none; stroke:#a7abae; stroke-linecap:round; stroke-linejoin:round;"/><path d="m156.067,69.831l-18.558-4.156c-2.365-.53-4.836-.592-7.223-.171-4.37.772-9.303,1.602-13.463,2.317-1.182.203-2.049,1.228-2.049,2.427v.158" style="fill:none; stroke:#a7abae; stroke-linecap:round; stroke-linejoin:round;"/><path d="m131.78,65.518c2.555.912,3.919,4.789,3.709,11.98-.21,7.191-.525,18.733-.525,18.733l8.614-.49c.851-.014,1.702.013,2.55.081l22.137,2.061" style="fill:none; stroke:#a7abae; stroke-linecap:round; stroke-linejoin:round; stroke-width:.5px;"/><polyline points="111.93 97.595 109.99 97.883 109.99 101.688 148.92 105.262" style="fill:none; stroke:#a7abae; stroke-linecap:round; stroke-linejoin:round;"/><path d="m109.99,101.688l31.908-1.391c1.891-.086,3.786-.028,5.669.172l21.191,2.373" style="fill:none; stroke:#a7abae; stroke-linecap:round; stroke-linejoin:round; stroke-width:.5px;"/><polygon points="149.001 51.729 147.031 50.324 157.258 48.281 158.385 49.971 149.001 51.729" style="fill:none; stroke:#a7abae; stroke-linecap:round; stroke-linejoin:round; stroke-width:.5px;"/><polygon points="130.414 55.528 122.29 57.323 119.612 56.425 127.784 54.555 130.414 55.528" style="fill:none; stroke:#a7abae; stroke-linecap:round; stroke-linejoin:round; stroke-width:.5px;"/><polygon points="108.435 60.619 101.627 62.253 99.322 61.545 106.17 59.851 108.435 60.619" style="fill:none; stroke:#a7abae; stroke-linecap:round; stroke-linejoin:round; stroke-width:.5px;"/><polygon points="91.584 64.66 85.417 66.325 83.447 65.803 89.645 64.085 91.584 64.66" style="fill:none; stroke:#a7abae; stroke-linecap:round; stroke-linejoin:round; stroke-width:.5px;"/><polygon points="78.417 68.335 72.894 69.872 71.317 69.454 76.865 67.875 78.417 68.335" style="fill:none; stroke:#a7abae; stroke-linecap:round; stroke-linejoin:round; stroke-width:.5px;"/><path d="m110.665,93.715s.446-16.042.689-18.466.657-4.256,4.861-5c5.862-1.036,9-1.292,10.243-1.224s5.545.441,5.322,4.607c-.223,4.166-.97,19.586-1.156,21.327-.133,1.244-.34,2.734-3.081,3.502-1.095.307-3.733.557-5.189.54-5.098-.062-5.472-.124-7.15-.249s-4.67-.562-4.539-5.036Z" style="fill:none; stroke:#a7abae; stroke-linecap:round; stroke-linejoin:round;"/><path d="m120.681,98.72c3.682,0,5.194-1.308,5.432-5.788.238-4.479.572-18.061.572-19.3s-.095-3.765-3.288-3.336c-3.193.429-8.647,1.287-8.647,1.287,0,0-2.674.281-3.093,3.097" style="fill:none; stroke:#a7abae; stroke-linecap:round; stroke-linejoin:round; stroke-width:.5px;"/><path d="m112.35,93.139l.942-18.069c.029-.559.447-1.021,1.001-1.106l9.359-1.437c.61-.094,1.153.391,1.13,1.008l-.724,19.074c-.023.614-.514,1.108-1.128,1.135l-9.555.427c-.579.026-1.055-.453-1.024-1.032Z" style="fill:none; stroke:#a7abae; stroke-linecap:round; stroke-linejoin:round; stroke-width:.5px;"/><line x1="113.596" y1="74.339" x2="124.66" y2="76.733" style="fill:none; stroke:#a7abae; stroke-linecap:round; stroke-linejoin:round; stroke-width:.5px;"/><ellipse cx="140.99" cy="84.402" rx="3.408" ry="4.171" transform="translate(-1.965 3.373) rotate(-1.361)" style="fill:none; stroke:#a7abae; stroke-linecap:round; stroke-linejoin:round; stroke-width:.5px;"/><path d="m124.465,81.889c-.243-.065-.496-.096-.755-.09-1.779.042-3.18,1.842-3.128,4.02s1.536,3.909,3.316,3.867c.092-.002.183-.009.273-.02" style="fill:none; stroke:#a7abae; stroke-linecap:round; stroke-linejoin:round; stroke-width:.5px;"/><path d="m139.573,80.593c1.214.618,2.086,2.065,2.124,3.769.04,1.727-.78,3.23-1.987,3.89" style="fill:none; stroke:#a7abae; stroke-linecap:round; stroke-linejoin:round; stroke-width:.5px;"/><path d="m138.144,82.073c.031-.002.059-.005.09-.005,1.072-.027,1.968,1.018,1.999,2.329.031,1.314-.813,2.397-1.886,2.424-.039,0-.077.001-.113-.001" style="fill:none; stroke:#a7abae; stroke-linecap:round; stroke-linejoin:round; stroke-width:.5px;"/><line x1="144.301" y1="96.056" x2="144.301" y2="99.672" style="fill:none; stroke:#a7abae; stroke-linecap:round; stroke-linejoin:round; stroke-width:.5px;"/><path d="m118.685,115.86c9.7.716,32.211,2.242,50.074,3.442,0,0,1.653-.33.574-1.81s-1.477-2.048-1.477-2.048l.904-1.591,14.609.284s1.237.244,1.243-1.128" style="fill:none; stroke:#a7abae; stroke-linecap:round; stroke-linejoin:round; stroke-width:.5px;"/><path d="m167.855,115.445s14.495.644,16.257.587,2.633-.707,2.709-1.632" style="fill:none; stroke:#a7abae; stroke-linecap:round; stroke-linejoin:round; stroke-width:.5px;"/><ellipse cx="175.185" cy="118.513" rx=".79" ry="3.352" transform="translate(-2.242 233.642) rotate(-67.057)" style="fill:none; stroke:#a7abae; stroke-linecap:round; stroke-linejoin:round; stroke-width:.5px;"/><path d="m109.204,116.111l-2.68-2.529c-.172-.153-.2-.412-.064-.598l.633-.863c.098-.134.262-.202.426-.178l5.212.774,5.954,3.144-1.285,1.549" style="fill:none; stroke:#a7abae; stroke-linecap:round; stroke-linejoin:round; stroke-width:.5px;"/><polyline points="106.219 113.312 112.042 114.22 117.4 117.41" style="fill:none; stroke:#a7abae; stroke-linecap:round; stroke-linejoin:round; stroke-width:.5px;"/><ellipse cx="110.821" cy="115.409" rx=".376" ry="1.528" transform="translate(-38.686 172.401) rotate(-67.029)" style="fill:none; stroke:#a7abae; stroke-linecap:round; stroke-linejoin:round; stroke-width:.5px;"/><path d="m172.79,94.948c-8.203-5.065-7.838-14.231-7.838-14.904,0-3.506.884-6.749,2.383-9.392" style="fill:none; stroke:#a7abae; stroke-linecap:round; stroke-linejoin:round; stroke-width:.5px;"/><path d="m113.292,75.07c-.115-.358.001-.816.318-1.125.154-.157.354-.283.578-.347.192-.056.344-.112.52-.152.68-.189,1.373-.295,2.065-.414l4.15-.693,2.075-.347.519-.084c.231-.044.567-.033.828.069.547.189.969.691,1.055,1.27.04.335.007.468.009.647l-.018.526-.036,1.051-.071,2.102-.391,8.405-.224,4.202c-.04.7-.061,1.401-.148,2.099-.028.288-.104.871-.453,1.163-.313.318-.782.428-1.139.301.345-.158.557-.406.655-.658.112-.272.053-.438.035-.84-.034-.703-.002-1.403.012-2.105l.096-4.206.247-8.411.164-4.081c-.013-.118-.105-.232-.222-.273-.068-.022-.094-.03-.208-.013l-.52.075-2.083.292-4.167.584c-.695.095-1.388.201-2.094.225-.17.014-.365.008-.519.011-.121,0-.252.013-.379.065-.257.098-.503.319-.654.662Z" style="fill:#a7abae; stroke-width:0px;"/><path d="m403.576,158.322c-17.65-3.189-37.383-6.813-41.759-7.852-8.288-1.967-38.348-12.221-55.063-20.508-16.716-8.288-38.067-20.227-40.736-25.144-2.669-4.916-9.271-21.492-10.676-26.267-1.405-4.776-3.231-8.288-3.09-11.659s1.545-9.411,1.967-10.956,8.428-11.237,9.692-12.502c0,0-2.811-20.667-1.711-40.578" style="fill:none; stroke:#a7abae; stroke-linecap:round; stroke-linejoin:round; stroke-width:1.5px;"/><path d="m306.753,129.962c24.911,4.45,72.793,11.909,113.352,18.145" style="fill:none; stroke:#a7abae; stroke-linecap:round; stroke-linejoin:round; stroke-width:.5px;"/><path d="m255.764,79.881c3.917-7.664,23.445-17.428,80.927-34.226,28.741-8.399,62.718-16.562,90.284-22.769" style="fill:none; stroke:#a7abae; stroke-linecap:round; stroke-linejoin:round; stroke-width:.5px;"/><path d="m254.653,76.378c.303-5.001-2.531-9.306,18.886-22.324,0,0,1.785-1.785,4.934.63,3.15,2.415,5.039,3.57,7.559,2.415s35.696-16.798,91.55-31.707c0,0,6.059-1.785,8.121-5.039s6.341-9.029,7.561-11.339,4.947-5.669,9.593-6.929" style="fill:none; stroke:#a7abae; stroke-linecap:round; stroke-linejoin:round; stroke-width:.5px;"/><path d="m263.911,43.434c13.819-12.443,39.262-27.802,62.51-40.202" style="fill:none; stroke:#a7abae; stroke-linecap:round; stroke-linejoin:round; stroke-width:1.5px;"/><path d="m252.558,69.845c-1.171-7.287,15.522-26.71,74.316-51.382,14.609-6.131,28.259-11.73,40.695-16.717" style="fill:none; stroke:#a7abae; stroke-linecap:round; stroke-linejoin:round; stroke-width:.5px;"/><path d="m257.46,84.568c-1.378-3.787,12.764-12.137,73.449-27.82,30.202-7.805,67.202-15.061,96.752-20.382" style="fill:none; stroke:#a7abae; stroke-linecap:round; stroke-linejoin:round;"/><line x1="323.063" y1="78.497" x2="328.73" y2="77.498" style="fill:none; stroke:#a7abae; stroke-linecap:round; stroke-linejoin:round; stroke-width:.5px;"/><path d="m289.694,73.881c19.308-5.561,58.658-15.215,93.916-20.777" style="fill:none; stroke:#a7abae; stroke-linecap:round; stroke-linejoin:round; stroke-width:.5px;"/><path d="m289.694,70.732c19.308-5.561,58.658-15.374,93.916-20.935" style="fill:none; stroke:#a7abae; stroke-linecap:round; stroke-linejoin:round; stroke-width:.5px;"/><path d="m402.786,113.648c-19.806-15.213-18.757-56.452-19.176-66.841l3.466-.733" style="fill:none; stroke:#a7abae; stroke-linecap:round; stroke-linejoin:round; stroke-width:.5px;"/><path d="m369.864,69.054c3.673-.21,4.092.735,3.987,3.148s.027,17.683.014,19.992.511,4.092,4.498,4.302c2.281.12,4.496.103,5.973.066.986-.025,1.798.767,1.798,1.754v5.378c0,.976-.797,1.764-1.772,1.754l-39.158-.402s-1.855.315-2.396-1.889" style="fill:none; stroke:#a7abae; stroke-linecap:round; stroke-linejoin:round;"/><path d="m373.443,69.831l-18.558-4.156c-2.365-.53-4.836-.592-7.223-.171-4.37.772-9.303,1.602-13.463,2.317-1.182.203-2.049,1.228-2.049,2.427v.158" style="fill:none; stroke:#a7abae; stroke-linecap:round; stroke-linejoin:round;"/><polyline points="329.305 97.595 327.366 97.883 327.366 101.688 366.296 105.262" style="fill:none; stroke:#a7abae; stroke-linecap:round; stroke-linejoin:round;"/><path d="m327.366,101.688l31.908-1.391c1.891-.086,3.786-.028,5.669.172l21.191,2.373" style="fill:none; stroke:#a7abae; stroke-linecap:round; stroke-linejoin:round; stroke-width:.5px;"/><polygon points="366.377 51.729 364.407 50.324 374.633 48.281 375.761 49.971 366.377 51.729" style="fill:none; stroke:#a7abae; stroke-linecap:round; stroke-linejoin:round; stroke-width:.5px;"/><polygon points="347.79 55.528 339.666 57.323 336.988 56.425 345.16 54.555 347.79 55.528" style="fill:none; stroke:#a7abae; stroke-linecap:round; stroke-linejoin:round; stroke-width:.5px;"/><polygon points="325.811 60.619 319.003 62.253 316.698 61.545 323.546 59.851 325.811 60.619" style="fill:none; stroke:#a7abae; stroke-linecap:round; stroke-linejoin:round; stroke-width:.5px;"/><polygon points="308.96 64.66 302.793 66.325 300.822 65.803 307.02 64.085 308.96 64.66" style="fill:none; stroke:#a7abae; stroke-linecap:round; stroke-linejoin:round; stroke-width:.5px;"/><polygon points="295.792 68.335 290.27 69.872 288.693 69.454 294.24 67.875 295.792 68.335" style="fill:none; stroke:#a7abae; stroke-linecap:round; stroke-linejoin:round; stroke-width:.5px;"/><path d="m344.919,98.46c-1.095.307-3.729.299-5.185.325-5.098.091-5.473.04-7.155-.034s-4.67-.562-4.539-5.036c0,0,.446-16.042.689-18.466s.657-4.256,4.861-5" style="fill:none; stroke:#a7abae; stroke-linecap:round; stroke-linejoin:round;"/><path d="m329.726,93.139l.942-18.069c.029-.559.447-1.021,1.001-1.106l9.359-1.437c.61-.094,1.153.391,1.13,1.008l-.724,19.074c-.023.614-.514,1.108-1.128,1.135l-9.555.427c-.579.026-1.055-.453-1.024-1.032Z" style="fill:none; stroke:#a7abae; stroke-linecap:round; stroke-linejoin:round; stroke-width:.5px;"/><line x1="330.972" y1="74.339" x2="342.036" y2="76.733" style="fill:none; stroke:#a7abae; stroke-linecap:round; stroke-linejoin:round; stroke-width:.5px;"/><line x1="361.677" y1="96.056" x2="361.677" y2="99.672" style="fill:none; stroke:#a7abae; stroke-linecap:round; stroke-linejoin:round; stroke-width:.5px;"/><path d="m336.061,115.86c9.7.716,32.211,2.242,50.074,3.442,0,0,1.653-.33.574-1.81s-1.477-2.048-1.477-2.048l.904-1.591,14.609.284s1.237.244,1.243-1.128" style="fill:none; stroke:#a7abae; stroke-linecap:round; stroke-linejoin:round; stroke-width:.5px;"/><path d="m385.231,115.445s14.495.644,16.257.587,2.633-.707,2.709-1.632" style="fill:none; stroke:#a7abae; stroke-linecap:round; stroke-linejoin:round; stroke-width:.5px;"/><ellipse cx="392.561" cy="118.513" rx=".79" ry="3.352" transform="translate(130.398 433.823) rotate(-67.057)" style="fill:none; stroke:#a7abae; stroke-linecap:round; stroke-linejoin:round; stroke-width:.5px;"/><path d="m326.579,116.111l-2.68-2.529c-.172-.153-.2-.412-.064-.598l.633-.863c.098-.134.262-.202.426-.178l5.212.774,5.954,3.144-1.285,1.549" style="fill:none; stroke:#a7abae; stroke-linecap:round; stroke-linejoin:round; stroke-width:.5px;"/><polyline points="323.595 113.312 329.418 114.22 334.776 117.41" style="fill:none; stroke:#a7abae; stroke-linecap:round; stroke-linejoin:round; stroke-width:.5px;"/><ellipse cx="328.197" cy="115.409" rx=".376" ry="1.528" transform="translate(93.854 372.539) rotate(-67.029)" style="fill:none; stroke:#a7abae; stroke-linecap:round; stroke-linejoin:round; stroke-width:.5px;"/><path d="m390.166,94.948c-8.203-5.065-7.838-14.231-7.838-14.904,0-3.506.884-6.749,2.383-9.392" style="fill:none; stroke:#a7abae; stroke-linecap:round; stroke-linejoin:round; stroke-width:.5px;"/><path d="m624.059,158.322c-17.65-3.189-37.383-6.813-41.759-7.852-8.288-1.967-38.348-12.221-55.063-20.508-16.716-8.288-38.067-20.227-40.736-25.144-2.669-4.916-9.271-21.492-10.676-26.267-1.405-4.776-3.231-8.288-3.09-11.659s1.545-9.411,1.967-10.956,8.428-11.237,9.692-12.502c0,0-2.811-20.667-1.711-40.578" style="fill:none; stroke:#a7abae; stroke-linecap:round; stroke-linejoin:round; stroke-width:1.5px;"/><path d="m527.236,129.962c24.911,4.45,72.793,11.909,113.352,18.145" style="fill:none; stroke:#a7abae; stroke-linecap:round; stroke-linejoin:round; stroke-width:.5px;"/><path d="m476.247,79.881c3.917-7.664,23.445-17.428,80.927-34.226,28.741-8.399,62.718-16.562,90.284-22.769" style="fill:none; stroke:#a7abae; stroke-linecap:round; stroke-linejoin:round; stroke-width:.5px;"/><path d="m475.136,76.378c.303-5.001-2.531-9.306,18.886-22.324,0,0,1.785-1.785,4.934.63,3.15,2.415,5.039,3.57,7.559,2.415s35.696-16.798,91.55-31.707c0,0,6.059-1.785,8.121-5.039s6.341-9.029,7.561-11.339,4.947-5.669,9.593-6.929" style="fill:none; stroke:#a7abae; stroke-linecap:round; stroke-linejoin:round; stroke-width:.5px;"/><path d="m484.394,43.434c13.819-12.443,39.262-27.802,62.51-40.202" style="fill:none; stroke:#a7abae; stroke-linecap:round; stroke-linejoin:round; stroke-width:1.5px;"/><path d="m473.041,69.845c-1.171-7.287,15.522-26.71,74.316-51.382,14.609-6.131,28.259-11.73,40.695-16.717" style="fill:none; stroke:#a7abae; stroke-linecap:round; stroke-linejoin:round; stroke-width:.5px;"/><path d="m500.255,71.749l.747,1.953c15.3,39.994,43.483,46.399,49.281,46.965,5.897.575,79.542,5.466,79.542,5.466,5.858.262,6.05-1.278,2.779-4.068s-26.313-14.02-25.009-77.986" style="fill:none; stroke:#a7abae; stroke-linecap:round; stroke-linejoin:round;"/><path d="m505.846,69.831c11.339,29.594,28.462,40.249,38.742,43.933" style="fill:none; stroke:#a7abae; stroke-linecap:round; stroke-linejoin:round; stroke-width:.5px;"/><path d="m503.785,70.524c11.494,29.999,28.583,40.407,38.98,44.204,4.694,1.714,7.891,2.332,11.789,2.628,7.841.597,32.899,2.448,52.428,3.62,7.255.435,21.032,1.684,25.621,1.088" style="fill:none; stroke:#a7abae; stroke-linecap:round; stroke-linejoin:round; stroke-width:.5px;"/><path d="m477.943,84.568c-1.378-3.787,12.764-12.137,73.449-27.82,30.202-7.805,67.202-15.061,96.752-20.382" style="fill:none; stroke:#a7abae; stroke-linecap:round; stroke-linejoin:round;"/><path d="m505.846,69.831l4.332.902v3.148l33.369,4.617s4.128,26.423,6.122,34.083" style="fill:none; stroke:#a7abae; stroke-linecap:round; stroke-linejoin:round; stroke-width:.5px;"/><line x1="543.546" y1="78.497" x2="549.213" y2="77.498" style="fill:none; stroke:#a7abae; stroke-linecap:round; stroke-linejoin:round; stroke-width:.5px;"/><path d="m510.177,73.881c19.308-5.561,58.658-15.215,93.916-20.777" style="fill:none; stroke:#a7abae; stroke-linecap:round; stroke-linejoin:round; stroke-width:.5px;"/><path d="m510.177,70.732c19.308-5.561,58.658-15.374,93.916-20.935" style="fill:none; stroke:#a7abae; stroke-linecap:round; stroke-linejoin:round; stroke-width:.5px;"/><path d="m623.269,113.648c-19.806-15.213-18.757-56.452-19.176-66.841l3.466-.733" style="fill:none; stroke:#a7abae; stroke-linecap:round; stroke-linejoin:round; stroke-width:.5px;"/><path d="m590.347,69.054c3.673-.21,4.092.735,3.987,3.148s.027,18.468.014,20.777.511,4.092,4.498,4.302c2.281.12,4.496.103,5.973.066.986-.025,1.798.767,1.798,1.754v4.592c0,.976-.797,1.764-1.772,1.754l-39.158-.402s-1.855.315-2.396-1.889" style="fill:none; stroke:#a7abae; stroke-linecap:round; stroke-linejoin:round;"/><path d="m593.926,69.831l-18.558-4.156c-2.365-.53-4.836-.592-7.223-.171-4.37.772-9.303,1.602-13.463,2.317-1.182.203-2.049,1.228-2.049,2.427v.158" style="fill:none; stroke:#a7abae; stroke-linecap:round; stroke-linejoin:round;"/><path d="m569.638,65.518c2.555.912,3.919,4.789,3.709,11.98-.21,7.191-.525,18.733-.525,18.733l8.614-.49c.851-.014,1.702.013,2.55.081l22.137,2.061" style="fill:none; stroke:#a7abae; stroke-linecap:round; stroke-linejoin:round; stroke-width:.5px;"/><polyline points="549.788 97.595 547.849 97.883 547.849 101.688 586.779 105.262" style="fill:none; stroke:#a7abae; stroke-linecap:round; stroke-linejoin:round;"/><path d="m547.849,101.688l31.908-1.391c1.891-.086,3.786-.028,5.669.172l21.191,2.373" style="fill:none; stroke:#a7abae; stroke-linecap:round; stroke-linejoin:round; stroke-width:.5px;"/><polygon points="586.86 51.729 584.89 50.324 595.116 48.281 596.244 49.971 586.86 51.729" style="fill:none; stroke:#a7abae; stroke-linecap:round; stroke-linejoin:round; stroke-width:.5px;"/><polygon points="568.273 55.528 560.149 57.323 557.471 56.425 565.643 54.555 568.273 55.528" style="fill:none; stroke:#a7abae; stroke-linecap:round; stroke-linejoin:round; stroke-width:.5px;"/><polygon points="546.294 60.619 539.486 62.253 537.181 61.545 544.029 59.851 546.294 60.619" style="fill:none; stroke:#a7abae; stroke-linecap:round; stroke-linejoin:round; stroke-width:.5px;"/><polygon points="529.443 64.66 523.276 66.325 521.305 65.803 527.503 64.085 529.443 64.66" style="fill:none; stroke:#a7abae; stroke-linecap:round; stroke-linejoin:round; stroke-width:.5px;"/><polygon points="516.275 68.335 510.753 69.872 509.176 69.454 514.723 67.875 516.275 68.335" style="fill:none; stroke:#a7abae; stroke-linecap:round; stroke-linejoin:round; stroke-width:.5px;"/><path d="m548.524,93.715s.446-16.042.689-18.466.657-4.256,4.861-5c5.862-1.036,9-1.292,10.243-1.224s5.545.441,5.322,4.607c-.223,4.166-.97,19.586-1.156,21.327-.133,1.244-.34,2.734-3.081,3.502-1.095.307-3.733.557-5.189.54-5.098-.062-5.472-.124-7.15-.249s-4.67-.562-4.539-5.036Z" style="fill:none; stroke:#a7abae; stroke-linecap:round; stroke-linejoin:round;"/><path d="m558.54,98.556c2.716,0,5.194-1.144,5.432-5.623.238-4.479.572-18.061.572-19.3s-.095-3.765-3.288-3.336c-3.193.429-8.53,1.287-8.53,1.287,0,0-2.674.281-3.093,3.097" style="fill:none; stroke:#a7abae; stroke-linecap:round; stroke-linejoin:round; stroke-width:.5px;"/><path d="m550.209,93.139l.942-18.069c.029-.559.447-1.021,1.001-1.106l9.359-1.437c.61-.094,1.153.391,1.13,1.008l-.724,19.074c-.023.614-.514,1.108-1.128,1.135l-9.555.427c-.579.026-1.055-.453-1.024-1.032Z" style="fill:none; stroke:#a7abae; stroke-linecap:round; stroke-linejoin:round; stroke-width:.5px;"/><line x1="551.455" y1="74.339" x2="562.519" y2="76.733" style="fill:none; stroke:#a7abae; stroke-linecap:round; stroke-linejoin:round; stroke-width:.5px;"/><ellipse cx="578.849" cy="84.402" rx="3.408" ry="4.171" transform="translate(-1.841 13.772) rotate(-1.361)" style="fill:none; stroke:#a7abae; stroke-linecap:round; stroke-linejoin:round; stroke-width:.5px;"/><line x1="582.16" y1="96.056" x2="582.16" y2="99.672" style="fill:none; stroke:#a7abae; stroke-linecap:round; stroke-linejoin:round; stroke-width:.5px;"/><path d="m556.544,115.86c9.7.716,32.211,2.242,50.074,3.442,0,0,1.653-.33.574-1.81s-1.477-2.048-1.477-2.048l.904-1.591,14.609.284s1.237.244,1.243-1.128" style="fill:none; stroke:#a7abae; stroke-linecap:round; stroke-linejoin:round; stroke-width:.5px;"/><path d="m605.714,115.445s14.495.644,16.257.587,2.633-.707,2.709-1.632" style="fill:none; stroke:#a7abae; stroke-linecap:round; stroke-linejoin:round; stroke-width:.5px;"/><ellipse cx="613.044" cy="118.513" rx=".79" ry="3.352" transform="translate(264.934 636.864) rotate(-67.057)" style="fill:none; stroke:#a7abae; stroke-linecap:round; stroke-linejoin:round; stroke-width:.5px;"/><path d="m547.062,116.111l-2.68-2.529c-.172-.153-.2-.412-.064-.598l.633-.863c.098-.134.262-.202.426-.178l5.212.774,5.954,3.144-1.285,1.549" style="fill:none; stroke:#a7abae; stroke-linecap:round; stroke-linejoin:round; stroke-width:.5px;"/><polyline points="544.078 113.312 549.901 114.22 555.259 117.41" style="fill:none; stroke:#a7abae; stroke-linecap:round; stroke-linejoin:round; stroke-width:.5px;"/><ellipse cx="548.68" cy="115.409" rx=".376" ry="1.528" transform="translate(228.288 575.537) rotate(-67.029)" style="fill:none; stroke:#a7abae; stroke-linecap:round; stroke-linejoin:round; stroke-width:.5px;"/><path d="m610.649,94.948c-8.203-5.065-7.838-14.231-7.838-14.904,0-3.506.884-6.749,2.383-9.392" style="fill:none; stroke:#a7abae; stroke-linecap:round; stroke-linejoin:round; stroke-width:.5px;"/><path d="m551.151,75.07c-.115-.358.001-.816.318-1.125.154-.157.354-.283.578-.347.192-.056.344-.112.52-.152.68-.189,1.373-.295,2.065-.414l4.15-.693,2.075-.347.519-.084c.231-.044.567-.033.828.069.547.189.969.691,1.055,1.27.04.335.007.468.009.647l-.018.526-.036,1.051-.071,2.102-.391,8.405-.224,4.202c-.04.7-.061,1.401-.148,2.099-.028.288-.104.871-.453,1.163-.313.318-.782.428-1.139.301.345-.158.557-.406.655-.658.112-.272.053-.438.035-.84-.034-.703-.002-1.403.012-2.105l.096-4.206.247-8.411.164-4.081c-.013-.118-.105-.232-.222-.273-.068-.022-.094-.03-.208-.013l-.52.075-2.083.292-4.167.584c-.695.095-1.388.201-2.094.225-.17.014-.365.008-.519.011-.121,0-.252.013-.379.065-.257.098-.503.319-.654.662Z" style="fill:#a7abae; stroke-width:0px;"/><line x1="580.985" y1="85.855" x2="580.804" y2="85.871" style="fill:none; stroke:#000001; stroke-linecap:round; stroke-linejoin:round; stroke-width:.5px;"/><path d="m355.52,82.073c.031-.002.059-.005.09-.005,1.072-.027,1.968,1.018,1.999,2.329.031,1.314-.813,2.397-1.886,2.424-.039,0-.077.001-.113-.001" style="fill:none; stroke:#a7abae; stroke-linecap:round; stroke-linejoin:round; stroke-width:.5px;"/></g><g id="uuid-40a7f006-f379-43e2-8ea0-8f3247fc055a"><path d="m234.329,128.447c9.601-3.124,16.828-6.307,30.688-15.555,14.992-10.002,19.311-18.642,34.515-26.728,6.497-3.453,14.53-3.253,18.709-6.006,8.988-5.921,12.873-6.204,23.414-6.143,7.066,0,27.354-5.506,27.354,10.306,0,13.196-16.992,8.34-27.926,8.34-2.159,0-3.872,3.399-5.438,6.078-5.339,9.126-19.638,8.609-22.776,11.528-3.149,2.917-5.322,9.159-12.917,14.778-7.592,5.608-17.872,16.528-26.363,22.522-6.139,4.33-7.531,5.549-21.599,10.502-1.992.701-3.771,1.395-5.402,2.072l-6.782-10.38c1.603-.764,3.355-1.576,5.314-2.439,2.402-1.056,4.44-1.931,6.191-2.692,8.113-3.508,9.584-4.143,14.022-7.272,4.207-2.979,9.258-7.512,14.133-11.891,4.51-4.063,9.929-6.951,13.751-9.733,6.168-4.49,5.674-9.397,10.533-13.486,6.067-5.106,9.469-2.376,15.211-3.942,5.661-1.544,4.821-1.601,6.72-3.85,4.22-4.998,5.552-5.67,18.414-5.198,5.22.192,9.499.708,10.78-1.436,1.605-2.687,2.042-5.434-1.124-7.097-4.28.424-8.783,2.12-11.944,2.12-4.016,0-9.187-.238-12.31,2.236-2.245,1.259-4.197,4.2-8.858,6.039-2.375.942-9.136,1.058-11.887,2.536-7.633,4.096-12.196,8.313-17.476,13.199-4.378,4.031-9.33,8.613-16.483,13.421-5.583,3.763-9.115,6.688-12.239,9.264-5.087,4.21-10.209,5.604-18.177,8.154-1.452.461-3.05,1.096-4.653,1.79l-5.395-11.035Z" style="fill:url(#uuid-f7bed41d-ca4f-4dbe-89b7-bf9d8cb121a6); stroke-width:0px;"/><path d="m339.437,89.089c-.538.177-.845-.052-1.042-.315-.216-.257-.402-.538-.559-.834-.327-.59-.471-1.261-.525-1.923-.017-.661.062-1.338.312-1.959.121-.311.273-.609.455-.888.172-.273.372-.593.969-.46.199.568.053.73-.065.971-.108.235-.19.48-.248.731-.109.503-.166,1.017-.116,1.533.011.514.138,1.012.306,1.494.09.239.204.469.341.684.156.209.255.414.171.967Z" style="fill:#a7abae; stroke-width:0px;"/><path d="m234.329,128.447c2.262-1.316,4.61-2.289,6.95-3.272,2.35-.956,4.661-1.998,6.924-3.147,4.529-2.288,8.874-4.953,13.145-7.732,4.307-2.757,8.4-5.712,12.267-9.015,3.879-3.276,7.497-6.884,11.413-10.246,3.907-3.368,8.141-6.429,12.682-8.92,2.212-1.32,4.766-2.363,7.265-3.022,2.514-.708,5.056-1.161,7.502-1.752,1.22-.299,2.428-.611,3.54-1.063.553-.228,1.087-.481,1.575-.782.519-.31,1.084-.683,1.624-1.022,2.194-1.37,4.502-2.63,6.985-3.552,2.48-.926,5.13-1.4,7.724-1.559,2.602-.167,5.174-.13,7.734-.097l-.009,1.5c-5.093.049-10.237-.046-14.854,1.754-2.309.883-4.506,2.103-6.634,3.462-.54.346-1.038.684-1.613,1.037-.598.377-1.22.677-1.846.942-1.256.521-2.53.865-3.792,1.172-5.048,1.171-10.021,1.958-14.293,4.607-4.43,2.439-8.527,5.407-12.364,8.72-3.829,3.322-7.525,6.885-11.48,10.193-3.939,3.316-8.184,6.327-12.515,9.051-4.323,2.765-8.735,5.425-13.358,7.716-4.635,2.225-9.368,4.468-14.571,5.026Z" style="fill:#000001; stroke-width:0px;"/><path d="m341.083,93.411c-.787.006-1.652.847-2.326,1.769-.689.944-1.287,2.006-1.895,3.082-.293.537-.618,1.084-1.008,1.628-.364.549-.73,1.097-1.199,1.561-.44.488-.872.985-1.391,1.384-.497.424-.986.861-1.539,1.201-4.311,2.968-9.41,4.043-14.129,5.28-1.164.322-2.368.638-3.319,1.134-.853.395-1.62,1.348-2.339,2.289-1.425,1.932-2.753,4.086-4.322,6.07-1.543,2.007-3.316,3.861-5.255,5.509-.968.828-2.008,1.588-2.954,2.323-.963.751-1.912,1.529-2.848,2.326-3.74,3.198-7.377,6.566-11.073,9.883-3.702,3.31-7.452,6.607-11.56,9.507-2.027,1.411-4.057,2.891-6.278,4.129-2.211,1.247-4.53,2.233-6.847,3.155-2.322.916-4.662,1.754-7.004,2.581-2.362.797-4.655,1.598-7.21,1.917,1.037-.733,2.14-1.334,3.265-1.883.561-.28,1.134-.529,1.704-.786.579-.23,1.153-.453,1.735-.664,2.326-.842,4.647-1.696,6.93-2.617,2.279-.928,4.526-1.908,6.626-3.115,2.105-1.193,4.08-2.655,6.108-4.091,7.941-5.76,14.787-12.999,22.387-19.451.951-.809,1.922-1.601,2.914-2.373,1.013-.783,1.978-1.487,2.894-2.269,1.839-1.561,3.515-3.305,4.996-5.227,1.512-1.904,2.791-3.981,4.309-6.038.389-.512.798-1.02,1.256-1.507.258-.237.426-.485.769-.709.31-.219.63-.479.941-.598,1.259-.641,2.482-.935,3.7-1.277,2.428-.631,4.824-1.154,7.137-1.9,2.308-.739,4.545-1.673,6.499-3.002.512-.304.949-.694,1.399-1.069.474-.353.857-.793,1.252-1.221.425-.406.748-.889,1.074-1.371.341-.459.657-.972.963-1.521.628-1.07,1.267-2.164,2.058-3.211.404-.52.847-1.033,1.412-1.483.554-.441,1.3-.843,2.165-.844v1.5Z" style="fill:#000001; stroke-width:0px;"/><path d="m239.712,149.76c2.331-1.715,4.867-3.068,7.473-4.197l7.806-3.432c2.596-1.156,5.132-2.321,7.448-3.864,2.349-1.537,4.581-3.237,6.752-5.046,2.169-1.808,4.31-3.665,6.428-5.554l3.175-2.84c1.081-.971,2.214-1.878,3.371-2.738,2.316-1.722,4.741-3.253,7.121-4.791,1.185-.772,2.376-1.538,3.483-2.364,1.101-.804,2.085-1.738,2.95-2.775,1.762-2.06,2.799-4.679,4.428-7.173.821-1.236,1.825-2.388,2.974-3.353,1.141-.934,2.375-1.797,3.764-2.42,1.383-.632,2.916-.961,4.397-1.055,1.482-.092,2.898-.029,4.265-.118,1.373-.08,2.682-.315,3.987-.759,1.299-.416,2.549-.95,3.63-1.714,1.095-.755,1.977-1.744,2.944-2.829.958-1.084,2.175-2.156,3.588-2.766,1.407-.636,2.849-.965,4.277-1.233,1.437-.261,2.883-.409,4.326-.509,2.887-.199,5.765-.104,8.604.043,1.418.069,2.832.185,4.214.204.69.016,1.374.052,2.029.041.333-.006.642-.03.935-.103.292-.066.553-.225.698-.595.164.357-.026.866-.357,1.142-.321.28-.699.482-1.065.597-.741.261-1.484.357-2.214.402-1.461.063-2.888.03-4.311-.013-2.84-.097-5.653-.226-8.447-.115-1.396.053-2.784.187-4.148.414-1.365.23-2.723.538-3.904,1.092-1.208.533-2.174,1.384-3.095,2.423-.916,1.036-1.935,2.198-3.187,3.066-1.243.884-2.638,1.482-4.038,1.936-1.386.48-2.899.76-4.363.847-1.471.099-2.903.042-4.259.135-1.354.095-2.641.381-3.846.934-1.206.546-2.321,1.327-3.374,2.196-1.026.87-1.905,1.885-2.654,3.019-1.482,2.26-2.566,5.025-4.503,7.331-.95,1.149-2.041,2.189-3.233,3.067-1.17.877-2.368,1.657-3.564,2.438-2.393,1.55-4.779,3.061-7.025,4.736-1.123.836-2.211,1.71-3.245,2.64l-3.179,2.85c-2.129,1.891-4.264,3.785-6.487,5.589-2.212,1.813-4.525,3.545-6.949,5.102-2.438,1.594-5.104,2.79-7.707,3.923l-7.838,3.369c-2.631,1.09-5.231,2.18-8.075,2.82Z" style="fill:#000001; stroke-width:0px;"/><path d="m341.608,89.876c-2.408-.003-4.755,1.056-6.452,2.774-.879.858-1.518,1.847-2.192,2.943-.701,1.1-1.571,2.088-2.554,2.936-1.973,1.704-4.342,2.835-6.753,3.658-2.42.826-4.911,1.35-7.376,1.857-1.231.257-2.462.504-3.647.836-.591.166-1.169.362-1.694.614-.541.242-.914.582-1.334,1.04-1.579,1.809-2.623,4.168-4.035,6.283-1.379,2.142-3.012,4.158-4.922,5.866-.937.862-1.982,1.65-2.965,2.406-.996.752-1.969,1.543-2.934,2.342-7.722,6.414-14.821,13.627-23.022,19.6-2.055,1.467-4.184,2.869-6.443,4.042-2.256,1.173-4.578,2.165-6.887,3.172l-6.936,2.991c-2.314.997-4.619,1.978-7.036,2.76,4.321-2.662,9.061-4.435,13.65-6.492,2.302-1.014,4.611-2.013,6.82-3.174,2.209-1.158,4.292-2.541,6.327-4.007,8.082-5.935,15.152-13.169,22.893-19.656,1.911-1.659,4.044-3.083,5.87-4.717,1.849-1.647,3.421-3.577,4.771-5.662,1.392-2.06,2.4-4.388,4.143-6.396.248-.236.43-.482.733-.708.283-.232.589-.401.893-.547.611-.291,1.232-.496,1.852-.67,1.241-.344,2.482-.59,3.716-.845,2.466-.501,4.916-1.013,7.268-1.811,2.343-.793,4.606-1.877,6.458-3.471.924-.794,1.736-1.713,2.39-2.735.644-1.045,1.383-2.188,2.319-3.09,1.841-1.859,4.428-3.031,7.08-3.019v.876Z" style="fill:#000001; stroke-width:0px;"/><path d="m237.371,135.196c2.736-1.133,5.539-2.031,8.289-3.082,2.787-.974,5.599-1.845,8.32-2.923,2.715-1.08,5.359-2.357,7.693-4.074,2.324-1.711,4.25-3.963,6.385-6.016,2.11-2.077,4.397-4.019,6.876-5.664l7.33-4.936c2.426-1.662,4.821-3.364,7.083-5.216,2.284-1.827,4.287-3.944,6.376-6.048,2.088-2.089,4.291-4.14,6.862-5.721,2.55-1.589,5.496-2.653,8.528-2.829,1.544-.081,2.938,0,4.363-.263,1.411-.229,2.785-.651,4.052-1.296,1.277-.643,2.398-1.511,3.509-2.479,1.148-.955,2.325-1.891,3.63-2.647,2.551-1.59,5.561-2.527,8.579-2.602,1.506-.056,3,.071,4.459.169,1.457.105,2.886.079,4.339-.083,2.901-.3,5.775-.924,8.692-1.431,1.448-.246,2.982-.495,4.53-.249.767.125,1.555.355,2.236.859.338.255.626.595.829.985.199.396.27.833.285,1.256h-.839c-.003-.632-.276-1.191-.785-1.568-.508-.376-1.175-.586-1.855-.692-1.383-.218-2.811.006-4.255.257-2.887.508-5.781,1.146-8.747,1.461-1.475.17-3.004.201-4.487.097-1.479-.096-2.93-.214-4.371-.157-2.879.082-5.685.962-8.134,2.492-1.247.725-2.385,1.635-3.497,2.564-1.105.97-2.327,1.927-3.688,2.613-1.359.697-2.833,1.152-4.329,1.398-1.484.28-3.057.203-4.451.284-2.866.175-5.632,1.179-8.073,2.705-2.454,1.524-4.612,3.507-6.688,5.575-2.066,2.071-4.132,4.241-6.462,6.094-2.304,1.876-4.724,3.584-7.163,5.246l-7.349,4.92c-2.439,1.61-4.67,3.493-6.764,5.543-2.115,2.019-4.052,4.284-6.492,6.075-2.427,1.775-5.141,3.073-7.898,4.16-5.551,2.078-11.162,3.867-16.918,5.223Z" style="fill:#000001; stroke-width:0px;"/><path d="m306.569,109.531c.068-.629.361-1.092.563-1.615.204-.518.39-1.042.544-1.582.177-.533.316-1.085.52-1.641.099-.276.226-.56.414-.807.191-.247.476-.423.768-.49-.362.485-.569.911-.734,1.448-.156.527-.263,1.091-.409,1.652-.163.556-.358,1.11-.614,1.636-.244.528-.528,1.053-1.051,1.399Z" style="fill:#000001; stroke-width:0px;"/><ellipse cx="358.366" cy="84.402" rx="3.408" ry="4.171" transform="translate(-1.904 8.536) rotate(-1.361)" style="fill:none; stroke:#a7abae; stroke-linecap:round; stroke-linejoin:round; stroke-width:.5px;"/><path d="m356.949,80.593c1.214.618,2.086,2.065,2.124,3.769.04,1.727-.78,3.23-1.987,3.89" style="fill:none; stroke:#a7abae; stroke-linecap:round; stroke-linejoin:round; stroke-width:.5px;"/><path d="m277.674,135.556c-.865.891-1.835,1.576-2.69,2.412-.855.832-1.587,1.768-2.27,2.761-.702.976-1.403,2.01-2.322,2.852-.9.854-1.962,1.534-3.135,1.904.972-.754,1.961-1.409,2.807-2.243.852-.827,1.494-1.837,2.175-2.845.692-1.001,1.461-1.987,2.378-2.815.905-.835,1.9-1.583,3.058-2.026Z" style="fill:#000001; stroke-width:0px;"/><path d="m341.414,79.647c-.965.086-1.936-.072-2.88-.246-.948-.173-1.877-.409-2.808-.612-1.856-.411-3.72-.815-5.638-.588.915-.32,1.91-.38,2.878-.329.973.046,1.929.224,2.87.43.939.217,1.866.466,2.785.726.922.25,1.839.498,2.794.619Z" style="fill:#000001; stroke-width:0px;"/><path d="m562.12,73.089l-.59,19.69c-1.84,1.15-3.83,3.01-5.39,5.69-5.34,9.13-19.64,8.87-22.78,11.79-3.15,2.92-5.32,9.16-12.92,14.78-7.59,5.61-17.87,16.53-26.36,22.52-6.14,4.33-7.53,5.55-21.6,10.5-1.72.6-3.28,1.2-4.72,1.79l-4.69-11.39c.81-.37,1.65-.75,2.54-1.14,2.4-1.06,4.44-1.93,6.19-2.69,8.11-3.51,9.59-4.15,14.02-7.28,4.21-2.98,9.26-7.51,14.14-11.89,4.51-4.06,9.95-6.92,13.75-9.73,6.35-4.7,5.99-9.26,10.53-13.49,5.11-4.74,16.44-3.49,20.85-11.03,1.52-2.58,3.17-4.59,4.9-6.13-2.54,1.77-4.19,4.2-8.86,6.04-2.38.94-9.14,1.05-11.89,2.53-7.63,4.1-12.19,8.31-17.47,13.2-4.38,4.03-9.33,8.61-16.49,13.42-5.58,3.76-9.11,6.69-12.24,9.26-5.08,4.21-10.2,5.61-18.17,8.16-1.66.53-3.53,1.29-5.38,2.11l-4.68-11.36c9.61-3.12,16.84-6.31,30.7-15.55,14.99-10,18.411-20.624,34.51-26.73,7.552-2.855,14.148-3.533,19.067-5.56,7.698-3.171,12.844-7.016,23.032-7.511Z" style="fill:url(#uuid-950a628b-5d28-4e69-86e3-0513f54a0e5e); stroke-width:0px;"/><path d="m454.812,128.447c4.682-2.134,9.335-4.114,13.865-6.386,4.528-2.277,8.873-4.93,13.144-7.698,2.134-1.399,4.272-2.772,6.275-4.297,2.016-1.52,3.954-3.142,5.814-4.86,3.739-3.414,7.144-7.227,10.991-10.69,3.825-3.477,8.239-6.415,13.039-8.42,4.788-2.043,9.843-3.24,14.776-4.466,2.477-.63,4.862-1.284,7.165-2.299,2.336-.97,4.64-2.065,7.02-3.068,2.384-.994,4.864-1.881,7.441-2.4,2.57-.538,5.196-.764,7.8-.75l-.01,1.805c-2.503-.021-4.995.189-7.427.691-2.438.483-4.794,1.317-7.124,2.28-2.33.974-4.645,2.066-7.03,3.049-2.381,1.043-4.943,1.741-7.414,2.359-4.974,1.22-9.911,2.381-14.543,4.342-4.642,1.926-8.86,4.715-12.596,8.102-3.755,3.368-7.178,7.189-10.988,10.663-1.894,1.746-3.878,3.407-5.95,4.95-2.07,1.56-4.242,2.94-6.385,4.332-4.312,2.767-8.712,5.428-13.324,7.722-4.592,2.339-9.5,4.043-14.54,5.039Z" style="fill:#000001; stroke-width:0px;"/><path d="m561.566,93.282c-.699-.029-1.579.779-2.252,1.695-.696.928-1.304,1.986-1.923,3.057-.585,1.06-1.334,2.244-2.211,3.201-.877.982-1.877,1.84-2.943,2.58-4.313,2.967-9.387,4.079-14.112,5.348-1.175.326-2.36.665-3.358,1.156-.522.256-.829.498-1.251.951-.399.413-.772.874-1.137,1.349-1.442,1.93-2.767,4.082-4.337,6.06-1.543,2.001-3.308,3.851-5.243,5.491-.962.826-2.004,1.58-2.956,2.318-.969.75-1.923,1.527-2.863,2.324-7.542,6.367-14.455,13.572-22.614,19.439-2.026,1.417-4.051,2.901-6.264,4.143-2.203,1.25-4.518,2.244-6.835,3.168-4.634,1.888-9.448,3.103-14.195,4.58,2.184-1.201,4.497-2.177,6.786-3.122,2.288-.959,4.606-1.828,6.89-2.756,2.282-.93,4.539-1.903,6.648-3.113,2.115-1.194,4.099-2.656,6.131-4.089,7.967-5.766,14.855-12.98,22.446-19.44.95-.81,1.917-1.605,2.907-2.376,1.006-.783,1.975-1.489,2.893-2.283,1.844-1.574,3.517-3.339,4.998-5.273,1.512-1.916,2.785-4.007,4.303-6.059.388-.51.795-1.017,1.255-1.498.411-.469,1.087-1.012,1.692-1.286,1.232-.606,2.451-.942,3.66-1.287,2.417-.664,4.804-1.242,7.108-2.033,2.298-.785,4.524-1.761,6.465-3.119.968-.677,1.86-1.45,2.633-2.322.793-.884,1.38-1.81,1.993-2.92.62-1.077,1.243-2.18,2.033-3.242.401-.528.841-1.052,1.412-1.518.559-.456,1.332-.882,2.241-.886v1.763Z" style="fill:#000001; stroke-width:0px;"/><path d="m460.289,149.76c3.945-2.69,8.282-4.579,12.606-6.431,2.154-.943,4.319-1.869,6.399-2.894,2.083-1.013,4.01-2.25,5.919-3.612,3.779-2.698,7.303-5.818,10.815-8.934,1.768-1.549,3.45-3.177,5.335-4.693,1.871-1.495,3.837-2.844,5.816-4.138,1.974-1.299,3.976-2.538,5.848-3.888,1.85-1.327,3.428-2.929,4.655-4.834,1.245-1.887,2.209-4.069,3.644-6.086.722-1.003,1.537-1.936,2.466-2.778.976-.854,2.072-1.513,3.197-2.021,2.251-1.039,4.571-1.606,6.808-2.287,2.236-.665,4.432-1.381,6.371-2.477.462-.299.939-.583,1.377-.911.399-.366.879-.656,1.218-1.078.364-.398.754-.775,1.03-1.242l.458-.665.471-.77c1.275-2.057,2.803-3.994,4.643-5.632l1.068,1.495c-.827.471-1.636,1.197-2.48,1.924-.846.731-1.733,1.473-2.695,2.127-.96.656-1.985,1.23-3.051,1.701l-.812.337c-.306.109-.61.206-.898.272-.585.149-1.146.244-1.71.34-2.234.356-4.436.566-6.543,1.01-.525.111-1.034.243-1.528.392-.232.089-.484.162-.698.262-.211.096-.428.194-.678.339-.965.523-1.919,1.063-2.855,1.633-3.762,2.258-7.224,4.962-10.514,7.906-3.292,2.941-6.516,6.03-9.92,8.925-3.397,2.902-6.974,5.624-10.692,8.093-3.671,2.465-7.192,5.123-10.613,7.94-1.675,1.409-3.53,2.857-5.52,3.938-1.987,1.117-4.089,1.976-6.198,2.736-2.112.757-4.246,1.398-6.391,1.981l-1.615.417c-.522.172-1.052.318-1.58.478-1.061.307-2.13.604-3.235.846.969-.556,1.973-1.057,2.985-1.547.509-.238,1.014-.493,1.53-.717l1.56-.594c2.089-.764,4.195-1.454,6.267-2.194,2.064-.755,4.085-1.594,5.969-2.665,1.914-1.058,3.574-2.365,5.291-3.819,3.426-2.847,6.991-5.566,10.687-8.072,3.673-2.465,7.167-5.15,10.513-8.035,3.353-2.878,6.535-5.956,9.854-8.951,3.315-2.995,6.872-5.803,10.724-8.138.959-.59,1.936-1.149,2.921-1.689.23-.136.516-.274.81-.408.289-.134.572-.219.859-.328.568-.176,1.134-.324,1.696-.445,2.243-.481,4.471-.701,6.622-1.056.531-.093,1.065-.188,1.556-.316.255-.059.478-.135.696-.211l.725-.305c.964-.432,1.882-.951,2.754-1.552.874-.6,1.692-1.289,2.523-2.013.837-.719,1.675-1.509,2.778-2.152.44-.257,1.005-.108,1.261.332.224.384.139.863-.178,1.149l-.015.013c-1.67,1.507-3.089,3.303-4.305,5.236l-.453.734-.543.789c-.336.547-.79.998-1.225,1.465-.413.493-.954.832-1.428,1.252-.505.375-1.043.696-1.57,1.03-4.363,2.429-9.238,2.955-13.346,4.792-1.023.455-1.958,1.027-2.76,1.719-.816.735-1.564,1.58-2.22,2.485-1.313,1.818-2.278,3.971-3.627,6.016-1.329,2.055-3.119,3.858-5.101,5.262-1.954,1.396-3.964,2.628-5.927,3.91-1.966,1.275-3.891,2.587-5.704,4.025-1.792,1.427-3.508,3.069-5.285,4.616-3.54,3.116-7.091,6.242-10.989,9.005-1.927,1.365-3.98,2.673-6.139,3.712-2.148,1.048-4.318,1.965-6.48,2.902-2.163.928-4.31,1.887-6.51,2.73-2.2.841-4.38,1.699-6.697,2.313Z" style="fill:#000001; stroke-width:0px;"/><path d="m561.725,88.303c-2.452.018-4.655,1.669-6.246,3.615-.408.49-.781,1.012-1.134,1.549l-1.059,1.687c-.774,1.138-1.724,2.148-2.778,3.015-2.115,1.742-4.592,2.922-7.108,3.825-2.523.906-5.118,1.529-7.667,2.176-1.27.329-2.544.659-3.705,1.134-.582.245-1.106.512-1.497.914-.434.433-.839.905-1.197,1.435-1.436,2.106-2.618,4.544-4.213,6.711-1.574,2.186-3.467,4.151-5.597,5.799-2.117,1.612-4.135,3.234-6.137,4.961-3.994,3.43-7.875,7.015-11.861,10.493-3.976,3.477-8.076,6.893-12.581,9.737-2.254,1.437-4.668,2.614-7.085,3.687-2.42,1.079-4.85,2.106-7.274,3.153-2.423,1.049-4.853,2.079-7.244,3.176-2.387,1.109-4.815,2.146-7.333,3.012,4.408-2.99,9.371-4.945,14.19-7.081,2.419-1.058,4.848-2.098,7.247-3.181,2.402-1.08,4.743-2.236,6.939-3.65,4.422-2.82,8.45-6.207,12.403-9.695,3.956-3.483,7.819-7.085,11.822-10.555,1.983-1.74,4.09-3.418,6.179-4.999,2.053-1.58,3.862-3.449,5.381-5.546,1.549-2.088,2.683-4.433,4.223-6.69.384-.563.839-1.1,1.342-1.595.54-.544,1.225-.882,1.854-1.143,1.287-.52,2.58-.845,3.865-1.176,2.569-.646,5.12-1.252,7.573-2.127,2.445-.87,4.809-1.998,6.786-3.619.986-.808,1.865-1.739,2.58-2.784l1.05-1.665c.373-.566.771-1.119,1.208-1.642.866-1.051,1.877-2.01,3.061-2.75,1.174-.745,2.57-1.229,4.014-1.239v1.058Z" style="fill:#000001; stroke-width:0px;"/><path d="m454.812,136.312c2.302-1.223,4.778-2.074,7.213-2.927l7.348-2.473c4.87-1.64,9.793-3.413,13.712-6.654,1.927-1.629,3.656-3.576,5.531-5.382,1.868-1.816,3.851-3.548,6.016-5.036,4.286-2.931,8.644-5.714,12.762-8.798,2.056-1.546,4.023-3.178,5.843-4.978,1.833-1.798,3.608-3.698,5.539-5.466,1.929-1.761,4.023-3.422,6.435-4.588,1.201-.583,2.48-1.029,3.798-1.298.661-.127,1.328-.224,2-.26.66-.047,1.28-.07,1.921-.132,2.539-.229,5.076-.665,7.491-1.424,1.196-.383,2.397-.852,3.354-1.533.444-.338.993-.816,1.485-1.217.502-.422,1.051-.792,1.575-1.19,2.152-1.503,4.576-2.765,7.223-3.257,2.646-.546,5.33-.177,7.843-.125l-.007,1.017c-2.643-.052-5.176-.388-7.636.132-2.458.465-4.738,1.654-6.806,3.108-.504.387-1.03.743-1.517,1.155-.509.419-.932.796-1.513,1.248-1.157.823-2.407,1.294-3.664,1.707-2.522.801-5.116,1.252-7.726,1.498-.647.066-1.32.094-1.95.141-.62.034-1.235.127-1.844.246-1.216.253-2.399.669-3.523,1.219-2.255,1.099-4.263,2.692-6.141,4.42-1.882,1.734-3.637,3.626-5.491,5.458-1.848,1.853-3.89,3.514-5.973,5.073-4.181,3.106-8.565,5.882-12.832,8.777-2.107,1.437-4.044,3.115-5.891,4.897-1.859,1.774-3.581,3.708-5.615,5.418-4.134,3.386-9.187,5.159-14.075,6.791-2.464.789-4.891,1.675-7.391,2.404-2.499.697-5.003,1.292-7.494,2.03Z" style="fill:#000001; stroke-width:0px;"/><path d="m561.79,84.543c-2.085-.061-4.086-.307-6.038-.28-1.937.021-3.856.339-5.321,1.414l-.902-1.199c.892-.691,1.938-1.157,2.994-1.438,1.06-.283,2.132-.397,3.182-.441,2.103-.083,4.143.114,6.11.116l-.026,1.826Z" style="fill:#000001; stroke-width:0px;"/><path d="m527.052,109.531c.068-.629.361-1.092.563-1.615.204-.518.39-1.042.544-1.582.177-.533.316-1.085.52-1.641.099-.276.226-.56.414-.807.191-.247.476-.423.768-.49-.362.485-.569.911-.734,1.448-.156.527-.263,1.091-.409,1.652-.163.556-.358,1.11-.614,1.636-.243.528-.528,1.053-1.051,1.399Z" style="fill:#000001; stroke-width:0px;"/><path d="m498.464,134.703l-2.386,2.977c-.774,1.007-1.511,2.054-2.313,3.063-.822.992-1.711,1.941-2.705,2.774-.987.834-2.087,1.563-3.32,1.968,1.033-.78,2.067-1.485,3.011-2.325.943-.836,1.782-1.784,2.562-2.781.804-.979,1.556-2.012,2.355-3.019.788-1.007,1.653-2.012,2.796-2.657Z" style="fill:#000001; stroke-width:0px;"/><path d="m561.897,80.081c-.929.35-1.969.212-2.917.011-.962-.204-1.884-.525-2.804-.821-.916-.308-1.829-.604-2.756-.836-.927-.221-1.881-.35-2.85-.234.93-.322,1.956-.293,2.924-.143.976.149,1.915.44,2.839.739.921.31,1.829.639,2.742.925.914.269,1.853.502,2.821.36Z" style="fill:#000001; stroke-width:0px;"/><path d="m342.134,74.194c7.066,0,26.874-5.685,26.874,10.127,0,13.196-16.642,8.287-27.575,8.287" style="fill:none; stroke:#000001; stroke-linejoin:round; stroke-width:1.5px;"/><polygon points="362.745 77.046 362.534 90.291 371.516 83.215 362.745 77.046" style="fill:none; stroke:#fff; stroke-linecap:round; stroke-linejoin:round; stroke-width:3px;"/><polygon points="362.745 77.046 371.516 83.215 362.534 90.291 362.745 77.046" style="fill:#f2a900; stroke-width:0px;"/><path d="m341.655,88.082l-2.436.068c-.482-.615-.813-1.647-.829-2.835-.017-1.075.219-2.037.611-2.696l2.823-.269-.168,5.732Z" style="fill:#f2a900; stroke-width:0px;"/><polygon points="341.823 82.35 352.755 81.308 352.573 87.779 341.655 88.082 341.823 82.35" style="fill:#f2a900; stroke-width:0px;"/><polygon points="352.755 81.308 364.147 80.223 364.267 87.052 352.573 87.779 352.755 81.308" style="fill:#f2a900; stroke-width:0px;"/><path d="m356.742,81.203c-2.241.012-4.463.465-6.706.961-2.247.511-4.483,1.171-6.921,1.444-1.269.131-2.423.058-3.574.076-1.153.004-2.296.029-3.419.126-2.228.192-4.464.674-6.09,1.942-.034.027-.077.055-.114.076-.834.48-1.642,1.211-2.483,1.94-.843.734-1.726,1.477-2.684,2.133-.956.658-1.977,1.234-3.04,1.708l-.809.339c-.305.109-.607.207-.894.273-.583.151-1.144.247-1.707.346-2.231.363-4.435.582-6.539,1.032-.524.112-1.033.246-1.526.398-.231.09-.482.163-.696.265-.21.097-.426.195-.675.341-.963.526-1.915,1.07-2.848,1.643-3.752,2.27-7.201,4.984-10.479,7.937-3.282,2.949-6.503,6.042-9.904,8.946-3.394,2.91-6.972,5.642-10.688,8.119-3.674,2.453-7.199,5.1-10.626,7.907-1.676,1.402-3.545,2.855-5.541,3.932-1.995,1.115-4.102,1.97-6.215,2.725-2.118.742-4.244,1.411-6.396,1.972-.534.152-1.077.275-1.616.413-.523.167-1.051.318-1.582.469-1.062.303-2.136.586-3.245.816.964-.568,1.963-1.082,2.975-1.577.506-.247,1.013-.497,1.528-.726.519-.2,1.035-.414,1.559-.599,2.082-.786,4.196-1.449,6.262-2.202,2.061-.759,4.076-1.603,5.953-2.676,1.908-1.062,3.554-2.364,5.27-3.825,3.42-2.857,6.982-5.588,10.675-8.105,3.675-2.457,7.168-5.131,10.517-8.009,3.356-2.87,6.54-5.943,9.87-8.93,3.327-2.985,6.897-5.784,10.759-8.107.961-.587,1.94-1.143,2.928-1.68.23-.135.517-.272.813-.406.29-.134.574-.218.861-.325.569-.174,1.135-.32,1.698-.44,2.245-.473,4.473-.686,6.626-1.034.532-.091,1.066-.184,1.559-.311.255-.058.48-.134.699-.209l.728-.303c.967-.429,1.889-.946,2.765-1.545.878-.598,1.701-1.286,2.534-2.007.839-.717,1.679-1.502,2.775-2.136l-.113.076c2.104-1.613,4.65-2.081,7.014-2.291,1.197-.1,2.384-.123,3.558-.124,1.174-.014,2.354.055,3.403-.065,2.193-.263,4.451-.896,6.756-1.346,2.299-.464,4.723-.807,7.14-.423l-.093,1.047Z" style="fill:#000001; stroke-width:0px;"/><path d="m331.97,73.443c2.758-.516,5.521-.931,8.29-1.288l.519-.067c.144-.013.401-.077.67-.034.522.085.98.465,1.157.977.097.247.087.568.081.7l-.01.524-.02,1.049-.084,4.194c-.068,2.796-.17,5.59-.302,8.383l-.223,4.189c-.045.698-.059,1.397-.131,2.094-.019.283-.101.883-.454,1.177-.325.316-.801.427-1.159.281.34-.178.544-.422.631-.673.107-.266.049-.414.035-.819-.024-.7.011-1.399.014-2.098l.067-4.195c.062-2.796.153-5.59.278-8.384l.205-4.19.053-1.047c.009-.326.057-.785.024-.861-.037-.158-.175-.3-.344-.344-.105-.052-.581.02-.897.032-2.795.206-5.596.353-8.401.4Z" style="fill:#a7abae; stroke-width:0px;"/><path d="m358.267,80.232c-.473.496-.77.675-1.136.886-.343.227-.636.537-.864.894-.446.719-.686,1.585-.653,2.456.005.871.273,1.731.756,2.432.244.348.551.649.907.863.379.213.702.286,1.188.809-.509.546-1.181.365-1.677.107-.522-.254-.974-.628-1.339-1.063-.74-.874-1.093-2.004-1.145-3.117-.005-1.113.281-2.265.982-3.178.343-.456.777-.854,1.288-1.138.486-.3,1.169-.423,1.692.048Z" style="fill:#a7abae; stroke-width:0px;"/></g><g id="uuid-828be207-5526-49f3-844e-41d366fb8a7b"><polygon points="118.574 82.763 107.19 74.73 107.015 78.251 86.522 76.557 86.17 83.639 106.663 85.333 106.488 88.854 118.574 82.763" style="fill:none; stroke:#fff; stroke-linecap:round; stroke-linejoin:round; stroke-width:3px;"/><polygon points="108.646 85.497 86.17 83.638 86.522 76.557 108.997 78.415 108.646 85.497" style="fill:#f2a900; stroke-width:0px;"/><polygon points="107.19 74.73 118.574 82.763 106.488 88.854 107.19 74.73" style="fill:#f2a900; stroke-width:0px;"/><path d="m73.557,88.679c-5.4.32-12.98-1.2-18.3,7.91-5.34,9.13-19.64,8.87-22.78,11.79-3.15,2.92-5.32,9.16-12.92,14.78-4.15,3.07-9.11,7.72-14.13,12.3v-18.68c2.68-1.8,5.29-3.37,7.4-4.93,6.35-4.7,5.99-9.26,10.53-13.49,5.11-4.74,16.44-3.49,20.85-11.03,1.52-2.58,3.17-4.59,4.9-6.13-2.54,1.77-4.845,2.424-8.595,5.754-1.91,1.7-9.405,1.336-12.155,2.816-7.63,4.1-12.19,8.31-17.47,13.2-1.7,1.57-3.49,3.22-5.46,4.93v-16.18c3.79-3.26,7.98-6.39,13.71-9.44,19.26-10.23,26.12-12.51,44.85-13.18,10.19-.37,19.63.63,20.05,7.93.5,8.43-4.63,11.31-10.48,11.65Z" style="fill:url(#uuid-a9aef04b-0c7a-44e4-ac1e-368296badf49); stroke-width:0px;"/><path d="m4.263,92.717c2.563-3.256,5.824-5.844,9.298-8.052,3.47-2.251,7.14-4.08,10.754-5.964,7.248-3.707,14.8-7.264,22.964-8.799,4.054-.798,8.158-1.2,12.246-1.445,4.081-.223,8.185-.444,12.335-.138,2.07.159,4.158.433,6.21,1.066,2.023.632,4.118,1.687,5.52,3.588.633.97,1.127,2.073,1.25,3.207.039.281.086.567.113.845l.017.802c.027.533.004,1.072-.043,1.612-.056,1.079-.297,2.162-.619,3.222-.397,1.04-.886,2.071-1.616,2.949-.726.869-1.591,1.627-2.558,2.191-.97.553-1.999.973-3.051,1.25-2.104.564-4.282.593-6.295.592-2.032.003-4.006.072-5.892.49-1.889.393-3.637,1.22-5.126,2.41-1.491,1.19-2.722,2.718-3.73,4.399-1.127,1.832-2.624,3.452-4.344,4.713-3.486,2.501-7.551,3.763-11.493,4.806-1.969.534-3.974.987-5.767,1.682-.893.38-1.493.794-2.155,1.572-.639.718-1.22,1.529-1.797,2.358-1.149,1.659-2.304,3.38-3.597,5-1.286,1.627-2.714,3.156-4.266,4.544l-1.187,1.014-1.232.958c-.815.618-1.611,1.212-2.398,1.854-1.574,1.266-3.111,2.591-4.632,3.937-3.036,2.698-6.067,5.433-9.528,7.684,2.601-3.199,5.534-6.022,8.587-8.742,1.524-1.362,3.068-2.708,4.663-4.005.79-.651,1.623-1.281,2.429-1.898l1.177-.924,1.132-.977c1.479-1.337,2.837-2.805,4.07-4.382,1.242-1.574,2.353-3.245,3.514-4.942.583-.845,1.184-1.699,1.896-2.509.168-.207.363-.401.556-.595l.293-.291.368-.273c.495-.406,1.001-.578,1.504-.838,2.009-.787,3.995-1.232,5.953-1.778,3.896-1.046,7.762-2.303,10.922-4.602,1.561-1.164,2.856-2.584,3.867-4.232,1.076-1.817,2.424-3.526,4.114-4.889,1.683-1.365,3.717-2.33,5.818-2.777,2.098-.475,4.226-.549,6.263-.565,2.052-.009,3.993-.058,5.839-.562.918-.247,1.784-.613,2.583-1.07.794-.468,1.473-1.081,2.051-1.773.579-.697.976-1.527,1.313-2.383.267-.888.486-1.805.537-2.763.131-1.944.037-3.848-.984-5.272-1.035-1.417-2.738-2.351-4.572-2.927-1.845-.58-3.825-.857-5.812-1.015-3.985-.312-8.046-.116-12.099.09-4.047.226-8.076.605-12.026,1.366-7.93,1.454-15.334,4.893-22.573,8.558-3.618,1.867-7.266,3.668-10.648,5.845-3.398,2.181-6.569,4.639-10.114,6.779Z" style="fill:#000001; stroke-width:0px;"/><path d="m1.878,119.269c1.605-2.208,3.85-3.638,6.029-5.045,2.163-1.431,4.398-2.798,6.21-4.478,1.841-1.696,3.147-3.81,4.371-6.11,1.235-2.295,2.707-4.664,4.893-6.447,2.265-1.767,4.908-2.522,7.398-3.284,2.509-.737,4.997-1.4,7.257-2.451,2.257-1.044,4.212-2.556,5.406-4.657,1.358-2.302,3.007-4.475,5.045-6.282l1.061,1.485c-2.076,1.113-4.031,2.146-5.843,3.495-.911.663-1.776,1.372-2.638,2.126-.644.53-1.274.726-1.878.917-.606.176-1.199.292-1.787.394-2.339.393-4.654.522-6.823.97-.536.113-1.06.253-1.515.441-.118.044-.217.1-.324.149l-.375.205-.751.41c-.998.553-1.98,1.133-2.947,1.735-3.875,2.41-7.419,5.304-10.821,8.4l-5.123,4.663c-1.718,1.549-3.533,3.016-5.695,4.028,1.394-1.933,3.047-3.517,4.746-5.073l5.081-4.706c3.397-3.145,7.008-6.151,10.961-8.656.987-.626,1.988-1.23,3.005-1.804l.765-.426.383-.213c.153-.075.308-.159.46-.218.611-.257,1.208-.416,1.799-.547,2.354-.504,4.668-.647,6.879-1.044.548-.099,1.089-.213,1.59-.364.492-.148.975-.353,1.221-.572.869-.774,1.784-1.539,2.734-2.243,1.885-1.433,4.017-2.584,5.998-3.668.445-.245,1.003-.083,1.248.362.209.379.119.843-.187,1.123-1.84,1.673-3.383,3.688-4.676,5.856-.698,1.203-1.647,2.304-2.717,3.199-1.079.895-2.282,1.595-3.511,2.173-2.473,1.138-5.044,1.803-7.523,2.526-2.458.733-4.935,1.485-6.818,2.934-1.887,1.51-3.276,3.626-4.514,5.883-.636,1.13-1.29,2.297-2.071,3.402-.777,1.108-1.681,2.14-2.677,3.062-2.036,1.839-4.294,3.167-6.476,4.585-2.194,1.411-4.315,2.823-6.853,3.766Z" style="fill:#000001; stroke-width:0px;"/><path d="m80.578,76.692c.294,1.02.461,2.057.413,3.145-.041,1.08-.403,2.218-1.113,3.12-.703.91-1.675,1.528-2.664,1.978-1.008.397-2.041.711-3.085.881-.521.102-1.042.188-1.566.235-.523.059-1.042.13-1.581.142-1.07.054-2.114-.002-3.147-.047-2.061-.091-4.106-.206-6.079.11-1.969.296-3.85,1.017-5.4,2.231-.771.607-1.472,1.308-2.082,2.092-.338.364-.583.804-.862,1.217-.266.411-.547.835-.863,1.291-.32.433-.576.919-.952,1.305l-1.094,1.189c-.812.7-1.621,1.41-2.534,1.964-1.79,1.154-3.728,2.043-5.711,2.727-1.987.677-4.007,1.203-6.015,1.701-1.987.514-4.053.94-5.77,1.781-.768.405-1.424,1.176-2.001,1.977-.579.81-1.099,1.689-1.622,2.58-1.046,1.78-2.144,3.585-3.471,5.222-1.32,1.642-2.829,3.131-4.473,4.439l-2.465,1.888c-.809.632-1.606,1.281-2.398,1.939-1.582,1.318-3.137,2.672-4.684,4.038-1.543,1.37-3.106,2.722-4.929,3.786,1.252-1.698,2.757-3.115,4.302-4.491,1.541-1.38,3.093-2.751,4.678-4.089.794-.668,1.594-1.329,2.409-1.975l2.443-1.898c1.58-1.276,3.019-2.716,4.279-4.304,1.267-1.586,2.314-3.331,3.348-5.117.517-.893,1.043-1.801,1.659-2.676.625-.864,1.308-1.74,2.37-2.333,2.002-.991,4.035-1.387,6.031-1.929,1.999-.511,3.978-1.042,5.9-1.711,1.924-.656,3.775-1.495,5.461-2.57.863-.515,1.611-1.171,2.369-1.813l1.01-1.087c.35-.352.579-.797.877-1.19.278-.39.569-.826.866-1.281.301-.441.567-.906.934-1.303.664-.844,1.436-1.609,2.291-2.274,1.718-1.334,3.823-2.12,5.935-2.422,4.275-.638,8.381.526,12.346-.367.998-.155,1.953-.446,2.868-.798.887-.399,1.705-.924,2.274-1.654,1.171-1.472,1.086-3.574,1.496-5.648Z" style="fill:#000001; stroke-width:0px;"/><path d="m2.298,104.893c1.326-1.509,2.903-2.633,4.452-3.794,1.542-1.169,3.042-2.39,4.453-3.698,2.842-2.609,5.422-5.588,8.642-7.941,1.593-1.18,3.292-2.203,5.034-3.118,1.707-.932,3.605-1.757,5.559-2.186,1.953-.466,3.979-.555,5.892-.659.94-.066,1.909-.152,2.528-.548.129-.082.316-.243.514-.404l.572-.47c.377-.318.781-.606,1.172-.909,3.158-2.359,6.84-4.217,10.803-4.866,3.941-.711,7.934-.102,11.458-1.437.89-.321,1.683-.751,2.539-1.246.883-.505,1.829-.899,2.808-1.169,1.959-.542,4.044-.592,6.025-.154,1.972.438,3.89,1.361,5.305,2.893.705.755,1.255,1.7,1.474,2.729.201,1.03.068,2.113-.411,2.994.015-1.003-.083-1.926-.376-2.782-.315-.842-.753-1.639-1.384-2.3-1.248-1.337-3.003-2.182-4.819-2.568-1.824-.39-3.746-.329-5.537.181-.896.254-1.758.621-2.561,1.088-.825.487-1.745.996-2.689,1.34-1.902.729-3.935.951-5.886,1.059-1.958.108-3.877.176-5.748.512-3.748.645-7.211,2.414-10.261,4.723-.378.294-.772.567-1.14.876l-.559.453c-.181.143-.36.306-.639.49-1.068.633-2.134.64-3.112.725-1.97.097-3.859.174-5.706.604-1.859.404-3.57,1.137-5.287,2.054-1.711.885-3.364,1.866-4.909,2.995-3.106,2.232-5.692,5.168-8.596,7.804-1.454,1.331-2.986,2.562-4.553,3.737-1.561,1.183-3.173,2.298-5.059,2.989Z" style="fill:#000001; stroke-width:0px;"/><path d="m76.406,81.133c.23-.663.413-1.321.323-1.855-.081-.524-.385-.864-.839-1.144-.905-.564-2.241-.837-3.45-.888-1.232-.039-2.471.2-3.65.62-.59.21-1.167.469-1.725.767-.534.296-1.23.678-1.872.948-2.662,1.159-5.633,1.284-8.329,1.153-1.357-.038-2.676-.16-3.925-.054-1.247.099-2.403.43-3.387,1.118-.34.237-.808.155-1.045-.185-.225-.322-.162-.76.135-1.007l.008-.007c1.168-.965,2.69-1.457,4.118-1.607,1.439-.159,2.823-.116,4.159-.066,2.664.12,5.23-.041,7.56-1.033.605-.245,1.099-.503,1.751-.847.638-.324,1.3-.607,1.985-.835,1.367-.461,2.837-.671,4.301-.575.74.054,1.443.183,2.149.379.706.2,1.417.491,2.057,1.01.307.272.594.606.778,1.016.182.408.225.878.153,1.286-.173.827-.684,1.4-1.255,1.806Z" style="fill:#000001; stroke-width:0px;"/><path d="m26.173,107.65c.068-.629.361-1.092.563-1.615.204-.518.39-1.042.544-1.582.177-.533.316-1.085.52-1.642.099-.276.226-.56.414-.807.191-.247.476-.423.768-.49-.362.485-.569.911-.734,1.448-.156.527-.263,1.091-.409,1.652-.163.556-.358,1.11-.614,1.636-.244.528-.528,1.053-1.051,1.399Z" style="fill:#000001; stroke-width:0px;"/><path d="m66.126,86.135c.684-.337,1.44-.195,2.119-.078.694.118,1.367.286,2.04.423.668.157,1.339.29,2.012.342.679.045,1.327.011,2.047.006-.605.424-1.366.491-2.07.465-.714-.019-1.416-.121-2.107-.246-.686-.144-1.361-.311-2.028-.469-.678-.15-1.31-.243-2.014-.445Z" style="fill:#000001; stroke-width:0px;"/><path d="m61.018,76.2c-.929.35-1.969.212-2.917.011-.962-.204-1.884-.525-2.804-.821-.916-.308-1.829-.604-2.756-.836-.927-.221-1.881-.35-2.85-.234.93-.322,1.956-.294,2.924-.143.976.149,1.915.44,2.839.739.921.31,1.829.639,2.742.925.914.269,1.853.502,2.821.36Z" style="fill:#000001; stroke-width:0px;"/><path d="m578.284,72.396c1.387.126,2.512,1.507,2.512,3.086v14.308" style="fill:none; stroke:#12171d; stroke-linecap:round; stroke-linejoin:round; stroke-width:2.5px;"/><path d="m578.284,72.396c1.387.126,2.512,1.507,2.512,3.086v14.308" style="fill:none; stroke:#f2a900; stroke-linecap:round; stroke-linejoin:round; stroke-width:.75px;"/><path d="m586.765,83.868c.03,1.48-1.4,2.72-2.599,2.81l-.15.01-7.208.321c-1.96-.05-1.84-5.58.12-5.53l6.908-.291c.04,0,.07-.01.1-.01,1.24-.03,2.79,1.17,2.83,2.69Z" style="fill:#d3d5d6; stroke:#000001; stroke-linejoin:round;"/><ellipse cx="585.163" cy="83.808" rx="1.297" ry="1.588" transform="translate(-1.826 13.922) rotate(-1.361)" style="fill:none; stroke:#000001; stroke-linejoin:round; stroke-width:.5px;"/><path d="m581.954,83.983c.033,1.385.977,2.486,2.108,2.459.03,0,.061-.002.091-.005,1.088-.084,2.44-1.214,2.408-2.561-.033-1.385-1.486-2.476-2.618-2.449-.03,0-.061.002-.091.005-1.088.084-1.93,1.204-1.898,2.552Z" style="fill:none; stroke:#000001; stroke-linejoin:round; stroke-width:.5px;"/><path d="m277.842,87.513c-.073,0-.127,0-.236.016l-27.065,2.682c-3.761.208-6.769,3.576-6.706,7.509l.18,11.266c.004.247.017.981,2.631.981.077,0,.156,0,.237-.002,2.85-.045,2.838-.817,2.834-1.07l-.18-11.245c-.012-.76.618-1.44,1.386-1.487l27.041-2.143.154-.013c1.473-.134,3.072-1.603,3.009-3.37-.076-1.793-1.812-3.126-3.284-3.126Z" style="fill:none; stroke:#fff; stroke-linecap:round; stroke-linejoin:round; stroke-width:3px;"/><path d="m249.215,108.903l-.18-11.244c-.016-.99.797-1.93,1.846-1.993l27.04-2.143.15-.012c1.198-.109,2.608-1.372,2.554-2.851-.064-1.519-1.633-2.695-2.872-2.645-.03,0-.06.011-.1.012l-27.087,2.684c-3.703.205-6.289,3.51-6.233,7.002l.18,11.266c.011.7,4.713.625,4.701-.075Z" style="fill:#d3d5d6; stroke:#000001; stroke-linejoin:round;"/><ellipse cx="279.024" cy="90.625" rx="1.297" ry="1.588" transform="translate(-3.379 11.153) rotate(-2.276)" style="fill:none; stroke:#000001; stroke-linejoin:round; stroke-width:.5px;"/><path d="m275.818,90.851c.055,1.384,1.016,2.47,2.147,2.425.03-.001.061-.003.091-.006,1.086-.101,2.42-1.253,2.366-2.599-.055-1.384-1.526-2.452-2.657-2.407-.03.001-.061.003-.091.006-1.086.101-1.911,1.235-1.857,2.582Z" style="fill:none; stroke:#000001; stroke-linejoin:round; stroke-width:.5px;"/><path d="m249.215,108.903c-.011-.7-4.713-.625-4.701.075" style="fill:none; stroke:#000001; stroke-linejoin:round; stroke-width:.5px;"/><path d="m250.879,95.485c-2.391.173-2.781,1.656-2.781,1.656" style="fill:none; stroke:#000001; stroke-linecap:round; stroke-linejoin:round; stroke-width:.5px;"/><path d="m578.75,80.232c-.473.496-.77.675-1.136.886-.343.227-.636.537-.864.894-.446.719-.686,1.585-.653,2.456.005.871.273,1.731.756,2.432.244.348.551.649.907.863.379.213.702.286,1.188.809-.509.546-1.181.365-1.677.107-.522-.254-.974-.628-1.339-1.063-.74-.874-1.093-2.004-1.145-3.117-.005-1.113.281-2.265.982-3.178.343-.456.777-.854,1.288-1.138.486-.3,1.169-.423,1.692.048Z" style="fill:#a7abae; stroke-width:0px;"/><path d="m578.444,89.283l.879-1.904c.725-1.451-.761-1.735-.761-3.575,0-1.925,1.644-2.371.45-3.756-1.858-2.156-3.241-3.199-3.241-5.021,0-1.501,1.017-2.64,2.31-2.64.067,0,.134.003.202.009" style="fill:none; stroke:#12171d; stroke-linecap:round; stroke-linejoin:round; stroke-width:2.5px;"/><path d="m578.444,89.283l.879-1.904c.725-1.451-.761-1.735-.761-3.575,0-1.925,1.644-2.371.45-3.756-1.858-2.156-3.241-3.199-3.241-5.021,0-1.501,1.017-2.64,2.31-2.64.067,0,.134.003.202.009" style="fill:none; stroke:#f2a900; stroke-linecap:round; stroke-linejoin:round; stroke-width:.75px;"/><path d="m575.772,75.026c0-1.578,1.125-2.756,2.512-2.63s2.512,1.507,2.512,3.086" style="fill:none; stroke:#12171d; stroke-linejoin:round; stroke-width:2.5px;"/><path d="m575.772,75.026c0-1.578,1.125-2.756,2.512-2.63s2.512,1.507,2.512,3.086" style="fill:none; stroke:#f2a900; stroke-linecap:round; stroke-linejoin:round; stroke-width:.75px;"/><polygon points="585.319 59.165 578.943 69.705 572.069 57.222 575.621 57.743 575.621 37.706 582.264 38.681 582.264 58.717 585.319 59.165" style="fill:none; stroke:#fff; stroke-miterlimit:10; stroke-width:1.5px;"/><polygon points="585.319 59.165 578.943 69.705 572.069 57.222 575.621 57.743 575.621 37.706 582.264 38.681 582.264 58.717 585.319 59.165" style="fill:#f2a900; stroke-width:0px;"/><path d="m338.057,98.556c2.716,0,5.194.356,5.432-4.124.238-4.479.572-19.56.572-20.799s-.095-3.765-3.288-3.336c-3.193.429-8.53,1.287-8.53,1.287l-1.107.232c-.806.192-1.444.582-1.723,1.245" style="fill:none; stroke:#a7abae; stroke-linecap:round; stroke-linejoin:round; stroke-width:.5px;"/><path d="m333.59,70.249c3.51-.559,6.437-.923,8.164-1.153,2.814-.375,7.225-1.081,7.089,4.524-.102,4.171-.397,19.606-.532,21.351-.097,1.247-.652,2.722-3.393,3.489" style="fill:none; stroke:#a7abae; stroke-linecap:round; stroke-linejoin:round;"/><path d="m349.155,65.518c2.555.912,3.919,4.789,3.709,11.98-.21,7.191-.525,18.733-.525,18.733l8.614-.49c.851-.014,1.702.013,2.55.081l22.137,2.061" style="fill:none; stroke:#a7abae; stroke-linecap:round; stroke-linejoin:round; stroke-width:.5px;"/></g><g id="uuid-67e33540-0e81-4f07-813a-2cb2c8987ce6"><path d="m12.093,3.39c-3.934,0-7.124,3.189-7.124,7.124v2.337c0,3.934,3.189,7.124,7.124,7.124s7.124-3.189,7.124-7.124v-2.337c0-3.934-3.189-7.124-7.124-7.124Z" style="fill:none; stroke:#fff; stroke-miterlimit:10; stroke-width:4px;"/><circle cx="12.093" cy="11.681" r="8.275" style="fill:none; stroke:#fff; stroke-miterlimit:10; stroke-width:4px;"/><circle cx="12.093" cy="11.681" r="8.275" style="fill:#000001; stroke-width:0px;"/><path d="m12.093,3.39c-3.934,0-7.124,3.189-7.124,7.124v2.337c0,3.934,3.189,7.124,7.124,7.124s7.124-3.189,7.124-7.124v-2.337c0-3.934-3.189-7.124-7.124-7.124Z" style="fill:#000001; stroke-width:0px;"/><path d="m11.135,9.494c-.2.135-.455.284-.768.449l-.818-1.326c.477-.26.905-.535,1.286-.826.382-.29.732-.613,1.054-.968h1.807v9.334h-1.846v-7.215c-.277.234-.516.418-.715.552Z" style="fill:#fff; stroke-width:0px;"/><path d="m239.671,3.39c-4.462,0-8.079,3.617-8.079,8.079v.426c0,4.462,3.617,8.079,8.079,8.079s8.079-3.617,8.079-8.079v-.426c0-4.462-3.617-8.079-8.079-8.079Z" style="fill:none; stroke:#fff; stroke-miterlimit:10; stroke-width:4px;"/><circle cx="239.671" cy="11.681" r="8.275" style="fill:none; stroke:#fff; stroke-miterlimit:10; stroke-width:4px;"/><circle cx="239.671" cy="11.681" r="8.275" style="fill:#000001; stroke-width:0px;"/><path d="m239.671,3.39c-4.462,0-8.079,3.617-8.079,8.079v.426c0,4.462,3.617,8.079,8.079,8.079s8.079-3.617,8.079-8.079v-.426c0-4.462-3.617-8.079-8.079-8.079Z" style="fill:#000001; stroke-width:0px;"/><path d="m236.183,14.687l3.237-3.029c.304-.277.559-.544.767-.799.208-.256.369-.496.481-.722.112-.225.169-.438.169-.637v-.117c0-.312-.119-.567-.357-.767-.238-.199-.539-.299-.903-.299-.521,0-.919.113-1.196.338-.277.226-.459.611-.546,1.157l-1.638-.52c.139-.832.507-1.476,1.104-1.931.599-.455,1.356-.683,2.275-.683.58,0,1.104.104,1.573.312.468.208.838.512,1.111.91.272.398.409.871.409,1.417,0,.451-.089.882-.267,1.293s-.405.789-.683,1.131c-.277.343-.594.674-.949.995l-2.002,1.794h3.966v1.625h-6.553v-1.469Z" style="fill:#fff; stroke-width:0px;"/><path d="m460.154,3.39c-4.451,0-8.059,3.608-8.059,8.059v.465c0,4.451,3.608,8.059,8.059,8.059s8.059-3.608,8.059-8.059v-.465c0-4.451-3.608-8.059-8.059-8.059Z" style="fill:none; stroke:#fff; stroke-miterlimit:10; stroke-width:4px;"/><circle cx="460.154" cy="11.681" r="8.275" style="fill:none; stroke:#fff; stroke-miterlimit:10; stroke-width:4px;"/><circle cx="460.154" cy="11.681" r="8.275" style="fill:#000001; stroke-width:0px;"/><path d="m460.154,3.39c-4.451,0-8.059,3.608-8.059,8.059v.465c0,4.451,3.608,8.059,8.059,8.059s8.059-3.608,8.059-8.059v-.465c0-4.451-3.608-8.059-8.059-8.059Z" style="fill:#000001; stroke-width:0px;"/><path d="m457.837,15.825c-.541-.316-1.007-.787-1.397-1.411l1.443-1.04c.242.442.509.759.8.949.29.191.651.286,1.085.286.469,0,.871-.093,1.209-.28.338-.186.507-.474.507-.864v-.156c0-.442-.149-.756-.448-.942-.299-.186-.804-.279-1.515-.279h-.649v-1.56h.624c.528,0,.96-.078,1.293-.234.334-.156.501-.451.501-.884v-.143c0-.312-.146-.543-.436-.695-.291-.151-.626-.228-1.008-.228-.364,0-.691.093-.981.279-.29.187-.531.462-.722.826l-1.364-.819c.312-.667.728-1.159,1.247-1.476.521-.316,1.153-.475,1.898-.475.91,0,1.653.217,2.229.65.576.434.864,1.079.864,1.937,0,.451-.091.839-.272,1.164-.183.325-.438.592-.768.8.416.216.73.494.942.832.213.338.319.754.319,1.248,0,.642-.158,1.188-.475,1.638s-.739.789-1.268,1.014c-.529.225-1.109.338-1.742.338-.736,0-1.376-.158-1.918-.475Z" style="fill:#fff; stroke-width:0px;"/></g></svg>