<svg xmlns="http://www.w3.org/2000/svg" width="12" height="12" viewBox="0 0 12 12"><g id="b6d4fdbe-09ed-4bbb-8d83-a7387c5ba80f" data-name="below"><circle cx="6" cy="6" r="6" style="fill:#000001"/></g><g id="e85061f5-ef34-46e4-8877-ded5879229ae" data-name="illustration"><path d="M9.364,6.578,8.626,6.7a.443.443,0,0,0-.273.658l.435.608-.819.82-.608-.434a.444.444,0,0,0-.658.274l-.122.737H5.422L5.3,8.627a.469.469,0,0,0-.26-.3.464.464,0,0,0-.4.029l-.608.434-.82-.82.432-.608A.443.443,0,0,0,3.374,6.7l-.738-.123V5.42L3.374,5.3a.47.47,0,0,0,.3-.26.463.463,0,0,0-.029-.4l-.435-.609.821-.82.607.435A.446.446,0,0,0,5.3,3.374l.122-.738H6.58l.122.738a.473.473,0,0,0,.262.3.464.464,0,0,0,.4-.028l.607-.436.82.819-.434.609a.443.443,0,0,0,.273.658l.738.122ZM4.86,6A1.141,1.141,0,1,1,6,7.14,1.142,1.142,0,0,1,4.86,6Z" style="fill:#fff;fill-rule:evenodd"/></g></svg>
