<?xml version="1.0" encoding="UTF-8"?><svg xmlns="http://www.w3.org/2000/svg" width="12" height="12" viewBox="0 0 12 12"><g id="uuid-83bb61df-dbc6-432d-a6f0-ab1eaa570a7a"><circle cx="6" cy="6" r="6" style="fill:#000001;"/></g><g id="uuid-ea2e8a5d-c479-4495-bca7-3dbe2ee59cba"><path d="M3.451,9.579c0-1.014.614-1.014.614-2.031s-.818-.918-.818-1.933.614-1.115.614-2.129" style="fill:none; stroke:#fff; stroke-miterlimit:10; stroke-width:.75px;"/><path d="M3.856,2.189l-.895,1.544h1.789l-.895-1.544Z" style="fill:#fff;"/><path d="M5.595,9.579c0-1.014.614-1.014.614-2.031s-.818-.918-.818-1.933.614-1.115.614-2.129" style="fill:none; stroke:#fff; stroke-miterlimit:10; stroke-width:.75px;"/><path d="M6,2.189l-.895,1.544h1.789l-.895-1.544Z" style="fill:#fff;"/><path d="M7.739,9.579c0-1.014.614-1.014.614-2.031s-.818-.918-.818-1.933.614-1.115.614-2.129" style="fill:none; stroke:#fff; stroke-miterlimit:10; stroke-width:.75px;"/><path d="M8.144,2.189l-.895,1.544h1.789l-.895-1.544Z" style="fill:#fff;"/></g></svg>