<?xml version="1.0" encoding="UTF-8"?><svg xmlns="http://www.w3.org/2000/svg" width="12" height="12" viewBox="0 0 12 12"><g id="uuid-2aa88940-bdc6-4f52-857b-75f038077f8f"><circle cx="6" cy="6" r="6" style="fill:#000001;"/></g><g id="uuid-91fd2cf9-89a7-4553-8e36-343f14bd0a29"><path d="M4.497,2.888v1.118c0,.123-.049.24-.136.327-.087.087-.204.135-.327.136h-1.083v-2.043h1.083c.123,0,.24.049.327.136.087.087.135.204.136.327Z" style="fill:#fff; fill-rule:evenodd;"/><path d="M8.489,7.534l.293.294c.069.069.114.157.13.253.015.096,0,.194-.044.281l-.476.951H3.928l-1.032-4.402h1.393c.098,0,.194.031.273.089.079.058.138.14.168.233l.705,2.28,2.709-.114c.128-.003.252.046.345.134Z" style="fill:#fff; fill-rule:evenodd;"/><path d="M7.068,4.175c-.066-.093-.104-.225-.116-.387-.016-.209.014-.442.06-.638h0c.009-.039.01-.079.002-.119-.008-.039-.025-.076-.049-.108-.024-.032-.055-.058-.09-.077-.035-.019-.074-.03-.114-.032h0c-.577-.027-.932.434-.93.885.001.228.093.459.294.626.171.142.41.23.719.242,0,.007,0,.013,0,.02,0,.097.028.187.077.263-.093.066-.225.104-.387.116-.209.016-.442-.014-.638-.06h0c-.039-.009-.079-.01-.118-.002-.039.008-.076.025-.108.049-.032.024-.058.055-.077.09-.019.035-.03.074-.032.114h0c-.027.578.434.933.885.93.228-.001.459-.093.626-.294.142-.171.23-.41.242-.719.007,0,.013,0,.02,0,.097,0,.187-.028.263-.077.066.093.104.226.116.388.016.209-.014.442-.06.638h0c-.009.039-.01.079-.002.119.008.039.025.076.049.108.024.032.055.058.09.077.035.019.074.03.114.032h0c.577.027.932-.434.93-.885-.001-.228-.093-.459-.294-.626-.171-.142-.41-.23-.719-.242,0-.007,0-.013,0-.02,0-.097-.028-.187-.077-.263.093-.066.225-.104.387-.116.209-.016.442.014.638.06h0c.039.009.079.01.118.002.039-.008.076-.025.108-.049.032-.024.058-.055.077-.09.019-.035.03-.074.032-.114h0c.027-.578-.434-.933-.885-.93-.228.001-.459.093-.626.294-.142.171-.23.41-.242.719-.007,0-.013,0-.02,0-.097,0-.187.028-.263.077ZM7.331,4.352c-.13,0-.235.105-.235.235s.105.235.235.235.235-.105.235-.235-.105-.235-.235-.235Z" style="fill:#fff; fill-rule:evenodd;"/></g></svg>