<?xml version="1.0" encoding="UTF-8"?><svg xmlns="http://www.w3.org/2000/svg" width="12" height="12" viewBox="0 0 12 12"><g id="uuid-7af8124b-acbc-4936-8a08-8995f7997744"><circle cx="6" cy="6" r="6" style="fill:#000001;"/></g><g id="uuid-de7db515-5395-4963-8c18-02ffc7fdbb92"><path d="M5.193,5.776c-.929-.254-2.353-.807-2.353-1.811,0-1.49,1.106-1.649,1.913-1.578.776.068,1.147.663.946,1.129-.149.345-.353,1.089-.132,1.768.126-.077.275-.121.433-.121.085,0,.166.013.243.036.262-.928.812-2.285,1.792-2.285,1.49,0,1.649,1.108,1.579,1.913-.068.776-.663,1.147-1.129.946-.34-.146-1.065-.346-1.735-.143.055.112.086.237.086.37,0,.082-.012.162-.034.237.929.259,2.307.811,2.307,1.799,0,1.49-1.106,1.649-1.913,1.578-.776-.068-1.147-.663-.946-1.129.147-.341.348-1.072.139-1.744-.117.062-.249.096-.39.096-.085,0-.166-.013-.243-.036-.262.928-.812,2.285-1.792,2.285-1.49,0-1.649-1.106-1.578-1.911.068-.776.663-1.147,1.129-.946.34.146,1.064.345,1.734.141-.055-.112-.086-.237-.086-.37,0-.078.011-.153.03-.224Z" style="fill:#fff;"/></g></svg>