<?xml version="1.0" encoding="UTF-8"?><svg id="uuid-2ad01d43-b5b4-4dcb-be29-e9303725267d" xmlns="http://www.w3.org/2000/svg" width="39" height="39" viewBox="0 0 39 39"><path d="M7.903,14.964c-2.42,0-4.389,1.969-4.389,4.389,0,2.42,1.969,4.389,4.389,4.389h12.698l1.881,1.881H7.903c-3.455,0-6.27-2.815-6.27-6.27s2.815-6.27,6.27-6.27h2.038l1.881,1.881h-3.919Z" style="fill:#000001;"/><path d="M8.687,6.534l-1.329,1.329,24.31,24.31,1.329-1.329-5.217-5.217h2.069c3.455,0,6.27-2.815,6.27-6.27,0-3.455-2.815-6.27-6.27-6.27h-14.61s-6.553-6.553-6.553-6.553ZM25.899,23.746l-8.779-8.779h12.729c2.42,0,4.389,1.969,4.389,4.389s-1.969,4.389-4.389,4.389h-3.95Z" style="fill:#000001;"/></svg>