<?xml version="1.0" encoding="UTF-8"?><svg xmlns="http://www.w3.org/2000/svg" width="12" height="12" viewBox="0 0 12 12"><g id="uuid-8a47faf2-de18-46eb-b177-9ac9e339d0fa"><circle cx="6" cy="6" r="6" style="fill:#000001;"/></g><g id="uuid-239700f6-dbf2-456c-858c-b6b32f52fdf8"><path d="M7.686,3.484h1.11l1.779,4.748h-.985l-.377-1.019h-1.957l-.377,1.019h-.966l1.772-4.748ZM8.903,6.388l-.675-1.825-.668,1.825h1.343Z" style="fill:#fff;"/></g><g id="uuid-72dfd730-e62e-4f96-a099-682538fa3469"><path d="M1.715,4.59h.452c.799,0,1.557-.349,2.077-.955l.414-.483c.52-.606,1.279-.955,2.077-.955h.452" style="fill:none; stroke:#fff; stroke-width:.514px;"/><path d="M1.715,7.326h.452c.799,0,1.557.349,2.077.955l.414.483c.52.606,1.279.955,2.077.955h.452" style="fill:none; stroke:#fff; stroke-width:.514px;"/><path d="M7.978,2.196l-1.069-.855v1.71l1.069-.855Z" style="fill:#fff;"/><path d="M7.978,9.72l-1.069-.855v1.71l1.069-.855Z" style="fill:#fff;"/><path d="M5.242,5.958l-1.069-.855v1.71l1.069-.855Z" style="fill:#fff;"/><path d="M1.715,5.958h2.65" style="fill:none; stroke:#fff; stroke-width:.514px;"/></g></svg>