<?xml version="1.0" encoding="UTF-8"?><svg xmlns="http://www.w3.org/2000/svg" width="12" height="12" viewBox="0 0 12 12"><g id="uuid-d63cfb48-0933-4d54-9c81-126012a4b807"><circle cx="6" cy="6" r="6" style="fill:#000001; stroke-width:0px;"/></g><g id="uuid-c0299f1e-3753-4ea9-ac32-be78a4fd3892"><path d="m10.1269,4.2892c-.0005-.0011-.0009-.0023-.0014-.0035-.0236-.0566-.0487-.1124-.0745-.1678-.0042-.0091-.0081-.0184-.0124-.0274-.024-.0506-.0494-.1005-.0752-.15-.0069-.0133-.0134-.0268-.0205-.0399-.0247-.0462-.0506-.0916-.0768-.1368-.0093-.016-.0182-.0322-.0276-.048-.0255-.0427-.0521-.0847-.079-.1264-.0113-.0176-.0223-.0353-.0338-.0527-.0262-.0396-.0534-.0784-.0809-.1171-.0134-.0189-.0266-.0379-.0403-.0566-.0269-.0367-.0546-.0726-.0825-.1084-.0154-.0198-.0307-.0396-.0465-.0592-.0276-.0342-.0559-.0677-.0845-.101-.0173-.0201-.0345-.0403-.0521-.0601-.0283-.0319-.0573-.0631-.0866-.0942-.019-.0202-.0381-.0405-.0575-.0603-.029-.0297-.0586-.0589-.0884-.0878-.0207-.0201-.0415-.0401-.0627-.0598-.0297-.0277-.0599-.0549-.0903-.0817-.0224-.0198-.045-.0394-.0678-.0587-.0302-.0256-.0608-.0508-.0917-.0757-.0242-.0194-.0485-.0385-.073-.0574-.0308-.0237-.0618-.047-.0931-.0699-.0257-.0187-.0517-.0371-.0778-.0553-.0312-.0218-.0627-.0433-.0946-.0643-.0273-.018-.055-.0356-.0828-.0531-.0316-.0199-.0633-.0395-.0954-.0586-.029-.0172-.0583-.0339-.0877-.0504-.0319-.018-.0638-.0359-.0962-.0531-.0306-.0163-.0616-.0318-.0926-.0474-.0321-.0161-.0642-.0322-.0967-.0476-.0321-.0152-.0647-.0295-.0972-.044-.0324-.0143-.0647-.0288-.0974-.0424-.0336-.0139-.0677-.027-.1017-.0401-.0325-.0126-.065-.0253-.0979-.0371-.035-.0126-.0704-.0241-.1057-.0358-.0328-.0108-.0653-.022-.0984-.0321-.0364-.0111-.0734-.0211-.1103-.0313-.0327-.0091-.0652-.0185-.0981-.0269-.038-.0096-.0765-.0179-.1149-.0265-.0325-.0073-.0648-.0151-.0976-.0217-.0401-.0081-.0807-.0146-.1211-.0216-.0317-.0055-.0631-.0116-.095-.0164-.0431-.0065-.0868-.0113-.1303-.0166-.0298-.0036-.0595-.008-.0895-.011-.0489-.0049-.0982-.0079-.1476-.0112-.0252-.0017-.0501-.0043-.0754-.0055-.0748-.0037-.1501-.0057-.2259-.0057s-.1511.002-.2259.0057c-.0253.0013-.0502.0038-.0754.0055-.0493.0033-.0987.0063-.1476.0112-.03.003-.0596.0074-.0895.011-.0435.0052-.0872.0101-.1303.0166-.0319.0048-.0633.0109-.0949.0163-.0405.007-.0811.0136-.1212.0217-.0327.0066-.065.0144-.0974.0217-.0385.0086-.077.0169-.1151.0266-.033.0083-.0655.0178-.0981.0269-.0369.0102-.0738.0202-.1103.0313-.0331.0101-.0657.0212-.0984.0321-.0354.0117-.0708.0232-.1057.0358-.0329.0118-.0653.0246-.0979.0371-.034.0131-.0681.0262-.1017.0401-.0328.0136-.0651.028-.0974.0424-.0325.0144-.0651.0288-.0972.044-.0325.0154-.0646.0315-.0967.0476-.031.0156-.062.0311-.0926.0474-.0324.0172-.0643.0351-.0962.0531-.0294.0166-.0588.0332-.0877.0504-.0321.0191-.0638.0387-.0953.0585-.0278.0175-.0556.0351-.083.0532-.0318.0209-.0631.0424-.0942.0641-.0262.0182-.0522.0367-.078.0555-.0314.0229-.0624.0462-.0931.0698-.0246.0189-.0489.038-.073.0574-.0309.0248-.0615.05-.0917.0757-.0228.0193-.0454.0389-.0678.0587-.0305.0269-.0606.0541-.0903.0817-.0211.0197-.0419.0397-.0627.0598-.0298.0289-.0594.0581-.0884.0878-.0194.0199-.0385.0401-.0575.0603-.0292.031-.0582.0623-.0866.0942-.0176.0198-.0348.04-.0521.0601-.0286.0333-.0569.0668-.0845.101-.0158.0195-.0311.0394-.0465.0592-.0279.0358-.0557.0717-.0825.1084-.0138.0188-.027.0379-.0405.057-.0273.0386-.0545.0773-.0806.1167-.0116.0176-.0227.0355-.0341.0532-.0268.0417-.0533.0835-.0788.1261-.0094.0159-.0183.0321-.0276.048-.0262.0452-.0521.0906-.0768.1368-.007.0132-.0135.0267-.0205.0399-.0258.0496-.0512.0994-.0752.15-.0043.0091-.0082.0183-.0124.0274-.0258.0554-.0509.1112-.0745.1678-.0005.0012-.0009.0023-.0014.0035-.2187.527-.34,1.1047-.34,1.7108,0,.0866.0031.1724.0079.2577h8.918c.0049-.0853.0079-.1712.0079-.2577,0-.6061-.1213-1.1838-.34-1.7108Z" style="fill:#fff; stroke-width:0px;"/><path d="m1.73,7.3146h8.5401c.0516-.1677.0925-.3399.1242-.5154H1.6058c.0317.1755.0726.3477.1242.5154Z" style="fill:#fff; stroke-width:0px;"/><path d="m2.2151,8.3714h7.5698c.1035-.1649.1963-.337.278-.5154H1.9371c.0816.1784.1744.3505.278.5154Z" style="fill:#fff; stroke-width:0px;"/><path d="m3.1371,9.4282h5.7259c.188-.1571.3623-.3298.5221-.5154H2.615c.1599.1856.3342.3583.5221.5154Z" style="fill:#fff; stroke-width:0px;"/><path d="m6,10.4669c.7382,0,1.434-.1802,2.0475-.4973H3.9525c.6135.3171,1.3093.4973,2.0475.4973Z" style="fill:#fff; stroke-width:0px;"/></g></svg>