<svg xmlns="http://www.w3.org/2000/svg" width="39" height="39" viewBox="0 0 39 39"><g id="ecba0696-10ca-42a7-8681-5ff66292c62e" data-name="illustration"><path d="M19.358,30.016h-.62a.981.981,0,0,1-.7-.31A17.681,17.681,0,0,1,14.632,18.86,17.678,17.678,0,0,1,18.041,8.014a.953.953,0,0,1,.774-.387c.465,0,10.536.077,15.494,4.958a8.821,8.821,0,0,1,2.634,6.507,8.716,8.716,0,0,1-2.711,6.43C29.971,29.706,21.682,30.016,19.358,30.016ZM19.2,9.563a17.158,17.158,0,0,0,0,18.516c1.936,0,9.838-.233,13.712-3.951a6.785,6.785,0,0,0,2.092-5.036c0-3.873-2.634-6.662-7.9-8.289A34.521,34.521,0,0,0,19.2,9.563Z" style="fill:#000001"/><path d="M13.082,28.156l-11,2.4v2.014l11-2.479Z" style="fill:#000001"/><path d="M11.765,21.339,2.082,23.431v1.936l9.683-2.091Z" style="fill:#000001"/><path d="M11.765,14.522,2.082,16.613V18.55l9.683-2.092Z" style="fill:#000001"/><path d="M13.082,7.627l-11,2.479v1.936l11-2.4Z" style="fill:#000001"/></g></svg>