<svg xmlns="http://www.w3.org/2000/svg" width="39" height="39" viewBox="0 0 39 39"><g id="e3bfc7cc-6456-4742-9958-e2719a7d8690" data-name="illustration"><path d="M25.844,33.6a1.031,1.031,0,0,1-.794-.374,23.317,23.317,0,0,1-4.431-14.084A23.31,23.31,0,0,1,25.05,5.057a1.028,1.028,0,0,1,1.2-.291c.4.173,9.855,4.361,9.855,14.375s-9.452,14.2-9.855,14.374A1.019,1.019,0,0,1,25.844,33.6Zm.327-26.58a22.309,22.309,0,0,0-3.5,12.122,22.308,22.308,0,0,0,3.5,12.121c2.1-1.127,7.878-4.891,7.878-12.121S28.266,8.145,26.171,7.019Z" style="fill:#000001"/><path d="M11.683,24.25a7.581,7.581,0,0,0-.755,3.224l5.6-3.157,1.007,1.8L11.1,29.732a8.979,8.979,0,0,0,.587,1.7,9.93,9.93,0,0,1,.915,4.382H10.542a7.747,7.747,0,0,0-.756-3.584,12.663,12.663,0,0,1-.537-1.453L4.1,33.668,3.1,31.88l5.792-3.265c-.017-.243-.025-.5-.025-.781a9.92,9.92,0,0,1,.923-4.381,7.716,7.716,0,0,0,.689-2.342L4.1,24.7,3.1,22.9l7.4-4.155a7.952,7.952,0,0,0-.7-2.468,9.98,9.98,0,0,1-.873-3.257L4.1,15.722,3.1,13.926l5.826-3.282A9.977,9.977,0,0,1,9.786,7.5a7.785,7.785,0,0,0,.756-3.592H12.6a9.943,9.943,0,0,1-.915,4.39c-.142.344-.277.663-.394,1.015l5.238-2.946,1.007,1.8L10.92,11.886a7.8,7.8,0,0,0,.763,3.593,10.082,10.082,0,0,1,.714,2.19l4.13-2.325,1.007,1.8L12.6,19.919A9.84,9.84,0,0,1,11.683,24.25Z" style="fill:#000001"/></g></svg>