<svg xmlns="http://www.w3.org/2000/svg" width="12" height="12" viewBox="0 0 12 12"><g id="b22db413-26ce-4a63-a7fd-62087d1f7f94" data-name="below"><g id="ef67e871-2797-4cde-b46e-7afc383a7b65" data-name="b6817fbd-0a18-48d3-b26f-590dae987cb5"><circle cx="6" cy="6" r="6" style="fill:#000001"/></g></g><g id="a943e01a-6a8b-4b99-b4ee-b3b9cf76328c" data-name="illustration"><path d="M3.5,2.245l0,1.625H3.09l0-1.626ZM3.072,9.75,3.083,6.2h.41l-.011,3.55Zm.833-4.708a.614.614,0,1,1-.614-.614A.614.614,0,0,1,3.905,5.042ZM6.077,6.621l.012-4.376H5.68L5.667,6.621Zm-.416,2.3,0,.832h.409l0-.833Zm.827-1.16a.615.615,0,1,1-.615-.614A.614.614,0,0,1,6.488,7.759ZM8.929,3.168l0-.919h-.41l0,.92ZM8.513,5.54,8.5,9.755h.41L8.922,5.54Zm.81-1.181a.614.614,0,1,1-.614-.614A.614.614,0,0,1,9.323,4.359Z" style="fill:#fff;fill-rule:evenodd"/></g></svg>