<?xml version="1.0" encoding="UTF-8"?><svg id="uuid-dd8540b3-8e54-473d-bf4a-55ecfc155bef" xmlns="http://www.w3.org/2000/svg" width="39" height="39" viewBox="0 0 39 39"><path d="m19.906,8.009l-9.723.865h-.002s-.852.074-.852.074h0c-1.429.124-2.761.779-3.731,1.835-.971,1.056-1.511,2.438-1.515,3.873h0v.003l.011,9.433v.068s.01.067.01.067c.213,1.501,1.398,2.306,2.507,2.729,1.124.428,2.436.577,3.446.632l15.074.814.027.031h0s5.639,6.604,5.639,6.604h2.552l-5.545-6.493c.386.006.77-.059,1.133-.192.401-.147.767-.374,1.077-.668.31-.294.557-.647.725-1.039.102-.238.175-.488.216-.742l3.964,3.964v-2.745l-3.924-3.924v-2.036h-1.941v4.242c0,.163-.033.324-.098.474-.064.15-.159.285-.277.397-.118.112-.258.199-.411.255-.153.056-.316.081-.479.072h0l-17.628-.952c-.949-.051-2.021-.187-2.86-.507-.819-.312-1.181-.697-1.267-1.132l-.011-9.353c.003-.949.36-1.863,1.003-2.562.643-.699,1.524-1.133,2.47-1.215h0l.854-.074h.002s9.553-.85,9.553-.85v-1.949Z" style="fill:#000001; fill-rule:evenodd; stroke-width:0px;"/><path d="m21.602,7.54l2.077-3.578,2.077,3.578h-1.09c-.099.854-.376,1.417-.615,1.904h0c-.259.528-.459.936-.459,1.747,0,.426.057.696.123.888.069.2.159.357.3.594l.011.018c.136.228.317.533.454.93.143.416.225.896.225,1.501s-.082,1.082-.227,1.495c-.139.395-.324.693-.46.912l-.011.018c-.141.227-.227.371-.293.559-.063.181-.12.442-.12.869h-1.89c0-.605.082-1.083.227-1.495.139-.395.324-.693.46-.912l.011-.018c.141-.227.228-.371.293-.559.063-.181.12-.442.12-.869s-.057-.696-.123-.888c-.069-.2-.159-.357-.3-.594l-.011-.018c-.136-.228-.317-.533-.454-.93-.143-.416-.225-.896-.225-1.501,0-1.25.355-1.974.652-2.579v-.002c.176-.357.325-.66.402-1.072h-1.154Zm6.9,1.905c-.259.528-.459.935-.459,1.747,0,.426.057.696.123.888.069.2.159.357.3.594l.011.018c.136.228.317.533.454.93.143.416.225.896.225,1.501s-.082,1.083-.227,1.495c-.139.395-.324.693-.46.912l-.011.018c-.141.227-.228.371-.293.559-.063.181-.12.442-.12.869h-1.89c0-.605.082-1.083.227-1.496.139-.395.324-.693.46-.912l.011-.018c.141-.227.228-.371.294-.559.063-.181.12-.442.12-.869s-.057-.696-.123-.888c-.069-.2-.159-.357-.3-.594l-.011-.018c-.136-.228-.317-.533-.454-.93-.143-.416-.225-.896-.225-1.501,0-1.25.355-1.974.652-2.579v-.002c.176-.357.325-.66.402-1.072h-1.159l2.077-3.578,2.077,3.578h-1.085c-.099.854-.376,1.417-.615,1.904h0Zm4.397,0c-.259.528-.459.935-.459,1.747,0,.426.057.696.123.888.069.2.159.357.3.594l.011.018c.136.228.317.533.454.93.143.416.225.896.225,1.501s-.082,1.083-.227,1.496c-.139.395-.324.693-.46.912l-.011.018c-.141.227-.227.371-.293.559-.063.181-.12.442-.12.869h-1.89c0-.605.082-1.083.227-1.496.139-.395.324-.693.46-.912l.011-.018c.141-.227.228-.371.293-.559.063-.181.12-.442.12-.869s-.057-.696-.123-.888c-.069-.2-.159-.357-.3-.594l-.011-.018c-.136-.228-.317-.533-.454-.93-.143-.416-.225-.896-.225-1.501,0-1.25.355-1.974.652-2.579v-.002c.176-.357.325-.66.402-1.072h-1.165l2.077-3.578,2.077,3.578h-1.079c-.099.854-.376,1.417-.615,1.904h0Z" style="fill:#000001; fill-rule:evenodd; stroke-width:0px;"/></svg>