<?xml version="1.0" encoding="UTF-8"?><svg id="uuid-f4ae4cfb-8755-4f65-96ba-c9e50de0d021" xmlns="http://www.w3.org/2000/svg" width="12" height="12" viewBox="0 0 12 12"><circle cx="6" cy="6" r="6" style="fill:#000001; stroke-width:0px;"/><path d="m2.9424,4.3067c0-.6611.5359-1.197,1.197-1.197h3.7213c.6611,0,1.197.5359,1.197,1.197v3.7213c0,.6611-.5359,1.197-1.197,1.197h-3.7213c-.6611,0-1.197-.5359-1.197-1.197v-3.7213Zm1.197-1.7066c-.9425,0-1.7066.7641-1.7066,1.7066v3.7213c0,.9425.7641,1.7066,1.7066,1.7066h3.7213c.9425,0,1.7066-.7641,1.7066-1.7066v-3.7213c0-.9425-.7641-1.7066-1.7066-1.7066h-3.7213Zm.8015,3.5675c0,.1406-.0558.2754-.1552.3748-.0994.0994-.2342.1552-.3747.1552-.1406,0-.2754-.0559-.3747-.1552-.0994-.0994-.1552-.2342-.1552-.3748s.0558-.2753.1552-.3747c.0994-.0994.2342-.1552.3747-.1552.1406,0,.2754.0559.3747.1552.0994.0994.1552.2342.1552.3747Zm1.4343.3748c.0994-.0994.1552-.2342.1552-.3748s-.0558-.2754-.1552-.3748c-.0994-.0994-.2342-.1552-.3747-.1552s-.2754.0558-.3748.1552c-.0994.0994-.1552.2342-.1552.3748s.0558.2754.1552.3748.2342.1552.3748.1552.2754-.0559.3747-.1552Zm1.59,0c.0994-.0994.1552-.2342.1552-.3748s-.0559-.2754-.1552-.3748c-.0994-.0994-.2342-.1552-.3748-.1552s-.2754.0559-.3747.1552c-.0994.0994-.1552.2342-.1552.3748s.0559.2754.1552.3748c.0994.0994.2342.1552.3747.1552s.2754-.0559.3748-.1552Z" style="fill:#fff; stroke-width:0px;"/></svg>