<?xml version="1.0" encoding="UTF-8"?><svg id="uuid-7a886b26-b93d-4cf7-bcc1-9f64d1e612ef" xmlns="http://www.w3.org/2000/svg" width="12" height="12" viewBox="0 0 12 12"><circle cx="6" cy="6" r="6" style="fill:#000001; stroke-width:0px;"/><path d="m9.0952,2.793H2.9048c-.4739,0-.8584.3845-.8584.8584v1.2605c.0119,0,.0237-.0002.0356-.0002.119,0,.2356.0092.3521.0187,2.0709.17,3.7189,1.8181,3.8889,3.8889.0096.1165.0188.2331.0188.3521,0,.0119,0,.0238-.0002.0357h2.7536c.4739,0,.8583-.3845.8583-.8584V3.6513c0-.4738-.3845-.8584-.8583-.8584Z" style="fill:#fff; stroke-width:0px;"/><path d="m2.0823,7.6878v.8725c0,.3376.2738.6113.6113.6113h.8724c0-.8195-.6641-1.4838-1.4837-1.4838Z" style="fill:#fff; stroke-width:0px;"/><path d="m2.0822,5.5179v.4941c1.7421,0,3.1593,1.4173,3.1593,3.1593h.4941c0-2.0145-1.639-3.6535-3.6535-3.6535Z" style="fill:#fff; stroke-width:0px;"/><path d="m2.0822,6.5675v.4941c1.1635,0,2.11.9465,2.11,2.11h.4941c0-1.4359-1.1683-2.6042-2.6042-2.6042Z" style="fill:#fff; stroke-width:0px;"/></svg>