<?xml version="1.0" encoding="UTF-8"?><svg id="uuid-7fb923de-931a-477e-a4c4-96d41d274eea" xmlns="http://www.w3.org/2000/svg" width="39" height="39" viewBox="0 0 39 39"><path d="m27.5895,9.4651c-.1917-.4601-.7696-.9969-1.4015-1.365.0665-1.4553.0228-2.8477-.1592-3.9258-.2101-1.1134-.9123-2.7184-2.6244-2.9554-1.6024-.2216-2.8772-.2298-3.2776-.2298s-1.6752.0082-3.2776.2298c-1.712.237-2.4138,1.842-2.6244,2.9554-.182,1.0781-.2252,2.4704-.1592,3.9258-.6318.3682-1.2098.9049-1.4015,1.365-.3916.9412.1524,2.1467,1.4558,1.8411v5.8154c0,.2443.0073.6291.016,1.0744.017.8967.0388,2.0388.015,2.7734l-.0024.0249c-.0902.9344-.2392,2.4736.0859,3.811l.379,1.5677c.1907.6855.6876,1.1693,1.3491,1.285,1.3753.2378,2.7695.3598,4.1574.3598h.0136c1.3879,0,2.7821-.122,4.1574-.3598.6614-.1158,1.1584-.5995,1.3491-1.285l.379-1.5677c.3251-1.3374.1762-2.8766.0859-3.811h0s-.0024-.0249-.0024-.0249c-.0238-.7343-.0019-1.8758.015-2.7723.0087-.4458.016-.831.016-1.0755v-5.8154c1.3039.3056,1.8479-.8999,1.4558-1.8411Zm-10.6591,9.5979l-.8968-.3703c-.2286-.0943-.3775-.3169-.3775-.5639v-7.9009l.9681,1.0949c.197.2231.3062.5106.3062.8084v6.9319Zm-.3062,4.8998l-.9681,1.0951v-4.5092c0-.1273.1296-.2139.247-.1652l1.0273.4241v2.3474c0,.2976-.1092.585-.3062.8079Zm6.6997-11.8317c0-.2978.1087-.5853.3057-.8084l.9681-1.0949v7.9009c0,.247-.149.4697-.3771.5639l-.8968.3703v-6.9319Zm0,11.0238v-2.3474l1.0268-.4241c.1179-.0486.247.0379.247.1652v4.5092l-.9681-1.0951c-.197-.223-.3057-.5103-.3057-.8079Zm-1.0696-12.8418c-1.4194-.3077-2.8466-.3077-4.2661-.0004-.1893.041-.3829-.0249-.5061-.1738-.429-.518-1.021-1.1588-1.5776-1.6886-.1291-.1229-.1165-.3377.0345-.4312,2.1769-1.3428,5.9796-1.5342,8.3778-.0089.15.0953.1611.3101.032.4322-.5615.5318-1.154,1.1761-1.5898,1.6992-.1233.1478-.3164.2123-.5047.1716Zm-15.2673,5.2226l-4.0666,5.7197h3.0922v4.2335c0,2.3566,1.3957,4.4896,3.5547,5.4337l.3887-.8893-.3887.8893,8.7913,3.8438c.6784.2966,1.1166.9669,1.1166,1.7074v1.5373h1.9411v-1.5373c0-1.5118-.8948-2.8803-2.2803-3.4859l-8.7908-3.8438c-1.4524-.6351-2.3914-2.0699-2.3914-3.6552v-4.2335h3.0922l-4.0589-5.7197Z" style="fill:#000001; fill-rule:evenodd; stroke-width:0px;"/></svg>