<svg xmlns="http://www.w3.org/2000/svg" width="12" height="12" viewBox="0 0 12 12"><g id="a4d0f777-a758-4db0-9652-7810e4602faf" data-name="below"><circle cx="6" cy="6" r="6" style="fill:#000001"/></g><g id="bece76db-bae9-4bcb-b8b8-fcebe0a52423" data-name="illustration"><path d="M3.539,4.12a2.461,2.461,0,0,1,4.922,0V8.826a.8.8,0,0,1-.8.8H4.335a.8.8,0,0,1-.8-.8V4.12ZM6,2.1A2.028,2.028,0,0,0,3.974,4.12v.29H8.026V4.12A2.028,2.028,0,0,0,6,2.1ZM6.488,7.74a.507.507,0,1,1-1.013,0V6.294a.507.507,0,0,1,1.013,0Z" style="fill:#fff;fill-rule:evenodd"/></g></svg>