<svg xmlns="http://www.w3.org/2000/svg" width="12" height="12" viewBox="0 0 12 12"><g id="a9f53c8a-bb41-4aee-adde-8eb17757c464" data-name="below"><circle cx="6" cy="6" r="6"/></g><g id="aa69e974-4995-4bef-afe9-2d4936f45377" data-name="illustration"><path d="M3.285,5.079H2.46a.492.492,0,0,0-.514-.526A.422.422,0,0,0,1.473,5c0,.323.227.425.736.6.885.3,1.2.67,1.2,1.3A1.254,1.254,0,0,1,2.023,8.17,1.321,1.321,0,0,1,.552,6.813h.826a.6.6,0,0,0,.657.64c.353,0,.55-.2.55-.478s-.221-.443-.741-.616c-.759-.251-1.2-.586-1.2-1.286A1.208,1.208,0,0,1,1.969,3.83,1.191,1.191,0,0,1,3.285,5.079Z" style="fill:#fff"/><path d="M8.158,5.994A2.094,2.094,0,0,1,5.994,8.17a2.1,2.1,0,0,1-2.17-2.176A2.089,2.089,0,0,1,5.994,3.83,2.088,2.088,0,0,1,8.158,5.994Zm-3.486,0a1.322,1.322,0,1,0,2.637,0,1.321,1.321,0,1,0-2.637,0Z" style="fill:#fff"/><path d="M11.322,5.079H10.5a.492.492,0,0,0-.514-.526A.422.422,0,0,0,9.51,5c0,.323.228.425.736.6.885.3,1.2.67,1.2,1.3A1.255,1.255,0,0,1,10.06,8.17,1.32,1.32,0,0,1,8.59,6.813h.825a.6.6,0,0,0,.657.64c.353,0,.55-.2.55-.478s-.221-.443-.741-.616c-.759-.251-1.2-.586-1.2-1.286A1.208,1.208,0,0,1,10.007,3.83,1.191,1.191,0,0,1,11.322,5.079Z" style="fill:#fff"/></g></svg>