<svg xmlns="http://www.w3.org/2000/svg" width="12" height="12" viewBox="0 0 12 12"><g id="e9766765-53ac-44c1-98c3-4205cc7322ff" data-name="below"><circle cx="6" cy="6" r="6" style="fill:#000001"/></g><g id="a42d900a-d6f1-4ff6-b597-f17631756079" data-name="illustration"><path d="M3.715,2.11H2.673V4.121H3.715a.3.3,0,0,0,.3-.3V2.408A.3.3,0,0,0,3.715,2.11Z" style="fill:none;stroke:#fff;stroke-miterlimit:10;stroke-width:0.625px"/><path d="M2.788,5.164h1.34a.3.3,0,0,1,.283.208L5.32,8.217l3.441-.149a.3.3,0,0,1,.223.09l.358.357a.294.294,0,0,1,.059.343l-.506,1H3.905Z" style="fill:none;stroke:#fff;stroke-miterlimit:10;stroke-width:0.625px"/><path d="M3.905,9.856S4.054,8.292,5.32,8.217" style="fill:none;stroke:#fff;stroke-miterlimit:10;stroke-width:0.625px"/><rect x="5.825" y="4.225" width="3.732" height="0.51" style="fill:#fff"/><polygon points="6.377 5.494 6.015 5.133 6.666 4.482 6.017 3.844 6.375 3.48 7.391 4.479 6.377 5.494" style="fill:#fff"/><polygon points="8.988 5.492 7.993 4.479 8.99 3.482 9.351 3.843 8.712 4.482 9.352 5.135 8.988 5.492" style="fill:#fff"/><rect x="7.443" y="2.622" width="0.51" height="3.733" style="fill:#fff"/><polygon points="7.7 4.17 6.687 3.175 7.044 2.811 7.696 3.452 8.335 2.813 8.697 3.174 7.7 4.17" style="fill:#fff"/><polygon points="7.044 6.15 6.687 5.786 7.7 4.791 8.697 5.787 8.335 6.148 7.696 5.509 7.044 6.15" style="fill:#fff"/></g></svg>