<svg xmlns="http://www.w3.org/2000/svg" width="12" height="12" viewBox="0 0 12 12"><g id="below"><circle cx="6" cy="6" r="6" style="fill:#000001"/></g><g id="illustration"><path d="M3.715,2.11H2.673V4.121H3.715a.3.3,0,0,0,.3-.3V2.408A.3.3,0,0,0,3.715,2.11Z" style="fill:none;stroke:#fff;stroke-miterlimit:10;stroke-width:0.625px"/><path d="M2.788,5.164h1.34a.3.3,0,0,1,.283.208L5.32,8.217l3.441-.149a.3.3,0,0,1,.223.09l.358.357a.294.294,0,0,1,.059.343l-.506,1H3.905Z" style="fill:none;stroke:#fff;stroke-miterlimit:10;stroke-width:0.625px"/><path d="M3.905,9.856S4.054,8.292,5.32,8.217" style="fill:none;stroke:#fff;stroke-miterlimit:10;stroke-width:0.625px"/><path d="M7.885,3.8a.886.886,0,0,0-.13.474.674.674,0,0,0,.117.4,1.087,1.087,0,0,1,.181.648,1.087,1.087,0,0,1-.181.648.585.585,0,0,0-.117.383H7.269a1.038,1.038,0,0,1,.188-.642.609.609,0,0,0,.11-.389.667.667,0,0,0-.11-.4,1.076,1.076,0,0,1-.188-.648,1.4,1.4,0,0,1,.175-.688.89.89,0,0,0,.116-.356H7.269l.518-.895.526.9H8.047A1.57,1.57,0,0,1,7.885,3.8Z" style="fill:#fff"/><path d="M6.692,3.8a.886.886,0,0,0-.13.474.674.674,0,0,0,.117.4,1.087,1.087,0,0,1,.181.648,1.087,1.087,0,0,1-.181.648.585.585,0,0,0-.117.383H6.076a1.038,1.038,0,0,1,.188-.642.609.609,0,0,0,.11-.389.667.667,0,0,0-.11-.4,1.076,1.076,0,0,1-.188-.648,1.4,1.4,0,0,1,.175-.688.89.89,0,0,0,.116-.356H6.076L6.6,2.33l.518.9H6.854A1.57,1.57,0,0,1,6.692,3.8Z" style="fill:#fff"/><path d="M9.052,4.671a1.132,1.132,0,0,1,.181.648,1.038,1.038,0,0,1-.188.642.618.618,0,0,0-.11.389H8.449a1.038,1.038,0,0,1,.188-.642.6.6,0,0,0,.11-.389.615.615,0,0,0-.117-.4,1.151,1.151,0,0,1-.181-.648,1.327,1.327,0,0,1,.175-.688.875.875,0,0,0,.116-.356h-.3l.525-.895.519.9H9.227a1.417,1.417,0,0,1-.169.57.955.955,0,0,0-.123.474A.674.674,0,0,0,9.052,4.671Z" style="fill:#fff"/></g></svg>