<svg width="55" height="55" viewBox="0 0 55 55" fill="none" xmlns="http://www.w3.org/2000/svg">
<g clip-path="url(#clip0)">
<path d="M18.2346 44.2723C18.2346 40.7647 20.1255 41.228 20.1255 37.7204C20.1255 34.2127 18.2346 34.5436 18.2346 31.036C18.2346 27.5284 20.1255 27.188 20.1255 23.6709" stroke="black" stroke-width="3" stroke-miterlimit="10"/>
<path d="M19.9837 18.7451L16.6746 24.4557H23.2927L19.9837 18.7451Z" fill="black"/>
<path d="M25.7982 44.2723C25.7982 40.7647 27.6891 41.228 27.6891 37.7204C27.6891 34.2127 25.7982 34.5436 25.7982 31.036C25.7982 27.5284 27.6891 27.188 27.6891 23.6709" stroke="black" stroke-width="3" stroke-miterlimit="10"/>
<path d="M27.5473 18.7451L24.2382 24.4557H30.8564L27.5473 18.7451Z" fill="black"/>
<path d="M33.2673 44.2723C33.2673 40.7647 35.1582 41.228 35.1582 37.7204C35.1582 34.2127 33.2673 34.5436 33.2673 31.036C33.2673 27.5284 35.1582 27.188 35.1582 23.6709" stroke="black" stroke-width="3" stroke-miterlimit="10"/>
<path d="M35.0164 18.7451L31.7073 24.4557H38.3255L35.0164 18.7451Z" fill="black"/>
<path d="M50.1909 10.7275H4.80909C3.76909 10.7275 2.91818 11.5784 2.91818 12.6184V34.3639C2.91818 35.4039 3.76909 36.2548 4.80909 36.2548H50.1909C51.2309 36.2548 52.0818 35.4039 52.0818 34.3639V12.6184C52.0818 11.569 51.2309 10.7275 50.1909 10.7275Z" stroke="black" stroke-width="3" stroke-miterlimit="10"/>
</g>
<defs>
<clipPath id="clip0">
<rect width="52" height="52" fill="white" transform="translate(1.5 1.5)"/>
</clipPath>
</defs>
</svg>
