<svg width="55" height="55" viewBox="0 0 55 55" fill="none" xmlns="http://www.w3.org/2000/svg">
<path fill-rule="evenodd" clip-rule="evenodd" d="M22.8707 11.0478L23.8729 8.57352C21.9661 7.80883 19.8379 7.80883 17.9311 8.57352L18.9243 11.0389C20.1923 10.5359 21.605 10.5391 22.8707 11.0478ZM39.9689 10.6398C41.307 12.0896 42.0537 13.9879 42.0618 15.9608H39.4013C39.4049 14.7312 38.9782 13.539 38.1952 12.5909L39.9689 10.6398ZM50.8947 24.6696C44.3239 20.3595 36.6853 17.9586 28.8303 17.7345V15.9609C28.828 14.7716 29.2315 13.6172 29.9743 12.6885L28.0853 10.7995H26.9147L25.0346 12.6885C25.7403 13.579 26.1386 14.6742 26.1698 15.8101V17.7345C18.3264 17.9497 10.6945 20.3249 4.11424 24.5986L3.11212 25.3435L15.785 44.7829L16.5742 45.989L17.7183 45.1022C19.5917 43.8922 21.7134 43.1193 23.9261 42.8408L26.3737 47H29.5397L28.6529 45.6343L26.8792 42.5658H27.5C33.8409 42.5658 37.0335 45.0844 37.1133 45.1554L38.2484 46.1132L51.8879 25.4145L50.8947 24.6696ZM17.3014 42.2377L6.7304 26.0708C8.57579 24.9844 10.5066 24.0501 12.5037 23.2772L22.516 40.3931C20.6944 40.7403 18.9362 41.3622 17.3014 42.2377ZM37.5922 42.2377C34.4864 40.6006 31.0092 39.797 27.5 39.9053C26.7462 39.9053 26.0456 39.9053 25.3627 40.0029L15.0578 22.3727C19.0777 21.0731 23.2752 20.406 27.5 20.395C34.8057 20.4398 41.969 22.4195 48.2608 26.1328L37.5922 42.2377ZM26.1698 31.9238V36.358H28.8303V31.9238H26.1698ZM26.1698 28.3765V23.9423H28.8303V28.3765H26.1698ZM16.7161 12.7238L14.8183 10.826C13.6082 12.2626 12.9482 14.0825 12.956 15.9608H15.6165C15.6068 14.7885 15.9944 13.6476 16.7161 12.7238ZM37.0867 8.57352L36.0934 11.0478C34.8277 10.5391 33.415 10.5359 32.147 11.0389L31.1449 8.57352C33.0517 7.80883 35.1799 7.80883 37.0867 8.57352Z" fill="black"/>
</svg>
