<svg width="55" height="55" viewBox="0 0 55 55" fill="none" xmlns="http://www.w3.org/2000/svg">
<g clip-path="url(#clip0)">
<path d="M37.3618 36.445C37.3618 36.445 34.4207 33.5999 27.5 33.5999C20.5793 33.5999 17.0622 36.3839 17.0622 36.3839L5.24545 18.2923C5.24545 18.2923 14.2956 11.7817 27.5 11.7817C40.7044 11.7817 49.7545 18.3534 49.7545 18.3534L37.3618 36.445Z" stroke="black" stroke-width="3" stroke-miterlimit="10"/>
<path d="M18.9473 42.7462C18.9473 39.5084 20.6927 39.936 20.6927 36.6982C20.6927 33.4604 18.9473 33.7659 18.9473 30.528C18.9473 27.2902 20.6927 26.976 20.6927 23.7295" stroke="black" stroke-width="3" stroke-miterlimit="10"/>
<path d="M20.5618 19.1826L17.5073 24.4539H23.6164L20.5618 19.1826Z" fill="black"/>
<path d="M25.9291 42.7462C25.9291 39.5084 27.6745 39.936 27.6745 36.6982C27.6745 33.4604 25.9291 33.7659 25.9291 30.528C25.9291 27.2902 27.6745 26.976 27.6745 23.7295" stroke="black" stroke-width="3" stroke-miterlimit="10"/>
<path d="M27.5437 19.1826L24.4891 24.4539H30.5982L27.5437 19.1826Z" fill="black"/>
<path d="M32.8236 42.7462C32.8236 39.5084 34.5691 39.936 34.5691 36.6982C34.5691 33.4604 32.8236 33.7659 32.8236 30.528C32.8236 27.2902 34.5691 26.976 34.5691 23.7295" stroke="black" stroke-width="3" stroke-miterlimit="10"/>
<path d="M34.4382 19.1826L31.3836 24.4539H37.4927L34.4382 19.1826Z" fill="black"/>
</g>
<defs>
<clipPath id="clip0">
<rect width="48" height="48" fill="white" transform="translate(3.5)"/>
</clipPath>
</defs>
</svg>
