<?xml version="1.0" encoding="UTF-8"?><svg id="uuid-9d102fcb-5915-45dd-bedf-c42965dbb8ca" xmlns="http://www.w3.org/2000/svg" width="55" height="55" viewBox="0 0 55 55"><path d="m43.37,43.1l1.87,1.87c9.659-9.63,9.683-25.268.053-34.927-.017-.018-.035-.035-.053-.052l-1.87,1.87c4.156,4.135,6.492,9.757,6.49,15.62-.091,5.844-2.413,11.432-6.49,15.62Z" style="fill:#000001; stroke-width:0px;"/><path d="m10.26,44.97l1.87-1.87c-8.507-8.676-8.507-22.564,0-31.24l-1.87-1.87c-9.659,9.63-9.683,25.268-.052,34.928.017.018.035.035.052.052Z" style="fill:#000001; stroke-width:0px;"/><path d="m27.75,45.96c-10.206,0-18.48-8.274-18.48-18.48S17.544,9,27.75,9s18.48,8.274,18.48,18.48c-.022,10.197-8.283,18.458-18.48,18.48Zm0-34.21c-8.687,0-15.73,7.043-15.73,15.73s7.043,15.73,15.73,15.73,15.73-7.043,15.73-15.73h0c.002-8.686-7.038-15.728-15.723-15.73-.002,0-.004,0-.007,0Z" style="fill:#000001; stroke-width:0px;"/><path d="m18.872,22.622h2.109l3.377,9.015h-1.87l-.716-1.934h-3.716l-.716,1.934h-1.833l3.364-9.015Zm2.311,5.512l-1.28-3.465-1.269,3.465h2.549Z" style="fill:#000001; stroke-width:0px;"/><path d="m24.999,22.622h3.716c.972,0,1.714.205,2.229.615s.772,1.005.772,1.783c0,.452-.108.846-.326,1.18-.218.335-.527.586-.93.754.478.159.852.429,1.124.81.271.381.408.831.408,1.35,0,.787-.271,1.404-.81,1.852-.54.448-1.287.672-2.241.672h-3.942v-9.015Zm4.607,3.396c.243-.18.364-.446.364-.798,0-.343-.121-.606-.364-.79-.243-.185-.599-.276-1.067-.276h-1.77v2.134h1.77c.469,0,.824-.09,1.067-.27Zm.232,3.767c.247-.205.37-.487.37-.848,0-.352-.125-.632-.376-.841-.252-.21-.591-.314-1.018-.314h-2.046v2.311h2.046c.436,0,.776-.103,1.023-.308Z" style="fill:#000001; stroke-width:0px;"/><path d="m33.624,31.279c-.678-.331-1.201-.798-1.569-1.4l1.344-1.055c.335.502.701.848,1.099,1.036s.848.282,1.35.282h.101c.276,0,.533-.048.771-.145.239-.096.429-.238.571-.427s.214-.412.214-.672c0-.275-.101-.479-.302-.608-.2-.13-.481-.24-.841-.333l-1.293-.313c-.544-.143-.992-.304-1.344-.483s-.626-.425-.822-.734-.295-.707-.295-1.193c0-.585.146-1.086.439-1.5s.688-.726,1.187-.936c.498-.209,1.057-.313,1.676-.313.687,0,1.293.134,1.82.401.527.269,1.005.674,1.432,1.218l-1.269,1.029c-.268-.376-.566-.644-.897-.803-.33-.159-.701-.239-1.111-.239h-.088c-.376,0-.707.082-.991.245-.285.163-.427.404-.427.722v.051c0,.176.035.313.106.414s.174.18.308.238.335.126.603.201l1.67.427c.703.176,1.258.461,1.663.854.406.394.609.913.609,1.557,0,.578-.148,1.093-.446,1.545-.297.452-.709.804-1.236,1.055s-1.121.376-1.782.376c-.82,0-1.569-.165-2.248-.495Z" style="fill:#000001; stroke-width:0px;"/></svg>