<svg xmlns="http://www.w3.org/2000/svg" width="39" height="39" viewBox="0 0 39 39"><g id="e49ffd9f-cb05-4631-b4d1-2dd57a5e0e86" data-name="illustration"><path d="M24.62,12.156a3.258,3.258,0,1,0-.015,0Z" style="fill:#000001"/><path d="M13.79,22.4l-3.413-.963A2.223,2.223,0,0,0,7.7,22.691L4,31.071a2.28,2.28,0,0,0,1.136,3.018l.056.024a1.937,1.937,0,0,0,.888.222A2.264,2.264,0,0,0,8.156,33l2.895-6.6,3.856,1.036Z" style="fill:#000001"/><path d="M23.576,14.829A2.285,2.285,0,0,0,20.56,15.97l-1.5,3.53a1.558,1.558,0,0,1,.3.814l1.414,6.53L24.7,17.8a2.22,2.22,0,0,0-1.081-2.948Z" style="fill:#000001"/><path d="M19.423,35.3a1.022,1.022,0,0,1-.962-.74L15.936,23.8a.992.992,0,0,1,1.933-.444l2.524,10.756a1,1,0,0,1-.74,1.185Z" style="fill:#000001"/><path d="M28.255,15.717a.867.867,0,0,1-.822-.518.925.925,0,0,1,.276-1.279.878.878,0,0,1,.094-.054L35,9.639a.933.933,0,0,1,1.289.281.885.885,0,0,1,.051.089.926.926,0,0,1-.281,1.279.83.83,0,0,1-.1.054l-7.262,4.3A.939.939,0,0,1,28.255,15.717Z" style="fill:#000001"/><path d="M10.007,3.7a7.469,7.469,0,1,0,.044,0Z" style="fill:#000001"/></g></svg>