<svg id="e81ff9fd-f1f9-46e6-9b09-6a99ff1f3554" data-name="Layer 1" xmlns="http://www.w3.org/2000/svg" width="140" height="39" viewBox="0 0 140 39"><path d="M24.613,12.151a3.26,3.26,0,1,0-3.259-3.259A3.26,3.26,0,0,0,24.613,12.151Z" style="fill:#000001"/><path d="M13.78,22.384l-3.409-.945A2.282,2.282,0,0,0,7.679,22.71l-3.728,8.4a2.283,2.283,0,0,0,1.16,3.012,2.208,2.208,0,0,0,.926.2,2.286,2.286,0,0,0,2.085-1.356l2.927-6.589,3.833,1.062Z" style="fill:#000001"/><path d="M23.525,14.81a2.286,2.286,0,0,0-3,1.18L19,19.5a2.954,2.954,0,0,1,.332.822l1.434,6.544L24.7,17.808A2.271,2.271,0,0,0,23.525,14.81Z" style="fill:#000001"/><path d="M19.4,35.29a.98.98,0,0,1-.952-.756l-2.49-10.755a.977.977,0,0,1,1.9-.443l2.49,10.755a.978.978,0,0,1-.73,1.173A.917.917,0,0,1,19.4,35.29Z" style="fill:#000001"/><path d="M28.2,15.735a.977.977,0,0,1-.5-1.818l7.17-4.237a.976.976,0,0,1,.991,1.682L28.694,15.6A.984.984,0,0,1,28.2,15.735Z" style="fill:#000001"/><path d="M5.4,5.211,3.649,3.459,2.234,4.875,3.985,6.627a7.5,7.5,0,0,0,0,9.092L2.306,17.4l1.416,1.416L5.4,17.135a7.5,7.5,0,0,0,9.093,0l1.751,1.752,1.416-1.416-1.752-1.752a7.5,7.5,0,0,0,0-9.092l1.68-1.68L16.173,3.531l-1.679,1.68a7.5,7.5,0,0,0-9.093,0ZM5.419,8.06a5.5,5.5,0,0,0,0,6.226l3.113-3.113Zm4.528,1.7L6.834,6.644a5.5,5.5,0,0,1,6.226,0Zm0,2.832L6.834,15.7a5.494,5.494,0,0,0,6.226,0Zm4.529,1.7-3.113-3.113L14.476,8.06a5.5,5.5,0,0,1,0,6.226Z" style="fill:#000001;fill-rule:evenodd"/><path d="M33.108,24.636A4.708,4.708,0,0,1,31.847,27.6L29.7,30.2h3.413v1.856H26.875V30.573l3.116-3.711A3.253,3.253,0,0,0,31.03,24.71c0-.742-.3-1.187-1.039-1.187-.668,0-1.187.445-1.187,1.41H26.875a3.019,3.019,0,0,1,3.191-3.265A2.786,2.786,0,0,1,33.108,24.636Z" style="fill:#000001"/><path d="M54.124,34.705l-4.437-11.42H47.239l-4.421,11.42h2.415l.946-2.528h4.568l.946,2.528ZM48.251,26.63l.212-.636.212.636,1.354,3.589H46.9Zm10.2,8.075V23.285H56.215v11.42Zm11.026,0-2.464-4.682a3.3,3.3,0,0,0,1.974-3.1c0-2.169-1.549-3.638-4.013-3.638H61.465v11.42H63.7v-4.29h1.012l2.235,4.29ZM63.7,25.374h1.273c1.06,0,1.746.522,1.746,1.549s-.686,1.534-1.746,1.534H63.7Zm11.544-2.089H71.623v11.42h4.144c2.381,0,3.866-1.337,3.866-3.36A2.69,2.69,0,0,0,78,28.767a2.665,2.665,0,0,0,1-2.219C79,24.525,77.561,23.285,75.244,23.285Zm-1.386,2.089h1.386c.914,0,1.485.44,1.485,1.337,0,.767-.555,1.257-1.452,1.257H73.858Zm0,4.535h1.909c.978,0,1.566.489,1.566,1.354,0,.881-.588,1.354-1.566,1.354H73.858Zm18.235,4.8-4.438-11.42H85.208l-4.421,11.42H83.2l.947-2.528h4.568l.946,2.528ZM86.219,26.63l.213-.636.212.636L88,30.219H84.865Zm12.324-3.557a5.606,5.606,0,0,0-5.71,5.906,5.634,5.634,0,0,0,5.759,5.938c3.132,0,5.269-1.957,5.269-5.383v-.995H98.738v2.088h2.741c-.13,1.435-1.223,2.2-2.887,2.2-2.072,0-3.443-1.631-3.443-3.85,0-2.2,1.371-3.818,3.345-3.818a2.674,2.674,0,0,1,2.838,1.795h2.447A5.034,5.034,0,0,0,98.543,23.073Zm17.148,0a5.7,5.7,0,0,0-5.922,5.906,5.914,5.914,0,1,0,11.828,0A5.7,5.7,0,0,0,115.691,23.073Zm0,2.088a3.541,3.541,0,0,1,3.589,3.818,3.605,3.605,0,1,1-7.194,0A3.545,3.545,0,0,1,115.691,25.161Zm14.852.213V23.285h-6.477v11.42H126.3V30.039h3.589V27.951H126.3V25.374Zm8.739,0V23.285h-6.477v11.42h2.235V30.039h3.59V27.951h-3.59V25.374Z" style="fill:#000001"/><path d="M51.315,4.005H47.644v11.42h2.235V11.363h1.436c2.463,0,4.013-1.55,4.013-3.671C55.328,5.522,53.778,4.005,51.315,4.005ZM49.879,6.093h1.436a1.53,1.53,0,0,1,1.729,1.6,1.526,1.526,0,0,1-1.729,1.582H49.879Zm16.578,9.332L62.019,4.005H59.572l-4.421,11.42h2.414l.947-2.529H63.08l.946,2.529ZM60.584,7.349l.212-.636.212.636,1.354,3.589H59.229ZM71.429,3.793a3.3,3.3,0,0,0-3.605,3.393c0,1.909,1.191,2.823,3.263,3.508,1.419.473,2.023.913,2.023,1.68s-.539,1.3-1.5,1.3a1.626,1.626,0,0,1-1.8-1.745H67.563c.049,2.169,1.4,3.7,4.013,3.7,2.153,0,3.785-1.256,3.785-3.459,0-1.713-.865-2.708-3.279-3.54-1.387-.489-2.007-.767-2.007-1.648a1.151,1.151,0,0,1,1.289-1.223,1.344,1.344,0,0,1,1.4,1.436h2.251A3.251,3.251,0,0,0,71.429,3.793Zm9.664,0a3.3,3.3,0,0,0-3.605,3.393c0,1.909,1.191,2.823,3.262,3.508,1.42.473,2.023.913,2.023,1.68s-.538,1.3-1.5,1.3a1.626,1.626,0,0,1-1.8-1.745H77.227c.049,2.169,1.4,3.7,4.013,3.7,2.153,0,3.785-1.256,3.785-3.459,0-1.713-.865-2.708-3.279-3.54-1.387-.489-2.007-.767-2.007-1.648a1.15,1.15,0,0,1,1.289-1.223,1.344,1.344,0,0,1,1.4,1.436h2.251A3.251,3.251,0,0,0,81.093,3.793Zm12.926,2.3V4.005H87.445v11.42h6.574V13.337H89.68V10.6h3.752V8.524H89.68V6.093Zm12.188,9.332V4.005h-2.235v7.733l-.473-.8L98.817,4.005H96.6v11.42h2.235V7.757l.441.751,4.715,6.917ZM114.38,3.793A5.606,5.606,0,0,0,108.67,9.7a5.635,5.635,0,0,0,5.759,5.938c3.132,0,5.269-1.958,5.269-5.384v-1h-5.122v2.088h2.741c-.131,1.436-1.224,2.2-2.888,2.2-2.072,0-3.442-1.632-3.442-3.85,0-2.2,1.37-3.818,3.344-3.818a2.676,2.676,0,0,1,2.839,1.8h2.447A5.035,5.035,0,0,0,114.38,3.793Zm14.428,2.3V4.005h-6.574v11.42h6.574V13.337h-4.339V10.6h3.752V8.524h-3.752V6.093Zm10.59,9.332-2.464-4.682a3.3,3.3,0,0,0,1.974-3.1c0-2.17-1.549-3.638-4.013-3.638h-3.507v11.42h2.235V11.134h1.011l2.235,4.291Zm-5.775-9.332H134.9c1.06,0,1.746.522,1.746,1.55,0,1.012-.686,1.534-1.746,1.534h-1.272Z" style="fill:#000001"/></svg>