<svg xmlns="http://www.w3.org/2000/svg" width="12" height="12" viewBox="0 0 12 12"><g id="a9566959-a60e-4ab2-a276-e0f151cb6da8" data-name="below"><circle cx="6" cy="6" r="6" style="fill:#000001"/></g><g id="a3938e29-f741-40ad-bc76-8661f38f601a" data-name="illustration"><path d="M6.1,10.025A1.8,1.8,0,0,1,4.3,8.216h.75a1.048,1.048,0,1,0,2.095,0H7.9A1.8,1.8,0,0,1,6.1,10.025Z" style="fill:#fff"/><path d="M8.228,4.2a1.149,1.149,0,1,0-1.14-1.148A1.144,1.144,0,0,0,8.228,4.2Z" style="fill:#fff"/><path d="M9.436,6.98V5.13a2.282,2.282,0,0,0-.04-.45,1.892,1.892,0,0,1-.72.33.487.487,0,0,1,.01.12V6.98a1.853,1.853,0,0,0,.21.86H3.336a2.444,2.444,0,0,0,.12-.86V5.07a2.56,2.56,0,0,1,1.92-2.42,2.5,2.5,0,0,1,.91-.06,1.849,1.849,0,0,1,.33-.71,3.342,3.342,0,0,0-1.44.05,3.3,3.3,0,0,0-2.47,3.14V6.98c0,.78-.16.86-.53.86v.75h7.84V7.84C9.706,7.84,9.436,7.45,9.436,6.98Z" style="fill:#fff"/></g></svg>