<svg xmlns="http://www.w3.org/2000/svg" width="55" height="55" viewBox="0 0 55 55"><g id="a3ed0f1a-1ed3-45bc-83d7-3eea266d0950" data-name="illustration"><g id="f9857d54-0128-4232-8bb8-7b9848262125" data-name="a8e47edc-010a-4b94-a16c-a1125da5830d"><path d="M10.263,44.9465l1.908-1.9079a22.01,22.01,0,0,1-.0492-31.1268l.04-.04-1.908-1.908a24.7046,24.7046,0,0,0-.0364,34.9376Z" style="fill:#000001"/><path d="M43.338,11.8619a22.0216,22.0216,0,0,1,.0239,31.1431l-.0239.0239,1.9079,1.9081a24.7154,24.7154,0,0,0,.03-34.9528l-.03-.03Z" style="fill:#000001"/><path d="M27.75,45.9A18.45,18.45,0,1,1,46.2,27.45,18.45,18.45,0,0,1,27.75,45.9Zm0-34.2A15.75,15.75,0,1,0,43.5,27.45,15.75,15.75,0,0,0,27.75,11.7Z" style="fill:#000001"/><path d="M27.75,20.203v8.6958" style="fill:none;stroke:#000001;stroke-miterlimit:10;stroke-width:2.6500000953674316px"/><path d="M29.2,31.7981H26.3009v2.8986H29.2Z" style="fill:#000001"/></g></g></svg>