<svg width="55" height="55" viewBox="0 0 55 55" fill="none" xmlns="http://www.w3.org/2000/svg">
<path d="M34.3511 18.039C36.7811 18.039 38.751 16.0691 38.751 13.639C38.751 11.209 36.7811 9.23901 34.3511 9.23901C31.921 9.23901 29.951 11.209 29.951 13.639C29.951 16.0691 31.921 18.039 34.3511 18.039Z" fill="black"/>
<path d="M19.7511 31.8389L15.1511 30.5389C13.6511 30.1389 12.1511 30.8389 11.5511 32.2389L6.55107 43.5389C5.85107 45.1389 6.55107 46.9389 8.15107 47.6389C8.55107 47.8389 8.95107 47.9389 9.35107 47.9389C10.5511 47.9389 11.6511 47.2389 12.1511 46.1389L16.0511 37.2389L21.2511 38.6389L19.7511 31.8389Z" fill="black"/>
<path d="M32.9511 21.6388C31.3511 20.9388 29.5511 21.6388 28.8511 23.2388L26.8511 27.9388C27.0511 28.2388 27.2511 28.6388 27.2511 29.0388L29.1511 37.8388L34.4511 25.6388C35.1511 24.1388 34.4511 22.3388 32.9511 21.6388Z" fill="black"/>
<path d="M27.3511 49.2389C26.7511 49.2389 26.2511 48.8389 26.0511 48.2389L22.6511 33.7389C22.4511 33.0389 22.9511 32.3389 23.6511 32.1389C24.3511 31.9389 25.0511 32.4389 25.2511 33.1389L28.6511 47.6389C28.8511 48.3389 28.3511 49.0389 27.6511 49.2389C27.5511 49.2389 27.4511 49.2389 27.3511 49.2389Z" fill="black"/>
<path d="M39.2511 22.8389C38.8511 22.8389 38.3511 22.6389 38.1511 22.1389C37.7511 21.5389 37.9511 20.7389 38.6511 20.3389L48.3511 14.6389C48.9511 14.2389 49.7511 14.4389 50.1511 15.1389C50.5511 15.7389 50.3511 16.5389 49.6511 16.9389L39.8511 22.7389C39.6511 22.8389 39.4511 22.8389 39.2511 22.8389Z" fill="black"/>
<path d="M14.6511 6.63892C9.05106 6.63892 4.55106 11.1389 4.55106 16.7389C4.55106 22.3389 9.05106 26.8389 14.6511 26.8389C20.2511 26.8389 24.7511 22.3389 24.7511 16.7389C24.7511 11.1389 20.1511 6.63892 14.6511 6.63892Z" fill="black"/>
</svg>
