<svg xmlns="http://www.w3.org/2000/svg" width="70" height="70" viewBox="0 0 70 70"><g id="f9248fa7-178c-48fa-b5e1-09421eb963dd" data-name="illustration"><path d="M24.058,53.629v-.023H10.518l5.165-5.167H15.7v-5.07l-3.782,3.77L3.657,55.407l8.519,8.518,3.519,3.52v-5.07l-5.2-5.19H19.31v.024H32.434v-3.58Z" style="fill:#000001"/><path d="M13.118,26.762l-.226-1.527H2.5v3.579H9.753c.024.334.036.644.036.942a52.522,52.522,0,0,1-.632,7.171h-5.5l-.179,1.586a2.237,2.237,0,0,1-.978,1.61v3.806a5.765,5.765,0,0,0,4.128-3.435H9.157A3.611,3.611,0,0,0,12.7,37.451a54.79,54.79,0,0,0,.668-7.695A23.644,23.644,0,0,0,13.118,26.762Z" style="fill:#000001"/><path d="M21.661,2.555h-3.58V13.292h3.58Z" style="fill:#000001"/><path d="M21.661,16.871h-3.58V20.45h3.58Z" style="fill:#000001"/><path d="M56.2,44.085a5.826,5.826,0,0,1-5.374-3.591H34.646a5.817,5.817,0,0,1-10.748,0H21.983l-3.937-2.645V29.986a3.59,3.59,0,0,1,3.2-3.566l7.672-1.1,7.648-5.7a3.618,3.618,0,0,1,2.07-.658h24.8A3.569,3.569,0,0,1,66.866,21.5a30.458,30.458,0,0,1,1.46,8.233,55,55,0,0,1-.67,7.72A3.564,3.564,0,0,1,64.1,40.507H61.563A5.792,5.792,0,0,1,56.2,44.085ZM31.666,36.9H53.82L54,38.495a2.226,2.226,0,0,0,4.429,0l.179-1.592h5.506a52.34,52.34,0,0,0,.634-7.181,26.875,26.875,0,0,0-1.3-7.181h-24.8l-8.306,6.2-8.629,1.233-.06,5.96,1.436.969H26.88l.179,1.592a2.226,2.226,0,0,0,4.428,0Z" style="fill:#000001"/></g></svg>