<svg width="55" height="55" viewBox="0 0 55 55" fill="none" xmlns="http://www.w3.org/2000/svg">
<path d="M42.9 36.2999C41.2 36.2999 35.2 36.1 32 33C30.6 31.7 29.9 30 29.9 28C29.9 26 30.6 24.3 32 22.9C35.6 19.3 42.9 19.2 43.3 19.2C43.7 19.2 44.2 19.4 44.5 19.7C44.6 19.8 47 22.8 47 27.7C47 32.6 44.6 35.6 44.5 35.7C44.2 36 43.8 36.2 43.4 36.2C43.3 36.3 43.2 36.2999 42.9 36.2999ZM42.5 22.2C40.1 22.3 32.9 23.2 32.9 27.9C32.9 29 33.3 29.9999 34.1 30.7999C36.1 32.7999 40.3 33.1999 42.5 33.2999C43 32.4 44 30.4 44 27.7C44 25.1 43.1 23.1 42.5 22.2Z" fill="black"/>
<path d="M12.7 36.3C12.3 36.3 11.8 36.1 11.5 35.8C11.4 35.7 9 32.7 9 27.8C9 22.9 11.4 19.9 11.5 19.8C11.8 19.5 12.2 19.3 12.6 19.3C12.9 19.3 20.3 19.1 23.9 22.6C25.3 23.9 26 25.6 26 27.6C26 29.6 25.3 31.3 23.9 32.7C20.3 36.2 13.1 36.3 12.7 36.3ZM13.5 22.2C12.9 23.1 12 25 12 27.7C12 30.3 12.9 32.3 13.5 33.2C15.9 33.1 23.1 32.2 23.1 27.5C23.1 26.4 22.7 25.4 21.9 24.6C19.9 22.7 15.6 22.2 13.5 22.2Z" fill="black"/>
<path d="M55 18.5999V14.8999L48.1 19.7999L49.8 22.1999L55 18.5999Z" fill="black"/>
<path d="M55 26.5H49.9V29.5H55V26.5Z" fill="black"/>
<path d="M55 36.5999L49.7 33.5999L48.2 36.1999L55 39.9999V36.5999Z" fill="black"/>
<path d="M6.8 19.6998L0 15.7998V19.2998L5.4 22.2998L6.8 19.6998Z" fill="black"/>
<path d="M5.2 26.4998H0V29.4998H5.2V26.4998Z" fill="black"/>
<path d="M0 36.5999V40.0999L6.8 36.1999L5.4 33.5999L0 36.5999Z" fill="black"/>
</svg>
