<svg width="55" height="56" viewBox="0 0 55 56" fill="none" xmlns="http://www.w3.org/2000/svg">
<path d="M52.5 55.01H49.5V37.66C48.27 37.34 46.09 36.87 43.93 36.87C41.81 36.87 39.78 37.32 38.62 37.64V55H35.62V35.47L36.62 35.11C36.76 35.06 40.15 33.87 43.94 33.87C47.71 33.87 51.33 35.05 51.48 35.1L52.51 35.44V55.01H52.5Z" fill="black"/>
<path d="M46.57 46.57H41.54L40.28 42.23C40.28 42.23 41.54 41.6 44.05 41.6C46.56 41.6 47.82 42.23 47.82 42.23L46.57 46.57Z" fill="black"/>
<path d="M21.66 36.95L19.98 34.46C22.49 32.78 23.98 29.97 23.98 26.96H26.98C26.99 30.97 25 34.71 21.66 36.95Z" fill="black"/>
<path d="M24.82 42.3L23.14 39.81C27.44 36.93 30 32.12 30 26.96H33C33.01 33.12 29.95 38.86 24.82 42.3Z" fill="black"/>
<path d="M10.94 30.75C7.27 30.75 3.67 29.57 3.52 29.52L2.5 29.17V1.6L3.5 1.24C3.64 1.19 7.03 0 10.82 0C14.59 0 18.21 1.18 18.36 1.23L19.39 1.57V29.16L18.36 29.5C18.21 29.56 14.62 30.75 10.94 30.75ZM5.5 26.96C6.72 27.28 8.85 27.74 10.94 27.74C13.03 27.74 15.16 27.28 16.38 26.96V3.79C15.15 3.47 12.97 3 10.81 3C8.69 3 6.66 3.45 5.5 3.77V26.96Z" fill="black"/>
<path d="M14.51 19.75H7.37V22.74H14.51V19.75Z" fill="black"/>
<path d="M13.4601 12.7H8.43005L7.18005 8.36001C7.18005 8.36001 8.44005 7.73001 10.9501 7.73001C13.4601 7.73001 14.7201 8.36001 14.7201 8.36001L13.4601 12.7Z" fill="black"/>
</svg>
