<svg xmlns="http://www.w3.org/2000/svg" width="70" height="70" viewBox="0 0 70 70"><g id="a0e4e762-d2e1-4bd7-b88d-73eaff5a4433" data-name="illustration"><path d="M14.753,59.127h-3.54v8.318h3.54Z" style="fill:#000001"/><path d="M14.753,44.922h-3.54v8.365h3.54Z" style="fill:#000001"/><path d="M14.753,30.8h-3.54v8.329h3.54Z" style="fill:#000001"/><path d="M35.659,54.137l-1.144-.567a31.053,31.053,0,0,1-7.209-5.155,31.53,31.53,0,0,1-5.156-7.209l-.566-1.144,23-22.995,1.132.531a28.661,28.661,0,0,1,7.138,5.061,32.224,32.224,0,0,1,5.262,7.315l.578,1.145Zm-9.733-13.4a26.3,26.3,0,0,0,3.881,5.191A26.828,26.828,0,0,0,35,49.807L54.324,30.481a27.7,27.7,0,0,0-3.988-5.3A25.033,25.033,0,0,0,45.275,21.4Z" style="fill:#000001"/><path d="M39.46,42.22l-5.948-5.948-2.5,2.494,5.948,5.948Z" style="fill:#000001"/><path d="M44.449,35.46,40.26,31.272l2.572-4.66a10.612,10.612,0,0,1,3.658,2.619,10.84,10.84,0,0,1,2.619,3.657Z" style="fill:#000001"/><path d="M48.968,49.748v17.7h3.539V46.208Z" style="fill:#000001"/><path d="M14.753,16.678h-3.54v8.294h3.54Z" style="fill:#000001"/><path d="M48.968,2.555v8.259l3.539,3.539V2.555Z" style="fill:#000001"/><path d="M14.753,2.555h-3.54v8.259h3.54Z" style="fill:#000001"/></g></svg>