<?xml version="1.0" encoding="UTF-8"?><svg id="uuid-100d0dcf-9a79-4c55-bc18-cdbfd0daf3b0" xmlns="http://www.w3.org/2000/svg" width="55" height="55" viewBox="0 0 55 55"><path d="m12.336,3.694c-3.878,3.88-6.276,9.238-6.276,15.157s2.4,11.281,6.28,15.16l2.121-2.121c-3.337-3.337-5.401-7.947-5.401-13.039s2.063-9.699,5.398-13.036c0,0-2.122-2.121-2.122-2.121Zm36.604,15.157c0,5.92-2.4,11.28-6.28,15.16l-2.121-2.121c3.337-3.337,5.401-7.947,5.401-13.039s-2.064-9.702-5.401-13.039l2.121-2.121c3.88,3.88,6.28,9.24,6.28,15.16Z" style="fill:#000001; fill-rule:evenodd; stroke-width:0px;"/><path d="m27.5,6.851c-6.627,0-12,5.373-12,12s5.373,12,12,12,12-5.373,12-12-5.373-12-12-12Zm-15,12c0-8.284,6.716-15,15-15s15,6.716,15,15-6.716,15-15,15-15-6.716-15-15Z" style="fill:#000001; fill-rule:evenodd; stroke-width:0px;"/><path d="m40.53,49.981c-2.01,1.75-5.09,1.77-7.13.06-2.67-2.24-2.64-6.32.08-8.53,2.11-1.71,5.24-1.58,7.22.27.51.47.9,1.02,1.19,1.6l-4.04-.02c-.41,0-.75.34-.75.75v3.5c0,.41.34.75.75.75l3.96.02c-.31.59-.74,1.13-1.28,1.6Z" style="fill:#000001; stroke-width:0px;"/><path d="m32.59,43.351l-16.98-.01c-1.38,0-2.49,1.12-2.49,2.49s1.11,2.49,2.49,2.49l16.98-.01v-4.96Z" style="fill:#000001; stroke-width:0px;"/><path d="m23.665,13.079h4.732c2.753,0,4.314,1.32,4.314,3.654,0,2.318-1.594,3.654-4.314,3.654h-2.366v4.25h-2.366v-11.559h0Zm6.697,3.654c0-1.079-.741-1.642-2.093-1.642h-2.238v3.284h2.238c1.352,0,2.093-.596,2.093-1.642Z" style="fill:#000001; stroke-width:0px;"/></svg>