<?xml version="1.0" encoding="UTF-8"?><svg id="uuid-29151c95-c614-4e5c-8d95-937c7e19568c" xmlns="http://www.w3.org/2000/svg" width="12" height="12" viewBox="0 0 12 12"><circle cx="6" cy="6" r="6" style="fill:#000001;"/><path d="m10.1194,5.4393c0-.169-.0506-.3318-.1462-.471-.0957-.1393-.2296-.2449-.3871-.3053l-.0199-.0076h.0008c.1381.0018.276-.0134.4103-.0452.0383-.0101.0719-.0325.0958-.0639.024-.0313.0368-.0698.0365-.1092v-.1417c0-.0279-.0065-.0555-.0191-.0804-.0125-.025-.0307-.0467-.0531-.0634-.1497-.1116-.3196-.1931-.5004-.2398l-.0865-.0223c-.0286-.0074-.0583-.0091-.0876-.0049-.0292.0042-.0574.014-.0828.0291-.0254.015-.0476.035-.0653.0586-.0177.0237-.0305.0506-.0378.0792l-.0952.3767-.6014-1.7007-.0065-.0164c-.0399-.0903-.1038-.1677-.1855-.2238-.0814-.0557-.1763-.0879-.2743-.0927-.3883-.0196-1.3617-.0655-2.0142-.0655s-1.626.0458-2.014.0655c-.0982.0049-.1932.037-.275.093-.0812.0559-.1451.1332-.185.2235l-.6078,1.7173-.0953-.3768c-.0073-.0286-.0201-.0555-.0378-.0792-.0177-.0236-.0398-.0436-.0653-.0586-.0255-.0151-.0536-.025-.0828-.0291-.0292-.0042-.059-.0025-.0876.0049l-.0863.0223c-.1808.0467-.3509.1282-.5006.2398-.0225.0167-.0406.0384-.0531.0634-.0126.025-.0191.0525-.0191.0804v.1417c-.0003.0395.0125.0779.0365.1092.0238.0313.0575.0538.0958.0639.1343.0318.2722.047.4103.0452h.001l-.0199.0076c-.1575.0605-.2914.166-.3872.3053-.0957.1392-.1463.3021-.1463.471v1.7216c0,.01.001.0211.0013.0315h-.0013v1.9457c0,.1424.0554.2762.1562.3769.1007.1005.2345.1559.3766.1559h.4483c.1422,0,.276-.0554.3769-.1562.1004-.1005.1558-.2343.1558-.3766v-.8121h5.2111v.8121c0,.1422.0554.2761.156.3769.1007.1005.2345.1559.3768.1559h.4482c.1421,0,.2759-.0554.3766-.1559.1007-.1007.1562-.2345.1562-.3769v-1.9457h-.0008c.0008-.0189.0008-.031.0008-.0337v-1.7194Zm-.4678.6406h-.8869v.2921c0,.1651-.1339.2989-.2989.2989s-.2989-.1338-.2989-.2989v-.2921H3.8331v.2921c0,.1651-.1339.2989-.2989.2989s-.2989-.1338-.2989-.2989v-.2921h-.8869v-.4588h.8874c.0029-.1626.1351-.2937.2984-.2937s.2955.1311.2984.2937h4.3348c.0028-.1626.1351-.2937.2984-.2937s.2956.1311.2984.2937h.8874v.4588ZM3.9565,2.8949c.0049-.0088.0116-.0163.0195-.0218.01-.0069.0215-.0108.0336-.0114.3846-.0195,1.3487-.0649,1.9905-.0649s1.6058.0454,1.9907.0649c.0117.0006.0232.0046.0328.0111.0083.0056.0151.0132.0199.0221l.5227,1.4784c-.425-.0446-1.2264-.1011-2.5648-.1011-1.3393,0-2.1421.0565-2.5676.1011l.5226-1.4784Z" style="fill:#fff;"/></svg>