<svg xmlns="http://www.w3.org/2000/svg" width="39" height="39" viewBox="0 0 39 39"><g id="acabc229-bb43-4461-a76a-7d016bf016a8" data-name="illustration"><path d="M27.111,6.035A18.67,18.67,0,0,0,19.5,7.686a18.67,18.67,0,0,0-7.611-1.651A18.174,18.174,0,0,0,3.4,8.142V32.9a29.425,29.425,0,0,1,8.489-1.475,30.98,30.98,0,0,1,7.634,1.211,25.289,25.289,0,0,1,7.588-1.211A23.193,23.193,0,0,1,35.6,32.965V8.142A18.174,18.174,0,0,0,27.111,6.035Zm6.732,24.507a26.589,26.589,0,0,0-6.732-.867A26.057,26.057,0,0,0,19.482,30.8a30.472,30.472,0,0,0-7.593-1.124,29.487,29.487,0,0,0-6.732.9V9.214a17.013,17.013,0,0,1,6.732-1.429,16.991,16.991,0,0,1,6.733,1.429V26.238a.878.878,0,1,0,1.756,0V9.214a16.574,16.574,0,0,1,13.465,0Z" style="fill:#000001"/><path d="M28,16.45H26.25v6.8H28Z" style="fill:#000001"/><path d="M27.123,15.484a1.037,1.037,0,1,0-1.066-1.036A1.051,1.051,0,0,0,27.123,15.484Z" style="fill:#000001"/></g></svg>