<svg xmlns="http://www.w3.org/2000/svg" width="39" height="39" viewBox="0 0 39 39"><g id="b49c52cc-edf6-4737-8348-4b2d56e2998c" data-name="Layer 1"><path d="M37.56,23.251c-.981,2.963-3.563,4.7-5.732,3.857-2.2-.839-3.15-3.941-2.169-6.931s7.256-8.5,7.256-8.5S38.542,20.261,37.56,23.251Z" style="fill:#000001"/><path d="M23.486,23.251c-.981,2.963-3.564,4.7-5.732,3.857-2.2-.839-3.151-3.941-2.17-6.931s7.256-8.5,7.256-8.5S24.467,20.261,23.486,23.251Z" style="fill:#000001"/><path d="M9.411,23.251c-.981,2.963-3.563,4.7-5.732,3.857-2.195-.839-3.15-3.941-2.169-6.931s7.256-8.5,7.256-8.5S10.393,20.261,9.411,23.251Z" style="fill:#000001"/></g></svg>