<?xml version="1.0" encoding="UTF-8"?><svg xmlns="http://www.w3.org/2000/svg" width="654" height="218" viewBox="0 0 654 218"><g id="uuid-f41155a1-ebd5-4477-913a-48f5cc9a920b"><line x1="487.8768" y1="48.2217" x2="485.4669" y2="44.3947" style="fill:none; stroke:#f2a900; stroke-miterlimit:20;"/><line x1="550.2185" y1="113.3501" x2="488.5628" y2="47.6915" style="fill:none; stroke:#f2a900; stroke-dasharray:0 0 4 2; stroke-miterlimit:20;"/><line x1="550.2185" y1="113.3501" x2="574.3684" y2="139.0679" style="fill:none; stroke:#f2a900; stroke-miterlimit:20;"/><path d="m651.0358,145.7259c-19.4144.6371-38.8254-.3616-58.1728-1.9654-4.8537-.4714-9.7169-.9425-14.5109-1.9513-1.4983-.3884-3.1195-.6225-4.3726-1.6797-1.05-1.0264-.1818-2.2895.8834-2.7187,5.7983-2.1541,12.1117-2.3026,18.1879-3.0171,19.3482-1.5728,38.7591-2.455,58.1698-1.9877-19.3488,1.3534-38.728,1.6725-58.0221,3.5596-5.8659.7306-11.9885.958-17.5614,2.9928-.1482.0748-.2757.1545-.3696.2239-.0873.0617-.0804.128-.0307-.0351.035-.2024-.0797-.3137-.0279-.2463,2.4397,1.383,5.4779,1.5576,8.2253,2.0804,22.4102,3.059,45.0647,2.9243,67.6017,4.7448h0Z" style="fill:#f2a900; stroke-width:0px;"/><path d="m485.4669,44.3947l163.5738,8.6184c1.3592.0716,2.7105.0992,4.0525.0839" style="fill:none; stroke:#f2a900; stroke-miterlimit:20;"/></g><g id="uuid-0ef6f38c-6ac9-4d87-906a-4955c44dcc8a"><path d="m373.0542,124.9158c-.2704-.2228-.5197-.4416-.7555-.6484-1.1275-.9892-2.0203-1.7733-4.1439-2.1208-3.0569-.5002-49.9451-9.4789-49.9451-9.4789" style="fill:none; stroke:#a7abae; stroke-linecap:round; stroke-linejoin:round; stroke-width:1.5px;"/><path d="m319.8792,12.9933l18.5517-1.677c19.6346-1.7749,47.1425-2.7734,65.0107-2.2185,15.1134.4694,29.588,2.1688,35.6693,2.8828,1.1123.1306,1.9383.2275,2.4381.2784,4.2284.43,6.4551,2.1365,9.1594,4.202.0237.0181.0474.0362.0712.0544,18.184,13.8869,32.1182,29.261,33.6292,30.9478,22.765,1.6728,34.2089,2.7986,41.5516,4.2324,7.1864,1.4033,15.9337,4.6651,20.1324,7.8466,1.0434.7906,1.8558,1.6126,2.2738,2.4422.1247.2475.1715.5204.1438.7849-.027.2587-.1252.5106-.2917.7241l.1223.0961c.2599.2042.4393.4919.509.8143.1255.5807.3937,1.8886.6684,3.6518.0412.2641.007.5357-.1001.7821l-.3179.7311.403.4298c.2054.2191.3346.4959.3716.7928.195,1.5624.3792,2.9554.5466,4.2222,1.0576,8.0005,1.4485,10.9689-.3529,19.2933.4959,5.3004.9369,11.1513.9924,14.5364.0566,3.4516-.5671,6.2261-1.4686,8.8177-.4605,1.3239-.9139,2.2767-1.6314,3.0277-.6843.7164-1.57,1.2091-2.8115,1.7057-2.5426,1.0171-16.2741,4.4049-21.0368,5.3464-3.7577.7428-6.0484.4385-8.5177.1107-.7282-.0967-1.4663-.1946-2.1818-.2689-19.2486,1.4592-42.7447,3.0171-44.7551,3.15-1.9633,1.3502-3.1496,1.3978-6.0844,1.529-.2268.0101-.4642.0207-.7139.0324-3.5509.1664-10.1511.3883-13.815.4438-3.6796.0558-6.4702-.0562-11.3638-.5567-1.9418-.1986-3.6549-.3355-5.2175-.4604-2.3444-.1874-4.3615-.3483-6.2812-.6514-1.4517-.2292-2.7955-.8925-3.9532-1.9101-1.551-1.3632-2.7668-3.3594-3.4867-5.8137-.4515-1.5393-1.5518-5.5759-2.8275-10.2564-2.1875-8.0253-4.8883-17.933-5.7568-20.5387-.0355-.1066-.0716-.215-.1081-.3251-.9971-3.0002-2.3954-7.1752-5.3316-9.8806-1.1891-1.0956-2.6289-1.9472-4.4012-2.3791-6.5242-1.5899-12.341-1.537-17.3051-1.2061-1.3985.0932-2.4972.6119-3.3806,1.3986-2.0654,1.8394-2.9898,5.1718-3.5316,8.1129-.7734,4.1983-2.6506,20.8952-2.5411,25.0006.0456,1.7101.3422,3.4397.6732,4.8743" style="fill:none; stroke:#a7abae; stroke-linecap:round; stroke-linejoin:round; stroke-width:1.5px;"/><path d="m322.181,16.4226l17.5509-1.0707s18.8393-1.1493,21.8376-1.2993,5.4469-.1499,8.3453-.2998,30.0829-.1999,43.975.3498,36.5864,2.8101,36.5864,2.8101" style="fill:none; stroke:#a7abae; stroke-linecap:round; stroke-linejoin:round; stroke-width:.5px;"/><path d="m362.3078,10.2175c1.6082-.0751,3.7211-.2533,5.5279,3.6233,1.1509,2.4693,12.0738,26.7024,15.5388,34.9129" style="fill:none; stroke:#a7abae; stroke-linecap:round; stroke-linejoin:round; stroke-width:.5px;"/><path d="m361.5695,14.0526c4.2287,9.6813,10.449,24.2695,14.8312,35.067" style="fill:none; stroke:#a7abae; stroke-linecap:round; stroke-linejoin:round; stroke-width:.5px;"/><path d="m316.681,98.2213l54.1198,8.7518c.8366-11.0041,1.6278-16.7898,3.3463-23.2953,1.8018-6.8213,3.5759-8.9942,8.2069-9.907,4.631-.9128,14.0281-.229,19.4381,1.4946,5.0114,1.5966,7.6795,4.1666,10.2141,10.4525,1.3311,3.3011,3.0042,7.6126,3.9051,10.1867s1.287,2.7671,3.6037,3.0245,5.2768.6435,13.1277,1.094,29.3444.9009,29.3444.9009c0,0,.9009,1.1583,3.2176,1.1583s25.612-.4505,43.4374-1.287,26.0624-1.6088,28.2504-1.7375,2.9602-1.8662,2.9602-1.8662c5.1481-.3861,5.856-2.1236,5.856-2.1236l2.7028-.2574,1.1525-.5341" style="fill:none; stroke:#a7abae; stroke-linecap:round; stroke-linejoin:round; stroke-width:.5px;"/><path d="m316.4879,100.731s51.3527,8.591,52.511,8.784,1.6691-.8369,1.8018-2.5419" style="fill:none; stroke:#a7abae; stroke-linecap:round; stroke-linejoin:round; stroke-width:.5px;"/><path d="m370.286,90.306c.5023-3.8657,1.1852-7.7097,2.1377-11.5002.7978-3.7926,2.7734-7.8592,6.6887-9.2238,3.72-1.3993,7.7571-1.2914,11.6542-1.1165,3.9035.2571,7.781.88,11.5595,1.9039,8.1947,1.9021,11.4155,10.5569,14.2585,17.5252.3681.8709,1.0091,1.5687,1.9097,1.8292,1.5775.4249,4.0806.2773,5.7498.4211,1.9263.1365,4.0371.3193,4.4633-2.0634.3527-2.8496.1978-5.832.3962-8.7153-.0133,2.9451.2948,5.8581-.0329,8.7937-.4696,2.6192-2.7149,2.6082-4.8348,2.4259,0,.0001-2.9261-.1217-2.9261-.1217-1.4187-.068-3.1683.0279-4.2871-1.1052-.3744-.37-.6412-.8238-.847-1.2786-1.408-3.6446-3.0322-7.1805-5.0091-10.5075-4.1437-7.2283-12.9407-7.9103-20.4301-8.6276-18.3481-1.2204-16.9086,6.6336-20.4505,21.3607h0Z" style="fill:#a7abae; stroke-width:0px;"/><path d="m548.4115,94.8107c.1287-2.4454.1287-2.7028-1.9306-2.381s-6.6282.9261-6.6282.9261c0,0-.2016-1.6217-2.1255-1.4678-1.6088.1287-18.4027,1.1852-33.3323,1.7643s-35.4456.9653-37.5814,1.0296c-3.4738.1047-4.8264,1.9306-4.8264,1.9306,0,0-21.1074,0-23.3597.0644s-4.1185.5792-5.9847,3.3463c0,0-.0644,4.3116-.0644,7.0787s.7079,4.762,3.2819,5.5986,9.0736,2.4454,12.2912,3.1532,6.8856.9653,11.9694,1.0296,18.7907-.1931,20.2708-.2574,2.3167-.9009,3.475-1.5444,1.9949-1.4157,4.3759-1.5444,38.5467-2.3167,39.9624-2.381,2.0593.1287,3.2819,1.1583,1.8662,1.287,3.9898,1.1583,7.8509-.5792,10.1676-1.0296,3.3463-1.1583,3.668-4.762.5633-9.9143.5633-9.9143" style="fill:none; stroke:#a7abae; stroke-linecap:round; stroke-linejoin:round; stroke-width:.5px;"/><path d="m461.9872,116.8934l.7078,1.2125v1.6731c-2.1236,3.7968-8.6243,10.229-14.158,12.4506" style="fill:none; stroke:#a7abae; stroke-linecap:round; stroke-linejoin:round; stroke-width:.5px;"/><path d="m545.0081,112.5532v1.756c-1.8734,3.5393-7.7275,8.8885-10.4312,10.4933" style="fill:none; stroke:#a7abae; stroke-linecap:round; stroke-linejoin:round; stroke-width:.5px;"/><path d="m513.3405,126.8367c7.1864-1.3949,13.6969-5.3185,19.7553-9.3098-5.9507,4.2378-12.3649,8.5059-19.6844,9.8049-.3152.0468-.3927-.4515-.0709-.4952h0Z" style="fill:#a7abae; stroke-width:0px;"/><path d="m468.3503,130.0338c4.009-2.8185,7.65-6.1647,11.1405-9.6111-3.2697,3.6885-6.714,7.3109-10.8668,10.0297-.2667.1743-.541-.2404-.2737-.4185h0Z" style="fill:#a7abae; stroke-width:0px;"/><line x1="461.9871" y1="100.9241" x2="461.9871" y2="96.6125" style="fill:none; stroke:#a7abae; stroke-linecap:round; stroke-linejoin:round; stroke-width:.5px;"/><line x1="539.8527" y1="97.1917" x2="539.8527" y2="93.3558" style="fill:none; stroke:#a7abae; stroke-linecap:round; stroke-linejoin:round; stroke-width:.5px;"/><path d="m372.2241,93.0818s-37.7823-4.9074-54.5738-7.7264" style="fill:none; stroke:#a7abae; stroke-linecap:round; stroke-linejoin:round; stroke-width:.5px;"/><path d="m372.9183,49.1451c4.782.1581,9.2747-.2944,18.0212-.9383s36.4908-2.0747,60.6351-1.8854c19.5314.1531,32.5958,1.6256,32.5958,1.6256" style="fill:none; stroke:#a7abae; stroke-linecap:round; stroke-linejoin:round; stroke-width:.5px;"/><path d="m383.6245,48.7537c-.0468,1.0422-.3983,2.1377-.3948,3.1031.1804.9507,1.5971.869,2.4084.9419,2.11.1026,4.2215.1931,6.3304.329,11.4701.8819,23.7646.7376,33.9243,6.8775.8797.6038,1.6634,1.4406,1.9914,2.46-1.0013-1.9252-3.1137-2.724-4.9868-3.5592-1.9477-.7875-3.91-1.5697-5.9195-2.1739-4.0175-1.2363-8.2136-1.7781-12.4099-2.125-6.0784-.5106-12.8343-.8983-18.9586-1.2497-2.3044-.0912-3.3981-.5625-2.7049-3.078.0894-.5229.1855-1.0783.2231-1.5627.0292-.3178.5178-.285.497.037h0Z" style="fill:#a7abae; stroke-width:0px;"/><path d="m542.88,87.2206c-1.96.12-3.71-2.59-3.97-6.11l-.485-6.535-.485-6.535c-.2651-3.5723,1.1-6.57,3.07-6.75,2.01-.19,3.9315,2.5582,4.2,6.21l.95,12.92c.3993,3.613-1.28,6.67-3.28,6.8Z" style="fill:none; stroke:#a7abae; stroke-linecap:round; stroke-linejoin:round; stroke-width:.5px;"/><path d="m543.4101,85.3485c-1.6153.0989-3.0576-2.1345-3.2719-5.0355l-.4355-5.8329-.4355-5.8329c-.2185-2.9441.9065-5.4146,2.5301-5.5629,1.6565-.1566,3.2401,2.1083,3.4614,5.1179l.8545,11.5421c.329,2.9776-1.0549,5.497-2.7032,5.6041Z" style="fill:none; stroke:#a7abae; stroke-linecap:round; stroke-linejoin:round; stroke-width:.5px;"/><path d="m540.0149,64.473c.9951.3773,1.8406,1.8668,1.9785,3.7429l.988,12.2768c.1999,1.809-.445,3.3919-1.3548,3.9665" style="fill:none; stroke:#a7abae; stroke-linecap:round; stroke-linejoin:round; stroke-width:.5px;"/><path d="m468.28,83.4406c.09,3.34-2.05,6.28-5.13,6.82-4.4602.7717-7.3412-3.3528-7.44-6.83l-.36-14.02c-.09-3.34,2.05-6.28,5.13-6.82,4.2245-.7433,7.3255,3.0494,7.43,6.83l.3701,14.02Z" style="fill:none; stroke:#a7abae; stroke-linecap:round; stroke-linejoin:round; stroke-width:.5px;"/><path d="m467.2173,82.7652c.0706,2.8083-1.6096,5.2684-4.0279,5.7058-3.502.6248-5.764-2.8579-5.8416-5.7817l-.2827-12.788c-.0706-2.8083,1.6096-5.2684,4.0279-5.7058,3.3169-.6022,5.7517,2.6028,5.8338,5.7816l.2906,12.7881Z" style="fill:none; stroke:#a7abae; stroke-linecap:round; stroke-linejoin:round; stroke-width:.5px;"/><path d="m464.183,82.3191c.0492,2.1752-1.1211,4.0898-2.8055,4.4414-2.4391.5026-4.0147-2.1835-4.0687-4.448l-.1969-12.062c-.0492-2.1752,1.1211-4.0898,2.8055-4.4414,2.3103-.4841,4.0061,1.9859,4.0633,4.448l.2024,12.062Z" style="fill:none; stroke:#a7abae; stroke-linecap:round; stroke-linejoin:round; stroke-width:.5px;"/><path d="m457.0922,64.5025s-21.7467-.3876-25.286-.5163-9.6528-.0644-11.519.0644-3.2744.3371-1.0296,4.8907c2.2523,4.569,4.5631,3.7664,8.044,3.9255,4.4469.2033,23.2372.7713,28.157.7713" style="fill:none; stroke:#a7abae; stroke-linecap:round; stroke-linejoin:round; stroke-width:.5px;"/><path d="m466.3899,65.0651c2.8543.0251,20.0381.1483,39.8712-.3215,20.0207-.4742,30.5979-.7248,32.1411-.7613" style="fill:none; stroke:#a7abae; stroke-linecap:round; stroke-linejoin:round; stroke-width:.5px;"/><path d="m468.0399,74.3414c3.5111-.0559,22.4096-.3655,39.1196-.8092,16.3424-.4339,28.4809-1.095,31.0958-1.2436" style="fill:none; stroke:#a7abae; stroke-linecap:round; stroke-linejoin:round; stroke-width:.5px;"/><path d="m547.5135,63.5749c-.9522.4274-3.0816.6126-3.0816.6126" style="fill:none; stroke:#a7abae; stroke-linecap:round; stroke-linejoin:round; stroke-width:.5px;"/><path d="m548.511,69.6709c-.3811.5333-1.7084,1.4262-3.0115,1.7158" style="fill:none; stroke:#a7abae; stroke-linecap:round; stroke-linejoin:round; stroke-width:.5px;"/><path d="m453.7786,72.2237c-6.5265-.0871-22.3222-.5679-26.4133-.7549-.5459-.0254-1.0645-.0273-1.5596-.0293-2.584-.0117-3.7637-.0166-5.292-3.1172-.8496-1.7217-.9951-2.4844-1.0098-2.7754.2451-.0557.6738-.085.8799-.0996,1.1523-.0791,3.8682-.1309,6.584-.1309,1.7314,0,3.4629.0205,4.7881.0693,2.7663.1008,16.3292.3536,22.3965.4641l.4092.0074s-.7496,1.3427-.7496,3.148-.0334,3.2184-.0334,3.2184Z" style="fill:none; stroke:#a7abae; stroke-linecap:round; stroke-linejoin:round; stroke-width:.5px;"/><path d="m536.8502,65.4194l-6.4498.1529-24.1064.5703c-12.3135.292-23.6357.3555-31.1523.3555-2.5728,0-4.6996-.0075-6.2678-.0157.4981,1.4041.5472,2.1882.5472,3.0213s.0467,3.4151.0467,3.4151c6.5293-.1081,22.9934-.3972,37.6543-.7859,14.3791-.3818,25.6413-.9399,29.8051-1.1648-.3891-3.9392-.2519-4.9036-.0769-5.5486Z" style="fill:none; stroke:#a7abae; stroke-linecap:round; stroke-linejoin:round; stroke-width:.5px;"/><path d="m548.3962,64.672c-.95.6013-2.7713.7983-3.5029.8768" style="fill:none; stroke:#a7abae; stroke-linecap:round; stroke-linejoin:round; stroke-width:.5px;"/><path d="m545.3873,69.9713c1.0769-.2631,3.6054-1.1538,3.6054-2.0413" style="fill:none; stroke:#a7abae; stroke-linecap:round; stroke-linejoin:round; stroke-width:.5px;"/><path d="m432.6428,100.0231c6.3386,2.928,15.7169,5.3157,35.0212,4.9538,19.3043-.3618,32.719-1.0878,49.1253-2.0179s23.644-1.4399,27.8898-1.8419,5.0944-.9662,5.1117-1.3516-4.0821-4.6975-4.0821-4.6975" style="fill:none; stroke:#a7abae; stroke-linecap:round; stroke-linejoin:round; stroke-width:.5px;"/><line x1="545.7087" y1="95.0681" x2="545.7087" y2="92.5677" style="fill:none; stroke:#a7abae; stroke-linecap:round; stroke-linejoin:round; stroke-width:.5px;"/><path d="m472.5677,78.4428c.3679,10.7202,3.5984,9.4067,12.5903,9.1982,13.0649-.3848,26.131-.8034,39.1867-1.4205,1.5528-.0824,5.8226-.3065,7.3402-.3987,1.5263-.1026,3.3948.0243,4.2863-1.4431,1.1639-2.1351.8568-4.7677.7824-7.1347.2257,2.4067.6527,5.0521-.5028,7.3076-.9041,1.6085-2.9526,1.5675-4.5391,1.6854-1.5061.1138-5.7685.3636-7.3425.4531-13.057.7179-26.1258,1.1562-39.1977,1.4712-8.9735.2618-12.9824,1.2259-12.6038-9.7185h0Z" style="fill:#a7abae; stroke-width:0px;"/><path d="m498.5879,55.8546c-.1373.2232-.1202.4807.4979.6009s3.7425.9785,4.3948,1.1502,1.0129.2232,1.2189-.1888.309-.7554.3433-.9442.0858-.5665-.8412-.8069-3.8111-.927-4.2232-1.03-.7036-.0068-.8755.2747c-.2647.4335-.515.9442-.515.9442Z" style="fill:none; stroke:#a7abae; stroke-linecap:round; stroke-linejoin:round; stroke-width:.5px;"/><ellipse cx="391.1438" cy="122.7165" rx="12.8641" ry="24.7328" transform="translate(-7.2019 25.8998) rotate(-3.7579)" style="fill:none; stroke:#a7abae; stroke-linecap:round; stroke-linejoin:round; stroke-width:.5px;"/><path d="m546.1764,121.7019c-1.6363,10.3061-4.8147,16.7736-9.3071,20.8712-6.0732,5.5394-14.4334,6.6344-24.1447,7.2723-3.9023.2563-7.6629-.9224-11.0407-3.1992-5.3178-3.5845-9.7008-9.8965-12.2794-17.7038" style="fill:none; stroke:#a7abae; stroke-linejoin:round; stroke-width:1.5px;"/><path d="m532.325,125.8278c-2.1441,12.7822-13.1384,26.9581-27.3503,20.8696,10.102,3.7251,19.498-2.6155,23.7275-11.7374,1.4124-2.93,2.4593-6.0385,3.1327-9.2309.0543-.3117.5604-.2243.4902.0986h0Z" style="fill:#a7abae; stroke-width:0px;"/><path d="m520.2412,127.6941c-2.2724,4.9259-6.0052,8.2204-10.409,8.5097-4.6869.3078-9.0653-2.8585-11.9757-7.9813" style="fill:none; stroke:#a7abae; stroke-linecap:round; stroke-linejoin:round; stroke-width:.5px;"/><path d="m519.0313,129.944c-.9747.5295-2.0257.8491-3.1318.9217-2.6788.176-5.2265-1.1261-7.2757-3.4255" style="fill:none; stroke:#a7abae; stroke-linecap:round; stroke-linejoin:round; stroke-width:.5px;"/><path d="m371.6678,123.0882s-4.2573-4.8427-5.3598-6.014-2.6873-2.4117-5.5125-2.963-44.5132-7.6485-44.5132-7.6485" style="fill:none; stroke:#a7abae; stroke-linecap:round; stroke-linejoin:round; stroke-width:.5px;"/><path d="m391.7888,53.4172c-3.3482-.1999-38.041-1.2349-56.4451-1.7766" style="fill:none; stroke:#a7abae; stroke-linecap:round; stroke-linejoin:round; stroke-width:.5px;"/><polyline points="408.4091 79.3619 410.6503 76.3915 418.1653 70.5719 419.8749 70.0546" style="fill:none; stroke:#a7abae; stroke-linecap:round; stroke-linejoin:round; stroke-width:.5px;"/><path d="m324.7555,18.2314l14.9764-.9137s13.4456-.8203,19.4267-1.1653c1.5603-.09,2.2974,1.3993,2.7995,2.5598,4.0311,9.3185,9.0909,21.2509,12.8198,30.4387" style="fill:none; stroke:#a7abae; stroke-linecap:round; stroke-linejoin:round; stroke-width:.5px;"/><path d="m368.3607,33.6947s-1.2474,7.713-1.6145,10.8235" style="fill:none; stroke:#a7abae; stroke-linecap:round; stroke-linejoin:round; stroke-width:.5px;"/><path d="m369.3646,36.0775s-.8612,5.3397-1.3741,9.0563" style="fill:none; stroke:#a7abae; stroke-linecap:round; stroke-linejoin:round; stroke-width:.5px;"/><path d="m361.1203,47.9765c-1.2472-.0136-23.6348-.2036-25.2833-.2381" style="fill:none; stroke:#a7abae; stroke-linecap:round; stroke-linejoin:round; stroke-width:.5px;"/><path d="m346.2113,16.9243s-3.1191,12.0427-5.2121,25.0618" style="fill:none; stroke:#a7abae; stroke-linecap:round; stroke-linejoin:round; stroke-width:.5px;"/><path d="m340.5254,17.2693s-4.0104,11.2752-7.2101,25.9475" style="fill:none; stroke:#a7abae; stroke-linecap:round; stroke-linejoin:round; stroke-width:.5px;"/><path d="m331.4654,53.6995c-3.3328,10.1454-.9578,33.6501-.9578,33.6501,2.2935,4.1148,2.4816,13.5089,2.4816,13.5089l-1.6165,2.3626s.0542,3.5323.9344,5.9749l1.7352,5.9895" style="fill:none; stroke:#a7abae; stroke-linecap:round; stroke-linejoin:round; stroke-width:.5px;"/><path d="m343.7932,15.105s-3.6926,11.1911-6.759,27.2679" style="fill:none; stroke:#a7abae; stroke-linecap:round; stroke-linejoin:round; stroke-width:.5px;"/><path d="m374.7779,49.1509l-2.1731,3.0354c-4.7275,8.6926-5.7725,22.1333-4.11,40.4067,0,0,2.0048,4.4118,2.6541,10.0878" style="fill:none; stroke:#a7abae; stroke-linecap:round; stroke-linejoin:round; stroke-width:.5px;"/><path d="m340.71,59.5506c-.14.79-.65,1.37-1.16,1.34,0,0-4.98-.29-5-.29-.54-.09-.86-.84-.72-1.67.14-.79.65-1.36,1.16-1.33,0,0,4.97.28,5,.29.54.09.86.84.72,1.66Z" style="fill:none; stroke:#a7abae; stroke-linecap:round; stroke-linejoin:round; stroke-width:.5px;"/><path d="m396.2563,47.6121c15.5157.5804,31.1084,2.7207,45.888,7.5851-14.8667-4.5069-30.4255-6.3613-45.899-7.0853-.315-.0007-.3208-.5132.011-.4998h0Z" style="fill:#a7abae; stroke-width:0px;"/><path d="m455.4181,46.1192c20.5645.5855,41.199,2.6664,61.2036,7.5851-20.0741-4.5602-40.6775-6.3542-61.2119-7.0852-.3115,0-.3254-.5073.0083-.4998h0Z" style="fill:#a7abae; stroke-width:0px;"/><path d="m427.5591,130.8663c-.9695,10.1507-4.3425,18.733-9.2273,23.592-2.4419,2.4291-5.2776,3.9414-8.3845,4.2216l-12.664,1.1421c-2.2236.2005-4.4496-.3135-6.5311-1.2677-3.5271-1.6168-6.6915-4.52-8.8311-7.5094-4.5571-6.3669-7.8047-16.1145-8.5303-27.1623-.7319-11.1428,1.2526-21.3105,5.0001-28.2231,1.7307-3.1925,4.4673-6.4212,7.7186-8.4488,1.928-1.2024,4.0537-1.9925,6.2677-2.0839l12.7046-.5242c.2422-.01.4839-.0124.725-.0073" style="fill:none; stroke:#a7abae; stroke-linejoin:round; stroke-width:1.5px;"/><path d="m394.7519,86.7312c6.7213,2.0013,10.7359,8.581,13.3747,14.6696,6.0887,14.9901,6.8669,35.2204-1.2883,49.564-1.7322,2.927-4.2279,5.5159-7.336,6.9217,6.0841-3.3019,9.0094-10.1091,10.8094-16.4689,3.3007-13.0494,2.3495-27.3239-2.664-39.8148-2.6362-6.0589-6.4329-12.402-12.8956-14.8717h0Z" style="fill:#a7abae; stroke-width:0px;"/><path d="m474.4353,36.3257h4.7436c.4482,0,1.4076.0365,2.6384.5177.9379.3667,2.0229.9875,3.1546,2.0322,1.263,1.1659,1.9409,1.9306,2.2742,2.6939.31.7098.3016,1.378.3001,2.1978-.0001.0671-.0003.1354-.0003.2056,0,1.3802-.237,2.5125-1.0621,3.5381" style="fill:none; stroke:#a7abae; stroke-linecap:round; stroke-linejoin:round; stroke-width:1.5px;"/><path d="m482.9456,44.8898h1.6873c1.3031,0,2.403-.2413,2.403-.4831" style="fill:none; stroke:#a7abae; stroke-linecap:round; stroke-linejoin:round; stroke-width:.5px;"/><path d="m484.0053,44.5039c.6757-.8381,1.3384-1.0606,3.9994-1.0606" style="fill:none; stroke:#a7abae; stroke-linecap:round; stroke-linejoin:round; stroke-width:.5px;"/><path d="m440.9514,12.6972c1.9349.2599,5.5871,2.5043,7.519,4.0206,5.5371,4.3459,22.9169,19.4788,32.9534,30.9604" style="fill:none; stroke:#a7abae; stroke-linecap:round; stroke-linejoin:round; stroke-width:.5px;"/><path d="m454.9728,63.2783c2.2369-3.5255,7.042-2.8431,10.6303-3.0342,0,0,11.4894-.257,11.4894-.257,19.8511-.3989,43.3172-.4545,63.2125-.3693,1.9781-.119,3.8762,1.2724,4.3096,3.2101-.5359-1.8842-2.3709-3.1214-4.3096-2.9663-19.9047.3094-43.3413.1193-63.2026.6174-3.8301.0731-7.6592.181-11.4915.2062-3.5318.1472-8.2777-.7131-10.6381,2.5931h0Z" style="fill:#a7abae; stroke-width:0px;"/><line x1="457.3217" y1="96.6143" x2="457.3217" y2="100.8145" style="fill:none; stroke:#a7abae; stroke-linecap:round; stroke-linejoin:round; stroke-width:.5px;"/><line x1="541.4679" y1="93.0896" x2="541.4679" y2="97.0146" style="fill:none; stroke:#a7abae; stroke-linecap:round; stroke-linejoin:round; stroke-width:.5px;"/></g><g id="uuid-b882966f-cbb0-4891-aa1a-5ef11787b9ac"><path d="m358.9688,47.4233s-9.3407-.1194-10.3889-.1899-1.4598-.2351-2.0024-.4797-1.5155-.6543-1.9267-1.1794-1.1214-1.496-1.2324-2.638-.1476-1.9211-.1281-2.5278.2821-1.1867.6383-1.6311,2.2678-2.4154,3.0171-2.9234,1.1239-.6672,2.4533-.9675,3.8571-.81,6.0288-1.0461c.6927-.1113,1.4976-.0484,1.9842.0616s2.2456.6201,3.218,1.4472,2.4686,2.0502,4.3565,4.4618c.598.9104.7822,1.5998.4238,3.9985,0,0,1.2185.36,1.9294.7995s5.3307,3.6951,5.3307,3.6951c0,0,.3734.8655.2605,1.4123,0,0-1.2926.8707-2.2852,1.3142,0,0-.955.255-1.5164.1237s-4.828-1.3265-5.5578-1.5389c-1.44-1.1833-2.3752-1.8955-4.6024-2.1923Z" style="fill:none; stroke:#a7abae; stroke-linecap:round; stroke-linejoin:round;"/><path d="m346.2229,43.8554s-2.2554-.5355-2.7801-.7281" style="fill:none; stroke:#a7abae; stroke-linecap:round; stroke-linejoin:round; stroke-width:.5px;"/><path d="m365.4101,43.8097s-.2249.1575-.946.2258c-1.241.1175-6.5576.1452-9.3473.132" style="fill:none; stroke:#a7abae; stroke-linecap:round; stroke-linejoin:round; stroke-width:.5px;"/><path d="m355.1168,44.1675s-.7148-.6649-1.4839-1.2764-1.5028-.6159-1.9375-.6662-1.0596-.0788-3.1427-.1901-3.6403-.6174-5.2664-1.145" style="fill:none; stroke:#a7abae; stroke-linecap:round; stroke-linejoin:round; stroke-width:.5px;"/><path d="m346.2229,43.8554c1.3583.2891,8.2027.3835,8.8939.3121" style="fill:none; stroke:#a7abae; stroke-linecap:round; stroke-linejoin:round; stroke-width:.5px;"/><path d="m344.7076,43.4821l-.4449-.117c-.129-.0339-.2232-.1491-.2318-.2832l-.1003-1.5649c-.0134-.2092.1806-.3631.3794-.301l.1526.0477" style="fill:none; stroke:#a7abae; stroke-linecap:round; stroke-linejoin:round; stroke-width:.5px;"/><path d="m346.2229,43.8554c1.3583.2891,8.2027.3835,8.8939.3121" style="fill:none; stroke:#a7abae; stroke-linecap:round; stroke-linejoin:round; stroke-width:.5px;"/><path d="m357.6938,44.1686s.2133-.041.3708.2018.3427.5872.3427.5872c0,0,.0925.2851-.0749.5809s-.4367.7202-.6412.8925-.6497.6715-2.2929.9425" style="fill:none; stroke:#a7abae; stroke-linecap:round; stroke-linejoin:round; stroke-width:.5px;"/><path d="m358.9688,47.4233c2.2522.0947,3.7516.1766,5.0323.9323s3.7288,2.2987,3.7288,2.2987" style="fill:none; stroke:#a7abae; stroke-linecap:round; stroke-linejoin:round; stroke-width:.5px;"/><path d="m345.5605,42.5571l.0157.3384c.0033.0711.0352.132.0768.1449.2492.0777,1.2492.404,2.0901.4074,1.3227.0053,3.2322.0835,3.7712.1066.0498.0021.0686-.1029.0286-.1589l-.3107-.4355c-.0163-.0228-.0357-.0358-.0559-.0366-.3259-.0139-3.1398-.1334-3.4514-.135-.4223-.0022-1.2997-.1572-2.0708-.3752-.0532-.015-.0978.053-.0936.1438Z" style="fill:#f2a900; stroke:#141b21; stroke-linecap:round; stroke-linejoin:round; stroke-width:.5px;"/><path d="m484.0053,44.5039c.6757-.8381,1.3384-1.0606,3.9994-1.0606l-.0037.781c0,.14-1.0999.2796-2.403.2796h-1.5927" style="fill:#f2a900; stroke-width:0px;"/><path d="m484.0053,44.5039c.6757-.8381,1.3384-1.0606,3.9994-1.0606l-.0037.781c0,.14-1.0999.2796-2.403.2796h-1.5927" style="fill:none; stroke:#141b21; stroke-linecap:round; stroke-linejoin:round; stroke-width:.5px;"/><polyline points="650.2979 58.6605 348.7239 45.1339 390.4053 212.7698" style="fill:none; stroke:#f2a900; stroke-miterlimit:20;"/><path d="m390.1263,215.5031c-.3272-2.4992.5729-6.1575.941-8.6558,3.1335-20.6638,23.844-23.9698,41.2083-25.9294,49.1061-3.5753,98.4208-2.1977,147.6111-1.8347,23.1426.5218,46.3323.3117,69.4241,2.0989-9.841.3937-24.6841.0421-34.7276-.1242-34.7113-.5967-69.4338-.8981-104.1483-.7215-28.8628.5177-57.9056-.4354-86.5573,3.2961-10.8303,1.8346-23.4951,4.81-28.7823,15.4747-1.2683,2.5059-2.1259,5.2265-2.8117,8.0024-.5906,2.8212-1.7909,5.5151-2.1572,8.3934h0Z" style="fill:#f2a900; stroke-width:0px;"/></g><g id="uuid-d2723032-75eb-4c35-9711-37bc9c4dabe2"><polygon points="3 3 3 215 298.5982 215 298.5982 70.6443 339.011 44.4103 298.5982 50.3918 298.5982 3 3 3" style="fill:none; stroke:#000001; stroke-miterlimit:20; stroke-width:1.5px;"/></g><g id="uuid-528cc102-efa7-4e39-85c3-477b6535d5aa"><path d="m18.9438,142.1441c-2.3835-.0265-5.6673-1.0345-8.0377-1.4343-2.6582-.575-5.3131-1.1643-7.9593-1.7945-.1343-.032-.2173-.1668-.1853-.3011.0312-.131.1608-.2131.2917-.1874,2.6685.5275,5.3281,1.0958,7.9845,1.6787,2.3321.6261,5.7115,1.0657,7.9061,2.0386h0Z" style="fill:#a7abae; stroke-width:0px;"/><path d="m289.647,203.5506c-50.9289-11.1552-127.5387-29.3911-179.0537-41.1861-.1341-.0313-.2179-.1656-.1867-.3002.0312-.1345.1653-.2183.2998-.1871,51.7234,12.1003,128.0221,29.255,178.9406,41.6734h0Z" style="fill:#a7abae; stroke-width:0px;"/><path d="m294.5112,162.5818l-33.793-9.7738c-.6232-.1823-.3545-1.1406.2779-.9607.0009-.0008,33.5099,10.7334,33.5151,10.7345h0Z" style="fill:#a7abae; stroke-width:0px;"/><path d="m294.2241,158.9914c-12.0847-3.3125-29.0283-7.8863-40.8814-11.34-.3038-.0827-.1786-.5739.1365-.481,11.8388,3.2682,28.7922,8.3133,40.7449,11.821h0Z" style="fill:#a7abae; stroke-width:0px;"/><line x1="169.04" y1="50.7778" x2="168.46" y2="32.3978" style="fill:none; stroke:#a7abae; stroke-linecap:round; stroke-linejoin:round;"/><line x1="166.3929" y1="48.9647" x2="165.7973" y2="30.2036" style="fill:none; stroke:#a7abae; stroke-linecap:round; stroke-linejoin:round; stroke-width:.5px;"/><line x1="158.2871" y1="44.0275" x2="157.6349" y2="23.4825" style="fill:none; stroke:#a7abae; stroke-linecap:round; stroke-linejoin:round;"/><path d="m139.7468,8.753c9.7164,6.9994,21.0972,16.8139,30.4452,24.4084,39.5757,33.7374,78.5772,68.2844,116.1217,104.2674,3.0882,3.0444,6.1292,6.1377,9.1015,9.2986-3.2691-2.8563-6.4695-5.7802-9.6227-8.7531-37.858-35.6179-76.8078-70.1773-116.2776-104.0067-9.2186-7.7464-21.0134-17.0071-29.7682-25.2146h0Z" style="fill:#a7abae; stroke-width:0px;"/><path d="m151.9304,14.6049c24.8467,19.4486,48.4926,40.3652,72.1313,61.2466,23.4889,21.0506,47.2809,41.794,69.8956,63.7905-.0002.0002-8.7012-8.0123-8.7012-8.0123-43.5147-39.8856-87.9191-79.3488-133.3257-117.0247h0Z" style="fill:#a7abae; stroke-width:0px;"/><path d="m168.4419,7.9923c18.5572,14.4308,37.2418,30.5198,55.1541,45.7105,17.7333,15.3927,36.4568,31.4426,53.568,47.5591-17.8024-15.3544-35.9504-32.0173-53.8727-47.204-17.6886-15.4543-37.0905-30.6768-54.8494-46.0656h0Z" style="fill:#a7abae; stroke-width:0px;"/><path d="m177.4718,11.7146c18.0624,13.9709,36.1484,29.6787,53.534,44.4488,17.2077,14.9718,35.4043,30.5515,52.0198,46.2118-17.3066-14.8982-34.9281-31.0914-52.3249-45.8571-17.1628-15.0345-35.9639-29.8738-53.2288-44.8035h0Z" style="fill:#a7abae; stroke-width:0px;"/><path d="m219.4006,7.8181c12.103,8.7955,23.2513,18.7833,34.6616,28.4342,9.8718,8.739,24.081,20.8197,33.359,29.9493-10.0761-8.1138-24.1021-20.5788-34.1084-29.08-11.2159-9.8834-22.8988-19.1839-33.9122-29.3035h0Z" style="fill:#a7abae; stroke-width:0px;"/><path d="m154.7397,160.9995s-85.5935,1.5438-95.1992,1.2007c-9.6057-.3431-13.3793-1.7153-18.3537-3.7737s-13.8939-5.489-17.6676-10.1203c-3.7737-4.6313-10.2918-13.2078-11.321-23.4996-1.0292-10.2918-1.3722-17.3245-1.2007-22.8135s2.573-10.8064,5.832-14.9231c3.2591-4.1167,20.7551-22.4704,27.6163-27.2733s10.2918-6.3466,22.4704-9.4342c12.1786-3.0875,35.3352-8.405,55.2327-11.1495,6.3466-1.2007,13.7224-.8577,18.1822,0s20.5836,4.9744,29.5032,12.1786c8.9196,7.2043,22.642,17.8391,39.9665,39.1089,5.489,8.0619,7.1841,14.2413,3.925,36.0256,0,0,11.1696,2.9118,17.6878,6.6854s48.8861,31.9046,48.8861,31.9046c0,0,3.4306,7.7189,2.4014,12.6932,0,0-11.8356,8.2334-20.9267,12.5217,0,0-8.748,2.573-13.8939,1.5438-5.1459-1.0292-44.2548-10.6349-50.9444-12.3502-13.2078-10.2918-21.7843-16.4669-42.1964-18.5252Z" style="fill:none; stroke:#a7abae; stroke-linecap:round; stroke-linejoin:round; stroke-width:1.5px;"/><path d="m37.9075,132.3273s-20.6724-4.207-25.4828-5.8011" style="fill:none; stroke:#a7abae; stroke-linecap:round; stroke-linejoin:round; stroke-width:1.5px;"/><path d="m119.4086,132.6507s-3.1538,3.0708-7.1376,4.8967c-12.0343.581-40.9166.581-49.1331.581s-19.6698-1.2278-25.2305-5.8011" style="fill:none; stroke:#a7abae; stroke-linecap:round; stroke-linejoin:round;"/><path d="m213.7258,126.5262s-2.0588,1.4868-8.6663,2.3067c-11.3703,1.4109-60.0884,3.1538-85.6509,3.8178" style="fill:none; stroke:#a7abae; stroke-linecap:round; stroke-linejoin:round;"/><path d="m119.4086,132.6507s-6.5566-5.8097-13.6112-11.1213-13.7772-5.1457-17.7609-5.4777-9.7104-.415-28.7993-.8361-33.364-4.5586-48.2703-8.8716" style="fill:none; stroke:#a7abae; stroke-linecap:round; stroke-linejoin:round;"/><path d="m37.9075,132.3273c12.4493,2.2323,75.1678,1.163,81.5011.3234" style="fill:none; stroke:#a7abae; stroke-linecap:round; stroke-linejoin:round; stroke-width:.5px;"/><path d="m24.0185,129.3778l-4.0777-.9331c-1.1823-.2705-2.0471-1.2848-2.1272-2.495l-.9353-14.1179c-.125-1.8873,1.651-3.3329,3.4736-2.8273l1.3991.3881" style="fill:none; stroke:#a7abae; stroke-linecap:round; stroke-linejoin:round;"/><path d="m24.1468,124.0569s-.0783-4.0391,0-5.6223.359-2.834,2.6629-2.4447c18.6428,3.1503,13.0794,3.4822,55.9205,3.9732,0,0,9.4529.0139,12.8445,2.8406,3.9749,3.3128,6.2656,5.2917,6.2656,5.2917,1.4098,1.5221.9398,2.8698-2.1146,2.7834s-41.8902.0039-50.8873-.4148c-3.7589-.175-15.4258-1.5513-22.6041-3.7442,0,0-2.0875-.3945-2.0875-2.6629Z" style="fill:none; stroke:#a7abae; stroke-linecap:round; stroke-linejoin:round; stroke-width:.5px;"/><path d="m38.0398,131.589c13.4409,1.7066,27.0715,1.4474,40.6029,1.6827,13.3631-.0088,27.4104.1541,40.7659-.6209-3.3822.3478-6.7833.4551-10.1783.6077-22.8911.6602-46.0151,1.5752-68.8751.1234,0-.0003-2.5801-.3164-2.5801-.3164-1.0082-.1483-.7729-1.6803.2647-1.4765h0Z" style="fill:#a7abae; stroke-width:0px;"/><path d="m143.0227,131.9373s1.9544-.4306,3.3999,1.7199,3.1462,5.2116,3.1462,5.2116c0,0,.8503,2.551-.6803,5.272s-3.9938,6.6325-5.8659,8.2482-5.9462,6.2525-21.0007,9.1636" style="fill:none; stroke:#a7abae; stroke-linecap:round; stroke-linejoin:round;"/><ellipse cx="43.6463" cy="154.9908" rx="1.435" ry="5.8673" transform="translate(-108.8879 103.4112) rotate(-55.5895)" style="fill:none; stroke:#a7abae; stroke-linecap:round; stroke-linejoin:round; stroke-width:.5px;"/><path d="m14.9631,129.9069c18.9595,9.2937,35.9793,13.3028,57.1343,12.3927,15.36-.2904,43.9327-.6072,59.2017-.8249,0,0,16.9173-.1438,16.9173-.1438l-16.913.3884c-15.2435.2637-43.8609.8441-59.204,1.0376-21.2406.776-38.249-3.1973-57.1363-12.8501h0Z" style="fill:#a7abae; stroke-width:0px;"/><path d="m151.4917,141.0912c8.6988-.3111,26.123-.8767,34.8159-1.1153,10.3138-.2457,24.7471-1.3443,34.7799.9392,5.6845,1.1475,11.3796,2.9507,16.2023,6.2892,7.2544,4.7433,21.9064,14.3031,29.1622,19.0476,0,0,14.5381,9.5905,14.5381,9.5905,0,0-14.6716-9.3854-14.6716-9.3854-7.3072-4.7148-21.9568-14.1902-29.2573-18.9042-9.7481-6.343-21.9419-7.6416-33.3365-7.6789,0,.0003-17.41.4332-17.41.4332-8.6565.2357-26.1608.6228-34.8231.7839h0Z" style="fill:#a7abae; stroke-width:0px;"/><path d="m154.7478,160.2495c14.3374.4937,29.3808-.1251,42.8242,5.7411,3.3404,1.4886,6.3538,3.4818,9.4871,5.2743,5.9946,3.5276,21.8189,12.8459,27.9955,16.481-6.336-3.5845-22.167-12.5375-28.2695-15.9897-3.1577-1.7357-6.2274-3.6846-9.5149-5.0787-6.5918-2.8444-13.7861-3.9177-20.9365-4.4177-7.1724-.4941-14.3873-.4821-21.602-.5102-.9626-.0053-1.0054-1.504.0162-1.4999h0Z" style="fill:#a7abae; stroke-width:0px;"/><ellipse cx="228.5648" cy="163.0619" rx="5.9916" ry="5.1128" transform="translate(-22.6262 288.4976) rotate(-62.0406)" style="fill:none; stroke:#a7abae; stroke-linecap:round; stroke-linejoin:round; stroke-width:.5px;"/><path d="m235.2903,175.6266l9.8294,5.8736,2.4579,1.4688c2.4196,1.69,5.7398,1.0944,7.8958-.7747-2.1104,1.9297-5.5155,2.5978-7.9872.9384,0,0-2.4891-1.4145-2.4891-1.4145l-9.9586-5.6595c-.2821-.1554-.0311-.6059.2518-.4319h0Z" style="fill:#a7abae; stroke-width:0px;"/><path d="m242.2334,162.1208l-10.3068-6.0072c-3.2109-1.7044-7.433-.0357-9.4303,3.7271-1.9973,3.7628-1.0135,8.1948,2.1974,9.8991l10.4707,6.1027" style="fill:none; stroke:#a7abae; stroke-linecap:round; stroke-linejoin:round; stroke-width:.5px;"/><path d="m258.3008,177.5431c.7068-2.8984-.3095-6.3525-3.0853-7.7472,0,0-2.6211-1.4916-2.6211-1.4916l-10.4868-5.9674c-.2819-.1549-.0309-.6061.2518-.432,0,0,10.3575,6.1814,10.3575,6.1814l2.5899,1.5457c2.7886,1.4646,3.7741,5.014,2.9941,7.9111h0Z" style="fill:#a7abae; stroke-width:0px;"/><path d="m20.4453,92.3861c28.233,7.8661,57.8807,7.249,86.9348,6.9165,25.3118-.4319,61.8438-1.7314,87.5142-2.6171,2.2397.1595,4.5177-.0776,6.6935-.6585,2.1846-.5633,4.2467-1.5653,6.0408-2.9319-1.783,1.3863-3.839,2.4109-6.023,2.9971-2.1587.6027-4.4949.8676-6.7058.7283-29.1594,1.2763-58.3281,2.3852-87.5114,2.9533-29.0562.2042-58.7911.8385-86.9431-7.3877h0Z" style="fill:#a7abae; stroke-width:0px;"/><path d="m56.3793,56.5225c7.5918.7982,15.2385,2.4748,22.874,1.2451,3.7815-.5681,7.5444-1.3745,11.3121-2.0871,12.6046-2.5151,32.5935-6.332,45.2213-8.7274,2.4188-.6241,10.0738-1.167,9.7231-4.4667.4179,3.328-7.3062,4.0257-9.6798,4.6967-12.6115,2.4795-32.5487,6.5606-45.1861,8.9066-3.7784.6859-7.5325,1.4627-11.3462,2.0074-7.6817,1.2075-15.3285-.5855-22.9184-1.5746h0Z" style="fill:#a7abae; stroke-width:0px;"/><path d="m76.381,60.9089c-7.0318,1.9147-10.7449,8.9339-13.77,15.0163-2.7668,5.4721-6.5032,13.4284-9.2145,19.0217,2.7217-6.5059,5.6366-12.9257,8.7683-19.246,3.0479-6.0743,7.0052-13.2418,14.2161-14.7921h0Z" style="fill:#a7abae; stroke-width:0px;"/><path d="m32.5532,122.2433v1.78c0,.3741.2609.6933.6289.7603,2.2058.4016,11.0505,2.0908,18.6021,2.0854,11.8772-.0086,28.9948.3495,33.8264.4563.4461.0099.6594-.543.3236-.8368l-2.6083-2.2823c-.1367-.1196-.3055-.1872-.4871-.1912-2.9214-.064-28.1447-.6145-30.9425-.6145-3.7919,0-11.6072-.7911-18.4422-1.9165-.4713-.0776-.9008.2817-.9008.7593Z" style="fill:#f2a900; stroke:#141b21; stroke-linecap:round; stroke-linejoin:round; stroke-width:1.5px;"/><polyline points="212.2891 149.9237 59.7928 128.7098 53.571 205.8455" style="fill:none; stroke:#f2a900; stroke-miterlimit:20;"/></g></svg>