<svg xmlns="http://www.w3.org/2000/svg" width="654" height="244.852" viewBox="0 0 654 244.852"><g id="e828b7e6-0f5b-4e57-bb59-ea1a19b9eb59" data-name="below"><path d="M129.171,190q-1.288-16.223-2.432-32.456c-.112-2.617-.616-5.269-2.476-7.176-2.758-2.9-7.233-3.057-11.042-3.469-2.021-.33-4.468-.106-6.093-1.7-1.4-1.79-.951-4.174-.911-6.222a.251.251,0,0,1,.5-.005c.24,1.856-.037,4.081,1.117,5.58,1.435,1.222,3.644,1.049,5.49,1.341,5.429.374,12.068,1.273,13.833,7.449a17.141,17.141,0,0,1,.642,4.132q1.237,16.222,2.369,32.451a.5.5,0,0,1-1,.076Z" style="fill:#a7abae"/><path d="M528.542-184.8c16.431,22.685,52.739,82.579,59.364,95.035S620.238,16.24,629.249,66.593c0,0,19.611,30.742,20.936,44.258s0,42.933,0,42.933-6.175,37.974-8.717,44.415-19.32,41.021-23.9,46.61" style="fill:none;stroke:#a7abae;stroke-linecap:round;stroke-linejoin:round;stroke-width:1.5px"/><path d="M594.532,244.809c16.961-43.339,14.311-123.357,14.311-123.357.265-85.6-36.308-201.148-36.308-201.148l-5.3-14.576" style="fill:none;stroke:#a7abae;stroke-linecap:round;stroke-linejoin:round"/><path d="M629.249,66.593s2.65,16.431,3.18,23.057,1.06,16.431-3.18,22c0,0-11.4,7.686-20.406,9.806" style="fill:none;stroke:#a7abae;stroke-linecap:round;stroke-linejoin:round;stroke-width:0.5px"/><path d="M650.185,110.851c0,6.15-5.154,32.306-41.509,41.947" style="fill:none;stroke:#a7abae;stroke-linecap:round;stroke-linejoin:round;stroke-width:0.5px"/><path d="M650.485,145.487c-.134,4.062-6.017,34.572-44.463,45.93" style="fill:none;stroke:#a7abae;stroke-linecap:round;stroke-linejoin:round;stroke-width:0.5px"/><path d="M629.249,111.646C629.1,91.6,613.768-4.448,606.3-30.911" style="fill:none;stroke:#a7abae;stroke-linecap:round;stroke-linejoin:round;stroke-width:0.5px"/><path d="M124.752-184.8c-16.431,22.685-52.738,82.579-59.364,95.035S33.056,16.24,24.046,66.593c0,0-19.612,30.742-20.937,44.258s0,42.933,0,42.933,6.175,37.974,8.717,44.415,19.321,41.021,23.9,46.61" style="fill:none;stroke:#a7abae;stroke-linecap:round;stroke-linejoin:round;stroke-width:1.5px"/><path d="M58.763,244.809C41.8,201.47,44.452,121.452,44.452,121.452,44.187,35.851,80.759-79.7,80.759-79.7l5.3-14.576" style="fill:none;stroke:#a7abae;stroke-linecap:round;stroke-linejoin:round"/><path d="M24.046,66.593S21.4,83.024,20.865,89.65s-1.06,16.431,3.181,22c0,0,11.4,7.686,20.406,9.806" style="fill:none;stroke:#a7abae;stroke-linecap:round;stroke-linejoin:round;stroke-width:0.5px"/><path d="M3.109,110.851c0,6.15,5.154,32.306,41.509,41.947" style="fill:none;stroke:#a7abae;stroke-linecap:round;stroke-linejoin:round;stroke-width:0.5px"/><path d="M2.81,145.487c.133,4.062,6.016,34.572,44.462,45.93" style="fill:none;stroke:#a7abae;stroke-linecap:round;stroke-linejoin:round;stroke-width:0.5px"/><path d="M24.046,111.646C24.2,91.6,39.526-4.448,46.992-30.911" style="fill:none;stroke:#a7abae;stroke-linecap:round;stroke-linejoin:round;stroke-width:0.5px"/><path d="M466.041,8.308s.048,6.033-1.63,6.207-58.067,0-58.067,0" style="fill:none;stroke:#a7abae;stroke-linecap:round;stroke-linejoin:round;stroke-width:0.5px"/><path d="M464.411,14.515c0,1.909-1.041,4.222-2.66,4.222H414.976" style="fill:none;stroke:#a7abae;stroke-linecap:round;stroke-linejoin:round;stroke-width:0.5px"/><path d="M186.357,8.308s-.048,6.033,1.629,6.207,58.067,0,58.067,0" style="fill:none;stroke:#a7abae;stroke-linecap:round;stroke-linejoin:round;stroke-width:0.5px"/><path d="M187.986,14.515c0,1.909,1.041,4.222,2.66,4.222h46.775" style="fill:none;stroke:#a7abae;stroke-linecap:round;stroke-linejoin:round;stroke-width:0.5px"/><path d="M327.939,82.312h3.382c1.045,0,1.721,1.082,1.721,2.3v5.505" style="fill:none;stroke:#a7abae;stroke-linecap:round;stroke-linejoin:round;stroke-width:0.5px"/><path d="M341.9,90.117V83.191c0-1.962-1.352-5.75-4.857-5.75h-4s-2.552.068-2.552-2.1V23.826a1.7,1.7,0,0,1,1.7-1.7H419.87c4.671,0,16.873,1.267,28.693,4.706a9.819,9.819,0,0,1,6.292,6.154c2,5.159,13.441,43.08,13.155,43.08S456,77.786,456,77.786s-3.718.273-2.669,4.526c.494,2,1.263,5.1,1.939,7.805" style="fill:none;stroke:#a7abae;stroke-linecap:round;stroke-linejoin:round;stroke-width:0.5px"/><path d="M465.564,90.117c-.5-1.873-.982-3.665-1.176-4.367-.477-1.72-.1-3.438,2.669-3.438h7.05" style="fill:none;stroke:#a7abae;stroke-linecap:round;stroke-linejoin:round;stroke-width:0.5px"/><path d="M325.483,238.181h194.1c8.021,0,21.414.255,25.75-11.735s11.607-51.2,13.01-68.711,6.884-64.211,6.748-95.546" style="fill:none;stroke:#a7abae;stroke-linecap:round;stroke-linejoin:round;stroke-width:0.5px"/><path d="M509.613-33.072c2.554-9.865,5.36-12.671,9.314-4.891s46.16,100.152,46.16,100.152,30.564-15.552,36.735-17.671" style="fill:none;stroke:#a7abae;stroke-linecap:round;stroke-linejoin:round;stroke-width:0.5px"/><path d="M593.318.069s-19.126-32.062-22.38-40.282-12.5-42.789-13.357-55.3" style="fill:none;stroke:#a7abae;stroke-linecap:round;stroke-linejoin:round;stroke-width:0.5px"/><path d="M142.785-33.072l9.22,35.62s14.9,3.539,21.465,5.709c4.445,1.468,5.007,5.034,4.952,7.414.719.621,2.364,4.459,2.62,9.138s3.782,36.041,3.782,36.041" style="fill:none;stroke:#a7abae;stroke-linecap:round;stroke-linejoin:round;stroke-width:0.5px"/><path d="M509.613-33.072l-9.221,35.62s-14.9,3.539-21.465,5.709c-4.444,1.468-5.007,5.034-4.952,7.414-.719.621-2.363,4.459-2.619,9.138s-3.783,36.041-3.783,36.041" style="fill:none;stroke:#a7abae;stroke-linecap:round;stroke-linejoin:round;stroke-width:0.5px"/><path d="M325.7,82.312H322.32c-1.045,0-1.721,1.082-1.721,2.3v5.505" style="fill:none;stroke:#a7abae;stroke-linecap:round;stroke-linejoin:round;stroke-width:0.5px"/><path d="M311.744,90.117V83.191c0-1.962,1.353-5.75,4.858-5.75h4s2.551.068,2.551-2.1V23.826a1.7,1.7,0,0,0-1.7-1.7H233.771c-4.671,0-16.873,1.267-28.694,4.706a9.819,9.819,0,0,0-6.291,6.154c-2,5.159-13.441,43.08-13.155,43.08s12.011,1.72,12.011,1.72,3.718.273,2.669,4.526c-.494,2-1.264,5.1-1.939,7.805" style="fill:none;stroke:#a7abae;stroke-linecap:round;stroke-linejoin:round;stroke-width:0.5px"/><path d="M188.076,90.117c.5-1.873.982-3.665,1.177-4.367.477-1.72.1-3.438-2.669-3.438h-7.05" style="fill:none;stroke:#a7abae;stroke-linecap:round;stroke-linejoin:round;stroke-width:0.5px"/><path d="M326.914,238.181h-194.1c-8.021,0-21.413.255-25.75-11.735s-11.607-51.2-13.01-68.711S87.175,93.524,87.31,62.189" style="fill:none;stroke:#a7abae;stroke-linecap:round;stroke-linejoin:round;stroke-width:0.5px"/><path d="M142.785-33.072c-2.554-9.865-5.36-12.671-9.314-4.891S87.31,62.189,87.31,62.189,59.123,47.847,51.422,44.832" style="fill:none;stroke:#a7abae;stroke-linecap:round;stroke-linejoin:round;stroke-width:0.5px"/><path d="M133.031,245.921l9.586-31.255a.441.441,0,0,1,.422-.312H326.2" style="fill:none;stroke:#a7abae;stroke-linecap:round;stroke-linejoin:round;stroke-width:0.5px"/><path d="M142.617,214.666l1.389-4.6a.44.44,0,0,1,.422-.314H326.2" style="fill:none;stroke:#a7abae;stroke-linecap:round;stroke-linejoin:round;stroke-width:0.5px"/><path d="M519.367,245.921l-9.587-31.255a.441.441,0,0,0-.422-.312H326.2" style="fill:none;stroke:#a7abae;stroke-linecap:round;stroke-linejoin:round;stroke-width:0.5px"/><path d="M509.78,214.666l-1.388-4.6a.442.442,0,0,0-.423-.314H326.2" style="fill:none;stroke:#a7abae;stroke-linecap:round;stroke-linejoin:round;stroke-width:0.5px"/><path d="M144.428,209.749h-.71a.442.442,0,0,1-.423-.568l23.867-79.353a.441.441,0,0,1,.422-.315H326.2" style="fill:none;stroke:#a7abae;stroke-linecap:round;stroke-linejoin:round;stroke-width:0.5px"/><path d="M507.969,209.749h.71a.442.442,0,0,0,.423-.568l-23.867-79.353a.44.44,0,0,0-.422-.315H326.2" style="fill:none;stroke:#a7abae;stroke-linecap:round;stroke-linejoin:round;stroke-width:0.5px"/><path d="M171.569,129.513l-.807-13.31a14.32,14.32,0,0,1,.494-4.693l5.232-18.882a3.427,3.427,0,0,1,3.3-2.511H321.542a3.426,3.426,0,0,1,3.426,3.426v14.276" style="fill:none;stroke:#a7abae;stroke-linejoin:round"/><path d="M120.987,227.3v-9.971a6.63,6.63,0,0,1,.334-2.077l3.013-9.127" style="fill:none;stroke:#a7abae;stroke-linecap:round;stroke-linejoin:round;stroke-width:0.5px"/><path d="M531.41,227.3v-9.971a6.63,6.63,0,0,0-.334-2.077l-3.013-9.127" style="fill:none;stroke:#a7abae;stroke-linecap:round;stroke-linejoin:round;stroke-width:0.5px"/><path d="M120.305,147.472l10.464-28.19s14.865-.869,20.464-1.641a45.633,45.633,0,0,0,10.039-2.607h9.467" style="fill:none;stroke:#a7abae;stroke-linecap:round;stroke-linejoin:round;stroke-width:0.5px"/><path d="M148.908,17.014c1.438-3.361,2.4-5.624,2.614-6.133,1.159-2.8.483-8.333.483-8.333" style="fill:none;stroke:#a7abae;stroke-linecap:round;stroke-linejoin:round;stroke-width:0.5px"/><path d="M503.49,17.014c-1.439-3.361-2.4-5.624-2.615-6.133-1.158-2.8-.483-8.333-.483-8.333" style="fill:none;stroke:#a7abae;stroke-linecap:round;stroke-linejoin:round;stroke-width:0.5px"/><path d="M130.258,57.945c4.577-10.656,11.875-27.652,16.68-38.868a4.285,4.285,0,0,1,3.937-2.6h18.119c3.185,0,5.888,2.026,4.44,6.466s-11.2,34.171-12.452,37.356-1.93,5.7-9.942,6.468-14,1.061-17.182,1.158c-1.979.06-4.231.181-4.167-4.481C129.722,61.166,129.6,59.464,130.258,57.945Z" style="fill:none;stroke:#a7abae;stroke-linecap:round;stroke-linejoin:round;stroke-width:0.5px"/><path d="M130.769,119.282l-4.234-48.195A6.423,6.423,0,0,1,127.028,68l2.673-6.223" style="fill:none;stroke:#a7abae;stroke-linecap:round;stroke-linejoin:round;stroke-width:0.5px"/><path d="M521.628,119.282l4.234-48.195A6.411,6.411,0,0,0,525.369,68L522.7,61.772" style="fill:none;stroke:#a7abae;stroke-linecap:round;stroke-linejoin:round;stroke-width:0.5px"/><path d="M106.467,140.655c0-48.144.749-61.786.749-61.786" style="fill:none;stroke:#a7abae;stroke-linecap:round;stroke-linejoin:round;stroke-width:0.5px"/><path d="M106.467,137.944l21.317-52.638s16.756-.9,22.162-1.675,11.776-2.317,13.449-7.98,15.38-47.3,16.153-50.13a10.121,10.121,0,0,0,.215-6.12" style="fill:none;stroke:#a7abae;stroke-linecap:round;stroke-linejoin:round;stroke-width:0.5px"/><path d="M106.79,94.441l15.931-35.6a.295.295,0,0,1,.562.092L125.4,80.787a3.9,3.9,0,0,1-.276,1.86L106.486,127.84" style="fill:none;stroke:#a7abae;stroke-linecap:round;stroke-linejoin:round;stroke-width:0.5px"/><path d="M126.8,74.124s13.234-.983,22.886-1.562,11.2-3.764,12.935-8.591,14.672-44.306,15.8-48.3" style="fill:none;stroke:#a7abae;stroke-linecap:round;stroke-linejoin:round;stroke-width:0.5px"/><path d="M153.742,16.673s2.221-2.269,10.763-2.269,8.681,3.963,8.681,3.963" style="fill:none;stroke:#a7abae;stroke-linecap:round;stroke-linejoin:round;stroke-width:0.5px"/><path d="M152.03,8.844s9.5,1.372,16.529,2.616c5.491.971,7.437.748,4.805,7.2" style="fill:none;stroke:#a7abae;stroke-linecap:round;stroke-linejoin:round;stroke-width:0.5px"/><path d="M128.274,65.094c-.7,1.631-1.752,1.1-2.428-4.984s-3.571-26.448-4.344-31.95-1.255-9.653,1.545-15.638,15.282-32.22,16.69-34.754c2.072-3.731,5-3.317,7.324,5.68" style="fill:none;stroke:#a7abae;stroke-linecap:round;stroke-linejoin:round;stroke-width:0.5px"/><path d="M509.613-33.072l-9.221,35.62s-14.9,3.539-21.465,5.709c-4.444,1.468-5.007,5.034-4.952,7.414-.719.621-2.363,4.459-2.619,9.138s-3.783,36.041-3.783,36.041" style="fill:none;stroke:#a7abae;stroke-linecap:round;stroke-linejoin:round;stroke-width:0.5px"/><path d="M522.139,57.945c-4.577-10.656-11.875-27.652-16.68-38.868a4.284,4.284,0,0,0-3.937-2.6H483.4c-3.185,0-5.888,2.026-4.44,6.466s11.2,34.171,12.452,37.356,1.931,5.7,9.943,6.468,14,1.061,17.181,1.158c1.979.06,4.232.181,4.167-4.481C522.675,61.166,522.792,59.464,522.139,57.945Z" style="fill:none;stroke:#a7abae;stroke-linecap:round;stroke-linejoin:round;stroke-width:0.5px"/><path d="M545.93,137.944,524.613,85.306s-16.756-.9-22.161-1.675-11.777-2.317-13.45-7.98-15.38-47.3-16.152-50.13-.724-4.362-.216-6.12" style="fill:none;stroke:#a7abae;stroke-linecap:round;stroke-linejoin:round;stroke-width:0.5px"/><path d="M525.6,74.124s-13.234-.983-22.887-1.562-11.2-3.764-12.935-8.591-14.672-44.306-15.8-48.3" style="fill:none;stroke:#a7abae;stroke-linecap:round;stroke-linejoin:round;stroke-width:0.5px"/><path d="M498.655,16.673s-2.22-2.269-10.763-2.269-8.681,3.963-8.681,3.963" style="fill:none;stroke:#a7abae;stroke-linecap:round;stroke-linejoin:round;stroke-width:0.5px"/><path d="M500.367,8.844s-9.5,1.372-16.529,2.616c-5.49.971-7.437.748-4.8,7.2" style="fill:none;stroke:#a7abae;stroke-linecap:round;stroke-linejoin:round;stroke-width:0.5px"/><path d="M524.123,65.094c.7,1.631,1.753,1.1,2.428-4.984s3.572-26.448,4.344-31.95,1.255-9.653-1.544-15.638S514.068-19.7,512.66-22.232c-2.072-3.731-4.995-3.317-7.324,5.68" style="fill:none;stroke:#a7abae;stroke-linecap:round;stroke-linejoin:round;stroke-width:0.5px"/><path d="M106.5,124.976s-5.458,14.576-7.1,17.569-3.2,3.389-6.331,4.252" style="fill:none;stroke:#a7abae;stroke-linecap:round;stroke-linejoin:round;stroke-width:0.5px"/><path d="M121.255,176.857a1.452,1.452,0,0,0-.642-1.2,10.542,10.542,0,0,0-6.215-1.5h-7.326a1.449,1.449,0,0,0-1.449,1.449V181.6a1.449,1.449,0,0,0,1.449,1.449H114.4a10.457,10.457,0,0,1,6.308,1.562.35.35,0,0,0,.549-.287Z" style="fill:none;stroke:#a7abae;stroke-linecap:round;stroke-linejoin:round;stroke-width:0.5px"/><path d="M106.034,147.168a57.249,57.249,0,0,0-3.088,8.446c-1.637,5.777-1.413,11.895-1.3,17.853.059,12.052,2.215,23.925,4.679,35.685q.8,4.44,1.688,8.866-1.134-4.37-2.177-8.764c-2.471-11.786-4.63-23.693-4.689-35.772-.121-6.012-.342-12.153,1.312-18.007a56.256,56.256,0,0,1,3.57-8.307Z" style="fill:#a7abae"/><path d="M546.364,147.168a56.469,56.469,0,0,1,3.57,8.307c1.653,5.854,1.432,12,1.312,18.007-.06,12.079-2.219,23.986-4.69,35.772q-1.049,4.393-2.177,8.764.891-4.425,1.688-8.866c2.464-11.76,4.62-23.633,4.679-35.685.119-5.958.343-12.076-1.294-17.852a57.375,57.375,0,0,0-3.088-8.447Z" style="fill:#a7abae"/><path d="M121.421,214.945c-.627,1.862-.112,2.022,2.688,2.022h13.485a2.05,2.05,0,0,0,2.424-1.805c.449-1.736.925-1.678,2.956-1.678" style="fill:none;stroke:#a7abae;stroke-linecap:round;stroke-linejoin:round;stroke-width:0.5px"/><line x1="144.215" y1="206.122" x2="124.335" y2="206.122" style="fill:none;stroke:#a7abae;stroke-linecap:round;stroke-linejoin:round;stroke-width:0.5px"/><path d="M530.976,214.945c.627,1.862.112,2.022-2.687,2.022H514.8a2.051,2.051,0,0,1-2.425-1.805c-.449-1.736-.924-1.678-2.955-1.678" style="fill:none;stroke:#a7abae;stroke-linecap:round;stroke-linejoin:round;stroke-width:0.5px"/><line x1="508.182" y1="206.122" x2="528.062" y2="206.122" style="fill:none;stroke:#a7abae;stroke-linecap:round;stroke-linejoin:round;stroke-width:0.5px"/><path d="M122.326,151.534c-.675,1.692-1.467,3.34-2.052,5.045-1.638,5.2-1.5,10.75-2.267,16.127.2-5.436.08-11.064,1.907-16.258a46.3,46.3,0,0,1,2.412-4.914Z" style="fill:#a7abae"/><path d="M120.375,214.054c-1.732-1.808-1.309-4.667-1.557-6.967l-.312-7.258c-.12-4.264-.3-10.316-.259-14.528.335,4.174.581,10.264.758,14.512l.2,7.263c.184,2.308-.4,5.069,1.174,6.978Z" style="fill:#a7abae"/><path d="M144.215,206.122l22.743-75.617v-.143a1.042,1.042,0,0,0-1.041-1.042h-5l-.262.864H155.4v-.864h-5.11a.837.837,0,0,0-.794.574l-25.165,76.227Z" style="fill:#d3d5d6;stroke:#000001;stroke-linecap:round;stroke-linejoin:round"/><polyline points="155.403 129.32 154.179 133.165 152.301 134.351 150.297 140.604 151.193 142.562" style="fill:none;stroke:#000001;stroke-linecap:round;stroke-linejoin:round;stroke-width:0.5px"/><polyline points="138.093 204.662 156.725 143.153 158.508 141.563 160.09 136.271 159.275 134.737 160.654 130.184" style="fill:none;stroke:#000001;stroke-linecap:round;stroke-linejoin:round;stroke-width:0.5px"/><line x1="124.816" y1="204.662" x2="144.542" y2="204.662" style="fill:none;stroke:#000001;stroke-linecap:round;stroke-linejoin:round;stroke-width:0.5px"/><polyline points="155.403 130.184 155.403 130.892 154.179 134.737 152.41 136.271 150.705 141.563 151.492 143.173 131.887 204.662" style="fill:none;stroke:#000001;stroke-linecap:round;stroke-linejoin:round;stroke-width:0.5px"/><line x1="159.977" y1="132.42" x2="154.949" y2="132.42" style="fill:none;stroke:#000001;stroke-linecap:round;stroke-linejoin:round;stroke-width:0.5px"/><path d="M508.182,206.122l-22.743-75.617v-.143a1.042,1.042,0,0,1,1.042-1.042h5l.261.864h5.251v-.864h5.11a.837.837,0,0,1,.794.574l25.165,76.227Z" style="fill:#d3d5d6;stroke:#000001;stroke-linecap:round;stroke-linejoin:round"/><polyline points="496.994 129.32 498.218 133.165 500.096 134.351 502.101 140.604 501.204 142.562" style="fill:none;stroke:#000001;stroke-linecap:round;stroke-linejoin:round;stroke-width:0.5px"/><polyline points="514.304 204.662 495.672 143.153 493.89 141.563 492.307 136.271 493.123 134.737 491.743 130.184" style="fill:none;stroke:#000001;stroke-linecap:round;stroke-linejoin:round;stroke-width:0.5px"/><line x1="527.581" y1="204.662" x2="507.856" y2="204.662" style="fill:none;stroke:#000001;stroke-linecap:round;stroke-linejoin:round;stroke-width:0.5px"/><polyline points="496.994 130.184 496.994 130.892 498.218 134.737 499.987 136.271 501.693 141.563 500.905 143.173 520.51 204.662" style="fill:none;stroke:#000001;stroke-linecap:round;stroke-linejoin:round;stroke-width:0.5px"/><line x1="492.421" y1="132.42" x2="497.449" y2="132.42" style="fill:none;stroke:#000001;stroke-linecap:round;stroke-linejoin:round;stroke-width:0.5px"/><path d="M171.817,109.985c.417-1.5,1.162-1.709,3.382-1.709h151" style="fill:none;stroke:#a7abae;stroke-linecap:round;stroke-linejoin:round;stroke-width:0.5px"/><path d="M170.739,115.338c.417-1.5,1.161-1.709,3.382-1.709H326.2" style="fill:none;stroke:#a7abae;stroke-linecap:round;stroke-linejoin:round;stroke-width:0.5px"/><path d="M326.2,119.517H176.878a1.879,1.879,0,0,0-.41,3.712l14.326,3.2a10.436,10.436,0,0,0,2.27.25H326.2" style="fill:none;stroke:#a7abae;stroke-linecap:round;stroke-linejoin:round;stroke-width:0.5px"/><path d="M480.828,129.513l.807-13.31a14.32,14.32,0,0,0-.494-4.693l-5.232-18.882a3.426,3.426,0,0,0-3.3-2.511H330.855a3.426,3.426,0,0,0-3.426,3.426v14.276" style="fill:none;stroke:#a7abae;stroke-linejoin:round"/><path d="M522.229,189.921q1.111-16.23,2.369-32.451c.107-2.742.744-5.781,2.784-7.826,3.111-3.2,7.613-3.318,11.691-3.755,1.846-.293,4.056-.119,5.491-1.341,1.154-1.5.874-3.722,1.117-5.58a.25.25,0,0,1,.5.005,20.1,20.1,0,0,1-.033,4.137,3.573,3.573,0,0,1-2.871,3.188c-8.191,1.5-17.345.018-17.617,11.243Q524.5,173.772,523.226,190a.5.5,0,0,1-1-.076Z" style="fill:#a7abae"/><path d="M532.092,147.472l-10.464-28.19s-14.865-.869-20.464-1.641a45.613,45.613,0,0,1-10.038-2.607h-9.467" style="fill:none;stroke:#a7abae;stroke-linecap:round;stroke-linejoin:round;stroke-width:0.5px"/><path d="M545.931,140.655c0-48.144-.75-61.786-.75-61.786" style="fill:none;stroke:#a7abae;stroke-linecap:round;stroke-linejoin:round;stroke-width:0.5px"/><path d="M545.9,124.976s5.457,14.576,7.1,17.569,3.2,3.389,6.331,4.252" style="fill:none;stroke:#a7abae;stroke-linecap:round;stroke-linejoin:round;stroke-width:0.5px"/><path d="M531.143,176.857a1.453,1.453,0,0,1,.641-1.2,10.545,10.545,0,0,1,6.216-1.5h7.325a1.449,1.449,0,0,1,1.449,1.449V181.6a1.449,1.449,0,0,1-1.449,1.449H538a10.458,10.458,0,0,0-6.309,1.562.349.349,0,0,1-.548-.287Z" style="fill:none;stroke:#a7abae;stroke-linecap:round;stroke-linejoin:round;stroke-width:0.5px"/><path d="M530.071,151.534a46.3,46.3,0,0,1,2.412,4.914c1.827,5.194,1.7,10.822,1.907,16.258-.767-5.377-.629-10.927-2.267-16.127-.585-1.705-1.377-3.353-2.052-5.045Z" style="fill:#a7abae"/><path d="M532.022,214.054c1.574-1.908.99-4.671,1.174-6.978l.2-7.263c.178-4.262.422-10.314.758-14.512.042,4.187-.139,10.278-.259,14.528l-.312,7.258c-.248,2.3.175,5.159-1.557,6.967Z" style="fill:#a7abae"/><path d="M480.58,109.985c-.417-1.5-1.161-1.709-3.382-1.709h-151" style="fill:none;stroke:#a7abae;stroke-linecap:round;stroke-linejoin:round;stroke-width:0.5px"/><path d="M481.658,115.338c-.416-1.5-1.161-1.709-3.381-1.709H326.2" style="fill:none;stroke:#a7abae;stroke-linecap:round;stroke-linejoin:round;stroke-width:0.5px"/><path d="M326.2,119.517h149.32a1.879,1.879,0,0,1,.41,3.712l-14.325,3.2a10.392,10.392,0,0,1-2.271.251H326.2" style="fill:none;stroke:#a7abae;stroke-linecap:round;stroke-linejoin:round;stroke-width:0.5px"/><path d="M326.2,182.345H310.712c-1.813,0-5.007.259-5.784,4.058a95.411,95.411,0,0,0-1.3,9.927c-.172,1.813.95,3.194,3.8,3.194H326.2" style="fill:none;stroke:#a7abae;stroke-linecap:round;stroke-linejoin:round;stroke-width:0.5px"/><path d="M326.2,185.049H315.59c-1.609,0-3.078.308-3.285,2.574-.175,1.914-.257,3.238-.294,3.951a.588.588,0,0,0,.587.618h13.6" style="fill:none;stroke:#a7abae;stroke-linecap:round;stroke-linejoin:round;stroke-width:0.5px"/><path d="M313.721,192.192s-.386-2.059,1.673-2.059H326.2" style="fill:none;stroke:#a7abae;stroke-linecap:round;stroke-linejoin:round;stroke-width:0.5px"/><path d="M326.2,182.345h15.486c1.813,0,5.007.259,5.784,4.058a95.411,95.411,0,0,1,1.3,9.927c.173,1.813-.95,3.194-3.8,3.194H326.2" style="fill:none;stroke:#a7abae;stroke-linecap:round;stroke-linejoin:round;stroke-width:0.5px"/><path d="M326.2,185.049h10.608c1.609,0,3.078.308,3.285,2.574.175,1.914.258,3.238.3,3.951a.588.588,0,0,1-.588.618H326.2" style="fill:none;stroke:#a7abae;stroke-linecap:round;stroke-linejoin:round;stroke-width:0.5px"/><path d="M338.676,192.192s.387-2.059-1.673-2.059H326.2" style="fill:none;stroke:#a7abae;stroke-linecap:round;stroke-linejoin:round;stroke-width:0.5px"/><path d="M388.169,42.928c-.091-1.447.949-2.126,2.487-2.126h9.408c1.537,0,3.166.317,3.437,2.081s.543,4.025.633,5.518-.723,2.171-2.4,2.171h-9.905c-1.357,0-2.849-.407-3.121-2.307S388.169,42.928,388.169,42.928Z" style="fill:none;stroke:#a7abae;stroke-linecap:round;stroke-linejoin:round;stroke-width:0.5px"/><path d="M390.948,42.39a.39.39,0,0,1,.389-.412h8.908a.389.389,0,0,1,.381.31c.133.64.44,2.142.614,3.218a13.07,13.07,0,0,1,.035,2.9.387.387,0,0,1-.387.354h-8.269a.389.389,0,0,1-.324-.172,7.18,7.18,0,0,1-1.051-3.084C391.061,44.041,390.981,42.947,390.948,42.39Z" style="fill:none;stroke:#a7abae;stroke-linecap:round;stroke-linejoin:round;stroke-width:0.5px"/><line x1="391.428" y1="46.511" x2="401.194" y2="46.511" style="fill:none;stroke:#a7abae;stroke-linecap:round;stroke-linejoin:round;stroke-width:0.5px"/><path d="M266.3,42.928c.09-1.447-.95-2.126-2.488-2.126H254.4c-1.538,0-3.166.317-3.438,2.081s-.542,4.025-.633,5.518.724,2.171,2.4,2.171h9.905c1.357,0,2.85-.407,3.121-2.307S266.3,42.928,266.3,42.928Z" style="fill:none;stroke:#a7abae;stroke-linecap:round;stroke-linejoin:round;stroke-width:0.5px"/><path d="M263.519,42.39a.388.388,0,0,0-.388-.412h-8.909a.389.389,0,0,0-.381.31c-.133.64-.44,2.142-.613,3.218a13.018,13.018,0,0,0-.036,2.9.389.389,0,0,0,.388.354h8.269a.388.388,0,0,0,.323-.172,7.18,7.18,0,0,0,1.051-3.084C263.406,44.041,263.486,42.947,263.519,42.39Z" style="fill:none;stroke:#a7abae;stroke-linecap:round;stroke-linejoin:round;stroke-width:0.5px"/><line x1="263.039" y1="46.511" x2="253.273" y2="46.511" style="fill:none;stroke:#a7abae;stroke-linecap:round;stroke-linejoin:round;stroke-width:0.5px"/><path d="M205.58,26.019h-18.1L180.95-.413s-.477-1.911-3.5-3.5a13.186,13.186,0,0,1-5.891-6.529c-.637-1.91-6.847-35.348-9.076-56.366a64.448,64.448,0,0,1-3.025-17.834A56.283,56.283,0,0,1,163.6-106.3c1.751-4.459,10.668-9.873,23.884-9.873h5.9" style="fill:none;stroke:#a7abae;stroke-linecap:round;stroke-linejoin:round"/><path d="M276.973-112.914l-.667,5.229L281.7-9.817s0,2.74,2.4,3.425,4.623.6,4.88,3.34,2.409,22.591,2.409,22.591" style="fill:none;stroke:#a7abae;stroke-linecap:round;stroke-linejoin:round;stroke-width:0.5px"/><path d="M270.891,13.717c.257-.428-1.264-13.858-1.264-13.858s-1.113-4.881,2.911-5.651a34.933,34.933,0,0,1,5.48-.771s3.254-.343,3.682-3.254" style="fill:none;stroke:#a7abae;stroke-linecap:round;stroke-linejoin:round;stroke-width:0.5px"/><path d="M175.507-14.252c-4.138-18.943-8.517-54.274-10-74.874-.4-11.489,10.2-15.55,19.511-15.748s73.686-.1,77.846,0,7.23.991,7.329,5.546,4.655,83,4.655,83,.693,3.467-1.684,3.467h-6.636s-6.438,1.287-5.546,9.012,1.287,11.885,1.287,11.885.5,4.16-2.674,4.16H194.325s-3.863.1-4.358-3.466S187.59-6.527,187.59-6.527s-.792-4.457-4.556-5.249S175.951-12.218,175.507-14.252Z" style="fill:none;stroke:#a7abae;stroke-linecap:round;stroke-linejoin:round;stroke-width:0.5px"/><path d="M326.754-104.988H284.8c-2.2,0-3.731,1.541-3.636,4.315.087,2.5,3.824,71.889,4.562,85.582a2.687,2.687,0,0,0,2.459,2.532l3.074.262A4.208,4.208,0,0,1,295.1-8.4L296.34,9.072a3.358,3.358,0,0,0,3.35,3.12h27.064" style="fill:none;stroke:#a7abae;stroke-linecap:round;stroke-linejoin:round;stroke-width:0.5px"/><path d="M446.4,26.019H466.03L472.559-.413s.477-1.911,3.5-3.5a13.186,13.186,0,0,0,5.891-6.529c.637-1.91,6.847-35.348,9.076-56.366a64.448,64.448,0,0,0,3.025-17.834,56.283,56.283,0,0,0-4.14-21.654c-1.751-4.459-10.668-9.873-23.884-9.873h-5.9" style="fill:none;stroke:#a7abae;stroke-linecap:round;stroke-linejoin:round"/><path d="M376.536-112.914l.667,5.229L371.809-9.817s0,2.74-2.4,3.425-4.623.6-4.88,3.34-1.285,22.6-1.285,22.6" style="fill:none;stroke:#a7abae;stroke-linecap:round;stroke-linejoin:round"/><path d="M383.14,13.752c-.257-.428.742-13.893.742-13.893S385-5.022,380.971-5.792a34.933,34.933,0,0,0-5.48-.771s-3.254-.343-3.682-3.254" style="fill:none;stroke:#a7abae;stroke-linecap:round;stroke-linejoin:round;stroke-width:0.5px"/><path d="M478-14.252c4.138-18.943,8.517-54.274,10-74.874.4-11.489-10.2-15.55-19.511-15.748s-73.686-.1-77.846,0-7.23.991-7.329,5.546-4.655,83-4.655,83-.693,3.467,1.684,3.467h6.636s6.437,1.287,5.546,9.012-1.287,11.885-1.287,11.885-.5,4.16,2.674,4.16h65.267s3.863.1,4.358-3.466,2.377-15.253,2.377-15.253.792-4.457,4.556-5.249S477.558-12.218,478-14.252Z" style="fill:none;stroke:#a7abae;stroke-linecap:round;stroke-linejoin:round;stroke-width:0.5px"/><path d="M326.754-104.988h41.959c2.2,0,3.731,1.541,3.636,4.315-.087,2.5-3.824,71.889-4.562,85.582a2.687,2.687,0,0,1-2.459,2.532l-3.074.262A4.208,4.208,0,0,0,358.413-8.4L357.169,9.072a3.359,3.359,0,0,1-3.351,3.12H326.754" style="fill:none;stroke:#a7abae;stroke-linecap:round;stroke-linejoin:round;stroke-width:0.5px"/><path d="M473.271,90.181a71.611,71.611,0,0,0,.836-7.869c-.142-1.759-10.616-39.167-15.176-49.99-2.921-6.088-6.555-6.967-10.046-7.982a113.328,113.328,0,0,0-29.07-4.4c-14.393-.27-89.171-.541-89.171-.541s-2.7,0-2.7,2.5-.51,71.638-.51,71.638" style="fill:none;stroke:#a7abae;stroke-linecap:round;stroke-linejoin:round"/><path d="M180.361,90.117a70.741,70.741,0,0,1-.827-7.805c.142-1.759,10.616-39.167,15.176-49.99,2.921-6.088,6.555-6.967,10.046-7.982a113.319,113.319,0,0,1,29.07-4.4C248.218,19.673,323,19.4,323,19.4s2.7,0,2.7,2.5c0,2.041-.177,68.373-.177,86.17" style="fill:none;stroke:#a7abae;stroke-linecap:round;stroke-linejoin:round"/><path d="M415.721,20.082s-1.117-3.358-5.929-4.962c-3.673-1.74-39.116-2-41.436,0a14.875,14.875,0,0,0-3.479,4.282" style="fill:none;stroke:#a7abae;stroke-linecap:round;stroke-linejoin:round"/><path d="M236.677,20.082s1.116-3.358,5.928-4.962c3.673-1.74,39.116-2,41.436,0a14.886,14.886,0,0,1,3.48,4.282" style="fill:none;stroke:#a7abae;stroke-linecap:round;stroke-linejoin:round"/><path d="M545.892,122.629s-13.054-31.92-14.6-35.523-3.218-7.208-2.317-17.247c.85-9.471,4.221-33.036,5.464-39.343a50.012,50.012,0,0,1,1.969-7.158" style="fill:none;stroke:#a7abae;stroke-linecap:round;stroke-linejoin:round;stroke-width:0.5px"/><path d="M509.662-24.4c.782-4.073.782-6.261,4.643,1.333,3.185,6.262,17.267,36.142,22.105,46.422q2.288,4.86,4.569,9.721" style="fill:none;stroke:#a7abae;stroke-linecap:round;stroke-linejoin:round;stroke-width:0.5px"/></g><g id="ab304ea1-e0d1-4d09-87bf-2ef5219fcfc9" data-name="illustration"><path d="M139.686,191.362c-4.292,0-7.785-1.84-7.785-4.1v-4.692l.1-.66,2.052-6.457c.6-1.905,3.912-3.342,7.691-3.342,4.3,0,7.794,1.778,7.794,3.965v4.464a2.181,2.181,0,0,1-.094.656l-2.07,6.712C146.77,189.876,143.463,191.362,139.686,191.362Z" style="fill:#f2a900"/><path d="M139.686,191.612a12.328,12.328,0,0,1-5.619-1.232,5.053,5.053,0,0,1-2.016-1.75,2.628,2.628,0,0,1-.4-1.369s0-4.692,0-4.73c0,0,.1-.661.111-.7l2.051-6.456a3.606,3.606,0,0,1,1.381-1.745,11.546,11.546,0,0,1,6.549-1.772,12.7,12.7,0,0,1,5.622,1.189,4.987,4.987,0,0,1,2.034,1.716,2.488,2.488,0,0,1,.388,1.31v4.464a2.43,2.43,0,0,1-.1.729l-2.07,6.712a3.742,3.742,0,0,1-1.432,1.839A11.345,11.345,0,0,1,139.686,191.612Z" style="fill:none;stroke:#141b21;stroke-linecap:round;stroke-linejoin:round"/><path d="M139.686,191.362c-4.292,0-7.785-1.84-7.785-4.1v-4.692l.1-.66,2.052-6.457c.6-1.905,3.912-3.342,7.691-3.342,4.3,0,7.794,1.778,7.794,3.965v4.464a2.181,2.181,0,0,1-.094.656l-2.07,6.712C146.77,189.876,143.463,191.362,139.686,191.362Z" style="fill:none;stroke:#141b21;stroke-linecap:round;stroke-linejoin:round;stroke-width:0.5px"/><ellipse cx="141.287" cy="174.529" rx="2.602" ry="1.364" style="fill:none;stroke:#141b21;stroke-linecap:round;stroke-linejoin:round;stroke-width:0.5px"/><path d="M131.865,184.6c0,2.248,3.46,4.07,7.727,4.07,3.831,0,7.148-1.545,7.775-3.466l2.173-6.653" style="fill:none;stroke:#141b21;stroke-linecap:round;stroke-linejoin:round;stroke-width:0.5px"/><path d="M136.094,174.336l-2.34,6.2a1.658,1.658,0,0,0-.109.586c0,1.66,2.567,3,5.733,3,2.9,0,5.3-1.13,5.681-2.6l1.621-6.265a1.533,1.533,0,0,0,.049-.382c0-1.554-2.4-2.814-5.369-2.814C138.754,172.071,136.581,173.045,136.094,174.336Z" style="fill:none;stroke:#141b21;stroke-linecap:round;stroke-linejoin:round;stroke-width:0.5px"/><path d="M131.952,182.24c0,2.237,3.438,4.1,7.706,4.1,3.831,0,7.011-1.462,7.621-3.38l1.957-6.16c.218-.614.4-1.305.061-1.755" style="fill:none;stroke:#141b21;stroke-linecap:round;stroke-linejoin:round;stroke-width:0.5px"/><line x1="146.365" y1="176.482" x2="149.003" y2="177.533" style="fill:none;stroke:#141b21;stroke-linecap:round;stroke-linejoin:round;stroke-width:0.5px"/><line x1="135.284" y1="176.482" x2="133.502" y2="177.192" style="fill:none;stroke:#141b21;stroke-linecap:round;stroke-linejoin:round;stroke-width:0.5px"/><path d="M143.53,179.862l-.4,1.24c-.3.96-1.88,1.68-3.78,1.68-2.144,0-4.163-.969-3.79-2.34l.4-1.25c.3-.95,1.88-1.68,3.78-1.68C141.9,177.512,143.9,178.488,143.53,179.862Z" style="fill:none;stroke:#141b21;stroke-linecap:round;stroke-linejoin:round;stroke-width:0.5px"/><path d="M512.712,191.362c4.292,0,7.784-1.84,7.784-4.1v-4.692l-.1-.66-2.051-6.457c-.606-1.905-3.913-3.342-7.692-3.342-4.3,0-7.794,1.778-7.794,3.965v4.464a2.214,2.214,0,0,0,.094.656l2.07,6.712C505.628,189.876,508.934,191.362,512.712,191.362Z" style="fill:#f2a900"/><path d="M512.712,191.612a12.324,12.324,0,0,0,5.618-1.232,5.053,5.053,0,0,0,2.016-1.75,2.628,2.628,0,0,0,.4-1.369s0-4.692,0-4.73c0,0-.1-.661-.11-.7l-2.052-6.456a3.6,3.6,0,0,0-1.381-1.745,11.544,11.544,0,0,0-6.549-1.772,12.7,12.7,0,0,0-5.622,1.189A4.977,4.977,0,0,0,503,174.765a2.48,2.48,0,0,0-.389,1.31v4.464a2.43,2.43,0,0,0,.1.729l2.07,6.712a3.748,3.748,0,0,0,1.432,1.839A11.349,11.349,0,0,0,512.712,191.612Z" style="fill:none;stroke:#141b21;stroke-linecap:round;stroke-linejoin:round"/><path d="M512.712,191.362c4.292,0,7.784-1.84,7.784-4.1v-4.692l-.1-.66-2.051-6.457c-.606-1.905-3.913-3.342-7.692-3.342-4.3,0-7.794,1.778-7.794,3.965v4.464a2.214,2.214,0,0,0,.094.656l2.07,6.712C505.628,189.876,508.934,191.362,512.712,191.362Z" style="fill:none;stroke:#141b21;stroke-linecap:round;stroke-linejoin:round;stroke-width:0.5px"/><ellipse cx="511.11" cy="174.529" rx="2.602" ry="1.364" style="fill:none;stroke:#141b21;stroke-linecap:round;stroke-linejoin:round;stroke-width:0.5px"/><path d="M520.532,184.6c0,2.248-3.459,4.07-7.727,4.07-3.831,0-7.148-1.545-7.775-3.466l-2.173-6.653" style="fill:none;stroke:#141b21;stroke-linecap:round;stroke-linejoin:round;stroke-width:0.5px"/><path d="M516.3,174.336l2.34,6.2a1.636,1.636,0,0,1,.109.586c0,1.66-2.567,3-5.733,3-2.9,0-5.3-1.13-5.681-2.6l-1.62-6.265a1.488,1.488,0,0,1-.049-.382c0-1.554,2.4-2.814,5.368-2.814C513.643,172.071,515.816,173.045,516.3,174.336Z" style="fill:none;stroke:#141b21;stroke-linecap:round;stroke-linejoin:round;stroke-width:0.5px"/><path d="M520.445,182.24c0,2.237-3.438,4.1-7.705,4.1-3.832,0-7.012-1.462-7.621-3.38l-1.957-6.16c-.218-.614-.4-1.305-.061-1.755" style="fill:none;stroke:#141b21;stroke-linecap:round;stroke-linejoin:round;stroke-width:0.5px"/><line x1="506.032" y1="176.482" x2="503.395" y2="177.533" style="fill:none;stroke:#141b21;stroke-linecap:round;stroke-linejoin:round;stroke-width:0.5px"/><line x1="517.114" y1="176.482" x2="518.895" y2="177.192" style="fill:none;stroke:#141b21;stroke-linecap:round;stroke-linejoin:round;stroke-width:0.5px"/><path d="M508.867,179.862l.4,1.24c.3.96,1.88,1.68,3.78,1.68,2.144,0,4.164-.969,3.79-2.34l-.4-1.25c-.3-.95-1.88-1.68-3.78-1.68C510.5,177.512,508.493,178.488,508.867,179.862Z" style="fill:none;stroke:#141b21;stroke-linecap:round;stroke-linejoin:round;stroke-width:0.5px"/></g></svg>