<?xml version="1.0" encoding="UTF-8"?><svg id="uuid-81cdad26-6e03-418b-979b-15e8597c2e34" xmlns="http://www.w3.org/2000/svg" width="40.7167" height="35.604" viewBox="0 0 40.7167 35.604"><polygon points="20.4946 1.3008 1.1954 34.9582 39.7938 35.0163 39.7938 35.0163 20.4946 1.3008" style="fill:#fff200; stroke-width:0px;"/><path d="m3.8454,33.397L20.3583,4.4841l16.5129,28.9743-33.0258-.0614ZM20.3583.003L-.0219,35.5456l40.7604.0614h0L20.3583.003Z" style="fill:#000001; stroke-width:0px;"/><circle cx="20.0402" cy="24.1103" r="2.9846" style="fill:#000001; stroke-width:0px;"/><polygon points="20.3158 22.4252 19.7646 22.4252 19.5859 15.2108 20.4946 15.2108 20.3158 22.4252" style="fill:#000001; stroke-width:0px;"/><path d="m19.9038,22.4091l-.5354.1314-1.1609-4.2445c.2434-.0755.4916-.1387.7472-.1825l.9492,4.2956Z" style="fill:#000001; stroke-width:0px;"/><path d="m19.0715,22.7052l-.398.3815-3.1276-3.0954c.173-.187.3564-.366.5558-.5317l2.9698,3.2455Z" style="fill:#000001; stroke-width:0px;"/><path d="m18.4987,23.3778l-.1539.5294-4.2563-1.1169c.0563-.2485.1257-.4951.2155-.7383l4.1947,1.3258Z" style="fill:#000001; stroke-width:0px;"/><path d="m18.339,24.2467l.1314.5354-4.2445,1.1609c-.0755-.2434-.1387-.4916-.1825-.7472l4.2956-.9492Z" style="fill:#000001; stroke-width:0px;"/><path d="m18.6351,25.0791l.3815.398-3.0954,3.1276c-.187-.173-.366-.3564-.5317-.5558l3.2455-2.9698Z" style="fill:#000001; stroke-width:0px;"/><path d="m19.3078,25.6518l.5294.1539-1.1169,4.2563c-.2485-.0563-.4951-.1257-.7383-.2155l1.3258-4.1947Z" style="fill:#000001; stroke-width:0px;"/><path d="m20.1767,25.8115l.5354-.1314,1.1609,4.2445c-.2434.0755-.4916.1387-.7472.1825l-.9492-4.2956Z" style="fill:#000001; stroke-width:0px;"/><path d="m21.009,25.5154l.398-.3815,3.1276,3.0954c-.173.187-.3564.366-.5558.5317l-2.9698-3.2455Z" style="fill:#000001; stroke-width:0px;"/><path d="m21.5817,24.8428l.1539-.5294,4.2563,1.1169c-.0563.2485-.1257.4951-.2155.7383l-4.1947-1.3258Z" style="fill:#000001; stroke-width:0px;"/><path d="m21.7415,23.9739l-.1314-.5354,4.2445-1.1609c.0755.2434.1387.4916.1825.7472l-4.2956.9492Z" style="fill:#000001; stroke-width:0px;"/><path d="m21.4453,23.1415l-.3815-.398,3.0954-3.1276c.187.173.366.3564.5317.5558l-3.2455,2.9698Z" style="fill:#000001; stroke-width:0px;"/><path d="m20.7727,22.5688l-.5294-.1539,1.1169-4.2563c.2485.0563.4951.1257.7383.2155l-1.3258,4.1947Z" style="fill:#000001; stroke-width:0px;"/><polygon points="19.7646 25.7954 20.3158 25.7954 20.4946 33.0098 19.5859 33.0098 19.7646 25.7954" style="fill:#000001; stroke-width:0px;"/><polygon points="21.7253 24.3859 21.7253 23.8347 32.4256 23.656 32.4256 24.5646 21.7253 24.3859" style="fill:#000001; stroke-width:0px;"/><polygon points="18.3552 23.8347 18.3552 24.3859 11.1407 24.5646 11.1407 23.656 18.3552 23.8347" style="fill:#000001; stroke-width:0px;"/><polygon points="18.73 23.0154 18.4495 23.4899 12.1484 19.9719 12.6109 19.1897 18.73 23.0154" style="fill:#000001; stroke-width:0px;"/><polygon points="21.3505 25.2052 21.631 24.7307 27.9321 28.2487 27.4696 29.0309 21.3505 25.2052" style="fill:#000001; stroke-width:0px;"/><polygon points="21.1351 22.8001 20.6606 22.5195 24.1787 16.2185 24.9609 16.681 21.1351 22.8001" style="fill:#000001; stroke-width:0px;"/><polygon points="18.9454 25.4205 19.4198 25.7011 15.9018 32.0021 15.1196 31.5396 18.9454 25.4205" style="fill:#000001; stroke-width:0px;"/><polygon points="18.4321 24.6841 18.6987 25.1666 12.4708 28.8125 12.0313 28.0172 18.4321 24.6841" style="fill:#000001; stroke-width:0px;"/><polygon points="21.6484 23.5365 21.3818 23.054 27.6097 19.4081 28.0492 20.2034 21.6484 23.5365" style="fill:#000001; stroke-width:0px;"/><polygon points="19.4664 22.5021 18.984 22.7688 15.338 16.5408 16.1333 16.1013 19.4664 22.5021" style="fill:#000001; stroke-width:0px;"/><polygon points="20.6141 25.7185 21.0965 25.4518 24.7425 31.6798 23.9471 32.1193 20.6141 25.7185" style="fill:#000001; stroke-width:0px;"/></svg>