<svg xmlns="http://www.w3.org/2000/svg" width="218" height="183.0414" viewBox="0 0 218 183.0414"><g id="b07c7a38-2750-443a-9f45-e7a368c111fb" data-name="arrows below"><circle cx="118.8658" cy="129.0129" r="8.2222" style="fill:#f2a900"/><circle cx="175.3163" cy="129.0129" r="8.2222" style="fill:#f2a900"/><circle cx="97.3025" cy="129.0129" r="8.2222" style="fill:#f2a900"/><circle cx="40.852" cy="129.0129" r="8.2222" style="fill:#f2a900"/></g><g id="e74a5d13-8e78-4b56-98b1-ff6065efa0ed" data-name="illustration"><path d="M106.8617,126.6619h-1.1144a.632.632,0,0,0-.5939.3538l-.5133,1.2328v3.0026l.7707.97h1.4509Z" style="fill:none;stroke:#a7abae;stroke-linecap:round;stroke-linejoin:round;stroke-width:0.5px"/><line x1="104.6401" y1="126.5196" x2="104.6401" y2="132.3519" style="fill:none;stroke:#a7abae;stroke-linecap:round;stroke-linejoin:round;stroke-width:0.5px"/><polyline points="31.134 136.004 34.765 135.914 35.829 133.506 35.635 106.328" style="fill:none;stroke:#a7abae;stroke-linecap:round;stroke-linejoin:round;stroke-width:0.5px"/><path d="M108.0842,66.529v1.7688a1.031,1.031,0,0,1-1.0311,1.0312H105.705a12.9742,12.9742,0,0,1-6.44-1.96c-2.688-1.456-6.104-3.248-7.84-4.4241s-3.416-2.184-4.368-3.808-1.7361-2.9121-3.1361-4.9841-2.632-2.8-4.256-2.8H59c-2.856,0-3.528.896-4.76,2.576-.6843.9331-3.08,4.4014-4.4039,6.3652a6.4641,6.4641,0,0,1-2.3918,2.125l-11.238,5.8041a2.8466,2.8466,0,0,1-1.3063.3174H32.2565c-1.2262,0-1.7436-.3056-1.7436-1.7591" style="fill:none;stroke:#a7abae;stroke-linecap:round;stroke-linejoin:round;stroke-width:0.5px"/><path d="M81.5687,31.4725c-1.288.504-3.9761.784-12.32.784s-10.4162.112-12.32-.504" style="fill:none;stroke:#a7abae;stroke-linecap:round;stroke-linejoin:round;stroke-width:0.5px"/><path d="M81.5418,5.887c-.4234-.2261-.8131.3291-.3091,2.3451s1.288,7.2241,2.184,11.5922.28,10.3042-7.2241,10.3042H60.0644c-3.5281,0-7.56-4.1441-7.0561-9.24s1.288-9.9681,1.736-11.9842.8741-3.4381,1.8608-3.7517" style="fill:none;stroke:#a7abae;stroke-linecap:round;stroke-linejoin:round;stroke-width:0.5px"/><path d="M31.5039,47.8807c.3734-3.3787,2.1654-6.8881,8.8108-9.9495s9.9308-3.4347,16.2029-3.4347h49.7079a1.8586,1.8586,0,0,1,1.8587,1.8584" style="fill:none;stroke:#a7abae;stroke-linecap:round;stroke-linejoin:round;stroke-width:0.5px"/><path d="M56.3118,31.7554c-1.2341,0-1.853-.0793-2.2955,1.42s.6156,1.3222,2.0158,1.3222H82.2407c.952,0,1.624.2231,1.68-1.4009s-.672-1.624-1.736-1.624" style="fill:none;stroke:#a7abae;stroke-linecap:round;stroke-linejoin:round;stroke-width:0.5px"/><line x1="35.8291" y1="133.506" x2="102.3637" y2="133.506" style="fill:none;stroke:#a7abae;stroke-linecap:round;stroke-linejoin:round;stroke-width:0.5px"/><path d="M108.0842,138.9941c0-1.176-1.0351-1.792-3.3312-2.1841s-2.464-.952-2.464-2.352V127.85s.784-.28.784-2.408V106.6927a1.2406,1.2406,0,0,1,1.185-1.24l2.64-.1171a1.241,1.241,0,0,0,1.1859-1.24v-1.5009" style="fill:none;stroke:#a7abae;stroke-linecap:round;stroke-linejoin:round;stroke-width:0.5px"/><path d="M35.6081,69.5912c-.15,13.089-.0819,29.6008-.0153,36.7368" style="fill:none;stroke:#a7abae;stroke-linecap:round;stroke-linejoin:round;stroke-width:0.5px"/><path d="M102.0136,67.1853c-.2223-5.5428-.4429-10.0371-.6206-12.08-.5974-6.8694-.448-11.7975-9.2588-14.3362S83.398,38.23,68.39,38.23s-18.1443.2987-24.043,3.2107-7.6161,3.1361-8.2881,12.1709c-.2049,2.754-.3376,7.7143-.42,13.5889" style="fill:none;stroke:#a7abae;stroke-linecap:round;stroke-linejoin:round;stroke-width:0.5px"/><path d="M103.073,106.6281c0-5.8879-.4651-23.8675-.9538-36.7354" style="fill:none;stroke:#a7abae;stroke-linecap:round;stroke-linejoin:round;stroke-width:0.5px"/><path d="M51.3166,58.1209a7.1294,7.1294,0,0,1,5.9423-3.0161H81.1957a5.5035,5.5035,0,0,1,4.8674,2.3661" style="fill:none;stroke:#a7abae;stroke-linecap:round;stroke-linejoin:round;stroke-width:0.5px"/><path d="M48.0055,133.3175c-.8964,0-1.8667-3.3-1.8667-19.2794,0-7.1684-.0746-25.7808.1494-29.0662s.9706-5.3014,5.0027-9.1094,7.2428-4.4054,11.0508-4.4054H76.6779A15,15,0,0,1,86.4594,75.34c4.6294,4.0321,5.2268,6.0481,5.2268,13.2909,0,10.8268.0746,37.5664.1493,40.7025s.4484,4.1728,1.1945,4.1728" style="fill:none;stroke:#a7abae;stroke-linecap:round;stroke-linejoin:round;stroke-width:0.5px"/><path d="M21.6842,145.9259c-.66,1.6683-1.1668,2.82,3.0521,6.4812s8.3749,4.8947,13.8532,4.8947c4.8972,0,56.5737.2156,67.48.2614a2.775,2.775,0,0,0,1.4232-.3556,1.0641,1.0641,0,0,0,.591-.8693" style="fill:none;stroke:#a7abae;stroke-linecap:round;stroke-linejoin:round;stroke-width:0.5px"/><path d="M101.6505,144.9747c-.82,4.8526-4.4173,5.5329-9.62,8.467a15.0249,15.0249,0,0,1-7.3256,1.8852H38c-2.52,0-4.368-1.1311-8.0641-4.1131-3.168-2.556-2.464-4.9016-1.792-6.41a24.8,24.8,0,0,1,3.36-5.4157c1.8285-2.1488,2.8561-2.5707,9.8562-3.7019a100.3509,100.3509,0,0,1,16.1842-.994c6.6081-.0685,19.32.0343,25.1444,0a62.9878,62.9878,0,0,1,13.3842,1.234c3.6961.72,5.7681,1.5424,5.7121,2.9477S101.6505,144.9747,101.6505,144.9747Z" style="fill:none;stroke:#a7abae;stroke-linecap:round;stroke-linejoin:round;stroke-width:0.5px"/><path d="M35.5757,154.909a21.3389,21.3389,0,0,1,3.4883-8.46c3.8081-5.7241,3.8641-5.93,9.52-6.9581s8.8481-.9254,18.5923-.9254,14.3922,0,18.8163.754,4.48.8912,4.312,2.9821-.952,7.1638-1.288,9.049a30.0894,30.0894,0,0,0-.4084,3.5219" style="fill:none;stroke:#a7abae;stroke-linecap:round;stroke-linejoin:round;stroke-width:0.5px"/><path d="M114.5179,144.9747c.82,4.8526,4.4172,5.5329,9.62,8.467a15.0248,15.0248,0,0,0,7.3255,1.8852h46.7047c2.52,0,4.3681-1.1311,8.0641-4.1131,3.1681-2.556,2.4641-4.9016,1.7921-6.41a24.8009,24.8009,0,0,0-3.36-5.4157c-1.8284-2.1488-2.856-2.5707-9.8561-3.7019a100.3521,100.3521,0,0,0-16.1843-.994c-6.6081-.0685-19.32.0343-25.1443,0a62.9871,62.9871,0,0,0-13.3842,1.234c-3.6961.72-5.7681,1.5424-5.7121,2.9477S114.5179,144.9747,114.5179,144.9747Z" style="fill:none;stroke:#a7abae;stroke-linecap:round;stroke-linejoin:round;stroke-width:0.5px"/><path d="M180.5927,154.909a21.34,21.34,0,0,0-3.4884-8.46c-3.808-5.7241-3.864-5.93-9.52-6.9581s-8.8482-.9254-18.5923-.9254-14.3922,0-18.8163.754-4.48.8912-4.3121,2.9821.9521,7.1638,1.2881,9.049a30.0894,30.0894,0,0,1,.4084,3.5219" style="fill:none;stroke:#a7abae;stroke-linecap:round;stroke-linejoin:round;stroke-width:0.5px"/><path d="M106.1531,137.1244l1.2065-1.533a3.3821,3.3821,0,0,0,.7246-2.092v-6.9759a.9354.9354,0,0,0-.9354-.9354H103.073" style="fill:none;stroke:#a7abae;stroke-linecap:round;stroke-linejoin:round;stroke-width:0.5px"/><line x1="108.0842" y1="160.3463" x2="108.0842" y2="138.1989" style="fill:none;stroke:#a7abae;stroke-linecap:round;stroke-linejoin:round;stroke-width:0.5px"/><line x1="108.0842" y1="32.6485" x2="108.0842" y2="102.5952" style="fill:none;stroke:#a7abae;stroke-linecap:round;stroke-linejoin:round;stroke-width:0.5px"/><path d="M109.205,105.3934a1.3582,1.3582,0,0,0-1.1208,1.3373v0a1.3452,1.3452,0,0,0-1.1227-1.3266" style="fill:none;stroke:#a7abae;stroke-linecap:round;stroke-linejoin:round;stroke-width:0.5px"/><line x1="108.0842" y1="126.5235" x2="108.0842" y2="106.7307" style="fill:none;stroke:#a7abae;stroke-linecap:round;stroke-linejoin:round;stroke-width:0.5px"/><path d="M109.3067,126.6619h1.1143a.6319.6319,0,0,1,.5939.3538l.5134,1.2328v3.0026l-.7708.97h-1.4508Z" style="fill:none;stroke:#a7abae;stroke-linecap:round;stroke-linejoin:round;stroke-width:0.5px"/><line x1="111.5283" y1="126.5196" x2="111.5283" y2="132.3519" style="fill:none;stroke:#a7abae;stroke-linecap:round;stroke-linejoin:round;stroke-width:0.5px"/><polyline points="185.035 136.004 181.403 135.914 180.339 133.506 180.533 106.328" style="fill:none;stroke:#a7abae;stroke-linecap:round;stroke-linejoin:round;stroke-width:0.5px"/><path d="M108.0842,66.529v1.7688a1.0309,1.0309,0,0,0,1.031,1.0312h1.3481a12.9739,12.9739,0,0,0,6.44-1.96c2.688-1.456,6.1041-3.248,7.84-4.4241s3.4161-2.184,4.3681-3.808,1.736-2.9121,3.136-4.9841,2.6321-2.8,4.2561-2.8H157.168c2.8561,0,3.5281.896,4.76,2.576.6843.9331,3.08,4.4014,4.4039,6.3652a6.4631,6.4631,0,0,0,2.3917,2.125l11.2381,5.8041a2.846,2.846,0,0,0,1.3063.3174h2.6438c1.2262,0,1.7435-.3056,1.7435-1.7591" style="fill:none;stroke:#a7abae;stroke-linecap:round;stroke-linejoin:round;stroke-width:0.5px"/><path d="M134.6,31.4725c1.288.504,3.976.784,12.32.784s10.4161.112,12.32-.504" style="fill:none;stroke:#a7abae;stroke-linecap:round;stroke-linejoin:round;stroke-width:0.5px"/><path d="M134.6266,5.887c.4234-.2261.8131.3291.3091,2.3451s-1.288,7.2241-2.1841,11.5922-.28,10.3042,7.2242,10.3042H156.104c3.528,0,7.56-4.1441,7.0561-9.24s-1.288-9.9681-1.736-11.9842-.8742-3.4381-1.8608-3.7517" style="fill:none;stroke:#a7abae;stroke-linecap:round;stroke-linejoin:round;stroke-width:0.5px"/><path d="M184.6644,47.8807c-.3733-3.3787-2.1653-6.8881-8.8108-9.9495s-9.9308-3.4347-16.2029-3.4347H109.9428a1.8585,1.8585,0,0,0-1.8586,1.8584" style="fill:none;stroke:#a7abae;stroke-linecap:round;stroke-linejoin:round;stroke-width:0.5px"/><path d="M159.8565,31.7554c1.2342,0,1.853-.0793,2.2956,1.42s-.6156,1.3222-2.0159,1.3222H133.9277c-.9521,0-1.6241.2231-1.68-1.4009s.672-1.624,1.7361-1.624" style="fill:none;stroke:#a7abae;stroke-linecap:round;stroke-linejoin:round;stroke-width:0.5px"/><line x1="180.3393" y1="133.506" x2="113.8047" y2="133.506" style="fill:none;stroke:#a7abae;stroke-linecap:round;stroke-linejoin:round;stroke-width:0.5px"/><path d="M108.0842,138.9941c0-1.176,1.0351-1.792,3.3311-2.1841s2.4641-.952,2.4641-2.352V127.85s-.7841-.28-.7841-2.408V106.6281a1.24,1.24,0,0,0-1.1152-1.2347l-2.7792.0022a1.241,1.241,0,0,1-1.1167-1.2347v-1.5657" style="fill:none;stroke:#a7abae;stroke-linecap:round;stroke-linejoin:round;stroke-width:0.5px"/><path d="M180.56,69.5912c.15,13.089.0819,29.6008.0154,36.7368" style="fill:none;stroke:#a7abae;stroke-linecap:round;stroke-linejoin:round;stroke-width:0.5px"/><path d="M114.1548,67.1853c.2223-5.5428.4429-10.0371.6206-12.08.5973-6.8694.448-11.7975,9.2588-14.3362S132.77,38.23,147.7785,38.23s18.1443.2987,24.0431,3.2107,7.6161,3.1361,8.2881,12.1709c.2048,2.754.3375,7.7143.42,13.5889" style="fill:none;stroke:#a7abae;stroke-linecap:round;stroke-linejoin:round;stroke-width:0.5px"/><path d="M113.0953,106.6281c0-5.8879.4652-23.8675.9539-36.7354" style="fill:none;stroke:#a7abae;stroke-linecap:round;stroke-linejoin:round;stroke-width:0.5px"/><path d="M164.8518,58.1209a7.13,7.13,0,0,0-5.9423-3.0161H134.9726a5.5035,5.5035,0,0,0-4.8673,2.3661" style="fill:none;stroke:#a7abae;stroke-linecap:round;stroke-linejoin:round;stroke-width:0.5px"/><path d="M168.1629,133.3175c.8963,0,1.8666-3.3,1.8666-19.2794,0-7.1684.0747-25.7808-.1493-29.0662s-.9707-5.3014-5.0027-9.1094-7.2428-4.4054-11.0509-4.4054H139.49a15,15,0,0,0-9.7815,3.8827c-4.6294,4.0321-5.2267,6.0481-5.2267,13.2909,0,10.8268-.0747,37.5664-.1493,40.7025s-.4485,4.1728-1.1945,4.1728" style="fill:none;stroke:#a7abae;stroke-linecap:round;stroke-linejoin:round;stroke-width:0.5px"/><path d="M193.1658,145.9259c.66,1.6683,2.4851,2.82-1.7338,6.4812s-8.3748,4.8947-13.8531,4.8947c-4.8972,0-56.5738.2156-67.48.2614a2.7747,2.7747,0,0,1-1.4232-.3556,1.0641,1.0641,0,0,1-.591-.8693" style="fill:none;stroke:#a7abae;stroke-linecap:round;stroke-linejoin:round;stroke-width:0.5px"/><path d="M110.0153,137.1244l-1.2066-1.533a3.3826,3.3826,0,0,1-.7245-2.092v-6.9759a.9354.9354,0,0,1,.9354-.9354h4.0757" style="fill:none;stroke:#a7abae;stroke-linecap:round;stroke-linejoin:round;stroke-width:0.5px"/><path d="M108.3415,172.0126a2.7719,2.7719,0,0,0,1.6236.4928c9.91-.0322,56.2429-.1938,71.554-.4516,4.4654-.0752,7.6794-1.2,9.9444-2.9811a12.0249,12.0249,0,0,0,4.1469-6.6111c1.3018-4.9987.1676-10.6334-.6114-13.4469-.2094-.7562-.3966-1.3208-.5105-1.6279-.0394-.1063-.0778-.2028-.1088-.2643-1.2791-2.5356-4.1584-7.8981-5.4576-9.3228a5.6786,5.6786,0,0,0-3.3875-2.2169V108.8755a3.05,3.05,0,0,0-2.0933-2.895h.9643l.0538-.0121a1.9214,1.9214,0,0,0,1.5013-1.8547c.057-5.2845.292-28.426.2464-32.94a6.699,6.699,0,0,0-.4871-2.58,2.1667,2.1667,0,0,0,.1477-.2757,3.75,3.75,0,0,0,.2877-1.5367c0-1.3049-.1038-9.34-.9931-18.9468a13.8855,13.8855,0,0,0-2.2708-6.6455c-1.8118-2.6859-4.5418-4.59-7.742-6.2409a29.262,29.262,0,0,0-13.9323-3.6652,12.961,12.961,0,0,0,2.3762-2.1705l.1355-.1555a7.4,7.4,0,0,0,1.84-2.9858c.5194-1.8011.4563-4.5579-.4031-10.0325-.082-.522-.1569-1.0079-.227-1.462-.6668-4.3222-.89-5.8463-2.5149-7.7967a6.2054,6.2054,0,0,0-2.2431-1.8088c-1.9234-.9009-5.1972-1.2831-12.3092-1.2831-6.5688,0-10.104.5348-12.1362,1.2479a6.5456,6.5456,0,0,0-1.9672,1.0322,4.65,4.65,0,0,0-.5476.5164,9.0107,9.0107,0,0,0-2.301,4.3134c-.3948,1.7483-1.4045,7.0222-1.9648,10.2159-.5888,3.3564.1984,5.2188,1.7491,7.6884a9.2616,9.2616,0,0,0,2.1221,2.37h-23.259a2.0571,2.0571,0,0,0-1.4831.5765,2.0571,2.0571,0,0,0-1.4831-.5765H83.342a9.26,9.26,0,0,0,2.1222-2.37c1.5507-2.47,2.3379-4.332,1.749-7.6884-.56-3.1937-1.57-8.4676-1.9647-10.2159a9.0116,9.0116,0,0,0-2.301-4.3134A4.6574,4.6574,0,0,0,82.4,5.8682,6.5476,6.5476,0,0,0,80.4326,4.836c-2.0321-.7131-5.5674-1.2479-12.1361-1.2479-7.1121,0-10.3859.3822-12.3092,1.2831A6.2054,6.2054,0,0,0,53.7442,6.68c-1.6254,1.95-1.8481,3.4745-2.515,7.7967-.07.4541-.145.94-.2269,1.462-.8594,5.4746-.9225,8.2314-.4031,10.0325a7.3976,7.3976,0,0,0,1.84,2.9858l.1355.1555a12.9576,12.9576,0,0,0,2.3761,2.1705,29.2616,29.2616,0,0,0-13.9322,3.6652c-3.2,1.6506-5.93,3.555-7.742,6.2409a13.8845,13.8845,0,0,0-2.2708,6.6455c-.8893,9.6069-.9932,17.6419-.9932,18.9468a3.7517,3.7517,0,0,0,.2877,1.5367,2.3835,2.3835,0,0,0,.1463.279,6.7046,6.7046,0,0,0-.4857,2.5769c-.0456,4.5137.1894,27.6552.2465,32.94a1.9214,1.9214,0,0,0,1.5012,1.8547l.0539.0121h.9643a3.05,3.05,0,0,0-2.0933,2.895v26.7073A5.6788,5.6788,0,0,0,27.2462,137.8a62.5194,62.5194,0,0,0-5.4363,6.9454,10.4114,10.4114,0,0,0-1.1889,3.9272,29.1952,29.1952,0,0,0,.9844,11.5219c1.0768,3.678,2.9566,7.1943,5.8944,9.4342a11.8474,11.8474,0,0,0,7.1494,2.4254c15.3111.2578,61.6442.4194,71.5541.4516a2.7716,2.7716,0,0,0,1.6235-.4928,2.0991,2.0991,0,0,0,.2574-.22A2.0981,2.0981,0,0,0,108.3415,172.0126Z" style="fill:none;stroke:#a7abae;stroke-linecap:round;stroke-linejoin:round;stroke-width:1.5px"/><path d="M108.0842,169.9363v.7049a1.2133,1.2133,0,0,0,.551.9668,2.2738,2.2738,0,0,0,1.3283.3974c9.912-.0322,56.24-.1938,71.5472-.4515,20.6051-.347,12.8265-23.4055,12.4226-24.2063-1.2934-2.5639-4.139-7.8493-5.3806-9.211s-1.9143-1.8994-3.5181-2.1325V108.8755a2.5475,2.5475,0,0,0-2.5475-2.5475h-1.9536l.0517-.8475H184.35a1.4216,1.4216,0,0,0,1.11-1.3721c.0571-5.2888.292-28.4224.2465-32.9293a5.1645,5.1645,0,0,0-.5691-2.6386,2.3938,2.3938,0,0,0,.5173-1.7591c0-1.2934-.1035-9.3125-.991-18.9007-.59-6.3767-4.424-9.7441-9.7441-12.4882s-9.1282-3.64-15.68-3.64c0,0,1.7361-.392,3.9761-2.9681,1.949-2.2413,2.968-3.136,1.456-12.7682-.8683-5.5315-.952-7-2.632-9.0161s-3.36-2.912-14.1682-2.912-13.2162,1.456-14.28,2.632a8.5125,8.5125,0,0,0-2.1841,4.0881c-.392,1.736-1.4,7-1.96,10.1921s.168,4.9281,1.68,7.3361A7.8305,7.8305,0,0,0,134.6,31.4725H109.5673a1.3685,1.3685,0,0,0-1.4831,1.176,1.3685,1.3685,0,0,0-1.4831-1.176H81.5687a7.8306,7.8306,0,0,0,3.472-3.1361c1.5121-2.408,2.24-4.144,1.68-7.3361s-1.5681-8.4561-1.96-10.1921A8.5132,8.5132,0,0,0,82.5767,6.72c-1.064-1.176-3.4721-2.632-14.28-2.632S55.8083,4.9841,54.1283,7s-1.7637,3.4846-2.6321,9.0161c-1.512,9.6322-.4929,10.5269,1.4561,12.7682,2.24,2.5761,3.976,2.9681,3.976,2.9681-6.5521,0-10.36.896-15.68,3.64s-9.1539,6.1115-9.7442,12.4882c-.8875,9.5882-.991,17.6073-.991,18.9007a2.3935,2.3935,0,0,0,.5174,1.7591,5.1645,5.1645,0,0,0-.5691,2.6386c-.0455,4.5069.1894,27.64.2464,32.9293a1.4216,1.4216,0,0,0,1.11,1.3721h3.7652l.0518.8475H33.6813a2.5474,2.5474,0,0,0-2.5475,2.5475v27.1286c-1.6039.2331-2.2764.7708-3.5181,2.1325a62.0935,62.0935,0,0,0-5.3806,6.8716c-3.07,4.961-1.47,26.3117,12.4225,26.5457,15.3068.2577,61.6353.4193,71.5473.4515a2.2733,2.2733,0,0,0,1.3282-.3974,1.2132,1.2132,0,0,0,.5511-.9668Z" style="fill:none;stroke:#a7abae;stroke-linecap:round;stroke-linejoin:round;stroke-width:0.5px"/><line x1="108.0842" y1="169.9363" x2="108.0842" y2="137.6269" style="fill:none;stroke:#a7abae;stroke-linecap:round;stroke-linejoin:round;stroke-width:0.5px"/><path d="M106.9633,105.3934a1.3583,1.3583,0,0,1,1.1209,1.3373v0a1.3452,1.3452,0,0,1,1.1227-1.3266" style="fill:none;stroke:#a7abae;stroke-linecap:round;stroke-linejoin:round;stroke-width:0.5px"/><line x1="108.0842" y1="126.5235" x2="108.0842" y2="106.7307" style="fill:none;stroke:#a7abae;stroke-linecap:round;stroke-linejoin:round;stroke-width:0.5px"/><path d="M178.9189,130.8318a.9708.9708,0,0,1-.8413.4838h-4.93a.9625.9625,0,0,1-.8427-.4935l-.7833-1.3868a.9731.9731,0,0,1-.0956-.7341.9427.9427,0,0,1,.1656-.3338,1.0046,1.0046,0,0,1,.646-.372.9866.9866,0,0,1,.3882.027.9727.9727,0,0,1,.5813.4553l.51.9008h2.704a.97.97,0,0,1-.0658-.6774.9444.9444,0,0,1,.1658-.3339.9591.9591,0,0,1,.2833-.2457.9176.9176,0,0,1,.3484-.125.9875.9875,0,0,1,.7365.1959.9608.9608,0,0,1,.2476.286l.7813,1.391a.9512.9512,0,0,1,.1282.4736A.9808.9808,0,0,1,178.9189,130.8318Z" style="fill:none;stroke:#12171d;stroke-miterlimit:10;stroke-width:0.5px"/><path d="M178.7026,130.7063a.7207.7207,0,0,1-.625.3593h-4.93a.7129.7129,0,0,1-.6251-.3665l-.7833-1.3868a.7233.7233,0,0,1-.0718-.5461.7025.7025,0,0,1,.3377-.4312.7133.7133,0,0,1,.5533-.0718.722.722,0,0,1,.4311.3377l.5821,1.0276h3.2767l-.18-.3162a.7234.7234,0,0,1-.0719-.5461.7033.7033,0,0,1,.3378-.4312.692.692,0,0,1,.5461-.0718.7169.7169,0,0,1,.4384.3377l.7831,1.394A.7176.7176,0,0,1,178.7026,130.7063Z" style="fill:#f2a900"/><path d="M178.7026,130.7063a.7207.7207,0,0,1-.625.3593h-4.93a.7129.7129,0,0,1-.6251-.3665l-.7833-1.3868a.7233.7233,0,0,1-.0718-.5461.7025.7025,0,0,1,.3377-.4312.7133.7133,0,0,1,.5533-.0718.722.722,0,0,1,.4311.3377l.5821,1.0276h3.2767l-.18-.3162a.7234.7234,0,0,1-.0719-.5461.7033.7033,0,0,1,.3378-.4312.692.692,0,0,1,.5461-.0718.7169.7169,0,0,1,.4384.3377l.7831,1.394A.7176.7176,0,0,1,178.7026,130.7063Z" style="fill:#f2a900"/><path d="M178.7026,130.7063a.7207.7207,0,0,1-.625.3593h-4.93a.7129.7129,0,0,1-.6251-.3665l-.7833-1.3868a.7233.7233,0,0,1-.0718-.5461.7025.7025,0,0,1,.3377-.4312.7133.7133,0,0,1,.5533-.0718.722.722,0,0,1,.4311.3377l.5821,1.0276h3.2767l-.18-.3162a.7234.7234,0,0,1-.0719-.5461.7033.7033,0,0,1,.3378-.4312.692.692,0,0,1,.5461-.0718.7169.7169,0,0,1,.4384.3377l.7831,1.394A.7176.7176,0,0,1,178.7026,130.7063Z" style="fill:none;stroke:#12171d;stroke-miterlimit:10;stroke-width:0.5px"/><path d="M122.34,130.9415a.9937.9937,0,0,1-.3522.3.9533.9533,0,0,1-.4317.104h-4.9295a.9657.9657,0,0,1-.9289-.6871l-.423-1.3838a.9538.9538,0,0,1-.0418-.3794.9993.9993,0,0,1,.3362-.6472.9732.9732,0,0,1,1.5551.4527l.2186.7076,2.8661.0008-.04-.1186a.9735.9735,0,0,1,.0577-.743.9527.9527,0,0,1,.5523-.4768.97.97,0,0,1,1.046.2844.9534.9534,0,0,1,.184.3252l.4672,1.3875a.968.968,0,0,1-.1359.8734Z" style="fill:none;stroke:#12171d;stroke-miterlimit:10;stroke-width:0.5px"/><path d="M122.138,130.794a.7254.7254,0,0,1-.5821.3018h-4.9295a.7157.7157,0,0,1-.69-.51l-.424-1.3869a.7179.7179,0,0,1,.4743-.8982.7228.7228,0,0,1,.8982.4743l.2731.8838h3.3989l-.151-.4455a.7192.7192,0,0,1,1.3654-.4527l.467,1.3869A.7179.7179,0,0,1,122.138,130.794Z" style="fill:#f2a900"/><path d="M122.138,130.794a.7254.7254,0,0,1-.5821.3018h-4.9295a.7157.7157,0,0,1-.69-.51l-.424-1.3869a.7179.7179,0,0,1,.4743-.8982.7228.7228,0,0,1,.8982.4743l.2731.8838h3.3989l-.151-.4455a.7192.7192,0,0,1,1.3654-.4527l.467,1.3869A.7179.7179,0,0,1,122.138,130.794Z" style="fill:#f2a900"/><path d="M122.138,130.794a.7254.7254,0,0,1-.5821.3018h-4.9295a.7157.7157,0,0,1-.69-.51l-.424-1.3869a.7179.7179,0,0,1,.4743-.8982.7228.7228,0,0,1,.8982.4743l.2731.8838h3.3989l-.151-.4455a.7192.7192,0,0,1,1.3654-.4527l.467,1.3869A.7179.7179,0,0,1,122.138,130.794Z" style="fill:none;stroke:#12171d;stroke-miterlimit:10;stroke-width:0.5px"/><path d="M37.25,130.8318a.97.97,0,0,0,.8413.4838H43.02a.9628.9628,0,0,0,.8428-.4935l.7833-1.3868a.974.974,0,0,0,.0956-.7341.9429.9429,0,0,0-.1657-.3338,1.0047,1.0047,0,0,0-.6459-.372.9864.9864,0,0,0-.3882.027.9727.9727,0,0,0-.5813.4553l-.51.9008H39.7467a.97.97,0,0,0,.0658-.6774.9444.9444,0,0,0-.1658-.3339.9591.9591,0,0,0-.2833-.2457.9181.9181,0,0,0-.3485-.125.9871.9871,0,0,0-.7364.1959.9594.9594,0,0,0-.2476.286l-.7814,1.391a.9511.9511,0,0,0-.1281.4736A.98.98,0,0,0,37.25,130.8318Z" style="fill:none;stroke:#12171d;stroke-miterlimit:10;stroke-width:0.5px"/><path d="M37.4657,130.7063a.721.721,0,0,0,.6251.3593H43.02a.7129.7129,0,0,0,.6251-.3665l.7833-1.3868a.7234.7234,0,0,0,.0719-.5461.7031.7031,0,0,0-.3377-.4312.7135.7135,0,0,0-.5534-.0718.7223.7223,0,0,0-.4311.3377l-.5821,1.0276H39.32l.18-.3162a.7229.7229,0,0,0,.0718-.5461.7028.7028,0,0,0-.3377-.4312.6921.6921,0,0,0-.5461-.0718.7166.7166,0,0,0-.4384.3377l-.7832,1.394A.7176.7176,0,0,0,37.4657,130.7063Z" style="fill:#f2a900"/><path d="M37.4657,130.7063a.721.721,0,0,0,.6251.3593H43.02a.7129.7129,0,0,0,.6251-.3665l.7833-1.3868a.7234.7234,0,0,0,.0719-.5461.7031.7031,0,0,0-.3377-.4312.7135.7135,0,0,0-.5534-.0718.7223.7223,0,0,0-.4311.3377l-.5821,1.0276H39.32l.18-.3162a.7229.7229,0,0,0,.0718-.5461.7028.7028,0,0,0-.3377-.4312.6921.6921,0,0,0-.5461-.0718.7166.7166,0,0,0-.4384.3377l-.7832,1.394A.7176.7176,0,0,0,37.4657,130.7063Z" style="fill:#f2a900"/><path d="M37.4657,130.7063a.721.721,0,0,0,.6251.3593H43.02a.7129.7129,0,0,0,.6251-.3665l.7833-1.3868a.7234.7234,0,0,0,.0719-.5461.7031.7031,0,0,0-.3377-.4312.7135.7135,0,0,0-.5534-.0718.7223.7223,0,0,0-.4311.3377l-.5821,1.0276H39.32l.18-.3162a.7229.7229,0,0,0,.0718-.5461.7028.7028,0,0,0-.3377-.4312.6921.6921,0,0,0-.5461-.0718.7166.7166,0,0,0-.4384.3377l-.7832,1.394A.7176.7176,0,0,0,37.4657,130.7063Z" style="fill:none;stroke:#12171d;stroke-miterlimit:10;stroke-width:0.5px"/><path d="M93.8285,130.9415a.9945.9945,0,0,0,.3522.3.9539.9539,0,0,0,.4317.104h4.93a.9659.9659,0,0,0,.9289-.6871l.423-1.3838a.9538.9538,0,0,0,.0418-.3794,1,1,0,0,0-.3362-.6472.9731.9731,0,0,0-1.5551.4527l-.2187.7076-2.866.0008.04-.1186a.973.973,0,0,0-.0578-.743.9527.9527,0,0,0-.5523-.4768.97.97,0,0,0-1.0459.2844.9517.9517,0,0,0-.184.3252l-.4672,1.3875a.9684.9684,0,0,0,.1358.8734Z" style="fill:none;stroke:#12171d;stroke-miterlimit:10;stroke-width:0.5px"/><path d="M94.03,130.794a.7254.7254,0,0,0,.5821.3018h4.93a.7158.7158,0,0,0,.69-.51l.4239-1.3869a.7176.7176,0,0,0-.4743-.8982.7229.7229,0,0,0-.8982.4743l-.273.8838H95.6113l.1509-.4455a.7192.7192,0,0,0-1.3654-.4527l-.467,1.3869A.7182.7182,0,0,0,94.03,130.794Z" style="fill:#f2a900"/><path d="M94.03,130.794a.7254.7254,0,0,0,.5821.3018h4.93a.7158.7158,0,0,0,.69-.51l.4239-1.3869a.7176.7176,0,0,0-.4743-.8982.7229.7229,0,0,0-.8982.4743l-.273.8838H95.6113l.1509-.4455a.7192.7192,0,0,0-1.3654-.4527l-.467,1.3869A.7182.7182,0,0,0,94.03,130.794Z" style="fill:#f2a900"/><path d="M94.03,130.794a.7254.7254,0,0,0,.5821.3018h4.93a.7158.7158,0,0,0,.69-.51l.4239-1.3869a.7176.7176,0,0,0-.4743-.8982.7229.7229,0,0,0-.8982.4743l-.273.8838H95.6113l.1509-.4455a.7192.7192,0,0,0-1.3654-.4527l-.467,1.3869A.7182.7182,0,0,0,94.03,130.794Z" style="fill:none;stroke:#12171d;stroke-miterlimit:10;stroke-width:0.5px"/></g></svg>