<svg xmlns="http://www.w3.org/2000/svg" width="218" height="218" viewBox="0 0 218 218"><g id="b4edba76-9748-4b36-a086-9e66368d756a" data-name="below"><path d="M201.1433,228.2861c.4362-21.5229.6264-50.7775.3368-59.9442-1.4606-46.2312-3.6961-62.0911-4.788-68.1385a11.963,11.963,0,0,0-4.7787-7.5805l-13.2807-9.5694a10.1464,10.1464,0,0,0-5.9755-1.93" style="fill:none;stroke:#a7abae;stroke-linecap:round;stroke-linejoin:round;stroke-width:0.5px"/><path d="M141.3685,78.1343l-101.2722-.088a15.76,15.76,0,0,0-15.7719,15.76l-.9616,131.3627" style="fill:none;stroke:#a7abae;stroke-linecap:round;stroke-linejoin:round;stroke-width:0.5px"/><path d="M172.6753,70.9376V85.3218a5.35,5.35,0,0,1-5.35,5.35H146.7181a5.35,5.35,0,0,1-5.35-5.35V67.2645" style="fill:none;stroke:#a7abae;stroke-linecap:round;stroke-linejoin:round;stroke-width:0.5px"/><path d="M167.2614,67.2645v14.867a1.8854,1.8854,0,0,1-1.8855,1.8854H148.4764a1.8855,1.8855,0,0,1-1.8855-1.8854V67.2645" style="fill:none;stroke:#a7abae;stroke-linecap:round;stroke-linejoin:round;stroke-width:0.5px"/><line x1="207.849" y1="144.731" x2="200.5573" y2="144.731" style="fill:none;stroke:#a7abae;stroke-linecap:round;stroke-linejoin:round;stroke-width:0.5px"/><line x1="207.849" y1="151.5061" x2="200.8627" y2="151.5061" style="fill:none;stroke:#a7abae;stroke-linecap:round;stroke-linejoin:round;stroke-width:0.5px"/><line x1="16.5097" y1="224.2793" x2="17.9263" y2="75.0981" style="fill:none;stroke:#a7abae;stroke-linecap:round;stroke-linejoin:round;stroke-width:0.5px"/><path d="M-6.7521,86.8687H12.8517a4.8222,4.8222,0,0,1,4.8222,4.8222" style="fill:none;stroke:#a7abae;stroke-linecap:round;stroke-linejoin:round;stroke-width:0.5px"/><path d="M-6.3041,105.7436H12.8517a4.8222,4.8222,0,0,1,4.8222,4.8222" style="fill:none;stroke:#a7abae;stroke-linecap:round;stroke-linejoin:round;stroke-width:0.5px"/><path d="M55.77,68.27l-15.7218-.0354L24.325,68.1994a6.9013,6.9013,0,0,0-6.3987,4.3186,6.9009,6.9009,0,0,0-6.3987-4.3186H-2.72" style="fill:none;stroke:#a7abae;stroke-linecap:round;stroke-linejoin:round;stroke-width:1.5px"/><path d="M55.7686,68.77l-15.7218-.0354L24.325,68.6994a6.3987,6.3987,0,0,0-6.3987,6.3987,6.3986,6.3986,0,0,0-6.3987-6.3987H-2.72" style="fill:none;stroke:#a7abae;stroke-linecap:round;stroke-linejoin:round;stroke-width:0.5px"/><path d="M211.8485,226.9522c.1151-5.9907.2124-12.5174.2871-19.0327.2-17.428.2387-34.7886.0241-41.582a54.1128,54.1128,0,0,0-.7508-7.8816A20.81,20.81,0,0,0,210,153.5815a8.0317,8.0317,0,0,0-1.0044-1.6984,3.708,3.708,0,0,0-.6469-.64v-6.0544a2.395,2.395,0,0,0,1.0916-.489,4.9515,4.9515,0,0,0,1.4734-2.857c.5356-2.2979.699-6.0349.481-11.8383-.1567-4.1744-.5121-9.4406-1.0778-16.0453a118.63,118.63,0,0,0-2.0715-15.3283c-1.66-7.3832-4.0611-10.3372-7.9392-13.1317l-7.7125-5.5575-7.7125-5.5575a20.82,20.82,0,0,0-11.7253-3.9409v-.2343a3.4446,3.4446,0,0,0-3.4446-3.4446h-29.03" style="fill:none;stroke:#a7abae;stroke-linecap:round;stroke-linejoin:round;stroke-width:1.5px"/><path d="M211.3486,226.9426c.1151-5.9892.2123-12.5146.287-19.0288.2-17.43.2385-34.78.0244-41.5605a53.631,53.631,0,0,0-.7431-7.8081c-1.1272-6.2152-3.0679-7.0391-3.0679-7.0391V144.731c2.377,0,3.4822-3.1018,3.0464-14.7076-.1564-4.1631-.511-9.4205-1.0764-16.0215a118.1624,118.1624,0,0,0-2.0611-15.2612c-1.6352-7.2728-3.9719-10.1178-7.7437-12.8357l-7.7125-5.5576L184.5892,74.79a20.3247,20.3247,0,0,0-11.9139-3.8523h-.0191v-.7285a2.9446,2.9446,0,0,0-2.9446-2.9446h-29.03" style="fill:none;stroke:#a7abae;stroke-linecap:round;stroke-linejoin:round;stroke-width:0.5px"/></g><g id="beb5d5c3-b7e9-45d5-99f1-23a2c962a28d" data-name="above"><path d="M65.9532,10.4282s-5.8858,33.1-6.8738,38.8869-.6219,8.4689,4.036,11.5741,6.4089,3.2464,11.6314,3.2464h46.861c5.2225,0,6.9735-.1411,11.6314-3.2463s5.024-5.7871,4.036-11.5742-6.8739-38.8869-6.8739-38.8869" style="fill:none;stroke:#a7abae;stroke-linecap:round;stroke-linejoin:round;stroke-width:0.5px"/><path d="M98.2253,9.4328c-5.7475,0-11.1637.0766-16.1015.2266-7.9343.2439-13.1129.6393-16.0593.9285A5.1852,5.1852,0,0,0,61.5158,14.59c-.9785,4.2453-2.4337,10.6244-3.814,16.9049-1.7975,8.1782-2.9652,13.8866-3.4685,16.9691a54.7722,54.7722,0,0,0-.805,10.3321c.1282,4.2642.96,7.59,2.4728,9.8866.0141.0219.8379,1.3631,4.8926,1.3631H132.759c3.5107,0,6.3509-1.05,7.7967-2.8793a16.832,16.832,0,0,0,2.4713-9.1113,51.3821,51.3821,0,0,0-.81-9.59c-.5033-3.073-1.6694-8.783-3.4685-16.9706-1.4881-6.7651-3.0277-13.4958-3.814-16.9049a5.19,5.19,0,0,0-4.5486-4.0016c-2.948-.2892-8.1282-.6846-16.0593-.9285C109.389,9.5094,103.9729,9.4328,98.2253,9.4328Z" style="fill:none;stroke:#a7abae;stroke-linecap:round;stroke-linejoin:round;stroke-width:1.5px"/><path d="M102.845,146.8256a4.4021,4.4021,0,0,1,2.78,1.3581,4.1911,4.1911,0,0,1,1.0988,2.5179,78.2129,78.2129,0,0,1,.2192,9.2059,92.0224,92.0224,0,0,1-.7789,11.5884,4.4164,4.4164,0,0,1-3.9619,3.7292c-1.1523.1048-3.2987.1526-5.7469.158-1.8429.0041-3.8569.014-5.7465-.1579a4.4165,4.4165,0,0,1-3.962-3.7292,92.0269,92.0269,0,0,1-.7788-11.5884,78.193,78.193,0,0,1,.2191-9.2059,4.1918,4.1918,0,0,1,1.0989-2.518,4.4025,4.4025,0,0,1,2.78-1.358c1.76-.1512,4.1091-.1574,6.39-.1546C98.9559,146.6741,101.3744,146.6993,102.845,146.8256Z" style="fill:#d3d5d6;stroke:#000001;stroke-linecap:round;stroke-linejoin:round;stroke-width:1.5px"/><path d="M91.7818,172.13c-1.49-.0639-2.4023-.3519-2.4023-11.5911v-8.02a1.7464,1.7464,0,0,1,1.6464-1.7441c2.211-.1254,3.82-.1586,5.4294-.1586s3.2184.0332,5.4294.1586a1.7465,1.7465,0,0,1,1.6464,1.7441v8.02c0,11.2393-.9123,11.5272-2.4023,11.5911-1.6114.0691-3.2169.0937-4.6735.0929C94.5251,172.222,92.8564,172.1763,91.7818,172.13Z" style="fill:none;stroke:#000001;stroke-linecap:round;stroke-linejoin:round"/><line x1="103.531" y1="161.3619" x2="89.3795" y2="161.3619" style="fill:none;stroke:#000001;stroke-linecap:round;stroke-linejoin:round"/><line x1="89.3795" y1="157.7368" x2="103.5311" y2="157.7368" style="fill:none;stroke:#000001;stroke-linecap:round;stroke-linejoin:round"/><path d="M100.5077,153.6394v2.1358a1.6289,1.6289,0,0,0-1.7361,1.3175l-.31,4.4914a.552.552,0,0,1-.5883.4464H95.5622a.552.552,0,0,1-.5883-.4464l-.31-4.4914a1.6291,1.6291,0,0,0-1.7362-1.3175v-2.2026Z" style="fill:#f2a900;stroke:#12171d;stroke-linecap:round;stroke-linejoin:round;stroke-width:1.5px"/><path d="M96.8843,155.9611a55.1943,55.1943,0,0,1-9.8109-.6765,2.8831,2.8831,0,0,1-2.1493-2.3734l-.48-12.6883a2.4909,2.4909,0,0,1-.06-.5328V136.943a1.659,1.659,0,0,1,1.7058-1.6037h.2608a1.39,1.39,0,0,0,.78-.2458l.8575-.603a2.4829,2.4829,0,0,1,1.3975-.4338H104.331a2.4772,2.4772,0,0,1,1.3925.43l.8628.6109a1.42,1.42,0,0,0,.78.2416h.2611a1.659,1.659,0,0,1,1.7058,1.6037V139.69a2.4357,2.4357,0,0,1-.06.5339l-.4862,12.686a2.8421,2.8421,0,0,1-2.13,2.3734A54.5474,54.5474,0,0,1,96.8843,155.9611Z" style="fill:#f2a900;stroke:#12171d;stroke-linecap:round;stroke-linejoin:round;stroke-width:1.5px"/><path d="M107.4565,137.5076v2.21a.5691.5691,0,0,1-.0181.143.7592.7592,0,0,1-.6718.52,82.6435,82.6435,0,0,1-9.8869.45,83.4068,83.4068,0,0,1-9.9314-.4521.77.77,0,0,1-.6725-.5207.568.568,0,0,1-.0182-.1424v-2.2085s3.7539-.1467,10.6-.1467S107.4565,137.5076,107.4565,137.5076Z" style="fill:#f2a900;stroke:#12171d;stroke-linecap:round;stroke-linejoin:round;stroke-width:0.5px"/><path d="M105.346,8.3081s.6055.6375.6055,5.79-.6055,122.72-.6055,122.72H88.3681S87.7627,20.37,87.7627,14.247s.6054-5.9.6054-5.9,3.0558-.3309,8.489-.3309S105.346,8.3081,105.346,8.3081Z" style="fill:#f2a900;stroke:#12171d;stroke-linecap:round;stroke-linejoin:round;stroke-width:1.5px"/></g></svg>