<?xml version="1.0" encoding="UTF-8"?><svg id="uuid-1837233d-1029-4f85-87bb-1c3fd5f0a927" xmlns="http://www.w3.org/2000/svg" width="325" height="235.0111" viewBox="0 0 325 235.0111"><rect x="8.0811" y="7.4231" width="308.8377" height="215.6165" style="fill:#fff; stroke:#000001; stroke-miterlimit:10; stroke-width:5px;"/><path d="m101.7888,23.7973h-1.9912c-.4531-1.23-1.4082-2.0234-3.1406-2.0234-2.2021,0-3.7236,1.7808-3.7236,4.1929,0,2.396,1.5215,4.1934,3.7881,4.1934,1.8779,0,3.1738-.9229,3.2549-2.7847h-3.0762v-1.6997h5.002v.874c0,3.335-2.04,5.2939-5.1807,5.2939-3.335,0-5.6826-2.4932-5.6826-5.877s2.3477-5.8765,5.6348-5.8765c2.7676,0,4.5,1.4731,5.1152,3.707Z" style="fill:#000001; stroke-width:0px;"/><path d="m110.8562,28.1362h-5.9736c.0811,1.3115.9873,2.1533,2.2666,2.1533.9551,0,1.6836-.4048,1.959-1.1655h1.6836c-.502,1.6836-1.7646,2.6875-3.6914,2.6875-2.3477,0-3.999-1.6675-3.999-4.2578,0-2.4771,1.5869-4.2905,3.999-4.2905,2.1533,0,3.7559,1.3926,3.7559,4.2095v.6636Zm-1.7324-1.3438c-.0156-1.2305-.8252-2.0234-2.04-2.0234-1.2461,0-2.0723.8579-2.2012,2.0234h4.2412Z" style="fill:#000001; stroke-width:0px;"/><path d="m119.115,26.3232v5.3101h-1.7168v-4.9702c0-1.1172-.5176-1.7163-1.4082-1.7163-.9551,0-1.7002.7935-1.7002,2.3315v4.355h-1.6992v-8.1919h1.4893l.1133,1.1011c.3721-.6963,1.1494-1.2793,2.2666-1.2793,1.748,0,2.6553,1.2466,2.6553,3.0601Z" style="fill:#000001; stroke-width:0px;"/><path d="m125.4939,23.4414v1.5864h-2.0234l-.0332,3.9019c0,.8579.2432,1.2627,1.1338,1.2627.4209,0,.6797-.0649.9229-.1455v1.5215c-.2588.0972-.6475.1782-1.2793.1782-1.6348,0-2.4932-.7124-2.4766-2.4609l.0322-4.2578h-1.4414v-1.5864h1.4414l.0156-2.0073h1.7324l-.0322,2.0073h2.0078Z" style="fill:#000001; stroke-width:0px;"/><path d="m134.2849,28.1362h-5.9736c.0811,1.3115.9873,2.1533,2.2666,2.1533.9551,0,1.6836-.4048,1.959-1.1655h1.6836c-.502,1.6836-1.7646,2.6875-3.6914,2.6875-2.3477,0-3.999-1.6675-3.999-4.2578,0-2.4771,1.5869-4.2905,3.999-4.2905,2.1533,0,3.7559,1.3926,3.7559,4.2095v.6636Zm-1.7324-1.3438c-.0156-1.2305-.8252-2.0234-2.04-2.0234-1.2461,0-2.0723.8579-2.2012,2.0234h4.2412Z" style="fill:#000001; stroke-width:0px;"/><path d="m142.5749,31.6333h-2.0078l-1.8936-2.8657-1.8779,2.8657h-2.0078l2.7197-4.1929-2.5742-3.999h2.0078l1.7324,2.6553,1.748-2.6553h2.0078l-2.5908,3.999,2.7363,4.1929Z" style="fill:#000001; stroke-width:0px;"/><path d="m157.4705,23.7973h-1.9912c-.4531-1.23-1.4082-2.0234-3.124-2.0234-2.2188,0-3.7402,1.7808-3.7402,4.1929,0,2.396,1.5215,4.1934,3.7725,4.1934,1.7324,0,2.7686-.8906,3.1895-2.0884h1.9258c-.6309,2.3633-2.3467,3.772-5.1152,3.772-3.3193,0-5.667-2.4932-5.667-5.877s2.3477-5.8765,5.6348-5.8765c2.7676,0,4.5,1.4731,5.1152,3.707Z" style="fill:#000001; stroke-width:0px;"/><path d="m166.8953,27.5371c0,2.5098-1.7646,4.2744-4.21,4.2744s-4.209-1.7646-4.209-4.2744,1.7646-4.2739,4.209-4.2739,4.21,1.7646,4.21,4.2739Zm-6.6543,0c0,1.5381.9873,2.7041,2.4609,2.7041s2.4287-1.166,2.4287-2.7041c0-1.5542-.9551-2.687-2.4287-2.687s-2.4609,1.1328-2.4609,2.687Z" style="fill:#000001; stroke-width:0px;"/><path d="m171.1374,25.6269c-.4209.3726-.6963.9229-.7129,1.7485v4.2578h-1.7158v-8.1919h1.5059l.1289,1.3921c.292-.7446,1.0361-1.4731,2.4287-1.4731v1.7163c-.6475,0-1.1816.1616-1.6348.5503Z" style="fill:#000001; stroke-width:0px;"/><path d="m182.5359,27.5371c0,2.4126-1.5547,4.2744-3.8213,4.2744-1.2627,0-2.1533-.5508-2.5898-1.1982v4.501h-1.7158v-11.6729h1.5049l.1133,1.1655c.4697-.6963,1.2627-1.3438,2.7041-1.3438,2.2666,0,3.8047,1.8618,3.8047,4.2739Zm-6.4434-.0645v.0972c0,1.6514,1.1494,2.6226,2.3145,2.6226,1.3604,0,2.3643-1.0684,2.3643-2.6553s-.9717-2.6548-2.3477-2.6548c-1.1982,0-2.3311.9551-2.3311,2.5903Z" style="fill:#000001; stroke-width:0px;"/><path d="m192.1853,27.5371c0,2.5098-1.7646,4.2744-4.21,4.2744s-4.209-1.7646-4.209-4.2744,1.7646-4.2739,4.209-4.2739,4.21,1.7646,4.21,4.2739Zm-6.6543,0c0,1.5381.9873,2.7041,2.4609,2.7041s2.4287-1.166,2.4287-2.7041c0-1.5542-.9551-2.687-2.4287-2.687s-2.4609,1.1328-2.4609,2.687Z" style="fill:#000001; stroke-width:0px;"/><path d="m196.4285,25.6269c-.4209.3726-.6963.9229-.7129,1.7485v4.2578h-1.7158v-8.1919h1.5059l.1289,1.3921c.292-.7446,1.0361-1.4731,2.4287-1.4731v1.7163c-.6475,0-1.1816.1616-1.6348.5503Z" style="fill:#000001; stroke-width:0px;"/><path d="m205.3816,26.2422v5.3911h-1.5215l-.0811-1.0684c-.4209.7124-1.2471,1.2466-2.4121,1.2466-1.4414,0-2.4453-.8745-2.4453-2.3315,0-1.5054,1.0361-2.1533,2.3965-2.4121l2.3311-.4209v-.3726c0-1.0034-.4697-1.4731-1.3438-1.4731-.8096,0-1.4727.4531-1.4727,1.2954h-1.668c.0645-1.6191,1.2793-2.8335,3.1406-2.8335,1.8623,0,3.0762,1.02,3.0762,2.979Zm-4.7275,3.1567c0,.5669.3887.9229,1.1006.9229.6152,0,1.1826-.2749,1.5059-.793.2266-.3237.3887-.8096.3887-1.2954v-.2915l-1.959.4209c-.583.1299-1.0361.3726-1.0361,1.0361Z" style="fill:#000001; stroke-width:0px;"/><path d="m211.6804,23.4414v1.5864h-2.0234l-.0332,3.9019c0,.8579.2432,1.2627,1.1338,1.2627.4209,0,.6797-.0649.9229-.1455v1.5215c-.2588.0972-.6475.1782-1.2793.1782-1.6348,0-2.4932-.7124-2.4766-2.4609l.0322-4.2578h-1.4414v-1.5864h1.4414l.0156-2.0073h1.7324l-.0322,2.0073h2.0078Z" style="fill:#000001; stroke-width:0px;"/><path d="m215.3396,20.9966c0,.5991-.4863,1.0688-1.1016,1.0688s-1.1006-.4697-1.1006-1.0688c0-.6152.4854-1.1006,1.1006-1.1006s1.1016.4854,1.1016,1.1006Zm-1.959,10.6367v-8.1919h1.7158v8.1919h-1.7158Z" style="fill:#000001; stroke-width:0px;"/><path d="m225.2488,27.5371c0,2.5098-1.7646,4.2744-4.21,4.2744s-4.209-1.7646-4.209-4.2744,1.7646-4.2739,4.209-4.2739,4.21,1.7646,4.21,4.2739Zm-6.6543,0c0,1.5381.9873,2.7041,2.4609,2.7041s2.4287-1.166,2.4287-2.7041c0-1.5542-.9551-2.687-2.4287-2.687s-2.4609,1.1328-2.4609,2.687Z" style="fill:#000001; stroke-width:0px;"/><path d="m233.5222,26.3232v5.3101h-1.7168v-4.9702c0-1.1172-.5176-1.7163-1.4082-1.7163-.9551,0-1.7002.7935-1.7002,2.3315v4.355h-1.6992v-8.1919h1.4893l.1133,1.1011c.3721-.6963,1.1494-1.2793,2.2666-1.2793,1.748,0,2.6553,1.2466,2.6553,3.0601Z" style="fill:#000001; stroke-width:0px;"/><path d="m107.5613,47.5498c0,2.2178-1.4727,3.7236-3.626,3.7236-1.2139,0-2.1211-.4048-2.7686-1.1494-.8906-1.0361-1.1494-2.6714-1.1494-4.4683,0-4.0151,1.1982-6.1357,3.9668-6.1357,1.8936,0,3.2861,1.2788,3.3672,3.2539h-1.8457c-.0811-1.1011-.6641-1.5703-1.5869-1.5703-1.3105,0-2.0234,1.0845-2.0723,3.7881.3887-.5181,1.2305-.9873,2.2344-.9873,2.1855,0,3.4805,1.522,3.4805,3.5454Zm-1.8447.0322c0-1.1006-.7295-1.9751-1.8457-1.9751-1.0527,0-1.9111.8418-1.9111,1.959,0,1.0361.7451,2.04,1.9111,2.04,1.1162,0,1.8457-.8579,1.8457-2.0239Z" style="fill:#000001; stroke-width:0px;"/><path d="m116.6453,45.3804c0,3.6104-1.3926,5.8931-3.9023,5.8931s-3.9014-2.2827-3.9014-5.8931c0-3.5942,1.3926-5.8604,3.9014-5.8604s3.9023,2.2661,3.9023,5.8604Zm-5.9746,0c0,2.6064.6963,4.2095,2.0723,4.2095,1.377,0,2.0566-1.603,2.0566-4.2095,0-2.5903-.6797-4.1768-2.0566-4.1768-1.376,0-2.0723,1.5864-2.0723,4.1768Z" style="fill:#000001; stroke-width:0px;"/><path d="m125.7449,45.3804c0,3.6104-1.3926,5.8931-3.9023,5.8931s-3.9014-2.2827-3.9014-5.8931c0-3.5942,1.3926-5.8604,3.9014-5.8604s3.9023,2.2661,3.9023,5.8604Zm-5.9746,0c0,2.6064.6963,4.2095,2.0723,4.2095,1.377,0,2.0566-1.603,2.0566-4.2095,0-2.5903-.6797-4.1768-2.0566-4.1768-1.376,0-2.0723,1.5864-2.0723,4.1768Z" style="fill:#000001; stroke-width:0px;"/><path d="m138.2771,51.063l-5.1973-7.5444-.4365-.7285v8.2729h-1.8135v-11.3325h1.7803l5.1807,7.5439.4697.7612v-8.3052h1.8135v11.3325h-1.7969Z" style="fill:#000001; stroke-width:0px;"/><path d="m144.0896,50.124c0,.6313-.502,1.1172-1.1494,1.1172s-1.1328-.4858-1.1328-1.1172c0-.6636.4854-1.1333,1.1328-1.1333s1.1494.4697,1.1494,1.1333Z" style="fill:#000001; stroke-width:0px;"/><path d="m159.2273,43.227h-1.9912c-.4531-1.23-1.4082-2.0234-3.124-2.0234-2.2188,0-3.7402,1.7808-3.7402,4.1929,0,2.396,1.5215,4.1934,3.7725,4.1934,1.7324,0,2.7686-.8906,3.1895-2.0884h1.9258c-.6309,2.3633-2.3467,3.772-5.1152,3.772-3.3193,0-5.667-2.4932-5.667-5.877s2.3477-5.8765,5.6348-5.8765c2.7676,0,4.5,1.4731,5.1152,3.707Z" style="fill:#000001; stroke-width:0px;"/><path d="m167.988,47.5659h-5.9736c.0811,1.3115.9873,2.1533,2.2666,2.1533.9551,0,1.6836-.4048,1.959-1.1655h1.6836c-.502,1.6836-1.7646,2.6875-3.6914,2.6875-2.3477,0-3.999-1.6675-3.999-4.2578,0-2.4771,1.5869-4.2905,3.999-4.2905,2.1533,0,3.7559,1.3926,3.7559,4.2095v.6636Zm-1.7324-1.3438c-.0156-1.2305-.8252-2.0234-2.04-2.0234-1.2461,0-2.0723.8579-2.2012,2.0234h4.2412Z" style="fill:#000001; stroke-width:0px;"/><path d="m176.2458,45.7529v5.3101h-1.7168v-4.9702c0-1.1172-.5176-1.7163-1.4082-1.7163-.9551,0-1.7002.7935-1.7002,2.3315v4.355h-1.6992v-8.1919h1.4893l.1133,1.1011c.3721-.6963,1.1494-1.2793,2.2666-1.2793,1.748,0,2.6553,1.2466,2.6553,3.0601Z" style="fill:#000001; stroke-width:0px;"/><path d="m182.6247,42.8711v1.5864h-2.0234l-.0332,3.9019c0,.8579.2432,1.2627,1.1338,1.2627.4209,0,.6797-.0649.9229-.1455v1.5215c-.2588.0972-.6475.1782-1.2793.1782-1.6348,0-2.4932-.7124-2.4766-2.4609l.0322-4.2578h-1.4414v-1.5864h1.4414l.0156-2.0073h1.7324l-.0322,2.0073h2.0078Z" style="fill:#000001; stroke-width:0px;"/><path d="m191.4167,47.5659h-5.9736c.0811,1.3115.9873,2.1533,2.2666,2.1533.9551,0,1.6836-.4048,1.959-1.1655h1.6836c-.502,1.6836-1.7646,2.6875-3.6914,2.6875-2.3477,0-3.999-1.6675-3.999-4.2578,0-2.4771,1.5869-4.2905,3.999-4.2905,2.1533,0,3.7559,1.3926,3.7559,4.2095v.6636Zm-1.7324-1.3438c-.0156-1.2305-.8252-2.0234-2.04-2.0234-1.2461,0-2.0723.8579-2.2012,2.0234h4.2412Z" style="fill:#000001; stroke-width:0px;"/><path d="m199.6746,45.7529v5.3101h-1.7168v-4.9702c0-1.1172-.5176-1.7163-1.4082-1.7163-.9551,0-1.7002.7935-1.7002,2.3315v4.355h-1.6992v-8.1919h1.4893l.1133,1.1011c.3721-.6963,1.1494-1.2793,2.2666-1.2793,1.748,0,2.6553,1.2466,2.6553,3.0601Z" style="fill:#000001; stroke-width:0px;"/><path d="m208.4011,45.7529v5.3101h-1.7168v-4.9702c0-1.1172-.5176-1.7163-1.4082-1.7163-.9551,0-1.7002.7935-1.7002,2.3315v4.355h-1.6992v-8.1919h1.4893l.1133,1.1011c.3721-.6963,1.1494-1.2793,2.2666-1.2793,1.748,0,2.6553,1.2466,2.6553,3.0601Z" style="fill:#000001; stroke-width:0px;"/><path d="m212.5955,40.4263c0,.5991-.4863,1.0688-1.1016,1.0688s-1.1006-.4697-1.1006-1.0688c0-.6152.4854-1.1006,1.1006-1.1006s1.1016.4854,1.1016,1.1006Zm-1.959,10.6367v-8.1919h1.7158v8.1919h-1.7158Z" style="fill:#000001; stroke-width:0px;"/><path d="m220.6902,45.6719v5.3911h-1.5215l-.0811-1.0684c-.4209.7124-1.2471,1.2466-2.4121,1.2466-1.4414,0-2.4453-.8745-2.4453-2.3315,0-1.5054,1.0361-2.1533,2.3965-2.4121l2.3311-.4209v-.3726c0-1.0034-.4697-1.4731-1.3438-1.4731-.8096,0-1.4727.4531-1.4727,1.2954h-1.668c.0645-1.6191,1.2793-2.8335,3.1406-2.8335,1.8623,0,3.0762,1.02,3.0762,2.979Zm-4.7275,3.1567c0,.5669.3887.9229,1.1006.9229.6152,0,1.1826-.2749,1.5059-.793.2266-.3237.3887-.8096.3887-1.2954v-.2915l-1.959.4209c-.583.1299-1.0361.3726-1.0361,1.0361Z" style="fill:#000001; stroke-width:0px;"/><path d="m222.8445,51.063v-11.8184h1.6992v11.8184h-1.6992Z" style="fill:#000001; stroke-width:0px;"/><path d="m99.9451,68.8091h6.0713v1.6836h-8.4023v-1.457l5.8926-8.1919h-5.8438v-1.6836h8.1426v1.457l-5.8604,8.1919Z" style="fill:#000001; stroke-width:0px;"/><path d="m114.8894,66.9956h-5.9736c.0811,1.3115.9873,2.1533,2.2666,2.1533.9551,0,1.6836-.4048,1.959-1.1655h1.6836c-.502,1.6836-1.7646,2.6875-3.6914,2.6875-2.3477,0-3.999-1.6675-3.999-4.2578,0-2.4771,1.5869-4.2905,3.999-4.2905,2.1533,0,3.7559,1.3926,3.7559,4.2095v.6636Zm-1.7324-1.3438c-.0156-1.2305-.8252-2.0234-2.04-2.0234-1.2461,0-2.0723.8579-2.2012,2.0234h4.2412Z" style="fill:#000001; stroke-width:0px;"/><path d="m123.8269,66.9956h-5.9736c.0811,1.3115.9873,2.1533,2.2666,2.1533.9551,0,1.6836-.4048,1.959-1.1655h1.6836c-.502,1.6836-1.7646,2.6875-3.6914,2.6875-2.3477,0-3.999-1.6675-3.999-4.2578,0-2.4771,1.5869-4.2905,3.999-4.2905,2.1533,0,3.7559,1.3926,3.7559,4.2095v.6636Zm-1.7324-1.3438c-.0156-1.2305-.8252-2.0234-2.04-2.0234-1.2461,0-2.0723.8579-2.2012,2.0234h4.2412Z" style="fill:#000001; stroke-width:0px;"/><path d="m125.5603,70.4927v-11.8184h1.6992v11.8184h-1.6992Z" style="fill:#000001; stroke-width:0px;"/><path d="m135.5652,65.1015v5.3911h-1.5215l-.0811-1.0684c-.4209.7124-1.2471,1.2466-2.4121,1.2466-1.4414,0-2.4453-.8745-2.4453-2.3315,0-1.5054,1.0361-2.1533,2.3965-2.4121l2.3311-.4209v-.3726c0-1.0034-.4697-1.4731-1.3438-1.4731-.8096,0-1.4727.4531-1.4727,1.2954h-1.668c.0645-1.6191,1.2793-2.8335,3.1406-2.8335,1.8623,0,3.0762,1.02,3.0762,2.979Zm-4.7275,3.1567c0,.5669.3887.9229,1.1006.9229.6152,0,1.1826-.2749,1.5059-.793.2266-.3237.3887-.8096.3887-1.2954v-.2915l-1.959.4209c-.583.1299-1.0361.3726-1.0361,1.0361Z" style="fill:#000001; stroke-width:0px;"/><path d="m144.2439,65.1826v5.3101h-1.7168v-4.9702c0-1.1172-.5176-1.7163-1.4082-1.7163-.9551,0-1.7002.7935-1.7002,2.3315v4.355h-1.6992v-8.1919h1.4893l.1133,1.1011c.3721-.6963,1.1494-1.2793,2.2666-1.2793,1.748,0,2.6553,1.2466,2.6553,3.0601Z" style="fill:#000001; stroke-width:0px;"/><path d="m152.4529,70.4927l-.1133-1.1494c-.4854.6963-1.2793,1.3276-2.7197,1.3276-2.25,0-3.8047-1.8618-3.8047-4.2744s1.5703-4.2739,3.8213-4.2739c1.2783,0,2.1689.5508,2.6064,1.2144v-4.6626h1.7158v11.8184h-1.5059Zm-4.873-4.0962c0,1.5869.9717,2.6714,2.3477,2.6714,1.1982,0,2.3477-.9712,2.3477-2.6064v-.0811c-.0166-1.6514-1.166-2.6226-2.3311-2.6226-1.3604,0-2.3643,1.0684-2.3643,2.6387Z" style="fill:#000001; stroke-width:0px;"/><path d="m157.8777,69.667c0,1.0361-.5508,2.1694-1.2627,2.9629l-.5186-.1943c.3076-.5669.4697-1.166.5342-1.8457-.5498-.0649-.9551-.4531-.9551-1.0361,0-.6152.4863-1.085,1.1016-1.085s1.1006.4536,1.1006,1.1982Z" style="fill:#000001; stroke-width:0px;"/><path d="m172.9343,70.4927v-7.8682l-.3242.9067-3.0596,6.9614h-1.4893l-3.0596-6.9614-.3076-.9067v7.8682h-1.8135v-11.3325h2.04l3.5938,7.8682.2754.6958.3076-.6958,3.5938-7.8682h2.0566v11.3325h-1.8135Z" style="fill:#000001; stroke-width:0px;"/><path d="m177.1296,70.4927v-11.3325h1.8135v11.3325h-1.8135Z" style="fill:#000001; stroke-width:0px;"/><path d="m191.8464,66.6719v1.6353h-1.5215v2.1855h-1.8135v-2.1855h-4.7441v-1.4731l4.3555-7.6738h2.2021v7.5117h1.5215Zm-6.1523.0161h2.8496v-5.1318l-.3242.6797-2.5254,4.4521Z" style="fill:#000001; stroke-width:0px;"/><path d="m200.5408,64.5674c0,4.0151-1.1982,6.1357-3.9668,6.1357-1.8936,0-3.2861-1.2788-3.3672-3.2539h1.8457c.0811,1.1006.6641,1.5703,1.5869,1.5703,1.3115,0,2.0234-1.085,2.0723-3.7886-.4053.5181-1.2305.9878-2.2344.9878-2.1855,0-3.4805-1.522-3.4805-3.5454,0-2.2183,1.4727-3.7236,3.626-3.7236,1.2148,0,2.1211.4048,2.7686,1.1494.8906,1.0361,1.1494,2.6709,1.1494,4.4683Zm-1.9424-1.9106c0-1.0361-.7451-2.0396-1.9102-2.0396-1.1172,0-1.8457.8579-1.8457,2.0234,0,1.1011.7285,1.959,1.8457,1.959,1.0518,0,1.9102-.8257,1.9102-1.9429Z" style="fill:#000001; stroke-width:0px;"/><path d="m209.6404,66.6719v1.6353h-1.5215v2.1855h-1.8135v-2.1855h-4.7441v-1.4731l4.3555-7.6738h2.2021v7.5117h1.5215Zm-6.1523.0161h2.8496v-5.1318l-.3242.6797-2.5254,4.4521Z" style="fill:#000001; stroke-width:0px;"/><path d="m218.3992,66.9795c0,2.2178-1.4727,3.7236-3.626,3.7236-1.2139,0-2.1211-.4048-2.7686-1.1494-.8906-1.0361-1.1494-2.6714-1.1494-4.4683,0-4.0151,1.1982-6.1357,3.9668-6.1357,1.8936,0,3.2861,1.2788,3.3672,3.2539h-1.8457c-.0811-1.1011-.6641-1.5703-1.5869-1.5703-1.3105,0-2.0234,1.0845-2.0723,3.7881.3887-.5181,1.2305-.9873,2.2344-.9873,2.1855,0,3.4805,1.522,3.4805,3.5454Zm-1.8447.0322c0-1.1006-.7295-1.9751-1.8457-1.9751-1.0527,0-1.9111.8418-1.9111,1.959,0,1.0361.7451,2.04,1.9111,2.04,1.1162,0,1.8457-.8579,1.8457-2.0239Z" style="fill:#000001; stroke-width:0px;"/><path d="m227.5154,66.6719v1.6353h-1.5215v2.1855h-1.8135v-2.1855h-4.7441v-1.4731l4.3555-7.6738h2.2021v7.5117h1.5215Zm-6.1523.0161h2.8496v-5.1318l-.3242.6797-2.5254,4.4521Z" style="fill:#000001; stroke-width:0px;"/><path d="m90.7712,103.686c0,3.3188-2.2988,5.6665-5.9414,5.6665h-4.3711v-11.3325h4.3711c3.6426,0,5.9414,2.3472,5.9414,5.666Zm-7.5117,3.0601h1.5703c1.9912,0,3.0273-1.085,3.0273-3.0601s-1.0361-3.0596-3.0273-3.0596h-1.5703v6.1196Z" style="fill:#000001; stroke-width:0px;"/><path d="m102.0251,109.3525v-6.2329l-.3242,1.1172-1.9102,5.1157h-2.4121l-1.9102-5.1157-.3242-1.1172v6.2329h-2.8008v-11.3325h3.2861l2.7529,6.5244.1943.6152.21-.6152,2.752-6.5244h3.2871v11.3325h-2.8008Z" style="fill:#000001; stroke-width:0px;"/><path d="m114.1843,101.3223h-2.8164c-.0488-.6797-.4697-1.0522-1.0361-1.0522-.5674,0-.9229.2915-.9229.8257,0,.6641.5498.8906,1.7969,1.2793,2.4932.793,3.2861,1.9263,3.2861,3.6426,0,2.2827-1.7324,3.5454-3.9336,3.5454-2.7529,0-4.1123-1.5864-4.1768-3.772h2.8164c.0645.8579.502,1.3271,1.3926,1.3271.6641,0,1.085-.3237,1.085-.8418,0-.5986-.5186-.9551-1.7168-1.3271-2.1367-.6479-3.3672-1.6514-3.3672-3.5942,0-2.1211,1.4893-3.5454,3.8203-3.5454,2.2188,0,3.6436,1.1655,3.7725,3.5127Z" style="fill:#000001; stroke-width:0px;"/><path d="m128.74,109.3525v-6.2329l-.3242,1.1172-1.9102,5.1157h-2.4121l-1.9102-5.1157-.3242-1.1172v6.2329h-2.8008v-11.3325h3.2861l2.7529,6.5244.1943.6152.21-.6152,2.752-6.5244h3.2871v11.3325h-2.8008Z" style="fill:#000001; stroke-width:0px;"/><path d="m136.4148,98.7807c0,.8418-.6797,1.4731-1.5215,1.4731s-1.5059-.6313-1.5059-1.4731.6641-1.4731,1.5059-1.4731,1.5215.6313,1.5215,1.4731Zm-2.833,10.5718v-8.2568h2.6387v8.2568h-2.6387Z" style="fill:#000001; stroke-width:0px;"/><path d="m141.4831,104.0747c-.3564.2266-.583.583-.6152,1.1982v4.0796h-2.6387v-8.2568h2.2344l.2588,1.2466c.291-.7124.9873-1.3271,2.3799-1.3271v2.6548c-.6641,0-1.1338.0649-1.6191.4048Z" style="fill:#000001; stroke-width:0px;"/><path d="m147.781,104.0747c-.3564.2266-.583.583-.6152,1.1982v4.0796h-2.6387v-8.2568h2.2344l.2588,1.2466c.291-.7124.9873-1.3271,2.3799-1.3271v2.6548c-.6641,0-1.1338.0649-1.6191.4048Z" style="fill:#000001; stroke-width:0px;"/><path d="m159.0173,105.2241c0,2.5903-1.959,4.3066-4.4521,4.3066s-4.4199-1.7163-4.4199-4.3066,1.9268-4.3062,4.4199-4.3062,4.4521,1.7158,4.4521,4.3062Zm-6.1357-.0161c0,1.1011.6963,1.9268,1.7002,1.9268s1.6992-.8257,1.6992-1.9268-.6953-1.894-1.6992-1.894-1.7002.793-1.7002,1.894Z" style="fill:#000001; stroke-width:0px;"/><path d="m163.8425,104.0747c-.3564.2266-.583.583-.6152,1.1982v4.0796h-2.6387v-8.2568h2.2344l.2588,1.2466c.291-.7124.9873-1.3271,2.3799-1.3271v2.6548c-.6641,0-1.1338.0649-1.6191.4048Z" style="fill:#000001; stroke-width:0px;"/><path d="m168.1658,108.0576c0,.8418-.6797,1.4731-1.5215,1.4731s-1.5059-.6313-1.5059-1.4731c0-.8423.6641-1.4736,1.5059-1.4736s1.5215.6313,1.5215,1.4736Z" style="fill:#000001; stroke-width:0px;"/><path d="m180.3083,102.0347l-.5176,2.9951h1.7969v1.5869h-2.0723l-.4863,2.7358h-1.7158l.4854-2.7358h-2.3145l-.4863,2.7358h-1.6992l.4697-2.7358h-1.749v-1.5869h2.0234l.5342-2.9951h-1.8125v-1.5864h2.0879l.4375-2.4282h1.7002l-.4209,2.4282h2.3145l.4209-2.4282h1.7168l-.4209,2.4282h1.7314v1.5864h-2.0234Zm-1.7002,0h-2.3145l-.5342,2.9951h2.3145l.5342-2.9951Z" style="fill:#000001; stroke-width:0px;"/><path d="m190.7683,103.4272c0,4.0151-1.1982,6.1357-3.9668,6.1357-1.8936,0-3.2861-1.2788-3.3672-3.2539h1.8457c.0811,1.1006.6641,1.5703,1.5869,1.5703,1.3115,0,2.0234-1.085,2.0723-3.7886-.4053.5181-1.2305.9878-2.2344.9878-2.1855,0-3.4805-1.522-3.4805-3.5454,0-2.2183,1.4727-3.7236,3.626-3.7236,1.2148,0,2.1211.4043,2.7686,1.1494.8906,1.0361,1.1494,2.6709,1.1494,4.4683Zm-1.9424-1.9106c0-1.0361-.7451-2.0396-1.9102-2.0396-1.1172,0-1.8457.8579-1.8457,2.0234,0,1.1011.7285,1.959,1.8457,1.959,1.0518,0,1.9102-.8257,1.9102-1.9429Z" style="fill:#000001; stroke-width:0px;"/><path d="m199.9167,103.6699c0,3.6104-1.3926,5.8931-3.9023,5.8931s-3.9014-2.2827-3.9014-5.8931c0-3.5942,1.3926-5.8604,3.9014-5.8604s3.9023,2.2661,3.9023,5.8604Zm-5.9746,0c0,2.6064.6963,4.2095,2.0723,4.2095,1.377,0,2.0566-1.603,2.0566-4.2095,0-2.5903-.6797-4.1768-2.0566-4.1768-1.376,0-2.0723,1.5864-2.0723,4.1768Z" style="fill:#000001; stroke-width:0px;"/><path d="m203.5769,99.7036v2.833c.3555-.1943.9385-.3721,1.7158-.3721,1.9424,0,3.3672,1.1978,3.3672,3.5454,0,2.2827-1.3604,3.853-3.6426,3.853-2.1689,0-3.5781-1.1655-3.5781-3.3999h1.7969c.0166,1.1821.7451,1.7163,1.7979,1.7163,1.1816,0,1.8125-.8579,1.8125-2.0884,0-1.2466-.6797-1.9917-1.8613-1.9917-.7285,0-1.2627.2271-1.6191.4697h-1.6025v-6.249h6.3135v1.6836h-4.5Z" style="fill:#000001; stroke-width:0px;"/><path d="m209.697,105.9043v-1.5059h5.0996v1.5059h-5.0996Z" style="fill:#000001; stroke-width:0px;"/><path d="m223.4578,105.8393c0,2.2183-1.4727,3.7236-3.626,3.7236-1.2139,0-2.1211-.4048-2.7686-1.1494-.8906-1.0361-1.1494-2.6714-1.1494-4.4683,0-4.0151,1.1982-6.1357,3.9668-6.1357,1.8936,0,3.2861,1.2788,3.3672,3.2539h-1.8457c-.0811-1.1011-.6641-1.5703-1.5869-1.5703-1.3105,0-2.0234,1.0845-2.0723,3.7881.3887-.5181,1.2305-.9873,2.2344-.9873,2.1855,0,3.4805,1.522,3.4805,3.5454Zm-1.8447.0322c0-1.1006-.7295-1.9751-1.8457-1.9751-1.0527,0-1.9111.8418-1.9111,1.959,0,1.0361.7451,2.04,1.9111,2.04,1.1162,0,1.8457-.8579,1.8457-2.0239Z" style="fill:#000001; stroke-width:0px;"/><path d="m227.0203,109.3525h-1.9746l4.2744-9.6167h-4.8086v-1.7158h6.8809v1.4731l-4.3721,9.8594Z" style="fill:#000001; stroke-width:0px;"/><path d="m239.2771,105.5317v1.6353h-1.5215v2.1855h-1.8135v-2.1855h-4.7441v-1.4731l4.3555-7.6738h2.2021v7.5117h1.5215Zm-6.1523.0161h2.8496v-5.1318l-.3242.6797-2.5254,4.4521Z" style="fill:#000001; stroke-width:0px;"/><path d="m242.613,109.3525v-8.3052h-2.3965v-1.5381c1.7002,0,2.5586-.3237,2.833-1.4893h1.377v11.3325h-1.8135Z" style="fill:#000001; stroke-width:0px;"/><path d="m108.5818,120.7519h-2.8164c-.0488-.6797-.4697-1.0522-1.0361-1.0522-.5674,0-.9229.2915-.9229.8257,0,.6641.5498.8906,1.7969,1.2793,2.4932.793,3.2861,1.9263,3.2861,3.6426,0,2.2827-1.7324,3.5454-3.9336,3.5454-2.7529,0-4.1123-1.5864-4.1777-3.772h2.8174c.0645.8579.502,1.3271,1.3926,1.3271.6641,0,1.085-.3237,1.085-.8418,0-.5986-.5186-.9551-1.7168-1.3271-2.1367-.6479-3.3672-1.6514-3.3672-3.5942,0-2.1211,1.4893-3.5454,3.8203-3.5454,2.2188,0,3.6436,1.1655,3.7725,3.5127Z" style="fill:#000001; stroke-width:0px;"/><path d="m113.2126,120.0561v1.6187h3.3516v2.6069h-3.3516v1.894h3.9502v2.6064h-6.751v-11.3325h6.751v2.6064h-3.9502Z" style="fill:#000001; stroke-width:0px;"/><path d="m124.1912,128.7822l-2.0078-3.9824h-.502v3.9824h-2.8008v-11.3325h3.8047c2.5742,0,4.1934,1.5215,4.1934,3.7559,0,1.3438-.6807,2.4443-1.8457,3.0596l2.3311,4.5171h-3.1729Zm-2.5098-6.4272h1.0039c.8252,0,1.3271-.356,1.3271-1.1494,0-.8096-.502-1.1494-1.3271-1.1494h-1.0039v2.2988Z" style="fill:#000001; stroke-width:0px;"/><path d="m128.6277,128.7822v-11.3325h2.8008v11.3325h-2.8008Z" style="fill:#000001; stroke-width:0px;"/><path d="m141.3201,128.7822l-.7607-2.1372h-4.1445l-.7607,2.1372h-3.0117l4.2744-11.3325h3.1406l4.2744,11.3325h-3.0117Zm-4.0469-4.5171h2.4277l-1.0029-2.8491-.2109-.6641-.21.6641-1.0039,2.8491Z" style="fill:#000001; stroke-width:0px;"/><path d="m152.8005,126.1758v2.6064h-7.2529v-11.3325h2.8008v8.7261h4.4521Z" style="fill:#000001; stroke-width:0px;"/><path d="m164.9275,121.4643l-.5176,2.9951h1.7969v1.5869h-2.0723l-.4863,2.7358h-1.7158l.4854-2.7358h-2.3145l-.4863,2.7358h-1.6992l.4697-2.7358h-1.749v-1.5869h2.0234l.5342-2.9951h-1.8125v-1.5864h2.0879l.4375-2.4282h1.7002l-.4209,2.4282h2.3145l.4209-2.4282h1.7168l-.4209,2.4282h1.7314v1.5864h-2.0234Zm-1.7002,0h-2.3145l-.5342,2.9951h2.3145l.5342-2.9951Z" style="fill:#000001; stroke-width:0px;"/><path d="m174.9333,120.5254h-1.8291c-.0166-1.0845-.6963-1.6675-1.6514-1.6675s-1.5381.5508-1.5381,1.4897c0,1.0034.6797,1.3271,2.1367,1.8779,2.3311.8257,3.2217,1.7319,3.2217,3.416,0,2.1206-1.5215,3.3511-3.6104,3.3511-2.4932,0-3.8369-1.4731-3.8691-3.6104h1.8291c.0322,1.2954.7607,2.0078,2.0566,2.0078,1.1494,0,1.7646-.6802,1.7646-1.6191,0-.8745-.6318-1.3438-2.2021-1.894-1.9912-.6802-3.1572-1.522-3.1572-3.3838,0-1.8457,1.2471-3.2539,3.416-3.2539,2.04,0,3.3682,1.1167,3.4326,3.2861Z" style="fill:#000001; stroke-width:0px;"/><path d="m184.3572,121.0112c0,2.0562-1.4736,3.5293-3.8369,3.5293h-1.667v4.2417h-1.8135v-11.3325h3.4805c2.3633,0,3.8369,1.457,3.8369,3.5615Zm-5.5039,1.8457h1.667c1.1982,0,1.9912-.6963,1.9912-1.8457,0-1.1655-.7773-1.8779-1.9912-1.8779h-1.667v3.7236Z" style="fill:#000001; stroke-width:0px;"/><path d="m194.7351,128.7822h-2.1533l-3.0596-4.4033-3.0439,4.4033h-2.1367l3.9668-5.7637-3.8213-5.5688h2.1367l2.8984,4.209,2.9141-4.209h2.1367l-3.8203,5.5688,3.9824,5.7637Z" style="fill:#000001; stroke-width:0px;"/><path d="m197.9587,128.7822v-8.3052h-2.3965v-1.5381c1.7002,0,2.5586-.3237,2.833-1.4893h1.377v11.3325h-1.8135Z" style="fill:#000001; stroke-width:0px;"/><path d="m209.3728,123.0996c0,3.6104-1.3926,5.8931-3.9023,5.8931s-3.9014-2.2827-3.9014-5.8931c0-3.5942,1.3926-5.8604,3.9014-5.8604s3.9023,2.2661,3.9023,5.8604Zm-5.9746,0c0,2.6064.6963,4.2095,2.0723,4.2095,1.377,0,2.0566-1.603,2.0566-4.2095,0-2.5903-.6797-4.1768-2.0566-4.1768-1.376,0-2.0723,1.5864-2.0723,4.1768Z" style="fill:#000001; stroke-width:0px;"/><path d="m218.2292,122.8569c0,4.0151-1.1982,6.1357-3.9668,6.1357-1.8936,0-3.2861-1.2788-3.3672-3.2539h1.8457c.0811,1.1006.6641,1.5703,1.5869,1.5703,1.3115,0,2.0234-1.085,2.0723-3.7886-.4053.5181-1.2305.9878-2.2344.9878-2.1855,0-3.4805-1.522-3.4805-3.5454,0-2.2183,1.4727-3.7236,3.626-3.7236,1.2148,0,2.1211.4043,2.7686,1.1494.8906,1.0361,1.1494,2.6709,1.1494,4.4683Zm-1.9424-1.9106c0-1.0361-.7451-2.0396-1.9102-2.0396-1.1172,0-1.8457.8579-1.8457,2.0234,0,1.1011.7285,1.959,1.8457,1.959,1.0518,0,1.9102-.8257,1.9102-1.9429Z" style="fill:#000001; stroke-width:0px;"/><path d="m221.7761,128.7822v-8.3052h-2.3965v-1.5381c1.7002,0,2.5586-.3237,2.833-1.4893h1.376v11.3325h-1.8125Z" style="fill:#000001; stroke-width:0px;"/><path d="m29.2478,155.5781h-1.7188c-.3916-1.0625-1.2168-1.7476-2.6982-1.7476-1.9141,0-3.2285,1.5376-3.2285,3.6201,0,2.0688,1.3145,3.6201,3.2568,3.6201,1.4951,0,2.3896-.7686,2.7529-1.8032h1.6641c-.5449,2.041-2.0273,3.2568-4.417,3.2568-2.8652,0-4.8916-2.1523-4.8916-5.0737s2.0264-5.0737,4.8633-5.0737c2.3906,0,3.8857,1.272,4.417,3.2012Z" style="fill:#000001; stroke-width:0px;"/><path d="m37.3874,158.8066c0,2.1665-1.5234,3.6899-3.6338,3.6899s-3.6348-1.5234-3.6348-3.6899,1.5234-3.6899,3.6348-3.6899,3.6338,1.5234,3.6338,3.6899Zm-5.7451,0c0,1.3276.8525,2.334,2.125,2.334,1.2715,0,2.0967-1.0063,2.0967-2.334,0-1.3418-.8252-2.3203-2.0967-2.3203-1.2725,0-2.125.9785-2.125,2.3203Z" style="fill:#000001; stroke-width:0px;"/><path d="m48.615,157.7583v4.5845h-1.4814v-4.291c0-.9644-.4199-1.4814-1.1885-1.4814-.8242,0-1.4541.6846-1.4541,2.0127v3.7598h-1.4668v-4.291c0-.9644-.4336-1.4814-1.2021-1.4814-.8252,0-1.4541.6846-1.4541,2.0127v3.7598h-1.4668v-7.0723h1.2852l.0977.9502c.3223-.6011.9785-1.104,1.9297-1.104,1.0342,0,1.7188.5029,2.04,1.2998.3633-.6709,1.0342-1.2998,2.083-1.2998,1.5234,0,2.2783,1.0762,2.2783,2.6416Z" style="fill:#000001; stroke-width:0px;"/><path d="m57.6072,158.8066c0,2.0825-1.3418,3.6899-3.2988,3.6899-1.0898,0-1.8584-.4751-2.2363-1.0342v3.8853h-1.4814v-10.0771h1.2998l.0977,1.0063c.4053-.6011,1.0908-1.1602,2.335-1.1602,1.9561,0,3.2842,1.6074,3.2842,3.6899Zm-5.5625-.0562v.084c0,1.4258.9922,2.2642,1.998,2.2642,1.1748,0,2.041-.9224,2.041-2.292s-.8389-2.2925-2.0264-2.2925c-1.0352,0-2.0127.8247-2.0127,2.2363Z" style="fill:#000001; stroke-width:0px;"/><path d="m59.0925,162.3428v-10.2031h1.4668v10.2031h-1.4668Z" style="fill:#000001; stroke-width:0px;"/><path d="m64.2937,153.1597c0,.5171-.4189.9229-.9502.9229s-.9512-.4058-.9512-.9229c0-.5308.4199-.9502.9512-.9502s.9502.4194.9502.9502Zm-1.6914,9.1831v-7.0723h1.4814v7.0723h-1.4814Z" style="fill:#000001; stroke-width:0px;"/><path d="m72.2761,159.3237h-5.1572c.0693,1.1323.8525,1.8589,1.9561,1.8589.8252,0,1.4541-.3496,1.6914-1.0063h1.4541c-.4336,1.4536-1.5234,2.3203-3.1865,2.3203-2.0273,0-3.4531-1.4399-3.4531-3.6763,0-2.1382,1.3701-3.7036,3.4531-3.7036,1.8584,0,3.2422,1.2021,3.2422,3.6338v.5732Zm-1.4951-1.1602c-.0146-1.062-.7129-1.7471-1.7617-1.7471-1.0762,0-1.7891.7407-1.9004,1.7471h3.6621Z" style="fill:#000001; stroke-width:0px;"/><path d="m78.3308,157.353h-1.4814c-.0137-.6431-.335-.9644-.9922-.9644-.6289,0-.9365.3633-.9365.8247,0,.5029.2656.7124,1.2861.936,1.6914.3496,2.3057.9785,2.3057,2.125,0,1.4814-1.1602,2.2222-2.585,2.2222-1.6914,0-2.6279-.9087-2.6699-2.2925h1.4814c.0137.6572.4609,1.0347,1.2158,1.0347.6992,0,1.0625-.3354,1.0625-.8247,0-.5171-.2656-.7827-1.3838-1.0205-1.5098-.3076-2.208-.8945-2.208-2.0547s.8379-2.2222,2.46-2.2222c1.4258,0,2.4033.8945,2.4453,2.2363Z" style="fill:#000001; stroke-width:0px;"/><path d="m88.7341,162.3428l-1.5234-4.6406-1.5654,4.6406h-1.4531l-2.1943-7.0723h1.5928l1.2861,4.6401.1396.6851.1543-.6851,1.4111-4.6401h1.2861l1.4121,4.6401.1533.6851.1396-.6851,1.2861-4.6401h1.5791l-2.1807,7.0723h-1.5234Z" style="fill:#000001; stroke-width:0px;"/><path d="m95.3503,153.1597c0,.5171-.4189.9229-.9502.9229s-.9512-.4058-.9512-.9229c0-.5308.4199-.9502.9512-.9502s.9502.4194.9502.9502Zm-1.6914,9.1831v-7.0723h1.4814v7.0723h-1.4814Z" style="fill:#000001; stroke-width:0px;"/><path d="m100.7888,155.2705v1.3696h-1.7471l-.0283,3.3687c0,.7407.21,1.0898.9785,1.0898.3633,0,.5869-.0557.7969-.1255v1.314c-.2236.0835-.5586.1533-1.1045.1533-1.4111,0-2.1523-.6147-2.1377-2.1245l.0273-3.6758h-1.2441v-1.3696h1.2441l.0146-1.7334h1.4951l-.0283,1.7334h1.7334Z" style="fill:#000001; stroke-width:0px;"/><path d="m105.571,155.1167c1.5098,0,2.292,1.0762,2.292,2.6416v4.5845h-1.4814v-4.291c0-.9644-.4473-1.4814-1.2158-1.4814-.8242,0-1.4678.6846-1.4678,2.0127v3.7598h-1.4668v-10.2031h1.4668v3.9556c.2939-.5034.8945-.9785,1.873-.9785Z" style="fill:#000001; stroke-width:0px;"/><path d="m114.158,154.0127v2.6973h3.2432v1.4678h-3.2432v4.165h-1.5654v-9.7842h5.3955v1.4541h-3.8301Z" style="fill:#000001; stroke-width:0px;"/><path d="m127.9421,157.4507c0,2.9214-1.9424,4.8921-5.0039,4.8921h-3.5781v-9.7842h3.5781c3.0615,0,5.0039,1.9849,5.0039,4.8921Zm-7.0166,3.4385h2.0127c2.125,0,3.3965-1.272,3.3965-3.4385,0-2.1523-1.2578-3.438-3.3965-3.438h-2.0127v6.8765Z" style="fill:#000001; stroke-width:0px;"/><path d="m135.7605,162.3428l-.9365-2.3901h-4.123l-.9365,2.3901h-1.7051l3.8711-9.7842h1.6777l3.8574,9.7842h-1.7051Zm-4.5566-3.8018h3.1172l-1.3838-3.4941-.1816-.5454-.1816.5454-1.3701,3.4941Z" style="fill:#000001; stroke-width:0px;"/><path d="m148.5828,158.8066c0,2.0825-1.3418,3.6899-3.2988,3.6899-1.0898,0-1.8584-.4751-2.2363-1.0342v3.8853h-1.4814v-10.0771h1.2998l.0977,1.0063c.4053-.6011,1.0908-1.1602,2.334-1.1602,1.957,0,3.2852,1.6074,3.2852,3.6899Zm-5.5625-.0562v.084c0,1.4258.9922,2.2642,1.998,2.2642,1.1738,0,2.041-.9224,2.041-2.292s-.8389-2.2925-2.0264-2.2925c-1.0352,0-2.0127.8247-2.0127,2.2363Z" style="fill:#000001; stroke-width:0px;"/><path d="m156.3435,159.3237h-5.1572c.0693,1.1323.8525,1.8589,1.9561,1.8589.8252,0,1.4541-.3496,1.6914-1.0063h1.4541c-.4336,1.4536-1.5234,2.3203-3.1875,2.3203-2.0264,0-3.4521-1.4399-3.4521-3.6763,0-2.1382,1.3701-3.7036,3.4521-3.7036,1.8594,0,3.2432,1.2021,3.2432,3.6338v.5732Zm-1.4951-1.1602c-.0146-1.062-.7129-1.7471-1.7617-1.7471-1.0762,0-1.7891.7407-1.9004,1.7471h3.6621Z" style="fill:#000001; stroke-width:0px;"/><path d="m159.9958,157.1572c-.3643.3213-.6016.7969-.6152,1.5098v3.6758h-1.4814v-7.0723h1.2998l.1113,1.2021c.252-.6431.8945-1.272,2.0967-1.272v1.4814c-.5586,0-1.0205.1396-1.4111.4751Z" style="fill:#000001; stroke-width:0px;"/><path d="m166.3992,152.1533v1.3281c-.2236-.0981-.4609-.168-.7969-.168-.6152,0-.9639.3496-.9639,1.0762v.8809h1.6904v1.3555h-1.6904v5.7168h-1.4961v-5.7168h-1.2021v-1.3555h1.2021v-.9229c0-1.5093.8252-2.3477,2.3203-2.3477.4053,0,.7412.0698.9365.1533Z" style="fill:#000001; stroke-width:0px;"/><path d="m174.2566,158.8066c0,2.1665-1.5234,3.6899-3.6338,3.6899s-3.6348-1.5234-3.6348-3.6899,1.5234-3.6899,3.6348-3.6899,3.6338,1.5234,3.6338,3.6899Zm-5.7451,0c0,1.3276.8525,2.334,2.125,2.334,1.2715,0,2.0967-1.0063,2.0967-2.334,0-1.3418-.8252-2.3203-2.0967-2.3203-1.2725,0-2.125.9785-2.125,2.3203Z" style="fill:#000001; stroke-width:0px;"/><path d="m177.9226,157.1572c-.3633.3213-.6016.7969-.6152,1.5098v3.6758h-1.4814v-7.0723h1.2998l.1113,1.2021c.252-.6431.8945-1.272,2.0967-1.272v1.4814c-.5586,0-1.0205.1396-1.4111.4751Z" style="fill:#000001; stroke-width:0px;"/><path d="m190.3923,157.7583v4.5845h-1.4814v-4.291c0-.9644-.4199-1.4814-1.1885-1.4814-.8242,0-1.4541.6846-1.4541,2.0127v3.7598h-1.4668v-4.291c0-.9644-.4336-1.4814-1.2021-1.4814-.8252,0-1.4541.6846-1.4541,2.0127v3.7598h-1.4668v-7.0723h1.2852l.0977.9502c.3223-.6011.9785-1.104,1.9297-1.104,1.0342,0,1.7188.5029,2.04,1.2998.3633-.6709,1.0342-1.2998,2.083-1.2998,1.5234,0,2.2783,1.0762,2.2783,2.6416Z" style="fill:#000001; stroke-width:0px;"/><path d="m197.4558,157.6885v4.6543h-1.3145l-.0693-.9224c-.3633.6147-1.0762,1.0762-2.083,1.0762-1.2441,0-2.1104-.7549-2.1104-2.0127,0-1.2998.8945-1.8589,2.0684-2.0825l2.0127-.3633v-.3218c0-.8667-.4053-1.272-1.1602-1.272-.6982,0-1.2715.3916-1.2715,1.1182h-1.4395c.0557-1.3975,1.1035-2.4458,2.7109-2.4458s2.6562.8804,2.6562,2.5718Zm-4.0811,2.7256c0,.4893.335.7964.9502.7964.5312,0,1.0205-.2373,1.2998-.6846.1953-.2798.335-.6987.335-1.1182v-.2515l-1.6904.3633c-.5039.1118-.8945.3213-.8945.8945Z" style="fill:#000001; stroke-width:0px;"/><path d="m204.9499,157.7583v4.5845h-1.4814v-4.291c0-.9644-.4473-1.4814-1.2158-1.4814-.8242,0-1.4678.6846-1.4678,2.0127v3.7598h-1.4678v-7.0723h1.2861l.0977.9502c.3223-.6011.9932-1.104,1.957-1.104,1.5098,0,2.292,1.0762,2.292,2.6416Z" style="fill:#000001; stroke-width:0px;"/><path d="m212.9763,157.6045h-1.4395c-.251-.7129-.8945-1.1182-1.7188-1.1182-1.1328,0-1.9854.9644-1.9854,2.334,0,1.3281.8525,2.3203,2.0127,2.3203.8252,0,1.4814-.4609,1.6914-1.1318h1.4678c-.3633,1.6353-1.6357,2.4878-3.2148,2.4878-2.0127,0-3.4805-1.5098-3.4805-3.6763,0-2.1382,1.4541-3.7036,3.4805-3.7036,1.6074,0,2.8936.8525,3.1865,2.4878Z" style="fill:#000001; stroke-width:0px;"/><path d="m220.6394,159.3237h-5.1572c.0693,1.1323.8525,1.8589,1.9561,1.8589.8252,0,1.4541-.3496,1.6914-1.0063h1.4541c-.4336,1.4536-1.5234,2.3203-3.1865,2.3203-2.0273,0-3.4531-1.4399-3.4531-3.6763,0-2.1382,1.3701-3.7036,3.4531-3.7036,1.8584,0,3.2422,1.2021,3.2422,3.6338v.5732Zm-1.4951-1.1602c-.0146-1.062-.7129-1.7471-1.7617-1.7471-1.0762,0-1.7891.7407-1.9004,1.7471h3.6621Z" style="fill:#000001; stroke-width:0px;"/><path d="m229.491,157.353h-1.4814c-.0137-.6431-.335-.9644-.9922-.9644-.6289,0-.9365.3633-.9365.8247,0,.5029.2656.7124,1.2861.936,1.6914.3496,2.3057.9785,2.3057,2.125,0,1.4814-1.1602,2.2222-2.585,2.2222-1.6914,0-2.6279-.9087-2.6699-2.2925h1.4814c.0137.6572.4609,1.0347,1.2158,1.0347.6992,0,1.0625-.3354,1.0625-.8247,0-.5171-.2656-.7827-1.3838-1.0205-1.5098-.3076-2.208-.8945-2.208-2.0547s.8379-2.2222,2.46-2.2222c1.4258,0,2.4033.8945,2.4453,2.2363Z" style="fill:#000001; stroke-width:0px;"/><path d="m234.8054,155.2705v1.3696h-1.7471l-.0283,3.3687c0,.7407.21,1.0898.9785,1.0898.3633,0,.5869-.0557.7969-.1255v1.314c-.2236.0835-.5586.1533-1.1045.1533-1.4111,0-2.1523-.6147-2.1377-2.1245l.0273-3.6758h-1.2441v-1.3696h1.2441l.0146-1.7334h1.4951l-.0283,1.7334h1.7334Z" style="fill:#000001; stroke-width:0px;"/><path d="m241.405,157.6885v4.6543h-1.3145l-.0693-.9224c-.3633.6147-1.0762,1.0762-2.083,1.0762-1.2441,0-2.1104-.7549-2.1104-2.0127,0-1.2998.8945-1.8589,2.0684-2.0825l2.0127-.3633v-.3218c0-.8667-.4053-1.272-1.1602-1.272-.6982,0-1.2715.3916-1.2715,1.1182h-1.4395c.0557-1.3975,1.1035-2.4458,2.7109-2.4458s2.6562.8804,2.6562,2.5718Zm-4.0811,2.7256c0,.4893.335.7964.9502.7964.5312,0,1.0205-.2373,1.2998-.6846.1953-.2798.335-.6987.335-1.1182v-.2515l-1.6904.3633c-.5039.1118-.8945.3213-.8945.8945Z" style="fill:#000001; stroke-width:0px;"/><path d="m248.9001,157.7583v4.5845h-1.4814v-4.291c0-.9644-.4473-1.4814-1.2158-1.4814-.8242,0-1.4678.6846-1.4678,2.0127v3.7598h-1.4668v-7.0723h1.2852l.0977.9502c.3223-.6011.9932-1.104,1.957-1.104,1.5098,0,2.292,1.0762,2.292,2.6416Z" style="fill:#000001; stroke-width:0px;"/><path d="m255.989,162.3428l-.0977-.9922c-.4189.6006-1.1035,1.146-2.3477,1.146-1.9434,0-3.2852-1.6074-3.2852-3.6899s1.3564-3.6899,3.2988-3.6899c1.1045,0,1.873.4751,2.25,1.0483v-4.0254h1.4824v10.2031h-1.3008Zm-4.207-3.5361c0,1.3696.8389,2.3062,2.0273,2.3062,1.0342,0,2.0264-.8384,2.0264-2.2505v-.0698c-.0137-1.4253-1.0068-2.2642-2.0127-2.2642-1.1738,0-2.041.9224-2.041,2.2783Z" style="fill:#000001; stroke-width:0px;"/><path d="m264.4499,157.6885v4.6543h-1.3145l-.0693-.9224c-.3633.6147-1.0762,1.0762-2.083,1.0762-1.2441,0-2.1104-.7549-2.1104-2.0127,0-1.2998.8945-1.8589,2.0684-2.0825l2.0127-.3633v-.3218c0-.8667-.4053-1.272-1.1602-1.272-.6982,0-1.2715.3916-1.2715,1.1182h-1.4395c.0557-1.3975,1.1035-2.4458,2.7109-2.4458s2.6562.8804,2.6562,2.5718Zm-4.0811,2.7256c0,.4893.335.7964.9502.7964.5312,0,1.0205-.2373,1.2998-.6846.1953-.2798.335-.6987.335-1.1182v-.2515l-1.6904.3633c-.5039.1118-.8945.3213-.8945.8945Z" style="fill:#000001; stroke-width:0px;"/><path d="m268.4646,157.1572c-.3643.3213-.6016.7969-.6152,1.5098v3.6758h-1.4814v-7.0723h1.2998l.1113,1.2021c.252-.6431.8945-1.272,2.0967-1.272v1.4814c-.5586,0-1.0205.1396-1.4111.4751Z" style="fill:#000001; stroke-width:0px;"/><path d="m276.2654,162.3428l-.0977-.9922c-.4189.6006-1.1035,1.146-2.3477,1.146-1.9434,0-3.2852-1.6074-3.2852-3.6899s1.3564-3.6899,3.2988-3.6899c1.1045,0,1.873.4751,2.25,1.0483v-4.0254h1.4814v10.2031h-1.2998Zm-4.207-3.5361c0,1.3696.8389,2.3062,2.0273,2.3062,1.0342,0,2.0264-.8384,2.0264-2.2505v-.0698c-.0137-1.4253-1.0059-2.2642-2.0127-2.2642-1.1738,0-2.041.9224-2.041,2.2783Z" style="fill:#000001; stroke-width:0px;"/><path d="m284.1247,157.353h-1.4814c-.0137-.6431-.335-.9644-.9922-.9644-.6289,0-.9365.3633-.9365.8247,0,.5029.2656.7124,1.2861.936,1.6914.3496,2.3057.9785,2.3057,2.125,0,1.4814-1.1592,2.2222-2.585,2.2222-1.6914,0-2.6279-.9087-2.6699-2.2925h1.4814c.0137.6572.4609,1.0347,1.2158,1.0347.6992,0,1.0625-.3354,1.0625-.8247,0-.5171-.2656-.7827-1.3838-1.0205-1.5098-.3076-2.208-.8945-2.208-2.0547s.8379-2.2222,2.46-2.2222c1.4258,0,2.4033.8945,2.4453,2.2363Z" style="fill:#000001; stroke-width:0px;"/><path d="m292.2781,152.1533v1.3281c-.2236-.0981-.4609-.168-.7969-.168-.6152,0-.9639.3496-.9639,1.0762v.8809h1.6904v1.3555h-1.6904v5.7168h-1.4961v-5.7168h-1.2021v-1.3555h1.2021v-.9229c0-1.5093.8252-2.3477,2.3203-2.3477.4053,0,.7412.0698.9365.1533Z" style="fill:#000001; stroke-width:0px;"/><path d="m300.1355,158.8066c0,2.1665-1.5234,3.6899-3.6338,3.6899s-3.6348-1.5234-3.6348-3.6899,1.5234-3.6899,3.6348-3.6899,3.6338,1.5234,3.6338,3.6899Zm-5.7451,0c0,1.3276.8525,2.334,2.125,2.334,1.2715,0,2.0967-1.0063,2.0967-2.334,0-1.3418-.8252-2.3203-2.0967-2.3203-1.2725,0-2.125.9785-2.125,2.3203Z" style="fill:#000001; stroke-width:0px;"/><path d="m303.8005,157.1572c-.3643.3213-.6016.7969-.6152,1.5098v3.6758h-1.4814v-7.0723h1.2998l.1113,1.2021c.252-.6431.8945-1.272,2.0967-1.272v1.4814c-.5586,0-1.0205.1396-1.4111.4751Z" style="fill:#000001; stroke-width:0px;"/><path d="m16.3093,179.123v-10.2031h1.4678v10.2031h-1.4678Z" style="fill:#000001; stroke-width:0px;"/><path d="m24.949,174.4687v4.6543h-1.3145l-.0693-.9224c-.3633.6147-1.0762,1.0762-2.083,1.0762-1.2432,0-2.1104-.7549-2.1104-2.0127,0-1.2998.8945-1.8589,2.0684-2.0825l2.0127-.3633v-.3218c0-.8667-.4053-1.272-1.1602-1.272-.6982,0-1.2715.3916-1.2715,1.1182h-1.4395c.0557-1.3975,1.1045-2.4458,2.7109-2.4458,1.6074,0,2.6562.8804,2.6562,2.5718Zm-4.0811,2.7256c0,.4893.335.7964.9502.7964.5312,0,1.0205-.2373,1.2998-.6846.1953-.2798.335-.6987.335-1.1182v-.2515l-1.6904.3633c-.5039.1118-.8945.3213-.8945.8945Z" style="fill:#000001; stroke-width:0px;"/><path d="m31.3679,174.1333h-1.4814c-.0137-.6431-.335-.9644-.9922-.9644-.6289,0-.9365.3633-.9365.8247,0,.5029.2656.7124,1.2861.936,1.6914.3496,2.3057.9785,2.3057,2.125,0,1.4814-1.1602,2.2222-2.585,2.2222-1.6914,0-2.6279-.9087-2.6699-2.2925h1.4814c.0137.6572.4609,1.0347,1.2158,1.0347.6992,0,1.0625-.3354,1.0625-.8247,0-.5171-.2656-.7827-1.3838-1.0205-1.5098-.3076-2.208-.8945-2.208-2.0547s.8379-2.2222,2.46-2.2222c1.4258,0,2.4033.8945,2.4453,2.2363Z" style="fill:#000001; stroke-width:0px;"/><path d="m39.2263,176.104h-5.1572c.0693,1.1323.8525,1.8589,1.9561,1.8589.8252,0,1.4541-.3496,1.6914-1.0063h1.4541c-.4336,1.4536-1.5234,2.3203-3.1875,2.3203-2.0264,0-3.4521-1.4399-3.4521-3.6763,0-2.1382,1.3701-3.7036,3.4521-3.7036,1.8594,0,3.2432,1.2021,3.2432,3.6338v.5732Zm-1.4951-1.1602c-.0146-1.062-.7129-1.7471-1.7617-1.7471-1.0762,0-1.7891.7407-1.9004,1.7471h3.6621Z" style="fill:#000001; stroke-width:0px;"/><path d="m42.8777,173.9375c-.3633.3213-.6016.7969-.6152,1.5098v3.6758h-1.4814v-7.0723h1.2998l.1113,1.2021c.252-.6431.8945-1.272,2.0967-1.272v1.4814c-.5586,0-1.0205.1396-1.4111.4751Z" style="fill:#000001; stroke-width:0px;"/><path d="m55.5164,175.5869c0,2.0825-1.3418,3.6899-3.2988,3.6899-1.0898,0-1.8584-.4751-2.2363-1.0342v3.8853h-1.4814v-10.0771h1.2998l.0977,1.0063c.4053-.6011,1.0908-1.1602,2.334-1.1602,1.957,0,3.2852,1.6074,3.2852,3.6899Zm-5.5625-.0562v.084c0,1.4258.9922,2.2642,1.998,2.2642,1.1738,0,2.041-.9224,2.041-2.292s-.8389-2.2925-2.0264-2.2925c-1.0352,0-2.0127.8247-2.0127,2.2363Z" style="fill:#000001; stroke-width:0px;"/><path d="m59.1824,173.9375c-.3633.3213-.6016.7969-.6152,1.5098v3.6758h-1.4814v-7.0723h1.2998l.1113,1.2021c.252-.6431.8945-1.272,2.0967-1.272v1.4814c-.5586,0-1.0205.1396-1.4111.4751Z" style="fill:#000001; stroke-width:0px;"/><path d="m68.5212,175.5869c0,2.1665-1.5234,3.6899-3.6338,3.6899s-3.6348-1.5234-3.6348-3.6899,1.5234-3.6899,3.6348-3.6899,3.6338,1.5234,3.6338,3.6899Zm-5.7451,0c0,1.3276.8525,2.334,2.125,2.334,1.2715,0,2.0967-1.0063,2.0967-2.334,0-1.3418-.8252-2.3203-2.0967-2.3203-1.2725,0-2.125.9785-2.125,2.3203Z" style="fill:#000001; stroke-width:0px;"/><path d="m75.3171,179.123l-.0977-.9922c-.4189.6006-1.1035,1.146-2.3477,1.146-1.9434,0-3.2852-1.6074-3.2852-3.6899s1.3564-3.6899,3.2988-3.6899c1.1045,0,1.873.4751,2.25,1.0483v-4.0254h1.4824v10.2031h-1.3008Zm-4.207-3.5361c0,1.3696.8389,2.3062,2.0273,2.3062,1.0342,0,2.0264-.8384,2.0264-2.2505v-.0698c-.0137-1.4253-1.0068-2.2642-2.0127-2.2642-1.1738,0-2.041.9224-2.041,2.2783Z" style="fill:#000001; stroke-width:0px;"/><path d="m82.7986,179.123l-.0977-.9502c-.3213.6426-.9502,1.104-1.915,1.104-1.5234,0-2.2646-1.0625-2.2646-2.6416v-4.5845h1.4814v4.291c0,.9922.4199,1.5093,1.1885,1.5093.7969,0,1.4258-.6709,1.4258-1.9287v-3.8716h1.4814v7.0723h-1.2998Z" style="fill:#000001; stroke-width:0px;"/><path d="m92.2224,174.3848h-1.4395c-.251-.7129-.8945-1.1182-1.7188-1.1182-1.1328,0-1.9854.9644-1.9854,2.334,0,1.3281.8525,2.3203,2.0127,2.3203.8252,0,1.4814-.4609,1.6914-1.1318h1.4678c-.3633,1.6353-1.6357,2.4878-3.2148,2.4878-2.0127,0-3.4805-1.5098-3.4805-3.6763,0-2.1382,1.4541-3.7036,3.4805-3.7036,1.6074,0,2.8936.8525,3.1865,2.4878Z" style="fill:#000001; stroke-width:0px;"/><path d="m97.3279,172.0508v1.3696h-1.7471l-.0283,3.3687c0,.7407.21,1.0898.9785,1.0898.3633,0,.5869-.0557.7969-.1255v1.314c-.2236.0835-.5586.1533-1.1045.1533-1.4111,0-2.1523-.6147-2.1377-2.1245l.0273-3.6758h-1.2441v-1.3696h1.2441l.0146-1.7334h1.4951l-.0283,1.7334h1.7334Z" style="fill:#000001; stroke-width:0px;"/><path d="m103.3259,174.1333h-1.4814c-.0137-.6431-.335-.9644-.9922-.9644-.6289,0-.9365.3633-.9365.8247,0,.5029.2656.7124,1.2861.936,1.6914.3496,2.3057.9785,2.3057,2.125,0,1.4814-1.1592,2.2222-2.585,2.2222-1.6914,0-2.6279-.9087-2.6699-2.2925h1.4814c.0137.6572.4609,1.0347,1.2158,1.0347.6992,0,1.0625-.3354,1.0625-.8247,0-.5171-.2656-.7827-1.3838-1.0205-1.5098-.3076-2.208-.8945-2.208-2.0547s.8379-2.2222,2.46-2.2222c1.4258,0,2.4033.8945,2.4453,2.2363Z" style="fill:#000001; stroke-width:0px;"/><path d="m113.9812,176.104h-5.1572c.0693,1.1323.8525,1.8589,1.9561,1.8589.8252,0,1.4541-.3496,1.6914-1.0063h1.4541c-.4336,1.4536-1.5234,2.3203-3.1865,2.3203-2.0273,0-3.4531-1.4399-3.4531-3.6763,0-2.1382,1.3701-3.7036,3.4531-3.7036,1.8584,0,3.2422,1.2021,3.2422,3.6338v.5732Zm-1.4951-1.1602c-.0146-1.062-.7129-1.7471-1.7617-1.7471-1.0762,0-1.7891.7407-1.9004,1.7471h3.6621Z" style="fill:#000001; stroke-width:0px;"/><path d="m121.1404,179.123h-1.7334l-1.6348-2.4741-1.6211,2.4741h-1.7334l2.3477-3.6201-2.2217-3.4521h1.7324l1.4961,2.292,1.5098-2.292h1.7324l-2.2363,3.4521,2.3623,3.6201Z" style="fill:#000001; stroke-width:0px;"/><path d="m128.1462,174.3848h-1.4395c-.251-.7129-.8945-1.1182-1.7188-1.1182-1.1328,0-1.9854.9644-1.9854,2.334,0,1.3281.8525,2.3203,2.0127,2.3203.8252,0,1.4814-.4609,1.6914-1.1318h1.4678c-.3633,1.6353-1.6357,2.4878-3.2148,2.4878-2.0127,0-3.4805-1.5098-3.4805-3.6763,0-2.1382,1.4541-3.7036,3.4805-3.7036,1.6074,0,2.8936.8525,3.1865,2.4878Z" style="fill:#000001; stroke-width:0px;"/><path d="m135.8093,176.104h-5.1572c.0693,1.1323.8525,1.8589,1.9561,1.8589.8252,0,1.4541-.3496,1.6914-1.0063h1.4541c-.4336,1.4536-1.5234,2.3203-3.1865,2.3203-2.0273,0-3.4531-1.4399-3.4531-3.6763,0-2.1382,1.3701-3.7036,3.4531-3.7036,1.8584,0,3.2422,1.2021,3.2422,3.6338v.5732Zm-1.4951-1.1602c-.0146-1.062-.7129-1.7471-1.7617-1.7471-1.0762,0-1.7891.7407-1.9004,1.7471h3.6621Z" style="fill:#000001; stroke-width:0px;"/><path d="m144.3943,175.5869c0,2.0825-1.3418,3.6899-3.2988,3.6899-1.0898,0-1.8584-.4751-2.2363-1.0342v3.8853h-1.4814v-10.0771h1.2998l.0977,1.0063c.4053-.6011,1.0908-1.1602,2.335-1.1602,1.9561,0,3.2842,1.6074,3.2842,3.6899Zm-5.5625-.0562v.084c0,1.4258.9922,2.2642,1.998,2.2642,1.1748,0,2.041-.9224,2.041-2.292s-.8389-2.2925-2.0264-2.2925c-1.0352,0-2.0127.8247-2.0127,2.2363Z" style="fill:#000001; stroke-width:0px;"/><path d="m149.4861,172.0508v1.3696h-1.7471l-.0283,3.3687c0,.7407.21,1.0898.9785,1.0898.3633,0,.5869-.0557.7969-.1255v1.314c-.2236.0835-.5586.1533-1.1045.1533-1.4111,0-2.1523-.6147-2.1377-2.1245l.0273-3.6758h-1.2441v-1.3696h1.2441l.0146-1.7334h1.4951l-.0283,1.7334h1.7334Z" style="fill:#000001; stroke-width:0px;"/><path d="m157.3728,168.9336v1.3281c-.2236-.0981-.4609-.168-.7969-.168-.6143,0-.9639.3496-.9639,1.0762v.8809h1.6914v1.3555h-1.6914v5.7168h-1.4961v-5.7168h-1.2021v-1.3555h1.2021v-.9229c0-1.5093.8252-2.3477,2.3203-2.3477.4053,0,.7412.0698.9365.1533Z" style="fill:#000001; stroke-width:0px;"/><path d="m165.2302,175.5869c0,2.1665-1.5234,3.6899-3.6338,3.6899s-3.6348-1.5234-3.6348-3.6899,1.5234-3.6899,3.6348-3.6899,3.6338,1.5234,3.6338,3.6899Zm-5.7451,0c0,1.3276.8525,2.334,2.125,2.334,1.2715,0,2.0967-1.0063,2.0967-2.334,0-1.3418-.8252-2.3203-2.0967-2.3203-1.2725,0-2.125.9785-2.125,2.3203Z" style="fill:#000001; stroke-width:0px;"/><path d="m168.8962,173.9375c-.3643.3213-.6016.7969-.6152,1.5098v3.6758h-1.4814v-7.0723h1.2998l.1113,1.2021c.252-.6431.8945-1.272,2.0967-1.272v1.4814c-.5586,0-1.0205.1396-1.4111.4751Z" style="fill:#000001; stroke-width:0px;"/><path d="m180.5691,174.3848h-1.4395c-.251-.7129-.8945-1.1182-1.7188-1.1182-1.1328,0-1.9854.9644-1.9854,2.334,0,1.3281.8525,2.3203,2.0127,2.3203.8252,0,1.4824-.4609,1.6914-1.1318h1.4678c-.3633,1.6353-1.6357,2.4878-3.2148,2.4878-2.0127,0-3.4805-1.5098-3.4805-3.6763,0-2.1382,1.4541-3.7036,3.4805-3.7036,1.6074,0,2.8936.8525,3.1865,2.4878Z" style="fill:#000001; stroke-width:0px;"/><path d="m188.8054,175.5869c0,2.1665-1.5234,3.6899-3.6338,3.6899s-3.6348-1.5234-3.6348-3.6899,1.5234-3.6899,3.6348-3.6899,3.6338,1.5234,3.6338,3.6899Zm-5.7451,0c0,1.3276.8525,2.334,2.125,2.334,1.2715,0,2.0967-1.0063,2.0967-2.334,0-1.3418-.8252-2.3203-2.0967-2.3203-1.2725,0-2.125.9785-2.125,2.3203Z" style="fill:#000001; stroke-width:0px;"/><path d="m195.9509,174.5386v4.5845h-1.4814v-4.291c0-.9644-.4473-1.4814-1.2158-1.4814-.8242,0-1.4678.6846-1.4678,2.0127v3.7598h-1.4668v-7.0723h1.2852l.0977.9502c.3223-.6011.9932-1.104,1.957-1.104,1.5098,0,2.292,1.0762,2.292,2.6416Z" style="fill:#000001; stroke-width:0px;"/><path d="m201.5037,168.9336v1.3281c-.2236-.0981-.4609-.168-.7969-.168-.6143,0-.9639.3496-.9639,1.0762v.8809h1.6914v1.3555h-1.6914v5.7168h-1.4961v-5.7168h-1.2021v-1.3555h1.2021v-.9229c0-1.5093.8252-2.3477,2.3203-2.3477.4053,0,.7412.0698.9365.1533Z" style="fill:#000001; stroke-width:0px;"/><path d="m209.3611,175.5869c0,2.1665-1.5234,3.6899-3.6338,3.6899s-3.6348-1.5234-3.6348-3.6899,1.5234-3.6899,3.6348-3.6899,3.6338,1.5234,3.6338,3.6899Zm-5.7451,0c0,1.3276.8525,2.334,2.125,2.334,1.2715,0,2.0967-1.0063,2.0967-2.334,0-1.3418-.8252-2.3203-2.0967-2.3203-1.2725,0-2.125.9785-2.125,2.3203Z" style="fill:#000001; stroke-width:0px;"/><path d="m213.0271,173.9375c-.3643.3213-.6016.7969-.6152,1.5098v3.6758h-1.4814v-7.0723h1.2998l.1113,1.2021c.252-.6431.8945-1.272,2.0967-1.272v1.4814c-.5586,0-1.0205.1396-1.4111.4751Z" style="fill:#000001; stroke-width:0px;"/><path d="m225.4968,174.5386v4.5845h-1.4814v-4.291c0-.9644-.4199-1.4814-1.1885-1.4814-.8242,0-1.4531.6846-1.4531,2.0127v3.7598h-1.4678v-4.291c0-.9644-.4336-1.4814-1.2021-1.4814-.8252,0-1.4541.6846-1.4541,2.0127v3.7598h-1.4678v-7.0723h1.2861l.0977.9502c.3223-.6011.9785-1.104,1.9297-1.104,1.0342,0,1.7188.5029,2.04,1.2998.3633-.6709,1.0342-1.2998,2.083-1.2998,1.5234,0,2.2783,1.0762,2.2783,2.6416Z" style="fill:#000001; stroke-width:0px;"/><path d="m232.5603,174.4687v4.6543h-1.3145l-.0693-.9224c-.3633.6147-1.0762,1.0762-2.083,1.0762-1.2432,0-2.1104-.7549-2.1104-2.0127,0-1.2998.8945-1.8589,2.0684-2.0825l2.0127-.3633v-.3218c0-.8667-.4053-1.272-1.1602-1.272-.6982,0-1.2715.3916-1.2715,1.1182h-1.4395c.0557-1.3975,1.1045-2.4458,2.7109-2.4458,1.6074,0,2.6562.8804,2.6562,2.5718Zm-4.0811,2.7256c0,.4893.335.7964.9502.7964.5312,0,1.0205-.2373,1.2998-.6846.1953-.2798.335-.6987.335-1.1182v-.2515l-1.6904.3633c-.5039.1118-.8945.3213-.8945.8945Z" style="fill:#000001; stroke-width:0px;"/><path d="m240.0544,174.5386v4.5845h-1.4814v-4.291c0-.9644-.4473-1.4814-1.2158-1.4814-.8242,0-1.4678.6846-1.4678,2.0127v3.7598h-1.4668v-7.0723h1.2852l.0977.9502c.3223-.6011.9932-1.104,1.957-1.104,1.5098,0,2.292,1.0762,2.292,2.6416Z" style="fill:#000001; stroke-width:0px;"/><path d="m248.0808,174.3848h-1.4395c-.251-.7129-.8945-1.1182-1.7188-1.1182-1.1328,0-1.9854.9644-1.9854,2.334,0,1.3281.8525,2.3203,2.0127,2.3203.8252,0,1.4824-.4609,1.6914-1.1318h1.4678c-.3633,1.6353-1.6357,2.4878-3.2148,2.4878-2.0127,0-3.4805-1.5098-3.4805-3.6763,0-2.1382,1.4541-3.7036,3.4805-3.7036,1.6074,0,2.8936.8525,3.1865,2.4878Z" style="fill:#000001; stroke-width:0px;"/><path d="m255.7439,176.104h-5.1572c.0693,1.1323.8525,1.8589,1.9561,1.8589.8252,0,1.4541-.3496,1.6914-1.0063h1.4541c-.4336,1.4536-1.5234,2.3203-3.1875,2.3203-2.0264,0-3.4521-1.4399-3.4521-3.6763,0-2.1382,1.3701-3.7036,3.4521-3.7036,1.8594,0,3.2432,1.2021,3.2432,3.6338v.5732Zm-1.4951-1.1602c-.0146-1.062-.7129-1.7471-1.7617-1.7471-1.0762,0-1.7891.7407-1.9004,1.7471h3.6621Z" style="fill:#000001; stroke-width:0px;"/><path d="m265.9382,179.123l-1.5234-4.6406-1.5654,4.6406h-1.4531l-2.1943-7.0723h1.5928l1.2861,4.6401.1396.6851.1543-.6851,1.4111-4.6401h1.2861l1.4121,4.6401.1533.6851.1396-.6851,1.2861-4.6401h1.5791l-2.1807,7.0723h-1.5234Z" style="fill:#000001; stroke-width:0px;"/><path d="m272.5544,169.9399c0,.5171-.4189.9229-.9502.9229s-.9512-.4058-.9512-.9229c0-.5308.4199-.9502.9512-.9502s.9502.4194.9502.9502Zm-1.6914,9.1831v-7.0723h1.4814v7.0723h-1.4814Z" style="fill:#000001; stroke-width:0px;"/><path d="m277.9929,172.0508v1.3696h-1.7471l-.0283,3.3687c0,.7407.21,1.0898.9785,1.0898.3633,0,.5869-.0557.7969-.1255v1.314c-.2236.0835-.5586.1533-1.1045.1533-1.4111,0-2.1523-.6147-2.1377-2.1245l.0273-3.6758h-1.2441v-1.3696h1.2441l.0146-1.7334h1.4951l-.0283,1.7334h1.7334Z" style="fill:#000001; stroke-width:0px;"/><path d="m282.7751,171.897c1.5098,0,2.292,1.0762,2.292,2.6416v4.5845h-1.4814v-4.291c0-.9644-.4473-1.4814-1.2158-1.4814-.8242,0-1.4678.6846-1.4678,2.0127v3.7598h-1.4678v-10.2031h1.4678v3.9556c.2939-.5034.8945-.9785,1.873-.9785Z" style="fill:#000001; stroke-width:0px;"/><path d="m289.7966,179.123v-9.7842h1.5654v9.7842h-1.5654Z" style="fill:#000001; stroke-width:0px;"/><path d="m294.9831,170.793v2.5713h3.4248v1.4541h-3.4248v2.8511h3.9277v1.4536h-5.4932v-9.7842h5.4932v1.4541h-3.9277Z" style="fill:#000001; stroke-width:0px;"/><path d="m309.2849,172.3584h-1.7188c-.3916-1.0625-1.2168-1.7476-2.6982-1.7476-1.9141,0-3.2285,1.5376-3.2285,3.6201,0,2.0688,1.3145,3.6201,3.2568,3.6201,1.4951,0,2.3896-.7686,2.7529-1.8032h1.6641c-.5449,2.041-2.0273,3.2568-4.417,3.2568-2.8652,0-4.8916-2.1523-4.8916-5.0737s2.0264-5.0737,4.8633-5.0737c2.3906,0,3.8857,1.272,4.417,3.2012Z" style="fill:#000001; stroke-width:0px;"/><path d="m38.8074,192.8701c0,1.915-1.2725,3.2148-3.1309,3.2148-1.0488,0-1.8311-.3496-2.3906-.9922-.7686-.8945-.9922-2.3062-.9922-3.8579,0-3.4663,1.0342-5.2974,3.4248-5.2974,1.6348,0,2.8369,1.1045,2.9072,2.8096h-1.5938c-.0703-.9502-.5732-1.356-1.3701-1.356-1.1318,0-1.7471.9365-1.7891,3.271.3359-.4473,1.0625-.8525,1.9287-.8525,1.8877,0,3.0059,1.3135,3.0059,3.0605Zm-1.5938.0283c0-.9507-.6289-1.7056-1.5938-1.7056-.9082,0-1.6484.7271-1.6484,1.6914,0,.8945.6426,1.7612,1.6484,1.7612.9648,0,1.5938-.7407,1.5938-1.7471Z" style="fill:#000001; stroke-width:0px;"/><path d="m46.6511,190.9975c0,3.1167-1.2021,5.0874-3.3682,5.0874s-3.3682-1.9707-3.3682-5.0874c0-3.103,1.2012-5.0601,3.3682-5.0601s3.3682,1.957,3.3682,5.0601Zm-5.1572,0c0,2.25.6006,3.6338,1.7891,3.6338,1.1875,0,1.7744-1.3838,1.7744-3.6338,0-2.2363-.5869-3.6064-1.7744-3.6064-1.1885,0-1.7891,1.3701-1.7891,3.6064Z" style="fill:#000001; stroke-width:0px;"/><path d="m53.9519,188.7612c0,1.1318-.6436,1.8447-1.1328,2.1245.6289.2935,1.4258.978,1.4258,2.2783,0,1.6909-1.3838,2.9209-3.1865,2.9209-1.8174,0-3.2148-1.23-3.2148-2.9209,0-1.2021.6846-1.9712,1.4258-2.2783-.5029-.2939-1.1182-1.0063-1.1182-2.1245,0-1.5518,1.1318-2.8237,2.9072-2.8237,1.7607,0,2.8936,1.272,2.8936,2.8237Zm-4.5293,4.3608c0,.9644.7412,1.5234,1.6357,1.5234.8809,0,1.6074-.5591,1.6074-1.5234,0-.9648-.7549-1.5518-1.6074-1.5518-.8809,0-1.6357.5869-1.6357,1.5518Zm.2656-4.3193c0,.8389.5596,1.3838,1.3701,1.3838.7969,0,1.3555-.5449,1.3555-1.3838,0-.8662-.5732-1.4253-1.3555-1.4253-.8105,0-1.3701.5591-1.3701,1.4253Z" style="fill:#000001; stroke-width:0px;"/><path d="m61.0554,188.7051c0,1.1602-.5312,1.999-1.2021,2.8516l-2.292,2.8931h3.5918v1.4536h-5.7588v-1.146l3.0889-3.7881c.6709-.8247.9932-1.3696.9932-2.1943,0-.8804-.4053-1.3838-1.2588-1.3838-.7822,0-1.3418.5034-1.3271,1.6216h-1.5654c-.0137-1.8867,1.1318-3.0752,2.9209-3.0752,1.8447,0,2.8096,1.1045,2.8096,2.7676Z" style="fill:#000001; stroke-width:0px;"/><path d="m64.2029,187.5732v2.4458c.3076-.168.8105-.3218,1.4814-.3218,1.6777,0,2.9072,1.0347,2.9072,3.061,0,1.9712-1.1738,3.3267-3.1445,3.3267-1.873,0-3.0889-1.0063-3.0889-2.9351h1.5518c.0137,1.02.6426,1.4814,1.5508,1.4814,1.0205,0,1.5654-.7407,1.5654-1.8032,0-1.0762-.5869-1.7188-1.6074-1.7188-.6289,0-1.0898.1953-1.3975.4053h-1.3838v-5.3955h5.4512v1.4541h-3.8857Z" style="fill:#000001; stroke-width:0px;"/><path d="m69.489,192.9263v-1.2998h4.4033v1.2998h-4.4033Z" style="fill:#000001; stroke-width:0px;"/><path d="m76.5505,195.9033v-7.1704h-2.0684v-1.3276c1.4678,0,2.208-.2793,2.4453-1.2861h1.1885v9.7842h-1.5654Z" style="fill:#000001; stroke-width:0px;"/><path d="m84.5066,187.5732v2.5713h3.4248v1.4541h-3.4248v2.8511h3.9277v1.4536h-5.4932v-9.7842h5.4932v1.4541h-3.9277Z" style="fill:#000001; stroke-width:0px;"/><path d="m95.2302,195.9033l-.0977-.9922c-.4189.6006-1.1035,1.146-2.3477,1.146-1.9434,0-3.2852-1.6074-3.2852-3.6899s1.3564-3.6899,3.2988-3.6899c1.1045,0,1.873.4751,2.25,1.0483v-4.0254h1.4814v10.2031h-1.2998Zm-4.207-3.5361c0,1.3696.8389,2.3062,2.0273,2.3062,1.0342,0,2.0264-.8384,2.0264-2.2505v-.0698c-.0137-1.4253-1.0059-2.2642-2.0127-2.2642-1.1738,0-2.041.9224-2.041,2.2783Z" style="fill:#000001; stroke-width:0px;"/><path d="m99.9724,195.0928c0,.5449-.4336.9644-.9932.9644-.5586,0-.9775-.4194-.9775-.9644,0-.5732.4189-.9785.9775-.9785.5596,0,.9932.4053.9932.9785Z" style="fill:#000001; stroke-width:0px;"/><path d="m109.7869,188.7329c0,1.2021-.6846,1.8589-1.3135,2.0825.8242.2378,1.6494.9785,1.6494,2.3623,0,1.7612-1.2578,2.9072-3.1455,2.9072-1.9424,0-3.1719-1.1182-3.1719-3.0747h1.5508c.0137,1.1318.7266,1.6211,1.6631,1.6211.9092,0,1.5234-.5869,1.5234-1.5093,0-1.0625-.7539-1.5938-2.0264-1.5938h-.4336v-1.3555h.4062c1.1875,0,1.7188-.4336,1.7188-1.3838,0-.8525-.4473-1.3979-1.2861-1.3979-.7402,0-1.3555.4756-1.3555,1.5654h-1.5654c0-1.8726,1.1465-3.019,2.9072-3.019,1.8311,0,2.8789,1.23,2.8789,2.7954Z" style="fill:#000001; stroke-width:0px;"/><path d="m113.1872,195.0928c0,.5449-.4336.9644-.9932.9644-.5586,0-.9775-.4194-.9775-.9644,0-.5732.4189-.9785.9775-.9785.5596,0,.9932.4053.9932.9785Z" style="fill:#000001; stroke-width:0px;"/><path d="m116.0525,195.1904c0,.8945-.4746,1.873-1.0898,2.5576l-.4473-.1675c.2656-.4893.4053-1.0063.4609-1.5933-.4746-.0562-.8242-.3916-.8242-.8945,0-.5312.4189-.9365.9502-.9365s.9502.3911.9502,1.0342Z" style="fill:#000001; stroke-width:0px;"/><path d="m125.5046,191.249v4.6543h-1.3145l-.0693-.9224c-.3633.6147-1.0762,1.0762-2.083,1.0762-1.2441,0-2.1104-.7549-2.1104-2.0127,0-1.2998.8945-1.8589,2.0684-2.0825l2.0127-.3633v-.3218c0-.8667-.4053-1.272-1.1602-1.272-.6982,0-1.2715.3916-1.2715,1.1182h-1.4395c.0557-1.3975,1.1035-2.4458,2.7109-2.4458s2.6562.8804,2.6562,2.5718Zm-4.0811,2.7256c0,.4893.335.7964.9502.7964.5312,0,1.0205-.2373,1.2998-.6846.1953-.2798.335-.6987.335-1.1182v-.2515l-1.6904.3633c-.5039.1118-.8945.3213-.8945.8945Z" style="fill:#000001; stroke-width:0px;"/><path d="m131.9226,190.9136h-1.4814c-.0137-.6431-.335-.9644-.9922-.9644-.6289,0-.9365.3633-.9365.8247,0,.5029.2656.7124,1.2861.936,1.6914.3496,2.3057.9785,2.3057,2.125,0,1.4814-1.1602,2.2222-2.585,2.2222-1.6914,0-2.6279-.9087-2.6699-2.2925h1.4814c.0137.6572.4609,1.0347,1.2158,1.0347.6992,0,1.0625-.3354,1.0625-.8247,0-.5171-.2656-.7827-1.3838-1.0205-1.5098-.3076-2.208-.8945-2.208-2.0547s.8379-2.2222,2.46-2.2222c1.4258,0,2.4033.8945,2.4453,2.2363Z" style="fill:#000001; stroke-width:0px;"/><path d="m141.613,195.9033l-.0977-.9922c-.4189.6006-1.1035,1.146-2.3477,1.146-1.9434,0-3.2852-1.6074-3.2852-3.6899s1.3564-3.6899,3.2988-3.6899c1.1045,0,1.873.4751,2.25,1.0483v-4.0254h1.4814v10.2031h-1.2998Zm-4.207-3.5361c0,1.3696.8389,2.3062,2.0273,2.3062,1.0342,0,2.0264-.8384,2.0264-2.2505v-.0698c-.0137-1.4253-1.0059-2.2642-2.0127-2.2642-1.1738,0-2.041.9224-2.041,2.2783Z" style="fill:#000001; stroke-width:0px;"/><path d="m151.0652,192.8843h-5.1572c.0693,1.1323.8525,1.8589,1.9561,1.8589.8252,0,1.4541-.3496,1.6914-1.0063h1.4541c-.4336,1.4536-1.5234,2.3203-3.1865,2.3203-2.0273,0-3.4531-1.4399-3.4531-3.6763,0-2.1382,1.3701-3.7036,3.4531-3.7036,1.8584,0,3.2422,1.2021,3.2422,3.6338v.5732Zm-1.4951-1.1602c-.0146-1.062-.7129-1.7471-1.7617-1.7471-1.0762,0-1.7891.7407-1.9004,1.7471h3.6621Z" style="fill:#000001; stroke-width:0px;"/><path d="m157.1208,190.9136h-1.4814c-.0137-.6431-.335-.9644-.9922-.9644-.6289,0-.9365.3633-.9365.8247,0,.5029.2656.7124,1.2861.936,1.6914.3496,2.3057.9785,2.3057,2.125,0,1.4814-1.1592,2.2222-2.585,2.2222-1.6914,0-2.6279-.9087-2.6699-2.2925h1.4814c.0137.6572.4609,1.0347,1.2158,1.0347.6992,0,1.0625-.3354,1.0625-.8247,0-.5171-.2656-.7827-1.3838-1.0205-1.5098-.3076-2.208-.8945-2.208-2.0547s.8379-2.2222,2.46-2.2222c1.4258,0,2.4033.8945,2.4453,2.2363Z" style="fill:#000001; stroke-width:0px;"/><path d="m164.9509,191.165h-1.4395c-.251-.7129-.8945-1.1182-1.7188-1.1182-1.1328,0-1.9854.9644-1.9854,2.334,0,1.3281.8525,2.3203,2.0127,2.3203.8252,0,1.4814-.4609,1.6914-1.1318h1.4678c-.3633,1.6353-1.6357,2.4878-3.2148,2.4878-2.0127,0-3.4805-1.5098-3.4805-3.6763,0-2.1382,1.4541-3.7036,3.4805-3.7036,1.6074,0,2.8936.8525,3.1865,2.4878Z" style="fill:#000001; stroke-width:0px;"/><path d="m168.6033,190.7178c-.3643.3213-.6016.7969-.6152,1.5098v3.6758h-1.4814v-7.0723h1.2998l.1113,1.2021c.252-.6431.8945-1.272,2.0967-1.272v1.4814c-.5586,0-1.0205.1396-1.4111.4751Z" style="fill:#000001; stroke-width:0px;"/><path d="m173.0779,186.7202c0,.5171-.4189.9229-.9502.9229s-.9512-.4058-.9512-.9229c0-.5308.4199-.9502.9512-.9502s.9502.4194.9502.9502Zm-1.6914,9.1831v-7.0723h1.4814v7.0723h-1.4814Z" style="fill:#000001; stroke-width:0px;"/><path d="m178.6287,188.6772c1.9561,0,3.2979,1.6074,3.2979,3.6899s-1.3418,3.6899-3.2842,3.6899c-1.2441,0-1.9287-.5454-2.3486-1.146l-.0977.9922h-1.2852v-10.2031h1.4668v4.0254c.3916-.5732,1.1465-1.0483,2.251-1.0483Zm-2.2646,3.6758v.0698c0,1.4121.9785,2.2505,2.0127,2.2505,1.1885,0,2.0264-.9365,2.0264-2.3062,0-1.356-.8662-2.2783-2.04-2.2783-1.0068,0-1.999.8389-1.999,2.2642Z" style="fill:#000001; stroke-width:0px;"/><path d="m189.6736,192.8843h-5.1572c.0693,1.1323.8525,1.8589,1.9561,1.8589.8252,0,1.4541-.3496,1.6914-1.0063h1.4541c-.4336,1.4536-1.5234,2.3203-3.1875,2.3203-2.0264,0-3.4521-1.4399-3.4521-3.6763,0-2.1382,1.3701-3.7036,3.4521-3.7036,1.8594,0,3.2432,1.2021,3.2432,3.6338v.5732Zm-1.4951-1.1602c-.0146-1.062-.7129-1.7471-1.7617-1.7471-1.0762,0-1.7891.7407-1.9004,1.7471h3.6621Z" style="fill:#000001; stroke-width:0px;"/><path d="m196.4275,195.9033l-.0977-.9922c-.4189.6006-1.1035,1.146-2.3477,1.146-1.9434,0-3.2852-1.6074-3.2852-3.6899s1.3564-3.6899,3.2988-3.6899c1.1045,0,1.873.4751,2.25,1.0483v-4.0254h1.4814v10.2031h-1.2998Zm-4.207-3.5361c0,1.3696.8389,2.3062,2.0273,2.3062,1.0342,0,2.0264-.8384,2.0264-2.2505v-.0698c-.0137-1.4253-1.0059-2.2642-2.0127-2.2642-1.1738,0-2.041.9224-2.041,2.2783Z" style="fill:#000001; stroke-width:0px;"/><path d="m204.2468,186.7202c0,.5171-.4189.9229-.9502.9229s-.9512-.4058-.9512-.9229c0-.5308.4199-.9502.9512-.9502s.9502.4194.9502.9502Zm-1.6914,9.1831v-7.0723h1.4814v7.0723h-1.4814Z" style="fill:#000001; stroke-width:0px;"/><path d="m211.7117,191.3188v4.5845h-1.4814v-4.291c0-.9644-.4473-1.4814-1.2158-1.4814-.8242,0-1.4678.6846-1.4678,2.0127v3.7598h-1.4678v-7.0723h1.2861l.0977.9502c.3223-.6011.9932-1.104,1.957-1.104,1.5098,0,2.292,1.0762,2.292,2.6416Z" style="fill:#000001; stroke-width:0px;"/><path d="m222.2126,194.4497v1.4536h-5.7861v-9.7842h1.5654v8.3306h4.2207Z" style="fill:#000001; stroke-width:0px;"/><path d="m228.7302,191.249v4.6543h-1.3145l-.0693-.9224c-.3633.6147-1.0762,1.0762-2.083,1.0762-1.2432,0-2.1104-.7549-2.1104-2.0127,0-1.2998.8945-1.8589,2.0684-2.0825l2.0127-.3633v-.3218c0-.8667-.4053-1.272-1.1602-1.272-.6982,0-1.2715.3916-1.2715,1.1182h-1.4395c.0557-1.3975,1.1045-2.4458,2.7109-2.4458,1.6074,0,2.6562.8804,2.6562,2.5718Zm-4.0811,2.7256c0,.4893.335.7964.9502.7964.5312,0,1.0205-.2373,1.2998-.6846.1953-.2798.335-.6987.335-1.1182v-.2515l-1.6904.3633c-.5039.1118-.8945.3213-.8945.8945Z" style="fill:#000001; stroke-width:0px;"/><path d="m235.1482,190.9136h-1.4814c-.0137-.6431-.335-.9644-.9922-.9644-.6289,0-.9365.3633-.9365.8247,0,.5029.2656.7124,1.2861.936,1.6914.3496,2.3057.9785,2.3057,2.125,0,1.4814-1.1592,2.2222-2.585,2.2222-1.6914,0-2.6279-.9087-2.6699-2.2925h1.4814c.0137.6572.4609,1.0347,1.2158,1.0347.6992,0,1.0625-.3354,1.0625-.8247,0-.5171-.2656-.7827-1.3838-1.0205-1.5098-.3076-2.208-.8945-2.208-2.0547s.8379-2.2222,2.46-2.2222c1.4258,0,2.4033.8945,2.4453,2.2363Z" style="fill:#000001; stroke-width:0px;"/><path d="m243.0066,192.8843h-5.1572c.0693,1.1323.8525,1.8589,1.9561,1.8589.8252,0,1.4541-.3496,1.6914-1.0063h1.4541c-.4336,1.4536-1.5234,2.3203-3.1865,2.3203-2.0273,0-3.4531-1.4399-3.4531-3.6763,0-2.1382,1.3701-3.7036,3.4531-3.7036,1.8584,0,3.2422,1.2021,3.2422,3.6338v.5732Zm-1.4951-1.1602c-.0146-1.062-.7129-1.7471-1.7617-1.7471-1.0762,0-1.7891.7407-1.9004,1.7471h3.6621Z" style="fill:#000001; stroke-width:0px;"/><path d="m246.658,190.7178c-.3643.3213-.6016.7969-.6152,1.5098v3.6758h-1.4814v-7.0723h1.2998l.1113,1.2021c.252-.6431.8945-1.272,2.0967-1.272v1.4814c-.5586,0-1.0205.1396-1.4111.4751Z" style="fill:#000001; stroke-width:0px;"/><path d="m258.6677,195.9033l-4.4863-6.5132-.3779-.6289v7.1421h-1.5654v-9.7842h1.5381l4.4727,6.5137.4053.6567v-7.1704h1.5654v9.7842h-1.5518Z" style="fill:#000001; stroke-width:0px;"/><path d="m268.9734,192.3672c0,2.1665-1.5234,3.6899-3.6338,3.6899s-3.6348-1.5234-3.6348-3.6899,1.5234-3.6899,3.6348-3.6899,3.6338,1.5234,3.6338,3.6899Zm-5.7451,0c0,1.3276.8525,2.334,2.125,2.334,1.2715,0,2.0967-1.0063,2.0967-2.334,0-1.3418-.8252-2.3203-2.0967-2.3203-1.2725,0-2.125.9785-2.125,2.3203Z" style="fill:#000001; stroke-width:0px;"/><path d="m274.0642,188.831v1.3696h-1.7471l-.0283,3.3687c0,.7407.21,1.0898.9785,1.0898.3633,0,.5869-.0557.7969-.1255v1.314c-.2236.0835-.5586.1533-1.1045.1533-1.4111,0-2.1523-.6147-2.1377-2.1245l.0273-3.6758h-1.2441v-1.3696h1.2441l.0146-1.7334h1.4951l-.0283,1.7334h1.7334Z" style="fill:#000001; stroke-width:0px;"/><path d="m277.2253,186.7202c0,.5171-.4189.9229-.9502.9229s-.9512-.4058-.9512-.9229c0-.5308.4199-.9502.9512-.9502s.9502.4194.9502.9502Zm-1.6914,9.1831v-7.0723h1.4814v7.0723h-1.4814Z" style="fill:#000001; stroke-width:0px;"/><path d="m285.1794,191.165h-1.4395c-.251-.7129-.8945-1.1182-1.7188-1.1182-1.1328,0-1.9854.9644-1.9854,2.334,0,1.3281.8525,2.3203,2.0127,2.3203.8252,0,1.4814-.4609,1.6914-1.1318h1.4678c-.3633,1.6353-1.6357,2.4878-3.2148,2.4878-2.0127,0-3.4805-1.5098-3.4805-3.6763,0-2.1382,1.4541-3.7036,3.4805-3.7036,1.6074,0,2.8936.8525,3.1865,2.4878Z" style="fill:#000001; stroke-width:0px;"/><path d="m292.8425,192.8843h-5.1572c.0693,1.1323.8525,1.8589,1.9561,1.8589.8252,0,1.4541-.3496,1.6914-1.0063h1.4541c-.4336,1.4536-1.5234,2.3203-3.1865,2.3203-2.0273,0-3.4531-1.4399-3.4531-3.6763,0-2.1382,1.3701-3.7036,3.4531-3.7036,1.8584,0,3.2422,1.2021,3.2422,3.6338v.5732Zm-1.4951-1.1602c-.0146-1.062-.7129-1.7471-1.7617-1.7471-1.0762,0-1.7891.7407-1.9004,1.7471h3.6621Z" style="fill:#000001; stroke-width:0px;"/><path d="m91.5447,212.6836l-4.4863-6.5132-.3779-.6289v7.1421h-1.5654v-9.7842h1.5381l4.4727,6.5137.4053.6567v-7.1704h1.5654v9.7842h-1.5518Z" style="fill:#000001; stroke-width:0px;"/><path d="m101.8503,209.1474c0,2.1665-1.5234,3.6899-3.6338,3.6899s-3.6348-1.5234-3.6348-3.6899,1.5234-3.6899,3.6348-3.6899,3.6338,1.5234,3.6338,3.6899Zm-5.7451,0c0,1.3276.8525,2.334,2.125,2.334,1.2715,0,2.0967-1.0063,2.0967-2.334,0-1.3418-.8252-2.3203-2.0967-2.3203-1.2725,0-2.125.9785-2.125,2.3203Z" style="fill:#000001; stroke-width:0px;"/><path d="m104.6355,211.873c0,.5449-.4336.9644-.9922.9644-.5596,0-.9785-.4194-.9785-.9644,0-.5732.4189-.9785.9785-.9785.5586,0,.9922.4053.9922.9785Z" style="fill:#000001; stroke-width:0px;"/><path d="m110.5085,204.3535v2.4458c.3076-.168.8105-.3218,1.4814-.3218,1.6777,0,2.9072,1.0347,2.9072,3.061,0,1.9712-1.1738,3.3267-3.1445,3.3267-1.873,0-3.0889-1.0063-3.0889-2.9351h1.5518c.0137,1.02.6426,1.4814,1.5508,1.4814,1.0205,0,1.5654-.7407,1.5654-1.8032,0-1.0762-.5869-1.7188-1.6074-1.7188-.6289,0-1.0898.1953-1.3975.4053h-1.3838v-5.3955h5.4512v1.4541h-3.8857Z" style="fill:#000001; stroke-width:0px;"/><path d="m122.532,209.6504c0,1.915-1.2725,3.2148-3.1309,3.2148-1.0488,0-1.8311-.3496-2.3906-.9922-.7686-.8945-.9922-2.3062-.9922-3.8579,0-3.4663,1.0342-5.2974,3.4248-5.2974,1.6348,0,2.8369,1.1045,2.9072,2.8096h-1.5938c-.0703-.9502-.5732-1.356-1.3701-1.356-1.1318,0-1.7471.9365-1.7891,3.271.3359-.4473,1.0625-.8525,1.9287-.8525,1.8877,0,3.0059,1.3135,3.0059,3.0605Zm-1.5938.0283c0-.9507-.6289-1.7056-1.5938-1.7056-.9082,0-1.6484.7271-1.6484,1.6914,0,.8945.6426,1.7612,1.6484,1.7612.9648,0,1.5938-.7407,1.5938-1.7471Z" style="fill:#000001; stroke-width:0px;"/><path d="m125.3718,211.9707c0,.8945-.4746,1.873-1.0898,2.5576l-.4473-.1675c.2656-.4893.4053-1.0063.4609-1.5933-.4746-.0562-.8242-.3916-.8242-.8945,0-.5312.4189-.9365.9502-.9365s.9502.3911.9502,1.0342Z" style="fill:#000001; stroke-width:0px;"/><path d="m134.8513,212.6836l-.0977-.9922c-.4189.6006-1.1035,1.146-2.3477,1.146-1.9434,0-3.2852-1.6074-3.2852-3.6899s1.3564-3.6899,3.2988-3.6899c1.1045,0,1.873.4751,2.25,1.0483v-4.0254h1.4814v10.2031h-1.2998Zm-4.207-3.5361c0,1.3696.8389,2.3062,2.0273,2.3062,1.0342,0,2.0264-.8384,2.0264-2.2505v-.0698c-.0137-1.4253-1.0059-2.2642-2.0127-2.2642-1.1738,0-2.041.9224-2.041,2.2783Z" style="fill:#000001; stroke-width:0px;"/><path d="m143.3113,208.0293v4.6543h-1.3145l-.0693-.9224c-.3633.6147-1.0762,1.0762-2.083,1.0762-1.2441,0-2.1104-.7549-2.1104-2.0127,0-1.2998.8945-1.8589,2.0684-2.0825l2.0127-.3633v-.3218c0-.8667-.4053-1.272-1.1602-1.272-.6982,0-1.2715.3916-1.2715,1.1182h-1.4395c.0557-1.3975,1.1035-2.4458,2.7109-2.4458s2.6562.8804,2.6562,2.5718Zm-4.0811,2.7256c0,.4893.335.7964.9502.7964.5312,0,1.0205-.2373,1.2998-.6846.1953-.2798.335-.6987.335-1.1182v-.2515l-1.6904.3633c-.5039.1118-.8945.3213-.8945.8945Z" style="fill:#000001; stroke-width:0px;"/><path d="m148.7517,205.6113v1.3696h-1.7471l-.0283,3.3687c0,.7407.21,1.0898.9785,1.0898.3633,0,.5869-.0557.7969-.1255v1.314c-.2236.0835-.5586.1533-1.1045.1533-1.4111,0-2.1523-.6147-2.1377-2.1245l.0273-3.6758h-1.2441v-1.3696h1.2441l.0146-1.7334h1.4951l-.0283,1.7334h1.7334Z" style="fill:#000001; stroke-width:0px;"/><path d="m156.3435,209.6645h-5.1572c.0693,1.1323.8525,1.8589,1.9561,1.8589.8252,0,1.4541-.3496,1.6914-1.0063h1.4541c-.4336,1.4536-1.5234,2.3203-3.1875,2.3203-2.0264,0-3.4521-1.4399-3.4521-3.6763,0-2.1382,1.3701-3.7036,3.4521-3.7036,1.8594,0,3.2432,1.2021,3.2432,3.6338v.5732Zm-1.4951-1.1602c-.0146-1.062-.7129-1.7471-1.7617-1.7471-1.0762,0-1.7891.7407-1.9004,1.7471h3.6621Z" style="fill:#000001; stroke-width:0px;"/><path d="m163.0974,212.6836l-.0977-.9922c-.4189.6006-1.1035,1.146-2.3477,1.146-1.9434,0-3.2852-1.6074-3.2852-3.6899s1.3564-3.6899,3.2988-3.6899c1.1045,0,1.873.4751,2.25,1.0483v-4.0254h1.4814v10.2031h-1.2998Zm-4.207-3.5361c0,1.3696.8389,2.3062,2.0273,2.3062,1.0342,0,2.0264-.8384,2.0264-2.2505v-.0698c-.0137-1.4253-1.0059-2.2642-2.0127-2.2642-1.1738,0-2.041.9224-2.041,2.2783Z" style="fill:#000001; stroke-width:0px;"/><path d="m177.905,212.6836v-6.793l-.2793.7827-2.6416,6.0103h-1.2861l-2.6416-6.0103-.2656-.7827v6.793h-1.5654v-9.7842h1.7617l3.1025,6.793.2373.6011.2656-.6011,3.1035-6.793h1.7744v9.7842h-1.5654Z" style="fill:#000001; stroke-width:0px;"/><path d="m186.6599,208.0293v4.6543h-1.3145l-.0693-.9224c-.3633.6147-1.0762,1.0762-2.083,1.0762-1.2432,0-2.1104-.7549-2.1104-2.0127,0-1.2998.8945-1.8589,2.0684-2.0825l2.0127-.3633v-.3218c0-.8667-.4053-1.272-1.1602-1.272-.6982,0-1.2715.3916-1.2715,1.1182h-1.4395c.0557-1.3975,1.1045-2.4458,2.7109-2.4458,1.6074,0,2.6562.8804,2.6562,2.5718Zm-4.0811,2.7256c0,.4893.335.7964.9502.7964.5312,0,1.0205-.2373,1.2998-.6846.1953-.2798.335-.6987.335-1.1182v-.2515l-1.6904.3633c-.5039.1118-.8945.3213-.8945.8945Z" style="fill:#000001; stroke-width:0px;"/><path d="m188.9968,215.6885l1.1328-3.1025-2.5859-6.9746h1.5791l1.6494,4.752.1396.5591.1396-.5591,1.6494-4.752h1.5938l-3.7461,10.0771h-1.5518Z" style="fill:#000001; stroke-width:0px;"/><path d="m204.0271,205.5415c0,1.1318-.6436,1.8447-1.1328,2.1245.6289.2935,1.4258.978,1.4258,2.2783,0,1.6909-1.3838,2.9209-3.1865,2.9209-1.8174,0-3.2148-1.23-3.2148-2.9209,0-1.2021.6846-1.9712,1.4258-2.2783-.5029-.2939-1.1182-1.0063-1.1182-2.1245,0-1.5518,1.1318-2.8237,2.9072-2.8237,1.7607,0,2.8936,1.272,2.8936,2.8237Zm-4.5293,4.3608c0,.9644.7412,1.5234,1.6357,1.5234.8809,0,1.6074-.5591,1.6074-1.5234,0-.9648-.7549-1.5518-1.6074-1.5518-.8809,0-1.6357.5869-1.6357,1.5518Zm.2656-4.3193c0,.8389.5596,1.3838,1.3701,1.3838.7969,0,1.3555-.5449,1.3555-1.3838,0-.8662-.5732-1.4253-1.3555-1.4253-.8105,0-1.3701.5591-1.3701,1.4253Z" style="fill:#000001; stroke-width:0px;"/><path d="m207.3572,211.9707c0,.8945-.4746,1.873-1.0898,2.5576l-.4473-.1675c.2656-.4893.4053-1.0063.4609-1.5933-.4746-.0562-.8242-.3916-.8242-.8945,0-.5312.4189-.9365.9502-.9365s.9502.3911.9502,1.0342Z" style="fill:#000001; stroke-width:0px;"/><path d="m216.948,205.4853c0,1.1602-.5312,1.999-1.2021,2.8516l-2.292,2.8931h3.5918v1.4536h-5.7588v-1.146l3.0889-3.7881c.6709-.8247.9932-1.3696.9932-2.1943,0-.8804-.4053-1.3838-1.2588-1.3838-.7822,0-1.3418.5034-1.3271,1.6216h-1.5654c-.0137-1.8867,1.1318-3.0752,2.9209-3.0752,1.8447,0,2.8096,1.1045,2.8096,2.7676Z" style="fill:#000001; stroke-width:0px;"/><path d="m224.7917,207.7778c0,3.1167-1.2021,5.0874-3.3682,5.0874s-3.3682-1.9707-3.3682-5.0874c0-3.103,1.2012-5.0601,3.3682-5.0601s3.3682,1.957,3.3682,5.0601Zm-5.1572,0c0,2.25.6006,3.6338,1.7891,3.6338,1.1875,0,1.7744-1.3838,1.7744-3.6338,0-2.2363-.5869-3.6064-1.7744-3.6064-1.1885,0-1.7891,1.3701-1.7891,3.6064Z" style="fill:#000001; stroke-width:0px;"/><path d="m227.8152,212.6836v-7.1704h-2.0684v-1.3276c1.4678,0,2.208-.2793,2.4453-1.2861h1.1885v9.7842h-1.5654Z" style="fill:#000001; stroke-width:0px;"/><path d="m237.4607,207.5679c0,3.4663-1.0342,5.2974-3.4238,5.2974-1.6357,0-2.8379-1.104-2.9072-2.8096h1.5938c.0693.9507.5723,1.356,1.3691,1.356,1.1318,0,1.7471-.9365,1.7891-3.2705-.3496.4473-1.0625.8525-1.9287.8525-1.8867,0-3.0049-1.314-3.0049-3.061,0-1.915,1.2715-3.2148,3.1309-3.2148,1.0479,0,1.8311.3496,2.3896.9927.7686.8945.9922,2.3062.9922,3.8574Zm-1.6768-1.6489c0-.8945-.6426-1.7612-1.6494-1.7612-.9639,0-1.5938.7407-1.5938,1.7471,0,.9502.6299,1.6909,1.5938,1.6909.9082,0,1.6494-.7124,1.6494-1.6768Z" style="fill:#000001; stroke-width:0px;"/><path d="m240.4421,211.873c0,.5449-.4336.9644-.9922.9644-.5596,0-.9785-.4194-.9785-.9644,0-.5732.4189-.9785.9785-.9785.5586,0,.9922.4053.9922.9785Z" style="fill:#000001; stroke-width:0px;"/></svg>