<?xml version="1.0" encoding="UTF-8"?><svg id="uuid-1bcf1eb0-9f20-4df5-af77-5b75a387cb79" xmlns="http://www.w3.org/2000/svg" width="325" height="163.1822" viewBox="0 0 325 163.1822"><rect x="4.5404" y="8.4384" width="315.9192" height="147.5262" rx="18.0072" ry="18.0072" style="fill:#000001; stroke-width:0px;"/><rect x="51.8678" y="41.7393" width="221.2643" height="80.9243" style="fill:#fff200; stroke-width:0px;"/><path d="m76.5847,66.5503h-3.1289c-.3809-.9932-1.0264-1.5063-2.334-1.5063-1.7383,0-2.8643,1.3906-2.8643,3.3276,0,1.9536,1.126,3.3608,2.8975,3.3608,1.3906,0,2.1689-.6787,2.5-1.6558h2.9795c-.5957,2.6655-2.334,4.3213-5.4795,4.3213-3.46,0-5.8779-2.5332-5.8779-6.0264,0-3.4766,2.418-5.9932,5.8447-5.9932,3.1123,0,4.8506,1.7715,5.4629,4.1719Z" style="fill:#000001; stroke-width:0px;"/><path d="m85.4968,71.5171v2.6655h-7.417v-11.5889h2.8643v8.9233h4.5527Z" style="fill:#000001; stroke-width:0px;"/><path d="m94.9372,74.1826l-.7773-2.1855h-4.2383l-.7783,2.1855h-3.0801l4.3711-11.5889h3.2119l4.3711,11.5889h-3.0801Zm-4.1387-4.6191h2.4834l-1.0264-2.9136-.2148-.6792-.2158.6792-1.0264,2.9136Z" style="fill:#000001; stroke-width:0px;"/><path d="m106.1833,65.9707h-2.8809c-.0498-.6953-.4805-1.0757-1.0596-1.0757s-.9434.2979-.9434.8442c0,.6787.5625.9106,1.8379,1.3076,2.5488.8115,3.3604,1.9702,3.3604,3.7251,0,2.3345-1.7715,3.626-4.0234,3.626-2.8145,0-4.2051-1.6226-4.2705-3.8574h2.8799c.0664.8774.5137,1.3574,1.4238,1.3574.6787,0,1.1094-.3311,1.1094-.8608,0-.6128-.5293-.9771-1.7549-1.3574-2.1855-.6626-3.4434-1.689-3.4434-3.6758,0-2.1685,1.5234-3.6255,3.9072-3.6255,2.2676,0,3.7246,1.1919,3.8574,3.5923Z" style="fill:#000001; stroke-width:0px;"/><path d="m115.5085,65.9707h-2.8809c-.0498-.6953-.4805-1.0757-1.0596-1.0757s-.9434.2979-.9434.8442c0,.6787.5625.9106,1.8379,1.3076,2.5488.8115,3.3604,1.9702,3.3604,3.7251,0,2.3345-1.7715,3.626-4.0234,3.626-2.8145,0-4.2051-1.6226-4.2715-3.8574h2.8809c.0664.8774.5137,1.3574,1.4238,1.3574.6787,0,1.1094-.3311,1.1094-.8608,0-.6128-.5293-.9771-1.7549-1.3574-2.1855-.6626-3.4434-1.689-3.4434-3.6758,0-2.1685,1.5234-3.6255,3.9072-3.6255,2.2676,0,3.7246,1.1919,3.8574,3.5923Z" style="fill:#000001; stroke-width:0px;"/><path d="m122.4177,74.1826v-7.4004h-2.4502v-2.4004c1.8701,0,2.9297-.4805,3.2441-1.7881h2.0693v11.5889h-2.8633Z" style="fill:#000001; stroke-width:0px;"/><path d="m137.9001,71.5171v2.6655h-7.417v-11.5889h2.8643v8.9233h4.5527Z" style="fill:#000001; stroke-width:0px;"/><path d="m147.3406,74.1826l-.7773-2.1855h-4.2383l-.7783,2.1855h-3.0801l4.3711-11.5889h3.2119l4.3711,11.5889h-3.0801Zm-4.1387-4.6191h2.4834l-1.0264-2.9136-.2148-.6792-.2158.6792-1.0264,2.9136Z" style="fill:#000001; stroke-width:0px;"/><path d="m158.5867,65.9707h-2.8809c-.0498-.6953-.4805-1.0757-1.0596-1.0757s-.9434.2979-.9434.8442c0,.6787.5625.9106,1.8379,1.3076,2.5488.8115,3.3604,1.9702,3.3604,3.7251,0,2.3345-1.7715,3.626-4.0234,3.626-2.8145,0-4.2051-1.6226-4.2715-3.8574h2.8809c.0664.8774.5137,1.3574,1.4238,1.3574.6787,0,1.1094-.3311,1.1094-.8608,0-.6128-.5293-.9771-1.7549-1.3574-2.1855-.6626-3.4434-1.689-3.4434-3.6758,0-2.1685,1.5234-3.6255,3.9072-3.6255,2.2676,0,3.7246,1.1919,3.8574,3.5923Z" style="fill:#000001; stroke-width:0px;"/><path d="m163.3259,65.2593v1.6553h3.4268v2.6655h-3.4268v1.937h4.0391v2.6655h-6.9033v-11.5889h6.9033v2.6655h-4.0391Z" style="fill:#000001; stroke-width:0px;"/><path d="m174.5544,74.1826l-2.0537-4.0728h-.5127v4.0728h-2.8643v-11.5889h3.8906c2.6328,0,4.2881,1.5562,4.2881,3.8408,0,1.374-.6953,2.5-1.8877,3.1289l2.3838,4.6191h-3.2441Zm-2.5664-6.5728h1.0264c.8447,0,1.3574-.3643,1.3574-1.1753,0-.8276-.5127-1.1753-1.3574-1.1753h-1.0264v2.3506Z" style="fill:#000001; stroke-width:0px;"/><path d="m190.4695,66.4844c0,2.2183-1.6562,3.8906-4.2881,3.8906h-1.1094v3.8076h-2.8643v-11.5889h3.9736c2.6318,0,4.2881,1.606,4.2881,3.8906Zm-5.3975,1.2251h1.1094c.8438,0,1.3574-.4141,1.3574-1.2251,0-.8281-.5137-1.2251-1.3574-1.2251h-1.1094v2.4502Z" style="fill:#000001; stroke-width:0px;"/><path d="m197.3279,74.1826l-2.0537-4.0728h-.5127v4.0728h-2.8643v-11.5889h3.8906c2.6328,0,4.2881,1.5562,4.2881,3.8408,0,1.374-.6953,2.5-1.8877,3.1289l2.3838,4.6191h-3.2441Zm-2.5664-6.5728h1.0264c.8447,0,1.3574-.3643,1.3574-1.1753,0-.8276-.5127-1.1753-1.3574-1.1753h-1.0264v2.3506Z" style="fill:#000001; stroke-width:0px;"/><path d="m213.5066,68.3716c0,3.4932-2.5166,6.0264-6.0762,6.0264s-6.0762-2.5332-6.0762-6.0264c0-3.4766,2.5166-5.9932,6.0762-5.9932s6.0762,2.5166,6.0762,5.9932Zm-9.1719,0c0,1.9536,1.1758,3.3608,3.0957,3.3608,1.9209,0,3.0957-1.4072,3.0957-3.3608,0-1.937-1.1748-3.3276-3.0957-3.3276-1.9199,0-3.0957,1.3906-3.0957,3.3276Z" style="fill:#000001; stroke-width:0px;"/><path d="m225.6638,68.3882c0,3.394-2.3506,5.7944-6.0762,5.7944h-4.4697v-11.5889h4.4697c3.7256,0,6.0762,2.4004,6.0762,5.7944Zm-7.6816,3.1289h1.6055c2.0371,0,3.0967-1.1094,3.0967-3.1289s-1.0596-3.1289-3.0967-3.1289h-1.6055v6.2578Z" style="fill:#000001; stroke-width:0px;"/><path d="m231.9763,74.3979c-3.1123,0-4.835-1.8711-4.835-4.9336v-6.8706h2.8643v6.8706c0,1.374.5801,2.2681,1.9707,2.2681s1.9531-.894,1.9531-2.2681v-6.8706h2.8643v6.8706c0,3.0625-1.7051,4.9336-4.8174,4.9336Z" style="fill:#000001; stroke-width:0px;"/><path d="m249.5798,66.5503h-3.1289c-.3809-.9932-1.0264-1.5063-2.334-1.5063-1.7383,0-2.8643,1.3906-2.8643,3.3276,0,1.9536,1.126,3.3608,2.8975,3.3608,1.3906,0,2.1689-.6787,2.5-1.6558h2.9795c-.5957,2.6655-2.334,4.3213-5.4795,4.3213-3.46,0-5.8779-2.5332-5.8779-6.0264,0-3.4766,2.418-5.9932,5.8447-5.9932,3.1123,0,4.8506,1.7715,5.4629,4.1719Z" style="fill:#000001; stroke-width:0px;"/><path d="m256.571,65.2593v8.9233h-2.8633v-8.9233h-3.5107v-2.6655h9.8838v2.6655h-3.5098Z" style="fill:#000001; stroke-width:0px;"/><path d="m89.657,91.9756v1.6553h3.4268v2.6655h-3.4268v1.937h4.0391v2.6655h-6.9033v-11.5889h6.9033v2.6655h-4.0391Z" style="fill:#000001; stroke-width:0px;"/><path d="m102.7888,100.8989l-4.0225-6.0098-.4473-.811v6.8208h-2.8643v-11.5889h2.8643l4.0068,6.0757.4629.8281v-6.9038h2.8643v11.5889h-2.8643Z" style="fill:#000001; stroke-width:0px;"/><path d="m106.7839,100.8989l4.1387-11.5889h2.666l-4.1396,11.5889h-2.665Z" style="fill:#000001; stroke-width:0px;"/><path d="m114.7175,100.8989v-11.5889h2.8643v11.5889h-2.8643Z" style="fill:#000001; stroke-width:0px;"/><path d="m122.5671,91.9756v1.6553h3.4268v2.6655h-3.4268v1.937h4.0391v2.6655h-6.9033v-11.5889h6.9033v2.6655h-4.0391Z" style="fill:#000001; stroke-width:0px;"/><path d="m139.1589,93.2666h-3.1289c-.3809-.9932-1.0264-1.5063-2.334-1.5063-1.7383,0-2.8643,1.3906-2.8643,3.3276,0,1.9536,1.126,3.3608,2.8975,3.3608,1.3906,0,2.1689-.6787,2.5-1.6558h2.9795c-.5957,2.6655-2.334,4.3213-5.4795,4.3213-3.46,0-5.8779-2.5332-5.8779-6.0264,0-3.4766,2.418-5.9932,5.8447-5.9932,3.1123,0,4.8506,1.7715,5.4629,4.1719Z" style="fill:#000001; stroke-width:0px;"/><path d="m151.5818,97.1406c0,2.5498-1.7549,3.9736-4.0068,3.9736-1.3408,0-2.3506-.3975-3.0625-1.2251-.8779-1.043-1.2754-2.6987-1.2754-4.6025,0-4.189,1.4082-6.1919,4.3711-6.1919,2.1689,0,3.7578,1.4897,3.8076,3.7417h-2.8965c-.0332-.7617-.4141-1.0762-1.0439-1.0762-.8271,0-1.3242.6289-1.3574,2.3345.3975-.3315,1.0928-.5962,1.9209-.5962,2.1191,0,3.543,1.4404,3.543,3.6421Zm-2.8975.0166c0-.7285-.5127-1.3242-1.2246-1.3242s-1.2588.5957-1.2588,1.3242c0,.7617.5137,1.3413,1.2588,1.3413.7119,0,1.2246-.5796,1.2246-1.3413Z" style="fill:#000001; stroke-width:0px;"/><path d="m161.2205,95.0879c0,3.7583-1.5225,6.0264-4.2715,6.0264s-4.2715-2.2681-4.2715-6.0264c0-3.7417,1.5234-5.9932,4.2715-5.9932s4.2715,2.2515,4.2715,5.9932Zm-5.6621,0c0,2.1689.4473,3.3608,1.3906,3.3608.9443,0,1.3906-1.1919,1.3906-3.3608,0-2.1523-.4463-3.3276-1.3906-3.3276-.9434,0-1.3906,1.1753-1.3906,3.3276Z" style="fill:#000001; stroke-width:0px;"/><path d="m170.2146,92.6543c0,1.0928-.5791,1.9038-1.1094,2.3179.7119.4136,1.4072,1.1753,1.4072,2.5161,0,2.1025-1.7881,3.626-4.0723,3.626s-4.0732-1.5234-4.0732-3.626c0-1.3242.6787-2.1025,1.3906-2.5161-.5293-.4307-1.0928-1.2251-1.0928-2.3179,0-1.937,1.4902-3.5596,3.7754-3.5596s3.7744,1.6226,3.7744,3.5596Zm-4.9668,4.7017c0,.7119.4805,1.126,1.1924,1.126s1.1914-.4141,1.1914-1.126c0-.7285-.5293-1.1753-1.1914-1.1753-.6953,0-1.1924.4468-1.1924,1.1753Zm.2158-4.5859c0,.5962.3643,1.0098.9766,1.0098s.9766-.4136.9766-1.0098c0-.6128-.3975-1.043-.9766-1.043-.5967,0-.9766.4302-.9766,1.043Z" style="fill:#000001; stroke-width:0px;"/><path d="m179.0593,92.5713c0,1.4404-.6953,2.4336-1.4727,3.3442l-2.0039,2.3179h3.3945v2.6655h-7.3672v-2.0693l3.4102-3.874c.7119-.7949,1.1592-1.3579,1.1592-2.2354,0-.563-.2656-.96-.7949-.96-.6289,0-.9766.3643-.9434,1.2085h-2.8643c-.0664-2.3511,1.5391-3.874,3.8408-3.874,2.417,0,3.6416,1.4238,3.6416,3.4766Z" style="fill:#000001; stroke-width:0px;"/><path d="m183.1677,91.9756v1.5396c.2988-.1162.7617-.2319,1.3418-.2319,1.8213,0,3.4766.894,3.4766,3.6587,0,2.6323-1.54,4.1724-4.0068,4.1724-2.5,0-4.0059-1.3579-4.0059-3.7583h2.8467c.0166.7285.4805,1.0928,1.1758,1.0928.7617,0,1.126-.5298,1.126-1.3413,0-.96-.4639-1.4072-1.1924-1.4072-.4795,0-.8105.1494-1.0762.3315h-2.5488v-6.7217h7.085v2.6655h-4.2217Z" style="fill:#000001; stroke-width:0px;"/><path d="m188.9167,97.7866v-2.3677h5.2148v2.3677h-5.2148Z" style="fill:#000001; stroke-width:0px;"/><path d="m197.5124,100.8989v-7.4004h-2.4512v-2.4009c1.8711,0,2.9307-.48,3.2451-1.7876h2.0693v11.5889h-2.8633Z" style="fill:#000001; stroke-width:0px;"/><path d="m212.4656,92.5713c0,1.4404-.6953,2.4336-1.4727,3.3442l-2.0039,2.3179h3.3945v2.6655h-7.3672v-2.0693l3.4102-3.874c.7119-.7949,1.1592-1.3579,1.1592-2.2354,0-.563-.2656-.96-.7949-.96-.6289,0-.9766.3643-.9434,1.2085h-2.8643c-.0664-2.3511,1.5391-3.874,3.8408-3.874,2.417,0,3.6416,1.4238,3.6416,3.4766Z" style="fill:#000001; stroke-width:0px;"/><path d="m221.9382,95.0879c0,3.7583-1.5225,6.0264-4.2715,6.0264s-4.2715-2.2681-4.2715-6.0264c0-3.7417,1.5234-5.9932,4.2715-5.9932s4.2715,2.2515,4.2715,5.9932Zm-5.6621,0c0,2.1689.4473,3.3608,1.3906,3.3608.9443,0,1.3906-1.1919,1.3906-3.3608,0-2.1523-.4463-3.3276-1.3906-3.3276-.9434,0-1.3906,1.1753-1.3906,3.3276Z" style="fill:#000001; stroke-width:0px;"/><path d="m225.4695,100.8989v-7.4004h-2.4512v-2.4009c1.8711,0,2.9307-.48,3.2451-1.7876h2.0693v11.5889h-2.8633Z" style="fill:#000001; stroke-width:0px;"/><path d="m238.7322,96.5117v2.5493h-1.3574v1.8379h-2.8643v-1.8379h-4.8506v-2.3013l4.1064-7.4497h3.6084v7.2017h1.3574Zm-6.1914.0332h2.0195v-3.8906l-.248.5957-1.7715,3.2949Z" style="fill:#000001; stroke-width:0px;"/><rect x="13.4685" y="17.5331" width="298.063" height="129.3369" rx="9.764" ry="9.764" style="fill:none; stroke:#fff200; stroke-miterlimit:10; stroke-width:5px;"/></svg>