<?xml version="1.0" encoding="UTF-8"?><svg xmlns="http://www.w3.org/2000/svg" width="654" height="258.799" xmlns:xlink="http://www.w3.org/1999/xlink" viewBox="0 0 654 258.799"><defs><linearGradient id="uuid-58da9394-344c-49e6-9382-75078f2563a4" x1="225.031" y1="220.546" x2="225.031" y2="252.996" gradientUnits="userSpaceOnUse"><stop offset="0" stop-color="#d3d5d6"/><stop offset="1" stop-color="#c8caca" stop-opacity="0"/></linearGradient><linearGradient id="uuid-4b99a7d9-be8d-46a4-b0eb-acfe15d61785" x1="428.147" y1="220.546" x2="428.147" y2="252.996" xlink:href="#uuid-58da9394-344c-49e6-9382-75078f2563a4"/><linearGradient id="uuid-89d66a45-e682-46ad-bb12-b52526ab8baa" x1="326.777" y1="40.445" x2="326.777" y2="7.832" xlink:href="#uuid-58da9394-344c-49e6-9382-75078f2563a4"/></defs><g id="uuid-f1bd15aa-1514-45d7-9235-6b69cbd9bbc6"><path d="m163.508,255.58l12.408-71.713c1.095-6.329,1.339-6.533,7.762-6.479l93.969.783c3.428.029,3.011-.145,5.442,2.271l1.145,1.138c2.508,2.494,2.338,2.08,2.304,5.616l-.674,68.383" style="fill:url(#uuid-58da9394-344c-49e6-9382-75078f2563a4); stroke:#000001; stroke-linecap:round; stroke-linejoin:round; stroke-width:.75px;"/><path d="m489.67,255.58l-12.408-71.713c-1.095-6.329-1.339-6.533-7.762-6.479l-93.969.783c-3.428.029-3.011-.145-5.442,2.271l-1.145,1.138c-2.508,2.494-2.338,2.08-2.304,5.616l.674,68.383" style="fill:url(#uuid-4b99a7d9-be8d-46a4-b0eb-acfe15d61785); stroke:#000001; stroke-linecap:round; stroke-linejoin:round; stroke-width:.75px;"/><line x1="99.604" y1="90.854" x2="90.912" y2="87.02" style="fill:none; stroke:#a7abae; stroke-linecap:round; stroke-miterlimit:10; stroke-width:.5px;"/><line x1="66.072" y1="106.539" x2="71.899" y2="108.932" style="fill:none; stroke:#a7abae; stroke-linecap:round; stroke-miterlimit:10; stroke-width:.5px;"/><line x1="87.094" y1="84.951" x2="85.249" y2="84.011" style="fill:none; stroke:#a7abae; stroke-linecap:round; stroke-miterlimit:10; stroke-width:.5px;"/><path d="m380.933,101.309c0-1.544-1.264-2.808-2.808-2.808h-103.071c-1.544,0-2.808,1.264-2.808,2.808v53.865c0,1.54,1.26,2.8,2.8,2.8h103.088c1.54,0,2.8-1.26,2.8-2.8v-53.865Z" style="fill:none; stroke:#a7abae; stroke-linecap:round; stroke-miterlimit:10;"/><path d="m134.829,130.516c-4.146-3.302-4.991-10.446-6.446-26.7-.682-7.616-.191-11.104,6.941-11.225,1.074-.018,6.002-.038,7.892-.059,1.755-.019,3.118-.024,4.233-.036" style="fill:none; stroke:#a7abae; stroke-linecap:round; stroke-miterlimit:10;"/><path d="m135.026,125.368c-1.766-3.733-2.393-10.082-3.425-21.059-.553-5.883-.173-8.271,6.066-8.373l7.411-.058" style="fill:none; stroke:#a7abae; stroke-linecap:round; stroke-miterlimit:10; stroke-width:.5px;"/><path d="m163.324,92.403c.102-.032.204-.064.303-.096" style="fill:none; stroke:#a7abae; stroke-linecap:round; stroke-miterlimit:10; stroke-width:.5px;"/><path d="m261.003,144.116c.699,1.516,1.472,3.325,2.406,5.485,7.02,16.233,6.504,15.647,24.188,15.885,10.073.136,16.599.283,38.993.28,22.394.003,28.92-.144,38.993-.28,17.684-.238,17.168.348,24.188-15.885,5.887-13.615,5.388-13.279,20.214-13.731l92.671-2.224c18.936-.862,19.631-1.799,22.14-29.83.682-7.616.191-11.104-6.941-11.225-27.479-.463-96.491-1.189-191.301-1.189-14.588,0-29.97.031-44.589.084-8.168.029-6.631.264-14.454-2.085-3.804-1.142-6.026-1.851-7.774-2.289" style="fill:none; stroke:#a7abae; stroke-linecap:round; stroke-miterlimit:10;"/><path d="m259.737,90.74c1.124.288,2.492.688,4.392,1.244.782.229,1.649.482,2.62.763,0,0,1.399.406,1.935.563,4.629,1.351,5.463,1.595,9.395,1.595.545,0,1.158-.004,1.864-.008.601-.004,1.27-.008,2.022-.011,15.164-.053,30.54-.08,44.466-.08,94.082,0,162.135.691,189.082,1.131,6.239.102,6.619,2.49,6.066,8.373-2.431,25.833-2.613,26.035-20.682,26.828l-91.131,2.15-1.022.03c-14.268.412-15.043.919-20.724,13.551-7.009,15.576-5.841,14.696-21.486,14.893-11.424.146-17.574.286-39.944.283-22.37.003-28.52-.137-39.944-.283-15.645-.197-14.476.683-21.486-14.893-1.327-2.95-2.386-5.239-3.412-7.02" style="fill:none; stroke:#a7abae; stroke-linecap:round; stroke-miterlimit:10; stroke-width:.5px;"/><path d="m380.933,109.216l9.064-.047c57.401-.297,106.521-.879,117.277-1.011,1.83-.023,2.088.314,1.588,2.075l-.017.061c-.96,3.382-.981,3.395-4.496,3.437-15.251.182-61.303.699-114.352.973l-9.064.047" style="fill:none; stroke:#a7abae; stroke-linecap:round; stroke-miterlimit:10; stroke-width:.5px;"/><path d="m259.737,112.927v-26.284c0-1.605-1.314-2.919-2.919-2.919h-15.517" style="fill:none; stroke:#a7abae; stroke-linecap:round; stroke-miterlimit:10;"/><path d="m272.246,114.748c-4.04-.018-8.048-.038-12.014-.06" style="fill:none; stroke:#a7abae; stroke-linecap:round; stroke-miterlimit:10; stroke-width:.5px;"/><path d="m163.628,113.9c-6.357-.069-11.406-.128-14.868-.169-.059,0-.116-.001-.173-.002" style="fill:none; stroke:#a7abae; stroke-linecap:round; stroke-miterlimit:10; stroke-width:.5px;"/><path d="m150.278,108.212c3.333.04,7.844.091,13.35.151" style="fill:none; stroke:#a7abae; stroke-linecap:round; stroke-miterlimit:10; stroke-width:.5px;"/><path d="m259.737,109.152c4.127.022,8.3.043,12.509.062" style="fill:none; stroke:#a7abae; stroke-linecap:round; stroke-miterlimit:10; stroke-width:.5px;"/><path d="m163.628,91.962v23.803c0,.559.159,1.083.435,1.529" style="fill:none; stroke:#a7abae; stroke-linecap:round; stroke-miterlimit:10;"/><line x1="224.827" y1="83.723" x2="172.5" y2="83.723" style="fill:none; stroke:#a7abae; stroke-linecap:round; stroke-miterlimit:10;"/><path d="m176.733,81.541h43.861" style="fill:none; stroke:#a7abae; stroke-linecap:round; stroke-miterlimit:10; stroke-width:.5px;"/><path d="m238.761,81.541h13.321c7.421,0,8.64.795,15.901,4.399,7.262,3.604,7.474,3.799,11.461,3.799,15.357,0,31.137-.078,47.11-.078,92.848,0,179.109.959,213.972,1.401.828.011.86.028,1.013.822" style="fill:none; stroke:#a7abae; stroke-linecap:round; stroke-miterlimit:10; stroke-width:.5px;"/><path d="m149.165,90.311c-1.457.267-3.223.39-5.648.39-13.777,0-24.472.128-30.932.229-.717.011-.826.028-.941.581" style="fill:none; stroke:#a7abae; stroke-linecap:round; stroke-miterlimit:10; stroke-width:.5px;"/><path d="m149.538,85.276c3.994-2.816,8.293-5.112,12.674-7.275.312-.146.54.344.223.487-4.415,2.027-8.429,4.849-12.897,6.788h0Z" style="fill:#a7abae; stroke-width:0px;"/><path d="m231.62,76.238c7.069.075,17.382-.162,24.349.121,6.236.266,11.669,3.508,17.166,6.062,1.828.881,3.643,1.792,5.383,2.855-1.925-.675-3.774-1.503-5.61-2.361-3.69-1.627-7.241-3.686-11.07-4.954-5.587-1.844-12.232-1.056-18.051-1.224,0,0-12.167,0-12.167,0-.311.006-.334-.506,0-.5h0Z" style="fill:#a7abae; stroke-width:0px;"/><path d="m263.721,150.322c-1.459-.028-2.902-.057-4.332-.086" style="fill:none; stroke:#a7abae; stroke-linecap:round; stroke-miterlimit:10; stroke-width:.5px;"/><path d="m248.989,150.021c-4.201-.09-8.264-.181-12.192-.273" style="fill:none; stroke:#a7abae; stroke-linecap:round; stroke-miterlimit:10; stroke-width:.5px;"/><path d="m171.334,147.813c-9.484-.354-17.042-.675-22.992-.939" style="fill:none; stroke:#a7abae; stroke-linecap:round; stroke-miterlimit:10; stroke-width:.5px;"/><path d="m136.85,146.355c-.541-.024-1.051-.046-1.531-.066-12.196-.509-23.571-3.776-25.486-20.189-1.916-16.413-2.235-27.028-2.315-30.947s.639-6.941,6.305-12.167c0,0,3.992-.226,11.738-.575,6.728-.303,5.601.053,11.342-3.468,6.454-3.959,5.103-3.536,12.668-3.845,5.733-.234,12.13-.478,19.172-.723" style="fill:none; stroke:#a7abae; stroke-linecap:round; stroke-miterlimit:10;"/><path d="m224.756,72.849c28.87-.59,62.965-1.005,101.798-1.005,81.189,0,141.67,1.811,176.983,3.255,7.565.309,6.213-.114,12.667,3.844,5.742,3.522,4.614,3.166,11.343,3.469,7.745.349,11.738.575,11.738.575,5.667,5.226,6.385,8.247,6.305,12.167s-.399,14.535-2.315,30.947c-1.916,16.413-13.288,19.854-25.484,20.364-13.031.545-48.04,2.476-128.413,4.044" style="fill:none; stroke:#a7abae; stroke-linecap:round; stroke-miterlimit:10;"/><path d="m147.868,75.164s-2.904-2.292-6.755-5.485c-14.138-11.726-12.051-8.936-19.05-25.918L105.116,2.64" style="fill:none; stroke:#a7abae; stroke-linecap:round; stroke-miterlimit:10; stroke-width:.5px;"/><polyline points="508.894 109.652 510.301 109.442 521.041 109.146 524.183 109.442" style="fill:none; stroke:#a7abae; stroke-linecap:round; stroke-miterlimit:10; stroke-width:.5px;"/><polyline points="508.014 112.714 509.476 112.543 520.631 112.303 523.748 112.566" style="fill:none; stroke:#a7abae; stroke-linecap:round; stroke-miterlimit:10; stroke-width:.5px;"/><path d="m109.225,116.815c-1.782,2.945-1.735,6.908-2.132,10.314-.625,7.185-.972,14.513-.666,21.694.261,3.627,2.843,6.355,5.702,8.365,2.961,2.013,6.059,3.998,9.082,5.994,4.593,2.87,8.993,6.221,13.958,8.403,5.143,1.752,10.789,1.007,16.154,1.315.138.002.249.115.247.253-.002.139-.118.251-.257.247-3.274-.165-7.697-.128-10.914-.326-3.721-.029-7.181-1.631-10.286-3.548-4.547-2.639-9.474-5.764-13.962-8.555-12.147-7.07-11.027-10.019-10.793-23.018.104-3.643.339-7.293.662-10.916.472-3.68.356-7.491,2.401-10.816.397-.532,1.214.04.804.595h0Z" style="fill:#a7abae; stroke-width:0px;"/><path d="m166.679,173.278l14.739.236c.086.001.155.072.154.158s-.072.155-.159.154l-14.74-.232c-.202,0-.202-.323.005-.316h0Z" style="fill:#a7abae; stroke-width:0px;"/><path d="m220.553,174.026l10.102.111c.2,0,.201.318-.003.312,0,0-10.102-.111-10.102-.111-.2,0-.201-.318.004-.312h0Z" style="fill:#a7abae; stroke-width:0px;"/><path d="m245.101,174.282s37.345.295,37.345.295c.192-.002.208.317-.003.312,0,0-37.345-.295-37.345-.295-.192.001-.208-.318.003-.312h0Z" style="fill:#a7abae; stroke-width:0px;"/><path d="m544.686,116.221c2.398,4.094,2.02,9.05,2.591,13.592.357,4.564.528,9.137.536,13.713-.057,2.33.136,4.617-.39,6.936-1.17,4.768-5.663,7.436-9.483,9.85,0,0-5.779,3.668-5.779,3.668-4.897,2.905-9.532,6.484-14.933,8.474-3.342.962-6.87.763-10.288.86-18.062-.086-117.389,2.085-137.188,1.424,20.407-1.159,118.686-1.511,137.171-2.05,4.528-.099,9.258.154,13.17-2.237,3.959-2.198,7.777-4.724,11.622-7.168l5.75-3.71c4.741-2.876,9.808-6.459,9.313-12.636.11-5.684-.061-11.378-.499-17.045-.535-4.334-.216-9.207-2.397-13.077-.416-.506.424-1.148.804-.594h0Z" style="fill:#a7abae; stroke-width:0px;"/><path d="m118.297,82.755c-5.92,4.929-6.918,7.897-6.943,11.507-.05,7.146.581,14.315,1.514,23.383,1.45,14.103,4.126,23.156,22.648,23.929.097.004.195.008.295.012" style="fill:none; stroke:#a7abae; stroke-linecap:round; stroke-miterlimit:10; stroke-width:.5px;"/><path d="m154.061,142.399c3.988.171,8.527.358,13.685.556" style="fill:none; stroke:#a7abae; stroke-linecap:round; stroke-miterlimit:10; stroke-width:.5px;"/><path d="m238.475,145.066c3.663.084,7.443.168,11.342.252" style="fill:none; stroke:#a7abae; stroke-linecap:round; stroke-miterlimit:10; stroke-width:.5px;"/><path d="m260.685,145.542c.322.006.645.013.969.019" style="fill:none; stroke:#a7abae; stroke-linecap:round; stroke-miterlimit:10; stroke-width:.5px;"/><path d="m129.521,94.493s-8.734.081-13.172.137c-1.221.015-1.314.11-1.304,1.331.048,5.93.575,12.019,1.494,20.731,1.406,13.333,3.611,19.327,18.604,20.07" style="fill:none; stroke:#a7abae; stroke-linecap:round; stroke-miterlimit:10; stroke-width:.5px;"/><path d="m119.328,94.571c.342,5.355.924,12.356,1.727,20.865,1.314,13.926,5.826,17.815,13.91,19.154" style="fill:none; stroke:#a7abae; stroke-linecap:round; stroke-miterlimit:10; stroke-width:.5px;"/><path d="m122.776,94.571c.327,5.12.884,11.813,1.651,19.948,1.091,11.563,4.488,15.889,10.426,17.665" style="fill:none; stroke:#a7abae; stroke-linecap:round; stroke-miterlimit:10; stroke-width:.5px;"/><path d="m523.587,94.493c2.554.019,7.195.053,13.195.136,1.2.017,1.29.109,1.281,1.309-.047,5.937-.574,12.03-1.494,20.753-1.423,13.488-3.662,19.465-19.13,20.094-1.705.069-3.789.162-6.302.273l-.182.008c-16.679.74-50.792,2.254-116.965,3.551" style="fill:none; stroke:#a7abae; stroke-linecap:round; stroke-miterlimit:10; stroke-width:.5px;"/><path d="m534.811,82.755c5.92,4.929,6.918,7.897,6.943,11.507.05,7.146-.581,14.315-1.514,23.383-1.45,14.103-4.126,23.156-22.648,23.929-1.743.073-3.881.17-6.47.288-16.956.772-51.7,2.354-119.598,3.698" style="fill:none; stroke:#a7abae; stroke-linecap:round; stroke-miterlimit:10; stroke-width:.5px;"/><path d="m113.824,82.987c-9.674-19.116-17.624-34.596-24.081-47.021L72.422,2.64" style="fill:none; stroke:#a7abae; stroke-linecap:round; stroke-miterlimit:10; stroke-width:.5px;"/><path d="m57.791,2.64c6.021,10.994,12.083,21.977,18.185,32.948,5.963,10.721,13.212,23.671,21.968,39.196,3.324,5.894,4.583,9.479,4.583,21.053L1.672,147.606" style="fill:none; stroke:#a7abae; stroke-linecap:round; stroke-miterlimit:10; stroke-width:.5px;"/><path d="m123.358,47.36c-.071-.174-.14-.344-.533-.344-.463,0-1.375.236-3.271.98-3.626,1.423-4.103,1.651-6.745,3.005-2.591,1.328-2.647,1.713-1.824,3.511.89,1.946,3.716,7.598,4.415,8.898.067.124.129.245.189.365.566,1.112,1.013,1.991,4.889,3.263,1.464.481,2.541.672,3.409.672,1.352,0,2.197-.465,3.214-1.024.238-.131.485-.267.748-.403,1.921-.99,2.281-2.003,1.483-4.166-.335-.906-1.756-4.434-4.109-10.201l-1.865-4.556Z" style="fill:none; stroke:#a7abae; stroke-linecap:round; stroke-linejoin:round; stroke-width:.5px;"/><path d="m289.439,255.58v-64.408c0-5.16-.133-8.71-.9-11.151" style="fill:none; stroke:#a7abae; stroke-linecap:round; stroke-miterlimit:10; stroke-width:.5px;"/><path d="m363.739,253.483v-62.311c0-5.16.133-8.71.9-11.151" style="fill:none; stroke:#a7abae; stroke-linecap:round; stroke-miterlimit:10; stroke-width:.5px;"/><path d="m119.608,98.61h-1.289c-.273,0-.639-.072-.818-.161l-1.633-.813c-.179-.089-.102-.161.171-.161h3.486" style="fill:none; stroke:#a7abae; stroke-linecap:round; stroke-miterlimit:10; stroke-width:.5px;"/><path d="m120.077,104.523h-1.431c-.273,0-.639-.069-.818-.155l-1.633-.783c-.179-.086-.102-.155.171-.155h3.621" style="fill:none; stroke:#a7abae; stroke-linecap:round; stroke-miterlimit:10; stroke-width:.5px;"/><path d="m120.546,109.914h-1.519c-.273,0-.639-.067-.818-.149l-1.633-.752c-.179-.082-.102-.149.171-.149h3.705" style="fill:none; stroke:#a7abae; stroke-linecap:round; stroke-miterlimit:10; stroke-width:.5px;"/><path d="m121.005,114.907h-1.504c-.273,0-.639-.064-.818-.143l-1.633-.721c-.179-.079-.102-.143.171-.143h3.69" style="fill:none; stroke:#a7abae; stroke-linecap:round; stroke-miterlimit:10; stroke-width:.5px;"/><path d="m121.597,119.627h-1.49c-.273,0-.639-.061-.818-.137l-1.633-.69c-.179-.076-.102-.137.171-.137h3.616" style="fill:none; stroke:#a7abae; stroke-linecap:round; stroke-miterlimit:10; stroke-width:.5px;"/><path d="m122.673,124.2h-1.79c-.273,0-.639-.058-.818-.131l-1.633-.659c-.179-.072-.102-.131.171-.131h3.797" style="fill:none; stroke:#a7abae; stroke-linecap:round; stroke-miterlimit:10; stroke-width:.5px;"/><path d="m128.19,98.61h-2.267c-.273,0-.641-.072-.821-.161l-1.647-.813c-.18-.089-.105-.161.168-.161h4.683" style="fill:none; stroke:#a7abae; stroke-linecap:round; stroke-miterlimit:10; stroke-width:.5px;"/><path d="m128.446,104.523h-2.09c-.273,0-.641-.069-.821-.155l-1.647-.783c-.18-.086-.105-.155.168-.155h4.292" style="fill:none; stroke:#a7abae; stroke-linecap:round; stroke-miterlimit:10; stroke-width:.5px;"/><path d="m128.948,109.914h-2.113c-.273,0-.641-.067-.821-.149l-1.646-.752c-.18-.082-.105-.149.168-.149h4.311" style="fill:none; stroke:#a7abae; stroke-linecap:round; stroke-miterlimit:10; stroke-width:.5px;"/><path d="m129.483,114.907h-2.084c-.273,0-.641-.064-.821-.143l-1.646-.721c-.18-.079-.105-.143.168-.143h4.265" style="fill:none; stroke:#a7abae; stroke-linecap:round; stroke-miterlimit:10; stroke-width:.5px;"/><path d="m130.143,119.627h-2.054c-.273,0-.641-.061-.821-.137l-1.645-.69c-.18-.076-.105-.137.168-.137h4.197" style="fill:none; stroke:#a7abae; stroke-linecap:round; stroke-miterlimit:10; stroke-width:.5px;"/><path d="m131.138,124.2h-2.191c-.273,0-.641-.058-.821-.131l-1.645-.659c-.18-.072-.105-.131.168-.131h4.24" style="fill:none; stroke:#a7abae; stroke-linecap:round; stroke-miterlimit:10; stroke-width:.5px;"/><line x1="115.216" y1="94.87" x2="111.843" y2="91.049" style="fill:none; stroke:#a7abae; stroke-linecap:round; stroke-miterlimit:10; stroke-width:.5px;"/><line x1="537.891" y1="94.87" x2="541.185" y2="91.121" style="fill:none; stroke:#a7abae; stroke-linecap:round; stroke-miterlimit:10; stroke-width:.5px;"/><path d="m157.376,255.799c1.288-2.909,2.303-5.907,2.861-9.023l10.49-58.623c1.238-6.918,1.108-5.454,1.108-12.481v-2.152,2.152c0,.384,0,.742.001,1.078" style="fill:none; stroke:#a7abae; stroke-linecap:round; stroke-miterlimit:10; stroke-width:.5px;"/><path d="m102.527,95.836c2.493.449,3.182.531,5.005-.047" style="fill:none; stroke:#a7abae; stroke-linecap:round; stroke-miterlimit:10; stroke-width:.5px;"/><path d="m505.239,75.164s2.904-2.292,6.755-5.485c14.138-11.726,12.051-8.936,19.05-25.918l16.948-41.12" style="fill:none; stroke:#a7abae; stroke-linecap:round; stroke-miterlimit:10; stroke-width:.5px;"/><path d="m539.283,82.987c9.674-19.116,17.624-34.596,24.081-47.021l17.32-33.326" style="fill:none; stroke:#a7abae; stroke-linecap:round; stroke-miterlimit:10; stroke-width:.5px;"/><path d="m595.316,2.64c-6.021,10.994-12.083,21.977-18.185,32.948-5.963,10.721-13.212,23.671-21.968,39.196-3.324,5.894-4.583,9.479-4.583,21.053l101.845,52.278" style="fill:none; stroke:#a7abae; stroke-linecap:round; stroke-miterlimit:10; stroke-width:.5px;"/><path d="m529.749,47.36c.071-.174.14-.344.533-.344.463,0,1.375.236,3.271.98,3.626,1.423,4.103,1.651,6.745,3.005,2.591,1.328,2.647,1.713,1.824,3.511-.89,1.946-3.716,7.598-4.415,8.898-.067.124-.129.245-.189.365-.566,1.112-1.013,1.991-4.889,3.263-1.464.481-2.541.672-3.409.672-1.352,0-2.197-.465-3.214-1.024-.238-.131-.485-.267-.748-.403-1.921-.99-2.281-2.003-1.483-4.166.335-.906,1.756-4.434,4.109-10.201l1.865-4.556Z" style="fill:none; stroke:#a7abae; stroke-linecap:round; stroke-linejoin:round; stroke-width:.5px;"/><path d="m550.58,95.836c-2.493.449-3.182.531-5.005-.047" style="fill:none; stroke:#a7abae; stroke-linecap:round; stroke-miterlimit:10; stroke-width:.5px;"/><path d="m539.425,158.842s-58.829,2.647-156.187,3.378" style="fill:none; stroke:#a7abae; stroke-linecap:round; stroke-miterlimit:10; stroke-width:.5px;"/><path d="m113.682,158.842s9.927.447,28.373,1.024" style="fill:none; stroke:#a7abae; stroke-linecap:round; stroke-miterlimit:10; stroke-width:.5px;"/><path d="m154.438,160.234c7.869.222,16.803.453,26.737.677" style="fill:none; stroke:#a7abae; stroke-linecap:round; stroke-miterlimit:10; stroke-width:.5px;"/><path d="m224.696,161.719c5.806.086,11.812.166,18.012.239" style="fill:none; stroke:#a7abae; stroke-linecap:round; stroke-miterlimit:10; stroke-width:.5px;"/><path d="m254.222,162.084c5.121.051,10.362.097,15.719.137" style="fill:none; stroke:#a7abae; stroke-linecap:round; stroke-miterlimit:10; stroke-width:.5px;"/><line x1="132.093" y1="126.848" x2="127.715" y2="126.848" style="fill:none; stroke:#a7abae; stroke-linecap:round; stroke-miterlimit:10; stroke-width:.5px;"/><polyline points="123.699 126.848 118.371 126.848 119.089 128.699" style="fill:none; stroke:#a7abae; stroke-linecap:round; stroke-miterlimit:10; stroke-width:.5px;"/><path d="m533.779,94.571c-.342,5.355-.924,12.356-1.727,20.865-1.805,19.14-9.653,19.32-24.511,19.979-11.563.513-68.704,2.044-101.221,2.898l-10.766.283" style="fill:none; stroke:#a7abae; stroke-linecap:round; stroke-miterlimit:10; stroke-width:.5px;"/><path d="m530.331,94.571c-.327,5.12-.884,11.813-1.651,19.948-1.726,18.299-9.229,18.471-23.434,19.102l-12.622.295-82.641,1.954" style="fill:none; stroke:#a7abae; stroke-linecap:round; stroke-miterlimit:10; stroke-width:.5px;"/><path d="m533.499,98.61h1.289c.273,0,.639-.072.818-.161l1.633-.813c.179-.089.102-.161-.171-.161h-3.486" style="fill:none; stroke:#a7abae; stroke-linecap:round; stroke-miterlimit:10; stroke-width:.5px;"/><path d="m533.03,104.523h1.431c.273,0,.639-.069.818-.155l1.633-.783c.179-.086.102-.155-.171-.155h-3.621" style="fill:none; stroke:#a7abae; stroke-linecap:round; stroke-miterlimit:10; stroke-width:.5px;"/><path d="m532.561,109.914h1.519c.273,0,.639-.067.818-.149l1.633-.752c.179-.082.102-.149-.171-.149h-3.705" style="fill:none; stroke:#a7abae; stroke-linecap:round; stroke-miterlimit:10; stroke-width:.5px;"/><path d="m532.102,114.907h1.504c.273,0,.639-.064.818-.143l1.633-.721c.179-.079.102-.143-.171-.143h-3.69" style="fill:none; stroke:#a7abae; stroke-linecap:round; stroke-miterlimit:10; stroke-width:.5px;"/><path d="m531.51,119.627h1.49c.273,0,.639-.061.818-.137l1.633-.69c.179-.076.102-.137-.171-.137h-3.616" style="fill:none; stroke:#a7abae; stroke-linecap:round; stroke-miterlimit:10; stroke-width:.5px;"/><path d="m530.435,124.2h1.79c.273,0,.639-.058.818-.131l1.633-.659c.179-.072.102-.131-.171-.131h-3.797" style="fill:none; stroke:#a7abae; stroke-linecap:round; stroke-miterlimit:10; stroke-width:.5px;"/><path d="m524.917,98.61h2.267c.273,0,.641-.072.821-.161l1.647-.813c.18-.089.105-.161-.168-.161h-4.683" style="fill:none; stroke:#a7abae; stroke-linecap:round; stroke-miterlimit:10; stroke-width:.5px;"/><path d="m524.661,104.523h2.09c.273,0,.641-.069.821-.155l1.647-.783c.18-.086.105-.155-.168-.155h-4.292" style="fill:none; stroke:#a7abae; stroke-linecap:round; stroke-miterlimit:10; stroke-width:.5px;"/><path d="m524.159,109.914h2.113c.273,0,.641-.067.821-.149l1.646-.752c.18-.082.105-.149-.168-.149h-4.311" style="fill:none; stroke:#a7abae; stroke-linecap:round; stroke-miterlimit:10; stroke-width:.5px;"/><path d="m523.624,114.907h2.084c.273,0,.641-.064.821-.143l1.646-.721c.18-.079.105-.143-.168-.143h-4.265" style="fill:none; stroke:#a7abae; stroke-linecap:round; stroke-miterlimit:10; stroke-width:.5px;"/><path d="m522.964,119.627h2.054c.273,0,.641-.061.821-.137l1.645-.69c.18-.076.105-.137-.168-.137h-4.197" style="fill:none; stroke:#a7abae; stroke-linecap:round; stroke-miterlimit:10; stroke-width:.5px;"/><path d="m521.969,124.2h2.191c.273,0,.641-.058.821-.131l1.645-.659c.18-.072.105-.131-.168-.131h-4.24" style="fill:none; stroke:#a7abae; stroke-linecap:round; stroke-miterlimit:10; stroke-width:.5px;"/><line x1="521.015" y1="126.848" x2="525.392" y2="126.848" style="fill:none; stroke:#a7abae; stroke-linecap:round; stroke-miterlimit:10; stroke-width:.5px;"/><polyline points="529.408 126.848 534.736 126.848 534.018 128.699" style="fill:none; stroke:#a7abae; stroke-linecap:round; stroke-miterlimit:10; stroke-width:.5px;"/><path d="m54.26,2.64c5.987,10.997,12.026,21.98,18.116,32.948,4.934,8.886,10.178,18.258,15.289,27.267-.172,5.232-.767,24.42-.726,38.459L1.672,144.507" style="fill:none; stroke:#a7abae; stroke-linecap:round; stroke-miterlimit:10; stroke-width:.5px;"/><path d="m90.809,99.353c-.022-10,.3-22.739.517-30.118,1.992,3.504,1.541,2.891,4.472,8.02,2.817,4.929,3.883,7.926,3.883,17.603l-8.872,4.494Z" style="fill:none; stroke:#a7abae; stroke-linecap:round; stroke-miterlimit:10; stroke-width:.5px;"/><line x1="553.503" y1="90.854" x2="562.195" y2="87.02" style="fill:none; stroke:#a7abae; stroke-linecap:round; stroke-miterlimit:10; stroke-width:.5px;"/><path d="m598.848,2.64c-5.987,10.997-12.026,21.98-18.116,32.948-4.934,8.886-10.178,18.258-15.289,27.267.172,5.232.767,24.42.726,38.459l86.256,43.695" style="fill:none; stroke:#a7abae; stroke-linecap:round; stroke-miterlimit:10; stroke-width:.5px;"/><path d="m562.298,99.353c.022-10-.3-22.739-.517-30.118-1.992,3.504-1.541,2.891-4.472,8.02-2.817,4.929-3.883,7.926-3.883,17.603l8.872,4.494Z" style="fill:none; stroke:#a7abae; stroke-linecap:round; stroke-miterlimit:10; stroke-width:.5px;"/><path d="m326.553,74.626c7.253,0,14.79.018,22.518.05,7.359.031,17.865-2.365,26.099-2.365" style="fill:none; stroke:#a7abae; stroke-linecap:round; stroke-miterlimit:10; stroke-width:.5px;"/><path d="m326.553,74.626c-7.253,0-14.79.018-22.518.05-7.359.031-17.865-2.365-26.099-2.365" style="fill:none; stroke:#a7abae; stroke-linecap:round; stroke-miterlimit:10; stroke-width:.5px;"/><path d="m369.824,165.43c-3.765,6.812-6.046,10.301-9.5,11.709-4.627,1.887-19.433,1.701-32.885,1.69h-1.675c-13.64.005-28.389.192-33.005-1.69-3.453-1.408-5.735-4.898-9.5-11.711" style="fill:none; stroke:#a7abae; stroke-linecap:round; stroke-miterlimit:10;"/><path d="m376.059,165.372c-2.29,4.246-4.416,8.636-7.736,12.227-6.81,7.24-18.573,5.845-27.657,6.22-7.171-.01-21.605-.006-28.775-.003-7.175-.182-14.641.24-21.541-2.203-4.693-1.695-8.003-5.772-10.448-9.927-1.249-2.067-2.379-4.189-3.496-6.314-.101-.191-.027-.428.165-.529.188-.099.421-.026.525.157,3.517,6.012,6.761,13.077,13.615,15.68,6.743,2.374,14.1,1.955,21.185,2.136,0,0,14.383-.005,14.383-.005,8.415-.092,20.444.319,28.697-.549,11.779-.851,15.205-7.945,20.427-17.244.1-.18.326-.245.507-.146.178.098.243.321.15.5h0Z" style="fill:#a7abae; stroke-width:0px;"/><path d="m325.764,170.967h-35.693c-.681,0-.586-.036-1.11.418-.671.581-.631.492-.631,1.403v.003c0,.885-.042.779.556,1.406.601.631.499.587,1.351.587h36.121s36.486,0,36.486,0c.851,0,.75.044,1.351-.587.598-.627.556-.521.556-1.406v-.003c0-.911.04-.822-.631-1.403-.524-.454-.43-.418-1.11-.418h-35.569s-1.675,0-1.675,0Z" style="fill:none; stroke:#a7abae; stroke-linecap:round; stroke-miterlimit:10; stroke-width:.5px;"/><path d="m291.776,165.863c-.963,0-1.038.537-1.038,1.779v1.986c0,1.242.075,1.339,1.038,1.339l.211-.095c1.334-.599,1.306-.555,1.306-2.017v-1.028c0-1.409-.108-1.957-1.517-1.964Z" style="fill:none; stroke:#a7abae; stroke-linecap:round; stroke-miterlimit:10; stroke-width:.5px;"/><path d="m296.998,166.052c-.819,0-.883.533-.884,1.725l-.002,1.906c-.001,1.191.063,1.285.882,1.285l.18-.091c1.135-.575,1.111-.532,1.112-1.936v-.986c.002-1.352-.09-1.896-1.288-1.903Z" style="fill:none; stroke:#a7abae; stroke-linecap:round; stroke-miterlimit:10; stroke-width:.5px;"/><path d="m302.176,165.98c-.676,0-.729.535-.729,1.745v1.937c0,1.211.053,1.305.729,1.305l.148-.092c.936-.584.916-.541.916-1.967v-1.002c0-1.373-.076-1.919-1.065-1.926Z" style="fill:none; stroke:#a7abae; stroke-linecap:round; stroke-miterlimit:10; stroke-width:.5px;"/><path d="m307.274,166.033c-.535,0-.576.534-.572,1.73l.006,1.914c.004,1.196.046,1.29.581,1.29l.117-.091c.739-.577.723-.535.719-1.944l-.003-.99c-.004-1.357-.065-1.902-.847-1.909Z" style="fill:none; stroke:#a7abae; stroke-linecap:round; stroke-miterlimit:10; stroke-width:.5px;"/><path d="m312.422,166.022c-.393,0-.424.534-.424,1.733v1.919c0,1.199.031,1.293.424,1.293l.086-.091c.545-.578.533-.536.533-1.948v-.993c0-1.361-.044-1.906-.619-1.912Z" style="fill:none; stroke:#a7abae; stroke-linecap:round; stroke-miterlimit:10; stroke-width:.5px;"/><path d="m317.999,166.027c.362.007.39.551.39,1.911v.992c0,1.411.007,1.369-.336,1.946l-.054.091h-.316c-.248,0-.267-.094-.267-1.292v-1.917c0-1.198.019-1.732.267-1.732h.316Z" style="fill:none; stroke:#a7abae; stroke-linecap:round; stroke-miterlimit:10; stroke-width:.5px;"/><path d="m323.013,166.026c.173.007.186.551.186,1.911v.992c0,1.411.003,1.369-.16,1.947l-.026.091h-.632c-.118,0-.127-.094-.127-1.292v-1.917c0-1.198.009-1.732.127-1.732h.632Z" style="fill:none; stroke:#a7abae; stroke-linecap:round; stroke-miterlimit:10; stroke-width:.5px;"/><path d="m361.539,165.863c.963,0,1.038.537,1.038,1.779v1.986c0,1.242-.075,1.339-1.038,1.339l-.211-.095c-1.334-.599-1.306-.555-1.306-2.017v-1.028c0-1.409.108-1.957,1.517-1.964Z" style="fill:none; stroke:#a7abae; stroke-linecap:round; stroke-miterlimit:10; stroke-width:.5px;"/><path d="m356.318,166.052c.819,0,.883.533.884,1.725l.002,1.906c.001,1.191-.063,1.285-.882,1.285l-.18-.091c-1.135-.575-1.111-.532-1.112-1.936v-.986c-.002-1.352.09-1.896,1.288-1.903Z" style="fill:none; stroke:#a7abae; stroke-linecap:round; stroke-miterlimit:10; stroke-width:.5px;"/><path d="m351.139,165.98c.676,0,.729.535.729,1.745v1.937c0,1.211-.053,1.305-.729,1.305l-.148-.092c-.936-.584-.916-.541-.916-1.967v-1.002c0-1.373.076-1.919,1.065-1.926Z" style="fill:none; stroke:#a7abae; stroke-linecap:round; stroke-miterlimit:10; stroke-width:.5px;"/><path d="m346.041,166.033c.535,0,.576.534.572,1.73l-.006,1.914c-.004,1.196-.046,1.29-.581,1.29l-.117-.091c-.739-.577-.723-.535-.719-1.944l.003-.99c.004-1.357.065-1.902.847-1.909Z" style="fill:none; stroke:#a7abae; stroke-linecap:round; stroke-miterlimit:10; stroke-width:.5px;"/><path d="m340.893,166.022c.393,0,.424.534.424,1.733v1.919c0,1.199-.031,1.293-.424,1.293l-.086-.091c-.545-.578-.533-.536-.533-1.948v-.993c0-1.361.044-1.906.619-1.912Z" style="fill:none; stroke:#a7abae; stroke-linecap:round; stroke-miterlimit:10; stroke-width:.5px;"/><path d="m335.317,166.027c-.362.007-.39.551-.39,1.911v.992c0,1.411-.007,1.369.336,1.946l.054.091h.316c.248,0,.267-.094.267-1.292v-1.917c0-1.198-.019-1.732-.267-1.732h-.316Z" style="fill:none; stroke:#a7abae; stroke-linecap:round; stroke-miterlimit:10; stroke-width:.5px;"/><path d="m330.302,166.026c-.173.007-.186.551-.186,1.911v.992c0,1.411-.003,1.369.16,1.947l.026.091h.632c.118,0,.127-.094.127-1.292v-1.917c0-1.198-.009-1.732-.127-1.732h-.632Z" style="fill:none; stroke:#a7abae; stroke-linecap:round; stroke-miterlimit:10; stroke-width:.5px;"/><path d="m293.293,177.342c0-.081,0-.169,0-.263v-.924c0-1.267-.108-1.364-1.517-1.37-.962,0-1.038.087-1.038,1.199" style="fill:none; stroke:#a7abae; stroke-linecap:round; stroke-miterlimit:10; stroke-width:.5px;"/><path d="m297.971,178.322c.324-.234.313-.499.314-1.336v-.887c.002-1.215-.09-1.309-1.288-1.315-.819,0-.883.084-.884,1.155l-.002,1.714c0,.154.001.287.006.403" style="fill:none; stroke:#a7abae; stroke-linecap:round; stroke-miterlimit:10; stroke-width:.5px;"/><path d="m302.555,178.565c.703-.399.686-.472.686-1.639v-.806c0-1.235-.076-1.33-1.065-1.336-.676,0-.729.085-.729,1.173v1.646c0,.459.009.739.071.91" style="fill:none; stroke:#a7abae; stroke-linecap:round; stroke-miterlimit:10; stroke-width:.5px;"/><path d="m307.274,174.784c-.535,0-.576.084-.572,1.16l.006,1.626c.004,1.076.046,1.16.581,1.16l.117-.082c.739-.519.723-.481.719-1.747l-.003-.796c-.004-1.22-.065-1.314-.847-1.32Z" style="fill:none; stroke:#a7abae; stroke-linecap:round; stroke-miterlimit:10; stroke-width:.5px;"/><path d="m312.422,174.784c-.393,0-.424.084-.424,1.163v1.725c0,1.078.031,1.163.424,1.163l.086-.082c.545-.52.533-.482.533-1.752v-.893c0-1.223-.044-1.318-.619-1.324Z" style="fill:none; stroke:#a7abae; stroke-linecap:round; stroke-miterlimit:10; stroke-width:.5px;"/><path d="m317.999,174.784c.362.006.39.1.39,1.322v.892c0,1.269.007,1.23-.336,1.75l-.054.082h-.316c-.248,0-.267-.084-.267-1.161v-1.723c0-1.077.019-1.161.267-1.161h.316Z" style="fill:none; stroke:#a7abae; stroke-linecap:round; stroke-miterlimit:10; stroke-width:.5px;"/><path d="m323.013,174.784c.173.006.186.1.186,1.322v.892c0,1.269.003,1.231-.16,1.75l-.026.082h-.632c-.118,0-.127-.084-.127-1.162v-1.724c0-1.077.009-1.162.127-1.162h.632Z" style="fill:none; stroke:#a7abae; stroke-linecap:round; stroke-miterlimit:10; stroke-width:.5px;"/><path d="m360.022,177.257c0-.057,0-.116,0-.179v-.924c0-1.267.108-1.364,1.517-1.37.907,0,1.027.078,1.038,1.02" style="fill:none; stroke:#a7abae; stroke-linecap:round; stroke-miterlimit:10; stroke-width:.5px;"/><path d="m355.312,178.203c-.291-.229-.281-.504-.282-1.312v-.792c-.002-1.215.09-1.309,1.288-1.315.819,0,.883.084.884,1.155l.002,1.619c0,.135,0,.254-.004.36" style="fill:none; stroke:#a7abae; stroke-linecap:round; stroke-miterlimit:10; stroke-width:.5px;"/><path d="m350.747,178.557c-.688-.392-.672-.472-.672-1.631v-.806c0-1.235.076-1.33,1.065-1.336.676,0,.729.085.729,1.173v1.646c0,.448-.009.726-.067.898" style="fill:none; stroke:#a7abae; stroke-linecap:round; stroke-miterlimit:10; stroke-width:.5px;"/><path d="m346.041,174.784c.535,0,.576.084.572,1.16l-.006,1.626c-.004,1.076-.046,1.16-.581,1.16l-.117-.082c-.739-.519-.723-.481-.719-1.747l.003-.796c.004-1.22.065-1.314.847-1.32Z" style="fill:none; stroke:#a7abae; stroke-linecap:round; stroke-miterlimit:10; stroke-width:.5px;"/><path d="m340.893,174.784c.393,0,.424.084.424,1.163v1.63c0,1.078-.031,1.163-.424,1.163l-.086-.082c-.545-.52-.533-.482-.533-1.752v-.798c0-1.223.044-1.318.619-1.324Z" style="fill:none; stroke:#a7abae; stroke-linecap:round; stroke-miterlimit:10; stroke-width:.5px;"/><path d="m335.317,174.784c-.362.006-.39.1-.39,1.322v.892c0,1.269-.007,1.23.336,1.75l.054.082h.316c.248,0,.267-.084.267-1.161v-1.723c0-1.077-.019-1.161-.267-1.161h-.316Z" style="fill:none; stroke:#a7abae; stroke-linecap:round; stroke-miterlimit:10; stroke-width:.5px;"/><path d="m330.302,174.784c-.173.006-.186.1-.186,1.322v.892c0,1.269-.003,1.231.16,1.75l.026.082h.632c.118,0,.127-.084.127-1.162v-1.724c0-1.077-.009-1.162-.127-1.162h-.632Z" style="fill:none; stroke:#a7abae; stroke-linecap:round; stroke-miterlimit:10; stroke-width:.5px;"/><line x1="325.764" y1="170.897" x2="325.764" y2="165.765" style="fill:none; stroke:#a7abae; stroke-linecap:round; stroke-miterlimit:10; stroke-width:.5px;"/><line x1="327.439" y1="165.765" x2="327.439" y2="170.967" style="fill:none; stroke:#a7abae; stroke-linecap:round; stroke-miterlimit:10; stroke-width:.5px;"/><line x1="327.439" y1="174.784" x2="327.439" y2="178.83" style="fill:none; stroke:#a7abae; stroke-linecap:round; stroke-miterlimit:10; stroke-width:.5px;"/><line x1="325.764" y1="178.829" x2="325.764" y2="174.787" style="fill:none; stroke:#a7abae; stroke-linecap:round; stroke-miterlimit:10; stroke-width:.5px;"/><path d="m512.346,76.968s-18.489-.577-20.631-.748c-1.643-.131-3.122.148-3.903.678s-1.421.992-.474,1.646,1.48.672,3.934.764,12.222.476,12.222.476l15.033.591" style="fill:none; stroke:#a7abae; stroke-linecap:round; stroke-linejoin:round; stroke-width:.5px;"/><path d="m140.761,76.968s18.489-.577,20.631-.748c1.34-.107,2.571.059,3.403.412" style="fill:none; stroke:#a7abae; stroke-linecap:round; stroke-linejoin:round; stroke-width:.5px;"/><path d="m160.033,79.377c-3.691.143-10.419.407-10.419.407l-15.033.591" style="fill:none; stroke:#a7abae; stroke-linecap:round; stroke-linejoin:round; stroke-width:.5px;"/><path d="m230.084,152.161c5.73-.5,8.342-1.742,8.554-9.456" style="fill:none; stroke:#a7abae; stroke-linecap:round; stroke-linejoin:round; stroke-width:.5px;"/><line x1="587.035" y1="106.539" x2="581.208" y2="108.932" style="fill:none; stroke:#a7abae; stroke-linecap:round; stroke-miterlimit:10; stroke-width:.5px;"/><line x1="566.013" y1="84.951" x2="567.858" y2="84.011" style="fill:none; stroke:#a7abae; stroke-linecap:round; stroke-miterlimit:10; stroke-width:.5px;"/><path d="m8.227,177.136c3.95-5.216,8.346-10.05,18.337-16.226,14.523-8.977,43.65-25.506,55.876-32.237,10.185-5.608,16.143-8.641,16.143,3.765,0,20.891-1.773,42.855-2.343,49.367" style="fill:none; stroke:#a7abae; stroke-linecap:round; stroke-miterlimit:10; stroke-width:.5px;"/><path d="m1.871,181.182c5.399-8.639,8.961-14.422,23.441-23.291,14.48-8.869,45.165-26.221,57.611-33.011,14.677-8.007,16.81-5.638,16.81,5.548,0,25.107-2.545,51.404-2.545,51.404-2.725-.278-6.738.665-9.828,3.178" style="fill:none; stroke:#a7abae; stroke-linecap:round; stroke-miterlimit:10; stroke-width:.75px;"/><path d="m40.082,255.525c6.437-6.165,19.43-18.484,25.915-24.592,1.492-1.536,3.458-2.808,4.094-4.873.234-1.254.194-2.94-.067-4.208-.665-2.047-2.88-3.098-4.41-4.538,0,0-6.918-5.651-6.918-5.651l-3.459-2.826c-.928-.698-2.384-2.016-.967-3.032.316-.239.642-.429.99-.588-.332.443-1.104,1.105-.966,1.64.193.457.873.937,1.419,1.395l3.478,2.802c2.441,2.064,8.126,6.391,10.418,8.496,1.23,1.043,1.565,2.873,1.52,4.396.137,1.501-.203,3.31-1.275,4.472-7.788,7.836-21.223,20.022-29.26,27.656-.151.141-.389.133-.53-.018-.141-.15-.13-.389.018-.531h0Z" style="fill:#a7abae; stroke-width:0px;"/><path d="m97.264,181.148c2.681.304,6.48.813,9.985,1.564,4.61.988,6.056.995,5.669,8.279-.63,11.879-3.06,32.666-3.06,32.666-.72,6.479-1.22,10.217-5.36,15.167-1.644,1.966-6.701,8.21-13.982,16.975" style="fill:none; stroke:#a7abae; stroke-linecap:round; stroke-miterlimit:10; stroke-width:.75px;"/><path d="m112.942,187.76c.031,1.702-.564,2.601-4.073,6.56-17.228,19.437-44.518,46.15-60.477,61.479" style="fill:none; stroke:#a7abae; stroke-linecap:round; stroke-miterlimit:10; stroke-width:.5px;"/><path d="m109.859,223.657c-.143,1.269-.765,2.07-2.655,4.432-1.89,2.362-17.21,19.91-19.033,22.07s-3.405,3.181-5.399-.54c-4.3-8.022-9.802-17.834-9.802-17.834" style="fill:none; stroke:#a7abae; stroke-linecap:round; stroke-miterlimit:10; stroke-width:.5px;"/><path d="m109.319,227.063c-.216,1.906-1.121,3.038-3.107,5.52-1.23,1.538-5.139,5.926-10.408,11.997-2.875,3.313-5.359,6.175-6.011,6.947-.752.892-2.272,2.693-4.361,2.693-.125,0-.253-.006-.382-.02-2.12-.222-3.384-2.149-4.15-3.579-2.1-3.919-4.506-8.298-6.407-11.732-1.384-2.5-2.02-2.591-4.053-.583-6.553,6.471-12.741,12.481-17.947,17.493" style="fill:none; stroke:#a7abae; stroke-linecap:round; stroke-miterlimit:10; stroke-width:.5px;"/><path d="m112.725,194.144c-.065.887-.335,1.557-2.562,3.987-.405.442-1.57,1.667-3.221,3.393-1.518,1.585-2.786,2.749-3.326,7.473,0,0-1.601,15.34-2.041,19.561-.324,3.103.715,2.314,1.894,1.006l2.938-3.258c2.16-2.362,3.682-4.773,4.079-8.561" style="fill:none; stroke:#a7abae; stroke-linecap:round; stroke-miterlimit:10; stroke-width:.5px;"/><path d="m111.154,200.979c-.043.591-.223,1.038-1.707,2.656-.27.294-1.046,1.111-2.146,2.261-1.011,1.056-1.856,1.832-2.216,4.979,0,0-1.066,10.221-1.36,13.033-.216,2.068.476,1.509,1.262.652" style="fill:none; stroke:#a7abae; stroke-linecap:round; stroke-miterlimit:10; stroke-width:.5px;"/><path d="m103.823,222.966l1.754-1.913c1.514-1.629,2.582-3.366,2.861-6.022l1.089-11.483" style="fill:none; stroke:#a7abae; stroke-linecap:round; stroke-miterlimit:10; stroke-width:.5px;"/><path d="m98.19,232.9c-2.831,3.834-7.612,8.763-10.782,12.398-3.208,3.929-4.346.761-5.871-2.318,0,0-1.836-3.674-1.836-3.674l-.918-1.837c-1.109-1.833-1.164-4.268-.235-6.192.56-1.304,1.607-2.312,2.571-3.299,0,0,5.708-5.908,5.708-5.908l5.708-5.908c1.899-1.973,3.813-3.932,5.874-5.748-1.732,2.133-3.61,4.124-5.504,6.101l-5.671,5.941-5.671,5.941c-.93.972-1.908,1.896-2.438,3.144-.84,1.823-.775,3.897.242,5.639,0,0,.91,1.841.91,1.841l1.82,3.682c1.388,2.504,1.973,5.816,4.872,2.202,3.286-3.563,7.7-8.756,11.22-12.003h0Z" style="fill:#a7abae; stroke-width:0px;"/><path d="m91.906,201.25c.63-.585.27-.81-1.395-.81h-11.969c-.675,0-2.025-.135-3.375,1.035-.816.707-6.326,5.64-13.51,12.086" style="fill:none; stroke:#a7abae; stroke-linecap:round; stroke-miterlimit:10; stroke-width:.5px;"/><path d="m70.264,221.185c2.392-2.203,21.052-19.388,21.642-19.936.63-.585.27-.81-1.395-.81" style="fill:none; stroke:#a7abae; stroke-linecap:round; stroke-miterlimit:10; stroke-width:.5px;"/><path d="m76.601,202.335l-.574,13.788c-.006.138-.122.245-.26.239-.141-.006-.25-.129-.239-.269l1.073-13.758h0Z" style="fill:#a7abae; stroke-width:0px;"/><path d="m97.189,181.961c14.159,1.906,14.985,2.235,11.044,6.601-3.072,3.404-39.833,40.96-39.833,40.96" style="fill:none; stroke:#a7abae; stroke-linecap:round; stroke-miterlimit:10; stroke-width:.5px;"/><path d="m104.691,214.647s.394,1.569,3.464,1.966" style="fill:none; stroke:#a7abae; stroke-linecap:round; stroke-miterlimit:10; stroke-width:.5px;"/><path d="m1.672,188.423c17.113-11.625,62.027-41.841,87.595-54.109l.214-.103c3.357-1.611,4.696-1.226,4.154,4.833-.914,10.194-3.079,27.307-4.845,35.685-1.588,7.53-1.689,8.013-6.549,13.136l-24.905,22.353" style="fill:none; stroke:#a7abae; stroke-linecap:round; stroke-miterlimit:10; stroke-width:.5px;"/><path d="m.699,181.926c.325-.207.649-.415.974-.622,11.333-7.233,27.99-17.719,44.474-27.569,29.067-17.368,36.401-20.833,40.9-22.992,5.769-2.769,9.088-.356,8.361,7.751-.892,9.955-2.714,25.68-4.897,36.029-1.948,9.239-2.216,10.435-8.667,17.231l-22.345,20.056" style="fill:none; stroke:#a7abae; stroke-linecap:round; stroke-miterlimit:10; stroke-width:.75px;"/><path d="m57.145,210.063l11.035,8.99c1.187.967,2.505,2.251-1.293,5.559-4.424,3.853-29.5,26.601-34.367,31.187" style="fill:none; stroke:#a7abae; stroke-linecap:round; stroke-miterlimit:10; stroke-width:.5px;"/><path d="m82.932,195.495c.74-.674,10.916-9.933,11.591-10.548.813-.739,1.446-.894,2.684-.689s4.588.756,6.399,1.075c2.224.391,2.483,1.184.927,2.82,0,0-6.577,6.914-7.088,7.452s-1.024.708-1.969.708-11.781-.009-12.351-.009c-.709,0-.934-.134-.193-.807Z" style="fill:none; stroke:#a7abae; stroke-linecap:round; stroke-miterlimit:10; stroke-width:.5px;"/><polyline points="88.072 193.359 92.953 193.465 98.331 193.582" style="fill:none; stroke:#a7abae; stroke-linecap:round; stroke-miterlimit:10; stroke-width:.5px;"/><line x1="93.812" y1="187.964" x2="103.402" y2="188.361" style="fill:none; stroke:#a7abae; stroke-linecap:round; stroke-miterlimit:10; stroke-width:.5px;"/><line x1="90.652" y1="195.702" x2="92.953" y2="193.465" style="fill:none; stroke:#a7abae; stroke-linecap:round; stroke-miterlimit:10; stroke-width:.5px;"/><line x1="96.326" y1="190.182" x2="98.412" y2="188.154" style="fill:none; stroke:#a7abae; stroke-linecap:round; stroke-miterlimit:10; stroke-width:.5px;"/><path d="m91.277,191.295c-.757-.013-1.258.24-1.679.635s-3.159,2.96-3.159,2.96c-.515.476-.101.799.258.8l8.506.026c.686.002,1.333-.278,1.83-.791l2.423-2.505c.661-.684.727-.89-.338-.916l-1.927-.048-5.913-.16Z" style="fill:none; stroke:#a7abae; stroke-linecap:round; stroke-miterlimit:10; stroke-width:.5px;"/><path d="m103.346,186.864c.848.156,1.101.416.678.853-.145.15-1.559,1.661-1.92,1.985s-.999.601-1.826.58-6.957-.177-7.542-.192c-.776-.02-.868-.305-.429-.716s3.008-2.818,3.23-3.026c.55-.515,1.146-.707,1.906-.568l5.904,1.083Z" style="fill:none; stroke:#a7abae; stroke-linecap:round; stroke-miterlimit:10; stroke-width:.5px;"/><line x1="99.733" y1="130.602" x2="106.649" y2="126.036" style="fill:none; stroke:#a7abae; stroke-linecap:round; stroke-miterlimit:10; stroke-width:.5px;"/><path d="m144.467,255.799c2.6-8.689,1.03-16.411-.934-26.071l-.3-1.477-3.651-17.301c-.725-3.378-.725-5.133-4.909-7.293-4.185-2.16-5.724-2.955-9.044.81-2.708,3.071-15.619,17.874-15.619,17.874" style="fill:none; stroke:#a7abae; stroke-linecap:round; stroke-miterlimit:10; stroke-width:.5px;"/><path d="m118.787,212.289l9.405,43.51-2.329-10.776c-.21-.979-.534-1.392-.934-1.414l-3.134-.175c-.496-.028-1.106.545-1.754,1.383l-8.32,10.983" style="fill:none; stroke:#a7abae; stroke-linecap:round; stroke-miterlimit:10; stroke-width:.5px;"/><path d="m147.169,255.799c2.123-7.739,1.233-14.783-.263-22.53l-11.557-61.355" style="fill:none; stroke:#a7abae; stroke-linecap:round; stroke-miterlimit:10; stroke-width:.5px;"/><path d="m152.189,255.799c.865-3.449,1.156-6.766,1.079-10.075l-5.446-72.651" style="fill:none; stroke:#a7abae; stroke-linecap:round; stroke-miterlimit:10; stroke-width:.5px;"/><path d="m644.878,177.136c-3.95-5.216-8.346-10.05-18.337-16.226-14.523-8.977-43.65-25.506-55.876-32.237-10.185-5.608-16.143-8.641-16.143,3.765,0,20.891,1.773,42.855,2.343,49.367" style="fill:none; stroke:#a7abae; stroke-linecap:round; stroke-miterlimit:10; stroke-width:.5px;"/><path d="m651.234,181.182c-5.399-8.639-8.961-14.422-23.441-23.291-14.48-8.869-45.165-26.221-57.611-33.011-14.677-8.007-16.81-5.638-16.81,5.548,0,25.107,2.545,51.404,2.545,51.404,2.725-.278,6.738.665,9.828,3.178" style="fill:none; stroke:#a7abae; stroke-linecap:round; stroke-miterlimit:10; stroke-width:.75px;"/><path d="m543.786,227.063c.216,1.906,1.121,3.038,3.107,5.52,1.23,1.538,5.139,5.926,10.408,11.997,2.875,3.313,5.359,6.175,6.011,6.947.752.892,2.272,2.693,4.361,2.693.125,0,.253-.006.382-.02,2.12-.222,3.384-2.149,4.15-3.579,2.1-3.919,4.506-8.298,6.407-11.732,1.384-2.5,2.02-2.591,4.053-.583,6.553,6.471,12.741,12.481,17.947,17.493" style="fill:none; stroke:#a7abae; stroke-linecap:round; stroke-miterlimit:10; stroke-width:.5px;"/><path d="m652.425,189.097c-16.303-11.085-62.508-42.27-88.587-54.783l-.214-.103c-3.357-1.611-4.696-1.226-4.154,4.833.914,10.194,3.079,27.307,4.845,35.684,1.588,7.53,1.689,8.013,6.549,13.136l24.905,22.353" style="fill:none; stroke:#a7abae; stroke-linecap:round; stroke-miterlimit:10; stroke-width:.5px;"/><line x1="553.372" y1="130.602" x2="546.456" y2="126.036" style="fill:none; stroke:#a7abae; stroke-linecap:round; stroke-miterlimit:10; stroke-width:.5px;"/><path d="m612.512,256.073c-6.522-6.08-19.585-18.333-26.055-24.462-1.565-1.586-3.673-3.008-4.329-5.324-.273-1.642-.219-3.05.098-4.666.704-2.313,3.096-3.455,4.735-4.96,0,0,6.956-5.605,6.956-5.605l3.48-2.8c.554-.452,1.237-.912,1.45-1.392.136-.568-.645-1.198-1.002-1.648.341.168.656.371.969.608,1.385,1-.052,2.304-.95,3.007,0,0-3.457,2.828-3.457,2.828l-6.918,5.651c-1.531,1.439-3.745,2.491-4.411,4.539-.319,1.986-.55,4.375.901,5.987,7.77,7.712,21.163,20.019,29.044,27.687.152.141.16.378.019.53-.14.151-.379.157-.531.018h0Z" style="fill:#a7abae; stroke-width:0px;"/><path d="m555.841,181.148c-2.681.304-6.48.813-9.985,1.564-4.61.988-6.056.995-5.669,8.279.63,11.879,3.06,32.666,3.06,32.666.72,6.479,1.22,10.217,5.36,15.167,1.644,1.966,6.701,8.21,13.982,16.975" style="fill:none; stroke:#a7abae; stroke-linecap:round; stroke-miterlimit:10; stroke-width:.75px;"/><path d="m540.163,187.76c-.031,1.702.564,2.601,4.073,6.56,17.228,19.437,44.518,46.15,60.477,61.479" style="fill:none; stroke:#a7abae; stroke-linecap:round; stroke-miterlimit:10; stroke-width:.5px;"/><path d="m543.247,223.657c.143,1.269.765,2.07,2.655,4.432s17.21,19.91,19.033,22.07c1.822,2.16,3.405,3.181,5.399-.54,4.3-8.022,9.802-17.834,9.802-17.834" style="fill:none; stroke:#a7abae; stroke-linecap:round; stroke-miterlimit:10; stroke-width:.5px;"/><path d="m540.381,194.144c.065.887.335,1.557,2.562,3.987.405.442,1.57,1.667,3.221,3.393,1.518,1.585,2.786,2.749,3.326,7.473,0,0,1.601,15.34,2.041,19.561.324,3.103-.715,2.314-1.894,1.006l-2.938-3.258c-2.16-2.362-3.682-4.773-4.079-8.561" style="fill:none; stroke:#a7abae; stroke-linecap:round; stroke-miterlimit:10; stroke-width:.5px;"/><path d="m541.952,200.979c.421,1.075,1.342,1.806,2.082,2.675,0,0,2.416,2.509,2.416,2.509,1.778,1.733,1.845,4.395,2.108,6.677.227,2.29.811,8.186,1.031,10.401.04.578.172,1.148.034,1.814-.047.144-.129.441-.461.482-.281-.006-.39-.143-.512-.245-.227-.221-.385-.471-.531-.732.307.188.69.54.996.558.109-.507-.019-1.196-.076-1.82-.24-2.186-.89-8.123-1.139-10.387-.252-2.222-.208-4.683-1.868-6.363,0,0-2.381-2.543-2.381-2.543-.715-.867-1.871-1.767-1.7-3.026h0Z" style="fill:#a7abae; stroke-width:0px;"/><path d="m549.282,222.966l-1.754-1.913c-1.514-1.629-2.582-3.366-2.861-6.022l-1.089-11.483" style="fill:none; stroke:#a7abae; stroke-linecap:round; stroke-miterlimit:10; stroke-width:.5px;"/><path d="m554.915,232.9c3.562,3.166,7.902,8.495,11.219,12.004,2.895,3.606,3.48.325,4.875-2.202,0,0,1.82-3.682,1.82-3.682l.91-1.841c1.02-1.742,1.087-3.817.244-5.641-.531-1.248-1.508-2.172-2.439-3.145,0,0-5.672-5.939-5.672-5.939l-5.672-5.94c-1.892-1.978-3.79-3.951-5.503-6.102,2.08,1.799,3.975,3.776,5.875,5.747l5.707,5.91,5.707,5.91c.964.987,2.011,1.996,2.57,3.299.926,1.923.873,4.358-.234,6.19,0,0-.918,1.837-.918,1.837l-1.836,3.674c-1.517,3.055-2.655,6.257-5.868,2.317-3.144-3.697-8.005-8.49-10.784-12.396h0Z" style="fill:#a7abae; stroke-width:0px;"/><path d="m561.199,201.25c-.63-.585-.27-.81,1.395-.81h11.969c.675,0,2.025-.135,3.375,1.035.816.707,6.326,5.64,13.51,12.086" style="fill:none; stroke:#a7abae; stroke-linecap:round; stroke-miterlimit:10; stroke-width:.5px;"/><path d="m582.841,221.185c-2.392-2.203-21.052-19.388-21.642-19.936-.63-.585-.27-.81,1.395-.81" style="fill:none; stroke:#a7abae; stroke-linecap:round; stroke-miterlimit:10; stroke-width:.5px;"/><path d="m576.505,202.335l1.073,13.758c.011.138-.092.258-.23.269-.141.011-.264-.098-.269-.239l-.574-13.788h0Z" style="fill:#a7abae; stroke-width:0px;"/><path d="m555.916,181.961c-14.159,1.906-14.985,2.235-11.044,6.601,3.072,3.404,39.833,40.96,39.833,40.96" style="fill:none; stroke:#a7abae; stroke-linecap:round; stroke-miterlimit:10; stroke-width:.5px;"/><path d="m548.414,214.647s-.394,1.569-3.464,1.966" style="fill:none; stroke:#a7abae; stroke-linecap:round; stroke-miterlimit:10; stroke-width:.5px;"/><path d="m652.425,181.937c-11.339-7.245-28.494-18.061-45.466-28.202-29.067-17.368-36.401-20.833-40.9-22.992-5.769-2.769-9.088-.356-8.361,7.751.892,9.955,2.714,25.68,4.897,36.029,1.948,9.239,2.216,10.435,8.667,17.231l22.345,20.056" style="fill:none; stroke:#a7abae; stroke-linecap:round; stroke-miterlimit:10; stroke-width:.75px;"/><path d="m595.96,210.063l-11.035,8.99c-1.187.967-2.505,2.251,1.293,5.559,4.424,3.853,29.5,26.601,34.367,31.187" style="fill:none; stroke:#a7abae; stroke-linecap:round; stroke-miterlimit:10; stroke-width:.5px;"/><path d="m570.174,195.495c-.74-.674-10.916-9.933-11.591-10.548-.813-.739-1.446-.894-2.684-.689s-4.588.756-6.399,1.075c-2.224.391-2.483,1.184-.927,2.82l7.088,7.452c.511.537,1.024.708,1.969.708s11.781-.009,12.351-.009c.709,0,.934-.134.193-.807Z" style="fill:none; stroke:#a7abae; stroke-linecap:round; stroke-miterlimit:10; stroke-width:.5px;"/><polyline points="565.033 193.359 560.152 193.465 554.774 193.582" style="fill:none; stroke:#a7abae; stroke-linecap:round; stroke-miterlimit:10; stroke-width:.5px;"/><line x1="559.293" y1="187.964" x2="549.704" y2="188.361" style="fill:none; stroke:#a7abae; stroke-linecap:round; stroke-miterlimit:10; stroke-width:.5px;"/><line x1="562.453" y1="195.702" x2="560.152" y2="193.465" style="fill:none; stroke:#a7abae; stroke-linecap:round; stroke-miterlimit:10; stroke-width:.5px;"/><line x1="556.779" y1="190.182" x2="554.693" y2="188.154" style="fill:none; stroke:#a7abae; stroke-linecap:round; stroke-miterlimit:10; stroke-width:.5px;"/><path d="m561.829,191.295c.757-.013,1.258.24,1.679.635s3.159,2.96,3.159,2.96c.515.476.101.799-.258.8l-8.506.026c-.686.002-1.333-.278-1.83-.791l-2.423-2.505c-.661-.684-.727-.89.338-.916l1.927-.048,5.913-.16Z" style="fill:none; stroke:#a7abae; stroke-linecap:round; stroke-miterlimit:10; stroke-width:.5px;"/><path d="m549.76,186.864c-.848.156-1.101.416-.678.853.145.15,1.559,1.661,1.92,1.985s.999.601,1.826.58,6.957-.177,7.542-.192c.776-.02.868-.305.429-.716s-3.008-2.818-3.23-3.026c-.55-.515-1.146-.707-1.906-.568l-5.904,1.083Z" style="fill:none; stroke:#a7abae; stroke-linecap:round; stroke-miterlimit:10; stroke-width:.5px;"/><path d="m481.271,173.519v2.152c0,7.028-.13,5.564,1.108,12.481l10.49,58.623c.558,3.116,1.572,6.115,2.861,9.023" style="fill:none; stroke:#a7abae; stroke-linecap:round; stroke-miterlimit:10; stroke-width:.5px;"/><path d="m508.638,255.799c-2.6-8.689-1.03-16.411.934-26.071l.3-1.477,3.651-17.301c.725-3.378.725-5.133,4.909-7.293s5.724-2.955,9.044.81c2.708,3.071,15.619,17.874,15.619,17.874" style="fill:none; stroke:#a7abae; stroke-linecap:round; stroke-miterlimit:10; stroke-width:.5px;"/><path d="m505.936,255.799c-2.123-7.739-1.233-14.783.263-22.53l11.557-61.355" style="fill:none; stroke:#a7abae; stroke-linecap:round; stroke-miterlimit:10; stroke-width:.5px;"/><path d="m500.917,255.799c-.865-3.449-1.156-6.766-1.079-10.075l5.446-72.651" style="fill:none; stroke:#a7abae; stroke-linecap:round; stroke-miterlimit:10; stroke-width:.5px;"/><path d="m541.385,255.799l-8.32-10.983c-.648-.837-1.259-1.41-1.754-1.383l-3.134.175c-.4.022-.724.435-.934,1.414l-2.329,10.776,9.405-43.51" style="fill:none; stroke:#a7abae; stroke-linecap:round; stroke-miterlimit:10; stroke-width:.5px;"/><path d="m109.864,3.284l19.087,46.838c1.859,4.562,1.334,3.815,4.999,7.107l10.976,9.856c4.99,4.481,4.132,4.162,10.837,4.009,23.058-.525,105.733-2.301,170.048-2.301,64.799,0,148.234,1.802,170.558,2.312,6.182.141,5.324.434,10.153-3.428l10.973-8.778c4.275-3.42,3.687-2.638,5.789-7.694l20.406-49.08" style="fill:url(#uuid-89d66a45-e682-46ad-bb12-b52526ab8baa); stroke:#000001; stroke-linecap:round; stroke-linejoin:round; stroke-width:.75px;"/><path d="m198.885,188.924c-7.818,0-15.669-.256-23.333-.761-4.519-.303-8.898-1.806-12.666-4.344-17.991-12.096-28.668-32.185-28.561-53.738.18-34.99,28.868-63.457,63.95-63.457s64.059,28.465,64.569,63.453c.321,21.551-10.153,41.645-28.02,53.751-3.745,2.53-8.115,4.029-12.637,4.335-7.654.505-15.494.761-23.304.761Zm-43.845-45.787c-3.37,0-5.182.465-5.874,1.507-.739,1.114-.414,3.114,1.09,6.686,4.056,9.623,10.767,17.802,19.409,23.65,2.164,1.466,4.554,2.292,7.103,2.455,1.402.098,2.81.18,4.218.26l-.289-15.774q-.025-1.843-1.3-3.194l-1.688-1.811c-1.441-1.496-2.844-3.42-4.966-6.332l-.762-1.044-3.014-4.091q-1.538-2.099-4.154-2.137l-9.019-.168c-.259-.005-.511-.007-.755-.007Zm87.374-.013l-2.29.039q-2.83.045-4.491,2.307l-7.636,10.371c-.98,1.326-1.75,2.808-2.288,4.403l-5.756,17.314,1.803-.113c2.514-.175,4.949-1.021,7.038-2.444,8.611-5.875,15.247-14.09,19.188-23.756,1.453-3.565,1.759-5.554,1.022-6.649-.688-1.022-2.48-1.479-5.814-1.479-.251,0-.51.003-.776.008Zm-47.78,18.698c-.24,0-.88,0-1.012.134-.146.149-.134.891-.127,1.289l.05,2.519q.061,3.141,5.445,3.141h6.165q5.524,0,5.949-1.942l.123-.551c.074-.307.142-.607.207-.903l.042-.192c.375-1.61.545-2.684.231-3.077-.281-.355-1.191-.428-2.473-.428l-.485.003c-1.234.017-2.471.021-3.706.021l-5.409-.011-3.827.004-1.174-.006Zm11.054-50.906c12.375,0,17.119,1.936,21.707,3.808,3.97,1.62,7.719,3.15,16.391,3.15,4.024,0,4.49-1.975,4.49-3.46,0-1.307-.512-3.252-1.441-5.478-.842-2.021-2.872-3.75-4.836-5.423-1.482-1.264-2.884-2.457-3.839-3.789-.889-1.235-1.682-2.509-2.521-3.856-2.485-3.987-5.055-8.11-10.21-11.216-8.026-4.83-17.031-7.278-26.763-7.278s-18.735,2.448-26.762,7.278c-5.156,3.105-7.726,7.229-10.211,11.216-.84,1.348-1.633,2.621-2.521,3.857-.955,1.33-2.355,2.522-3.839,3.785-1.966,1.673-3.999,3.403-4.835,5.425-.937,2.242-1.452,4.187-1.452,5.479,0,1.485.467,3.46,4.5,3.46,8.382,0,12.155-1.441,16.15-2.967,4.548-1.736,9.701-3.704,22.424-3.844l2.187-.02c1.314-.01,2.7-.021,3.892-.04,2.061-.03,4.302-.06,6.102-.08.475-.005.936-.008,1.389-.008Z" style="fill:#d3d5d6; stroke-width:0px;"/><path d="m198.275,67.124c34.87,0,63.56,28.04,64.07,62.96.33,22.13-10.71,41.75-27.8,53.33-3.67,2.48-7.95,3.95-12.39,4.25-7.58.5-15.35.76-23.27.76s-15.71-.26-23.3-.76c-4.47-.3-8.71-1.76-12.42-4.26-17.21-11.57-28.45-31.19-28.34-53.32.18-34.92,28.58-62.96,63.45-62.96m-44.73,51.25c18.06,0,14.78-6.55,38.58-6.81,1.81-.02,4.19-.03,6.08-.06,2.06-.03,4.3-.06,6.1-.08.472-.005.93-.008,1.381-.008,23.252,0,19.519,6.958,38.099,6.958,3.35,0,4.99-1.29,4.99-3.96,0-1.32-.49-3.3-1.48-5.67-1.52-3.65-6.52-6.23-8.73-9.31-3.55-4.94-5.89-11-12.88-15.21-7.33-4.41-16.33-7.35-27.02-7.35s-19.69,2.94-27.02,7.35c-6.99,4.21-9.33,10.27-12.88,15.21-2.21,3.08-7.22,5.66-8.73,9.31-.99,2.37-1.49,4.35-1.49,5.67,0,2.67,1.65,3.96,5,3.96m65.7,59.73c.85-.05,1.7-.11,2.54-.16,2.6-.18,5.12-1.05,7.29-2.53,8.81-6.01,15.46-14.39,19.37-23.98,2.809-6.892,1.753-8.818-5.257-8.817-.253,0-.514.003-.783.007l-1.73.03c-3.85.07-3.51-.1-5.79,2.99l-7.29,9.9c-1.02,1.38-1.81,2.91-2.36,4.54l-5.99,18.02m-37.75.12l-.29-15.76c-.05-2.79.1-2.43-1.81-4.47l-1.32-1.42c-1.59-1.65-3.17-3.88-5.69-7.33l-2.69-3.65c-2.13-2.89-1.81-2.73-5.4-2.79l-8.49-.16c-.263-.005-.518-.007-.767-.007-7.073,0-8.151,1.98-5.243,8.887,4.02,9.54,10.74,17.88,19.59,23.87,2.23,1.51,4.7,2.37,7.35,2.54,1.58.11,3.17.2,4.76.29m23.602-16.889c-1.823,0-3.644-.011-5.462-.011-2.193,0-3.151.004-3.827.004-.338,0-.606-.001-.923-.004-.086,0-.168-.002-.247-.002-1.537,0-1.672.219-1.643,1.932l.05,2.52c.07,3.62.119,3.63,5.944,3.63h6.166c6.36,0,5.9-.02,6.56-2.88.09-.37.17-.74.25-1.1.85-3.647.56-4.113-2.73-4.113-.156,0-.319.001-.49.003-1.216.016-2.432.021-3.648.021m-6.822-95.211c-17.146,0-33.283,6.632-45.438,18.675-12.172,12.059-18.924,28.14-19.012,45.28-.108,21.721,10.652,41.966,28.782,54.155,3.84,2.587,8.304,4.119,12.911,4.428,7.678.506,15.539.762,23.367.762s15.669-.256,23.336-.762c4.612-.312,9.067-1.84,12.884-4.419,18.007-12.202,28.564-32.453,28.24-54.173-.25-17.136-7.158-33.215-19.45-45.274-12.273-12.04-28.475-18.671-45.62-18.671h0Zm-44.73,51.25c-3.525,0-4-1.496-4-2.96,0-1.209.515-3.135,1.413-5.285.791-1.912,2.777-3.603,4.698-5.237,1.441-1.227,2.931-2.495,3.922-3.875.897-1.249,1.731-2.587,2.538-3.882,2.454-3.938,4.991-8.01,10.046-11.055,7.948-4.782,16.865-7.207,26.504-7.207s18.556,2.425,26.504,7.207c5.054,3.044,7.591,7.116,10.045,11.054.807,1.295,1.641,2.633,2.538,3.882.991,1.381,2.48,2.65,3.921,3.877,1.919,1.634,3.903,3.324,4.698,5.234.892,2.135,1.403,4.061,1.403,5.286,0,1.464-.474,2.96-3.99,2.96-8.573,0-12.279-1.512-16.202-3.113-4.633-1.89-9.423-3.845-21.897-3.845-.455,0-.917.003-1.393.008-1.801.02-4.042.05-6.103.08-1.173.019-2.534.029-3.83.04-.792.006-1.56.013-2.247.02-12.812.14-18.011,2.125-22.598,3.876-4.122,1.574-7.683,2.934-15.971,2.934h0Zm67.117,59.639l5.522-16.613c.52-1.542,1.266-2.977,2.215-4.261l7.291-9.901.346-.471c.784-1.068,1.216-1.657,1.617-1.863.403-.207,1.14-.219,2.479-.24l.561-.009,1.729-.03c.263-.005.518-.007.765-.007,3.109,0,4.826.4,5.403,1.258.615.915.275,2.879-1.071,6.182-3.904,9.575-10.476,17.712-19.008,23.531-2.016,1.375-4.366,2.19-6.796,2.358-.345.021-.699.043-1.054.066h0Zm-40.186.152c-1.227-.07-2.452-.143-3.671-.228-2.463-.158-4.769-.955-6.859-2.37-8.563-5.796-15.212-13.898-19.229-23.43-1.392-3.307-1.753-5.282-1.133-6.215.582-.876,2.315-1.284,5.455-1.284.243,0,.492.002.749.007l8.489.16.529.008c1.235.018,1.915.027,2.275.213.359.185.758.729,1.483,1.718l.327.445,2.69,3.65.76,1.042c2.134,2.928,3.544,4.862,5.015,6.389l1.308,1.407.369.392q1.142,1.211,1.165,2.859l.009.557.27,14.682h0Zm24.622-14.83c1.22,0,2.441-.005,3.661-.021.164-.002.323-.003.476-.003,1.709,0,2.025.167,2.082.238.103.129.13.694-.326,2.648l-.045.201c-.065.293-.131.591-.203.89-.049.21-.089.395-.127.568-.264,1.205-.319,1.226-.553,1.311-.651.238-2.345.238-4.909.238h-6.166c-2.467,0-4.097,0-4.611-.312-.277-.168-.307-.998-.333-2.337l-.05-2.521c-.003-.171-.011-.634.02-.886.11-.014.299-.026.623-.026h.235c.321.005.592.006.934.006h.877c.642-.003,1.541-.004,2.95-.004.907,0,1.815.003,2.724.005.912.003,1.825.005,2.738.005h0Z" style="fill:#000001; stroke-width:0px;"/><path d="m198.275,67.124c-34.87,0-63.27,28.04-63.45,62.96-.11,22.13,11.13,41.75,28.34,53.32,3.71,2.5,7.95,3.96,12.42,4.26,7.59.5,15.38.76,23.3.76s15.69-.26,23.27-.76c4.44-.3,8.72-1.77,12.39-4.25,17.09-11.58,28.13-31.2,27.8-53.33-.51-34.92-29.2-62.96-64.07-62.96Zm-21.54,110.81c-2.65-.17-5.12-1.03-7.35-2.54-8.85-5.99-15.57-14.33-19.59-23.87-3.01-7.15-1.75-9.02,6.01-8.88l8.49.16c3.59.06,3.27-.1,5.4,2.79l2.69,3.65c2.52,3.45,4.1,5.68,5.69,7.33l1.32,1.42c1.91,2.04,1.76,1.68,1.81,4.47l.29,15.76c-1.59-.09-3.18-.18-4.76-.29Zm-23.19-59.56c-3.35,0-5-1.29-5-3.96,0-1.32.5-3.3,1.49-5.67,1.51-3.65,6.52-6.23,8.73-9.31,3.55-4.94,5.89-11,12.88-15.21,7.33-4.41,16.33-7.35,27.02-7.35s19.69,2.94,27.02,7.35c6.99,4.21,9.33,10.27,12.88,15.21,2.21,3.08,7.21,5.66,8.73,9.31.99,2.37,1.48,4.35,1.48,5.67,0,2.67-1.64,3.96-4.99,3.96-18.94,0-14.69-7.23-39.48-6.95-1.8.02-4.04.05-6.1.08-1.89.03-4.27.04-6.08.06-23.8.26-20.52,6.81-38.58,6.81Zm58.42,47.05c-.08.36-.16.73-.25,1.1-.66,2.86-.2,2.88-6.56,2.88h-6.07c-5.92,0-5.97.01-6.04-3.63l-.05-2.52c-.03-1.8.12-1.95,1.89-1.93.95.01,1.46,0,4.75,0,3.03,0,6.07.03,9.11-.01,3.75-.04,4.11.29,3.22,4.11Zm17.11,9.99c-2.17,1.48-4.69,2.35-7.29,2.53-.84.05-1.69.11-2.54.16l5.99-18.02c.55-1.63,1.34-3.16,2.36-4.54l7.29-9.9c2.28-3.09,1.94-2.92,5.79-2.99l1.73-.03c7.71-.14,8.95,1.67,6.04,8.81-3.91,9.59-10.56,17.97-19.37,23.98Z" style="fill:none; stroke:#000001; stroke-linecap:round; stroke-linejoin:round; stroke-width:.5px;"/><path d="m235.817,169.627c.1.261.393.305.63.375,3.662.679,7.425.619,11.121.282.246-.044.56-.026.7-.257-.057.297-.402.398-.634.51-1.466.708-11.526.958-11.816-.911h0Z" style="fill:#000001; stroke-width:0px;"/><path d="m196.881,138.174c-.607,0-1.186-.232-1.629-.655l-5.819-5.547c-.486-.465-.762-1.119-.756-1.796.005-.676.29-1.326.781-1.782l6.042-5.582c.438-.406,1.008-.63,1.601-.63.607,0,1.186.232,1.629.655l5.819,5.547c.484.46.761,1.114.757,1.794-.007.681-.292,1.33-.783,1.785l-6.041,5.581c-.438.406-1.008.63-1.601.63Z" style="fill:none; stroke:#000001; stroke-linecap:round; stroke-linejoin:round; stroke-width:.5px;"/><path d="m203.928,129.035c.307.293.48.706.477,1.137s-.183.842-.494,1.129l-6.039,5.582c-.57.527-1.436.52-1.998-.016l-5.819-5.547c-.307-.293-.48-.706-.477-1.137s.183-.842.494-1.129l6.039-5.582c.57-.527,1.436-.52,1.998.016l5.819,5.547Z" style="fill:none; stroke:#000001; stroke-linecap:round; stroke-linejoin:round; stroke-width:.5px;"/><path d="m192.767,130.542c-.124-.118-.193-.281-.192-.452s.073-.333.199-.449l3.867-3.575c.19-.176.479-.174.666.005l3.68,3.506c.124.118.193.281.192.452s-.073.333-.199.449l-3.868,3.575c-.19.176-.479.174-.667-.005l-3.679-3.507Z" style="fill:none; stroke:#000001; stroke-linecap:round; stroke-linejoin:round; stroke-width:.5px;"/><polygon points="195.218 129.995 196.842 128.494 198.309 129.891 196.684 131.392 195.218 129.995" style="fill:none; stroke:#000001; stroke-linecap:round; stroke-linejoin:round; stroke-width:.5px;"/><line x1="192.29" y1="130.088" x2="189.577" y2="130.205" style="fill:none; stroke:#000001; stroke-linecap:round; stroke-linejoin:round; stroke-width:.5px;"/><path d="m204.405,130.149l-2.634-.105c-.196-.008-.388.063-.532.196l-.258.239" style="fill:none; stroke:#000001; stroke-linecap:round; stroke-linejoin:round; stroke-width:.5px;"/><line x1="196.842" y1="128.494" x2="196.948" y2="125.936" style="fill:none; stroke:#000001; stroke-linecap:round; stroke-linejoin:round; stroke-width:.5px;"/><line x1="196.684" y1="131.392" x2="196.791" y2="134.185" style="fill:none; stroke:#000001; stroke-linecap:round; stroke-linejoin:round; stroke-width:.5px;"/><path d="m200.988,129.577l.278.265c.128.122.296.194.473.203l.432.022" style="fill:none; stroke:#000001; stroke-linecap:round; stroke-linejoin:round; stroke-width:.5px;"/><path d="m193.341,129.115l-.851.788c-.129.119-.296.189-.471.196l-.866.037" style="fill:none; stroke:#000001; stroke-linecap:round; stroke-linejoin:round; stroke-width:.5px;"/><path d="m193.547,131.303l-1.021-.996c-.147-.143-.347-.219-.552-.209l-.821.039" style="fill:none; stroke:#000001; stroke-linecap:round; stroke-linejoin:round; stroke-width:.5px;"/><path d="m240.796,120.118c10.345,1.241,10.389,1.283,12.156,11.551,1.432,8.321,1.303,9.491-6.227,9.629l-10.744.196c-5.874.107-5.357-.16-8.842,4.569l-1.352,1.835c-9.75,13.23-8.363,12.53-24.798,12.53h-4.796c-16.435,0-15.048.701-24.798-12.53l-2.596-3.522c-2.166-2.94-1.845-2.774-5.496-2.84l-12.891-.235c-7.784-.142-8.64-1.176-7.319-8.849l.108-.626c1.734-10.074,1.777-10.116,11.927-11.334l8.645-1.038c7.179-.84,4.85-.337,13.079-4.828,5.869-3.203,9.229-2.925,21.823-3.136,15.693-.263,17.011-.342,24.782,4.222,5.93,3.483,5.285,3.052,11.187,3.743,2.048.24,4.103.418,6.15.664Z" style="fill:none; stroke:#000001; stroke-linecap:round; stroke-linejoin:round; stroke-width:.5px;"/><path d="m224.248,138.975l21.753-.369c3.838-.07,4.26-.58,3.609-4.363l-.69-4.011q-.994-5.775-6.811-6.552s-14.082-1.455-16.336-1.762c-.958-.131-1.439-.529-1.731-1.177" style="fill:none; stroke:#000001; stroke-linecap:round; stroke-linejoin:round; stroke-width:.5px;"/><path d="m172.986,139.007l-21.584-.393c-5.04-.092-5.594-.762-4.739-5.73l.27-1.568c1.231-7.151,1.285-7.202,8.501-7.972l14.361-1.532c1.47-.154,2.2-.408,3.161-1.001" style="fill:none; stroke:#000001; stroke-linecap:round; stroke-linejoin:round; stroke-width:.5px;"/><path d="m219.249,178.099s-.362.281-3.81,2.536c-1.463.957-3.15,2.021-5.074,2.333s-7.643.572-11.283.572-7.02-.208-10.035-.364-3.484-.468-5.46-1.716c-1.976-1.248-2.087-2.392-2.087-3.239l-.289-15.754c-.051-2.793.096-2.43-1.81-4.472l-1.529-1.639" style="fill:none; stroke:#000001; stroke-linecap:round; stroke-linejoin:round; stroke-width:.5px;"/><path d="m180.981,159.578c1.985,2.021,1.837,1.668,1.892,4.501l.266,13.822c.025,1.272.611,2.762,1.702,3.417,1.233.74,1.901.931,4.238,1.051l1.182.062c2.656.141,5.665.301,8.82.301,3.49,0,9.254-.252,11.179-.564,2.883-.468,4.074-2.316,4.648-4.362l4.307-15.374c.329-1.173.422-1.623.71-2.015l.895-1.215c2.67-3.097,4.949-6.801,7.038-9.649s4.179-6.547,6.074-6.633l5.249-.238" style="fill:none; stroke:#000001; stroke-linecap:round; stroke-linejoin:round; stroke-width:.5px;"/><path d="m213.023,161.426c.735.892.53,2.168.382,3.227-.286,1.899-.924,4.598-1.366,6.492-.527,2.065-.715,4.941-3.078,5.774-3.243.963-6.653.555-9.974.666-2.21-.007-4.419.025-6.642-.086-4.489-.13-6.311-1.639-6.202-6.257-.036-1.654.018-4.982.11-6.634.069-1.078.028-2.313.746-3.195-.642.937-.503,2.115-.496,3.195.09,1.652.16,4.971.14,6.624-.105,4.352,1.494,5.642,5.73,5.767,4.384.132,8.842.147,13.225-.021,2.071-.081,4.58-.42,5.154-2.76.578-1.787,1.067-4.556,1.549-6.415.352-1.994,1.796-4.462.723-6.378h0Z" style="fill:#000001; stroke-width:0px;"/><path d="m187.476,169.515c.007,6.699.255,6.666,11.154,6.666,11.698,0,10.846-.023,12.07-5.294l1.27-5.468c.886-3.816.525-4.15-3.228-4.102-1.765.023-3.018.006-9.109.006-6.049,0-6.99.016-8.726-.004-3.26-.037-3.439.25-3.436,3.547l.005,4.649Z" style="fill:none; stroke:#000001; stroke-linecap:round; stroke-linejoin:round; stroke-width:.5px;"/><path d="m172.665,127.044s-.468-.171-1.299-.143l-15.864.544c-3.024.104-3.103.173-3.617,3.155l-.161.937c-.395,2.297-.125,2.619,2.206,2.619,0,0,16.318,0,17.332,0s1.414-.187,1.414-.187" style="fill:none; stroke:#000001; stroke-linecap:round; stroke-linejoin:round; stroke-width:.5px;"/><path d="m224.367,127.34c.283-.14.482-.315,1.418-.315.781,0,15.45.477,15.45.477,3.024.104,3.103.173,3.617,3.155l.161.937c.395,2.297.125,2.619-2.206,2.619,0,0-16.315,0-16.871,0s-1.253-.185-1.253-.185" style="fill:none; stroke:#000001; stroke-linecap:round; stroke-linejoin:round; stroke-width:.5px;"/><path d="m166.453,133.415h-11.837c-1.791,0-2.003-.248-1.699-2.014l.157-.915c.349-2.03.401-2.072,2.459-2.143,3.498-.122,10.239-.356,11.329-.386,1.483-.041,1.582.288,1.514,2.521s.008,2.937-1.924,2.937Z" style="fill:none; stroke:#000001; stroke-linecap:round; stroke-linejoin:round; stroke-width:.5px;"/><path d="m231.357,133.288c1.406,0,7.427,0,10.874,0,1.763,0,1.971-.244,1.672-1.982l-.155-.9c-.344-1.997-.394-2.038-2.419-2.109-3.442-.12-9.301-.35-10.374-.38-1.46-.04-1.557.194-1.49,2.481s-.008,2.89,1.893,2.89Z" style="fill:none; stroke:#000001; stroke-linecap:round; stroke-linejoin:round; stroke-width:.5px;"/><path d="m163.133,131.227c0,1.103-.084,1.188-1.187,1.195l-2.681.017c-1.113.007-1.203-.082-1.203-1.195v-1c0-1.103.084-1.188,1.187-1.195l2.681-.017c1.113-.007,1.203.082,1.203,1.195v1Z" style="fill:none; stroke:#000001; stroke-linecap:round; stroke-linejoin:round; stroke-width:.5px;"/><path d="m233.964,131.316c0,1.02.078,1.099,1.098,1.105l2.861.019c1.03.007,1.112-.075,1.112-1.105v-1.179c0-1.02-.078-1.099-1.098-1.105l-2.861-.019c-1.03-.007-1.112.075-1.112,1.105v1.179Z" style="fill:none; stroke:#000001; stroke-linecap:round; stroke-linejoin:round; stroke-width:.5px;"/><path d="m217.82,114.14c6.749,3.936,6.351,4.748,6.551,13.206l.102,4.335c.224,9.478-.459,9.196-4.55,15.387-4.748,6.625-4.814,7.722-15.177,8.286-1.819.099-3.808.184-5.898.236s-4.081-.035-5.902-.089c-10.373-.305-10.465-1.401-15.368-7.905-4.236-6.087-4.912-5.788-4.912-15.269v-4.337c0-8.46-.417-9.263,6.237-13.366,5.19-3.2,7.562-2.921,19.301-3.124,12.071-.21,14.389-.409,19.615,2.638Z" style="fill:none; stroke:#000001; stroke-linecap:round; stroke-linejoin:round; stroke-width:.5px;"/><path d="m213.553,114.276c5.658,2.494,5.809,4.781,5.786,10.523-.147,4.294.891,8.824-.923,12.909-1.042,1.931-2.332,3.64-3.566,5.439-3.03,4.767-5.295,5.771-10.858,6.045-5.395.314-10.821.467-16.204-.104-1.077-.149-2.173-.368-3.184-.86-2.026-.983-3.251-2.935-4.575-4.645-1.277-1.768-2.608-3.445-3.695-5.352-1.088-1.988-1.123-4.277-1.19-6.41-.041-2.165-.01-4.318-.034-6.475.036-2.179-.219-4.399.559-6.508.95-2.092,3.087-3.113,4.977-4.151-1.641,1.26-3.66,2.4-4.508,4.345-.701,1.977-.439,4.221-.508,6.313-.007,2.156-.024,4.316.013,6.464.064,2.132.112,4.336,1.132,6.187,1.048,1.837,2.409,3.565,3.653,5.286,1.309,1.684,2.503,3.585,4.393,4.494.934.455,1.982.669,3.034.814,5.338.565,10.75.412,16.101.101,5.455-.298,7.465-1.127,10.485-5.836,1.204-1.75,2.522-3.511,3.526-5.372,1.725-3.896.751-8.502.849-12.674-.07-5.964-.022-7.165-5.265-10.535h0Z" style="fill:#000001; stroke-width:0px;"/><path d="m154.494,141.374l-.233.694c-.099.294-.32.492-.571.512" style="fill:none; stroke:#000001; stroke-linecap:round; stroke-linejoin:round; stroke-width:.5px;"/><path d="m242.715,141.374l.233.694c.099.294.32.492.571.512" style="fill:none; stroke:#000001; stroke-linecap:round; stroke-linejoin:round; stroke-width:.5px;"/><path d="m162.214,169.845c-1.745,1.373-4.256.972-6.347,1.171-2.13-.087-4.501.289-6.429-.775,4.22.356,8.63.533,12.776-.396h0Z" style="fill:#000001; stroke-width:0px;"/><path d="m85.203,84.043c-.144,4.408-.448,6.076-3.258,7.254-3.17,1.328-2.814,1.122-3.181,4.284-.429,3.708-.518,5.151-5.633,7.57-.959.454-7.074,3.339-7.074,3.339l-5.137,2.047c-4.153,1.868-5.576,2.116-10.578,1.399-5.002-.717-20.16-2.972-28.608-4.38-13.273-2.212-18.674-10.026-18.643-24.462.02-9.238,2.459-11.416,10.695-17.382,8.237-5.967,10.11-7.268,18.001-8.835s21.521-2.41,32.267-2.421c10.745-.011,13.11,2.936,18.065,11.85,3.671,6.605,3.131,12.657,3.131,19.705" style="fill:none; stroke:#a7abae; stroke-linecap:round; stroke-miterlimit:10;"/><path d="m85.203,84.043c.033,1.695-.146,2.336-2.465,3.239-2.319.903-7.929,2.855-7.929,2.855" style="fill:none; stroke:#a7abae; stroke-linecap:round; stroke-miterlimit:10; stroke-width:.5px;"/><path d="m66.072,106.539c5.583-2.884,7.802-3.629,8.381-10.05s.851-26.465.797-32.367-1.907-11.86-11.197-11.666" style="fill:none; stroke:#a7abae; stroke-linecap:round; stroke-miterlimit:10; stroke-width:.5px;"/><path d="m51.782,106.577c-.324-.041-.665-.087-1.025-.139-4.95-.709-17.906-2.597-26.655-4.055-11.407-1.901-15.84-7.8-15.811-21.039.016-7.473,1.067-8.521,9.287-14.476,8.123-5.885,9.587-6.945,16.975-8.412,8.283-1.645,19.907-2.212,29.593-2.222h.044c.334-.007.637-.006.926.004l.1.004c.382.015.751.045,1.096.089,3.214.406,5.217,1.834,5.271,7.695.057,6.227-.23,26.215-.792,32.43-.348,3.85-.63,3.994-5.349,6.411,0,0-3.63,1.679-6.041,2.451s-4.137,1.7-7.618,1.261Z" style="fill:#d3d5d6; stroke:#000001; stroke-linecap:round; stroke-linejoin:round;"/><path d="m567.904,84.043c.144,4.408.448,6.076,3.258,7.254,3.17,1.328,2.814,1.122,3.181,4.284.429,3.708.518,5.151,5.633,7.57.959.454,7.074,3.339,7.074,3.339l5.137,2.047c4.153,1.868,5.576,2.116,10.578,1.399,5.002-.717,20.16-2.972,28.608-4.38,13.273-2.212,18.674-10.026,18.643-24.462-.02-9.238-2.459-11.416-10.695-17.382-8.237-5.967-10.11-7.268-18.001-8.835-7.891-1.567-21.521-2.41-32.267-2.421-10.745-.011-13.11,2.936-18.065,11.85-3.671,6.605-3.131,12.657-3.131,19.705" style="fill:none; stroke:#a7abae; stroke-linecap:round; stroke-miterlimit:10;"/><path d="m567.904,84.043c-.033,1.695.146,2.336,2.465,3.239s7.929,2.855,7.929,2.855" style="fill:none; stroke:#a7abae; stroke-linecap:round; stroke-linejoin:round; stroke-width:.5px;"/><path d="m587.035,106.539c-5.583-2.884-7.802-3.629-8.381-10.05-.58-6.42-.851-26.465-.797-32.367s1.907-11.86,11.197-11.666" style="fill:none; stroke:#a7abae; stroke-linecap:round; stroke-linejoin:round; stroke-width:.5px;"/><path d="m601.325,106.577c.324-.041.665-.087,1.025-.139,4.95-.709,17.906-2.597,26.655-4.055,11.407-1.901,15.84-7.8,15.811-21.039-.016-7.473-1.067-8.521-9.287-14.476-8.123-5.885-9.587-6.945-16.975-8.412-8.283-1.645-19.907-2.212-29.593-2.222h-.044c-.334-.007-.637-.006-.926.004l-.1.004c-.382.015-.751.045-1.096.089-3.214.406-5.217,1.834-5.271,7.695-.057,6.227.23,26.215.792,32.43.348,3.85.63,3.994,5.349,6.411,0,0,3.63,1.679,6.041,2.451s4.137,1.7,7.618,1.261Z" style="fill:#d3d5d6; stroke:#000001; stroke-linecap:round; stroke-linejoin:round;"/></g><g id="uuid-dfca7c89-128c-4747-8433-e1177407a148"><path d="m356.671,165.964c3.62,0,6.554,2.934,6.554,6.554,0,3.62-2.934,6.554-6.554,6.554h-20.597c-3.62,0-6.554-2.934-6.554-6.554,0-3.62,2.934-6.554,6.554-6.554h20.597Z" style="fill:#fff; stroke:#f2a900; stroke-linecap:round; stroke-width:.5px;"/><path d="m363.766,156.903c4.167,0,7.545,3.378,7.545,7.545,0,4.167-3.378,7.545-7.545,7.545h-23.712c-4.167,0-7.545-3.378-7.545-7.545,0-4.167,3.378-7.545,7.545-7.545h23.712Z" style="fill:#fff; stroke:#f2a900; stroke-linecap:round; stroke-width:.7px;"/><path d="m371.417,146.916c4.714,0,8.536,3.821,8.536,8.536,0,4.714-3.821,8.536-8.536,8.536h-26.826c-4.714,0-8.536-3.821-8.536-8.536s3.821-8.536,8.536-8.536h26.826Z" style="fill:#fff; stroke:#f2a900; stroke-linecap:round; stroke-width:.9px;"/><path d="m379.588,136.12c5.261,0,9.526,4.265,9.526,9.526,0,5.261-4.265,9.526-9.526,9.526h-29.94c-5.261,0-9.526-4.265-9.526-9.526,0-5.261,4.265-9.526,9.526-9.526h29.94Z" style="fill:#fff; stroke:#f2a900; stroke-linecap:round; stroke-width:1.1px;"/><path d="m388.243,124.629c5.809,0,10.517,4.709,10.517,10.517,0,5.809-4.709,10.517-10.517,10.517h-33.055c-5.809,0-10.517-4.709-10.517-10.517,0-5.809,4.709-10.517,10.517-10.517h33.055Z" style="fill:#fff; stroke:#f2a900; stroke-linecap:round; stroke-width:1.3px;"/><path d="m397.346,112.56c6.356,0,11.508,5.152,11.508,11.508,0,6.356-5.152,11.508-11.508,11.508h-36.169c-6.356,0-11.508-5.152-11.508-11.508,0-6.356,5.152-11.508,11.508-11.508h36.169Z" style="fill:#fff; stroke:#f2a900; stroke-linecap:round; stroke-width:1.5px;"/><rect x="333.624" y="120.068" width="16.045" height="8" style="fill:none; stroke:#fff; stroke-linecap:round; stroke-width:3px;"/><polygon points="335.959 132.046 322.142 124.068 335.959 116.09 335.959 132.046" style="fill:none; stroke:#fff; stroke-linecap:round; stroke-width:3px;"/><line x1="322.142" y1="124.068" x2="349.669" y2="124.068" style="fill:none; stroke:#fff; stroke-linecap:round; stroke-width:3px;"/><line x1="333.624" y1="124.068" x2="349.669" y2="124.068" style="fill:none; stroke:#f2a900; stroke-miterlimit:10; stroke-width:8px;"/><polygon points="335.959 132.046 322.142 124.068 335.959 116.09 335.959 132.046" style="fill:#f2a900; stroke-width:0px;"/><rect x="408.854" y="120.068" width="16.045" height="8" style="fill:none; stroke:#fff; stroke-linecap:round; stroke-width:3px;"/><polygon points="422.565 116.09 436.381 124.068 422.565 132.046 422.565 116.09" style="fill:none; stroke:#fff; stroke-linecap:round; stroke-width:3px;"/><line x1="436.381" y1="124.068" x2="408.854" y2="124.068" style="fill:none; stroke:#fff; stroke-linecap:round; stroke-width:3px;"/><line x1="424.899" y1="124.068" x2="408.854" y2="124.068" style="fill:none; stroke:#f2a900; stroke-miterlimit:10; stroke-width:8px;"/><polygon points="422.565 116.09 436.381 124.068 422.565 132.046 422.565 116.09" style="fill:#f2a900; stroke-width:0px;"/><rect x="375.262" y="90.435" width="8" height="22.125" style="fill:none; stroke:#fff; stroke-linecap:round; stroke-width:3px;"/><polygon points="371.284 92.769 379.262 78.953 387.24 92.769 371.284 92.769" style="fill:none; stroke:#fff; stroke-linecap:round; stroke-width:3px;"/><line x1="379.262" y1="78.953" x2="379.262" y2="112.56" style="fill:none; stroke:#fff; stroke-linecap:round; stroke-width:3px;"/><line x1="379.262" y1="90.435" x2="379.262" y2="112.56" style="fill:none; stroke:#f2a900; stroke-miterlimit:10; stroke-width:8px;"/><polygon points="371.284 92.769 379.262 78.953 387.24 92.769 371.284 92.769" style="fill:#f2a900; stroke-width:0px;"/><rect x="375.262" y="135.577" width="8" height="22.125" style="fill:none; stroke:#fff; stroke-linecap:round; stroke-width:3px;"/><polygon points="387.24 155.367 379.262 169.184 371.284 155.367 387.24 155.367" style="fill:none; stroke:#fff; stroke-linecap:round; stroke-width:3px;"/><line x1="379.262" y1="169.184" x2="379.262" y2="135.577" style="fill:none; stroke:#fff; stroke-linecap:round; stroke-width:3px;"/><line x1="379.262" y1="157.702" x2="379.262" y2="135.577" style="fill:none; stroke:#f2a900; stroke-miterlimit:10; stroke-width:8px;"/><polygon points="387.24 155.367 379.262 169.184 371.284 155.367 387.24 155.367" style="fill:#f2a900; stroke-width:0px;"/><path d="m397.346,112.56c6.356,0,11.508,5.152,11.508,11.508,0,6.356-5.152,11.508-11.508,11.508h-36.169c-6.356,0-11.508-5.152-11.508-11.508,0-6.356,5.152-11.508,11.508-11.508h36.169Z" style="fill:none; stroke:#fff; stroke-linecap:round; stroke-width:4.5px;"/><path d="m397.346,112.56c6.356,0,11.508,5.152,11.508,11.508,0,6.356-5.152,11.508-11.508,11.508h-36.169c-6.356,0-11.508-5.152-11.508-11.508,0-6.356,5.152-11.508,11.508-11.508h36.169Z" style="fill:#d3d5d6; stroke-width:0px;"/><path d="m397.346,112.56c6.356,0,11.508,5.152,11.508,11.508,0,6.356-5.152,11.508-11.508,11.508h-36.169c-6.356,0-11.508-5.152-11.508-11.508,0-6.356,5.152-11.508,11.508-11.508h36.169Z" style="fill:none; stroke:#000001; stroke-linecap:round; stroke-width:1.5px;"/><path d="m381.728,124.068c0,1.362-1.104,2.466-2.466,2.466s-2.466-1.104-2.466-2.466,1.104-2.466,2.466-2.466,2.466,1.104,2.466,2.466Z" style="fill:#000001; stroke-width:0px;"/><path d="m116.323,100.08c0-3.62,2.934-6.554,6.554-6.554s6.554,2.934,6.554,6.554v20.597c0,3.62-2.934,6.554-6.554,6.554s-6.554-2.934-6.554-6.554v-20.597Z" style="fill:none; stroke:#fff; stroke-linecap:round; stroke-width:4.5px;"/><path d="m116.323,100.08c0-3.62,2.934-6.554,6.554-6.554s6.554,2.934,6.554,6.554v20.597c0,3.62-2.934,6.554-6.554,6.554s-6.554-2.934-6.554-6.554v-20.597Z" style="fill:#d3d5d6; stroke-width:0px;"/><path d="m116.323,100.08c0-3.62,2.934-6.554,6.554-6.554s6.554,2.934,6.554,6.554v20.597c0,3.62-2.934,6.554-6.554,6.554s-6.554-2.934-6.554-6.554v-20.597Z" style="fill:none; stroke:#000001; stroke-linecap:round; stroke-width:1.5px;"/><path d="m121.472,110.378c0-.776.629-1.404,1.404-1.404s1.404.629,1.404,1.404-.629,1.404-1.404,1.404-1.404-.629-1.404-1.404Z" style="fill:#000001; stroke-width:0px;"/><path d="m537.064,120.677c0,3.62-2.934,6.554-6.554,6.554s-6.554-2.934-6.554-6.554v-20.597c0-3.62,2.934-6.554,6.554-6.554s6.554,2.934,6.554,6.554v20.597Z" style="fill:none; stroke:#fff; stroke-linecap:round; stroke-width:4.5px;"/><path d="m537.064,120.677c0,3.62-2.934,6.554-6.554,6.554s-6.554-2.934-6.554-6.554v-20.597c0-3.62,2.934-6.554,6.554-6.554s6.554,2.934,6.554,6.554v20.597Z" style="fill:#d3d5d6; stroke-width:0px;"/><path d="m537.064,120.677c0,3.62-2.934,6.554-6.554,6.554s-6.554-2.934-6.554-6.554v-20.597c0-3.62,2.934-6.554,6.554-6.554s6.554,2.934,6.554,6.554v20.597Z" style="fill:none; stroke:#000001; stroke-linecap:round; stroke-width:1.5px;"/><path d="m530.511,111.783c-.776,0-1.404-.629-1.404-1.404,0-.776.629-1.404,1.404-1.404s1.404.629,1.404,1.404c0,.776-.629,1.404-1.404,1.404Z" style="fill:#000001; stroke-width:0px;"/><path d="m313.533,165.896c3.62,0,6.554,2.934,6.554,6.554s-2.934,6.554-6.554,6.554h-20.597c-3.62,0-6.554-2.934-6.554-6.554,0-3.62,2.934-6.554,6.554-6.554h20.597Z" style="fill:none; stroke:#fff; stroke-linecap:round; stroke-width:4.5px;"/><path d="m313.533,165.896c3.62,0,6.554,2.934,6.554,6.554s-2.934,6.554-6.554,6.554h-20.597c-3.62,0-6.554-2.934-6.554-6.554,0-3.62,2.934-6.554,6.554-6.554h20.597Z" style="fill:#d3d5d6; stroke-width:0px;"/><path d="m313.533,165.896c3.62,0,6.554,2.934,6.554,6.554s-2.934,6.554-6.554,6.554h-20.597c-3.62,0-6.554-2.934-6.554-6.554,0-3.62,2.934-6.554,6.554-6.554h20.597Z" style="fill:none; stroke:#000001; stroke-linecap:round; stroke-width:1.5px;"/><path d="m304.639,172.45c0,.776-.629,1.404-1.404,1.404s-1.404-.629-1.404-1.404.629-1.404,1.404-1.404,1.404.629,1.404,1.404Z" style="fill:#000001; stroke-width:0px;"/><path d="m42.424,71.758l-6.945.618h-.001s-.609.053-.609.053h0c-1.021.089-1.972.556-2.665,1.311-.694.755-1.08,1.741-1.082,2.766h0v.002l.008,6.738v.049s.007.048.007.048c.152,1.072.999,1.647,1.791,1.949.803.306,1.74.412,2.461.451l10.767.582.019.022h0s4.028,4.717,4.028,4.717h1.823l-3.961-4.638c.276.004.55-.042.81-.137.286-.105.548-.268.769-.477.221-.21.398-.462.518-.742.073-.17.125-.348.154-.53l2.831,2.831v-1.961l-2.803-2.803v-1.454h-1.386v3.03c0,.116-.024.232-.07.339-.046.107-.113.203-.198.284-.085.08-.185.142-.294.182-.109.04-.226.058-.342.051h0l-12.591-.68c-.678-.037-1.443-.134-2.043-.362-.585-.223-.844-.498-.905-.808l-.008-6.68c.002-.678.257-1.331.716-1.83.459-.5,1.089-.809,1.765-.868h0l.61-.053h.001s6.824-.607,6.824-.607v-1.392Z" style="fill:#000001; fill-rule:evenodd; stroke-width:0px;"/><path d="m43.635,71.423l1.484-2.556,1.484,2.556h-.779c-.071.61-.268,1.012-.439,1.36h0c-.185.377-.328.669-.328,1.248,0,.305.041.497.088.634.049.143.114.255.215.425l.008.013c.097.163.227.381.324.664.102.297.161.64.161,1.072s-.059.773-.162,1.068c-.099.282-.231.495-.329.652l-.008.013c-.101.162-.162.265-.21.399-.045.129-.086.316-.086.621h-1.35c0-.432.059-.773.162-1.068.099-.282.231-.495.329-.652l.008-.013c.101-.162.163-.265.21-.399.045-.129.086-.316.086-.621s-.041-.497-.088-.634c-.049-.143-.114-.255-.215-.425l-.008-.013c-.097-.163-.227-.381-.324-.664-.102-.297-.161-.64-.161-1.072,0-.893.254-1.41.466-1.842h0c.125-.256.231-.473.287-.767h-.824Zm4.929,1.361c-.185.377-.328.668-.328,1.248,0,.305.041.497.088.634.049.143.114.255.215.425l.008.013c.097.163.227.381.324.664.102.297.161.64.161,1.072s-.059.773-.162,1.068c-.099.282-.231.495-.329.652l-.008.013c-.101.162-.163.265-.21.399-.045.129-.086.316-.086.621h-1.35c0-.432.059-.773.162-1.068.099-.282.231-.495.329-.651l.008-.013c.101-.162.163-.265.21-.399.045-.129.086-.316.086-.621s-.041-.497-.088-.634c-.049-.143-.114-.255-.215-.425l-.008-.013c-.097-.163-.227-.381-.324-.664-.102-.297-.161-.64-.161-1.072,0-.893.254-1.41.466-1.842h0c.125-.256.231-.473.287-.767h-.828l1.484-2.556,1.484,2.556h-.775c-.071.61-.268,1.012-.439,1.36h0Zm3.141,0c-.185.377-.328.668-.328,1.248,0,.305.041.497.088.634.049.143.114.255.215.425l.008.013c.097.163.227.381.324.664.102.297.161.64.161,1.072s-.059.773-.162,1.068c-.099.282-.231.495-.329.652l-.008.013c-.101.162-.162.265-.21.399-.045.129-.086.316-.086.621h-1.35c0-.432.059-.773.162-1.068.099-.282.231-.495.329-.652l.008-.013c.101-.162.163-.265.21-.399.045-.129.086-.316.086-.621s-.041-.497-.088-.634c-.049-.143-.114-.255-.215-.425l-.008-.013c-.097-.163-.227-.381-.324-.664-.102-.297-.161-.64-.161-1.072,0-.893.254-1.41.466-1.842h0c.125-.256.231-.473.287-.767h-.832l1.484-2.556,1.484,2.556h-.771c-.071.61-.269,1.012-.439,1.36h0Z" style="fill:#000001; fill-rule:evenodd; stroke-width:0px;"/><path d="m610.682,73.15l6.824.607h.001s.61.053.61.053h0c.676.059,1.305.368,1.765.868.459.499.714,1.152.716,1.83l-.008,6.68c-.061.31-.32.585-.905.808-.599.228-1.364.326-2.043.362l-12.591.68h0c-.116.006-.233-.011-.342-.051-.109-.04-.209-.102-.294-.182-.085-.08-.152-.177-.198-.284-.046-.107-.07-.222-.07-.339v-3.03h-1.386v1.454s-2.803,2.803-2.803,2.803v1.961s2.831-2.831,2.831-2.831c.029.182.081.36.154.53.12.28.297.533.518.742.221.21.483.372.769.477.259.095.534.142.81.137l-3.961,4.638h1.823s4.028-4.717,4.028-4.717h0s.019-.023.019-.023l10.767-.582c.721-.039,1.659-.145,2.461-.451.792-.302,1.638-.877,1.791-1.949l.007-.048v-.049s.008-6.738.008-6.738v-.002h0c-.002-1.025-.388-2.012-1.082-2.766-.694-.755-1.644-1.222-2.665-1.311h0s-.609-.053-.609-.053h-.001s-6.945-.618-6.945-.618v1.392Z" style="fill:#000001; fill-rule:evenodd; stroke-width:0px;"/><path d="m608.647,71.423c.055.294.162.51.287.766h0c.212.433.466.95.466,1.843,0,.432-.059.775-.161,1.072-.097.284-.227.502-.324.664l-.008.013c-.101.169-.166.281-.215.425-.047.137-.088.33-.088.634,0,.305.041.492.086.621.047.134.109.237.21.399l.008.013c.097.156.23.369.329.652.104.295.162.636.162,1.068h-1.35c0-.305-.041-.492-.086-.621-.047-.134-.109-.237-.21-.399l-.008-.013c-.097-.156-.23-.369-.329-.652-.104-.295-.162-.636-.162-1.068s.059-.775.161-1.072c.097-.284.227-.502.324-.664l.008-.013c.101-.169.166-.281.215-.425.047-.137.088-.33.088-.634,0-.58-.143-.871-.328-1.248h0c-.171-.348-.368-.751-.439-1.361h-.779s1.484-2.556,1.484-2.556l1.484,2.556h-.824Zm-4.105,1.36c-.171-.348-.368-.751-.439-1.36h-.775s1.484-2.556,1.484-2.556l1.484,2.556h-.828c.056.294.162.51.287.765h0c.212.433.466.95.466,1.843,0,.432-.059.775-.161,1.072-.097.284-.227.502-.324.664l-.008.013c-.101.169-.166.281-.215.425-.047.137-.088.33-.088.634,0,.305.041.492.086.621.047.134.109.237.21.399l.008.013c.097.156.23.369.329.651.104.295.162.636.162,1.068h-1.35c0-.305-.041-.492-.086-.621-.047-.134-.109-.237-.21-.399l-.008-.013c-.097-.156-.23-.369-.329-.652-.104-.295-.162-.636-.162-1.068s.059-.775.161-1.072c.097-.284.227-.502.324-.664l.008-.013c.101-.169.166-.281.215-.425.047-.137.088-.33.088-.634,0-.58-.143-.871-.328-1.248h0Zm-3.141,0c-.171-.348-.368-.751-.439-1.36h-.771s1.484-2.556,1.484-2.556l1.484,2.556h-.832c.055.294.162.51.287.765h0c.212.433.466.95.466,1.843,0,.432-.059.775-.161,1.072-.097.284-.227.502-.324.664l-.008.013c-.101.169-.166.281-.215.425-.047.137-.088.33-.088.634,0,.305.041.492.086.621.047.134.109.237.21.399l.008.013c.097.156.23.369.329.652.104.295.162.636.162,1.068h-1.35c0-.305-.041-.492-.086-.621-.047-.134-.109-.237-.21-.399l-.008-.013c-.097-.156-.23-.369-.329-.652-.104-.295-.162-.636-.162-1.068s.059-.775.161-1.072c.097-.284.227-.502.324-.664l.008-.013c.101-.169.166-.281.215-.425.047-.137.088-.33.088-.634,0-.58-.143-.871-.328-1.248h0Z" style="fill:#000001; fill-rule:evenodd; stroke-width:0px;"/></g><g id="uuid-b57b063f-e6fb-408b-8559-494e60d3d3da"><circle cx="325.577" cy="154.578" r="8.25" style="fill:none; stroke:#fff; stroke-linecap:round; stroke-linejoin:round; stroke-width:3px;"/><circle cx="325.577" cy="154.578" r="8.25" style="fill:#000001; stroke-width:0px;"/><path d="m325.577,146.339c-3.866,0-7,3.134-7,7v2.478c0,3.866,3.134,7,7,7s7-3.134,7-7v-2.478c0-3.866-3.134-7-7-7Z" style="fill:#000001; stroke-width:0px;"/><path d="m327.299,159.307h-1.918v-6.805h-2.058v-1.624c.784,0,1.376-.1,1.778-.301s.667-.558.798-1.07h1.399v9.8Z" style="fill:#fff; stroke-width:0px;"/><circle cx="123.368" cy="82.025" r="8.25" style="fill:none; stroke:#fff; stroke-linecap:round; stroke-linejoin:round; stroke-width:3px;"/><circle cx="123.368" cy="82.025" r="8.25" style="fill:#000001; stroke-width:0px;"/><path d="m123.368,73.786c-3.866,0-7,3.134-7,7v2.478c0,3.866,3.134,7,7,7s7-3.134,7-7v-2.478c0-3.866-3.134-7-7-7Z" style="fill:#000001; stroke-width:0px;"/><path d="m125.09,86.754h-1.918v-6.804h-2.058v-1.624c.784,0,1.376-.101,1.778-.301.4-.201.667-.558.798-1.071h1.399v9.8Z" style="fill:#fff; stroke-width:0px;"/><circle cx="530.071" cy="82.49" r="8.25" style="fill:none; stroke:#fff; stroke-linecap:round; stroke-linejoin:round; stroke-width:3px;"/><circle cx="530.071" cy="82.49" r="8.25" style="fill:#000001; stroke-width:0px;"/><path d="m530.071,74.251c-3.866,0-7,3.134-7,7v2.478c0,3.866,3.134,7,7,7s7-3.134,7-7v-2.478c0-3.866-3.134-7-7-7Z" style="fill:#000001; stroke-width:0px;"/><path d="m531.793,87.218h-1.918v-6.804h-2.058v-1.624c.784,0,1.376-.101,1.778-.301.4-.201.667-.558.798-1.071h1.399v9.8Z" style="fill:#fff; stroke-width:0px;"/><circle cx="197.753" cy="96.354" r="8.25" style="fill:none; stroke:#fff; stroke-linecap:round; stroke-linejoin:round; stroke-width:3px;"/><circle cx="197.753" cy="96.354" r="8.25" style="fill:#000001; stroke-width:0px;"/><path d="m197.753,88.114c-4.303,0-7.791,3.488-7.791,7.791v.897c0,4.303,3.488,7.791,7.791,7.791s7.791-3.488,7.791-7.791v-.897c0-4.303-3.488-7.791-7.791-7.791Z" style="fill:#000001; stroke-width:0px;"/><path d="m197.844,91.1c.942,0,1.666.258,2.17.771s.756,1.204.756,2.071c0,.916-.405,1.863-1.218,2.843l-2.058,2.506h3.304v1.792h-5.95v-1.4l2.996-3.57c.354-.429.609-.791.763-1.084.154-.295.231-.628.231-1.002,0-.756-.341-1.133-1.022-1.133-.756,0-1.129.457-1.119,1.371h-1.918c-.01-.961.266-1.729.825-2.303.561-.574,1.307-.861,2.24-.861Z" style="fill:#fff; stroke-width:0px;"/><circle cx="43.041" cy="56.198" r="8.25" style="fill:none; stroke:#fff; stroke-linecap:round; stroke-linejoin:round; stroke-width:3px;"/><circle cx="43.041" cy="56.198" r="8.25" style="fill:#000001; stroke-width:0px;"/><path d="m43.041,47.959c-4.492,0-8.134,3.642-8.134,8.134v.209c0,4.492,3.642,8.134,8.134,8.134s8.134-3.642,8.134-8.134v-.209c0-4.492-3.642-8.134-8.134-8.134Z" style="fill:#000001; stroke-width:0px;"/><path d="m42.943,50.945c.934,0,1.669.271,2.205.812.537.541.806,1.223.806,2.044,0,.531-.122.968-.364,1.309-.243.341-.527.581-.854.721.438.131.808.388,1.106.771s.448.887.448,1.512c0,.924-.297,1.654-.89,2.191-.593.536-1.384.805-2.373.805-1.018,0-1.817-.277-2.4-.833-.584-.555-.875-1.337-.875-2.345h1.903c.01.467.143.814.399,1.043s.604.343,1.043.343c.373,0,.677-.114.91-.343s.35-.539.35-.931c0-.905-.564-1.358-1.693-1.358h-.574v-1.652h.56c.924,0,1.386-.382,1.386-1.147,0-.354-.093-.635-.279-.84-.188-.206-.448-.309-.784-.309-.327,0-.598.112-.812.336-.214.225-.321.551-.321.98h-1.904c0-.961.271-1.72.812-2.275.541-.555,1.273-.833,2.197-.833Z" style="fill:#fff; stroke-width:0px;"/><circle cx="610.063" cy="56.198" r="8.25" style="fill:none; stroke:#fff; stroke-linecap:round; stroke-linejoin:round; stroke-width:3px;"/><circle cx="610.063" cy="56.198" r="8.25" style="fill:#000001; stroke-width:0px;"/><path d="m610.063,47.959c-4.492,0-8.134,3.642-8.134,8.134v.209c0,4.492,3.642,8.134,8.134,8.134s8.134-3.642,8.134-8.134v-.209c0-4.492-3.642-8.134-8.134-8.134Z" style="fill:#000001; stroke-width:0px;"/><path d="m609.966,50.945c.933,0,1.668.271,2.205.812.536.541.805,1.223.805,2.044,0,.531-.121.968-.364,1.309s-.527.581-.854.721c.439.131.808.388,1.106.771s.448.887.448,1.512c0,.924-.297,1.654-.889,2.191-.594.536-1.385.805-2.373.805-1.018,0-1.818-.277-2.401-.833-.583-.555-.875-1.337-.875-2.345h1.903c.01.467.143.814.399,1.043s.604.343,1.043.343c.374,0,.677-.114.91-.343s.351-.539.351-.931c0-.905-.565-1.358-1.694-1.358h-.574v-1.652h.56c.924,0,1.387-.382,1.387-1.147,0-.354-.094-.635-.28-.84-.187-.206-.448-.309-.784-.309-.326,0-.598.112-.812.336-.214.225-.321.551-.321.98h-1.903c0-.961.27-1.72.812-2.275.541-.555,1.274-.833,2.198-.833Z" style="fill:#fff; stroke-width:0px;"/><path d="m335.33,24.666c0-4.274-3.255-7.787-7.422-8.198-.298-.033-.601-.052-.908-.052s-.609.02-.908.052c-4.167.41-7.422,3.923-7.422,8.198s3.255,7.787,7.422,8.198c.299.033.601.052.908.052s.61-.02.908-.052c4.166-.411,7.422-3.923,7.422-8.198Z" style="fill:none; stroke:#fff; stroke-linecap:round; stroke-linejoin:round; stroke-width:3px;"/><circle cx="327" cy="24.666" r="8.25" style="fill:#000001; stroke-width:0px;"/><path d="m327.091,16.427h-.182c-4.55,0-8.239,3.689-8.239,8.239s3.689,8.239,8.239,8.239h.182c4.55,0,8.239-3.689,8.239-8.239s-3.689-8.239-8.239-8.239Z" style="fill:#000001; stroke-width:0px;"/><path d="m329.324,25.923h1.246v1.723h-1.246v1.75h-1.918v-1.75h-4.102v-1.555l3.653-6.495h2.366v6.327Zm-2.142-3.401l-1.891,3.43h2.156v-3.976l-.266.546Z" style="fill:#fff; stroke-width:0px;"/><circle cx="228.359" cy="210.764" r="8.25" style="fill:none; stroke:#fff; stroke-linecap:round; stroke-linejoin:round; stroke-width:3px;"/><circle cx="228.359" cy="210.764" r="8.25" style="fill:#000001; stroke-width:0px;"/><path d="m228.359,202.526c-4.481,0-8.113,3.632-8.113,8.113v.251c0,4.481,3.632,8.113,8.113,8.113s8.113-3.632,8.113-8.113v-.251c0-4.481-3.632-8.113-8.113-8.113Z" style="fill:#000001; stroke-width:0px;"/><path d="m231.152,207.485h-3.752v1.975c.354-.178.803-.266,1.344-.266.859,0,1.562.256,2.107.77s.819,1.279.819,2.296c0,1.046-.292,1.876-.875,2.491-.584.617-1.379.925-2.388.925-.998,0-1.782-.264-2.352-.791s-.854-1.276-.854-2.247h1.904c.009.41.131.721.364.932.233.209.551.314.952.314.42,0,.744-.138.973-.413s.343-.646.343-1.113c0-.476-.119-.845-.356-1.106-.238-.261-.572-.391-1.001-.391-.448,0-.845.116-1.19.35h-1.708v-5.516h5.67v1.791Z" style="fill:#fff; stroke-width:0px;"/><circle cx="425.229" cy="210.764" r="8.25" style="fill:none; stroke:#fff; stroke-linecap:round; stroke-linejoin:round; stroke-width:3px;"/><circle cx="425.229" cy="210.764" r="8.25" style="fill:#000001; stroke-width:0px;"/><path d="m425.229,202.526c-4.48,0-8.113,3.632-8.113,8.113v.252c0,4.48,3.632,8.113,8.113,8.113s8.113-3.632,8.113-8.113v-.252c0-4.48-3.632-8.113-8.113-8.113Z" style="fill:#000001; stroke-width:0px;"/><path d="m428.022,207.485h-3.752v1.975c.354-.178.802-.266,1.344-.266.858,0,1.561.256,2.106.77.547.514.819,1.279.819,2.296,0,1.046-.292,1.876-.875,2.491-.583.617-1.379.925-2.387.925-.999,0-1.783-.264-2.353-.791s-.854-1.276-.854-2.247h1.904c.009.41.13.721.363.932.233.209.551.314.952.314.42,0,.744-.138.974-.413.229-.275.343-.646.343-1.113,0-.476-.119-.845-.357-1.106-.238-.261-.571-.391-1.001-.391-.448,0-.845.116-1.189.35h-1.708v-5.516h5.67v1.791Z" style="fill:#fff; stroke-width:0px;"/></g><g id="uuid-afa6394a-90dd-49a9-a672-bab4925e2f57"><path d="m319.894,40.16c-.388-.164-.866-.281-1.531-.281v-1.08c.802,0,1.424.143,1.952.366.512.217.919.504,1.277.757l.015.011c.371.262.693.487,1.091.656.388.164.866.281,1.531.281s1.143-.116,1.531-.281c.397-.168.72-.394,1.091-.656l.015-.011c.359-.253.765-.54,1.278-.757.528-.224,1.151-.366,1.952-.366s1.424.143,1.952.366c.512.217.919.504,1.277.757l.015.011c.371.262.693.487,1.091.656.388.164.866.281,1.531.281v1.08c-.802,0-1.424-.142-1.952-.366-.512-.217-.919-.504-1.277-.757l-.015-.011c-.371-.262-.693-.487-1.091-.656-.388-.164-.866-.281-1.531-.281s-1.143.116-1.531.281c-.398.168-.72.394-1.091.656l-.015.011c-.359.253-.765.54-1.277.757-.528.224-1.15.366-1.952.366s-1.424-.143-1.952-.366c-.512-.217-.919-.504-1.277-.757h0s-.015-.011-.015-.011c-.371-.262-.693-.487-1.091-.656Zm0,3.876c-.388-.164-.866-.281-1.531-.281v-1.08c.802,0,1.424.143,1.952.366.512.217.919.504,1.277.757l.015.011c.371.262.693.487,1.091.656.388.164.866.281,1.531.281s1.143-.116,1.531-.281c.397-.168.72-.394,1.091-.656l.015-.011c.359-.253.765-.54,1.278-.757.528-.224,1.151-.366,1.952-.366s1.424.143,1.952.366c.512.217.919.504,1.277.757l.015.011c.371.262.693.487,1.091.656.388.164.866.281,1.531.281v1.08c-.802,0-1.424-.143-1.952-.366-.512-.217-.919-.504-1.277-.757l-.015-.011c-.371-.262-.693-.487-1.091-.656-.388-.164-.866-.281-1.531-.281s-1.143.116-1.531.281c-.398.168-.72.394-1.091.656l-.015.011c-.359.253-.765.54-1.277.757-.528.224-1.15.366-1.952.366s-1.424-.143-1.952-.366c-.512-.217-.919-.504-1.277-.757l-.015-.011c-.371-.262-.693-.487-1.091-.656Zm-1.531,3.595c.665,0,1.143.116,1.531.281.397.168.72.394,1.091.656l.015.011h0c.359.253.765.54,1.277.757.528.224,1.15.366,1.952.366s1.424-.142,1.952-.366c.512-.217.919-.504,1.277-.757l.015-.011c.371-.262.693-.487,1.091-.656.388-.164.866-.281,1.531-.281s1.143.116,1.531.281c.397.168.72.394,1.091.656l.015.011c.359.253.765.54,1.277.757.528.224,1.15.366,1.952.366v-1.08c-.665,0-1.143-.116-1.531-.281-.397-.168-.72-.394-1.091-.656l-.015-.011c-.359-.253-.765-.54-1.277-.757-.528-.224-1.15-.366-1.952-.366s-1.424.143-1.952.366c-.512.217-.919.504-1.278.757l-.015.011c-.371.262-.693.487-1.091.656-.388.164-.866.281-1.531.281s-1.143-.116-1.531-.281c-.397-.168-.72-.394-1.091-.656l-.015-.011h0c-.359-.253-.765-.54-1.277-.757-.528-.224-1.15-.366-1.952-.366v1.08Z" style="fill:#000001; fill-rule:evenodd; stroke-width:0px;"/><path d="m220.885,225.577c-.388-.164-.866-.281-1.531-.281v-1.08c.802,0,1.424.143,1.952.366.512.217.919.504,1.277.757l.015.011c.371.262.693.487,1.091.656.388.164.866.281,1.531.281s1.143-.116,1.531-.281c.397-.168.72-.394,1.091-.656l.015-.011c.359-.253.765-.54,1.278-.757.528-.224,1.151-.366,1.952-.366s1.424.143,1.952.366c.512.217.919.504,1.277.757l.015.011c.371.262.693.487,1.091.656.388.164.866.281,1.531.281v1.08c-.802,0-1.424-.142-1.952-.366-.512-.217-.919-.504-1.277-.757l-.015-.011c-.371-.262-.693-.487-1.091-.656-.388-.164-.866-.281-1.531-.281s-1.143.116-1.531.281c-.398.168-.72.394-1.091.656l-.015.011c-.359.253-.765.54-1.277.757-.528.224-1.15.366-1.952.366s-1.424-.143-1.952-.366c-.512-.217-.919-.504-1.277-.757h0s-.015-.011-.015-.011c-.371-.262-.693-.487-1.091-.656Zm0,3.876c-.388-.164-.866-.281-1.531-.281v-1.08c.802,0,1.424.143,1.952.366.512.217.919.504,1.277.757l.015.011c.371.262.693.487,1.091.656.388.164.866.281,1.531.281s1.143-.116,1.531-.281c.397-.168.72-.394,1.091-.656l.015-.011c.359-.253.765-.54,1.278-.757.528-.224,1.151-.366,1.952-.366s1.424.143,1.952.366c.512.217.919.504,1.277.757l.015.011c.371.262.693.487,1.091.656.388.164.866.281,1.531.281v1.08c-.802,0-1.424-.143-1.952-.366-.512-.217-.919-.504-1.277-.757l-.015-.011c-.371-.262-.693-.487-1.091-.656-.388-.164-.866-.281-1.531-.281s-1.143.116-1.531.281c-.398.168-.72.394-1.091.656l-.015.011c-.359.253-.765.54-1.277.757-.528.224-1.15.366-1.952.366s-1.424-.143-1.952-.366c-.512-.217-.919-.504-1.277-.757l-.015-.011c-.371-.262-.693-.487-1.091-.656Zm-1.531,3.595c.665,0,1.143.116,1.531.281.397.168.72.394,1.091.656l.015.011h0c.359.253.765.54,1.277.757.528.224,1.15.366,1.952.366s1.424-.142,1.952-.366c.512-.217.919-.504,1.277-.757l.015-.011c.371-.262.693-.487,1.091-.656.388-.164.866-.281,1.531-.281s1.143.116,1.531.281c.397.168.72.394,1.091.656l.015.011c.359.253.765.54,1.277.757.528.224,1.15.366,1.952.366v-1.08c-.665,0-1.143-.116-1.531-.281-.397-.168-.72-.394-1.091-.656l-.015-.011c-.359-.253-.765-.54-1.277-.757-.528-.224-1.15-.366-1.952-.366s-1.424.143-1.952.366c-.512.217-.919.504-1.278.757l-.015.011c-.371.262-.693.487-1.091.656-.388.164-.866.281-1.531.281s-1.143-.116-1.531-.281c-.397-.168-.72-.394-1.091-.656l-.015-.011h0c-.359-.253-.765-.54-1.277-.757-.528-.224-1.15-.366-1.952-.366v1.08Z" style="fill:#000001; fill-rule:evenodd; stroke-width:0px;"/><path d="m417.755,225.577c-.388-.164-.866-.281-1.531-.281v-1.08c.802,0,1.424.143,1.952.366.512.217.919.504,1.277.757l.015.011c.371.262.693.487,1.091.656.388.164.866.281,1.531.281s1.143-.116,1.531-.281c.397-.168.72-.394,1.091-.656l.015-.011c.359-.253.765-.54,1.278-.757.528-.224,1.151-.366,1.952-.366s1.424.143,1.952.366c.512.217.919.504,1.277.757l.015.011c.371.262.693.487,1.091.656.388.164.866.281,1.531.281v1.08c-.802,0-1.424-.142-1.952-.366-.512-.217-.919-.504-1.277-.757l-.015-.011c-.371-.262-.693-.487-1.091-.656-.388-.164-.866-.281-1.531-.281s-1.143.116-1.531.281c-.398.168-.72.394-1.091.656l-.015.011c-.359.253-.765.54-1.277.757-.528.224-1.15.366-1.952.366s-1.424-.143-1.952-.366c-.512-.217-.919-.504-1.277-.757h0s-.015-.011-.015-.011c-.371-.262-.693-.487-1.091-.656Zm0,3.876c-.388-.164-.866-.281-1.531-.281v-1.08c.802,0,1.424.143,1.952.366.512.217.919.504,1.277.757l.015.011c.371.262.693.487,1.091.656.388.164.866.281,1.531.281s1.143-.116,1.531-.281c.397-.168.72-.394,1.091-.656l.015-.011c.359-.253.765-.54,1.278-.757.528-.224,1.151-.366,1.952-.366s1.424.143,1.952.366c.512.217.919.504,1.277.757l.015.011c.371.262.693.487,1.091.656.388.164.866.281,1.531.281v1.08c-.802,0-1.424-.143-1.952-.366-.512-.217-.919-.504-1.277-.757l-.015-.011c-.371-.262-.693-.487-1.091-.656-.388-.164-.866-.281-1.531-.281s-1.143.116-1.531.281c-.398.168-.72.394-1.091.656l-.015.011c-.359.253-.765.54-1.277.757-.528.224-1.15.366-1.952.366s-1.424-.143-1.952-.366c-.512-.217-.919-.504-1.277-.757l-.015-.011c-.371-.262-.693-.487-1.091-.656Zm-1.531,3.595c.665,0,1.143.116,1.531.281.397.168.72.394,1.091.656l.015.011h0c.359.253.765.54,1.277.757.528.224,1.15.366,1.952.366s1.424-.142,1.952-.366c.512-.217.919-.504,1.277-.757l.015-.011c.371-.262.693-.487,1.091-.656.388-.164.866-.281,1.531-.281s1.143.116,1.531.281c.397.168.72.394,1.091.656l.015.011c.359.253.765.54,1.277.757.528.224,1.15.366,1.952.366v-1.08c-.665,0-1.143-.116-1.531-.281-.397-.168-.72-.394-1.091-.656l-.015-.011c-.359-.253-.765-.54-1.277-.757-.528-.224-1.15-.366-1.952-.366s-1.424.143-1.952.366c-.512.217-.919.504-1.278.757l-.015.011c-.371.262-.693.487-1.091.656-.388.164-.866.281-1.531.281s-1.143-.116-1.531-.281c-.397-.168-.72-.394-1.091-.656l-.015-.011h0c-.359-.253-.765-.54-1.277-.757-.528-.224-1.15-.366-1.952-.366v1.08Z" style="fill:#000001; fill-rule:evenodd; stroke-width:0px;"/></g></svg>