<?xml version="1.0" encoding="UTF-8"?><svg id="uuid-3bf10921-7e90-4e3d-90cf-3a6079532eb7" xmlns="http://www.w3.org/2000/svg" width="119.3276" height="39" viewBox="0 0 119.3276 39"><rect x="-.2406" y="-.6499" width="119.8088" height="40.2997"/><rect x="73.4035" y="3.8623" width="43.9438" height="31.2753" rx="3.9904" ry="3.9904" style="fill:#fff;"/><rect x="1.9804" y="3.8623" width="64.9938" height="31.2753" rx="3.9904" ry="3.9904" style="fill:#3b3938;"/><path d="m35.6654,24.8133c0,.7402-.6021,1.3422-1.3422,1.3422s-1.3422-.5983-1.3422-1.3422v-3.8311c0-.7402.6021-1.3422,1.3422-1.3422s1.3422.6021,1.3422,1.3422v3.8311Z" style="fill:#fff; fill-rule:evenodd;"/><path d="m28.3777,16.7297h11.9616v11.0289c0,.8165-.6629,1.4794-1.4794,1.4794h-9.0027c-.8165,0-1.4794-.6629-1.4794-1.4794v-11.0289h0Z" style="fill:none; stroke:#fff; stroke-miterlimit:10; stroke-width:2px;"/><path d="m28.3777,16.7297v-1.2835c0-3.3031,2.6777-5.9808,5.9808-5.9808s5.9808,2.6777,5.9808,5.9808v1.2835" style="fill:none; fill-rule:evenodd; stroke:#fff; stroke-miterlimit:10; stroke-width:2px;"/><path d="m87.2853,17.6259v9.29c0,.6882.5579,1.2462,1.2462,1.2462h7.5832c.6883,0,1.2462-.5579,1.2462-1.2462v-9.29h-10.0756Zm6.1387,6.8091c0,.6235-.5072,1.1306-1.1306,1.1306s-1.1306-.504-1.1306-1.1306v-3.2271c0-.6235.5072-1.1306,1.1306-1.1306s1.1306.5072,1.1306,1.1306v3.2271Z" style="fill:#000001; fill-rule:evenodd;"/><path d="m87.2853,17.5533h10.0756v9.29c0,.6878-.5584,1.2462-1.2462,1.2462h-7.5833c-.6878,0-1.2462-.5584-1.2462-1.2462v-9.29h0Z" style="fill:none; stroke:#000001; stroke-miterlimit:10; stroke-width:2px;"/><path d="m97.3609,17.6259v-2.983c0-1.576,1.2776-2.8537,2.8537-2.8537h0c1.576,0,2.8537,1.2776,2.8537,2.8537v1.3401" style="fill:none; fill-rule:evenodd; stroke:#000001; stroke-miterlimit:10; stroke-width:2px;"/></svg>