<svg xmlns="http://www.w3.org/2000/svg" width="161.749" height="135.811" viewBox="0 0 161.749 135.811"><g id="below"><path d="M155.749,45.8l-7.284.06c-4.972.041-10.8.086-17.345.133" style="fill:none;stroke:#a7abae;stroke-linecap:round;stroke-linejoin:round;stroke-width:0.5px"/><path d="M131.12,39.319c5.492-.04,10.4-.073,14.649-.1l8.883-.06" style="fill:none;stroke:#a7abae;stroke-linecap:round;stroke-linejoin:round;stroke-width:0.5px"/><path d="M157.1,26.907l-8.039-.058c-26.463-.191-49.654-.288-69.031-.288-13.943,0-22.485.017-30.119.032-6.171.012-11.749.024-19.1.024A60.8,60.8,0,0,1,15.121,24.58,64.094,64.094,0,0,0,3.766,22.686" style="fill:none;stroke:#a7abae;stroke-linecap:round;stroke-linejoin:round;stroke-width:0.5px"/><path d="M5.9,19.181c9.831.983,13.582,3.76,24.9,3.76,16.454,0,24.01-.056,49.223-.056,21.042,0,45.242.115,69.979.295l6.44.047" style="fill:none;stroke:#a7abae;stroke-linecap:round;stroke-linejoin:round;stroke-width:0.5px"/><path d="M155.765,20.778l-6.334-.045c-24.505-.178-48.5-.291-69.405-.291-25.213,0-28.79.056-45.244.056-12.051,0-13.666-3.209-27.954-4.418" style="fill:none;stroke:#a7abae;stroke-linecap:round;stroke-linejoin:round;stroke-width:0.5px"/><line x1="6.134" y1="85.309" x2="25.479" y2="85.309" style="fill:none;stroke:#a7abae;stroke-linecap:round;stroke-linejoin:round;stroke-width:0.5px"/><path d="M128.745,89.421c-10.766,15.12-14.386,19.139-24.7,19.139H56c-10.312,0-13.933-4.024-24.7-19.139" style="fill:none;stroke:#a7abae;stroke-linecap:round;stroke-linejoin:round"/><path d="M121.654,89.708c-6.265,10.65-10.027,13.794-17.744,13.794H56.142c-7.717,0-11.479-3.144-17.744-13.794" style="fill:none;stroke:#a7abae;stroke-linecap:round;stroke-linejoin:round;stroke-width:0.5px"/><path d="M124.467,89.708c-6.682,11.591-11,16.225-20.557,16.225H56.142c-9.485,0-13.813-4.526-20.556-16.225" style="fill:none;stroke:#a7abae;stroke-linecap:round;stroke-linejoin:round;stroke-width:0.5px"/><path d="M11.862,63.639c3.116.853,4.638,3.32,7.268,8.863,6.645,14,7,17.206,15.9,17.206h89.99c8.9,0,9.256-3.2,15.9-17.206,2.887-6.084,4.438-8.837,8.228-9.612" style="fill:none;stroke:#a7abae;stroke-linecap:round;stroke-linejoin:round"/><path d="M11.865,60.9a9.287,9.287,0,0,1,2.072.634c3.457,1.517,5.247,4.83,7.614,9.817.753,1.587,1.425,3.036,2.039,4.358,4.885,10.519,5.4,11.317,11.441,11.317h89.99c6.043,0,6.557-.8,11.441-11.318.614-1.321,1.287-2.77,2.039-4.357,3.076-6.481,5.128-10.254,10.53-11.165" style="fill:none;stroke:#a7abae;stroke-linecap:round;stroke-linejoin:round;stroke-width:0.5px"/><path d="M139.428,75.686c1.093,0,3.867,0,8.076-.033" style="fill:none;stroke:#a7abae;stroke-linecap:round;stroke-linejoin:round"/><path d="M20.61,75.655q-4.368.048-8.746.052-1.056,0-2.112,0" style="fill:none;stroke:#a7abae;stroke-linecap:round;stroke-linejoin:round"/><path d="M116.759,129.92l1.753-16.8a7.06,7.06,0,0,1,7.02-6.331c7.561-.016,15.78-.059,24.278-.121" style="fill:none;stroke:#a7abae;stroke-linecap:round;stroke-linejoin:round"/><path d="M5.479,106.662c9.122.062,18.162.109,26.371.126a7.06,7.06,0,0,1,7.021,6.331l2.082,19.954" style="fill:none;stroke:#a7abae;stroke-linecap:round;stroke-linejoin:round"/><path d="M7.231,12.027c23.857-.081,50.68-.155,72.81-.155,3.436,0,35.075-.007,67.273.237l6.237.047" style="fill:none;stroke:#a7abae;stroke-linecap:round;stroke-linejoin:round"/><line x1="28.932" y1="39.334" x2="7.969" y2="39.334" style="fill:none;stroke:#a7abae;stroke-linecap:round;stroke-linejoin:round;stroke-width:0.5px"/><line x1="28.932" y1="45.853" x2="10.045" y2="45.853" style="fill:none;stroke:#a7abae;stroke-linecap:round;stroke-linejoin:round;stroke-width:0.5px"/><line x1="41.264" y1="94.296" x2="118.789" y2="94.296" style="fill:none;stroke:#a7abae;stroke-linecap:round;stroke-linejoin:round;stroke-width:0.5px"/><line x1="45.589" y1="99.614" x2="114.463" y2="99.614" style="fill:none;stroke:#a7abae;stroke-linecap:round;stroke-linejoin:round;stroke-width:0.5px"/><line x1="78.072" y1="99.614" x2="78.072" y2="103.502" style="fill:none;stroke:#a7abae;stroke-linecap:round;stroke-linejoin:round;stroke-width:0.5px"/><line x1="78.072" y1="89.708" x2="78.072" y2="94.296" style="fill:none;stroke:#a7abae;stroke-linecap:round;stroke-linejoin:round;stroke-width:0.5px"/><line x1="75.831" y1="99.614" x2="75.831" y2="103.502" style="fill:none;stroke:#a7abae;stroke-linecap:round;stroke-linejoin:round;stroke-width:0.5px"/><line x1="75.831" y1="89.708" x2="75.831" y2="94.296" style="fill:none;stroke:#a7abae;stroke-linecap:round;stroke-linejoin:round;stroke-width:0.5px"/><line x1="71.043" y1="99.614" x2="71.043" y2="103.502" style="fill:none;stroke:#a7abae;stroke-linecap:round;stroke-linejoin:round;stroke-width:0.5px"/><line x1="71.043" y1="89.708" x2="71.043" y2="94.296" style="fill:none;stroke:#a7abae;stroke-linecap:round;stroke-linejoin:round;stroke-width:0.5px"/><line x1="66.256" y1="99.614" x2="66.256" y2="103.502" style="fill:none;stroke:#a7abae;stroke-linecap:round;stroke-linejoin:round;stroke-width:0.5px"/><line x1="66.256" y1="89.708" x2="66.256" y2="94.296" style="fill:none;stroke:#a7abae;stroke-linecap:round;stroke-linejoin:round;stroke-width:0.5px"/><line x1="61.571" y1="99.614" x2="61.571" y2="103.502" style="fill:none;stroke:#a7abae;stroke-linecap:round;stroke-linejoin:round;stroke-width:0.5px"/><line x1="61.571" y1="89.708" x2="61.571" y2="94.296" style="fill:none;stroke:#a7abae;stroke-linecap:round;stroke-linejoin:round;stroke-width:0.5px"/><line x1="56.681" y1="99.614" x2="56.681" y2="103.502" style="fill:none;stroke:#a7abae;stroke-linecap:round;stroke-linejoin:round;stroke-width:0.5px"/><line x1="56.681" y1="89.708" x2="56.681" y2="94.296" style="fill:none;stroke:#a7abae;stroke-linecap:round;stroke-linejoin:round;stroke-width:0.5px"/><line x1="52.763" y1="99.614" x2="52.763" y2="103.057" style="fill:none;stroke:#a7abae;stroke-linecap:round;stroke-linejoin:round;stroke-width:0.5px"/><line x1="52.763" y1="89.708" x2="52.763" y2="94.296" style="fill:none;stroke:#a7abae;stroke-linecap:round;stroke-linejoin:round;stroke-width:0.5px"/><line x1="48.635" y1="99.614" x2="48.635" y2="101.864" style="fill:none;stroke:#a7abae;stroke-linecap:round;stroke-linejoin:round;stroke-width:0.5px"/><line x1="48.635" y1="89.708" x2="48.635" y2="94.296" style="fill:none;stroke:#a7abae;stroke-linecap:round;stroke-linejoin:round;stroke-width:0.5px"/><line x1="84.221" y1="99.614" x2="84.221" y2="103.502" style="fill:none;stroke:#a7abae;stroke-linecap:round;stroke-linejoin:round;stroke-width:0.5px"/><line x1="84.221" y1="89.708" x2="84.221" y2="94.296" style="fill:none;stroke:#a7abae;stroke-linecap:round;stroke-linejoin:round;stroke-width:0.5px"/><line x1="89.009" y1="99.614" x2="89.009" y2="103.502" style="fill:none;stroke:#a7abae;stroke-linecap:round;stroke-linejoin:round;stroke-width:0.5px"/><line x1="89.009" y1="89.708" x2="89.009" y2="94.296" style="fill:none;stroke:#a7abae;stroke-linecap:round;stroke-linejoin:round;stroke-width:0.5px"/><line x1="93.796" y1="99.614" x2="93.796" y2="103.502" style="fill:none;stroke:#a7abae;stroke-linecap:round;stroke-linejoin:round;stroke-width:0.5px"/><line x1="93.796" y1="89.708" x2="93.796" y2="94.296" style="fill:none;stroke:#a7abae;stroke-linecap:round;stroke-linejoin:round;stroke-width:0.5px"/><line x1="98.481" y1="99.614" x2="98.481" y2="103.502" style="fill:none;stroke:#a7abae;stroke-linecap:round;stroke-linejoin:round;stroke-width:0.5px"/><line x1="98.481" y1="89.708" x2="98.481" y2="94.296" style="fill:none;stroke:#a7abae;stroke-linecap:round;stroke-linejoin:round;stroke-width:0.5px"/><line x1="103.371" y1="99.614" x2="103.371" y2="103.502" style="fill:none;stroke:#a7abae;stroke-linecap:round;stroke-linejoin:round;stroke-width:0.5px"/><line x1="103.371" y1="89.708" x2="103.371" y2="94.296" style="fill:none;stroke:#a7abae;stroke-linecap:round;stroke-linejoin:round;stroke-width:0.5px"/><line x1="107.289" y1="99.614" x2="107.289" y2="103.057" style="fill:none;stroke:#a7abae;stroke-linecap:round;stroke-linejoin:round;stroke-width:0.5px"/><line x1="107.289" y1="89.708" x2="107.289" y2="94.296" style="fill:none;stroke:#a7abae;stroke-linecap:round;stroke-linejoin:round;stroke-width:0.5px"/><line x1="111.417" y1="99.614" x2="111.417" y2="101.864" style="fill:none;stroke:#a7abae;stroke-linecap:round;stroke-linejoin:round;stroke-width:0.5px"/><line x1="111.417" y1="89.708" x2="111.417" y2="94.296" style="fill:none;stroke:#a7abae;stroke-linecap:round;stroke-linejoin:round;stroke-width:0.5px"/><line x1="81.98" y1="99.614" x2="81.98" y2="103.502" style="fill:none;stroke:#a7abae;stroke-linecap:round;stroke-linejoin:round;stroke-width:0.5px"/><line x1="81.98" y1="89.708" x2="81.98" y2="94.296" style="fill:none;stroke:#a7abae;stroke-linecap:round;stroke-linejoin:round;stroke-width:0.5px"/><line x1="10.692" y1="71.858" x2="18.823" y2="71.858" style="fill:none;stroke:#a7abae;stroke-linecap:round;stroke-linejoin:round;stroke-width:0.5px"/><line x1="140.922" y1="71.858" x2="150.202" y2="71.858" style="fill:none;stroke:#a7abae;stroke-linecap:round;stroke-linejoin:round;stroke-width:0.5px"/></g><g id="illustration"><path d="M28.932,80.553a2.193,2.193,0,0,0,2.193,2.193h97.8a2.193,2.193,0,0,0,2.193-2.193V32.867a2.193,2.193,0,0,0-2.193-2.193H31.121a2.189,2.189,0,0,0-2.189,2.189Z" style="fill:#d3d5d6;stroke:#000001;stroke-miterlimit:10;stroke-width:1.5px"/><rect x="32.564" y="34.306" width="94.923" height="44.807" rx="0.969" style="fill:none;stroke:#000001;stroke-miterlimit:10;stroke-width:0.5px"/></g><g id="above"><g id="Offset_Group" data-name="Offset Group"><path d="M11.834,60.654a3.2,3.2,0,0,0,.7-.267l1.7-.894a1.3,1.3,0,0,0,.508-.476,1.337,1.337,0,0,0,.191-.671,1.1,1.1,0,0,0,.137-.081,1.471,1.471,0,0,0,.508-.728l.006-.015a.71.71,0,0,0,.022-.072s.454-1.4.444-1.377c.018-.045.032-.088.05-.144a2.655,2.655,0,0,0,.1-.717v-3.03a2.671,2.671,0,0,0-.1-.736c-.012-.038-.027-.081-.034-.1,0,0-.453-1.4-.442-1.359a.946.946,0,0,0-.035-.118l-.015-.045a1.441,1.441,0,0,0-.5-.7.909.909,0,0,0-.146-.084,1.312,1.312,0,0,0-.209-.583,1.285,1.285,0,0,0-.564-.477l-1.723-.753a3.093,3.093,0,0,0-1.244-.259h-.755" style="fill:none;stroke:#a7abae;stroke-linecap:round;stroke-linejoin:round;stroke-width:0.5px"/><path d="M11.774,60.411a2.914,2.914,0,0,0,.645-.245l1.7-.895a1.033,1.033,0,0,0,.41-.384,1.073,1.073,0,0,0,.155-.556V58.17a.692.692,0,0,0,.244-.11,1.221,1.221,0,0,0,.412-.594l.009-.027a.488.488,0,0,0,.02-.066s.454-1.4.449-1.39c.015-.039.028-.077.042-.122a2.362,2.362,0,0,0,.089-.649v-3.03a2.417,2.417,0,0,0-.091-.659c-.012-.036-.025-.073-.035-.1,0,0-.454-1.4-.448-1.38a.584.584,0,0,0-.027-.091l-.014-.042a1.189,1.189,0,0,0-.405-.577.7.7,0,0,0-.245-.11v-.037a1.066,1.066,0,0,0-.176-.588,1.045,1.045,0,0,0-.455-.385l-1.723-.753a2.861,2.861,0,0,0-1.144-.238h-.755" style="fill:none;stroke:#a7abae;stroke-linecap:round;stroke-linejoin:round;stroke-width:0.5px"/></g><path d="M11.713,60.168a2.588,2.588,0,0,0,.59-.224l1.7-.894a.808.808,0,0,0,.43-.719v-.4h.115c.23,0,.432-.214.551-.539.009-.032.023-.065.031-.1l.454-1.4c.013-.033.024-.065.035-.1a2.147,2.147,0,0,0,.079-.581v-3.03a2.153,2.153,0,0,0-.079-.581c-.011-.034-.022-.067-.035-.1l-.454-1.4c-.008-.036-.022-.068-.031-.1-.119-.324-.321-.537-.551-.537h-.115v-.273a.81.81,0,0,0-.481-.744l-1.724-.753a2.607,2.607,0,0,0-1.043-.217h-.755" style="fill:none;stroke:#a7abae;stroke-linecap:round;stroke-linejoin:round;stroke-width:0.5px"/><path d="M14.552,57.935H13.3c-.368,0-.667-.547-.667-1.218v-6.04c0-.671.3-1.218.667-1.218h1.257" style="fill:none;stroke:#a7abae;stroke-linecap:round;stroke-linejoin:round;stroke-width:0.5px"/><path d="M2.451,92.009a59.1,59.1,0,0,0,9.415-31.543A58.267,58.267,0,0,0,2.7,28.92" style="fill:none;stroke:#a7abae;stroke-linecap:round;stroke-linejoin:round"/></g></svg>