<svg xmlns="http://www.w3.org/2000/svg" width="161.749" height="161.749" viewBox="0 0 161.749 161.749"><g id="below"><path d="M1.337,147.152H13.693l1.316-1.317a3.668,3.668,0,0,1,2.591-1.073h7.828l.357,4.093a.759.759,0,0,0,.756.693h5.033a3.618,3.618,0,0,0,3.582-3.106l.922-6.452a35.3,35.3,0,0,0,.346-5.608c-.117-6.574-.443-23.326-.935-37.113-.122-3.4-.179-6.454-5.917-6.454,0,0,4.034-29.223,4.034-42.131,0-10.782-1.813-31.947-4.448-46.723" style="fill:none;stroke:#a7abae;stroke-linecap:round;stroke-linejoin:round"/><path d="M42.483,50.066c-2.438,12.5-2.732,17.1-2.035,32.061.406,8.711.617,15.23,1.655,20.421,2.635,13.151,7.3,14.018,38.574,14.018" style="fill:none;stroke:#a7abae;stroke-linecap:round;stroke-linejoin:round;stroke-width:0.5px"/><path d="M41.8,44.884c-.755,4.2.06,6.379,4.868,6.379H76.258c2.4,0,4.42-.951,4.42-3.067V5.611" style="fill:none;stroke:#a7abae;stroke-linecap:round;stroke-linejoin:round;stroke-width:0.5px"/><path d="M46.525,51.26c0,12.326.281,36.832,1.577,47.026,1.314,10.341,1.422,11.186,32.575,11.186" style="fill:none;stroke:#a7abae;stroke-linecap:round;stroke-linejoin:round;stroke-width:0.5px"/><path d="M44.273,51.007c-.71,11.661-.083,37.029,1.262,47.607,1.6,12.617,3.675,13.446,35.143,13.446" style="fill:none;stroke:#a7abae;stroke-linecap:round;stroke-linejoin:round;stroke-width:0.5px"/><path d="M46.832,75.757a1.313,1.313,0,0,1,1.312-1.345H80.678" style="fill:none;stroke:#a7abae;stroke-linecap:round;stroke-linejoin:round;stroke-width:0.5px"/><path d="M67.945,104.93a.974.974,0,0,1-.975.974H64.55a.975.975,0,1,1,0-1.949h2.42A.974.974,0,0,1,67.945,104.93Z" style="fill:none;stroke:#000001;stroke-linecap:round;stroke-linejoin:round;stroke-width:0.5px"/><line x1="46.534" y1="55.116" x2="80.678" y2="55.116" style="fill:none;stroke:#a7abae;stroke-linecap:round;stroke-linejoin:round;stroke-width:0.5px"/><line x1="80.678" y1="71.049" x2="46.72" y2="71.049" style="fill:none;stroke:#a7abae;stroke-linecap:round;stroke-linejoin:round;stroke-width:0.5px"/><line x1="78.769" y1="71.049" x2="78.769" y2="55.116" style="fill:none;stroke:#a7abae;stroke-linecap:round;stroke-linejoin:round;stroke-width:0.5px"/><line x1="82.689" y1="71.049" x2="82.689" y2="55.116" style="fill:none;stroke:#a7abae;stroke-linecap:round;stroke-linejoin:round;stroke-width:0.5px"/><line x1="46.542" y1="57.689" x2="78.769" y2="57.689" style="fill:none;stroke:#a7abae;stroke-linecap:round;stroke-linejoin:round;stroke-width:0.5px"/><line x1="46.586" y1="61.15" x2="78.769" y2="61.15" style="fill:none;stroke:#a7abae;stroke-linecap:round;stroke-linejoin:round;stroke-width:0.5px"/><line x1="46.631" y1="64.611" x2="78.769" y2="64.611" style="fill:none;stroke:#a7abae;stroke-linecap:round;stroke-linejoin:round;stroke-width:0.5px"/><line x1="46.676" y1="68.072" x2="78.769" y2="68.072" style="fill:none;stroke:#a7abae;stroke-linecap:round;stroke-linejoin:round;stroke-width:0.5px"/><path d="M67.71,64.7a1.277,1.277,0,0,1-1.277,1.277H57.356a1.278,1.278,0,0,1,0-2.555h9.077A1.278,1.278,0,0,1,67.71,64.7Z" style="fill:#fff;stroke:#a7abae;stroke-linecap:round;stroke-linejoin:round;stroke-width:0.5px"/><path d="M29.789,90.816q-.119.871-.323,1.746c-1.373,5.887-6.626,16.121-5.344,33.289.49,6.568,1.717,20.658,1.717,20.658" style="fill:none;stroke:#a7abae;stroke-linecap:round;stroke-linejoin:round;stroke-width:0.5px"/><path d="M23.914,3.906c2.37,10.985,3.042,17.437,4.993,32.679,2.126,16.6,2.039,48.343.665,54.23" style="fill:none;stroke:#a7abae;stroke-linecap:round;stroke-linejoin:round;stroke-width:0.5px"/><path d="M.618,125.13c8.375-.141,15.478-.314,20.231-.513,3.3-.139,3.073-3.915,3.073-3.915l-.023-1.571c-1.828-21.346,3.947-24.849,3.072-55.61-.508-17.849-4.979-42.8-8.153-57.253" style="fill:none;stroke:#a7abae;stroke-linecap:round;stroke-linejoin:round;stroke-width:0.5px"/><path d="M118.873,50.066c2.437,12.5,2.732,17.1,2.035,32.061-.406,8.711-.618,15.23-1.656,20.421-2.634,13.151-7.3,14.018-38.574,14.018" style="fill:none;stroke:#a7abae;stroke-linecap:round;stroke-linejoin:round;stroke-width:0.5px"/><path d="M118.735,114.457c-4,8.212-12.849,8.9-38.057,8.9-25.233,0-34.072-.688-38.069-8.922" style="fill:none;stroke:#a7abae;stroke-linecap:round;stroke-linejoin:round;stroke-width:0.5px"/><path d="M119.558,44.884c.756,4.2-.059,6.379-4.867,6.379H85.1c-2.4,0-4.42-.951-4.42-3.067V5.611" style="fill:none;stroke:#a7abae;stroke-linecap:round;stroke-linejoin:round;stroke-width:0.5px"/><path d="M114.831,51.26c0,12.326-.281,36.832-1.578,47.026-1.314,10.341-1.421,11.186-32.575,11.186" style="fill:none;stroke:#a7abae;stroke-linecap:round;stroke-linejoin:round;stroke-width:0.5px"/><path d="M117.083,51.007c.71,11.661.082,37.029-1.262,47.607-1.6,12.617-3.676,13.446-35.143,13.446" style="fill:none;stroke:#a7abae;stroke-linecap:round;stroke-linejoin:round;stroke-width:0.5px"/><path d="M114.523,75.757a1.312,1.312,0,0,0-1.312-1.345H80.678" style="fill:none;stroke:#a7abae;stroke-linecap:round;stroke-linejoin:round;stroke-width:0.5px"/><path d="M93.41,104.93a.975.975,0,0,0,.975.974h2.421a.975.975,0,0,0,0-1.949H94.385A.975.975,0,0,0,93.41,104.93Z" style="fill:none;stroke:#000001;stroke-linecap:round;stroke-linejoin:round;stroke-width:0.5px"/><line x1="114.822" y1="55.116" x2="80.678" y2="55.116" style="fill:none;stroke:#a7abae;stroke-linecap:round;stroke-linejoin:round;stroke-width:0.5px"/><line x1="80.678" y1="71.049" x2="114.636" y2="71.049" style="fill:none;stroke:#a7abae;stroke-linecap:round;stroke-linejoin:round;stroke-width:0.5px"/><line x1="114.814" y1="57.689" x2="82.689" y2="57.689" style="fill:none;stroke:#a7abae;stroke-linecap:round;stroke-linejoin:round;stroke-width:0.5px"/><line x1="114.769" y1="61.15" x2="82.689" y2="61.15" style="fill:none;stroke:#a7abae;stroke-linecap:round;stroke-linejoin:round;stroke-width:0.5px"/><line x1="114.725" y1="64.611" x2="82.689" y2="64.611" style="fill:none;stroke:#a7abae;stroke-linecap:round;stroke-linejoin:round;stroke-width:0.5px"/><line x1="114.68" y1="68.072" x2="82.689" y2="68.072" style="fill:none;stroke:#a7abae;stroke-linecap:round;stroke-linejoin:round;stroke-width:0.5px"/><path d="M93.646,64.7a1.277,1.277,0,0,0,1.277,1.277H104a1.278,1.278,0,1,0,0-2.555H94.923A1.278,1.278,0,0,0,93.646,64.7Z" style="fill:#fff;stroke:#a7abae;stroke-linecap:round;stroke-linejoin:round;stroke-width:0.5px"/><path d="M80.678,8.88a1.157,1.157,0,0,0-.421-.886,1.267,1.267,0,0,0-.974-.28L76.266,8.1A1.2,1.2,0,0,0,75.2,9.223L74.37,29.774a1.835,1.835,0,0,0,.548,1.376,2.008,2.008,0,0,0,1.415.577H79.42a1.231,1.231,0,0,1,1.258,1.2" style="fill:none;stroke:#a7abae;stroke-linecap:round;stroke-linejoin:round;stroke-width:0.5px"/><path d="M80.678,8.88a1.154,1.154,0,0,1,.421-.886,1.267,1.267,0,0,1,.974-.28L85.09,8.1a1.2,1.2,0,0,1,1.065,1.121l.83,20.551a1.834,1.834,0,0,1-.547,1.376,2.009,2.009,0,0,1-1.416.577H81.935a1.231,1.231,0,0,0-1.257,1.2" style="fill:none;stroke:#a7abae;stroke-linecap:round;stroke-linejoin:round;stroke-width:0.5px"/><path d="M89.022,118.057h-16.7a1.5,1.5,0,0,0-1.5,1.5v2.257a1.5,1.5,0,0,0,1.5,1.5h16.7a1.5,1.5,0,0,0,1.5-1.5v-2.257A1.5,1.5,0,0,0,89.022,118.057Z" style="fill:none;stroke:#a7abae;stroke-linecap:round;stroke-linejoin:round;stroke-width:0.5px"/><path d="M87.2,120.071H74.143A1.072,1.072,0,0,0,72.97,121v1.393a1.071,1.071,0,0,0,1.173.925H87.2a1.071,1.071,0,0,0,1.173-.925V121A1.071,1.071,0,0,0,87.2,120.071Z" style="fill:none;stroke:#a7abae;stroke-linecap:round;stroke-linejoin:round;stroke-width:0.5px"/><rect x="52.69" y="77.567" width="55.975" height="23.235" style="fill:none;stroke:#a7abae;stroke-linecap:round;stroke-linejoin:round;stroke-width:0.5px"/><g id="Offset_Group" data-name="Offset Group"><path d="M46.334,158.154a14.916,14.916,0,0,0,8.076,2.2h52.525c3.946,0,7.5-1.325,9.608-3.434a6.227,6.227,0,0,0,1.981-4.389l.957-37.894a31.3,31.3,0,0,0,2.257-7.674c.985-5.288,1.265-12.021,1.587-19.731q.111-2.64.237-5.436c.714-15.307-.471-21.747-1.992-30-.206-1.117-.417-2.265-.631-3.473-1.8-10.144-3.937-20.768-7.658-37.492a7.454,7.454,0,0,0-1.969-3.953,6.609,6.609,0,0,0-3.614-1.6A166.964,166.964,0,0,0,82.653,3.427a3.043,3.043,0,0,0-1.975.586A3.048,3.048,0,0,0,78.7,3.427,166.951,166.951,0,0,0,53.658,5.275a6.609,6.609,0,0,0-3.614,1.6,7.447,7.447,0,0,0-1.969,3.953c-3.722,16.724-5.863,27.348-7.658,37.492-.214,1.208-.426,2.356-.631,3.473-1.522,8.257-2.706,14.7-1.992,30,.087,1.863.162,3.676.236,5.436.323,7.71.6,14.443,1.588,19.731a31.385,31.385,0,0,0,2.245,7.65c.068,2.675.957,37.9.957,37.9h0a5.692,5.692,0,0,0,.708,2.723A8.29,8.29,0,0,0,46.334,158.154Z" style="fill:none;stroke:#a7abae;stroke-linecap:round;stroke-linejoin:round;stroke-width:0.5px"/><path d="M46.471,157.945A14.664,14.664,0,0,0,54.41,160.1h52.525c3.9,0,7.38-1.31,9.431-3.361a5.98,5.98,0,0,0,1.908-4.218l.958-37.947a30.908,30.908,0,0,0,2.26-7.661c.981-5.266,1.261-11.979,1.584-19.7q.11-2.64.236-5.436c.713-15.282-.469-21.7-1.988-29.948-.206-1.117-.417-2.266-.631-3.475-1.8-10.139-3.935-20.759-7.656-37.481a7.218,7.218,0,0,0-1.9-3.826,6.367,6.367,0,0,0-3.484-1.534,166.68,166.68,0,0,0-25-1.844A2.66,2.66,0,0,0,80.7,4.33l-.021.022-.022-.022A2.658,2.658,0,0,0,78.7,3.677a166.69,166.69,0,0,0-25,1.844,6.364,6.364,0,0,0-3.483,1.534,7.211,7.211,0,0,0-1.9,3.826C44.6,27.6,42.458,38.223,40.663,48.362c-.214,1.209-.426,2.358-.631,3.475-1.52,8.245-2.7,14.666-1.989,29.948q.131,2.794.237,5.436c.323,7.717.6,14.43,1.584,19.7a30.936,30.936,0,0,0,2.248,7.636c.056,2.216.958,37.959.958,37.959h0a5.443,5.443,0,0,0,.678,2.6A8.047,8.047,0,0,0,46.471,157.945Z" style="fill:none;stroke:#a7abae;stroke-linecap:round;stroke-linejoin:round;stroke-width:0.5px"/><path d="M46.608,157.736a14.421,14.421,0,0,0,7.8,2.118h52.525c3.848,0,7.261-1.294,9.254-3.288a5.733,5.733,0,0,0,1.835-4.047l.96-38a30.512,30.512,0,0,0,2.262-7.647c.977-5.245,1.257-11.937,1.58-19.66q.111-2.64.236-5.438c.712-15.257-.467-21.658-1.984-29.891-.206-1.116-.417-2.266-.632-3.476-1.793-10.135-3.933-20.751-7.653-37.471a6.971,6.971,0,0,0-1.825-3.7,6.121,6.121,0,0,0-3.353-1.469A166.427,166.427,0,0,0,82.653,3.927a2.411,2.411,0,0,0-1.777.58,1.508,1.508,0,0,0-.2.243,1.563,1.563,0,0,0-.2-.243,2.416,2.416,0,0,0-1.778-.58A166.423,166.423,0,0,0,53.741,5.768a6.121,6.121,0,0,0-3.353,1.469,6.964,6.964,0,0,0-1.825,3.7c-3.721,16.72-5.86,27.336-7.654,37.471-.214,1.21-.426,2.36-.632,3.476-1.517,8.233-2.695,14.634-1.984,29.891q.131,2.8.237,5.438c.323,7.723.6,14.415,1.579,19.66a30.607,30.607,0,0,0,2.251,7.622c.04,1.595.96,38.019.96,38.019A5.191,5.191,0,0,0,43.968,155,7.787,7.787,0,0,0,46.608,157.736Z" style="fill:none;stroke:#a7abae;stroke-linecap:round;stroke-linejoin:round;stroke-width:0.5px"/></g><path d="M80.678,5.611c0-.538.317-1.434,1.975-1.434a166.307,166.307,0,0,1,24.921,1.837c2.638.443,4.217,1.568,4.975,4.975,3.72,16.719,5.858,27.331,7.651,37.46s3.419,16.011,2.613,33.312c-.469,10.056-.618,18.652-1.812,25.064a30.123,30.123,0,0,1-2.266,7.632l-.961,38.055c0,3.917-4.853,7.092-10.839,7.092H54.41c-5.987,0-10.84-3.175-10.84-7.092l-.961-38.079h0a30.168,30.168,0,0,1-2.254-7.608c-1.194-6.412-1.343-15.008-1.812-25.064-.807-17.3.82-23.182,2.612-33.312s3.932-20.741,7.652-37.46c.758-3.407,2.337-4.532,4.975-4.975A166.294,166.294,0,0,1,78.7,4.177C80.361,4.177,80.678,5.073,80.678,5.611Z" style="fill:none;stroke:#a7abae;stroke-linecap:round;stroke-linejoin:round;stroke-width:0.5px"/><path d="M19.731,144.762l-1.074,3.464a9.33,9.33,0,0,0-.418,2.761v6.276c0,1.147,1.359,2.032,3.223,2.032h8.054c2.024,0,3.876-1.044,4.137-2.333l2.136-14.892" style="fill:none;stroke:#a7abae;stroke-linecap:round;stroke-linejoin:round"/><path d="M132.2,1.961c-2.635,14.776-4.449,35.941-4.449,46.723,0,12.908,4.034,42.131,4.034,42.131-5.737,0-5.795,3.05-5.916,6.454-.493,13.787-.818,30.539-.936,37.113a35.662,35.662,0,0,0,.347,5.608l.922,6.452a3.617,3.617,0,0,0,3.581,3.106h5.034a.759.759,0,0,0,.756-.693l.357-4.093h7.827a3.664,3.664,0,0,1,2.591,1.073l1.317,1.317h12.356" style="fill:none;stroke:#a7abae;stroke-linecap:round;stroke-linejoin:round"/><path d="M131.566,90.816q.12.871.323,1.746c1.374,5.887,6.626,16.121,5.345,33.289-.49,6.568-1.717,20.658-1.717,20.658" style="fill:none;stroke:#a7abae;stroke-linecap:round;stroke-linejoin:round;stroke-width:0.5px"/><path d="M137.441,3.906c-2.369,10.985-3.041,17.437-4.993,32.679-2.125,16.6-2.038,48.343-.665,54.23" style="fill:none;stroke:#a7abae;stroke-linecap:round;stroke-linejoin:round;stroke-width:0.5px"/><path d="M160.738,125.13c-8.376-.141-15.479-.314-20.231-.513-3.3-.139-3.074-3.915-3.074-3.915l.024-1.571c1.828-21.346-3.948-24.849-3.072-55.61.508-17.849,4.978-42.8,8.153-57.253" style="fill:none;stroke:#a7abae;stroke-linecap:round;stroke-linejoin:round;stroke-width:0.5px"/><path d="M141.625,144.762l1.073,3.464a9.3,9.3,0,0,1,.419,2.761v6.276c0,1.147-1.36,2.032-3.223,2.032h-8.055c-2.023,0-3.876-1.044-4.137-2.333l-2.136-14.892" style="fill:none;stroke:#a7abae;stroke-linecap:round;stroke-linejoin:round"/><path d="M32.735,25.922c7.814.138,10.591,3.854,11.366,5.264" style="fill:none;stroke:#a7abae;stroke-linecap:round;stroke-linejoin:round"/><line x1="39.547" y1="104.689" x2="36.707" y2="131.69" style="fill:none;stroke:#a7abae;stroke-linecap:round;stroke-linejoin:round"/><path d="M128.621,25.922c-7.814.138-10.592,3.854-11.366,5.264" style="fill:none;stroke:#a7abae;stroke-linecap:round;stroke-linejoin:round"/><line x1="121.809" y1="104.689" x2="124.931" y2="134.382" style="fill:none;stroke:#a7abae;stroke-linecap:round;stroke-linejoin:round"/></g><g id="illustration"><path d="M80.677,109.472c31.154,0,31.262-.845,32.576-11.186.649-5.1,1.043-13.772,1.275-22.713l-.005.184a1.312,1.312,0,0,0-1.312-1.345H48.144a1.313,1.313,0,0,0-1.312,1.345l0-.184c.232,8.941.626,17.616,1.274,22.713C49.416,108.627,49.524,109.472,80.677,109.472Z" style="fill:#d3d5d6;stroke:#000001;stroke-linecap:round;stroke-linejoin:round;stroke-width:1.5px"/><path d="M67.945,104.93a.974.974,0,0,1-.975.974H64.55a.975.975,0,1,1,0-1.949h2.42A.974.974,0,0,1,67.945,104.93Z" style="fill:none;stroke:#000001;stroke-linecap:round;stroke-linejoin:round;stroke-width:0.5px"/><path d="M93.41,104.93a.975.975,0,0,0,.975.974h2.421a.975.975,0,0,0,0-1.949H94.385A.975.975,0,0,0,93.41,104.93Z" style="fill:none;stroke:#000001;stroke-linecap:round;stroke-linejoin:round;stroke-width:0.5px"/><rect x="52.69" y="77.567" width="55.975" height="23.235" style="fill:none;stroke:#000001;stroke-linecap:round;stroke-linejoin:round;stroke-width:0.5px"/></g></svg>