<?xml version="1.0" encoding="UTF-8"?><svg xmlns="http://www.w3.org/2000/svg" width="654" height="218" xmlns:xlink="http://www.w3.org/1999/xlink" viewBox="0 0 654 218"><defs><linearGradient id="uuid-5f2977f8-487e-4a73-96d0-b91035c54650" x1="387.135" y1="124.69" x2="374.54" y2="126.049" gradientUnits="userSpaceOnUse"><stop offset="0" stop-color="#fff" stop-opacity="0"/><stop offset="1" stop-color="#fff"/></linearGradient><linearGradient id="uuid-8c0cc335-97f7-45e9-99f2-d9e9ea7f0ce8" x1="392.31" y1="152.732" x2="380.754" y2="152.236" xlink:href="#uuid-5f2977f8-487e-4a73-96d0-b91035c54650"/></defs><g id="uuid-40e689d8-e28f-421e-bcde-8ca36a50249e"><g id="uuid-524fb25d-8084-4cbd-b9a9-3574ed2ca741"><path d="m174.787,167.918l6.725-.343,1.284,2.887,5.373-.428c2.701-.246,4.203-.599,5.721-.956,1.876-.441,3.814-.899,8.384-1.197,6.886-.449,90.048-6.656,117.837-8.731l12.072-.902" style="fill:none; stroke:#a7abae; stroke-linecap:round; stroke-linejoin:round; stroke-width:.5px;"/><path d="m174.774,167.668l6.896-.352,1.282,2.882,5.194-.414c2.684-.245,4.173-.595,5.686-.95,1.885-.443,3.838-.904,8.425-1.203,6.885-.449,90.044-6.655,117.834-8.731l12.072-.902" style="fill:none; stroke:#a7abae; stroke-linecap:round; stroke-linejoin:round; stroke-width:.5px;"/><path d="m174.762,167.418l7.068-.36,1.279,2.877,5.014-.4c2.667-.243,4.143-.59,5.652-.945,1.895-.445,3.862-.909,8.466-1.209,6.883-.449,90.04-6.655,117.832-8.731l12.072-.902" style="fill:none; stroke:#a7abae; stroke-linecap:round; stroke-linejoin:round; stroke-width:.5px;"/><path d="m174.749,167.168l7.239-.369,1.277,2.872,4.835-.386c2.65-.242,4.113-.586,5.617-.939,1.905-.448,3.885-.914,8.507-1.215,6.882-.449,90.037-6.655,117.83-8.731l12.072-.902" style="fill:none; stroke:#a7abae; stroke-linecap:round; stroke-linejoin:round; stroke-width:.5px;"/></g><path d="m174.736,166.919l7.411-.378,1.275,2.868s3.118-.231,4.656-.371c5.994-.547,5.858-1.616,14.131-2.155,6.88-.449,90.033-6.655,117.827-8.731l12.072-.902" style="fill:none; stroke:#a7abae; stroke-linecap:round; stroke-linejoin:round; stroke-width:.5px;"/><g id="uuid-cc57ecc3-9f3b-445f-9041-d2bf0d32ec59"><path d="m326.087,2.391h-81.533c-20.854,0-34.438,1.776-42.756,4.274-3.326.999-5.85,2.124-7.669,3.325-.134.088-.278.183-.432.285-6.747,4.45-32.928,21.721-61.051,44.149-35.533.028-94.353,4.348-118.806,14.518-2.292.953-3.62,1.645-4.46,2.53-.752.792-1.054,1.681-1.403,2.661-.018.05-.036.1-.054.152-.709,1.985-1.212,3.719-1.212,4.338v9.397c-.437.658-1.439,2.36-1.439,4.151v14.747c0,3.706,1.093,7.266,2.579,10.377-.49.488-1.171,1.279-1.706,2.336-.518,1.023-.919,2.313-.919,3.845,0,4.016.117,7.766.467,16.015.09,2.121.783,4.158,1.914,6.113,4.188,7.242,14.755,13.903,25.315,20.591,13.297,8.422,20.229,11.525,26.688,12.574,1.699,1.528,3.068,2.548,4.262,2.761.465.083.929.051,1.372-.128.354-.144.65-.364.902-.62.872-.889,1.498-2.587,2.236-4.515.341-.89.722-1.884,1.176-2.98l7.106-.362" style="fill:none; stroke:#a7abae; stroke-linecap:round; stroke-linejoin:round; stroke-width:.5px;"/><path d="m326.087,2.641h-81.533c-20.844,0-34.4,1.776-42.684,4.263-3.312.994-5.811,2.111-7.603,3.294-.134.088-.278.183-.433.285-6.751,4.453-32.961,21.743-61.101,44.19-35.529.021-94.377,4.342-118.797,14.499-2.297.955-3.576,1.63-4.375,2.472-.71.747-.996,1.584-1.349,2.573-.018.05-.036.1-.054.152-.715,2.002-1.198,3.689-1.198,4.254v9.473c-.396.585-1.439,2.294-1.439,4.074v14.747c0,3.722,1.117,7.304,2.631,10.429-.477.454-1.214,1.267-1.786,2.396-.503.993-.892,2.245-.892,3.732,0,4.01.117,7.756.467,16.004.088,2.072.765,4.07,1.881,5.999,4.15,7.176,14.647,13.8,25.233,20.505,13.344,8.451,20.24,11.521,26.667,12.55,1.733,1.563,3.067,2.549,4.194,2.75.425.076.84.046,1.234-.114.316-.128.585-.326.817-.564.826-.842,1.432-2.473,2.181-4.429.356-.929.756-1.975,1.239-3.132l7.264-.37" style="fill:none; stroke:#a7abae; stroke-linecap:round; stroke-linejoin:round; stroke-width:.5px;"/><path d="m326.087,2.891h-81.533c-20.835,0-34.362,1.776-42.613,4.253-3.298.99-5.772,2.098-7.537,3.263-.134.088-.278.183-.433.285-6.755,4.456-32.995,21.765-61.151,44.231-35.525.014-94.401,4.337-118.789,14.48-2.301.957-3.532,1.615-4.29,2.413-.667.703-.939,1.486-1.294,2.485-.018.05-.036.101-.054.152-.721,2.019-1.183,3.658-1.183,4.169v9.551c-.341.494-1.439,2.219-1.439,3.997v14.747c0,3.739,1.143,7.343,2.687,10.485-.444.401-1.252,1.236-1.868,2.453-.488.964-.865,2.177-.865,3.619,0,4.005.117,7.746.467,15.994.086,2.023.747,3.982,1.847,5.884,4.111,7.109,14.538,13.698,25.15,20.419,13.391,8.481,20.252,11.518,26.646,12.526,1.769,1.6,3.068,2.55,4.125,2.739.385.069.751.04,1.096-.1.278-.113.519-.289.733-.507.78-.795,1.367-2.359,2.126-4.344.37-.967.791-2.065,1.302-3.285l7.421-.378" style="fill:none; stroke:#a7abae; stroke-linecap:round; stroke-linejoin:round; stroke-width:.5px;"/><path d="m326.087,3.141h-81.533c-20.825,0-34.325,1.775-42.541,4.242-3.284.986-5.733,2.085-7.471,3.232-.134.088-.278.184-.433.285-6.759,4.458-33.028,21.787-61.201,44.272-35.521.007-94.425,4.331-118.78,14.46-2.306.959-3.488,1.599-4.205,2.354-.625.658-.881,1.389-1.24,2.396-.018.05-.036.101-.054.152-.727,2.035-1.169,3.627-1.169,4.085v9.711l.05-.15s-1.489,1.975-1.489,3.986v14.747c0,3.756,1.17,7.386,2.746,10.546-.369.313-1.277,1.167-1.954,2.505-.473.934-.838,2.109-.838,3.506,0,3.999.117,7.735.467,15.983.084,1.975.73,3.894,1.814,5.769,4.073,7.043,14.43,13.596,25.067,20.333,13.439,8.511,20.264,11.514,26.625,12.502,1.808,1.64,3.07,2.553,4.056,2.728.345.061.663.035.958-.085.239-.097.453-.251.648-.45.733-.748,1.301-2.246,2.072-4.258.385-1.005.825-2.155,1.366-3.437l7.578-.386" style="fill:none; stroke:#a7abae; stroke-linecap:round; stroke-linejoin:round; stroke-width:.5px;"/></g><path d="m326.087,3.391h-81.533c-29.133,0-43.88,3.477-49.874,7.433-5.995,3.956-32.85,21.58-61.684,44.599-35.518,0-94.449,4.326-118.772,14.441-4.4,1.83-4.531,2.436-5.36,4.756-.733,2.052-1.154,3.597-1.154,4.001v9.711s-1.439,1.918-1.439,3.836v14.747c0,3.777,1.199,7.433,2.81,10.614,0,0-2.856,2.099-2.856,5.944,0,3.993.117,7.725.466,15.972.39,9.194,13.278,17.359,26.765,25.902,13.488,8.542,20.276,11.509,26.603,12.477,5.937,5.401,5.439,2.452,8.819-5.509l7.735-.394" style="fill:none; stroke:#a7abae; stroke-linecap:round; stroke-linejoin:round; stroke-width:.5px;"/><path d="m68.49,172.295c4.116-13.365,8.771-29.93,13.853-42.78,4.643-11.741,13.787-15.586,26.376-17.864,12.588-2.278,35.248-2.819,45.438-1.74,10.191,1.079,16.42,7.276,21.221,21.282,5.38,15.695,6.865,29.641,8.044,38.214" style="fill:none; stroke:#a7abae; stroke-linecap:round; stroke-linejoin:round;"/><path d="m9.082,117.53c1.446,2.634,6.841,5.332,8.4,6.051,1.559.719,1.74,3.052,3.297,3.597,7.373,2.578,24.338,5.215,27.275,5.695,2.937.48,4.736.599,5.035,5.875.3,5.275.12,11.45,0,13.248-.12,1.798-.54,2.937-4.196,3.597-3.657.659-16.728,1.861-23.382.422" style="fill:none; stroke:#a7abae; stroke-linecap:round; stroke-linejoin:round; stroke-width:.5px;"/><line x1="185.966" y1="149.135" x2="318.061" y2="140.921" style="fill:none; stroke:#a7abae; stroke-linecap:round; stroke-linejoin:round; stroke-width:.5px;"/><path d="m7.711,79.342c0,2.123,4.301,5.279,12.289,7.481" style="fill:none; stroke:#a7abae; stroke-linecap:round; stroke-linejoin:round; stroke-width:.5px;"/><path d="m7.711,88.333c0,2.681,4.747,6.206,12.177,9.049" style="fill:none; stroke:#a7abae; stroke-linecap:round; stroke-linejoin:round; stroke-width:.5px;"/><path d="m28.332,88.054l-.519.803c-.209.323-.32.7-.32,1.085v9.002l.779,1.079c16.905,2.098,28.11,1.707,33.749,1.499,3.237-.12,4.611-1.263,6.054-2.638,2.518-2.398,3.777-3.777,5.155-5.575,1.379-1.798.06-3.417-2.518-3.417s-11.138-.238-18.703-.48c-13.128-.42-23.678-1.358-23.678-1.358Z" style="fill:none; stroke:#a7abae; stroke-linecap:round; stroke-linejoin:round; stroke-width:.5px;"/><path d="m26.519,114.334c0,3.003-1.483,5.437-3.312,5.437s-3.312-2.429-3.312-5.432c-.041-1.194,0-18.536,0-22.858,0-5.268,2.451-7.904,4.598-7.904,1.829,0,3.312,2.351,3.312,5.252" style="fill:none; stroke:#a7abae; stroke-linecap:round; stroke-linejoin:round; stroke-width:.5px;"/><path d="m26.519,114.334v-11.711c0-.463.131-.919.378-1.31l1.077-1.703" style="fill:none; stroke:#a7abae; stroke-linecap:round; stroke-linejoin:round; stroke-width:.5px;"/><path d="m236.239,65.467c37.345-1.262,90.56-3.09,90.56-3.09l9.347-.321" style="fill:none; stroke:#a7abae; stroke-linecap:round; stroke-linejoin:round; stroke-width:.5px;"/><path d="m124.003,55.508c-14.199.427,36.455,8.9,54.852,10.645,8.036.763,14.408.664,21.531.491" style="fill:none; stroke:#a7abae; stroke-linecap:round; stroke-linejoin:round; stroke-width:.5px;"/><path d="m181.966,66.413c24.969-22.769,58.152-51.153,63.667-55.229,5.515-4.076,8.752-6.114,26.736-6.114,11.767,0,31.517.128,43.68.133,7.015.003,14.021-.034,21.017-.109" style="fill:none; stroke:#a7abae; stroke-linecap:round; stroke-linejoin:round; stroke-width:.5px;"/><path d="m6.509,134.933c.214,4.978,8.889,10.549,13.514,12.676,3.915,1.801,3.986,4.477,5.488,8.405,2.275,5.95,22.911,17.929,22.911,17.929" style="fill:none; stroke:#a7abae; stroke-linecap:round; stroke-linejoin:round; stroke-width:.5px;"/><path d="m195.874,66.737s33.334-33.853,60.31-55.434" style="fill:none; stroke:#a7abae; stroke-linecap:round; stroke-linejoin:round; stroke-width:.5px;"/><path d="m193.96,11.299c.72-.475,2.518-1.314,25.897-.835,23.379.48,36.327.839,36.327.839l88.053.301" style="fill:none; stroke:#a7abae; stroke-linecap:round; stroke-linejoin:round; stroke-width:.5px;"/><line x1="252.645" y1="14.174" x2="334.007" y2="14.452" style="fill:none; stroke:#a7abae; stroke-linecap:round; stroke-linejoin:round; stroke-width:.5px;"/><path d="m298.744,14.332s-.585,25.898-2.15,49.081" style="fill:none; stroke:#a7abae; stroke-linecap:round; stroke-linejoin:round; stroke-width:.5px;"/><path d="m314.211,14.385s3.353,23.665,3.714,48.297" style="fill:none; stroke:#a7abae; stroke-linecap:round; stroke-linejoin:round; stroke-width:.5px;"/><path d="m181.966,66.413c-4.806,4.31-9.29,5.994-22.963,6.594-41.003,1.798-69.827,4.279-86.371,7.756-16.545,3.477-18.823,5.832-20.621,8.65" style="fill:none; stroke:#a7abae; stroke-linecap:round; stroke-linejoin:round; stroke-width:.5px;"/><path d="m52.008,101.683l-1.834,1.852c-.207.209-.326.488-.333.782-.056,2.325-.306,12.898-.306,17.472,0,5.155,3.555,7.085,8.352,7.146,5.165.065,17.304.076,17.304.076l2.575.298,4.68-.034" style="fill:none; stroke:#a7abae; stroke-linecap:round; stroke-linejoin:round; stroke-width:.5px;"/><path d="m6.226,123.474c0,3.67,8.085,9.744,16.709,12.815,7.084,2.522,22.939,3.938,28.375,4.363,1.055.083,1.871.962,1.871,2.021v4.199" style="fill:none; stroke:#a7abae; stroke-linecap:round; stroke-linejoin:round; stroke-width:.5px;"/><path d="m60.061,177.825l3.484.283c1.599,0,3.015-1.034,3.503-2.557l.664-2.076" style="fill:none; stroke:#a7abae; stroke-linecap:round; stroke-linejoin:round; stroke-width:.5px;"/><path d="m295.764,81.97c-.26.124-.53.189-.806.2l-16.5.644c-.881.032-1.758-.497-2.169-1.406-.546-1.195-.092-2.585,1.011-3.11.26-.124.535-.189.806-.2l16.5-.644c.881-.032,1.758.498,2.174,1.406.541,1.195.087,2.585-1.017,3.11Z" style="fill:none; stroke:#a7abae; stroke-linecap:round; stroke-linejoin:round; stroke-width:.5px;"/><polyline points="306.035 130.707 304.859 140.306 304.15 141.786 305.099 143.063 304.823 154.063 303.179 159.41" style="fill:none; stroke:#a7abae; stroke-linecap:round; stroke-linejoin:round; stroke-width:.5px;"/><path d="m309.297,87.204c-.18,4.947-.412,9.635-.659,13.884" style="fill:none; stroke:#a7abae; stroke-linecap:round; stroke-linejoin:round; stroke-width:.5px;"/><path d="m306.659,14.359s1.569,26.906,1.084,48.672l1.912,5.461c0,2.014-.014,4.022-.04,6.014" style="fill:none; stroke:#a7abae; stroke-linecap:round; stroke-linejoin:round; stroke-width:.5px;"/><path d="m167.093,191.32c-6.678,10.981-38.397,42.901-73.54,12.029-13.171-11.571-25.721-37.184-10.296-62.514,11.617-19.092,37.402-33.664,66.759-15.758,32.85,20.036,26.796,50.271,17.077,66.243Z" style="fill:none; stroke:#a7abae; stroke-linecap:round; stroke-linejoin:round; stroke-width:1.5px;"/><ellipse cx="127.813" cy="167.999" rx="3.4" ry="3.165" transform="translate(-83.273 166.432) rotate(-52.311)" style="fill:none; stroke:#a7abae; stroke-linecap:round; stroke-linejoin:round; stroke-width:.5px;"/><line x1="129.24" y1="58.384" x2="132.996" y2="55.423" style="fill:none; stroke:#a7abae; stroke-linecap:round; stroke-linejoin:round; stroke-width:.5px;"/><path d="m19.935,91.133c0-3.007,1.101-5.444,2.46-5.444s2.46,2.438,2.46,5.444v22.803c0,3.007-1.101,5.444-2.46,5.444s-2.46-2.438-2.46-5.444" style="fill:none; stroke:#a7abae; stroke-linecap:round; stroke-linejoin:round; stroke-width:.5px;"/><path d="m21.303,127.354v3.808c0,1.028.677,1.93,1.664,2.219,11.226,3.287,27.907,5.135,30.123,5.366,8.153.849,12.193.883,14.368.796,2.305-.093,2.312-1.258,7.89-10.802,8.97-15.349,12.979-19.493,30.494-22.694,17.714-3.237,35.158-2.877,44.06-2.608,8.902.27,19.959,3.325,26.346,16.455,3.515,7.226,5.804,14.833,7.873,23.223,2.234,9.064,4.246,10.709,6.564,10.529,1.39-.108,2.782-.208,4.176-.303,5.919-.4,108.078-7.179,130.577-8.673" style="fill:none; stroke:#a7abae; stroke-linecap:round; stroke-linejoin:round; stroke-width:.5px;"/><path d="m11.061,119.712s.501,6.457,10.242,10.248" style="fill:none; stroke:#a7abae; stroke-linecap:round; stroke-linejoin:round; stroke-width:.5px;"/><path d="m29.217,68.467c11.703-3.532,30.4-6.88,76.868-10.105,2.089-.145,5.578-.398,8.338.385,5.672,1.61,11.292,3.396,15.203,4.123,4.452.828,4.126.659.074.85-54.338,2.561-74.16,5.834-87.412,9.553" style="fill:none; stroke:#a7abae; stroke-linecap:round; stroke-linejoin:round; stroke-width:.5px;"/><path d="m194.571,138.426c-.134,3.476-.281,6.896-.441,10.202l.73,4.716c0,8.799.611,14.392-1.577,14.848" style="fill:none; stroke:#a7abae; stroke-linecap:round; stroke-linejoin:round; stroke-width:.5px;"/><path d="m195.225,117.62c-.063,2.46-.13,4.949-.204,7.447" style="fill:none; stroke:#a7abae; stroke-linecap:round; stroke-linejoin:round; stroke-width:.5px;"/><path d="m194.512,66.754l1.431,6.212s-.008,1.472-.031,4.076" style="fill:none; stroke:#a7abae; stroke-linecap:round; stroke-linejoin:round; stroke-width:.5px;"/><path d="m204.165,166.747s3.176-5.133,14.55-6.059c11.374-.926,86.108-6.625,86.108-6.625l24.052-1.834" style="fill:none; stroke:#a7abae; stroke-linecap:round; stroke-linejoin:round; stroke-width:.5px;"/><path d="m199.566,67.263c-.39.3-.39.929.659,1.409s3.717,1.259,4.586,1.499c.869.24,1.798.3,4.436.21s2.428-.45,3.896-1.319c1.469-.869,5.397-2.999,5.397-2.999,0,0,5.963-.028,10.129-.028s6.294.24,8.452-.989c2.158-1.229,2.548-1.469,2.128-5.755-.42-4.286-1.109-7.613-6.294-8.572-5.185-.959-8.362-1.019-10.071-.869s-2.362.028-7.044,3.567c-5.155,3.896-5.005,5.185-5.005,8.722-2.248,0-4.736.12-11.27,5.125Z" style="fill:none; stroke:#a7abae; stroke-linecap:round; stroke-linejoin:round; stroke-width:.5px;"/><path d="m210.835,62.137c6.337.284,24.402.549,27.047.549" style="fill:none; stroke:#a7abae; stroke-linecap:round; stroke-linejoin:round; stroke-width:.5px;"/><path d="m237.869,60.004l-11.724-.192c-.842-.017-1.626.43-2.042,1.162l-.849,1.497" style="fill:none; stroke:#a7abae; stroke-linecap:round; stroke-linejoin:round; stroke-width:.5px;"/><path d="m218.54,66.062c-4.454,0-7.099-1.172-7.099-1.172" style="fill:none; stroke:#a7abae; stroke-linecap:round; stroke-linejoin:round; stroke-width:.5px;"/><path d="m219.521,50.861l36.162-33.241c2.395-2.201,5.528-3.423,8.781-3.423h12.929" style="fill:none; stroke:#a7abae; stroke-linecap:round; stroke-linejoin:round; stroke-width:.5px;"/><line x1="206.267" y1="63.044" x2="211.149" y2="58.557" style="fill:none; stroke:#a7abae; stroke-linecap:round; stroke-linejoin:round; stroke-width:.5px;"/><line x1="228.218" y1="42.866" x2="227.97" y2="49.985" style="fill:none; stroke:#a7abae; stroke-linecap:round; stroke-linejoin:round; stroke-width:.5px;"/><line x1="225.179" y1="45.659" x2="225.036" y2="49.793" style="fill:none; stroke:#a7abae; stroke-linecap:round; stroke-linejoin:round; stroke-width:.5px;"/><path d="m188.769,14.747c2.696-1.797,24.184-1.506,46.859-.393,2.287.112.871,1.578-.332,2.472-18.388,13.659-39.997,33.955-46.468,40.145-3.605,3.449-6.613,4.497-16.576,3.615-11.244-.995-39.447-5.014-38.218-5.989" style="fill:none; stroke:#a7abae; stroke-linecap:round; stroke-linejoin:round; stroke-width:.5px;"/><path d="m289.528,69.346c-22.855,1.018-61.178,2.87-93.596,5.143-11.436.802-22.905,1.063-34.35,1.728-41.833,2.429-88.745,4.745-99.749,11.695" style="fill:none; stroke:#a7abae; stroke-linecap:round; stroke-linejoin:round; stroke-width:.5px;"/><path d="m351.706,67.171l-42.051,1.32s-3.798.149-10.265.424" style="fill:none; stroke:#a7abae; stroke-linecap:round; stroke-linejoin:round; stroke-width:.5px;"/><path d="m120.231,135.775c9.734-2.981,20.446-1.662,29.016,4.544,14.945,10.822,17.804,32.47,6.375,48.256-11.429,15.786-32.887,19.824-47.831,9.002-14.945-10.822-17.804-32.47-6.375-48.255" style="fill:none; stroke:#a7abae; stroke-linecap:round; stroke-linejoin:round; stroke-width:.5px;"/><path d="m101.415,149.322c.548-.756,1.118-1.486,1.71-2.188" style="fill:none; stroke:#a7abae; stroke-linecap:round; stroke-linejoin:round; stroke-width:.5px;"/><path d="m132.422,200.6c-7.944,1.425-16.264-.167-23.11-5.125-13.847-10.028-16.497-30.085-5.907-44.712,10.591-14.627,30.472-18.369,44.32-8.342,13.847,10.028,16.497,30.085,5.906,44.713-1.324,1.828-2.793,3.487-4.377,4.969" style="fill:none; stroke:#a7abae; stroke-linecap:round; stroke-linejoin:round; stroke-width:.5px;"/><path d="m108.598,182.148c-1.96-3.312-3.115-7.22-3.241-11.259l6.126-3.043c.491-.256,1.035-.341,1.579-.251l6.944.441c.58.086,1.137-.257,1.343-.813l.35-1.043.351-1.007c.159-.507-.006-1.028-.406-1.317l-.048-.035-.117-.064-6.293-2.419c-.153-.068-.295-.149-.425-.243-.29-.21-.53-.492-.696-.812l-3.094-5.99c2.588-3.105,5.945-5.63,9.695-7.19l4.441,4.852c.362.392.587.895.631,1.413l-.56,7.593c.026.318.19.609.445.794.196.142.433.213.682.206l2.074-.045c.617-.044,1.1-.498,1.181-1.082l2.596-7.628c.069-.539.32-1.059.709-1.474l4.784-5.123c5.371,2.175,8.164,5.43,9.245,6.801l-3.37,6.039c-.266.487-.687.89-1.18,1.134l-9.2,2.849c-.536.262-.821.886-.659,1.449l.598,1.988c.07.238.212.441.41.585.25.181.561.247.878.186l9.805-.912c.524-.12,1.064-.063,1.557.164l6.039,2.791c-.368,3.959-1.721,7.939-3.969,11.418l-6.53-1.124c-.371-.059-.712-.2-1-.408-.129-.094-.25-.201-.358-.322l-7.067-7.269-.113-.089c-.409-.297-.979-.278-1.383.046l-.841.628-.853.651c-.483.347-.649,1.014-.374,1.538l5.351,8.47c.246.477.334,1.025.252,1.575l-1.046,6.842c-3.805,1.05-7.86,1.177-11.657.287l-.706-6.766c-.059-.544.057-1.103.324-1.576l2.974-8.708c.303-.525.177-1.185-.296-1.527l-1.647-1.193c-.469-.34-1.132-.255-1.543.198l-4.581,7.54c-.374.41-.866.693-1.387.799l-6.724,1.456Z" style="fill:none; stroke:#a7abae; stroke-linecap:round; stroke-linejoin:round; stroke-width:.5px;"/><path d="m118.336,190.816c-1.379-.61-2.724-1.379-3.992-2.297-1.268-.918-2.412-1.952-3.421-3.071l6.541-1.237.873,6.605Z" style="fill:none; stroke:#a7abae; stroke-linecap:round; stroke-linejoin:round; stroke-width:.5px;"/><path d="m145.34,184.489c-1.065,1.178-2.267,2.281-3.581,3.271-1.314.99-2.691,1.83-4.102,2.517l1.186-6.658,6.497.869Z" style="fill:none; stroke:#a7abae; stroke-linecap:round; stroke-linejoin:round; stroke-width:.5px;"/><path d="m149.098,156.686c.721,1.337,1.323,2.788,1.779,4.319s.748,3.082.886,4.627l-5.807-2.878,3.142-6.068Z" style="fill:none; stroke:#a7abae; stroke-linecap:round; stroke-linejoin:round; stroke-width:.5px;"/><path d="m124.416,145.829c1.51-.351,3.085-.558,4.681-.602s3.154.075,4.649.343l-4.776,4.879-4.554-4.62Z" style="fill:none; stroke:#a7abae; stroke-linecap:round; stroke-linejoin:round; stroke-width:.5px;"/><path d="m105.404,166.923c.213-1.554.583-3.133,1.114-4.691s1.201-3.036,1.987-4.415l2.856,5.893-5.957,3.213Z" style="fill:none; stroke:#a7abae; stroke-linecap:round; stroke-linejoin:round; stroke-width:.5px;"/><path d="m115.057,160.883c2.729-4.569,6.821-6.397,9.45-7.042.404-.099.809-.179,1.214-.24" style="fill:none; stroke:#a7abae; stroke-linecap:round; stroke-linejoin:round; stroke-width:.5px;"/><path d="m117.292,178.934c-.361-.33-.706-.683-1.035-1.061-2.457-2.819-3.605-6.547-3.328-10.297" style="fill:none; stroke:#a7abae; stroke-linecap:round; stroke-linejoin:round; stroke-width:.5px;"/><path d="m132.639,181.036c-2.222.931-5.909,2.171-10.247.82" style="fill:none; stroke:#a7abae; stroke-linecap:round; stroke-linejoin:round; stroke-width:.5px;"/><path d="m141.407,166.986c.067,4.036-1.503,7.203-2.991,9.239-.206.282-.42.555-.641.819" style="fill:none; stroke:#a7abae; stroke-linecap:round; stroke-linejoin:round; stroke-width:.5px;"/><path d="m131.883,154.012c4.807,1.446,7.086,5.071,7.735,6.228.19.338.362.681.516,1.028" style="fill:none; stroke:#a7abae; stroke-linecap:round; stroke-linejoin:round; stroke-width:.5px;"/><line x1="32.114" y1="130.035" x2="32.114" y2="135.583" style="fill:none; stroke:#a7abae; stroke-linecap:round; stroke-linejoin:round; stroke-width:.5px;"/><line x1="71.852" y1="95.107" x2="88.211" y2="112.227" style="fill:none; stroke:#a7abae; stroke-linecap:round; stroke-linejoin:round; stroke-width:.5px;"/></g><g id="uuid-3527c350-ca0d-4a61-a4db-a94bbe0628c8"><path d="m349.489,159.221c4.128,18.87,2.274,36.399,4.392,52.015" style="fill:none; stroke:#000001; stroke-linejoin:round; stroke-width:4px;"/><path d="m349.489,159.221c4.128,18.87,2.274,36.399,4.392,52.015" style="fill:none; stroke:#fff; stroke-linecap:round; stroke-linejoin:round; stroke-width:2px;"/><path d="m294.664,96.812c9.731-.521,17.822,7.026,18.076,16.822.253,9.797-7.425,18.255-17.156,18.855l-88.762,5.444-.349-13.806,88.762-5.165c2.357-.138,4.222-2.183,4.161-4.559-.061-2.376-2.027-4.2-4.383-4.067l-95.167,4.989c-10.105.572-18.566-7.13-18.819-17.17-.253-10.039,7.795-18.606,17.9-19.096l97.71-4.396.348,13.468-97.71,4.675c-2.439.126-4.376,2.197-4.314,4.617.061,2.42,2.098,4.282,4.537,4.152l95.167-4.762Z" style="fill:#f2a900; stroke-width:0px;"/><polygon points="211.067 144.541 186.51 132.24 210.372 117.03 211.067 144.541" style="fill:#f2a900; stroke-width:0px;"/><polygon points="293.271 95.035 315.827 80.445 292.577 68.149 293.271 95.035" style="fill:#f2a900; stroke-width:0px;"/><path d="m238.292,111.385c-4.375-.407-7.764-4.119-7.712-8.593.054-4.708,3.928-8.48,8.636-8.425,1.771.02,3.412.575,4.774,1.51l27.888,17.93-33.586-2.421Z" style="fill:#fff; stroke-width:0px;"/><line x1="268.066" y1="112.465" x2="267.637" y2="112.208" style="fill:none; stroke:#000001; stroke-linecap:round; stroke-linejoin:round; stroke-width:.5px;"/><line x1="266.37" y1="111.45" x2="241.66" y2="96.661" style="fill:none; stroke:#000001; stroke-dasharray:0 0 .985 1.477; stroke-linecap:round; stroke-linejoin:round; stroke-width:.5px;"/><line x1="241.027" y1="96.282" x2="240.597" y2="96.025" style="fill:none; stroke:#000001; stroke-linecap:round; stroke-linejoin:round; stroke-width:.5px;"/><line x1="239.774" y1="109.991" x2="240.272" y2="110.035" style="fill:none; stroke:#000001; stroke-linecap:round; stroke-linejoin:round; stroke-width:.5px;"/><line x1="241.817" y1="110.17" x2="266.796" y2="112.354" style="fill:none; stroke:#000001; stroke-dasharray:0 0 1.034 1.551; stroke-linecap:round; stroke-linejoin:round; stroke-width:.5px;"/><line x1="267.568" y1="112.421" x2="268.066" y2="112.465" style="fill:none; stroke:#000001; stroke-linecap:round; stroke-linejoin:round; stroke-width:.5px;"/><line x1="232.476" y1="104.395" x2="232.964" y2="104.506" style="fill:none; stroke:#000001; stroke-linecap:round; stroke-linejoin:round; stroke-width:.5px;"/><line x1="234.387" y1="104.829" x2="266.867" y2="112.193" style="fill:none; stroke:#000001; stroke-dasharray:0 0 .972 1.459; stroke-linecap:round; stroke-linejoin:round; stroke-width:.5px;"/><line x1="267.579" y1="112.354" x2="268.066" y2="112.465" style="fill:none; stroke:#000001; stroke-linecap:round; stroke-linejoin:round; stroke-width:.5px;"/><line x1="232.728" y1="100.987" x2="233.203" y2="101.141" style="fill:none; stroke:#000001; stroke-linecap:round; stroke-linejoin:round; stroke-width:.5px;"/><line x1="234.619" y1="101.601" x2="255.143" y2="108.267" style="fill:none; stroke:#000001; stroke-dasharray:0 0 .992 1.488; stroke-linecap:round; stroke-linejoin:round; stroke-width:.5px;"/><line x1="255.85" y1="108.497" x2="256.326" y2="108.652" style="fill:none; stroke:#000001; stroke-linecap:round; stroke-linejoin:round; stroke-width:.5px;"/><line x1="234.179" y1="98.22" x2="234.64" y2="98.413" style="fill:none; stroke:#000001; stroke-linecap:round; stroke-linejoin:round; stroke-width:.5px;"/><line x1="235.994" y1="98.983" x2="266.928" y2="111.987" style="fill:none; stroke:#000001; stroke-dasharray:0 0 .98 1.47; stroke-linecap:round; stroke-linejoin:round; stroke-width:.5px;"/><line x1="267.605" y1="112.271" x2="268.066" y2="112.465" style="fill:none; stroke:#000001; stroke-linecap:round; stroke-linejoin:round; stroke-width:.5px;"/><line x1="234.343" y1="107.377" x2="234.837" y2="107.452" style="fill:none; stroke:#000001; stroke-linecap:round; stroke-linejoin:round; stroke-width:.5px;"/><line x1="236.313" y1="107.674" x2="252.788" y2="110.16" style="fill:none; stroke:#000001; stroke-dasharray:0 0 .995 1.492; stroke-linecap:round; stroke-linejoin:round; stroke-width:.5px;"/><line x1="253.525" y1="110.271" x2="254.02" y2="110.346" style="fill:none; stroke:#000001; stroke-linecap:round; stroke-linejoin:round; stroke-width:.5px;"/><line x1="236.961" y1="96.293" x2="237.4" y2="96.531" style="fill:none; stroke:#000001; stroke-linecap:round; stroke-linejoin:round; stroke-width:.5px;"/><line x1="238.716" y1="97.246" x2="253.414" y2="105.226" style="fill:none; stroke:#000001; stroke-dasharray:0 0 .998 1.498; stroke-linecap:round; stroke-linejoin:round; stroke-width:.5px;"/><line x1="254.072" y1="105.583" x2="254.511" y2="105.822" style="fill:none; stroke:#000001; stroke-linecap:round; stroke-linejoin:round; stroke-width:.5px;"/><path d="m387.122,116.874c-2.114.094-4.239.26-6.373.502-6.67.754-17.147,2.659-26.242,4.313-8.684,1.579-16.008,2.907-17.727,2.845-1.946-.07-2.453-.285-3.248-.608-.725-.294-1.654-.669-3.779-1.095-1.999-.401-6.134-.677-7.818-.778-.455-.027-.912-.123-1.338-.282l-2.305-.861c-.319-.119-.658-.124-.966-.03s-.588.286-.787.562c-.057.08-.1.172-.13.256-.127.351-.194.958.078,1.632.284.703.916,1.428,2.115,2.013,1.351.66,3.098,1.158,4.306,1.456l-7.919,3.792,12.364,8.081s9.337-1.954,9.243-1.944l51.692-.794m-75.937-9.534l27.653,8.693m-24.879-2.139l-1.259-3.055c-.017-.042-.026-.086-.025-.132.036-1.979-.159-3.221-.521-3.963-.14-.286-.365-.509-.634-.647s-.581-.192-.895-.14-.592.205-.801.422-.351.502-.39.818l-.415,3.292c-.027.216-.001.436.076.64l1.481,3.9c.078.206.205.386.366.528s.356.244.57.295l6.165,1.472m-.905-2.492l-1.401-3.4c.046-2.21-.169-3.579-.565-4.383-.208-.422-.485-.725-.834-.886s-.7-.149-.999-.074c-.266.067-.499.212-.673.409s-.291.445-.325.717l-.494,3.921c-.027.216-.001.436.076.64l1.725,4.542c.081.213.214.399.382.542s.373.245.596.29l6.62,1.356m67.989,8.217c-3.683-.128-7.609-.147-11.503-.165-7.422-.035-14.712-.07-20.1-.85-.906-.131-1.277-.474-2.064-1.219-.598-.567-1.392-1.32-2.764-2.248-.358-.242-.659-.459-.931-.655-1.746-1.257-2.299-1.572-6.648-1.334l-.671.037.228.632c.136.377.304.787.484,1.214.014.033.029.066.042.095.07.156.095.232.099.273-.006.004-.014.01-.025.017-.114.067-.403.159-1.041.175-1.794.046-3.039-.04-3.296-.061l-4.082-1.223-.185.104c-.686.384-1.27.726-1.573,1.309-.252.484-.276,1.059-.203,1.782.039.381.17.701.373.968.438.576,1.182.852,1.75,1.074.251.098.482.189.694.29-.213,1.272-.186,2.121.096,2.744.304.67.869.985,1.356,1.27.031.018.062.036.093.054-.057.783-.06,1.337.019,1.748.034.175.084.334.158.481.213.425.578.638.888.831.189.118.399.249.64.432.05.43.165,1.404.228,1.745.105.562.387,1.053.856,1.404.615.461,1.483.633,2.536.526.834-.084,2.054-.008,3.45.081,1.293.082,2.712.173,3.999.131.483-.016.936-.035,1.362-.053,1.858-.078,3.168-.129,4.409.141,1.315.286,3.207.719,5.448,1.231,8.686,1.985,22.663,5.18,28.181,5.597m-53.79-19.667c.052.179.084.35.117.535.069.379.148.896.581,1.298.425.394,1.105.605,2.154.717m-.91,3.011l1.978.847m-.381,2.621l1.518.9m-5.455,2.716c-.313-.21-.565-.51-.717-.872l-5.763-13.746c-.187-.445-.312-2.036-.312-2.648v-.011c0-.081.019-.159.055-.23s.088-.132.154-.179.141-.077.219-.089.158-.005.235.021l1.193.402v-.06c1.436.502,4.696,1.643,4.702,1.645.308.103.611.285.891.545.347.322.652.759.873,1.287l5.11,12.458c.068.165.088.342.063.512s-.095.334-.208.473l-.389.479c-.099.122-.18.255-.242.395l-4.786-.047c-.393-.004-.765-.124-1.078-.334Zm-2.938,2.258c.471.317,1.033.498,1.626.504l8.763.086,1.317.013,5.128.05c.331.003.652-.077.936-.226s.533-.369.719-.643.296-.586.329-.906-.013-.647-.139-.953c-1.872-4.539-6.268-15.197-7.277-17.617-.578-1.387-.371-1.979-.161-2.637.261-.817.521-1.695-.217-3.461-.274-.655-.624-1.405-1.309-2.03-.452-.413-1.034-.757-1.803-.999l-29.163-9.167c-.512-.161-1.042-.26-1.577-.295,0,0-8.258-.54-8.258-.54,0,0-.493-.032-.561-.032-.517.036-1.014.256-1.44.593l-26.928-8.7c-.145-.262-.354-.49-.632-.646-1.754-.938-2.131-.999-3.394-1.164-.611-.08-1.446-.188-2.815-.459-.338-.066-.666.018-.938.175-.397.23-.713.637-.875,1.115-.163.477-.16.987.013,1.407.118.288.325.551.656.715,0,0,.074.032.075.032,1.116.547,1.784.929,2.285,1.215,1.105.631,1.459.82,3.537,1.163.325.058.645.003.932-.125l26.725,9.273c.085.35.227.68.43.964.182.254.414.471.696.625.062.043.157.093.274.109h0c-.069-.006-.135-.027-.195-.061l9.37,5.277c.068.038.14.071.214.097l4.407,1.541,2.048,3.338c.129.211.312.377.524.487s.453.162.7.146l1.359-.089.226.368c.135.22.327.391.549.5s.475.156.731.128l5.202-.568c.177.245.279.543.279.86v1.797c0,1.193.238,2.373.699,3.473l5.854,13.951c.229.546.61.998,1.081,1.315Z" style="fill:none; stroke:#000001; stroke-linecap:round; stroke-linejoin:round; stroke-width:1.5px;"/><path d="m274.837,114.416c-.296.854-1.001,1.395-1.642,1.28-3.01-.498-2.213-.631-5.694-2.337l-.095-.041c-.433-.216-.609-.866-.392-1.501.216-.636.757-1.055,1.244-.961,4.083.806,3.494.195,6.069,1.573.558.312.788,1.149.509,1.986Z" style="fill:#fff; stroke:#000001; stroke-linecap:round; stroke-linejoin:round; stroke-width:.5px;"/><path d="m303.848,122.417l-1.069,3.089-29.167-10.12-.111-.032c-.366-.127-.589-.525-.589-1.002,0-.175.032-.35.096-.541.239-.684.827-1.098,1.336-.939l.111.048,29.393,9.497Z" style="fill:#fff; stroke:#000001; stroke-linecap:round; stroke-linejoin:round; stroke-width:.5px;"/><path d="m387.144,117.373c-2.102.093-4.216.259-6.339.499-12.955,1.464-40.365,7.294-44.043,7.161s-2.513-.791-7.107-1.712c-1.958-.392-6.053-.667-7.749-.769-.504-.03-1.01-.136-1.484-.313l-2.305-.861c-.426-.159-.906-.014-1.172.356-.194.269-.585,1.958,1.876,3.16,2.226,1.087,5.605,1.732,5.605,1.732l-8.42,4.032,11.448,7.481,9.135-1.912,51.693-.794" style="fill:url(#uuid-5f2977f8-487e-4a73-96d0-b91035c54650); stroke:#000001; stroke-linecap:round; stroke-linejoin:round; stroke-width:.5px;"/><path d="m328.077,139.059c0-.837-.531-1.583-1.322-1.857l-.621-.215v-6.206l6.579,2.305v6.203l-.533-.18c-.306-.103-.643-.053-.905.136s-.418.492-.418.815v.011c0,.598.119,2.29.35,2.842l5.763,13.746c.381.908,1.266,1.503,2.251,1.513l10.08.099-2.38,1.428-10.08-.099c-.985-.01-1.87-.604-2.251-1.512l-5.854-13.951c-.436-1.038-.66-2.153-.66-3.28v-1.797Z" style="fill:#fff; stroke:#000001; stroke-linecap:round; stroke-linejoin:round; stroke-width:.5px;"/><path d="m345.605,159.684c-.503-.005-.954-.309-1.147-.773-.177-.426-.106-.915.185-1.274l.389-.479c.34-.419.424-.99.22-1.49l-5.11-12.458c-.445-1.066-1.209-1.83-2.068-2.116l-26.355-9.219c-.046-.016-.091-.036-.134-.06l-9.37-5.277c-.016,0-.032-.016-.048-.032-.653-.334-1.002-1.129-1.002-2.02,0-.382.064-.78.191-1.177.398-1.193,1.336-2.004,2.243-2.068l.493.032,8.258.54c.496.032.986.124,1.46.273l29.163,9.167c1.78.56,2.356,1.679,2.801,2.745,1.344,3.215-.912,3.003.378,6.097,1.008,2.418,5.404,13.075,7.276,17.615.189.457.135.979-.142,1.389s-.741.654-1.236.649l-6.445-.063Z" style="fill:#fff; stroke:#000001; stroke-linecap:round; stroke-linejoin:round; stroke-width:.5px;"/><line x1="312.501" y1="125.922" x2="340.154" y2="134.615" style="fill:none; stroke:#000001; stroke-linecap:round; stroke-linejoin:round; stroke-width:.5px;"/><path d="m314.663,133.143l-1.259-3.055c-.044-.106-.064-.218-.062-.332.036-1.965-.163-3.106-.471-3.734-.182-.373-.588-.582-.998-.514s-.725.398-.777.81l-.415,3.292c-.017.135,0,.272.048.4l1.481,3.9c.098.258.317.45.585.514l6.165,1.472" style="fill:#fff; stroke:#000001; stroke-linecap:round; stroke-linejoin:round; stroke-width:.5px;"/><path d="m317.475,134.08l-1.441-3.497c.11-4.521-.883-5.176-1.774-4.952-.333.084-.581.363-.623.704l-.494,3.921c-.017.135,0,.272.048.4l1.725,4.542c.101.267.332.463.611.52l6.62,1.356" style="fill:#fff; stroke:#000001; stroke-linecap:round; stroke-linejoin:round; stroke-width:.5px;"/><path d="m320.662,135.15l-2.024-3.093c-.737-4.659-1.868-4.916-2.697-4.397-.257.161-.407.451-.389.754l.235,4.047c.008.137.05.27.121.387l2.526,4.118c.162.263.456.416.764.395l6.517-.429-5.053-1.783Z" style="fill:#fff; stroke:#000001; stroke-linecap:round; stroke-linejoin:round; stroke-width:.5px;"/><path d="m323.147,136.026l-1.841-2.814c-.645-4.078-1.622-4.449-2.367-4.049-.286.153-.457.459-.438.782l.21,3.616c.008.137.05.27.121.387l2.41,3.929c.168.274.48.427.8.392l5.701-.622-4.596-1.622Z" style="fill:#fff; stroke:#000001; stroke-linecap:round; stroke-linejoin:round; stroke-width:.5px;"/><path d="m390.019,146.279c-10.661-.371-23.371.179-31.658-1.019-1.88-.272-1.912-1.434-5.037-3.548-2.531-1.713-2.272-2.177-7.272-1.904.131.364.295.764.475,1.189.173.411.672,1.202-1.373,1.255-2.045.053-3.402-.066-3.402-.066l-3.929-1.178c-1.299.728-1.681,1.044-1.523,2.604.138,1.36,1.769,1.449,2.874,2.113-.605,3.178.264,3.294,1.512,4.069-.245,2.963.194,2.31,1.655,3.498,0,0,.168,1.498.247,1.918.195,1.048,1.132,1.698,2.85,1.525,1.718-.174,4.888.295,7.483.21,2.556-.084,4.273-.253,5.893.099,6.445,1.403,26.684,6.297,33.561,6.817" style="fill:url(#uuid-8c0cc335-97f7-45e9-99f2-d9e9ea7f0ce8); stroke:#000001; stroke-linecap:round; stroke-linejoin:round; stroke-width:.5px;"/><path d="m339.027,144.551c.329,1.133-.072,1.926,2.424,2.192" style="fill:#fff; stroke:#000001; stroke-linecap:round; stroke-linejoin:round; stroke-width:.5px;"/><line x1="340.685" y1="149.792" x2="342.664" y2="150.639" style="fill:none; stroke:#000001; stroke-linecap:round; stroke-linejoin:round; stroke-width:.5px;"/><line x1="342.341" y1="153.29" x2="343.859" y2="154.19" style="fill:none; stroke:#000001; stroke-linecap:round; stroke-linejoin:round; stroke-width:.5px;"/></g><g id="uuid-63da62aa-4921-45cf-bf8f-6673f1329757"><polygon points="400.993 2.458 651.681 2.458 651.681 216.12 400.993 216.12 400.993 91.387 279.087 108.066 400.993 61.447 400.993 2.458" style="fill:#fff; stroke:#000001; stroke-miterlimit:30; stroke-width:1.5px;"/></g><g id="uuid-42c2b9bb-fa7a-481c-aa2a-d6fadbcc79be"><rect x="597.63" y="6.753" width="16.494" height="50.861" transform="translate(638.062 -573.694) rotate(90)" style="fill:#000001; stroke:#fff; stroke-miterlimit:10; stroke-width:1.5px;"/><line x1="541.664" y1="32.252" x2="435.228" y2="32.252" style="fill:none; stroke:#f2a900; stroke-linejoin:round; stroke-width:7px;"/><polygon points="437.271 25.272 425.182 32.252 437.271 39.233 437.271 25.272" style="fill:#f2a900; stroke-width:0px;"/><polygon points="542.696 42.493 542.696 21.875 569.365 17.033 580.447 21.875 580.447 42.493 569.365 47.334 542.696 42.493" style="fill:#000001; stroke:#fff; stroke-miterlimit:10; stroke-width:1.5px;"/><rect x="597.537" y="148.991" width="16.494" height="50.861" transform="translate(780.205 -431.362) rotate(90)" style="fill:#000001; stroke:#fff; stroke-miterlimit:10; stroke-width:1.5px;"/><line x1="427.974" y1="149.021" x2="427.974" y2="199.821" style="fill:#fff; stroke:#000001; stroke-miterlimit:10; stroke-width:1.5px;"/><line x1="531.524" y1="174.421" x2="441.73" y2="174.421" style="fill:none; stroke:#f2a900; stroke-linejoin:round; stroke-width:7px;"/><polygon points="529.481 167.44 541.571 174.421 529.481 181.402 529.481 167.44" style="fill:#f2a900; stroke-width:0px;"/><polygon points="443.773 167.44 431.683 174.421 443.773 181.402 443.773 167.44" style="fill:#f2a900; stroke-width:0px;"/><polygon points="542.602 184.73 542.602 164.112 569.271 159.271 580.353 164.112 580.353 184.73 569.271 189.572 542.602 184.73" style="fill:#000001; stroke:#fff; stroke-miterlimit:10; stroke-width:1.5px;"/><rect x="597.742" y="71.781" width="16.494" height="50.861" transform="translate(703.201 -508.777) rotate(90)" style="fill:#000001; stroke:#fff; stroke-miterlimit:10; stroke-width:1.5px;"/><polyline points="423.047 128.571 547.857 96.959 423.047 65.346" style="fill:none; stroke:#000001; stroke-miterlimit:10; stroke-width:1.5px;"/><polygon points="542.807 107.521 542.807 86.903 569.476 82.061 580.558 86.903 580.558 107.521 569.476 112.362 542.807 107.521" style="fill:#000001; stroke:#fff; stroke-miterlimit:10; stroke-width:1.5px;"/><path d="m464.714,105.911c-.601-6.202-.572-12.357.042-18.392" style="fill:none; stroke:#f2a900; stroke-linejoin:round; stroke-width:7px;"/><polygon points="471.448 102.904 466.218 115.847 457.622 104.847 471.448 102.904" style="fill:#f2a900; stroke-width:0px;"/><polygon points="471.476 90.57 466.311 77.6 457.66 88.556 471.476 90.57" style="fill:#f2a900; stroke-width:0px;"/></g><g id="uuid-95effa79-bd33-4b06-8300-dbb4bae64904"><path d="m487.258,179.678c-4.451,0-8.06,3.608-8.06,8.06v.464c0,4.451,3.609,8.06,8.06,8.06s8.06-3.608,8.06-8.06v-.464c0-4.451-3.609-8.06-8.06-8.06Z" style="fill:none; stroke:#fff; stroke-miterlimit:10; stroke-width:4px;"/><circle cx="487.258" cy="187.97" r="8.275" style="fill:none; stroke:#fff; stroke-miterlimit:10; stroke-width:4px;"/><circle cx="487.258" cy="187.97" r="8.275" style="fill:#000001; stroke-width:0px;"/><path d="m487.258,179.678c-4.451,0-8.06,3.608-8.06,8.06v.464c0,4.451,3.609,8.06,8.06,8.06s8.06-3.608,8.06-8.06v-.464c0-4.451-3.609-8.06-8.06-8.06Z" style="fill:#000001; stroke-width:0px;"/><path d="m484.941,192.113c-.542-.316-1.007-.786-1.397-1.41l1.443-1.04c.242.442.509.759.799.949.291.19.652.286,1.086.286.469,0,.871-.094,1.209-.28.338-.186.507-.474.507-.864v-.156c0-.441-.149-.756-.448-.942-.299-.186-.805-.279-1.515-.279h-.649v-1.56h.623c.529,0,.961-.078,1.294-.234s.501-.45.501-.884v-.144c0-.312-.146-.543-.436-.695-.291-.151-.627-.228-1.008-.228-.364,0-.691.094-.981.279-.29.187-.531.462-.722.826l-1.365-.819c.312-.667.729-1.159,1.248-1.476s1.152-.475,1.898-.475c.91,0,1.652.217,2.229.65.576.434.864,1.079.864,1.937,0,.451-.091.839-.273,1.164-.182.325-.438.592-.767.8.416.216.729.493.942.831.213.339.318.755.318,1.248,0,.642-.158,1.188-.475,1.639-.316.45-.738.788-1.268,1.014-.528.226-1.109.338-1.742.338-.736,0-1.375-.158-1.917-.475Z" style="fill:#fff; stroke-width:0px;"/><path d="m487.257,88.399c-4.462,0-8.079,3.617-8.079,8.079v.426c0,4.462,3.617,8.079,8.079,8.079s8.079-3.617,8.079-8.079v-.426c0-4.462-3.617-8.079-8.079-8.079Z" style="fill:none; stroke:#fff; stroke-miterlimit:10; stroke-width:4px;"/><circle cx="487.257" cy="96.691" r="8.275" style="fill:none; stroke:#fff; stroke-miterlimit:10; stroke-width:4px;"/><circle cx="487.257" cy="96.691" r="8.275" style="fill:#000001; stroke-width:0px;"/><path d="m487.257,88.399c-4.462,0-8.079,3.617-8.079,8.079v.426c0,4.462,3.617,8.079,8.079,8.079s8.079-3.617,8.079-8.079v-.426c0-4.462-3.617-8.079-8.079-8.079Z" style="fill:#000001; stroke-width:0px;"/><path d="m483.77,99.697l3.238-3.028c.303-.277.559-.544.766-.8.209-.256.369-.496.481-.722.112-.225.169-.438.169-.637v-.117c0-.312-.119-.567-.357-.767s-.539-.299-.903-.299c-.521,0-.919.112-1.196.338s-.459.61-.546,1.156l-1.638-.52c.139-.832.507-1.476,1.105-1.931.598-.455,1.355-.683,2.274-.683.581,0,1.104.104,1.573.312.468.208.838.512,1.111.91s.41.871.41,1.417c0,.45-.09.882-.268,1.293-.178.412-.404.789-.682,1.131-.277.343-.594.674-.949.995l-2.002,1.794h3.965v1.625h-6.553v-1.47Z" style="fill:#fff; stroke-width:0px;"/><path d="m487.259,23.97c-3.934,0-7.124,3.189-7.124,7.124v2.337c0,3.934,3.189,7.124,7.124,7.124s7.124-3.189,7.124-7.124v-2.337c0-3.934-3.189-7.124-7.124-7.124Z" style="fill:none; stroke:#fff; stroke-miterlimit:10; stroke-width:4px;"/><circle cx="487.259" cy="32.262" r="8.275" style="fill:none; stroke:#fff; stroke-miterlimit:10; stroke-width:4px;"/><circle cx="487.259" cy="32.262" r="8.275" style="fill:#000001; stroke-width:0px;"/><path d="m487.259,23.97c-3.934,0-7.124,3.189-7.124,7.124v2.337c0,3.934,3.189,7.124,7.124,7.124s7.124-3.189,7.124-7.124v-2.337c0-3.934-3.189-7.124-7.124-7.124Z" style="fill:#000001; stroke-width:0px;"/><path d="m486.301,30.075c-.2.135-.455.284-.768.448l-.818-1.326c.477-.26.904-.535,1.286-.825s.732-.613,1.054-.969h1.807v9.334h-1.846v-7.215c-.277.234-.516.418-.715.553Z" style="fill:#fff; stroke-width:0px;"/></g></svg>