<?xml version="1.0" encoding="UTF-8"?><svg xmlns="http://www.w3.org/2000/svg" width="654" height="196.16" viewBox="0 0 654 196.16"><g id="uuid-b0da6300-f659-46f4-993d-521e4c21e320"><line x1="353.192" y1="60.436" x2="355.319" y2="16.471" style="fill:none; stroke:#a7abae; stroke-miterlimit:10; stroke-width:.5px;"/><line x1="331.379" y1="60.818" x2="339.051" y2="16.67" style="fill:none; stroke:#a7abae; stroke-miterlimit:10; stroke-width:.5px;"/><path d="m346.783,16.572l-4.767,44.186-.898,4.766s-2.694,18.651-2.694,36.197c0,13.624.425,15.138,1.441,32.35l.985,18.943" style="fill:none; stroke:#a7abae; stroke-miterlimit:10; stroke-width:.5px;"/><line x1="411.168" y1="59.475" x2="412.151" y2="16.364" style="fill:none; stroke:#a7abae; stroke-miterlimit:10; stroke-width:.5px;"/><path d="m234.925,154.993l.128-.202s1.146-1.803,2.83-3.698c2.191-2.465,4.442-3.287,7.67-3.424,7.457-.317,127.336-2.263,132.631-2.338,6.483-.091,9.496,0,11.961,2.283,1.708,1.582,3.193,3.421,3.947,4.405" style="fill:none; stroke:#a7abae; stroke-miterlimit:10; stroke-width:.5px;"/><line x1="533.535" y1="21.684" x2="533.305" y2="12.362" style="fill:none; stroke:#a7abae; stroke-miterlimit:10; stroke-width:.5px;"/><path d="m213.428,118.172c91.25-1.94,184.665-3.994,187.309-4.204,8.628-.685,12.055.174,14.518-3.013,2.328-3.013,4.52-6.574,7.807-11.504,8.456-12.684,19.033-13.485,42.594-13.833,27.802-.411,33.974.207,42.183,8.354,2.808,2.787,4.181,4.866,7.875,9.724.475.625.952,1.248,1.431,1.869,1.13,1.465,2.971,2.195,4.798,1.905l11.568-1.837c2.322-.369,5.652-1.957,7.4-3.53l8.571-7.714c1.712-1.541,2.712-3.725,2.757-6.028,0,0,0,0,0,0,.157-7.948-.117-11.874-.117-11.874" style="fill:none; stroke:#a7abae; stroke-miterlimit:10; stroke-width:.5px;"/><path d="m569.288,113.783l-17.587,10.624c-2.345,1.416-6.476,2.933-9.18,3.37l-22.169,3.583" style="fill:none; stroke:#a7abae; stroke-miterlimit:10; stroke-width:.5px;"/><path d="m105.648,89.46l-1.221,1.194c-.293.287-.47.669-.496,1.078-.143,2.288-.341,11.222-.371,13.675-.06,4.945.41,6.956,4.162,6.985,4.193.032,5.653,0,6.703,0,1.803,0,3.242-.435,4.405-2.397,1.163-1.962,5.469-9.363,7.807-12.326,2.935-3.721,8.067-9.222,41.179-9.222s37.459,4.033,44.579,17.165l6.483,12.6" style="fill:none; stroke:#a7abae; stroke-miterlimit:10; stroke-width:.5px;"/><path d="m104.639,79.96l.289-1.799c.083-.514.417-.952.891-1.167,4.215-1.92,21.362-5.022,24.02-5.316,22.978-2.54,97.301-2.745,97.301-2.745h.103c.42-.013,113.209-3.692,113.209-3.692,0,0,140.068-2.677,181.364-2.677,7.654,0,18.465,0,22.045,0,3.579,0,7.031.269,7.437,3.332" style="fill:none; stroke:#a7abae; stroke-miterlimit:10; stroke-width:.5px;"/><path d="m111.154,154.389c4.027-20.675,6.861-29.991,9.679-37.52" style="fill:none; stroke:#a7abae; stroke-miterlimit:10; stroke-width:.5px;"/><path d="m516.032,118.731c4.947,11.413,7.64,27.074,8.131,29.664" style="fill:none; stroke:#a7abae; stroke-miterlimit:10; stroke-width:.5px;"/><path d="m410.789,151.707c1.009-5.833,3.349-17.058,8.339-32.443" style="fill:none; stroke:#a7abae; stroke-miterlimit:10; stroke-width:.5px;"/><path d="m262.303,37.743c-.208,1.202-.738,3.869-1.37,8.423" style="fill:none; stroke:#a7abae; stroke-miterlimit:10; stroke-width:.5px;"/><path d="m91.607,80.427q15.027-.547,25.396-.822c5.317-.267,7.136.692,5.272,3.035-2.076,2.61-4.097,6.074-9.213,6.39-4.045.25-10.704.642-21.354,1.118" style="fill:none; stroke:#a7abae; stroke-miterlimit:10; stroke-width:.5px;"/><path d="m458.455,17.192s3.271,19.78,4.505,26.623,2.356,13.013,15.705,13.013,67-.194,67-.194" style="fill:none; stroke:#a7abae; stroke-miterlimit:10; stroke-width:.5px;"/><path d="m264.388,62.508l1.828-.061s96.335-2.183,113.902-2.531c17.105-.339,37.971-.451,44.028-.676,6.058-.224,8.301-2.58,8.301-8.526,0-5.946-.037-34.059-.037-34.059" style="fill:none; stroke:#a7abae; stroke-miterlimit:10; stroke-width:.5px;"/><path d="m285.314,17.429s84.526-1.242,97.266-1.242c65.301,0,139.61,2.955,139.61,2.955,7.308.47,11.997.017,15.537,8.782,3.665,9.074,7.938,28.71,7.938,28.71h17.059" style="fill:none; stroke:#a7abae; stroke-miterlimit:10; stroke-width:.5px;"/><path d="m518.521,149.805s-3.017-16.455-7.852-28.122c-4.637-11.189-9.602-21.005-17.165-23.374-7.563-2.369-26.21-1.789-26.21-1.789,0,0-20.047.273-26.79,3.007s-12.023,9.721-17.678,27.155c-4.529,13.963-6.834,29.342-6.834,29.342" style="fill:none; stroke:#a7abae; stroke-miterlimit:10;"/><line x1="424.457" y1="155.894" x2="210.776" y2="159.306" style="fill:none; stroke:#a7abae; stroke-miterlimit:10; stroke-width:.5px;"/><path d="m467.583,191.873c-24.168,0-43.831-19.662-43.831-43.83,0-24.169,19.662-43.831,43.831-43.831s43.831,19.662,43.831,43.831-19.662,43.83-43.831,43.83Z" style="fill:none; stroke:#a7abae; stroke-miterlimit:10; stroke-width:1px;"/><path d="m467.58,178.281c-16.674,0-30.239-13.565-30.239-30.238,0-16.674,13.565-30.239,30.239-30.239,16.674,0,30.239,13.565,30.239,30.239,0,16.673-13.565,30.238-30.239,30.238Z" style="fill:none; stroke:#a7abae; stroke-miterlimit:10; stroke-width:.5px;"/><path d="m459.393,168.701c-3.443-1.415-6.59-3.712-9-6.665l3.098-5.593c.242-.457.622-.815,1.104-1.043l7.4-3.416c.507-.25.751-.808.596-1.335l-.319-.969-.299-.943c-.164-.465-.593-.765-1.074-.765h-.058l-.129.015-8.016,1.585c-.16.032-.318.049-.475.049-.349,0-.7-.081-1.014-.231l-5.871-2.804c.268-3.723,1.476-7.43,3.546-10.627l6.283,1.224c.51.097.975.351,1.307.715l5.562,5.996c.203.224.499.353.806.353.236,0,.464-.075.657-.215l1.612-1.157c.462-.367.585-.968.314-1.449l-3.973-7.125c-.254-.44-.353-.965-.283-1.486l.849-6.422c5.486-1.282,9.555-.361,11.192.079l.792,6.341c.068.508-.033,1.037-.283,1.487l-3.976,7.127c-.274.486-.142,1.107.308,1.44l1.61,1.162c.192.14.419.215.658.215.301,0,.585-.119.8-.336l5.562-6.007c.346-.374.804-.624,1.324-.721l6.366-1.183c1.974,3.16,3.182,6.869,3.396,10.688l-5.801,2.696c-.326.157-.676.236-1.024.236-.156,0-.312-.015-.467-.047l-8.079-1.594-.14-.006c-.493,0-.932.322-1.067.783l-.306.925-.301.949c-.183.521.067,1.11.585,1.353l7.409,3.422c.467.224.85.586,1.1,1.042l3.087,5.683c-2.405,2.846-5.536,5.137-9.044,6.527l-4.428-4.678c-.358-.375-.586-.856-.646-1.354l-.969-8.108c-.061-.557-.537-.982-1.107-.982h-1.983c-.565,0-1.04.422-1.106.983l-.968,8.105c-.061.51-.287.987-.639,1.349l-4.479,4.73Z" style="fill:none; stroke:#a7abae; stroke-linecap:round; stroke-linejoin:round; stroke-width:.5px;"/><path d="m472.044,169.91c-1.438.291-2.94.444-4.467.444s-3.021-.153-4.459-.444l4.459-4.467,4.467,4.467Z" style="fill:none; stroke:#a7abae; stroke-linecap:round; stroke-linejoin:round; stroke-width:.5px;"/><path d="m489.757,150.554c-.168,1.457-.486,2.934-.958,4.386-.472,1.452-1.08,2.826-1.8,4.104l-2.871-5.621,5.629-2.868Z" style="fill:none; stroke:#a7abae; stroke-linecap:round; stroke-linejoin:round; stroke-width:.5px;"/><path d="m476.822,127.727c1.334.61,2.64,1.369,3.875,2.266,1.235.897,2.354,1.9,3.346,2.98l-6.233.993-.988-6.24Z" style="fill:none; stroke:#a7abae; stroke-linecap:round; stroke-linejoin:round; stroke-width:.5px;"/><path d="m451.116,132.975c.992-1.08,2.118-2.088,3.353-2.985s2.534-1.652,3.869-2.262l-.982,6.235-6.24-.988Z" style="fill:none; stroke:#a7abae; stroke-linecap:round; stroke-linejoin:round; stroke-width:.5px;"/><path d="m448.162,159.045c-.721-1.278-1.331-2.659-1.803-4.111-.472-1.452-.788-2.921-.955-4.378l5.626,2.86-2.868,5.629Z" style="fill:none; stroke:#a7abae; stroke-linecap:round; stroke-linejoin:round; stroke-width:.5px;"/><path d="m453.995,149.315c-.457-4.895,1.73-8.478,3.437-10.383" style="fill:none; stroke:#a7abae; stroke-linecap:round; stroke-linejoin:round; stroke-width:.5px;"/><path d="m464.66,161.372c-3.794-.83-7.003-3.244-8.895-6.511" style="fill:none; stroke:#a7abae; stroke-linecap:round; stroke-linejoin:round; stroke-width:.5px;"/><path d="m479.41,154.865c-1.342,2.086-3.867,5.405-8.915,6.507" style="fill:none; stroke:#a7abae; stroke-linecap:round; stroke-linejoin:round; stroke-width:.5px;"/><path d="m477.727,138.93c3.324,3.698,3.668,7.906,3.438,10.383" style="fill:none; stroke:#a7abae; stroke-linecap:round; stroke-linejoin:round; stroke-width:.5px;"/><path d="m462.137,135.531c5.151-2.252,9.615-.556,10.891.002" style="fill:none; stroke:#a7abae; stroke-linecap:round; stroke-linejoin:round; stroke-width:.5px;"/><path d="m293.74,17.306c-9.171,5.639-34.782,21.052-65.748,46.359" style="fill:none; stroke:#a7abae; stroke-miterlimit:10; stroke-width:.5px;"/><path d="m565.062,65.871l-26.317.482c-.959,0-1.803.434-1.803,1.735l-.065,3.053c0,2.997,2.831,5.551,9.047,5.551h19.484" style="fill:none; stroke:#a7abae; stroke-miterlimit:10; stroke-width:.5px;"/><path d="m125.484,156.921c-.07-.005-3.337-.246-4.9-.366-.537-.041-1.662-1.208-2.199-1.25-.826-.065-1.064-.085-1.891-.152-3.369-.273-6.839-.572-11.655-3.466-7.028-4.223-12.854-8.334-16.457-12.156-.556-.59-.855-1.375-.867-2.186l-.21-13.595c-.01-.648.358-1.242.942-1.522l6.721-2.532v-5.045s-1.107-.082-1.805-1.23c-.429-.707-1.201-1.896-1.73-2.706-.369-.564-.557-1.227-.54-1.901l.73-28.66c.067-2.625,1.668-4.962,4.095-5.963,6.554-2.7,21.185-7.634,43.9-9.416,31.935-2.505,58.144-2.399,61.454-2.668,3.31-.268,6.798,1.342,10.198,1.342s10.019.179,10.019.179c0,0,28.535-24.376,63.959-46.158,4.615-2.918,5.886-5.279,26.631-6.653,33.351-2.209,131.568-1.415,198.919.331l12.239.419c18.068,0,29.284,7.212,29.284,7.212,0,0,1.825,5.822,3.128,10.601,1.206,4.422,8.512,31.897,9.597,35.98l.363,11.331h.014s.067,1.132.168,12.144c.107,11.681-2.353,22.27-2.353,22.27l6.051,1.681s0,1.656,0,4.202c0,6.273-4.884,16.076-11.826,19.455-5.13,2.496-13.607,7.281-38.941,13.361-2.413.579-4.826,1.13-7.238,1.652" style="fill:none; stroke:#a7abae; stroke-miterlimit:10; stroke-width:.5px;"/><path d="m221.555,159.133l-.319-1.395c-1.151-5.039-5.236-22.169-9.753-32.129-8.674-19.128-11.915-27.939-38.858-27.671-31.179.31-39.085,2.562-44.881,16.155-5.375,12.608-8.35,26.358-11.251,41.06" style="fill:none; stroke:#a7abae; stroke-miterlimit:10;"/><path d="m563.237,111.107s-6.76,4.525-13.948,8.159c-7.763,3.924-15.898,4.665-21.866,5.385-5.963.719-8.344,1.147-9.942-2.976-2.384-4.556-5.722-13.089-12.108-21.676-6.757-9.085-15.849-9.081-38.211-9.039-9.592.018-22,.75-27.802,2.602-13.716,4.377-19.665,24.95-23.025,32.78-2.712,6.321-7.153,5.863-12.369,5.974-5.43.116-175.53,4.174-175.53,4.174-6.142,0-7.405.757-8.485-2.022-1.295-3.331-5.042-14.2-10.137-23.654-6.543-12.139-10.481-17.525-41.38-17.525s-36.019,4.883-38.758,8.307c-2.324,2.906-5.78,9.172-9.12,15.739-.448.882-1.342,1.454-2.331,1.491l-23.256.869" style="fill:none; stroke:#a7abae; stroke-miterlimit:10; stroke-width:.5px;"/><path d="m168.411,191.873c-24.168,0-43.831-19.662-43.831-43.83,0-24.169,19.662-43.831,43.831-43.831s43.831,19.662,43.831,43.831c0,24.168-19.662,43.83-43.831,43.83Z" style="fill:none; stroke:#a7abae; stroke-miterlimit:10; stroke-width:1px;"/><path d="m168.408,178.281c-16.674,0-30.239-13.565-30.239-30.238,0-16.674,13.565-30.239,30.239-30.239,16.674,0,30.239,13.565,30.239,30.239,0,16.673-13.565,30.238-30.239,30.238Z" style="fill:none; stroke:#a7abae; stroke-miterlimit:10; stroke-width:.5px;"/><path d="m160.222,168.701c-3.443-1.415-6.59-3.712-9-6.665l3.098-5.593c.242-.457.622-.815,1.104-1.043l7.4-3.416c.507-.25.751-.808.596-1.335l-.319-.969-.299-.943c-.164-.465-.593-.765-1.074-.765h-.058l-.129.015-8.016,1.585c-.16.032-.318.049-.475.049-.349,0-.7-.081-1.014-.231l-5.871-2.804c.268-3.723,1.476-7.43,3.546-10.627l6.283,1.224c.51.097.975.351,1.307.715l5.562,5.996c.203.224.499.353.806.353.236,0,.464-.075.657-.215l1.612-1.157c.462-.367.585-.968.314-1.449l-3.973-7.125c-.254-.44-.353-.965-.283-1.486l.849-6.422c5.486-1.282,9.555-.361,11.192.079l.792,6.341c.068.508-.033,1.037-.283,1.487l-3.976,7.127c-.274.486-.142,1.107.308,1.44l1.61,1.162c.192.14.419.215.658.215.301,0,.585-.119.8-.336l5.562-6.007c.346-.374.804-.624,1.324-.721l6.366-1.183c1.974,3.16,3.182,6.869,3.396,10.688l-5.801,2.696c-.326.157-.676.236-1.024.236-.156,0-.312-.015-.467-.047l-8.079-1.594-.14-.006c-.493,0-.932.322-1.067.783l-.306.925-.301.949c-.183.521.067,1.11.585,1.353l7.409,3.422c.467.224.85.586,1.1,1.042l3.087,5.683c-2.405,2.846-5.536,5.137-9.044,6.527l-4.428-4.678c-.358-.375-.586-.856-.646-1.354l-.969-8.108c-.061-.557-.537-.982-1.107-.982h-1.983c-.565,0-1.04.422-1.106.983l-.968,8.105c-.061.51-.287.987-.639,1.349l-4.479,4.73Z" style="fill:none; stroke:#a7abae; stroke-linecap:round; stroke-linejoin:round; stroke-width:.5px;"/><path d="m172.872,169.91c-1.438.291-2.94.444-4.467.444s-3.021-.153-4.459-.444l4.459-4.467,4.467,4.467Z" style="fill:none; stroke:#a7abae; stroke-linecap:round; stroke-linejoin:round; stroke-width:.5px;"/><path d="m190.585,150.554c-.168,1.457-.486,2.934-.958,4.386-.472,1.452-1.08,2.826-1.8,4.104l-2.871-5.621,5.629-2.868Z" style="fill:none; stroke:#a7abae; stroke-linecap:round; stroke-linejoin:round; stroke-width:.5px;"/><path d="m177.65,127.727c1.334.61,2.64,1.369,3.875,2.266s2.354,1.9,3.346,2.98l-6.233.993-.988-6.24Z" style="fill:none; stroke:#a7abae; stroke-linecap:round; stroke-linejoin:round; stroke-width:.5px;"/><path d="m151.944,132.975c.992-1.08,2.118-2.088,3.353-2.985s2.534-1.652,3.869-2.262l-.982,6.235-6.24-.988Z" style="fill:none; stroke:#a7abae; stroke-linecap:round; stroke-linejoin:round; stroke-width:.5px;"/><path d="m148.99,159.045c-.721-1.278-1.331-2.659-1.803-4.111s-.788-2.921-.955-4.378l5.626,2.86-2.868,5.629Z" style="fill:none; stroke:#a7abae; stroke-linecap:round; stroke-linejoin:round; stroke-width:.5px;"/><path d="m154.823,149.315c-.457-4.895,1.73-8.478,3.437-10.383" style="fill:none; stroke:#a7abae; stroke-linecap:round; stroke-linejoin:round; stroke-width:.5px;"/><path d="m165.489,161.372c-3.794-.83-7.003-3.244-8.895-6.511" style="fill:none; stroke:#a7abae; stroke-linecap:round; stroke-linejoin:round; stroke-width:.5px;"/><path d="m180.238,154.865c-1.342,2.086-3.867,5.405-8.915,6.507" style="fill:none; stroke:#a7abae; stroke-linecap:round; stroke-linejoin:round; stroke-width:.5px;"/><path d="m178.555,138.93c3.324,3.698,3.668,7.906,3.438,10.383" style="fill:none; stroke:#a7abae; stroke-linecap:round; stroke-linejoin:round; stroke-width:.5px;"/><path d="m162.965,135.531c5.151-2.252,9.615-.556,10.891.002" style="fill:none; stroke:#a7abae; stroke-linecap:round; stroke-linejoin:round; stroke-width:.5px;"/><path d="m94.967,114.651h5.15c1.064,0,2.129.441,2.957,1.417l1.4,1.65c.313.369.551,1.068.529,1.551l-.478,10.172c-.091,1.932-1.35,3.613-3.179,4.242l-3.614,1.244c-5.084,1.75-10.217,2.418-10.217,2.418" style="fill:none; stroke:#a7abae; stroke-miterlimit:10; stroke-width:.5px;"/><rect x="403.2" y="72.569" width="22.003" height="4.367" rx="2.184" ry="2.184" transform="translate(-.958 5.515) rotate(-.762)" style="fill:none; stroke:#a7abae; stroke-linecap:round; stroke-linejoin:round; stroke-width:.5px;"/><rect x="307.696" y="74.628" width="22.003" height="4.367" rx="2.184" ry="2.184" transform="translate(-1.31 5.653) rotate(-1.014)" style="fill:none; stroke:#a7abae; stroke-linecap:round; stroke-linejoin:round; stroke-width:.5px;"/><line x1="221.288" y1="63.629" x2="237.928" y2="63.193" style="fill:none; stroke:#a7abae; stroke-miterlimit:10; stroke-width:.5px;"/><path d="m229.676,155.006l-3.205-18.527s-2.076-11.999-2.685-18.474c-.609-6.474-1.162-24.182-.443-32.87.719-8.688,1.937-16.214,1.937-16.214l2.711-5.257" style="fill:none; stroke:#a7abae; stroke-miterlimit:10; stroke-width:.5px;"/><path d="m436.675,16.797c1.556,22.294,1.741,30.319,1.977,36.529.244,6.425,1.518,10.177,1.518,10.177,0,0,2.17,13.997,2.17,23.507v11.794" style="fill:none; stroke:#a7abae; stroke-miterlimit:10; stroke-width:.5px;"/><line x1="416.743" y1="151.596" x2="220.176" y2="155.268" style="fill:none; stroke:#a7abae; stroke-miterlimit:10; stroke-width:.5px;"/><path d="m515.77,11.319l.272-.568s3.131-6.53,7.425-6.53h4.294l.749,7.57" style="fill:none; stroke:#a7abae; stroke-miterlimit:10; stroke-width:.5px;"/><g id="uuid-75dd6578-29f8-4cc7-922e-8dc158b4008c"><path d="m86.31,123.756s.205,13.604.205,13.602c.014,1.045.404,2.076,1.145,2.859,3.696,3.918,9.622,8.09,16.67,12.32,5.014,3.017,8.668,3.335,12.091,3.608.37.029.62.05.861.069.277.022.541.044.955.076.107.05.312.188.67.448.269.195.974.756,1.6.807.3.023.662.05,1.051.079,1.02.077,2.29.173,3.105.233,2.238,9.974,7.808,18.7,15.474,24.945,7.719,6.288,17.567,10.063,28.279,10.063,10.254,0,19.713-3.457,27.271-9.266,7.536-5.792,13.186-13.924,15.856-23.306,0,0,212.118-3.389,212.104-3.389,2.049,10.188,7.563,19.134,15.252,25.555,7.777,6.494,17.785,10.407,28.688,10.407,11.734,0,22.432-4.533,30.43-11.937,7.876-7.291,13.14-17.371,14.201-28.657,2.179-.48,4.358-.98,6.538-1.505,23.352-5.6,32.469-10.117,37.831-12.778.47-.233.907-.45,1.321-.652,3.385-1.65,6.248-4.689,8.352-8.056,2.506-4.01,4.036-8.648,4.036-12.295v-4.961s-5.877-1.631-5.877-1.631c.589-2.855,2.262-11.846,2.172-21.572-.095-10.777-.182-12.164-.184-12.173l-.359-11.445-1.271-4.776c-2.445-9.19-7.383-27.751-8.357-31.315-1.309-4.803-3.254-10.982-3.254-10.982l-.304-.195s-8.874-5.694-23.431-7.073l-.762-7.649h-5.203c-1.217,0-2.319.424-3.266,1.02-2.959,1.862-4.88,5.712-5.047,6.056,0,0-4.318-.15-4.327-.15-67.341-1.745-165.607-2.544-199.008-.332-10.764.715-16.395,1.699-19.994,2.926-2.636.899-4.159,1.922-5.734,2.979-.448.301-.894.6-1.366.898-33.397,20.532-60.684,43.38-63.789,46.006-1.459-.039-6.734-.173-9.662-.173-1.453,0-2.943-.32-4.553-.671-1.805-.393-3.78-.831-5.728-.672-.779.063-2.958.107-6.355.173-10.236.2-31.045.608-55.089,2.498-22.828,1.786-37.567,6.757-44.205,9.486-1.393.573-2.548,1.527-3.367,2.712-.828,1.199-1.313,2.634-1.356,4.154,0,0-.722,28.661-.721,28.654-.028.88.226,1.749.701,2.475.529.81,1.297,1.994,1.713,2.67.35.585.789.978,1.207,1.237.156.096.307.174.45.236,0,0,0,3.601,0,3.601,0,0-6.074,2.287-6.155,2.322-.467.225-.847.575-1.108.999s-.403.92-.395,1.436Z" style="fill:none; stroke:#a7abae; stroke-miterlimit:3; stroke-width:.5px;"/><path d="m86.559,123.752s.205,13.604.205,13.602c.013.986.381,1.955,1.077,2.691,3.672,3.891,9.573,8.049,16.617,12.277,4.964,2.987,8.572,3.301,11.982,3.573.37.029.621.05.862.069.292.024.569.046.983.076.108.031.347.19.768.495.305.221.937.717,1.472.76.3.023.662.05,1.051.079,1.112.084,2.503.189,3.29.247,2.198,9.994,7.758,18.739,15.428,24.986,7.676,6.253,17.468,10.007,28.121,10.007,10.197,0,19.603-3.438,27.119-9.215s13.184-13.951,15.818-23.355c0,0,212.51-3.396,212.499-3.396,2.005,10.215,7.51,19.188,15.208,25.616,7.734,6.458,17.685,10.349,28.528,10.349,11.669,0,22.306-4.507,30.26-11.87,7.875-7.29,13.123-17.383,14.139-28.678,2.237-.492,4.474-1.004,6.712-1.543,23.332-5.595,32.431-10.105,37.778-12.759.47-.233.907-.45,1.323-.652,3.329-1.623,6.161-4.621,8.25-7.963,2.489-3.982,3.998-8.575,3.998-12.163v-4.771s-5.92-1.643-5.92-1.643c.538-2.56,2.306-11.765,2.214-21.748-.096-10.835-.183-12.162-.183-12.167l-.358-11.416-1.264-4.748c-2.445-9.19-7.383-27.75-8.356-31.314-1.307-4.798-3.224-10.886-3.224-10.886l-.228-.146s-8.899-5.714-23.525-7.053l-.76-7.629h-4.977c-1.158,0-2.214.403-3.133.981-3.028,1.905-4.964,5.971-4.967,5.976,0,0-.059.124-.059.124,0,0-4.482-.155-4.489-.155-67.343-1.745-165.598-2.543-198.985-.332-10.76.715-16.364,1.697-19.93,2.913-2.604.888-4.104,1.896-5.676,2.95-.448.3-.896.601-1.374.903-33.664,20.696-61.116,43.746-63.831,46.045-1.308-.035-6.758-.176-9.75-.176-1.484,0-3.002-.327-4.607-.677-1.813-.395-3.751-.822-5.654-.667-.789.064-2.98.108-6.371.174-10.235.2-31.038.607-55.075,2.497-22.8,1.784-37.514,6.748-44.129,9.468-1.347.554-2.464,1.477-3.256,2.623-.801,1.159-1.27,2.548-1.312,4.018,0,0-.722,28.661-.721,28.656-.027.827.213,1.646.66,2.33.529.809,1.299,1.996,1.718,2.678.327.547.736.913,1.124,1.153.201.125.395.215.569.28,0,0,0,3.943,0,3.942,0,0-6.236,2.348-6.297,2.374-.423.204-.767.521-1.004.905s-.365.833-.358,1.301Z" style="fill:none; stroke:#a7abae; stroke-miterlimit:3; stroke-width:.5px;"/><path d="m86.809,123.748s.205,13.604.205,13.603c.012.927.358,1.835,1.009,2.523,3.647,3.865,9.523,8.008,16.564,12.235,4.914,2.957,8.475,3.267,11.873,3.538.37.029.621.05.862.069.292.024.569.046,1.019.081.12.019.401.204.86.537.341.247.9.677,1.344.713.3.023.662.05,1.051.079,1.22.092,2.752.208,3.475.261,2.158,10.013,7.708,18.777,15.381,25.028,7.633,6.218,17.37,9.951,27.963,9.951,10.14,0,19.492-3.418,26.967-9.163,7.548-5.801,13.182-13.977,15.779-23.404,0,0,212.902-3.402,212.895-3.402,1.959,10.242,7.456,19.242,15.162,25.677,7.691,6.422,17.586,10.291,28.368,10.291,11.603,0,22.181-4.482,30.09-11.803,7.874-7.289,13.106-17.395,14.075-28.7,2.295-.504,4.591-1.028,6.886-1.582,23.312-5.59,32.394-10.094,37.725-12.74.47-.233.908-.451,1.324-.653,3.274-1.596,6.074-4.554,8.147-7.871,2.471-3.955,3.96-8.502,3.96-12.03v-4.581s-5.963-1.655-5.963-1.655c.466-2.176,2.353-11.635,2.258-21.923-.096-10.893-.183-12.159-.183-12.161l-.357-11.388-1.256-4.721c-2.445-9.191-7.383-27.749-8.356-31.312-1.306-4.793-3.194-10.79-3.194-10.79l-.152-.098s-8.924-5.734-23.618-7.033l-.758-7.609h-4.751c-1.098,0-2.109.382-3,.943-2.959,1.862-4.872,5.868-4.874,5.871,0,0-.129.273-.129.273,0,0-4.647-.161-4.651-.161-67.346-1.745-165.589-2.543-198.962-.333-10.757.715-16.333,1.695-19.865,2.9-2.571.877-4.049,1.869-5.617,2.921-.447.3-.899.603-1.383.909-33.982,20.892-61.63,44.182-63.873,46.085-1.11-.03-6.771-.178-9.839-.178-1.516,0-3.06-.334-4.66-.682-1.821-.396-3.721-.814-5.581-.662-.799.065-3.002.108-6.386.175-10.235.2-31.031.607-55.06,2.496-22.772,1.782-37.46,6.739-44.053,9.45-1.302.536-2.38,1.427-3.145,2.534-.774,1.12-1.227,2.462-1.268,3.883,0,0-.722,28.661-.721,28.658-.025.774.199,1.542.62,2.185.528.809,1.3,1.999,1.723,2.687.305.509.684.847,1.041,1.069.252.156.492.254.687.314,0,0,0,4.294,0,4.294,0,0-6.397,2.409-6.438,2.427-.379.182-.688.467-.9.811s-.327.747-.32,1.166Z" style="fill:none; stroke:#a7abae; stroke-miterlimit:3; stroke-width:.5px;"/><path d="m87.059,123.744s.205,13.604.205,13.603c.012.867.335,1.715.941,2.355,3.622,3.839,9.474,7.968,16.511,12.192,4.864,2.927,8.379,3.233,11.763,3.503.37.029.622.05.863.069.291.024.568.046,1.022.082.181.015.528.254.983.583.377.274.863.638,1.216.667.3.023.662.05,1.051.079,1.357.103,3.075.232,3.662.274,2.117,10.032,7.656,18.816,15.334,25.07,7.59,6.183,17.272,9.895,27.805,9.895,10.083,0,19.382-3.399,26.814-9.111,7.554-5.806,13.18-14.003,15.74-23.452,0,0,213.297-3.408,213.293-3.408,1.914,10.269,7.4,19.296,15.116,25.739,7.648,6.386,17.487,10.233,28.207,10.233,11.537,0,22.055-4.456,29.92-11.737,7.873-7.288,13.089-17.406,14.012-28.721,2.354-.516,4.708-1.053,7.062-1.62,23.292-5.585,32.356-10.082,37.673-12.72.47-.233.909-.451,1.326-.654,3.218-1.569,5.987-4.486,8.045-7.779,2.454-3.927,3.922-8.428,3.922-11.898v-4.391s-6.007-1.668-6.007-1.668c.356-1.618,2.401-11.409,2.302-22.099-.097-10.951-.183-12.155-.183-12.155,0,0-.356-11.331-.364-11.387-.211-.79-.654-2.458-1.242-4.665-2.446-9.192-7.383-27.749-8.356-31.311-1.305-4.787-3.164-10.694-3.164-10.694l-.076-.049s-8.948-5.754-23.711-7.012l-.756-7.59h-4.524c-1.039,0-2.003.361-2.867.904-2.89,1.818-4.78,5.765-4.781,5.766l-.199.422s-4.811-.167-4.814-.167c-67.348-1.745-165.579-2.542-198.939-.333-10.753.715-16.301,1.694-19.801,2.887-2.539.866-3.995,1.843-5.558,2.892-.447.3-.901.605-1.391.914-34.401,21.149-62.305,44.756-63.915,46.124-.825-.022-6.761-.181-9.928-.181-1.547,0-3.118-.341-4.713-.688-1.828-.398-3.691-.805-5.507-.658-.809.066-3.024.109-6.401.176-10.234.2-31.024.607-55.046,2.496-22.744,1.779-37.407,6.73-43.978,9.432-1.256.517-2.297,1.376-3.035,2.445-.747,1.081-1.184,2.376-1.224,3.747,0,0-.722,28.661-.722,28.659-.023.721.186,1.439.579,2.04.528.808,1.302,2.001,1.729,2.695.282.472.631.782.958.985.317.196.612.291.805.336,0,0,0,4.658,0,4.658,0,0-6.559,2.47-6.579,2.479-.335.161-.608.413-.795.717s-.289.66-.283,1.031Z" style="fill:none; stroke:#a7abae; stroke-miterlimit:3; stroke-width:.5px;"/></g><path d="m87.309,123.741l.205,13.604c.011.808.312,1.594.873,2.186,3.598,3.813,9.424,7.927,16.458,12.15,4.815,2.897,8.283,3.199,11.654,3.468.819.065,1.056.086,1.885.151.539.043,1.669,1.206,2.197,1.249,1.573.119,4.836.366,4.901.366,4.115,19.926,21.8,34.951,42.933,34.951,20.282,0,37.375-13.83,42.362-32.56l213.683-3.414h.011c3.705,20.432,21.628,35.975,43.116,35.975,23.017,0,41.952-17.837,43.697-40.412,2.413-.528,4.825-1.077,7.238-1.659,25.333-6.075,33.81-10.857,38.947-13.356,6.936-3.382,11.826-13.184,11.826-19.452,0-2.553,0-4.201,0-4.201l-6.053-1.68s2.456-10.598,2.348-22.274c-.097-11.008-.183-12.149-.183-12.149l-.356-11.331c-1.088-4.082-8.391-31.559-9.597-35.975-1.303-4.782-3.134-10.599-3.134-10.599,0,0-8.972-5.773-23.803-6.99l-.754-7.572h-4.298c-4.287,0-7.421,6.527-7.421,6.527l-.269.571-4.976-.172c-67.35-1.745-165.57-2.542-198.916-.334-20.745,1.379-22.016,3.738-26.636,6.656-35.425,21.779-63.957,46.164-63.957,46.164,0,0-6.613-.183-10.017-.183s-6.894-1.616-10.2-1.346c-3.307.269-29.523.162-61.448,2.671-22.716,1.777-37.353,6.721-43.902,9.414-2.434,1.002-4.028,3.339-4.104,5.967l-.722,28.661c-.022.668.172,1.336.539,1.896.528.808,1.303,2.003,1.734,2.703.689,1.152,1.799,1.239,1.799,1.239v5.041s-6.721,2.531-6.721,2.531c-.582.28-.948.872-.937,1.519Z" style="fill:none; stroke:#a7abae; stroke-miterlimit:3; stroke-width:.5px;"/><path d="m436.228,179.401c-12.046-2.97-21.804-11.815-26.048-23.308" style="fill:none; stroke:#a7abae; stroke-miterlimit:10; stroke-width:1px;"/><path d="m224.557,159.086c-4.88,10.328-14.371,18.069-25.8,20.549" style="fill:none; stroke:#a7abae; stroke-miterlimit:10; stroke-width:1px;"/><line x1="120.174" y1="85.301" x2="133.104" y2="98.482" style="fill:none; stroke:#a7abae; stroke-miterlimit:10; stroke-width:.5px;"/><line x1="114.426" y1="112.393" x2="123.126" y2="112.393" style="fill:none; stroke:#a7abae; stroke-miterlimit:10; stroke-width:.5px;"/><path d="m447.153,47.553c.202,0,.294-.06.405-.177,0,0,2.2-2.248,2.661-2.635.102-.086.22-.087.222-.087.006,0,.125.001.227.087.43.362,2.661,2.635,2.661,2.635.109.118.202.177.405.177h1.224c.271-.001.446-.258.223-.488-1.252-1.293-3.392-3.431-3.884-3.88-.237-.216-.537-.303-.854-.303s-.603.102-.854.303c-.538.427-3.371,3.288-3.884,3.879-.199.229-.1.487.225.487h1.224Z" style="fill:none; stroke:#a7abae; stroke-linecap:round; stroke-linejoin:round; stroke-width:.375px;"/><path d="m449.59,51.921c.25.2.537.303.853.303s.603-.102.854-.303c.544-.432,3.375-3.293,3.884-3.879.185-.214.014-.486-.224-.486h-1.224c-.203-.001-.296.059-.405.177,0,0-2.23,2.272-2.66,2.634-.102.086-.22.087-.222.087-.007,0-.125-.001-.227-.087-.461-.387-2.661-2.635-2.661-2.635-.11-.118-.203-.177-.405-.177h-1.224c-.183.001-.466.239-.226.486,1.564,1.612,3.453,3.538,3.886,3.881Z" style="fill:none; stroke:#a7abae; stroke-linecap:round; stroke-linejoin:round; stroke-width:.375px;"/><path d="m450.447,50.454v-1.689h-.009c0-.173-.05-.284-.185-.411-.165-.153-.431-.407-.617-.597-.098-.1-.104-.258-.014-.366.179-.213.444-.47.629-.638.138-.129.188-.24.188-.414h.009v-1.685" style="fill:none; stroke:#a7abae; stroke-linecap:round; stroke-linejoin:round; stroke-width:.375px;"/><path d="m450.428,50.454v-1.689h.009c0-.173.05-.284.185-.411.165-.153.431-.407.617-.597.098-.1.104-.258.014-.366-.179-.213-.444-.47-.629-.638-.138-.129-.188-.24-.188-.414h-.009v-1.685" style="fill:none; stroke:#a7abae; stroke-linecap:round; stroke-linejoin:round; stroke-width:.375px;"/><line x1="537.358" y1="73.1" x2="565.286" y2="72.853" style="fill:none; stroke:#a7abae; stroke-miterlimit:10; stroke-width:.5px;"/><path d="m257.983,63.981h-5.301c-.846,0-1.977-.535-2.514-1.189l-4.281-5.213c-.387-.471-.687-1.008-.885-1.585l-.062-.181" style="fill:none; stroke:#a7abae; stroke-miterlimit:10; stroke-width:.5px;"/><g id="uuid-ec05ddc1-5a00-456c-92df-8279d79a53fa"><path d="m249.754,66.111c.393-.013.785-.096,1.149-.247,1.001-.414,3.71-1.384,7.079-1.384,1.607,0,4.725.024,6.517-1.436,1.982-1.979,2.035-2.849,2.139-5.266.003-.077.007-.155.01-.235.025-.571.027-2.041.01-2.609-.067-2.263-.097-3.214-.929-5.857-.45-1.431-.881-2.488-1.792-3.052-.296-.183-.626-.305-.996-.38-1.351-.273-3.443.066-6.881.609-.122.019-.246.039-.405.065-6.636,1.521-10.564,7.234-10.561,7.237-.396.444-.613.884-.693,1.324-.128.707.12,1.321.283,1.742.185.479.22.645.169.768-.03.072-.138.232-.582.431-3.694,1.656-3.85,1.806-6.152,4.402-.181.204-.375.423-.585.659-.145.163-.243.35-.294.547-.054.207-.057.42-.012.623s.136.396.271.561c.129.157.296.287.496.374l2.325,1.017c.487.213,1.277.365,1.808.348l7.625-.244Z" style="fill:none; stroke:#a7abae; stroke-miterlimit:10; stroke-width:.5px;"/><path d="m249.746,65.862c.363-.012.725-.089,1.062-.228,1.018-.421,3.761-1.403,7.175-1.403,1.639,0,4.651.012,6.34-1.362,1.921-1.919,1.964-2.718,2.066-5.099.003-.077.007-.155.01-.235.025-.564.027-2.027.01-2.591-.067-2.25-.095-3.176-.918-5.789-.454-1.443-.864-2.406-1.685-2.915-.266-.165-.568-.277-.914-.347-1.294-.261-3.327.064-6.793.611-.122.019-.246.039-.388.062-6.567,1.505-10.45,7.184-10.43,7.159-.37.415-.563.815-.633,1.203-.114.628.104,1.178.27,1.607.174.449.264.72.168.954-.065.159-.243.354-.711.564-3.664,1.642-3.791,1.772-6.067,4.34-.181.204-.375.423-.586.66-.118.133-.197.285-.239.444-.044.168-.046.341-.01.506s.11.322.22.456c.104.127.24.233.403.304l2.325,1.017c.453.198,1.206.343,1.7.327l7.625-.244Z" style="fill:none; stroke:#a7abae; stroke-miterlimit:10; stroke-width:.5px;"/></g><path d="m249.738,65.612c.333-.011.666-.081.974-.209,1.034-.428,3.811-1.422,7.27-1.422,1.672,0,4.577,0,6.164-1.289,1.921-1.919,1.892-2.633,2.003-5.168.024-.557.027-2.014.01-2.572-.066-2.237-.093-3.138-.906-5.721-1.194-3.795-1.925-3.612-9.485-2.421-6.467,1.482-10.3,7.082-10.3,7.082-1.838,2.06,1.346,3.342-.991,4.389-3.926,1.76-3.724,1.746-6.568,4.938-.376.422-.23,1.088.287,1.314l2.325,1.017c.419.183,1.135.321,1.592.306l7.625-.244Z" style="fill:none; stroke:#a7abae; stroke-miterlimit:10; stroke-width:.5px;"/><path d="m266.09,57.523h-9.755c-.202,0-.384-.122-.461-.308s-.035-.401.108-.544l1.033-1.033c.44-.44,1.037-.688,1.66-.688h7.485" style="fill:none; stroke:#a7abae; stroke-linecap:round; stroke-linejoin:round; stroke-width:.5px;"/><line x1="266.09" y1="57.523" x2="245.887" y2="57.523" style="fill:none; stroke:#a7abae; stroke-linecap:round; stroke-linejoin:round; stroke-width:.5px;"/><ellipse cx="241.984" cy="62.173" rx=".685" ry="1.102" style="fill:none; stroke:#a7abae; stroke-miterlimit:10; stroke-width:.5px;"/></g><g id="uuid-b98416d7-4340-4555-86d2-349d344376df"><path d="m565.64,65.86l-26.895.492c-.959,0-1.803.434-1.803,1.735l-.065,3.053c0,2.997,2.831,5.551,9.047,5.551h20.318l-.603-10.832Z" style="fill:#d3d5d6; stroke:#000001; stroke-linecap:round; stroke-linejoin:round;"/><path d="m266.15,57.528c.024-.558.027-2.018.01-2.578h-7.69c-.624,0-1.222.248-1.663.689l-1.035,1.035c-.143.143-.186.358-.108.545s.26.309.462.309h9.965s.059,0,.059,0Z" style="fill:#d3d5d6; stroke:#000001; stroke-linecap:round; stroke-linejoin:round;"/><path d="m94.254,114.646h5.858c1.065,0,2.129.441,2.957,1.417l1.4,1.65c.313.369.551,1.068.529,1.552l-.002.052-10.742.375v-5.046Z" style="fill:#d3d5d6; stroke:#000001; stroke-linecap:round; stroke-linejoin:round;"/><path d="m133.106,98.473l3.256,4.556s-6.535,3.614-10.382,15.463l-5.775.079c3.938-11.462,9.568-18.331,12.9-20.098Z" style="fill:#d3d5d6; stroke:#000001; stroke-linecap:round; stroke-linejoin:round;"/><ellipse cx="259.299" cy="63.468" rx="1.666" ry=".747" style="fill:#d3d5d6; stroke:#000001; stroke-linecap:round; stroke-linejoin:round;"/><line x1="537.087" y1="72.507" x2="566.041" y2="72.507" style="fill:none; stroke:#000001; stroke-linecap:round; stroke-linejoin:round; stroke-width:.5px;"/><path d="m90.786,80.396c14.241-.29,16.048-.522,26.216-.791,5.318-.267,7.138.692,5.273,3.036-2.077,2.611-4.098,6.075-9.215,6.392-3.921.243-12.29.779-22.502,1.074l.227-9.71Z" style="fill:#d3d5d6; stroke:#000001; stroke-linecap:round; stroke-linejoin:round;"/><line x1="258.559" y1="56.135" x2="258.34" y2="56.344" style="fill:#d3d5d6; stroke-width:0px;"/><path d="m258.285,56.697c.105.017.216-.014.3-.092l.218-.209c.144-.135.152-.361.017-.505s-.361-.153-.506-.017l-.218.209c-.144.135-.152.361-.017.505.057.061.13.097.206.109Z" style="fill:#000001; stroke-width:0px;"/></g><g id="uuid-5f022aa7-aa7b-49d3-bab6-2c45e4bec51a"><path d="m90.396,115.958h-52.999c-.213-2.26-1.334-4.256-2.996-5.617-1.422-1.179-3.248-1.888-5.239-1.888s-3.817.709-5.239,1.888c-1.662,1.361-2.783,3.357-2.996,5.617h-1.925c-.239-2.531-1.615-4.731-3.616-6.079-1.316-.899-2.906-1.426-4.62-1.426s-3.304.527-4.62,1.426c-2.205,1.487-3.655,4.007-3.655,6.866s1.45,5.38,3.655,6.866c1.316.899,2.906,1.426,4.62,1.426s3.304-.527,4.62-1.426c2.149-1.449,3.574-3.883,3.645-6.653h1.867c.064,2.494,1.224,4.715,3.025,6.19,1.422,1.179,3.248,1.888,5.239,1.888s3.817-.709,5.239-1.888c1.801-1.475,2.961-3.696,3.025-6.19h52.97c.276,0,.5-.224.5-.5s-.224-.5-.5-.5Z" style="fill:none; stroke:#fff; stroke-linecap:round; stroke-linejoin:round; stroke-width:3px;"/><line x1="10.795" y1="116.458" x2="90.396" y2="116.458" style="fill:none; stroke:#000001; stroke-linecap:round; stroke-linejoin:round;"/><circle cx="10.766" cy="116.745" r="8.275" style="fill:#000001; stroke-width:0px;"/><path d="m10.766,108.453c-4.53,0-8.203,3.672-8.203,8.203v.178c0,4.53,3.672,8.203,8.203,8.203s8.203-3.672,8.203-8.203v-.178c0-4.53-3.672-8.203-8.203-8.203Z" style="fill:#000001; stroke-width:0px;"/><path d="m11.186,119.14h-4.343v-1.339l4.251-5.915h1.82v5.668h1.274v1.586h-1.274v2.08h-1.729v-2.08Zm0-1.586v-3.159l-2.275,3.159h2.275Z" style="fill:#fff; stroke-width:0px;"/><circle cx="29.161" cy="116.745" r="8.275" style="fill:#000001; stroke-width:0px;"/><path d="m29.161,108.453c-4.537,0-8.215,3.678-8.215,8.215v.153c0,4.537,3.678,8.215,8.215,8.215s8.215-3.678,8.215-8.215v-.153c0-4.537-3.678-8.215-8.215-8.215Z" style="fill:#000001; stroke-width:0px;"/><path d="m26.39,120.629c-.629-.49-.942-1.173-.942-2.048,0-.546.114-1.005.344-1.378s.57-.667,1.021-.884c-.363-.199-.632-.453-.806-.761s-.26-.695-.26-1.164c0-.554.139-1.033.416-1.437.277-.402.656-.706,1.138-.909.48-.204,1.016-.306,1.605-.306.606,0,1.147.106,1.625.318.477.213.849.514,1.117.903s.403.85.403,1.378c0,.451-.093.837-.279,1.157s-.453.59-.8.806c.46.208.807.501,1.04.878.234.377.352.843.352,1.397,0,.875-.316,1.558-.949,2.048-.633.489-1.469.734-2.509.734-1.049,0-1.888-.245-2.516-.734Zm3.711-1.151c.304-.164.455-.446.455-.845v-.233c0-.442-.134-.759-.402-.949-.27-.19-.686-.286-1.248-.286s-.979.096-1.248.286-.403.507-.403.949v.233c0,.398.149.681.448.845.299.165.7.247,1.203.247.494,0,.893-.082,1.195-.247Zm-.116-4.237c.19-.183.285-.425.285-.729v-.169c0-.329-.112-.576-.338-.741-.226-.164-.567-.247-1.026-.247-.399,0-.729.085-.988.254s-.39.414-.39.734v.169c0,.304.097.546.292.729.195.182.557.272,1.086.272s.888-.091,1.079-.272Z" style="fill:#fff; stroke-width:0px;"/><path d="m92.133,83.189h-54.751c-.241-2.55-1.638-4.762-3.662-6.107-1.305-.882-2.879-1.398-4.573-1.398s-3.268.515-4.573,1.398c-2.024,1.346-3.421,3.557-3.662,6.107h-1.708c-.35-3.706-3.144-6.695-6.754-7.348-.478-.101-.973-.157-1.482-.157s-1.004.055-1.482.157c-3.862.699-6.793,4.072-6.793,8.135s2.931,7.436,6.793,8.135c.478.101.973.157,1.482.157s1.004-.055,1.482-.157c3.794-.687,6.681-3.955,6.783-7.922h1.65c.071,2.79,1.517,5.236,3.691,6.681,1.305.882,2.879,1.398,4.573,1.398s3.268-.515,4.573-1.398c2.175-1.445,3.62-3.892,3.691-6.681h54.722c.276,0,.5-.224.5-.5s-.224-.5-.5-.5Z" style="fill:none; stroke:#fff; stroke-linecap:round; stroke-linejoin:round; stroke-width:3px;"/><line x1="10.795" y1="83.689" x2="92.133" y2="83.689" style="fill:none; stroke:#000001; stroke-linecap:round; stroke-linejoin:round;"/><circle cx="10.968" cy="83.976" r="8.275" style="fill:#000001; stroke-width:0px;"/><path d="m10.968,75.684c-3.934,0-7.124,3.189-7.124,7.124v2.337c0,3.934,3.189,7.124,7.124,7.124s7.124-3.189,7.124-7.124v-2.337c0-3.934-3.189-7.124-7.124-7.124Z" style="fill:#000001; stroke-width:0px;"/><path d="m10.01,81.788c-.2.135-.455.284-.768.449l-.818-1.326c.477-.26.905-.535,1.286-.826.382-.29.732-.613,1.054-.968h1.807v9.334h-1.846v-7.215c-.277.234-.516.418-.715.552Z" style="fill:#fff; stroke-width:0px;"/><circle cx="29.147" cy="83.976" r="8.275" style="fill:#000001; stroke-width:0px;"/><path d="m29.147,75.684c-4.516,0-8.176,3.661-8.176,8.176v.231c0,4.516,3.661,8.176,8.176,8.176s8.176-3.661,8.176-8.176v-.231c0-4.516-3.661-8.176-8.176-8.176Z" style="fill:#000001; stroke-width:0px;"/><path d="m27.116,88.184c-.508-.264-.899-.641-1.177-1.131s-.416-1.06-.416-1.709c0-.442.071-.879.215-1.313.143-.433.383-.945.721-1.534.529-.91,1.361-2.037,2.496-3.38h2.263l-.716.871c-.363.442-.71.862-1.04,1.261-.329.399-.598.75-.806,1.053.174-.035.373-.052.598-.052.599,0,1.132.135,1.6.403s.83.641,1.085,1.118c.256.477.384,1.014.384,1.612,0,.65-.147,1.218-.442,1.703-.294.486-.704.856-1.228,1.112-.525.255-1.121.383-1.788.383-.658,0-1.241-.132-1.748-.396Zm2.964-1.631c.299-.251.448-.611.448-1.079v-.182c0-.477-.146-.838-.436-1.085s-.678-.371-1.163-.371-.887.122-1.203.364-.475.607-.475,1.092v.182c0,.477.146.838.436,1.085.291.247.688.371,1.189.371s.904-.125,1.203-.377Z" style="fill:#fff; stroke-width:0px;"/><path d="m259.573,40.306H61.344c-.438-4.167-3.962-7.414-8.245-7.414h-5.698c-4.283,0-7.806,3.248-8.245,7.414h-1.768c-.323-3.06-2.313-5.622-5.046-6.762-.977-.419-2.051-.653-3.181-.653s-2.205.234-3.181.653c-2.733,1.14-4.723,3.701-5.046,6.762h-2.029c-.276-3.122-2.282-5.745-5.056-6.902-.977-.419-2.051-.653-3.181-.653s-2.205.234-3.181.653c-2.991,1.247-5.094,4.197-5.094,7.639s2.103,6.392,5.094,7.639c.977.419,2.051.653,3.181.653s2.205-.234,3.181-.653c2.914-1.215,4.976-4.048,5.08-7.377h1.964c.05,3.389,2.133,6.285,5.087,7.517.977.419,2.051.653,3.181.653s2.205-.234,3.181-.653c2.955-1.232,5.038-4.127,5.087-7.517h1.686c.066,4.522,3.748,8.169,8.286,8.169h5.698c4.538,0,8.219-3.647,8.286-8.169h197.687v11.205c0,.276.224.5.5.5s.5-.224.5-.5v-11.705c0-.276-.224-.5-.5-.5Z" style="fill:none; stroke:#fff; stroke-linecap:round; stroke-linejoin:round; stroke-width:3px;"/><polyline points="11.723 40.806 259.573 40.806 259.573 52.511" style="fill:none; stroke:#000001; stroke-linecap:round; stroke-linejoin:round;"/><circle cx="29.161" cy="41.183" r="8.275" style="fill:#000001; stroke-width:0px;"/><path d="m29.161,32.891c-4.462,0-8.079,3.617-8.079,8.079v.426c0,4.462,3.617,8.079,8.079,8.079s8.079-3.617,8.079-8.079v-.426c0-4.462-3.617-8.079-8.079-8.079Z" style="fill:#000001; stroke-width:0px;"/><path d="m28.177,43.799c.377-.511.708-.997.994-1.456-.078.018-.158.028-.24.032-.082.005-.167.007-.254.007-.589,0-1.12-.134-1.592-.403-.473-.269-.841-.639-1.105-1.111-.265-.472-.396-.999-.396-1.58,0-.641.154-1.196.462-1.664.308-.468.719-.825,1.234-1.072s1.081-.371,1.697-.371c.632,0,1.191.132,1.677.396.485.265.862.639,1.131,1.125s.403,1.049.403,1.69c0,.459-.087.934-.261,1.424-.173.49-.48,1.12-.923,1.891-.355.581-.678,1.082-.968,1.501-.291.421-.652.904-1.086,1.45h-2.236c.599-.728,1.086-1.348,1.463-1.859Zm1.885-3.393c.265-.243.396-.581.396-1.014v-.169c0-.451-.135-.793-.402-1.027-.27-.234-.642-.351-1.118-.351s-.85.117-1.118.351-.403.576-.403,1.027v.169c0,.416.119.75.357,1.001.238.251.618.377,1.138.377.503,0,.886-.121,1.15-.364Z" style="fill:#fff; stroke-width:0px;"/><circle cx="50.251" cy="41.183" r="8.275" style="fill:#000001; stroke-width:0px;"/><path d="m53.1,32.891h-5.698c-4.58,0-8.292,3.712-8.292,8.292s3.712,8.292,8.292,8.292h5.698c4.58,0,8.292-3.712,8.292-8.292s-3.712-8.292-8.292-8.292Z" style="fill:#000001; stroke-width:0px;"/><path d="m45.276,38.995c-.2.135-.455.284-.768.449l-.818-1.326c.477-.26.905-.535,1.286-.826.382-.29.732-.613,1.054-.968h1.807v9.334h-1.846v-7.215c-.277.234-.516.418-.715.552Z" style="fill:#fff; stroke-width:0px;"/><path d="m50.683,45.229c-.537-.381-.934-.91-1.189-1.586-.256-.676-.384-1.456-.384-2.34v-.624c0-.884.128-1.664.384-2.34.256-.676.652-1.205,1.189-1.586s1.218-.572,2.041-.572c.814,0,1.493.188,2.034.565.542.377.94.904,1.196,1.58.256.676.384,1.46.384,2.353v.624c0,.884-.128,1.662-.384,2.333-.256.672-.654,1.201-1.196,1.586-.541.386-1.22.579-2.034.579-.823,0-1.504-.19-2.041-.572Zm3.387-1.839c.238-.507.357-1.185.357-2.035v-.728c0-.867-.117-1.549-.351-2.048-.234-.498-.686-.748-1.353-.748-.676,0-1.129.25-1.358.748-.229.499-.345,1.181-.345,2.048v.728c0,.85.119,1.528.357,2.035s.688.761,1.346.761,1.107-.254,1.346-.761Z" style="fill:#fff; stroke-width:0px;"/><circle cx="10.667" cy="41.043" r="8.275" style="fill:#000001; stroke-width:0px;"/><path d="m10.667,32.751c-4.462,0-8.079,3.617-8.079,8.079v.426c0,4.462,3.617,8.079,8.079,8.079s8.079-3.617,8.079-8.079v-.426c0-4.462-3.617-8.079-8.079-8.079Z" style="fill:#000001; stroke-width:0px;"/><path d="m7.18,44.049l3.237-3.029c.304-.277.559-.544.767-.799.208-.256.369-.496.481-.722.112-.225.169-.438.169-.637v-.117c0-.312-.119-.567-.357-.767-.238-.199-.539-.299-.903-.299-.521,0-.919.113-1.196.338-.277.226-.459.611-.546,1.157l-1.638-.52c.139-.832.507-1.476,1.104-1.931.599-.455,1.356-.683,2.275-.683.58,0,1.104.104,1.573.312.468.208.838.512,1.111.91.272.398.409.871.409,1.417,0,.451-.089.882-.267,1.293s-.405.789-.683,1.131c-.277.343-.594.674-.949.995l-2.002,1.794h3.966v1.625h-6.553v-1.469Z" style="fill:#fff; stroke-width:0px;"/><path d="m259.389,66.591c-.276,0-.5.224-.5.5v115.108H19.569c-.344-3.646-3.051-6.604-6.576-7.322-.535-.117-1.089-.184-1.66-.184s-1.125.066-1.66.184c-3.775.769-6.615,4.107-6.615,8.108s2.841,7.34,6.615,8.108c.535.117,1.089.184,1.66.184s1.125-.066,1.66-.184c3.707-.755,6.505-3.989,6.604-7.895h239.791c.276,0,.5-.224.5-.5v-115.608c0-.276-.224-.5-.5-.5Z" style="fill:none; stroke:#fff; stroke-linecap:round; stroke-linejoin:round; stroke-width:3px;"/><polyline points="11.023 182.7 259.389 182.7 259.389 67.091" style="fill:none; stroke:#000001; stroke-linecap:round; stroke-linejoin:round;"/><circle cx="11.334" cy="182.986" r="8.275" style="fill:#000001; stroke-width:0px;"/><path d="m11.334,174.694c-4.261,0-7.715,3.454-7.715,7.715v1.154c0,4.261,3.454,7.715,7.715,7.715s7.715-3.454,7.715-7.715v-1.154c0-4.261-3.454-7.715-7.715-7.715Z" style="fill:#000001; stroke-width:0px;"/><path d="m12.228,179.74h-4.329v-1.612h6.37v1.274l-3.744,8.06h-1.95l3.653-7.722Z" style="fill:#fff; stroke-width:0px;"/><path d="m130.452,105.265c-.276,0-.5.224-.5.5v37.138H18.862c-.292-3.094-2.285-5.691-5.035-6.846-.982-.423-2.063-.659-3.2-.659s-2.218.236-3.2.659c-2.981,1.251-5.075,4.197-5.075,7.632s2.094,6.381,5.075,7.632c.982.423,2.063.659,3.2.659s2.218-.236,3.2-.659c2.918-1.225,4.979-4.076,5.064-7.419h111.562c.276,0,.5-.224.5-.5v-37.638c0-.276-.224-.5-.5-.5Z" style="fill:none; stroke:#fff; stroke-linecap:round; stroke-linejoin:round; stroke-width:3px;"/><polyline points="10.795 143.403 130.453 143.403 130.453 105.765" style="fill:none; stroke:#000001; stroke-linecap:round; stroke-linejoin:round;"/><circle cx="10.626" cy="143.689" r="8.275" style="fill:#000001; stroke-width:0px;"/><path d="m10.626,135.397c-4.473,0-8.098,3.626-8.098,8.098v.387c0,4.473,3.626,8.098,8.098,8.098s8.098-3.626,8.098-8.098v-.387c0-4.473-3.626-8.098-8.098-8.098Z" style="fill:#000001; stroke-width:0px;"/><path d="m6.911,146.41l1.443-1.027c.286.442.576.759.871.949.295.191.646.286,1.053.286.512,0,.908-.128,1.189-.384.282-.255.423-.63.423-1.124v-.144c0-.468-.135-.81-.403-1.026s-.654-.325-1.157-.325c-.277,0-.528.032-.754.098-.226.064-.477.18-.754.345l-1.287-.338.65-4.875h5.109v1.702h-3.602l-.208,1.573c.174-.052.349-.091.526-.117.178-.025.366-.039.565-.039.65,0,1.211.128,1.684.384s.834.611,1.086,1.066c.251.455.377.977.377,1.566,0,.667-.154,1.252-.462,1.755s-.729.891-1.268,1.163c-.537.273-1.14.41-1.807.41-1.369,0-2.462-.633-3.276-1.898Z" style="fill:#fff; stroke-width:0px;"/><path d="m652.736,71.871c0-3.449-2.111-6.403-5.111-7.646-.971-.415-2.04-.646-3.164-.646s-2.192.231-3.164.646c-2.769,1.147-4.779,3.752-5.072,6.859h-60.983v-5.691c0-.276-.224-.5-.5-.5h-5.708c-.276,0-.5.224-.5.5s.224.5.5.5h5.208v11.681h-5.208c-.276,0-.5.224-.5.5s.224.5.5.5h5.708c.276,0,.5-.224.5-.5v-5.99h60.954c.086,3.357,2.163,6.216,5.101,7.432.971.415,2.04.646,3.164.646s2.192-.231,3.164-.646c3-1.243,5.111-4.197,5.111-7.646Z" style="fill:none; stroke:#fff; stroke-linecap:round; stroke-linejoin:round; stroke-width:3px;"/><line x1="644.118" y1="71.584" x2="574.742" y2="71.584" style="fill:none; stroke:#000001; stroke-linecap:round; stroke-linejoin:round;"/><circle cx="644.461" cy="71.871" r="8.275" style="fill:#000001; stroke-width:0px;"/><path d="m644.461,63.579c-4.451,0-8.06,3.608-8.06,8.06v.464c0,4.451,3.609,8.06,8.06,8.06s8.06-3.608,8.06-8.06v-.464c0-4.451-3.609-8.06-8.06-8.06Z" style="fill:#000001; stroke-width:0px;"/><path d="m642.144,76.014c-.542-.316-1.008-.787-1.397-1.411l1.443-1.04c.242.442.509.759.799.949.29.191.652.286,1.086.286.468,0,.871-.093,1.209-.28.338-.186.507-.474.507-.864v-.156c0-.442-.149-.756-.448-.942-.299-.186-.805-.279-1.515-.279h-.65v-1.56h.624c.528,0,.96-.078,1.294-.234.333-.156.5-.451.5-.884v-.143c0-.312-.145-.543-.436-.695-.29-.151-.626-.228-1.007-.228-.364,0-.691.093-.981.279-.291.187-.531.462-.722.826l-1.365-.819c.312-.667.729-1.159,1.248-1.476s1.152-.475,1.898-.475c.909,0,1.652.217,2.229.65.576.434.864,1.079.864,1.937,0,.451-.091.839-.273,1.164-.182.325-.438.592-.767.8.416.216.729.494.942.832.212.338.318.754.318,1.248,0,.642-.158,1.188-.475,1.638s-.738.789-1.268,1.014c-.528.225-1.109.338-1.742.338-.736,0-1.376-.158-1.917-.475Z" style="fill:#fff; stroke-width:0px;"/><polyline points="569.034 78.075 574.742 78.075 574.742 65.394 569.034 65.394" style="fill:none; stroke:#000001; stroke-linecap:round; stroke-linejoin:round;"/><path d="m652.596,97.66c0-3.443-2.103-6.392-5.094-7.639-.977-.419-2.052-.653-3.181-.653s-2.205.234-3.181.653c-2.76,1.151-4.761,3.752-5.054,6.852h-1.364c-.293-3.1-2.294-5.701-5.054-6.852-.977-.419-2.052-.653-3.181-.653s-2.205.234-3.181.653c-2.76,1.151-4.761,3.752-5.054,6.852h-60.471v-21.348c0-.276-.224-.5-.5-.5s-.5.224-.5.5v21.848c0,.276.224.5.5.5h60.942c.085,3.35,2.155,6.206,5.083,7.426.977.419,2.052.653,3.181.653s2.205-.234,3.181-.653c2.928-1.221,4.997-4.076,5.083-7.426h1.306c.085,3.35,2.155,6.206,5.083,7.426.977.419,2.052.653,3.181.653s2.205-.234,3.181-.653c2.991-1.247,5.094-4.197,5.094-7.639Z" style="fill:none; stroke:#fff; stroke-linecap:round; stroke-linejoin:round; stroke-width:3px;"/><polyline points="641.347 97.374 557.279 97.374 557.279 75.526" style="fill:none; stroke:#000001; stroke-linecap:round; stroke-linejoin:round;"/><circle cx="626.486" cy="97.66" r="8.275" style="fill:#000001; stroke-width:0px;"/><path d="m626.486,89.369c-4.462,0-8.079,3.617-8.079,8.079v.426c0,4.462,3.617,8.079,8.079,8.079s8.079-3.617,8.079-8.079v-.426c0-4.462-3.617-8.079-8.079-8.079Z" style="fill:#000001; stroke-width:0px;"/><path d="m622.998,100.666l3.237-3.029c.304-.277.559-.544.767-.799.208-.256.369-.496.481-.722.112-.225.169-.438.169-.637v-.117c0-.312-.119-.567-.357-.767-.238-.199-.539-.299-.903-.299-.521,0-.919.113-1.196.338-.277.226-.459.611-.546,1.157l-1.638-.52c.139-.832.507-1.476,1.104-1.931.599-.455,1.356-.683,2.275-.683.58,0,1.104.104,1.573.312.468.208.838.512,1.111.91.272.398.409.871.409,1.417,0,.451-.089.882-.267,1.293s-.405.789-.683,1.131c-.277.343-.594.674-.949.995l-2.002,1.794h3.966v1.625h-6.553v-1.469Z" style="fill:#fff; stroke-width:0px;"/><circle cx="644.321" cy="97.66" r="8.275" style="fill:#000001; stroke-width:0px;"/><path d="m644.321,89.369c-4.462,0-8.079,3.617-8.079,8.079v.426c0,4.462,3.617,8.079,8.079,8.079s8.079-3.617,8.079-8.079v-.426c0-4.462-3.617-8.079-8.079-8.079Z" style="fill:#000001; stroke-width:0px;"/><path d="m643.336,100.277c.377-.511.708-.997.994-1.456-.078.018-.158.028-.24.032-.082.005-.167.007-.254.007-.589,0-1.12-.134-1.592-.403-.473-.269-.841-.639-1.105-1.111-.265-.472-.396-.999-.396-1.58,0-.641.154-1.196.462-1.664.308-.468.719-.825,1.234-1.072s1.081-.371,1.697-.371c.632,0,1.191.132,1.677.396.485.265.862.639,1.131,1.125s.403,1.049.403,1.69c0,.459-.087.934-.261,1.424-.173.49-.48,1.12-.923,1.891-.355.581-.678,1.082-.968,1.501-.291.421-.652.904-1.086,1.45h-2.236c.599-.728,1.086-1.348,1.463-1.859Zm1.885-3.393c.265-.243.396-.581.396-1.014v-.169c0-.451-.135-.793-.402-1.027-.27-.234-.642-.351-1.118-.351s-.85.117-1.118.351-.403.576-.403,1.027v.169c0,.416.119.75.357,1.001.238.251.618.377,1.138.377.503,0,.886-.121,1.15-.364Z" style="fill:#fff; stroke-width:0px;"/><path d="m652.673,47.585c0-3.435-2.094-6.381-5.074-7.632-.982-.423-2.063-.66-3.201-.66s-2.219.237-3.201.66c-2.724,1.144-4.706,3.702-5.027,6.756h-78.891c-.276,0-.5.224-.5.5v19.839c0,.276.224.5.5.5s.5-.224.5-.5v-19.339h78.35c.05,3.381,2.124,6.272,5.068,7.508.982.423,2.063.66,3.201.66s2.219-.237,3.201-.66c2.981-1.252,5.074-4.197,5.074-7.632Z" style="fill:none; stroke:#fff; stroke-linecap:round; stroke-linejoin:round; stroke-width:3px;"/><polyline points="643.267 47.209 557.279 47.209 557.279 67.049" style="fill:none; stroke:#000001; stroke-linecap:round; stroke-linejoin:round;"/><circle cx="644.398" cy="47.585" r="8.275" style="fill:#000001; stroke-width:0px;"/><path d="m644.398,39.293c-4.473,0-8.099,3.626-8.099,8.099v.386c0,4.473,3.626,8.099,8.099,8.099s8.099-3.626,8.099-8.099v-.386c0-4.473-3.626-8.099-8.099-8.099Z" style="fill:#000001; stroke-width:0px;"/><path d="m640.684,50.306l1.442-1.027c.286.442.577.759.871.949.295.191.646.286,1.054.286.511,0,.907-.128,1.189-.384.281-.255.422-.63.422-1.125v-.143c0-.468-.134-.81-.402-1.027-.269-.216-.654-.325-1.157-.325-.277,0-.529.032-.754.097-.226.065-.477.18-.754.345l-1.287-.338.649-4.875h5.109v1.703h-3.601l-.208,1.573c.173-.052.349-.091.526-.117s.366-.039.565-.039c.649,0,1.211.128,1.684.384.472.256.834.611,1.085,1.066.252.455.377.977.377,1.566,0,.667-.153,1.252-.461,1.755-.308.503-.73.891-1.268,1.164-.538.273-1.14.41-1.808.41-1.369,0-2.461-.633-3.275-1.898Z" style="fill:#fff; stroke-width:0px;"/><circle cx="625.832" cy="47.676" r="8.275" style="fill:#000001; stroke-width:0px;"/><path d="m625.832,39.384c-3.934,0-7.123,3.189-7.123,7.123v2.338c0,3.934,3.189,7.123,7.123,7.123s7.123-3.189,7.123-7.123v-2.338c0-3.934-3.189-7.123-7.123-7.123Z" style="fill:#000001; stroke-width:0px;"/><path d="m624.873,45.489c-.199.135-.455.284-.767.449l-.819-1.326c.477-.26.905-.535,1.287-.826.381-.29.732-.613,1.053-.968h1.808v9.334h-1.847v-7.215c-.277.234-.516.418-.715.552Z" style="fill:#fff; stroke-width:0px;"/></g></svg>