<?xml version="1.0" encoding="UTF-8"?><svg xmlns="http://www.w3.org/2000/svg" width="218" height="138.634" viewBox="0 0 218 138.634"><g id="uuid-55c6a182-a3f4-4794-a807-a97faa7d3fd7"><path d="m61.786,56.398c-1.577.694-3.191,1.479-4.361,2.705-.292.304-.498.671-.613,1.046-.102.385-.01.775.191,1.104.436.661,1.215,1.087,1.998,1.383,3.236,1.097,6.807.984,10.188.471,1.701-.273,3.38-.688,5.014-1.236,1.626-.553,3.233-1.238,4.851-1.869l9.691-3.85,9.707-3.811,4.844-1.915c1.575-.668,3.155-1.448,4.341-2.638.564-.59,1.004-1.373.82-2.123-.175-.756-.893-1.302-1.627-1.668-1.52-.725-3.27-.951-4.981-.995-3.448-.036-6.893.666-10.168,1.82,3.201-1.341,6.657-2.203,10.173-2.201,1.746.022,3.541.203,5.174.977.783.393,1.626.977,1.875,1.96.239.991-.322,1.918-.922,2.554-1.278,1.291-2.888,2.081-4.491,2.774l-4.844,1.944-9.687,3.861-9.702,3.822c-1.622.627-3.217,1.303-4.884,1.865-1.663.552-3.371.969-5.102,1.242-3.444.503-7.065.649-10.43-.573-.815-.332-1.657-.776-2.176-1.591-.236-.412-.33-.934-.185-1.396.152-.447.407-.844.729-1.155.633-.635,1.379-1.122,2.167-1.498.779-.397,1.594-.71,2.41-1.009Z" style="fill:#a7abae; stroke-width:0px;"/><path d="m20.073,104.678c1.12,2.6.72,5.27-.9,5.97-1.62.69-3.83-.85-4.95-3.44-1.13-2.6-.72-5.27.89-5.97,1.62-.7,3.83.84,4.96,3.44Z" style="fill:#d3d5d6; stroke-width:0px;"/><path d="m24.973,102.508c-2.8-6.48-8.33-10.33-12.37-8.59-4.03,1.74-5.03,8.41-2.23,14.89,2.8,6.48,8.33,10.33,12.37,8.59,4.03-1.74,5.03-8.41,2.23-14.89Zm-4.02,11.51c-2.82,1.22-6.7-1.47-8.66-6.01s-1.26-9.21,1.57-10.43c2.82-1.22,6.7,1.48,8.66,6.02,1.96,4.53,1.26,9.2-1.57,10.42Z" style="fill:#d3d5d6; stroke-width:0px;"/><path d="m19.173,110.648c-1.62.69-3.83-.85-4.95-3.44-1.13-2.6-.72-5.27.89-5.97,1.62-.7,3.83.84,4.96,3.44,1.12,2.6.72,5.27-.9,5.97Z" style="fill:#d3d5d6; stroke-width:0px;"/><path d="m19.173,110.648c-1.62.69-3.83-.85-4.95-3.44-1.13-2.6-.72-5.27.89-5.97,1.62-.7,3.83.84,4.96,3.44,1.12,2.6.72,5.27-.9,5.97Z" style="fill:#d3d5d6; stroke-width:0px;"/><path d="m65.964,84.782c-2.65-6.15-6.35-11.28-10.43-14.96-6.73-6.94-15.11-7.41-18.95-5.76l-8.35,3.6c-1.21.52-2.32,1.23-3.3,2.1-1.96-.04-3.65.28-4.88.81l-8.53,3.68c-9.95,4.29-12.48,20.69-5.64,36.54,5.59,12.95,16,21.99,25.32,21.99,1.81,0,3.54-.35,5.14-1.04l8.51-3.67c1.64-.71,3.11-1.8,4.35-3.2,1.16-.15,2.28-.45,3.33-.91l8.34-3.59c9.85-4.26,11.51-20.74,5.09-35.59Zm-41.45,35.98c-5.24,2.27-12.43-2.73-16.07-11.15-3.64-8.43-2.33-17.09,2.91-19.35s12.43,2.73,16.07,11.16c3.63,8.42,2.33,17.08-2.91,19.34Z" style="fill:#d3d5d6; stroke-width:0px;"/><g id="uuid-0bd70c1b-b80a-4c69-a282-9c323567033f"><path d="m61.264,121.193s90.383-43.147,90.384-43.147c1.474-.705,3.111-1.033,4.896-1.384,1.722-.339,3.59-.702,5.31-1.514,0,0,40.647-19.199,40.637-19.194,0,0,.474-.217.483-.222,3.667-1.728,6.464-4.72,8.275-8.416,0,0,2.072-4.223,2.072-4.223,1.342-2.736,2.074-5.927,2.156-9.31.096-3.974-.704-8.233-2.491-12.373-1.788-4.137-4.339-7.641-7.299-10.298-2.517-2.258-5.339-3.913-8.25-4.813,0,0-4.489-1.391-4.491-1.392-3.933-1.211-8.026-1.234-11.798.252,0,0-42.334,16.604-42.332,16.603-1.784.694-3.339,1.811-4.776,2.836-1.474,1.052-2.829,2.012-4.338,2.6L36.313,63.36" style="fill:none; stroke:#a7abae; stroke-linecap:round; stroke-linejoin:round; stroke-width:.5px;"/><path d="m61.156,120.968s90.383-43.147,90.383-43.147c1.507-.721,3.176-1.054,4.956-1.404,1.727-.34,3.564-.698,5.252-1.495,0,0,40.647-19.199,40.639-19.195,0,0,.474-.217.481-.22,3.608-1.7,6.367-4.647,8.157-8.3,0,0,2.072-4.223,2.072-4.223,1.324-2.7,2.05-5.854,2.131-9.206.095-3.937-.698-8.16-2.471-12.268-1.774-4.105-4.304-7.579-7.237-10.211-2.493-2.237-5.285-3.872-8.157-4.76,0,0-4.489-1.391-4.49-1.391-3.887-1.197-7.921-1.217-11.633.245,0,0-42.334,16.604-42.332,16.603-1.75.681-3.28,1.778-4.722,2.806-1.469,1.048-2.849,2.028-4.393,2.629L36.403,63.593" style="fill:none; stroke:#a7abae; stroke-linecap:round; stroke-linejoin:round; stroke-width:.5px;"/><path d="m61.048,120.742s90.383-43.147,90.383-43.147c1.54-.737,3.241-1.075,5.016-1.424,1.733-.341,3.538-.694,5.193-1.476,0,0,40.647-19.199,40.642-19.196,0,0,.474-.217.478-.219,3.55-1.673,6.27-4.575,8.04-8.184,0,0,2.072-4.223,2.072-4.223,1.306-2.664,2.025-5.782,2.105-9.102.094-3.899-.691-8.087-2.45-12.163-1.76-4.073-4.27-7.517-7.174-10.124-2.47-2.216-5.23-3.831-8.064-4.707,0,0-4.489-1.391-4.49-1.391-3.841-1.183-7.816-1.199-11.468.239,0,0-42.334,16.604-42.333,16.604-1.716.668-3.221,1.745-4.667,2.777-1.464,1.045-2.869,2.044-4.448,2.659L36.494,63.826" style="fill:none; stroke:#a7abae; stroke-linecap:round; stroke-linejoin:round; stroke-width:.5px;"/><path d="m60.941,120.517s90.383-43.147,90.383-43.147c1.574-.753,3.306-1.095,5.075-1.444,1.738-.342,3.513-.69,5.135-1.456,0,0,40.647-19.199,40.644-19.198,0,0,.474-.217.476-.218,3.492-1.645,6.174-4.502,7.922-8.068,0,0,2.072-4.223,2.072-4.223,1.288-2.627,2-5.709,2.08-8.998.094-3.862-.684-8.014-2.43-12.058-1.747-4.041-4.235-7.455-7.112-10.037-2.446-2.195-5.176-3.79-7.971-4.655,0,0-4.489-1.391-4.489-1.391-3.795-1.168-7.711-1.182-11.303.233,0,0-42.334,16.604-42.334,16.604-1.682.655-3.162,1.712-4.612,2.747-1.46,1.042-2.89,2.061-4.503,2.688l-93.389,36.162" style="fill:none; stroke:#a7abae; stroke-linecap:round; stroke-linejoin:round; stroke-width:.5px;"/></g><path d="m60.833,120.291l90.383-43.147c3.197-1.529,7.015-1.391,10.211-2.901l40.647-19.199.474-.217c3.433-1.618,6.077-4.43,7.804-7.952l2.072-4.223c2.762-5.633,2.851-13.418-.355-20.846-3.206-7.419-8.929-12.697-14.927-14.552l-4.489-1.391c-3.749-1.154-7.607-1.164-11.138.227l-42.334,16.604c-3.295,1.283-5.821,4.153-9.116,5.436l-93.389,36.162" style="fill:none; stroke:#a7abae; stroke-linecap:round; stroke-linejoin:round; stroke-width:.5px;"/><path d="m35.887,63.165c3.352-1.227,6.984-1.039,10.209-.002,3.248,1.044,6.136,2.892,8.708,5.027,2.576,2.151,4.79,4.693,6.714,7.415,1.914,2.731,3.568,5.643,4.892,8.7,2.617,6.102,4.285,12.725,4.022,19.436-.128,3.339-.731,6.697-2.072,9.809-1.35,3.096-3.543,5.904-6.573,7.768-.392.241-.906.119-1.148-.273s-.119-.906.273-1.148c.037-.023.075-.042.114-.059l.017-.007c2.878-1.192,5.112-3.753,6.466-6.662,1.327-2.951,1.911-6.213,2.058-9.464.281-6.538-1.29-13.081-3.883-19.083-1.327-3-2.979-5.848-4.877-8.511-1.908-2.653-4.095-5.122-6.615-7.19-2.507-2.061-5.329-3.813-8.424-4.697-3.068-.901-6.418-.831-9.203.511l-.011.005c-.426.206-.939.027-1.144-.4s-.027-.939.4-1.144c.025-.012.052-.023.078-.033Z" style="fill:#000001; stroke-width:0px;"/><path d="m31.676,67.244c1.452-.435,3.037-.549,4.54-.244,1.523.201,2.977.711,4.391,1.277,2.813,1.201,5.323,2.998,7.57,5.037,4.495,4.115,7.852,9.325,10.302,14.861,2.33,5.588,3.789,11.609,3.681,17.699-.073,3.031-.499,6.088-1.576,8.947-.565,1.413-1.201,2.814-2.109,4.049-.834,1.284-2.001,2.34-3.292,3.126,1.052-1.098,2.132-2.111,2.932-3.377.876-1.203,1.49-2.575,2.036-3.958,1.04-2.801,1.445-5.81,1.502-8.796.076-6.001-1.394-11.946-3.724-17.453-2.406-5.474-5.706-10.632-10.12-14.695-2.205-2.013-4.666-3.784-7.407-4.964-1.377-.556-2.792-1.057-4.264-1.255-1.469-.278-2.934-.202-4.462-.253Z" style="fill:#000001; stroke-width:0px;"/><path d="m192.654,5.867c6.949,2.148,13.573,8.259,17.286,16.861,3.713,8.602,3.615,17.614.412,24.143" style="fill:none; stroke:#a7abae; stroke-linecap:round; stroke-linejoin:round; stroke-width:.5px;"/><path d="m139.178,22.69c10.642-4.128,23.961,3.63,29.998,17.613,6.037,13.993,2.552,29.002-7.759,33.918" style="fill:none; stroke:#a7abae; stroke-linecap:round; stroke-linejoin:round; stroke-width:.5px;"/><path d="m130.064,28.131c10.117-3.925,22.779,3.451,28.518,16.744,5.739,13.303,2.426,27.572-7.376,32.246" style="fill:none; stroke:#a7abae; stroke-linecap:round; stroke-linejoin:round; stroke-width:.5px;"/><line x1="197.145" y1="7.256" x2="192.654" y2="5.867" style="fill:none; stroke:#a7abae; stroke-linecap:round; stroke-linejoin:round; stroke-width:.5px;"/><path d="m190.313,12.748c0,.619-.579,1.247-1.963,1.738l-17.433,6.797c-4.336,1.715-8.995.056-8.995-1.706l.013.031c-5.018,2.186,1.919,6.156,8.236,3.658l19.297-7.524c3.037-1.079,2.573-2.751.547-3.769" style="fill:none; stroke:#a7abae; stroke-linecap:round; stroke-linejoin:round; stroke-width:.5px;"/><path d="m173.963,17.238l-6.37,2.484c-2.142.847-4.5-.559-2.574-1.265l6.529-2.545c2.049-.735,4.322.649,2.415,1.327Z" style="fill:none; stroke:#a7abae; stroke-linecap:round; stroke-linejoin:round; stroke-width:.5px;"/><path d="m161.923,19.578c0-.62.578-1.254,1.95-1.757l17.867-6.965c4.121-1.478,8.573.176,8.573,1.892v1.692c0,.619-.579,1.247-1.963,1.738l-17.433,6.797c-4.336,1.715-8.995.056-8.995-1.706v-1.692Z" style="fill:none; stroke:#a7abae; stroke-linecap:round; stroke-linejoin:round; stroke-width:.5px;"/><path d="m204.256,47.094c-.076,1.779-2.008,2.817-2.068,2.857l-22.985,10.768c-.889.42-1.548.1-1.518-.779.003-.07.193-1.92,2.068-2.857l22.775-10.668c1.237-.589,1.756-.128,1.728.679Z" style="fill:none; stroke:#a7abae; stroke-linecap:round; stroke-linejoin:round; stroke-width:.5px;"/><path d="m30.211,100.318c.896,1.827,1.618,3.752,2.095,5.745.462,1.996.696,4.047.686,6.101-.015,2.052-.286,4.123-.974,6.081-.682,1.947-1.826,3.797-3.504,5.079-.213.153-.414.325-.638.462l-.698.368c-.451.277-.971.398-1.462.581-1.017.244-2.073.392-3.113.273-2.092-.15-4.061-.963-5.806-2.043-3.503-2.183-6.243-5.421-8.133-9.015,2.25,3.37,4.941,6.505,8.378,8.612,1.707,1.037,3.618,1.799,5.599,1.921.987.106,1.975-.047,2.924-.28.457-.178.941-.29,1.359-.555l.648-.347c.207-.13.393-.293.59-.438,1.57-1.186,2.671-2.93,3.337-4.802.672-1.881.948-3.897.973-5.903.025-2.011-.221-4.018-.596-6-.432-1.972-.996-3.914-1.665-5.84Z" style="fill:#000001; stroke-width:0px;"/><path d="m5.471,106.509c-.57-1.596-.992-3.256-1.209-4.949-.21-1.694-.228-3.413-.057-5.118.175-1.702.556-3.399,1.253-4.984.693-1.578,1.73-3.046,3.131-4.103,1.402-1.041,3.13-1.664,4.875-1.685,1.744-.031,3.462.401,5.023,1.113,3.125,1.452,5.724,3.848,7.653,6.626-2.257-2.509-4.797-4.811-7.847-6.195-1.52-.674-3.169-1.065-4.813-1.018-1.645.038-3.244.639-4.542,1.621-1.312.977-2.305,2.354-2.979,3.864-.678,1.514-1.058,3.158-1.239,4.816-.182,1.662-.148,3.341-.022,5.014.175,1.67.439,3.331.771,4.997Z" style="fill:#000001; stroke-width:0px;"/><ellipse cx="17.933" cy="105.513" rx="10.334" ry="16.613" transform="translate(-40.343 15.744) rotate(-23.345)" style="fill:none; stroke:#000001; stroke-linecap:round; stroke-linejoin:round; stroke-width:.5px;"/><ellipse cx="17.668" cy="105.654" rx="7.951" ry="12.783" transform="translate(-40.42 15.65) rotate(-23.345)" style="fill:none; stroke:#000001; stroke-linecap:round; stroke-linejoin:round; stroke-width:.5px;"/><ellipse cx="17.403" cy="105.795" rx="5.568" ry="8.952" transform="translate(-40.498 15.557) rotate(-23.345)" style="fill:none; stroke:#000001; stroke-linecap:round; stroke-linejoin:round; stroke-width:.5px;"/><ellipse cx="17.138" cy="105.936" rx="3.186" ry="5.122" transform="translate(-40.575 15.463) rotate(-23.345)" style="fill:none; stroke:#000001; stroke-linecap:round; stroke-linejoin:round; stroke-width:.5px;"/><path d="m12.933,75.553c2.903-1.348,6.339-1.381,9.405-.439,3.094.93,5.865,2.689,8.321,4.733,4.937,4.131,8.53,9.627,11.138,15.446,2.438,5.892,3.964,12.278,3.575,18.698-.2,3.187-.827,6.403-2.267,9.289-1.417,2.873-3.779,5.351-6.744,6.556,2.884-1.399,5.04-3.9,6.402-6.722,1.343-2.853,1.962-6.005,2.137-9.149.348-6.328-1.195-12.635-3.637-18.442-2.557-5.757-6.095-11.2-10.94-15.278-2.409-2.025-5.127-3.729-8.117-4.71-2.984-.942-6.27-1.103-9.274.018Z" style="fill:#000001; stroke-width:0px;"/><path d="m24.562,69.535c9.153-.274,19.843,8.538,25.685,22.017,5.832,13.468,4.929,27.268-1.549,33.718" style="fill:none; stroke:#000001; stroke-linecap:round; stroke-linejoin:round;"/><path d="m61.413,120.568l-7.672,3.663c-1.466.734-3.061,1.145-4.754,1.229-.445.566-1.839,2.173-3.934,3.076l-8.516,3.67c-1.658.716-3.452,1.078-5.332,1.078-9.512,0-20.116-9.165-25.786-22.289-6.946-16.107-4.296-32.793,5.907-37.196l8.524-3.68c1.897-.819,4.4-.924,5.14-.938,1.145-1.107,2.128-1.65,3.504-2.244.142-.061.284-.122.435-.182l7.564-2.929" style="fill:none; stroke:#000001; stroke-linecap:round; stroke-linejoin:round; stroke-width:1.674px;"/></g><g id="uuid-ad2c0d78-f2c5-4a65-94b2-ed654cb10f00"><polyline points="87.765 127.897 60.477 127.897 48.809 116.105" style="fill:none; stroke:#fff; stroke-width:3px;"/><polyline points="87.765 127.897 60.477 127.897 48.809 116.105" style="fill:none; stroke:#fff; stroke-width:3px;"/><polyline points="87.765 127.897 60.477 127.897 48.809 116.105" style="fill:none; stroke:#fff; stroke-width:3px;"/><path d="m84.531,130.976l3.236-3.029c.304-.277.56-.544.768-.799.208-.256.368-.496.48-.722s.169-.438.169-.637v-.117c0-.312-.119-.567-.357-.768-.238-.199-.539-.299-.903-.299-.52,0-.919.113-1.196.338-.277.226-.459.611-.546,1.157l-1.638-.52c.139-.832.507-1.476,1.104-1.931.599-.455,1.356-.683,2.275-.683.581,0,1.105.104,1.573.312s.838.512,1.111.91.409.871.409,1.417c0,.451-.089.882-.267,1.294-.178.411-.405.788-.682,1.131-.278.343-.594.674-.949.994l-2.002,1.794h3.965v1.625h-6.552v-1.469Z" style="fill:none; stroke:#fff; stroke-width:3px;"/><circle cx="88.017" cy="127.97" r="8.275" style="fill:none; stroke:#fff; stroke-width:3px;"/><path d="m88.017,119.678c-4.462,0-8.079,3.617-8.079,8.079v.425c0,4.462,3.617,8.079,8.079,8.079s8.079-3.617,8.079-8.079v-.425c0-4.462-3.617-8.079-8.079-8.079Z" style="fill:none; stroke:#fff; stroke-width:3px;"/><path d="m84.531,130.976l3.236-3.029c.304-.277.56-.544.768-.799.208-.256.368-.496.48-.722s.169-.438.169-.637v-.117c0-.312-.119-.567-.357-.768-.238-.199-.539-.299-.903-.299-.52,0-.919.113-1.196.338-.277.226-.459.611-.546,1.157l-1.638-.52c.139-.832.507-1.476,1.104-1.931.599-.455,1.356-.683,2.275-.683.581,0,1.105.104,1.573.312s.838.512,1.111.91.409.871.409,1.417c0,.451-.089.882-.267,1.294-.178.411-.405.788-.682,1.131-.278.343-.594.674-.949.994l-2.002,1.794h3.965v1.625h-6.552v-1.469Z" style="fill:none; stroke:#fff; stroke-width:3px;"/><polyline points="87.765 127.897 60.477 127.897 48.809 116.105" style="fill:none; stroke:#fff; stroke-linecap:round; stroke-miterlimit:10; stroke-width:3px;"/><polyline points="87.765 127.897 60.477 127.897 48.809 116.105" style="fill:none; stroke:#000001; stroke-linecap:round; stroke-miterlimit:10;"/><circle cx="88.017" cy="127.97" r="8.275" style="fill:#000001; stroke-width:0px;"/><path d="m88.017,119.678c-4.462,0-8.079,3.617-8.079,8.079v.425c0,4.462,3.617,8.079,8.079,8.079s8.079-3.617,8.079-8.079v-.425c0-4.462-3.617-8.079-8.079-8.079Z" style="fill:#000001; stroke-width:0px;"/><path d="m84.531,130.976l3.236-3.029c.304-.277.56-.544.768-.799.208-.256.368-.496.48-.722s.169-.438.169-.637v-.117c0-.312-.119-.567-.357-.768-.238-.199-.539-.299-.903-.299-.52,0-.919.113-1.196.338-.277.226-.459.611-.546,1.157l-1.638-.52c.139-.832.507-1.476,1.104-1.931.599-.455,1.356-.683,2.275-.683.581,0,1.105.104,1.573.312s.838.512,1.111.91.409.871.409,1.417c0,.451-.089.882-.267,1.294-.178.411-.405.788-.682,1.131-.278.343-.594.674-.949.994l-2.002,1.794h3.965v1.625h-6.552v-1.469Z" style="fill:#fff; stroke-width:0px;"/></g></svg>