<svg xmlns="http://www.w3.org/2000/svg" width="218" height="218" viewBox="0 0 218 218"><g id="aa302c7f-ac1a-4608-9a48-b1387edb4b1c" data-name="below"><path d="M112.6665,135.8854c.6214-.2214,1.3253-.423,3.1127.533a26.5162,26.5162,0,0,1,2.7019,1.6211,2.2817,2.2817,0,0,0,2.4941-.1247c.9976-.5819,5.196-3.5332,9.3112-3.741" style="fill:none;stroke:#a7abae;stroke-linecap:round;stroke-linejoin:round;stroke-width:0.5px"/><path d="M125.3769,101.9457l-.2947,1.7432s3.1145.728,4.9132,1.3737c2.1615.7759,2.1615,2.3832,1.94,3.7133s-5.4534,26.25-5.4534,26.25" style="fill:none;stroke:#a7abae;stroke-linecap:round;stroke-linejoin:round;stroke-width:0.5px"/><path d="M128.5223,125.2854c-.6571,3.14-.45,8.2744,1.7641,8.8884.8909.2471.727.2066,2.7162.7359a4.3765,4.3765,0,0,0,1.9978-.054s.3988.69,2.3109,1.1886,35.8313,9.81,35.8313,9.81a3.0717,3.0717,0,0,0,1.9121.1385s.1663.6928,3.3254,1.3025" style="fill:none;stroke:#a7abae;stroke-linecap:round;stroke-linejoin:round;stroke-width:0.5px"/><path d="M193.76,126.7332a2.6913,2.6913,0,0,0-1.9537-2.12c-1.247-.54-3.9312-1.4932-4.8559-1.8414l-.0139-.0051" style="fill:none;stroke:#a7abae;stroke-linecap:round;stroke-linejoin:round;stroke-width:0.5px"/><path d="M179.731,141.45c-.9355,4.3066-1.6834,7.6878-1.6834,7.6878s3.5938.9768,6.2767,1.829a15.7516,15.7516,0,0,1,5.1343,2.495" style="fill:none;stroke:#a7abae;stroke-linecap:round;stroke-linejoin:round;stroke-width:0.5px"/><path d="M121.59,131.628l-25.1407-7.0471a1.9055,1.9055,0,0,0-.8658-.0381l-4.454.8351a1.9062,1.9062,0,0,1-.8508-.0339l-7.9474-2.158" style="fill:none;stroke:#a7abae;stroke-linecap:round;stroke-linejoin:round;stroke-width:0.5px"/><path d="M59.9457,159.4166l-.8912-.3028a.9816.9816,0,0,1-.6557-.7888l-1.8066-12.489a6.44,6.44,0,0,1,.8136-4.1743c3.3794-5.7956,7.6727-10.1519,17.7757-12.9887,11.251-3.1592,13.4826-3.7674,13.4826-3.7674" style="fill:none;stroke:#a7abae;stroke-linecap:round;stroke-linejoin:round;stroke-width:0.5px"/><path d="M91.9534,170.2669l-.8893-.323a1.0251,1.0251,0,0,1-.6509-.8416l-1.73-13.325a7.2808,7.2808,0,0,1,.8392-4.4537c3.4149-6.1835,7.7348-10.8314,17.8552-13.8581,11.27-3.3706,13.5057-4.02,13.5057-4.02" style="fill:none;stroke:#a7abae;stroke-linecap:round;stroke-linejoin:round;stroke-width:0.5px"/><path d="M135,134.8557s-1.0145-3.7441.4265-9.6744,6.152-26.9358,7.3159-31.148,1.829-5.7086,6.6508-8.8678,6.2629-3.3254,10.9184-2.5495,10.2534,2.1061,13.7451,2.9929,5.21,2.4941,7.205,7.15,2.3832,6.0412,1.441,10.4751-6.0363,27.2349-7.3665,33.4424-.2819,9.3168-.2819,9.3168" style="fill:none;stroke:#a7abae;stroke-linecap:round;stroke-linejoin:round;stroke-width:0.5px"/><path d="M187.9677,118.0757c3.4088-.792,6.9031-1.5277,10.2416-2.366a3.8432,3.8432,0,0,0,1.8731-1.551,7.23,7.23,0,0,0,.7495-2.422l1.1055-5.1583,2.2444-10.3093.5668-2.576a16.6084,16.6084,0,0,1,.6848-2.5727,11.2938,11.2938,0,0,1,2.9308-4.403,15.33,15.33,0,0,0-2.4916,4.5588,22.8465,22.8465,0,0,0-.6271,2.5311l-.5526,2.5782L202.46,106.6933l-1.1331,5.15-.2867,1.2917a4.3157,4.3157,0,0,1-2.6521,3.0413c-3.4751.88-6.8707,1.5855-10.31,2.3868a.25.25,0,0,1-.1135-.487Z" style="fill:#a7abae"/><path d="M211.7589,78.4731s-2.2862,1.926-4.0043,3.5333-5.1122,2.6558-9.2558-.2217c-.4419-.3069-.8852-.62-1.3249-.9344" style="fill:none;stroke:#a7abae;stroke-linecap:round;stroke-linejoin:round;stroke-width:0.5px"/><path d="M192.5309,77.2986q-.4053-.3379-.766-.6544c-1.7043-1.4965-2.5155-2.9862-4.5309-6.4846-2.2031-3.8242-2.6787-5.4334-7.8251-6.5914s-13.7407-2.6724-17.1466-3.07-4.4582.1011-8.0746,3.2186-3.9073,3.658-9.6021,5.196-7.0249,1.7874-10.2672,1.2886" style="fill:none;stroke:#a7abae;stroke-linecap:round;stroke-linejoin:round;stroke-width:0.5px"/><path d="M211.3848,81.2166s-2.2862,1.926-4.0044,3.5332-5.1121,2.6559-9.2557-.2216c-.5269-.366-1.0557-.74-1.5781-1.1163" style="fill:none;stroke:#a7abae;stroke-linecap:round;stroke-linejoin:round;stroke-width:0.5px"/><path d="M191.8985,79.8251q-.2643-.2238-.5077-.4375c-1.7043-1.4964-2.5155-2.9861-4.5309-6.4845-2.2031-3.8242-2.6787-5.4334-7.8252-6.5914s-13.7406-2.6725-17.1465-3.07-4.4582.101-8.0746,3.2186-3.9073,3.6579-9.6021,5.1959-7.0249,1.7875-10.2672,1.2886" style="fill:none;stroke:#a7abae;stroke-linecap:round;stroke-linejoin:round;stroke-width:0.5px"/><path d="M134.5939,59.5841l2.3911-11.0553a4.7043,4.7043,0,0,1,.8236-1.8133l2.1557-2.8978a4.704,4.704,0,0,1,1.5248-1.3238l4.3851-2.3877" style="fill:none;stroke:#a7abae;stroke-linecap:round;stroke-linejoin:round;stroke-width:0.5px"/><path d="M115.04,35.3931l-3.504,1.9418a8.9309,8.9309,0,0,0-1.6407,1.0269,9.52,9.52,0,0,0-1.2345,1.4893l-1.2,1.604a5.7646,5.7646,0,0,0-.9876,1.6345c-.3491,1.2161-.6437,2.5729-.9682,3.8524l-1.9046,7.7862q-.4647,1.9494-.9863,3.8841c-.1619.6451-.3627,1.2923-.5437,1.9216a8.8988,8.8988,0,0,0-.2857,1.9634,6.51,6.51,0,0,1,.0228-2.0185c.136-.6675.2482-1.3186.4-1.9713q.42-1.9592.8976-3.9033l1.863-7.7885c.3264-1.31.5855-2.57.967-3.92a6.3325,6.3325,0,0,1,1.0584-1.7876l1.1914-1.61.5966-.8059a4.7194,4.7194,0,0,1,.727-.775,4.9852,4.9852,0,0,1,.8754-.6l.8838-.473,3.5324-1.8895a.25.25,0,0,1,.2391.4391Z" style="fill:#a7abae"/><path d="M107.8644,54.6215s.308,3.4.308,4.8968a25.8078,25.8078,0,0,1-.54,5.2791c-.4573,2.4525-4.24,22.6959-4.24,22.6959" style="fill:none;stroke:#a7abae;stroke-linecap:round;stroke-linejoin:round;stroke-width:0.5px"/><path d="M108.1677,60.0588s-5.1636,2.9373-5.9395,3.4361-1.8844.0555-3.4917-.8313-1.7735-.8868-4.2122-3.6025a18.3307,18.3307,0,0,1-3.7133-5.6532c-.97-2.0784-1.4272-3.2008-2.0091-4.1984s-1.1639-2.2031-4.4478-2.8266-10.4335-1.7874-13.3432-2.1615-4.032.54-6.4845,2.7019a23.2372,23.2372,0,0,1-5.1945,3.6929" style="fill:none;stroke:#a7abae;stroke-linecap:round;stroke-linejoin:round;stroke-width:0.5px"/><path d="M53.18,52.5446c-.8021.2046-1.5253.37-2.0388.4476-1.3717.2078-3.6857.1108-4.3369-.5265" style="fill:none;stroke:#a7abae;stroke-linecap:round;stroke-linejoin:round;stroke-width:0.5px"/><path d="M108,62.4783l-.4615.2625s-5.1635,2.9373-5.9394,3.4361-1.8844.0555-3.4917-.8313-1.7735-.8868-4.2122-3.6026A18.3321,18.3321,0,0,1,90.1815,56.09c-.97-2.0784-1.4271-3.2008-2.0091-4.1984s-1.1639-2.2031-4.4477-2.8266-10.4335-1.7874-13.3432-2.1615-4.0321.54-6.4846,2.7019a23.1374,23.1374,0,0,1-5.2293,3.71" style="fill:none;stroke:#a7abae;stroke-linecap:round;stroke-linejoin:round;stroke-width:0.5px"/><path d="M52.51,55.237c-.7857.2-1.4931.3607-1.9978.4372-1.3718.2078-3.6857.1108-4.3369-.5265" style="fill:none;stroke:#a7abae;stroke-linecap:round;stroke-linejoin:round;stroke-width:0.5px"/><g id="f4441c57-01bc-4658-bc7e-5e44a143db6e" data-name="Offset Group"><path d="M58.9922,29.15c-.9189.37-1.7946.73-2.465,1.0194a14.622,14.622,0,0,0-5.3413,3.5049,9.6875,9.6875,0,0,0-2.0342,3.7959c-.995,3.3721-3.1547,9.9621-3.1546,9.9619a6.9178,6.9178,0,0,0-.3013,3.9717,3.5383,3.5383,0,0,0,.5608,1.1817l-.5484,2.1021a5.9776,5.9776,0,0,0-1.3947,1.2631,12.0143,12.0143,0,0,0-2.2628,4.9337c-.8662,3.63-2.3095,11.3674-2.997,15.12a4.3471,4.3471,0,0,0,1.3983,4.0426l5.0031,4.4145-.9974,6.04a10.1965,10.1965,0,0,0-2.9649,5.5941c-.9462,4.6833-2.3363,11.6272-2.7235,13.5618a17.8809,17.8809,0,0,0-8.6912-.374,138.537,138.537,0,0,0-15.2693,4.1813c-.5574.219-1.0375.3984-1.48.5639a29.85,29.85,0,0,0-7.03,3.6369,9.17,9.17,0,0,0-3.58,3.543,7.3557,7.3557,0,0,0-.3766,4.2332c.0243.2231.0487.4465.0706.674.2787,2.8988,1.5011,10.6257,1.9508,12.537a4.7341,4.7341,0,0,0,.9124,2.1042,5.2316,5.2316,0,0,0,2.1622,1.2948c1.8459.7271,141.3641,48.0642,145.403,49.3921l.077.0253,0,0c4.0681,1.3375,4.9615,1.6036,11.8018.4358,5.0413-.8607,7.0705-1.9151,7.7873-2.4081a6.77,6.77,0,0,0,3.862.6517,4.5979,4.5979,0,0,0,2.5314-1.32,49.2538,49.2538,0,0,0,6.0617-8.1339,18.9539,18.9539,0,0,0,3.0528-7.636c.7758-3.7127,2.4412-12.1494,2.9423-15.4346a6.1722,6.1722,0,0,0-.1216-2.9739,3.7211,3.7211,0,0,0-.8269-1.347c1.1056-4.806,4.0759-17.7578,4.6168-20.53a12.1225,12.1225,0,0,0-.3486-6.0846l.4091-2.25c1.1559-.15,4.7453-.6193,5.937-.83a4.0436,4.0436,0,0,0,1.9686-.8521,5.0077,5.0077,0,0,0,1.4073-2.2129c.6779-1.8643,2.18-7.589,3.4274-13.3671.4232-1.9606,1.0237-4.6787,1.6539-7.531,1.2237-5.5386,2.5626-11.5984,2.9216-13.5592a11.01,11.01,0,0,0-.1061-4.9125l.3426-2.5124a10.8044,10.8044,0,0,0,1.5092-4.047c.5044-2.7322.9633-7.7061,1.3369-12.3967a12.7678,12.7678,0,0,0-.29-5.175c-.5-1.4784-1.5118-2.75-3.2033-4.6345-2.9621-3.3-4.0679-3.8118-6.0543-4.1565" style="fill:none;stroke:#a7abae;stroke-linecap:round;stroke-linejoin:round;stroke-width:0.5px"/><path d="M59.0856,29.3823c-.9184.37-1.7917.7286-2.4593,1.017a14.3781,14.3781,0,0,0-5.2532,3.4412,9.436,9.436,0,0,0-1.9816,3.7009c-.9963,3.3765-3.1569,9.9691-3.1569,9.969a6.6752,6.6752,0,0,0-.2975,3.8287,3.1559,3.1559,0,0,0,.5917,1.1938l-.6037,2.3143A5.4549,5.4549,0,0,0,44.5064,56.11a11.7671,11.7671,0,0,0-2.2125,4.8327C41.43,64.5649,39.9876,72.2949,39.3,76.05a4.0974,4.0974,0,0,0,1.3179,3.81l5.1068,4.5061L44.69,90.6272a9.9174,9.9174,0,0,0-2.9526,5.5181c-.9947,4.924-2.48,12.3472-2.7749,13.8192a17.8938,17.8938,0,0,0-8.835-.4359A138.3787,138.3787,0,0,0,14.9,113.6976c-.56.22-1.0414.4-1.4842.5654a29.6061,29.6061,0,0,0-6.9833,3.6134,8.9292,8.9292,0,0,0-3.49,3.44,7.1193,7.1193,0,0,0-.3536,4.0979c.0243.223.0489.448.0709.6773.2779,2.89,1.4988,10.6058,1.9453,12.5036a4.4968,4.4968,0,0,0,.8581,1.9979,5,5,0,0,0,2.0648,1.2258c1.8375.7238,141.3471,48.0582,145.39,49.3872l.077.0253,0,0c4.0234,1.3228,4.8748,1.589,11.6816.4268,5.5105-.9408,7.3205-2.0517,7.8129-2.4443a6.6075,6.6075,0,0,0,3.8372.6878,4.3481,4.3481,0,0,0,2.3959-1.2506,49.009,49.009,0,0,0,6.0237-8.0852,18.7175,18.7175,0,0,0,3.0229-7.559c.7759-3.7131,2.44-12.1436,2.94-15.4212a5.9333,5.9333,0,0,0-.1105-2.8539,3.5039,3.5039,0,0,0-.8651-1.3524c1.081-4.6986,4.1007-17.8619,4.6456-20.6548a11.75,11.75,0,0,0-.361-6.0159l.4536-2.495c.8954-.1156,4.85-.6295,6.1069-.8513a3.7966,3.7966,0,0,0,1.8513-.7973,4.764,4.764,0,0,0,1.3331-2.107c.6715-1.8466,2.1709-7.5563,3.4179-13.3343.4234-1.9614,1.024-4.68,1.6542-7.5322,1.2245-5.5423,2.5619-11.5954,2.92-13.55a10.536,10.536,0,0,0-.1151-4.8485l.3577-2.6233a10.2465,10.2465,0,0,0,1.5032-4.0005c.5016-2.717.96-7.6773,1.3335-12.3711a12.5374,12.5374,0,0,0-.2777-5.0751c-.4812-1.4235-1.4583-2.66-3.1524-4.5476-2.9434-3.2787-4.0025-3.746-5.9111-4.0771" style="fill:none;stroke:#a7abae;stroke-linecap:round;stroke-linejoin:round;stroke-width:0.5px"/></g><path d="M59.179,29.6142c-.9178.37-1.7889.7274-2.4535,1.0146-4.035,1.7435-6.0966,3.6025-7.0942,6.9834s-3.1591,9.9762-3.1591,9.9762c-1.1639,3.5471.3325,4.8773.3325,4.8773L46.14,55.0151s-2.4386,1.1085-3.6025,5.9858c-.8625,3.6141-2.3032,11.3366-2.9915,15.0943a3.8467,3.8467,0,0,0,1.2373,3.5776l5.2106,4.5977-1.0707,6.4836a9.6372,9.6372,0,0,0-2.94,5.4407c-1.1085,5.4869-2.8266,14.0776-2.8266,14.0776a17.9359,17.9359,0,0,0-8.9787-.4988,138.2257,138.2257,0,0,0-15.186,4.1567,32.71,32.71,0,0,0-8.4244,4.1568c-4.6,2.9374-3.935,5.0989-3.6579,7.981s1.4964,10.5859,1.94,12.47.9422,2.3277,2.7712,3.0483,141.33,48.0521,145.3758,49.3823,4.8219,1.6073,11.639.4434,7.8147-2.4941,7.8147-2.4941c2.1615,1.0531,4.4339,1.2193,6.0966-.4434a48.7858,48.7858,0,0,0,5.9857-8.0364,18.4852,18.4852,0,0,0,2.9929-7.4821c.7759-3.7134,2.4386-12.1378,2.9374-15.4078.2839-1.8611.0651-3.0938-1.0038-4.0865,1.053-4.5763,4.1263-17.9694,4.6756-20.7848a11.2928,11.2928,0,0,0-.3741-5.9441l.4988-2.7435s4.8634-.6235,6.2767-.8729a3.5788,3.5788,0,0,0,2.9929-2.7435c.6651-1.829,2.1615-7.5237,3.4086-13.3016s4.032-18.1235,4.5724-21.0748a9.9081,9.9081,0,0,0-.1247-4.78l.3741-2.7435a9.4626,9.4626,0,0,0,1.4964-3.9489c.4989-2.7019.9561-7.6484,1.33-12.3456s-.0831-5.7779-3.367-9.4358c-2.9246-3.2578-3.9369-3.68-5.7677-3.9978" style="fill:none;stroke:#a7abae;stroke-linecap:round;stroke-linejoin:round;stroke-width:0.5px"/><g id="a1bfaf1f-c40c-455d-8d77-62ccd9ec333d" data-name="Offset Group"><path d="M200.7892,47.5024c-3.5089-.547-8.2091-1.2756-10.4457-1.6221a8.4336,8.4336,0,0,0,2.7838-2.8235,5.7126,5.7126,0,0,0,.4889-3.2037c-.0078-.1574-.0156-.3135-.0215-.472-.0835-2.2552-.5414-9.1226-.75-11.4979q-.01-.119-.02-.2343a4.866,4.866,0,0,0-.8706-2.978,5.6724,5.6724,0,0,0-3.1879-1.4589,145.7116,145.7116,0,0,0-19.7291-2.6709c-.155-.0073-.3029-.0145-.4445-.0214-1.9974-.0969-2.804-.1433-4.1495.5151a5.7727,5.7727,0,0,0-2.1421,1.6873,7.4471,7.4471,0,0,0-1.3158,3.1835c-.3027,1.5591-.8988,4.0925-1.4693,6.5164-.4641,1.9723-.9113,3.8723-1.1622,5.0892a9.3143,9.3143,0,0,0-.15,3.3663c-2.2307-.36-8.7674-1.4067-10.0877-1.5457a5.0335,5.0335,0,0,0-2.0348.1565,2.0179,2.0179,0,0,0-.3077-.32,2.4677,2.4677,0,0,0-1.24-.5271c-.3905-.0572-3.6314-.5633-7.77-1.21-7.7919-1.2168-18.77-2.9313-19.7562-3.0592a4.1249,4.1249,0,0,0-1.81.1061c-.0488.0159-.0952.0331-.1391.0511a1.9576,1.9576,0,0,0-.2441-.2168,2.3694,2.3694,0,0,0-1.0977-.4383c-.7938-.1134-13.6364-2.0977-18.1927-2.802a6,6,0,0,0,1.8986-1.8385,4.9443,4.9443,0,0,0,.6726-3.4745c-.1056-.6981-.2209-1.5444-.3486-2.4824-.2924-2.1471-.6488-4.7657-1.0957-7.0975l-.0563-.2945c-.3278-1.719-.5547-3.0051-1.4169-3.9a5.8425,5.8425,0,0,0-3.0351-1.4087,113.033,113.033,0,0,0-15.375-2.0622c-2.9018-.1963-4.8478.3545-6.1191,1.4114a6.0412,6.0412,0,0,0-1.9766,4.1285c-.0816.7006-.1716,1.46-.2651,2.2485-.2868,2.42-.6069,5.12-.8165,7.2375a11.1846,11.1846,0,0,0,.0871,3.2749,8.8506,8.8506,0,0,0-2.4016-.04" style="fill:none;stroke:#a7abae;stroke-linecap:round;stroke-linejoin:round;stroke-width:0.5px"/><path d="M200.7507,47.7494c-3.8848-.6056-9.23-1.4338-11.0751-1.72a9.0063,9.0063,0,0,0,3.23-3.0894,5.4737,5.4737,0,0,0,.4606-3.0749c-.0079-.1571-.0158-.3148-.0217-.4752-.0834-2.25-.5409-9.1129-.749-11.4852q-.0105-.1194-.02-.2348a4.6414,4.6414,0,0,0-.809-2.8341,5.4434,5.4434,0,0,0-3.0528-1.38,145.4663,145.4663,0,0,0-19.6884-2.6656c-.1553-.0073-.3033-.0145-.4449-.0214-2.0009-.0971-2.7465-.1369-4.0275.49a5.5233,5.5233,0,0,0-2.0536,1.6148,7.2015,7.2015,0,0,0-1.2688,3.0791c-.3039,1.5651-.9014,4.1044-1.4713,6.526-.4645,1.974-.9107,3.87-1.1607,5.0824a8.3761,8.3761,0,0,0-.0859,3.6189c-1.7865-.2885-9.0325-1.4538-10.423-1.6a4.4713,4.4713,0,0,0-2.1069.1986,1.811,1.811,0,0,0-.3689-.4179,2.2183,2.2183,0,0,0-1.1167-.4723c-.3921-.0573-3.6352-.5638-7.7721-1.21-7.7956-1.2174-18.7675-2.9309-19.75-3.0582a3.8812,3.8812,0,0,0-1.7008.0958,1.8876,1.8876,0,0,0-.2813.117,1.7741,1.7741,0,0,0-.3289-.32,2.12,2.12,0,0,0-.9835-.3911c-.8421-.12-15.1911-2.3379-18.9092-2.9127a6.1093,6.1093,0,0,0,2.439-2.1086,4.6946,4.6946,0,0,0,.6369-3.3038c-.1059-.7-.2215-1.5487-.3491-2.486-.2926-2.1486-.6481-4.76-1.0935-7.0843l-.0564-.2947c-.3332-1.747-.5522-2.9439-1.3513-3.7732a5.6078,5.6078,0,0,0-2.911-1.3385A112.8057,112.8057,0,0,0,76.75,8.7642c-2.8669-.1939-4.7392.3538-5.9424,1.3543A5.7935,5.7935,0,0,0,68.92,14.0837c-.0817.7008-.1717,1.46-.2652,2.2489-.287,2.421-.6067,5.1185-.8161,7.2328a9.94,9.94,0,0,0,.1569,3.5432,9.4383,9.4383,0,0,0-2.6817-.0864" style="fill:none;stroke:#a7abae;stroke-linecap:round;stroke-linejoin:round;stroke-width:0.5px"/></g><path d="M200.7122,47.9964c-4.7667-.743-11.7324-1.8213-11.7324-1.8213,4.6556-2.8682,4.1984-4.5309,4.1152-6.7755s-.54-9.1033-.7482-11.4727-.1829-3.4738-3.6856-4.226a145.2411,145.2411,0,0,0-19.6477-2.66c-2.3555-.1108-3.0483-.194-4.3507.4434s-2.6326,1.6627-3.1869,4.517-2.0784,8.9232-2.6326,11.6113.0277,3.88.0277,3.88-9.228-1.4964-10.8076-1.6627a3.3524,3.3524,0,0,0-2.1892.2771,1.6822,1.6822,0,0,0-1.4133-.97c-1.1362-.1663-26.0213-4.0736-27.5178-4.2676s-2.0229.3048-2.0229.3048a1.627,1.627,0,0,0-1.2748-.8036c-.97-.1386-19.7861-3.0483-19.7861-3.0483s4.37-1.3318,3.741-5.4869c-.35-2.3148-.8036-6.2352-1.441-9.5606s-.7482-4.4339-4.129-5.21A112.58,112.58,0,0,0,76.7334,9.0136c-5.7363-.3879-7.2328,2.2447-7.5653,5.099s-.8037,6.6785-1.0808,9.4774.2771,3.8242.2771,3.8242a10.2148,10.2148,0,0,0-3.0122-.145" style="fill:none;stroke:#a7abae;stroke-linecap:round;stroke-linejoin:round;stroke-width:0.5px"/><path d="M44.6183,102.4633c-.66,3.5686-.2522,8.3633,6.2877,9.25a9.4863,9.4863,0,0,0,2.8266.9976c2.217.5542,25.1069,7.2051,26.88,7.6485s2.1061.2216,2.1061.2216l1.4965.2772" style="fill:none;stroke:#a7abae;stroke-linecap:round;stroke-linejoin:round;stroke-width:0.5px"/><line x1="83.7168" y1="123.2969" x2="85.3795" y2="116.0918" style="fill:none;stroke:#a7abae;stroke-linecap:round;stroke-linejoin:round;stroke-width:0.5px"/><path d="M82.7191,120.5811c-1.2193-.3879-1.6073-1.7735-1.2193-5.1543s5.5978-29.5408,6.0412-32.7S88.594,75.4664,86.1,71.31s-2.6049-4.1567-5.487-5.0435a117.0616,117.0616,0,0,0-11.9714-2.3832c-2.5495-.388-3.88.2771-7.0943,2.66s-4.711,4.2122-5.6531,8.2581S51.1277,97.3587,50.1855,102.07s-.6651,8.4244.7205,9.6437" style="fill:none;stroke:#a7abae;stroke-linecap:round;stroke-linejoin:round;stroke-width:0.5px"/><path d="M3.7276,125.1292a2.8277,2.8277,0,0,0,.8022,1.4031,5.6985,5.6985,0,0,0,1.3647.864,26.318,26.318,0,0,0,3.1334,1.1885l6.4836,2.0011,12.9658,4.005,12.9415,4.0813,6.4709,2.0407a64.4033,64.4033,0,0,1,6.4018,2.2639,64.3782,64.3782,0,0,1-6.5547-1.7752l-6.4854-1.9985L28.28,135.2061l-12.9468-4.0732-6.4728-2.0382a23.3433,23.3433,0,0,1-3.1931-1.2488,4.23,4.23,0,0,1-1.3966-1.0746A2.3492,2.3492,0,0,1,3.7276,125.1292Z" style="fill:#a7abae"/><path d="M58.6305,144.3723a70.1934,70.1934,0,0,1,6.8934,1.9438l6.8229,2.1627,6.7971,2.2428c2.2661.7466,4.5352,1.4838,6.7415,2.416-2.3362-.5286-4.61-1.2523-6.886-1.9666l-6.83-2.14-6.8045-2.22A70.2014,70.2014,0,0,1,58.6305,144.3723Z" style="fill:#a7abae"/><path d="M90.0435,154.4749c4.474,1.0987,8.8252,2.5793,13.2067,3.9655l13.13,4.2026,26.26,8.4082,6.5589,2.1211a33.3679,33.3679,0,0,0,3.2766.9628,19.5014,19.5014,0,0,0,3.3609.4362,44.2569,44.2569,0,0,0,6.8112-.5774l6.8366-.8435a9.3729,9.3729,0,0,0,5.7623-3.1384l4.6446-5.0936c3.0916-3.4,6.1938-6.7907,9.4622-10.03-2.9133,3.5621-5.993,6.9731-9.0833,10.3745l-4.6281,5.1086a9.9237,9.9237,0,0,1-6.0794,3.33l-6.8434.8669a44.6916,44.6916,0,0,1-6.9063.6037,20.101,20.101,0,0,1-3.4677-.4386,33.9551,33.9551,0,0,1-3.3372-.9675l-6.5657-2.1-26.2383-8.4755-13.1186-4.2394C98.7177,157.5236,94.3192,156.19,90.0435,154.4749Z" style="fill:#a7abae"/><path d="M68.1644,27.3142a6.1623,6.1623,0,0,0,4.7531,3.505c2.7273.4329,11.2125,1.7317,13.7234,2.0347s4.525-.3207,7.6184-1.5323" style="fill:none;stroke:#a7abae;stroke-linecap:round;stroke-linejoin:round;stroke-width:0.75px"/><path d="M158.671,41.3918c.7372,1.55,1.7864,3.3049,5.4792,3.95s16.2953,2.6378,18.7571,2.9308,4.9563-1.1481,6.3725-2.0971" style="fill:none;stroke:#a7abae;stroke-linecap:round;stroke-linejoin:round;stroke-width:0.75px"/><path d="M190.4939,27.3393c-.7806.53-.7681,1.0152-.79,2.3144s.6341,10.1837.6879,11.3506.156,1.6709.91,1.09a1.99,1.99,0,0,0,.9-2.1182c-.0537-1.1668-.61-10.5018-.7136-11.5628S191.23,26.8394,190.4939,27.3393Z" style="fill:none;stroke:#a7abae;stroke-linecap:round;stroke-linejoin:round;stroke-width:0.5px"/><path d="M92.1917,16.578c-.145-1.06-.311-1.8083.8323-2.1611s1.4341.0838,1.6414,1.2478S95.9085,24,96.095,25.2675s.0823,1.7043-1.0818,2.2026-1.239-.1233-1.4127-1.2685C93.3911,24.8208,92.1917,16.578,92.1917,16.578Z" style="fill:none;stroke:#a7abae;stroke-linecap:round;stroke-linejoin:round;stroke-width:0.5px"/><path d="M161.66,44.5866c-.9321.5354-1.4863.5632-3.8418.2029s-7.9533-1.2747-8.9509-1.441-.6374-1.1916.9145-1.9675a6.1654,6.1654,0,0,1,4.1045-.6855c1.4088.2229,4.0178.64,4.0178.64l.8016.1282" style="fill:none;stroke:#a7abae;stroke-linecap:round;stroke-linejoin:round;stroke-width:0.5px"/><path d="M151.73,42.1466a4.2869,4.2869,0,0,1,1.7717.018c.58.0716,1.1561.1662,1.7327.2579l1.72.3346a5.2068,5.2068,0,0,1,1.6911.5141,5.2044,5.2044,0,0,1-1.7668-.0482l-1.7377-.2277c-.5759-.0958-1.1524-.1886-1.7251-.3044A4.2866,4.2866,0,0,1,151.73,42.1466Z" style="fill:#a7abae"/><path d="M164.3515,150.5049a5.5319,5.5319,0,0,0-2.7971-1.9278c-4.431-1.3358-16.35-4.9192-23.1192-6.7986a12.6343,12.6343,0,0,0-4.1829-.4347l-8.5433.5588a10.8463,10.8463,0,0,0-3.91,1.0083c-3.8152,1.786-7.3366,3.59-12.71,6.38-4.1841,2.1728-3.8746,5.7.5645,7.2072l29.4143,9.9847c7.2711,2.4682,11.8011-.3766,13.7858-1.8468,2.9565-2.19,10.3672-7.6816,13.1618-9.7729a1.3209,1.3209,0,0,0,.2557-1.8621Z" style="fill:none;stroke:#a7abae;stroke-linecap:round;stroke-linejoin:round;stroke-width:0.5px"/><path d="M16.618,121.9381c-3.8362,1.3024-4.72,3.9108-.472,5.36s22.0152,6.7765,26.162,8.0576,6.5068-.708,11.3615-3.1016,16.1153-5.7988,17.3964-6.2371,1.9891-.5731.8765-1.82-1.6182-1.7195-4.3828-2.596-11.4627-3.4725-15.1712-4.45a32.65,32.65,0,0,0-8.2936-1.1463,33.001,33.001,0,0,0-8.2262.6406C33.1715,117.0833,22.08,120.0839,16.618,121.9381Z" style="fill:none;stroke:#a7abae;stroke-linecap:round;stroke-linejoin:round;stroke-width:0.5px"/><path d="M39.1563,110.2724c2.9494.8436,4.0825,1.6312,9.4327.8834" style="fill:none;stroke:#a7abae;stroke-linecap:round;stroke-linejoin:round;stroke-width:0.5px"/><path d="M50.6843,39.8568a11.5534,11.5534,0,0,1,.8542-2.4228,5.2973,5.2973,0,0,1,1.7557-1.9164,14.8882,14.8882,0,0,1,2.288-1.2083,16.9109,16.9109,0,0,1,2.4127-.945.2517.2517,0,1,1,.1291.4865,18.94,18.94,0,0,0-2.3578.8807A15.8012,15.8012,0,0,0,53.5,35.8321,5.2085,5.2085,0,0,0,51.7223,37.54,14.7446,14.7446,0,0,0,50.6843,39.8568Z" style="fill:#a7abae"/><path d="M63.7085,33.3384c3.45.3915,6.8456.9623,10.2589,1.4885q5.1141.8026,10.2159,1.6748l10.2039,1.7416c3.3985.5966,6.7922,1.2217,10.1688,1.9461-3.4257-.4362-6.8357-.9626-10.2421-1.51L84.0985,37.0151l-10.2169-1.649c-3.4047-.5317-6.8168-1.11-10.2232-1.5034l-.01-.0011a.2633.2633,0,0,1,.06-.5232Z" style="fill:#a7abae"/><path d="M141.01,46.1809c4.7785.64,9.5408,1.3784,14.299,2.1406l14.2588,2.3819,28.5154,4.777a.2275.2275,0,0,1-.075.4487l-28.52-4.7469-14.2591-2.38C150.4806,47.9771,145.737,47.1277,141.01,46.1809Z" style="fill:#a7abae"/><path d="M203.0972,57.1926c.965.72,1.7734,1.5153,2.6586,2.2735l1.3022,1.15a11.5364,11.5364,0,0,1,1.2821,1.2218,4.905,4.905,0,0,1,1.09,3.3826l-.318,3.4668-.6856,6.9182a11.916,11.916,0,0,1-2.529,6.4011,11.7736,11.7736,0,0,0,2.2484-6.4338l.5531-6.9233.2936-3.4545a4.4649,4.4649,0,0,0-.9956-3.078,11.2458,11.2458,0,0,0-1.233-1.168L205.461,59.8c-.8734-.7479-1.7264-1.5755-2.6215-2.24l-.01-.0078a.2246.2246,0,1,1,.2677-.3607Z" style="fill:#a7abae"/><path d="M136.0846,45.3714a62.2668,62.2668,0,0,1-6.6931-.8366l-6.6558-1.0634-6.6421-1.1465c-2.2142-.3812-4.43-.7525-6.6126-1.3261,2.2513.1552,4.4694.5126,6.6892.86l6.66,1.04,6.646,1.1228A62.269,62.269,0,0,1,136.0846,45.3714Z" style="fill:#a7abae"/><path d="M200.0728,49.5773c-.1375-.0272-.2775-.0527-.4178-.0765-1.3175-.2243-3.28-.5326-4.1206-.6167a3.4665,3.4665,0,0,0-2.13.3924c-1.1343.7177-1.2334,1.1773-.2523,1.3455s4.6812.7008,5.8865.8409q.171.02.3323.03" style="fill:none;stroke:#a7abae;stroke-linecap:round;stroke-linejoin:round;stroke-width:0.5px"/><path d="M95.0509,91.2344a55.112,55.112,0,0,1,.9054-6.2281l1.1492-6.1832c.3983-2.0586.8249-4.1109,1.264-6.164a12.2675,12.2675,0,0,1,.9594-3.0392,4.76,4.76,0,0,1,2.152-2.3061A6.3872,6.3872,0,0,0,99.7,69.7945a13.3968,13.3968,0,0,0-.8528,2.9648l-1.178,6.1725-1.205,6.17A57.5466,57.5466,0,0,1,95.0509,91.2344Z" style="fill:#a7abae"/><path d="M8.1242,141.7661s-.4485.2362.078,2.0652,2.6049,8.6461,3.1592,10.42,1.1639,2.3832,5.0712,3.4363,4.7664,1.58,6.3737.5265,5.1544-3.5194,5.7918-4.0459.7683-.7427.6651-1.5242c-.1572-1.1894-.4312-3.8046-.4312-3.8046" style="fill:none;stroke:#a7abae;stroke-linecap:round;stroke-linejoin:round;stroke-width:0.5px"/><path d="M48.1075,155.3942s-.8941.3947-.4992,2.2861,2.3278,10.2048,2.598,11.0569.4874,1.2606,2.5772,1.9745c2.9909,1.0218,7.2328,2.016,11.14-1.247s7.3652-6.1956,7.3652-6.1956" style="fill:none;stroke:#a7abae;stroke-linecap:round;stroke-linejoin:round;stroke-width:0.5px"/><path d="M91.0641,169.9439c-.4748.6431-.4748,1.225-.267,2.5136s1.6211,9.519,1.9121,10.9323.7482,2.1615,4.5725,3.2007,4.4061,1.58,6.2767,0c1.5186-1.2824,4.1333-4.0992,5.0632-5.1136a1.3255,1.3255,0,0,0,.3486-.8746l.0728-4.52" style="fill:none;stroke:#a7abae;stroke-linecap:round;stroke-linejoin:round;stroke-width:0.5px"/><path d="M141.4478,187.0679s-.4786.3124-.3954,2.2245.7066,10.5582.7482,11.5143a1.8541,1.8541,0,0,0,1.33,1.9536,34.1229,34.1229,0,0,0,5.3207,2.2447c1.9537.54,5.03,1.4964,6.8171,1.87s6.6924.3742,8.7292-2.66c1.1176-1.6651,1.66-2.5541,1.9211-3.0175a2.7909,2.7909,0,0,0,.3129-.86l1.8071-9.6249" style="fill:none;stroke:#a7abae;stroke-linecap:round;stroke-linejoin:round;stroke-width:0.5px"/><path d="M149.5737,189.9991l-.7066,1.1223s.1663,4.3646.1663,5.4869-.7483.9977-2.5772.2079-2.7019-1.4133-2.91-3.1176-.2078-4.6971-.2078-4.6971l.4157-.79" style="fill:none;stroke:#a7abae;stroke-linecap:round;stroke-linejoin:round;stroke-width:0.5px"/><path d="M12.2631,143.19l-.5276,1.2928s1.0392,3.8243,1.33,4.7387.2079,1.2471,1.9537,1.6627,1.9953,0,1.6627-1.2054S15.56,145.688,15.56,145.688l.4358-1.2229" style="fill:none;stroke:#a7abae;stroke-linecap:round;stroke-linejoin:round;stroke-width:0.5px"/><path d="M18.1369,146.5609c.6748,1.9265,1.2025,3.88,1.6967,5.8458.2368.9854.4725,1.9709.6715,2.9683a9.7536,9.7536,0,0,0,.3459,1.4661,1.3384,1.3384,0,0,0,.9854.9846c-.5467.0561-.9676-.441-1.2081-.8822a9.2887,9.2887,0,0,1-.491-1.456c-.2865-.9738-.5361-1.96-.7847-2.9453C18.876,150.5652,18.4328,148.5768,18.1369,146.5609Z" style="fill:#a7abae"/><path d="M49.6036,156.2877l-.7067,1.4549s.8314,3.45.9561,4.0321.1663,1.0392,1.538,1.4133,2.0784.665,1.829-.4573-.7483-4.1152-.7483-4.1152l.7067-1.33" style="fill:none;stroke:#a7abae;stroke-linecap:round;stroke-linejoin:round;stroke-width:0.5px"/><path d="M97.1661,172.0532l-.8772,1.78.5313,4.3916c.1417.7792-.0708,1.1333-.6021.9563s-.9562-.39-2.4437-1.0271-2.6917-2.8333-2.8019-4.6449" style="fill:none;stroke:#a7abae;stroke-linecap:round;stroke-linejoin:round;stroke-width:0.5px"/><path d="M99.8912,172.9779l-.8771,1.78.3023,2.4989a2.5466,2.5466,0,0,0,2.7809-.2716c.9916-.6729,2.9247-2.2666,2.9247-2.2666" style="fill:none;stroke:#a7abae;stroke-linecap:round;stroke-linejoin:round;stroke-width:0.5px"/><line x1="99.3164" y1="177.2569" x2="103.1269" y2="174.0757" style="fill:none;stroke:#a7abae;stroke-linecap:round;stroke-linejoin:round;stroke-width:0.5px"/><line x1="153.1699" y1="206.352" x2="149.9848" y2="210.7003" style="fill:none;stroke:#a7abae;stroke-linecap:round;stroke-linejoin:round;stroke-width:0.5px"/><line x1="155.8343" y1="213.6977" x2="161.4211" y2="206.2563" style="fill:none;stroke:#a7abae;stroke-linecap:round;stroke-linejoin:round;stroke-width:0.5px"/><line x1="166.3541" y1="199.6856" x2="173.998" y2="189.5042" style="fill:none;stroke:#a7abae;stroke-linecap:round;stroke-linejoin:round;stroke-width:0.5px"/><line x1="94.3795" y1="185.5687" x2="88.7153" y2="190.8141" style="fill:none;stroke:#a7abae;stroke-linecap:round;stroke-linejoin:round;stroke-width:0.5px"/><line x1="93.116" y1="190.3158" x2="97.2555" y2="186.5617" style="fill:none;stroke:#a7abae;stroke-linecap:round;stroke-linejoin:round;stroke-width:0.5px"/><line x1="49.7956" y1="177.8327" x2="57.2927" y2="171.6827" style="fill:none;stroke:#a7abae;stroke-linecap:round;stroke-linejoin:round;stroke-width:0.5px"/><line x1="55.557" y1="176.6576" x2="67.1529" y2="166.7586" style="fill:none;stroke:#a7abae;stroke-linecap:round;stroke-linejoin:round;stroke-width:0.5px"/><line x1="13.1118" y1="156.5266" x2="5.4428" y2="161.4238" style="fill:none;stroke:#a7abae;stroke-linecap:round;stroke-linejoin:round;stroke-width:0.5px"/><line x1="7.8129" y1="163.478" x2="16.5461" y2="157.7178" style="fill:none;stroke:#a7abae;stroke-linecap:round;stroke-linejoin:round;stroke-width:0.5px"/><line x1="12.4421" y1="90.4862" x2="39.4918" y2="76.9587" style="fill:none;stroke:#a7abae;stroke-linecap:round;stroke-linejoin:round;stroke-width:0.5px"/><path d="M21.5662,47.51l8.9994-3.4965,1.58.2494,4.1567-.9145a5.3381,5.3381,0,0,1,2.8266,4.9881c-.0831,3.658-1.4133,20.1187-1.4133,21.532s0,1.9953,2.0784,2.7435" style="fill:none;stroke:#a7abae;stroke-linecap:round;stroke-linejoin:round;stroke-width:0.5px"/><path d="M40.7829,79.6728s-2.4026,10.564-2.7351,12.393-.9976,2.66-3.1592,3.741S4.378,112.2676,4.378,112.2676" style="fill:none;stroke:#a7abae;stroke-linecap:round;stroke-linejoin:round;stroke-width:0.5px"/><path d="M19.4109,58.2623c6.7649-2.8106,14.2424-5.9074,15.81-6.5172,2.9929-1.1638,3.6991.6623,3.5549,2.7422" style="fill:none;stroke:#a7abae;stroke-linecap:round;stroke-linejoin:round;stroke-width:0.5px"/><path d="M42.4383,15.2165c-1.2207,7.2023-3.1712,19.35-4.3083,29.7363" style="fill:none;stroke:#a7abae;stroke-linecap:round;stroke-linejoin:round;stroke-width:0.5px"/><path d="M30.5656,44.0136s1.6627-12.886,3.1591-23.6936" style="fill:none;stroke:#a7abae;stroke-linecap:round;stroke-linejoin:round;stroke-width:0.5px"/><path d="M39.28,35.6867l7.164,1.0127a5.9609,5.9609,0,0,0,2.3039-.1255l1.3935-.3547" style="fill:none;stroke:#a7abae;stroke-linecap:round;stroke-linejoin:round;stroke-width:0.5px"/><path d="M65.535,18.48a.8121.8121,0,0,0,.43-.7018l.06-3.34a.5812.5812,0,0,0-.6226-.59c-1.3791.0971-2.3918-.2752-2.514-2.7044a.582.582,0,0,0-.7249-.5344l-1.2309.3156A1.855,1.855,0,0,0,59.54,12.6441c-.1447,3.3594.4951,5.2164,2.2592,5.8485" style="fill:none;stroke:#a7abae;stroke-linecap:round;stroke-linejoin:round;stroke-width:0.5px"/></g><g id="a3a43376-c95d-4d7d-8eec-2745c75ac14a" data-name="illustration"><path d="M191.979,25.6649c-.2291-.4409-.4527-1.41-2.0045-.5785s-1.9562,1.3869-1.8736,4.1568c.1273,4.2693.4346,10.248.61,13.3016.1431,2.4955.024,2.9951-1.9616,4.3231s-2.4813,1.6238-5.2254,1.2175" style="fill:none;stroke:#a7abae;stroke-linecap:round;stroke-linejoin:round;stroke-width:0.5px"/><path d="M95.6582,13.9413a2.4375,2.4375,0,0,0-3.0931-1.6665c-2.0509.5067-2.6,1.4757-2.3744,3.4174S91.4718,25.19,91.848,27.2243s.012,3.064-1.4731,4.2461a4.9059,4.9059,0,0,1-4.508,1.19" style="fill:none;stroke:#a7abae;stroke-linecap:round;stroke-linejoin:round;stroke-width:0.5px"/><path d="M69.9664,29.6242c-1.2137.8626-1.7177.9886-3.6392.6736-.81-.1327-1.3675-.2207-1.787-.2875" style="fill:none;stroke:#a7abae;stroke-linecap:round;stroke-linejoin:round;stroke-width:0.5px"/><path d="M64.8215,28.6573a3.3884,3.3884,0,0,1,2.3877-.1865c.4515.0564,1.13.1452,1.8137.2359" style="fill:none;stroke:#a7abae;stroke-linecap:round;stroke-linejoin:round;stroke-width:0.5px"/><path d="M180.3716,141.77c1.1772,5.8905,3.6617,8.5736,3.6617,8.5736.0273-3.2686.1041-8.1844.6159-13.6838" style="fill:none;stroke:#a7abae;stroke-linecap:round;stroke-linejoin:round;stroke-width:0.5px"/><path d="M182.76,141.4633a.8191.8191,0,0,1-1.0674.781l-1.6191-.5814a1.3734,1.3734,0,0,1-.7748-1.4425l.5111-3.884-.9179-1.73,5.649,2.0283-1.2613.88Z" style="fill:none;stroke:#a7abae;stroke-linecap:round;stroke-linejoin:round;stroke-width:0.5px"/><polygon points="180.459 139.404 181.913 139.917 181.755 141.099 180.3 140.576 180.459 139.404" style="fill:none;stroke:#a7abae;stroke-linecap:round;stroke-linejoin:round;stroke-width:0.5px"/><polygon points="182.293 137.019 182.039 138.931 180.585 138.408 180.839 136.496 182.293 137.019" style="fill:none;stroke:#a7abae;stroke-linecap:round;stroke-linejoin:round;stroke-width:0.5px"/><path d="M185.025,131.4859l.7834.2625a2.4411,2.4411,0,0,1,.6139.3319l1.2.9468a.7182.7182,0,0,1,.2375.6267l-.3286,1.8223a.888.888,0,0,1-.4181.5612l-1.4227.72a.95.95,0,0,1-.65.0414l-6.8722-2.441a1.3669,1.3669,0,0,1-.857-1.3872l.3537-2.87a.8219.8219,0,0,1,1.1189-.7053l1.1343.38" style="fill:none;stroke:#a7abae;stroke-linecap:round;stroke-linejoin:round;stroke-width:0.5px"/><path d="M44.4525,103.36l-1.47,7.9523s-.7795-2.8667.9343-13.2988" style="fill:none;stroke:#a7abae;stroke-linecap:round;stroke-linejoin:round;stroke-width:0.5px"/><path d="M49.4378,98.9818a78.9288,78.9288,0,0,0-.8488,12.174" style="fill:none;stroke:#a7abae;stroke-linecap:round;stroke-linejoin:round;stroke-width:0.5px"/><path d="M64.8162,15.9377c1.5976,3.48,1.0254,9.715-1.5056,19.0741-1.3177,4.8724-7.4181,28.6873-11.19,46.7783-1.1654,5.59-1.6563,11.6289-2.2922,15.1233l-5.69-.9729c.5357-3.7786,1.5143-9.855,2.3625-14.5476C48.365,71.078,55.8915,41.6016,57.9745,33.92c5.1241-18.8967,4.2393-15.1457,3.3345-20.5748A5.2773,5.2773,0,0,0,64.8162,15.9377Z" style="fill:none;stroke:#a7abae;stroke-linecap:round;stroke-linejoin:round;stroke-width:0.5px"/><path d="M50.1567,95.12l.4842.0833a.7708.7708,0,0,1,.6267.87l-.3684,2.4016a.7345.7345,0,0,1-.8542.613l-6.8093-1.1941a.7721.7721,0,0,1-.6253-.8724l.3677-2.3756a.7384.7384,0,0,1,.8555-.6151l.569.098" style="fill:none;stroke:#a7abae;stroke-linecap:round;stroke-linejoin:round;stroke-width:0.5px"/><path d="M48.871,98.8824l-1.0626,2.5854-.3438,1.9609a.7538.7538,0,0,1-.87.61l-1.6038-.2813a.7537.7537,0,0,1-.61-.87l.3438-1.9608-.1194-2.7928Z" style="fill:none;stroke:#a7abae;stroke-linecap:round;stroke-linejoin:round;stroke-width:0.5px"/><polygon points="45.482 101.789 46.769 102.021 46.61 103.048 45.324 102.808 45.482 101.789" style="fill:none;stroke:#a7abae;stroke-linecap:round;stroke-linejoin:round;stroke-width:0.5px"/><polygon points="47.15 99.502 46.896 101.164 45.61 100.924 45.864 99.262 47.15 99.502" style="fill:none;stroke:#a7abae;stroke-linecap:round;stroke-linejoin:round;stroke-width:0.5px"/><path d="M205.85,39.4244c-2.8087,3.1812-5.808,8.437-8.4268,18.5745-3.49,13.5081-13.927,55.146-16.6059,67.871a51.5065,51.5065,0,0,0-1.2874,6.4417l5.1035,1.7969a97.2357,97.2357,0,0,1,2.15-10.7151c4.5217-18.4845,15.1432-62.2135,17.535-71.3157a33.7933,33.7933,0,0,1,2.48-6.6" style="fill:none;stroke:#a7abae;stroke-linecap:round;stroke-linejoin:round;stroke-width:0.5px"/></g><g id="f64cf284-1e22-4251-8861-3e9b7aeb6b50" data-name="above"><path d="M126.07,96.6691a1.7213,1.7213,0,0,0-.2038-.3912,1.2389,1.2389,0,0,0,.288-.6928c0-.36-.2048-2.6049-1.7567-2.9928,0,0-7.593-1.9953-8.3689-2.1893a4.3561,4.3561,0,0,0-1.94.194l-2.3832-.5265a2.95,2.95,0,0,0-1.7735-1.053c-1.2193-.2494-6.6509-1.3579-7.5931-1.4965a2.9221,2.9221,0,0,0-2.6326.5543c-1.247.8036-4.129,2.7988-4.6555,3.1591A4.0518,4.0518,0,0,1,93,91.7332a4.21,4.21,0,0,0-2.4109.6374c-.8591.5819-4.046,2.5772-4.8219,3.1037s-.61.97.0832,1.9952c0,0-7.2882,5.0159-7.9256,5.4593a1.8488,1.8488,0,0,0-.7482,1.1084,12.0019,12.0019,0,0,0-1.441-.3879,1.6406,1.6406,0,0,0-1.9121.859,16.7624,16.7624,0,0,0-1.33,2.217,7.0339,7.0339,0,0,0-.6928,3.0483v4.323c0,.8591.0554,1.5241,1.441,1.9121s27.85,7.7316,28.7371,7.981a2.6982,2.6982,0,0,0,2.4109-.36c.8314-.5265,6.4569-4.323,11.5281-7.9532a87.72,87.72,0,0,0,8.2859-6.7211" style="fill:#d3d5d6"/><g id="fd228f7d-e073-44a8-bf64-c4aa534044a9" data-name="Offset Group"><path d="M126.5361,96.4881c-.0264-.0681-.0545-.1313-.0823-.1883a1.5076,1.5076,0,0,0,.2005-.7147,5.3573,5.3573,0,0,0-.2857-1.5431,3.7123,3.7123,0,0,0-.564-1.0756,2.3339,2.3339,0,0,0-1.28-.8577s-7.595-1.9958-8.3748-2.1907a4.4718,4.4718,0,0,0-2.0832.1621l-2.0887-.4615a3.635,3.635,0,0,0-1.9457-1.091c-1.2066-.2468-6.66-1.36-7.6205-1.5013l-.1184-.0175a3.33,3.33,0,0,0-2.8578.6462c-1.0456.6738-3.2229,2.1729-4.2224,2.8609-.2028.14-.357.2458-.4447.3058a3.6124,3.6124,0,0,1-1.8123.4134c-.1156.01-.2265.0188-.3364.0272a4.1307,4.1307,0,0,0-2.311.6943c-.43.2912-1.4624.9487-2.4856,1.6-.9775.6223-1.9479,1.24-2.3365,1.5038a1.5048,1.5048,0,0,0-.712.9325,1.9433,1.9433,0,0,0,.39,1.3413c-1.5365,1.0575-6.9776,4.8028-7.5255,5.1839a2.3474,2.3474,0,0,0-.6451.6747,2.3058,2.3058,0,0,0-.1241.2234c-.283-.0835-.6609-.1852-1.04-.2581a2.2228,2.2228,0,0,0-1.2954.0724,2.6038,2.6038,0,0,0-1.1213.9917,17.2367,17.2367,0,0,0-1.3619,2.2689,7.5272,7.5272,0,0,0-.7509,3.2823v4.323a2.4373,2.4373,0,0,0,.3814,1.5533,2.5679,2.5679,0,0,0,1.4248.84c.6979.1954,7.7462,2.1521,14.6888,4.0794,6.8561,1.9034,13.6082,3.7778,14.0477,3.9014a3.4146,3.4146,0,0,0,1.4418.1232,3.4882,3.4882,0,0,0,1.372-.5424c.8431-.5339,6.4774-4.3367,11.5516-7.9691a88.1962,88.1962,0,0,0,8.3355-6.7616" style="fill:none;stroke:#000001;stroke-linecap:round;stroke-linejoin:round;stroke-width:0.5px"/><path d="M126.3031,96.5786a2.3371,2.3371,0,0,0-.1354-.2887,1.3431,1.3431,0,0,0,.2366-.7048,5.1159,5.1159,0,0,0-.2721-1.4617,3.4634,3.4634,0,0,0-.5246-1.0031,2.086,2.086,0,0,0-1.1465-.77s-7.594-1.9955-8.3718-2.19a4.3655,4.3655,0,0,0-2.0122.1779l-2.2308-.4929a3.324,3.324,0,0,0-1.8641-1.073c-1.213-.2481-6.6555-1.3589-7.6068-1.4988l-.1189-.0177a3.0924,3.0924,0,0,0-2.6855.6091c-1.0416.6712-3.2149,2.1675-4.216,2.8568-.2027.1395-.3572.2459-.4453.3062a3.8317,3.8317,0,0,1-1.9315.4561c-.1173.01-.23.019-.3392.0274a3.89,3.89,0,0,0-2.19.652c-.4337.2938-1.4706.9539-2.4917,1.604-.98.6238-1.9456,1.2388-2.33,1.5a1.2616,1.2616,0,0,0-.6068.7729,2,2,0,0,0,.4857,1.363c-1.1822.8136-7.1491,4.9205-7.7237,5.32a2.0966,2.0966,0,0,0-.5765.6032,2.1441,2.1441,0,0,0-.1949.3936,11.7849,11.7849,0,0,0-1.2278-.3165,1.977,1.977,0,0,0-1.1541.0585,2.36,2.36,0,0,0-1.01.9031,17.0005,17.0005,0,0,0-1.3461,2.2429,7.2819,7.2819,0,0,0-.7218,3.1653v4.323a2.2,2.2,0,0,0,.3306,1.4022,2.3252,2.3252,0,0,0,1.293.7506c.6976.1954,7.7454,2.1519,14.6883,4.0793,6.8556,1.9032,13.6085,3.7779,14.0485,3.9017a3.1691,3.1691,0,0,0,1.3379.1164,3.24,3.24,0,0,0,1.2745-.5062c.8372-.53,6.4671-4.33,11.54-7.9612a87.9523,87.9523,0,0,0,8.3107-6.7413" style="fill:none;stroke:#000001;stroke-linecap:round;stroke-linejoin:round;stroke-width:0.5px"/></g><path d="M126.07,96.6691a1.7213,1.7213,0,0,0-.2038-.3912,1.2389,1.2389,0,0,0,.288-.6928c0-.36-.2048-2.6049-1.7567-2.9928,0,0-7.593-1.9953-8.3689-2.1893a4.3561,4.3561,0,0,0-1.94.194l-2.3832-.5265a2.95,2.95,0,0,0-1.7735-1.053c-1.2193-.2494-6.6509-1.3579-7.5931-1.4965a2.9221,2.9221,0,0,0-2.6326.5543c-1.247.8036-4.129,2.7988-4.6555,3.1591A4.0518,4.0518,0,0,1,93,91.7332a4.21,4.21,0,0,0-2.4109.6374c-.8591.5819-4.046,2.5772-4.8219,3.1037s-.61.97.0832,1.9952c0,0-7.2882,5.0159-7.9256,5.4593a1.8488,1.8488,0,0,0-.7482,1.1084,12.0019,12.0019,0,0,0-1.441-.3879,1.6406,1.6406,0,0,0-1.9121.859,16.7624,16.7624,0,0,0-1.33,2.217,7.0339,7.0339,0,0,0-.6928,3.0483v4.323c0,.8591.0554,1.5241,1.441,1.9121s27.85,7.7316,28.7371,7.981a2.6982,2.6982,0,0,0,2.4109-.36c.8314-.5265,6.4569-4.323,11.5281-7.9532a87.72,87.72,0,0,0,8.2859-6.7211" style="fill:none;stroke:#000001;stroke-linecap:round;stroke-linejoin:round;stroke-width:0.5px"/><path d="M85.71,97.2627a3.7015,3.7015,0,0,1,.7437-.4247,2.1612,2.1612,0,0,1,.8873-.127,9.1083,9.1083,0,0,1,1.618.2707L92.07,97.73l6.22,1.5037,12.4258,3.07c1.0356.2615,2.0711.4829,3.104.8412a3.8955,3.8955,0,0,1,1.4923.8229,10.9451,10.9451,0,0,1,.9913,1.3246c.205.2759.1787.3387.4127.3571l.3767.0588a.2411.2411,0,0,0,.186-.0635l1.2749-.9649,1.2749-.965.6375-.4824a.5061.5061,0,0,0,.2433-.4947l.13-1.5936.065-.7968a.9945.9945,0,0,0-.0994-.6332,4.2636,4.2636,0,0,0-.4722-.5659l-.5342-.5947-.5342-.5948c-.0985-.1159-.1569-.1608-.2883-.3349a.6429.6429,0,0,1,.1716-.8676l.1631-.1156.3262-.2312.6523-.4624c.4373-.3051.8647-.6235,1.31-.9177.8834-.598,1.77-1.192,2.6872-1.7437-.8.7117-1.6307,1.381-2.4645,2.0465-.4133.3375-.8445.6508-1.2659.9774l-.6355.4852-.3178.2426-.1589.1213a.147.147,0,0,0-.0516.0589.1416.1416,0,0,0,.0081.1381l.2379.2663.5361.593.5361.5931a4.2928,4.2928,0,0,1,.5441.6633,1.5161,1.5161,0,0,1,.1617.9169l-.0625.797-.1249,1.5941a1.2019,1.2019,0,0,1-.106.4827,1.038,1.038,0,0,1-.34.3874l-.6359.4845-1.2719.9691-1.2718.969a.7853.7853,0,0,1-.5569.172l-.4134-.062a.85.85,0,0,1-.5082-.224,3.7091,3.7091,0,0,1-.2724-.366,10.9463,10.9463,0,0,0-.9212-1.2322,3.3782,3.3782,0,0,0-1.2923-.6937c-.984-.339-2.0379-.5635-3.0694-.82L98.15,99.82l-6.2025-1.5443-3.1006-.7761a8.7363,8.7363,0,0,0-1.5283-.2739,1.8846,1.8846,0,0,0-1.3275.451.25.25,0,1,1-.2886-.4084Z" style="fill:#000001"/><path d="M77.1768,104.0372s23.8809,6.0848,27.1714,7.025,1.9952,2.4524,3.99.956c1.4652-1.0989,5.8219-4.484,8.0333-6.2052" style="fill:none;stroke:#000001;stroke-linecap:round;stroke-linejoin:round;stroke-width:0.5px"/><path d="M120.8607,103.191s.3223.2019.53,1.0748.3533,1.8914.7274,3.2423c.3606,1.3023.76,2.0058,2.4264.4725" style="fill:none;stroke:#000001;stroke-linecap:round;stroke-linejoin:round;stroke-width:0.5px"/><line x1="121.1472" y1="99.9167" x2="125.8663" y2="96.2779" style="fill:none;stroke:#000001;stroke-linecap:round;stroke-linejoin:round;stroke-width:0.5px"/><path d="M87.1184,99.1375a3.5348,3.5348,0,0,1,2.8681-.5286c.7275.183,3.845.7935,4.8842,1.0637s1.4965,1.3094,1.9329,1.4341,1.2678.3533,2.0992.5612a6.7,6.7,0,0,0,2.307.1662,8.7664,8.7664,0,0,1,2.5356.1663c.5612.1663,3.658.9353,4.8426,1.247s.8938.6859.3534,1.1016-2.66,2.1407-3.5541,2.7642a3.9639,3.9639,0,0,1-3.554.6235c-1.6-.4156-3.4917-.9144-4.5309-1.1638a2.5764,2.5764,0,0,1-1.4756-.7275,3.2605,3.2605,0,0,0-1.33-.769c-.7066-.2078-1.1223-.3325-2.0576-.54a6.2883,6.2883,0,0,0-2.2238-.1662,10.3993,10.3993,0,0,1-2.9513-.3326c-1.06-.2286-2.91-.6651-3.9282-.956s-.9768-.6443-.2286-1.1639Z" style="fill:#f2a900;stroke:#141b21;stroke-linecap:round;stroke-linejoin:round;stroke-width:0.5px"/><path d="M83.1645,103.0283l3.9539-2.74a3.5348,3.5348,0,0,1,2.8681-.5286c.7275.183,3.845.7935,4.8842,1.0637s1.4965,1.3094,1.9329,1.4341,1.2678.3533,2.0992.5612a6.7,6.7,0,0,0,2.307.1662,8.7664,8.7664,0,0,1,2.5356.1663c.5612.1663,3.658.9353,4.8426,1.247q.1149.03.2116.0613" style="fill:none;stroke:#141b21;stroke-linecap:round;stroke-linejoin:round;stroke-width:0.5px"/><path d="M86.039,101.0363l.9459.5511a.2994.2994,0,0,1,.037.4919l-.5586.45a.8258.8258,0,0,1-.5448.182l-2.1923-.0718" style="fill:none;stroke:#141b21;stroke-linecap:round;stroke-linejoin:round;stroke-width:0.5px"/><path d="M95.1881,100.9365l-1.2271.7025a.3024.3024,0,0,0-.0507.4884l.5133.4562a.5077.5077,0,0,0,.396.1249l1.7938-.2088v-.3469" style="fill:none;stroke:#141b21;stroke-linecap:round;stroke-linejoin:round;stroke-width:0.5px"/><path d="M99.9873,102.9968v.3514l.5169.61a.5747.5747,0,0,0,.4385.2032h1.3188a.5743.5743,0,0,0,.4132-.1754l.5511-.5706v-.3722" style="fill:none;stroke:#141b21;stroke-linecap:round;stroke-linejoin:round;stroke-width:0.5px"/><path d="M114.2372,90.7983l-4.35,3.3071-2.1882,1.6354a1.7449,1.7449,0,0,1-.7219.3937,2.2394,2.2394,0,0,1-.7882.03A12.7142,12.7142,0,0,1,104.82,95.86l-1.3375-.3336a2.1218,2.1218,0,0,1-.3786-.115.5828.5828,0,0,1-.2508-.21.4713.4713,0,0,1-.0476-.3974,1.4568,1.4568,0,0,1,.5663-.6394l2.2705-1.5495a48.77,48.77,0,0,1,4.6524-2.9062,48.78,48.78,0,0,1-4.36,3.333l-2.2339,1.5723a1.1887,1.1887,0,0,0-.3518.3513.1343.1343,0,0,0-.0149-.0691c-.0129-.0232-.0166-.0124.0141-.0021a2.1311,2.1311,0,0,0,.2786.0737l1.326.31c.88.1806,1.8191.5642,2.3471.0057l2.2047-1.6415,4.4357-3.2468a.25.25,0,0,1,.3494.0541A.2527.2527,0,0,1,114.2372,90.7983Z" style="fill:#000001"/><path d="M105.4617,112.5327c-.3561.8515-.76,1.6764-1.1714,2.4972a5.5345,5.5345,0,0,0-.6887,2.5224c-.0129,1.8218-.055,3.6653-.2518,5.4969a53.2163,53.2163,0,0,1-.2477-5.5094,5.1278,5.1278,0,0,1,.8537-2.6962C104.437,114.0617,104.9254,113.2839,105.4617,112.5327Z" style="fill:#000001"/><path d="M124.5083,115.3128a36.73,36.73,0,0,1-.4219-5.5587,41.4763,41.4763,0,0,1,.5355-5.5468c.5724-3.6581,1.3335-7.2641,2.0829-10.8739q1.1386-5.4108,2.3534-10.8035c.43-1.8009.75-3.5868,1.308-5.4039a9.5349,9.5349,0,0,1,3.0686-4.806l-.1695.22.6923-2.4412.2075.4444a3.223,3.223,0,0,1-1.3373-2.7442,12.6508,12.6508,0,0,1,.301-2.8381c.3274-1.8283.692-3.6442,1.0992-5.4594l0-.0014.297.4525q-7.95-1.3565-15.8809-2.812l-7.9273-1.4766-3.9635-.74-1.0029-.19a2.9061,2.9061,0,0,1-1.0928-.4236,2.095,2.095,0,0,1-.9438-2.097.25.25,0,0,1,.4906-.0078l.0084.0391a1.81,1.81,0,0,0,.93,1.264,2.5725,2.5725,0,0,0,.795.247l.9793.1805,3.9675.7328,7.9344,1.4683q7.9288,1.5,15.8428,3.0778l.0071.0015a.3733.3733,0,0,1,.2926.44l-.0026.0118,0,.0014c-.4028,1.7957-.767,3.6089-1.0919,5.4234a12.0043,12.0043,0,0,0-.29,2.6674,3.9106,3.9106,0,0,0,.2444,1.235,1.8064,1.8064,0,0,0,.65.8636l.0324.0183a.3734.3734,0,0,1,.1752.4264l-.6923,2.4412a.37.37,0,0,1-.1451.2034l-.0247.0171a6.4174,6.4174,0,0,0-1.6586,1.945,12.806,12.806,0,0,0-1.0795,2.4491c-.5266,1.7051-.8646,3.554-1.289,5.3348q-1.2091,5.3895-2.3512,10.7935c-.7483,3.6033-1.5089,7.21-2.0754,10.8327a40.7251,40.7251,0,0,0-.527,5.4451,35.9976,35.9976,0,0,0,.4156,5.45.375.375,0,0,1-.7436.098Z" style="fill:#a7abae"/><path d="M118.5394,137.8425a14.7211,14.7211,0,0,0,3.2127-6.9709c.8486-4.4856,2-9.5168,2.7277-13.8812s3.5764-8.2439,7.1528-7.4559" style="fill:none;stroke:#a7abae;stroke-linecap:round;stroke-linejoin:round;stroke-width:0.75px"/></g></svg>
