<svg xmlns="http://www.w3.org/2000/svg" xmlns:xlink="http://www.w3.org/1999/xlink" width="654" height="296.7009" viewBox="0 0 654 296.7009"><defs><clipPath id="a643d6d0-e153-462d-90ad-95ed318e25f7"><rect x="346.5351" y="7.175" width="291.6772" height="286.8372" style="fill:none"/></clipPath><clipPath id="a24cbe05-5739-4f45-ad65-23ef2c6635ca"><polyline points="264.94 264.148 28.672 264.148 28.672 30.455 264.94 30.455 264.94 264.148" style="fill:none"/></clipPath><clipPath id="e7694411-027f-46fb-947a-e31dc280c28b"><path d="M484.27,98.1963c3.9056-2.1255,4.5659-8.4529,1.4748-14.1326s-8.763-8.5609-12.6686-6.4353l-8.8081,8.1689v8.3273l7.3035,5.0115Z" style="fill:none"/></clipPath><clipPath id="b4496ce3-ea91-4d24-9ae4-00fdb16e524b"><path d="M478.0886,52.3646c3.9056-2.1256,4.5659-8.453,1.4748-14.1327S470.8,29.671,466.8947,31.7966l-8.8081,8.1689v8.3274l7.3036,5.0114Z" style="fill:none"/></clipPath><clipPath id="bc91c0fd-ea1b-4c89-bc14-b7eeda889391"><path d="M511.6967,38.11c3.9056-2.1255,4.5659-8.453,1.4748-14.1327s-8.7631-8.5608-12.6687-6.4352l-8.8081,8.1688v8.3274l7.3036,5.0115Z" style="fill:none"/></clipPath><clipPath id="fab64957-14e0-4fcd-bb24-6750bc5c334c"><path d="M542.1665,82c3.9056-2.1255,4.5659-8.453,1.4748-14.1326s-8.7631-8.5609-12.6687-6.4353l-8.8081,8.1689v8.3273l7.3035,5.0115Z" style="fill:none"/></clipPath><clipPath id="ec49d08d-c9a1-4473-aa63-6abc9f072120"><path d="M521.0451,118.394c3.9056-2.1256,4.5659-8.453,1.4748-14.1327S513.7568,95.7,509.8512,97.826l-8.8081,8.1689v8.3274l7.3035,5.0114Z" style="fill:none"/></clipPath><clipPath id="f3e84509-19f3-43f3-a321-e7b937b1433a"><polygon points="470.598 156.021 467.471 210.875 500.621 193.456 512.454 149.527 495.243 75.548 433.157 66.665 409.08 100.773 400.898 152.924 450.384 209.799 455.43 151.905 470.598 156.021" style="fill:none"/></clipPath></defs><g id="b9a25cb4-5d5c-4fb7-996c-a167560babba" data-name="illustration"><g style="clip-path:url(#a643d6d0-e153-462d-90ad-95ed318e25f7)"><ellipse cx="503.2279" cy="66.2122" rx="120.3174" ry="167.2869" transform="translate(17.7219 214.2198) rotate(-24.4496)" style="fill:none;stroke:#d3d5d6;stroke-miterlimit:10"/><path d="M437.82,176.7494c23.3406,23.8737,50.7054,39.5674,77.8008,44.62l-10.3669-23.7818a7.3569,7.3569,0,0,0-4.6327-4.131c-12.8559-3.816-31.028-13.0465-47.0711-26.6853a3.797,3.797,0,0,0-5.0266.118Z" style="fill:none;stroke:#d3d5d6;stroke-miterlimit:10"/><ellipse cx="502.4992" cy="66.5435" rx="19.2217" ry="26.7255" transform="translate(17.5194 213.9479) rotate(-24.4496)" style="fill:none;stroke:#d3d5d6;stroke-miterlimit:10"/><path d="M488.33,72.9857c-4.0911-8.2914-4.4523-21.3358,4.9776-26.11,9.8295-4.157,19.5887,4.698,23.4017,13.2067,3.91,8.4628,4.1613,21.6476-5.4313,26.3183-9.8,3.9649-19.3872-4.8794-22.9479-13.4151,3.855,8.13,13.1684,16.6539,22.63,12.7149,9.0217-4.65,8.61-17.1195,4.84-25.2045C512.1918,52.34,503.0552,43.83,493.6244,47.5729c-9.189,4.5448-8.8859,17.16-5.2944,25.4128Z" style="fill:#d3d5d6"/><path d="M503.8187,47.38a9.3583,9.3583,0,0,0-2.1946.6769c-6.2147,2.83-8.0709,12.1217-4.1329,20.7669,3.9278,8.6452,12.1525,13.3524,18.3672,10.5322a8.5572,8.5572,0,0,0,1.9383-1.21" style="fill:none;stroke:#d3d5d6;stroke-miterlimit:10"/><path d="M377.16,123.5308c-32.718-69.2488-35.5756-179.089,43.194-217.6448,59.0118-26.34,124.1169,11.8519,160.86,58.2651,38,47.6631,59.2712,110.36,52.0738,171.4C626.2039,200.4361,578.46,253.3445,509.55,240.8365c-61.1051-11.85-107.3748-62.5979-132.39-117.3054C402.335,178.0387,448.7258,228.48,509.652,240.2657c68.521,12.3237,115.844-40.262,122.8072-104.818,7.0876-60.7988-14.2429-123.1819-51.9566-170.7235-36.4649-46.2-101.1715-84.3489-159.8747-58.2343-78.38,38.1453-75.7548,148.099-43.4681,217.0409Z" style="fill:#d3d5d6"/><path d="M627.5119,306.6731s34.6824-16.1351,65.8671-40.39,69.4864-57.3041,83.6859-100.4058" style="fill:none;stroke:#d3d5d6;stroke-miterlimit:10;stroke-width:1.5px"/><path d="M542.3391-102.371C579.47-76.97,608.3436-40.6285,627.932-.3438l3.7895,8.1345L627.8221-.29c-20.0012-40.0457-48.7348-76.2128-85.483-102.0811Z" style="fill:#d3d5d6"/><path d="M367.1493,165.8775C328.8564,102.2353,311.5029,20.943,337.7649-50.3192c-1.2944,3.9123-3.3516,9.4711-4.3277,13.3962l-1.8651,6.7875-1.48,6.8815C316.9822,41.4522,334,109.6865,367.1493,165.8775Z" style="fill:#d3d5d6"/><path d="M657.3985,125.3762c-.3065,68.9454-34.9944,140.3334-109.3329,150.63-25.4359,3.3253-51.3835-1.8419-74.7173-12.0952,24.0293,10.2863,50.8106,15.4705,76.8277,11.3987,31.9368-4.5961,60.5952-23.878,78.498-50.5077,19.7553-29.08,27.9861-64.6159,28.7245-99.4261Z" style="fill:#d3d5d6"/><path d="M632.7576,110.1783l-41.6132-3.698a14.9635,14.9635,0,0,1-1.808-.2728L539.0529,95.4457a3.3191,3.3191,0,0,0-3.73,1.9022l-3.7054,8.3715a4.078,4.078,0,0,0-.23,2.63l18.1336,73.3145L567.2706,220.66" style="fill:none;stroke:#d3d5d6;stroke-miterlimit:10"/><path d="M589.5448,114.8561c-3.8046,16.27-11.1624,44.636-32.45,59.8738a1.6654,1.6654,0,0,1-2.5882-.9447c-4.96-19.92-14.0256-55.1618-15.9422-62.6053a3.7712,3.7712,0,0,1,.3139-2.6949l2.3266-4.4416a3.7852,3.7852,0,0,1,4.2313-1.9256l42.4925,10.1342A2.1691,2.1691,0,0,1,589.5448,114.8561Z" style="fill:none;stroke:#d3d5d6;stroke-miterlimit:10"/><path d="M620.5505,130.6329l-22.2788-1.8807a4.6981,4.6981,0,0,0-4.8267,3.1091c-4.5836,12.87-14.2227,33.19-25.8361,45.4225a4.7172,4.7172,0,0,0-.93,5.1285l9.9952,23.0771a4.7117,4.7117,0,0,0,7.23,1.83c14.0715-10.9627,37.5856-40.21,40.9265-71.4364A4.7294,4.7294,0,0,0,620.5505,130.6329Z" style="fill:none;stroke:#d3d5d6;stroke-miterlimit:10"/><path d="M559.5733,105.4894s-4.2925,5.8745-3.6968,12.2293,6.9506,40.297,6.9506,40.297,2.44,5.1746,7.2768,3.8862" style="fill:none;stroke:#d3d5d6;stroke-miterlimit:10"/><path d="M619.2386,133.2918,608.7265,132.01a4.0907,4.0907,0,0,0-4.2822,2.5279c-3.9106,9.581-14.205,27.938-21.98,36.56a4.0619,4.0619,0,0,0-.716,4.3076l5.6229,13.2956a4.09,4.09,0,0,0,6.6929,1.2556c9.2186-9.3567,24.7048-30.2261,28.6913-51.82A4.1035,4.1035,0,0,0,619.2386,133.2918Z" style="fill:none;stroke:#d3d5d6;stroke-miterlimit:10"/><path d="M588.4448,191.1911s-7.99,14.465-9.2573,16.767" style="fill:none;stroke:#d3d5d6;stroke-miterlimit:10"/><line x1="581.7488" y1="175.4061" x2="566.5378" y2="179.0658" style="fill:none;stroke:#d3d5d6;stroke-miterlimit:10"/><path d="M542.4908,179.4209l-17.6934-75.3615a5.3217,5.3217,0,0,1,.5663-3.867l7.0274-12.2343a3.48,3.48,0,0,1,3.7164-1.6757l47.2009,9.6759a3.5605,3.5605,0,0,0,4.2747-3.6993c-.3394-5.653-1.0639-15.0854-2.3283-20.1128a3.53,3.53,0,0,0-2.725-2.5893L533.4251,59.4518a5.7453,5.7453,0,0,1-3.4753-2.2251c-2.4052-3.2663-7.7005-10.5407-12.517-17.7284a5.7493,5.7493,0,0,1-.9681-3.1322L515.6419-30.98a3.2445,3.2445,0,0,0-1.53-2.7176,58.6437,58.6437,0,0,0-16.6241-6.8184,2.0428,2.0428,0,0,0-2.5295,1.98l0,63.7472a3.8308,3.8308,0,0,1-1.95,3.3482c-2.7625,1.5453-8.08,4.16-13.4616,4.8271a3.8041,3.8041,0,0,1-2.64-.6562L417.3809-8.72a1.9744,1.9744,0,0,0-2.8326.6192,95.5891,95.5891,0,0,0-6.9314,14.8986,4.1041,4.1041,0,0,0,1.4446,4.7551c10.4993,7.6079,50.856,36.8507,59.1016,42.8254a4.5018,4.5018,0,0,1,1.807,2.9333,90.7331,90.7331,0,0,1,1.1738,16.081,4.6161,4.6161,0,0,1-1.4848,3.2822l-43.1858,39.731a2.9513,2.9513,0,0,0-.6,3.5836,162.1276,162.1276,0,0,0,9.858,16.11,2.933,2.933,0,0,0,4.2062.5658l45.5532-36.3479a5.5154,5.5154,0,0,1,4.8426-1.05c4.954,1.3094,11.6055,5.6047,15.3717,9.3885a5.4594,5.4594,0,0,1,1.4313,2.6484l16.58,72.79a2.9367,2.9367,0,0,0,3.3126,2.2571c3.6323-.5633,10.0632-1.7568,13.8961-3.6112A2.9358,2.9358,0,0,0,542.4908,179.4209Z" style="fill:none;stroke:#d3d5d6;stroke-miterlimit:10"/><path d="M453.7867,73.7309,419.5082,101.54a2.1087,2.1087,0,0,1-3.2071-.6952c-13.899-27.2234-13.0057-63.0857-12.3-74.4963a2.0978,2.0978,0,0,1,3.2816-1.599L453.0611,56.04a6.359,6.359,0,0,1,2.7652,4.9891l.3077,7.5029A6.3589,6.3589,0,0,1,453.7867,73.7309Z" style="fill:none;stroke:#d3d5d6;stroke-miterlimit:10"/><path d="M393.045,108.23l11.2067-10.8033a3.1956,3.1956,0,0,0,.7537-3.4784c-2.1462-5.45-7.7649-23.1033-9.4722-61.835a4.7007,4.7007,0,0,0-1.4161-3.1652L377.0113,12.3887C374.3647,42.2276,379.4308,75.5715,393.045,108.23Z" style="fill:none;stroke:#d3d5d6;stroke-miterlimit:10"/><path d="M628.918,64.3692,585.64,60.5774,536.626,51.8058a8.3461,8.3461,0,0,1-5.4741-3.586L523.3447,36.509A8.3467,8.3467,0,0,1,521.943,31.88V-32.2851l9.3581-44.6325" style="fill:none;stroke:#d3d5d6;stroke-miterlimit:10"/><path d="M614.3068,36.5354C603.667,7.9,587.5873-24.6723,552.1812-54.2377a2.8581,2.8581,0,0,0-4.6286,1.6181l-5.5175,26.9382a2.8523,2.8523,0,0,0,.8449,2.6539,183.05,183.05,0,0,1,41.0783,60.35,2.8544,2.8544,0,0,0,2.4855,1.7685l25.04,1.2841A2.8521,2.8521,0,0,0,614.3068,36.5354Z" style="fill:none;stroke:#d3d5d6;stroke-miterlimit:10"/><path d="M582.4447,52.3772C569.0664,17.8334,550.896-6.1276,529.93-24.6975l-1.5741,51.77a9.5213,9.5213,0,0,0,1.496,5.42l5.5936,8.7453a9.5219,9.5219,0,0,0,6.4289,4.2571Z" style="fill:none;stroke:#d3d5d6;stroke-miterlimit:10"/><path d="M578.2326,42.2007l-22.924-5.2038a6.7474,6.7474,0,0,1-4.11-2.821l-8.0778-12.0413a6.7478,6.7478,0,0,1-1.1441-3.759V-13.0552" style="fill:none;stroke:#d3d5d6;stroke-miterlimit:10"/><path d="M610.6459,27.1178H598.4017a6.7066,6.7066,0,0,1-5.9818-3.6636c-4.5163-8.8911-17.0237-31.9-32.0377-45.7823a6.7528,6.7528,0,0,1-2.1147-6.0212l2.8674-17.9725" style="fill:none;stroke:#d3d5d6;stroke-miterlimit:10"/><line x1="594.7948" y1="26.0652" x2="583.9583" y2="37.3229" style="fill:none;stroke:#d3d5d6;stroke-miterlimit:10"/><path d="M494.9579-91.3375,487.3992-47.46V16.9658a3.9643,3.9643,0,0,1-2.4674,3.6708l-7.1746,2.9254a3.9639,3.9639,0,0,1-3.7736-.4257L414.917-18.3078,389.8411-43.3991" style="fill:none;stroke:#d3d5d6;stroke-miterlimit:10"/><path d="M483.1392,12.8347,482.51-43.57a2.8349,2.8349,0,0,0-2.8079-2.7979c-20.4871-.2323-37.216,2.1633-56.58,21.3311a2.8381,2.8381,0,0,0,.3134,4.3L474.944,17.0681a2.8278,2.8278,0,0,0,2.9784.2289l3.6943-1.922A2.8281,2.8281,0,0,0,483.1392,12.8347Z" style="fill:none;stroke:#d3d5d6;stroke-miterlimit:10"/><path d="M481.9436-45.2193C460.39-41.5311,446.627-32.5256,441.53-28.7875c-3.0585,2.3788-1.8284,5.7771.87,7.4762s30.5642,19.54,32.7731,21.0694,6.5882,2.2089,7.9668,1.6992" style="fill:none;stroke:#d3d5d6;stroke-miterlimit:10"/><path d="M377.7371-10.5273,402.6122,15.376l56.1883,39.9928a4.758,4.758,0,0,1,1.869,2.7446,42.4838,42.4838,0,0,1,1.0386,14.2575,4.819,4.819,0,0,1-1.6256,3.1082L417.005,112.908l-16.9137,16.0863" style="fill:none;stroke:#d3d5d6;stroke-miterlimit:10"/><path d="M416.5323,31.0717c-2.9138,14.7831,2.2469,40.711,12.5353,62.713" style="fill:none;stroke:#d3d5d6;stroke-miterlimit:10"/><polyline points="532.83 226.451 516.622 187.78 499.964 118.918 486.579 110.886 439.729 147.92 422.397 163.165" style="fill:none;stroke:#d3d5d6;stroke-miterlimit:10"/><path d="M448.0576,151.49,485.6863,118.62l12.94,7.5852L512.7551,187.78C495.8,188.8208,468.2849,174.2453,448.0576,151.49Z" style="fill:none;stroke:#d3d5d6;stroke-miterlimit:10"/><path d="M509.4864,173.535a82.3743,82.3743,0,0,1-40.8673-22.4944,4.7007,4.7007,0,0,1-.0168-6.6011l22.412-22.6959" style="fill:none;stroke:#d3d5d6;stroke-miterlimit:10"/><line x1="467.3299" y1="148.5242" x2="448.0576" y2="151.4896" style="fill:none;stroke:#d3d5d6;stroke-miterlimit:10"/><path d="M437.82,176.7494s16.171-1.11,24.1019-3.38" style="fill:none;stroke:#d3d5d6;stroke-miterlimit:10"/><path d="M586.9207,83.544l-16.8168-4.0963a6.9532,6.9532,0,0,1-3.81-6.37,52.4146,52.4146,0,0,1,0-6.5339" style="fill:none;stroke:#d3d5d6;stroke-miterlimit:10"/><path d="M566.2114,77.6911c-7.1257,3.03-14.4963,7.0932-22.5,5.8528,8.0177.548,15.0967-3.454,22.5-5.8528Z" style="fill:#d3d5d6"/><ellipse cx="536.9775" cy="71.8357" rx="8.0512" ry="11.7084" transform="translate(10.2045 198.3875) rotate(-21.1284)" style="fill:none;stroke:#d3d5d6;stroke-miterlimit:10"/><path d="M539.0866,61.9221a15.8828,15.8828,0,0,0,1.0974,6.01,14.6617,14.6617,0,0,0,5.4045,7.0248" style="fill:none;stroke:#d3d5d6;stroke-miterlimit:10"/><ellipse cx="506.0914" cy="28.9193" rx="8.0512" ry="11.7084" transform="translate(23.5977 184.3693) rotate(-21.1284)" style="fill:none;stroke:#d3d5d6;stroke-miterlimit:10"/><path d="M508.2006,19.0058a15.8826,15.8826,0,0,0,1.0973,6.01,14.6617,14.6617,0,0,0,5.4045,7.0248" style="fill:none;stroke:#d3d5d6;stroke-miterlimit:10"/><ellipse cx="472.5417" cy="42.2007" rx="8.0512" ry="11.7084" transform="translate(37.3142 231.0222) rotate(-28.5567)" style="fill:none;stroke:#d3d5d6;stroke-miterlimit:10"/><path d="M473.3515,32.0976a15.8826,15.8826,0,0,0,1.8651,5.8173,14.6617,14.6617,0,0,0,6.2674,6.2672" style="fill:none;stroke:#d3d5d6;stroke-miterlimit:10"/><path d="M479.4826,77.8093a15.8829,15.8829,0,0,0,1.865,5.8173,14.6628,14.6628,0,0,0,6.2674,6.2672" style="fill:none;stroke:#d3d5d6;stroke-miterlimit:10"/><ellipse cx="515.621" cy="108.2301" rx="8.0512" ry="11.7084" transform="translate(-0.4785 214.1547) rotate(-23.4528)" style="fill:none;stroke:#d3d5d6;stroke-miterlimit:10"/><path d="M517.3264,98.2391a15.8838,15.8838,0,0,0,1.34,5.96,14.6615,14.6615,0,0,0,5.685,6.8" style="fill:none;stroke:#d3d5d6;stroke-miterlimit:10"/><path d="M516.0164-.3283s-4.33-1.6142-4.5665-7.47-1.5537-28.6968-1.5537-28.6968" style="fill:none;stroke:#d3d5d6;stroke-miterlimit:10"/><path d="M512.9563-1.9425q-3.7443,3.163-7.6039,6.183a12.2473,12.2473,0,0,0-2.6071,2.7551,29.2179,29.2179,0,0,0-3.9264,8.743l-.4872,1.8777c.85-5.0446,2.5387-10.5095,6.76-13.7525,2.4759-1.9145,5.2335-3.9394,7.8644-5.8063Z" style="fill:#d3d5d6"/><path d="M460.3288,21.1868l-1.6674,2.6687s-1.0247,2.2517-4.538.5232-30.4481-20.173-30.4481-20.173-2.6127-2.5607,1.019-7.8329" style="fill:none;stroke:#d3d5d6;stroke-miterlimit:10"/><path d="M423.6753,4.2057c-4.5334,2.5481-9.5533,4.6081-14.7849,4.9772,5.1339-1.045,9.9392-3.0337,14.7849-4.9772Z" style="fill:#d3d5d6"/><path d="M454.1234,24.3787c-.1192,9.4511,3.31,15.4235,9.8081,21.9858-6.88-5.8-10.746-12.8156-9.8081-21.9858Z" style="fill:#d3d5d6"/><path d="M530.1964,133.7987c-8.3827-2.662-16.8017-8.2341-19.8243-16.8451a23.3565,23.3565,0,0,0,1.5645,2.9511c4.1213,6.65,11.1513,10.9825,18.26,13.894Z" style="fill:#d3d5d6"/><path d="M471.6687,103.4548l-4.0732-5.4322a3.1859,3.1859,0,0,0-4.5585-.5609l-19.9315,16.2014a3.1859,3.1859,0,0,0-.6186,4.273l3.6433,5.3171a3.1859,3.1859,0,0,0,4.6031.6991l20.3614-16.0864A3.1859,3.1859,0,0,0,471.6687,103.4548Z" style="fill:none;stroke:#d3d5d6;stroke-miterlimit:10"/><path d="M441.929,115.4555s-12.1079,1.1339-16.4095,3.1648" style="fill:none;stroke:#d3d5d6;stroke-miterlimit:10"/><path d="M464.2678,96.7478A32.6166,32.6166,0,0,1,468.2263,84.9c-1.3419,3.3721-2.8337,8.3524-3.9585,11.8478Z" style="fill:#d3d5d6"/><path d="M403.73-185.5182c97.7537-44.4451,227.094,29.7057,288.89,165.6206s32.6459,282.1256-65.1079,326.5707" style="fill:none;stroke:#d3d5d6;stroke-miterlimit:10"/><line x1="400.6589" y1="22.0075" x2="376.3343" y2="-3.6937" style="fill:none;stroke:#d3d5d6;stroke-miterlimit:10"/><line x1="584.4152" y1="53.0848" x2="626.6829" y2="55.252" style="fill:none;stroke:#d3d5d6;stroke-miterlimit:10"/><line x1="591.6234" y1="113.739" x2="632.4464" y2="117.0379" style="fill:none;stroke:#d3d5d6;stroke-miterlimit:10"/><line x1="555.8198" y1="177.2359" x2="574.1433" y2="216.4012" style="fill:none;stroke:#d3d5d6;stroke-miterlimit:10"/><line x1="446.096" y1="153.2262" x2="427.5216" y2="169.3716" style="fill:none;stroke:#d3d5d6;stroke-miterlimit:10"/><line x1="415.7255" y1="103.6657" x2="396.4017" y2="121.7436" style="fill:none;stroke:#d3d5d6;stroke-miterlimit:10"/></g><path d="M306.4876,10.6962c5.27,86.7911,42.7934,171.4639,103.2749,233.892a302.3525,302.3525,0,0,0,27.5889,25.1066,302.6327,302.6327,0,0,1-28.1092-24.5894C347.82,183.3122,309.897,97.8472,306.4876,10.6962Z" style="fill:#d3d5d6"/><polygon points="458.087 48.293 275.294 99.876 275.294 22.263 18.318 22.263 18.318 272.34 275.294 272.34 275.294 138.284 458.087 48.293" style="fill:#fff;stroke:#000001;stroke-miterlimit:10;stroke-width:2px"/><g style="clip-path:url(#a24cbe05-5739-4f45-ad65-23ef2c6635ca)"><path d="M174.1289,145.2023c-2.9536-3.0469-18.93-19.5263-21.9241-21.9038a6.3786,6.3786,0,0,0-4.0786-1.4519h-.0013a6.3794,6.3794,0,0,0-4.0788,1.4519c-2.9938,2.3775-18.97,18.8569-21.9241,21.9038a.4375.4375,0,0,0,.3386.7135c1.4763,0,4.8963.006,6.9562.006a1.4987,1.4987,0,0,0,1.397-.6168c.4563-.49,2.7272-2.9279,2.7272-2.9279,2.8893-3.1128,9.9329-9.9887,12.5082-12.158a3.3688,3.3688,0,0,1,2.0757-.7874h.0013a3.3686,3.3686,0,0,1,2.0755.7874c2.5753,2.1693,9.6189,9.0452,12.5082,12.158,0,0,2.2709,2.4379,2.7272,2.9279a1.499,1.499,0,0,0,1.397.6168c2.06,0,5.48-.006,6.9562-.006a.4374.4374,0,0,0,.3386-.7135" style="fill:#d3d5d6"/><path d="M122.1221,149.1236c2.9536,3.0472,18.93,19.5264,21.924,21.9039a6.3819,6.3819,0,0,0,4.0786,1.4524h.0013a6.3816,6.3816,0,0,0,4.0788-1.4524c2.9941-2.3775,18.97-18.8567,21.9241-21.9039a.4375.4375,0,0,0-.3386-.7135c-1.4763,0-4.8963-.0059-6.9562-.0062a1.5,1.5,0,0,0-1.3969.6171c-.4563.49-2.7273,2.9276-2.7273,2.9276-2.8893,3.1131-9.9326,9.9887-12.5082,12.1582a3.3693,3.3693,0,0,1-2.0757.7874h-.0013a3.37,3.37,0,0,1-2.0754-.7874c-2.5754-2.1695-9.6189-9.0451-12.5082-12.1582,0,0-2.2707-2.4376-2.7273-2.9276a1.4994,1.4994,0,0,0-1.3969-.6171c-2.06,0-5.48.0062-6.9562.0062a.4374.4374,0,0,0-.3386.7135" style="fill:#d3d5d6"/><path d="M146.1948,152.6106c-1.3179-1.2025-3.6379-3.4545-4.5015-4.4623a1.5516,1.5516,0,0,1,0-2.0044c.8636-1.0078,3.1836-3.26,4.5015-4.4623a1.6492,1.6492,0,0,0,.6678-1.4361c0-1.9077,0-5.4856,0-6.8431a.3265.3265,0,0,0-.5709-.2163c-2.9367,2.7185-9.4812,9.2038-11.6759,11.7157a3.15,3.15,0,0,0-.9518,2.2444h0a3.1494,3.1494,0,0,0,.9518,2.2443c2.1947,2.5118,8.7392,8.9972,11.6759,11.7159a.3229.3229,0,0,0,.57-.2378c0-1.3578,0-4.9142,0-6.8222a1.6491,1.6491,0,0,0-.6678-1.4358" style="fill:#d3d5d6"/><path d="M150.0582,152.6159c1.3179-1.2027,3.6378-3.4545,4.5012-4.4625a1.5465,1.5465,0,0,0,.3669-1.0021h0a1.5469,1.5469,0,0,0-.3669-1.0023c-.8634-1.0078-3.1833-3.26-4.5012-4.4621a1.65,1.65,0,0,1-.6678-1.4361c0-1.9079,0-5.4641,0-6.8216a.3228.3228,0,0,1,.57-.238c2.9367,2.7184,9.4812,9.2038,11.6759,11.7159a3.122,3.122,0,0,1,0,4.4887c-2.1947,2.5115-8.7392,8.9972-11.6759,11.7159a.323.323,0,0,1-.57-.238c0-1.3578,0-4.914,0-6.8217a1.6493,1.6493,0,0,1,.6678-1.4361" style="fill:#d3d5d6"/><circle cx="147.3779" cy="147.1632" r="35.2409" style="fill:none;stroke:#a7abae;stroke-miterlimit:10"/><circle cx="147.8932" cy="148.4046" r="251.5181" style="fill:none;stroke:#a7abae;stroke-miterlimit:10;stroke-width:0.5px"/><circle cx="147.8932" cy="148.4046" r="272.2872" style="fill:none;stroke:#a7abae;stroke-miterlimit:10;stroke-width:1.5px"/><path d="M147.8932,222.1188h8.5133a13.6942,13.6942,0,0,1,11.1517,5.7461L268.336,369.2624" style="fill:none;stroke:#a7abae;stroke-linecap:round;stroke-linejoin:round;stroke-width:0.5px"/><path d="M147.8932,222.1188H139.38a13.6944,13.6944,0,0,0-11.1517,5.7461L27.45,369.2624" style="fill:none;stroke:#a7abae;stroke-linecap:round;stroke-linejoin:round;stroke-width:0.5px"/><path d="M147.8932,319.4962c-24.46,0-38.13-3.06-45.4083-5.7372a6.9777,6.9777,0,0,1-3.3842-10.3219c8.3075-13.008,26.5352-42.1879,32.187-48.6161,6.3848-7.2618,16.6055-7.1493,16.6055-7.1493s10.8133-.1125,16.6055,7.1493c5.3374,6.6916,23.8795,35.6081,32.187,48.6161a6.9777,6.9777,0,0,1-3.3842,10.3219C186.023,316.4361,172.3535,319.4962,147.8932,319.4962Z" style="fill:none;stroke:#a7abae;stroke-linecap:round;stroke-linejoin:round"/><path d="M43.579,293.2527a57.8047,57.8047,0,0,0,9.442,6.4755,8.8981,8.8981,0,0,0,11.3839-2.5393c10.708-14.5113,52.81-70.6023,64.5308-86.212a12.6556,12.6556,0,0,1,8.9316-4.9964c2.4641-.2426,5.7664-.4366,10.0259-.4366s7.5618.194,10.026.4366a12.6554,12.6554,0,0,1,8.9315,4.9964c11.72,15.61,53.8228,71.7007,64.5309,86.212a8.8979,8.8979,0,0,0,11.3838,2.5393,57.8005,57.8005,0,0,0,9.4421-6.4755" style="fill:none;stroke:#a7abae;stroke-linecap:round;stroke-linejoin:round;stroke-width:0.5px"/><path d="M218,171.1835l2.6307-8.0966a13.6943,13.6943,0,0,1,8.911-8.83L395.16,102.1055" style="fill:none;stroke:#a7abae;stroke-linecap:round;stroke-linejoin:round;stroke-width:0.5px"/><path d="M218,171.1835l-2.6308,8.0966a13.6942,13.6942,0,0,0,2.0189,12.3816l103.3349,139.54" style="fill:none;stroke:#a7abae;stroke-linecap:round;stroke-linejoin:round;stroke-width:0.5px"/><path d="M310.611,201.2748c-7.5586,23.2631-14.6931,35.318-19.4884,41.413a6.9776,6.9776,0,0,1-10.8624.0289c-9.8042-11.9206-31.9233-38.2732-36.29-45.6348-4.9334-8.3164-1.668-18.0021-1.668-18.0021s3.2345-10.3188,11.9308-13.5835c8.0134-3.0083,41.2443-11.7072,56.1829-15.5885a6.9777,6.9777,0,0,1,8.7709,6.4082C319.4834,164.0656,318.17,178.0117,310.611,201.2748Z" style="fill:none;stroke:#a7abae;stroke-linecap:round;stroke-linejoin:round"/><path d="M376.6384,222.7284c-12.103,37.2489-25.0371,56.3611-32.369,65.0041a6.8762,6.8762,0,0,1-10.7832-.4536L313.402,259.917a10.9282,10.9282,0,0,1-.8395-11.6232c10.06-18.8205,17.4247-40.7233,17.4247-40.7233s6.9158-22.0487,9.84-43.1878a10.9281,10.9281,0,0,1,7.5111-8.91l32.3314-10.331a6.8761,6.8761,0,0,1,8.99,5.9712C389.5112,162.4149,388.7413,185.48,376.6384,222.7284Z" style="fill:none;stroke:#a7abae;stroke-linecap:round;stroke-linejoin:round"/><path d="M253.417,292.3739a57.8031,57.8031,0,0,0,9.0764-6.9789,8.898,8.898,0,0,0,1.1028-11.6114c-10.4921-14.6682-50.8275-72.043-62.0513-88.0134a12.6553,12.6553,0,0,1-1.9919-10.0384c.5307-2.4185,1.3666-5.6191,2.6829-9.67s2.5213-7.1317,3.5135-9.4a12.655,12.655,0,0,1,7.5118-6.95c18.4675-6.3232,84.8236-29.0318,101.9336-34.7316a8.898,8.898,0,0,0,5.9329-10.042,57.8116,57.8116,0,0,0-3.2409-10.9809" style="fill:none;stroke:#a7abae;stroke-linecap:round;stroke-linejoin:round;stroke-width:0.5px"/><path d="M191.2213,88.7686l-6.8874-5.004A13.6944,13.6944,0,0,1,178.69,72.561l1.58-173.6286" style="fill:none;stroke:#a7abae;stroke-linecap:round;stroke-linejoin:round;stroke-width:0.5px"/><path d="M191.2213,88.7686l6.8874,5.004a13.6945,13.6945,0,0,0,12.3995,1.906L375.1505,40.5214" style="fill:none;stroke:#a7abae;stroke-linecap:round;stroke-linejoin:round;stroke-width:0.5px"/><path d="M248.4584,9.9886c19.7887,14.3773,29.0489,24.8878,33.3638,31.3318a6.9778,6.9778,0,0,1-3.3292,10.34c-14.3669,5.6407-46.2648,18.5337-54.6156,20.4122-9.4338,2.122-17.6364-3.9766-17.6364-3.9766s-8.8143-6.2649-9.2319-15.5444c-.3848-8.5508,1.611-42.8435,2.536-58.25A6.9776,6.9776,0,0,1,208.35-12.06C215.812-9.9479,228.67-4.3888,248.4584,9.9886Z" style="fill:none;stroke:#a7abae;stroke-linecap:round;stroke-linejoin:round"/><path d="M289.2655-46.1776c31.6858,23.0211,45.8657,41.2282,51.82,50.8721A6.8761,6.8761,0,0,1,337.3219,14.81l-32.229,10.6459a10.9283,10.9283,0,0,1-11.3138-2.7933C278.9884,7.279,260.4335-6.4938,260.4335-6.4938S241.601-19.8846,222.4-29.1977a10.9282,10.9282,0,0,1-6.1528-9.8968l.1656-33.9414A6.876,6.876,0,0,1,224.87-79.741C235.8818-77.0583,257.58-69.1987,289.2655-46.1776Z" style="fill:none;stroke:#a7abae;stroke-linecap:round;stroke-linejoin:round"/><path d="M317.4248,92.5344a57.8194,57.8194,0,0,0-3.8325-10.7887A8.898,8.898,0,0,0,302.89,77.1088c-17.1925,5.4458-84.2235,26.0773-102.8806,31.8167a12.6554,12.6554,0,0,1-10.1626-1.2077c-2.1362-1.2521-4.9218-3.0362-8.3678-5.54s-6.0036-4.6016-7.8546-6.2463a12.6551,12.6551,0,0,1-4.2889-9.292c-.3069-19.5176-1.399-89.6434-1.5324-107.6773a8.8981,8.8981,0,0,0-7.7172-8.7456,57.8045,57.8045,0,0,0-11.445-.311" style="fill:none;stroke:#a7abae;stroke-linecap:round;stroke-linejoin:round;stroke-width:0.5px"/><path d="M104.5651,88.7686l-6.8874,5.004a13.6943,13.6943,0,0,1-12.3994,1.906L-79.364,40.5214" style="fill:none;stroke:#a7abae;stroke-linecap:round;stroke-linejoin:round;stroke-width:0.5px"/><path d="M104.5651,88.7686l6.8874-5.004a13.6944,13.6944,0,0,0,5.6444-11.2036l-1.58-173.6286" style="fill:none;stroke:#a7abae;stroke-linecap:round;stroke-linejoin:round;stroke-width:0.5px"/><path d="M47.3281,9.9886C67.1168-4.3888,79.9744-9.9479,87.4365-12.06a6.9777,6.9777,0,0,1,8.8049,6.3614c.925,15.4067,3.33,49.7277,2.5359,58.25-.897,9.6278-9.2318,15.5444-9.2318,15.5444s-8.682,6.4469-17.6364,3.9766C63.6578,69.796,31.66,57.3009,17.2934,51.66a6.9777,6.9777,0,0,1-3.3291-10.34C18.2791,34.8764,27.5393,24.3659,47.3281,9.9886Z" style="fill:none;stroke:#a7abae;stroke-linecap:round;stroke-linejoin:round"/><path d="M6.521-46.1776C38.2068-69.1987,59.9046-77.0583,70.9165-79.741a6.8761,6.8761,0,0,1,8.4571,6.7051l.1656,33.9414a10.9282,10.9282,0,0,1-6.1528,9.8968C54.1854-19.8846,35.353-6.4938,35.353-6.4938S16.798,7.279,2.0073,22.6623A10.9282,10.9282,0,0,1-9.3064,25.4556L-41.5355,14.81A6.8762,6.8762,0,0,1-45.2991,4.6945C-39.3448-4.9494-25.1649-23.1565,6.521-46.1776Z" style="fill:none;stroke:#a7abae;stroke-linecap:round;stroke-linejoin:round"/><path d="M147.1457-30.0943a57.8039,57.8039,0,0,0-11.445.311,8.8981,8.8981,0,0,0-7.7172,8.7456C127.85-3.0038,126.758,67.122,126.4511,86.64a12.6552,12.6552,0,0,1-4.289,9.292c-1.8509,1.6447-4.4085,3.7427-7.8545,6.2463s-6.2317,4.2878-8.3678,5.54a12.6555,12.6555,0,0,1-10.1626,1.2077C77.12,103.1861,10.089,82.5546-7.1035,77.1088a8.8979,8.8979,0,0,0-10.7023,4.6369,57.8049,57.8049,0,0,0-3.8325,10.7887" style="fill:none;stroke:#a7abae;stroke-linecap:round;stroke-linejoin:round;stroke-width:0.5px"/><path d="M77.7869,171.1835l2.6307,8.0966a13.6945,13.6945,0,0,1-2.0188,12.3816l-103.335,139.54" style="fill:none;stroke:#a7abae;stroke-linecap:round;stroke-linejoin:round;stroke-width:0.5px"/><path d="M77.7869,171.1835l-2.6308-8.0966a13.6941,13.6941,0,0,0-8.911-8.83l-165.619-52.1512" style="fill:none;stroke:#a7abae;stroke-linecap:round;stroke-linejoin:round;stroke-width:0.5px"/><path d="M-14.8246,201.2748c-7.5586-23.2631-8.8724-37.2092-8.5755-44.9588a6.9778,6.9778,0,0,1,8.7709-6.4082c14.9386,3.8813,48.3229,12.2,56.183,15.5885,8.8794,3.8283,11.9308,13.5835,11.9308,13.5835s3.4485,10.2493-1.668,18.0021c-4.7148,7.1439-26.4861,33.7142-36.29,45.6348a6.9777,6.9777,0,0,1-10.8625-.0289C-.1315,236.5928-7.2659,224.5379-14.8246,201.2748Z" style="fill:none;stroke:#a7abae;stroke-linecap:round;stroke-linejoin:round"/><path d="M-22.1,93.9564a57.8041,57.8041,0,0,0-3.2409,10.9809,8.898,8.898,0,0,0,5.9328,10.042c17.11,5.7,83.4662,28.4084,101.9336,34.7316a12.6554,12.6554,0,0,1,7.5119,6.95c.9922,2.2686,2.1972,5.3493,3.5134,9.4s2.1522,7.2517,2.6829,9.67A12.6552,12.6552,0,0,1,94.2416,185.77c-11.2238,15.97-51.5593,73.3452-62.0513,88.0134A8.8979,8.8979,0,0,0,33.293,285.395a57.8127,57.8127,0,0,0,9.0764,6.9789" style="fill:none;stroke:#a7abae;stroke-linecap:round;stroke-linejoin:round;stroke-width:0.5px"/><path d="M200.1889,237.2562l33.7638,48.027a4.5581,4.5581,0,0,0,6.32,1.1283l8.2055-5.6713a4.5579,4.5579,0,0,0,1.1724-6.32l-33.1275-48.5051a4.558,4.558,0,0,0-6.3665-1.1713l-8.8418,6.1493A4.5581,4.5581,0,0,0,200.1889,237.2562Z" style="fill:none;stroke:#a7abae;stroke-miterlimit:10;stroke-width:0.5px"/><path d="M248.5564,126.1251l56.11-17.27a4.5581,4.5581,0,0,0,3.0261-5.6624l-2.858-9.5564a4.5581,4.5581,0,0,0-5.6487-3.0682l-56.3681,16.5173a4.558,4.558,0,0,0-3.0813,5.6929l3.116,10.3093A4.5581,4.5581,0,0,0,248.5564,126.1251Z" style="fill:none;stroke:#a7abae;stroke-miterlimit:10;stroke-width:0.5px"/><path d="M158.9334,45.3992l-1.3313-58.6926a4.5582,4.5582,0,0,0-4.6239-4.4542l-9.9736.1466a4.5581,4.5581,0,0,0-4.4909,4.5992L139.05,45.734a4.5582,4.5582,0,0,0,4.6382,4.5157l10.7683-.19A4.558,4.558,0,0,0,158.9334,45.3992Z" style="fill:none;stroke:#a7abae;stroke-miterlimit:10;stroke-width:0.5px"/><path d="M53.3594,107.2608-2.1856,88.252A4.558,4.558,0,0,0-7.962,91.0542l-3.305,9.4113A4.558,4.558,0,0,0-8.5,106.2678l55.3113,19.77a4.5581,4.5581,0,0,0,5.8391-2.7945l3.5387-10.172A4.558,4.558,0,0,0,53.3594,107.2608Z" style="fill:none;stroke:#a7abae;stroke-miterlimit:10;stroke-width:0.5px"/><path d="M79.5506,225.5974,44.3077,272.55a4.5581,4.5581,0,0,0,.88,6.36l7.9294,6.0515a4.5581,4.5581,0,0,0,6.3733-.8381l35.8941-46.495a4.5581,4.5581,0,0,0-.8534-6.4169l-8.5806-6.5088A4.558,4.558,0,0,0,79.5506,225.5974Z" style="fill:none;stroke:#a7abae;stroke-miterlimit:10;stroke-width:0.5px"/><line x1="87.5015" y1="129.9669" x2="89.5012" y2="129.9312" style="fill:none;stroke:#000001;stroke-miterlimit:10;stroke-width:2px"/><line x1="90.5019" y1="129.9134" x2="205.0885" y2="127.8683" style="fill:none;stroke:#000001;stroke-miterlimit:10;stroke-width:2px;stroke-dasharray:4.003660678863525,1.0009151697158813"/><polyline points="205.589 127.859 207.589 127.824 205.992 129.028" style="fill:none;stroke:#000001;stroke-miterlimit:10;stroke-width:2px"/><line x1="205.1926" y1="129.6306" x2="113.6922" y2="198.6374" style="fill:none;stroke:#000001;stroke-miterlimit:10;stroke-width:2px;stroke-dasharray:4.003660678863525,1.0009151697158813"/><polyline points="113.293 198.939 111.696 200.143 112.28 198.23" style="fill:none;stroke:#000001;stroke-miterlimit:10;stroke-width:2px"/><line x1="112.5721" y1="197.2728" x2="146.0363" y2="87.6626" style="fill:none;stroke:#000001;stroke-miterlimit:10;stroke-width:2px;stroke-dasharray:4.003660678863525,1.0009151697158813"/><line x1="146.1825" y1="87.184" x2="146.7665" y2="85.2711" style="fill:none;stroke:#000001;stroke-miterlimit:10;stroke-width:2px"/><line x1="185.9137" y1="198.8184" x2="102.7219" y2="140.6154" style="fill:none;stroke:#fff;stroke-miterlimit:10;stroke-width:5px"/><line x1="185.9137" y1="198.8184" x2="184.275" y2="197.6719" style="fill:none;stroke:#000001;stroke-miterlimit:10;stroke-width:2px"/><line x1="183.4614" y1="197.1027" x2="110.6474" y2="146.1603" style="fill:none;stroke:#000001;stroke-miterlimit:10;stroke-width:2px;stroke-dasharray:3.9716227054595947,0.9929056763648987"/><line x1="110.2406" y1="145.8757" x2="108.6019" y2="144.7292" style="fill:none;stroke:#000001;stroke-miterlimit:10;stroke-width:2px"/><polygon points="112.656 141.48 102.722 140.615 106.939 149.651 112.656 141.48" style="fill:#000001"/><line x1="152.4429" y1="101.7357" x2="178.6307" y2="177.6938" style="fill:none;stroke:#fff;stroke-miterlimit:10;stroke-width:5px"/><path d="M174.6534,178.8463a4.1357,4.1357,0,1,0,2.5619-5.2578A4.1363,4.1363,0,0,0,174.6534,178.8463Z" style="fill:#fff"/><line x1="152.4429" y1="101.7357" x2="177.5723" y2="174.6239" style="fill:none;stroke:#f2a900;stroke-miterlimit:10;stroke-width:2px"/><polygon points="172.383 174.87 179.911 181.408 181.811 171.619 172.383 174.87" style="fill:#f2a900"/><circle cx="146.7665" cy="85.2711" r="15.1729" style="fill:#f2a900;stroke:#12171d;stroke-miterlimit:10;stroke-width:1.5px"/><polygon points="138.322 89.031 145.8 94.464 154.245 90.704 155.211 81.511 147.733 76.078 139.288 79.838 138.322 89.031" style="fill:#f2a900;stroke:#12171d;stroke-miterlimit:10;stroke-width:0.5px"/><circle cx="87.5015" cy="129.9669" r="15.1729" style="fill:#f2a900;stroke:#12171d;stroke-miterlimit:10;stroke-width:1.5px"/><polygon points="88.468 139.16 95.946 133.727 94.98 124.534 86.535 120.774 79.057 126.207 80.023 135.4 88.468 139.16" style="fill:#f2a900;stroke:#12171d;stroke-miterlimit:10;stroke-width:0.5px"/><circle cx="111.6959" cy="200.143" r="15.1729" style="fill:#f2a900;stroke:#12171d;stroke-miterlimit:10;stroke-width:1.5px"/><polygon points="120.737 202.065 117.881 193.274 108.839 191.352 102.654 198.221 105.511 207.012 114.552 208.934 120.737 202.065" style="fill:#f2a900;stroke:#12171d;stroke-miterlimit:10;stroke-width:0.5px"/><circle cx="185.9137" cy="198.8184" r="15.1729" style="fill:#f2a900;stroke:#12171d;stroke-miterlimit:10;stroke-width:1.5px"/><polygon points="190.535 190.813 181.292 190.813 176.67 198.818 181.292 206.823 190.535 206.823 195.157 198.818 190.535 190.813" style="fill:#f2a900;stroke:#12171d;stroke-miterlimit:10;stroke-width:0.5px"/><circle cx="207.5885" cy="127.8237" r="15.1729" style="fill:#f2a900;stroke:#12171d;stroke-miterlimit:10;stroke-width:1.5px"/><polygon points="201.403 120.954 198.547 129.745 204.732 136.615 213.774 134.693 216.63 125.902 210.445 119.033 201.403 120.954" style="fill:#f2a900;stroke:#12171d;stroke-miterlimit:10;stroke-width:0.5px"/></g></g><g id="b4463c34-b696-4380-94f6-5e1406a6c96f" data-name="above"><rect x="558.4055" y="92.1055" width="86.0173" height="189.4009" style="fill:#fff;stroke:#000001;stroke-miterlimit:10;stroke-width:2px"/><g style="clip-path:url(#e7694411-027f-46fb-947a-e31dc280c28b)"><path d="M469.7847,85.2622c.5059-.3792.1016-.3052.7275-.7255l2.5213-4.3609.0053-.0064L484.4,74.753a2.8483,2.8483,0,0,1,2.1911-.153l2.2134.7473c2.2024-.5846,4.988,1.1395,6.5065,4.154,1.2131,2.419,1.2737,4.9965.32,6.6577a.7729.7729,0,0,1-.05.0933.96.96,0,0,1-.0548.1056l-2.3762,4.0932a2.8329,2.8329,0,0,1-1.1889,1.1236l-11.6588,5.5691-.0058.0006-.0064-.0053-3.8233-1.2935c-.64.2152-.3289-.0325-1.1871.3631-2.112.9711-4.9912-.5612-6.51-3.5816C467.2494,89.6009,467.926,86.6571,469.7847,85.2622Z" style="fill:#f2a900"/><path d="M478.3363,95.3187c2.275-1.1419,2.7731-4.75,1.1125-8.058s-4.851-5.0647-7.126-3.9228c0,0-1.2618.966-2.5371,1.9226-1.8608,1.3959-2.5341,4.34-1.0166,7.3637s4.2545,4.1459,6.512,3.5848C477.05,95.7693,478.3363,95.3187,478.3363,95.3187Z" style="fill:none;stroke:#12171d;stroke-miterlimit:10"/><path d="M488.8042,75.3473c2.2025-.5846,4.9881,1.1395,6.5065,4.1541,1.2131,2.4188,1.2737,4.9964.32,6.6576a.76.76,0,0,1-.05.0933" style="fill:none;stroke:#12171d;stroke-miterlimit:10"/><path d="M470.3247,84.8552l2.712-4.6848L484.4,74.753a2.8485,2.8485,0,0,1,2.1912-.153l4.8106,1.6226a2.8734,2.8734,0,0,1,1.71,1.5805l2.5685,6.0036a2.8653,2.8653,0,0,1-.1543,2.5512l-2.3763,4.0932a2.8317,2.8317,0,0,1-1.1889,1.1236L480.3,97.1448l-3.8356-1.2982" style="fill:none;stroke:#12171d;stroke-miterlimit:10"/><line x1="492.1075" y1="76.9534" x2="480.3888" y2="82.5516" style="fill:none;stroke:#12171d;stroke-miterlimit:10;stroke-width:0.5px"/><line x1="495.8199" y1="85.1453" x2="483.3935" y2="91.0987" style="fill:none;stroke:#12171d;stroke-miterlimit:10;stroke-width:0.5px"/><path d="M473.0349,80.171c.2742,2.0136,3.2323,2.61,7.15,2.415-.1917,3.6854.967,6.5457,3.631,8.4866-2.8459,2.7467-4.888,5.1461-3.5187,6.0715" style="fill:none;stroke:#12171d;stroke-miterlimit:10;stroke-width:0.5px"/><path d="M469.7857,85.2605c2.079-1.0435,4.9945.5615,6.512,3.5848s1.0624,6.32-1.0166,7.3637" style="fill:none;stroke:#12171d;stroke-miterlimit:10;stroke-width:0.5px"/></g><path d="M469.68,85.3539c-.2179-3.4272.9554-6.397,3.3964-7.7255,3.9056-2.1256,9.5775.7556,12.6686,6.4353s2.4308,12.0071-1.4748,14.1326c-2.6561,1.4456-6.1293.5755-9.052-1.9158" style="fill:none;stroke:#000001;stroke-miterlimit:10"/><g style="clip-path:url(#b4496ce3-ea91-4d24-9ae4-00fdb16e524b)"><path d="M463.6036,39.43c.5059-.3792.1015-.3052.7274-.7255l2.5214-4.3609.0053-.0064,11.3609-5.4164a2.8487,2.8487,0,0,1,2.1911-.153l2.2133.7473c2.2025-.5846,4.9881,1.14,6.5065,4.1541,1.2131,2.4189,1.2737,4.9964.32,6.6576a.759.759,0,0,1-.05.0933.9588.9588,0,0,1-.0547.1056l-2.3762,4.0932a2.8329,2.8329,0,0,1-1.1889,1.1236L474.1205,51.312l-.0058.0006-.0063-.0053-3.8234-1.2935c-.64.2153-.3288-.0325-1.1871.3631-2.112.9711-4.9912-.5612-6.51-3.5816C461.0682,43.7691,461.7448,40.8253,463.6036,39.43Z" style="fill:#f2a900"/><path d="M472.1551,49.4869c2.275-1.1419,2.7731-4.75,1.1125-8.058s-4.851-5.0647-7.126-3.9228c0,0-1.2618.966-2.5371,1.9226-1.8608,1.3959-2.5341,4.34-1.0166,7.3637s4.2545,4.1459,6.512,3.5848C470.869,49.9375,472.1551,49.4869,472.1551,49.4869Z" style="fill:none;stroke:#12171d;stroke-miterlimit:10"/><path d="M482.623,29.5155c2.2025-.5846,4.9881,1.14,6.5065,4.1541,1.2131,2.4189,1.2737,4.9964.32,6.6576a.7654.7654,0,0,1-.05.0933" style="fill:none;stroke:#12171d;stroke-miterlimit:10"/><path d="M464.1435,39.0234l2.712-4.6848,11.3631-5.4174a2.8483,2.8483,0,0,1,2.1911-.153l4.8106,1.6226a2.8733,2.8733,0,0,1,1.71,1.5805l2.5684,6.0036a2.8653,2.8653,0,0,1-.1543,2.5512l-2.3762,4.0932a2.8329,2.8329,0,0,1-1.1889,1.1236l-11.6609,5.57-3.8356-1.2982" style="fill:none;stroke:#12171d;stroke-miterlimit:10"/><line x1="485.9264" y1="31.1216" x2="474.2077" y2="36.7198" style="fill:none;stroke:#12171d;stroke-miterlimit:10;stroke-width:0.5px"/><line x1="489.6387" y1="39.3135" x2="477.2124" y2="45.2669" style="fill:none;stroke:#12171d;stroke-miterlimit:10;stroke-width:0.5px"/><path d="M466.8537,34.3392c.2742,2.0137,3.2323,2.61,7.15,2.4151-.1918,3.6853.9669,6.5456,3.631,8.4865-2.846,2.7467-4.8881,5.1461-3.5188,6.0715" style="fill:none;stroke:#12171d;stroke-miterlimit:10;stroke-width:0.5px"/><path d="M463.6045,39.4287c2.079-1.0435,4.9945.5615,6.512,3.5848s1.0624,6.32-1.0166,7.3637" style="fill:none;stroke:#12171d;stroke-miterlimit:10;stroke-width:0.5px"/></g><path d="M463.4984,39.5221c-.218-3.4272.9553-6.397,3.3963-7.7255,3.9056-2.1256,9.5776.7556,12.6687,6.4353s2.4308,12.0071-1.4748,14.1327c-2.6561,1.4456-6.1293.5754-9.052-1.9159" style="fill:none;stroke:#000001;stroke-miterlimit:10"/><g style="clip-path:url(#bc91c0fd-ea1b-4c89-bc14-b7eeda889391)"><path d="M497.2117,25.1762c.5059-.3792.1015-.3052.7274-.7256l2.5214-4.3608.0053-.0064,11.3609-5.4165a2.8492,2.8492,0,0,1,2.1911-.153l2.2134.7474c2.2024-.5847,4.988,1.14,6.5064,4.154,1.2131,2.4189,1.2737,4.9965.32,6.6577a.76.76,0,0,1-.05.0933.95.95,0,0,1-.0547.1056l-2.3762,4.0931a2.8317,2.8317,0,0,1-1.1889,1.1236l-11.6588,5.5692-.0059.0005-.0063-.0053L503.8932,35.76c-.64.2152-.3289-.0326-1.1872.3631-2.112.971-4.9911-.5612-6.51-3.5816C494.6764,29.5148,495.3529,26.5711,497.2117,25.1762Z" style="fill:#f2a900"/><path d="M505.7633,35.2327c2.275-1.1419,2.7731-4.75,1.1125-8.058s-4.8511-5.0647-7.1261-3.9228c0,0-1.2618.966-2.537,1.9226-1.8609,1.3959-2.5342,4.34-1.0167,7.3637s4.2546,4.1459,6.512,3.5848C504.4771,35.6833,505.7633,35.2327,505.7633,35.2327Z" style="fill:none;stroke:#12171d;stroke-miterlimit:10"/><path d="M516.2312,15.2613c2.2024-.5847,4.988,1.14,6.5065,4.154,1.213,2.4189,1.2736,4.9965.32,6.6577a.774.774,0,0,1-.05.0933" style="fill:none;stroke:#12171d;stroke-miterlimit:10"/><path d="M497.7516,24.7691l2.7121-4.6847,11.363-5.4175a2.8487,2.8487,0,0,1,2.1911-.1529l4.8107,1.6226a2.8732,2.8732,0,0,1,1.71,1.58l2.5684,6.0037a2.8647,2.8647,0,0,1-.1543,2.5512l-2.3762,4.0931a2.8323,2.8323,0,0,1-1.1889,1.1236l-11.6609,5.57-3.8355-1.2982" style="fill:none;stroke:#12171d;stroke-miterlimit:10"/><line x1="519.5345" y1="16.8673" x2="507.8158" y2="22.4656" style="fill:none;stroke:#12171d;stroke-miterlimit:10;stroke-width:0.5px"/><line x1="523.2468" y1="25.0593" x2="510.8205" y2="31.0127" style="fill:none;stroke:#12171d;stroke-miterlimit:10;stroke-width:0.5px"/><path d="M500.4619,20.085c.2742,2.0136,3.2323,2.61,7.15,2.415-.1918,3.6854.967,6.5457,3.631,8.4866-2.846,2.7467-4.8881,5.146-3.5188,6.0715" style="fill:none;stroke:#12171d;stroke-miterlimit:10;stroke-width:0.5px"/><path d="M497.2127,25.1745c2.0789-1.0435,4.9945.5615,6.512,3.5848s1.0623,6.32-1.0167,7.3637" style="fill:none;stroke:#12171d;stroke-miterlimit:10;stroke-width:0.5px"/></g><path d="M497.1065,25.2679c-.218-3.4272.9553-6.3971,3.3963-7.7255,3.9056-2.1256,9.5776.7556,12.6687,6.4352s2.4308,12.0072-1.4748,14.1327c-2.6562,1.4456-6.1293.5755-9.052-1.9158" style="fill:none;stroke:#000001;stroke-miterlimit:10"/><g style="clip-path:url(#fab64957-14e0-4fcd-bb24-6750bc5c334c)"><path d="M527.6815,69.0654c.5059-.3792.1015-.3052.7274-.7255L530.93,63.979l.0053-.0064,11.3608-5.4164a2.8485,2.8485,0,0,1,2.1912-.153l2.2133.7473c2.2025-.5847,4.9881,1.1395,6.5065,4.154,1.2131,2.419,1.2737,4.9965.32,6.6577a.759.759,0,0,1-.05.0933.9588.9588,0,0,1-.0547.1056l-2.3762,4.0932a2.8329,2.8329,0,0,1-1.1889,1.1236L538.1984,80.947l-.0058.0005-.0063-.0052-3.8234-1.2935c-.64.2152-.3288-.0325-1.1871.3631-2.112.9711-4.9912-.5612-6.51-3.5816C525.1461,73.404,525.8227,70.46,527.6815,69.0654Z" style="fill:#f2a900"/><path d="M536.233,79.1219c2.275-1.1419,2.7731-4.75,1.1125-8.058s-4.851-5.0647-7.126-3.9228c0,0-1.2618.966-2.5371,1.9226-1.8608,1.3959-2.5341,4.34-1.0166,7.3637s4.2545,4.1459,6.512,3.5848C534.9469,79.5725,536.233,79.1219,536.233,79.1219Z" style="fill:none;stroke:#12171d;stroke-miterlimit:10"/><path d="M546.7009,59.1505c2.2025-.5847,4.9881,1.1395,6.5065,4.1541,1.2131,2.4188,1.2737,4.9964.32,6.6576a.7729.7729,0,0,1-.05.0933" style="fill:none;stroke:#12171d;stroke-miterlimit:10"/><path d="M528.2214,68.6584l2.712-4.6848,11.3631-5.4175a2.8487,2.8487,0,0,1,2.1911-.1529l4.8106,1.6226a2.8736,2.8736,0,0,1,1.71,1.5805l2.5684,6.0036a2.8653,2.8653,0,0,1-.1543,2.5512l-2.3762,4.0932a2.8329,2.8329,0,0,1-1.1889,1.1236l-11.6609,5.57L534.3608,79.65" style="fill:none;stroke:#12171d;stroke-miterlimit:10"/><line x1="550.0043" y1="60.7566" x2="538.2856" y2="66.3548" style="fill:none;stroke:#12171d;stroke-miterlimit:10;stroke-width:0.5px"/><line x1="553.7166" y1="68.9485" x2="541.2903" y2="74.9019" style="fill:none;stroke:#12171d;stroke-miterlimit:10;stroke-width:0.5px"/><path d="M530.9316,63.9742c.2742,2.0136,3.2323,2.61,7.15,2.415-.1918,3.6854.9669,6.5457,3.631,8.4866-2.846,2.7467-4.8881,5.1461-3.5188,6.0715" style="fill:none;stroke:#12171d;stroke-miterlimit:10;stroke-width:0.5px"/><path d="M527.6824,69.0637c2.079-1.0435,4.9945.5615,6.512,3.5848s1.0624,6.32-1.0166,7.3637" style="fill:none;stroke:#12171d;stroke-miterlimit:10;stroke-width:0.5px"/></g><path d="M527.5763,69.1571c-.218-3.4272.9553-6.3971,3.3963-7.7255,3.9056-2.1256,9.5776.7556,12.6687,6.4353S546.0721,79.874,542.1665,82c-2.6562,1.4456-6.1293.5755-9.052-1.9158" style="fill:none;stroke:#000001;stroke-miterlimit:10"/><g style="clip-path:url(#ec49d08d-c9a1-4473-aa63-6abc9f072120)"><path d="M506.56,105.46c.5059-.3793.1016-.3053.7275-.7256l2.5214-4.3609.0052-.0064,11.3609-5.4164a2.849,2.849,0,0,1,2.1912-.153l2.2133.7473c2.2024-.5846,4.9881,1.1395,6.5065,4.1541,1.2131,2.4189,1.2737,4.9964.32,6.6576a.759.759,0,0,1-.05.0933.9588.9588,0,0,1-.0547.1056l-2.3762,4.0932a2.8329,2.8329,0,0,1-1.1889,1.1236l-11.6589,5.5691-.0058.0006-.0064-.0053-3.8233-1.2935c-.64.2153-.3288-.0325-1.1871.3631-2.112.9711-4.9912-.5612-6.51-3.5816C504.0247,109.7985,504.7013,106.8547,506.56,105.46Z" style="fill:#f2a900"/><path d="M515.1116,115.5163c2.275-1.1419,2.7731-4.75,1.1125-8.058s-4.851-5.0647-7.126-3.9228c0,0-1.2618.966-2.5371,1.9227-1.8608,1.3958-2.5341,4.34-1.0166,7.3636s4.2545,4.1459,6.512,3.5848C513.8255,115.9669,515.1116,115.5163,515.1116,115.5163Z" style="fill:none;stroke:#12171d;stroke-miterlimit:10"/><path d="M525.58,95.5449c2.2025-.5846,4.9881,1.1395,6.5065,4.1541,1.2131,2.4188,1.2737,4.9964.32,6.6576a.7729.7729,0,0,1-.05.0933" style="fill:none;stroke:#12171d;stroke-miterlimit:10"/><path d="M507.1,105.0528l2.712-4.6848,11.363-5.4174a2.8485,2.8485,0,0,1,2.1912-.153l4.8106,1.6226a2.8731,2.8731,0,0,1,1.71,1.5805l2.5685,6.0036a2.8653,2.8653,0,0,1-.1543,2.5512l-2.3762,4.0932a2.8326,2.8326,0,0,1-1.189,1.1236l-11.6608,5.57-3.8356-1.2982" style="fill:none;stroke:#12171d;stroke-miterlimit:10"/><line x1="528.8829" y1="97.151" x2="517.1641" y2="102.7492" style="fill:none;stroke:#12171d;stroke-miterlimit:10;stroke-width:0.5px"/><line x1="532.5952" y1="105.3429" x2="520.1689" y2="111.2963" style="fill:none;stroke:#12171d;stroke-miterlimit:10;stroke-width:0.5px"/><path d="M509.81,100.3686c.2742,2.0137,3.2323,2.61,7.15,2.4151-.1918,3.6853.9669,6.5456,3.631,8.4865-2.846,2.7467-4.8881,5.1461-3.5188,6.0715" style="fill:none;stroke:#12171d;stroke-miterlimit:10;stroke-width:0.5px"/><path d="M506.561,105.4582c2.079-1.0436,4.9945.5614,6.512,3.5848s1.0624,6.32-1.0166,7.3636" style="fill:none;stroke:#12171d;stroke-miterlimit:10;stroke-width:0.5px"/></g><path d="M506.4549,105.5515c-.218-3.4272.9553-6.397,3.3963-7.7255,3.9056-2.1256,9.5776.7556,12.6687,6.4353s2.4308,12.0071-1.4748,14.1327c-2.6562,1.4456-6.1293.5754-9.052-1.9159" style="fill:none;stroke:#000001;stroke-miterlimit:10"/><path d="M450.917,257.59c-.0513,2.4-.8718,15.8238-.8718,15.8238l.2564,13.5986,6.2045-3.0972s1.7331-11.6192,2.451-17.5467v-.0206c.1231-1.0357.2155-1.8972.2667-2.492.3178-3.9893.3794-6.01.3794-6.01,3.0355-1.7126,4.2354-9.4964.9025-14.9419l-.01-.01a1.3251,1.3251,0,0,0,.2769-.7281c.082-1.005,5.12-66.9289,6.4946-85.8295,1.2306-17.0544,10.686-22.4795,13.7933-24.2639,3.0356-1.7332,14.8087-8.2042,18.5417-10.2553l4.02,1.1178a4.3271,4.3271,0,0,0,3.3534-.2563l5.3738-2.9946a5.036,5.036,0,0,0,3.7843-.3487l3.3739-1.8767c3.21-1.7844,3.5585-7.2608.79-12.2243-2.7688-4.9738-7.599-7.5581-10.7988-5.7737l-3.3739,1.8767a5.0267,5.0267,0,0,0-2.2972,3.0356l-5.3738,2.9945a4.29,4.29,0,0,0-1.9792,2.6767l-.9332,3.2c0,.01-.2974,1.005-.2974,1.005-3.9279,2.1638-15.424,8.4811-18.5211,10.2655-11.0039,6.3071-17.1058,16.8085-18.1518,31.1863-1.3743,18.88-6.4024,84.7732-6.4845,85.7782a1.3216,1.3216,0,0,0,.0719.5333h-.01c-2.8,2.2869-3.3638,7.794-.9024,13.3626C451.2452,255.3747,450.9683,255.18,450.917,257.59Zm3.7739-10.3681,2.5843,1.7229-.123,2.8509-2.5945-1.7434Z" style="fill:none;stroke:#000001;stroke-miterlimit:10;stroke-width:3px"/><path d="M450.917,257.59c-.0513,2.4-.8718,15.8238-.8718,15.8238l.2564,13.5986,6.2045-3.0972s1.7331-11.6192,2.451-17.5467v-.0206c.1231-1.0357.2155-1.8972.2667-2.492.3178-3.9893.3794-6.01.3794-6.01,3.0355-1.7126,4.2354-9.4964.9025-14.9419l-.01-.01a1.3251,1.3251,0,0,0,.2769-.7281c.082-1.005,5.12-66.9289,6.4946-85.8295,1.2306-17.0544,10.686-22.4795,13.7933-24.2639,3.0356-1.7332,14.8087-8.2042,18.5417-10.2553l4.02,1.1178a4.3271,4.3271,0,0,0,3.3534-.2563l5.3738-2.9946a5.036,5.036,0,0,0,3.7843-.3487l3.3739-1.8767c3.21-1.7844,3.5585-7.2608.79-12.2243-2.7688-4.9738-7.599-7.5581-10.7988-5.7737l-3.3739,1.8767a5.0267,5.0267,0,0,0-2.2972,3.0356l-5.3738,2.9945a4.29,4.29,0,0,0-1.9792,2.6767l-.9332,3.2c0,.01-.2974,1.005-.2974,1.005-3.9279,2.1638-15.424,8.4811-18.5211,10.2655-11.0039,6.3071-17.1058,16.8085-18.1518,31.1863-1.3743,18.88-6.4024,84.7732-6.4845,85.7782a1.3216,1.3216,0,0,0,.0719.5333h-.01c-2.8,2.2869-3.3638,7.794-.9024,13.3626C451.2452,255.3747,450.9683,255.18,450.917,257.59Zm3.7739-10.3681,2.5843,1.7229-.123,2.8509-2.5945-1.7434Z" style="fill:#d3d5d6"/><line x1="503.6219" y1="122.935" x2="503.7142" y2="122.9658" style="fill:none;stroke:#000001;stroke-miterlimit:10;stroke-width:0.5px"/><path d="M499.6018,121.8172l4.02,1.1178a4.327,4.327,0,0,0,3.3535-.2564l7.5479-4.2046c2.7279-1.5178,3.0253-6.1737.6666-10.3989-2.3485-4.2354-6.4609-6.43-9.1888-4.9123l-7.5479,4.2047a4.29,4.29,0,0,0-1.9792,2.6766l-.9289,3.2005c0,.01-.3018,1.0042-.3018,1.0042" style="fill:none;stroke:#000001;stroke-miterlimit:10"/><path d="M506.9754,122.6786c2.7176-1.5177,3.0253-6.1736.6666-10.3988-2.3485-4.2354-6.4711-6.43-9.1888-4.9123" style="fill:none;stroke:#000001;stroke-miterlimit:10;stroke-width:0.5px"/><path d="M506.12,101.337c3.2013-1.7821,8.0391.8015,10.8055,5.7708s2.4137,10.4425-.7877,12.2247" style="fill:none;stroke:#000001;stroke-miterlimit:10;stroke-width:0.5px"/><path d="M460.7762,242.1674c.08-1.0025,5.1157-66.9256,6.4887-85.8308,1.2369-17.0594,10.69-22.4835,13.7966-24.2661,3.5994-2.0641,19.5211-10.8,19.6813-10.8872,3.4286-1.8806-.7636-9.5239-4.1922-7.6434-.658.3615-16.1551,8.8632-19.8266,10.9693-11.0024,6.3134-17.11,16.809-18.154,31.1965-1.37,18.8761-6.4036,84.7692-6.4828,85.7707C451.8513,244.444,460.54,245.135,460.7762,242.1674Z" style="fill:none;stroke:#000001;stroke-miterlimit:10"/><path d="M452.1479,242.0172c-2.7966,2.283-3.3661,7.7885-.8982,13.3572,0,0-.2853-.19-.3325,2.2149s-.87,15.82-.87,15.82l.2531,13.6054,6.2015-3.1007s2.4047-16.0734,2.7211-20.06.38-6.0117.38-6.0117c3.0375-1.7086,4.24-9.4922.9013-14.94" style="fill:none;stroke:#000001;stroke-miterlimit:10"/><path d="M456.3525,259.0177c3.0375-1.7086,4.24-9.4922.9013-14.94" style="fill:none;stroke:#000001;stroke-miterlimit:10;stroke-width:0.5px"/><path d="M459.6028,257.8424c-2.7211,2.2148-8.3531,1.8036-8.3531-2.468" style="fill:none;stroke:#000001;stroke-miterlimit:10"/><path d="M458.955,266.3681c-.2545-2.2-1.16-3.73-2.8577,1.3842s-5.7968,19.2626-5.7968,19.2626" style="fill:none;stroke:#000001;stroke-miterlimit:10;stroke-width:0.5px"/><path d="M457.0339,258.5029c-1.1879-2.1493-4.9514-3.7435-5.7842-2.4814" style="fill:none;stroke:#000001;stroke-miterlimit:10;stroke-width:0.5px"/><polygon points="457.274 248.947 457.034 254.726 452.083 251.405 452.359 245.659 457.274 248.947" style="fill:none;stroke:#000001;stroke-miterlimit:10;stroke-width:0.5px"/><polyline points="454.691 247.222 454.558 250.052 457.152 251.796" style="fill:none;stroke:#000001;stroke-miterlimit:10;stroke-width:0.5px"/><line x1="454.5576" y1="250.0522" x2="452.0825" y2="251.4048" style="fill:none;stroke:#000001;stroke-miterlimit:10;stroke-width:0.5px"/><g style="clip-path:url(#f3e84509-19f3-43f3-a321-e7b937b1433a)"><path d="M448.1731,103.03c15.1142-6.872,35.1124,4.593,44.667,25.6076s5.0476,43.6212-10.0668,50.4931-35.1123-4.593-44.667-25.6076a54.4826,54.4826,0,0,1-5-21.07" style="fill:none;stroke:#f2a900;stroke-miterlimit:10;stroke-width:5px"/><polygon points="439.605 134.769 433.854 123.151 426.667 133.94 439.605 134.769" style="fill:#f2a900"/></g><polyline points="593.841 139.335 590.39 139.828 585.707 133.728 585.707 126.765 621.261 106.123 626.129 106.123 630.812 112.038 630.812 118.693 603.761 134.283" style="fill:none;stroke:#000001;stroke-miterlimit:10;stroke-width:1.5px"/><path d="M592.3421,145.1847a6.3518,6.3518,0,0,1-6.635-.6745c-2.791-1.8973-4.02-3.6266-3.9212-5.65" style="fill:none;stroke:#000001;stroke-miterlimit:10;stroke-width:0.5px"/><path d="M592.3422,144.0494a5.4554,5.4554,0,0,1-6.17-.3462c-2.4659-1.6764-3.557-3.2045-3.4644-4.9924a9.4985,9.4985,0,0,1,.6214-2.26v-5.06a9.6673,9.6673,0,0,1,3.9024-7.3418c1.6343-1.102,2.7784-1.2626,3.7372-.8977" style="fill:none;stroke:#000001;stroke-miterlimit:10;stroke-width:0.5px"/><path d="M602.618,130.1592a2.9254,2.9254,0,0,0-3.3383-.0059,9.8864,9.8864,0,0,0-4.5287,7.8529v3.71a4.9754,4.9754,0,0,1-2.4089,3.4688v31.6736s.0248,2.2429,1.4832,3.1053" style="fill:none;stroke:#000001;stroke-miterlimit:10;stroke-width:0.5px"/><polyline points="585.707 126.765 590.776 126.358 595.541 132.55" style="fill:none;stroke:#000001;stroke-miterlimit:10;stroke-width:0.5px"/><polyline points="594.429 134.867 594.429 132.55 590.624 127.744 586.9 127.961 586.9 133.289 590.665 138.118 593.983 137.728" style="fill:none;stroke:#000001;stroke-miterlimit:10;stroke-width:0.5px"/><path d="M590.99,128.2064c-.0039-.005-2.7687,1.747-2.7687,1.747l6.2083,3.9682" style="fill:none;stroke:#000001;stroke-miterlimit:10;stroke-width:0.5px"/><line x1="586.8998" y1="133.2887" x2="589.9584" y2="131.064" style="fill:none;stroke:#000001;stroke-miterlimit:10;stroke-width:0.5px"/><line x1="590.7764" y1="126.3583" x2="626.1289" y2="106.1231" style="fill:none;stroke:#000001;stroke-miterlimit:10;stroke-width:0.5px"/><line x1="630.8119" y1="112.0385" x2="601.3593" y2="129.302" style="fill:none;stroke:#000001;stroke-miterlimit:10;stroke-width:0.5px"/><path d="M592.3421,139.55v4.5l0,0a4.7194,4.7194,0,0,0,1.64-2.9086v-3.71a9.8864,9.8864,0,0,1,4.5287-7.8529,2.9254,2.9254,0,0,1,3.3383.0059l.7683.5751a3.2058,3.2058,0,0,1,1.2868,2.5475v36.1814c0,3.3243-1.2526,4.5287-2.0716,6.8413a18.1084,18.1084,0,0,0-.8672,4.9623s-.7227,74.82-.7227,76.1689a10.5019,10.5019,0,0,1-1.1081,3.517s-1.9753,3.0352-2.6016,4.2878a7.1288,7.1288,0,0,1-2.2162,2.2644l2.2162,1.5417-.6263,1.06-4.1915-2.4089-4.77-3.71-.9153-87.0089s-1.4454-.9154-2.7462-1.8308a4.0317,4.0317,0,0,1-1.5416-3.4206V139.8284a9.34,9.34,0,0,1,.6263-3.5566v-5.444a9.667,9.667,0,0,1,3.9024-7.3418c2.457-1.6568,3.806-1.1857,5.0835,0" style="fill:none;stroke:#000001;stroke-linecap:round;stroke-linejoin:round;stroke-width:1.5px"/><path d="M586.0309,176.4039s4.1982,2.4633,5.2942,3.0158a5.86,5.86,0,0,0,5.5156-.3013c2.31-1.3059,4.7791-2.7145,4.7791-2.7145" style="fill:none;stroke:#000001;stroke-linecap:round;stroke-linejoin:round"/><line x1="593.8253" y1="181.0282" x2="592.8239" y2="266.6061" style="fill:none;stroke:#000001;stroke-miterlimit:10;stroke-width:0.5px"/><polyline points="586.946 263.413 593.325 266.909 594.317 266.93" style="fill:none;stroke:#000001;stroke-miterlimit:10;stroke-width:0.5px"/><ellipse cx="586.4247" cy="152.2295" rx="1.3746" ry="2.5709" transform="translate(-0.1044 304.0562) rotate(-29.065)" style="fill:none;stroke:#000001;stroke-miterlimit:10;stroke-width:0.5px"/><ellipse cx="599.2332" cy="165.2254" rx="1.9681" ry="1.1246" transform="translate(166.6835 611.6339) rotate(-61.3183)" style="fill:none;stroke:#000001;stroke-miterlimit:10;stroke-width:0.5px"/><ellipse cx="599.5464" cy="135.333" rx="2.6122" ry="1.4927" transform="translate(193.0709 596.3629) rotate(-61.3183)" style="fill:none;stroke:#000001;stroke-miterlimit:10;stroke-width:0.5px"/></g></svg>