<?xml version="1.0" encoding="UTF-8"?><svg xmlns="http://www.w3.org/2000/svg" width="325" height="252.666" viewBox="0 0 325 252.666"><g id="uuid-353dda76-f023-4e4d-9d98-29e5bf8106bf"><path d="m312.214,173.028c0,40.913-68.207,74.079-152.346,74.079S7.523,213.941,7.523,173.028v-6.558c0-40.913,68.207-74.079,152.346-74.079s152.346,33.166,152.346,74.079v6.558Z" style="fill:none; stroke:#000001; stroke-miterlimit:10;"/><path d="m312.214,166.47c0,40.913-68.207,74.079-152.346,74.079S7.523,207.383,7.523,166.47" style="fill:none; stroke:#000001; stroke-miterlimit:10; stroke-width:.5px;"/><path d="m99.756,95.704l-10.082-3.306-11.878-9.654-.02-.02-.898-15.389c0-3.653-6.041-6.633-13.511-6.633s-13.491,2.98-13.491,6.633l-1.143,17.307s0,.02-.041.041c-1,.898-17.103,15.185-21.287,17.899-.633.408-1.163.816-1.612,1.245-.02,0-.02.02-.041.02-.674.633-1.184,1.245-1.551,1.837-1.102,1.714-1.061,3.082-1.061,3.082,0,0-1.408,21.328-1.776,25.41-.041.51-.02.98.061,1.368.51,2.796,3.531,3.102,3.531,3.102v-3.306l3.817-2.245,15.899,5.551c.286-2.021,1.184-3.898,3.306-5.551.449-.367.98-.714,1.551-1.061l5.776-3.572c2.449-1.857,5.735-2.184,7.939-1.306.163.061.367.143.633.245l39.819-25.94c0-1.49-.592-2.694-1.327-3.592-1.143-1.449-2.612-2.163-2.612-2.163Z" style="fill:none; stroke:#000001; stroke-linecap:round; stroke-linejoin:round; stroke-width:1.5px;"/><path d="m99.756,95.704l-10.082-3.306-11.878-9.654-.02-.02-.898-15.389c0-3.653-6.041-6.633-13.511-6.633s-13.491,2.98-13.491,6.633l-1.143,17.307s0,.02-.041.041c-1,.898-17.103,15.185-21.287,17.899-.633.408-1.163.816-1.612,1.245-.02,0-.02.02-.041.02-.674.633-1.184,1.245-1.551,1.837-1.102,1.714-1.061,3.082-1.061,3.082,0,0-1.408,21.328-1.776,25.41-.041.51-.02.98.061,1.368.51,2.796,3.531,3.102,3.531,3.102v-3.306l3.817-2.245,15.899,5.551c.286-2.021,1.184-3.898,3.306-5.551.449-.367.98-.714,1.551-1.061l5.776-3.572c2.449-1.857,5.735-2.184,7.939-1.306.163.061.367.143.633.245l39.819-25.94c0-1.49-.592-2.694-1.327-3.592-1.143-1.449-2.612-2.163-2.612-2.163Z" style="fill:#d3d5d6; stroke-width:0px;"/><path d="m92.246,202.078l-4-2.021c-1.47-.694-3.286-.327-5.062.837l-5.715-2.98c-.51-.245-1.082-.327-1.673-.245v-.041h-6.021l-17.47-8.082-.204-.326-5.837,3.735c-.837.469-1.878.837-3.021,1.061.265.531.673.939.673.939l3.245,1.572,5.143,2.49,13.307,6.429,2.837,6.102c.327.939.898,1.633,1.674,2l5.98,2.939c.327,1.898,1.163,3.368,2.551,4.021l3.98,2c.122.061.265.122.388.163,3.143,1.061,7.592-2.266,10.143-7.694.51-1.082.918-2.184,1.204-3.245.449-1.674.612-3.265.531-4.674-.163-2.388-1.061-4.245-2.653-4.98Z" style="fill:none; stroke:#000001; stroke-linecap:round; stroke-linejoin:round; stroke-width:1.5px;"/><path d="m92.246,202.078l-4-2.021c-1.47-.694-3.286-.327-5.062.837l-5.715-2.98c-.51-.245-1.082-.327-1.673-.245v-.041h-6.021l-17.47-8.082-.204-.326-5.837,3.735c-.837.469-1.878.837-3.021,1.061.265.531.673.939.673.939l3.245,1.572,5.143,2.49,13.307,6.429,2.837,6.102c.327.939.898,1.633,1.674,2l5.98,2.939c.327,1.898,1.163,3.368,2.551,4.021l3.98,2c.122.061.265.122.388.163,3.143,1.061,7.592-2.266,10.143-7.694.51-1.082.918-2.184,1.204-3.245.449-1.674.612-3.265.531-4.674-.163-2.388-1.061-4.245-2.653-4.98Z" style="fill:#d3d5d6; stroke-width:0px;"/><path d="m43.753,173.953c1.306-1.163,1.755-1.735,1.755-1.735l1.163-6.123s.755-3.531,3.021-6.082c1.714-1.898,2.796-4,5.735-6.327,0,0,.02-.02.061-.041.041-.041.143-.122.286-.204.898-.694,1.939-1.388,3.225-2.102l15.307-12.695c-8.49-2.959-16.715-5.837-18.613-6.613l-9.205,7.184s-.245.204-.653.531v.02c-.653.531-1.755,1.368-2.878,2.061-1.02.633-2.061,1.163-2.857,1.265-1.571.204-5.102,1.796-7.633,5.572-.265.388-.51.796-.755,1.245l-9.429,6.327s-3,2.286-4.327,6.225v.02c-.204.551-.367,1.143-.469,1.755-.796,4.531-1.755,12.246-1.061,16.185.061.408.163.755.265,1.082,1.163,3.408,1.674,4.551,3.123,5.511,1.449.959,11.899,5.735,11.899,5.735,0,0,.51.755,2-.306-1.041-.776-1.653-1.714-1.653-2.755v-7.286c0-1.225.857-2.347,2.266-3.163l3.021-1.592,1.816-.939,3.796,1.347s-.51-2.939.796-4.102Z" style="fill:none; stroke:#000001; stroke-linecap:round; stroke-linejoin:round; stroke-width:1.5px;"/><path d="m43.753,173.953c1.306-1.163,1.755-1.735,1.755-1.735l1.163-6.123s.755-3.531,3.021-6.082c1.714-1.898,2.796-4,5.735-6.327,0,0,.02-.02.061-.041.041-.041.143-.122.286-.204.898-.694,1.939-1.388,3.225-2.102l15.307-12.695c-8.49-2.959-16.715-5.837-18.613-6.613l-9.205,7.184s-.245.204-.653.531v.02c-.653.531-1.755,1.368-2.878,2.061-1.02.633-2.061,1.163-2.857,1.265-1.571.204-5.102,1.796-7.633,5.572-.265.388-.51.796-.755,1.245l-9.429,6.327s-3,2.286-4.327,6.225v.02c-.204.551-.367,1.143-.469,1.755-.796,4.531-1.755,12.246-1.061,16.185.061.408.163.755.265,1.082,1.163,3.408,1.674,4.551,3.123,5.511,1.449.959,11.899,5.735,11.899,5.735,0,0,.51.755,2-.306-1.041-.776-1.653-1.714-1.653-2.755v-7.286c0-1.225.857-2.347,2.266-3.163l3.021-1.592,1.816-.939,3.796,1.347s-.51-2.939.796-4.102Z" style="fill:#d3d5d6; stroke-width:0px;"/><path d="m103.695,101.459l-39.819,25.94c2.47.939,9.001,3.225,16.021,5.694h.02c.735-.551,19.838-16.695,30.492-25.716v-6.653s-.204-1.776,1.082-3.653c0,0,.082-.163.265-.347.143-.224.347-.429.551-.633-.163.02-.326.041-.49.082l-8.123,5.286Z" style="fill:none; stroke:#000001; stroke-linecap:round; stroke-linejoin:round; stroke-width:1.5px;"/><path d="m103.695,101.459l-39.819,25.94c2.47.939,9.001,3.225,16.021,5.694h.02c.735-.551,19.838-16.695,30.492-25.716v-6.653s-.204-1.776,1.082-3.653c0,0,.082-.163.265-.347.143-.224.347-.429.551-.633-.163.02-.326.041-.49.082l-8.123,5.286Z" style="fill:#d3d5d6; stroke-width:0px;"/><path d="m47.161,196.517c-5.417,2.547-8.31,5.815-1.752,10.546,6.558,4.732,31.731,19.681,72.335,25.661,7.041.964,12.345,0,15.914-2.315s6.173-7.234-3.569-10.706c-9.741-3.472-35.174-12.64-35.174-12.64" style="fill:none; stroke:#000001; stroke-miterlimit:10; stroke-width:.5px;"/><path d="m136.031,228.164c-.959-1.279-2.814-2.543-5.941-3.657-9.741-3.472-35.174-12.64-35.174-12.64" style="fill:none; stroke:#000001; stroke-miterlimit:10; stroke-width:.5px;"/><path d="m43.616,205.581c-1.049-1.17.739-4.794,8.693-6.572" style="fill:none; stroke:#000001; stroke-miterlimit:10; stroke-width:.5px;"/><path d="m234.357,70.763c.02,0,0-.02,0-.02.306-.572.51-1.306.653-1.98.286-1.367-.224-2.021-2.817-.224-1.796-1.429-5.551-2.143-7.123-1.082-.286-.122-.592-.204-.918-.245-1.796-4.102-5.878-6.98-10.654-6.98-1.612,0-3.163.326-4.551.939l-.02-.041c.347-1.306-.082-2.674-2.021-1.449-3.286-1.082-6.164-1.082-8.49-.592-.694-3.163-3.102-4.633-3.102-4.633,0,0-4.368-1.959-8.143-3.715-3.796-1.755-8.021.367-8.021.367l-23.45,15.45c-5.49-1.755-8.858.306-8.858.306,0,0-3.551,2.204-7.613,5-.688.474-1.216,1.068-1.678,1.697-.172.215-.331.427-.465.63-.184.265-.306.49-.429.714-1.449,2.857-1.388,6.041-1.388,6.041-.408.265-.816.531-1.225.796-.02,0-.041,0-.061.02-2.98,1.939-6.123,3.98-9.001,5.858-.082.041-.163.082-.224.143-2.184,1.408-4.245,2.735-5.98,3.898-.061.02-.082.041-.082.041-.694.449-1.347.878-1.939,1.245-.878.571-1.633,1.061-2.204,1.449-.408.265-.735.49-.959.633-.51.327-.939.694-1.286,1.061-.204.204-.408.408-.551.633-.184.184-.265.347-.265.347-1.286,1.878-1.082,3.653-1.082,3.653v6.653c-10.654,9.021-29.757,25.165-30.492,25.716,9.388,3.286,19.654,6.858,22.369,7.939.633.245,1.245.531,1.816.837,3.245,1.776,5.755,4.653,6.572,8.878.184.796.286,1.653.306,2.572.02.224.02.449.02.694v15.225l35.635-15.919,13.225-8.102v-14.123c0-3.857,2.061-4.368,2.061-4.368,0,0,1.755-1.163,4.47-3,7.307-4.878,21.593-14.45,27.634-18.409,1.061-.694,1.857-1.225,2.327-1.51,2.204-1.367,4.164-2.041,5.858-2.265,1.49-.184,2.776-.02,3.817.327.204.061.51.184.939.326h.02c.306-.265,3.102-2.612,6.204-5.123,3-2.449,6.266-5.062,7.694-6.041,2.959-2,7.858-8.429,9.286-11.246.143-.102.265-.225.388-.347.061-.061.143-.122.225-.204.653-.674,1.061-1.388,1.306-1.939.061-.082.082-.163.102-.224.041-.143.102-.265.123-.367.041-.102.082-.224.102-.327l1.143-.551c2.265-1.061,1.837-4.184.796-5.062Z" style="fill:none; stroke:#000001; stroke-linecap:round; stroke-linejoin:round; stroke-width:1.5px;"/><path d="m234.357,70.763c.02,0,0-.02,0-.02.306-.572.51-1.306.653-1.98.286-1.367-.224-2.021-2.817-.224-1.796-1.429-5.551-2.143-7.123-1.082-.286-.122-.592-.204-.918-.245-1.796-4.102-5.878-6.98-10.654-6.98-1.612,0-3.163.326-4.551.939l-.02-.041c.347-1.306-.082-2.674-2.021-1.449-3.286-1.082-6.164-1.082-8.49-.592-.694-3.163-3.102-4.633-3.102-4.633,0,0-4.368-1.959-8.143-3.715-3.796-1.755-8.021.367-8.021.367l-23.45,15.45c-5.49-1.755-8.858.306-8.858.306,0,0-3.551,2.204-7.613,5-.688.474-1.216,1.068-1.678,1.697-.172.215-.331.427-.465.63-.184.265-.306.49-.429.714-1.449,2.857-1.388,6.041-1.388,6.041-.408.265-.816.531-1.225.796-.02,0-.041,0-.061.02-2.98,1.939-6.123,3.98-9.001,5.858-.082.041-.163.082-.224.143-2.184,1.408-4.245,2.735-5.98,3.898-.061.02-.082.041-.082.041-.694.449-1.347.878-1.939,1.245-.878.571-1.633,1.061-2.204,1.449-.408.265-.735.49-.959.633-.51.327-.939.694-1.286,1.061-.204.204-.408.408-.551.633-.184.184-.265.347-.265.347-1.286,1.878-1.082,3.653-1.082,3.653v6.653c-10.654,9.021-29.757,25.165-30.492,25.716,9.388,3.286,19.654,6.858,22.369,7.939.633.245,1.245.531,1.816.837,3.245,1.776,5.755,4.653,6.572,8.878.184.796.286,1.653.306,2.572.02.224.02.449.02.694v15.225l35.635-15.919,13.225-8.102v-14.123c0-3.857,2.061-4.368,2.061-4.368,0,0,1.755-1.163,4.47-3,7.307-4.878,21.593-14.45,27.634-18.409,1.061-.694,1.857-1.225,2.327-1.51,2.204-1.367,4.164-2.041,5.858-2.265,1.49-.184,2.776-.02,3.817.327.204.061.51.184.939.326h.02c.306-.265,3.102-2.612,6.204-5.123,3-2.449,6.266-5.062,7.694-6.041,2.959-2,7.858-8.429,9.286-11.246.143-.102.265-.225.388-.347.061-.061.143-.122.225-.204.653-.674,1.061-1.388,1.306-1.939.061-.082.082-.163.102-.224.041-.143.102-.265.123-.367.041-.102.082-.224.102-.327l1.143-.551c2.265-1.061,1.837-4.184.796-5.062Z" style="fill:#d3d5d6; stroke-width:0px;"/><path d="m96.96,146.993c-.694-.429-1.429-.776-2.204-1.082-2.531-1-11.633-4.184-20.45-7.266l-15.307,12.695c-1.286.714-2.327,1.408-3.225,2.102-.102.061-.204.143-.286.204-.041.02-.061.041-.061.041-2.939,2.327-4.021,4.429-5.735,6.327-2.265,2.551-3.021,6.082-3.021,6.082l-1.163,6.123s-.449.572-1.755,1.735c-1.306,1.163-.796,4.102-.796,4.102l-3.796-1.347-1.816.939-3.021,1.592c-1.408.816-2.266,1.939-2.266,3.163v7.286c0,1.041.612,1.98,1.653,2.755,1.51,1.122,3.939,1.857,6.674,1.857,1,0,1.959-.102,2.857-.286,1.143-.224,2.184-.592,3.021-1.061l5.837-3.735.592-.388v-2.327c.408.224.837.388,1.245.51,1.163.347,2.245.306,3.102-.245l2.919-1.98c1-.633,1.51-1.816,1.592-3.286,0,0,.755,2.245,3.082,2.021-.286.47-.49,1.102-.694,1.755-.367,1.163.653,1.245.653,1.245l1.225-1.225c.286.143.571.265.857.367,4.368,1.592,9.674-.367,9.674-.367l27.124-13.042v-13.348c0-.755-.041-1.469-.122-2.143-.592-4.674-3.041-7.837-6.388-9.776Z" style="fill:none; stroke:#000001; stroke-linecap:round; stroke-linejoin:round; stroke-width:1.5px;"/><path d="m96.96,146.993c-.694-.429-1.429-.776-2.204-1.082-2.531-1-11.633-4.184-20.45-7.266l-15.307,12.695c-1.286.714-2.327,1.408-3.225,2.102-.102.061-.204.143-.286.204-.041.02-.061.041-.061.041-2.939,2.327-4.021,4.429-5.735,6.327-2.265,2.551-3.021,6.082-3.021,6.082l-1.163,6.123s-.449.572-1.755,1.735c-1.306,1.163-.796,4.102-.796,4.102l-3.796-1.347-1.816.939-3.021,1.592c-1.408.816-2.266,1.939-2.266,3.163v7.286c0,1.041.612,1.98,1.653,2.755,1.51,1.122,3.939,1.857,6.674,1.857,1,0,1.959-.102,2.857-.286,1.143-.224,2.184-.592,3.021-1.061l5.837-3.735.592-.388v-2.327c.408.224.837.388,1.245.51,1.163.347,2.245.306,3.102-.245l2.919-1.98c1-.633,1.51-1.816,1.592-3.286,0,0,.755,2.245,3.082,2.021-.286.47-.49,1.102-.694,1.755-.367,1.163.653,1.245.653,1.245l1.225-1.225c.286.143.571.265.857.367,4.368,1.592,9.674-.367,9.674-.367l27.124-13.042v-13.348c0-.755-.041-1.469-.122-2.143-.592-4.674-3.041-7.837-6.388-9.776Z" style="fill:#d3d5d6; stroke-width:0px;"/></g><g id="uuid-7ac4b75d-03ee-4f02-87ab-c0a917b4eb15"><polyline points="44.675 138.653 28.776 133.088 24.946 135.335 24.946 145.759 32.469 148.662" style="fill:#d3d5d6; stroke:#000001; stroke-linecap:round; stroke-linejoin:round;"/><path d="m78.657,220.502c-3.166-1.486-3.583-7.267-.932-12.912s7.365-9.015,10.531-7.529l3.983,2.008c3.166,1.486,3.583,7.267.932,12.912-2.651,5.645-7.365,9.015-10.531,7.529l-3.983-2.008Z" style="fill:none; stroke:#000001; stroke-miterlimit:10; stroke-width:.5px;"/><path d="m76.114,216.491l-5.991-2.94c-2.423-1.138-2.743-5.563-.714-9.883,2.029-4.321,5.638-6.901,8.061-5.763l5.721,2.981" style="fill:none; stroke:#000001; stroke-miterlimit:10; stroke-width:.5px;"/><polygon points="85.014 207.649 91.024 204.94 93.056 209.596 89.035 217.639 83.659 220.094 81.543 215.099 85.014 207.649" style="fill:none; stroke:#000001; stroke-miterlimit:10; stroke-width:.5px;"/><path d="m92.239,202.069c-3.166-1.486-7.88,1.884-10.531,7.529-2.651,5.645-2.233,11.425.932,12.912" style="fill:none; stroke:#000001; stroke-miterlimit:10; stroke-width:.5px;"/><path d="m45.834,175.035c.041-1.49.571-2.714,1.572-3.347l2.939-1.98c2.327-1.49,6.388.674,9.041,4.837,2.653,4.184,2.919,8.756.571,10.246l-2.919,1.98c-.857.551-1.939.592-3.102.245-.408-.122-.837-.286-1.245-.51" style="fill:none; stroke:#000001; stroke-miterlimit:10; stroke-width:.5px;"/><line x1="46.671" y1="179.382" x2="46.671" y2="179.362" style="fill:none; stroke:#000001; stroke-miterlimit:10; stroke-width:.5px;"/><path d="m47.41,171.687c2.337-1.49,6.386.681,9.042,4.849,2.657,4.168,2.916,8.754.578,10.244" style="fill:none; stroke:#000001; stroke-miterlimit:10; stroke-width:.5px;"/><path d="m43.242,194.016c.265.531.674.939.674.939l21.695,10.49,2.837,6.102" style="fill:none; stroke:#000001; stroke-miterlimit:10; stroke-width:.5px;"/><polyline points="75.98 197.636 69.774 197.636 52.309 189.539" style="fill:none; stroke:#000001; stroke-miterlimit:10; stroke-width:.5px;"/><polyline points="163.052 117.529 163.61 117.14 163.61 110.403 193.448 97.08" style="fill:none; stroke:#000001; stroke-miterlimit:10; stroke-width:.5px;"/><line x1="110.699" y1="150.739" x2="138.653" y2="129.116" style="fill:none; stroke:#000001; stroke-miterlimit:10; stroke-width:.5px;"/><polyline points="111.29 153.311 140.434 142.292 159.869 131.104" style="fill:none; stroke:#000001; stroke-miterlimit:10; stroke-width:.5px;"/><line x1="166.398" y1="123.722" x2="193.448" y2="99.439" style="fill:none; stroke:#000001; stroke-miterlimit:10; stroke-width:.5px;"/><path d="m52.692,187.526c.429-.265.857-.429,1.245-.51,1-.225,1.755,0,1.755,0,2.306-5.47-1.551-10.899-1.551-10.899l-7.47-2.531c-.184.469-.49.959-.837,1.449-1.163,1.551-2.878,3.021-2.878,3.021" style="fill:none; stroke:#000001; stroke-miterlimit:10; stroke-width:.5px;"/><line x1="140.584" y1="106.232" x2="147.984" y2="101.467" style="fill:none; stroke:#000001; stroke-miterlimit:10; stroke-width:.5px;"/><line x1="153.892" y1="97.692" x2="161.835" y2="92.397" style="fill:none; stroke:#000001; stroke-miterlimit:10; stroke-width:.5px;"/><line x1="63.869" y1="127.402" x2="116.764" y2="92.954" style="fill:none; stroke:#000001; stroke-miterlimit:10; stroke-width:.5px;"/><line x1="24.946" y1="135.335" x2="42.957" y2="141.831" style="fill:none; stroke:#000001; stroke-miterlimit:10; stroke-width:.5px;"/><path d="m24.946,138.653s-3.948-.408-3.578-4.483c.37-4.074,1.777-25.399,1.777-25.399,0,0-.083-3.387,4.256-6.191,4.339-2.805,21.325-17.938,21.325-17.938l1.149-17.31c0-3.658,6.045-6.624,13.501-6.624s13.501,2.966,13.501,6.624l.899,15.4,11.892,9.658,10.096,3.322s3.926,1.927,3.926,5.757" style="fill:none; stroke:#000001; stroke-miterlimit:10; stroke-width:.5px;"/><path d="m58.605,65.938c0,1.293,2.136,2.341,4.771,2.341s4.771-1.048,4.771-2.341v-9.489c0-2.261-2.136-4.094-4.771-4.094s-4.771,1.833-4.771,4.094v9.489Z" style="fill:#d3d5d6; stroke:#000001; stroke-miterlimit:10;"/><path d="m63.375,109.947c-7.008.198-16.06-1.122-20.425-7.209,5.047,5.655,13.25,6.644,20.425,7.209h0Z" style="fill:#000001; stroke-width:0px;"/><path d="m84.845,100.199c-1.026,5.89-8.331,8.224-13.503,9.002,5.115-1.554,11.704-3.343,13.503-9.002h0Z" style="fill:#000001; stroke-width:0px;"/><path d="m25.759,103.85c4.046-2.637,8.193-3.132,8.193-3.132,0,0,3.117-.679,7.444-1.037,4.327-.359,5.005-3.798,5.005-3.798,0,0,.339-2.545.509-5.817s1.816-5.423,1.816-5.423c0,0,1.069,3.047.729,6.083s-.509,5.974-.509,5.974c0,0-1.018,5.683-6.957,6.038s-12.471.059-12.471.059" style="fill:none; stroke:#000001; stroke-miterlimit:10; stroke-width:.5px;"/><path d="m94.503,96.699s-3.479.173-9.078.285c-4.836.096-5.531-4.029-5.531-4.029v-5.789c0-2.354-2.12-4.433-2.12-4.433l.319,11.513s1.563,6.094,7.501,5.435c5.939-.66,10.52-1.508,10.52-1.508-.256-.94-6.448-5.782-6.448-5.782" style="fill:none; stroke:#000001; stroke-miterlimit:10; stroke-width:.5px;"/><path d="m65.489,90.877s1.188,2.46,1.951,10.096c.764,7.635,1.263,13.235,1.263,13.235,0,0-1.263,1.951-2.366-.848s-1.527-5.76-1.527-8.183v-10.131s-.255-5.271.679-4.168Z" style="fill:none; stroke:#000001; stroke-miterlimit:10; stroke-width:.5px;"/><path d="m76.876,67.332c0,3.658-6.045,6.624-13.501,6.624s-13.501-2.966-13.501-6.624" style="fill:none; stroke:#000001; stroke-miterlimit:10; stroke-width:.5px;"/><path d="m24.201,105.688l37.64,13.942s4.157,1.957,9.926-1.436c5.769-3.393,28.336-18.514,28.336-18.514" style="fill:none; stroke:#000001; stroke-miterlimit:10; stroke-width:.5px;"/><line x1="93.056" y1="209.596" x2="86.986" y2="206.76" style="fill:none; stroke:#000001; stroke-miterlimit:10; stroke-width:.5px;"/><line x1="89.035" y1="217.639" x2="81.837" y2="214.468" style="fill:none; stroke:#000001; stroke-miterlimit:10; stroke-width:.5px;"/><path d="m68.146,56.45c0,1.293-2.136,2.341-4.771,2.341s-4.771-1.048-4.771-2.341" style="fill:none; stroke:#000001; stroke-miterlimit:10; stroke-width:.5px;"/></g><g id="uuid-a9d782e2-5c91-4b94-819f-20297ac1cd42"><path d="m159.672,164.594s-5.226,3.223-7.894,5.155c-2.668,1.931-1.627,5.321.591,5.712s7.5.652,7.5.652" style="fill:none; stroke:#000001; stroke-linecap:round; stroke-linejoin:round; stroke-width:.5px;"/><path d="m159.869,178.242c-8.802-.434-12.494-.434-12.148-4.476.346-4.042,1.259-5.305,5.171-7.999,3.912-2.693,6.78-4.779,6.78-4.779" style="fill:none; stroke:#000001; stroke-linecap:round; stroke-linejoin:round; stroke-width:.5px;"/><path d="m159.869,180.807c-5.804.391-21.838-2.996-21.189-8.084-.391-6.65,3.651-9.555,3.651-9.555l17.342-11.829" style="fill:none; stroke:#000001; stroke-linecap:round; stroke-linejoin:round; stroke-width:.5px;"/><path d="m141.583,163.854v-4.691l-1.052-.261s-7.933,6.573-8.824,14.571c-.113,1.012-1.098,1.678-2.073,1.384l-18.624-5.619" style="fill:none; stroke:#000001; stroke-linecap:round; stroke-linejoin:round; stroke-width:.5px;"/><path d="m141.583,159.736s-8.043,6.969-8.563,16.208c-.059,1.045-1.077,1.757-2.079,1.454l-19.931-5.909" style="fill:none; stroke:#000001; stroke-linecap:round; stroke-linejoin:round; stroke-width:.5px;"/><polyline points="159.869 145.211 146.633 153.311 111.011 169.238" style="fill:none; stroke:#000001; stroke-linecap:round; stroke-linejoin:round; stroke-width:.5px;"/><path d="m44.539,140.387c0-3.109.978-6.013,4.982-8.345l5.786-3.588c2.444-1.855,5.741-2.184,7.93-1.296,3.861,1.565,34.095,11.917,39.049,13.873,4.955,1.956,8.723,6.064,8.723,12.987v37.101l-6.262,4.059-1.274-.518v-35.757c0-6.923-3.769-11.031-8.723-12.987-4.955-1.956-35.188-12.308-39.049-13.873-2.301-.932-9.729,2.001-9.868,7.726" style="fill:#d3d5d6; stroke:#000001; stroke-linecap:round; stroke-linejoin:round;"/><path d="m104.77,195.177v-37.436c0-6.923-3.769-11.031-8.723-12.987-4.955-1.956-35.188-12.308-39.049-13.873" style="fill:none; stroke:#000001; stroke-linecap:round; stroke-linejoin:round; stroke-width:.25px;"/><path d="m55.702,132.042l-9.207,7.184s-4.172,3.573-6.389,3.867-8.345,3.356-10.04,11.343l5.346,2.674s3.181.088,6.219-1.993,11.253-7.558,11.253-7.558c0,0,6.389-6.103,8.084-8.332l-4.694-2.407s-11.735,6.274-16.168,6.274" style="fill:none; stroke:#000001; stroke-linecap:round; stroke-linejoin:round; stroke-width:.5px;"/><path d="m52.692,181.505v7.327l-6.429,4.123c-1.49.837-3.572,1.347-5.878,1.347-4.592,0-8.327-2.061-8.327-4.613v-7.286c0-1.225.857-2.347,2.266-3.163l4.837-2.531,3.796,1.347,3.715,1.306v.02l6.021,2.123Z" style="fill:none; stroke:#000001; stroke-linecap:round; stroke-linejoin:round; stroke-width:.5px;"/><path d="m32.056,182.395c0,2.547,3.728,4.612,8.328,4.612,2.3,0,4.382-.516,5.889-1.351l6.417-4.149" style="fill:none; stroke:#000001; stroke-linecap:round; stroke-linejoin:round; stroke-width:.5px;"/><path d="m54.141,176.117s-.329,3.492-2.487,5.022" style="fill:none; stroke:#000001; stroke-miterlimit:10; stroke-width:.5px;"/><path d="m31.719,149.903l-9.444,6.344s-3.92,2.976-4.791,7.985c-.871,5.009-1.96,13.864-.798,17.276,1.161,3.412,1.67,4.54,3.121,5.5,1.452.96,11.912,5.751,11.912,5.751,0,0,.508.741,1.993-.319" style="fill:none; stroke:#000001; stroke-linecap:round; stroke-linejoin:round; stroke-width:.5px;"/><path d="m37.354,177.654l2.488-8.417s2.5-5.805,4.698-6.676,5.153-2.541,5.153-2.541" style="fill:none; stroke:#000001; stroke-linecap:round; stroke-linejoin:round; stroke-width:.5px;"/><path d="m66.591,182.725c-1.909.091-1.278-4.855,1.483-3.363,0,0,2.036-2.355,3.923-5.186,1.887-2.831,3.339-5.299,6.823-6.606s24.525-10.794,24.525-10.794" style="fill:none; stroke:#000001; stroke-linecap:round; stroke-linejoin:round; stroke-width:.5px;"/><path d="m66.591,182.725s.108,1.613,2.285-.637c2.178-2.25,4.428-5.379,4.428-5.379,0,0,2.813-2.878,3.659.478" style="fill:none; stroke:#000001; stroke-linecap:round; stroke-linejoin:round; stroke-width:.5px;"/><path d="m66.677,185.669c-.289-.105-.575-.226-.854-.364l-1.24,1.216s-1.016-.069-.653-1.231.792-2.323,1.521-2.468c.172-.034.594-.077,1.138-.121" style="fill:none; stroke:#000001; stroke-linecap:round; stroke-linejoin:round; stroke-width:.5px;"/><path d="m103.475,172.256l-27.137,13.049s-5.306,1.949-9.661.364" style="fill:none; stroke:#000001; stroke-linecap:round; stroke-linejoin:round; stroke-width:.5px;"/><path d="m65.451,182.822c-2.174.871-2.762-5.67,0-4.178,0,0,.691-.799,1.64-2.025" style="fill:none; stroke:#000001; stroke-linecap:round; stroke-linejoin:round; stroke-width:.5px;"/><path d="m42.957,178.056s-.502-2.936.804-4.098c1.307-1.161,1.756-1.742,1.756-1.742l1.154-6.127s.749-3.527,3.021-6.067,3.433-5.386,9.313-8.682l15.3-12.686" style="fill:none; stroke:#000001; stroke-linecap:round; stroke-linejoin:round; stroke-width:.5px;"/><path d="m55.437,153.692s2.261-2.01,6.689-.381c4.428,1.629,17.838,6.13,17.838,6.13,0,0,.997.944,0,1.887s-11.305,10.728-12.757,15.381" style="fill:none; stroke:#000001; stroke-linecap:round; stroke-linejoin:round; stroke-width:.5px;"/><ellipse cx="76.281" cy="180.441" rx="3.383" ry="1.976" transform="translate(-119.269 192.189) rotate(-70.522)" style="fill:none; stroke:#000001; stroke-linecap:round; stroke-linejoin:round; stroke-width:.5px;"/><path d="m68.597,182.701s4.272.116,5.609-.301" style="fill:none; stroke:#000001; stroke-linecap:round; stroke-linejoin:round; stroke-width:.5px;"/><path d="m103.475,162.564s-15.522,7.35-18.991,8.892-5.866,11.587.592,8.304c6.458-3.283,18.399-8.962,18.399-8.962" style="fill:none; stroke:#000001; stroke-linecap:round; stroke-linejoin:round; stroke-width:.5px;"/><path d="m111.011,158.902s20.651-9.657,22.942-10.675,4.666,5.26-.594,7.975c-5.26,2.715-22.348,10.268-22.348,10.268" style="fill:none; stroke:#000001; stroke-linecap:round; stroke-linejoin:round; stroke-width:.5px;"/><path d="m80.393,160.274c.255-.17,16.565-13.289,16.565-13.289" style="fill:none; stroke:#000001; stroke-linecap:round; stroke-linejoin:round; stroke-width:.5px;"/><line x1="104.344" y1="141.438" x2="138.653" y2="112.595" style="fill:none; stroke:#000001; stroke-linecap:round; stroke-linejoin:round; stroke-width:.5px;"/><path d="m79.895,133.088c.109.038,37.514-31.62,37.514-31.62" style="fill:none; stroke:#000001; stroke-linecap:round; stroke-linejoin:round; stroke-width:.5px;"/><path d="m110.414,107.385v-6.667s-.386-3.309,3.177-5.684c3.563-2.375,34.107-22.143,34.107-22.143" style="fill:none; stroke:#000001; stroke-linecap:round; stroke-linejoin:round; stroke-width:.5px;"/><path d="m112.42,105.688v-4.716s-.016-2.121,1.935-2.291" style="fill:none; stroke:#000001; stroke-linecap:round; stroke-linejoin:round; stroke-width:.5px;"/><path d="m111.487,97.08s1.002-1.876,4.056-.773l-1.188,1.273v2.715l19.767,7.091,1.951-1.068s2.579,1.697,2.579,3.818v26.684l2.915,1.142,21.485-15.78v-24.688c0-2.375,0-5.26-4.327-7.89,0,0,.594-1.357-1.273-2.291-1.866-.933-16.921-6.278-16.921-6.278,0,0-.403-.424-1.879.509,0,0-2.918-.906-4.664.226" style="fill:none; stroke:#000001; stroke-linecap:round; stroke-linejoin:round;"/><path d="m118.691,91.699s2.791-1.756,6.1-.653c3.309,1.103,6.389,2.656,6.389,2.656-.535,1.501,2.248,3.792,7.474,2.434l7.347,2.545s3.818,1.273,3.818,7.551l4.751-2.969s2.188-5.833-4.376-8.144l-6.565-2.312h0c.336-2.354-5.094-3.542-8.657-3.033l-6.787-2.545s-4.072-.594-4.072,1.866v1.696" style="fill:none; stroke:#000001; stroke-linecap:round; stroke-linejoin:round; stroke-width:.5px;"/><path d="m114.355,97.579l19.597,6.323,2.206-1.064s5.409,1.018,5.409,7.635v26.713" style="fill:none; stroke:#000001; stroke-linecap:round; stroke-linejoin:round; stroke-width:.5px;"/><path d="m149.616,103.902l2.406-1.318c1.188-1.357.956-3.563-2.406-5.005s-6.586-2.46-6.586-2.46c0,0-.023-2.232-7.975-2.728l-6.702-2.253s-1.941-.527-2.582,1.251" style="fill:none; stroke:#000001; stroke-linecap:round; stroke-linejoin:round; stroke-width:.5px;"/><path d="m136.804,79.593c1.416-6.8,4.359-9.332,14.455-5.854,10.096,3.478,37.837,13.998,37.837,13.998,0,0,4.836,2.291,4.836,8.06v9.379" style="fill:none; stroke:#000001; stroke-linecap:round; stroke-linejoin:round;"/><path d="m135.271,80.939s-.11-6.267,3.952-9.066c4.062-2.8,7.625-5.005,7.625-5.005,0,0,3.733-2.291,9.756,0,6.023,2.291,36.31,12.957,39.195,14.072,2.884,1.114,6.396,4.932,6.396,10.446v10.082" style="fill:none; stroke:#000001; stroke-linecap:round; stroke-linejoin:round;"/><path d="m136.661,74.911c1.106-2.117,4.842-6.431,12.053-3.716,7.211,2.715,37.074,13.235,40.298,14.507s6.702,5.43,6.702,10.011v8.19" style="fill:none; stroke:#000001; stroke-linecap:round; stroke-linejoin:round; stroke-width:.5px;"/><path d="m45.517,172.216c.668-3.549,2.496-7.904,5.088-7.525l2.592.38h0c5.184-3.226,13.075-2.246,15.84,5.357l1.396,1.062" style="fill:none; stroke:#000001; stroke-linecap:round; stroke-linejoin:round; stroke-width:.5px;"/><line x1="65.02" y1="165.054" x2="76.74" y2="158.354" style="fill:none; stroke:#000001; stroke-linecap:round; stroke-linejoin:round; stroke-width:.5px;"/><line x1="62.835" y1="163.942" x2="70.88" y2="156.365" style="fill:none; stroke:#000001; stroke-linecap:round; stroke-linejoin:round; stroke-width:.5px;"/><path d="m53.198,165.071s-2.422,1.614-2.853,4.637" style="fill:none; stroke:#000001; stroke-linecap:round; stroke-linejoin:round; stroke-width:.5px;"/><path d="m69.037,170.428c-2.189-.346-5.299,1.205-6.969,10.711" style="fill:none; stroke:#000001; stroke-linecap:round; stroke-linejoin:round; stroke-width:.5px;"/><path d="m61.548,181.507s.763,2.257,3.101,2.011" style="fill:none; stroke:#000001; stroke-linecap:round; stroke-linejoin:round; stroke-width:.5px;"/><path d="m17.903,162.564s3.097-4.636,7.532-2.965c4.435,1.67,12.845,5.472,12.845,5.472,0,0,1.975.627,2.255,2.704" style="fill:none; stroke:#000001; stroke-linecap:round; stroke-linejoin:round; stroke-width:.5px;"/><line x1="16.419" y1="180.416" x2="32.058" y2="187.238" style="fill:none; stroke:#000001; stroke-linecap:round; stroke-linejoin:round; stroke-width:.5px;"/><path d="m171.317,72.185l18.496-8.106,1.802-1.658s5.911-5.839,15.282-2.739c1.946-1.225,2.379.144,2.018,1.442" style="fill:none; stroke:#000001; stroke-linecap:round; stroke-linejoin:round; stroke-width:.5px;"/><path d="m191.616,62.421l23.067,8.362s6.992-4.83,10.38-3.316c1.586-1.081,5.334-.36,7.136,1.081,2.595-1.802,3.1-1.153,2.811.216s-.842,2.955-1.791,3.028-2.318.323-4.625.666c-2.307.343-4.162,5.684-1.958,6.622l2.067.802" style="fill:none; stroke:#000001; stroke-linecap:round; stroke-linejoin:round; stroke-width:.5px;"/><path d="m234.434,71.107c1.081.829,1.442,3.64-.865,4.722l-1.161.546s-.419,1.981-2.227,3.419c-1.442,2.811-6.343,9.227-9.299,11.245-2.955,2.018-13.911,11.146-13.911,11.146" style="fill:none; stroke:#000001; stroke-linecap:round; stroke-linejoin:round; stroke-width:.5px;"/><path d="m202.195,95.58s13.858-11.822,15.588-13.119c1.73-1.298,5.406,2.595,1.298,6.56-4.109,3.965-13.867,12.449-13.867,12.449" style="fill:none; stroke:#000001; stroke-linecap:round; stroke-linejoin:round; stroke-width:.5px;"/><line x1="225.063" y1="67.467" x2="201.927" y2="88.817" style="fill:none; stroke:#000001; stroke-linecap:round; stroke-linejoin:round; stroke-width:.5px;"/><line x1="214.683" y1="70.783" x2="193.932" y2="80.253" style="fill:none; stroke:#000001; stroke-linecap:round; stroke-linejoin:round; stroke-width:.5px;"/><path d="m204.733,67.176c3.247-1.943,7.575,1.088,8.763,3.176" style="fill:none; stroke:#000001; stroke-linecap:round; stroke-linejoin:round; stroke-width:.5px;"/><path d="m205.959,63.021c-2.556-1.248-4.856.458-5.863,2.475" style="fill:none; stroke:#000001; stroke-linecap:round; stroke-linejoin:round; stroke-width:.5px;"/><ellipse cx="230.254" cy="76.838" rx="3.415" ry="1.874" transform="translate(57.351 247.207) rotate(-63.031)" style="fill:none; stroke:#000001; stroke-linecap:round; stroke-linejoin:round; stroke-width:.5px;"/><line x1="233.22" y1="71.792" x2="231.802" y2="73.795" style="fill:none; stroke:#000001; stroke-linecap:round; stroke-linejoin:round; stroke-width:.5px;"/><path d="m224.152,67.212c-1.796-4.102-5.878-6.98-10.654-6.98-4.531,0-8.45,2.592-10.348,6.368" style="fill:none; stroke:#000001; stroke-linecap:round; stroke-linejoin:round; stroke-width:.5px;"/><path d="m144.284,72.185s-.608.943-.642,3.333" style="fill:none; stroke:#000001; stroke-linecap:round; stroke-linejoin:round; stroke-width:.5px;"/><path d="m155.697,66.552l23.456-15.449s4.225-2.112,8.012-.364c3.788,1.748,8.158,3.715,8.158,3.715,0,0,2.405,1.467,3.097,4.631" style="fill:none; stroke:#000001; stroke-linecap:round; stroke-linejoin:round; stroke-width:.5px;"/><line x1="195.323" y1="54.454" x2="169.465" y2="71.151" style="fill:none; stroke:#000001; stroke-linecap:round; stroke-linejoin:round; stroke-width:.5px;"/><path d="m35.412,157.11c2.377-5.915,4.904-9.777,10.105-11.037,5.201-1.259,11.421-3.013,15.451-6.847" style="fill:none; stroke:#000001; stroke-linecap:round; stroke-linejoin:round; stroke-width:.25px;"/><path d="m47.973,133.088c3.106-2.011,5.256-3.56,9.024-2.207" style="fill:none; stroke:#000001; stroke-linecap:round; stroke-linejoin:round; stroke-width:.5px;"/><line x1="132.577" y1="176.965" x2="138.679" y2="172.723" style="fill:none; stroke:#000001; stroke-linecap:round; stroke-linejoin:round; stroke-width:.5px;"/><path d="m296.955,164.494c-3.755-1.551-21.348-7.613-23.226-8.266l-8.266-31.737-1.347-4.572s1.551-1.51.674-3.572c-.837-1.388-2.368-2.061-4.021-2.653-2.449-.878-31.308-11.082-40.084-14.205-8.776-3.123-12.552-2-15.083-.347-.531.347-1.898,1.245-3.755,2.449-.224-.143-1.959-1.327-2.714-3.633,0,0-15.634-5.204-17.858-5.96-2.225-.735-5.511-.653-9.674,1.939-4.163,2.612-34.431,22.92-34.431,22.92,0,0-2.061.51-2.061,4.368v55.861s.204,1.49,1.408,2.306l-18.797,13.103c-.674.49-.959,1.245-.898,1.959l.02,2.449c-.122.939.367,1.918,1.388,2.265,17.021,5.98,84.271,29.614,85.944,30.329,1.939.816,8.041,1.857,13.613-2.082,5.592-3.939,78.536-52.656,80.76-54.228.98-.674,1.572-1.551,1.572-2.449v-2.98c0-1.143-.939-2.347-3.163-3.266Z" style="fill:#d3d5d6; stroke:#000001; stroke-miterlimit:10;"/><path d="m156.289,135.267s50.645-34.507,52.356-35.325c1.71-.818,4.09-1.264,8.032,0,3.942,1.264,41.275,15.097,42.836,15.617,1.562.521,3.123,2.157.669,3.644-2.454,1.487-49.367,33.243-51.307,34.433-1.941,1.19-4.99,1.562-8.113.446s-42.316-15.246-43.803-15.915-2.359-1.75-.669-2.9Z" style="fill:none; stroke:#000001; stroke-miterlimit:10; stroke-width:.5px;"/><path d="m180.459,115.485s22.608-14.668,25.137-16.333c2.529-1.665,6.321-2.78,15.097.343,8.776,3.123,37.631,13.312,40.085,14.204s4.685,1.934,4.685,5.355v5.429l14.391,55.296-2.639,1.099-16.781-5.98-9.644,5.98" style="fill:none; stroke:#000001; stroke-miterlimit:10; stroke-width:.5px;"/><ellipse cx="160.454" cy="107.272" rx="5.057" ry="2.491" style="fill:none; stroke:#000001; stroke-miterlimit:10; stroke-width:.5px;"/><path d="m201.874,101.604s-1.93-1.191-2.749-3.645c0,0-15.617-5.206-17.849-5.95s-5.503-.669-9.668,1.934c-4.165,2.603-34.433,22.906-34.433,22.906,0,0-2.062.521-2.062,4.388v55.851s.203,1.487,1.393,2.305l-18.783,13.11c-.682.476-.967,1.228-.895,1.943l.006,2.467c-.117.925.378,1.906,1.392,2.262,17.02,5.978,84.266,29.603,85.955,30.318,1.934.818,8.032,1.859,13.609-2.082s78.533-52.653,80.765-54.215c.98-.686,1.556-1.558,1.557-2.459v-2.975c.002-1.15-.934-2.348-3.162-3.266-3.973-1.638-23.384-8.331-23.384-8.331" style="fill:none; stroke:#000001; stroke-miterlimit:10; stroke-width:.5px;"/><path d="m116.829,194.446c.076.764.56,1.485,1.398,1.779,17.02,5.978,84.266,29.603,85.955,30.318,1.934.818,8.032,1.859,13.609-2.082s78.533-52.653,80.765-54.215c.98-.686,1.556-1.558,1.557-2.459" style="fill:none; stroke:#000001; stroke-miterlimit:10; stroke-width:.5px;"/><polyline points="225.906 197.548 235.165 191.295 252.236 197.548 254.936 195.828 239.312 136.625 261.022 121.63 277.215 180.879" style="fill:none; stroke:#000001; stroke-miterlimit:10; stroke-width:.5px;"/><path d="m153.091,134.077s-3.316,3.393,1.38,5.519l-12.827,61.821,3.568,1.254,12.538-8.776,7.761,2.67" style="fill:none; stroke:#000001; stroke-miterlimit:10; stroke-width:.5px;"/><polyline points="145.212 202.671 158.009 140.758 175.369 147.124 162.542 208.945 166.111 210.198 178.648 201.422 186.409 204.092" style="fill:none; stroke:#000001; stroke-miterlimit:10; stroke-width:.5px;"/><path d="m166.111,210.198l12.634-62.207,17.939,6.759-12.731,61.138,3.761,1.061,11.863-8.294c1.157,1.543,9.548,1.929,11.477-.675l16.396,6.172,2.707-1.929-15.534-58.638,22.086-15.045,15.528,59.007" style="fill:none; stroke:#000001; stroke-miterlimit:10; stroke-width:.5px;"/><line x1="178.648" y1="201.422" x2="178.648" y2="147.992" style="fill:none; stroke:#000001; stroke-miterlimit:10; stroke-width:.5px;"/><line x1="157.75" y1="193.895" x2="158.009" y2="140.758" style="fill:none; stroke:#000001; stroke-miterlimit:10; stroke-width:.5px;"/><path d="m187.714,216.949l11.959-61.049c4.147,1.157,7.33,1.35,12.152-.579l15.624,58.831" style="fill:none; stroke:#000001; stroke-miterlimit:10; stroke-width:.5px;"/><line x1="199.673" y1="155.9" x2="199.577" y2="208.655" style="fill:none; stroke:#000001; stroke-miterlimit:10; stroke-width:.5px;"/><line x1="211.054" y1="207.98" x2="211.825" y2="155.321" style="fill:none; stroke:#000001; stroke-miterlimit:10; stroke-width:.5px;"/><line x1="260.433" y1="174.9" x2="261.022" y2="121.63" style="fill:none; stroke:#000001; stroke-miterlimit:10; stroke-width:.5px;"/><path d="m265.462,124.484l-1.35-4.571s1.556-1.503.675-3.567" style="fill:none; stroke:#000001; stroke-miterlimit:10; stroke-width:.5px;"/><polyline points="161.651 139.924 181.681 136.625 193.23 128.796 182.197 124.925" style="fill:none; stroke:#000001; stroke-miterlimit:10; stroke-width:.5px;"/><polyline points="181.681 136.625 181.681 124.215 184.003 122.732 195.488 126.952 207.037 119.183 208.005 106.215 212.198 104.781 212.198 128.861" style="fill:none; stroke:#000001; stroke-miterlimit:10; stroke-width:.5px;"/><polyline points="212.198 104.781 211.054 120.022 199.294 128.345 207.876 131.571 235.554 113.118 238.78 114.279 238.78 126.538" style="fill:none; stroke:#000001; stroke-miterlimit:10; stroke-width:.5px;"/><polyline points="252.236 124.485 232.586 127.7 220.392 136.048 211.054 132.732 238.78 114.279" style="fill:none; stroke:#000001; stroke-miterlimit:10; stroke-width:.5px;"/><polyline points="248.116 127.252 235.038 129.359 223.876 137.184 230.156 139.198" style="fill:none; stroke:#000001; stroke-miterlimit:10; stroke-width:.5px;"/><line x1="235.038" y1="129.359" x2="235.038" y2="136.048" style="fill:none; stroke:#000001; stroke-miterlimit:10; stroke-width:.5px;"/><polyline points="165.811 141.444 184.132 138.54 196.585 129.958 205.488 133.225 183.552 147.992" style="fill:none; stroke:#000001; stroke-miterlimit:10; stroke-width:.5px;"/><polyline points="187.145 149.175 209.173 134.41 217.682 137.636 205.488 145.959 205.169 154.727" style="fill:none; stroke:#000001; stroke-miterlimit:10; stroke-width:.5px;"/><polyline points="209.393 153.301 209.393 146.604 221.037 138.975 227.449 141.172" style="fill:none; stroke:#000001; stroke-miterlimit:10; stroke-width:.5px;"/><line x1="221.037" y1="138.975" x2="221.037" y2="145.249" style="fill:none; stroke:#000001; stroke-miterlimit:10; stroke-width:.5px;"/><line x1="209.173" y1="134.41" x2="209.173" y2="143.444" style="fill:none; stroke:#000001; stroke-miterlimit:10; stroke-width:.5px;"/><line x1="196.585" y1="129.958" x2="196.585" y2="139.198" style="fill:none; stroke:#000001; stroke-miterlimit:10; stroke-width:.5px;"/><line x1="184.132" y1="138.54" x2="184.132" y2="147.242" style="fill:none; stroke:#000001; stroke-miterlimit:10; stroke-width:.5px;"/><line x1="214.602" y1="99.403" x2="214.602" y2="126.952" style="fill:none; stroke:#000001; stroke-miterlimit:10; stroke-width:.5px;"/><path d="m137.176,116.848s-4.01,3.949,1.819,5.892c5.829,1.943,15.543,5.551,15.543,5.551l2.274,3.279" style="fill:none; stroke:#000001; stroke-miterlimit:10; stroke-width:.5px;"/><path d="m159.206,129.958l-2.394-3.748s-12.52-4.395-15.169-4.973c-2.649-.578-2.902-2.487,0-3.892s11.934-7.581,11.934-7.581c0,0,4.632,3.262,12.234,1.18l2.883.694,1.665,2.642,7.571,3.065-24.839,16.733s-1.929.701-1.929,4.463v16.211" style="fill:none; stroke:#000001; stroke-miterlimit:10; stroke-width:.5px;"/><path d="m180.459,115.485l-7.571-3.065-1.665-2.642-2.883-.694s2.401-3.971-5.224-5.816l12.42-8.181s2.603-2.157,7.809-.297c5.206,1.859,13.907,5.132,13.907,5.132,0,0,.293,2.577,2.043,3.334" style="fill:none; stroke:#000001; stroke-miterlimit:10; stroke-width:.5px;"/><line x1="178.648" y1="94.035" x2="178.648" y2="115.052" style="fill:none; stroke:#000001; stroke-miterlimit:10; stroke-width:.5px;"/><path d="m146.322,122.641l7.255-4.466c3.44,2.421,9.425,1.826,12.234.413l6.746,2.375" style="fill:none; stroke:#000001; stroke-miterlimit:10; stroke-width:.5px;"/><line x1="165.811" y1="118.589" x2="165.811" y2="110.944" style="fill:none; stroke:#000001; stroke-miterlimit:10; stroke-width:.5px;"/><line x1="153.577" y1="118.176" x2="153.577" y2="109.763" style="fill:none; stroke:#000001; stroke-miterlimit:10; stroke-width:.5px;"/><path d="m136.507,179.393s1.009-1.245,3.054-.792,6.438,1.829,6.438,1.829" style="fill:none; stroke:#000001; stroke-miterlimit:10; stroke-width:.5px;"/><polygon points="149.565 210.871 147.743 212.213 120.364 202.328 120.364 196.517 124.195 193.587 151.778 203.509 151.778 206.265 149.565 207.797 149.565 210.871" style="fill:#d3d5d6; stroke:#000001; stroke-linecap:round; stroke-linejoin:round;"/><polyline points="120.64 196.757 147.721 206.499 151.778 203.509" style="fill:none; stroke:#000001; stroke-miterlimit:10; stroke-width:.25px;"/><line x1="147.721" y1="206.499" x2="147.721" y2="212.213" style="fill:none; stroke:#000001; stroke-miterlimit:10; stroke-width:.25px;"/><polygon points="202.224 229.801 200.402 231.143 173.023 221.257 173.023 215.447 176.854 212.517 204.437 222.439 204.437 225.194 202.224 226.726 202.224 229.801" style="fill:#d3d5d6; stroke:#000001; stroke-linecap:round; stroke-linejoin:round;"/><polyline points="173.299 215.687 200.38 225.428 204.437 222.439" style="fill:none; stroke:#000001; stroke-miterlimit:10; stroke-width:.25px;"/><line x1="200.38" y1="225.428" x2="200.38" y2="231.143" style="fill:none; stroke:#000001; stroke-miterlimit:10; stroke-width:.25px;"/></g><g id="uuid-aae95508-e662-4294-be52-e94a8f7eaa13"><line x1="63.761" y1="19.451" x2="63.761" y2="50.047" style="fill:none; stroke:#fff; stroke-linecap:round; stroke-linejoin:round; stroke-width:3px;"/><line x1="63.761" y1="19.451" x2="63.761" y2="50.047" style="fill:none; stroke:#fff; stroke-linecap:round; stroke-linejoin:round; stroke-width:3px;"/><line x1="63.761" y1="19.451" x2="63.761" y2="50.047" style="fill:none; stroke:#fff; stroke-linecap:round; stroke-linejoin:round; stroke-width:3px;"/><path d="m62.645,18.588c-.199.134-.455.283-.767.448l-.819-1.326c.477-.26.906-.535,1.287-.825.382-.291.732-.613,1.053-.969h1.808v9.334h-1.846v-7.215c-.278.233-.517.418-.716.553Z" style="fill:none; stroke:#fff; stroke-linecap:round; stroke-linejoin:round; stroke-width:3px;"/><circle cx="63.604" cy="20.775" r="8.275" style="fill:none; stroke:#fff; stroke-linecap:round; stroke-linejoin:round; stroke-width:3px;"/><path d="m63.604,12.483c-3.934,0-7.124,3.189-7.124,7.124v2.336c0,3.934,3.189,7.124,7.124,7.124s7.124-3.189,7.124-7.124v-2.336c0-3.934-3.189-7.124-7.124-7.124Z" style="fill:none; stroke:#fff; stroke-linecap:round; stroke-linejoin:round; stroke-width:3px;"/><path d="m62.645,18.588c-.199.134-.455.283-.767.448l-.819-1.326c.477-.26.906-.535,1.287-.825.382-.291.732-.613,1.053-.969h1.808v9.334h-1.846v-7.215c-.278.233-.517.418-.716.553Z" style="fill:none; stroke:#fff; stroke-linecap:round; stroke-linejoin:round; stroke-width:3px;"/><line x1="63.761" y1="19.451" x2="63.761" y2="50.047" style="fill:none; stroke:#fff; stroke-linecap:round; stroke-linejoin:round; stroke-width:3px;"/><line x1="63.761" y1="19.451" x2="63.761" y2="50.047" style="fill:none; stroke:#000001; stroke-linecap:round; stroke-miterlimit:10;"/><circle cx="63.604" cy="20.775" r="8.275" style="fill:#000001; stroke-width:0px;"/><path d="m63.604,12.483c-3.934,0-7.124,3.189-7.124,7.124v2.336c0,3.934,3.189,7.124,7.124,7.124s7.124-3.189,7.124-7.124v-2.336c0-3.934-3.189-7.124-7.124-7.124Z" style="fill:#000001; stroke-width:0px;"/><path d="m62.645,18.588c-.199.134-.455.283-.767.448l-.819-1.326c.477-.26.906-.535,1.287-.825.382-.291.732-.613,1.053-.969h1.808v9.334h-1.846v-7.215c-.278.233-.517.418-.716.553Z" style="fill:#fff; stroke-width:0px;"/><line x1="136.837" y1="19.451" x2="136.837" y2="93.702" style="fill:none; stroke:#fff; stroke-linecap:round; stroke-linejoin:round; stroke-width:3px;"/><line x1="136.837" y1="19.451" x2="136.837" y2="93.702" style="fill:none; stroke:#fff; stroke-linecap:round; stroke-linejoin:round; stroke-width:3px;"/><line x1="136.837" y1="19.451" x2="136.837" y2="93.702" style="fill:none; stroke:#fff; stroke-linecap:round; stroke-linejoin:round; stroke-width:3px;"/><path d="m133.193,23.781l3.236-3.029c.304-.277.56-.544.768-.8.208-.255.368-.496.48-.721.112-.226.169-.438.169-.638v-.117c0-.312-.119-.567-.357-.767s-.539-.299-.903-.299c-.52,0-.919.112-1.196.338s-.459.611-.546,1.157l-1.638-.521c.139-.832.507-1.476,1.104-1.931.599-.454,1.356-.682,2.275-.682.581,0,1.105.104,1.573.312s.838.512,1.111.91.409.871.409,1.417c0,.45-.089.882-.267,1.293-.178.412-.405.789-.682,1.132-.278.342-.594.674-.949.994l-2.002,1.794h3.965v1.625h-6.552v-1.469Z" style="fill:none; stroke:#fff; stroke-linecap:round; stroke-linejoin:round; stroke-width:3px;"/><circle cx="136.68" cy="20.775" r="8.275" style="fill:none; stroke:#fff; stroke-linecap:round; stroke-linejoin:round; stroke-width:3px;"/><path d="m136.68,12.483c-4.462,0-8.079,3.617-8.079,8.079v.425c0,4.462,3.617,8.079,8.079,8.079s8.079-3.617,8.079-8.079v-.425c0-4.462-3.617-8.079-8.079-8.079Z" style="fill:none; stroke:#fff; stroke-linecap:round; stroke-linejoin:round; stroke-width:3px;"/><path d="m133.193,23.781l3.236-3.029c.304-.277.56-.544.768-.8.208-.255.368-.496.48-.721.112-.226.169-.438.169-.638v-.117c0-.312-.119-.567-.357-.767s-.539-.299-.903-.299c-.52,0-.919.112-1.196.338s-.459.611-.546,1.157l-1.638-.521c.139-.832.507-1.476,1.104-1.931.599-.454,1.356-.682,2.275-.682.581,0,1.105.104,1.573.312s.838.512,1.111.91.409.871.409,1.417c0,.45-.089.882-.267,1.293-.178.412-.405.789-.682,1.132-.278.342-.594.674-.949.994l-2.002,1.794h3.965v1.625h-6.552v-1.469Z" style="fill:none; stroke:#fff; stroke-linecap:round; stroke-linejoin:round; stroke-width:3px;"/><line x1="136.837" y1="19.451" x2="136.837" y2="93.702" style="fill:none; stroke:#fff; stroke-linecap:round; stroke-linejoin:round; stroke-width:3px;"/><line x1="136.837" y1="19.451" x2="136.837" y2="93.702" style="fill:none; stroke:#000001; stroke-linecap:round; stroke-miterlimit:10;"/><circle cx="136.68" cy="20.775" r="8.275" style="fill:#000001; stroke-width:0px;"/><path d="m136.68,12.483c-4.462,0-8.079,3.617-8.079,8.079v.425c0,4.462,3.617,8.079,8.079,8.079s8.079-3.617,8.079-8.079v-.425c0-4.462-3.617-8.079-8.079-8.079Z" style="fill:#000001; stroke-width:0px;"/><path d="m133.193,23.781l3.236-3.029c.304-.277.56-.544.768-.8.208-.255.368-.496.48-.721.112-.226.169-.438.169-.638v-.117c0-.312-.119-.567-.357-.767s-.539-.299-.903-.299c-.52,0-.919.112-1.196.338s-.459.611-.546,1.157l-1.638-.521c.139-.832.507-1.476,1.104-1.931.599-.454,1.356-.682,2.275-.682.581,0,1.105.104,1.573.312s.838.512,1.111.91.409.871.409,1.417c0,.45-.089.882-.267,1.293-.178.412-.405.789-.682,1.132-.278.342-.594.674-.949.994l-2.002,1.794h3.965v1.625h-6.552v-1.469Z" style="fill:#fff; stroke-width:0px;"/><line x1="243.84" y1="19.451" x2="243.84" y2="120.192" style="fill:none; stroke:#fff; stroke-linecap:round; stroke-linejoin:round; stroke-width:3px;"/><line x1="243.84" y1="19.451" x2="243.84" y2="120.192" style="fill:none; stroke:#fff; stroke-linecap:round; stroke-linejoin:round; stroke-width:3px;"/><line x1="243.84" y1="19.451" x2="243.84" y2="120.192" style="fill:none; stroke:#fff; stroke-linecap:round; stroke-linejoin:round; stroke-width:3px;"/><path d="m241.366,24.919c-.542-.316-1.008-.787-1.397-1.411l1.442-1.04c.243.442.51.759.8.949s.652.286,1.086.286c.468,0,.87-.093,1.209-.279.338-.187.507-.475.507-.865v-.155c0-.442-.149-.757-.449-.942-.299-.187-.804-.28-1.514-.28h-.65v-1.56h.624c.528,0,.96-.078,1.294-.234.333-.155.5-.45.5-.884v-.143c0-.312-.146-.544-.436-.696-.29-.151-.626-.228-1.008-.228-.363,0-.69.094-.981.28-.29.187-.53.461-.721.825l-1.365-.819c.312-.667.728-1.158,1.248-1.476.52-.315,1.152-.474,1.897-.474.91,0,1.653.216,2.229.649s.865,1.079.865,1.938c0,.45-.092.838-.273,1.163s-.438.592-.767.8c.416.217.729.494.942.832.212.338.318.754.318,1.248,0,.642-.158,1.188-.475,1.638-.316.451-.739.789-1.268,1.014-.528.226-1.109.338-1.742.338-.736,0-1.376-.157-1.917-.474Z" style="fill:none; stroke:#fff; stroke-linecap:round; stroke-linejoin:round; stroke-width:3px;"/><circle cx="243.682" cy="20.775" r="8.275" style="fill:none; stroke:#fff; stroke-linecap:round; stroke-linejoin:round; stroke-width:3px;"/><path d="m243.682,12.483c-4.451,0-8.059,3.608-8.059,8.059v.465c0,4.451,3.608,8.059,8.059,8.059s8.059-3.608,8.059-8.059v-.465c0-4.451-3.608-8.059-8.059-8.059Z" style="fill:none; stroke:#fff; stroke-linecap:round; stroke-linejoin:round; stroke-width:3px;"/><path d="m241.366,24.919c-.542-.316-1.008-.787-1.397-1.411l1.442-1.04c.243.442.51.759.8.949s.652.286,1.086.286c.468,0,.87-.093,1.209-.279.338-.187.507-.475.507-.865v-.155c0-.442-.149-.757-.449-.942-.299-.187-.804-.28-1.514-.28h-.65v-1.56h.624c.528,0,.96-.078,1.294-.234.333-.155.5-.45.5-.884v-.143c0-.312-.146-.544-.436-.696-.29-.151-.626-.228-1.008-.228-.363,0-.69.094-.981.28-.29.187-.53.461-.721.825l-1.365-.819c.312-.667.728-1.158,1.248-1.476.52-.315,1.152-.474,1.897-.474.91,0,1.653.216,2.229.649s.865,1.079.865,1.938c0,.45-.092.838-.273,1.163s-.438.592-.767.8c.416.217.729.494.942.832.212.338.318.754.318,1.248,0,.642-.158,1.188-.475,1.638-.316.451-.739.789-1.268,1.014-.528.226-1.109.338-1.742.338-.736,0-1.376-.157-1.917-.474Z" style="fill:none; stroke:#fff; stroke-linecap:round; stroke-linejoin:round; stroke-width:3px;"/><line x1="243.84" y1="19.451" x2="243.84" y2="120.192" style="fill:none; stroke:#fff; stroke-linecap:round; stroke-linejoin:round; stroke-width:3px;"/><line x1="243.84" y1="19.451" x2="243.84" y2="120.192" style="fill:none; stroke:#000001; stroke-linecap:round; stroke-miterlimit:10;"/><circle cx="243.682" cy="20.775" r="8.275" style="fill:#000001; stroke-width:0px;"/><path d="m243.682,12.483c-4.451,0-8.059,3.608-8.059,8.059v.465c0,4.451,3.608,8.059,8.059,8.059s8.059-3.608,8.059-8.059v-.465c0-4.451-3.608-8.059-8.059-8.059Z" style="fill:#000001; stroke-width:0px;"/><path d="m241.366,24.919c-.542-.316-1.008-.787-1.397-1.411l1.442-1.04c.243.442.51.759.8.949s.652.286,1.086.286c.468,0,.87-.093,1.209-.279.338-.187.507-.475.507-.865v-.155c0-.442-.149-.757-.449-.942-.299-.187-.804-.28-1.514-.28h-.65v-1.56h.624c.528,0,.96-.078,1.294-.234.333-.155.5-.45.5-.884v-.143c0-.312-.146-.544-.436-.696-.29-.151-.626-.228-1.008-.228-.363,0-.69.094-.981.28-.29.187-.53.461-.721.825l-1.365-.819c.312-.667.728-1.158,1.248-1.476.52-.315,1.152-.474,1.897-.474.91,0,1.653.216,2.229.649s.865,1.079.865,1.938c0,.45-.092.838-.273,1.163s-.438.592-.767.8c.416.217.729.494.942.832.212.338.318.754.318,1.248,0,.642-.158,1.188-.475,1.638-.316.451-.739.789-1.268,1.014-.528.226-1.109.338-1.742.338-.736,0-1.376-.157-1.917-.474Z" style="fill:#fff; stroke-width:0px;"/><line x1="296" y1="19.451" x2="296" y2="136.628" style="fill:none; stroke:#fff; stroke-linecap:round; stroke-linejoin:round; stroke-width:3px;"/><line x1="296" y1="19.451" x2="296" y2="136.628" style="fill:none; stroke:#fff; stroke-linecap:round; stroke-linejoin:round; stroke-width:3px;"/><line x1="296" y1="19.451" x2="296" y2="136.628" style="fill:none; stroke:#fff; stroke-linecap:round; stroke-linejoin:round; stroke-width:3px;"/><path d="m296.262,23.17h-4.342v-1.339l4.251-5.915h1.82v5.668h1.273v1.586h-1.273v2.08h-1.729v-2.08Zm0-1.586v-3.159l-2.274,3.159h2.274Z" style="fill:none; stroke:#fff; stroke-linecap:round; stroke-linejoin:round; stroke-width:3px;"/><circle cx="295.843" cy="20.775" r="8.275" style="fill:none; stroke:#fff; stroke-linecap:round; stroke-linejoin:round; stroke-width:3px;"/><path d="m295.843,12.483c-4.53,0-8.202,3.672-8.202,8.202v.179c0,4.53,3.672,8.202,8.202,8.202s8.202-3.672,8.202-8.202v-.179c0-4.53-3.672-8.202-8.202-8.202Z" style="fill:none; stroke:#fff; stroke-linecap:round; stroke-linejoin:round; stroke-width:3px;"/><path d="m296.262,23.17h-4.342v-1.339l4.251-5.915h1.82v5.668h1.273v1.586h-1.273v2.08h-1.729v-2.08Zm0-1.586v-3.159l-2.274,3.159h2.274Z" style="fill:none; stroke:#fff; stroke-linecap:round; stroke-linejoin:round; stroke-width:3px;"/><line x1="296" y1="19.451" x2="296" y2="136.628" style="fill:none; stroke:#fff; stroke-linecap:round; stroke-linejoin:round; stroke-width:3px;"/><line x1="296" y1="19.451" x2="296" y2="136.628" style="fill:none; stroke:#000001; stroke-linecap:round; stroke-miterlimit:10;"/><circle cx="295.843" cy="20.775" r="8.275" style="fill:#000001; stroke-width:0px;"/><path d="m295.843,12.483c-4.53,0-8.202,3.672-8.202,8.202v.179c0,4.53,3.672,8.202,8.202,8.202s8.202-3.672,8.202-8.202v-.179c0-4.53-3.672-8.202-8.202-8.202Z" style="fill:#000001; stroke-width:0px;"/><path d="m296.262,23.17h-4.342v-1.339l4.251-5.915h1.82v5.668h1.273v1.586h-1.273v2.08h-1.729v-2.08Zm0-1.586v-3.159l-2.274,3.159h2.274Z" style="fill:#fff; stroke-width:0px;"/></g></svg>