<svg xmlns="http://www.w3.org/2000/svg" xmlns:xlink="http://www.w3.org/1999/xlink" width="654" height="208.4702" viewBox="0 0 654 208.4702"><defs><clipPath id="f62f9110-35aa-416c-a097-cb4ad5dbea1f"><rect x="348.5351" y="273.4089" width="291.6772" height="286.8372" style="fill:none"/></clipPath><clipPath id="b210c8f9-4f1d-4389-9fae-6b7c7459f0d7"><polyline points="266.94 530.382 30.672 530.382 30.672 296.689 266.94 296.689 266.94 530.382" style="fill:none"/></clipPath></defs><g id="f75f2d53-5af9-49cb-a187-ffca0a1b8178" data-name="illustration"><g id="a218b184-c3d4-4b6f-9ae0-70ce3d98bdfe" data-name="Offset Group"><path d="M357.6809,195.2219s-4.3435.3726-6.702-.7372c-2.8869-1.3585-12.3661-1.8212-16.5967-1.9644-35.2855-1.1944-144.8362-3.0422-201.0071,2.77" style="fill:none;stroke:#a7abae;stroke-miterlimit:3;stroke-width:0.5000000000025px"/><path d="M357.7036,195.4709s-4.4.384-6.8312-.76c-2.8273-1.3305-12.2356-1.7965-16.4986-1.9408-35.2871-1.1944-144.8215-3.0413-200.9729,2.7691" style="fill:none;stroke:#a7abae;stroke-miterlimit:3;stroke-width:0.5000000000025px"/><path d="M357.7264,195.72s-4.4568.3955-6.96-.7827c-2.7679-1.3025-12.1052-1.7717-16.4007-1.9171-35.2887-1.1945-144.8067-3.0405-200.9387,2.7678" style="fill:none;stroke:#a7abae;stroke-miterlimit:3;stroke-width:0.5000000000025px"/><path d="M357.7492,195.9688s-4.5134.4068-7.09-.8055c-2.7083-1.2745-11.9748-1.747-16.3027-1.8935-35.29-1.1945-144.792-3.04-200.9045,2.7667" style="fill:none;stroke:#a7abae;stroke-miterlimit:3;stroke-width:0.5000000000025px"/></g><path d="M357.772,196.2177s-4.57.4183-7.2189-.8282-11.8444-1.7222-16.2047-1.87c-35.2919-1.1946-144.7773-3.0388-200.87,2.7655" style="fill:none;stroke:#a7abae;stroke-miterlimit:3;stroke-width:0.5000000000025px"/><g id="ae464ffc-bc76-4583-ad83-cd6deafd679f" data-name="Offset Group"><path d="M318.0292,192.367a29.0733,29.0733,0,0,1-6.8483,8.0933c-2.22,1.4662-2.8178,1.3824-4.3754,1.2932-.1911-.011-.3991-.0229-.6227-.0333a8.4479,8.4479,0,0,1-2.2719-.391c.3559-1.2956,1.2224-4.2078,3.0072-9.0624" style="fill:none;stroke:#a7abae;stroke-miterlimit:3;stroke-width:0.5000000000025px"/><path d="M318.248,192.4878a29.3262,29.3262,0,0,1-6.9293,8.1811c-2.2722,1.5-2.9251,1.4259-4.5275,1.3341-.1912-.0109-.3979-.0228-.62-.0331a8.3805,8.3805,0,0,1-2.5615-.4848c.3156-1.1754,1.18-4.1526,3.0738-9.3046" style="fill:none;stroke:#a7abae;stroke-miterlimit:3;stroke-width:0.5000000000025px"/><path d="M318.4669,192.6087a29.5832,29.5832,0,0,1-7.01,8.2688c-2.3242,1.5349-3.0325,1.47-4.68,1.3751-.1914-.0109-.3968-.0227-.6173-.033a8.34,8.34,0,0,1-2.8476-.5865c.264-1.01,1.117-4.0451,3.1368-9.5389" style="fill:none;stroke:#a7abae;stroke-miterlimit:3;stroke-width:0.5000000000025px"/><path d="M318.6857,192.73a29.8387,29.8387,0,0,1-7.0915,8.3565c-2.3761,1.5692-3.14,1.513-4.8316,1.4161-.1915-.0109-.3956-.0226-.6146-.0328a8.2884,8.2884,0,0,1-3.13-.6959c.1914-.7583,1.0181-3.8406,3.1964-9.7655" style="fill:none;stroke:#a7abae;stroke-miterlimit:3;stroke-width:0.5000000000025px"/></g><path d="M318.9045,192.8505a30.0981,30.0981,0,0,1-7.1725,8.4443c-2.6961,1.78-3.4082,1.526-5.5956,1.4243a8,8,0,0,1-3.4082-.8139,96.3421,96.3421,0,0,1,3.2513-9.9835" style="fill:none;stroke:#a7abae;stroke-miterlimit:3;stroke-width:0.5000000000025px"/><g id="a08b09ee-140b-4b94-b922-b2908c28b310" data-name="Offset Group"><path d="M361.1662,174.778h63.1565a4.9909,4.9909,0,0,1,4.9911,4.9911v15.4267a4.9911,4.9911,0,0,1-4.9911,4.9911H361.1662a4.9912,4.9912,0,0,1-4.9911-4.9911V179.7691a4.9911,4.9911,0,0,1,4.9911-4.9911Z" style="fill:none;stroke:#a7abae;stroke-miterlimit:3;stroke-width:0.5000000000025px"/><path d="M361.1662,175.028h63.1565a4.741,4.741,0,0,1,4.7411,4.7411v15.4267a4.7411,4.7411,0,0,1-4.7411,4.7411H361.1662a4.7413,4.7413,0,0,1-4.7411-4.7411V179.7691a4.7411,4.7411,0,0,1,4.7411-4.7411Z" style="fill:none;stroke:#a7abae;stroke-miterlimit:3;stroke-width:0.5000000000025px"/><path d="M361.1662,175.278h63.1565a4.4911,4.4911,0,0,1,4.4911,4.4911v15.4267a4.4911,4.4911,0,0,1-4.4911,4.4911H361.1662a4.4912,4.4912,0,0,1-4.4911-4.4911V179.7691a4.4912,4.4912,0,0,1,4.4911-4.4911Z" style="fill:none;stroke:#a7abae;stroke-miterlimit:3;stroke-width:0.5000000000025px"/><path d="M361.1662,175.528h63.1565a4.2411,4.2411,0,0,1,4.2411,4.2411v15.4267a4.2411,4.2411,0,0,1-4.2411,4.2411H361.1662a4.2411,4.2411,0,0,1-4.2411-4.2411V179.7691a4.2411,4.2411,0,0,1,4.2411-4.2411Z" style="fill:none;stroke:#a7abae;stroke-miterlimit:3;stroke-width:0.5000000000025px"/></g><rect x="357.1751" y="175.778" width="71.1387" height="23.4089" rx="3.9911" style="fill:none;stroke:#a7abae;stroke-miterlimit:3;stroke-width:0.5000000000025px"/><g id="fce41b92-0cc6-47ee-b684-6042e6313d4b" data-name="Offset Group"><path d="M66.3305,174.778H129.487a4.9909,4.9909,0,0,1,4.991,4.9911v15.4267a4.9911,4.9911,0,0,1-4.991,4.9911H66.3305a4.9911,4.9911,0,0,1-4.9911-4.9911V179.7691a4.9909,4.9909,0,0,1,4.9911-4.9911Z" style="fill:none;stroke:#a7abae;stroke-miterlimit:3;stroke-width:0.5000000000025px"/><path d="M66.3305,175.028H129.487a4.741,4.741,0,0,1,4.741,4.7411v15.4267a4.7411,4.7411,0,0,1-4.741,4.7411H66.3305a4.7411,4.7411,0,0,1-4.7411-4.7411V179.7691a4.741,4.741,0,0,1,4.7411-4.7411Z" style="fill:none;stroke:#a7abae;stroke-miterlimit:3;stroke-width:0.5000000000025px"/><path d="M66.3305,175.278H129.487a4.4911,4.4911,0,0,1,4.491,4.4911v15.4267a4.4911,4.4911,0,0,1-4.491,4.4911H66.3305a4.4911,4.4911,0,0,1-4.4911-4.4911V179.7691a4.4911,4.4911,0,0,1,4.4911-4.4911Z" style="fill:none;stroke:#a7abae;stroke-miterlimit:3;stroke-width:0.5000000000025px"/><path d="M66.3305,175.528H129.487a4.241,4.241,0,0,1,4.241,4.2411v15.4267a4.241,4.241,0,0,1-4.241,4.2411H66.3305a4.2411,4.2411,0,0,1-4.2411-4.2411V179.7691a4.2411,4.2411,0,0,1,4.2411-4.2411Z" style="fill:none;stroke:#a7abae;stroke-miterlimit:3;stroke-width:0.5000000000025px"/></g><rect x="62.3394" y="175.778" width="71.1387" height="23.4089" rx="3.9911" style="fill:none;stroke:#a7abae;stroke-miterlimit:3;stroke-width:0.5000000000025px"/><path d="M55.9271,194.1926c-1.9812-3.0646-2.0676-7.041-2.0676-9.7207v-6.6561c0-1.2708.6642-11.0934,20.22-15.3094a1.6279,1.6279,0,0,0,1.291-1.4911l1.6531-28.1813a1.62,1.62,0,0,1,1.6168-1.5247h3.5054a1.6194,1.6194,0,0,1,1.5078,1.0285L89.59,147.483a1.62,1.62,0,0,0,1.5079,1.0285h7.9837a1.6187,1.6187,0,0,1,.7876.2044l18.8578,10.4947a1.6191,1.6191,0,0,0,1.36.1l8.7889-3.3217a1.62,1.62,0,0,1,2.0763.9134l4.5965,11.4913s5.8781,2.5933,5.8781,12.7936v13.858" style="fill:none;stroke:#a7abae;stroke-miterlimit:10"/><path d="M432.4636,194.1217c1.9138,0,4.4459-.882,4.8243-6.0847s.3784-14.5675.473-16.3648a9.2,9.2,0,0,0-1.9865-6.1486c-1.4573-1.6395-8.7028-10.7334-14.221-15.5442a.8267.8267,0,0,1-.0884-1.1658l2.8534-3.3111v-8.9281a3.8632,3.8632,0,0,0-3.8632-3.8632h-9.8613l-5.5447-1.4273H402.35a1.3636,1.3636,0,0,0-1.3637,1.3636V138.86h-7.521l-1.3176,13.8892-18.94-.8235c-1.9214-3.1292-6.3682-2.3606-10.7051.6588s-13.9441,10.4306-13.9441,29.2606v9.9366a4.2606,4.2606,0,0,0,1.994,3.608" style="fill:none;stroke:#a7abae;stroke-miterlimit:10;stroke-width:0.5px"/><path d="M462.5208,163.72a243.4536,243.4536,0,0,1-26.7464,1.804" style="fill:none;stroke:#a7abae;stroke-miterlimit:10;stroke-width:0.5px"/><line x1="431.8116" y1="160.8274" x2="431.8116" y2="112.9928" style="fill:none;stroke:#a7abae;stroke-miterlimit:10;stroke-width:0.5px"/><path d="M465.5434,146.3521c-8.65,1.8535-25.1547,2.2948-32.48.9708" style="fill:none;stroke:#a7abae;stroke-miterlimit:10;stroke-width:0.5px"/><path d="M418.7541,132.71a3.5279,3.5279,0,0,0-1.4619,2.8676,3.5653,3.5653,0,0,0,7.019.89" style="fill:none;stroke:#a7abae;stroke-miterlimit:10;stroke-width:0.5px"/><path d="M422.5609,138.7184s.0726,2.0064,0,3.266a5.3164,5.3164,0,0,1-2.4868,3.8311c-1.6794,1.26-8.292,5.5629-8.292,5.5629l-14.4847,24.666" style="fill:none;stroke:#a7abae;stroke-miterlimit:10;stroke-width:0.5px"/><path d="M420.3365,139.1484v2.4686a3.1532,3.1532,0,0,1-1.7843,2.7815c-1.8369.8922-13.33,7.0324-15.7968,8.1345s-4.7757-.3149-4.9332-3.1488,0-10.5244,0-10.5244" style="fill:none;stroke:#a7abae;stroke-miterlimit:10;stroke-width:0.5px"/><polyline points="394.516 138.718 392.522 171.059 391.734 175.778" style="fill:none;stroke:#a7abae;stroke-miterlimit:10;stroke-width:0.5px"/><path d="M397.3474,170.61l6.8631-12.2856a.4136.4136,0,0,0-.5837-.55l-6.5665,4.1941a.4138.4138,0,0,0-.1907.3334l-.2965,8.0916A.4135.4135,0,0,0,397.3474,170.61Z" style="fill:none;stroke:#a7abae;stroke-miterlimit:10;stroke-width:0.5px"/><polygon points="411.914 151.591 395.093 161.77 411.65 151.166 411.914 151.591 411.914 151.591" style="fill:#a7abae"/><path d="M360.0559,112.9928V142.12s-14.2039,4.6464-18.5826,28.7019" style="fill:none;stroke:#a7abae;stroke-miterlimit:10;stroke-width:0.5px"/><path d="M347.0268,184.6254V170.8223h-25.204s-2.67.56-4.699-2.43-5.8738-9.0777-5.8738-9.0777" style="fill:none;stroke:#a7abae;stroke-miterlimit:10;stroke-width:0.5px"/><path d="M342.1141,112.9928v19.7991a3.4857,3.4857,0,0,1-3.12,3.4664l-14.138,1.49a2.1952,2.1952,0,0,0-1.9651,2.1831V149.23a3.9994,3.9994,0,0,1-1.7919,3.3349L307.1917,161.77H132.8037" style="fill:none;stroke:#a7abae;stroke-miterlimit:10;stroke-width:0.5px"/><polyline points="348.559 184.625 345.638 184.625 343.289 185.693 141.427 185.693" style="fill:none;stroke:#a7abae;stroke-miterlimit:10;stroke-width:0.5px"/><line x1="178.2884" y1="161.7696" x2="178.2884" y2="112.9928" style="fill:none;stroke:#a7abae;stroke-miterlimit:10;stroke-width:0.5px"/><line x1="142.9388" y1="161.7696" x2="142.9388" y2="112.9928" style="fill:none;stroke:#a7abae;stroke-miterlimit:10;stroke-width:0.5px"/><circle cx="278.3567" cy="154.2952" r="1.6553" style="fill:none;stroke:#a7abae;stroke-miterlimit:10;stroke-width:0.5px"/><circle cx="243.8725" cy="154.2952" r="1.6553" style="fill:none;stroke:#a7abae;stroke-miterlimit:10;stroke-width:0.5px"/><circle cx="210.2528" cy="154.2952" r="1.6553" style="fill:none;stroke:#a7abae;stroke-miterlimit:10;stroke-width:0.5px"/><circle cx="278.3567" cy="116.7034" r="1.6553" style="fill:none;stroke:#a7abae;stroke-miterlimit:10;stroke-width:0.5px"/><circle cx="243.8725" cy="116.7034" r="1.6553" style="fill:none;stroke:#a7abae;stroke-miterlimit:10;stroke-width:0.5px"/><circle cx="210.2528" cy="116.7033" r="1.6553" style="fill:none;stroke:#a7abae;stroke-miterlimit:10;stroke-width:0.5px"/><line x1="332.3957" y1="128.6641" x2="186.2982" y2="128.6641" style="fill:none;stroke:#a7abae;stroke-miterlimit:10;stroke-width:0.5px"/><line x1="332.3957" y1="134.5379" x2="186.2982" y2="134.5379" style="fill:none;stroke:#a7abae;stroke-miterlimit:10;stroke-width:0.5px"/><line x1="314.6674" y1="144.1496" x2="186.2982" y2="144.1496" style="fill:none;stroke:#a7abae;stroke-miterlimit:10;stroke-width:0.5px"/><line x1="314.6674" y1="147.6738" x2="186.2982" y2="147.6738" style="fill:none;stroke:#a7abae;stroke-miterlimit:10;stroke-width:0.5px"/><path d="M77.4094,131.8861v-2.9747a.9064.9064,0,0,0-.9064-.9065H68.5572a.9064.9064,0,0,1-.9064-.9064V112.9928" style="fill:none;stroke:#a7abae;stroke-miterlimit:10;stroke-width:0.5px"/><path d="M53.86,184.4719c-9.9294-2.4131-13.498-2.8329-16.0171-9.76S32.49,139.1246,32.49,112.9928" style="fill:none;stroke:#a7abae;stroke-miterlimit:10;stroke-width:0.5px"/><path d="M28.3961,112.9928v15.9553a1.32,1.32,0,0,1-1.26,1.3182l-22.9558,1.043" style="fill:none;stroke:#a7abae;stroke-miterlimit:10;stroke-width:0.5px"/><polyline points="13.154 176.902 11.323 167.824 8.995 166.837" style="fill:none;stroke:#a7abae;stroke-miterlimit:10;stroke-width:0.5px"/><path d="M5.3648,145.5724s.1428-1.2995,1.96-1.59c0,0-.98-15.8933-.98-30.9893" style="fill:none;stroke:#a7abae;stroke-miterlimit:10;stroke-width:0.5px"/><path d="M135.2872,167.74a18.9823,18.9823,0,0,0-7.5153-1.5152H91.11" style="fill:none;stroke:#a7abae;stroke-miterlimit:10;stroke-width:0.5px"/><path d="M80.16,166.2252c-10.8308,0-26.3006,2.3829-26.3006,14.6107" style="fill:none;stroke:#a7abae;stroke-miterlimit:10;stroke-width:0.5px"/><path d="M427.0005,177.8825c0-5.2834-1.34-10.4158-3.3128-12.3589s-5.6366-5.0432-5.6366-5.0432-3.7307-1.9024-6.269-1.9024h-4.2278" style="fill:none;stroke:#a7abae;stroke-miterlimit:10;stroke-width:0.5px"/><path d="M393.2913,158.578H367.9558c-2.8183,0-10.9913,1.6206-13.3869,7.8913a58.1244,58.1244,0,0,0-3.8043,18.69v10.23" style="fill:none;stroke:#a7abae;stroke-miterlimit:10;stroke-width:0.5px"/><path d="M90.866,175.778l-.6915-5.3127a11.616,11.616,0,0,1,.9357-3.8614c.8193-1.67,2.9084-7.7083-2.081-14.3015-1.9991-2.335-4.3224-4.8547-5.1808-8.8031s-1.205-6.2317-1.205-6.2317l-3.0354.5549s.3928,1.9883.9189,5.9945-.8094,7.1627-1.902,10.0359c-2.4685,7.8911,1.5378,12.8686,2.8732,14.1635a11.6168,11.6168,0,0,1,2.1852,3.3183l.9712,4.4433" style="fill:none;stroke:#a7abae;stroke-miterlimit:10;stroke-width:0.5px"/><path d="M89.5106,172.63l-4.1681.7284s-.2848-1.5283,1.84-1.8925S89.5106,172.63,89.5106,172.63Z" style="fill:none;stroke:#a7abae;stroke-miterlimit:10;stroke-width:0.5px"/><circle cx="85.3297" cy="161.7697" r="1.6622" style="fill:none;stroke:#a7abae;stroke-miterlimit:10;stroke-width:0.5px"/><g id="fcd4ff15-d4c3-4bbc-a12e-3d2e112999b5" data-name="Offset Group"><path d="M428.3138,32.8639h6.0636a6.123,6.123,0,0,1,3.455,1.0488l.1057.0806.1266.0507c2.4054.9621,10.0273,8.8954,14.2957,13.361.6817.7132,1.267,1.3255,1.7115,1.7827l.06.0614,0,0c2.951,3.0351,4.2192,4.2795,7.4469,13.3519l.0186.0524.0244.05c4.7624,9.7845,5.5871,38.38,5.5871,50.2891s-.8247,40.5046-5.5871,50.2891l-.0244.05-.0186.0525c-3.2277,9.0724-4.4959,10.3167-7.4469,13.3519l-.06.0616c-.4445.4572-1.03,1.07-1.7115,1.7826-4.2684,4.4656-11.89,12.3989-14.2957,13.3611l-.1266.0506-.1057.0807a6.123,6.123,0,0,1-3.455,1.0488h-6.0636" style="fill:none;stroke:#a7abae;stroke-miterlimit:3;stroke-width:0.5000000000025px"/><path d="M428.3138,32.6139h6.0636a6.4085,6.4085,0,0,1,3.6059,1.0995l.08.0606.0946.0379c2.4715.9885,10.1483,8.99,14.3835,13.42.682.7135,1.2664,1.3249,1.71,1.7811l.06.0614,0,0c2.98,3.0652,4.2657,4.3422,7.5355,13.5192,4.7938,9.8491,5.6123,38.5169,5.6123,50.3986s-.8185,40.5494-5.6446,50.4754c-3.2375,9.1-4.5229,10.3771-7.5032,13.4423l-.06.0616c-.4436.4563-1.028,1.0677-1.71,1.7812-4.2352,4.4309-11.912,12.4318-14.3835,13.42l-.0946.0379-.08.0606a6.4085,6.4085,0,0,1-3.6059,1.1h-6.0636" style="fill:none;stroke:#a7abae;stroke-miterlimit:3;stroke-width:0.5000000000025px"/><path d="M428.3138,32.3639h6.0636a6.6942,6.6942,0,0,1,3.7568,1.15l.0534.0405.0628.0251c2.5376,1.0151,10.2694,9.0837,14.4715,13.48.6822.7137,1.2658,1.3243,1.7085,1.78l.06.0613,0,0c3.01,3.0953,4.3122,4.405,7.5811,13.5841,4.8252,9.9137,5.6375,38.6534,5.6375,50.508s-.8123,40.5943-5.659,50.5592c-3.2474,9.1278-4.55,10.4376-7.56,13.5328l-.06.0616c-.4427.4553-1.0263,1.0658-1.7085,1.78-4.2021,4.3962-11.9339,12.4648-14.4715,13.48l-.0628.0252-.0534.04a6.6942,6.6942,0,0,1-3.7568,1.15h-6.0636" style="fill:none;stroke:#a7abae;stroke-miterlimit:3;stroke-width:0.5000000000025px"/><path d="M428.3138,32.1139h6.0636a7.1043,7.1043,0,0,1,3.9659,1.2337c2.6036,1.0415,10.39,9.1778,14.5593,13.5392.6826.7141,1.2653,1.3237,1.707,1.7781l.06.0613,0,0c3.0387,3.1253,4.3585,4.4677,7.6266,13.6489,4.8566,9.9782,5.6627,38.79,5.6627,50.6174s-.8061,40.6392-5.6735,50.643c-3.2573,9.1556-4.5771,10.498-7.6158,13.6233l-.06.0616c-.4417.4543-1.0244,1.064-1.707,1.7781-4.1689,4.3614-11.9557,12.4977-14.6174,13.572a6.9806,6.9806,0,0,1-3.9078,1.2009h-6.0636" style="fill:none;stroke:#a7abae;stroke-miterlimit:3;stroke-width:0.5000000000025px"/></g><path d="M428.3138,31.8639h6.0636a7.2667,7.2667,0,0,1,4.0587,1.2516c3.1106,1.2442,13.2422,12.1757,16.3528,15.3751s4.4436,4.5326,7.7319,13.7754c4.8881,10.0427,5.688,38.9266,5.688,50.7268s-.8,40.684-5.688,50.7268c-3.2883,9.2428-4.6214,10.5759-7.7319,13.7753s-13.2422,14.1309-16.3528,15.3752a7.2667,7.2667,0,0,1-4.0587,1.2516h-6.0636" style="fill:none;stroke:#a7abae;stroke-miterlimit:3;stroke-width:0.5000000000025px"/><g id="baf33416-9e45-495a-a494-bb3f5502f649" data-name="Offset Group"><path d="M357.8631,28.772s-4.7967-.4639-7.7358.9193c-2.4109,1.1345-11.3228,1.6232-15.8127,1.7751-35.2984,1.1948-144.7183,3.0355-200.7336-2.7607" style="fill:none;stroke:#a7abae;stroke-miterlimit:3;stroke-width:0.5000000000025px"/><path d="M357.84,29.021s-4.74-.4525-7.6066.8965c-2.47,1.1625-11.4531,1.6479-15.9107,1.7988-35.2967,1.1947-144.733,3.0363-200.7678-2.7619" style="fill:none;stroke:#a7abae;stroke-miterlimit:3;stroke-width:0.5000000000025px"/><path d="M357.8176,29.27s-4.6834-.441-7.4774.8738c-2.53,1.1905-11.5836,1.6727-16.0087,1.8225-35.2951,1.1946-144.7478,3.0371-200.802-2.7632" style="fill:none;stroke:#a7abae;stroke-miterlimit:3;stroke-width:0.5000000000025px"/><path d="M357.7948,29.5189s-4.6268-.43-7.3482.851c-2.5893,1.2185-11.714,1.6974-16.1067,1.8461-35.2935,1.1946-144.7625,3.038-200.8361-2.7643" style="fill:none;stroke:#a7abae;stroke-miterlimit:3;stroke-width:0.5000000000025px"/></g><path d="M357.772,29.7678s-4.57-.4182-7.2189.8283-11.8444,1.7222-16.2047,1.87C299.0565,33.66,189.5711,35.5047,133.478,29.7" style="fill:none;stroke:#a7abae;stroke-miterlimit:3;stroke-width:0.5000000000025px"/><g id="a6ec60e1-e50c-4605-81d8-55493410515a" data-name="Offset Group"><path d="M319.76,32.1448a32.7593,32.7593,0,0,0-7.4767-8.2885c-2.6359-1.7406-3.6763-1.7307-5.592-1.6209-.1922.011-.39.0223-.6012.0321a9.333,9.333,0,0,0-3.8656.9491l-.5441.3086.05.6168s.1619,2.005,2.71,8.936" style="fill:none;stroke:#a7abae;stroke-miterlimit:3;stroke-width:0.5000000000025px"/><path d="M319.546,32.2743a32.4861,32.4861,0,0,0-7.4007-8.2093c-2.5839-1.7064-3.569-1.6872-5.44-1.58-.192.011-.391.0224-.6039.0323a8.9977,8.9977,0,0,0-3.7512.9152l-.4061.2318.0354.4623s.1483,1.9374,2.6952,8.8651" style="fill:none;stroke:#a7abae;stroke-miterlimit:3;stroke-width:0.5000000000025px"/><path d="M319.3322,32.4039a32.2118,32.2118,0,0,0-7.3247-8.13c-2.532-1.6721-3.4616-1.6436-5.2878-1.539-.1919.011-.3922.0224-.6065.0324a8.6644,8.6644,0,0,0-3.637.8815l-.2693.1547.0222.308s.1346,1.87,2.68,8.7943" style="fill:none;stroke:#a7abae;stroke-miterlimit:3;stroke-width:0.5000000000025px"/><path d="M319.1184,32.5334a31.939,31.939,0,0,0-7.2486-8.0512c-2.48-1.6378-3.3544-1.6-5.1358-1.498-.1918.0109-.3933.0225-.6092.0325a8.3323,8.3323,0,0,0-3.5226.8477l-.1339.0775.01.1539s.1209,1.802,2.6655,8.7234" style="fill:none;stroke:#a7abae;stroke-miterlimit:3;stroke-width:0.5000000000025px"/></g><path d="M318.9045,32.663a31.6661,31.6661,0,0,0-7.1725-7.9722c-2.6961-1.78-3.4082-1.5261-5.5956-1.4243a8,8,0,0,0-3.4082.8139s.1071,1.7343,2.6506,8.6526" style="fill:none;stroke:#a7abae;stroke-miterlimit:3;stroke-width:0.5000000000025px"/><g id="b3b4198d-efa2-4f77-ab42-27e3cb4d9f32" data-name="Offset Group"><path d="M361.1662,51.2076h63.1565a4.9911,4.9911,0,0,0,4.9911-4.9911V30.79a4.9911,4.9911,0,0,0-4.9911-4.9911H361.1662a4.9912,4.9912,0,0,0-4.9911,4.9911V46.2165a4.9912,4.9912,0,0,0,4.9911,4.9911Z" style="fill:none;stroke:#a7abae;stroke-miterlimit:3;stroke-width:0.5000000000025px"/><path d="M361.1662,50.9576h63.1565a4.7411,4.7411,0,0,0,4.7411-4.7411V30.79a4.741,4.741,0,0,0-4.7411-4.7411H361.1662a4.7411,4.7411,0,0,0-4.7411,4.7411V46.2165a4.7413,4.7413,0,0,0,4.7411,4.7411Z" style="fill:none;stroke:#a7abae;stroke-miterlimit:3;stroke-width:0.5000000000025px"/><path d="M361.1662,50.7076h63.1565a4.4911,4.4911,0,0,0,4.4911-4.4911V30.79a4.4911,4.4911,0,0,0-4.4911-4.4911H361.1662a4.4912,4.4912,0,0,0-4.4911,4.4911V46.2165a4.4912,4.4912,0,0,0,4.4911,4.4911Z" style="fill:none;stroke:#a7abae;stroke-miterlimit:3;stroke-width:0.5000000000025px"/><path d="M361.1662,50.4576h63.1565a4.2411,4.2411,0,0,0,4.2411-4.2411V30.79a4.2411,4.2411,0,0,0-4.2411-4.2411H361.1662a4.2411,4.2411,0,0,0-4.2411,4.2411V46.2165a4.2411,4.2411,0,0,0,4.2411,4.2411Z" style="fill:none;stroke:#a7abae;stroke-miterlimit:3;stroke-width:0.5000000000025px"/></g><rect x="357.1751" y="26.7987" width="71.1387" height="23.4089" rx="3.9911" style="fill:none;stroke:#a7abae;stroke-miterlimit:3;stroke-width:0.5000000000025px"/><g id="a144caf6-70a2-4b7e-9f59-d31e0ed36034" data-name="Offset Group"><path d="M66.3305,51.2076H129.487a4.9911,4.9911,0,0,0,4.991-4.9911V30.79a4.9911,4.9911,0,0,0-4.991-4.9911H66.3305A4.9911,4.9911,0,0,0,61.3394,30.79V46.2165a4.9911,4.9911,0,0,0,4.9911,4.9911Z" style="fill:none;stroke:#a7abae;stroke-miterlimit:3;stroke-width:0.5000000000025px"/><path d="M66.3305,50.9576H129.487a4.7411,4.7411,0,0,0,4.741-4.7411V30.79a4.741,4.741,0,0,0-4.741-4.7411H66.3305A4.741,4.741,0,0,0,61.5894,30.79V46.2165a4.7411,4.7411,0,0,0,4.7411,4.7411Z" style="fill:none;stroke:#a7abae;stroke-miterlimit:3;stroke-width:0.5000000000025px"/><path d="M66.3305,50.7076H129.487a4.4911,4.4911,0,0,0,4.491-4.4911V30.79a4.4911,4.4911,0,0,0-4.491-4.4911H66.3305A4.4911,4.4911,0,0,0,61.8394,30.79V46.2165a4.4911,4.4911,0,0,0,4.4911,4.4911Z" style="fill:none;stroke:#a7abae;stroke-miterlimit:3;stroke-width:0.5000000000025px"/><path d="M66.3305,50.4576H129.487a4.241,4.241,0,0,0,4.241-4.2411V30.79a4.241,4.241,0,0,0-4.241-4.2411H66.3305A4.2411,4.2411,0,0,0,62.0894,30.79V46.2165a4.2411,4.2411,0,0,0,4.2411,4.2411Z" style="fill:none;stroke:#a7abae;stroke-miterlimit:3;stroke-width:0.5000000000025px"/></g><rect x="62.3394" y="26.7987" width="71.1387" height="23.4089" rx="3.9911" style="fill:none;stroke:#a7abae;stroke-miterlimit:3;stroke-width:0.5000000000025px"/><g id="e419437d-618c-4067-9c47-f5723dafaa72" data-name="Offset Group"><path d="M62.4877,29.9445a62.9321,62.9321,0,0,0-8.9246,1.3647,13.48,13.48,0,0,0-2.8087,1.2191A6.3506,6.3506,0,0,1,48.96,33.28c-.0876.0209-.2418.0555-.4693.1066-3.1621.7095-18.8407,4.2207-29.7584,10.496a31.77,31.77,0,0,0-7.4442,5.6451l.0789-.0762s-1.9359,1.9018-3.33,9.3836c-1.2416,2.7207-4.21,17.0525-3.6836,21.5522-.872,4.8791-1.63,20.637-1.63,32.6059s.7585,27.7267,1.6305,32.6059c-.5265,4.5,2.442,18.8315,3.6836,21.5522,1.3945,7.4817,3.33,9.3836,3.33,9.3836l-.0789-.0762a31.7731,31.7731,0,0,0,7.4442,5.6451c10.9177,6.2752,26.5963,9.7864,29.7584,10.496.2275.051.3817.0857.4693.1065a6.3508,6.3508,0,0,1,1.7945.7514,13.4849,13.4849,0,0,0,2.8087,1.2191,62.9473,62.9473,0,0,0,8.9246,1.3647" style="fill:none;stroke:#a7abae;stroke-miterlimit:3;stroke-width:0.5000000000025px"/><path d="M62.51,30.1935a62.8923,62.8923,0,0,0-8.8723,1.3545,13.2322,13.2322,0,0,0-2.762,1.1992,6.5921,6.5921,0,0,1-1.8574.7756c-.09.0214-.2459.0565-.4724.1073-3.1671.7107-18.8087,4.2153-29.6886,10.4689A31.3072,31.3072,0,0,0,11.53,49.64s-1.8628,1.7821-3.2538,9.27c-1.2141,2.5907-4.2159,17.0671-3.671,21.4839-.87,4.8086-1.6332,20.5958-1.6332,32.5984s.7631,27.79,1.6332,32.5984c-.5449,4.4168,2.4569,18.8931,3.671,21.4839,1.391,7.4882,3.2538,9.27,3.1947,9.2131a31.522,31.522,0,0,0,7.3855,5.5984c10.88,6.2535,26.5215,9.7582,29.6886,10.4689.2265.0508.3828.0859.4724.1072a6.5922,6.5922,0,0,1,1.8574.7757,13.2376,13.2376,0,0,0,2.762,1.1992,62.9076,62.9076,0,0,0,8.8723,1.3545" style="fill:none;stroke:#a7abae;stroke-miterlimit:3;stroke-width:0.5000000000025px"/><path d="M62.5314,30.4425a62.8835,62.8835,0,0,0-8.82,1.3442A12.9958,12.9958,0,0,0,50.996,32.966a6.8306,6.8306,0,0,1-1.92.8c-.0916.0219-.25.0574-.4756.108-3.1719.7118-18.7767,4.21-29.6187,10.4417a31.1357,31.1357,0,0,0-7.2875,5.5136s-1.7895,1.6619-3.1774,9.1586C7.3312,61.4424,4.2943,76.07,4.8585,80.4013c-.8682,4.7356-1.6361,20.554-1.6361,32.5915s.7679,27.8558,1.6361,32.5915c-.5642,4.3308,2.4727,18.9589,3.658,21.4133,1.3879,7.4968,3.1774,9.1586,3.138,9.12a31.2781,31.2781,0,0,0,7.3269,5.5518c10.842,6.2317,26.4468,9.73,29.6187,10.4416.2256.0506.384.0862.4756.108a6.8365,6.8365,0,0,1,1.92.8,12.9851,12.9851,0,0,0,2.7153,1.1793,62.868,62.868,0,0,0,8.82,1.3442" style="fill:none;stroke:#a7abae;stroke-miterlimit:3;stroke-width:0.5000000000025px"/><path d="M62.5533,30.6916a62.8483,62.8483,0,0,0-8.7679,1.3339,12.7511,12.7511,0,0,0-2.6686,1.1594,7.0727,7.0727,0,0,1-1.9832.8243c-.0936.0223-.2541.0584-.4788.1088C45.478,34.8308,29.91,38.3225,19.106,44.5324a30.9645,30.9645,0,0,0-7.2486,5.4861s-1.7215,1.546-3.0838,9.0143c-1.1452,2.2023-4.27,17.21-3.6545,21.334-.8693,4.6077-1.6467,20.5167-1.6467,32.626s.7774,28.0182,1.645,32.5435c-.6135,4.2069,2.511,19.2142,3.6322,21.3464,1.3863,7.5384,3.1078,9.0844,3.0881,9.0654a31.0366,31.0366,0,0,0,7.2683,5.505c10.8041,6.21,26.372,9.7016,29.5488,10.4145.2247.05.3852.0864.4788.1087a7.0756,7.0756,0,0,1,1.9832.8243,12.745,12.745,0,0,0,2.6686,1.16,62.8483,62.8483,0,0,0,8.7679,1.3339" style="fill:none;stroke:#a7abae;stroke-miterlimit:3;stroke-width:0.5000000000025px"/></g><path d="M62.5752,30.9406A62.82,62.82,0,0,0,53.86,32.2643c-2.5069.7779-2.8526,1.5559-4.6679,1.9881S21.4433,40.0568,12.0209,50.2076c0,0-1.6424,1.42-3.0255,8.9405C7.8717,61.3092,4.76,76.2639,5.3648,80.4132c-.8644,4.5815-1.6424,20.468-1.6424,32.58s.778,27.9981,1.6424,32.58c-.6051,4.1493,2.5069,19.104,3.6306,21.2651,1.3831,7.52,3.0255,8.94,3.0255,8.94,9.4224,10.1507,35.3553,15.5229,37.1707,15.9551s2.161,1.21,4.6679,1.9882a62.82,62.82,0,0,0,8.7157,1.3237" style="fill:none;stroke:#a7abae;stroke-miterlimit:3;stroke-width:0.5000000000025px"/><path d="M55.9271,31.793c-1.9812,3.0645-2.0676,7.0409-2.0676,9.7207V48.17c0,1.2708.6642,11.0934,20.22,15.3094A1.6278,1.6278,0,0,1,75.37,64.97l1.6531,28.1814A1.62,1.62,0,0,0,78.64,94.6763h3.5054a1.6194,1.6194,0,0,0,1.5078-1.0285L89.59,78.5026a1.62,1.62,0,0,1,1.5079-1.0285h7.9837a1.62,1.62,0,0,0,.7876-.2044l18.8578-10.4948a1.62,1.62,0,0,1,1.36-.1l8.7889,3.3218a1.62,1.62,0,0,0,2.0763-.9135l4.5965-11.4913s5.8781-2.5933,5.8781-12.7936V30.9406" style="fill:none;stroke:#a7abae;stroke-miterlimit:10"/><path d="M432.4636,31.8639c1.9138,0,4.4459.8819,4.8243,6.0846s.3784,14.5676.473,16.3648a9.2,9.2,0,0,1-1.9865,6.1487c-1.4573,1.6394-8.7028,10.7334-14.221,15.5442a.8266.8266,0,0,0-.0884,1.1657l2.8534,3.3112v8.9281a3.8631,3.8631,0,0,1-3.8632,3.8631h-9.8613l-5.5447,1.4274H402.35a1.3636,1.3636,0,0,1-1.3637-1.3637V87.1258h-7.521l-1.3176-13.8892-18.94.8234c-1.9214,3.1292-6.3682,2.3607-10.7051-.6587s-13.9441-10.4307-13.9441-29.2607V34.2041a4.26,4.26,0,0,1,1.994-3.608" style="fill:none;stroke:#a7abae;stroke-miterlimit:10;stroke-width:0.5px"/><path d="M462.5208,62.266a243.4536,243.4536,0,0,0-26.7464-1.804" style="fill:none;stroke:#a7abae;stroke-miterlimit:10;stroke-width:0.5px"/><line x1="431.8116" y1="65.1582" x2="431.8116" y2="112.9928" style="fill:none;stroke:#a7abae;stroke-miterlimit:10;stroke-width:0.5px"/><path d="M465.5434,79.6335c-8.65-1.8535-25.1547-2.2948-32.48-.9709" style="fill:none;stroke:#a7abae;stroke-miterlimit:10;stroke-width:0.5px"/><path d="M424.3112,89.5173a3.5646,3.5646,0,1,0-5.5571,3.7578" style="fill:none;stroke:#a7abae;stroke-miterlimit:10;stroke-width:0.5px"/><path d="M422.5609,87.2672s.0726-2.0065,0-3.266a5.3162,5.3162,0,0,0-2.4868-3.8311c-1.6794-1.26-8.292-5.563-8.292-5.563l-14.4847-24.666" style="fill:none;stroke:#a7abae;stroke-miterlimit:10;stroke-width:0.5px"/><path d="M420.3365,86.8372V84.3686a3.1532,3.1532,0,0,0-1.7843-2.7815c-1.8369-.8922-13.33-7.0325-15.7968-8.1346s-4.7757.3149-4.9332,3.1489,0,10.5244,0,10.5244" style="fill:none;stroke:#a7abae;stroke-miterlimit:10;stroke-width:0.5px"/><polyline points="394.516 87.267 392.522 54.927 391.734 50.208" style="fill:none;stroke:#a7abae;stroke-miterlimit:10;stroke-width:0.5px"/><path d="M397.3474,55.3759l6.8631,12.2857a.4136.4136,0,0,1-.5837.55L397.06,64.0177a.4136.4136,0,0,1-.1907-.3334l-.2965-8.0915A.4135.4135,0,0,1,397.3474,55.3759Z" style="fill:none;stroke:#a7abae;stroke-miterlimit:10;stroke-width:0.5px"/><polygon points="411.65 74.819 395.093 64.216 411.914 74.395 411.65 74.819 411.65 74.819" style="fill:#a7abae"/><path d="M360.0559,112.9928V83.8651s-14.2039-4.6464-18.5826-28.7019" style="fill:none;stroke:#a7abae;stroke-miterlimit:10;stroke-width:0.5px"/><path d="M347.0268,41.36v13.803h-25.204s-2.67-.56-4.699,2.43-5.8738,9.0777-5.8738,9.0777" style="fill:none;stroke:#a7abae;stroke-miterlimit:10;stroke-width:0.5px"/><path d="M342.1141,112.9928V93.1937a3.4856,3.4856,0,0,0-3.12-3.4664l-14.138-1.49a2.1952,2.1952,0,0,1-1.9651-2.1831V76.756a3.9993,3.9993,0,0,0-1.7919-3.3349l-13.9072-9.2052H132.8037" style="fill:none;stroke:#a7abae;stroke-miterlimit:10;stroke-width:0.5px"/><polyline points="348.559 41.36 345.638 41.36 343.289 40.292 141.427 40.292" style="fill:none;stroke:#a7abae;stroke-miterlimit:10;stroke-width:0.5px"/><line x1="178.2884" y1="64.2159" x2="178.2884" y2="112.9928" style="fill:none;stroke:#a7abae;stroke-miterlimit:10;stroke-width:0.5px"/><line x1="142.9388" y1="64.2159" x2="142.9388" y2="112.9928" style="fill:none;stroke:#a7abae;stroke-miterlimit:10;stroke-width:0.5px"/><circle cx="278.3567" cy="71.6904" r="1.6553" style="fill:none;stroke:#a7abae;stroke-miterlimit:10;stroke-width:0.5px"/><circle cx="243.8725" cy="71.6904" r="1.6553" style="fill:none;stroke:#a7abae;stroke-miterlimit:10;stroke-width:0.5px"/><circle cx="210.2528" cy="71.6904" r="1.6553" style="fill:none;stroke:#a7abae;stroke-miterlimit:10;stroke-width:0.5px"/><circle cx="278.3567" cy="109.2822" r="1.6553" style="fill:none;stroke:#a7abae;stroke-miterlimit:10;stroke-width:0.5px"/><circle cx="243.8725" cy="109.2822" r="1.6553" style="fill:none;stroke:#a7abae;stroke-miterlimit:10;stroke-width:0.5px"/><circle cx="210.2528" cy="109.2822" r="1.6553" style="fill:none;stroke:#a7abae;stroke-miterlimit:10;stroke-width:0.5px"/><line x1="332.3957" y1="97.3215" x2="186.2982" y2="97.3215" style="fill:none;stroke:#a7abae;stroke-miterlimit:10;stroke-width:0.5px"/><line x1="332.3957" y1="91.4477" x2="186.2982" y2="91.4477" style="fill:none;stroke:#a7abae;stroke-miterlimit:10;stroke-width:0.5px"/><line x1="314.6674" y1="81.836" x2="186.2982" y2="81.836" style="fill:none;stroke:#a7abae;stroke-miterlimit:10;stroke-width:0.5px"/><line x1="314.6674" y1="78.3117" x2="186.2982" y2="78.3117" style="fill:none;stroke:#a7abae;stroke-miterlimit:10;stroke-width:0.5px"/><path d="M77.4094,94.0994v2.9748a.9064.9064,0,0,1-.9064.9064H68.5572a.9065.9065,0,0,0-.9064.9065v14.1057" style="fill:none;stroke:#a7abae;stroke-miterlimit:10;stroke-width:0.5px"/><path d="M53.86,41.5137c-9.9294,2.4131-13.498,2.8329-16.0171,9.76S32.49,86.861,32.49,112.9928" style="fill:none;stroke:#a7abae;stroke-miterlimit:10;stroke-width:0.5px"/><path d="M28.3961,112.9928V97.0375a1.32,1.32,0,0,0-1.26-1.3182L4.1807,94.6763" style="fill:none;stroke:#a7abae;stroke-miterlimit:10;stroke-width:0.5px"/><polyline points="13.154 49.084 11.323 58.161 8.995 59.148" style="fill:none;stroke:#a7abae;stroke-miterlimit:10;stroke-width:0.5px"/><path d="M5.3648,80.4132s.1428,1.2995,1.96,1.59c0,0-.98,15.8934-.98,30.9894" style="fill:none;stroke:#a7abae;stroke-miterlimit:10;stroke-width:0.5px"/><path d="M135.2872,58.2451a18.9823,18.9823,0,0,1-7.5153,1.5152H91.11" style="fill:none;stroke:#a7abae;stroke-miterlimit:10;stroke-width:0.5px"/><path d="M80.16,59.76C69.3293,59.76,53.86,57.3774,53.86,45.15" style="fill:none;stroke:#a7abae;stroke-miterlimit:10;stroke-width:0.5px"/><path d="M427.0005,48.1031c0,5.2834-1.34,10.4158-3.3128,12.3589s-5.6366,5.0432-5.6366,5.0432-3.7307,1.9023-6.269,1.9023h-4.2278" style="fill:none;stroke:#a7abae;stroke-miterlimit:10;stroke-width:0.5px"/><path d="M393.2913,67.4075H367.9558c-2.8183,0-10.9913-1.62-13.3869-7.8912a58.1249,58.1249,0,0,1-3.8043-18.69v-10.23" style="fill:none;stroke:#a7abae;stroke-miterlimit:10;stroke-width:0.5px"/><path d="M90.866,50.2076,90.1745,55.52a11.6169,11.6169,0,0,0,.9357,3.8615c.8193,1.67,2.9084,7.7083-2.081,14.3014-1.9991,2.3351-4.3224,4.8548-5.1808,8.8032s-1.205,6.2317-1.205,6.2317l-3.0354-.555s.3928-1.9882.9189-5.9944-.8094-7.1627-1.902-10.0359c-2.4685-7.8911,1.5378-12.8686,2.8732-14.1635a11.6166,11.6166,0,0,0,2.1852-3.3184l.9712-4.4432" style="fill:none;stroke:#a7abae;stroke-miterlimit:10;stroke-width:0.5px"/><path d="M89.5106,53.3559l-4.1681-.7284s-.2848,1.5283,1.84,1.8925S89.5106,53.3559,89.5106,53.3559Z" style="fill:none;stroke:#a7abae;stroke-miterlimit:10;stroke-width:0.5px"/><circle cx="85.3298" cy="64.2159" r="1.6622" style="fill:none;stroke:#a7abae;stroke-miterlimit:10;stroke-width:0.5px"/><circle cx="336.7119" cy="49.0018" r="4.7615" style="fill:#f2a900;stroke:#12171d;stroke-miterlimit:10"/><circle cx="160.1019" cy="48.1031" r="4.7615" style="fill:#f2a900;stroke:#12171d;stroke-miterlimit:10"/><circle cx="336.7119" cy="176.9838" r="4.7615" style="fill:#f2a900;stroke:#12171d;stroke-miterlimit:10"/><circle cx="160.1019" cy="177.8825" r="4.7615" style="fill:#f2a900;stroke:#12171d;stroke-miterlimit:10"/><polygon points="510.618 7.681 510.618 99.481 343.789 51.409 510.618 122.024 510.618 147.771 650.708 147.771 650.708 7.681 510.618 7.681" style="fill:#fff"/><g style="clip-path:url(#f62f9110-35aa-416c-a097-cb4ad5dbea1f)"><ellipse cx="505.2279" cy="332.446" rx="120.3174" ry="167.2869" transform="translate(-92.291 238.9219) rotate(-24.4496)" style="fill:none;stroke:#d3d5d6;stroke-miterlimit:10"/><path d="M379.16,389.7646c-32.718-69.2488-35.5756-179.089,43.194-217.6448,59.0118-26.3395,124.1169,11.8519,160.86,58.2651,38,47.6631,59.2712,110.36,52.0738,171.4C628.2039,466.67,580.46,519.5783,511.55,507.07c-61.1051-11.85-107.3748-62.5979-132.39-117.3053C404.335,444.2726,450.7258,494.7139,511.652,506.5c68.521,12.3236,115.844-40.262,122.8072-104.818,7.0876-60.7989-14.2429-123.1819-51.9566-170.7235-36.4649-46.2-101.1715-84.349-159.8747-58.2343-78.38,38.1452-75.7548,148.0989-43.4681,217.0408Z" style="fill:#d3d5d6"/><path d="M544.3391,163.8628C581.47,189.2634,610.3436,225.6054,629.932,265.89l3.7895,8.1346-3.8994-8.0806c-20.0012-40.0458-48.7348-76.2129-85.483-102.0812Z" style="fill:#d3d5d6"/><path d="M630.918,330.6031,587.64,326.8113,538.626,318.04a8.3463,8.3463,0,0,1-5.4741-3.5859l-7.8072-11.7108a8.347,8.347,0,0,1-1.4017-4.63V233.9487l9.3581-44.6324" style="fill:none;stroke:#d3d5d6;stroke-miterlimit:10"/><path d="M496.9579,174.8964l-7.5587,43.877V283.2a3.9642,3.9642,0,0,1-2.4674,3.6707l-7.1746,2.9255a3.9644,3.9644,0,0,1-3.7736-.4257L416.917,247.926l-25.0759-25.0913" style="fill:none;stroke:#d3d5d6;stroke-miterlimit:10"/><path d="M477.6305,181.4829l-4.727,27.0529a3.7078,3.7078,0,0,1-3.2763,3.0354,87.3942,87.3942,0,0,0-42.844,17.3921,3.6807,3.6807,0,0,1-4.8433-.2826l-15.9691-15.7453a3.6844,3.6844,0,0,1-.1166-5.1313c9.7032-10.4374,30.6055-31.0753,68.2129-30.6459A3.6837,3.6837,0,0,1,477.6305,181.4829Z" style="fill:none;stroke:#d3d5d6;stroke-miterlimit:10"/><path d="M439.81,220.6891a5.0567,5.0567,0,0,1-5.5792-.8372c-2.4463-2.3941-8.7954-8.2185-8.7954-8.2185s-2.97-3.5625,1.69-8.1881,24.5906-18.0217,50.5616-19.6525" style="fill:none;stroke:#d3d5d6;stroke-miterlimit:10"/><line x1="424.5171" y1="208.4705" x2="404.9021" y2="210.7742" style="fill:none;stroke:#d3d5d6;stroke-miterlimit:10"/><path d="M308.7507,245.4974s-7.5118,4.9038-13.8642,0-38-26.9928-51.9172-37.0269" style="fill:none;stroke:#d3d5d6;stroke-miterlimit:10;stroke-width:1.5px"/><path d="M294.8865,245.4974s-15.0149-23.82,5.1975-84.5274" style="fill:none;stroke:#d3d5d6;stroke-miterlimit:10"/><path d="M405.73,80.7156c97.7537-44.4451,227.094,29.7058,288.89,165.6207s32.6459,282.1255-65.1079,326.5706" style="fill:none;stroke:#d3d5d6;stroke-miterlimit:10"/><line x1="483.484" y1="215.9147" x2="490.5326" y2="174.8964" style="fill:none;stroke:#d3d5d6;stroke-miterlimit:10"/><line x1="531.4689" y1="238.3033" x2="540.295" y2="193.5418" style="fill:none;stroke:#d3d5d6;stroke-miterlimit:10"/></g><g style="clip-path:url(#b210c8f9-4f1d-4389-9fae-6b7c7459f0d7)"><circle cx="149.8932" cy="414.6384" r="251.5181" style="fill:none;stroke:#a7abae;stroke-miterlimit:10;stroke-width:0.5px"/><circle cx="149.8932" cy="414.6384" r="272.2872" style="fill:none;stroke:#a7abae;stroke-miterlimit:10;stroke-width:1.5px"/><path d="M193.2213,355.0024l-6.8874-5.004a13.694,13.694,0,0,1-5.6444-11.2035l1.58-173.6287" style="fill:none;stroke:#a7abae;stroke-linecap:round;stroke-linejoin:round;stroke-width:0.5px"/><path d="M291.2655,220.0562c31.6858,23.0211,45.8657,41.2282,51.82,50.8721a6.876,6.876,0,0,1-3.7636,10.1152l-32.229,10.646a10.9283,10.9283,0,0,1-11.3138-2.7934c-14.7907-15.3833-33.3456-29.156-33.3456-29.156S243.601,246.3493,224.4,237.0362a10.9283,10.9283,0,0,1-6.1528-9.8968l.1656-33.9414a6.8761,6.8761,0,0,1,8.4571-6.7052C237.8818,189.1755,259.58,197.0351,291.2655,220.0562Z" style="fill:none;stroke:#a7abae;stroke-linecap:round;stroke-linejoin:round"/><path d="M106.5651,355.0024l6.8874-5.004a13.694,13.694,0,0,0,5.6444-11.2035l-1.58-173.6287" style="fill:none;stroke:#a7abae;stroke-linecap:round;stroke-linejoin:round;stroke-width:0.5px"/><path d="M8.521,220.0562c31.6858-23.0211,53.3836-30.8807,64.3955-33.5634a6.8761,6.8761,0,0,1,8.4571,6.7052l.1656,33.9414a10.9283,10.9283,0,0,1-6.1528,9.8968C56.1854,246.3493,37.353,259.74,37.353,259.74s-18.555,13.7727-33.3457,29.156A10.9282,10.9282,0,0,1-7.3064,291.69l-32.2291-10.646a6.8762,6.8762,0,0,1-3.7636-10.1152C-37.3448,261.2844-23.1649,243.0773,8.521,220.0562Z" style="fill:none;stroke:#a7abae;stroke-linecap:round;stroke-linejoin:round"/></g></g><g id="bcb3bb23-ae09-48b9-83b1-67fade63ccf5" data-name="inset frame"><polygon points="510.618 7.681 510.618 99.481 343.789 51.409 510.618 122.024 510.618 147.771 650.708 147.771 650.708 7.681 510.618 7.681" style="fill:none;stroke:#000001;stroke-miterlimit:10;stroke-width:1.5px"/></g><g id="a825951d-5daf-4555-a3e8-0caed840dd4a" data-name="inset"><path d="M623.0177,81.39c1.1208-.3678.8494-.9457.8494-.9457V69.64c0-11.5228,3.1258-16.9339,12.9412-32.0116,6.0591-9.3163,7.5126-15.857,6.2255-22.135a26.8055,26.8055,0,0,0-1.1558-3.94q-.29-.78-.6287-1.5691" style="fill:none;stroke:#a7abae;stroke-miterlimit:10"/><path d="M545.6766,87.1868l.3678-3.1784-.2452-1.2258s-15.5962.2892-30.6555.624" style="fill:none;stroke:#a7abae;stroke-miterlimit:10"/><path d="M546.0419,84.0078c-2.5657,0-2.81.1832-2.6879,1.3439s.4276,1.8938,3.6043,1.8938h14.6006a1.68,1.68,0,0,0,1.5272-2.077,2.4641,2.4641,0,0,0-2.6269-1.6495" style="fill:none;stroke:#a7abae;stroke-miterlimit:10"/><path d="M642.9287,143.8114l-.429-.7355-4.1854-7.2324-.3327-.5779c-3.0558-2.9945-3.0558-5.6826-3.0558-5.6826a39.3715,39.3715,0,0,1-3.9052-11.12c-.5516-2.3816-1.4709-3.9139-1.0419-6.3568a14.2352,14.2352,0,0,0,0-4.6407s-4.6406-20.7077-5.3149-23.4308c-.0437-.1664-.0875-.3327-.14-.4816a3.9524,3.9524,0,0,0-1.5061-2.1627,2.0245,2.0245,0,0,0-.7355-.3152l-61.5191,1.3484-.28,1.0945-.8756,3.4848" style="fill:none;stroke:#a7abae;stroke-miterlimit:10"/><path d="M516.0233,90.9208c28.5946-.3245,71.1791-.8022,74.2385-1.0459a13.1861,13.1861,0,0,0,1.5148-.1926c3.0908-.5429,3.2484-1.8563,4.054-3.2923.9194-1.6461,2.5655-2.0751,4.3342-2.1364,1.7774-.0613,22.8529-.3678,22.8529-.3678" style="fill:none;stroke:#a7abae;stroke-miterlimit:10;stroke-width:0.5px"/><path d="M594.181,90.3s3.7274,35.3,8.9494,51.0709" style="fill:none;stroke:#a7abae;stroke-miterlimit:10;stroke-width:0.5px"/><path d="M629.98,107.4664c-12.5235,4.1541-24.375,10.2021-22.1146,25.719s21.015,10.0759,34.6381,9.8946" style="fill:none;stroke:#a7abae;stroke-miterlimit:10;stroke-width:0.5px"/><path d="M629.98,112.1093c-10.08,3.2377-17.2885,7.3308-17.1663,15.5169s6.4167,9.6576,25.5063,8.2193" style="fill:none;stroke:#a7abae;stroke-miterlimit:10;stroke-width:0.5px"/><path d="M643.0338,15.4933s-4.4393.0963-10.49.3415c-6.05.2364-8.1868-2.0226-9.71-4.0365-.251-.3277-.4927-.6492-.7252-.9771" style="fill:none;stroke:#a7abae;stroke-miterlimit:10;stroke-width:0.5px"/><path d="M641.8868,11.5531h-.0088c-.3152.0175-6.0591.3678-11.2251.2452-2.38-.0563-3.73-.6514-4.6323-1.7692" style="fill:none;stroke:#a7abae;stroke-miterlimit:10;stroke-width:0.5px"/><ellipse cx="610.8932" cy="39.0383" rx="7.6823" ry="6.2427" transform="translate(91.8498 363.5509) rotate(-35.6706)" style="fill:none;stroke:#a7abae;stroke-miterlimit:10;stroke-width:0.5px"/><path d="M617.581,69.325c2.5107-1.837,4.1413-5.6782,2.1639-8.4069-3.2454-4.0381-9.9791-1.1247-11.3274,3.2758-1.83,5.9107,4.9186,8.23,9.1635,5.131-7.6747,5.3772-14.0062-3.601-6.6389-9.2491,7.7123-5.1718,14.1849,3.7006,6.6389,9.2492Z" style="fill:#a7abae"/><ellipse cx="613.8249" cy="64.0923" rx="4.7703" ry="3.8764" transform="translate(77.7903 369.961) rotate(-35.6706)" style="fill:none;stroke:#a7abae;stroke-miterlimit:10;stroke-width:0.5px"/><ellipse cx="614.8475" cy="101.5348" rx="2.1037" ry="1.7095" transform="translate(56.1485 377.5822) rotate(-35.6706)" style="fill:none;stroke:#a7abae;stroke-miterlimit:10;stroke-width:0.5px"/><path d="M568.8919,111.7166a4.2164,4.2164,0,0,1,1.8582-3.3142c1.7929-1.2931,4.0966-1.1518,5.14.3043a2.794,2.794,0,0,1,.5107,1.6408" style="fill:none;stroke:#a7abae;stroke-miterlimit:10;stroke-width:0.5px"/><path d="M576.4005,114.2594a4.2047,4.2047,0,0,1-1.8581,3.325c-1.7929,1.2823-4.0966,1.1519-5.14-.3042a2.77,2.77,0,0,1-.5107-1.6408" style="fill:none;stroke:#a7abae;stroke-miterlimit:10;stroke-width:0.5px"/><ellipse cx="613.663" cy="63.8666" rx="2.6917" ry="2.1873" transform="translate(77.8914 369.8242) rotate(-35.6706)" style="fill:none;stroke:#a7abae;stroke-miterlimit:10;stroke-width:0.5px"/><ellipse cx="610.7224" cy="38.8003" rx="4.4941" ry="3.652" transform="translate(91.9565 363.4067) rotate(-35.6706)" style="fill:none;stroke:#a7abae;stroke-miterlimit:10;stroke-width:0.5px"/><path d="M617.2205,47.8533c3.9054-2.8027,6.453-8.72,3.405-12.9648-5.0188-6.3038-15.5086-1.8041-17.5869,5.0506-2.76,9.2341,7.5361,12.7632,14.1819,7.914-11.7589,8.05-21.3211-5.425-10.113-14.0893,11.8009-7.8463,21.4969,5.5284,10.113,14.0895Z" style="fill:#a7abae"/><path d="M628.5778,123.23c-.7987-6.2579-9.901-3.0826-9.4558,2.1379a3.5988,3.5988,0,0,0,3.16,3.2249,3.6476,3.6476,0,0,1-3.5427-3.1846c-.38-3.6,3.4849-6.7,6.9289-5.9328a3.6079,3.6079,0,0,1,2.9094,3.7546Z" style="fill:#a7abae"/><ellipse cx="610.7224" cy="38.8003" rx="4.4941" ry="3.652" transform="translate(91.9565 363.4067) rotate(-35.6706)" style="fill:none;stroke:#a7abae;stroke-miterlimit:10;stroke-width:0.5px"/><polyline points="614.848 63.934 614.872 64.71 614.146 65.283 613.397 65.079" style="fill:none;stroke:#a7abae;stroke-linecap:round;stroke-linejoin:round;stroke-width:0.5px"/><polyline points="614.848 63.934 614.098 63.731 613.373 64.303 613.397 65.079" style="fill:none;stroke:#a7abae;stroke-miterlimit:10;stroke-width:0.5px"/><path d="M638.4021,26.4829c.72-3.0265-.5284-7.008-3.8032-7.8036-5.089-.97-8.3268,5.6137-6.5,9.8382,2.4391,5.6865,9.0806,3.0769,10.3032-2.0347-2.3571,9.07-12.9983,6.3388-11.0512-2.7374,2.5188-8.9381,13.1989-6.379,11.0513,2.7375Z" style="fill:#a7abae"/><ellipse cx="632.1497" cy="24.9342" rx="4.7703" ry="3.8764" transform="translate(455.9578 632.5454) rotate(-76.0879)" style="fill:none;stroke:#a7abae;stroke-miterlimit:10;stroke-width:0.5px"/><ellipse cx="631.8802" cy="24.8674" rx="2.6917" ry="2.1873" transform="translate(455.8178 632.233) rotate(-76.0879)" style="fill:none;stroke:#a7abae;stroke-miterlimit:10;stroke-width:0.5px"/><polyline points="632.826 24.151 633.347 24.726 633.166 25.632 632.464 25.963" style="fill:none;stroke:#a7abae;stroke-linecap:round;stroke-linejoin:round;stroke-width:0.5px"/><polyline points="632.826 24.151 632.124 24.482 631.943 25.388 632.464 25.963" style="fill:none;stroke:#a7abae;stroke-miterlimit:10;stroke-width:0.5px"/><path d="M621.1287,126.0151l.3274-2.3405a.7214.7214,0,0,1,.37-.5336l2.5284-1.3762a.7214.7214,0,0,1,.6488-.0206l2.2571,1.0486a.72.72,0,0,1,.2682.2148l.9,1.1724a.7214.7214,0,0,1,.1423.5393l-.3274,2.34a.7215.7215,0,0,1-.37.5337l-2.5284,1.3762a.7217.7217,0,0,1-.6488.0206l-2.2571-1.0486a.7224.7224,0,0,1-.2682-.2148l-.9-1.1725A.7214.7214,0,0,1,621.1287,126.0151Z" style="fill:none;stroke:#a7abae;stroke-miterlimit:10;stroke-width:0.5px"/><path d="M628.6128,124.42l-2.4176-1.1231a.7215.7215,0,0,0-.6487.0206l-2.5285,1.3762a.7217.7217,0,0,0-.37.5337l-.3693,2.64" style="fill:none;stroke:#a7abae;stroke-miterlimit:10;stroke-width:0.25px"/><line x1="625.8657" y1="123.1436" x2="624.6733" y2="121.5911" style="fill:none;stroke:#a7abae;stroke-miterlimit:10;stroke-width:0.25px"/><line x1="622.6989" y1="124.8673" x2="621.5065" y2="123.3147" style="fill:none;stroke:#a7abae;stroke-miterlimit:10;stroke-width:0.25px"/><path d="M608.2282,40.1812l.0983-1.8734a.5728.5728,0,0,1,.2556-.4474l1.9051-1.2618a.5726.5726,0,0,1,.5116-.0608l1.8569.6743a.573.573,0,0,1,.2268.1515l.7926.8654a.5727.5727,0,0,1,.1495.4167l-.0983,1.8734a.5726.5726,0,0,1-.2556.4473l-1.9051,1.2618a.5726.5726,0,0,1-.5116.0609l-1.8569-.6744a.5717.5717,0,0,1-.2268-.1514l-.7926-.8654A.5729.5729,0,0,1,608.2282,40.1812Z" style="fill:none;stroke:#a7abae;stroke-miterlimit:10;stroke-width:0.5px"/><path d="M614.0372,38.406l-1.9889-.7223a.5726.5726,0,0,0-.5116.0609l-1.9051,1.2618a.5724.5724,0,0,0-.2556.4473l-.1109,2.1131" style="fill:none;stroke:#a7abae;stroke-miterlimit:10;stroke-width:0.25px"/><line x1="611.7771" y1="37.5853" x2="610.7277" y2="36.4393" style="fill:none;stroke:#a7abae;stroke-miterlimit:10;stroke-width:0.25px"/><line x1="609.3911" y1="39.1657" x2="608.3416" y2="38.0197" style="fill:none;stroke:#a7abae;stroke-miterlimit:10;stroke-width:0.25px"/><line x1="576.4005" y1="114.2594" x2="576.4005" y2="110.3475" style="fill:none;stroke:#a7abae;stroke-miterlimit:10;stroke-width:0.5px"/><path d="M573.6188,109.75a4.2051,4.2051,0,0,1-1.8582,3.325,4.4905,4.4905,0,0,1-2.8687.8693" style="fill:none;stroke:#a7abae;stroke-miterlimit:10;stroke-width:0.5px"/><line x1="573.6188" y1="109.7499" x2="573.6188" y2="107.5331" style="fill:none;stroke:#a7abae;stroke-miterlimit:10;stroke-width:0.5px"/><line x1="568.8919" y1="115.6394" x2="568.8919" y2="111.7166" style="fill:none;stroke:#a7abae;stroke-miterlimit:10;stroke-width:0.5px"/><polygon points="535.702 107.533 534.094 118.466 545.344 118.102 546.782 107.533 535.702 107.533" style="fill:none;stroke:#a7abae;stroke-miterlimit:10;stroke-width:0.5px"/><path d="M570.3154,76.0753c-.0109-.0109-.0217-.0109-.0326-.0218a11.0008,11.0008,0,0,1-3.2273-3.3359c-3.8032-6.0851-1-14.6912,6.259-19.2225,5.9765-3.7271,13.1156-3.5206,17.56.087.0217.0108.0326.0217.0435.0217l-.0008.0011A11.14,11.14,0,0,1,594.122,56.93c3.798,6.0922.9955,14.6976-6.26,19.2206a17.89,17.89,0,0,1-6.1489,2.4074l-.8268,1.9026a.4233.4233,0,0,1-.3883.2547h-5.595a.4234.4234,0,0,1-.3883-.5922l.7232-1.6644a12.3936,12.3936,0,0,1-5.1292-2.5412" style="fill:#d3d5d6;stroke:#000001;stroke-linecap:round;stroke-linejoin:round;stroke-width:1.5px"/><path d="M590.4907,53.9508c-9.2045-5.7114-22.616,1.6259-23.6578,12.1612a11.0319,11.0319,0,0,0,3.5664,9.3834,10.918,10.918,0,0,1-3.95-9.4163c.8089-10.8323,14.8679-18.4878,24.041-12.1283Z" style="fill:#000001"/><polygon points="577.294 124.077 581.158 100.366 589.428 100.366 576.907 84.004 559.054 100.366 567.324 100.366 563.46 124.077 577.294 124.077" style="fill:#f2a900;stroke:#fff;stroke-miterlimit:10;stroke-width:1.5px"/></g></svg>