<svg xmlns="http://www.w3.org/2000/svg" width="654" height="208.47" viewBox="0 0 654 208.47"><g id="a7c5cebc-cd27-42a8-b071-37cfe0ef27be" data-name="illustration"><g id="e39c64f5-64e2-498b-8cc8-48cc55543cfc" data-name="Offset Group"><path d="M357.681,195.222s-4.344.373-6.7-.737c-2.887-1.359-12.366-1.822-16.6-1.965-35.285-1.194-144.836-3.042-201.007,2.77" style="fill:none;stroke:#a7abae;stroke-miterlimit:3;stroke-width:0.5000000000025px"/><path d="M357.7,195.471s-4.4.384-6.832-.76c-2.827-1.331-12.235-1.8-16.5-1.941-35.287-1.194-144.822-3.041-200.973,2.769" style="fill:none;stroke:#a7abae;stroke-miterlimit:3;stroke-width:0.5000000000025px"/><path d="M357.726,195.72s-4.456.4-6.96-.783c-2.768-1.3-12.105-1.772-16.4-1.917-35.288-1.194-144.806-3.04-200.938,2.768" style="fill:none;stroke:#a7abae;stroke-miterlimit:3;stroke-width:0.5000000000025px"/><path d="M357.749,195.969s-4.513.407-7.089-.806c-2.709-1.274-11.975-1.747-16.3-1.893-35.29-1.2-144.792-3.04-200.905,2.767" style="fill:none;stroke:#a7abae;stroke-miterlimit:3;stroke-width:0.5000000000025px"/></g><path d="M357.772,196.218s-4.57.418-7.219-.829-11.844-1.722-16.2-1.869c-35.292-1.2-144.777-3.039-200.87,2.765" style="fill:none;stroke:#a7abae;stroke-miterlimit:3;stroke-width:0.5000000000025px"/><g id="faaa73fa-bd08-482a-bf87-685b21d4b713" data-name="Offset Group"><path d="M318.029,192.367a29.079,29.079,0,0,1-6.848,8.093c-2.22,1.467-2.818,1.383-4.375,1.293l-.623-.033a8.438,8.438,0,0,1-2.272-.391c.356-1.3,1.222-4.208,3.007-9.062" style="fill:none;stroke:#a7abae;stroke-miterlimit:3;stroke-width:0.5000000000025px"/><path d="M318.248,192.488a29.33,29.33,0,0,1-6.929,8.181c-2.273,1.5-2.925,1.426-4.528,1.334-.191-.011-.4-.023-.62-.033a8.348,8.348,0,0,1-2.561-.485c.315-1.175,1.179-4.152,3.073-9.3" style="fill:none;stroke:#a7abae;stroke-miterlimit:3;stroke-width:0.5000000000025px"/><path d="M318.467,192.609a29.594,29.594,0,0,1-7.011,8.269c-2.324,1.534-3.032,1.469-4.679,1.375-.191-.011-.4-.023-.617-.033a8.332,8.332,0,0,1-2.848-.587c.264-1.01,1.117-4.045,3.137-9.539" style="fill:none;stroke:#a7abae;stroke-miterlimit:3;stroke-width:0.5000000000025px"/><path d="M318.686,192.73a29.833,29.833,0,0,1-7.092,8.356c-2.376,1.569-3.14,1.513-4.831,1.416l-.615-.033a8.286,8.286,0,0,1-3.13-.695c.191-.759,1.018-3.841,3.2-9.766" style="fill:none;stroke:#a7abae;stroke-miterlimit:3;stroke-width:0.5000000000025px"/></g><path d="M318.9,192.85a30.1,30.1,0,0,1-7.173,8.445c-2.7,1.78-3.408,1.526-5.6,1.424a8,8,0,0,1-3.408-.814,96.316,96.316,0,0,1,3.252-9.983" style="fill:none;stroke:#a7abae;stroke-miterlimit:3;stroke-width:0.5000000000025px"/><g id="b5758529-c8bc-4950-a700-2ccec1637f7f" data-name="Offset Group"><path d="M361.166,174.778h63.157a4.992,4.992,0,0,1,4.991,4.991V195.2a4.992,4.992,0,0,1-4.991,4.991H361.166a4.992,4.992,0,0,1-4.991-4.991V179.769a4.992,4.992,0,0,1,4.991-4.991Z" style="fill:none;stroke:#a7abae;stroke-miterlimit:3;stroke-width:0.5000000000025px"/><path d="M361.166,175.028h63.157a4.742,4.742,0,0,1,4.741,4.741V195.2a4.742,4.742,0,0,1-4.741,4.741H361.166a4.742,4.742,0,0,1-4.741-4.741V179.769a4.742,4.742,0,0,1,4.741-4.741Z" style="fill:none;stroke:#a7abae;stroke-miterlimit:3;stroke-width:0.5000000000025px"/><path d="M361.166,175.278h63.157a4.491,4.491,0,0,1,4.491,4.491V195.2a4.493,4.493,0,0,1-4.491,4.491H361.166a4.493,4.493,0,0,1-4.491-4.491V179.769a4.491,4.491,0,0,1,4.491-4.491Z" style="fill:none;stroke:#a7abae;stroke-miterlimit:3;stroke-width:0.5000000000025px"/><path d="M361.166,175.528h63.157a4.24,4.24,0,0,1,4.241,4.241V195.2a4.24,4.24,0,0,1-4.241,4.241H361.166a4.24,4.24,0,0,1-4.241-4.241V179.769a4.24,4.24,0,0,1,4.241-4.241Z" style="fill:none;stroke:#a7abae;stroke-miterlimit:3;stroke-width:0.5000000000025px"/></g><rect x="357.175" y="175.778" width="71.139" height="23.409" rx="3.991" style="fill:none;stroke:#a7abae;stroke-miterlimit:3;stroke-width:0.5000000000025px"/><g id="b205e08a-0eb5-4b69-ae91-1cecf7fb3af5" data-name="Offset Group"><path d="M66.33,174.778h63.157a4.992,4.992,0,0,1,4.991,4.991V195.2a4.992,4.992,0,0,1-4.991,4.991H66.33a4.992,4.992,0,0,1-4.991-4.991V179.769a4.992,4.992,0,0,1,4.991-4.991Z" style="fill:none;stroke:#a7abae;stroke-miterlimit:3;stroke-width:0.5000000000025px"/><path d="M66.33,175.028h63.157a4.742,4.742,0,0,1,4.741,4.741V195.2a4.742,4.742,0,0,1-4.741,4.741H66.33a4.742,4.742,0,0,1-4.741-4.741V179.769a4.742,4.742,0,0,1,4.741-4.741Z" style="fill:none;stroke:#a7abae;stroke-miterlimit:3;stroke-width:0.5000000000025px"/><path d="M66.33,175.278h63.157a4.49,4.49,0,0,1,4.491,4.491V195.2a4.491,4.491,0,0,1-4.491,4.491H66.33a4.493,4.493,0,0,1-4.491-4.491V179.769a4.491,4.491,0,0,1,4.491-4.491Z" style="fill:none;stroke:#a7abae;stroke-miterlimit:3;stroke-width:0.5000000000025px"/><path d="M66.33,175.528h63.157a4.24,4.24,0,0,1,4.241,4.241V195.2a4.24,4.24,0,0,1-4.241,4.241H66.33a4.242,4.242,0,0,1-4.241-4.241V179.769a4.242,4.242,0,0,1,4.241-4.241Z" style="fill:none;stroke:#a7abae;stroke-miterlimit:3;stroke-width:0.5000000000025px"/></g><rect x="62.339" y="175.778" width="71.139" height="23.409" rx="3.991" style="fill:none;stroke:#a7abae;stroke-miterlimit:3;stroke-width:0.5000000000025px"/><path d="M55.927,194.193c-1.981-3.065-2.068-7.041-2.068-9.721v-6.656c0-1.271.665-11.094,20.22-15.31a1.627,1.627,0,0,0,1.291-1.491l1.653-28.181a1.62,1.62,0,0,1,1.617-1.525h3.506a1.618,1.618,0,0,1,1.507,1.029l5.937,15.145a1.619,1.619,0,0,0,1.507,1.028h7.984a1.622,1.622,0,0,1,.788.205l18.858,10.5a1.62,1.62,0,0,0,1.36.1l8.789-3.321a1.619,1.619,0,0,1,2.076.913l4.6,11.491s5.879,2.594,5.879,12.794v13.858" style="fill:none;stroke:#a7abae;stroke-miterlimit:10"/><path d="M432.464,194.122c1.913,0,4.446-.882,4.824-6.085s.378-14.567.473-16.365a9.2,9.2,0,0,0-1.987-6.148c-1.457-1.64-8.7-10.734-14.221-15.545a.826.826,0,0,1-.088-1.165l2.853-3.312v-8.928a3.863,3.863,0,0,0-3.863-3.863h-9.861l-5.545-1.427h-2.7a1.363,1.363,0,0,0-1.363,1.364v6.212h-7.521l-1.318,13.889-18.94-.823c-1.921-3.13-6.368-2.361-10.705.658s-13.944,10.431-13.944,29.261v9.936a4.259,4.259,0,0,0,1.994,3.608" style="fill:none;stroke:#a7abae;stroke-miterlimit:10;stroke-width:0.5px"/><path d="M462.521,163.72a243.452,243.452,0,0,1-26.747,1.8" style="fill:none;stroke:#a7abae;stroke-miterlimit:10;stroke-width:0.5px"/><line x1="431.812" y1="160.827" x2="431.812" y2="112.993" style="fill:none;stroke:#a7abae;stroke-miterlimit:10;stroke-width:0.5px"/><path d="M465.543,146.352c-8.649,1.854-25.154,2.295-32.48.971" style="fill:none;stroke:#a7abae;stroke-miterlimit:10;stroke-width:0.5px"/><path d="M418.754,132.71a3.529,3.529,0,0,0-1.462,2.868,3.565,3.565,0,0,0,7.019.89" style="fill:none;stroke:#a7abae;stroke-miterlimit:10;stroke-width:0.5px"/><path d="M422.561,138.718s.072,2.007,0,3.266a5.314,5.314,0,0,1-2.487,3.831c-1.679,1.26-8.292,5.563-8.292,5.563L397.3,176.044" style="fill:none;stroke:#a7abae;stroke-miterlimit:10;stroke-width:0.5px"/><path d="M420.337,139.148v2.469a3.153,3.153,0,0,1-1.785,2.781c-1.837.893-13.33,7.033-15.8,8.135s-4.775-.315-4.933-3.149,0-10.524,0-10.524" style="fill:none;stroke:#a7abae;stroke-miterlimit:10;stroke-width:0.5px"/><polyline points="394.516 138.718 392.522 171.059 391.734 175.778" style="fill:none;stroke:#a7abae;stroke-miterlimit:10;stroke-width:0.5px"/><path d="M397.347,170.61l6.863-12.286a.413.413,0,0,0-.583-.55l-6.567,4.194a.414.414,0,0,0-.19.333l-.3,8.092A.413.413,0,0,0,397.347,170.61Z" style="fill:none;stroke:#a7abae;stroke-miterlimit:10;stroke-width:0.5px"/><polygon points="411.914 151.591 395.093 161.77 411.65 151.166 411.914 151.591" style="fill:#a7abae"/><path d="M360.056,112.993V142.12s-14.2,4.647-18.583,28.7" style="fill:none;stroke:#a7abae;stroke-miterlimit:10;stroke-width:0.5px"/><path d="M347.027,184.625v-13.8h-25.2s-2.67.561-4.7-2.43-5.874-9.077-5.874-9.077" style="fill:none;stroke:#a7abae;stroke-miterlimit:10;stroke-width:0.5px"/><path d="M342.114,112.993v19.8a3.485,3.485,0,0,1-3.12,3.466l-14.138,1.49a2.2,2.2,0,0,0-1.965,2.183v9.3a4,4,0,0,1-1.792,3.334l-13.907,9.206H132.8" style="fill:none;stroke:#a7abae;stroke-miterlimit:10;stroke-width:0.5px"/><polyline points="348.559 184.625 345.638 184.625 343.289 185.693 141.427 185.693" style="fill:none;stroke:#a7abae;stroke-miterlimit:10;stroke-width:0.5px"/><line x1="178.288" y1="161.77" x2="178.288" y2="112.993" style="fill:none;stroke:#a7abae;stroke-miterlimit:10;stroke-width:0.5px"/><line x1="142.939" y1="161.77" x2="142.939" y2="112.993" style="fill:none;stroke:#a7abae;stroke-miterlimit:10;stroke-width:0.5px"/><circle cx="278.357" cy="154.295" r="1.655" style="fill:none;stroke:#a7abae;stroke-miterlimit:10;stroke-width:0.5px"/><circle cx="243.872" cy="154.295" r="1.655" style="fill:none;stroke:#a7abae;stroke-miterlimit:10;stroke-width:0.5px"/><circle cx="210.253" cy="154.295" r="1.655" style="fill:none;stroke:#a7abae;stroke-miterlimit:10;stroke-width:0.5px"/><circle cx="278.357" cy="116.703" r="1.655" style="fill:none;stroke:#a7abae;stroke-miterlimit:10;stroke-width:0.5px"/><circle cx="243.872" cy="116.703" r="1.655" style="fill:none;stroke:#a7abae;stroke-miterlimit:10;stroke-width:0.5px"/><circle cx="210.253" cy="116.703" r="1.655" style="fill:none;stroke:#a7abae;stroke-miterlimit:10;stroke-width:0.5px"/><line x1="332.396" y1="128.664" x2="186.298" y2="128.664" style="fill:none;stroke:#a7abae;stroke-miterlimit:10;stroke-width:0.5px"/><line x1="332.396" y1="134.538" x2="186.298" y2="134.538" style="fill:none;stroke:#a7abae;stroke-miterlimit:10;stroke-width:0.5px"/><line x1="314.667" y1="144.15" x2="186.298" y2="144.15" style="fill:none;stroke:#a7abae;stroke-miterlimit:10;stroke-width:0.5px"/><line x1="314.667" y1="147.674" x2="186.298" y2="147.674" style="fill:none;stroke:#a7abae;stroke-miterlimit:10;stroke-width:0.5px"/><path d="M77.409,131.886v-2.975a.906.906,0,0,0-.906-.906H68.557a.907.907,0,0,1-.906-.907V112.993" style="fill:none;stroke:#a7abae;stroke-miterlimit:10;stroke-width:0.5px"/><path d="M53.859,184.472c-9.929-2.413-13.5-2.833-16.017-9.76s-5.352-35.587-5.352-61.719" style="fill:none;stroke:#a7abae;stroke-miterlimit:10;stroke-width:0.5px"/><path d="M28.4,112.993v15.955a1.319,1.319,0,0,1-1.26,1.318L4.181,131.309" style="fill:none;stroke:#a7abae;stroke-miterlimit:10;stroke-width:0.5px"/><polyline points="13.154 176.902 11.323 167.824 8.995 166.837" style="fill:none;stroke:#a7abae;stroke-miterlimit:10;stroke-width:0.5px"/><path d="M5.365,145.572s.143-1.3,1.96-1.59c0,0-.98-15.893-.98-30.989" style="fill:none;stroke:#a7abae;stroke-miterlimit:10;stroke-width:0.5px"/><path d="M135.287,167.74a18.984,18.984,0,0,0-7.515-1.515H91.11" style="fill:none;stroke:#a7abae;stroke-miterlimit:10;stroke-width:0.5px"/><path d="M80.16,166.225c-10.831,0-26.3,2.383-26.3,14.611" style="fill:none;stroke:#a7abae;stroke-miterlimit:10;stroke-width:0.5px"/><path d="M427,177.882c0-5.283-1.339-10.415-3.312-12.358s-5.637-5.044-5.637-5.044-3.731-1.9-6.269-1.9h-4.228" style="fill:none;stroke:#a7abae;stroke-miterlimit:10;stroke-width:0.5px"/><path d="M393.291,158.578H367.956c-2.818,0-10.992,1.621-13.387,7.891a58.117,58.117,0,0,0-3.8,18.69v10.23" style="fill:none;stroke:#a7abae;stroke-miterlimit:10;stroke-width:0.5px"/><path d="M90.866,175.778l-.691-5.313a11.617,11.617,0,0,1,.935-3.861c.82-1.67,2.909-7.708-2.081-14.3-2-2.335-4.322-4.854-5.181-8.8s-1.2-6.231-1.2-6.231l-3.035.555s.393,1.988.919,5.994-.809,7.163-1.9,10.036c-2.469,7.891,1.538,12.868,2.873,14.163a11.623,11.623,0,0,1,2.185,3.319l.972,4.443" style="fill:none;stroke:#a7abae;stroke-miterlimit:10;stroke-width:0.5px"/><path d="M89.511,172.63l-4.169.728s-.284-1.528,1.84-1.892S89.511,172.63,89.511,172.63Z" style="fill:none;stroke:#a7abae;stroke-miterlimit:10;stroke-width:0.5px"/><circle cx="85.33" cy="161.77" r="1.662" style="fill:none;stroke:#a7abae;stroke-miterlimit:10;stroke-width:0.5px"/><g id="fdea35e5-6ab2-4661-a3b2-775707744878" data-name="Offset Group"><path d="M428.314,32.864h6.063a6.122,6.122,0,0,1,3.455,1.049l.106.08.127.051c2.405.962,10.027,8.9,14.3,13.361.682.713,1.267,1.326,1.712,1.783l.06.061h0c2.951,3.035,4.219,4.28,7.447,13.352l.018.053.025.05c4.762,9.784,5.587,38.38,5.587,50.289s-.825,40.5-5.587,50.289l-.025.05-.018.052c-3.228,9.073-4.5,10.317-7.447,13.352l-.06.062c-.445.457-1.03,1.069-1.712,1.783-4.268,4.465-11.89,12.4-14.3,13.361l-.127.05-.106.081a6.122,6.122,0,0,1-3.455,1.049h-6.063" style="fill:none;stroke:#a7abae;stroke-miterlimit:3;stroke-width:0.5000000000025px"/><path d="M428.314,32.614h6.063a6.409,6.409,0,0,1,3.606,1.1l.08.061.1.038c2.471.988,10.148,8.989,14.383,13.42.682.714,1.267,1.325,1.71,1.781l.06.062h0c2.98,3.065,4.266,4.342,7.535,13.519,4.794,9.849,5.613,38.517,5.613,50.4s-.819,40.549-5.645,50.475c-3.237,9.1-4.523,10.377-7.5,13.443l-.06.061c-.443.456-1.028,1.068-1.71,1.781-4.235,4.431-11.912,12.432-14.383,13.421l-.1.038-.08.06a6.4,6.4,0,0,1-3.606,1.1h-6.063" style="fill:none;stroke:#a7abae;stroke-miterlimit:3;stroke-width:0.5000000000025px"/><path d="M428.314,32.364h6.063a6.7,6.7,0,0,1,3.757,1.15l.054.041.062.025c2.538,1.015,10.27,9.083,14.472,13.48.682.713,1.266,1.324,1.708,1.779l.06.062h0c3.01,3.095,4.312,4.4,7.581,13.584,4.825,9.913,5.638,38.653,5.638,50.508s-.813,40.594-5.659,50.559c-3.248,9.128-4.55,10.438-7.56,13.533l-.06.061c-.442.456-1.026,1.066-1.708,1.78-4.2,4.4-11.934,12.465-14.472,13.48l-.062.025-.054.04a6.692,6.692,0,0,1-3.757,1.151h-6.063" style="fill:none;stroke:#a7abae;stroke-miterlimit:3;stroke-width:0.5000000000025px"/><path d="M428.314,32.114h6.063a7.1,7.1,0,0,1,3.966,1.234c2.6,1.041,10.391,9.177,14.56,13.539.682.714,1.265,1.324,1.707,1.778l.059.061h0c3.039,3.126,4.359,4.468,7.627,13.649,4.857,9.979,5.663,38.79,5.663,50.618s-.806,40.639-5.674,50.643c-3.257,9.155-4.577,10.5-7.616,13.623l-.059.062c-.442.454-1.025,1.064-1.707,1.778-4.169,4.361-11.956,12.5-14.618,13.572a6.98,6.98,0,0,1-3.908,1.2h-6.063" style="fill:none;stroke:#a7abae;stroke-miterlimit:3;stroke-width:0.5000000000025px"/></g><path d="M428.314,31.864h6.063a7.267,7.267,0,0,1,4.059,1.251c3.111,1.245,13.242,12.176,16.353,15.376s4.444,4.532,7.732,13.775c4.888,10.043,5.688,38.927,5.688,50.727s-.8,40.684-5.688,50.727c-3.288,9.242-4.622,10.576-7.732,13.775s-13.242,14.131-16.353,15.375a7.264,7.264,0,0,1-4.059,1.252h-6.063" style="fill:none;stroke:#a7abae;stroke-miterlimit:3;stroke-width:0.5000000000025px"/><g id="a40f4cf0-6bc9-49de-8329-30c0830de0f6" data-name="Offset Group"><path d="M357.863,28.772s-4.8-.464-7.736.919c-2.411,1.135-11.322,1.623-15.812,1.775-35.3,1.2-144.719,3.036-200.734-2.76" style="fill:none;stroke:#a7abae;stroke-miterlimit:3;stroke-width:0.5000000000025px"/><path d="M357.84,29.021s-4.74-.453-7.606.9c-2.471,1.163-11.453,1.648-15.911,1.8-35.3,1.2-144.733,3.037-200.768-2.762" style="fill:none;stroke:#a7abae;stroke-miterlimit:3;stroke-width:0.5000000000025px"/><path d="M357.818,29.27s-4.684-.441-7.478.874c-2.53,1.19-11.583,1.672-16.009,1.822-35.3,1.2-144.747,3.037-200.8-2.763" style="fill:none;stroke:#a7abae;stroke-miterlimit:3;stroke-width:0.5000000000025px"/><path d="M357.8,29.519s-4.627-.43-7.348.851c-2.59,1.218-11.714,1.7-16.107,1.846-35.294,1.2-144.763,3.038-200.836-2.764" style="fill:none;stroke:#a7abae;stroke-miterlimit:3;stroke-width:0.5000000000025px"/></g><path d="M357.772,29.768s-4.57-.418-7.219.828-11.844,1.722-16.2,1.87c-35.292,1.194-144.777,3.039-200.87-2.766" style="fill:none;stroke:#a7abae;stroke-miterlimit:3;stroke-width:0.5000000000025px"/><g id="b836ea1c-3541-4d4c-a78f-5c8c39860d72" data-name="Offset Group"><path d="M319.76,32.145a32.78,32.78,0,0,0-7.477-8.289c-2.636-1.74-3.676-1.73-5.592-1.621-.192.011-.39.023-.6.033a9.332,9.332,0,0,0-3.866.949l-.544.308.05.617s.162,2,2.71,8.936" style="fill:none;stroke:#a7abae;stroke-miterlimit:3;stroke-width:0.5000000000025px"/><path d="M319.546,32.274a32.479,32.479,0,0,0-7.4-8.209c-2.584-1.706-3.569-1.687-5.44-1.58-.192.011-.391.022-.6.032a9,9,0,0,0-3.752.916l-.406.231.036.463s.148,1.937,2.695,8.865" style="fill:none;stroke:#a7abae;stroke-miterlimit:3;stroke-width:0.5000000000025px"/><path d="M319.332,32.4a32.206,32.206,0,0,0-7.324-8.13c-2.532-1.672-3.462-1.644-5.288-1.539-.192.011-.392.022-.607.032a8.662,8.662,0,0,0-3.637.881l-.269.155.022.308s.135,1.87,2.68,8.794" style="fill:none;stroke:#a7abae;stroke-miterlimit:3;stroke-width:0.5000000000025px"/><path d="M319.118,32.533a31.943,31.943,0,0,0-7.248-8.051c-2.48-1.638-3.355-1.6-5.136-1.5-.192.011-.393.023-.609.033a8.339,8.339,0,0,0-3.523.847l-.134.078.011.154s.12,1.8,2.665,8.723" style="fill:none;stroke:#a7abae;stroke-miterlimit:3;stroke-width:0.5000000000025px"/></g><path d="M318.9,32.663a31.677,31.677,0,0,0-7.173-7.972c-2.7-1.781-3.408-1.526-5.6-1.425a8,8,0,0,0-3.408.814s.107,1.735,2.651,8.653" style="fill:none;stroke:#a7abae;stroke-miterlimit:3;stroke-width:0.5000000000025px"/><g id="b82f2620-01f9-47ef-86ed-59243f7fe1db" data-name="Offset Group"><path d="M361.166,51.208h63.157a4.992,4.992,0,0,0,4.991-4.992V30.79a4.992,4.992,0,0,0-4.991-4.991H361.166a4.992,4.992,0,0,0-4.991,4.991V46.216a4.992,4.992,0,0,0,4.991,4.992Z" style="fill:none;stroke:#a7abae;stroke-miterlimit:3;stroke-width:0.5000000000025px"/><path d="M361.166,50.958h63.157a4.742,4.742,0,0,0,4.741-4.742V30.79a4.741,4.741,0,0,0-4.741-4.741H361.166a4.741,4.741,0,0,0-4.741,4.741V46.216a4.742,4.742,0,0,0,4.741,4.742Z" style="fill:none;stroke:#a7abae;stroke-miterlimit:3;stroke-width:0.5000000000025px"/><path d="M361.166,50.708h63.157a4.493,4.493,0,0,0,4.491-4.492V30.79a4.491,4.491,0,0,0-4.491-4.491H361.166a4.491,4.491,0,0,0-4.491,4.491V46.216a4.493,4.493,0,0,0,4.491,4.492Z" style="fill:none;stroke:#a7abae;stroke-miterlimit:3;stroke-width:0.5000000000025px"/><path d="M361.166,50.458h63.157a4.242,4.242,0,0,0,4.241-4.242V30.79a4.24,4.24,0,0,0-4.241-4.241H361.166a4.24,4.24,0,0,0-4.241,4.241V46.216a4.242,4.242,0,0,0,4.241,4.242Z" style="fill:none;stroke:#a7abae;stroke-miterlimit:3;stroke-width:0.5000000000025px"/></g><rect x="357.175" y="26.799" width="71.139" height="23.409" rx="3.991" style="fill:none;stroke:#a7abae;stroke-miterlimit:3;stroke-width:0.5000000000025px"/><g id="e3527023-f035-47d3-84ad-fafe8a922576" data-name="Offset Group"><path d="M66.33,51.208h63.157a4.992,4.992,0,0,0,4.991-4.992V30.79a4.992,4.992,0,0,0-4.991-4.991H66.33a4.992,4.992,0,0,0-4.991,4.991V46.216a4.992,4.992,0,0,0,4.991,4.992Z" style="fill:none;stroke:#a7abae;stroke-miterlimit:3;stroke-width:0.5000000000025px"/><path d="M66.33,50.958h63.157a4.742,4.742,0,0,0,4.741-4.742V30.79a4.741,4.741,0,0,0-4.741-4.741H66.33a4.741,4.741,0,0,0-4.741,4.741V46.216a4.742,4.742,0,0,0,4.741,4.742Z" style="fill:none;stroke:#a7abae;stroke-miterlimit:3;stroke-width:0.5000000000025px"/><path d="M66.33,50.708h63.157a4.491,4.491,0,0,0,4.491-4.492V30.79a4.49,4.49,0,0,0-4.491-4.491H66.33a4.491,4.491,0,0,0-4.491,4.491V46.216a4.493,4.493,0,0,0,4.491,4.492Z" style="fill:none;stroke:#a7abae;stroke-miterlimit:3;stroke-width:0.5000000000025px"/><path d="M66.33,50.458h63.157a4.242,4.242,0,0,0,4.241-4.242V30.79a4.24,4.24,0,0,0-4.241-4.241H66.33a4.242,4.242,0,0,0-4.241,4.241V46.216a4.244,4.244,0,0,0,4.241,4.242Z" style="fill:none;stroke:#a7abae;stroke-miterlimit:3;stroke-width:0.5000000000025px"/></g><rect x="62.339" y="26.799" width="71.139" height="23.409" rx="3.991" style="fill:none;stroke:#a7abae;stroke-miterlimit:3;stroke-width:0.5000000000025px"/><g id="a3cc0cbb-e82b-41b9-90ed-3dabc11e3b46" data-name="Offset Group"><path d="M62.488,29.944a62.921,62.921,0,0,0-8.925,1.365,13.568,13.568,0,0,0-2.809,1.219,6.342,6.342,0,0,1-1.794.752l-.469.106c-3.163.71-18.841,4.221-29.759,10.5a31.786,31.786,0,0,0-7.444,5.645l.079-.076s-1.936,1.9-3.331,9.384C6.8,61.555,3.826,75.887,4.353,80.387c-.872,4.879-1.631,20.637-1.631,32.606S3.481,140.72,4.353,145.6c-.527,4.5,2.442,18.831,3.683,21.552,1.395,7.482,3.331,9.383,3.331,9.383l-.079-.076a31.732,31.732,0,0,0,7.444,5.645c10.918,6.276,26.6,9.787,29.759,10.5l.469.107a6.341,6.341,0,0,1,1.794.751,13.46,13.46,0,0,0,2.809,1.219,62.921,62.921,0,0,0,8.925,1.365" style="fill:none;stroke:#a7abae;stroke-miterlimit:3;stroke-width:0.5000000000025px"/><path d="M62.51,30.193a62.908,62.908,0,0,0-8.873,1.355,13.275,13.275,0,0,0-2.762,1.2,6.592,6.592,0,0,1-1.857.776l-.473.107c-3.167.711-18.808,4.215-29.688,10.469A31.3,31.3,0,0,0,11.53,49.64s-1.862,1.782-3.253,9.271C7.063,61.5,4.061,75.978,4.606,80.394c-.87,4.809-1.634,20.6-1.634,32.6s.764,27.79,1.634,32.6c-.545,4.417,2.457,18.893,3.671,21.484,1.391,7.488,3.253,9.27,3.194,9.213a31.52,31.52,0,0,0,7.386,5.6c10.88,6.253,26.521,9.758,29.688,10.468.227.051.383.086.473.108a6.591,6.591,0,0,1,1.857.775,13.267,13.267,0,0,0,2.762,1.2,63.014,63.014,0,0,0,8.873,1.354" style="fill:none;stroke:#a7abae;stroke-miterlimit:3;stroke-width:0.5000000000025px"/><path d="M62.531,30.443a62.844,62.844,0,0,0-8.82,1.344A12.983,12.983,0,0,0,51,32.966a6.826,6.826,0,0,1-1.92.8c-.092.022-.25.057-.476.108-3.172.712-18.777,4.21-29.619,10.442a31.129,31.129,0,0,0-7.287,5.513S9.9,51.491,8.517,58.988C7.331,61.442,4.294,76.07,4.858,80.4c-.868,4.736-1.636,20.554-1.636,32.592s.768,27.856,1.636,32.591C4.294,149.915,7.331,164.543,8.517,167c1.387,7.5,3.177,9.158,3.137,9.12a31.265,31.265,0,0,0,7.327,5.552C29.823,187.9,45.428,191.4,48.6,192.112c.226.05.384.086.476.108a6.826,6.826,0,0,1,1.92.8,13.037,13.037,0,0,0,2.715,1.179,62.844,62.844,0,0,0,8.82,1.344" style="fill:none;stroke:#a7abae;stroke-miterlimit:3;stroke-width:0.5000000000025px"/><path d="M62.553,30.692a62.949,62.949,0,0,0-8.768,1.333,12.761,12.761,0,0,0-2.668,1.16,7.078,7.078,0,0,1-1.983.824c-.094.023-.255.059-.479.109-3.177.713-18.745,4.2-29.549,10.414a30.97,30.97,0,0,0-7.249,5.486s-1.721,1.547-3.083,9.015c-1.146,2.2-4.27,17.209-3.655,21.334-.869,4.608-1.647,20.517-1.647,32.626s.778,28.018,1.645,32.543C4.5,149.743,7.628,164.75,8.75,166.883c1.386,7.538,3.107,9.084,3.088,9.065a31,31,0,0,0,7.268,5.5c10.8,6.21,26.372,9.7,29.549,10.415l.479.108a7.078,7.078,0,0,1,1.983.825,12.769,12.769,0,0,0,2.668,1.159,62.84,62.84,0,0,0,8.768,1.334" style="fill:none;stroke:#a7abae;stroke-miterlimit:3;stroke-width:0.5000000000025px"/></g><path d="M62.575,30.941a62.793,62.793,0,0,0-8.716,1.323c-2.506.778-2.852,1.556-4.667,1.988S21.443,40.057,12.021,50.208c0,0-1.642,1.42-3.026,8.94C7.872,61.309,4.76,76.264,5.365,80.413,4.5,85,3.722,100.881,3.722,112.993s.778,28,1.643,32.579c-.605,4.15,2.507,19.1,3.63,21.265,1.384,7.521,3.026,8.941,3.026,8.941,9.422,10.151,35.355,15.523,37.171,15.955s2.161,1.21,4.667,1.988a62.842,62.842,0,0,0,8.716,1.324" style="fill:none;stroke:#a7abae;stroke-miterlimit:3;stroke-width:0.5000000000025px"/><path d="M55.927,31.793c-1.981,3.065-2.068,7.041-2.068,9.721V48.17c0,1.271.665,11.093,20.22,15.309A1.628,1.628,0,0,1,75.37,64.97l1.653,28.182a1.62,1.62,0,0,0,1.617,1.524h3.506a1.619,1.619,0,0,0,1.507-1.028L89.59,78.5A1.618,1.618,0,0,1,91.1,77.474h7.984a1.621,1.621,0,0,0,.788-.2l18.858-10.495a1.621,1.621,0,0,1,1.36-.1L128.876,70a1.619,1.619,0,0,0,2.076-.914l4.6-11.491S141.427,55,141.427,44.8V30.941" style="fill:none;stroke:#a7abae;stroke-miterlimit:10"/><path d="M432.464,31.864c1.913,0,4.446.882,4.824,6.085s.378,14.567.473,16.364a9.2,9.2,0,0,1-1.987,6.149c-1.457,1.639-8.7,10.733-14.221,15.544a.827.827,0,0,0-.088,1.166l2.853,3.311v8.928a3.862,3.862,0,0,1-3.863,3.863h-9.861L405.049,94.7h-2.7a1.364,1.364,0,0,1-1.363-1.364V87.126h-7.521l-1.318-13.889-18.94.823c-1.921,3.129-6.368,2.361-10.705-.659s-13.944-10.43-13.944-29.26V34.2a4.26,4.26,0,0,1,1.994-3.608" style="fill:none;stroke:#a7abae;stroke-miterlimit:10;stroke-width:0.5px"/><path d="M462.521,62.266a243.452,243.452,0,0,0-26.747-1.8" style="fill:none;stroke:#a7abae;stroke-miterlimit:10;stroke-width:0.5px"/><line x1="431.812" y1="65.158" x2="431.812" y2="112.993" style="fill:none;stroke:#a7abae;stroke-miterlimit:10;stroke-width:0.5px"/><path d="M465.543,79.633c-8.649-1.853-25.154-2.294-32.48-.97" style="fill:none;stroke:#a7abae;stroke-miterlimit:10;stroke-width:0.5px"/><path d="M424.311,89.517a3.565,3.565,0,1,0-5.557,3.758" style="fill:none;stroke:#a7abae;stroke-miterlimit:10;stroke-width:0.5px"/><path d="M422.561,87.267s.072-2.006,0-3.266a5.317,5.317,0,0,0-2.487-3.831c-1.679-1.259-8.292-5.563-8.292-5.563L397.3,49.941" style="fill:none;stroke:#a7abae;stroke-miterlimit:10;stroke-width:0.5px"/><path d="M420.337,86.837V84.369a3.155,3.155,0,0,0-1.785-2.782c-1.837-.892-13.33-7.032-15.8-8.134s-4.775.314-4.933,3.148,0,10.525,0,10.525" style="fill:none;stroke:#a7abae;stroke-miterlimit:10;stroke-width:0.5px"/><polyline points="394.516 87.267 392.522 54.927 391.734 50.208" style="fill:none;stroke:#a7abae;stroke-miterlimit:10;stroke-width:0.5px"/><path d="M397.347,55.376l6.863,12.286a.413.413,0,0,1-.583.55l-6.567-4.194a.415.415,0,0,1-.19-.334l-.3-8.091A.413.413,0,0,1,397.347,55.376Z" style="fill:none;stroke:#a7abae;stroke-miterlimit:10;stroke-width:0.5px"/><polygon points="411.65 74.819 395.093 64.216 411.914 74.395 411.65 74.819" style="fill:#a7abae"/><path d="M360.056,112.993V83.865s-14.2-4.646-18.583-28.7" style="fill:none;stroke:#a7abae;stroke-miterlimit:10;stroke-width:0.5px"/><path d="M347.027,41.36v13.8h-25.2s-2.67-.56-4.7,2.43-5.874,9.078-5.874,9.078" style="fill:none;stroke:#a7abae;stroke-miterlimit:10;stroke-width:0.5px"/><path d="M342.114,112.993v-19.8a3.486,3.486,0,0,0-3.12-3.467l-14.138-1.49a2.195,2.195,0,0,1-1.965-2.183v-9.3a4,4,0,0,0-1.792-3.335l-13.907-9.205H132.8" style="fill:none;stroke:#a7abae;stroke-miterlimit:10;stroke-width:0.5px"/><polyline points="348.559 41.36 345.638 41.36 343.289 40.292 141.427 40.292" style="fill:none;stroke:#a7abae;stroke-miterlimit:10;stroke-width:0.5px"/><line x1="178.288" y1="64.216" x2="178.288" y2="112.993" style="fill:none;stroke:#a7abae;stroke-miterlimit:10;stroke-width:0.5px"/><line x1="142.939" y1="64.216" x2="142.939" y2="112.993" style="fill:none;stroke:#a7abae;stroke-miterlimit:10;stroke-width:0.5px"/><circle cx="278.357" cy="71.69" r="1.655" style="fill:none;stroke:#a7abae;stroke-miterlimit:10;stroke-width:0.5px"/><circle cx="243.872" cy="71.69" r="1.655" style="fill:none;stroke:#a7abae;stroke-miterlimit:10;stroke-width:0.5px"/><circle cx="210.253" cy="71.69" r="1.655" style="fill:none;stroke:#a7abae;stroke-miterlimit:10;stroke-width:0.5px"/><circle cx="278.357" cy="109.282" r="1.655" style="fill:none;stroke:#a7abae;stroke-miterlimit:10;stroke-width:0.5px"/><circle cx="243.872" cy="109.282" r="1.655" style="fill:none;stroke:#a7abae;stroke-miterlimit:10;stroke-width:0.5px"/><circle cx="210.253" cy="109.282" r="1.655" style="fill:none;stroke:#a7abae;stroke-miterlimit:10;stroke-width:0.5px"/><line x1="332.396" y1="97.321" x2="186.298" y2="97.321" style="fill:none;stroke:#a7abae;stroke-miterlimit:10;stroke-width:0.5px"/><line x1="332.396" y1="91.448" x2="186.298" y2="91.448" style="fill:none;stroke:#a7abae;stroke-miterlimit:10;stroke-width:0.5px"/><line x1="314.667" y1="81.836" x2="186.298" y2="81.836" style="fill:none;stroke:#a7abae;stroke-miterlimit:10;stroke-width:0.5px"/><line x1="314.667" y1="78.312" x2="186.298" y2="78.312" style="fill:none;stroke:#a7abae;stroke-miterlimit:10;stroke-width:0.5px"/><path d="M77.409,94.1v2.975a.906.906,0,0,1-.906.907H68.557a.906.906,0,0,0-.906.906v14.106" style="fill:none;stroke:#a7abae;stroke-miterlimit:10;stroke-width:0.5px"/><path d="M53.859,41.514c-9.929,2.413-13.5,2.833-16.017,9.76S32.49,86.861,32.49,112.993" style="fill:none;stroke:#a7abae;stroke-miterlimit:10;stroke-width:0.5px"/><path d="M28.4,112.993V97.037a1.32,1.32,0,0,0-1.26-1.318L4.181,94.676" style="fill:none;stroke:#a7abae;stroke-miterlimit:10;stroke-width:0.5px"/><polyline points="13.154 49.084 11.323 58.161 8.995 59.148" style="fill:none;stroke:#a7abae;stroke-miterlimit:10;stroke-width:0.5px"/><path d="M5.365,80.413s.143,1.3,1.96,1.59c0,0-.98,15.894-.98,30.99" style="fill:none;stroke:#a7abae;stroke-miterlimit:10;stroke-width:0.5px"/><path d="M135.287,58.245a18.984,18.984,0,0,1-7.515,1.515H91.11" style="fill:none;stroke:#a7abae;stroke-miterlimit:10;stroke-width:0.5px"/><path d="M80.16,59.76c-10.831,0-26.3-2.383-26.3-14.61" style="fill:none;stroke:#a7abae;stroke-miterlimit:10;stroke-width:0.5px"/><path d="M427,48.1c0,5.283-1.339,10.416-3.312,12.359s-5.637,5.043-5.637,5.043-3.731,1.9-6.269,1.9h-4.228" style="fill:none;stroke:#a7abae;stroke-miterlimit:10;stroke-width:0.5px"/><path d="M393.291,67.408H367.956c-2.818,0-10.992-1.621-13.387-7.892a58.107,58.107,0,0,1-3.8-18.69V30.6" style="fill:none;stroke:#a7abae;stroke-miterlimit:10;stroke-width:0.5px"/><path d="M90.866,50.208l-.691,5.312a11.62,11.62,0,0,0,.935,3.862c.82,1.67,2.909,7.708-2.081,14.3-2,2.335-4.322,4.855-5.181,8.8s-1.2,6.232-1.2,6.232l-3.035-.555s.393-1.988.919-5.994-.809-7.163-1.9-10.036c-2.469-7.891,1.538-12.869,2.873-14.164a11.624,11.624,0,0,0,2.185-3.318l.972-4.443" style="fill:none;stroke:#a7abae;stroke-miterlimit:10;stroke-width:0.5px"/><path d="M89.511,53.356l-4.169-.729s-.284,1.529,1.84,1.893S89.511,53.356,89.511,53.356Z" style="fill:none;stroke:#a7abae;stroke-miterlimit:10;stroke-width:0.5px"/><circle cx="85.33" cy="64.216" r="1.662" style="fill:none;stroke:#a7abae;stroke-miterlimit:10;stroke-width:0.5px"/><circle cx="336.712" cy="49.002" r="4.761" style="fill:#f2a900;stroke:#12171d;stroke-miterlimit:10"/><circle cx="160.102" cy="48.103" r="4.761" style="fill:#f2a900;stroke:#12171d;stroke-miterlimit:10"/><circle cx="336.712" cy="176.984" r="4.761" style="fill:#f2a900;stroke:#12171d;stroke-miterlimit:10"/><circle cx="160.102" cy="177.882" r="4.761" style="fill:#f2a900;stroke:#12171d;stroke-miterlimit:10"/><polygon points="510.618 7.681 510.618 99.481 343.789 51.409 510.618 122.024 510.618 147.771 650.708 147.771 650.708 7.681 510.618 7.681" style="fill:#fff"/><path d="M623.018,81.39c1.12-.367.849-.945.849-.945V69.64c0-11.523,3.126-16.934,12.941-32.012,6.059-9.316,7.513-15.857,6.226-22.135a26.9,26.9,0,0,0-1.156-3.94,39.5,39.5,0,0,0-1.7-3.87" style="fill:none;stroke:#a7abae;stroke-miterlimit:10"/><path d="M545.677,87.187l.367-3.179-.245-1.225s-17.468.324-33.281.683" style="fill:none;stroke:#a7abae;stroke-miterlimit:10"/><path d="M546.042,84.008c-2.566,0-2.81.183-2.688,1.344s.428,1.894,3.6,1.894h14.6a1.681,1.681,0,0,0,1.527-2.078,2.463,2.463,0,0,0-2.627-1.649" style="fill:none;stroke:#a7abae;stroke-miterlimit:10"/><path d="M642.929,143.811l-.429-.735-4.186-7.233-.332-.577c-3.056-3-3.056-5.683-3.056-5.683a39.344,39.344,0,0,1-3.905-11.12c-.552-2.382-1.471-3.914-1.042-6.357a14.23,14.23,0,0,0,0-4.64s-4.641-20.708-5.315-23.431c-.044-.167-.088-.333-.14-.482a3.961,3.961,0,0,0-1.506-2.163,2.036,2.036,0,0,0-.736-.315l-61.519,1.349-.28,1.094L559.607,87" style="fill:none;stroke:#a7abae;stroke-miterlimit:10"/><path d="M512.518,90.961c28.474-.324,74.557-.832,77.744-1.086a13.132,13.132,0,0,0,1.515-.193c3.09-.543,3.248-1.856,4.054-3.292.919-1.646,2.565-2.075,4.334-2.136s22.853-.368,22.853-.368" style="fill:none;stroke:#a7abae;stroke-miterlimit:10;stroke-width:0.5px"/><path d="M594.181,90.3s4.154,39.342,9.836,53.515" style="fill:none;stroke:#a7abae;stroke-miterlimit:10;stroke-width:0.5px"/><path d="M629.98,107.466c-12.524,4.155-24.375,10.2-22.115,25.719s21.015,10.076,34.638,9.9" style="fill:none;stroke:#a7abae;stroke-miterlimit:10;stroke-width:0.5px"/><path d="M629.98,112.109c-10.08,3.238-17.289,7.331-17.166,15.517s6.416,9.658,25.506,8.219" style="fill:none;stroke:#a7abae;stroke-miterlimit:10;stroke-width:0.5px"/><path d="M643.034,15.493s-4.439.1-10.49.342-8.187-2.023-9.71-4.037a15.914,15.914,0,0,1-2.443-4.115" style="fill:none;stroke:#a7abae;stroke-miterlimit:10;stroke-width:0.5px"/><path d="M641.887,11.553h-.009c-.315.018-6.059.368-11.225.245-3.7-.087-4.912-1.479-5.823-4.115" style="fill:none;stroke:#a7abae;stroke-miterlimit:10;stroke-width:0.5px"/><ellipse cx="610.893" cy="39.038" rx="7.682" ry="6.243" transform="translate(91.85 363.551) rotate(-35.671)" style="fill:none;stroke:#a7abae;stroke-miterlimit:10;stroke-width:0.5px"/><path d="M617.581,69.325a7.778,7.778,0,0,0,2.771-3.882,4.74,4.74,0,0,0-4.7-6.442,7.9,7.9,0,0,0-7.234,5.193,4.739,4.739,0,0,0,4.6,6.513,7.775,7.775,0,0,0,4.565-1.382,7.9,7.9,0,0,1-4.568,1.627,5.047,5.047,0,0,1-5.028-6.9,8.151,8.151,0,0,1,7.671-5.506,5.047,5.047,0,0,1,4.927,6.971A7.9,7.9,0,0,1,617.581,69.325Z" style="fill:#a7abae"/><ellipse cx="613.825" cy="64.092" rx="4.77" ry="3.876" transform="translate(77.79 369.961) rotate(-35.671)" style="fill:none;stroke:#a7abae;stroke-miterlimit:10;stroke-width:0.5px"/><ellipse cx="614.848" cy="101.535" rx="2.104" ry="1.71" transform="translate(56.148 377.582) rotate(-35.671)" style="fill:none;stroke:#a7abae;stroke-miterlimit:10;stroke-width:0.5px"/><path d="M568.892,111.717a4.218,4.218,0,0,1,1.858-3.315c1.793-1.293,4.1-1.151,5.14.3a2.791,2.791,0,0,1,.511,1.64" style="fill:none;stroke:#a7abae;stroke-miterlimit:10;stroke-width:0.5px"/><path d="M576.4,114.259a4.2,4.2,0,0,1-1.859,3.325c-1.793,1.283-4.1,1.152-5.139-.3a2.769,2.769,0,0,1-.511-1.641" style="fill:none;stroke:#a7abae;stroke-miterlimit:10;stroke-width:0.5px"/><ellipse cx="613.663" cy="63.867" rx="2.692" ry="2.187" transform="translate(77.891 369.824) rotate(-35.671)" style="fill:none;stroke:#a7abae;stroke-miterlimit:10;stroke-width:0.5px"/><ellipse cx="610.722" cy="38.8" rx="4.494" ry="3.652" transform="translate(91.957 363.407) rotate(-35.671)" style="fill:none;stroke:#a7abae;stroke-miterlimit:10;stroke-width:0.5px"/><path d="M617.221,47.853a11.982,11.982,0,0,0,4.315-5.939,7.846,7.846,0,0,0-.91-7.025,7.842,7.842,0,0,0-6.366-3.005,12.2,12.2,0,0,0-11.222,8.055,7.842,7.842,0,0,0,.811,6.992,7.841,7.841,0,0,0,6.364,3.11,11.987,11.987,0,0,0,7.008-2.188,12.1,12.1,0,0,1-7.011,2.432,7.665,7.665,0,0,1-7.6-10.487,12.442,12.442,0,0,1,11.659-8.368,8.146,8.146,0,0,1,6.672,3.235,8.144,8.144,0,0,1,.83,7.324A12.1,12.1,0,0,1,617.221,47.853Z" style="fill:#a7abae"/><path d="M628.578,123.23a3.557,3.557,0,0,0-2.988-3.38,5.543,5.543,0,0,0-4.491,1.324,5.07,5.07,0,0,0-1.977,4.193,3.347,3.347,0,0,0,.976,2.143,3.95,3.95,0,0,0,2.184,1.082,3.869,3.869,0,0,1-2.351-.9,3.652,3.652,0,0,1-1.192-2.282,5.394,5.394,0,0,1,2.04-4.618,5.84,5.84,0,0,1,4.889-1.315,3.809,3.809,0,0,1,2.189,1.35A3.5,3.5,0,0,1,628.578,123.23Z" style="fill:#a7abae"/><ellipse cx="610.722" cy="38.8" rx="4.494" ry="3.652" transform="translate(91.957 363.407) rotate(-35.671)" style="fill:none;stroke:#a7abae;stroke-miterlimit:10;stroke-width:0.5px"/><polyline points="614.848 63.934 614.872 64.71 614.146 65.283 613.397 65.079" style="fill:none;stroke:#a7abae;stroke-linecap:round;stroke-linejoin:round;stroke-width:0.5px"/><polyline points="614.848 63.934 614.098 63.731 613.373 64.303 613.397 65.079" style="fill:none;stroke:#a7abae;stroke-miterlimit:10;stroke-width:0.5px"/><path d="M638.4,26.483A7.786,7.786,0,0,0,638,21.731a4.74,4.74,0,0,0-7.756-1.857,7.9,7.9,0,0,0-2.14,8.644,4.74,4.74,0,0,0,7.724,1.977,7.781,7.781,0,0,0,2.579-4.012,7.9,7.9,0,0,1-2.423,4.2,5.047,5.047,0,0,1-8.3-1.992,8.152,8.152,0,0,1,2.271-9.166,5.047,5.047,0,0,1,8.27,2.113A7.9,7.9,0,0,1,638.4,26.483Z" style="fill:#a7abae"/><ellipse cx="632.15" cy="24.934" rx="4.77" ry="3.876" transform="translate(455.958 632.545) rotate(-76.088)" style="fill:none;stroke:#a7abae;stroke-miterlimit:10;stroke-width:0.5px"/><ellipse cx="631.88" cy="24.867" rx="2.692" ry="2.187" transform="translate(455.818 632.233) rotate(-76.088)" style="fill:none;stroke:#a7abae;stroke-miterlimit:10;stroke-width:0.5px"/><polyline points="632.826 24.151 633.347 24.726 633.166 25.632 632.464 25.963" style="fill:none;stroke:#a7abae;stroke-linecap:round;stroke-linejoin:round;stroke-width:0.5px"/><polyline points="632.826 24.151 632.124 24.482 631.943 25.388 632.464 25.963" style="fill:none;stroke:#a7abae;stroke-miterlimit:10;stroke-width:0.5px"/><path d="M621.129,126.015l.327-2.34a.721.721,0,0,1,.37-.534l2.528-1.376a.724.724,0,0,1,.649-.021l2.257,1.049a.718.718,0,0,1,.268.215l.9,1.172a.723.723,0,0,1,.142.539l-.328,2.341a.717.717,0,0,1-.369.533l-2.529,1.377a.718.718,0,0,1-.648.02l-2.257-1.048a.723.723,0,0,1-.269-.215l-.9-1.173A.718.718,0,0,1,621.129,126.015Z" style="fill:none;stroke:#a7abae;stroke-miterlimit:10;stroke-width:0.5px"/><path d="M628.613,124.42,626.2,123.3a.721.721,0,0,0-.649.02l-2.528,1.377a.717.717,0,0,0-.369.533l-.37,2.64" style="fill:none;stroke:#a7abae;stroke-miterlimit:10;stroke-width:0.25px"/><line x1="625.866" y1="123.144" x2="624.673" y2="121.591" style="fill:none;stroke:#a7abae;stroke-miterlimit:10;stroke-width:0.25px"/><line x1="622.699" y1="124.867" x2="621.506" y2="123.315" style="fill:none;stroke:#a7abae;stroke-miterlimit:10;stroke-width:0.25px"/><path d="M608.228,40.181l.1-1.873a.574.574,0,0,1,.255-.448l1.9-1.261a.57.57,0,0,1,.512-.061l1.857.674a.59.59,0,0,1,.227.152l.792.865a.571.571,0,0,1,.15.417l-.1,1.873a.571.571,0,0,1-.255.447l-1.905,1.262a.574.574,0,0,1-.512.061l-1.857-.674a.583.583,0,0,1-.227-.152l-.792-.865A.571.571,0,0,1,608.228,40.181Z" style="fill:none;stroke:#a7abae;stroke-miterlimit:10;stroke-width:0.5px"/><path d="M614.037,38.406l-1.989-.722a.569.569,0,0,0-.511.061l-1.905,1.261a.575.575,0,0,0-.256.448l-.111,2.113" style="fill:none;stroke:#a7abae;stroke-miterlimit:10;stroke-width:0.25px"/><line x1="611.777" y1="37.585" x2="610.728" y2="36.439" style="fill:none;stroke:#a7abae;stroke-miterlimit:10;stroke-width:0.25px"/><line x1="609.391" y1="39.166" x2="608.342" y2="38.02" style="fill:none;stroke:#a7abae;stroke-miterlimit:10;stroke-width:0.25px"/><line x1="576.401" y1="114.259" x2="576.401" y2="110.347" style="fill:none;stroke:#a7abae;stroke-miterlimit:10;stroke-width:0.5px"/><path d="M573.619,109.75a4.207,4.207,0,0,1-1.858,3.325,4.494,4.494,0,0,1-2.869.869" style="fill:none;stroke:#a7abae;stroke-miterlimit:10;stroke-width:0.5px"/><line x1="573.619" y1="109.75" x2="573.619" y2="107.533" style="fill:none;stroke:#a7abae;stroke-miterlimit:10;stroke-width:0.5px"/><line x1="568.892" y1="115.639" x2="568.892" y2="111.717" style="fill:none;stroke:#a7abae;stroke-miterlimit:10;stroke-width:0.5px"/><polygon points="535.702 107.533 534.094 118.466 545.344 118.102 546.782 107.533 535.702 107.533" style="fill:none;stroke:#a7abae;stroke-miterlimit:10;stroke-width:0.5px"/><path d="M570.315,76.075c-.01-.011-.021-.011-.032-.021a11.006,11.006,0,0,1-3.227-3.336c-3.8-6.086-1-14.692,6.259-19.223,5.976-3.727,13.115-3.521,17.559.087.022.011.033.022.044.022h0a11.122,11.122,0,0,1,3.2,3.325c3.8,6.093,1,14.7-6.26,19.221a17.892,17.892,0,0,1-6.148,2.407l-.827,1.9a.423.423,0,0,1-.389.255h-5.6a.424.424,0,0,1-.388-.593l.723-1.664a12.392,12.392,0,0,1-5.129-2.541" style="fill:#d3d5d6;stroke:#000001;stroke-linecap:round;stroke-linejoin:round;stroke-width:1.5px"/><path d="M590.491,53.951a14,14,0,0,0-10.064-1.712,17.45,17.45,0,0,0-9.051,4.787,14.933,14.933,0,0,0-4.543,9.086A11.032,11.032,0,0,0,570.4,75.5a10.612,10.612,0,0,1-3.143-4.192,11.456,11.456,0,0,1-.806-5.224,15.141,15.141,0,0,1,4.575-9.408,17.563,17.563,0,0,1,9.336-4.809,15.1,15.1,0,0,1,5.292.045A12.641,12.641,0,0,1,590.491,53.951Z" style="fill:#000001"/><polygon points="577.294 124.077 581.158 100.366 589.428 100.366 576.907 84.004 559.054 100.366 567.324 100.366 563.46 124.077 577.294 124.077" style="fill:#f2a900;stroke:#fff;stroke-miterlimit:10;stroke-width:1.5px"/><polygon points="510.618 7.681 510.618 99.481 343.789 51.409 510.618 122.024 510.618 147.771 650.708 147.771 650.708 7.681 510.618 7.681" style="fill:none;stroke:#000001;stroke-linecap:round;stroke-linejoin:round;stroke-width:1.5px"/></g></svg>