<?xml version="1.0" encoding="UTF-8"?><svg id="uuid-80b270a0-f6b3-4a46-83bb-90178c305d8c" xmlns="http://www.w3.org/2000/svg" width="218" height="218" xmlns:xlink="http://www.w3.org/1999/xlink" viewBox="0 0 218 218"><defs><clipPath id="uuid-017abcd9-5cc6-43f6-bb04-0ff04ca271d2"><rect width="216.437" height="218" style="fill:none;"/></clipPath><clipPath id="uuid-1da08302-90c9-4a69-9fff-6f99fe90a040"><path d="m73.75,58.831c11.494-8.734,24.975-12.803,38.449-10.378l24.959,4.584c29.761,5.355,48.531,40.424,42.969,79.214-.163,1.15-.349,2.303-.557,3.456-7.224,40.142-37.92,68.213-68.567,62.699l-24.957-4.585c-26.048-4.685-43.679-32.136-43.941-64.921-.205-25.627,11.24-54.563,31.645-70.068Z" style="fill:none;"/></clipPath><clipPath id="uuid-d17f9353-8d15-4026-a20a-6174575f94af"><path d="m183.228,159.69v44.872l-58.563-5.863c19.451-2.608,37.459-17.869,47.699-39.997l10.863.987Z" style="fill:none;"/></clipPath></defs><g style="clip-path:url(#uuid-017abcd9-5cc6-43f6-bb04-0ff04ca271d2);"><g style="opacity:.25;"><g style="clip-path:url(#uuid-1da08302-90c9-4a69-9fff-6f99fe90a040);"><path d="m135.009,196.182l4.358.506c5.978-2.09,9.421-4.384,12.882-6.87l1.791.095s.644-.523,2.585-.42,3.504.253,4.019,1.192l5.632.298c1.637-1.106,5.405-.418,5.974.805l3.132.166c.673.036.398-1.087-1.298-2.269,0,0-.442-15.221-1.067-18.818-.625-3.597-4.412-2.404-5.875-1.153-1.457,1.251-3.081,1.795-5.042-.616-1.962-2.411-6.478-3.1-8.815-1.248-2.337,1.846-3.855,2.013-5.079-.274-1.224-2.282-3.456-3.272-5.596-.29-2.134,2.976-15.457,18.348-27.737,24.822l-.252,1.697,2.827.33c2.249-1.744,3.876-1.432,3.849.451l2.875.332c2.366-1.901,4.087-1.568,3.981.464l2.857.331c2.385-1.916,4.106-1.578,3.998.47Z" style="fill:#d3d5d6; stroke:#000001; stroke-miterlimit:10; stroke-width:1.5px;"/><path d="m151.768,189.242c4.915-4.371,9.776-8.908,13.594-14.274,2.484-4.049,6.234-7.094,6.448.103.129,3.344.172,6.676.075,10.016-.414-3.313-.729-6.632-1.146-9.925-.157-1.043-.151-2.37-.802-3.102-.145-.074-.241.014-.431.109-1.182.849-2.003,2.409-2.874,3.67-3.765,5.614-8.648,10.366-13.902,14.555,0,0-.961-1.152-.961-1.152h0Z" style="fill:#000001;"/><path d="m161.315,168.986c-1.353-1.125-2.309.101-3.189,1.208-.929,1.209-1.822,2.544-2.846,3.743-6.076,7.201-13.155,13.468-20.38,19.469,7.038-6.182,13.927-12.627,19.773-19.955.977-1.213,1.79-2.509,2.742-3.803,1.075-1.53,2.572-2.913,4.461-1.491,0,0-.561.828-.561.828h0Z" style="fill:#000001;"/><path d="m153.64,168.51c-.923.555-2.476,2.2-3.352,2.996-7.953,7.628-16.511,14.604-25.183,21.382,4.799-4.063,9.543-8.19,14.154-12.455,4.044-3.705,7.955-7.595,11.749-11.557.576-.566,1.065-1.137,1.922-1.688l.71,1.321h0Z" style="fill:#000001;"/><path d="m148.442,168.644c-.451-.853-1.532.343-2.353,1.208-5.78,6.836-12.241,13.132-19.43,18.474,7.019-5.583,13.22-12.035,18.777-19.056.726-.745,1.358-1.771,2.57-1.887.53-.001.935.326,1.185.599l-.75.662h0Z" style="fill:#000001;"/><path d="m163.736,171.025c-.338-.067-.734.304-1.108.793-1.116,1.538-2.103,3.23-3.355,4.694-4.942,5.92-10.904,10.999-17.485,14.985,8.006-5.274,15.07-12.054,20.076-20.251.439-.606,1.079-1.3,1.96-1.217,0,0-.089.996-.089.996h0Z" style="fill:#000001;"/><path d="m138.526,184.506c.2-.192,4.319-4.144,5.214-5.016s1.506-1.209,2.419-1.051,1.14.947.198,2.082c-.942,1.135-4.378,4.455-4.882,4.908s-1.539,1.017-2.413.86-1.645-.721-.535-1.784Z" style="fill:none; stroke:#000001; stroke-miterlimit:10;"/><path d="m165.526,190.97c.259-5.089.715-10.204.457-15.301.436,2.523.533,5.096.701,7.648.142,2.558.254,5.114.342,7.677l-1.5-.025h0Z" style="fill:#000001;"/></g></g><g style="clip-path:url(#uuid-d17f9353-8d15-4026-a20a-6174575f94af);"><path d="m135.009,196.182l4.358.506c5.978-2.09,9.421-4.384,12.882-6.87l1.791.095s.644-.523,2.585-.42,3.504.253,4.019,1.192l5.632.298c1.637-1.106,5.405-.418,5.974.805l3.132.166c.673.036.398-1.087-1.298-2.269,0,0-.442-15.221-1.067-18.818-.625-3.597-4.412-2.404-5.875-1.153-1.457,1.251-3.081,1.795-5.042-.616-1.962-2.411-6.478-3.1-8.815-1.248-2.337,1.846-3.855,2.013-5.079-.274-1.224-2.282-3.456-3.272-5.596-.29-2.134,2.976-15.457,18.348-27.737,24.822l-.252,1.697,2.827.33c2.249-1.744,3.876-1.432,3.849.451l2.875.332c2.366-1.901,4.087-1.568,3.981.464l2.857.331c2.385-1.916,4.106-1.578,3.998.47Z" style="fill:#d3d5d6; stroke:#000001; stroke-miterlimit:10; stroke-width:1.5px;"/><path d="m151.546,189.42c5.162-4.154,9.843-9.023,13.939-14.225,2.288-3.555,5.829-7.355,6.142-.175.186,3.358.258,6.711.257,10.068-.479-4.111-.575-8.365-1.367-12.402-.818-2.789-3.44,2.251-4.205,3.12-4.082,5.4-8.745,10.334-14.161,14.411,0,0-.604-.797-.604-.797h0Z" style="fill:#000001;"/><path d="m161.315,168.986c-1.353-1.125-2.309.101-3.189,1.208-.929,1.209-1.822,2.544-2.846,3.743-6.076,7.201-13.155,13.468-20.38,19.469,7.038-6.182,13.927-12.627,19.773-19.955.977-1.213,1.79-2.509,2.742-3.803,1.075-1.53,2.572-2.913,4.461-1.491,0,0-.561.828-.561.828h0Z" style="fill:#000001;"/><path d="m153.64,168.51c-.923.555-2.476,2.2-3.352,2.996-7.953,7.628-16.511,14.604-25.183,21.382,4.799-4.063,9.543-8.19,14.154-12.455,4.044-3.705,7.955-7.595,11.749-11.557.576-.566,1.065-1.137,1.922-1.688l.71,1.321h0Z" style="fill:#000001;"/><path d="m148.442,168.644c-.451-.853-1.532.343-2.353,1.208-5.78,6.836-12.241,13.132-19.43,18.474,7.019-5.583,13.22-12.035,18.777-19.056.726-.745,1.358-1.771,2.57-1.887.53-.001.935.326,1.185.599l-.75.662h0Z" style="fill:#000001;"/><path d="m163.736,171.025c-.338-.067-.734.304-1.108.793-1.116,1.538-2.103,3.23-3.355,4.694-4.942,5.92-10.904,10.999-17.485,14.985,8.006-5.274,15.07-12.054,20.076-20.251.439-.606,1.079-1.3,1.96-1.217,0,0-.089.996-.089.996h0Z" style="fill:#000001;"/><path d="m138.526,184.506c.2-.192,4.319-4.144,5.214-5.016s1.506-1.209,2.419-1.051,1.14.947.198,2.082c-.942,1.135-4.378,4.455-4.882,4.908s-1.539,1.017-2.413.86-1.645-.721-.535-1.784Z" style="fill:none; stroke:#000001; stroke-miterlimit:10;"/><path d="m165.526,190.97c.259-5.089.715-10.204.457-15.301.436,2.523.533,5.096.701,7.648.142,2.558.254,5.114.342,7.677l-1.5-.025h0Z" style="fill:#000001;"/></g><ellipse cx="128.985" cy="126.604" rx="50.756" ry="38.747" transform="translate(-18.458 231.133) rotate(-79.801)" style="fill:none; stroke:#000001; stroke-miterlimit:10; stroke-width:.5px;"/><ellipse cx="128.761" cy="126.564" rx="6.055" ry="4.622" transform="translate(-18.603 230.879) rotate(-79.801)" style="fill:none; stroke:#000001; stroke-miterlimit:10; stroke-width:.5px;"/><path d="m112.2,48.453l24.959,4.584c29.761,5.355,48.531,40.424,42.969,79.214-.163,1.15-.349,2.303-.557,3.456-7.224,40.142-37.92,68.213-68.567,62.699l-24.957-4.585" style="fill:none; stroke:#000001; stroke-miterlimit:10; stroke-width:1.5px;"/><path d="m137.159,53.037c-30.645-5.513-61.343,22.559-68.565,62.702s11.766,77.154,42.411,82.668" style="fill:none; stroke:#000001; stroke-miterlimit:10; stroke-width:.5px;"/><path d="m42.105,128.899c.262,32.785,17.893,60.236,43.941,64.921" style="fill:none; stroke:#000001; stroke-miterlimit:10; stroke-width:1.5px;"/><path d="m73.75,58.831c11.494-8.734,24.975-12.803,38.449-10.378" style="fill:none; stroke:#000001; stroke-miterlimit:10; stroke-width:1.5px;"/><path d="m181.098,120.083s10.423-1.38,20.052-2.811c9.629-1.43,182.386-21.402,190.532-21.971,8.146-.569,14.532-1.458,19.519-.504,0,0,5.217-1.396,9.763-3.88l7.758-.708s5.227-.719,6.916-7.726c1.688-7.007,5.1-23.403,6.187-28.038,1.087-4.634,6.123-23.615,9.728-29.801,3.605-6.186,7.726-8.849,15.002-10.105,7.276-1.256,19.296-1.084,25.187-.659,5.891.425,12.44,10.386,13.739,22.54,1.3,12.154,1.938,30.916,1.908,32.994s-.984,5.353-2.94,7.253" style="fill:none; stroke:#000001; stroke-miterlimit:10; stroke-width:1.5px;"/><path d="m181.098,120.083c.879-.087,2.653-.316,4.741-.898,2.999-.83,4.89-7.722,4.768-13.279-.683-31.592-7.643-55.408-10.888-64.085-3.246-8.677-9.342-16.321-19.979-17.553-21.569-2.495-42.478-.474-55.463,2.306-12.989,2.78-19.41,8.49-27.615,25.635-8.205,17.144-18.151,52.336-22.723,65.198-3.867,10.881-9.677,11.078-9.677,11.078-13.248,2.757-31.542,2.352-36.635,2.421-5.093.078-21.6-1.786-29.036-2.552-7.444-.775-11.62-2.9-16.215-6.509l-44.036-6.831c-13.067.624-22.506.122-31.17-2.884-8.664-3.001-25.187-13.863-30.866-19.48-5.675-5.617-5.643-7.754-5.643-7.754l.022-1.476c.018-1.476,1.287-2.052,1.287-2.052-.731-.599-1.005-2.225-1.005-2.225-.897-5.898-.964-13.388-.941-16.909.01-1.302.642-2.515,1.696-3.282,3.37-2.455,8.021-5.145,8.021-5.145l.028-7.289c-5.41-5.322-5.278-14.588-5.278-14.588-.013-16.102.566-30.975,2.664-41.07,2.094-10.095,10.788-12.286,10.788-12.286,13.609-4.926,32.616-12.096,58.872-14.278,26.26-2.186,95.595-5.947,95.595-5.947,37.682-33.489,67.727-53.064,78.926-59.976,11.199-6.912,15.836-7.091,15.836-7.091,38.664-8.348,67.223-9.403,132.952-8.216,65.725,1.191,109.431,6.82,128.535,11.275,4.379,1.023,10.477,2.85,13.794,9.72,3.321,6.87,18.447,55.37,18.447,55.37l105.237,1.51c.649.009,1.271.273,1.733.731,1.491,1.483,4.893,4.947,6.405,7.165,1.973,2.883,1.731,8.439,1.731,8.439.791.325.888.806.929,1.546.041.743.201,8.468.182,9.631-.014,1.164-1.192,2.151-1.192,2.151.886.546,1.504,1.285,1.504,1.285,0,0-.09,6.253-.189,13.106-.098,6.861-5.131,26.507-5.131,26.507,1.78,1.276,1.875,4.325,1.916,6.614.033,2.289-.476,8.73-.733,12.192-.261,3.462-2.625,8.698-4.533,11.374-1.912,2.676-9.443,10.682-9.443,10.682-1.709,2.665-4.075,4.405-5.041,5.049" style="fill:none; stroke:#000001; stroke-miterlimit:10; stroke-width:1.5px;"/><path d="m183.056,119.812c5.476-.442,12.957-6.393,23.09-7.516,10.132-1.123,109.495-12.65,133.767-15.212,24.272-2.562,55.397-5.973,63.998-6.868,8.601-.895,17.053.701,17.053.701" style="fill:none; stroke:#000001; stroke-miterlimit:10; stroke-width:.5px;"/><path d="m509.318,72.363s.667-.082.75-5.836c.083-5.753-.462-22.036-2.182-31.681-1.72-9.646-3.877-15.971-5.973-20.317-2.096-4.346-7.151-9.454-24.244-8.71-17.092.744-28.463,3.637-34.347,18.928-5.884,15.291-7.905,24.523-9.322,29.268s-2.898,7.691-7.94,8.158c-5.042.467-99.13,9.366-110.205,10.465-11.075,1.1-121.276,11.205-121.276,11.205,0,0-4.664-34.504-13.169-51.53-8.505-17.026-20.282-17.105-29.263-17.864-8.981-.758-31.528-.607-53.279,3.461-9.376,1.753-18.832,9.009-23.602,15.63-4.771,6.621-8.941,15.283-10.981,19.569s-2.959,11.916-11.413,12.064-28.785.845-28.785.845" style="fill:none; stroke:#000001; stroke-miterlimit:10;"/><path d="m202.606,89.76c7.331-.683,112.227-11.003,131.741-12.975,19.514-1.972,97.12-9.981,97.12-9.981,0,0,3.948-.394,4.768-2.635s6.399-29.868,10.231-37.923c3.833-8.054,7.98-14.528,18.03-16.298,10.05-1.77,22.771-1.362,25.921-1.092s9.035,1.666,13.123,9.46" style="fill:none; stroke:#000001; stroke-miterlimit:10; stroke-width:.5px;"/><path d="m195.077,83.791c.422,3.844,3.758,6.116,7.506,5.72,0,0,.046.498.046.498-2.888.394-6.078-.652-7.538-3.33-.491-.862-.837-1.76-1.01-2.783l.995-.105h0Z" style="fill:#000001;"/><path d="m102.65-102.425c21.26-2.654,60.106-7.418,133.176-6.274,0,0,9.783.426,23.459,1.097,13.676.672,83.187,4.807,93.71,6.669,10.523,1.862,26.789,7.513,28.772,8.397s4.811,2.54,6.548,7.317c1.737,4.777,16.091,50.888,17.691,58.609,1.6,7.721,1.266,17.696-1.612,26.208-2.878,8.512-13.883,41.397-28.711,67.336,0,0,2.084,3.693,1.413,5.471-.671,1.778-5.55,10.642-7.479,12.61s-9.261,9.887-9.261,9.887" style="fill:none; stroke:#000001; stroke-miterlimit:10;"/><path d="m409.843,89.942c.847-6.046-1.688-8.174-6.543-7.626-4.855.548-74.136,6.871-87.082,8.301-12.946,1.43-83.574,8.874-91.952,9.894s-11.741,6.718-15.652,11.507" style="fill:none; stroke:#000001; stroke-miterlimit:10; stroke-width:.5px;"/><path d="m197.936,114.247c3.111-4.6,5.268-16.67,4.671-24.487l-4.235-6.264s1.089-22.783,4.886-29.002c0,0,.632-50.553.066-57.404s-5.619-25.647-5.619-25.647l-3.784-7.848" style="fill:none; stroke:#000001; stroke-miterlimit:10; stroke-width:.5px;"/><path d="m189.066,55.091s163.727-13.075,174.638-13.979c10.911-.904,16.101-3.536,21.585-12.903,5.485-9.367,14.124-31.435,16.19-37.35,2.066-5.915,3.265-12.114.322-22.386-4.017-14.021-14.578-50.294-15.5-52.865s-1.974-7.173-4.535-8.142" style="fill:none; stroke:#000001; stroke-miterlimit:10; stroke-width:.5px;"/><path d="m-148.031,81.369s.505,1.197,3.661,2.17c3.155.973,8.242,1.974,8.242,1.974,0,0,2.23.805,3.794-.487,1.564-1.292,2.656-1.972,4.124-1.873s33.476,4.887,52.616,6.94c0,0,3.249-.185,5.844,2.094,2.595,2.279,4.42,4.392,8.59,4.684s24.013,1.814,28.723,2.19c4.71.377,14.529.209,21.19-.778,6.662-.986,24.878-4.59,28.295-5.7s6.321-2.692,6.761-7.169c.44-4.477.254-17.697.254-17.697,0,0,.552-1.538-1.048-3.107s-4.122-3.615-4.122-3.615c0,0-3.066-1.822-6.003-1.787s-31.754-.997-31.754-.997c0,0-1.079-.247-1.613-.719s-1.433-2.494-3.904-2.684-92.677-5.428-117.999-11.021" style="fill:none; stroke:#000001; stroke-miterlimit:10;"/><path d="m-140.257,53.808l-.04,2.813s-.305,1.387,7.884,1.736c9.236,2.761,42.47,8.34,98.934,11.083,0,0,7.076,2.421,12.736,1.265,5.659-1.155,10.635-3.171,10.635-3.171l34.173.182" style="fill:none; stroke:#000001; stroke-miterlimit:10; stroke-width:.5px;"/><path d="m22.808,68.317s-16.284,3.617-20.856,4.447c-4.572.83-14.881,2.769-25.857,2.766s-59.15-4.096-79.06-6.315c-19.91-2.218-40.956-6.795-43.793-7.729s-2.869-1.585-1.522-2.534" style="fill:none; stroke:#000001; stroke-miterlimit:10; stroke-width:.5px;"/><path d="m-22.126,12.305c22.708.057,59.758-.286,65.519-.709,5.761-.424,8.48-1.978,11.141-5.684,2.661-3.706,2.79-4.035,4.061-6.239,1.566-2.716.885-6.369-4.508-6.475-5.393-.105-78.757-.022-78.757-.022" style="fill:none; stroke:#000001; stroke-miterlimit:10; stroke-width:.5px;"/><path d="m9.075,130.898c-2.968-.01-10.655-1.081-14.788-3.923s-19.859-12.344-29.539-22.965c0,0-1.688-4.068,2.816-4.95" style="fill:none; stroke:#000001; stroke-miterlimit:10; stroke-width:.5px;"/><path d="m26.657,12.014l-2.31,2.466s-.327,22.773-.388,26.999c-.061,4.226,1.871,11.455,12.908,11.379,11.038-.076,27.888-.732,27.888-.732" style="fill:none; stroke:#000001; stroke-miterlimit:10; stroke-width:.5px;"/><path d="m76.661,52.207l-4.794-.069c1.325-5.021,6.653-16.298,14.1-22.53l3.541,3.659" style="fill:none; stroke:#000001; stroke-miterlimit:10; stroke-width:.5px;"/><polyline points="54.534 5.912 75.69 20.108 81.802 26.612" style="fill:none; stroke:#000001; stroke-miterlimit:10; stroke-width:.5px;"/><path d="m47.192,48.206c6.484-.071,10.629-.921,13.243-7.42,3.853-8.332,8.945-16.224,15.905-22.299,5.583-4.778,12.26-8.43,19.508-9.918,7.232-1.43,14.548-2.065,21.86-2.881,14.622-1.38,29.372-2.028,44.034-.699,3.646.427,7.319,1.219,10.613,2.925,10.189,5.21,14.203,16.897,16.996,27.263-2.889-10.277-7.016-21.852-17.127-27.004-13.897-7.076-59.679-1.998-76.287.801-16.584,3.301-28.56,17.101-35.339,31.892-2.709,6.517-6.892,7.343-13.407,7.34h0Z" style="fill:#000001;"/><path d="m60.627,184.01l-2.794,15.674c0,.01-3.605,3.362-3.605,3.362l-2.439,1.679-1.706-.307-.148-1.923-4.568-.813-2.52,1.352-4.243-.755-.014-1.896-5.164-1.02-2.045,1.625-1.579-.282-.016-2.213,3.785-3.41s3.42-19.947,4.182-25.118c.761-5.171,7.404-5.158,10.243.663,3.138-3.835,8.567-4.127,13.322,1.568,2.93-2.911,6.17-3.96,10.324,1.003,5.057,6.041,14.309,17.85,29.945,23.476h.01c-7.739-.065-10.616-2.159-10.714-2.159s-8.321-1.779-8.321-1.779c-5.284,2.239-16.508-4.393-21.936-8.728" style="fill:#d3d5d6; stroke:#000001; stroke-linecap:round; stroke-linejoin:round; stroke-width:1.5px;"/><path d="m99.713,196.615c-8.995-2.412-16.892-7.832-23.476-14.312-2.51-2.369-4.757-5.079-7.165-7.522-5.871-5.612-7.233,5.965-8.296,9.744-.139.641-1.131.42-.974-.225,1.153-4.445,3.226-16.322,9.75-10.032,2.417,2.531,4.551,5.229,7.046,7.672,6.441,6.575,14.187,12.102,23.115,14.675h0Z" style="fill:#000001;"/><path d="m33.426,199.363l3.095-3.215s2.292-23.872,2.435-25.495c.143-1.623.334-3.817,2.769-4.654" style="fill:none; stroke:#000001; stroke-linecap:round; stroke-linejoin:round; stroke-width:.5px;"/><path d="m48.422,170.5c-2.083,2.158-3.307,5.166-4.835,11.134-1.528,5.968-3.048,15.193-3.048,15.193l-1.948,3.556" style="fill:none; stroke:#000001; stroke-linecap:round; stroke-linejoin:round;"/><path d="m45.367,201.681l3.676-3.345s3.519-23.674,3.758-26.013,1.631-4.69,4.325-3.729" style="fill:none; stroke:#000001; stroke-linecap:round; stroke-linejoin:round; stroke-width:.5px;"/><path d="m49.936,202.494s3.245-3.655,3.34-4.028c5.911-23.1,6.962-24.894,8.457-26.302" style="fill:none; stroke:#000001; stroke-linecap:round; stroke-linejoin:round;"/><path d="m44.332,196.372l-1.744-2.574c-.095-.14-.127-.314-.089-.476l.311-1.313c.068-.289.34-.473.629-.426l4.481.721c.324.052.545.371.486.698l-.249,1.363c-.028.156-.118.292-.249.376l-2.8,1.803c-.257.165-.601.09-.778-.172Z" style="fill:none; stroke:#000001; stroke-linecap:round; stroke-linejoin:round;"/><path d="m82.332,193.452c-8.056-2.951-15.799-7.722-20.679-14.888,2.614,3.397,5.91,6.194,9.547,8.378,3.63,2.195,7.555,3.889,11.595,5.083.967.286.496,1.764-.462,1.427h0Z" style="fill:#000001;"/><path d="m90.521,195.173c-9.895-5.265-21.103-10.055-27.6-19.679,6.939,9.339,18.171,13.505,28.328,18.368.901.463.156,1.836-.728,1.312h0Z" style="fill:#000001;"/><path d="m60.843,172.928l-2.684-.398s-1.517-.087-1.804,2.211c-.287,2.298-2.762,22.555-2.762,22.555" style="fill:none; stroke:#000001; stroke-linecap:round; stroke-linejoin:round; stroke-width:.5px;"/><path d="m47.51,171.184l-2.632-.376s-1.365.004-1.586,1.721c-.398,3.093-.83,6.351-2.71,24.034" style="fill:none; stroke:#000001; stroke-linecap:round; stroke-linejoin:round; stroke-width:.5px;"/><path d="m32.886,198.843l3.635-2.695-2.554,3.735c-.701.938-1.991-.303-1.081-1.04h0Z" style="fill:#000001;"/><path d="m44.863,201.127l4.181-2.79-3.171,3.9c-.76.863-1.941-.434-1.01-1.109h0Z" style="fill:#000001;"/><line x1="49.936" y1="202.494" x2="53.595" y2="203.076" style="fill:none; stroke:#000001; stroke-linecap:round; stroke-linejoin:round; stroke-width:.5px;"/><line x1="29.786" y1="198.493" x2="33.426" y2="199.363" style="fill:none; stroke:#000001; stroke-linecap:round; stroke-linejoin:round; stroke-width:.5px;"/><line x1="36.521" y1="196.148" x2="40.517" y2="196.934" style="fill:none; stroke:#000001; stroke-linecap:round; stroke-linejoin:round; stroke-width:.5px;"/><line x1="49.044" y1="198.336" x2="52.962" y2="198.915" style="fill:none; stroke:#000001; stroke-linecap:round; stroke-linejoin:round; stroke-width:.5px;"/><line x1="33.572" y1="195.083" x2="36.574" y2="195.595" style="fill:none; stroke:#000001; stroke-linecap:round; stroke-linejoin:round; stroke-width:.5px;"/><line x1="53.276" y1="198.467" x2="57.126" y2="199.065" style="fill:none; stroke:#000001; stroke-linecap:round; stroke-linejoin:round; stroke-width:.5px;"/><line x1="40.5" y1="196.91" x2="49.042" y2="198.346" style="fill:none; stroke:#000001; stroke-linecap:round; stroke-linejoin:round; stroke-width:.5px;"/><line x1="39.279" y1="200.184" x2="44.118" y2="201.093" style="fill:none; stroke:#000001; stroke-linecap:round; stroke-linejoin:round; stroke-width:.5px;"/></g></svg>