<?xml version="1.0" encoding="UTF-8"?><svg xmlns="http://www.w3.org/2000/svg" width="218" height="190.325" xmlns:xlink="http://www.w3.org/1999/xlink" viewBox="0 0 218 190.325"><defs><clipPath id="uuid-cccadb54-6485-4ed1-a80d-0e770b6609ed"><polygon points="-44.975 189.953 -363.032 189.953 -363.032 -10.463 -43.816 -10.463 -44.975 189.953" style="fill:none;"/></clipPath><linearGradient id="uuid-236210c5-74c0-4583-b26c-c295c33b9be0" x1="120.714" y1="66.453" x2="144.85" y2="66.453" gradientUnits="userSpaceOnUse"><stop offset="0" stop-color="#d3d5d6" stop-opacity="0"/><stop offset="1" stop-color="#d3d5d6"/></linearGradient><linearGradient id="uuid-c6590c47-a8d3-4d2a-9e5c-1d9567fef620" x1="-574.284" y1="66.55" x2="-549.043" y2="66.55" gradientTransform="translate(-364.269) rotate(-180) scale(1 -1)" xlink:href="#uuid-236210c5-74c0-4583-b26c-c295c33b9be0"/><linearGradient id="uuid-104d9b0f-2034-4e35-affc-36ac2a2169fa" x1="122.847" y1="35.019" x2="206.931" y2="35.019" gradientUnits="userSpaceOnUse"><stop offset="0" stop-color="#d3d5d6" stop-opacity="0"/><stop offset=".05" stop-color="#d3d5d6" stop-opacity=".222"/><stop offset=".103" stop-color="#d3d5d6" stop-opacity=".427"/><stop offset=".16" stop-color="#d3d5d6" stop-opacity=".604"/><stop offset=".218" stop-color="#d3d5d6" stop-opacity=".748"/><stop offset=".278" stop-color="#d3d5d6" stop-opacity=".859"/><stop offset=".343" stop-color="#d3d5d6" stop-opacity=".938"/><stop offset=".413" stop-color="#d3d5d6" stop-opacity=".985"/><stop offset=".5" stop-color="#d3d5d6"/><stop offset=".587" stop-color="#d3d5d6" stop-opacity=".985"/><stop offset=".657" stop-color="#d3d5d6" stop-opacity=".938"/><stop offset=".722" stop-color="#d3d5d6" stop-opacity=".859"/><stop offset=".782" stop-color="#d3d5d6" stop-opacity=".748"/><stop offset=".84" stop-color="#d3d5d6" stop-opacity=".604"/><stop offset=".897" stop-color="#d3d5d6" stop-opacity=".427"/><stop offset=".95" stop-color="#d3d5d6" stop-opacity=".222"/><stop offset="1" stop-color="#d3d5d6" stop-opacity="0"/></linearGradient><linearGradient id="uuid-00a481c5-d23e-427a-bcbf-b7df39753496" x1="9.075" y1="37.055" x2="94.616" y2="37.055" xlink:href="#uuid-104d9b0f-2034-4e35-affc-36ac2a2169fa"/><linearGradient id="uuid-e9124258-cb2d-4c72-a9db-b915f6348d9f" x1="6.934" y1="68.733" x2="32.308" y2="68.733" xlink:href="#uuid-236210c5-74c0-4583-b26c-c295c33b9be0"/><linearGradient id="uuid-cd693415-cae3-40bf-b909-f06382e5ec3b" x1="-462.053" y1="68.733" x2="-437.138" y2="68.733" gradientTransform="translate(534.564 137.466) scale(1 -1)" xlink:href="#uuid-236210c5-74c0-4583-b26c-c295c33b9be0"/></defs><g id="uuid-60f6993a-6ecc-453d-a5bf-a517d6287917"><g style="clip-path:url(#uuid-cccadb54-6485-4ed1-a80d-0e770b6609ed);"><path d="m74.687,91.221c-22.156,17.839-53.996,22.43-80.061,10.788-8.665-3.725-16.634-9.008-23.542-15.411,6.973,6.329,14.958,11.55,23.607,15.258,26.075,11.506,57.714,6.965,79.995-10.636h0Z" style="fill:#a7abae;"/><path d="m110.798,14.506c.163,15.108-3.162,30.317-9.864,43.873,6.416-13.702,9.709-28.756,9.864-43.873h0Z" style="fill:#a7abae;"/><path d="m91.38,14.506c0,40.217-30.309,72.82-67.697,72.82-37.388,0-67.697-32.603-67.697-72.82S-13.705-58.314,23.683-58.314,91.38-25.711,91.38,14.506Z" style="fill:none; stroke:#a7abae; stroke-miterlimit:10;"/><path d="m-27.999,128.029c15.108,3.866,38.052,8.048,66.127,1.922,48.106-9.993,85.2-55.592,87.096-110.988" style="fill:none; stroke:#a7abae; stroke-miterlimit:10;"/></g><rect x="1.359" y="2.338" width="104.448" height="186.059" style="fill:#fff; stroke:#000001; stroke-miterlimit:10; stroke-width:2px;"/><rect x="112.102" y="2.338" width="104.448" height="186.059" style="fill:#fff; stroke:#000001; stroke-miterlimit:10; stroke-width:2px;"/></g><g id="uuid-77b8049c-5327-43c7-b649-225f4bdaca53"><polygon points="119.855 79.747 146.056 79.747 146.056 53.296 119.855 53.158 119.855 79.747" style="fill:url(#uuid-236210c5-74c0-4583-b26c-c295c33b9be0); opacity:.5;"/><polygon points="210.913 79.747 183.513 79.941 183.513 53.296 210.913 53.158 210.913 79.747" style="fill:url(#uuid-c6590c47-a8d3-4d2a-9e5c-1d9567fef620); opacity:.5;"/><polygon points="211.132 16.743 166.336 16.743 119.855 16.743 119.855 53.296 157.291 53.296 157.291 44.001 164.78 44.001 172.27 44.001 172.27 53.296 211.132 53.296 211.132 16.743" style="fill:url(#uuid-104d9b0f-2034-4e35-affc-36ac2a2169fa);"/><polygon points="98.891 18.509 52.694 18.509 6.031 18.509 6.031 55.6 45.507 55.6 45.507 46.351 52.504 46.351 59.502 46.351 59.502 55.6 98.891 55.6 98.891 18.509" style="fill:url(#uuid-00a481c5-d23e-427a-bcbf-b7df39753496);"/><rect x="6.031" y="55.952" width="27.545" height="25.562" style="fill:url(#uuid-e9124258-cb2d-4c72-a9db-b915f6348d9f); opacity:.5;"/><rect x="71.624" y="55.952" width="27.047" height="25.562" transform="translate(170.295 137.466) rotate(-180)" style="fill:url(#uuid-cd693415-cae3-40bf-b909-f06382e5ec3b); opacity:.5;"/><path d="m6.031,55.6c11.36-1.251,27.907-.643,39.476-.866,0,0-.866.866-.866.866l-.044-9.249s-.004-.906-.004-.906c3.933-.032,10.972-.038,14.909-.003,0,0,.913.004.913.004.014.04-.056,9.717-.048,10.154,0,0-.865-.865-.865-.865,11.584.214,27.987-.374,39.389.865-11.336,1.25-27.845.64-39.389.865,0,0-.861.004-.861.004l-.004-.869-.044-9.249.909.909c-3.488.033-10.507.031-13.995.001,0,0,.91-.91.91-.91-.007.198-.044,10.334-.048,10.119-11.957-.247-28.553.412-40.338-.87h0Z" style="fill:#a7abae;"/><rect x="49.013" y="54.818" width="9.249" height="12.267" transform="translate(-9.249 112.306) rotate(-87.888)" style="fill:#f2a900; stroke:#12171d; stroke-miterlimit:10; stroke-width:1.5px;"/><rect x="28.992" y="71.972" width="47.225" height="34.394" transform="translate(-38.444 138.451) rotate(-87.888)" style="fill:#f2a900; stroke:#12171d; stroke-miterlimit:10; stroke-width:1.5px;"/><path d="m6.031,81.514c7.941-1.036,19.454-.734,27.545-.883,0,0-.883.883-.883.883-.057-8.638-.033-17.276.133-25.914,0,0,1.5,0,1.5,0,.084,4.319.14,8.638.146,12.957-.007,4.615.049,9.232-.026,13.847,0,0-.871-.008-.871-.008-8.127-.171-19.559.175-27.545-.883h0Z" style="fill:#a7abae;"/><path d="m98.891,81.514c-8.928.873-18.285.749-27.267.854,0,0-.849.007-.849.007,0,0-.005-.861-.005-.861-.066-3.75-.035-9.153-.033-12.957-.006-4.319.056-8.638.137-12.957h1.5c.134,6.232.147,13.165.146,19.435.015,2.159-.03,4.319-.042,6.478l-.854-.854c8.987.103,18.332-.017,27.267.854h0Z" style="fill:#a7abae;"/><path d="m6.031,18.509c6.658-1.007,16.414-.722,23.215-.841,0,0,23.215-.102,23.215-.102,13.649.327,32.999-.53,46.43.942-13.355,1.47-32.829.618-46.43.944,0,0-23.215-.102-23.215-.102-6.815-.121-16.516.167-23.215-.841h0Z" style="fill:#a7abae;"/><path d="m119.855,53.296c10.75-1.225,26.477-.65,37.436-.859,0,0-.859.859-.859.859l-.045-9.295-.004-.898c5.599-.044,11.202-.056,16.801-.004-.027.149-.028,9.758-.05,10.197,0,0-.864-.864-.864-.864,11.353.216,27.479-.375,38.643.864-11.098,1.247-27.33.64-38.643.865,0,0-.86.004-.86.004l-.004-.868-.045-9.295.909.909c-4.993.042-9.985.031-14.978-.005l.904-.904-.045,9.295s-.004.863-.004.863c-11.342-.231-27.122.391-38.291-.863h0Z" style="fill:#a7abae;"/><path d="m146.806,53.296c.163,8.817.188,17.634.123,26.451,0,0-.012.881-.012.881l-.861-.008c-7.731-.139-18.604.1-26.201-.873,7.555-.952,18.505-.757,26.201-.873,0,0-.873.873-.873.873-.062-4.409-.012-8.817-.019-13.225.002-4.409.061-8.817.143-13.225,0,0,1.5,0,1.5,0h0Z" style="fill:#a7abae;"/><path d="m184.263,53.296c.166,8.881.133,17.763.041,26.645,0,0-.797-.791-.797-.791,9.139.02,18.273.145,27.405.598-9.124.582-18.257.836-27.394.985,0,0-.791.008-.791.008-.034-4.707-.104-9.415-.077-14.122-.004-4.441.027-8.882.112-13.322h1.5Z" style="fill:#a7abae;"/><path d="m119.855,16.743c6.529-1.007,16.095-.721,22.764-.841,0,0,22.764-.102,22.764-.102,13.287.324,32.515-.524,45.529.942-13.015,1.467-32.241.62-45.529.944,0,0-22.764-.102-22.764-.102-6.683-.121-16.196.167-22.764-.841h0Z" style="fill:#a7abae;"/><line x1="134.589" y1="111.036" x2="134.589" y2="143.747" style="fill:none; stroke:#000001; stroke-miterlimit:10;"/><path d="m145.759,101.831l4.906,8.808c.567,1.018,2.164,1.094,2.847.135.838-1.176,6.236-8.942,6.236-8.942" style="fill:none; stroke:#000001; stroke-miterlimit:10;"/><path d="m165.296,143.747h32.065c1.89,0,3.422-1.367,3.422-3.052v-26.606c0-1.686-1.532-3.052-3.422-3.052h-3.982c-1.68,0-3.112-1.088-3.378-2.568l-.733-4.069c-.267-1.48-1.698-2.568-3.378-2.568h-20.592s-20.592,0-20.592,0c-1.68,0-3.112,1.088-3.378,2.568l-.733,4.069c-.267,1.48-1.698,2.568-3.378,2.568h-3.982c-1.89,0-3.422,1.367-3.422,3.052v26.606c0,1.686,1.532,3.052,3.422,3.052h32.065Z" style="fill:none; stroke:#000001; stroke-miterlimit:10; stroke-width:1.5px;"/><line x1="196.002" y1="111.036" x2="196.002" y2="143.747" style="fill:none; stroke:#000001; stroke-miterlimit:10;"/><path d="m184.832,101.831l-4.906,8.808c-.567,1.018-2.164,1.094-2.847.135-.838-1.176-6.236-8.942-6.236-8.942" style="fill:none; stroke:#000001; stroke-miterlimit:10;"/><rect x="158.663" y="45.357" width="12.267" height="9.249" style="fill:#f2a900; stroke:#12171d; stroke-miterlimit:10; stroke-width:1.5px;"/><rect x="147.606" y="54.606" width="34.394" height="47.225" style="fill:#f2a900; stroke:#12171d; stroke-miterlimit:10; stroke-width:1.5px;"/><circle cx="149.694" cy="131.941" r="4.859" style="fill:none; stroke:#000001; stroke-miterlimit:10;"/><circle cx="149.694" cy="131.941" r="8.684" style="fill:none; stroke:#000001; stroke-miterlimit:10; stroke-width:.5px;"/><circle cx="180.897" cy="131.941" r="4.859" style="fill:none; stroke:#000001; stroke-miterlimit:10;"/><circle cx="180.897" cy="131.941" r="8.617" style="fill:none; stroke:#000001; stroke-miterlimit:10; stroke-width:.5px;"/><path d="m130.339,121.949c-3.713,4.021-7.935,7.522-12.113,11.052,1.745-2.117,3.529-4.193,5.364-6.219,1.821-2.038,3.644-4.076,5.688-5.894,0,0,1.061,1.061,1.061,1.061h0Z" style="fill:#000001;"/><path d="m201.313,120.888c3.217,2.895,5.9,6.322,8.624,9.684-3.362-2.723-6.79-5.406-9.684-8.623,0,0,1.061-1.061,1.061-1.061h0Z" style="fill:#000001;"/><line x1="21.429" y1="121.673" x2="20.148" y2="154.362" style="fill:none; stroke:#000001; stroke-miterlimit:10;"/><path d="m32.028,112.039l4.578,8.983c.529,1.038,2.122,1.173,2.84.239.881-1.145,6.561-8.706,6.561-8.706" style="fill:none; stroke:#000001; stroke-miterlimit:10;"/><path d="m50.006,154.647l32.043,1.182c1.889.07,3.47-1.239,3.532-2.924l.981-26.588c.062-1.685-1.418-3.107-3.307-3.176l-3.979-.147c-1.679-.062-3.07-1.202-3.282-2.691l-.583-4.094c-.212-1.489-1.602-2.629-3.282-2.691l-20.578-.759-20.578-.759c-1.679-.062-3.15.973-3.471,2.442l-.883,4.04c-.321,1.469-1.792,2.504-3.471,2.442l-3.979-.147c-1.889-.07-3.47,1.239-3.532,2.924l-.981,26.588c-.062,1.685,1.418,3.107,3.307,3.176l32.043,1.182Z" style="fill:none; stroke:#000001; stroke-miterlimit:10; stroke-width:1.5px;"/><line x1="81.07" y1="122.993" x2="79.789" y2="155.682" style="fill:none; stroke:#000001; stroke-miterlimit:10;"/><path d="m71.074,113.479l-5.227,8.621c-.604.997-2.203,1.014-2.85.03-.794-1.206-5.902-9.166-5.902-9.166" style="fill:none; stroke:#000001; stroke-miterlimit:10;"/><circle cx="34.85" cy="142.274" r="4.859" style="fill:none; stroke:#000001; stroke-miterlimit:10;"/><circle cx="34.85" cy="142.274" r="8.213" style="fill:none; stroke:#000001; stroke-miterlimit:10; stroke-width:.5px;"/><circle cx="66.033" cy="143.424" r="4.859" style="fill:none; stroke:#000001; stroke-miterlimit:10;"/><circle cx="66.033" cy="143.424" r="8.603" style="fill:none; stroke:#000001; stroke-miterlimit:10; stroke-width:.5px;"/><path d="m15.905,131.576c-3.224,3.306-6.961,6.059-10.635,8.855,1.508-1.76,3.055-3.479,4.651-5.145,1.583-1.68,3.16-3.366,4.963-4.809l1.021,1.099h0Z" style="fill:#000001;"/><path d="m43.819,154.49l-.116,1.092c-.055,2.214-1.726,4.225-3.943,4.544-1.134.128-2.301-.022-3.41-.015-.923-.006-1.834.326-2.552.912,0,0-3.278,2.889-3.278,2.889-4.378,3.887-8.814,7.713-13.278,11.508,5.098-5.188,10.39-10.404,15.615-15.476,1.204-1.173,2.964-1.489,4.591-1.388,1.386-.008,2.58.154,3.599-.775,1.031-.829,1.088-2.284,1.285-3.489,0,0,1.487.198,1.487.198h0Z" style="fill:#000001;"/><path d="m47.862,154.615l-.13,1.09c-.054,2.095-1.621,4.009-3.725,4.309-1.54.184-2.87-.186-4.337.112-.633.154-1.235.451-1.74.873l-3.265,2.914c-4.368,3.898-8.714,7.82-13.132,11.665,5.167-5.111,10.539-10.237,15.774-15.294,1.714-1.746,4.392-1.184,6.528-1.348,1.649-.227,2.798-1.754,2.876-3.367,0,0,.159-1.086.159-1.086l.991.132h0Z" style="fill:#000001;"/><path d="m159.735,143.845l-.177,1.577c-.177,1.92-1.71,3.606-3.6,4.002-.985.223-2.352.038-3.355.049-2.087-.24-3.457,1.436-4.879,2.693-1.51,1.361-5.514,4.973-7.071,6.377-6.293,5.66-12.614,11.291-18.966,16.888,8.637-8.465,17.512-16.991,26.266-25.35,1.112-1.274,2.924-2.322,4.671-2.17.837-.025,2.172.075,2.977-.084,1.247-.257,2.221-1.353,2.406-2.611,0,0,.241-1.569.241-1.569l1.487.198h0Z" style="fill:#000001;"/><path d="m163.423,143.813l-.188,1.576c-.174,1.809-1.628,3.39-3.405,3.75-.954.206-2.312.048-3.287.064-2.144-.225-3.592,1.488-5.041,2.794-1.505,1.366-5.496,4.993-7.048,6.402-6.262,5.693-12.524,11.388-18.832,17.032,8.321-8.022,16.892-16.109,25.277-24.083.745-.671,1.569-1.564,2.376-2.198,1.358-1.104,3.246-.996,4.868-.955,1.948.243,3.795-.974,4.058-2.945,0,0,.23-1.57.23-1.57l.991.132h0Z" style="fill:#000001;"/><path d="m57.471,154.85l.093,1.094c-.034,1.495.905,2.998,2.42,3.319.786.156,2.231.19,3.157.284,1.27.116,2.494.709,3.362,1.637,4.839,5.444,9.729,11.032,14.433,16.584-5.18-5.087-10.377-10.372-15.45-15.577-1.573-1.595-3.881-.937-5.879-1.334-2.187-.481-3.707-2.61-3.598-4.822,0,0-.036-1.097-.036-1.097l1.498-.088h0Z" style="fill:#000001;"/><path d="m53.79,154.738s.079,1.095.079,1.095c-.041,1.614.992,3.222,2.62,3.569,2.117.321,4.831-.042,6.411,1.826,4.849,5.43,9.827,10.934,14.605,16.414-4.123-4.16-8.168-8.392-12.237-12.601l-3.041-3.146c-.708-.683-1.649-1.114-2.627-1.185-1.145-.095-2.15-.038-3.361-.244-2.075-.454-3.499-2.479-3.397-4.572,0,0-.049-1.097-.049-1.097l.998-.058h0Z" style="fill:#000001;"/><path d="m174.406,143.703s.116,1.466.116,1.466c.068,1.208.767,2.297,1.872,2.773,1.293.487,2.776.265,4.163.526,1.648.229,2.916,1.501,3.926,2.727,3.574,3.953,10.129,11.302,13.733,15.345,0,0,7.781,8.83,7.781,8.83-5.963-6.066-14.635-14.994-20.488-21.115,0,0-2.037-2.122-2.037-2.122l-1.012-1.05c-.965-.972-2.193-1.189-3.551-1.187,0,0-1.469-.069-1.469-.069-1.763-.034-3.479-1.221-4.136-2.869-.423-.943-.335-2.184-.397-3.168,0,0,1.498-.088,1.498-.088h0Z" style="fill:#000001;"/><path d="m171.14,143.717l.106,1.467c.06,1.299.82,2.501,2.015,3.023,1.299.521,2.849.268,4.234.521,1.594.205,2.819,1.453,3.799,2.627,0,0,1.975,2.18,1.975,2.18,5.68,6.258,14.06,15.511,19.712,21.835-5.907-6.118-14.489-15.131-20.324-21.267,0,0-2.028-2.13-2.028-2.13-.556-.569-1.333-1.504-2.073-1.827-1.187-.655-2.779-.476-4.114-.607-2.252-.03-4.255-2.033-4.235-4.293,0,0-.066-1.469-.066-1.469,0,0,.998-.059.998-.059h0Z" style="fill:#000001;"/><path d="m86.869,132.381c5.284,5.369,10.032,11.229,14.812,17.049-5.452-5.196-10.946-10.362-15.911-16.028,0,0,1.099-1.021,1.099-1.021h0Z" style="fill:#000001;"/></g><g id="uuid-a29fdf11-c378-4a43-981b-2e4441b37912"><line x1="45.735" y1="26.529" x2="59.405" y2="40.199" style="fill:none; stroke:#000001; stroke-miterlimit:10; stroke-width:6px;"/><line x1="45.735" y1="40.199" x2="59.405" y2="26.529" style="fill:none; stroke:#000001; stroke-miterlimit:10; stroke-width:6px;"/><polyline points="158.277 29.244 164.309 35.277 176.373 23.212" style="fill:none; stroke:#000001; stroke-miterlimit:10; stroke-width:6px;"/></g></svg>