<svg xmlns="http://www.w3.org/2000/svg" xmlns:xlink="http://www.w3.org/1999/xlink" width="654" height="273.4168" viewBox="0 0 654 273.4168"><defs><clipPath id="e722f24f-39be-495e-88ce-a079303a8f2a"><rect x="-60.283" y="374.8064" width="762.7899" height="321.9113" style="fill:none"/></clipPath><clipPath id="bf5ee2ce-10a7-4d47-b2e8-202fe527bdd0"><rect x="-73.283" y="-9.2547" width="762.7899" height="321.9113" style="fill:none"/></clipPath></defs><g id="e5db26a7-b741-42bb-ba94-1afbe6069e36" data-name="below"><g style="clip-path:url(#e722f24f-39be-495e-88ce-a079303a8f2a)"><path d="M1393.8794,208.89l2.8647,57.6091c4.0646,81.74,14.0271,125.5652,15.4837,222.0983,1.2169,80.64-4.0561,240.8682-2.3648,384.0659,2.7985,236.9257-13.811,647.1781-48.6907,823.2379s-46.0554,190.1959-157.7894,244.1584c-292.3257,141.18-420.2182,174.2872-978.58,174.2872s-686.254-33.1072-978.58-174.2872c-111.7341-53.9625-122.91-68.0986-157.7894-244.1584s-51.4892-586.3122-48.6908-823.2379c1.6914-143.1977-3.5816-303.4255-2.3648-384.0659,1.45-96.1169,11.3334-139.9793,15.4308-221.0432l2.7985-55.3634" style="fill:none;stroke:#a7abae;stroke-linecap:round;stroke-linejoin:round;stroke-width:1.5px"/><g id="a1ef6aa1-a187-4747-8bcb-00f50aa61b2f" data-name="Offset Group"><path d="M-798.6931,207.8531l26.6671,557.691a41.2569,41.2569,0,0,0,12.0912,27.2949,41.2573,41.2573,0,0,0,27.315,12.046l37.7,1.74,33.1088,1.5281a151.0864,151.0864,0,0,1,4.2891-58.7785,151.2392,151.2392,0,0,1,26.86-53.1942,151.61,151.61,0,0,1,49.969-41.31,150.5907,150.5907,0,0,1,62.2454-16.5317c130.0826-5.726,364.6206-12.5589,743.2453-12.5589" style="fill:none;stroke:#a7abae;stroke-linecap:round;stroke-linejoin:round;stroke-width:0.5px"/><path d="M-798.9428,207.865l26.6671,557.691a41.5073,41.5073,0,0,0,12.1643,27.46,41.5071,41.5071,0,0,0,27.48,12.1187l37.7,1.74,33.4053,1.5418a150.8369,150.8369,0,0,1,4.2452-58.9754,150.989,150.989,0,0,1,26.8155-53.1064,151.3583,151.3583,0,0,1,49.8866-41.2417,150.3378,150.3378,0,0,1,62.1421-16.5043C-388.3582,632.8629-153.824,626.03,224.7978,626.03" style="fill:none;stroke:#a7abae;stroke-linecap:round;stroke-linejoin:round;stroke-width:0.5px"/></g><path d="M-799.1926,207.877l26.6672,557.691a41.86,41.86,0,0,0,39.8826,39.8164l37.7,1.74L-661.24,808.68A150.6073,150.6073,0,0,1-630.2685,696.489a150.5189,150.5189,0,0,1,111.843-57.6506c130.0739-5.7256,364.6044-12.5584,743.2233-12.5584" style="fill:none;stroke:#a7abae;stroke-linecap:round;stroke-linejoin:round;stroke-width:0.5px"/><g id="a538afe4-0753-4a3c-9c44-86e52085b709" data-name="Offset Group"><path d="M1160.1261,199.6565V288.179a20.125,20.125,0,0,1-12.5049,18.6264C873.5393,418.93,650.84,417.9823,335.1057,416.6455c-35.521-.15-72.22-.3057-110.3024-.3057s-74.7814.1553-110.3024.3057c-315.7347,1.3368-538.4336,2.2843-812.5155-109.84a20.103,20.103,0,0,1-9.0887-7.4091,20.1042,20.1042,0,0,1-3.4162-11.2173V206.7239" style="fill:none;stroke:#a7abae;stroke-linecap:round;stroke-linejoin:round;stroke-width:0.5px"/><path d="M1159.8761,199.6565V288.179a19.875,19.875,0,0,1-12.35,18.395c-274.03,112.1033-496.6819,111.1583-812.42,109.8215-35.5209-.15-72.22-.3057-110.3034-.3057s-74.7826.1553-110.3035.3057c-315.7379,1.3368-538.39,2.2818-812.42-109.8215a19.8547,19.8547,0,0,1-8.9758-7.317,19.8548,19.8548,0,0,1-3.3737-11.078V206.7239" style="fill:none;stroke:#a7abae;stroke-linecap:round;stroke-linejoin:round;stroke-width:0.5px"/></g><path d="M1159.6261,199.6565V288.179a19.6246,19.6246,0,0,1-12.1942,18.1636C842.631,431.0339,601.4133,415.84,224.8033,415.84s-617.8277,15.1941-922.6286-109.4972a19.6246,19.6246,0,0,1-12.1942-18.1636V206.7239" style="fill:none;stroke:#a7abae;stroke-linecap:round;stroke-linejoin:round;stroke-width:0.5px"/><g id="ad3ce8ea-b977-4efc-909f-7feeafc3b0c9" data-name="Offset Group"><path d="M224.8088,625.78c378.6247,0,613.1626,6.8329,743.2454,12.5589a151.3882,151.3882,0,0,1,143.3631,169.8142l33.1089-1.5281,37.7-1.74a41.3606,41.3606,0,0,0,39.4062-39.3409l26.7261-558.9254" style="fill:none;stroke:#a7abae;stroke-linecap:round;stroke-linejoin:round;stroke-width:0.5px"/><path d="M224.8088,626.03c378.6218,0,613.156,6.8329,743.2343,12.5587a151.1381,151.1381,0,0,1,143.0894,169.8278l33.4052-1.5418,37.7-1.74a41.61,41.61,0,0,0,39.6444-39.5787l26.7261-558.9253" style="fill:none;stroke:#a7abae;stroke-linecap:round;stroke-linejoin:round;stroke-width:0.5px"/></g><path d="M224.8088,626.28c378.6189,0,613.1493,6.8328,743.2233,12.5584A150.98,150.98,0,0,1,1110.847,808.68l33.7022-1.5555,37.7-1.74a41.86,41.86,0,0,0,39.8826-39.8164l26.7261-558.9254" style="fill:none;stroke:#a7abae;stroke-linecap:round;stroke-linejoin:round;stroke-width:0.5px"/></g><rect x="41.658" y="171.5433" width="89.2467" height="32.1409" rx="3.8578" style="fill:none;stroke:#000001;stroke-miterlimit:10"/><circle cx="346.1113" cy="113.8273" r="8.608" style="fill:none;stroke:#000001;stroke-miterlimit:10;stroke-width:0.5px"/><circle cx="394.2501" cy="113.8273" r="8.608" style="fill:none;stroke:#000001;stroke-miterlimit:10;stroke-width:0.5px"/><circle cx="442.3889" cy="113.8273" r="8.608" style="fill:none;stroke:#000001;stroke-miterlimit:10;stroke-width:0.5px"/><circle cx="394.2501" cy="165.7024" r="8.608" style="fill:none;stroke:#000001;stroke-miterlimit:10;stroke-width:0.5px"/><circle cx="442.3889" cy="165.7024" r="8.608" style="fill:none;stroke:#000001;stroke-miterlimit:10;stroke-width:0.5px"/><path d="M432.8947,177.9673a15.5057,15.5057,0,0,0,24.8193-9.8894" style="fill:none;stroke:#000001;stroke-linecap:round;stroke-linejoin:round;stroke-width:0.5px"/><path d="M370.3672,202.5047a18.7374,18.7374,0,0,1,1.8831,1.7478,5.0847,5.0847,0,0,1,1.3194,3.4619v5.6946a1.21,1.21,0,0,0,1.6125,1.1389l15.0878-5.4352a5.3273,5.3273,0,0,1,1.77-.3158h60.6105a5.3838,5.3838,0,0,1,1.59.2481l39.2531,12.5732,5.0293-12.8664,5.74-14.7044,3.631-9.2917-23.421-7.916V93.2478a8.9561,8.9561,0,0,0-8.9535-8.9647H323.9874a8.956,8.956,0,0,0-8.9534,8.9647v38.351a5.2933,5.2933,0,0,1-1.2179,3.3491l-5.0067,5.9539a5.1857,5.1857,0,0,0-1.2178,3.3491v51.4767a9.4421,9.4421,0,0,0,9.4383,9.4383h2.4695a5.0541,5.0541,0,0,0,4.6459-3.304c1.9395-4.86,8.13-4.2963,8.13-4.2963H346.371" style="fill:none;stroke:#000001;stroke-miterlimit:10"/><path d="M477.7112,174.7049v-81.46a2.1957,2.1957,0,0,0-2.1936-2.1925H323.989a2.1957,2.1957,0,0,0-2.1936,2.1925v38.3507a11.9991,11.9991,0,0,1-2.8015,7.6975l-4.6339,5.5193v50.9111a2.676,2.676,0,0,0,2.6727,2.6726h5.827" style="fill:none;stroke:#000001;stroke-miterlimit:10;stroke-width:0.5px"/><line x1="484.4729" y1="176.8397" x2="457.714" y2="168.0779" style="fill:none;stroke:#000001;stroke-linecap:round;stroke-linejoin:round;stroke-width:0.5px"/><path d="M432.8947,177.9673l-4.7508,13.62a3.9125,3.9125,0,0,0,2.3217,4.9524l22.1853,8.311v3.9467" style="fill:none;stroke:#000001;stroke-linecap:round;stroke-linejoin:round;stroke-width:0.5px"/><path d="M390.2748,209.1094V204.371s12.88-7.12,15.8861-8.86,3.8906-11.7078-7.943-11.7078H336.8634c-4.43,0-14.5379,4.7887-14.5379,20.4307" style="fill:none;stroke:#000001;stroke-linecap:round;stroke-linejoin:round;stroke-width:0.5px"/><path d="M524.9213,118.428h46.03a4.697,4.697,0,0,1,4.7022,4.691v96.0071a4.7043,4.7043,0,0,1-4.7022,4.691H33.0117a4.6946,4.6946,0,0,1-4.691-4.691V123.119a4.6874,4.6874,0,0,1,4.691-4.691H92.1" style="fill:none;stroke:#000001;stroke-miterlimit:10;stroke-width:0.5px"/><line x1="492.7723" y1="118.428" x2="484.4729" y2="118.428" style="fill:none;stroke:#000001;stroke-miterlimit:10;stroke-width:0.5px"/><line x1="77.7615" y1="171.5433" x2="77.7615" y2="203.6841" style="fill:none;stroke:#000001;stroke-miterlimit:10;stroke-width:0.5px"/><rect x="464.2242" y="117.4109" width="89.2467" height="32.1409" rx="3.8578" transform="translate(375.3663 642.3289) rotate(-90)" style="fill:none;stroke:#000001;stroke-miterlimit:10"/><line x1="492.7771" y1="142.0012" x2="524.918" y2="142.0012" style="fill:none;stroke:#000001;stroke-miterlimit:10;stroke-width:0.5px"/><polyline points="315.034 98.548 304.524 98.548 304.524 83.234 304.524 73.695 304.524 73.277 304.524 67.91 306.96 60.873 307.592 59.069 324.427 53.104 342.808 53.104 342.808 84.283" style="fill:none;stroke:#000001;stroke-miterlimit:10"/><polyline points="484.473 98.548 492.287 98.548 492.287 67.91 491.363 65.26 489.446 59.712 489.22 59.069 472.385 53.104 466.183 53.104 464.92 53.104 442.389 53.104 442.389 84.283" style="fill:none;stroke:#000001;stroke-miterlimit:10"/><path d="M353.5287,84.2869c.17,0,0-31.1774,0-31.1774h22.46V84.2869" style="fill:none;stroke:#000001;stroke-miterlimit:10"/><path d="M379.2219,84.2869c.2913,0,0-31.1774,0-31.1774h38.4547V84.2869" style="fill:none;stroke:#000001;stroke-miterlimit:10"/><line x1="379.2417" y1="56.0019" x2="375.9941" y2="56.0019" style="fill:none;stroke:#000001;stroke-miterlimit:10"/><line x1="442.3894" y1="56.0019" x2="417.6716" y2="56.0019" style="fill:none;stroke:#000001;stroke-miterlimit:10"/><line x1="353.5428" y1="56.0019" x2="342.8077" y2="56.0019" style="fill:none;stroke:#000001;stroke-miterlimit:10"/><rect x="130.9047" y="187.1404" width="6.3673" height="14.2031" style="fill:none;stroke:#000001;stroke-miterlimit:10"/><rect x="137.272" y="185.7877" width="20.5104" height="16.9085" rx="1.8109" style="fill:none;stroke:#000001;stroke-miterlimit:10"/><path d="M370.3672,202.5047c-5.83,3.1573-32.4535,17.6024-38.43,20.9854-.6541.3833-2.7515,2.0409-4.6008,3.4956-13.2159,10.442-44.1809,34.9-86.1515,34.9H28.3207v-15.787H241.185c36.49,0,64.4332-22.0678,76.3636-31.4948a57.8922,57.8922,0,0,1,6.608-4.8489c3.4393-1.9508,13.2046-7.2845,22.2144-12.19h7.7357C362.35,197.5655,367.4691,200.193,370.3672,202.5047Z" style="fill:#fff;stroke:#000001;stroke-miterlimit:10"/><path d="M9.2271,228.0513H-3.1769V144.7246c0-17.6,8.8217-25.5965,17.0764-27.212,16.0182-3.1319,29.1138,14.0206,35.4777,29.6577l-11.49,4.6758c-6.529-16.0479-15.8045-23.2972-21.6057-22.16-4.2848.8381-7.0543,6.7406-7.0543,15.0382Z" style="fill:#fff;stroke:#000001;stroke-miterlimit:10"/><path d="M590.8527,235.8287h-12.404v-110.15c0-13.2023-5.0479-23.6737-12.2763-25.4654-7.4607-1.8611-20.3591,5.4708-34.1518,31.58L521.0526,126c20.2171-38.2736,38.8143-40.13,48.1041-37.8254,13.18,3.2662,21.696,17.9882,21.696,37.5049Z" style="fill:#fff;stroke:#000001;stroke-miterlimit:10"/><path d="M306.96,60.8733,304.5244,67.91v5.3676H202.9016c-13.2384,0-26.0033,1.5563-45.3761,18.5046H139.5171C167.55,63.264,186.19,60.8733,202.9016,60.8733Z" style="fill:#fff;stroke:#000001;stroke-miterlimit:10"/><path d="M471.0935,52.8558l18.3523,6.8561,1.917,5.548h88.6661c33.9081,0,37.573,29.8373,37.573,42.67V208.1551l12.404-.0829V107.93c0-19.0684-5.5255-33.6375-16.4072-43.3013-10.9606-9.7315-24.3006-11.7726-34.2828-11.5245H489.06Z" style="fill:#fff;stroke:#000001;stroke-miterlimit:10"/><path d="M304.5244,73.6946v9.54c-4.3978-1.5561-16.5988-5.6607-30.8748-9.9571-17.7151-5.3337-38.6216-10.9606-51.736-12.404a51.1162,51.1162,0,0,0-5.6382-.3608H118.2837c-36.7385,0-41.6888,23.3535-41.6888,46.1993,0,41.4407,12.0206,56.8556,44.3613,56.8556h41.576c23.6352,0,23.6352,18.5947,23.6352,40.1213h-9.0211c0-23.624-.6652-31.1-14.6141-31.1h-41.576c-19.5533,0-32.6677-5.1083-41.2941-16.08-8.2544-10.4984-12.0883-26.3191-12.0883-49.7965,0-21.0079,5.469-36.1972,16.2493-45.1506,8.2768-6.8674,19.2262-10.07,34.4606-10.07h97.9917c10.51,0,29.172,4.3639,47.0564,9.3819,16.2041,4.5331,31.7542,9.5962,39.986,12.404C303.7463,73.424,304.1522,73.5592,304.5244,73.6946Z" style="fill:#fff;stroke:#000001;stroke-miterlimit:10"/><path d="M499.7855,168.2126a12.0762,12.0762,0,0,0,21.1614-10.694h0l15.8839-29.9315a2.5141,2.5141,0,0,0-1.0415-3.3988l-9.76-5.1834a2.514,2.514,0,0,0-3.4007,1.0434L507.2,149.1711a11.7266,11.7266,0,0,0-5.154,2.2514A11.9782,11.9782,0,0,0,499.7855,168.2126Z" style="fill:#fff;stroke:#000001;stroke-linecap:round;stroke-linejoin:round"/><circle cx="509.3032" cy="160.9483" r="8.9878" style="fill:none;stroke:#000001;stroke-miterlimit:10;stroke-width:0.5px"/><circle cx="509.365" cy="161.2043" r="3.5651" style="fill:none;stroke:#000001;stroke-miterlimit:10;stroke-width:0.5px"/><polygon points="511.382 154.365 504.451 156.038 502.434 162.877 507.348 168.043 514.279 166.371 516.296 159.532 511.382 154.365" style="fill:none;stroke:#000001;stroke-miterlimit:10;stroke-width:0.5px"/><path d="M617.7485,190.2585a7.8783,7.8783,0,0,1-5.5255,7.51c-9.6526,3.0221-27.6835,8.4573-49.9431,14.0954-11.5357,2.9319-20.9064,4.0934-29.0141,4.0934-13.78,0-23.9059-3.3716-34.7426-7.2055l5.74-14.7045c15.6854,5.5254,27.8188,9.19,54.138,2.5147,21.955-5.57,39.6928-10.9044,49.0973-13.8475a7.9078,7.9078,0,0,1,10.25,7.5439Z" style="fill:#fff;stroke:#000001;stroke-miterlimit:10"/><path d="M191.3208,209.9358c-25.9695,7.1718-50.18,16.4184-73.6235,25.3719-37.2234,14.2082-69.3723,26.4769-98.2061,26.4769H-62.8827V245.9977H19.4912c25.9245,0,56.8105-11.7951,92.5679-25.44,23.748-9.0549,48.24-18.4144,74.8526-25.7892Z" style="fill:#fff"/><path d="M489.4163,53.11h-23.59l.3565-.0055H464.92c-9.9908-2.9433-18.6511-5.39-25.8116-5.39H355.4823a6.0011,6.0011,0,0,0-5.9877,5.999v30.57h-6.7658v-30.57A12.7723,12.7723,0,0,1,355.4823,40.948H439.108c8.5588,0,18.2677,2.8642,29.499,6.1907C475.26,49.09,482.2966,51.1869,489.4163,53.11Z" style="fill:#fff;stroke:#000001;stroke-miterlimit:10"/><polygon points="19.491 262.285 -62.883 261.785 19.491 261.285 19.491 262.285 19.491 262.285" style="fill:#000001"/><polygon points="-62.883 245.998 19.491 245.498 19.491 246.498 -62.883 245.998 -62.883 245.998" style="fill:#000001"/><path d="M58.0711,199.1052a12.0761,12.0761,0,0,0,5.2055-23.1315h0L50.28,144.68a2.514,2.514,0,0,0-3.2852-1.3578l-10.2071,4.2352a2.5139,2.5139,0,0,0-1.3576,3.2879l12.6618,30.4281a11.7263,11.7263,0,0,0-1.5405,5.4093A11.9783,11.9783,0,0,0,58.0711,199.1052Z" style="fill:#fff;stroke:#000001;stroke-linecap:round;stroke-linejoin:round"/><circle cx="58.5182" cy="187.1405" r="8.9878" style="fill:none;stroke:#000001;stroke-miterlimit:10;stroke-width:0.5px"/><circle cx="58.755" cy="187.2556" r="3.5651" style="fill:none;stroke:#000001;stroke-miterlimit:10;stroke-width:0.5px"/><polygon points="54.76 181.35 51.643 187.762 55.638 193.668 62.75 193.162 65.867 186.749 61.872 180.843 54.76 181.35" style="fill:none;stroke:#000001;stroke-miterlimit:10;stroke-width:0.5px"/><g style="clip-path:url(#bf5ee2ce-10a7-4d47-b2e8-202fe527bdd0)"><path d="M1380.8794-175.1716l2.8647,57.6091c4.0646,81.74,14.0271,125.5652,15.4837,222.0983,1.2169,80.64-4.0561,240.8682-2.3648,384.0659,2.7985,236.9256-13.811,647.1781-48.6907,823.2379s-46.0554,190.1959-157.7894,244.1583c-292.3257,141.18-420.2182,174.2872-978.58,174.2872s-686.254-33.1071-978.58-174.2872c-111.7341-53.9624-122.91-68.0985-157.7894-244.1583s-51.4892-586.3123-48.6908-823.2379c1.6914-143.1977-3.5816-303.4255-2.3648-384.0659,1.45-96.117,11.3334-139.9793,15.4308-221.0432l2.7985-55.3635" style="fill:none;stroke:#a7abae;stroke-linecap:round;stroke-linejoin:round;stroke-width:1.5px"/><g id="a9d2061a-0b25-46ea-b4a6-a379cb9f1407" data-name="Offset Group"><path d="M1143.9835,7.0875,1134.574,9.876A1779.0834,1779.0834,0,0,1,929.6713,57.88l-6.1467,1.0471.9305,22.2913-18.9274,30.6769-11.3195,10.0618H830.756L807.4743,94.0381V74.7187L705.4921,83.1042c-117.7058,7.1482-241.0984,6.77-383.3859,6.3332-35.5209-.109-72.22-.2215-110.3029-.2215s-74.7821.1125-110.303.2215c-116.8572.3584-220.97.6777-319.6522-3.1791-4.103-.16-7.5731.9128-11.3692,2.0914-4.4109,1.37-9.215,2.8636-15.7688,2.5511-6.859-.3271-11.85-2.3044-16.4175-4.1116-3.8886-1.5385-7.4369-2.9384-11.6188-3.179-37.3075-2.1464-74.0154-5.0272-110.5415-8.8788V94.0381l-23.2817,27.9194h-63.4522l-11.32-10.0618-18.9273-30.6769.93-22.2906q-32.942-5.5561-66.2557-12.4815c-3.43-.7146-6.7891-.076-10.5268.6419-4.4148.848-9.2926,1.7894-15.1359.4885-6.4214-1.43-10.3536-4.3172-13.9482-6.9537-3.0561-2.2415-5.8337-4.2723-9.7168-5.1986-31.2614-7.4577-63.0033-15.9287-95.4659-25.5488l-9.4095-2.7885" style="fill:none;stroke:#a7abae;stroke-linecap:round;stroke-linejoin:round;stroke-width:0.5px"/><path d="M1143.9124,6.8478l-9.4095,2.7885A1778.8378,1778.8378,0,0,1,929.6293,57.634l-6.3636,1.084.9364,22.4347s-18.8486,30.5493-18.8953,30.6049l-11.1936,9.95h-63.24l-23.1487-27.76v-19.5L705.4769,82.8546c-117.6963,7.1477-241.08,6.7692-383.37,6.3328-35.5209-.109-72.22-.2215-110.3037-.2215s-74.7829.1125-110.3037.2215c-116.8585.3584-220.9655.6777-319.6417-3.1789-4.1519-.1623-7.6613.9252-11.4531,2.1025-4.409,1.3689-9.1766,2.85-15.6828,2.54-6.8139-.325-11.7712-2.2876-16.3375-4.0943-3.8839-1.5367-7.4683-2.9529-11.6964-3.1962-37.3981-2.1516-74.193-5.0413-110.8058-8.9069V93.9476l-23.1488,27.76h-63.24s-11.1936-9.95-11.24-10.0055l-18.8486-30.5493.9364-22.4343q-33.0451-5.57-66.4637-12.5164c-3.4872-.7266-6.8963-.0751-10.6249.6411-4.416.8482-9.2472,1.7784-15.0344.49-6.3668-1.4174-10.263-4.2768-13.8547-6.9113-3.0525-2.2389-5.8679-4.3006-9.8067-5.24C-646.7,27.725-678.438,19.2551-710.8964,9.6363l-9.4095-2.7885" style="fill:none;stroke:#a7abae;stroke-linecap:round;stroke-linejoin:round;stroke-width:0.5px"/></g><path d="M1143.8414,6.6081l-9.4095,2.7885A1778.5926,1778.5926,0,0,1,929.5873,57.3875l-6.5806,1.121.9424,22.5781-18.8084,30.4842-11.1226,9.8867H830.99l-23.0158-27.6V74.1759L705.4618,82.6051c-147.0656,8.9312-303.0151,6.1108-493.6585,6.1108-163.3767,0-301.2739,2.0713-429.9357-2.9572-9.0887-.3552-15.1242,5.2154-27.1337,4.6426-12.5207-.5971-18.7271-6.755-28.0314-7.29-37.4888-2.1568-74.3707-5.0553-111.07-8.9351V93.857l-23.0158,27.6h-63.0281l-11.1225-9.8867-18.8084-30.4842.9424-22.5781q-33.1482-5.5825-66.6717-12.5513c-7.7533-1.6155-15.0985,3.4822-25.656,1.1319-11.6743-2.599-14.9613-10.0761-23.6577-12.1507-31.2525-7.4555-62.9858-15.9243-95.44-25.5418l-9.4095-2.7885" style="fill:none;stroke:#a7abae;stroke-linecap:round;stroke-linejoin:round;stroke-width:0.5px"/><g id="b8bdaf6a-1016-4d19-a6c0-68949b20d2e6" data-name="Offset Group"><path d="M211.8033,1038.0946H346.9789A53.0867,53.0867,0,0,1,376.79,1047.23l28.7431,19.4907a30.935,30.935,0,0,0,22.4458,4.8864l277.9694-46.7909A200.213,200.213,0,0,0,796.4349,984.69L952.9756,861.2362a146.0594,146.0594,0,0,0,52.7959-86.3089l68.0857-344.637A128.0658,128.0658,0,0,0,954.0227,277.5594c-129.84-5.726-364.0139-12.5437-742.2139-12.5437h-.011c-378.2,0-612.374,6.8177-742.214,12.5438a127.3044,127.3044,0,0,0-52.6112,13.9687A128.3931,128.3931,0,0,0-625.34,326.4977a128.0987,128.0987,0,0,0-23.8114,49.2243,127.852,127.852,0,0,0-1.0993,54.5685l68.0856,344.6368a146.06,146.06,0,0,0,52.7959,86.3089L-372.8284,984.69a200.2145,200.2145,0,0,0,90.4867,40.1268L-4.37,1071.6076a30.9341,30.9341,0,0,0,22.4447-4.8877l28.7409-19.4891a53.0873,53.0873,0,0,1,29.8121-9.1362Z" style="fill:none;stroke:#a7abae;stroke-linecap:round;stroke-linejoin:round;stroke-width:0.5px"/><path d="M211.8033,1037.8446H346.9789a53.3368,53.3368,0,0,1,29.9514,9.1786l28.7425,19.49a30.6838,30.6838,0,0,0,22.2646,4.8471L705.9068,1024.57A199.9631,199.9631,0,0,0,796.28,984.4933L952.8208,861.04a145.8093,145.8093,0,0,0,52.7055-86.1611l68.0856-344.6368a127.8156,127.8156,0,0,0-119.6-152.4328c-129.8356-5.7258-364.0058-12.5435-742.2029-12.5435h-.011c-378.1971,0-612.3673,6.8177-742.203,12.5435a127.0549,127.0549,0,0,0-52.5079,13.9413,128.1442,128.1442,0,0,0-42.23,34.9015,127.849,127.849,0,0,0-23.765,49.1283,127.6045,127.6045,0,0,0-1.0971,54.4618L-581.92,774.8788A145.8093,145.8093,0,0,0-529.2142,861.04l156.5406,123.4534A199.964,199.964,0,0,0-282.3,1024.57L-4.33,1071.3608a30.6833,30.6833,0,0,0,22.2641-4.8478l28.7413-19.4895a53.3381,53.3381,0,0,1,29.952-9.1789Z" style="fill:none;stroke:#a7abae;stroke-linecap:round;stroke-linejoin:round;stroke-width:0.5px"/></g><path d="M211.8033,1037.5946H346.9789a53.5872,53.5872,0,0,1,30.0917,9.2217l28.7419,19.49a30.4328,30.4328,0,0,0,22.0834,4.808l277.9694-46.7908a199.7133,199.7133,0,0,0,90.26-40.0263L952.666,860.8436a145.5589,145.5589,0,0,0,52.615-86.0132l68.0856-344.6368A127.6662,127.6662,0,0,0,954.0007,278.059c-129.8313-5.7257-363.9977-12.5433-742.1919-12.5433h-.011c-378.1942,0-612.3607,6.8176-742.1919,12.5433a127.274,127.274,0,0,0-94.5524,48.7474A127.4115,127.4115,0,0,0-649.76,430.1936L-581.6745,774.83a145.56,145.56,0,0,0,52.6151,86.0132L-372.5187,984.297a199.7133,199.7133,0,0,0,90.26,40.0263l277.9693,46.7908a30.433,30.433,0,0,0,22.0835-4.808l28.7418-19.49a53.5875,53.5875,0,0,1,30.0918-9.2217Z" style="fill:none;stroke:#a7abae;stroke-linecap:round;stroke-linejoin:round;stroke-width:0.5px"/><g id="a9afad9c-2f9c-428c-98b7-6a3c2f878052" data-name="Offset Group"><path d="M-811.6931-176.208l26.6671,557.691a41.2571,41.2571,0,0,0,12.0912,27.2949,41.2572,41.2572,0,0,0,27.315,12.0459l37.7,1.74,33.1088,1.5281a151.0858,151.0858,0,0,1,4.2891-58.7784,151.2392,151.2392,0,0,1,26.86-53.1942,151.6077,151.6077,0,0,1,49.969-41.31,150.5907,150.5907,0,0,1,62.2454-16.5317c130.0826-5.726,364.6206-12.5589,743.2453-12.5589" style="fill:none;stroke:#a7abae;stroke-linecap:round;stroke-linejoin:round;stroke-width:0.5px"/><path d="M-811.9428-176.1961l26.6671,557.691a41.507,41.507,0,0,0,12.1643,27.46,41.5072,41.5072,0,0,0,27.48,12.1188l37.7,1.74,33.4053,1.5417a150.8362,150.8362,0,0,1,4.2452-58.9753,150.989,150.989,0,0,1,26.8155-53.1064,151.36,151.36,0,0,1,49.8866-41.2418,150.3408,150.3408,0,0,1,62.1421-16.5043c130.0783-5.7258,364.6125-12.5586,743.2343-12.5586" style="fill:none;stroke:#a7abae;stroke-linecap:round;stroke-linejoin:round;stroke-width:0.5px"/></g><path d="M-812.1926-176.1842l26.6672,557.691a41.86,41.86,0,0,0,39.8826,39.8165l37.7,1.74,33.7023,1.5555a150.6075,150.6075,0,0,1,30.9719-112.191,150.5191,150.5191,0,0,1,111.843-57.65c130.0739-5.7256,364.6044-12.5584,743.2233-12.5584" style="fill:none;stroke:#a7abae;stroke-linecap:round;stroke-linejoin:round;stroke-width:0.5px"/><g id="e4e14089-3da7-423f-9f62-1d426cae1b4d" data-name="Offset Group"><path d="M1147.1261-184.4047v88.5226a20.1044,20.1044,0,0,1-3.4162,11.2173,20.1048,20.1048,0,0,1-9.0887,7.4091C860.5393,34.8687,637.84,33.9211,322.1057,32.5844c-35.521-.15-72.22-.3058-110.3024-.3058s-74.7814.1554-110.3024.3058c-315.7347,1.3367-538.4336,2.2843-812.5155-109.84a20.1043,20.1043,0,0,1-9.0887-7.4091,20.1044,20.1044,0,0,1-3.4162-11.2173v-81.4551" style="fill:none;stroke:#a7abae;stroke-linecap:round;stroke-linejoin:round;stroke-width:0.5px"/><path d="M1146.8761-184.4047v88.5226a19.8544,19.8544,0,0,1-3.3738,11.078,19.8539,19.8539,0,0,1-8.9757,7.317C860.4964,34.6162,637.8447,33.6711,322.1067,32.3344c-35.5209-.15-72.22-.3058-110.3034-.3058s-74.7826.1554-110.3035.3058c-315.7379,1.3367-538.39,2.2818-812.42-109.8215a19.8547,19.8547,0,0,1-8.9758-7.317,19.8551,19.8551,0,0,1-3.3737-11.078v-81.4551" style="fill:none;stroke:#a7abae;stroke-linecap:round;stroke-linejoin:round;stroke-width:0.5px"/></g><path d="M1146.6261-184.4047v88.5226a19.6246,19.6246,0,0,1-12.1942,18.1636C829.631,46.9728,588.4133,31.7786,211.8033,31.7786S-406.0244,46.9728-710.8253-77.7185a19.6246,19.6246,0,0,1-12.1942-18.1636v-81.4551" style="fill:none;stroke:#a7abae;stroke-linecap:round;stroke-linejoin:round;stroke-width:0.5px"/><path d="M700.5737,208.1113H606.07s0,19.94-28.61,19.94H-153.8535c-28.6095,0-28.6095-19.94-28.6095-19.94H-282.5653" style="fill:none;stroke:#a7abae;stroke-linecap:round;stroke-linejoin:round"/><g id="e90a8e06-05ed-46f1-a726-5c5feb0af69d" data-name="Offset Group"><path d="M211.8088,241.7189c378.6247,0,613.1626,6.8329,743.2454,12.5589a151.3882,151.3882,0,0,1,143.3631,169.8141l33.1089-1.5281,37.7-1.74a41.36,41.36,0,0,0,39.4062-39.3408l26.7261-558.9254" style="fill:none;stroke:#a7abae;stroke-linecap:round;stroke-linejoin:round;stroke-width:0.5px"/><path d="M211.8088,241.9689c378.6218,0,613.156,6.8328,743.2343,12.5587a151.1381,151.1381,0,0,1,143.0894,169.8277l33.4052-1.5417,37.7-1.74a41.61,41.61,0,0,0,39.6444-39.5787L1235.6084-177.43" style="fill:none;stroke:#a7abae;stroke-linecap:round;stroke-linejoin:round;stroke-width:0.5px"/></g><path d="M211.8088,242.2189c378.6189,0,613.1493,6.8328,743.2233,12.5584A150.9794,150.9794,0,0,1,1097.847,424.6188l33.7022-1.5555,37.7-1.74a41.86,41.86,0,0,0,39.8826-39.8165l26.7261-558.9253" style="fill:none;stroke:#a7abae;stroke-linecap:round;stroke-linejoin:round;stroke-width:0.5px"/></g><path d="M133.337,91.7819H291.7031a5.905,5.905,0,0,1,5.8976,5.9088V163.184a5.8958,5.8958,0,0,1-2.3681,4.736l-7.0251,5.2548-12.7987,9.5737a.8964.8964,0,0,0-.1917.1691,5.77,5.77,0,0,0-2.1538,4.0482L271.8,201.3094a5.9206,5.9206,0,0,1-3.6874,4.9729L244.41,215.7544a5.8712,5.8712,0,0,1-2.1989.4286h-33.66a6.1676,6.1676,0,0,0-1.511.1916l-12.8551,3.4281-2.8642-9.8669-4.4091-15.1667-3.1461-10.8366,5.9427-1.5a5.9,5.9,0,0,0,4.4767-5.7284V163.4884a5.9074,5.9074,0,0,0-5.9088-5.9088H98.0087A5.9146,5.9146,0,0,1,92.1,151.6708v-53.98a5.9146,5.9146,0,0,1,5.9088-5.9088h41.5084l-.1353.1353" style="fill:#fff;stroke:#000001;stroke-miterlimit:10;stroke-width:1.5px"/><path d="M187.7093,186.1928l2.2339,7.6953,4.4093,15.1656,2.0037,6.9031,9.87-2.6316a9.2868,9.2868,0,0,1,2.3253-.299h33.66a2.7175,2.7175,0,0,0,1.0194-.1993l23.7117-9.4761a2.743,2.743,0,0,0,1.7129-2.312l1.2639-14.35a8.9619,8.9619,0,0,1,3.16-6.1006,4.1694,4.1694,0,0,1,.485-.4018l12.754-9.54,7.0243-5.2549a2.7574,2.7574,0,0,0,1.1026-2.2082V97.6909a2.75,2.75,0,0,0-2.74-2.7528H98.0083a2.7553,2.7553,0,0,0-2.7518,2.7528v53.98a2.7545,2.7545,0,0,0,2.7518,2.7518h90.2682a9.0759,9.0759,0,0,1,9.0651,9.065v13.2164a9.047,9.047,0,0,1-6.87,8.7917Z" style="fill:none;stroke:#000001;stroke-miterlimit:10;stroke-width:0.5px"/><path d="M19.4912,245.9977c25.9245,0,56.8105-11.7951,92.5679-25.44,23.748-9.0549,58.4681-21.653,85.08-29.0278l4.409,15.1668c-25.9694,7.1718-60.4075,19.657-83.8511,28.6105-37.2234,14.2082-69.3723,26.4769-98.2061,26.4769" style="fill:#fff"/><path d="M19.4912,245.9977c25.9245,0,56.8105-11.7951,92.5679-25.44,23.748-9.0549,58.4681-21.653,85.08-29.0278l4.409,15.1668c-25.9694,7.1718-60.4075,19.657-83.8511,28.6105-37.2234,14.2082-69.3723,26.4769-98.2061,26.4769" style="fill:none;stroke:#000001;stroke-miterlimit:10"/><path d="M239.4251,181.4634a12.0761,12.0761,0,0,0-23.6348,1.8871l-4.3432,3.4592-28.3941,9.132a2.5139,2.5139,0,0,0-1.6238,3.1622l3.38,10.5213a2.5139,2.5139,0,0,0,3.1649,1.6238l31.3677-10.1124,6.0125-4.8557a11.7275,11.7275,0,0,0,5.6228-.1327A11.9782,11.9782,0,0,0,239.4251,181.4634Z" style="fill:#fff;stroke:#000001;stroke-linecap:round;stroke-linejoin:round"/><circle cx="227.8658" cy="184.584" r="8.9878" style="fill:none;stroke:#000001;stroke-miterlimit:10;stroke-width:0.5px"/><circle cx="227.8658" cy="184.584" r="3.5651" style="fill:none;stroke:#000001;stroke-miterlimit:10;stroke-width:0.5px"/><polygon points="231.431 178.409 224.301 178.409 220.736 184.584 224.301 190.759 231.431 190.759 234.996 184.584 231.431 178.409" style="fill:none;stroke:#000001;stroke-miterlimit:10;stroke-width:0.5px"/><circle cx="222.3125" cy="120.2885" r="8.608" style="fill:none;stroke:#000001;stroke-miterlimit:10;stroke-width:0.5px"/><circle cx="222.3125" cy="120.2885" r="3.5651" style="fill:none;stroke:#000001;stroke-miterlimit:10;stroke-width:0.5px"/><polygon points="225.878 114.113 218.747 114.113 215.182 120.288 218.747 126.463 225.878 126.463 229.443 120.288 225.878 114.113" style="fill:none;stroke:#000001;stroke-miterlimit:10;stroke-width:0.5px"/><polygon points="242.279 137.12 238.427 140.255 202.346 140.255 202.346 100.322 238.505 100.322 242.279 103.457 242.279 137.12" style="fill:none;stroke:#000001;stroke-miterlimit:10"/><circle cx="173.0455" cy="120.2885" r="8.608" style="fill:none;stroke:#000001;stroke-miterlimit:10;stroke-width:0.5px"/><circle cx="173.0455" cy="120.2885" r="3.5651" style="fill:none;stroke:#000001;stroke-miterlimit:10;stroke-width:0.5px"/><polygon points="176.611 114.113 169.48 114.113 165.915 120.288 169.48 126.463 176.611 126.463 180.176 120.288 176.611 114.113" style="fill:none;stroke:#000001;stroke-miterlimit:10;stroke-width:0.5px"/><polygon points="193.012 137.12 189.16 140.255 153.079 140.255 153.079 100.322 189.238 100.322 193.012 103.457 193.012 137.12" style="fill:none;stroke:#000001;stroke-miterlimit:10"/><circle cx="123.7786" cy="120.2885" r="8.608" style="fill:none;stroke:#000001;stroke-miterlimit:10;stroke-width:0.5px"/><circle cx="123.7786" cy="120.2885" r="3.5651" style="fill:none;stroke:#000001;stroke-miterlimit:10;stroke-width:0.5px"/><polygon points="127.344 114.113 120.213 114.113 116.648 120.288 120.213 126.463 127.344 126.463 130.909 120.288 127.344 114.113" style="fill:none;stroke:#000001;stroke-miterlimit:10;stroke-width:0.5px"/><polygon points="143.746 137.12 139.893 140.255 103.812 140.255 103.812 100.322 139.971 100.322 143.746 103.457 143.746 137.12" style="fill:none;stroke:#000001;stroke-miterlimit:10"/><path d="M111.045,124.8538a12.0761,12.0761,0,0,0,23.08-5.431h0l22.4624-25.37a2.5141,2.5141,0,0,0-.2151-3.5483l-8.2714-7.3284a2.514,2.514,0,0,0-3.5506.2164l-21.8305,24.6905a11.7248,11.7248,0,0,0-5.5384.9794A11.9781,11.9781,0,0,0,111.045,124.8538Z" style="fill:#fff;stroke:#000001;stroke-linecap:round;stroke-linejoin:round"/><circle cx="122.0012" cy="120.0251" r="8.9878" style="fill:none;stroke:#000001;stroke-miterlimit:10;stroke-width:0.5px"/><circle cx="122.0012" cy="120.2885" r="3.5651" style="fill:none;stroke:#000001;stroke-miterlimit:10;stroke-width:0.5px"/><polygon points="125.566 114.113 118.436 114.113 114.871 120.288 118.436 126.463 125.566 126.463 129.131 120.288 125.566 114.113" style="fill:none;stroke:#000001;stroke-miterlimit:10;stroke-width:0.5px"/><path d="M616.0683,211.6047a7.8533,7.8533,0,0,1-3.9467,6.8334l-54.8033,31.8445a34.3319,34.3319,0,0,1-17.1626,4.6009l-203.6315-1.028c-12.6782,0-20.5318-7.5467-29.1275-19.1787l-63.4814-83.52c.049-.0588,1.023-.1077,1.0818-.147l10.2161-8.3263,65.5805,86.2326c5.3923,6.8826,8.8862,10.355,15.7305,10.355l203.6315-.1744a18.5594,18.5594,0,0,0,9.2691-2.4807l54.8033-31.8445a7.8947,7.8947,0,0,1,11.84,6.8334Z" style="fill:#fff;stroke:#000001;stroke-miterlimit:10"/><path d="M216.4012,110.3117a12.0762,12.0762,0,0,0,9.596,21.6815l4.7007,2.955,18.007,23.7774a2.514,2.514,0,0,0,3.5214.4868l8.8118-6.6687a2.5141,2.5141,0,0,0,.486-3.5239l-19.9156-26.26-6.5706-4.0687a11.729,11.729,0,0,0-1.9845-5.2627A11.9783,11.9783,0,0,0,216.4012,110.3117Z" style="fill:#fff;stroke:#000001;stroke-linecap:round;stroke-linejoin:round"/><circle cx="223.1684" cy="120.189" r="8.9878" style="fill:none;stroke:#000001;stroke-miterlimit:10;stroke-width:0.5px"/><circle cx="223.1684" cy="120.189" r="3.5651" style="fill:none;stroke:#000001;stroke-miterlimit:10;stroke-width:0.5px"/><polygon points="216.162 118.866 218.52 125.595 225.526 126.918 230.175 121.512 227.817 114.783 220.811 113.46 216.162 118.866" style="fill:none;stroke:#000001;stroke-miterlimit:10;stroke-width:0.5px"/><path d="M126.0437,40.553H291.7031a5.9049,5.9049,0,0,1,5.8976,5.9088V111.955a5.896,5.896,0,0,1-2.3681,4.7361l-7.0251,5.2548L275.4088,131.52a.8937.8937,0,0,0-.1917.1691,5.77,5.77,0,0,0-2.1538,4.0482L271.8,150.0805a5.9206,5.9206,0,0,1-3.6874,4.9729L244.41,164.5255a5.8731,5.8731,0,0,1-2.1989.4285h-33.66a6.1677,6.1677,0,0,0-1.511.1917l-12.8551,3.4281-2.8642-9.8669L186.9117,143.54l-3.1461-10.8366,5.9427-1.5a5.9,5.9,0,0,0,4.4767-5.7284V112.26a5.9073,5.9073,0,0,0-5.9088-5.9088H98.0087A5.9146,5.9146,0,0,1,92.1,100.4419v-53.98a5.9145,5.9145,0,0,1,5.9088-5.9088h41.5084l-.1353.1353" style="fill:#d3d5d6;stroke:#000001;stroke-miterlimit:10;stroke-width:1.5px"/><path d="M192.3567,162.2862l12.4013-3.5307a16.9044,16.9044,0,0,1,4.3459-.5682h32.1282a4.2246,4.2246,0,0,0,1.5693-.3023l19.8924-7.9575a4.2255,4.2255,0,0,0,2.64-3.5534l.9862-11.23a12.6863,12.6863,0,0,1,5.0347-9.0421l17.7915-13.3081a4.2253,4.2253,0,0,0,1.6944-3.3835V51.5483a4.2253,4.2253,0,0,0-4.2253-4.2253H103.0941a4.2253,4.2253,0,0,0-4.2253,4.2253V95.3568a4.2252,4.2252,0,0,0,4.2253,4.2252h80.9533a16.8991,16.8991,0,0,1,16.8991,16.8991v8.9981a12.6561,12.6561,0,0,1-8.7326,12.0449v0l-6.5344,1.7611" style="fill:none;stroke:#000001;stroke-miterlimit:10;stroke-width:0.5px"/><circle cx="123.7786" cy="69.0595" r="8.608" style="fill:none;stroke:#000001;stroke-miterlimit:10;stroke-width:0.5px"/><circle cx="173.0455" cy="69.0595" r="8.608" style="fill:none;stroke:#000001;stroke-miterlimit:10;stroke-width:0.5px"/><circle cx="222.3125" cy="69.0595" r="8.608" style="fill:none;stroke:#000001;stroke-miterlimit:10;stroke-width:0.5px"/><circle cx="222.3125" cy="123.476" r="8.608" style="fill:none;stroke:#000001;stroke-miterlimit:10;stroke-width:0.5px"/></g><g id="a3191a0b-7b72-4b86-9fbb-4e2d3dc9d926" data-name="above"><polygon points="201.567 49.561 201.567 20.236 211.795 20.236 193.012 0 174.23 20.236 184.458 20.236 184.458 49.561 201.567 49.561" style="fill:#f2a900;stroke:#fff;stroke-miterlimit:10;stroke-width:1.5px"/></g></svg>