<?xml version="1.0" encoding="UTF-8"?><svg id="uuid-0b489cba-777b-4eba-aebe-d095b529e93b" xmlns="http://www.w3.org/2000/svg" width="487.497" height="247.629" xmlns:xlink="http://www.w3.org/1999/xlink" viewBox="0 0 487.497 247.629"><defs><clipPath id="uuid-643b70af-74c4-47dc-a206-95987874eaf6"><rect width="487.497" height="252.078" style="fill:none;"/></clipPath></defs><g style="clip-path:url(#uuid-643b70af-74c4-47dc-a206-95987874eaf6);"><path d="M379.009,107.561c-5.052,3.883-8.93,7.095-9.794,7.899-2.072,1.934-1.382,3.38-1.382,3.38-2.827.069-3.567.824-3.567.824-2.842,3.064-23.624,23.407-28,29.974-4.376,6.562-4.376,11.595-4.159,14.437.222,2.842.878,7.657,1.534,13.78.286,2.694,2.057,5.432,4.672,8.151,3.335,3.469,8.047,6.917,12.828,10.228,3.217,2.225,21.448,13.149,42.915,25.888-6.113-3.552-72.228-42.022-111.936-65.626-8.851-5.26-16.391-9.779-21.66-13.011-.025-.015-.049-.03-.069-.044-3.163-2.087-5.072-7.169-2.324-11.595,2.802-4.505,33.062-33.418,60.628-49.778,0,0,6.503-4.149,14.905,0,8.407,4.145,45.407,25.494,45.407,25.494Z" style="fill:#f2a900;"/><path d="M344.845,140.47l-41.546-24.218,1.31-2.066c.105-.165.231-.316.374-.449l1.485-1.371c.714-.659,1.769-.786,2.619-.316l39.744,23.369" style="fill:none; stroke:#000001; stroke-miterlimit:10; stroke-width:.5px;"/><line x1="304.767" y1="113.938" x2="346.602" y2="138.484" style="fill:none; stroke:#000001; stroke-miterlimit:10; stroke-width:.5px;"/><path d="M-3.051,348.194c47.739-48.036,120.808-108.115,160.103-125.002,39.295-16.887,96.323-14.853,128.277,14.289,29.073,26.515,107.168,102.947,118.859,120.158" style="fill:none; stroke:#a7abae; stroke-miterlimit:10; stroke-width:1.5px;"/><path d="M587.173,337.171s-2.166,3.599-5.885,2.802-24.702-3.984-28.686-5.578c-3.984-1.594-48.872-22.311-70.121-39.576,0,0-6.584-4.944-7.351-14.532-.767-9.588-3.835-33.942-2.109-41.995,1.726-8.054,13.231-58.87,22.819-84.183,4.219-11.697,9.972-17.258,13.04-20.71,3.068-3.452,79.772-79.005,87.251-85.142,7.479-6.136,14.574-10.355,36.051-3.26,21.477,7.095,55.61,25.696,63.664,36.243" style="fill:none; stroke:#a7abae; stroke-miterlimit:10; stroke-width:1.5px;"/><path d="M430.804,327.594c-42.268-26.105-162.064-102.753-172.784-110.525-10.72-7.772-16.348-13.936-19.296-23.852-2.948-9.916-7.024-30.284-8.604-37.788s-1.044-15.008,4.048-23.584c0,0-1.185-7.983,5.739-15.914,6.924-7.931,41.546-41.337,68.235-53.905,11.96-5.518,23.668-7.658,42.427,1.155,18.758,8.813,54.387,27.697,54.387,27.697" style="fill:none; stroke:#a7abae; stroke-miterlimit:10; stroke-width:1.5px;"/><path d="M346.794,61.516c39.1-43.957,100.369-90.504,127.214-96.349,26.846-5.845,47.196-6.278,58.021-6.062s27.928,3.68,48.495,19.268c20.567,15.588,93.3,78.659,109.975,97.567" style="fill:none; stroke:#a7abae; stroke-miterlimit:10; stroke-width:1.5px;"/><path d="M362.945-224.141c-23.382,18.06-81.403,62.225-86.815,66.122-5.412,3.897-11.474,9.526-10.608,21.217s1.948,36.986,1.948,43.083c0,6.502-1.943,11.803-7.144,16.237-6.495,5.537-80.59,57.552-122.373,85.264" style="fill:none; stroke:#a7abae; stroke-miterlimit:10; stroke-width:1.5px;"/><path d="M241.126-63.43s.195,14.697,0,19.362-2.74,15.267-11.751,22.37c-9.012,7.103-82.378,59.902-82.378,59.902" style="fill:none; stroke:#a7abae; stroke-miterlimit:10; stroke-width:1.5px;"/><path d="M124.125,165.01c5.946-5.813,10.626-12.794,13.71-20.517,5.453-13.653,9.391-28.368,11.511-43.869C161.132,14.453,112.273-63.391,40.218-73.245-31.837-83.1-99.803-21.233-111.588,64.937c-11.785,86.171,37.074,164.014,109.129,173.869,3.708.507,7.405.824,11.084.958,11.559.42,22.993-2.556,32.895-8.534,22.549-13.614,56.507-40.704,82.605-66.22Z" style="fill:none; stroke:#a7abae; stroke-miterlimit:10; stroke-width:1.5px;"/><path d="M-73.764,44.877S-24.135,14.043-21.02,12.174c3.115-1.869,8.099-2.492,10.591-2.284s37.589-.831,56.279-1.857C64.541,7.007,86.762-.078,93.2-2.57c6.438-2.492,6.022-9.138,4.153-12.38-1.869-3.242-9.345-9.841-15.838-11.918-2.591-.829-4.726-1.525-6.356-2.063-2.352-.776-4.525-2.004-6.424-3.594-12.153-10.177-23.619-13.275-23.619-13.275-2.017-.43-4.059-.787-6.127-1.07C-3.127-52.631-44.712-26.246-66.179,17.745c-8.835,18.104-9.829,50.985-13.403,65.019-2.181,8.564-6.615,24.647-4.611,33.833" style="fill:none; stroke:#a7abae; stroke-miterlimit:10; stroke-width:1.5px;"/><path d="M124.695,53.728c1.982,14.284,2.059,29.384-.052,44.819-1.42,10.382-3.753,20.353-6.877,29.794-.919,2.4-1.904,4.764-2.953,7.089-2.911,6.453-7.428,12.246-13.232,17.026-.661.544-1.326,1.089-1.997,1.634l-18.07-27.803s6.511-6.023,7.976-15.464c1.465-9.441,3.256-32.882,3.907-37.114s1.139-6.186,5.046-8.79c3.907-2.605,17.743-11.19,17.743-11.19,0,0,6.76-4.354,8.508,0Z" style="fill:none; stroke:#a7abae; stroke-miterlimit:10; stroke-width:1.5px;"/><path d="M32.472,205.33c-.96.879-1.894,1.713-2.796,2.499-6.128,5.33-13.073,8.199-19.981,8.231-2.199.01-4.402-.133-6.605-.434-20.84-2.85-39.177-13.299-53.59-28.934,0,0-5.046-6.035-1.302-10.593,3.744-4.558,19.534-16.604,19.534-16.604,0,0,6.837,1.628,9.279,3.581s44.602,36.137,47.207,37.928c2.605,1.791,4.791,3.445,8.256,4.327Z" style="fill:none; stroke:#a7abae; stroke-miterlimit:10; stroke-width:1.5px;"/><path d="M81.515,126.287s-25.882,22.464-47.858,35.486c0,0-8.627,6.674-20.51,1.302-11.883-5.372-27.347-12.952-27.347-12.952,0,0-4.07-2.046-6.837,0-2.767,2.046-11.232,9.371-11.232,9.371" style="fill:none; stroke:#a7abae; stroke-miterlimit:10; stroke-width:1.5px;"/><path d="M-43.326,168.299c-8.477,7.799-18.244,12.52-20.848,5.683s-7.488-19.553-9.116-26.299-3.418-13.745,3.907-21.396c7.325-7.651,19.534-20.32,21.975-23.345s4.558-5.141-.814-11.001-8.115-10.255-10.813-13.185c-2.698-2.93-4.326-8.953,1.534-13.999,5.86-5.046,35.324-28.746,70.81-47.011,0,0,11.883-6.056,23.603-4.265,11.72,1.791,22.464,3.647,27.673,4.265,5.209.618,8.627,1.269,15.301-1.661,6.674-2.93,23.603-9.604,27.51-10.906,3.907-1.302,10.092-.814,14.162,4.558,4.07,5.372,11.395,16.929,13.023,20.999,1.628,4.07,1.791,8.79-2.116,11.557-3.907,2.767-16.278,11.436-16.278,11.436" style="fill:none; stroke:#a7abae; stroke-miterlimit:10;"/><polygon points="132.466 42.292 116.618 54.342 115.757 53.114 132.466 42.292 132.466 42.292" style="fill:#a7abae;"/><path d="M32.545,204.584l15.18,1.551c3.717.238,7.576,1.16,11.303.652,3.714-.784,6.664-3.422,9.807-5.452,2.09-1.453,4.168-2.925,6.235-4.412,4.125-2.986,8.258-5.967,12.239-9.146-3.903,3.276-7.964,6.359-12.016,9.448-2.031,1.539-4.074,3.062-6.131,4.568-3.146,2.149-6.127,4.929-9.965,5.821-3.842.639-7.669-.201-11.534-.355,0,0-15.263-1.181-15.263-1.181,0,0,.146-1.493.146-1.493h0Z" style="fill:#a7abae;"/><path d="M100.2,153.66c3.287,5.235,5.996,11.775,3.971,17.968-1.113,3.043-3.889,4.871-6.134,7.01-2.315,2.047-4.671,4.047-7.095,5.959,2.344-2.009,4.615-4.1,6.84-6.235,2.065-2.143,4.74-4.058,5.681-6.984,1.673-5.847-1.203-12.088-4.492-16.858,0,0,1.229-.86,1.229-.86h0Z" style="fill:#a7abae;"/><path d="M26.719,165.477c-3.614.497-7.301.545-10.708,1.71-2.581.866-1.159,2.83.108,4.252,4.076,4.153,8.316,8.319,12.465,12.477,4.455,4.167,14.177,14.943,19.204,18.176,2.426,1.642,5.095,2.998,7.986,3.605-2.903-.546-5.616-1.851-8.088-3.45-5.049-3.085-15.103-13.74-19.626-17.797-4.258-4.09-8.511-8.089-12.772-12.253-7.026-7.408,6.859-7.368,11.241-8.208,0,0,.189,1.488.189,1.488h0Z" style="fill:#a7abae;"/><path d="M23.759,164.626c4.176,4.343,8.371,8.671,12.593,12.969,2.111,2.149,4.231,4.289,6.376,6.4,2.125,2.062,4.138,4.314,7.043,5.227,2.733.964,5.96,1.053,8.425-.565l7.321-5.29,14.642-10.61-14.424,10.915-7.226,5.452c-3.982,2.632-9.503,1.455-13.06-1.393-3.438-2.987-6.622-6.185-9.89-9.339-4.315-4.215-8.6-8.456-12.87-12.716,0,0,1.071-1.05,1.071-1.05h0Z" style="fill:#a7abae;"/><path d="M74.024,132.682c3.152,5.223,6.297,10.446,9.356,15.728,2.203,4.478,8.231,12.162,3.928,16.756,1.048-1.125,1.505-2.694,1.341-4.191-.651-4.529-3.649-8.31-5.895-12.187-3.271-5.136-6.632-10.224-9.997-15.302,0,0,1.266-.804,1.266-.804h0Z" style="fill:#a7abae;"/><path d="M59.89,143.737c2.097,3.347,3.178,7.216,0,9.56-3.178,2.345-22.286,17.115-22.286,17.115,0,0-5.561,3.678-8.412.793" style="fill:none; stroke:#a7abae; stroke-miterlimit:10; stroke-width:1.5px;"/><path d="M-25.015,161.078c11.601,3.978,24.068,4.849,36.236,5.929-12.315-.593-24.773-.95-36.703-4.503,0,0,.467-1.426.467-1.426h0Z" style="fill:#a7abae;"/><path d="M6.928,230.798c9.619.152,19.519-.623,28.45-4.404,8.717-4.178,16.541-10.068,24.512-15.504-7.77,5.776-15.566,11.728-24.314,15.963-9.021,3.769-18.99,4.489-28.648,3.945h0Z" style="fill:#a7abae;"/><path d="M118.613,51.122c2.159-.951,4.513-1.793,6.943-1.849,2.427-.081,4.756.585,6.91,1.481-2.24-.665-4.588-1.056-6.85-.733-2.267.3-4.329,1.295-6.333,2.443l-.671-1.342h0Z" style="fill:#a7abae;"/><path d="M108.532-19.031c3.644,6.458,2.387,15.413-2.968,20.564,4.751-5.589,5.914-13.858,2.968-20.564h0Z" style="fill:#a7abae;"/><path d="M117.767,128.341c3.234,3.575,17.536,1.711,27.887-8.295" style="fill:none; stroke:#a7abae; stroke-miterlimit:10; stroke-width:.5px;"/><path d="M5.631,215.903c6.605.434,3.96,18.615-21.387,20.255" style="fill:none; stroke:#a7abae; stroke-miterlimit:10; stroke-width:.5px;"/><path d="M-50.51,65.193C-35.415,51.63-3.804,29.753,16.104,20.456c5.141-2.625,10.282-4.266,17.939-2.735,7.657,1.531,15.86,3.61,19.251,4.922s9.735,4.157,14.657,13.782c4.922,9.626,11.699,25.049,13.123,28.768s1.862,9.079,1.315,14.657c-.547,5.578-2.297,22.642-3.172,26.58-.875,3.938-2.246,6.879-5.826,10.166-3.581,3.288-27.574,23.021-46.458,34.352-6.563,3.938-15.532-.219-16.845-1.094s-15.97-7.547-18.814-9.516c-2.844-1.969-6.235-4.047-9.188-10.282-2.953-6.235-14.767-32.487-16.298-35.44-1.531-2.953-3.719-6.344-6.563-9.079s-7.438-7-9.735-9.407c-2.297-2.406-3.5-6.454,0-10.938Z" style="fill:none; stroke:#a7abae; stroke-miterlimit:10;"/><path d="M-18.755,137.296s15.17,10.315,28.734,15.32c3.281,1.614,11.441,2.014,19.213-3.048" style="fill:none; stroke:#a7abae; stroke-miterlimit:10;"/><path d="M61.59,27.746c1.544,1.571,6.823,2.189,12.825,0,6.001-2.189,28.744-12.824,32.113-14.298,3.369-1.474,7.686-2.316,11.055,2.843,3.369,5.159,7.136,12.319,8.622,15.056s2.468,6.423-.497,8.739-29.498,19.162-32.762,21.268c-3.264,2.106-9.632,4.202-11.87,3.838" style="fill:none; stroke:#a7abae; stroke-miterlimit:10;"/><path d="M69.447,39.41c2.23.676,7.693-1.009,12.068-3.536,4.375-2.527,21.611-11.371,24.049-12.529,2.437-1.158,4.859,1.053,5.596,2.316s3.369,5.628,3.369,5.628c0,0,1.895,2.795-1.369,5.111s-25.059,15.372-26.427,16.109-7.804,3.048-10.22,2.05" style="fill:none; stroke:#a7abae; stroke-miterlimit:10;"/><path d="M-39.572,92.32c2.314,3.528,4.315,6.567-1.023,12.011-5.338,5.444-20.764,20.611-23.486,23.463s-5.596,7.518-4.289,13.481c1.307,5.963,6.752,23.206,7.918,25.797s3.63,6.877,9.981,2.271,23.717-18.753,27.479-21.661c3.762-2.908,7.65-4.463,13.873-1.093,6.222,3.37,23.333,11.55,26.315,12.905,2.981,1.354,10.002,2.169,16.213-1.471,17.646-10.341,36.805-26.114,43.546-31.737,6.741-5.623,8.296-10.938,9.463-16.9s3.241-29.685,3.63-34.481.389-8.647,6.611-12.879c6.222-4.232,28.777-18.621,32.537-21.343,3.759-2.722,3.111-7.259,1.556-10.37-1.556-3.111-9.866-15.836-11.803-18.224-1.937-2.387-6.553-3.761-10.986-1.817s-28.025,12.652-31.266,14.078-11.024,3.458-19.437.165" style="fill:none; stroke:#a7abae; stroke-miterlimit:10; stroke-width:.5px;"/><path d="M-76.263,62.026C-57.723,47.202-20.891,21.336,5.218,9.618" style="fill:none; stroke:#a7abae; stroke-miterlimit:10; stroke-width:.5px;"/><path d="M40.861,14.09s-3.171-2.383,9.573-6.421" style="fill:none; stroke:#a7abae; stroke-miterlimit:10; stroke-width:.5px;"/><path d="M-35.522,77.471c4.514,4.462,8.669,9.299,12.315,14.507,3.732,5.182,6.183,11.101,9.241,16.649,2.969,5.601,6.081,11.158,9.137,16.691,3.348,5.528,9.122,8.651,14.797,11.342,2.85,1.387,5.739,2.698,8.645,3.962,2.852,1.436,5.994,1.931,9.103,1.18,3.114-.659,5.797-2.39,8.382-4.192,2.623-1.783,5.222-3.604,7.813-5.436,5.174-3.676,10.31-7.406,15.365-11.242,5.048-3.844,10.062-7.742,14.8-11.963,3.413-2.659,5.822-6.673,6.36-10.988-.484,4.336-2.881,8.411-6.255,11.102-4.683,4.298-9.687,8.221-14.726,12.083-8.902,6.653-17.747,13.432-27.15,19.364-3.506,1.895-7.813,2.781-11.665,1.441-3.709-1.448-7.3-3.15-10.878-4.887-5.7-2.725-11.573-5.955-14.923-11.555-3.058-5.588-6.129-11.126-9.084-16.754-3.036-5.578-5.478-11.48-9.144-16.671-3.575-5.236-7.67-10.12-12.131-14.634h0Z" style="fill:#a7abae;"/><path d="M-23.966,78.321c5.778,6.955,11.191,14.237,15.683,22.101C-3.75,108.189-.034,116.603,5.738,123.548c1.456,1.753,3.367,2.928,5.357,3.987,2.968,1.619,6.03,3.08,9.15,4.385,7.64,3.654,14.892-3.911,21.002-7.667,7.407-5.176,14.759-10.439,21.987-15.863,3.445-2.841,7.528-5.113,10.149-8.799,2.753-3.704,3.17-8.332,3.451-12.796.345-5.618.628-11.292-.013-16.894-.439-3.367-2.291-6.328-3.567-9.431-2.827-6.16-5.745-12.282-8.824-18.321-3.317-6.719-6.411-11.466-13.918-13.852,7.54,2.33,10.689,7.044,14.08,13.768,3.149,6.008,6.077,12.128,8.925,18.284,1.296,3.114,3.174,6.118,3.622,9.509.662,5.63.396,11.323.068,16.963-.262,4.5-.702,9.256-3.482,13.005-2.613,3.725-6.754,6.061-10.215,8.93-7.209,5.463-14.564,10.727-22.003,15.873-6.29,3.852-13.511,11.385-21.409,7.647-3.131-1.321-6.194-2.794-9.173-4.431-1.996-1.066-3.98-2.305-5.434-4.075-5.79-7.013-9.466-15.411-13.985-23.226-4.416-7.895-9.76-15.219-15.471-22.222h0Z" style="fill:#a7abae;"/><path d="M81.176,38.914s23.036-12.495,24.362-13.097c1.326-.603,2.652-.362,3.736,1.386s2.471,4.403,2.832,5.215.422,1.836-1.205,2.921-22.599,13.343-24.226,14.265c-1.627.922-3.294.199-4.058-1.187-.764-1.386-2.15-4.098-2.632-5.364s-.176-3.285,1.19-4.138Z" style="fill:none; stroke:#a7abae; stroke-miterlimit:10; stroke-width:.5px;"/><path d="M90.526,37.543l2.5,5.052c.304.615,1.065.843,1.658.498l7.328-4.275c.466-.272.642-.859.401-1.342l-2.499-5.024c-.304-.612-1.062-.84-1.653-.497l-7.33,4.247c-.467.271-.644.857-.405,1.341Z" style="fill:none; stroke:#a7abae; stroke-miterlimit:10; stroke-width:.5px;"/><path d="M94.247,43.248c.498-.883.38-2.442-.38-3.957-.863-1.712-2.265-2.798-3.335-2.659" style="fill:none; stroke:#a7abae; stroke-miterlimit:10; stroke-width:.5px;"/><path d="M101.49,39.11c.513-.909.391-2.515-.391-4.075-.889-1.763-2.332-2.881-3.434-2.738" style="fill:none; stroke:#a7abae; stroke-miterlimit:10; stroke-width:.5px;"/><path d="M109.865,171.381c9.649-8.676,19.721-17.724,24.191-30.272,1.633-4.046,3.296-8.082,4.984-12.111-1.515,4.092-3.055,8.178-4.626,12.253-4.312,12.666-14.509,21.853-24.549,30.13h0Z" style="fill:#a7abae;"/><path d="M140.937,53.728c1.051.848,1.579,2.155,2.032,3.393,1.271,3.806,1.721,7.827,2.077,11.805.965,13.305-.079,26.709-2.333,39.837-.471,2.624-1.014,5.233-1.589,7.834,2.914-15.679,4.463-31.7,3.54-47.643-.174-2.652-.447-5.3-.907-7.917-.548-2.521-.878-5.433-2.82-7.309h0Z" style="fill:#a7abae;"/><path d="M21.578,92.186s4.01-16.697,4.608-19.749,3.411-7.181,8.797-5.625,12.627,4.309,14.423,4.847,4.129,2.214,3.591,4.728-5.506,22.203-6.224,24.417-3.112,4.668-7.72,3.172-14.064-4.369-15.38-5.027-3.057-2.737-2.095-6.762Z" style="fill:none; stroke:#a7abae; stroke-miterlimit:10; stroke-width:.5px;"/><path d="M25.893,73.815c.815-3.044,3.405-5.866,7.714-4.55,4.309,1.317,13.465,4.429,14.842,5.027,1.376.598,2.573,1.556,2.035,3.95-.539,2.394-5.386,19.45-5.865,20.826s-2.794,2.932-6.364,1.975c-3.57-.958-14.282-4.369-14.282-4.369,0,0-2.718-.355-2.616-3.23" style="fill:none; stroke:#a7abae; stroke-miterlimit:10; stroke-width:.5px;"/><path d="M24.989,93.323l4.488-2.958,3.826-13.08c.298-1.018,1.374-1.593,2.386-1.274l10.305,3.249,3.351-2.813-15.546-4.96c-1.443-.46-2.978.375-3.375,1.836l-5.435,20Z" style="fill:none; stroke:#a7abae; stroke-miterlimit:10; stroke-width:.5px;"/><path d="M25.271,94.962l4.584-2.732,11.144,3.327c.695.208,1.426-.196,1.621-.895l3.998-14.333,3.334-2.858-5.791,20.476c-.393,1.39-1.85,2.186-3.232,1.767l-15.659-4.751Z" style="fill:none; stroke:#a7abae; stroke-miterlimit:10; stroke-width:.5px;"/><path d="M34.199,79.258l-3.056,10.705c-.118.412.109.843.514.981l8.911,3.019c.146.049.281-.097.22-.239l-1.934-4.48-3.177-1.005c-.411-.13-.646-.561-.532-.977l1.107-4.044-1.719-3.981c-.066-.153-.288-.139-.334.022Z" style="fill:none; stroke:#a7abae; stroke-miterlimit:10; stroke-width:.5px;"/><path d="M41.779,92.855l-1.879-4.352,1.64-4.788c.165-.482-.155-.994-.66-1.057l-3.594-.447-1.767-4.093c-.059-.138.068-.282.212-.241l8.509,2.442c.411.118.657.537.56.953l-2.686,11.552c-.039.167-.268.187-.336.03Z" style="fill:none; stroke:#a7abae; stroke-miterlimit:10; stroke-width:.5px;"/><path d="M34.335,70.252c-2.624-.715-5.339.627-5.894,3.369,0,0-1.968,7.569-1.968,7.569l-2.077,7.544c-.365,2.123-2.55,5.721-.078,7.16-.613-.242-1.075-.81-1.219-1.466-.345-1.968.565-3.886.93-5.787,0,0,1.961-7.577,1.961-7.577.694-2.517,1.358-5.036,2.08-7.549.717-2.885,3.528-4.185,6.266-3.264h0Z" style="fill:#a7abae;"/><path d="M-16.745,74.419C2.974,60.515,23.181,46.722,44.053,34.628c0,0,4.242-2.343,4.242-2.343l-4.18,2.449C23.778,47.049,3.065,61.149-16.745,74.419h0Z" style="fill:#a7abae;"/><path d="M12.377,9.349c1.685-8.052,3.001-12.474,8.976-15.317,5.499-2.616,45.085-16.035,51.36-18.157.642-.217,1.304-.347,1.981-.385,1.58-.09,4.613-.084,7.924.854l.614,1.039s1.207-.483,2.269,1.641,3.814,10.379,4.007,10.958.434,1.979-.531,2.848c0,0-.224,2.559-1.826,3.862s-5.1,3.904-7.189,5.017" style="fill:none; stroke:#a7abae; stroke-miterlimit:10; stroke-width:1.5px;"/><path d="M25.983,8.924s.621-4.072.863-5.472,1.303-3.09,4.152-4.49c2.848-1.4,41.468-14.965,44.365-15.786s4.924-.066,5.793,2.139c.869,2.205,2.317,6.502,2.607,7.612s.531,3.283-1.497,4.345c-2.028,1.062-26.45,9.732-26.45,9.732" style="fill:none; stroke:#a7abae; stroke-miterlimit:10; stroke-width:.5px;"/><path d="M46.033-72.295l-9.971-24.704c-1.525-5.491,1.071-9.611,3.666-11.057,2.457-1.367,154.629-92.112,170.383-101.511.868-.518,1.83-.859,2.832-.997l2.763-.395s4.574-1.184,6.266,3.217c1.692,4.401,37.069,108.162,38.253,112.395,1.184,4.233.168,8.294-3.044,10.667C253.963-82.311,134.503.095,134.503.095" style="fill:none; stroke:#a7abae; stroke-miterlimit:10; stroke-width:1.5px;"/><path d="M-67.379,20.389h.005v-.005C-31.346-2.302-.42-21.796.843-22.615c3.044-1.983,4.909-6.483,3.044-11.057-.36-.888-1.86-4.401-4.036-9.488" style="fill:none; stroke:#a7abae; stroke-miterlimit:10;"/><path d="M233.859-58.272s.062,9.537,0,13.072-1.658,10.034-7.36,14.937c-5.701,4.903-81.66,58.094-81.66,58.094" style="fill:none; stroke:#a7abae; stroke-miterlimit:10;"/><path d="M141.237,16.322s84.807-59.014,87.087-60.61c2.28-1.596,5.562-5.131,5.562-5.131" style="fill:none; stroke:#a7abae; stroke-miterlimit:10;"/><path d="M176.506-8.218c.281.908.863,2.876,1.317,5.072.286,1.386.518,2.867.592,4.228,0,0-2.245.666-5.432,1.13" style="fill:none; stroke:#a7abae; stroke-miterlimit:10; stroke-width:.5px;"/><path d="M162.725,1.368c.291.908,1.826,5.787,2.033,9.685,0,0-3.064,1.248-9.187-1.638" style="fill:none; stroke:#a7abae; stroke-miterlimit:10; stroke-width:.5px;"/><path d="M147.029,14.395c6.217,2.975,9.711,1.711,9.711,1.711-.118-2.215-.666-4.751-1.169-6.69-.281-1.1-.553-2.008-.725-2.561" style="fill:none; stroke:#a7abae; stroke-miterlimit:10; stroke-width:.5px;"/><path d="M146.512,12.657c.4,1.258,1.776,5.812,1.974,9.498,0,0-1.791.735-5.378-.217" style="fill:none; stroke:#a7abae; stroke-miterlimit:10; stroke-width:.5px;"/><path d="M170.38-3.959s2.989,6.593,4.259,10.852" style="fill:none; stroke:#a7abae; stroke-miterlimit:10;"/><path d="M168.25-2.019s2.989,6.593,4.259,10.852" style="fill:none; stroke:#a7abae; stroke-miterlimit:10; stroke-width:.5px;"/><path d="M23.085,212.447c-24.393-15.044-49.428-30.793-68.014-42.723" style="fill:none; stroke:#a7abae; stroke-miterlimit:10;"/><line x1="98.558" y1="188.403" x2="161.852" y2="221.259" style="fill:none; stroke:#a7abae; stroke-miterlimit:10;"/><path d="M146.996,38.205c6.162,10.144,28.513,34.399,46.433,47.213,12.69,9.069,34.059,23.895,45.446,31.775" style="fill:none; stroke:#a7abae; stroke-miterlimit:10;"/><path d="M148.95,47.062c9.078,11.762,27.265,30.61,42.323,41.376,12.69,9.069,34.059,23.895,45.446,31.775" style="fill:none; stroke:#a7abae; stroke-miterlimit:10; stroke-width:.5px;"/><path d="M229.333,148.265c.005-.385-79.415-52.246-79.415-52.246" style="fill:none; stroke:#a7abae; stroke-miterlimit:10; stroke-width:.5px;"/><line x1="123.347" y1="106.588" x2="87.012" y2="134.745" style="fill:none; stroke:#a7abae; stroke-miterlimit:10; stroke-width:.5px;"/><line x1="90.532" y1="97.535" x2="126.204" y2="71.359" style="fill:none; stroke:#a7abae; stroke-miterlimit:10; stroke-width:.5px;"/><path d="M326.182-145.349s-3.095,54.13-3.749,66.556c-.654,12.426,7.848,43.03,34.879,56.176,27.032,13.147,53.561,24.829,53.561,24.829" style="fill:none; stroke:#a7abae; stroke-miterlimit:10;"/><path d="M166.994,227.431c7.722.596,14.643,4.304,20.333,9.405,41.086,33.685,82.285,67.518,119.682,105.331,0,0-8.106-8.004-8.106-8.004,0,0-8.257-7.847-8.257-7.847-27.715-25.883-56.804-50.504-85.891-74.8,0,0-17.58-14.492-17.58-14.492-5.603-5.139-12.502-8.926-20.179-9.593h0Z" style="fill:#a7abae;"/><path d="M229.626,144.154c-.293,4.112-.325,11.528,15.548,22.919,15.873,11.391,184.856,111.366,208.869,126.647" style="fill:none; stroke:#a7abae; stroke-miterlimit:10;"/><path d="M234.168,131.846c.049,4.061-1.31,14.412,16.884,26.228,18.194,11.815,212.4,127.355,212.4,127.355" style="fill:none; stroke:#a7abae; stroke-miterlimit:10;"/><path d="M234.837,125.173c-.585,2.875-.973,10.798,7.992,17.858,8.965,7.06,225.689,138.118,225.689,138.118" style="fill:none; stroke:#a7abae; stroke-miterlimit:10; stroke-width:.5px;"/><path d="M402.051,92.075c-6.971-4-35.277-17.965-53.244-26.706-17.967-8.741-31.79-4.707-37.282-1.569-17.034,9.301-50.317,34.292-64.774,53.392,0,0-10.422,10.821,7.957,22.7s139.802,82.498,139.802,82.498" style="fill:none; stroke:#a7abae; stroke-miterlimit:10; stroke-width:.5px;"/><path d="M330.698,84.365c1.372.537,1.651,2.362.525,3.311-11.516,9.71-63.056,53.151-64.748,54.345-1.905,1.345-3.698.335-4.595-.785s-2.353-4.706,0-8.629,30.482-30.93,57.602-47.852c0,0,4.78-2.909,11.216-.391Z" style="fill:none; stroke:#000001; stroke-miterlimit:10; stroke-width:.5px;"/><path d="M334.83,152.01c-2.087,5.104-5.444,12.818,9.555,21.112,14.999,8.294,128.117,74.819,128.117,74.819" style="fill:none; stroke:#a7abae; stroke-miterlimit:10; stroke-width:.5px;"/><path d="M367.834,118.842c8.838.775,24.158,4.999,47.978,18.234,2.043,1.135,3.865,2.629,5.384,4.406,1.198,1.401,3.158,3.231,6.141,4.823,5.793,3.09,60.382,33.123,60.382,33.123" style="fill:none; stroke:#a7abae; stroke-miterlimit:10;"/><path d="M367.899,118.095c17.242,2.302,32.909,10.645,47.913,18.981-11.366-6.031-23.102-11.599-35.506-15.117-4.122-1.13-8.318-2.041-12.537-2.369,0,0,.131-1.494.131-1.494h0Z" style="fill:#a7abae;"/><path d="M488.419,176.823s-53.384-29.37-59.177-32.46c-2.984-1.591-4.943-3.422-6.141-4.823-1.519-1.776-3.341-3.27-5.384-4.406-23.82-13.235-39.14-17.459-47.978-18.234,0,0-1.904,0-1.904,1.941" style="fill:none; stroke:#a7abae; stroke-miterlimit:10; stroke-width:.5px;"/><path d="M421.677,136.452c10.523-6.186,18.176-1.288,27.534,3.981,5.611,3.081,36.902,20.259,43.187,23.71,0,0-.244.436-.244.436-6.462-3.602-37.291-20.782-43.029-23.98-9.319-5.32-16.894-10.259-27.448-4.147h0Z" style="fill:#a7abae;"/><path d="M485.66,186.578c-12.732-7.127-44.972-25.183-57.228-32.12-3.165-1.81-6.361-3.564-9.474-5.468-2.226-1.492-3.902-4.456-2.657-7.082.372-.837.975-1.549,1.652-2.155-.674.61-1.273,1.323-1.639,2.161-1.223,2.622.454,5.556,2.676,7.03,3.116,1.882,6.327,3.62,9.501,5.411,12.166,6.793,44.812,24.829,57.412,31.787,0,0-.243.437-.243.437h0Z" style="fill:#a7abae;"/><path d="M478.593,290.414c-1.769-3.284-4.726-9.903,0-27.555,4.726-17.653,24.384-76.495,27.594-84.585,3.21-8.091,11.635-12.705,26.078-5.483,14.443,7.222,30.202,16.205,35.706,19.618,7.943,4.925,14.042,12.277,10.632,24.513-3.41,12.236-26.031,96.929-27.281,102.305-1.495,6.429-2.986,13.268,1.281,15.169" style="fill:none; stroke:#a7abae; stroke-miterlimit:10; stroke-width:.5px;"/><path d="M479.067-30.674c10.648,4.057,20.925,9.161,30.462,15.436l27.999,19.637c18.533,13.264,37.158,26.471,54.627,41.131-4.421-3.597-8.895-7.127-13.442-10.562-13.576-10.39-27.501-20.313-41.473-30.162,0,0-27.895-19.768-27.895-19.768-9.499-6.277-19.704-11.491-30.278-15.712h0Z" style="fill:#a7abae;"/><path d="M473.808,269.187s-114.135-67.047-122.667-72.954c-4.781-3.31-9.493-6.757-12.828-10.226" style="fill:none; stroke:#a7abae; stroke-miterlimit:10; stroke-width:1.5px;"/><path d="M260.053,143.093c-3.864-1.931-4.785-6.743-1.983-11.247s33.059-33.417,60.627-49.779c0,0,6.5-4.146,14.905,0,8.405,4.146,45.405,25.497,45.405,25.497" style="fill:none; stroke:#000001; stroke-miterlimit:10; stroke-width:1.5px;"/><path d="M338.314,186.007c-2.617-2.722-4.385-5.457-4.674-8.15-.656-6.125-1.313-10.938-1.531-13.782-.219-2.844-.219-7.876,4.157-14.438,4.375-6.563,25.158-26.908,28.002-29.971,0,0,.738-.754,3.566-.823,0,0-.69-1.449,1.38-3.38s21.524-17.729,32.837-23.386c11.314-5.657,24.007-7.037,39.667.414,15.66,7.451,71.349,36.649,71.349,36.649" style="fill:none; stroke:#a7abae; stroke-miterlimit:10; stroke-width:1.5px;"/><path d="M282.119,156.496c41.666,24.762,112.39,65.894,112.39,65.894" style="fill:none; stroke:#a7abae; stroke-miterlimit:10; stroke-width:1.5px;"/><path d="M280.266,85.162c-11.966,9.729-23.773,20.013-33.175,32.288-4.29,5.039-3.279,11.674,1.158,16.255,0,0,1.24,1.331,1.24,1.331l1.39,1.191c.772.738,2.034,1.598,2.926,2.209.853.659,2.194,1.426,3.144,1.964,8.635,4.964,17.052,10.268,25.53,15.49,0,0-.72,1.212-.72,1.212-8.564-5.101-17.192-10.12-25.597-15.477-8.801-5.256-17.807-14.755-9.751-24.69,9.689-12.178,21.666-22.226,33.855-31.773h0Z" style="fill:#a7abae;"/></g><polygon points="256.997 192.047 276.698 175.963 285.529 181.576 282.907 160.169 253.094 160.96 261.924 166.573 242.223 182.656 256.997 192.047" style="fill:#f2a900; stroke:#fff; stroke-miterlimit:10; stroke-width:1.5px;"/><path d="M283,141.319c-.28-.382-.531-.776-.742-1.184h-.004s-6.813-3.877-6.813-3.877c-2.192-1.3-3.594-3.06-3.752-4.713-.174-1.797,1.013-3.896,3.172-5.608,2.413-1.917,5.768-3.2,9.447-3.61,3.438-.383,6.847.027,9.667,1.134,3.689-.729,7.627-.587,11.121.459v-.004c.122-.077.246-.15.375-.205.606-.276,1.204-.248,1.722.013l-9.295-5.294c-8.077-4.758-20.088-3.964-27.363,1.81-4.146,3.291-6.266,7.896-5.814,12.632.441,4.596,3.253,8.747,7.719,11.387l.054.035,9.707,5.525.033-.095c-.775-.468-1.366-1.464-1.546-2.802-.272-2.018.48-4.145,1.731-5.143l.581-.46h0Z" style="fill:#d3d5d6;"/><path d="M283,141.321l-.581.46c-1.251.998-2.003,3.125-1.731,5.143.18,1.338.771,2.334,1.546,2.802l-.033.094,11.417,6.497.145.088,5.107,2.905c4.378,2.577,9.91,3.527,15.219,2.935,4.484-.5,8.813-2.099,12.144-4.746.264-.211.521-.426.769-.649,3.637-3.23,5.467-7.549,5.046-11.983-.441-4.596-3.253-8.747-7.719-11.387l-.053-.035-16.941-9.642c-.045-.027-.091-.053-.14-.08-.519-.26-1.116-.289-1.722-.013-.13.055-.253.128-.376.205v.005c1.412.419,2.748.988,3.968,1.71l13.208,7.814c.202.118.398.242.59.366.38.248.738.508,1.075.779.171.136.333.272.493.413,1.889,1.674,2.984,3.668,3.263,5.74l.157,1.163c.416,3.087-.983,6.344-4.26,8.944-6.202,4.924-16.778,5.635-23.622,1.584l-13.204-7.81c-1.601-.948-2.86-2.074-3.764-3.304Z" style="fill:#d3d5d6;"/><path d="M286.607,143.454c-3.23-1.911-5.053-4.536-5.425-7.297l.156,1.159c.13.962.436,1.909.92,2.813.211.408.462.802.742,1.185.904,1.23,2.163,2.356,3.764,3.304l13.204,7.81c6.844,4.051,17.42,3.34,23.622-1.584,3.277-2.599,4.676-5.857,4.26-8.944l-.157-1.163c.417,3.091-.983,6.345-4.26,8.944-6.202,4.923-16.778,5.635-23.621,1.588l-13.205-7.815Z" style="fill:#d3d5d6;"/><path d="M287.838,126.362c-4.827,3.83-4.419,9.511.907,12.664l13.209,7.814c5.326,3.148,13.59,2.595,18.417-1.235,4.827-3.835,4.423-9.516-.908-12.668l-13.208-7.81c-3.403-2.014-8.008-2.518-12.145-1.616-2.34.511-4.529,1.467-6.272,2.851Z" style="fill:#d3d5d6;"/><path d="M294.112,123.505c4.137-.902,8.742-.398,12.145,1.616l13.208,7.81c5.33,3.152,5.734,8.833.908,12.668-4.827,3.83-13.091,4.384-18.417,1.235l-13.209-7.814c-5.326-3.153-5.734-8.833-.907-12.664,1.743-1.384,3.932-2.341,6.272-2.852ZM305.097,123.915c-3.494-1.045-7.433-1.187-11.121-.459-1.506.291-2.969.73-4.345,1.306-.875.37-1.708.794-2.496,1.273-.197.122-.393.244-.586.37-.381.256-.752.524-1.106.805-.104.08-.203.164-.302.247-.397.33-.762.671-1.096,1.017-.087.091-.166.178-.246.264-.321.354-.615.714-.878,1.079-.067.094-.131.183-.191.275-.063.093-.123.186-.183.279-1.173,1.861-1.623,3.855-1.363,5.788.372,2.76,2.195,5.386,5.424,7.297l13.205,7.815c6.844,4.046,17.419,3.335,23.622-1.589,3.277-2.599,4.676-5.852,4.26-8.944-.279-2.072-1.374-4.065-3.262-5.74-.159-.136-.323-.277-.494-.413-.336-.267-.695-.527-1.075-.779-.192-.124-.387-.247-.59-.366l-13.209-7.814c-1.22-.722-2.556-1.291-3.968-1.71Z" style="fill:#d3d5d6;"/><path d="M314.085,162.238c4.488-.5,8.813-2.1,12.147-4.746,4.146-3.291,6.264-7.896,5.812-12.633-.439-4.596-3.252-8.746-7.717-11.387l-.055-.032-26.376-15.018c-8.075-4.757-20.087-3.964-27.363,1.812-4.146,3.291-6.264,7.896-5.812,12.633.439,4.596,3.252,8.746,7.717,11.388l.055.032,26.376,15.018c4.376,2.578,9.909,3.525,15.215,2.933Z" style="fill:none; stroke:#000001; stroke-linecap:round; stroke-linejoin:round; stroke-width:1.5px;"/><path d="M293.715,123.358c-2.77-1.028-6.073-1.402-9.41-1.03-3.676.41-7.03,1.691-9.445,3.608-2.159,1.714-3.346,3.81-3.174,5.607.158,1.652,1.561,3.413,3.753,4.712l6.607,3.762" style="fill:none; stroke:#000001; stroke-linecap:round; stroke-linejoin:round; stroke-width:1.5px;"/><path d="M282.995,141.315l-.579.462c-1.251.996-2.003,3.124-1.731,5.142.18,1.338.771,2.336,1.545,2.804" style="fill:none; stroke:#000001; stroke-linecap:round; stroke-linejoin:round;"/><path d="M307.333,123.798c-.553-.334-1.203-.389-1.861-.092-.13.059-.255.128-.377.209" style="fill:none; stroke:#000001; stroke-linecap:round; stroke-linejoin:round;"/><path d="M287.839,126.359c-4.828,3.833-4.421,9.514.907,12.665l13.208,7.812c5.328,3.151,13.59,2.597,18.418-1.236,4.828-3.833,4.422-9.514-.906-12.665l-13.209-7.812c-5.327-3.151-13.59-2.597-18.418,1.236Z" style="fill:none; stroke:#000001; stroke-miterlimit:10; stroke-width:.5px;"/><path d="M281.18,136.16l.156,1.159c.372,2.76,2.196,5.391,5.425,7.301l13.204,7.81c6.845,4.05,17.42,3.339,23.622-1.584,3.277-2.599,4.676-5.857,4.26-8.944l-.157-1.163c-.372-2.76-2.192-5.391-5.421-7.297l-13.208-7.814c-6.844-4.046-17.42-3.339-23.622,1.584-3.277,2.599-4.676,5.857-4.259,8.949h0Z" style="fill:none; stroke:#000001; stroke-miterlimit:10; stroke-width:1.5px;"/><path d="M281.06,145.158l13.262,7.577c1.987,1.086,4.673,2.776,6.702,3.617,9.202,3.772,19.82,1.311,27.002-5.432,1.672-1.742,3.596-4.044,3.276-6.999.127,2.914-1.751,5.074-3.405,6.82-7.131,6.679-17.685,9.117-26.811,5.362-2.007-.833-4.717-2.535-6.674-3.613l-13.278-7.535c-.049-.028-.104-.005-.124.051-.02.055.002.122.051.15Z" style="fill:#212121;"/><path d="M265.31,132.78c.48,3.498,3.951,5.628,6.648,7.21,2.035,1.17,6.142,3.504,8.185,4.649.109.064.189-.136.073-.201-2.034-1.176-6.134-3.517-8.177-4.668-2.713-1.546-5.961-3.611-6.729-6.989h0Z" style="fill:#212121;"/><path d="M293.001,129.052c.154-.138.435-.158.626-.046l10.328,6.083,5.864-5.259c.154-.138.434-.158.625-.046s.222.317.068.455l-5.864,5.259,10.186,6c.191.113.222.317.068.455-.154.138-.434.159-.625.046l-10.186-6-5.976,5.359c-.154.138-.435.158-.626.046s-.222-.317-.068-.455l5.976-5.359-10.328-6.083c-.191-.113-.222-.317-.068-.455Z" style="fill:none; stroke:#000001; stroke-miterlimit:10; stroke-width:.5px;"/><path d="M315.838,135.52l-1.251,1.303-.01.009-.144,1.33c-.002.014-.01.028-.024.04l-.753.675.37.218.753-.675c.073-.066.117-.144.126-.229l.124-1.145,1.612-.118c.135-.009.214-.056.255-.093.066-.06.09-.136.075-.226l-.009-.05-1.66.123.935-.971c.156-.178.099-.424-.133-.561l-.941-.554-.565.287c-.465-.274-1.144-.225-1.516.109-.358.321-.304.79.115,1.07l-1.712,1.536.37.218,1.762-1.58c.42.091.873-.008,1.147-.254.262-.235.311-.554.13-.827l.252-.129.663.391c.048.028.055.077.033.103h0ZM314.39,135.765c-.21.188-.59.216-.849.063-.261-.154-.302-.43-.092-.618.208-.187.588-.214.849-.061.259.152.3.429.092.615Z" style="fill:#000001;"/><path d="M311.16,135.362c-.142-.083-.184-.19-.212-.297l-.069-.276-.215.193c-.029.026-.082.03-.119.009l-.13-.077c-.036-.021-.042-.06-.013-.086l.476-.427c.029-.026.082-.03.119-.009l.112.066c.016.009.027.023.03.037l.106.443c.022.096.041.161.128.211.055.033.115.037.157-.001.038-.034.042-.069.004-.103-.025-.023-.024-.054,0-.076l.122-.109c.015-.014.038-.022.063-.022s.048.007.065.02c.167.129.167.304.005.449-.19.171-.427.175-.629.057h0Z" style="fill:#000001;"/><path d="M309.649,135.646c-.03-.003-.055-.018-.066-.039s-.006-.043.013-.06l.124-.111c.019-.017.05-.025.081-.022l.267.036-.104-.183c-.012-.021-.007-.044.012-.062l.124-.111c.019-.017.049-.025.079-.022.03.003.055.018.066.039l.17.321.457.054c.03.003.055.018.066.039s.006.043-.013.06l-.123.11c-.019.017-.049.026-.08.022l-.253-.032.096.174c.011.02.006.044-.013.061l-.123.11c-.019.017-.049.025-.079.022-.03-.003-.055-.018-.066-.039l-.167-.314-.468-.054Z" style="fill:#000001;"/><path d="M305.127,140.769c-.142-.083-.184-.19-.212-.297l-.069-.276-.215.193c-.029.026-.082.03-.119.009l-.13-.077c-.036-.021-.042-.06-.013-.086l.476-.427c.029-.026.082-.03.119-.009l.112.066c.016.009.027.023.03.038l.106.443c.022.096.041.161.128.211.055.033.115.037.157,0,.038-.034.042-.069.004-.104-.024-.023-.024-.054,0-.076l.122-.109c.015-.014.038-.022.063-.022s.048.007.065.019c.167.129.167.304.005.449-.19.171-.427.175-.629.057h0Z" style="fill:#000001;"/><path d="M303.618,141.055c-.03-.003-.055-.018-.066-.039-.011-.02-.006-.043.013-.06l.124-.111c.019-.017.05-.025.081-.022l.267.036-.104-.183c-.012-.021-.007-.044.012-.062l.124-.111c.019-.017.049-.025.079-.022.03.003.055.018.066.039l.17.321.457.054c.03.003.055.018.066.039.011.02.006.043-.013.06l-.123.11c-.019.017-.049.025-.08.022l-.253-.032.096.174c.011.02.006.044-.013.061l-.123.11c-.019.017-.049.025-.079.022s-.055-.018-.066-.039l-.168-.314-.468-.054Z" style="fill:#000001;"/><path d="M303.68,130.397c.722-.647.59-1.613-.294-2.134l-.028-.017-.491-.289-2.035-1.198c-.505-.298-1.253-.252-1.671.122l-1.151,1.032c-.406.364-.338.907.182,1.213l2.035,1.198.491.289.028.017c.898.529,2.201.424,2.934-.233ZM299.616,128.371c-.168-.099-.196-.283-.061-.404s.389-.14.557-.041l.884.521c.168.099.196.283.061.404-.135.121-.389.14-.557.041l-.884-.521ZM301.114,130.259l1.85-1.659.028.017c.603.355.705,1.035.198,1.491-.496.445-1.444.523-2.048.168l-.028-.017Z" style="fill:#000001;"/><path d="M294.784,137.59l.063-.056c.397-.356.303-.891-.21-1.193l-.453-.267,2.049-1.837-2.564-1.51c-.289-.17-.731-.138-.965.071l-1.487,1.334c-.232.209-.184.529.105.7l3.018,1.778c.308.182.369.498.137.706l-.063.056c-.232.209-.672.231-.98.05l-.456-.269-.298.268.456.269c.511.301,1.251.256,1.649-.1ZM292.873,134.335c-.156-.092-.183-.268-.058-.38.126-.113.367-.131.524-.038l.802.472c.156.092.183.268.057.38-.125.112-.366.13-.523.038l-.801-.472Z" style="fill:#000001;"/><path d="M316.53,143.943c-.18-.106-.208-.296-.064-.426l.545-.489c.144-.129.407-.148.587-.043s.208.296.064.426l-.545.489c-.144.129-.407.148-.587.043Z" style="fill:#000001;"/><path d="M306.569,143.529c.133.123.302.243.511.366.243.144.5.162.592.167.115,0,.213-.033.279-.092l1.765-1.583.592.273c.144.072.348.047.46-.054l.568-.509-.37-.218-.509.456-.853-.398-1.978,1.774c-.093-.011-.174-.038-.25-.082-.333-.196-.473-.328-.53-.4l.293-.541c.4.074.832-.029,1.094-.264.271-.243.308-.587.102-.867l.825-.74-.37-.218-.771.691c-.458-.236-1.097-.179-1.453.141-.37.332-.297.822.16,1.094l-.325.605-1.041.934c-.079.07-.09.136-.093.199.017.111.132.179.169.201l.054.032,1.078-.967h0ZM306.922,141.65c.206-.185.587-.213.843-.062.259.152.298.427.092.612-.208.187-.585.214-.843.062-.256-.151-.299-.426-.092-.612Z" style="fill:#000001;"/></svg>