<?xml version="1.0" encoding="UTF-8"?><svg xmlns="http://www.w3.org/2000/svg" width="161.749" height="161.749" viewBox="0 0 161.749 161.749"><g id="uuid-c2447aed-3dd1-4d3f-bf54-897cc6e7cb33"><g id="uuid-a92865df-f0a0-46e5-b7e7-ad3ce8003afb"><path d="M70.432,135.446c-3.898-3.897-6.309-9.273-6.309-15.2v-14.443c2.626,2.37,5.644,4.316,8.942,5.726,3.868,1.654,8.119,2.57,12.573,2.57s8.701-.915,12.566-2.568c3.298-1.41,6.315-3.356,8.942-5.727v14.443c0,5.927-2.411,11.304-6.308,15.201s-9.273,6.308-15.201,6.308-11.308-2.411-15.206-6.308ZM60.309,145.575c6.487,6.487,15.447,10.507,25.329,10.507s18.842-4.02,25.329-10.507c6.487-6.487,10.507-15.447,10.507-25.329V43.158c0-9.882-4.02-18.842-10.507-25.329-6.487-6.487-15.447-10.507-25.329-10.507-9.882,0-18.842,4.02-25.329,10.507s-10.507,15.447-10.507,25.329v77.088c0,9.882,4.02,18.842,10.507,25.329Z" style="fill:none; stroke:#000001; stroke-linecap:round; stroke-linejoin:round; stroke-width:.5px;"/><path d="M70.255,135.623c-3.942-3.942-6.382-9.381-6.382-15.377v-15.012c2.702,2.526,5.842,4.591,9.29,6.065,3.837,1.641,8.056,2.55,12.475,2.55s8.633-.908,12.468-2.548c3.448-1.474,6.588-3.54,9.291-6.067v15.012c0,5.997-2.44,11.436-6.382,15.377s-9.381,6.382-15.377,6.382-11.44-2.44-15.382-6.382ZM60.486,145.398c6.442,6.442,15.339,10.433,25.152,10.433s18.71-3.991,25.152-10.433,10.433-15.339,10.433-25.152V43.158c0-9.813-3.991-18.71-10.433-25.152-6.442-6.442-15.339-10.433-25.152-10.433s-18.71,3.991-25.152,10.433-10.433,15.339-10.433,25.152v77.088c0,9.813,3.991,18.71,10.433,25.152Z" style="fill:none; stroke:#000001; stroke-linecap:round; stroke-linejoin:round; stroke-width:.5px;"/><path d="M70.079,135.8c-3.987-3.987-6.455-9.488-6.455-15.554v-15.595c2.774,2.689,6.037,4.879,9.638,6.418,3.807,1.628,7.992,2.529,12.377,2.529s8.565-.901,12.37-2.528c3.602-1.54,6.864-3.73,9.639-6.42v15.595c0,6.066-2.468,11.568-6.455,15.554s-9.488,6.455-15.554,6.455-11.572-2.468-15.559-6.455ZM60.663,145.221c6.397,6.397,15.232,10.36,24.975,10.36s18.578-3.963,24.975-10.36c6.397-6.397,10.36-15.232,10.36-24.975V43.158c0-9.744-3.963-18.578-10.36-24.975-6.397-6.397-15.232-10.36-24.975-10.36s-18.578,3.963-24.975,10.36-10.36,15.232-10.36,24.975v77.088c0,9.744,3.963,18.578,10.36,24.975Z" style="fill:none; stroke:#000001; stroke-linecap:round; stroke-linejoin:round; stroke-width:.5px;"/><path d="M69.902,135.977c-4.032-4.031-6.529-9.596-6.529-15.731v-16.194c2.842,2.86,6.228,5.18,9.986,6.787,3.777,1.615,7.928,2.509,12.278,2.509s8.497-.894,12.272-2.508,7.144-3.927,9.987-6.788v16.194c0,6.135-2.497,11.699-6.528,15.731s-9.596,6.528-15.731,6.528-11.704-2.497-15.736-6.528ZM60.839,145.044c6.352,6.352,15.124,10.287,24.798,10.287s18.446-3.935,24.798-10.287c6.352-6.352,10.287-15.124,10.287-24.798V43.158c0-9.674-3.935-18.446-10.287-24.798-6.352-6.352-15.124-10.287-24.798-10.287s-18.446,3.935-24.798,10.287c-6.352,6.352-10.287,15.124-10.287,24.798v77.088c0,9.674,3.935,18.446,10.287,24.798Z" style="fill:none; stroke:#000001; stroke-linecap:round; stroke-linejoin:round; stroke-width:.5px;"/></g><path d="M120.473,43.158v77.088c0,19.21-15.625,34.835-34.835,34.835s-34.835-15.625-34.835-34.835V43.158c0-19.21,15.625-34.835,34.835-34.835s34.835,15.625,34.835,34.835ZM108.147,103.438c-5.683,5.947-13.68,9.661-22.509,9.661s-16.832-3.714-22.515-9.661v16.808c0,12.409,10.1,22.509,22.515,22.509s22.509-10.1,22.509-22.509v-16.808Z" style="fill:none; stroke:#000001; stroke-linecap:round; stroke-linejoin:round; stroke-width:.5px;"/><path d="M116.841,81.896c0,17.162-14.041,31.203-31.203,31.203s-31.203-14.041-31.203-31.203v-38.069c0-17.162,14.041-31.203,31.203-31.203s31.203,14.041,31.203,31.203v38.069Z" style="fill:#d3d5d6; stroke:#000001; stroke-linecap:round; stroke-linejoin:round;"/><path d="M85.638,106.445c-13.536,0-24.549-11.013-24.549-24.549v-38.069c0-13.536,11.013-24.549,24.549-24.549s24.549,11.013,24.549,24.549v38.069c0,13.536-11.013,24.549-24.549,24.549Z" style="fill:none; stroke:#000001; stroke-linecap:round; stroke-linejoin:round; stroke-width:.5px;"/><line x1="57.132" y1="94.549" x2="50.802" y2="94.549" style="fill:none; stroke:#000001; stroke-linecap:round; stroke-linejoin:round; stroke-width:.5px;"/><line x1="120.473" y1="94.549" x2="114.145" y2="94.549" style="fill:none; stroke:#000001; stroke-linecap:round; stroke-linejoin:round; stroke-width:.5px;"/><line x1="85.638" y1="35.061" x2="85.638" y2="91.001" style="fill:none; stroke:#000001; stroke-linecap:round; stroke-linejoin:round; stroke-width:.5px;"/><line x1="65.853" y1="62.862" x2="105.422" y2="62.862" style="fill:none; stroke:#000001; stroke-linecap:round; stroke-linejoin:round; stroke-width:.5px;"/><path d="M69.911,43.833l4.605-.328h.035l3.193-2.179c.035-.023.076-.035.123-.035h2.525v-.996h-2.525c-.246,0-.48.07-.685.211l-2.748,1.875-2.408-2.408c-.199-.205-.41-.246-.551-.246-.223,0-.428.1-.609.287l-.1.105,2.484,2.478-3.433.24c-.609.07-1.09.609-1.09,1.236v2.537l1.4.398c0,1.254,1.014,2.267,2.261,2.267,1.201,0,2.185-.937,2.261-2.127h5.741v-.996h-5.905c-.352-.849-1.178-1.406-2.097-1.406-.879,0-1.664.498-2.039,1.289l-.627-.176v-1.787c0-.129.1-.228.187-.24ZM72.389,45.743c.703,0,1.271.568,1.271,1.265,0,.703-.568,1.271-1.271,1.271-.697,0-1.265-.568-1.265-1.271,0-.697.568-1.265,1.265-1.265Z" style="fill:#000001;"/><path d="M75.774,51.73c0,.381-.184.644-.39.885l-.53.613h.721c.098,0,.177.079.177.177v.351c0,.098-.079.177-.177.177h-1.594c-.098,0-.177-.079-.177-.177v-.303c0-.043.016-.085.044-.117l.858-.975c.188-.21.307-.359.307-.591,0-.149-.07-.254-.211-.254-.127,0-.21.056-.239.182-.018.081-.09.138-.173.138h-.409c-.051,0-.1-.022-.134-.061s-.049-.09-.042-.141c.07-.506.465-.823,1.006-.823.639,0,.963.377.963.92Z" style="fill:#000001;"/><path d="M78.424,53.667c.032.055.032.123,0,.178s-.09.089-.154.089h-.415c-.065,0-.125-.035-.156-.092l-.273-.499-.274.499c-.031.057-.091.092-.156.092h-.415c-.063,0-.122-.034-.154-.089s-.032-.123,0-.178l.498-.86-.486-.842c-.032-.055-.032-.123,0-.177s.09-.089.154-.089h.413c.064,0,.123.035.155.09l.264.47.264-.47c.031-.056.091-.09.155-.09h.412c.063,0,.122.034.154.089s.032.122,0,.177l-.486.842.498.86Z" style="fill:#000001;"/><path d="M94.85,51.73c0,.381-.184.644-.39.885l-.53.613h.721c.098,0,.177.079.177.177v.351c0,.098-.079.177-.177.177h-1.594c-.098,0-.177-.079-.177-.177v-.303c0-.043.016-.085.044-.117l.858-.975c.188-.21.307-.359.307-.591,0-.149-.07-.254-.211-.254-.127,0-.21.056-.239.182-.018.081-.09.138-.173.138h-.409c-.051,0-.1-.022-.134-.061s-.049-.09-.042-.141c.07-.506.465-.823,1.006-.823.639,0,.963.377.963.92Z" style="fill:#000001;"/><path d="M97.5,53.667c.032.055.032.123,0,.178s-.09.089-.154.089h-.415c-.065,0-.125-.035-.156-.092l-.273-.499-.274.499c-.031.057-.091.092-.156.092h-.415c-.063,0-.122-.034-.154-.089s-.032-.123,0-.178l.498-.86-.486-.842c-.032-.055-.032-.123,0-.177s.09-.089.154-.089h.413c.064,0,.123.035.155.09l.264.47.264-.47c.031-.056.091-.09.155-.09h.412c.063,0,.122.034.154.089s.032.122,0,.177l-.486.842.498.86Z" style="fill:#000001;"/><path d="M99.851,40.466l3.86-.429c-.029-.264-.162-.505-.369-.671s-.472-.242-.735-.213l-3.351.372-.474.768h-8.383v1h8.348c.715,2.068.484,3.672.257,4.269l-1.733.546c-.35-.802-1.148-1.365-2.077-1.365-.945,0-1.755.582-2.095,1.405h-2.7v1h2.542c.073,1.185,1.05,2.129,2.253,2.129,1.218,0,2.207-.968,2.258-2.173l2.043-.648c.116-.037.173-.055.236-.159.016-.018.053-.063.066-.083.371-.562.815-2.681-.165-5.393l.22-.356ZM95.194,48.278c-.699,0-1.267-.568-1.267-1.267s.568-1.267,1.267-1.267,1.267.568,1.267,1.267-.568,1.267-1.267,1.267Z" style="fill:#000001;"/><path d="M75.207,72.79c-2.134,0-3.901,1.734-3.901,3.835v6.069c0,1.2.967,2.201,2.201,2.201h3.401c1.2,0,2.201-.967,2.201-2.201v-6.069c0-2.134-1.734-3.835-3.901-3.835ZM75.94,81.86c0,.4-.333.734-.734.734s-.734-.333-.734-.734v-2.101c0-.4.333-.734.734-.734s.734.333.734.734v2.101ZM77.941,76.691h-5.468v-.067c0-1.434,1.234-2.668,2.734-2.668,1.467,0,2.734,1.234,2.734,2.668v.067Z" style="fill:#000001;"/><path d="M102.111,72.996h-.207c-1.304,0-2.364,1.1-2.364,2.454v1.197h-6.729v6.769c0,.764.647,1.41,1.414,1.41h4.885c.764,0,1.41-.647,1.41-1.41v-7.969c0-.814.62-1.474,1.384-1.474h.207c.764,0,1.387.66,1.387,1.474v1.204h.98v-1.204c0-1.35-1.064-2.451-2.367-2.451ZM97.403,81.825c0,.413-.353.767-.764.767-.413,0-.767-.353-.767-.767v-2.117c0-.413.353-.767.767-.767.41,0,.764.353.764.767v2.117Z" style="fill:#000001;"/></g><g id="uuid-d53cb0c7-1d5a-41ea-a465-56c155092b9c"><line x1="25.644" y1="27.61" x2="80.392" y2="27.943" style="fill:none; stroke:#fff; stroke-width:3px;"/><line x1="25.644" y1="27.61" x2="80.392" y2="27.943" style="fill:none; stroke:#fff; stroke-width:3px;"/><line x1="25.644" y1="27.61" x2="80.392" y2="27.943" style="fill:none; stroke:#fff; stroke-width:3px;"/><path d="M25.135,26.214c-.143.097-.328.204-.553.323l-.59-.955c.344-.188.652-.385.928-.594.273-.209.527-.441.758-.698h1.301v6.721h-1.328v-5.194c-.201.168-.371.301-.516.397Z" style="fill:none; stroke:#fff; stroke-width:3px;"/><circle cx="25.666" cy="27.47" r="5.958" style="fill:none; stroke:#fff; stroke-width:3px;"/><path d="M25.995,23.138h-.658c-2.393,0-4.332,1.94-4.332,4.332s1.94,4.332,4.332,4.332h.658c2.393,0,4.332-1.94,4.332-4.332s-1.94-4.332-4.332-4.332Z" style="fill:none; stroke:#fff; stroke-width:3px;"/><path d="M25.135,26.214c-.143.097-.328.204-.553.323l-.59-.955c.344-.188.652-.385.928-.594.273-.209.527-.441.758-.698h1.301v6.721h-1.328v-5.194c-.201.168-.371.301-.516.397Z" style="fill:none; stroke:#fff; stroke-width:3px;"/><line x1="25.644" y1="27.61" x2="80.392" y2="27.943" style="fill:none; stroke:#fff; stroke-linecap:round; stroke-miterlimit:10; stroke-width:3px;"/><line x1="25.644" y1="27.61" x2="80.392" y2="27.943" style="fill:none; stroke:#000001; stroke-linecap:round; stroke-miterlimit:10;"/><circle cx="25.666" cy="27.47" r="5.958" style="fill:#000001;"/><path d="M25.995,23.138h-.658c-2.393,0-4.332,1.94-4.332,4.332s1.94,4.332,4.332,4.332h.658c2.393,0,4.332-1.94,4.332-4.332s-1.94-4.332-4.332-4.332Z" style="fill:#000001;"/><path d="M25.135,26.214c-.143.097-.328.204-.553.323l-.59-.955c.344-.188.652-.385.928-.594.273-.209.527-.441.758-.698h1.301v6.721h-1.328v-5.194c-.201.168-.371.301-.516.397Z" style="fill:#fff;"/><rect x="48.426" y="70.105" width="1.813" height="21.133" style="fill:none; stroke:#000001; stroke-linecap:round; stroke-linejoin:round;"/><path d="M88.274,28.305c0,.706-.572,1.278-1.278,1.278h-2.667c-.706,0-1.278-.572-1.278-1.278s.572-1.278,1.278-1.278h2.667c.706,0,1.278.572,1.278,1.278Z" style="fill:none; stroke:#000001; stroke-miterlimit:10;"/></g></svg>