<?xml version="1.0" encoding="UTF-8"?><svg xmlns="http://www.w3.org/2000/svg" width="325" height="297.634" viewBox="0 0 325 297.634"><g id="uuid-67c32463-2cf5-4ccb-9ce4-5ffe4af6c570"><path d="M-30.739,265.255s62.662-32.275,78.933-40.544,98.567-63.986,118.165-180.848c7.202-42.945,10.669-65.351,10.669-65.351" style="fill:none; stroke:#a7abae; stroke-miterlimit:10;"/><path d="M134.201,134.773c-25.992,10.45-61.478,23.787-75.076,27.788s-22.134,7.735-32.804,4.535-23.74-6.935-33.609-7.202-32.809-2.307-46.412-8.356" style="fill:none; stroke:#a7abae; stroke-miterlimit:10;"/><path d="M-28.626,313.916s81.888-41.46,111.496-56.397c29.608-14.937,100.885-84.726,118.165-193.118,5.868-36.81,12.803-82.422,12.803-82.422" style="fill:none; stroke:#a7abae; stroke-miterlimit:10;"/><path d="M-33.912,307.738s81.888-41.46,111.496-56.397c29.608-14.937,100.885-84.726,118.165-193.118,5.868-36.81,12.803-82.422,12.803-82.422" style="fill:none; stroke:#a7abae; stroke-miterlimit:10; stroke-width:.5px;"/><path d="M-33.912,299.222s80.241-40.625,109.253-55.262c29.012-14.637,98.855-83.022,115.787-189.233,5.75-36.069,12.546-80.764,12.546-80.764" style="fill:none; stroke:#a7abae; stroke-miterlimit:10; stroke-width:.5px;"/><path d="M45.972,225.842c9.495,1.699,20.184,7.612,29.509,13.184,0,0,1.353,1.413,1.927,3.834" style="fill:none; stroke:#a7abae; stroke-miterlimit:10; stroke-width:.5px;"/><path d="M-29.819,287.014s85.714-44.542,87.874-45.679,2.887-2.439.938-3.738c-2.515-1.676-11.828-5.735-13.022-6.076s-2.63-.569-5.721.91-82.692,42.416-82.692,42.416" style="fill:none; stroke:#a7abae; stroke-miterlimit:10; stroke-width:.5px;"/><path d="M29.333,313.916s52.96-27.64,78.503-39.826c25.543-12.186,59.991-52.492,79.206-90.689s41.947-105.218,50.617-119.044c8.671-13.826,23.2-30.698,29.995-74.754" style="fill:none; stroke:#a7abae; stroke-miterlimit:10; stroke-width:.5px;"/><path d="M190.24,109.566c17.893-37.71,27.032-69.578,33.594-115.743" style="fill:none; stroke:#a7abae; stroke-miterlimit:10; stroke-width:.5px;"/><path d="M305.852-8.287s-5.155,113.888-4.921,115.295-13.357,24.606-14.06,72.411v78.035l-117.404,60.694" style="fill:none; stroke:#a7abae; stroke-miterlimit:10;"/><line x1="286.871" y1="253.223" x2="169.467" y2="313.916" style="fill:none; stroke:#a7abae; stroke-miterlimit:10; stroke-width:.5px;"/><path d="M281.005,260.485v6.341s2.819,2.109,6.569,0,168.724-86.471,168.724-86.471" style="fill:none; stroke:#a7abae; stroke-miterlimit:10;"/><path d="M284.286,267.759s4.928-16.399,11.489-20.852c0,0,3.515-21.559,3.515-33.745l-4.687-18.044-7.733-7.733,4.918-7.03s-.231-43.39,14.064-70.789l5.858-124.355" style="fill:none; stroke:#a7abae; stroke-miterlimit:10; stroke-width:.5px;"/><line x1="305.949" y1="109.514" x2="361.018" y2="80.007" style="fill:none; stroke:#a7abae; stroke-miterlimit:10; stroke-width:.5px;"/><line x1="286.871" y1="187.385" x2="364.671" y2="147.948" style="fill:none; stroke:#a7abae; stroke-miterlimit:10; stroke-width:.5px;"/><line x1="294.604" y1="195.119" x2="368.651" y2="157.39" style="fill:none; stroke:#a7abae; stroke-miterlimit:10; stroke-width:.5px;"/><line x1="299.291" y1="213.163" x2="371.701" y2="176.254" style="fill:none; stroke:#a7abae; stroke-miterlimit:10; stroke-width:.5px;"/><line x1="295.775" y1="246.907" x2="371.701" y2="208.242" style="fill:none; stroke:#a7abae; stroke-miterlimit:10; stroke-width:.5px;"/><line x1="286.871" y1="239.927" x2="142.843" y2="314.384" style="fill:none; stroke:#a7abae; stroke-miterlimit:10; stroke-width:.5px;"/><line x1="286.871" y1="220.662" x2="105.961" y2="314.384" style="fill:none; stroke:#a7abae; stroke-miterlimit:10; stroke-width:.5px;"/><line x1="286.871" y1="213.163" x2="81.121" y2="318.146" style="fill:none; stroke:#a7abae; stroke-miterlimit:10; stroke-width:.5px;"/><line x1="286.871" y1="204.727" x2="73.144" y2="314.384" style="fill:none; stroke:#a7abae; stroke-miterlimit:10; stroke-width:.5px;"/><ellipse cx="185.784" cy="218.55" rx="9.405" ry="5.667" transform="translate(-85.82 310.805) rotate(-68.394)" style="fill:none; stroke:#a7abae; stroke-miterlimit:10; stroke-width:.5px;"/><path d="M184.521,210.884c.334,1.96.058,4.392-.899,6.812s-2.421,4.38-4,5.579" style="fill:none; stroke:#a7abae; stroke-miterlimit:10; stroke-width:.5px;"/><ellipse cx="185.231" cy="218.331" rx="12.269" ry="7.393" transform="translate(-85.966 310.153) rotate(-68.394)" style="fill:none; stroke:#a7abae; stroke-miterlimit:10; stroke-width:.5px;"/><path d="M198.158,216.071s6.54-17.736,8.979-22.613,5.321-9.024,12.193-13.103,39.351-20.901,43.785-22.965,10.087-.069,13.08,3.922,6.759,9.311,8.091,11.307,1.442,11.639-7.758,16.738-63.96,33.144-69.613,35.804c-5.653,2.66-10.752-.333-8.757-9.09Z" style="fill:none; stroke:#a7abae; stroke-miterlimit:10; stroke-width:.5px;"/><path d="M206.363,195.119c1.598-3.238,5.54-9.198,11.748-12.413s35.915-18.844,41.125-21.283,9.755-1.33,12.969,3.436,5.21,8.535,5.875,10.087,1.441,7.094-4.988,10.752c-6.429,3.658-62.186,32.7-65.844,34.585-3.658,1.884-9.165,3.493-8.462-5.902" style="fill:none; stroke:#a7abae; stroke-miterlimit:10; stroke-width:.5px;"/><path d="M-46.191,141.77c31.117,4.153,67.008,5.007,99.268-2.043,32.26-7.05,64.947-18.876,75.416-30.161,10.468-11.285,33.302-43.766,33.302-43.766" style="fill:none; stroke:#a7abae; stroke-miterlimit:10; stroke-width:.5px;"/><path d="M-53.7,113.236c25.155,1.587,48.917-8.799,70.444-20.773,14.329-8.337,29.693-15.068,46.05-18.211,14.163-2.905,34.406-6.709,48.772-9.547,0,0,24.405-4.666,24.405-4.666l-24.358,4.906c-19.168,4.085-42.033,7.602-60.753,12.764-11.97,3.437-23.078,9.059-33.917,15.119-21.584,11.91-45.463,22.303-70.642,20.408h0Z" style="fill:#a7abae;"/><path d="M146.866,53.202c-6.837,4.273-15.382,15.684-22.646,26.856s-14.305,24.692-31.614,33.315c-17.31,8.622-59.397,22.222-74.352,23.22s-47.642,2.066-67.725-4.343" style="fill:none; stroke:#a7abae; stroke-miterlimit:10; stroke-width:.5px;"/><path d="M-53.7,105.381c18.97.591,36.916-3.255,60.416-16.714,23.501-13.459,52.983-21.792,83.961-28.628s37.815-8.118,39.097-11.537,2.991-8.118,0-10.468-7.264-5.982-7.264-5.982l13.459-17.519s9.828.641,16.664-9.187" style="fill:none; stroke:#a7abae; stroke-miterlimit:10; stroke-width:.5px;"/><line x1="132.486" y1="19.068" x2="69.955" y2="-10.396" style="fill:none; stroke:#a7abae; stroke-miterlimit:10; stroke-width:.5px;"/><path d="M113.367,54.986s4.728,5.357,5.819,8.324c0,0-3.129,12.84-5.108,31.964,0,0,4.802,9.562,7.397,19.973l-4.987,26.522" style="fill:none; stroke:#a7abae; stroke-miterlimit:10; stroke-width:.5px;"/><path d="M118.697,106.244c11.892-11.995,44.327-56.763,47.31-60.336" style="fill:none; stroke:#a7abae; stroke-miterlimit:10; stroke-width:.5px;"/><path d="M147.293,70.805c-1.533-1.682-2.6-5.475-1.77-9.979s14.816-71.945,14.816-71.945" style="fill:none; stroke:#a7abae; stroke-miterlimit:10; stroke-width:.5px;"/><path d="M99.298,31.194c-27.379,2.963-73.367,9.601-88.657,16.949s-40.536,18.727-53.337,18.49" style="fill:none; stroke:#a7abae; stroke-miterlimit:10; stroke-width:.5px;"/><path d="M75.387,34.15c-1.336-6.867-.624-11.49-12.477-17.653S13.604-8.393,13.604-8.393" style="fill:none; stroke:#a7abae; stroke-miterlimit:10; stroke-width:.5px;"/><path d="M123.951,38.424c-29.815,4.089-59.961,7.658-88.926,16.071-7.293,1.996-13.743,6.031-20.45,9.463-13.331,7.043-26.716,14.097-40.804,19.533-7.047,2.576-14.343,5.091-21.919,5.188,7.57-.179,14.821-2.768,21.832-5.416,14.05-5.491,27.4-12.583,40.695-19.673,5.016-2.631,9.912-5.494,15.139-7.706,8.838-3.33,18.124-5.346,27.337-7.281,22.191-4.441,44.623-7.587,67.096-10.179h0Z" style="fill:#a7abae;"/><path d="M24.767,103.597s4.058-7.534,6.329-10.231,6.671-5.393,13.413-7.168,40.451-10.006,47.618-10.858,8.871,1.703,8.019,8.303-2.768,14.903-3.193,16.535-2.342,5.322-6.032,7.239-36.618,14.548-54.076,19.161c0,0-7.097,1.916-9.155-3.193s-2.309-6.284-3.09-9.336-1.774-6.866.167-10.452Z" style="fill:none; stroke:#a7abae; stroke-miterlimit:10; stroke-width:.5px;"/><path d="M27.051,103.642s3.778-6.852,5.892-9.363,6.21-5.021,12.487-6.673c6.276-1.652,37.658-9.316,44.331-10.108s8.258,1.586,7.466,7.73-2.595,11.631-2.992,13.15-2.18,4.955-5.616,6.739-34.511,13.795-50.764,18.089c0,0-6.607,1.784-8.523-2.973s-1.711-4.02-2.437-6.86-1.651-6.392.156-9.731Z" style="fill:none; stroke:#a7abae; stroke-miterlimit:10; stroke-width:.5px;"/><path d="M32.684,116.348c-.42-.248-.735-.627-.908-1.082-1.104-2.902-2.321-5.938,1.073-6.843,3.664-.977,14.394-3.705,15.848-4.031s2.554-.733,3.49-.366,2.158,1.356,2.158,1.356c0,0,.896.884,0,2.919s-1.791,3.99-1.791,3.99c0,0-1.044,2.076-3.087,2.565s-10.064,2.646-10.634,2.809-2.728.57-4.316-.285c-.792-.427-1.412-.782-1.834-1.032Z" style="fill:none; stroke:#a7abae; stroke-miterlimit:10;"/><path d="M37.653,117.905c-1.873.207-2.931-1.095-3.379-2.358s-.896-3.216-.896-3.216c0,0-.57-2.158,2.137-2.85s15.573-3.85,16.59-4.042,2.437-.274,2.603,1.64" style="fill:none; stroke:#a7abae; stroke-miterlimit:10; stroke-width:.5px;"/><path d="M58.946,107.242s5.659-15.837,6.27-17.466,1.832-3.216,3.257-3.705,2.402-.692,2.402-.692c0,0,1.078-.244,2.269.285s1.517.733,1.517.733c0,0,1.506,1.099.814,3.827s-5.741,16.407-6.107,17.466-1.425,2.931-3.501,3.461-3.379.93-4.56.485-1.506-.743-1.506-.743c0,0-1.846-.879-.855-3.651Z" style="fill:none; stroke:#a7abae; stroke-miterlimit:10;"/><path d="M63.146,111.771c-1.238.014-1.933-.377-1.438-2.575s5.666-17.059,6.276-18.443,1.914-3.094,3.786-3.501,3.493-1.231,3.864,1.176" style="fill:none; stroke:#a7abae; stroke-miterlimit:10; stroke-width:.5px;"/><path d="M84.118,101.503c2.959,1.121,6.787-1.742,8.55-6.394,1.763-4.653.793-9.333-2.167-10.455l-1.882-.713c-2.959-1.121-6.787,1.742-8.55,6.394-1.763,4.653-.793,9.333,2.167,10.455l1.882.713Z" style="fill:none; stroke:#a7abae; stroke-miterlimit:10; stroke-width:.5px;"/><path d="M90.502,84.653c-2.959-1.121-6.787,1.742-8.55,6.394-1.763,4.653-.793,9.333,2.167,10.455" style="fill:none; stroke:#a7abae; stroke-miterlimit:10; stroke-width:.5px;"/><path d="M79.71,103.197c-3.993-1.513-5.302-7.829-2.924-14.106,2.378-6.278,7.544-10.141,11.537-8.628l1.412.535c3.993,1.513,5.302,7.829,2.924,14.106-2.378,6.278-7.544,10.141-11.537,8.628l-1.412-.535Z" style="fill:none; stroke:#a7abae; stroke-miterlimit:10;"/><path d="M89.735,80.998c-3.993-1.513-9.158,2.35-11.537,8.628-2.378,6.278-1.07,12.594,2.924,14.106" style="fill:none; stroke:#a7abae; stroke-miterlimit:10; stroke-width:.5px;"/><path d="M38.352,111.416s12.247-3.027,13.265-3.247,1.156.413.468,1.624-1.156,1.979-1.156,1.979c0,0-.936,1.356-1.844,1.601s-8.531,2.061-9.192,2.199-1.431.358-1.926-.881-.853-2.532.385-3.275Z" style="fill:none; stroke:#a7abae; stroke-miterlimit:10; stroke-width:.5px;"/><path d="M64.689,108.126s5.229-15.011,5.504-15.754.963-1.514,1.844-1.789,1.376-.33,1.376-.33c0,0,1.156-.193.578,1.321s-4.926,14.503-5.146,15.136-.881,1.569-2.092,1.954-2.471.63-2.064-.539Z" style="fill:none; stroke:#a7abae; stroke-miterlimit:10; stroke-width:.5px;"/><path d="M-46.191,217.837l15.452,8.005s9.819,3.772,18.682,0c8.863-3.772,124.91-59.226,124.91-59.226" style="fill:none; stroke:#a7abae; stroke-miterlimit:10; stroke-width:.5px;"/><path d="M-32.528,224.916c3.009-11.841,6.051-29.302,7.639-33.667s6.085-14.154,16.138-18.916c10.053-4.762,21.388-9.099,21.388-9.099" style="fill:none; stroke:#a7abae; stroke-miterlimit:10; stroke-width:.5px;"/><path d="M23.641,166.297s-17.841,7.358-22.735,9.607-9.524,6.181-12.302,18.171c-2.778,11.989-6.349,33.444-6.349,33.444" style="fill:none; stroke:#a7abae; stroke-miterlimit:10; stroke-width:.5px;"/><path d="M35.972,168.256c-7.908,3.032-22.72,8.749-28.322,11.216-7.804,3.447-9.925,9.66-10.582,12.173s-2.375,14.155-2.778,19.573c-.392,5.429,1.718,6.086,6.743,4.242,5.026-1.856,91.571-43.526,91.571-43.526,0,0,5.13-2.453,6.056-8.699s1.687-15.274,1.687-15.274" style="fill:none; stroke:#a7abae; stroke-miterlimit:10; stroke-width:.5px;"/><path d="M84.881,153.717s3.858-.697,3.593,2.874.089,8.011-3.593,10.024S16.565,198.921,12.637,200.641s-6.308,1.451-5.515-3.573,1.72-7.935,1.72-7.935c0,0,.528-3.836,6.084-6.085s62.481-26.628,62.481-26.628" style="fill:none; stroke:#a7abae; stroke-miterlimit:10; stroke-width:.5px;"/><path d="M-43.937,227.519c13.047,8.531,22.266,7.788,35.773.865,11.475-5.521,22.838-11.278,34.186-17.057,0,0,22.676-11.612,22.676-11.612-5.602,3.03-16.869,8.99-22.523,11.908-11.316,5.851-22.616,11.746-34.162,17.138-13.617,6.853-22.999,7.638-35.949-1.241h0Z" style="fill:#a7abae;"/><path d="M233.005-6.177c.183,1.624,2.748,6.021,5.405,7.12s5.313,2.015,5.313,2.015c0,0,4.306.916,6.871-3.664s2.931-6.413,2.931-6.413" style="fill:none; stroke:#a7abae; stroke-miterlimit:10; stroke-width:.5px;"/><path d="M302.252,72.998l-15.443-5.553-5.086-5.651v-6.499c0-2.731-2.637-5.223-5.745-3.6l-3.108,1.622s-2.637,1.036-4.333,6.499-3.956,13.59-4.144,16.261-.188,9.264,0,11.43,3.391,10.643,4.144,12.338,3.202,1.695,5.086.659,4.144-2.449,4.144-2.449c0,0,3.014-3.485,3.297-7.064s-.094-5.84-.094-5.84l4.05-1.13,16.603,3.863" style="fill:none; stroke:#a7abae; stroke-miterlimit:10; stroke-width:.5px;"/><path d="M281.324,53.49c-1.033-1.075-2.254-1.504-4.033-.575l-3.024,1.578s-2.566,1.008-4.215,6.323-3.849,13.221-4.032,15.82-.183,9.013,0,11.12,3.299,10.354,4.032,12.004c.367.825,1.145,1.237,2.062,1.317" style="fill:none; stroke:#a7abae; stroke-miterlimit:10; stroke-width:.5px;"/><path d="M280.97,85.152h-2.731s-6.028-1.884-7.064-2.355-1.79-1.051-1.79-2.739v-2.63s-.094-3.297.753-4.615,7.629-9.042,7.629-9.042l3.956-1.978" style="fill:none; stroke:#a7abae; stroke-miterlimit:10; stroke-width:.5px;"/><path d="M272.121,83.157c-.947-.36-1.697-1.613-1.697-2.71v-3.228s.129-2.389,2.13-4.325,5.487-4.261,5.487-4.261c0,0,1.872-.904,4.131,0s2.84,1.227,2.84,1.227l17.123,5.835" style="fill:none; stroke:#a7abae; stroke-miterlimit:10; stroke-width:.5px;"/><path d="M301.539,78.833l-16.058-5.291c-.139-.046-.284-.069-.431-.069h-7.976c-.14,0-.271.019-.404.06-.582.181-2.282.801-3.834,2.255-.269.252-.411.617-.411.986v2.088c0,.686.497,1.266,1.177,1.361,1.887.264,5.442.757,6.053.804.738.057,4.074.014,4.866.002.115-.002.226.011.339.038l16.876,4.083" style="fill:none; stroke:#a7abae; stroke-miterlimit:10; stroke-width:.5px;"/><path d="M280.184,98.449h-.023s2.444-1.821,3.089-5.844c.207-1.268.427-4.484.646-8.276" style="fill:none; stroke:#a7abae; stroke-miterlimit:10; stroke-width:.5px;"/><path d="M280.196,98.437l-.012.012c-.104.069-1.233.646-9.014,4.507-10.04,4.98-11.32-4.887-11.608-9.199s.38-18.109,1.049-26.927c.68-8.818,5.176-18.121,12.991-23.285,7.815-5.176,12.115-.68,12.023,2.098-.092,2.79-1.037,19.342-.841,19.55" style="fill:none; stroke:#a7abae; stroke-miterlimit:10; stroke-width:.5px;"/><path d="M287.081,84.501c-.368,9.573-1.597,32.137,5.662,46.921" style="fill:none; stroke:#a7abae; stroke-miterlimit:10; stroke-width:.5px;"/><line x1="288.997" y1="68.232" x2="297.998" y2="-9.423" style="fill:none; stroke:#a7abae; stroke-miterlimit:10; stroke-width:.5px;"/><path d="M279.174-7.119s-3.961,3.282-4.6,11.094-.792,21.433-.971,25.867,1.313,8.522,8.425,7.245,9.588-7.794,10.714-16.1,2.02-27.165,2.02-27.165" style="fill:none; stroke:#a7abae; stroke-miterlimit:10; stroke-width:.5px;"/><path d="M257.158,192.375l-34.236,17.966c-1.679.881-3.692-.337-3.692-2.232v-18.627c0-3.046,1.689-5.84,4.386-7.255l34.236-17.966c1.679-.881,3.692.337,3.692,2.232v18.627c0,3.046-1.689,5.84-4.386,7.255Z" style="fill:#f2a900; stroke:#000001; stroke-miterlimit:10; stroke-width:1.5px;"/></g><g id="uuid-09ededfe-848e-4484-af50-c7def7d7918c"><path d="M47.658,25.687h167.963c2.03,0,3.676,1.646,3.676,3.676v107.29s0,6.682,0,6.682c0,2.03-1.646,3.676-3.676,3.676h-15.277s17.678,30.794,17.678,30.794l-44.878-30.794H47.658c-2.03,0-3.676-1.646-3.676-3.676V29.363c0-2.03,1.646-3.676,3.676-3.676Z" style="fill:#fff; stroke:#000001; stroke-miterlimit:10; stroke-width:2px;"/><rect x="51.51" y="36.51" width="161.942" height="99.751" rx="3.069" ry="3.069" style="fill:#a7abae; stroke:#000001; stroke-miterlimit:10;"/><rect x="55.713" y="57.993" width="56.144" height="14.617" rx="2.795" ry="2.795" style="fill:#d3d5d6;"/><rect x="194.669" y="40.669" width="13.531" height="13.47" style="fill:#d3d5d6;"/><path d="M104.886,86.836h-.298l-.852-1.153-.852,1.153h-.297l.987-1.349-.942-1.289h.305l.799,1.089.803-1.089h.298l-.938,1.289.987,1.349Z" style="fill:#d3d5d6;"/><path d="M107.415,86.836h-.298l-.852-1.153-.852,1.153h-.297l.987-1.349-.942-1.289h.305l.799,1.089.803-1.089h.298l-.938,1.289.987,1.349Z" style="fill:#d3d5d6;"/><path d="M109.944,86.836h-.298l-.852-1.153-.852,1.153h-.297l.987-1.349-.942-1.289h.305l.799,1.089.803-1.089h.298l-.938,1.289.987,1.349Z" style="fill:#d3d5d6;"/><path d="M110.077,86.836l1.165-2.638h.234l-1.165,2.638h-.233Z" style="fill:#d3d5d6;"/><path d="M113.904,86.836h-.298l-.852-1.153-.852,1.153h-.297l.987-1.349-.942-1.289h.305l.799,1.089.803-1.089h.298l-.938,1.289.987,1.349Z" style="fill:#d3d5d6;"/><path d="M116.433,86.836h-.298l-.852-1.153-.852,1.153h-.297l.987-1.349-.942-1.289h.305l.799,1.089.803-1.089h.298l-.938,1.289.987,1.349Z" style="fill:#d3d5d6;"/><path d="M118.962,86.836h-.298l-.852-1.153-.852,1.153h-.297l.987-1.349-.942-1.289h.305l.799,1.089.803-1.089h.298l-.938,1.289.987,1.349Z" style="fill:#d3d5d6;"/><path d="M121.492,86.836h-.298l-.852-1.153-.852,1.153h-.297l.987-1.349-.942-1.289h.305l.799,1.089.803-1.089h.298l-.938,1.289.987,1.349Z" style="fill:#d3d5d6;"/><path d="M124.021,86.836h-.298l-.852-1.153-.852,1.153h-.297l.987-1.349-.942-1.289h.305l.799,1.089.803-1.089h.298l-.938,1.289.987,1.349Z" style="fill:#d3d5d6;"/><path d="M59.454,86.836h-.298l-.852-1.153-.852,1.153h-.297l.987-1.349-.942-1.289h.305l.799,1.089.803-1.089h.298l-.938,1.289.987,1.349Z" style="fill:#d3d5d6;"/><path d="M61.983,86.836h-.298l-.852-1.153-.852,1.153h-.297l.987-1.349-.942-1.289h.305l.799,1.089.803-1.089h.298l-.938,1.289.987,1.349Z" style="fill:#d3d5d6;"/><path d="M64.513,86.836h-.298l-.852-1.153-.852,1.153h-.297l.987-1.349-.942-1.289h.305l.799,1.089.803-1.089h.298l-.938,1.289.987,1.349Z" style="fill:#d3d5d6;"/><path d="M67.042,86.836h-.298l-.852-1.153-.852,1.153h-.297l.987-1.349-.942-1.289h.305l.799,1.089.803-1.089h.298l-.938,1.289.987,1.349Z" style="fill:#d3d5d6;"/><path d="M69.715,86.602v.234h-1.466v-2.638h.249v2.404h1.217Z" style="fill:#d3d5d6;"/><path d="M71.588,84.895c0,.245-.113.43-.309.55.305.098.479.347.479.648,0,.449-.32.743-.855.743h-.795v-2.638h.679c.494,0,.803.271.803.697ZM70.355,85.366h.448c.324,0,.535-.188.535-.464,0-.298-.215-.471-.554-.471h-.43v.935ZM70.355,86.602h.546c.373,0,.603-.192.603-.512,0-.298-.223-.494-.603-.494h-.546v1.006Z" style="fill:#d3d5d6;"/><path d="M73.111,85.626c0,.588.158.988.509,1.429l-.173.124c-.354-.448-.569-.916-.569-1.553s.215-1.104.569-1.553l.173.125c-.351.441-.509.84-.509,1.428Z" style="fill:#d3d5d6;"/><path d="M76.079,86.836h-.298l-.852-1.153-.852,1.153h-.297l.987-1.349-.942-1.289h.305l.799,1.089.803-1.089h.298l-.938,1.289.987,1.349Z" style="fill:#d3d5d6;"/><path d="M78.608,86.836h-.298l-.852-1.153-.852,1.153h-.297l.987-1.349-.942-1.289h.305l.799,1.089.803-1.089h.298l-.938,1.289.987,1.349Z" style="fill:#d3d5d6;"/><path d="M81.137,86.836h-.298l-.852-1.153-.852,1.153h-.297l.987-1.349-.942-1.289h.305l.799,1.089.803-1.089h.298l-.938,1.289.987,1.349Z" style="fill:#d3d5d6;"/><path d="M83.667,86.836h-.298l-.852-1.153-.852,1.153h-.297l.987-1.349-.942-1.289h.305l.799,1.089.803-1.089h.298l-.938,1.289.987,1.349Z" style="fill:#d3d5d6;"/><path d="M86.989,86.836h-.32l-1.018-1.278-.498.588v.69h-.249v-2.638h.249v1.575l1.304-1.575h.317l-.965,1.165,1.18,1.474Z" style="fill:#d3d5d6;"/><path d="M89.378,84.944h-.279c-.117-.328-.399-.562-.871-.562-.607,0-1.037.482-1.037,1.134,0,.648.43,1.135,1.04,1.135.536,0,.924-.271.927-.897h-.874v-.234h1.134v.151c0,.75-.434,1.213-1.188,1.213-.761,0-1.3-.588-1.3-1.368s.539-1.368,1.297-1.368c.592,0,.999.297,1.149.795Z" style="fill:#d3d5d6;"/><path d="M90.374,85.626c0,.637-.215,1.104-.569,1.553l-.173-.124c.35-.441.509-.841.509-1.429s-.159-.987-.509-1.428l.173-.125c.354.449.569.916.569,1.553Z" style="fill:#d3d5d6;"/><path d="M103.655,49.099v-2.569l-.082.215-1.109,2.354h-.228l-1.108-2.354-.082-.215v2.569h-.301v-3.194h.31l1.195,2.5.096.214.101-.214,1.2-2.5h.311v3.194h-.301Z" style="fill:#d3d5d6;"/><path d="M104.997,46.188v1.163h1.163v.288h-1.163v1.46h-.301v-3.194h1.67v.283h-1.369Z" style="fill:#d3d5d6;"/><path d="M109.58,47.502c0,.967-.625,1.597-1.606,1.597h-1.122v-3.194h1.122c.981,0,1.606.634,1.606,1.597ZM107.153,48.816h.821c.79,0,1.3-.498,1.3-1.314s-.501-1.314-1.3-1.314h-.821v2.628Z" style="fill:#d3d5d6;"/><path d="M110.3,48.907c0,.137-.105.242-.242.242-.142,0-.247-.105-.247-.242,0-.142.105-.247.247-.247.137,0,.242.105.242.247Z" style="fill:#d3d5d6;"/><path d="M113.606,46.749c0,.296-.137.52-.374.666.37.119.579.42.579.785,0,.543-.388.899-1.036.899h-.962v-3.194h.821c.598,0,.972.329.972.844ZM112.114,47.319h.542c.393,0,.648-.228.648-.561,0-.361-.26-.57-.67-.57h-.52v1.131ZM112.114,48.816h.661c.452,0,.73-.233.73-.621,0-.36-.269-.598-.73-.598h-.661v1.218Z" style="fill:#d3d5d6;"/><path d="M115.388,49.099h-.306v-1.223l-1.292-1.971h.356l.958,1.465.127.214.128-.214.962-1.465h.356l-1.291,1.971v1.223Z" style="fill:#d3d5d6;"/><path d="M119.682,49.099l-.735-1.351c-.018.005-.041.005-.059.005h-.506v1.346h-.301v-3.194h.808c.616,0,1.003.37,1.003.931,0,.433-.237.748-.634.867l.771,1.396h-.347ZM118.381,47.475h.506c.415,0,.703-.233.703-.639,0-.402-.283-.648-.703-.648h-.506v1.287Z" style="fill:#d3d5d6;"/><path d="M120.497,49.099v-3.194h.301v3.194h-.301Z" style="fill:#d3d5d6;"/><path d="M122.56,49.099l-1.31-3.194h.329l1.049,2.578.064.196.059-.196,1.054-2.578h.328l-1.309,3.194h-.265Z" style="fill:#d3d5d6;"/><path d="M124.589,49.099v-3.194h.301v3.194h-.301Z" style="fill:#d3d5d6;"/><path d="M127.912,49.099l-.379-.926h-1.478l-.37.926h-.337l1.305-3.194h.288l1.309,3.194h-.337ZM126.16,47.885h1.268l-.575-1.396-.06-.173-.059.173-.575,1.396Z" style="fill:#d3d5d6;"/><path d="M130.863,49.099l-1.733-2.482-.123-.191v2.673h-.301v-3.194h.287l1.725,2.468.137.201v-2.669h.301v3.194h-.292Z" style="fill:#d3d5d6;"/><path d="M135.134,49.099l-.379-.926h-1.478l-.37.926h-.337l1.305-3.194h.287l1.31,3.194h-.337ZM133.382,47.885h1.268l-.575-1.396-.059-.173-.06.173-.575,1.396Z" style="fill:#d3d5d6;"/><path d="M136.935,49.158c-.767,0-1.227-.442-1.227-1.309v-1.944h.301v1.944c0,.68.315,1.026.926,1.026.603,0,.926-.342.926-1.026v-1.944h.301v1.944c0,.867-.461,1.309-1.228,1.309Z" style="fill:#d3d5d6;"/><path d="M140.015,46.188v2.911h-.302v-2.911h-1.182v-.283h2.665v.283h-1.182Z" style="fill:#d3d5d6;"/><path d="M144.434,47.497c0,.944-.676,1.661-1.615,1.661-.944,0-1.619-.716-1.619-1.661,0-.939.675-1.651,1.619-1.651.939,0,1.615.712,1.615,1.651ZM141.514,47.497c0,.785.538,1.378,1.305,1.378.762,0,1.301-.593,1.301-1.378s-.539-1.369-1.301-1.369c-.767,0-1.305.584-1.305,1.369Z" style="fill:#d3d5d6;"/><path d="M147.905,49.099v-2.569l-.082.215-1.108,2.354h-.229l-1.108-2.354-.082-.215v2.569h-.302v-3.194h.311l1.195,2.5.096.214.101-.214,1.2-2.5h.31v3.194h-.301Z" style="fill:#d3d5d6;"/><path d="M151.998,47.497c0,.944-.676,1.661-1.615,1.661-.944,0-1.619-.716-1.619-1.661,0-.939.675-1.651,1.619-1.651.939,0,1.615.712,1.615,1.651ZM149.078,47.497c0,.785.538,1.378,1.305,1.378.762,0,1.301-.593,1.301-1.378s-.539-1.369-1.301-1.369c-.767,0-1.305.584-1.305,1.369Z" style="fill:#d3d5d6;"/><path d="M153.48,46.188v2.911h-.302v-2.911h-1.182v-.283h2.665v.283h-1.182Z" style="fill:#d3d5d6;"/><path d="M155.076,49.099v-3.194h.302v3.194h-.302Z" style="fill:#d3d5d6;"/><path d="M157.14,49.099l-1.31-3.194h.328l1.05,2.578.063.196.06-.196,1.054-2.578h.329l-1.31,3.194h-.265Z" style="fill:#d3d5d6;"/><path d="M159.471,46.188v1.122h1.255v.283h-1.255v1.223h1.414v.283h-1.716v-3.194h1.716v.283h-1.414Z" style="fill:#d3d5d6;"/><path d="M161.75,48.93c0,.27-.132.566-.311.762l-.104-.041c.096-.165.146-.333.169-.516-.123-.009-.219-.096-.219-.228,0-.128.1-.229.232-.229.132,0,.232.101.232.251Z" style="fill:#d3d5d6;"/><path d="M165.032,48.816v.283h-1.774v-3.194h.301v2.911h1.474Z" style="fill:#d3d5d6;"/><path d="M167.275,48.816v.283h-1.774v-3.194h.301v2.911h1.474Z" style="fill:#d3d5d6;"/><path d="M170.257,46.808h-.338c-.142-.396-.483-.68-1.054-.68-.735,0-1.255.584-1.255,1.374,0,.785.52,1.373,1.255,1.373.574,0,.921-.292,1.059-.689h.333c-.183.616-.671.972-1.392.972-.917,0-1.569-.711-1.569-1.656s.652-1.656,1.569-1.656c.716,0,1.209.36,1.392.962Z" style="fill:#d3d5d6;"/><path d="M60.19,78.286h-.337c-.142-.396-.484-.68-1.054-.68-.734,0-1.254.584-1.254,1.374,0,.785.52,1.373,1.259,1.373.648,0,1.118-.329,1.122-1.086h-1.058v-.283h1.373v.183c0,.908-.525,1.469-1.437,1.469-.922,0-1.574-.711-1.574-1.656s.652-1.656,1.569-1.656c.716,0,1.209.36,1.392.962Z" style="fill:#d3d5d6;"/><path d="M62.922,80.576l-.379-.926h-1.478l-.37.926h-.337l1.305-3.194h.287l1.31,3.194h-.337ZM61.17,79.363h1.268l-.575-1.396-.059-.173-.06.173-.575,1.396Z" style="fill:#d3d5d6;"/><path d="M65.982,80.576l-.771-2.423-.055-.209-.055.209-.767,2.423h-.273l-1.045-3.194h.319l.812,2.478.055.228.05-.228.785-2.478h.237l.785,2.478.05.228.059-.228.812-2.478h.314l-1.04,3.194h-.274Z" style="fill:#d3d5d6;"/><path d="M69.364,80.576l-.735-1.351c-.018.005-.041.005-.059.005h-.506v1.346h-.301v-3.194h.808c.616,0,1.003.37,1.003.931,0,.433-.237.748-.634.867l.771,1.396h-.347ZM68.064,78.952h.506c.415,0,.703-.233.703-.639,0-.402-.283-.648-.703-.648h-.506v1.287Z" style="fill:#d3d5d6;"/><path d="M71.435,77.666v1.163h1.163v.288h-1.163v1.46h-.301v-3.194h1.67v.283h-1.369Z" style="fill:#d3d5d6;"/><path d="M74.892,80.576l-.735-1.351c-.018.005-.041.005-.059.005h-.506v1.346h-.301v-3.194h.808c.616,0,1.003.37,1.003.931,0,.433-.237.748-.634.867l.771,1.396h-.347ZM73.591,78.952h.506c.415,0,.703-.233.703-.639,0-.402-.283-.648-.703-.648h-.506v1.287Z" style="fill:#d3d5d6;"/><path d="M78.75,78.975c0,.944-.675,1.661-1.615,1.661s-1.62-.716-1.62-1.661c0-.939.675-1.651,1.62-1.651s1.615.712,1.615,1.651ZM75.83,78.975c0,.785.538,1.378,1.305,1.378.762,0,1.3-.593,1.3-1.378s-.538-1.369-1.3-1.369c-.767,0-1.305.584-1.305,1.369Z" style="fill:#d3d5d6;"/><path d="M81.468,80.576l-1.733-2.482-.123-.191v2.673h-.301v-3.194h.287l1.725,2.468.137.201v-2.669h.301v3.194h-.292Z" style="fill:#d3d5d6;"/><path d="M83.653,77.666v2.911h-.301v-2.911h-1.182v-.283h2.665v.283h-1.182Z" style="fill:#d3d5d6;"/><path d="M85.395,78.482c0,.137-.105.242-.242.242-.142,0-.247-.104-.247-.242,0-.141.105-.246.247-.246.137,0,.242.105.242.246ZM85.395,80.385c0,.137-.105.242-.242.242-.142,0-.247-.105-.247-.242,0-.142.105-.247.247-.247.137,0,.242.105.242.247Z" style="fill:#d3d5d6;"/><path d="M104.313,80.576l-.771-2.423-.055-.209-.055.209-.767,2.423h-.273l-1.045-3.194h.319l.812,2.478.055.228.05-.228.785-2.478h.237l.785,2.478.05.228.059-.228.812-2.478h.314l-1.04,3.194h-.274Z" style="fill:#d3d5d6;"/><path d="M106.093,80.576v-3.194h.301v3.194h-.301Z" style="fill:#d3d5d6;"/><path d="M108.284,77.666v2.911h-.301v-2.911h-1.182v-.283h2.665v.283h-1.182Z" style="fill:#d3d5d6;"/><path d="M112.042,80.576v-1.505h-1.861v1.505h-.301v-3.194h.301v1.401h1.861v-1.401h.301v3.194h-.301Z" style="fill:#d3d5d6;"/><path d="M115.191,77.666v2.911h-.301v-2.911h-1.182v-.283h2.665v.283h-1.182Z" style="fill:#d3d5d6;"/><path d="M116.787,80.576v-3.194h.301v3.194h-.301Z" style="fill:#d3d5d6;"/><path d="M119.43,80.576l-.735-1.351c-.018.005-.041.005-.059.005h-.506v1.346h-.301v-3.194h.808c.616,0,1.003.37,1.003.931,0,.433-.237.748-.634.867l.771,1.396h-.347ZM118.129,78.952h.506c.415,0,.703-.233.703-.639,0-.402-.283-.648-.703-.648h-.506v1.287Z" style="fill:#d3d5d6;"/><path d="M120.546,77.666v1.122h1.254v.283h-1.254v1.223h1.414v.283h-1.715v-3.194h1.715v.283h-1.414Z" style="fill:#d3d5d6;"/><path d="M124.235,78.199h-.306c-.004-.388-.242-.602-.593-.602s-.562.209-.562.565c0,.352.215.465.671.652.625.242.899.447.899.917,0,.566-.388.903-.954.903-.644,0-1.018-.392-1.022-.98h.306c.004.456.273.707.721.707.429,0,.644-.269.644-.616,0-.306-.21-.465-.73-.657-.525-.206-.84-.401-.84-.913,0-.465.297-.853.872-.853.534,0,.885.306.894.876Z" style="fill:#d3d5d6;"/><path d="M125.201,78.482c0,.137-.105.242-.242.242-.142,0-.247-.104-.247-.242,0-.141.105-.246.247-.246.137,0,.242.105.242.246ZM125.201,80.385c0,.137-.105.242-.242.242-.142,0-.247-.105-.247-.242,0-.142.105-.247.247-.247.137,0,.242.105.242.247Z" style="fill:#d3d5d6;"/><path d="M144.292,80.576l-.734-1.351c-.019.005-.041.005-.06.005h-.506v1.346h-.302v-3.194h.808c.616,0,1.004.37,1.004.931,0,.433-.237.748-.634.867l.771,1.396h-.347ZM142.992,78.952h.506c.415,0,.703-.233.703-.639,0-.402-.283-.648-.703-.648h-.506v1.287Z" style="fill:#d3d5d6;"/><path d="M145.106,80.576v-3.194h.302v3.194h-.302Z" style="fill:#d3d5d6;"/><path d="M149.06,80.576v-2.569l-.082.215-1.108,2.354h-.229l-1.108-2.354-.082-.215v2.569h-.302v-3.194h.311l1.195,2.5.096.214.101-.214,1.2-2.5h.31v3.194h-.301Z" style="fill:#d3d5d6;"/><path d="M150.405,78.482c0,.137-.104.242-.241.242-.142,0-.246-.104-.246-.242,0-.141.104-.246.246-.246.137,0,.241.105.241.246ZM150.405,80.385c0,.137-.104.242-.241.242-.142,0-.246-.105-.246-.242,0-.142.104-.247.246-.247.137,0,.241.105.241.247Z" style="fill:#d3d5d6;"/><path d="M198.933,63.467h-.311l-.891-1.205-.89,1.205h-.311l1.031-1.409-.984-1.347h.319l.834,1.138.839-1.138h.312l-.98,1.347,1.031,1.409Z" style="fill:#d3d5d6;"/><path d="M201.574,63.467h-.311l-.891-1.205-.89,1.205h-.311l1.031-1.409-.984-1.347h.319l.834,1.138.839-1.138h.312l-.98,1.347,1.031,1.409Z" style="fill:#d3d5d6;"/><path d="M201.711,63.467l1.217-2.756h.244l-1.217,2.756h-.244Z" style="fill:#d3d5d6;"/><path d="M205.709,63.467h-.311l-.891-1.205-.89,1.205h-.311l1.031-1.409-.984-1.347h.319l.834,1.138.839-1.138h.312l-.98,1.347,1.031,1.409Z" style="fill:#d3d5d6;"/><path d="M208.351,63.467h-.311l-.891-1.205-.89,1.205h-.311l1.031-1.409-.984-1.347h.319l.834,1.138.839-1.138h.312l-.98,1.347,1.031,1.409Z" style="fill:#d3d5d6;"/><path d="M168.708,78.286h-.338c-.142-.396-.483-.68-1.054-.68-.735,0-1.255.584-1.255,1.374,0,.785.52,1.373,1.255,1.373.574,0,.921-.292,1.059-.689h.333c-.183.616-.671.972-1.392.972-.917,0-1.569-.711-1.569-1.656s.652-1.656,1.569-1.656c.716,0,1.209.36,1.392.962Z" style="fill:#d3d5d6;"/><path d="M172.275,78.975c0,.944-.676,1.661-1.615,1.661-.944,0-1.619-.716-1.619-1.661,0-.939.675-1.651,1.619-1.651.939,0,1.615.712,1.615,1.651ZM169.355,78.975c0,.785.538,1.378,1.305,1.378.762,0,1.301-.593,1.301-1.378s-.539-1.369-1.301-1.369c-.767,0-1.305.584-1.305,1.369Z" style="fill:#d3d5d6;"/><path d="M174.606,80.293v.283h-1.774v-3.194h.301v2.911h1.474Z" style="fill:#d3d5d6;"/><path d="M177.807,78.979c0,.967-.625,1.597-1.605,1.597h-1.123v-3.194h1.123c.98,0,1.605.634,1.605,1.597ZM175.38,80.293h.821c.789,0,1.3-.498,1.3-1.314s-.502-1.314-1.3-1.314h-.821v2.628Z" style="fill:#d3d5d6;"/><path d="M180.495,77.666v2.911h-.302v-2.911h-1.182v-.283h2.665v.283h-1.182Z" style="fill:#d3d5d6;"/><path d="M182.09,80.576v-3.194h.302v3.194h-.302Z" style="fill:#d3d5d6;"/><path d="M184.733,80.576l-.734-1.351c-.019.005-.041.005-.06.005h-.506v1.346h-.302v-3.194h.808c.616,0,1.004.37,1.004.931,0,.433-.237.748-.634.867l.771,1.396h-.347ZM183.434,78.952h.506c.415,0,.703-.233.703-.639,0-.402-.283-.648-.703-.648h-.506v1.287Z" style="fill:#d3d5d6;"/><path d="M185.85,77.666v1.122h1.255v.283h-1.255v1.223h1.414v.283h-1.716v-3.194h1.716v.283h-1.414Z" style="fill:#d3d5d6;"/><path d="M190.704,78.332c0,.561-.389.94-1.004.94h-.598v1.305h-.302v-3.194h.899c.615,0,1.004.388,1.004.949ZM189.103,78.988h.598c.415,0,.702-.251.702-.657,0-.401-.282-.666-.702-.666h-.598v1.323Z" style="fill:#d3d5d6;"/><path d="M192.782,80.576l-.734-1.351c-.019.005-.041.005-.06.005h-.506v1.346h-.302v-3.194h.808c.616,0,1.004.37,1.004.931,0,.433-.237.748-.634.867l.771,1.396h-.347ZM191.482,78.952h.506c.415,0,.703-.233.703-.639,0-.402-.283-.648-.703-.648h-.506v1.287Z" style="fill:#d3d5d6;"/><path d="M193.898,77.666v1.122h1.255v.283h-1.255v1.223h1.414v.283h-1.716v-3.194h1.716v.283h-1.414Z" style="fill:#d3d5d6;"/><path d="M197.588,78.199h-.306c-.005-.388-.242-.602-.594-.602s-.561.209-.561.565c0,.352.214.465.67.652.625.242.899.447.899.917,0,.566-.388.903-.954.903-.643,0-1.017-.392-1.021-.98h.306c.005.456.273.707.721.707.429,0,.644-.269.644-.616,0-.306-.21-.465-.73-.657-.524-.206-.839-.401-.839-.913,0-.465.296-.853.871-.853.534,0,.885.306.895.876Z" style="fill:#d3d5d6;"/><path d="M199.94,78.199h-.306c-.005-.388-.242-.602-.594-.602s-.561.209-.561.565c0,.352.214.465.67.652.626.242.899.447.899.917,0,.566-.388.903-.954.903-.643,0-1.017-.392-1.021-.98h.306c.005.456.273.707.721.707.429,0,.644-.269.644-.616,0-.306-.21-.465-.73-.657-.524-.206-.839-.401-.839-.913,0-.465.296-.853.871-.853.534,0,.885.306.895.876Z" style="fill:#d3d5d6;"/><path d="M201.786,80.635c-.767,0-1.228-.442-1.228-1.309v-1.944h.302v1.944c0,.68.314,1.026.926,1.026.603,0,.926-.342.926-1.026v-1.944h.302v1.944c0,.867-.461,1.309-1.228,1.309Z" style="fill:#d3d5d6;"/><path d="M205.316,80.576l-.734-1.351c-.019.005-.041.005-.06.005h-.506v1.346h-.302v-3.194h.808c.616,0,1.004.37,1.004.931,0,.433-.237.748-.634.867l.771,1.396h-.347ZM204.017,78.952h.506c.415,0,.703-.233.703-.639,0-.402-.283-.648-.703-.648h-.506v1.287Z" style="fill:#d3d5d6;"/><path d="M206.434,77.666v1.122h1.255v.283h-1.255v1.223h1.414v.283h-1.716v-3.194h1.716v.283h-1.414Z" style="fill:#d3d5d6;"/><path d="M208.734,78.482c0,.137-.104.242-.241.242-.142,0-.246-.104-.246-.242,0-.141.104-.246.246-.246.137,0,.241.105.241.246ZM208.734,80.385c0,.137-.104.242-.241.242-.142,0-.246-.105-.246-.242,0-.142.104-.247.246-.247.137,0,.241.105.241.247Z" style="fill:#d3d5d6;"/><path d="M61.217,60.889h-.886c-.153-.407-.455-.649-1.027-.649-.714,0-1.21.584-1.21,1.382,0,.803.496,1.394,1.246,1.394.603,0,.998-.277,1.045-.797h-.992v-.756h1.854v.36c0,1.24-.774,1.949-1.908,1.949-1.228,0-2.084-.909-2.084-2.149,0-1.234.856-2.138,2.067-2.138,1.045,0,1.671.579,1.896,1.405Z" style="fill:#d3d5d6;"/><path d="M62.965,63.694l-1.618-4.134h.856l1.051,2.734.089.283.088-.283,1.045-2.734h.862l-1.612,4.134h-.762Z" style="fill:#d3d5d6;"/><path d="M69.119,63.694l-.703-2.386-.059-.283-.059.283-.703,2.386h-.851l-1.258-4.134h.851l.785,2.64.059.301.053-.301.756-2.64h.732l.756,2.64.047.301.065-.301.786-2.64h.85l-1.258,4.134h-.85Z" style="fill:#d3d5d6;"/><path d="M73.708,63.694l-.809-1.553h-.366v1.553h-.809v-4.134h1.27c.892,0,1.453.532,1.453,1.317,0,.508-.266.916-.715,1.122l.892,1.695h-.916ZM72.533,61.433h.461c.384,0,.632-.189.632-.555,0-.372-.248-.561-.632-.561h-.461v1.116Z" style="fill:#d3d5d6;"/><path d="M167.972,86.836h-.298l-.852-1.153-.852,1.153h-.298l.987-1.349-.942-1.289h.306l.799,1.089.803-1.089h.298l-.938,1.289.987,1.349Z" style="fill:#d3d5d6;"/><path d="M170.501,86.836h-.298l-.852-1.153-.852,1.153h-.298l.987-1.349-.942-1.289h.306l.799,1.089.803-1.089h.298l-.938,1.289.987,1.349Z" style="fill:#d3d5d6;"/><path d="M173.03,86.836h-.298l-.852-1.153-.852,1.153h-.298l.987-1.349-.942-1.289h.306l.799,1.089.803-1.089h.298l-.938,1.289.987,1.349Z" style="fill:#d3d5d6;"/><path d="M176.353,86.836h-.32l-1.018-1.278-.498.588v.69h-.248v-2.638h.248v1.575l1.305-1.575h.316l-.965,1.165,1.18,1.474Z" style="fill:#d3d5d6;"/><path d="M178.309,84.981c0,.464-.32.776-.829.776h-.494v1.078h-.248v-2.638h.742c.509,0,.829.32.829.784ZM176.985,85.524h.494c.343,0,.58-.208.58-.543,0-.332-.233-.55-.58-.55h-.494v1.093Z" style="fill:#d3d5d6;"/><path d="M180.214,86.836l-.312-.765h-1.221l-.306.765h-.279l1.078-2.638h.237l1.082,2.638h-.279ZM178.767,85.833h1.048l-.475-1.153-.049-.143-.049.143-.476,1.153Z" style="fill:#d3d5d6;"/><path d="M181.142,86.696c0,.223-.109.468-.257.629l-.086-.034c.079-.136.12-.275.139-.426-.102-.008-.181-.079-.181-.188,0-.105.083-.188.192-.188s.192.083.192.207Z" style="fill:#d3d5d6;"/><path d="M184.498,86.836h-.298l-.852-1.153-.852,1.153h-.298l.987-1.349-.942-1.289h.306l.799,1.089.803-1.089h.298l-.938,1.289.987,1.349Z" style="fill:#d3d5d6;"/><path d="M187.027,86.836h-.298l-.852-1.153-.852,1.153h-.298l.987-1.349-.942-1.289h.306l.799,1.089.803-1.089h.298l-.938,1.289.987,1.349Z" style="fill:#d3d5d6;"/><path d="M189.811,84.981c0,.464-.32.776-.829.776h-.494v1.078h-.248v-2.638h.742c.509,0,.829.32.829.784ZM188.487,85.524h.494c.343,0,.58-.208.58-.543,0-.332-.233-.55-.58-.55h-.494v1.093Z" style="fill:#d3d5d6;"/><path d="M191.604,84.873h-.252c-.004-.321-.2-.498-.49-.498s-.464.173-.464.467c0,.29.178.384.555.539.516.2.742.369.742.757,0,.467-.32.746-.788.746-.531,0-.84-.324-.844-.81h.253c.003.377.226.584.595.584.354,0,.531-.222.531-.509,0-.252-.173-.384-.603-.542-.434-.17-.693-.332-.693-.754,0-.384.245-.705.72-.705.441,0,.731.252.738.724Z" style="fill:#d3d5d6;"/><path d="M192.15,86.836v-2.638h.248v2.638h-.248Z" style="fill:#d3d5d6;"/><path d="M143.34,86.836h-.298l-.852-1.153-.852,1.153h-.298l.987-1.349-.942-1.289h.306l.799,1.089.803-1.089h.298l-.938,1.289.987,1.349Z" style="fill:#d3d5d6;"/><path d="M145.869,86.836h-.298l-.852-1.153-.852,1.153h-.298l.987-1.349-.942-1.289h.306l.799,1.089.803-1.089h.298l-.938,1.289.987,1.349Z" style="fill:#d3d5d6;"/><path d="M148.398,86.836h-.298l-.852-1.153-.852,1.153h-.298l.987-1.349-.942-1.289h.306l.799,1.089.803-1.089h.298l-.938,1.289.987,1.349Z" style="fill:#d3d5d6;"/><path d="M150.928,86.836h-.298l-.852-1.153-.852,1.153h-.298l.987-1.349-.942-1.289h.306l.799,1.089.803-1.089h.298l-.938,1.289.987,1.349Z" style="fill:#d3d5d6;"/><path d="M151.603,86.678c0,.113-.087.2-.199.2-.117,0-.204-.087-.204-.2,0-.117.087-.204.204-.204.112,0,.199.087.199.204Z" style="fill:#d3d5d6;"/><path d="M154.17,86.836h-.298l-.852-1.153-.852,1.153h-.298l.987-1.349-.942-1.289h.306l.799,1.089.803-1.089h.298l-.938,1.289.987,1.349Z" style="fill:#d3d5d6;"/><path d="M156.699,86.836h-.298l-.852-1.153-.852,1.153h-.298l.987-1.349-.942-1.289h.306l.799,1.089.803-1.089h.298l-.938,1.289.987,1.349Z" style="fill:#d3d5d6;"/><path d="M104.886,102.204h-.298l-.852-1.153-.852,1.153h-.297l.987-1.349-.942-1.289h.305l.799,1.089.803-1.089h.298l-.938,1.289.987,1.349Z" style="fill:#d3d5d6;"/><path d="M107.415,102.204h-.298l-.852-1.153-.852,1.153h-.297l.987-1.349-.942-1.289h.305l.799,1.089.803-1.089h.298l-.938,1.289.987,1.349Z" style="fill:#d3d5d6;"/><path d="M109.944,102.204h-.298l-.852-1.153-.852,1.153h-.297l.987-1.349-.942-1.289h.305l.799,1.089.803-1.089h.298l-.938,1.289.987,1.349Z" style="fill:#d3d5d6;"/><path d="M110.077,102.204l1.165-2.638h.234l-1.165,2.638h-.233Z" style="fill:#d3d5d6;"/><path d="M113.904,102.204h-.298l-.852-1.153-.852,1.153h-.297l.987-1.349-.942-1.289h.305l.799,1.089.803-1.089h.298l-.938,1.289.987,1.349Z" style="fill:#d3d5d6;"/><path d="M116.433,102.204h-.298l-.852-1.153-.852,1.153h-.297l.987-1.349-.942-1.289h.305l.799,1.089.803-1.089h.298l-.938,1.289.987,1.349Z" style="fill:#d3d5d6;"/><path d="M118.962,102.204h-.298l-.852-1.153-.852,1.153h-.297l.987-1.349-.942-1.289h.305l.799,1.089.803-1.089h.298l-.938,1.289.987,1.349Z" style="fill:#d3d5d6;"/><path d="M121.492,102.204h-.298l-.852-1.153-.852,1.153h-.297l.987-1.349-.942-1.289h.305l.799,1.089.803-1.089h.298l-.938,1.289.987,1.349Z" style="fill:#d3d5d6;"/><path d="M124.021,102.204h-.298l-.852-1.153-.852,1.153h-.297l.987-1.349-.942-1.289h.305l.799,1.089.803-1.089h.298l-.938,1.289.987,1.349Z" style="fill:#d3d5d6;"/><path d="M59.454,102.204h-.298l-.852-1.153-.852,1.153h-.297l.987-1.349-.942-1.289h.305l.799,1.089.803-1.089h.298l-.938,1.289.987,1.349Z" style="fill:#d3d5d6;"/><path d="M61.983,102.204h-.298l-.852-1.153-.852,1.153h-.297l.987-1.349-.942-1.289h.305l.799,1.089.803-1.089h.298l-.938,1.289.987,1.349Z" style="fill:#d3d5d6;"/><path d="M64.513,102.204h-.298l-.852-1.153-.852,1.153h-.297l.987-1.349-.942-1.289h.305l.799,1.089.803-1.089h.298l-.938,1.289.987,1.349Z" style="fill:#d3d5d6;"/><path d="M67.042,102.204h-.298l-.852-1.153-.852,1.153h-.297l.987-1.349-.942-1.289h.305l.799,1.089.803-1.089h.298l-.938,1.289.987,1.349Z" style="fill:#d3d5d6;"/><path d="M69.715,101.97v.234h-1.466v-2.638h.249v2.404h1.217Z" style="fill:#d3d5d6;"/><path d="M71.588,100.263c0,.245-.113.43-.309.55.305.098.479.347.479.648,0,.449-.32.743-.855.743h-.795v-2.638h.679c.494,0,.803.271.803.697ZM70.355,100.734h.448c.324,0,.535-.188.535-.464,0-.298-.215-.471-.554-.471h-.43v.935ZM70.355,101.97h.546c.373,0,.603-.192.603-.512,0-.298-.223-.494-.603-.494h-.546v1.006Z" style="fill:#d3d5d6;"/><path d="M73.111,100.994c0,.588.158.988.509,1.429l-.173.124c-.354-.448-.569-.916-.569-1.553s.215-1.104.569-1.553l.173.125c-.351.441-.509.84-.509,1.428Z" style="fill:#d3d5d6;"/><path d="M76.079,102.204h-.298l-.852-1.153-.852,1.153h-.297l.987-1.349-.942-1.289h.305l.799,1.089.803-1.089h.298l-.938,1.289.987,1.349Z" style="fill:#d3d5d6;"/><path d="M78.608,102.204h-.298l-.852-1.153-.852,1.153h-.297l.987-1.349-.942-1.289h.305l.799,1.089.803-1.089h.298l-.938,1.289.987,1.349Z" style="fill:#d3d5d6;"/><path d="M81.137,102.204h-.298l-.852-1.153-.852,1.153h-.297l.987-1.349-.942-1.289h.305l.799,1.089.803-1.089h.298l-.938,1.289.987,1.349Z" style="fill:#d3d5d6;"/><path d="M83.667,102.204h-.298l-.852-1.153-.852,1.153h-.297l.987-1.349-.942-1.289h.305l.799,1.089.803-1.089h.298l-.938,1.289.987,1.349Z" style="fill:#d3d5d6;"/><path d="M86.989,102.204h-.32l-1.018-1.278-.498.588v.69h-.249v-2.638h.249v1.575l1.304-1.575h.317l-.965,1.165,1.18,1.474Z" style="fill:#d3d5d6;"/><path d="M89.378,100.312h-.279c-.117-.328-.399-.562-.871-.562-.607,0-1.037.482-1.037,1.134,0,.648.43,1.135,1.04,1.135.536,0,.924-.271.927-.897h-.874v-.234h1.134v.151c0,.75-.434,1.213-1.188,1.213-.761,0-1.3-.588-1.3-1.368s.539-1.368,1.297-1.368c.592,0,.999.297,1.149.795Z" style="fill:#d3d5d6;"/><path d="M90.374,100.994c0,.637-.215,1.104-.569,1.553l-.173-.124c.35-.441.509-.841.509-1.429s-.159-.987-.509-1.428l.173-.125c.354.449.569.916.569,1.553Z" style="fill:#d3d5d6;"/><path d="M60.19,93.655h-.337c-.142-.396-.484-.68-1.054-.68-.734,0-1.254.584-1.254,1.374,0,.785.52,1.373,1.259,1.373.648,0,1.118-.329,1.122-1.086h-1.058v-.283h1.373v.183c0,.908-.525,1.469-1.437,1.469-.922,0-1.574-.711-1.574-1.656s.652-1.656,1.569-1.656c.716,0,1.209.36,1.392.962Z" style="fill:#d3d5d6;"/><path d="M62.922,95.945l-.379-.926h-1.478l-.37.926h-.337l1.305-3.194h.287l1.31,3.194h-.337ZM61.17,94.732h1.268l-.575-1.396-.059-.173-.06.173-.575,1.396Z" style="fill:#d3d5d6;"/><path d="M65.982,95.945l-.771-2.423-.055-.209-.055.209-.767,2.423h-.273l-1.045-3.194h.319l.812,2.478.055.228.05-.228.785-2.478h.237l.785,2.478.05.228.059-.228.812-2.478h.314l-1.04,3.194h-.274Z" style="fill:#d3d5d6;"/><path d="M69.364,95.945l-.735-1.351c-.018.005-.041.005-.059.005h-.506v1.346h-.301v-3.194h.808c.616,0,1.003.37,1.003.931,0,.433-.237.748-.634.867l.771,1.396h-.347ZM68.064,94.321h.506c.415,0,.703-.233.703-.639,0-.402-.283-.648-.703-.648h-.506v1.287Z" style="fill:#d3d5d6;"/><path d="M72.735,95.945l-.735-1.351c-.018.005-.041.005-.059.005h-.506v1.346h-.301v-3.194h.808c.616,0,1.003.37,1.003.931,0,.433-.237.748-.634.867l.771,1.396h-.347ZM71.435,94.321h.506c.415,0,.703-.233.703-.639,0-.402-.283-.648-.703-.648h-.506v1.287Z" style="fill:#d3d5d6;"/><path d="M73.852,93.035v1.122h1.254v.283h-1.254v1.223h1.414v.283h-1.715v-3.194h1.715v.283h-1.414Z" style="fill:#d3d5d6;"/><path d="M78.129,95.945l-.379-.926h-1.478l-.37.926h-.337l1.305-3.194h.287l1.31,3.194h-.337ZM76.377,94.732h1.268l-.575-1.396-.059-.173-.06.173-.575,1.396Z" style="fill:#d3d5d6;"/><path d="M80.523,95.945l-.734-1.351c-.018.005-.041.005-.059.005h-.506v1.346h-.301v-3.194h.808c.616,0,1.003.37,1.003.931,0,.433-.237.748-.634.867l.771,1.396h-.347ZM79.224,94.321h.506c.415,0,.703-.233.703-.639,0-.402-.283-.648-.703-.648h-.506v1.287Z" style="fill:#d3d5d6;"/><path d="M81.645,93.851c0,.137-.105.242-.242.242-.142,0-.247-.104-.247-.242,0-.141.105-.246.247-.246.137,0,.242.105.242.246ZM81.645,95.754c0,.137-.105.242-.242.242-.142,0-.247-.105-.247-.242,0-.142.105-.247.247-.247.137,0,.242.105.242.247Z" style="fill:#d3d5d6;"/><path d="M58.434,126.936l-1.31-3.194h.329l1.049,2.578.064.196.059-.196,1.054-2.578h.328l-1.309,3.194h-.265Z" style="fill:#d3d5d6;"/><path d="M60.463,126.936v-3.194h.301v3.194h-.301Z" style="fill:#d3d5d6;"/><path d="M63.662,126.936l-1.733-2.482-.123-.191v2.673h-.301v-3.194h.288l1.724,2.468.137.201v-2.669h.301v3.194h-.292Z" style="fill:#d3d5d6;"/><path d="M65.003,124.841c0,.137-.105.242-.242.242-.142,0-.247-.104-.247-.242,0-.141.105-.246.247-.246.137,0,.242.105.242.246ZM65.003,126.744c0,.137-.105.242-.242.242-.142,0-.247-.105-.247-.242,0-.142.105-.247.247-.247.137,0,.242.105.242.247Z" style="fill:#d3d5d6;"/><path d="M69.066,126.936h-.36l-1.031-1.396-1.031,1.396h-.36l1.195-1.633-1.141-1.561h.37l.967,1.319.972-1.319h.361l-1.136,1.561,1.195,1.633Z" style="fill:#d3d5d6;"/><path d="M72.126,126.936h-.36l-1.031-1.396-1.031,1.396h-.36l1.195-1.633-1.141-1.561h.37l.967,1.319.972-1.319h.361l-1.136,1.561,1.195,1.633Z" style="fill:#d3d5d6;"/><path d="M75.187,126.936h-.36l-1.031-1.396-1.031,1.396h-.36l1.195-1.633-1.141-1.561h.37l.967,1.319.972-1.319h.361l-1.136,1.561,1.195,1.633Z" style="fill:#d3d5d6;"/><path d="M78.248,126.936h-.36l-1.031-1.396-1.031,1.396h-.36l1.195-1.633-1.141-1.561h.37l.967,1.319.972-1.319h.361l-1.136,1.561,1.195,1.633Z" style="fill:#d3d5d6;"/><path d="M81.308,126.936h-.36l-1.031-1.396-1.031,1.396h-.36l1.195-1.633-1.141-1.561h.37l.967,1.319.972-1.319h.361l-1.136,1.561,1.195,1.633Z" style="fill:#d3d5d6;"/><path d="M84.369,126.936h-.36l-1.031-1.396-1.031,1.396h-.36l1.195-1.633-1.141-1.561h.37l.967,1.319.972-1.319h.361l-1.136,1.561,1.195,1.633Z" style="fill:#d3d5d6;"/><path d="M87.429,126.936h-.36l-1.031-1.396-1.031,1.396h-.36l1.195-1.633-1.141-1.561h.37l.967,1.319.972-1.319h.361l-1.136,1.561,1.195,1.633Z" style="fill:#d3d5d6;"/><path d="M90.49,126.936h-.36l-1.031-1.396-1.031,1.396h-.36l1.195-1.633-1.141-1.561h.37l.967,1.319.972-1.319h.361l-1.136,1.561,1.195,1.633Z" style="fill:#d3d5d6;"/><path d="M93.55,126.936h-.36l-1.031-1.396-1.031,1.396h-.36l1.195-1.633-1.141-1.561h.37l.967,1.319.972-1.319h.361l-1.136,1.561,1.195,1.633Z" style="fill:#d3d5d6;"/><path d="M96.611,126.936h-.36l-1.031-1.396-1.031,1.396h-.36l1.195-1.633-1.141-1.561h.37l.967,1.319.972-1.319h.361l-1.136,1.561,1.195,1.633Z" style="fill:#d3d5d6;"/><path d="M99.672,126.936h-.36l-1.031-1.396-1.031,1.396h-.36l1.195-1.633-1.141-1.561h.37l.967,1.319.972-1.319h.361l-1.136,1.561,1.195,1.633Z" style="fill:#d3d5d6;"/><path d="M102.732,126.936h-.36l-1.031-1.396-1.031,1.396h-.36l1.195-1.633-1.141-1.561h.37l.967,1.319.972-1.319h.361l-1.136,1.561,1.195,1.633Z" style="fill:#d3d5d6;"/><path d="M105.793,126.936h-.36l-1.031-1.396-1.031,1.396h-.36l1.195-1.633-1.141-1.561h.37l.967,1.319.972-1.319h.361l-1.136,1.561,1.195,1.633Z" style="fill:#d3d5d6;"/><path d="M108.854,126.936h-.36l-1.031-1.396-1.031,1.396h-.36l1.195-1.633-1.141-1.561h.37l.967,1.319.972-1.319h.361l-1.136,1.561,1.195,1.633Z" style="fill:#d3d5d6;"/><path d="M111.914,126.936h-.36l-1.031-1.396-1.031,1.396h-.36l1.195-1.633-1.141-1.561h.37l.967,1.319.972-1.319h.361l-1.136,1.561,1.195,1.633Z" style="fill:#d3d5d6;"/><path d="M114.975,126.936h-.36l-1.031-1.396-1.031,1.396h-.36l1.195-1.633-1.141-1.561h.37l.967,1.319.972-1.319h.361l-1.136,1.561,1.195,1.633Z" style="fill:#d3d5d6;"/><path d="M118.035,126.936h-.36l-1.031-1.396-1.031,1.396h-.36l1.195-1.633-1.141-1.561h.37l.967,1.319.972-1.319h.361l-1.136,1.561,1.195,1.633Z" style="fill:#d3d5d6;"/><path d="M58.561,129.506v2.911h-.301v-2.911h-1.182v-.283h2.665v.283h-1.182Z" style="fill:#d3d5d6;"/><path d="M61.458,132.417h-.306v-1.223l-1.292-1.971h.356l.958,1.465.127.214.128-.214.962-1.465h.356l-1.291,1.971v1.223Z" style="fill:#d3d5d6;"/><path d="M65.097,130.172c0,.561-.388.94-1.003.94h-.598v1.305h-.301v-3.194h.899c.616,0,1.003.388,1.003.949ZM63.496,130.829h.598c.415,0,.702-.251.702-.657,0-.401-.283-.666-.702-.666h-.598v1.323Z" style="fill:#d3d5d6;"/><path d="M65.876,129.506v1.122h1.254v.283h-1.254v1.223h1.414v.283h-1.715v-3.194h1.715v.283h-1.414Z" style="fill:#d3d5d6;"/><path d="M68.178,130.323c0,.137-.105.242-.242.242-.142,0-.247-.104-.247-.242,0-.141.105-.246.247-.246.137,0,.242.105.242.246ZM68.178,132.226c0,.137-.105.242-.242.242-.142,0-.247-.105-.247-.242,0-.142.105-.247.247-.247.137,0,.242.105.242.247Z" style="fill:#d3d5d6;"/><path d="M72.241,132.417h-.36l-1.031-1.396-1.031,1.396h-.36l1.195-1.633-1.141-1.561h.37l.967,1.319.972-1.319h.361l-1.136,1.561,1.195,1.633Z" style="fill:#d3d5d6;"/><path d="M75.301,132.417h-.36l-1.031-1.396-1.031,1.396h-.36l1.195-1.633-1.141-1.561h.37l.967,1.319.972-1.319h.361l-1.136,1.561,1.195,1.633Z" style="fill:#d3d5d6;"/><path d="M78.362,132.417h-.36l-1.031-1.396-1.031,1.396h-.36l1.195-1.633-1.141-1.561h.37l.967,1.319.972-1.319h.361l-1.136,1.561,1.195,1.633Z" style="fill:#d3d5d6;"/><path d="M81.422,132.417h-.36l-1.031-1.396-1.031,1.396h-.36l1.195-1.633-1.141-1.561h.37l.967,1.319.972-1.319h.361l-1.136,1.561,1.195,1.633Z" style="fill:#d3d5d6;"/><path d="M169.093,133.039h-.207l-.594-.803-.593.803h-.207l.688-.939-.656-.897h.213l.556.758.56-.758h.207l-.653.897.688.939Z" style="fill:#d3d5d6;"/><path d="M170.851,133.039h-.207l-.594-.803-.593.803h-.207l.688-.939-.656-.897h.213l.556.758.56-.758h.207l-.653.897.688.939Z" style="fill:#d3d5d6;"/><path d="M172.608,133.039h-.207l-.594-.803-.593.803h-.207l.688-.939-.656-.897h.213l.556.758.56-.758h.207l-.653.897.688.939Z" style="fill:#d3d5d6;"/><path d="M174.365,133.039h-.207l-.594-.803-.593.803h-.207l.688-.939-.656-.897h.213l.556.758.56-.758h.207l-.653.897.688.939Z" style="fill:#d3d5d6;"/><path d="M174.832,131.834c0,.079-.061.139-.14.139-.081,0-.142-.061-.142-.139,0-.082.061-.142.142-.142.079,0,.14.06.14.142ZM174.832,132.929c0,.079-.061.139-.14.139-.081,0-.142-.06-.142-.139,0-.081.061-.142.142-.142.079,0,.14.061.14.142Z" style="fill:#d3d5d6;"/><path d="M176.619,133.039h-.207l-.594-.803-.593.803h-.207l.688-.939-.656-.897h.213l.556.758.56-.758h.207l-.653.897.688.939Z" style="fill:#d3d5d6;"/><path d="M178.377,133.039h-.207l-.594-.803-.593.803h-.207l.688-.939-.656-.897h.213l.556.758.56-.758h.207l-.653.897.688.939Z" style="fill:#d3d5d6;"/><path d="M180.135,133.039h-.207l-.594-.803-.593.803h-.207l.688-.939-.656-.897h.213l.556.758.56-.758h.207l-.653.897.688.939Z" style="fill:#d3d5d6;"/><path d="M181.892,133.039h-.207l-.594-.803-.593.803h-.207l.688-.939-.656-.897h.213l.556.758.56-.758h.207l-.653.897.688.939Z" style="fill:#d3d5d6;"/><path d="M183.649,133.039h-.207l-.594-.803-.593.803h-.207l.688-.939-.656-.897h.213l.556.758.56-.758h.207l-.653.897.688.939Z" style="fill:#d3d5d6;"/><path d="M185.955,133.039h-.207l-.594-.803-.593.803h-.207l.688-.939-.656-.897h.213l.556.758.56-.758h.207l-.653.897.688.939Z" style="fill:#d3d5d6;"/><path d="M187.713,133.039h-.207l-.594-.803-.593.803h-.207l.688-.939-.656-.897h.213l.556.758.56-.758h.207l-.653.897.688.939Z" style="fill:#d3d5d6;"/><path d="M189.471,133.039h-.207l-.594-.803-.593.803h-.207l.688-.939-.656-.897h.213l.556.758.56-.758h.207l-.653.897.688.939Z" style="fill:#d3d5d6;"/><path d="M191.229,133.039h-.207l-.594-.803-.593.803h-.207l.688-.939-.656-.897h.213l.556.758.56-.758h.207l-.653.897.688.939Z" style="fill:#d3d5d6;"/><path d="M191.695,131.834c0,.079-.061.139-.14.139-.081,0-.142-.061-.142-.139,0-.082.061-.142.142-.142.079,0,.14.06.14.142ZM191.695,132.929c0,.079-.061.139-.14.139-.081,0-.142-.06-.142-.139,0-.081.061-.142.142-.142.079,0,.14.061.14.142Z" style="fill:#d3d5d6;"/><path d="M193.481,133.039h-.207l-.594-.803-.593.803h-.207l.688-.939-.656-.897h.213l.556.758.56-.758h.207l-.653.897.688.939Z" style="fill:#d3d5d6;"/><path d="M195.239,133.039h-.207l-.594-.803-.593.803h-.207l.688-.939-.656-.897h.213l.556.758.56-.758h.207l-.653.897.688.939Z" style="fill:#d3d5d6;"/><path d="M196.997,133.039h-.207l-.594-.803-.593.803h-.207l.688-.939-.656-.897h.213l.556.758.56-.758h.207l-.653.897.688.939Z" style="fill:#d3d5d6;"/><path d="M198.755,133.039h-.207l-.594-.803-.593.803h-.207l.688-.939-.656-.897h.213l.556.758.56-.758h.207l-.653.897.688.939Z" style="fill:#d3d5d6;"/><path d="M200.513,133.039h-.207l-.594-.803-.593.803h-.207l.688-.939-.656-.897h.213l.556.758.56-.758h.207l-.653.897.688.939Z" style="fill:#d3d5d6;"/><path d="M202.818,133.039h-.207l-.594-.803-.593.803h-.207l.688-.939-.656-.897h.213l.556.758.56-.758h.207l-.653.897.688.939Z" style="fill:#d3d5d6;"/><path d="M204.576,133.039h-.207l-.594-.803-.593.803h-.207l.688-.939-.656-.897h.213l.556.758.56-.758h.207l-.653.897.688.939Z" style="fill:#d3d5d6;"/><path d="M206.333,133.039h-.207l-.594-.803-.593.803h-.207l.688-.939-.656-.897h.213l.556.758.56-.758h.207l-.653.897.688.939Z" style="fill:#d3d5d6;"/><path d="M208.091,133.039h-.207l-.594-.803-.593.803h-.207l.688-.939-.656-.897h.213l.556.758.56-.758h.207l-.653.897.688.939Z" style="fill:#d3d5d6;"/><path d="M209.849,133.039h-.207l-.594-.803-.593.803h-.207l.688-.939-.656-.897h.213l.556.758.56-.758h.207l-.653.897.688.939Z" style="fill:#d3d5d6;"/><path d="M58.439,109.369v2.677h-.277v-2.677h-1.087v-.26h2.451v.26h-1.087Z" style="fill:#d3d5d6;"/><path d="M61.894,112.046v-1.385h-1.712v1.385h-.277v-2.938h.277v1.289h1.712v-1.289h.277v2.938h-.277Z" style="fill:#d3d5d6;"/><path d="M62.851,112.046v-2.938h.277v2.938h-.277Z" style="fill:#d3d5d6;"/><path d="M65.365,109.86h-.281c-.004-.357-.223-.554-.546-.554s-.516.193-.516.521c0,.323.197.428.617.6.575.222.827.411.827.843,0,.521-.357.831-.877.831-.592,0-.936-.361-.94-.902h.281c.004.419.252.65.663.65.395,0,.592-.248.592-.566,0-.281-.193-.428-.671-.604-.482-.188-.772-.369-.772-.839,0-.428.272-.785.801-.785.491,0,.814.281.822.806Z" style="fill:#d3d5d6;"/><path d="M67.787,112.046l-1.204-2.938h.302l.965,2.371.059.18.055-.18.969-2.371h.302l-1.204,2.938h-.244Z" style="fill:#d3d5d6;"/><path d="M69.928,109.369v1.032h1.154v.26h-1.154v1.125h1.301v.26h-1.578v-2.938h1.578v.26h-1.301Z" style="fill:#d3d5d6;"/><path d="M73.751,112.046v-1.385h-1.712v1.385h-.277v-2.938h.277v1.289h1.712v-1.289h.277v2.938h-.277Z" style="fill:#d3d5d6;"/><path d="M74.709,112.046v-2.938h.277v2.938h-.277Z" style="fill:#d3d5d6;"/><path d="M78.222,109.939h-.311c-.13-.365-.445-.625-.969-.625-.676,0-1.154.537-1.154,1.263,0,.722.479,1.263,1.154,1.263.528,0,.848-.269.973-.634h.307c-.168.566-.617.894-1.28.894-.844,0-1.444-.655-1.444-1.523s.6-1.523,1.444-1.523c.659,0,1.112.332,1.28.885Z" style="fill:#d3d5d6;"/><path d="M80.32,111.786v.26h-1.632v-2.938h.277v2.677h1.355Z" style="fill:#d3d5d6;"/><path d="M81.03,109.369v1.032h1.154v.26h-1.154v1.125h1.301v.26h-1.578v-2.938h1.578v.26h-1.301Z" style="fill:#d3d5d6;"/><path d="M86.298,109.939h-.311c-.13-.365-.445-.625-.969-.625-.676,0-1.154.537-1.154,1.263,0,.722.479,1.263,1.154,1.263.528,0,.848-.269.973-.634h.307c-.168.566-.617.894-1.28.894-.844,0-1.444-.655-1.444-1.523s.6-1.523,1.444-1.523c.659,0,1.112.332,1.28.885Z" style="fill:#d3d5d6;"/><path d="M89.576,110.573c0,.868-.621,1.527-1.485,1.527-.869,0-1.49-.659-1.49-1.527s.621-1.519,1.49-1.519c.864,0,1.485.654,1.485,1.519ZM86.89,110.573c0,.722.495,1.267,1.2,1.267.701,0,1.196-.545,1.196-1.267s-.495-1.259-1.196-1.259c-.705,0-1.2.537-1.2,1.259Z" style="fill:#d3d5d6;"/><path d="M92.073,112.046l-1.595-2.283-.113-.176v2.459h-.277v-2.938h.264l1.586,2.271.126.185v-2.455h.277v2.938h-.269Z" style="fill:#d3d5d6;"/><path d="M93.299,109.369v1.07h1.07v.264h-1.07v1.343h-.277v-2.938h1.536v.26h-1.259Z" style="fill:#d3d5d6;"/><path d="M97.777,110.573c0,.868-.621,1.527-1.485,1.527-.869,0-1.49-.659-1.49-1.527s.621-1.519,1.49-1.519c.864,0,1.485.654,1.485,1.519ZM95.092,110.573c0,.722.495,1.267,1.2,1.267.701,0,1.196-.545,1.196-1.267s-.495-1.259-1.196-1.259c-.705,0-1.2.537-1.2,1.259Z" style="fill:#d3d5d6;"/><path d="M99.764,112.046l-.676-1.242c-.017.004-.038.004-.055.004h-.466v1.238h-.277v-2.938h.743c.566,0,.923.34.923.856,0,.398-.218.688-.583.797l.709,1.284h-.319ZM98.567,110.552h.466c.382,0,.646-.214.646-.587,0-.37-.26-.596-.646-.596h-.466v1.184Z" style="fill:#d3d5d6;"/><path d="M103.188,112.046v-2.362l-.076.197-1.02,2.165h-.21l-1.02-2.165-.076-.197v2.362h-.277v-2.938h.285l1.1,2.3.088.197.093-.197,1.104-2.3h.285v2.938h-.277Z" style="fill:#d3d5d6;"/><path d="M105.698,109.86h-.281c-.004-.357-.223-.554-.546-.554s-.516.193-.516.521c0,.323.197.428.617.6.575.222.827.411.827.843,0,.521-.357.831-.877.831-.592,0-.936-.361-.94-.902h.281c.004.419.252.65.663.65.395,0,.592-.248.592-.566,0-.281-.193-.428-.671-.604-.482-.188-.772-.369-.772-.839,0-.428.272-.785.801-.785.491,0,.814.281.822.806Z" style="fill:#d3d5d6;"/><path d="M108.238,109.369v2.677h-.277v-2.677h-1.087v-.26h2.451v.26h-1.087Z" style="fill:#d3d5d6;"/><path d="M112.301,110.573c0,.868-.621,1.527-1.485,1.527-.869,0-1.49-.659-1.49-1.527s.621-1.519,1.49-1.519c.864,0,1.485.654,1.485,1.519ZM109.615,110.573c0,.722.495,1.267,1.2,1.267.701,0,1.196-.545,1.196-1.267s-.495-1.259-1.196-1.259c-.705,0-1.2.537-1.2,1.259Z" style="fill:#d3d5d6;"/><path d="M115.789,112.046l-.348-.852h-1.36l-.34.852h-.311l1.2-2.938h.265l1.204,2.938h-.311ZM114.178,110.93h1.167l-.529-1.284-.055-.159-.054.159-.529,1.284Z" style="fill:#d3d5d6;"/><path d="M118.144,111.786v.26h-1.632v-2.938h.277v2.677h1.355Z" style="fill:#d3d5d6;"/><path d="M120.205,111.786v.26h-1.632v-2.938h.277v2.677h1.355Z" style="fill:#d3d5d6;"/><path d="M123.613,112.046l-.348-.852h-1.36l-.34.852h-.311l1.2-2.938h.265l1.204,2.938h-.311ZM122.002,110.93h1.167l-.529-1.284-.055-.159-.054.159-.529,1.284Z" style="fill:#d3d5d6;"/><path d="M126.09,109.981c0,.516-.357.864-.923.864h-.55v1.2h-.277v-2.938h.827c.566,0,.923.357.923.873ZM124.617,110.585h.55c.382,0,.646-.23.646-.604,0-.369-.26-.613-.646-.613h-.55v1.217Z" style="fill:#d3d5d6;"/><path d="M128.277,109.981c0,.516-.357.864-.923.864h-.55v1.2h-.277v-2.938h.827c.566,0,.923.357.923.873ZM126.804,110.585h.55c.382,0,.646-.23.646-.604,0-.369-.26-.613-.646-.613h-.55v1.217Z" style="fill:#d3d5d6;"/><path d="M130.342,111.786v.26h-1.632v-2.938h.277v2.677h1.355Z" style="fill:#d3d5d6;"/><path d="M130.774,112.046v-2.938h.277v2.938h-.277Z" style="fill:#d3d5d6;"/><path d="M134.287,109.939h-.311c-.13-.365-.445-.625-.969-.625-.676,0-1.154.537-1.154,1.263,0,.722.479,1.263,1.154,1.263.528,0,.848-.269.973-.634h.307c-.168.566-.617.894-1.28.894-.844,0-1.444-.655-1.444-1.523s.6-1.523,1.444-1.523c.659,0,1.112.332,1.28.885Z" style="fill:#d3d5d6;"/><path d="M136.776,112.046l-.348-.852h-1.36l-.34.852h-.311l1.2-2.938h.265l1.204,2.938h-.311ZM135.165,110.93h1.167l-.529-1.284-.055-.159-.054.159-.529,1.284Z" style="fill:#d3d5d6;"/><path d="M139.152,109.885c0,.273-.126.479-.345.613.34.109.533.386.533.722,0,.5-.356.827-.953.827h-.885v-2.938h.755c.549,0,.894.302.894.776ZM137.78,110.409h.5c.36,0,.596-.209.596-.516,0-.332-.239-.524-.617-.524h-.479v1.041ZM137.78,111.786h.608c.416,0,.671-.214.671-.571,0-.331-.247-.549-.671-.549h-.608v1.12Z" style="fill:#d3d5d6;"/><path d="M141.461,111.786v.26h-1.632v-2.938h.276v2.677h1.355Z" style="fill:#d3d5d6;"/><path d="M142.171,109.369v1.032h1.153v.26h-1.153v1.125h1.301v.26h-1.578v-2.938h1.578v.26h-1.301Z" style="fill:#d3d5d6;"/><path d="M145.973,112.101c-.705,0-1.129-.407-1.129-1.205v-1.788h.277v1.788c0,.625.289.944.852.944.554,0,.853-.315.853-.944v-1.788h.276v1.788c0,.797-.424,1.205-1.129,1.205Z" style="fill:#d3d5d6;"/><path d="M147.846,111.87c0,.126-.097.223-.223.223-.13,0-.227-.097-.227-.223,0-.13.097-.227.227-.227.126,0,.223.097.223.227Z" style="fill:#d3d5d6;"/><path d="M149.914,109.86h-.281c-.004-.357-.222-.554-.545-.554s-.517.193-.517.521c0,.323.197.428.617.6.574.222.826.411.826.843,0,.521-.356.831-.877.831-.592,0-.936-.361-.939-.902h.281c.004.419.251.65.663.65.394,0,.591-.248.591-.566,0-.281-.192-.428-.671-.604-.482-.188-.772-.369-.772-.839,0-.428.273-.785.802-.785.491,0,.814.281.822.806Z" style="fill:#d3d5d6;"/><path d="M150.768,111.87c0,.126-.097.223-.223.223-.13,0-.227-.097-.227-.223,0-.13.097-.227.227-.227.126,0,.223.097.223.227Z" style="fill:#d3d5d6;"/><path d="M152.434,109.369v1.07h1.069v.264h-1.069v1.343h-.277v-2.938h1.536v.26h-1.259Z" style="fill:#d3d5d6;"/><path d="M154.415,109.369v1.032h1.153v.26h-1.153v1.125h1.301v.26h-1.578v-2.938h1.578v.26h-1.301Z" style="fill:#d3d5d6;"/><path d="M158.759,110.577c0,.89-.575,1.469-1.478,1.469h-1.032v-2.938h1.032c.902,0,1.478.583,1.478,1.469ZM156.526,111.786h.755c.726,0,1.196-.458,1.196-1.208,0-.747-.462-1.208-1.196-1.208h-.755v2.417Z" style="fill:#d3d5d6;"/><path d="M159.569,109.369v1.032h1.153v.26h-1.153v1.125h1.301v.26h-1.578v-2.938h1.578v.26h-1.301Z" style="fill:#d3d5d6;"/><path d="M162.876,112.046l-.676-1.242c-.017.004-.037.004-.054.004h-.466v1.238h-.277v-2.938h.743c.566,0,.923.34.923.856,0,.398-.219.688-.583.797l.709,1.284h-.319ZM161.681,110.552h.466c.382,0,.646-.214.646-.587,0-.37-.26-.596-.646-.596h-.466v1.184Z" style="fill:#d3d5d6;"/><path d="M165.722,112.046l-.348-.852h-1.359l-.34.852h-.311l1.2-2.938h.264l1.204,2.938h-.311ZM164.11,110.93h1.167l-.528-1.284-.055-.159-.055.159-.529,1.284Z" style="fill:#d3d5d6;"/><path d="M168.077,111.786v.26h-1.632v-2.938h.276v2.677h1.355Z" style="fill:#d3d5d6;"/><path d="M172.063,112.046v-2.362l-.075.197-1.02,2.165h-.21l-1.02-2.165-.075-.197v2.362h-.277v-2.938h.285l1.1,2.3.088.197.093-.197,1.104-2.3h.285v2.938h-.277Z" style="fill:#d3d5d6;"/><path d="M175.825,110.573c0,.868-.621,1.527-1.485,1.527-.869,0-1.49-.659-1.49-1.527s.621-1.519,1.49-1.519c.864,0,1.485.654,1.485,1.519ZM173.14,110.573c0,.722.495,1.267,1.2,1.267.7,0,1.195-.545,1.195-1.267s-.495-1.259-1.195-1.259c-.705,0-1.2.537-1.2,1.259Z" style="fill:#d3d5d6;"/><path d="M177.186,109.369v2.677h-.277v-2.677h-1.087v-.26h2.451v.26h-1.087Z" style="fill:#d3d5d6;"/><path d="M181.249,110.573c0,.868-.621,1.527-1.485,1.527-.869,0-1.49-.659-1.49-1.527s.621-1.519,1.49-1.519c.864,0,1.485.654,1.485,1.519ZM178.563,110.573c0,.722.495,1.267,1.2,1.267.7,0,1.195-.545,1.195-1.267s-.495-1.259-1.195-1.259c-.705,0-1.2.537-1.2,1.259Z" style="fill:#d3d5d6;"/><path d="M183.233,112.046l-.676-1.242c-.017.004-.037.004-.054.004h-.466v1.238h-.277v-2.938h.743c.566,0,.923.34.923.856,0,.398-.219.688-.583.797l.709,1.284h-.319ZM182.038,110.552h.466c.382,0,.646-.214.646-.587,0-.37-.26-.596-.646-.596h-.466v1.184Z" style="fill:#d3d5d6;"/><path d="M185.8,112.046l-1.205-2.938h.303l.965,2.371.059.18.055-.18.97-2.371h.302l-1.204,2.938h-.243Z" style="fill:#d3d5d6;"/><path d="M187.94,109.369v1.032h1.153v.26h-1.153v1.125h1.301v.26h-1.578v-2.938h1.578v.26h-1.301Z" style="fill:#d3d5d6;"/><path d="M191.764,112.046v-1.385h-1.712v1.385h-.277v-2.938h.277v1.289h1.712v-1.289h.276v2.938h-.276Z" style="fill:#d3d5d6;"/><path d="M192.721,112.046v-2.938h.277v2.938h-.277Z" style="fill:#d3d5d6;"/><path d="M196.233,109.939h-.311c-.13-.365-.445-.625-.97-.625-.675,0-1.153.537-1.153,1.263,0,.722.479,1.263,1.153,1.263.529,0,.848-.269.974-.634h.307c-.168.566-.617.894-1.28.894-.843,0-1.443-.655-1.443-1.523s.601-1.523,1.443-1.523c.659,0,1.112.332,1.28.885Z" style="fill:#d3d5d6;"/><path d="M198.332,111.786v.26h-1.632v-2.938h.276v2.677h1.355Z" style="fill:#d3d5d6;"/><path d="M199.043,109.369v1.032h1.153v.26h-1.153v1.125h1.301v.26h-1.578v-2.938h1.578v.26h-1.301Z" style="fill:#d3d5d6;"/><path d="M58.938,114.897h-.281c-.004-.357-.223-.554-.546-.554s-.516.193-.516.521c0,.323.197.428.617.6.575.222.827.411.827.843,0,.521-.357.831-.877.831-.592,0-.936-.361-.94-.902h.281c.004.419.252.65.663.65.395,0,.592-.248.592-.566,0-.281-.193-.428-.671-.604-.482-.188-.772-.369-.772-.839,0-.428.272-.785.801-.785.491,0,.814.281.822.806Z" style="fill:#d3d5d6;"/><path d="M61.587,117.083l-.348-.852h-1.36l-.34.852h-.311l1.2-2.938h.264l1.205,2.938h-.311ZM59.976,115.967h1.167l-.529-1.284-.054-.159-.055.159-.529,1.284Z" style="fill:#d3d5d6;"/><path d="M62.591,114.406v1.07h1.07v.264h-1.07v1.343h-.277v-2.938h1.536v.26h-1.259Z" style="fill:#d3d5d6;"/><path d="M65.391,114.406v2.677h-.277v-2.677h-1.087v-.26h2.451v.26h-1.087Z" style="fill:#d3d5d6;"/><path d="M67.132,114.406v1.032h1.154v.26h-1.154v1.125h1.301v.26h-1.578v-2.938h1.578v.26h-1.301Z" style="fill:#d3d5d6;"/><path d="M70.163,117.083h-.281v-1.125l-1.188-1.813h.327l.881,1.347.118.197.118-.197.885-1.347h.327l-1.188,1.813v1.125Z" style="fill:#d3d5d6;"/><path d="M74.192,114.897h-.281c-.004-.357-.223-.554-.546-.554s-.516.193-.516.521c0,.323.197.428.617.6.575.222.827.411.827.843,0,.521-.357.831-.877.831-.592,0-.936-.361-.94-.902h.281c.004.419.252.65.663.65.395,0,.592-.248.592-.566,0-.281-.193-.428-.671-.604-.482-.188-.772-.369-.772-.839,0-.428.272-.785.801-.785.491,0,.814.281.822.806Z" style="fill:#d3d5d6;"/><path d="M75.821,114.406v2.677h-.277v-2.677h-1.087v-.26h2.451v.26h-1.087Z" style="fill:#d3d5d6;"/><path d="M78.881,117.083l-.348-.852h-1.36l-.34.852h-.311l1.2-2.938h.265l1.204,2.938h-.311ZM77.27,115.967h1.167l-.529-1.284-.055-.159-.054.159-.529,1.284Z" style="fill:#d3d5d6;"/><path d="M81.592,117.083l-1.595-2.283-.113-.176v2.459h-.277v-2.938h.265l1.586,2.271.126.185v-2.455h.277v2.938h-.269Z" style="fill:#d3d5d6;"/><path d="M85.051,115.614c0,.89-.575,1.469-1.477,1.469h-1.032v-2.938h1.032c.902,0,1.477.583,1.477,1.469ZM82.818,116.823h.755c.726,0,1.196-.458,1.196-1.208,0-.747-.461-1.208-1.196-1.208h-.755v2.417Z" style="fill:#d3d5d6;"/><path d="M87.494,117.083l-.348-.852h-1.36l-.34.852h-.311l1.2-2.938h.264l1.205,2.938h-.311ZM85.882,115.967h1.167l-.529-1.284-.054-.159-.055.159-.529,1.284Z" style="fill:#d3d5d6;"/><path d="M89.693,117.083l-.675-1.242c-.017.004-.038.004-.055.004h-.466v1.238h-.277v-2.938h.743c.566,0,.923.34.923.856,0,.398-.218.688-.583.797l.709,1.284h-.319ZM88.498,115.589h.466c.382,0,.646-.214.646-.587,0-.37-.26-.596-.646-.596h-.466v1.184Z" style="fill:#d3d5d6;"/><path d="M92.95,115.614c0,.89-.575,1.469-1.477,1.469h-1.032v-2.938h1.032c.902,0,1.477.583,1.477,1.469ZM90.718,116.823h.755c.726,0,1.196-.458,1.196-1.208,0-.747-.461-1.208-1.196-1.208h-.755v2.417Z" style="fill:#d3d5d6;"/><path d="M95.041,114.897h-.281c-.004-.357-.223-.554-.546-.554s-.516.193-.516.521c0,.323.197.428.617.6.575.222.827.411.827.843,0,.521-.357.831-.877.831-.592,0-.936-.361-.94-.902h.281c.004.419.252.65.663.65.395,0,.592-.248.592-.566,0-.281-.193-.428-.671-.604-.482-.188-.772-.369-.772-.839,0-.428.272-.785.801-.785.491,0,.814.281.822.806Z" style="fill:#d3d5d6;"/><path d="M96.523,117.083v-2.938h.277v2.938h-.277Z" style="fill:#d3d5d6;"/><path d="M99.465,117.083l-1.595-2.283-.113-.176v2.459h-.277v-2.938h.265l1.586,2.271.126.185v-2.455h.277v2.938h-.269Z" style="fill:#d3d5d6;"/><path d="M101.568,114.406v1.032h1.154v.26h-1.154v1.125h1.301v.26h-1.578v-2.938h1.578v.26h-1.301Z" style="fill:#d3d5d6;"/><path d="M103.68,114.406v1.07h1.07v.264h-1.07v1.343h-.277v-2.938h1.536v.26h-1.259Z" style="fill:#d3d5d6;"/><path d="M105.661,114.406v1.07h1.07v.264h-1.07v1.343h-.277v-2.938h1.536v.26h-1.259Z" style="fill:#d3d5d6;"/><path d="M107.642,114.406v1.032h1.154v.26h-1.154v1.125h1.301v.26h-1.578v-2.938h1.578v.26h-1.301Z" style="fill:#d3d5d6;"/><path d="M111.999,114.977h-.311c-.13-.365-.445-.625-.969-.625-.676,0-1.154.537-1.154,1.263,0,.722.479,1.263,1.154,1.263.528,0,.848-.269.973-.634h.307c-.168.566-.617.894-1.28.894-.844,0-1.444-.655-1.444-1.523s.6-1.523,1.444-1.523c.659,0,1.112.332,1.28.885Z" style="fill:#d3d5d6;"/><path d="M113.456,114.406v2.677h-.277v-2.677h-1.087v-.26h2.45v.26h-1.086Z" style="fill:#d3d5d6;"/><path d="M118.605,115.61c0,.868-.621,1.527-1.485,1.527-.869,0-1.49-.659-1.49-1.527s.621-1.519,1.49-1.519c.864,0,1.485.654,1.485,1.519ZM115.919,115.61c0,.722.495,1.267,1.2,1.267.701,0,1.196-.545,1.196-1.267s-.495-1.259-1.196-1.259c-.705,0-1.2.537-1.2,1.259Z" style="fill:#d3d5d6;"/><path d="M121.103,117.083l-1.595-2.283-.113-.176v2.459h-.277v-2.938h.265l1.586,2.271.126.185v-2.455h.277v2.938h-.269Z" style="fill:#d3d5d6;"/><path d="M123.987,114.406v2.677h-.277v-2.677h-1.087v-.26h2.45v.26h-1.086Z" style="fill:#d3d5d6;"/><path d="M127.441,117.083v-1.385h-1.712v1.385h-.277v-2.938h.277v1.289h1.712v-1.289h.277v2.938h-.277Z" style="fill:#d3d5d6;"/><path d="M128.676,114.406v1.032h1.154v.26h-1.154v1.125h1.301v.26h-1.578v-2.938h1.578v.26h-1.301Z" style="fill:#d3d5d6;"/><path d="M133.897,115.614c0,.89-.575,1.469-1.477,1.469h-1.032v-2.938h1.032c.902,0,1.477.583,1.477,1.469ZM131.664,116.823h.755c.726,0,1.196-.458,1.196-1.208,0-.747-.461-1.208-1.196-1.208h-.755v2.417Z" style="fill:#d3d5d6;"/><path d="M136.34,117.083l-.348-.852h-1.36l-.34.852h-.311l1.2-2.938h.265l1.204,2.938h-.311ZM134.729,115.967h1.167l-.529-1.284-.055-.159-.054.159-.529,1.284Z" style="fill:#d3d5d6;"/><path d="M137.621,114.406v2.677h-.277v-2.677h-1.087v-.26h2.45v.26h-1.086Z" style="fill:#d3d5d6;"/><path d="M139.363,114.406v1.032h1.153v.26h-1.153v1.125h1.301v.26h-1.578v-2.938h1.578v.26h-1.301Z" style="fill:#d3d5d6;"/><path d="M144.882,115.61c0,.868-.621,1.527-1.485,1.527-.869,0-1.49-.659-1.49-1.527s.621-1.519,1.49-1.519c.864,0,1.485.654,1.485,1.519ZM142.196,115.61c0,.722.495,1.267,1.2,1.267.7,0,1.195-.545,1.195-1.267s-.495-1.259-1.195-1.259c-.705,0-1.2.537-1.2,1.259Z" style="fill:#d3d5d6;"/><path d="M145.672,114.406v1.07h1.069v.264h-1.069v1.343h-.277v-2.938h1.536v.26h-1.259Z" style="fill:#d3d5d6;"/><path d="M150.93,117.083v-2.362l-.075.197-1.02,2.165h-.21l-1.02-2.165-.075-.197v2.362h-.277v-2.938h.285l1.1,2.3.088.197.093-.197,1.104-2.3h.285v2.938h-.277Z" style="fill:#d3d5d6;"/><path d="M153.981,117.083l-.348-.852h-1.359l-.34.852h-.311l1.2-2.938h.264l1.204,2.938h-.311ZM152.37,115.967h1.167l-.528-1.284-.055-.159-.055.159-.529,1.284Z" style="fill:#d3d5d6;"/><path d="M156.692,117.083l-1.594-2.283-.113-.176v2.459h-.277v-2.938h.265l1.586,2.271.126.185v-2.455h.276v2.938h-.269Z" style="fill:#d3d5d6;"/><path d="M158.733,117.138c-.705,0-1.129-.407-1.129-1.205v-1.788h.277v1.788c0,.625.289.944.852.944.554,0,.852-.315.852-.944v-1.788h.277v1.788c0,.797-.424,1.205-1.129,1.205Z" style="fill:#d3d5d6;"/><path d="M160.782,114.406v1.07h1.069v.264h-1.069v1.343h-.277v-2.938h1.536v.26h-1.259Z" style="fill:#d3d5d6;"/><path d="M164.277,117.083l-.348-.852h-1.359l-.34.852h-.311l1.2-2.938h.264l1.204,2.938h-.311ZM162.666,115.967h1.167l-.528-1.284-.055-.159-.055.159-.529,1.284Z" style="fill:#d3d5d6;"/><path d="M167.371,114.977h-.311c-.13-.365-.445-.625-.97-.625-.676,0-1.153.537-1.153,1.263,0,.722.478,1.263,1.153,1.263.529,0,.848-.269.974-.634h.307c-.168.566-.617.894-1.28.894-.843,0-1.443-.655-1.443-1.523s.601-1.523,1.443-1.523c.659,0,1.112.332,1.28.885Z" style="fill:#d3d5d6;"/><path d="M168.828,114.406v2.677h-.277v-2.677h-1.087v-.26h2.451v.26h-1.087Z" style="fill:#d3d5d6;"/><path d="M171.385,117.138c-.705,0-1.129-.407-1.129-1.205v-1.788h.277v1.788c0,.625.289.944.852.944.554,0,.853-.315.853-.944v-1.788h.276v1.788c0,.797-.424,1.205-1.129,1.205Z" style="fill:#d3d5d6;"/><path d="M174.629,117.083l-.676-1.242c-.017.004-.037.004-.054.004h-.466v1.238h-.277v-2.938h.743c.566,0,.923.34.923.856,0,.398-.219.688-.583.797l.709,1.284h-.319ZM173.434,115.589h.466c.382,0,.646-.214.646-.587,0-.37-.26-.596-.646-.596h-.466v1.184Z" style="fill:#d3d5d6;"/><path d="M175.654,114.406v1.032h1.153v.26h-1.153v1.125h1.301v.26h-1.578v-2.938h1.578v.26h-1.301Z" style="fill:#d3d5d6;"/><path d="M179.922,114.897h-.281c-.004-.357-.222-.554-.545-.554s-.517.193-.517.521c0,.323.197.428.617.6.574.222.826.411.826.843,0,.521-.356.831-.877.831-.592,0-.936-.361-.939-.902h.281c.004.419.251.65.663.65.394,0,.591-.248.591-.566,0-.281-.192-.428-.671-.604-.482-.188-.772-.369-.772-.839,0-.428.273-.785.802-.785.491,0,.814.281.822.806Z" style="fill:#d3d5d6;"/><path d="M182.517,117.083v-1.385h-1.712v1.385h-.277v-2.938h.277v1.289h1.712v-1.289h.276v2.938h-.276Z" style="fill:#d3d5d6;"/><path d="M186.281,115.61c0,.868-.621,1.527-1.485,1.527-.869,0-1.49-.659-1.49-1.527s.621-1.519,1.49-1.519c.864,0,1.485.654,1.485,1.519ZM183.596,115.61c0,.722.495,1.267,1.2,1.267.7,0,1.195-.545,1.195-1.267s-.495-1.259-1.195-1.259c-.705,0-1.2.537-1.2,1.259Z" style="fill:#d3d5d6;"/><path d="M189.102,117.083l-.709-2.228-.051-.193-.05.193-.705,2.228h-.252l-.961-2.938h.294l.747,2.279.05.209.046-.209.722-2.279h.219l.722,2.279.046.209.055-.209.747-2.279h.289l-.956,2.938h-.252Z" style="fill:#d3d5d6;"/><path d="M192.72,117.083l-1.594-2.283-.113-.176v2.459h-.277v-2.938h.265l1.586,2.271.126.185v-2.455h.276v2.938h-.269Z" style="fill:#d3d5d6;"/><path d="M196.645,117.083l-.348-.852h-1.359l-.34.852h-.311l1.2-2.938h.264l1.204,2.938h-.311ZM195.033,115.967h1.167l-.528-1.284-.055-.159-.055.159-.529,1.284Z" style="fill:#d3d5d6;"/><path d="M199.021,114.922c0,.273-.126.479-.345.613.34.109.533.386.533.722,0,.5-.356.827-.952.827h-.886v-2.938h.755c.55,0,.895.302.895.776ZM197.648,115.446h.499c.361,0,.596-.209.596-.516,0-.332-.239-.524-.617-.524h-.478v1.041ZM197.648,116.823h.608c.415,0,.671-.214.671-.571,0-.331-.247-.549-.671-.549h-.608v1.12Z" style="fill:#d3d5d6;"/><path d="M202.509,115.61c0,.868-.621,1.527-1.485,1.527-.869,0-1.49-.659-1.49-1.527s.621-1.519,1.49-1.519c.864,0,1.485.654,1.485,1.519ZM199.823,115.61c0,.722.495,1.267,1.2,1.267.7,0,1.195-.545,1.195-1.267s-.495-1.259-1.195-1.259c-.705,0-1.2.537-1.2,1.259Z" style="fill:#d3d5d6;"/><path d="M203.772,117.083l-1.205-2.938h.303l.965,2.371.059.18.055-.18.97-2.371h.302l-1.204,2.938h-.243Z" style="fill:#d3d5d6;"/><path d="M205.914,114.406v1.032h1.153v.26h-1.153v1.125h1.301v.26h-1.578v-2.938h1.578v.26h-1.301Z" style="fill:#d3d5d6;"/><path d="M208.029,116.907c0,.126-.097.223-.223.223-.13,0-.227-.097-.227-.223,0-.13.097-.227.227-.227.126,0,.223.097.223.227Z" style="fill:#d3d5d6;"/><path d="M104.313,95.945l-.771-2.423-.055-.209-.055.209-.767,2.423h-.273l-1.045-3.194h.319l.812,2.478.055.228.05-.228.785-2.478h.237l.785,2.478.05.228.059-.228.812-2.478h.314l-1.04,3.194h-.274Z" style="fill:#d3d5d6;"/><path d="M106.093,95.945v-3.194h.301v3.194h-.301Z" style="fill:#d3d5d6;"/><path d="M108.284,93.035v2.911h-.301v-2.911h-1.182v-.283h2.665v.283h-1.182Z" style="fill:#d3d5d6;"/><path d="M112.042,95.945v-1.505h-1.861v1.505h-.301v-3.194h.301v1.401h1.861v-1.401h.301v3.194h-.301Z" style="fill:#d3d5d6;"/><path d="M115.191,93.035v2.911h-.301v-2.911h-1.182v-.283h2.665v.283h-1.182Z" style="fill:#d3d5d6;"/><path d="M116.787,95.945v-3.194h.301v3.194h-.301Z" style="fill:#d3d5d6;"/><path d="M119.43,95.945l-.735-1.351c-.018.005-.041.005-.059.005h-.506v1.346h-.301v-3.194h.808c.616,0,1.003.37,1.003.931,0,.433-.237.748-.634.867l.771,1.396h-.347ZM118.129,94.321h.506c.415,0,.703-.233.703-.639,0-.402-.283-.648-.703-.648h-.506v1.287Z" style="fill:#d3d5d6;"/><path d="M120.546,93.035v1.122h1.254v.283h-1.254v1.223h1.414v.283h-1.715v-3.194h1.715v.283h-1.414Z" style="fill:#d3d5d6;"/><path d="M124.235,93.568h-.306c-.004-.388-.242-.602-.593-.602s-.562.209-.562.565c0,.352.215.465.671.652.625.242.899.447.899.917,0,.566-.388.903-.954.903-.644,0-1.018-.392-1.022-.98h.306c.004.456.273.707.721.707.429,0,.644-.269.644-.616,0-.306-.21-.465-.73-.657-.525-.206-.84-.401-.84-.913,0-.465.297-.853.872-.853.534,0,.885.306.894.876Z" style="fill:#d3d5d6;"/><path d="M125.201,93.851c0,.137-.105.242-.242.242-.142,0-.247-.104-.247-.242,0-.141.105-.246.247-.246.137,0,.242.105.242.246ZM125.201,95.754c0,.137-.105.242-.242.242-.142,0-.247-.105-.247-.242,0-.142.105-.247.247-.247.137,0,.242.105.242.247Z" style="fill:#d3d5d6;"/><path d="M144.292,95.945l-.734-1.351c-.019.005-.041.005-.06.005h-.506v1.346h-.302v-3.194h.808c.616,0,1.004.37,1.004.931,0,.433-.237.748-.634.867l.771,1.396h-.347ZM142.992,94.321h.506c.415,0,.703-.233.703-.639,0-.402-.283-.648-.703-.648h-.506v1.287Z" style="fill:#d3d5d6;"/><path d="M145.106,95.945v-3.194h.302v3.194h-.302Z" style="fill:#d3d5d6;"/><path d="M149.06,95.945v-2.569l-.082.215-1.108,2.354h-.229l-1.108-2.354-.082-.215v2.569h-.302v-3.194h.311l1.195,2.5.096.214.101-.214,1.2-2.5h.31v3.194h-.301Z" style="fill:#d3d5d6;"/><path d="M150.405,93.851c0,.137-.104.242-.241.242-.142,0-.246-.104-.246-.242,0-.141.104-.246.246-.246.137,0,.241.105.241.246ZM150.405,95.754c0,.137-.104.242-.241.242-.142,0-.246-.105-.246-.242,0-.142.104-.247.246-.247.137,0,.241.105.241.247Z" style="fill:#d3d5d6;"/><path d="M168.708,93.655h-.338c-.142-.396-.483-.68-1.054-.68-.735,0-1.255.584-1.255,1.374,0,.785.52,1.373,1.255,1.373.574,0,.921-.292,1.059-.689h.333c-.183.616-.671.972-1.392.972-.917,0-1.569-.711-1.569-1.656s.652-1.656,1.569-1.656c.716,0,1.209.36,1.392.962Z" style="fill:#d3d5d6;"/><path d="M172.275,94.344c0,.944-.676,1.661-1.615,1.661-.944,0-1.619-.716-1.619-1.661,0-.939.675-1.651,1.619-1.651.939,0,1.615.712,1.615,1.651ZM169.355,94.344c0,.785.538,1.378,1.305,1.378.762,0,1.301-.593,1.301-1.378s-.539-1.369-1.301-1.369c-.767,0-1.305.584-1.305,1.369Z" style="fill:#d3d5d6;"/><path d="M174.606,95.663v.283h-1.774v-3.194h.301v2.911h1.474Z" style="fill:#d3d5d6;"/><path d="M177.807,94.349c0,.967-.625,1.597-1.605,1.597h-1.123v-3.194h1.123c.98,0,1.605.634,1.605,1.597ZM175.38,95.663h.821c.789,0,1.3-.498,1.3-1.314s-.502-1.314-1.3-1.314h-.821v2.628Z" style="fill:#d3d5d6;"/><path d="M180.495,93.035v2.911h-.302v-2.911h-1.182v-.283h2.665v.283h-1.182Z" style="fill:#d3d5d6;"/><path d="M182.09,95.945v-3.194h.302v3.194h-.302Z" style="fill:#d3d5d6;"/><path d="M184.733,95.945l-.734-1.351c-.019.005-.041.005-.06.005h-.506v1.346h-.302v-3.194h.808c.616,0,1.004.37,1.004.931,0,.433-.237.748-.634.867l.771,1.396h-.347ZM183.434,94.321h.506c.415,0,.703-.233.703-.639,0-.402-.283-.648-.703-.648h-.506v1.287Z" style="fill:#d3d5d6;"/><path d="M185.85,93.035v1.122h1.255v.283h-1.255v1.223h1.414v.283h-1.716v-3.194h1.716v.283h-1.414Z" style="fill:#d3d5d6;"/><path d="M190.704,93.701c0,.561-.389.94-1.004.94h-.598v1.305h-.302v-3.194h.899c.615,0,1.004.388,1.004.949ZM189.103,94.357h.598c.415,0,.702-.251.702-.657,0-.401-.282-.666-.702-.666h-.598v1.323Z" style="fill:#d3d5d6;"/><path d="M192.782,95.945l-.734-1.351c-.019.005-.041.005-.06.005h-.506v1.346h-.302v-3.194h.808c.616,0,1.004.37,1.004.931,0,.433-.237.748-.634.867l.771,1.396h-.347ZM191.482,94.321h.506c.415,0,.703-.233.703-.639,0-.402-.283-.648-.703-.648h-.506v1.287Z" style="fill:#d3d5d6;"/><path d="M193.898,93.035v1.122h1.255v.283h-1.255v1.223h1.414v.283h-1.716v-3.194h1.716v.283h-1.414Z" style="fill:#d3d5d6;"/><path d="M197.588,93.568h-.306c-.005-.388-.242-.602-.594-.602s-.561.209-.561.565c0,.352.214.465.67.652.625.242.899.447.899.917,0,.566-.388.903-.954.903-.643,0-1.017-.392-1.021-.98h.306c.005.456.273.707.721.707.429,0,.644-.269.644-.616,0-.306-.21-.465-.73-.657-.524-.206-.839-.401-.839-.913,0-.465.296-.853.871-.853.534,0,.885.306.895.876Z" style="fill:#d3d5d6;"/><path d="M199.94,93.568h-.306c-.005-.388-.242-.602-.594-.602s-.561.209-.561.565c0,.352.214.465.67.652.626.242.899.447.899.917,0,.566-.388.903-.954.903-.643,0-1.017-.392-1.021-.98h.306c.005.456.273.707.721.707.429,0,.644-.269.644-.616,0-.306-.21-.465-.73-.657-.524-.206-.839-.401-.839-.913,0-.465.296-.853.871-.853.534,0,.885.306.895.876Z" style="fill:#d3d5d6;"/><path d="M201.786,96.004c-.767,0-1.228-.442-1.228-1.309v-1.944h.302v1.944c0,.68.314,1.026.926,1.026.603,0,.926-.342.926-1.026v-1.944h.302v1.944c0,.867-.461,1.309-1.228,1.309Z" style="fill:#d3d5d6;"/><path d="M205.316,95.945l-.734-1.351c-.019.005-.041.005-.06.005h-.506v1.346h-.302v-3.194h.808c.616,0,1.004.37,1.004.931,0,.433-.237.748-.634.867l.771,1.396h-.347ZM204.017,94.321h.506c.415,0,.703-.233.703-.639,0-.402-.283-.648-.703-.648h-.506v1.287Z" style="fill:#d3d5d6;"/><path d="M206.434,93.035v1.122h1.255v.283h-1.255v1.223h1.414v.283h-1.716v-3.194h1.716v.283h-1.414Z" style="fill:#d3d5d6;"/><path d="M208.734,93.851c0,.137-.104.242-.241.242-.142,0-.246-.104-.246-.242,0-.141.104-.246.246-.246.137,0,.241.105.241.246ZM208.734,95.754c0,.137-.104.242-.241.242-.142,0-.246-.105-.246-.242,0-.142.104-.247.246-.247.137,0,.241.105.241.247Z" style="fill:#d3d5d6;"/><path d="M167.972,102.204h-.298l-.852-1.153-.852,1.153h-.298l.987-1.349-.942-1.289h.306l.799,1.089.803-1.089h.298l-.938,1.289.987,1.349Z" style="fill:#d3d5d6;"/><path d="M170.501,102.204h-.298l-.852-1.153-.852,1.153h-.298l.987-1.349-.942-1.289h.306l.799,1.089.803-1.089h.298l-.938,1.289.987,1.349Z" style="fill:#d3d5d6;"/><path d="M173.03,102.204h-.298l-.852-1.153-.852,1.153h-.298l.987-1.349-.942-1.289h.306l.799,1.089.803-1.089h.298l-.938,1.289.987,1.349Z" style="fill:#d3d5d6;"/><path d="M176.353,102.204h-.32l-1.018-1.278-.498.588v.69h-.248v-2.638h.248v1.575l1.305-1.575h.316l-.965,1.165,1.18,1.474Z" style="fill:#d3d5d6;"/><path d="M178.309,100.35c0,.464-.32.776-.829.776h-.494v1.078h-.248v-2.638h.742c.509,0,.829.32.829.784ZM176.985,100.893h.494c.343,0,.58-.208.58-.543,0-.332-.233-.55-.58-.55h-.494v1.093Z" style="fill:#d3d5d6;"/><path d="M180.214,102.204l-.312-.765h-1.221l-.306.765h-.279l1.078-2.638h.237l1.082,2.638h-.279ZM178.767,101.202h1.048l-.475-1.153-.049-.143-.049.143-.476,1.153Z" style="fill:#d3d5d6;"/><path d="M181.142,102.064c0,.223-.109.468-.257.629l-.086-.034c.079-.136.12-.275.139-.426-.102-.008-.181-.079-.181-.188,0-.105.083-.188.192-.188s.192.083.192.207Z" style="fill:#d3d5d6;"/><path d="M184.498,102.204h-.298l-.852-1.153-.852,1.153h-.298l.987-1.349-.942-1.289h.306l.799,1.089.803-1.089h.298l-.938,1.289.987,1.349Z" style="fill:#d3d5d6;"/><path d="M187.027,102.204h-.298l-.852-1.153-.852,1.153h-.298l.987-1.349-.942-1.289h.306l.799,1.089.803-1.089h.298l-.938,1.289.987,1.349Z" style="fill:#d3d5d6;"/><path d="M189.811,100.35c0,.464-.32.776-.829.776h-.494v1.078h-.248v-2.638h.742c.509,0,.829.32.829.784ZM188.487,100.893h.494c.343,0,.58-.208.58-.543,0-.332-.233-.55-.58-.55h-.494v1.093Z" style="fill:#d3d5d6;"/><path d="M191.604,100.241h-.252c-.004-.321-.2-.498-.49-.498s-.464.173-.464.467c0,.29.178.384.555.539.516.2.742.369.742.757,0,.467-.32.746-.788.746-.531,0-.84-.324-.844-.81h.253c.003.377.226.584.595.584.354,0,.531-.222.531-.509,0-.252-.173-.384-.603-.542-.434-.17-.693-.332-.693-.754,0-.384.245-.705.72-.705.441,0,.731.252.738.724Z" style="fill:#d3d5d6;"/><path d="M192.15,102.204v-2.638h.248v2.638h-.248Z" style="fill:#d3d5d6;"/><path d="M143.34,102.204h-.298l-.852-1.153-.852,1.153h-.298l.987-1.349-.942-1.289h.306l.799,1.089.803-1.089h.298l-.938,1.289.987,1.349Z" style="fill:#d3d5d6;"/><path d="M145.869,102.204h-.298l-.852-1.153-.852,1.153h-.298l.987-1.349-.942-1.289h.306l.799,1.089.803-1.089h.298l-.938,1.289.987,1.349Z" style="fill:#d3d5d6;"/><path d="M148.398,102.204h-.298l-.852-1.153-.852,1.153h-.298l.987-1.349-.942-1.289h.306l.799,1.089.803-1.089h.298l-.938,1.289.987,1.349Z" style="fill:#d3d5d6;"/><path d="M150.928,102.204h-.298l-.852-1.153-.852,1.153h-.298l.987-1.349-.942-1.289h.306l.799,1.089.803-1.089h.298l-.938,1.289.987,1.349Z" style="fill:#d3d5d6;"/><path d="M151.603,102.046c0,.113-.087.2-.199.2-.117,0-.204-.087-.204-.2,0-.117.087-.204.204-.204.112,0,.199.087.199.204Z" style="fill:#d3d5d6;"/><path d="M154.17,102.204h-.298l-.852-1.153-.852,1.153h-.298l.987-1.349-.942-1.289h.306l.799,1.089.803-1.089h.298l-.938,1.289.987,1.349Z" style="fill:#d3d5d6;"/><path d="M156.699,102.204h-.298l-.852-1.153-.852,1.153h-.298l.987-1.349-.942-1.289h.306l.799,1.089.803-1.089h.298l-.938,1.289.987,1.349Z" style="fill:#d3d5d6;"/><path d="M61.129,52.405c0-.356-.241-.702-.759-.702h-1.341v2.109h.452v-1.73h.823c.253,0,.374.124.374.322,0,.202-.121.325-.374.325h-.35c-.158,0-.248.089-.248.248v.132h.251c.118,0,.205.039.277.133l.446.569h.554l-.621-.789c.331-.075.515-.292.515-.618" style="fill:#d3d5d6;"/><rect x="62.302" y="51.702" width=".452" height="2.109" style="fill:#d3d5d6;"/><polygon points="66.238 51.702 65.756 51.702 64.991 53.336 64.225 51.702 63.743 51.702 64.75 53.812 65.232 53.812 66.238 51.702" style="fill:#d3d5d6;"/><rect x="67.235" y="51.702" width=".452" height="2.109" style="fill:#d3d5d6;"/><path d="M70.195,51.702h-.482l-1.037,2.109h.482l.13-.271c.054-.115.139-.166.265-.166h.783l-.093-.199c-.057-.124-.151-.181-.289-.181h-.401l.401-.832.796,1.648h.482l-1.037-2.109Z" style="fill:#d3d5d6;"/><polygon points="74.439 51.702 74.002 51.702 74.002 53.269 72.74 51.702 72.221 51.702 72.221 53.812 72.658 53.812 72.658 52.245 73.921 53.812 74.439 53.812 74.439 51.702" style="fill:#d3d5d6;"/><path d="M71.713,44.728c-.566-.583-3.624-3.739-4.198-4.194-.2-.161-.457-.278-.781-.278h0c-.323,0-.581.117-.781.278-.573.455-3.632,3.61-4.198,4.194-.046.053-.005.137.065.137.283,0,.937.001,1.332.001.139,0,.18-.024.267-.118.087-.094.522-.561.522-.561.553-.596,1.902-1.912,2.395-2.328.185-.156.394-.151.397-.151h0s.212-.005.397.151c.493.415,1.842,1.732,2.395,2.328,0,0,.435.467.522.561.087.094.128.118.267.118.394,0,1.049-.001,1.332-.001.07,0,.111-.083.065-.137" style="fill:#d3d5d6;"/><path d="M61.755,45.479c.566.583,3.624,3.739,4.198,4.194.2.161.457.278.781.278h0c.323,0,.581-.118.781-.278.573-.455,3.632-3.61,4.198-4.194.046-.053.005-.137-.065-.137-.283,0-.937-.001-1.332-.001-.139,0-.18.024-.267.118-.087.094-.522.561-.522.561-.553.596-1.902,1.912-2.395,2.328-.185.156-.394.151-.397.151h0s-.212.005-.397-.151c-.493-.415-1.842-1.732-2.395-2.328,0,0-.435-.467-.522-.561-.087-.094-.128-.118-.267-.118-.394,0-1.049.001-1.332.001-.07,0-.111.083-.065.137" style="fill:#d3d5d6;"/><path d="M66.364,46.146c-.252-.23-.697-.661-.862-.854-.075-.085-.07-.192-.07-.192,0,0-.005-.107.07-.192.165-.193.61-.624.862-.854.103-.096.128-.157.128-.275,0-.365,0-1.05,0-1.31,0-.053-.061-.085-.109-.041-.562.52-1.815,1.762-2.236,2.243-.201.213-.182.43-.182.43h0,0s-.019.217.182.43c.42.481,1.673,1.723,2.236,2.243.05.044.109.016.109-.046,0-.26,0-.941,0-1.306,0-.118-.024-.179-.128-.275" style="fill:#d3d5d6;"/><path d="M67.104,46.147c.252-.23.697-.661.862-.854.075-.085.07-.192.07-.192h0,0s.005-.107-.07-.192c-.165-.193-.609-.624-.862-.854-.103-.096-.128-.157-.128-.275,0-.365,0-1.046,0-1.306,0-.062.059-.089.109-.046.562.52,1.815,1.762,2.236,2.243.201.213.182.43.182.43,0,0,.019.217-.182.43-.42.481-1.673,1.723-2.236,2.243-.05.044-.109.016-.109-.046,0-.26,0-.941,0-1.306,0-.118.024-.179.128-.275" style="fill:#d3d5d6;"/></g></svg>