<?xml version="1.0" encoding="UTF-8"?><svg xmlns="http://www.w3.org/2000/svg" width="487.4965" height="247.6293" xmlns:xlink="http://www.w3.org/1999/xlink" viewBox="0 0 487.4965 247.6293"><defs><clipPath id="uuid-c921f895-9990-429e-a34b-789d96eb3dba"><rect width="487.4965" height="252.078" style="fill:none; stroke-width:0px;"/></clipPath></defs><g id="uuid-f09c639e-d815-4866-a4df-77ba5a33bfc8"><g style="clip-path:url(#uuid-c921f895-9990-429e-a34b-789d96eb3dba);"><path d="m379.0088,107.5613c-5.0523,3.883-8.9304,7.095-9.7938,7.8992-2.0723,1.9341-1.3815,3.3797-1.3815,3.3797-2.8271.0691-3.5672.824-3.5672.824-2.8419,3.064-23.6237,23.4066-28,29.9736-4.3764,6.5621-4.3764,11.5947-4.1593,14.4367.222,2.8419.8782,7.6575,1.5345,13.7805.2862,2.6939,2.0574,5.4323,4.6724,8.1509,3.3353,3.4686,8.0472,6.9174,12.8282,10.228,3.2169,2.2252,21.4478,13.1489,42.9153,25.8883-6.1131-3.5524-72.2278-42.0223-111.9361-65.6262-8.8515-5.2596-16.3905-9.779-21.6599-13.0108-.0247-.0148-.0493-.0296-.0691-.0444-3.1626-2.0871-5.0721-7.169-2.3239-11.5947,2.8025-4.5047,33.0623-33.4175,60.6281-49.7784,0,0,6.5029-4.1494,14.9054,0,8.4074,4.1445,45.407,25.4936,45.407,25.4936Z" style="fill:#f2a900; stroke-width:0px;"/><path d="m344.845,140.4703l-41.5464-24.2182,1.3105-2.0656c.1048-.1651.2306-.3159.3743-.4486l1.4855-1.3712c.7136-.6587,1.7689-.7861,2.6187-.3161l39.7443,23.3694" style="fill:none; stroke:#000001; stroke-miterlimit:10; stroke-width:.5px;"/><line x1="304.7669" y1="113.9378" x2="346.6017" y2="138.4845" style="fill:none; stroke:#000001; stroke-miterlimit:10; stroke-width:.5px;"/><path d="m-3.051,348.1944c47.7386-48.0355,120.808-108.1148,160.1031-125.0019,39.2951-16.8871,96.3234-14.853,128.2773,14.2891,29.0735,26.5152,107.1684,102.9466,118.8595,120.1585" style="fill:none; stroke:#a7abae; stroke-miterlimit:10; stroke-width:1.5px;"/><path d="m587.173,337.1708s-2.1661,3.5991-5.8846,2.8023-24.7016-3.9841-28.6858-5.5778c-3.9841-1.5937-48.872-22.3112-70.1208-39.5757,0,0-6.5843-4.9442-7.3514-14.5322-.767-9.588-3.8352-33.9416-2.1094-41.9955s13.2315-58.8704,22.8195-84.1828c4.2187-11.6974,9.9715-17.2584,13.0397-20.7101s79.7723-79.0052,87.2509-85.1416c7.4787-6.1363,14.5738-10.3551,36.0509-3.2599,21.4771,7.0951,55.6105,25.6959,63.6644,36.2427" style="fill:none; stroke:#a7abae; stroke-miterlimit:10; stroke-width:1.5px;"/><path d="m430.804,327.5944c-42.2683-26.1054-162.0639-102.7531-172.7838-110.5251-10.72-7.772-16.3479-13.936-19.2959-23.8519-2.948-9.916-7.0238-30.2839-8.6039-37.7879-1.5801-7.504-1.0441-15.0079,4.0479-23.5839,0,0-1.1855-7.9827,5.7388-15.9141,6.9243-7.9314,41.5456-41.3371,68.2354-53.905,11.9601-5.5177,23.6684-7.6579,42.4268,1.1547,18.7584,8.8127,54.3869,27.697,54.3869,27.697" style="fill:none; stroke:#a7abae; stroke-miterlimit:10; stroke-width:1.5px;"/><path d="m346.7936,61.516c39.1003-43.9569,100.3687-90.5036,127.2142-96.349,26.8455-5.8454,47.1962-6.2784,58.021-6.0619s27.928,3.6804,48.4951,19.2682c20.5671,15.5877,93.2997,78.6588,109.975,97.5669" style="fill:none; stroke:#a7abae; stroke-miterlimit:10; stroke-width:1.5px;"/><path d="m362.9453-224.1414c-23.3816,18.06-81.4025,62.2252-86.815,66.1222s-11.4743,9.5258-10.6083,21.2166,1.9485,36.9861,1.9485,43.0827c0,6.5021-1.9431,11.8031-7.1444,16.2372-6.4951,5.5372-80.5897,57.5525-122.3735,85.264" style="fill:none; stroke:#a7abae; stroke-miterlimit:10; stroke-width:1.5px;"/><path d="m241.1257-63.4299s.195,14.6975,0,19.3624-2.7395,15.2669-11.7513,22.3703c-9.0117,7.1034-82.3778,59.9015-82.3778,59.9015" style="fill:none; stroke:#a7abae; stroke-miterlimit:10; stroke-width:1.5px;"/><path d="m124.125,165.0096c5.9459-5.8134,10.6257-12.7942,13.7101-20.5166,5.4531-13.6526,9.3913-28.3677,11.5114-43.8694C161.1315,14.4531,112.2729-63.3907,40.2177-73.2452-31.8375-83.0998-99.8034-21.2334-111.5884,64.9372c-11.785,86.1706,37.0736,164.0144,109.1288,173.8689,3.7079.5071,7.4049.8243,11.084.958,11.5595.4202,22.9932-2.5556,32.8954-8.5342,22.5486-13.6142,56.5071-40.7038,82.6052-66.2203Z" style="fill:none; stroke:#a7abae; stroke-miterlimit:10; stroke-width:1.5px;"/><path d="m-73.7643,44.8765S-24.1346,14.0434-21.0195,12.1744s8.0992-2.4921,10.5913-2.2844,37.5886-.8307,56.279-1.8567C64.5412,7.0072,86.762-.0782,93.1999-2.5703c6.4378-2.4921,6.0225-9.1375,4.1534-12.3795s-9.3452-9.8413-15.838-11.918c-2.5908-.8287-4.7255-1.5251-6.3556-2.0628-2.3524-.776-4.5248-2.0041-6.4239-3.5945-12.1533-10.1774-23.6192-13.2753-23.6192-13.2753-2.0167-.4299-4.0594-.7874-6.1268-1.0702C-3.1267-52.6307-44.7122-26.246-66.1794,17.7448c-8.8347,18.1042-9.8288,50.9852-13.4035,65.0185-2.1814,8.5636-6.6151,24.6469-4.6111,33.8333" style="fill:none; stroke:#a7abae; stroke-miterlimit:10; stroke-width:1.5px;"/><path d="m124.6955,53.728c1.9818,14.2838,2.0591,29.384-.0518,44.8188-1.4199,10.3824-3.753,20.353-6.8765,29.794-.9189,2.4003-1.9039,4.7639-2.9527,7.0889-2.9107,6.4528-7.4276,12.2457-13.2318,17.0261-.6605.544-1.3263,1.0889-1.997,1.6343l-18.0704-27.8031s6.5113-6.0229,7.9763-15.4642c1.465-9.4413,3.2556-32.8818,3.9068-37.1141s1.1395-6.1857,5.0462-8.7902c3.9068-2.6045,17.7432-11.1904,17.7432-11.1904,0,0,6.7603-4.3536,8.5078,0Z" style="fill:none; stroke:#a7abae; stroke-miterlimit:10; stroke-width:1.5px;"/><path d="m32.4721,205.3304c-.9604.8793-1.8937,1.7134-2.7964,2.4987-6.1276,5.3304-13.0727,8.1991-19.9806,8.2308-2.1986.0101-4.4019-.1327-6.6053-.4341-20.8398-2.8501-39.1765-13.2985-53.59-28.9344,0,0-5.0463-6.0355-1.3024-10.5933,3.744-4.5579,19.5338-16.6037,19.5338-16.6037,0,0,6.8368,1.6278,9.2785,3.5812s44.6021,36.1375,47.2066,37.9281c2.6045,1.7906,4.7915,3.4446,8.2559,4.3268Z" style="fill:none; stroke:#a7abae; stroke-miterlimit:10; stroke-width:1.5px;"/><path d="m81.5153,126.287s-25.8822,22.4638-47.8577,35.4863c0,0-8.6274,6.674-20.5105,1.3023-11.883-5.3718-27.3473-12.9519-27.3473-12.9519,0,0-4.0695-2.0456-6.8368,0s-11.2319,9.3707-11.2319,9.3707" style="fill:none; stroke:#a7abae; stroke-miterlimit:10; stroke-width:1.5px;"/><path d="m-43.326,168.299c-8.4766,7.7991-18.2435,12.5198-20.848,5.6829-2.6045-6.8368-7.4879-19.5535-9.1158-26.299s-3.4184-13.7452,3.9068-21.3959,19.5338-20.3202,21.9755-23.3454c2.4417-3.0252,4.5579-5.1413-.8139-11.0015-5.3718-5.8601-8.115-10.2552-10.8129-13.1853-2.6979-2.9301-4.3257-8.953,1.5344-13.9992,5.8601-5.0462,35.3236-28.7463,70.8099-47.0108,0,0,11.883-6.0559,23.6033-4.2653,11.7203,1.7906,22.4638,3.6471,27.6728,4.2653,5.209.6182,8.6274,1.2693,15.3014-1.6608,6.674-2.9301,23.6033-9.6041,27.51-10.9064,3.9068-1.3023,10.0924-.8139,14.162,4.5579,4.0695,5.3718,11.3947,16.9293,13.0225,20.9988,1.6278,4.0695,1.7906,8.7902-2.1162,11.5575-3.9068,2.7673-16.2781,11.4362-16.2781,11.4362" style="fill:none; stroke:#a7abae; stroke-miterlimit:10;"/><polygon points="132.4658 42.2918 116.6181 54.3422 115.7573 53.1138 132.4658 42.2918 132.4658 42.2918" style="fill:#a7abae; stroke-width:0px;"/><path d="m32.5451,204.584l15.1798,1.551c3.7174.2379,7.5764,1.1598,11.3026.652,3.7138-.784,6.6636-3.4218,9.8073-5.4519,2.0899-1.4526,4.1677-2.9248,6.2346-4.412,4.1248-2.9863,8.258-5.967,12.2388-9.1459-3.9027,3.2764-7.9635,6.3591-12.0163,9.4475-2.0312,1.5386-4.0738,3.0624-6.1309,4.5682-3.1455,2.1488-6.1273,4.9288-9.965,5.8205-3.8423.6392-7.6688-.2014-11.5341-.3552,0-.0002-15.2629-1.1816-15.2629-1.1816,0,0,.146-1.4928.146-1.4928h0Z" style="fill:#a7abae; stroke-width:0px;"/><path d="m100.2001,153.6599c3.2874,5.2349,5.9963,11.7755,3.9705,17.9681-1.113,3.0432-3.8889,4.8707-6.1337,7.0096-2.3147,2.0474-4.6707,4.0471-7.0947,5.9595,2.3442-2.0088,4.615-4.1,6.8403-6.235,2.0648-2.1433,4.7398-4.0582,5.6809-6.984,1.6726-5.8468-1.2034-12.0875-4.4921-16.8581-.0001,0,1.2287-.8602,1.2287-.8602h0Z" style="fill:#a7abae; stroke-width:0px;"/><path d="m26.7186,165.4774c-3.6143.4967-7.3012.5448-10.7081,1.7097-2.5811.8658-1.1589,2.8297.1085,4.2525,4.0764,4.1534,8.3161,8.3187,12.4655,12.477,4.4548,4.1674,14.1774,14.9429,19.204,18.1764,2.4261,1.6418,5.0954,2.998,7.9857,3.6051-2.9026-.5457-5.6155-1.8511-8.0877-3.4502-5.0487-3.0853-15.1028-13.7399-19.6258-17.7975-4.2579-4.0903-8.5107-8.0895-12.7719-12.2533-7.0257-7.4083,6.8593-7.3681,11.241-8.2078,0,0,.1888,1.4881.1888,1.4881h0Z" style="fill:#a7abae; stroke-width:0px;"/><path d="m23.7588,164.6259c4.1758,4.3428,8.3714,8.6709,12.5928,12.9695,2.1114,2.1487,4.2314,4.2891,6.3755,6.3998,2.1253,2.0618,4.1379,4.3145,7.0429,5.2274,2.7326.9642,5.96,1.0526,8.4246-.5655l7.3208-5.29,14.6419-10.6097-14.424,10.9149-7.2257,5.4521c-3.982,2.6325-9.5029,1.4549-13.0599-1.3933-3.4376-2.9872-6.6216-6.1852-9.8903-9.3387-4.3147-4.2151-8.5999-8.4561-12.87-12.7165l1.0713-1.0499h0Z" style="fill:#a7abae; stroke-width:0px;"/><path d="m74.0244,132.6821c3.1523,5.2233,6.2966,10.4463,9.3557,15.7281,2.2027,4.4776,8.2315,12.1616,3.9284,16.7564,1.0475-1.1246,1.5046-2.6938,1.3415-4.1913-.6506-4.5287-3.6492-8.3096-5.8954-12.1867-3.2709-5.1364-6.6324-10.2235-9.9965-15.3024,0,0,1.2663-.804,1.2663-.804h0Z" style="fill:#a7abae; stroke-width:0px;"/><path d="m59.8902,143.7374c2.0971,3.3472,3.1782,7.2156,0,9.5602s-22.2861,17.1151-22.2861,17.1151c0,0-5.5611,3.678-8.4121.7927" style="fill:none; stroke:#a7abae; stroke-miterlimit:10; stroke-width:1.5px;"/><path d="m-25.0148,161.078c11.6007,3.978,24.0676,4.8486,36.236,5.929-12.3155-.5928-24.7726-.9499-36.7029-4.5034,0-.0001.4669-1.4256.4669-1.4256h0Z" style="fill:#a7abae; stroke-width:0px;"/><path d="m6.9284,230.7979c9.6186.152,19.5192-.623,28.4501-4.4035,8.7165-4.1777,16.5413-10.0677,24.5118-15.5039-7.7703,5.7758-15.5664,11.7283-24.3135,15.9625-9.0205,3.7693-18.9902,4.4892-28.6484,3.9448h0Z" style="fill:#a7abae; stroke-width:0px;"/><path d="m118.6125,51.1223c2.1585-.9507,4.5133-1.7934,6.9433-1.8486,2.4274-.0806,4.7558.5851,6.91,1.4809-2.2404-.6646-4.5881-1.0557-6.8497-.7333-2.2674.2997-4.3293,1.2947-6.3329,2.4427l-.6707-1.3417h0Z" style="fill:#a7abae; stroke-width:0px;"/><path d="m108.532-19.0313c3.6438,6.4578,2.387,15.4126-2.9679,20.5639,4.7511-5.5896,5.9144-13.8582,2.9679-20.5639h0Z" style="fill:#a7abae; stroke-width:0px;"/><path d="m117.7671,128.3408c3.2344,3.5754,17.5363,1.711,27.8865-8.295" style="fill:none; stroke:#a7abae; stroke-miterlimit:10; stroke-width:.5px;"/><path d="m5.631,215.903c6.6053.4341,3.9601,18.6151-21.387,20.2552" style="fill:none; stroke:#a7abae; stroke-miterlimit:10; stroke-width:.5px;"/><path d="m-50.5099,65.1931C-35.4151,51.6297-3.8036,29.7532,16.1039,20.4557c5.141-2.6252,10.2819-4.2659,17.9387-2.7346,7.6568,1.5314,15.8604,3.6096,19.2513,4.9222,3.3909,1.3126,9.735,4.1565,14.6572,13.7822,4.9222,9.6256,11.6991,25.0485,13.1235,28.7675s1.8619,9.0787,1.315,14.6572c-.5469,5.5785-2.297,22.6421-3.1721,26.5799-.8751,3.9378-2.2457,6.8789-5.8263,10.1665-3.5806,3.2876-27.5738,23.0213-46.4584,34.3521-6.5629,3.9378-15.5323-.2188-16.8449-1.0938s-15.9698-7.5474-18.8137-9.5163c-2.8439-1.9689-6.2348-4.0471-9.1881-10.2819-2.9533-6.2348-14.7666-32.4865-16.298-35.4399s-3.719-6.3442-6.5629-9.0787-7.438-7.0005-9.735-9.4069-3.5002-6.4536,0-10.9382Z" style="fill:none; stroke:#a7abae; stroke-miterlimit:10;"/><path d="m-18.7551,137.2963s15.1703,10.315,28.7337,15.3199c3.2815,1.614,11.4408,2.0135,19.2134-3.0482" style="fill:none; stroke:#a7abae; stroke-miterlimit:10;"/><path d="m61.5898,27.7461c1.5438,1.5712,6.8231,2.1895,12.8245,0,6.0014-2.1895,28.7436-12.8236,32.1128-14.2976,3.3692-1.474,7.686-2.3163,11.0552,2.8428s7.1363,12.3187,8.622,15.0562,2.4679,6.4226-.4975,8.7389c-2.9654,2.3163-29.4979,19.1624-32.7619,21.2682-3.2639,2.1058-9.6322,4.2025-11.8704,3.8385" style="fill:none; stroke:#a7abae; stroke-miterlimit:10;"/><path d="m69.4469,39.4104c2.23.676,7.693-1.0086,12.0684-3.5355,4.3754-2.5269,21.6115-11.3711,24.0487-12.5293,2.4372-1.1582,4.8589,1.0529,5.5959,2.3163s3.3692,5.6284,3.3692,5.6284c0,0,1.8952,2.7946-1.3687,5.1109-3.2639,2.3163-25.0585,15.3721-26.4273,16.1091s-7.8045,3.048-10.2195,2.0505" style="fill:none; stroke:#a7abae; stroke-miterlimit:10;"/><path d="m-39.5716,92.3199c2.3145,3.5283,4.3152,6.5668-1.0227,12.0111-5.3378,5.4444-20.7636,20.6109-23.4858,23.4627-2.7222,2.8518-5.5957,7.5184-4.2886,13.4813,1.3071,5.9629,6.7515,23.2062,7.9182,25.7974s3.6296,6.8771,9.9814,2.2712c6.3518-4.6059,23.7171-18.7528,27.4788-21.6607,3.7616-2.9079,7.6505-4.4634,13.8726-1.0931s23.3331,11.5501,26.3145,12.9046,10.0022,2.1688,16.2125-1.4706c17.6459-10.3409,36.8054-26.114,43.5461-31.7368,6.7407-5.6228,8.2962-10.9376,9.4629-16.9005s3.2407-29.6848,3.6296-34.4811.3889-8.647,6.611-12.8789,28.7774-18.6207,32.5367-21.3429,3.1111-7.2592,1.5555-10.3703-9.8657-15.8364-11.8031-18.2236c-1.9375-2.3873-6.5528-3.7613-10.9858-1.8168s-28.0253,12.6516-31.266,14.0776-11.0238,3.4578-19.4367.1649" style="fill:none; stroke:#a7abae; stroke-miterlimit:10; stroke-width:.5px;"/><path d="m-76.2628,62.0265C-57.7234,47.2024-20.891,21.3358,5.2184,9.6176" style="fill:none; stroke:#a7abae; stroke-miterlimit:10; stroke-width:.5px;"/><path d="m40.861,14.0902s-3.1713-2.3833,9.5725-6.4206" style="fill:none; stroke:#a7abae; stroke-miterlimit:10; stroke-width:.5px;"/><path d="m-35.5222,77.4711c4.5139,4.4619,8.6693,9.2995,12.3154,14.5069,3.7315,5.1818,6.1834,11.1014,9.2408,16.6487,2.9691,5.601,6.0811,11.1582,9.1368,16.691,3.3477,5.5282,9.1224,8.6509,14.7973,11.3422,2.8497,1.3874,5.7393,2.6982,8.6446,3.9617,2.8524,1.4358,5.9941,1.9314,9.1026,1.1802,3.1137-.6588,5.7973-2.3905,8.3821-4.1916,2.6232-1.7832,5.2224-3.6041,7.813-5.4363,5.1736-3.6757,10.3096-7.4059,15.3649-11.2424,5.0477-3.8442,10.0624-7.7424,14.7996-11.9625,3.4134-2.6586,5.8218-6.6728,6.3599-10.9878-.4845,4.3363-2.8806,8.4114-6.2554,11.1015-4.683,4.2979-9.6866,8.2214-14.7255,12.0833-8.9018,6.6533-17.7467,13.4324-27.1503,19.364-3.5056,1.8951-7.8128,2.7812-11.6648,1.4412-3.7092-1.448-7.3-3.1502-10.8784-4.8866-5.7004-2.7254-11.573-5.9547-14.9235-11.5555-3.0585-5.5878-6.1294-11.1259-9.0842-16.7538-3.0356-5.5783-5.4783-11.4803-9.144-16.6705-3.5749-5.236-7.6702-10.1198-12.1308-14.6337h0Z" style="fill:#a7abae; stroke-width:0px;"/><path d="m-23.9655,78.3207c5.7775,6.9553,11.1912,14.2374,15.6826,22.1009C-3.7498,108.1895-.0339,116.6028,5.7376,123.5479c1.4557,1.7525,3.3668,2.9279,5.3568,3.9865,2.9679,1.6195,6.03,3.0801,9.1495,4.385,7.6402,3.6537,14.8922-3.9107,21.0016-7.6675,7.4075-5.1758,14.7586-10.4394,21.9865-15.8628,3.4454-2.8408,7.5279-5.1127,10.149-8.7993,2.7527-3.7037,3.1705-8.3316,3.4512-12.7961.3446-5.6184.6275-11.2916-.0129-16.8936-.4389-3.3668-2.2912-6.3278-3.5671-9.4314-2.8274-6.1597-5.7445-12.2823-8.8236-18.3205-3.3172-6.7194-6.4107-11.466-13.9182-13.8518,7.5396,2.3297,10.6891,7.0443,14.0799,13.7678,3.1487,6.0082,6.0774,12.1279,8.9251,18.2838,1.296,3.1142,3.1738,6.1181,3.6221,9.5084.6623,5.6298.3956,11.3233.0678,16.9634-.2621,4.5-.702,9.2562-3.4818,13.0054-2.6134,3.725-6.7538,6.0609-10.2149,8.9295-7.2095,5.4631-14.5645,10.727-22.0026,15.8729-6.29,3.8517-13.5111,11.385-21.4091,7.6468-3.131-1.3213-6.194-2.7941-9.1728-4.4312-1.9955-1.066-3.9796-2.3047-5.4336-4.0746-5.7899-7.0132-9.4664-15.4113-13.985-23.2263-4.4156-7.8954-9.7599-15.219-15.4711-22.2218h0Z" style="fill:#a7abae; stroke-width:0px;"/><path d="m81.176,38.9136s23.0359-12.4947,24.3618-13.0973,2.6516-.3616,3.7364,1.3861,2.4708,4.403,2.8324,5.2147.4219,1.8362-1.2053,2.921-22.5992,13.3425-24.2263,14.2646-3.2941.1989-4.0576-1.1872-2.1496-4.098-2.6317-5.3635-.1755-3.2854,1.1904-4.1383Z" style="fill:none; stroke:#a7abae; stroke-miterlimit:10; stroke-width:.5px;"/><path d="m90.5262,37.5428l2.4998,5.0523c.3041.6146,1.0652.8431,1.6576.4976l7.3283-4.2748c.4661-.2719.6415-.8586.4012-1.3417l-2.4989-5.0241c-.3043-.6119-1.0621-.8397-1.6534-.4971l-7.3297,4.2466c-.4672.2707-.6443.8574-.4048,1.3413Z" style="fill:none; stroke:#a7abae; stroke-miterlimit:10; stroke-width:.5px;"/><path d="m94.247,43.2476c.4983-.8832.3799-2.4423-.3799-3.957-.8634-1.7121-2.2647-2.7975-3.3353-2.6594" style="fill:none; stroke:#a7abae; stroke-miterlimit:10; stroke-width:.5px;"/><path d="m101.4901,39.1104c.5131-.9094.3912-2.5148-.3912-4.0745-.8891-1.7629-2.3319-2.8806-3.4344-2.7384" style="fill:none; stroke:#a7abae; stroke-miterlimit:10; stroke-width:.5px;"/><path d="m109.8646,171.3806c9.6492-8.6766,19.7205-17.7235,24.1907-30.2721,1.6325-4.0464,3.2956-8.0822,4.9843-12.1112-1.5148,4.0923-3.0552,8.1779-4.6264,12.2527-4.3117,12.6661-14.5091,21.8531-24.5486,30.1306h0Z" style="fill:#a7abae; stroke-width:0px;"/><path d="m140.9367,53.728c1.0514.8484,1.5794,2.1545,2.0317,3.3928,1.2714,3.8057,1.7213,7.8275,2.0767,11.8053.9649,13.3054-.0794,26.7087-2.333,39.8366-.4707,2.6237-1.0135,5.2332-1.5886,7.8339,2.9137-15.6786,4.463-31.6998,3.5399-47.6425-.1737-2.6523-.4467-5.3005-.9066-7.9174-.5482-2.5214-.8782-5.4328-2.82-7.3087h0Z" style="fill:#a7abae; stroke-width:0px;"/><path d="m21.5777,92.1859s4.0096-16.6968,4.6081-19.7489,3.4112-7.1814,8.7972-5.6254,12.6273,4.3088,14.4227,4.8474,4.1293,2.2143,3.5907,4.7278-5.5057,22.2025-6.2239,24.4168-3.1119,4.6679-7.72,3.1718c-4.6081-1.4961-14.0636-4.3687-15.3802-5.027s-3.0571-2.737-2.0946-6.7625Z" style="fill:none; stroke:#a7abae; stroke-miterlimit:10; stroke-width:.5px;"/><path d="m25.8929,73.8148c.8146-3.0442,3.4048-5.8662,7.7136-4.5496,4.3088,1.3166,13.4651,4.4285,14.8416,5.027s2.5733,1.556,2.0347,3.9498-5.3861,19.4496-5.8648,20.8261-2.7941,2.9324-6.3642,1.9749c-3.5701-.9575-14.2823-4.3687-14.2823-4.3687,0,0-2.7184-.3552-2.6159-3.2297" style="fill:none; stroke:#a7abae; stroke-miterlimit:10; stroke-width:.5px;"/><path d="m24.9889,93.3229l4.4884-2.958,3.826-13.0804c.2979-1.0183,1.3743-1.593,2.3862-1.274l10.305,3.2489,3.3513-2.8127-15.5462-4.9605c-1.4427-.4603-2.9781.375-3.3752,1.8364l-5.4355,20.0004Z" style="fill:none; stroke:#a7abae; stroke-miterlimit:10; stroke-width:.5px;"/><path d="m25.2708,94.9621l4.5844-2.7321,11.1443,3.3267c.6955.2076,1.426-.1956,1.621-.8947l3.9979-14.3328,3.3341-2.858-5.7908,20.4758c-.393,1.3895-1.8499,2.186-3.2317,1.7667l-15.6592-4.7515Z" style="fill:none; stroke:#a7abae; stroke-miterlimit:10; stroke-width:.5px;"/><path d="m34.1987,79.2582l-3.0562,10.7048c-.1175.4117.1087.8432.5143.9806l8.911,3.0191c.1457.0494.281-.0973.22-.2386l-1.9345-4.4804-3.1773-1.0053c-.411-.13-.6459-.5615-.532-.9772l1.1072-4.0439-1.7187-3.9806c-.0662-.1532-.288-.1389-.3338.0216Z" style="fill:none; stroke:#a7abae; stroke-miterlimit:10; stroke-width:.5px;"/><path d="m41.7787,92.8546l-1.879-4.3519,1.6404-4.788c.1651-.482-.1547-.9938-.6603-1.0567l-3.5936-.4467-1.7671-4.0927c-.0594-.1377.0679-.2825.212-.2411l8.5088,2.4421c.4108.1179.6572.537.5604.9533l-2.6857,11.5517c-.0388.1669-.2681.1875-.336.0302Z" style="fill:none; stroke:#a7abae; stroke-miterlimit:10; stroke-width:.5px;"/><path d="m34.3353,70.2523c-2.624-.7155-5.3386.6273-5.8944,3.3693,0-.0001-1.9679,7.5693-1.9679,7.5693l-2.0772,7.5442c-.365,2.1226-2.5496,5.7212-.0777,7.1604-.6129-.2425-1.0748-.8099-1.219-1.4662-.3455-1.9683.5647-3.8858.93-5.787.0001,0,1.961-7.5772,1.961-7.5772.6936-2.5168,1.3581-5.0356,2.0796-7.5493.7168-2.8847,3.5282-4.1855,6.2655-3.2635h0Z" style="fill:#a7abae; stroke-width:0px;"/><path d="m-16.7451,74.4194C2.9743,60.5147,23.1813,46.7216,44.0529,34.6281c0,.0001,4.2419-2.3428,4.2419-2.3428l-4.1803,2.4486C23.7784,47.0486,3.0646,61.1488-16.7451,74.4194h0Z" style="fill:#a7abae; stroke-width:0px;"/><path d="m12.3768,9.3492c1.6846-8.052,3.0011-12.4741,8.976-15.3168,5.4988-2.6162,45.0853-16.0354,51.3595-18.1575.6423-.2172,1.3039-.3465,1.9809-.3849,1.5802-.0895,4.6133-.0843,7.9242.854l.6136,1.0391s1.2069-.4827,2.2689,1.6413,3.8137,10.3791,4.0068,10.9584.4345,1.9793-.531,2.8482c0,0-.2242,2.5586-1.8259,3.862s-5.1001,3.904-7.1887,5.0174" style="fill:none; stroke:#a7abae; stroke-miterlimit:10; stroke-width:1.5px;"/><path d="m25.9833,8.9237s.6214-4.0723.8628-5.4723,1.3034-3.0896,4.1516-4.4896,41.468-14.9652,44.3645-15.7859c2.8965-.8207,4.924-.0658,5.793,2.1395.8689,2.2053,2.3172,6.5017,2.6068,7.612s.531,3.2827-1.4965,4.3447c-2.0275,1.062-26.4503,9.7324-26.4503,9.7324" style="fill:none; stroke:#a7abae; stroke-miterlimit:10; stroke-width:.5px;"/><path d="m46.0327-72.2952l-9.9715-24.7042c-1.5246-5.4915,1.0707-9.6113,3.6659-11.0569,2.4571-1.3667,154.6293-92.1115,170.3834-101.5107.8684-.5181,1.8305-.8585,2.8321-.9967l2.763-.3947s4.5738-1.1841,6.2661,3.2169c1.6923,4.4011,37.0686,108.1616,38.2528,112.3949,1.1841,4.2333.1678,8.2939-3.0442,10.6672C253.9633-82.3111,134.503.0954,134.503.0954" style="fill:none; stroke:#a7abae; stroke-miterlimit:10; stroke-width:1.5px;"/><path d="m-67.3786,20.3887h.0049v-.0049C-31.3461-2.3025-.4203-21.7964.8428-22.6154c3.0442-1.9834,4.9093-6.4832,3.0442-11.0569-.3602-.8881-1.8601-4.4011-4.036-9.4879" style="fill:none; stroke:#a7abae; stroke-miterlimit:10;"/><path d="m233.859-58.2725s.0622,9.537,0,13.0717-1.6585,10.0339-7.3595,14.9368c-5.7011,4.9029-81.6599,58.0944-81.6599,58.0944" style="fill:none; stroke:#a7abae; stroke-miterlimit:10;"/><path d="m141.2366,16.3217s84.8068-59.014,87.0873-60.6103c2.2804-1.5963,5.5624-5.1308,5.5624-5.1308" style="fill:none; stroke:#a7abae; stroke-miterlimit:10;"/><path d="m176.5055-8.2182c.2812.9078.8634,2.8765,1.3174,5.0721.2862,1.3864.5181,2.8666.5921,4.2284,0,0-2.2449.6661-5.4323,1.1299" style="fill:none; stroke:#a7abae; stroke-miterlimit:10; stroke-width:.5px;"/><path d="m162.725,1.3684c.2911.9078,1.8256,5.7875,2.0328,9.6853,0,0-3.064,1.2483-9.187-1.6381" style="fill:none; stroke:#a7abae; stroke-miterlimit:10; stroke-width:.5px;"/><path d="m147.0295,14.3952c6.2168,2.9752,9.7107,1.7108,9.7107,1.7108-.1184-2.2153-.6661-4.7514-1.1693-6.6904-.2812-1.1003-.5526-2.0081-.7253-2.5607" style="fill:none; stroke:#a7abae; stroke-miterlimit:10; stroke-width:.5px;"/><path d="m146.5121,12.6572c.3996,1.2582,1.7762,5.8122,1.9736,9.4978,0,0-1.791.7352-5.378-.2171" style="fill:none; stroke:#a7abae; stroke-miterlimit:10; stroke-width:.5px;"/><path d="m170.38-3.9588s2.9891,6.5931,4.2592,10.8521" style="fill:none; stroke:#a7abae; stroke-miterlimit:10;"/><path d="m168.2505-2.0194s2.9891,6.5931,4.2592,10.8521" style="fill:none; stroke:#a7abae; stroke-miterlimit:10; stroke-width:.5px;"/><path d="m23.085,212.4468c-24.3933-15.0436-49.4281-30.7927-68.0142-42.7229" style="fill:none; stroke:#a7abae; stroke-miterlimit:10;"/><line x1="98.558" y1="188.4027" x2="161.8519" y2="221.259" style="fill:none; stroke:#a7abae; stroke-miterlimit:10;"/><path d="m146.9957,38.2051c6.1625,10.1442,28.5132,34.3994,46.4332,47.2128,12.6901,9.0686,34.0589,23.895,45.4464,31.7745" style="fill:none; stroke:#a7abae; stroke-miterlimit:10;"/><path d="m148.9495,47.0615c9.0784,11.7625,27.2649,30.6101,42.3232,41.3759,12.6901,9.0686,34.0589,23.895,45.4464,31.7745" style="fill:none; stroke:#a7abae; stroke-miterlimit:10; stroke-width:.5px;"/><path d="m229.3334,148.2653c.0046-.3845-79.415-52.246-79.415-52.246" style="fill:none; stroke:#a7abae; stroke-miterlimit:10; stroke-width:.5px;"/><line x1="123.3469" y1="106.5881" x2="87.0123" y2="134.7448" style="fill:none; stroke:#a7abae; stroke-miterlimit:10; stroke-width:.5px;"/><line x1="90.5318" y1="97.5349" x2="126.2044" y2="71.3594" style="fill:none; stroke:#a7abae; stroke-miterlimit:10; stroke-width:.5px;"/><path d="m326.1821-145.349s-3.0955,54.13-3.7495,66.5558c-.654,12.4258,7.8479,43.0297,34.8794,56.1763,27.0315,13.1466,53.5615,24.829,53.5615,24.829" style="fill:none; stroke:#a7abae; stroke-miterlimit:10;"/><path d="m166.9936,227.4312c7.7218.5959,14.6425,4.3041,20.3327,9.4052,41.086,33.6854,82.2855,67.5176,119.6815,105.3313-.0003.0003-8.1063-8.0038-8.1063-8.0038l-8.2575-7.8466c-27.7154-25.8836-56.804-50.5045-85.891-74.8004,0,0-17.5802-14.4923-17.5802-14.4923-5.6025-5.1387-12.5021-8.9263-20.1794-9.5934h0Z" style="fill:#a7abae; stroke-width:0px;"/><path d="m229.6264,144.1535c-.293,4.1118-.3254,11.5283,15.5476,22.9188,15.873,11.3905,184.8555,111.3665,208.8692,126.6473" style="fill:none; stroke:#a7abae; stroke-miterlimit:10;"/><path d="m234.1683,131.8456c.0494,4.0609-1.3099,14.4124,16.8837,26.2278,18.1936,11.8154,212.4004,127.3548,212.4004,127.3548" style="fill:none; stroke:#a7abae; stroke-miterlimit:10;"/><path d="m234.8368,125.1729c-.5848,2.8749-.9728,10.7975,7.9924,17.8576,8.9652,7.0601,225.6887,138.1179,225.6887,138.1179" style="fill:none; stroke:#a7abae; stroke-miterlimit:10; stroke-width:.5px;"/><path d="m402.051,92.0754c-6.9712-3.9997-35.2775-17.9651-53.2442-26.7062-17.9667-8.7411-31.7903-4.7067-37.2815-1.5689-17.0339,9.3014-50.3174,34.292-64.7738,53.3921,0,0-10.4221,10.8214,7.9566,22.7003,18.3787,11.8789,139.8018,82.4975,139.8018,82.4975" style="fill:none; stroke:#a7abae; stroke-miterlimit:10; stroke-width:.5px;"/><path d="m330.698,84.3653c1.3718.5367,1.6511,2.362.5249,3.3115-11.5164,9.7097-63.0561,53.1509-64.7479,54.3451-1.9051,1.3448-3.6982.3354-4.5947-.7849s-2.3534-4.7063,0-8.6286c2.3534-3.9223,30.4818-30.9301,57.6016-47.8519,0,0,4.78-2.9093,11.2161-.3911Z" style="fill:none; stroke:#000001; stroke-miterlimit:10; stroke-width:.5px;"/><path d="m334.8301,152.0097c-2.0868,5.1039-5.4439,12.8182,9.5552,21.1118s128.1169,74.819,128.1169,74.819" style="fill:none; stroke:#a7abae; stroke-miterlimit:10; stroke-width:.5px;"/><path d="m367.8339,118.842c8.8375.7746,24.1585,4.9987,47.978,18.2338,2.0431,1.1352,3.8648,2.6294,5.3841,4.4055,1.1985,1.401,3.1576,3.2314,6.1414,4.8228,5.7928,3.0895,60.3823,33.1225,60.3823,33.1225" style="fill:none; stroke:#a7abae; stroke-miterlimit:10;"/><path d="m367.8994,118.0949c17.2417,2.3018,32.9092,10.6449,47.9126,18.9806-11.3665-6.0307-23.102-11.5987-35.5062-15.117-4.1223-1.1305-8.3176-2.0411-12.5374-2.3694,0,0,.131-1.4943.131-1.4943h0Z" style="fill:#a7abae; stroke-width:0px;"/><path d="m488.419,176.8226s-53.3843-29.3701-59.1771-32.4596c-2.9838-1.5913-4.9429-3.4217-6.1414-4.8228-1.5193-1.7761-3.3411-3.2703-5.3841-4.4055-23.8195-13.2351-39.1405-17.4592-47.978-18.2338,0,0-1.9044,0-1.9044,1.941" style="fill:none; stroke:#a7abae; stroke-miterlimit:10; stroke-width:.5px;"/><path d="m421.6772,136.452c10.5223-6.1858,18.1764-1.2876,27.5342,3.9811,5.6111,3.0805,36.9016,20.259,43.1867,23.7098,0,0-.2443.4362-.2443.4362-6.4622-3.6018-37.2907-20.7817-43.0286-23.9797-9.3187-5.3201-16.8944-10.2586-27.448-4.1474h0Z" style="fill:#a7abae; stroke-width:0px;"/><path d="m485.6603,186.578c-12.7315-7.1273-44.9719-25.1833-57.2279-32.1196-3.1652-1.8102-6.3608-3.5638-9.4744-5.4684-2.2256-1.4925-3.9018-4.4558-2.6571-7.0823.3719-.8374.9753-1.5487,1.6522-2.1548-.6738.6096-1.2728,1.3234-1.6394,2.1605-1.2231,2.6215.4541,5.5558,2.6765,7.0302,3.1162,1.8817,6.327,3.6197,9.5009,5.4105,12.1655,6.7931,44.8122,24.8288,57.412,31.7866,0,0-.2427.4371-.2427.4371h0Z" style="fill:#a7abae; stroke-width:0px;"/><path d="m478.5929,290.4143c-1.7687-3.2836-4.7258-9.9029,0-27.5555,4.7258-17.6526,24.3844-76.4945,27.5939-84.5853,3.2096-8.0908,11.6347-12.7045,26.0777-5.483,14.443,7.2215,30.2015,16.205,35.7064,19.6185,7.9425,4.925,14.0418,12.2765,10.6317,24.513-3.4102,12.2364-26.031,96.929-27.2813,102.3047-1.4951,6.4285-2.9861,13.2682,1.2813,15.1686" style="fill:none; stroke:#a7abae; stroke-miterlimit:10; stroke-width:.5px;"/><path d="m479.0674-30.6743c10.6483,4.0569,20.9252,9.1613,30.4617,15.4359l27.9994,19.6365c18.5332,13.2636,37.1585,26.4709,54.6266,41.1314-4.4208-3.5972-8.895-7.1265-13.4416-10.5618-13.5765-10.3898-27.5014-20.3128-41.4732-30.1622,0,0-27.8949-19.768-27.8949-19.768-9.4991-6.2768-19.7043-11.4914-30.2779-15.7119h0Z" style="fill:#a7abae; stroke-width:0px;"/><path d="m473.8084,269.1866s-114.1348-67.047-122.6666-72.9536c-4.7807-3.3097-9.4928-6.7569-12.8275-10.2259" style="fill:none; stroke:#a7abae; stroke-miterlimit:10; stroke-width:1.5px;"/><path d="m260.0531,143.093c-3.8643-1.9312-4.7846-6.7432-1.983-11.2474,2.8016-4.5042,33.0593-33.4171,60.6274-49.7786,0,0,6.4998-4.1464,14.9047,0,8.4049,4.1464,45.4049,25.4966,45.4049,25.4966" style="fill:none; stroke:#000001; stroke-miterlimit:10; stroke-width:1.5px;"/><path d="m338.3143,186.0071c-2.6165-2.7219-4.3851-5.4572-4.6736-8.1503-.6563-6.1254-1.3126-10.9382-1.5314-13.7822-.2188-2.8439-.2188-7.8755,4.1565-14.4385,4.3753-6.5629,25.1579-26.908,28.0019-29.9707,0,0,.7378-.7544,3.5662-.8234,0,0-.6899-1.4487,1.3797-3.3803s21.5237-17.7294,32.8374-23.3863c11.3137-5.6569,24.0072-7.0366,39.667.4139,15.6599,7.4505,71.3487,36.649,71.3487,36.649" style="fill:none; stroke:#a7abae; stroke-miterlimit:10; stroke-width:1.5px;"/><path d="m282.1195,156.4959c41.6661,24.7616,112.3905,65.8943,112.3905,65.8943" style="fill:none; stroke:#a7abae; stroke-miterlimit:10; stroke-width:1.5px;"/><path d="m280.2663,85.1618c-11.9656,9.7286-23.7728,20.0128-33.175,32.2876-4.2897,5.0389-3.2794,11.6745,1.1584,16.2546-.0001,0,1.2403,1.3312,1.2403,1.3312l1.3903,1.1909c.7715.7384,2.034,1.598,2.9255,2.2095.8533.6589,2.194,1.4258,3.144,1.9642,8.6348,4.9636,17.0516,10.2677,25.5299,15.4899,0,0-.7204,1.2122-.7204,1.2122-8.5643-5.1005-17.1916-10.1201-25.5967-15.4775-8.8015-5.2558-17.8074-14.7551-9.7508-24.6895,9.6888-12.1776,21.6657-22.2259,33.8545-31.7731h0Z" style="fill:#a7abae; stroke-width:0px;"/></g></g><g id="uuid-27b90851-76a0-47da-a97b-05bba5790d7d"><path d="m312.0763,165.3378l-44.1072-25.7193c-1.9914-1.1612-2.2047-3.3999-.4916-4.9946l20.4406-19.0291c1.5794-1.4703,4.418-1.7913,6.354-.722l42.8065,23.6442c2.0715,1.1442,2.5575,3.3745,1.0716,4.9874l-19.2622,20.9078c-1.6169,1.755-4.6736,2.1723-6.8117.9256Z" style="fill:#fff; stroke:#000001; stroke-linecap:round; stroke-linejoin:round; stroke-width:1.5px;"/><g style="opacity:.75;"><path d="m310.7501,142.8382c-.1749-1.1763-1.1094-7.4591-1.4386-8.4646-.1125-.3519-.3598-.7017-.8394-.9704h-.0002s-.0001-.0002-.0001-.0002c-.4792-.2686-.9958-.3472-1.4765-.3284-1.3732.0482-9.5726,1.1453-11.0951,1.349-.1307.0231-.1685.1545-.0659.2127.4171.2364,1.3829.786,1.9662,1.1166.2058.1167.2953.1228.5351.0868.2399-.036,1.4328-.2149,1.4328-.2149,1.5183-.2298,5.0521-.6305,6.2652-.7002.4549-.0262.7602.1546.7645.1571h.0001s.0002.0002.0002.0002c.0044.0023.3214.1716.4162.5072.2533.8963.7403,3.5738.8762,4.7453,0,0,.1092.922.1311,1.1077.0219.1857.0554.2496.2644.3681.5934.3364,1.581.8941,2.0072,1.1357.1049.0595.2644-.0047.2566-.1074" style="fill:#f2a900; stroke-width:0px;"/><path d="m295.0111,135.2956c.143,1.1549.9272,7.4804,1.2394,8.5176.107.3647.3524.7277.8378,1.0066h.0002s.0001.0002.0001.0002c.4861.2789,1.0142.3597,1.5071.3387,1.4066-.0538,9.7453-1.211,11.2804-1.4241.1315-.0241.1663-.1593.0613-.2189-.4265-.242-1.4121-.8035-2.0058-1.1405-.2093-.1188-.2995-.1247-.5404-.0877-.2411.0371-1.4417.2215-1.4417.2215-1.5321.2376-5.114.655-6.3479.7289-.4631.0278-.7712-.1579-.7756-.1605h-.0001s-.0002-.0002-.0002-.0002c-.0044-.0024-.3243-.176-.4156-.5206-.2427-.9166-.6886-3.6221-.8039-4.7905,0,0-.0924-.9131-.1109-1.0963-.0185-.1829-.0504-.2459-.2564-.3628-.5837-.3312-1.5529-.8791-1.9702-1.1159-.1026-.0583-.2627.0041-.2577.1046" style="fill:#f2a900; stroke-width:0px;"/><path d="m301.0631,139.9659c-.1049-.4859-.2585-1.3699-.2774-1.7364-.0114-.1637.1213-.2846.1213-.2846,0,0,.1181-.1292.3303-.1658.4727-.0868,1.6392-.2177,2.2842-.2747.2663-.0255.3735-.0757.5116-.2141.426-.4269,1.2234-1.2256,1.5252-1.5281.0611-.0612.0077-.1506-.1143-.1396-1.4401.1344-4.7509.5298-5.9392.7379-.5488.0801-.7765.3487-.7765.3487h0s0,0,0,0c0,0-.2832.2375-.237.6561.0555.9189.4506,3.4479.6726,4.546.0232.0951.1442.1129.2175.0391.3088-.3094,1.116-1.118,1.5481-1.5508.1397-.1399.1746-.2323.1337-.4338" style="fill:#f2a900; stroke-width:0px;"/><path d="m302.1672,140.5956c.6487-.0581,1.82-.1909,2.2939-.2788.2127-.037.33-.1672.33-.1672h0s0,0,0,0c0,0,.1323-.1217.1196-.2863-.0214-.3677-.1807-1.2511-.2883-1.7343-.0418-.2-.0077-.2916.1303-.4301.4259-.4275,1.2177-1.2224,1.5193-1.5252.0717-.0722.1913-.0547.2153.0385.2336,1.0794.662,3.5955.7311,4.5205.0526.4232-.2281.6643-.2281.6643,0,0-.2254.2729-.7763.355-1.1949.2132-4.5391.6215-5.9993.7613-.1273.0091-.1832-.074-.1095-.1478.3086-.3098,1.1149-1.1195,1.5464-1.5529.1396-.1402.2476-.1911.5156-.217" style="fill:#f2a900; stroke-width:0px;"/></g></g><g id="uuid-c65458a8-426e-414e-9d67-e5b142f4fc49"><polygon points="256.9965 192.0465 276.6978 175.9629 285.5286 181.576 282.9066 160.1687 253.0936 160.9596 261.9244 166.5726 242.2232 182.6563 256.9965 192.0465" style="fill:#f2a900; stroke:#fff; stroke-miterlimit:10; stroke-width:1.5px;"/></g></svg>