<?xml version="1.0" encoding="UTF-8"?><svg id="uuid-a311481b-071e-4823-8f2c-d4ee1d9db373" xmlns="http://www.w3.org/2000/svg" width="325" height="260.0729" viewBox="0 0 325 260.0729"><circle cx="93.5185" cy="29.5797" r="18.3524" style="fill:none; stroke:#f2a900; stroke-miterlimit:10; stroke-width:4px;"/><line x1="86.1962" y1="22.2573" x2="100.8409" y2="36.902" style="fill:none; stroke:#f2a900; stroke-miterlimit:10; stroke-width:4px;"/><line x1="86.1962" y1="36.902" x2="100.8409" y2="22.2573" style="fill:none; stroke:#f2a900; stroke-miterlimit:10; stroke-width:4px;"/><path d="m178.7354,182.5536c-.5208,5.4021.2387,10.6633,2.1691,15.4187,1.1892,2.9294,2.8227,5.6668,4.875,8.127,5.2218,6.2578,12.701,10.03,21.0601,10.6215l31.1226,2.2022c5.6402.3991,10.9914-.6981,15.6162-3.1389,1.1895-.6278,2.331-1.3445,3.417-2.1476l44.9735-33.1815c1.4644-1.0828,10.897-7.8762,10.3579-22.2577l-3.9252-64.2912c-1.0622-30.0568-22.2153-31.7338-33.1246-32.5057-5.0199-.3552-12.5347-.8875-19.4596,1.5479l-50.7091,18.5793c-1.2765.4489-2.535.9887-3.7598,1.6351-7.4366,3.9249-13.631,11.7839-15.0796,27.1488l-7.5335,72.2421Z" style="fill:#fff; stroke-width:0px;"/><path d="m178.7354,182.5536c-.5208,5.4021.2387,10.6633,2.1691,15.4187,1.1892,2.9294,2.8227,5.6668,4.875,8.127,5.2218,6.2578,12.701,10.03,21.0601,10.6215l31.1226,2.2022c5.6402.3991,10.9914-.6981,15.6162-3.1389,1.1895-.6278,2.331-1.3445,3.417-2.1476l44.9735-33.1815c1.4644-1.0828,10.897-7.8762,10.3579-22.2577l-3.9252-64.2912c-1.0622-30.0568-22.2153-31.7338-33.1246-32.5057-5.0199-.3552-12.5347-.8875-19.4596,1.5479l-50.7091,18.5793c-1.2765.4489-2.535.9887-3.7598,1.6351-7.4366,3.9249-13.631,11.7839-15.0796,27.1488l-7.5335,72.2421Z" style="fill:none; stroke:#000001; stroke-linecap:round; stroke-linejoin:round; stroke-width:.5px;"/><path d="m178.2377,182.5056c-.5283,5.4796.2417,10.822,2.2035,15.6547,1.2084,2.9768,2.8686,5.7589,4.9543,8.2593,2.6161,3.1352,5.7901,5.6574,9.3539,7.4812,3.6692,1.8778,7.7489,3.014,12.0549,3.3187l31.1226,2.2022c5.7276.4053,11.1726-.7085,15.8849-3.1955,1.2117-.6395,2.3746-1.3697,3.4805-2.1874,0,0,44.9735-33.1815,44.9739-33.1818.0163-.0121.0337-.0249.0523-.0386.2029-.1498.5288-.3903.9403-.7226,1.7299-1.3971,4.9723-4.4163,7.2052-9.3242,1.5096-3.3181,2.5537-7.4909,2.3619-12.6047,0,0-3.9252-64.2912-3.9246-64.2784-.4084-11.556-3.7676-19.0197-8.4399-23.8599-7.558-7.8297-18.4222-8.6509-25.1492-9.1269-5.0077-.3544-12.624-.8998-19.6669,1.5772,0,0-50.7091,18.5793-50.7029,18.5771-1.2978.4564-2.5791,1.0058-3.8273,1.6646-3.4893,1.8416-6.7118,4.5341-9.3151,8.4256-3.0546,4.5661-5.2408,10.759-6.0284,19.1136,0,0-7.5335,72.2421-7.5339,72.246Z" style="fill:none; stroke:#000001; stroke-linecap:round; stroke-linejoin:round; stroke-width:1.5px;"/><path d="m256.9954,213.6365c.9499-.7024,1.8574-1.4708,2.7174-2.3035,5.8455-5.6594,8.9676-13.6239,8.7915-22.4273l-3.8415-73.047c-.5093-28.4971-18.9259-33.9848-31.8536-35.5148" style="fill:none; stroke:#000001; stroke-width:.5px;"/><path d="m222.1827,79.5335c-6.0953-.2572-11.841.1536-17.0744,1.9941" style="fill:none; stroke:#000001; stroke-width:.5px;"/><path d="m231.9384,83.4445c18.9694,2.0986,29.1712,11.6805,29.5426,32.4712l3.8422,73.101c.1465,7.89-2.6311,15.0026-7.8244,20.0307-4.7745,4.6234-11.2961,7.0214-18.3625,6.7529h-.0008c-.3144-.012-.6318-.0287-.9481-.0516l-31.1228-2.2025c-7.488-.5294-14.1801-3.8982-18.8418-9.4858-4.8246-5.7835-7.0699-13.2945-6.3242-21.1537l7.5391-72.2969c.986-10.2963,4.2813-16.8056,8.7756-20.8657" style="fill:none; stroke:#000001; stroke-width:.5px;"/><path d="m270.8716,63.2736c8.3368.3167,12.5221,1.7543,12.4908,2.5775s-5.6615.6672-12.604.4035-12.5684-.5355-12.5371-1.3586,4.3136-1.9391,12.6503-1.6223Z" style="fill:none; stroke:#000001; stroke-width:.5px;"/><path d="m270.8254,64.4903c6.4626.2455,9.7159,1.1258,9.6974,1.613s-4.3826.3557-9.7644.1512-9.7433-.4045-9.7248-.8917,3.3292-1.1181,9.7918-.8726Z" style="fill:none; stroke:#000001; stroke-width:.5px;"/><path d="m214.6605,99.0181c2.6592-.5706,5.453-.7801,8.3287-.5745,16.8485,1.1935,30.0195,16.1215,29.3642,33.369-.4258,11.2075-6.5855,20.5174-15.3715,25.3585l-10.2733,5.6487-.0928,2.4432c-.0413,1.0858.7962,2.0401,1.8516,2.1191l13.6593,1.0529c12.6915.9774,22.5838,12.2564,22.092,25.1992-.2774,7.3004-3.7968,13.5553-9.0996,17.4316l-17.874,12.5154c-2.3721,1.6832-7.6246,4.9222-15.3669,4.2804l-45.2188-3.7374c-13.0662-1.0791-23.2034-12.8043-22.6955-26.1738.3282-8.6382,5.0209-15.8777,11.8334-19.6286.0103-.0093.0201-.0187.0299-.0183.2086-.1183.4169-.2366.6346-.3448l.1184-.0538,20.9103-10.6524c.1979-.0994.3958-.1985.5936-.2882-.2854-.1564-.5592-.361-.8319-.5947-9.7907-6.2847-15.32-18.1651-14.6182-30.7601.6404-11.4907,6.9597-21.1635,15.9909-26.3253,1.4192-.9344,4.1734-1.992,4.587-2.1559l17.1841-6.819" style="fill:#fff; stroke:#000001; stroke-width:.5px;"/><path d="m202.6518,165.6377c-15.736-1.2209-26.0135-15.3792-25.2124-29.6673.854-15.2317,13.5378-26.7385,28.3311-25.6663,14.8174,1.0739,26.2102,14.3872,25.352,29.6943-.7906,14.101-12.3984,26.8863-28.4707,25.6393Z" style="fill:#fff; stroke-width:0px;"/><path d="m223.5384,184.0946c10.4913.8262,18.7075,10.2092,18.2999,20.9372-.4073,10.7198-9.2848,18.7427-19.7747,17.8792l-45.2159-3.7223c-10.3911-.8554-18.4917-10.2094-18.0875-20.8476.4045-10.6464,9.1636-18.6261,19.5561-17.8077l45.222,3.5612Z" style="fill:#fff; stroke-width:0px;"/><path d="m209.7327,202.4379c-.2801,7.373,5.3448,13.8224,12.5612,14.4124,7.2341.5915,13.3269-4.9142,13.6077-12.3049.2808-7.3906-5.3582-13.8328-12.5929-14.4066-7.2171-.5724-13.2959,4.9262-13.576,12.2991Zm5.9086.4758c.1533-4.035,3.4847-7.0465,7.4378-6.7308,3.956.3159,7.0455,3.8446,6.892,7.8849-.1538,4.0486-3.4918,7.0597-7.4476,6.7384-3.9529-.321-7.0358-3.8492-6.8822-7.8925Zm-51.0194-4.1088c-.279,7.3425,5.2904,13.7625,12.4551,14.3483,7.1741.5866,13.2094-4.8989,13.4891-12.2589.2796-7.3599-5.3036-13.7728-12.4784-14.3418-7.1653-.5683-13.1868,4.9101-13.4658,12.2524Zm5.8596.4719c.1527-4.0182,3.449-7.019,7.3774-6.7053,3.9232.3133,6.9786,3.8256,6.8257,7.8491-.1532,4.0318-3.456,7.0321-7.379,6.7135-3.9282-.319-6.9771-3.8308-6.8242-7.8574Zm24.6126-44.9589c-.1464,3.8539,2.7927,7.2098,6.5688,7.5,3.7708.2898,6.9451-2.6001,7.0917-6.4589.1466-3.8587-2.7901-7.2227-6.561-7.5077-3.7764-.2854-6.953,2.6127-7.0995,6.4665Zm3.428.2613c.0729-1.9193,1.6537-3.3607,3.5381-3.2177,1.8771.1425,3.341,1.816,3.268,3.7365-.073,1.9205-1.6552,3.3617-3.5322,3.2181-1.8844-.1442-3.3468-1.8175-3.2739-3.7368Zm16.7768-8.656c-.0984,2.5899,1.8721,4.8486,4.4159,5.0416,2.5369.1924,4.6699-1.7569,4.7684-4.349.0988-2.6004-1.8743-4.8593-4.4113-5.0495-2.5439-.1907-4.6742,1.7587-4.7729,4.3569Zm2.2926.1729c.0492-1.2953,1.1149-2.2741,2.391-2.1781,1.2684.0954,2.2544,1.2289,2.2052,2.5247s-1.1153,2.2663-2.3836,2.1704c-1.2761-.0965-2.2618-1.2217-2.2126-2.517Zm-32.6334-1.7984c-.0981,2.5826,1.8609,4.8345,4.3904,5.0263,2.5226.1913,4.6598-1.7517,4.758-4.3364.0985-2.593-1.8793-4.8463-4.4019-5.0354-2.5296-.1897-4.648,1.7547-4.7465,4.3456Zm2.2796.1719c.0491-1.2916,1.1169-2.2672,2.3778-2.1724,1.2612.0948,2.2496,1.2255,2.2005,2.5177-.0491,1.2922-1.1172,2.2595-2.3784,2.1641s-2.249-1.2178-2.1999-2.5094Zm-10.5776,79.6528l45.2151,3.7428c13.1963,1.0924,24.322-8.9608,24.8341-22.4411.5125-13.4886-9.7844-25.2504-22.9829-26.2838l-14.2154-1.113c-1.0969-.0859-1.965-1.08-1.9221-2.2095l.1266-3.3309c.0354-.9316.687-1.6913,1.5833-1.8616,13.7273-2.5118,25.8179-14.8986,26.6794-30.2626,1.015-18.1021-12.4138-33.7764-29.9286-35.0378-17.4827-1.2591-32.405,12.288-33.4141,30.285-.8448,15.0679,7.2469,29.1114,20.8531,33.7882.8682.2904,1.4564,1.162,1.421,2.0925l-.1264,3.327c-.0429,1.1282-.9788,1.98-2.0726,1.8944l-14.2069-1.1123c-13.0657-1.023-24.0286,8.9814-24.5367,22.3554-.5078,13.3658,9.6296,25.086,22.6931,26.1673Zm25.9915-58.4847c-15.736-1.2209-26.0135-15.3792-25.2124-29.6673.854-15.2317,13.5378-26.7385,28.3311-25.6663,14.8174,1.0739,26.2102,14.3872,25.352,29.6943-.7906,14.101-12.3984,26.8863-28.4707,25.6393Zm20.8866,18.4569c10.4913.8262,18.7075,10.2092,18.2999,20.9372-.4073,10.7198-9.2848,18.7427-19.7747,17.8792l-45.2159-3.7223c-10.3911-.8554-18.4917-10.2094-18.0875-20.8476.4045-10.6464,9.1636-18.6261,19.5561-17.8077l45.222,3.5612Z" style="fill:#fff; stroke-width:0px;"/><path d="m225.0557,155.8998c-3.4172.2757-6.3705-.1697-8.4563-.6855" style="fill:none; stroke:#000001; stroke-width:.5px;"/><path d="m241.0017,210.0051c-.1651-.0088-.3307-.0199-.4966-.0334l-2.9326-.2375" style="fill:none; stroke:#000001; stroke-width:.5px;"/><path d="m202.8554,146.563c-.7705-.9194-1.0207-1.1907-1.6644-2.1996" style="fill:none; stroke:#000001; stroke-width:.5px;"/><path d="m220.3061,140.7428c-1.6761-.7505-3.668-.6499-5.2719.2268l-5.087,2.5415-10.1819,5.0637c-3.4827,1.2796-5.1411,5.4104-3.5778,8.7424,1.3721,3.2892,5.5924,5.0565,8.7935,3.3342.0051-.0099.4639.8843.4662.8847,0,0-.014.0072-.014.0072l-.0041.0022-.4641-.8857c3.3743-1.7343,12.0344-6.1834,15.2978-7.8607,1.7353-.7584,3.1662-2.0387,3.7311-3.8658,0,0,.474.1592.474.1592-.6107,1.909-2.199,3.3671-3.9602,4.1701,0,0-5.0245,2.7601-5.0245,2.7601l-10.0489,5.52-.4641-.8857.0041-.0021.014-.0072.4624.8866c-1.808.9769-4.0343,1.0694-5.9375.3319-3.8935-1.4515-6.0085-6.221-4.4012-10.0647.7069-1.8827,2.4063-3.4082,4.2191-4.1062,0,0,10.2953-4.8453,10.2953-4.8453l5.1516-2.4131c1.756-.9133,3.9222-.9199,5.7252-.1536l-.1973.4595h0Z" style="fill:#000001; stroke-width:0px;"/><path d="m231.0249,135.5124l-1.6793.8118c-1.7508.8464-3.7629,1.8191-5.6972,2.7543l-6.1787,3.0976c-1.2538.7529-2.1091,2.1234-2.1708,3.7472-.0492,1.295.4188,2.5071,1.2171,3.4196s1.9269,1.5254,3.1988,1.6219c.8627.0654,1.6787-.1168,2.3839-.4878l7.9434-4.2107" style="fill:none; stroke:#000001; stroke-width:1px;"/><path d="m204.3418,133.7077c-1.1911-.2047-2.7365.7239-3.7888,1.1699,0,0-3.7757,1.7112-3.7757,1.7112-1.3689.6334-8.1741,3.6759-9.3855,4.2722-4.5308,2.8107-.6022,9.9761,4.1741,7.4934-.0001,0,.4403-.237.4403-.237l.2394.432c.0322.0326-.6514-.2092-.6475-.1999,3.043-1.3962,10.8438-4.9737,13.7885-6.3187,1.5315-.5428,2.756-1.8539,2.8672-3.5088,0,0,.4981.0433.4981.0433-.1432,1.804-1.514,3.3317-3.1362,3.9511,0,0-4.5279,2.2481-4.5279,2.2481l-9.0594,4.4877-.4212.2086c-.0049-.0088-.2319-.4184-.2364-.4265-.0022,0,.6932.1948.6759.1969-4.6382,2.5145-9.5668-3.2427-6.6911-7.5312.7664-1.2973,2.2877-1.8651,3.573-2.3983,0,0,7.6037-3.2803,7.6037-3.2803l3.8026-1.6404c1.1519-.4641,2.7547-1.3783,4.0471-1.1713,0,0-.0405.4982-.0405.4982h0Z" style="fill:#000001; stroke-width:0px;"/><path d="m210.4994,207.5414l-13.1015-1.0612c-1.2653-.1025-2.495-.3369-3.6767-.6889" style="fill:none; stroke:#000001; stroke-width:.5px;"/><path d="m184.3141,181.2164c-3.4665,2.0366-6.9628,4.0157-10.4874,5.9426-1.4662.8614-3.7577,1.9146-4.9244,3.1787-7.6035,7.2918-2.7693,20.8375,7.5198,22.2109,2.891.4248,5.8452-.2371,8.2964-1.8372,0,0,2.584-1.5514,2.584-1.5514l10.356-6.1729,5.1778-3.0864c1.7294-1.0003,3.4405-2.0087,4.6854-3.5938,2.5368-3.0389,3.3312-7.356,2.2729-11.1553l.4577-.1246c1.0946,3.9398.265,8.407-2.3558,11.5872-1.259,1.623-3.0638,2.7007-4.7755,3.7519,0,0-5.1078,3.1999-5.1078,3.1999l-10.2152,6.3997-2.5588,1.5918c-2.5911,1.7343-5.8682,2.4807-8.9623,2.0372-11.2726-1.4729-16.4226-16.0719-8.1321-24.0448,1.2378-1.3435,3.5893-2.435,5.1887-3.2932,3.5524-1.8809,7.1331-3.7094,10.7437-5.4805l.2369.4403h0Z" style="fill:#000001; stroke-width:0px;"/><path d="m180.677,182.8895c.18-.7265.4028-1.4334.6654-2.1178" style="fill:none; stroke:#000001; stroke-width:.5px;"/><path d="m241.3067,137.5819c-.0368.9695-.1121,1.9278-.235,2.8649l-1.7827.9226c.1231-.9371.1977-1.8857.2346-2.8552.035-.921.0307-1.8241-.0127-2.7288l1.7829-.9323c.0434.9046.0479,1.8078.0129,2.7288Z" style="fill:none; stroke:#000001; stroke-width:.5px;"/><path d="m227.4233,184.8119l-11.634,7.0986c-3.4985,2.1346-5.8835,5.973-6.0566,10.5274-.1829,4.8146,2.1122,8.1929,3.4694,9.7498,2.2733,2.6077,5.4836,4.3676,9.0918,4.6626,3.0705.2511,5.9355-.5964,8.2377-2.2202l11.1506-7.7537" style="fill:none; stroke:#000001; stroke-width:1px;"/><path d="m210.09,203.4419c-.1256,3.3069,1.073,6.4066,3.1121,8.7458,2.0392,2.3392,4.9189,3.9178,8.1555,4.1825,6.4891.5306,11.9546-4.4082,12.2065-11.0378.2519-6.6296-4.8064-12.4084-11.2961-12.9231-6.4739-.5134-11.9267,4.4189-12.178,11.0326Z" style="fill:none; stroke:#000001; stroke-width:.5px;"/><path d="m221.5945,213.4693c-2.3697-.1934-4.5718-1.3276-6.199-3.1947-1.6381-1.8798-2.4898-4.2674-2.3966-6.7224.1828-4.8115,3.9938-8.4413,8.6757-8.2634.1202.0046.2413.012.3633.0214,4.9439.3926,8.8103,4.8384,8.6176,9.9113-.0892,2.348-1.0411,4.4926-2.6794,6.0375-1.6177,1.5257-3.747,2.319-5.9956,2.2336,0,0-.2565-.0126-.386-.0232Z" style="fill:none; stroke:#000001; stroke-width:.5px;"/><path d="m215.6413,202.9137c.1533-4.035,3.4847-7.0465,7.4378-6.7308,3.956.3159,7.0455,3.8446,6.892,7.8849-.1538,4.0486-3.4918,7.0597-7.4476,6.7384-1.9764-.1605-3.7354-1.1228-4.981-2.5504s-1.978-3.3204-1.9012-5.3421Z" style="fill:none; stroke:#000001; stroke-width:.5px;"/><path d="m164.9758,199.8046c-.1251,3.2932,1.0613,6.3795,3.0823,8.7082,2.0211,2.3287,4.8767,3.8998,8.0902,4.1626,6.4354.5262,11.8492-4.3944,12.1-10.9965.2508-6.602-4.7575-12.3545-11.1934-12.8649-6.4275-.5097-11.8289,4.4044-12.0791,10.9907Z" style="fill:none; stroke:#000001; stroke-width:.5px;"/><path d="m176.386,209.7748c-2.346-.1925-4.5228-1.3181-6.1298-3.1693-1.6224-1.8698-2.4651-4.2456-2.3722-6.6902.1818-4.786,3.9523-8.3964,8.583-8.2205.1183.0045.2385.011.3586.0203,4.8862.3876,8.7062,4.8079,8.5145,9.8533-.0888,2.3385-1.0309,4.4731-2.6537,6.0109-1.5974,1.5151-3.7009,2.3028-5.9211,2.2184,0,0-.2527-.0124-.3793-.0229Z" style="fill:none; stroke:#000001; stroke-width:.5px;"/><path d="m170.4815,199.2768c.1527-4.0182,3.449-7.019,7.3774-6.7053,3.9232.3133,6.9786,3.8256,6.8257,7.8491-.1532,4.0318-3.456,7.0321-7.379,6.7135-1.9641-.1595-3.7084-1.1172-4.9425-2.5383s-1.9581-3.3057-1.8816-5.319Z" style="fill:none; stroke:#000001; stroke-width:.5px;"/><path d="m195.2809,154.8417c-.0657,1.7285.5606,3.3454,1.6267,4.5626,1.0661,1.2173,2.572,2.0349,4.2657,2.1651,3.3825.26,6.2299-2.3324,6.3614-5.7937.1315-3.4614-2.5027-6.4789-5.8854-6.7346-3.3875-.256-6.237,2.3436-6.3684,5.8006Z" style="fill:none; stroke:#000001; stroke-width:.5px;"/><path d="m201.3224,159.6351c-1.1297-.0865-2.1789-.6223-2.9549-1.5089-.7842-.8964-1.1922-2.0364-1.1476-3.2104.0873-2.2988,1.8997-4.0333,4.1247-3.9488l.158.0098c2.3494.1774,4.1851,2.2971,4.0928,4.7256-.0426,1.121-.4958,2.1448-1.2747,2.8813-.7661.7237-1.7731,1.1007-2.8364,1.0604l-.1618-.009Z" style="fill:none; stroke:#000001; stroke-width:.5px;"/><path d="m198.5221,154.5792c.0729-1.9193,1.6537-3.3607,3.5381-3.2177,1.8771.1425,3.341,1.816,3.268,3.7365-.073,1.9205-1.6552,3.3617-3.5322,3.2181-.9422-.0721-1.7789-.5265-2.3709-1.2028-.592-.6763-.9394-1.5744-.9029-2.534Z" style="fill:none; stroke:#000001; stroke-width:.5px;"/><path d="m215.4815,146.4362c-.0418,1.1007.356,2.131,1.0345,2.9067s1.6378,1.2966,2.7189,1.3786c2.1564.1635,3.9694-1.4933,4.0532-3.6966.084-2.2103-1.5932-4.1304-3.7496-4.2921-2.1623-.1621-3.9731,1.4949-4.057,3.7034Z" style="fill:none; stroke:#000001; stroke-width:.5px;"/><path d="m217.5916,146.0961c.0492-1.2953,1.1149-2.2741,2.391-2.1781,1.2684.0954,2.2544,1.2289,2.2052,2.5247s-1.1153,2.2663-2.3836,2.1704c-.638-.0483-1.2035-.3537-1.6033-.809-.3998-.4553-.6339-1.0604-.6093-1.708Z" style="fill:none; stroke:#000001; stroke-width:.5px;"/><path d="m185.1397,144.8092c-.0417,1.0976.3537,2.1249,1.0284,2.8982.6746.7733,1.6284,1.2926,2.7035,1.3741,2.1442.1626,3.9608-1.4889,4.0443-3.686.0837-2.2041-1.5974-4.1194-3.7417-4.2801-2.1501-.1612-3.9508,1.4915-4.0345,3.6937Z" style="fill:none; stroke:#000001; stroke-width:.5px;"/><path d="m187.2379,144.4696c.0491-1.2916,1.1169-2.2672,2.3778-2.1724,1.2612.0948,2.2496,1.2255,2.2005,2.5177-.0491,1.2922-1.1172,2.2595-2.3784,2.1641-.6304-.0477-1.1927-.3521-1.5912-.8061s-.6332-1.0575-.6087-1.7033Z" style="fill:none; stroke:#000001; stroke-width:.5px;"/><line x1="226.7097" y1="162.823" x2="216.7156" y2="168.2375" style="fill:none; stroke:#000001; stroke-width:.5px;"/><path d="m177.4394,135.9704c.6827-25.2235,31.345-35.3644,47.4449-16.2508,15.4397,18.2276,2.7558,48.5277-22.2327,45.9181.6808.0063,2.354-.0337,3.0078-.0377.9616-.152,2.0239-.1926,2.9725-.3666,20.6503-3.9686,28.8425-28.9546,15.4853-44.8722-16.1281-18.6851-44.1943-8.316-46.6778,15.6092h0Z" style="fill:#000001; stroke-width:0px;"/><path d="m210.4146,100.581l-10.7125,4.2671c-3.1074,1.2753-7.6526,2.8621-10.5196,4.4064-21.2125,11.4179-21.661,44.0122-1.7707,56.9029.5504.3354.6564,1.0717.0534,1.4052-1.4523.7503-20.5136,10.4436-21.4644,10.9343-5.304,2.9221-9.3131,8.0563-10.8918,13.9037-4.0135,13.568,5.6958,29.1594,19.7717,31.1678,2.9464.4944,7.5545.6147,10.605.966,0-.0002,10.6771.8931,10.6771.8931l21.3542,1.7866c3.5134.2806,6.9986.7711,10.4695.0705,3.4068-.6097,6.6091-2.0903,9.4211-4.1446,23.2117-16.8732,24.0192-15.943.8715,1.2075-6.3138,4.8197-13.2671,5.3913-20.8893,4.4031,0,.0003-21.3576-1.7434-21.3576-1.7434l-10.6788-.8718c-3.2-.3025-7.5519-.5212-10.7327-.9601-15.0133-2.1966-25.2891-18.7233-20.9966-33.1865,1.6968-6.2335,5.9877-11.7093,11.662-14.8147.3002-.1589,20.3452-10.3517,21.4981-10.9481.0002,0-.1296,1.2524-.1296,1.2524l-.2057-.171c-20.5225-13.4376-20.341-47.1627,1.976-59.3508,3.0607-1.8007,7.5576-3.0132,10.8533-4.2145,0,0,10.929-3.7243,10.929-3.7243.1569-.0537.3275.0303.381.1873.0518.1519-.0262.3169-.1734.376h0Z" style="fill:#000001; stroke-width:0px;"/><path d="m209.7327,202.4379c-.2801,7.373,5.3448,13.8224,12.5612,14.4124,7.2341.5915,13.3269-4.9142,13.6077-12.3049.2808-7.3906-5.3582-13.8328-12.5929-14.4066-7.2171-.5724-13.2959,4.9262-13.576,12.2991Zm5.9086.4758c.1533-4.035,3.4847-7.0465,7.4378-6.7308,3.956.3159,7.0455,3.8446,6.892,7.8849-.1538,4.0486-3.4918,7.0597-7.4476,6.7384-3.9529-.321-7.0358-3.8492-6.8822-7.8925Zm-51.0194-4.1088c-.279,7.3425,5.2904,13.7625,12.4551,14.3483,7.1741.5866,13.2094-4.8989,13.4891-12.2589.2796-7.3599-5.3036-13.7728-12.4784-14.3418-7.1653-.5683-13.1868,4.9101-13.4658,12.2524Zm5.8596.4719c.1527-4.0182,3.449-7.019,7.3774-6.7053,3.9232.3133,6.9786,3.8256,6.8257,7.8491-.1532,4.0318-3.456,7.0321-7.379,6.7135-3.9282-.319-6.9771-3.8308-6.8242-7.8574Zm24.6126-44.9589c-.1464,3.8539,2.7927,7.2098,6.5688,7.5,3.7708.2898,6.9451-2.6001,7.0917-6.4589.1466-3.8587-2.7901-7.2227-6.561-7.5077-3.7764-.2854-6.953,2.6127-7.0995,6.4665Zm3.428.2613c.0729-1.9193,1.6537-3.3607,3.5381-3.2177,1.8771.1425,3.341,1.816,3.268,3.7365-.073,1.9205-1.6552,3.3617-3.5322,3.2181-1.8844-.1442-3.3468-1.8175-3.2739-3.7368Zm16.7768-8.656c-.0984,2.5899,1.8721,4.8486,4.4159,5.0416,2.5369.1924,4.6699-1.7569,4.7684-4.349.0988-2.6004-1.8743-4.8593-4.4113-5.0495-2.5439-.1907-4.6742,1.7587-4.7729,4.3569Zm2.2926.1729c.0492-1.2953,1.1149-2.2741,2.391-2.1781,1.2684.0954,2.2544,1.2289,2.2052,2.5247s-1.1153,2.2663-2.3836,2.1704c-1.2761-.0965-2.2618-1.2217-2.2126-2.517Zm-32.6334-1.7984c-.0981,2.5826,1.8609,4.8345,4.3904,5.0263,2.5226.1913,4.6598-1.7517,4.758-4.3364.0985-2.593-1.8793-4.8463-4.4019-5.0354-2.5296-.1897-4.648,1.7547-4.7465,4.3456Zm2.2796.1719c.0491-1.2916,1.1169-2.2672,2.3778-2.1724,1.2612.0948,2.2496,1.2255,2.2005,2.5177-.0491,1.2922-1.1172,2.2595-2.3784,2.1641s-2.249-1.2178-2.1999-2.5094Zm-10.5776,79.6528l45.2151,3.7428c13.1963,1.0924,24.322-8.9608,24.8341-22.4411.5125-13.4886-9.7844-25.2504-22.9829-26.2838l-14.2154-1.113c-1.0969-.0859-1.965-1.08-1.9221-2.2095l.1266-3.3309c.0354-.9316.687-1.6913,1.5833-1.8616,13.7273-2.5118,25.8179-14.8986,26.6794-30.2626,1.015-18.1021-12.4138-33.7764-29.9286-35.0378-17.4827-1.2591-32.405,12.288-33.4141,30.285-.8448,15.0679,7.2469,29.1114,20.8531,33.7882.8682.2904,1.4564,1.162,1.421,2.0925l-.1264,3.327c-.0429,1.1282-.9788,1.98-2.0726,1.8944l-14.2069-1.1123c-13.0657-1.023-24.0286,8.9814-24.5367,22.3554-.5078,13.3658,9.6296,25.086,22.6931,26.1673Zm25.9915-58.4847c-15.736-1.2209-26.0135-15.3792-25.2124-29.6673.854-15.2317,13.5378-26.7385,28.3311-25.6663,14.8174,1.0739,26.2102,14.3872,25.352,29.6943-.7906,14.101-12.3984,26.8863-28.4707,25.6393Zm20.8866,18.4569c10.4913.8262,18.7075,10.2092,18.2999,20.9372-.4073,10.7198-9.2848,18.7427-19.7747,17.8792l-45.2159-3.7223c-10.3911-.8554-18.4917-10.2094-18.0875-20.8476.4045-10.6464,9.1636-18.6261,19.5561-17.8077l45.222,3.5612Z" style="fill:none; stroke:#000001; stroke-width:.5px;"/><path d="m241.0017,210.0051c-.1651-.0088-.3307-.0199-.4966-.0334l-2.9326-.2375" style="fill:none; stroke:#000001; stroke-width:.5px;"/><path d="m202.8554,146.563c-.7705-.9194-1.0207-1.1907-1.6644-2.1996" style="fill:none; stroke:#000001; stroke-width:.5px;"/><path d="m220.3061,140.7428c-1.6701-.7493-3.6727-.6868-5.2856.1985l-5.0828,2.5505-10.173,5.0819c-3.4813,1.2827-5.141,5.4104-3.5772,8.7435,1.3721,3.2892,5.5924,5.0565,8.7935,3.3342.0051-.0099.4639.8843.4662.8847,0,0-.014.0072-.014.0072l-.0041.0022-.4641-.8857c3.3735-1.7359,12.0314-6.1892,15.294-7.8679,1.7369-.7542,3.171-2.029,3.7349-3.8586,0,0,.474.1592.474.1592-.6115,1.9065-2.1968,3.3699-3.9564,4.1773,0,0-5.0258,2.7578-5.0258,2.7578l-10.0515,5.5151-.4641-.8857.0041-.0021.014-.0072.4624.8866c-1.808.9769-4.0343,1.0694-5.9375.3319-3.8935-1.4515-6.0085-6.221-4.4012-10.0647.7071-1.882,2.4057-3.4097,4.2197-4.105,0,0,10.3042-4.8272,10.3042-4.8272l5.1559-2.4038c1.7471-.905,3.9025-.9497,5.7115-.1821l-.1973.4595h0Z" style="fill:#000001; stroke-width:0px;"/><path d="m231.0249,135.5124l-1.6793.8118c-1.7508.8464-3.7629,1.8191-5.6972,2.7543l-6.1787,3.0976c-1.2538.7529-2.1091,2.1234-2.1708,3.7472-.0492,1.295.4188,2.5071,1.2171,3.4196s1.9269,1.5254,3.1988,1.6219c.8627.0654,1.6787-.1168,2.3839-.4878l7.9434-4.2107" style="fill:none; stroke:#000001; stroke-width:1px;"/><path d="m194.3374,137.33c-.0163-.0674-3.5566-8.5449,1.4995-18.6502.7819-1.5627,2.7329-5.141,6.821-8.4172" style="fill:none; stroke:#000001; stroke-width:.5px;"/><path d="m204.3418,133.7077c-1.1918-.2031-2.7372.7209-3.7906,1.167,0,0-3.7776,1.7077-3.7776,1.7077l-7.5564,3.4165c-2.6696.8906-4.4992,2.8512-3.6444,5.7838.7468,2.667,4.1417,4.0171,6.4143,2.3597.0066.0068.2348.4217.2407.4283,0,0-.6185-.198-.6185-.198,2.0453-1.0062,4.0996-1.994,6.1779-2.9308l6.2125-2.8577c.8237-.4289,2.2677-.9032,2.926-1.5388,2.7422-2.2627.6338-6.9333-2.5839-7.3379h0Zm.0406-.4983c3.6801.499,5.9925,5.6633,2.978,8.3078-.7612.7554-2.1344,1.226-3.0481,1.7283,0,0-6.1302,3.0282-6.1302,3.0282-2.169,1.0924-4.3671,2.1267-6.5724,3.1432l-.2111-.3865c-.0393-.0232.6483.1788.6393.1759-1.3478.7499-3.0333.7725-4.4073.1356-3.6764-1.5384-4.2148-7.2114-.6337-9.1624,1.2941-.6222,8.0987-3.5128,9.5378-4.1514,0,0,3.8015-1.644,3.8015-1.644,1.1532-.4659,2.752-1.3819,4.0462-1.1748h0Z" style="fill:#000001; stroke-width:0px;"/><path d="m198.4859,185.8215c.0482,1.2283,1.0598,2.2243,2.2664,2.2225,1.2033-.0018,2.1455-1.0016,2.0973-2.2309-.0484-1.2333-1.069-2.2293-2.2722-2.2264-1.2065.0028-2.1398,1.0026-2.0915,2.2348Z" style="fill:none; stroke:#000001; stroke-width:.5px;"/><path d="m202.1959,182.7005l-2.2054,1.2219c-.7211.3186-1.1387.9138-1.206,1.6271-.1427,1.4083,1.4016,2.72,2.7356,2.0322,0,0,2.1295-1.2387,2.1295-1.2387,1.4852-.8387,5.0963-2.7584,6.6428-3.5943,0,0,.3575.6337.3575.6337l-4.319,2.5552c-1.452.8751-2.8539,1.6406-4.4174,2.4868-.9325.4152-2.0478.2847-2.8394-.3585-1.1479-.9382-1.4956-2.7459-.5419-3.9437.492-.7321,2.5739-1.545,3.3403-2.0203,0,0,.3234.5987.3234.5987h0Z" style="fill:#000001; stroke-width:0px;"/><path d="m210.4994,207.5414l-13.1015-1.0612c-1.2653-.1025-2.495-.3369-3.6767-.6889" style="fill:none; stroke:#000001; stroke-width:.5px;"/><path d="m184.3141,181.2164c-3.5208,2.069-7.0737,4.0758-10.6535,6.0334-3.5748,1.6825-6.8342,4.3097-7.922,8.2605-2.5125,7.648,3.3111,16.5919,11.4053,17.1196,3.013.2994,5.856-.7058,8.3444-2.3834,0,.0001,2.6246-1.5758,2.6246-1.5758l10.5194-6.2686,5.2589-3.1351c1.79-.9629,3.3067-2.3176,4.3989-4.0056,2.2148-3.3547,2.5362-7.8086,1.026-11.5175l.4513-.1812c1.5613,3.8564,1.2041,8.4552-1.0741,11.9607-1.1109,1.761-2.7477,3.1802-4.5275,4.1927l-5.1882,3.2499-10.3749,6.5015-2.5991,1.6166c-2.5609,1.7951-5.7701,2.9044-8.9437,2.595-11.5698-.8327-17.383-15.6246-9.1231-23.9182,1.4508-1.5286,3.3972-2.4643,5.2292-3.4159,3.6084-1.9098,7.2436-3.7704,10.9111-5.569l.2369.4403h0Z" style="fill:#000001; stroke-width:0px;"/><path d="m180.677,182.8895c.18-.7265.4028-1.4334.6654-2.1178" style="fill:none; stroke:#000001; stroke-width:.5px;"/><path d="m227.4233,184.8119l-11.634,7.0986c-3.4985,2.1346-5.8835,5.973-6.0566,10.5274-.1829,4.8146,2.1122,8.1929,3.4694,9.7498,2.2733,2.6077,5.4836,4.3676,9.0918,4.6626,3.0705.2511,5.9355-.5964,8.2377-2.2202l11.1506-7.7537" style="fill:none; stroke:#000001; stroke-width:1px;"/><path d="m210.09,203.4419c-.1256,3.3069,1.073,6.4066,3.1121,8.7458,2.0392,2.3392,4.9189,3.9178,8.1555,4.1825,6.4891.5306,11.9546-4.4082,12.2065-11.0378.2519-6.6296-4.8064-12.4084-11.2961-12.9231-6.4739-.5134-11.9267,4.4189-12.178,11.0326Z" style="fill:none; stroke:#000001; stroke-width:.5px;"/><path d="m221.5945,213.4693c-2.3697-.1934-4.5718-1.3276-6.199-3.1947-1.6381-1.8798-2.4898-4.2674-2.3966-6.7224.1828-4.8115,3.9938-8.4413,8.6757-8.2634.1202.0046.2413.012.3633.0214,4.9439.3926,8.8103,4.8384,8.6176,9.9113-.0892,2.348-1.0411,4.4926-2.6794,6.0375-1.6177,1.5257-3.747,2.319-5.9956,2.2336,0,0-.2565-.0126-.386-.0232Z" style="fill:none; stroke:#000001; stroke-width:.5px;"/><path d="m215.6413,202.9137c.1533-4.035,3.4847-7.0465,7.4378-6.7308,3.956.3159,7.0455,3.8446,6.892,7.8849-.1538,4.0486-3.4918,7.0597-7.4476,6.7384-1.9764-.1605-3.7354-1.1228-4.981-2.5504s-1.978-3.3204-1.9012-5.3421Z" style="fill:none; stroke:#000001; stroke-width:.5px;"/><path d="m164.9758,199.8046c-.1251,3.2932,1.0613,6.3795,3.0823,8.7082,2.0211,2.3287,4.8767,3.8998,8.0902,4.1626,6.4354.5262,11.8492-4.3944,12.1-10.9965.2508-6.602-4.7575-12.3545-11.1934-12.8649-6.4275-.5097-11.8289,4.4044-12.0791,10.9907Z" style="fill:none; stroke:#000001; stroke-width:.5px;"/><path d="m176.386,209.7748c-2.346-.1925-4.5228-1.3181-6.1298-3.1693-1.6224-1.8698-2.4651-4.2456-2.3722-6.6902.1818-4.786,3.9523-8.3964,8.583-8.2205.1183.0045.2385.011.3586.0203,4.8862.3876,8.7062,4.8079,8.5145,9.8533-.0888,2.3385-1.0309,4.4731-2.6537,6.0109-1.5974,1.5151-3.7009,2.3028-5.9211,2.2184,0,0-.2527-.0124-.3793-.0229Z" style="fill:none; stroke:#000001; stroke-width:.5px;"/><path d="m170.4815,199.2768c.1527-4.0182,3.449-7.019,7.3774-6.7053,3.9232.3133,6.9786,3.8256,6.8257,7.8491-.1532,4.0318-3.456,7.0321-7.379,6.7135-1.9641-.1595-3.7084-1.1172-4.9425-2.5383s-1.9581-3.3057-1.8816-5.319Z" style="fill:none; stroke:#000001; stroke-width:.5px;"/><path d="m195.2809,154.8417c-.0657,1.7285.5606,3.3454,1.6267,4.5626,1.0661,1.2173,2.572,2.0349,4.2657,2.1651,3.3825.26,6.2299-2.3324,6.3614-5.7937.1315-3.4614-2.5027-6.4789-5.8854-6.7346-3.3875-.256-6.237,2.3436-6.3684,5.8006Z" style="fill:none; stroke:#000001; stroke-width:.5px;"/><path d="m201.3224,159.6351c-1.1297-.0865-2.1789-.6223-2.9549-1.5089-.7842-.8964-1.1922-2.0364-1.1476-3.2104.0873-2.2988,1.8997-4.0333,4.1247-3.9488l.158.0098c2.3494.1774,4.1851,2.2971,4.0928,4.7256-.0426,1.121-.4958,2.1448-1.2747,2.8813-.7661.7237-1.7731,1.1007-2.8364,1.0604l-.1618-.009Z" style="fill:none; stroke:#000001; stroke-width:.5px;"/><path d="m198.5221,154.5792c.0729-1.9193,1.6537-3.3607,3.5381-3.2177,1.8771.1425,3.341,1.816,3.268,3.7365-.073,1.9205-1.6552,3.3617-3.5322,3.2181-.9422-.0721-1.7789-.5265-2.3709-1.2028-.592-.6763-.9394-1.5744-.9029-2.534Z" style="fill:none; stroke:#000001; stroke-width:.5px;"/><path d="m215.4815,146.4362c-.0418,1.1007.356,2.131,1.0345,2.9067s1.6378,1.2966,2.7189,1.3786c2.1564.1635,3.9694-1.4933,4.0532-3.6966.084-2.2103-1.5932-4.1304-3.7496-4.2921-2.1623-.1621-3.9731,1.4949-4.057,3.7034Z" style="fill:none; stroke:#000001; stroke-width:.5px;"/><path d="m217.5916,146.0961c.0492-1.2953,1.1149-2.2741,2.391-2.1781,1.2684.0954,2.2544,1.2289,2.2052,2.5247s-1.1153,2.2663-2.3836,2.1704c-.638-.0483-1.2035-.3537-1.6033-.809-.3998-.4553-.6339-1.0604-.6093-1.708Z" style="fill:none; stroke:#000001; stroke-width:.5px;"/><path d="m185.1397,144.8092c-.0417,1.0976.3537,2.1249,1.0284,2.8982.6746.7733,1.6284,1.2926,2.7035,1.3741,2.1442.1626,3.9608-1.4889,4.0443-3.686.0837-2.2041-1.5974-4.1194-3.7417-4.2801-2.1501-.1612-3.9508,1.4915-4.0345,3.6937Z" style="fill:none; stroke:#000001; stroke-width:.5px;"/><path d="m187.2379,144.4696c.0491-1.2916,1.1169-2.2672,2.3778-2.1724,1.2612.0948,2.2496,1.2255,2.2005,2.5177-.0491,1.2922-1.1172,2.2595-2.3784,2.1641-.6304-.0477-1.1927-.3521-1.5912-.8061s-.6332-1.0575-.6087-1.7033Z" style="fill:none; stroke:#000001; stroke-width:.5px;"/><path d="m177.4394,135.9704c.6827-25.2235,31.345-35.3644,47.4449-16.2508,15.4397,18.2276,2.7558,48.5277-22.2327,45.9181.6808.0063,2.354-.0337,3.0078-.0377.9616-.152,2.0239-.1926,2.9725-.3666,20.6503-3.9686,28.8425-28.9546,15.4853-44.8722-16.1281-18.6851-44.1943-8.316-46.6778,15.6092h0Z" style="fill:#000001; stroke-width:0px;"/><path d="m198.2743,88.2074l10.9758.9103,52.2899-19.4652c-2.0526-.2071-3.964-.3423-5.6642-.4626-1.7836-.1262-2.2524-.1406-4.4256-.223" style="fill:none; stroke:#000001; stroke-width:.5px;"/><polyline points="198.001 95.4016 208.9635 96.6603 213.5108 100.6666" style="fill:none; stroke:#000001; stroke-width:.5px;"/><polyline points="251.4502 68.9669 198.2743 88.2074 198.001 95.4016 202.5482 99.408 213.5108 100.6666 214.6137 100.2489 214.9082 92.4992 231.8463 85.8682 231.9384 83.4446 232.8087 80.3479" style="fill:none; stroke:#000001; stroke-width:.5px;"/><path d="m251.5353,69.202l-53.0957,19.4619.3198-.438-.2588,7.1946-.169-.394,4.5471,4.0063-.2733-.1216,10.9624,1.2585-.2339.0293,1.1028-.4177-.3224.4485.2915-7.7498.0126-.334.3067-.1152,17.0303-6.3955.1823.4656-16.8459,6.8665.3191-.449-.2973,7.7493-.0127.3313c-.2879.1082-1.2286.4661-1.5263.5781l-.1207-.0137-10.9624-1.2588-.1559-.0178-.1178-.1038-4.5471-4.0063-.1786-.1572.0095-.2371.2879-7.1934.0132-.3286.3069-.1096,53.2559-19.019.1701.4702h0Z" style="fill:#000001; stroke-width:0px;"/><line x1="209.2501" y1="89.1177" x2="208.9635" y2="96.6603" style="fill:none; stroke:#000001; stroke-width:.5px;"/><path d="m158.7602,198.3411c-.5428-10.6681,9.0734-19.2377,19.6329-18.303,1.5916.1156,35.4634,2.7994,37.9752,2.9904,2.4997.2545,5.9853.3782,8.4649.7312,8.7152,1.1493,15.8782,8.5789,17.2462,17.1827,2.1545,11.8903-7.6146,24.0132-20.016,21.9685,11.7291.1581,21.077-10.0969,19.0291-21.8071-1.3012-8.1779-8.1151-15.2648-16.4022-16.3543-2.3463-.3391-5.979-.4884-8.4001-.7243,0,0-33.7561-2.6581-33.7561-2.6581-2.3741-.1438-5.9783-.6353-8.325-.1772-8.4241,1.1827-14.5685,8.9025-15.4488,17.1512h0Z" style="fill:#000001; stroke-width:0px;"/><line x1="264.6627" y1="115.8587" x2="308.4016" y2="93.9061" style="fill:none; stroke:#000001; stroke-width:.5px;"/><line x1="264.6627" y1="115.8587" x2="261.481" y2="115.9157" style="fill:none; stroke:#000001; stroke-width:.5px;"/><line x1="261.481" y1="115.9157" x2="248.1617" y2="114.6335" style="fill:none; stroke:#000001; stroke-width:.5px;"/><path d="m209.7698,176.3733c5.0939-3.1124,10.3483-5.9328,15.761-8.4504-5.0924,3.1151-10.3496,5.9302-15.761,8.4504h0Z" style="fill:#000001; stroke-width:0px;"/><path d="m20.7138,156.8719c-.5208,5.4021.2387,10.6633,2.1691,15.4187,1.1892,2.9294,2.8227,5.6668,4.875,8.127,5.2218,6.2578,12.701,10.03,21.0601,10.6215l26.1759,1.9989c5.6402.3991,10.9914-.6981,15.6162-3.1389,1.1895-.6278,2.331-1.3445,3.417-2.1476l44.9141-29.7634c1.4644-1.0828,10.897-7.8762,10.3579-22.2577l-2.2004-36.0401c-1.0622-30.0568-22.2153-31.7338-33.1246-32.5057-5.0199-.3552-12.5347-.8875-19.4596,1.5479l-50.7091,18.5793c-1.2765.4489-2.535.9887-3.7598,1.6351-7.4366,3.9249-13.631,11.7839-15.0796,27.1488l-4.2522,40.7764Z" style="fill:#fff; stroke-width:0px;"/><path d="m20.7138,156.8719c-.5208,5.4021.2387,10.6633,2.1691,15.4187,1.1892,2.9294,2.8227,5.6668,4.875,8.127,5.2218,6.2578,12.701,10.03,21.0601,10.6215l26.1759,1.9989c5.6402.3991,10.9914-.6981,15.6162-3.1389,1.1895-.6278,2.331-1.3445,3.417-2.1476l44.9141-29.7634c1.4644-1.0828,10.897-7.8762,10.3579-22.2577l-2.2004-36.0401c-1.0622-30.0568-22.2153-31.7338-33.1246-32.5057-5.0199-.3552-12.5347-.8875-19.4596,1.5479l-50.7091,18.5793c-1.2765.4489-2.535.9887-3.7598,1.6351-7.4366,3.9249-13.631,11.7839-15.0796,27.1488l-4.2522,40.7764Z" style="fill:none; stroke:#000001; stroke-linecap:round; stroke-linejoin:round; stroke-width:.5px;"/><path d="m20.2161,156.8239c-.5283,5.4796.2417,10.822,2.2035,15.6547,1.2084,2.9768,2.8686,5.7589,4.9543,8.2593,2.6161,3.1352,5.7901,5.6574,9.3539,7.4812,3.6692,1.8778,7.7489,3.014,12.0521,3.3185,0,0,26.1759,1.9989,26.1786,1.9991,5.7276.4053,11.1726-.7085,15.8849-3.1955,1.2117-.6395,2.3746-1.3697,3.4599-2.173,0,0,44.9141-29.7634,44.9352-29.7782.0163-.0121.0337-.0249.0523-.0386.2029-.1498.5288-.3903.9403-.7226,1.7299-1.3971,4.9723-4.4163,7.2052-9.3242,1.5096-3.3181,2.5537-7.4909,2.3619-12.6047,0,0-2.2004-36.0401-2.1998-36.0273-.4084-11.556-3.7676-19.0197-8.4399-23.8599-7.558-7.8297-18.4222-8.6509-25.1492-9.1269-5.0077-.3544-12.624-.8998-19.6669,1.5772,0,0-50.7091,18.5793-50.7029,18.5771-1.2978.4564-2.5791,1.0058-3.8273,1.6646-3.4893,1.8416-6.7118,4.5341-9.3151,8.4256-3.0546,4.5661-5.2408,10.759-6.0284,19.1136,0,0-4.2522,40.7764-4.2526,40.7803Z" style="fill:none; stroke:#000001; stroke-linecap:round; stroke-linejoin:round; stroke-width:1.5px;"/><path d="m94.0271,187.7513c.9499-.7024,1.8574-1.4708,2.7174-2.3035,5.8455-5.6594,8.9676-13.6239,8.7915-22.4273l-2.176-41.3779c-.5093-28.4971-18.9259-33.9848-31.8536-35.5148" style="fill:none; stroke:#000001; stroke-width:.5px;"/><path d="m60.8798,85.3175c-6.0953-.2572-11.841.1536-17.0744,1.9941" style="fill:none; stroke:#000001; stroke-width:.5px;"/><path d="m70.6356,89.2285c18.9694,2.0986,29.1712,11.6805,29.5426,32.4712l2.1767,41.4318c.1465,7.89-2.6311,15.0026-7.8244,20.0307-4.7745,4.6234-11.2961,7.0214-18.3625,6.7529h-.0008c-.3144-.012-.6318-.0287-.9481-.0516l-26.1761-1.9991c-7.488-.5294-14.1801-3.8982-18.8418-9.4858-4.8246-5.7835-7.0699-13.2945-6.3242-21.1537l4.2578-40.8312c.986-10.2963,4.2813-16.8056,8.7756-20.8657" style="fill:none; stroke:#000001; stroke-width:.5px;"/><path d="m109.5688,69.0576c8.3368.3167,12.5221,1.7543,12.4908,2.5775s-5.6615.6672-12.604.4035-12.5684-.5355-12.5371-1.3586,4.3136-1.9391,12.6503-1.6223Z" style="fill:none; stroke:#000001; stroke-width:.5px;"/><path d="m109.5225,70.2744c6.4626.2455,9.7159,1.1258,9.6974,1.613s-4.3826.3557-9.7644.1512-9.7433-.4045-9.7248-.8917,3.3292-1.1181,9.7918-.8726Z" style="fill:none; stroke:#000001; stroke-width:.5px;"/><path d="m36.9714,93.9914l10.9758.9103,52.2899-19.4652c-2.0526-.2071-3.964-.3423-5.6642-.4626-1.7836-.1262-2.2524-.1406-4.4256-.223" style="fill:none; stroke:#000001; stroke-width:.5px;"/><polyline points="36.6981 101.1856 47.6607 102.4443 52.2079 106.4506" style="fill:none; stroke:#000001; stroke-width:.5px;"/><polyline points="90.1474 74.751 36.9714 93.9914 36.6981 101.1856 41.2454 105.192 52.2079 106.4506 53.3109 106.0329 53.6053 98.2832 70.5435 91.6522 70.6356 89.2286 71.5058 86.1319" style="fill:none; stroke:#000001; stroke-width:.5px;"/><path d="m90.2324,74.986l-53.0957,19.4619.3198-.438-.2588,7.1946-.169-.394,4.5471,4.0063-.2733-.1216,10.9624,1.2588-.2339.0291,1.1028-.4177-.3224.4485.2915-7.7495.0126-.3342.3067-.1152,17.0303-6.3955.1823.4658-16.8459,6.8662.3191-.449-.2973,7.7495-.0127.3313c-.2879.1084-1.2287.4656-1.5263.5781l-.1207-.0139-10.9624-1.2588-.1559-.0178-.1177-.1038-4.5471-4.0061-.1787-.1575.0095-.2368.2879-7.1936.0132-.3286.3069-.1096,53.2559-19.019.1701.4702h0Z" style="fill:#000001; stroke-width:0px;"/><line x1="47.9472" y1="94.9017" x2="47.6607" y2="102.4443" style="fill:none; stroke:#000001; stroke-width:.5px;"/><line x1="103.3599" y1="121.6427" x2="147.0987" y2="99.6901" style="fill:none; stroke:#000001; stroke-width:.5px;"/><line x1="103.3599" y1="121.6427" x2="100.1781" y2="121.6997" style="fill:none; stroke:#000001; stroke-width:.5px;"/><line x1="100.1781" y1="121.6997" x2="86.8589" y2="120.4175" style="fill:none; stroke:#000001; stroke-width:.5px;"/><path d="m41.0546,171.5602c-15.736-1.2209-26.0135-15.3792-25.2124-29.6673.854-15.2317,13.5378-26.7385,28.3311-25.6663,14.8174,1.0739,26.2102,14.3872,25.352,29.6943-.7906,14.101-12.3984,26.8863-28.4707,25.6393Z" style="fill:#fff; stroke-width:0px;"/><path d="m33.4969,160.2404c-.1464,3.8539,2.7927,7.2098,6.5688,7.5,3.7708.2898,6.9451-2.6001,7.0917-6.4589.1466-3.8587-2.7901-7.2227-6.561-7.5077-3.7764-.2854-6.9531,2.6127-7.0995,6.4665Zm3.428.2613c.0729-1.9193,1.6537-3.3607,3.5381-3.2177,1.8771.1425,3.341,1.816,3.268,3.7365-.073,1.9205-1.6552,3.3617-3.5322,3.2181-1.8844-.1442-3.3468-1.8175-3.2739-3.7368Zm8.8427-24.7888c-.1569,4.1298,2.9974,7.7377,7.0564,8.0404,4.062.3029,7.4789-2.8196,7.636-6.955.1577-4.152-3.0037-7.7523-7.0659-8.0496-4.0592-.2971-7.4689,2.8178-7.6264,6.9642Zm3.6694.2711c.0786-2.0698,1.7885-3.631,3.8145-3.482,2.0267.149,3.6104,1.9535,3.5317,4.0247-.0784,2.0629-1.79,3.6239-3.8166,3.4735-2.0259-.1504-3.6079-1.9547-3.5296-4.0162Zm2.0631,16.8355c-.0984,2.5899,1.8721,4.8486,4.4159,5.0416,2.5369.1924,4.6699-1.7569,4.7684-4.349.0988-2.6004-1.8743-4.8593-4.4113-5.0495-2.5439-.1907-4.6742,1.7587-4.7729,4.3569Zm2.2926.1729c.0492-1.2953,1.1149-2.2741,2.391-2.1781,1.2684.0954,2.2544,1.2289,2.2052,2.5247s-1.1153,2.2663-2.3836,2.1704c-1.2761-.0965-2.2618-1.2217-2.2126-2.517Zm-32.6334-1.7984c-.0981,2.5826,1.8609,4.8345,4.3904,5.0263,2.5226.1913,4.6598-1.7517,4.758-4.3364.0985-2.593-1.8793-4.8463-4.4019-5.0354-2.5296-.1897-4.648,1.7547-4.7465,4.3456Zm2.2796.1719c.0491-1.2916,1.1169-2.2672,2.3778-2.1724,1.2612.0948,2.2496,1.2255,2.2005,2.5177-.0491,1.2922-1.1172,2.2595-2.3784,2.1641s-2.249-1.2178-2.1999-2.5094Zm-1.2415-17.3942c-.1566,4.1208,2.9838,7.7205,7.0092,8.0206,4.0444.3016,7.4468-2.8147,7.6036-6.9411.1574-4.143-2.9901-7.735-7.0348-8.031-4.0256-.2946-7.4208,2.814-7.578,6.9514Zm3.6536.2699c.0785-2.0653,1.7731-3.624,3.7822-3.4762,2.0259.149,3.5946,1.9487,3.5161,4.0154-.0782,2.0584-1.7745,3.6169-3.8004,3.4665-2.009-.1491-3.5761-1.9486-3.4979-4.0057Zm16.5372,42.7929c1.7917-.0083,3.5756-.1686,5.3135-.4866,13.7273-2.5118,25.8179-14.8986,26.6794-30.2626,1.015-18.1021-12.4138-33.7764-29.9286-35.0378-17.4827-1.2591-32.405,12.288-33.4141,30.285-.8448,15.0679,7.2469,29.1114,20.8531,33.7882,1.6699.574,3.4082,1.0076,5.1767,1.2951l-.1702,4.4801,5.3202.4186.1702-4.4801Zm-1.3337-5.4742c-15.736-1.2209-26.0135-15.3792-25.2124-29.6673.854-15.2317,13.5378-26.7385,28.3311-25.6663,14.8174,1.0739,26.2102,14.3872,25.352,29.6943-.7906,14.101-12.3984,26.8863-28.4707,25.6393Z" style="fill:#fff; stroke-width:0px;"/><path d="m63.4585,161.8223c-3.4172.2757-6.3705-.1697-8.4563-.6855" style="fill:none; stroke:#000001; stroke-width:.5px;"/><path d="m37.4835,123.1677c1.7594-3.5163,3.9331-5.8079,5.2018-7.007" style="fill:none; stroke:#000001; stroke-width:.5px;"/><path d="m41.2582,152.4855c-.7705-.9194-1.0207-1.1907-1.6644-2.1996" style="fill:none; stroke:#000001; stroke-width:.5px;"/><path d="m61.9527,145.2306c-1.8151-.8213-3.9504-.6426-5.6865.3823l-5.4965,2.7072-10.9991,5.3979c-.8997.4492-1.872.8984-2.7121,1.3474-2.517,1.427-3.6326,4.6587-2.7614,7.3889,1.0283,3.7299,5.6089,6.0021,9.0907,4.1176,0,0,.4624.8867.4624.8867l-.0181.0093-.4588-.8884,11.8291-5.9363,5.9146-2.9681c1.9984-.8774,3.8844-2.0647,4.5237-4.2539,0,.0001.4741.1592.4741.1592-.5603,1.6219-1.7473,3.0328-3.2887,3.7989,0,0-1.4611.7761-1.4611.7761l-5.8443,3.1041-11.6886,6.2084-.4588-.8884.0181-.0094.4624.8867-.0063.0032-.0197.0101c-6.7784,3.5018-13.7526-4.7828-9.6449-11.0246,1.1334-1.89,3.2882-2.7154,5.1731-3.5754,0,0,11.1228-5.1549,11.1228-5.1549l5.5645-2.5693c1.8198-1.021,4.1595-1.2313,6.1068-.3747,0,0-.1972.4594-.1972.4594h0Z" style="fill:#000001; stroke-width:0px;"/><path d="m69.4277,141.4348l-1.6793.8118c-1.7508.8464-3.7629,1.8191-5.6972,2.7543l-8.3804,4.0713c-1.2538.7529-2.1091,2.1234-2.1708,3.7472-.0492,1.295.4188,2.5071,1.2171,3.4196s1.9269,1.5254,3.1988,1.6219c.8627.0654,1.6787-.1168,2.3839-.4878l10.1451-5.1844" style="fill:none; stroke:#000001;"/><path d="m61.5097,124.3997l-11.6138,4.9765c-2.3575,1.094-4.0193,3.4703-4.1282,6.3368-.0785,2.0649.6709,3.9993,1.9472,5.4554,1.2763,1.456,3.0796,2.4337,5.1091,2.585,1.2808.0955,2.4975-.1495,3.568-.6595l12.3088-5.8021" style="fill:none; stroke:#000001;"/><path d="m35.9839,141.8179c-.0731-.3022-.6-1.3028-.6627-1.6074" style="fill:none; stroke:#000001; stroke-width:.5px;"/><path d="m45.9883,138.1957c-1.3803-.217-3.2201.9806-4.4688,1.468-2.8185,1.2693-10.4525,4.7076-13.3704,6.0215l-4.4208,1.9987c-2.8296,1.4292-2.7633,5.8013-.1194,7.3893,1.3989.948,3.2351.8455,4.599-.0586,0,0,.2389.4311.2389.4311.0319.0323-.6477-.2106-.6439-.2016,4.7746-2.1765,14.6926-6.6597,19.3682-8.7815,1.4862-.5444,2.6146-1.865,2.7294-3.4528,0,0,.4981.0435.4981.0435-.1503,1.7432-1.4116,3.2636-3.0109,3.8729-4.5813,2.2106-14.4751,6.9701-19.1616,9.2238l-.4203.2023-.2288-.4128c-.0678-.0259.7621.1946.6576.1949-5.9641,2.9757-10.6717-5.8913-4.8789-9.1603,2.8449-1.2461,10.5195-4.5779,13.4677-5.8575l4.48-1.9453c1.3639-.5085,3.1904-1.6911,4.7253-1.4738,0,0-.0405.4985-.0405.4985h0Z" style="fill:#000001; stroke-width:0px;"/><path d="m56.1035,126.6019c.2516-4.5479-4.5925-8.6586-9.0069-6.9845-2.8386,1.0881-9.8295,4.0971-12.758,5.2794-1.403.5827-5.0272,2.0847-6.3855,2.6485-3.5965.97-5.9515,4.6296-5.0513,8.2926.872,4.3653,6.0172,7.0883,10.0212,4.8715,0,.0001,4.2182-1.8456,4.2182-1.8456l8.5303-3.4785.2013.4575c-2.7573,1.3126-9.8136,4.6583-12.5387,5.7971-4.5545,2.5044-10.4963-.5514-11.476-5.5694-1.0284-4.1105,1.6765-8.4597,5.738-9.4919,1.3522-.5228,5.035-1.946,6.4364-2.4875l8.5881-3.3081c2.8503-1.0034,5.9174-2.88,8.9836-1.5639,2.997,1.1157,5.0428,4.2102,4.9991,7.3972l-.4998-.0144h0Z" style="fill:#000001; stroke-width:0px;"/><path d="m79.7095,143.5044c-.0368.9695-.1121,1.9278-.235,2.8649l-1.7827.9226c.1231-.9371.1977-1.8857.2346-2.8552.035-.921.0307-1.8241-.0127-2.7288l1.7829-.9323c.0434.9046.0479,1.8078.0129,2.7288Z" style="fill:none; stroke:#000001; stroke-width:.5px;"/><path d="m33.6837,160.7642c-.0657,1.7285.5606,3.3454,1.6267,4.5626s2.572,2.0349,4.2657,2.1651c3.3825.26,6.2299-2.3324,6.3614-5.7937.1315-3.4614-2.5027-6.4789-5.8854-6.7346-3.3875-.256-6.237,2.3436-6.3684,5.8006Z" style="fill:none; stroke:#000001; stroke-width:.5px;"/><path d="m39.7252,165.5576c-1.1297-.0865-2.1789-.6223-2.9549-1.5089-.7842-.8964-1.1922-2.0364-1.1476-3.2104.0873-2.2988,1.8997-4.0333,4.1247-3.9488l.158.0098c2.3494.1774,4.1851,2.2971,4.0928,4.7256-.0426,1.121-.4958,2.1448-1.2747,2.8813-.7661.7237-1.7731,1.1007-2.8364,1.0604l-.1618-.009Z" style="fill:none; stroke:#000001; stroke-width:.5px;"/><path d="m36.9249,160.5017c.0729-1.9193,1.6537-3.3607,3.5381-3.2177,1.8771.1425,3.341,1.816,3.268,3.7365-.073,1.9205-1.6552,3.3617-3.5322,3.2181-.9422-.0721-1.7789-.5265-2.3709-1.2028-.592-.6763-.9394-1.5744-.9029-2.534Z" style="fill:none; stroke:#000001; stroke-width:.5px;"/><path d="m45.9682,136.2747c-.0704,1.8523.6018,3.5875,1.7467,4.8936,1.1449,1.3061,2.7625,2.1831,4.583,2.3188,3.6437.2717,6.7087-2.5293,6.8497-6.2388.1415-3.7244-2.6944-6.954-6.3383-7.2207-3.6412-.2665-6.6998,2.5276-6.8411,6.247Z" style="fill:none; stroke:#000001; stroke-width:.5px;"/><path d="m52.4416,141.552c-1.248-.0929-2.4089-.6832-3.2686-1.663-.8651-.9877-1.3151-2.2459-1.2659-3.5411.0972-2.5582,2.1161-4.4878,4.5976-4.3935l.1627.009c2.6059.19,4.6428,2.5278,4.5409,5.211-.0472,1.2412-.553,2.3778-1.4234,3.2-.8586.8112-1.9858,1.233-3.174,1.1879l-.1693-.0102Z" style="fill:none; stroke:#000001; stroke-width:.5px;"/><path d="m49.4371,135.984c.0786-2.0698,1.7885-3.631,3.8145-3.482,2.0267.149,3.6104,1.9535,3.5317,4.0247-.0784,2.0629-1.79,3.6239-3.8166,3.4735-1.0129-.0752-1.9149-.5638-2.5539-1.2914s-1.0149-1.694-.9757-2.7248Z" style="fill:none; stroke:#000001; stroke-width:.5px;"/><path d="m51.6827,153.3324c-.0418,1.1007.356,2.131,1.0345,2.9067.6785.7757,1.6378,1.2966,2.7189,1.3786,2.1564.1635,3.9694-1.4933,4.0532-3.6966.084-2.2103-1.5932-4.1304-3.7496-4.2921-2.1623-.1621-3.9731,1.4949-4.057,3.7034Z" style="fill:none; stroke:#000001; stroke-width:.5px;"/><path d="m53.7928,152.9923c.0492-1.2953,1.1149-2.2741,2.391-2.1781,1.2684.0954,2.2544,1.2289,2.2052,2.5247s-1.1153,2.2663-2.3836,2.1704c-.638-.0483-1.2035-.3537-1.6033-.809s-.6339-1.0604-.6093-1.708Z" style="fill:none; stroke:#000001; stroke-width:.5px;"/><path d="m21.3409,151.7054c-.0417,1.0976.3537,2.1249,1.0284,2.8982.6746.7733,1.6284,1.2926,2.7035,1.3741,2.1442.1626,3.9608-1.4889,4.0443-3.686.0837-2.2041-1.5974-4.1194-3.7417-4.2801-2.1501-.1612-3.9508,1.4915-4.0345,3.6937Z" style="fill:none; stroke:#000001; stroke-width:.5px;"/><path d="m23.439,151.3658c.0491-1.2916,1.1169-2.2672,2.3778-2.1724,1.2612.0948,2.2496,1.2255,2.2005,2.5177-.0491,1.2922-1.1172,2.2595-2.3784,2.1641-.6304-.0477-1.1927-.3521-1.5912-.8061-.3985-.454-.6332-1.0575-.6087-1.7033Z" style="fill:none; stroke:#000001; stroke-width:.5px;"/><path d="m25.8511,134.2415c.0785-2.0653,1.7731-3.624,3.7822-3.4762,2.0259.149,3.5946,1.9487,3.5161,4.0154-.0782,2.0584-1.7745,3.6169-3.8004,3.4665-1.0045-.0746-1.8985-.5617-2.5316-1.2874s-1.0053-1.6898-.9662-2.7183Z" style="fill:none; stroke:#000001; stroke-width:.5px;"/><path d="m22.4097,134.5681c-.0697,1.8346.5945,3.5532,1.7241,4.8465,1.1296,1.2933,2.7247,2.1614,4.5168,2.2951,3.6012.2685,6.6307-2.5062,6.7703-6.1803.1402-3.6889-2.6624-6.8872-6.2638-7.1508-3.5844-.2623-6.6075,2.5056-6.7475,6.1896Z" style="fill:none; stroke:#000001; stroke-width:.5px;"/><path d="m28.7951,139.7746c-1.2206-.0909-2.3572-.6717-3.2004-1.6367-.8513-.9758-1.2944-2.2176-1.2458-3.4957.0959-2.5241,2.076-4.4296,4.5082-4.3372l.158.0088c2.5633.1875,4.5673,2.4946,4.4667,5.1418-.0466,1.2261-.5443,2.3478-1.4019,3.1591-.8438.7985-1.9519,1.2144-3.1193,1.17l-.1655-.0101Z" style="fill:none; stroke:#000001; stroke-width:.5px;"/><path d="m49.0931,106.093l-17.4784,6.9575c-.4136.1639-3.1679,1.2215-4.587,2.1559-9.0312,5.1618-15.3504,14.8346-15.9909,26.3253-.7018,12.5951,4.8275,24.4754,14.6182,30.7601,1.9448,1.2484,4.0509,2.2776,6.2364,3.0288,1.6699.574,3.4082,1.0076,5.1767,1.2951l-.1702,4.4801,5.3202.4186.1702-4.4801c1.7917-.0083,3.5756-.1686,5.3135-.4866,3.9031-.7142,7.6738-2.2267,11.0918-4.3789l16.5912-9.0754c8.786-4.8411,14.9457-14.151,15.3715-25.3585.6553-17.2475-12.5157-32.1755-29.3642-33.369-2.7709-.1981-5.4657-.0108-8.0373.5135" style="fill:none; stroke:#000001; stroke-width:.5px;"/><polyline points="42.2181 181.5145 58.739 174.2879 58.8195 172.1699" style="fill:none; stroke:#000001; stroke-width:.5px;"/><path d="m15.8423,141.893c.6824-25.2235,31.3454-35.3647,47.4448-16.2508,15.4399,18.2276,2.7555,48.5276-22.2327,45.918.6808.0063,2.354-.0337,3.0078-.0377.9616-.152,2.0239-.1927,2.9725-.3666,20.6502-3.9685,28.8427-28.9548,15.4853-44.8721-16.1278-18.6855-44.1944-8.3161-46.6778,15.6092h0Z" style="fill:#000001; stroke-width:0px;"/><path d="m49.1796,106.3275c-5.1525,2.1057-10.907,4.4269-16.1134,6.4877-1.818.657-3.6089,1.3379-5.2361,2.221-21.425,11.2969-22.0086,44.0897-2.0025,57.0546,2.987,2.349,7.0865,3.4917,10.8037,4.2475.3733.0655.6328.3986.6185.767l-.172,4.5265-.6906-.776,6.4079.5032c.0456-.0014-.3864.0739-.3781.0747,0,0,16.2123-7.3702,16.2123-7.3702.1257-.0573.274-.0016.3312.1241.0551.1212.0048.2637-.1116.325l-15.7731,8.2686c-.1278.0663-.2632.0883-.3981.0732,0,0-6.4079-.5032-6.4079-.5032-.4023-.0316-.7054-.3767-.6908-.7762l.172-4.5266.6182.7668c-4.0897-.8544-8.1352-1.9458-11.5176-4.585-20.6169-13.4109-20.2816-47.574,2.2539-59.5066,7.0968-3.4276,14.5386-5.2497,21.9012-7.8652.1315-.0424.2726.0296.3152.1612.0404.1248-.0233.2585-.1422.3081h0Z" style="fill:#000001; stroke-width:0px;"/><path d="m31.8914,175.3206c1.6699.574,3.4082,1.0076,5.1767,1.2951l-.1702,4.4801,5.3202.4186.1702-4.4801c1.7917-.0083,3.5756-.1686,5.3135-.4866,13.7273-2.5118,25.8179-14.8986,26.6794-30.2626" style="fill:none; stroke:#000001; stroke-width:.5px;"/><path d="m33.4969,160.2404c-.1464,3.8539,2.7927,7.2098,6.5688,7.5,3.7708.2898,6.9451-2.6001,7.0917-6.4589.1466-3.8587-2.7901-7.2227-6.561-7.5077-3.7764-.2854-6.9531,2.6127-7.0995,6.4665Zm3.428.2613c.0729-1.9193,1.6537-3.3607,3.5381-3.2177,1.8771.1425,3.341,1.816,3.268,3.7365-.073,1.9205-1.6552,3.3617-3.5322,3.2181-1.8844-.1442-3.3468-1.8175-3.2739-3.7368Zm8.8427-24.7888c-.1569,4.1298,2.9974,7.7377,7.0564,8.0404,4.062.3029,7.4789-2.8196,7.636-6.955.1577-4.152-3.0037-7.7523-7.0659-8.0496-4.0592-.2971-7.4689,2.8178-7.6264,6.9642Zm3.6694.2711c.0786-2.0698,1.7885-3.631,3.8145-3.482,2.0267.149,3.6104,1.9535,3.5317,4.0247-.0784,2.0629-1.79,3.6239-3.8166,3.4735-2.0259-.1504-3.6079-1.9547-3.5296-4.0162Zm2.0631,16.8355c-.0984,2.5899,1.8721,4.8486,4.4159,5.0416,2.5369.1924,4.6699-1.7569,4.7684-4.349.0988-2.6004-1.8743-4.8593-4.4113-5.0495-2.5439-.1907-4.6742,1.7587-4.7729,4.3569Zm2.2926.1729c.0492-1.2953,1.1149-2.2741,2.391-2.1781,1.2684.0954,2.2544,1.2289,2.2052,2.5247s-1.1153,2.2663-2.3836,2.1704c-1.2761-.0965-2.2618-1.2217-2.2126-2.517Zm-32.6334-1.7984c-.0981,2.5826,1.8609,4.8345,4.3904,5.0263,2.5226.1913,4.6598-1.7517,4.758-4.3364.0985-2.593-1.8793-4.8463-4.4019-5.0354-2.5296-.1897-4.648,1.7547-4.7465,4.3456Zm2.2796.1719c.0491-1.2916,1.1169-2.2672,2.3778-2.1724,1.2612.0948,2.2496,1.2255,2.2005,2.5177-.0491,1.2922-1.1172,2.2595-2.3784,2.1641s-2.249-1.2178-2.1999-2.5094Zm-1.2415-17.3942c-.1566,4.1208,2.9838,7.7205,7.0092,8.0206,4.0444.3016,7.4468-2.8147,7.6036-6.9411.1574-4.143-2.9901-7.735-7.0348-8.031-4.0256-.2946-7.4208,2.814-7.578,6.9514Zm3.6536.2699c.0785-2.0653,1.7731-3.624,3.7822-3.4762,2.0259.149,3.5946,1.9487,3.5161,4.0154-.0782,2.0584-1.7745,3.6169-3.8004,3.4665-2.009-.1491-3.5761-1.9486-3.4979-4.0057Zm16.5372,42.7929c1.7917-.0083,3.5756-.1686,5.3135-.4866,13.7273-2.5118,25.8179-14.8986,26.6794-30.2626,1.015-18.1021-12.4138-33.7764-29.9286-35.0378-17.4827-1.2591-32.405,12.288-33.4141,30.285-.8448,15.0679,7.2469,29.1114,20.8531,33.7882,1.6699.574,3.4082,1.0076,5.1767,1.2951l-.1702,4.4801,5.3202.4186.1702-4.4801Zm-1.3337-5.4742c-15.736-1.2209-26.0135-15.3792-25.2124-29.6673.854-15.2317,13.5378-26.7385,28.3311-25.6663,14.8174,1.0739,26.2102,14.3872,25.352,29.6943-.7906,14.101-12.3984,26.8863-28.4707,25.6393Z" style="fill:none; stroke:#000001; stroke-width:.5px;"/><path d="m63.4585,161.8223c-3.4172.2757-6.3705-.1697-8.4563-.6855" style="fill:none; stroke:#000001; stroke-width:.5px;"/><path d="m37.4835,123.1677c1.7594-3.5163,3.9331-5.8079,5.2018-7.007" style="fill:none; stroke:#000001; stroke-width:.5px;"/><path d="m41.2582,152.4855c-.7705-.9194-1.0207-1.1907-1.6644-2.1996" style="fill:none; stroke:#000001; stroke-width:.5px;"/><path d="m61.9527,145.2306c-1.8151-.8213-3.9504-.6426-5.6865.3823l-5.4965,2.7072-10.9991,5.3979c-.8997.4492-1.872.8984-2.7121,1.3474-2.517,1.427-3.6326,4.6587-2.7614,7.3889,1.0283,3.7299,5.6089,6.0021,9.0907,4.1176,0,0,.4624.8867.4624.8867l-.0181.0093-.4588-.8884,11.8291-5.9363,5.9146-2.9681c1.9984-.8774,3.8844-2.0647,4.5237-4.2539,0,.0001.4741.1592.4741.1592-.5603,1.6219-1.7473,3.0328-3.2887,3.7989,0,0-1.4611.7761-1.4611.7761l-5.8443,3.1041-11.6886,6.2084-.4588-.8884.0181-.0094.4624.8867-.0063.0032-.0197.0101c-6.7784,3.5018-13.7526-4.7828-9.6449-11.0246,1.1334-1.89,3.2882-2.7154,5.1731-3.5754,0,0,11.1228-5.1549,11.1228-5.1549l5.5645-2.5693c1.8198-1.021,4.1595-1.2313,6.1068-.3747,0,0-.1972.4594-.1972.4594h0Z" style="fill:#000001; stroke-width:0px;"/><path d="m69.4277,141.4348l-1.6793.8118c-1.7508.8464-3.7629,1.8191-5.6972,2.7543l-8.3804,4.0713c-1.2538.7529-2.1091,2.1234-2.1708,3.7472-.0492,1.295.4188,2.5071,1.2171,3.4196s1.9269,1.5254,3.1988,1.6219c.8627.0654,1.6787-.1168,2.3839-.4878l10.1451-5.1844" style="fill:none; stroke:#000001;"/><path d="m61.5097,124.3997l-11.6138,4.9765c-2.3575,1.094-4.0193,3.4703-4.1282,6.3368-.0785,2.0649.6709,3.9993,1.9472,5.4554,1.2763,1.456,3.0796,2.4337,5.1091,2.585,1.2808.0955,2.4975-.1495,3.568-.6595l12.3088-5.8021" style="fill:none; stroke:#000001;"/><path d="m35.9839,141.8179c-.0731-.3022-.6-1.3028-.6627-1.6074" style="fill:none; stroke:#000001; stroke-width:.5px;"/><path d="m45.9883,138.1957c-1.3803-.217-3.2201.9806-4.4688,1.468-2.8185,1.2693-10.4525,4.7076-13.3704,6.0215l-4.4208,1.9987c-2.8296,1.4292-2.7633,5.8013-.1194,7.3893,1.3989.948,3.2351.8455,4.599-.0586,0,0,.2389.4311.2389.4311.0319.0323-.6477-.2106-.6439-.2016,4.7746-2.1765,14.6926-6.6597,19.3682-8.7815,1.4862-.5444,2.6146-1.865,2.7294-3.4528,0,0,.4981.0435.4981.0435-.1503,1.7432-1.4116,3.2636-3.0109,3.8729-4.5813,2.2106-14.4751,6.9701-19.1616,9.2238l-.4203.2023-.2288-.4128c-.0678-.0259.7621.1946.6576.1949-5.9641,2.9757-10.6717-5.8913-4.8789-9.1603,2.8449-1.2461,10.5195-4.5779,13.4677-5.8575l4.48-1.9453c1.3639-.5085,3.1904-1.6911,4.7253-1.4738,0,0-.0405.4985-.0405.4985h0Z" style="fill:#000001; stroke-width:0px;"/><path d="m56.1035,126.6019c.2516-4.5479-4.5925-8.6586-9.0069-6.9845-2.8386,1.0881-9.8295,4.0971-12.758,5.2794-1.403.5827-5.0272,2.0847-6.3855,2.6485-3.5965.97-5.9515,4.6296-5.0513,8.2926.872,4.3653,6.0172,7.0883,10.0212,4.8715,0,.0001,4.2182-1.8456,4.2182-1.8456l8.5303-3.4785.2013.4575c-2.7573,1.3126-9.8136,4.6583-12.5387,5.7971-4.5545,2.5044-10.4963-.5514-11.476-5.5694-1.0284-4.1105,1.6765-8.4597,5.738-9.4919,1.3522-.5228,5.035-1.946,6.4364-2.4875l8.5881-3.3081c2.8503-1.0034,5.9174-2.88,8.9836-1.5639,2.997,1.1157,5.0428,4.2102,4.9991,7.3972l-.4998-.0144h0Z" style="fill:#000001; stroke-width:0px;"/><path d="m33.6837,160.7642c-.0657,1.7285.5606,3.3454,1.6267,4.5626s2.572,2.0349,4.2657,2.1651c3.3825.26,6.2299-2.3324,6.3614-5.7937.1315-3.4614-2.5027-6.4789-5.8854-6.7346-3.3875-.256-6.237,2.3436-6.3684,5.8006Z" style="fill:none; stroke:#000001; stroke-width:.5px;"/><path d="m39.7252,165.5576c-1.1297-.0865-2.1789-.6223-2.9549-1.5089-.7842-.8964-1.1922-2.0364-1.1476-3.2104.0873-2.2988,1.8997-4.0333,4.1247-3.9488l.158.0098c2.3494.1774,4.1851,2.2971,4.0928,4.7256-.0426,1.121-.4958,2.1448-1.2747,2.8813-.7661.7237-1.7731,1.1007-2.8364,1.0604l-.1618-.009Z" style="fill:none; stroke:#000001; stroke-width:.5px;"/><path d="m36.9249,160.5017c.0729-1.9193,1.6537-3.3607,3.5381-3.2177,1.8771.1425,3.341,1.816,3.268,3.7365-.073,1.9205-1.6552,3.3617-3.5322,3.2181-.9422-.0721-1.7789-.5265-2.3709-1.2028-.592-.6763-.9394-1.5744-.9029-2.534Z" style="fill:none; stroke:#000001; stroke-width:.5px;"/><path d="m45.9682,136.2747c-.0704,1.8523.6018,3.5875,1.7467,4.8936,1.1449,1.3061,2.7625,2.1831,4.583,2.3188,3.6437.2717,6.7087-2.5293,6.8497-6.2388.1415-3.7244-2.6944-6.954-6.3383-7.2207-3.6412-.2665-6.6998,2.5276-6.8411,6.247Z" style="fill:none; stroke:#000001; stroke-width:.5px;"/><path d="m52.4416,141.552c-1.248-.0929-2.4089-.6832-3.2686-1.663-.8651-.9877-1.3151-2.2459-1.2659-3.5411.0972-2.5582,2.1161-4.4878,4.5976-4.3935l.1627.009c2.6059.19,4.6428,2.5278,4.5409,5.211-.0472,1.2412-.553,2.3778-1.4234,3.2-.8586.8112-1.9858,1.233-3.174,1.1879l-.1693-.0102Z" style="fill:none; stroke:#000001; stroke-width:.5px;"/><path d="m49.4371,135.984c.0786-2.0698,1.7885-3.631,3.8145-3.482,2.0267.149,3.6104,1.9535,3.5317,4.0247-.0784,2.0629-1.79,3.6239-3.8166,3.4735-1.0129-.0752-1.9149-.5638-2.5539-1.2914s-1.0149-1.694-.9757-2.7248Z" style="fill:none; stroke:#000001; stroke-width:.5px;"/><path d="m51.6827,153.3324c-.0418,1.1007.356,2.131,1.0345,2.9067.6785.7757,1.6378,1.2966,2.7189,1.3786,2.1564.1635,3.9694-1.4933,4.0532-3.6966.084-2.2103-1.5932-4.1304-3.7496-4.2921-2.1623-.1621-3.9731,1.4949-4.057,3.7034Z" style="fill:none; stroke:#000001; stroke-width:.5px;"/><path d="m53.7928,152.9923c.0492-1.2953,1.1149-2.2741,2.391-2.1781,1.2684.0954,2.2544,1.2289,2.2052,2.5247s-1.1153,2.2663-2.3836,2.1704c-.638-.0483-1.2035-.3537-1.6033-.809s-.6339-1.0604-.6093-1.708Z" style="fill:none; stroke:#000001; stroke-width:.5px;"/><path d="m21.3409,151.7054c-.0417,1.0976.3537,2.1249,1.0284,2.8982.6746.7733,1.6284,1.2926,2.7035,1.3741,2.1442.1626,3.9608-1.4889,4.0443-3.686.0837-2.2041-1.5974-4.1194-3.7417-4.2801-2.1501-.1612-3.9508,1.4915-4.0345,3.6937Z" style="fill:none; stroke:#000001; stroke-width:.5px;"/><path d="m23.439,151.3658c.0491-1.2916,1.1169-2.2672,2.3778-2.1724,1.2612.0948,2.2496,1.2255,2.2005,2.5177-.0491,1.2922-1.1172,2.2595-2.3784,2.1641-.6304-.0477-1.1927-.3521-1.5912-.8061-.3985-.454-.6332-1.0575-.6087-1.7033Z" style="fill:none; stroke:#000001; stroke-width:.5px;"/><path d="m25.8511,134.2415c.0785-2.0653,1.7731-3.624,3.7822-3.4762,2.0259.149,3.5946,1.9487,3.5161,4.0154-.0782,2.0584-1.7745,3.6169-3.8004,3.4665-1.0045-.0746-1.8985-.5617-2.5316-1.2874s-1.0053-1.6898-.9662-2.7183Z" style="fill:none; stroke:#000001; stroke-width:.5px;"/><path d="m22.4097,134.5681c-.0697,1.8346.5945,3.5532,1.7241,4.8465,1.1296,1.2933,2.7247,2.1614,4.5168,2.2951,3.6012.2685,6.6307-2.5062,6.7703-6.1803.1402-3.6889-2.6624-6.8872-6.2638-7.1508-3.5844-.2623-6.6075,2.5056-6.7475,6.1896Z" style="fill:none; stroke:#000001; stroke-width:.5px;"/><path d="m28.7951,139.7746c-1.2206-.0909-2.3572-.6717-3.2004-1.6367-.8513-.9758-1.2944-2.2176-1.2458-3.4957.0959-2.5241,2.076-4.4296,4.5082-4.3372l.158.0088c2.5633.1875,4.5673,2.4946,4.4667,5.1418-.0466,1.2261-.5443,2.3478-1.4019,3.1591-.8438.7985-1.9519,1.2144-3.1193,1.17l-.1655-.0101Z" style="fill:none; stroke:#000001; stroke-width:.5px;"/><path d="m15.8423,141.893c.6824-25.2235,31.3454-35.3647,47.4448-16.2508,15.4399,18.2276,2.7555,48.5276-22.2327,45.918.6808.0063,2.354-.0337,3.0078-.0377.9616-.152,2.0239-.1927,2.9725-.3666,20.6502-3.9685,28.8427-28.9548,15.4853-44.8721-16.1278-18.6855-44.1944-8.3161-46.6778,15.6092h0Z" style="fill:#000001; stroke-width:0px;"/><circle cx="257.6394" cy="29.5797" r="18.3524" style="fill:none; stroke:#f2a900; stroke-miterlimit:10; stroke-width:4px;"/><polyline points="267.5989 22.4498 254.6181 35.4306 248.9974 29.8099" style="fill:none; stroke:#f2a900; stroke-miterlimit:10; stroke-width:4px;"/></svg>