<?xml version="1.0" encoding="UTF-8"?><svg id="uuid-9b7fe7ae-14e8-4513-84a9-df8c51695cd6" xmlns="http://www.w3.org/2000/svg" width="218" height="197.7518" xmlns:xlink="http://www.w3.org/1999/xlink" viewBox="0 0 218 197.7518"><defs><clipPath id="uuid-9c628bb8-8b2c-4b3f-be51-546f9beaa8a1"><rect x="293.5497" y="5.2557" width="209.8157" height="181.3057" style="fill:none; stroke-width:0px;"/></clipPath></defs><path d="m125.7023,109.6466c-.56-.07-.95-.12-1.14-.12-1.32,0-2.56-1.59-2.56-1.59-.06-1,0-3.77,0-3.77.49-1.1,1.74-1.96,1.74-1.96l3.83-1.47c.02,0,.04.01.06.02.13.04.25.08.36.12.13.05.25.1.37.15.12.07.24.13.34.19.08.05.16.1.23.15.06.04.11.08.16.12.05.05.1.09.15.13.14.13.26.26.36.39.04.05.07.09.1.14.06.09.12.18.16.27.02.04.05.09.07.13.06.14.11.27.14.39.03.08.05.16.06.23.08.37.06.66.05.76.32.04.64.08.95.12.95.12,1.87.24,2.68.33.75.08,1.49.15,2.21.2.57.05,1.14.08,1.68.11.41.02.82.04,1.21.05,1.59.05,3.01.06,4.15.04,1.15-.02,3.6-.23,5.71-.43v-.01c.25-2.11.62-3.18,2.2-2.91,1.58.28,1.95,2.96,1.95,4.17,0,1.22-.21,5.17-.27,5.66s-1.22,1.41-3.44-.44l-.01-.1c-1.34.11-3.15.25-5.56.45-2.48.2-5.52.04-8.45-.25-1.08-.11-2.14-.23-3.15-.36-.36-.05-.71-.1-1.05-.14-.46-.06-.9-.13-1.33-.19-.2-.03-.41-.06-.6-.09-.2-.02-.39-.05-.58-.08-.82-.12-1.56-.23-2.16-.32-.23-.03-.43-.06-.62-.09Z" style="fill:#fff; stroke-width:0px;"/><path d="m38.9623,81.2966c.16,1.77.36,3.79.51,5.5l-.44.04c-2.29.16-11.25-.18-11.25-.18-5.16-1.49-6.68-3.49-6.68-3.49-.08-1.47,0-2.87,0-2.87.74-1.19,1.22-1.29,1.22-1.29,0,0,2.93-.85,8.37-1.23,1.2-.08,1.91,1.54,2.24,3.16,2.82.18,6.03.36,6.03.36Z" style="fill:#fff; stroke-width:0px;"/><path d="m26.1309,2.3091c.3949,11.3103,2.0731,25.4275,6.022,33.029,0,0,2.7642,5.0348,3.6527,5.5284s4.245,1.5795,4.245,1.5795l.4775,7.3483s-15.3623,9.7863-17.0692,10.9243-1.8207,3.2431-1.8207,5.519,1.4224,12.4605,1.4224,12.4605" style="fill:none; stroke:#a7abae; stroke-miterlimit:10;"/><path d="m23.5918,78.5776s-.3325-7.9812-.2494-9.7686c.0831-1.7875.5795-1.6809,2.2447-.9714,8.239,3.5109,17.3013,7.3353,52.885,13.9865,35.5837,6.6512,72.3314,11.2737,75.1582,11.6229s4.8221,2.2125,4.9884,5.0221,1.0808,18.2736,1.2471,20.6015c.1663,2.3279-.6651,4.9052-4.4064,4.4895s-24.985-3.0762-28.58-3.8244-6.1723-5.9029-13.3223-7.3994-58.0314-13.4241-70.0035-16.8551c-1.9316-.5632-2.7712-.9689-3.5195.4445s-1.8846,3.9397-4.0462,3.1914-10.5262-4.0165-10.9454-6.8092" style="fill:none; stroke:#a7abae; stroke-miterlimit:10; stroke-width:.5px;"/><path d="m23.9726,85.0907c.3069,2.1012,1.3746,9.4192,1.5303,10.042,0,0,1.1344,1.7127,3.5589,3.3365l-2.5446,1.4236s-.7474.5338-.7474,1.2456v2.9583c.1492,3.3251,7.1559,10.8969,19.2482,20.2769,12.0922,9.38,36.8418,25.0886,46.7868,25.9927,9.945.9041,28.2529.7911,28.2529.7911l40.1191,10.5101s13.3354,9.945,23.0544,12.5443c9.719,2.5993,31.4172,6.3287,44.0745,7.6848" style="fill:none; stroke:#a7abae; stroke-miterlimit:10;"/><path d="m89.8736,149.8444c3.1569,16.4515,13.961,30.5992,26.8941,40.8631,13.1211,10.4724,29.3042,16.5446,45.8576,18.8648-16.6106-2.1599-32.8935-8.0927-46.1644-18.4702-10.7854-8.3133-19.845-19.2464-24.9396-31.9584-1.1573-2.9614-1.98-6.0206-2.6334-9.1318,0,0,.9857-.1675.9857-.1675h0Z" style="fill:#a7abae; stroke-width:0px;"/><path d="m110.8219,150.7421c4.5157,21.8637,22.8131,38.9489,42.9881,47.0973,6.8635,2.7325,14.0712,4.5272,21.3889,5.5687-7.323-1.0002-14.5459-2.7546-21.4352-5.4529-13.7765-5.3763-26.0322-14.773-34.5525-26.8918-4.2387-6.0652-7.4492-12.9273-8.8822-20.2373l.4929-.084h0Z" style="fill:#a7abae; stroke-width:0px;"/><path d="m29.0619,98.4692s4.3477,3.0724,10.5182,5.2938c0,0,3.2087-1.5632,6.0882-4.6073,0,0,45.5794,10.531,67.2172,14.6446,0,0,2.715.6582,5.5123,3.3732,2.7973,2.715,5.1832,6.4173,10.3664,7.6514s21.7201,3.4555,37.023,4.7718c15.3028,1.3164,31.8435.6582,58.9095-5.5946" style="fill:none; stroke:#a7abae; stroke-miterlimit:10;"/><path d="m165.7872,129.5967l-3.7846,2.0568v3.9491s25.9983,32.0043,62.6941,45.0035" style="fill:none; stroke:#a7abae; stroke-miterlimit:10; stroke-width:.5px;"/><path d="m164.0241,129.5967l-3.5187,1.8723v4.049s26.2943,33.0504,63.9183,46.3784" style="fill:none; stroke:#a7abae; stroke-miterlimit:10; stroke-width:.5px;"/><path d="m26.0407,105.2745c5.0771,2.7456,10.5411,4.6699,15.9996,6.4966,16.3981,5.4927,33.2277,9.6232,50.1391,13.1922,22.5434,4.8574,45.3694,8.3688,68.3259,10.5548-23.0052-1.8015-45.8476-5.3441-68.4294-10.0669-16.908-3.6573-33.732-7.8623-50.1144-13.4501-5.4366-1.9046-10.8817-3.909-15.9209-6.7266h0Z" style="fill:#a7abae; stroke-width:0px;"/><path d="m26.0407,101.2313c5.0396,2.7249,10.4629,4.6345,15.881,6.4473,16.2763,5.4514,32.9807,9.551,49.7663,13.0933,22.3756,4.8215,45.0318,8.3069,67.8174,10.4779-22.8343-1.7866-45.5068-5.303-67.921-9.99-16.7822-3.6307-33.4812-7.8046-49.7416-13.3512-5.396-1.8907-10.8005-3.8804-15.8021-6.6773h0Z" style="fill:#a7abae; stroke-width:0px;"/><path d="m163.4889,135.5182c20.4909,1.5625,40.8918-2.0104,60.9348-5.9214-19.8995,4.5739-40.4798,8.1574-60.9348,5.9214h0Z" style="fill:#a7abae; stroke-width:0px;"/><path d="m163.4889,132.2877c20.4908,1.5629,40.8919-2.0103,60.9348-5.9214-19.8994,4.5743-40.4798,8.1574-60.9348,5.9214h0Z" style="fill:#a7abae; stroke-width:0px;"/><path d="m23.4589,60.7186c-1.4108,1.8769-3.6223,4.2987,14.3001,10.4851,17.9224,6.1864,90.1046,18.4683,122.7465,20.9247,32.6418,2.4564,65.8483.7278,65.8483.7278" style="fill:none; stroke:#a7abae; stroke-miterlimit:10; stroke-width:.5px;"/><path d="m35.8056,40.8665c-.503-2.5964-.594-3.5061.8617-2.9603s31.8419,12.7367,122.1818,21.4705c0,0,3.73-.182,10.0984,5.1857,0,0,23.433,2.2744,55.7492,3.2752" style="fill:none; stroke:#a7abae; stroke-miterlimit:10; stroke-width:.5px;"/><path d="m226.3538,61.9105s-45.492-1.5989-67.5048-3.5964c-90.3897-8.2022-120.7262-20.9246-122.1817-21.4705-1.744-.6037-3.9653-1.5165-4.904-2.2922" style="fill:none; stroke:#a7abae; stroke-miterlimit:10; stroke-width:.5px;"/><path d="m40.5281,49.7943v5.6704s-4.5886,2.5018-7.9548,5.2539c0,0-1.0007.9326,1.1827,1.9333,2.1834,1.0007,15.2841,7.0962,63.5018,15.1021,48.2177,8.006,57.5883,7.668,59.4988,7.3366s15.3751-4.6983,15.3751-4.6983v-15.543" style="fill:none; stroke:#a7abae; stroke-miterlimit:10; stroke-width:.5px;"/><line x1="40.5281" y1="49.7943" x2="40.5281" y2="55.4648" style="fill:none; stroke:#a7abae; stroke-miterlimit:10;"/><path d="m172.1316,80.3924c16.4668,1.6376,39.9388,2.1834,53.2214,1.6376" style="fill:none; stroke:#a7abae; stroke-miterlimit:10; stroke-width:.5px;"/><path d="m45.5349,99.6376l-2.2211-.7444c-.6894-.206-1.3331-.6099-1.9683-.1452-1.0244,1.0685-2.0399,2.3992-3.3271,3.2241,1.2666-1.0243,2.0044-2.3595,3.0132-3.6133.6616-.6657,1.7172-.3801,2.4821-.1881,0,0,2.2878.5031,2.2878.5031l-.2667.9639h0Z" style="fill:#a7abae; stroke-width:0px;"/><path d="m35.4723,2.3091c.0738,10.0354,0,18.0299,6.3711,19.9978,6.371,1.9679,51.1775,11.6843,88.2411,14.5131,6.6844.369,10.8662-3.5668,11.7271-14.0211.8609-10.4544,1.7219-18.5719,1.7219-18.5719" style="fill:none; stroke:#a7abae; stroke-miterlimit:10; stroke-width:.5px;"/><path d="m30.9049,29.6865c19.8923,5.6577,47.2582,13.6522,128.1257,21.6467,15.1896.8609,24.414-5.5347,25.5209-25.3364,1.1069-19.8018,1.4759-23.6875,1.4759-23.6875" style="fill:none; stroke:#a7abae; stroke-miterlimit:10; stroke-width:.5px;"/><path d="m45.0965,40.69s-.0701,15.2318,0,16.5758c.0701,1.344.4002,2.0337,2.559,2.9368,10.5145,4.3985,21.5715,7.3914,49.0893,12.4626,27.5178,5.0713,60.6056,9.0797,68.9191,9.5695" style="fill:none; stroke:#a7abae; stroke-miterlimit:10; stroke-width:.5px;"/><ellipse cx="183.8199" cy="106.8233" rx="3.5283" ry="4.1583" transform="translate(-16.9545 36.8903) rotate(-10.9581)" style="fill:none; stroke:#a7abae; stroke-miterlimit:10; stroke-width:.5px;"/><ellipse cx="183.8199" cy="106.8233" rx="1.7946" ry="2.115" transform="translate(-16.9545 36.8903) rotate(-10.9581)" style="fill:none; stroke:#a7abae; stroke-miterlimit:10; stroke-width:.5px;"/><path d="m182.9872,2.3091s-.9085,17.4823-1.6656,25.5834c-.7571,8.101-5.754,18.852-16.2778,18.7006-10.5238-.1514-16.3535-12.4923-15.975-23.8489.3786-11.3566,1.1357-20.435,1.1357-20.435" style="fill:none; stroke:#a7abae; stroke-miterlimit:10; stroke-width:.5px;"/><path d="m171.0651,40.3129c-9.7646,6.0229-17.108-3.4636-18.2983-12.6456-.7212-3.8189.0559-9.2736.2408-13.1465,0,0,.8897-13.1042.8897-13.1042l-.6399,13.1165c-.1054,3.8538-.779,9.2975.0026,13.0525,1.2509,8.4834,8.1651,17.7414,17.2336,11.9067-.0001,0,.5715.8206.5715.8206h0Z" style="fill:#a7abae; stroke-width:0px;"/><path d="m178.3688,2.0454s-.6895,19.3314-1.2641,25.4797c-.4041,4.3235-2.3993,9.6415-6.3254,12.3774" style="fill:none; stroke:#a7abae; stroke-miterlimit:10;"/><path d="m152.4671,1.4166s-.76,9.08-1.14,20.44c-.38,11.35,5.45,23.69,15.98,23.84,1.47.02,2.84-.17,4.1-.55" style="fill:none; stroke:#a7abae; stroke-miterlimit:10; stroke-width:.5px;"/><path d="m175.1442,34.5513c-2.9811,1.3792-8.5853-1.4748-8.6891-11.5418s0-20.7004,0-20.7004" style="fill:none; stroke:#a7abae; stroke-miterlimit:10; stroke-width:.5px;"/><path d="m29.028,22.5526c3.656,6.4822,3.7978-12.4524,3.9904-14.1156,0,0,.2808-6.1278.2808-6.1278.2013,6.1275.2319,12.3354-.9286,18.3828-.3817,2.0458-1.7593,5.4472-3.3426,1.8606h0Z" style="fill:#a7abae; stroke-width:0px;"/><path d="m119.9334,151.6415c-10.9896-2.9447-21.7579-6.6233-32.3868-10.657-10.5138-4.1913-21.3003-8.2264-30.7107-14.618,4.6828,3.2246,9.8796,5.5872,15.0646,7.8728,10.4162,4.5039,21.1218,8.323,31.9316,11.7622,5.4091,1.7048,10.8545,3.2993,16.3501,4.6714l-.2488.9685h0Z" style="fill:#a7abae; stroke-width:0px;"/><path d="m159.9032,162.0858c-5.2405-3.5435-10.3894-7.2124-15.4355-11.0188-4.9503-3.8881-10.2131-7.5563-14.3833-12.305,1.0054,1.2208,2.212,2.2501,3.4008,3.2833,8.5017,7.0432,17.705,13.2167,26.9655,19.2037,0,0-.5474.8368-.5474.8368h0Z" style="fill:#a7abae; stroke-width:0px;"/><path d="m83.1994,148.309c-6.5678-3.5175-12.4355-7.9979-18.3793-12.4208-5.8652-4.4725-11.6484-9.0709-17.0959-14.0464,8.3634,7.2262,17.2979,13.7882,26.4642,19.9519,3.0707,2.0158,6.1851,4.0168,9.4432,5.6135l-.4321.9019h0Z" style="fill:#a7abae; stroke-width:0px;"/><path d="m162.6937,74.9576c2.6506.1227,5.3365.4655,7.9624.5714.8019-.8931.9422-4.1162-.4922-4.4533-.4227-.0333-7.4273-.9026-7.5962-.8714-1.3868.4762-1.6489,4.5265.1259,4.7532-1.9536-.1556-1.8746-4.6432-.1754-5.0998.2368-.0618,7.2519.6874,7.7369.7271,1.8901.3838,1.7744,4.2388.6402,5.2966-.1314.1139-.3845.1169-.5464.0825-2.5529-.3085-5.1122-.6342-7.6553-1.0063h0Z" style="fill:#a7abae; stroke-width:0px;"/><path d="m150.3977,73.5802c2.4757.1644,4.9502.3763,7.4177.6043.9517-.3898.9643-4.3558-.3343-4.486-.3606-.0189-7.1815-.9417-7.2859-.86-1.1902.7069-1.4947,4.4294.2024,4.7417-1.7427-.3569-1.5678-3.135-.9655-4.3974.1391-.2562.3155-.5237.6405-.6722.3868-.1018.6169-.01.9008-.002,2.2063.2136,4.365.4514,6.6049.6997,1.8054.3489,1.7208,4.4717.5131,5.3492-.0818.0525-.2672.0566-.3074.0427-2.4635-.313-4.9331-.6433-7.3862-1.02h0Z" style="fill:#a7abae; stroke-width:0px;"/><path d="m138.398,72.0968c2.3568.1629,4.7556.3934,7.0812.6087.7653-.7611.8893-4.1514-.3849-4.4908,0,0-6.3067-.821-6.3067-.821l-.3953-.0562c-1.3285.2122-1.5932,4.5904.0057,4.7592-1.762-.3016-1.624-4.0747-.4549-4.9848.1247-.1096.3197-.1323.489-.1397,2.2649.2254,4.4682.4849,6.7657.7539,1.6919.2643,1.6797,4.712.3882,5.3826-2.4066-.2291-4.7939-.6563-7.188-1.012h0Z" style="fill:#a7abae; stroke-width:0px;"/><path d="m126.7534,70.5226c2.1747.1562,4.3386.3775,6.5028.5989.0994-.0037.1487.0479.2084-.0195.637-.885.8121-4.0314-.4026-4.4619-.0001,0-6.0668-.8361-6.0668-.8361-.2974-.054-.4-.0498-.5677.0896-.8208.9653-1.208,4.1652.3258,4.6292-1.6921-.3583-1.4732-3.8197-.5714-4.8789.2004-.252.6551-.2766.8574-.222,2.0499.2244,4.0446.4702,6.1334.7314,1.6568.4583,1.477,4.1996.5642,5.2649-.1027.1199-.3717.1472-.5147.1018-2.1597-.3102-4.3203-.6216-6.4689-.9973h0Z" style="fill:#a7abae; stroke-width:0px;"/><path d="m115.523,68.8729c2.0916.1628,4.1716.3897,6.252.6177-.0023.0071.0465-.0242.1008-.1101.4765-1.0321.4757-2.3486.2375-3.447-.1107-.4368-.3371-.8787-.6704-.9436l-5.8267-.8538c-.3674-.1292-.6132.3879-.7662.8093-.2823.9049-.3808,1.9201-.1764,2.8547.1098.4514.3422.9595.8494,1.0728-1.5982-.4046-1.3542-3.6334-.6499-4.7453.1175-.251.5402-.4467.79-.3733,1.9721.2309,3.8844.4814,5.8989.7507,1.5906.546,1.3105,3.9077.6617,5.1054-.0793.1082-.2217.2971-.4846.2783-2.0758-.3163-4.1523-.6342-6.2162-1.0159h0Z" style="fill:#a7abae; stroke-width:0px;"/><path d="m104.7652,67.163c1.9485.1554,3.9549.4157,5.8568.6128.5622-1.0356.5028-2.4426.286-3.5769-.102-.4195-.313-.8577-.6145-.9202l-5.5702-.8667c-.1006-.0227-.2628.1328-.3625.3193-.5176,1.0263-.9558,3.9295.4043,4.4317-.5062-.0518-.7896-.5748-.9176-1.0174-.2689-.9347-.2541-1.9259-.042-2.8738.1628-.4976.2459-1.1455.9276-1.2444,1.936.23,3.7382.4927,5.6866.7681,1.4871.4396,1.3237,4.3771.4418,5.3005-.0629.0587-.2437.0965-.3059.0754-1.9344-.3137-3.8683-.6313-5.7903-1.0085h0Z" style="fill:#a7abae; stroke-width:0px;"/><path d="m94.5392,65.4078c1.8137.1687,3.6162.3911,5.4166.6218.5554-.88.4804-2.5584.2796-3.6086-.0928-.4019-.2897-.8367-.558-.8982l-5.2375-.8552c-.8114.651-1.1685,4.3663.0991,4.7402-.9643-.2488-.9802-1.5579-1.0514-2.373.0319-.8001.0409-2.9193,1.2317-2.746.6072.0724,1.7453.2561,2.3626.3416,0,0,2.7321.4119,2.7321.4119,1.4386.5967,1.1399,3.9648.5615,5.1179-.0642.0998-.1744.2243-.3134.2491-1.8516-.2447-3.6879-.6431-5.5231-1.0015h0Z" style="fill:#a7abae; stroke-width:0px;"/><path d="m84.9036,63.6229c1.4826.1501,3.5302.4194,5.0243.6272.1622-.2202.2443-.7232.2996-1.1162.062-.9867.262-2.7674-.5762-3.3973-.8512-.1459-3.0007-.5421-3.8242-.6825,0,0-.6437-.1153-.6437-.1153l-.3127-.0598c-.0195-.0093-.0638.0032-.1212.0647-.6315.8055-1.0355,4.2243.1541,4.6792-.9051-.2718-.8986-1.5175-.982-2.2981.02-.9219-.0028-1.8215.5461-2.6429.0812-.1001.243-.2241.4467-.2024.2048.0173.7658.1175.9775.147.8221.1216,3.0577.4991,3.9077.6333.316.0996.4848.3582.5958.5723.4567,1.0626.3848,2.2415.2597,3.3596-.0878.3563-.1489,1.4426-.7723,1.4302-1.6323-.3077-3.3617-.6348-4.9792-.9991h0Z" style="fill:#a7abae; stroke-width:0px;"/><path d="m75.9174,61.8234c1.519.1712,3.1267.4072,4.6396.6348.3258-1.0056.3991-2.5155.165-3.6709-.0745-.3662-.2471-.7939-.4492-.8518-1.1913-.2275-3.2197-.6271-4.3909-.8508-.5721.5834-.5592,1.6717-.6324,2.5144.0241.7328-.0982,1.84.6677,2.2245-1.2211-.1561-1.256-5.0711-.0067-5.148.4948.0579,1.5186.2654,2.0216.3423.8389.1504,1.6023.2678,2.5029.4456.5409.2343.6337.7546.7538,1.2265.1869,1.2999.2099,2.5639-.263,3.8396-.0628.0845-.1165.2913-.4129.292-1.5049-.3067-3.1065-.6365-4.5956-.998h0Z" style="fill:#a7abae; stroke-width:0px;"/><path d="m67.6393,60.0243c1.3538.1716,2.9367.4219,4.2179.6379.3142-1.0417.3537-2.5255.1417-3.7004-.0655-.3481-.2276-.7727-.3976-.8274-1.0486-.2166-2.9619-.6334-3.9933-.844-.4907.6066-.5156,1.7503-.5673,2.5835.0311.6911-.0984,1.763.5985,2.1505-1.1164-.2027-1.1725-4.9098-.0604-5.1519,1.4429.2347,2.738.5045,4.2008.7954.3061.1311.4192.3811.5104.5796.4392,1.3884.3634,2.8707.0095,4.2812-.0832.1903-.1144.4073-.3781.4851-1.4144-.2476-2.8898-.6451-4.282-.9895h0Z" style="fill:#a7abae; stroke-width:0px;"/><path d="m60.1282,58.2413c1.2407.1766,2.6302.4251,3.8317.6443-.0393-.0005-.0552.0161-.054.0105.2864-.7863.2567-1.7939.2519-2.6492-.0356-.551-.0754-1.5781-.4625-1.8987-.8829-.2003-2.6886-.6332-3.5536-.8291-.0752-.0161-.039-.0064-.0265-.0122-.0814.0705-.1715.2771-.2241.4548-.2881,1.0511-.3605,2.2286-.2384,3.3252.0694.3464.1139.7913.4756.9543-1.0354-.3019-1.0508-4.6693-.1543-5.1338.2141-.0662.3509.034.53.0522,1.1373.2497,2.2103.4506,3.3881.7295.2986.1499.3826.3899.4655.5808.3882,1.3261.3105,2.7293.0517,4.0767-.0695.1898-.1041.6353-.4598.6831-1.2377-.2832-2.5907-.6407-3.8212-.9886h0Z" style="fill:#a7abae; stroke-width:0px;"/><path d="m53.443,56.4894c1.1147.1836,2.315.4203,3.423.6501-.1316.0537-.0098-.0317-.0139-.1011.2368-1.1864.234-2.471.0607-3.6692-.0456-.3132-.1896-.7297-.3-.7773-.6893-.1727-2.4219-.6359-3.0897-.8037-.0696-.2022-.2435.2868-.3097.5867-.2214,1.0261-.2871,2.1296-.185,3.1831.064.3308.0835.7556.4146.9314-.651-.3525-.5946-1.3475-.7021-1.9939.0104-1.0064-.152-2.1833.4354-3.0684.08-.0981.3007-.1169.4414-.0607,0,0,1.0533.25,1.0533.25.7263.1785,1.3506.3062,2.1605.5266.2877.1707.3433.3958.4187.5801.3412,1.4871.3554,3.1294-.1394,4.5816-.0445.0439-.0495.1411-.2436.1665-.1429-.0193-.1906-.0466-.2904-.0693-1.0185-.2781-2.1349-.5945-3.1339-.9124h0Z" style="fill:#a7abae; stroke-width:0px;"/><path d="m47.6425,54.7836c.9827.1906,2.0555.4265,3.0313.6609-.1653.0469-.0358-.0144-.0443-.0886.182-1.4139.3404-3.1908-.2048-4.4727-.0232-.0219-1.9508-.5618-1.9739-.5796-.2227-.0611-.6354-.1898-.855-.2512.0271.0149.0983-.0156.0858-.0166-.101.126-.1985.5374-.2534.8359-.1641.9839-.2213,2.0132-.1391,3.0129.0586.3135.0575.7122.3534.8989-.5881-.3855-.5178-1.2753-.6303-1.8999.0046-1.0591-.1818-2.201.3739-3.1622.0789-.1067.305-.1183.4404-.0566.1535.0356.5808.1609.7406.1997-.0158.011,2.0457.5404,1.9575.5286.3786.1389.4055.3935.4828.5615.3414,1.4697.2928,3.0407-.0603,4.5024-.0696.1343-.0631.2936-.3313.2981-.9673-.2972-2.0273-.6347-2.9733-.9717h0Z" style="fill:#a7abae; stroke-width:0px;"/><path d="m45.0672,53.8766l.3243.0134c.0716-.5406.0438-1.6973.0504-2.2769,0,0-.0051-1.3423-.0051-1.3423-.0285-.3871.0471-.9446-.2083-1.2366-.1811-.1138-.2264-.1064.0208-.0744.2639.0933.3541.3781.4303.5879.3829,1.3403.3403,2.7927-.0323,4.1304-.0683.1108-.0348.2285-.2426.3396-.145-.0339-.2264-.0911-.3375-.1411h0Z" style="fill:#a7abae; stroke-width:0px;"/><path d="m166.1072,68.8566c2.0381-.1254,4.0533.0858,6.0199.6401-2.0415.1282-4.0497-.0885-6.0199-.6401h0Z" style="fill:#a7abae; stroke-width:0px;"/><path d="m168.4672,64.1666c-.7178.0247-1.429-.0051-2.1393-.0432-.6615-.1562-.9417.5583-1.1377,1.1755-.2861,1.1665-.5022,3.0579.9169,3.5577-.7883.0215-1.3235-.7717-1.4611-1.4818-.2482-1.1743-.1139-2.5994.8017-3.47.1904-.1345.4112-.2129.648-.2036.7984.1203,1.584.2654,2.3715.4653h0Z" style="fill:#a7abae; stroke-width:0px;"/><path d="m153.8456,67.4537c2.4821.1637,4.9629.3758,7.4368.6033.1372.0469.2625-.1448.3704-.3782.4174-1.0889.663-3.6542-.6959-4.107-.3664-.0217-7.1972-.9345-7.3089-.8638-1.2027.7021-1.5063,4.4351.1977,4.7456-1.7493-.3548-1.5753-3.1427-.9636-4.4059.1374-.2579.324-.521.6479-.6692.3918-.0933.6139-.0037.9017.0046,2.212.2134,4.3766.4507,6.6218.6987,1.809.3369,1.7348,4.5073.5002,5.3555-.0886.0534-.2624.0456-.3025.0354-2.47-.3128-4.9459-.6425-7.4055-1.019h0Z" style="fill:#a7abae; stroke-width:0px;"/><path d="m141.9573,65.9728c2.3699.1612,4.7823.3933,7.1362.607.072-.0027.2404-.2593.3084-.4795.3097-.9424.3535-2.0631.1045-3.0244-.1309-.4724-.396-.9224-.7975-.9854l-6.3409-.8186c-.171-.0069-.5237-.1237-.669.0044-1.0362.8027-1.3646,4.3393.2583,4.6965-1.9266-.1459-1.755-5.7271.4518-5.0835,2.1392.218,4.2277.459,6.4025.7124.3324.0598.6173.2896.7921.5403.7745,1.3462.6664,3.1419.0043,4.5107-.0878.123-.1934.2873-.4413.3374-2.4314-.2603-4.7962-.6513-7.2094-1.0173h0Z" style="fill:#a7abae; stroke-width:0px;"/><path d="m130.4866,64.4249c2.2571.1594,4.5024.3888,6.7491.6143.735-.747.8514-4.1467-.3574-4.4966,0,0-6.1181-.833-6.1181-.833-.2971-.0466-.4265-.0657-.5897.0664-.8525.9587-1.2389,4.1909.316,4.649-1.7149-.352-1.4963-3.8552-.5536-4.9065.1321-.0928.2579-.2046.4507-.2085,2.2087.1572,4.3535.4931,6.6039.7453,1.6608.4064,1.5178,4.3094.5338,5.2957-.1162.1094-.3525.1056-.5117.0676-2.1777-.3091-4.3563-.6191-6.5229-.9936h0Z" style="fill:#a7abae; stroke-width:0px;"/><path d="m119.4752,62.8246c2.1282.1496,4.2909.4165,6.3865.6067.6448-.843.7972-4.0598-.3552-4.4896-.0001,0-5.8953-.8486-5.8953-.8486-.4104-.1694-.6417.3525-.8126.772-.2994.9091-.3995,1.9387-.1908,2.8821.1118.4565.354.9666.8675,1.0774-1.6232-.389-1.3896-3.6901-.6284-4.7844.1279-.252.5765-.4048.8104-.3289,1.9942.229,3.93.478,5.9658.7448,1.5797.3961,1.4642,4.4621.4386,5.3313-.0757.0591-.2695.0625-.298.0476-2.0997-.3152-4.2004-.6303-6.2885-1.0105h0Z" style="fill:#a7abae; stroke-width:0px;"/><path d="m108.9652,61.1852c1.9193.1584,3.8284.3706,5.7356.5911.3236.0369.2488.0698.3842-.1521.4037-1.0474.4191-2.3063.1825-3.3953-.1053-.4255-.3217-.865-.6351-.9275l-5.6754-.8667c-.1226-.0334-.2705.0925-.3877.2776-.5628,1.0183-.9972,3.9853.3958,4.4729-1.5356-.3775-1.2762-3.5481-.6969-4.6519.1185-.21.3508-.5181.7376-.4803,1.9225.2356,3.7838.4902,5.7494.7642,1.4905.3325,1.4099,4.6486.3591,5.3533-.0695.0383-.1901.0317-.2715.0156-1.9635-.3112-3.9264-.6263-5.8777-1.001h0Z" style="fill:#a7abae; stroke-width:0px;"/><path d="m98.9984,59.5206c1.847.1653,3.6832.3843,5.5173.6116.1754.0142.0463.0312.1324-.031.3479-.6635.3664-1.4905.3828-2.2339-.0278-.6956-.0581-1.9371-.7269-2.2313,0,0-5.382-.863-5.382-.863-.8961.5615-1.2138,4.428.0762,4.7475-.9887-.2385-1.0162-1.5746-1.08-2.405.0325-.8313.0745-2.96,1.3295-2.704.6186.0707,1.778.2529,2.4069.3367,0,0,2.7812.406,2.7812.406,1.4589.5239,1.2113,4.1266.5238,5.198-.0942.1464-.3533.2154-.4824.1609-1.8312-.3076-3.6605-.623-5.4789-.9926h0Z" style="fill:#a7abae; stroke-width:0px;"/><path d="m89.6168,57.8451c1.3082.1312,3.9337.4464,5.2344.626-.0267.0244.0543-.0598.0817-.1428.3709-1.0947.3768-2.3559.1572-3.4817-.0881-.3933-.2785-.8262-.5301-.887-.8703-.1432-3.0724-.535-3.9147-.6726,0,0-.6585-.1133-.6585-.1133l-.3284-.062c-.1326-.0208-.0876-.0247-.1683.0173-.7193.7477-1.1072,4.2846.1266,4.7161-.9347-.2601-.9392-1.538-1.0167-2.3357.0416-.9438-.0183-1.8851.6555-2.6854.0886-.1142.3792-.1421.4611-.1098.2042.0175.7789.1175.991.145.8402.1189,3.1257.4902,3.9945.6216.5731.1999.7269.7672.8528,1.26.2137,1.139.1706,2.3053-.1252,3.4224-.1268.2785-.1161.5205-.4888.6802-.2166.0192-.2128-.0215-.3951-.043-1.6134-.2922-3.3304-.6078-4.9291-.9553h0Z" style="fill:#a7abae; stroke-width:0px;"/><path d="m80.8622,56.1717c1.5593.1658,3.2113.395,4.7651.6174.1736.0073.0271.0435.1033-.0159.4021-1.0272.4057-2.4872.1908-3.6228-.0796-.3765-.2587-.8064-.4795-.8655-1.1605-.2109-3.2364-.6018-4.3774-.8088-.2808-.0488-.2485-.0964-.3783.0569-.5604.9972-.6208,2.4645-.4597,3.6311.0833.3901.2042.874.6357,1.0076-1.2865-.1467-1.304-5.1511.0279-5.1443,1.5713.2528,3.1108.4991,4.7059.7825,1.2351.3269,1.177,4.8246.2182,5.3545-.1764.0256-.1562-.0091-.2294-.012l-.3158-.0618c-1.4383-.28-2.9844-.5879-4.4069-.9189h0Z" style="fill:#a7abae; stroke-width:0px;"/><path d="m72.7765,54.515c1.388.164,2.875.3841,4.2582.6003.2936.0305.1632.1057.2762-.1121.2953-1.0894.3191-2.399.1114-3.5334-.0713-.3599-.2401-.7866-.4306-.8433-1.1428-.2255-3.126-.6273-4.2504-.8496-.551.6265-.5385,1.6865-.6079,2.5402.0277.7219-.1007,1.8068.6429,2.1978-1.1901-.2379-1.1876-4.7312-.1287-5.14.07-.0179.1615-.009.2335.0032,1.4294.2619,2.8199.4909,4.2781.7778,1.1616.3847,1.0634,4.6877.2302,5.3338-.2387.0535-.2239-.0097-.3992-.0286-1.3759-.289-2.8545-.6065-4.2139-.9463h0Z" style="fill:#a7abae; stroke-width:0px;"/><path d="m65.4016,52.8885c1.327.1744,2.7469.4057,4.0679.6331.3033-.6244.2885-1.7755.285-2.5708-.0357-.573-.0728-1.6342-.5034-1.9529-.983-.2118-2.9646-.6454-3.8736-.8439-.4924.6488-.5003,1.7594-.5541,2.6057.0325.6831-.1,1.7359.5782,2.129-1.1005-.279-1.1021-4.6232-.167-5.1285.2931-.0632.4335.0439.6878.0718,0,0,1.1555.2268,1.1555.2268.7906.1606,1.4956.282,2.3563.4746.3042.1362.4089.3838.4978.5803.422,1.4599.4037,3.0881-.0995,4.5315-.0546.0981-.1509.2403-.3181.2363-1.3321-.2841-2.7874-.6414-4.1128-.9929h0Z" style="fill:#a7abae; stroke-width:0px;"/><path d="m58.7796,46.3627c-.8237.237-.7743,4.5196.0476,4.791.8628.1443,2.7061.5097,3.5807.6932,0,0,.1368.0315.1368.0315-.1251-.0154-.1455.0686-.1284.0317.4043-1.247.4099-2.71.2328-4.0007-.0893-.3604-.176-.6975-.5895-.7205-.6881-.2043-2.5607-.647-3.28-.8262h0Zm0,0c.8952.2061,2.7209.5555,3.6017.7322.3086.1232.4166.4758.5109.7515.3146,1.417.4379,2.9657-.0714,4.3435-.0535.1077-.2489.2401-.4883.1503-.8837-.2118-2.716-.6336-3.5718-.8752-.351-.0889-.488-.4832-.5597-.7727-.2256-1.1393-.1208-2.2724.0731-3.3938.096-.3042.1298-.873.5055-.9358h0Z" style="fill:#a7abae; stroke-width:0px;"/><path d="m52.9522,49.7819c1.0696.1812,2.2287.4098,3.292.6365.0222.0168.1509.0056.0222.0286-.0314.0244.0327-.0696.0422-.1409.2203-1.1841.2225-2.4559.0499-3.6487-.0442-.3108-.1868-.7266-.2934-.7737l-2.0223-.5354-1.0405-.2747c-.0113-.0067-.1416-.0322-.0706-.0205.0385-.0063.0443-.021.0308-.0051-.0242.0234-.0619.094-.0908.1643-.3838,1.1462-.418,2.4352-.3254,3.6416.0633.3286.0795.7503.4059.928-.3644-.134-.4431-.5764-.5363-.9045-.1867-.681-.4879-4.5328.6824-4.2252.7539.1837,1.861.4482,2.6119.6304.226.0673.3179.056.577.1538.2859.1736.3375.3962.4119.5796.3468,1.4354.3006,2.967-.0584,4.3965-.0458.0955-.0379.1853-.2113.3232-.2159.0601-.1744-.0017-.2393.0012-1.0549-.2919-2.2027-.6206-3.238-.9551h0Z" style="fill:#a7abae; stroke-width:0px;"/><path d="m47.9613,48.329c.8459.1781,2.4103.483,2.9292.6564.2337-1.3545.3513-3.3314-.1762-4.5583-.0105-.0125-1.9445-.5679-1.9636-.5813-.2132-.0577-.6232-.1893-.8337-.2461.0652.0139.0948-.033.0835-.0156-.1062.1433-.1957.5444-.2515.8452-.1607.9813-.2178,2.0061-.1367,3.0027.0581.3123.0556.7092.349.897-.5834-.3871-.5128-1.2719-.6252-1.8945.0009-1.0887-.1752-2.1219.3504-3.1465.1447-.2094.4766-.073.6898-.0144,0,0,.4916.1338.4916.1338-.0155.0116,2.0378.5434,1.9488.5313.3795.1416.4024.3947.4797.562.3089,1.2081.2459,2.4679.1083,3.6941-.0503.3149-.0877.6363-.2229.9343-.0442.042-.0212.1343-.2316.1741-1.0396-.2924-1.983-.6243-2.9889-.9741h0Z" style="fill:#a7abae; stroke-width:0px;"/><path d="m45.0872,42.4066c.4054.0705.8983.1799,1.2425.27.5756.2996.5332,1.1107.6347,1.6543.0609,1.1664.1177,2.332-.2932,3.4583-.0249.0222-.0495.1489-.2485.1389-.4553-.1664-.908-.3545-1.3456-.5615.4762.0655.9439.1499,1.4099.2573-.1273-.0088-.1056.051-.1038.0134.1856-1.308.1576-2.7424.0551-4.0701-.015-.2383-.108-.5684-.1738-.6106-.4002-.1611-.7896-.3529-1.1775-.55h0Z" style="fill:#a7abae; stroke-width:0px;"/><path d="m167.2272,81.1766c-2.0243-.0508-1.9941-3.698-.3061-4.3279.9314-.0518,1.7466.1428,2.6505.2353.8544.1173,1.7079.242,2.5555.4227-1.6781.0687-3.4231-.1226-5.082-.1739-1.2185.5835-1.451,3.5262.1821,3.8438h0Z" style="fill:#a7abae; stroke-width:0px;"/><path d="m169.1571,81.3566c-.6737.2784-1.32.2212-1.9299-.1799.6631-.2823,1.3298-.2172,1.9299.1799h0Z" style="fill:#a7abae; stroke-width:0px;"/><path d="m155.7814,79.8744c2.3697.0408,5.471.4538,7.6162.4342.7094-.8083.8388-3.2731-.5116-3.5502-.0001,0-6.1841-.6714-6.1841-.6714-.3698-.0084-1.0899-.2588-1.3841.0447-.9466.8998-1.1505,3.4142.4635,3.7427-1.7531-.1912-1.709-2.9775-.6653-3.9858.1906-.2099.5899-.2849.842-.2432,2.3448.1765,4.6445.387,7.0098.6203,1.78.3299,1.7388,3.3611.6817,4.3931-.1009.1235-.4281.1477-.506.1233-2.4552-.2744-4.9173-.5559-7.3622-.9077h0Z" style="fill:#a7abae; stroke-width:0px;"/><path d="m144.5425,78.4823c2.3727.1227,4.7419.3164,7.1061.5168.8552-.4817.8803-3.4154-.3608-3.5703-.3634-.0456-6.5921-.7696-6.686-.7959-.735-.0604-.9787.849-1.1102,1.4536-.1736.8864-.0305,2.2027,1.0509,2.3958-1.6683-.2204-1.6011-2.8512-.7097-3.885.1639-.2286.5293-.3411.8028-.313,2.2558.1878,4.463.408,6.7404.6531,1.2536.2588,1.4134,1.7321,1.303,2.7558-.0931.5806-.2536,1.6853-1.0615,1.7308-2.3598-.2859-4.7261-.5785-7.075-.9417h0Z" style="fill:#a7abae; stroke-width:0px;"/><path d="m133.5713,77.0133c2.159.1248,4.3134.3241,6.4639.5166.1597-.0042.291.0738.369-.0205.6328-.7645.7526-3.1925-.4474-3.4871-.3433-.0465-6.3275-.8043-6.4104-.8271-1.2712.1848-1.4633,3.6578.0249,3.8181-1.593-.2562-1.4845-2.7192-.749-3.7782.1699-.2019.4238-.4061.7557-.3887l.7205.0645c1.9222.188,3.8025.3901,5.7535.6213.6078.1038.9961.6687,1.1257,1.1567.2363,1.0583.258,2.3036-.5147,3.1626-.1574.169-.5072.1221-.6622.0939-2.1444-.2899-4.2958-.5743-6.4296-.9321h0Z" style="fill:#a7abae; stroke-width:0px;"/><path d="m122.924,75.4779c2.1278.141,4.2489.3577,6.3669.5701.7065-.5669.7654-3.2641-.3416-3.499,0,0-5.4561-.76-5.4561-.76-.433-.049-.8086-.2373-1.0802.2083-.5909.9424-.8632,3.0833.5109,3.4807-1.5047-.2822-1.3905-2.6078-.7706-3.6604.1284-.2061.3436-.4395.6638-.4607,2.1031.1493,4.1102.4511,6.2351.7036,1.5574.3298,1.5051,3.5186.4891,4.3477-.1368.0683-.3174.0678-.4601.0371-2.0539-.3021-4.1147-.5977-6.1572-.9673h0Z" style="fill:#a7abae; stroke-width:0px;"/><path d="m112.6568,73.8863c2.0059.1371,4.0287.4077,6.0123.5855.6017-.6404.7012-3.1575-.3478-3.4522,0,0-5.2132-.793-5.2132-.793-1.3213-.5926-1.5047,1.8993-1.272,2.7539.1072.4039.3688.816.8207.9058-1.4068-.2819-1.2991-2.5206-.7888-3.5393.1086-.209.28-.4266.5615-.5298.3442-.0608.4855.0198.7274.0278,1.7639.2107,3.48.4324,5.276.6877.579.1304.885.679.9995,1.1211.2156,1.0276.2363,2.2191-.4248,3.0938-.0985.11-.3046.1823-.4659.1433-1.9635-.3142-3.9338-.623-5.8849-1.0046h0Z" style="fill:#a7abae; stroke-width:0px;"/><path d="m102.8261,72.2494c1.8783.1539,3.7683.4139,5.6317.6187.2806-.2777.3803-1.0339.394-1.4961.0087-.64-.0445-1.7196-.7227-1.9273,0,0-4.97-.8279-4.97-.8279-.1216-.0066-.4151-.1128-.5113-.0325-.8324.6101-1.0569,3.335.1782,3.665-1.5501-.1358-1.4341-4.6034.3869-4.0134,1.6849.2229,3.3186.4551,5.0376.7244,1.4198.4814,1.2236,3.0221.6327,4.0664-.0809.1004-.1829.2446-.4184.2583-1.8973-.2943-3.7599-.649-5.6387-1.0356h0Z" style="fill:#a7abae; stroke-width:0px;"/><path d="m93.4879,70.5778c1.7433.1632,3.5663.4382,5.2501.647.4596-.7131.4208-1.8465.2359-2.6643-.0943-.3545-.2856-.6697-.5452-.7256l-4.7262-.8657c-.1807-.029-.2842-.0897-.4313.0108-.6773.7566-.9598,3.1704.2166,3.5979-1.3415-.3274-1.2239-3.0182-.4431-3.865.1111-.0794.2269-.1577.3904-.1538,1.724.2022,3.3692.5064,5.1261.7944,1.3235.3869,1.2332,3.4651.3984,4.2249-.1349.0738-.2982.0655-.4299.0295-1.6849-.322-3.3705-.6438-5.0417-1.03h0Z" style="fill:#a7abae; stroke-width:0px;"/><path d="m84.6987,68.8815c1.5992.1762,3.3677.4571,4.8621.6785.4265-.753.3876-1.8245.2087-2.6563-.0859-.3377-.2621-.6489-.493-.7034l-4.4818-.9065c-.2805-.1494-.4438.207-.5825.5354-.2573.9062-.5584,2.5526.4865,3.0523-1.1549-.3592-1.0254-2.2012-.7861-3.1523.1057-.3562.3317-.8624.7987-.834,1.5813.2455,3.0929.521,4.7102.8271,1.2307.3668,1.1702,3.5619.3186,4.2049-.096.0378-.2386.0449-.2582.0283-1.5992-.3364-3.199-.6731-4.7831-1.074h0Z" style="fill:#a7abae; stroke-width:0px;"/><path d="m76.5147,67.1717c1.4495.189,2.8853.4312,4.3187.6814.2676.0322.1008.0771.2251-.0801.2895-.784.2943-1.7311.1147-2.5415-.0778-.3184-.2412-.6353-.4394-.6865l-4.2401-.9443c-.7473.2351-.9556,3.3208.021,3.571-1.0694-.3829-.9416-2.1016-.7691-3.0202.1231-.3986.2409-.9538.8215-.9283,1.4494.264,2.8313.5435,4.3253.8482,1.1333.3541,1.0923,3.6428.2535,4.1831-.0592.0331-.1775.0284-.2398.008-1.4697-.3407-2.938-.687-4.3914-1.0908h0Z" style="fill:#a7abae; stroke-width:0px;"/><path d="m68.9922,65.4584c1.3909.2087,2.7652.4752,4.1387.7441-.0145-.01-.0371.0037-.0413,0-.0212.0117-.0015-.001.0087-.0227.0272-.0405.0563-.1118.0781-.1833.2077-.8535.3882-2.5088-.3307-3.1043-.0001,0-3.9115-.9621-3.9115-.9621-.3784.2486-.4928,1.2098-.5188,1.7075-.0122.6162-.0618,1.4963.5767,1.8209-.7144-.2304-.7656-1.1883-.8219-1.823.0156-.6597.0051-2.2813,1.019-2.0616.4565.0839,1.3101.2888,1.7732.386,0,0,2.059.4651,2.059.4651.4941.2334.5834.6797.679,1.0217.157.9847.2011,2.0707-.2803,2.9707-.0541.0852-.2076.1965-.349.1677-1.367-.3505-2.7305-.7127-4.079-1.1267h0Z" style="fill:#a7abae; stroke-width:0px;"/><path d="m62.1873,63.7526c1.1557.215,2.7472.5156,3.7085.7783.2933-.7666.2849-1.8205.1218-2.645-.0612-.2847-.2029-.5925-.3443-.6399-.8683-.2375-2.4182-.6722-3.272-.9065,0,0-.2352-.0708-.2352-.0708-.0532.0034-.0049-.0183-.0546.0129-.3381.3761-.4048,1.1873-.4379,1.7241,0,.5862-.067,1.4069.5135,1.7469-.3374-.0857-.5001-.4512-.596-.7571-.2194-.9857-.346-2.1168.2761-3.011.0698-.0946.2985-.137.3953-.1059,1.2148.2949,2.3699.58,3.6069.9082.4665.2573.522.6697.6136.9961.132.6805.1166,1.354.0264,2.0334-.0793.3345-.1031,1.0325-.5953,1.0855-1.1998-.3325-2.5258-.7406-3.727-1.1492h0Z" style="fill:#a7abae; stroke-width:0px;"/><path d="m56.1564,62.0646c1.0487.221,2.4738.5509,3.3505.8047-.0193.001-.0363.0137-.0363.0137.1981-.5003.2065-1.1754.1936-1.7729-.0241-.4448-.0666-1.2476-.3911-1.4934-.8645-.2631-2.3147-.7174-3.1593-.9983-.2739.3336-.3877,1.177-.4076,1.7739.0096.5571-.0706,1.3181.4501,1.6724-.8919-.3179-.9525-3.3346-.1737-3.8269.1312-.0366.2456-.0199.3548.0149,1.0678.2998,2.0641.5696,3.1555.9153.6844.5261.5756,1.2273.6433,1.9314-.0203.6431-.0168,1.2559-.3039,1.918-.0475.0824-.1271.1905-.2485.2139-.1438.0223-.243-.0575-.3584-.0827-1.0057-.3338-2.0846-.701-3.069-1.0838h0Z" style="fill:#a7abae; stroke-width:0px;"/><path d="m50.9558,60.4049c.9695.2353,2.0911.5574,3.0004.8333-.0823.0115-.0763.0295-.0714.0171.2219-.855.322-2.5149-.1847-3.2417-.7414-.2577-2.0763-.7446-2.7997-1.0139.1223-.0481-.0311.0332-.0576.158-.1938.491-.2533,1.0876-.2722,1.6509.0123.5259-.0778,1.2393.3852,1.5965-.2941-.1038-.4012-.4434-.4832-.7136-.2082-.9484-.2883-1.9854.1241-2.9133.165-.3148.5589-.1465.8232-.0532.8576.2816,1.6349.5264,2.5243.8527.401.2993.4067.6384.4883.9358.1379.9113.1211,1.7954-.1285,2.7002-.0764.1637-.0943.3557-.3591.3818-.998-.3387-2.0229-.776-2.9889-1.1904h0Z" style="fill:#a7abae; stroke-width:0px;"/><path d="m46.6417,58.7843c.8283.2427,1.7111.5386,2.5253.8279.0427.0381.2092.0198.0177.064.1832-.8735.269-2.4591-.1729-3.2288-.6014-.245-1.8198-.7611-2.4031-1.0156,0,0-.0402-.0171-.0402-.0171.0168.011.0393.0042.0554.0042-.1676.4075-.3047,1.2177-.3021,1.8433.0133.4998-.0797,1.1527.3197,1.5222-.2675-.1177-.3509-.4373-.4272-.6919-.1854-.9686-.3167-2.0388.1323-2.9666.052-.0812.2338-.1686.3607-.115.8867.3391,1.6644.6268,2.5802,1.0198.3567.3184.3461.6179.4194.9019.123.8478.0982,1.6838-.078,2.5269-.048.1407-.0876.5233-.3811.5342-.867-.3395-1.769-.7944-2.6063-1.2093h0Z" style="fill:#a7abae; stroke-width:0px;"/><path d="m148.9894,104.3481c.2527-2.1256.6178-3.1906,2.2002-2.9168,1.5824.2739,1.9475,2.9517,1.9475,4.1689s-.213,5.1661-.2739,5.6565-1.2172,1.4068-3.4386-.436" style="fill:none; stroke:#000001; stroke-miterlimit:10;"/><path d="m129.8954,92.6322c7.0586.8114,14.1409,1.6351,21.1927,2.5191,2.4019.0315,5.0303,1.3965,5.4323,3.9989.2251,1.3889.2108,3.3475.3324,4.7545.1481,2.3591.4431,7.1076.58,9.4668.0579,1.5874.2225,3.1389.1483,4.7688-.0513.8249-.3822,1.7703-1.1874,2.1562-.7884.3963-1.6422.3572-2.4364.2984l-4.7129-.5476c-4.694-.5343-14.15-1.6704-18.835-2.2808,4.7126.4394,14.1675,1.4185,18.8694,1.9366,0,0,4.7137.5019,4.7137.5019,1.5864.188,3.1425-.232,3.1527-2.1012-.0473-4.3281-.5566-9.8087-.7185-14.1755-.1071-1.3504-.0826-3.3994-.2805-4.7038-.2448-1.5193-1.3723-2.7896-2.8163-3.3211-1.2388-.473-3.2977-.4939-4.6337-.744-6.2727-.797-12.5358-1.67-18.801-2.5272h0Z" style="fill:#a7abae; stroke-width:0px;"/><path d="m22.5382,79.002s-.4773.0997-1.2169,1.2945c0,0-.089,1.4013,0,2.8694,0,0,1.5125,2.0019,6.6729,3.4922,0,0,8.964.3336,11.255.1779" style="fill:none; stroke:#000001; stroke-miterlimit:10;"/><path d="m22.5382,79.002s2.9248-.8477,8.3667-1.224c1.2022-.0831,1.9088,1.538,2.2413,3.1591" style="fill:none; stroke:#000001; stroke-miterlimit:10;"/><path d="m25.0405,79.3561c1.8048.2922,3.4488.7884,5.2357.7969,2.9663.1172,5.9812.3001,8.9283.6475,0,0-.0566.9983-.0566.9983-2.4011-.0408-4.8002-.1836-7.1915-.3853l-1.7925-.1599c-1.8474-.0956-3.6674-.776-5.1234-1.8975h0Z" style="fill:#000001; stroke-width:0px;"/><path d="m22.1308,80.9371s4.4477,2.1199,6.6508,2.2031,10.3946.2868,10.3946.2868" style="fill:none; stroke:#000001; stroke-miterlimit:10; stroke-width:.5px;"/><path d="m24.5001,73.1224c.0406-.9171-.4355-2.3594.2831-3.0816.2368-.1418.4901-.1015.6994-.0617,1.9579.649,3.7421,1.683,5.7058,2.2853,1.5368.5318,3.1058.974,4.6832,1.3817,1.879.2743,3.4914,1.5947,3.4367,3.5978.2418,3.2318.6251,6.5036.8766,9.7665.1444,2.4256.7654,5.2984-.6918,7.4807-.5444.6919-1.0676,1.3097-1.6086,1.9614-.9458.7432-2.1033.7466-3.0889.4685-1.8878-.5946-3.6332-1.4351-5.3514-2.3874-.8321-.4942-1.7008-.9946-2.3252-1.7498,1.4422,1.2868,3.3356,1.9369,5.1051,2.6566,1.582.5223,3.7005,1.6726,5.1625.4921.8129-1.115,2.0506-2.3968,2.1079-4.0355.206-1.3456-.1547-3.4207-.249-4.7997-.3355-3.262-.6597-6.5054-.8526-9.8108.0734-1.6872-1.2443-2.5659-2.7478-2.8246-1.5784-.4689-3.1427-.9921-4.6789-1.5958-1.9368-.6799-3.6978-1.798-5.5549-2.5965-.1802-.0514-.3698-.078-.4975-.0084-.5814.6437-.2959,1.9976-.4137,2.8613h0Z" style="fill:#a7abae; stroke-width:0px;"/><path d="m128.5432,103.6652c1.5827.3698,4.0569-.0747,6.2273.3897l.4833-.0095c-.7202-10.577-13.3728-18.1022-22.8505-8.2455,0,0-1.3269.6161-4.5588.7583-.2654.019-.5403.0285-.8246.0285.2086-1.5165-.5307-1.886-.5307-1.886l.1421-1.1562.3886-3.0707c-3.8005-2.8623-8.1602-1.2701-9.307,1.2225,1.0993,2.2082.9003,3.6868.9003,3.6868-.7298.4739-.2275,2.2462-.2275,2.2462-1.4596.3317-2.3599,1.6396-2.2652,3.3267l-19.3534.3602s-.36.019-1.0235.0474c-5.8003.2558-34.7735,1.3363-48.8004-1.5165,0,0-.1991-1.5922-1.6208-1.5922-1.4311,0-69.6322,3.4119-69.6322,3.4119,5.753,5.4496-.9193,17.5336,3.6774,26.0919,7.8001,0,64.0592-4.0943,65.7178-4.1796.5593-.0285.9004-.3128,1.109-.6824l.3031.1326c8.1224-.1516,36.0909-9.089,53.0938-7.5537h.0569c4.8525.3128,12.482.1327,18.8605-.1895l.0095.18c-.6445.4549-1.033,1.3648-.6445,3.4405.3886,2.0755,3.3741,2.3315,5.7056,2.2081,2.341-.1326,5.0611-.3221,6.9472-1.8196,0,0,.0095-.0095.0378-.019.0473-.0474.0948-.0853.1422-.1042l.0095-.0095c1.8291-1.3079,3.829-.5781,3.829-.5781,5.2317,3.9901,16.7177.7332,19.2766-7.844-2.0093-.3696-4.4252-.212-6.5292-.6953-1.0994,2.9382-5.2507,4.8052-8.6247,3.4404-3.3928-1.3838-6.3689-1.4311-7.6105-.635.1042-.7108-.0853-1.3837-.0853-1.3837,1.1088-2.5779.5875-5.753.5875-5.753.8721-1.5447.3223-4.0848.3223-4.0848,2.5969-.5117,1.9619.3317,6.0941-2.4737,4.0754-2.7674,9.8184.2927,10.5672,4.5102Z" style="fill:#d3d5d6; stroke-width:0px;"/><path d="m133.8219,111.1839c-2.4659,8.6956-14.0169,11.4212-19.2732,7.3978,0,0-2.1415-.7787-4.0234.7138-1.8819,1.4925-4.6074,1.6872-6.9435,1.817s-5.3212-.1298-5.7106-2.2064c-.3894-2.0766,0-2.9851.6489-3.4393" style="fill:none; stroke:#000001; stroke-miterlimit:10;"/><path d="m96.7032,103.0074c-1.2979-2.5957-.3245-4.9234,1.6872-5.3819,0,0-.5038-1.773.2187-2.2427,0,0,.2005-1.4812-.8932-3.6849,1.1461-2.4927,5.5065-4.0823,9.3052-1.2283l-.5364,4.2268s.7477.3772.5364,1.8866c3.8287-.0649,5.3861-.7787,5.3861-.7787,9.4744-9.8637,22.1285-2.3361,22.8423,8.2414" style="fill:none; stroke:#000001; stroke-miterlimit:10;"/><path d="m98.3904,97.6255c1.2664,1.2255,7.8305.9163,8.6308-1.0425" style="fill:none; stroke:#000001; stroke-miterlimit:10;"/><path d="m98.6091,95.3828c.7587.9754,6.8641.9032,7.8756-.6864" style="fill:none; stroke:#000001; stroke-miterlimit:10;"/><path d="m103.5286,95.8991c-1.3411.1127-2.7519-.8053-3.0048-1.2026l-.7948-2.6734s2.5179-4.7687,7.2921-1.5534" style="fill:none; stroke:#000001; stroke-miterlimit:10; stroke-width:.5px;"/><path d="m100.5238,94.6964c1.5173-.6396,3.7254-1.6251,6.1076-1.1558" style="fill:none; stroke:#000001; stroke-miterlimit:10; stroke-width:.5px;"/><path d="m97.7159,91.6979s.6403-.3251,2.0131.3251" style="fill:none; stroke:#000001; stroke-miterlimit:10; stroke-width:.5px;"/><ellipse cx="103.1622" cy="91.9196" rx="1.1635" ry=".8881" transform="translate(-24.6026 144.5296) rotate(-64.0822)" style="fill:none; stroke:#000001; stroke-miterlimit:10; stroke-width:.5px;"/><path d="m27.2091,100.9689c18.2799,4.176,53.6885,3.0767,53.6885,3.0767.4761-.957,1.0711-.9472,1.0711-.9472,0,0,7.1805.0397,13.8531.119s13.1235-.4761,16.0592-1.5869c0,0,.5554,2.539-.3174,4.0862,0,0,.5157,3.1737-.5951,5.7523,0,0,.6744,2.3803-1.1901,2.896-1.8646.5157-21.0258,1.7059-30.1899,1.1108-17.0014-1.5361-44.9728,7.3974-53.0885,7.555" style="fill:none; stroke:#000001; stroke-miterlimit:10;"/><path d="m96.127,100.9585l-19.3552.3547s-34.1967,1.7059-49.8272-1.4678c0,0-.1984-1.5869-1.6265-1.5869s-69.6233,3.4117-69.6233,3.4117" style="fill:none; stroke:#000001; stroke-miterlimit:10;"/><path d="m111.881,101.6306c2.5967-.515,1.9598.3342,6.0999-2.4789,4.14-2.8131,10.2151-.3299,10.5624,4.5135" style="fill:none; stroke:#000001; stroke-miterlimit:10;"/><path d="m127.3224,109.9795c-1.0615,2.9723-5.2547,4.8831-8.6516,3.5031s-6.3686-1.4254-7.6163-.6331" style="fill:none; stroke:#000001; stroke-miterlimit:10;"/><path d="m110.3318,118.8346c.953-.5858.7989-2.1619.7228-3.196.4436,1.3009,1.0363,3.0893-.3357,4.1179,0,0-.3872-.9219-.3872-.9219h0Z" style="fill:#000001; stroke-width:0px;"/><path d="m107.9457,96.0936c1.4109.4979,2.4865,1.5988,3.0108,2.9629.1739.4285.2677.8784.342,1.322-.1554-.4248-.3268-.8389-.566-1.2109-.6325-1.0624-1.7878-1.9096-2.9921-2.0952,0,0,.2053-.9788.2053-.9788h0Z" style="fill:#000001; stroke-width:0px;"/><path d="m80.8976,104.0457c1.0711-.9472,2.3331.1538,1.7815,3.0691s-1.2224,8.4855-3.0907,8.3611" style="fill:none; stroke:#000001; stroke-miterlimit:10;"/><path d="m75.7453,101.3601c1.0265-.0469,1.2588,1.2841,1.0234,2.7709" style="fill:none; stroke:#000001; stroke-miterlimit:10;"/><path d="m26.9446,99.8454l-.4446,21.2949s.2364,2.3634-1.4183,2.4422-57.9126,4.176-65.7131,4.176" style="fill:none; stroke:#000001; stroke-miterlimit:10;"/><path d="m152.765,104.4657c-7.0644,1.0327-14.2984,1.335-21.3455.0792-2.3364-.4098-4.7274-.4723-6.9736-1.4703,2.4449-.3618,4.7451.2119,7.0997.438,6.7666,1.0584,14.3064.6508,21.1113-.0412,0,.0002.108.9943.108.9943h0Z" style="fill:#000001; stroke-width:0px;"/><path d="m122.8287,104.5048s10.3767,1.5215,13.0545,1.7649,10.4679.426,16.554-.4565" style="fill:none; stroke:#000001; stroke-miterlimit:10; stroke-width:.5px;"/><path d="m127.7824,100.7382l-3.8278,1.4676s-1.2456.8597-1.7345,1.9642c0,0-.0609,2.7648,0,3.7712,0,0,1.2409,1.5806,2.5561,1.5806s12.2938,2.1949,19.0797,1.6472,8.8552-.6999,8.8552-.6999" style="fill:none; stroke:#000001; stroke-miterlimit:10;"/><g style="clip-path:url(#uuid-9c628bb8-8b2c-4b3f-be51-546f9beaa8a1);"><path d="m399.2509,90.3075c-9.58-5.1799-17.4199,6.8101-18.51,10.9001-1.09,4.0901-2.35,5.4299-5.4399,8.21-1.71,1.53-2.99,2.6501-3.9399,3.74-1.3,1.5-1.9901,2.96-2.3101,5.3999-.41,3.1802-4.5901,10.1902-17.16,11.0801.65-10.1399-3.9601-17.48-13.26-18.95v-.01c2.6-2,15.38-1.8599,19.77-9.8799-.5-7.6101,5.6801-18.7102,10.97-22.75.9501-.7202,2.15-1.6101,3.4401-2.55-3.41-2.4602-7.67-3.6401-11.8701-1.97h-.01c-1.6399-.78-3.7999-.5701-5.98.5999-2.3199-4.54-7.8099-7.6199-10.27-8.7-.5898-.26-1.2699-.25-1.8499.03-.6901.3401-1.6801.96-2.67,2.02-.08.0999-.16.2-.2301.3-1.7599,2.7-4.0199,7.4399-2.7699,15.6199.1.6201.4401,1.1702.9501,1.52,1.9099,1.3,6.74,4.3201,8.9299,3.3699.21,1.6301.76,2.55.76,2.55-1.0601,1.3401-2.5701,2.3301-5.3,3.04-7.6799,2.02-22.58,7.46-25.61,21.1501-5.99,2.71-12.7001,6.7-20.09,12.1599-36.51,26.98-88.72,66.98-88.72,66.98l13.7999,16.7,8.29,10.04c43.84-17.3201,104.89-58.95,116.0399-76.6799,19.52,1.98,35.51-10.8301,37.1001-18.1501,1.05-4.8699,2.28-6.54,2.28-6.54,7.24,1.75,11.0499-1.6299,14.4199-6.48,3.38-4.8599,8.8201-17.5798-.76-22.75Zm-160.99,106.2603c2.76-2.3901,5.8-5.02,9.12-7.8701,37.59-32.3101,60.77-47.8401,74.7101-54.98,1.95,1.6001,3.9099,2.99,5.8699,4.1799-6.6299,11.5-60.6799,45.6101-89.7,58.6702Z" style="fill:#d3d5d6; stroke-width:0px;"/><path d="m351.8882,129.6354c1.3081-20.3534-18.5761-29.4234-55.0886-2.446-36.5125,26.9774-88.723,66.9783-88.723,66.9783" style="fill:none; stroke:#000001; stroke-miterlimit:10;"/><path d="m341.3293,129.0924c-1.4456-2.5561-19.2117-4.624-93.9494,59.61-21.5121,18.4888-31.1635,27.2099-31.1635,27.2099" style="fill:none; stroke:#000001; stroke-miterlimit:10;"/></g></svg>