<?xml version="1.0" encoding="UTF-8"?><svg id="uuid-8eea0e15-da4e-4001-b1c2-abb114431eac" xmlns="http://www.w3.org/2000/svg" width="654" height="214.196" xmlns:xlink="http://www.w3.org/1999/xlink" viewBox="0 0 654 214.196"><defs><clipPath id="uuid-48ac4aee-b4b6-4d37-ac8d-72fa3c9877fa"><rect x="-65.863" y="-8.57" width="236.557" height="191.03" transform="translate(104.83 173.89) rotate(180)" style="fill:none; stroke-width:0px;"/></clipPath></defs><line x1="313.705" y1="98.056" x2="460.665" y2="98.056" style="fill:none; stroke:#000001; stroke-linecap:round; stroke-miterlimit:10; stroke-width:2px;"/><line x1="314.182" y1="107.154" x2="154.662" y2="129.273" style="fill:none; stroke:#000001; stroke-linecap:round; stroke-miterlimit:10; stroke-width:2px;"/><g style="clip-path:url(#uuid-48ac4aee-b4b6-4d37-ac8d-72fa3c9877fa);"><path d="m153.122,78.093h5.609c1.392,0,2.521,1.13,2.521,2.521v15.978c0,1.392-1.13,2.521-2.521,2.521h-5.609v-21.021h0Z" style="fill:#d3d5d6; stroke:#000001; stroke-miterlimit:10; stroke-width:2px;"/><path d="m-217.695,66.916V30.926c0-3.704,3.537-6.062,3.537-6.062,0-5.045,5.97-4.62,5.97-4.62h54.853c11.931-1.427,24.737-1.73,39.122,0H-41.743s2.783-.147,2.783,2.935c0-3.081,2.778-2.935,2.778-2.935h10.484c.845-1.837,1.887-1.639,1.887-1.639h10.631c.896,0,1.245,1.639,1.245,1.639h80.89c7.099-1.973,45.831-.592,49.449,1.513.142.086.319.035.4-.106.511-.946,1.199-1.083,1.199-1.083l14.582.921c3.982.253,7.574,2.56,9.361,6.127,7.063,14.091,10.342,33.253,10.342,60.985,0,27.737-3.279,46.894-10.342,60.99-1.786,3.567-5.379,5.874-9.361,6.122l-14.582.921s-.688-.132-1.199-1.078c-.081-.142-.258-.192-.4-.111-3.618,2.105-42.35,3.491-49.449,1.513H-11.936s-.349,1.639-1.245,1.639h-10.631s-1.042.197-1.887-1.639h-10.484s-2.778.152-2.778-2.93c0,3.081-2.783,2.93-2.783,2.93h-72.471c-14.385,1.735-27.191,1.427-39.122,0h-54.853s-5.97.43-5.97-4.62c0,0-3.537-2.353-3.537-6.057v-35.995c0-.88.278-1.746.799-2.459l1.391-1.928v-34.598l-1.391-1.923c-.521-.718-.799-1.579-.799-2.464Z" style="fill:#d3d5d6; stroke:#000001; stroke-miterlimit:10;"/><path d="m15.931,156.885v3.453s1.639,1.888,1.59,2.533-.546,8.197-1.093,8.991-2.881,2.384-2.881,2.384h-1.689l.348-12.767,1.143-2.633v-1.813" style="fill:#d3d5d6; stroke:#000001; stroke-miterlimit:10; stroke-width:1.5px;"/><path d="m148.778,88.603c0,14.485-1.721,37.656-3.441,43.621-1.721,5.965-7.571,18.583-7.571,18.583,0,0-.688,2.524-6.08,3.441-5.391.918-63.587,2.711-63.587,2.711" style="fill:none; stroke:#000001; stroke-miterlimit:10; stroke-width:.5px;"/><line x1="138.472" y1="149.262" x2="44.726" y2="152.814" style="fill:none; stroke:#000001; stroke-miterlimit:10; stroke-width:.5px;"/><path d="m48.315,156.96s-5.106-4.386-8.193-5.488c-3.087-1.102-25.907-6.725-25.907-6.725H-28.448s-6.676.331-6.676-5.622v-50.521" style="fill:none; stroke:#000001; stroke-miterlimit:10; stroke-width:.5px;"/><path d="m-19.586,146.899H13.995l22.368,6.401c.414.118.328.729-.102.729H-20.51c-.685,0-1.209-.609-1.106-1.286l.713-4.711c.099-.651.658-1.133,1.317-1.133Z" style="fill:none; stroke:#000001; stroke-miterlimit:10;"/><line x1="14.105" y1="154.029" x2="15.493" y2="147.328" style="fill:none; stroke:#000001; stroke-miterlimit:10; stroke-width:.5px;"/><line x1="16.974" y1="154.029" x2="18.208" y2="148.073" style="fill:none; stroke:#000001; stroke-miterlimit:10; stroke-width:.5px;"/><line x1="29.619" y1="151.37" x2="28.967" y2="154.029" style="fill:none; stroke:#000001; stroke-miterlimit:10; stroke-width:.5px;"/><path d="m143.976,130.664s-69.171,2.354-72.039,2.496c-2.868.142-4.359-1.119-3.671-4.676.688-3.556,2.753-23.669,2.753-39.882" style="fill:none; stroke:#000001; stroke-miterlimit:10; stroke-width:.5px;"/><path d="m62.073,152.157c2.293-10.021,6.881-39.77,6.881-63.554" style="fill:none; stroke:#000001; stroke-miterlimit:10; stroke-width:.5px;"/><path d="m58.171,88.603c0,21.069-3.851,44.285-11.534,60.073-.855,1.758-2.305,1.051-4.125.585l-19.493-6.198c-1.523-.39-2.484-1.888-2.2-3.435,1.319-7.185,4.653-27.652,4.653-51.026" style="fill:none; stroke:#000001; stroke-miterlimit:10;"/><path d="m45.918,149.708c-.369,2.164-.85,3.093-2.03,3.737" style="fill:none; stroke:#000001; stroke-miterlimit:10; stroke-width:.5px;"/><line x1="134.069" y1="148" x2="139.35" y2="132.678" style="fill:none; stroke:#000001; stroke-miterlimit:10; stroke-width:.5px;"/><line x1="135.631" y1="129.628" x2="135.631" y2="88.603" style="fill:none; stroke:#000001; stroke-miterlimit:10; stroke-width:.5px;"/><path d="m14.641,151.443H-18.818s-1.801-.361-2.441-1.056" style="fill:none; stroke:#000001; stroke-miterlimit:10; stroke-width:.5px;"/><line x1="15.931" y1="160.338" x2="13.348" y2="158.848" style="fill:none; stroke:#000001; stroke-miterlimit:10; stroke-width:1.5px;"/><path d="m15.931,20.321v-3.453s1.639-1.888,1.59-2.533-.546-8.197-1.093-8.991-2.881-2.384-2.881-2.384h-1.689l.348,12.767,1.143,2.633v1.813" style="fill:#d3d5d6; stroke:#000001; stroke-miterlimit:10; stroke-width:1.5px;"/><path d="m148.778,88.603c0-14.485-1.721-37.656-3.441-43.621-1.721-5.965-7.571-18.583-7.571-18.583,0,0-.688-2.524-6.08-3.441-5.391-.918-63.587-2.711-63.587-2.711" style="fill:none; stroke:#000001; stroke-miterlimit:10; stroke-width:.5px;"/><line x1="138.472" y1="27.945" x2="44.726" y2="24.392" style="fill:none; stroke:#000001; stroke-miterlimit:10; stroke-width:.5px;"/><path d="m48.315,20.246s-5.106,4.386-8.193,5.488c-3.087,1.102-25.907,6.725-25.907,6.725H-28.448s-6.676-.331-6.676,5.622v50.521" style="fill:none; stroke:#000001; stroke-miterlimit:10; stroke-width:.5px;"/><path d="m-19.586,30.307H13.995l22.368-6.401c.414-.118.328-.729-.102-.729H-20.51c-.685,0-1.209.609-1.106,1.286l.713,4.711c.099.651.658,1.133,1.317,1.133Z" style="fill:none; stroke:#000001; stroke-miterlimit:10;"/><line x1="14.105" y1="23.177" x2="15.493" y2="29.878" style="fill:none; stroke:#000001; stroke-miterlimit:10; stroke-width:.5px;"/><line x1="16.974" y1="23.177" x2="18.208" y2="29.133" style="fill:none; stroke:#000001; stroke-miterlimit:10; stroke-width:.5px;"/><line x1="29.619" y1="25.836" x2="28.967" y2="23.177" style="fill:none; stroke:#000001; stroke-miterlimit:10; stroke-width:.5px;"/><path d="m143.976,46.542s-69.171-2.354-72.039-2.496c-2.868-.142-4.359,1.119-3.671,4.676.688,3.556,2.753,23.669,2.753,39.882" style="fill:none; stroke:#000001; stroke-miterlimit:10; stroke-width:.5px;"/><path d="m62.073,25.049c2.293,10.021,6.881,39.77,6.881,63.554" style="fill:none; stroke:#000001; stroke-miterlimit:10; stroke-width:.5px;"/><path d="m58.171,88.603c0-21.069-3.851-44.285-11.534-60.073-.855-1.758-2.305-1.051-4.125-.585l-19.493,6.198c-1.523.39-2.484,1.888-2.2,3.435,1.319,7.185,4.653,27.652,4.653,51.026" style="fill:none; stroke:#000001; stroke-miterlimit:10;"/><path d="m45.918,27.498c-.369-2.164-.85-3.093-2.03-3.737" style="fill:none; stroke:#000001; stroke-miterlimit:10; stroke-width:.5px;"/><line x1="134.069" y1="29.206" x2="139.35" y2="44.528" style="fill:none; stroke:#000001; stroke-miterlimit:10; stroke-width:.5px;"/><line x1="135.631" y1="47.578" x2="135.631" y2="88.603" style="fill:none; stroke:#000001; stroke-miterlimit:10; stroke-width:.5px;"/><path d="m14.641,25.764H-18.818s-1.801.361-2.441,1.056" style="fill:none; stroke:#000001; stroke-miterlimit:10; stroke-width:.5px;"/><line x1="15.931" y1="16.868" x2="13.348" y2="18.359" style="fill:none; stroke:#000001; stroke-miterlimit:10; stroke-width:1.5px;"/><path d="m154.287,88.603c0,27.734-3.281,46.894-10.343,60.988-1.787,3.566-5.378,5.874-9.359,6.125l-14.585.92s-.686-.133-1.2-1.078c-.078-.144-.256-.193-.397-.111-3.62,2.106-42.351,3.49-49.449,1.514H-11.938s-.348,1.639-1.242,1.639h-10.631s-1.043.199-1.888-1.639h-10.482s-2.782.149-2.782-2.931c0,3.08-2.782,2.931-2.782,2.931h-72.472c-14.384,1.733-27.187,1.428-39.12,0h-54.852s-5.973.428-5.973-4.62c0,0-3.533-2.356-3.533-6.057v-35.994c0-.884.278-1.745.796-2.461l1.391-1.927v-17.298" style="fill:none; stroke:#000001; stroke-miterlimit:10; stroke-width:2px;"/><path d="m154.287,88.603c0-27.734-3.281-46.894-10.343-60.988-1.787-3.566-5.378-5.874-9.359-6.125l-14.585-.92s-.686.133-1.2,1.078c-.078.144-.256.193-.397.111-3.62-2.106-42.351-3.49-49.449-1.514H-11.938s-.348-1.639-1.242-1.639h-10.631s-1.043-.199-1.888,1.639h-10.482s-2.782-.149-2.782,2.931c0-3.08-2.782-2.931-2.782-2.931h-72.472c-14.384-1.733-27.187-1.428-39.12,0h-54.852s-5.973-.428-5.973,4.62c0,0-3.533,2.356-3.533,6.057v35.994c0,.884.278,1.745.796,2.461l1.391,1.927v17.298" style="fill:none; stroke:#000001; stroke-miterlimit:10; stroke-width:2px;"/><path d="m150.199,133.355h2.456c.891,0,1.614-.722,1.614-1.614v-4.82c0-.891-.722-1.614-1.614-1.614h-.981" style="fill:none; stroke:#000001; stroke-linecap:round; stroke-miterlimit:10; stroke-width:2px;"/><path d="m150.199,43.849h2.456c.891,0,1.614.722,1.614,1.614v4.82c0,.891-.722,1.614-1.614,1.614h-.981" style="fill:none; stroke:#000001; stroke-linecap:round; stroke-miterlimit:10; stroke-width:2px;"/></g><path d="m460.558,131.182c0-17.095,3.054-34.438,5.543-42.245,1.579-4.746,4.189-7.686,7.235-11.424,3.046-3.73,4.528-5.656,7.017-6.784,2.489-1.136,11.086-5.769,19.344-5.881,8.258-.113,32.686-.797,36.086-.797,7.326,0,20.442,1.963,34.506,2.038.76-1.106,1.677-2.429,2.625-3.745.023-.03.045-.068.075-.105,1.542-2.143,3.166-4.249,4.355-5.31,2.512-2.234,3.708-2.324,6.175-2.234,2.467.083,3.001.579,2.835,1.527-.136.79-2.489,7.062-3.58,9.852h.211s39.771.09,45.223.135c5.453.045,41.335.579,46.916.76,5.588.173,11.575.353,13.583.444,2.016.09,10.905.534,14.703.18,3.798-.361,11.891-1.609,14.839-2.143,2.948-.542,7.641-1.7,16.441-1.7h35.1c5.611,0,10.432.444,15.531,1.655,5.092,1.203,20.6,5.49,24.797,6.476,4.204.985,8.717,2.369,10.281,3.038,1.564.669,4.603,4.294,5.445,7.107.85,2.813,5.498,19.84,5.498,49.157s-4.648,46.337-5.498,49.157c-.842,2.813-3.881,6.43-5.445,7.1-1.564.677-6.077,2.061-10.281,3.038-4.197.985-19.705,5.272-24.797,6.483-5.099,1.203-9.92,1.655-15.531,1.655h-35.1c-8.8,0-13.493-1.166-16.441-1.7-2.948-.534-11.041-1.79-14.839-2.143-3.798-.361-12.688.09-14.703.18-2.008.083-7.995.263-13.583.444-5.58.18-41.463.714-46.916.76-4.52.038-32.663.105-45.434.135,1.091,2.79,3.445,9.055,3.58,9.845.165.955-.369,1.452-2.835,1.534-2.467.083-3.663,0-6.175-2.241-1.188-1.06-2.813-3.166-4.355-5.31-.038-.053-.075-.098-.105-.15-.933-1.294-1.835-2.602-2.587-3.693h-.008c-14.064.075-27.181,2.031-34.506,2.031-3.399,0-27.828-.677-36.086-.79-8.258-.113-16.854-4.753-19.344-5.881-2.489-1.136-3.971-3.054-7.017-6.791-3.046-3.73-5.656-6.671-7.235-11.424-2.489-7.807-5.543-25.143-5.543-42.238Z" style="fill:#d3d5d6; stroke-width:0px;"/><path d="m535.577,131.181c0,19.743.871,28.114,3.137,36.837,2.266,8.723,8.42,14.94,11.27,17.64,2.85,2.7,5.447,3.37,8.881,3.509,3.434.138,13.587.562,25.954.707,12.367.145,23.153.187,23.153.187,21.898.096,48.981-.042,58.258-.308,7.43-.213,14.212-.25,23.067-1.623,3.562-.552,3.468-1.342,4.737-6.586,0,0-17.187-.754-23.711-.754s-67.506-.277-70.803-.277c-2.751,0-3.33-1.843-3.684-2.978-5.523-17.688-5.603-45.882-5.603-46.354s.08-28.666,5.603-46.354c.354-1.135.933-2.978,3.684-2.978,3.297,0,64.279-.277,70.803-.277,6.524,0,23.711-.754,23.711-.754-1.269-5.244-1.175-6.033-4.737-6.586-8.855-1.373-15.637-1.41-23.067-1.623-9.277-.266-36.36-.404-58.258-.308,0,0-10.785.041-23.153.187s-22.521.569-25.954.707c-3.434.138-6.031.809-8.881,3.509-2.85,2.7-9.004,8.917-11.27,17.64-2.266,8.723-3.137,17.094-3.137,36.837Z" style="fill:none; stroke:#000001; stroke-linecap:round; stroke-linejoin:round; stroke-width:.5px;"/><path d="m570.289,196.275c-14.063.073-27.182,2.034-34.508,2.034-3.394,0-27.827-.679-36.085-.792-8.258-.113-16.855-4.751-19.343-5.882-2.489-1.131-3.966-3.054-7.013-6.787s-5.656-6.674-7.24-11.425c-2.489-7.805-5.543-25.146-5.543-42.241,0-17.095,3.054-34.436,5.543-42.241,1.584-4.751,4.193-7.692,7.24-11.425,3.047-3.733,4.525-5.656,7.013-6.787s11.086-5.769,19.343-5.882c8.258-.113,32.691-.792,36.085-.792,7.326,0,20.445,1.961,34.508,2.034" style="fill:none; stroke:#000001; stroke-linecap:round; stroke-miterlimit:10; stroke-width:2px;"/><path d="m582.773,196.291c12.774-.029,40.913-.097,45.434-.135,5.452-.045,41.333-.581,46.919-.76,5.586-.179,11.573-.357,13.584-.447,2.011-.089,10.903-.536,14.701-.179,3.798.357,11.886,1.609,14.835,2.145,2.949.536,7.641,1.698,16.444,1.698h35.102c5.606,0,10.432-.447,15.526-1.653,5.094-1.206,20.6-5.496,24.8-6.479,4.2-.983,8.713-2.368,10.277-3.039,1.564-.67,4.603-4.29,5.452-7.105.849-2.815,5.496-19.838,5.496-49.156,0-29.318-4.647-46.341-5.496-49.156-.849-2.815-3.888-6.435-5.452-7.105s-6.077-2.055-10.277-3.039c-4.2-.983-19.706-5.273-24.8-6.479-5.094-1.206-9.92-1.653-15.526-1.653h-35.102c-8.803,0-13.495,1.162-16.444,1.698-2.949.536-11.037,1.787-14.835,2.145-3.798.357-12.69-.089-14.701-.179s-7.999-.268-13.584-.447c-5.586-.179-41.467-.715-46.919-.76s-45.221-.134-45.221-.134h-.213" style="fill:none; stroke:#000001; stroke-linecap:round; stroke-miterlimit:10; stroke-width:2px;"/><path d="m573.097,200.279s-2.808-4.004-2.431-6.694c.172-1.227,1.891-.936,3.018-.936s4.612.274,4.612.274" style="fill:none; stroke:#000001; stroke-linecap:round; stroke-linejoin:round; stroke-width:.5px;"/><path d="m572.047,189.621c.617.465,2.42,1.516,3.401,2.383.938.829,2.557.912,4.366,1.036,1.809.124,1.974.912,2.467,2.031s3.906,10.113,4.071,11.067c.164.953-.37,1.451-2.837,1.534-2.467.083-3.66,0-6.168-2.238-2.167-1.934-5.758-7.308-7.736-10.133-.507-.724-1.181-1.322-1.962-1.736l-8.267-4.376" style="fill:none; stroke:#000001; stroke-linecap:round; stroke-linejoin:round; stroke-width:2px;"/><path d="m573.097,62.084s-2.808,4.004-2.431,6.694c.172,1.227,1.891.936,3.018.936,1.128,0,4.612-.274,4.612-.274" style="fill:none; stroke:#000001; stroke-linecap:round; stroke-linejoin:round; stroke-width:.5px;"/><path d="m572.047,72.741c.617-.465,2.42-1.516,3.401-2.383.938-.829,2.557-.912,4.366-1.036s1.974-.912,2.467-2.031c.493-1.119,3.906-10.113,4.071-11.067.164-.953-.37-1.451-2.837-1.534s-3.66,0-6.168,2.238c-2.167,1.934-5.758,7.308-7.736,10.133-.507.724-1.181,1.322-1.962,1.736l-8.267,4.376" style="fill:none; stroke:#000001; stroke-linecap:round; stroke-linejoin:round; stroke-width:2px;"/><path d="m559.136,65.687c-.073.141-.14.286-.2.437-.248.622-.515,1.671-.388,3.155.169,1.981,1.01,3.911,1.01,3.911" style="fill:none; stroke:#000001; stroke-linecap:round; stroke-linejoin:round; stroke-width:.5px;"/><path d="m633.869,66.299s.707,1.484,1.061,3.132c.353,1.648.398,2.861.398,2.861,0,0,1.728,3.798,2.885,9.376" style="fill:none; stroke:#000001; stroke-linecap:round; stroke-linejoin:round; stroke-width:.5px;"/><path d="m632.52,81.689s-1.833-5.162-4.985-9.415" style="fill:none; stroke:#000001; stroke-linecap:round; stroke-linejoin:round; stroke-width:.5px;"/><path d="m468.326,84.149s53.313-2.607,66.154-3.079c8.235-.303,12.362-3.025,16.521-5.252" style="fill:none; stroke:#000001; stroke-linecap:round; stroke-linejoin:round; stroke-width:.5px;"/><path d="m580.986,69.071c20.737-.122,39.431-.036,53.81.175,19.414.285,31.25.265,35.658.513,6.483.365,10.205.152,21.327,3.135,2.164.58,2.466,1.409,2.843,2.43.596,1.613,1.155,3.914,1.546,5.443" style="fill:none; stroke:#000001; stroke-linecap:round; stroke-linejoin:round; stroke-width:.5px;"/><path d="m477.321,72.878s53.811-1.247,58.428-1.413c4.852-.175,8.109-.58,11.201,1.57,2,1.391,3.334,2.32,4.028,2.802" style="fill:none; stroke:#000001; stroke-linecap:round; stroke-linejoin:round; stroke-width:.5px;"/><line x1="595.837" y1="84.827" x2="551.001" y2="75.818" style="fill:none; stroke:#000001; stroke-linecap:round; stroke-linejoin:round; stroke-width:.5px;"/><path d="m612.723,86.401c-3.285,0-9.002.28-16.886-1.574" style="fill:none; stroke:#000001; stroke-linecap:round; stroke-linejoin:round; stroke-width:.5px;"/><path d="m559.557,73.19l50.482,9.91c1.647.323,3.328.485,5.005.485,14.291.004,84.437.026,93.649.026,3.455,0,2.937-1.51,2.883-2.652-.054-1.143-.432-4.989-.522-6.113-.09-1.125-.054-1.723,4-1.605,3.483.102,102.381,3.19,102.381,3.19,3.981.228,7.073,2.447,8.483,6.09" style="fill:none; stroke:#000001; stroke-linecap:round; stroke-linejoin:round; stroke-width:.5px;"/><path d="m617.99,88.55h-2.172c-.763,0-1.381.623-1.381,1.392,0,.769.618,1.392,1.381,1.392h2.172s1.492,0,1.492,0h2.172c.763,0,1.381-.623,1.381-1.392s-.618-1.392-1.381-1.392h-2.172s-1.492,0-1.492,0Z" style="fill:none; stroke:#000001; stroke-linecap:round; stroke-linejoin:round; stroke-width:.5px;"/><line x1="618.736" y1="88.55" x2="618.736" y2="91.334" style="fill:none; stroke:#000001; stroke-linecap:round; stroke-linejoin:round; stroke-width:.5px;"/><path d="m559.136,196.675c-.073-.141-.14-.286-.2-.437-.248-.622-.515-1.671-.388-3.155.169-1.981,1.01-3.911,1.01-3.911" style="fill:none; stroke:#000001; stroke-linecap:round; stroke-linejoin:round; stroke-width:.5px;"/><path d="m633.869,196.063s.707-1.484,1.061-3.132c.353-1.648.398-2.861.398-2.861,0,0,1.728-3.798,2.885-9.376" style="fill:none; stroke:#000001; stroke-linecap:round; stroke-linejoin:round; stroke-width:.5px;"/><path d="m642.667,190.031c.248-1.381,1.375-5.137,1.485-9.335" style="fill:none; stroke:#000001; stroke-linecap:round; stroke-linejoin:round; stroke-width:.5px;"/><path d="m642.667,72.332c.248,1.381,1.375,5.137,1.485,9.335" style="fill:none; stroke:#000001; stroke-linecap:round; stroke-linejoin:round; stroke-width:.5px;"/><path d="m632.52,180.674s-1.833,5.162-4.985,9.415" style="fill:none; stroke:#000001; stroke-linecap:round; stroke-linejoin:round; stroke-width:.5px;"/><path d="m687.038,131.181v32.667c0,2.017-1.633,3.653-3.651,3.657-12.55.023-53.691.099-63.482.113-1.83.003-3.377-1.338-3.628-3.151-1.495-10.795-2.361-22.602-2.259-33.287-.102-10.685.764-22.492,2.259-33.287.251-1.813,1.798-3.154,3.628-3.151,9.791.014,50.932.09,63.482.113,2.017.004,3.651,1.64,3.651,3.657v32.667Z" style="fill:none; stroke:#000001; stroke-linecap:round; stroke-linejoin:round; stroke-width:.5px;"/><path d="m471.264,163.883c18.156,1.414,40.998,1.116,50.813.895,2.622-.059,4.67-2.304,4.505-4.942-.358-5.716-.868-16.16-.868-28.654s.511-22.938.868-28.654c.165-2.639-1.883-4.883-4.505-4.942-9.815-.221-32.657-.519-50.813.895" style="fill:none; stroke:#000001; stroke-linecap:round; stroke-linejoin:round; stroke-width:.5px;"/><path d="m468.326,178.213s53.313,2.607,66.154,3.079c8.235.303,12.338,3.006,16.497,5.233" style="fill:none; stroke:#000001; stroke-linecap:round; stroke-linejoin:round; stroke-width:.5px;"/><path d="m580.986,193.291c20.737.122,39.431.036,53.81-.175,19.414-.285,31.25-.265,35.658-.513,6.483-.365,10.205-.152,21.327-3.135,2.164-.58,2.466-1.409,2.843-2.43.596-1.613,1.155-3.914,1.546-5.443" style="fill:none; stroke:#000001; stroke-linecap:round; stroke-linejoin:round; stroke-width:.5px;"/><path d="m477.321,189.484s53.811,1.247,58.428,1.413c4.852.175,8.109.58,11.201-1.57,2-1.391,3.334-2.32,4.028-2.802" style="fill:none; stroke:#000001; stroke-linecap:round; stroke-linejoin:round; stroke-width:.5px;"/><line x1="595.837" y1="177.536" x2="550.977" y2="186.525" style="fill:none; stroke:#000001; stroke-linecap:round; stroke-linejoin:round; stroke-width:.5px;"/><path d="m612.723,175.961c-3.285,0-9.002-.28-16.886,1.574" style="fill:none; stroke:#000001; stroke-linecap:round; stroke-linejoin:round; stroke-width:.5px;"/><path d="m559.557,189.172l50.482-9.91c1.647-.323,3.328-.485,5.005-.485,14.291-.004,84.437-.026,93.649-.026,3.455,0,2.937,1.51,2.883,2.652-.054,1.143-.432,4.989-.522,6.113-.09,1.125-.054,1.723,4,1.605,3.483-.102,102.381-3.19,102.381-3.19,3.981-.228,7.073-2.447,8.483-6.09" style="fill:none; stroke:#000001; stroke-linecap:round; stroke-linejoin:round; stroke-width:.5px;"/><path d="m617.99,173.813h-2.172c-.763,0-1.381-.623-1.381-1.392,0-.769.618-1.392,1.381-1.392h2.172s1.492,0,1.492,0h2.172c.763,0,1.381.623,1.381,1.392s-.618,1.392-1.381,1.392h-2.172s-1.492,0-1.492,0Z" style="fill:none; stroke:#000001; stroke-linecap:round; stroke-linejoin:round; stroke-width:.5px;"/><line x1="618.736" y1="173.813" x2="618.736" y2="171.028" style="fill:none; stroke:#000001; stroke-linecap:round; stroke-linejoin:round; stroke-width:.5px;"/><path d="m714.288,184.594c-.003-.093-.004-.193-.004-.302,0-2.861.03-5.025.03-6.07s-.154-2.296-5.066-2.296-96.526.035-96.526.035c0,0-3.198-23.314-3.198-44.78s3.198-44.78,3.198-44.78c0,0,91.614.035,96.526.035s5.066-1.25,5.066-2.296-.03-3.209-.03-6.07c0-.108,0-.209.004-.302" style="fill:none; stroke:#000001; stroke-linecap:round; stroke-linejoin:round; stroke-width:.5px;"/><line x1="579.211" y1="77.048" x2="576.366" y2="72.633" style="fill:none; stroke:#000001; stroke-linecap:round; stroke-linejoin:round; stroke-width:.5px;"/><line x1="579.211" y1="185.314" x2="576.366" y2="189.729" style="fill:none; stroke:#000001; stroke-linecap:round; stroke-linejoin:round; stroke-width:.5px;"/><path d="m464.873,128.441c.144-.131.363-.131.507,0,.88.798,2.091,2.042,2.253,2.246.115.144.174.308.174.49,0,.181-.059.345-.173.489-.202.254-1.296,1.325-2.244,2.246-.147.142-.379.142-.526,0-1.396-1.354-1.971-1.92-2.237-2.246-.231-.284-.234-.691-.006-.978.172-.217,1.387-1.46,2.252-2.245Z" style="fill:none; stroke:#000001; stroke-linecap:round; stroke-linejoin:round; stroke-width:.75px;"/><path d="m464.677,94.216h-3.207c-.891,0-1.614.722-1.614,1.614v4.82c0,.891.722,1.614,1.614,1.614h.981" style="fill:none; stroke:#000001; stroke-linecap:round; stroke-miterlimit:10; stroke-width:2px;"/><path d="m464.677,168.147h-3.207c-.891,0-1.614-.722-1.614-1.614v-4.82c0-.891.722-1.614,1.614-1.614h.981" style="fill:none; stroke:#000001; stroke-linecap:round; stroke-miterlimit:10; stroke-width:2px;"/><line x1="309.063" y1="87.476" x2="162.634" y2="87.476" style="fill:none; stroke:#000001; stroke-linecap:round; stroke-miterlimit:10; stroke-width:2px;"/><path d="m306.105,108.721c-5.892,0-10.675-4.775-10.675-10.667s4.782-10.667,10.675-10.667c.588,0,1.17.045,1.736.142,5.065.827,8.931,5.222,8.931,10.526s-3.866,9.699-8.931,10.526c-.566.097-1.147.142-1.736.142Zm-3.553-10.667c0,1.959,1.594,3.546,3.553,3.546s3.546-1.587,3.546-3.546-1.587-3.546-3.546-3.546-3.553,1.587-3.553,3.546Z" style="fill:#d3d5d6; stroke-width:0px;"/><path d="m306.105,101.6c-1.959,0-3.553-1.587-3.553-3.546s1.594-3.546,3.553-3.546,3.546,1.587,3.546,3.546-1.587,3.546-3.546,3.546Z" style="fill:#d3d5d6; stroke-width:0px;"/><path d="m309.651,111.85s-1.199-.544-1.81-3.27c5.065-.827,8.931-5.222,8.931-10.526s-3.866-9.699-8.931-10.526c.611-2.719,1.81-3.263,1.81-3.263,4.961,1.922,15.047,6.734,16.559,7.464.127.06.194.089.194.089,2.354,1.08,4,3.464,4,6.235s-1.646,5.155-4,6.242c0,0-.067.03-.194.089-1.512.73-11.598,5.535-16.559,7.464Z" style="fill:#d3d5d6; stroke-width:0px;"/><path d="m307.84,87.528c5.065.827,8.931,5.222,8.931,10.526s-3.866,9.699-8.931,10.526c-.566.097-1.147.142-1.736.142-5.892,0-10.675-4.775-10.675-10.667s4.782-10.667,10.675-10.667c.588,0,1.17.045,1.736.142Z" style="fill:none; stroke:#000001; stroke-miterlimit:10;"/><path d="m326.404,91.819c2.354,1.08,4,3.464,4,6.235" style="fill:none; stroke:#000001; stroke-miterlimit:10;"/><path d="m309.651,98.054c0,1.959-1.587,3.546-3.546,3.546s-3.553-1.587-3.553-3.546,1.594-3.546,3.553-3.546,3.546,1.587,3.546,3.546Z" style="fill:none; stroke:#000001; stroke-miterlimit:10;"/><path d="m326.404,91.819s-.067-.03-.194-.089c-1.512-.73-11.598-5.542-16.559-7.464,0,0-1.199.544-1.81,3.263" style="fill:none; stroke:#000001; stroke-miterlimit:10;"/><path d="m326.404,104.296c2.354-1.088,4-3.471,4-6.242" style="fill:none; stroke:#000001; stroke-miterlimit:10;"/><path d="m326.404,104.296s-.067.03-.194.089c-1.512.73-11.598,5.535-16.559,7.464,0,0-1.199-.544-1.81-3.27" style="fill:none; stroke:#000001; stroke-miterlimit:10;"/></svg>