<?xml version="1.0" encoding="UTF-8"?><svg id="uuid-6478baf2-244c-490e-bfc4-aaad26466776" xmlns="http://www.w3.org/2000/svg" width="218" height="154" xmlns:xlink="http://www.w3.org/1999/xlink" viewBox="0 0 218 154"><defs><clipPath id="uuid-a565d351-57d3-471f-9797-13f8abdb7f75"><rect x="5.383" y="-15.862" width="109.987" height="176.455" style="fill:none; stroke-width:0px;"/></clipPath></defs><g style="clip-path:url(#uuid-a565d351-57d3-471f-9797-13f8abdb7f75);"><path d="m98.971,73.931h5.617c.618,0,1.12.501,1.12,1.12v4.976c0,.618-.501,1.12-1.12,1.12h-5.617" style="fill:#f4ae3d; stroke:#141b21; stroke-linecap:round; stroke-miterlimit:10; stroke-width:2px;"/><path d="m103.586,73.931v-4.751c0-.529-.429-.958-.958-.958h-3.656" style="fill:none; stroke:#000001; stroke-linecap:round; stroke-miterlimit:10; stroke-width:2px;"/><path d="m103.586,81.146v4.751c0,.529-.429.958-.958.958h-3.656" style="fill:none; stroke:#000001; stroke-linecap:round; stroke-miterlimit:10; stroke-width:2px;"/><rect x="100.01" y="70.217" width="2.057" height="2.057" rx="1.028" ry="1.028" style="fill:#000001; stroke-width:0px;"/><rect x="100.01" y="83.017" width="2.057" height="2.057" rx="1.028" ry="1.028" style="fill:#000001; stroke-width:0px;"/><path d="m-235.938,76.268c0-17.378,3.104-35.009,5.635-42.937,1.606-4.832,4.259-7.821,7.355-11.614,3.096-3.8,4.603-5.749,7.133-6.904,2.531-1.147,11.27-5.864,19.664-5.979,8.395-.115,33.228-.803,36.683-.803,7.447,0,20.781,1.988,35.078,2.064h.008c2.072-2.997,5.191-7.546,7.164-9.312,2.553-2.271,3.769-2.355,6.277-2.271,2.508.084,3.051.589,2.882,1.56-.138.803-2.531,7.172-3.639,10.008h.214s40.43.092,45.973.138c1.009.008,3.058.031,5.757.069,12.974.008,28.969-.038,35.514-.038,7.08,0,16.361-.642,22.241-1.659,5.887-1.025,8.716-1.132,18.449-1.132h24.649c6.675,0,16.637,2.034,24.672,4.297,8.035,2.263,18.151,4.297,21.752,7.829,1.231,1.216,4.679,4.366,5.543,7.225.849,2.821,5.581,20.429,5.581,49.459s-4.733,46.638-5.581,49.459c-.864,2.867-4.312,6.009-5.543,7.225-3.601,3.532-13.716,5.566-21.752,7.829-8.035,2.263-17.998,4.305-24.672,4.305h-24.649c-9.733,0-12.562-.115-18.449-1.132-5.88-1.017-15.161-1.667-22.241-1.667-80.684,0,6.071-.046-87.458.168,1.109,2.837,3.502,9.213,3.639,10.016.168.963-.375,1.468-2.882,1.552-2.508.084-3.723,0-6.277-2.271-1.973-1.759-5.092-6.315-7.164-9.312h-.008c-14.297.076-27.631,2.072-35.078,2.072-3.456,0-28.289-.696-36.683-.81-8.395-.115-17.134-4.824-19.664-5.979-2.531-1.147-4.037-3.104-7.133-6.896-3.096-3.8-5.749-6.789-7.355-11.614-2.531-7.936-5.635-25.567-5.635-42.945Z" style="fill:#d3d5d6; stroke:#000001; stroke-linecap:round; stroke-miterlimit:10; stroke-width:2px;"/><path d="m21.255,131.578c.248-.115.248-.301,0-.415l-2.592-1.197c-.248-.115-.651-.115-.9,0l-2.592,1.197c-.248.115-.248.301,0,.415l2.592,1.197c.248.115.651.115.9,0l2.592-1.197Z" style="fill:none; stroke:#000001; stroke-miterlimit:10; stroke-width:.5px;"/><path d="m21.255,20.722c.248.115.248.301,0,.415l-2.592,1.197c-.248.115-.651.115-.9,0l-2.592-1.197c-.248-.115-.248-.301,0-.415l2.592-1.197c.248-.115.651-.115.9,0l2.592,1.197Z" style="fill:none; stroke:#000001; stroke-miterlimit:10; stroke-width:.5px;"/><path d="m37.839,35.698c-.775,0-1.404.634-1.404,1.415s.629,1.415,1.404,1.415h5.932c.775,0,1.404-.634,1.404-1.415,0-.782-.629-1.415-1.404-1.415h-5.932Z" style="fill:none; stroke:#000001; stroke-linecap:round; stroke-linejoin:round; stroke-width:.5px;"/><line x1="40.805" y1="35.698" x2="40.805" y2="38.529" style="fill:none; stroke:#000001; stroke-linecap:round; stroke-linejoin:round; stroke-width:.5px;"/><path d="m37.839,114.565c-.775,0-1.404.634-1.404,1.415s.629,1.415,1.404,1.415h5.932c.775,0,1.404-.634,1.404-1.415,0-.782-.629-1.415-1.404-1.415h-5.932Z" style="fill:none; stroke:#000001; stroke-linecap:round; stroke-linejoin:round; stroke-width:.5px;"/><line x1="40.805" y1="114.565" x2="40.805" y2="117.396" style="fill:none; stroke:#000001; stroke-linecap:round; stroke-linejoin:round; stroke-width:.5px;"/><path d="m-113.515,139.407c10.983.065,84.635.126,129.284-1.288,24.679-.782,68.222-2.893,68.222-2.893" style="fill:none; stroke:#000001; stroke-linecap:round; stroke-linejoin:round; stroke-width:.5px;"/><path d="m9.288,145.03s.339-3.619.339-6.717c-.923-6.73-.012-4.06.616-12.527" style="fill:none; stroke:#000001; stroke-linecap:round; stroke-linejoin:round; stroke-width:.5px;"/><path d="m-113.515,13.129c27.384-.161,46.535.059,54.765.179,41.287.003,54.67.48,74.52,1.109,24.679.782,68.222,2.893,68.222,2.893" style="fill:none; stroke:#000001; stroke-linecap:round; stroke-linejoin:round; stroke-width:.5px;"/><path d="m9.288,7.505s.339,3.619.339,6.717c-.92,6.708-.018,4.077.61,12.445" style="fill:none; stroke:#000001; stroke-linecap:round; stroke-linejoin:round; stroke-width:.5px;"/><path d="m77.615,29.097c2.19,2.456,1.777,4.913,1.789,6.291.048,5.604.165,21.35.165,40.879s-.117,35.275-.165,40.879c-.012,1.379.401,3.835-1.789,6.291" style="fill:none; stroke:#000001; stroke-linecap:round; stroke-linejoin:round; stroke-width:.5px;"/><path d="m-111.698,10.08h.217s40.428.091,45.97.137c1.012.008,3.056.033,5.756.07,12.975.005,28.97-.036,35.512-.036,7.085,0,16.364-.647,22.248-1.666,5.885-1.019,8.714-1.132,18.446-1.132h24.648c6.677,0,16.634,2.037,24.669,4.3,8.035,2.263,18.157,4.299,21.753,7.832,1.234,1.212,4.679,4.361,5.542,7.223.85,2.82,5.584,20.427,5.584,49.46s-4.734,46.64-5.584,49.46c-.863,2.862-4.308,6.01-5.542,7.223-3.597,3.533-13.718,5.569-21.753,7.832-8.035,2.263-17.992,4.3-24.669,4.3h-24.648c-9.732,0-12.562-.113-18.446-1.132-5.885-1.019-15.163-1.666-22.248-1.666-80.682,0,6.073-.042-87.454.171" style="fill:none; stroke:#000001; stroke-linecap:round; stroke-miterlimit:10; stroke-width:.5px;"/><path d="m23.909,125.48c.456,1.34,1.042,2.932,1.582,4.025,1.104,2.233,1.807,3.337,7.228,3.137s37.746-2.084,43.803-2.61c6.057-.526,12.579-1.276,14.875-3.714,2.296-2.439,2.725-4.838,2.725-4.838" style="fill:none; stroke:#000001; stroke-linecap:round; stroke-linejoin:round; stroke-width:.5px;"/><polyline points="59.041 33.793 59.041 76.268 59.041 118.743" style="fill:none; stroke:#000001; stroke-linecap:round; stroke-linejoin:round; stroke-width:.5px;"/><polyline points="23.385 32.219 23.385 76.268 23.385 120.384" style="fill:none; stroke:#000001; stroke-linecap:round; stroke-linejoin:round; stroke-width:.5px;"/><polyline points="5.383 31.623 5.383 76.268 5.383 120.912" style="fill:none; stroke:#000001; stroke-linecap:round; stroke-linejoin:round; stroke-width:.5px;"/><path d="m79.404,35.388c2.573.439,4.574.981,6.283,1.626.696.263.957.361,1.21,1.666,2.572,13.047,3.184,26.123,3.184,37.587s-.612,24.541-3.184,37.587c-.254,1.305-.514,1.403-1.21,1.666-1.708.645-3.709,1.187-6.283,1.626" style="fill:none; stroke:#000001; stroke-linecap:round; stroke-linejoin:round; stroke-width:.5px;"/><path d="m79.404,35.388c-1.282-.219-2.705-.412-4.305-.579-4.666-.488-10.118-.695-16.509-1.016-13.727-.691-35.751-1.706-53.207-2.169-30.268-.803-41.621-.875-60.214-.868-15.029-.006-26.421-.01-26.421-.01-3.339,0-9.151.285-17.166-1.6" style="fill:none; stroke:#000001; stroke-linecap:round; stroke-linejoin:round; stroke-width:.5px;"/><path d="m79.404,117.147c-1.282.219-2.705.412-4.305.579-4.666.488-10.118.695-16.509,1.016-13.727.691-35.751,1.706-53.207,2.169-38.271,1.016-44.693.862-86.634.878-3.339,0-9.151-.285-17.166,1.6" style="fill:none; stroke:#000001; stroke-linecap:round; stroke-linejoin:round; stroke-width:.5px;"/><polyline points="75.097 117.726 75.097 76.268 75.097 34.809" style="fill:none; stroke:#000001; stroke-linecap:round; stroke-linejoin:round; stroke-width:.5px;"/><path d="m93.902,30.272l-1.775,1.947c-.467.512-.666,1.215-.537,1.896.851,4.512,4.007,22.564,4.007,42.154,0,19.589-3.156,37.642-4.007,42.154-.129.681.07,1.384.537,1.896l1.775,1.947" style="fill:none; stroke:#000001; stroke-linecap:round; stroke-linejoin:round; stroke-width:.5px;"/><path d="m21.134,26.966c.452-1.321,1.023-2.867,1.552-3.936,1.104-2.233,1.807-3.337,7.228-3.137s40.552,2.084,46.608,2.61,12.579,1.276,14.875,3.714,2.725,4.838,2.725,4.838" style="fill:none; stroke:#000001; stroke-linecap:round; stroke-linejoin:round; stroke-width:.5px;"/><path d="m80.965,22.951s.401,1.686-.784,4.253c-.971,2.105-2.567,2.133-7.099,1.902-49.698-2.526-84.077-3.147-128.424-3.149-18.223.076-37.503.16-39.332.16-2.797,0-3.385,1.873-3.745,3.027-5.615,17.982-5.697,46.642-5.696,47.122,0,.48.081,29.141,5.696,47.122.36,1.154.949,3.027,3.745,3.027,36.939,0,85.235,1.205,167.755-2.989,4.532-.23,6.127-.202,7.099,1.902,1.185,2.567.784,4.253.784,4.253" style="fill:none; stroke:#000001; stroke-linecap:round; stroke-linejoin:round; stroke-width:.5px;"/><path d="m5.097,26.546c-.349-3.359-1.076-6.533-1.572-7.437-.703-1.282-2.12-2.21-4.882-2.357-4.306-.229-21.07-.346-29.965-.346-8.512,0-18.418.025-26.951-.003-9.112-.03-18.883-.03-27.807.009,0,0-10.964.042-23.536.19-12.572.148-22.894.578-26.384.719-3.491.141-6.131.822-9.028,3.567-2.897,2.745-9.153,9.065-11.457,17.932-2.304,8.867-3.189,17.377-3.189,37.447,0,20.07.886,28.58,3.189,37.447,2.304,8.867,8.56,15.188,11.457,17.932,2.897,2.745,5.537,3.426,9.028,3.567,3.491.141,13.812.571,26.384.719,12.572.148,23.536.19,23.536.19,14.521.064,12.02.007,54.758.007,8.895,0,25.658-.117,29.965-.346,2.762-.147,4.179-1.075,4.882-2.357.5-.911,1.234-4.124,1.58-7.51" style="fill:none; stroke:#000001; stroke-linecap:round; stroke-linejoin:round; stroke-width:.5px;"/><path d="m71.566,76.268v-2.369c-10.158-.05-9.647,2.035-9.647,2.369,0,.334-.512,2.418,9.647,2.369v-2.369Z" style="fill:none; stroke:#000001; stroke-linecap:round; stroke-linejoin:round; stroke-width:.5px;"/><path d="m.673,76.268v-32.454c0-2.02-1.615-3.67-3.635-3.715-38.802-.867-45.925-.836-70.988-.872-1.86-.003-3.433,1.361-3.688,3.203-1.52,10.974-2.4,22.977-2.296,33.838-.104,10.862.776,22.864,2.296,33.838.255,1.843,1.828,3.206,3.688,3.203,25.063-.035,32.186-.005,70.988-.872,2.02-.045,3.635-1.695,3.635-3.715v-32.454Z" style="fill:none; stroke:#000001; stroke-linecap:round; stroke-linejoin:round; stroke-width:.5px;"/><path d="m56.081,76.268v-30.435c0-2.023-1.615-3.675-3.638-3.717-7.516-.158-14.619-.393-22.262-.703-1.011-.041-1.996.334-2.726,1.036-.73.701-1.143,1.67-1.143,2.682v31.137s0,31.137,0,31.137c0,1.012.413,1.98,1.143,2.682.73.701,1.715,1.077,2.726,1.036,7.643-.311,14.746-.545,22.262-.703,2.023-.043,3.638-1.694,3.638-3.717v-30.435Z" style="fill:none; stroke:#000001; stroke-linecap:round; stroke-linejoin:round; stroke-width:.5px;"/></g><path d="m197.725,64.337c-.5-.292-.93-.726-1.29-1.302l1.332-.96c.225.408.47.7.738.876.268.176.602.264,1.002.264.432,0,.804-.085,1.116-.258.312-.172.468-.438.468-.798v-.144c0-.408-.138-.698-.414-.87-.275-.172-.742-.258-1.397-.258h-.601v-1.44h.576c.488,0,.886-.072,1.194-.216.308-.144.462-.416.462-.816v-.132c0-.288-.135-.502-.402-.642s-.578-.21-.93-.21c-.336,0-.639.086-.906.258-.269.172-.49.426-.666.762l-1.26-.756c.288-.616.672-1.07,1.151-1.362.48-.292,1.064-.438,1.753-.438.84,0,1.525.2,2.058.6s.798.996.798,1.788c0,.416-.084.774-.252,1.074-.168.3-.404.546-.708.738.384.2.674.456.87.768s.294.696.294,1.152c0,.592-.146,1.096-.438,1.512-.292.417-.682.729-1.17.936-.487.208-1.023.312-1.607.312-.681,0-1.271-.146-1.771-.438Z" style="fill:#000001; stroke-width:0px;"/><path d="m204.74,64.247c-.496-.352-.862-.84-1.099-1.464-.235-.624-.354-1.344-.354-2.16v-.576c0-.816.118-1.536.354-2.16.236-.624.603-1.112,1.099-1.464.496-.352,1.124-.528,1.884-.528.752,0,1.378.174,1.878.522s.868.834,1.104,1.458c.235.624.354,1.348.354,2.172v.576c0,.816-.118,1.534-.354,2.154-.236.62-.604,1.108-1.104,1.464s-1.126.534-1.878.534c-.76,0-1.388-.176-1.884-.528Zm3.126-1.698c.22-.468.33-1.094.33-1.878v-.672c0-.8-.108-1.43-.324-1.89-.216-.46-.632-.69-1.248-.69-.624,0-1.042.23-1.254.69-.212.46-.318,1.09-.318,1.89v.672c0,.784.11,1.41.33,1.878.22.468.634.702,1.242.702s1.021-.234,1.242-.702Z" style="fill:#000001; stroke-width:0px;"/><path d="m211.315,59.345c-.279-.172-.5-.402-.659-.69-.16-.288-.24-.592-.24-.912,0-.344.084-.658.252-.942.168-.284.392-.506.672-.666s.584-.24.912-.24c.336,0,.646.082.93.246s.508.388.672.672c.164.284.246.594.246.93s-.082.648-.246.936-.386.514-.666.678c-.279.164-.592.246-.936.246s-.656-.086-.937-.258Zm1.519-1.02c.156-.156.234-.35.234-.582s-.078-.426-.234-.582c-.156-.156-.351-.234-.582-.234-.224,0-.414.08-.57.24-.155.16-.233.352-.233.576s.078.416.233.576c.156.16.347.24.57.24.231,0,.426-.078.582-.234Z" style="fill:#000001; stroke-width:0px;"/><path d="m197.725,96.084c-.5-.292-.93-.726-1.29-1.302l1.332-.96c.225.408.47.7.738.876.268.176.602.264,1.002.264.432,0,.804-.085,1.116-.258.312-.172.468-.438.468-.798v-.144c0-.408-.138-.698-.414-.87-.275-.172-.742-.258-1.397-.258h-.601v-1.44h.576c.488,0,.886-.072,1.194-.216.308-.144.462-.416.462-.816v-.132c0-.288-.135-.502-.402-.642s-.578-.21-.93-.21c-.336,0-.639.086-.906.258-.269.172-.49.426-.666.762l-1.26-.756c.288-.616.672-1.07,1.151-1.362.48-.292,1.064-.438,1.753-.438.84,0,1.525.2,2.058.6s.798.996.798,1.788c0,.416-.084.774-.252,1.074-.168.3-.404.546-.708.738.384.2.674.456.87.768s.294.696.294,1.152c0,.592-.146,1.096-.438,1.512-.292.417-.682.729-1.17.936-.487.208-1.023.312-1.607.312-.681,0-1.271-.146-1.771-.438Z" style="fill:#000001; stroke-width:0px;"/><path d="m204.74,95.994c-.496-.352-.862-.84-1.099-1.464-.235-.624-.354-1.344-.354-2.16v-.576c0-.816.118-1.536.354-2.16.236-.624.603-1.112,1.099-1.464.496-.352,1.124-.528,1.884-.528.752,0,1.378.174,1.878.522s.868.834,1.104,1.458c.235.624.354,1.348.354,2.172v.576c0,.816-.118,1.534-.354,2.154-.236.62-.604,1.108-1.104,1.464s-1.126.534-1.878.534c-.76,0-1.388-.176-1.884-.528Zm3.126-1.698c.22-.468.33-1.094.33-1.878v-.672c0-.8-.108-1.43-.324-1.89-.216-.46-.632-.69-1.248-.69-.624,0-1.042.23-1.254.69-.212.46-.318,1.09-.318,1.89v.672c0,.784.11,1.41.33,1.878.22.468.634.702,1.242.702s1.021-.234,1.242-.702Z" style="fill:#000001; stroke-width:0px;"/><path d="m211.315,91.092c-.279-.172-.5-.402-.659-.69-.16-.288-.24-.592-.24-.912,0-.344.084-.658.252-.942.168-.284.392-.506.672-.666s.584-.24.912-.24c.336,0,.646.082.93.246s.508.388.672.672c.164.284.246.594.246.93s-.082.648-.246.936-.386.514-.666.678c-.279.164-.592.246-.936.246s-.656-.086-.937-.258Zm1.519-1.02c.156-.156.234-.35.234-.582s-.078-.426-.234-.582c-.156-.156-.351-.234-.582-.234-.224,0-.414.08-.57.24-.155.16-.233.352-.233.576s.078.416.233.576c.156.16.347.24.57.24.231,0,.426-.078.582-.234Z" style="fill:#000001; stroke-width:0px;"/><line x1="112.609" y1="77.777" x2="114.609" y2="77.777" style="fill:none; stroke:#f2a900; stroke-miterlimit:10;"/><line x1="118.597" y1="77.777" x2="196.366" y2="77.777" style="fill:none; stroke:#f2a900; stroke-dasharray:0 0 3.988 3.988; stroke-miterlimit:10;"/><line x1="198.36" y1="77.777" x2="200.36" y2="77.777" style="fill:none; stroke:#f2a900; stroke-miterlimit:10;"/><line x1="192.587" y1="37.849" x2="109" y2="77.696" style="fill:none; stroke:#000001; stroke-linecap:round; stroke-miterlimit:10; stroke-width:2px;"/><path d="m186.684,49.885c1.152,5.835,1.94,11.865,2.33,18.046" style="fill:none; stroke:#f2a900; stroke-miterlimit:10; stroke-width:1.25px;"/><polygon points="184.349 51.101 185.942 46.377 189.238 50.117 184.349 51.101" style="fill:#f2a900; stroke-width:0px;"/><polygon points="186.444 67.359 189.193 71.518 191.421 67.057 186.444 67.359" style="fill:#f2a900; stroke-width:0px;"/><line x1="192.587" y1="117.543" x2="109" y2="77.696" style="fill:none; stroke:#000001; stroke-linecap:round; stroke-miterlimit:10; stroke-width:2px;"/><path d="m186.684,105.507c1.152-5.835,1.94-11.866,2.33-18.046" style="fill:none; stroke:#f2a900; stroke-miterlimit:10; stroke-width:1.25px;"/><polygon points="189.238 105.274 185.942 109.015 184.349 104.291 189.238 105.274" style="fill:#f2a900; stroke-width:0px;"/><polygon points="191.421 88.335 189.193 83.874 186.444 88.033 191.421 88.335" style="fill:#f2a900; stroke-width:0px;"/></svg>