<?xml version="1.0" encoding="UTF-8"?><svg id="uuid-4db4216f-9121-4863-8ec6-068ffff97a09" xmlns="http://www.w3.org/2000/svg" width="218" height="197.7518" xmlns:xlink="http://www.w3.org/1999/xlink" viewBox="0 0 218 197.7518"><defs><clipPath id="uuid-5db5ac0b-e989-4a58-8405-5382424d8dfa"><rect x="-229.8157" y="5.2557" width="209.8157" height="181.3057" style="fill:none; stroke-width:0px;"/></clipPath><clipPath id="uuid-09f151ac-548c-4767-9200-fe5942448d49"><rect x="326.9064" y="-17.9653" width="189.7815" height="238.0968" style="fill:none; stroke-width:0px;"/></clipPath><clipPath id="uuid-975fbff1-8fc1-4859-92f4-720ad1e281c4"><rect x="548.7635" y="-18.9653" width="189.7815" height="238.0968" style="fill:none; stroke-width:0px;"/></clipPath></defs><path d="m187.0553,109.3035l-6.0598,5.0801c-1.26,1.0498-2.6602,1.8499-4.1501,2.3799-1.9299.6899-3.99.9302-6.03.71-1.3499,7.25-13.97,16.3501-21.5999,13.1899-2.0801-1.5298-4.01-2.7998-5.8201-3.8398l11.47-16.3999,1.8401-2.6401c.1699-.25.1799-.5801.02-.8301l-.0701-.1199c-.0801-.1301-.1799-.23-.3101-.29l-6.01-3.0601-.02-.01c-.1099-.0601-.24-.0898-.3699-.0898-.1802,0-.3601.0601-.52.1699l-3.3799,2.45-11.75,8.49-3.5103,2.54c-.8499.71-1.6299,1.6799-2.22,2.8401-.5999,1.1699-.9099,2.3398-.95,3.3799-2.0601.5701-3.8999,1.6301-5.6199,3.04-1.5.5601-2.6001,1.54-2.8601,2.45,0,0,.01,0,0,.01-1.76,1.3201-2.74,2.9299-2.46,4.27-7.4199,3.3701-14.8999,9.74-22.6799,16.3301-2.02,1.71-4.05,3.4299-6.0801,5.1099-4.5701,3.75-8.3,6.9001-11.55,9.6401-.1199.0999-.23.1899-.3501.3098,0,0,0-.0098-.0098,0-.6401-.3599-1.46-.3298-2.1001.1301l-20.23,14.8201c-.8701.6399-1.0601,1.8699-.4199,2.74l.0298.04,3.6001,4.9199c.1499.22.3501.3899.5601.52.6599.3999,1.52.3899,2.1899-.0901l20.23-14.8198c.3999-.3.6602-.7202.76-1.1902,10.8501-6.5798,23.1899-12.73,33.6702-17.97,3.25-1.6199,6.1499-3.0698,8.71-4.3799h.0098c.7402.6099,1.9102.9299,3.2803.9399l.4299,1.1499c.3999,1.0601,2.3201,1.3201,4.26.5901,1.97-.72,3.23-2.1899,2.8499-3.23l-.3398-.8899c1.3098-.9302,2.21-2.05,2.6199-3.0801,8.8701-5.8,18.26,11.7998,37.78-2.3,12.8201-9.26,15.3-22.5701,13.1599-33.01Zm-65.7798,33.01c-3.2102,1.6799-6.7002,3.3999-10.04,5.0901-3.4001,1.7-7.01,3.48-10.6802,5.3599,7.1501-6.0601,14.02-11.6099,20.2402-14.0601.46.0801.9697.1201,1.5.1101l.5999,1.5601.3401.9299c-.6301.3501-1.28.6699-1.96,1.01Zm17.25-2.3301l-.1201-.1199c1.3599-1.3201,2-2.52,2.0701-3.78l-.01-.02c.01-.46-.03-.9099-.1501-1.4001-.46-1.7898-1.7-2.8699-3.7-3.4897-.74-.2402-1.5698-.4001-2.52-.5103.9302-.7,1.73-1.0598,2.47-1.1199h.01c.3101.53.73.9199,1.26,1.1301.53.21,1.1101.21,1.6902.02,2.0498,1.6799,2.98,6.6299-1,9.2898Z" style="fill:#d3d5d6; stroke-width:0px;"/><polygon points="53.2853 182.1436 4.9831 218.6816 8.4654 224.6311 61.8084 184.3586 53.2853 182.1436" style="fill:#d3d5d6; stroke-width:0px;"/><path d="m147.1723,103.8835c.009-.0007.0196.0072.0286.0065,1.5107.8272,3.4823,1.2441,5.782.8617.1729-.0326.3365-.0642.5096-.0967,1.3465-.2575,2.466-.5413,4.035-1.2528,0,0,.9712-.4259,2.4262-.7104,2.6837-.514,5.0048-.5891,7.9661,3.3302,1.3226-.3732,2.9117-.8327,3.6797-1.541.0428-.0308,1.6375-.1726,1.6791-.2125l-1.6791.2125,9.5634-7.386c-.4379-.3719-1.9792-1.8138-2.7651-2.2112-1.1036-.5527-2.1347-1.0476-3.121-1.4829-.4926-.2129-.9748-.4178-1.4363-.6063-.8652-.4363-1.6881-.8306-2.4776-1.1824-7.2068-2.7128-9.9542-3.0012-12.1853-2.8153-1.9455.162-3.492.6811-4.9359,1.2007-2.3449.8397-5.2862,4.1979-8.5228,6.3191-2.8753,1.8824-1.8612,5.7281,1.4535,7.5669Z" style="fill:#d3d5d6; stroke-width:0px;"/><g style="clip-path:url(#uuid-5db5ac0b-e989-4a58-8405-5382424d8dfa);"><path d="m13.5817,106.0702c-8.9574-4.393-49.1787-22.8506-57.0432-27.1752-12.1953-7.8891-3.3589-15.7997-20.1608-22.7048-20.9021-10.1592-58.8268-28.6145-79.4744-38.6515,0,0-2.8384-1.3804-2.8384-1.3804-.4663-.2175-.9614-.4883-1.4039-.6619-5.6611-2.1671-9.0868-1.0099-7.6513,5.7877-2.9211-8.112,3.4329-9.0505,9.4251-5.9177,0,0,2.8409,1.3742,2.8409,1.3742,20.5721,9.9441,58.7079,28.4056,79.5455,38.4802,6.795,2.9511,10.8046,5.8415,13.0581,13.2561,1.2329,5.1041,5.332,8.802,9.9624,10.9431,5.4295,2.5376,47.8304,22.7364,54.1681,25.7466,0,0-.4281.9036-.4281.9036h0Z" style="fill:#000001; stroke-width:0px;"/></g><path d="m263.9897,111.0157c-11.2957-5.5428-62.1006-28.8871-72.0222-34.3291-4.6069-2.8881-8.3773-7.2713-9.6771-12.6375-2.8238-9.1703-7.4112-12.3106-15.8085-16.0412C140.0808,35.1824,92.1753,11.884,66.0953-.7869c-.0001,0-3.5853-1.7428-3.5853-1.7428-.5916-.2759-1.2083-.614-1.7795-.8384-7.192-2.7871-11.6597-1.2104-9.7059,7.4166-3.5285-10.1986,4.3241-11.2707,11.8554-7.3704-.0001,0,3.5875,1.7365,3.5875,1.7365,27.7109,13.4052,76.0866,36.8342,104.052,50.362,9.2347,4.1863,11.0295,9.7746,14.1621,18.5964,1.681,3.5146,4.6563,6.2471,7.8992,8.3617,2.032,1.3572,4.8478,2.5205,7.0206,3.5808,0,0,7.2079,3.4084,7.2079,3.4084l57.6086,27.3879-.4282.9038h0Z" style="fill:#000001; stroke-width:0px;"/><path d="m86.6638,8.7489c-7.9741,3.1896-19.3451,5.6287-32.3404,0C41.328,3.1201-4.0886-21.6605-4.0886-21.6605" style="fill:none; stroke:#000001; stroke-miterlimit:10;"/><line x1="146.1477" y1="106.1633" x2="127.0844" y2="96.6204" style="fill:none; stroke:#000001; stroke-miterlimit:10;"/><path d="m68.8828,28.8963c-2.7175-1.3818-6.1227-1.2157-8.7857.4338l-25.4357,15.7523c-.4258.2665-.7727.6127-1.0254,1.0091-.2523.3905-.4043.8375-.4399,1.2998-.0853,1.1083.522,2.1363,1.5728,2.6665l41.6692,21.4984" style="fill:none; stroke:#000001; stroke-miterlimit:10;"/><path d="m156.7102,107.8919l10.0214,5.1647c4.7429,2.1225,10.2824,1.3569,14.2597-1.9855l14.5273-12.1746c1.0083-.8403,1.5125-1.998,1.5561-3.1557" style="fill:none; stroke:#000001; stroke-miterlimit:10; stroke-width:.5px;"/><polyline points="76.5564 68.1827 33.636 46.0916 33.3087 45.9274" style="fill:none; stroke:#000001; stroke-miterlimit:10; stroke-width:.5px;"/><line x1="146.1477" y1="103.191" x2="130.1087" y2="94.7171" style="fill:none; stroke:#000001; stroke-miterlimit:10; stroke-width:.5px;"/><line x1="171.5995" y1="104.4809" x2="181.9737" y2="96.5874" style="fill:none; stroke:#000001; stroke-miterlimit:10;"/><path d="m173.8405,92.7945c3.7621-1.1538,8.1092,1.0582,9.1443,2.762" style="fill:none; stroke:#000001; stroke-miterlimit:10;"/><path d="m181.5082,96.3158c3.1591-2.0396,1.2165-4.9801-1.7079-5.9773-1.3761-.5347-2.8768-.762-4.3729-.7676-1.4956.0051-3.009.2505-4.4067.833,1.3638-.6592,2.8784-.9941,4.3992-1.083,3.3401-.2836,9.8034,1.3343,8.2623,5.9104-.349.7954-.9484,1.4126-1.5963,1.9009l-.5776-.8164h0Z" style="fill:#000001; stroke-width:0px;"/><path d="m158.695,102.7696c.2598,2.8443,3.6421,2.8888,5.8655,2.9856,2.4309.0329,4.943-.3442,6.9224-1.8108,0,0,.594.8044.594.8044-2.0735,1.7114-4.9583,2.1755-7.5542,1.9868-2.3091-.0942-6.3479-.8355-5.8276-3.9661h0Z" style="fill:#000001; stroke-width:0px;"/><path d="m74.3859,42.3217c1.1592-.6777,1.9124-1.5578,2.0347-2.5403.2923-2.3479-3.1021-4.3959-7.579-4.5769-2.7913-.1128-5.3545.5274-6.9512,1.5978l-.0394.0241" style="fill:none; stroke:#000001; stroke-miterlimit:10; stroke-width:.5px;"/><path d="m50.797,43.7728c-1.1592.6777-1.9132,1.5642-2.0355,2.5467-.2915,2.3415,3.1029,4.3895,7.5738,4.5702,2.7973.1131,5.3606-.5271,6.9572-1.5976l.0394-.0241" style="fill:none; stroke:#000001; stroke-miterlimit:10; stroke-width:.5px;"/><line x1="62.0482" y1="36.7044" x2="50.6002" y2="43.8976" style="fill:none; stroke:#000001; stroke-miterlimit:10; stroke-width:.5px;"/><line x1="63.1331" y1="49.3904" x2="74.581" y2="42.1972" style="fill:none; stroke:#000001; stroke-miterlimit:10;"/><path d="m61.4792,39.8122l.1971-.1203c1.6016-1.0125,4.0928-1.6107,6.7935-1.5016,3.468.1402,6.2863,1.4019,7.2461,3.0565" style="fill:none; stroke:#000001; stroke-miterlimit:10;"/><path d="m49.0892,47.8332c.3043-.3468.6839-.6649,1.1381-.9479l.1979-.1267" style="fill:none; stroke:#000001; stroke-miterlimit:10;"/><line x1="61.6762" y1="39.6919" x2="50.2283" y2="46.8852" style="fill:none; stroke:#000001; stroke-miterlimit:10;"/><path d="m74.1335,41.89c1.3295-.6769,2.4811-2.1036,1.5612-3.5486-1.9321-2.6216-5.9224-3.1158-9.0275-2.9449-1.6719.1358-3.367.5292-4.8162,1.4298,1.4043-.9722,3.0996-1.4578,4.7905-1.6785,3.3302-.3237,7.422-.0275,9.6849,2.7892,1.2848,1.7273-.0484,3.9551-1.6882,4.8162.0001,0-.5047-.8632-.5047-.8632h0Z" style="fill:#000001; stroke-width:0px;"/><path d="m50.797,43.7728c-2.5543,1.7474-2.2625,4.1672.4962,5.4416,2.1973,1.0895,4.7613,1.2929,7.1801,1.0723,1.6272-.1858,3.2224-.5855,4.5981-1.4453l.521.8535c-3.0027,1.9502-6.8542,2.1-10.2407,1.2562-3.7659-.7737-7.4093-4.7303-2.5547-7.1783h0Z" style="fill:#000001; stroke-width:0px;"/><path d="m110.1535,20.1726l-28.6127,18.2058c-1.5685.9959-2.6017,2.6453-2.8196,4.4877l-3.2922,36.0309c-.2134,2.3351.9927,4.5709,3.0612,5.6751l29.1673,15.5692c5.5831,3.1308,8.0417.7843,8.0417.7843,2.6662,1.7761,6.7462-1.3859,6.7462-1.3859l59.16-37.23" style="fill:none; stroke:#000001; stroke-miterlimit:10;"/><path d="m115.6971,100.925s2.6657-.9626,3.5777-5.1841c.912-4.2216,3.482-24.9479,3.8136-28.6786.3316-3.7307-.7716-10.1144-7.3913-13.6794-6.6197-3.5649-29.0333-14.84-29.0333-14.84,0,0-5.0864-2.261-7.6272,2.9733" style="fill:none; stroke:#000001; stroke-miterlimit:10;"/><path d="m82.7829,81.8794l27.0084,14.6133c2.2422,1.2132,5.0088-.1518,5.4002-2.671,1.3078-8.4168,3.7803-24.4749,4.0833-27.5056.4145-4.1453-1.5752-6.7982-3.9794-8.0418-2.1352-1.1044-22.3378-11.3756-29.9313-15.2868-1.0656-.5489-2.3421.1501-2.465,1.3425l-3.277,31.8109c-.222,2.3798,1.0308,4.6542,3.1609,5.7385Z" style="fill:none; stroke:#000001; stroke-miterlimit:10;"/><line x1="117.9488" y1="54.8162" x2="146.5792" y2="37.8597" style="fill:none; stroke:#000001; stroke-miterlimit:10; stroke-width:.5px;"/><line x1="122.901" y1="62.9891" x2="156.9011" y2="42.8523" style="fill:none; stroke:#000001; stroke-miterlimit:10; stroke-width:.5px;"/><path d="m160.6553,75.4939l33.936,16.1203c1.6868.8029,2.5519,2.471,2.4835,4.1267l-.0249,3.7719c-.1245,1.0394-.6286,2.0478-1.5312,2.8071l-14.5273,12.1746c-3.9773,3.3362-9.5168,4.108-14.2597,1.9793l-12.2654-6.1431" style="fill:none; stroke:#000001; stroke-miterlimit:10;"/><line x1="80.5335" y1="79.4687" x2="115.9814" y2="58.6811" style="fill:none; stroke:#000001; stroke-miterlimit:10; stroke-width:.5px;"/><line x1="83.9154" y1="36.8676" x2="68.8875" y2="28.9037" style="fill:none; stroke:#000001; stroke-miterlimit:10;"/><ellipse cx="139.9011" cy="70.6491" rx="8.4429" ry="5.0899" transform="translate(21.6243 173.4801) rotate(-67.7975)" style="fill:none; stroke:#000001; stroke-miterlimit:10;"/><path d="m142.1729,62.6155h.009c1.9155,1.5721,2.2678,5.4302.7047,9.2521-1.5631,3.8309-4.5176,6.3337-6.9842,6.1078h-.009" style="fill:none; stroke:#000001; stroke-miterlimit:10;"/><path d="m119.1554,128.8376c-1.77,1.33-2.76,2.94-2.48,4.29.01.11.04.22.08.33l.01.04c.03.08.07.16.11.26l1.21,3.21c.36.96,1.35,1.59,2.71,1.84.46.08.97.12,1.5.11,1.25-.02,2.65-.28,4.08-.82.53-.2,1.02-.43,1.48-.66,1.75-.93,3.05-2.19,3.76-3.36.78-1.3,1.63-2.42,2.48-3.31.93-.7,1.73-1.06,2.47-1.12" style="fill:none; stroke:#000001; stroke-miterlimit:10;"/><path d="m139.5254,130.7976c2.05,1.68,2.98,6.63-1,9.29" style="fill:none; stroke:#000001; stroke-miterlimit:10;"/><path d="m138.5242,140.0906c-1.4753,1.6315-1.6247,2.6252-2.4073,4.6328-.4147,1.0302-1.3125,2.1421-2.6207,3.0786-.8183.6221-1.7942,1.1655-2.9046,1.5728-1.4977.5686-2.999.8288-4.2997.8065-1.3765-.0119-2.5479-.3299-3.2815-.9476" style="fill:none; stroke:#000001; stroke-miterlimit:10;"/><path d="m122.8905,140.4834c-.7187.6162-1.2851,1.2732-1.6188,1.937" style="fill:none; stroke:#000001; stroke-miterlimit:10; stroke-width:.5px;"/><path d="m119.7939,131.3349c.395,1.0548,2.3045,1.3147,4.265.5805,1.9605-.7341,3.2297-2.1843,2.8347-3.2391l-.6355-1.6971c-.395-1.0548-2.3045-1.3147-4.265-.5805s-3.2297,2.1843-2.8347,3.2391l.6355,1.6971Z" style="fill:none; stroke:#000001; stroke-miterlimit:10;"/><polyline points="129.4526 136.408 129.8302 137.4143 129.909 137.6507 129.9477 137.7072" style="fill:none; stroke:#000001; stroke-miterlimit:10; stroke-width:.5px;"/><polyline points="123.2339 141.4095 122.8905 140.4834 122.2974 138.9196" style="fill:none; stroke:#000001; stroke-miterlimit:10; stroke-width:.5px;"/><path d="m133.4962,147.802l.3382.8882c.3828,1.0443-.8762,2.507-2.8466,3.2332-1.9466.7307-3.8672.4691-4.2596-.5893l-.4363-1.1528" style="fill:none; stroke:#000001; stroke-miterlimit:10;"/><path d="m126.2581,126.9792c.395,1.0548-.8742,2.5049-2.8347,3.2391-1.9605.7341-3.87.4742-4.265-.5805" style="fill:none; stroke:#000001; stroke-miterlimit:10; stroke-width:.5px;"/><path d="m126.2581,126.9792c.395,1.0548-.8742,2.5049-2.8347,3.2391-1.9605.7341-3.87.4742-4.265-.5805" style="fill:none; stroke:#000001; stroke-miterlimit:10; stroke-width:.5px;"/><path d="m116.7651,133.4918c.7721,2.0618,4.5047,2.5699,8.3372,1.1348,2.2229-.8324,3.9912-2.1357,4.9336-3.486,0,0,.5865-2.3429,3.1365-4.0562" style="fill:none; stroke:#000001; stroke-miterlimit:10; stroke-width:.5px;"/><path d="m76.0054,164.5176c.12-.11.24-.21.36-.31,3.25-2.74,6.98-5.89,11.55-9.64,2.03-1.68,4.06-3.4,6.08-5.11,7.78-6.59,15.26-12.96,22.68-16.33" style="fill:none; stroke:#000001; stroke-miterlimit:10;"/><path d="m-36.3446,249.9576c1.51-1.12,65.8-49.86,89.62-67.71" style="fill:none; stroke:#000001; stroke-miterlimit:10;"/><path d="m-32.2746,255.4676c.38-.28,65.89-49.93,89.72-67.78" style="fill:none; stroke:#000001; stroke-miterlimit:10;"/><path d="m120.7915,138.8096c-6.221,2.4529-13.0834,7.9985-20.2386,14.0555" style="fill:none; stroke:#000001; stroke-miterlimit:10;"/><path d="m100.5529,152.8651c3.6746-1.8716,7.2838-3.657,10.6805-5.3591,3.3446-1.6873,6.8312-3.4095,10.0383-5.0856.6793-.3404,1.3304-.6615,1.9622-1.0109,2.5754-1.3268,6.902-3.0888,6.4662-3.7588,0-.3522-1.1134-.2356-1.844-.2125" style="fill:none; stroke:#000001; stroke-miterlimit:10;"/><path d="m77.1054,165.6876c7.55-4.54,15.69-8.86,23.45-12.82" style="fill:none; stroke:#000001; stroke-miterlimit:10;"/><path d="m134.0954,130.7676c.95.11,1.78.27,2.52.51,2,.62,3.24,1.7,3.7,3.49.12.49.16.94.15,1.4l.01.02c-.11,1.93-1.54,3.72-4.85,5.99-.94.64-2.02,1.32-3.28,2.04,0,.02-.03.02-.05.03-.74.45-1.55.9-2.43,1.37-.03.02-.05.04-.11.06-1.93,1.07-4.16,2.24-6.75,3.56-2.56,1.31-5.46,2.76-8.71,4.38-10.48,5.24-22.82,11.39-33.67,17.97" style="fill:none; stroke:#000001; stroke-miterlimit:10;"/><rect x="52.2664" y="171.0845" width="29.0055" height="10.0766" rx="1.9633" ry="1.9633" transform="translate(-91.1819 73.5128) rotate(-36.229)" style="fill:none; stroke:#000001; stroke-miterlimit:10;"/><line x1="171.5995" y1="104.4809" x2="181.9737" y2="96.5874" style="fill:none; stroke:#000001; stroke-miterlimit:10;"/><path d="m181.5082,96.3158c2.0883-1.2573,2.2128-3.5035.244-4.9802-1.7504-1.3352-4.0734-1.8518-6.3197-1.8909,2.2471-.1189,4.6238.1965,6.6152,1.4875,2.4932,1.5904,2.4236,4.5185.038,6.1999.0001,0-.5775-.8164-.5775-.8164h0Z" style="fill:#000001; stroke-width:0px;"/><path d="m159.7077,104.8219c3.6274,1.8723,8.5509,1.6758,11.7752-.8773,0-.0002.594.8043.594.8043-3.5639,2.4263-8.7671,2.3148-12.3691.073h0Z" style="fill:#000001; stroke-width:0px;"/><path d="m153.4925,104.6549s10.3294-5.7261,14.4272,1.367" style="fill:none; stroke:#000001; stroke-linecap:round; stroke-linejoin:round;"/><path d="m136.1169,144.7234c8.8671-5.8021,18.2551,11.7928,37.7755-2.303,12.821-9.2581,15.3011-22.5655,13.166-33.0089" style="fill:none; stroke:#000001; stroke-miterlimit:10;"/><path d="m181.1754,97.1949c-.4404-.3769-1.9832-1.8178-2.7648-2.2138-1.6498-.8359-3.1642-1.525-4.5598-2.0878h0c-11.0498-5.5987-15.7005-4.2089-19.5942-2.8048-2.3495.8473-5.2875,4.2068-8.5216,6.3246-4.2895,2.8089.0716,9.9709,7.7656,8.3412" style="fill:none; stroke:#000001; stroke-linecap:round; stroke-linejoin:round;"/><path d="m176.8468,116.8711c.0086,4.9957-.9584,11.1473-11.1014,16.8065-9.06,5.05-16.01-2.9-22.47-6.67" style="fill:none; stroke:#000001; stroke-miterlimit:10; stroke-width:.5px;"/><path d="m134.5054,126.1376c-.44.25-.88.57-1.33.95" style="fill:none; stroke:#000001; stroke-miterlimit:10; stroke-width:.5px;"/><path d="m149.2154,130.7676c-2.1-1.54-4.05-2.82-5.87-3.87" style="fill:none; stroke:#000001; stroke-miterlimit:10;"/><path d="m129.9754,122.9376c-3.06.26-5.63,1.53-7.98,3.46" style="fill:none; stroke:#000001; stroke-miterlimit:10;"/><path d="m149.2172,130.7658c7.6312,3.1624,20.2501-5.9379,21.601-13.1875" style="fill:none; stroke:#000001; stroke-miterlimit:10;"/><path d="m138.5219,120.9498l16.9719-14.2046c.366-.3065.9191-.2145,1.1661.1941l.0701.116c.1566.259.1489.5853-.0198.8366l-14.8703,21.267c-1.2314,1.427-2.7587,2.1136-4.0085,1.6242-1.8635-.7298-2.4043-3.798-1.208-6.853.4719-1.205,1.1436-2.228,1.8984-2.9803Z" style="fill:none; stroke:#000001; stroke-miterlimit:10;"/><line x1="134.3055" y1="114.623" x2="141.7504" y2="118.2468" style="fill:none; stroke:#000001; stroke-miterlimit:10;"/><ellipse cx="139.7496" cy="125.415" rx="3.0072" ry="1.6344" transform="translate(-16.182 230.0296) rotate(-75.7633)" style="fill:none; stroke:#000001; stroke-miterlimit:10;"/><path d="m127.6154,123.3576c.04-1.04.35-2.21.95-3.38.59-1.16,1.37-2.13,2.22-2.84l17.51-12.66" style="fill:none; stroke:#000001; stroke-miterlimit:10;"/><path d="m132.5988,118.6047c-.0566-.0278-.1159-.0497-.1775-.0654-.875-.222-1.9154.9031-2.3238,2.5129-.4084,1.6098-.0303,3.0948.8447,3.3168" style="fill:none; stroke:#000001; stroke-miterlimit:10;"/><line x1="138.1554" y1="121.3376" x2="132.5954" y2="118.6076" style="fill:none; stroke:#000001; stroke-miterlimit:10;"/><line x1="135.9954" y1="126.8676" x2="130.7654" y2="124.3076" style="fill:none; stroke:#000001; stroke-miterlimit:10;"/><line x1="152.9829" y1="104.7517" x2="156.348" y2="106.6485" style="fill:none; stroke:#000001; stroke-miterlimit:10;"/><rect x="4.9831" y="2.3091" width="213.0169" height="191.9407" style="fill:none; stroke-width:0px;"/><path d="m173.8508,92.8933c-7.9519-3.2067-12.0481-2.3138-15.3604-1.1193-2.3495.8473-1.7858,1.4195-8.3262,5.0352-3.9335,2.1745-4.3922,8.7469,3.3365,7.9459" style="fill:none; stroke:#000001; stroke-linecap:round; stroke-linejoin:round; stroke-width:.5px;"/><g style="clip-path:url(#uuid-09f151ac-548c-4767-9200-fe5942448d49);"><path d="m-62.3982,97.5959c0-21.0205,3.7547-42.3462,6.8158-51.9456,1.9422-5.8354,5.1512-9.4513,8.8966-14.0476,3.7452-4.5869,5.5673-6.9544,8.6282-8.3416,3.0611-1.3964,13.6314-7.0932,23.7856-7.2319,10.1542-.1387,40.1914-.9803,44.3715-.9803,9.0077,0,25.136,2.4137,42.4296,2.5062.934-1.3594,2.0623-2.9871,3.2275-4.6054.0278-.037.0555-.0833.0926-.1295,1.8956-2.6356,3.8933-5.225,5.3546-6.529,3.0887-2.7466,4.5592-2.8576,7.5925-2.7466,3.0331.1017,3.6899.7121,3.4865,1.8773-.1666.971-3.0611,8.6838-4.4022,12.1148h.2592s48.9029.111,55.6076.1665c6.7047.0555,50.8265.7121,57.6884.934,6.8714.2127,14.2327.4346,16.7018.5456,2.4786.111,13.4095.6566,18.0797.2219,4.6702-.4439,14.621-1.979,18.2461-2.6356,3.6251-.6659,9.3958-2.09,20.2161-2.09h43.16c6.8989,0,12.827.5457,19.0969,2.0346,6.2609,1.4796,25.3302,6.751,30.4906,7.9624,5.1694,1.2115,10.7182,2.9131,12.6418,3.7362,1.9236.823,5.6596,5.2805,6.6955,8.7392,1.0449,3.4587,6.7601,24.396,6.7601,60.4444s-5.7152,56.9765-6.7601,60.4445c-1.0359,3.4587-4.7718,7.907-6.6955,8.73-1.9236.8323-7.4724,2.5339-12.6418,3.7361-5.1604,1.2115-24.2297,6.4828-30.4906,7.9717-6.2699,1.4796-12.198,2.0346-19.0969,2.0346h-43.16c-10.8202,0-16.5909-1.4334-20.2161-2.09-3.6251-.6566-13.5759-2.201-18.2461-2.6356-4.6702-.4439-15.6011.111-18.0797.2219-2.4691.1017-9.8304.3237-16.7018.5456-6.8619.2219-50.9837.8786-57.6884.934-5.558.0462-40.1637.1295-55.8668.1665,1.3411,3.431,4.2356,11.1345,4.4022,12.1056.2034,1.1744-.4534,1.7848-3.4865,1.8866-3.0333.1017-4.5038,0-7.5925-2.7559-1.4612-1.304-3.4589-3.8934-5.3546-6.529-.0463-.0647-.0926-.1202-.1296-.185-1.1467-1.5907-2.2564-3.1998-3.1812-4.5407h-.0093c-17.2936.0925-33.4219,2.4969-42.4296,2.4969-4.1801,0-34.2173-.8323-44.3715-.971-10.1542-.1387-20.7245-5.8447-23.7856-7.2319-3.0609-1.3964-4.8829-3.7547-8.6282-8.3508-3.7455-4.587-6.9545-8.2029-8.8966-14.0476-3.0611-9.5993-6.8158-30.9158-6.8158-51.9364Z" style="fill:#d3d5d6; stroke-width:0px;"/><path d="m29.8471,97.5955c0,24.2761,1.0713,34.5698,3.8579,45.2953,2.7866,10.7254,10.3537,18.3707,13.8581,21.6905,3.5044,3.3198,6.6976,4.1442,10.9198,4.3145s16.7066.6913,31.9139.8699c15.2073.1786,28.4691.2295,28.4691.2295,26.9264.1184,60.2279-.0517,71.6354-.3785,9.1356-.2617,17.4751-.307,28.3638-1.9957,4.3801-.6793,4.2641-1.6503,5.825-8.0978,0,0-21.1331-.9272-29.1552-.9272-8.0221,0-83.0071-.3405-87.0613-.3405-3.3826,0-4.0944-2.2658-4.5303-3.6617-6.7916-21.7501-6.8894-56.4175-6.8894-56.9982s.0978-35.2481,6.8894-56.9982c.4359-1.3959,1.1477-3.6617,4.5303-3.6617,4.0542,0,79.0392-.3405,87.0613-.3405,8.0221,0,29.1552-.9272,29.1552-.9272-1.561-6.4476-1.445-7.4185-5.825-8.0978-10.8886-1.6886-19.2281-1.734-28.3638-1.9957-11.4075-.3268-44.709-.497-71.6354-.3785,0,0-13.2618.0508-28.4691.2295-15.2073.1786-27.6917.6997-31.9139.8699-4.2222.1702-7.4154.9947-10.9198,4.3145s-11.0714,10.965-13.8581,21.6905c-2.7866,10.7254-3.8579,21.0191-3.8579,45.2953Z" style="fill:none; stroke:#000001; stroke-linecap:round; stroke-linejoin:round; stroke-width:.5px;"/><path d="m72.5291,177.6358c-17.2924.0902-33.4238,2.5011-42.4323,2.5011-4.1728,0-34.2171-.8346-44.371-.9737s-20.725-5.8419-23.7851-7.2329c-3.0601-1.3909-4.8771-3.755-8.6238-8.3456-3.7467-4.5906-6.9547-8.2065-8.902-14.0485-3.0601-9.5975-6.8156-30.9201-6.8156-51.9407,0-21.0206,3.7555-42.3433,6.8156-51.9407,1.9473-5.8419,5.1553-9.4579,8.902-14.0485,3.7467-4.5906,5.5638-6.9547,8.6238-8.3456,3.0601-1.3909,13.6312-7.0938,23.7851-7.2329,10.1539-.1391,40.1981-.9737,44.371-.9737,9.0085,0,25.1399,2.4109,42.4323,2.5011" style="fill:none; stroke:#000001; stroke-linecap:round; stroke-miterlimit:10; stroke-width:2px;"/><path d="m87.8798,177.6551c15.707-.0358,50.3071-.1198,55.8665-.1654,6.7033-.0549,50.8241-.7143,57.6922-.9341s14.2307-.4396,16.7033-.5494c2.4725-.1099,13.4066-.6593,18.0769-.2198,4.6703.4396,14.6154,1.978,18.2417,2.6374,3.6264.6593,9.3956,2.0879,20.2197,2.0879h43.1618c6.8931,0,12.8271-.5494,19.0909-2.033,6.2637-1.4835,25.3296-6.7582,30.4945-7.967,5.1648-1.2088,10.7143-2.9121,12.6373-3.7363,1.9231-.8242,5.6593-5.2747,6.7033-8.7363,1.044-3.4615,6.7582-24.3937,6.7582-60.4437,0-36.05-5.7143-56.9822-6.7582-60.4437-1.044-3.4615-4.7802-7.9121-6.7033-8.7363s-7.4725-2.5275-12.6373-3.7363c-5.1648-1.2088-24.2307-6.4835-30.4945-7.967-6.2637-1.4835-12.1978-2.033-19.0909-2.033h-43.1618c-10.8242,0-16.5934,1.4286-20.2197,2.0879-3.6264.6593-13.5714,2.1978-18.2417,2.6374-4.6703.4396-15.6044-.1099-18.0769-.2198-2.4725-.1099-9.8351-.3297-16.7033-.5494-6.8681-.2198-50.9889-.8791-57.6922-.9341s-55.6043-.1648-55.6043-.1648l-.2622-.0006" style="fill:none; stroke:#000001; stroke-linecap:round; stroke-miterlimit:10; stroke-width:2px;"/><path d="m75.9818,182.5591s-3.4526-4.9233-2.9893-8.2308c.2113-1.5084,2.3247-1.1511,3.7113-1.1511,1.3866,0,5.6708.3368,5.6708.3368" style="fill:none; stroke:#000001; stroke-linecap:round; stroke-linejoin:round; stroke-width:.5px;"/><path d="m74.691,169.4546c.7586.5713,2.9758,1.8639,4.1818,2.9297,1.1534,1.0193,3.1442,1.1213,5.3688,1.2742,2.2246.1529,2.4269,1.1213,3.0336,2.4973s4.8032,12.4358,5.0054,13.608-.455,1.7838-3.4886,1.8858-4.4998,0-7.584-2.7522c-2.6645-2.3777-7.0803-8.9855-9.5128-12.4603-.6232-.8902-1.4521-1.6259-2.4125-2.1343l-10.1655-5.3814" style="fill:none; stroke:#000001; stroke-linecap:round; stroke-linejoin:round; stroke-width:2px;"/><path d="m75.9818,12.6319s-3.4526,4.9233-2.9893,8.2308c.2113,1.5084,2.3247,1.1511,3.7113,1.1511s5.6708-.3368,5.6708-.3368" style="fill:none; stroke:#000001; stroke-linecap:round; stroke-linejoin:round; stroke-width:.5px;"/><path d="m74.691,25.7364c.7586-.5713,2.9758-1.8639,4.1818-2.9297,1.1534-1.0193,3.1442-1.1213,5.3688-1.2742,2.2246-.1529,2.4269-1.1213,3.0336-2.4973s4.8032-12.4358,5.0054-13.608c.2022-1.1722-.455-1.7838-3.4886-1.8858-3.0336-.1019-4.4998,0-7.584,2.7522-2.6645,2.3777-7.0803,8.9855-9.5128,12.4603-.6232.8902-1.4521,1.6259-2.4125,2.1343l-10.1655,5.3814" style="fill:none; stroke:#000001; stroke-linecap:round; stroke-linejoin:round; stroke-width:2px;"/><path d="m58.8149,17.0628c-.09.173-.1722.3522-.246.5372-.3054.7652-.633,2.055-.4773,3.88.2078,2.4356,1.2414,4.8085,1.2414,4.8085" style="fill:none; stroke:#000001; stroke-linecap:round; stroke-linejoin:round; stroke-width:.5px;"/><path d="m150.7079,17.8152s.8698,1.8245,1.3044,3.8508c.4346,2.0263.489,3.5181.489,3.5181,0,0,2.1247,4.6702,3.547,11.5293" style="fill:none; stroke:#000001; stroke-linecap:round; stroke-linejoin:round; stroke-width:.5px;"/><path d="m149.0494,36.7388s-2.2533-6.3473-6.13-11.5768" style="fill:none; stroke:#000001; stroke-linecap:round; stroke-linejoin:round; stroke-width:.5px;"/><path d="m-52.8465,39.7638s65.5548-3.2054,81.3443-3.7856c10.1258-.3721,15.2006-3.7196,20.3146-6.4581" style="fill:none; stroke:#000001; stroke-linecap:round; stroke-linejoin:round; stroke-width:.5px;"/><path d="m85.6819,21.2239c25.4984-.15,48.4857-.0441,66.1661.2157,23.8717.3508,38.4259.3264,43.846.6314,7.9721.4486,12.548.1863,26.2239,3.8547,2.6609.7137,3.0319,1.7324,3.4956,2.9876.7326,1.9831,1.4208,4.8133,1.9007,6.6933" style="fill:none; stroke:#000001; stroke-linecap:round; stroke-linejoin:round; stroke-width:.5px;"/><path d="m-41.7867,25.9049s66.1673-1.5335,71.8442-1.7377c5.9666-.2146,9.9715-.7138,13.7728,1.9307,2.4589,1.7106,4.1,2.8526,4.9525,3.4458" style="fill:none; stroke:#000001; stroke-linecap:round; stroke-linejoin:round; stroke-width:.5px;"/><line x1="103.9432" y1="40.5973" x2="48.8124" y2="29.5201" style="fill:none; stroke:#000001; stroke-linecap:round; stroke-linejoin:round; stroke-width:.5px;"/><path d="m124.7067,42.5328c-4.0391,0-11.0687.3447-20.7635-1.9356" style="fill:none; stroke:#000001; stroke-linecap:round; stroke-linejoin:round; stroke-width:.5px;"/><path d="m59.3329,26.2885l62.0737,12.1851c2.0249.3975,4.0916.5961,6.1545.5968,17.5726.0055,103.8261.0324,115.1529.0324,4.2486,0,3.6117-1.8562,3.5453-3.2615-.0664-1.4053-.5311-6.1341-.6417-7.5171-.1106-1.383-.0664-2.1191,4.9189-1.9737,4.2823.1248,125.8901,3.9224,125.8901,3.9224,4.8956.2802,8.6974,3.009,10.431,7.4881" style="fill:none; stroke:#000001; stroke-linecap:round; stroke-linejoin:round; stroke-width:.5px;"/><path d="m131.183,45.1747h-2.6704c-.938,0-1.6984.7665-1.6984,1.7121,0,.9456.7604,1.7121,1.6984,1.7121h2.6704s1.8342,0,1.8342,0h2.6704c.938,0,1.6984-.7665,1.6984-1.7121,0-.9456-.7604-1.7121-1.6984-1.7121h-2.6704s-1.8342,0-1.8342,0Z" style="fill:none; stroke:#000001; stroke-linecap:round; stroke-linejoin:round; stroke-width:.5px;"/><line x1="132.1002" y1="45.1747" x2="132.1002" y2="48.5989" style="fill:none; stroke:#000001; stroke-linecap:round; stroke-linejoin:round; stroke-width:.5px;"/><path d="m208.1128,45.1705h-2.6704c-.938,0-1.6984.7665-1.6984,1.7121,0,.9456.7604,1.7121,1.6984,1.7121h2.6704s1.8342,0,1.8342,0h2.6704c.938,0,1.6984-.7665,1.6984-1.7121,0-.9456-.7604-1.7121-1.6984-1.7121h-2.6704s-1.8342,0-1.8342,0Z" style="fill:none; stroke:#000001; stroke-linecap:round; stroke-linejoin:round; stroke-width:.5px;"/><line x1="209.0299" y1="45.1705" x2="209.0299" y2="48.5946" style="fill:none; stroke:#000001; stroke-linecap:round; stroke-linejoin:round; stroke-width:.5px;"/><path d="m58.8149,178.1281c-.09-.173-.1722-.3522-.246-.5372-.3054-.7652-.633-2.055-.4773-3.88.2078-2.4356,1.2414-4.8085,1.2414-4.8085" style="fill:none; stroke:#000001; stroke-linecap:round; stroke-linejoin:round; stroke-width:.5px;"/><path d="m150.7079,177.3757s.8698-1.8245,1.3044-3.8508c.4346-2.0263.489-3.5181.489-3.5181,0,0,2.1247-4.6702,3.547-11.5293" style="fill:none; stroke:#000001; stroke-linecap:round; stroke-linejoin:round; stroke-width:.5px;"/><path d="m161.5272,169.9579c.3052-1.6978,1.6909-6.3169,1.8261-11.4788" style="fill:none; stroke:#000001; stroke-linecap:round; stroke-linejoin:round; stroke-width:.5px;"/><path d="m161.5272,25.233c.3052,1.6978,1.6909,6.3169,1.8261,11.4788" style="fill:none; stroke:#000001; stroke-linecap:round; stroke-linejoin:round; stroke-width:.5px;"/><path d="m149.0494,158.4521s-2.2533,6.3473-6.13,11.5768" style="fill:none; stroke:#000001; stroke-linecap:round; stroke-linejoin:round; stroke-width:.5px;"/><path d="m216.0867,97.5955v40.1684c0,2.4804-2.0084,4.4924-4.4888,4.497-15.4323.0287-66.02.1222-78.0589.1392-2.2501.0032-4.152-1.6456-4.4607-3.8745-1.8385-13.2738-2.9027-27.7921-2.7773-40.9301-.1253-13.138.9388-27.6563,2.7773-40.9301.3087-2.2288,2.2106-3.8776,4.4607-3.8745,12.0389.017,62.6266.1106,78.0589.1392,2.4804.0046,4.4888,2.0166,4.4888,4.497v40.1684Z" style="fill:none; stroke:#000001; stroke-linecap:round; stroke-linejoin:round; stroke-width:.5px;"/><path d="m-49.2343,137.8056c22.325,1.7385,50.4118,1.3725,62.481,1.1009,3.2241-.0725,5.7418-2.8325,5.5389-6.0769-.4397-7.029-1.0677-19.8701-1.0677-35.2342s.628-28.2052,1.0677-35.2342c.2029-3.2444-2.3148-6.0044-5.5389-6.0769-12.0692-.2715-40.156-.6376-62.481,1.1009" style="fill:none; stroke:#000001; stroke-linecap:round; stroke-linejoin:round; stroke-width:.5px;"/><path d="m-52.8465,155.4271s65.5548,3.2054,81.3443,3.7856c10.1258.3721,15.1711,3.696,20.2851,6.4345" style="fill:none; stroke:#000001; stroke-linecap:round; stroke-linejoin:round; stroke-width:.5px;"/><path d="m85.6819,173.967c25.4984.15,48.4857.0441,66.1661-.2157,23.8717-.3508,38.4259-.3264,43.846-.6314,7.9721-.4486,12.548-.1863,26.2239-3.8547,2.6609-.7137,3.0319-1.7324,3.4956-2.9876.7326-1.9831,1.4208-4.8133,1.9007-6.6933" style="fill:none; stroke:#000001; stroke-linecap:round; stroke-linejoin:round; stroke-width:.5px;"/><path d="m-41.7867,169.286s66.1673,1.5335,71.8442,1.7377c5.9666.2146,9.9715.7138,13.7728-1.9307,2.4589-1.7106,4.1-2.8526,4.9525-3.4458" style="fill:none; stroke:#000001; stroke-linecap:round; stroke-linejoin:round; stroke-width:.5px;"/><line x1="103.9432" y1="154.5937" x2="48.7832" y2="165.647" style="fill:none; stroke:#000001; stroke-linecap:round; stroke-linejoin:round; stroke-width:.5px;"/><path d="m124.7067,152.6581c-4.0391,0-11.0687-.3447-20.7635,1.9356" style="fill:none; stroke:#000001; stroke-linecap:round; stroke-linejoin:round; stroke-width:.5px;"/><path d="m59.3329,168.9024l62.0737-12.1851c2.0249-.3975,4.0916-.5961,6.1545-.5968,17.5726-.0055,103.8261-.0324,115.1529-.0324,4.2486,0,3.6117,1.8562,3.5453,3.2615-.0664,1.4053-.5311,6.1341-.6417,7.5171-.1106,1.383-.0664,2.1191,4.9189,1.9737,4.2823-.1248,125.8901-3.9224,125.8901-3.9224,4.8956-.2802,8.6974-3.009,10.431-7.4881" style="fill:none; stroke:#000001; stroke-linecap:round; stroke-linejoin:round; stroke-width:.5px;"/><path d="m131.183,150.0162h-2.6704c-.938,0-1.6984-.7665-1.6984-1.7121,0-.9456.7604-1.7121,1.6984-1.7121h2.6704s1.8342,0,1.8342,0h2.6704c.938,0,1.6984.7665,1.6984,1.7121,0,.9456-.7604,1.7121-1.6984,1.7121h-2.6704s-1.8342,0-1.8342,0Z" style="fill:none; stroke:#000001; stroke-linecap:round; stroke-linejoin:round; stroke-width:.5px;"/><line x1="132.1002" y1="150.0162" x2="132.1002" y2="146.592" style="fill:none; stroke:#000001; stroke-linecap:round; stroke-linejoin:round; stroke-width:.5px;"/><path d="m208.1128,150.0204h-2.6704c-.938,0-1.6984-.7665-1.6984-1.7121,0-.9456.7604-1.7121,1.6984-1.7121h2.6704s1.8342,0,1.8342,0h2.6704c.938,0,1.6984.7665,1.6984,1.7121,0,.9456-.7604,1.7121-1.6984,1.7121h-2.6704s-1.8342,0-1.8342,0Z" style="fill:none; stroke:#000001; stroke-linecap:round; stroke-linejoin:round; stroke-width:.5px;"/><line x1="209.0299" y1="150.0204" x2="209.0299" y2="146.5963" style="fill:none; stroke:#000001; stroke-linecap:round; stroke-linejoin:round; stroke-width:.5px;"/><path d="m249.5938,163.2733c-.0039-.1144-.0045-.2378-.0045-.3709,0-3.5181.0375-6.179.0375-7.4644s-.189-2.8229-6.2291-2.8229-118.691.043-118.691.043c0,0-3.9326-28.6676-3.9326-55.0626s3.9326-55.0626,3.9326-55.0626c0,0,112.651.043,118.691.043s6.2291-1.5376,6.2291-2.8229-.0375-3.9463-.0375-7.4644c0-.1331.0007-.2566.0045-.3709" style="fill:none; stroke:#000001; stroke-linecap:round; stroke-linejoin:round; stroke-width:.5px;"/><line x1="83.5004" y1="31.0326" x2="80.0015" y2="25.6035" style="fill:none; stroke:#000001; stroke-linecap:round; stroke-linejoin:round; stroke-width:.5px;"/><line x1="83.5004" y1="164.1583" x2="80.0015" y2="169.5874" style="fill:none; stroke:#000001; stroke-linecap:round; stroke-linejoin:round; stroke-width:.5px;"/></g><g style="clip-path:url(#uuid-975fbff1-8fc1-4859-92f4-720ad1e281c4);"><path d="m159.459,97.5959c0-21.0205,3.7547-42.3462,6.8158-51.9456,1.9422-5.8354,5.1512-9.4513,8.8966-14.0476,3.7452-4.5869,5.5673-6.9544,8.6282-8.3416,3.0611-1.3964,13.6314-7.0932,23.7856-7.2319,10.1542-.1387,40.1914-.9803,44.3715-.9803,9.0077,0,25.136,2.4137,42.4296,2.5062.934-1.3594,2.0623-2.9871,3.2275-4.6054.0278-.037.0555-.0833.0926-.1295,1.8956-2.6356,3.8933-5.225,5.3546-6.529,3.0887-2.7466,4.5592-2.8576,7.5925-2.7466,3.0331.1017,3.6899.7121,3.4865,1.8773-.1666.971-3.0611,8.6838-4.4022,12.1148h.2592s48.9029.111,55.6076.1665c6.7047.0555,50.8265.7121,57.6884.934,6.8714.2127,14.2327.4346,16.7018.5456,2.4786.111,13.4095.6566,18.0797.2219,4.6702-.4439,14.621-1.979,18.2461-2.6356,3.6251-.6659,9.3958-2.09,20.2161-2.09h43.16c6.8989,0,12.827.5457,19.0969,2.0346,6.2609,1.4796,25.3302,6.751,30.4906,7.9624,5.1694,1.2115,10.7182,2.9131,12.6418,3.7362,1.9236.823,5.6596,5.2805,6.6955,8.7392,1.0449,3.4587,6.7601,24.396,6.7601,60.4444s-5.7152,56.9765-6.7601,60.4445c-1.0359,3.4587-4.7718,7.907-6.6955,8.73-1.9236.8323-7.4724,2.5339-12.6418,3.7361-5.1604,1.2115-24.2297,6.4828-30.4906,7.9717-6.2699,1.4796-12.198,2.0346-19.0969,2.0346h-43.16c-10.8202,0-16.5909-1.4334-20.2161-2.09-3.6251-.6566-13.5759-2.201-18.2461-2.6356-4.6702-.4439-15.6011.111-18.0797.2219-2.4691.1017-9.8304.3237-16.7018.5456-6.8619.2219-50.9837.8786-57.6884.934-5.558.0462-40.1637.1295-55.8668.1665,1.3411,3.431,4.2356,11.1345,4.4022,12.1056.2034,1.1744-.4534,1.7848-3.4865,1.8866-3.0333.1017-4.5038,0-7.5925-2.7559-1.4612-1.304-3.4589-3.8934-5.3546-6.529-.0463-.0647-.0926-.1202-.1296-.185-1.1467-1.5907-2.2564-3.1998-3.1812-4.5407h-.0093c-17.2936.0925-33.4219,2.4969-42.4296,2.4969-4.1801,0-34.2173-.8323-44.3715-.971-10.1542-.1387-20.7245-5.8447-23.7856-7.2319-3.0609-1.3964-4.8829-3.7547-8.6282-8.3508-3.7455-4.587-6.9545-8.2029-8.8966-14.0476-3.0611-9.5993-6.8158-30.9158-6.8158-51.9364Z" style="fill:#d3d5d6; stroke-width:0px;"/><path d="m294.3862,177.6358c-17.2924.0902-33.4238,2.5011-42.4323,2.5011-4.1728,0-34.2171-.8346-44.371-.9737s-20.725-5.8419-23.7851-7.2329c-3.0601-1.3909-4.8771-3.755-8.6238-8.3456-3.7467-4.5906-6.9547-8.2065-8.902-14.0485-3.0601-9.5975-6.8156-30.9201-6.8156-51.9407,0-21.0206,3.7555-42.3433,6.8156-51.9407,1.9473-5.8419,5.1553-9.4579,8.902-14.0485,3.7467-4.5906,5.5638-6.9547,8.6238-8.3456,3.0601-1.3909,13.6312-7.0938,23.7851-7.2329,10.1539-.1391,40.1981-.9737,44.371-.9737,9.0085,0,25.1399,2.4109,42.4323,2.5011" style="fill:none; stroke:#000001; stroke-linecap:round; stroke-miterlimit:10; stroke-width:2px;"/><path d="m169.0106,39.7638s65.5548-3.2054,81.3443-3.7856c10.1258-.3721,15.2006-3.7196,20.3146-6.4581" style="fill:none; stroke:#000001; stroke-linecap:round; stroke-linejoin:round; stroke-width:.5px;"/><path d="m180.0705,25.9049s66.1673-1.5335,71.8442-1.7377c5.9666-.2146,9.9715-.7138,13.7728,1.9307,2.4589,1.7106,4.1,2.8526,4.9525,3.4458" style="fill:none; stroke:#000001; stroke-linecap:round; stroke-linejoin:round; stroke-width:.5px;"/><path d="m172.6229,137.8056c22.325,1.7385,50.4118,1.3725,62.481,1.1009,3.2241-.0725,5.7418-2.8325,5.5389-6.0769-.4397-7.029-1.0677-19.8701-1.0677-35.2342s.628-28.2052,1.0677-35.2342c.2029-3.2444-2.3148-6.0044-5.5389-6.0769-12.0692-.2715-40.156-.6376-62.481,1.1009" style="fill:none; stroke:#000001; stroke-linecap:round; stroke-linejoin:round; stroke-width:.5px;"/><path d="m169.0106,155.4271s65.5548,3.2054,81.3443,3.7856c10.1258.3721,15.1711,3.696,20.2851,6.4345" style="fill:none; stroke:#000001; stroke-linecap:round; stroke-linejoin:round; stroke-width:.5px;"/><path d="m180.0705,169.286s66.1673,1.5335,71.8442,1.7377c5.9666.2146,9.9715.7138,13.7728-1.9307,2.4589-1.7106,4.1-2.8526,4.9525-3.4458" style="fill:none; stroke:#000001; stroke-linecap:round; stroke-linejoin:round; stroke-width:.5px;"/><path d="m164.7644,94.2265c.1768-.1605.4468-.1609.6237-.0005,1.0818.9812,2.5711,2.5112,2.77,2.7616.1409.1774.2137.3791.2137.6021,0,.2224-.0729.424-.2132.6009-.2478.3124-1.5932,1.6294-2.7589,2.7613-.1802.175-.4664.1749-.6467,0-1.7165-1.6652-2.4241-2.3606-2.7508-2.7619-.2844-.3494-.2875-.8496-.0073-1.2024.212-.267,1.7058-1.7957,2.7695-2.7611Z" style="fill:none; stroke:#000001; stroke-linecap:round; stroke-linejoin:round; stroke-width:.75px;"/><path d="m164.5242,52.1421h-3.9435c-1.0959,0-1.9843.8884-1.9843,1.9843v5.9266c0,1.0959.8884,1.9843,1.9843,1.9843h1.2062" style="fill:none; stroke:#000001; stroke-linecap:round; stroke-miterlimit:10; stroke-width:2px;"/><path d="m164.5242,143.0489h-3.9435c-1.0959,0-1.9843-.8884-1.9843-1.9843v-5.9266c0-1.0959.8884-1.9843,1.9843-1.9843h1.2062" style="fill:none; stroke:#000001; stroke-linecap:round; stroke-miterlimit:10; stroke-width:2px;"/></g></svg>