<?xml version="1.0" encoding="UTF-8"?><svg xmlns="http://www.w3.org/2000/svg" width="487.497" height="264.029" viewBox="0 0 487.497 264.029"><g id="uuid-b813f5e4-46a3-48ea-be37-a325e3412ec1"><path d="m155.655,83.761l-2.301,1.616-111.729,78.238-3.627,2.536c-.942.653-2.472.396-4.119-.76l-16.018-11.214c-4.89-3.435-8.175-10.903-6.088-13.931l10.208-14.809c.182-.267.396-.471.631-.642l2.771-1.937,110.98-77.714,3.916-2.739.011.021c-.15.128-.289.278-.417.46l-10.208,14.809c-.974,1.412-.813,3.98.417,6.805,1.231,2.825,3.371,5.511,5.671,7.126l16.018,11.214c1.509,1.059,2.921,1.359,3.874.899l.011.021Z" style="fill:#d3d5d6; stroke-width:0px;"/></g><g id="uuid-ba0694e0-3f39-4d2d-973e-9a8371e42df7"><path d="m157.65,49.206c-18.81-13.223-15.242-13.317-28.022,5.253-1.355,1.968-2.481,3.104-2.481,5.712,0,3.453,2.22,8.474,6.23,11.966.693.604-.234.031,16.529,11.683,6.695,4.654,7.804.672,11.327-5.041,3.191-5.175,3.279-4.115,3.279-15.619,0-2.917-.268-9.298-6.862-13.955Z" style="fill:none; stroke:#000001; stroke-linecap:round; stroke-linejoin:round; stroke-width:.5px;"/><path d="m133.429,47.199c-1.818,2.402-4.063,6.028-7.472,10.982-1.355,1.968-2.481,3.104-2.481,5.712,0,2.471.485,5.101,1.805,7.191,1.209,1.914,2.776,3.621,4.425,4.776l16.02,11.217c1.649,1.155,3.173,1.417,4.112.76" style="fill:none; stroke:#000001; stroke-linecap:round; stroke-linejoin:round; stroke-width:.5px;"/><path d="m162.527,70.247c0,1.883-.385,3.478-1.124,4.687l-4.976,8.078c-.139.246-.332.439-.535.588-.942.653-2.472.396-4.119-.76l-16.018-11.214c-2.301-1.616-4.441-4.301-5.671-7.126-1.231-2.825-1.391-5.393-.417-6.805l10.208-14.809c.182-.267.396-.471.631-.642,1.231-.856,3.21-.514,5.361.984l10.711,7.511c3.285,2.3,5.949,6.848,5.949,10.154v9.352Z" style="fill:none; stroke:#000001; stroke-linecap:round; stroke-linejoin:round; stroke-width:.5px;"/><line x1="123.775" y1="61.821" x2="18.805" y2="135.321" style="fill:#fff; stroke:#000001; stroke-linecap:round; stroke-linejoin:round; stroke-width:.5px;"/><path d="m44.317,158.908c.361.087.905-.016,1.209-.229l96.3-67.43c.304-.213.479-.682.388-1.042l-.509-2.017c-.091-.36-.414-.829-.718-1.042l-12.718-8.905c-.304-.213-.853-.43-1.221-.483l-3.777-.543c-.367-.053-.917.078-1.221.291L25.927,144.814c-.304.213-.462.677-.351,1.031l.491,1.566c.111.354.451.818.755,1.031l13.06,9.145c.304.213.848.458,1.209.545l3.226.776Z" style="fill:none; stroke:#000001; stroke-linecap:round; stroke-linejoin:round; stroke-width:.5px;"/><path d="m20.739,144.897l100.376-70.284c.566-.397,1.589-.635,2.272-.529l5.083.784" style="fill:none; stroke:#000001; stroke-linecap:round; stroke-linejoin:round; stroke-width:.5px;"/><line x1="37.993" y1="166.15" x2="155.656" y2="83.762" style="fill:none; stroke:#000001; stroke-linecap:round; stroke-linejoin:round; stroke-width:.5px;"/><path id="uuid-b722a1f3-8e4a-4049-85f5-34d86b228e9d" d="m24.724,139.527c-.017-.012-.032-.028-.045-.046l-.617-.859c-.058-.08-.088-.191-.088-.325v-3.327c0-.304.244-.722.546-.933l3.388-2.372c.186-.13.348-.148.449-.077.063.044.097.129.097.246v3.327c0,.134-.03.287-.088.448l-.617,1.723c-.091.254-.282.509-.492.656l-2.088,1.462c-.179.126-.344.151-.446.079Z" style="fill:#f2a900; stroke:#12171d; stroke-linejoin:round;"/><path id="uuid-a5f3e3a8-68dd-4b56-8529-819040c1ddcb" d="m114.442,76.32c-.017-.012-.032-.028-.045-.046l-.617-.859c-.058-.08-.088-.191-.088-.325v-3.327c0-.304.244-.722.546-.933l3.388-2.372c.186-.13.348-.148.449-.077.063.044.097.129.097.246v3.327c0,.134-.03.287-.088.448l-.617,1.723c-.091.254-.282.509-.492.656l-2.088,1.462c-.179.126-.344.151-.446.079Z" style="fill:#f2a900; stroke:#12171d; stroke-linejoin:round;"/><line x1="22.612" y1="124.797" x2="140.274" y2="42.409" style="fill:none; stroke:#000001; stroke-linecap:round; stroke-linejoin:round; stroke-width:.5px;"/><path d="m45.022,161.229c-.939.658-2.463.395-4.112-.76l-16.02-11.217c-4.8-3.361-8.224-10.827-6.085-13.931l10.47-15.19" style="fill:none; stroke:#000001; stroke-linecap:round; stroke-linejoin:round; stroke-width:.5px;"/><path d="m123.511,64.923c0,2.216.254,7.835-2.397,9.69l-2.662,1.864" style="fill:none; stroke:#000001; stroke-linecap:round; stroke-linejoin:round; stroke-width:.5px;"/><g id="uuid-e1b98940-2e82-404a-a95a-bf38ba9500e0"><path d="m39.603,131.976c-12.647-10.219-14.164-9.63-15.349-9.63-3.237,0-3.349,1.137-12.617,14.653-1.201,1.751-2.448,2.956-2.448,5.69,0,9.292,9.568,14.437,21.828,22.947,7.543,5.236,8.048,2.521,12.222-4.335,3.562-5.852,3.1-5.205,3.1-12.521,0-3.852,1.112-11.267-6.691-16.773l-.043-.03Zm5.029,20.822c0,1.883-.385,3.478-1.124,4.687l-4.976,8.078c-.139.246-.332.439-.535.588-.942.653-2.472.396-4.119-.76l-16.018-11.214c-4.893-3.436-8.179-10.899-6.088-13.931l10.208-14.809c.182-.267.396-.471.631-.642,1.231-.856,3.21-.514,5.361.984l10.711,7.511c3.285,2.3,5.949,6.848,5.949,10.154v9.352Z" style="fill:#fff; stroke:#000001; stroke-linecap:round; stroke-linejoin:round; stroke-width:.5px;"/></g></g><g id="uuid-5ee52c02-3b61-4d5a-90d0-86464ed58b2e"><path d="m77.621,141.904c34.02,22.654,76.324,50.41,80.145,52.93,5.183,3.418,5.955,5.955,5.955,8.877s-.221,11.082-.331,14.39c-.11,3.308,0,5.734-7.168,7.609-7.168,1.875-9.924,2.205-14.225.992-4.301-1.213-16.982-5.072-19.628-5.844-2.647-.772-5.337-2.514-7.057-5.955-6.065-12.13-12.24-22.275-24.37-30.986s-26.575-18.526-35.948-23.929c-9.373-5.403-19.002-3.151-21.3,14.579" style="fill:none; stroke:#a7abae; stroke-linecap:round; stroke-linejoin:round; stroke-width:.5px;"/><path d="m4.852,31.507c8.381,5.915,16.531,11.678,23.878,16.822,11.168,7.82,14.988,11.946,17.386,14.676,2.398,2.729,2.564,5.045,1.571,9.18s-7.052,28.811-7.052,28.811c-.604,2.264-1.191,4.2-1.57,5.941" style="fill:none; stroke:#a7abae; stroke-linecap:round; stroke-linejoin:round; stroke-width:.5px;"/><path d="m21.759,116.181c.177.124,2.073,1.452,18.335,12.838,3.064,2.145,5.967,4.724,7.621,13.325s3.287,15.832,3.287,15.832l2.347,6.364" style="fill:none; stroke:#a7abae; stroke-linecap:round; stroke-linejoin:round; stroke-width:.5px;"/><g id="uuid-35a8fd41-d2b9-4d89-b1b7-dbf9ab44ce13"><path d="m40.37,193.09c.016.005.015.019-.012-.022-.199-.301-.335-1.231-.131-3.311.377-3.841,1.816-8.353,4.457-13.791,1.28-2.635,2.856-4.364,4.714-5.089.791-.309,1.661-.447,2.628-.382,1.304.088,2.81.551,4.54,1.512,6.303,3.502,22.906,14.698,30.197,20.029,7.164,5.238,11.309,10.14,16.115,19.132,4.413,8.257,9.964,24.218,11.603,28.935.149.429.266.766.346.992.534,1.513,1.093,2.715,2.031,3.645.758.752,1.699,1.264,2.905,1.678,1.847.635,2.977.682,4.04.725.48.019.913.037,1.409.105.52.071,3.516.638,7.655,1.422,8.687,1.646,22.237,4.214,27.126,4.858.572.075,1.118.149,1.64.219,5.907.796,8.974,1.223,13.703-.691l3.333-.155,6.088-1.918.995-.995,19.014-9.161,2.218.079.236-.125s13.576-7.185,32.934-21.271c19.353-14.082,28.294-22.861,28.294-22.861l.099-.097s1.875-3.281,1.875-3.281c0,0,13.181-12.034,13.239-12.092,2.876-3.095,4.343-5.129,5.527-8.301,1.149-3.081,2.192-6.363,2.626-7.762.173-.557.259-1.131.259-1.712v-5.161c0-.933-.327-1.837-.925-2.554l-1.931-2.317c2.768-7.223,3.756-14.661,3.756-19.743,0-4.166-.317-7.039-.813-11.548-.121-1.096-.252-2.289-.393-3.625-.748-7.102-2.132-9.727-7.624-14.649-6.148-5.51-62.039-47.116-111.172-81.488-3.108-2.174-3.69-3.156-6.604-8.592l-5.626-10.167" style="fill:none; stroke:#a7abae; stroke-linecap:round; stroke-linejoin:round; stroke-width:.5px;"/><path d="m40.296,193.328c-.045-.014-.09-.039-.146-.123-.257-.388-.373-1.414-.171-3.474.381-3.882,1.833-8.424,4.481-13.876,1.294-2.663,2.908-4.455,4.848-5.212.827-.323,1.734-.466,2.736-.399,1.35.091,2.891.569,4.645,1.543,6.317,3.51,22.93,14.713,30.223,20.046,7.198,5.263,11.367,10.196,16.188,19.216,4.424,8.278,9.982,24.261,11.619,28.971.149.429.266.765.346.991.531,1.505,1.076,2.662,1.971,3.551.723.717,1.626,1.212,2.81,1.619,1.813.623,2.916.669,3.969.712.479.019.924.038,1.433.107.528.072,3.536.642,7.667,1.424,8.692,1.647,22.232,4.213,27.112,4.856.573.076,1.119.149,1.641.22,5.925.798,8.931,1.214,13.615-.691l3.344-.156,5.999-1.89.982-.982,19.108-9.206,2.213.079.177-.094s13.557-7.174,32.904-21.252c19.342-14.074,28.266-22.837,28.266-22.837l.074-.073s1.877-3.285,1.877-3.285c0,0,13.21-12.061,13.253-12.104,2.865-3.082,4.308-5.089,5.476-8.218,1.147-3.074,2.188-6.352,2.621-7.749.165-.533.247-1.082.247-1.637v-5.161c0-.875-.307-1.722-.867-2.394l-2.025-2.43c2.796-7.234,3.792-14.703,3.792-19.791,0-4.151-.315-7.011-.812-11.52-.121-1.096-.252-2.29-.393-3.626-.741-7.037-2.095-9.607-7.542-14.489-6.134-5.497-62.011-47.094-111.149-81.469-3.159-2.21-3.764-3.237-6.679-8.676l-5.626-10.167" style="fill:none; stroke:#a7abae; stroke-linecap:round; stroke-linejoin:round; stroke-width:.5px;"/><path d="m40.221,193.567c-.105-.033-.196-.096-.28-.223-.315-.475-.412-1.597-.212-3.636.385-3.922,1.85-8.494,4.505-13.961,1.307-2.691,2.959-4.547,4.982-5.336.863-.337,1.807-.485,2.843-.415,1.396.094,2.973.587,4.749,1.574,6.331,3.517,22.953,14.728,30.249,20.063,7.232,5.288,11.424,10.251,16.261,19.3,4.436,8.299,10,24.304,11.635,29.007.149.429.266.765.345.99.529,1.498,1.058,2.61,1.911,3.456.688.682,1.554,1.161,2.715,1.56,1.78.612,2.855.656,3.898.698.478.019.934.038,1.457.109.537.073,3.555.645,7.68,1.426,8.698,1.648,22.228,4.212,27.098,4.854.573.076,1.119.149,1.642.22,5.943.801,8.889,1.205,13.527-.691l3.354-.156,5.909-1.862.969-.969,19.202-9.251,2.208.079.118-.062s13.539-7.164,32.874-21.233c19.332-14.067,28.238-22.813,28.238-22.813l.049-.048s1.879-3.289,1.879-3.289c0,0,13.239-12.087,13.268-12.116,2.853-3.07,4.273-5.049,5.425-8.135,1.145-3.067,2.184-6.34,2.617-7.735.158-.509.236-1.032.236-1.563v-5.161c0-.816-.286-1.607-.809-2.234l-2.119-2.543c2.824-7.244,3.828-14.745,3.828-19.838,0-4.136-.314-6.983-.81-11.493-.121-1.096-.252-2.291-.393-3.627-.734-6.972-2.057-9.486-7.46-14.329-6.121-5.485-61.983-47.073-111.125-81.45-3.21-2.246-3.838-3.319-6.755-8.759l-5.626-10.167" style="fill:none; stroke:#a7abae; stroke-linecap:round; stroke-linejoin:round; stroke-width:.5px;"/><path d="m40.147,193.806c-.165-.051-.301-.154-.414-.324-.372-.562-.45-1.78-.252-3.799.389-3.963,1.867-8.565,4.529-14.045,1.321-2.719,3.01-4.638,5.116-5.46.898-.35,1.879-.504,2.951-.432,1.441.098,3.054.605,4.854,1.605,6.345,3.525,22.977,14.743,30.275,20.08,7.266,5.313,11.482,10.307,16.334,19.384,4.447,8.32,10.019,24.347,11.65,29.042.149.429.266.764.345.989.526,1.49,1.04,2.557,1.852,3.362.652.647,1.481,1.11,2.62,1.501,1.747.6,2.794.643,3.827.685.478.019.944.038,1.48.111.545.074,3.575.648,7.693,1.428,8.703,1.649,22.223,4.211,27.084,4.852.574.076,1.12.149,1.643.22,5.979.806,8.863,1.198,13.395-.689,0,0,3.376-.157,3.439-.168l5.789-1.824s.983-.983.92-.938l19.331-9.313,2.203.079.059-.031s13.521-7.154,32.844-21.214c19.322-14.059,28.21-22.789,28.252-22.844,0,0,1.883-3.296,1.836-3.237,0,0,13.296-12.139,13.31-12.154,2.842-3.057,4.238-5.009,5.373-8.053,1.142-3.061,2.179-6.328,2.612-7.722.15-.484.225-.983.225-1.489v-5.161c0-.758-.266-1.492-.751-2.074l-2.214-2.656c2.853-7.254,3.865-14.786,3.865-19.884,0-4.12-.312-6.956-.809-11.466-.121-1.096-.252-2.291-.393-3.628-.727-6.908-2.019-9.365-7.379-14.169-6.107-5.473-61.955-47.051-111.102-81.432-3.262-2.282-3.912-3.4-6.83-8.843l-5.626-10.167" style="fill:none; stroke:#a7abae; stroke-linecap:round; stroke-linejoin:round; stroke-width:.5px;"/></g><path d="m40.072,194.044c-.912-.284-1.1-1.731-.84-4.386.393-4.004,1.884-8.635,4.553-14.13,2.669-5.495,6.908-7.929,13.267-4.396,6.359,3.533,23.001,14.758,30.302,20.096,7.301,5.338,11.54,10.362,16.407,19.468,4.867,9.106,11.069,27.397,12.011,30.066.942,2.669,1.806,3.847,4.318,4.71,2.512.864,3.533.55,5.26.785s27.632,5.338,34.776,6.28c7.144.942,10.048,1.57,14.994-.471l3.376-.157,5.731-1.806.942-.942,19.39-9.342,2.198.079s13.502-7.144,32.814-21.195c19.311-14.052,28.182-22.765,28.182-22.765l1.884-3.297,13.297-12.14c2.83-3.045,4.203-4.969,5.322-7.97,1.14-3.054,2.175-6.316,2.608-7.709.143-.46.214-.934.214-1.415v-5.161c0-.699-.245-1.377-.693-1.914l-2.309-2.77c2.881-7.264,3.902-14.828,3.902-19.93s-.48-8.224-1.201-15.068c-.72-6.843-1.981-9.245-7.297-14.009-6.093-5.461-61.927-47.029-111.078-81.413-3.313-2.317-3.986-3.481-6.906-8.927l-5.626-10.167" style="fill:none; stroke:#a7abae; stroke-linecap:round; stroke-linejoin:round; stroke-width:.5px;"/><path d="m3.915,162.666c2.413,1.828,4.693,3.591,6.839,5.29,15.072,11.932,20.366,19.265,26.202,24.136,2.154,1.798,3.119,1.944,3.119,1.944,0,0,1.455.841,5.905-1.51" style="fill:none; stroke:#a7abae; stroke-linecap:round; stroke-linejoin:round; stroke-width:1.5px;"/><ellipse cx="75.408" cy="223.082" rx="16.602" ry="30.551" transform="translate(-111.856 80.308) rotate(-34.001)" style="fill:none; stroke:#a7abae; stroke-linecap:round; stroke-linejoin:round; stroke-width:.5px;"/><path d="m63.856,176.18l-1.81,1.176c-3.555,2.31-8.82,5.789-11.886,8.868-11.899,11.946-3.23,36.224,6.199,50.202,21.408,31.738,41.954,24.872,45.346,23.108,6.352-3.303,11.062-6.757,14.111-8.951,2.18-1.568,3.729-3.187,4.733-4.414" style="fill:none; stroke:#a7abae; stroke-linecap:round; stroke-linejoin:round; stroke-width:1.5px;"/><polyline points="277.055 110.991 170.64 37.332 160.142 44.682" style="fill:none; stroke:#a7abae; stroke-linecap:round; stroke-linejoin:round; stroke-width:.5px;"/><path d="m173.443,183.54l-3.405,2.384,3.449,2.415s2.926,4.505,3.796,6.439c.188.417,1.654.89,1.654,27.899,0,4.907-1.984,10.377-1.984,10.377" style="fill:none; stroke:#a7abae; stroke-linecap:round; stroke-linejoin:round; stroke-width:.5px;"/><path d="m275.821,111.855l3.412-2.389,2.626,1.839s3.491,4.631,4.538,6.671c.093.182,2.619,2.339,2.619,23.97,0,6.864-2.902,14.488-2.902,14.488" style="fill:none; stroke:#a7abae; stroke-linecap:round; stroke-linejoin:round; stroke-width:.5px;"/><path d="m46.34,102.849c1.713-8.125,5.846-26.756,7.136-32.732,1.571-7.278-2.933-11.885-11-18.029-9.644-7.346-22.388-16.385-35.691-25.687" style="fill:none; stroke:#a7abae; stroke-linecap:round; stroke-linejoin:round; stroke-width:.5px;"/><path d="m168.061,21.546c9.836,7.236,100.351,73.821,114.477,84.299,3.472,2.575,2.205,6.616,1.245,8.097,0,0-8.859,14.53-45.051,39.871-36.191,25.342-61.118,35.48-63.975,36.532-2.857,1.052-6.736,1.181-12.029-2.21-3.308-2.119-45.338-29.784-77.393-50.926" style="fill:none; stroke:#a7abae; stroke-linecap:round; stroke-linejoin:round; stroke-width:.5px;"/><polyline points="84.43 120.763 173.443 183.54 275.821 111.855" style="fill:none; stroke:#a7abae; stroke-linecap:round; stroke-linejoin:round; stroke-width:.5px;"/><polyline points="157.341 33.406 166.663 40.125 166.663 77.63" style="fill:none; stroke:#a7abae; stroke-linecap:round; stroke-linejoin:round; stroke-width:.5px;"/><path d="m7.396,84.278c.66.023,1.343.029,2.052.018,8.901-.145,8.514-.332,9.951-4.736,1.493-4.576,6.79-20.389,6.79-20.389,0,0-11.182-10.146-18.418-15.213l-3.167-2.217" style="fill:none; stroke:#a7abae; stroke-linecap:round; stroke-linejoin:round; stroke-width:.5px;"/><path d="m54.508,100.858c.752-3.38,1.827-8.236,3.039-13.781,1.208-5.524,3.886-10.573,10.413-15.15,17.347-12.163,30.193-20.61,47.637-32.825,17.444-12.214,28.301-19.939,37.584-27.483,4.314-3.505,5.248-1.326,6.978,1.735l5.849,10.783s-4.72,5.996-15.673,15.825" style="fill:none; stroke:#a7abae; stroke-linecap:round; stroke-linejoin:round; stroke-width:.5px;"/><path d="m166.008,24.138c2.154-2.418,3.344-4.619,3.344-4.619" style="fill:none; stroke:#a7abae; stroke-linecap:round; stroke-linejoin:round; stroke-width:.5px;"/><path d="m288.073,153.562s-8.274,15.015-44.912,40.669c-36.638,25.654-55.522,33.86-65.932,38.697s-18.928,5.889-26.394,4.522-21.977-5.258-27.025-6.625c-5.047-1.367-6.099-2.944-7.361-5.363s-3.891-8.412-8.228-17.15c-4.944-9.961-9.921-15.348-17.881-21.167-7.436-5.437-24.206-16.756-30.832-20.435-4.106-2.283-8.002-2.867-11.573-1.739-3.893,1.229-6.738,5.104-8.564,8.756-1.668,3.336-2.839,3.049-5.678.841-2.275-1.77-15.761-12.994-29.038-23.39" style="fill:none; stroke:#a7abae; stroke-linecap:round; stroke-linejoin:round; stroke-width:.5px;"/><path d="m2.353,156.613c15.05,11.375,29.229,22.689,31.109,24.244,2.398,1.985,3.046,2.829,4.301-1.819,1.255-4.648,3.113-7.959,3.113-7.959" style="fill:none; stroke:#a7abae; stroke-linecap:round; stroke-linejoin:round; stroke-width:.5px;"/><path d="m163.242,80.026l11.657-8.162c.417-.292,1.098-.292,1.515,0l3.691,2.584c.417.292.775.946.797,1.454l.348,8.152c.022.508.38,1.163.797,1.454l34.452,24.123c.417.292,1.173.549,1.681.571l8.81.389c.508.022,1.323-.077,1.811-.22l1.801-.53c.488-.144,1.228-.022,1.645.269l23.032,16.127" style="fill:none; stroke:#a7abae; stroke-linecap:round; stroke-linejoin:round; stroke-width:.5px;"/><line x1="97.33" y1="129.714" x2="169.188" y2="79.398" style="fill:none; stroke:#a7abae; stroke-linecap:round; stroke-linejoin:round; stroke-width:.5px;"/><path d="m231.489,109.582s-6.94-11.672-8.728-14.511-5.141-6.773-8.246-8.947c-3.105-2.174-15.285-10.703-18.165-12.719s-8.069-1.694-15.488,1.574" style="fill:none; stroke:#a7abae; stroke-linecap:round; stroke-linejoin:round; stroke-width:.5px;"/><path d="m216.661,109.746c-1.697-2.84-3.828-6.392-4.638-7.678-1.431-2.272-4.114-5.421-6.599-7.161-2.485-1.74-12.233-8.566-14.538-10.179-1.897-1.328-5.045-1.388-9.41.09" style="fill:none; stroke:#a7abae; stroke-linecap:round; stroke-linejoin:round; stroke-width:.5px;"/><line x1="175.869" y1="71.673" x2="176.124" y2="51.274" style="fill:none; stroke:#a7abae; stroke-linecap:round; stroke-linejoin:round; stroke-width:.5px;"/><path d="m291.544,125.717c.186,1.607-.692,4.724-3.327,8.225,0,0-10.912,15.383-46.424,40.249-35.513,24.866-63.516,36.831-63.516,36.831-2.591,1.268-6.727,2.04-14.556,1.599,0,0-13.31-7.119-14.721-7.829-1.709-.861-2.922-2.114-2.922-3.602v-3.979c0-2.095,1.544-2.101,2.922-1.329s14.721,7.829,14.721,7.829c7.829.441,11.964-.331,14.556-1.599,0,0,28.004-11.964,63.516-36.831,35.513-24.866,46.424-40.249,46.424-40.249,1.502-1.995,2.764-4.658,2.578-6.264" style="fill:none; stroke:#a7abae; stroke-linecap:round; stroke-linejoin:round; stroke-width:.5px;"/><path d="m152.154,4.752c-3.038,3.647-8.849,10.312-37.393,30.299-16.68,11.679-28.45,19.297-36.941,24.37-14.711,8.788-24.342,10.696-24.342,10.696" style="fill:none; stroke:#a7abae; stroke-linecap:round; stroke-linejoin:round; stroke-width:.5px;"/><path d="m33.807,45.626s18.365-15.63,49.416-37.372c3.191-2.235,6.226-4.339,9.103-6.318" style="fill:none; stroke:#a7abae; stroke-linecap:round; stroke-linejoin:round; stroke-width:.5px;"/><path d="m44.311,37.105s8.035,6.657,13.108,9.965c5.072,3.308,8.05,3.639,12.35,1.323s23.267-14.887,26.465-17.533c0,0-12.667-10.587-21.11-16.872" style="fill:none; stroke:#a7abae; stroke-linecap:round; stroke-linejoin:round; stroke-width:.5px;"/><path d="m77.007,15.407c7.785,6.103,16.876,17.211,16.876,17.211" style="fill:none; stroke:#a7abae; stroke-linecap:round; stroke-linejoin:round; stroke-width:.5px;"/><path d="m90.025,3.524c6.227,4.36,21.207,17.302,21.207,17.302,0,0,21.944-17.202,23.929-18.967" style="fill:none; stroke:#a7abae; stroke-linecap:round; stroke-linejoin:round; stroke-width:.5px;"/><path d="m82.428,15.691s12.819,8.684,24.067,19.932" style="fill:none; stroke:#a7abae; stroke-linecap:round; stroke-linejoin:round; stroke-width:.5px;"/><path d="m92.512,8.629s12.819,8.684,24.067,19.932" style="fill:none; stroke:#a7abae; stroke-linecap:round; stroke-linejoin:round; stroke-width:.5px;"/><path d="m93.605,20.229c.238.177.564.182.807.012l3.759-2.632c.096-.067.175-.219.175-.336v-.451c0-.118-.079-.269-.175-.336l-1.672-1.171-.013-2.113c-.002-.352-.179-.681-.472-.877-.922-.618-2.961-1.983-3.874-2.581-1.161-.761-3.128-.823-6.293,1.728-.2.161-.279.429-.198.673.9,2.709,4.586,5.579,7.955,8.085Z" style="fill:none; stroke:#a7abae; stroke-linecap:round; stroke-linejoin:round; stroke-width:.5px;"/><line x1="96.509" y1="16.998" x2="96.499" y2="15.314" style="fill:none; stroke:#a7abae; stroke-linecap:round; stroke-linejoin:round; stroke-width:.5px;"/><path d="m171.427,24.022l-6.915,7.199c-.246.256-.369.607-.336.961s.217.676.506.883l5.958,4.267" style="fill:none; stroke:#a7abae; stroke-linecap:round; stroke-linejoin:round; stroke-width:.5px;"/><path d="m170.64,37.332v10.117l85.424,59.815c6.717,4.703,8.489,12.482,8.489,12.482" style="fill:none; stroke:#a7abae; stroke-linecap:round; stroke-linejoin:round; stroke-width:.5px;"/><path d="m247.763,101.451v6.55c0,.657.441,1.504.979,1.881l10.742,7.522c.731.512,1.329.2,1.329-.692v-4.742" style="fill:none; stroke:#a7abae; stroke-linecap:round; stroke-linejoin:round; stroke-width:.5px;"/><line x1="166.663" y1="77.63" x2="245.681" y2="132.959" style="fill:none; stroke:#a7abae; stroke-linecap:round; stroke-linejoin:round; stroke-width:.5px;"/><path d="m128.323,151.719l54.573-38.213c.872-.61,2.403-1.408,3.403-1.772l19.12-6.967" style="fill:none; stroke:#a7abae; stroke-linecap:round; stroke-linejoin:round; stroke-width:.5px;"/><line x1="194.866" y1="107.087" x2="165.741" y2="87.011" style="fill:none; stroke:#a7abae; stroke-linecap:round; stroke-linejoin:round; stroke-width:.5px;"/><line x1="239.092" y1="137.573" x2="197.714" y2="109.05" style="fill:none; stroke:#a7abae; stroke-linecap:round; stroke-linejoin:round; stroke-width:.5px;"/><line x1="179.382" y1="113.822" x2="153.213" y2="95.783" style="fill:none; stroke:#a7abae; stroke-linecap:round; stroke-linejoin:round; stroke-width:.5px;"/><line x1="226.564" y1="146.345" x2="182.23" y2="115.785" style="fill:none; stroke:#a7abae; stroke-linecap:round; stroke-linejoin:round; stroke-width:.5px;"/><line x1="166.591" y1="122.835" x2="140.381" y2="104.768" style="fill:none; stroke:#a7abae; stroke-linecap:round; stroke-linejoin:round; stroke-width:.5px;"/><line x1="213.732" y1="155.33" x2="169.439" y2="124.798" style="fill:none; stroke:#a7abae; stroke-linecap:round; stroke-linejoin:round; stroke-width:.5px;"/><line x1="154.054" y1="131.806" x2="127.705" y2="113.644" style="fill:none; stroke:#a7abae; stroke-linecap:round; stroke-linejoin:round; stroke-width:.5px;"/><line x1="201.056" y1="164.206" x2="156.902" y2="133.77" style="fill:none; stroke:#a7abae; stroke-linecap:round; stroke-linejoin:round; stroke-width:.5px;"/><line x1="141.333" y1="140.559" x2="115.095" y2="122.473" style="fill:none; stroke:#a7abae; stroke-linecap:round; stroke-linejoin:round; stroke-width:.5px;"/><line x1="188.446" y1="173.035" x2="144.181" y2="142.522" style="fill:none; stroke:#a7abae; stroke-linecap:round; stroke-linejoin:round; stroke-width:.5px;"/><path d="m3.853,135.786c3.417-3.088,7.007-6.35,9.127-8.328,4.962-4.631,7.719-6.947,10.586-16.32,2.867-9.373,9.924-35.066,10.807-38.926.882-3.859,1.448-6.19-1.875-9.594-9.259-9.485-18.442-17.047-29.22-24.96" style="fill:none; stroke:#a7abae; stroke-linecap:round; stroke-linejoin:round; stroke-width:.5px;"/><path d="m33.279,63.493s-12.028,38.933-13.572,43.234c-1.544,4.301-2.316,8.822-13.233,15.548-1.145.706-2.207,1.353-3.2,1.94" style="fill:none; stroke:#a7abae; stroke-linecap:round; stroke-linejoin:round; stroke-width:.5px;"/><path d="m3.637,105.386l3.775,2.46c.448.298.836.846,1.045,1.522.358,1.174.03,2.318-.726,2.547-.318.099-.657.02-.975-.189l-3.987-2.599" style="fill:none; stroke:#a7abae; stroke-linecap:round; stroke-linejoin:round; stroke-width:.5px;"/><path d="m8.238,89.966c10.569-1.256,10.887-1.703,13.303-9.019,1.98-5.996,4.887-14.694,7.315-21.964" style="fill:none; stroke:#a7abae; stroke-linecap:round; stroke-linejoin:round; stroke-width:.5px;"/><line x1="26.886" y1="57.091" x2="26.19" y2="59.171" style="fill:none; stroke:#a7abae; stroke-linecap:round; stroke-linejoin:round; stroke-width:.5px;"/><path d="m49.19,102.8c1.444-6.77,3.893-17.884,5.738-26.24,1.241-5.622,4.238-8.146,4.238-8.146" style="fill:none; stroke:#a7abae; stroke-linecap:round; stroke-linejoin:round; stroke-width:.5px;"/><path d="m167.986,21.651c-2.92-5.446-6.976-12.668-9.601-17.349" style="fill:none; stroke:#a7abae; stroke-linecap:round; stroke-linejoin:round; stroke-width:.5px;"/><path d="m76.926,3.846c-14.501,10.154-26.236,18.975-34.625,25.493-3.919,3.045-9.361,3.159-13.409.287-6.03-4.277-12.385-8.726-18.789-13.19" style="fill:none; stroke:#a7abae; stroke-linecap:round; stroke-linejoin:round; stroke-width:.5px;"/><path d="m37.827,42.301c-9.187-6.717-19.963-14.294-30.933-21.945" style="fill:none; stroke:#a7abae; stroke-linecap:round; stroke-linejoin:round; stroke-width:.5px;"/><path d="m29.501,38.311c-.036.636-.801,1.11-1.715,1.057-.427-.025-.808-.166-1.085-.361l-3.216-2.302-3.216-2.302c-.326-.228-.517-.548-.497-.885.037-.646.802-1.12,1.715-1.067.427.025.808.166,1.085.361l3.216,2.302,3.216,2.302c.326.228.517.548.497.895Z" style="fill:none; stroke:#a7abae; stroke-linecap:round; stroke-linejoin:round; stroke-width:.5px;"/><line x1="23.485" y1="36.705" x2="25.789" y2="35.113" style="fill:none; stroke:#a7abae; stroke-linecap:round; stroke-linejoin:round; stroke-width:.5px;"/><path d="m86.963,11.89s2.93,2.49,8.217,5.905" style="fill:none; stroke:#a7abae; stroke-linecap:round; stroke-linejoin:round; stroke-width:.5px;"/><path d="m194.149,49.971c-.403-.288-.645-.656-.645-1.059,0-.887,1.14-1.589,2.556-1.589.76,0,1.439.196,1.9.53" style="fill:none; stroke:#a7abae; stroke-linecap:round; stroke-linejoin:round; stroke-width:.5px;"/><line x1="189.211" y1="46.513" x2="193.022" y2="44.395" style="fill:none; stroke:#a7abae; stroke-linecap:round; stroke-linejoin:round; stroke-width:.5px;"/><line x1="197.072" y1="52.018" x2="200.883" y2="49.899" style="fill:none; stroke:#a7abae; stroke-linecap:round; stroke-linejoin:round; stroke-width:.5px;"/><path d="m205.272,53.573c0,.887-1.14,1.601-2.545,1.601-.76,0-1.439-.207-1.911-.541l-14.168-9.914c-.403-.288-.645-.656-.645-1.059,0-.887,1.14-1.589,2.556-1.589.76,0,1.439.196,1.9.53l14.168,9.914c.403.288.645.656.645,1.059Z" style="fill:none; stroke:#a7abae; stroke-linecap:round; stroke-linejoin:round; stroke-width:.5px;"/><path d="m157.459,175.356c.403.288.645.656.645,1.059,0,.887-1.14,1.589-2.556,1.589-.76,0-1.439-.196-1.9-.53" style="fill:none; stroke:#a7abae; stroke-linecap:round; stroke-linejoin:round; stroke-width:.5px;"/><line x1="162.398" y1="178.814" x2="158.587" y2="180.933" style="fill:none; stroke:#a7abae; stroke-linecap:round; stroke-linejoin:round; stroke-width:.5px;"/><line x1="154.537" y1="173.31" x2="150.726" y2="175.429" style="fill:none; stroke:#a7abae; stroke-linecap:round; stroke-linejoin:round; stroke-width:.5px;"/><path d="m146.337,171.754c0-.887,1.14-1.601,2.545-1.601.76,0,1.439.207,1.911.541l14.168,9.914c.403.288.645.656.645,1.059,0,.887-1.14,1.589-2.556,1.589-.76,0-1.439-.196-1.9-.53l-14.168-9.914c-.403-.288-.645-.656-.645-1.059Z" style="fill:none; stroke:#a7abae; stroke-linecap:round; stroke-linejoin:round; stroke-width:.5px;"/><line x1="265.823" y1="95.386" x2="262.012" y2="97.505" style="fill:none; stroke:#a7abae; stroke-linecap:round; stroke-linejoin:round; stroke-width:.5px;"/><path d="m258.268,94.89c-.403-.288-.645-.656-.645-1.059,0-.887,1.14-1.601,2.545-1.601.76,0,1.439.207,1.911.541l6.666,4.661c.403.288.645.656.645,1.059,0,.887-1.14,1.589-2.556,1.589-.76,0-1.439-.196-1.9-.53l-6.666-4.661Z" style="fill:none; stroke:#a7abae; stroke-linecap:round; stroke-linejoin:round; stroke-width:.5px;"/><path d="m175.118,252.067c2.938-4.634,3.126-6.679,7.018-8.714,11.444-5.984,22.173-11.452,28.34-14.997,3.767-2.166,4.411-1.544,6.065-.221,1.654,1.323,1.992,2.003,6.506-.882,9.599-6.135,27.284-19.278,32.089-22.936,3.056-2.327,4.19-5.514,6.065-8.932s3.418-5.072,7.498-8.711c4.08-3.639,10.917-9.719,16.43-15.438s5.321-4.872,4.222-1.788" style="fill:none; stroke:#a7abae; stroke-linecap:round; stroke-linejoin:round; stroke-width:.5px;"/><path d="m210.476,228.356c4.278-2.381,6.237-4.383,7.814-6.769s3.067-3.706,7.2-6.433c4.132-2.726,11.781-7.623,18.233-12.141,6.452-4.518,11.705-8.722,15.422-11.673,2.063-1.638,2.3-1.235,3.578-1.193s2.677-.524,5.805-3.32" style="fill:none; stroke:#a7abae; stroke-linecap:round; stroke-linejoin:round; stroke-width:.5px;"/><line x1="37.957" y1="178.349" x2="41.434" y2="180.934" style="fill:none; stroke:#a7abae; stroke-linecap:round; stroke-linejoin:round; stroke-width:.5px;"/><polyline points="109.86 224.551 112.775 225.848 116.659 225.85" style="fill:none; stroke:#a7abae; stroke-linecap:round; stroke-linejoin:round; stroke-width:.5px;"/><path d="m113.098,233.189c5.375,1.414,25.337,6.658,36.233,9.282,11.33,2.729,24.398-1.158,37.63-7.691,13.233-6.534,34.012-17.999,54.254-32.172,26.535-18.58,43.667-36.39,46.479-39.532,2.812-3.143,4.269-4.846,2.688-6.743" style="fill:none; stroke:#a7abae; stroke-linecap:round; stroke-linejoin:round; stroke-width:.5px;"/><path d="m183.661,208.548c.194,4.13.425,7.814.425,8.699,0,2.089,1.921,2.273,3,1.736,11.142-5.543,30.968-16.228,53.936-32.31,25.166-17.621,37.906-30.544,43.307-36.477,1.621-1.78,2.291-3.661,2.291-6.804,0-2.656-.074-5.063-.19-7.209" style="fill:none; stroke:#a7abae; stroke-linecap:round; stroke-linejoin:round; stroke-width:.5px;"/><path d="m285.693,128.128c-.378-2.83-1.127-3.826-2.725-2.108-6.094,6.555-18.771,18.666-41.726,34.74-23.212,16.254-43.217,26.995-54.289,32.486-1.475.731-3.554,2.084-3.554,6.517" style="fill:none; stroke:#a7abae; stroke-linecap:round; stroke-linejoin:round; stroke-width:.5px;"/></g><g id="uuid-cf3661ca-6f7b-4f51-af4a-8cf1b8b9e696"><polyline points="309.409 166.924 74.383 166.924 31.379 136.812" style="fill:none; stroke:#fff; stroke-linecap:round; stroke-linejoin:round; stroke-width:4px;"/><polygon points="485.285 262.042 485.285 134.274 301.688 134.274 301.688 198.158 301.688 262.042 485.285 262.042" style="fill:none; stroke:#fff; stroke-linecap:round; stroke-linejoin:round; stroke-width:4px;"/><polyline points="309.409 166.924 74.383 166.924 31.379 136.812" style="fill:none; stroke:#000001; stroke-linecap:round; stroke-linejoin:round; stroke-width:1.5px;"/><polygon points="485.285 262.042 485.285 134.274 301.688 134.274 301.688 198.158 301.688 262.042 485.285 262.042" style="fill:#fff; stroke:#000001; stroke-miterlimit:20; stroke-width:1.5px;"/><line x1="122.288" y1="70.833" x2="352.783" y2="70.833" style="fill:none; stroke:#fff; stroke-linecap:round; stroke-linejoin:round; stroke-width:4px;"/><polygon points="485.285 2 485.285 129.769 301.688 129.769 301.688 65.884 301.688 2 485.285 2" style="fill:none; stroke:#fff; stroke-linecap:round; stroke-linejoin:round; stroke-width:4px;"/><line x1="122.288" y1="70.833" x2="352.783" y2="70.833" style="fill:none; stroke:#000001; stroke-linecap:round; stroke-linejoin:round; stroke-width:1.5px;"/><polygon points="485.285 2 485.285 129.769 301.688 129.769 301.688 65.884 301.688 2 485.285 2" style="fill:#fff; stroke:#000001; stroke-miterlimit:20; stroke-width:1.5px;"/></g><g id="uuid-067a0dc7-ec91-4b3b-85eb-6a43d7dcb27c"><path d="m391.478,235.842c-3.824,0-8.379-2.349-10.596-5.466l-7.01-9.855c-1.645-2.313-2.887-6.199-2.887-9.04v-30.212c0-8.098,6.588-14.686,14.686-14.686h29.964c8.098,0,14.686,6.588,14.686,14.686v30.212c0,2.841-1.242,6.727-2.887,9.04l-7.01,9.855c-2.217,3.117-6.772,5.466-10.594,5.466h-18.354Z" style="fill:none; stroke:#a7abae; stroke-linecap:round; stroke-linejoin:round; stroke-width:.5px;"/><path d="m415.637,169.852c6.279,0,11.417,5.138,11.417,11.417v30.211c0,2.165-1.027,5.381-2.282,7.145l-7.01,9.856c-1.601,2.25-5.169,4.091-7.931,4.091h-18.353c-2.761,0-6.33-1.841-7.931-4.091l-7.01-9.856c-1.255-1.765-2.282-4.98-2.282-7.145v-30.211c0-6.279,5.138-11.417,11.417-11.417h29.965Z" style="fill:none; stroke:#a7abae; stroke-linecap:round; stroke-linejoin:round; stroke-width:.5px;"/><g id="uuid-fb32e3dc-a1f6-4f64-8c70-6a64e8cd7649"><path d="m414.565,154.61s-.048-.498-.071-1.092c-.015-.385-.158-.755-.452-1.037-.584-.562-1.554-.499-1.79-.499h-23.488c-.352,0-1.221.003-1.779.526-.267.251-.437.591-.462.984l-.075,1.149m12.405,20.533c-.208-.02-.393.025-.538.094-.252.119-.384.307-.428.373-.079.118-.123.234-.145.295-.12.337-.2.934-.246,1.395s-.083,1.063-.03,1.416c.009.064.03.186.085.317.03.073.123.283.347.449.128.095.301.176.509.196m-.466-4.535c-.208-.02-.393.025-.538.094-.252.119-.384.306-.43.374-.08.12-.125.237-.148.301-.122.34-.202.928-.247,1.387s-.081,1.051-.027,1.409c.01.067.032.191.087.324.031.075.125.285.349.45.129.095.301.176.51.197m-.466-4.535c-.208-.02-.394.025-.539.094-.252.119-.385.306-.432.375-.081.121-.128.241-.151.307-.123.343-.203.923-.248,1.379s-.079,1.04-.025,1.401c.01.07.033.196.089.331.032.078.127.287.351.452.129.096.302.176.51.197m-.466-4.535c-.355-.035-.619.118-.758.232-.161.132-.246.282-.28.346-.202.378-.295,1.123-.339,1.576s-.098,1.201.026,1.612c.021.07.076.234.208.394.114.139.344.34.699.375m-.466-4.535c-.355-.035-.62.118-.76.233-.161.133-.247.283-.283.35-.204.381-.297,1.117-.341,1.571s-.096,1.193.03,1.607c.022.072.077.237.21.398.115.14.345.341.701.376m-.466-4.535c-.314-.031-.562.086-.711.194-.145.105-.233.225-.277.293-.154.234-.223.532-.255.676-.064.289-.115.649-.148.99s-.054.704-.047,1c.003.147.013.453.118.713.03.075.093.21.215.341.126.135.346.298.66.329m-.466-4.535c-.356-.035-.622.117-.765.235-.163.134-.251.286-.288.357-.207.387-.301,1.106-.346,1.561-.034.342-.053.707-.045,1.005.004.149.016.451.122.709.031.076.095.211.217.341.127.136.347.297.66.328m-.466-4.535c-.356-.035-.623.117-.768.236-.163.134-.252.288-.291.361-.208.389-.303,1.1-.348,1.555-.034.343-.053.71-.043,1.01.005.151.019.448.125.705.032.078.097.212.219.342.128.137.349.296.661.327m10.251-2.545s-.502-.088-.512-.089c-.003-.005-.356-.309-.377-.322-.006-.016-.084-.169-.073-.138.032.096.095.446.14.909s.052.819.039.917c-.005.034.042-.131.045-.148.018-.017.305-.383.307-.389.01-.002.489-.187.485-.186m.839-.554c.009,0-.688-.212-.705-.213-.006-.012-.225-.276-.241-.315.033.093.097.433.141.886s.048.799.049.834c-.007.022.156-.28.16-.292.017-.004.659-.347.651-.346m.839-.554c.01-.001-.68-.21-.7-.211-.007-.014-.221-.271-.231-.297.033.091.098.42.142.865s.044.781.042.824c-.008.025.151-.269.156-.284.02-.005.656-.344.646-.343m.839-.554c.012-.001-.671-.208-.695-.209-.009-.015-.215-.264-.221-.28.033.088.099.408.142.844s.04.763.036.813c-.009.029.146-.258.152-.275.023-.006.653-.341.641-.34m.839-.554c.012-.001-.594-.161-.635-.167-.006-.022-.293-.374-.266-.304.002.006.013.036.029.099.043.171.085.436.114.726.042.428.037.747.03.802-.01.032.141-.246.148-.265.026-.006.649-.338.635-.337m.839-.554c.014-.001-.581-.156-.625-.162-.007-.023-.289-.362-.26-.291.002.005.012.033.027.091.043.167.087.427.115.715.041.42.034.731.024.791-.011.036.136-.234.143-.256.029-.007.645-.335.629-.334m.839-.554c.015-.002-.569-.152-.615-.158-.009-.025-.284-.351-.254-.279.002.004.012.03.026.084.044.162.088.418.116.704.04.413.031.715.019.779-.012.039.131-.222.139-.246.032-.007.641-.332.623-.33m.839-.554c.017-.002-.556-.148-.604-.154-.01-.026-.28-.341-.249-.268.002.004.011.028.025.077.044.157.089.41.117.694.04.405.028.701.01.784-.015.07.133-.222.14-.253.048-.015.635-.328.614-.326m-29.316,39.923c1.67,1.67,3.981,2.705,6.531,2.705h29.4c2.551,0,4.861-1.035,6.532-2.706s2.706-3.981,2.706-6.532v-29.402c0-1.848-.544-3.572-1.48-5.016.415-.395.763-.838,1.019-1.327.294-.562.461-1.18.461-1.833v-2.902s0-11.361,0-11.361v-1.791c0-1.9-.771-3.621-2.015-4.865s-2.966-2.015-4.865-2.015h-34.112c-1.9,0-3.621.771-4.865,2.015s-2.015,2.966-2.015,4.865v1.791s0,11.362,0,11.362v2.902c0,.652.167,1.27.461,1.833.255.489.604.932,1.019,1.327-.936,1.444-1.48,3.168-1.48,5.016v29.403c0,2.55,1.035,4.86,2.705,6.531Z" style="fill:none; stroke:#12171d; stroke-linecap:round; stroke-linejoin:round; stroke-width:.5px;"/><path d="m414.316,154.634s-.048-.505-.072-1.106c-.013-.328-.133-.634-.375-.867-.494-.476-1.334-.429-1.617-.429h-23.488c-.37,0-1.133.013-1.608.458-.222.208-.362.489-.384.818l-.075,1.149m12.131,20.766c-.157-.015-.297.019-.406.071-.191.09-.292.233-.327.285-.062.093-.098.186-.117.24-.108.303-.187.87-.232,1.336s-.079,1.037-.032,1.355c.008.056.026.155.069.258.024.058.095.218.265.343.097.072.227.133.385.148m-.515-4.037c-.157-.015-.297.019-.407.071-.191.09-.293.233-.329.287-.063.095-.1.19-.121.246-.11.307-.188.865-.234,1.327s-.077,1.025-.029,1.347c.009.059.027.16.07.265.025.06.097.22.267.345.098.072.228.133.385.149m-.515-4.037c-.157-.015-.298.019-.408.071-.191.09-.294.233-.331.289-.064.096-.103.193-.124.252-.111.31-.19.861-.235,1.319s-.075,1.013-.026,1.339c.009.062.028.165.072.271.026.062.099.222.269.347.098.072.229.133.386.149m-.515-4.037c-.268-.026-.469.089-.575.176-.123.101-.19.218-.218.271-.174.325-.265,1.013-.311,1.482s-.09,1.162.017,1.515c.018.058.06.185.162.308.087.106.261.258.53.285m-.515-4.037c-.269-.026-.47.089-.577.177-.124.102-.192.219-.221.274-.175.329-.267,1.009-.313,1.477s-.088,1.154.02,1.51c.018.06.062.188.164.312.088.108.263.26.532.286m-.515-4.037c-.238-.023-.426.065-.54.148-.111.081-.179.173-.215.227-.125.191-.187.445-.22.593-.061.276-.111.625-.144.96s-.052.687-.046.97c.004.152.014.413.1.624.024.06.073.164.167.265.096.104.263.227.501.25m-.515-4.037c-.27-.026-.472.089-.582.179-.125.103-.195.222-.226.281-.179.335-.272.999-.318,1.467-.033.336-.052.689-.044.974.004.153.017.41.103.621.025.062.075.165.168.266.097.104.265.226.502.25m-.515-4.037c-.27-.027-.474.089-.585.18-.126.104-.196.224-.229.285-.18.338-.274.995-.32,1.462-.033.337-.051.692-.042.978.005.154.019.408.106.617.026.063.076.166.17.266.098.105.266.226.503.249m10.202-2.545s-.37-.065-.38-.066c-.003-.005-.285-.248-.321-.317,0,0,0,0,0,0,.039.108.106.487.153.967s.055.865.038.978t.028-.088c0,.008.224-.279.226-.284.01-.002.365-.139.36-.139m.791-1.052c.009,0-.505-.156-.522-.157-.006-.011-.163-.2-.165-.208.038.098.108.467.155.948s.05.857.04.931c-.007.022.11-.194.114-.206.017-.004.49-.257.482-.256m.791-1.052c.01-.001-.497-.154-.517-.155-.007-.013-.159-.195-.157-.193.039.096.11.456.157.93s.046.842.033.921c-.008.025.105-.183.11-.198.019-.005.487-.254.477-.253m.791-1.052c.012-.001-.489-.153-.511-.154-.008-.015-.155-.19-.148-.179.04.093.113.445.159.913s.042.827.026.91c-.009.028.101-.172.106-.189.022-.005.484-.251.472-.25m.791-1.052c.012-.001-.432-.118-.466-.122-.007-.019-.202-.248-.179-.195.004.009.019.05.04.134.047.187.091.465.12.762.045.462.039.813.02.899-.01.032.096-.161.102-.179.025-.006.48-.248.466-.247m.791-1.052c.014-.001-.421-.115-.457-.119-.009-.02-.197-.238-.173-.185.004.008.019.047.04.127.048.184.093.458.122.754.045.456.035.8.015.888-.011.035.09-.149.097-.17.028-.007.476-.245.46-.244m.791-1.052c.015-.002-.41-.111-.448-.115-.01-.021-.193-.228-.167-.175.004.007.018.044.039.12.049.18.095.451.124.746.044.45.032.787.01.876-.011.038.085-.138.093-.16.031-.007.472-.242.454-.24m.791-1.052c.017-.002-.399-.108-.439-.112-.011-.022-.188-.218-.162-.165.003.007.018.041.039.113.05.177.097.445.125.737.044.444.029.775.004.866-.013.05.081-.126.09-.152.038-.011.466-.238.446-.236m-29.164,39.497c1.625,1.625,3.873,2.632,6.354,2.632h29.4c2.482,0,4.729-1.007,6.355-2.632s2.632-3.873,2.632-6.355v-29.402c0-1.874-.574-3.616-1.556-5.056.467-.414.852-.884,1.124-1.403.277-.53.433-1.108.433-1.717v-2.902s0-11.361,0-11.361v-1.791c0-1.831-.743-3.489-1.942-4.688s-2.858-1.942-4.688-1.942h-34.112c-1.831,0-3.489.743-4.688,1.942s-1.942,2.858-1.942,4.688v1.791s0,11.362,0,11.362v2.902c0,.609.156,1.187.433,1.717.271.52.657.989,1.123,1.403-.982,1.44-1.556,3.182-1.556,5.056v29.403c0,2.481,1.007,4.729,2.632,6.354Z" style="fill:none; stroke:#12171d; stroke-linecap:round; stroke-linejoin:round; stroke-width:.5px;"/><path d="m414.068,154.657s-.049-.512-.073-1.121c-.011-.272-.109-.513-.299-.696-.405-.389-1.115-.359-1.444-.359h-23.488c-.388,0-1.045.023-1.437.39-.176.165-.288.388-.305.652l-.075,1.149m11.857,20.998c-.106-.01-.201.013-.275.048-.13.061-.2.159-.226.198-.045.068-.073.139-.09.185-.096.27-.173.806-.219,1.276s-.075,1.011-.033,1.294c.007.049.021.124.052.199.018.043.068.153.183.238.066.049.154.09.26.1m-.564-3.54c-.106-.01-.201.013-.276.048-.13.062-.201.159-.228.2-.046.069-.075.142-.093.191-.098.274-.174.802-.22,1.267s-.073.999-.03,1.286c.008.052.022.129.054.206.019.045.069.155.185.24.066.049.155.09.261.101m-.564-3.54c-.106-.01-.202.013-.277.048-.131.062-.202.16-.23.202-.047.071-.077.145-.096.197-.099.277-.176.798-.221,1.259s-.071.987-.028,1.278c.008.055.023.134.056.212.019.047.07.157.186.243.067.049.156.091.262.101m-.564-3.54c-.182-.018-.318.06-.392.121-.086.07-.134.153-.157.196-.145.272-.235.903-.282,1.389s-.082,1.123.007,1.418c.014.046.045.136.116.222.061.074.179.177.361.195m-.564-3.54c-.182-.018-.319.06-.394.122-.087.071-.136.155-.159.199-.147.276-.237.9-.285,1.384s-.08,1.114.011,1.413c.015.048.046.139.117.226.061.075.181.178.363.196m-.564-3.54c-.162-.016-.29.044-.369.101-.077.056-.126.121-.153.162-.097.147-.151.358-.184.51-.058.262-.107.601-.139.93s-.051.671-.044.94c.004.156.016.373.082.536.018.045.053.119.118.189.067.072.181.155.343.171m-.564-3.54c-.183-.018-.322.06-.399.123-.088.072-.139.158-.164.206-.151.282-.242.893-.289,1.374-.032.33-.05.672-.043.942.004.156.018.37.085.533.019.047.055.12.12.19.068.072.182.155.344.171m-.564-3.54c-.184-.018-.324.06-.402.124-.089.073-.141.16-.167.21-.152.286-.244.89-.291,1.369-.032.33-.05.674-.041.945.005.156.02.367.087.53.02.048.056.121.121.191.069.073.184.156.345.171m10.153-2.545s-.239-.043-.249-.043c-.003-.005-.184-.161-.196-.182,0,0,.001.003.003.008.051.141.12.55.167,1.027s.058.891.036,1.039c0,.005-.001.008.011-.029-.002.009.142-.174.144-.18.01-.002.24-.091.236-.091m.742-1.549c.008,0-.322-.101-.339-.102-.006-.011-.101-.124-.093-.111.045.1.123.507.173,1.02s.053.927.03,1.028c-.006.021.064-.109.068-.12.016-.004.321-.167.313-.166m.742-1.549c.01,0-.314-.099-.334-.1-.007-.012-.097-.119-.086-.1.047.098.127.497.177,1.006s.049.915.023,1.018c-.007.024.06-.098.064-.111.019-.005.318-.164.308-.163m.742-1.549c.012-.001-.306-.097-.328-.098-.008-.014-.092-.114-.08-.09.048.097.131.488.18.992s.045.904.017,1.007c-.008.027.055-.087.06-.102.021-.005.314-.161.303-.16m.742-1.549c.012-.001-.272-.076-.298-.078-.008-.015-.114-.132-.097-.099.007.013.029.068.057.182.05.203.096.494.126.798.049.5.041.894.011.996-.009.03.05-.076.056-.093.024-.006.311-.158.297-.157m.742-1.549c.013-.001-.263-.073-.29-.075-.009-.016-.11-.124-.092-.091.007.013.029.065.058.175.052.201.099.489.129.792.048.492.037.879.005.985t.05-.084c-.002.01.309-.155.293-.153m.742-1.549c.015-.001-.255-.071-.283-.073-.01-.016-.105-.116-.087-.083.007.012.029.062.058.169.054.198.102.484.131.787.047.478.035.859,0,.973,0,0,0,0,.045-.074-.003.012.305-.152.287-.15m.742-1.549c.017-.002-.246-.069-.275-.07-.011-.017-.101-.108-.082-.076.007.011.029.06.059.163.055.196.104.48.134.781.048.49.029.866.036.896-.017.021.301-.147.28-.145m-29.011,39.071c1.58,1.58,3.765,2.559,6.177,2.559h29.4c2.413,0,4.598-.978,6.178-2.559s2.559-3.766,2.559-6.178v-29.402c0-1.902-.609-3.664-1.641-5.099.525-.432.95-.927,1.237-1.477.26-.497.404-1.036.404-1.601v-2.902s0-11.361,0-11.361v-1.791c0-1.762-.715-3.358-1.869-4.512s-2.75-1.869-4.512-1.869h-34.112c-1.762,0-3.358.715-4.512,1.869s-1.869,2.75-1.869,4.512v1.791s0,11.362,0,11.362v2.902c0,.565.145,1.104.404,1.601.287.549.712,1.045,1.237,1.476-1.033,1.435-1.641,3.196-1.641,5.098v29.403c0,2.412.978,4.597,2.559,6.177Z" style="fill:none; stroke:#12171d; stroke-linecap:round; stroke-linejoin:round; stroke-width:.5px;"/><path d="m413.819,154.681s-.05-.519-.074-1.135c-.008-.215-.084-.393-.222-.526-.315-.303-.895-.289-1.27-.289h-23.488c-.406,0-.957.034-1.266.323-.131.123-.214.286-.227.486l-.075,1.149m11.583,21.231c-.055-.005-.104.007-.143.025-.069.033-.108.085-.125.111-.028.043-.048.091-.063.131-.084.236-.159.742-.206,1.216s-.071.985-.035,1.233c.006.042.016.093.036.14.012.028.04.088.101.133.035.026.081.047.136.053m-.613-3.042c-.055-.005-.105.007-.144.025-.069.033-.109.086-.127.113-.029.044-.05.094-.065.137-.086.24-.161.739-.207,1.208s-.07.972-.032,1.225c.007.044.017.098.038.147.012.03.041.09.103.135.035.026.081.047.137.053m-.613-3.042c-.056-.005-.106.007-.145.025-.07.033-.11.087-.129.115-.03.045-.052.098-.068.143-.087.244-.162.736-.208,1.199s-.068.96-.029,1.216c.007.047.018.103.039.153.013.031.042.092.104.138.036.026.082.048.138.053m-.613-3.042c-.095-.009-.168.031-.209.065-.048.04-.078.089-.095.12-.117.219-.205.792-.254,1.296s-.074,1.083-.002,1.32c.01.034.03.088.07.136.034.041.097.095.192.105m-.613-3.042c-.096-.009-.169.031-.211.066-.049.04-.08.09-.097.124-.119.223-.208.791-.257,1.291s-.072,1.075,0,1.316c.011.036.031.091.071.14.035.042.098.096.194.106m-.613-3.042c-.085-.008-.154.023-.198.055-.043.031-.072.069-.091.097-.068.104-.115.271-.149.427-.055.249-.102.577-.134.9s-.049.654-.043.909c.004.16.017.333.064.448.012.031.034.074.07.113.037.04.098.084.184.092m-.613-3.042c-.097-.01-.172.032-.216.068-.051.042-.083.094-.103.131-.123.23-.213.787-.261,1.281-.032.324-.049.655-.041.911.005.159.019.33.066.445.013.032.035.075.071.114.038.041.1.085.185.093m-.613-3.042c-.098-.01-.174.032-.219.069-.052.043-.085.096-.105.134-.125.234-.215.785-.263,1.275-.032.324-.048.656-.04.912.005.158.021.327.068.442.014.033.036.076.073.116.039.041.101.085.187.094m10.104-2.545s-.113-.021-.118-.02l.107-.226-.184.162s.006.011.013.032c.062.175.134.613.18,1.087s.062.917.035,1.101c-.003.022-.006.032-.007.033l.232.092-.169-.17c.006,0,.116-.043.112-.043m.693-2.047c.009,0-.165-.053-.185-.077,0,0,0,0,0,.001.061.114.146.572.199,1.107s.058,1.002.02,1.125c0,0,0,.001.022-.034-.002.006.154-.077.145-.076m.693-2.047c.011-.001-.162-.053-.176-.069,0,0,0,.001.002.004.066.124.152.574.203,1.096s.054.981.013,1.115c0,.003-.001.004.017-.025-.003.007.151-.074.14-.073m.693-2.047c.012-.001-.158-.052-.166-.063,0,0,.001.002.004.007.071.133.158.575.208,1.085s.051.961.007,1.104c-.001.005-.002.007.013-.016-.004.009.147-.071.135-.07m.693-2.047c.013-.001-.143-.042-.156-.056.014.019.047.095.086.25.054.219.102.523.132.834.049.497.047.941,0,1.093-.002.008-.004.011.008-.007-.005.01.144-.068.13-.067m.693-2.047c.014-.001-.139-.041-.146-.05.014.018.049.092.088.245.057.218.105.52.135.831.048.486.044.921-.004,1.082-.003.011-.006.016.004.003-.007.012.141-.065.124-.064m.693-2.047c.016-.002-.131-.039-.137-.045.014.018.05.09.091.241.059.216.108.518.139.828.047.474.042.902-.009,1.07-.004.015-.008.022-.001.012-.009.015.137-.062.118-.06m.693-2.047c.018-.002-.122-.037-.127-.039.014.017.051.087.094.237.061.215.112.515.142.825.054.549.029.991-.019,1.08-.017.021.132-.057.111-.055m-28.859,38.646c1.535,1.535,3.657,2.485,6,2.485h29.4c2.344,0,4.466-.95,6.001-2.486s2.486-3.658,2.486-6.001v-29.402c0-1.934-.647-3.717-1.737-5.144.591-.449,1.06-.97,1.361-1.546.243-.465.376-.965.376-1.486v-2.902s0-11.361,0-11.361v-1.791c0-1.693-.686-3.226-1.796-4.335s-2.642-1.796-4.335-1.796h-34.112c-1.693,0-3.226.686-4.335,1.796s-1.796,2.642-1.796,4.335v1.791s0,11.362,0,11.362v2.902c0,.521.133,1.021.376,1.485.301.576.769,1.097,1.36,1.546-1.089,1.427-1.736,3.21-1.736,5.144v29.403c0,2.343.95,4.465,2.485,6Z" style="fill:none; stroke:#12171d; stroke-linecap:round; stroke-linejoin:round; stroke-width:.5px;"/></g><path d="m385.807,173.471h29.402c4.545,0,8.236,3.69,8.236,8.236v29.403c0,4.545-3.69,8.236-8.236,8.236h-29.4c-4.546,0-8.237-3.691-8.237-8.237v-29.402c0-4.545,3.69-8.236,8.236-8.236Z" style="fill:#d3d5d6; stroke:#000001; stroke-linecap:round; stroke-linejoin:round; stroke-width:.5px;"/><path d="m388.481,210.649c-1.222,0-2.213-.991-2.213-2.213v-24.063c0-1.219.988-2.207,2.207-2.207h24.067c1.219,0,2.207.988,2.207,2.207v24.068c0,1.219-.988,2.207-2.207,2.207h-24.061Z" style="fill:#d3d5d6; stroke:#000001; stroke-linecap:round; stroke-linejoin:round; stroke-width:.5px;"/><path d="m388.418,179.579h.006v-3.078s24.161,0,24.161,0v3.078h.008c2.622,0,4.747,2.125,4.747,4.747v24.158c0,2.631-2.133,4.764-4.764,4.764h-24.141c-2.631,0-4.764-2.133-4.764-4.764v-24.158c0-2.622,2.125-4.747,4.747-4.747Z" style="fill:none; stroke:#000001; stroke-linecap:round; stroke-linejoin:round; stroke-width:.5px;"/><path d="m383.452,151.596h34.112c3.246,0,5.88,2.635,5.88,5.88v13.153c0,3.246-2.635,5.88-5.88,5.88h-34.111c-3.246,0-5.882-2.635-5.882-5.882v-13.152c0-3.246,2.635-5.88,5.88-5.88Z" style="fill:#d3d5d6; stroke:#000001; stroke-linecap:round; stroke-linejoin:round; stroke-width:.5px;"/><path d="m387.447,155.515h26.123s0-.81,0-.81h2.295c4.186,0,7.58,2.042,7.58,4.562v14.263c0,2.52-3.394,4.563-7.581,4.563h-30.711c-4.186,0-7.58-2.042-7.58-4.562v-14.264c0-2.52,3.394-4.562,7.58-4.562h2.295v.81Z" style="fill:#d3d5d6; stroke:#000001; stroke-linecap:round; stroke-linejoin:round; stroke-width:.5px;"/><path d="m385.152,176.667c-3.339,0-6.055-1.635-6.055-3.644v-13.077c0-2.009,2.716-3.644,6.055-3.644h.769v.81s29.175,0,29.175,0v-.81h.769c3.339,0,6.055,1.635,6.055,3.644v13.076c0,2.009-2.717,3.645-6.056,3.645h-30.711Z" style="fill:#d3d5d6; stroke:#000001; stroke-linecap:round; stroke-linejoin:round; stroke-width:.5px;"/><path d="m413.57,154.705s-.05-.527-.075-1.149c-.022-.569-.659-.575-1.243-.575h-23.488c-.584,0-1.211.084-1.243.575l-.075,1.149" style="fill:none; stroke:#000001; stroke-linecap:round; stroke-linejoin:round; stroke-width:.5px;"/><path d="m388.944,173.596c-1.478,0-2.676-1.198-2.676-2.676v-8.89c0-1.474,1.195-2.669,2.669-2.669h23.142c1.474,0,2.669,1.195,2.669,2.669v8.897c0,1.474-1.195,2.669-2.669,2.669h-23.135Z" style="fill:#d3d5d6; stroke:#000001; stroke-linecap:round; stroke-linejoin:round; stroke-width:.5px;"/><path d="m393.081,171.698h-3.409c-.533,0-.965-.432-.965-.965v-8.172c0-.533.432-.965.965-.965h21.671c.533,0,.965.432.965.965v8.172c0,.533-.432.965-.965.965h-3.409v-1.374s-14.854,0-14.854,0v1.374Z" style="fill:none; stroke:#000001; stroke-linecap:round; stroke-linejoin:round; stroke-width:.5px;"/><path d="m399.315,178.713h-7.948c-.264,0-.264-2.545,0-2.545h7.948c.196,0,.196,2.545,0,2.545Z" style="fill:#fff; stroke:#000001; stroke-linecap:round; stroke-linejoin:round; stroke-width:.5px;"/><path d="m398.756,176.169c-.184-.018-.434,2.526-.25,2.545" style="fill:none; stroke:#000001; stroke-linecap:round; stroke-linejoin:round; stroke-width:.5px;"/><path d="m397.845,176.169c-.194-.019-.443,2.526-.25,2.545" style="fill:none; stroke:#000001; stroke-linecap:round; stroke-linejoin:round; stroke-width:.5px;"/><path d="m396.934,176.169c-.204-.02-.453,2.525-.25,2.545" style="fill:none; stroke:#000001; stroke-linecap:round; stroke-linejoin:round; stroke-width:.5px;"/><path d="m396.023,176.169c-.213-.021-.463,2.524-.25,2.545" style="fill:none; stroke:#000001; stroke-linecap:round; stroke-linejoin:round; stroke-width:.5px;"/><path d="m395.112,176.169c-.223-.022-.472,2.523-.25,2.545" style="fill:none; stroke:#000001; stroke-linecap:round; stroke-linejoin:round; stroke-width:.5px;"/><path d="m394.201,176.169c-.233-.023-.482,2.522-.25,2.545" style="fill:none; stroke:#000001; stroke-linecap:round; stroke-linejoin:round; stroke-width:.5px;"/><path d="m393.29,176.169c-.242-.024-.492,2.521-.25,2.545" style="fill:none; stroke:#000001; stroke-linecap:round; stroke-linejoin:round; stroke-width:.5px;"/><path d="m392.379,176.169c-.252-.025-.501,2.52-.25,2.545" style="fill:none; stroke:#000001; stroke-linecap:round; stroke-linejoin:round; stroke-width:.5px;"/><path d="m409.546,178.713h-7.948c-.188,0-.188-2.545,0-2.545h7.948c.3,0,.3,2.545,0,2.545Z" style="fill:#fff; stroke:#000001; stroke-linecap:round; stroke-linejoin:round; stroke-width:.5px;"/><path d="m402.185,176.169c.195-.019.445,2.525.25,2.545" style="fill:none; stroke:#000001; stroke-linecap:round; stroke-linejoin:round; stroke-width:.5px;"/><path d="m403.079,176.169c.217-.021.466,2.523.25,2.545" style="fill:none; stroke:#000001; stroke-linecap:round; stroke-linejoin:round; stroke-width:.5px;"/><path d="m403.972,176.169c.238-.023.487,2.521.25,2.545" style="fill:none; stroke:#000001; stroke-linecap:round; stroke-linejoin:round; stroke-width:.5px;"/><path d="m404.866,176.169c.259-.025.508,2.519.25,2.545" style="fill:none; stroke:#000001; stroke-linecap:round; stroke-linejoin:round; stroke-width:.5px;"/><path d="m405.76,176.169c.28-.027.53,2.517.25,2.545" style="fill:none; stroke:#000001; stroke-linecap:round; stroke-linejoin:round; stroke-width:.5px;"/><path d="m406.653,176.169c.301-.03.551,2.515.25,2.545" style="fill:none; stroke:#000001; stroke-linecap:round; stroke-linejoin:round; stroke-width:.5px;"/><path d="m407.547,176.169c.322-.032.572,2.513.25,2.545" style="fill:none; stroke:#000001; stroke-linecap:round; stroke-linejoin:round; stroke-width:.5px;"/><path d="m408.441,176.169c.343-.034.593,2.511.25,2.545" style="fill:none; stroke:#000001; stroke-linecap:round; stroke-linejoin:round; stroke-width:.5px;"/><circle cx="400.521" cy="196.399" r="11.5" style="fill:#f2a900; stroke:#12171d; stroke-linecap:round; stroke-linejoin:round;"/><circle cx="400.521" cy="196.399" r="9.205" style="fill:none; stroke:#12171d; stroke-linecap:round; stroke-linejoin:round; stroke-width:.5px;"/><circle cx="400.521" cy="196.399" r="4.104" style="fill:none; stroke:#12171d; stroke-linecap:round; stroke-linejoin:round; stroke-width:.5px;"/><path d="m435.287,252.177h-61.636c-5.719,0-11.204-2.272-15.248-6.316l-18.898-18.898c-7.42-7.42-13.492-22.078-13.492-32.572v-54.83" style="fill:none; stroke:#a7abae; stroke-linecap:round; stroke-linejoin:round; stroke-width:.5px;"/><path d="m479.137,256.246h-113.227c-5.416,0-14.302,1.536-19.402,3.354" style="fill:none; stroke:#a7abae; stroke-linecap:round; stroke-linejoin:round; stroke-width:.5px;"/><path d="m332.839,258.987l16.911-6.028c1.451-.517,2.98-.782,4.521-.782h127.717" style="fill:none; stroke:#a7abae; stroke-linecap:round; stroke-linejoin:round; stroke-width:.5px;"/><path d="m410,106.179c3.879,0,8.499-2.383,10.747-5.544l7.11-9.996c1.669-2.346,2.928-6.287,2.928-9.169v-30.644c0-8.214-6.682-14.896-14.896-14.896h-30.393c-8.214,0-14.896,6.682-14.896,14.896v30.644c0,2.881,1.259,6.823,2.928,9.169l7.11,9.996c2.248,3.161,6.869,5.544,10.746,5.544h18.616Z" style="fill:none; stroke:#a7abae; stroke-linecap:round; stroke-linejoin:round; stroke-width:.5px;"/><path d="m385.496,39.246c-6.369,0-11.58,5.211-11.58,11.58v30.643c0,2.196,1.042,5.458,2.315,7.248l7.111,9.996c1.623,2.282,5.243,4.15,8.044,4.15h18.616c2.801,0,6.421-1.867,8.044-4.15l7.111-9.996c1.273-1.79,2.315-5.051,2.315-7.248v-30.643c0-6.369-5.211-11.58-11.58-11.58h-30.394Z" style="fill:none; stroke:#a7abae; stroke-linecap:round; stroke-linejoin:round; stroke-width:.5px;"/><path d="m330.694,116.938h93.418c5.719,0,11.204-2.272,15.248-6.316l16.384-16.384c6.681-6.681,12.146-19.876,12.146-29.324V4.549" style="fill:none; stroke:#a7abae; stroke-linecap:round; stroke-linejoin:round; stroke-width:.5px;"/><path d="m307.041,120.6h124.931c4.876,0,12.876,1.383,17.468,3.019l5.8,2.068" style="fill:none; stroke:#a7abae; stroke-linecap:round; stroke-linejoin:round; stroke-width:.5px;"/><path d="m473.592,127.29l-20.075-7.155c-4.933-1.758-13.255-3.197-18.492-3.197h-7.557s-122.941,0-122.941,0" style="fill:none; stroke:#a7abae; stroke-linecap:round; stroke-linejoin:round; stroke-width:.5px;"/><g id="uuid-56a42541-c916-4c77-996e-fb402642c34a"><path d="m414.537,15.062l-.12-.392c-.138-.448-.421-.808-.763-1.061-.405-.299-.91-.462-1.432-.462h-23.413c-.522,0-1.026.163-1.432.462-.342.253-.625.613-.763,1.061l-.12.392m12.364,30.618c-.208-.02-.393.025-.538.094-.252.119-.384.307-.428.373-.079.118-.123.234-.145.295-.12.337-.2.934-.246,1.395s-.083,1.063-.03,1.416c.009.064.03.186.085.317.03.073.123.283.347.449.128.095.301.176.509.196m-.466-4.535c-.208-.02-.393.025-.538.094-.252.119-.384.306-.43.374-.08.12-.125.237-.148.301-.122.34-.202.928-.247,1.387s-.081,1.051-.027,1.409c.01.067.032.191.087.324.031.075.125.285.349.45.129.095.301.176.51.197m-.466-4.535c-.208-.02-.394.025-.539.094-.252.119-.385.306-.432.375-.081.121-.128.241-.151.307-.123.343-.203.923-.248,1.379s-.079,1.04-.025,1.401c.01.07.033.196.089.331.032.078.127.287.351.452.129.096.302.176.51.197m-.466-4.535c-.355-.035-.619.118-.758.232-.161.132-.246.282-.28.346-.202.378-.295,1.123-.339,1.576s-.098,1.201.026,1.612c.021.07.076.234.208.394.114.139.344.34.699.375m-.466-4.535c-.355-.035-.62.118-.76.233-.161.133-.247.283-.283.35-.204.381-.297,1.117-.341,1.571s-.096,1.193.03,1.607c.022.072.077.237.21.398.115.14.345.341.701.376m-.466-4.535c-.356-.035-.621.117-.763.234-.162.133-.249.285-.286.353-.205.384-.299,1.112-.344,1.566-.033.341-.054.704-.047,1,.003.147.013.453.118.713.03.075.093.21.215.341.126.135.346.298.66.329m-.466-4.535c-.313-.031-.56.084-.712.193-.145.105-.233.224-.279.293-.154.233-.224.526-.257.671-.066.291-.118.653-.151.995s-.053.707-.045,1.005c.004.149.016.451.122.709.031.076.095.211.217.341.127.136.347.297.66.328m-.466-4.535c-.312-.031-.559.083-.712.192-.145.104-.234.223-.281.293-.154.231-.225.519-.26.667-.068.293-.121.657-.154.999s-.053.71-.043,1.01c.005.151.019.448.125.705.032.078.097.212.219.342.128.137.349.296.661.327m10.251-2.545s-.502-.088-.512-.089c-.003-.005-.356-.309-.377-.322-.006-.016-.084-.169-.073-.138.032.096.095.446.14.909s.052.819.039.917c-.005.034.042-.131.045-.148.018-.017.305-.383.307-.389.01-.002.489-.187.485-.186m.839-.554c.009,0-.688-.212-.705-.213-.006-.012-.225-.276-.241-.315.033.093.097.433.141.886s.048.799.049.834c-.007.022.156-.28.16-.292.017-.004.659-.347.651-.346m.839-.554c.01-.001-.68-.21-.7-.211-.007-.014-.221-.271-.231-.297.033.091.098.42.142.865s.044.781.042.824c-.008.025.151-.269.156-.284.02-.005.656-.344.646-.343m.839-.554c.012-.001-.671-.208-.695-.209-.009-.015-.215-.264-.221-.28.033.088.099.408.142.844s.04.763.036.813c-.009.029.146-.258.152-.275.023-.006.653-.341.641-.34m.839-.554c.012-.001-.594-.161-.635-.167-.006-.022-.293-.374-.266-.304.002.006.013.036.029.099.043.171.085.436.114.726.042.428.037.747.03.802-.01.032.141-.246.148-.265.026-.006.649-.338.635-.337m.839-.554c.014-.001-.581-.156-.625-.162-.007-.023-.289-.362-.26-.291.002.005.012.033.027.091.043.167.087.427.115.715.041.42.034.731.024.791-.011.036.136-.234.143-.256.029-.007.645-.335.629-.334m.839-.554c.018-.002-.643-.202-.675-.203-.012-.022-.203-.25-.194-.234.034.08.102.375.142.788.028.286.035.546.023.714-.004.055-.009.083-.01.087-.016.077.191-.297.195-.323.044-.015.588-.276.572-.275m.839-.554c.02-.002-.616-.194-.666-.2-.013-.029-.215-.287-.187-.221.034.078.103.365.142.771.028.284.033.54.02.703-.004.051-.009.076-.01.08-.017.078.187-.283.192-.311.046-.015.58-.27.563-.268m-29.316,39.933c1.671,1.671,3.982,2.708,6.529,2.708h29.411c2.548,0,4.858-1.037,6.529-2.708s2.709-3.983,2.709-6.531v-29.411c0-2.056-.676-3.957-1.814-5.493.5-.558.914-1.184,1.221-1.863.382-.848.594-1.774.594-2.744v-.528s0-19.747,0-19.747v-1.723c0-2.212-.898-4.217-2.347-5.665s-3.453-2.347-5.665-2.347h-31.864c-2.212,0-4.217.898-5.665,2.347s-2.347,3.453-2.347,5.665v1.723s0,19.748,0,19.748v.527c0,.97.211,1.896.594,2.744.309.684.727,1.314,1.219,1.864-1.138,1.535-1.813,3.436-1.813,5.491v29.411c0,2.549,1.038,4.86,2.709,6.531Z" style="fill:none; stroke:#000001; stroke-linecap:round; stroke-linejoin:round; stroke-width:.5px;"/><path d="m414.298,15.135l-.12-.392c-.12-.391-.368-.708-.673-.933-.361-.267-.813-.413-1.283-.413h-23.413c-.47,0-.923.147-1.283.413-.304.225-.552.542-.673.933l-.12.392m12.1,30.793c-.157-.015-.297.019-.406.071-.191.09-.292.233-.327.285-.062.093-.098.186-.117.24-.108.303-.187.87-.232,1.336s-.079,1.037-.032,1.355c.008.056.026.155.069.258.024.058.095.218.265.343.097.072.227.133.385.148m-.515-4.037c-.157-.015-.297.019-.407.071-.191.09-.293.233-.329.287-.063.095-.1.19-.121.246-.11.307-.188.865-.234,1.327s-.077,1.025-.029,1.347c.009.059.027.16.07.265.025.06.097.22.267.345.098.072.228.133.385.149m-.515-4.037c-.157-.015-.298.019-.408.071-.191.09-.294.233-.331.289-.064.096-.103.193-.124.252-.111.31-.19.861-.235,1.319s-.075,1.013-.026,1.339c.009.062.028.165.072.271.026.062.099.222.269.347.098.072.229.133.386.149m-.515-4.037c-.268-.026-.469.089-.575.176-.123.101-.19.218-.218.271-.174.325-.265,1.013-.311,1.482s-.09,1.162.017,1.515c.018.058.06.185.162.308.087.106.261.258.53.285m-.515-4.037c-.269-.026-.47.089-.577.177-.124.102-.192.219-.221.274-.175.329-.267,1.009-.313,1.477s-.088,1.154.02,1.51c.018.06.062.188.164.312.088.108.263.26.532.286m-.515-4.037c-.269-.026-.471.089-.58.178-.125.102-.193.221-.224.278-.177.332-.269,1.004-.315,1.472-.033.335-.052.687-.046.97.004.152.014.413.1.624.024.06.073.164.167.265.096.104.263.227.501.25m-.515-4.037c-.237-.023-.425.064-.541.147-.111.08-.18.172-.217.228-.126.19-.188.44-.222.589-.063.277-.113.628-.146.964s-.052.689-.044.974c.004.153.017.41.103.621.025.062.075.165.168.266.097.104.265.226.502.25m-.515-4.037c-.236-.023-.425.063-.542.147-.111.08-.181.172-.219.228-.126.189-.189.435-.224.585-.065.279-.116.63-.149.967s-.051.692-.042.978c.005.154.019.408.106.617.026.063.076.166.17.266.098.105.266.226.503.249m10.202-2.545s-.37-.065-.38-.066c-.003-.005-.285-.248-.321-.317,0,0,0,0,0,0,.039.108.106.487.153.967s.055.865.038.978t.028-.088c0,.008.224-.279.226-.284.01-.002.365-.139.36-.139m.791-1.052c.009,0-.505-.156-.522-.157-.006-.011-.161-.198-.165-.208.038.098.108.467.155.948s.05.857.04.931c-.007.022.11-.194.114-.206.017-.004.49-.257.482-.256m.791-1.052c.01-.001-.497-.154-.517-.155-.007-.013-.159-.195-.157-.193.039.096.11.456.157.93s.046.842.033.921c-.008.025.105-.183.11-.198.019-.005.487-.254.477-.253m.791-1.052c.012-.001-.489-.153-.511-.154-.008-.015-.155-.19-.148-.179.04.093.113.445.159.913s.042.827.026.91c-.009.028.101-.172.106-.189.022-.005.484-.251.472-.25m.791-1.052c.012-.001-.432-.118-.466-.122-.007-.019-.202-.248-.179-.195.004.009.019.05.04.134.047.187.091.465.12.762.045.462.039.813.02.899-.01.032.096-.161.102-.179.025-.006.48-.248.466-.247m.791-1.052c.014-.001-.421-.115-.457-.119-.009-.02-.197-.238-.173-.185.004.008.019.047.04.127.048.184.093.458.122.754.045.456.035.8.015.888-.011.035.09-.149.097-.17.028-.007.476-.245.46-.244m.791-1.052c.018-.002-.46-.146-.492-.147-.012-.02-.141-.174-.124-.143.041.087.119.415.163.865.029.294.037.569.024.755-.005.079-.013.117-.015.125-.014.057.125-.181.13-.204.037-.011.433-.202.418-.2m.791-1.052c.02-.002-.444-.142-.484-.145-.013-.024-.14-.178-.118-.132.042.085.12.406.164.851.029.293.035.565.02.748-.006.075-.014.111-.016.119-.015.057.12-.169.127-.193.038-.012.426-.197.409-.195m-29.164,39.507c1.626,1.626,3.874,2.635,6.353,2.635h29.411c2.479,0,4.726-1.009,6.353-2.635s2.636-3.875,2.636-6.355v-29.411c0-2.074-.707-3.987-1.89-5.509.547-.578.995-1.234,1.318-1.95.368-.817.572-1.709.572-2.641v-.528s0-19.747,0-19.747v-1.723c0-2.143-.87-4.085-2.273-5.489s-3.345-2.273-5.489-2.273h-31.864c-2.143,0-4.085.87-5.489,2.273s-2.273,3.345-2.273,5.489v1.723s0,19.748,0,19.748v.527c0,.933.203,1.824.572,2.641.325.721.778,1.381,1.317,1.951-1.183,1.522-1.889,3.434-1.889,5.507v29.411c0,2.48,1.009,4.728,2.636,6.355Z" style="fill:none; stroke:#000001; stroke-linecap:round; stroke-linejoin:round; stroke-width:.5px;"/><path d="m414.059,15.209l-.12-.392c-.103-.334-.316-.609-.582-.806-.316-.234-.716-.364-1.135-.364h-23.413c-.419,0-.819.131-1.135.364-.266.197-.48.472-.582.806l-.12.392m11.837,30.968c-.106-.01-.201.013-.275.048-.13.061-.2.159-.226.198-.045.068-.073.139-.09.185-.096.27-.173.806-.219,1.276s-.075,1.011-.033,1.294c.007.049.021.124.052.199.018.043.068.153.183.238.066.049.154.09.26.1m-.564-3.54c-.106-.01-.201.013-.276.048-.13.062-.201.159-.228.2-.046.069-.075.142-.093.191-.098.274-.174.802-.22,1.267s-.073.999-.03,1.286c.008.052.022.129.054.206.019.045.069.155.185.24.066.049.155.09.261.101m-.564-3.54c-.106-.01-.202.013-.277.048-.131.062-.202.16-.23.202-.047.071-.077.145-.096.197-.099.277-.176.798-.221,1.259s-.071.987-.028,1.278c.008.055.023.134.056.212.019.047.07.157.186.243.067.049.156.091.262.101m-.564-3.54c-.182-.018-.318.06-.392.121-.086.07-.134.153-.157.196-.145.272-.235.903-.282,1.389s-.082,1.123.007,1.418c.014.046.045.136.116.222.061.074.179.177.361.195m-.564-3.54c-.182-.018-.319.06-.394.122-.087.071-.136.155-.159.199-.147.276-.237.9-.285,1.384s-.08,1.114.011,1.413c.015.048.046.139.117.226.061.075.181.178.363.196m-.564-3.54c-.183-.018-.321.06-.397.122-.087.072-.137.156-.162.202-.149.279-.24.896-.287,1.379-.032.329-.051.671-.044.94.004.156.016.373.082.536.018.045.053.119.118.189.067.072.181.155.343.171m-.564-3.54c-.161-.016-.29.043-.37.101-.078.056-.127.121-.155.163-.097.147-.152.354-.187.506-.06.263-.109.603-.141.932s-.05.672-.043.942c.004.156.018.37.085.533.019.047.055.12.12.19.068.072.182.155.344.171m-.564-3.54c-.161-.016-.29.043-.371.101-.078.056-.128.121-.156.164-.098.146-.153.351-.189.503-.062.264-.111.604-.144.935s-.05.674-.041.945c.005.156.02.367.087.53.02.048.056.121.121.191.069.073.184.156.345.171m10.153-2.545s-.239-.043-.249-.043c-.003-.005-.184-.161-.196-.182,0,0,.001.003.003.008.051.141.12.55.167,1.027s.058.891.036,1.039c0,.005-.001.008.011-.029-.002.009.142-.174.144-.18.01-.002.24-.091.236-.091m.742-1.549c.008,0-.322-.101-.339-.102-.006-.011-.101-.124-.093-.111.045.1.123.507.173,1.02s.053.927.03,1.028c-.006.021.064-.109.068-.12.016-.004.321-.167.313-.166m.742-1.549c.01,0-.314-.099-.334-.1-.007-.012-.097-.119-.086-.1.047.098.127.497.177,1.006s.049.915.023,1.018c-.007.024.06-.098.064-.111.019-.005.318-.164.308-.163m.742-1.549c.012-.001-.306-.097-.328-.098-.008-.014-.092-.114-.08-.09.048.097.131.488.18.992s.045.904.017,1.007c-.008.027.055-.087.06-.102.021-.005.314-.161.303-.16m.742-1.549c.012-.001-.272-.076-.298-.078-.008-.015-.114-.132-.097-.099.007.013.029.068.057.182.05.203.096.494.126.798.049.5.041.894.011.996-.009.03.05-.076.056-.093.024-.006.311-.158.297-.157m.742-1.549c.013-.001-.263-.073-.29-.075-.009-.016-.11-.124-.092-.091.007.013.029.065.058.175.052.201.099.489.129.792.048.492.037.879.005.985t.05-.084c-.002.01.309-.155.293-.153m.742-1.549c.019-.002-.328-.106-.369-.156,0,0,0,0,0,0,.056.105.142.477.189.955.03.302.038.592.024.797-.008.11-.02.164-.024.177-.012.035.062-.08.069-.098.027-.007.278-.128.263-.126m.742-1.549c.022-.002-.323-.105-.357-.146.053.09.144.455.192.944.03.301.037.589.021.792-.009.107-.022.159-.026.172-.012.035.058-.072.065-.091.028-.007.273-.124.256-.122m-29.012,39.082c1.581,1.581,3.766,2.562,6.176,2.562h29.411c2.409,0,4.594-.981,6.176-2.562s2.563-3.767,2.563-6.178v-29.411c0-2.094-.741-4.019-1.973-5.525.598-.596,1.083-1.283,1.423-2.037.354-.786.55-1.643.55-2.539v-.528s0-19.747,0-19.747v-1.723c0-2.074-.841-3.953-2.2-5.312s-3.238-2.2-5.312-2.2h-31.864c-2.074,0-3.953.841-5.312,2.2s-2.2,3.238-2.2,5.312v1.723s0,19.748,0,19.748v.527c0,.896.195,1.752.55,2.538.342.758.831,1.448,1.423,2.037-1.232,1.506-1.972,3.431-1.972,5.524v29.411c0,2.41.981,4.596,2.563,6.178Z" style="fill:none; stroke:#000001; stroke-linecap:round; stroke-linejoin:round; stroke-width:.5px;"/><path d="m413.82,15.282l-.12-.392c-.085-.277-.263-.509-.492-.678-.271-.201-.619-.316-.986-.316h-23.413c-.368,0-.715.115-.986.316-.229.169-.407.401-.492.678l-.12.392m11.574,31.144c-.055-.005-.104.007-.143.025-.069.033-.108.085-.125.111-.028.043-.048.091-.063.131-.084.236-.159.742-.206,1.216s-.071.985-.035,1.233c.006.042.016.093.036.14.012.028.04.088.101.133.035.026.081.047.136.053m-.613-3.042c-.055-.005-.105.007-.144.025-.069.033-.109.086-.127.113-.029.044-.05.094-.065.137-.086.24-.161.739-.207,1.208s-.07.972-.032,1.225c.007.044.017.098.038.147.012.03.041.09.103.135.035.026.081.047.137.053m-.613-3.042c-.056-.005-.106.007-.145.025-.07.033-.11.087-.129.115-.03.045-.052.098-.068.143-.087.244-.162.736-.208,1.199s-.068.96-.029,1.216c.007.047.018.103.039.153.013.031.042.092.104.138.036.026.082.048.138.053m-.613-3.042c-.095-.009-.168.031-.209.065-.048.04-.078.089-.095.12-.117.219-.205.792-.254,1.296s-.074,1.083-.002,1.32c.01.034.03.088.07.136.034.041.097.095.192.105m-.613-3.042c-.096-.009-.169.031-.211.066-.049.04-.08.09-.097.124-.119.223-.208.791-.257,1.291s-.072,1.075,0,1.316c.011.036.031.091.071.14.035.042.098.096.194.106m-.613-3.042c-.097-.009-.171.032-.214.067-.05.041-.081.092-.1.127-.121.226-.21.789-.259,1.286-.032.324-.049.654-.043.909.004.16.017.333.064.448.012.031.034.074.07.113.037.04.098.084.184.092m-.613-3.042c-.086-.008-.155.023-.2.055-.044.032-.073.07-.092.098-.069.104-.116.269-.151.424-.057.249-.104.577-.136.901s-.049.655-.041.911c.005.159.019.33.066.445.013.032.035.075.071.114.038.041.1.085.185.093m-.613-3.042c-.086-.008-.155.023-.201.055-.044.032-.074.07-.094.1-.069.104-.117.267-.153.421-.058.25-.107.578-.138.902s-.048.656-.04.912c.005.158.021.327.068.442.014.033.036.076.073.116.039.041.101.085.187.094m10.104-2.545s-.113-.021-.118-.02l.107-.226-.184.162s.006.011.013.032c.062.175.134.613.18,1.087s.062.917.035,1.101c-.003.022-.006.032-.007.033l.232.092-.169-.17c.006,0,.116-.043.112-.043m.693-2.047c.009,0-.165-.053-.185-.077,0,0,0,0,0,.001.061.114.146.572.199,1.107s.058,1.002.02,1.125c0,0,0,.001.022-.034-.002.006.154-.077.145-.076m.693-2.047c.011-.001-.162-.053-.176-.069,0,0,0,.001.002.004.066.124.152.574.203,1.096s.054.981.013,1.115c0,.003-.001.004.018-.026-.009.011.15-.074.14-.072m.693-2.047c.012-.001-.158-.052-.166-.063,0,0,.001.002.004.007.071.133.158.575.208,1.085s.051.961.007,1.104c-.001.005-.002.007.013-.016-.004.009.147-.071.135-.07m.693-2.047c.013-.001-.143-.042-.156-.056.014.019.047.095.086.25.054.219.102.523.132.834.049.497.047.941,0,1.093-.002.008-.004.011.008-.007-.005.01.144-.068.13-.067m.693-2.047c.014-.001-.139-.041-.146-.05.014.018.049.092.088.245.057.218.105.52.135.831.048.486.044.921-.004,1.082-.003.011-.006.016.004.003-.007.012.141-.065.124-.064m.693-2.047c.019-.002-.145-.05-.137-.045,0,0,.005.007.013.021.083.155.171.574.217,1.048.03.31.04.615.025.839-.011.157-.032.235-.027.235-.013.014.127-.053.11-.051m.693-2.047c.022-.002-.14-.05-.127-.04.072.085.182.513.236,1.062.03.31.039.614.021.837-.013.156-.036.232-.033.235-.015.015.122-.049.104-.048m-28.859,38.656c1.537,1.537,3.659,2.489,5.999,2.489h29.411c2.34,0,4.462-.952,5.999-2.489s2.489-3.66,2.489-6.001v-29.411c0-2.117-.779-4.055-2.065-5.543.654-.612,1.18-1.329,1.537-2.122.34-.755.528-1.577.528-2.436v-.528s0-19.747,0-19.747v-1.723c0-2.005-.813-3.821-2.127-5.135s-3.13-2.127-5.135-2.127h-31.864c-2.005,0-3.821.813-5.135,2.127s-2.127,3.13-2.127,5.135v1.723s0,19.748,0,19.748v.527c0,.859.187,1.681.528,2.435.359.795.886,1.515,1.537,2.121-1.285,1.488-2.064,3.426-2.064,5.542v29.411c0,2.341.953,4.464,2.489,6.001Z" style="fill:none; stroke:#000001; stroke-linecap:round; stroke-linejoin:round; stroke-width:.5px;"/></g><path d="m385.81,43.976h29.411c4.547,0,8.238,3.691,8.238,8.238v29.412c0,4.547-3.691,8.238-8.238,8.238h-29.409c-4.548,0-8.24-3.692-8.24-8.24v-29.411c0-4.547,3.691-8.238,8.238-8.238Z" style="fill:#d3d5d6; stroke:#000001; stroke-linecap:round; stroke-linejoin:round; stroke-width:.5px;"/><path d="m388.484,81.166c-1.222,0-2.213-.991-2.213-2.213v-24.07c0-1.219.988-2.208,2.208-2.208h24.075c1.219,0,2.208.988,2.208,2.208v24.076c0,1.219-.988,2.208-2.208,2.208h-24.069Z" style="fill:#d3d5d6; stroke:#000001; stroke-linecap:round; stroke-linejoin:round; stroke-width:.5px;"/><rect x="390.849" y="57.253" width="19.334" height="19.335" rx="1.371" ry="1.371" style="fill:#f2a900; stroke:#12171d; stroke-linecap:round; stroke-linejoin:round; stroke-width:.75px;"/><rect x="395.347" y="60.785" width="1.522" height="6.005" style="fill:none; stroke:#12171d; stroke-linecap:round; stroke-linejoin:round; stroke-width:.5px;"/><rect x="404.162" y="61.471" width="1.522" height="4.634" style="fill:none; stroke:#12171d; stroke-linecap:round; stroke-linejoin:round; stroke-width:.5px;"/><path d="m402.423,74.615h-1.907s-1.907,0-1.907,0v-1.907c0-1.053.854-1.907,1.907-1.907s1.907.854,1.907,1.907v1.907Z" style="fill:none; stroke:#12171d; stroke-linecap:round; stroke-linejoin:round; stroke-width:.5px;"/><path d="m388.421,50.086h.006s0-3.079,0-3.079h24.169v3.079s.008,0,.008,0c2.623,0,4.749,2.126,4.749,4.749v24.166c0,2.632-2.134,4.766-4.766,4.766h-24.149c-2.632,0-4.766-2.134-4.766-4.766v-24.166c0-2.623,2.126-4.749,4.749-4.749Z" style="fill:none; stroke:#000001; stroke-linecap:round; stroke-linejoin:round; stroke-width:.5px;"/><path d="m384.584,13.105h31.864c3.87,0,7.012,3.142,7.012,7.012v21.471c0,3.87-3.142,7.012-7.012,7.012h-31.862c-3.871,0-7.013-3.143-7.013-7.013v-21.47c0-3.87,3.142-7.012,7.012-7.012Z" style="fill:#d3d5d6; stroke:#000001; stroke-linecap:round; stroke-linejoin:round; stroke-width:.5px;"/><path d="m387.45,16.507h26.132s0-1.152,0-1.152h2.295c4.188,0,7.582,2.903,7.582,6.484v20.274c0,3.582-3.395,6.486-7.584,6.486h-30.721c-4.188,0-7.582-2.903-7.582-6.484v-20.275c0-3.581,3.395-6.484,7.582-6.484h2.295v1.152Z" style="fill:#d3d5d6; stroke:#000001; stroke-linecap:round; stroke-linejoin:round; stroke-width:.5px;"/><path d="m385.154,47.295c-3.34,0-6.057-2.323-6.057-5.18v-20.275c0-2.856,2.717-5.18,6.057-5.18h.769v1.151s29.184,0,29.184,0v-1.151h.769c3.34,0,6.057,2.323,6.057,5.18v20.273c0,2.856-2.718,5.181-6.058,5.181h-30.721Z" style="fill:#d3d5d6; stroke:#000001; stroke-linecap:round; stroke-linejoin:round; stroke-width:.5px;"/><path d="m413.581,15.355l-.12-.392c-.148-.481-.657-.817-1.239-.817h-23.413c-.582,0-1.091.336-1.239.817l-.12.392" style="fill:none; stroke:#000001; stroke-linecap:round; stroke-linejoin:round; stroke-width:.5px;"/><path d="m386.271,39.016v-13.861c0-1.758,1.425-3.183,3.183-3.183h22.124c1.758,0,3.183,1.425,3.183,3.183v13.869c0,1.758-1.425,3.183-3.183,3.183h-22.116c-1.763,0-3.191-1.429-3.191-3.191Z" style="fill:#d3d5d6; stroke:#000001; stroke-linecap:round; stroke-linejoin:round; stroke-width:.5px;"/><rect x="388.712" y="23.706" width="23.608" height="16.768" rx="1.15" ry="1.15" style="fill:#d3d5d6; stroke:#000001; stroke-linecap:round; stroke-linejoin:round; stroke-width:.5px;"/><path d="m399.32,49.219h-7.948c-.264,0-.264-2.545,0-2.545h7.948c.196,0,.196,2.545,0,2.545Z" style="fill:#fff; stroke:#000001; stroke-linecap:round; stroke-linejoin:round; stroke-width:.5px;"/><path d="m398.76,46.674c-.184-.018-.434,2.526-.25,2.545" style="fill:none; stroke:#000001; stroke-linecap:round; stroke-linejoin:round; stroke-width:.5px;"/><path d="m397.849,46.674c-.194-.019-.443,2.526-.25,2.545" style="fill:none; stroke:#000001; stroke-linecap:round; stroke-linejoin:round; stroke-width:.5px;"/><path d="m396.938,46.674c-.204-.02-.453,2.525-.25,2.545" style="fill:none; stroke:#000001; stroke-linecap:round; stroke-linejoin:round; stroke-width:.5px;"/><path d="m396.027,46.674c-.213-.021-.463,2.524-.25,2.545" style="fill:none; stroke:#000001; stroke-linecap:round; stroke-linejoin:round; stroke-width:.5px;"/><path d="m395.116,46.674c-.223-.022-.472,2.523-.25,2.545" style="fill:none; stroke:#000001; stroke-linecap:round; stroke-linejoin:round; stroke-width:.5px;"/><path d="m394.205,46.674c-.233-.023-.482,2.522-.25,2.545" style="fill:none; stroke:#000001; stroke-linecap:round; stroke-linejoin:round; stroke-width:.5px;"/><path d="m393.294,46.674c-.242-.024-.492,2.521-.25,2.545" style="fill:none; stroke:#000001; stroke-linecap:round; stroke-linejoin:round; stroke-width:.5px;"/><path d="m392.383,46.674c-.252-.025-.501,2.52-.25,2.545" style="fill:none; stroke:#000001; stroke-linecap:round; stroke-linejoin:round; stroke-width:.5px;"/><path d="m409.55,49.219h-7.948c-.188,0-.188-2.545,0-2.545h7.948c.3,0,.3,2.545,0,2.545Z" style="fill:#fff; stroke:#000001; stroke-linecap:round; stroke-linejoin:round; stroke-width:.5px;"/><path d="m402.189,46.674c.195-.019.445,2.525.25,2.545" style="fill:none; stroke:#000001; stroke-linecap:round; stroke-linejoin:round; stroke-width:.5px;"/><path d="m403.083,46.674c.217-.021.466,2.523.25,2.545" style="fill:none; stroke:#000001; stroke-linecap:round; stroke-linejoin:round; stroke-width:.5px;"/><path d="m403.977,46.674c.238-.023.487,2.521.25,2.545" style="fill:none; stroke:#000001; stroke-linecap:round; stroke-linejoin:round; stroke-width:.5px;"/><path d="m404.87,46.674c.259-.025.508,2.519.25,2.545" style="fill:none; stroke:#000001; stroke-linecap:round; stroke-linejoin:round; stroke-width:.5px;"/><path d="m405.764,46.674c.28-.027.53,2.517.25,2.545" style="fill:none; stroke:#000001; stroke-linecap:round; stroke-linejoin:round; stroke-width:.5px;"/><path d="m406.658,46.674c.301-.03.551,2.515.25,2.545" style="fill:none; stroke:#000001; stroke-linecap:round; stroke-linejoin:round; stroke-width:.5px;"/><path d="m407.552,46.674c.322-.032.572,2.513.25,2.545" style="fill:none; stroke:#000001; stroke-linecap:round; stroke-linejoin:round; stroke-width:.5px;"/><path d="m408.445,46.674c.343-.034.593,2.511.25,2.545" style="fill:none; stroke:#000001; stroke-linecap:round; stroke-linejoin:round; stroke-width:.5px;"/></g><g id="uuid-788e4bbc-109a-40c6-ad06-bdecfe84437d"><circle cx="359.395" cy="68.111" r="5.958" style="fill:#000001; stroke-width:0px;"/><path d="m359.395,62.141c-2.833,0-5.129,2.296-5.129,5.129v1.682c0,2.833,2.296,5.129,5.129,5.129s5.129-2.296,5.129-5.129v-1.682c0-2.833-2.296-5.129-5.129-5.129Z" style="fill:#000001; stroke-width:0px;"/><path d="m358.705,66.536c-.144.097-.328.204-.553.322l-.59-.954c.344-.188.652-.386.927-.595s.527-.441.759-.697h1.301v6.721h-1.329v-5.195c-.2.169-.371.302-.515.398Z" style="fill:#fff; stroke-width:0px;"/><circle cx="359.509" cy="198.077" r="5.958" style="fill:#000001; stroke-width:0px;"/><path d="m359.509,192.107c-3.212,0-5.816,2.604-5.816,5.816v.307c0,3.212,2.604,5.816,5.816,5.816s5.816-2.604,5.816-5.816v-.307c0-3.212-2.604-5.816-5.816-5.816Z" style="fill:#000001; stroke-width:0px;"/><path d="m356.999,200.241l2.33-2.181c.219-.199.402-.392.553-.575.148-.185.264-.357.346-.52.082-.163.121-.315.121-.459v-.084c0-.225-.086-.409-.256-.553-.172-.144-.389-.215-.652-.215-.373,0-.66.081-.859.243-.201.162-.332.439-.395.833l-1.18-.374c.102-.6.365-1.062.797-1.391.43-.327.977-.491,1.637-.491.418,0,.797.075,1.133.225.338.149.604.368.801.655s.295.627.295,1.021c0,.324-.064.635-.191.931-.129.297-.293.568-.492.814-.199.247-.428.485-.684.716l-1.441,1.292h2.855v1.17h-4.717v-1.058Z" style="fill:#fff; stroke-width:0px;"/></g></svg>