<?xml version="1.0" encoding="UTF-8"?><svg xmlns="http://www.w3.org/2000/svg" width="325" height="243.444" xmlns:xlink="http://www.w3.org/1999/xlink" viewBox="0 0 325 243.444"><defs><clipPath id="uuid-c67025bb-0206-4b84-a691-a4b3d5ba0837"><rect x="73.505" y="146.578" width="51.811" height="68.352" style="fill:none; stroke-width:0px;"/></clipPath></defs><g id="uuid-7851bd35-cef5-46bc-9dec-5fe192c3bdd8"><path d="m241.348,112.627s.027,3.427-.925,3.526-32.98,0-32.98,0" style="fill:none; stroke:#a7abae; stroke-width:.5px;"/><path d="m240.423,116.153c0,1.084-.591,2.398-1.511,2.398h-26.567" style="fill:none; stroke:#a7abae; stroke-width:.5px;"/><line x1="244.755" y1="120.104" x2="242.263" y2="112.416" style="fill:none; stroke:#a7abae; stroke-width:.5px;"/><line x1="236.757" y1="126.907" x2="233.878" y2="118.551" style="fill:none; stroke:#a7abae; stroke-width:.5px;"/><line x1="246.192" y1="115.143" x2="244.314" y2="109.214" style="fill:none; stroke:#a7abae; stroke-width:.5px;"/><path d="m82.496,112.627s-.027,3.427.925,3.526,32.98,0,32.98,0" style="fill:none; stroke:#a7abae; stroke-width:.5px;"/><path d="m83.421,116.153c0,1.084.591,2.398,1.511,2.398s26.567,0,26.567,0" style="fill:none; stroke:#a7abae; stroke-width:.5px;"/><line x1="79.09" y1="120.104" x2="81.581" y2="112.416" style="fill:none; stroke:#a7abae; stroke-width:.5px;"/><line x1="87.088" y1="126.907" x2="89.966" y2="118.551" style="fill:none; stroke:#a7abae; stroke-width:.5px;"/><line x1="77.652" y1="115.143" x2="79.531" y2="109.214" style="fill:none; stroke:#a7abae; stroke-width:.5px;"/><path d="m249.217,106.92c-2.609-7.338-.313-18.462.349-26.043.954-9.069,3.415-30.207,4.102-38.99.267-3.725,1.008-9.321.923-13.024-.17-8.676-.501-17.504-2.911-25.89,2.451,8.377,2.825,17.209,3.036,25.889.104,3.684-.611,9.31-.861,13.039-.634,8.676-3.017,30.061-3.915,39.012-.373,4.412-1.934,15.147-1.405,19.488.168,2.149.427,4.338,1.149,6.337l-.466.182h0Z" style="fill:#d3d5d6; stroke-width:0px;"/><path d="m74.161,106.738c2.579-7.199.365-18.358-.257-25.825-.911-9.076-3.271-30.223-3.915-39.012-.249-3.729-.965-9.336-.861-13.039.211-8.68.585-17.512,3.036-25.889-1.271,4.173-1.847,8.516-2.276,12.844-.462,5.417-.77,10.873-.574,16.308.179,2.019.677,7.66.863,9.762.675,8.671,3.161,30.046,4.102,38.99.66,7.583,2.958,18.669.349,26.043,0,0-.466-.181-.466-.181h0Z" style="fill:#d3d5d6; stroke-width:0px;"/><path d="m238.596,79.36l4.308-33.388c-.047-1.888,1.177-3.957,3.079-4.629,0,0-.078.103-.078.103l.954-9.679c.226-1.623-.468-3.166-.899-4.704-.532-1.549-.667-3.194-.659-4.813-.36-6.46-.896-12.966-2.379-19.278.81,3.142,1.257,6.364,1.658,9.58.381,3.221.684,6.451.846,9.693-.114,2.476.669,4.769,1.392,7.103.214.78.343,1.622.227,2.434l-.892,9.688-.007.074-.071.029c-1.806.67-2.927,2.545-2.887,4.433,0,0-4.095,33.415-4.095,33.415l-.496-.062h0Z" style="fill:#d3d5d6; stroke-width:0px;"/><path d="m84.753,79.423s-4.095-33.42-4.096-33.423c.04-1.886-1.085-3.755-2.886-4.425-.075-.032-.074-.013-.078-.104,0,0-.892-9.688-.892-9.688-.22-1.646.49-3.22.936-4.764.541-1.549.679-3.142.683-4.773.402-6.464.979-12.967,2.503-19.272-.789,3.147-1.216,6.37-1.596,9.587-.36,3.221-.643,6.453-.783,9.691.132,2.464-.642,4.813-1.351,7.14-.207.782-.325,1.573-.207,2.376l.954,9.679-.078-.103c1.902.669,3.127,2.744,3.079,4.629,0,0,4.308,33.388,4.308,33.388l-.496.062h0Z" style="fill:#d3d5d6; stroke-width:0px;"/><path d="m175.582,66.457c.285-4.735.783-11.143.463-15.7s-1.317-14.525-1.602-15.878-.854-3.062-3.026-3.275-7.85-.32-9.494-.32" style="fill:none; stroke:#d3d5d6;"/><path d="m175.848,48.261c0,1.347-.658,3.244-2.545,3.244h-11.381" style="fill:none; stroke:#d3d5d6; stroke-width:.5px;"/><path d="m161.922,52.538h11.498c.272,0,.489.223.476.494-.098,2.051-.518,9.954-1.296,13.647" style="fill:none; stroke:#d3d5d6; stroke-width:.5px;"/><path d="m161.922,59.942h10.222c.245,0,.438.207.415.451-.115,1.232-.466,4.672-.929,6.286" style="fill:none; stroke:#d3d5d6; stroke-width:.5px;"/><polyline points="161.922 53.463 165.329 53.463 166.29 53.855 172.6 53.855 173.874 53.463" style="fill:none; stroke:#d3d5d6; stroke-width:.5px;"/><polyline points="161.922 54.994 165.329 54.994 166.29 55.385 172.6 55.385 173.694 55.049" style="fill:none; stroke:#d3d5d6; stroke-width:.5px;"/><polyline points="161.922 56.525 165.329 56.525 166.29 56.916 172.6 56.916 173.694 56.58" style="fill:none; stroke:#d3d5d6; stroke-width:.5px;"/><polyline points="161.922 57.877 165.329 57.877 166.29 58.269 172.6 58.269 173.599 57.962" style="fill:none; stroke:#d3d5d6; stroke-width:.5px;"/><path d="m179.387,66.679c-1.431-4.621-2.576-9.41-2.126-15.174s1.309-11.244,1.513-13.125,1.39-5.234,2.903-6.461c-1.145-1.268-1.472-3.394-1.063-5.602s.9-4.376,1.431-5.93.736-3.803,4.662-5.97,8.22-3.271,13.618-3.271l.409-.654s-4.008-4.048-4.008-7.545" style="fill:none; stroke:#d3d5d6;"/><path d="m200.733,10.491s1.513-3.885,1.881-7.545" style="fill:none; stroke:#d3d5d6;"/><path d="m226.174,2.946s-.594,4.643-3.748,6.869c0,0,.111.891.445,1.299,4.639.297,11.653,2.041,13.695,6.235s1.93,11.282,1.819,12.099-.111,2.487-2.338,3.266l1.15,2.895s1.039,2.858.557,7.163-3.31,21.265-3.31,21.265c0,0,.051,4.763-.212,5.889" style="fill:none; stroke:#d3d5d6;"/><path d="m236.046,32.714c-3.117-.594-6.977-2.115-7.868-3.711s-2.635-4.379-2.635-4.379c0,0-.742-1.67-3.117-1.781s-21.692,0-21.692,0c0,0-2.988-.223-4.88,1.819s-3.451,4.082-3.451,4.082c0,0-1.41,1.707-2.858,2.153l-4.825,1.485s-2.441.431-3.042-.461" style="fill:none; stroke:#d3d5d6;"/><path d="m184.719,32.38c-1.519.098-2.672-.854-1.967-4.008.705-3.155,1.522-5.864,1.522-5.864,0,0,.965-3.229,4.305-4.491s8.684-3.117,10.057-3.674,3.155-1.596,3.674-3.414,1.819-7.956,1.819-7.956" style="fill:none; stroke:#d3d5d6; stroke-width:.5px;"/><path d="m207.395,2.946c-.779,2.861-1.336,9.022-1.41,9.95s.594,2.078,1.893,2.115,6.012.074,7.014,0,2.338-.371,2.487-2.004-.037-7.689-.334-10.061" style="fill:none; stroke:#d3d5d6; stroke-width:.25px;"/><path d="m210.253,2.973s-.273,5.178-.398,7.466c-.026.474.347.87.822.878.674.011,1.611.022,2.321.012.441-.006.798-.356.819-.797.084-1.776.273-6.126.185-7.586" style="fill:none; stroke:#d3d5d6; stroke-width:.25px;"/><path d="m213.631,11.015c1.22,1.06,2.706,2.604,3.211,3.269" style="fill:none; stroke:#d3d5d6; stroke-width:.25px;"/><path d="m210.049,11.015c-1.005.581-3.209,2.3-3.843,2.938" style="fill:none; stroke:#d3d5d6; stroke-width:.25px;"/><path d="m220.467,2.973s.475,6.358.95,8.042,1.426,2.662,3.634,3.613c2.208.95,7.632,3.103,8.75,3.578s2.795,2.376,3.047,5.004.307,6.234.307,6.933.052,2.475-1.987,2.384" style="fill:none; stroke:#d3d5d6; stroke-width:.25px;"/><path d="m179.024,65.478c-.626-2.27-.759-7.654-.392-10.996s1.91-12.451,2.204-14.251.992-4.003,3.893-4.995,5.436-1.69,6.648-2.094,2.865-1.432,3.893-2.498,1.726-1.726,1.726-1.726c0,0,1.69-1.726,4.518-1.8s16.858-.073,18.548,0,3.452.845,4.775,2.351,1.373,2.571,3.974,3.636,4.437,1.726,5.282,2.057,4.014,1.664,3.66,7.609" style="fill:none; stroke:#d3d5d6; stroke-width:.25px;"/><path d="m187.448,66.679c-1.139-1.949-2.314-4.699-2.277-7.071s1.726-16.769,1.836-17.504c0,0,.624-2.461,2.755-3.379s6.408-2.938,10.972-3.085,19.439-.037,20.688,0,6.464,2.167,7.933,3.122,1.8,2.498,1.836,4.003-1.065,14.912-1.212,16.124-.735,4.077-1.69,5.473-1.62,2.554-1.62,2.554" style="fill:none; stroke:#d3d5d6; stroke-width:.25px;"/><path d="m222.425,9.816c-.359-1.458-.938-5.697-.965-6.869" style="fill:none; stroke:#d3d5d6;"/><path d="m200.324,11.145c-1.38,1.095-2.909,1.775-6.205,2.808s-8.866,2.72-10.592,5.544-2.555,8.954-2.624,11.155" style="fill:none; stroke:#d3d5d6; stroke-width:.5px;"/><path d="m222.871,11.114c.592.929,2.161,1.635,3.848,2.224s5.374,2.001,6.826,2.628,3.319,1.654,3.733,3.215" style="fill:none; stroke:#d3d5d6; stroke-width:.5px;"/><line x1="161.922" y1="20.899" x2="182.045" y2="20.899" style="fill:none; stroke:#d3d5d6; stroke-width:.5px;"/><line x1="183.574" y1="16.946" x2="183.574" y2="2.946" style="fill:none; stroke:#d3d5d6; stroke-width:.5px;"/><path d="m161.922,25.274h14.226s3.884-.184,4.861-.94" style="fill:none; stroke:#d3d5d6; stroke-width:.5px;"/><path d="m236.565,17.349s.513-10.617,0-14.403" style="fill:none; stroke:#d3d5d6; stroke-width:.5px;"/><path d="m148.263,66.457c-.285-4.735-.783-11.143-.463-15.7s1.317-14.525,1.602-15.878.854-3.062,3.026-3.275,7.85-.32,9.494-.32" style="fill:none; stroke:#d3d5d6;"/><path d="m147.996,48.261c0,1.347.658,3.244,2.545,3.244s11.381,0,11.381,0" style="fill:none; stroke:#d3d5d6; stroke-width:.5px;"/><path d="m161.922,52.538h-11.498c-.272,0-.489.223-.476.494.098,2.051.518,9.954,1.296,13.647" style="fill:none; stroke:#d3d5d6; stroke-width:.5px;"/><path d="m161.922,59.942h-10.222c-.245,0-.438.207-.415.451.115,1.232.466,4.672.929,6.286" style="fill:none; stroke:#d3d5d6; stroke-width:.5px;"/><polyline points="161.922 53.463 158.515 53.463 157.554 53.855 151.245 53.855 149.97 53.463" style="fill:none; stroke:#d3d5d6; stroke-width:.5px;"/><polyline points="161.922 54.994 158.515 54.994 157.554 55.385 151.245 55.385 150.15 55.049" style="fill:none; stroke:#d3d5d6; stroke-width:.5px;"/><polyline points="161.922 56.525 158.515 56.525 157.554 56.916 151.245 56.916 150.15 56.58" style="fill:none; stroke:#d3d5d6; stroke-width:.5px;"/><polyline points="161.922 57.877 158.515 57.877 157.554 58.269 151.245 58.269 150.245 57.962" style="fill:none; stroke:#d3d5d6; stroke-width:.5px;"/><path d="m144.457,66.679c1.431-4.621,2.576-9.41,2.126-15.174-.45-5.764-1.309-11.244-1.513-13.125s-1.39-5.234-2.903-6.461c1.145-1.268,1.472-3.394,1.063-5.602s-.9-4.376-1.431-5.93-.736-3.803-4.662-5.97-8.22-3.271-13.618-3.271l-.409-.654s4.008-4.048,4.008-7.545" style="fill:none; stroke:#d3d5d6;"/><path d="m123.111,10.491s-1.513-3.885-1.881-7.545" style="fill:none; stroke:#d3d5d6;"/><path d="m97.67,2.946s.594,4.643,3.748,6.869c0,0-.111.891-.445,1.299-4.639.297-11.653,2.041-13.695,6.235s-1.93,11.282-1.819,12.099.111,2.487,2.338,3.266l-1.15,2.895s-1.039,2.858-.557,7.163c.482,4.305,3.31,21.265,3.31,21.265,0,0-.051,4.763.212,5.889" style="fill:none; stroke:#d3d5d6;"/><path d="m87.799,32.714c3.117-.594,6.977-2.115,7.868-3.711s2.635-4.379,2.635-4.379c0,0,.742-1.67,3.117-1.781s21.692,0,21.692,0c0,0,2.988-.223,4.88,1.819s3.451,4.082,3.451,4.082c0,0,1.41,1.707,2.858,2.153l4.825,1.485s2.441.431,3.042-.461" style="fill:none; stroke:#d3d5d6;"/><path d="m139.125,32.38c1.519.098,2.672-.854,1.967-4.008s-1.522-5.864-1.522-5.864c0,0-.965-3.229-4.305-4.491s-8.684-3.117-10.057-3.674-3.155-1.596-3.674-3.414-1.819-7.956-1.819-7.956" style="fill:none; stroke:#d3d5d6; stroke-width:.5px;"/><path d="m116.449,2.946c.779,2.861,1.336,9.022,1.41,9.95s-.594,2.078-1.893,2.115-6.012.074-7.014,0-2.338-.371-2.487-2.004.037-7.689.334-10.061" style="fill:none; stroke:#d3d5d6; stroke-width:.25px;"/><path d="m113.592,2.973s.273,5.178.398,7.466c.026.474-.347.87-.822.878-.674.011-1.611.022-2.321.012-.441-.006-.798-.356-.819-.797-.084-1.776-.273-6.126-.185-7.586" style="fill:none; stroke:#d3d5d6; stroke-width:.25px;"/><path d="m110.214,11.015c-1.22,1.06-2.706,2.604-3.211,3.269" style="fill:none; stroke:#d3d5d6; stroke-width:.25px;"/><path d="m113.796,11.015c1.005.581,3.209,2.3,3.843,2.938" style="fill:none; stroke:#d3d5d6; stroke-width:.25px;"/><path d="m103.378,2.973s-.475,6.358-.95,8.042-1.426,2.662-3.634,3.613-7.632,3.103-8.75,3.578-2.795,2.376-3.047,5.004c-.252,2.628-.307,6.234-.307,6.933,0,.699-.052,2.475,1.987,2.384" style="fill:none; stroke:#d3d5d6; stroke-width:.25px;"/><path d="m144.82,65.478c.626-2.27.759-7.654.392-10.996s-1.91-12.451-2.204-14.251-.992-4.003-3.893-4.995-5.436-1.69-6.648-2.094-2.865-1.432-3.893-2.498-1.726-1.726-1.726-1.726c0,0-1.69-1.726-4.518-1.8s-16.858-.073-18.548,0-3.452.845-4.775,2.351-1.373,2.571-3.974,3.636-4.437,1.726-5.282,2.057-4.014,1.664-3.66,7.609" style="fill:none; stroke:#d3d5d6; stroke-width:.25px;"/><path d="m136.397,66.679c1.139-1.949,2.314-4.699,2.277-7.071s-1.726-16.769-1.836-17.504c0,0-.624-2.461-2.755-3.379s-6.408-2.938-10.972-3.085-19.439-.037-20.688,0-6.464,2.167-7.933,3.122-1.8,2.498-1.836,4.003,1.065,14.912,1.212,16.124.735,4.077,1.69,5.473,1.62,2.554,1.62,2.554" style="fill:none; stroke:#d3d5d6; stroke-width:.25px;"/><path d="m101.419,9.816c.359-1.458.938-5.697.965-6.869" style="fill:none; stroke:#d3d5d6;"/><path d="m123.52,11.145c1.38,1.095,2.909,1.775,6.205,2.808s8.866,2.72,10.592,5.544,2.555,8.954,2.624,11.155" style="fill:none; stroke:#d3d5d6; stroke-width:.5px;"/><path d="m100.973,11.114c-.592.929-2.161,1.635-3.848,2.224s-5.374,2.001-6.826,2.628-3.319,1.654-3.733,3.215" style="fill:none; stroke:#d3d5d6; stroke-width:.5px;"/><line x1="161.922" y1="20.899" x2="141.799" y2="20.899" style="fill:none; stroke:#d3d5d6; stroke-width:.5px;"/><line x1="140.27" y1="16.946" x2="140.27" y2="2.946" style="fill:none; stroke:#d3d5d6; stroke-width:.5px;"/><path d="m161.922,25.274h-14.226s-3.884-.184-4.861-.94" style="fill:none; stroke:#d3d5d6; stroke-width:.5px;"/><path d="m87.279,17.349s-.513-10.617,0-14.403" style="fill:none; stroke:#d3d5d6; stroke-width:.5px;"/><path d="m161.589,221.749h8.498c1.207,0,3.091-.58,3.091-2.125s-.341-4.733-.341-5.602-.918-2.222-3.091-2.222h-8.123" style="fill:none; stroke:#a7abae; stroke-width:.5px;"/><path d="m161.589,219.134h7.901c.853,0,1.449-.512,1.449-1.563v-3.069c0-.455-.227-1.393-1.393-1.393h-7.958" style="fill:none; stroke:#a7abae; stroke-width:.5px;"/><path d="m161.589,209.727h10.8c1.421,0,4.376.71,4.376,3.382v7.218c0,.853.512,2.046,3.382,2.046h74.428c1.762,0,3.012-.512,2.501-2.842s-8.156-32.909-8.156-32.909c0,0-.284-1.25-1.506-1.421" style="fill:none; stroke:#a7abae; stroke-width:.5px;"/><path d="m162.396,163.357v21.672c0,.096.077.173.173.173h89.127c.134,0,.244-.109.244-.244v-1.281l-5.515-20.629c-.123-.459-.539-.779-1.015-.779h-81.637s-1.376.145-1.376,1.087Z" style="fill:none; stroke:#a7abae;"/><line x1="162.569" y1="183.859" x2="251.939" y2="183.859" style="fill:none; stroke:#a7abae; stroke-width:.5px;"/><path d="m164.928,164.971v15.246c0,.657.474,2.334,2.298,2.334h78.857c1.386,0,2.991-.547,2.517-2.225s-3.684-13.787-4.049-14.954-.511-1.97-2.808-1.97h-74.407c-1.204,0-2.407.657-2.407,1.568Z" style="fill:none; stroke:#a7abae; stroke-width:.5px;"/><path d="m161.579,224.546h95.612c2.309,0,4.121-1.154,3.627-3.542s-9.123-35.801-9.123-35.801" style="fill:none; stroke:#a7abae; stroke-width:.5px;"/><path d="m161.579,226.11h96.933c2.043,0,5.014-.872,5.082-2.579l.068-1.708s.102-1.434,1.332-1.434h6.762" style="fill:none; stroke:#a7abae; stroke-width:.25px;"/><path d="m161.565,228.654h96.121c1.605,0,3.176.443,3.517,2.048s.854,4.644.922,5.362.171,2.493-1.912,2.493h-98.682" style="fill:none; stroke:#a7abae; stroke-width:.25px;"/><path d="m285.681,237.71c-2.313-.116-2.93-.119-3.74.846s-6.284,2.557-7.21-.899-2.975-10.164-2.975-10.164c0,0,2.32-15.499,2.474-17.156s.116-4.27-.54-6.549-13.455-42.491-13.841-43.57-1.041-1.157-1.349.81" style="fill:none; stroke:#a7abae; stroke-width:.5px;"/><polygon points="258.748 161.066 256.727 176.217 258.254 160.988 258.748 161.066 258.748 161.066" style="fill:#a7abae; stroke-width:0px;"/><path d="m272.518,222.374l-13.477-44.344s-2.66-1.08-2.892-1.812-12.491-52.279-12.491-52.279" style="fill:none; stroke:#a7abae; stroke-width:.5px;"/><path d="m234.443,130.146s.578-2.467,2.313-3.239,6.901-2.969,6.901-2.969c0,0,3.855-13.571,4.395-14.843s1.272-2.583,3.007-3.431,12.723-5.59,12.723-5.59l2.313-10.949" style="fill:none; stroke:#a7abae; stroke-width:.5px;"/><path d="m291.618,212.573s-6.67.116-9.677,0c-3.007-.116-3.663-2.352-3.663-2.352,0,0-29.147-95.112-29.802-97.734s1.677-3.853.973-5.659" style="fill:none; stroke:#a7abae; stroke-width:.5px;"/><line x1="279.906" y1="212.054" x2="275.933" y2="239.281" style="fill:none; stroke:#a7abae; stroke-width:.5px;"/><path d="m260.059,206.562s-2.518-8.759-2.867-10.051.972-2.039,2.465-2.039,3.274.89,3.704,2.297,2.585,8.73,2.929,9.793-.89,2.01-2.24,2.068-3.586-.657-3.992-2.068Z" style="fill:none; stroke:#a7abae; stroke-width:.5px;"/><path d="m257.47,197.506c.053-.009.097-.009.149-.009,1.492,0,3.273.886,3.703,2.299.088.281.246.798.439,1.457" style="fill:none; stroke:#a7abae; stroke-width:.5px;"/><path d="m262.331,203.166c.57,1.93,1.237,4.168,1.632,5.467" style="fill:none; stroke:#a7abae; stroke-width:.5px;"/><path d="m258.501,201.128l5.406.207s.488.718.603,1.608c-.258.976-.66,1.579-1.177.258l-3.503-.115-.619.518" style="fill:none; stroke:#a7abae; stroke-width:.5px;"/><line x1="259.041" y1="178.029" x2="260.901" y2="163.464" style="fill:none; stroke:#a7abae; stroke-width:.5px;"/><path d="m259.496,148.828c.558,1.827,3.125,3.154,6.121,3.399s7.032.55,11.068,0,8.393-4.28,8.996-11.312c.604-7.032.909-11.74.909-13.086s-.183-4.708-1.406-7.521c-1.223-2.813-13.33-29.168-14.186-30.452s-2.941-2.691-4.344,1.896l-1.954,8.255s-.673,2.629.122,4.464,2.201,4.831,2.201,4.831c0,0,.795,2.385-1.284,3.608s-11.618,5.259-11.618,5.259c0,0-2.463.88-2.546,4.659" style="fill:none; stroke:#a7abae; stroke-width:.5px;"/><path d="m267.757,111.93c.611-.428,1.834.795,2.752,3.18s8.5,25.009,9.723,29.29" style="fill:none; stroke:#a7abae; stroke-width:.25px;"/><path d="m254.121,118.167c-1.145.814-1.651,2.385-.734,5.32.917,2.935,5.87,18.589,6.421,20.362s1.468,3.608,5.503,4.403,9.233.673,11.435,0,5.626-3.119,5.87-7.949.367-7.534.306-10.157-.122-4.702-1.406-8.004-10.701-26.294-12.046-28.801-2.594-2.528-3.106-.364" style="fill:none; stroke:#a7abae; stroke-width:.25px;"/><path d="m256.727,117.051c-2.606.076-4.196-.535-4.624-2.003s-.978-4.28-1.162-5.381.183-2.14,2.446-2.385,7.827,0,9.172,0,3.296,1.533,4.094,4.833" style="fill:none; stroke:#a7abae; stroke-width:.5px;"/><path d="m251.582,112.91c1.132-1.167,3.554-1.843,6.283-1.623s5.002,1.281,5.94,2.606" style="fill:none; stroke:#a7abae; stroke-width:.5px;"/><path d="m162.621,154.659h2.113c.653,0,1.076.615,1.076,1.306v6.305" style="fill:none; stroke:#a7abae; stroke-width:.5px;"/><path d="m171.342,162.27v-7.111c0-1.114-.845-3.266-3.035-3.266h-2.497s-1.594.038-1.594-1.191v-30.227h47.882c2.519,0,9.098.72,15.472,2.673,0,0,2.313.565,3.393,3.495,1.079,2.93,7.248,24.468,7.094,24.468s-6.477.977-6.477.977c0,0-2.005.155-1.439,2.571s1.799,7.611,1.799,7.611" style="fill:none; stroke:#a7abae; stroke-width:.5px;"/><path d="m237.542,162.27s-1.182-4.681-1.439-5.658-.051-1.953,1.439-1.953h3.802" style="fill:none; stroke:#a7abae; stroke-width:.5px;"/><path d="m265.617,152.226s-1.628.286-1.107,1.799,16.217,47.527,16.217,47.527c0,0,.617,2.235,2.523,2.235h9.417" style="fill:none; stroke:#a7abae; stroke-width:.5px;"/><path d="m273.484,180.32h5.618c1.457,0,2.635.5,3.083,1.846s6.839,21.622,6.839,21.622" style="fill:none; stroke:#a7abae; stroke-width:.5px;"/><path d="m281.254,180.32c1.342-10.954,2.885-22.311,3.566-33.301-.014,11.183-1.56,22.318-3.566,33.301h0Z" style="fill:#a7abae; stroke-width:0px;"/><path d="m161.516,243.188h110.241c4.556,0,12.162.145,14.625-6.665,2.463-6.81,6.592-29.08,7.389-39.026.797-9.946,3.91-36.47,3.833-54.267" style="fill:none; stroke:#a7abae; stroke-width:.5px;"/><path d="m266.096,89.125c1.451-5.603,3.044-7.197,5.29-2.778s26.218,56.883,26.218,56.883c0,0,17.36-8.833,20.864-10.037" style="fill:none; stroke:#a7abae; stroke-width:.5px;"/><path d="m313.638,107.948s-10.863-18.211-12.711-22.879-7.1-24.303-7.587-31.41" style="fill:none; stroke:#a7abae; stroke-width:.5px;"/><path d="m266.654,66.005c1.432,3.019,2.668,6.129,3.972,9.2,1.233,2.827,2.952,6.753,6.673,6.202,3.328-.189,6.652-.556,9.973-.906l9.96-1.109c-3.308.467-6.622.894-9.941,1.275-3.32.377-6.637.774-9.979.99-.834.047-1.736.009-2.505-.36-2.36-1.12-3.311-3.817-4.333-6.025-1.298-3.082-2.476-6.206-3.82-9.266h0Z" style="fill:#a7abae; stroke-width:0px;"/><path d="m162.255,221.749s-7.291,0-8.498,0-3.091-.58-3.091-2.125c0-1.545.341-4.733.341-5.602s.918-2.222,3.091-2.222h8.123" style="fill:none; stroke:#a7abae; stroke-width:.5px;"/><path d="m162.255,219.134s-7.049,0-7.901,0-1.449-.512-1.449-1.563v-3.069c0-.455.227-1.393,1.393-1.393s7.958,0,7.958,0" style="fill:none; stroke:#a7abae; stroke-width:.5px;"/><path d="m162.255,209.727s-9.379,0-10.8,0-4.376.71-4.376,3.382,0,6.366,0,7.218c0,.853-.512,2.046-3.382,2.046-2.87,0-72.666,0-74.428,0s-3.012-.512-2.501-2.842,8.156-32.909,8.156-32.909c0,0,.284-1.25,1.506-1.421" style="fill:none; stroke:#a7abae; stroke-width:.5px;"/><path d="m161.448,163.357v21.672c0,.096-.077.173-.173.173h-89.127c-.134,0-.244-.109-.244-.244v-1.281s5.515-20.629,5.515-20.629c.123-.459.539-.779,1.015-.779h81.637s1.376.145,1.376,1.087Z" style="fill:none; stroke:#a7abae;"/><line x1="161.275" y1="183.859" x2="71.905" y2="183.859" style="fill:none; stroke:#a7abae; stroke-width:.5px;"/><path d="m158.917,164.971v15.246c0,.657-.474,2.334-2.298,2.334s-77.471,0-78.857,0-2.991-.547-2.517-2.225,3.684-13.787,4.049-14.954.511-1.97,2.808-1.97,73.203,0,74.407,0,2.407.657,2.407,1.568Z" style="fill:none; stroke:#a7abae; stroke-width:.5px;"/><path d="m162.265,224.546s-93.303,0-95.612,0-4.121-1.154-3.627-3.542,9.123-35.801,9.123-35.801" style="fill:none; stroke:#a7abae; stroke-width:.5px;"/><path d="m162.265,226.11s-94.133,0-96.933,0c-2.043,0-5.014-.872-5.082-2.579l-.068-1.708s-.102-1.434-1.332-1.434h-6.762" style="fill:none; stroke:#a7abae; stroke-width:.25px;"/><path d="m162.279,228.654s-94.516,0-96.121,0-3.176.443-3.517,2.048-.854,4.644-.922,5.362-.171,2.493,1.912,2.493,98.682,0,98.682,0" style="fill:none; stroke:#a7abae; stroke-width:.25px;"/><path d="m38.163,237.71c2.313-.116,2.93-.119,3.74.846s6.284,2.557,7.21-.899,2.975-10.164,2.975-10.164c0,0-2.32-15.499-2.474-17.156s-.116-4.27.54-6.549,13.455-42.491,13.841-43.57,1.041-1.157,1.349.81" style="fill:none; stroke:#a7abae; stroke-width:.5px;"/><polygon points="65.59 160.988 67.117 176.217 65.096 161.066 65.59 160.988 65.59 160.988" style="fill:#a7abae; stroke-width:0px;"/><path d="m51.326,222.374l13.477-44.344s2.66-1.08,2.892-1.812,12.491-52.279,12.491-52.279" style="fill:none; stroke:#a7abae; stroke-width:.5px;"/><path d="m89.401,130.146s-.578-2.467-2.313-3.239-6.901-2.969-6.901-2.969c0,0-3.855-13.571-4.395-14.843s-1.272-2.583-3.007-3.431-12.723-5.59-12.723-5.59l-2.313-10.949" style="fill:none; stroke:#a7abae; stroke-width:.5px;"/><path d="m32.226,212.573s6.67.116,9.677,0,3.663-2.352,3.663-2.352c0,0,29.147-95.112,29.802-97.734s-1.677-3.853-.973-5.659" style="fill:none; stroke:#a7abae; stroke-width:.5px;"/><line x1="43.939" y1="212.054" x2="47.912" y2="239.281" style="fill:none; stroke:#a7abae; stroke-width:.5px;"/><path d="m63.785,206.562s2.518-8.759,2.867-10.051-.972-2.039-2.465-2.039-3.274.89-3.704,2.297-2.585,8.73-2.929,9.793.89,2.01,2.24,2.068,3.586-.657,3.992-2.068Z" style="fill:none; stroke:#a7abae; stroke-width:.5px;"/><path d="m62.083,201.253c.193-.658.351-1.176.439-1.457.43-1.413,2.211-2.299,3.703-2.299.053,0,.097,0,.149.009" style="fill:none; stroke:#a7abae; stroke-width:.5px;"/><path d="m59.881,208.632c.395-1.299,1.062-3.536,1.632-5.467" style="fill:none; stroke:#a7abae; stroke-width:.5px;"/><path d="m65.343,201.128l-5.406.207s-.488.718-.603,1.608c.258.976.66,1.579,1.177.258l3.503-.115.619.518" style="fill:none; stroke:#a7abae; stroke-width:.5px;"/><line x1="64.804" y1="178.029" x2="62.944" y2="163.464" style="fill:none; stroke:#a7abae; stroke-width:.5px;"/><path d="m64.348,148.828c-.558,1.827-3.125,3.154-6.121,3.399s-7.032.55-11.068,0-8.393-4.28-8.996-11.312c-.604-7.032-.909-11.74-.909-13.086,0-1.345.183-4.708,1.406-7.521s13.33-29.168,14.186-30.452,2.941-2.691,4.344,1.896l1.954,8.255s.673,2.629-.122,4.464-2.201,4.831-2.201,4.831c0,0-.795,2.385,1.284,3.608s11.618,5.259,11.618,5.259c0,0,2.463.88,2.546,4.659" style="fill:none; stroke:#a7abae; stroke-width:.5px;"/><path d="m56.087,111.93c-.611-.428-1.834.795-2.752,3.18-.917,2.385-8.5,25.009-9.723,29.29" style="fill:none; stroke:#a7abae; stroke-width:.25px;"/><path d="m69.723,118.167c1.145.814,1.651,2.385.734,5.32s-5.87,18.589-6.421,20.362-1.468,3.608-5.503,4.403-9.233.673-11.435,0-5.626-3.119-5.87-7.949c-.245-4.831-.367-7.534-.306-10.157s.122-4.702,1.406-8.004,10.701-26.294,12.046-28.801c1.345-2.507,2.594-2.528,3.106-.364" style="fill:none; stroke:#a7abae; stroke-width:.25px;"/><path d="m67.117,117.051c2.606.076,4.196-.535,4.624-2.003s.978-4.28,1.162-5.381-.183-2.14-2.446-2.385-7.827,0-9.172,0-3.296,1.533-4.094,4.833" style="fill:none; stroke:#a7abae; stroke-width:.5px;"/><path d="m60.039,113.893c.939-1.325,3.212-2.387,5.94-2.606s5.151.456,6.283,1.623" style="fill:none; stroke:#a7abae; stroke-width:.5px;"/><path d="m161.223,154.659h-2.113c-.653,0-1.076.615-1.076,1.306,0,.692,0,6.305,0,6.305" style="fill:none; stroke:#a7abae; stroke-width:.5px;"/><path d="m152.502,162.27v-7.111c0-1.114.845-3.266,3.035-3.266h2.497s1.594.038,1.594-1.191v-30.227s-45.363,0-47.882,0-9.098.72-15.472,2.673c0,0-2.313.565-3.393,3.495s-7.248,24.468-7.094,24.468,6.477.977,6.477.977c0,0,2.005.155,1.439,2.571s-1.799,7.611-1.799,7.611" style="fill:none; stroke:#a7abae; stroke-width:.5px;"/><path d="m86.302,162.27s1.182-4.681,1.439-5.658.051-1.953-1.439-1.953h-3.802" style="fill:none; stroke:#a7abae; stroke-width:.5px;"/><path d="m58.227,152.226s1.628.286,1.107,1.799-16.217,47.527-16.217,47.527c0,0-.617,2.235-2.523,2.235s-9.417,0-9.417,0" style="fill:none; stroke:#a7abae; stroke-width:.5px;"/><path d="m50.36,180.32h-5.618c-1.457,0-2.635.5-3.083,1.846s-6.839,21.622-6.839,21.622" style="fill:none; stroke:#a7abae; stroke-width:.5px;"/><path d="m42.59,180.32c-2.005-10.983-3.551-22.118-3.566-33.301.679,10.982,2.224,22.356,3.566,33.301h0Z" style="fill:#a7abae; stroke-width:0px;"/><path d="m162.328,243.188s-105.685,0-110.241,0c-4.556,0-12.162.145-14.625-6.665-2.463-6.81-6.592-29.08-7.389-39.026s-3.91-36.47-3.833-54.267" style="fill:none; stroke:#a7abae; stroke-width:.5px;"/><path d="m57.748,89.125c-1.451-5.603-3.044-7.197-5.29-2.778s-26.218,56.883-26.218,56.883c0,0-17.36-8.833-20.864-10.037" style="fill:none; stroke:#a7abae; stroke-width:.5px;"/><path d="m243.53,93.865c-.01-.01-.01-.02-.01-.03-1.25-5.52-2.97-10.28-3.95-12.64-.34-1.12-1.24-2.86-1.24-2.86l-.44-2.63c-1.03-3.51-4-6.44-5.52-7.15-1.51-.71-5.73-1.88-7.85-1.88h-39.18c-.29,0-.57.1-.78.28-.14.12-.26.27-.33.44l-.66,1.44,2.15,22.4v3.36c.7.05,1.39.14,1.92.25,1.88-.36,5.02-.41,5.02-.41l.45,6.87.16,2.47.23,3.54.07,1.05.26,3.98c.04.56.47,1,1.02,1.06l5.5.57c.32.03.61.2.79.45.09.12.15.25.19.4.13.51.59.87,1.12.86,4.34-.09,22.25-.39,28.67-.54.36,0,.64-.3.64-.66v-.4c0-.34.27-.63.62-.66l9.39-.79c.42-.04.75-.38.78-.8l.04-.67.18-2.76c-.01-.19-.03-.39-.05-.59-.09-.84-.27-1.81-.46-2.64-.13-.57-.26-1.08-.35-1.45-.1-.39-.17-.62-.17-.62l-.35-1.81-.57-2.95h2.99c.31,0,.55-.28.5-.59-.23-1.32-.49-2.62-.78-3.89Z" style="fill:none; stroke:#000001; stroke-width:2px;"/><path d="m243.53,93.865c-.01-.01-.01-.02-.01-.03-1.25-5.52-2.97-10.28-3.95-12.64-.34-1.12-1.24-2.86-1.24-2.86l-.44-2.63c-1.03-3.51-4-6.44-5.52-7.15-1.51-.71-5.73-1.88-7.85-1.88h-39.18c-.29,0-.57.1-.78.28-.14.12-.26.27-.33.44l-.66,1.44,2.15,22.4v3.36c.7.05,1.39.14,1.92.25,1.88-.36,5.02-.41,5.02-.41l.45,6.87.16,2.47.23,3.54.07,1.05.26,3.98c.04.56.47,1,1.02,1.06l5.5.57c.32.03.61.2.79.45.09.12.15.25.19.4.13.51.59.87,1.12.86,4.34-.09,22.25-.39,28.67-.54.36,0,.64-.3.64-.66v-.4c0-.34.27-.63.62-.66l9.39-.79c.42-.04.75-.38.78-.8l.04-.67.18-2.76c-.01-.19-.03-.39-.05-.59-.09-.84-.27-1.81-.46-2.64-.13-.57-.26-1.08-.35-1.45-.1-.39-.17-.62-.17-.62l-.35-1.81-.57-2.95h2.99c.31,0,.55-.28.5-.59-.23-1.32-.49-2.62-.78-3.89Z" style="fill:#ebecec; stroke-width:0px;"/><path d="m185.72,91.235l-2.15-22.4-.09-.96c-.06-.68-.63-1.2-1.31-1.2h-40.5c-.67,0-1.24.52-1.31,1.2l-.09.96-.65-1.44c-.08-.18-.2-.33-.34-.44-.21-.18-.48-.28-.77-.28h-39.18c-2.13,0-6.35,1.17-7.86,1.88-1.51.71-4.49,3.64-5.51,7.15l-.44,2.63s-.91,1.74-1.25,2.86c-.99,2.38-2.73,7.23-3.99,12.83-.28,1.21-.53,2.46-.74,3.73-.05.31.19.59.5.59h2.99l-.58,2.95-.35,1.81s-.07.23-.17.62c-.09.37-.22.88-.35,1.45-.19.83-.37,1.8-.46,2.64-.02.2-.04.4-.05.59l.18,2.76.05.67c.02.42.35.76.77.8l9.4.79c.34.03.61.32.61.66v.4c0,.36.28.66.65.66,6.41.15,24.32.45,28.66.54.53.01.99-.35,1.12-.86.04-.15.11-.28.2-.4.45-.38.61-.43.78-.45l5.51-.57c.55-.06.98-.5,1.01-1.06l.26-3.98.07-1.05.23-3.54.16-2.47.45-6.87s3.14.05,5.02.41c.53-.11,1.23-.2,1.93-.25,1.52-.14,3.06-.16,3.06-.16l-.41,7.07v8.64c0,.33.22.62.53.71.04.01.09.02.13.03l5.95.7c.38.05.66.37.66.75,0,.21.09.41.23.55.14.13.32.21.52.21h26.24c.21,0,.39-.08.52-.21.14-.14.23-.34.23-.55,0-.38.29-.7.67-.75l5.94-.7c.04-.01.09-.02.13-.03.31-.09.53-.38.53-.71v-8.64l-.4-7.07s1.55.02,3.06.16v-3.36Z" style="fill:none; stroke:#000001; stroke-width:2px;"/><path d="m185.72,91.235l-2.15-22.4-.09-.96c-.06-.68-.63-1.2-1.31-1.2h-40.5c-.67,0-1.24.52-1.31,1.2l-.09.96-.65-1.44c-.08-.18-.2-.33-.34-.44-.21-.18-.48-.28-.77-.28h-39.18c-2.13,0-6.35,1.17-7.86,1.88-1.51.71-4.49,3.64-5.51,7.15l-.44,2.63s-.91,1.74-1.25,2.86c-.99,2.38-2.73,7.23-3.99,12.83-.28,1.21-.53,2.46-.74,3.73-.05.31.19.59.5.59h2.99l-.58,2.95-.35,1.81s-.07.23-.17.62c-.09.37-.22.88-.35,1.45-.19.83-.37,1.8-.46,2.64-.02.2-.04.4-.05.59l.18,2.76.05.67c.02.42.35.76.77.8l9.4.79c.34.03.61.32.61.66v.4c0,.36.28.66.65.66,6.41.15,24.32.45,28.66.54.53.01.99-.35,1.12-.86.04-.15.11-.28.2-.4.45-.38.61-.43.78-.45l5.51-.57c.55-.06.98-.5,1.01-1.06l.26-3.98.07-1.05.23-3.54.16-2.47.45-6.87s3.14.05,5.02.41c.53-.11,1.23-.2,1.93-.25,1.52-.14,3.06-.16,3.06-.16l-.41,7.07v8.64c0,.33.22.62.53.71.04.01.09.02.13.03l5.95.7c.38.05.66.37.66.75,0,.21.09.41.23.55.14.13.32.21.52.21h26.24c.21,0,.39-.08.52-.21.14-.14.23-.34.23-.55,0-.38.29-.7.67-.75l5.94-.7c.04-.01.09-.02.13-.03.31-.09.53-.38.53-.71v-8.64l-.4-7.07s1.55.02,3.06.16v-3.36Z" style="fill:#d3d5d6; stroke-width:0px;"/><path d="m10.206,107.948s10.863-18.211,12.711-22.879,7.1-24.303,7.587-31.41" style="fill:none; stroke:#a7abae; stroke-width:.5px;"/><path d="m57.191,66.005c-1.344,3.06-2.522,6.184-3.82,9.266-1.021,2.208-1.974,4.906-4.333,6.025-.769.37-1.671.407-2.505.36-3.342-.216-6.659-.613-9.979-.99-3.319-.381-6.633-.808-9.941-1.275l9.96,1.109c3.32.35,6.645.717,9.973.906,3.722.55,5.438-3.374,6.673-6.202,1.304-3.071,2.54-6.181,3.972-9.2h0Z" style="fill:#a7abae; stroke-width:0px;"/><polygon points="265.846 89.121 266.343 56.524 266.346 89.128 265.846 89.121 265.846 89.121" style="fill:#a7abae; stroke-width:0px;"/><polygon points="57.498 89.128 57.502 56.524 57.998 89.121 57.498 89.128 57.498 89.128" style="fill:#a7abae; stroke-width:0px;"/><path d="m161.922,113.092h13.117c.416,0,.754-.338.754-.754h0c0-.382.286-.704.665-.749l5.946-.707c.376-.045.659-.363.659-.742v-8.64l-.407-7.066" style="fill:none; stroke:#000001; stroke-width:.5px;"/><path d="m183.063,107.314s3.301.056,5.148.448" style="fill:none; stroke:#000001; stroke-width:.25px;"/><path d="m193.461,107.314s-3.367.051-5.251.408" style="fill:none; stroke:#000001; stroke-width:.25px;"/><path d="m161.922,108.702h13.117c.416,0,.754-.338.754-.754h0c0-.382.286-.704.665-.749l6.605-.785" style="fill:none; stroke:#000001; stroke-width:.5px;"/><path d="m185.719,94.611v-3.379l-2.237-23.361c-.065-.676-.633-1.193-1.312-1.193h-20.248" style="fill:none; stroke:#000001; stroke-width:.5px;"/><line x1="175.793" y1="107.948" x2="175.793" y2="112.338" style="fill:none; stroke:#000001; stroke-width:.5px;"/><line x1="183.063" y1="101.502" x2="161.922" y2="101.502" style="fill:none; stroke:#000001; stroke-width:.5px;"/><path d="m161.922,98.837h15.149c.834,0,2.077-.307,1.97-1.591-.183-2.209-.31-4.871-.31-5.479,0-.568.066-1.688,3.765-1.958.464-.034.816-.441.777-.904l-1.734-20.833c-.025-.304-.279-.537-.584-.537h-19.034" style="fill:none; stroke:#000001; stroke-width:.5px;"/><path d="m182.371,94.453l-.022-1.422c.047-.417.319-.711.616-.897.899-.409,1.845-.509,2.753-.902-.815.449-1.808.684-2.6,1.128-.231.14-.409.513-.405.648,0,0,.157,1.413.157,1.413l-.499.031h0Z" style="fill:#000001; stroke-width:0px;"/><path d="m182.531,110.868l.493,2.063c.025.107.029.217.011.325l-.389,2.284c-.067.391-.405.676-.801.676h-19.923" style="fill:none; stroke:#000001; stroke-width:.5px;"/><line x1="181.694" y1="116.217" x2="181.694" y2="119.006" style="fill:none; stroke:#000001; stroke-width:.5px;"/><line x1="183.024" y1="112.93" x2="175.605" y2="112.93" style="fill:none; stroke:#000001; stroke-width:.5px;"/><line x1="188.21" y1="107.761" x2="187.644" y2="94.842" style="fill:none; stroke:#000001; stroke-width:.25px;"/><line x1="188.21" y1="107.761" x2="188.21" y2="116.004" style="fill:none; stroke:#000001; stroke-width:.25px;"/><path d="m239.573,81.194s1.513.61,2.464,3.66c.952,3.05,3.318,11.371,3.831,14.396s-.098,9.96-3.392,11.995" style="fill:none; stroke:#000001; stroke-width:.5px;"/><path d="m183.574,68.835l.651-1.439c.197-.436.632-.717,1.111-.717h39.181c2.123,0,6.344,1.168,7.857,1.876s4.49,3.636,5.514,7.149l.439,2.635s.903,1.732,1.244,2.855" style="fill:none; stroke:#000001; stroke-width:.5px;"/><path d="m239.573,81.194c1.211,2.897,3.523,9.448,4.734,16.563.052.308-.187.59-.5.59h-2.989s.927,4.758.927,4.758c0,0,.927,3.245,1.025,5.295l-.221,3.436c-.027.421-.358.759-.778.794l-9.393.793c-.346.029-.611.318-.611.665v.393c0,.363-.285.659-.648.667-6.417.141-24.324.449-28.667.531-.527.01-.986-.344-1.116-.854h0c-.118-.46-.51-.798-.982-.848l-5.502-.575c-.551-.058-.98-.504-1.016-1.056l-1.168-17.914s-3.145.051-5.02.407c-1.678-.356-4.988-.407-4.988-.407" style="fill:none; stroke:#000001; stroke-width:.5px;"/><path d="m242.548,107.837c-.027.421-.358.759-.778.794l-9.393.793c-.346.029-.611.318-.611.665v.393c0,.363-.285.659-.648.667-6.417.141-24.324.449-28.667.531-.527.01-.986-.344-1.116-.854h0c-.118-.46-.51-.798-.982-.848l-5.502-.575c-.551-.058-.98-.504-1.016-1.056" style="fill:none; stroke:#000001; stroke-width:.5px;"/><path d="m192.415,94.439c-.019-.359.087-1.487.012-1.795-.495-.819-1.726-.8-2.639-.902-.824-.008-1.681-.177-2.451.044-.786.303-.604,1.504-.59,2.195-.087-.408-.056-.831-.044-1.245-.063-1.622,2.055-1.17,3.092-1.243,1.107.014,3.271.084,3.09,1.698,0,0,.031,1.242.031,1.242l-.5.007h0Z" style="fill:#000001; stroke-width:0px;"/><line x1="231.765" y1="110.482" x2="231.765" y2="114.483" style="fill:none; stroke:#000001; stroke-width:.5px;"/><line x1="201.334" y1="110.827" x2="201.137" y2="114.427" style="fill:none; stroke:#000001; stroke-width:.5px;"/><path d="m186.776,68.21c-.039-.362.244-.678.608-.678h37.528c.853,0,4.441.893,6.341,1.71.359.154.652.411.857.744,1.177,1.905,5.454,9.27,7.571,18.932.095.434-.2.861-.64.923-.854.121-2.212.316-3.221.471-.504.077-.833.566-.709,1.061.371,1.48,1.106,4.413,1.536,6.129.17.679-.344,1.335-1.043,1.335h-36.766c-.883,0-1.634-.636-1.775-1.507-.302-1.869-.793-4.885-.912-5.503-.167-.867-1.033-1.925-6.235-1.961-.455-.003-.836-.35-.885-.803l-2.256-20.852Z" style="fill:none; stroke:#000001; stroke-width:.5px;"/><line x1="184.572" y1="66.962" x2="187.129" y2="91.82" style="fill:none; stroke:#000001; stroke-width:.5px;"/><line x1="193.112" y1="101.302" x2="241.348" y2="101.302" style="fill:none; stroke:#000001; stroke-width:.5px;"/><line x1="193.461" y1="103.764" x2="241.745" y2="103.764" style="fill:none; stroke:#000001; stroke-width:.5px;"/><path d="m240.576,98.411c-.261-1.157-.753-3.225-.957-4.373-.374-1.226,1.135-2.16,2.164-1.724.81.266,1.578.869,1.784,1.712-.245-.828-1.032-1.377-1.817-1.595-.787-.258-1.751.203-1.911.975-.041.643.39,1.754.53,2.424,0,0,.691,2.453.691,2.453l-.484.127h0Z" style="fill:#000001; stroke-width:0px;"/><path d="m246.117,99.227c.249,2.599-1.204,5.333-3.854,5.949,2.503-.753,3.764-3.428,3.356-5.901,0,0,.498-.048.498-.048h0Z" style="fill:#000001; stroke-width:0px;"/><path d="m208.178,87.122h12.617c1.405,0,2.479.551,2.7,1.295s.937,3.23,1.074,3.874-.193,1.553-1.791,1.608-11.845.193-13.415,0-2.066-.958-2.176-1.608-.496-2.965-.523-3.653.055-1.515,1.515-1.515Z" style="fill:none; stroke:#000001; stroke-width:.5px;"/><path d="m209.017,87.66h10.969c1.185,0,2.091.465,2.277,1.092s.568,1.571.684,2.114-.163,1.31-1.51,1.356-9.99.163-11.315,0-1.873-.728-1.966-1.276-.267-1.386-.304-2.087c-.035-.659-.066-1.199,1.165-1.199Z" style="fill:none; stroke:#000001; stroke-width:.5px;"/><path d="m161.922,113.092h-13.117c-.416,0-.754-.338-.754-.754h0c0-.382-.286-.704-.665-.749l-5.946-.707c-.376-.045-.659-.363-.659-.742v-4.014s0-4.626,0-4.626l.407-7.066" style="fill:none; stroke:#000001; stroke-width:.5px;"/><path d="m140.782,107.314s-3.301.056-5.148.448" style="fill:none; stroke:#000001; stroke-width:.25px;"/><path d="m130.383,107.314s3.367.051,5.251.408" style="fill:none; stroke:#000001; stroke-width:.25px;"/><path d="m161.922,108.702h-13.117c-.416,0-.754-.338-.754-.754h0c0-.382-.286-.704-.665-.749l-6.605-.785" style="fill:none; stroke:#000001; stroke-width:.5px;"/><path d="m140.27,68.835l.092-.963c.065-.676.633-1.193,1.312-1.193h20.248" style="fill:none; stroke:#000001; stroke-width:.5px;"/><polyline points="138.126 94.611 138.126 91.233 140.27 68.835" style="fill:none; stroke:#000001; stroke-width:.5px;"/><line x1="148.051" y1="107.948" x2="148.051" y2="112.338" style="fill:none; stroke:#000001; stroke-width:.5px;"/><line x1="140.782" y1="101.502" x2="161.922" y2="101.502" style="fill:none; stroke:#000001; stroke-width:.5px;"/><path d="m161.922,98.837s-14.316,0-15.149,0-2.077-.307-1.97-1.591c.183-2.209.31-4.871.31-5.479,0-.568-.066-1.688-3.765-1.958-.464-.034-.816-.441-.777-.904l1.734-20.833c.025-.304.279-.537.584-.537h19.034" style="fill:none; stroke:#000001; stroke-width:.5px;"/><path d="m140.974,94.422l.157-1.413c.003-.135-.174-.508-.405-.648-.793-.444-1.786-.679-2.6-1.128.908.393,1.854.493,2.753.902.297.186.569.48.616.897l-.022,1.422-.499-.031h0Z" style="fill:#000001; stroke-width:0px;"/><path d="m141.313,110.868l-.493,2.063c-.025.107-.029.217-.011.325l.389,2.284c.067.391.405.676.801.676h19.923" style="fill:none; stroke:#000001; stroke-width:.5px;"/><line x1="142.15" y1="116.217" x2="142.15" y2="119.006" style="fill:none; stroke:#000001; stroke-width:.5px;"/><line x1="140.82" y1="112.93" x2="148.24" y2="112.93" style="fill:none; stroke:#000001; stroke-width:.5px;"/><line x1="135.634" y1="107.761" x2="136.2" y2="94.842" style="fill:none; stroke:#000001; stroke-width:.25px;"/><line x1="135.634" y1="107.761" x2="135.634" y2="116.004" style="fill:none; stroke:#000001; stroke-width:.25px;"/><path d="m84.271,81.194s-1.513.61-2.464,3.66-3.318,11.371-3.831,14.396.098,9.96,3.392,11.995" style="fill:none; stroke:#000001; stroke-width:.5px;"/><path d="m140.27,68.835l-.651-1.439c-.197-.436-.632-.717-1.111-.717h-39.181c-2.123,0-6.344,1.168-7.857,1.876s-4.49,3.636-5.514,7.149l-.439,2.635s-.903,1.732-1.244,2.855" style="fill:none; stroke:#000001; stroke-width:.5px;"/><path d="m84.271,81.194c-1.211,2.897-3.523,9.448-4.734,16.563-.052.308.187.59.5.59h2.989s-.927,4.758-.927,4.758c0,0-.927,3.245-1.025,5.295l.221,3.436c.027.421.358.759.778.794l9.393.793c.346.029.611.318.611.665v.393c0,.363.285.659.648.667,6.417.141,24.324.449,28.667.531.527.01.986-.344,1.116-.854h0c.118-.46.51-.798.982-.848l5.502-.575c.551-.058.98-.504,1.016-1.056l1.168-17.914s3.145.051,5.02.407c1.678-.356,4.988-.407,4.988-.407" style="fill:none; stroke:#000001; stroke-width:.5px;"/><path d="m81.296,107.837c.027.421.358.759.778.794l9.393.793c.346.029.611.318.611.665v.393c0,.363.285.659.648.667,6.417.141,24.324.449,28.667.531.527.01.986-.344,1.116-.854h0c.118-.46.51-.798.982-.848l5.502-.575c.551-.058.98-.504,1.016-1.056" style="fill:none; stroke:#000001; stroke-width:.5px;"/><path d="m130.93,94.432c.043-.519-.035-1.419.108-1.933.584-1.037,2.032-.946,3.013-1.007.826.037,1.672-.102,2.504.178.847.382.593,1.571.543,2.31.015-.69.194-1.892-.59-2.195-.77-.221-1.628-.052-2.451-.044-.913.102-2.144.083-2.639.902-.077.303.029,1.443.012,1.795,0,0-.5-.007-.5-.007h0Z" style="fill:#000001; stroke-width:0px;"/><line x1="92.08" y1="110.482" x2="92.08" y2="114.483" style="fill:none; stroke:#000001; stroke-width:.5px;"/><line x1="122.511" y1="110.827" x2="122.707" y2="114.427" style="fill:none; stroke:#000001; stroke-width:.5px;"/><path d="m137.068,68.21c.039-.362-.244-.678-.608-.678h-37.528c-.853,0-4.441.893-6.341,1.71-.359.154-.652.411-.857.744-1.177,1.905-5.454,9.27-7.571,18.932-.095.434.2.861.64.923.854.121,2.212.316,3.221.471.504.077.833.566.709,1.061-.371,1.48-1.106,4.413-1.536,6.129-.17.679.344,1.335,1.043,1.335h36.766c.883,0,1.634-.636,1.775-1.507.302-1.869.793-4.885.912-5.503.167-.867,1.033-1.925,6.235-1.961.455-.003.836-.35.885-.803l2.256-20.852Z" style="fill:none; stroke:#000001; stroke-width:.5px;"/><line x1="139.272" y1="66.962" x2="136.715" y2="91.82" style="fill:none; stroke:#000001; stroke-width:.5px;"/><line x1="130.732" y1="101.302" x2="82.496" y2="101.302" style="fill:none; stroke:#000001; stroke-width:.5px;"/><line x1="130.383" y1="103.764" x2="82.1" y2="103.764" style="fill:none; stroke:#000001; stroke-width:.5px;"/><path d="m82.785,98.284c.23-.818.818-2.888,1.018-3.684.081-.401.26-.847.203-1.194-.161-.772-1.124-1.232-1.911-.975-.785.217-1.572.766-1.817,1.595.207-.843.974-1.446,1.784-1.712.815-.304,1.927.093,2.186,1.04.099.418-.088.914-.142,1.315,0,0-.267,1.251-.267,1.251l-.57,2.491-.484-.127h0Z" style="fill:#000001; stroke-width:0px;"/><path d="m78.225,99.275c-.242,1.803.229,3.828,1.711,5.005.489.388,1.054.673,1.645.896-.603-.183-1.193-.432-1.72-.797-1.633-1.133-2.262-3.232-2.134-5.153,0,0,.498.048.498.048h0Z" style="fill:#000001; stroke-width:0px;"/><path d="m115.666,87.122h-12.617c-1.405,0-2.479.551-2.7,1.295s-.937,3.23-1.074,3.874.193,1.553,1.791,1.608,11.845.193,13.415,0,2.066-.958,2.176-1.608.496-2.965.523-3.653-.055-1.515-1.515-1.515Z" style="fill:none; stroke:#000001; stroke-width:.5px;"/><path d="m114.827,87.66h-10.969c-1.185,0-2.091.465-2.277,1.092s-.568,1.571-.684,2.114.163,1.31,1.51,1.356,9.99.163,11.315,0,1.873-.728,1.966-1.276.267-1.386.304-2.087c.035-.659.066-1.199-1.165-1.199Z" style="fill:none; stroke:#000001; stroke-width:.5px;"/></g><g id="uuid-d1feb1cd-51a3-4b3b-a035-8fe60a338a8b"><path d="m254.91,47.535c-1-2.53-6.06-5.61-13.57-5.61h-3.33c.65-.16,1.26-.37,1.87-.65,0,0,4.15-2.05,4.07-6.61-.07-4.55-.81-9.66-.99-10.98-.15-1.07-1.04-2.68-2.7-4.4-.85-.88-1.95-1.47-3.16-1.64-4.59-.68-15.02-.92-21.51.29-.44.08-.85.25-1.21.51-.76.53-1.94,1.69-2.71,4.03-.65,1.96-2.24,9.66-2.61,11.13-.37,1.47.62,6.06,3.82,7.82.69.32,1.54.54,2.36.69-2.15-.05-22.89.01-22.89.01,0,0-1.47-.04-1.84,1.65,0,0-.29-1.83-.99-1.83h-13.44s-.77-.15-1.18.47c0,0-.55-5.84-1.06-8.44,0,0-.48-1.95-2.76-2.32-2.27-.37-8.84-.33-8.84-.33,0,0-6.57-.04-8.85.33-2.27.37-2.75,2.32-2.75,2.32-.52,2.6-1.07,8.44-1.07,8.44-.4-.62-1.17-.47-1.17-.47h-13.44c-.7,0-1,1.83-1,1.83-.36-1.69-1.83-1.65-1.83-1.65,0,0-21.03-.07-22.94,0,.83-.15,1.71-.37,2.41-.7,3.19-1.76,4.18-6.35,3.82-7.82-.37-1.47-1.97-9.17-2.61-11.13-.77-2.34-1.95-3.5-2.71-4.03-.37-.26-.78-.43-1.22-.51-6.48-1.21-16.91-.97-21.51-.29-1.2.17-2.3.76-3.15,1.64-1.67,1.72-2.56,3.33-2.7,4.4-.19,1.32-.92,6.43-1,10.98-.07,4.56,4.08,6.61,4.08,6.61.61.28,1.22.49,1.87.65h-3.34c-7.5,0-12.57,3.08-13.56,5.61-1,2.53-2.44,6.87-2.35,12.3.09,5.42,1.71,10.13,1.71,10.13.81,7.64,2.55,18.19,3.8,25.06.69,3.86,1.23,6.56,1.36,6.95.36,1.09,1.63,2.8,3.35,3.71,1.71.9,1.99,1.99,1.99,1.99l3.7,15.01h10.28l.07.11c.86-.55,1.75-.79,2.62-1.06,1.82-.56,7.57-2.25,15-2.48.13-.33.89-1.94,3.34-2.76.88-.41,4.93-.68,9.44-.77,2.21-.04,4.52-.04,6.63.01,3.84.09,6.98.34,7.47.76,0,0,.95.69,1.97,2.43v.09c.74,0,1.47-.01,2.2-.01,9.47-.05,17.38-.08,17.38-.08,0,0,1.69,0,1.69,1.42,0,1.43,0,0,0,0h1.4s0,1.43,0,0c0-1.42,1.69-1.42,1.69-1.42,0,0,8.63.03,18.65.08.31.01.62.01.93.01v-.09c1.02-1.74,1.98-2.43,1.98-2.43.53-.46,4.14-.71,8.39-.78,2.02-.03,4.18-.02,6.22.02,4.3.1,8.08.36,8.92.76,2.45.82,3.21,2.43,3.35,2.76,7.43.23,13.17,1.92,14.99,2.48.82.25,1.65.48,2.46.95h11.14l3.71-15.01s.27-1.09,1.99-1.99c1.72-.91,2.98-2.62,3.35-3.71.14-.42.76-3.58,1.54-7.98,1.23-6.86,2.84-16.76,3.61-24.03,0,0,1.63-4.71,1.72-10.13.09-5.43-1.36-9.77-2.35-12.3Z" style="fill:#fff; opacity:.79; stroke-width:0px;"/><path d="m32.624,155.449l-3.231,6.888c-.221.323-.727.169-.729-.223l-.027-4.028c-.001-.22.064-.434.188-.616l3.231-6.888c.221-.323.727-.169.729.223l.027,4.028c.001.22-.064.434-.188.616Z" style="fill:#f2a900; stroke:#141b21;"/><path d="m109.064,42.124c.477-.073,23.063,0,23.063,0,0,0,1.469-.037,1.836,1.653,0,0,.294-1.836.992-1.836h13.443s.771-.147,1.175.477c0,0,.551-5.84,1.065-8.448,0,0,.477-1.947,2.755-2.314s8.845-.331,8.845-.331" style="fill:none; stroke:#f2a900;"/><path d="m84.6,41.279s-4.15-2.057-4.077-6.611.808-9.66.992-10.982c.148-1.067,1.037-2.683,2.705-4.405.847-.874,1.948-1.461,3.152-1.639,4.595-.677,15.028-.92,21.51.295.439.082.85.248,1.215.505.762.536,1.943,1.696,2.71,4.032.646,1.965,2.24,9.66,2.608,11.129s-.624,6.06-3.82,7.823" style="fill:none; stroke:#f2a900;"/><path d="m93.414,122.686h-10.281l-3.708-15.012s-.271-1.085-1.99-1.99-2.984-2.623-3.346-3.708-3.889-20.077-5.155-32.015c0,0-1.628-4.703-1.718-10.129s1.357-9.767,2.351-12.299,6.059-5.607,13.565-5.607h3.349" style="fill:none; stroke:#f2a900;"/><path d="m149.573,42.418s.037,1.91,1.249,1.91h11.416" style="fill:none; stroke:#f2a900; stroke-width:.5px;"/><path d="m133.964,43.777l-.379,2.97,3.064,55.586s0,1.556,1.362,1.945,2.626.34,2.772,1.897,1.368,12.831,1.368,12.831" style="fill:none; stroke:#f2a900; stroke-width:.5px;"/><path d="m130.509,115.699c.146-.243-.718-7.871-.718-7.871,0,0-.632-2.772,1.653-3.21s3.112-.438,3.112-.438c0,0,1.848-.195,2.091-1.848" style="fill:none; stroke:#f2a900; stroke-width:.5px;"/><path d="m84.6,41.279c1.69.764,3.321,1.007,6.078,1.139s15.751,0,15.751,0c0,0,3.247-.09,5.167-.992" style="fill:none; stroke:#f2a900;"/><path d="m76.334,99.814c-2.35-10.759-4.838-30.826-5.681-42.527-.225-6.525,5.794-8.832,11.082-8.944s41.852-.056,44.214,0,4.106.563,4.163,3.15,2.644,47.139,2.644,47.139c0,0,.394,1.969-.956,1.969h-3.769s-3.656.731-3.15,5.119c.506,4.388.731,6.75.731,6.75,0,0,.281,2.363-1.519,2.363h-37.07s-2.194.056-2.475-1.969-1.35-8.663-1.35-8.663c0,0-.45-2.531-2.588-2.981s-4.023-.251-4.275-1.406Z" style="fill:none; stroke:#f2a900; stroke-width:.5px;"/><path d="m162.238,48.278h-23.831c-1.25,0-2.119.875-2.065,2.451.049,1.42,2.172,40.831,2.591,48.608.041.761.637,1.374,1.396,1.438l1.746.149c1.172.1,2.098,1.038,2.181,2.212l.707,9.925c.071.998.902,1.772,1.903,1.772h15.372" style="fill:none; stroke:#f2a900; stroke-width:.5px;"/><path d="m110.097,18.442c-1.215-.505-1.666,1.642-1.034,4.564s2.074,9.993,2.532,11.926-1.852,5.232-3.926,5.609-15.077.661-19.233,0c-2.074-.33-5.515-3.064-5.609-5.232s.613-10.936.848-12.303,1.265-4.552,3.696-5.364" style="fill:none; stroke:#f2a900; stroke-width:.25px;"/><path d="m215.412,42.124c-.477-.073-23.063,0-23.063,0,0,0-1.469-.037-1.836,1.653,0,0-.294-1.836-.992-1.836s-13.443,0-13.443,0c0,0-.771-.147-1.175.477,0,0-.551-5.84-1.065-8.448,0,0-.477-1.947-2.755-2.314s-8.845-.331-8.845-.331" style="fill:none; stroke:#f2a900;"/><path d="m239.875,41.279s4.15-2.057,4.077-6.611c-.073-4.554-.808-9.66-.992-10.982-.148-1.067-1.037-2.683-2.705-4.405-.847-.874-1.948-1.461-3.152-1.639-4.595-.677-15.028-.92-21.51.295-.439.082-.85.248-1.215.505-.762.536-1.943,1.696-2.71,4.032-.646,1.965-2.24,9.66-2.608,11.129s.624,6.06,3.82,7.823" style="fill:none; stroke:#f2a900;"/><path d="m230.195,122.686h11.147l3.708-15.012s.271-1.085,1.99-1.99,2.984-2.623,3.346-3.708,3.889-20.077,5.155-32.015c0,0,1.628-4.703,1.718-10.129s-1.357-9.767-2.351-12.299c-.995-2.532-6.059-5.607-13.565-5.607h-3.349" style="fill:none; stroke:#f2a900;"/><path d="m174.902,42.418s-.037,1.91-1.249,1.91h-11.416" style="fill:none; stroke:#f2a900; stroke-width:.5px;"/><path d="m190.512,43.777l.379,2.97-3.064,55.586s0,1.556-1.362,1.945-2.626.34-2.772,1.897-.729,12.836-.729,12.836" style="fill:none; stroke:#f2a900;"/><path d="m194.263,115.719c-.146-.243.421-7.891.421-7.891,0,0,.632-2.772-1.653-3.21s-3.112-.438-3.112-.438c0,0-1.848-.195-2.091-1.848" style="fill:none; stroke:#f2a900; stroke-width:.5px;"/><path d="m239.875,41.279c-1.69.764-3.321,1.007-6.078,1.139s-15.751,0-15.751,0c0,0-3.247-.09-5.167-.992" style="fill:none; stroke:#f2a900;"/><path d="m248.142,99.814c2.35-10.759,4.838-30.826,5.681-42.527.225-6.525-5.794-8.832-11.082-8.944s-41.852-.056-44.214,0-4.106.563-4.163,3.15-2.644,47.139-2.644,47.139c0,0-.394,1.969.956,1.969h3.769s3.656.731,3.15,5.119c-.506,4.388-.731,6.75-.731,6.75,0,0-.281,2.363,1.519,2.363s37.07,0,37.07,0c0,0,2.194.056,2.475-1.969s1.35-8.663,1.35-8.663c0,0,.45-2.531,2.588-2.981s4.023-.251,4.275-1.406Z" style="fill:none; stroke:#f2a900; stroke-width:.5px;"/><path d="m162.238,48.278h23.831c1.25,0,2.119.875,2.065,2.451-.049,1.42-2.172,40.831-2.591,48.608-.041.761-.637,1.374-1.396,1.438l-1.746.149c-1.172.1-2.098,1.038-2.181,2.212l-.707,9.925c-.071.998-.902,1.772-1.903,1.772h-15.372" style="fill:none; stroke:#f2a900; stroke-width:.5px;"/><path d="m214.378,18.442c1.215-.505,1.666,1.642,1.034,4.564s-2.074,9.993-2.532,11.926c-.458,1.933,1.852,5.232,3.926,5.609s15.077.661,19.233,0c2.074-.33,5.515-3.064,5.609-5.232s-.613-10.936-.848-12.303-1.265-4.552-3.696-5.364" style="fill:none; stroke:#f2a900; stroke-width:.25px;"/><path d="m240.46,162.27s.961-6.612.884-7.611-5.725-22.245-8.184-28.393c-1.575-3.458-3.535-3.957-5.417-4.534s-7.915-2.344-15.675-2.497c-7.761-.154-47.756-.307-47.756-.307,0,0-1.69,0-1.69,1.422v42.43" style="fill:none; stroke:#a7abae;"/><path d="m83.384,162.27s-.961-6.612-.884-7.611,5.725-22.245,8.184-28.393c1.575-3.458,3.535-3.957,5.417-4.534s7.915-2.344,15.675-2.497c7.761-.154,47.756-.307,47.756-.307,0,0,1.69,0,1.69,1.422s0,42.43,0,42.43" style="fill:none; stroke:#a7abae;"/><path d="m212.768,119.315s-.634-1.907-3.367-2.818c-2.086-.988-22.217-1.135-23.534,0,0,0-.952.692-1.976,2.432" style="fill:none; stroke:#a7abae;"/><path d="m111.076,119.315s.634-1.907,3.367-2.818c2.086-.988,22.217-1.135,23.534,0,0,0,.952.692,1.976,2.432" style="fill:none; stroke:#a7abae;"/></g><g id="uuid-5c00a126-3c02-4482-a5c6-e80c353e469d"><path d="m276.847,2.946c9.332,12.885,29.954,46.903,33.717,53.977s18.364,60.209,23.481,88.808c0,0,11.139,17.461,11.891,25.137s0,24.385,0,24.385c0,0-3.507,21.568-4.951,25.226s-10.973,23.299-13.572,26.473" style="fill:none; stroke:#d3d5d6;"/><path d="m298.76,54.86c-12.264-1.54-24.676-2.203-37.019-3.01,12.399.476,24.779.802,37.145,2.018,0,0-.127.992-.127.992h0Z" style="fill:#d3d5d6; stroke-width:0px;"/><path d="m314.328,246.953c9.633-24.615,8.128-70.063,8.128-70.063.151-48.619-20.622-114.246-20.622-114.246l-3.01-8.279" style="fill:none; stroke:#d3d5d6;"/><path d="m334.046,145.732s1.505,9.332,1.806,13.095.602,9.332-1.806,12.493c0,0-6.472,4.365-11.59,5.569" style="fill:none; stroke:#d3d5d6; stroke-width:.5px;"/><path d="m345.937,170.869c0,3.493-2.927,18.349-23.576,23.824" style="fill:none; stroke:#d3d5d6; stroke-width:.5px;"/><path d="m346.107,190.541c-.076,2.307-3.417,19.636-25.253,26.087" style="fill:none; stroke:#d3d5d6; stroke-width:.5px;"/><path d="m334.046,171.32c-.087-11.387-8.793-65.938-13.033-80.969" style="fill:none; stroke:#d3d5d6; stroke-width:.5px;"/><path d="m285.551,53.313c-8.234-16.392-16.119-33.007-25.35-48.868,0,0-.995-1.472-.995-1.472l1.008,1.463c4.64,7.574,8.68,15.504,12.827,23.354,4.383,8.401,8.693,16.839,12.959,25.3l-.448.223h0Z" style="fill:#d3d5d6; stroke-width:0px;"/><path d="m298.591,54.455c-3.889-9.071-8.87-17.696-13.668-26.323-4.987-8.538-9.765-17.268-15.748-25.159,8.892,11.896,15.985,25.055,23.24,37.99,2.341,4.367,4.702,8.72,6.643,13.311l-.466.181h0Z" style="fill:#d3d5d6; stroke-width:0px;"/><path d="m47.506,2.946c-9.332,12.885-29.954,46.903-33.717,53.977S-4.574,117.132-9.692,145.732c0,0-11.139,17.461-11.891,25.137-.753,7.677,0,24.385,0,24.385,0,0,3.507,21.568,4.951,25.226s10.973,23.299,13.572,26.473" style="fill:none; stroke:#d3d5d6;"/><path d="m25.467,53.869c12.465-1.225,24.945-1.552,37.444-2.032-12.442.81-24.954,1.474-37.317,3.024,0,0-.127-.992-.127-.992h0Z" style="fill:#d3d5d6; stroke-width:0px;"/><path d="m10.026,246.953C.393,222.338,1.898,176.89,1.898,176.89c-.151-48.619,20.622-114.246,20.622-114.246l3.01-8.279" style="fill:none; stroke:#d3d5d6;"/><path d="m-9.692,145.732s-1.505,9.332-1.806,13.095-.602,9.332,1.806,12.493c0,0,6.472,4.365,11.59,5.569" style="fill:none; stroke:#d3d5d6; stroke-width:.5px;"/><path d="m-21.583,170.869c0,3.493,2.927,18.349,23.576,23.824" style="fill:none; stroke:#d3d5d6; stroke-width:.5px;"/><path d="m-21.753,190.541c.076,2.307,3.417,19.636,25.253,26.087" style="fill:none; stroke:#d3d5d6; stroke-width:.5px;"/><path d="m-9.692,171.32c.087-11.387,8.793-65.938,13.033-80.969" style="fill:none; stroke:#d3d5d6; stroke-width:.5px;"/><path d="m38.356,53.09c8.381-16.323,16.412-32.87,25.785-48.654,0,0,1.008-1.463,1.008-1.463l-.994,1.472c-9.232,15.861-17.116,32.477-25.351,48.868,0,0-.448-.222-.448-.222h0Z" style="fill:#d3d5d6; stroke-width:0px;"/><path d="m25.297,54.274c3.993-9.101,9.026-17.642,13.917-26.267,5.06-8.499,9.914-17.192,15.965-25.034-8.787,11.964-15.768,25.179-22.909,38.167-2.3,4.376-4.628,8.765-6.507,13.315l-.466-.181h0Z" style="fill:#d3d5d6; stroke-width:0px;"/><path d="m140.866,232.394c.085-1.233-.717-2.425-2.615-2.425h-4.912l-.698,7.406h1.697l.541-6.1h3.027c.931,0,1.343.428,1.292,1.119-.052.705-.531,1.138-1.47,1.138h-1.298c-.587,0-.945.313-.993.871l-.04.467h.935c.438,0,.752.139.995.47l1.512,2.036h2.081l-2.119-2.815c1.252-.266,1.987-1.029,2.065-2.167h0Z" style="fill:none; stroke:#d3d5d6; stroke-miterlimit:10; stroke-width:.25px;"/><polygon points="146.985 229.969 145.329 229.969 144.928 237.376 146.624 237.376 146.985 229.969" style="fill:none; stroke:#d3d5d6; stroke-miterlimit:10; stroke-width:.25px;"/><polygon points="159.748 229.969 157.981 229.969 155.056 235.672 152.374 229.969 150.608 229.969 154.115 237.376 155.924 237.376 159.748 229.969" style="fill:none; stroke:#d3d5d6; stroke-miterlimit:10; stroke-width:.25px;"/><polygon points="165.055 229.969 163.399 229.969 163.445 237.376 165.141 237.376 165.055 229.969" style="fill:none; stroke:#d3d5d6; stroke-miterlimit:10; stroke-width:.25px;"/><path d="m174.241,229.969h-1.766l-3.621,7.407h1.81l.456-.973c.19-.409.499-.591.972-.591h2.926l-.379-.707c-.232-.437-.588-.64-1.103-.64h-1.49l1.376-2.908,3.216,5.818h1.81l-4.205-7.407Z" style="fill:none; stroke:#d3d5d6; stroke-miterlimit:10; stroke-width:.25px;"/><polygon points="189.79 229.969 188.189 229.969 188.676 235.436 183.564 229.969 181.666 229.969 182.163 237.376 183.803 237.376 183.402 231.839 188.543 237.376 190.489 237.376 189.79 229.969" style="fill:none; stroke:#d3d5d6; stroke-miterlimit:10; stroke-width:.25px;"/></g><g id="uuid-ee13b36c-05aa-429d-9f96-454b4079e231"><polygon points="72.137 146.578 72.137 162.456 39.025 159.872 72.137 173.736 72.137 216.127 127.462 216.127 127.462 146.578 72.137 146.578" style="fill:#fff; stroke:#000001; stroke-miterlimit:10; stroke-width:2px;"/><g style="clip-path:url(#uuid-c67025bb-0206-4b84-a691-a4b3d5ba0837);"><path d="m194.053,209.987h-104.399c-5.561,0-10.07-4.508-10.07-10.07v-37.857c0-5.561,4.508-10.07,10.07-10.07h104.399" style="fill:#d3d5d6; stroke:#000001; stroke-miterlimit:10;"/><rect x="85.489" y="158.125" width="27.814" height="19.137" rx="3.662" ry="3.662" style="fill:#f2a900; stroke:#141b21; stroke-miterlimit:10; stroke-width:1.5px;"/><rect x="87.964" y="160.447" width="22.864" height="14.492" rx="2.093" ry="2.093" style="fill:none; stroke:#000001; stroke-miterlimit:10; stroke-width:.25px;"/><rect x="85.489" y="185.696" width="27.814" height="19.137" rx="3.662" ry="3.662" style="fill:#f2a900; stroke:#141b21; stroke-miterlimit:10; stroke-width:1.5px;"/><rect x="87.964" y="188.018" width="22.864" height="14.492" rx="2.093" ry="2.093" style="fill:none; stroke:#000001; stroke-miterlimit:10; stroke-width:.25px;"/><path d="m101.895,165.838l.343-.343c.137-.137.213-.32.213-.514s-.076-.377-.213-.514l-.744-.744-1.373,1.373.744.744c.137.137.32.213.514.213.196-.002.378-.078.516-.215Zm-1.087-.744l.686-.686.399.399c.045.045.071.107.071.171s-.026.126-.071.171l-.343.343c-.092.092-.251.092-.343,0l-.399-.399Z" style="fill:#000001; stroke-width:0px;"/><path d="m100.084,170.259h-.844c.044-.092.07-.192.071-.298l.024-1.564.731-.731c.137-.137.213-.32.213-.514s-.076-.377-.213-.514l-.744-.744-4.009,4.011c-.107.107-.167.251-.167.403l.003,1.324c.002.31.256.564.566.564h.83l4.104.011v-1.383c0-.312-.254-.566-.566-.566Zm-4.449,1.371l-.003-1.324c0-.021.008-.042.024-.058l3.666-3.666.401.401c.045.045.071.107.071.171s-.026.126-.071.171l-.87.87-.027,1.759c-.002.063-.026.123-.065.162l-1.7,1.595h-1.345c-.044,0-.079-.037-.081-.081Zm4.53.091l-2.397-.006.948-.889c.057-.052.131-.081.207-.081h1.161c.045,0,.081.036.081.081v.896Z" style="fill:#000001; stroke-width:0px;"/><path d="m97.713,165.245h-.986l-.485.485h2.306v-2.308l-.485.485v.972c-.6-.986-1.661-1.588-2.83-1.588h-.081v.485h.081c1.041,0,1.981.56,2.481,1.468Z" style="fill:#000001; stroke-width:0px;"/><polygon points="104.067 170.5 102.948 169.381 102.437 168.869 102.437 169.556 103.138 170.258 101.296 170.258 101.296 170.743 103.138 170.743 102.437 171.445 102.437 171.445 102.437 172.132 102.912 171.655 104.067 170.5" style="fill:#000001; stroke-width:0px;"/><path d="m101.895,193.409l.343-.343c.137-.137.213-.32.213-.514s-.076-.377-.213-.514l-.744-.744-1.373,1.373.744.744c.137.137.32.213.514.213.196-.002.378-.078.516-.215Zm-1.087-.744l.686-.686.399.399c.045.045.071.107.071.171s-.026.126-.071.171l-.343.343c-.092.092-.251.092-.343,0l-.399-.399Z" style="fill:#000001; stroke-width:0px;"/><path d="m100.084,197.83h-.844c.044-.092.07-.192.071-.298l.024-1.564.731-.731c.137-.137.213-.32.213-.514s-.076-.377-.213-.514l-.744-.744-4.009,4.011c-.107.107-.167.251-.167.403l.003,1.324c.002.31.256.564.566.564h.83l4.104.011v-1.383c0-.312-.254-.566-.566-.566Zm-4.449,1.371l-.003-1.324c0-.021.008-.042.024-.058l3.666-3.666.401.401c.045.045.071.107.071.171s-.026.126-.071.171l-.87.87-.027,1.759c-.002.063-.026.123-.065.162l-1.7,1.595h-1.345c-.044,0-.079-.037-.081-.081Zm4.53.091l-2.397-.006.948-.889c.057-.052.131-.081.207-.081h1.161c.045,0,.081.036.081.081v.896Z" style="fill:#000001; stroke-width:0px;"/><path d="m97.713,192.815h-.986l-.485.485h2.306v-2.308l-.485.485v.972c-.6-.986-1.661-1.588-2.83-1.588h-.081v.485h.081c1.041,0,1.981.56,2.481,1.468Z" style="fill:#000001; stroke-width:0px;"/><polygon points="104.067 198.071 102.948 196.952 102.437 196.439 102.437 197.127 103.138 197.829 101.296 197.829 101.296 198.314 103.138 198.314 102.437 199.016 102.437 199.016 102.437 199.703 102.912 199.226 104.067 198.071" style="fill:#000001; stroke-width:0px;"/></g><path d="m156.766,195.828c0-3.442-2.103-6.392-5.093-7.639-.977-.419-2.052-.653-3.182-.653s-2.205.234-3.182.653c-2.841,1.185-4.871,3.909-5.067,7.131h-23.212c-.276,0-.5.224-.5.5s.224.5.5.5h23.211c.19,3.228,2.222,5.96,5.068,7.147.977.419,2.052.653,3.182.653s2.205-.234,3.182-.653c2.99-1.247,5.093-4.197,5.093-7.639Z" style="fill:none; stroke:#fff; stroke-linecap:round; stroke-linejoin:round; stroke-width:3px;"/><line x1="148.24" y1="195.82" x2="117.03" y2="195.82" style="fill:none; stroke:#000001; stroke-linecap:round; stroke-miterlimit:10;"/><circle cx="148.491" cy="195.828" r="8.275" style="fill:#000001; stroke-width:0px;"/><path d="m148.491,187.536c-4.462,0-8.079,3.617-8.079,8.079v.425c0,4.462,3.617,8.079,8.079,8.079s8.079-3.617,8.079-8.079v-.425c0-4.462-3.617-8.079-8.079-8.079Z" style="fill:#000001; stroke-width:0px;"/><path d="m145.004,198.834l3.236-3.028c.304-.277.56-.544.768-.8s.368-.496.48-.722c.112-.225.169-.438.169-.637v-.117c0-.312-.119-.567-.357-.767s-.539-.299-.903-.299c-.52,0-.919.112-1.196.338s-.459.61-.546,1.156l-1.638-.52c.139-.832.507-1.476,1.104-1.931.599-.455,1.356-.683,2.275-.683.581,0,1.105.104,1.573.312s.838.512,1.111.91.409.871.409,1.417c0,.45-.089.882-.267,1.293-.178.412-.405.789-.682,1.131-.278.343-.594.674-.949.995l-2.002,1.794h3.965v1.625h-6.552v-1.47Z" style="fill:#fff; stroke-width:0px;"/><path d="m232.02,86.939c0-3.442-2.103-6.392-5.093-7.639-.977-.419-2.052-.653-3.182-.653s-2.205.234-3.182.653c-2.99,1.247-5.093,4.197-5.093,7.639s2.103,6.392,5.093,7.639c.977.419,2.052.653,3.182.653s2.205-.234,3.182-.653c2.99-1.247,5.093-4.197,5.093-7.639Z" style="fill:none; stroke:#fff; stroke-linecap:round; stroke-linejoin:round; stroke-width:3px;"/><circle cx="223.745" cy="86.939" r="8.275" style="fill:#000001; stroke-width:0px;"/><path d="m223.745,78.647c-4.462,0-8.079,3.617-8.079,8.079v.425c0,4.462,3.617,8.079,8.079,8.079s8.079-3.617,8.079-8.079v-.425c0-4.462-3.617-8.079-8.079-8.079Z" style="fill:#000001; stroke-width:0px;"/><path d="m220.258,89.945l3.236-3.029c.304-.277.56-.544.768-.799.208-.256.368-.496.48-.722s.169-.438.169-.637v-.117c0-.312-.119-.567-.357-.768-.238-.199-.539-.299-.903-.299-.52,0-.919.113-1.196.338-.277.226-.459.611-.546,1.157l-1.638-.52c.139-.832.507-1.476,1.104-1.931.599-.455,1.356-.683,2.275-.683.581,0,1.105.104,1.573.312s.838.512,1.111.91.409.871.409,1.417c0,.451-.089.882-.267,1.294-.178.411-.405.788-.682,1.131-.278.343-.594.674-.949.994l-2.002,1.794h3.965v1.625h-6.552v-1.469Z" style="fill:#fff; stroke-width:0px;"/><path d="m156.765,168.036c0-4.064-2.931-7.436-6.793-8.135-.478-.101-.973-.157-1.482-.157s-1.004.055-1.482.157c-3.699.67-6.534,3.794-6.768,7.628h-23.212c-.276,0-.5.224-.5.5s.224.5.5.5h23.211c.227,3.841,3.064,6.972,6.768,7.643.478.101.973.157,1.482.157s1.004-.055,1.482-.157c3.862-.699,6.793-4.072,6.793-8.135Z" style="fill:none; stroke:#fff; stroke-linecap:round; stroke-linejoin:round; stroke-width:3px;"/><line x1="148.24" y1="168.029" x2="117.03" y2="168.029" style="fill:none; stroke:#000001; stroke-linecap:round; stroke-miterlimit:10;"/><circle cx="148.49" cy="168.036" r="8.275" style="fill:#000001; stroke-width:0px;"/><path d="m148.49,159.744c-3.934,0-7.124,3.189-7.124,7.124v2.337c0,3.934,3.189,7.124,7.124,7.124s7.124-3.189,7.124-7.124v-2.337c0-3.934-3.189-7.124-7.124-7.124Z" style="fill:#000001; stroke-width:0px;"/><path d="m147.531,165.849c-.199.135-.455.284-.767.449l-.819-1.326c.477-.26.906-.535,1.287-.826.382-.29.732-.613,1.053-.968h1.808v9.334h-1.846v-7.215c-.278.234-.517.418-.716.552Z" style="fill:#fff; stroke-width:0px;"/><path d="m145.99,86.939c0-4.064-2.931-7.436-6.793-8.135-.478-.101-.973-.157-1.482-.157s-1.004.055-1.482.157c-3.862.699-6.793,4.072-6.793,8.135s2.931,7.436,6.793,8.135c.478.101.973.157,1.482.157s1.004-.055,1.482-.157c3.862-.699,6.793-4.072,6.793-8.135Z" style="fill:none; stroke:#fff; stroke-linecap:round; stroke-linejoin:round; stroke-width:3px;"/><circle cx="137.715" cy="86.939" r="8.275" style="fill:#000001; stroke-width:0px;"/><path d="m137.715,78.647c-3.934,0-7.124,3.189-7.124,7.124v2.337c0,3.934,3.189,7.124,7.124,7.124s7.124-3.189,7.124-7.124v-2.337c0-3.934-3.189-7.124-7.124-7.124Z" style="fill:#000001; stroke-width:0px;"/><path d="m136.756,84.751c-.199.135-.455.284-.767.449l-.819-1.326c.477-.26.906-.535,1.287-.826.382-.29.732-.613,1.053-.968h1.808v9.334h-1.846v-7.215c-.278.234-.517.418-.716.552Z" style="fill:#fff; stroke-width:0px;"/></g><g id="uuid-964bcedb-fc3d-43af-9048-cef2c384d8b5"><path d="m261.742,51.851c-31.518-1.483-73.759-2.643-99.565-2.643" style="fill:none; stroke:#d3d5d6;"/><path d="m62.911,51.837c31.486-1.477,73.542-2.629,99.266-2.629" style="fill:none; stroke:#d3d5d6;"/></g><g id="uuid-0f7c8a49-3ff0-4a9a-98ff-45a682dfe2a7"><path d="m219.616,57.367h4.817c-.834.035-1.597.263-2.316.658-.877-.404-1.72-.614-2.501-.658Z" style="fill:#f2a900; stroke-width:0px;"/><path d="m229.97,59.604h-5.37c-.869-.693-1.694-1.22-2.483-1.579.72-.395,1.483-.623,2.316-.658,1.632-.079,3.475.579,5.537,2.238Z" style="fill:#f2a900; stroke-width:0px;"/><path d="m219.616,57.367c.781.044,1.623.254,2.501.658-3.922,2.115-6.098,8.95-6.326,14.768h-5.37c.272-6.888,3.273-15.206,8.678-15.426h.518Z" style="fill:#f2a900; stroke-width:0px;"/><polygon points="215.791 72.793 219.099 72.793 212.877 78.847 206.656 72.793 210.421 72.793 215.791 72.793" style="fill:#f2a900; stroke-width:0px;"/><path d="m104.228,57.367h-4.817c.834.035,1.597.263,2.316.658.877-.404,1.72-.614,2.501-.658Z" style="fill:#f2a900; stroke-width:0px;"/><path d="m93.874,59.604h5.37c.869-.693,1.694-1.22,2.483-1.579-.72-.395-1.483-.623-2.316-.658-1.632-.079-3.475.579-5.537,2.238Z" style="fill:#f2a900; stroke-width:0px;"/><path d="m104.228,57.367c-.781.044-1.623.254-2.501.658,3.922,2.115,6.098,8.95,6.326,14.768h5.37c-.272-6.888-3.273-15.206-8.678-15.426h-.518Z" style="fill:#f2a900; stroke-width:0px;"/><polygon points="108.054 72.793 104.746 72.793 110.967 78.847 117.188 72.793 113.424 72.793 108.054 72.793" style="fill:#f2a900; stroke-width:0px;"/></g></svg>