<?xml version="1.0" encoding="UTF-8"?><svg xmlns="http://www.w3.org/2000/svg" width="654" height="430.396" xmlns:xlink="http://www.w3.org/1999/xlink" viewBox="0 0 654 430.396"><defs><clipPath id="uuid-0cb01dc6-76c3-41e4-84a0-846b13df10ab"><rect x="12.754" y="260.146" width="170.313" height="105.387" style="fill:none; stroke-width:0px;"/></clipPath></defs><g id="uuid-2740e5af-d421-4504-aab0-43a644e99da4"><line x1="591.468" y1="236.551" x2="614.003" y2="387.276" style="fill:none; stroke:#a7abae; stroke-linecap:round; stroke-linejoin:round; stroke-width:.5px;"/><line x1="608.625" y1="228.818" x2="644.362" y2="435.922" style="fill:none; stroke:#a7abae; stroke-linecap:round; stroke-linejoin:round; stroke-width:.5px;"/><line x1="653.212" y1="437.343" x2="617.229" y2="228.818" style="fill:none; stroke:#a7abae; stroke-linecap:round; stroke-linejoin:round; stroke-width:.5px;"/><path d="m600.018,228.818h24.465c.378,0,.702.271.769.643l26.01,144.155" style="fill:none; stroke:#a7abae; stroke-linecap:round; stroke-linejoin:round; stroke-width:.5px;"/><line x1="626.585" y1="387.276" x2="136.225" y2="387.276" style="fill:none; stroke:#a7abae; stroke-linecap:round; stroke-linejoin:round;"/><line x1="628.089" y1="396.621" x2="134.72" y2="396.621" style="fill:none; stroke:#a7abae; stroke-linecap:round; stroke-linejoin:round; stroke-width:.5px;"/><path d="m600.796,226.497l39.161,243.195c.07.437-.054.883-.342,1.221s-.708.531-1.151.531H124.349c-.443,0-.864-.194-1.151-.531s-.412-.783-.342-1.221l37.531-233.076" style="fill:none; stroke:#a7abae; stroke-linecap:round; stroke-linejoin:round;"/><line x1="171.342" y1="236.551" x2="148.807" y2="387.276" style="fill:none; stroke:#a7abae; stroke-linecap:round; stroke-linejoin:round; stroke-width:.5px;"/><line x1="154.185" y1="228.818" x2="116.071" y2="449.692" style="fill:none; stroke:#a7abae; stroke-linecap:round; stroke-linejoin:round; stroke-width:.5px;"/><line x1="105.178" y1="462.955" x2="145.581" y2="228.818" style="fill:none; stroke:#a7abae; stroke-linecap:round; stroke-linejoin:round; stroke-width:.5px;"/><path d="m154.185,228.818h-15.858c-.378,0-.702.271-.769.643l-43.985,241.983" style="fill:none; stroke:#a7abae; stroke-linecap:round; stroke-linejoin:round; stroke-width:.5px;"/><path d="m221.952,367.893l4.587-34.5c.385-2.893,2.328-5.341,5.059-6.371l39.882-15.043" style="fill:none; stroke:#a7abae; stroke-linecap:round; stroke-linejoin:round; stroke-width:.5px;"/><path d="m232.554,257.911l.505,29.281c.023,1.309-.103,2.616-.375,3.897l-3.506,16.506c-.264,1.245-.391,2.515-.377,3.788l.159,14.437" style="fill:none; stroke:#a7abae; stroke-linecap:round; stroke-linejoin:round; stroke-width:.5px;"/><path d="m568.662,353.996c-.646-5.494-4.181-36.955-6.951-61.655-.149-1.327-.522-2.6-1.119-3.794l-4.289-8.58c-.592-1.184-.972-2.48-1.119-3.795-.979-8.734-1.631-14.555-1.631-14.555-2.085-10.29-6.988-11.987-14.434-11.987,0,0-157.91,0-157.91,0h-157.91c-7.445,0-12.348,1.697-14.434,11.987,0,0-.652,5.822-1.631,14.555-.147,1.315-.528,2.612-1.119,3.795l-4.289,8.58c-.597,1.194-.97,2.467-1.119,3.794-2.771,24.701-6.306,56.161-6.951,61.655" style="fill:none; stroke:#a7abae; stroke-linecap:round; stroke-linejoin:round;"/><path d="m540.466,367.893l-4.587-34.5c-.385-2.893-2.328-5.341-5.059-6.371l-42.692-16.103" style="fill:none; stroke:#a7abae; stroke-linecap:round; stroke-linejoin:round; stroke-width:.5px;"/><path d="m529.864,257.911l-.505,29.281c-.023,1.309.103,2.616.375,3.897l3.506,16.506c.264,1.245.391,2.515.377,3.788l-.159,14.437" style="fill:none; stroke:#a7abae; stroke-linecap:round; stroke-linejoin:round; stroke-width:.5px;"/><path d="m545.497,105.87h77.185c7.188,0,7.904.931,8.21,3.001.172,1.164.451,3.05.662,4.477.19,1.283.103,2.603-.247,3.852l-33.457,119.351h-220.748s-220.748,0-220.748,0l-33.457-119.351c-.35-1.249-.437-2.569-.247-3.852.211-1.428.49-3.313.662-4.477.306-2.069,1.023-3.001,8.21-3.001,1.142,0,104.483,0,125.832,0" style="fill:none; stroke:#a7abae; stroke-linecap:round; stroke-linejoin:round; stroke-width:1.25px;"/><path d="m552.087,115.215h70.595c7.188,0,7.904.931,8.21,3.001" style="fill:none; stroke:#a7abae; stroke-linecap:round; stroke-linejoin:round; stroke-width:.5px;"/><path d="m123.31,118.215c.306-2.069,1.023-3.001,8.21-3.001,1.132,0,46.956,0,67.987,0" style="fill:none; stroke:#a7abae; stroke-linecap:round; stroke-linejoin:round; stroke-width:.5px;"/></g><g id="uuid-ce176adb-c6b1-457d-a41e-3b1b23f02b23"><path d="m488.696,369.579c-2.366.684-4.858,1.521-8.017,2.402,0,0-13.444,4.118-23.083,6.813-9.639,2.695-16.348,4.178-31.083,4.178-12.781,0-38.542,0-45.149,0h-.309c-6.607,0-32.368,0-45.149,0-14.735,0-21.443-1.484-31.083-4.178-9.639-2.695-23.083-6.813-23.083-6.813-4.475-1.248-7.61-2.407-10.948-3.17-.087-.458-.171-.918-.253-1.379-4.914-27.603-.572-58.764,7.086-75.144,6.393-13.497,17.715-25.332,32.408-34.377h140.152s0,0,0,0c14.231,8.76,25.3,20.139,31.791,33.109,7.857,16.807,12.266,50.058,6.737,78.474-.005.028-.011.056-.016.085Z" style="fill:#d3d5d6; stroke-width:0px;"/><path d="m489.209,338.94c-1.274,12.789-6.73,24.977-14.608,35.058-.19.247-.596-.046-.396-.305,7.748-10.134,13.135-22.1,15.005-34.753h0Z" style="fill:#000001; stroke-width:0px;"/><path d="m286.032,373.082c-7.654-10.179-13.181-22.433-14.042-35.239,1.476,9.46,4.368,18.68,9.229,26.946,1.597,2.751,3.316,5.435,5.214,7.993.193.251-.207.565-.4.3h0Z" style="fill:#000001; stroke-width:0px;"/><path d="m488.792,354.924c-1.096,5.808-3.146,11.464-6.048,16.618-.153.276-.591.041-.439-.24,2.762-5.203,5.016-10.663,6.486-16.378h0Z" style="fill:#000001; stroke-width:0px;"/><path d="m277.674,370.457c-2.746-5.097-4.647-10.665-5.646-16.361,1.351,5.615,3.476,10.992,6.089,16.129.148.281-.295.518-.443.232h0Z" style="fill:#000001; stroke-width:0px;"/><path d="m290.175,329.446c1.158-1.483,2.323-2.955,3.509-4.42.083-.106.249.027.162.131-.003.003-3.668,4.285-3.671,4.289h0Z" style="fill:#000001; stroke-width:0px;"/><path d="m466.535,324.989c1.275,1.545,2.492,3.138,3.668,4.756-1.261-1.559-2.6-3.049-3.821-4.633-.078-.098.075-.221.154-.123h0Z" style="fill:#000001; stroke-width:0px;"/><path d="m296.145,349.045c.874-1.888,1.737-3.75,2.652-5.626.118-.252.513-.061.387.189-.791,1.615-2.116,3.86-3.039,5.438h0Z" style="fill:#000001; stroke-width:0px;"/><path d="m461.333,343.461c.881,1.885,1.834,3.713,2.766,5.568-1.001-1.813-2.036-3.625-2.983-5.461-.075-.14.151-.252.217-.106h0Z" style="fill:#000001; stroke-width:0px;"/><path d="m477.209,316.404c.965,25.126-17.317,46.616-38.471,58.008-3.56,1.971-7.236,3.728-10.994,5.281-3.767,1.569-7.562,3.143-11.654,3.524,0,0-.144-.491-.144-.491,13.723-3.98,26.806-10.538,37.705-19.826,23.252-19.392,31.231-50.524,14.271-76.769-7.769-12.062-19.22-21.416-31.875-27.998-.123-.064-.17-.215-.107-.337.064-.123.215-.17.337-.107,12.688,6.669,24.154,16.12,31.908,28.275,17.076,26.526,9.129,57.59-14.269,77.245-10.935,9.37-24.085,15.893-37.826,20.009-.135.04-.278-.036-.318-.171-.038-.128.029-.263.152-.311,2.739-1.42,5.49-2.455,8.409-3.427,4.683-1.775,9.243-3.883,13.629-6.296,20.903-11.281,38.611-31.984,39.247-56.607h0Z" style="fill:#000001; stroke-width:0px;"/><path d="m324.187,258.133c-33.698,17.014-53.807,54.137-31.766,88.752,11.691,18.207,31.424,29.903,51.865,35.845,0,0-.142.484-.142.484-3.01-.512-6.017-1.13-8.804-2.437-4.742-1.824-9.363-3.966-13.807-6.433-21.122-11.416-39.353-32.843-38.509-57.94.519,24.659,18.275,45.417,39.209,56.675,5.278,2.872,10.778,5.38,16.493,7.252,1.914.61,3.683,1.68,5.581,2.406.13.05.195.196.145.325-26.917-7.125-54.347-27.139-60.498-55.825-3.002-14.121.243-29.241,8.046-41.306,7.777-12.154,19.259-21.591,31.956-28.243.122-.064.273-.017.337.105.064.122.017.274-.106.338h0Z" style="fill:#000001; stroke-width:0px;"/><path d="m421.767,257.911c30.508,11.276,51.45,34.553,51.45,61.439,0,28.762-23.967,53.394-57.972,63.621" style="fill:none; stroke:#000001; stroke-linecap:round; stroke-linejoin:round; stroke-width:.5px;"/><path d="m344.989,382.972c-34.005-10.228-57.972-34.86-57.972-63.621,0-26.886,20.942-50.163,51.45-61.439" style="fill:none; stroke:#000001; stroke-linecap:round; stroke-linejoin:round; stroke-width:.5px;"/><path d="m450.184,257.911c14.231,8.76,25.3,20.139,31.791,33.109,7.857,16.807,12.266,50.058,6.737,78.474" style="fill:none; stroke:#000001; stroke-linecap:round; stroke-linejoin:round; stroke-width:1.5px;"/><path d="m270.538,367.432c-4.914-27.603-.572-58.764,7.086-75.144,6.393-13.497,17.715-25.332,32.408-34.377" style="fill:none; stroke:#000001; stroke-linecap:round; stroke-linejoin:round; stroke-width:1.5px;"/><path d="m485.999,303.563c1.174,4.661,1.768,9.445,1.768,14.247,0,26.636-18.186,50.175-46.001,64.379" style="fill:none; stroke:#000001; stroke-linecap:round; stroke-linejoin:round; stroke-width:.5px;"/><path d="m317.521,381.793c-27.382-14.242-45.234-37.593-45.234-63.983,0-4.846.278-9.674,1.473-14.375" style="fill:none; stroke:#000001; stroke-linecap:round; stroke-linejoin:round; stroke-width:.5px;"/><path d="m176.21,147.294l11.294,33.849c.875,4.109,4.474,7.043,8.638,7.043h59.183c4.745,0,8.659-3.716,8.905-8.455l6.681-128.821" style="fill:#d3d5d6; stroke:#000001; stroke-linecap:round; stroke-linejoin:round; stroke-width:1.25px;"/><path d="m575.535,77.705h-85.723l6.264,101.778c.116,4.84,4.073,8.704,8.914,8.704h58.944c4.164,0,7.763-2.934,8.638-7.043l11.294-33.849-8.332-69.589Z" style="fill:#d3d5d6; stroke:#000001; stroke-linecap:round; stroke-linejoin:round; stroke-width:1.25px;"/><path d="m268.036,136.831l3.799,43.22c.405,4.604,4.26,8.136,8.882,8.136h198.642c4.622,0,8.478-3.532,8.882-8.136l3.799-43.22" style="fill:#d3d5d6; stroke:#000001; stroke-linecap:round; stroke-linejoin:round; stroke-width:1.25px;"/><path d="m380.935,182.365s54.245,0,60.024,0c5.779,0,13.27-1.487,18.621-3.187s30.062-9.935,41.309-13.387c6.547-2.01,11.344-2.789,17.123-2.789,5.779,0,49.841,0,56.737,0,7.426,0,17.199-5.538,16.135-17.718-1.064-12.18-11.411-94.335-12.77-106.7-.768-6.983-5.296-12.325-14.661-12.325h-182.517s-182.279,0-182.279,0c-9.365,0-14.131,5.341-14.898,12.325-1.359,12.366-11.706,96.437-12.77,108.617-1.064,12.18,8.709,15.801,16.135,15.801h56.737c5.779,0,10.576.779,17.123,2.789,11.247,3.452,35.958,11.687,41.309,13.387,5.351,1.7,12.842,3.187,18.621,3.187s60.024,0,60.024,0Z" style="fill:#d3d5d6; stroke:#000001; stroke-linecap:round; stroke-linejoin:round; stroke-width:1.25px;"/><path d="m246.49,157.195c6.101.27,5.878-5.648,6.14-10.198,0,0,.944-14.289.944-14.289,1.467-20.606,3.654-50.883,5.096-71.41.301-4.604,1.005-9.663-1.141-13.958,2.182,2.942,2.426,6.898,2.136,10.436-1.471,21.988-3.663,52.911-5.183,74.995,0,0-1.017,14.28-1.017,14.28-.347,3.38.118,8.044-3.321,10.126-1.149.636-2.439.759-3.654.768-.207.001-.376-.165-.378-.372-.002-.209.169-.379.378-.378h0Z" style="fill:#000001; stroke-width:0px;"/><path d="m273.942,162.836c-5.107-1.906-5.154-8.584-5.058-13.158.205-4.914.485-9.815.781-14.718,1.332-21.208,3.389-52.384,4.799-73.506.248-2.311.312-8.791,1.197-10.998.399-1.173,1.034-2.289,1.938-3.128-1.648,1.872-2.107,4.405-2.211,6.802-1.423,24.125-3.673,56.622-5.117,80.866-.291,4.901-.609,9.804-.827,14.702-.105,4.375-.136,10.724,4.58,12.645.337.02.275.581-.082.493h0Z" style="fill:#000001; stroke-width:0px;"/><path d="m585.913,143.824c1.156,12.319-8.305,14.614-18.497,14.17-16.799.252-44.03-.286-60.728.314-6.412.571-13.321,3.11-19.461,5.091,0,0-25.693,8.341-25.693,8.341-8.439,2.996-17.49,5.226-26.569,4.834-26.933-.007-81.136.008-108.063.004-9.079.393-18.131-1.837-26.57-4.833-4.239-1.41-28.252-9.145-32.116-10.424-4.255-1.416-8.579-2.562-13.036-3.004-5.403-.505-28.083-.123-33.712-.235,0,0-27.015.001-27.015.001-5.898.115-13.692.032-17.132-5.853-1.443-2.528-1.644-5.597-1.365-8.407.013-.137.134-.239.272-.226.137.012.237.134.226.269-.754,11.845,8.23,13.609,17.999,13.19,0,0,27.016.001,27.016.001,5.727.111,28.738-.267,33.813.242,4.514.446,8.954,1.617,13.235,3.045,3.742,1.235,27.758,8.997,32.123,10.429,4.271,1.398,8.508,2.842,12.931,3.661,4.413.91,8.816,1.234,13.332,1.126,0,0,54.031.002,54.031.002,3.541-.078,59.129.199,60.736-.164,4.442-.405,8.858-1.299,13.139-2.552,4.746-1.476,27.056-8.793,32.12-10.408,6.172-2.007,13.15-4.548,19.658-5.129,16.718-.636,44.066-.047,60.828-.163,9.533.469,18.967-1.333,17.998-13.279-.013-.14.093-.264.233-.272.136-.009.254.094.265.229h0Z" style="fill:#000001; stroke-width:0px;"/><path d="m585.664,143.846c-1.021-11.701-10.945-91.534-12.249-102.506-.736-6.196-3.104-10.936-12.086-10.936l-180.394-.905-180.394.905c-8.982,0-11.35,4.74-12.086,10.936-1.304,10.972-11.228,90.805-12.249,102.506" style="fill:none; stroke:#000001; stroke-linecap:round; stroke-linejoin:round; stroke-width:.5px;"/><path d="m515.381,157.945c-6.763.222-6.692-5.993-6.985-11.042,0,0-1.032-14.429-1.032-14.429-1.443-20.818-3.606-51.427-4.999-72.169-.222-4.599-1.137-10.362,2.515-13.929-2.937,3.908-1.956,9.326-1.758,13.879,1.435,20.706,3.664,51.371,5.149,72.155,0,0,.96,14.438.96,14.438.28,2.958-.036,6.063,1.626,8.548,1.039,1.428,2.794,1.806,4.524,1.799.483-.025.497.767,0,.75h0Z" style="fill:#000001; stroke-width:0px;"/><path d="m487.847,162.343c4.875-1.944,4.723-8.82,4.555-13.275-.241-5.11-.573-10.222-.878-15.334-1.364-22.123-3.477-54.631-4.904-76.665-.104-4.946-.686-11.291-6.938-11.526,4.413-.331,6.909,3.684,7.177,7.653,1.59,23.598,3.764,56.789,5.27,80.501.311,5.113.603,10.225.831,15.348.156,4.718.262,11.801-5.031,13.791-.353.043-.436-.422-.082-.493h0Z" style="fill:#000001; stroke-width:0px;"/><path d="m190.961,157.498c2.451-19.232,5.801-46.046,8.074-64.998.278-6.713,3.274-10.679,10.37-10.107,8.161.01,24.591.01,32.751.019,0,0,8.188.005,8.188.005,2.613-.05,6.209.127,7.127,3.136.023.065-.012.137-.077.16-.064.022-.134-.011-.159-.073-1.041-2.816-4.356-2.743-6.891-2.722,0,0-8.188.005-8.188.005l-16.375.009-16.375.009c-2.66-.092-5.501.069-7.374,2.168-1.911,1.998-2.196,4.794-2.432,7.455-1.272,10.848-2.662,21.674-4.019,32.507l-4.123,32.491c-.017.137-.143.234-.279.217s-.234-.143-.217-.28h0Z" style="fill:#000001; stroke-width:0px;"/><path d="m480.971,164.762c-.903-14.641-3.197-51.556-4.069-65.678-.086-1.83-.419-6.443-.509-8.21.103-4.836-2.932-8.627-7.787-9.285-2.982-.476-7.801-.177-10.907-.256,0,0-10.966,0-10.966,0-40.2,0-91.395,0-131.595,0,0,0-10.966,0-10.966,0-4.954.244-11.703-1.05-15.759,2.361-2.995,2.38-2.921,6.433-3.105,9.917,0,0-.339,5.473-.339,5.473l-1.356,21.893c-.655,12.822-2.121,31.119-2.962,43.769.419-12.598,1.844-30.997,2.462-43.792,0,0,1.357-21.888,1.357-21.888l.339-5.472c.116-1.641.159-3.894.471-5.504.415-1.829,1.352-3.569,2.812-4.778,4.331-3.576,10.903-2.22,16.081-2.478,6.805.004,25.812-.002,32.899,0,31.648.012,78.138-.009,109.662,0,0,0,10.966,0,10.966,0,5.146.26,11.758-1.1,16.081,2.478,2.231,1.818,3.085,4.768,3.113,7.546,0,0,.17,2.736.17,2.736l.339,5.472c.879,13.978,3.165,51.237,4.068,65.665.009.138-.095.257-.233.266-.138.009-.258-.096-.266-.234h0Z" style="fill:#000001; stroke-width:0px;"/><path d="m570.413,157.561c-2.468-19.243-5.87-46.049-8.144-65.018-.281-6.478-2.98-10.143-9.829-9.602-8.163,0-24.599-.018-32.761-.019,0,0-8.19-.005-8.19-.005-2.538-.028-5.856-.072-6.868,2.759-.025.064-.097.097-.161.072-.063-.024-.094-.094-.074-.157.899-3.022,4.482-3.229,7.102-3.175,0,0,8.19-.005,8.19-.005l16.381-.009c3.128.136,17.713-.33,20.52.246,4.607.941,6.105,5.702,6.253,9.831,2.267,18.863,5.659,45.909,8.077,65.019.017.137-.08.262-.217.279-.137.017-.262-.08-.28-.217h0Z" style="fill:#000001; stroke-width:0px;"/><path d="m192.569,36.246c3.813,14.041,7.662,29.575,10.837,43.774-3.816-14.041-7.659-29.576-10.837-43.774h0Z" style="fill:#000001; stroke-width:0px;"/><path d="m569.302,36.246c-3.178,14.199-7.021,29.734-10.837,43.774,3.175-14.199,7.024-29.733,10.837-43.774h0Z" style="fill:#000001; stroke-width:0px;"/><path d="m279.799,52.608c2.682,9.274,5.287,19.571,7.331,29.006-2.684-9.273-5.284-19.571-7.331-29.006h0Z" style="fill:#000001; stroke-width:0px;"/><path d="m482.072,52.608c-2.047,9.435-4.647,19.732-7.331,29.006,2.044-9.435,4.65-19.732,7.331-29.006h0Z" style="fill:#000001; stroke-width:0px;"/><path d="m257.622,42.885c.294-4.216,6.058-4.298,9.247-4.244,3.575.158,7.911,1.16,9.633,4.645-.962-1.598-2.577-2.638-4.28-3.243-3.505-1.206-13.878-2.193-14.599,2.841h0Z" style="fill:#000001; stroke-width:0px;"/><path d="m504.218,42.572c-1.151-4.537-10.261-3.678-13.776-2.794-1.622.459-3.202,1.222-4.385,2.483,1.038-1.393,2.634-2.295,4.277-2.834,3.582-1.145,13.101-1.854,13.884,3.145h0Z" style="fill:#000001; stroke-width:0px;"/><path d="m255.904,166.029c1.962,5.438,3.606,10.975,4.922,16.605-1.965-5.437-3.604-10.975-4.922-16.605h0Z" style="fill:#000001; stroke-width:0px;"/><path d="m504.172,166.029c-1.318,5.629-2.956,11.167-4.921,16.605,1.315-5.63,2.959-11.166,4.921-16.605h0Z" style="fill:#000001; stroke-width:0px;"/><path d="m350.575,257.911c-33.419,8.909-57.296,32.507-57.296,60.239v2.473c0,30.297,28.498,55.677,66.802,62.348m40.068,0c38.295-6.671,66.783-32.051,66.783-62.348v-2.473c0-27.732-23.869-51.33-57.279-60.239" style="fill:none; fill-rule:evenodd; stroke:#000001; stroke-linecap:round; stroke-linejoin:round;"/><path d="m293.629,317.75c0,35.211,38.795,63.858,86.479,63.858s86.479-28.647,86.479-63.858" style="fill:none; stroke:#000001; stroke-linecap:round; stroke-linejoin:round; stroke-width:.5px;"/><path d="m380.038,329.125c12.602,0,19.566-7.425,19.566-13.629v-1.686c0-2.686-1.291-5.598-3.78-8.037-1.161-1.138-2.512-2.1-3.944-2.871-.258-.139-2.137-1.218-5.318-1.992-.031-.447-.023-1.49-.363-1.567l-1.408-.315c-.376-.084-.991,1.039-1.201,1.393-1.428-.186-3.894-.433-7.103,0-.207-.348-.824-1.477-1.201-1.393l-1.408.315c-.34.076-.333,1.133-.363,1.567-3.167.77-5.071,1.859-5.318,1.992-1.432.771-2.783,1.733-3.944,2.871-2.489,2.44-3.78,5.352-3.78,8.037v1.686c0,6.204,6.965,13.629,19.567,13.629" style="fill:#d3d5d6; stroke-width:0px;"/><path d="m380.038,328.958c7.6.05,16.628-3.239,19.069-11.101.906-3.826.2-8.049-2.506-11.01-2.571-3.001-6.256-4.868-10.078-5.777-.072-.017-.122-.08-.127-.151-.026-.422-.026-.842-.124-1.208-.076-.221-.071-.203-.315-.253-.303-.064-.904-.205-1.206-.267-.435.199-.738.88-1.017,1.313-2.326-.039-4.841-.347-7.224.08-.304-.06-.532-.843-.834-1.107-.109-.146-.302-.302-.349-.286l-.595.13-.611.137c-.241.054-.241.028-.314.253-.098.367-.099.786-.125,1.208-.005.074-.058.134-.127.151-3.821.911-7.508,2.774-10.079,5.777-2.704,2.96-3.413,7.185-2.506,11.01,1.097,3.8,4.165,6.748,7.627,8.543,3.514,1.811,7.503,2.522,11.441,2.557.279-.003.507.225.504.504-.002.276-.228.498-.504.496-4.063-.036-8.207-.767-11.901-2.669-5.92-3.006-9.653-8.687-8.287-15.47,1.388-6.334,7.565-10.358,13.467-11.72,0,0-.634.752-.634.752.038-.738.007-2.248,1.218-2.368.397-.067.914-.228,1.307-.284,1.157-.006,1.519,1.107,1.994,1.795,0,0-.828-.4-.828-.4,2.422-.33,4.906-.327,7.322,0l-.824.4c.485-.707.9-1.921,2.117-1.776.336.073.846.191,1.184.265.177.025.525.133.662.284.633.64.478,1.482.556,2.085,0,0-.634-.752-.634-.752,5.902,1.359,12.079,5.388,13.467,11.719,1.365,6.778-2.365,12.468-8.287,15.47-3.693,1.902-7.837,2.633-11.9,2.669-.663-.009-.66-.995,0-1h0Z" style="fill:#141b21; stroke-width:0px;"/><path d="m380.038,303.139c4.107,0,8.521,2.27,8.521,5.936,0,3.552-4.225,5.935-8.521,5.935" style="fill:none; stroke:#141b21; stroke-linecap:round; stroke-linejoin:round; stroke-width:.5px;"/><path d="m396.196,317.476l.609-1.41-.573-2.332c-.142-.995-.762-1.792-1.576-2.027l-4.447-1.283c.114-.432.174-.882.174-1.348,0-1.015-.279-1.942-.768-2.768l-.019.011,4.436-1.28c.354-.102.726-.025,1.031.214" style="fill:none; stroke:#141b21; stroke-linecap:round; stroke-linejoin:round; stroke-width:.5px;"/><path d="m390.326,309.847l5.869-1.693-.55-1.853c-.067-.431-.278-.81-.583-1.049l-.897-.823c-.305-.239-.678-.316-1.031-.214l-4.16,1.2c-1.175-1.377-2.977-2.396-4.982-2.98l.005-.017,1.203-2.022c.497-.835.805-1.097.999-1.053" style="fill:none; stroke:#141b21; stroke-linecap:round; stroke-linejoin:round; stroke-width:.5px;"/><path d="m383.997,315.732l-.003-.01c2.452-.712,4.545-2.071,5.618-3.884l-.015-.004,4.45,1.284c.814.235,1.434,1.032,1.576,2.027l.573,2.332-5.796-1.379c-.462-.12-.95.038-1.276.414-.951,1.097-2.009,1.599-3.298,2.299" style="fill:none; stroke:#141b21; stroke-linecap:round; stroke-linejoin:round; stroke-width:.5px;"/><path d="m380.036,321.249c.74,0,1.572-.068,2.45-.263.394-.088.795.107,1.029.5l1.736,2.918,1.48-.333-.286-3.431c-.032-.57-.195-1.118-.471-1.582l-1.977-3.325" style="fill:none; stroke:#141b21; stroke-linecap:round; stroke-linejoin:round; stroke-width:.5px;"/><polygon points="389.891 318.796 391.621 319.119 392.085 320.325 390.818 321.207 389.088 320.884 388.624 319.679 389.891 318.796" style="fill:none; stroke:#141b21; stroke-linecap:round; stroke-linejoin:round; stroke-width:.5px;"/><path d="m385.251,324.403l-.286-3.431c-.032-.57-.195-1.118-.471-1.582l-1.977-3.325c-.81.142-1.643.215-2.479.215" style="fill:none; stroke:#141b21; stroke-linecap:round; stroke-linejoin:round; stroke-width:.5px;"/><polyline points="386.566 300.852 386.591 301.561 385.81 303.114" style="fill:none; stroke:#141b21; stroke-linecap:round; stroke-linejoin:round; stroke-width:.5px;"/><path d="m376.487,300.421l1.001,1.683c.842-.155,1.702-.234,2.551-.234.849,0,1.708.08,2.551.234l1-1.682" style="fill:none; stroke:#141b21; stroke-linecap:round; stroke-linejoin:round; stroke-width:.5px;"/><line x1="374.739" y1="302.907" x2="373.515" y2="300.909" style="fill:none; stroke:#141b21; stroke-linecap:round; stroke-linejoin:round; stroke-width:.5px;"/><path d="m380.038,303.139c-4.107,0-8.521,2.27-8.521,5.936,0,3.552,4.225,5.935,8.521,5.935" style="fill:none; stroke:#141b21; stroke-linecap:round; stroke-linejoin:round; stroke-width:.5px;"/><path d="m371.764,310.523c2.263-4.582,8.02-4.439,8.275-4.439.252,0,6.012-.141,8.275,4.438" style="fill:none; stroke:#141b21; stroke-linecap:round; stroke-linejoin:round; stroke-width:.5px;"/><path d="m380.038,312.331c-1.71,0-3.392-.949-3.392-2.363,0-.13.014-.255.04-.375.271-1.237,1.862-1.987,3.352-1.987,1.49,0,3.081.75,3.352,1.987.026.121.04.246.04.375,0,1.414-1.682,2.363-3.392,2.363h0Z" style="fill:none; stroke:#141b21; stroke-linecap:round; stroke-linejoin:round; stroke-width:.5px;"/><path d="m380.038,310.94c-.704,0-1.396-.39-1.396-.972s.723-.972,1.396-.972c.673,0,1.396.372,1.396.972,0,.582-.692.972-1.396.972h0Z" style="fill:none; stroke:#141b21; stroke-linecap:round; stroke-linejoin:round; stroke-width:.5px;"/><path d="m363.88,317.476l-.609-1.41.573-2.332c.142-.995.762-1.792,1.576-2.027l4.447-1.283c-.114-.432-.174-.882-.174-1.348,0-1.015.279-1.942.768-2.768l.019.011-4.436-1.28c-.354-.102-.726-.025-1.031.214" style="fill:none; stroke:#141b21; stroke-linecap:round; stroke-linejoin:round; stroke-width:.5px;"/><path d="m369.75,309.847l-5.869-1.693.55-1.853c.067-.431.278-.81.583-1.049l.897-.823c.305-.239.678-.316,1.031-.214l4.16,1.2c1.175-1.377,2.977-2.396,4.982-2.98l-.005-.017-1.203-2.022c-.497-.835-.805-1.097-.999-1.053" style="fill:none; stroke:#141b21; stroke-linecap:round; stroke-linejoin:round; stroke-width:.5px;"/><path d="m363.88,317.476l5.796-1.672c.462-.133.95.042,1.276.459.922,1.178,2.103,1.898,2.734,2.241" style="fill:none; stroke:#141b21; stroke-linecap:round; stroke-linejoin:round; stroke-width:.5px;"/><path d="m380.04,321.249c-.74,0-1.572-.068-2.45-.263-.394-.088-.795.107-1.029.5l-1.736,2.918-1.48-.333.286-3.431c.032-.57.195-1.118.471-1.582l1.977-3.325.003-.01c-2.452-.712-4.545-2.071-5.618-3.884l.015-.004-4.45,1.284c-.814.235-1.434,1.032-1.576,2.027l-.573,2.332" style="fill:none; stroke:#141b21; stroke-linecap:round; stroke-linejoin:round; stroke-width:.5px;"/><polygon points="370.185 318.796 368.455 319.119 367.991 320.325 369.258 321.207 370.988 320.884 371.452 319.679 370.185 318.796" style="fill:none; stroke:#141b21; stroke-linecap:round; stroke-linejoin:round; stroke-width:.5px;"/><path d="m360.472,313.81c0,6.204,6.965,13.629,19.566,13.629,12.602,0,19.566-7.425,19.566-13.629" style="fill:none; stroke:#141b21; stroke-linecap:round; stroke-linejoin:round; stroke-width:.5px;"/><path d="m374.825,324.403l.286-3.431c.032-.57.195-1.118.471-1.582l1.977-3.325c.81.142,1.643.215,2.479.215" style="fill:none; stroke:#141b21; stroke-linecap:round; stroke-linejoin:round; stroke-width:.5px;"/><path d="m376.687,309.593l-.316,1.445c-.029.132-.044.269-.044.411,0,1.547,1.84,2.586,3.712,2.586h0c1.872,0,3.712-1.038,3.712-2.586,0-.142-.015-.279-.044-.411l-.316-1.445" style="fill:none; stroke:#141b21; stroke-linecap:round; stroke-linejoin:round; stroke-width:.5px;"/><path d="m569.159,353.938c1.352,10.204-7.504,15.211-16.62,14.614-12.402.063-37.116.11-49.498.094-4.114-.056-8.125.038-12.098,1.107-3.944,1.037-7.901,2.385-11.843,3.481-15.864,4.492-31.648,10.602-48.377,10.448-33.049.088-65.979.091-99.028.009-4.141-.089-8.296-.337-12.422-.908-4.129-.554-8.201-1.486-12.193-2.572-9.94-2.833-19.802-5.8-29.711-8.716-3.908-1.22-7.782-2.438-11.868-2.706-4.921-.281-25.742-.047-30.873-.119-3.447-.203-27.722.523-31.068-.504-6.72-1.35-11.541-7.175-10.3-14.227.037-.274.288-.466.562-.429.268.036.458.279.431.546-.78,6.356,3.488,11.459,9.639,12.634,3.278.892,26.771.242,30.736.43,0,0,24.749.002,24.749.002,4.125-.064,8.434.059,12.468,1.152,11.904,3.408,23.726,7.087,35.634,10.452,7.916,2.255,16.028,3.324,24.25,3.432,16.464.099,32.988.03,49.48.053,16.491-.02,33.016.051,49.48-.044,8.222-.106,16.337-1.174,24.253-3.428,9.893-2.82,19.784-5.795,29.658-8.701,5.886-2.068,12.196-3.212,18.441-2.894,0,0,24.749.005,24.749.005,3.09-.175,27.784.571,30.763-.341,6.109-1.183,10.552-6.316,9.612-12.757-.028-.275.172-.52.446-.548.271-.028.515.167.548.437h0Z" style="fill:#a7abae; stroke-width:0px;"/><path d="m545.497,269.215c-2.48-8.603-6.342-10.919-15.11-10.524-13.231.018-50.157.069-63.933.088-70.395.048-164.366.2-234.423-.29-8.603-.563-13.024,1.879-15.11,10.727,1.414-9.225,6.124-12.11,15.11-11.881,69.93-.493,164.15-.337,234.423-.291,13.736.02,50.557.069,63.933.088,8.835-.395,14.111,2.616,15.11,12.084h0Z" style="fill:#a7abae; stroke-width:0px;"/></g><g id="uuid-dddd67ac-5b1f-49d5-8db7-f5aa16391054"><path d="m255.576,106.121c-1.404,19.768-2.686,40.95-2.841,43.967-.301,6.091-2.613,7.482-6.242,7.482-12.389,0-48.598,0-54.313,0-1.523,0-3.121-.094-4.681-.357-.846-2.914-1.617-5.696-2.707-9.832-.357-1.372-.677-2.782-.564-4.286l11.573-92.744c.409-5.928,5.606-10.779,11.549-10.779h17.225c5.006,0,9.469,3.156,11.137,7.876l12.58,35.429c1.583,4.457,3.246,9.255,4.301,12.91s2.983,10.334,2.983,10.334Z" style="fill:#f2a900; stroke:#141b21; stroke-miterlimit:10; stroke-width:1.25px;"/><path d="m247.56,98.751c.284-4.095-.275-8.205-1.642-12.076l-13.585-38.44c-1.221-3.456-4.488-5.766-8.153-5.766h-16.483c-4.411,0-8.271,3.601-8.576,8.001l-11.331,92.628c-.354,5.1,4.094,9.27,9.913,9.299,9.606.047,22.356.099,32.445.099l2.374-.002c5.852-.006,10.903-4.176,11.259-9.299l3.779-44.445Z" style="fill:none; stroke:#141b21; stroke-miterlimit:10; stroke-width:.5px;"/><path d="m223.003,121.822c-11.348-.276-22.292.058-32.749,1.128" style="fill:none; stroke:#141b21; stroke-miterlimit:10; stroke-width:.5px;"/><path d="m244.07,139.041c-19.778-1.678-38.573-1.873-55.998,0" style="fill:none; stroke:#141b21; stroke-miterlimit:10; stroke-width:.5px;"/><path d="m245.179,123.062c-7.505-1.3-14.801-2.127-21.843-2.377-.141-.005-.261.103-.271.244l-1.075,15.456c-.005.071.019.141.067.194s.115.084.186.087c7.037.251,14.328,1.077,21.827,2.377" style="fill:none; stroke:#141b21; stroke-miterlimit:10; stroke-width:.5px;"/><path d="m236.074,125.124c.559.573,3.584,3.674,4.012,4.241.151.198.255.442.235.733s-.156.509-.331.671c-.499.465-3.902,2.864-4.531,3.307-.057.036-.139-.011-.135-.074.017-.254.057-.843.081-1.197.009-.125.036-.159.137-.227.101-.068.603-.407.603-.407.641-.431,2.066-1.497,2.519-1.893.17-.149.178-.338.178-.341s.018-.19-.129-.374c-.393-.489-1.65-1.849-2.223-2.412,0,0-.448-.443-.539-.532-.09-.089-.112-.129-.104-.254.024-.354.066-.943.083-1.197.004-.063.092-.09.143-.043Z" style="fill:#141b21; stroke-width:0px;"/><path d="m234.693,133.992c-.559-.573-3.584-3.675-4.012-4.241-.151-.198-.255-.442-.235-.733s.156-.509.331-.671c.499-.465,3.902-2.863,4.531-3.306.057-.036.139.011.135.074-.017.254-.057.843-.081,1.197-.009.125-.036.159-.137.227-.101.068-.603.407-.603.407-.641.431-2.066,1.497-2.519,1.893-.17.149-.178.338-.178.341s-.018.19.129.374c.393.489,1.65,1.849,2.223,2.412,0,0,.448.443.539.532.09.089.112.129.104.254-.024.354-.066.943-.083,1.197-.004.062-.092.09-.143.042Z" style="fill:#141b21; stroke-width:0px;"/><path d="m234.026,129.628c.121.013.182.042.273.146.219.252.63.7.817.87.082.077.191.085.191.085,0,0,.108.016.2-.042.207-.127.673-.479.923-.68.104-.082.168-.098.288-.085l1.334.146c.054.006.083.065.035.103-.565.448-1.907,1.436-2.423,1.76-.229.157-.449.116-.449.116,0,0-.222-.008-.427-.212-.464-.432-1.651-1.696-2.147-2.259-.041-.05-.01-.1.053-.093l1.33.145Z" style="fill:#141b21; stroke-width:0px;"/><path d="m234.343,129.109c.25-.201.717-.552.924-.68.092-.058.2-.042.2-.042,0,0,.109.007.191.085.186.17.598.618.817.87.092.104.152.133.272.146l1.33.145c.063.007.095-.043.053-.093-.496-.564-1.683-1.828-2.147-2.259-.204-.204-.427-.212-.427-.212,0,0-.219-.041-.449.116-.516.324-1.858,1.312-2.423,1.76-.048.04-.023.096.04.103l1.33.145c.121.013.184-.002.288-.084Z" style="fill:#141b21; stroke-width:0px;"/><path d="m184.79,147.387c1.657,4.726,6.594,8.106,12.677,8.136,10.381.051,24.438.107,34.841.097,7.833-.008,14.565-5.567,15.041-12.424l3.539-44.848c.377-6.828-1.519-11.395-2.598-14.433" style="fill:none; stroke:#141b21; stroke-miterlimit:10; stroke-width:.5px;"/><line x1="241.908" y1="152.497" x2="243.788" y2="157.57" style="fill:none; stroke:#141b21; stroke-miterlimit:10; stroke-width:.5px;"/><path d="m506.295,106.121c1.404,19.768,2.686,40.95,2.841,43.967.301,6.091,2.613,7.482,6.242,7.482h54.313c1.523,0,3.121-.094,4.681-.357.846-2.914,1.617-5.696,2.707-9.832.357-1.372.677-2.782.564-4.286l-11.573-92.744c-.409-5.928-5.606-10.779-11.549-10.779h-17.225c-5.006,0-9.469,3.156-11.137,7.876l-12.58,35.429c-1.583,4.457-3.246,9.255-4.301,12.91l-2.983,10.334Z" style="fill:#d3d5d6; stroke:#141b21; stroke-miterlimit:10; stroke-width:1.25px;"/><path d="m514.311,98.751c-.284-4.095.275-8.205,1.642-12.076l13.585-38.44c1.221-3.456,4.488-5.766,8.153-5.766h16.483c4.411,0,8.271,3.601,8.576,8.001l11.331,92.628c.354,5.1-4.094,9.27-9.913,9.299-9.606.047-22.356.099-32.445.099l-2.374-.002c-5.852-.006-10.903-4.176-11.259-9.299l-3.779-44.445Z" style="fill:none; stroke:#141b21; stroke-miterlimit:10; stroke-width:.5px;"/><path d="m577.08,147.387c-1.657,4.726-6.594,8.106-12.677,8.136-10.381.051-24.438.107-34.841.097-7.833-.008-14.565-5.567-15.041-12.424l-3.539-44.848c-.377-6.828,1.519-11.395,2.598-14.433" style="fill:none; stroke:#141b21; stroke-miterlimit:10; stroke-width:.5px;"/><line x1="519.963" y1="152.497" x2="518.083" y2="157.57" style="fill:none; stroke:#141b21; stroke-miterlimit:10; stroke-width:.5px;"/><path d="m556.1,67.496l-1.175-.021.162,1.54-.952-.017-.161-1.541-2.128-.038-.1-.958,5.204.094.294,2.776-.952-.016-.192-1.819Z" style="fill:#141b21; stroke-width:0px;"/><path d="m552.656,75.231l5.22.083.102.963-5.222-.082-.1-.965Z" style="fill:#141b21; stroke-width:0px;"/><path d="m553.662,84.921l1.868-.944-.046-.439-1.968-.027-.101-.97,5.233.074.161,1.52c.113,1.07-.488,1.733-1.484,1.72-.643-.009-1.193-.334-1.512-.877l-2.037,1.043-.114-1.1Zm2.719-1.37l.058.552c.048.46.318.762.782.768.471.006.68-.288.631-.748l-.058-.552-1.413-.02Z" style="fill:#141b21; stroke-width:0px;"/><path d="m558.499,95.095l-.104-.984c.426-.009.632-.257.595-.606s-.261-.565-.621-.569c-.405-.005-.504.265-.666.868-.271,1.051-.689,1.425-1.478,1.416-1.014-.011-1.667-.732-1.765-1.675-.118-1.14.525-1.723,1.521-1.733l.103.983c-.516.015-.773.275-.721.774.044.421.316.66.669.664s.528-.258.681-.876c.219-.902.585-1.416,1.463-1.406.907.011,1.621.609,1.725,1.592.098.927-.363,1.528-1.401,1.552Z" style="fill:#141b21; stroke-width:0px;"/><path d="m559.904,103.587l-4.308-.039-.102-.984,4.306.04-.172-1.635.962.009.45,4.255-.963-.008-.173-1.637Z" style="fill:#141b21; stroke-width:0px;"/><path d="m557.481,121.708l1.131-.417-.212-2.037-1.217-.426-.112-1.076,5.504,1.996.115,1.091-5.096,1.955-.113-1.085Zm1.861-2.129l.146,1.396,1.603-.595.284-.093-.304-.097-1.729-.611Z" style="fill:#141b21; stroke-width:0px;"/><path d="m558.233,128.947l5.316.016.106,1.002-5.318-.014-.104-1.003Z" style="fill:#141b21; stroke-width:0px;"/><path d="m562.17,141.151c-1.579,0-2.778-1.041-2.947-2.671l-.2-1.93,5.329.006.204,1.927c.172,1.629-.807,2.668-2.386,2.668Zm-2.067-3.592l.096.921c.107,1.024.786,1.623,1.861,1.623s1.63-.59,1.521-1.621l-.097-.92-3.382-.003Z" style="fill:#141b21; stroke-width:0px;"/><path d="m552.486,50.824c-2.133-.046-3.707,1.533-3.5,3.53s2.12,3.659,4.258,3.702,3.694-1.544,3.482-3.54-2.109-3.646-4.24-3.692Zm.709,6.771c-1.871-.038-3.537-1.489-3.717-3.231s1.188-3.122,3.056-3.082c1.856.04,3.517,1.486,3.701,3.223s-1.18,3.127-3.04,3.089Z" style="fill:#141b21; stroke-width:0px;"/><polygon points="554.442 54.239 554.491 54.699 553.134 54.671 553.267 55.941 552.775 55.931 552.642 54.66 551.284 54.632 551.237 54.172 552.594 54.2 552.461 52.931 552.953 52.942 553.086 54.211 554.442 54.239" style="fill:#141b21; stroke-width:0px;"/><rect x="374.145" y="209.013" width="9.97" height="35.359" style="fill:none; stroke:#fff; stroke-linecap:round; stroke-width:2px;"/><polygon points="369.187 211.923 379.13 194.703 389.073 211.923 369.187 211.923" style="fill:none; stroke:#fff; stroke-linecap:round; stroke-width:2px;"/><rect x="374.145" y="209.013" width="9.97" height="35.359" style="fill:#f2a900; stroke-width:0px;"/><polygon points="369.187 211.923 379.13 194.703 389.073 211.923 369.187 211.923" style="fill:#f2a900; stroke-width:0px;"/></g><g id="uuid-192bb7a7-a226-4371-bd77-25b7578691ae"><rect x="7.849" y="258.146" width="180.124" height="111.064" style="fill:#fff; stroke:#000001; stroke-miterlimit:10; stroke-width:2px;"/><g style="clip-path:url(#uuid-0cb01dc6-76c3-41e4-84a0-846b13df10ab);"><path d="m160.67,298.991c-.218-.365-.716-.397-1.003-.078-.793.886-1.695,1.322-2.761,1.143v-3.072c0-.855-.342-1.337-.731-1.54-.194-.093-1.019-.56-2.597-1.423-.008-.365-.078-2.947,0-4.3.047-.793-.226-1.509-.482-1.983-.21-.397-.412-.638-.412-.638-12.994-14.09-31.742-18.686-43.6-20.591-.086,0-1.858.023-2.387,1.913,0,.008-.008.016,0,.023-.039.544-.093,1.33-.155,2.224v.016c-.233,3.219-.575,7.955-.669,9.145-.148,1.843-1.439,2.022-1.439,2.022-1.897-.972-5.264-1.034-7.356-.187-1.859-.591-1.859-2.551-1.859-2.551l-.404-11.221c-.023-.599-.513-1.073-1.112-1.073h-2.317c-.591,0-1.073.459-1.112,1.042l-.327,5.365-27.387,5.513h-9.238c-14.985,10.21-19.456,22.434-21.244,29.953-.319,1.361-.443,2.387-.474,3.095-.047.84.031,1.244.031,1.244l.599,6.229c-.521,4.16.296,10.381,1.268,14.611.226.28.459.552.7.832v.008c3.32,3.896,7.278,7.473,11.765,10.638,4.704,3.328,9.992,6.205,15.739,8.546,3.585,1.47,7.356,2.722,11.268,3.74,2.846.747,5.778,1.369,8.779,1.851,5.257.863,10.723,1.314,16.33,1.314s11.027-.451,16.268-1.306c4.806-.778,9.44-1.897,13.857-3.32,2.62-.84,5.163-1.796,7.62-2.846h.008c1.54-.661,3.04-1.361,4.502-2.092,4.292-2.154,8.274-4.619,11.874-7.364,3.103-2.364,5.925-4.93,8.429-7.667.358-.397.715-.793,1.057-1.19v-.008c.078-.264.482-5.692.482-5.692,1.33-4.759,1.711-17.216,1.711-17.216-.723-8.056-2.38-11.726-3.219-13.11Z" style="fill:#d3d5d6; stroke-width:0px;"/><path d="m110.552,332.996c.26.969,1.176,1.484,2.185,1.408-1.053.473-2.421.072-3.065-.933,0,0,.88-.475.88-.475h0Z" style="fill:#000001; stroke-width:0px;"/><path d="m108.672,326.927s.696,4.011,1.101,5.449c.088.313.2.601.339.857" style="fill:none; stroke:#000001;"/><path d="m33.41,333.464c-.97-4.233-1.697-10.044-1.176-14.199l-.596-6.235s-.258-1.369.447-4.335c1.788-7.52,6.26-19.741,21.238-29.95h9.24l27.385-5.514.331-5.365c.036-.586.522-1.043,1.11-1.043h2.319c.598,0,1.089.474,1.111,1.071l.406,11.224s0,1.956,1.861,2.545" style="fill:none; stroke:#000001; stroke-linecap:round; stroke-linejoin:round; stroke-width:1.5px;"/><polyline points="91.112 296.779 91.112 291.34 94.537 291.34 95.847 292.904 97.29 291.34 104.463 291.34 105.478 292.681 106.828 291.34 110.704 291.34 110.704 296.779" style="fill:none; stroke:#000001; stroke-linecap:round; stroke-linejoin:round;"/><path d="m95.225,292.161s0-8.143,0-8.411c0-3.568,10.648-3.568,10.648,0v8.537" style="fill:none; stroke:#000001; stroke-linecap:round; stroke-linejoin:round;"/><path d="m104.437,281.855s1.294-.184,1.437-2.027c.118-1.523.646-8.879.826-11.382.086-1.194,1.149-2.115,2.333-1.943.018.003.036.005.054.008,11.863,1.907,30.61,6.497,43.604,20.59,0,0,.975,1.163.89,2.618s0,4.34,0,4.34" style="fill:none; stroke:#000001; stroke-width:1.5px;"/><path d="m117.887,296.779v-2.352s.043-1.241,1.626-2.14,3.552-1.583,4.665-3.638,1.969-3.21,1.969-3.21c0,0,1.113-2.226,4.793,0,3.681,2.226,23.368,13.567,25.08,14.338,1.464.659,2.646.254,3.654-.868.283-.314.781-.284.999.078.838,1.387,2.501,5.058,3.222,13.116,0,0-.385,12.451-1.712,17.211" style="fill:none; stroke:#000001; stroke-width:1.5px;"/><path d="m122.459,290.595v-2.003c0-.158.043-.313.123-.449l.555-.935c.188-.316.553-.482.915-.416l1.079.197" style="fill:none; stroke:#000001; stroke-linecap:round; stroke-linejoin:round;"/><path d="m129.861,284.879l1.003-.965c.295-.284.747-.327,1.091-.103l1.24.808c.249.162.4.44.4.737v1.653" style="fill:none; stroke:#000001; stroke-linecap:round; stroke-linejoin:round;"/><path d="m109.087,266.512s-2.488-.031-2.531,3.007c-.036,2.554-.011,11.364-.003,14.109.001.465.364.845.828.873l4.241.205c.465.028.828.414.828.88v2.44c0,.487.395.881.881.881h.965c.475,0,.879-.31,1.048-.754.144-.38.423-.765.958-.786,1.07-.043,1.969-.589,2.825-2.028s3.344-6.061,4.668-8.415,5.604-3.039,9.242.086c3.638,3.124,13.91,11.556,14.937,12.283s2.354.685,3.21,0,1.917-1.555,1.917-1.555" style="fill:none; stroke:#000001; stroke-linecap:round; stroke-linejoin:round; stroke-width:.5px;"/><line x1="112.451" y1="288.025" x2="112.451" y2="296.779" style="fill:none; stroke:#000001; stroke-linecap:round; stroke-linejoin:round; stroke-width:.5px;"/><path d="m143.013,300.88c.278-.267.468-.658.468-1.231v-2.87s-.128-2.138-2.054-2.138h-20.8c-1.198,0-3.06-.324-1.765-1.896" style="fill:none; stroke:#000001; stroke-linecap:round; stroke-linejoin:round; stroke-width:.5px;"/><path d="m129.012,304.657l2.716,1.173s1.524.796,1.524-.809v-1.99s.043-1.626,2.183-1.626h5.393s1.424.207,2.186-.524" style="fill:none; stroke:#000001; stroke-linecap:round; stroke-linejoin:round;"/><path d="m133.594,302.474l15.841,9.047c.669.382,1.427.583,2.197.583h12.263" style="fill:none; stroke:#000001; stroke-linecap:round; stroke-linejoin:round; stroke-width:.5px;"/><path d="m161.7,335.021c.064-.074.484-5.706.484-5.706,0,0-.043-1.375-1.113-1.375h-8.988c-.588,0-1.166.156-1.675.452l-29.171,16.986c-.617.359-.996,1.019-.996,1.733v1.928" style="fill:none; stroke:#000001; stroke-linecap:round; stroke-linejoin:round;"/><path d="m140.342,351.237s-9.872-3.653-10.857-4.123-2.354-1.755,0-3.21c2.06-1.273,17.784-10.444,21.683-12.716.571-.333,1.221-.508,1.882-.508h7.465" style="fill:none; stroke:#000001; stroke-linecap:round; stroke-linejoin:round; stroke-width:.5px;"/><path d="m120.701,345.837c-.35.628-.083,1.142,2.493,2.175,3.475,1.393,12.641,5.315,12.641,5.315" style="fill:none; stroke:#000001; stroke-linecap:round; stroke-linejoin:round;"/><line x1="152.211" y1="331.064" x2="152.211" y2="343.935" style="fill:none; stroke:#000001; stroke-linecap:round; stroke-linejoin:round; stroke-width:.5px;"/><path d="m72.976,357.637v-4.923c0-.47.279-.895.709-1.082l5.654-2.46c.137-.06.284-.093.434-.097l13.293-.416c.109-.003.212-.022.316-.057,3.304-1.096,10.136-1.196,14.834.021.079.02.157.032.239.034l12.904.417c.148.005.294.037.429.096l5.706,2.462c.432.187.712.612.712,1.083v3.461" style="fill:none; stroke:#000001; stroke-linecap:round; stroke-linejoin:round;"/><path d="m81.758,359.492v-1.854s.305-1.764,2.42-1.764h28.198c1.316,0,1.974,1.508,1.974,1.764v1.854" style="fill:none; stroke:#000001; stroke-linecap:round; stroke-linejoin:round;"/><path d="m113.904,356.719s7.026-2.632,8.201-2.632h6.08" style="fill:none; stroke:#000001; stroke-linecap:round; stroke-linejoin:round; stroke-width:.5px;"/><path d="m83.424,355.961s-2.254-1.451-4.134-1.451h-6.314" style="fill:none; stroke:#000001; stroke-linecap:round; stroke-linejoin:round; stroke-width:.5px;"/><ellipse cx="95.847" cy="351.596" rx="1.584" ry=".799" style="fill:none; stroke:#000001; stroke-linecap:round; stroke-linejoin:round; stroke-width:.5px;"/><ellipse cx="105.478" cy="351.596" rx="1.584" ry=".799" style="fill:none; stroke:#000001; stroke-linecap:round; stroke-linejoin:round; stroke-width:.5px;"/><path d="m80.932,349.039v-1.481c0-.795-.42-1.531-1.104-1.936l-28.373-16.801c-.464-.275-.992-.419-1.531-.419h-15.361c-.198,0-.359.161-.359.359v5.954" style="fill:none; stroke:#000001; stroke-linecap:round; stroke-linejoin:round;"/><path d="m34.563,328.401s2.797,10.128,11.404,16.953" style="fill:none; stroke:#000001; stroke-linecap:round; stroke-linejoin:round; stroke-width:.5px;"/><line x1="61.708" y1="353.901" x2="80.702" y2="346.577" style="fill:none; stroke:#000001; stroke-linecap:round; stroke-linejoin:round; stroke-width:.5px;"/><polyline points="94.78 348.237 56.326 325.963 93.783 304.367" style="fill:none; stroke:#000001; stroke-linecap:round; stroke-linejoin:round;"/><polyline points="92.724 348.664 54.268 326.392 54.268 325.134" style="fill:none; stroke:#000001; stroke-linecap:round; stroke-linejoin:round; stroke-width:.5px;"/><line x1="55.079" y1="325.167" x2="91.359" y2="304.251" style="fill:none; stroke:#000001; stroke-linecap:round; stroke-linejoin:round; stroke-width:.5px;"/><path d="m140.827,301.404l.385-2.486-3.73-2.139h-57.149c-.798,0-1.571-.281-2.183-.794l-1.349-1.131c-.612-.513-1.385-.794-2.183-.794h-21.988l-1.232.5h-3.751c-1.174,0-2.434.916-2.434,2.462s1.088,2.004,1.088,2.004v2.378s-1.088.743-1.088,1.315" style="fill:none; stroke:#000001; stroke-linecap:round; stroke-linejoin:round;"/><path d="m50.537,293.758h-5.823c-.69,0-1.249.559-1.249,1.249v6.463c0,.69.559,1.249,1.249,1.249h19.222s1.575-.166,1.832,1.334.482,2.372.482,2.372h7.785s5.801-2.058,8.382-2.058h50.833" style="fill:none; stroke:#000001; stroke-linecap:round; stroke-linejoin:round;"/><path d="m52.628,294.06c3.149,1.158,2.347,5.081-.774,7.028h-4.295s-.711-.131-1.26.317" style="fill:none; stroke:#000001; stroke-linecap:round; stroke-linejoin:round;"/><polyline points="46.299 299.026 46.299 296.048 54.537 296.048" style="fill:none; stroke:#000001; stroke-linecap:round; stroke-linejoin:round;"/><path d="m31.606,311.794c0-.009,13.737-.003,18.24,0,.93,0,1.84-.228,2.661-.666l13.262-7.074" style="fill:none; stroke:#000001; stroke-linecap:round; stroke-linejoin:round; stroke-width:.5px;"/><path d="m54.629,300.349h20.972c.343,0,.684.052,1.011.154l2.396.747c.327.102.668.154,1.011.154h55.414" style="fill:none; stroke:#000001; stroke-linecap:round; stroke-linejoin:round; stroke-width:.5px;"/><polyline points="137.481 296.779 137.481 300.092 139.33 301.404" style="fill:none; stroke:#000001; stroke-linecap:round; stroke-linejoin:round; stroke-width:.5px;"/><line x1="80.332" y1="296.779" x2="80.332" y2="301.404" style="fill:none; stroke:#000001; stroke-linecap:round; stroke-linejoin:round; stroke-width:.5px;"/><line x1="76.022" y1="294.365" x2="76.022" y2="300.349" style="fill:none; stroke:#000001; stroke-linecap:round; stroke-linejoin:round; stroke-width:.5px;"/><ellipse cx="59.716" cy="296.779" rx="1.41" ry=".916" style="fill:none; stroke:#000001; stroke-linecap:round; stroke-linejoin:round; stroke-width:.5px;"/><path d="m76.8,294.854s3.126.74,5.193-.489,6.365-3.77,6.365-3.77c0,0,.645-.467.641-1.642s0-3.615,0-3.615l4.716-.473s.822.047.822-2.209v-14.762" style="fill:none; stroke:#000001; stroke-linecap:round; stroke-linejoin:round; stroke-width:.5px;"/><line x1="94.471" y1="283.628" x2="94.471" y2="291.34" style="fill:none; stroke:#000001; stroke-linecap:round; stroke-linejoin:round; stroke-width:.5px;"/><line x1="88.999" y1="285.338" x2="88.999" y2="296.779" style="fill:none; stroke:#000001; stroke-linecap:round; stroke-linejoin:round; stroke-width:.5px;"/><path d="m62.113,283.329v2.668c0,1.188,1.088,2.078,2.253,1.843l17.181-3.475c.725-.147,1.245-.783,1.245-1.523v-3.136c0-1.208-1.123-2.103-2.301-1.832l-17.172,3.942c-.706.162-1.206.79-1.206,1.514Z" style="fill:none; stroke:#000001; stroke-linecap:round; stroke-linejoin:round; stroke-width:.5px;"/><path d="m74.036,306.426l-24.979,14.489c-1.848-.901-4.077-.165-4.458.309v.855c-2.936.87-3.968,2.125-3.968,4.224v2.098" style="fill:none; stroke:#000001; stroke-linecap:round; stroke-linejoin:round;"/><polyline points="106.417 348.237 145.115 325.963 107.449 304.367" style="fill:none; stroke:#000001; stroke-linecap:round; stroke-linejoin:round;"/><polyline points="147.559 324.677 147.559 326.354 108.805 348.664" style="fill:none; stroke:#000001; stroke-linecap:round; stroke-linejoin:round; stroke-width:.5px;"/><line x1="146.369" y1="325.167" x2="110.091" y2="304.367" style="fill:none; stroke:#000001; stroke-linecap:round; stroke-linejoin:round; stroke-width:.5px;"/><path d="m123.796,304.367l28.416,16.547s2.418-.675,4.483,0v1.039c3.283,1.43,4.917,3.46,2.943,5.986" style="fill:none; stroke:#000001; stroke-linecap:round; stroke-linejoin:round;"/><ellipse cx="154.257" cy="324.677" rx="3.473" ry="2.52" style="fill:none; stroke:#000001; stroke-linecap:round; stroke-linejoin:round; stroke-width:.5px;"/><ellipse cx="46.938" cy="325.134" rx="3.473" ry="2.52" style="fill:none; stroke:#000001; stroke-linecap:round; stroke-linejoin:round; stroke-width:.5px;"/><path d="m49.057,320.914s3.694,1.071,5.48,4.219l1.789.829" style="fill:none; stroke:#000001; stroke-linecap:round; stroke-linejoin:round;"/><path d="m82.74,304.367l-27.52,15.952c-.479.278-.508.958-.054,1.275l.24.168c.299.209.693.227,1.01.045l30.362-17.44" style="fill:none; stroke:#000001; stroke-linecap:round; stroke-linejoin:round; stroke-width:.5px;"/><path d="m118.312,304.367l27.52,15.952c.479.278.508.958.054,1.275l-.24.168c-.299.209-.693.227-1.01.045l-30.362-17.44" style="fill:none; stroke:#000001; stroke-linecap:round; stroke-linejoin:round; stroke-width:.5px;"/><line x1="131.34" y1="328.742" x2="109" y2="328.742" style="fill:none; stroke:#000001;"/><line x1="87.165" y1="328.742" x2="61.122" y2="328.742" style="fill:none; stroke:#000001;"/><line x1="131.34" y1="333.229" x2="110.112" y2="333.229" style="fill:none; stroke:#000001;"/><line x1="86.053" y1="333.229" x2="74.036" y2="333.229" style="fill:none; stroke:#000001;"/><polyline points="131.338 333.875 131.338 327.939 141.681 327.939" style="fill:none; stroke:#000001;"/><line x1="132.997" y1="327.939" x2="113.749" y2="316.742" style="fill:none; stroke:#000001;"/><line x1="137.03" y1="328.067" x2="113.749" y2="314.523" style="fill:none; stroke:#000001; stroke-linecap:round; stroke-linejoin:round; stroke-width:.5px;"/><path d="m86.489,333.472c-.644,1.005-2.012,1.406-3.065.933.524.02,1.046-.076,1.43-.337.386-.257.62-.644.756-1.071l.88.475h0Z" style="fill:#000001; stroke-width:0px;"/><path d="m87.489,326.927s-.696,4.011-1.101,5.449c-.088.313-.2.601-.339.857" style="fill:none; stroke:#000001;"/><line x1="82.418" y1="318.808" x2="82.418" y2="328.743" style="fill:none; stroke:#000001;"/><line x1="113.576" y1="328.743" x2="113.576" y2="319.803" style="fill:none; stroke:#000001;"/><path d="m81.758,333.557c.218,3.024,1.943,10.694,16.073,10.694" style="fill:none; stroke:#000001; stroke-linecap:round; stroke-linejoin:round; stroke-width:.5px;"/><path d="m113.904,333.557c-.218,3.024-1.943,10.694-16.073,10.694" style="fill:none; stroke:#000001; stroke-linecap:round; stroke-linejoin:round; stroke-width:.5px;"/><path d="m63.435,330.081s.185-1.339,1.969-1.339h6.181s1.784.174,2.116,2.33.747,3.191,1.328,3.4" style="fill:none; stroke:#000001;"/><line x1="75.553" y1="333.229" x2="75.553" y2="337.1" style="fill:none; stroke:#000001;"/><path d="m73.12,328.742s-.128-3.187-.271-4.224-1.139-2.177-4.707-2.177c-3.568,0-4.563,1.14-4.707,2.177s-.271,4.224-.271,4.224" style="fill:none; stroke:#000001;"/><path d="m63.435,324.078c.613,1.935,3.034,1.859,4.707,1.928,1.672-.07,4.093.006,4.707-1.927-.008.474-.241.949-.597,1.291-1.747,1.656-8.542,1.811-8.817-1.291h0Z" style="fill:#000001; stroke-width:0px;"/><path d="m67.118,332.218c1.974-.348,4.81.037,5.731-2.138-.23,2.582-3.808,2.565-5.731,2.138h0Z" style="fill:#000001; stroke-width:0px;"/><line x1="72.946" y1="325.541" x2="82.164" y2="320.122" style="fill:none; stroke:#000001; stroke-linecap:round; stroke-linejoin:round;"/><line x1="72.458" y1="323.395" x2="82.164" y2="317.689" style="fill:none; stroke:#000001; stroke-linecap:round; stroke-linejoin:round; stroke-width:.5px;"/><path d="m116.044,296.779v-1.429s-.049-.752.854-1.291v-1.313s-.855.345-.855-.344v-.689s-.292-.122-.292-.659v-1.233s.146-.72,1.318-.818,2.441-.342,3.198-1.782,4.066-7.25,4.865-8.52,1.922-1.538,3.313-1.514,2.243.293,3.282,1.391,7.85,8.031,14.465,11.498c6.616,3.466,9.594,5.175,9.984,5.371s.732.684.732,1.538v3.067" style="fill:none; stroke:#000001;"/><path d="m116.044,291.714v-.928s.171-.586,1.075-.684,2.71-.123,3.466-1.416,4.797-8.348,5.182-9.032,1.312-1.318,2.581-1.318,1.836.13,2.739,1.131,6.954,7.31,12.394,10.355c5.611,3.141,12.062,6.432,12.062,6.432,0,0,.781.244.781,1.123v2.523" style="fill:none; stroke:#000001;"/><path d="m145.115,325.963l2.226-1.286s.914-3.16,4.87-3.763" style="fill:none; stroke:#000001; stroke-linecap:round; stroke-linejoin:round;"/><line x1="150.784" y1="312.104" x2="150.784" y2="320.122" style="fill:none; stroke:#000001; stroke-linecap:round; stroke-linejoin:round; stroke-width:.5px;"/><polyline points="161.909 328.401 160.85 330.907 160.514 336.122" style="fill:none; stroke:#000001; stroke-linecap:round; stroke-linejoin:round; stroke-width:.5px;"/><path d="m32.235,319.265h4.831c.658,0,1.191.533,1.191,1.191v7.945" style="fill:none; stroke:#000001; stroke-linecap:round; stroke-linejoin:round; stroke-width:.5px;"/><path d="m97.911,329.755c9.978,0,15.493-5.964,15.493-10.947v-1.355c0-2.157-1.022-4.496-2.993-6.456-.919-.914-1.989-1.687-3.123-2.306-.205-.112-1.692-.979-4.211-1.6-.024-.359-.018-1.197-.288-1.258l-1.115-.253c-.298-.068-.784.835-.951,1.119-1.131-.15-3.084-.347-5.624,0-.164-.28-.652-1.186-.951-1.119l-1.115.253c-.269.061-.264.91-.288,1.258-2.508.619-4.015,1.493-4.211,1.6-1.134.619-2.204,1.392-3.123,2.306-1.971,1.96-2.993,4.299-2.993,6.456v1.355c0,4.983,5.515,10.947,15.493,10.947" style="fill:#d3d5d6; stroke-width:0px;"/><path d="m97.911,329.505c6.018.051,13.134-2.642,14.995-8.864,1.708-6.721-3.681-11.948-9.89-13.307-.108-.026-.183-.12-.189-.226-.026-.376-.012-.78-.136-1.05.078.037-.031-.003-.114-.017-.239-.05-.71-.164-.948-.213-.182.169-.515.661-.689.997-.052.09-.152.135-.249.121-1.844-.253-3.715-.254-5.557,0-.103.015-.2-.037-.25-.121-.169-.33-.518-.839-.69-.997-.235.053-.713.158-.948.213-.083.014-.193.054-.114.017.004-.01-.029.049-.044.109-.143.267.073,1.048-.283,1.167-4.443,1.048-8.961,4.035-9.988,8.707-1.76,8.714,7.515,13.69,15.094,13.464.418-.004.76.338.756.756-.003.414-.342.747-.756.744-3.314-.027-6.711-.642-9.75-2.236-4.863-2.525-7.945-7.32-6.813-13.028,1.119-5.284,6.22-8.734,11.098-9.863,0,0-.948,1.129-.948,1.129.012-.918.154-2.233,1.415-2.428.289-.051.691-.168.974-.22.376-.083.803.038.961.134.643.324,1.044,1.096,1.328,1.575,0,0-1.248-.606-1.248-.606,1.967-.273,3.999-.27,5.957,0l-1.242.607c.432-.722.998-1.839,2.153-1.729.116.017.265.046.379.075.165.032.564.132.731.166,1.269.203,1.4,1.504,1.415,2.428,0,0-.948-1.129-.948-1.129,7.02,1.584,12.885,7.462,10.98,15.149-2.11,7.038-9.794,10.008-16.445,9.979-.991-.007-.989-1.496,0-1.5h0Z" style="fill:#000001; stroke-width:0px;"/><path d="m97.911,308.883c3.252,0,6.747,1.823,6.747,4.768,0,2.853-3.345,4.768-6.747,4.768" style="fill:none; stroke:#000001; stroke-linecap:round; stroke-linejoin:round; stroke-width:.5px;"/><path d="m110.704,320.398l.482-1.133-.454-1.873c-.113-.799-.603-1.439-1.248-1.628l-3.521-1.031c.09-.347.138-.708.138-1.083,0-.815-.221-1.56-.608-2.224l-.015.009,3.513-1.028c.28-.082.575-.02.817.172" style="fill:none; stroke:#000001; stroke-linecap:round; stroke-linejoin:round; stroke-width:.5px;"/><path d="m106.057,314.271l4.647-1.36-.436-1.489c-.053-.346-.22-.651-.462-.842l-.711-.661c-.242-.192-.537-.254-.817-.172l-3.294.964c-.931-1.106-2.357-1.925-3.944-2.394l.004-.014.952-1.625c.393-.671.637-.881.791-.846" style="fill:none; stroke:#000001; stroke-linecap:round; stroke-linejoin:round; stroke-width:.5px;"/><path d="m101.045,318.998l-.002-.008c1.942-.572,3.599-1.663,4.449-3.12l-.012-.003,3.523,1.031c.644.189,1.135.829,1.248,1.628l.454,1.873-4.589-1.108c-.366-.097-.752.03-1.01.332-.753.881-1.591,1.284-2.611,1.847" style="fill:none; stroke:#000001; stroke-linecap:round; stroke-linejoin:round; stroke-width:.5px;"/><path d="m97.909,323.429c.586,0,1.245-.055,1.94-.211.312-.07.63.086.815.402l1.374,2.344,1.172-.268-.226-2.756c-.025-.458-.154-.898-.373-1.271l-1.565-2.671" style="fill:none; stroke:#000001; stroke-linecap:round; stroke-linejoin:round; stroke-width:.5px;"/><polygon points="105.712 321.459 107.082 321.718 107.449 322.687 106.446 323.395 105.076 323.136 104.709 322.168 105.712 321.459" style="fill:none; stroke:#000001; stroke-linecap:round; stroke-linejoin:round; stroke-width:.5px;"/><path d="m102.038,325.963l-.226-2.756c-.025-.458-.154-.898-.373-1.271l-1.565-2.671c-.641.114-1.301.173-1.963.173" style="fill:none; stroke:#000001; stroke-linecap:round; stroke-linejoin:round; stroke-width:.5px;"/><polyline points="103.08 307.045 103.099 307.615 102.481 308.862" style="fill:none; stroke:#000001; stroke-linecap:round; stroke-linejoin:round; stroke-width:.5px;"/><path d="m95.099,306.699l.792,1.352c.667-.124,1.348-.188,2.02-.188.672,0,1.353.064,2.02.188l.792-1.351" style="fill:none; stroke:#000001; stroke-linecap:round; stroke-linejoin:round; stroke-width:.5px;"/><line x1="93.715" y1="308.696" x2="92.746" y2="307.092" style="fill:none; stroke:#000001; stroke-linecap:round; stroke-linejoin:round; stroke-width:.5px;"/><path d="m97.911,308.883c-3.252,0-6.747,1.823-6.747,4.768,0,2.853,3.345,4.768,6.747,4.768" style="fill:none; stroke:#000001; stroke-linecap:round; stroke-linejoin:round; stroke-width:.5px;"/><path d="m91.359,314.813c1.792-3.68,6.351-3.565,6.552-3.565.2,0,4.76-.113,6.552,3.565" style="fill:none; stroke:#000001; stroke-linecap:round; stroke-linejoin:round; stroke-width:.5px;"/><path d="m97.911,316.266c-1.354,0-2.686-.762-2.686-1.898,0-.104.011-.205.032-.302.214-.994,1.474-1.596,2.654-1.596,1.179,0,2.439.603,2.654,1.596.021.097.032.197.032.302,0,1.136-1.331,1.898-2.686,1.898h0Z" style="fill:none; stroke:#000001; stroke-linecap:round; stroke-linejoin:round; stroke-width:.5px;"/><path d="m97.911,315.149c-.557,0-1.105-.314-1.105-.781,0-.482.572-.781,1.105-.781.533,0,1.105.299,1.105.781,0,.467-.548.781-1.105.781h0Z" style="fill:none; stroke:#000001; stroke-linecap:round; stroke-linejoin:round; stroke-width:.5px;"/><path d="m85.117,320.398l-.482-1.133.454-1.873c.113-.799.603-1.439,1.248-1.628l3.521-1.031c-.09-.347-.138-.708-.138-1.083,0-.815.221-1.56.608-2.224l.015.009-3.513-1.028c-.28-.082-.575-.02-.817.172" style="fill:none; stroke:#000001; stroke-linecap:round; stroke-linejoin:round; stroke-width:.5px;"/><path d="m89.765,314.271l-4.647-1.36.436-1.489c.053-.346.22-.651.462-.842l.711-.661c.242-.192.537-.254.817-.172l3.294.964c.931-1.106,2.357-1.925,3.944-2.394l-.004-.014-.952-1.625c-.393-.671-.637-.881-.791-.846" style="fill:none; stroke:#000001; stroke-linecap:round; stroke-linejoin:round; stroke-width:.5px;"/><path d="m85.117,320.398l4.589-1.343c.366-.107.752.033,1.01.368.73.947,1.665,1.525,2.165,1.8" style="fill:none; stroke:#000001; stroke-linecap:round; stroke-linejoin:round; stroke-width:.5px;"/><path d="m97.912,323.429c-.586,0-1.245-.055-1.94-.211-.312-.07-.63.086-.815.402l-1.374,2.344-1.172-.268.226-2.756c.025-.458.154-.898.373-1.271l1.565-2.671.002-.008c-1.942-.572-3.599-1.663-4.449-3.12l.012-.003-3.523,1.031c-.644.189-1.135.829-1.248,1.628l-.454,1.873" style="fill:none; stroke:#000001; stroke-linecap:round; stroke-linejoin:round; stroke-width:.5px;"/><polygon points="90.109 321.459 88.739 321.718 88.372 322.687 89.375 323.395 90.745 323.136 91.112 322.168 90.109 321.459" style="fill:none; stroke:#000001; stroke-linecap:round; stroke-linejoin:round; stroke-width:.5px;"/><path d="m82.418,317.454c0,4.983,5.515,10.947,15.493,10.947,9.978,0,15.493-5.964,15.493-10.947" style="fill:none; stroke:#000001; stroke-linecap:round; stroke-linejoin:round; stroke-width:.5px;"/><path d="m87.747,329.51c6.322,3.321,14.354,3.288,20.609-.182-5.893,4.125-14.634,4.16-20.609.182h0Z" style="fill:#000001; stroke-width:0px;"/><path d="m93.783,325.963l.226-2.756c.025-.458.154-.898.373-1.271l1.565-2.671c.641.114,1.301.173,1.963.173" style="fill:none; stroke:#000001; stroke-linecap:round; stroke-linejoin:round; stroke-width:.5px;"/><path d="m95.257,314.066l-.25,1.16c-.023.106-.035.216-.035.33,0,1.243,1.457,2.077,2.939,2.077h0c1.482,0,2.939-.834,2.939-2.077,0-.114-.012-.224-.035-.33l-.25-1.16" style="fill:none; stroke:#000001; stroke-linecap:round; stroke-linejoin:round; stroke-width:.5px;"/><path d="m98.083,242.782c35.851-.645,81.557,20.159,82.574,60.805-.067,29.857-27.823,50.77-54.52,57.642-35.756,9.397-80.28.925-102.342-30.847-17.652-26.729-5.305-57.178,20.411-73.005,16.003-10.101,35.072-14.628,53.877-14.596-18.761.128-37.757,4.806-53.613,15.008-37.63,23.893-37.648,67.649.093,91.449,23.893,15.014,54.262,18.08,81.338,11.107,26.395-6.713,53.94-27.263,54.093-56.76-.954-40.294-46.354-61.085-81.911-60.805h0Z" style="fill:#a7abae; stroke-width:0px;"/><path d="m98.083,245.09c34.694-.541,78.948,19.633,79.918,58.964-.087,28.869-26.95,49.061-52.769,55.689-34.593,9.048-77.673.925-99.04-29.802-17.09-25.841-5.146-55.272,19.708-70.6,15.484-9.819,33.958-14.244,52.183-14.25-18.203.087-36.641,4.587-52.052,14.456-36.608,23.201-36.626,65.782.047,88.942,23.211,14.609,52.724,17.624,79.036,10.813,25.666-6.546,52.429-26.561,52.555-55.248-.942-39.159-45.035-59.319-79.586-58.963h0Z" style="fill:#a7abae; stroke-width:0px;"/><path d="m98.083,249.24c32.984-.687,75.012,18.387,76.021,55.781.019,27.539-25.613,46.836-50.209,53.165-32.927,8.642-73.897.844-94.216-28.416-16.285-24.539-4.785-52.826,18.903-67.26,14.724-9.237,32.238-13.347,49.502-13.269-17.199.165-34.604,4.499-49.107,13.888-34.302,21.888-34.257,61.788.17,83.52,21.841,13.731,49.624,16.54,74.379,10.156,24.109-6.134,49.209-24.873,49.429-51.784-.797-36.859-42.35-55.945-74.873-55.78h0Z" style="fill:#a7abae; stroke-width:0px;"/><path d="m24.482,317.327c-.505-2.589-.77-5.233-.77-7.924,0-30.366,33.297-54.985,74.37-54.985s74.37,24.619,74.37,54.985c0,2.714-.264,5.381-.785,7.994" style="fill:none; stroke:#a7abae; stroke-linecap:round; stroke-linejoin:round; stroke-width:.25px;"/></g></g><g id="uuid-2f7ee184-0598-4c92-8bbb-d31c559425c3"><line x1="87.088" y1="129.131" x2="137.744" y2="129.131" style="fill:none; stroke:#fff; stroke-linecap:round; stroke-linejoin:round; stroke-width:3px;"/><line x1="87.088" y1="129.131" x2="137.744" y2="129.131" style="fill:none; stroke:#fff; stroke-linecap:round; stroke-linejoin:round; stroke-width:3px;"/><line x1="87.088" y1="129.131" x2="137.744" y2="129.131" style="fill:none; stroke:#fff; stroke-linecap:round; stroke-linejoin:round; stroke-width:3px;"/><path d="m87.913,130.688h-4.342v-1.339l4.251-5.915h1.82v5.668h1.274v1.586h-1.274v2.08h-1.729v-2.08Zm0-1.586v-3.159l-2.275,3.159h2.275Z" style="fill:none; stroke:#fff; stroke-linecap:round; stroke-linejoin:round; stroke-width:3px;"/><circle cx="87.493" cy="128.293" r="8.275" style="fill:none; stroke:#fff; stroke-linecap:round; stroke-linejoin:round; stroke-width:3px;"/><path d="m87.493,120.001c-4.53,0-8.202,3.672-8.202,8.202v.179c0,4.53,3.672,8.202,8.202,8.202s8.203-3.672,8.203-8.202v-.179c0-4.53-3.672-8.202-8.203-8.202Z" style="fill:none; stroke:#fff; stroke-linecap:round; stroke-linejoin:round; stroke-width:3px;"/><path d="m87.913,130.688h-4.342v-1.339l4.251-5.915h1.82v5.668h1.274v1.586h-1.274v2.08h-1.729v-2.08Zm0-1.586v-3.159l-2.275,3.159h2.275Z" style="fill:none; stroke:#fff; stroke-linecap:round; stroke-linejoin:round; stroke-width:3px;"/><line x1="87.088" y1="129.131" x2="137.744" y2="129.131" style="fill:none; stroke:#fff; stroke-linecap:round; stroke-linejoin:round; stroke-width:3px;"/><line x1="87.088" y1="129.131" x2="137.744" y2="129.131" style="fill:none; stroke:#000001; stroke-linecap:round; stroke-miterlimit:10;"/><circle cx="87.493" cy="128.293" r="8.275" style="fill:#000001; stroke-width:0px;"/><path d="m87.493,120.001c-4.53,0-8.202,3.672-8.202,8.202v.179c0,4.53,3.672,8.202,8.202,8.202s8.203-3.672,8.203-8.202v-.179c0-4.53-3.672-8.202-8.203-8.202Z" style="fill:#000001; stroke-width:0px;"/><path d="m87.913,130.688h-4.342v-1.339l4.251-5.915h1.82v5.668h1.274v1.586h-1.274v2.08h-1.729v-2.08Zm0-1.586v-3.159l-2.275,3.159h2.275Z" style="fill:#fff; stroke-width:0px;"/><polyline points="87.088 14.856 213.583 14.856 213.583 32.748" style="fill:none; stroke:#fff; stroke-linecap:round; stroke-linejoin:round; stroke-width:3px;"/><polyline points="87.088 14.856 213.583 14.856 213.583 32.748" style="fill:none; stroke:#fff; stroke-linecap:round; stroke-linejoin:round; stroke-width:3px;"/><polyline points="87.088 14.856 213.583 14.856 213.583 32.748" style="fill:none; stroke:#fff; stroke-linecap:round; stroke-linejoin:round; stroke-width:3px;"/><path d="m86.534,11.831c-.2.134-.455.283-.767.448l-.819-1.326c.477-.26.905-.535,1.287-.825.381-.291.732-.613,1.053-.969h1.807v9.334h-1.846v-7.215c-.277.233-.516.418-.715.553Z" style="fill:none; stroke:#fff; stroke-linecap:round; stroke-linejoin:round; stroke-width:3px;"/><circle cx="87.493" cy="14.018" r="8.275" style="fill:none; stroke:#fff; stroke-linecap:round; stroke-linejoin:round; stroke-width:3px;"/><path d="m87.493,5.726c-3.934,0-7.123,3.189-7.123,7.123v2.337c0,3.934,3.189,7.123,7.123,7.123s7.123-3.189,7.123-7.123v-2.337c0-3.934-3.189-7.123-7.123-7.123Z" style="fill:none; stroke:#fff; stroke-linecap:round; stroke-linejoin:round; stroke-width:3px;"/><path d="m86.534,11.831c-.2.134-.455.283-.767.448l-.819-1.326c.477-.26.905-.535,1.287-.825.381-.291.732-.613,1.053-.969h1.807v9.334h-1.846v-7.215c-.277.233-.516.418-.715.553Z" style="fill:none; stroke:#fff; stroke-linecap:round; stroke-linejoin:round; stroke-width:3px;"/><polyline points="87.088 14.856 213.583 14.856 213.583 32.748" style="fill:none; stroke:#fff; stroke-linecap:round; stroke-linejoin:round; stroke-width:3px;"/><polyline points="87.088 14.856 213.583 14.856 213.583 32.748" style="fill:none; stroke:#000001; stroke-linecap:round; stroke-miterlimit:10;"/><circle cx="87.493" cy="14.018" r="8.275" style="fill:#000001; stroke-width:0px;"/><path d="m87.493,5.726c-3.934,0-7.123,3.189-7.123,7.123v2.337c0,3.934,3.189,7.123,7.123,7.123s7.123-3.189,7.123-7.123v-2.337c0-3.934-3.189-7.123-7.123-7.123Z" style="fill:#000001; stroke-width:0px;"/><path d="m86.534,11.831c-.2.134-.455.283-.767.448l-.819-1.326c.477-.26.905-.535,1.287-.825.381-.291.732-.613,1.053-.969h1.807v9.334h-1.846v-7.215c-.277.233-.516.418-.715.553Z" style="fill:#fff; stroke-width:0px;"/><line x1="87.088" y1="70.209" x2="199.168" y2="70.209" style="fill:none; stroke:#fff; stroke-linecap:round; stroke-linejoin:round; stroke-width:3px;"/><line x1="87.088" y1="70.209" x2="199.168" y2="70.209" style="fill:none; stroke:#fff; stroke-linecap:round; stroke-linejoin:round; stroke-width:3px;"/><line x1="87.088" y1="70.209" x2="199.168" y2="70.209" style="fill:none; stroke:#fff; stroke-linecap:round; stroke-linejoin:round; stroke-width:3px;"/><path d="m84.006,72.378l3.237-3.029c.303-.277.559-.544.767-.8.208-.255.369-.496.481-.721s.169-.438.169-.638v-.117c0-.312-.12-.567-.358-.767s-.539-.299-.903-.299c-.52,0-.918.112-1.196.338-.278.226-.459.611-.546,1.157l-1.638-.521c.139-.832.507-1.476,1.105-1.931.598-.454,1.356-.682,2.275-.682.581,0,1.105.104,1.573.312.468.208.838.512,1.111.91s.41.871.41,1.417c0,.45-.089.882-.267,1.293-.178.412-.405.789-.683,1.132-.277.342-.594.674-.949.994l-2.002,1.794h3.965v1.625h-6.552v-1.469Z" style="fill:none; stroke:#fff; stroke-linecap:round; stroke-linejoin:round; stroke-width:3px;"/><circle cx="87.493" cy="69.372" r="8.275" style="fill:none; stroke:#fff; stroke-linecap:round; stroke-linejoin:round; stroke-width:3px;"/><path d="m87.493,61.08c-4.462,0-8.079,3.617-8.079,8.079v.426c0,4.462,3.617,8.079,8.079,8.079s8.079-3.617,8.079-8.079v-.426c0-4.462-3.617-8.079-8.079-8.079Z" style="fill:none; stroke:#fff; stroke-linecap:round; stroke-linejoin:round; stroke-width:3px;"/><path d="m84.006,72.378l3.237-3.029c.303-.277.559-.544.767-.8.208-.255.369-.496.481-.721s.169-.438.169-.638v-.117c0-.312-.12-.567-.358-.767s-.539-.299-.903-.299c-.52,0-.918.112-1.196.338-.278.226-.459.611-.546,1.157l-1.638-.521c.139-.832.507-1.476,1.105-1.931.598-.454,1.356-.682,2.275-.682.581,0,1.105.104,1.573.312.468.208.838.512,1.111.91s.41.871.41,1.417c0,.45-.089.882-.267,1.293-.178.412-.405.789-.683,1.132-.277.342-.594.674-.949.994l-2.002,1.794h3.965v1.625h-6.552v-1.469Z" style="fill:none; stroke:#fff; stroke-linecap:round; stroke-linejoin:round; stroke-width:3px;"/><line x1="87.088" y1="70.209" x2="199.168" y2="70.209" style="fill:none; stroke:#fff; stroke-linecap:round; stroke-linejoin:round; stroke-width:3px;"/><line x1="87.088" y1="70.209" x2="199.168" y2="70.209" style="fill:none; stroke:#000001; stroke-linecap:round; stroke-miterlimit:10;"/><circle cx="87.493" cy="69.372" r="8.275" style="fill:#000001; stroke-width:0px;"/><path d="m87.493,61.08c-4.462,0-8.079,3.617-8.079,8.079v.426c0,4.462,3.617,8.079,8.079,8.079s8.079-3.617,8.079-8.079v-.426c0-4.462-3.617-8.079-8.079-8.079Z" style="fill:#000001; stroke-width:0px;"/><path d="m84.006,72.378l3.237-3.029c.303-.277.559-.544.767-.8.208-.255.369-.496.481-.721s.169-.438.169-.638v-.117c0-.312-.12-.567-.358-.767s-.539-.299-.903-.299c-.52,0-.918.112-1.196.338-.278.226-.459.611-.546,1.157l-1.638-.521c.139-.832.507-1.476,1.105-1.931.598-.454,1.356-.682,2.275-.682.581,0,1.105.104,1.573.312.468.208.838.512,1.111.91s.41.871.41,1.417c0,.45-.089.882-.267,1.293-.178.412-.405.789-.683,1.132-.277.342-.594.674-.949.994l-2.002,1.794h3.965v1.625h-6.552v-1.469Z" style="fill:#fff; stroke-width:0px;"/><line x1="619.617" y1="70.209" x2="562.774" y2="70.209" style="fill:none; stroke:#fff; stroke-linecap:round; stroke-linejoin:round; stroke-width:3px;"/><line x1="619.617" y1="70.209" x2="562.774" y2="70.209" style="fill:none; stroke:#fff; stroke-linecap:round; stroke-linejoin:round; stroke-width:3px;"/><line x1="619.617" y1="70.209" x2="562.774" y2="70.209" style="fill:none; stroke:#fff; stroke-linecap:round; stroke-linejoin:round; stroke-width:3px;"/><path d="m617.704,73.516c-.541-.316-1.007-.787-1.397-1.411l1.443-1.04c.242.442.509.759.8.949.29.19.651.286,1.085.286.469,0,.871-.093,1.209-.279s.507-.475.507-.865v-.155c0-.442-.149-.757-.448-.942-.299-.187-.804-.28-1.515-.28h-.649v-1.56h.624c.528,0,.96-.078,1.293-.234.334-.155.501-.45.501-.884v-.143c0-.312-.146-.544-.436-.696-.291-.151-.626-.228-1.008-.228-.364,0-.691.094-.981.28s-.531.461-.722.825l-1.364-.819c.312-.667.728-1.158,1.247-1.476.521-.315,1.153-.474,1.898-.474.91,0,1.653.216,2.229.649s.864,1.079.864,1.938c0,.45-.091.838-.272,1.163-.183.325-.438.592-.768.8.416.217.73.494.942.832.213.338.319.754.319,1.248,0,.642-.158,1.188-.475,1.638-.316.451-.739.789-1.268,1.014-.529.226-1.109.338-1.742.338-.736,0-1.376-.157-1.918-.474Z" style="fill:none; stroke:#fff; stroke-linecap:round; stroke-linejoin:round; stroke-width:3px;"/><circle cx="620.021" cy="69.372" r="8.275" style="fill:none; stroke:#fff; stroke-linecap:round; stroke-linejoin:round; stroke-width:3px;"/><path d="m620.021,61.08c-4.451,0-8.059,3.608-8.059,8.059v.465c0,4.451,3.608,8.059,8.059,8.059s8.059-3.608,8.059-8.059v-.465c0-4.451-3.608-8.059-8.059-8.059Z" style="fill:none; stroke:#fff; stroke-linecap:round; stroke-linejoin:round; stroke-width:3px;"/><path d="m617.704,73.516c-.541-.316-1.007-.787-1.397-1.411l1.443-1.04c.242.442.509.759.8.949.29.19.651.286,1.085.286.469,0,.871-.093,1.209-.279s.507-.475.507-.865v-.155c0-.442-.149-.757-.448-.942-.299-.187-.804-.28-1.515-.28h-.649v-1.56h.624c.528,0,.96-.078,1.293-.234.334-.155.501-.45.501-.884v-.143c0-.312-.146-.544-.436-.696-.291-.151-.626-.228-1.008-.228-.364,0-.691.094-.981.28s-.531.461-.722.825l-1.364-.819c.312-.667.728-1.158,1.247-1.476.521-.315,1.153-.474,1.898-.474.91,0,1.653.216,2.229.649s.864,1.079.864,1.938c0,.45-.091.838-.272,1.163-.183.325-.438.592-.768.8.416.217.73.494.942.832.213.338.319.754.319,1.248,0,.642-.158,1.188-.475,1.638-.316.451-.739.789-1.268,1.014-.529.226-1.109.338-1.742.338-.736,0-1.376-.157-1.918-.474Z" style="fill:none; stroke:#fff; stroke-linecap:round; stroke-linejoin:round; stroke-width:3px;"/><line x1="619.617" y1="70.209" x2="562.774" y2="70.209" style="fill:none; stroke:#fff; stroke-linecap:round; stroke-linejoin:round; stroke-width:3px;"/><line x1="619.617" y1="70.209" x2="562.774" y2="70.209" style="fill:none; stroke:#000001; stroke-linecap:round; stroke-miterlimit:10;"/><circle cx="620.021" cy="69.372" r="8.275" style="fill:#000001; stroke-width:0px;"/><path d="m620.021,61.08c-4.451,0-8.059,3.608-8.059,8.059v.465c0,4.451,3.608,8.059,8.059,8.059s8.059-3.608,8.059-8.059v-.465c0-4.451-3.608-8.059-8.059-8.059Z" style="fill:#000001; stroke-width:0px;"/><path d="m617.704,73.516c-.541-.316-1.007-.787-1.397-1.411l1.443-1.04c.242.442.509.759.8.949.29.19.651.286,1.085.286.469,0,.871-.093,1.209-.279s.507-.475.507-.865v-.155c0-.442-.149-.757-.448-.942-.299-.187-.804-.28-1.515-.28h-.649v-1.56h.624c.528,0,.96-.078,1.293-.234.334-.155.501-.45.501-.884v-.143c0-.312-.146-.544-.436-.696-.291-.151-.626-.228-1.008-.228-.364,0-.691.094-.981.28s-.531.461-.722.825l-1.364-.819c.312-.667.728-1.158,1.247-1.476.521-.315,1.153-.474,1.898-.474.91,0,1.653.216,2.229.649s.864,1.079.864,1.938c0,.45-.091.838-.272,1.163-.183.325-.438.592-.768.8.416.217.73.494.942.832.213.338.319.754.319,1.248,0,.642-.158,1.188-.475,1.638-.316.451-.739.789-1.268,1.014-.529.226-1.109.338-1.742.338-.736,0-1.376-.157-1.918-.474Z" style="fill:#fff; stroke-width:0px;"/><line x1="246.413" y1="408.299" x2="246.413" y2="357.644" style="fill:none; stroke:#fff; stroke-linecap:round; stroke-linejoin:round; stroke-width:3px;"/><line x1="246.413" y1="408.299" x2="246.413" y2="357.644" style="fill:none; stroke:#fff; stroke-linecap:round; stroke-linejoin:round; stroke-width:3px;"/><line x1="246.413" y1="408.299" x2="246.413" y2="357.644" style="fill:none; stroke:#fff; stroke-linecap:round; stroke-linejoin:round; stroke-width:3px;"/><path d="m243.103,410.182l1.443-1.027c.286.442.577.759.871.949.295.19.646.286,1.053.286.511,0,.908-.128,1.189-.384.282-.255.422-.63.422-1.124v-.144c0-.468-.134-.81-.403-1.026s-.654-.325-1.157-.325c-.277,0-.529.032-.754.098-.226.064-.477.18-.754.344l-1.287-.338.65-4.875h5.109v1.703h-3.601l-.208,1.573c.173-.052.349-.091.526-.117s.366-.039.565-.039c.65,0,1.211.128,1.684.384.472.256.834.611,1.085,1.065.251.455.377.978.377,1.567,0,.667-.154,1.252-.461,1.755-.308.502-.73.891-1.268,1.163-.538.273-1.14.409-1.807.409-1.369,0-2.461-.632-3.276-1.897Z" style="fill:none; stroke:#fff; stroke-linecap:round; stroke-linejoin:round; stroke-width:3px;"/><circle cx="246.818" cy="407.462" r="8.275" style="fill:none; stroke:#fff; stroke-linecap:round; stroke-linejoin:round; stroke-width:3px;"/><path d="m246.818,399.17c-4.473,0-8.098,3.626-8.098,8.099v.387c0,4.473,3.626,8.098,8.098,8.098s8.099-3.626,8.099-8.098v-.387c0-4.473-3.626-8.099-8.099-8.099Z" style="fill:none; stroke:#fff; stroke-linecap:round; stroke-linejoin:round; stroke-width:3px;"/><path d="m243.103,410.182l1.443-1.027c.286.442.577.759.871.949.295.19.646.286,1.053.286.511,0,.908-.128,1.189-.384.282-.255.422-.63.422-1.124v-.144c0-.468-.134-.81-.403-1.026s-.654-.325-1.157-.325c-.277,0-.529.032-.754.098-.226.064-.477.18-.754.344l-1.287-.338.65-4.875h5.109v1.703h-3.601l-.208,1.573c.173-.052.349-.091.526-.117s.366-.039.565-.039c.65,0,1.211.128,1.684.384.472.256.834.611,1.085,1.065.251.455.377.978.377,1.567,0,.667-.154,1.252-.461,1.755-.308.502-.73.891-1.268,1.163-.538.273-1.14.409-1.807.409-1.369,0-2.461-.632-3.276-1.897Z" style="fill:none; stroke:#fff; stroke-linecap:round; stroke-linejoin:round; stroke-width:3px;"/><line x1="246.413" y1="408.299" x2="246.413" y2="357.644" style="fill:none; stroke:#fff; stroke-linecap:round; stroke-linejoin:round; stroke-width:3px;"/><line x1="246.413" y1="408.299" x2="246.413" y2="357.644" style="fill:none; stroke:#000001; stroke-linecap:round; stroke-miterlimit:10;"/><circle cx="246.818" cy="407.462" r="8.275" style="fill:#000001; stroke-width:0px;"/><path d="m246.818,399.17c-4.473,0-8.098,3.626-8.098,8.099v.387c0,4.473,3.626,8.098,8.098,8.098s8.099-3.626,8.099-8.098v-.387c0-4.473-3.626-8.099-8.099-8.099Z" style="fill:#000001; stroke-width:0px;"/><path d="m243.103,410.182l1.443-1.027c.286.442.577.759.871.949.295.19.646.286,1.053.286.511,0,.908-.128,1.189-.384.282-.255.422-.63.422-1.124v-.144c0-.468-.134-.81-.403-1.026s-.654-.325-1.157-.325c-.277,0-.529.032-.754.098-.226.064-.477.18-.754.344l-1.287-.338.65-4.875h5.109v1.703h-3.601l-.208,1.573c.173-.052.349-.091.526-.117s.366-.039.565-.039c.65,0,1.211.128,1.684.384.472.256.834.611,1.085,1.065.251.455.377.978.377,1.567,0,.667-.154,1.252-.461,1.755-.308.502-.73.891-1.268,1.163-.538.273-1.14.409-1.807.409-1.369,0-2.461-.632-3.276-1.897Z" style="fill:#fff; stroke-width:0px;"/><line x1="334.161" y1="408.299" x2="334.161" y2="357.644" style="fill:none; stroke:#fff; stroke-linecap:round; stroke-linejoin:round; stroke-width:3px;"/><line x1="334.161" y1="408.299" x2="334.161" y2="357.644" style="fill:none; stroke:#fff; stroke-linecap:round; stroke-linejoin:round; stroke-width:3px;"/><line x1="334.161" y1="408.299" x2="334.161" y2="357.644" style="fill:none; stroke:#fff; stroke-linecap:round; stroke-linejoin:round; stroke-width:3px;"/><path d="m332.534,411.67c-.507-.265-.899-.642-1.177-1.131s-.416-1.06-.416-1.71c0-.441.072-.879.215-1.312s.383-.944.721-1.534c.529-.91,1.361-2.036,2.496-3.38h2.262l-.715.871c-.364.441-.71.862-1.04,1.261-.329.398-.598.75-.806,1.053.173-.034.373-.052.598-.052.598,0,1.131.135,1.599.403.468.269.83.642,1.085,1.118.256.477.384,1.014.384,1.611,0,.65-.147,1.218-.442,1.703-.294.485-.704.856-1.228,1.111-.525.256-1.121.384-1.788.384-.659,0-1.242-.132-1.749-.396Zm2.964-1.632c.299-.251.449-.61.449-1.078v-.183c0-.477-.146-.838-.436-1.085-.291-.247-.678-.371-1.164-.371s-.886.122-1.203.364c-.316.243-.475.606-.475,1.092v.183c0,.477.145.838.436,1.085s.687.37,1.189.37.904-.125,1.203-.377Z" style="fill:none; stroke:#fff; stroke-linecap:round; stroke-linejoin:round; stroke-width:3px;"/><circle cx="334.565" cy="407.462" r="8.275" style="fill:none; stroke:#fff; stroke-linecap:round; stroke-linejoin:round; stroke-width:3px;"/><path d="m334.565,399.17c-4.516,0-8.176,3.661-8.176,8.176v.231c0,4.516,3.661,8.176,8.176,8.176s8.176-3.661,8.176-8.176v-.231c0-4.516-3.661-8.176-8.176-8.176Z" style="fill:none; stroke:#fff; stroke-linecap:round; stroke-linejoin:round; stroke-width:3px;"/><path d="m332.534,411.67c-.507-.265-.899-.642-1.177-1.131s-.416-1.06-.416-1.71c0-.441.072-.879.215-1.312s.383-.944.721-1.534c.529-.91,1.361-2.036,2.496-3.38h2.262l-.715.871c-.364.441-.71.862-1.04,1.261-.329.398-.598.75-.806,1.053.173-.034.373-.052.598-.052.598,0,1.131.135,1.599.403.468.269.83.642,1.085,1.118.256.477.384,1.014.384,1.611,0,.65-.147,1.218-.442,1.703-.294.485-.704.856-1.228,1.111-.525.256-1.121.384-1.788.384-.659,0-1.242-.132-1.749-.396Zm2.964-1.632c.299-.251.449-.61.449-1.078v-.183c0-.477-.146-.838-.436-1.085-.291-.247-.678-.371-1.164-.371s-.886.122-1.203.364c-.316.243-.475.606-.475,1.092v.183c0,.477.145.838.436,1.085s.687.37,1.189.37.904-.125,1.203-.377Z" style="fill:none; stroke:#fff; stroke-linecap:round; stroke-linejoin:round; stroke-width:3px;"/><line x1="334.161" y1="408.299" x2="334.161" y2="357.644" style="fill:none; stroke:#fff; stroke-linecap:round; stroke-linejoin:round; stroke-width:3px;"/><line x1="334.161" y1="408.299" x2="334.161" y2="357.644" style="fill:none; stroke:#000001; stroke-linecap:round; stroke-miterlimit:10;"/><circle cx="334.565" cy="407.462" r="8.275" style="fill:#000001; stroke-width:0px;"/><path d="m334.565,399.17c-4.516,0-8.176,3.661-8.176,8.176v.231c0,4.516,3.661,8.176,8.176,8.176s8.176-3.661,8.176-8.176v-.231c0-4.516-3.661-8.176-8.176-8.176Z" style="fill:#000001; stroke-width:0px;"/><path d="m332.534,411.67c-.507-.265-.899-.642-1.177-1.131s-.416-1.06-.416-1.71c0-.441.072-.879.215-1.312s.383-.944.721-1.534c.529-.91,1.361-2.036,2.496-3.38h2.262l-.715.871c-.364.441-.71.862-1.04,1.261-.329.398-.598.75-.806,1.053.173-.034.373-.052.598-.052.598,0,1.131.135,1.599.403.468.269.83.642,1.085,1.118.256.477.384,1.014.384,1.611,0,.65-.147,1.218-.442,1.703-.294.485-.704.856-1.228,1.111-.525.256-1.121.384-1.788.384-.659,0-1.242-.132-1.749-.396Zm2.964-1.632c.299-.251.449-.61.449-1.078v-.183c0-.477-.146-.838-.436-1.085-.291-.247-.678-.371-1.164-.371s-.886.122-1.203.364c-.316.243-.475.606-.475,1.092v.183c0,.477.145.838.436,1.085s.687.37,1.189.37.904-.125,1.203-.377Z" style="fill:#fff; stroke-width:0px;"/><line x1="380.158" y1="408.299" x2="380.158" y2="319.39" style="fill:none; stroke:#fff; stroke-linecap:round; stroke-linejoin:round; stroke-width:3px;"/><line x1="380.158" y1="408.299" x2="380.158" y2="319.39" style="fill:none; stroke:#fff; stroke-linecap:round; stroke-linejoin:round; stroke-width:3px;"/><line x1="380.158" y1="408.299" x2="380.158" y2="319.39" style="fill:none; stroke:#fff; stroke-linecap:round; stroke-linejoin:round; stroke-width:3px;"/><path d="m381.456,404.215h-4.329v-1.612h6.37v1.274l-3.744,8.06h-1.95l3.653-7.722Z" style="fill:none; stroke:#fff; stroke-linecap:round; stroke-linejoin:round; stroke-width:3px;"/><circle cx="380.562" cy="407.462" r="8.275" style="fill:none; stroke:#fff; stroke-linecap:round; stroke-linejoin:round; stroke-width:3px;"/><path d="m380.562,399.17c-4.261,0-7.715,3.454-7.715,7.715v1.154c0,4.261,3.454,7.715,7.715,7.715s7.715-3.454,7.715-7.715v-1.154c0-4.261-3.454-7.715-7.715-7.715Z" style="fill:none; stroke:#fff; stroke-linecap:round; stroke-linejoin:round; stroke-width:3px;"/><path d="m381.456,404.215h-4.329v-1.612h6.37v1.274l-3.744,8.06h-1.95l3.653-7.722Z" style="fill:none; stroke:#fff; stroke-linecap:round; stroke-linejoin:round; stroke-width:3px;"/><line x1="380.158" y1="408.299" x2="380.158" y2="319.39" style="fill:none; stroke:#fff; stroke-linecap:round; stroke-linejoin:round; stroke-width:3px;"/><line x1="380.158" y1="408.299" x2="380.158" y2="319.39" style="fill:none; stroke:#000001; stroke-linecap:round; stroke-miterlimit:10;"/><circle cx="380.562" cy="407.462" r="8.275" style="fill:#000001; stroke-width:0px;"/><path d="m380.562,399.17c-4.261,0-7.715,3.454-7.715,7.715v1.154c0,4.261,3.454,7.715,7.715,7.715s7.715-3.454,7.715-7.715v-1.154c0-4.261-3.454-7.715-7.715-7.715Z" style="fill:#000001; stroke-width:0px;"/><path d="m381.456,404.215h-4.329v-1.612h6.37v1.274l-3.744,8.06h-1.95l3.653-7.722Z" style="fill:#fff; stroke-width:0px;"/><line x1="482.592" y1="408.299" x2="482.592" y2="319.39" style="fill:none; stroke:#fff; stroke-linecap:round; stroke-linejoin:round; stroke-width:3px;"/><line x1="482.592" y1="408.299" x2="482.592" y2="319.39" style="fill:none; stroke:#fff; stroke-linecap:round; stroke-linejoin:round; stroke-width:3px;"/><line x1="482.592" y1="408.299" x2="482.592" y2="319.39" style="fill:none; stroke:#fff; stroke-linecap:round; stroke-linejoin:round; stroke-width:3px;"/><path d="m480.224,411.345c-.628-.489-.942-1.172-.942-2.047,0-.546.115-1.006.344-1.378.229-.373.57-.668,1.021-.885-.364-.199-.632-.452-.806-.76-.174-.308-.26-.696-.26-1.164,0-.555.139-1.033.416-1.437.277-.402.657-.706,1.138-.91.481-.203,1.016-.305,1.605-.305.606,0,1.148.105,1.625.318.477.212.849.514,1.118.903s.403.85.403,1.378c0,.451-.093.836-.28,1.157-.186.32-.453.589-.799.806.459.208.806.501,1.04.878s.351.843.351,1.397c0,.875-.316,1.558-.949,2.047-.633.49-1.469.734-2.509.734-1.049,0-1.887-.244-2.516-.734Zm3.711-1.15c.303-.164.455-.446.455-.845v-.234c0-.441-.134-.758-.403-.948-.269-.191-.685-.286-1.248-.286s-.979.095-1.248.286c-.269.19-.403.507-.403.948v.234c0,.398.149.681.448.845.299.165.7.247,1.203.247.494,0,.893-.082,1.196-.247Zm-.117-4.238c.19-.182.286-.424.286-.728v-.169c0-.329-.113-.576-.338-.741-.226-.164-.568-.247-1.027-.247-.399,0-.728.085-.988.254-.26.169-.39.414-.39.734v.169c0,.304.097.546.292.728.195.183.557.273,1.085.273s.888-.091,1.079-.273Z" style="fill:none; stroke:#fff; stroke-linecap:round; stroke-linejoin:round; stroke-width:3px;"/><circle cx="482.996" cy="407.462" r="8.275" style="fill:none; stroke:#fff; stroke-linecap:round; stroke-linejoin:round; stroke-width:3px;"/><path d="m482.996,399.17c-4.537,0-8.215,3.678-8.215,8.215v.153c0,4.537,3.678,8.215,8.215,8.215s8.215-3.678,8.215-8.215v-.153c0-4.537-3.678-8.215-8.215-8.215Z" style="fill:none; stroke:#fff; stroke-linecap:round; stroke-linejoin:round; stroke-width:3px;"/><path d="m480.224,411.345c-.628-.489-.942-1.172-.942-2.047,0-.546.115-1.006.344-1.378.229-.373.57-.668,1.021-.885-.364-.199-.632-.452-.806-.76-.174-.308-.26-.696-.26-1.164,0-.555.139-1.033.416-1.437.277-.402.657-.706,1.138-.91.481-.203,1.016-.305,1.605-.305.606,0,1.148.105,1.625.318.477.212.849.514,1.118.903s.403.85.403,1.378c0,.451-.093.836-.28,1.157-.186.32-.453.589-.799.806.459.208.806.501,1.04.878s.351.843.351,1.397c0,.875-.316,1.558-.949,2.047-.633.49-1.469.734-2.509.734-1.049,0-1.887-.244-2.516-.734Zm3.711-1.15c.303-.164.455-.446.455-.845v-.234c0-.441-.134-.758-.403-.948-.269-.191-.685-.286-1.248-.286s-.979.095-1.248.286c-.269.19-.403.507-.403.948v.234c0,.398.149.681.448.845.299.165.7.247,1.203.247.494,0,.893-.082,1.196-.247Zm-.117-4.238c.19-.182.286-.424.286-.728v-.169c0-.329-.113-.576-.338-.741-.226-.164-.568-.247-1.027-.247-.399,0-.728.085-.988.254-.26.169-.39.414-.39.734v.169c0,.304.097.546.292.728.195.183.557.273,1.085.273s.888-.091,1.079-.273Z" style="fill:none; stroke:#fff; stroke-linecap:round; stroke-linejoin:round; stroke-width:3px;"/><line x1="482.592" y1="408.299" x2="482.592" y2="319.39" style="fill:none; stroke:#fff; stroke-linecap:round; stroke-linejoin:round; stroke-width:3px;"/><line x1="482.592" y1="408.299" x2="482.592" y2="319.39" style="fill:none; stroke:#000001; stroke-linecap:round; stroke-miterlimit:10;"/><circle cx="482.996" cy="407.462" r="8.275" style="fill:#000001; stroke-width:0px;"/><path d="m482.996,399.17c-4.537,0-8.215,3.678-8.215,8.215v.153c0,4.537,3.678,8.215,8.215,8.215s8.215-3.678,8.215-8.215v-.153c0-4.537-3.678-8.215-8.215-8.215Z" style="fill:#000001; stroke-width:0px;"/><path d="m480.224,411.345c-.628-.489-.942-1.172-.942-2.047,0-.546.115-1.006.344-1.378.229-.373.57-.668,1.021-.885-.364-.199-.632-.452-.806-.76-.174-.308-.26-.696-.26-1.164,0-.555.139-1.033.416-1.437.277-.402.657-.706,1.138-.91.481-.203,1.016-.305,1.605-.305.606,0,1.148.105,1.625.318.477.212.849.514,1.118.903s.403.85.403,1.378c0,.451-.093.836-.28,1.157-.186.32-.453.589-.799.806.459.208.806.501,1.04.878s.351.843.351,1.397c0,.875-.316,1.558-.949,2.047-.633.49-1.469.734-2.509.734-1.049,0-1.887-.244-2.516-.734Zm3.711-1.15c.303-.164.455-.446.455-.845v-.234c0-.441-.134-.758-.403-.948-.269-.191-.685-.286-1.248-.286s-.979.095-1.248.286c-.269.19-.403.507-.403.948v.234c0,.398.149.681.448.845.299.165.7.247,1.203.247.494,0,.893-.082,1.196-.247Zm-.117-4.238c.19-.182.286-.424.286-.728v-.169c0-.329-.113-.576-.338-.741-.226-.164-.568-.247-1.027-.247-.399,0-.728.085-.988.254-.26.169-.39.414-.39.734v.169c0,.304.097.546.292.728.195.183.557.273,1.085.273s.888-.091,1.079-.273Z" style="fill:#fff; stroke-width:0px;"/><path d="m21.409,358.699c-.507-.265-.898-.642-1.176-1.131s-.416-1.06-.416-1.71c0-.441.071-.879.214-1.312.144-.434.384-.944.722-1.534.528-.91,1.36-2.036,2.496-3.38h2.262l-.715.871c-.364.441-.711.862-1.04,1.261s-.598.75-.806,1.053c.173-.034.372-.052.598-.052.599,0,1.131.135,1.6.403.468.269.829.642,1.085,1.118s.384,1.014.384,1.611c0,.65-.147,1.218-.442,1.703s-.704.856-1.229,1.111c-.524.256-1.12.384-1.787.384-.659,0-1.241-.132-1.749-.396Zm2.965-1.632c.299-.251.448-.61.448-1.078v-.183c0-.477-.146-.838-.436-1.085-.291-.247-.679-.371-1.164-.371s-.886.122-1.202.364c-.316.243-.475.606-.475,1.092v.183c0,.477.146.838.436,1.085s.687.37,1.189.37.903-.125,1.203-.377Z" style="fill:none; stroke:#fff; stroke-linecap:round; stroke-linejoin:round; stroke-width:3px;"/><circle cx="23.44" cy="354.491" r="8.275" style="fill:none; stroke:#fff; stroke-linecap:round; stroke-linejoin:round; stroke-width:3px;"/><path d="m23.44,346.199c-4.516,0-8.176,3.661-8.176,8.176v.231c0,4.516,3.661,8.176,8.176,8.176s8.176-3.661,8.176-8.176v-.231c0-4.516-3.661-8.176-8.176-8.176Z" style="fill:none; stroke:#fff; stroke-linecap:round; stroke-linejoin:round; stroke-width:3px;"/><path d="m21.409,358.699c-.507-.265-.898-.642-1.176-1.131s-.416-1.06-.416-1.71c0-.441.071-.879.214-1.312.144-.434.384-.944.722-1.534.528-.91,1.36-2.036,2.496-3.38h2.262l-.715.871c-.364.441-.711.862-1.04,1.261s-.598.75-.806,1.053c.173-.034.372-.052.598-.052.599,0,1.131.135,1.6.403.468.269.829.642,1.085,1.118s.384,1.014.384,1.611c0,.65-.147,1.218-.442,1.703s-.704.856-1.229,1.111c-.524.256-1.12.384-1.787.384-.659,0-1.241-.132-1.749-.396Zm2.965-1.632c.299-.251.448-.61.448-1.078v-.183c0-.477-.146-.838-.436-1.085-.291-.247-.679-.371-1.164-.371s-.886.122-1.202.364c-.316.243-.475.606-.475,1.092v.183c0,.477.146.838.436,1.085s.687.37,1.189.37.903-.125,1.203-.377Z" style="fill:none; stroke:#fff; stroke-linecap:round; stroke-linejoin:round; stroke-width:3px;"/><circle cx="23.44" cy="354.491" r="8.275" style="fill:#000001; stroke-width:0px;"/><path d="m23.44,346.199c-4.516,0-8.176,3.661-8.176,8.176v.231c0,4.516,3.661,8.176,8.176,8.176s8.176-3.661,8.176-8.176v-.231c0-4.516-3.661-8.176-8.176-8.176Z" style="fill:#000001; stroke-width:0px;"/><path d="m21.409,358.699c-.507-.265-.898-.642-1.176-1.131s-.416-1.06-.416-1.71c0-.441.071-.879.214-1.312.144-.434.384-.944.722-1.534.528-.91,1.36-2.036,2.496-3.38h2.262l-.715.871c-.364.441-.711.862-1.04,1.261s-.598.75-.806,1.053c.173-.034.372-.052.598-.052.599,0,1.131.135,1.6.403.468.269.829.642,1.085,1.118s.384,1.014.384,1.611c0,.65-.147,1.218-.442,1.703s-.704.856-1.229,1.111c-.524.256-1.12.384-1.787.384-.659,0-1.241-.132-1.749-.396Zm2.965-1.632c.299-.251.448-.61.448-1.078v-.183c0-.477-.146-.838-.436-1.085-.291-.247-.679-.371-1.164-.371s-.886.122-1.202.364c-.316.243-.475.606-.475,1.092v.183c0,.477.146.838.436,1.085s.687.37,1.189.37.903-.125,1.203-.377Z" style="fill:#fff; stroke-width:0px;"/></g></svg>