<svg xmlns="http://www.w3.org/2000/svg" xmlns:xlink="http://www.w3.org/1999/xlink" width="325" height="243.4445" viewBox="0 0 325 243.4445"><defs><clipPath id="f32f26d2-642f-43f1-b49d-3030cc534110"><path d="M189.5056,146.6689l72.9953,21.21L246.34,181.0655s-33.88-5.8976-34.1378-5.9795-29.9366-9.175-29.9366-9.175-5.4533-9.251-5.3714-9.4967,5.3714-5.0774,5.3714-5.0774Z" style="fill:none"/></clipPath><clipPath id="ffb781e0-37fc-44f0-a783-8a0bac168fc5"><path d="M33.637,99.3268,90.8781,116.971l-12.6518,6.0974H54.8374c-1.1607,0-6.5653-2.3431-9.164-3.3312s-14.3143-3.517-15.9792-4.5436-3.9218-3.8305-4.0586-4.7879-1.231-6.5653-.6155-6.7021S33.637,99.3268,33.637,99.3268Z" style="fill:none"/></clipPath></defs><g id="abe815fd-682e-406a-b038-cf1e9942f47a" data-name="illustration"><path d="M113.6434,54.5759c-.7691-.2845-14.834-5.763-10.683-22.2827,4.2669-16.9728,8.06-30.4478,8.06-30.4478a14.5125,14.5125,0,0,0-3.0343-6.3529c-4.014-4.8675-6.0684-6.0685-7.5856-7.7753S98.409-16.55,99.2624-19.8684c.8534-3.3292,7.68-23.4311,9.5768-29.5,1.8964-6.079,5.5944-8.6391,8.2494-9.8718L118.89-64.929a7.39,7.39,0,0,1-1.2326-7.2063c1.5171-4.1721,6.079-18.1212,10.4407-24.569s15.3609-12.6216,20.6708-13.475c3.6137-.5794,11.9263-.5478,16.8885-.4635" style="fill:none;stroke:#a7abae;stroke-miterlimit:10"/><path d="M113.675,54.5864l-.0316-.0105-30.89-7.7647A202.1882,202.1882,0,0,0,52.815,42.81c-14.2093-.5672-25.5767,0-25.5767,0a23.4408,23.4408,0,0,0-10.7359,4.4088c-4.5786,3.7075-8.3677,7.3573-8.3677,7.3573s-2.5261,2.6946-2.5261,5.8377S7.9768,87.0809,7.9768,87.0809s.4737,4.1049,6.3153,5.6837,83.0742,25.6136,83.0742,25.6136a3.7508,3.7508,0,0,0,2.56,0,3.3,3.3,0,0,0,2.2144,1.6608c1.73.4844,51.0862,15.0163,51.0862,15.0163a3.0983,3.0983,0,0,0,2.5435,0,3.8166,3.8166,0,0,0,2.3528,1.73c1.73.4844,100.8932,29.3407,107.6747,31.3475s17.3,4.6364,29.4791,3.9444l12.1791-.692s7.5428-.5536,11.0028-3.114a9.66,9.66,0,0,0,3.3456,6.7449c3.2418,2.5664,8.2486,7.5642,15.5382,4.8627s18.7709-9.1851,18.7709-9.1851,9.7635-3.9172,11.9057-12.9673,7.6688-33.4281,7.6688-33.4281c-2.1093-8.618-8.829-11.9326-17.9441-13.59s-13.88-1.2466-13.88-1.2466C313.2869,101.29,256.0263,85.9472,241.499,86.1311c-15.2628-5.6086-46.2481-13.4239-62.43-15.7225l-12.5045-3.1261S137.655,58.72,113.6767,54.5882" style="fill:none;stroke:#a7abae;stroke-miterlimit:10"/><path d="M257.5893,22.0457s12.1456-43.4061,13.8331-47.58,4.3567-7.4894,9.5054-9.0735,17.1384-5.062,20.6021-6.3427a40.0536,40.0536,0,0,0,11.7233-6.787c4.3518-3.5525,6.3057-4.9735,6.3057-4.9735s2.4867-3.02,8.6148-2.4868,27.976,3.1973,31.5285,3.73,5.95,2.4867,6.9274,5.3287,5.3287,11.0128,8.0819,13.3219,10.2135,9.2365,12.2562,11.19,5.1511,5.5064,4.1742,11.4568-7.7267,36.058-8.1708,37.9231a20.6315,20.6315,0,0,0,0,12.8778c2.1315,6.2169,7.105,21.1374,7.105,21.1374" style="fill:none;stroke:#a7abae;stroke-miterlimit:10;stroke-width:0.5px"/><path d="M350.0537,109.6464c.2664-.1776,9.1156-35.0892,11.2471-40.5955s6.1281-11.9009,12.9667-10.1247a89.2507,89.2507,0,0,1,11.8121,3.73c5.95,2.2111,6.3945,12.0786,3.9965,21.4927s-8.0139,26.1661-8.0139,26.1661c-3.3907,10.5358-7.6139,28.906-8.3389,53.6248v7.3525a3.929,3.929,0,0,1-2.0923,3.4793c-11.1364,5.8872-63.1389,33.3585-68.39,35.7691a38.3445,38.3445,0,0,1-26.6862,2.0262c-8.4058-2.46-17.2784-5.6985-21.068-7.1169a3.39,3.39,0,0,1-2.177-2.7128c-.913-6.5279-3.7669-27.5193-4.4453-39.55" style="fill:none;stroke:#a7abae;stroke-miterlimit:10"/><path d="M272.0562,91.25c-2.9289-3.14-4.91-10.0509-2.6023-19.2906,2.9184-11.684,18.4056-63.993,20.597-70.188,2.1809-6.1843,3.8139-9.2291,8.8394-13.6646A73.7385,73.7385,0,0,1,310.5637-20.3c2.3389-1.4012,6.7638-3.4451,13.8964-2.834,7.122.611,20.6708,2.7182,24.8745,3.6558,4.2036.9271,8.1756,3.15,10.2827,6.7744,2.0965,3.6137,8.9236,15.2976,6.7322,23.2309-2.1809,7.9438-16.5514,62.6129-19.1115,72.1265-2.5707,9.5136-4.52,18.775-.3583,26.7907" style="fill:none;stroke:#a7abae;stroke-miterlimit:10;stroke-width:0.5px"/><path d="M309.7,100.4372c-2.36-8.755-.9166-14.0966,1.6435-23.5575,1.2537-4.6673,6.5215-24.7375,12.0843-45.9983,5.5733-21.2713,11.3047-43.1537,13.7805-52.425" style="fill:none;stroke:#a7abae;stroke-miterlimit:10;stroke-width:0.5px"/><path d="M303.9473,98.9728c-1.7173-8.576-.0526-14.7287,2.3073-23.4627,1.2538-4.6462,6.511-24.7165,12.0843-45.9562,5.4469-20.8077,11.0518-42.1949,13.612-51.8349" style="fill:none;stroke:#a7abae;stroke-miterlimit:10;stroke-width:0.5px"/><path d="M148.4845,10.5056c.885-3.129,1.8122-6.374,2.75-9.64,5.4575-19.08,11.0729-38.75,12.9061-45.04" style="fill:none;stroke:#a7abae;stroke-miterlimit:10;stroke-width:0.5px"/><path d="M138.1492,59.7383c-1.6331-7.8384-.0843-13.1062,2.16-20.7445.2107-.7164.5478-1.8859.99-3.4135" style="fill:none;stroke:#a7abae;stroke-miterlimit:10;stroke-width:0.5px"/><path d="M154.3213,9.273c.6426-2.2757,1.3064-4.6041,1.9806-6.9535,5.7-19.9544,11.5786-40.5409,13.1168-45.7665" style="fill:none;stroke:#a7abae;stroke-miterlimit:10;stroke-width:0.5px"/><path d="M142.7111,60.8551l1.0535-.2845c-2.0544-7.67-.748-12.0737,1.6014-20.0913.2318-.79.6111-2.1071,1.1168-3.856" style="fill:none;stroke:#a7abae;stroke-miterlimit:10;stroke-width:0.5px"/><path d="M102.7364-17.0989A78.2985,78.2985,0,0,1,111.9736-7.67s1.3122,1.2746-.9529,9.519" style="fill:none;stroke:#a7abae;stroke-miterlimit:10;stroke-width:0.5px"/><path d="M115.0843,54.8354c-3.0494-.9979-5.3883-9.7361-2.7327-19.0366s17.5546-56.4354,18.909-59.8667,3.341-7.5849,6.682-10.7453a67.9464,67.9464,0,0,1,10.2938-7.8558,15.4045,15.4045,0,0,1,10.3841-2.1671c4.6051.4515,17.066,2.2574,19.8652,2.7992a10.3005,10.3005,0,0,1,7.0432,5.5081c1.6253,3.07,4.5148,11.1968,3.4312,16.3437s-4.876,19.4137-4.876,19.4137" style="fill:none;stroke:#a7abae;stroke-miterlimit:10"/><path d="M262.5382,44.9147c-5.2113-.152-8.5074-1.9375-10.98,5.8909S242.4259,86.13,242.4259,86.13" style="fill:none;stroke:#a7abae;stroke-miterlimit:10"/><path d="M243.21,82.915s-1.8831-8.83-2.4324-12.47-1.4421-6.7983,0-12.4979,5.7-20.6695,5.7-20.6695,1.03-2.3348,4.9443-2.4721" style="fill:none;stroke:#a7abae;stroke-miterlimit:10;stroke-width:0.5px"/><path d="M193.3555,73.0131c-7.87-9.5452-5.9631-20.86-3.698-27.6558" style="fill:none;stroke:#a7abae;stroke-miterlimit:10"/><path d="M190.5156,49.9145c15.332,3.0673,32.1216,6.79,47.3114,10.499-15.3325-3.0645-32.1211-6.793-47.3114-10.499Z" style="fill:#a7abae"/><path d="M180.0489,42.95l-7.6345,25.8113-.1063.36c-19.7235-3.8783-46.4627-7.1432-65.09,1.6361-2.0432.78-3.7145,3.4746-5.1307,5.0306-1.285,1.6592-3.505,3.9157-4.5461,5.6991-1.278,2.1655-.9933,4.6849-.7763,7.085.8042,9.7285,1.4323,19.4969,3.0033,29.1381-1.6382-9.6316-2.3342-19.3977-3.2062-29.122-.2394-2.4138-.5342-5.0147.7554-7.221,1.06-1.8373,3.2277-4.0687,4.5355-5.7744l2.3308-2.8309c2.3741-2.8725,6.3244-3.8164,9.6972-5.0468,18.9277-5.2789,39.1739-2.9844,58.2253.5341l-.4723.2846L179.089,42.67l.96.28Z" style="fill:#a7abae"/><path d="M171.0433,41.5813c-3.3155,7.7806-3.9683,19.8649-.8395,26.6111" style="fill:none;stroke:#a7abae;stroke-miterlimit:10;stroke-width:0.5px"/><path d="M301.9736,2.4946c-5.3566-1.2747-2.2646-8.4474,2.4381-7.7133l11.9718,2.008a3.5629,3.5629,0,0,1,2.6,4.98,4.7942,4.7942,0,0,1-5.0824,2.986c-3.99-.7172-7.9561-1.48-11.9279-2.261q5.9988.8973,11.9848,1.8806a4.4283,4.4283,0,0,0,4.6022-2.7723,3.0777,3.0777,0,0,0-2.2629-4.3215L304.3547-4.84c-4.3877-.78-7.4508,5.994-2.3811,7.3349Z" style="fill:#a7abae"/><path d="M296.9256,20.0026c-5.2852-1.2389-2.93-8.5847,2.0342-7.739l11.98,2.2077a3.8344,3.8344,0,0,1,2.9085,4.9448,4.4111,4.4111,0,0,1-4.99,3.0464q-5.98-1.1814-11.9324-2.46,6.008.9984,12.0008,2.0815a4.03,4.03,0,0,0,4.4886-2.8066,3.3536,3.3536,0,0,0-2.5685-4.3156L298.8913,12.64c-4.6649-.872-6.9322,6.0631-1.9657,7.3624Z" style="fill:#a7abae"/><path d="M291.5625,37.7681a3.9722,3.9722,0,0,1-1.437-7.1893,4.0963,4.0963,0,0,1,3.0589-.5735l11.9967,2.4055a4.1349,4.1349,0,0,1,1.4167,7.4855,4.0621,4.0621,0,0,1-3.0911.5291q-5.9811-1.2839-11.9442-2.6573,6.0195,1.0986,12.0221,2.2806a3.7624,3.7624,0,0,0,2.78-.5162A3.668,3.668,0,0,0,305.08,32.9l-11.9723-2.52a3.7457,3.7457,0,0,0-2.8127.4633,3.8321,3.8321,0,0,0,1.2675,6.9244Z" style="fill:#a7abae"/><path d="M286.45,55.2562c-3.2288-.5614-4.8325-5.2446-1.8753-7.2507a3.8954,3.8954,0,0,1,3.0774-.5346l12.0208,2.6019c3.368.6712,4.8932,5.5022,1.852,7.5452a3.8759,3.8759,0,0,1-3.11.4909q-5.9922-1.3816-11.9647-2.8527,6.0333,1.197,12.0483,2.4773a3.5633,3.5633,0,0,0,2.7858-.4746c2.6806-1.8279,1.27-6.1275-1.72-6.6985l-11.9948-2.7156a3.5451,3.5451,0,0,0-2.82.4222c-2.7892,1.8248-1.4037,6.3318,1.7006,6.9892Z" style="fill:#a7abae"/><path d="M326.2138,65.28c-3.2289-.5614-4.8326-5.2447-1.8753-7.2507a3.8952,3.8952,0,0,1,3.0773-.5346l12.0208,2.6019c3.3681.6712,4.8933,5.5021,1.852,7.5452a3.8758,3.8758,0,0,1-3.11.4909q-5.9921-1.3816-11.9646-2.8527,6.0332,1.197,12.0482,2.4773a3.5637,3.5637,0,0,0,2.7858-.4746c2.6806-1.828,1.27-6.1276-1.72-6.6985l-11.9947-2.7156a3.5453,3.5453,0,0,0-2.82.4222c-2.7892,1.8247-1.4037,6.3318,1.7007,6.9892Z" style="fill:#a7abae"/><path d="M282.1527,71.9318c-4.9055-1.0913-5.0651-8.9048.7758-7.8078L294.98,66.9225a4.9859,4.9859,0,0,1,3.7309,4.7642,3.4824,3.4824,0,0,1-4.5666,3.2933q-6.006-1.48-11.9914-3.0482,6.05,1.2956,12.0807,2.6742a3.0783,3.0783,0,0,0,4.0224-2.9329,4.52,4.52,0,0,0-3.3917-4.2648L282.84,64.4967c-5.4711-1.1217-5.2383,6.284-.6877,7.4351Z" style="fill:#a7abae"/><path d="M322.6826,82.8377c-4.9055-1.0913-5.0652-8.9048.7758-7.8078L335.51,77.8284a4.9857,4.9857,0,0,1,3.7309,4.7642,3.4823,3.4823,0,0,1-4.5666,3.2932q-6.0061-1.4794-11.9914-3.0481,6.05,1.2956,12.0806,2.6741a3.0783,3.0783,0,0,0,4.0225-2.9329,4.52,4.52,0,0,0-3.3918-4.2647L323.37,75.4025c-5.4711-1.1216-5.2382,6.2841-.6876,7.4352Z" style="fill:#a7abae"/><path d="M279.2372,87.26a5.33,5.33,0,0,1-3.9207-4.4576A3.1727,3.1727,0,0,1,279.58,79.43l12.088,2.9952a5.4757,5.4757,0,0,1,3.9616,4.6935,3.2224,3.2224,0,0,1-4.3682,3.3857q-6.0232-1.5776-12.0246-3.244,6.07,1.3942,12.1194,2.8714a2.8178,2.8178,0,0,0,3.8192-2.9836,5.0232,5.0232,0,0,0-3.63-4.239l-12.0588-3.108a2.8643,2.8643,0,0,0-3.9277,2.985,5.2113,5.2113,0,0,0,3.6781,4.4742Z" style="fill:#a7abae"/><path d="M320.5329,99.0484a5.3294,5.3294,0,0,1-3.9208-4.4576,3.1728,3.1728,0,0,1,4.2639-3.3728l12.0881,2.9952a5.476,5.476,0,0,1,3.9616,4.6935,3.2225,3.2225,0,0,1-4.3682,3.3858q-6.0234-1.5777-12.0246-3.2441,6.07,1.3944,12.1193,2.8714a2.8179,2.8179,0,0,0,3.8193-2.9836,5.023,5.023,0,0,0-3.63-4.2389l-12.0588-3.1081a2.8643,2.8643,0,0,0-3.9277,2.985,5.2113,5.2113,0,0,0,3.6782,4.4742Z" style="fill:#a7abae"/><path d="M130.8557,5.3671a3.198,3.198,0,1,1,1.308-6.26l9.62,1.9171a3.3749,3.3749,0,0,1,2.5981,3.9809,3.3,3.3,0,0,1-3.9582,2.53q-4.7929-1.0389-9.5677-2.1675,4.8312.8537,9.6456,1.7909a2.8838,2.8838,0,1,0,1.1812-5.6452L132.0869-.5183c-3.9171-.7922-5.0789,4.9012-1.2312,5.8854Z" style="fill:#a7abae"/><path d="M125.6078,20.8882c-3.1094-.4627-3.8441-4.9445-.7432-6.0646a4.4593,4.4593,0,0,1,2.7291.0357l5.1508,1.205,2.5664.6425a6.5363,6.5363,0,0,1,2.4667.9354,7.0267,7.0267,0,0,0-2.52-.6962l-2.5966-.5063-5.1753-1.0929a4.0113,4.0113,0,0,0-2.4671-.0959c-2.785,1.0048-2.1731,4.9245.5894,5.6373Z" style="fill:#a7abae"/><path d="M137.4762,22.88a4.0444,4.0444,0,0,1-3.0125.1794,72.706,72.706,0,0,1-8.8559-2.1715,72.7268,72.7268,0,0,1,8.94,1.798,4.5446,4.5446,0,0,0,2.9289.1941Z" style="fill:#a7abae"/><path d="M121.3559,35.7534c-3.9721-.9745-3.0039-7.0936,1.2228-6.3736l9.485,2.1616a3.4968,3.4968,0,0,1,2.5464,4.0062,3.1869,3.1869,0,0,1-3.8275,2.6161c-3.1567-.77-6.29-1.5794-9.4267-2.41q4.7626.975,9.5072,2.0343a2.7888,2.7888,0,0,0,3.3-2.3244,3.0234,3.0234,0,0,0-2.2138-3.4358l-9.4509-2.2734c-3.8745-.7538-4.7872,4.9886-1.1423,5.9993Z" style="fill:#a7abae"/><path d="M152.6293,44.16c-3.9721-.9745-3.0039-7.0936,1.2228-6.3737l9.4849,2.1616a3.4969,3.4969,0,0,1,2.5465,4.0063A3.1869,3.1869,0,0,1,162.056,46.57c-3.1567-.77-6.29-1.58-9.4267-2.41q4.7626.9749,9.5072,2.0342a2.7887,2.7887,0,0,0,3.3-2.3244,3.0234,3.0234,0,0,0-2.2137-3.4358l-9.451-2.2734c-3.8744-.7537-4.7872,4.9887-1.1422,5.9994Z" style="fill:#a7abae"/><path d="M118.92,48.5359c-3.8776-.863-4.63-7.2433.2843-6.3145l9.6937,2.39a4.442,4.442,0,0,1,3.2087,3.8078,2.6238,2.6238,0,0,1-3.5562,2.7541q-4.8264-1.2744-9.6305-2.6376,4.8729,1.0911,9.7252,2.265a2.2225,2.2225,0,0,0,3.0074-2.352,3.9814,3.9814,0,0,0-2.8774-3.3532l-9.6644-2.5029a2.27,2.27,0,0,0-3.1154,2.3546,4.1654,4.1654,0,0,0,2.9246,3.5885Z" style="fill:#a7abae"/><path d="M152.0262,57.9864c-3.8777-.863-4.63-7.2432.2843-6.3144l9.6937,2.39a4.4423,4.4423,0,0,1,3.2087,3.8077,2.624,2.624,0,0,1-3.5563,2.7542q-4.8262-1.2744-9.63-2.6377,4.8729,1.0913,9.7251,2.265a2.2224,2.2224,0,0,0,3.0074-2.352,3.9812,3.9812,0,0,0-2.8774-3.3532l-9.6644-2.5028a2.27,2.27,0,0,0-3.1154,2.3545,4.1653,4.1653,0,0,0,2.9247,3.5885Z" style="fill:#a7abae"/><path d="M227.1843,82.0366c-14.1451-3.6057-28.9966-3.5454-43.422-1.817-4.8086.6382-9.6639,1.2511-14.2633,2.843a37.4759,37.4759,0,0,0-6.6744,2.8066c-1.9833,1.34-3.2771,3.5452-4.7975,5.3764-2.0354,2.8894-4.86,5.7857-4.5794,9.5694l.1162,3.6538c.3872,9.7361.6166,19.5,1.7158,29.187-1.1822-9.6792-1.495-19.4433-1.9657-29.1776l-.1474-3.6535c-.24-2.5283,1.0032-4.8526,2.432-6.8227,1.3711-2.0224,2.8481-3.9685,4.3682-5.88,2.0958-3.1624,6.0015-4.2935,9.374-5.5339,4.6267-1.6449,9.5042-2.3048,14.3421-2.9886,14.52-1.8654,29.4582-2.0463,43.755,1.4695l-.2536.9674Z" style="fill:#a7abae"/><path d="M21.809,46.4539c-7.2588,4.803,11.0746,7.932,13.9363,8.707l6.6553,1.5809c8.8631,2.15,17.7035,4.3887,26.5365,6.6559,8.5817,2.4531,17.9111,4.6313,26.8614,3.4469a207.305,207.305,0,0,1,27.2144-2.6738,239.8346,239.8346,0,0,0-27.1666,3.0029C86.8305,68.42,77.4705,66.3011,68.8115,63.88c-8.8176-2.3207-17.6427-4.6136-26.49-6.8167L35.679,55.4428c-2.9545-.7591-21.2484-4.2222-13.87-8.9889Z" style="fill:#a7abae"/><path d="M9.0478,56.9028c-1.1906,3.362,17.02,6.9536,19.9051,7.9819l21.5035,5.6368c12.12,3.2483,30.9721,8.2111,42.948,11.5035-12.015-2.9382-30.9506-7.8921-43.0753-11.0211L28.8666,65.2045c-3.0237-1.0659-20.9079-4.779-19.8188-8.3017Z" style="fill:#a7abae"/><path d="M99.7682,82.915c16.6189,4.1484,34.8077,9.0567,51.2554,13.8395-16.62-4.1457-34.8069-9.0594-51.2554-13.8395Z" style="fill:#a7abae"/><path d="M156.9821,98.3781c12.9784,3.7056,38.9763,11.0315,51.97,14.6293,17.3722,4.5848,34.6741,9.8052,52.3961,12.8185a238.0254,238.0254,0,0,0,53.7713,2.393c8.96-.7812,17.7723-2.7476,26.5725-4.5522q13.2066-2.7785,26.3275-5.9569-13.0941,3.2766-26.2761,6.1961c-8.8062,1.843-17.6166,3.8308-26.5944,4.6441a238.19,238.19,0,0,1-53.8777-2.2313c-17.7586-3.0763-35.021-8.346-52.4077-12.9916-15.2066-4.1638-36.58-10.4419-51.8816-14.949Z" style="fill:#a7abae"/><path d="M185.2191,82.915c-1.7609,1.1488-3.4936,2.9577-3.345,5.19,1.0256,4.5772,7.9939,5.4537,11.8483,6.5533,19.589,4.8985,41.0887,10.4179,60.6686,14.84,23.7314,5.8448,58.5952,1.47,82.9525.7128-20.7831,1.0165-41.5793,3.37-62.4054,2.4175a104.73,104.73,0,0,1-20.6559-2.6435c-19.5438-4.496-41.0774-10.1133-60.62-15.0914-3.8876-1.16-10.8654-2.1076-11.8642-6.78-.1266-2.2569,1.6433-4.0714,3.4207-5.1986Z" style="fill:#a7abae"/><path d="M193.3555,91.2378c21.1206.3965,42.3443.6605,63.2523,4.0134,20.8313,3.649,41.3779,8.7126,61.8515,13.9654-20.5479-4.8729-41.103-9.9666-61.9306-13.4729-20.5522-3.4768-42.3369-3.717-63.1732-4.5059Z" style="fill:#a7abae"/><path d="M28.77,51.7249c16.4668.5983,34.3442,1.2549,50.7036,2.6618,16.8951,1.4642,33.3223,5.9032,50.0605,8.4257-12.597-1.5941-24.98-4.5037-37.5151-6.4581C72.4294,53.5818,48.6662,52.92,28.77,51.7249Z" style="fill:#a7abae"/><path d="M111.194,73.0131c15.1639,3.5387,31.7578,7.7777,46.7591,11.9529-15.1646-3.5359-31.757-7.78-46.7591-11.9529Z" style="fill:#a7abae"/><path d="M318.4593,168.2712a78.19,78.19,0,0,1,1.6912-7.9783,159.8723,159.8723,0,0,1,5.4365-16.3441c.9455-2.2963,2.8366-7.2941,9.1851-9.32s28.2164-10.4008,32.0057-11.2113,9.61-2.189,8.346,3.3688" style="fill:none;stroke:#a7abae;stroke-miterlimit:10"/><path d="M350.9947,168.2739a14.4165,14.4165,0,0,1-6.9932,5.2424c-2.7229,1.1935-5.4722,2.3329-8.2538,3.3773a11.4488,11.4488,0,0,1-9.6853-3.7667,8.6545,8.6545,0,0,1-2.4911-9.931c1.4749-4.8462,3.6034-11.96,5.07-16.7865.9126-2.8769,2.81-5.7752,5.9112-6.5432l1.6519-.59,6.609-2.3567,13.2326-4.7048c7.71-2.5118,5.7248,5.3345,4.46,9.8573q-1.7587,6.8019-3.7175,13.5381l-.9845,3.3679a23.32,23.32,0,0,1-4.81,9.2959,23.8339,23.8339,0,0,0,4.49-9.3852l.8905-3.3924c1.1717-4.5267,2.3764-9.0463,3.457-13.59.4069-2.4308,2.5346-8.0169-.3441-9.1874a5.5918,5.5918,0,0,0-3.1729.3267c-4.404,1.5929-15.5278,5.6188-19.7746,7.1632l-1.6487.5976c-2.8352.67-4.4757,3.2681-5.3437,5.8885-1.4894,4.8107-3.6733,11.9344-5.166,16.7639a7.9366,7.9366,0,0,0,2.1706,9.1778,10.8206,10.8206,0,0,0,9.1345,3.744c2.4554-.9154,5.5708-2.0263,8.2025-3.1244a14.6,14.6,0,0,0,7.1047-4.9819Z" style="fill:#a7abae"/><path d="M205.3339,24.66c1.466.5514,2.9963-.2433,4.4635-.4966l4.7323-1.0373c6.8306-1.4485,16.8775-3.5341,23.6934-4.9205,1.5088-.3753,3.3513-.41,4.4109-1.695a3.8135,3.8135,0,0,1-2.0311,1.2443c-7.7165,1.8582-18.1528,4.22-25.9065,6.1025l-4.6935,1.1566c-1.6363.3614-3.2873,1.201-4.99.5932l.3207-.9472Z" style="fill:#a7abae"/><path d="M150.1956,10.7241s44.3679,8.044,46.963,8.5436,4.7256,1.4416,5.12,2.8546a4.8024,4.8024,0,0,0,2.8944,3.0113" style="fill:none;stroke:#a7abae;stroke-miterlimit:10"/><path d="M243.6471,30.7047c.6579,1.4874,2.7207,1.1467,4.03.894l5.0013-.7954L247.77,32.09c-1.7211.5317-3.9866.96-5.057-1.0288l.9343-.3565Z" style="fill:#a7abae"/><path d="M239.7119,5.92a7.75,7.75,0,0,1,2.714,4.8042c0,1.3188.7541,20.1589.7541,20.1589" style="fill:none;stroke:#a7abae;stroke-linecap:round;stroke-linejoin:round"/><path d="M253.8254.8309,240.0924,4.45l.0519-.0156a1.5831,1.5831,0,0,0-.3969.2587c-.3776.3138.01.6045.282.8408l-.635.7725a1.4466,1.4466,0,0,1,.5062-2.6842L253.8254.8309Z" style="fill:#a7abae"/><line x1="255.8026" y1="10.7819" x2="242.5232" y2="13.8595" style="fill:none;stroke:#a7abae;stroke-miterlimit:10;stroke-width:0.5px"/><path d="M171.9417,4.4487l3.25-.5159-.0366.0076a18.4767,18.4767,0,0,1,5.9693.364l5.7517.9556,11.4853,1.9964c3.8252.6832,7.6485,1.3775,11.4652,2.1082,3.816.7341,7.63,1.4814,11.42,2.3537,1.9077.7415,4.0863,1.2956,5.48,2.8892a39.508,39.508,0,0,1,3.1981,5.3377q-.74-1.3684-1.54-2.7024a23.3672,23.3672,0,0,0-1.7351-2.572c-1.3811-1.5353-3.574-2.0619-5.455-2.76-3.7525-.8-7.6251-1.4966-11.4369-2.1659-6.6435-1.1788-16.2416-2.6732-23.0019-3.7342l-5.76-.8622a18.2142,18.2142,0,0,0-5.6105-.289l-.037.0077-3.2412.5679-.1647-.9863Z" style="fill:#a7abae"/><path d="M172.5616,3.2535c1.8111-1.3683,4.2271-1.3054,6.3907-1.2549a63.7635,63.7635,0,0,1,6.5991.6513q13.13,1.7917,26.1366,4.3574c4.331.867,8.66,1.7732,12.9093,3.0211A6.8176,6.8176,0,0,1,229.25,13.92c.3731.9735.6232,1.9689.9406,2.9513l.9038,2.9545-.9921-2.9267c-.3444-.9671-.63-1.9674-1.0222-2.9055a6.6584,6.6584,0,0,0-4.5729-3.6607c-4.25-1.1523-8.581-2.02-12.9081-2.8731q-13.0038-2.4738-26.0943-4.4821c-2.1831-.3324-4.3623-.6443-6.5623-.7823-2.1559-.1132-4.5327-.2513-6.381,1.058Z" style="fill:#a7abae"/><path d="M227.9343,12.1077A100.999,100.999,0,0,1,241.9736,8.98a100.999,100.999,0,0,1-14.0393,3.128Z" style="fill:#a7abae"/><path d="M226.3041,14.21c-7.9522,2.47-16.8011,4.8449-24.9234,6.6805,7.9514-2.4729,16.8018-4.8423,24.9234-6.68Z" style="fill:#a7abae"/><path d="M200.24,20.2109c-3.6576,3.8671-6.5188,7.6041-6.5188,10.4653v15.12" style="fill:none;stroke:#a7abae;stroke-miterlimit:10;stroke-width:0.5px"/><path d="M138.331,17.0808c.0239-.0523,56.1863,10.6374,56.1863,10.6374" style="fill:none;stroke:#a7abae;stroke-miterlimit:10;stroke-width:0.5px"/><path d="M174.6386,6.622S164.5734,8.8211,163.83,8.98s-2.3448,1.025,1.43,1.564a26.3947,26.3947,0,0,0,5.3185.396c7.9492-.3145,13.325.2574,14.8119,2.8309l9.1272,1.6013a23.82,23.82,0,0,0,9.913-.3432c5.9512-1.3153,7.8384-1.7728,7.8384-1.7728s3.1454-.8578-1.2009-1.6585l-7.5489-1.43c-6.5767.6863-15.5553-.4575-13.0962-2.4591L180.3575,6.1073A21.55,21.55,0,0,0,174.6386,6.622Z" style="fill:none;stroke:#a7abae;stroke-miterlimit:10;stroke-width:0.5px"/><line x1="190.0195" y1="8.4528" x2="190.0195" y2="14.599" style="fill:none;stroke:#a7abae;stroke-miterlimit:10;stroke-width:0.5px"/><line x1="203.5189" y1="10.1677" x2="203.5189" y2="15.1772" style="fill:none;stroke:#a7abae;stroke-miterlimit:10;stroke-width:0.5px"/><path d="M233.3981-2.6437s-2.3592-.5855-7.8184.7489C220.981-.7706,212.4511,1.5013,209.8763,2.19a3.1849,3.1849,0,0,1-1.52.0306l-2.9995-.6723a.2325.2325,0,0,1-.0106-.4516C208,.3879,215.8682-1.7192,221.5358-3.31a8.4033,8.4033,0,0,1,5.0038-.4178" style="fill:none;stroke:#a7abae;stroke-miterlimit:10;stroke-width:0.5px"/><path d="M257.205,4.9419s-.1309-3.6378-4.723-4.4856-35.1128-5.6258-35.1128-5.6258S210.388-6.42,206.4368-5.6667s-31.536,7.5154-31.536,7.5154-2.8767.5137-2.8767,3.0932c0,0-15.62,3.1446-21.8285,5.7822l-1.8928-.2369a7.7821,7.7821,0,0,0-6.85,2.6277l-2.0668,2.387a7.7822,7.7822,0,0,0-1.8988,5.0939v10.69a4.3027,4.3027,0,0,0,3.45,4.2173l48.9706,9.905a19.6645,19.6645,0,0,0,8.182-.0819l54.1339-12.0833" style="fill:none;stroke:#a7abae;stroke-miterlimit:10"/><path d="M307.1815-99.8362l-11.7624,1.6555a7.6925,7.6925,0,0,0-3.13,1.174l-4.6067,3.0043a7.6922,7.6922,0,0,0-3.2014,4.3556l-9.9742,35.3784a9.3883,9.3883,0,0,0,1.6551,9.3784l-.8275,3.8617a7.93,7.93,0,0,0-.46,2.85,5.3521,5.3521,0,0,0-5.1489,1.8388c-2.1147,2.5745-9.5689,24.0895-14.99,53.6038a4.1379,4.1379,0,0,0,2.8536,4.7811c3.5859,1.1033,9.8381,2.5745,7.8153,10.9414s-7.8153,33.0081-9.1944,35.8584S253.9277,85.36,263.398,89.4971" style="fill:none;stroke:#a7abae;stroke-miterlimit:10"/><path d="M254.8258,19.2677l-3.4044,18.2846a14.3231,14.3231,0,0,0,1.7022,9.6663" style="fill:none;stroke:#a7abae;stroke-miterlimit:10"/><path d="M206.4243,29.8165c.1311,4.7207.0306,9.6065.0306,9.6065-.494,4.9929,1.2645,11.1392,4.3081,10.3216s7.3637-2.0855,9.7075-2.7073,2.135-5.5721-2.0178-14.0005l.0166-5.6a1.4473,1.4473,0,0,0-1.822-1.4023l-9.2487,2.4784A1.3136,1.3136,0,0,0,206.4243,29.8165Z" style="fill:#fff;stroke:#a7abae;stroke-miterlimit:10;stroke-width:1.25px"/><path d="M206.4344,30.2018c.0161-1.4753,1.0078-2.2417.746.2132-.0909.852.3115,5.0691.3115,5.0691,4.3688,9.4148,3.9131,16.9253.8692,13.2884" style="fill:none;stroke:#a7abae;stroke-miterlimit:10;stroke-width:0.5px"/><line x1="207.4919" y1="35.4841" x2="218.4527" y2="33.0368" style="fill:none;stroke:#a7abae;stroke-miterlimit:10;stroke-width:0.5px"/><path d="M325.5629,181.3929c-2.4928,1.1179-5.022,2.2-7.4848,3.3472a6.0715,6.0715,0,0,0-2.7944,2.7678,41.004,41.004,0,0,0-.8947,6.0379c-.4752,3.089,1.3616,2.8168,3.504,1.6451l7.4213-3.5078,14.8715-6.9555,14.917-6.8577a4.3426,4.3426,0,0,0,2.0529-3.7755,7.3844,7.3844,0,0,0-.059-1.5153,7.4093,7.4093,0,0,1,.1006,1.5168,4.422,4.422,0,0,1-2.0242,3.9243c-7.3723,3.561-22.2357,10.6314-29.649,14.099l-7.4381,3.47c-2.3748,1.3367-4.6567,1.3756-4.0857-2.0846a41.0394,41.0394,0,0,1,1.0076-6.1071,6.1948,6.1948,0,0,1,2.9658-2.8542c2.5259-1.0956,5.06-2.0973,7.5892-3.1506Z" style="fill:#a7abae"/><path d="M253.7311,164.6061s.8317,14.8281,1.2234,17.9619,1.7628,5.778,4.0152,6.6594,6.4634,2.0565,6.4634,2.0565l-1.5881-23.7247" style="fill:none;stroke:#a7abae;stroke-miterlimit:10"/><path d="M277.7725,172.5791c0,.2938,3.8193,28.5959,7.1489,40.7393" style="fill:none;stroke:#a7abae;stroke-miterlimit:10;stroke-width:0.5px"/><path d="M403.7361,196.2488c-7.95-2.0725-20.08-5.4893-28.1062-7.7748a19.11,19.11,0,0,0-10.81-.8295,15.4161,15.4161,0,0,0-3.37,1.3981c-4.3612,2.2976-8.6807,4.6894-13.0044,7.0665l-25.9373,14.2834a7.3917,7.3917,0,0,0-4.682,8.0959c.21,3.3949,1.2668,6.9848.0421,10.3013-1.3635,3.3161-4.9158,4.8216-7.6145,6.8624q-4.3029,2.8679-8.7122,5.5664,4.36-2.7762,8.6244-5.6956c2.61-2.0406,6.14-3.62,7.4493-6.8311,1.1808-3.2826.1092-6.8038-.113-10.1745a7.7621,7.7621,0,0,1,4.8219-8.4557c8.6224-4.8047,17.2223-9.65,25.8967-14.3624,4.3379-2.3558,8.6665-4.7236,13.05-7.0041a15.81,15.81,0,0,1,3.4573-1.4109,19.4376,19.4376,0,0,1,11.019.898c7.9287,2.3081,20.0635,5.852,27.9892,8.0666Z" style="fill:#a7abae"/><path d="M373.7233,171.2924c2.7352,1.7962,5.0418,3.7245,1.5834,5.3857s-62.88,32.7806-65.0571,33.9332a19.4724,19.4724,0,0,0-5.8909,4.4822c-1.7929,2.049-6.6593,9.9889-8.58,11.5257,0,0-3.7139-.7684-5.891-1.2806l-27.3866,13.8308a5.8783,5.8783,0,0,1-5.5257.8965c-3.0735-1.1526-33.6808-12.2941-33.6808-12.2941s.7684-9.3487,6.019-11.91,11.5258-5.3787,11.5258-5.3787l18.7429,6.2751v2.049l-9.65,4.9945a4.3738,4.3738,0,0,0-2.8174,2.5613l-3.33-.8965a19.7668,19.7668,0,0,0-1.0245,6.5313l10.971,4.2261s4.95-4.7384,2.1763-7.3V227.26l26.5215-13.4705" style="fill:none;stroke:#a7abae;stroke-miterlimit:10"/><path d="M246.9986,226.3325a15.5,15.5,0,0,0-.3933,4.1956l8.9751,3.4565" style="fill:none;stroke:#a7abae;stroke-miterlimit:10"/><path d="M230.4142,215.3286c4.4405,1.3349,10.1977,3.2776,14.604,4.8273,1.615.75,3.2408.2307,4.7116-.5911q3.0795-1.4832,6.2-2.8847-2.9947,1.6525-6.0276,3.2288a5.38,5.38,0,0,1-5.0407.6982c-4.4254-1.5242-10.1249-3.5635-14.447-5.2785Z" style="fill:#a7abae"/><path d="M226.8059,219.305a137.906,137.906,0,0,1,15.7493,5.5621,137.8868,137.8868,0,0,1-15.7493-5.5621Z" style="fill:#a7abae"/><path d="M259.5821,239.304c-.4292-3.8884-1.7421-9.99,2.9444-11.7828,4.6025-2.14,10.5873-4.8427,15.2459-6.77-4.478,2.285-10.4339,5.0946-15.04,7.2a6.0387,6.0387,0,0,0-1.5558.8669c-2.5673,2.7062-1.672,7.062-1.5949,10.4858Z" style="fill:#a7abae"/><path d="M276.4911,218.04a7.68,7.68,0,0,1,2.6449,3.8864c.1068.28.2591.526.4371.5412a5.8257,5.8257,0,0,0,1.6538-.5846c1.9625-.8872,4.7425-2.4423,6.6872-3.4607,1.1015-.83.2841-2.3478-.6112-3.0937,1.0729.6905,2.0423,2.3606.7638,3.3593a55.4561,55.4561,0,0,1-6.6659,3.6285c-.695.2048-1.8206,1.064-2.4162.221a10.2424,10.2424,0,0,0-2.4935-4.4974Z" style="fill:#a7abae"/><path d="M289.99,223.9922a36.7275,36.7275,0,0,1,0-8.6636,36.7222,36.7222,0,0,1,0,8.6636Z" style="fill:#a7abae"/><path d="M257.2271,220.0262v2.1546a1.4109,1.4109,0,0,1-1.7564,1.368l-3.3944-.8569" style="fill:none;stroke:#a7abae;stroke-miterlimit:10"/><path d="M89.0658,180.1269c-2.3139-.9656-23.5849-9.7517-29.3776-12.106a2.0041,2.0041,0,0,1-1.1956-2.3555c.6382-2.4632,2.2264-6.85,5.6531-8.2329,3.6719-1.4817,7.8785-3.0623,9.7121-3.7452a2.6606,2.6606,0,0,1,1.8709.0056l15.6223,5.8935-.1034,1.76-8.94,3.8481a3.95,3.95,0,0,0-2.6658,2.0709l-2.9524-.9222a16.3814,16.3814,0,0,0-1.2521,5.5624l9.6637,4.1311s4.6961-3.843,2.3279-6.17l.084-1.43,71.0188-27.9589" style="fill:none;stroke:#a7abae;stroke-miterlimit:10"/><path d="M79.5388,167.2336a12.78,12.78,0,0,0-.5659,3.5853l7.9057,3.379" style="fill:none;stroke:#a7abae;stroke-miterlimit:10"/><path d="M65.1636,157.0248c4.3523,1.4645,8.6522,3.1061,12.9226,4.7866a4.42,4.42,0,0,0,1.4053.3824,5.8751,5.8751,0,0,0,2.8445-.6741c1.9011-.7445,3.8052-1.4817,5.7306-2.1675-1.8458.8777-3.7131,1.7039-5.5833,2.5228a5.8541,5.8541,0,0,1-3.0281.7724,4.8992,4.8992,0,0,1-1.5427-.3909c-4.28-1.6563-8.5548-3.3609-12.7489-5.2317Z" style="fill:#a7abae"/><path d="M61.7143,160.2749a109.0361,109.0361,0,0,1,13.8981,5.497,109.0241,109.0241,0,0,1-13.8981-5.497Z" style="fill:#a7abae"/><path d="M90.2127,178.9493c-.1849-3.1421-.9149-7.5153,2.1424-9.5435,3.1622-1.2776,6.2925-2.4234,9.44-3.6416,9.4158-3.5424,28.3864-10.6734,37.8042-14.2082,6.2945-2.3836,12.6224-4.6794,18.9317-7.0233-6.2787,2.4251-12.5386,4.8982-18.832,7.2835-9.4065,3.5968-28.318,10.8176-37.7235,14.4054-3.1365,1.1885-6.3314,2.3548-9.42,3.5617-2.9049,1.8619-2.2056,6.1562-2.343,9.166Z" style="fill:#a7abae"/><path d="M89.0658,162.2853l-.1088,1.85a1.2705,1.2705,0,0,1-1.65,1.0946l-3.0127-.8912" style="fill:none;stroke:#a7abae;stroke-miterlimit:10"/><path d="M262.5008,208.5183c-2.0437.8681-4.06,2.0194-6.324,2.1466-4.504-.1369-8.4238-2.9762-12.8972-3.4355-4.537-.9029-8.7889.54-12.6307,2.93-3.7837,2.2369-8.1576,3.8577-11.053,7.2832-2.6434,3.1044-4.8244,8.6625-.6806,11.46,5.4729,3.661,12.3143,5.3059,18.4049,7.7884l25.1806,9.1952c-6.3309-2.1666-19.0068-6.6049-25.2941-8.8831-4.203-1.5184-8.4072-3.027-12.58-4.6424-2.9915-1.31-6.6789-2.55-8.1693-5.7467-1.73-5.4964,3.511-11.3636,8.124-13.5763,3.99-2.0275,7.6867-4.6894,12.03-5.9428a16.6881,16.6881,0,0,1,6.7141-.1523,33.252,33.252,0,0,1,6.4606,1.8367c2.0841.7637,4.1414,1.81,6.3868,1.7634,2.2395-.0842,4.2841-1.2,6.3283-2.025Z" style="fill:#a7abae"/><path d="M182.2654,205.855c10.7519,3.6232,22.46,7.9454,32.9845,12.1849-10.7528-3.62-22.4593-7.948-32.9845-12.1849Z" style="fill:#a7abae"/><path d="M173.34,211.4653c1.8584-.3235,2.815-1.7637,3.7355-3.26a21.1587,21.1587,0,0,1,5.5172-5.661c5.1853-2.9072,10.9683-5.6619,16.2979-8.2142,2.2444-1.1738,1.3871-2.3269-.5531-3.1162a24.0463,24.0463,0,0,0-4.9031-1.6929,24.692,24.692,0,0,1,6.19,2.0431,2.0986,2.0986,0,0,1,.9954.9868c.3559,1.0619-.6793,1.82-1.4313,2.3022-4.4135,2.469-9.3133,4.99-13.833,7.27a20.4845,20.4845,0,0,0-7.8631,6.3944l-.8016,1.0168a4.5287,4.5287,0,0,1-3.35,1.9313Z" style="fill:#a7abae"/><path d="M163.3725,177.945c-6.4582,2.744-15.98,6.635-22.45,9.2746a9.5835,9.5835,0,0,0-3.8875,2.6442c-1.9269,2.4159-2.1955,6.3612.0908,8.6007,2.2766,2.2491,5.6936,2.8988,8.5929,4.0948,4.5566,1.6265,13.7542,4.8507,18.332,6.4159l4.5816,1.6105a9.3662,9.3662,0,0,0,4.7073.88,9.4243,9.4243,0,0,1-4.7463-.7637l-4.6212-1.4946-9.2077-3.093c-3.2175-1.1439-10.6759-3.6131-13.7572-4.8183-5.55-1.6572-7.8714-6.8631-4.29-11.6988,1.8441-2.353,5.9762-3.3638,8.5887-4.5256,4.4881-1.8032,13.5523-5.39,18.0667-7.1263Z" style="fill:#a7abae"/><path d="M188.8905,199.742c-2.0323-1.2442-3.2849-2.6012-1.1972-4.2713s2.0879-2.0876,2.61-3.4446,1.67-3.2293,5.95-5.007,52.318-23.0833,52.318-23.0833" style="fill:none;stroke:#a7abae;stroke-miterlimit:10"/><path d="M158.1236,136.7853a399.6157,399.6157,0,0,0,6.3057,40.1088,3.2063,3.2063,0,0,0,2.1519,2.35,105.8451,105.8451,0,0,0,13.049,3.4476,3.1516,3.1516,0,0,0,1.8523-.2644l17.2752-8.0419-1.678-26.277" style="fill:none;stroke:#a7abae;stroke-miterlimit:10"/><path d="M159.6824,137.2355l2.6462,19.4054s.7307,2.5836,6.2629,3.1185L166.201,139.128" style="fill:none;stroke:#a7abae;stroke-miterlimit:10;stroke-width:0.5px"/><path d="M181.4825,182.4276c-1.8124-12.5641-3.5037-25.1964-3.9144-37.8948.11,1.5846.2556,3.1648.4233,4.7432,1.0724,10.517,2.51,22.6472,3.4911,33.1516Z" style="fill:#a7abae"/><path d="M86.4693,182.2479c1.736-.47,2.4835-2.2154,3.3624-3.6152a26.08,26.08,0,0,1,2.98-4.1982,10.8818,10.8818,0,0,1,4.2556-3.018l4.7762-1.798,9.5576-3.6306a92.118,92.118,0,0,1,9.7353-3.2893c3.36-.7357,6.71-1.2573,10.0032-2.0659,9.7782-2.8023,19.0494-7.3863,28.5431-11.0582-9.4114,4.0214-18.5922,8.6291-28.3593,11.754-3.2941.9587-6.69,1.5-9.9781,2.2612-2.8137.674-6.8181,2.3391-9.6056,3.31-3.3625,1.2215-11.1277,4.15-14.435,5.2031-3.2118,1.07-5.3465,3.9915-7.2066,6.7012-.94,1.3477-1.8527,3.1188-3.6286,3.4442Z" style="fill:#a7abae"/><path d="M86.8786,153.3173c-1.6461-.0087-3.2018.7647-4.8794.574-1.6638-.136-3.1779-.8649-4.7809-1.1462a16.3459,16.3459,0,0,0-9.5793.78c-3.0639,1.1518-6.0886,2.4188-9.0511,3.8052a10.4029,10.4029,0,0,0-3.9481,2.6956c-1.9775,2.3282-2.7244,6.2749-.7707,8.8011a11.3325,11.3325,0,0,0,3.89,2.7758C63.764,174.351,78.941,179.672,85.2906,182.16a2.1256,2.1256,0,0,0,1.1787.0875,2.14,2.14,0,0,1-1.1889-.06q-9.3037-3.1973-18.531-6.6105c-4.4264-1.899-9.7991-2.8657-13.2428-6.4589-2.15-2.7172-1.3588-6.9014.79-9.3872a10.83,10.83,0,0,1,4.1173-2.7731q4.4825-2.0522,9.1114-3.7412a16.5508,16.5508,0,0,1,9.7445-.7058c1.6221.3281,3.1166,1.0911,4.7406,1.2609,1.6363.2307,3.2195-.502,4.8684-.4548Z" style="fill:#a7abae"/><path d="M-43.8061,152.8956c15.7068-5.7877,21.28-5.6113,36.8034.4561C70.43,181.433,165.7556,216.2489,243.172,244.7559,165.52,216.6875,70.2843,181.9766-7.0906,153.5779c-15.4573-6.1573-21.0051-6.3575-36.7155-.6823Z" style="fill:#a7abae"/><line x1="17.1129" y1="123.0684" x2="-30.0229" y2="137.2091" style="fill:none;stroke:#a7abae;stroke-miterlimit:10;stroke-width:0.5px"/><path d="M14.2921,92.7646l-2.05,1.6295s-.9427.8641-.6285,3.6137,5.8134,28.0458,6.2848,30.0884a4.3287,4.3287,0,0,0,2.8281,2.8281c2.2783.7071,10.4485,2.6711,10.4485,2.6711a17.0179,17.0179,0,0,0,8.013-.6285c4.0851-1.4141,12.6481-4.2422,12.6481-4.2422a3.0014,3.0014,0,0,0,1.8069-2.4354c.0786-1.7283,0-6.7561,0-6.7561s-.2357-2.6711,2.0426-3.5352,8.17-2.7092,8.17-2.7092,1.3077-.573,1.3077-1.6815v-3.23" style="fill:none;stroke:#a7abae;stroke-miterlimit:10"/><path d="M35.1816,133.813c-2.3882-10.3163-4.668-21.7472-6.4119-32.1914,2.3916,10.32,4.6646,21.7429,6.4119,32.1914Z" style="fill:#a7abae"/><path d="M12.2422,94.3941c-.5981,1.5826-.6962,2.8229,4.4046,3.9741a1.71,1.71,0,0,1,1.305,1.3488c.4871,2.5941,1.7,9.0765,2.3488,12.751a2.5521,2.5521,0,0,0,1.968,2.0546c.87.19,1.97.4266,3.032.6447a1.2527,1.2527,0,0,0,1.4849-1.4527L24.6721,102.176a2.6976,2.6976,0,0,1,1.2752-2.8036A28.4916,28.4916,0,0,1,29.6942,97.42" style="fill:none;stroke:#a7abae;stroke-miterlimit:10;stroke-width:0.5px"/><path d="M85.2547,114.6136l-3.79,3.099a5.14,5.14,0,0,0-1.3469,4.0167c.298,2.3839,5.53,28.5108,5.6855,29.3333s4.6485,2.9917,10.6319,3.9691c5.9835.9654,11.216,1.12,17.0564-1.2039,4.279-1.6925,30.0722-12.0622,43.5648-17.4855" style="fill:none;stroke:#a7abae;stroke-miterlimit:10"/><path d="M81.4644,117.7126s-1.2677,1.9906,1.4606,2.3648l1.83,11.45a2.93,2.93,0,0,0,1.9247,2.1279c1.5179.3417,3.642,1.0153,3.4406-1.08s-1.0547-9.43-1.0547-9.43a2.6993,2.6993,0,0,1,1.0547-2.5445l3.284.5238s2.2136.6478,5.0518-2.52" style="fill:none;stroke:#a7abae;stroke-miterlimit:10;stroke-width:0.5px"/><path d="M95.981,122.0981a312.5168,312.5168,0,0,1,5.8376,31.2078c-1.7431-9.0194-4.3694-22.2637-5.8376-31.2078Z" style="fill:#a7abae"/><path d="M18.36,157.0248c4.3414.4917,4.0487-3.87,6.414-6.3,2.4233-2.4539,5.8957-3,8.9906-4.13l9.3234-2.8845c1.59-.5858,2.1454-2.1926.579-3.2648a12.322,12.322,0,0,0-4.4946-1.6923c2.03.2992,6.1747.8038,5.9464,3.6221a2.9322,2.9322,0,0,1-1.7782,1.9445c-3.0776,1.23-6.1708,2.19-9.2725,3.2153l-4.6376,1.5262a10.4788,10.4788,0,0,0-4.0843,2.226c-2.3657,2.2271-2.561,6.7757-6.9862,5.7373Z" style="fill:#a7abae"/><path d="M36.9394,146.096V142.08a5.6162,5.6162,0,0,1,3.85-5.3975c2.93-1.1619,39.7556-12.4773,39.7556-12.4773" style="fill:none;stroke:#a7abae;stroke-miterlimit:10"/><path d="M22.4438,131.4084,1.64,137.9957a12.5852,12.5852,0,0,0-5.1526,8.84l20.1052,7.1227a8.5959,8.5959,0,0,0,6.5456,0" style="fill:none;stroke:#a7abae;stroke-miterlimit:10"/><path d="M25.02,132.4692,4.2158,139.0565a2.4146,2.4146,0,0,0-1.4145,1.4217s-1.667-.4619-2.2227.4474-1.01,4.6475-1.01,4.6475l1.4144.5229v2.3456" style="fill:none;stroke:#a7abae;stroke-miterlimit:10;stroke-width:0.5px"/><path d="M6.381,150.3411v-2.425l2.7853-4.2626L7.7736,143.02s.2813-1.337,2.403-2.1957,20.9985-7.2292,20.9985-7.2292" style="fill:none;stroke:#a7abae;stroke-miterlimit:10;stroke-width:0.5px"/><path d="M19.3678,154.6011s-.0984-6.0627,3.3872-8.5051" style="fill:none;stroke:#a7abae;stroke-miterlimit:10;stroke-width:0.5px"/><path d="M11.55,140.4554l11.5881,3.6527A2.5423,2.5423,0,0,1,25.02,146.525L35.1816,143.02a2.119,2.119,0,0,0-1.3132-2.5421c-1.8185-.7144-11.8322-3.7828-11.8322-3.7828" style="fill:none;stroke:#a7abae;stroke-miterlimit:10;stroke-width:0.5px"/><path d="M-.4317,145.5731c.9093-.2526,8.2053-2.5528,8.2053-2.5528" style="fill:none;stroke:#a7abae;stroke-miterlimit:10;stroke-width:0.5px"/><path d="M169.9352,180.7054l-21.287,7.8685c-2.4281,2.0651-4.2576,6.6708-4.0459,10.3907l-.333-.4644q8.4447,2.8759,16.8455,5.8772c4.0172,1.2886,8.3695,3.5876,12.6328,3.5648a11.77,11.77,0,0,0,4.22-.681l.1448.2512c-5.16,3.5662-12.1421-.5444-17.3865-2.0618q-8.4113-2.958-16.79-6.0075l-.3368-.119c-.0824-4.2833,1.2258-8.9336,4.7021-11.6882l21.2869-7.8684.3468.9379Z" style="fill:#a7abae"/><path d="M174.0333,181.0655,151.5671,189.37a2.3749,2.3749,0,0,0-1.3665,1.7547s-1.9638-.5441-2.4426.5739-.3757,5.692-.3757,5.692l1.6878.6217.3877,2.8666" style="fill:none;stroke:#a7abae;stroke-miterlimit:10;stroke-width:0.5px"/><path d="M155.8838,203.1342l-.4009-2.9635,2.4491-5.2434-1.6815-.7568s.0975-1.6373,2.3578-2.7127,22.58-9.0912,22.58-9.0912" style="fill:none;stroke:#a7abae;stroke-miterlimit:10;stroke-width:0.5px"/><path d="M171.2918,208.1817s-1.1135-7.4079,2.4292-10.4355" style="fill:none;stroke:#a7abae;stroke-miterlimit:10;stroke-width:0.5px"/><path d="M160.1018,190.99l13.724,4.3223a3.5647,3.5647,0,0,1,2.5307,2.9307l10.9258-4.4072a3.008,3.008,0,0,0-1.907-3.0906c-2.1771-.8509-14.0219-4.4783-14.0219-4.4783" style="fill:none;stroke:#a7abae;stroke-miterlimit:10;stroke-width:0.5px"/><path d="M147.3823,197.3905c.9877-.32,8.8682-3.22,8.8682-3.22" style="fill:none;stroke:#a7abae;stroke-miterlimit:10;stroke-width:0.5px"/><line x1="198.3717" y1="168.3411" x2="226.0323" y2="156.5361" style="fill:none;stroke:#a7abae;stroke-miterlimit:10"/><line x1="53.6767" y1="123.0684" x2="83.0089" y2="113.9151" style="fill:none;stroke:#a7abae;stroke-miterlimit:10"/><g style="clip-path:url(#f32f26d2-642f-43f1-b49d-3030cc534110)"><path d="M233.8269,173.2469a16.9877,16.9877,0,0,1-4.9237-.7287L186.57,159.8016a3.3536,3.3536,0,0,1-.4668-6.2424L207.4626,143.46a1.49,1.49,0,0,1,1.2734,2.6935l-21.3592,10.0987a.3746.3746,0,0,0,.0524.6961l42.3331,12.7166a14.0291,14.0291,0,0,0,9.916-.6786l22.5173-10.3432a1.49,1.49,0,1,1,1.2431,2.7074l-22.5173,10.3432A16.9874,16.9874,0,0,1,233.8269,173.2469Z" style="fill:#f2a900;stroke:#141b21;stroke-miterlimit:10"/></g><g style="clip-path:url(#ffb781e0-37fc-44f0-a783-8a0bac168fc5)"><path d="M65.3514,119.7372a12.81,12.81,0,0,1-3.7131-.5494l-30.95-9.2968a2.8524,2.8524,0,0,1-.3958-5.31L45.907,97.1978A1.49,1.49,0,1,1,47.18,99.8912l-14.4446,6.83a.37.37,0,0,0,.0517.6892l29.71,8.9241a9.8413,9.8413,0,0,0,6.9665-.4773l16.4623-7.5612a1.49,1.49,0,1,1,1.2431,2.7074l-16.4623,7.5613A12.82,12.82,0,0,1,65.3514,119.7372Z" style="fill:#f2a900;stroke:#141b21;stroke-miterlimit:10"/></g></g><g id="b17d63c4-5746-49f3-be18-9a42ec1da1e5" data-name="annotations"><polygon points="216.35 171.562 198.958 180.379 205.124 183.039 183.394 183.428 182.474 173.268 188.641 175.928 203.719 168.285 216.35 171.562" style="fill:#f2a900;stroke:#fff;stroke-miterlimit:10;stroke-width:1.5px"/><polygon points="146.115 175.796 145.603 170.15 145.5 169.009 145.5 169.009 145.195 165.636 123.464 166.024 129.505 168.63 113.555 175.928 107.388 173.268 108.308 183.428 130.038 183.039 123.871 180.379 139.822 173.081 146.115 175.796" style="fill:#f2a900;stroke:#fff;stroke-miterlimit:10;stroke-width:1.5px"/><polygon points="50.785 119.345 34.763 127.467 40.444 129.917 20.426 130.276 19.579 120.916 25.259 123.367 39.149 116.326 50.785 119.345" style="fill:#f2a900;stroke:#fff;stroke-miterlimit:10;stroke-width:1.5px"/></g></svg>