<svg xmlns="http://www.w3.org/2000/svg" xmlns:xlink="http://www.w3.org/1999/xlink" width="325" height="325" viewBox="0 0 325 325"><defs><linearGradient id="f824a9c5-41ca-493e-930a-eb1048309caf" x1="310.3535" y1="51.5962" x2="320.2143" y2="45.8008" gradientUnits="userSpaceOnUse"><stop offset="0" stop-color="#fff"/><stop offset="1" stop-color="#fff" stop-opacity="0"/></linearGradient></defs><g id="a23c7ee7-6fbd-4f15-ab9c-4944ec3db1d8" data-name="illustration"><path d="M287.1952,6.2357c3.1987,6.3357,6.154,12.7874,8.93,19.3122,2.8338,6.5032,5.2269,13.1821,7.5832,19.8727,2.4,6.6757,4.6288,13.4269,6.7362,20.1909q3.1721,10.1527,6.1157,20.3706a1.1183,1.1183,0,0,1-.0147.664l-.4779,1.4335-.1311-.98,1.1946,1.792a1.1448,1.1448,0,0,1,.1737.4392c.4489,2.7549.85,5.4992,1.2089,8.2625.3526,2.7633.6675,5.5318.8358,8.3478a1.1436,1.1436,0,0,1-.0821.4885l-1.0752,2.6283-.2146-1.1889,1.4336,1.5531a1.1253,1.1253,0,0,1,.2936.6589,168.4538,168.4538,0,0,1,.1865,32.5384,178.2751,178.2751,0,0,1-6.3192,31.9179l-.59-1.3244c1.527.7436,3.0612,1.4652,4.6081,2.2634a19.5318,19.5318,0,0,1,2.3274,1.3724,6.5529,6.5529,0,0,1,2.0714,2.2134,8.2379,8.2379,0,0,1,.8321,2.8233c.1147.9029.1705,1.7689.2171,2.6351a25.306,25.306,0,0,1-1.3752,10.44L320.077,199.83c-1.0826,3.2379-2.2081,6.47-3.4981,9.6586a42.8508,42.8508,0,0,1-4.8121,9.2883,25.8922,25.8922,0,0,1-8.0127,6.9174c-6.0481,3.3193-12.1708,6.2594-18.4134,9.0513-12.4667,5.5669-25.2471,10.37-38.1507,14.7506a163.7744,163.7744,0,0,1-40.05,8.6508c-3.41.3192-6.8336.4976-10.26.5795-3.4316.0977-6.86-.0119-10.2494-.0457l-20.4037-.2981L125.42,257.786c-13.6028-.1771-27.2042-.4459-40.8081-.5478-3.4012-.0163-6.8008-.1316-10.2012-.1925l-10.1972-.4679c-6.798-.3237-13.5966-.6127-20.3926-1.1091l20.4083.0423,10.2042.03,10.2024.149,40.81.5963,40.81.5962,20.4049.2982c3.4043.0342,6.7967.1426,10.1867.0458,3.3908-.0811,6.7813-.2576,10.16-.574a162.2567,162.2567,0,0,0,39.7008-8.577c12.8731-4.37,25.6113-9.1582,38.0211-14.7,6.1981-2.77,12.339-5.7233,18.2745-8.98a24.3879,24.3879,0,0,0,7.559-6.5127,41.5,41.5,0,0,0,4.6263-8.9573c1.2709-3.1413,2.3886-6.3489,3.4655-9.57l1.5782-4.8447a23.84,23.84,0,0,0,1.3081-9.9141,12.3527,12.3527,0,0,0-.8682-4.8164c-.7524-1.3755-2.3041-2.1922-3.7752-2.9736-1.4994-.7739-3.04-1.4993-4.57-2.2439a.3761.3761,0,0,1-.1966-.4416,176.7818,176.7818,0,0,0,6.2673-31.6469,166.9565,166.9565,0,0,0-.1871-32.2537l.0977.2193-1.4336-1.553a.3756.3756,0,0,1-.0715-.3965l1.0752-2.6283-.0273.1626c-.3561-5.4984-1.1624-10.99-2.0266-16.4468l.0578.1462-1.1946-1.792a.3783.3783,0,0,1-.0438-.3268l.4779-1.4335-.0049.221Q312.1846,76.194,309.0126,66.06c-2.1079-6.7572-4.3182-13.475-6.7213-20.13-2.381-6.6632-4.9335-13.2641-7.4454-19.8808l-3.7928-9.9172Z" style="fill:#a7abae"/><path d="M46.8057,238.1862c-.1979,4.0194-.6142,8.0188-1.2071,11.9921-.5914,3.9729-1.3332,7.9264-2.2981,11.8282a121.4294,121.4294,0,0,1-7.9022,22.7606A92.27,92.27,0,0,1,22.482,305.1217,56.6935,56.6935,0,0,1,3.6764,320a91.6016,91.6016,0,0,0,17.6144-15.8829,90.6035,90.6035,0,0,0,12.4778-20.1077,124.7609,124.7609,0,0,0,7.7811-22.432,136.4152,136.4152,0,0,0,3.7582-23.4718Z" style="fill:#a7abae"/><path d="M3.8083,149.9166a136.6,136.6,0,0,1,11.5,28.8976l4.4206,14.89c1.4673,4.9638,2.9434,9.9238,4.5062,14.8487q1.18,3.691,2.4075,7.3632a53.5965,53.5965,0,0,0,2.7792,7.1227,29.0751,29.0751,0,0,0,4.1719,6.2821A27.0987,27.0987,0,0,0,39.31,234.22a36.0423,36.0423,0,0,0,6.8691,3.273l7.2373,2.8262c4.8186,1.9,9.6045,3.8867,14.2657,6.19-5.0053-1.4148-9.886-3.1462-14.734-4.964l-7.2626-2.7507a37.5192,37.5192,0,0,1-7.16-3.3291,28.6112,28.6112,0,0,1-6.0923-5.1148,30.6692,30.6692,0,0,1-4.4666-6.575,55.1933,55.1933,0,0,1-2.9419-7.3037q-1.2911-3.6747-2.4525-7.3919c-3.1137-9.9015-5.931-19.866-8.7786-29.8253C11.0222,169.2937,7.5421,159.5984,3.8083,149.9166Z" style="fill:#a7abae"/><path d="M5.3879,123.0067c5.0487,5.3194,8.5691,11.877,11.7485,18.4026,3.2183,6.5384,6.2687,13.1509,9.2768,19.78l4.4745,9.9653c.73,1.6671,1.4279,3.3443,2.27,4.9133a10.1,10.1,0,0,0,3.3038,3.9249,8.7552,8.7552,0,0,0,4.9471,1.1327,42.8208,42.8208,0,0,0,5.3384-.681q5.3849-.8673,10.7567-1.81c7.1627-1.2565,14.3006-2.6438,21.4305-4.091,3.5608-.7431,7.15-1.3946,10.6539-2.2567a101.1983,101.1983,0,0,0,10.3579-3.2363c6.7992-2.5195,13.47-5.4393,20.18-8.2549,3.3528-1.4151,6.7023-2.8365,10.0792-4.2119a108.8822,108.8822,0,0,1,10.3183-3.7263,52.8772,52.8772,0,0,1,10.8407-1.9377c3.66-.2874,7.3183-.2876,10.9638-.23,7.2942.1328,14.5668.5251,21.836.9773q21.804,1.3942,43.5173,3.88c14.4652,1.6955,28.8992,3.7415,43.2095,6.5113,7.1539,1.3848,14.2752,2.9562,21.3263,4.8179q5.2921,1.38,10.5079,3.0516a95.8207,95.8207,0,0,1,10.288,3.8493l-.4435.8963a95.3173,95.3173,0,0,0-10.1588-3.7652q-5.1856-1.6459-10.4631-3.0077c-7.0267-1.8349-14.13-3.3824-21.2684-4.744-14.278-2.7259-28.6931-4.7219-43.1391-6.3855q-21.6708-2.5012-43.452-3.9156c-7.2557-.4583-14.5206-.8567-21.7791-.9955-7.2476-.1407-14.5456.0288-21.4668,2.1023a107.8658,107.8658,0,0,0-10.2087,3.6776c-3.3641,1.3665-6.7153,2.7849-10.0683,4.1963-6.7121,2.8089-13.3844,5.7231-20.2376,8.2556A102.2936,102.2936,0,0,1,89.854,173.353c-3.565.8729-7.1415,1.5173-10.7044,2.2575-7.135,1.4414-14.2868,2.8244-21.4613,4.0761q-5.38.9416-10.7739,1.8027a43.58,43.58,0,0,1-5.4816.6889,9.7915,9.7915,0,0,1-5.5295-1.2986A11.1073,11.1073,0,0,1,32.24,176.563c-.8773-1.64-1.5754-3.33-2.3037-4.9946l-4.4587-9.9551c-3-6.627-6.0407-13.2353-9.244-19.7587A144.7989,144.7989,0,0,0,5.3879,123.0067Z" style="fill:#a7abae"/><polyline points="14.074 177.394 21.646 176.78 30.406 177.021 33.17 177.147" style="fill:none;stroke:#a7abae;stroke-linecap:round;stroke-linejoin:round"/><path d="M150.2641,151.457c1.3038-7.2513,2.6529-14.49,3.8388-21.7523,1.1891-7.261,2.2011-14.5484,2.92-21.8668a352.5433,352.5433,0,0,0,1.324-44.0816l.1317.3246L155.93,61.31a.5006.5006,0,0,1-.0437-.6226l2.2169-3.2144-.088.3026-.7759-20.5065.2222.397-2.66-1.7735a.5.5,0,0,1-.1387-.6935l.0236-.0325,1.6626-2.1059-.1057.3527-1.5518-17.957.3969.4465a42.94,42.94,0,0,0-8.313-.412c-2.8022.0741-5.6067.259-8.407.4935-5.6.4785-11.1924,1.1535-16.7408,2.0285h0a.28.28,0,0,1-.5593.0225l-.0192-.4766L120.53,4.7045,122.0454,17.48l-.5783-.454h0q8.3755-1.3206,16.8164-2.0377c2.8146-.2357,5.6351-.4219,8.4661-.4968a43.6708,43.6708,0,0,1,8.5405.4324.4818.4818,0,0,1,.396.4323l.0011.0144,1.5518,17.957a.501.501,0,0,1-.1057.353l-1.6626,2.106-.1151-.7257,2.66,1.7734a.5049.5049,0,0,1,.2224.3973l.7759,20.5065a.4986.4986,0,0,1-.0881.3029l-2.2168,3.2144-.0437-.6222,2.5494,2.771a.501.501,0,0,1,.1319.3249,353.5427,353.5427,0,0,1-1.3284,44.2072c-.7216,7.343-1.7371,14.6542-2.9285,21.93-1.1885,7.2771-2.5385,14.521-3.8416,21.7682Z" style="fill:#a7abae"/><path d="M158.8284,89.4045c7.936,1.24,15.8449,2.6373,23.7323,4.1426,7.8805,1.5381,15.7521,3.1235,23.5886,4.8681q23.514,5.2169,46.8385,11.2276a.571.571,0,0,1,.2146.1094l2.2134,1.82,1.1068.91a4.16,4.16,0,0,0,1.0452.7275,8.6991,8.6991,0,0,0,1.2834.3468l1.3949.327c.1259.0222.1052.0248.2063-.0424l.5659-.4392,1.1318-.8785a.5581.5581,0,0,1,.5017-.0918l33.0223,10.23-.0355-.01,17.1772,4.0072.0088.002a.4339.4339,0,0,1,.0691.0229,19.6943,19.6943,0,0,1,3.5611,2.0288,15.8007,15.8007,0,0,1,2.9871,2.7591c-.5838-.3507-1.1315-.7306-1.7136-1.061-.5679-.3476-1.1382-.6856-1.7162-1.007a38.2987,38.2987,0,0,0-3.5-1.794l.0775.0248-17.185-3.9737-.0358-.01-33.0421-10.1657.5013-.0917-1.13.8808-.565.44a1.3,1.3,0,0,1-1.1384.2481l-1.3956-.3242-.6978-.1621a4.1124,4.1124,0,0,1-.7785-.2458,5.2088,5.2088,0,0,1-1.3084-.8853l-1.1086-.9078-2.2169-1.8154.2142.1092q-23.298-5.9834-46.815-11.1253c-7.8379-1.6993-15.68-3.3773-23.5443-4.9442-7.8679-1.5477-15.756-2.9871-23.669-4.27Z" style="fill:#a7abae"/><path d="M317.1505,108.6325l-2.277-1.5826a20.4969,20.4969,0,0,0-5.4049-2.6758l-1.3581-.4381a31.55,31.55,0,0,1-4.6335-1.9167c-5.19-2.648-20.4607-9.8068-46.7521-17.1051-33.1433-9.2-68.7252-17.2921-76.3736-18.6223s-7.4985-1.872-11.3493-2.6877c-23.2362-4.9226-37.5032-4.5889-60.7394-2.67-8.3486.69-13.0418,1.2563-16.5335,1.478S85.91,61.47,82.418,59.364s-4.2122-4.2676-3.9351-7.4268a85.1427,85.1427,0,0,1,1.1639-8.48c.3325-1.4964,1.6627-2.7157,4.323-3.2145s16.0174-2.7158,20.0079-3.4363a87.0929,87.0929,0,0,1,11.75-1.1639c11.3895-.4988,22.8622-.7482,27.2684-.8314s12.2208,1.0808,17.4584,1.9953,60.6616,12.2744,98.4321,25.19C300.7034,76.2958,315,87.724,315,87.724" style="fill:none;stroke:#a7abae;stroke-linejoin:round"/><path d="M75.354,52.3782c.2268-2.693.5318-5.3781.99-8.049a8.9332,8.9332,0,0,1,.5244-2.0013,5.9448,5.9448,0,0,1,1.16-1.7454,8.8415,8.8415,0,0,1,3.5234-2.1466,23.1038,23.1038,0,0,1,3.9815-.9014l3.9918-.6851,7.9836-1.37,7.9911-1.3633c2.68-.4108,5.3806-.6462,8.0805-.7993,5.4-.2464,10.7975-.3506,16.1964-.5329l8.0976-.2458c2.6958-.0428,5.3993-.2752,8.1162-.0671a149.243,149.243,0,0,1,16.0706,2.207c10.5974,2.1123,21.1405,4.4585,31.6592,6.9165q15.7748,3.6971,31.4329,7.875c10.4291,2.8131,20.8125,5.8123,31.0671,9.2214,10.2422,3.4371,20.3887,7.18,30.31,11.47q7.45,3.194,14.6708,6.8962c2.41,1.2239,4.7742,2.5381,7.1186,3.8858A40.2962,40.2962,0,0,1,315,85.5367a191.4738,191.4738,0,0,0-28.6462-14.9692c-9.9068-4.2806-20.0449-8.0173-30.2768-11.4479-10.2431-3.4023-20.62-6.3968-31.0438-9.2054q-15.64-4.2032-31.42-7.8629c-10.5138-2.454-21.0577-4.7973-31.6434-6.9043a148.8355,148.8355,0,0,0-16.01-2.1949c-2.6758-.2056-5.3745.0261-8.0742.07l-8.094.2478c-5.3941.1835-10.7963.2894-16.1836.5367-2.69.1532-5.3749.3882-8.0336.7965l-7.9769,1.3631-7.9818,1.3719-3.991.686a22.71,22.71,0,0,0-3.9068.8825,8.7193,8.7193,0,0,0-3.3425,2.0094,5.4782,5.4782,0,0,0-1.0927,1.5926,8.5211,8.5211,0,0,0-.5237,1.9C76.23,47.0468,75.7969,49.7138,75.354,52.3782Z" style="fill:#a7abae"/><path d="M161.2856,88.8378c6.77.5838,13.5107,1.4479,20.2475,2.3263,6.7387.872,13.4515,1.9295,20.1586,3.015,13.4073,2.2134,26.7636,4.7491,40.0271,7.7126q19.8977,4.4349,39.413,10.4027c6.4817,2.0426,12.9375,4.183,19.265,6.6787,1.58.6293,3.1611,1.2543,4.7131,1.9526,1.5676.66,3.1033,1.3962,4.6327,2.1431,1.5091.7886,3.017,1.5845,4.4526,2.5061a15.0913,15.0913,0,0,1,3.8781,3.2939,8.73,8.73,0,0,0-1.9093-1.6579c-.68-.5011-1.4144-.927-2.1281-1.378-.7462-.4014-1.47-.8375-2.2191-1.2323l-2.2614-1.1555q-4.577-2.208-9.3208-4.0622c-6.313-2.4862-12.7613-4.62-19.2362-6.6572q-19.4785-5.9531-39.3827-10.373c-13.2545-2.9544-26.6035-5.4817-40.004-7.6869-6.7028-1.0889-13.4178-2.0977-20.1347-3.0984C174.7565,90.59,168.0239,89.7016,161.2856,88.8378Z" style="fill:#a7abae"/><path d="M170.68,66.2365c.3065,3.7343.424,7.4771.5574,11.2186a16.2945,16.2945,0,0,0,.2168,2.75,7.3666,7.3666,0,0,0,.9726,2.5216,9.1978,9.1978,0,0,0,4.1464,3.4361c3.36,1.56,7.159,1.8755,10.8168,2.6266l11.0377,2.063c14.7077,2.7985,29.3908,5.7355,44.0039,9.0054,7.3034,1.646,14.5943,3.3635,21.8141,5.365q10.8219,3.0083,21.5113,6.47c7.1177,2.3267,14.1923,4.791,21.16,7.5469,1.7408.6772,3.4705,1.4518,5.1747,2.1734a8.2456,8.2456,0,0,0,1.296.4192,1.2677,1.2677,0,0,0,1.142-.1734,2.0511,2.0511,0,0,0,.4973-1.1378,9.12,9.12,0,0,0,.1458-1.3617c.1075-3.7148-.1716-7.4563-.42-11.1885a59.5829,59.5829,0,0,1,.8555,11.21,9.52,9.52,0,0,1-.1531,1.4257,2.4344,2.4344,0,0,1-.6338,1.3782,1.69,1.69,0,0,1-1.52.2773,8.65,8.65,0,0,1-1.3717-.4409c-1.7418-.7366-3.4289-1.4923-5.1769-2.1719-6.9548-2.7474-14.025-5.2072-21.1362-7.5286q-10.6731-3.4668-21.4946-6.4552c-7.2081-1.9953-14.4944-3.7086-21.7941-5.3507-14.6062-3.2622-29.2869-6.1925-43.9919-8.9844l-11.0357-2.058-5.524-1.0121a23.2241,23.2241,0,0,1-5.4139-1.6484,9.69,9.69,0,0,1-4.3611-3.6249,7.8672,7.8672,0,0,1-1.0374-2.6845,16.7729,16.7729,0,0,1-.2274-2.8376C170.6659,73.7238,170.5784,69.9843,170.68,66.2365Z" style="fill:#a7abae"/><path d="M310.6686,167.8262a28.3813,28.3813,0,0,0-4.2582-2.1443c-.7251-.3256-1.4684-.61-2.2087-.9006-.7318-.31-1.4815-.5779-2.2262-.8572q-4.4795-1.6448-9.0584-3.0176c-6.1032-1.8221-12.282-3.4-18.5031-4.7854-12.4382-2.7955-25.0017-5.027-37.6139-6.8906-12.616-1.85-25.29-3.2987-37.9913-4.4306-12.7039-1.1194-25.4342-1.8571-38.1745-2.4935,12.7631.0436,25.5032.9629,38.2137,2.0478,12.71,1.126,25.393,2.5688,38.02,4.4141,12.6238,1.8587,25.1984,4.0854,37.6532,6.8779,6.23,1.3844,12.4195,2.9611,18.54,4.7848,3.0567.921,6.1011,1.8986,9.0751,3.0726,1.4935.5681,2.9669,1.1939,4.4028,1.8991A22.9746,22.9746,0,0,1,310.6686,167.8262Z" style="fill:#a7abae"/><path d="M149.557,143.2879a23.985,23.985,0,0,0-7.7339,1.1516,59.8924,59.8924,0,0,0-7.2693,2.9821L120.34,154.3022q-7.1373,3.3893-14.3917,6.5257c-4.8452,2.0667-9.7465,4.028-14.7839,5.6058A152.9517,152.9517,0,0,1,75.8,170.16q-7.7355,1.6025-15.5059,3.0247c-5.1793.9511-10.364,1.8724-15.5671,2.6969-1.3018.2008-2.6028.4061-3.9107.5773a8.5092,8.5092,0,0,1-3.99-.2294,8.9161,8.9161,0,0,1-5.3339-5.5984,9.2335,9.2335,0,0,0,5.4447,5.2471,8.11,8.11,0,0,0,3.8212.153l3.9-.5827c5.1958-.8268,10.3781-1.7512,15.5538-2.7052q7.7624-1.4406,15.4943-3.0331a152.5007,152.5007,0,0,0,15.317-3.7247c5.0126-1.5736,9.8988-3.5323,14.7346-5.5988q7.2454-3.124,14.3707-6.5266l14.2132-6.8892a50.2979,50.2979,0,0,1,7.3577-2.9375A20.4016,20.4016,0,0,1,149.557,143.2879Z" style="fill:#a7abae"/><path d="M160.6631,58.7146c6.7967.8,13.4545,2.385,20.1378,3.7686q10.018,2.1372,20.0114,4.3862c13.3247,2.9966,26.6239,6.1095,39.87,9.4441,6.622,1.6706,13.23,3.4,19.7974,5.2856,6.5513,1.9364,13.0836,3.9463,19.5233,6.2343,6.4389,2.2854,12.8126,4.764,19.0549,7.55q4.6854,2.08,9.2394,4.4457,2.277,1.18,4.5,2.4637a22.1992,22.1992,0,0,1,4.229,2.9065c-11.6877-7.0557-24.32-12.387-37.1734-16.94-6.431-2.2819-12.9561-4.2865-19.5-6.218-6.56-1.8807-13.1651-3.6061-19.7846-5.2731-13.2413-3.3275-26.5388-6.4342-39.8615-9.4245q-9.9916-2.2443-20.008-4.3766L170.6749,60.87C167.3322,60.1757,163.9784,59.5819,160.6631,58.7146Z" style="fill:#a7abae"/><path d="M160.6631,52.5741c6.7275.8093,13.313,2.4067,19.9237,3.8046q9.91,2.1559,19.7935,4.4275c13.18,3.022,26.3316,6.1669,39.4329,9.5181,6.5478,1.6866,13.0833,3.4247,19.5793,5.3106,6.4894,1.9072,12.9393,3.9529,19.3147,6.2167s12.6765,4.7393,18.8574,7.4953c3.0878,1.3826,6.1505,2.8253,9.1543,4.3867q2.2558,1.1645,4.4681,2.4134a24.604,24.604,0,0,1,4.2337,2.8072c-1.5573-.7-2.9821-1.592-4.4515-2.4233q-2.2035-1.2432-4.454-2.4032c-2.9954-1.5555-6.0516-2.9935-9.1334-4.3719-6.1689-2.7474-12.461-5.2174-18.8275-7.4739s-12.8094-4.298-19.2919-6.2c-6.4889-1.8808-13.0217-3.6153-19.567-5.2982-13.097-3.3441-26.2472-6.4827-39.4248-9.4982q-9.8828-2.2641-19.79-4.4179L170.5661,54.75C167.2591,54.052,163.9414,53.45,160.6631,52.5741Z" style="fill:#a7abae"/><path d="M79.5914,50.33c.1015.8492.073,1.6979.1728,2.4907a3.415,3.415,0,0,0,1.0424,2.0611,17.1879,17.1879,0,0,0,4.1577,2.6709,16.7319,16.7319,0,0,0,4.6229,1.7565,17.9828,17.9828,0,0,0,4.95-.0939c1.6639-.2038,3.3414-.3924,4.994-.6374l4.9785-.8053c1.6609-.2664,3.3585-.4538,5.0312-.5714l5.0323-.3843c6.7133-.4567,13.4445-.7974,20.1813-.7063q5.0513.0638,10.0921.4434a88.1156,88.1156,0,0,1,10.0154,1.2765c-3.3581-.2592-6.6978-.5968-10.0481-.8334q-5.0242-.36-10.0643-.3952c-6.7173-.0595-13.4318.3116-20.1344.7989l-5.0268.3892c-1.6826.114-3.3306.2917-4.9915.5525l-4.983.7917c-1.6748.2432-3.3406.4254-5.0151.6257a18.456,18.456,0,0,1-5.1018.0755,17.2045,17.2045,0,0,1-4.7679-1.8195,17.567,17.567,0,0,1-4.2832-2.78,3.7608,3.7608,0,0,1-1.1586-2.36A7.9778,7.9778,0,0,1,79.5914,50.33Z" style="fill:#a7abae"/><path d="M84.339,54.2975c5.8125-1.0536,11.676-1.8012,17.53-2.5867l4.3918-.5854c.7325-.0927,1.4629-.2062,2.1971-.2817l2.2072-.1809c2.9433-.2364,5.8884-.4586,8.8375-.6336,5.8978-.336,11.8126-.4992,17.7227-.3333a122.85,122.85,0,0,1,17.6363,1.6661c-5.8771-.5818-11.7525-1.0739-17.6481-1.1942-5.8937-.1294-11.7911.0693-17.6768.4407-2.9443.1646-5.8867.3765-8.8283.6027l-2.206.1733c-.7336.073-1.463.1839-2.1948.2739l-4.3872.57C96.0711,52.9987,90.2224,53.7413,84.339,54.2975Z" style="fill:#a7abae"/><path d="M155.189,15.4131A43.8919,43.8919,0,0,1,166.2532,18.52" style="fill:none;stroke:#a7abae;stroke-linejoin:round"/><path d="M164.2822,4.8015c.3,2.1912.7445,4.3568,1.1334,6.5325.3662,2.1732.88,4.3421,1.1042,6.5557l.3984,3.2924.3174,3.3012c.1927,2.2029.3442,4.41.3974,6.6287-.4286-2.1769-.759-4.3649-1.0482-6.5574l-.4054-3.2918-.3245-3.3007c-.1576-2.1957-.5676-4.3621-.8559-6.5606C164.7029,9.21,164.3961,7.0135,164.2822,4.8015Z" style="fill:#a7abae"/><path d="M303.9457,66.569a5.2608,5.2608,0,0,1,.5939,1.0823,1.5535,1.5535,0,0,1,.1356.7111.6286.6286,0,0,1-.3735.524,1.0859,1.0859,0,0,1-.3032.0586l-.22-.0218a4.0144,4.0144,0,0,1-1.2156-.5315c-.3559-.2091-.689-.4419-1.0074-.6592-1.2962-.8773-2.6429-1.7-3.9945-2.5084-2.7111-1.6087-5.4947-3.1018-8.3042-4.5417-5.6264-2.8689-11.3845-5.4842-17.22-7.9118-5.8372-2.4254-11.7481-4.674-17.707-6.7888q-8.9581-3.1126-18.018-5.9512c-12.0669-3.8129-24.2388-7.2989-36.4451-10.6534q-9.1563-2.512-18.35-4.89c-3.0589-.8139-6.1373-1.5515-9.2106-2.3129-.7685-.192-1.5356-.3828-2.298-.6042-.7565-.2207-1.5338-.4-2.3171-.7077a3.0129,3.0129,0,0,1-1.1455-.7363,2.2248,2.2248,0,0,1-.5266-1.2634,11.3419,11.3419,0,0,1,.0053-2.424c.2083.7715.3473,1.5726.5768,2.2866a1.7479,1.7479,0,0,0,1.4128,1.26c1.4432.3844,3.0545.7094,4.564,1.1222l9.1914,2.4032q9.2,2.3732,18.373,4.8533c12.2236,3.33,24.4144,6.7928,36.5085,10.5851,6.0569,1.8636,12.0632,3.8919,18.0511,5.9806,5.9716,2.1341,11.8962,4.4026,17.7488,6.85,5.8513,2.4493,11.6269,5.0876,17.277,7.9842,2.8219,1.4541,5.6182,2.9617,8.35,4.5905,1.3636.82,2.7181,1.651,4.0423,2.5514l.962.6673a5.7241,5.7241,0,0,0,.8942.5378.53.53,0,0,1,.0714.0326c-.0056-.0035,0,.0078-.0108.02-.0757.0187-.0671.1314-.0513.0636a1.2059,1.2059,0,0,0,.0363-.4634C304.0056,67.3842,303.9529,66.9821,303.9457,66.569Z" style="fill:#a7abae"/><path d="M304.3407,68.1345C304.387,67.1308,288.98,19.63,284.318,10.7289" style="fill:none;stroke:#a7abae;stroke-linejoin:round;stroke-width:0.5px"/><path d="M121.6007,17.99c-9.2184,1.4627-18.409,3.2434-27.6095,4.895L66.4,27.9568,38.8253,33.119c-9.1891,1.7352-18.3715,3.501-27.6265,4.8961,9.1074-2.16,18.2961-3.9035,27.4827-5.6541l27.5657-5.223,27.5835-5.1324c4.5976-.855,9.2051-1.6556,13.8119-2.4624,4.61-.796,9.2122-1.6073,13.8506-2.2951Z" style="fill:#a7abae"/><path d="M253.0605,106.2731c-.0126.5567-2.2146.9691-4.9021.9081a17.4259,17.4259,0,0,1-3.5681-.4068l-7.1378-1.77c-.8031-.2074-1.2936-.46-1.2876-.7228.0129-.5672,2.2147-.9691,4.9021-.9081a17.4349,17.4349,0,0,1,3.5682.4068l7.1377,1.77C252.5762,105.7471,253.0667,106,253.0605,106.2731Z" style="fill:#f2a900;stroke:#141b21;stroke-linejoin:round"/><path d="M262.2118,112.8338l1.9537-2.12-4.034-1.3446a7.007,7.007,0,0,0-2.2161-.36h-5.8461l2.4525,2.2031" style="fill:none;stroke:#a7abae;stroke-linejoin:round;stroke-width:0.5px"/><ellipse cx="260.4427" cy="111.7662" rx="1.4265" ry="0.9976" transform="translate(21.6977 264.4845) rotate(-55.8319)" style="fill:none;stroke:#a7abae;stroke-linejoin:round;stroke-width:0.5px"/><path d="M175.6766,6.5427c.4976,2.3307.9486,4.6695,1.3888,7.01l.0024.0216a1.0822,1.0822,0,0,0,.4224.7225,3.6911,3.6911,0,0,0,.9.3286l1.9756.6446,3.9492,1.2953,7.8977,2.5925,15.7926,5.1943,15.7824,5.23,1.9719.6741a6.8247,6.8247,0,0,0,1.944.4385c1.3361.11,2.453-.7657,3.4723-1.6722a28.1338,28.1338,0,0,1,3.2706-2.6237,5.48,5.48,0,0,1,2.0131-.7823,5.8564,5.8564,0,0,1,2.1552.0808,25.9071,25.9071,0,0,1,3.9444,1.4322l3.8346,1.6087,7.64,3.28c1.2746.5649,2.534,1.0745,3.8182,1.693a10.0971,10.0971,0,0,1,3.1471,2.8261c1.6647,2.2574,2.9336,4.7548,4.4412,7.0307a6.2008,6.2008,0,0,0,1.3883,1.4248,9.1213,9.1213,0,0,0,1.7788.9529c1.2766.5663,2.5236,1.1631,3.7753,1.7615l7.4747,3.6432c4.9636,2.47,9.9315,4.9208,14.8017,7.5959l-.3659.2761c-1.8124-7.3593-3.8831-14.6618-6.1518-21.895-2.2672-7.2367-4.7729-14.3879-7.572-21.4436,1.659,3.4158,3.0924,6.9384,4.4327,10.492,1.309,3.5658,2.5031,7.1717,3.6592,10.7884q3.3648,10.8843,6.1181,21.9414a.2493.2493,0,0,1-.1818.3019.2614.2614,0,0,1-.1842-.0257c-4.8446-2.6611-9.82-5.1161-14.7775-7.5831l-7.4691-3.64c-1.2479-.5968-2.5008-1.196-3.7569-1.7532a9.6048,9.6048,0,0,1-1.8752-1.0077,6.7059,6.7059,0,0,1-1.5-1.5374c-1.55-2.3424-2.8042-4.812-4.4326-7.0189a9.6021,9.6021,0,0,0-2.9866-2.69c-1.2122-.5833-2.522-1.1176-3.78-1.6745l-7.6361-3.2785-3.83-1.6071a25.6621,25.6621,0,0,0-3.8556-1.4048,4.8739,4.8739,0,0,0-3.805.6384,27.8643,27.8643,0,0,0-3.2036,2.5748,10.4887,10.4887,0,0,1-1.6981,1.2782,3.8469,3.8469,0,0,1-2.1223.5162,7.3049,7.3049,0,0,1-2.0949-.4682l-1.9608-.67-15.7791-5.2285-15.7921-5.194L184.159,17.04,180.21,15.7451l-1.9736-.65a3.8382,3.8382,0,0,1-1.0177-.443,1.3379,1.3379,0,0,1-.5183-1.058l.0023.0212C176.3379,11.2614,175.984,8.906,175.6766,6.5427Z" style="fill:#a7abae"/><path d="M158.0433,201.3313s-5.3206-.3326-10.475-.9977-8.9537-1.7307-4.7387-8.7292a97.423,97.423,0,0,1,13.6342-17.4584c4.323-4.4893,7.6506-6.4478,16.4607-6.2351,24.1093.5819,56.6152,3.5748,60.19,3.99s3.7826,1.7458,4.5308,3.45.5812,2.2537,4.1568,2.5772c17.0012,1.538,38.005,5.3608,42.69,6.11,3.1175.4988,3.5748.3326,6.3182-1.2886s3.21-1.9588,5.57-1.4548c12.2625,2.6187,18.6639,5.4453,21.3242,6.7755s4.3122,2.0732,3.1749,5.6162" style="fill:none;stroke:#a7abae;stroke-linejoin:round;stroke-width:0.75px"/><path d="M314.4026,211.7413c-1.3774,2.8772-2.06,4.3049-4.8453,3.6814" style="fill:none;stroke:#a7abae;stroke-linejoin:round;stroke-width:0.5px"/><path d="M107.2788,232.48l6.0378-2.8823s19.673-9.3916,30.5937-16.2114c6.2029-3.8736,8.2713-4.8965,14.133-12.0546,4.3231-5.2791,7.1912-8.8955,11.0155-12.5535s5.6589-4.8764,12.8028-4.5447c41.7755,1.94,61.6171,3.3809,83.8973,6.0412s43.7292,8.2581,46.722,9.3111,3.2146,2.217,2.5495,3.7688-3.7688,9.5883-6.0411,13.2462-6.4911,9.2947-19.4646,15.0043" style="fill:none;stroke:#a7abae;stroke-linejoin:round;stroke-width:0.75px"/><path d="M155.8311,197.4862c-2.2786-.235-4.561-.379-6.8426-.7034a7.3458,7.3458,0,0,1-1.68-.4983,2.4351,2.4351,0,0,1-1.5147-2.9954,6.9813,6.9813,0,0,1,.6044-1.6606,55.54,55.54,0,0,1,3.7061-5.8174c1.3345-1.8665,2.719-3.6968,4.1731-5.473a68.3918,68.3918,0,0,1,4.6065-5.12,19.6644,19.6644,0,0,1,5.4866-4.2044,18.0006,18.0006,0,0,1,6.7181-1.6308,64.494,64.494,0,0,1,6.89.0881c9.1491.4646,18.284,1.085,27.4209,1.6927s18.2681,1.2889,27.3882,2.1227c-9.1461-.4689-18.2829-1.0618-27.4179-1.68-9.1356-.6-18.2728-1.2121-27.4135-1.6682a64.1035,64.1035,0,0,0-6.8348-.0827,17.5274,17.5274,0,0,0-6.5419,1.59A19.1912,19.1912,0,0,0,159.23,175.56a67.8277,67.8277,0,0,0-4.5717,5.09c-1.4445,1.7677-2.8219,3.5917-4.1483,5.45a65.0184,65.0184,0,0,0-3.7184,5.7271,3.7238,3.7238,0,0,0-.4835,3.0923c.4677.9541,1.6705,1.3329,2.7376,1.5764C151.2884,196.8614,153.5684,197.148,155.8311,197.4862Z" style="fill:#a7abae"/><path d="M238.8231,178.192a3.1375,3.1375,0,0,0,1.8962,1.6913,10.6454,10.6454,0,0,0,2.56.5048q2.6344.2536,5.264.55l10.5161,1.2085c3.5027.43,7.0127.78,10.51,1.275,3.4966.4907,6.9838,1.04,10.4652,1.6222l5.2133.925,2.5989.4817a3.0431,3.0431,0,0,0,2.3543-.2009c1.2475-1.0571,1.964-2.8679,3.6142-3.8664a4.0457,4.0457,0,0,1,2.75-.1625q1.2987.2628,2.5921.5584a74.4387,74.4387,0,0,1,19.8639,7.2176,91.94,91.94,0,0,0-19.9678-6.7571q-1.2879-.29-2.5834-.5427a3.5821,3.5821,0,0,0-2.4209.1272,6.5555,6.5555,0,0,0-1.7821,1.7823,12.38,12.38,0,0,1-1.7539,2.0668,2.3672,2.3672,0,0,1-1.3923.4417,7.4567,7.4567,0,0,1-1.365-.1324l-2.6065-.4692-5.2116-.8973c-3.4756-.5913-6.9568-1.15-10.4458-1.65-3.4879-.5038-7-.8646-10.4982-1.3039l-10.5024-1.2868q-2.6255-.3242-5.2453-.6972a9.53,9.53,0,0,1-2.5895-.6406A3.2234,3.2234,0,0,1,238.8231,178.192Z" style="fill:#a7abae"/><path d="M159.5121,193.3226a76.3252,76.3252,0,0,1,7.5517-8.5448,31.5262,31.5262,0,0,1,4.4074-3.67,13.4235,13.4235,0,0,1,2.5968-1.2857,16.2134,16.2134,0,0,1,2.8059-.6944,66.0588,66.0588,0,0,1,11.4218-.188c3.7964.16,7.5885.3689,11.38.5925,15.1643.9091,30.3137,2.0664,45.4317,3.5726,15.1174,1.4935,30.1977,3.496,45.12,6.3835,7.4537,1.4723,14.8879,3.0824,22.1816,5.2618.9086.278,1.8211.5689,2.7117.9309a5.0666,5.0666,0,0,1,2.4314,1.6518,2.313,2.313,0,0,1,.2771,1.5128,7.24,7.24,0,0,1-.3536,1.4218c-.2958.9065-.6107,1.8032-.933,2.698a57.5967,57.5967,0,0,1-4.6161,10.42c1.4587-3.5093,2.921-6.9975,4.2039-10.5689.3207-.8915.6346-1.7865.9274-2.685a3.1519,3.1519,0,0,0,.1177-2.5708,4.7266,4.7266,0,0,0-2.2228-1.4719c-.8687-.3527-1.7675-.6393-2.6739-.9161-7.2633-2.1675-14.6947-3.7749-22.1374-5.2417-14.9066-2.8784-29.9715-4.873-45.081-6.36-15.11-1.4994-30.2557-2.65-45.4135-3.5533-3.79-.2221-7.5805-.43-11.3717-.5878a65.724,65.724,0,0,0-11.3251.1871,13.0649,13.0649,0,0,0-5.21,1.9092,31.6437,31.6437,0,0,0-4.3332,3.6093C164.6592,187.739,162.0991,190.54,159.5121,193.3226Z" style="fill:#a7abae"/><path d="M167.769,197.9849c-.668,1.5371.041,2.2863,2.0825,2.3725s26.8919,1.5778,29.22,1.7059,2.4545-1.3265,1.9591-3.6135-.91-3.1189-3.2788-3.4134-21.8538-1.4456-24.7386-1.4914-3.6852,1.0337-4.3976,2.5291A20.5578,20.5578,0,0,0,167.769,197.9849Z" style="fill:none;stroke:#a7abae;stroke-linejoin:round;stroke-width:0.75px"/><path d="M293.5522,209.6109c-.3991,1.0706-.3714,1.7351.9956,1.9278s9.6827,1.3994,10.8259,1.546,1.299-.7753,1.3717-1.6936a21.9166,21.9166,0,0,0,.0681-2.36c-.0115-.9425-.3126-1.5124-1.6566-1.817s-6.5366-1.1145-8.1817-1.3233-1.98.4153-2.3627,1.2079S293.5522,209.6109,293.5522,209.6109Z" style="fill:none;stroke:#a7abae;stroke-linejoin:round;stroke-width:0.75px"/><path d="M237.4364,187.4613c-1.44,8.577-2.3821,12.6784-4.2111,17.2231s-3.1353,8.1019-7.6484,10.9738c-4.2676,2.7158-5.1406,3.173-6.5539,4.0875s-1.33,1.4965,1.0392,1.6627,32.09,2.3278,34.5012,2.5772,4.6764-.4649,7.2743-1.5795c12.304-5.2791,14.2577-7.4406,18.7886-13.177s9.06-15.089,9.06-15.089" style="fill:none;stroke:#a7abae;stroke-linejoin:round;stroke-width:0.75px"/><path d="M160.8481,202.0362c1.6346-2.1105,3.4-4.1067,5.1572-6.109l2.6707-2.9725a23.8957,23.8957,0,0,1,2.8441-2.8507,12.6917,12.6917,0,0,1,7.5741-2.5767c2.6937-.0987,5.343.0869,8.0086.179,5.3232.2362,10.6418.5323,15.96.847,5.32.3489,10.6276.603,15.9528,1.1843a10.7333,10.7333,0,0,1,3.8609,1.2565,5.6664,5.6664,0,0,1,2.5454,3.1694,8.5778,8.5778,0,0,1,.124,4.06l-.2051.9943-.2922.968c-.1728.6541-.4595,1.2635-.6913,1.8945a54.4807,54.4807,0,0,1-3.5658,7.1811,22.2378,22.2378,0,0,1-5.2828,6.0407,42.49,42.49,0,0,1-6.8645,4.1477c-2.38,1.2062-4.79,2.3437-7.2065,3.4663q-3.6261,1.6807-7.2776,3.3039a67.5646,67.5646,0,0,1-7.4035,3.0139c2.3218-1.339,4.8024-2.3088,7.225-3.414q3.6462-1.6284,7.27-3.3052c2.413-1.1226,4.82-2.26,7.19-3.4633a42.0754,42.0754,0,0,0,6.7884-4.1044,21.7793,21.7793,0,0,0,5.173-5.9242,54.0513,54.0513,0,0,0,3.529-7.1187c.2263-.6185.5095-1.22.6762-1.8563l.2849-.944.1975-.9619a8.1274,8.1274,0,0,0-.1116-3.8375,5.1933,5.1933,0,0,0-2.3424-2.91,10.28,10.28,0,0,0-3.69-1.193c-5.2639-.5713-10.6056-.8269-15.9128-1.1713-5.3159-.3116-10.6336-.6047-15.9525-.8377-2.6546-.091-5.3306-.2736-7.9606-.1749a12.1961,12.1961,0,0,0-7.2912,2.4733,23.4949,23.4949,0,0,0-2.7877,2.801l-2.67,2.9693C164.5693,198.22,162.7739,200.1854,160.8481,202.0362Z" style="fill:#a7abae"/><path d="M166.0063,197.9917a6.6018,6.6018,0,0,0-.7723,1.7838,1.4854,1.4854,0,0,0,.4719,1.6408c1.0431.6827,2.4266.5459,3.722.6361,2.6218.11,5.2361.3058,7.853.4665l15.695,1.0473,15.6877,1.14c1.3048.1119,2.6152.1367,3.9333.35a9.5751,9.5751,0,0,1,1.9419.5,2.9318,2.9318,0,0,1,1.6023,1.2793,2.3844,2.3844,0,0,1-.1,2.0338,8.0965,8.0965,0,0,1-1.0686,1.6836,24.03,24.03,0,0,1-2.7763,2.7958,26.2241,26.2241,0,0,0,2.6072-2.9259,7.8635,7.8635,0,0,0,.9764-1.6628,2.1142,2.1142,0,0,0,.0525-1.7683,2.5894,2.5894,0,0,0-1.4311-1.0819,9.1923,9.1923,0,0,0-1.8666-.446c-1.2761-.18-2.5945-.2044-3.9014-.3053l-15.6961-1.0258-15.6906-1.0919-7.844-.5388c-1.2649-.1249-2.7115.0172-3.8849-.8474a1.5481,1.5481,0,0,1-.5473-.9037,2.1028,2.1028,0,0,1,.0934-1.0217A6.678,6.678,0,0,1,166.0063,197.9917Z" style="fill:#a7abae"/><path d="M278.08,218.8c1.4781-1.2995,2.921-2.6245,4.2857-4.0182a52.9473,52.9473,0,0,0,3.7708-4.4832c1.1956-1.556,2.403-3.1144,3.6652-4.6239,1.2645-1.5,2.4235-3.0691,3.7365-4.5694a5.521,5.521,0,0,1,2.5018-1.7578,7.7737,7.7737,0,0,1,3.0343-.0432,52.683,52.683,0,0,1,5.7908,1.2235c1.9039.5,3.7953,1.0424,5.6625,1.6635.4669.1548.9349.3065,1.3973.4776a3.1059,3.1059,0,0,1,1.3265.7439,1.629,1.629,0,0,1,.3511,1.46,4.9509,4.9509,0,0,1-.5287,1.3831,4.886,4.886,0,0,0,.396-1.4012,1.5209,1.5209,0,0,0-.3925-1.2776,2.83,2.83,0,0,0-1.256-.6012l-1.4057-.4274c-1.8813-.55-3.7678-1.0858-5.6671-1.5653a52.2582,52.2582,0,0,0-5.7411-1.1587,7.299,7.299,0,0,0-2.8148.0532,4.9777,4.9777,0,0,0-2.2254,1.6164c-1.2794,1.4511-2.4692,3.0361-3.7428,4.5331-1.265,1.4973-2.4714,3.0381-3.6767,4.59a41.13,41.13,0,0,1-3.8686,4.4755A32.5984,32.5984,0,0,1,278.08,218.8Z" style="fill:#a7abae"/><path d="M310.0261,212.5871a13.9134,13.9134,0,0,1-.52,1.4126,2.48,2.48,0,0,1-.4194.68,1.5217,1.5217,0,0,1-.742.4175,11.0064,11.0064,0,0,1-3.0479-.1425q-2.964-.37-5.9166-.7924c-1.9661-.3052-3.93-.6171-5.8928-.9567a10.6908,10.6908,0,0,1-2.9407-.754,1.4483,1.4483,0,0,1-.5923-.5773,1.2272,1.2272,0,0,1-.0941-.8165,3.606,3.606,0,0,1,.7048-1.3427,4.6761,4.6761,0,0,0-.4723,1.3777.9964.9964,0,0,0,.63,1.0369,4.7372,4.7372,0,0,0,1.3745.3741l1.4658.2414c1.9621.3024,3.9309.5779,5.9.8464l5.9.8462a13.072,13.072,0,0,0,2.8841.21,1.4335,1.4335,0,0,0,.9984-.7892C309.5006,213.4445,309.7472,213.0029,310.0261,212.5871Z" style="fill:#a7abae"/><path d="M47.294,238.6553c15.3378-6.98,50.1194-8.06,59.9848-6.1757s19.5459,2.5659,29.953,3.0757c27.1575,1.33,97.7671,4.1013,110.2928,4.8773s19.7665.8618,28.6331-2.955" style="fill:none;stroke:#a7abae;stroke-linejoin:round;stroke-width:0.5px"/><path d="M8.3443,143.2373A156.0343,156.0343,0,0,1,17.7,165.2546q3.9633,11.2976,6.9878,22.8927c2.0726,7.7,4.01,15.4407,6.3845,23.0423a61.8847,61.8847,0,0,0,4.4854,11.0211,24.7257,24.7257,0,0,0,3.4262,4.8411,27.02,27.02,0,0,0,4.5242,3.866,23.4534,23.4534,0,0,1-4.6937-3.7071,25.0244,25.0244,0,0,1-3.5648-4.8245,54.9325,54.9325,0,0,1-4.6-11.0615c-2.3891-7.6225-4.3334-15.3595-6.4138-23.0567q-3.0567-11.5583-7-22.85C14.56,157.914,11.67,150.4863,8.3443,143.2373Z" style="fill:#a7abae"/><path d="M31.9769,192.9c12.1079-2.1968,24.23-4.31,36.326-6.5613,12.0548-2.363,24.3059-4.2013,35.7718-8.6938,5.74-2.1872,11.3534-4.7107,16.98-7.1954,5.6391-2.4659,11.2072-5.0609,16.7991-7.64a93.8274,93.8274,0,0,1,17.3369-6.3735,76.5283,76.5283,0,0,1,18.3674-1.9123c3.0831.033,6.1615.1693,9.2326.3393l9.2147.5565q9.2107.6144,18.4082,1.4043c12.2622,1.0549,24.5071,2.3276,36.7143,3.9084,12.2006,1.5993,24.3895,3.4535,36.3919,6.2173,6.0037,1.3588,11.969,2.8986,17.8512,4.7165,2.9438.8986,5.8614,1.8866,8.7361,2.9871a70.8815,70.8815,0,0,1,8.43,3.7478,70.8246,70.8246,0,0,0-8.48-3.6147c-2.8915-1.0439-5.8077-2.02-8.7544-2.8977-5.8868-1.7765-11.8551-3.2748-17.8606-4.5922-12.0115-2.6465-24.1745-4.5385-36.3716-6.1238-12.1995-1.5757-24.4393-2.8439-36.6961-3.8944q-9.1919-.8-18.4-1.3976l-9.2092-.5531c-3.0718-.1691-6.1415-.3038-9.21-.3357a76.061,76.061,0,0,0-18.2543,1.9052,93.3666,93.3666,0,0,0-17.2485,6.35c-5.5808,2.5763-11.1659,5.1811-16.8008,7.6474-5.6272,2.4871-11.2426,5.014-17.0027,7.2111a117.0711,117.0711,0,0,1-17.7365,5.17c-6.02,1.3093-12.0815,2.37-18.1365,3.4661C56.2593,188.8918,44.1322,190.98,31.9769,192.9Z" style="fill:#a7abae"/><path d="M320.5919,186.1642a7.3144,7.3144,0,0,0-2.5789-1.9584c-.9554-.5273-1.9693-.9434-2.9606-1.4-2.0311-.8149-4.0889-1.57-6.1822-2.2264-4.1756-1.3518-8.4586-2.3553-12.7317-3.3683-8.5767-1.9223-17.2523-3.39-25.9438-4.7126q-26.0871-3.9252-52.3916-6.1941-13.1436-1.118-26.3235-1.7171-6.5886-.2922-13.1827-.42l-6.5957-.0925a18.9048,18.9048,0,0,0-6.45.7334c-4.1689,1.3381-7.4862,4.4373-10.4664,7.5973a128.9169,128.9169,0,0,0-8.2765,10.2367,58.295,58.295,0,0,0-6.8572,11.1734,11.6628,11.6628,0,0,0-.8434,3.1134,4.2388,4.2388,0,0,0,.6513,3.0033,5.48,5.48,0,0,0,2.5863,1.7882,17.9173,17.9173,0,0,0,3.186.77,13.4265,13.4265,0,0,1-3.271-.52,5.3562,5.3562,0,0,1-2.8161-1.8094,4.5315,4.5315,0,0,1-.77-3.2757,12.0742,12.0742,0,0,1,.8719-3.2335,58.6376,58.6376,0,0,1,6.9076-11.2714,129.31,129.31,0,0,1,8.3051-10.278,42.5145,42.5145,0,0,1,4.8369-4.5292,18.9033,18.9033,0,0,1,5.82-3.1942,19.35,19.35,0,0,1,6.5919-.7566l6.5984.09q6.6.1185,13.1941.4162,13.1881.5781,26.343,1.7094,26.3049,2.2347,52.4251,6.18c8.7,1.3212,17.384,2.7869,25.9791,4.71,4.2842,1.014,8.5763,2.018,12.7747,3.3753a61.2177,61.2177,0,0,1,6.21,2.29,24.6849,24.6849,0,0,1,2.9369,1.548A6.404,6.404,0,0,1,320.5919,186.1642Z" style="fill:#a7abae"/><path d="M108.4116,66.2365c.0239,3.3565-.1148,6.7027-.33,10.0515a62.149,62.149,0,0,1-1.3706,9.986,31.5768,31.5768,0,0,1-3.876,9.3083,54.9715,54.9715,0,0,1-6.1428,7.9935c-2.2564,2.4885-4.6392,4.8563-7.0621,7.1719-2.4057,2.3341-4.87,4.6094-7.37,6.8465-5.0238,4.41-10.3767,8.6626-16.6405,11.2441a61.87,61.87,0,0,1-9.6379,2.942c-3.27.753-6.5436,1.4546-9.8275,2.1344-3.2848.6657-6.5832,1.3017-9.9185,1.7137l-2.5.2869a19.0938,19.0938,0,0,1-2.5343.1523,8.271,8.271,0,0,1-4.8486-1.4975,13.6546,13.6546,0,0,1-3.444-3.7319,40.2667,40.2667,0,0,1-2.4608-4.41A89.8089,89.8089,0,0,0,15.49,117.72a95.0557,95.0557,0,0,0-5.8493-8.1378c-1.038-1.31-2.1311-2.5748-3.2423-3.8219-1.1124-1.25-2.3032-2.4107-3.3375-3.75a21.2365,21.2365,0,0,1,3.6619,3.4578c1.1178,1.2532,2.2167,2.5239,3.26,3.84a95.46,95.46,0,0,1,5.88,8.173,90.2028,90.2028,0,0,1,4.9849,8.7486,39.858,39.858,0,0,0,2.4343,4.36,13.22,13.22,0,0,0,3.3284,3.6107,7.8091,7.8091,0,0,0,4.5976,1.4139,43.0748,43.0748,0,0,0,4.97-.438c3.3161-.4109,6.6026-1.0459,9.8828-1.7122,3.2769-.68,6.5548-1.384,9.8139-2.1361a61.4039,61.4039,0,0,0,9.5637-2.923c6.1847-2.551,11.494-6.767,16.5032-11.1686q3.7377-3.3479,7.3525-6.8362c2.4193-2.3142,4.7915-4.6736,7.0354-7.15a54.4769,54.4769,0,0,0,6.0854-7.9231,31.072,31.072,0,0,0,3.8137-9.1679C107.7688,79.658,107.5818,72.8889,108.4116,66.2365Z" style="fill:#a7abae"/><path d="M14.0808,45.8961c7.8707-1.7,15.785-3.1631,23.7032-4.6045l23.75-4.3506,23.75-4.3506c3.9591-.7208,7.9135-1.4673,11.8818-2.1373a30.1436,30.1436,0,0,1,6.01-.7055,6.7577,6.7577,0,0,1,2.9469.7092,3.151,3.151,0,0,1,1.7346,2.3593,3.08,3.08,0,0,0-1.8-2.2336,7.1651,7.1651,0,0,0-2.8891-.6026,29.9424,29.9424,0,0,0-5.9385.8221c-3.9475.7841-7.9089,1.4918-11.8657,2.2251L61.6182,37.4013,37.8728,41.7756C29.9593,43.2425,22.0418,44.6874,14.0808,45.8961Z" style="fill:#a7abae"/><path d="M193.2905,142.5411a105.5514,105.5514,0,0,1,14.0029-.3685c4.6712.1371,9.3358.46,13.9853.9141,9.3042.8719,18.5541,2.2392,27.7505,3.87,9.1928,1.6536,18.3464,3.5392,27.3992,5.8563,4.53,1.1384,9.0279,2.4269,13.4437,3.9606,2.2146.7466,4.391,1.6065,6.5441,2.5161a26.6833,26.6833,0,0,1,6.0885,3.4387,29.9979,29.9979,0,0,0-6.18-3.2248c-2.1619-.8689-4.3448-1.6878-6.5668-2.3938-4.4393-1.419-8.9126-2.7425-13.44-3.8667-9.0388-2.3053-18.1879-4.1819-27.3712-5.8256-9.1871-1.6214-18.4262-2.979-27.7148-3.8414-4.642-.4558-9.2977-.74-13.9546-.9637C202.62,142.444,197.9536,142.2934,193.2905,142.5411Z" style="fill:#a7abae"/><path d="M271.4426,145.5646c.1285,1.1075-.3815,1.8707-1.14,1.7042l-33.159-7.2779a2.7758,2.7758,0,0,1-1.7067-2.4006l-2.7932-24.609c-.13-1.1433.4249-1.907,1.2377-1.7063l33.2,8.1975a2.75,2.75,0,0,1,1.6062,2.3375Z" style="fill:none;stroke:#a7abae;stroke-linejoin:round"/><path d="M102.0164,255.9908l18.3848,7.0216,9.1574,3.61,4.5686,1.8438c1.5249.6509,3.0284,1.1987,4.5984,2.0326a10.042,10.042,0,0,1,2.1679,1.5982c.65.6458,1.1347,1.2922,1.6559,1.7453a6.7773,6.7773,0,0,0,1.8532,1.1015,9.4917,9.4917,0,0,0,2.1323.6551,13.0851,13.0851,0,0,0,2.3211.065,8.2113,8.2113,0,0,1,2.6836.4855c.8519.2937,1.5961.6486,2.3436.9776l2.2505,1.0274c1.4955.699,2.9828,1.43,4.4433,2.2159a18.98,18.98,0,0,0,4.282,1.9472,5.277,5.277,0,0,0,4.1395-.5039,3.3351,3.3351,0,0,0,1.384-1.3969,2.5234,2.5234,0,0,0,.1477-1.7889l-.0162-.0524a.7641.7641,0,0,1,.2718-.8361,41.9423,41.9423,0,0,0,8.463-8.0569,25.1436,25.1436,0,0,0,2.9822-5.0127,24.7736,24.7736,0,0,0,1.7311-5.6523,20.334,20.334,0,0,1-1.0215,5.9259,22.4533,22.4533,0,0,1-2.7023,5.4453,36.84,36.84,0,0,1-8.53,8.5779l.2555-.8881a4.008,4.008,0,0,1-.1713,3.0022,4.8835,4.8835,0,0,1-1.9775,2.0874,6.9051,6.9051,0,0,1-5.347.73,20.3272,20.3272,0,0,1-4.6759-2.0487c-1.435-.7543-2.8981-1.4571-4.38-2.1328l-2.2335-.9943c-.755-.3254-1.5-.666-2.2016-.8977a6.4008,6.4008,0,0,0-2.1356-.3707,14.3244,14.3244,0,0,1-2.5873-.0637,11.0355,11.0355,0,0,1-2.5658-.7574,8.5881,8.5881,0,0,1-2.3466-1.4151c-.7112-.6342-1.2117-1.3136-1.73-1.8191a8.21,8.21,0,0,0-1.7792-1.31c-1.3247-.71-2.9058-1.3078-4.3951-1.942l-4.5514-1.8446-9.1352-3.6359L101.4747,257.39Z" style="fill:#a7abae"/><path d="M117.8633,262.97c2.9631,15.927,17.3178,47.4352,54.507,51.0655,37.9809,3.7075,72.6325-15.3523,76.7143-66.3738" style="fill:none;stroke:#a7abae;stroke-linejoin:round;stroke-width:1.5px"/><path d="M206.4187,257.0888c-1.82,8.9217-14.8719,32.6984-37.7341,31.7839-12.238-.49-19.536-6.211-23.5437-12.6762" style="fill:none;stroke:#a7abae;stroke-linejoin:round"/><path d="M228.69,256.062a52.03,52.03,0,0,1-5.0338,21.2713,62.5018,62.5018,0,0,1-12.5012,18.0088,57.0929,57.0929,0,0,1-18.1129,12.3157,53.8853,53.8853,0,0,1-21.4331,4.3015,62.4649,62.4649,0,0,0,21.259-4.71,56.637,56.637,0,0,0,17.9556-12.2377A62.3208,62.3208,0,0,0,228.69,256.062Z" style="fill:#a7abae"/><path d="M136.5113,257.1705c.0554,3.6025,3.5471,6.8725,8.2027,6.8725,6.54,0,7.5376-6.3737,7.5376-6.3737" style="fill:none;stroke:#a7abae;stroke-linejoin:round"/><path d="M140.8359,263.2082s.1612,2.7194.3275,5.2689.89,5.6529,4.0494,5.5975,3.9475-2.7048,3.7461-5.759c-.19-2.8753-.16-2.8784-.2542-5.3007" style="fill:none;stroke:#a7abae;stroke-linejoin:round"/><line x1="140.8359" y1="263.2082" x2="126.7013" y2="256.8933" style="fill:none;stroke:#a7abae;stroke-linejoin:round"/><path d="M148.7447,264.0989c2.0659.4429,2.8972,2.9924,6.1118,4.6a74.3874,74.3874,0,0,0,9.3111,3.7688c1.94.61,3.3809.388,4.4893,1.3856,4.6-5.93,5.0436-9.9208,5.0436-9.9208l-11.3064-6.4291" style="fill:none;stroke:#a7abae;stroke-linejoin:round"/><path d="M154.662,259.9756a35.6046,35.6046,0,0,0,2.79,5.8985,40.9117,40.9117,0,0,0,3.7177,5.3448l-.3295.2636a41.23,41.23,0,0,1-3.5722-5.5051A35.7076,35.7076,0,0,1,154.662,259.9756Z" style="fill:#a7abae"/><path d="M171.3242,280.0757a32.0514,32.0514,0,0,0,11.9644,3.6281q1.824.1909,3.5692.2168" style="fill:none;stroke:#a7abae;stroke-linejoin:round;stroke-width:0.5px"/></g><g id="b4cf1578-0471-48df-93af-acf7f591fe85" data-name="above"><path d="M312.2582,22.5409,275.8318,58.36a21.985,21.985,0,0,1-4.6575,3.4977l-9.0358,5.0693a7.2178,7.2178,0,0,0-1.42,1.0431L253.4976,74.78a6.8222,6.8222,0,0,0-1.7676,2.7349l-1.3437,3.8867a14.8725,14.8725,0,0,1-1.7111,2.4794c-2.2257,2.5868,1.6809,3.8893,4.3306,2.3447a7.0282,7.0282,0,0,0,3.3876-5.3811l4.8913-3.1976,2.8922,1.7591-.5068,9.3986-1.6663,6.9836-3.0688,4.0791c-6.08,2.6965-5.0242,8.81.5027,5.1843-1.6227,1.96-.0273,3.38,2.3829,2.4415,1.3562-.5282,3.8349-1.6907,3.8349-1.6907l3.0048-2.329,3.9616-1.9556a4.6647,4.6647,0,0,0,1.7547-1.5053l1.9909-2.8408,2.0011-1.3978a4.7961,4.7961,0,0,0,1.7414-2.24l6.69-17.7457a5.8207,5.8207,0,0,1,1.8919-2.556l.5464-.4213a5.823,5.823,0,0,0,1.2763-1.3623l.5743-.8544a12.9614,12.9614,0,0,1,4.1581-3.9255L323.956,49.6835" style="fill:url(#f824a9c5-41ca-493e-930a-eb1048309caf)"/><path d="M312.2582,22.5409c-4.7194,5.4673-9.7582,10.61-14.864,15.6843L282.058,53.4294l-3.8519,3.7829-1.9326,1.8957a22.7539,22.7539,0,0,1-4.47,3.3592L269.44,63.7914l-4.7146,2.6307-2.3366,1.3067a6.3869,6.3869,0,0,0-.9661.7033l-.968.9043-3.9365,3.6949L254.55,74.8787l-.4921.4619c-.1484.14-.2847.28-.4172.43a6.0437,6.0437,0,0,0-.695.9678,6.1059,6.1059,0,0,0-.4948,1.0926l-.4439,1.2746-.8879,2.5492-.0049.0142a.669.669,0,0,1-.0413.0928,15.728,15.728,0,0,1-1.2309,1.8959l-.6718.845a1.699,1.699,0,0,0-.353.6415.4281.4281,0,0,0,.0512.4148,1.0907,1.0907,0,0,0,.4959.3622,3.4983,3.4983,0,0,0,1.7082.1678,4.2374,4.2374,0,0,0,1.6974-.606,5.63,5.63,0,0,0,1.4313-1.2335,6.4573,6.4573,0,0,0,1.4425-3.4383l.0037-.039a.7535.7535,0,0,1,.3353-.5556l4.8911-3.1975a.7514.7514,0,0,1,.8-.0131l2.892,1.759a.7514.7514,0,0,1,.3593.6813l-.5068,9.3985a.8033.8033,0,0,1-.0194.1338l-1.6662,6.9835a.7667.7667,0,0,1-.13.277l-3.0687,4.0789a.7458.7458,0,0,1-.2853.23l-.01.0045a8.293,8.293,0,0,0-2.359,1.5419,4.0958,4.0958,0,0,0-1.2946,2.1952c-.0741.794.1973,1.1392.9759,1.1246a5.44,5.44,0,0,0,2.4649-.99.7507.7507,0,0,1,1.0031,1.0877l-.014.0178a2.6567,2.6567,0,0,0-.4478.77.49.49,0,0,0,.04.4763c.1363.229.8252.3546,1.4518.17a4.6623,4.6623,0,0,0,.481-.149l.5414-.2381,1.0849-.4786,2.17-.9567-.1408.0861,3-2.3345a.82.82,0,0,1,.1288-.0805l2.2886-1.1375,1.1443-.5688.5638-.2812a3.9194,3.9194,0,0,0,.4566-.2748,5.7793,5.7793,0,0,0,1.4851-1.714l1.4611-2.0969a.8135.8135,0,0,1,.1935-.1931l1.7956-1.2615a4.1551,4.1551,0,0,0,1.3073-1.3179,4.3328,4.3328,0,0,0,.3989-.8516l.3842-1.0277.7686-2.0556,3.0746-8.2218,1.5452-4.108.7726-2.0539a6.7528,6.7528,0,0,1,1.2419-2.141,6.6267,6.6267,0,0,1,.9046-.8677c.295-.2351.611-.4639.8331-.6556a6.47,6.47,0,0,0,1.2345-1.5275,13.8537,13.8537,0,0,1,3.113-3.42,15.37,15.37,0,0,1,1.9213-1.2694l1.895-1.1067,3.79-2.2134c2.5222-1.4831,5.06-2.94,7.6-4.3929q3.8187-2.1651,7.6821-4.2544,3.8479-2.1156,7.7751-4.0973-3.63,2.484-7.3346,4.8418-3.6879,2.386-7.4275,4.6847c-2.4963,1.5271-4.9952,3.05-7.51,4.5462L297.92,66.0124l-1.8824,1.1281a13.6779,13.6779,0,0,0-1.7255,1.165,12.5339,12.5339,0,0,0-2.7353,3.0717,8.1494,8.1494,0,0,1-1.5315,1.8582c-.334.2839-.6144.48-.891.7016a4.9434,4.9434,0,0,0-.6777.648,5.0532,5.0532,0,0,0-.9448,1.6352l-.7757,2.0529-1.5512,4.1056-3.1185,8.2053-.78,2.0514-.39,1.0256a5.95,5.95,0,0,1-.541,1.1268,5.77,5.77,0,0,1-1.756,1.7751l-1.8025,1.2518.1932-.1929-1.4725,2.089c-.26.358-.4532.67-.7848,1.0838a5.4112,5.4112,0,0,1-1.0945,1.0035,5.4764,5.4764,0,0,1-.6394.38l-.5813.2861-1.1474.5626-2.2948,1.1251.1285-.08-3.009,2.3231-.0136.01a.6445.6445,0,0,1-.1276.0758l-2.2228.98-1.1116.49-.5575.2444a6.13,6.13,0,0,1-.6642.2067,3.8524,3.8524,0,0,1-1.469.1026,2.2732,2.2732,0,0,1-1.534-.82,1.9943,1.9943,0,0,1-.2866-1.8075,4.0538,4.0538,0,0,1,.7319-1.3044l.989,1.1054a6.779,6.779,0,0,1-3.2341,1.2351,2.4377,2.4377,0,0,1-1.9935-.7779,2.5477,2.5477,0,0,1-.5221-2.05,5.5245,5.5245,0,0,1,1.74-3.0712,9.7832,9.7832,0,0,1,2.7918-1.8331l-.2951.2346,3.0686-4.0789-.13.2766,1.6662-6.9834-.0193.1335.5068-9.3984.3591.681-2.8921-1.759.8-.013-4.8912,3.1975.3388-.5942a7.8767,7.8767,0,0,1-1.7914,4.3351,7.2235,7.2235,0,0,1-1.7889,1.5465,5.7567,5.7567,0,0,1-2.29.8284,4.9641,4.9641,0,0,1-2.4946-.2625,2.5763,2.5763,0,0,1-1.1756-.914,1.9635,1.9635,0,0,1-.2755-1.618,3.1553,3.1553,0,0,1,.6294-1.2319l.6543-.83a14.318,14.318,0,0,0,1.0889-1.69l-.046.1066.8761-2.5534.4381-1.2766a7.6362,7.6362,0,0,1,1.4831-2.59c.1644-.1882.3419-.3715.52-.5408l.49-.4641,1.96-1.8565,3.9194-3.7129,1-.9426a8.036,8.036,0,0,1,1.209-.8888l2.369-1.34L268.62,62.33l2.3435-1.321A21.0687,21.0687,0,0,0,275.1,57.8925l1.9191-1.8873,3.8472-3.7877,15.46-15.0783C301.4857,32.1193,306.7123,27.1677,312.2582,22.5409Z"/><path d="M259.1314,104.6559l3.7975-2.9428-.08.0779,4.3469-5.2995-.0968.1892,1.2309-4.9031c.2147-.8305.4118-1.5984.6918-2.4669a3.01,3.01,0,0,1,.8186-1.2263,1.7125,1.7125,0,0,1,1.373-.39c-.2636.4573-.5007.7306-.6953,1.0379a2.8923,2.8923,0,0,0-.4772.9195c-.1771.7528-.393,1.6191-.6155,2.4156l-1.3582,4.8694-.0018.0065a.5094.5094,0,0,1-.0952.1831l-4.3481,5.2985a.53.53,0,0,1-.08.0782l-3.7975,2.9429Z"/><path d="M266.2913,104.6853l5.753-6.2438-.1194.2263c.4124-1.7695.805-3.5437,1.1664-5.3251l.2964-1.33c.1081-.4657.1771-.8368.3485-1.3731a3.2749,3.2749,0,0,1,.8971-1.3218,1.8527,1.8527,0,0,1,.6617-.3595,2.1242,2.1242,0,0,1,.7607-.12,3.0335,3.0335,0,0,1-.7306,1.1892,2.5071,2.5071,0,0,0-.539.9646l-.6059,2.6015c-.4544,1.76-.8775,3.527-1.2808,5.2987a.5071.5071,0,0,1-.12.2268l-5.753,6.2438Z"/><path d="M274.2952,98.9c.26-.4313.5344-.8532.8111-1.2731a4.5122,4.5122,0,0,0,.5688-1.1985c.1241-.3921.1794-.9089.2862-1.4021l.2881-1.48c.2032-.9848.4066-1.97.6327-2.95a3.2442,3.2442,0,0,1,.7033-1.564,2.9077,2.9077,0,0,1,1.4358-.793,6.518,6.518,0,0,1-.6844,1.3466,2.9469,2.9469,0,0,0-.3995,1.21c-.1474.9953-.3175,1.9864-.4878,2.9774l-.2723,1.4833a12.58,12.58,0,0,1-.3455,1.5449,4.9633,4.9633,0,0,1-.7977,1.4761c-.3.4033-.6034.8048-.92,1.1968Z"/><path d="M250.6471,82.2927a2.4125,2.4125,0,0,1,1.0442.2661,2.9019,2.9019,0,0,1,.8929.65.1818.1818,0,0,1,.0455.1377,2.2913,2.2913,0,0,1-.8805,1.5175,3.0786,3.0786,0,0,1-1.5709.613c.2488-.13.49-.2543.716-.3988a3.8172,3.8172,0,0,0,.62-.4837,2.4721,2.4721,0,0,0,.4719-.5956,2.2927,2.2927,0,0,0,.262-.679l.0453.1373a5.0668,5.0668,0,0,0-.7395-.6679A4.3476,4.3476,0,0,0,250.6471,82.2927Z"/><path d="M259.0984,104.4709a2.76,2.76,0,0,1-1.8356-.3431l.127.0313a1.6861,1.6861,0,0,0-.8184.3226,1.8753,1.8753,0,0,0-.5853.7505,1.3293,1.3293,0,0,1,.3692-.992,1.4392,1.4392,0,0,1,.4554-.3255,1.7666,1.7666,0,0,1,.5454-.1668.1928.1928,0,0,1,.1274.0313A8.0559,8.0559,0,0,0,259.0984,104.4709Z"/><path d="M263.3147,106.0959a2.76,2.76,0,0,1-1.8356-.3431l.1271.0313a1.687,1.687,0,0,0-.8185.3226,1.8753,1.8753,0,0,0-.5853.7505,1.33,1.33,0,0,1,.3693-.992,1.4388,1.4388,0,0,1,.4553-.3255,1.7682,1.7682,0,0,1,.5454-.1668.192.192,0,0,1,.1274.0314A8.0665,8.0665,0,0,0,263.3147,106.0959Z"/></g></svg>