<svg xmlns="http://www.w3.org/2000/svg" width="325" height="325" viewBox="0 0 325 325"><g id="b3f6d0b2-9648-4c61-b29a-8250c99955d7" data-name="below"><path d="M135.8946,77.8645a4.7484,4.7484,0,0,1-2.0155-.1983,6.8111,6.8111,0,0,1-1.6458-1.0631c-.975-.7325-1.9657-1.454-2.9609-2.1662-5.979-4.2792-12.1346-8.3061-18.415-12.1347,6.41,3.6154,12.7112,7.439,18.8407,11.5191,1.0229.6809,2.0388,1.3693,3.0493,2.076a3.5021,3.5021,0,0,0,3.0759.97l.0713.9975Z" style="fill:#a7abae"/><path d="M41.3852,182.6621c-.5439.3495-1.0134.6491-1.3946.8893-7.4134,4.6723-16.81,10.0549-19.69,11.76" style="fill:none;stroke:#a7abae;stroke-linecap:round;stroke-linejoin:round;stroke-width:0.5px"/><path d="M142.99,76.6239c1.494,1.3443,2.5981,4.0464,3.3976,6.4.8158,2.4022,3.8071,11.6028,4.5776,14.64s1.1331,3.6258-1.45,6.028S135.4189,116.11,109.358,136.2792c0,3.4445-.1813,4.17-5.4388,7.66-.4986,5.5748-.4082,6.4812-3.8071,8.8834-4.6909,3.3153-10.7087,7.3114-13.0962,9.1453a7.6737,7.6737,0,0,1-3.9987,1.2679" style="fill:none;stroke:#a7abae;stroke-linecap:round;stroke-linejoin:round;stroke-width:0.5px"/><line x1="103.9192" y1="143.9388" x2="81.4763" y2="159.6535" style="fill:none;stroke:#a7abae;stroke-linecap:round;stroke-linejoin:round;stroke-width:0.5px"/><path d="M-5.7285,161.74c12.2269-12.0422,24.2126-24.4443,36.9706-35.93,5.9059-5.0516,12.3146-5.0757,19.6177-4.9695a14.0979,14.0979,0,0,0,4.9732-.8257,53.0654,53.0654,0,0,0,8.8363-5.1543c2.74-1.9135,5.7977-3.8225,7.4441-6.8035,2.0714-3.8177.5758-8.7486,2.9672-12.4422,2.7929-3.3466,6.8777-5.2376,10.4906-7.5418,5.93-3.489,12-6.7247,18.1142-9.8651q9.1743-4.71,18.4963-9.12a.25.25,0,1,1,.2123.4527q-9.3081,4.41-18.48,9.1122c-6.109,3.1375-12.1728,6.37-18.0881,9.8509-3.5464,2.2609-7.6016,4.1478-10.34,7.4037-2.2995,3.6833-.8161,8.5294-2.93,12.381-1.716,3.1048-4.7928,5.0191-7.6077,6.9868a53.2277,53.2277,0,0,1-8.94,5.2077,14.5946,14.5946,0,0,1-5.1377.8573c-3.4424.0718-6.8927-.1478-10.2391.4883a20.2777,20.2777,0,0,0-9.08,4.374C18.7344,137.5883,6.7193,149.948-5.7285,161.74Z" style="fill:#a7abae"/><path d="M109.358,136.2792l.1517-9.0628s28.243-23.7868,30.9417-26.1718,2.5105-5.0837,1.82-9.0377-1.8239-8.3627-1.8239-8.3627C127.142,94.251,102.8757,114.4578,79.635,130.7311l-8.9253,6.25a7.141,7.141,0,0,1-4.4453,1.2844l-9.2994-.442a6.4079,6.4079,0,0,0-3.3648.96L26.2141,157.6491a4.5042,4.5042,0,0,0-1.6911,2.8686l-.2464,2.51a6.3222,6.3222,0,0,1-2.3364,3.998L15.41,171.5986a.7979.7979,0,0,0-.279.9607c.6053,1.4478,2.1873,5.1919,3.1859,7.189,1.2552,2.5105,4.8954,3.7657,8.9122,1.5063,1.4326-.8059,6.02-3.6064,11.3287-6.8762" style="fill:none;stroke:#a7abae;stroke-linecap:round;stroke-linejoin:round;stroke-width:0.5px"/><path d="M50.1208,162.3135,32.2192,174.7852a.8032.8032,0,0,1-1.2857-.4209l-3.5283-10.3111a2.1444,2.1444,0,0,1,.7566-2.3118l28.0627-19.5508a.8032.8032,0,0,1,1.2858.4208l2.9564,8.64" style="fill:none;stroke:#a7abae;stroke-linecap:round;stroke-linejoin:round;stroke-width:0.5px"/><path d="M74.3434,151.86l-3.128-9.141a2.1445,2.1445,0,0,1,.7567-2.3118l28.0627-19.5508a.8032.8032,0,0,1,1.2858.4208l5.4986,16.0691a2.1447,2.1447,0,0,1-.7566,2.3118L80.2719,157.6258" style="fill:none;stroke:#a7abae;stroke-linecap:round;stroke-linejoin:round;stroke-width:0.5px"/><path d="M211.2353,119.2063c.4167,2.724.6517,4.6255.6517,4.6255l1.6024,16.1627,1.6771,2.2647a15.1308,15.1308,0,0,1-3.3223,11.0992s-1.9869,14.4641-3.5038,18.8547-11.58,12.3276-26.7064,1.1857c-15.1371-11.1525-44.9948-34.9532-44.9948-34.9532-7.6487-7.2428-5.7793-13.46-5.1811-19.6025" style="fill:none;stroke:#a7abae;stroke-miterlimit:10;stroke-width:0.5px"/><path d="M135.8589,77.3658s24.7314-2.3171,30.3672-1.9,11.0557,1.32,15.5582,4.4714,13.8567,10.07,18.0759,13.1033,6.6439,6.4292,8.679,13.2233a106.7836,106.7836,0,0,1,2.6955,12.9417" style="fill:none;stroke:#a7abae;stroke-miterlimit:10"/><path d="M211.2347,119.2056S160.9936,85.01,161.1008,84.7146s-.168-9.3852-.168-9.3852" style="fill:none;stroke:#a7abae;stroke-miterlimit:10"/><path d="M210.3344,163.0856c-3.6693,1.8143-7.62-.3328-7.62-.3328s-30.6912-21.2108-33.5408-23.19A9.26,9.26,0,0,1,165.61,135.41s-3.8782-9.1389-5.2133-12.7529,2.6373-5.3992,2.6373-5.3992c-10.9037-24.325-4.6881-22.9586-1.2678-20.5345,2.7682,1.9619,25.9994,17.4594,34.7589,23.2986a35.4136,35.4136,0,0,1,5.5787,4.6368,35.945,35.945,0,0,0,4.7182,4.13c3.2849,2.2781,5.9759,4.2139,5.9759,4.2139" style="fill:none;stroke:#a7abae;stroke-miterlimit:10;stroke-width:0.5px"/><path d="M161.2305,118.5856c-.6489.8962-1.0466,2.98,2.146,5.2565s41.0088,28.1315,41.0088,28.1315,2.09,2.5822,7.46,1.3876" style="fill:none;stroke:#a7abae;stroke-miterlimit:10;stroke-width:0.5px"/><path d="M163.0336,117.2575a17.58,17.58,0,0,1,4.8679,1.5364l18.315,12.8243a4.1911,4.1911,0,0,1,1.4441,3.1154c-.195,1.6874-.554,3.7241-.554,3.7241a4.5349,4.5349,0,0,0,2.0306,2.983" style="fill:none;stroke:#a7abae;stroke-miterlimit:10;stroke-width:0.5px"/><line x1="144.4284" y1="76.6239" x2="211.8707" y2="122.7649" style="fill:none;stroke:#a7abae;stroke-miterlimit:10;stroke-width:0.5px"/><path d="M293.92,236.2361c3.4066-5.417,7.3491-11.3883,10.9611-16.6691,4.2393-5.9163,6.424-9.7467,14.0729-5.4495l-.2544.43-1.1454-.6059c-6.732-3.1479-8.6138,1.2049-12.2095,5.9528-2.24,3.139-5.2388,7.78-7.4039,11.0344a38.1584,38.1584,0,0,1-4.0208,5.3069Z" style="fill:#a7abae"/><path d="M231.5425,118.8512c1.9426,7.0256,3.6883,14.1086,5.1806,21.2452.3894,2.281,1.1824,5.1105,1.118,7.3837-2.0589,2.9363-1.829,8.5056-2.2136,11.9652l-.8875,12.4092-1.7088,24.8244a18.6474,18.6474,0,0,0,1.0536,8.7618c1.9747,5.8519,7.0157,9.5315,11.9549,12.8289l7.3658,5.1985c2.6078,1.8331,16.0724,11.3479,18.4152,12.9959,3.4417,2.6645,7.7437,5.0375,12.2178,4.2566a13.2933,13.2933,0,0,0,4.8074-.8038l.1742.4687a13.5476,13.5476,0,0,1-4.9525.8309c-4.4575.8-8.9893-1.57-12.5358-4.3444-2.2375-1.6079-15.8467-11.1622-18.4154-12.996l-7.3661-5.1984c-2.1477-1.6116-5.3471-3.551-7.1933-5.4821a20.0137,20.0137,0,0,1-6.0246-16.55c.563-8.1845,2.0111-29.3163,2.5964-37.2366.4107-3.5967.1215-9.0837,2.3111-12.2269-1.0917-8.794-3.5928-19.1849-5.8974-28.33Z" style="fill:#a7abae"/><path d="M232.4073,119.0121a1.46,1.46,0,0,1,.5119-1.8217c1.8824-.635,3.64,1.0864,5.078,1.9965l5.632,4.1928c7.08,5.3157,26.26,19.8214,33.5732,25.3542,3.6549,2.7751,13.2073,10.0211,16.7713,12.6862,5.7682,4.0308,11.1646,9.4237,13.1544,16.3672l3.7895,13.5036-.9621.2727-3.89-13.4711c-1.9625-6.6345-7.2486-11.7978-12.8148-15.7007-3.5255-2.6338-13.1464-9.9275-16.785-12.6878-7.3582-5.6187-26.3152-20.0934-33.4425-25.5216l-5.592-4.214c-1.2937-.88-2.7269-2.1186-4.2508-2.1615-.3821.0369-.63.6279-.7731,1.2052Z" style="fill:#a7abae"/><path d="M309.27,193.6129l-65.8072-48.039a8.6444,8.6444,0,0,1-4.0433.51l-1.7787,1.2468" style="fill:none;stroke:#a7abae;stroke-miterlimit:10;stroke-width:0.5px"/><path d="M243.4625,145.5739s-3.8461-20.1726-6.3238-26.4181" style="fill:none;stroke:#a7abae;stroke-miterlimit:10"/><path d="M294.1756,162.3257s4.9069,16.0692,6.5507,25.0506" style="fill:none;stroke:#a7abae;stroke-miterlimit:10"/><path d="M298.5235,165.79s5.06,15.0172,6.3295,24.5985" style="fill:none;stroke:#a7abae;stroke-miterlimit:10"/><line x1="242.6666" y1="141.5493" x2="299.9356" y2="183.5571" style="fill:none;stroke:#a7abae;stroke-miterlimit:10"/><line x1="304.2348" y1="186.6792" x2="311.5665" y2="192.2924" style="fill:none;stroke:#a7abae;stroke-miterlimit:10"/><path d="M304.2348,198.0048s-56.907-40.28-59.61-42.2393-5.2726-.8594-3.1283,5.7448,5.4562,15.554,5.4562,15.554l-1.9223,1.3824s-.6937.84.0646,3.6108,4.0667,11.524,4.0667,11.524a15.52,15.52,0,0,0,4.2556,5.0639c2.737,1.9815,40.1392,27.3717,40.1392,27.3717a6.3841,6.3841,0,0,0,6.5152,1.2118" style="fill:none;stroke:#a7abae;stroke-miterlimit:10;stroke-width:0.5px"/><path d="M246.9524,177.0643a10.9849,10.9849,0,0,0,4.4306,1.1345l18.2826,13.0223s1.055-1.0414,3.133.28,32.49,23.26,32.49,23.26a4.1807,4.1807,0,0,1,1.3593,2.8526" style="fill:none;stroke:#a7abae;stroke-miterlimit:10;stroke-width:0.5px"/><path d="M245.03,178.4467s-.386,1.7246,2.4688,3.9982,51.986,37.1032,51.986,37.1032,1.5222,1.3763,5.3207.6162" style="fill:none;stroke:#a7abae;stroke-miterlimit:10;stroke-width:0.5px"/><path d="M187.6606,134.7336c.3193-2.8569,1.1113-3.922,4.3948-1.72s19.6764,13.9907,19.6764,13.9907a6.3041,6.3041,0,0,1,1.3964,4.4945" style="fill:none;stroke:#a7abae;stroke-miterlimit:10;stroke-width:0.5px"/><path d="M193.5892,156.446a70.7332,70.7332,0,0,1-1.849,8.83s-3.7794,5.87-11.0778,1.6229-35.5045-25.9332-37.73-27.9239a12.5951,12.5951,0,0,1-3.9557-8.0463,96.4023,96.4023,0,0,1,.547-10.2293c.2888-1.9922,2.8245-5.3213,9.631-1.132l14.3363,10.7912" style="fill:none;stroke:#a7abae;stroke-miterlimit:10;stroke-width:0.5px"/><line x1="155.3128" y1="124.2024" x2="153.9098" y2="147.6079" style="fill:none;stroke:#a7abae;stroke-miterlimit:10;stroke-width:0.5px"/><path d="M154.7086,133.8052c.017-.27,38.0093,27.4862,38.0093,27.4862" style="fill:none;stroke:#a7abae;stroke-miterlimit:10;stroke-width:0.5px"/><path d="M121.5981,126.7161a14.7669,14.7669,0,0,0,3.0766,3.2262c4.2089,3.3436,110.9275,86.24,110.9275,86.24" style="fill:none;stroke:#a7abae;stroke-miterlimit:10;stroke-width:0.5px"/><path d="M208.6805,106.0577l10.968,7.6689c3.3058,2.1558,7.9659,6.47,11.8611,3.2827-3.8531,3.2772-8.6519-.9751-12.0041-3.0776L208.3979,106.47l.2826-.4124Z" style="fill:#a7abae"/><path d="M225.6836,117.7615c-1.7862,2.3158-.87,5.4727-.2828,8.0651,1.3847,5.4177,2.6847,10.8534,3.8455,16.3244.7294,2.6586.7116,5.5612,1.3059,8.2108,1.5146,1.8446,4.1861,4.48,4.528,7.289l-.4993-.0292c-.4624-2.7215-2.7868-4.9321-4.4778-7.0312-.6416-2.8568-.4986-5.5533-1.2247-8.3656-1.0772-5.4793-2.2966-10.9365-3.5986-16.3675-.5516-2.6094-1.4214-5.8025.4038-8.0958Z" style="fill:#a7abae"/><polyline points="213.025 135.298 229.856 146.975 237.515 145.558" style="fill:none;stroke:#a7abae;stroke-miterlimit:10;stroke-width:0.5px"/><path d="M248.3259,191.3449c-.0552-.149-4.8169-2.6889-4.8169-2.6889s-7.8333-2.3093-8.102.9843-.53,11.3531-.53,11.3531.0091,5.0454,2.7213,7.0441,33.783,23.6151,35.9379,24.6979,6.3766,1.3294,7.63-1.1614,5.3782-10.32,5.3782-10.32" style="fill:none;stroke:#a7abae;stroke-miterlimit:10;stroke-width:0.5px"/><line x1="250.9706" y1="196.2941" x2="249.8116" y2="216.597" style="fill:none;stroke:#a7abae;stroke-miterlimit:10;stroke-width:0.5px"/><line x1="250.6436" y1="202.0219" x2="284.1555" y2="225.8036" style="fill:none;stroke:#a7abae;stroke-miterlimit:10;stroke-width:0.5px"/><line x1="235.5982" y1="216.187" x2="279.238" y2="247.644" style="fill:none;stroke:#a7abae;stroke-miterlimit:10;stroke-width:0.5px"/><polyline points="230.324 150.462 225.433 149.54 219.636 203.548" style="fill:none;stroke:#a7abae;stroke-miterlimit:10;stroke-width:0.5px"/></g><g id="e8c6d192-0a95-4f5a-9b5d-9cbcf1a63714" data-name="mats"><path d="M229.5414,225.0229a1.7568,1.7568,0,0,0-.7172-1.5776c-4.89-3.1623-15.3217-11.7125-20.4282-15.2919a4.2319,4.2319,0,0,0-5.0461.2241l-5.8985,4.3329a3.2415,3.2415,0,0,1-4.5933-.4691c-1.2992-1.5775-3.0085-3.6661-4.3943-5.4054a4.1244,4.1244,0,0,0-5.9035-.6459l-26.004,19.2319a3.2966,3.2966,0,0,0-1.2544,2.3545l-.0453,1.1454a2.8809,2.8809,0,0,0,.6352,2.122c1.7437,1.9953,4.1784,4.7686,5.8554,6.6264a2.1285,2.1285,0,0,1,.503,1.0792,2.5792,2.5792,0,0,1-.9535,1.4906l-18.9446,13.7209a4.6042,4.6042,0,0,1-6.3885-.6611c-1.29-1.5189-2.8212-3.3257-4.0974-4.8418a4.0279,4.0279,0,0,0-5.6183-.5782L99.7521,266.6914a3.1337,3.1337,0,0,0-1.2386,2.4048l-.0646,1.2383a2.6646,2.6646,0,0,0,.4976,1.6009,59.0218,59.0218,0,0,0,5.87,6.7738,1.5651,1.5651,0,0,1,.4378.8108h0a2.0334,2.0334,0,0,1-.7133,1.0377l-5.9595,4.415a3.1842,3.1842,0,0,0-1.2175,2.2955l-.0642,1.1343a2.61,2.61,0,0,0,.8867,2.2812c4.3109,3.36,12.7181,9.69,19.5341,13.467a6.6252,6.6252,0,0,0,7.167-.6487l103.7722-75.6967a2.1734,2.1734,0,0,0,.8282-1.5149Z" style="fill:#d3d5d6;stroke:#000001;stroke-miterlimit:10"/><line x1="194.2473" y1="214.0078" x2="163.1229" y2="236.9751" style="fill:none;stroke:#000001;stroke-miterlimit:10;stroke-width:0.5px"/><line x1="135.7754" y1="256.2951" x2="106.3668" y2="277.2265" style="fill:none;stroke:#000001;stroke-miterlimit:10;stroke-width:0.5px"/><path d="M116.8529,289.1464c-.7512-.0263-4.8145-.1685-5.4894-.1269a1.3415,1.3415,0,0,0-.7015.2281h0l0,0a.7844.7844,0,0,0-.3475.5067c-.0952.4978-.1408,3.5183-.1493,4.0767.0029.0483.0838.0707.13.038.19-.133.63-.44.8953-.626.0934-.0655.1055-.097.1045-.1851l-.0062-.5266a21.6869,21.6869,0,0,1,.1264-2.2933.4233.4233,0,0,1,.171-.2626h0l0,0a.6977.6977,0,0,1,.3629-.1114c.5956-.0238,2.34.0015,3.0906.04l.7076.0353a.3213.3213,0,0,0,.2549-.0666c.2649-.1856.7039-.4942.8938-.6272.0467-.0327.0213-.0941-.0435-.099" style="fill:#7f8284"/><path d="M110.643,294.2074c.7513.0263,4.8147.1685,5.4895.1269a1.3423,1.3423,0,0,0,.7015-.228l0,0h0a.7848.7848,0,0,0,.3475-.5068c.0952-.4978.1409-3.5182.1493-4.0767-.003-.0483-.0839-.0707-.1306-.038-.19.133-.63.4405-.8953.626-.0934.0655-.1054.097-.1044.1851l.0062.5266a21.6888,21.6888,0,0,1-.1264,2.2934.4242.4242,0,0,1-.171.2625h0l0,0a.6971.6971,0,0,1-.3628.1114c-.5957.0238-2.34-.0015-3.0906-.04l-.7076-.0353a.3213.3213,0,0,0-.2549.0666c-.2649.1856-.7039.4943-.8938.6272-.0467.0328-.0214.0941.0434.099" style="fill:#7f8284"/><path d="M114.1638,292.3736c-.3161.0033-.8889-.0038-1.1228-.0227a.3106.3106,0,0,1-.1694-.0631.1908.1908,0,0,1-.075-.1293,7.1948,7.1948,0,0,1,.0349-.8336.1886.1886,0,0,0-.0891-.198c-.2326-.183-.6687-.5264-.8342-.6567-.0335-.0263-.0956-.0138-.1.0307-.0463.5254-.0973,1.7372-.0734,2.176a.3774.3774,0,0,0,.1513.3011h0a.6428.6428,0,0,0,.3959.13c.5884.0433,2.2206.0761,2.93.0725.0616-.0018.0838-.0433.0444-.0742l-.8316-.6547a.3486.3486,0,0,0-.2609-.0776" style="fill:#7f8284"/><path d="M114.6613,292.0261a7.1965,7.1965,0,0,0,.0348-.8337.19.19,0,0,0-.075-.1292h0a.31.31,0,0,0-.1693-.0631c-.2339-.019-.8068-.0261-1.1228-.0228a.3483.3483,0,0,1-.2609-.0776l-.8315-.6546c-.0395-.031-.0174-.0726.0443-.0742.709-.0037,2.3412.0291,2.93.0724a.6439.6439,0,0,1,.3959.13.3774.3774,0,0,1,.1512.3011c.024.4387-.027,1.6506-.0733,2.176a.0608.0608,0,0,1-.1023.0286l-.8317-.6546a.1885.1885,0,0,1-.0891-.1979" style="fill:#7f8284"/><path d="M214.9173,218.3313c-.7516-.0122-4.8166-.0779-5.4906-.0237a1.3433,1.3433,0,0,0-.6972.2413h0l0,0a.7852.7852,0,0,0-.3383.5132c-.0862.5-.0775,3.52-.0758,4.079.0037.0482.085.0691.1311.0355.1875-.1365.6224-.4523.8839-.6428.0922-.0672.1037-.0989.1011-.187l-.0157-.5264a21.6714,21.6714,0,0,1,.0851-2.2954.4234.4234,0,0,1,.1662-.2657v0l0,0a.6985.6985,0,0,1,.3608-.1182c.5951-.035,2.3391-.0425,3.0907-.0182l.7081.0219a.3211.3211,0,0,0,.2536-.0714c.2615-.19.6949-.5074.8823-.6439.0461-.0336.02-.0944-.0452-.0981" style="fill:#7f8284"/><path d="M208.8,223.5084c.7516.0122,4.8166.0779,5.4906.0236a1.3439,1.3439,0,0,0,.6973-.2411l0,0v0a.7854.7854,0,0,0,.3383-.5132c.0862-.5.0775-3.52.0758-4.079-.0038-.0483-.0851-.0691-.1312-.0355-.1874.1365-.6223.4523-.8838.6428-.0922.0671-.1037.0989-.1011.1869l.0157.5265a21.6724,21.6724,0,0,1-.0851,2.2954.4242.4242,0,0,1-.1662.2657l0,0h0a.6971.6971,0,0,1-.3608.1183c-.5951.035-2.3391.0425-3.0906.0182l-.7081-.022a.3219.3219,0,0,0-.2536.0714c-.2615.1906-.6949.5074-.8823.644-.0462.0336-.02.0944.0452.0981" style="fill:#7f8284"/><path d="M212.2868,221.6086c-.3159.0092-.8888.0129-1.123-.0016a.31.31,0,0,1-.17-.06.19.19,0,0,1-.0773-.1278,7.18,7.18,0,0,1,.02-.8342.1886.1886,0,0,0-.0928-.1963l-.8458-.6409c-.034-.0257-.0958-.012-.0992.0326-.0368.5262-.066,1.7388-.0341,2.177a.3769.3769,0,0,0,.1566.2983h0a.6424.6424,0,0,0,.3982.1221c.5891.0323,2.2215.0343,2.93.0173.0617-.0028.0831-.0448.0431-.075l-.8432-.6389a.3484.3484,0,0,0-.2623-.0727" style="fill:#7f8284"/><path d="M212.7779,221.2518a7.1823,7.1823,0,0,0,.02-.8343.19.19,0,0,0-.0773-.1277v0a.31.31,0,0,0-.17-.06c-.2341-.0145-.8071-.0109-1.1229-.0015a.3488.3488,0,0,1-.2623-.0728l-.8431-.6389c-.04-.03-.0187-.0722.043-.075.7088-.017,2.3412-.015,2.93.0173a.6432.6432,0,0,1,.3982.1222.3771.3771,0,0,1,.1566.2982c.0319.4382.0027,1.6508-.0341,2.1771a.0609.0609,0,0,1-.1018.03l-.8432-.6388a.1886.1886,0,0,1-.0928-.1962" style="fill:#7f8284"/><ellipse cx="121.6829" cy="300.2543" rx="3.4324" ry="2.4281" transform="translate(-43.3915 21.4895) rotate(-8.5714)" style="fill:#f2a900;stroke:#000001;stroke-miterlimit:10;stroke-width:0.5px"/><ellipse cx="172.1221" cy="264.2133" rx="3.4324" ry="2.4281" transform="translate(-37.4567 28.6047) rotate(-8.5715)" style="fill:#f2a900;stroke:#000001;stroke-miterlimit:10;stroke-width:0.5px"/><ellipse cx="223.4482" cy="225.9362" rx="3.4327" ry="2.4278" transform="translate(-34.8544 40.8523) rotate(-9.6941)" style="fill:#f2a900;stroke:#000001;stroke-miterlimit:10;stroke-width:0.5px"/><path d="M98.5135,269.0962a2.7021,2.7021,0,0,0,.4947,1.7374,59.03,59.03,0,0,0,5.8694,6.7738,1.9023,1.9023,0,0,1,.3762,1.9126" style="fill:none;stroke:#000001;stroke-miterlimit:10;stroke-width:0.5px"/><path d="M155.3019,227.7764a2.8923,2.8923,0,0,0,.6317,2.1646c1.7437,1.9953,4.1785,4.7686,5.8554,6.6264a2.43,2.43,0,0,1,.4612,2.182" style="fill:none;stroke:#000001;stroke-miterlimit:10;stroke-width:0.5px"/><path d="M97.3635,287.2682a2.6191,2.6191,0,0,0,.8842,2.3137c4.3109,3.36,12.7181,9.69,19.5341,13.467a6.6254,6.6254,0,0,0,7.167-.6487l103.7523-75.6978a2.1977,2.1977,0,0,0,.84-1.68" style="fill:none;stroke:#000001;stroke-miterlimit:10;stroke-width:0.5px"/><path d="M28.1843,219.7777a.0673.0673,0,0,1,.0344-.06l9.2193-6.0088a1.46,1.46,0,0,0,.486-.4986,1.8747,1.8747,0,0,0-.6129-.6383L22.9022,203.36a1.536,1.536,0,0,1-.764-1.1523l-.036-1.0546a1.1081,1.1081,0,0,1,.4048-.887l19.3139-12.2152a2.9807,2.9807,0,0,1,3.3572-.0116c2.2784,1.5443,4.1607,2.9287,6.3122,4.47a3.18,3.18,0,0,0,3.3138.1792l10.7907-6.3579a3.0773,3.0773,0,0,1,3.1394.1253l41.0473,29.9752a1.6124,1.6124,0,0,1,.8748,1.1151l.0761,1.1927a1.1937,1.1937,0,0,1-.5747.98l-41.7,28.92a3.0848,3.0848,0,0,1-3.1955-.0678L28.2615,220.8949a.0926.0926,0,0,1-.04-.0542Z" style="fill:#d3d5d6;stroke:#000001;stroke-miterlimit:10"/><path d="M59.8431,232.4957c-.79-.025-5.0632-.16-5.7652-.1206a1.3574,1.3574,0,0,0-.7077.2178l0,0h0a.6382.6382,0,0,0-.3039.4838c-.0406.4753.27,3.3588.3275,3.8919.0087.0461.0961.0675.1412.0362.1831-.127.608-.4206.8635-.5977.09-.0625.099-.0926.0874-.1767l-.069-.5027a18.9054,18.9054,0,0,1-.14-2.1894.3457.3457,0,0,1,.1479-.2506l0,0h0a.6973.6973,0,0,1,.3669-.1064c.6211-.0228,2.4508.0012,3.2421.0378l.7454.0336a.3319.3319,0,0,0,.259-.0637c.2555-.1771.6788-.4718.8618-.5988.0451-.0312.0113-.09-.0572-.0945" style="fill:#7f8284"/><path d="M53.9389,237.3278c.79.0251,5.0633.16,5.7653.1207a1.36,1.36,0,0,0,.7078-.2178v0h0a.6378.6378,0,0,0,.3038-.4838c.0407-.4753-.27-3.3587-.3274-3.8919-.0088-.0461-.0962-.0675-.1412-.0362-.1831.1269-.6081.4205-.8636.5977-.09.0625-.0989.0926-.0874.1766l.069.5028a18.8819,18.8819,0,0,1,.14,2.1894.3457.3457,0,0,1-.1479.2506h0l0,0a.6989.6989,0,0,1-.3668.1064c-.6212.0228-2.4509-.0012-3.2422-.0378l-.7453-.0336a.3322.3322,0,0,0-.2591.0636c-.2554.1772-.6787.4719-.8618.5989-.045.0312-.0112.09.0572.0944" style="fill:#7f8284"/><path d="M57.4092,235.5768c-.3306.0032-.9315-.0035-1.1788-.0215a.386.386,0,0,1-.1849-.06.2151.2151,0,0,1-.0939-.1233,6.303,6.303,0,0,1-.0623-.7959.2.2,0,0,0-.117-.189l-.9517-.6268c-.0382-.0251-.1017-.0132-.1009.0293a20.6241,20.6241,0,0,0,.1815,2.0773.4172.4172,0,0,0,.1941.2874l0,0,0,0a.7953.7953,0,0,0,.43.1237c.6215.0413,2.3351.0725,3.0774.0689.0644-.0016.0827-.0413.0377-.0708l-.9487-.6249a.4276.4276,0,0,0-.2826-.0741" style="fill:#7f8284"/><path d="M57.8891,235.245a6.3019,6.3019,0,0,0-.0624-.7959.2147.2147,0,0,0-.0939-.1233h0a.3853.3853,0,0,0-.1849-.06c-.2472-.0181-.8482-.0249-1.1788-.0216a.4274.4274,0,0,1-.2825-.0741l-.9487-.6249c-.0451-.0295-.0268-.0692.0376-.0708.7423-.0036,2.4559.0275,3.0774.0689a.7964.7964,0,0,1,.43.1237.4178.4178,0,0,1,.1941.2874,20.6542,20.6542,0,0,1,.1814,2.0773c-.0008.0435-.0589.0569-.1038.0273l-.9488-.6248a.2.2,0,0,1-.1169-.189" style="fill:#7f8284"/><ellipse cx="66.9773" cy="243.4322" rx="3.5578" ry="2.3425" transform="translate(-6.2931 1.8196) rotate(-1.4866)" style="fill:#f2a900;stroke:#000001;stroke-miterlimit:10;stroke-width:0.5px"/><ellipse cx="102.3473" cy="219.0454" rx="3.5577" ry="2.3425" transform="translate(-5.6478 2.7287) rotate(-1.4865)" style="fill:#f2a900;stroke:#000001;stroke-miterlimit:10;stroke-width:0.5px"/><path d="M37.9106,213.219a1.3,1.3,0,0,0-.6354-1.7l-14.4089-9.2119a1.5355,1.5355,0,0,1-.7641-1.1536" style="fill:none;stroke:#000001;stroke-miterlimit:10;stroke-width:0.5px"/><path d="M110.6563,217.1408a1.1607,1.1607,0,0,1-.5647,1.12l-41.7,28.92a3.0848,3.0848,0,0,1-3.1955-.0678l-36.97-27.6776a.0864.0864,0,0,1-.0414-.0638" style="fill:none;stroke:#000001;stroke-miterlimit:10;stroke-width:0.5px"/><path d="M81.09,167.17a1.1342,1.1342,0,0,0,.5647.79l45.44,36.8543a2.2665,2.2665,0,0,0,2.5525.1972l38.5338-26.7244a.8823.8823,0,0,0,.4241-.7223l-.059-.9593a1.1028,1.1028,0,0,0-.5586-.839L120.09,139.9187a2.3183,2.3183,0,0,0-2.2436-.1232c-4.7787,2.6672-22.8868,15.4952-36.4315,25.6628a.8576.8576,0,0,0-.385.7649Z" style="fill:#d3d5d6;stroke:#000001;stroke-miterlimit:10"/><path d="M154.2152,168.4817c-.6961-.022-4.4614-.1413-5.08-.1062a1.1959,1.1959,0,0,0-.6236.1919h0l0,0a.5623.5623,0,0,0-.2677.4263c-.0358.4187.2379,2.9594.2885,3.4292.0077.0406.0848.0594.1245.0319.1613-.1119.5357-.3706.7608-.5267.0794-.055.0872-.0815.0771-.1556l-.0608-.443a16.6231,16.6231,0,0,1-.1231-1.9291.3045.3045,0,0,1,.13-.2209h0l0,0a.6164.6164,0,0,1,.3233-.0937c.5472-.02,2.16.001,2.8567.0333l.6568.03a.292.292,0,0,0,.2282-.0561c.2252-.1561.5981-.4157.7594-.5276.04-.0275.01-.0791-.05-.0833" style="fill:#7f8284"/><path d="M149.0129,172.74c.6961.022,4.4613.1412,5.08.1062a1.197,1.197,0,0,0,.6236-.1918l0,0h0a.5629.5629,0,0,0,.2677-.4264c.0358-.4187-.2379-2.9594-.2886-3.4292-.0077-.0406-.0847-.0594-.1244-.0319-.1613.1119-.5358.3706-.7609.5266-.0794.0551-.0871.0816-.077.1557l.0607.443a16.6231,16.6231,0,0,1,.1232,1.9291.3048.3048,0,0,1-.13.2209h0l0,0a.617.617,0,0,1-.3233.0937c-.5472.02-2.16-.001-2.8567-.0333l-.6568-.03a.2926.2926,0,0,0-.2282.056c-.2251.1562-.5981.4158-.7594.5277-.04.0275-.01.0791.05.0833" style="fill:#7f8284"/><path d="M152.0706,171.1966c-.2913.0028-.8208-.0031-1.0387-.019a.34.34,0,0,1-.1629-.0531.189.189,0,0,1-.0827-.1087,5.5752,5.5752,0,0,1-.055-.7013.1766.1766,0,0,0-.103-.1665l-.8386-.5523c-.0337-.0221-.09-.0116-.0889.0259a18.1948,18.1948,0,0,0,.16,1.83.3678.3678,0,0,0,.171.2533h0a.7022.7022,0,0,0,.3791.109c.5476.0364,2.0575.0638,2.7115.0607.0568-.0015.0729-.0364.0332-.0624l-.8359-.5507a.3769.3769,0,0,0-.249-.0652" style="fill:#7f8284"/><path d="M152.4934,170.9042a5.5379,5.5379,0,0,0-.055-.7013.1886.1886,0,0,0-.0827-.1086l0,0,0,0a.3392.3392,0,0,0-.1629-.0531c-.2178-.0159-.7473-.0219-1.0386-.019a.3769.3769,0,0,1-.249-.0653l-.8359-.5506c-.04-.0261-.0236-.061.0331-.0624.6541-.0032,2.164.0243,2.7116.0607a.701.701,0,0,1,.379.109.3681.3681,0,0,1,.1711.2532,18.2262,18.2262,0,0,1,.16,1.83c-.0007.0383-.052.05-.0915.024l-.836-.55a.1765.1765,0,0,1-.1031-.1665" style="fill:#7f8284"/><ellipse cx="128.6309" cy="200.0865" rx="3.1348" ry="2.0641" transform="translate(-5.1501 3.4061) rotate(-1.4873)" style="fill:#f2a900;stroke:#000001;stroke-miterlimit:10;stroke-width:0.5px"/><path d="M81.0573,165.7629a1.1239,1.1239,0,0,0,.5667.81l45.44,36.8543a2.2663,2.2663,0,0,0,2.5524.1971L168.1505,176.9a.8745.8745,0,0,0,.4234-.7549" style="fill:none;stroke:#000001;stroke-miterlimit:10;stroke-width:0.5px"/><ellipse cx="161.6779" cy="176.8054" rx="3.3634" ry="2.2146" transform="translate(-4.5332 4.2546) rotate(-1.4868)" style="fill:#f2a900;stroke:#000001;stroke-miterlimit:10;stroke-width:0.5px"/><polygon points="102.212 197.558 120.714 211.558 125.164 208.931 125.164 207.064 106.662 193.064 102.212 195.691 102.212 197.558" style="fill:none;stroke:#a7abae;stroke-miterlimit:10;stroke-width:0.5px"/><polyline points="102.212 195.691 120.714 209.691 125.164 207.064" style="fill:none;stroke:#a7abae;stroke-miterlimit:10;stroke-width:0.25px"/><line x1="120.7144" y1="209.691" x2="120.7144" y2="211.5576" style="fill:none;stroke:#a7abae;stroke-miterlimit:10;stroke-width:0.25px"/><polygon points="95.437 203.101 113.939 217.101 118.388 214.473 118.388 212.607 99.886 198.607 95.437 201.234 95.437 203.101" style="fill:none;stroke:#a7abae;stroke-miterlimit:10;stroke-width:0.5px"/><polyline points="95.437 201.234 113.939 215.234 118.388 212.607" style="fill:none;stroke:#a7abae;stroke-miterlimit:10;stroke-width:0.25px"/><line x1="113.9386" y1="215.234" x2="113.9386" y2="217.1005" style="fill:none;stroke:#a7abae;stroke-miterlimit:10;stroke-width:0.25px"/><polygon points="41.731 241.949 60.233 255.949 64.682 253.322 64.682 251.455 46.18 237.456 41.731 240.083 41.731 241.949" style="fill:none;stroke:#a7abae;stroke-miterlimit:10;stroke-width:0.5px"/><polyline points="41.731 240.083 60.233 254.082 64.682 251.455" style="fill:none;stroke:#a7abae;stroke-miterlimit:10;stroke-width:0.25px"/><line x1="60.2326" y1="254.0823" x2="60.2326" y2="255.9488" style="fill:none;stroke:#a7abae;stroke-miterlimit:10;stroke-width:0.25px"/><polygon points="90.737 296.687 109.238 310.686 113.688 308.059 113.688 306.193 95.186 292.193 90.737 294.82 90.737 296.687" style="fill:none;stroke:#a7abae;stroke-miterlimit:10;stroke-width:0.5px"/><polyline points="90.737 294.82 109.238 308.82 113.688 306.193" style="fill:none;stroke:#a7abae;stroke-miterlimit:10;stroke-width:0.25px"/><line x1="109.2385" y1="308.8198" x2="109.2385" y2="310.6863" style="fill:none;stroke:#a7abae;stroke-miterlimit:10;stroke-width:0.25px"/><polygon points="215.259 210.481 233.761 224.481 238.211 221.853 238.211 219.987 219.709 205.987 215.259 208.614 215.259 210.481" style="fill:none;stroke:#a7abae;stroke-miterlimit:10;stroke-width:0.5px"/><polyline points="215.259 208.614 233.761 222.614 238.211 219.987" style="fill:none;stroke:#a7abae;stroke-miterlimit:10;stroke-width:0.25px"/><line x1="233.7608" y1="222.614" x2="233.7608" y2="224.4805" style="fill:none;stroke:#a7abae;stroke-miterlimit:10;stroke-width:0.25px"/><polygon points="151.558 161.808 170.06 175.808 174.51 173.181 174.51 171.314 156.008 157.315 151.558 159.942 151.558 161.808" style="fill:none;stroke:#a7abae;stroke-miterlimit:10;stroke-width:0.5px"/><polyline points="151.558 159.942 170.06 173.941 174.51 171.314" style="fill:none;stroke:#a7abae;stroke-miterlimit:10;stroke-width:0.25px"/><line x1="170.0597" y1="173.9412" x2="170.0597" y2="175.8077" style="fill:none;stroke:#a7abae;stroke-miterlimit:10;stroke-width:0.25px"/></g><g id="bf97719d-5dde-4dd7-9644-cb315ea7dfac" data-name="above"><g id="a93fb64a-a01c-496d-90bb-30f830ad55e6" data-name="Offset Group"><path d="M187.6377,74.8166a8.5075,8.5075,0,0,0,2.5739-2.9279,11.866,11.866,0,0,0,.7918-5.2267,7.9249,7.9249,0,0,0-1.5192-4.9378,12.31,12.31,0,0,0-4.41-3.7731c-3.0143-1.49-7.1309-1.9065-13.748-1.9065q-.4164,0-.8566-.0012c-5.1694-.0111-13.01-.0643-18.2145,3.6065" style="fill:none;stroke:#a7abae;stroke-linecap:round;stroke-linejoin:round;stroke-width:0.5px"/><path d="M187.4823,74.6207a8.2636,8.2636,0,0,0,2.5042-2.8408,11.6363,11.6363,0,0,0,.7669-5.1179,7.6767,7.6767,0,0,0-1.4678-4.786,12.0627,12.0627,0,0,0-4.322-3.7008c-2.9558-1.4608-7.0169-1.8806-13.6373-1.8806q-.4169,0-.8571-.0012c-5.1933-.0112-12.9428-.0551-18.07,3.5608" style="fill:none;stroke:#a7abae;stroke-linecap:round;stroke-linejoin:round;stroke-width:0.5px"/><path d="M187.3269,74.4248a8.0219,8.0219,0,0,0,2.4345-2.7536,11.4071,11.4071,0,0,0,.742-5.0092,7.4274,7.4274,0,0,0-1.4164-4.6341,11.813,11.813,0,0,0-4.2342-3.6285c-2.8972-1.4319-6.9028-1.8548-13.5265-1.8548q-.4173,0-.8577-.0012c-5.2171-.0112-12.876-.0458-17.9252,3.5151" style="fill:none;stroke:#a7abae;stroke-linecap:round;stroke-linejoin:round;stroke-width:0.5px"/><path d="M187.1715,74.229a7.78,7.78,0,0,0,2.3648-2.6666,11.18,11.18,0,0,0,.7171-4.9,7.18,7.18,0,0,0-1.365-4.4823,11.5643,11.5643,0,0,0-4.1464-3.5562c-2.8386-1.4029-6.7887-1.8289-13.4157-1.8289q-.4178,0-.8582-.0012c-5.2411-.0113-12.8093-.0366-17.7806,3.4694" style="fill:none;stroke:#a7abae;stroke-linecap:round;stroke-linejoin:round;stroke-width:0.5px"/></g><path d="M187.0161,74.0331c2.5336-2.01,2.9873-3.3153,2.9873-7.3711a6.9309,6.9309,0,0,0-1.3136-4.33c-3.2183-4.2092-6.855-5.287-17.3635-5.287-5.2822,0-13.3286-.2209-18.4947,3.4225" style="fill:none;stroke:#a7abae;stroke-linecap:round;stroke-linejoin:round;stroke-width:0.5px"/><g id="f4bc671c-160a-4220-9c52-3a4982c5ca04" data-name="Offset Group"><path d="M182.3229,400.6281c-.0193-.0061-.0477-.0143-.0965-.088-.2661-.4013-.41-1.5345-.1761-3.9249.4374-4.4613,2.1079-9.69,5.1626-15.9794,1.4867-3.0609,3.3306-5.0967,5.5268-5.9535a7.0984,7.0984,0,0,1,3.1016-.4515,12.8686,12.8686,0,0,1,5.308,1.7653c7.2883,4.049,26.4684,16.9841,34.89,23.142,8.2944,6.0647,13.0962,11.7453,18.6562,22.1478,5.1035,9.5485,11.5184,27.9956,13.41,33.4387.1721.4951.3072.8839.3995,1.1456a10.49,10.49,0,0,0,2.3083,4.151,8.3328,8.3328,0,0,0,3.2959,1.9014,14.1829,14.1829,0,0,0,4.622.829c.5535.0224,1.0611.0435,1.6422.1228.6057.0826,4.0731.7391,8.848,1.6438,10.0361,1.9015,25.6785,4.8658,31.3188,5.61.6614.0872,1.2913.1721,1.895.2534,6.8332.9209,10.3375,1.4067,15.7707-.7979l3.8559-.1794,6.9758-2.1978,1.1409-1.141,22.0174-10.6075,2.5586.0914.2361-.125s15.667-8.291,38.0166-24.5535c22.3438-16.2583,32.6594-26.3866,32.6594-26.3866l.0987-.097,2.1667-3.7916s15.24-13.9145,15.2982-13.9721c3.3147-3.5662,4.9943-5.8991,6.3512-9.5354,1.3259-3.5536,2.5286-7.3416,3.03-8.956a6.4914,6.4914,0,0,0,.2916-1.9307V360.24a4.4526,4.4526,0,0,0-1.032-2.85l-2.288-2.7456a66.7456,66.7456,0,0,0,4.36-22.8306,109.3814,109.3814,0,0,0-.9385-13.3194c-.1394-1.2658-.2912-2.6444-.4536-4.1867-.8591-8.1615-2.4391-11.1591-8.7541-16.8184-7.0919-6.3555-71.6307-54.4-128.3767-94.0972-3.6211-2.5331-4.3075-3.6954-7.6736-9.9744,0,0-11.0877-20.0357-11.12-20.09a45.6853,45.6853,0,0,0-10.5071-11.8318c-14.3807-12.131-48.2-37.0778-70.5949-53.5984q-1.4026-1.0347-2.7434-2.0239C210.4919,89.4279,183.6466,70.89,176.914,67.1806c-6.8248-3.7607-25.23-8.78-47.6053-10.0343C82.1843,24.44,41.3222,2.8491,36.09.5085c-5.4352-2.4316-10.3409-2.2418-24.9395-1.534-20.05.9722-24.4391,2.9537-32.2321,6.5311-.9616.4414-1.971.9048-3.0705,1.3934-7.3847,3.2821-24.7125,11.3342-49.2536,28.24-24.57,16.9263-41.9075,35.7615-47.12,42.0716-5.3469,6.4725-7.1469,10.0984-10.146,30.8194-2.9916,20.6692-2.33,28.6579-1.5118,36.9891-1.192,10.5657-.2932,18.18,2.2663,32.6331a4.4791,4.4791,0,0,0,1.3393,2.48l3.2834,3.09a2.0968,2.0968,0,0,0,1.0339.531,2.0966,2.0966,0,0,0,1.1578-.101l4.2441-1.6345" style="fill:none;stroke:#a7abae;stroke-linecap:round;stroke-linejoin:round;stroke-width:0.5px"/><path d="M182.2485,400.8667a.4134.4134,0,0,1-.2305-.1884c-.3237-.4883-.4488-1.7176-.2165-4.0875.4414-4.5019,2.1249-9.761,5.1865-16.0643,1.5-3.0889,3.3819-5.188,5.6609-6.0771a7.3462,7.3462,0,0,1,3.2093-.4681,13.1164,13.1164,0,0,1,5.4125,1.7962c7.3021,4.0567,26.4921,16.9992,34.9163,23.1588,8.3287,6.09,13.154,11.8008,18.7292,22.2318,5.1149,9.57,11.5366,28.0387,13.426,33.4745.1722.4953.3071.8834.3992,1.1443a10.2518,10.2518,0,0,0,2.2485,4.0568,8.0867,8.0867,0,0,0,3.2012,1.8425,13.9332,13.9332,0,0,0,4.5508.8156c.5529.0224,1.0715.0438,1.6659.1249.6142.0837,4.0926.7424,8.8608,1.6459,10.0412,1.9025,25.6736,4.8647,31.3049,5.6073.6617.0873,1.2921.1722,1.8957.2536,6.851.9232,10.295,1.3976,15.6829-.798l3.8662-.18,6.8864-2.17,1.1277-1.1277,22.1112-10.6527,2.5536.0912.1771-.0938s15.6486-8.2807,37.9865-24.5347c22.3333-16.2507,32.6312-26.3628,32.6312-26.3628l.0741-.0727,2.1689-3.7956s15.269-13.941,15.3127-13.9842c3.3031-3.5538,4.9591-5.8589,6.3-9.4526,1.3235-3.5469,2.5246-7.33,3.0254-8.9427a6.24,6.24,0,0,0,.28-1.8566V360.24a4.2026,4.2026,0,0,0-.9741-2.69l-2.3821-2.8585a66.4867,66.4867,0,0,0,4.3961-22.8777,109.15,109.15,0,0,0-.937-13.292c-.1394-1.2658-.2913-2.6449-.4537-4.1879-.8523-8.097-2.4013-11.0385-8.6724-16.6584-7.0782-6.3432-71.6027-54.3785-128.3531-94.0785-3.6723-2.569-4.3815-3.7766-7.7491-10.0582,0,0-11.0877-20.0357-11.1122-20.0769a45.4393,45.4393,0,0,0-10.4577-11.7754c-14.3728-12.1243-48.1827-37.0647-70.5821-53.5884l-2.7435-2.0238C210.34,89.6266,183.5087,71.1,176.7934,67.4c-6.7847-3.7385-25.1781-8.7609-47.5692-10.0075C82.0838,24.6685,41.204,3.07,35.988.7367,30.62-1.6649,25.7847-1.4847,11.1627-.7758-8.8593.195-13.2166,2.17-20.9772,5.7328c-.9615.4413-1.9722.9053-3.0733,1.3947C-31.4249,10.405-48.7384,18.45-73.2638,35.3451c-24.5473,16.91-41.8678,35.7284-47.0693,42.0249-5.302,6.4183-7.094,9.9877-10.0913,30.696-2.9916,20.67-2.3257,28.633-1.5078,36.9551-1.1923,10.5423-.2995,18.1282,2.2611,32.5877a4.2287,4.2287,0,0,0,1.2644,2.3419l3.2834,3.09a1.8475,1.8475,0,0,0,.9107.4676,1.8465,1.8465,0,0,0,1.02-.0889l4.244-1.6345" style="fill:none;stroke:#a7abae;stroke-linecap:round;stroke-linejoin:round;stroke-width:0.5px"/><path d="M182.1741,401.1054a.6618.6618,0,0,1-.3645-.289c-.3813-.5752-.4872-1.9006-.2569-4.25.4454-4.5425,2.1419-9.8315,5.21-16.1491,1.514-3.117,3.4332-5.2795,5.7949-6.2008a7.5958,7.5958,0,0,1,3.317-.4846,13.36,13.36,0,0,1,5.5171,1.8271c7.3159,4.0644,26.5159,17.0141,34.9425,23.1755,8.3629,6.1148,13.2116,11.8562,18.8021,22.3157,5.1262,9.5911,11.5548,28.0818,13.4417,33.51.1722.4956.3069.883.3987,1.1432a10.0135,10.0135,0,0,0,2.1889,3.9625,7.84,7.84,0,0,0,3.1064,1.7836,13.689,13.689,0,0,0,4.48.8022c.5522.0224,1.0819.0441,1.69.1269.6226.085,4.1121.7459,8.8735,1.648,10.0463,1.9035,25.6688,4.8637,31.2911,5.6051.6621.0874,1.2928.1724,1.8964.2537,6.8692.9257,10.2522,1.3885,15.5949-.7979l3.8767-.18,6.797-2.1415,1.1144-1.1145,22.2052-10.698,2.5485.091.1181-.0625s15.63-8.2705,37.9563-24.5158c22.323-16.2432,32.6031-26.339,32.6031-26.339l.0494-.0485,2.1712-3.8s15.2981-13.9674,15.3272-13.9962c3.2915-3.5413,4.9239-5.8187,6.2489-9.37,1.321-3.54,2.5205-7.3178,3.0208-8.9294a5.9883,5.9883,0,0,0,.2692-1.7825V360.24a3.9526,3.9526,0,0,0-.9161-2.53l-2.4765-2.9719a66.2261,66.2261,0,0,0,4.4325-22.9244,108.9023,108.9023,0,0,0-.9355-13.2647c-.1394-1.2657-.2913-2.6454-.4538-4.1891-.8455-8.0324-2.3635-10.9178-8.5906-16.4983-7.0645-6.331-71.5748-54.3568-128.33-94.06-3.7235-2.6047-4.4556-3.8577-7.8245-10.142,0,0-11.0877-20.0357-11.1041-20.0631a45.1934,45.1934,0,0,0-10.4083-11.7191c-14.3648-12.1176-48.1659-37.0516-70.5693-53.5783q-1.4027-1.0346-2.7435-2.0239c-22.2957-16.45-49.1134-34.966-55.8115-38.6567-6.7443-3.7163-25.1262-8.7418-47.5329-9.9808C81.9833,24.8975,41.0858,3.2911,35.8859.9649,30.5845-1.4068,25.82-1.2361,11.1748-.5261-8.8192.4433-13.1446,2.4123-20.8729,5.96c-.9614.4413-1.9734.9059-3.0761,1.3959-7.364,3.2729-24.6633,11.3107-49.1729,28.1951C-97.6462,52.4455-114.95,71.2464-120.14,77.5292c-5.2573,6.3641-7.0412,9.8769-10.0367,30.5726-2.9916,20.67-2.321,28.608-1.5038,36.9212-1.1925,10.5189-.3059,18.0763,2.2558,32.5422a3.9794,3.9794,0,0,0,1.19,2.2035l3.2833,3.09a1.597,1.597,0,0,0,.7875.4044,1.5968,1.5968,0,0,0,.8819-.0769l4.2441-1.6345" style="fill:none;stroke:#a7abae;stroke-linecap:round;stroke-linejoin:round;stroke-width:0.5px"/><path d="M182.1,401.3441a.91.91,0,0,1-.4984-.3895c-.439-.6622-.5257-2.0836-.2974-4.4125.4493-4.5831,2.1589-9.9021,5.2344-16.234,1.5276-3.1451,3.4844-5.3709,5.9288-6.3245a7.8458,7.8458,0,0,1,3.4248-.5011,13.6069,13.6069,0,0,1,5.6216,1.8579c7.33,4.0721,26.54,17.0291,34.9686,23.1923,8.3972,6.14,13.2694,11.9116,18.8751,22.4,5.1376,9.6123,11.573,28.1249,13.4573,33.546.1724.4959.3068.8826.3984,1.1421a9.7763,9.7763,0,0,0,2.1291,3.8682,7.5952,7.5952,0,0,0,3.0117,1.7247,13.445,13.445,0,0,0,4.4084.7888c.5516.0224,1.0923.0444,1.7133.129.6311.0861,4.1317.7492,8.8862,1.65,10.0514,1.9044,25.664,4.8627,31.2773,5.6029.6625.0874,1.2935.1724,1.8971.2537,6.9052.9306,10.2259,1.3816,15.4632-.7958,0,0,3.8984-.1813,3.9619-.1926l6.6766-2.1036s1.1289-1.1289,1.0658-1.0841l22.3344-10.76,2.5435.0908.0591-.0312s15.6119-8.26,37.9261-24.4971,32.575-26.3152,32.6169-26.37c0,0,2.1753-3.8068,2.1281-3.7478,0,0,15.3553-14.02,15.37-14.0341,3.28-3.5289,4.8887-5.7785,6.1978-9.287,1.3185-3.5337,2.5163-7.3059,3.0163-8.9162a5.7422,5.7422,0,0,0,.2579-1.7083V360.24a3.7025,3.7025,0,0,0-.8582-2.37l-2.5712-3.0855a65.9635,65.9635,0,0,0,4.4693-22.9708,108.6714,108.6714,0,0,0-.934-13.2373c-.1394-1.2657-.2914-2.6459-.4539-4.19-.8388-7.9679-2.3257-10.7972-8.5089-16.3383-7.0508-6.3187-71.5468-54.3351-128.306-94.0412-3.7746-2.6406-4.53-3.939-7.9-10.2258,0,0-11.0877-20.0357-11.0958-20.0494a44.9487,44.9487,0,0,0-10.359-11.6628C291.279,149.9576,257.4868,125.03,235.0792,108.5l-2.7434-2.0239c-22.2991-16.4524-49.1029-34.9577-55.7837-38.639-6.704-3.694-25.0743-8.7225-47.4968-9.954C81.8828,25.1265,40.9676,3.5121,35.7839,1.1931,30.5493-1.1487,25.8558-.9876,11.1869-.2764-8.779.6917-13.0726,2.6543-20.7686,6.1872c-.9613.4412-1.9746.9064-3.0788,1.3972C-31.2012,10.8527-48.4862,18.8833-72.98,35.7569c-24.5013,16.8786-41.7886,35.6624-46.9675,41.9316-5.2124,6.31-6.9883,9.766-9.9819,30.4492-2.9949,20.6919-2.3151,28.6-1.4969,36.8608-1.1973,10.5093-.3174,18.0387,2.2476,32.5231a3.7293,3.7293,0,0,0,1.1148,2.065l3.2834,3.09a1.3475,1.3475,0,0,0,.6643.3411,1.3473,1.3473,0,0,0,.7439-.0649l4.244-1.6345" style="fill:none;stroke:#a7abae;stroke-linecap:round;stroke-linejoin:round;stroke-width:0.5px"/></g><path d="M182.0253,401.5828c-1.0531-.3283-1.2708-1.9991-.97-5.0651.4533-4.6237,2.1758-9.9726,5.2583-16.3188s7.9781-9.1567,15.3215-5.077,26.5634,17.0441,34.9948,23.209,13.327,11.9671,18.9479,22.4836,12.7831,31.64,13.871,34.7228,2.0852,4.4424,4.9863,5.44,4.08.6347,6.0742.9066,31.9124,6.1649,40.1624,7.2528,11.6045,1.8132,17.3161-.5439l3.8984-.1813,6.6182-2.0852,1.0879-1.0879,22.393-10.7886,2.5385.0907s15.5935-8.25,37.8959-24.4782,32.5469-26.2914,32.5469-26.2914l2.1759-3.8078,15.356-14.02c3.2685-3.5163,4.8535-5.7382,6.1468-9.2041,1.316-3.5271,2.5122-7.294,3.0117-8.9029a5.49,5.49,0,0,0,.2467-1.6342V360.24a3.4525,3.4525,0,0,0-.8-2.21l-2.6662-3.2a65.7019,65.7019,0,0,0,4.5063-23.0169c0-5.8929-.5546-9.498-1.3866-17.4014s-2.2878-10.6766-8.427-16.1784c-7.0371-6.3064-71.519-54.3132-128.2825-94.0225-3.8258-2.6763-4.6037-4.02-7.9754-10.31L315.7842,173.866a44.7029,44.7029,0,0,0-10.31-11.6064c-14.9475-12.6092-50.9849-39.1272-73.2872-55.582s-49.0924-34.9495-55.756-38.6212-25.0221-8.7034-47.46-9.9273C81.7824,25.3555,40.8494,3.7331,35.6818,1.4213S25.8913-.739,11.199-.0266C-11.2394,1.0613-13.823,3.4026-23.7459,7.8128-31.0893,11.0766-48.36,19.1-72.8383,35.9628s-41.7489,35.6293-46.9165,41.8849-6.9355,9.6553-9.9273,30.3258-2.3118,28.5579-1.4959,36.8533c-1.193,10.4722-.3186,17.9724,2.2454,32.4512a3.4786,3.4786,0,0,0,1.04,1.9266l3.2833,3.09a1.0981,1.0981,0,0,0,1.147.2251l4.2441-1.6346" style="fill:none;stroke:#a7abae;stroke-linecap:round;stroke-linejoin:round;stroke-width:0.5px"/><path d="M-124.0779,182.7693s-3.1434-6.2154,1.1078-16.165,7.5979-12.3918,15.2862-8.05,29.0639,17.8683,40.07,28.4921c13.025,12.5727,15.4209,19.2661,21.1656,35.5473s6.0062,23.5055,8.3262,25.01a42.4516,42.4516,0,0,0,4.1561,2.5327c1.5376.814,5.1347.7707,9.495,3.5548C14.15,278.35,41.892,296.5729,73.8043,318.422s56.9547,39.2513,74.3614,53.0317,23.52,22.2493,30.26,27.8744c2.4877,2.0762,3.6022,2.2453,3.6022,2.2453s1.6807.9713,6.82-1.7444" style="fill:none;stroke:#a7abae;stroke-linecap:round;stroke-linejoin:round;stroke-width:1.5px"/><path d="M165.0174,66.2593A166.8309,166.8309,0,0,0,118.2735,60.12c-7.09,1.6285-14.5893,3.823-21.6625,6.1921A234.9492,234.9492,0,0,0,55.3265,84.489c-9.0832,5.1186-19.7356,12.5882-28.1823,18.7856-11.943,9.0538-23.5075,19.003-33.3987,30.3008A118.9173,118.9173,0,0,0-19.6519,151.69a54.3921,54.3921,0,0,0-4.8528,10.1166.2525.2525,0,0,1-.3239.1811.25.25,0,0,1-.1576-.3161,63.0859,63.0859,0,0,1,6.3652-12.6634A128.08,128.08,0,0,1-6.63,133.2457C3.2851,121.9209,14.8727,111.95,26.844,102.8748,41.7689,91.7678,58.1671,81.1723,75.3318,73.96a250.6693,250.6693,0,0,1,42.9313-14.34,160.24,160.24,0,0,1,46.7543,6.6393Z" style="fill:#a7abae"/><line x1="-15.9353" y1="171.6576" x2="22.1012" y2="197.2709" style="fill:none;stroke:#a7abae;stroke-linecap:round;stroke-linejoin:round;stroke-width:0.5px"/><path d="M128.9709,58.1291c-3.4641-.0708-44.5483-4.9947-92.9034,28.8639-62.41,43.7-74.1373,69.1658-52.0028,84.6646" style="fill:none;stroke:#a7abae;stroke-linecap:round;stroke-linejoin:round;stroke-width:0.5px"/><polyline points="455.713 305.666 332.816 220.598 214.3 303.584" style="fill:none;stroke:#a7abae;stroke-linecap:round;stroke-linejoin:round;stroke-width:0.5px"/><path d="M323.1445,396.544C293.088,376.735,194.49,309.68,192.2529,308.1278c-4.68-3.2474-4.2114-4.2726-3.8205-7.7365" style="fill:none;stroke:#a7abae;stroke-linecap:round;stroke-linejoin:round;stroke-width:0.5px"/><path d="M188.1839,300.3632c2.1756-9.2651,6.5113-22.82,9.1743-32.0738-1.5075,5.3547-5.3117,18.8927-6.6937,24.0794-.6953,2.6746-1.4773,5.3829-1.9837,8.0505a.25.25,0,1,1-.4969-.0561Z" style="fill:#a7abae"/><g id="e5c3fbba-215b-4619-8b29-a9882643caed" data-name="Offset Group"><polyline points="455.208 305.409 336.054 388.841 214.882 303.383" style="fill:none;stroke:#a7abae;stroke-linecap:round;stroke-linejoin:round;stroke-width:0.5px"/><polyline points="455.351 305.614 336.054 389.147 214.738 303.587" style="fill:none;stroke:#a7abae;stroke-linecap:round;stroke-linejoin:round;stroke-width:0.5px"/></g><polyline points="455.495 305.819 336.053 389.452 214.594 303.791" style="fill:none;stroke:#a7abae;stroke-linecap:round;stroke-linejoin:round;stroke-width:0.5px"/><path d="M190.8186,307.0791l.44-1.1079,14.4781-7.2481a1.7081,1.7081,0,0,1,1.72.093l.5925.3906,6.2039,4.344" style="fill:none;stroke:#a7abae;stroke-linecap:round;stroke-linejoin:round;stroke-width:0.5px"/><line x1="207.1646" y1="294.1067" x2="217.3659" y2="301.4398" style="fill:none;stroke:#a7abae;stroke-linecap:round;stroke-linejoin:round;stroke-width:0.5px"/><polyline points="317.457 216.064 328.223 223.824 328.223 267.138" style="fill:none;stroke:#a7abae;stroke-linecap:round;stroke-linejoin:round;stroke-width:0.5px"/><g id="ee7d46a5-0c7b-42b9-b88e-3a34f30cab19" data-name="Offset Group"><path d="M273.3929,251.2858c-34.912,24.4457-69.0991,43.9627-75.2446,47.4308.63-2.811,2.4029-10.7538,4.5469-20.5619,1.37-6.2662,4.3966-11.9851,11.8246-17.1933,10.13-7.1025,18.93-13.1077,27.763-19.1351,8.6307-5.8893,17.2924-11.8,27.2516-18.7734,20.1431-14.1044,32.6969-23.0358,43.4339-31.7607a7.9851,7.9851,0,0,1,3.4723-1.9407,1.8867,1.8867,0,0,1,1.0189.1049c.9249.3779,1.5987,1.5272,2.5576,3.2369.0845.1506.1708.3045.2547.4528l6.5963,12.16C324.9437,207.6605,309.3489,226.1091,273.3929,251.2858Z" style="fill:none;stroke:#a7abae;stroke-linecap:round;stroke-linejoin:round;stroke-width:0.5px"/><path d="M273.5363,251.4906c-36.0008,25.208-71.2317,45.177-75.7548,47.72.4862-2.1685,2.3634-10.56,4.6694-21.1089,1.3822-6.3231,4.4425-12.0979,11.9254-17.3446,10.131-7.1035,18.9327-13.11,27.7656-19.1369,8.6307-5.8894,17.2913-11.7991,27.2491-18.7716,20.1445-14.1054,32.6908-23.0317,43.42-31.75a8.2045,8.2045,0,0,1,3.5933-1.994,2.1358,2.1358,0,0,1,1.15.1208c1.0246.4187,1.7412,1.67,2.681,3.346.0845.1507.1706.3042.2565.4559l6.676,12.3073C325.7837,207.0458,310.2681,225.7707,273.5363,251.4906Z" style="fill:none;stroke:#a7abae;stroke-linecap:round;stroke-linejoin:round;stroke-width:0.5px"/></g><path d="M327.4665,205.3609s-15.213,19.3248-53.7868,46.3344-76.2648,48.0069-76.2648,48.0069,2.1047-9.3617,4.7918-21.6542c1.3947-6.38,4.4883-12.2108,12.026-17.496,20.0334-14.0465,34.869-23.8024,55.0149-37.9086s32.6847-23.0276,43.4053-31.7392c4.9819-4.0483,6.0608-1.531,8.0584,2.0035Z" style="fill:none;stroke:#a7abae;stroke-linecap:round;stroke-linejoin:round;stroke-width:0.5px"/><line x1="310.252" y1="279.721" x2="245.125" y2="325.3235" style="fill:none;stroke:#a7abae;stroke-linecap:round;stroke-linejoin:round;stroke-width:0.5px"/><path d="M197.4149,299.7022c-4.46,2.37-9.0438,4.4624-9.0438,4.4624" style="fill:none;stroke:#a7abae;stroke-linecap:round;stroke-linejoin:round;stroke-width:0.5px"/><path d="M468.4371,354.8305s-9.5552,17.34-51.8681,46.9682-64.121,39.1041-76.1437,44.69-21.8594,6.8007-30.4817,5.2219-25.3813-6.072-31.21-7.6508-7.0436-3.4-8.5009-6.1935-4.4934-9.7153-9.5025-19.8066c-5.71-11.5033-11.4579-17.7247-20.65-24.445-8.5878-6.28-27.9558-19.3509-35.6077-23.6006-4.7418-2.6362-9.241-3.3109-13.3651-2.0085-4.4961,1.42-7.7822,5.8945-9.8908,10.1116-1.9263,3.8526-3.2789,3.5218-6.5578.9715s-26.7171-22.1023-44.69-35.5822-26.7171-19.6735-54.77-38.1326S8.71,261.1145-25.1169,237.429a50.6963,50.6963,0,0,1-17.1423-20.2038" style="fill:none;stroke:#a7abae;stroke-linecap:round;stroke-linejoin:round;stroke-width:0.5px"/><path d="M-131.178,145.0268a28.83,28.83,0,0,0,6.2339,13.9879c4.8233-8.284,6.958-12.8588,19.942-5.1518,8.0436,4.7745,29.3165,18.934,40.9387,29.5051a81.008,81.008,0,0,1,21.8041,33.8571c2.9616,8.8646,4.2162,12.4769,4.2162,12.4769,2.5481,8.2922,5.1823,10.0576,10.1716,13.5512,6.6142,4.6313,71.8614,48.5919,98.2841,66.7144s32.124,22.019,53.7247,37.7406,47.4848,36.3525,50.2547,38.6448,3.5175,3.267,4.9666-2.1013a44.2915,44.2915,0,0,1,3.595-9.1911" style="fill:none;stroke:#a7abae;stroke-linecap:round;stroke-linejoin:round;stroke-width:0.5px"/><path d="M245.1252,325.3237l92.6095-64.8459a1.6407,1.6407,0,0,1,1.75,0l4.2625,2.9846a2.4487,2.4487,0,0,1,.92,1.68l.4021,9.4151a2.4484,2.4484,0,0,0,.92,1.6795l39.7878,27.86a4.3293,4.3293,0,0,0,1.9416.66l10.174.45a7.6973,7.6973,0,0,0,2.0914-.2542l2.08-.6117a2.5194,2.5194,0,0,1,1.8993.3112l26.5991,18.6249" style="fill:none;stroke:#a7abae;stroke-linecap:round;stroke-linejoin:round;stroke-width:0.5px"/><path d="M472.4467,322.673c.2148,1.8557-.7989,5.4553-3.8426,9.4994,0,0-12.6017,17.7654-53.6147,46.483s-73.3541,42.5352-73.3541,42.5352c-2.9927,1.4645-7.7684,2.356-16.81,1.8466,0,0-15.3718-8.2213-17.0013-9.0419-1.9739-.9941-3.3748-2.441-3.3748-4.16V405.24c0-2.42,1.7829-2.4264,3.3748-1.5349s17.0013,9.0419,17.0013,9.0419c9.0419.5094,13.8176-.3821,16.81-1.8466,0,0,32.341-13.8175,73.3541-42.5352s53.6147-46.483,53.6147-46.483c1.7344-2.3044,3.1923-5.379,2.9775-7.2347" style="fill:none;stroke:#a7abae;stroke-linecap:round;stroke-linejoin:round;stroke-width:0.5px"/><path d="M-101.0623,71.8278c4.3607,1.5747,10.2961,4.8452,18.4314,9.8092,8.3314,5.0837,26.8033,17.1011,46.9143,31.1577,5.5338,3.8678,8.5759,3.2583,12.3929.0385,6.5885-5.5576,19.5667-15.9323,41.3629-31.1942,17.4839-12.2423,29.07-19.15,36.24-22.9834,6.5371-3.4956,1.8929-5.43.03-6.6468C24.6211,32.6241,6.2627,22.0889,3.5849,20.571-4.55,15.96-10.4858,12.9217-14.8464,11.4589" style="fill:none;stroke:#a7abae;stroke-linecap:round;stroke-linejoin:round;stroke-width:0.5px"/><path d="M160.8758,311.66l21.175,14.8269c3.5382,2.4774,6.891,5.456,8.8012,15.3894s3.7961,18.2837,3.7961,18.2837l2.71,7.3492" style="fill:none;stroke:#a7abae;stroke-linecap:round;stroke-linejoin:round;stroke-width:0.5px"/><path d="M119.9824,350.3941l9.82-7.1156c-.1158.0992,14.7-13.3188,14.6738-13.2965,15.1723-13.4386,14.8-13.2618,20.9413-32.4146,2.1236-6.2615,4.1771-12.5429,5.9995-18.9-1.5951,6.4195-3.6,12.7307-5.6357,19.02-5.8083,19.1389-5.9789,19.4212-20.9286,32.7029-.0217.0054-14.6982,13.34-14.721,13.345L120.2748,350.8a.25.25,0,0,1-.2924-.4057Z" style="fill:#a7abae"/><path d="M-50.2229,159.7642s6.7741,4.41,27.7747,18.6969c5.98,4.0681,13.8088,9.4893,24.7448,17.0956" style="fill:none;stroke:#a7abae;stroke-linecap:round;stroke-linejoin:round;stroke-width:0.5px"/><path d="M-12.0814,179.3762a8.2914,8.2914,0,0,1,7.068-4.6483,12.8687,12.8687,0,0,1,7.3226,1.9739c2.6107,1.5919,2.8018,2.165,2.8018,3.8842v8.66c0,.8914.0249,4.1389-3.2862,9.1692-4.2918,6.52-5.6284,8.4052-7.9844,8.4052s-5.4761-2.6107-7.5137-4.7757-2.1013-6.8132-1.91-9.9333A41.5867,41.5867,0,0,1-12.0814,179.3762Z" style="fill:#fff;stroke:#a7abae;stroke-linecap:round;stroke-linejoin:round;stroke-width:0.5px"/><path d="M3.4474,177.4415c-.5357-.3618-.9471.0881-2.2843,1.9984a65.9693,65.9693,0,0,0-6.75,12.7987,32.517,32.517,0,0,0-2.356,11.2706c-.0256,2.8984.3637,3.1549,1.0733,3.233" style="fill:none;stroke:#a7abae;stroke-linecap:round;stroke-linejoin:round;stroke-width:0.5px"/><path d="M4.9367,179.0921c-.5357-.3618-.9471.0881-2.2843,1.9984a55.1855,55.1855,0,0,0-6.0237,11.646,35.0132,35.0132,0,0,0-2.356,11.27c-.0205,2.3191.2312,2.7531.8588,2.5709" style="fill:none;stroke:#a7abae;stroke-linecap:round;stroke-linejoin:round;stroke-width:0.5px"/><path d="M3.5057,179.9118v8.66c0,.8914.0249,4.1389-3.2862,9.1692-3.0685,4.6617-4.48,6.7108-5.9038,7.7366" style="fill:none;stroke:#a7abae;stroke-linecap:round;stroke-linejoin:round;stroke-width:0.5px"/><path d="M-15.0041,259.7463s2.37-1.61,7.0616,1.6756S53.9141,302.5191,71.1111,314.06c20.2334,13.5782,51.0291,35.0878,51.0291,35.0878s22.9454,17.2681,28.5725,21.5668a11.1935,11.1935,0,0,1,3.816,5.9528" style="fill:none;stroke:#a7abae;stroke-linecap:round;stroke-linejoin:round;stroke-width:0.5px"/><path d="M68.3778,149.8652a15.8481,15.8481,0,0,0-11.7188,3.7923,24.2953,24.2953,0,0,0-6.5377,8.6528l-13.2464,9.23,1.6772,2.8416,3.1086,6.997-.2777,1.2819,7.2427,1.6771a23.85,23.85,0,0,0,4.3051,8.1295c8.1935,9.86,15.7888,2.6812,16.5045,2.19l8.2576-5.79c4.1662-2.9164,6.0677-6.463,6.7193-12.8512v-.0106C85.7582,162.6309,78.5475,150.9121,68.3778,149.8652Z" style="fill:#fff"/><polyline points="48.626 184.342 41.385 182.662 41.664 181.38 38.557 174.378 36.878 171.539 50.121 162.313" style="fill:none;stroke:#a7abae;stroke-linecap:round;stroke-linejoin:round;stroke-width:0.5px"/><path d="M68.3753,149.8694a15.8,15.8,0,0,0-11.7167,3.79c-5.0732,4.1521-8.44,10.9316-9.1951,18.5866-.8,7.8816,1.3891,15.2951,5.4657,20.2173,8.1987,9.8595,15.7933,2.6876,16.503,2.1893l8.259-5.7828c4.1673-2.9141,6.07-6.4623,6.719-12.8491v-.0151C85.754,162.6278,78.5518,150.9112,68.3753,149.8694Zm-9.316,6.7189a12.3267,12.3267,0,0,1,7.8363-3.02q.5436,0,1.0871.0453c1.7062.1812,2.9594,1.9025,4.4088,2.8084,1.2835.8,2.7933.6945,3.82,1.9628a14.94,14.94,0,0,1,.8907,1.223l-1.4947.6331a7.7,7.7,0,0,1-2.2351.5027l-7.4276.31a14.1568,14.1568,0,0,1-2.3131-.1324l-7.5771-1.1929A18.0257,18.0257,0,0,1,59.0593,156.5883ZM59.014,192.916a14.8085,14.8085,0,0,1-4.8014-5.1184l2.4913-2.6273,8.6818,7.7005A6.1634,6.1634,0,0,1,59.014,192.916Zm21.6517-17.273c-.5737,5.662-2.3705,8.1685-4.5145,9.7086l-2.8386-4.7864a4.1334,4.1334,0,0,0,1.0485-1.9465l1.2918-7.2939,4.8165-2.7933a28.15,28.15,0,0,1,.3322,4.2729C80.8016,173.7406,80.7563,174.6767,80.6657,175.643Z" style="fill:none;stroke:#a7abae;stroke-linecap:round;stroke-linejoin:round;stroke-width:0.5px"/><path d="M56.055,159.7283a24.1542,24.1542,0,0,0-3.6821,7.2587c-.5694,1.7964-.0745,3.8041-.27,5.7529-.1749,1.7366-1.078,3.3348-.9452,4.9844A23.5423,23.5423,0,0,0,54.2013,187.79" style="fill:none;stroke:#a7abae;stroke-linecap:round;stroke-linejoin:round;stroke-width:0.5px"/><path d="M64.1334,185.9358l3.7879,3.5157a.8955.8955,0,0,0,1.0717.0737l4.2443-2.9719-2.5482-4.3055" style="fill:none;stroke:#a7abae;stroke-linecap:round;stroke-linejoin:round;stroke-width:0.5px"/><path d="M68.2334,176.0872a.6832.6832,0,0,1-.9961.4445l-1.5517-.9183a1.0907,1.0907,0,0,1-.39-1.2647l.8-2.2546a.6831.6831,0,0,1,.996-.4445l1.5518.9183a1.0907,1.0907,0,0,1,.39,1.2647Z" style="fill:none;stroke:#a7abae;stroke-linecap:round;stroke-linejoin:round;stroke-width:0.5px"/><path d="M73.3126,180.5652l-7.7606,4.9773a2.469,2.469,0,0,1-2.7668-.0567L60.48,184.0431a4.3675,4.3675,0,0,1-1.6282-2.1731L57.44,176.854a6.4294,6.4294,0,0,0-1.4369-2.4167l-2.1568-2.1006a.8227.8227,0,0,1-.0691-1.1031,28.828,28.828,0,0,1,5.98-5.4509,18.7975,18.7975,0,0,1,5.7328-2.997,2.5091,2.5091,0,0,1,1.2616.0012l5.04,1.3038a3.1067,3.1067,0,0,1,1.9354,1.767l1.4421,4.0942a6.5692,6.5692,0,0,1,.23,2.8061l-.4692,2.649" style="fill:none;stroke:#a7abae;stroke-linecap:round;stroke-linejoin:round;stroke-width:0.5px"/><path d="M56.8792,175.6093l-4.3768,5.4188a2.2662,2.2662,0,0,0-.3581,1.8682l.5175,1.6689" style="fill:none;stroke:#a7abae;stroke-linecap:round;stroke-linejoin:round;stroke-width:0.5px"/><path d="M73.0917,164.8985l5.5411-2.4148a1.1571,1.1571,0,0,1,1.4892.5536l1.7385,3.6179a.9772.9772,0,0,1-.348,1.215l-1.0431.6613" style="fill:none;stroke:#a7abae;stroke-linecap:round;stroke-linejoin:round;stroke-width:0.5px"/><line x1="59.1598" y1="182.5805" x2="56.7039" y2="185.1703" style="fill:none;stroke:#a7abae;stroke-linecap:round;stroke-linejoin:round;stroke-width:0.5px"/><path d="M53.2065,164.7272l5.5341-3.8342a3.06,3.06,0,0,1,1.9194-.4391l1.6324.257" style="fill:none;stroke:#a7abae;stroke-linecap:round;stroke-linejoin:round;stroke-width:0.5px"/><path d="M39.307,181.8164c-4.2214,2.8331-8.5231,5.5522-12.9779,8.02-6.9416,4.4707-12.4142,3.2768-15.2186-4.7948-.6957-1.7687-2.0716-5.34-2.738-7.12l-.6651-1.7864a4.5173,4.5173,0,0,0-.8383-1.634,38.0589,38.0589,0,0,0-5.7158-4.9686,41.5841,41.5841,0,0,0-6.425-4.0714,49.43,49.43,0,0,1,9.59,6.2125c1.4219,1.2354,3.1457,2.4371,3.7282,4.3313.4436,1.1127,1.6376,4.1652,2.09,5.3224,1.7217,4.2779,3.403,10.5932,9.0205,10.6794,2.5133.0668,4.7425-1.3846,6.9884-2.511,4.4761-2.3978,8.8453-5.0028,13.162-7.6794Z" style="fill:#a7abae"/><path d="M2.2091,198.5334c2.6986,7.4545,2.1308,15.8556,2.83,23.614.9185,7.73,4.0709,15.8932,11.0213,20.0837C8.944,238.2235,5.6431,229.9619,4.5972,222.2032c-.4479-3.4476-.4877-8.3951-.72-11.9005a47.7664,47.7664,0,0,0-2.1458-11.6213l.4776-.148Z" style="fill:#a7abae"/></g><g id="b63c26ca-6a98-4d16-a006-182497bbe7ec" data-name="inset"><polygon points="300.408 6.229 156.063 6.229 156.063 151.237 245.949 151.237 225.27 218.056 273.032 151.237 300.408 151.237 300.408 6.229" style="fill:#fff"/><path d="M156.9433,123.1556c17.1229-6.3419,108.5722-60.7548,116.0556-68.6454.761-.1535,1.9025-1.8758,1.9025-1.8758,1.1416,0,2.1563-.8879,3.2978-2.4838a3.2687,3.2687,0,0,0-.6342-4.7459V6.2292" style="fill:none;stroke:#000001;stroke-miterlimit:10"/><path d="M277.6918,45.4047c1.4164,1.7119,1.9026,4.141-4.82-1.1s-25.2955-17.6244-35.98-25.0468c-12.9792-9.0168-31.6242-8.68-42.659,15.5826s-31.075,70.5584-37.29,78.4223" style="fill:none;stroke:#000001;stroke-miterlimit:10"/><path d="M272.9989,54.51c-20.4207-16.2084-30.6945-22.7224-39.8268-27.2024s-20.928-7.3864-29.5529,12.902-36.7313,75.3033-46.6759,82.9458" style="fill:none;stroke:#000001;stroke-miterlimit:10;stroke-width:0.5px"/><path d="M274.9014,52.6344q-.5933-.4708-1.1756-.9319" style="fill:none;stroke:#000001;stroke-linecap:round;stroke-linejoin:round;stroke-width:0.25px"/><path d="M271.3622,49.8374C251.82,34.4653,241.79,27.8383,232.5379,23.3c-9.7948-4.8051-22.5028-6.6678-31.7535,15.0926-7.663,18.0259-28.37,62.4177-42.387,80.4682" style="fill:none;stroke:#000001;stroke-linecap:round;stroke-linejoin:round;stroke-width:0.25px;stroke-dasharray:3.010188102722168,3.010188102722168"/><path d="M157.4622,120.0374q-.4864.5976-.9606,1.1482" style="fill:none;stroke:#000001;stroke-linecap:round;stroke-linejoin:round;stroke-width:0.25px"/><path d="M224.3169,67.29c8.9056,0,16.125-8.5387,16.125-19.0717s-7.2194-19.0717-16.125-19.0717h-.7434c-8.9056,0-16.125,8.5387-16.125,19.0717S214.6679,67.29,223.5735,67.29Z" style="fill:#f2a900;stroke:#12171d;stroke-miterlimit:10"/><ellipse cx="224.3169" cy="48.2186" rx="6.8979" ry="8.1584" style="fill:none;stroke:#12171d;stroke-miterlimit:10"/><path d="M229.6867,47.4212l-3.1459,6.7268a2.37,2.37,0,0,1-4.4478,0l-3.1458-6.7268c-.9369-2.0034.2882-4.4607,2.2238-4.4607h6.2918C229.3985,42.9605,230.6235,45.4178,229.6867,47.4212Z" style="fill:none;stroke:#12171d;stroke-miterlimit:10;stroke-width:0.5px"/><path d="M222.76,55.0774a2.3689,2.3689,0,0,0,.1337-.2518l3.1448-6.7266c.9353-2.0041-.2877-4.46-2.225-4.46h-4.2446" style="fill:none;stroke:#12171d;stroke-miterlimit:10;stroke-width:0.5px"/><path d="M224.3169,29.1469c-8.9056,0-16.125,8.5387-16.125,19.0717S215.4113,67.29,224.3169,67.29" style="fill:none;stroke:#000001;stroke-miterlimit:10;stroke-width:0.5px"/><ellipse cx="255.1512" cy="120.2023" rx="12.6489" ry="11.0556" style="fill:#f2a900;stroke:#12171d;stroke-miterlimit:10"/><path d="M260.0012,118.2588c0-2.3412-2.1714-4.2391-4.85-4.2391s-4.85,1.8979-4.85,4.2391v1.9435c0,2.3411,2.1714,4.239,4.85,4.239s4.85-1.8979,4.85-4.239Z" style="fill:none;stroke:#12171d;stroke-miterlimit:10"/><path d="M250.812,118.4819a4.3786,4.3786,0,0,0,8.6785,0" style="fill:none;stroke:#12171d;stroke-linecap:round;stroke-linejoin:round;stroke-width:0.5px"/><path d="M277.31,50.1506v65.57a23.9932,23.9932,0,0,1-23.9932,23.9933H155.74" style="fill:none;stroke:#000001;stroke-miterlimit:10"/><path d="M239.4322,63.5451c5.8855,7.0842,14.8128,19.487,15.8457,34.5838" style="fill:none;stroke:#f2a900;stroke-miterlimit:10;stroke-width:5px"/><polygon points="250.174 96.666 255.151 105.307 260.146 96.676 250.174 96.666" style="fill:#f2a900"/><polygon points="300.408 6.229 156.063 6.229 156.063 151.237 245.949 151.237 224.97 216.307 273.032 151.237 300.408 151.237 300.408 6.229" style="fill:none;stroke:#000001;stroke-miterlimit:20;stroke-width:1.5px"/></g></svg>