<svg xmlns="http://www.w3.org/2000/svg" width="161.749" height="161.749" viewBox="0 0 161.749 161.749"><g id="a62104e0-6dd0-4147-b9a1-d508024cc67b" data-name="Line"><path d="M17.341,106.769A92.257,92.257,0,0,1,4.232,110.21s-2.575.515-3.219,0" style="fill:none;stroke:#a7abae;stroke-miterlimit:10;stroke-width:0.5px"/><path d="M38.133,86.405c2.052-1.234,3.555-1.111,4.657.821a15.468,15.468,0,0,1,1.464,3.283,3.207,3.207,0,0,1-1.464,3.479,139.493,139.493,0,0,1-21.1,11.156" style="fill:none;stroke:#a7abae;stroke-miterlimit:10;stroke-width:0.5px"/><path d="M-62.318,120.909C.184,163.84,101.113,125.045,113.653,6.48" style="fill:none;stroke:#a7abae;stroke-miterlimit:10"/><path d="M-62.573,111.664C-4.609,151.478,88.992,115.5,100.621,5.543" style="fill:none;stroke:#a7abae;stroke-miterlimit:10;stroke-width:0.5px"/><path d="M74.239,158.284C95.658,140.5,138.09,83.21,143.748,6.48" style="fill:none;stroke:#a7abae;stroke-miterlimit:10;stroke-width:1.5px"/><ellipse cx="23.295" cy="16.719" rx="7.298" ry="9.587" transform="translate(-1.579 2.456) rotate(-5.837)" style="fill:none;stroke:#a7abae;stroke-miterlimit:10;stroke-width:0.5px"/><path d="M19.25,24.392a11.073,11.073,0,0,0,1.741-7.434,11.075,11.075,0,0,0-3.209-6.929" style="fill:none;stroke:#a7abae;stroke-miterlimit:10;stroke-width:0.25px"/><path d="M17.509,22.151A7.489,7.489,0,0,0,18.643,17.2a7.477,7.477,0,0,0-2.112-4.622" style="fill:none;stroke:#a7abae;stroke-miterlimit:10;stroke-width:0.5px"/><path d="M-19.4,6.48l2.965,6.368s1.885,5.42,1.38,8.918-12,50.977-12.662,53.612-1.212,5.353,1.206,6.67A113.489,113.489,0,0,0-15.559,86.5c1.677.576,3.654.266,4.395-3.285S-1.53,39.37-.542,34.853s2.223-7.989,5.6-9.588a22.636,22.636,0,0,1,7.74-2.5c2.059-.164,7.706,1.73,12.87,6.917S53.311,57.1,54.958,58.58s3.376,2.471,5.023.165,5.353-8.482,6.094-9.634,1.811-2.635-.741-5.518-29.562-29.755-30.8-31.017a39.2,39.2,0,0,1-4.776-7.033" style="fill:none;stroke:#a7abae;stroke-miterlimit:10;stroke-width:0.5px"/><path d="M-21.132,126.88S-8.859,96.87-7.706,94.153a61.453,61.453,0,0,0,2.718-8.564c.823-3.129,9.634-41.913,10.54-45.207s1.837-5.7,4.25-6.687a34.233,34.233,0,0,1,5.137-1.547,6.251,6.251,0,0,1,6.119,1.894c2.355,2.3,30.833,28.917,34.7,32.532a8.7,8.7,0,0,1,.814.871L70.828,84.958" style="fill:none;stroke:#a7abae;stroke-miterlimit:10;stroke-width:0.5px"/><path d="M-2.271,88.224s9.8-41.913,10.622-44.631,1.071-4.5,3.871-5.213,4.528-.962,7.658,1.837S50.1,69.12,50.1,69.12l1.729,2.059c-9.14,7.74-24.868,20.668-51.959,20.01A5.124,5.124,0,0,1-2.271,88.224Z" style="fill:none;stroke:#a7abae;stroke-miterlimit:10;stroke-width:0.5px"/><path d="M-1.5,84.919C10.986,83.86,20.374,81.225,35.69,70.932c2.964-1.729,1.894-4.1-.494-6.371S16.833,47.793,15.021,46.476s-4.042-2.517-7.209-.806" style="fill:none;stroke:#a7abae;stroke-miterlimit:10;stroke-width:0.5px"/><path d="M37.913,68.462a21.4,21.4,0,0,1,6.539-.073A14.89,14.89,0,0,1,50.594,70.6a24.071,24.071,0,0,0-3.055-1.078,29.85,29.85,0,0,0-3.159-.64A47.262,47.262,0,0,0,37.913,68.462Z" style="fill:#a7abae"/><path d="M-2.271,119.268s5.682-14.987,6.752-17.457,1.894-4.282,5.27-5.188S28.69,93.871,45.324,81.7c0,0,2.47-2.323,4.282,0s7.164,8.746,8.481,10.229.989,3.376-1.152,5.517S34.208,119.6.282,123.138C-2.024,123.138-3.086,121.412-2.271,119.268Z" style="fill:none;stroke:#a7abae;stroke-miterlimit:10;stroke-width:0.5px"/><path d="M45.077,92.506a44.706,44.706,0,0,1,6.566.2c1.089.121,2.179.253,3.256.466a22.243,22.243,0,0,1,3.188.816C53.761,93.328,49.43,93.045,45.077,92.506Z" style="fill:#a7abae"/><path d="M4.481,101.811A79.029,79.029,0,0,0,35.944,87.633" style="fill:none;stroke:#a7abae;stroke-miterlimit:10;stroke-width:0.5px"/><line x1="-0.13" y1="91.189" x2="-15.121" y2="127.311" style="fill:none;stroke:#a7abae;stroke-miterlimit:10;stroke-width:0.5px"/><line x1="51.829" y1="71.179" x2="66.942" y2="89.716" style="fill:none;stroke:#a7abae;stroke-miterlimit:10;stroke-width:0.5px"/><path d="M29.32,33.322l3.6-4.356s1.743-1.819,3.94.3S50.876,42.15,52.164,43.362a3.928,3.928,0,0,1,.91,4.926c-1.061,1.742-3.253,5.3-3.253,5.3" style="fill:none;stroke:#a7abae;stroke-miterlimit:10;stroke-width:0.5px"/><path d="M54.589,46.134a25.333,25.333,0,0,1,5.6-.293,22.634,22.634,0,0,1,5.535.931c-.936-.076-1.857-.19-2.784-.253s-1.85-.139-2.777-.179C58.314,46.235,56.461,46.193,54.589,46.134Z" style="fill:#a7abae"/><path d="M34.737,27.829a26.9,26.9,0,0,0-.177-7.506,11.791,11.791,0,0,0-1.319-3.466,18.513,18.513,0,0,0-2.217-3.046,12.659,12.659,0,0,1,2.547,2.847,11.168,11.168,0,0,1,1.477,3.559,14.49,14.49,0,0,1,.245,3.838A24.762,24.762,0,0,1,34.737,27.829Z" style="fill:#a7abae"/><path d="M36.541,6.48,71.3,41.518a7.184,7.184,0,0,1,.744.88L85.481,61.12" style="fill:none;stroke:#a7abae;stroke-miterlimit:10;stroke-width:0.5px"/><path d="M56.806,65.725c1.36-1.831,2.675-3.691,3.981-5.555s2.585-3.747,3.807-5.665c1.254-1.9,2.422-3.85,3.574-5.811,1.132-1.972,2.21-3.976,3.213-6.025A58.512,58.512,0,0,1,68.5,48.881c-1.087,2.009-2.265,3.968-3.491,5.9-1.262,1.9-2.548,3.79-3.916,5.618S58.309,64.008,56.806,65.725Z" style="fill:#a7abae"/><path d="M42.314,6.48,70.063,34.853A2.907,2.907,0,0,0,73.6,33.8c1.235-2,6.587-17.975,7.658-27.691" style="fill:none;stroke:#a7abae;stroke-miterlimit:10;stroke-width:0.5px"/><line x1="64.094" y1="28.749" x2="69.569" y2="5.543" style="fill:none;stroke:#a7abae;stroke-miterlimit:10;stroke-width:0.5px"/><path d="M84.309,6.109S80.85,24.718,80.6,26.7s-.988,4.659,1.235,7.1,9.616,12.972,9.616,12.972" style="fill:none;stroke:#a7abae;stroke-miterlimit:10;stroke-width:0.5px"/><line x1="72.746" y1="34.682" x2="87.932" y2="55.733" style="fill:none;stroke:#a7abae;stroke-miterlimit:10;stroke-width:0.5px"/><path d="M-11.821,6.48a18.759,18.759,0,0,0,6.386,5.042A18.523,18.523,0,0,0,2.4,13.48a15.87,15.87,0,0,0,7.834-1.822A21.689,21.689,0,0,0,16.531,6.48,19.735,19.735,0,0,1,10.419,12,15.889,15.889,0,0,1,2.394,13.98a18.379,18.379,0,0,1-8-2.117A17.325,17.325,0,0,1-11.821,6.48Z" style="fill:#a7abae"/><path d="M28.405,97.564a1.94,1.94,0,0,0-2.506-.985l-2.616,1.577a1.781,1.781,0,0,0-1.385.164l-2.944,1.769a2.815,2.815,0,0,0-2.616.054,2.32,2.32,0,0,0-.7.656,3.107,3.107,0,0,0-.574,1.7,4.65,4.65,0,0,0,.7,2.67,4.755,4.755,0,0,0,2.032,1.878,3.142,3.142,0,0,0,1.75.282,2.359,2.359,0,0,0,.921-.319,2.8,2.8,0,0,0,1.276-2.278l2.944-1.778a1.784,1.784,0,0,0,.8-1.148l2.607-1.568A1.938,1.938,0,0,0,28.405,97.564Z" style="fill:#a7abae;stroke:#000001;stroke-miterlimit:10"/><path d="M15.636,100.8a3.064,3.064,0,0,1,1.705.265" style="fill:none;stroke:#000001;stroke-miterlimit:10;stroke-width:0.5px"/><path d="M20.121,105.7a3.186,3.186,0,0,1-.575,1.622" style="fill:none;stroke:#000001;stroke-miterlimit:10;stroke-width:0.5px"/><path d="M25.874,96.582a2.205,2.205,0,0,0,2.2,3.655" style="fill:none;stroke:#000001;stroke-miterlimit:10;stroke-width:0.25px"/><path d="M25.229,96.976a2.2,2.2,0,0,0,2.2,3.654" style="fill:none;stroke:#000001;stroke-miterlimit:10;stroke-width:0.25px"/><path d="M24.583,97.369a2.205,2.205,0,0,0,2.2,3.655" style="fill:none;stroke:#000001;stroke-miterlimit:10;stroke-width:0.25px"/><path d="M23.938,97.763a2.205,2.205,0,0,0,2.2,3.655" style="fill:none;stroke:#000001;stroke-miterlimit:10;stroke-width:0.25px"/><path d="M23.293,98.156a2.205,2.205,0,0,0,2.2,3.655" style="fill:none;stroke:#000001;stroke-miterlimit:10;stroke-width:0.25px"/><path d="M26.358,96.55a1.992,1.992,0,0,0,1.984,3.3" style="fill:none;stroke:#000001;stroke-miterlimit:10;stroke-width:0.5px"/><path d="M21.9,98.317c-.986.592-1.161,2.11-.392,3.391s2.192,1.838,3.178,1.246" style="fill:none;stroke:#000001;stroke-miterlimit:10;stroke-width:0.5px"/><path d="M21.743,104.728a2.8,2.8,0,0,1-1.276,2.278,2.359,2.359,0,0,1-.921.319,3.142,3.142,0,0,1-1.75-.282,4.755,4.755,0,0,1-2.032-1.878,4.65,4.65,0,0,1-.7-2.67,3.107,3.107,0,0,1,.574-1.7,2.32,2.32,0,0,1,.7-.656,2.815,2.815,0,0,1,2.616-.054" style="fill:none;stroke:#000001;stroke-miterlimit:10;stroke-width:0.5px"/><path d="M23.283,98.156a1.781,1.781,0,0,0-1.385.164l-2.944,1.769L15.39,102.23a1.8,1.8,0,0,0-.328.265" style="fill:none;stroke:#000001;stroke-miterlimit:10"/><path d="M25.489,101.8a1.784,1.784,0,0,1-.8,1.148l-2.944,1.778-3.564,2.142a1.821,1.821,0,0,1-.383.173" style="fill:none;stroke:#000001;stroke-miterlimit:10"/><path d="M28.1,100.237a2.2,2.2,0,0,0-2.2-3.654l-3.325,2a2.2,2.2,0,0,0,2.2,3.654Z" style="fill:none;stroke:#000001;stroke-miterlimit:10;stroke-width:0.5px"/></g><g id="ba26ea3b-5ac6-4d1a-9fce-e07ebd3cc491" data-name="Annotations"><path d="M152.226,16.543a6.258,6.258,0,0,0-.6-1.2,5.98,5.98,0,0,0-5.669-2.707L72.11,19.411a4.815,4.815,0,0,0-4.23,5.627l1.636,9.3a16.158,16.158,0,0,1,.211,3.785l-.066,1.051-3.517,1.117c-.008.05-.012.1-.016.149l-4.267.132c-1.464.074-2.544,2.172-2.412,4.683s1.418,4.485,2.878,4.411l5.124-.156c.082.173.169.342.256.515h1.954l1.228-.445.685,1.962a16.037,16.037,0,0,1,.787,3.426l1.1,9.544a4.235,4.235,0,0,0,4.312,3.747l73.739-2.609A5.794,5.794,0,0,0,154.7,64.6a6.091,6.091,0,0,0,2.6-4.837C157.777,43.566,156.224,27.189,152.226,16.543Z" style="fill:#d3d5d6"/><path d="M145.956,12.64,72.108,19.411a4.818,4.818,0,0,0-4.23,5.626l1.638,9.3a16,16,0,0,1,.211,3.785l-.23,3.644a16.005,16.005,0,0,0,.858,6.275l1.22,3.5a16.018,16.018,0,0,1,.784,3.423l1.106,9.547a4.233,4.233,0,0,0,4.313,3.745l73.74-2.608a6,6,0,0,0,5.784-5.881c.474-16.2-1.077-32.577-5.076-43.225A6.01,6.01,0,0,0,145.956,12.64Z" style="fill:none;stroke:#000001;stroke-miterlimit:10;stroke-width:1.5px"/><path d="M151.621,15.349c.485.653.264,2.4-.05,3.257-4.157,11.348.172,32.06,4.125,40.518a5.64,5.64,0,0,1-1,5.481" style="fill:none;stroke:#000001;stroke-miterlimit:10;stroke-width:0.5px"/><path d="M151.21,16.032,126.663,18.4l-24.554,2.289L77.555,22.98c-1.006.108-2.084.161-3.03.316a2.294,2.294,0,0,0-1.7,2.016,10.023,10.023,0,0,0,.14,1.487l.177,1.535c.11,1.024.2,2.05.276,3.079s.116,2.06.119,3.1-.076,2.07-.1,3.088a46.384,46.384,0,0,0,.189,6.126,68.609,68.609,0,0,0,2.5,12.016c.518,1.991,1.037,3.983,1.4,6.023l.118.77a2.472,2.472,0,0,0,.191.676,2.307,2.307,0,0,0,.932,1.023,2.375,2.375,0,0,0,1.366.3l1.54-.067,24.638-1.057,24.638-1.058,24.641-.975L130.958,62.6l-24.634,1.144L81.689,64.888l-1.54.071a2.8,2.8,0,0,1-1.6-.353,2.733,2.733,0,0,1-1.114-1.216,2.9,2.9,0,0,1-.23-.8l-.117-.753c-.362-2.007-.886-4-1.409-5.98a68.8,68.8,0,0,1-2.553-12.085,46.885,46.885,0,0,1-.171-6.191c.03-1.036.12-2.055.111-3.072s-.042-2.043-.108-3.065-.158-2.042-.265-3.062l-.172-1.528a10.016,10.016,0,0,1-.136-1.578,2.731,2.731,0,0,1,2.031-2.4c1.079-.175,2.062-.207,3.1-.317l24.563-2.2,24.563-2.2Z" style="fill:#000001"/><path d="M76.219,25.319a7.046,7.046,0,0,0,.962,3.558,23.2,23.2,0,0,0,1.962,3.169,50.45,50.45,0,0,0,4.83,5.7,60.765,60.765,0,0,0,5.493,5.075c.965.79,1.961,1.543,3,2.238a20.786,20.786,0,0,0,3.242,1.871,26.061,26.061,0,0,1-6.477-3.807,54.2,54.2,0,0,1-5.614-5.03,46.092,46.092,0,0,1-4.786-5.827,22.872,22.872,0,0,1-1.866-3.285A7.148,7.148,0,0,1,76.219,25.319Z" style="fill:#000001"/><path d="M81.114,59.4a12.478,12.478,0,0,0,4.184,1.2c1.441.229,2.9.368,4.352.482,2.911.235,5.831.347,8.752.393q8.761.141,17.521-.351,8.752-.435,17.456-1.528c2.9-.368,5.788-.8,8.659-1.341a82.825,82.825,0,0,0,8.539-1.973,103.224,103.224,0,0,1-17.147,3.695c-5.8.814-11.637,1.316-17.481,1.645-5.846.287-11.7.412-17.556.236-2.926-.094-5.851-.247-8.765-.534-1.456-.154-2.911-.335-4.351-.6A12.515,12.515,0,0,1,81.114,59.4Z" style="fill:#000001"/><path d="M66.128,40.437l-4.267.132c-1.464.074-2.544,2.172-2.412,4.683s1.418,4.485,2.878,4.411l5.124-.156" style="fill:none;stroke:#000001;stroke-miterlimit:10"/><line x1="61.857" y1="49.132" x2="66.213" y2="48.976" style="fill:none;stroke:#000001;stroke-miterlimit:10;stroke-width:0.25px"/><line x1="61.39" y1="48.585" x2="65.747" y2="48.428" style="fill:none;stroke:#000001;stroke-miterlimit:10;stroke-width:0.25px"/><line x1="61.035" y1="47.836" x2="65.392" y2="47.68" style="fill:none;stroke:#000001;stroke-miterlimit:10;stroke-width:0.25px"/><line x1="60.784" y1="46.942" x2="65.141" y2="46.785" style="fill:none;stroke:#000001;stroke-miterlimit:10;stroke-width:0.25px"/><line x1="60.632" y1="45.956" x2="64.988" y2="45.799" style="fill:none;stroke:#000001;stroke-miterlimit:10;stroke-width:0.25px"/><line x1="60.57" y1="44.934" x2="64.926" y2="44.777" style="fill:none;stroke:#000001;stroke-miterlimit:10;stroke-width:0.25px"/><line x1="60.593" y1="43.93" x2="64.949" y2="43.773" style="fill:none;stroke:#000001;stroke-miterlimit:10;stroke-width:0.25px"/><line x1="60.694" y1="42.999" x2="65.05" y2="42.843" style="fill:none;stroke:#000001;stroke-miterlimit:10;stroke-width:0.25px"/><line x1="60.866" y1="42.196" x2="65.222" y2="42.04" style="fill:none;stroke:#000001;stroke-miterlimit:10;stroke-width:0.25px"/><line x1="61.103" y1="41.576" x2="65.459" y2="41.42" style="fill:none;stroke:#000001;stroke-miterlimit:10;stroke-width:0.25px"/><line x1="61.398" y1="41.194" x2="65.754" y2="41.037" style="fill:none;stroke:#000001;stroke-miterlimit:10;stroke-width:0.25px"/><path d="M69.661,39.169l-3.515,1.119a15.73,15.73,0,0,0,1.559,9.735h1.956l1.23-.445" style="fill:none;stroke:#000001;stroke-miterlimit:10"/><path d="M69.661,50.023a15.73,15.73,0,0,1-1.56-9.735l1.523-.537" style="fill:none;stroke:#000001;stroke-miterlimit:10;stroke-width:0.5px"/><line x1="68.101" y1="40.288" x2="66.146" y2="40.288" style="fill:none;stroke:#000001;stroke-miterlimit:10;stroke-width:0.5px"/><polyline points="67.987 41.332 66.779 42.017 66.779 42.431 67.92 42.431" style="fill:none;stroke:#000001;stroke-miterlimit:10;stroke-width:0.5px"/><polyline points="68.011 44.596 66.682 45.116 66.779 45.647 68.16 45.647" style="fill:none;stroke:#000001;stroke-miterlimit:10;stroke-width:0.5px"/><polyline points="68.656 47.624 67.383 48.013 67.5 48.434 68.944 48.434" style="fill:none;stroke:#000001;stroke-miterlimit:10;stroke-width:0.5px"/><line x1="67.705" y1="50.023" x2="69.302" y2="49.283" style="fill:none;stroke:#000001;stroke-miterlimit:10;stroke-width:0.5px"/><path d="M33.286,97.978c-1.936,1.158-5.324-4.51-3.388-5.667C42.383,84.849,49.27,79.528,45.636,56.967l6.518-1.05C56.354,81.983,46.982,89.792,33.286,97.978Z" style="fill:#d3d5d6;stroke:#000001;stroke-miterlimit:10"/><path d="M46.061,98.194C55.564,91.72,61.28,83.943,57.9,62.93" style="fill:none;stroke:#f2a900;stroke-miterlimit:10;stroke-width:3px"/><polygon points="49.555 101.17 40.593 101.632 44.672 93.639 49.555 101.17" style="fill:#f2a900"/><path d="M56.4,46.213c-.132-2.576-1.455-4.605-2.952-4.526l-2.383.123A2.7,2.7,0,0,0,48.9,40.677l-4.333.334c-1.9.1-3.3,2.819-3.129,6.08a9.475,9.475,0,0,0,.3,1.963.036.036,0,0,1,0,.02,8.2,8.2,0,0,0,.318.965l.012.037a45.546,45.546,0,0,1,2.152,8.332c.037.289.326.4.6.375l4.106-.313h.017a1.929,1.929,0,0,0,.408-.082l3.216-1.052a.647.647,0,0,0,.441-.684,32.94,32.94,0,0,1-.243-5.578l1.154-.058h.008C55.425,50.938,56.53,48.786,56.4,46.213Z" style="fill:#d3d5d6"/><path d="M55.9,46.237a5.7,5.7,0,0,0-.67-2.149,1.914,1.914,0,0,0-1.614-1.176,1.912,1.912,0,0,0-1.387,1.373,5.831,5.831,0,0,0,.219,4.27,1.914,1.914,0,0,0,1.52,1.223c.672-.016,1.206-.667,1.485-1.334a5.71,5.71,0,0,0,.447-2.207,5.3,5.3,0,0,1-.219,2.3,2.2,2.2,0,0,1-1.693,1.628,1.679,1.679,0,0,1-1.2-.43,3.322,3.322,0,0,1-.749-.968,5.748,5.748,0,0,1-.238-4.646,3.31,3.31,0,0,1,.646-1.039A1.681,1.681,0,0,1,53.6,42.53a2.2,2.2,0,0,1,1.85,1.445A5.3,5.3,0,0,1,55.9,46.237Z" style="fill:#000001"/><path d="M49.669,51.234c-1.5.076-2.82-1.949-2.952-4.525s.975-4.727,2.473-4.8l4.256-.218c1.5-.077,2.82,1.949,2.953,4.525s-.976,4.726-2.474,4.8Z" style="fill:none;stroke:#000001;stroke-miterlimit:10"/><path d="M53.446,41.687c-1.5.077-2.606,2.227-2.474,4.8s1.455,4.6,2.953,4.525" style="fill:none;stroke:#000001;stroke-miterlimit:10;stroke-width:0.5px"/><path d="M51.063,41.81A2.7,2.7,0,0,0,48.9,40.677l-4.333.332c-1.9.1-3.3,2.82-3.129,6.081a9.485,9.485,0,0,0,.3,1.963.036.036,0,0,1,0,.02,8.455,8.455,0,0,0,.317.965l.013.037a45.632,45.632,0,0,1,2.15,8.334c.037.287.327.4.6.376l4.124-.317a1.67,1.67,0,0,0,.407-.081l3.216-1.052A.643.643,0,0,0,53,56.652a32.006,32.006,0,0,1-.231-5.635" style="fill:none;stroke:#000001;stroke-miterlimit:10"/><path d="M48.9,40.677c-1.9.1-3.3,2.819-3.13,6.081a9.475,9.475,0,0,0,.3,1.962.038.038,0,0,1,0,.021,8.247,8.247,0,0,0,.318.964l.012.037" style="fill:none;stroke:#000001;stroke-miterlimit:10;stroke-width:0.5px"/><path d="M46.4,49.742a45.663,45.663,0,0,1,2.151,8.335.461.461,0,0,0,.6.375" style="fill:none;stroke:#000001;stroke-miterlimit:10;stroke-width:0.5px"/><polygon points="122.799 36.661 106.01 37.534 105.706 31.678 94.679 43.033 106.823 53.185 106.519 47.329 123.308 46.457 122.799 36.661" style="fill:#f2a900;stroke:#fff;stroke-miterlimit:10;stroke-width:1.5px"/></g></svg>