<svg xmlns="http://www.w3.org/2000/svg" xmlns:xlink="http://www.w3.org/1999/xlink" width="161.749" height="161.749" viewBox="0 0 161.749 161.749"><defs><linearGradient id="linear-gradient" x1="124.2" y1="82.504" x2="114.221" y2="74.817" gradientUnits="userSpaceOnUse"><stop offset="0" stop-color="#fff" stop-opacity="0"/><stop offset="1" stop-color="#fff"/></linearGradient></defs><g id="below"><path d="M138.68,57.383l-67-7.547s-3.558-16.55-8.8-36.789c-.509-1.965-.147-3.914,2.664-3.834l27.749.781c9.291.262,13.344,2.966,18.26,6.477" style="fill:none;stroke:#a7abae;stroke-linecap:round;stroke-linejoin:round;stroke-width:0.5px"/><path d="M5.954,8.033c6.063-.018,18.98-.049,22.642.01,4.838.078,5.853.625,7.257,2.42a15.234,15.234,0,0,1,3.122,6.867c.858,3.589,4.263,19.048,6.423,31.413" style="fill:none;stroke:#a7abae;stroke-linecap:round;stroke-linejoin:round;stroke-width:0.5px"/><path d="M47.831,17.636c-2.142-.141-2.617.023-2.066,3.167s1.832,9.9,2.229,11.909.877,2.765,2.7,3.142a65.317,65.317,0,0,0,6.645.863c1.363.088,2.2-.468,1.486-3.344S55.934,22.494,55.306,20.4,53.121,18.177,52,17.98,48.955,17.71,47.831,17.636Z" style="fill:none;stroke:#a7abae;stroke-linecap:round;stroke-linejoin:round;stroke-width:0.5px"/><path d="M89.309,7.791c-9.953-.287-20.667-.463-24.4-.549-4.861-.111-6.606,1.1-4.348,9.687,2.574,9.8,5.8,25.323,11.689,56.73.158.847.243.975-.776,1.995s-1.249,1.831-.787,4.908c2.107,14.028,5.425,28.286,5.425,28.286" style="fill:none;stroke:#a7abae;stroke-linecap:round;stroke-linejoin:round;stroke-width:0.5px"/><path d="M51.324,24.349c-2.576.045-2.689.119-3.19.84s-.286,1.241-.054,2.228.592,2.3.772,2.939.546,1.034,1.745.736a18.759,18.759,0,0,0,3.854-1.373c.764-.457.827-.967,1.03-2.166a3.112,3.112,0,0,0-.113-2.1C55.109,24.658,54.309,24.3,51.324,24.349Z" style="fill:none;stroke:#a7abae;stroke-linecap:round;stroke-linejoin:round;stroke-width:0.5px"/><path d="M71.493,142.171c4.665.924,8.164,1.612,9.39,1.843,3.5.66,5.314,2.579,5.783,4.767.244,1.14.68,3.3,1.041,5.106" style="fill:none;stroke:#a7abae;stroke-linecap:round;stroke-linejoin:round;stroke-width:0.5px"/><path d="M85.046,156.384c-.352-1.775-.937-4.7-1.228-6.058-.434-2.025-2.115-3.8-5.351-4.411-1.486-.28-6.581-1.286-12.983-2.556" style="fill:none;stroke:#a7abae;stroke-linecap:round;stroke-linejoin:round;stroke-width:0.5px"/><path d="M110.449,133.282s-1.042-4.22-1.3-5.158-1.406-1.459-5.418-2.032" style="fill:none;stroke:#a7abae;stroke-linecap:round;stroke-linejoin:round;stroke-width:0.5px"/><path d="M106.8,136.772s-.729-3.8-.938-5.053-.417-1.719-3.334-2.032" style="fill:none;stroke:#a7abae;stroke-linecap:round;stroke-linejoin:round;stroke-width:0.5px"/><line x1="109.568" y1="129.751" x2="158.98" y2="140.106" style="fill:none;stroke:#a7abae;stroke-linecap:round;stroke-linejoin:round;stroke-width:0.5px"/><line x1="3.144" y1="107.446" x2="16.153" y2="110.173" style="fill:none;stroke:#a7abae;stroke-linecap:round;stroke-linejoin:round;stroke-width:0.5px"/><line x1="74.032" y1="74.255" x2="100.133" y2="78.006" style="fill:none;stroke:#a7abae;stroke-linecap:round;stroke-linejoin:round;stroke-width:0.5px"/><g id="Offset_Group" data-name="Offset Group"><path d="M39.057,36.421a10.456,10.456,0,0,1,4.778,5.654c1.02,2.708,1.961,5.568,2.547,7.4a4.8,4.8,0,0,1,.157,3.087,2.3,2.3,0,0,1-.883,1.091,3.488,3.488,0,0,1-1.626.516l.15.847a12.91,12.91,0,0,1,5.045,1.619,8.36,8.36,0,0,1,2.4,2.729A123.222,123.222,0,0,1,62.679,81.91l.119.314a14.811,14.811,0,0,1,1.288,6.61c-.178,2.451-1.169,5.275-3.391,9.274-1.426,2.567-3.274,5.348-4.435,7.038,14.6-4.967,25.535-6.828,31.368-7.424,3.668-.375,6.146-.386,8.376.315,2.12.667,3.951,1.957,6.345,4.021,2.829,2.437,4.235,4.348,4.68,6.1a5.355,5.355,0,0,1-.185,3.173,4.287,4.287,0,0,1,.15.646c.24,1.5.073,4.221-.342,8.3-.427,4.206-.91,6.983-1.147,8.348-.046.265-.081.47-.106.623a6.959,6.959,0,0,1-1.687,3.371,73.343,73.343,0,0,1-12,11.757c-.222.177-.4.321-.543.435a5.18,5.18,0,0,1-1.741,1.094,2.267,2.267,0,0,1-1.016,0l-.184-.028-4.165-.761v-3.886a33.343,33.343,0,0,1-6.036.472c-.32,0-.655,0-1.019.007-1.407.015-2.278.023-5.816,1.215a18.07,18.07,0,0,1-9.908.649s-35.129-7.136-36.376-7.4a2.609,2.609,0,0,1-1.056-.5,5.556,5.556,0,0,1-1.46-1.943c-.277-.548-.63-1.238-1.033-2.023-1.812-3.539-4.628-9.035-5.705-11.816a9.412,9.412,0,0,1-.675-4.167,6.18,6.18,0,0,1,.634-2.376.63.63,0,0,0-.085.315V104.2a23.839,23.839,0,0,0-.986-6.749c-.275-.808-.895-2.883-1.7-5.557C11.174,86.3,8.7,78.01,6.84,72.791l-.074-.209v0c-1.9-5.35-2.981-8.322-2.658-10.642a5.648,5.648,0,0,1,.927-2.384,2.562,2.562,0,0,1-.737-.716,2.612,2.612,0,0,1-.41-1.278c-.209-2.636-.442-8.915-.29-11.548.258-4.47,3.426-7.867,4.908-9.469a9.282,9.282,0,0,0,2.6-5.253c.806-3.993,1.955-9.413,1.958-9.413a52.185,52.185,0,0,1,1.092-6.521A5.1,5.1,0,0,1,15.519,12.8c.9-.823,2.244-1.232,4.316-1.619a32.847,32.847,0,0,1,11.207,0A6,6,0,0,1,34.477,12.7,5.985,5.985,0,0,1,35.851,16.2c.366,2.557.692,5.044.9,7.454a16.182,16.182,0,0,1-.893,6.985c-.039.117-.076.231-.113.342-.47,1.434-.824,2.581-1.72,3.314-.035.029-.07.056-.106.083A11.435,11.435,0,0,1,39.057,36.421Z" style="fill:none;stroke:#a7abae;stroke-linecap:round;stroke-linejoin:round;stroke-width:0.5px"/><path d="M38.858,36.739a10.082,10.082,0,0,1,4.626,5.469c1.017,2.7,1.955,5.551,2.541,7.386a4.448,4.448,0,0,1,.165,2.836,1.924,1.924,0,0,1-.741.916,3.45,3.45,0,0,1-1.861.477l.268,1.522c2.5.43,4.015.835,5.159,1.606a7.987,7.987,0,0,1,2.291,2.615A122.8,122.8,0,0,1,62.328,82.043l.119.314a14.448,14.448,0,0,1,1.265,6.449c-.172,2.372-1.133,5.139-3.344,9.12-1.731,3.115-4.091,6.552-5.069,7.946,15.113-5.237,26.42-7.169,32.368-7.777,3.661-.374,6.073-.377,8.224.3,2.044.643,3.827,1.89,6.214,3.947,2.813,2.424,4.145,4.272,4.561,5.909a5.037,5.037,0,0,1-.22,3.08,3.666,3.666,0,0,1,.178.706c.23,1.442.071,4.108-.345,8.2-.426,4.194-.907,6.961-1.143,8.322q-.069.394-.107.628a6.59,6.59,0,0,1-1.612,3.2,72.983,72.983,0,0,1-11.939,11.7c-.221.176-.4.322-.546.438a4.891,4.891,0,0,1-1.6,1.022,1.918,1.918,0,0,1-.86,0c-.061-.01-.123-.02-.189-.029l-3.843-.7V140.8a33.949,33.949,0,0,1-6.412.535c-.321,0-.656,0-1.022.007-1.452.015-2.363.032-5.932,1.235a17.689,17.689,0,0,1-9.714.636s-35.127-7.135-36.371-7.4a2.236,2.236,0,0,1-.906-.431,5.184,5.184,0,0,1-1.354-1.815c-.278-.549-.632-1.24-1.034-2.025-1.817-3.549-4.621-9.023-5.689-11.78a9.052,9.052,0,0,1-.652-4,5.681,5.681,0,0,1,.585-2.217.25.25,0,0,0-.034.126V104.2a24.229,24.229,0,0,0-1.006-6.87c-.272-.8-.889-2.864-1.69-5.543C11.535,86.192,9.054,77.9,7.193,72.666l-.074-.21h0c-1.922-5.4-2.947-8.261-2.64-10.465a5.344,5.344,0,0,1,.965-2.373l-.026-.267a2.3,2.3,0,0,1-.809-.72,2.237,2.237,0,0,1-.348-1.1c-.209-2.631-.44-8.89-.29-11.5C4.22,41.716,7.287,38.411,8.78,36.8a9.638,9.638,0,0,0,2.7-5.433c.81-4.007,1.964-9.453,1.964-9.448a51.947,51.947,0,0,1,1.081-6.46,4.732,4.732,0,0,1,1.253-2.382c.807-.741,2.053-1.139,4.131-1.527a32.476,32.476,0,0,1,11.074,0,5.649,5.649,0,0,1,3.23,1.41,5.631,5.631,0,0,1,1.272,3.3c.365,2.555.69,5.034.893,7.433a15.811,15.811,0,0,1-.875,6.835c-.039.118-.077.232-.113.343-.483,1.473-.809,2.492-1.6,3.141a3.362,3.362,0,0,1-1.112.582A11.734,11.734,0,0,1,38.858,36.739Z" style="fill:none;stroke:#a7abae;stroke-linecap:round;stroke-linejoin:round;stroke-width:0.5px"/></g><path d="M30.96,34.679c4.682.372,5.657.945,7.764,2.271A9.84,9.84,0,0,1,43.25,42.3c1.015,2.692,1.951,5.54,2.537,7.374s.7,3.98-2.5,3.9l.352,1.99c4.6.78,5.779,1.43,7.452,4.136a122.9,122.9,0,0,1,11.12,22.747C63.93,86.972,64.5,89.982,60.149,97.8c-2.228,4.01-5.506,8.561-5.506,8.561,15.465-5.425,27.025-7.406,33.049-8.021,7.127-.728,9.359-.027,14.249,4.187,4.756,4.1,5.133,6.438,4.236,8.8.478,1.075.361,3.885-.147,8.879s-1.092,7.96-1.248,8.935a6.338,6.338,0,0,1-1.561,3.082,74.774,74.774,0,0,1-12.447,12.1c-1.482,1.21-1.638,1.054-2.458.936s-3.628-.663-3.628-.663v-4.1A37.439,37.439,0,0,1,77,141.09c-1.483.016-2.419.039-6.009,1.248a17.437,17.437,0,0,1-9.584.628s-35.127-7.135-36.369-7.4c-.646-.138-1.347-.645-2.089-2.114-1.537-3.039-5.417-10.435-6.713-13.782-1.431-3.694-.084-6-.084-6V104.2a24.473,24.473,0,0,0-1.019-6.951c-.833-2.445-4.948-16.913-7.7-24.664S3.777,62.39,5.7,59.685l-.048-.492A1.883,1.883,0,0,1,4.51,57.511c-.208-2.626-.439-8.872-.289-11.463.243-4.216,3.243-7.459,4.743-9.081a9.889,9.889,0,0,0,2.756-5.554c.811-4.013,1.968-9.471,1.968-9.471a51.633,51.633,0,0,1,1.073-6.42c.648-2.351,1.5-3.04,5.189-3.729a32.211,32.211,0,0,1,10.985,0c3.284.567,3.933,1.946,4.3,4.5s.689,5.026.891,7.418a15.543,15.543,0,0,1-.864,6.736C34.3,33.36,34.117,34.3,30.96,34.679Z" style="fill:none;stroke:#a7abae;stroke-linecap:round;stroke-linejoin:round;stroke-width:0.5px"/><path d="M30.859,34.646s-4.656.684-5.931.892a19.328,19.328,0,0,1-5.748-.182c-3.226-.39-4.162-.858-5.151-2.783s-1.118-2.679-.884-5.281.442-5.383.442-5.383" style="fill:none;stroke:#a7abae;stroke-linecap:round;stroke-linejoin:round;stroke-width:0.5px"/><path d="M21.342,35.585s-6.207,1.02-7.924,1.332-2.614.507-4.409,3.9-2.025,5.237-1.678,8.935c.3,3.186.559,6.1.715,7.452s.565,2.758,1.344,2.913h0l.778.155.371,1.845a7.93,7.93,0,0,0,.109,5.024C11.272,69.276,18.4,92.478,19.7,96.12c1.278,3.579,1.941,6.741,1.352,13.506" style="fill:none;stroke:#a7abae;stroke-linecap:round;stroke-linejoin:round;stroke-width:0.5px"/><path d="M5.553,59.159a55.211,55.211,0,0,0,7.358,1.6,9.262,9.262,0,0,0,4.175-.117,5.1,5.1,0,0,0,3.355-2.5c1.132-1.639,1.405-2.615,1.8-5.7s.9-3.863,2.614-4.331,4.565-.979,5.93-1.252,2.45-.057,4.09,2.454c1.912,2.926,2,3.948,8.319,4.221" style="fill:none;stroke:#a7abae;stroke-linecap:round;stroke-linejoin:round;stroke-width:0.5px"/><path d="M43.54,55.528s-3.239-.546-4.448-.819-1.756-.078-3-1.912a5.453,5.453,0,0,0-2.848-2.5c-1.053-.507-2.029-.312-5.97.546-2.126.463-3.855.961-5,1.32" style="fill:none;stroke:#a7abae;stroke-linecap:round;stroke-linejoin:round;stroke-width:0.5px"/><path d="M20.772,57.642a40.077,40.077,0,0,1-2.555,3.778c-.936,1.093-1.873,1.522-4.019,1.288a66.392,66.392,0,0,1-7.062-1.327A1.732,1.732,0,0,1,5.6,59.651" style="fill:none;stroke:#a7abae;stroke-linecap:round;stroke-linejoin:round;stroke-width:0.5px"/><path d="M21.937,63.241c-.312,1.092.463,2.69,3.324,9.089s6.1,13.9,8.7,21.5,3.321,9.731.824,21.124" style="fill:none;stroke:#a7abae;stroke-linecap:round;stroke-linejoin:round;stroke-width:0.5px"/><path d="M36.443,116.231,50.8,107.885c1.513-.878,2.49-3.74,2.49-7.369,0-2.38-.624-5.267-2.3-10.223s-5.5-15.685-6.906-19.274S41.55,65.907,38.9,64.073s-3.824-1.521-5.112-1.248-4.247,1.246-5.495,1.6c-2.626.739-3.19,3.959-3.513,6.826" style="fill:none;stroke:#a7abae;stroke-linecap:round;stroke-linejoin:round;stroke-width:0.5px"/><path d="M54.542,106.332a12.231,12.231,0,0,1-3.738,1.553" style="fill:none;stroke:#a7abae;stroke-linecap:round;stroke-linejoin:round;stroke-width:0.5px"/><path d="M41.163,119.775l-6.506-4.885-1.639.063a40.01,40.01,0,0,0-6.971-4.318c-3.694-1.717-7.918-1.538-9.958,3.156" style="fill:none;stroke:#a7abae;stroke-linecap:round;stroke-linejoin:round;stroke-width:0.5px"/><path d="M86.906,117.7s-6.92-1.821-10.613-2.809-6.815-.937-11.914-.521-15.3,1.977-18.1,2.341a6.653,6.653,0,0,0-4.172,2.06c-1.509,1.357-1.647,2.239-1.36,3.054a.569.569,0,0,0,.569.379c11.72-.654,16.319-.539,21.464-.23,5.2.312,7.335.676,14.41,3.174s9.417,2.029,11.342,1.612,7.146-3.661,10.977-6.971a30.036,30.036,0,0,0,6.571-8.489" style="fill:none;stroke:#a7abae;stroke-linecap:round;stroke-linejoin:round;stroke-width:0.5px"/><path d="M84.688,140.5a23.837,23.837,0,0,0,5.83-2.218s-.284,3.028-.43,4.8-.356,2.48-1.873,2.161" style="fill:none;stroke:#a7abae;stroke-linecap:round;stroke-linejoin:round;stroke-width:0.5px"/><path d="M106.226,116.942c-.133,1.559-1,4.137-5.8,8.39s-9.724,10.062-25.01,10.73" style="fill:none;stroke:#a7abae;stroke-linecap:round;stroke-linejoin:round;stroke-width:0.5px"/><path d="M48.712,116.185s-.139-.452,4.543-3.417,5.931-3.8,11.706-5.411,19.353-2.965,36.1-2.757" style="fill:none;stroke:#a7abae;stroke-linecap:round;stroke-linejoin:round;stroke-width:0.5px"/><path d="M41.14,126.968l-8.222-2.16a.433.433,0,0,1-.316-.5l1.4-7.23a1.08,1.08,0,0,0-.3-.966L38.959,120" style="fill:none;stroke:#a7abae;stroke-linecap:round;stroke-linejoin:round;stroke-width:0.5px"/><line x1="40.649" y1="121.467" x2="41.33" y2="129.099" style="fill:none;stroke:#a7abae;stroke-linecap:round;stroke-linejoin:round;stroke-width:0.5px"/><path d="M18.165,16.419c1.2,0,1.769.26,1.743,1.457s-.416,7.96-.494,9-.184,1.409-1.873,1.327-1.795-.6-1.769-1.509.52-7.543.65-8.818S17.255,16.419,18.165,16.419Z" style="fill:none;stroke:#a7abae;stroke-linecap:round;stroke-linejoin:round;stroke-width:0.5px"/><path d="M19.023,18.721c-.052.781-.39,5.684-.416,6.035s-.026.666-.624.65-.689-.143-.689-.715.377-5.514.416-5.957.26-.507.767-.507C18.854,18.227,19.045,18.4,19.023,18.721Z" style="fill:none;stroke:#a7abae;stroke-linecap:round;stroke-linejoin:round;stroke-width:0.5px"/><path d="M17.043,12.5a10.872,10.872,0,0,1,5.654.242c1.577.682,1.961,1.619,1.833,4.3s-.3,6.093-.426,7.84a8,8,0,0,0,.724,4.517c.767,1.705,1.023,2.173,3.068,2.088s4.389-.511,5.625-.682a2.152,2.152,0,0,0,2.092-1.938" style="fill:none;stroke:#a7abae;stroke-linecap:round;stroke-linejoin:round;stroke-width:0.5px"/></g><g id="illustration"><path d="M154.94,130.649c.754.981.326,3.208-5.26,6.41a56.16,56.16,0,0,0-6.424,4.236l.363.521c-3.726,3.3-8.488,4.169-8.937,3.578a7.431,7.431,0,0,1-.642-1.132,1.065,1.065,0,0,1-.066-.8c-1.843-2.261-2.3-5.526-3.155-6.731-.888-1.266-2.828-3.925-2.828-3.925-.662-1.012,1.362-.958,1.362-.958l2.182-1.53c-.848-1.314,1.919-3.712,3.114-2.147,2.616,3.426,2.195,3.305,5.189,3.494,4.139.262,3.419.286,6.942-1.155C147.335,130.286,152,126.822,154.94,130.649Z" style="fill:none;stroke:#000001;stroke-linecap:round;stroke-linejoin:round;stroke-width:1.5px"/><path d="M128.464,131.317c3.768,4.6,3.865,7.366,6,6.133a1.563,1.563,0,0,0,.486-2.1" style="fill:none;stroke:#000001;stroke-linecap:round;stroke-linejoin:round;stroke-width:1.5px"/><path d="M144.655,139.52c1.016,1.368-.274,4.142-6.486,7.073a33.832,33.832,0,0,0-6.141,3.412l.364.522c-3.727,3.3-8.488,4.168-8.938,3.578a7.379,7.379,0,0,1-.641-1.133,1.068,1.068,0,0,1-.067-.8c-1.842-2.26-2.3-5.525-3.154-6.731-.888-1.265-2.828-3.925-2.828-3.925-.663-1.011,1.362-.958,1.362-.958l2.182-1.53c-.849-1.314,1.919-3.712,3.114-2.147,2.616,3.427,2.2,3.3,5.189,3.495,4.138.261,3.419.285,6.942-1.155C141.861,136.644,143.572,138.063,144.655,139.52Z" style="fill:none;stroke:#000001;stroke-linecap:round;stroke-linejoin:round;stroke-width:1.5px"/><path d="M118.126,140.56c3.843,5.121,3.619,8.414,5.94,7.183.983-.521.736-1.645.363-2.432" style="fill:none;stroke:#000001;stroke-linecap:round;stroke-linejoin:round;stroke-width:1.5px"/><path d="M132.114,132.822c-1.971,1.972-3.733,1.905-4.4,1.059-8.57-10.836-15.336-12.139-23.426-26.53,0,0-16.2,3.674-33.31,5.77s-20.038-11.189-20.038-11.189l22.443-7.62c12.121-2.6,22.6-5.014,33.508-4.68,3.765.118,5.661,2.686,6.687,4.378,9.95,16.4,19.4,31.066,21.4,33.154a1.588,1.588,0,0,1-.019,2.554" style="fill:none;stroke:#000001;stroke-linecap:round;stroke-linejoin:round;stroke-width:1.5px"/><path d="M124.769,139.078l-3.1,4.12c-1.82,1.29-3.51,1.46-3.95.88-9.3-12.43-18.55-16.01-25.07-32.47,0,0-3.03,1.32-14.61,3.49-.63-.16-1.22-.32-1.75-.46-3.69-.98-6.81-.93-11.91-.52s-15.29,1.98-18.1,2.35c-.28.04-.55.09-.8.15a15.25,15.25,0,0,1-7.64-10.26l25.77-8.71c11.47-1.84,21.94-4.23,31.67-4.73,5.13-.26,5.67,1.64,7.28,4.2,10.29,16.34,17.66,34.24,21.93,39.87C125.289,138.038,125.189,138.768,124.769,139.078Z" style="fill:none;stroke:#000001;stroke-linecap:round;stroke-linejoin:round;stroke-width:1.5px"/><path d="M92.652,111.613a21.268,21.268,0,0,1-1.085-3.4c-.325-1.474-.541-1.924-1.041-.9-.481.982-.385,1.451,0,1.889" style="fill:none;stroke:#000001;stroke-linecap:round;stroke-linejoin:round;stroke-width:1.5px"/><path d="M154.94,130.649c.754.981.326,3.208-5.26,6.41a56.16,56.16,0,0,0-6.424,4.236l.363.521c-3.726,3.3-8.488,4.169-8.937,3.578a7.431,7.431,0,0,1-.642-1.132,1.065,1.065,0,0,1-.066-.8c-1.843-2.261-2.3-5.526-3.155-6.731-.888-1.266-2.828-3.925-2.828-3.925-.662-1.012,1.362-.958,1.362-.958l2.182-1.53c-.848-1.314,1.919-3.712,3.114-2.147,2.616,3.426,2.195,3.305,5.189,3.494,4.139.262,3.419.286,6.942-1.155C147.335,130.286,152,126.822,154.94,130.649Z" style="fill:#fff;stroke:#000001;stroke-linecap:round;stroke-linejoin:round;stroke-width:0.5px"/><path d="M128.464,131.317c3.768,4.6,3.865,7.366,6,6.133a1.563,1.563,0,0,0,.486-2.1" style="fill:none;stroke:#000001;stroke-linecap:round;stroke-linejoin:round;stroke-width:0.5px"/><path d="M144.655,139.52c1.016,1.368-.274,4.142-6.486,7.073a33.832,33.832,0,0,0-6.141,3.412l.364.522c-3.727,3.3-8.488,4.168-8.938,3.578a7.379,7.379,0,0,1-.641-1.133,1.068,1.068,0,0,1-.067-.8c-1.842-2.26-2.3-5.525-3.154-6.731-.888-1.265-2.828-3.925-2.828-3.925-.663-1.011,1.362-.958,1.362-.958l2.182-1.53c-.849-1.314,1.919-3.712,3.114-2.147,2.616,3.427,2.2,3.3,5.189,3.495,4.138.261,3.419.285,6.942-1.155C141.861,136.644,143.572,138.063,144.655,139.52Z" style="fill:#fff;stroke:#000001;stroke-linecap:round;stroke-linejoin:round;stroke-width:0.5px"/><path d="M118.126,140.56c3.843,5.121,3.619,8.414,5.94,7.183.983-.521.736-1.645.363-2.432" style="fill:none;stroke:#000001;stroke-linecap:round;stroke-linejoin:round;stroke-width:0.5px"/><path d="M132.114,132.822c-1.971,1.972-3.733,1.905-4.4,1.059-8.57-10.836-15.336-12.139-23.426-26.53,0,0-16.2,3.674-33.31,5.77s-20.038-11.189-20.038-11.189l22.443-7.62c12.121-2.6,22.6-5.014,33.508-4.68,3.765.118,5.661,2.686,6.687,4.378,9.95,16.4,19.4,31.066,21.4,33.154a1.588,1.588,0,0,1-.019,2.554" style="fill:#fff;stroke:#000001;stroke-linecap:round;stroke-linejoin:round;stroke-width:0.5px"/><path d="M124.769,139.078l-3.1,4.12c-1.82,1.29-3.51,1.46-3.95.88-9.3-12.43-18.55-16.01-25.07-32.47,0,0-3.03,1.32-14.61,3.49-.63-.16-1.22-.32-1.75-.46-3.69-.98-6.81-.93-11.91-.52s-15.29,1.98-18.1,2.35c-.28.04-.55.09-.8.15a15.25,15.25,0,0,1-7.64-10.26l25.77-8.71c11.47-1.84,21.94-4.23,31.67-4.73,5.13-.26,5.67,1.64,7.28,4.2,10.29,16.34,17.66,34.24,21.93,39.87C125.289,138.038,125.189,138.768,124.769,139.078Z" style="fill:#fff;stroke:#000001;stroke-linecap:round;stroke-linejoin:round;stroke-width:0.5px"/><path d="M92.652,111.613a21.268,21.268,0,0,1-1.085-3.4c-.325-1.474-.541-1.924-1.041-.9-.481.982-.385,1.451,0,1.889" style="fill:none;stroke:#000001;stroke-linecap:round;stroke-linejoin:round;stroke-width:0.5px"/><path d="M74.82,50.486c2.982,1.1,7.1,5.413,5.641,8.405-1.241,2.538-3.61,3.441-12.128,1.918-8.7-1.557-26.48-4.885-30.75-7.326-3.219-1.84-4.114-3.777-3.648-6.954a7.074,7.074,0,0,1,7.989-5.944C49.017,41.534,64.1,46.539,74.82,50.486Z" style="fill:#fff;stroke:#000001;stroke-linecap:round;stroke-linejoin:round"/><path d="M52.956,46.833c7.257,5.516,9.387,6.775,10.264,11.425.737,3.906-1.074,6.378.362,7.6,3.992,3.4,6.642,5.759,8.345,9.093,2.511,4.915,3.254,7.575,3.5,12.584a7.171,7.171,0,0,0,1.71,4.968s-6.376,2.218-10.893,4.129c-11.161,4.724-19.473,5.609-25.091,8.141-3.408,1.536-2.9,3.965-2.9,3.965-3.327-7.218-1.863-13.288-9.108-25.673a121.033,121.033,0,0,1-7.573-14.5c-8.181-18.709-3.512-24.737,8.011-27.224a43.988,43.988,0,0,1,9.648-.879,27.417,27.417,0,0,1,7.416,1.047c2.234.557,8.238,2.254,8.238,2.254" style="fill:#fff;stroke:#000001;stroke-linecap:round;stroke-linejoin:round"/><path d="M47.809,60.561a10.853,10.853,0,0,1-.465,7.9c-2.018,4.372-7.552,6.789-13.35,3.574" style="fill:none;stroke:#000001;stroke-linecap:round;stroke-linejoin:round;stroke-width:0.5px"/><path d="M32.793,41.336c-6.309,1.11-2.642,4.21,2.86,6.176C46.6,51.424,46.569,49.9,46.779,45.976,47.013,41.579,40.245,40.025,32.793,41.336Z" style="fill:#fff;stroke:#000001;stroke-linecap:round;stroke-linejoin:round;stroke-width:0.5px"/><path d="M46.552,108.369c8.042-11.5,33.342-11.8,31.213-15.468-.889-1.529-2.188-3.78-2.188-3.78,0,3.743-24.131,3.052-33.88,15.89" style="fill:#d3d5d6;stroke:#000001;stroke-linecap:round;stroke-linejoin:round"/><path d="M55.406,32.324c0,.258-.3.415-.559.452l-4.487.65a.663.663,0,0,1-.552-.175" style="fill:#d3d5d6;stroke:#000001;stroke-linecap:round;stroke-linejoin:round"/><path d="M86.906,117.7s-6.92-1.821-10.613-2.809-6.815-.937-11.914-.521-15.3,1.977-18.1,2.341a6.653,6.653,0,0,0-4.172,2.06c-1.509,1.357-1.647,2.239-1.36,3.054" style="fill:none;stroke:#a7abae;stroke-linecap:round;stroke-linejoin:round"/><polyline points="33.651 127.155 38.518 116.666 40.241 117.724 35.714 127.401" style="fill:none;stroke:#000001;stroke-linejoin:round;stroke-width:1.5px"/><path d="M41.423,107.548a.879.879,0,0,1,.642.144l3.5,2.416a.881.881,0,0,1,.33,1.017,38.979,38.979,0,0,1-1.615,3.782,16.252,16.252,0,0,1-2.2,3.52.877.877,0,0,1-1.136.172l-3.566-2.242a.879.879,0,0,1-.38-.976c.173-.634.533-1.8,1.267-3.751,1.266-3.366,1.655-3.579,2.313-3.847A3.953,3.953,0,0,1,41.423,107.548Z" style="fill:none;stroke:#000001;stroke-linejoin:round;stroke-width:1.5px"/><path d="M40.825,109.74c.448.352,2.178,1.46,2.7,1.812s1.323-.083,1.735-.273l-4.447-3.1C40.185,108.753,39.794,108.93,40.825,109.74Z" style="fill:none;stroke:#000001;stroke-linejoin:round;stroke-width:1.5px"/><polyline points="33.651 127.155 38.518 116.666 40.241 117.724 35.714 127.401" style="fill:#d3d5d6;stroke:#000001;stroke-linecap:round;stroke-linejoin:round;stroke-width:0.5px"/><path d="M41.423,107.548a.879.879,0,0,1,.642.144l3.5,2.416a.881.881,0,0,1,.33,1.017,38.979,38.979,0,0,1-1.615,3.782,16.252,16.252,0,0,1-2.2,3.52.877.877,0,0,1-1.136.172l-3.566-2.242a.879.879,0,0,1-.38-.976c.173-.634.533-1.8,1.267-3.751,1.266-3.366,1.655-3.579,2.313-3.847A3.953,3.953,0,0,1,41.423,107.548Z" style="fill:#d3d5d6;stroke:#000001;stroke-linecap:round;stroke-linejoin:round;stroke-width:0.5px"/><path d="M40.825,109.74c.448.352,2.178,1.46,2.7,1.812s1.323-.083,1.735-.273l-4.447-3.1C40.185,108.753,39.794,108.93,40.825,109.74Z" style="fill:#fff;stroke:#000001;stroke-linecap:round;stroke-linejoin:round;stroke-width:0.5px"/><path d="M41.913,103.932a.354.354,0,0,0-.344-.041,4.2,4.2,0,0,0-.793.543,4.111,4.111,0,0,0-.516,1.2c-.43,1.2-.14,1.661.182,1.945.1.088.549.417,1.143.841l2.736,1.929c.505.352.9.625,1.057.727a1.316,1.316,0,0,0,1.7-.551c.274-.49.454-.89.584-1.145.066-.13.2-.406.313-.645a.551.551,0,0,0-.153-.672Z" style="fill:none;stroke:#000001;stroke-linecap:round;stroke-linejoin:round;stroke-width:1.5px"/><path d="M54.492,33.1c2.608,11.771,1.44,24.07-2.415,37.258-2.939,10.052-6.512,16.28-5.525,38L41.7,105.011C40.6,87.578,45.032,77.835,48.4,66.67c2.477-8.2,4.443-21.776,2.624-33.057Z" style="fill:none;stroke:#000001;stroke-linecap:round;stroke-linejoin:round;stroke-width:1.5px"/><path d="M41.913,103.932a.354.354,0,0,0-.344-.041,4.2,4.2,0,0,0-.793.543,4.111,4.111,0,0,0-.516,1.2c-.43,1.2-.14,1.661.182,1.945.1.088.549.417,1.143.841l2.736,1.929c.505.352.9.625,1.057.727a1.316,1.316,0,0,0,1.7-.551c.274-.49.454-.89.584-1.145.066-.13.2-.406.313-.645a.551.551,0,0,0-.153-.672Z" style="fill:#d3d5d6;stroke:#000001;stroke-linecap:round;stroke-linejoin:round;stroke-width:0.5px"/><path d="M54.492,33.1c2.608,11.771,1.44,24.07-2.415,37.258-2.939,10.052-6.512,16.28-5.525,38L41.7,105.011C40.6,87.578,45.032,77.835,48.4,66.67c2.477-8.2,4.443-21.776,2.624-33.057Z" style="fill:#d3d5d6;stroke:#000001;stroke-linecap:round;stroke-linejoin:round;stroke-width:0.5px"/><path d="M28.916,65.083c-2.256,5.889-4.163,8.79-7.434,13.6a1.587,1.587,0,0,1,.743,1.521c4.892,3.848,8.909,8.1,13.8,10.568,2.918-1.4,3.16-2.817,6.133-2.333L42,90.6l1.969.282a1.75,1.75,0,0,1,1.179.545c.717.759,2.784,2.834,2.976,3.021,1,.978-.252,2.258-1.65,1.208l-1.964-1.717-2.291-.068,2.913,2.791L46.307,97.7a1.143,1.143,0,0,1,.044,1.6,1.354,1.354,0,0,1-1.308.395l-.57-.136-.564.584a1.355,1.355,0,0,1-1.523.3l-.07-.031-.534.529a1.355,1.355,0,0,1-1.293.351l-1.995-.514a2.46,2.46,0,0,1-.711-.309l-6.606-4.2c-3.8-1.808-11.132-5.127-15.421-7.242,0,0-.793.355-2.244-.7C9.769,85.6,6.925,84.353,9.4,76.006c1.7-5.734,6.725-22.875,6.725-22.875a14.774,14.774,0,0,1,8.728-10.392" style="fill:#fff;stroke:#000001;stroke-linecap:round;stroke-linejoin:round"/><path d="M21.89,80.246c-3.2-2.449-9.458,6.879-5.565,8.874" style="fill:none;stroke:#000001;stroke-linecap:round;stroke-linejoin:round;stroke-width:0.5px"/><path d="M21.526,79.026c-1.9-1.8-5.316-3.582-8.625-.121-1.447,1.515-1.4.054-.464-1a2.685,2.685,0,0,1,1.253-.816" style="fill:none;stroke:#000001;stroke-linecap:round;stroke-linejoin:round;stroke-width:0.5px"/><polyline points="42.256 94.244 41.375 93.473 41.307 92.834" style="fill:none;stroke:#000001;stroke-linecap:round;stroke-linejoin:round;stroke-width:0.5px"/><polyline points="44.815 99.42 41.476 97.38 40.957 97.721" style="fill:none;stroke:#000001;stroke-linecap:round;stroke-linejoin:round;stroke-width:0.5px"/><polyline points="42.567 100.341 39.87 98.986 39.015 99.459" style="fill:none;stroke:#000001;stroke-linecap:round;stroke-linejoin:round;stroke-width:0.5px"/><path d="M43.666,91.04l-2.732-.317a.621.621,0,0,1-.482-.335l-.191-.376" style="fill:none;stroke:#000001;stroke-linecap:round;stroke-linejoin:round;stroke-width:0.5px"/><path d="M57.9,142.254l-1.625-.33a2.864,2.864,0,0,1-2.168-1.967l-4.639-15.12a2.361,2.361,0,0,1,2.2-3.053l1.789-.045" style="fill:none;stroke:#a7abae;stroke-linecap:round;stroke-linejoin:round;stroke-width:0.5px"/><path d="M16.261,113.185c1.647-2.19,4.858-5.277,14.405,4.321a1.08,1.08,0,0,1,.295.966l-1.4,7.226a.435.435,0,0,0,.319.5l11.446,2.9" style="fill:none;stroke:#a7abae;stroke-linecap:round;stroke-linejoin:round;stroke-width:0.5px"/><path d="M76.492,51.259c-5.682-2.2-12.855-5.047-14.4-5.847a3.551,3.551,0,0,1-1.162-.965l-5.118-6.059c-.468-.6-1.455-.658-2.981-.617-2.1.057-2.27-.056-3.811,1.242-.9.758-1.3,1.072-1.119,1.375.543.915,1.989.05,2.687-.545l-1.479,1.651a.9.9,0,0,0-.194.847l.263.927-.079.146a.91.91,0,0,0-.084.639l.825,3.463a.527.527,0,0,0,.549.432c1.21-.109.833-1.74.783-1.983l.708-.934,1.672-.237s.442.86,1.268,2.181c.818,1.3,4.429,2.464,5.471,3.435,5.046,4.7,8.678,8.4,10.376,9.476,3.306,2.093,7.472,2.7,9.346,2.208.751-.2,1.418-.2,1.881-.808a3.439,3.439,0,0,0,.28-2.917C81.77,56.258,79.352,52.366,76.492,51.259Z" style="fill:none;stroke:#000001;stroke-linecap:round;stroke-linejoin:round;stroke-width:1.5px"/><path d="M53.839,39.128l-.2.174a.557.557,0,0,1-.314.135l-2.29.214a.812.812,0,0,0-.532.269l-.619.7" style="fill:none;stroke:#000001;stroke-linecap:round;stroke-linejoin:round;stroke-width:1.5px"/><path d="M53.929,42.7l-2.91.582a.751.751,0,0,0-.5.358l-.9,1.535a1.126,1.126,0,0,0-.133.781l.128.667" style="fill:none;stroke:#000001;stroke-linecap:round;stroke-linejoin:round;stroke-width:1.5px"/><path d="M49.177,43.268l.943-1.415a.9.9,0,0,1,.635-.4l2.382-.312a.554.554,0,0,0,.383-.232l.127-.181" style="fill:none;stroke:#000001;stroke-linecap:round;stroke-linejoin:round;stroke-width:1.5px"/><path d="M76.492,51.259c-5.682-2.2-12.855-5.047-14.4-5.847a3.551,3.551,0,0,1-1.162-.965l-5.118-6.059c-.468-.6-1.455-.658-2.981-.617-2.1.057-2.27-.056-3.811,1.242-.9.758-1.3,1.072-1.119,1.375.543.915,1.989.05,2.687-.545l-1.479,1.651a.9.9,0,0,0-.194.847l.263.927-.079.146a.91.91,0,0,0-.084.639l.825,3.463a.527.527,0,0,0,.549.432c1.21-.109.833-1.74.783-1.983l.708-.934,1.672-.237s.442.86,1.268,2.181c.818,1.3,4.429,2.464,5.471,3.435,5.046,4.7,8.678,8.4,10.376,9.476,3.306,2.093,7.472,2.7,9.346,2.208.751-.2,1.418-.2,1.881-.808a3.439,3.439,0,0,0,.28-2.917C81.77,56.258,79.352,52.366,76.492,51.259Z" style="fill:#fff;stroke:#000001;stroke-linecap:round;stroke-linejoin:round;stroke-width:0.5px"/><path d="M53.839,39.128l-.2.174a.557.557,0,0,1-.314.135l-2.29.214a.812.812,0,0,0-.532.269l-.619.7" style="fill:none;stroke:#000001;stroke-linecap:round;stroke-linejoin:round;stroke-width:0.5px"/><path d="M53.929,42.7l-2.91.582a.751.751,0,0,0-.5.358l-.9,1.535a1.126,1.126,0,0,0-.133.781l.128.667" style="fill:none;stroke:#000001;stroke-linecap:round;stroke-linejoin:round;stroke-width:0.5px"/><path d="M49.177,43.268l.943-1.415a.9.9,0,0,1,.635-.4l2.382-.312a.554.554,0,0,0,.383-.232l.127-.181" style="fill:none;stroke:#000001;stroke-linecap:round;stroke-linejoin:round;stroke-width:0.5px"/><path d="M44.855,44.934c-1.955-1.438-1.072-3.21-1.678-6.876,3.278.753,4.6-.035,4.8-3.468.121-2.115.2-3.786.262-4.228,3.377-1.183.92-2.366-.479-5.728-.578-1.387,1.8-.989.356-7.209-.005-.014-.009-.033-.014-.047l.023.056s.95-1-1.189-4.526c-3.008-4.959-11.19-7.952-17.4-3.652C21.228,15,24.142,19.845,24.918,21.2c.761,1.345-.25,8.3,1.424,8.207v0c0,8.32-3.99,7.017-3.99,14.626" style="fill:#fff;stroke:#000001;stroke-linecap:round;stroke-linejoin:round"/><line x1="43.199" y1="37.818" x2="40.112" y2="37.076" style="fill:none;stroke:#000001;stroke-linecap:round;stroke-linejoin:round;stroke-width:0.5px"/><path d="M37.217,21.406A29.17,29.17,0,0,0,36.834,32c1.722,10.315.118,14.173-5.731,12.66-4.836-1.251-6.141-1.556-8.908-.261" style="fill:none;stroke:#000001;stroke-linecap:round;stroke-linejoin:round;stroke-width:0.5px"/><path d="M26.246,29.271c5.04-.764,6.979-3.161,9.4-5.9.812-.916,4.106-6.128,8.983-6.681,3.018-.342,3.247.991,3.247.991" style="fill:none;stroke:#000001;stroke-linecap:round;stroke-linejoin:round;stroke-width:0.5px"/><path d="M46.965,22.928A7.033,7.033,0,0,0,48.1,25.846" style="fill:none;stroke:#000001;stroke-linecap:round;stroke-linejoin:round;stroke-width:0.5px"/><path d="M48.41,30.037a7.347,7.347,0,0,1-1.616.388" style="fill:none;stroke:#000001;stroke-linecap:round;stroke-linejoin:round;stroke-width:0.5px"/><path d="M46.4,32.719a4.8,4.8,0,0,1-3.137-.6" style="fill:none;stroke:#000001;stroke-linecap:round;stroke-linejoin:round;stroke-width:0.5px"/></g><g id="above"><path d="M121.056,63.988l-.663-1.724a.874.874,0,0,1,.006-.644l.56-1.377a.876.876,0,0,1,.867-.543l1.164.077a.872.872,0,0,1,.716.466l1.926,3.668a2.4,2.4,0,0,1,.27.934l.156,2.04" style="fill:#fff;stroke:#a7abae;stroke-linecap:round;stroke-linejoin:round"/><path d="M132.578,72.462s-.31-.165-3.229-1.75c-1.564-.849-2.574-3.813-4.713-4.983-.79-.435-1.646-.888-2.441-1.338a3.023,3.023,0,0,0-1.663-.431.941.941,0,0,0-.5-.755c-.645-.365-3.474-1.98-4.619-2.559-.305-.155-.61-.3-.91-.43a35.808,35.808,0,0,0,1.465-6.113,22.437,22.437,0,0,0,.225-3.059c0-5.2-2.219-7.328-3.7-8.167-1.744-.985-5.543-1.93-11.411,2.809a46.15,46.15,0,0,0-10.456,12.97A46.16,46.16,0,0,0,84.91,74.3c-1.035,7.473,1.734,10.242,3.478,11.226a6.4,6.4,0,0,0,3.189.8,9.1,9.1,0,0,0,3-.545l.015,0,10.227-3.564a1.916,1.916,0,0,0,.915,1.929c.475.31,1.309.86,4.738,3.1s5.443,2.034,10.261,4.9M90.977,82.318a1.156,1.156,0,0,1-.329-.11c-.81-.459-1.45-2.649-.935-6.367.06-.445.233-1.413.228-1.358a3.541,3.541,0,0,1,3.536-.817c.219,2.934,2.659,2.215,2.544,4.6Zm20.863-29.58a33.023,33.023,0,0,1-1.584,6.293,17.665,17.665,0,0,0-8.137,1.24c-2.395.86-4.679,1.784-5.653,2.869-1.13.175-2.58.55-2.694.58.429-.87.894-1.74,1.384-2.609,5.683-10.057,12.356-14.9,15.04-14.9a1.461,1.461,0,0,1,.71.16C111.715,46.83,112.355,49.015,111.84,52.738Z" style="stroke:#a7abae;stroke-linecap:round;stroke-miterlimit:10;fill:url(#linear-gradient)"/><path d="M89.693,74.5a44.692,44.692,0,0,1,4.562-12.312.022.022,0,0,0,.013-.006" style="fill:none;stroke:#a7abae;stroke-linecap:round;stroke-linejoin:round;stroke-width:0.5px"/><path d="M96.463,63.419a24.488,24.488,0,0,1,6.483.457,8.012,8.012,0,0,0,4.4-.415,53.16,53.16,0,0,0,5.034-1.783c1-.457.822-.679-.748-1.288a19.139,19.139,0,0,0-6.092-.831" style="fill:none;stroke:#a7abae;stroke-linecap:round;stroke-linejoin:round;stroke-width:0.5px"/><path d="M107.312,74.806q-.288.777-.572,1.662C105.7,79.709,105,82.327,105,82.327" style="fill:none;stroke:#a7abae;stroke-linecap:round;stroke-linejoin:round;stroke-width:0.5px"/><path d="M120.708,64.073c-.038.008-1.892.6-4.327,1.591-2.937,1.2-5.022,2.2-6.75,4.568" style="fill:none;stroke:#a7abae;stroke-linecap:round;stroke-linejoin:round;stroke-width:0.5px"/><path d="M112.387,73.833a2.1,2.1,0,0,1,1.125.685,2.753,2.753,0,0,1,0,3.525,1.993,1.993,0,0,1-3.083,0,2.73,2.73,0,0,1-.6-2.239" style="fill:none;stroke:#a7abae;stroke-linecap:round;stroke-linejoin:round;stroke-width:0.5px"/><path d="M112.743,75.1l-.68-2.452a2.99,2.99,0,0,0-1.042-1.559l-.478-.373a2.985,2.985,0,0,0-1.319-.588l-8.268-1.464a2.986,2.986,0,0,0-1.4.084l-.305.094a1.032,1.032,0,0,0-.676.65l-.717,2.064a1.036,1.036,0,0,0,.068.833l.408.756a.856.856,0,0,0,.633.44c1.76.246,8.4,1.184,9.587,1.436a2.9,2.9,0,0,1,2.118,1.73" style="fill:none;stroke:#a7abae;stroke-linecap:round;stroke-linejoin:round;stroke-width:0.5px"/><path d="M95.972,74.228c-.742-.292-1.62-.542-2.521-.816" style="fill:none;stroke:#a7abae;stroke-linecap:round;stroke-linejoin:round;stroke-width:0.5px"/><path d="M90.677,82.471a3.978,3.978,0,0,0,3.409-.352" style="fill:none;stroke:#a7abae;stroke-linecap:round;stroke-linejoin:round;stroke-width:0.5px"/><path d="M110.256,59.031a11.777,11.777,0,0,1,4.248,1.185" style="fill:none;stroke:#a7abae;stroke-linecap:round;stroke-linejoin:round"/></g></svg>