<svg xmlns="http://www.w3.org/2000/svg" width="487.497" height="250" viewBox="0 0 487.497 250"><g id="below"><path d="M185.307,60.747H160.832" style="fill:none;stroke:#a7abae;stroke-linecap:round;stroke-linejoin:round;stroke-width:0.5px"/><path d="M243.713,66.187H222.944c-9.6,0-10.728-5.44-24.374-5.44h-3.876" style="fill:none;stroke:#a7abae;stroke-linecap:round;stroke-linejoin:round;stroke-width:0.5px"/><path d="M243.713,70.911H216.968a1.365,1.365,0,0,0-1.365,1.364V103.9a1.365,1.365,0,0,0,1.365,1.365h26.745" style="fill:none;stroke:#a7abae;stroke-linecap:round;stroke-linejoin:round;stroke-width:0.5px"/><path d="M284.408,99.7l-2.819,5.786a6.96,6.96,0,0,1-6.258,3.913H219.448a6.962,6.962,0,0,1-6.258-3.913l-4.81-9.874a4.344,4.344,0,0,0-3.492-2.421" style="fill:none;stroke:#a7abae;stroke-linecap:round;stroke-linejoin:round;stroke-width:0.5px"/><path d="M276.645,109.273l-3.6,6.16a11.962,11.962,0,0,1-10.324,5.921H232.062a11.96,11.96,0,0,1-10.323-5.921l-3.605-6.16" style="fill:none;stroke:#a7abae;stroke-linecap:round;stroke-linejoin:round;stroke-width:0.5px"/><path d="M243.713,66.187c21.736,0,46.435.24,64.978.552" style="fill:none;stroke:#a7abae;stroke-linecap:round;stroke-linejoin:round;stroke-width:0.5px"/><path d="M243.713,70.91h33.781a1.365,1.365,0,0,1,1.365,1.365V103.9a1.365,1.365,0,0,1-1.365,1.365H243.713" style="fill:none;stroke:#a7abae;stroke-linecap:round;stroke-linejoin:round;stroke-width:0.5px"/><line x1="190.607" y1="65.354" x2="174.403" y2="65.354" style="fill:none;stroke:#a7abae;stroke-linecap:round;stroke-linejoin:round;stroke-width:0.5px"/><path d="M205.366,79.948l.382-13.229a1.318,1.318,0,0,0-1.325-1.365H199" style="fill:none;stroke:#a7abae;stroke-linecap:round;stroke-linejoin:round;stroke-width:0.5px"/><path d="M207,122.052h11.25a1.6,1.6,0,0,1,1.6,1.542l.687,17.983" style="fill:none;stroke:#a7abae;stroke-linecap:round;stroke-linejoin:round;stroke-width:0.5px"/><path d="M266.884,141.577l.687-17.983a1.6,1.6,0,0,1,1.6-1.542h11.25" style="fill:none;stroke:#a7abae;stroke-linecap:round;stroke-linejoin:round;stroke-width:0.5px"/><path d="M331.085,61.034c-3.393-.167-12.287-.718-32.481-1.128-1.773-.036-5.03.722-6.957.688-12.475-.216-28.229-.373-47.811-.373-8.318,0-17.16.108-25.408.226-2.083.029-5.917-.7-7.906-.7-5.951,0-10.737.032-16.842.142" style="fill:none;stroke:#a7abae;stroke-linecap:round;stroke-linejoin:round;stroke-width:0.5px"/><path d="M160.828,54.808a32.91,32.91,0,0,1,42.4,43.4" style="fill:none;stroke:#a7abae;stroke-linecap:round;stroke-linejoin:round;stroke-width:0.5px"/><path d="M157.43,62.423a27.586,27.586,0,0,1,15.5-4.733,24.05,24.05,0,0,1,10.731,2.155c5.691,2.831,7.382,6.155,10.3,9.983,1.5,1.968,3.341,2.024,4.695,5.257.283.675.52,1.373.739,2.078.5,1.747-1.34,2.735-1.34,2.735" style="fill:none;stroke:#a7abae;stroke-linecap:round;stroke-linejoin:round;stroke-width:0.5px"/><path d="M205.658,82.168h2.093a.747.747,0,0,1,.671.417l.379.768a.741.741,0,0,1,.076.382l-.132,1.953a.751.751,0,0,1-.144.394l-.49.664a.748.748,0,0,1-.6.305h-1.743" style="fill:none;stroke:#a7abae;stroke-linecap:round;stroke-linejoin:round;stroke-width:0.5px"/></g><g id="illustration"><path d="M216.981,165.016c-1.706,8.748-1.912,11.965-1.424,22.439.284,6.1.432,10.66,1.158,14.293,1.844,9.2,5.111,9.811,27,9.811" style="fill:none;stroke:#a7abae;stroke-linecap:round;stroke-linejoin:round;stroke-width:0.5px"/><path d="M216.5,161.389c-.529,2.941.042,4.464,3.407,4.464H240.62c1.682,0,3.093-.665,3.093-2.146V133.9" style="fill:none;stroke:#a7abae;stroke-linecap:round;stroke-linejoin:round;stroke-width:0.5px"/><path d="M219.81,165.851c0,8.628.2,25.779,1.1,32.914.92,7.238,1,7.829,22.8,7.829" style="fill:none;stroke:#a7abae;stroke-linecap:round;stroke-linejoin:round;stroke-width:0.5px"/><path d="M218.233,165.674c-.5,8.162-.057,25.917.884,33.32,1.122,8.831,2.572,9.411,24.6,9.411" style="fill:none;stroke:#a7abae;stroke-linecap:round;stroke-linejoin:round;stroke-width:0.5px"/><path d="M220.025,183a.919.919,0,0,1,.918-.942h22.77" style="fill:none;stroke:#a7abae;stroke-linecap:round;stroke-linejoin:round;stroke-width:0.5px"/><path d="M234.8,203.415a.683.683,0,0,1-.682.682h-1.694a.683.683,0,1,1,0-1.365h1.694A.683.683,0,0,1,234.8,203.415Z" style="fill:none;stroke:#a7abae;stroke-linecap:round;stroke-linejoin:round;stroke-width:0.5px"/><line x1="219.816" y1="168.55" x2="243.713" y2="168.55" style="fill:none;stroke:#a7abae;stroke-linecap:round;stroke-linejoin:round;stroke-width:0.5px"/><line x1="243.713" y1="179.702" x2="219.946" y2="179.702" style="fill:none;stroke:#a7abae;stroke-linecap:round;stroke-linejoin:round;stroke-width:0.5px"/><line x1="242.378" y1="179.702" x2="242.378" y2="168.55" style="fill:none;stroke:#a7abae;stroke-linecap:round;stroke-linejoin:round;stroke-width:0.5px"/><line x1="245.121" y1="179.702" x2="245.121" y2="168.55" style="fill:none;stroke:#a7abae;stroke-linecap:round;stroke-linejoin:round;stroke-width:0.5px"/><line x1="219.821" y1="170.351" x2="242.378" y2="170.351" style="fill:none;stroke:#a7abae;stroke-linecap:round;stroke-linejoin:round;stroke-width:0.5px"/><line x1="219.853" y1="172.773" x2="242.378" y2="172.773" style="fill:none;stroke:#a7abae;stroke-linecap:round;stroke-linejoin:round;stroke-width:0.5px"/><line x1="234.637" y1="175.196" x2="242.378" y2="175.196" style="fill:none;stroke:#a7abae;stroke-linecap:round;stroke-linejoin:round;stroke-width:0.5px"/><line x1="219.884" y1="175.196" x2="226.499" y2="175.196" style="fill:none;stroke:#a7abae;stroke-linecap:round;stroke-linejoin:round;stroke-width:0.5px"/><line x1="219.915" y1="177.618" x2="242.378" y2="177.618" style="fill:none;stroke:#a7abae;stroke-linecap:round;stroke-linejoin:round;stroke-width:0.5px"/><path d="M234.637,175.257a.894.894,0,0,1-.894.894h-6.352a.894.894,0,0,1,0-1.788h6.352A.894.894,0,0,1,234.637,175.257Z" style="fill:none;stroke:#a7abae;stroke-linecap:round;stroke-linejoin:round;stroke-width:0.5px"/><path d="M60.189,226.775s-5.3-19.943-13.607-57.708C41.05,143.9,36.216,120.519,35.068,114.778s-5.68-7.191-12.508-7.191-11.9.242-11.9.242l-8.112,2.927" style="fill:none;stroke:#a7abae;stroke-linecap:round;stroke-linejoin:round;stroke-width:0.5px"/><g id="Offset_Group" data-name="Offset Group"><path d="M18.921,15.768C11.37,63.382,9.866,97.973,9.672,103.236l-5.6,1.889" style="fill:none;stroke:#a7abae;stroke-linecap:round;stroke-linejoin:round;stroke-width:0.5px"/><path d="M19.168,15.807C11.53,63.97,10.081,98.8,9.916,103.417l-5.759,1.945" style="fill:none;stroke:#a7abae;stroke-linecap:round;stroke-linejoin:round;stroke-width:0.5px"/><path d="M19.415,15.846c-7.741,48.816-9.123,83.921-9.256,87.753l-5.922,2" style="fill:none;stroke:#a7abae;stroke-linecap:round;stroke-linejoin:round;stroke-width:0.5px"/><path d="M19.662,15.885c-7.876,49.668-9.168,85.13-9.258,87.9l-6.087,2.056" style="fill:none;stroke:#a7abae;stroke-linecap:round;stroke-linejoin:round;stroke-width:0.5px"/></g><path d="M19.909,15.924c-8.2,51.73-9.261,88.038-9.261,88.038L4.4,106.073" style="fill:none;stroke:#a7abae;stroke-linecap:round;stroke-linejoin:round;stroke-width:0.5px"/><line x1="10.648" y1="103.962" x2="10.656" y2="107.829" style="fill:none;stroke:#a7abae;stroke-linecap:round;stroke-linejoin:round;stroke-width:0.5px"/><path d="M101.291,55.571c.816-3.214,3.32-19.1,4.9-28.474s4.243-9.686,8.021-10.473,13.346-.931,19.745-.449c5.3.4,7.512,2.979,9.659,10.922s4.651,17.1,6.011,22.756,3.151,8.918,4.723,10.172" style="fill:none;stroke:#a7abae;stroke-linecap:round;stroke-linejoin:round;stroke-width:0.5px"/><path d="M101.792,53.26c-1.137,6.2-1.742,9.757-9.461,14-1.723.948-3.855,2.024-6.323,3.271-3.972,2.007-8.475,4.282-12.7,6.74-6.034,3.51-6.733,8.138-7.136,14.07" style="fill:none;stroke:#a7abae;stroke-linecap:round;stroke-linejoin:round;stroke-width:0.5px"/><path d="M160.807,64.229c8.064,3.442,18.941,7.878,25.524,11.671s8.086,6.154,9.8,11.807a101.76,101.76,0,0,1,3.721,14.6c.788,5.009,1.561,7.747-3.513,9.92s-5.145,2.889-13.947-.474-8.8-3.578-14.24-9.876-9.878-10.617-18.39-10.841c-10.877-.286-38.427,0-45.583,0s-11.234,2.612-15.313,9.339-4.781,8.252-8.706,10.133c-4.621,2.215-7.7,3.507-7.7,3.507" style="fill:none;stroke:#a7abae;stroke-linecap:round;stroke-linejoin:round;stroke-width:0.5px"/><path d="M76.846,112.064c3.925-1.882,5.662-4.965,9.74-11.691s8.158-9.339,15.314-9.339h4.241" style="fill:none;stroke:#a7abae;stroke-linecap:round;stroke-linejoin:round;stroke-width:0.5px"/><path d="M185.669,112.949c2.856.83,3.765.371,6.154-.682,4.139-1.828,4.586-2.595,3.536-7.964a114.611,114.611,0,0,0-3.787-15.146c-1.518-4.994-2.533-6.911-8.767-10.5-5.518-3.18-14.089-6.809-21.651-10.01-10.613-4.488-13.655-7.178-16.129-17.47-1.183-4.916-3.213-12.416-5.177-19.669l-.818-3.026c-2.158-7.986-4.076-8.986-7.644-9.256-2.427-.182-5.248-.268-8-.268a68.3,68.3,0,0,0-11.108.676l-.294.061c-3.214.665-4.68.968-5.957,8.572" style="fill:none;stroke:#a7abae;stroke-linecap:round;stroke-linejoin:round;stroke-width:0.5px"/><path d="M73.5,118.436s6.712-2.678,10.147-4.467,4.36-2.85,8.344-8.037,6.31-7.244,11.452-7.427c6.971-.249,36.433-.374,44.317-.083s9.5,1.376,15.643,7.22c5.893,5.6,6.6,6.349,12.117,8.216s9.627,3.071,12.2,3.9,3.071.913,4.855-.29a35.459,35.459,0,0,0,2.905-2.158l.865-2.395" style="fill:none;stroke:#a7abae;stroke-linecap:round;stroke-linejoin:round;stroke-width:0.5px"/><path d="M205.443,213.354c-1.28-14.94,2.741-17.392,2.128-38.921-.355-12.492-3.484-29.958-5.706-40.072s-5.287-11.339-18.132-15.451c-2.476-.792-5.8-1.615-9.619-2.908-5.87-1.985-6.893-2.958-12.568-8.355l-.384-.365c-5.9-5.607-7.067-6.336-14.166-6.6-3.2-.118-9.872-.166-17.151-.166-10.841,0-23.018.106-27,.249-4.21.15-5.948,1.607-9.738,6.543-3.986,5.191-5.19,6.633-9.093,8.665-3.5,1.822-9.853,4.333-10.129,4.45-4.117,1.74-5.882,5.108-4.056,12.127" style="fill:none;stroke:#a7abae;stroke-linecap:round;stroke-linejoin:round;stroke-width:0.5px"/><path d="M195.477,115.31c6.012,3.011,7.429,6.2,9.483,15.265s2.479,13.388,3.967,25.005,1.427,33.835.465,37.956-4.71,11.283-3.813,23.3c.412,5.516.71,8.669,1.084,12.826" style="fill:none;stroke:#a7abae;stroke-linecap:round;stroke-linejoin:round;stroke-width:0.5px"/><path d="M86.61,196.108c1.174,6.431,2.271,11.335,3.181,15.626.86,4.056,2.157,5.144,2.157,5.144a61.635,61.635,0,0,0,3.11,8.028l2.348,4.673a1.2,1.2,0,0,0,1.072.661" style="fill:none;stroke:#a7abae;stroke-linecap:round;stroke-linejoin:round;stroke-width:0.5px"/><path d="M96.478,230.24a1.2,1.2,0,0,1-1.072-.661l-2.348-4.673a61.635,61.635,0,0,1-3.11-8.028,14.034,14.034,0,0,1-.367-6.131" style="fill:none;stroke:#a7abae;stroke-linecap:round;stroke-linejoin:round;stroke-width:0.5px"/><path d="M91.948,216.878c1,.632,3.743.843,10.069.9s27.835.09,47.076.09,44.177-.25,54.193-.67c2.313-.1,2.173-2.74,2.173-2.74" style="fill:none;stroke:#a7abae;stroke-linecap:round;stroke-linejoin:round;stroke-width:0.5px"/><path d="M153.181,211.346c-13.043,0-30.721-.144-35.231-.351-9.307-.427-12.413-4.067-18.309-13.592-5.13-8.287-5.633-9.9-7.441-17.077-.218-.862-.459-1.821-.739-2.9-2.484-9.624-5.83-25.692-6.7-31.08-1.468-9.128,2.708-12.366,9.244-16.264,6.944-4.14,10.163-4.877,15.748-4.877.1,0,14.608-.119,26.329-.119,6.94,0,11.589.042,13.817.123.867.032,1.649.053,2.37.072,6.105.163,8.958.383,18.378,4.246,11.418,4.68,13.133,7.311,15.509,16.53l.09.352c2.05,7.951,4.835,25.6,5.668,32.557.975,8.146.106,11.166-3.735,19.572-4.476,9.793-8.086,12.277-18.39,12.658C166.434,211.319,158.905,211.346,153.181,211.346Z" style="fill:none;stroke:#a7abae;stroke-linecap:round;stroke-linejoin:round;stroke-width:0.5px"/><path d="M109.756,129.958c-4.378,0-6.533.313-12.849,4.078-6.349,3.785-7.4,5.232-6.554,10.5.854,5.311,4.2,21.3,6.589,30.566,2.424,9.389,2.045,9.582,7.511,18.413,5.532,8.938,7.271,10.62,13.755,10.917s43.377.5,51.374.2,9.763-1.287,13.451-9.356c3.648-7.981,4.07-9.818,3.264-16.546-.8-6.666-3.56-24.178-5.529-31.816-1.948-7.556-2.153-8.913-12.265-13.059-10.052-4.121-11.479-3.63-18.807-3.9S109.756,129.958,109.756,129.958Z" style="fill:none;stroke:#a7abae;stroke-linecap:round;stroke-linejoin:round;stroke-width:0.5px"/><path d="M134.434,38.443c-.71-4.354-2.918-6.258-6.682-6.4s-6.3-.047-9.129.047-5.129,1.271-5.882,6.635-2.07,19.152-2.4,25.222,1.364,9.034,6.352,9.222,11.67.424,15.952-.047,6.305-2.352,5.74-7.858S136.679,52.212,134.434,38.443Z" style="fill:none;stroke:#a7abae;stroke-linecap:round;stroke-linejoin:round;stroke-width:0.5px"/><path d="M120.39,65.233a2.672,2.672,0,0,1-2.671-2.67c-.007-11.171.438-18.487.722-22.008A2.67,2.67,0,0,1,121.1,38.1h5.745a2.672,2.672,0,0,1,2.663,2.45l1.814,21.792a2.673,2.673,0,0,1-2.663,2.893Z" style="fill:none;stroke:#a7abae;stroke-linecap:round;stroke-linejoin:round;stroke-width:0.5px"/><path d="M120.39,63.989a1.43,1.43,0,0,1-1.427-1.427c-.006-11.223.448-18.543.72-21.907a1.432,1.432,0,0,1,1.418-1.312h5.745a1.434,1.434,0,0,1,1.421,1.308l1.814,21.791a1.427,1.427,0,0,1-1.42,1.547Z" style="fill:none;stroke:#a7abae;stroke-linecap:round;stroke-linejoin:round;stroke-width:0.5px"/><path d="M119.18,50.638a1.292,1.292,0,0,1,1.292-1.268h5.842a1.293,1.293,0,0,1,1.284,1.152l1.194,11a1.292,1.292,0,0,1-1.285,1.431h-7.233a1.293,1.293,0,0,1-1.292-1.3Z" style="fill:none;stroke:#a7abae;stroke-linecap:round;stroke-linejoin:round;stroke-width:0.5px"/><path d="M125.729,45.736a.769.769,0,1,1-1.538,0V43.917a.769.769,0,0,1,1.538,0Z" style="fill:none;stroke:#a7abae;stroke-linecap:round;stroke-linejoin:round;stroke-width:0.5px"/><line x1="128.177" y1="55.863" x2="129.524" y2="55.863" style="fill:none;stroke:#a7abae;stroke-linecap:round;stroke-linejoin:round;stroke-width:0.5px"/><path d="M34.529,14.532c-5.87,32.5-9.566,67.075-9.14,93.16" style="fill:none;stroke:#a7abae;stroke-linecap:round;stroke-linejoin:round;stroke-width:0.5px"/><path d="M38.6,14.532c-7.615,42.166-9.5,74.892-9.127,93.9" style="fill:none;stroke:#a7abae;stroke-linecap:round;stroke-linejoin:round;stroke-width:0.5px"/><path d="M8.529,125.609c2.734-1.058,5.058-1.933,6.746-2.53,11.356-4.015,14.869-.5,14.932,12.3s-4.141,45.047-4.141,45.047,6.4,1.1,8.719,1.477,2.732,1.8,2.586,3.283a7.852,7.852,0,0,1-.61,2.441c.727.813.64,4.242.436,6.945s-1.515,11.68-2.673,19.642a38.078,38.078,0,0,1-1.729,7.134c1.082,3.812,1.129,6.4-1.882,9.694-1.284,1.4-8.16,8.349-15.627,15.856" style="fill:none;stroke:#a7abae;stroke-linecap:round;stroke-linejoin:round;stroke-width:0.5px"/><path d="M6.266,134.446c3.572-1.443,6.39-2.556,7.879-3.093,7.655-2.76,10.866-.613,10.1,7.285-.941,9.725-4.267,28.861-6.274,36.076s-2.949,9.85-9.16,14.493c-1.093.816-3.087,2.267-5.632,4.1" style="fill:none;stroke:#a7abae;stroke-linecap:round;stroke-linejoin:round;stroke-width:0.5px"/><path d="M36.761,187.624c-.625,1.3-1.943,2.336-5.142,5.159-1.415,1.248-14.2,11.717-28.03,23.011" style="fill:none;stroke:#a7abae;stroke-linecap:round;stroke-linejoin:round;stroke-width:0.5px"/><path d="M13.5,184.987c2.536-1.876,7.552-2.857,9.527-3.183a4.824,4.824,0,0,0,1.595-.563l1.442-.818" style="fill:none;stroke:#a7abae;stroke-linecap:round;stroke-linejoin:round;stroke-width:0.5px"/><path d="M8.318,241.185c3.426-3.086,6.95-6.292,8.008-7.276,2.023-1.882,2.258-4.235,2.635-6.87.3-2.081,2.679-15.671,3.667-21.29-4.6,3.861-10.288,8.627-15.465,12.964" style="fill:none;stroke:#a7abae;stroke-linecap:round;stroke-linejoin:round;stroke-width:0.5px"/><path d="M37.328,192.076c-.047,1.178-2.839,3.577-5.8,6.165-.506.442-1.8,1.671-3.791,3.216-1.856,1.443-2.7,3.749-3.174,6.666s-2.615,15.057-3.249,19.128c-.656,4.211,1.127,4.623,3.014,2.988,2.118-1.835,5.282-5.03,6.6-6.4a10.947,10.947,0,0,0,1.871-2.5" style="fill:none;stroke:#a7abae;stroke-linecap:round;stroke-linejoin:round;stroke-width:0.5px"/><path d="M4.681,205.5l6.194-4.781c1.617-1.249,1.592-1.777-.619-1.783l-6.1-.017" style="fill:none;stroke:#a7abae;stroke-linecap:round;stroke-linejoin:round;stroke-width:0.5px"/><path d="M34.659,199.555l-6.1,5.57a4.5,4.5,0,0,0-1.4,2.575c-1.379,8.109-2.669,15.4-3.2,18.841,0,0,4.629-4.429,5.994-5.747a7.371,7.371,0,0,0,2.277-3.626C33.221,210.259,34.267,203.1,34.659,199.555Z" style="fill:none;stroke:#a7abae;stroke-linecap:round;stroke-linejoin:round;stroke-width:0.5px"/><path d="M16.7,193.536l-6.54-.094,8.39-5.942a1,1,0,0,1,.7-.176c5.2.644,3.985,1.309,1.825,2.871C18.867,191.8,16.7,193.536,16.7,193.536Z" style="fill:none;stroke:#a7abae;stroke-linecap:round;stroke-linejoin:round;stroke-width:0.5px"/><path d="M19.565,191.314l0-.073a.928.928,0,0,0-.894-.888l-3.289-.116a1.953,1.953,0,0,0-1.2.358l-2.561,1.813" style="fill:none;stroke:#a7abae;stroke-linecap:round;stroke-linejoin:round;stroke-width:0.5px"/><line x1="13.764" y1="240.01" x2="25.59" y2="229.1" style="fill:none;stroke:#a7abae;stroke-linecap:round;stroke-linejoin:round;stroke-width:0.5px"/><path d="M148.285,4.482c-1.577-.311-.79,2.259.124,6.857,1.122,5.648,4.658,22.351,6.023,30.868.838,5.231.659,10.117-2.85,13.686" style="fill:none;stroke:#a7abae;stroke-linecap:round;stroke-linejoin:round;stroke-width:0.5px"/><path d="M161.758,42.644a.464.464,0,0,0,.359-.17.473.473,0,0,0,.1-.385c-.95-5.282-3.842-20.188-5.463-27.03a.488.488,0,0,0-.459-.377l-.737-.023a.46.46,0,0,0-.368.164.466.466,0,0,0-.1.393c.791,3.826,3.957,20.43,5.087,26.767a.8.8,0,0,0,.784.661Z" style="fill:none;stroke:#a7abae;stroke-linecap:round;stroke-linejoin:round;stroke-width:0.5px"/><path d="M184.413,166.1s-4.864.034-14.076.064l-.642-6.6a.6.6,0,0,0-.6-.544q-3.5.012-7.848.023a.6.6,0,0,0-.537.331l-3.448,6.82c-5.471.01-11.724.016-18.715.016q-10.7,0-18.743-.017l-5.253-6.91a.6.6,0,0,0-.478-.238q-4.572-.011-8.13-.024a.546.546,0,0,0-.529.685l1.711,6.453c-8.281-.03-12.344-.062-12.344-.062" style="fill:none;stroke:#a7abae;stroke-linecap:round;stroke-linejoin:round;stroke-width:0.5px"/><path d="M160.441,159.9c-6.522.01-13.832.017-21.891.017q-13.349,0-23.533-.02" style="fill:none;stroke:#a7abae;stroke-linecap:round;stroke-linejoin:round;stroke-width:0.5px"/><path d="M157.777,165.172q-8.746.012-19.227.012-10.8,0-19.524-.013" style="fill:none;stroke:#a7abae;stroke-linecap:round;stroke-linejoin:round;stroke-width:0.5px"/><path d="M103.721,159.7l-.057-.224a1.568,1.568,0,0,0-1.443-1.132H94.267a.9.9,0,0,0-.914,1.132l1.159,5.443a1.549,1.549,0,0,0,1.44,1.182h4.577l.385-.53L99.5,159.7l1.821-.012" style="fill:none;stroke:#a7abae;stroke-linecap:round;stroke-linejoin:round;stroke-width:0.5px"/><path d="M102.612,164.74l-.191.352.191,1.007h1.5a.892.892,0,0,0,.887-1.182l-.037-.147" style="fill:none;stroke:#a7abae;stroke-linecap:round;stroke-linejoin:round;stroke-width:0.5px"/><path d="M95.87,164.359a.483.483,0,0,0,.473.382H98.92L97.843,160.1a.517.517,0,0,0-.5-.4H94.879Z" style="fill:none;stroke:#a7abae;stroke-linecap:round;stroke-linejoin:round;stroke-width:0.5px"/><path d="M106.707,164.776l-4.095-.016-1.294-5.072,4.094.017" style="fill:none;stroke:#a7abae;stroke-linecap:round;stroke-linejoin:round;stroke-width:0.5px"/><path d="M174.06,164.841l.017.14a1.389,1.389,0,0,0,1.37,1.062h1.759l-.2-1.209h-1.084a.415.415,0,0,1-.418-.323l-.531-4.771h2.663l.846,5.834a.618.618,0,0,0,.621.479l4.149.011a.936.936,0,0,0,1.02-1.062l-.947-5.6a1.389,1.389,0,0,0-1.37-1.062h-7.523a.936.936,0,0,0-1.02,1.062l.04.339" style="fill:none;stroke:#a7abae;stroke-linecap:round;stroke-linejoin:round;stroke-width:0.5px"/><path d="M182.871,164.75l-2.8-.01a.416.416,0,0,1-.418-.324L179,159.74h2.66a.417.417,0,0,1,.419.324Z" style="fill:none;stroke:#a7abae;stroke-linecap:round;stroke-linejoin:round;stroke-width:0.5px"/><line x1="174.974" y1="159.74" x2="169.711" y2="159.749" style="fill:none;stroke:#a7abae;stroke-linecap:round;stroke-linejoin:round;stroke-width:0.5px"/><path d="M176.454,164.834l-6.245.016" style="fill:none;stroke:#a7abae;stroke-linecap:round;stroke-linejoin:round;stroke-width:0.5px"/><path d="M121.274,54.567l1.587-1.6a.369.369,0,0,1,.506-.018l1.671,1.465" style="fill:none;stroke:#a7abae;stroke-linecap:round;stroke-linejoin:round;stroke-width:0.5px"/><path d="M62.616,15.355c-.066.282-10.125,48.885-8.565,99.274.3,9.6-11.569,13.737-9.694,22.607,12.276,58.077,19.1,84.231,20.274,88.657" style="fill:none;stroke:#a7abae;stroke-linecap:round;stroke-linejoin:round;stroke-width:0.5px"/><path d="M48.817,132.623,56.155,122.2c.64-.909,1.93-1.309,2.265.494,8.176,43.946,16.038,79.452,17.787,87.253" style="fill:none;stroke:#a7abae;stroke-linecap:round;stroke-linejoin:round;stroke-width:0.5px"/><path d="M80.845,15.355c-.047.2-5.129,27.435-7.517,59.3" style="fill:none;stroke:#a7abae;stroke-linecap:round;stroke-linejoin:round"/><path d="M29.97,130.592h1.7a3.25,3.25,0,0,0,1.5-.367l3.9-2.026a1.018,1.018,0,0,0,.528-1.113l-.233-1.122" style="fill:none;stroke:#a7abae;stroke-linecap:round;stroke-linejoin:round;stroke-width:0.5px"/><path d="M36.666,199.128,50.007,188.5a1.607,1.607,0,0,0,.565-1.613l-.267-1.171" style="fill:none;stroke:#a7abae;stroke-linecap:round;stroke-linejoin:round;stroke-width:0.5px"/><line x1="27.16" y1="234.91" x2="28.577" y2="241.615" style="fill:none;stroke:#a7abae;stroke-linecap:round;stroke-linejoin:round;stroke-width:0.5px"/><path d="M33.165,222.8l3-2.432c2.8-2.268,4.2-3.6,10.174-2.926a29.972,29.972,0,0,1,3.324.574,6.483,6.483,0,0,1,4.793,4.565l1.479,5.26" style="fill:none;stroke:#a7abae;stroke-linecap:round;stroke-linejoin:round;stroke-width:0.5px"/><path d="M29.445,106.917s16.676-.626,19.648-.782,3.962-.626,8.134-2.347,8.809-3.7,8.809-3.7" style="fill:none;stroke:#a7abae;stroke-linecap:round;stroke-linejoin:round;stroke-width:0.5px"/><path d="M270.446,165.016c1.706,8.748,1.912,11.965,1.424,22.439-.284,6.1-.432,10.66-1.158,14.293-1.844,9.2-5.111,9.811-27,9.811" style="fill:none;stroke:#a7abae;stroke-linecap:round;stroke-linejoin:round;stroke-width:0.5px"/><path d="M243.713,133.9c0-.377.222-1,1.383-1a116.355,116.355,0,0,1,17.442,1.286c1.846.309,2.951,1.1,3.482,3.482,2.6,11.7,4.1,19.128,5.355,26.218s2.393,11.206,1.829,23.315c-.329,7.038-.433,13.055-1.269,17.543-2.015,10.82-6.189,11.569-28.222,11.569s-26.207-.749-28.221-11.569c-.836-4.488-.941-10.5-1.269-17.543-.564-12.109.574-16.225,1.829-23.315s2.751-14.517,5.355-26.218c.531-2.385,1.636-3.173,3.482-3.482a116.345,116.345,0,0,1,17.442-1.286c1.16,0,1.382.627,1.382,1" style="fill:none;stroke:#a7abae;stroke-linecap:round;stroke-linejoin:round;stroke-width:0.5px"/><g id="Offset_Group-2" data-name="Offset Group"><path d="M269.85,237.279a5.1,5.1,0,0,1-3.733,4.9c-3.527.976-10.3,2.16-22.4,2.16s-18.876-1.184-22.4-2.16a5.091,5.091,0,0,1-3.733-4.9L217.5,212.2c-1.4-1.808-2.17-4.216-2.749-7.324a106.482,106.482,0,0,1-1.115-13.842q-.077-1.848-.165-3.8a76.465,76.465,0,0,1,1.4-21.051c.144-.782.292-1.585.441-2.43,1.257-7.1,2.757-14.542,5.362-26.25a5.444,5.444,0,0,1,1.443-2.881,4.847,4.847,0,0,1,2.647-1.178,117.126,117.126,0,0,1,17.566-1.3,2.48,2.48,0,0,1,1.382.356,2.485,2.485,0,0,1,1.383-.356,117.126,117.126,0,0,1,17.566,1.3,4.847,4.847,0,0,1,2.647,1.178,5.444,5.444,0,0,1,1.443,2.881c2.605,11.708,4.1,19.147,5.362,26.25.149.845.3,1.648.441,2.43a76.505,76.505,0,0,1,1.4,21.051c-.061,1.3-.114,2.571-.166,3.8a106.5,106.5,0,0,1-1.114,13.842c-.579,3.108-1.353,5.516-2.749,7.324Z" style="fill:none;stroke:#a7abae;stroke-linecap:round;stroke-linejoin:round;stroke-width:0.5px"/><path d="M269.6,237.278a4.846,4.846,0,0,1-3.55,4.657c-3.5.969-10.243,2.151-22.337,2.151s-18.837-1.182-22.336-2.151a4.843,4.843,0,0,1-3.55-4.657l-.075-25.161c-1.391-1.767-2.168-4.147-2.752-7.284a106.24,106.24,0,0,1-1.111-13.806q-.077-1.848-.165-3.8a76.216,76.216,0,0,1,1.394-20.994c.144-.782.292-1.585.441-2.431,1.257-7.1,2.755-14.534,5.36-26.24a5.2,5.2,0,0,1,1.371-2.754,4.607,4.607,0,0,1,2.516-1.112,116.75,116.75,0,0,1,17.525-1.293,2.092,2.092,0,0,1,1.382.417,2.1,2.1,0,0,1,1.383-.417,116.75,116.75,0,0,1,17.525,1.293,4.607,4.607,0,0,1,2.516,1.112,5.2,5.2,0,0,1,1.371,2.754c2.605,11.706,4.1,19.141,5.36,26.24.149.846.3,1.649.441,2.431a76.216,76.216,0,0,1,1.394,20.994q-.091,1.956-.165,3.8a106.24,106.24,0,0,1-1.111,13.806c-.584,3.137-1.361,5.517-2.752,7.284Z" style="fill:none;stroke:#a7abae;stroke-linecap:round;stroke-linejoin:round;stroke-width:0.5px"/><path d="M269.35,237.277a4.6,4.6,0,0,1-3.367,4.417c-3.47.961-10.191,2.142-22.27,2.142s-18.8-1.181-22.27-2.142a4.592,4.592,0,0,1-3.366-4.417L218,212.029c-1.386-1.724-2.166-4.074-2.756-7.242a105.986,105.986,0,0,1-1.107-13.771c-.052-1.231-.105-2.5-.166-3.8a76.044,76.044,0,0,1,1.39-20.938c.144-.781.293-1.586.442-2.432,1.256-7.095,2.754-14.526,5.358-26.229a4.946,4.946,0,0,1,1.3-2.627,4.358,4.358,0,0,1,2.386-1.048,116.6,116.6,0,0,1,17.483-1.289,1.762,1.762,0,0,1,1.3.428,1.234,1.234,0,0,1,.085.095,1.251,1.251,0,0,1,.086-.095,1.762,1.762,0,0,1,1.3-.428,116.608,116.608,0,0,1,17.483,1.289,4.358,4.358,0,0,1,2.386,1.048,4.953,4.953,0,0,1,1.3,2.627c2.6,11.7,4.1,19.134,5.357,26.229.15.846.3,1.651.443,2.432a76.013,76.013,0,0,1,1.389,20.938q-.09,1.956-.165,3.8a105.986,105.986,0,0,1-1.107,13.771c-.59,3.168-1.371,5.518-2.756,7.242Z" style="fill:none;stroke:#a7abae;stroke-linecap:round;stroke-linejoin:round;stroke-width:0.5px"/></g><path d="M269.175,211.94l-.075,25.337a4.348,4.348,0,0,1-3.183,4.176c-3.443.953-10.139,2.133-22.2,2.133s-18.76-1.18-22.2-2.133a4.342,4.342,0,0,1-3.183-4.176l-.075-25.337c-1.38-1.679-2.165-4-2.76-7.2-.836-4.488-.941-10.5-1.269-17.543-.564-12.109.574-16.225,1.829-23.315s2.751-14.517,5.355-26.218c.531-2.385,1.636-3.173,3.482-3.482a116.345,116.345,0,0,1,17.442-1.286c1.16,0,1.382.627,1.382,1,0-.377.222-1,1.383-1a116.355,116.355,0,0,1,17.442,1.286c1.846.309,2.951,1.1,3.482,3.482,2.6,11.7,4.1,19.128,5.355,26.218s2.393,11.206,1.829,23.315c-.329,7.038-.433,13.055-1.269,17.543C271.339,207.941,270.555,210.261,269.175,211.94Z" style="fill:none;stroke:#a7abae;stroke-linecap:round;stroke-linejoin:round;stroke-width:0.5px"/><path d="M270.926,161.389c.529,2.941-.042,4.464-3.407,4.464H246.807c-1.683,0-3.094-.665-3.094-2.146V133.9" style="fill:none;stroke:#a7abae;stroke-linecap:round;stroke-linejoin:round;stroke-width:0.5px"/><path d="M267.617,165.851c0,8.628-.2,25.779-1.1,32.914-.92,7.238-1,7.829-22.8,7.829" style="fill:none;stroke:#a7abae;stroke-linecap:round;stroke-linejoin:round;stroke-width:0.5px"/><path d="M269.194,165.674c.5,8.162.057,25.917-.884,33.32-1.123,8.831-2.572,9.411-24.6,9.411" style="fill:none;stroke:#a7abae;stroke-linecap:round;stroke-linejoin:round;stroke-width:0.5px"/><path d="M267.4,183a.919.919,0,0,0-.918-.942H243.713" style="fill:none;stroke:#a7abae;stroke-linecap:round;stroke-linejoin:round;stroke-width:0.5px"/><path d="M252.625,203.415a.682.682,0,0,0,.682.682H255a.683.683,0,1,0,0-1.365h-1.694A.682.682,0,0,0,252.625,203.415Z" style="fill:none;stroke:#a7abae;stroke-linecap:round;stroke-linejoin:round;stroke-width:0.5px"/><line x1="267.611" y1="168.55" x2="243.713" y2="168.55" style="fill:none;stroke:#a7abae;stroke-linecap:round;stroke-linejoin:round;stroke-width:0.5px"/><line x1="243.713" y1="179.702" x2="267.481" y2="179.702" style="fill:none;stroke:#a7abae;stroke-linecap:round;stroke-linejoin:round;stroke-width:0.5px"/><line x1="267.605" y1="170.351" x2="245.121" y2="170.351" style="fill:none;stroke:#a7abae;stroke-linecap:round;stroke-linejoin:round;stroke-width:0.5px"/><line x1="267.574" y1="172.773" x2="245.121" y2="172.773" style="fill:none;stroke:#a7abae;stroke-linecap:round;stroke-linejoin:round;stroke-width:0.5px"/><line x1="252.79" y1="175.196" x2="245.121" y2="175.196" style="fill:none;stroke:#a7abae;stroke-linecap:round;stroke-linejoin:round;stroke-width:0.5px"/><line x1="267.543" y1="175.196" x2="260.928" y2="175.196" style="fill:none;stroke:#a7abae;stroke-linecap:round;stroke-linejoin:round;stroke-width:0.5px"/><line x1="267.511" y1="177.618" x2="245.121" y2="177.618" style="fill:none;stroke:#a7abae;stroke-linecap:round;stroke-linejoin:round;stroke-width:0.5px"/><path d="M252.79,175.257a.894.894,0,0,0,.894.894h6.352a.894.894,0,0,0,0-1.788h-6.352A.894.894,0,0,0,252.79,175.257Z" style="fill:none;stroke:#a7abae;stroke-linecap:round;stroke-linejoin:round;stroke-width:0.5px"/><path d="M386.136,55.571c-.816-3.214-3.321-19.1-4.9-28.474S377,17.411,373.22,16.624s-13.346-.931-19.745-.449c-5.3.4-7.512,2.979-9.659,10.922s-4.651,17.1-6.011,22.756-3.151,8.918-4.723,10.172" style="fill:none;stroke:#a7abae;stroke-linecap:round;stroke-linejoin:round;stroke-width:0.5px"/><path d="M385.635,53.26c1.137,6.2,1.741,9.757,9.461,14,1.723.948,3.855,2.024,6.323,3.271,3.972,2.007,8.475,4.282,12.7,6.74,6.034,3.51,6.733,8.138,7.136,14.07" style="fill:none;stroke:#a7abae;stroke-linecap:round;stroke-linejoin:round;stroke-width:0.5px"/><path d="M326.62,64.229c-8.064,3.442-18.941,7.878-25.524,11.671s-8.086,6.154-9.8,11.807a102.025,102.025,0,0,0-3.721,14.6c-.787,5.009-1.56,7.747,3.514,9.92s5.145,2.889,13.947-.474,8.8-3.578,14.24-9.876,9.878-10.617,18.39-10.841c10.877-.286,38.427,0,45.583,0s11.234,2.612,15.313,9.339,4.781,8.252,8.706,10.133c4.621,2.215,7.7,3.507,7.7,3.507" style="fill:none;stroke:#a7abae;stroke-linecap:round;stroke-linejoin:round;stroke-width:0.5px"/><path d="M410.581,112.064c-3.925-1.882-5.662-4.965-9.741-11.691s-8.157-9.339-15.313-9.339h-4.241" style="fill:none;stroke:#a7abae;stroke-linecap:round;stroke-linejoin:round;stroke-width:0.5px"/><path d="M301.758,112.949c-2.856.83-3.765.371-6.154-.682-4.14-1.828-4.587-2.595-3.536-7.964a114.611,114.611,0,0,1,3.787-15.146c1.518-4.994,2.533-6.911,8.766-10.5,5.519-3.18,14.09-6.809,21.652-10.01,10.612-4.488,13.655-7.178,16.129-17.47,1.183-4.916,3.213-12.416,5.177-19.669l.818-3.026c2.158-7.986,4.076-8.986,7.643-9.256,2.428-.182,5.249-.268,8-.268a68.313,68.313,0,0,1,11.108.676l.294.061c3.214.665,4.68.968,5.956,8.572" style="fill:none;stroke:#a7abae;stroke-linecap:round;stroke-linejoin:round;stroke-width:0.5px"/><path d="M413.929,118.436s-6.712-2.678-10.147-4.467-4.36-2.85-8.344-8.037-6.31-7.244-11.452-7.427c-6.971-.249-36.433-.374-44.317-.083s-9.5,1.376-15.643,7.22c-5.893,5.6-6.6,6.349-12.117,8.216s-9.627,3.071-12.2,3.9-3.07.913-4.854-.29a35.459,35.459,0,0,1-2.905-2.158l-.865-2.395" style="fill:none;stroke:#a7abae;stroke-linecap:round;stroke-linejoin:round;stroke-width:0.5px"/><path d="M281.984,213.354c1.279-14.94-2.741-17.392-2.128-38.921.355-12.492,3.484-29.958,5.706-40.072s5.287-11.339,18.132-15.451c2.476-.792,5.8-1.615,9.619-2.908,5.87-1.985,6.893-2.958,12.568-8.355l.384-.365c5.9-5.607,7.067-6.336,14.166-6.6,3.195-.118,9.872-.166,17.151-.166,10.841,0,23.018.106,27,.249,4.21.15,5.948,1.607,9.738,6.543,3.986,5.191,5.189,6.633,9.093,8.665,3.5,1.822,9.852,4.333,10.128,4.45,4.118,1.74,5.883,5.108,4.057,12.127" style="fill:none;stroke:#a7abae;stroke-linecap:round;stroke-linejoin:round;stroke-width:0.5px"/><path d="M395.479,216.878c-1,.632-3.743.843-10.069.9s-27.835.09-47.077.09-44.176-.25-54.193-.67c-2.312-.1-2.172-2.74-2.172-2.74" style="fill:none;stroke:#a7abae;stroke-linecap:round;stroke-linejoin:round;stroke-width:0.5px"/><path d="M334.245,211.346c-5.724,0-13.252-.027-16.611-.152-10.3-.381-13.912-2.865-18.388-12.659-3.843-8.406-4.712-11.427-3.737-19.571.836-6.97,3.623-24.623,5.669-32.557l.09-.349c2.374-9.22,4.089-11.851,15.508-16.533,9.42-3.863,12.273-4.083,18.378-4.246.723-.019,1.5-.04,2.369-.072,2.23-.081,6.878-.123,13.818-.123,11.722,0,26.231.118,26.376.119,5.631,0,8.7.706,15.7,4.877,6.537,3.9,10.712,7.135,9.244,16.264-.863,5.372-4.206,21.435-6.7,31.08-.279,1.082-.522,2.041-.739,2.9-1.809,7.176-2.312,8.789-7.44,17.075-5.9,9.526-9,13.166-18.308,13.593C364.965,211.2,347.288,211.346,334.245,211.346Z" style="fill:none;stroke:#a7abae;stroke-linecap:round;stroke-linejoin:round;stroke-width:0.5px"/><path d="M377.671,129.958c4.378,0,6.533.313,12.849,4.078,6.349,3.785,7.4,5.232,6.554,10.5-.854,5.311-4.2,21.3-6.589,30.566-2.424,9.389-2.045,9.582-7.511,18.413-5.532,8.938-7.271,10.62-13.755,10.917s-43.377.5-51.374.2-9.763-1.287-13.451-9.356c-3.648-7.981-4.07-9.818-3.264-16.546.8-6.666,3.56-24.178,5.529-31.816,1.948-7.556,2.153-8.913,12.264-13.059,10.052-4.121,11.48-3.63,18.808-3.9S377.671,129.958,377.671,129.958Z" style="fill:none;stroke:#a7abae;stroke-linecap:round;stroke-linejoin:round;stroke-width:0.5px"/><path d="M352.993,38.443c.71-4.354,2.918-6.258,6.682-6.4s6.305-.047,9.129.047,5.129,1.271,5.881,6.635,2.071,19.152,2.4,25.222-1.364,9.034-6.352,9.222-11.67.424-15.952-.047-6.305-2.352-5.74-7.858S350.748,52.212,352.993,38.443Z" style="fill:none;stroke:#a7abae;stroke-linecap:round;stroke-linejoin:round;stroke-width:0.5px"/><path d="M367.036,65.233a2.672,2.672,0,0,0,2.672-2.67c.007-11.171-.438-18.487-.722-22.008a2.67,2.67,0,0,0-2.66-2.457h-5.745a2.672,2.672,0,0,0-2.663,2.45L356.1,62.34a2.673,2.673,0,0,0,2.663,2.893Z" style="fill:none;stroke:#a7abae;stroke-linecap:round;stroke-linejoin:round;stroke-width:0.5px"/><path d="M367.036,63.989a1.432,1.432,0,0,0,1.428-1.427c.006-11.223-.448-18.543-.72-21.907a1.432,1.432,0,0,0-1.418-1.312H360.58a1.434,1.434,0,0,0-1.42,1.308l-1.814,21.791a1.427,1.427,0,0,0,1.42,1.547Z" style="fill:none;stroke:#a7abae;stroke-linecap:round;stroke-linejoin:round;stroke-width:0.5px"/><path d="M368.247,50.638a1.292,1.292,0,0,0-1.292-1.268h-5.842a1.292,1.292,0,0,0-1.284,1.152l-1.194,11a1.292,1.292,0,0,0,1.284,1.431h7.234a1.293,1.293,0,0,0,1.292-1.3Z" style="fill:none;stroke:#a7abae;stroke-linecap:round;stroke-linejoin:round;stroke-width:0.5px"/><path d="M361.7,45.736a.769.769,0,1,0,1.537,0V43.917a.769.769,0,1,0-1.537,0Z" style="fill:none;stroke:#a7abae;stroke-linecap:round;stroke-linejoin:round;stroke-width:0.5px"/><line x1="359.25" y1="55.863" x2="357.903" y2="55.863" style="fill:none;stroke:#a7abae;stroke-linecap:round;stroke-linejoin:round;stroke-width:0.5px"/><path d="M339.142,4.482c1.577-.311.79,2.259-.124,6.857C337.9,16.987,334.359,33.69,333,42.207c-.838,5.231-.659,10.117,2.85,13.686" style="fill:none;stroke:#a7abae;stroke-linecap:round;stroke-linejoin:round;stroke-width:0.5px"/><path d="M325.669,42.644a.464.464,0,0,1-.359-.17.474.474,0,0,1-.1-.385c.951-5.282,3.843-20.188,5.463-27.03a.49.49,0,0,1,.46-.377l.737-.023a.46.46,0,0,1,.368.164.466.466,0,0,1,.1.393c-.791,3.826-3.957,20.43-5.088,26.767a.8.8,0,0,1-.783.661Z" style="fill:none;stroke:#a7abae;stroke-linecap:round;stroke-linejoin:round;stroke-width:0.5px"/><path d="M303.014,166.1s4.864.034,14.076.064l.642-6.6a.6.6,0,0,1,.6-.544q3.5.012,7.848.023a.6.6,0,0,1,.537.331l3.447,6.82c5.472.01,11.724.016,18.716.016q10.7,0,18.742-.017l5.254-6.91a.6.6,0,0,1,.478-.238q4.572-.011,8.129-.024a.545.545,0,0,1,.529.685l-1.71,6.453c8.281-.03,12.344-.062,12.344-.062" style="fill:none;stroke:#a7abae;stroke-linecap:round;stroke-linejoin:round;stroke-width:0.5px"/><path d="M326.985,159.9c6.523.01,13.833.017,21.892.017q13.349,0,23.533-.02" style="fill:none;stroke:#a7abae;stroke-linecap:round;stroke-linejoin:round;stroke-width:0.5px"/><path d="M329.65,165.172q8.747.012,19.227.012,10.8,0,19.524-.013" style="fill:none;stroke:#a7abae;stroke-linecap:round;stroke-linejoin:round;stroke-width:0.5px"/><path d="M383.706,159.7l.057-.224a1.568,1.568,0,0,1,1.443-1.132h7.953a.9.9,0,0,1,.914,1.132l-1.158,5.443a1.549,1.549,0,0,1-1.44,1.182H386.9l-.385-.53,1.417-5.869-1.821-.012" style="fill:none;stroke:#a7abae;stroke-linecap:round;stroke-linejoin:round;stroke-width:0.5px"/><path d="M384.815,164.74l.191.352-.191,1.007h-1.5a.892.892,0,0,1-.888-1.182l.038-.147" style="fill:none;stroke:#a7abae;stroke-linecap:round;stroke-linejoin:round;stroke-width:0.5px"/><path d="M391.557,164.359a.484.484,0,0,1-.473.382h-2.578l1.078-4.641a.517.517,0,0,1,.5-.4h2.461Z" style="fill:none;stroke:#a7abae;stroke-linecap:round;stroke-linejoin:round;stroke-width:0.5px"/><path d="M380.72,164.776l4.095-.016,1.294-5.072-4.095.017" style="fill:none;stroke:#a7abae;stroke-linecap:round;stroke-linejoin:round;stroke-width:0.5px"/><path d="M313.974,159.743l.04-.339a.936.936,0,0,0-1.02-1.062h-7.523a1.389,1.389,0,0,0-1.37,1.062l-.947,5.6a.936.936,0,0,0,1.02,1.062l4.149-.011a.618.618,0,0,0,.621-.479l.846-5.834h2.663l-.531,4.771a.415.415,0,0,1-.418.323H310.42l-.2,1.209h1.759a1.389,1.389,0,0,0,1.37-1.062l.017-.14" style="fill:none;stroke:#a7abae;stroke-linecap:round;stroke-linejoin:round;stroke-width:0.5px"/><path d="M305.352,160.064a.417.417,0,0,1,.419-.324h2.66l-.655,4.676a.416.416,0,0,1-.418.324l-2.8.01Z" style="fill:none;stroke:#a7abae;stroke-linecap:round;stroke-linejoin:round;stroke-width:0.5px"/><line x1="312.453" y1="159.74" x2="317.716" y2="159.749" style="fill:none;stroke:#a7abae;stroke-linecap:round;stroke-linejoin:round;stroke-width:0.5px"/><path d="M310.973,164.834l6.245.016" style="fill:none;stroke:#a7abae;stroke-linecap:round;stroke-linejoin:round;stroke-width:0.5px"/><path d="M366.153,54.567l-1.588-1.6a.368.368,0,0,0-.5-.018l-1.672,1.465" style="fill:none;stroke:#a7abae;stroke-linecap:round;stroke-linejoin:round;stroke-width:0.5px"/><path d="M406.581,15.355c.048.2,5.131,27.441,7.519,59.313" style="fill:none;stroke:#a7abae;stroke-linecap:round;stroke-linejoin:round"/><path d="M243.713,136.19a.811.811,0,0,0-.294-.621.893.893,0,0,0-.682-.2l-2.111.272a.838.838,0,0,0-.746.785l-.581,14.383a1.283,1.283,0,0,0,.383.963,1.405,1.405,0,0,0,.991.4h2.16a.862.862,0,0,1,.88.842" style="fill:none;stroke:#a7abae;stroke-linecap:round;stroke-linejoin:round;stroke-width:0.5px"/><path d="M243.713,136.19a.812.812,0,0,1,.3-.621.893.893,0,0,1,.682-.2l2.111.272a.839.839,0,0,1,.746.785l.581,14.383a1.283,1.283,0,0,1-.383.963,1.405,1.405,0,0,1-.991.4h-2.161a.862.862,0,0,0-.88.842" style="fill:none;stroke:#a7abae;stroke-linecap:round;stroke-linejoin:round;stroke-width:0.5px"/><path d="M5.566,207.934,31.4,187.576c4.323-3.349,6.58-5.143,3.386-5.676" style="fill:none;stroke:#a7abae;stroke-linecap:round;stroke-linejoin:round;stroke-width:0.5px"/><path d="M427.238,226.775s5.305-19.943,13.607-57.708c5.532-25.163,10.366-48.548,11.514-54.289s5.68-7.191,12.508-7.191,11.9.242,11.9.242l8.112,2.927" style="fill:none;stroke:#a7abae;stroke-linecap:round;stroke-linejoin:round;stroke-width:0.5px"/><g id="Offset_Group-3" data-name="Offset Group"><path d="M483.349,105.125l-5.594-1.889c-.194-5.263-1.7-39.854-9.249-87.468" style="fill:none;stroke:#a7abae;stroke-linecap:round;stroke-linejoin:round;stroke-width:0.5px"/><path d="M483.27,105.362l-5.759-1.945c-.165-4.619-1.614-39.447-9.252-87.61" style="fill:none;stroke:#a7abae;stroke-linecap:round;stroke-linejoin:round;stroke-width:0.5px"/><path d="M483.19,105.6l-5.923-2c-.132-3.832-1.514-38.937-9.255-87.753" style="fill:none;stroke:#a7abae;stroke-linecap:round;stroke-linejoin:round;stroke-width:0.5px"/><path d="M483.11,105.836l-6.087-2.056c-.091-2.765-1.382-38.227-9.258-87.895" style="fill:none;stroke:#a7abae;stroke-linecap:round;stroke-linejoin:round;stroke-width:0.5px"/></g><path d="M483.03,106.073l-6.251-2.111s-1.058-36.308-9.261-88.038" style="fill:none;stroke:#a7abae;stroke-linecap:round;stroke-linejoin:round;stroke-width:0.5px"/><line x1="476.779" y1="103.962" x2="476.771" y2="107.829" style="fill:none;stroke:#a7abae;stroke-linecap:round;stroke-linejoin:round;stroke-width:0.5px"/><path d="M452.9,14.532c5.87,32.5,9.566,67.075,9.14,93.16" style="fill:none;stroke:#a7abae;stroke-linecap:round;stroke-linejoin:round;stroke-width:0.5px"/><path d="M448.83,14.532c7.616,42.166,9.5,74.892,9.127,93.9" style="fill:none;stroke:#a7abae;stroke-linecap:round;stroke-linejoin:round;stroke-width:0.5px"/><path d="M478.9,125.609c-2.734-1.058-5.058-1.933-6.746-2.53-11.356-4.015-14.869-.5-14.932,12.3s4.141,45.047,4.141,45.047-6.395,1.1-8.72,1.477-2.731,1.8-2.586,3.283a7.868,7.868,0,0,0,.611,2.441c-.727.813-.64,4.242-.436,6.945s1.515,11.68,2.673,19.642a38.078,38.078,0,0,0,1.729,7.134c-1.082,3.812-1.129,6.4,1.882,9.694,1.284,1.4,8.16,8.349,15.627,15.856" style="fill:none;stroke:#a7abae;stroke-linecap:round;stroke-linejoin:round;stroke-width:0.5px"/><path d="M481.161,134.446c-3.572-1.443-6.39-2.556-7.88-3.093-7.654-2.76-10.865-.613-10.1,7.285.941,9.725,4.266,28.861,6.274,36.076s2.949,9.85,9.16,14.493c1.092.816,3.087,2.267,5.632,4.1" style="fill:none;stroke:#a7abae;stroke-linecap:round;stroke-linejoin:round;stroke-width:0.5px"/><path d="M450.666,187.624c.625,1.3,1.942,2.336,5.142,5.159,1.415,1.248,14.2,11.717,28.03,23.011" style="fill:none;stroke:#a7abae;stroke-linecap:round;stroke-linejoin:round;stroke-width:0.5px"/><path d="M473.924,184.987c-2.535-1.876-7.551-2.857-9.526-3.183a4.837,4.837,0,0,1-1.6-.563l-1.441-.818" style="fill:none;stroke:#a7abae;stroke-linecap:round;stroke-linejoin:round;stroke-width:0.5px"/><path d="M479.109,241.185c-3.426-3.086-6.951-6.292-8.008-7.276-2.023-1.882-2.259-4.235-2.635-6.87-.3-2.081-2.679-15.671-3.667-21.29,4.6,3.861,10.288,8.627,15.465,12.964" style="fill:none;stroke:#a7abae;stroke-linecap:round;stroke-linejoin:round;stroke-width:0.5px"/><path d="M450.1,192.076c.047,1.178,2.839,3.577,5.8,6.165.506.442,1.8,1.671,3.791,3.216,1.856,1.443,2.7,3.749,3.173,6.666s2.616,15.057,3.25,19.128c.656,4.211-1.127,4.623-3.014,2.988-2.118-1.835-5.282-5.03-6.6-6.4a10.947,10.947,0,0,1-1.871-2.5" style="fill:none;stroke:#a7abae;stroke-linecap:round;stroke-linejoin:round;stroke-width:0.5px"/><path d="M482.746,205.5l-6.194-4.781c-1.617-1.249-1.592-1.777.619-1.783l6.1-.017" style="fill:none;stroke:#a7abae;stroke-linecap:round;stroke-linejoin:round;stroke-width:0.5px"/><path d="M452.767,199.555l6.106,5.57a4.5,4.5,0,0,1,1.405,2.575c1.379,8.109,2.669,15.4,3.2,18.841,0,0-4.629-4.429-5.994-5.747a7.371,7.371,0,0,1-2.277-3.626C454.206,210.259,453.159,203.1,452.767,199.555Z" style="fill:none;stroke:#a7abae;stroke-linecap:round;stroke-linejoin:round;stroke-width:0.5px"/><path d="M470.725,193.536l6.54-.094-8.391-5.942a1,1,0,0,0-.7-.176c-5.2.644-3.985,1.309-1.825,2.871C468.56,191.8,470.725,193.536,470.725,193.536Z" style="fill:none;stroke:#a7abae;stroke-linecap:round;stroke-linejoin:round;stroke-width:0.5px"/><path d="M467.862,191.314l0-.073a.928.928,0,0,1,.894-.888l3.289-.116a1.953,1.953,0,0,1,1.2.358l2.561,1.813" style="fill:none;stroke:#a7abae;stroke-linecap:round;stroke-linejoin:round;stroke-width:0.5px"/><line x1="474.702" y1="240.968" x2="461.837" y2="229.1" style="fill:none;stroke:#a7abae;stroke-linecap:round;stroke-linejoin:round;stroke-width:0.5px"/><path d="M424.811,15.355c.066.282,10.124,48.885,8.565,99.274-.3,9.6,11.569,13.737,9.694,22.607-12.276,58.077-19.1,84.231-20.274,88.657" style="fill:none;stroke:#a7abae;stroke-linecap:round;stroke-linejoin:round;stroke-width:0.5px"/><path d="M438.61,132.623,431.272,122.2c-.64-.909-1.93-1.309-2.265.494-8.176,43.946-16.038,79.452-17.787,87.253" style="fill:none;stroke:#a7abae;stroke-linecap:round;stroke-linejoin:round;stroke-width:0.5px"/><path d="M457.457,130.592h-1.7a3.25,3.25,0,0,1-1.5-.367l-3.9-2.026a1.02,1.02,0,0,1-.529-1.113l.234-1.122" style="fill:none;stroke:#a7abae;stroke-linecap:round;stroke-linejoin:round;stroke-width:0.5px"/><path d="M450.761,199.128,437.42,188.5a1.6,1.6,0,0,1-.565-1.613l.267-1.171" style="fill:none;stroke:#a7abae;stroke-linecap:round;stroke-linejoin:round;stroke-width:0.5px"/><line x1="460.267" y1="234.91" x2="458.85" y2="241.615" style="fill:none;stroke:#a7abae;stroke-linecap:round;stroke-linejoin:round;stroke-width:0.5px"/><path d="M454.262,222.8l-3-2.432c-2.8-2.268-4.2-3.6-10.174-2.926a29.972,29.972,0,0,0-3.324.574,6.481,6.481,0,0,0-4.793,4.565l-1.479,5.26" style="fill:none;stroke:#a7abae;stroke-linecap:round;stroke-linejoin:round;stroke-width:0.5px"/><path d="M457.981,106.917s-16.675-.626-19.647-.782-3.963-.626-8.134-2.347-8.81-3.7-8.81-3.7" style="fill:none;stroke:#a7abae;stroke-linecap:round;stroke-linejoin:round;stroke-width:0.5px"/><path d="M481.861,207.934l-25.833-20.358c-4.323-3.349-6.58-5.143-3.387-5.676" style="fill:none;stroke:#a7abae;stroke-linecap:round;stroke-linejoin:round;stroke-width:0.5px"/><g id="Offset_Group-4" data-name="Offset Group"><path d="M98.04,230.993c6.863.057,30.189.1,51.053.1,19.757,0,45.06-.242,56.927-.656l.126,1.346a2.127,2.127,0,0,0,2.116,1.926h.948a4.858,4.858,0,0,0,2.511-.579,3.721,3.721,0,0,0,1.372-1.452c.776-1.4,1.065-3.595,1.064-6.74,0,0,.566-14.581.126-26.909l0-.062c-.046-1.3-.064-2.968-1.187-4.052a4.479,4.479,0,0,0-2.847-1.092c.523-3.9,2.72-20.757,2.72-28.772,0-9.077-1.823-28.591-4.289-38.391-.156-.617-.3-1.2-.435-1.746-.993-4.014-1.577-6.479-3.228-8.153-1.476-1.495-3.737-2.3-7.514-3.312a12.923,12.923,0,0,0,5.371-5.4,12.151,12.151,0,0,0,.86-7.623,98.377,98.377,0,0,0-3.853-15.474c-2.4-7.279-4.785-9.664-14.417-14.733-9.6-5.052-10.528-5.1-24.316-5.719l-.152-.007a31.275,31.275,0,0,1-5.223-3.257c1.733-.859,3.414-2.284,5.678-5.548.283-.409.553-.782.81-1.138a11.583,11.583,0,0,0,2.292-4.351c.438-1.882.348-4.358-.356-8.491-1.417-8.319-3.144-16.849-4.97-23.964-1.185-4.62-2.019-6.133-4.889-9l-.023-.024c-2.786-2.785-3.69-3.681-7.487-4.281a128.412,128.412,0,0,0-19.308-1.373,138,138,0,0,0-19.639,1.516A12.874,12.874,0,0,0,102.909,5.1a9.86,9.86,0,0,0-2.689,3.2c-1.941,3.04-2.426,4.035-2.751,8.251-.046.6-.112,1.433-.191,2.433-.455,5.726-1.353,17.04-1.567,23.259l-.01.285c-.155,4.408-.231,7.532,4.761,13.236a11.413,11.413,0,0,1-1.927,4.074,16.172,16.172,0,0,1-5.259,3.984c-1.673.919-3.815,2-6.22,3.216C83.12,69.027,78.5,71.362,74.187,73.87a16.347,16.347,0,0,0-5.882,5.5c-2.069,3.331-2.561,7.157-2.834,11.16a104.664,104.664,0,0,0,.042,14.557c.027.521.055,1.061.083,1.624a9.223,9.223,0,0,0,2.446,6.258,6.284,6.284,0,0,0,3.817,1.757l.788,3.367a9.18,9.18,0,0,0-3.7,4.249c-.949,2.347-1.038,5.583.152,10.392,2.233,9.026,7.217,26.392,10.33,37.24l.124.431c3.049,10.625,3.55,12.693,6.19,25.225a13.185,13.185,0,0,0-5.218,3.354c-2.459,2.7-3.465,6.591-4.931,12.375a27.472,27.472,0,0,0,1.484,17.2c1.481,3.524,3.467,6.229,5.123,7.33a2.96,2.96,0,0,0,1.587.568H85.88a2.126,2.126,0,0,0,1.353-.522c1.393-1.145,2.154-4.046,2.389-5.085Q93.822,230.957,98.04,230.993Z" style="fill:none;stroke:#a7abae;stroke-linecap:round;stroke-linejoin:round;stroke-width:0.5px"/><path d="M98.042,230.743c6.862.057,30.187.1,51.051.1,19.889,0,45.394-.246,57.154-.664l.148,1.58a1.877,1.877,0,0,0,1.867,1.7h.948a4.609,4.609,0,0,0,2.384-.544,3.473,3.473,0,0,0,1.28-1.358c.742-1.343,1.034-3.473,1.033-6.629,0,0,.566-14.572.126-26.89l0-.062c-.048-1.335-.075-2.881-1.111-3.881a4.434,4.434,0,0,0-2.957-1.041c.449-3.328,2.753-20.81,2.753-29,0-9.062-1.822-28.555-4.282-38.33-.155-.618-.3-1.2-.435-1.747-1-4.043-1.571-6.424-3.163-8.038-1.5-1.515-3.843-2.309-7.994-3.4v0a12.993,12.993,0,0,0,5.8-5.595,11.9,11.9,0,0,0,.838-7.468,98.132,98.132,0,0,0-3.845-15.44c-2.377-7.195-4.695-9.537-14.295-14.59-9.554-5.028-10.445-5.074-24.212-5.69l-.2-.009a31.268,31.268,0,0,1-5.631-3.56c1.819-.818,3.541-2.173,5.943-5.636.285-.411.556-.786.814-1.142a11.36,11.36,0,0,0,2.251-4.261c.425-1.829.343-4.264-.36-8.392-1.416-8.314-3.141-16.837-4.965-23.944-1.176-4.583-1.991-6.054-4.824-8.888l-.023-.023c-2.771-2.771-3.629-3.623-7.349-4.211a128.28,128.28,0,0,0-19.269-1.37,137.793,137.793,0,0,0-19.6,1.512,12.663,12.663,0,0,0-4.872,1.487,9.63,9.63,0,0,0-2.617,3.129c-1.921,3.01-2.392,3.966-2.712,8.136-.047.6-.113,1.434-.192,2.434-.455,5.729-1.352,17.036-1.566,23.248l-.01.285C95.8,46.93,95.712,50,100.739,55.7a11.811,11.811,0,0,1-2.007,4.291A16.4,16.4,0,0,1,93.4,64.042c-1.677.921-3.823,2-6.227,3.22-3.938,1.989-8.554,4.321-12.856,6.824a16.1,16.1,0,0,0-5.8,5.414c-2.034,3.275-2.524,7.045-2.8,11.046a104.243,104.243,0,0,0,.042,14.527c.027.521.055,1.061.083,1.625a8.981,8.981,0,0,0,2.37,6.091,6.07,6.07,0,0,0,3.845,1.7l.869,3.712a9.052,9.052,0,0,0-3.751,4.229c-.921,2.278-1.021,5.453.163,10.239,2.232,9.02,7.214,26.38,10.327,37.231l.124.431c3.068,10.691,3.559,12.729,6.239,25.452a13.118,13.118,0,0,0-5.322,3.364c-2.408,2.642-3.4,6.462-4.874,12.268a27.23,27.23,0,0,0,1.472,17.038c1.474,3.5,3.435,6.158,5.032,7.218a2.705,2.705,0,0,0,1.448.527H85.88a1.871,1.871,0,0,0,1.194-.466c1.424-1.17,2.182-4.372,2.348-5.146Q93.723,230.707,98.042,230.743Z" style="fill:none;stroke:#a7abae;stroke-linecap:round;stroke-linejoin:round;stroke-width:0.5px"/><path d="M98.044,230.493c6.861.057,30.185.1,51.049.1,20.023,0,45.734-.249,57.38-.672l.171,1.815a1.626,1.626,0,0,0,1.618,1.473h.948a4.361,4.361,0,0,0,2.257-.51,3.224,3.224,0,0,0,1.189-1.263c.707-1.281,1-3.352,1-6.517,0,0,.565-14.564.126-26.872l0-.062c-.049-1.367-.086-2.794-1.035-3.71a4.4,4.4,0,0,0-3.068-.982c.338-2.483,2.788-20.809,2.788-29.242,0-9.048-1.821-28.519-4.274-38.269q-.234-.927-.435-1.748c-1.008-4.073-1.567-6.369-3.1-7.922-1.462-1.481-3.783-2.262-8.066-3.387v-.346a12.831,12.831,0,0,0,5.831-5.555,11.659,11.659,0,0,0,.816-7.314A97.829,97.829,0,0,0,199.4,84.1c-2.349-7.111-4.606-9.412-14.175-14.448-9.51-5-10.361-5.046-24.106-5.661-.1-.005-.2-.009-.21.009a31.12,31.12,0,0,1-6.088-3.9c1.909-.781,3.666-2.038,6.213-5.71.286-.413.559-.79.816-1.146a11.123,11.123,0,0,0,2.21-4.171c.414-1.778.34-4.171-.362-8.294-1.415-8.31-3.139-16.826-4.961-23.924-1.167-4.547-1.962-5.976-4.759-8.773l-.023-.023C151.2,5.309,150.39,4.5,146.747,3.924a127.988,127.988,0,0,0-19.23-1.367,137.554,137.554,0,0,0-19.555,1.509,12.415,12.415,0,0,0-4.776,1.448,9.432,9.432,0,0,0-2.545,3.056c-1.9,2.979-2.356,3.9-2.673,8.02-.047.605-.113,1.435-.192,2.434-.455,5.732-1.352,17.033-1.565,23.237l-.01.286c-.154,4.375-.248,7.382,4.814,13.09a12.17,12.17,0,0,1-2.086,4.509,16.627,16.627,0,0,1-5.412,4.115c-1.683.924-3.833,2.01-6.236,3.224-3.938,1.99-8.547,4.318-12.843,6.817a15.842,15.842,0,0,0-5.708,5.33c-2,3.218-2.488,6.933-2.76,10.931a104.124,104.124,0,0,0,.043,14.5c.026.522.054,1.062.083,1.625a8.728,8.728,0,0,0,2.3,5.925,5.84,5.84,0,0,0,3.871,1.645l.952,4.065a8.932,8.932,0,0,0-3.8,4.208c-.893,2.207-1,5.321.174,10.085,2.23,9.014,7.21,26.369,10.325,37.223l.123.43c3.087,10.756,3.568,12.764,6.288,25.681A13.047,13.047,0,0,0,80.9,199.32c-2.357,2.586-3.34,6.333-4.816,12.161a26.971,26.971,0,0,0,1.46,16.879c1.466,3.487,3.4,6.086,4.939,7.107a2.472,2.472,0,0,0,1.31.485H85.88a1.62,1.62,0,0,0,1.035-.409c1.54-1.265,2.3-5.172,2.3-5.172l.007-.037Q93.622,230.455,98.044,230.493Z" style="fill:none;stroke:#a7abae;stroke-linecap:round;stroke-linejoin:round;stroke-width:0.5px"/></g><path d="M89.015,230.078q4.5.128,9.031.165c6.86.057,30.183.1,51.047.1,20.159,0,46.08-.253,57.607-.68l.193,2.049a1.376,1.376,0,0,0,1.369,1.247h.948c3.008,0,4.2-1.7,4.2-8.05,0,0,.564-14.556.125-26.853-.085-2.382-.125-4.517-4.141-4.517,0,0,2.824-20.453,2.824-29.488s-1.82-28.484-4.267-38.208-2.007-10.415-11.607-12.925v-.69c6.651-3.451,7.4-8.47,6.651-12.673a97.626,97.626,0,0,0-3.827-15.372c-2.322-7.027-4.518-9.285-14.054-14.3s-10.289-5.02-24.305-5.647a31.116,31.116,0,0,1-6.462-4.2c2.007-.753,3.789-1.882,6.487-5.772s4.131-4.565,2.622-13.426c-1.414-8.306-3.137-16.814-4.956-23.9-1.158-4.51-1.933-5.9-4.693-8.658s-3.521-3.529-7.1-4.094a127.7,127.7,0,0,0-19.191-1.364,137.33,137.33,0,0,0-19.512,1.505c-4.769.816-5.271,1.443-7.153,4.392s-2.321,3.827-2.635,7.905S96.711,34.992,96.46,42.27c-.155,4.518-.376,7.466,4.831,13.3-1.192,4.58-3.2,6.462-7.654,8.909S81.466,70.5,74.564,74.518s-7.9,9.6-8.344,16.062a114.512,114.512,0,0,0,.125,16.092c.218,4.328,2.447,7.247,6.117,7.341l1.036,4.423c-3.378,2.116-5.929,4.988-3.671,14.117s7.341,26.821,10.446,37.644S83.85,183,86.61,196.108c-6.9,2.447-7.968,6.274-10.289,15.434-3.137,12.377,4.51,24.16,7.467,24.16H85.88c2.025,0,3.086-5.379,3.086-5.379Z" style="fill:none;stroke:#a7abae;stroke-linecap:round;stroke-linejoin:round;stroke-width:0.5px"/><path d="M89.015,230.078H80.706c1.773,3.455,3.905,5.624,5.174,5.624" style="fill:none;stroke:#a7abae;stroke-linecap:round;stroke-linejoin:round;stroke-width:0.5px"/><path d="M86.929,197.829c-3.983,2.626-5.022,7.06-6.708,13.713a26.97,26.97,0,0,0,2.293,18.536" style="fill:none;stroke:#a7abae;stroke-linecap:round;stroke-linejoin:round;stroke-width:0.5px"/><path d="M203.771,217.13c.4,5.335.694,8.448,1.062,12.531" style="fill:none;stroke:#a7abae;stroke-linecap:round;stroke-linejoin:round;stroke-width:0.5px"/><path d="M291.95,115.31c-6.012,3.011-7.429,6.2-9.483,15.265s-2.479,13.388-3.967,25.005-1.427,33.835-.465,37.956,4.709,11.283,3.813,23.3c-.412,5.516-.71,8.669-1.084,12.826" style="fill:none;stroke:#a7abae;stroke-linecap:round;stroke-linejoin:round;stroke-width:0.5px"/><path d="M400.817,196.108c-1.174,6.431-2.271,11.335-3.181,15.626-.86,4.056-2.157,5.144-2.157,5.144a61.549,61.549,0,0,1-3.111,8.028l-2.347,4.673a1.2,1.2,0,0,1-1.072.661" style="fill:none;stroke:#a7abae;stroke-linecap:round;stroke-linejoin:round;stroke-width:0.5px"/><path d="M390.949,230.24a1.2,1.2,0,0,0,1.072-.661l2.347-4.673a61.549,61.549,0,0,0,3.111-8.028,14.034,14.034,0,0,0,.367-6.131" style="fill:none;stroke:#a7abae;stroke-linecap:round;stroke-linejoin:round;stroke-width:0.5px"/><g id="Offset_Group-5" data-name="Offset Group"><path d="M389.387,230.993c-6.863.057-30.19.1-51.054.1-19.756,0-45.059-.242-56.926-.656l-.126,1.346a2.127,2.127,0,0,1-2.116,1.926h-.948a4.858,4.858,0,0,1-2.511-.579,3.721,3.721,0,0,1-1.372-1.452c-.776-1.4-1.065-3.595-1.064-6.74,0,0-.566-14.581-.126-26.909l0-.062c.046-1.3.063-2.968,1.186-4.052a4.482,4.482,0,0,1,2.848-1.092c-.524-3.9-2.72-20.757-2.72-28.772,0-9.077,1.823-28.591,4.289-38.391.156-.617.3-1.2.435-1.746.993-4.014,1.577-6.479,3.228-8.153,1.476-1.495,3.737-2.3,7.514-3.312a12.923,12.923,0,0,1-5.371-5.4,12.144,12.144,0,0,1-.86-7.623,98.264,98.264,0,0,1,3.853-15.474c2.405-7.279,4.784-9.664,14.417-14.733,9.6-5.052,10.528-5.1,24.316-5.719l.152-.007a31.275,31.275,0,0,0,5.223-3.257c-1.733-.859-3.414-2.284-5.678-5.548-.283-.409-.553-.782-.811-1.138a11.6,11.6,0,0,1-2.291-4.351c-.438-1.882-.348-4.358.356-8.491,1.417-8.319,3.143-16.849,4.97-23.964,1.185-4.62,2.019-6.133,4.889-9l.023-.024c2.785-2.785,3.69-3.681,7.487-4.281A128.412,128.412,0,0,1,359.91,2.057a138,138,0,0,1,19.639,1.516A12.874,12.874,0,0,1,384.518,5.1a9.873,9.873,0,0,1,2.689,3.2c1.94,3.04,2.426,4.035,2.751,8.251.046.6.112,1.433.191,2.433.455,5.726,1.353,17.04,1.567,23.259l.01.285c.154,4.408.231,7.532-4.761,13.236a11.413,11.413,0,0,0,1.927,4.074,16.161,16.161,0,0,0,5.259,3.984c1.673.919,3.815,2,6.22,3.216,3.936,1.988,8.559,4.323,12.869,6.831a16.347,16.347,0,0,1,5.882,5.5c2.069,3.331,2.561,7.157,2.833,11.16a104.671,104.671,0,0,1-.041,14.557c-.027.521-.055,1.061-.083,1.624a9.223,9.223,0,0,1-2.446,6.258,6.284,6.284,0,0,1-3.817,1.757l-.788,3.367a9.18,9.18,0,0,1,3.7,4.249c.949,2.347,1.037,5.583-.152,10.392-2.233,9.026-7.217,26.392-10.33,37.24l-.124.431c-3.049,10.625-3.55,12.693-6.19,25.225a13.193,13.193,0,0,1,5.218,3.354c2.459,2.7,3.465,6.591,4.931,12.375a27.472,27.472,0,0,1-1.484,17.2c-1.482,3.524-3.467,6.229-5.124,7.33a2.957,2.957,0,0,1-1.586.568h-2.092a2.123,2.123,0,0,1-1.353-.522c-1.393-1.145-2.154-4.046-2.39-5.085Q393.606,230.957,389.387,230.993Z" style="fill:none;stroke:#a7abae;stroke-linecap:round;stroke-linejoin:round;stroke-width:0.5px"/><path d="M389.385,230.743c-6.862.057-30.187.1-51.052.1-19.888,0-45.393-.246-57.153-.664l-.148,1.58a1.877,1.877,0,0,1-1.867,1.7h-.948a4.609,4.609,0,0,1-2.384-.544,3.482,3.482,0,0,1-1.281-1.358c-.741-1.343-1.033-3.473-1.032-6.629,0,0-.566-14.572-.126-26.89l0-.062c.048-1.335.075-2.881,1.111-3.881a4.434,4.434,0,0,1,2.957-1.041c-.449-3.328-2.753-20.81-2.753-29,0-9.062,1.822-28.555,4.282-38.33.155-.618.3-1.2.434-1.747,1-4.043,1.572-6.424,3.164-8.038,1.5-1.515,3.843-2.309,7.994-3.4v0a12.987,12.987,0,0,1-5.805-5.595,11.9,11.9,0,0,1-.838-7.468,98.107,98.107,0,0,1,3.844-15.44c2.377-7.195,4.7-9.537,14.3-14.59,9.554-5.028,10.445-5.074,24.211-5.69l.2-.009a31.274,31.274,0,0,0,5.63-3.56c-1.818-.818-3.541-2.173-5.943-5.636-.284-.411-.555-.786-.813-1.142a11.36,11.36,0,0,1-2.251-4.261c-.425-1.829-.343-4.264.36-8.392,1.416-8.314,3.141-16.837,4.965-23.944,1.176-4.583,1.99-6.054,4.824-8.888l.023-.023c2.771-2.771,3.629-3.623,7.349-4.211a128.266,128.266,0,0,1,19.269-1.37,137.793,137.793,0,0,1,19.6,1.512,12.669,12.669,0,0,1,4.872,1.487A9.63,9.63,0,0,1,387,8.435c1.921,3.01,2.392,3.966,2.712,8.136.047.6.113,1.434.192,2.434.455,5.729,1.352,17.036,1.566,23.248l.01.285c.154,4.392.239,7.458-4.788,13.164a11.811,11.811,0,0,0,2.007,4.291,16.4,16.4,0,0,0,5.336,4.049c1.677.921,3.823,2,6.227,3.22,3.938,1.989,8.553,4.321,12.856,6.824a16.1,16.1,0,0,1,5.8,5.414c2.034,3.275,2.524,7.045,2.8,11.046a104.243,104.243,0,0,1-.042,14.527c-.027.521-.055,1.061-.083,1.625a8.981,8.981,0,0,1-2.37,6.091,6.07,6.07,0,0,1-3.845,1.7l-.869,3.712a9.052,9.052,0,0,1,3.751,4.229c.921,2.278,1.021,5.453-.163,10.239-2.232,9.02-7.214,26.38-10.328,37.231l-.123.431c-3.068,10.691-3.559,12.729-6.239,25.452a13.118,13.118,0,0,1,5.322,3.364c2.408,2.642,3.4,6.462,4.874,12.268a27.23,27.23,0,0,1-1.472,17.038c-1.474,3.5-3.435,6.158-5.032,7.218a2.705,2.705,0,0,1-1.448.527h-2.092a1.871,1.871,0,0,1-1.194-.466c-1.424-1.17-2.182-4.372-2.348-5.146Q393.7,230.707,389.385,230.743Z" style="fill:none;stroke:#a7abae;stroke-linecap:round;stroke-linejoin:round;stroke-width:0.5px"/><path d="M389.383,230.493c-6.861.057-30.185.1-51.05.1-20.022,0-45.733-.249-57.38-.672l-.17,1.815a1.626,1.626,0,0,1-1.618,1.473h-.948a4.361,4.361,0,0,1-2.257-.51,3.224,3.224,0,0,1-1.189-1.263c-.707-1.281-1-3.352-1-6.517,0,0-.565-14.564-.125-26.872l0-.062c.049-1.367.086-2.794,1.035-3.71a4.4,4.4,0,0,1,3.068-.982c-.338-2.483-2.788-20.809-2.788-29.242,0-9.048,1.821-28.519,4.274-38.269q.234-.927.435-1.748c1.007-4.073,1.567-6.369,3.1-7.922,1.462-1.481,3.783-2.262,8.066-3.387v-.346A12.831,12.831,0,0,1,285,106.821a11.659,11.659,0,0,1-.816-7.314,97.829,97.829,0,0,1,3.836-15.4c2.349-7.111,4.606-9.412,14.175-14.448,9.51-5,10.361-5.046,24.106-5.661.1-.005.2-.009.21.009a31.152,31.152,0,0,0,6.088-3.9c-1.909-.781-3.666-2.038-6.213-5.71-.287-.413-.559-.79-.816-1.146a11.123,11.123,0,0,1-2.21-4.171c-.414-1.778-.34-4.171.362-8.294,1.415-8.31,3.139-16.826,4.961-23.924,1.167-4.547,1.962-5.976,4.758-8.773l.024-.023c2.756-2.756,3.568-3.566,7.211-4.141a127.988,127.988,0,0,1,19.23-1.367,137.554,137.554,0,0,1,19.555,1.509,12.415,12.415,0,0,1,4.776,1.448,9.418,9.418,0,0,1,2.544,3.056c1.9,2.979,2.357,3.9,2.674,8.02.047.605.112,1.435.192,2.434.455,5.732,1.351,17.033,1.565,23.237l.01.286c.154,4.375.248,7.382-4.815,13.09a12.186,12.186,0,0,0,2.086,4.509,16.632,16.632,0,0,0,5.413,4.115c1.682.924,3.833,2.01,6.235,3.224,3.939,1.99,8.548,4.318,12.843,6.817a15.837,15.837,0,0,1,5.709,5.33c2,3.218,2.488,6.933,2.76,10.931a104.124,104.124,0,0,1-.043,14.5c-.027.522-.054,1.062-.083,1.625a8.728,8.728,0,0,1-2.3,5.925,5.84,5.84,0,0,1-3.871,1.645l-.952,4.065a8.932,8.932,0,0,1,3.8,4.208c.892,2.207,1,5.321-.174,10.085-2.23,9.014-7.21,26.369-10.325,37.223l-.123.43c-3.087,10.756-3.568,12.764-6.288,25.681a13.047,13.047,0,0,1,5.426,3.373c2.357,2.586,3.339,6.333,4.816,12.161a26.971,26.971,0,0,1-1.46,16.879c-1.466,3.487-3.4,6.086-4.939,7.107a2.472,2.472,0,0,1-1.31.485h-2.092a1.625,1.625,0,0,1-1.036-.409c-1.539-1.265-2.3-5.172-2.3-5.172l-.007-.037Q393.806,230.455,389.383,230.493Z" style="fill:none;stroke:#a7abae;stroke-linecap:round;stroke-linejoin:round;stroke-width:0.5px"/></g><path d="M398.412,230.078q-4.5.128-9.031.165c-6.86.057-30.183.1-51.048.1-20.158,0-46.079-.253-57.606-.68l-.193,2.049a1.376,1.376,0,0,1-1.369,1.247h-.948c-3.008,0-4.2-1.7-4.2-8.05,0,0-.564-14.556-.125-26.853.085-2.382.125-4.517,4.141-4.517,0,0-2.824-20.453-2.824-29.488s1.82-28.484,4.267-38.208,2.007-10.415,11.607-12.925v-.69c-6.651-3.451-7.4-8.47-6.651-12.673a97.626,97.626,0,0,1,3.827-15.372c2.322-7.027,4.518-9.285,14.054-14.3s10.289-5.02,24.305-5.647a31.116,31.116,0,0,0,6.462-4.2c-2.008-.753-3.789-1.882-6.487-5.772s-4.132-4.565-2.622-13.426c1.414-8.306,3.137-16.814,4.956-23.9,1.157-4.51,1.933-5.9,4.693-8.658s3.521-3.529,7.1-4.094A127.7,127.7,0,0,1,359.91,2.807a137.33,137.33,0,0,1,19.512,1.505c4.769.816,5.271,1.443,7.153,4.392s2.321,3.827,2.635,7.905,1.506,18.383,1.757,25.661c.155,4.518.376,7.466-4.831,13.3,1.192,4.58,3.2,6.462,7.654,8.909s12.171,6.023,19.073,10.038,7.9,9.6,8.344,16.062a114.664,114.664,0,0,1-.125,16.092c-.218,4.328-2.447,7.247-6.117,7.341l-1.036,4.423c3.377,2.116,5.929,4.988,3.671,14.117s-7.341,26.821-10.447,37.644-3.576,12.8-6.336,25.911c6.9,2.447,7.968,6.274,10.289,15.434,3.137,12.377-4.51,24.16-7.467,24.16h-2.092c-2.026,0-3.087-5.379-3.087-5.379Z" style="fill:none;stroke:#a7abae;stroke-linecap:round;stroke-linejoin:round;stroke-width:0.5px"/><path d="M398.412,230.078h8.309c-1.773,3.455-3.905,5.624-5.174,5.624" style="fill:none;stroke:#a7abae;stroke-linecap:round;stroke-linejoin:round;stroke-width:0.5px"/><path d="M400.5,197.829c3.983,2.626,5.022,7.06,6.708,13.713a26.97,26.97,0,0,1-2.293,18.536" style="fill:none;stroke:#a7abae;stroke-linecap:round;stroke-linejoin:round;stroke-width:0.5px"/><path d="M283.656,217.13c-.4,5.335-.694,8.448-1.062,12.531" style="fill:none;stroke:#a7abae;stroke-linecap:round;stroke-linejoin:round;stroke-width:0.5px"/><g id="Offset_Group-6" data-name="Offset Group"><path d="M192.783,230.571l-.032,7.423a2.581,2.581,0,0,0,.7,1.783l1.253,1.33a2.579,2.579,0,0,0,1.88.811h10.663a2.582,2.582,0,0,0,1.68-.621l1.736-1.485a2.593,2.593,0,0,0,.9-1.832l.269-5.329" style="fill:none;stroke:#a7abae;stroke-linecap:round;stroke-linejoin:round;stroke-width:0.5px"/><path d="M193.033,230.572,193,238a2.337,2.337,0,0,0,.635,1.61l1.254,1.33a2.331,2.331,0,0,0,1.7.733h10.663a2.329,2.329,0,0,0,1.517-.561l1.736-1.485a2.334,2.334,0,0,0,.813-1.655l.269-5.328" style="fill:none;stroke:#a7abae;stroke-linecap:round;stroke-linejoin:round;stroke-width:0.5px"/><path d="M193.283,230.573,193.251,238a2.088,2.088,0,0,0,.567,1.438l1.254,1.33a2.082,2.082,0,0,0,1.516.654h10.663a2.083,2.083,0,0,0,1.355-.5l1.736-1.486a2.079,2.079,0,0,0,.725-1.477l.27-5.329" style="fill:none;stroke:#a7abae;stroke-linecap:round;stroke-linejoin:round;stroke-width:0.5px"/></g><path d="M193.533,230.575,193.5,238a1.835,1.835,0,0,0,.5,1.265l1.254,1.33a1.832,1.832,0,0,0,1.334.576h10.663a1.834,1.834,0,0,0,1.192-.44l1.736-1.486a1.836,1.836,0,0,0,.639-1.3l.269-5.328" style="fill:none;stroke:#a7abae;stroke-linecap:round;stroke-linejoin:round;stroke-width:0.5px"/><path d="M198.193,241.168l-.987-8.033a5.563,5.563,0,0,1,.057-1.713l.289-1.513" style="fill:none;stroke:#a7abae;stroke-linecap:round;stroke-linejoin:round;stroke-width:0.5px"/><path d="M205.365,241.168l-.986-8.033a5.532,5.532,0,0,1,.057-1.713l.288-1.513" style="fill:none;stroke:#a7abae;stroke-linecap:round;stroke-linejoin:round;stroke-width:0.5px"/><g id="Offset_Group-7" data-name="Offset Group"><path d="M89.8,230.09l-.034,7.9a2.585,2.585,0,0,0,.7,1.783l1.254,1.33a2.579,2.579,0,0,0,1.88.811h10.663a2.582,2.582,0,0,0,1.68-.621l2.334-2a.75.75,0,0,0,.176-.22l4.444-8.432" style="fill:none;stroke:#a7abae;stroke-linecap:round;stroke-linejoin:round;stroke-width:0.5px"/><path d="M90.048,230.091l-.034,7.9a2.332,2.332,0,0,0,.635,1.61l1.254,1.33a2.331,2.331,0,0,0,1.7.733h10.663a2.333,2.333,0,0,0,1.517-.561l2.335-2a.507.507,0,0,0,.117-.147l4.443-8.431" style="fill:none;stroke:#a7abae;stroke-linecap:round;stroke-linejoin:round;stroke-width:0.5px"/><path d="M90.3,230.092l-.034,7.9a2.088,2.088,0,0,0,.567,1.438l1.254,1.33a2.077,2.077,0,0,0,1.516.654h10.663a2.085,2.085,0,0,0,1.355-.5s2.334-2,2.393-2.072l4.443-8.432" style="fill:none;stroke:#a7abae;stroke-linecap:round;stroke-linejoin:round;stroke-width:0.5px"/></g><path d="M90.548,230.093l-.034,7.9a1.835,1.835,0,0,0,.5,1.265l1.254,1.33a1.831,1.831,0,0,0,1.334.576h10.663a1.834,1.834,0,0,0,1.192-.44l2.335-2,4.443-8.432" style="fill:none;stroke:#a7abae;stroke-linecap:round;stroke-linejoin:round;stroke-width:0.5px"/><path d="M95.206,241.168l-.987-8.033a5.532,5.532,0,0,1,.057-1.713l.236-1.24" style="fill:none;stroke:#a7abae;stroke-linecap:round;stroke-linejoin:round;stroke-width:0.5px"/><path d="M102.378,241.168l-.986-8.033a5.532,5.532,0,0,1,.056-1.713l.222-1.162" style="fill:none;stroke:#a7abae;stroke-linecap:round;stroke-linejoin:round;stroke-width:0.5px"/><g id="Offset_Group-8" data-name="Offset Group"><path d="M275.591,232.651l.269,5.329a2.593,2.593,0,0,0,.9,1.832L278.5,241.3a2.582,2.582,0,0,0,1.68.621h10.663a2.579,2.579,0,0,0,1.879-.811l1.254-1.33a2.581,2.581,0,0,0,.7-1.783l-.032-7.423" style="fill:none;stroke:#a7abae;stroke-linecap:round;stroke-linejoin:round;stroke-width:0.5px"/><path d="M275.841,232.639l.269,5.328a2.334,2.334,0,0,0,.813,1.655l1.735,1.485a2.334,2.334,0,0,0,1.518.561h10.663a2.336,2.336,0,0,0,1.7-.733l1.253-1.33a2.333,2.333,0,0,0,.636-1.61l-.032-7.423" style="fill:none;stroke:#a7abae;stroke-linecap:round;stroke-linejoin:round;stroke-width:0.5px"/><path d="M276.09,232.626l.27,5.329a2.079,2.079,0,0,0,.725,1.477l1.736,1.486a2.083,2.083,0,0,0,1.355.5h10.663a2.082,2.082,0,0,0,1.516-.654l1.253-1.33a2.084,2.084,0,0,0,.568-1.438l-.032-7.423" style="fill:none;stroke:#a7abae;stroke-linecap:round;stroke-linejoin:round;stroke-width:0.5px"/></g><path d="M276.34,232.614l.269,5.328a1.836,1.836,0,0,0,.639,1.3l1.736,1.486a1.832,1.832,0,0,0,1.192.44h10.663a1.832,1.832,0,0,0,1.334-.576l1.254-1.33a1.835,1.835,0,0,0,.5-1.265l-.032-7.422" style="fill:none;stroke:#a7abae;stroke-linecap:round;stroke-linejoin:round;stroke-width:0.5px"/><path d="M289.234,241.168l.986-8.033a5.563,5.563,0,0,0-.056-1.713l-.289-1.513" style="fill:none;stroke:#a7abae;stroke-linecap:round;stroke-linejoin:round;stroke-width:0.5px"/><path d="M282.062,241.168l.986-8.033a5.532,5.532,0,0,0-.057-1.713l-.288-1.513" style="fill:none;stroke:#a7abae;stroke-linecap:round;stroke-linejoin:round;stroke-width:0.5px"/><g id="Offset_Group-9" data-name="Offset Group"><path d="M374.529,230.647l4.444,8.432a.75.75,0,0,0,.176.22l2.334,2a2.582,2.582,0,0,0,1.68.621h10.663a2.579,2.579,0,0,0,1.88-.811l1.254-1.33a2.585,2.585,0,0,0,.7-1.783l-.034-7.9" style="fill:none;stroke:#a7abae;stroke-linecap:round;stroke-linejoin:round;stroke-width:0.5px"/><path d="M374.751,230.531l4.443,8.431a.491.491,0,0,0,.117.147l2.335,2a2.331,2.331,0,0,0,1.517.561h10.663a2.331,2.331,0,0,0,1.7-.733l1.254-1.33a2.332,2.332,0,0,0,.635-1.61l-.034-7.9" style="fill:none;stroke:#a7abae;stroke-linecap:round;stroke-linejoin:round;stroke-width:0.5px"/><path d="M374.972,230.414s4.443,8.432,4.5,8.505l2.334,2a2.085,2.085,0,0,0,1.355.5h10.663a2.077,2.077,0,0,0,1.516-.654l1.254-1.33a2.088,2.088,0,0,0,.567-1.438l-.034-7.9" style="fill:none;stroke:#a7abae;stroke-linecap:round;stroke-linejoin:round;stroke-width:0.5px"/></g><path d="M375.193,230.3l4.443,8.432,2.335,2a1.834,1.834,0,0,0,1.192.44h10.663a1.831,1.831,0,0,0,1.334-.576l1.254-1.33a1.835,1.835,0,0,0,.5-1.265l-.034-7.9" style="fill:none;stroke:#a7abae;stroke-linecap:round;stroke-linejoin:round;stroke-width:0.5px"/><path d="M392.221,241.168l.987-8.033a5.532,5.532,0,0,0-.057-1.713l-.236-1.24" style="fill:none;stroke:#a7abae;stroke-linecap:round;stroke-linejoin:round;stroke-width:0.5px"/><path d="M385.049,241.168l.986-8.033a5.563,5.563,0,0,0-.056-1.713l-.222-1.162" style="fill:none;stroke:#a7abae;stroke-linecap:round;stroke-linejoin:round;stroke-width:0.5px"/></g><g id="above"><path d="M394.076,159.474a.9.9,0,0,0-.919-1.132h-7.952a1.559,1.559,0,0,0-1.441,1.132l-.058.223-1.277,5.224a.89.89,0,0,0,.88,1.18h1.509L385,165.1l-1.113-.029,1.248-4.886a.663.663,0,0,1,.639-.493l2.909.01s-.962,3.926-1.18,4.872-.158,1.532,1.128,1.532h2.841a1.545,1.545,0,0,0,1.441-1.18Zm-2.515,4.886a.487.487,0,0,1-.474.377h-2.119a.225.225,0,0,1-.219-.276l1.019-4.358a.507.507,0,0,1,.5-.406h2a.224.224,0,0,1,.22.271Z" style="fill:none;stroke:#000001;stroke-linecap:round;stroke-linejoin:round;stroke-width:1.5px"/><path d="M312.99,158.342h-7.517a1.393,1.393,0,0,0-1.374,1.064l-.882,5.066a1.386,1.386,0,0,0,1.516,1.574l3.087-.064a1.2,1.2,0,0,0,1.2-.919l.768-5.318h2.835l-.7,4.769a.415.415,0,0,1-.426.32h-1.084l-.193,1.209h1.761a1.383,1.383,0,0,0,1.364-1.064l.019-.136.609-5.1.039-.339A.937.937,0,0,0,312.99,158.342Zm-5.215,6.076a.411.411,0,0,1-.416.319l-2.425.008a.319.319,0,0,1-.316-.373l.739-4.308a.4.4,0,0,1,.416-.319h2.293a.319.319,0,0,1,.316.364Z" style="fill:none;stroke:#000001;stroke-linecap:round;stroke-linejoin:round;stroke-width:1.5px"/><path d="M317.225,164.776H312.2a.473.473,0,0,1-.468-.541l.59-4.088a.473.473,0,0,1,.469-.406l4.928.008,64.3-.044,3.483-.014a.474.474,0,0,1,.461.591l-1.053,4.123a.471.471,0,0,1-.456.356l-3.729.015Z" style="fill:none;stroke:#000001;stroke-linecap:round;stroke-linejoin:round;stroke-width:1.5px"/><path d="M302.976,166.1s4.9.034,14.114.064l.642-6.6a.6.6,0,0,1,.6-.544q3.5.012,7.848.023a.6.6,0,0,1,.537.331l3.447,6.143h37.458l5.254-6.233a.6.6,0,0,1,.478-.238q4.572-.011,8.129-.024a.545.545,0,0,1,.529.685l-1.71,6.453c8.281-.03,12.344-.062,12.344-.062-.745,3.276-1.491,6.407-2.163,9.009-2.424,9.389-2.045,9.582-7.511,18.413-5.532,8.938-7.271,10.62-13.755,10.917s-43.377.5-51.374.2-9.763-1.287-13.451-9.356c-3.648-7.981-4.07-9.818-3.264-16.546C301.466,175.925,302.976,166.1,302.976,166.1Z" style="fill:none;stroke:#000001;stroke-linecap:round;stroke-linejoin:round;stroke-width:1.5px"/><path d="M394.076,159.474a.9.9,0,0,0-.919-1.132h-7.952a1.559,1.559,0,0,0-1.441,1.132l-.058.223-1.277,5.224a.89.89,0,0,0,.88,1.18h1.509L385,165.1l-1.113-.029,1.248-4.886a.663.663,0,0,1,.639-.493l2.909.01s-.962,3.926-1.18,4.872-.158,1.532,1.128,1.532h2.841a1.545,1.545,0,0,0,1.441-1.18Zm-2.515,4.886a.487.487,0,0,1-.474.377h-2.119a.225.225,0,0,1-.219-.276l1.019-4.358a.507.507,0,0,1,.5-.406h2a.224.224,0,0,1,.22.271Z" style="fill:#d3d5d6;stroke:#000001;stroke-linecap:round;stroke-linejoin:round;stroke-width:0.5px"/><path d="M312.99,158.342h-7.517a1.393,1.393,0,0,0-1.374,1.064l-.882,5.066a1.386,1.386,0,0,0,1.516,1.574l3.087-.064a1.2,1.2,0,0,0,1.2-.919l.768-5.318h2.835l-.7,4.769a.415.415,0,0,1-.426.32h-1.084l-.193,1.209h1.761a1.383,1.383,0,0,0,1.364-1.064l.019-.136.609-5.1.039-.339A.937.937,0,0,0,312.99,158.342Zm-5.215,6.076a.411.411,0,0,1-.416.319l-2.425.008a.319.319,0,0,1-.316-.373l.739-4.308a.4.4,0,0,1,.416-.319h2.293a.319.319,0,0,1,.316.364Z" style="fill:#d3d5d6;stroke:#000001;stroke-linecap:round;stroke-linejoin:round;stroke-width:0.5px"/><path d="M317.225,164.776H312.2a.473.473,0,0,1-.468-.541l.59-4.088a.473.473,0,0,1,.469-.406l4.928.008,64.3-.044,3.483-.014a.474.474,0,0,1,.461.591l-1.053,4.123a.471.471,0,0,1-.456.356l-3.729.015Z" style="fill:#d3d5d6;stroke:#000001;stroke-linecap:round;stroke-linejoin:round;stroke-width:0.5px"/><path d="M302.976,166.1s4.9.034,14.114.064l.642-6.6a.6.6,0,0,1,.6-.544q3.5.012,7.848.023a.6.6,0,0,1,.537.331l3.447,6.143h37.458l5.254-6.233a.6.6,0,0,1,.478-.238q4.572-.011,8.129-.024a.545.545,0,0,1,.529.685l-1.71,6.453c8.281-.03,12.344-.062,12.344-.062-.745,3.276-1.491,6.407-2.163,9.009-2.424,9.389-2.045,9.582-7.511,18.413-5.532,8.938-7.271,10.62-13.755,10.917s-43.377.5-51.374.2-9.763-1.287-13.451-9.356c-3.648-7.981-4.07-9.818-3.264-16.546C301.466,175.925,302.976,166.1,302.976,166.1Z" style="fill:#d3d5d6;stroke:#000001;stroke-linecap:round;stroke-linejoin:round;stroke-width:0.5px"/><path d="M94.773,164.921a1.545,1.545,0,0,0,1.441,1.18h2.84c1.287,0,1.347-.586,1.129-1.532S99,159.7,99,159.7l2.909-.01a.661.661,0,0,1,.638.493l1.248,4.886-1.112.029.184,1.006h1.509a.89.89,0,0,0,.88-1.18l-1.277-5.224-.058-.223a1.56,1.56,0,0,0-1.441-1.132H94.531a.9.9,0,0,0-.919,1.132Zm.425-4.953a.224.224,0,0,1,.22-.271h2a.507.507,0,0,1,.5.406l1.019,4.358a.225.225,0,0,1-.219.276H96.6a.486.486,0,0,1-.474-.377Z" style="fill:none;stroke:#000001;stroke-linecap:round;stroke-linejoin:round;stroke-width:1.5px"/><path d="M173.673,159.406l.038.339.61,5.1.019.136a1.382,1.382,0,0,0,1.364,1.064h1.761l-.194-1.209h-1.083a.415.415,0,0,1-.426-.32l-.7-4.769H177.9l.767,5.318a1.2,1.2,0,0,0,1.2.919l3.086.064a1.386,1.386,0,0,0,1.517-1.574l-.883-5.066a1.391,1.391,0,0,0-1.373-1.064H174.7A.937.937,0,0,0,173.673,159.406Zm5.633.7a.319.319,0,0,1,.316-.364h2.293a.4.4,0,0,1,.416.319l.739,4.308a.326.326,0,0,1-.071.26.321.321,0,0,1-.245.113l-2.426-.008a.411.411,0,0,1-.416-.319Z" style="fill:none;stroke:#000001;stroke-linecap:round;stroke-linejoin:round;stroke-width:1.5px"/><path d="M170.463,164.776h5.027a.473.473,0,0,0,.469-.541l-.59-4.088a.473.473,0,0,0-.469-.406l-4.928.008-64.3-.044-3.482-.014a.474.474,0,0,0-.461.591l1.053,4.123a.471.471,0,0,0,.456.356l3.729.015Z" style="fill:none;stroke:#000001;stroke-linecap:round;stroke-linejoin:round;stroke-width:1.5px"/><path d="M184.712,166.1s-4.9.034-14.114.064l-.642-6.6a.6.6,0,0,0-.6-.544q-3.5.012-7.848.023a.6.6,0,0,0-.537.331l-3.448,6.143H120.063l-5.253-6.233a.6.6,0,0,0-.478-.238q-4.572-.011-8.13-.024a.546.546,0,0,0-.529.685l1.711,6.453c-8.281-.03-12.344-.062-12.344-.062.745,3.276,1.491,6.407,2.163,9.009,2.424,9.389,2.045,9.582,7.511,18.413,5.532,8.938,7.271,10.62,13.755,10.917s43.377.5,51.374.2,9.763-1.287,13.451-9.356c3.648-7.981,4.07-9.818,3.264-16.546C186.222,175.925,184.712,166.1,184.712,166.1Z" style="fill:none;stroke:#000001;stroke-linecap:round;stroke-linejoin:round;stroke-width:1.5px"/><path d="M94.773,164.921a1.545,1.545,0,0,0,1.441,1.18h2.84c1.287,0,1.347-.586,1.129-1.532S99,159.7,99,159.7l2.909-.01a.661.661,0,0,1,.638.493l1.248,4.886-1.112.029.184,1.006h1.509a.89.89,0,0,0,.88-1.18l-1.277-5.224-.058-.223a1.56,1.56,0,0,0-1.441-1.132H94.531a.9.9,0,0,0-.919,1.132Zm.425-4.953a.224.224,0,0,1,.22-.271h2a.507.507,0,0,1,.5.406l1.019,4.358a.225.225,0,0,1-.219.276H96.6a.486.486,0,0,1-.474-.377Z" style="fill:#d3d5d6;stroke:#000001;stroke-linecap:round;stroke-linejoin:round;stroke-width:0.5px"/><path d="M173.673,159.406l.038.339.61,5.1.019.136a1.382,1.382,0,0,0,1.364,1.064h1.761l-.194-1.209h-1.083a.415.415,0,0,1-.426-.32l-.7-4.769H177.9l.767,5.318a1.2,1.2,0,0,0,1.2.919l3.086.064a1.386,1.386,0,0,0,1.517-1.574l-.883-5.066a1.391,1.391,0,0,0-1.373-1.064H174.7A.937.937,0,0,0,173.673,159.406Zm5.633.7a.319.319,0,0,1,.316-.364h2.293a.4.4,0,0,1,.416.319l.739,4.308a.326.326,0,0,1-.071.26.321.321,0,0,1-.245.113l-2.426-.008a.411.411,0,0,1-.416-.319Z" style="fill:#d3d5d6;stroke:#000001;stroke-linecap:round;stroke-linejoin:round;stroke-width:0.5px"/><path d="M170.463,164.776h5.027a.473.473,0,0,0,.469-.541l-.59-4.088a.473.473,0,0,0-.469-.406l-4.928.008-64.3-.044-3.482-.014a.474.474,0,0,0-.461.591l1.053,4.123a.471.471,0,0,0,.456.356l3.729.015Z" style="fill:#d3d5d6;stroke:#000001;stroke-linecap:round;stroke-linejoin:round;stroke-width:0.5px"/><path d="M184.712,166.1s-4.9.034-14.114.064l-.642-6.6a.6.6,0,0,0-.6-.544q-3.5.012-7.848.023a.6.6,0,0,0-.537.331l-3.448,6.143H120.063l-5.253-6.233a.6.6,0,0,0-.478-.238q-4.572-.011-8.13-.024a.546.546,0,0,0-.529.685l1.711,6.453c-8.281-.03-12.344-.062-12.344-.062.745,3.276,1.491,6.407,2.163,9.009,2.424,9.389,2.045,9.582,7.511,18.413,5.532,8.938,7.271,10.62,13.755,10.917s43.377.5,51.374.2,9.763-1.287,13.451-9.356c3.648-7.981,4.07-9.818,3.264-16.546C186.222,175.925,184.712,166.1,184.712,166.1Z" style="fill:#d3d5d6;stroke:#000001;stroke-linecap:round;stroke-linejoin:round;stroke-width:0.5px"/></g></svg>