<svg xmlns="http://www.w3.org/2000/svg" xmlns:xlink="http://www.w3.org/1999/xlink" width="161.749" height="161.749" viewBox="0 0 161.749 161.749"><defs><linearGradient id="linear-gradient" x1="124.2" y1="82.504" x2="114.221" y2="74.817" gradientUnits="userSpaceOnUse"><stop offset="0" stop-color="#fff" stop-opacity="0"/><stop offset="1" stop-color="#fff"/></linearGradient></defs><g id="below"><path d="M138.68,57.383l-67-7.547s-3.558-16.55-8.8-36.789c-.509-1.965-.147-3.914,2.664-3.834l27.749.781c9.291.262,13.344,2.966,18.26,6.477" style="fill:none;stroke:#a7abae;stroke-linecap:round;stroke-linejoin:round;stroke-width:0.5px"/><path d="M6.563,8.031c6.28-.018,18.489-.045,22.033.012,4.838.078,5.853.625,7.257,2.42a15.234,15.234,0,0,1,3.122,6.867c.858,3.589,4.263,19.048,6.423,31.413" style="fill:none;stroke:#a7abae;stroke-linecap:round;stroke-linejoin:round;stroke-width:0.5px"/><path d="M47.831,17.636c-2.142-.141-2.617.023-2.066,3.167s1.832,9.9,2.229,11.909.877,2.765,2.7,3.142a65.317,65.317,0,0,0,6.645.863c1.363.088,2.2-.468,1.486-3.344S55.934,22.494,55.306,20.4,53.121,18.177,52,17.98,48.955,17.71,47.831,17.636Z" style="fill:none;stroke:#a7abae;stroke-linecap:round;stroke-linejoin:round;stroke-width:0.5px"/><path d="M89.309,7.791c-9.953-.287-20.667-.463-24.4-.549-4.861-.111-6.606,1.1-4.348,9.687,2.574,9.8,5.8,25.323,11.689,56.73.158.847.243.975-.776,1.995s-1.249,1.831-.787,4.908c2.107,14.028,5.425,28.286,5.425,28.286" style="fill:none;stroke:#a7abae;stroke-linecap:round;stroke-linejoin:round;stroke-width:0.5px"/><path d="M51.324,24.349c-2.576.045-2.689.119-3.19.84s-.286,1.241-.054,2.228.592,2.3.772,2.939.546,1.034,1.745.736a18.759,18.759,0,0,0,3.854-1.373c.764-.457.827-.967,1.03-2.166a3.112,3.112,0,0,0-.113-2.1C55.109,24.658,54.309,24.3,51.324,24.349Z" style="fill:none;stroke:#a7abae;stroke-linecap:round;stroke-linejoin:round;stroke-width:0.5px"/><path d="M71.493,142.171c4.665.924,8.164,1.612,9.39,1.843,3.5.66,5.314,2.579,5.783,4.767.244,1.14.68,3.3,1.041,5.106" style="fill:none;stroke:#a7abae;stroke-linecap:round;stroke-linejoin:round;stroke-width:0.5px"/><path d="M85.046,156.384c-.352-1.775-.937-4.7-1.228-6.058-.434-2.025-2.115-3.8-5.351-4.411-1.486-.28-6.581-1.286-12.983-2.556" style="fill:none;stroke:#a7abae;stroke-linecap:round;stroke-linejoin:round;stroke-width:0.5px"/><path d="M110.449,133.282s-1.042-4.22-1.3-5.158-1.406-1.459-5.418-2.032" style="fill:none;stroke:#a7abae;stroke-linecap:round;stroke-linejoin:round;stroke-width:0.5px"/><path d="M106.8,136.772s-.729-3.8-.938-5.053-.417-1.719-3.334-2.032" style="fill:none;stroke:#a7abae;stroke-linecap:round;stroke-linejoin:round;stroke-width:0.5px"/><line x1="109.568" y1="129.751" x2="159.574" y2="140.231" style="fill:none;stroke:#a7abae;stroke-linecap:round;stroke-linejoin:round;stroke-width:0.5px"/><line x1="4.242" y1="107.677" x2="16.153" y2="110.173" style="fill:none;stroke:#a7abae;stroke-linecap:round;stroke-linejoin:round;stroke-width:0.5px"/><line x1="74.032" y1="74.255" x2="100.133" y2="78.006" style="fill:none;stroke:#a7abae;stroke-linecap:round;stroke-linejoin:round;stroke-width:0.5px"/><g id="Offset_Group" data-name="Offset Group"><path d="M39.057,36.421a10.456,10.456,0,0,1,4.778,5.654c1.02,2.708,1.961,5.568,2.547,7.4a4.8,4.8,0,0,1,.157,3.087,2.3,2.3,0,0,1-.883,1.091,3.488,3.488,0,0,1-1.626.516l.15.847a12.91,12.91,0,0,1,5.045,1.619,8.36,8.36,0,0,1,2.4,2.729A123.222,123.222,0,0,1,62.679,81.91l.119.314a14.811,14.811,0,0,1,1.288,6.61c-.178,2.451-1.169,5.275-3.391,9.274-1.426,2.567-3.274,5.348-4.435,7.038,14.6-4.967,25.535-6.828,31.368-7.424,3.668-.375,6.146-.386,8.376.315,2.12.667,3.951,1.957,6.345,4.021,2.829,2.437,4.235,4.348,4.68,6.1a5.355,5.355,0,0,1-.185,3.173,4.287,4.287,0,0,1,.15.646c.24,1.5.073,4.221-.342,8.3-.427,4.206-.91,6.983-1.147,8.348-.046.265-.081.47-.106.623a6.959,6.959,0,0,1-1.687,3.371,73.343,73.343,0,0,1-12,11.757c-.222.177-.4.321-.543.435a5.18,5.18,0,0,1-1.741,1.094,2.267,2.267,0,0,1-1.016,0l-.184-.028-4.165-.761v-3.886a33.343,33.343,0,0,1-6.036.472c-.32,0-.655,0-1.019.007-1.407.015-2.278.023-5.816,1.215a18.07,18.07,0,0,1-9.908.649s-35.129-7.136-36.376-7.4a2.609,2.609,0,0,1-1.056-.5,5.556,5.556,0,0,1-1.46-1.943c-.277-.548-.63-1.238-1.033-2.023-1.812-3.539-4.628-9.035-5.705-11.816a9.412,9.412,0,0,1-.675-4.167,6.18,6.18,0,0,1,.634-2.376.63.63,0,0,0-.085.315V104.2a23.839,23.839,0,0,0-.986-6.749c-.275-.808-.895-2.883-1.7-5.557C11.174,86.3,8.7,78.01,6.84,72.791l-.074-.209v0c-1.9-5.35-2.981-8.322-2.658-10.642a5.648,5.648,0,0,1,.927-2.384,2.562,2.562,0,0,1-.737-.716,2.612,2.612,0,0,1-.41-1.278c-.209-2.636-.442-8.915-.29-11.548.258-4.47,3.426-7.867,4.908-9.469a9.282,9.282,0,0,0,2.6-5.253c.806-3.993,1.955-9.413,1.958-9.413a52.185,52.185,0,0,1,1.092-6.521A5.1,5.1,0,0,1,15.519,12.8c.9-.823,2.244-1.232,4.316-1.619a32.847,32.847,0,0,1,11.207,0A6,6,0,0,1,34.477,12.7,5.985,5.985,0,0,1,35.851,16.2c.366,2.557.692,5.044.9,7.454a16.182,16.182,0,0,1-.893,6.985c-.039.117-.076.231-.113.342-.47,1.434-.824,2.581-1.72,3.314-.035.029-.07.056-.106.083A11.435,11.435,0,0,1,39.057,36.421Z" style="fill:none;stroke:#a7abae;stroke-linecap:round;stroke-linejoin:round;stroke-width:0.5px"/><path d="M38.858,36.739a10.082,10.082,0,0,1,4.626,5.469c1.017,2.7,1.955,5.551,2.541,7.386a4.448,4.448,0,0,1,.165,2.836,1.924,1.924,0,0,1-.741.916,3.45,3.45,0,0,1-1.861.477l.268,1.522c2.5.43,4.015.835,5.159,1.606a7.987,7.987,0,0,1,2.291,2.615A122.8,122.8,0,0,1,62.328,82.043l.119.314a14.448,14.448,0,0,1,1.265,6.449c-.172,2.372-1.133,5.139-3.344,9.12-1.731,3.115-4.091,6.552-5.069,7.946,15.113-5.237,26.42-7.169,32.368-7.777,3.661-.374,6.073-.377,8.224.3,2.044.643,3.827,1.89,6.214,3.947,2.813,2.424,4.145,4.272,4.561,5.909a5.037,5.037,0,0,1-.22,3.08,3.666,3.666,0,0,1,.178.706c.23,1.442.071,4.108-.345,8.2-.426,4.194-.907,6.961-1.143,8.322q-.069.394-.107.628a6.59,6.59,0,0,1-1.612,3.2,72.983,72.983,0,0,1-11.939,11.7c-.221.176-.4.322-.546.438a4.891,4.891,0,0,1-1.6,1.022,1.918,1.918,0,0,1-.86,0c-.061-.01-.123-.02-.189-.029l-3.843-.7V140.8a33.949,33.949,0,0,1-6.412.535c-.321,0-.656,0-1.022.007-1.452.015-2.363.032-5.932,1.235a17.689,17.689,0,0,1-9.714.636s-35.127-7.135-36.371-7.4a2.236,2.236,0,0,1-.906-.431,5.184,5.184,0,0,1-1.354-1.815c-.278-.549-.632-1.24-1.034-2.025-1.817-3.549-4.621-9.023-5.689-11.78a9.052,9.052,0,0,1-.652-4,5.681,5.681,0,0,1,.585-2.217.25.25,0,0,0-.034.126V104.2a24.229,24.229,0,0,0-1.006-6.87c-.272-.8-.889-2.864-1.69-5.543C11.535,86.192,9.054,77.9,7.193,72.666l-.074-.21h0c-1.922-5.4-2.947-8.261-2.64-10.465a5.344,5.344,0,0,1,.965-2.373l-.026-.267a2.3,2.3,0,0,1-.809-.72,2.237,2.237,0,0,1-.348-1.1c-.209-2.631-.44-8.89-.29-11.5C4.22,41.716,7.287,38.411,8.78,36.8a9.638,9.638,0,0,0,2.7-5.433c.81-4.007,1.964-9.453,1.964-9.448a51.947,51.947,0,0,1,1.081-6.46,4.732,4.732,0,0,1,1.253-2.382c.807-.741,2.053-1.139,4.131-1.527a32.476,32.476,0,0,1,11.074,0,5.649,5.649,0,0,1,3.23,1.41,5.631,5.631,0,0,1,1.272,3.3c.365,2.555.69,5.034.893,7.433a15.811,15.811,0,0,1-.875,6.835c-.039.118-.077.232-.113.343-.483,1.473-.809,2.492-1.6,3.141a3.362,3.362,0,0,1-1.112.582A11.734,11.734,0,0,1,38.858,36.739Z" style="fill:none;stroke:#a7abae;stroke-linecap:round;stroke-linejoin:round;stroke-width:0.5px"/></g><path d="M30.96,34.679c4.682.372,5.657.945,7.764,2.271A9.84,9.84,0,0,1,43.25,42.3c1.015,2.692,1.951,5.54,2.537,7.374s.7,3.98-2.5,3.9l.352,1.99c4.6.78,5.779,1.43,7.452,4.136a122.9,122.9,0,0,1,11.12,22.747C63.93,86.972,64.5,89.982,60.149,97.8c-2.228,4.01-5.506,8.561-5.506,8.561,15.465-5.425,27.025-7.406,33.049-8.021,7.127-.728,9.359-.027,14.249,4.187,4.756,4.1,5.133,6.438,4.236,8.8.478,1.075.361,3.885-.147,8.879s-1.092,7.96-1.248,8.935a6.338,6.338,0,0,1-1.561,3.082,74.774,74.774,0,0,1-12.447,12.1c-1.482,1.21-1.638,1.054-2.458.936s-3.628-.663-3.628-.663v-4.1A37.439,37.439,0,0,1,77,141.09c-1.483.016-2.419.039-6.009,1.248a17.437,17.437,0,0,1-9.584.628s-35.127-7.135-36.369-7.4c-.646-.138-1.347-.645-2.089-2.114-1.537-3.039-5.417-10.435-6.713-13.782-1.431-3.694-.084-6-.084-6V104.2a24.473,24.473,0,0,0-1.019-6.951c-.833-2.445-4.948-16.913-7.7-24.664S3.777,62.39,5.7,59.685l-.048-.492A1.883,1.883,0,0,1,4.51,57.511c-.208-2.626-.439-8.872-.289-11.463.243-4.216,3.243-7.459,4.743-9.081a9.889,9.889,0,0,0,2.756-5.554c.811-4.013,1.968-9.471,1.968-9.471a51.633,51.633,0,0,1,1.073-6.42c.648-2.351,1.5-3.04,5.189-3.729a32.211,32.211,0,0,1,10.985,0c3.284.567,3.933,1.946,4.3,4.5s.689,5.026.891,7.418a15.543,15.543,0,0,1-.864,6.736C34.3,33.36,34.117,34.3,30.96,34.679Z" style="fill:none;stroke:#a7abae;stroke-linecap:round;stroke-linejoin:round;stroke-width:0.5px"/><path d="M30.96,34.679s-4.757.651-6.032.859a19.328,19.328,0,0,1-5.748-.182c-3.226-.39-4.162-.858-5.151-2.783s-1.118-2.679-.884-5.281.442-5.383.442-5.383" style="fill:none;stroke:#a7abae;stroke-linecap:round;stroke-linejoin:round;stroke-width:0.5px"/><path d="M21.342,35.585s-6.207,1.02-7.924,1.332-2.614.507-4.409,3.9-2.025,5.237-1.678,8.935c.3,3.186.559,6.1.715,7.452s.565,2.758,1.344,2.913h0l.778.155.371,1.845a7.93,7.93,0,0,0,.109,5.024C11.272,69.276,18.4,92.478,19.7,96.12c1.278,3.579,1.941,6.741,1.352,13.506" style="fill:none;stroke:#a7abae;stroke-linecap:round;stroke-linejoin:round;stroke-width:0.5px"/><path d="M5.553,59.159a55.211,55.211,0,0,0,7.358,1.6,9.262,9.262,0,0,0,4.175-.117,5.1,5.1,0,0,0,3.355-2.5c1.132-1.639,1.405-2.615,1.8-5.7s.9-3.863,2.614-4.331,4.565-.979,5.93-1.252,2.45-.057,4.09,2.454c1.912,2.926,2,3.948,8.319,4.221" style="fill:none;stroke:#a7abae;stroke-linecap:round;stroke-linejoin:round;stroke-width:0.5px"/><path d="M43.54,55.528s-3.239-.546-4.448-.819-1.756-.078-3-1.912a5.453,5.453,0,0,0-2.848-2.5c-1.053-.507-2.029-.312-5.97.546-2.126.463-3.855.961-5,1.32" style="fill:none;stroke:#a7abae;stroke-linecap:round;stroke-linejoin:round;stroke-width:0.5px"/><path d="M20.772,57.642a40.077,40.077,0,0,1-2.555,3.778c-.936,1.093-1.873,1.522-4.019,1.288a66.392,66.392,0,0,1-7.062-1.327A1.732,1.732,0,0,1,5.6,59.651" style="fill:none;stroke:#a7abae;stroke-linecap:round;stroke-linejoin:round;stroke-width:0.5px"/><path d="M21.937,63.241c-.312,1.092.463,2.69,3.324,9.089s6.1,13.9,8.7,21.5,3.321,9.731.824,21.124" style="fill:none;stroke:#a7abae;stroke-linecap:round;stroke-linejoin:round;stroke-width:0.5px"/><path d="M36.443,116.231,50.8,107.885c1.513-.878,2.49-3.74,2.49-7.369,0-2.38-.624-5.267-2.3-10.223s-5.5-15.685-6.906-19.274S41.55,65.907,38.9,64.073s-3.824-1.521-5.112-1.248-4.247,1.246-5.495,1.6c-2.626.739-3.19,3.959-3.513,6.826" style="fill:none;stroke:#a7abae;stroke-linecap:round;stroke-linejoin:round;stroke-width:0.5px"/><path d="M54.542,106.332a12.231,12.231,0,0,1-3.738,1.553" style="fill:none;stroke:#a7abae;stroke-linecap:round;stroke-linejoin:round;stroke-width:0.5px"/><path d="M41.163,119.775l-6.506-4.885-1.639.063a40.01,40.01,0,0,0-6.971-4.318c-3.694-1.717-7.918-1.538-9.958,3.156" style="fill:none;stroke:#a7abae;stroke-linecap:round;stroke-linejoin:round;stroke-width:0.5px"/><path d="M86.906,117.7s-6.92-1.821-10.613-2.809-6.815-.937-11.914-.521-15.3,1.977-18.1,2.341a6.653,6.653,0,0,0-4.172,2.06c-1.509,1.357-1.647,2.239-1.36,3.054a.569.569,0,0,0,.569.379c11.72-.654,16.319-.539,21.464-.23,5.2.312,7.335.676,14.41,3.174s9.417,2.029,11.342,1.612,7.146-3.661,10.977-6.971a30.036,30.036,0,0,0,6.571-8.489" style="fill:none;stroke:#a7abae;stroke-linecap:round;stroke-linejoin:round;stroke-width:0.5px"/><path d="M84.688,140.5a23.837,23.837,0,0,0,5.83-2.218s-.284,3.028-.43,4.8-.356,2.48-1.873,2.161" style="fill:none;stroke:#a7abae;stroke-linecap:round;stroke-linejoin:round;stroke-width:0.5px"/><path d="M106.226,116.942c-.133,1.559-1,4.137-5.8,8.39s-9.724,10.062-25.01,10.73" style="fill:none;stroke:#a7abae;stroke-linecap:round;stroke-linejoin:round;stroke-width:0.5px"/><path d="M48.712,116.185s-.139-.452,4.543-3.417,5.931-3.8,11.706-5.411,19.353-2.965,36.1-2.757" style="fill:none;stroke:#a7abae;stroke-linecap:round;stroke-linejoin:round;stroke-width:0.5px"/><path d="M41.14,126.968l-8.222-2.16a.433.433,0,0,1-.316-.5l1.4-7.23a1.08,1.08,0,0,0-.3-.966L38.959,120" style="fill:none;stroke:#a7abae;stroke-linecap:round;stroke-linejoin:round;stroke-width:0.5px"/><line x1="40.649" y1="121.467" x2="41.33" y2="129.099" style="fill:none;stroke:#a7abae;stroke-linecap:round;stroke-linejoin:round;stroke-width:0.5px"/><path d="M18.165,16.419c1.2,0,1.769.26,1.743,1.457s-.416,7.96-.494,9-.184,1.409-1.873,1.327-1.795-.6-1.769-1.509.52-7.543.65-8.818S17.255,16.419,18.165,16.419Z" style="fill:none;stroke:#a7abae;stroke-linecap:round;stroke-linejoin:round;stroke-width:0.5px"/><path d="M19.023,18.721c-.052.781-.39,5.684-.416,6.035s-.026.666-.624.65-.689-.143-.689-.715.377-5.514.416-5.957.26-.507.767-.507C18.854,18.227,19.045,18.4,19.023,18.721Z" style="fill:none;stroke:#a7abae;stroke-linecap:round;stroke-linejoin:round;stroke-width:0.5px"/><path d="M17.043,12.5a10.872,10.872,0,0,1,5.654.242c1.577.682,1.961,1.619,1.833,4.3s-.3,6.093-.426,7.84a8,8,0,0,0,.724,4.517c.767,1.705,1.023,2.173,3.068,2.088s4.389-.511,5.625-.682a2.152,2.152,0,0,0,2.092-1.938" style="fill:none;stroke:#a7abae;stroke-linecap:round;stroke-linejoin:round;stroke-width:0.5px"/></g><g id="illustration"><path d="M153.226,138.088a61.088,61.088,0,0,0-7.158,4.4l.564.809c-4.14,3.67-9.376,4.6-9.874,3.943a8.251,8.251,0,0,1-.715-1.26,1.178,1.178,0,0,1-.075-.883c-1.631-2.007-2.289-4.724-2.966-6.421a1.316,1.316,0,0,1-1.4-.385c-.969-1.166-.837-2.035-2.181-2.928s-2.12-2.712-3.253-3.52c-2.307-1.659-14.649-16.714-19.42-23.665,0,0-18.668,2.833-35.776,4.93S51.65,102.476,51.65,102.476l-1.072-6.293q7.9-1.467,15.971-2.515,1.614-.21,3.229-.4c14.485-1.725,24.929-1.889,38.469-1.791a8.118,8.118,0,0,1,6.919,3.981l2.759,4.672,18.09,23.937c.649.851,2.044.94,2.425,3.2s1.758,1.124,2.143,2.835a2.289,2.289,0,0,1-.333,1.269c.648.441,1.367.46,3,.564,4.6.291,3.036.366,6.952-1.232,2.194-.9,5.4-2.528,7.919-.46C159.745,130.822,162.443,132.97,153.226,138.088Z" style="fill:none;stroke:#000001;stroke-linecap:round;stroke-linejoin:round;stroke-width:1.5px"/><path d="M135.969,145.1c1.216.675,4.353-1.261,4.353-1.261" style="fill:none;stroke:#000001;stroke-linecap:round;stroke-linejoin:round;stroke-width:1.5px"/><path d="M143.027,147.728a61.106,61.106,0,0,0-7.16,4.39l.57.82c-4.14,3.66-9.38,4.59-9.88,3.94a7.609,7.609,0,0,1-.71-1.26,1.207,1.207,0,0,1-.08-.89c-2.04-2.51-2.56-6.14-3.5-7.47a1.629,1.629,0,0,1-.11-.17c-.9.4-1.68.44-2.2-.07-1.92-1.88-1.12-3.07-3.27-4.56s-2.68-3.74-3.62-5.03c-5.13-7-14.41-13.35-19.23-24.09,0,0-.83.75-3.03.43-2.87-.42-3.12.42-12.12,1.51-.87-.23-1.69-.45-2.39-.64-3.7-.98-6.82-.93-11.92-.52s-15.29,1.98-18.1,2.35a7.756,7.756,0,0,0-.91.17,15.35,15.35,0,0,1-7.53-10.29l-.99-6.45,28.21-2.34c2.19-1.3,1.99-.29,4.05-.27l30.08-.49a8.1,8.1,0,0,1,7,4.17l2.36,4.24,15.49,24.87c.68,1.09,2.3,2.35,2.82,4.52s1.77,2.51,2.52,4.05c.13.27.01.76-.31,1.39,1.15,1.42,1.57,1.38,3.98,1.54,4.6.29,3.04.36,6.95-1.23,2.2-.91,5.4-2.53,7.92-.46C149.547,140.458,152.247,142.608,143.027,147.728Z" style="fill:none;stroke:#000001;stroke-linecap:round;stroke-linejoin:round;stroke-width:1.5px"/><path d="M115.424,48.708l-.479,10.566s-1.467,1.7-2.58,2.717-2.877,2.293-7.361,3.172c-4.239.827-18.062,4.4-18.062,4.4s.183.752-.95,1.076-2.589.668-3.943,1.109-1.669-.484-1.669-.484-2.894.721-7.359,1.971c-3.436.963-5.786-.085-8.559-2,.94,4.066,1.617,7.882,2.383,11.393.291,1.34-.385,3.314,1.471,4.343s.47,3.252,1.448,4.677c-23.721,7.675-24.342,14.739-28.557,21.817-6.632-3.389-13.588-28.839-19.975-50.281C20.1,59.4,19.724,51.647,23.7,47.341c6.33-6.858,8.917-7.184,12.855-8C46.391,37.3,52.009,40.9,52.5,41.188a14.069,14.069,0,0,1,4.009,3.384c4.023,5.9,6.607,10.259,8.972,12.44s.983,3.4,2.663,3.29l14.2-.894a2.27,2.27,0,0,1,1.349-.826l3.721-.124a1.386,1.386,0,0,1,1.3.514l17.531-2.022,2.5-2.771,4.958-5.471Z" style="fill:none;stroke:#000001;stroke-linecap:round;stroke-linejoin:round;stroke-width:1.5px"/><path d="M93.842,113.333s-.428-.971-.907-2.171q-.173-.432-.331-.774" style="fill:none;stroke:#000001;stroke-linecap:round;stroke-linejoin:round;stroke-width:1.5px"/><path d="M125.77,154.733a3.046,3.046,0,0,0,2.266-.229" style="fill:none;stroke:#000001;stroke-linecap:round;stroke-linejoin:round;stroke-width:1.5px"/><path d="M129.068,140.034a7.939,7.939,0,0,1-.559,1.009" style="fill:none;stroke:#000001;stroke-linecap:round;stroke-linejoin:round;stroke-width:1.5px"/><path d="M122.155,147.089a10.139,10.139,0,0,0,2.476-1.532" style="fill:none;stroke:#000001;stroke-linecap:round;stroke-linejoin:round;stroke-width:1.5px"/><path d="M140.25,131.377a7.812,7.812,0,0,1-.62.955" style="fill:none;stroke:#000001;stroke-linecap:round;stroke-linejoin:round;stroke-width:1.5px"/><path d="M133,138.68a9.637,9.637,0,0,0,2.975-2.158" style="fill:none;stroke:#000001;stroke-linecap:round;stroke-linejoin:round;stroke-width:1.5px"/><path d="M47.566,29.288c.39,2.284-.163,2.217.263,4.88.551,3.443-2.127,2.737-3.849,2.917.037,3.873,2.049,11.652.46,15.482-5.287-1.786-13.526-7.919-13.526-10.834,0-4.074-.033-7.256-1.6-11.007a23.73,23.73,0,0,1-1.1-3.36,2.524,2.524,0,0,1-.9-2.031,1.919,1.919,0,0,0,.061-.395c0-.408-.4-.672-.705-.94s-.55-.761-.254-1.043c.075-.07.174-.108.254-.179.287-.249.16-.737-.1-1.015s-.629-.432-.888-.714-.348-.785-.042-1.011a3.867,3.867,0,0,1,.376-.174.907.907,0,0,0,.272-1.09c-.131-.381-.4-.705-.559-1.076a1.009,1.009,0,0,1,.118-1.133c.338-.315.916-.188,1.287-.465.456-.339.353-1.034.184-1.575s-.32-1.217.094-1.6c.587-.56,1.6.108,2.354-.2a1.736,1.736,0,0,0,.856-1.25,3.153,3.153,0,0,1,.583-1.438c.554-.593,2.161-.112,2.409.328a.808.808,0,0,0,.154.236.4.4,0,0,0,.227.087.716.716,0,0,0,.7-.393,9.434,9.434,0,0,0,.562-.855A1.593,1.593,0,0,1,36.4,8.448c.512-.108,1.911.061,2.082.437a3.975,3.975,0,0,0,.383.86c.228.249.5-.018.731-.253a2.752,2.752,0,0,1,2.186-.062c.437.381.352,1.161.827,1.49.334.235.789.127,1.2.179a1.583,1.583,0,0,1,1.274,1.941,1.09,1.09,0,0,0-.094.484c.042.268.329.409.555.559A1.422,1.422,0,0,1,46.16,15.8a4.513,4.513,0,0,1-.352.489l.014.042c1.546,4.23,1.748,5.414,1.495,6.707a2.8,2.8,0,0,0,.719,3.013C49.385,27.737,49.258,28.418,47.566,29.288Z" style="fill:none;stroke:#000001;stroke-linecap:round;stroke-linejoin:round;stroke-width:1.5px"/><path d="M42.044,16.435a12.427,12.427,0,0,0-5.822,1.29l.667,1.522-2.66,1.174.7,5.158h-1.72c-.132-.336-1.2-4.117-3.122-2.441-.877.763-1.128,2.946-.343,4.58,1.086,2.261,1.492,2.9,3.212,2.861" style="fill:none;stroke:#000001;stroke-linecap:round;stroke-linejoin:round;stroke-width:1.5px"/><path d="M31.555,30.33s-.321.932-.589,2.1c0,0-.921.3-1.094-.2" style="fill:none;stroke:#000001;stroke-linecap:round;stroke-linejoin:round;stroke-width:1.5px"/><path d="M46.55,31.238a12.072,12.072,0,0,1-4.411.138" style="fill:none;stroke:#000001;stroke-linecap:round;stroke-linejoin:round;stroke-width:1.5px"/><path d="M45.036,28.5c-.031.833.677.8,1.206.572a7.026,7.026,0,0,1,1.35-.627" style="fill:none;stroke:#000001;stroke-linecap:round;stroke-linejoin:round;stroke-width:1.5px"/><path d="M44.394,46.987a5.511,5.511,0,0,1,.646.873,20.144,20.144,0,0,1,1.224,2.752,27.049,27.049,0,0,0-2.2-11.958,18.027,18.027,0,0,1-.773,7.946s-12.425-4.063-12.425-8.178l-.044-.892a15.79,15.79,0,0,0-.991,4.82c0,5.449,11.526,10.405,11.526,10.405a34.941,34.941,0,0,0,1.42-4.613" style="fill:none;stroke:#000001;stroke-linecap:round;stroke-linejoin:round;stroke-width:1.5px"/><path d="M43.982,37.083c-4.816-.259-8.714-.1-9.3-3.606" style="fill:none;stroke:#000001;stroke-linecap:round;stroke-linejoin:round;stroke-width:1.5px"/><path d="M47.609,25.466c-.749-.894-1.335-1.4-1.14-2.418" style="fill:none;stroke:#000001;stroke-linecap:round;stroke-linejoin:round;stroke-width:1.5px"/><path d="M153.226,138.088a61.088,61.088,0,0,0-7.158,4.4l.564.809c-4.14,3.67-9.376,4.6-9.874,3.943a8.251,8.251,0,0,1-.715-1.26,1.178,1.178,0,0,1-.075-.883c-1.631-2.007-2.289-4.724-2.966-6.421a1.316,1.316,0,0,1-1.4-.385c-.969-1.166-.837-2.035-2.181-2.928s-2.12-2.712-3.253-3.52c-2.307-1.659-14.649-16.714-19.42-23.665,0,0-18.668,2.833-35.776,4.93S51.65,102.476,51.65,102.476l-1.072-6.293q7.9-1.467,15.971-2.515,1.614-.21,3.229-.4c14.485-1.725,24.929-1.889,38.469-1.791a8.118,8.118,0,0,1,6.919,3.981l2.759,4.672,18.09,23.937c.649.851,2.044.94,2.425,3.2s1.758,1.124,2.143,2.835a2.289,2.289,0,0,1-.333,1.269c.648.441,1.367.46,3,.564,4.6.291,3.036.366,6.952-1.232,2.194-.9,5.4-2.528,7.919-.46C159.745,130.822,162.443,132.97,153.226,138.088Z" style="fill:#fff;stroke:#000001;stroke-linecap:round;stroke-linejoin:round;stroke-width:0.5px"/><path d="M135.969,145.1c1.216.675,4.353-1.261,4.353-1.261" style="fill:#fff;stroke:#000001;stroke-linecap:round;stroke-linejoin:round;stroke-width:0.5px"/><path d="M143.027,147.728a61.106,61.106,0,0,0-7.16,4.39l.57.82c-4.14,3.66-9.38,4.59-9.88,3.94a7.609,7.609,0,0,1-.71-1.26,1.207,1.207,0,0,1-.08-.89c-2.04-2.51-2.56-6.14-3.5-7.47a1.629,1.629,0,0,1-.11-.17c-.9.4-1.68.44-2.2-.07-1.92-1.88-1.12-3.07-3.27-4.56s-2.68-3.74-3.62-5.03c-5.13-7-14.41-13.35-19.23-24.09,0,0-.83.75-3.03.43-2.87-.42-3.12.42-12.12,1.51-.87-.23-1.69-.45-2.39-.64-3.7-.98-6.82-.93-11.92-.52s-15.29,1.98-18.1,2.35a7.756,7.756,0,0,0-.91.17,15.35,15.35,0,0,1-7.53-10.29l-.99-6.45,28.21-2.34c2.19-1.3,1.99-.29,4.05-.27l30.08-.49a8.1,8.1,0,0,1,7,4.17l2.36,4.24,15.49,24.87c.68,1.09,2.3,2.35,2.82,4.52s1.77,2.51,2.52,4.05c.13.27.01.76-.31,1.39,1.15,1.42,1.57,1.38,3.98,1.54,4.6.29,3.04.36,6.95-1.23,2.2-.91,5.4-2.53,7.92-.46C149.547,140.458,152.247,142.608,143.027,147.728Z" style="fill:#fff;stroke:#000001;stroke-linecap:round;stroke-linejoin:round;stroke-width:0.5px"/><path d="M115.424,48.708l-.479,10.566s-1.467,1.7-2.58,2.717-2.877,2.293-7.361,3.172c-4.239.827-18.062,4.4-18.062,4.4s.183.752-.95,1.076-2.589.668-3.943,1.109-1.669-.484-1.669-.484-2.894.721-7.359,1.971c-3.436.963-5.786-.085-8.559-2,.94,4.066,1.617,7.882,2.383,11.393.291,1.34-.385,3.314,1.471,4.343s.47,3.252,1.448,4.677c-23.721,7.675-24.342,14.739-28.557,21.817-6.632-3.389-13.588-28.839-19.975-50.281C20.1,59.4,19.724,51.647,23.7,47.341c6.33-6.858,8.917-7.184,12.855-8C46.391,37.3,52.009,40.9,52.5,41.188a14.069,14.069,0,0,1,4.009,3.384c4.023,5.9,6.607,10.259,8.972,12.44s.983,3.4,2.663,3.29l14.2-.894a2.27,2.27,0,0,1,1.349-.826l3.721-.124a1.386,1.386,0,0,1,1.3.514l17.531-2.022,2.5-2.771,4.958-5.471Z" style="fill:#fff;stroke:#000001;stroke-linecap:round;stroke-linejoin:round;stroke-width:0.5px"/><path d="M93.842,113.333s-.428-.971-.907-2.171q-.173-.432-.331-.774" style="fill:#fff;stroke:#000001;stroke-linecap:round;stroke-linejoin:round;stroke-width:0.5px"/><path d="M125.77,154.733a3.046,3.046,0,0,0,2.266-.229" style="fill:#fff;stroke:#000001;stroke-linecap:round;stroke-linejoin:round;stroke-width:0.5px"/><path d="M129.068,140.034a7.939,7.939,0,0,1-.559,1.009" style="fill:none;stroke:#000001;stroke-linecap:round;stroke-linejoin:round;stroke-width:0.5px"/><path d="M122.155,147.089a10.139,10.139,0,0,0,2.476-1.532" style="fill:none;stroke:#000001;stroke-linecap:round;stroke-linejoin:round;stroke-width:0.5px"/><path d="M140.25,131.377a7.812,7.812,0,0,1-.62.955" style="fill:none;stroke:#000001;stroke-linecap:round;stroke-linejoin:round;stroke-width:0.5px"/><path d="M133,138.68a9.637,9.637,0,0,0,2.975-2.158" style="fill:none;stroke:#000001;stroke-linecap:round;stroke-linejoin:round;stroke-width:0.5px"/><path d="M47.566,29.288c.39,2.284-.163,2.217.263,4.88.551,3.443-2.127,2.737-3.849,2.917.037,3.873,2.049,11.652.46,15.482-5.287-1.786-13.526-7.919-13.526-10.834,0-4.074-.033-7.256-1.6-11.007a23.73,23.73,0,0,1-1.1-3.36,2.524,2.524,0,0,1-.9-2.031,1.919,1.919,0,0,0,.061-.395c0-.408-.4-.672-.705-.94s-.55-.761-.254-1.043c.075-.07.174-.108.254-.179.287-.249.16-.737-.1-1.015s-.629-.432-.888-.714-.348-.785-.042-1.011a3.867,3.867,0,0,1,.376-.174.907.907,0,0,0,.272-1.09c-.131-.381-.4-.705-.559-1.076a1.009,1.009,0,0,1,.118-1.133c.338-.315.916-.188,1.287-.465.456-.339.353-1.034.184-1.575s-.32-1.217.094-1.6c.587-.56,1.6.108,2.354-.2a1.736,1.736,0,0,0,.856-1.25,3.153,3.153,0,0,1,.583-1.438c.554-.593,2.161-.112,2.409.328a.808.808,0,0,0,.154.236.4.4,0,0,0,.227.087.716.716,0,0,0,.7-.393,9.434,9.434,0,0,0,.562-.855A1.593,1.593,0,0,1,36.4,8.448c.512-.108,1.911.061,2.082.437a3.975,3.975,0,0,0,.383.86c.228.249.5-.018.731-.253a2.752,2.752,0,0,1,2.186-.062c.437.381.352,1.161.827,1.49.334.235.789.127,1.2.179a1.583,1.583,0,0,1,1.274,1.941,1.09,1.09,0,0,0-.094.484c.042.268.329.409.555.559A1.422,1.422,0,0,1,46.16,15.8a4.513,4.513,0,0,1-.352.489l.014.042c1.546,4.23,1.748,5.414,1.495,6.707a2.8,2.8,0,0,0,.719,3.013C49.385,27.737,49.258,28.418,47.566,29.288Z" style="fill:#fff;stroke:#000001;stroke-linecap:round;stroke-linejoin:round;stroke-width:0.5px"/><path d="M42.044,16.435a12.427,12.427,0,0,0-5.822,1.29l.667,1.522-2.66,1.174.7,5.158h-1.72c-.132-.336-1.2-4.117-3.122-2.441-.877.763-1.128,2.946-.343,4.58,1.086,2.261,1.492,2.9,3.212,2.861" style="fill:none;stroke:#000001;stroke-linecap:round;stroke-linejoin:round;stroke-width:0.5px"/><path d="M31.555,30.33s-.321.932-.589,2.1c0,0-.921.3-1.094-.2" style="fill:none;stroke:#000001;stroke-linecap:round;stroke-linejoin:round;stroke-width:0.5px"/><path d="M46.55,31.238a12.072,12.072,0,0,1-4.411.138" style="fill:none;stroke:#000001;stroke-linecap:round;stroke-linejoin:round;stroke-width:0.5px"/><path d="M45.036,28.5c-.031.833.677.8,1.206.572a7.026,7.026,0,0,1,1.35-.627" style="fill:none;stroke:#000001;stroke-linecap:round;stroke-linejoin:round;stroke-width:0.5px"/><path d="M44.394,46.987a5.511,5.511,0,0,1,.646.873,20.144,20.144,0,0,1,1.224,2.752,27.049,27.049,0,0,0-2.2-11.958,18.027,18.027,0,0,1-.773,7.946s-12.425-4.063-12.425-8.178l-.044-.892a15.79,15.79,0,0,0-.991,4.82c0,5.449,11.526,10.405,11.526,10.405a34.941,34.941,0,0,0,1.42-4.613" style="fill:#fff;stroke:#000001;stroke-linecap:round;stroke-linejoin:round;stroke-width:0.5px"/><path d="M43.982,37.083c-4.816-.259-8.714-.1-9.3-3.606" style="fill:none;stroke:#000001;stroke-linecap:round;stroke-linejoin:round;stroke-width:0.5px"/><path d="M47.609,25.466c-.749-.894-1.335-1.4-1.14-2.418" style="fill:none;stroke:#000001;stroke-linecap:round;stroke-linejoin:round;stroke-width:0.5px"/><path d="M64.462,71.235c-2.979-8.849-.9-10.814-6.411-19.979l.139-.9" style="fill:none;stroke:#000001;stroke-linecap:round;stroke-linejoin:round;stroke-width:0.5px"/><path d="M109.277,55.652l1.193-2.03s1.522-.609,1.647-3.129a1.188,1.188,0,0,0-1.469-1.387l-1.027,1.92L107.3,53.013c-1.453,1.477-2.749,2.819-2.818,5.14" style="fill:#fff;stroke:#000001;stroke-linecap:round;stroke-linejoin:round;stroke-width:0.75px"/><path d="M88.714,58.97c-1.983.434-3.823,10.859-2.752,10.66l1.736-.322" style="fill:none;stroke:#000001;stroke-linecap:round;stroke-linejoin:round;stroke-width:0.5px"/><path d="M82.41,59.343c-1.431,1.935-3.7,9.489-2.028,11.921" style="fill:none;stroke:#000001;stroke-linecap:round;stroke-linejoin:round;stroke-width:0.5px"/><path d="M55.642,32.013c0,.258-.3.415-.559.452l-4.487.65a.663.663,0,0,1-.552-.175" style="fill:#d3d5d6;stroke:#000001;stroke-linecap:round;stroke-linejoin:round"/><path d="M118.427,51.587a.868.868,0,0,0,.093-.631l-.271-1.172a.874.874,0,0,0-.588-.636l-1.35-.428.088,2.155" style="fill:#fff;stroke:#000001;stroke-linecap:round;stroke-linejoin:round;stroke-width:0.5px"/><path d="M86.906,117.7s-6.92-1.821-10.613-2.809-6.815-.937-11.914-.521-15.3,1.977-18.1,2.341a6.653,6.653,0,0,0-4.172,2.06c-1.509,1.357-1.647,2.239-1.36,3.054" style="fill:none;stroke:#a7abae;stroke-linecap:round;stroke-linejoin:round"/><polyline points="33.651 127.155 38.518 116.666 40.241 117.724 35.714 127.401" style="fill:none;stroke:#000001;stroke-linejoin:round;stroke-width:1.5px"/><path d="M41.423,107.548a.879.879,0,0,1,.642.144l3.5,2.416a.881.881,0,0,1,.33,1.017,38.979,38.979,0,0,1-1.615,3.782,16.252,16.252,0,0,1-2.2,3.52.877.877,0,0,1-1.136.172l-3.566-2.242a.879.879,0,0,1-.38-.976c.173-.634.533-1.8,1.267-3.751,1.266-3.366,1.655-3.579,2.313-3.847A3.953,3.953,0,0,1,41.423,107.548Z" style="fill:none;stroke:#000001;stroke-linejoin:round;stroke-width:1.5px"/><path d="M40.825,109.74c.448.352,2.178,1.46,2.7,1.812s1.323-.083,1.735-.273l-4.447-3.1C40.185,108.753,39.794,108.93,40.825,109.74Z" style="fill:none;stroke:#000001;stroke-linejoin:round;stroke-width:1.5px"/><polyline points="33.651 127.155 38.518 116.666 40.241 117.724 35.714 127.401" style="fill:#d3d5d6;stroke:#000001;stroke-linecap:round;stroke-linejoin:round;stroke-width:0.5px"/><path d="M41.423,107.548a.879.879,0,0,1,.642.144l3.5,2.416a.881.881,0,0,1,.33,1.017,38.979,38.979,0,0,1-1.615,3.782,16.252,16.252,0,0,1-2.2,3.52.877.877,0,0,1-1.136.172l-3.566-2.242a.879.879,0,0,1-.38-.976c.173-.634.533-1.8,1.267-3.751,1.266-3.366,1.655-3.579,2.313-3.847A3.953,3.953,0,0,1,41.423,107.548Z" style="fill:#d3d5d6;stroke:#000001;stroke-linecap:round;stroke-linejoin:round;stroke-width:0.5px"/><path d="M40.825,109.74c.448.352,2.178,1.46,2.7,1.812s1.323-.083,1.735-.273l-4.447-3.1C40.185,108.753,39.794,108.93,40.825,109.74Z" style="fill:#fff;stroke:#000001;stroke-linecap:round;stroke-linejoin:round;stroke-width:0.5px"/><path d="M46.547,108.36c5.4-6.3,21.325-15.43,25.49-15.584l-2.331-2.321c-2.957-3.4-21.371,7.506-27.461,14.929" style="fill:#d3d5d6;stroke:#000001;stroke-linecap:round;stroke-linejoin:round"/><path d="M41.908,103.923a.354.354,0,0,0-.344-.041,4.166,4.166,0,0,0-.793.543,4.111,4.111,0,0,0-.516,1.2c-.43,1.2-.14,1.661.182,1.945.1.088.549.417,1.142.841.107.076.186-.016.3.069.7.5,1.519,1.074,2.2,1.553.1.067.14.246.227.307.5.352.9.625,1.056.727a1.317,1.317,0,0,0,1.7-.551c.274-.49.454-.89.584-1.145.066-.13.2-.406.312-.645a.55.55,0,0,0-.152-.672Z" style="fill:none;stroke:#000001;stroke-width:1.5px"/><path d="M50.508,33.4c.013.108.026.217.04.325,1.083,8.747,3.5,24.826-8.856,71.273l4.855,3.348c12.5-43.964,10.125-68.333,7.945-75.25-.027-.087-.056-.174-.085-.26Z" style="fill:none;stroke:#000001;stroke-width:1.5px"/><path d="M41.908,103.923a.354.354,0,0,0-.344-.041,4.166,4.166,0,0,0-.793.543,4.111,4.111,0,0,0-.516,1.2c-.43,1.2-.14,1.661.182,1.945.1.088.549.417,1.142.841.107.076.186-.016.3.069.7.5,1.519,1.074,2.2,1.553.1.067.14.246.227.307.5.352.9.625,1.056.727a1.317,1.317,0,0,0,1.7-.551c.274-.49.454-.89.584-1.145.066-.13.2-.406.312-.645a.55.55,0,0,0-.152-.672Z" style="fill:#d3d5d6;stroke:#000001;stroke-linecap:round;stroke-linejoin:round;stroke-width:0.5px"/><path d="M50.508,33.4c.013.108.026.217.04.325,1.083,8.747,3.5,24.826-8.856,71.273l4.855,3.348c12.5-43.964,10.125-68.333,7.945-75.25-.027-.087-.056-.174-.085-.26Z" style="fill:#d3d5d6;stroke:#000001;stroke-linecap:round;stroke-linejoin:round;stroke-width:0.5px"/><path d="M16.261,113.185c1.647-2.19,4.858-5.277,14.405,4.321a1.08,1.08,0,0,1,.295.966l-1.4,7.226a.435.435,0,0,0,.319.5l11.446,2.9" style="fill:none;stroke:#a7abae;stroke-linecap:round;stroke-linejoin:round;stroke-width:0.5px"/><path d="M116.06,56.615c-1.693.6-1.972,1.241-1.6,2.031a.52.52,0,0,0,.641.27l1.666-.574a1.139,1.139,0,0,0,.7-.682l.267-.718a1.144,1.144,0,0,0-.04-.889l-.439-.918Z" style="fill:#fff;stroke:#000001;stroke-linecap:round;stroke-linejoin:round;stroke-width:0.5px"/><path d="M116.417,55.092c-1.741,1.161-1.833,1.951-1.149,2.737a.519.519,0,0,0,.678.094l1.787-1.165a1.142,1.142,0,0,0,.511-.831l.11-1a1.141,1.141,0,0,0-.255-.853l-.778-.939Z" style="fill:#fff;stroke:#000001;stroke-linecap:round;stroke-linejoin:round;stroke-width:0.5px"/><path d="M116.24,53.636c-1.124,1.258-1,1.972-.247,2.555a.522.522,0,0,0,.683-.042l1.586-1.561a1.14,1.14,0,0,0,.34-.761l.044-.945a1.142,1.142,0,0,0-.422-.94" style="fill:#fff;stroke:#000001;stroke-linecap:round;stroke-linejoin:round;stroke-width:0.5px"/><path d="M116.4,50.875c-1.021,1.826-.744,2.571.224,2.96a.52.52,0,0,0,.646-.225l1.158-2.023a.868.868,0,0,0,.093-.631l-.271-1.172" style="fill:#fff;stroke:#000001;stroke-linecap:round;stroke-linejoin:round;stroke-width:0.5px"/><path d="M116.662,48.671l1.083.343a1.1,1.1,0,0,1,.746.813l.272,1.167a1.074,1.074,0,0,1-.121.8l-.109.192a1.393,1.393,0,0,1,.363.994l-.043.946a1.391,1.391,0,0,1-.262.743,1.34,1.34,0,0,1,.013.37l-.113,1a1.354,1.354,0,0,1-.475.9,1.174,1.174,0,0,1-.051.175l-.263.718a1.394,1.394,0,0,1-.844.823l-1.664.574a.785.785,0,0,1-.247.041.759.759,0,0,1-.687-.437,1.249,1.249,0,0,1,.4-1.679,1.714,1.714,0,0,1,.633-1.367,2.043,2.043,0,0,1,.627-2.035c-.747-.725-.2-2.019.48-2.88" style="fill:none;stroke:#000001;stroke-linecap:round;stroke-linejoin:round;stroke-width:0.5px"/><path d="M121.056,63.988l-.663-1.724a.874.874,0,0,1,.006-.644l.56-1.377a.876.876,0,0,1,.867-.543l1.164.077a.872.872,0,0,1,.716.466l1.926,3.668a2.4,2.4,0,0,1,.27.934l.156,2.04" style="fill:#fff;stroke:#a7abae;stroke-linecap:round;stroke-linejoin:round"/><path d="M132.578,72.462s-.31-.165-3.229-1.75c-1.564-.849-2.574-3.813-4.713-4.983-.79-.435-1.646-.888-2.441-1.338a3.023,3.023,0,0,0-1.663-.431.941.941,0,0,0-.5-.755c-.645-.365-3.474-1.98-4.619-2.559-.305-.155-.61-.3-.91-.43a35.808,35.808,0,0,0,1.465-6.113,22.437,22.437,0,0,0,.225-3.059c0-5.2-2.219-7.328-3.7-8.167-1.744-.985-5.543-1.93-11.411,2.809a46.15,46.15,0,0,0-10.456,12.97A46.16,46.16,0,0,0,84.91,74.3c-1.035,7.473,1.734,10.242,3.478,11.226a6.4,6.4,0,0,0,3.189.8,9.1,9.1,0,0,0,3-.545l.015,0,10.227-3.564a1.916,1.916,0,0,0,.915,1.929c.475.31,1.309.86,4.738,3.1s5.443,2.034,10.261,4.9M90.977,82.318a1.156,1.156,0,0,1-.329-.11c-.81-.459-1.45-2.649-.935-6.367.06-.445.233-1.413.228-1.358a3.541,3.541,0,0,1,3.536-.817c.219,2.934,2.659,2.215,2.544,4.6Zm20.863-29.58a33.023,33.023,0,0,1-1.584,6.293,17.665,17.665,0,0,0-8.137,1.24c-2.395.86-4.679,1.784-5.653,2.869-1.13.175-2.58.55-2.694.58.429-.87.894-1.74,1.384-2.609,5.683-10.057,12.356-14.9,15.04-14.9a1.461,1.461,0,0,1,.71.16C111.715,46.83,112.355,49.015,111.84,52.738Z" style="stroke:#a7abae;stroke-linecap:round;stroke-miterlimit:10;fill:url(#linear-gradient)"/><path d="M89.693,74.5a44.692,44.692,0,0,1,4.562-12.312.022.022,0,0,0,.013-.006" style="fill:none;stroke:#a7abae;stroke-linecap:round;stroke-linejoin:round;stroke-width:0.5px"/><path d="M96.463,63.419a24.488,24.488,0,0,1,6.483.457,8.012,8.012,0,0,0,4.4-.415,53.16,53.16,0,0,0,5.034-1.783c1-.457.822-.679-.748-1.288a19.139,19.139,0,0,0-6.092-.831" style="fill:none;stroke:#a7abae;stroke-linecap:round;stroke-linejoin:round;stroke-width:0.5px"/><path d="M107.312,74.806q-.288.777-.572,1.662C105.7,79.709,105,82.327,105,82.327" style="fill:none;stroke:#a7abae;stroke-linecap:round;stroke-linejoin:round;stroke-width:0.5px"/><path d="M120.708,64.073c-.038.008-1.892.6-4.327,1.591-2.937,1.2-5.022,2.2-6.75,4.568" style="fill:none;stroke:#a7abae;stroke-linecap:round;stroke-linejoin:round;stroke-width:0.5px"/><path d="M112.387,73.833a2.1,2.1,0,0,1,1.125.685,2.753,2.753,0,0,1,0,3.525,1.993,1.993,0,0,1-3.083,0,2.73,2.73,0,0,1-.6-2.239" style="fill:none;stroke:#a7abae;stroke-linecap:round;stroke-linejoin:round;stroke-width:0.5px"/><path d="M112.743,75.1l-.68-2.452a2.99,2.99,0,0,0-1.042-1.559l-.478-.373a2.985,2.985,0,0,0-1.319-.588l-8.268-1.464a2.986,2.986,0,0,0-1.4.084l-.305.094a1.032,1.032,0,0,0-.676.65l-.717,2.064a1.036,1.036,0,0,0,.068.833l.408.756a.856.856,0,0,0,.633.44c1.76.246,8.4,1.184,9.587,1.436a2.9,2.9,0,0,1,2.118,1.73" style="fill:none;stroke:#a7abae;stroke-linecap:round;stroke-linejoin:round;stroke-width:0.5px"/><path d="M95.972,74.228c-.742-.292-1.62-.542-2.521-.816" style="fill:none;stroke:#a7abae;stroke-linecap:round;stroke-linejoin:round;stroke-width:0.5px"/><path d="M90.677,82.471a3.978,3.978,0,0,0,3.409-.352" style="fill:none;stroke:#a7abae;stroke-linecap:round;stroke-linejoin:round;stroke-width:0.5px"/><path d="M110.256,59.031a11.777,11.777,0,0,1,4.248,1.185" style="fill:none;stroke:#a7abae;stroke-linecap:round;stroke-linejoin:round"/><path d="M27.763,43.365C16.881,51.237,16.672,58.948,25.32,68.43A153.236,153.236,0,0,0,41.168,82.754c2.71,2.033,4.994,3.184,8.417,2.286,4.373-1.147,9.335-1.98,9.335-1.98s.289.933,1.614.52,2.75-.724,3.862-1.02.948-1.053.948-1.053S76.762,78.43,80.908,77.7c5.847-1.032,5.013-2.533,9.411-3.526,2.4-.543,1.625-1.906,1.178-2.072,1.274-.033,1.825-1.7.33-2.55,1.587.075,2.073-2.091.806-2.312,0,0-.279,0,.746-.124,1.891-.221,1.6-2.16-.766-2.3-1.2-.072-2.813-.143-3.593-.166-2.938-.084-2.6.2-4.225,2.156l-3.1,3.364L67.288,71.179a1.352,1.352,0,0,0-1.213-.629l-3.647-.1a2.144,2.144,0,0,0-1.358.578s-8.888.056-11.808.256c-1.9.13-.062-.984-2.692-2.212s-5.542-5.127-12.428-13.065" style="fill:#fff"/><g id="Offset_Group-2" data-name="Offset Group"><path d="M27.488,42.985a24.439,24.439,0,0,0-7.2,7.437,11.686,11.686,0,0,0-1.532,4.834,12,12,0,0,0,.664,4.884,25.518,25.518,0,0,0,5.559,8.605A153.5,153.5,0,0,0,40.887,83.129a12.408,12.408,0,0,0,4.979,2.546,8.432,8.432,0,0,0,3.838-.182c3.7-.968,7.817-1.714,8.976-1.916a1.378,1.378,0,0,0,.266.27,1.478,1.478,0,0,0,.649.28,2.279,2.279,0,0,0,1.078-.1c.875-.272,1.8-.5,2.653-.713.417-.1.821-.2,1.191-.3a1.772,1.772,0,0,0,1.117-.744,1.23,1.23,0,0,0,.154-.4c1.883-.5,11.493-3.059,15.2-3.713a14.292,14.292,0,0,0,5.731-2.029,10.889,10.889,0,0,1,3.7-1.5,3.109,3.109,0,0,0,1.665-.823,1.359,1.359,0,0,0,.354-.757,1.344,1.344,0,0,0-.111-.7,1.706,1.706,0,0,0,.262-.179,1.673,1.673,0,0,0,.566-.943,1.727,1.727,0,0,0-.122-1.066,1.938,1.938,0,0,0-.216-.364,1.884,1.884,0,0,0,.2-.126,1.935,1.935,0,0,0,.728-1.036,1.63,1.63,0,0,0-.047-1.1A1.931,1.931,0,0,0,94.732,67a1.306,1.306,0,0,0,.315-.562,1.252,1.252,0,0,0,0-.62,1.61,1.61,0,0,0-.555-.84,3.172,3.172,0,0,0-1.852-.637c-1.2-.072-2.822-.143-3.608-.166a6.04,6.04,0,0,0-2.65.265,3.849,3.849,0,0,0-1.322,1.273c-.178.229-.379.488-.611.768L81.478,69.71l-13.97.984a1.8,1.8,0,0,0-.524-.409,1.766,1.766,0,0,0-.9-.2l-3.683-.1a2.609,2.609,0,0,0-1.511.579c-1.255.009-8.967.071-11.663.255a3.229,3.229,0,0,1-.514,0,.875.875,0,0,1-.055-.184,2.28,2.28,0,0,0-.465-.973,3.979,3.979,0,0,0-1.428-1.009c-1.964-.918-4.141-3.449-8.451-8.5-1.122-1.316-2.385-2.8-3.821-4.45" style="fill:none;stroke:#000001;stroke-linecap:round;stroke-linejoin:round;stroke-width:0.5px"/><path d="M27.653,43.213a24.165,24.165,0,0,0-7.125,7.347,11.4,11.4,0,0,0-1.5,4.719,11.712,11.712,0,0,0,.651,4.77,25.242,25.242,0,0,0,5.5,8.507A153.151,153.151,0,0,0,41.056,82.9a12.136,12.136,0,0,0,4.864,2.5,8.156,8.156,0,0,0,3.712-.178c3.933-1.031,8.345-1.809,9.179-1.953a1.19,1.19,0,0,0,.3.356,1.206,1.206,0,0,0,.528.226,2,2,0,0,0,.946-.09c.883-.275,1.812-.506,2.668-.718.418-.1.819-.2,1.186-.3a1.5,1.5,0,0,0,.95-.619,1,1,0,0,0,.143-.473c1.334-.358,11.541-3.085,15.4-3.766a14.018,14.018,0,0,0,5.636-1.994,11.161,11.161,0,0,1,3.784-1.535,2.837,2.837,0,0,0,1.518-.737,1.077,1.077,0,0,0,.284-.6,1.1,1.1,0,0,0-.163-.7,1.251,1.251,0,0,0-.071-.1,1.43,1.43,0,0,0,.484-.264,1.391,1.391,0,0,0,.471-.784,1.442,1.442,0,0,0-.1-.893,1.775,1.775,0,0,0-.443-.591,1.572,1.572,0,0,0,.521-.244,1.66,1.66,0,0,0,.621-.885,1.35,1.35,0,0,0-.045-.933.982.982,0,0,0-.215-.3L93.4,67.3a1.792,1.792,0,0,0,1.126-.491,1.017,1.017,0,0,0,.248-.44.967.967,0,0,0,0-.481,1.33,1.33,0,0,0-.461-.691,2.894,2.894,0,0,0-1.69-.573c-1.2-.072-2.816-.143-3.6-.166A5.826,5.826,0,0,0,86.5,64.7a3.6,3.6,0,0,0-1.22,1.191c-.178.229-.381.491-.626.787l-3.048,3.309-14.227,1a1.543,1.543,0,0,0-.528-.45,1.518,1.518,0,0,0-.774-.171l-3.662-.1A2.331,2.331,0,0,0,61,70.845c-.848.006-8.974.066-11.748.256-.462.032-.639-.019-.717-.075s-.093-.122-.144-.324a2,2,0,0,0-.409-.863,3.711,3.711,0,0,0-1.33-.933c-2.035-.951-4.261-3.551-8.546-8.57-1.122-1.315-2.385-2.794-3.819-4.448" style="fill:none;stroke:#000001;stroke-linecap:round;stroke-linejoin:round;stroke-width:0.5px"/></g><path d="M27.763,43.365C16.881,51.237,16.672,58.948,25.32,68.43A153.236,153.236,0,0,0,41.168,82.754c2.71,2.033,4.994,3.184,8.417,2.286,4.373-1.147,9.335-1.98,9.335-1.98s.289.933,1.614.52,2.75-.724,3.862-1.02.948-1.053.948-1.053S76.762,78.43,80.908,77.7c5.847-1.032,5.013-2.533,9.411-3.526,2.4-.543,1.625-1.906,1.178-2.072,1.274-.033,1.825-1.7.33-2.55,1.587.075,2.073-2.091.806-2.312,0,0-.279,0,.746-.124,1.891-.221,1.6-2.16-.766-2.3-1.2-.072-2.813-.143-3.593-.166-2.938-.084-2.6.2-4.225,2.156l-3.1,3.364L67.288,71.179a1.352,1.352,0,0,0-1.213-.629l-3.647-.1a2.144,2.144,0,0,0-1.358.578s-8.888.056-11.808.256c-1.9.13-.062-.984-2.692-2.212s-5.542-5.127-12.428-13.065" style="fill:none;stroke:#000001;stroke-linecap:round;stroke-linejoin:round;stroke-width:0.5px"/><path d="M67.288,71.179c-1.962.25-3.945,10.548-2.9,10.374l1.7-.283" style="fill:none;stroke:#000001;stroke-linecap:round;stroke-linejoin:round;stroke-width:0.5px"/><path d="M61.14,70.972c-1.561,1.8-3.791,9.618-2.22,12.088" style="fill:none;stroke:#000001;stroke-linecap:round;stroke-linejoin:round;stroke-width:0.5px"/><path d="M49.262,71.288a5.063,5.063,0,0,0-2.618,1.017" style="fill:none;stroke:#000001;stroke-linecap:round;stroke-linejoin:round;stroke-width:0.5px"/><polyline points="88.255 66.342 88.863 67.126 92.633 67.238" style="fill:#fff;stroke:#000001;stroke-linecap:round;stroke-linejoin:round;stroke-width:0.5px"/><polyline points="91.827 69.55 88.64 69.754 88.037 69.248" style="fill:#fff;stroke:#000001;stroke-linecap:round;stroke-linejoin:round;stroke-width:0.5px"/><polyline points="91.497 72.1 88.944 72.471 88.745 73.051" style="fill:#fff;stroke:#000001;stroke-linecap:round;stroke-linejoin:round;stroke-width:0.5px"/><line x1="80.791" y1="71.114" x2="81.697" y2="70.165" style="fill:none;stroke:#000001;stroke-linecap:round;stroke-linejoin:round;stroke-width:0.5px"/></g></svg>