<?xml version="1.0" encoding="UTF-8"?><svg xmlns="http://www.w3.org/2000/svg" width="487.497" height="367.897" viewBox="0 0 487.497 367.897"><g id="uuid-06afc566-584b-41c4-80be-acd6693fec30"><path d="m122.269,210.831c1.817-6.358,2.871-11.707,3.202-13.481.072-.389.254-.744.527-1.03.569-.594,1.552-1.773,1.822-3.065.385-1.85.694-5.473.848-8.172s.154-3.469-2.236-5.936c-1.31-1.352-1.941-2.138-1.771-2.948,1.424-6.778,6.019-18.428,7.688-22.549.372-.918.188-1.971-.473-2.708l-1.429-1.592" style="fill:none; stroke:#a7abae; stroke-linecap:round; stroke-linejoin:round; stroke-width:.5px;"/><path d="m136.341,131.144c-2.206,4.93-3.817,10.241-5.894,18.206-18.355,11.3-36.676,23.212-59.299,40.915,0,0,11.293-12.854,22.089-25.913,6.416-7.76,12.898-13.874,23.39-20.595,4.935-3.161,12.375-7.921,19.714-12.614Z" style="fill:none; stroke:#a7abae; stroke-linecap:round; stroke-linejoin:round;"/><path d="m197.686,148.196c-3.407,2.305-18.601,11.37-18.601,11.37" style="fill:none; stroke:#a7abae; stroke-linecap:round; stroke-linejoin:round; stroke-width:.5px;"/><path d="m206.634,100.549c-17.235,10.307-31.803,19.427-52.481,33.038" style="fill:none; stroke:#a7abae; stroke-linecap:round; stroke-linejoin:round; stroke-width:.5px;"/><path d="m206.634,100.549c2.207,3.436,2.053,3.436,1.05,6.828s-4.702,14.262-5.319,16.112c-.617,1.85-.813,2.578.848,4.24,2.004,2.004,2.159,3.7,1.156,6.63s-3.392,8.788-4.317,10.87c-.756,1.702-1.461,2.424-2.367,2.968-.417.25-.729.641-.881,1.103-.386,1.174-1.231,3.605-2.501,6.534" style="fill:none; stroke:#a7abae; stroke-linecap:round; stroke-linejoin:round; stroke-width:.5px;"/><path d="m212.679,83.048c-1.745,5.924-3.736,11.767-5.808,17.582-.048.13-.192.196-.321.148-.126-.047-.192-.184-.151-.311,1.958-5.855,3.998-11.68,6.281-17.419h0Z" style="fill:#a7abae; stroke-width:0px;"/><path d="m137.988,256.62c-1.572-.469-3.795-1.346-3.795-1.346" style="fill:none; stroke:#a7abae; stroke-linecap:round; stroke-linejoin:round; stroke-width:.5px;"/><path d="m150.988,143.264c1.197-6.232,3.539-12.112,5.557-18.09l1.568-4.459c.892-3.162,3.345-5.74,6.159-7.345,9.697-6.429,25.829-16.914,35.629-23.241.462-.325,1.056.34.644.757-5.899,6.165-13.502,15.252-20.051,20.584-3.665,2.986-7.729,5.821-11.714,8.357,0,0-12.092,7.74-12.092,7.74-.233.149-.542.081-.691-.152-.149-.233-.081-.542.152-.691l12.076-7.73c3.954-2.515,8.006-5.342,11.632-8.296,6.441-5.235,14.159-14.429,19.959-20.497-.006.004.659.764.632.765,0,0-15.75,10.459-15.75,10.459l-15.803,10.378c-2.173,1.545-5.804,3.39-7.54,5.379-1.879,1.944-2.792,5.892-3.789,8.363-1.915,5.193-4.259,12.745-6.578,17.72h0Z" style="fill:#a7abae; stroke-width:0px;"/><path d="m191.813,330.301c33.294-22.41,76.083-49.488,109.82-71.608,5.174-3.604,13.51-7.909,17.532-12.789,2.462-2.694,3.471-6.328,4.465-9.755,1.08-3.477,2.159-6.955,3.417-10.379-.87,3.541-1.919,7.03-2.968,10.518-1.008,3.48-2.051,7.186-4.55,9.921-4.078,4.951-12.393,9.242-17.632,12.892-33.979,21.853-76.01,49.863-110.085,71.2h0Z" style="fill:#a7abae; stroke-width:0px;"/><path d="m219.74,204.65c5.258,3.414,48.707,31.644,50.421,32.756,2.844,1.847,3.966,2.712,9.748,2.712,6.023,0,7.787-.569,11.872-3.029,4.085-2.46,29.264-18.42,29.264-18.42" style="fill:none; stroke:#a7abae; stroke-linecap:round; stroke-linejoin:round; stroke-width:.5px;"/><path d="m183.256,180.286c1.083,1.186,2.896,2.564,6.136,4.668,2.036,1.322,24.182,15.704,28.207,18.318.415.27.945.295,1.384.067" style="fill:none; stroke:#a7abae; stroke-linecap:round; stroke-linejoin:round; stroke-width:.5px;"/><path d="m325.511,146.526c-.886.755-2.63,2.213-3.895,3.092-1.765,1.226-2.554,1.331-4.755-.098s-7.138-4.635-9.625-6.25c-2.487-1.615-4.151-4.78-3.808-7.918.189-1.729.646-4.201,1.018-6.073" style="fill:none; stroke:#a7abae; stroke-linecap:round; stroke-linejoin:round; stroke-width:.5px;"/><path d="m261.748,105.118c-.886.755-2.63,2.213-3.895,3.092-1.765,1.226-2.554,1.331-4.755-.098s-7.138-4.635-9.625-6.25-4.151-4.78-3.808-7.918c.176-1.605.582-3.851.937-5.662" style="fill:none; stroke:#a7abae; stroke-linecap:round; stroke-linejoin:round; stroke-width:.5px;"/><path d="m322.374,214.488c-.52,1.792-1.936,2.304-4.248,1.437s-4.857-3.238-5.955-4.105-1.445-1.619-1.445-1.619c0,0-.654-.267-2.024-1.156-1.37-.89-19.716-12.804-20.861-13.547-.812-.528-1.235-1.026-1.411-1.27-.816.054-2.594-.706-6.637-2.644-4.664-2.236-5.204-3.43-5.204-3.43,0,0-.615.035-1.619-.617s-14.49-9.41-15.342-9.963-1.28-1.282-1.28-1.282c0,0-.838.049-2.139-.838s-5.926-4.741-7.025-6.967c-.665-.087-1.224-.408-2.689-1.359-1.465-.951-19.206-12.472-20.087-13.045s-1.45-1.525-1.45-1.525c0,0-.752.231-2.313-.636s-4.278-2.486-5.782-3.469c-.092-.06-.18-.118-.265-.175" style="fill:none; stroke:#a7abae; stroke-linecap:round; stroke-linejoin:round; stroke-width:.5px;"/><g id="uuid-02ca2852-11d3-41ba-9ee8-3f1746c3d2bf"><path d="m305.028,126.287c.453-.665,1.037-1.241,1.725-1.688.772-.501,1.737-1.027,2.856-1.435.454-.165.933-.233,1.406-.203s.94.155,1.371.375c2.27,1.16,7.664,4.081,11.413,7.459.599.54,1.037,1.239,1.258,2.016.593,2.087,1.806,7.054,1.588,12.179.31-.213.667-.33,1.029-.348.414-.022.836.085,1.2.324,3.812,2.489,6.256,5.143,7.497,7.779.82,1.742,1.113,3.473.927,5.129-.358,3.178-.868,7.466-1.159,9.441-.248,1.687-.899,2.675-1.138,2.99l-.401,1.454c.398,1.665.327,2.907-.363,6.206-.341,1.628-.686,3.021-1.118,4.378l-10.268,32.296-2.027,6.375c-.035.109-.105.203-.201.266l-1.374.909s-23.184,15.333-26.614,17.607c-4.502,2.984-6.21,3.899-12.726,3.899-5.688,0-7.02-.84-9.731-2.605-.094-.062-.191-.124-.289-.188-1.713-1.113-44.211-28.711-49.469-32.126-.23-.149-.422-.346-.565-.572s-.237-.484-.273-.755l-.009-.068c-.223.075-.456.106-.686.095-.326-.016-.649-.116-.932-.3-4.024-2.614-24.8-16.105-26.836-17.428-7.057-4.583-7.509-5.829-8.268-9.17-.21-.296-.847-1.261-1.138-2.443-.215-.871-.431-1.92-.779-4.008-.031-.185-.063-.371-.096-.56-.338-1.938-.716-4.106.264-7.412.573-1.933,1.307-3.489,2.363-4.77.903-1.096,2.026-1.971,3.446-2.711,2.999-1.564,6.549-3.132,12.71-5.472,3.739-1.42,9.782-3.598,13.952-5.09-.236-.223-.446-.483-.622-.812-.493-.926-.668-2.334-.668-4.919,0-4.709.918-9.843,4.543-19.259.231-.601.451-1.173.661-1.718,4.193-10.911,4.252-11.072,8.673-13.916-.151-.196-.29-.44-.385-.76-.242-.812-.175-2.019.425-4.018.879-2.93,1.839-5.475,2.625-7.558.151-.399.295-.781.431-1.146.902-2.419,1.184-2.664,4.36-4.716,1.12-.723,2.45-1.262,3.816-1.511.92-.168,1.864-.206,2.776-.075.042-.209.082-.409.121-.6.163-.804.485-1.559.938-2.224s1.037-1.241,1.725-1.688c.772-.501,1.737-1.027,2.856-1.435.454-.165.933-.233,1.406-.203s.94.155,1.371.375c2.27,1.16,7.664,4.081,11.413,7.459.599.54,1.037,1.239,1.258,2.016.593,2.086,1.805,7.049,1.581,12.178,0,0,.013-.01.021-.017.444-.339.884-.555,1.359-.574.454-.017.857.149,1.239.396.686.446,10.658,6.921,11.526,7.485.457.297.708.627.816.954.137-.007.285-.004.432.018.175.026.375.082.558.201,0,0,15.617,10.142,16.497,10.713.449.292.718.611.876.894.032.057.059.114.082.169.348.022.85.111,1.311.41.067.044.256.166.534.347,1.185.77,3.996,2.599,5.977,3.882.166-.785.484-1.522.927-2.173Z" style="fill:none; stroke:#a7abae; stroke-linecap:round; stroke-linejoin:round; stroke-width:.5px;"/><path d="m304.26,128.733c.046-.094.069-.142.075-.172.157-.771.465-1.495.899-2.133s.994-1.19,1.654-1.619c.759-.493,1.707-1.01,2.806-1.41.422-.154.866-.216,1.305-.189s.873.144,1.273.348c2.269,1.159,7.636,4.068,11.359,7.422.564.509.977,1.167,1.185,1.899.603,2.121,1.844,7.216,1.564,12.41-.005.084-.014.167-.028.248,0,0,.323-.257.321-.256.296-.24.652-.371,1.014-.39s.731.075,1.051.283c3.787,2.473,6.192,5.095,7.408,7.677.802,1.704,1.085,3.389.904,4.995-.358,3.178-.868,7.462-1.157,9.433-.258,1.752-.94,2.693-1.119,2.915l-.431,1.562c.402,1.642.347,2.828-.35,6.158-.339,1.623-.683,3.007-1.111,4.354l-10.268,32.296-2.027,6.375c-.017.054-.053.101-.1.133l-1.374.909s-23.184,15.333-26.614,17.607c-4.47,2.963-6.131,3.858-12.588,3.858-5.635,0-6.92-.823-9.595-2.565-.094-.062-.191-.124-.289-.188-1.713-1.113-44.211-28.711-49.469-32.126-.199-.13-.366-.3-.49-.496s-.206-.419-.237-.655l-.052-.398-.051.027c-.259.135-.546.195-.828.181s-.562-.101-.808-.26c-4.024-2.614-24.8-16.105-26.836-17.428-7.063-4.587-7.427-5.777-8.171-9.065-.159-.218-.831-1.19-1.128-2.398-.212-.862-.427-1.904-.775-3.989-.031-.186-.064-.373-.097-.562-.336-1.927-.706-4.049.258-7.298.567-1.912,1.288-3.435,2.316-4.682.878-1.066,1.973-1.921,3.368-2.648,2.987-1.557,6.526-3.122,12.683-5.46,3.86-1.466,10.18-3.742,14.355-5.235-.358-.275-.659-.58-.893-1.019-.46-.864-.638-2.21-.638-4.802,0-4.667.908-9.769,4.526-19.17.231-.601.451-1.173.661-1.718,4.264-11.096,4.226-11.002,8.819-13.953-.205-.207-.404-.477-.525-.884-.22-.739-.172-1.887.425-3.875.876-2.92,1.834-5.459,2.619-7.541.151-.399.295-.782.431-1.147.875-2.346,1.106-2.555,4.261-4.594,1.093-.706,2.392-1.232,3.725-1.475.977-.178,1.978-.205,2.93-.036.058-.293.114-.574.168-.836.157-.771.465-1.495.899-2.133s.994-1.19,1.654-1.619c.759-.493,1.707-1.01,2.806-1.41.422-.154.866-.216,1.305-.189s.873.144,1.273.348c2.269,1.159,7.636,4.068,11.359,7.422.564.509.977,1.167,1.185,1.899.603,2.121,1.844,7.216,1.564,12.41-.005.084-.014.166-.03.248,0,0,.457-.364.461-.367.424-.324.815-.507,1.217-.522.383-.015.735.124,1.093.356.686.446,10.658,6.921,11.526,7.485.439.285.647.588.726.859.016.053.025.105.031.154.17-.023.383-.035.591-.004.152.023.314.07.459.164l16.497,10.713c.416.27.656.56.794.806.059.106.098.206.124.291.303.001.855.054,1.351.377.067.043.255.166.533.347,1.235.803,4.238,2.756,6.225,4.043.019-.041.037-.074.048-.097Z" style="fill:none; stroke:#a7abae; stroke-linecap:round; stroke-linejoin:round; stroke-width:.5px;"/></g><path d="m304.446,129.279c-.199-.129.091-.456.134-.668.3-1.477,1.181-2.772,2.445-3.592.747-.485,1.678-.992,2.755-1.384.779-.283,1.64-.23,2.378.147,2.267,1.158,7.609,4.055,11.306,7.385.53.477.917,1.095,1.111,1.781.6,2.112,1.833,7.176,1.554,12.328-.026.484-.25.936-.618,1.25l1.318-1.05c.507-.412,1.224-.449,1.771-.091,6.242,4.077,8.642,8.518,8.201,12.434-.358,3.179-.867,7.458-1.156,9.424s-1.099,2.833-1.099,2.833l-.463,1.677c.405,1.619.367,2.747-.336,6.111-.338,1.618-.68,2.993-1.105,4.329l-10.268,32.296-2.027,6.375-1.374.909s-23.184,15.333-26.615,17.607c-4.438,2.942-6.052,3.816-12.45,3.816-5.782,0-6.904-.865-9.748-2.712-1.713-1.113-44.211-28.711-49.469-32.126-.337-.219-.562-.575-.615-.974l-.099-.752-.368.192c-.439.229-.969.203-1.384-.067-4.024-2.614-24.8-16.105-26.836-17.428-7.072-4.593-7.343-5.724-8.075-8.962,0,0-.792-1.028-1.118-2.351-.21-.853-.424-1.889-.771-3.97s-.887-4.24.154-7.748,2.586-5.629,5.56-7.18c2.975-1.551,6.504-3.111,12.656-5.448,3.999-1.519,10.642-3.908,14.802-5.394-1.307-.88-1.816-1.553-1.816-5.896,0-4.625.897-9.695,4.51-19.08,5.03-13.067,4.625-12.489,9.656-15.726-.617-.52-1.311-1.253-.27-4.722s2.197-6.398,3.045-8.673,1.028-2.446,4.163-4.471c1.915-1.238,4.488-1.909,6.716-1.427.075-.383.148-.746.215-1.079.3-1.477,1.181-2.772,2.445-3.592.747-.485,1.678-.992,2.755-1.384.779-.283,1.64-.23,2.378.147,2.267,1.158,7.609,4.055,11.306,7.385.53.477.917,1.095,1.111,1.781.6,2.112,1.833,7.176,1.554,12.328-.026.484-.25.936-.618,1.25l1.451-1.157c.786-.6,1.336-.601,2.022-.155s10.658,6.921,11.526,7.485.617,1.112.617,1.112c0,0,.758-.218,1.188.061l16.497,10.713c.841.546.855,1.146.855,1.146,0,0,.763-.095,1.414.328.383.249,4.751,3.085,7.127,4.629Z" style="fill:none; stroke:#a7abae; stroke-linecap:round; stroke-linejoin:round; stroke-width:.5px;"/><path d="m274.589,188.153c-.887-1.465-.501-4.895.116-7.362s6.707-23.435,7.863-27.136c1.156-3.7,3.7-5.011,3.7-5.011l.424-1.58" style="fill:none; stroke:#a7abae; stroke-linecap:round; stroke-linejoin:round; stroke-width:.5px;"/><path d="m295.904,124.322c-.463.116-1.735,1.118-2.428,1.542s-1.079.925-2.159,2.274-1.272,1.542-2.12,4.201c-.65,2.038-2.783,8.948-3.745,12.068-.283.917.077,1.912.882,2.434l2.574,1.672c1.355.88,2.139,1.248,5.763.824,3.623-.424,4.289-.791,5.974-1.735,1.927-1.079,2.274-1.272,4.78-.116,2.505,1.156,10.099,5.859,12.604,8.172s2.621,3.43,3.122,5.743.433,2.825,1.358,4.945,1.721,3.903,2.149,4.73c.523,1.009.782,1.085,1.497,1.329s1.719.426,2.465.548,1.659-.304,2.359-.73,2.541-1.476,2.906-1.719.713-.492.713-.492" style="fill:none; stroke:#a7abae; stroke-linecap:round; stroke-linejoin:round; stroke-width:.5px;"/><path d="m277.364,112.402c-.463.116-1.735,1.118-2.428,1.542s-1.079.925-2.159,2.274-1.272,1.542-2.12,4.201c-.348,1.091-1.121,3.58-1.999,6.292-.185.571.037,1.194.54,1.52l16.558,10.753c.379.246.828.356,1.274.317" style="fill:none; stroke:#a7abae; stroke-linecap:round; stroke-linejoin:round; stroke-width:.5px;"/><path d="m310.725,210.2c-.636-2.255-.231-4.972,1.677-10.87,1.908-5.897,3.932-11.274,4.799-14.339s1.503-5.435.116-9.482c-1.388-4.047-2.313-5.03-4.452-6.533-2.139-1.503-7.112-4.799-9.251-5.897s-3.7-.173-5.493.463c-1.792.636-2.891,1.445-3.874,3.527s-5.027,13.086-6.533,17.808c-2.206,6.916-1.284,9.35-1.284,9.35" style="fill:none; stroke:#a7abae; stroke-linecap:round; stroke-linejoin:round; stroke-width:.5px;"/><path d="m247.184,168.485c-.636-2.255-.231-4.972,1.677-10.87s3.932-11.274,4.799-14.339,1.503-5.435.116-9.482c-1.388-4.047-2.313-5.03-4.452-6.533s-7.112-4.799-9.251-5.897-3.7-.173-5.493.463-2.891,1.445-3.874,3.527-5.027,13.086-6.533,17.808c-2.206,6.916-1.284,9.35-1.284,9.35" style="fill:none; stroke:#a7abae; stroke-linecap:round; stroke-linejoin:round; stroke-width:.5px;"/><path d="m269.167,128.228c-.467.099-.845.443-.989.898-4.448,14.047-7.568,21.673-12.15,39.611-.141.551.085,1.131.562,1.441l16.52,10.728c.443.288.982.387,1.498.278h.003" style="fill:none; stroke:#a7abae; stroke-linecap:round; stroke-linejoin:round; stroke-width:.5px;"/><path d="m256.43,170.056c-.574.347-.732,1.292-.767,2.775-.058,2.448.684,3.459.684,3.459" style="fill:none; stroke:#a7abae; stroke-linecap:round; stroke-linejoin:round; stroke-width:.5px;"/><path d="m226.948,107.575c.442.287,1.065.774,4.448.478,4.487-.392,5.342-.819,6.731-1.674s2.168-1.314,3.882-.499c4.416,2.101,11.218,6.953,13.32,8.761,1.531,1.318,1.994,2.172,2.6,4.523s.463,3.17,2.208,7.337,2.014,4.405,3.348,5.271l1.892,1.228c.433.281.959.383,1.465.284" style="fill:none; stroke:#a7abae; stroke-linecap:round; stroke-linejoin:round; stroke-width:.5px;"/><path d="m256.801,176.873s-17.41,6.088-23.067,8.272c-5.657,2.184-6.737,3.122-9.59,5.526-3.671,3.093-3.465,3.084-4.405,4.998s-.732,1.927-.732,3.7v3.932c0,.694.193,1.079.732,1.349l.238,1.981" style="fill:none; stroke:#a7abae; stroke-linecap:round; stroke-linejoin:round; stroke-width:.5px;"/><path d="m274.936,188.65s-17.41,6.088-23.067,8.272c-5.657,2.184-6.737,3.122-9.59,5.526-3.671,3.093-3.465,3.084-4.405,4.998s-.732,1.927-.732,3.7v3.932c0,.694.193,1.079.732,1.349" style="fill:none; stroke:#a7abae; stroke-linecap:round; stroke-linejoin:round; stroke-width:.5px;"/><path d="m269.053,223.894c1.116.737,2.568.726,3.672-.028,1.363-.93,2.515-1.318,4.78-2.213,4.78-1.889,15.688-6.206,16.921-6.745s1.735-.925,1.812-2.929-.347-2.968-2.428-4.471-8.364-5.705-10.407-6.745c-2.043-1.041-3.818-1.213-7.131-1.619-4.086-.501-4.394-.27-6.514.385s-15.457,5.666-18.116,6.668c-1.496.564-2.626,1.103-3.479,1.638-.823.516-.836,1.712-.025,2.247l20.916,13.812Z" style="fill:none; stroke:#a7abae; stroke-linecap:round; stroke-linejoin:round; stroke-width:.5px;"/><path d="m208.914,184.84c1.116.737,2.568.726,3.672-.028,1.363-.93,2.515-1.318,4.78-2.213,4.78-1.889,15.688-6.206,16.921-6.745s1.748-1.421,1.825-3.426-.069-2.661-2.15-4.164-8.364-5.705-10.407-6.745c-2.043-1.041-2.646-1.023-5.959-1.429-4.086-.501-5.858-.27-7.978.385s-15.457,5.666-18.116,6.668c-1.496.564-2.626,1.103-3.479,1.638-.823.516-.836,1.712-.025,2.247l20.916,13.812Z" style="fill:none; stroke:#a7abae; stroke-linecap:round; stroke-linejoin:round; stroke-width:.5px;"/><path d="m322.374,214.488c-.58,1.825-1.146,2.073-5.694,3.846s-24.977,10.947-28.215,12.411-3.932,1.773-8.634,2.621-6.647-.205-8.942-1.696c-.942-.612-15.988-10.383-32.744-21.264-1.302-.846-.975-1.144-.975-1.144-.414-.004-.885-.064-1.205-.272-5.227-3.394-10.62-6.897-15.858-10.298-1.216-.789-1.02-1.447-1.02-1.447-.579.025-1.252-.028-1.71-.326-17.136-11.128-31.948-20.747-32.741-21.262-1.608-1.044-2.381-2.402-2.786-5.003s-.478-4.183.157-5.636" style="fill:none; stroke:#a7abae; stroke-linecap:round; stroke-linejoin:round; stroke-width:.5px;"/><path d="m237.584,265.064l-33.519-21.767c-4.418,2.092-10.662,1.571-11.703,1.109s-2.024-.347-3.7-.116-9.977,1.477-15.829,3.514c-5.852,2.037-7.391,3.905-9.206,8.281-1.966,4.74-1.874,6.17-1.904,7.02-.041,1.156.043,2.942,1.026,4.605.831,1.407,5.206,5.25,11.089,9.246,5.156,3.502,11.766,7.718,17.157,9.24.584.165,1.193.24,1.825.24,3.546,0,7.776-2.381,11.886-4.695,1.531-.862,3.115-1.754,4.635-2.506,3.143-1.557,6.708-3.232,9.852-4.71,3.105-1.459,5.787-2.719,7.04-3.389l11.351-6.071Z" style="fill:none; stroke:#a7abae; stroke-linecap:round; stroke-linejoin:round; stroke-width:1.5px;"/><path d="m240.983,180.968c1.988,6.179,3.151,7.67,5.769,11.65s4.647,7.561,4.945,11.619.33,5.16.33,6.592-.612,2.077-.612,2.077c0,0,1.076,1.684.074,5.963-1.002,4.278-5.974,23.705-6.668,26.326s-.578,3.7-.501,5.974.092,4.192-.308,5.281c-3.373,9.174-12.219,10.735-15.399,4.548,0,0-6.88-4.163-13.125-8.268-6.244-4.105-8.962-6.013-10.291-7.169-2.602.116-5.608-1.735-9.251-7.863-3.642-6.129-4.452-7.401-2.717-13.067s4.625-14.05,7.863-19.889,7.169-7.805,7.169-7.805c0,0-.536-.93-.894-2.106s-.339-2.173.279-3.868,1.236-3.489,2.153-5.064,1.396-2.034,3.469-3.21c2.074-1.176,2.427-1.254,4.945-1.994,3.751-1.102,6.719-4.302,8.453-6.961,1.735-2.66,2.236-3.662,5.589-1.58,3.353,2.081,3.888,2.317,5.559,3.438,1.671,1.12,2.655,3.782,3.168,5.377Z" style="fill:none; stroke:#a7abae; stroke-linecap:round; stroke-linejoin:round; stroke-width:1.5px;"/><path d="m222.851,187.494c-1.881-1.246-2.891-3.662-2.891-3.662-1.156-2.467-.964-3.315-.732-5.011s.655-3.893,1.041-5.242.771-2.621,3.585-4.201c2.814-1.58,3.392-1.657,5.358-.578,1.966,1.079,7.94,5.204,9.289,6.244s1.657,2.351,2.274,5.011c.617,2.66.925,4.317,1.118,5.473s.231,1.773-.308,2.929-.304,1.433-3.276,3.353c-4.356,2.814-4.538,2.915-6.731,1.463l-8.726-5.78Z" style="fill:none; stroke:#a7abae; stroke-linecap:round; stroke-linejoin:round; stroke-width:1.5px;"/><path d="m226.358,265.508c-.52.694,0,1.041.752,1.85s1.445,2.139-1.041,3.469-10.581,4.972-16.883,8.094-13.182,8.326-18.097,6.938-10.927-5.03-17.056-9.193c-6.129-4.163-10.234-7.863-10.985-9.135s-1.33-4.452-1.33-4.452c0,0-.578,2.891-.578,5.319s.07,4.151.07,5.018.755,2.486,1.792,3.18.894,1.273.928,2.139c.072,1.851.311,2.994.311,2.994,0,0,4.27,3.993,11.065,8.405s13.699,7.873,13.699,7.873l3.272-1.543.106-1.463c3.777,1.144,6.809,1.117,9.177,1.33s5.639,1.968,10.72-.559,5.613-2.607,13.193-6.863c7.581-4.256,12.635-6.996,14.577-8.405s2.66-2.341,4.07-5.559c1.41-3.219,3.165-7.687,3.777-10.108s-.372-4.176-1.41-5.586-2.261-2.74-3.086-3.458-2.048-1.463-4.017.08c-1.728,1.355-5.553,4.427-6.628,5.354-1.388,1.195-2.001,1.567-3.506.764-1.383,1.596-2.873,3.405-2.873,3.405" style="fill:none; stroke:#a7abae; stroke-linecap:round; stroke-linejoin:round; stroke-width:1.5px;"/><path d="m247.897,264.84c.499-1.691.108-3.809-1.313-4.563-1.421-.754-3.364-.058-5.838,3.722-3.295,5.033-8.374,12.263-11.786,16.889-3.411,4.625-4.508,4.913-9.381,7.478-1.845.971-4.515,2.33-7.234,3.35s-12.818,3.593-21.897-.049c-9.079-3.641-23.644-14.226-25.975-16.119-2.33-1.893-3.317-3.411-3.322-5.07" style="fill:none; stroke:#a7abae; stroke-linecap:round; stroke-linejoin:round; stroke-width:1.5px;"/><path d="m208.261,196.937c.19.387.774.993,4.384,1.266,4.223.32,4.365-.148,6.191-1.746.902-.789,1.681-1.354,2.99-.708,3.743,1.849,9.016,5.752,10.636,6.893s2.282,2.237,2.693,3.835.593,2.374.89,3.675.525,1.872,1.278,3.218,1.484,2.419,1.917,3.15.776,1.347,1.803,1.666,1.552.456,2.397.639,1.301-.205,2.237-.867,2.511-1.849,3.492-2.807,1.749-1.658,2.244-2.244" style="fill:none; stroke:#a7abae; stroke-linecap:round; stroke-linejoin:round; stroke-width:1.5px;"/><path d="m205.197,245.561c-.964-.79-1.715-3.84-.809-7.728,2.236-9.598,6.843-22.424,8.094-25.324.848-1.966,2.12-3.007,4.356-3.623s3.246-.501,4.433.27c1.895,1.23,7.153,4.645,8.23,5.345s2.524,1.671,3.642,4.985,1.696,4.818,1.002,7.94-2.814,10.677-5.088,18.463c-2.274,7.786-2.236,12.296-.443,15.11" style="fill:none; stroke:#a7abae; stroke-linecap:round; stroke-linejoin:round; stroke-width:1.5px;"/><path d="m195.831,277.303c2.66-1.272,15.418-6.745,18.039-8.094s3.238-1.465,2.737-3.777-.694-2.737-2.737-4.124c-1.68-1.141-9.945-6.591-11.872-7.632-1.927-1.041-2.682-1.526-6.052-1.966-3.757-.49-4.515-.588-7.615.156-5.936,1.426-19.396,7.565-20.938,8.298-2.185,1.038-3.675,3.293,9.54,11.875,13.194,8.568,16.238,6.536,18.897,5.264Z" style="fill:none; stroke:#a7abae; stroke-linecap:round; stroke-linejoin:round; stroke-width:1.5px;"/><path d="m192.384,295.004c-1.572-.469-3.795-1.346-3.795-1.346" style="fill:none; stroke:#a7abae; stroke-linecap:round; stroke-linejoin:round; stroke-width:1.5px;"/><path d="m206.961,288.325c.135.202.392.283.618.194,1.523-.596,7.343-2.955,11.858-5.906.438-.287.752-.729.878-1.237.197-.795.491-2.078.669-3.289.021-.143-.032-.288-.14-.384s-.258-.131-.398-.092c-1.535.421-5.8,1.701-11.562,4.318-.642.292-1.202.745-1.618,1.315-.305.418-.677.955-1.04,1.547-.318.518-.382,1.156-.175,1.727.183.503.471,1.152.909,1.808Z" style="fill:none; stroke:#a7abae; stroke-linecap:round; stroke-linejoin:round; stroke-width:1.5px;"/><path d="m246.761,217.165c.913,1.55,2.724,3.219,1.384,7.384-1.34,4.165-6.43,20.223-7.449,22.941s-.4,4.283-.026,7.643" style="fill:none; stroke:#a7abae; stroke-linecap:round; stroke-linejoin:round; stroke-width:1.5px;"/><path d="m239.74,190.833s1.875,1.185,3.327,2.223,1.971,1.919,2.956,3.786,1.555,3.327,2.308,5.087,1.064,3.005,1.012,6.117-.104,4.564-.259,5.602-.206,1.826-.949,2.429" style="fill:none; stroke:#a7abae; stroke-linecap:round; stroke-linejoin:round; stroke-width:1.5px;"/><path d="m237.584,265.064l-33.519-21.767c-4.418,2.092-10.662,1.571-11.703,1.109s-2.024-.347-3.7-.116-9.977,1.477-15.829,3.514c-5.852,2.037-7.391,3.905-9.206,8.281-1.966,4.74-1.874,6.17-1.904,7.02-.041,1.156.043,2.942,1.026,4.605.831,1.407,5.206,5.25,11.089,9.246,5.156,3.502,11.766,7.718,17.157,9.24.584.165,1.193.24,1.825.24,3.546,0,7.776-2.381,11.886-4.695,1.531-.862,3.115-1.754,4.635-2.506,3.143-1.557,6.708-3.232,9.852-4.71,3.105-1.459,5.787-2.719,7.04-3.389l11.351-6.071Z" style="fill:#fff; stroke:#a7abae; stroke-linecap:round; stroke-linejoin:round; stroke-width:.5px;"/><path d="m240.983,180.968c1.988,6.179,3.151,7.67,5.769,11.65s4.647,7.561,4.945,11.619.33,5.16.33,6.592-.612,2.077-.612,2.077c0,0,1.076,1.684.074,5.963-1.002,4.278-5.974,23.705-6.668,26.326s-.578,3.7-.501,5.974.092,4.192-.308,5.281c-3.373,9.174-12.219,10.735-15.399,4.548,0,0-6.88-4.163-13.125-8.268-6.244-4.105-8.962-6.013-10.291-7.169-2.602.116-5.608-1.735-9.251-7.863-3.642-6.129-4.452-7.401-2.717-13.067s4.625-14.05,7.863-19.889,7.169-7.805,7.169-7.805c0,0-.536-.93-.894-2.106s-.339-2.173.279-3.868,1.236-3.489,2.153-5.064,1.396-2.034,3.469-3.21c2.074-1.176,2.427-1.254,4.945-1.994,3.751-1.102,6.719-4.302,8.453-6.961,1.735-2.66,2.236-3.662,5.589-1.58,3.353,2.081,3.888,2.317,5.559,3.438,1.671,1.12,2.655,3.782,3.168,5.377Z" style="fill:#fff; stroke:#a7abae; stroke-linecap:round; stroke-linejoin:round; stroke-width:.5px;"/><path d="m222.851,187.494c-1.881-1.246-2.891-3.662-2.891-3.662-1.156-2.467-.964-3.315-.732-5.011s.655-3.893,1.041-5.242.771-2.621,3.585-4.201c2.814-1.58,3.392-1.657,5.358-.578,1.966,1.079,7.94,5.204,9.289,6.244s1.657,2.351,2.274,5.011c.617,2.66.925,4.317,1.118,5.473s.231,1.773-.308,2.929-.304,1.433-3.276,3.353c-4.356,2.814-4.538,2.915-6.731,1.463l-8.726-5.78Z" style="fill:#fff; stroke:#a7abae; stroke-linecap:round; stroke-linejoin:round; stroke-width:.5px;"/><path d="m226.358,265.508c-.52.694,0,1.041.752,1.85s1.445,2.139-1.041,3.469-10.581,4.972-16.883,8.094-13.182,8.326-18.097,6.938-10.927-5.03-17.056-9.193c-6.129-4.163-10.234-7.863-10.985-9.135s-1.33-4.452-1.33-4.452c0,0-.578,2.891-.578,5.319s.07,4.151.07,5.018.755,2.486,1.792,3.18.894,1.273.928,2.139c.072,1.851.311,2.994.311,2.994,0,0,4.27,3.993,11.065,8.405s13.699,7.873,13.699,7.873l3.272-1.543.106-1.463c3.777,1.144,6.809,1.117,9.177,1.33s5.639,1.968,10.72-.559,5.613-2.607,13.193-6.863c7.581-4.256,12.635-6.996,14.577-8.405s2.66-2.341,4.07-5.559c1.41-3.219,3.165-7.687,3.777-10.108s-.372-4.176-1.41-5.586-2.261-2.74-3.086-3.458-2.048-1.463-4.017.08c-1.728,1.355-5.553,4.427-6.628,5.354-1.388,1.195-2.001,1.567-3.506.764-1.383,1.596-2.873,3.405-2.873,3.405" style="fill:#fff; stroke:#a7abae; stroke-linecap:round; stroke-linejoin:round; stroke-width:.5px;"/><path d="m247.897,264.84c.499-1.691.108-3.809-1.313-4.563-1.421-.754-3.364-.058-5.838,3.722-3.295,5.033-8.374,12.263-11.786,16.889-3.411,4.625-4.508,4.913-9.381,7.478-1.845.971-4.515,2.33-7.234,3.35s-12.818,3.593-21.897-.049c-9.079-3.641-23.644-14.226-25.975-16.119-2.33-1.893-3.317-3.411-3.322-5.07" style="fill:none; stroke:#a7abae; stroke-linecap:round; stroke-linejoin:round; stroke-width:.5px;"/><path d="m208.261,196.937c.19.387.774.993,4.384,1.266,4.223.32,4.365-.148,6.191-1.746.902-.789,1.681-1.354,2.99-.708,3.743,1.849,9.016,5.752,10.636,6.893s2.282,2.237,2.693,3.835.593,2.374.89,3.675.525,1.872,1.278,3.218,1.484,2.419,1.917,3.15.776,1.347,1.803,1.666,1.552.456,2.397.639,1.301-.205,2.237-.867,2.511-1.849,3.492-2.807,1.749-1.658,2.244-2.244" style="fill:none; stroke:#a7abae; stroke-linecap:round; stroke-linejoin:round; stroke-width:.5px;"/><path d="m205.197,245.561c-.964-.79-1.715-3.84-.809-7.728,2.236-9.598,6.843-22.424,8.094-25.324.848-1.966,2.12-3.007,4.356-3.623s3.246-.501,4.433.27c1.895,1.23,7.153,4.645,8.23,5.345s2.524,1.671,3.642,4.985,1.696,4.818,1.002,7.94-2.814,10.677-5.088,18.463c-2.274,7.786-2.236,12.296-.443,15.11" style="fill:none; stroke:#a7abae; stroke-linecap:round; stroke-linejoin:round; stroke-width:.5px;"/><path d="m195.831,277.303c2.66-1.272,15.418-6.745,18.039-8.094s3.238-1.465,2.737-3.777-.694-2.737-2.737-4.124c-1.68-1.141-9.945-6.591-11.872-7.632-1.927-1.041-2.682-1.526-6.052-1.966-3.757-.49-4.515-.588-7.615.156-5.936,1.426-19.396,7.565-20.938,8.298-2.185,1.038-3.675,3.293,9.54,11.875,13.194,8.568,16.238,6.536,18.897,5.264Z" style="fill:none; stroke:#a7abae; stroke-linecap:round; stroke-linejoin:round; stroke-width:.5px;"/><path d="m192.384,295.004c-1.572-.469-3.795-1.346-3.795-1.346" style="fill:none; stroke:#a7abae; stroke-linecap:round; stroke-linejoin:round; stroke-width:.5px;"/><path d="m206.961,288.325c.135.202.392.283.618.194,1.523-.596,7.343-2.955,11.858-5.906.438-.287.752-.729.878-1.237.197-.795.491-2.078.669-3.289.021-.143-.032-.288-.14-.384s-.258-.131-.398-.092c-1.535.421-5.8,1.701-11.562,4.318-.642.292-1.202.745-1.618,1.315-.305.418-.677.955-1.04,1.547-.318.518-.382,1.156-.175,1.727.183.503.471,1.152.909,1.808Z" style="fill:#fff; stroke:#a7abae; stroke-linecap:round; stroke-linejoin:round; stroke-width:.5px;"/><path d="m246.761,217.165c.913,1.55,2.724,3.219,1.384,7.384-1.34,4.165-6.43,20.223-7.449,22.941s-.4,4.283-.026,7.643" style="fill:none; stroke:#a7abae; stroke-linecap:round; stroke-linejoin:round; stroke-width:.5px;"/><path d="m239.74,190.833s1.875,1.185,3.327,2.223,1.971,1.919,2.956,3.786,1.555,3.327,2.308,5.087,1.064,3.005,1.012,6.117-.104,4.564-.259,5.602-.206,1.826-.949,2.429" style="fill:none; stroke:#a7abae; stroke-linecap:round; stroke-linejoin:round; stroke-width:.5px;"/><path d="m179.38,227.162l-33.519-21.767c-4.418,2.092-10.662,1.571-11.703,1.109s-2.024-.347-3.7-.116-9.977,1.477-15.829,3.514c-5.852,2.037-7.391,3.905-9.206,8.281-1.966,4.74-1.874,6.17-1.904,7.02-.041,1.156.043,2.942,1.026,4.605.831,1.407,5.206,5.25,11.089,9.246,5.156,3.502,11.766,7.718,17.157,9.24.584.165,1.193.24,1.825.24,3.546,0,7.776-2.381,11.886-4.695,1.531-.862,3.115-1.754,4.635-2.506,3.143-1.557,6.708-3.232,9.852-4.71,3.105-1.459,5.787-2.719,7.04-3.389l11.351-6.071Z" style="fill:none; stroke:#a7abae; stroke-linecap:round; stroke-linejoin:round; stroke-width:1.5px;"/><path d="m182.667,142.619c1.988,6.179,3.151,7.67,5.769,11.65s4.647,7.561,4.945,11.619.33,5.16.33,6.592-.612,2.077-.612,2.077c0,0,1.076,1.684.074,5.963-1.002,4.278-5.974,23.705-6.668,26.326s-.578,3.7-.501,5.974.092,4.192-.308,5.281c-3.373,9.174-12.219,10.735-15.399,4.548,0,0-6.88-4.163-13.125-8.268s-8.962-6.013-10.291-7.169c-2.602.116-5.608-1.735-9.251-7.863-3.642-6.129-4.452-7.401-2.717-13.067,1.735-5.666,4.625-14.05,7.863-19.889,3.238-5.84,7.169-7.805,7.169-7.805,0,0-.536-.93-.894-2.106s-.339-2.173.279-3.868,1.236-3.489,2.153-5.064,1.396-2.034,3.469-3.21c2.074-1.176,2.427-1.254,4.945-1.994,3.751-1.102,6.719-4.302,8.453-6.961s2.236-3.662,5.589-1.58c3.353,2.081,3.888,2.317,5.559,3.438s2.655,3.782,3.168,5.377Z" style="fill:none; stroke:#a7abae; stroke-linecap:round; stroke-linejoin:round; stroke-width:1.5px;"/><path d="m164.647,149.592c-1.881-1.246-2.891-3.662-2.891-3.662-1.156-2.467-.964-3.315-.732-5.011s.655-3.893,1.041-5.242.771-2.621,3.585-4.201c2.814-1.58,3.392-1.657,5.358-.578,1.966,1.079,7.94,5.204,9.289,6.244s1.657,2.351,2.274,5.011.925,4.317,1.118,5.473.231,1.773-.308,2.929-.304,1.433-3.276,3.353c-4.356,2.814-4.538,2.915-6.731,1.463l-8.726-5.78Z" style="fill:none; stroke:#a7abae; stroke-linecap:round; stroke-linejoin:round; stroke-width:1.5px;"/><path d="m150.058,159.035c.19.387.774.993,4.384,1.266,4.223.32,4.365-.148,6.191-1.746.902-.789,1.681-1.354,2.99-.708,3.743,1.849,9.016,5.752,10.636,6.893s2.282,2.237,2.693,3.835.593,2.374.89,3.675.525,1.872,1.278,3.218,1.484,2.419,1.917,3.15.776,1.347,1.803,1.666,1.552.456,2.397.639,1.301-.205,2.237-.867,2.511-1.849,3.492-2.807,1.749-1.658,2.244-2.244" style="fill:none; stroke:#a7abae; stroke-linecap:round; stroke-linejoin:round; stroke-width:1.5px;"/><path d="m146.993,207.66c-.964-.79-1.715-3.84-.809-7.728,2.236-9.598,6.843-22.424,8.094-25.324.848-1.966,2.12-3.007,4.356-3.623s3.246-.501,4.433.27c1.895,1.23,7.153,4.645,8.23,5.345s2.524,1.671,3.642,4.985,1.696,4.818,1.002,7.94-2.814,10.677-5.088,18.463-2.236,12.296-.443,15.11" style="fill:none; stroke:#a7abae; stroke-linecap:round; stroke-linejoin:round; stroke-width:1.5px;"/><path d="m137.627,239.401c2.66-1.272,15.418-6.745,18.039-8.094,2.621-1.349,3.238-1.465,2.737-3.777s-.694-2.737-2.737-4.124c-1.68-1.141-9.945-6.591-11.872-7.632-1.927-1.041-2.682-1.526-6.052-1.966-3.757-.49-4.515-.588-7.615.156-5.936,1.426-19.396,7.565-20.938,8.298-2.185,1.038-3.675,3.293,9.54,11.875,13.194,8.568,16.238,6.536,18.897,5.264Z" style="fill:none; stroke:#a7abae; stroke-linecap:round; stroke-linejoin:round; stroke-width:1.5px;"/><path d="m167.607,229.951c-.194-.075-.34-.24-.39-.442s0-.416.137-.574l3.796-4.379c.276-.318.695-.474,1.112-.413l.971.142c.533.078,1.072-.086,1.472-.447,1.231-1.109,4.02-3.588,6.099-5.174,2.265-1.729,3.489-1.837,4.311-1.194s1.204,1.013,1.644,1.568,1.185,2.39-.019,5.41-3.355,7.971-3.694,8.825c-.199.5-.235.763-.88,1.192-2.64,1.76-30.132,20.348-30.912,20.868s-1.185.52-1.937.549-2.139.058-2.833.058-1.423-.096-3.585.491c-4.365,1.185-8.412.434-8.412.434l-.087,1.503s-1.667.885-2.271,1.237c-.851.497-1.471.235-2.528-.312-7.545-3.903-16.94-10.118-22.202-14.715-1.224-1.069-1.099-1.156-1.156-2.197s-.116-1.648-.145-2.024-.234-1.092-.838-1.763c-1.561-1.735-2.689-3.209-2.689-5.377v-5.666c0-2.168,1.056-3.765,1.056-3.765-.115,1.751-.468,3.215,1.498,5.567,1.966,2.351,5.793,5.86,12.142,9.983,6.349,4.123,11.602,6.861,14.185,7.825s5.512,1.426,10.947-1.619,12.604-6.63,18.617-9.444c4.204-1.967,6.656-3.181,7.751-3.733.407-.205.625-.659.531-1.105h0c-.095-.446-.407-.813-.832-.977l-.858-.332Z" style="fill:none; stroke:#a7abae; stroke-linecap:round; stroke-linejoin:round; stroke-width:1.5px;"/><path d="m186.759,219.037c-1.035-1.071-3.479-.424-5.931,2.291s-5.386,6.217-5.386,6.217l1.314,5.035s-25.133,16.551-29.292,18.959c-4.16,2.408-10.071,3.065-14.756,1.051-2.241-.963-9.119-3.942-15.062-7.969-9.37-6.349-12.222-9.518-13.067-10.523-1.62-1.927-2.008-3.056-2.008-4.802" style="fill:none; stroke:#a7abae; stroke-linecap:round; stroke-linejoin:round; stroke-width:1.5px;"/><path d="m179.38,227.162l-33.519-21.767c-4.418,2.092-10.662,1.571-11.703,1.109s-2.024-.347-3.7-.116-9.977,1.477-15.829,3.514c-5.852,2.037-7.391,3.905-9.206,8.281-1.966,4.74-1.874,6.17-1.904,7.02-.041,1.156.043,2.942,1.026,4.605.831,1.407,5.206,5.25,11.089,9.246,5.156,3.502,11.766,7.718,17.157,9.24.584.165,1.193.24,1.825.24,3.546,0,7.776-2.381,11.886-4.695,1.531-.862,3.115-1.754,4.635-2.506,3.143-1.557,6.708-3.232,9.852-4.71,3.105-1.459,5.787-2.719,7.04-3.389l11.351-6.071Z" style="fill:#fff; stroke:#a7abae; stroke-linecap:round; stroke-linejoin:round; stroke-width:.5px;"/><path d="m182.667,142.619c1.988,6.179,3.151,7.67,5.769,11.65s4.647,7.561,4.945,11.619.33,5.16.33,6.592-.612,2.077-.612,2.077c0,0,1.076,1.684.074,5.963-1.002,4.278-5.974,23.705-6.668,26.326s-.578,3.7-.501,5.974.092,4.192-.308,5.281c-3.373,9.174-12.219,10.735-15.399,4.548,0,0-6.88-4.163-13.125-8.268s-8.962-6.013-10.291-7.169c-2.602.116-5.608-1.735-9.251-7.863-3.642-6.129-4.452-7.401-2.717-13.067,1.735-5.666,4.625-14.05,7.863-19.889,3.238-5.84,7.169-7.805,7.169-7.805,0,0-.536-.93-.894-2.106s-.339-2.173.279-3.868,1.236-3.489,2.153-5.064,1.396-2.034,3.469-3.21c2.074-1.176,2.427-1.254,4.945-1.994,3.751-1.102,6.719-4.302,8.453-6.961s2.236-3.662,5.589-1.58c3.353,2.081,3.888,2.317,5.559,3.438s2.655,3.782,3.168,5.377Z" style="fill:#fff; stroke:#a7abae; stroke-linecap:round; stroke-linejoin:round; stroke-width:.5px;"/><path d="m164.647,149.592c-1.881-1.246-2.891-3.662-2.891-3.662-1.156-2.467-.964-3.315-.732-5.011s.655-3.893,1.041-5.242.771-2.621,3.585-4.201c2.814-1.58,3.392-1.657,5.358-.578,1.966,1.079,7.94,5.204,9.289,6.244s1.657,2.351,2.274,5.011.925,4.317,1.118,5.473.231,1.773-.308,2.929-.304,1.433-3.276,3.353c-4.356,2.814-4.538,2.915-6.731,1.463l-8.726-5.78Z" style="fill:#fff; stroke:#a7abae; stroke-linecap:round; stroke-linejoin:round; stroke-width:.5px;"/><path d="m150.058,159.035c.19.387.774.993,4.384,1.266,4.223.32,4.365-.148,6.191-1.746.902-.789,1.681-1.354,2.99-.708,3.743,1.849,9.016,5.752,10.636,6.893s2.282,2.237,2.693,3.835.593,2.374.89,3.675.525,1.872,1.278,3.218,1.484,2.419,1.917,3.15.776,1.347,1.803,1.666,1.552.456,2.397.639,1.301-.205,2.237-.867,2.511-1.849,3.492-2.807,1.749-1.658,2.244-2.244" style="fill:none; stroke:#a7abae; stroke-linecap:round; stroke-linejoin:round; stroke-width:.5px;"/><path d="m146.993,207.66c-.964-.79-1.715-3.84-.809-7.728,2.236-9.598,6.843-22.424,8.094-25.324.848-1.966,2.12-3.007,4.356-3.623s3.246-.501,4.433.27c1.895,1.23,7.153,4.645,8.23,5.345s2.524,1.671,3.642,4.985,1.696,4.818,1.002,7.94-2.814,10.677-5.088,18.463-2.236,12.296-.443,15.11" style="fill:none; stroke:#a7abae; stroke-linecap:round; stroke-linejoin:round; stroke-width:.5px;"/><path d="m137.627,239.401c2.66-1.272,15.418-6.745,18.039-8.094,2.621-1.349,3.238-1.465,2.737-3.777s-.694-2.737-2.737-4.124c-1.68-1.141-9.945-6.591-11.872-7.632-1.927-1.041-2.682-1.526-6.052-1.966-3.757-.49-4.515-.588-7.615.156-5.936,1.426-19.396,7.565-20.938,8.298-2.185,1.038-3.675,3.293,9.54,11.875,13.194,8.568,16.238,6.536,18.897,5.264Z" style="fill:none; stroke:#a7abae; stroke-linecap:round; stroke-linejoin:round; stroke-width:.5px;"/><path d="m167.607,229.951c-.194-.075-.34-.24-.39-.442s0-.416.137-.574l3.796-4.379c.276-.318.695-.474,1.112-.413l.971.142c.533.078,1.072-.086,1.472-.447,1.231-1.109,4.02-3.588,6.099-5.174,2.265-1.729,3.489-1.837,4.311-1.194s1.204,1.013,1.644,1.568,1.185,2.39-.019,5.41-3.355,7.971-3.694,8.825c-.199.5-.235.763-.88,1.192-2.64,1.76-30.132,20.348-30.912,20.868s-1.185.52-1.937.549-2.139.058-2.833.058-1.423-.096-3.585.491c-4.365,1.185-8.412.434-8.412.434l-.087,1.503s-1.667.885-2.271,1.237c-.851.497-1.471.235-2.528-.312-7.545-3.903-16.94-10.118-22.202-14.715-1.224-1.069-1.099-1.156-1.156-2.197s-.116-1.648-.145-2.024-.234-1.092-.838-1.763c-1.561-1.735-2.689-3.209-2.689-5.377v-5.666c0-2.168,1.056-3.765,1.056-3.765-.115,1.751-.468,3.215,1.498,5.567,1.966,2.351,5.793,5.86,12.142,9.983,6.349,4.123,11.602,6.861,14.185,7.825s5.512,1.426,10.947-1.619,12.604-6.63,18.617-9.444c4.204-1.967,6.656-3.181,7.751-3.733.407-.205.625-.659.531-1.105h0c-.095-.446-.407-.813-.832-.977l-.858-.332Z" style="fill:#fff; stroke:#a7abae; stroke-linecap:round; stroke-linejoin:round; stroke-width:.5px;"/><path d="m186.759,219.037c-1.035-1.071-3.479-.424-5.931,2.291s-5.386,6.217-5.386,6.217l1.314,5.035s-25.133,16.551-29.292,18.959c-4.16,2.408-10.071,3.065-14.756,1.051-2.241-.963-9.119-3.942-15.062-7.969-9.37-6.349-12.222-9.518-13.067-10.523-1.62-1.927-2.008-3.056-2.008-4.802" style="fill:none; stroke:#a7abae; stroke-linecap:round; stroke-linejoin:round; stroke-width:.5px;"/><path d="m127.433,166.724c.917-2.617,1.476-7.342-8.168-.026s-35.914,27.823-38.242,29.707-3.653,3.434-2.106,6.097c.926,1.593,2.654,3.653,3.463,4.241s1.876.772,3.273-.221,11.732-8.496,13.645-10.041,2.869-1.103,7.76-.883c4.892.221,4.781.441,8.569-2.317,3.788-2.758,8.827-6.731,10.666-8.128,1.088-.827,2.261-1.489,2.353-2.55" style="fill:none; stroke:#a7abae; stroke-linecap:round; stroke-linejoin:round; stroke-width:.5px;"/><path d="m117.44,168.088s-2.728-.33-7.328,2.995-26.828,20.209-31.148,24.054c-6.041,5.376-5.216,7.626-2.756,10.988,1.798,2.457,6.626,8.372,8.861,10.454,4.046,3.769,4.22,3.765,6.263,4.012,1.829.222,5.81-2.938,12.082-7.448,10.514-7.56,20.628-14.877,22.584-16.823" style="fill:none; stroke:#a7abae; stroke-linecap:round; stroke-linejoin:round; stroke-width:.5px;"/><path d="m113.872,194.523s-1.148,3.156-2.755,7.368-1.94,5.154-5.487,7.87-10.741,7.418-12.736,8.748-4.857.435-6.031-.281" style="fill:none; stroke:#a7abae; stroke-linecap:round; stroke-linejoin:round; stroke-width:.5px;"/><path d="m63.371,249.877c0-3.425-.915-4.423,3.158-10.159,4.074-5.736,5.487-6.568,9.81-9.81s13.13-9.725,13.13-9.725" style="fill:none; stroke:#a7abae; stroke-linecap:round; stroke-linejoin:round; stroke-width:.5px;"/><path d="m70.822,255.827s19.983-14.28,31.29-23.674" style="fill:none; stroke:#a7abae; stroke-linecap:round; stroke-linejoin:round; stroke-width:.5px;"/><line x1="76.339" y1="229.908" x2="76.987" y2="251.364" style="fill:none; stroke:#a7abae; stroke-linecap:round; stroke-linejoin:round; stroke-width:.5px;"/><path d="m71.528,190.59c-4.647,5.89-9.082,12.513-10.07,20.114-.322-3.886,1.039-7.751,2.732-11.198,1.675-3.451,4.04-6.693,6.578-9.566.424-.494,1.185.147.76.65h0Z" style="fill:#a7abae; stroke-width:0px;"/><path d="m81.483,212.685c.743.86,1.584,1.2,4.181,1.74s4.223-.654,6.072-1.899,21.333-15.819,21.333-15.819" style="fill:none; stroke:#a7abae; stroke-linecap:round; stroke-linejoin:round; stroke-width:.5px;"/><path d="m161.552,137.839l-.622.477c-2.063,1.582-3.72,2.907-4.709,3.799-1.549,1.398-2.627,2.542-3.295,3.554" style="fill:none; stroke:#a7abae; stroke-linecap:round; stroke-linejoin:round; stroke-width:.5px;"/><path d="m195.736,115.086s-1.847-.746-7.001,2.996c-2.761,2.005-10.456,7.459-17.777,12.788" style="fill:none; stroke:#a7abae; stroke-linecap:round; stroke-linejoin:round; stroke-width:.5px;"/><path d="m172.97,132.099c11.575-8.704,26.473-19.793,29.262-21.808,4.417-3.19,4.823-1.05,4.086,1.384" style="fill:none; stroke:#a7abae; stroke-linecap:round; stroke-linejoin:round; stroke-width:.5px;"/><path d="m204.961,131.067c-.038,1.07-2.342,2.292-10.64,7.967-2.077,1.42-5.581.828-8.658.489-1.458-.16-2.617-.37-3.866-.255" style="fill:none; stroke:#a7abae; stroke-linecap:round; stroke-linejoin:round; stroke-width:.5px;"/><path d="m190.871,139.933c-1.731,5.226-2.523,8.178-4.729,10.794" style="fill:none; stroke:#a7abae; stroke-linecap:round; stroke-linejoin:round; stroke-width:.5px;"/><line x1="190.096" y1="142.311" x2="184.055" y2="146.525" style="fill:none; stroke:#a7abae; stroke-linecap:round; stroke-linejoin:round; stroke-width:.5px;"/><line x1="76.215" y1="259.939" x2="105.962" y2="239.759" style="fill:none; stroke:#a7abae; stroke-linecap:round; stroke-linejoin:round; stroke-width:.5px;"/><line x1="83.072" y1="204.97" x2="122.063" y2="176.971" style="fill:none; stroke:#a7abae; stroke-linecap:round; stroke-linejoin:round; stroke-width:.5px;"/><line x1="200.044" y1="125.485" x2="181.995" y2="136.939" style="fill:none; stroke:#a7abae; stroke-linecap:round; stroke-linejoin:round; stroke-width:.5px;"/></g><g id="uuid-9b1f2247-43a7-469c-be54-d82d33ea0b84"><path d="m256.345,176.281s-16.96,6.68-22.61,8.86c-5.66,2.18-6.74,3.12-9.59,5.53-3.67,3.09-3.47,3.08-4.41,4.99-.94,1.92-.73,1.93-.73,3.7l1.003,7.24-.03.03c-.43.23-1.332.395-1.752.125-4.02-2.62-26.439-17.195-28.479-18.515-3.21-2.09-5.02-3.46-6.11-4.64,0-.01-.01-.02-.02-.03-.19-.26-.79-1.16-1.06-2.27-.21-.85-.793-5.18-1.133-7.26-.35-2.08-.89-4.24.15-7.75,1.04-3.51,2.59-5.63,5.56-7.18,2.98-1.55,6.51-3.11,12.66-5.45,6.15-2.33,18.56-6.73,18.56-6.73l33.907,22.022,4.083,7.328Z" style="fill:none; stroke:#12171d; stroke-linecap:round; stroke-linejoin:round; stroke-width:2.5px;"/><path d="m272.775,116.211c-1.08,1.35-1.27,1.54-2.12,4.2-.35,1.1-10.226,30.336-14.63,48.32-.55,2.246-.926,5.849.32,7.55,0,0-.84.05-2.14-.83-1.3-.89-5.93-4.74-7.02-6.97-.67-.09-1.23-.41-2.69-1.36-1.47-.95-19.21-12.47-20.09-13.04-.88-.58-1.45-1.53-1.45-1.53,0,0-.75.23-2.31-.64-1.56-.86-4.28-2.48-5.78-3.46-1.51-.99-2.09-1.45-2.09-6.07s.9-9.7,4.51-19.08c5.03-13.07,4.63-12.49,9.66-15.73-.62-.52-1.31-1.25-.27-4.72,1.04-3.47,2.2-6.4,3.04-8.68.85-2.27,1.03-2.44,4.17-4.47,2.5-1.62,6.13-2.27,8.64-.63,1.96,1.26,4.03,2.61,4.86,3.15l-5.46,4.4,16.84,10.94s2.7-2.28,4.43-3.6c.79-.61,1.34-.61,2.02-.16.69.45,10.66,6.92,11.53,7.49.87.56.62,1.11.62,1.11-.47.11-1.74,1.11-2.43,1.54-.7.42-1.08.92-2.16,2.27Z" style="fill:none; stroke:#12171d; stroke-linecap:round; stroke-linejoin:round; stroke-width:2.5px;"/><path d="m246.017,82.225c.779-.283,1.64-.23,2.378.147,2.267,1.158,7.609,4.055,11.306,7.385.53.477.917,1.095,1.111,1.781.6,2.112,1.833,7.176,1.554,12.328-.026.484-.25.936-.618,1.25-.886.755-2.63,2.213-3.895,3.092-1.765,1.226-2.554,1.331-4.755-.098s-7.138-4.635-9.625-6.25-4.151-4.78-3.808-7.918c.213-1.944.764-4.828,1.152-6.741.3-1.477,1.181-2.772,2.445-3.592.747-.485,1.678-.992,2.755-1.384Z" style="fill:none; stroke:#12171d; stroke-linecap:round; stroke-linejoin:round; stroke-width:2.5px;"/><path d="m247.184,168.485c-.636-2.255-.231-4.972,1.677-10.87s3.932-11.274,4.799-14.339,1.503-5.435.116-9.482c-1.388-4.047-2.313-5.03-4.452-6.533s-7.112-4.799-9.251-5.897-3.7-.173-5.493.463-2.891,1.445-3.874,3.527-5.027,13.086-6.533,17.808c-2.206,6.916-1.284,9.35-1.284,9.35" style="fill:none; stroke:#12171d; stroke-linecap:round; stroke-linejoin:round; stroke-width:2.5px;"/><path d="m226.948,107.575c.442.287,1.065.774,4.448.478,4.487-.392,5.342-.819,6.731-1.674s2.168-1.314,3.882-.499c4.416,2.101,11.218,6.953,13.32,8.761,1.531,1.318,1.994,2.172,2.6,4.523s.463,3.17,2.208,7.337,2.014,4.405,3.348,5.271l1.892,1.228c.332.216.718.326,1.109.321" style="fill:none; stroke:#12171d; stroke-linecap:round; stroke-linejoin:round; stroke-width:2.5px;"/><path d="m208.914,184.84c1.116.737,2.568.726,3.672-.028,1.363-.93,2.515-1.318,4.78-2.213,4.78-1.889,15.688-6.206,16.921-6.745s1.748-1.421,1.825-3.426-.069-2.661-2.15-4.164-8.364-5.705-10.407-6.745c-2.043-1.041-2.646-1.023-5.959-1.429-4.086-.501-5.858-.27-7.978.385s-15.457,5.666-18.116,6.668c-1.496.564-2.626,1.103-3.479,1.638-.823.516-.836,1.712-.025,2.247l20.916,13.812Z" style="fill:none; stroke:#12171d; stroke-linecap:round; stroke-linejoin:round; stroke-width:2.5px;"/><path d="m219.087,197.245c-.579.025-1.252-.028-1.71-.326-17.136-11.128-31.948-20.747-32.741-21.262-1.608-1.044-2.381-2.402-2.786-5.003s-.478-4.183.157-5.636" style="fill:none; stroke:#12171d; stroke-linecap:round; stroke-linejoin:round; stroke-width:2.5px;"/><path d="m256.345,176.281s-16.96,6.68-22.61,8.86c-5.66,2.18-6.74,3.12-9.59,5.53-3.67,3.09-3.47,3.08-4.41,4.99-.94,1.92-.73,1.93-.73,3.7l1.003,7.24-.03.03c-.43.23-1.332.395-1.752.125-4.02-2.62-26.439-17.195-28.479-18.515-3.21-2.09-5.02-3.46-6.11-4.64,0-.01-.01-.02-.02-.03-.19-.26-.79-1.16-1.06-2.27-.21-.85-.793-5.18-1.133-7.26-.35-2.08-.89-4.24.15-7.75,1.04-3.51,2.59-5.63,5.56-7.18,2.98-1.55,6.51-3.11,12.66-5.45,6.15-2.33,18.56-6.73,18.56-6.73l33.907,22.022,4.083,7.328Z" style="fill:#d3d5d6; stroke:#000001; stroke-linecap:round; stroke-linejoin:round; stroke-width:.5px;"/><path d="m272.775,116.211c-1.08,1.35-1.27,1.54-2.12,4.2-.35,1.1-10.226,30.336-14.63,48.32-.55,2.246-.926,5.849.32,7.55,0,0-.84.05-2.14-.83-1.3-.89-5.93-4.74-7.02-6.97-.67-.09-1.23-.41-2.69-1.36-1.47-.95-19.21-12.47-20.09-13.04-.88-.58-1.45-1.53-1.45-1.53,0,0-.75.23-2.31-.64-1.56-.86-4.28-2.48-5.78-3.46-1.51-.99-2.09-1.45-2.09-6.07s.9-9.7,4.51-19.08c5.03-13.07,4.63-12.49,9.66-15.73-.62-.52-1.31-1.25-.27-4.72,1.04-3.47,2.2-6.4,3.04-8.68.85-2.27,1.03-2.44,4.17-4.47,2.5-1.62,6.13-2.27,8.64-.63,1.96,1.26,4.03,2.61,4.86,3.15l-5.46,4.4,16.84,10.94s2.7-2.28,4.43-3.6c.79-.61,1.34-.61,2.02-.16.69.45,10.66,6.92,11.53,7.49.87.56.62,1.11.62,1.11-.47.11-1.74,1.11-2.43,1.54-.7.42-1.08.92-2.16,2.27Z" style="fill:#d3d5d6; stroke:#000001; stroke-linecap:round; stroke-linejoin:round; stroke-width:.5px;"/><path d="m246.017,82.225c.779-.283,1.64-.23,2.378.147,2.267,1.158,7.609,4.055,11.306,7.385.53.477.917,1.095,1.111,1.781.6,2.112,1.833,7.176,1.554,12.328-.026.484-.25.936-.618,1.25-.886.755-2.63,2.213-3.895,3.092-1.765,1.226-2.554,1.331-4.755-.098s-7.138-4.635-9.625-6.25-4.151-4.78-3.808-7.918c.213-1.944.764-4.828,1.152-6.741.3-1.477,1.181-2.772,2.445-3.592.747-.485,1.678-.992,2.755-1.384Z" style="fill:#d3d5d6; stroke:#000001; stroke-linecap:round; stroke-linejoin:round; stroke-width:.5px;"/><path d="m247.184,168.485c-.636-2.255-.231-4.972,1.677-10.87s3.932-11.274,4.799-14.339,1.503-5.435.116-9.482c-1.388-4.047-2.313-5.03-4.452-6.533s-7.112-4.799-9.251-5.897-3.7-.173-5.493.463-2.891,1.445-3.874,3.527-5.027,13.086-6.533,17.808c-2.206,6.916-1.284,9.35-1.284,9.35" style="fill:none; stroke:#000001; stroke-linecap:round; stroke-linejoin:round; stroke-width:.5px;"/><path d="m226.948,107.575c.442.287,1.065.774,4.448.478,4.487-.392,5.342-.819,6.731-1.674s2.168-1.314,3.882-.499c4.416,2.101,11.218,6.953,13.32,8.761,1.531,1.318,1.994,2.172,2.6,4.523s.463,3.17,2.208,7.337,2.014,4.405,3.348,5.271l1.892,1.228c.332.216.718.326,1.109.321" style="fill:none; stroke:#000001; stroke-linecap:round; stroke-linejoin:round; stroke-width:.5px;"/><path d="m208.914,184.84c1.116.737,2.568.726,3.672-.028,1.363-.93,2.515-1.318,4.78-2.213,4.78-1.889,15.688-6.206,16.921-6.745s1.748-1.421,1.825-3.426-.069-2.661-2.15-4.164-8.364-5.705-10.407-6.745c-2.043-1.041-2.646-1.023-5.959-1.429-4.086-.501-5.858-.27-7.978.385s-15.457,5.666-18.116,6.668c-1.496.564-2.626,1.103-3.479,1.638-.823.516-.836,1.712-.025,2.247l20.916,13.812Z" style="fill:none; stroke:#000001; stroke-linecap:round; stroke-linejoin:round; stroke-width:.5px;"/><path d="m219.087,197.245c-.579.025-1.252-.028-1.71-.326-17.136-11.128-31.948-20.747-32.741-21.262-1.608-1.044-2.381-2.402-2.786-5.003s-.478-4.183.157-5.636" style="fill:none; stroke:#000001; stroke-linecap:round; stroke-linejoin:round; stroke-width:.5px;"/><path d="m322.375,214.481l-2.027,6.382s-24.985,16.769-29.075,19.229c-4.08,2.46-5.204,3.09-11.224,3.09-5.78,0-7.038-.849-9.888-2.699-1.06-.69-18.186-11.775-32.286-20.935-.06-.04-.12-.08-.19-.12-.4-.26-.55-.63-.55-1.24v-7.046c0-1.77-.2-1.79.74-3.7.94-1.91.73-1.9,4.4-5,2.85-2.4,3.93-3.34,9.59-5.52,5.66-2.19,23.07-8.28,23.07-8.28l4.97-1.74,42.47,27.58Z" style="fill:none; stroke:#12171d; stroke-linecap:round; stroke-linejoin:round; stroke-width:2.5px;"/><path d="m336.795,157.811c-.36,3.18-.86,7.46-1.15,9.43-.29,1.96-1.1,2.83-1.1,2.83l-.46,1.68c.4,1.62.36,2.74-.34,6.11-.34,1.61-.68,2.99-1.11,4.33l-10.26,32.29c-.52,1.79-1.94,2.31-4.25,1.44-2.32-.87-4.86-3.24-5.96-4.11-1.1-.86-1.44-1.62-1.44-1.62,0,0-.66-.26-2.03-1.15-1.37-.89-19.71-12.81-20.86-13.55-.81-.53-1.23-1.02-1.41-1.27-.82.06-2.59-.7-6.64-2.64-4.66-2.24-5.2-3.43-5.2-3.43-.89-1.47-.5-4.9.12-7.36.61-2.47,6.7-23.44,7.86-27.14,1.16-3.7,3.7-5.01,3.7-5.01l.42-1.57-.35-.23c-.81-.53-1.17-1.52-.89-2.44.97-3.12,3.1-10.03,3.75-12.07.85-2.66,1.04-2.85,2.12-4.2,1.08-1.35,1.46-1.85,2.16-2.27.69-.43,1.96-1.43,2.43-1.54,0,0,.76-.1,1.41.32.53.35,8.65,5.62,8.65,5.62l-.17,4.53,18.99,12.33,2.04-1.65c.51-.41,1.22-.45,1.77-.09,6.24,4.08,8.64,8.52,8.2,12.43Z" style="fill:none; stroke:#12171d; stroke-linecap:round; stroke-linejoin:round; stroke-width:2.5px;"/><path d="m309.78,123.634c.779-.283,1.64-.23,2.378.147,2.267,1.158,7.609,4.055,11.306,7.385.53.477.917,1.095,1.111,1.781.6,2.112,1.833,7.176,1.554,12.328-.026.484-.25.936-.618,1.25-.886.755-2.63,2.213-3.895,3.092-1.765,1.226-2.554,1.331-4.755-.098s-7.138-4.635-9.625-6.25c-2.487-1.615-4.151-4.78-3.808-7.918.213-1.944.764-4.828,1.152-6.741.3-1.477,1.181-2.772,2.445-3.592.747-.485,1.678-.992,2.755-1.384Z" style="fill:none; stroke:#12171d; stroke-linecap:round; stroke-linejoin:round; stroke-width:2.5px;"/><path d="m286.334,146.842l2.574,1.672c1.355.88,2.139,1.248,5.763.824,3.623-.424,4.289-.791,5.974-1.735,1.927-1.079,2.274-1.272,4.78-.116,2.505,1.156,10.099,5.859,12.604,8.172s2.621,3.43,3.122,5.743.433,2.825,1.358,4.945,1.721,3.903,2.149,4.73c.523,1.009.782,1.085,1.497,1.329s1.719.426,2.465.548,1.659-.304,2.359-.73,2.541-1.476,2.906-1.719.713-.492.713-.492" style="fill:none; stroke:#12171d; stroke-linecap:round; stroke-linejoin:round; stroke-width:2.5px;"/><path d="m310.725,210.2c-.636-2.255-.231-4.972,1.677-10.87,1.908-5.897,3.932-11.274,4.799-14.339s1.503-5.435.116-9.482c-1.388-4.047-2.313-5.03-4.452-6.533-2.139-1.503-7.112-4.799-9.251-5.897s-3.7-.173-5.493.463c-1.792.636-2.891,1.445-3.874,3.527s-5.027,13.086-6.533,17.808c-2.206,6.916-1.284,9.35-1.284,9.35" style="fill:none; stroke:#12171d; stroke-linecap:round; stroke-linejoin:round; stroke-width:2.5px;"/><path d="m269.053,223.894c1.116.737,2.568.726,3.672-.028,1.363-.93,2.515-1.318,4.78-2.213,4.78-1.889,15.688-6.206,16.921-6.745s1.735-.925,1.812-2.929-.347-2.968-2.428-4.471-8.364-5.705-10.407-6.745c-2.043-1.041-3.818-1.213-7.131-1.619-4.086-.501-4.394-.27-6.514.385s-15.457,5.666-18.116,6.668c-1.496.564-2.626,1.103-3.479,1.638-.823.516-.836,1.712-.025,2.247l20.916,13.812Z" style="fill:none; stroke:#12171d; stroke-linecap:round; stroke-linejoin:round; stroke-width:2.5px;"/><path d="m322.374,214.488c-.58,1.825-1.146,2.073-5.694,3.846s-24.977,10.947-28.215,12.411-3.932,1.773-8.634,2.621-6.647-.205-8.942-1.696c-.942-.612-15.988-10.383-32.744-21.264-1.302-.846-.975-1.144-.975-1.144" style="fill:none; stroke:#12171d; stroke-linecap:round; stroke-linejoin:round; stroke-width:2.5px;"/><path d="m322.375,214.481l-2.027,6.382s-24.985,16.769-29.075,19.229c-4.08,2.46-5.204,3.09-11.224,3.09-5.78,0-7.038-.849-9.888-2.699-1.06-.69-18.186-11.775-32.286-20.935-.06-.04-.12-.08-.19-.12-.4-.26-.55-.63-.55-1.24v-7.046c0-1.77-.2-1.79.74-3.7.94-1.91.73-1.9,4.4-5,2.85-2.4,3.93-3.34,9.59-5.52,5.66-2.19,23.07-8.28,23.07-8.28l4.97-1.74,42.47,27.58Z" style="fill:#d3d5d6; stroke:#000001; stroke-linecap:round; stroke-linejoin:round; stroke-width:.5px;"/><path d="m336.795,157.811c-.36,3.18-.86,7.46-1.15,9.43-.29,1.96-1.1,2.83-1.1,2.83l-.46,1.68c.4,1.62.36,2.74-.34,6.11-.34,1.61-.68,2.99-1.11,4.33l-10.26,32.29c-.52,1.79-1.94,2.31-4.25,1.44-2.32-.87-4.86-3.24-5.96-4.11-1.1-.86-1.44-1.62-1.44-1.62,0,0-.66-.26-2.03-1.15-1.37-.89-19.71-12.81-20.86-13.55-.81-.53-1.23-1.02-1.41-1.27-.82.06-2.59-.7-6.64-2.64-4.66-2.24-5.2-3.43-5.2-3.43-.89-1.47-.5-4.9.12-7.36.61-2.47,6.7-23.44,7.86-27.14,1.16-3.7,3.7-5.01,3.7-5.01l.42-1.57-.35-.23c-.81-.53-1.17-1.52-.89-2.44.97-3.12,3.1-10.03,3.75-12.07.85-2.66,1.04-2.85,2.12-4.2,1.08-1.35,1.46-1.85,2.16-2.27.69-.43,1.96-1.43,2.43-1.54,0,0,.76-.1,1.41.32.53.35,8.65,5.62,8.65,5.62l-.17,4.53,18.99,12.33,2.04-1.65c.51-.41,1.22-.45,1.77-.09,6.24,4.08,8.64,8.52,8.2,12.43Z" style="fill:#d3d5d6; stroke:#000001; stroke-linecap:round; stroke-linejoin:round; stroke-width:.5px;"/><path d="m309.78,123.634c.779-.283,1.64-.23,2.378.147,2.267,1.158,7.609,4.055,11.306,7.385.53.477.917,1.095,1.111,1.781.6,2.112,1.833,7.176,1.554,12.328-.026.484-.25.936-.618,1.25-.886.755-2.63,2.213-3.895,3.092-1.765,1.226-2.554,1.331-4.755-.098s-7.138-4.635-9.625-6.25c-2.487-1.615-4.151-4.78-3.808-7.918.213-1.944.764-4.828,1.152-6.741.3-1.477,1.181-2.772,2.445-3.592.747-.485,1.678-.992,2.755-1.384Z" style="fill:#d3d5d6; stroke:#000001; stroke-linecap:round; stroke-linejoin:round; stroke-width:.5px;"/><path d="m286.334,146.842l2.574,1.672c1.355.88,2.139,1.248,5.763.824,3.623-.424,4.289-.791,5.974-1.735,1.927-1.079,2.274-1.272,4.78-.116,2.505,1.156,10.099,5.859,12.604,8.172s2.621,3.43,3.122,5.743.433,2.825,1.358,4.945,1.721,3.903,2.149,4.73c.523,1.009.782,1.085,1.497,1.329s1.719.426,2.465.548,1.659-.304,2.359-.73,2.541-1.476,2.906-1.719.713-.492.713-.492" style="fill:none; stroke:#000001; stroke-linecap:round; stroke-linejoin:round; stroke-width:.5px;"/><path d="m310.725,210.2c-.636-2.255-.231-4.972,1.677-10.87,1.908-5.897,3.932-11.274,4.799-14.339s1.503-5.435.116-9.482c-1.388-4.047-2.313-5.03-4.452-6.533-2.139-1.503-7.112-4.799-9.251-5.897s-3.7-.173-5.493.463c-1.792.636-2.891,1.445-3.874,3.527s-5.027,13.086-6.533,17.808c-2.206,6.916-1.284,9.35-1.284,9.35" style="fill:none; stroke:#000001; stroke-linecap:round; stroke-linejoin:round; stroke-width:.5px;"/><path d="m269.053,223.894c1.116.737,2.568.726,3.672-.028,1.363-.93,2.515-1.318,4.78-2.213,4.78-1.889,15.688-6.206,16.921-6.745s1.735-.925,1.812-2.929-.347-2.968-2.428-4.471-8.364-5.705-10.407-6.745c-2.043-1.041-3.818-1.213-7.131-1.619-4.086-.501-4.394-.27-6.514.385s-15.457,5.666-18.116,6.668c-1.496.564-2.626,1.103-3.479,1.638-.823.516-.836,1.712-.025,2.247l20.916,13.812Z" style="fill:none; stroke:#000001; stroke-linecap:round; stroke-linejoin:round; stroke-width:.5px;"/><path d="m322.374,214.488c-.58,1.825-1.146,2.073-5.694,3.846s-24.977,10.947-28.215,12.411-3.932,1.773-8.634,2.621-6.647-.205-8.942-1.696c-.942-.612-15.988-10.383-32.744-21.264-1.302-.846-.975-1.144-.975-1.144" style="fill:none; stroke:#000001; stroke-linecap:round; stroke-linejoin:round; stroke-width:.5px;"/><path d="m237.584,265.064l-33.519-21.767c-4.418,2.092-10.662,1.571-11.703,1.109s-2.024-.347-3.7-.116-9.977,1.477-15.829,3.514c-5.852,2.037-7.391,3.905-9.206,8.281-1.966,4.74-1.874,6.17-1.904,7.02-.041,1.156.043,2.942,1.026,4.605.831,1.407,5.206,5.25,11.089,9.246,5.156,3.502,11.766,7.718,17.157,9.24.584.165,1.193.24,1.825.24,3.546,0,7.776-2.381,11.886-4.695,1.531-.862,3.115-1.754,4.635-2.506,3.143-1.557,6.708-3.232,9.852-4.71,3.105-1.459,5.787-2.719,7.04-3.389l11.351-6.071Z" style="fill:none; stroke:#12171d; stroke-linecap:round; stroke-linejoin:round; stroke-width:2.5px;"/><path d="m240.983,180.968c1.988,6.179,3.151,7.67,5.769,11.65s4.647,7.561,4.945,11.619.33,5.16.33,6.592-.612,2.077-.612,2.077c0,0,1.076,1.684.074,5.963-1.002,4.278-5.974,23.705-6.668,26.326s-.578,3.7-.501,5.974.092,4.192-.308,5.281c-3.373,9.174-12.219,10.735-15.399,4.548,0,0-6.88-4.163-13.125-8.268-6.244-4.105-8.962-6.013-10.291-7.169-2.602.116-5.608-1.735-9.251-7.863s-4.452-7.401-2.717-13.067,4.625-14.05,7.863-19.889,7.169-7.805,7.169-7.805c0,0-.536-.93-.894-2.106s-.339-2.173.279-3.868,1.236-3.489,2.153-5.064,1.396-2.034,3.469-3.21c2.074-1.176,2.427-1.254,4.945-1.994,3.751-1.102,6.719-4.302,8.453-6.961,1.735-2.66,2.236-3.662,5.589-1.58,3.353,2.081,3.888,2.317,5.559,3.438,1.671,1.12,2.655,3.782,3.168,5.377Z" style="fill:none; stroke:#12171d; stroke-linecap:round; stroke-linejoin:round; stroke-width:2.5px;"/><path d="m222.851,187.494c-1.881-1.246-2.891-3.662-2.891-3.662-1.156-2.467-.964-3.315-.732-5.011s.655-3.893,1.041-5.242.771-2.621,3.585-4.201c2.814-1.58,3.392-1.657,5.358-.578,1.966,1.079,7.94,5.204,9.289,6.244s1.657,2.351,2.274,5.011c.617,2.66.925,4.317,1.118,5.473s.231,1.773-.308,2.929-.304,1.433-3.276,3.353c-4.356,2.814-4.538,2.915-6.731,1.463l-8.726-5.78Z" style="fill:none; stroke:#12171d; stroke-linecap:round; stroke-linejoin:round; stroke-width:2.5px;"/><path d="m226.358,265.508c-.52.694,0,1.041.752,1.85s1.445,2.139-1.041,3.469-10.581,4.972-16.883,8.094-13.182,8.326-18.097,6.938-10.927-5.03-17.056-9.193c-6.129-4.163-10.234-7.863-10.985-9.135s-1.33-4.452-1.33-4.452c0,0-.578,2.891-.578,5.319s.07,4.151.07,5.018.755,2.486,1.792,3.18.894,1.273.928,2.139c.072,1.851.311,2.994.311,2.994,0,0,4.27,3.993,11.065,8.405s13.699,7.873,13.699,7.873l3.272-1.543.106-1.463c3.777,1.144,6.809,1.117,9.177,1.33s5.639,1.968,10.72-.559,5.613-2.607,13.193-6.863c7.581-4.256,12.635-6.996,14.577-8.405s2.66-2.341,4.07-5.559c1.41-3.219,3.165-7.687,3.777-10.108s-.372-4.176-1.41-5.586-2.261-2.74-3.086-3.458-2.048-1.463-4.017.08c-1.728,1.355-5.553,4.427-6.628,5.354-1.388,1.195-2.001,1.567-3.506.764-1.383,1.596-2.873,3.405-2.873,3.405" style="fill:none; stroke:#12171d; stroke-linecap:round; stroke-linejoin:round; stroke-width:2.5px;"/><path d="m247.897,264.84c.499-1.691.108-3.809-1.313-4.563-1.421-.754-3.364-.058-5.838,3.722-3.295,5.033-8.374,12.263-11.786,16.889-3.411,4.625-4.508,4.913-9.381,7.478-1.845.971-4.515,2.33-7.234,3.35s-12.818,3.593-21.897-.049c-9.079-3.641-23.644-14.226-25.975-16.119-2.33-1.893-3.317-3.411-3.322-5.07" style="fill:none; stroke:#12171d; stroke-linecap:round; stroke-linejoin:round; stroke-width:2.5px;"/><path d="m208.261,196.937c.19.387.774.993,4.384,1.266,4.223.32,4.365-.148,6.191-1.746.902-.789,1.681-1.354,2.99-.708,3.743,1.849,9.016,5.752,10.636,6.893s2.282,2.237,2.693,3.835.593,2.374.89,3.675.525,1.872,1.278,3.218,1.484,2.419,1.917,3.15.776,1.347,1.803,1.666,1.552.456,2.397.639,1.301-.205,2.237-.867,2.511-1.849,3.492-2.807,1.749-1.658,2.244-2.244" style="fill:none; stroke:#12171d; stroke-linecap:round; stroke-linejoin:round; stroke-width:2.5px;"/><path d="m205.197,245.561c-.964-.79-1.715-3.84-.809-7.728,2.236-9.598,6.843-22.424,8.094-25.324.848-1.966,2.12-3.007,4.356-3.623s3.246-.501,4.433.27c1.895,1.23,7.153,4.645,8.23,5.345s2.524,1.671,3.642,4.985,1.696,4.818,1.002,7.94-2.814,10.677-5.088,18.463c-2.274,7.786-2.236,12.296-.443,15.11" style="fill:none; stroke:#12171d; stroke-linecap:round; stroke-linejoin:round; stroke-width:2.5px;"/><path d="m195.831,277.303c2.66-1.272,15.418-6.745,18.039-8.094s3.238-1.465,2.737-3.777-.694-2.737-2.737-4.124c-1.68-1.141-9.945-6.591-11.872-7.632-1.927-1.041-2.682-1.526-6.052-1.966-3.757-.49-4.515-.588-7.615.156-5.936,1.426-19.396,7.565-20.938,8.298-2.185,1.038-3.675,3.293,9.54,11.875,13.194,8.568,16.238,6.536,18.897,5.264Z" style="fill:none; stroke:#12171d; stroke-linecap:round; stroke-linejoin:round; stroke-width:2.5px;"/><path d="m192.384,295.004c-1.572-.469-3.795-1.346-3.795-1.346" style="fill:none; stroke:#12171d; stroke-linecap:round; stroke-linejoin:round; stroke-width:2.5px;"/><path d="m206.961,288.325c.135.202.392.283.618.194,1.523-.596,7.343-2.955,11.858-5.906.438-.287.752-.729.878-1.237.197-.795.491-2.078.669-3.289.021-.143-.032-.288-.14-.384s-.258-.131-.398-.092c-1.535.421-5.8,1.701-11.562,4.318-.642.292-1.202.745-1.618,1.315-.305.418-.677.955-1.04,1.547-.318.518-.382,1.156-.175,1.727.183.503.471,1.152.909,1.808Z" style="fill:none; stroke:#12171d; stroke-linecap:round; stroke-linejoin:round; stroke-width:2.5px;"/><path d="m246.761,217.165c.913,1.55,2.724,3.219,1.384,7.384-1.34,4.165-6.43,20.223-7.449,22.941s-.4,4.283-.026,7.643" style="fill:none; stroke:#12171d; stroke-linecap:round; stroke-linejoin:round; stroke-width:2.5px;"/><path d="m239.74,190.833s1.875,1.185,3.327,2.223,1.971,1.919,2.956,3.786,1.555,3.327,2.308,5.087,1.064,3.005,1.012,6.117-.104,4.564-.259,5.602-.206,1.826-.949,2.429" style="fill:none; stroke:#12171d; stroke-linecap:round; stroke-linejoin:round; stroke-width:2.5px;"/><path d="m237.584,265.064l-33.519-21.767c-4.418,2.092-10.662,1.571-11.703,1.109s-2.024-.347-3.7-.116-9.977,1.477-15.829,3.514c-5.852,2.037-7.391,3.905-9.206,8.281-1.966,4.74-1.874,6.17-1.904,7.02-.041,1.156.043,2.942,1.026,4.605.831,1.407,5.206,5.25,11.089,9.246,5.156,3.502,11.766,7.718,17.157,9.24.584.165,1.193.24,1.825.24,3.546,0,7.776-2.381,11.886-4.695,1.531-.862,3.115-1.754,4.635-2.506,3.143-1.557,6.708-3.232,9.852-4.71,3.105-1.459,5.787-2.719,7.04-3.389l11.351-6.071Z" style="fill:#d3d5d6; stroke:#000001; stroke-linecap:round; stroke-linejoin:round; stroke-width:.5px;"/><path d="m240.983,180.968c1.988,6.179,3.151,7.67,5.769,11.65s4.647,7.561,4.945,11.619.33,5.16.33,6.592-.612,2.077-.612,2.077c0,0,1.076,1.684.074,5.963-1.002,4.278-5.974,23.705-6.668,26.326s-.578,3.7-.501,5.974.092,4.192-.308,5.281c-3.373,9.174-12.219,10.735-15.399,4.548,0,0-6.88-4.163-13.125-8.268-6.244-4.105-8.962-6.013-10.291-7.169-2.602.116-5.608-1.735-9.251-7.863s-4.452-7.401-2.717-13.067,4.625-14.05,7.863-19.889,7.169-7.805,7.169-7.805c0,0-.536-.93-.894-2.106s-.339-2.173.279-3.868,1.236-3.489,2.153-5.064,1.396-2.034,3.469-3.21c2.074-1.176,2.427-1.254,4.945-1.994,3.751-1.102,6.719-4.302,8.453-6.961,1.735-2.66,2.236-3.662,5.589-1.58,3.353,2.081,3.888,2.317,5.559,3.438,1.671,1.12,2.655,3.782,3.168,5.377Z" style="fill:#d3d5d6; stroke:#000001; stroke-linecap:round; stroke-linejoin:round; stroke-width:.5px;"/><path d="m222.851,187.494c-1.881-1.246-2.891-3.662-2.891-3.662-1.156-2.467-.964-3.315-.732-5.011s.655-3.893,1.041-5.242.771-2.621,3.585-4.201c2.814-1.58,3.392-1.657,5.358-.578,1.966,1.079,7.94,5.204,9.289,6.244s1.657,2.351,2.274,5.011c.617,2.66.925,4.317,1.118,5.473s.231,1.773-.308,2.929-.304,1.433-3.276,3.353c-4.356,2.814-4.538,2.915-6.731,1.463l-8.726-5.78Z" style="fill:#d3d5d6; stroke:#000001; stroke-linecap:round; stroke-linejoin:round; stroke-width:.5px;"/><path d="m226.358,265.508c-.52.694,0,1.041.752,1.85s1.445,2.139-1.041,3.469-10.581,4.972-16.883,8.094-13.182,8.326-18.097,6.938-10.927-5.03-17.056-9.193c-6.129-4.163-10.234-7.863-10.985-9.135s-1.33-4.452-1.33-4.452c0,0-.578,2.891-.578,5.319s.07,4.151.07,5.018.755,2.486,1.792,3.18.894,1.273.928,2.139c.072,1.851.311,2.994.311,2.994,0,0,4.27,3.993,11.065,8.405s13.699,7.873,13.699,7.873l3.272-1.543.106-1.463c3.777,1.144,6.809,1.117,9.177,1.33s5.639,1.968,10.72-.559,5.613-2.607,13.193-6.863c7.581-4.256,12.635-6.996,14.577-8.405s2.66-2.341,4.07-5.559c1.41-3.219,3.165-7.687,3.777-10.108s-.372-4.176-1.41-5.586-2.261-2.74-3.086-3.458-2.048-1.463-4.017.08c-1.728,1.355-5.553,4.427-6.628,5.354-1.388,1.195-2.001,1.567-3.506.764-1.383,1.596-2.873,3.405-2.873,3.405" style="fill:#d3d5d6; stroke:#000001; stroke-linecap:round; stroke-linejoin:round; stroke-width:.5px;"/><path d="m247.897,264.84c.499-1.691.108-3.809-1.313-4.563-1.421-.754-3.364-.058-5.838,3.722-3.295,5.033-8.374,12.263-11.786,16.889-3.411,4.625-4.508,4.913-9.381,7.478-1.845.971-4.515,2.33-7.234,3.35s-12.818,3.593-21.897-.049c-9.079-3.641-23.644-14.226-25.975-16.119-2.33-1.893-3.317-3.411-3.322-5.07" style="fill:none; stroke:#000001; stroke-linecap:round; stroke-linejoin:round; stroke-width:.5px;"/><path d="m208.261,196.937c.19.387.774.993,4.384,1.266,4.223.32,4.365-.148,6.191-1.746.902-.789,1.681-1.354,2.99-.708,3.743,1.849,9.016,5.752,10.636,6.893s2.282,2.237,2.693,3.835.593,2.374.89,3.675.525,1.872,1.278,3.218,1.484,2.419,1.917,3.15.776,1.347,1.803,1.666,1.552.456,2.397.639,1.301-.205,2.237-.867,2.511-1.849,3.492-2.807,1.749-1.658,2.244-2.244" style="fill:none; stroke:#000001; stroke-linecap:round; stroke-linejoin:round; stroke-width:.5px;"/><path d="m205.197,245.561c-.964-.79-1.715-3.84-.809-7.728,2.236-9.598,6.843-22.424,8.094-25.324.848-1.966,2.12-3.007,4.356-3.623s3.246-.501,4.433.27c1.895,1.23,7.153,4.645,8.23,5.345s2.524,1.671,3.642,4.985,1.696,4.818,1.002,7.94-2.814,10.677-5.088,18.463c-2.274,7.786-2.236,12.296-.443,15.11" style="fill:none; stroke:#000001; stroke-linecap:round; stroke-linejoin:round; stroke-width:.5px;"/><path d="m195.831,277.303c2.66-1.272,15.418-6.745,18.039-8.094s3.238-1.465,2.737-3.777-.694-2.737-2.737-4.124c-1.68-1.141-9.945-6.591-11.872-7.632-1.927-1.041-2.682-1.526-6.052-1.966-3.757-.49-4.515-.588-7.615.156-5.936,1.426-19.396,7.565-20.938,8.298-2.185,1.038-3.675,3.293,9.54,11.875,13.194,8.568,16.238,6.536,18.897,5.264Z" style="fill:none; stroke:#000001; stroke-linecap:round; stroke-linejoin:round; stroke-width:.5px;"/><path d="m192.384,295.004c-1.572-.469-3.795-1.346-3.795-1.346" style="fill:none; stroke:#000001; stroke-linecap:round; stroke-linejoin:round; stroke-width:.5px;"/><path d="m206.961,288.325c.135.202.392.283.618.194,1.523-.596,7.343-2.955,11.858-5.906.438-.287.752-.729.878-1.237.197-.795.491-2.078.669-3.289.021-.143-.032-.288-.14-.384s-.258-.131-.398-.092c-1.535.421-5.8,1.701-11.562,4.318-.642.292-1.202.745-1.618,1.315-.305.418-.677.955-1.04,1.547-.318.518-.382,1.156-.175,1.727.183.503.471,1.152.909,1.808Z" style="fill:none; stroke:#000001; stroke-linecap:round; stroke-linejoin:round; stroke-width:.5px;"/><path d="m246.761,217.165c.913,1.55,2.724,3.219,1.384,7.384-1.34,4.165-6.43,20.223-7.449,22.941s-.4,4.283-.026,7.643" style="fill:none; stroke:#000001; stroke-linecap:round; stroke-linejoin:round; stroke-width:.5px;"/><path d="m239.74,190.833s1.875,1.185,3.327,2.223,1.971,1.919,2.956,3.786,1.555,3.327,2.308,5.087,1.064,3.005,1.012,6.117-.104,4.564-.259,5.602-.206,1.826-.949,2.429" style="fill:none; stroke:#000001; stroke-linecap:round; stroke-linejoin:round; stroke-width:.5px;"/><path d="m179.38,227.162l-33.519-21.767c-4.418,2.092-10.662,1.571-11.703,1.109s-2.024-.347-3.7-.116-9.977,1.477-15.829,3.514c-5.852,2.037-7.391,3.905-9.206,8.281-1.966,4.74-1.874,6.17-1.904,7.02-.041,1.156.043,2.942,1.026,4.605.831,1.407,5.206,5.25,11.089,9.246,5.156,3.502,11.766,7.718,17.157,9.24.584.165,1.193.24,1.825.24,3.546,0,7.776-2.381,11.886-4.695,1.531-.862,3.115-1.754,4.635-2.506,3.143-1.557,6.708-3.232,9.852-4.71,3.105-1.459,5.787-2.719,7.04-3.389l11.351-6.071Z" style="fill:none; stroke:#12171d; stroke-linecap:round; stroke-linejoin:round; stroke-width:2.5px;"/><path d="m182.779,143.066c1.988,6.179,3.151,7.67,5.769,11.65s4.647,7.561,4.945,11.619.33,5.16.33,6.592-.612,2.077-.612,2.077c0,0,1.076,1.684.074,5.963-1.002,4.278-5.974,23.705-6.668,26.326s-.578,3.7-.501,5.974.092,4.192-.308,5.281c-3.373,9.174-12.219,10.735-15.399,4.548,0,0-6.88-4.163-13.125-8.268-6.244-4.105-8.962-6.013-10.291-7.169-2.602.116-5.608-1.735-9.251-7.863-3.642-6.129-4.452-7.401-2.717-13.067,1.735-5.666,4.625-14.05,7.863-19.889,3.238-5.84,7.169-7.805,7.169-7.805,0,0-.536-.93-.894-2.106s-.339-2.173.279-3.868,1.236-3.489,2.153-5.064,1.396-2.034,3.469-3.21c2.074-1.176,2.427-1.254,4.945-1.994,3.751-1.102,6.719-4.302,8.453-6.961,1.735-2.66,2.236-3.662,5.589-1.58,3.353,2.081,3.888,2.317,5.559,3.438s2.655,3.782,3.168,5.377Z" style="fill:none; stroke:#12171d; stroke-linecap:round; stroke-linejoin:round; stroke-width:2.5px;"/><path d="m164.647,149.592c-1.881-1.246-2.891-3.662-2.891-3.662-1.156-2.467-.964-3.315-.732-5.011s.655-3.893,1.041-5.242.771-2.621,3.585-4.201c2.814-1.58,3.392-1.657,5.358-.578,1.966,1.079,7.94,5.204,9.289,6.244s1.657,2.351,2.274,5.011.925,4.317,1.118,5.473.231,1.773-.308,2.929-.304,1.433-3.276,3.353c-4.356,2.814-4.538,2.915-6.731,1.463l-8.726-5.78Z" style="fill:none; stroke:#12171d; stroke-linecap:round; stroke-linejoin:round; stroke-width:2.5px;"/><path d="m150.058,159.035c.19.387.774.993,4.384,1.266,4.223.32,4.365-.148,6.191-1.746.902-.789,1.681-1.354,2.99-.708,3.743,1.849,9.016,5.752,10.636,6.893s2.282,2.237,2.693,3.835.593,2.374.89,3.675.525,1.872,1.278,3.218,1.484,2.419,1.917,3.15.776,1.347,1.803,1.666,1.552.456,2.397.639,1.301-.205,2.237-.867,2.511-1.849,3.492-2.807,1.749-1.658,2.244-2.244" style="fill:none; stroke:#12171d; stroke-linecap:round; stroke-linejoin:round; stroke-width:2.5px;"/><path d="m146.993,207.66c-.964-.79-1.715-3.84-.809-7.728,2.236-9.598,6.843-22.424,8.094-25.324.848-1.966,2.12-3.007,4.356-3.623s3.246-.501,4.433.27c1.895,1.23,7.153,4.645,8.23,5.345s2.524,1.671,3.642,4.985,1.696,4.818,1.002,7.94-2.814,10.677-5.088,18.463-2.236,12.296-.443,15.11" style="fill:none; stroke:#12171d; stroke-linecap:round; stroke-linejoin:round; stroke-width:2.5px;"/><path d="m137.627,239.401c2.66-1.272,15.418-6.745,18.039-8.094,2.621-1.349,3.238-1.465,2.737-3.777s-.694-2.737-2.737-4.124c-1.68-1.141-9.945-6.591-11.872-7.632-1.927-1.041-2.682-1.526-6.052-1.966-3.757-.49-4.515-.588-7.615.156-5.936,1.426-19.396,7.565-20.938,8.298-2.185,1.038-3.675,3.293,9.54,11.875,13.194,8.568,16.238,6.536,18.897,5.264Z" style="fill:none; stroke:#12171d; stroke-linecap:round; stroke-linejoin:round; stroke-width:2.5px;"/><path d="m167.607,229.951c-.194-.075-.34-.24-.39-.442s0-.416.137-.574l3.796-4.379c.276-.318.695-.474,1.112-.413l.971.142c.533.078,1.072-.086,1.472-.447,1.231-1.109,4.02-3.588,6.099-5.174,2.265-1.729,3.489-1.837,4.311-1.194s1.204,1.013,1.644,1.568,1.185,2.39-.019,5.41-3.355,7.971-3.694,8.825c-.199.5-.235.763-.88,1.192-2.64,1.76-30.132,20.348-30.912,20.868s-1.185.52-1.937.549-2.139.058-2.833.058-1.423-.096-3.585.491c-4.365,1.185-8.412.434-8.412.434l-.087,1.503s-1.667.885-2.271,1.237c-.851.497-1.471.235-2.528-.312-7.545-3.903-16.94-10.118-22.202-14.715-1.224-1.069-1.099-1.156-1.156-2.197s-.116-1.648-.145-2.024-.234-1.092-.838-1.763c-1.561-1.735-2.689-3.209-2.689-5.377v-5.666c0-2.168,1.056-3.765,1.056-3.765-.115,1.751-.468,3.215,1.498,5.567,1.966,2.351,5.793,5.86,12.142,9.983,6.349,4.123,11.602,6.861,14.185,7.825,2.583.964,5.512,1.426,10.947-1.619,5.435-3.045,12.604-6.63,18.617-9.444,4.204-1.967,6.656-3.181,7.751-3.733.407-.205.625-.659.531-1.105h0c-.095-.446-.407-.813-.832-.977l-.858-.332Z" style="fill:none; stroke:#12171d; stroke-linecap:round; stroke-linejoin:round; stroke-width:2.5px;"/><path d="m186.759,219.037c-1.035-1.071-3.479-.424-5.931,2.291s-5.386,6.217-5.386,6.217l1.314,5.035s-25.133,16.551-29.292,18.959c-4.16,2.408-10.071,3.065-14.756,1.051-2.241-.963-9.119-3.942-15.062-7.969-9.37-6.349-12.222-9.518-13.067-10.523-1.62-1.927-2.008-3.056-2.008-4.802" style="fill:none; stroke:#12171d; stroke-linecap:round; stroke-linejoin:round; stroke-width:2.5px;"/><path d="m179.38,227.162l-33.519-21.767c-4.418,2.092-10.662,1.571-11.703,1.109s-2.024-.347-3.7-.116-9.977,1.477-15.829,3.514c-5.852,2.037-7.391,3.905-9.206,8.281-1.966,4.74-1.874,6.17-1.904,7.02-.041,1.156.043,2.942,1.026,4.605.831,1.407,5.206,5.25,11.089,9.246,5.156,3.502,11.766,7.718,17.157,9.24.584.165,1.193.24,1.825.24,3.546,0,7.776-2.381,11.886-4.695,1.531-.862,3.115-1.754,4.635-2.506,3.143-1.557,6.708-3.232,9.852-4.71,3.105-1.459,5.787-2.719,7.04-3.389l11.351-6.071Z" style="fill:#d3d5d6; stroke:#000001; stroke-linecap:round; stroke-linejoin:round; stroke-width:.5px;"/><path d="m182.779,143.066c1.988,6.179,3.151,7.67,5.769,11.65s4.647,7.561,4.945,11.619.33,5.16.33,6.592-.612,2.077-.612,2.077c0,0,1.076,1.684.074,5.963-1.002,4.278-5.974,23.705-6.668,26.326s-.578,3.7-.501,5.974.092,4.192-.308,5.281c-3.373,9.174-12.219,10.735-15.399,4.548,0,0-6.88-4.163-13.125-8.268-6.244-4.105-8.962-6.013-10.291-7.169-2.602.116-5.608-1.735-9.251-7.863-3.642-6.129-4.452-7.401-2.717-13.067,1.735-5.666,4.625-14.05,7.863-19.889,3.238-5.84,7.169-7.805,7.169-7.805,0,0-.536-.93-.894-2.106s-.339-2.173.279-3.868,1.236-3.489,2.153-5.064,1.396-2.034,3.469-3.21c2.074-1.176,2.427-1.254,4.945-1.994,3.751-1.102,6.719-4.302,8.453-6.961,1.735-2.66,2.236-3.662,5.589-1.58,3.353,2.081,3.888,2.317,5.559,3.438s2.655,3.782,3.168,5.377Z" style="fill:#d3d5d6; stroke:#000001; stroke-linecap:round; stroke-linejoin:round; stroke-width:.5px;"/><path d="m164.647,149.592c-1.881-1.246-2.891-3.662-2.891-3.662-1.156-2.467-.964-3.315-.732-5.011s.655-3.893,1.041-5.242.771-2.621,3.585-4.201c2.814-1.58,3.392-1.657,5.358-.578,1.966,1.079,7.94,5.204,9.289,6.244s1.657,2.351,2.274,5.011.925,4.317,1.118,5.473.231,1.773-.308,2.929-.304,1.433-3.276,3.353c-4.356,2.814-4.538,2.915-6.731,1.463l-8.726-5.78Z" style="fill:#d3d5d6; stroke:#000001; stroke-linecap:round; stroke-linejoin:round; stroke-width:.5px;"/><path d="m150.058,159.035c.19.387.774.993,4.384,1.266,4.223.32,4.365-.148,6.191-1.746.902-.789,1.681-1.354,2.99-.708,3.743,1.849,9.016,5.752,10.636,6.893s2.282,2.237,2.693,3.835.593,2.374.89,3.675.525,1.872,1.278,3.218,1.484,2.419,1.917,3.15.776,1.347,1.803,1.666,1.552.456,2.397.639,1.301-.205,2.237-.867,2.511-1.849,3.492-2.807,1.749-1.658,2.244-2.244" style="fill:none; stroke:#000001; stroke-linecap:round; stroke-linejoin:round; stroke-width:.5px;"/><path d="m146.993,207.66c-.964-.79-1.715-3.84-.809-7.728,2.236-9.598,6.843-22.424,8.094-25.324.848-1.966,2.12-3.007,4.356-3.623s3.246-.501,4.433.27c1.895,1.23,7.153,4.645,8.23,5.345s2.524,1.671,3.642,4.985,1.696,4.818,1.002,7.94-2.814,10.677-5.088,18.463-2.236,12.296-.443,15.11" style="fill:none; stroke:#000001; stroke-linecap:round; stroke-linejoin:round; stroke-width:.5px;"/><path d="m137.627,239.401c2.66-1.272,15.418-6.745,18.039-8.094,2.621-1.349,3.238-1.465,2.737-3.777s-.694-2.737-2.737-4.124c-1.68-1.141-9.945-6.591-11.872-7.632-1.927-1.041-2.682-1.526-6.052-1.966-3.757-.49-4.515-.588-7.615.156-5.936,1.426-19.396,7.565-20.938,8.298-2.185,1.038-3.675,3.293,9.54,11.875,13.194,8.568,16.238,6.536,18.897,5.264Z" style="fill:none; stroke:#000001; stroke-linecap:round; stroke-linejoin:round; stroke-width:.5px;"/><path d="m167.607,229.951c-.194-.075-.34-.24-.39-.442s0-.416.137-.574l3.796-4.379c.276-.318.695-.474,1.112-.413l.971.142c.533.078,1.072-.086,1.472-.447,1.231-1.109,4.02-3.588,6.099-5.174,2.265-1.729,3.489-1.837,4.311-1.194s1.204,1.013,1.644,1.568,1.185,2.39-.019,5.41-3.355,7.971-3.694,8.825c-.199.5-.235.763-.88,1.192-2.64,1.76-30.132,20.348-30.912,20.868s-1.185.52-1.937.549-2.139.058-2.833.058-1.423-.096-3.585.491c-4.365,1.185-8.412.434-8.412.434l-.087,1.503s-1.667.885-2.271,1.237c-.851.497-1.471.235-2.528-.312-7.545-3.903-16.94-10.118-22.202-14.715-1.224-1.069-1.099-1.156-1.156-2.197s-.116-1.648-.145-2.024-.234-1.092-.838-1.763c-1.561-1.735-2.689-3.209-2.689-5.377v-5.666c0-2.168,1.056-3.765,1.056-3.765-.115,1.751-.468,3.215,1.498,5.567,1.966,2.351,5.793,5.86,12.142,9.983,6.349,4.123,11.602,6.861,14.185,7.825,2.583.964,5.512,1.426,10.947-1.619,5.435-3.045,12.604-6.63,18.617-9.444,4.204-1.967,6.656-3.181,7.751-3.733.407-.205.625-.659.531-1.105h0c-.095-.446-.407-.813-.832-.977l-.858-.332Z" style="fill:#d3d5d6; stroke:#000001; stroke-linecap:round; stroke-linejoin:round; stroke-width:.5px;"/><path d="m186.759,219.037c-1.035-1.071-3.479-.424-5.931,2.291s-5.386,6.217-5.386,6.217l1.314,5.035s-25.133,16.551-29.292,18.959c-4.16,2.408-10.071,3.065-14.756,1.051-2.241-.963-9.119-3.942-15.062-7.969-9.37-6.349-12.222-9.518-13.067-10.523-1.62-1.927-2.008-3.056-2.008-4.802" style="fill:none; stroke:#000001; stroke-linecap:round; stroke-linejoin:round; stroke-width:.5px;"/></g><g id="uuid-a30b5c2d-9b8d-4748-9193-19f40eac824a"><path d="m337.879,110.235c.858,1.899,1.034,3.876-.686,8.558s-2.808,6.598-2.808,6.598" style="fill:none; stroke:#a7abae; stroke-linecap:round; stroke-linejoin:round; stroke-width:.5px;"/><path d="m332.993,132.166c4.783-2.788,8.736-3.289,10.663,2.746,0,0,4.124,12.508,4.124,12.508l8.255,24.989c.567,1.423,1.185,3.095,2.671,3.688,2.679.455,4.865-1.871,7.114-3.148,10.978-7.259,21.78-14.781,32.543-22.356,25.243-18.056,52.567-37.096,78.111-54.85,2.583-1.871,7.374-4.926,7.553.674.029.338-.445.384-.495.067-.115-5.087-4.414-1.923-6.77-.305-25.502,17.848-52.79,36.852-78.068,54.884-10.772,7.569-21.585,15.086-32.574,22.34-2.565,1.489-6.296,5.174-9.017,2.174-1.283-.42-9.055-26.347-9.809-27.995,0,0-4.11-12.499-4.11-12.499-1.773-5.808-5.522-5.046-10.191-2.917h0Z" style="fill:#a7abae; stroke-width:0px;"/><path d="m484.605,93.406l-.828,3.039c-13.53,11.587-12.153,10.421-12.831,10.99-.777.651-1.132,1.679-.924,2.672.345,1.646.837,3.986,1.023,4.628.086.297.336.517.642.563l1.792.273c.229.035.461-.032.636-.183,1.275-1.1,6.671-5.819,10.528-10.173l.657-3.578" style="fill:none; stroke:#a7abae; stroke-linecap:round; stroke-linejoin:round; stroke-width:.5px;"/><path d="m483.961,123.835c-6.28,22.405-6.192,22.78-13.361,33.072-6.14,8.814-12.217,16.349-14.528,19.122" style="fill:none; stroke:#a7abae; stroke-linecap:round; stroke-linejoin:round; stroke-width:.5px;"/><path d="m457.63,182.323s13.085-17.669,17.826-25.301c4.741-7.632,5.229-8.841,7.054-16.883,1.451-6.395,1.794-13.853,1.363-15.625" style="fill:none; stroke:#a7abae; stroke-linecap:round; stroke-linejoin:round; stroke-width:.5px;"/><path d="m169.374,293.865l-3.886,8.519c-.081.178-.261.279-.445.269-6.553-.332-12.861-1.903-19.108-3.739-31.066-9.612-58.056-28.746-83.14-48.929-7.466-6.187-14.775-12.67-21.102-20.048-2.113-2.537-4.158-5.015-5.634-8.035-.067-.143-.044-.305.045-.422,4.909-6.456,10.041-12.726,15.244-18.937,14.913-18.035,33.005-36.606,49.244-53.61.165-.182.457-.189.626-.006,3.102,3.304,6.314,6.528,9.568,9.7-3.452-2.961-6.86-5.968-10.188-9.087,0,0,.627-.006.625-.005-22.139,23.036-45.081,47.068-64.366,72.479,0,0,.062-.445.062-.445,1.375,2.784,3.464,5.371,5.482,7.769,6.296,7.333,13.557,13.764,20.995,19.922,27.442,21.943,57.358,43.234,92.164,51.1,3.136.632,6.343,1.172,9.488,1.293l-.445.268,4.772-8.056h0Z" style="fill:#a7abae; stroke-width:0px;"/><path d="m44.281,202.507s.66-5.301.758-7.843-.978-5.28-1.076-9.974c-.098-4.694.489-9.289,1.76-13.299,1.271-4.009,4.133-5.47,8.038-6.492,2.709-.709,3.293-.542,4.377,1.292s2.126,4.001,3.084,5.877,1.205,3.61,1.205,9.412" style="fill:none; stroke:#a7abae; stroke-linecap:round; stroke-linejoin:round; stroke-width:1.5px;"/><path d="m198.867,364.286c43.83-31.68,88.673-62.031,134.662-90.491,6.677-3.952,12.898-8.933,20.54-11.023-.835.4,16.457-8.611,16.253-8.507,0,0,4.126-2.144,4.126-2.144.703-.345,1.254-.652,1.65-1.119,2.044-3.037,2.553-6.973,3.654-10.526,8.874-32.444,11.362-40.525,40.007-60.002,5.149-3.472,10.464-6.647,15.981-9.534,6.306-3.429,13.362-3.632,15.777,4.468-3.837-6.483-8.932-6.386-15.098-3.127-5.406,2.866-10.691,6.061-15.76,9.521-28.335,19.538-30.421,26.944-39.329,59.095-.824,2.985-1.546,5.973-2.728,8.96-.524,1.526-1.931,3.153-3.436,3.697,0,0-4.096,2.117-4.096,2.117l-16.445,8.54c-3.708.989-7.137,2.715-10.469,4.756-48.691,29.259-97.273,64.932-145.292,95.319h0Z" style="fill:#a7abae; stroke-width:0px;"/><path d="m2.81,231.411c13.049-10.694,27.171-19.968,41.04-29.53,19.842-23.157,40.834-48.786,65.76-67.965,31.898-23.347,65.228-44.717,99.325-64.699,7.006-3.827,13.609-8.108,21.099-11.078,3.845-1.387,7.887-1.876,11.828-2.24,13.661-1.883,22.569,2.449,34.16,8.907,6.914,3.808,13.881,7.582,20.611,11.782,6.754,4.12,13.226,8.787,19.456,13.665,6.255,4.87,12.357,9.833,18.488,14.901,1.508,1.311,3.019,2.806,4.043,4.684,1.974,3.77,3.903,13.079,5.213,17.171,0,0-.837-.6-.837-.6,2.158-.087,4.109,1.441,4.636,3.472,0,0,1.56,4.955,1.56,4.955,2.186,7.139,5.606,17.662,7.802,24.776.819,1.896.019,3.969-1.126,5.529,0,0,.115-.681.115-.681l.901,2.847c.125.395-.094.816-.489.941-.396.125-.819-.095-.942-.492l-.908-2.839c-.078-.242-.025-.491.115-.681.679-1.015,1.413-2.312,1.079-3.542-2.299-7.349-5.744-17.963-8.065-25.345,0,0-1.574-4.945-1.574-4.945-.358-1.462-1.605-2.374-3.007-2.365-.395.021-.735-.238-.837-.6l-3.183-11.406c-.93-3.867-2.409-7.122-5.617-9.594-9.119-7.45-18.329-14.979-27.932-21.827-9.67-6.791-20.002-12.527-30.378-18.218-6.81-3.705-13.8-7.631-21.515-8.798-3.81-.578-7.677-.277-11.61.072-3.907.356-7.784.831-11.393,2.132-3.607,1.312-7.04,3.264-10.502,5.153-10.386,5.67-20.582,11.683-30.681,17.854-20.198,12.354-40.054,25.288-59.596,38.658-19.814,13.009-37.895,28.283-53.754,45.941-10.787,11.603-21.052,23.705-31.384,35.726-11.598,7.955-30.163,20.6-41.902,28.278h0Z" style="fill:#a7abae; stroke-width:0px;"/><line x1="354.709" y1="154.886" x2="468.509" y2="78.69" style="fill:none; stroke:#a7abae; stroke-linecap:round; stroke-linejoin:round; stroke-width:1.5px;"/><path d="m449.315,192.654c5.837,2.611,6.328,2.365,8.785-1.074,2.457-3.439,13.88-21.618,19.161-31.444,5.282-9.826,9.975-26.72,6.904-35.81,2.702-9.703,1.817-11.971,1.449-17.744-.368-5.773-.737-12.897-1.72-18.056-.983-5.159-1.474-7.001-6.141-11.423-4.667-4.422-19.889-20.222-48.517-38.814-28.628-18.592-59.449-31.813-64.854-34.146-5.404-2.334-9.883-.987-15.231,2.088-14.739,8.475-84.959,53.542-84.959,53.542" style="fill:none; stroke:#a7abae; stroke-linecap:round; stroke-linejoin:round; stroke-width:1.5px;"/><ellipse cx="419.426" cy="226.761" rx="32.304" ry="17.555" transform="translate(.809 455.013) rotate(-56.999)" style="fill:none; stroke:#a7abae; stroke-linecap:round; stroke-linejoin:round;"/><path d="m373.438,253.546s6.822,6.244,18.859,12.239c2.848,1.418,6.198,2.058,9.37,1.812l2.565-.199c14.82-1.148,27.483-14.415,35.579-26.881,9.71-14.953,18.428-40.78,5.627-53.19-4.393-4.259-13.565-9.687-16.639-11.496" style="fill:none; stroke:#a7abae; stroke-linecap:round; stroke-linejoin:round; stroke-width:1.5px;"/><path d="m355.65,167.113c.743,2.66,2.9,1.473,6.253-.955,3.353-2.428,112.469-79.028,112.469-79.028,3.9-3,5.06-6.046,2.4-8.6-15.076-14.477-30.76-27.829-48.704-39.482-26.832-17.425-63.687-34.904-63.687-34.904" style="fill:none; stroke:#a7abae; stroke-linecap:round; stroke-linejoin:round; stroke-width:.5px;"/><path d="m328.864,128.27c4.537-3.143,12.2-7.34,14.468.505,0,0,1.09,3.273,1.09,3.273,3.608,10.84,7.307,21.88,10.818,32.733.043.131-.029.272-.161.315-.13.042-.27-.028-.314-.158-3.66-10.802-7.287-21.877-10.861-32.726,0,0-1.079-3.272-1.079-3.272-2.196-7.63-9.3-2.78-13.962-.67h0Z" style="fill:#a7abae; stroke-width:0px;"/><path d="m274.612,250.726c1.366,6.176,1.212,12.566,1.015,18.85-.242,6.31-.668,12.607-1.119,18.899l-2.698,13.502-.01-.149,1.632,4.864.02.059-.007.059-.573,4.699-.497-.059.537-4.703c.144.627-1.693-4.9-1.657-4.734,0,0-.025-.073-.025-.073l.015-.077c.001.008,2.718-13.621,2.694-13.466.859-12.536,2.037-25.131.674-37.672h0Z" style="fill:#a7abae; stroke-width:0px;"/><path d="m102.099,355.703c10.916-9.111,22.779-16.999,34.484-25.041,0,0,17.661-11.923,17.661-11.923l4.417-2.975c2.193-1.461,3.634-3.767,4.259-6.315,0,0,.765-2.551.765-2.551l1.529-5.103c.04-.132.179-.207.311-.168.132.039.207.178.168.31l-1.499,5.112c-.512,1.541-.935,3.657-1.66,5.105-1.272,3.109-5.342,5.26-7.953,7.084,0,0-17.682,11.891-17.682,11.891-11.804,7.908-23.334,16.184-34.801,24.574h0Z" style="fill:#a7abae; stroke-width:0px;"/><path d="m36.295,221.61c-2.178-4.814-1.325-7.578,8.324-18.884" style="fill:none; stroke:#a7abae; stroke-linecap:round; stroke-linejoin:round; stroke-width:.5px;"/><path d="m36.178,214.707c-3.963,1.84-9.753,4.408-13.806,6.212-4.573,2.115-8.44,5.458-12.752,8.043,4.068-2.985,7.924-6.386,12.535-8.524,0,0,6.898-3.118,6.898-3.118,2.294-1.05,4.612-2.049,6.92-3.068.286-.132.505.325.205.456h0Z" style="fill:#a7abae; stroke-width:0px;"/><path d="m45.119,173.551c-.828,4.548.27,11.255,1.178,14.613s1.877,5.965,7.156,3.618" style="fill:none; stroke:#a7abae; stroke-linecap:round; stroke-linejoin:round; stroke-width:.5px;"/><path d="m350.263,196.407s8.672-6.776,15.764-11.247c7.092-4.471,10.176-2.467,14.339-.925,4.163,1.542,14.107,6.09,14.107,6.09l1.713,2.861" style="fill:none; stroke:#a7abae; stroke-linecap:round; stroke-linejoin:round; stroke-width:.5px;"/><path d="m346.63,179.99c7.138,20.158,3.556,26.592-3.787,45.449-5.831,14.559-12.262,28.941-20.45,42.348l.024-.17c.447,1.886,1.005,3.829.992,5.78,0,0-6.224,9.099-6.224,9.099-9.257,6.123-33.254,21.807-42.245,27.72-21.798,14.518-47.801,32.778-69.747,46.948,35.399-24.775,75.634-51.455,111.637-74.91,0,0,6.224-9.099,6.224-9.099l-.037.133c-.067-1.926-.693-3.851-.991-5.725,8.173-13.382,14.594-27.746,20.417-42.282,4.105-10.787,9.697-22.056,6.905-33.861-.771-3.828-1.918-7.586-2.719-11.429h0Z" style="fill:#a7abae; stroke-width:0px;"/><path d="m179.976,363.779c43.535-30.128,93.749-63.422,137.556-93.232,7.85-5.442,41.028-25.045,49.581-30.385,2.169-1.475,4.882-2.919,6.496-4.981,1.862-2.553,3.05-7.169,4.241-10.119,3.951-10.264,7.584-21.214,15.311-29.343,2.595-2.667,5.507-4.964,8.395-7.266,8.77-6.783,17.705-13.363,27.057-19.325,6.02-3.375,13.754-9.016,20.722-5.195,3.283,2.02,4.785,5.777,6.053,9.221.046.13-.022.273-.152.319s-.273-.022-.319-.152c-.611-1.731-1.31-3.436-2.219-5.016-5.42-9.991-16.822-3.029-23.823,1.245-9.327,5.945-18.267,12.526-27.014,19.289-2.882,2.297-5.788,4.59-8.346,7.221-7.667,8.07-11.277,18.969-15.206,29.169-1.247,3.063-2.359,7.547-4.312,10.246-1.719,2.178-4.381,3.573-6.62,5.094-8.655,5.4-41.59,24.853-49.587,30.381-44.007,29.523-93.606,63.672-137.814,92.828h0Z" style="fill:#a7abae; stroke-width:0px;"/><path d="m190.122,364.141c20.612-14.98,53.281-36.96,74.518-51.798,10.284-7.169,27.076-18.27,37.631-25.361,1.484-.962,20.453-13.737,21.228-14.177,4.287-2.573,12.634-7.571,17.026-10.206,6.558-3.929,22.875-13.713,29.188-17.495,2.274-1.548,5.158-2.542,6.763-4.857,2.261-4.111,3.08-8.868,4.633-13.296,1.143-3.607,2.336-7.201,3.671-10.747,2.497-7.18,6.665-13.725,11.744-19.351,4.338-5.116,12.272-10.25,17.68-14.221,6.187-4.369,12.293-8.822,18.737-12.824,3.263-1.918,6.766-3.587,10.573-4.191,6.777-.969,10.712,3.274,12.509,9.421,1.059,3.659,1.9,7.324,2.691,11.045.317,1.815.948,4.105-.416,5.65-.204.268-.598-.05-.397-.303,1.276-1.481.578-3.511.321-5.251-.365-1.846-.807-3.684-1.251-5.519-1.661-7.406-3.934-15.795-13.387-14.541-7.492,1.276-13.632,6.272-19.815,10.394-3.105,2.155-6.191,4.338-9.266,6.537-6.069,4.494-12.597,8.475-17.596,14.152-10.766,11.12-13.98,26.53-18.74,40.733-.345.888-.719,1.776-1.25,2.6-1.649,2.415-4.579,3.427-6.916,5.013,0,0-9.729,5.834-9.729,5.834-10.031,6.013-26.573,15.936-36.485,21.878-14.576,9.673-34.966,23.409-49.495,33.105-25.252,17.198-58.791,41.045-84.168,57.78h0Z" style="fill:#a7abae; stroke-width:0px;"/><path d="m354.271,263.522s-1.649-3.186-8.403.655l-28.86,18.199" style="fill:none; stroke:#a7abae; stroke-linecap:round; stroke-linejoin:round; stroke-width:.5px;"/><polyline points="480.299 79.737 476.341 78.116 472.483 80.767 358.778 6.926 363.567 3.816" style="fill:none; stroke:#a7abae; stroke-linecap:round; stroke-linejoin:round; stroke-width:.5px;"/><line x1="466.302" y1="80.168" x2="362.661" y2="12.863" style="fill:none; stroke:#a7abae; stroke-linecap:round; stroke-linejoin:round;"/><line x1="275.915" y1="65.782" x2="362.661" y2="9.448" style="fill:none; stroke:#a7abae; stroke-linecap:round; stroke-linejoin:round; stroke-width:.5px;"/><line x1="278.761" y1="67.349" x2="362.661" y2="12.863" style="fill:none; stroke:#a7abae; stroke-linecap:round; stroke-linejoin:round;"/><path d="m301.642,80.864l38.471-24.984c.561-.364,1.229-.527,1.895-.462l10.197.997c.514.05,1.029-.076,1.462-.357l8.994-5.841,75.396,48.963" style="fill:none; stroke:#a7abae; stroke-linecap:round; stroke-linejoin:round; stroke-width:.5px;"/><line x1="362.661" y1="9.448" x2="362.661" y2="50.219" style="fill:none; stroke:#a7abae; stroke-linecap:round; stroke-linejoin:round; stroke-width:.5px;"/><path d="m484.882,105.195l.275,5.969c-.283,5.97-1.613,11.884-3.731,17.462-2.623,7.495-6.17,14.764-11.151,20.994,0,0-7.208,9.47-7.208,9.47l-1.802,2.368c-.483.601-.933,1.291-1.677,1.654-.913.384-1.64-.627-2.098-1.186,0,0-.934-1.14-.934-1.14-1.865-2.209-4.394-4.014-7.327-4.276-5.992-.424-11.204,3.39-16.181,6.289-6.734,4.176-13.319,8.599-19.781,13.188-27.605,19.246-29.129,25.49-41.442,55.829,5.296-14.775,10.601-30.59,22.375-41.591,5.927-5.308,12.302-10.059,18.753-14.68,6.469-4.6,13.056-9.032,19.802-13.222,5.028-2.94,10.384-6.836,16.535-6.383,3.097.277,5.752,2.156,7.707,4.467,0,0,.952,1.16.952,1.16.416.444.795,1.183,1.421,1.006,1.021-.581,2.439-2.92,3.24-3.847,0,0,7.197-9.471,7.197-9.471,4.956-6.202,8.481-13.351,11.113-20.816,1.435-3.689,2.452-7.514,3.106-11.413.317-1.948.57-3.913.639-5.877l-.259-5.917c-.014-.136.09-.261.228-.266.132-.006.244.096.25.228h0Z" style="fill:#a7abae; stroke-width:0px;"/><path d="m38.519,357.03c12.11-12.013,26.007-22.094,39.546-32.421,6.835-5.098,13.798-10.03,20.749-14.958,7.511-5.501,9.053-8.021.055-13.09-16.453-9.839-32.657-20.193-48.561-30.882,0,0-10.58-7.186-10.58-7.186-6.639-4.464-9.029-7.627-16.821-2.279-5.246,3.639-10.399,7.434-15.68,11.035,5.109-3.852,10.193-7.73,15.429-11.412,7.884-5.455,10.508-2.393,17.34,2.266,0,0,10.577,7.183,10.577,7.183,15.899,10.685,32.1,21.034,48.545,30.868,9.2,5.16,7.892,8.181-.024,13.888-6.957,4.933-13.909,9.858-20.742,14.955-13.736,10.106-26.955,20.861-39.834,32.034h0Z" style="fill:#a7abae; stroke-width:0px;"/><path d="m35.474,217.988c-1.891,5.187-6.73,8.274-10.925,11.464-4.268,3.169-8.493,6.387-12.921,9.342,4.079-3.416,8.356-6.575,12.599-9.772,4.13-3.194,8.813-6.184,10.789-11.239.126-.292.593-.091.456.205h0Z" style="fill:#a7abae; stroke-width:0px;"/><path d="m66.305,360.88c22.743-20.05,48.534-36.311,74.166-52.373,4.803-2.769,10.126-4.575,15.6-5.407,5.381-1.01,11.119-.082,16.231-2.282,2.524-1.053,4.741-2.686,7.134-4.067-2.048,1.857-4.407,3.368-6.964,4.471-5.171,2.236-10.919,1.309-16.333,2.321-5.417.826-10.688,2.619-15.435,5.359-25.747,15.9-51.008,32.735-74.399,51.978h0Z" style="fill:#a7abae; stroke-width:0px;"/><path d="m284.41,70.48s52.009-33.775,57.636-37.429,10.589-1.648,10.589,4.48v18.884" style="fill:none; stroke:#a7abae; stroke-linecap:round; stroke-linejoin:round; stroke-width:.5px;"/><path d="m341.227,55.448v-18.147c0-1.518-.608-2.375-1.325-2.857" style="fill:none; stroke:#a7abae; stroke-linecap:round; stroke-linejoin:round; stroke-width:.5px;"/><line x1="311.869" y1="88.14" x2="363.667" y2="53.801" style="fill:none; stroke:#a7abae; stroke-linecap:round; stroke-linejoin:round; stroke-width:.5px;"/><line x1="318.928" y1="93.597" x2="371.033" y2="58.585" style="fill:none; stroke:#a7abae; stroke-linecap:round; stroke-linejoin:round; stroke-width:.5px;"/><line x1="330.844" y1="103.181" x2="384.347" y2="67.23" style="fill:none; stroke:#a7abae; stroke-linecap:round; stroke-linejoin:round; stroke-width:.5px;"/><line x1="339.428" y1="114.238" x2="397.08" y2="75.499" style="fill:none; stroke:#a7abae; stroke-linecap:round; stroke-linejoin:round; stroke-width:.5px;"/><line x1="345.336" y1="127.905" x2="410.427" y2="84.167" style="fill:none; stroke:#a7abae; stroke-linecap:round; stroke-linejoin:round; stroke-width:.5px;"/><line x1="350.702" y1="142.163" x2="423.947" y2="92.947" style="fill:none; stroke:#a7abae; stroke-linecap:round; stroke-linejoin:round; stroke-width:.5px;"/><line x1="372.682" y1="52.063" x2="372.682" y2="22.913" style="fill:none; stroke:#a7abae; stroke-linecap:round; stroke-linejoin:round; stroke-width:.5px;"/><line x1="385.764" y1="60.558" x2="385.764" y2="31.408" style="fill:none; stroke:#a7abae; stroke-linecap:round; stroke-linejoin:round; stroke-width:.5px;"/><line x1="398.846" y1="69.054" x2="398.846" y2="39.904" style="fill:none; stroke:#a7abae; stroke-linecap:round; stroke-linejoin:round; stroke-width:.5px;"/><line x1="411.929" y1="77.549" x2="411.929" y2="48.4" style="fill:none; stroke:#a7abae; stroke-linecap:round; stroke-linejoin:round; stroke-width:.5px;"/><line x1="425.011" y1="86.045" x2="425.011" y2="56.895" style="fill:none; stroke:#a7abae; stroke-linecap:round; stroke-linejoin:round; stroke-width:.5px;"/><line x1="438.093" y1="94.541" x2="438.093" y2="65.391" style="fill:none; stroke:#a7abae; stroke-linecap:round; stroke-linejoin:round; stroke-width:.5px;"/><line x1="451.175" y1="90.297" x2="451.175" y2="73.886" style="fill:none; stroke:#a7abae; stroke-linecap:round; stroke-linejoin:round; stroke-width:.5px;"/><path d="m449.925,172.675c1.804,2.925,3.77,6.394,5.157,11.829s1.964,9.865-.405,9.905" style="fill:none; stroke:#a7abae; stroke-linecap:round; stroke-linejoin:round; stroke-width:.5px;"/><path d="m446.054,169.621c1.782,2.948,4.455,6.69,6.053,12.95,1.388,5.435,2.109,10.894-.962,10.876" style="fill:none; stroke:#a7abae; stroke-linecap:round; stroke-linejoin:round; stroke-width:.5px;"/><path d="m268.131,260.337c-.146.814-.577,1.478-1.123,1.829l-14.094,9.152c-.348.226-.737.327-1.13.254-1.005-.181-1.624-1.405-1.384-2.737.146-.81.577-1.474,1.123-1.829l14.094-9.152c.348-.226.737-.323,1.13-.254,1.005.181,1.624,1.408,1.384,2.737Z" style="fill:none; stroke:#a7abae; stroke-linecap:round; stroke-linejoin:round; stroke-width:.5px;"/><path d="m342.595,207.832c-.146.814-.577,1.478-1.123,1.829l-14.094,9.152c-.348.226-.737.327-1.13.254-1.005-.181-1.624-1.405-1.384-2.737.146-.81.577-1.474,1.123-1.829l14.094-9.152c.348-.226.737-.323,1.13-.254,1.005.181,1.624,1.408,1.384,2.737Z" style="fill:none; stroke:#a7abae; stroke-linecap:round; stroke-linejoin:round; stroke-width:.5px;"/><path d="m384.161,140.75c-.352.251-.563.573-.563.925,0,.774.996,1.388,2.233,1.388.664,0,1.257-.171,1.66-.463" style="fill:none; stroke:#a7abae; stroke-linecap:round; stroke-linejoin:round; stroke-width:.5px;"/><line x1="379.846" y1="143.771" x2="383.176" y2="145.622" style="fill:none; stroke:#a7abae; stroke-linecap:round; stroke-linejoin:round; stroke-width:.5px;"/><line x1="386.713" y1="138.962" x2="390.043" y2="140.813" style="fill:none; stroke:#a7abae; stroke-linecap:round; stroke-linejoin:round; stroke-width:.5px;"/><path d="m393.877,137.603c0-.775-.996-1.398-2.223-1.398-.664,0-1.257.181-1.67.473l-12.377,8.661c-.352.251-.563.573-.563.925,0,.774.996,1.388,2.233,1.388.664,0,1.257-.171,1.66-.463l12.377-8.661c.352-.251.563-.573.563-.925Z" style="fill:none; stroke:#a7abae; stroke-linecap:round; stroke-linejoin:round; stroke-width:.5px;"/><path d="m462.101,91.92c.352-.251.563-.573.563-.925,0-.774-.996-1.388-2.233-1.388-.664,0-1.257.171-1.66.463" style="fill:none; stroke:#a7abae; stroke-linecap:round; stroke-linejoin:round; stroke-width:.5px;"/><line x1="466.416" y1="88.899" x2="463.086" y2="87.048" style="fill:none; stroke:#a7abae; stroke-linecap:round; stroke-linejoin:round; stroke-width:.5px;"/><line x1="459.548" y1="93.708" x2="456.219" y2="91.857" style="fill:none; stroke:#a7abae; stroke-linecap:round; stroke-linejoin:round; stroke-width:.5px;"/><path d="m452.385,95.067c0,.775.996,1.398,2.223,1.398.664,0,1.257-.181,1.67-.473l12.377-8.661c.352-.251.563-.573.563-.925,0-.774-.996-1.388-2.233-1.388-.664,0-1.257.171-1.66.463l-12.377,8.661c-.352.251-.563.573-.563.925Z" style="fill:none; stroke:#a7abae; stroke-linecap:round; stroke-linejoin:round; stroke-width:.5px;"/><line x1="341.748" y1="18.023" x2="338.418" y2="16.172" style="fill:none; stroke:#a7abae; stroke-linecap:round; stroke-linejoin:round; stroke-width:.5px;"/><path d="m340.97,14.383l-5.822,4.074c-.352.251-.563.573-.563.925,0,.775.996,1.398,2.223,1.398.664,0,1.257-.181,1.67-.473l5.822-4.074v.002c.353-.251.565-.573.565-.925,0-.774-.996-1.388-2.233-1.388-.664,0-1.257.171-1.66.463v-.002Z" style="fill:none; stroke:#a7abae; stroke-linecap:round; stroke-linejoin:round; stroke-width:.5px;"/><line x1="273.97" y1="62.589" x2="270.641" y2="60.738" style="fill:none; stroke:#a7abae; stroke-linecap:round; stroke-linejoin:round; stroke-width:.5px;"/><path d="m272.257,63.783l4.264-2.984v.002c.353-.251.565-.573.565-.925,0-.774-.996-1.388-2.233-1.388-.664,0-1.257.171-1.66.463v-.002s-4.366,3.054-4.366,3.054" style="fill:none; stroke:#a7abae; stroke-linecap:round; stroke-linejoin:round; stroke-width:.5px;"/><g id="uuid-a92c1567-81ad-4242-b9c8-64f25b827ad0"><path id="uuid-473c4edb-62b6-4683-8336-a6a7f9aef190" d="m336.333,36.761c.224.179.353.49.353.915v5.652c0,1.135-.928,2.667-2.073,3.422l-9.712,6.406c-.696.459-1.309.522-1.687.252-.244-.175-.385-.494-.385-.94v-5.652c0-.485.17-1.044.454-1.582" style="fill:none; stroke:#a7abae; stroke-linecap:round; stroke-linejoin:round; stroke-width:.5px;"/></g><g id="uuid-2a30c355-e549-4ea7-8e81-6f05cc64a1cd"><path id="uuid-da598ec5-56da-4fa6-8631-bd433ef46b2c" d="m356.487,47.248c-.29-.203-.457-.588-.457-1.127v-3.577c0-.615.494-1.459,1.103-1.886l2.744-1.921c.37-.259.696-.303.897-.162.13.091.206.262.206.504v3.577c0,1.38-1.108,3.274-2.475,4.232-.832.583-1.565.678-2.017.362Z" style="fill:none; stroke:#a7abae; stroke-linecap:round; stroke-linejoin:round; stroke-width:.5px;"/></g><path d="m178.346,294.726c-.234,1.354-.718,2.615-1.197,3.877l-.004-.182,2.744,6.374c4.653,10.669,5.936,22.504,6.221,34.04.067,4.639-.08,9.278-.652,13.899-.297.521-.669,1.042-.92,1.62-.785,1.601-1.234,3.336-1.548,5.089-.016-2.428.646-4.864,2.038-6.891.883-8.526.703-18.559-.498-27.514-.924-6.841-2.295-13.7-5.116-20.032,0,0-2.719-6.391-2.719-6.391.3-1.338.967-2.659,1.651-3.887h0Z" style="fill:#a7abae; stroke-width:0px;"/></g><g id="uuid-c434dc2d-b54f-4072-98f7-25689ee1c2e5"><circle cx="220.009" cy="227.89" r="8.275" style="fill:none; stroke:#fff; stroke-miterlimit:10; stroke-width:4px;"/><circle cx="220.009" cy="227.89" r="8.275" style="fill:#000001; stroke-width:0px;"/><path d="m220.009,219.599c-3.934,0-7.124,3.189-7.124,7.124v2.337c0,3.934,3.189,7.124,7.124,7.124s7.124-3.189,7.124-7.124v-2.337c0-3.934-3.189-7.124-7.124-7.124Z" style="fill:#000001; stroke-width:0px;"/><path d="m219.051,225.703c-.2.135-.455.284-.768.449l-.818-1.326c.477-.26.905-.535,1.286-.826.382-.29.732-.613,1.054-.968h1.807v9.334h-1.846v-7.215c-.277.234-.516.418-.715.552Z" style="fill:#fff; stroke-width:0px;"/><circle cx="303.429" cy="180.53" r="8.275" style="fill:none; stroke:#fff; stroke-miterlimit:10; stroke-width:4px;"/><circle cx="303.429" cy="180.53" r="8.275" style="fill:#000001; stroke-width:0px;"/><path d="m303.429,172.238c-4.451,0-8.06,3.608-8.06,8.06v.464c0,4.451,3.608,8.06,8.06,8.06s8.06-3.608,8.06-8.06v-.464c0-4.451-3.608-8.06-8.06-8.06Z" style="fill:#000001; stroke-width:0px;"/><path d="m301.112,184.674c-.542-.316-1.008-.787-1.397-1.411l1.443-1.04c.242.442.509.759.799.949.29.191.652.286,1.086.286.468,0,.871-.093,1.209-.28.338-.186.507-.474.507-.864v-.156c0-.442-.149-.756-.448-.942-.299-.186-.805-.279-1.515-.279h-.65v-1.56h.624c.528,0,.96-.078,1.294-.234.333-.156.5-.451.5-.884v-.143c0-.312-.145-.543-.436-.695-.29-.151-.626-.228-1.007-.228-.364,0-.691.093-.981.279-.291.187-.531.462-.722.826l-1.365-.819c.312-.667.729-1.159,1.248-1.476s1.152-.475,1.898-.475c.909,0,1.652.217,2.229.65.576.434.864,1.079.864,1.937,0,.451-.091.839-.273,1.164-.182.325-.438.592-.767.8.416.216.729.494.942.832.212.338.318.754.318,1.248,0,.642-.158,1.188-.475,1.638s-.738.789-1.268,1.014c-.528.225-1.109.338-1.742.338-.736,0-1.376-.158-1.917-.475Z" style="fill:#fff; stroke-width:0px;"/><circle cx="239.06" cy="139.726" r="8.275" style="fill:none; stroke:#fff; stroke-miterlimit:10; stroke-width:4px;"/><circle cx="239.06" cy="139.726" r="8.275" style="fill:#000001; stroke-width:0px;"/><path d="m239.06,131.435c-4.53,0-8.203,3.672-8.203,8.203v.178c0,4.53,3.672,8.203,8.203,8.203s8.203-3.672,8.203-8.203v-.178c0-4.53-3.672-8.203-8.203-8.203Z" style="fill:#000001; stroke-width:0px;"/><path d="m239.479,142.121h-4.343v-1.339l4.251-5.915h1.82v5.668h1.274v1.586h-1.274v2.08h-1.729v-2.08Zm0-1.586v-3.159l-2.275,3.159h2.275Z" style="fill:#fff; stroke-width:0px;"/><circle cx="162.445" cy="189.86" r="8.275" style="fill:none; stroke:#fff; stroke-miterlimit:10; stroke-width:4px;"/><circle cx="162.445" cy="189.86" r="8.275" style="fill:#000001; stroke-width:0px;"/><path d="m162.445,181.568c-4.462,0-8.079,3.617-8.079,8.079v.425c0,4.462,3.617,8.079,8.079,8.079s8.079-3.617,8.079-8.079v-.425c0-4.462-3.617-8.079-8.079-8.079Z" style="fill:#000001; stroke-width:0px;"/><path d="m158.958,192.866l3.237-3.029c.303-.277.559-.544.767-.799.208-.256.368-.496.48-.722.113-.225.17-.438.17-.637v-.117c0-.312-.12-.567-.358-.767-.238-.199-.539-.299-.903-.299-.52,0-.918.113-1.195.338-.278.226-.46.611-.547,1.157l-1.638-.52c.139-.832.507-1.476,1.105-1.931.598-.455,1.356-.683,2.274-.683.581,0,1.105.104,1.573.312s.839.512,1.111.91c.273.398.41.871.41,1.417,0,.451-.09.882-.267,1.293-.178.412-.405.789-.683,1.131-.277.343-.594.674-.949.995l-2.002,1.794h3.965v1.625h-6.552v-1.469Z" style="fill:#fff; stroke-width:0px;"/></g></svg>