<svg xmlns="http://www.w3.org/2000/svg" width="218" height="218" viewBox="0 0 218 218"><g id="a361b45f-dff5-4b0a-b8a5-a062f60db71c" data-name="below"><path d="M109.548,44.748c3.82,29.64,1.65,64.72,1.06,68.36a57.207,57.207,0,0,1-3.05,9.56c-5.39,7.57-10.78,13.82-17.5,17.44a4.482,4.482,0,0,1-2,.53,108.312,108.312,0,0,1-13.28-.77c-2.88-.32-5.47-.66-7.23-.92-.52-.07-.97-.14-1.33-.19a4.769,4.769,0,0,1-2.16-.91c-3.28-2.49-10.06-9-10.06-9-2-3.06-2.7-11.04-2.7-11.04-.24-10.69,1.64-48.16,2.11-52.27s1.53-11.16,2.59-13.39a79.9,79.9,0,0,1,6.69-11.39c3.05-4.23,11.51-12.45,26.55-11.16S108.5,36.528,109.548,44.748Z" style="fill:#d3d5d6"/><path d="M74.778,139.868l-.01.06a20.392,20.392,0,0,0-.99,5.51c-.06.88-.08,1.61-.08,2.01a17.721,17.721,0,0,1-3.55.33,15.967,15.967,0,0,1-3.8-.4c0-.4.02-1.08.06-1.91a24.507,24.507,0,0,1,1.14-6.52C69.308,139.208,71.9,139.548,74.778,139.868Z" style="fill:#d3d5d6"/></g><g id="be3864c7-1eeb-45b7-b824-7e25b693d82e" data-name="illustration"><path d="M89.5,218.441a2.541,2.541,0,0,0-2.448-.218,9.945,9.945,0,0,0-2.307,1.133,27.687,27.687,0,0,0-4.036,3.262c-1.292,1.162-2.48,2.437-3.683,3.7L73.5,230.19c.511-.71,1.048-1.4,1.572-2.1l1.668-2.029c1.15-1.321,2.349-2.6,3.629-3.807a25,25,0,0,1,4.177-3.223,10.029,10.029,0,0,1,2.443-1.041,4.347,4.347,0,0,1,1.331-.106A1.949,1.949,0,0,1,89.5,218.441Z" style="fill:#a7abae"/><path d="M52.167,121.553s-18.48-.2-29.853-1.016S.99,115.664,6.27,92.512,21.908,17.878,38.764-30.05" style="fill:none;stroke:#a7abae;stroke-miterlimit:10;stroke-width:0.5px"/><path d="M6.27,92.512c-6.093,7.21-10.763,10.256-16.856,13.1s-35.182,14.215-38,14.926" style="fill:none;stroke:#a7abae;stroke-miterlimit:10;stroke-width:0.5px"/><line x1="169.145" y1="122.67" x2="316.382" y2="124.295" style="fill:none;stroke:#a7abae;stroke-miterlimit:10;stroke-width:0.5px"/><path d="M58.7,269.043S45.437,210.25,43.708,201.171s-3.314-25.362-2.161-32.855,1.873-9.486,6.2-16.055,12.393-17.809,12.393-17.809" style="fill:none;stroke:#a7abae;stroke-miterlimit:10"/><path d="M64.062,137.844s-7.7,11.652-8.855,13.089-.383,2.875,2.875,2.683,21.562.48,21.562.48a6.238,6.238,0,0,0,5.367-2.4c2.108-2.779,10.077-14.954,10.077-14.954" style="fill:none;stroke:#a7abae;stroke-miterlimit:10"/><path d="M54.717,151.965a7.414,7.414,0,0,1,5.663-2.822c2.152.014,4.3.073,6.456.123q6.456.155,12.909.467h.025l.017.007a9.083,9.083,0,0,1,2.267,1.269,5.719,5.719,0,0,1,1.673,1.946,5.653,5.653,0,0,0-1.768-1.814,10.544,10.544,0,0,0-2.266-1.125l.042.008q-6.457-.059-12.9-.29c-2.15-.076-4.3-.143-6.45-.255A7.559,7.559,0,0,0,54.717,151.965Z" style="fill:#a7abae"/><path d="M80.568,150.23c.931-1.707,1.986-3.328,3.069-4.93,1.1-1.592,2.228-3.163,3.482-4.648-.93,1.707-1.985,3.328-3.069,4.93C82.95,147.172,81.821,148.743,80.568,150.23Z" style="fill:#a7abae"/><path d="M107.982,240.88c.166-.5-13.8-35.582-16.794-43.73s-9.643-35.574-2.161-44.889S111.755,124.3,111.755,124.3" style="fill:none;stroke:#a7abae;stroke-miterlimit:10;stroke-width:0.5px"/><path d="M107.556,122.67c3.9-.268,9.149,2.146,14.59,10.526s44.113,96.67,47.417,106.58" style="fill:none;stroke:#a7abae;stroke-miterlimit:10;stroke-width:0.5px"/><path d="M108.109,121.573c3.9-.268,9.149,2.146,14.59,10.526s44.112,96.669,47.416,106.58" style="fill:none;stroke:#a7abae;stroke-miterlimit:10;stroke-width:0.25px"/><path d="M89.233,29.6c.851-14.041,1.227-19.3,5.234-25.685s6.771-10.768,13.089-14.4,14.457-4.258,22.47-3.381,15.151,5.759,16.653,18.531,2.129,45.826,1.377,55.342-1.627,17.029-5.634,21.662S131.4,93.689,127.9,96.443c-1.252,1.252-5.635,1-6.636.877s-7.7-.489-9.675-1.246" style="fill:none;stroke:#a7abae;stroke-miterlimit:10"/><path d="M135.138,89.588c-1.99-3.87-1.08-13.23-1.08-20.04s-.83-43.93-1.06-49.92-.59-18.44-19.03-17.85-20.08,8.46-21.14,15.27c-.56,4.03-1.03,8.33-1.4,12.78" style="fill:none;stroke:#a7abae;stroke-miterlimit:10;stroke-width:0.5px"/><path d="M125.008,97.548c-1.41-4.19-2.23-16.49-1.99-21.66.13-2.85.11-16.55.07-29.26-.02-10.31-.07-19.97-.07-22.65,0-5.99-2.71-8.1-9.98-8.22s-10.23,1.53-11.4,9.75c-.24,1.68-.46,4.02-.66,6.78" style="fill:none;stroke:#a7abae;stroke-miterlimit:10;stroke-width:0.5px"/><path d="M104.2,34.228c.25-4.34.48-7.99.65-10.2a4.393,4.393,0,0,1,.46-1.72c1.04-2.1,3.54-2.61,4.52-2.73a60.1,60.1,0,0,1,6.55,0c3.62.08,4.07,3.09,4.15,5.73.03,1.19.09,9.05.13,17.77.04,10.51.03,22.28-.13,25.12-.3,5.2-3.62,6.03-5.28,6.03-.96,0-2.13.02-3.61.03" style="fill:none;stroke:#a7abae;stroke-miterlimit:10;stroke-width:0.5px"/><path d="M111.078,61.188a22.014,22.014,0,0,0,2.36,0s1.51.45,1.74-2.34.6-25.02.6-26.53a2.448,2.448,0,0,0-2.74-2.56,2.964,2.964,0,0,0-1.95.73,2.2,2.2,0,0,0-.72,1.48s-.36,6.99-.69,13.81" style="fill:none;stroke:#a7abae;stroke-miterlimit:10"/><path d="M130.592,5.786A22.561,22.561,0,0,1,132.6,2.1a28.6,28.6,0,0,1,2.6-3.317,22.684,22.684,0,0,1,3.151-2.805,16.668,16.668,0,0,1,3.685-2.019,25.692,25.692,0,0,0-3.451,2.325A26.309,26.309,0,0,0,135.563-.88a34.86,34.86,0,0,0-2.65,3.2Q131.674,3.989,130.592,5.786Z" style="fill:#a7abae"/><path d="M110.017,29.752a24.381,24.381,0,0,1-2.353-3.425c-.339-.6-.675-1.21-.961-1.843a13.865,13.865,0,0,1-.76-1.942c.757,1.169,1.461,2.344,2.154,3.536S109.449,28.479,110.017,29.752Z" style="fill:#a7abae"/><path d="M115.779,29.752c.419-1.377.949-2.7,1.477-4.019l1.657-3.939a11.687,11.687,0,0,1-.471,2.1c-.2.69-.457,1.359-.723,2.024A24.938,24.938,0,0,1,115.779,29.752Z" style="fill:#a7abae"/><path d="M115.005,61.865a27.679,27.679,0,0,1,1.917,4.348c.251.752.5,1.506.677,2.281a14.247,14.247,0,0,1,.4,2.35l-1.549-4.467C115.943,64.886,115.425,63.4,115.005,61.865Z" style="fill:#a7abae"/><path d="M111.055,108.012s7.023.453,8.722-.679,8.944-9.511,12.68-12.568c0,0,1.1-.815.843-1.468s-.563-1.279-.563-1.279" style="fill:none;stroke:#a7abae;stroke-miterlimit:10"/><path d="M111.267,104.307a17.057,17.057,0,0,1,3.983-.025,3.761,3.761,0,0,1,1.914.765,5.043,5.043,0,0,1,1.193,1.627,9.406,9.406,0,0,0-1.422-1.318,4.256,4.256,0,0,0-1.758-.579C113.9,104.6,112.576,104.552,111.267,104.307Z" style="fill:#a7abae"/><path d="M117.117,104.953a42.849,42.849,0,0,1,3.249-3.622,42.04,42.04,0,0,1,3.6-3.27,42.2,42.2,0,0,1-3.249,3.622A42.681,42.681,0,0,1,117.117,104.953Z" style="fill:#a7abae"/><path d="M133.34,91.417a75.223,75.223,0,0,1,7.921.6c3.393.757,6.476,2.962,9.332,6.043,8.932,9.636,19.574,24.014,31.213,51.243s20.784,51.338,20.784,51.338,1.33,3.492,0,4.822a9.505,9.505,0,0,1,3.491,3.824c1.164,2.494,13.468,33.421,13.468,33.421" style="fill:none;stroke:#a7abae;stroke-miterlimit:10"/><path d="M43.635,155.337c-4.586.046-9.173.139-13.759.141l-13.759.058-13.759.044-13.759-.059.027,0a20.255,20.255,0,0,1-6.475-.43,18.3,18.3,0,0,1-5.963-2.514,16.769,16.769,0,0,1-4.593-4.534,22.168,22.168,0,0,1-2.782-5.812,22.054,22.054,0,0,0,2.9,5.726,17.373,17.373,0,0,0,4.618,4.4,17.987,17.987,0,0,0,5.888,2.428,19.915,19.915,0,0,0,6.352.375h.026L2.358,155.1l13.759.043,13.759.059C34.462,155.2,39.049,155.291,43.635,155.337Z" style="fill:#a7abae"/><path d="M7.222,117.346a47.342,47.342,0,0,1-5.486,8.367,68.32,68.32,0,0,1-6.829,7.341A59.24,59.24,0,0,1-13,139.215a52.568,52.568,0,0,1-8.871,4.637l2.235-1.124,1.115-.562,1.076-.635,2.157-1.252,2.075-1.384a63.389,63.389,0,0,0,7.786-6.208,74.136,74.136,0,0,0,6.871-7.216c1.062-1.28,2.1-2.585,3.062-3.94A33.357,33.357,0,0,0,7.222,117.346Z" style="fill:#a7abae"/><path d="M41.547,168.316s-15.038.263-19.86,0S4.9,173.237,4.815,184.612s-.079,33.655,0,38.477,6.563,15.966,17.2,16.379,30.147.467,30.147.467" style="fill:none;stroke:#a7abae;stroke-miterlimit:10;stroke-width:0.5px"/><path d="M123.112,251.521c-.166-.5-14.55-39.074-18.914-51.045s-5.86-32.755-1.537-38.076a98.879,98.879,0,0,1,9.777-10.641c2.028-1.829,13.168-3.326,24.142,21.448S166.509,245.7,166.509,245.7" style="fill:none;stroke:#a7abae;stroke-miterlimit:10;stroke-width:0.5px"/><path d="M169.145,231.568c-10.118-23.277-23.087-58.859-27.909-74.655s-5.986-33.742-1.164-39.567,6.463-8.009,8.3-9.245,9.158-3.8,22.042,17.765" style="fill:none;stroke:#a7abae;stroke-miterlimit:10;stroke-width:0.5px"/><path d="M113.283,122.651s18.585-22.27,21.855-25.928,7.223-6.535,12.108-1.753" style="fill:none;stroke:#a7abae;stroke-miterlimit:10;stroke-width:0.5px"/><path d="M67.915,165.927c10.1.255,11.555.173,15.812-.035" style="fill:none;stroke:#a7abae;stroke-miterlimit:10;stroke-width:0.5px"/><path d="M185.421,157.847l10.163.051,10.162.146,20.323.348,20.318.62,10.156.387q5.076.254,10.147.586-5.077-.218-10.156-.342l-10.157-.3-20.319-.454-20.318-.516-10.16-.234Z" style="fill:#a7abae"/><line x1="191.334" y1="172.171" x2="266.69" y2="174.222" style="fill:none;stroke:#a7abae;stroke-miterlimit:10;stroke-width:0.5px"/><path d="M119.6,242.768a211.964,211.964,0,0,1-4.674-24.437,17.482,17.482,0,0,1,.122-6.281,13.773,13.773,0,0,1,2.686-5.689,19.109,19.109,0,0,1,2.188-2.27,15.47,15.47,0,0,1,2.518-1.912,4.865,4.865,0,0,1,1.515-.6,2.7,2.7,0,0,1,1.665.13,4.339,4.339,0,0,1,2.024,2.412,5.021,5.021,0,0,0-2.191-1.982,3.293,3.293,0,0,0-2.731.53,14.955,14.955,0,0,0-2.417,1.847,18.633,18.633,0,0,0-2.116,2.2,13.186,13.186,0,0,0-2.56,5.456,16.864,16.864,0,0,0-.1,6.079c.537,4.1,1.232,8.181,2,12.247s1.592,8.122,2.558,12.147Z" style="fill:#a7abae"/><path d="M121.32,203.281s2.55,1.956,8.149,11.937" style="fill:none;stroke:#a7abae;stroke-miterlimit:10;stroke-width:0.5px"/><path d="M115.891,222.916s5.179-5.142,6.4-6.237,3.529-1.461,5.355-1.461,6.147.059,9.342,7.7,7.212,13.847,9.647,15.064,16.188,10.225,18.5,11.077,4.5,1.217,6.208-2.191" style="fill:none;stroke:#a7abae;stroke-miterlimit:10;stroke-width:0.5px"/><path d="M158.949,207.269a71.37,71.37,0,0,1-2.151-7.207c-.609-2.427-1.186-4.86-1.71-7.305q-1.566-7.335-2.844-14.726a51.112,51.112,0,0,1-.933-7.469,13.277,13.277,0,0,1,.5-3.771,13.1,13.1,0,0,1,1.623-3.438,22.634,22.634,0,0,1,2.356-2.958,16.774,16.774,0,0,1,2.811-2.543,6.074,6.074,0,0,1,1.743-.846,3.042,3.042,0,0,1,1.961.135,5.666,5.666,0,0,1,2.461,2.844,6.514,6.514,0,0,0-2.6-2.5,2.643,2.643,0,0,0-1.708-.062,6.16,6.16,0,0,0-1.6.8,16.316,16.316,0,0,0-2.724,2.485,22.107,22.107,0,0,0-2.3,2.9,12.6,12.6,0,0,0-1.554,3.317,12.855,12.855,0,0,0-.47,3.634,50.927,50.927,0,0,0,.952,7.381q1.3,7.373,2.891,14.693a124.985,124.985,0,0,0,3.764,14.455Z" style="fill:#a7abae"/><path d="M157.6,158.916s3.384,3.748,8.253,12.755" style="fill:none;stroke:#a7abae;stroke-miterlimit:10;stroke-width:0.5px"/><path d="M152.5,177.988s4.718-4.314,6.544-5.817,2.921-.772,4.747-.772a10.286,10.286,0,0,1,9.251,6.589c2.434,5.705,5.842,12.521,10.59,15.686s12.47,8.974,18.955,11.79" style="fill:none;stroke:#a7abae;stroke-miterlimit:10;stroke-width:0.5px"/><path d="M170.488,174.222a3.327,3.327,0,0,0-2.467-.679,6.676,6.676,0,0,0-2.462.822,22.886,22.886,0,0,0-4.276,3.089c-2.664,2.342-5.038,5-7.478,7.6.533-.716,1.092-1.411,1.638-2.119s1.158-1.359,1.735-2.041a50.543,50.543,0,0,1,3.775-3.818,21.258,21.258,0,0,1,4.438-3.058,6.911,6.911,0,0,1,2.615-.722A3.331,3.331,0,0,1,170.488,174.222Z" style="fill:#a7abae"/><path d="M120.568,204.121a48.707,48.707,0,0,1,1.72,12.558" style="fill:none;stroke:#a7abae;stroke-miterlimit:10;stroke-width:0.5px"/><path d="M156.491,159.985a52.869,52.869,0,0,1,2.556,12.186" style="fill:none;stroke:#a7abae;stroke-miterlimit:10;stroke-width:0.5px"/><path d="M95.922,50.524a17.752,17.752,0,0,1,.764-4.056,19.9,19.9,0,0,1,1.632-3.814,14.9,14.9,0,0,1,2.581-3.26,11.349,11.349,0,0,1,3.5-2.193,14.915,14.915,0,0,0-3.229,2.468A16.26,16.26,0,0,0,98.75,42.9a22.725,22.725,0,0,0-1.7,3.686A29.041,29.041,0,0,0,95.922,50.524Z" style="fill:#000001"/><path d="M66.31,177.274a9.812,9.812,0,0,0,.536-2.8c.143-2.988.589-10.773.748-13.759.181-3.394-2.411-3.7-4.361-3.783s-14.446-.244-16.783-.136-3.794.865-3.8,1.916c0,0-.179,1.538-.267,2.339a1.492,1.492,0,0,0,.588,1.285,1.548,1.548,0,0,0-.222.31A3.3,3.3,0,0,0,42.331,164c-.19,2.131-.9,10.1-.918,10.787a1.027,1.027,0,0,0,.575,1.025,1.494,1.494,0,0,0-.583.409,2.454,2.454,0,0,0-.635,1.452c-.061.679-.17,1.867-.284,2.97a4.1,4.1,0,0,0,.527,2.653c.363-1.717,3.689-1.682,3.689-1.682s9.989.42,14.191.468C60.77,182.1,64.621,182.055,66.31,177.274Z" style="fill:#f2a900;stroke:#12171d;stroke-miterlimit:10"/><path d="M42.338,161.983a.958.958,0,0,1,.175-1.023,2.222,2.222,0,0,1,.705-.565,4.726,4.726,0,0,1,1.631-.477c1.122-.11,2.179-.047,3.265-.073l6.482-.028,3.242.006a9.79,9.79,0,0,1,3.27.324,1.629,1.629,0,0,1,.692.55,1.684,1.684,0,0,1,.275.836c.018.572-.044,1.1-.078,1.641l-.284,3.23c-.2,2.151-.416,4.3-.684,6.448a5.031,5.031,0,0,1-.365,1.6,1.964,1.964,0,0,1-1.235,1.075,10.978,10.978,0,0,1-3.241.26c-4.322-.065-8.64-.195-12.959-.318,4.32.079,8.64.165,12.959.187a10.957,10.957,0,0,0,3.188-.283,1.787,1.787,0,0,0,1.127-1,4.83,4.83,0,0,0,.335-1.547c.246-2.143.437-4.3.621-6.447l.252-3.228c.03-.534.084-1.087.063-1.595a1.243,1.243,0,0,0-.794-1.12,9.652,9.652,0,0,0-3.143-.268L54.6,160.2l-6.479.087c-1.072.035-2.182-.012-3.21.1a4.29,4.29,0,0,0-1.459.438,1.775,1.775,0,0,0-.548.441.5.5,0,0,0-.126.48Z" style="fill:#12171d"/><path d="M40.677,182.559c-.224-1.1.707-2.378,3-2.322s14.272.522,15.835.48c2.831-.075,5.343-1.55,6.02-5.4l.82-15.375s.659-2.233-2.365-2.967" style="fill:none;stroke:#12171d;stroke-miterlimit:10;stroke-width:0.5px"/><path d="M42.968,162.336s.733-.9,3.784-1.06,11.978-.144,11.978-.144,2.253-.094,2.074,1.746-1.035,9.741-1.125,10.467a2.845,2.845,0,0,1-2.946,2.4c-2.08-.063-12.616-.274-12.616-.274a7,7,0,0,0-2.129.338" style="fill:none;stroke:#12171d;stroke-miterlimit:10;stroke-width:0.5px"/></g><g id="e9e69dce-9c9a-4f1e-b959-2e7907fca3e2" data-name="above"><g style="opacity:0.34"><path d="M73.227,139.69a12.582,12.582,0,0,1,.367-1.978,5.822,5.822,0,0,1,.935-1.8,6.572,6.572,0,0,1,3.366-2.277l.023-.007.04,0h.02l-.064.008a6.652,6.652,0,0,1,2.042-.276c.71.026,1.339.142,2,.208l3.935.467,7.868.934-.223,1.483-7.8-1.426-3.9-.713c-.645-.106-1.313-.267-1.921-.325a6.054,6.054,0,0,0-1.88.137l-.04.009h-.045l.063-.008a6.2,6.2,0,0,0-3.3,1.949,5.6,5.6,0,0,0-1.012,1.683A12.352,12.352,0,0,0,73.227,139.69Z" style="fill:#f2a900"/></g><g style="opacity:0.34"><path d="M94.107,131.55l-7.771-1.358-3.886-.68a14.319,14.319,0,0,0-3.819-.348,11.183,11.183,0,0,0-6.912,3.018,10.459,10.459,0,0,0-2.286,3.123,14.023,14.023,0,0,0-1.1,3.759,14.121,14.121,0,0,1,.927-3.836,10.763,10.763,0,0,1,2.193-3.312,11.742,11.742,0,0,1,7.108-3.5,15.164,15.164,0,0,1,4.026.168l3.913.494,7.828.988Z" style="fill:#f2a900"/></g><g style="opacity:0.34"><path d="M77.717,127.9c.114-1.257.248-2.5.418-3.76a10.856,10.856,0,0,1,1.259-3.656,11.488,11.488,0,0,1,5.892-5.018,12.152,12.152,0,0,1,3.886-.785,13.594,13.594,0,0,1,2,.093l1.867.268c2.485.365,4.973.714,7.453,1.112l1.217.195-.735.974c-1.091,1.448-2.12,2.94-3.126,4.445l-.257.385-.433-.072-4.759-.8c-.783-.133-1.6-.293-2.356-.4a6.169,6.169,0,0,0-2.2.1,6,6,0,0,0-3.644,2.475,6.156,6.156,0,0,0-.866,2.141c-.186.782-.392,1.561-.607,2.339.064-.805.137-1.61.23-2.411a6.336,6.336,0,0,1,.707-2.389,6.568,6.568,0,0,1,3.928-3.11,6.881,6.881,0,0,1,2.579-.253c.844.083,1.609.2,2.417.292l4.782.643-.69.313c.966-1.576,2.027-3.086,3.114-4.575l.482,1.169c-2.487-.352-4.967-.752-7.449-1.136l-1.859-.291a12.207,12.207,0,0,0-1.761-.134,11,11,0,0,0-3.484.595,10.869,10.869,0,0,0-5.609,4.273,11.3,11.3,0,0,0-1.468,3.325C78.333,125.451,78.052,126.681,77.717,127.9Z" style="fill:#f2a900"/></g><path d="M54,128.847c-1.292-14.447-1.292-46.042,1.88-68.71,1.057-6.813,2.7-14.682,21.141-15.269S95.811,56.731,96.046,62.721,97.1,105.826,97.1,112.638,97,129.323,98.987,133.2" style="fill:none;stroke:#000001;stroke-miterlimit:10;stroke-width:0.5px"/><path d="M65.271,138.5c-1.642-4.372-2.7-14.825-2.582-26.218s.822-35.471,2-43.693,4.128-9.866,11.4-9.748,9.975,2.231,9.975,8.221.235,46.747,0,51.915.581,17.468,1.994,21.654" style="fill:none;stroke:#000001;stroke-miterlimit:10;stroke-width:0.5px"/><path d="M67.9,67.115c-.6,7.921-2.035,34.144-2.035,44.922a5.17,5.17,0,0,0,4.974,5.276c3.467.075,5.8,0,7.462,0s4.975-.829,5.276-6.03.075-40.248,0-42.886-.528-5.653-4.145-5.729a58.916,58.916,0,0,0-6.558,0C71.666,62.819,68.166,63.56,67.9,67.115Z" style="fill:none;stroke:#000001;stroke-miterlimit:10;stroke-width:0.5px"/><path d="M73.419,75.061s-1.3,25.067-1.225,26.574.452,2.563,1.809,2.638a22.6,22.6,0,0,0,2.487,0s1.508.453,1.734-2.336.6-25.023.6-26.531a2.453,2.453,0,0,0-2.74-2.562A2.516,2.516,0,0,0,73.419,75.061Z" style="fill:none;stroke:#000001;stroke-miterlimit:10"/><path d="M66.408,145.468c-.99.25-1.61.59-1.61.96s.59.71,1.55.95a15.967,15.967,0,0,0,3.8.4,17.721,17.721,0,0,0,3.55-.33c1.11-.25,1.81-.62,1.81-1.02s-.66-.74-1.73-.99" style="fill:none;stroke:#000001;stroke-miterlimit:10;stroke-width:1.5px"/><path d="M66.352,147.775s-.083-5.38,1.2-8.822" style="fill:none;stroke:#000001;stroke-miterlimit:10"/><path d="M73.7,147.775a26.671,26.671,0,0,1,1.066-7.846" style="fill:none;stroke:#000001;stroke-miterlimit:10"/><path d="M73.065,72.84a24.43,24.43,0,0,1-2.353-3.424c-.339-.6-.675-1.21-.961-1.844a13.743,13.743,0,0,1-.76-1.942c.757,1.169,1.461,2.344,2.154,3.536S72.5,71.567,73.065,72.84Z" style="fill:#000001"/><path d="M78.827,72.84c.419-1.377.948-2.7,1.477-4.019l1.656-3.939a11.6,11.6,0,0,1-.47,2.1c-.2.69-.458,1.359-.723,2.024A25.028,25.028,0,0,1,78.827,72.84Z" style="fill:#000001"/><path d="M78.053,104.953a27.715,27.715,0,0,1,1.916,4.348c.252.752.5,1.506.677,2.281a14.144,14.144,0,0,1,.4,2.35L79.5,109.465C78.99,107.974,78.472,106.488,78.053,104.953Z" style="fill:#000001"/><path d="M72.191,104.307c-.594,1.77-1.291,3.489-2,5.2-.363.854-.719,1.71-1.1,2.555s-.756,1.7-1.18,2.53a40.154,40.154,0,0,1,1.823-5.277A42.358,42.358,0,0,1,72.191,104.307Z" style="fill:#000001"/><path d="M66.221,138.759c3.456.517,14.55,2.071,21.835,1.876a4.5,4.5,0,0,0,2.005-.529c6.72-3.615,12.108-9.869,17.495-17.436a56.8,56.8,0,0,0,3.054-9.562c.587-3.641,2.754-38.719-1.057-68.358-1.057-8.221-5.285-13.859-20.32-15.151s-23.49,6.93-26.544,11.158A80.1,80.1,0,0,0,55.994,52.15c-1.057,2.231-2.114,9.279-2.584,13.39s-2.349,41.578-2.114,52.266c0,0,.7,7.987,2.7,11.041,0,0,6.782,6.507,10.065,9A4.716,4.716,0,0,0,66.221,138.759Z" style="fill:none;stroke:#000001;stroke-miterlimit:10;stroke-width:1.5px"/><path d="M93.044,142.891c.294-4.357,1-12.931,2.239-17.893a4.3,4.3,0,0,1,.434-1.074,86.558,86.558,0,0,1,13.351-17.207,19.519,19.519,0,0,1,10.823-3.82c6.548-.273,14.188.273,24.92,1.728s25.1,3.638,28.74,4.457,9.459,2,12.915,9.277,1.91,17.889-1.364,25.042-10.277,12.156-11.823,13.429-6.913,2.911-11.824,3.092-39.2-.818-48.112-2.273-13.825-4.184-15.371-5.639a42.386,42.386,0,0,1-3.465-4.2A7.352,7.352,0,0,1,93.044,142.891Z" style="fill:#fff;opacity:0.79"/><path d="M157.281,136.231c-6.671-.832-28.776-3.124-37.886-3.56a4.4,4.4,0,0,0-4.664,4.049c-.2,2.967-.238,4.972-.3,6.392s.5,4.3,4.88,4.764,34.016,1.693,36.249,1.735,4.8-.224,5.012-3.32a50.981,50.981,0,0,0,.269-5.618C160.758,139.634,160.275,136.6,157.281,136.231Z" style="fill:none;stroke:#f2a900;stroke-miterlimit:10;stroke-width:0.5px"/><path d="M150.338,140.64s-21.134-2.128-22.411-2.124-2.185.284-2.3,1.443a19.928,19.928,0,0,0-.1,2.131s-.444,1.273,1.9,1.58,21.126,1.528,22.4,1.589a2.092,2.092,0,0,0,2.278-2.243A2.149,2.149,0,0,0,150.338,140.64Z" style="fill:none;stroke:#f2a900;stroke-miterlimit:10"/><path d="M152.23,140.426a18.2,18.2,0,0,1,2.971-1.907c.525-.266,1.052-.529,1.6-.743a10.584,10.584,0,0,1,1.687-.548c-1.007.627-2.024,1.187-3.059,1.734A29.561,29.561,0,0,1,152.23,140.426Z" style="fill:#f2a900"/><path d="M151.994,145.363a33.69,33.69,0,0,1,3.353,1.4c1.09.518,2.157,1.056,3.245,1.611a9.115,9.115,0,0,1-1.772-.464,17.109,17.109,0,0,1-1.686-.695A18.574,18.574,0,0,1,151.994,145.363Z" style="fill:#f2a900"/><path d="M124.882,143.4a20.839,20.839,0,0,1-3.74,1.5,18.987,18.987,0,0,1-1.96.48,10.948,10.948,0,0,1-2.012.221l3.829-1.18C122.279,144.05,123.558,143.673,124.882,143.4Z" style="fill:#f2a900"/><path d="M125.669,138.405c-1.486-.556-2.913-1.216-4.335-1.889-.706-.347-1.414-.687-2.11-1.056s-1.4-.728-2.077-1.138a30.079,30.079,0,0,1,4.4,1.743A31.722,31.722,0,0,1,125.669,138.405Z" style="fill:#f2a900"/><path d="M96.344,122.856c-.627,1.068-1.373,2.869,2.993,4.143s19.554,2.455,30.286,3.365,23.738,2.183,28.194,2.819,7.549,2.729,7.367,9.459-1.653,9.368-6.693,9.55-30.142-.364-42.875-1.819-21.8-3.011-22.589-5.871" style="fill:none;stroke:#f2a900;stroke-miterlimit:10;stroke-width:0.5px"/><path d="M104.463,111.722c-1.439,1.726-1.761,3.271,1.7,4.545a69.135,69.135,0,0,0,16.1,3.729c5.73.454,34.47,3,40.654,4s13.461,3.5,13.006,17.892-7.725,18.245-17.324,18.05" style="fill:none;stroke:#f2a900;stroke-miterlimit:10;stroke-width:0.5px"/><path d="M181.464,113.2a29.562,29.562,0,0,1-.688,4c-.307,1.319-.7,2.615-1.1,3.906-.453,1.275-.9,2.554-1.443,3.793s-1.119,2.462-1.77,3.647l1.412-3.789c.467-1.261.914-2.529,1.326-3.808.442-1.269.822-2.558,1.206-3.846S181.141,114.515,181.464,113.2Z" style="fill:#f2a900"/><path d="M97.258,121.388c-.73,1.15-1.24,2.02-1.54,2.54a4.382,4.382,0,0,0-.44,1.07,58.56,58.56,0,0,0-1.06,5.81c-.22,1.61-.41,3.28-.57,4.9-.29,2.75-.48,5.34-.6,7.18a7.3,7.3,0,0,0,1.46,4.92,41.792,41.792,0,0,0,3.46,4.2c1.55,1.46,6.46,4.19,15.37,5.64s43.21,2.46,48.12,2.27,10.27-1.81,11.82-3.09,8.55-6.27,11.82-13.43,4.82-17.76,1.37-25.04-9.28-8.46-12.92-9.28-18-3-28.74-4.45-18.37-2-24.92-1.73a19.468,19.468,0,0,0-10.82,3.82c-3.64,3.67-9.288,11.283-11.81,14.67" style="fill:none;stroke:#f2a900;stroke-miterlimit:10;stroke-width:1.5px"/></g><g id="a466dded-2276-4067-9dff-edee09f42f93" data-name="arrows/icons"><path d="M141.755,99.17,144.28,84.2,139.2,87.53c-8.279-10.632-21.192-16.011-36.79-15.188l.462,8.784c12.3-.647,22.423,3.337,28.939,11.257l-4.8,3.155Z" style="fill:#f2a900;stroke:#fff;stroke-miterlimit:10;stroke-width:1.5px"/></g><g id="f1264b72-a6d2-4b51-ab94-2f3e547111b4" data-name="inset frame"><path d="M62.5,144.028l.714-5.013,8.78,10.87-10.875,7.194a.286.286,0,0,1-.44-.278l.625-4.386c-20.324-4.928-35.018,4.53-23.695,18.306a.7.7,0,0,1-.864,1.055C19.351,162.207,29.067,136.608,62.5,144.028Z" style="fill:#f2a900;stroke:#fff;stroke-miterlimit:10;stroke-width:1.5px"/></g></svg>