<svg xmlns="http://www.w3.org/2000/svg" width="218" height="218" viewBox="0 0 218 218"><g id="b245ae31-0c93-424f-83a9-d8fb7a79bdee" data-name="illustration"><path d="M122.326,144.612l-.953-.294.378-1.472a1.429,1.429,0,0,1,.416-.705,8.024,8.024,0,0,1,2.818-1.6,4.368,4.368,0,0,1,2.631-.067l1.014.3-3.14,3.241Z" style="fill:#d3d5d6;stroke:#000001;stroke-miterlimit:10"/><path d="M121.849,142.463a7.719,7.719,0,0,1,2.461.6" style="fill:none;stroke:#12171d;stroke-miterlimit:10;stroke-width:0.5px"/><path d="M143.515,145.624c-4.835,4.226-10.244,5.983-14,5.358,0,0-40.292-7.755-43.643-8.619s-7.407-4.921-9-9.859S76,121.04,69.908,119.538c-21.117-1.673-34.655,13.114-38.228,22.825" style="fill:none;stroke:#a7abae;stroke-miterlimit:10;stroke-width:0.5px"/><path d="M230.049,138.993c-.19-2.306-5.122-2.975-5.122-2.975s-32.909-6.02-49.515-8.737-23.551,9.057-28.985,15.4a28.886,28.886,0,0,1-2.912,2.945" style="fill:none;stroke:#a7abae;stroke-miterlimit:10"/><path d="M263.337,129.468l-186.7-27.321L60,105.589a6.216,6.216,0,0,0-4.867,5.034l-.983,5.711" style="fill:none;stroke:#a7abae;stroke-miterlimit:10"/><path d="M26.091,188.359c7.8,2.771,22.591-2.51,37.039-12.158,11.678-7.8,15.608-11.932,15.608-11.932" style="fill:none;stroke:#a7abae;stroke-miterlimit:10;stroke-width:0.5px"/><path d="M22.361,184.442c1.771,2.3,12.317,6.363,25.6-3.121s23.33-19.917,39.263-16.5,34.144,6.828,42.3,9.673,12.447,3.6,21.3,21.624,16.632,31.3,29.151,35.849,17.451,6.45,21.813,5.5l1.91-.415a4.074,4.074,0,0,0,3.079-2.964l7.53-29.246" style="fill:none;stroke:#a7abae;stroke-miterlimit:10"/><path d="M203.7,237.051c-6.557.445-9.876-1.482-7.79-11.914s11.477-58.991,13.8-67.337,7.824-14.8,16.928-20.3" style="fill:none;stroke:#a7abae;stroke-miterlimit:10;stroke-width:0.5px"/><path d="M24.806,194.64c3.423,2.235,8.355,2.614,21.253-1.749s19.537-7.777,25.607-12.519,10.242-6.256,18.588-4.171,39.075,9.315,44.765,11.106,10.243,5.205,14.416,15.068,16.122,31.867,28.452,38.695" style="fill:none;stroke:#a7abae;stroke-miterlimit:10;stroke-width:0.5px"/><path d="M154.746,135.228q7.258,1.288,14.5,2.658l14.474,2.788,14.451,2.9q7.223,1.472,14.428,3.034-7.256-1.285-14.5-2.656l-14.475-2.789-14.453-2.9Q161.95,136.789,154.746,135.228Z" style="fill:#a7abae"/><path d="M88.51,172.49c8.21,1.876,37.563,8.977,44.137,10.657a1.071,1.071,0,0,0,1.333-.962c.1-1.292.236-3.243.263-4.345a1.065,1.065,0,0,0-.647-1c-5.853-2.536-36.848-9.254-43.27-10.086a1.012,1.012,0,0,0-1.016.654l-1.549,3.615A1.074,1.074,0,0,0,88.51,172.49Z" style="fill:none;stroke:#a7abae;stroke-miterlimit:10;stroke-width:0.5px"/><path d="M1.547,237.7c.165-.337,6.793-16.741,9.279-21.215s6.793-8.616,16.735-11.6,27.125-8.4,33.472-12.262c7.606-4.623,12.759-11.934,23.363-9.447s38.274,9.779,42.5,11.1,10.644,5.965,14.726,14.747S153,231.517,164.264,241.07" style="fill:none;stroke:#a7abae;stroke-miterlimit:10;stroke-width:0.5px"/><path d="M283.2,145.5s-46.445-7.606-48.625-7.991-9.41,3.057-11.591,5.352-9.587,9.295-12.023,19.853-6.223,29.148-6.911,32.131-1.306,7.443,4.475,8.722,58.985,14.344,58.985,14.344" style="fill:none;stroke:#a7abae;stroke-miterlimit:10"/><line x1="241.659" y1="136.543" x2="60.004" y2="105.589" style="fill:none;stroke:#a7abae;stroke-miterlimit:10;stroke-width:0.5px"/><path d="M-5.172,240.272c6.71-20.651,12.134-39.066,29.978-45.632l1.285-6.281c-3.712-2.713-6.281-5.71-3.712-14.846s8.428-30.513,11.278-37.5c4.557-11.169,25.519-28.231,49.788-24.384a9.5,9.5,0,0,1,1.355.311c3,.944,5.433,2.509,6.191,5.215,1.234,4.409.352,11.111,6.878,13.227s39.506,8.289,39.506,8.289,8.232,1.941,12.317,0" style="fill:none;stroke:#a7abae;stroke-miterlimit:10"/><path d="M74.412,121.04a69.885,69.885,0,0,1,7.131-3.236c1.224-.457,2.448-.915,3.7-1.3a25.415,25.415,0,0,1,3.81-.93c-1.248.388-2.467.838-3.685,1.294s-2.437.911-3.642,1.4C79.287,119.185,76.88,120.178,74.412,121.04Z" style="fill:#a7abae"/><path d="M78.142,88.838c-.58,4.394-1.093,8.855-1.506,13.309" style="fill:none;stroke:#a7abae;stroke-miterlimit:10"/><path d="M143.845,146a25.388,25.388,0,0,1-6.71,3.985,14.294,14.294,0,0,1-7.616,1,14.052,14.052,0,0,0,7.42-1.457,24.623,24.623,0,0,0,6.247-4.278Z" style="fill:#a7abae"/><ellipse cx="110.958" cy="125.437" rx="4.066" ry="1.443" style="fill:none;stroke:#a7abae;stroke-miterlimit:10;stroke-width:0.5px"/><path d="M104.565,135.018c-.026-.025-.047-.051-.076-.076-1.05-1.049-3.4-2.011-6.8-2.011-3.993,0-6.709,1.085-7.231,2.563a4.85,4.85,0,0,0-.661,1.743c-.283,1.521,3.532,2.8,7.892,2.8,3,0,5.609-.595,6.942-1.47l.011,0" style="fill:#d3d5d6;stroke:#000001;stroke-miterlimit:10"/><ellipse cx="97.691" cy="134.279" rx="2.849" ry="1.011" style="fill:none;stroke:#000001;stroke-miterlimit:10"/><path d="M100.505,137.86a19.067,19.067,0,0,1-2.814.2c-3.993,0-7.23-1.149-7.23-2.566" style="fill:none;stroke:#000001;stroke-miterlimit:10;stroke-width:0.5px"/><path d="M104.23,134.63c1.191.534-1.973,1.921-3.868,2.149a.206.206,0,0,0-.156.311,5.149,5.149,0,0,1,.371,2.359l.6.184c4.629-1,4.6-2.516,4.6-2.516a4.466,4.466,0,0,0-.852-2.1.814.814,0,0,0-.691-.384" style="fill:#d3d5d6;stroke:#000001;stroke-miterlimit:10"/><path d="M100.115,136.968l.571-.138c.578-.129,1.326,2.042.485,2.8" style="fill:none;stroke:#000001;stroke-miterlimit:10;stroke-width:0.5px"/><path d="M130.78,147.094c4.36,0,8.176-1.282,7.892-2.8a4.861,4.861,0,0,0-.66-1.743c-.523-1.477-3.239-2.563-7.232-2.563s-6.709,1.086-7.232,2.563a4.872,4.872,0,0,0-.661,1.743c-.283,1.521,3.533,2.8,7.893,2.8" style="fill:#d3d5d6;stroke:#000001;stroke-miterlimit:10"/><ellipse cx="130.778" cy="141.333" rx="2.849" ry="1.011" style="fill:none;stroke:#000001;stroke-miterlimit:10;stroke-width:0.5px"/><path d="M130.778,145.116c-3.992,0-7.229-1.149-7.229-2.566" style="fill:none;stroke:#000001;stroke-miterlimit:10;stroke-width:0.5px"/><path d="M130.781,145.116c3.993,0,7.23-1.149,7.23-2.566" style="fill:none;stroke:#000001;stroke-miterlimit:10;stroke-width:0.5px"/><polyline points="128.693 141.661 128.693 109.974 132.863 110.697 132.863 141.661" style="fill:#d3d5d6;stroke:#000001;stroke-miterlimit:10;stroke-width:1.5px"/><path d="M132.793,140.331c.516.183.835.436.835.715,0,.559-1.276,1.012-2.85,1.012s-2.849-.453-2.849-1.012c0-.266.29-.508.763-.688" style="fill:none;stroke:#000001;stroke-miterlimit:10"/><polyline points="95.605 134.894 95.605 103.206 99.775 103.93 99.775 134.894" style="fill:#d3d5d6;stroke:#000001;stroke-miterlimit:10;stroke-width:1.5px"/><path d="M99.706,133.564c.515.183.834.436.834.715,0,.559-1.275,1.011-2.849,1.011s-2.849-.452-2.849-1.011c0-.266.289-.508.763-.689" style="fill:none;stroke:#000001;stroke-miterlimit:10"/><path d="M128.871,127.279c-5.318-.962-33.546-5.531-42.111-7.265S69.487,105.131,69.63,96.276s2.84-40.2,7.28-54.185c2.427-7.64,19.214-7.873,32.09-7.985s32.861,4.124,37.144,5.133,7.423,4.625,9.279,10.706,9.707,53.8,4.282,60.536c-6.134,7.616-17.13,14.233-17.13,14.233S135.39,128.459,128.871,127.279Z" style="fill:#d3d5d6;stroke:#000001;stroke-miterlimit:10;stroke-width:1.5px"/><path d="M126.9,126.934c8.683,1.28,20.532-5.8,19.675-19.33s-3.692-44.821-3.934-49.411c-.285-5.416-.206-8.238,3.978-9.689,3.3-1.143,8.339-2.262,9.734,5.451" style="fill:none;stroke:#000001;stroke-miterlimit:10;stroke-width:0.5px"/><path d="M70.183,86.306c-.553,9.97,1.254,25.758,15.971,28.377s26.118,4.125,32.263,5.068,20.457-2.735,18.6-22.973-3.154-46.792-3.316-48.571a5.323,5.323,0,0,1,3.481-5.61c2.907-.979,9.659-3.82,13.642-.807" style="fill:none;stroke:#000001;stroke-miterlimit:10;stroke-width:0.5px"/><path d="M77.41,40.96c3.084-5.426,49.9-1.979,57.14,3.68" style="fill:none;stroke:#000001;stroke-miterlimit:10;stroke-width:0.5px"/><path d="M157.933,77.372l1.8,12.841c.332,2.075.612,4.472-.543,6.518a3.379,3.379,0,0,1-1.221,1.277c-.542.285-1.007.455-1.519.678a28.967,28.967,0,0,1-3.1,1.137,5.285,5.285,0,0,1-1.748.1,2.75,2.75,0,0,1-1.692-.779,2.791,2.791,0,0,1-.671-1.723l-.193-1.609-.77-6.436L146.754,76.5l-1.381-12.895c-.108-1.078-.219-2.146-.3-3.241a8.862,8.862,0,0,1,.253-3.377,3.864,3.864,0,0,1,.923-1.547,4.271,4.271,0,0,1,1.5-.954,7.848,7.848,0,0,1,1.647-.425,14.766,14.766,0,0,1,1.649-.205,5.5,5.5,0,0,1,1.727.13,3.1,3.1,0,0,1,1.54.932,4.41,4.41,0,0,1,.862,1.509,9.085,9.085,0,0,1,.425,1.62c.372,2.148.638,4.287.913,6.433.507,4.3,1,8.588,1.422,12.89l-1.907-12.823c-.327-2.132-.636-4.277-1.048-6.379a5.794,5.794,0,0,0-1.182-2.776,3.1,3.1,0,0,0-2.7-.769,14.01,14.01,0,0,0-1.56.229,7.058,7.058,0,0,0-1.477.411,3.062,3.062,0,0,0-1.916,1.991,8.086,8.086,0,0,0-.19,3.047c.09,1.059.209,2.139.324,3.21l1.469,12.876,1.432,12.883.725,6.441.182,1.61a2.026,2.026,0,0,0,.434,1.253,2.969,2.969,0,0,0,2.662.5,28.643,28.643,0,0,0,3.005-1.037c.483-.2,1.036-.4,1.453-.608a2.755,2.755,0,0,0,1.008-1.022,6.489,6.489,0,0,0,.814-2.953,19.682,19.682,0,0,0-.215-3.185Z" style="fill:#000001"/><path d="M145.477,59.9c.148-2.379,1.38-3.777,3.409-4.164s4.222-.293,4.709,3.1,3.815,30.081,4.059,32.591-.569,4.725-1.949,5.174-3.409.993-3.409.993-2.47,1.183-2.778-1.459" style="fill:none;stroke:#000001;stroke-miterlimit:10;stroke-width:0.5px"/><polygon points="115.034 81.393 105.085 96.387 94.256 78.192 99.441 78.981 99.409 56.095 109.807 57.204 109.849 80.603 115.034 81.393" style="fill:none;stroke:#fff;stroke-miterlimit:10;stroke-width:5px"/><polygon points="115.034 81.393 105.085 96.387 94.256 78.192 99.441 78.981 99.409 56.095 109.807 57.204 109.849 80.603 115.034 81.393" style="fill:#f2a900"/></g></svg>