<svg xmlns="http://www.w3.org/2000/svg" xmlns:xlink="http://www.w3.org/1999/xlink" width="170" height="129" viewBox="0 0 170 129"><defs><linearGradient id="ad2595b3-1940-4a2f-b653-21e684d37ddf" x1="6.649" y1="83.017" x2="23.849" y2="79.78" gradientUnits="userSpaceOnUse"><stop offset="0" stop-color="#d3d5d6" stop-opacity="0"/><stop offset="1" stop-color="#d3d5d6"/></linearGradient></defs><g id="bddfa897-3fbe-43b8-afe1-9eaed403749f" data-name="illustration"><path d="M5.023,70.54A24.222,24.222,0,0,1,19.7,75.467a.7.7,0,0,0,1.044-.246C32.627,51.1,34.884,38.913,50.5,38.913h83.339a10.04,10.04,0,0,1,3.938.805l6.508,2.775a2.982,2.982,0,0,1,1.813,2.743V78.928a2.983,2.983,0,0,1-1.622,2.654l-6.429,3.3a10.051,10.051,0,0,1-4.58,1.105H53.613a16.17,16.17,0,0,0-9.842,3.341l-14.6,11.2a2.266,2.266,0,0,0-.8,1.166,24.336,24.336,0,0,1-23.354,17.5" style="fill:url(#ad2595b3-1940-4a2f-b653-21e684d37ddf)"/><path d="M5.024,69.915A22.042,22.042,0,0,1,20.444,74.3c.355.228-.295-.226-.512-.047-.276.034-.5.484-.409.328l.037-.079c3.891-7.924,7.954-17.848,12.328-25.5C36,41.709,41.87,37.2,50.539,37.439c14.166,0,52.352.065,67.006.088l11.167.018,5.616.02a14.576,14.576,0,0,1,5.581,1.595l5.182,2.215a4.352,4.352,0,0,1,2.137,2.484,9.884,9.884,0,0,1,.228,3c-.025,5.574.039,16.764.023,22.335,0,2.587.008,7.239.01,9.781a4.454,4.454,0,0,1-2.622,3.974c-1.266.631-3.709,1.919-4.966,2.552a13.3,13.3,0,0,1-5.543,1.854c-1.85.071-6.514.032-8.437.045-17.945.013-55.027.008-72.575-.012a14.737,14.737,0,0,0-7.541,2.221c-1.647,1.053-5.03,3.809-6.634,4.986L30.3,101.388l-.278.212c-.519.453-.477,1.228-.774,1.826a25.5,25.5,0,0,1-4.186,7.494c-4.715,5.89-12.413,9.99-20.042,8.893,9.072-1.151,17.817-5.912,21.782-14.386a24.977,24.977,0,0,0,1.459-3.793,2.4,2.4,0,0,1,.85-1.222l.277-.212,8.853-6.808c1.719-1.283,5.005-3.956,6.746-5.085a16.3,16.3,0,0,1,8.327-2.472c20.26-.034,57.676-.043,78.187-.018a12.435,12.435,0,0,0,6.441-1.069l1.241-.634,2.486-1.271,2.486-1.271a2.862,2.862,0,0,0,1.786-2.61c.008-2.515.006-7.2.011-9.763-.024-5.56.039-16.775.024-22.335a10.4,10.4,0,0,0-.146-2.539,2.876,2.876,0,0,0-1.411-1.647L139.34,40.5a13.151,13.151,0,0,0-5.076-1.463l-5.552,0-11.167.018c-14.83.027-52.676.085-67.006.088-8-.243-13.372,3.981-17.219,10.72-4.351,7.5-8.527,17.509-12.408,25.315l-.037.079c.069-.1-.186.4-.522.452-.238.174-.864-.193-.745-.146A29.291,29.291,0,0,0,5.024,69.915Z" style="fill:#000001"/><path d="M126.837,71.694c0,3.181-2.005,5.785-4.455,5.785H41.162c-2.2,0-4-2.34-4-5.2V65.4a13.44,13.44,0,0,1,.931-4.542L42.3,51.3c1.285-2.914,4.453-5.3,7.039-5.3h73.039c2.45,0,4.455,2.6,4.455,5.785Z" style="fill:none;stroke:#000001;stroke-miterlimit:10"/><path d="M40.912,75.9c-1.538,0-2.789-1.625-2.789-3.622V65.4a11.482,11.482,0,0,1,.77-3.758l4.215-9.554c1.077-2.442,3.818-4.505,5.985-4.505h70.686c1.786,0,3.239,1.887,3.239,4.207V71.694c0,2.319-1.453,4.207-3.239,4.207Z" style="fill:none;stroke:#000001;stroke-miterlimit:10;stroke-width:0.5px"/><path d="M42.377,74.323A1.882,1.882,0,0,1,40.8,72.279V65.4a9.764,9.764,0,0,1,.61-2.974l4.215-9.554c.857-1.943,3.207-3.712,4.931-3.712h65a2.586,2.586,0,0,1,2.532,2.63V71.694a2.585,2.585,0,0,1-2.532,2.629Z" style="fill:none;stroke:#000001;stroke-miterlimit:10"/><path d="M53.613,85.983H45.09c-2.088,0-5.076,1.784-8.1,4.634" style="fill:none;stroke:#000001;stroke-linecap:round;stroke-linejoin:round;stroke-width:0.5px"/><path d="M20.456,75.809l-.508,4.257a21.867,21.867,0,0,1,6.019,15.088l2.968,5.553L43.771,89.324a16.17,16.17,0,0,1,9.842-3.341h79.849a10.051,10.051,0,0,0,4.58-1.105l6.429-3.3a2.983,2.983,0,0,0,1.622-2.654V45.236a2.982,2.982,0,0,0-1.813-2.743l-6.508-2.775a10.04,10.04,0,0,0-3.938-.805H50.5C34.757,38.913,32.591,51.3,20.456,75.809Z" style="fill:none;stroke:#000001;stroke-linecap:round;stroke-linejoin:round;stroke-width:0.5px"/><path d="M145.386,43.266H50.5c-12.648,0-17.134,9.564-30.547,36.8" style="fill:none;stroke:#000001;stroke-linecap:round;stroke-linejoin:round;stroke-width:0.5px"/><path d="M25.967,95.154c4.159-6.155,12.515-14.4,19.123-14.4H145.421" style="fill:none;stroke:#000001;stroke-linecap:round;stroke-linejoin:round;stroke-width:0.5px"/><path d="M122.133,38.913h4.492a2.839,2.839,0,0,1,2.075.9l2.06,2.207a4.215,4.215,0,0,1,1.164,2.754V79.241a4.938,4.938,0,0,1-1.164,3.3l-2.368,2.538a2.835,2.835,0,0,1-2.075.9h-4.546" style="fill:none;stroke:#000001;stroke-linecap:round;stroke-linejoin:round;stroke-width:0.5px"/><path d="M150.929,56.338v11.2a7.6,7.6,0,0,1-.3,2.15c-.04.13-.08.25-.13.37l-1.72,5.192c-.03.13-.08.25-.12.37-.451,1.2-1.211,1.991-2.081,1.991H137.9c-1.39,0-2.511-2.021-2.511-4.5V50.766c0-2.481,1.121-4.5,2.511-4.5h8.683c.87,0,1.63.79,2.081,1.99.04.12.09.24.12.37l1.72,5.192c.05.12.09.24.13.37A7.6,7.6,0,0,1,150.929,56.338Z" style="fill:#fff;stroke:#000001;stroke-miterlimit:10"/><path d="M146.576,74.619h-5.837c-.462,0-.838-.673-.838-1.5V50.771c0-.827.376-1.5.838-1.5h5.837" style="fill:none;stroke:#000001;stroke-linecap:round;stroke-linejoin:round"/><path d="M146.576,49.271c.283,0,.537.243.7.668l.041.113.036.114,1.742,5.264.068.184a2.48,2.48,0,0,1,.1.729v11.2a2.442,2.442,0,0,1-.094.708l-.1.277L147.325,73.8l-.023.079-.028.068c-.161.429-.415.673-.7.673" style="fill:none;stroke:#000001;stroke-miterlimit:10;stroke-width:0.5px"/><path d="M140.739,49.271h4.17c.283,0,.537.243.7.668l.042.113.035.114,1.742,5.264.069.184a2.514,2.514,0,0,1,.1.729v11.2a2.441,2.441,0,0,1-.095.708l-.1.277L145.657,73.8l-.022.079-.028.068c-.161.429-.415.673-.7.673h-4.17" style="fill:none;stroke:#000001;stroke-miterlimit:10"/><path d="M140.686,77.465c-1.634,0-2.913-2.119-2.913-4.825v-21.4c0-2.7,1.279-4.824,2.913-4.824" style="fill:none;stroke:#000001;stroke-linecap:round;stroke-linejoin:round;stroke-width:0.5px"/><path d="M100.194,57.078,99.511,55.4H99.34v1.675h-.954V52.313h1.3a1.42,1.42,0,0,1,1.428,1.579,1.482,1.482,0,0,1-.629,1.287l.794,1.9Zm-.854-2.7h.342c.281,0,.452-.15.452-.484s-.171-.483-.452-.483H99.34Z" style="fill:#000001"/><path d="M100.437,64.08,99.1,61.609l-.15-.333v2.8H98V59.315h.953l1.335,2.5.154.34V59.315h.955V64.08Z" style="fill:#000001"/><path d="M101.535,68.7a2.1,2.1,0,0,1-2.024,2.383H98.022V66.317h1.489A2.1,2.1,0,0,1,101.535,68.7Zm-2.559,1.287h.535c.678,0,1.031-.457,1.031-1.287s-.353-1.286-1.031-1.286h-.535Z" style="fill:#000001"/><path d="M111.213,60.915a1.451,1.451,0,0,1-1.429,1.6h-.369V64.08h-.954V59.315h1.323A1.437,1.437,0,0,1,111.213,60.915Zm-1.8.5h.369c.282,0,.453-.17.453-.5s-.171-.5-.453-.5h-.369Z" style="fill:#000001"/><polygon points="75.961 58.401 76.544 58.401 75.377 67.66 74.793 67.66 75.961 58.401" style="fill:#000001"/><polygon points="83.866 58.401 83.283 58.401 84.45 67.66 85.034 67.66 83.866 58.401" style="fill:#000001"/><path d="M79.919,60.248a2.362,2.362,0,0,1,.678.1,3.446,3.446,0,0,1,2.22,2.742H81.438a.482.482,0,0,0-.387-.48c-.244-.024-.638-.051-1.122-.051s-.877.028-1.122.051a.482.482,0,0,0-.387.48H77.045a3.4,3.4,0,0,1,2.221-2.75A2.4,2.4,0,0,1,79.919,60.248Zm0-.45a2.674,2.674,0,0,0-.648.08,4,4,0,0,0-2.66,4.032,4.354,4.354,0,0,0,1.727,3.611l.041.028H81.49l.042-.028a4.355,4.355,0,0,0,1.725-3.611c0-1.116-.516-3.454-2.66-4.023A2.673,2.673,0,0,0,79.914,59.8ZM78.78,63.131a.072.072,0,0,1,.055-.075c.238-.022.621-.049,1.094-.049s.855.027,1.093.049a.07.07,0,0,1,.056.075v1.127a1.12,1.12,0,0,1-.175.611l-.178.27a.4.4,0,0,1-.329.194h-.934a.4.4,0,0,1-.329-.194l-.177-.27a1.117,1.117,0,0,1-.176-.611Zm-1.811.779c0-.125.005-.25.015-.373h1.435v.72a1.7,1.7,0,0,0,.009.176H77A4.506,4.506,0,0,1,76.969,63.91Zm1.5,3.191a3.667,3.667,0,0,1-1.393-2.22h1.462a1.451,1.451,0,0,0,.138.269l.178.27a.872.872,0,0,0,.2.215l.164,1.444,0,.019h-.751Zm1.821-.076a.078.078,0,0,1-.07.076h-.574a.079.079,0,0,1-.07-.079l-.142-1.242h1ZM81.4,67.1h-.751l0-.018.162-1.447a.834.834,0,0,0,.2-.215l.178-.27a1.586,1.586,0,0,0,.138-.269h1.465A3.663,3.663,0,0,1,81.4,67.1Zm.035-2.668a1.7,1.7,0,0,0,.01-.176v-.72h1.435c.01.124.017.248.017.373a4.52,4.52,0,0,1-.031.523Z" style="fill:#000001;stroke:#000001;stroke-miterlimit:10;stroke-width:0.5px"/><path d="M81.594,57.614l-.515-1.3a.293.293,0,0,0-.294-.186H79.013a.278.278,0,0,0-.211.186l-.517,1.3h-.377v.33h.366v1.263h.266v-.558h2.784v.558h.266V57.944h.365v-.33Zm-2.56-1.135,0-.011,0-.006h1.741a.214.214,0,0,1,.057.008l.445,1.145H78.594Z" style="fill:#000001;stroke:#000001;stroke-miterlimit:10;stroke-width:0.5px"/><path d="M69.433,60.472l1.817,2.121,1.817-2.12h-.579L71.25,61.915l-1.236-1.443Z" style="fill:#000001;stroke:#000001;stroke-miterlimit:10;stroke-width:0.5px"/><path d="M93.38,60.28l1.237-1.443,1.237,1.442h.58l-1.817-2.12L92.8,60.28Z" style="fill:#000001;stroke:#000001;stroke-miterlimit:10;stroke-width:0.5px"/><path d="M114.889,63.274l-1.169-1.526,1.167-1.528v-.715l-1.716,2.243,1.718,2.243Z" style="fill:#000001;stroke:#000001;stroke-miterlimit:10;stroke-width:0.5px"/><path d="M92.8,63.212l1.817,2.12,1.817-2.119h-.58l-1.237,1.442L93.38,63.212Z" style="fill:#000001;stroke:#000001;stroke-miterlimit:10;stroke-width:0.5px"/><path d="M69.433,63.178,71.25,65.3l1.817-2.12h-.579L71.25,64.621l-1.236-1.443Z" style="fill:#000001;stroke:#000001;stroke-miterlimit:10;stroke-width:0.5px"/></g></svg>