<?xml version="1.0" encoding="UTF-8"?><svg xmlns="http://www.w3.org/2000/svg" width="218" height="142" xmlns:xlink="http://www.w3.org/1999/xlink" viewBox="0 0 218 142"><defs><linearGradient id="uuid-554e86bc-2f18-4395-a206-5f913db31930" x1="15.215" y1="74.711" x2="73.496" y2="68.64" gradientUnits="userSpaceOnUse"><stop offset="0" stop-color="#fff" stop-opacity="0"/><stop offset=".998" stop-color="#d3d5d6"/></linearGradient></defs><g id="uuid-f8013171-c7d7-4a13-a136-c647a74fca9f"><path d="M11.029,124.758c4.614-.081,9.285-1.132,13.719-3.256,5.23-2.505,9.841-6.401,13.233-11.497,2.649-3.975,4.362-8.42,5.108-13.013l.174-1.065c.125-.769.512-1.47,1.099-1.982,7.124-6.234,10.584-8.807,20.536-8.807h123.664c4.957,0,9.508-2.634,12.081-6.87l1.755-2.888c1.208-.325,1.992-.549,2.854-.781.902-.246,1.667-.841,2.122-1.656l1.61-3.093s3.6-6.291,3.6-21.71c0-5.423-.447-10.944-1.027-14.347-.023-.159-.053-.315-.08-.47-.14-.807-.728-1.467-1.516-1.701-1.069-.322-2.55-.762-3.373-1.012-.845-2.899-3.252-4.814-6.022-6.063-6.429-2.901-12.016-4.987-18.034-4.987h-108.851c-30.713,0-36.228,8.364-47.714,37.392-.197.493-.538.91-1.016,1.144-.477.231-1.023.265-1.527.091-3.185-1.104-6.844-1.703-10.578-1.803l-1.819,68.374Z" style="fill:url(#uuid-554e86bc-2f18-4395-a206-5f913db31930);"/><path d="M53.425,64.471v6.383c0,4.758,3.899,8.074,9.166,8.074h118.04c9.998,0,11.447-5.518,11.447-18.49,0-11.899-2.25-17.911-11.518-17.911h-104.934c-8.119,0-11.691,3.723-15.625,9.266-3.934,5.544-6.576,8.564-6.576,12.677Z" style="fill:none; stroke:#000001; stroke-linecap:round; stroke-linejoin:round; stroke-width:.5px;"/><path d="M77.567,46.697h96.186c6.325,0,7.729,3.211,7.729,15.49,0,12.64-2.541,13.35-7.729,13.331h-108.13c-3.419,0-5.377-1.764-5.377-4.285,0-2.52,0-2.271,0-6.383,0-4.112,1.99-6.108,5.439-10.782,3.449-4.674,6.134-7.372,11.882-7.372Z" style="fill:none; stroke:#000001; stroke-linecap:round; stroke-linejoin:round; stroke-width:.5px;"/><path d="M200.789,78.05c-2.041,3.437-5.795,5.421-9.798,5.421H61.858c-10.648,0-13.231,1.788-21.888,10.074" style="fill:none; stroke:#000001; stroke-linecap:round; stroke-linejoin:round; stroke-width:.5px;"/><path d="M25.97,56.949c11.487-29.028,17.004-37.39,47.715-37.39,18.682,0,88.076,0,108.85,0,5.904,0,11.579,2.075,18.037,4.987,2.871,1.295,5.337,3.33,6.11,6.383.929,3.67,2.53,9.239,2.53,17.21,0,15.421-4.238,23.001-4.238,23.001l-4.327,7.128c-2.571,4.236-7.124,6.871-12.079,6.871-27.338,0-115.795,0-123.668,0-9.95,0-13.408,2.57-20.534,8.806" style="fill:none; stroke:#000001; stroke-linecap:round; stroke-linejoin:round;"/><path d="M25.496,70.464c2.596-6.768,4.997-12.422,5.893-14.385,4.281-9.381,7.978-17.483,23.729-17.483h130.147c8.067,0,10.659,1.158,15.132-6.294,3.238-5.395,2.551-6.344,1.41-6.928" style="fill:none; stroke:#000001; stroke-linecap:round; stroke-linejoin:round; stroke-width:.5px;"/><path d="M205.215,74.61c.925-.252,1.705-.875,2.155-1.721l1.618-3.041s3.598-6.289,3.598-21.71c0-3.975-.493-10.777-1.115-14.775-.129-.827-.722-1.508-1.524-1.748-1.53-.458-3.886-1.164-3.918-1.173-.528-.158-.779-.073-1.255.821-.476.894-2.848,5.696-3.571,7.054-.917,1.724-.519,5.146-.164,7.029.665,3.535,1.209,10.534,1.209,16.532,0,6.157-.574,10.677-1.263,13.885l4.231-1.154Z" style="fill:#fff; stroke:#000001; stroke-linecap:round; stroke-linejoin:round;"/><path d="M211.56,33.794c-.309-1.374-.71-1.079-1.212-.136-.612,1.15-2.359,4.777-3.279,6.506-1.284,2.413-.895,4.171-.702,5.184.676,3.549,1.234,10.59,1.234,16.662,0,12.852-.195,10.349.613,8.903" style="fill:none; stroke:#000001; stroke-linecap:round; stroke-linejoin:round; stroke-width:.5px;"/><path d="M11.018,124.133c14.913-.833,28.512-12.028,30.884-26.97,0,0,.12-.707.12-.707,0,0,.029-.178.029-.178-.231.043,1.935.257,1.02.154l.002-.011s.004-.022.004-.022l.007-.045.015-.089s.059-.357.059-.357c0,0-1.018-.166-1.018-.166.156-.972.642-1.891,1.367-2.562,0,0,1.994-1.729,1.994-1.729,3.948-3.515,8.626-6.595,14.017-7.141,3.539-.474,7.047-.295,10.522-.334,25.751-.015,68.36-.012,94.18.021,0,0,20.929.016,20.929.016,3.348.077,6.947.119,9.893-1.749,3.061-1.624,4.837-4.783,6.538-7.675.067-.11.172-.184.287-.216l3.085-.846c.434-.117.834-.348,1.128-.665.155-.169.25-.314.371-.554l.379-.711c5.193-9.35,4.861-20.571,4.356-30.962-.154-2.116-.358-4.227-.69-6.314-.154-1.269-.277-1.522-1.494-1.804-.023-.007-3.066-.92-3.087-.926-.166-.05-.283-.184-.321-.34-1.124-4.536-6.185-5.941-10.009-7.597-4.157-1.66-8.508-2.941-12.953-2.942l-27.121.012c-18.008,0-63.968-.01-81.369-.022-4.507-.002-9.015.136-13.466.708-19.253,2.055-24.842,14.574-31.555,30.692,0,0-1.273,3.138-1.273,3.138-.43.967-.77,2.358-1.541,3.194-.898.997-2.419,1.166-3.603.616-3.181-1.121-6.501-1.704-9.869-2.043,3.399-.144,6.865.238,10.135,1.236.455.162.97.298,1.452.195,1.674-.245,1.914-2.247,2.527-3.559,1.291-3.046,2.548-6.416,3.94-9.398,6.295-14.367,13.183-23.211,29.655-25.086,4.52-.586,9.069-.727,13.599-.731,17.204-.017,63.575-.019,81.369-.022,0,0,27.125.016,27.125.016,4.638.007,9.127,1.345,13.334,3.031,4.119,1.722,9.413,3.391,10.608,8.275,0,0-.344-.347-.344-.347l3.061.922c.56.154,1.274.348,1.651.874.485.476.41,1.189.556,1.753.939,6.368,1.126,12.818.825,19.242-.354,6.936-1.586,14.238-5.532,20.118-.693.981-3.596,1.417-4.672,1.783,0,0,.287-.216.287-.216-1.789,3.017-3.659,6.308-6.875,8.017-2.315,1.384-5.098,1.999-7.77,1.897,0,0-2.616.002-2.616.002,0,0-20.929.016-20.929.016-25.873.015-68.384.052-94.18.021-3.493.033-6.989-.143-10.379.312-5.218.519-9.645,3.485-13.488,6.884,0,0-1.962,1.696-1.962,1.696-.556.514-.931,1.219-1.053,1.97l-1.019-.166s-.058.357-.058.357c0,0-.015.089-.015.089,0,0-.007.045-.007.045,0,0-.004.022-.004.022,0,0-.002.011-.002.011-.916-.095,1.248.126,1.016.177l-.029.179c-2.115,15.4-16.284,28.231-32.021,27.511h0Z" style="fill:#000001;"/><path d="M47.997,90.677l-4.341,3.702-3.686-.834c-6.25-7.221-9.217-15.181-14.473-23.081l-1.514-5.247c-.272-.942-.233-1.938.11-2.857,1.243-3.336,2.329-5.967,4.687-11.503,4.273-10.03,9.241-22.855,28.9-22.855,16.076,0,93.648,0,121.388,0,2.657,0,5.162.488,8.213-4.321,1.306-2.058,1.448-3.417-.631-3.644" style="fill:none; stroke:#000001; stroke-linecap:round; stroke-linejoin:round; stroke-width:.5px;"/><path d="M212.01,36.968c-.089-.738-.358-.848-.83.038-.344.647-2.042,4.182-2.624,5.275s-.536,2.663-.404,3.309c.675,3.287,1.259,10.118,1.259,16.042,0,4.807-.623,7.865.144,6.492" style="fill:none; stroke:#000001; stroke-linecap:round; stroke-linejoin:round; stroke-width:.5px;"/><path d="M147.549,55.81l-1.249-1.92h-.312l.002,1.92h-1.746l-.003-5.464h2.37c1.604,0,2.614.733,2.615,1.808.024.287-.069.572-.27.831-.202.258-.504.48-.878.644l1.454,2.178-1.981.002h0ZM145.986,52.712h.624c.515,0,.827-.172.827-.554,0-.391-.312-.554-.827-.554h-.624v1.108Z" style="fill:#a7abae;"/><path d="M148.002,63.84l-2.452-2.834-.273-.383.003,3.216h-1.745l-.004-5.464h1.74l2.444,2.864.283.391-.002-3.255h1.746l.004,5.464h-1.742Z" style="fill:#a7abae;"/><path d="M150.008,69.137c0,1.6-1.431,2.732-3.7,2.732h-2.724l-.004-5.465h2.724c2.27,0,3.703,1.133,3.704,2.733h0ZM145.33,70.612h.979c1.241,0,1.886-.523,1.885-1.475,0-.952-.647-1.475-1.887-1.475h-.979v2.95Z" style="fill:#a7abae;"/><path d="M167.708,60.209c0,1.046-1.007,1.834-2.611,1.834h-.676l.002,1.796h-1.746l-.003-5.464h2.417c1.607,0,2.618.758,2.618,1.834h0ZM164.42,60.787h.676c.514,0,.827-.195.827-.577,0-.391-.313-.577-.829-.577h-.676v1.155h.001Z" style="fill:#a7abae;"/><path d="M174.633,62.873v1.227l-3.588-2.937,3.576-2.932v1.222l-2.079,1.711,2.09,1.71h.001Z" style="fill:#a7abae;"/><path d="M135.174,59.604h-1.575l3.75-2.742,3.744,2.742h-1.567l-2.177-1.589-2.175,1.589Z" style="fill:#a7abae;"/><path d="M139.527,62.723h1.567l-3.742,2.742-3.752-2.742h1.575l2.177,1.589,2.175-1.589Z" style="fill:#a7abae;"/><polygon points="97.744 24.332 91.84 24.332 90.183 25.214 98.754 25.214 97.744 24.332" style="fill:#000001;"/><polygon points="99.227 25.628 89.405 25.628 87.748 26.509 100.237 26.509 99.227 25.628" style="fill:#000001;"/><path d="M92.428,22.818l-.146.398-.063.173-.17.463h.774l.17-.463h4.291l-.17.463h.774l.17-.463.063-.173.146-.398h.804l.127-.345h-.945l-.51-.749c-.033-.06-.115-.11-.23-.142-.104-.029-.231-.043-.37-.037h-2.819l-.154.013c-.092.016-.18.04-.254.07-.075.03-.138.067-.161.089l-1.062.756h-.945l-.127.345h.805ZM94.335,21.889h2.668l.397.584h-3.862l.796-.584Z" style="fill:#000001; stroke:#000001; stroke-miterlimit:10; stroke-width:.25px;"/><path d="M164.642,21.543c-3.179,0-6.189,1.153-6.709,2.569s1.643,2.57,4.822,2.57,6.189-1.153,6.709-2.57-1.643-2.569-4.822-2.569ZM162.882,26.337c-2.752,0-4.625-.998-4.175-2.225s3.056-2.224,5.808-2.224,4.625.998,4.175,2.224-3.056,2.225-5.808,2.225Z" style="fill:#000001; stroke:#000001; stroke-miterlimit:10; stroke-width:.25px;"/><polygon points="165.947 23.084 163.769 23.918 162.204 23.084 161.567 23.328 163.132 24.162 160.955 24.996 161.412 25.24 163.59 24.406 165.156 25.24 165.793 24.996 164.227 24.162 166.405 23.328 165.947 23.084" style="fill:#000001; stroke:#000001; stroke-miterlimit:10; stroke-width:.25px;"/><polygon points="83.212 23.399 81.891 23.398 84.866 24.983 89.006 23.398 87.686 23.398 85.083 24.395 83.212 23.399" style="fill:#000001; stroke:#000001; stroke-miterlimit:10; stroke-width:.25px;"/><polygon points="116.194 22.624 114.873 22.624 117.848 24.209 121.988 22.624 120.668 22.624 118.065 23.621 116.194 22.624" style="fill:#000001; stroke:#000001; stroke-miterlimit:10; stroke-width:.25px;"/><polygon points="115.625 24.173 114.304 24.173 117.279 25.758 121.419 24.173 120.099 24.173 117.496 25.17 115.625 24.173" style="fill:#000001; stroke:#000001; stroke-miterlimit:10; stroke-width:.25px;"/><polygon points="153.788 24.983 155.108 24.983 152.134 23.398 147.993 24.983 149.313 24.983 151.917 23.986 153.788 24.983" style="fill:#000001; stroke:#000001; stroke-miterlimit:10; stroke-width:.25px;"/><g id="uuid-aac9bce0-7665-41d7-a7fa-691c37b1cd5f"><path d="M134.993,24.646h-2.555c.047-.061.085-.123.108-.186l.152-.414h2.552c-.029.2-.117.401-.257.6M134.572,25.107c-.573.483-1.475.904-2.543,1.186-.147.039-.308.059-.466.059h-1.144l.634-.932c.13-.037.253-.079.358-.129l.404-.19c.084-.039.158-.082.23-.125h2.656c-.045.043-.079.088-.129.131M130.249,25.221h-1.561c-.115,0-.227-.012-.323-.035s-.176-.057-.232-.098l-.269-.194c-.17-.123-.232-.278-.173-.434l.319-.802c.008-.02.048-.037.094-.04.564-.03,1.153-.045,1.971-.045s1.395.016,1.937.045c.044.002.071.019.065.04l-.27.802c-.057.157-.232.311-.492.434l-.412.194c-.086.041-.191.075-.304.098s-.233.035-.349.035M129.696,26.315c-.018.023-.036.037-.1.037h-1.087c-.063,0-.072-.013-.073-.037l.041-.769c.029,0,.057.005.087.005h1.564c.03,0,.06-.004.09-.005l-.523.769M126.544,26.352c-.158,0-.304-.021-.422-.059-.861-.282-1.454-.703-1.673-1.186-.019-.043-.02-.088-.033-.131h2.656c.04.043.083.085.138.125l.264.19c.068.05.161.092.263.129l-.05.932h-1.144M124.551,24.046h2.552l-.152.414c-.023.063-.031.125-.028.186h-2.555c.005-.199.066-.4.183-.6M124.903,23.596c.51-.492,1.362-.932,2.399-1.239,1.037-.307,2.243-.476,3.394-.476,1.151,0,2.232.17,3.044.476.812.307,1.34.747,1.489,1.239.012.039.006.08.013.12h-2.422l.021-.057c.038-.094-.004-.185-.119-.256-.115-.07-.293-.114-.507-.123-.502-.018-1.134-.036-2.019-.036s-1.53.018-2.045.036c-.221.009-.431.053-.598.123-.168.071-.276.161-.307.256l-.021.057h-2.422c.036-.04.06-.081.101-.12M135.973,23.502c-.169-.56-.771-1.061-1.694-1.41-.924-.349-2.153-.542-3.463-.542-1.31,0-2.681.193-3.861.542-1.179.349-2.149.85-2.729,1.41s-.763,1.17-.515,1.719c.248.549.923,1.027,1.902,1.348.225.074.506.114.81.114h5.019c.304,0,.613-.039.893-.114,1.214-.32,2.24-.799,2.891-1.348.651-.549.916-1.159.747-1.719Z" style="fill:#000001; stroke:#000001; stroke-miterlimit:10; stroke-width:.25px;"/></g></g><g id="uuid-dee6e568-7508-4707-a550-78fa04180d7f"><polygon points="115.299 35.583 109.408 43.996 100.056 43.996 110.353 57.81 143.502 44.011 131.789 44.011 137.679 35.594 115.299 35.583" style="fill:#f2a900; stroke:#fff; stroke-miterlimit:10;"/></g></svg>