<svg id="Layer_1" data-name="Layer 1" xmlns="http://www.w3.org/2000/svg" width="147.16" height="155.64" viewBox="0 0 147.16 155.64"><g id="illustration"><path d="M51.07,158c.18-1.56.37-3.39.58-5.58.44-4.62-.48-5.67-3.76-5.75s-12.09.17-22.83.17c-5,0-9.6-.05-13.41-.1" transform="translate(-5.23 -3.56)" style="fill:none;stroke:#a7abae;stroke-linecap:round;stroke-linejoin:round;stroke-width:0.5px"/><path d="M6.78,134c7,.44,14.65.37,18.28.37,4,0,13,.09,20.53-.53s11-1.16,15.19-6.34,11.31-15.09,14.13-19.74,3.09-6.34,3.18-11.34-.17-25.8-.44-32.14-1.41-7.5-5.39-10.8-4.93-4.08-10.6-4.85" transform="translate(-5.23 -3.56)" style="fill:none;stroke:#a7abae;stroke-linecap:round;stroke-linejoin:round"/><path d="M8.57,144.44c4.49.2,9.9.28,16.49.28,31.92,0,36.22-2.05,41.19-8.4,6.37-8.13,17.57-24.14,19.31-26.57,1.45-2,3.87-3.81,6.34-3.89,3.77-.12,24.08-1,35.3-1.13,10.07-.11,10.83-4.62,10-10.84a162.85,162.85,0,0,0-4.06-21.43c-1.89-6.9-6.3-8.63-12.43-9.22s-21.84-2.39-27-2.74S86.54,59,84.54,57.58s-8.83-6.64-8.83-6.64" transform="translate(-5.23 -3.56)" style="fill:none;stroke:#a7abae;stroke-linecap:round;stroke-linejoin:round;stroke-width:0.5px"/><path d="M73.24,54c.29.22,7,5.35,9.1,6.77,2.42,1.65,5.09,3.17,11.11,3.58,3.28.23,24.75,2.24,26.92,2.45,5.83.56,7.86,2.28,9,6.66a158.44,158.44,0,0,1,3.87,20.83c.6,4.69-2.52,7.07-9.39,7.27l-32.12,1c-4.09.13-7.53,2.94-9.38,5.52-.29.4-14,19.07-19.21,25.77-3.86,4.92-6.67,6.92-38.14,6.92-7.38,0-13.18-.11-17.8-.35" transform="translate(-5.23 -3.56)" style="fill:none;stroke:#a7abae;stroke-linecap:round;stroke-linejoin:round;stroke-width:0.5px"/><path d="M6.24,115.54c6.26.26,12.55.52,18.82.52,6.84,0,13.71-.32,20.53-.59,6.67-.26,10.2-2.09,15.92-12.41,5.42-9.8,5.36-12.37,5.36-16.15,0-7.8,0-15.6-.1-23.4,0-3-.5-7.41-4.84-10.54s-6.65-5-9-5" transform="translate(-5.23 -3.56)" style="fill:none;stroke:#a7abae;stroke-linecap:round;stroke-linejoin:round;stroke-width:0.5px"/><path d="M5.48,123.24c6.09.22,14.62.41,19.58.41,6.66,0,19.82-.36,24.77-.62s8-3.3,10.6-6.79,8.3-12,9.8-15,2.83-4.93,3-10.65,0-16.22-.11-26.67c0-3-.5-7.41-4.84-10.54s-6.65-5-9-5" transform="translate(-5.23 -3.56)" style="fill:none;stroke:#a7abae;stroke-linecap:round;stroke-linejoin:round;stroke-width:0.5px"/><path d="M22.78,99.16a3.2,3.2,0,0,0,4.53,0l0,0L39.68,86.67a3.29,3.29,0,0,0,0-4.6L27.33,69.59a3.18,3.18,0,0,0-4.51,0l0,0L10.43,82.07a3.29,3.29,0,0,0,0,4.6Z" transform="translate(-5.23 -3.56)" style="fill:none;stroke:#a7abae;stroke-linecap:round;stroke-linejoin:round;stroke-width:0.5px"/><path d="M33.87,83.44a1.35,1.35,0,0,0,1,.4h3.48a.35.35,0,0,0,.32-.22.36.36,0,0,0-.08-.38L26.18,70.73a1.58,1.58,0,0,0-2.23,0v0L11.56,83.24h0a.36.36,0,0,0-.08.38.35.35,0,0,0,.33.22h3.47a1.33,1.33,0,0,0,1-.4l8.21-8.3a.86.86,0,0,1,1.2,0h0ZM16.24,85.3a1.33,1.33,0,0,0-1-.4H11.81a.36.36,0,0,0-.33.22.36.36,0,0,0,.08.38L23.93,98a1.58,1.58,0,0,0,2.23,0h0L38.55,85.5h0a.36.36,0,0,0,.08-.38.35.35,0,0,0-.32-.22H34.83a1.35,1.35,0,0,0-1,.4l-8.21,8.3a.85.85,0,0,1-1.2,0h0Z" transform="translate(-5.23 -3.56)" style="fill:none;stroke:#a7abae;stroke-linecap:round;stroke-linejoin:round;stroke-width:0.5px"/><path d="M25.75,81a.78.78,0,0,0,.24.58l2.29,2.32a.68.68,0,0,1,0,.94L26,87.16a.78.78,0,0,0-.24.58v3.55a.35.35,0,0,0,.59.25l6.12-6.2a1.38,1.38,0,0,0,0-1.94l-6.11-6.19a.35.35,0,0,0-.39-.07.34.34,0,0,0-.21.32Z" transform="translate(-5.23 -3.56)" style="fill:none;stroke:#a7abae;stroke-linecap:round;stroke-linejoin:round;stroke-width:0.5px"/><path d="M17.65,83.4a1.38,1.38,0,0,0,0,1.94l6.23,6.31a.36.36,0,0,0,.38.08.37.37,0,0,0,.22-.33V87.85a.83.83,0,0,0-.24-.58l-2.4-2.43a.66.66,0,0,1,0-.94l2.4-2.43a.83.83,0,0,0,.24-.58V77.35a.35.35,0,0,0-.22-.32.34.34,0,0,0-.38.07Z" transform="translate(-5.23 -3.56)" style="fill:none;stroke:#a7abae;stroke-linecap:round;stroke-linejoin:round;stroke-width:0.5px"/><path d="M77.72,66.37a1.08,1.08,0,0,1,1-1.15h.19s31.47,2.77,37.89,3.42,9,2.14,10,6.13a142.1,142.1,0,0,1,3.06,16.37c.53,5.06.3,7.86-5.83,8.1-5.47.21-38.35,1.1-44.94,1.27a1.09,1.09,0,0,1-.82-.34,1.13,1.13,0,0,1-.31-.85" transform="translate(-5.23 -3.56)" style="fill:none;stroke:#a7abae;stroke-linecap:round;stroke-linejoin:round;stroke-width:0.5px"/><path d="M78.1,89.28a1.12,1.12,0,0,0,1.1,1.1c5.54,0,30.58,0,36.54,0,3.47,0,3.94-1.43,3.73-3.76a64.62,64.62,0,0,0-1.08-6.78c-.35-1.43-1.35-3-4.36-3.16-2.67-.1-29.08-.86-34.95-1a1,1,0,0,0-.8.32,1.06,1.06,0,0,0-.33.81Z" transform="translate(-5.23 -3.56)" style="fill:none;stroke:#a7abae;stroke-linecap:round;stroke-linejoin:round;stroke-width:0.5px"/><path d="M117.61,87.09a1.38,1.38,0,0,1-1.2,1.55h-.16c-2.48,0-8.37,0-27.34,0-.86,0-2.64-.16-2.83-2.92-.1-1.58-.17-3.44-.23-4.66-.13-2.46.92-3.44,3.33-3.38s22.9.58,24.8.65a2.44,2.44,0,0,1,2.65,2C116.65,80.44,117.05,82.58,117.61,87.09Z" transform="translate(-5.23 -3.56)" style="fill:none;stroke:#a7abae;stroke-linecap:round;stroke-linejoin:round;stroke-width:0.5px"/><path d="M115.08,105c0,2-.29,2.33-.92,2.35" transform="translate(-5.23 -3.56)" style="fill:none;stroke:#a7abae;stroke-miterlimit:10;stroke-width:0.5px"/><path d="M96.49,85.76A1.23,1.23,0,0,0,97.72,87h7.39a1.24,1.24,0,0,0,1.23-1.24h0V81a1.24,1.24,0,0,0-1.2-1.24l-7.39-.18a1.25,1.25,0,0,0-.89.36,1.22,1.22,0,0,0-.37.89Z" transform="translate(-5.23 -3.56)" style="fill:none;stroke:#a7abae;stroke-linecap:round;stroke-linejoin:round;stroke-width:0.5px"/><path d="M65.81,158.7l1.42-9.51c1.23-8,2.56-9.55,6.09-14.64s10.48-14.82,14.46-20.72c0,0,3.75-5,9.13-5.58a208,208,0,0,1,22.6-.87c7.78.19,8.84,5.92,6.9,12.36a113.68,113.68,0,0,1-18.25,34.76m-97.35-7.64c3.21,0,8.33.13,14.25.13,7.9,0,14.38-.19,16.8-.13s2.92,2.63,2.82,4.24c-.13,2.23-.35,4.47-.56,6.09m88-3.79c12.09-20.14,19.72-43.33,19.72-68.7A131.64,131.64,0,0,0,127.47,8M94.86,4.06c6.56,8,9.82,15,11.56,17,6,7.08,12.13,5.68,18.4,20.41,5.68,13.38-.27,17.06-5.39,17.06-6.45,0-17.22-2.38-33-5.48-24.82-4.88-23.3-5.44-61.38-5.44-6.93,0-12.55,0-17.25.08" transform="translate(-5.23 -3.56)" style="fill:none;stroke:#a7abae;stroke-linecap:round;stroke-linejoin:round"/><path d="M104.14,82l.35.34a.13.13,0,0,0,.1,0h0v-1a.14.14,0,0,0-.15,0l-.35.35a.14.14,0,0,0,0,.19Z" transform="translate(-5.23 -3.56)" style="fill:#000001;stroke:#a7abae;stroke-miterlimit:10"/><path d="M103.3,81.18l.35.35a.15.15,0,0,0,.1,0,.17.17,0,0,0,.1,0l.34-.35a.14.14,0,0,0,0-.2h0l-.34-.35a.13.13,0,0,0-.2,0h0l-.35.35a.12.12,0,0,0,0,.19Z" transform="translate(-5.23 -3.56)" style="fill:#000001;stroke:#a7abae;stroke-miterlimit:10"/><path d="M102.46,80.4l.35.35a.15.15,0,0,0,.2,0l.35-.35a.15.15,0,0,0,0-.2h0l-.35-.35a.15.15,0,0,0-.2,0h0l-.35.35a.15.15,0,0,0,0,.2Z" transform="translate(-5.23 -3.56)" style="fill:#000001;stroke:#a7abae;stroke-miterlimit:10"/><path d="M104.14,83.51l.35.35a.18.18,0,0,0,.1,0h0v-1a.14.14,0,0,0-.15,0l-.35.35a.15.15,0,0,0,0,.2Z" transform="translate(-5.23 -3.56)" style="fill:#000001;stroke:#a7abae;stroke-miterlimit:10"/><path d="M103.3,82.73l.35.35a.12.12,0,0,0,.1,0,.13.13,0,0,0,.1,0l.34-.35a.13.13,0,0,0,0-.19h0l-.34-.34a.14.14,0,0,0-.2,0h0l-.35.34a.13.13,0,0,0,0,.2Z" transform="translate(-5.23 -3.56)" style="fill:#000001;stroke:#a7abae;stroke-miterlimit:10"/><path d="M102.46,82l.35.34a.15.15,0,0,0,.2,0l.35-.34a.15.15,0,0,0,0-.2h0l-.35-.35a.13.13,0,0,0-.2,0h0l-.35.35a.14.14,0,0,0,0,.19Z" transform="translate(-5.23 -3.56)" style="fill:#000001;stroke:#a7abae;stroke-miterlimit:10"/><path d="M101.62,81.18l.35.35a.18.18,0,0,0,.2,0l.35-.35a.15.15,0,0,0,0-.2h0l-.35-.35a.13.13,0,0,0-.2,0h0l-.35.35a.14.14,0,0,0,0,.19Z" transform="translate(-5.23 -3.56)" style="fill:#000001;stroke:#a7abae;stroke-miterlimit:10"/><path d="M101.71,79.71,102,80a.15.15,0,0,0,.2,0l.24-.25Z" transform="translate(-5.23 -3.56)" style="fill:#000001;stroke:#a7abae;stroke-miterlimit:10"/><path d="M100,79.67l.3.3a.18.18,0,0,0,.1,0,.21.21,0,0,0,.1,0l.28-.28Z" transform="translate(-5.23 -3.56)" style="fill:#000001;stroke:#a7abae;stroke-miterlimit:10"/><path d="M104.14,80.4l.35.35a.17.17,0,0,0,.1,0h.06v-.94a.14.14,0,0,0-.16,0l-.35.35a.15.15,0,0,0,0,.2Z" transform="translate(-5.23 -3.56)" style="fill:#000001;stroke:#a7abae;stroke-miterlimit:10"/><path d="M103.43,79.75l.22.22a.15.15,0,0,0,.2,0l.2-.21Z" transform="translate(-5.23 -3.56)" style="fill:#000001;stroke:#a7abae;stroke-miterlimit:10"/><path d="M100.78,80.4l.35.35a.15.15,0,0,0,.2,0l.35-.35a.15.15,0,0,0,0-.2h0l-.35-.35a.15.15,0,0,0-.2,0h0l-.35.35a.14.14,0,0,0,0,.2Z" transform="translate(-5.23 -3.56)" style="fill:#000001;stroke:#a7abae;stroke-miterlimit:10"/><path d="M104.14,85.06l.35.35a.13.13,0,0,0,.1,0h0v-1a.12.12,0,0,0-.14,0l-.35.35a.14.14,0,0,0,0,.19Z" transform="translate(-5.23 -3.56)" style="fill:#000001;stroke:#a7abae;stroke-miterlimit:10"/><path d="M103.3,84.29l.35.35a.15.15,0,0,0,.1,0,.17.17,0,0,0,.1,0l.34-.35a.14.14,0,0,0,0-.2h0l-.34-.35a.13.13,0,0,0-.2,0h0l-.35.35a.12.12,0,0,0,0,.19Z" transform="translate(-5.23 -3.56)" style="fill:#000001;stroke:#a7abae;stroke-miterlimit:10"/><path d="M102.46,83.51l.35.35a.15.15,0,0,0,.2,0l.35-.35a.15.15,0,0,0,0-.2h0L103,83a.15.15,0,0,0-.2,0h0l-.35.35a.15.15,0,0,0,0,.2Z" transform="translate(-5.23 -3.56)" style="fill:#000001;stroke:#a7abae;stroke-miterlimit:10"/><path d="M101.62,82.73l.35.35a.15.15,0,0,0,.2,0l.35-.35a.14.14,0,0,0,0-.19h0l-.35-.34a.14.14,0,0,0-.2,0h0l-.35.34a.15.15,0,0,0,0,.2Z" transform="translate(-5.23 -3.56)" style="fill:#000001;stroke:#a7abae;stroke-miterlimit:10"/><path d="M100.78,82l.35.34a.13.13,0,0,0,.2,0h0l.35-.34a.15.15,0,0,0,0-.2h0l-.35-.35a.13.13,0,0,0-.2,0h0l-.35.35a.13.13,0,0,0,0,.19Z" transform="translate(-5.23 -3.56)" style="fill:#000001;stroke:#a7abae;stroke-miterlimit:10"/><path d="M99.1,80.4l.35.35a.15.15,0,0,0,.1,0,.18.18,0,0,0,.1,0l.34-.35a.14.14,0,0,0,0-.2h0l-.34-.35a.15.15,0,0,0-.2,0h0l-.35.35a.13.13,0,0,0,0,.2Z" transform="translate(-5.23 -3.56)" style="fill:#000001;stroke:#a7abae;stroke-miterlimit:10"/><path d="M99.94,81.18l.35.35a.18.18,0,0,0,.2,0l.35-.35a.15.15,0,0,0,0-.2h0l-.35-.35a.13.13,0,0,0-.2,0h0l-.35.35a.13.13,0,0,0,0,.19Z" transform="translate(-5.23 -3.56)" style="fill:#000001;stroke:#a7abae;stroke-miterlimit:10"/><path d="M104.14,86.62l.35.35a.18.18,0,0,0,.1,0h0V86a.17.17,0,0,0-.14,0l-.35.35a.15.15,0,0,0,0,.2Z" transform="translate(-5.23 -3.56)" style="fill:#000001;stroke:#a7abae;stroke-miterlimit:10"/><path d="M103.3,85.84l.35.35a.12.12,0,0,0,.1,0,.13.13,0,0,0,.1,0l.34-.35a.13.13,0,0,0,0-.19h0l-.34-.34a.14.14,0,0,0-.2,0h0l-.35.34a.13.13,0,0,0,0,.2Z" transform="translate(-5.23 -3.56)" style="fill:#000001;stroke:#a7abae;stroke-miterlimit:10"/><path d="M102.46,85.07l.35.34a.15.15,0,0,0,.2,0l.35-.34a.15.15,0,0,0,0-.2h0l-.35-.35a.14.14,0,0,0-.2,0h0l-.35.35a.14.14,0,0,0,0,.19Z" transform="translate(-5.23 -3.56)" style="fill:#000001;stroke:#a7abae;stroke-miterlimit:10"/><path d="M101.62,84.29l.35.35a.18.18,0,0,0,.2,0l.35-.35a.15.15,0,0,0,0-.2h0l-.35-.35a.13.13,0,0,0-.2,0h0l-.35.35a.14.14,0,0,0,0,.19Z" transform="translate(-5.23 -3.56)" style="fill:#000001;stroke:#a7abae;stroke-miterlimit:10"/><path d="M100.78,83.51l.35.35a.15.15,0,0,0,.2,0h0l.35-.35a.15.15,0,0,0,0-.2h0l-.35-.35a.15.15,0,0,0-.2,0h0l-.35.35a.14.14,0,0,0,0,.2Z" transform="translate(-5.23 -3.56)" style="fill:#000001;stroke:#a7abae;stroke-miterlimit:10"/><path d="M99.94,82.73l.35.35a.15.15,0,0,0,.2,0l.35-.35a.14.14,0,0,0,0-.19h0l-.35-.34a.14.14,0,0,0-.2,0h0l-.35.34a.14.14,0,0,0,0,.2Z" transform="translate(-5.23 -3.56)" style="fill:#000001;stroke:#a7abae;stroke-miterlimit:10"/><path d="M98.26,81.18l.35.35a.15.15,0,0,0,.1,0,.19.19,0,0,0,.1,0l.34-.35a.14.14,0,0,0,0-.2h0l-.34-.35a.13.13,0,0,0-.2,0h0l-.35.35a.12.12,0,0,0,0,.19Z" transform="translate(-5.23 -3.56)" style="fill:#000001;stroke:#a7abae;stroke-miterlimit:10"/><path d="M99.1,82l.35.34a.12.12,0,0,0,.1,0,.13.13,0,0,0,.1,0L100,82a.14.14,0,0,0,0-.2h0l-.34-.35a.13.13,0,0,0-.2,0h0l-.35.35a.12.12,0,0,0,0,.19Z" transform="translate(-5.23 -3.56)" style="fill:#000001;stroke:#a7abae;stroke-miterlimit:10"/><path d="M103.48,87H104l-.17-.17a.15.15,0,0,0-.2,0Z" transform="translate(-5.23 -3.56)" style="fill:#000001;stroke:#a7abae;stroke-miterlimit:10"/><path d="M102.46,86.62l.35.35a.15.15,0,0,0,.2,0l.35-.35a.15.15,0,0,0,0-.2h0l-.35-.35a.15.15,0,0,0-.2,0h0l-.35.35a.15.15,0,0,0,0,.2Z" transform="translate(-5.23 -3.56)" style="fill:#000001;stroke:#a7abae;stroke-miterlimit:10"/><path d="M101.62,85.84l.35.35a.15.15,0,0,0,.2,0l.35-.35a.14.14,0,0,0,0-.19h0l-.35-.34a.14.14,0,0,0-.2,0h0l-.35.34a.15.15,0,0,0,0,.2Z" transform="translate(-5.23 -3.56)" style="fill:#000001;stroke:#a7abae;stroke-miterlimit:10"/><path d="M100.78,85.07l.35.34a.13.13,0,0,0,.2,0l.35-.34a.15.15,0,0,0,0-.2h0l-.35-.35a.14.14,0,0,0-.2,0h0l-.35.35a.13.13,0,0,0,0,.19Z" transform="translate(-5.23 -3.56)" style="fill:#000001;stroke:#a7abae;stroke-miterlimit:10"/><path d="M99.94,84.29l.35.35a.18.18,0,0,0,.2,0l.35-.35a.15.15,0,0,0,0-.2h0l-.35-.35a.13.13,0,0,0-.2,0h0l-.35.35a.13.13,0,0,0,0,.19Z" transform="translate(-5.23 -3.56)" style="fill:#000001;stroke:#a7abae;stroke-miterlimit:10"/><path d="M99.1,83.51l.35.35a.15.15,0,0,0,.1,0,.18.18,0,0,0,.1,0l.34-.35a.14.14,0,0,0,0-.2h0L99.65,83a.15.15,0,0,0-.2,0h0l-.35.35a.13.13,0,0,0,0,.2Z" transform="translate(-5.23 -3.56)" style="fill:#000001;stroke:#a7abae;stroke-miterlimit:10"/><path d="M98,82.3l.34-.34a.13.13,0,0,0,0-.2h0L98,81.41Z" transform="translate(-5.23 -3.56)" style="fill:#000001;stroke:#a7abae;stroke-miterlimit:10"/><path d="M98.26,82.73l.35.35a.12.12,0,0,0,.1,0,.14.14,0,0,0,.1,0l.34-.35a.13.13,0,0,0,0-.19h0l-.34-.34a.14.14,0,0,0-.2,0h0l-.35.34a.13.13,0,0,0,0,.2Z" transform="translate(-5.23 -3.56)" style="fill:#000001;stroke:#a7abae;stroke-miterlimit:10"/><path d="M101.8,87h.54l-.17-.17a.14.14,0,0,0-.2,0h0Z" transform="translate(-5.23 -3.56)" style="fill:#000001;stroke:#a7abae;stroke-miterlimit:10"/><path d="M100.78,86.62l.35.35a.15.15,0,0,0,.2,0l.35-.35a.15.15,0,0,0,0-.2h0l-.35-.35a.15.15,0,0,0-.2,0h0l-.35.35a.14.14,0,0,0,0,.2Z" transform="translate(-5.23 -3.56)" style="fill:#000001;stroke:#a7abae;stroke-miterlimit:10"/><path d="M99.94,85.84l.35.35a.15.15,0,0,0,.2,0l.35-.35a.14.14,0,0,0,0-.19h0l-.35-.34a.14.14,0,0,0-.2,0h0l-.35.34a.14.14,0,0,0,0,.2Z" transform="translate(-5.23 -3.56)" style="fill:#000001;stroke:#a7abae;stroke-miterlimit:10"/><path d="M99.1,85.07l.35.34a.12.12,0,0,0,.1,0,.13.13,0,0,0,.1,0l.34-.34a.14.14,0,0,0,0-.2h0l-.34-.35a.14.14,0,0,0-.2,0h0l-.35.35a.12.12,0,0,0,0,.19Z" transform="translate(-5.23 -3.56)" style="fill:#000001;stroke:#a7abae;stroke-miterlimit:10"/><path d="M98.26,84.29l.35.35a.15.15,0,0,0,.1,0,.19.19,0,0,0,.1,0l.34-.35a.14.14,0,0,0,0-.2h0l-.34-.35a.13.13,0,0,0-.2,0h0l-.35.35a.12.12,0,0,0,0,.19Z" transform="translate(-5.23 -3.56)" style="fill:#000001;stroke:#a7abae;stroke-miterlimit:10"/><path d="M98,83.86l.35-.35a.14.14,0,0,0,0-.2h0L98,83Z" transform="translate(-5.23 -3.56)" style="fill:#000001;stroke:#a7abae;stroke-miterlimit:10"/><path d="M100.11,87h.55l-.17-.18a.15.15,0,0,0-.2,0Z" transform="translate(-5.23 -3.56)" style="fill:#000001;stroke:#a7abae;stroke-miterlimit:10"/><path d="M99.1,86.62l.35.35a.15.15,0,0,0,.1,0,.18.18,0,0,0,.1,0l.34-.35a.14.14,0,0,0,0-.2h0l-.34-.35a.15.15,0,0,0-.2,0h0l-.35.35a.13.13,0,0,0,0,.2Z" transform="translate(-5.23 -3.56)" style="fill:#000001;stroke:#a7abae;stroke-miterlimit:10"/><path d="M98.26,85.84l.35.35a.12.12,0,0,0,.1,0,.14.14,0,0,0,.1,0l.34-.35a.13.13,0,0,0,0-.19h0l-.35-.34a.13.13,0,0,0-.2,0h0l-.35.35A.13.13,0,0,0,98.26,85.84Z" transform="translate(-5.23 -3.56)" style="fill:#000001;stroke:#a7abae;stroke-miterlimit:10"/><path d="M98,85.42h0l.35-.35a.13.13,0,0,0,0-.19h0L98,84.52h0Z" transform="translate(-5.23 -3.56)" style="fill:#000001;stroke:#a7abae;stroke-miterlimit:10"/><path d="M98.43,87H99l-.18-.18a.13.13,0,0,0-.19,0h0Z" transform="translate(-5.23 -3.56)" style="fill:#000001;stroke:#a7abae;stroke-miterlimit:10"/><path d="M98,87h0l.35-.35a.13.13,0,0,0,0-.2h0L98,86.07h0Z" transform="translate(-5.23 -3.56)" style="fill:#000001;stroke:#a7abae;stroke-miterlimit:10"/><path d="M98.27,79.63l.34.34a.12.12,0,0,0,.1,0,.14.14,0,0,0,.1,0l.32-.32Z" transform="translate(-5.23 -3.56)" style="fill:#000001;stroke:#a7abae;stroke-miterlimit:10"/><path d="M98,80.74l.34-.34a.13.13,0,0,0,0-.2h0L98,79.87Z" transform="translate(-5.23 -3.56)" style="fill:#000001;stroke:#a7abae;stroke-miterlimit:10"/></g><g id="annotations_right" data-name="annotations right"><path d="M96.49,85.76A1.23,1.23,0,0,0,97.72,87h7.39a1.24,1.24,0,0,0,1.23-1.24h0V81a1.24,1.24,0,0,0-1.2-1.24l-7.39-.18a1.25,1.25,0,0,0-.89.36,1.22,1.22,0,0,0-.37.89Z" transform="translate(-5.23 -3.56)" style="fill:#f2a900;stroke:#1f262d;stroke-linecap:round;stroke-linejoin:round"/><path d="M104.14,82l.35.34a.13.13,0,0,0,.1,0h0v-1a.14.14,0,0,0-.15,0l-.35.35a.14.14,0,0,0,0,.19Z" transform="translate(-5.23 -3.56)" style="fill:#1f262d"/><path d="M103.3,81.18l.35.35a.15.15,0,0,0,.1,0,.17.17,0,0,0,.1,0l.34-.35a.14.14,0,0,0,0-.2h0l-.34-.35a.13.13,0,0,0-.2,0h0l-.35.35a.12.12,0,0,0,0,.19Z" transform="translate(-5.23 -3.56)" style="fill:#1f262d"/><path d="M102.46,80.4l.35.35a.15.15,0,0,0,.2,0l.35-.35a.15.15,0,0,0,0-.2h0l-.35-.35a.15.15,0,0,0-.2,0h0l-.35.35a.15.15,0,0,0,0,.2Z" transform="translate(-5.23 -3.56)" style="fill:#1f262d"/><path d="M104.14,83.51l.35.35a.18.18,0,0,0,.1,0h0v-1a.14.14,0,0,0-.15,0l-.35.35a.15.15,0,0,0,0,.2Z" transform="translate(-5.23 -3.56)" style="fill:#1f262d"/><path d="M103.3,82.73l.35.35a.12.12,0,0,0,.1,0,.13.13,0,0,0,.1,0l.34-.35a.13.13,0,0,0,0-.19h0l-.34-.34a.14.14,0,0,0-.2,0h0l-.35.34a.13.13,0,0,0,0,.2Z" transform="translate(-5.23 -3.56)" style="fill:#1f262d"/><path d="M102.46,82l.35.34a.15.15,0,0,0,.2,0l.35-.34a.15.15,0,0,0,0-.2h0l-.35-.35a.13.13,0,0,0-.2,0h0l-.35.35a.14.14,0,0,0,0,.19Z" transform="translate(-5.23 -3.56)" style="fill:#1f262d"/><path d="M101.62,81.18l.35.35a.18.18,0,0,0,.2,0l.35-.35a.15.15,0,0,0,0-.2h0l-.35-.35a.13.13,0,0,0-.2,0h0l-.35.35a.14.14,0,0,0,0,.19Z" transform="translate(-5.23 -3.56)" style="fill:#1f262d"/><path d="M101.71,79.71,102,80a.15.15,0,0,0,.2,0l.24-.25Z" transform="translate(-5.23 -3.56)" style="fill:#1f262d"/><path d="M100,79.67l.3.3a.18.18,0,0,0,.1,0,.21.21,0,0,0,.1,0l.28-.28Z" transform="translate(-5.23 -3.56)" style="fill:#1f262d"/><path d="M104.14,80.4l.35.35a.17.17,0,0,0,.1,0h.06v-.94a.14.14,0,0,0-.16,0l-.35.35a.15.15,0,0,0,0,.2Z" transform="translate(-5.23 -3.56)" style="fill:#1f262d"/><path d="M103.43,79.75l.22.22a.15.15,0,0,0,.2,0l.2-.21Z" transform="translate(-5.23 -3.56)" style="fill:#1f262d"/><path d="M100.78,80.4l.35.35a.15.15,0,0,0,.2,0l.35-.35a.15.15,0,0,0,0-.2h0l-.35-.35a.15.15,0,0,0-.2,0h0l-.35.35a.14.14,0,0,0,0,.2Z" transform="translate(-5.23 -3.56)" style="fill:#1f262d"/><path d="M104.14,85.06l.35.35a.13.13,0,0,0,.1,0h0v-1a.12.12,0,0,0-.14,0l-.35.35a.14.14,0,0,0,0,.19Z" transform="translate(-5.23 -3.56)" style="fill:#1f262d"/><path d="M103.3,84.29l.35.35a.15.15,0,0,0,.1,0,.17.17,0,0,0,.1,0l.34-.35a.14.14,0,0,0,0-.2h0l-.34-.35a.13.13,0,0,0-.2,0h0l-.35.35a.12.12,0,0,0,0,.19Z" transform="translate(-5.23 -3.56)" style="fill:#1f262d"/><path d="M102.46,83.51l.35.35a.15.15,0,0,0,.2,0l.35-.35a.15.15,0,0,0,0-.2h0L103,83a.15.15,0,0,0-.2,0h0l-.35.35a.15.15,0,0,0,0,.2Z" transform="translate(-5.23 -3.56)" style="fill:#1f262d"/><path d="M101.62,82.73l.35.35a.15.15,0,0,0,.2,0l.35-.35a.14.14,0,0,0,0-.19h0l-.35-.34a.14.14,0,0,0-.2,0h0l-.35.34a.15.15,0,0,0,0,.2Z" transform="translate(-5.23 -3.56)" style="fill:#1f262d"/><path d="M100.78,82l.35.34a.13.13,0,0,0,.2,0h0l.35-.34a.15.15,0,0,0,0-.2h0l-.35-.35a.13.13,0,0,0-.2,0h0l-.35.35a.13.13,0,0,0,0,.19Z" transform="translate(-5.23 -3.56)" style="fill:#1f262d"/><path d="M99.1,80.4l.35.35a.15.15,0,0,0,.1,0,.18.18,0,0,0,.1,0l.34-.35a.14.14,0,0,0,0-.2h0l-.34-.35a.15.15,0,0,0-.2,0h0l-.35.35a.13.13,0,0,0,0,.2Z" transform="translate(-5.23 -3.56)" style="fill:#1f262d"/><path d="M99.94,81.18l.35.35a.18.18,0,0,0,.2,0l.35-.35a.15.15,0,0,0,0-.2h0l-.35-.35a.13.13,0,0,0-.2,0h0l-.35.35a.13.13,0,0,0,0,.19Z" transform="translate(-5.23 -3.56)" style="fill:#1f262d"/><path d="M104.14,86.62l.35.35a.18.18,0,0,0,.1,0h0V86a.17.17,0,0,0-.14,0l-.35.35a.15.15,0,0,0,0,.2Z" transform="translate(-5.23 -3.56)" style="fill:#1f262d"/><path d="M103.3,85.84l.35.35a.12.12,0,0,0,.1,0,.13.13,0,0,0,.1,0l.34-.35a.13.13,0,0,0,0-.19h0l-.34-.34a.14.14,0,0,0-.2,0h0l-.35.34a.13.13,0,0,0,0,.2Z" transform="translate(-5.23 -3.56)" style="fill:#1f262d"/><path d="M102.46,85.07l.35.34a.15.15,0,0,0,.2,0l.35-.34a.15.15,0,0,0,0-.2h0l-.35-.35a.14.14,0,0,0-.2,0h0l-.35.35a.14.14,0,0,0,0,.19Z" transform="translate(-5.23 -3.56)" style="fill:#1f262d"/><path d="M101.62,84.29l.35.35a.18.18,0,0,0,.2,0l.35-.35a.15.15,0,0,0,0-.2h0l-.35-.35a.13.13,0,0,0-.2,0h0l-.35.35a.14.14,0,0,0,0,.19Z" transform="translate(-5.23 -3.56)" style="fill:#1f262d"/><path d="M100.78,83.51l.35.35a.15.15,0,0,0,.2,0h0l.35-.35a.15.15,0,0,0,0-.2h0l-.35-.35a.15.15,0,0,0-.2,0h0l-.35.35a.14.14,0,0,0,0,.2Z" transform="translate(-5.23 -3.56)" style="fill:#1f262d"/><path d="M99.94,82.73l.35.35a.15.15,0,0,0,.2,0l.35-.35a.14.14,0,0,0,0-.19h0l-.35-.34a.14.14,0,0,0-.2,0h0l-.35.34a.14.14,0,0,0,0,.2Z" transform="translate(-5.23 -3.56)" style="fill:#1f262d"/><path d="M98.26,81.18l.35.35a.15.15,0,0,0,.1,0,.19.19,0,0,0,.1,0l.34-.35a.14.14,0,0,0,0-.2h0l-.34-.35a.13.13,0,0,0-.2,0h0l-.35.35a.12.12,0,0,0,0,.19Z" transform="translate(-5.23 -3.56)" style="fill:#1f262d"/><path d="M99.1,82l.35.34a.12.12,0,0,0,.1,0,.13.13,0,0,0,.1,0L100,82a.14.14,0,0,0,0-.2h0l-.34-.35a.13.13,0,0,0-.2,0h0l-.35.35a.12.12,0,0,0,0,.19Z" transform="translate(-5.23 -3.56)" style="fill:#1f262d"/><path d="M103.48,87H104l-.17-.17a.15.15,0,0,0-.2,0Z" transform="translate(-5.23 -3.56)" style="fill:#1f262d"/><path d="M102.46,86.62l.35.35a.15.15,0,0,0,.2,0l.35-.35a.15.15,0,0,0,0-.2h0l-.35-.35a.15.15,0,0,0-.2,0h0l-.35.35a.15.15,0,0,0,0,.2Z" transform="translate(-5.23 -3.56)" style="fill:#1f262d"/><path d="M101.62,85.84l.35.35a.15.15,0,0,0,.2,0l.35-.35a.14.14,0,0,0,0-.19h0l-.35-.34a.14.14,0,0,0-.2,0h0l-.35.34a.15.15,0,0,0,0,.2Z" transform="translate(-5.23 -3.56)" style="fill:#1f262d"/><path d="M100.78,85.07l.35.34a.13.13,0,0,0,.2,0l.35-.34a.15.15,0,0,0,0-.2h0l-.35-.35a.14.14,0,0,0-.2,0h0l-.35.35a.13.13,0,0,0,0,.19Z" transform="translate(-5.23 -3.56)" style="fill:#1f262d"/><path d="M99.94,84.29l.35.35a.18.18,0,0,0,.2,0l.35-.35a.15.15,0,0,0,0-.2h0l-.35-.35a.13.13,0,0,0-.2,0h0l-.35.35a.13.13,0,0,0,0,.19Z" transform="translate(-5.23 -3.56)" style="fill:#1f262d"/><path d="M99.1,83.51l.35.35a.15.15,0,0,0,.1,0,.18.18,0,0,0,.1,0l.34-.35a.14.14,0,0,0,0-.2h0L99.65,83a.15.15,0,0,0-.2,0h0l-.35.35a.13.13,0,0,0,0,.2Z" transform="translate(-5.23 -3.56)" style="fill:#1f262d"/><path d="M98,82.3l.34-.34a.13.13,0,0,0,0-.2h0L98,81.41Z" transform="translate(-5.23 -3.56)" style="fill:#1f262d"/><path d="M98.26,82.73l.35.35a.12.12,0,0,0,.1,0,.14.14,0,0,0,.1,0l.34-.35a.13.13,0,0,0,0-.19h0l-.34-.34a.14.14,0,0,0-.2,0h0l-.35.34a.13.13,0,0,0,0,.2Z" transform="translate(-5.23 -3.56)" style="fill:#1f262d"/><path d="M101.8,87h.54l-.17-.17a.14.14,0,0,0-.2,0h0Z" transform="translate(-5.23 -3.56)" style="fill:#1f262d"/><path d="M100.78,86.62l.35.35a.15.15,0,0,0,.2,0l.35-.35a.15.15,0,0,0,0-.2h0l-.35-.35a.15.15,0,0,0-.2,0h0l-.35.35a.14.14,0,0,0,0,.2Z" transform="translate(-5.23 -3.56)" style="fill:#1f262d"/><path d="M99.94,85.84l.35.35a.15.15,0,0,0,.2,0l.35-.35a.14.14,0,0,0,0-.19h0l-.35-.34a.14.14,0,0,0-.2,0h0l-.35.34a.14.14,0,0,0,0,.2Z" transform="translate(-5.23 -3.56)" style="fill:#1f262d"/><path d="M99.1,85.07l.35.34a.12.12,0,0,0,.1,0,.13.13,0,0,0,.1,0l.34-.34a.14.14,0,0,0,0-.2h0l-.34-.35a.14.14,0,0,0-.2,0h0l-.35.35a.12.12,0,0,0,0,.19Z" transform="translate(-5.23 -3.56)" style="fill:#1f262d"/><path d="M98.26,84.29l.35.35a.15.15,0,0,0,.1,0,.19.19,0,0,0,.1,0l.34-.35a.14.14,0,0,0,0-.2h0l-.34-.35a.13.13,0,0,0-.2,0h0l-.35.35a.12.12,0,0,0,0,.19Z" transform="translate(-5.23 -3.56)" style="fill:#1f262d"/><path d="M98,83.86l.35-.35a.14.14,0,0,0,0-.2h0L98,83Z" transform="translate(-5.23 -3.56)" style="fill:#1f262d"/><path d="M100.11,87h.55l-.17-.18a.15.15,0,0,0-.2,0Z" transform="translate(-5.23 -3.56)" style="fill:#1f262d"/><path d="M99.1,86.62l.35.35a.15.15,0,0,0,.1,0,.18.18,0,0,0,.1,0l.34-.35a.14.14,0,0,0,0-.2h0l-.34-.35a.15.15,0,0,0-.2,0h0l-.35.35a.13.13,0,0,0,0,.2Z" transform="translate(-5.23 -3.56)" style="fill:#1f262d"/><path d="M98.26,85.84l.35.35a.12.12,0,0,0,.1,0,.14.14,0,0,0,.1,0l.34-.35a.13.13,0,0,0,0-.19h0l-.35-.34a.13.13,0,0,0-.2,0h0l-.35.35A.13.13,0,0,0,98.26,85.84Z" transform="translate(-5.23 -3.56)" style="fill:#1f262d"/><path d="M98,85.42h0l.35-.35a.13.13,0,0,0,0-.19h0L98,84.52h0Z" transform="translate(-5.23 -3.56)" style="fill:#1f262d"/><path d="M98.43,87H99l-.18-.18a.13.13,0,0,0-.19,0h0Z" transform="translate(-5.23 -3.56)" style="fill:#1f262d"/><path d="M98,87h0l.35-.35a.13.13,0,0,0,0-.2h0L98,86.07h0Z" transform="translate(-5.23 -3.56)" style="fill:#1f262d"/><path d="M98.27,79.63l.34.34a.12.12,0,0,0,.1,0,.14.14,0,0,0,.1,0l.32-.32Z" transform="translate(-5.23 -3.56)" style="fill:#1f262d"/><path d="M98,80.74l.34-.34a.13.13,0,0,0,0-.2h0L98,79.87Z" transform="translate(-5.23 -3.56)" style="fill:#1f262d"/></g></svg>