<?xml version="1.0" encoding="UTF-8"?><svg id="uuid-25eeb925-fab1-4996-a5e5-05cfe3774a53" xmlns="http://www.w3.org/2000/svg" width="325" height="411.9405" xmlns:xlink="http://www.w3.org/1999/xlink" viewBox="0 0 325 411.9405"><defs><clipPath id="uuid-8a747c82-a3b7-40eb-a693-236f7961cfcd"><polygon points="670 246.7952 351.6956 246.7952 357.5579 28.7016 668.5482 23.5045 670 246.7952" style="fill:none;"/></clipPath></defs><path d="m175.8274,56.4808v-1.826c-.0804-2.4116-3.9848-4.4442-9.3937-5.2136v-8.3946l-.023-.0804c1.6882-.5513,2.7561-1.3896,2.7217-2.3312v-8.142c-.0229-.758-.7809-1.4585-2.0097-1.9752v-61.2315h-11.0014V28.5177c-1.2288.5168-1.9867,1.2173-2.0097,1.9752v8.142c-.0345.9417,1.0335,1.78,2.7217,2.3312l-.023.0804v8.3946c-5.4089.7694-9.3133,2.802-9.3937,5.2136v1.826c-1.8604,1.068-2.9743,2.3657-3.0087,3.7666v13.4245c-.1263,3.7896,7.5793,6.8903,17.2142,6.8903s17.3405-3.1006,17.2257-6.8903v-13.4245c-.0459-1.401-1.1599-2.6987-3.0202-3.7666Z" style="fill:none; stroke:#000001; stroke-miterlimit:10; stroke-width:2px;"/><path d="m175.8274,56.4808v-1.826c-.0804-2.4116-3.9848-4.4442-9.3937-5.2136v-8.3946l-.023-.0804c1.6882-.5513,2.7561-1.3896,2.7217-2.3312v-8.142c-.0229-.758-.7809-1.4585-2.0097-1.9752v-61.2315h-11.0014V28.5177c-1.2288.5168-1.9867,1.2173-2.0097,1.9752v8.142c-.0345.9417,1.0335,1.78,2.7217,2.3312l-.023.0804v8.3946c-5.4089.7694-9.3133,2.802-9.3937,5.2136v1.826c-1.8604,1.068-2.9743,2.3657-3.0087,3.7666v13.4245c-.1263,3.7896,7.5793,6.8903,17.2142,6.8903s17.3405-3.1006,17.2257-6.8903v-13.4245c-.0459-1.401-1.1599-2.6987-3.0202-3.7666Z" style="fill:#d3d5d6;"/><path d="m167.1249-32.7125V30.5083c.0392,1.2103-2.4242,2.2042-5.5026,2.2042s-5.5417-.9939-5.5026-2.2042v-63.2208" style="fill:none; stroke:#000001; stroke-miterlimit:10;"/><path d="m156.8143,41.0486v12.7483c-.0342,1.0576,2.1182,1.926,4.8081,1.926s4.8423-.8684,4.8081-1.926v-12.7483" style="fill:none; stroke:#000001; stroke-miterlimit:10;"/><path d="m169.135,30.4981c.0535,1.6525-3.3097,3.0094-7.5126,3.0094s-7.566-1.3569-7.5126-3.0094" style="fill:none; stroke:#000001; stroke-miterlimit:10; stroke-width:.5px;"/><path d="m166.4289,49.4415c5.4143.769,9.3218,2.8009,9.403,5.2142v5.383c.1,3.126-6.2583,5.6956-14.2108,5.6956-7.9463,0-14.3109-2.5696-14.2046-5.6956v-5.383c.0813-2.4133,3.9888-4.4452,9.3968-5.2142" style="fill:none; stroke:#000001; stroke-miterlimit:10;"/><path d="m175.8308,54.6553c.1011,3.1253-6.2596,5.6916-14.2084,5.6916s-14.3095-2.5664-14.2084-5.6916" style="fill:none; stroke:#000001; stroke-miterlimit:10; stroke-width:.5px;"/><path d="m175.8319,56.4812c1.8569,1.0691,2.9697,2.3633,3.0135,3.7637v13.4231c.1188,3.7887-7.59,6.896-17.2243,6.896s-17.3431-3.1073-17.2181-6.896v-13.4231c.0438-1.4005,1.1504-2.6946,3.0135-3.7637" style="fill:none; stroke:#000001; stroke-miterlimit:10;"/><polyline points="160.3319 67.1405 160.3319 42.037 162.9129 42.037 162.9129 67.1405" style="fill:#d3d5d6; stroke:#000001; stroke-miterlimit:10; stroke-width:.5px;"/><path d="m167.1228,28.5159c1.2254.5189,1.9819,1.2191,2.0132,1.9819v8.1339c.05,1.6568-3.3136,3.0135-7.5149,3.0135s-7.5649-1.3567-7.5087-3.0135v-8.1339c.025-.7627.7815-1.463,2.0069-1.9819" style="fill:none; stroke:#000001; stroke-miterlimit:10;"/><line x1="160.3319" y1="46.3857" x2="162.9129" y2="46.3857" style="fill:none; stroke:#000001; stroke-miterlimit:10; stroke-width:.5px;"/><path d="m178.8426,60.2424c.1225,3.7877-7.5865,6.8981-17.2202,6.8981s-17.3427-3.1104-17.2202-6.8981" style="fill:none; stroke:#000001; stroke-miterlimit:10; stroke-width:.5px;"/><path d="m23.1751,316.6802l42.6108-106.4415c1.8928-4.7283,6.473-7.8283,11.5661-7.8283h167.6595c5.0931,0,9.6733,3.1,11.5661,7.8283l42.6108,106.4415c1.6377,4.091,2.4792,8.4572,2.4792,12.8638v61.2878c0,6.8806-5.5778,12.4585-12.4585,12.4585H33.1543c-6.8806,0-12.4585-5.5778-12.4585-12.4585v-61.2878c0-4.4067.8415-8.7728,2.4792-12.8638Z" style="fill:none; stroke:#000001; stroke-miterlimit:10;"/><path d="m202.819,267.1801v-14.7211c-1.7081-11.4136-20.2948-20.0009-41.6373-20.0009s-39.9292,8.5874-41.6373,20.0009v14.7195" style="fill:none; stroke:#000001; stroke-miterlimit:10;"/><path d="m161.1817,229.7266c14.4779.1022,30.1313,2.669,41.6335,12.1368,15.1433,13.6242,2.3801,27.7712-12.6648,33.2735-20.8484,7.879-52.964,7.2685-70.695-7.4489-5.9102-4.9999-8.8973-13.0783-4.6881-20.1463,8.924-14.0776,30.9403-17.8045,46.4143-17.8153-14.4197.3391-29.8863,3.1695-41.2163,12.6096-8.5418,7.3552-8.4694,17.3544.0644,24.705,17.3506,14.3596,49.3756,14.8914,69.7917,7.2498,14.4074-5.2102,27.1512-18.7283,12.5774-31.9556-11.3312-9.4414-26.7962-12.2692-41.2171-12.6085h0Z" style="fill:#000001;"/><path d="m74.0641,205.073l-9.3751,25.0883h58.6419c10.2485-4.5114,23.5245-7.2185,37.8509-7.2185s27.6023,2.7071,37.8508,7.2185h58.6419l-9.3751-25.0883H74.0641Z" style="fill:none; stroke:#000001; stroke-miterlimit:10; stroke-width:.5px;"/><path d="m161.1817,241.8093c7.1162-.2247,21.1197,2.2422,21.7686,11.099-.2265,6.9701-9.437,10.0208-15.1758,11.0352-8.5723,1.2305-18.3538.5309-25.3308-5.1004-6.829-6.1212-1.0281-12.7041,5.8294-15.032,4.1369-1.5229,8.5539-2.0718,12.9087-2.0018-6.4106.2601-13.2279,1.523-18.251,5.7181-6.3104,5.695-.6602,11.6388,5.5929,13.8308,8.0485,2.8857,17.2679,2.8875,25.3166.0011,4.0968-1.5382,9.3674-4.9602,8.1716-9.9672-2.6621-7.3358-13.8918-9.3254-20.8301-9.5828h0Z" style="fill:#000001;"/><path d="m172.3524,261.9352v-9.4761c-.1267-3.1568-5.1269-5.6639-11.1707-5.6639s-11.0439,2.507-11.1707,5.6639v9.9142" style="fill:none; stroke:#000001; stroke-miterlimit:10;"/><path d="m168.0587,252.459c.0489,1.9797-3.0297,3.6054-6.8769,3.6054s-6.9259-1.6257-6.8769-3.6054c.0482-1.9519,3.1269-3.5143,6.8769-3.5143s6.8287,1.5624,6.8769,3.5143Z" style="fill:none; stroke:#000001; stroke-miterlimit:10; stroke-width:.5px;"/><line x1="154.003" y1="242.4561" x2="146.0752" y2="233.9459" style="fill:none; stroke:#000001; stroke-miterlimit:10; stroke-width:.5px;"/><line x1="168.3606" y1="242.456" x2="176.2881" y2="233.9461" style="fill:none; stroke:#000001; stroke-miterlimit:10; stroke-width:.5px;"/><line x1="170.5521" y1="262.5178" x2="180.6255" y2="273.3313" style="fill:none; stroke:#000001; stroke-miterlimit:10; stroke-width:.5px;"/><line x1="151.8113" y1="262.5178" x2="141.738" y2="273.3313" style="fill:none; stroke:#000001; stroke-miterlimit:10; stroke-width:.5px;"/><path d="m238.1886,295.9697H42.04c-3.2909,0-6.7308,1.9999-7.6965,4.5011l-5.4795,14.1928c-1.0675,2.765.9176,5.0395,4.4495,5.0395h210.5154c3.5319,0,5.8128-2.2745,5.1048-5.0395l-3.634-14.1928c-.6404-2.5012-3.8203-4.5011-7.1112-4.5011Z" style="fill:none; stroke:#000001; stroke-miterlimit:10; stroke-width:.5px;"/><path d="m185.528,303.6202H45.1898c-.6408,0-1.3003.3966-1.4736.8872l-2.3991,6.7923c-.181.5123.2049.9288.8623.9288h143.9806c.6574,0,1.1583-.4165,1.1189-.9288l-.5223-6.7923c-.0377-.4906-.5877-.8872-1.2285-.8872Z" style="fill:none; stroke:#000001; stroke-miterlimit:10; stroke-width:.5px;"/><path d="m97.77,286.9683c-3.6029,0-6.6946-.979-8.4413-2.6335h-21.9671c-1.0034,0-1.6725-.4721-1.4948-1.0524.177-.5781,1.1281-1.0453,2.1248-1.0453h22.7731c.6266,0,1.1672.1878,1.4275.4968,1.1038,1.3124,3.3529,2.1013,6.0072,2.1013,4.1925,0,7.9522-1.9726,8.3754-4.3638.4167-2.3546-2.5656-4.2437-6.6428-4.2437-2.5813,0-5.0984.7498-6.7426,2.014-.3915.3007-1.0083.484-1.6278.484h-22.5154c-.9854,0-1.645-.4553-1.4736-1.015.1707-.5576,1.1024-1.0083,2.0813-1.0083h21.4304c2.4121-1.5583,5.7912-2.4653,9.2484-2.4653,5.9891,0,10.4048,2.7652,9.8312,6.2343-.5868,3.5489-6.1525,6.4968-12.3938,6.4968Z" style="fill:none; stroke:#000001; stroke-miterlimit:10; stroke-width:.5px;"/><line x1="63.0443" y1="303.6202" x2="64.3212" y2="299.3046" style="fill:none; stroke:#000001; stroke-miterlimit:10; stroke-width:.5px;"/><line x1="67.8545" y1="303.6202" x2="68.4656" y2="301.4483" style="fill:none; stroke:#000001; stroke-miterlimit:10; stroke-width:.5px;"/><line x1="72.6646" y1="303.6202" x2="73.2443" y2="301.4483" style="fill:none; stroke:#000001; stroke-miterlimit:10; stroke-width:.5px;"/><line x1="77.4748" y1="303.6202" x2="78.023" y2="301.4483" style="fill:none; stroke:#000001; stroke-miterlimit:10; stroke-width:.5px;"/><line x1="82.285" y1="303.6202" x2="82.8017" y2="301.4483" style="fill:none; stroke:#000001; stroke-miterlimit:10; stroke-width:.5px;"/><line x1="87.0952" y1="303.6202" x2="88.0592" y2="299.3046" style="fill:none; stroke:#000001; stroke-miterlimit:10; stroke-width:.5px;"/><line x1="91.9054" y1="303.6202" x2="92.359" y2="301.4483" style="fill:none; stroke:#000001; stroke-miterlimit:10; stroke-width:.5px;"/><line x1="96.7156" y1="303.6202" x2="97.1377" y2="301.4483" style="fill:none; stroke:#000001; stroke-miterlimit:10; stroke-width:.5px;"/><line x1="101.5258" y1="303.6202" x2="101.9164" y2="301.4483" style="fill:none; stroke:#000001; stroke-miterlimit:10; stroke-width:.5px;"/><line x1="106.336" y1="303.6202" x2="106.6951" y2="301.4483" style="fill:none; stroke:#000001; stroke-miterlimit:10; stroke-width:.5px;"/><line x1="111.1462" y1="303.6202" x2="111.7972" y2="299.3046" style="fill:none; stroke:#000001; stroke-miterlimit:10; stroke-width:.5px;"/><line x1="115.9563" y1="303.6202" x2="116.2525" y2="301.4483" style="fill:none; stroke:#000001; stroke-miterlimit:10; stroke-width:.5px;"/><line x1="120.7665" y1="303.6202" x2="121.0312" y2="301.4483" style="fill:none; stroke:#000001; stroke-miterlimit:10; stroke-width:.5px;"/><line x1="125.5767" y1="303.6202" x2="125.8099" y2="301.4483" style="fill:none; stroke:#000001; stroke-miterlimit:10; stroke-width:.5px;"/><line x1="130.3869" y1="303.6202" x2="130.5886" y2="301.4483" style="fill:none; stroke:#000001; stroke-miterlimit:10; stroke-width:.5px;"/><line x1="135.1971" y1="303.6202" x2="135.5352" y2="299.3046" style="fill:none; stroke:#000001; stroke-miterlimit:10; stroke-width:.5px;"/><line x1="140.0073" y1="303.6202" x2="140.1459" y2="301.4483" style="fill:none; stroke:#000001; stroke-miterlimit:10; stroke-width:.5px;"/><line x1="144.8175" y1="303.6202" x2="144.9246" y2="301.4483" style="fill:none; stroke:#000001; stroke-miterlimit:10; stroke-width:.5px;"/><line x1="149.6277" y1="303.6202" x2="149.7033" y2="301.4483" style="fill:none; stroke:#000001; stroke-miterlimit:10; stroke-width:.5px;"/><line x1="154.4379" y1="303.6202" x2="154.482" y2="301.4483" style="fill:none; stroke:#000001; stroke-miterlimit:10; stroke-width:.5px;"/><line x1="159.248" y1="303.6202" x2="159.2732" y2="299.3046" style="fill:none; stroke:#000001; stroke-miterlimit:10; stroke-width:.5px;"/><line x1="164.0582" y1="303.6202" x2="164.0394" y2="301.4483" style="fill:none; stroke:#000001; stroke-miterlimit:10; stroke-width:.5px;"/><line x1="168.8684" y1="303.6202" x2="168.8181" y2="301.4483" style="fill:none; stroke:#000001; stroke-miterlimit:10; stroke-width:.5px;"/><line x1="173.6786" y1="303.6202" x2="173.5968" y2="301.4483" style="fill:none; stroke:#000001; stroke-miterlimit:10; stroke-width:.5px;"/><line x1="178.4888" y1="303.6202" x2="178.3755" y2="301.4483" style="fill:none; stroke:#000001; stroke-miterlimit:10; stroke-width:.5px;"/><line x1="178.9223" y1="311.9288" x2="179.1654" y2="316.586" style="fill:none; stroke:#000001; stroke-miterlimit:10; stroke-width:.5px;"/><line x1="173.9917" y1="311.9288" x2="174.0788" y2="314.2415" style="fill:none; stroke:#000001; stroke-miterlimit:10; stroke-width:.5px;"/><line x1="169.061" y1="311.9288" x2="169.1146" y2="314.2415" style="fill:none; stroke:#000001; stroke-miterlimit:10; stroke-width:.5px;"/><line x1="164.1303" y1="311.9288" x2="164.1503" y2="314.2415" style="fill:none; stroke:#000001; stroke-miterlimit:10; stroke-width:.5px;"/><line x1="159.1996" y1="311.9288" x2="159.1861" y2="314.2415" style="fill:none; stroke:#000001; stroke-miterlimit:10; stroke-width:.5px;"/><line x1="154.2689" y1="311.9288" x2="154.1742" y2="316.586" style="fill:none; stroke:#000001; stroke-miterlimit:10; stroke-width:.5px;"/><line x1="149.3382" y1="311.9288" x2="149.2577" y2="314.2415" style="fill:none; stroke:#000001; stroke-miterlimit:10; stroke-width:.5px;"/><line x1="144.4076" y1="311.9288" x2="144.2934" y2="314.2415" style="fill:none; stroke:#000001; stroke-miterlimit:10; stroke-width:.5px;"/><line x1="139.4769" y1="311.9288" x2="139.3292" y2="314.2415" style="fill:none; stroke:#000001; stroke-miterlimit:10; stroke-width:.5px;"/><line x1="134.5462" y1="311.9288" x2="134.365" y2="314.2415" style="fill:none; stroke:#000001; stroke-miterlimit:10; stroke-width:.5px;"/><line x1="129.6155" y1="311.9288" x2="129.1831" y2="316.586" style="fill:none; stroke:#000001; stroke-miterlimit:10; stroke-width:.5px;"/><line x1="124.6848" y1="311.9288" x2="124.4365" y2="314.2415" style="fill:none; stroke:#000001; stroke-miterlimit:10; stroke-width:.5px;"/><line x1="119.7541" y1="311.9288" x2="119.4723" y2="314.2415" style="fill:none; stroke:#000001; stroke-miterlimit:10; stroke-width:.5px;"/><line x1="114.8234" y1="311.9288" x2="114.5081" y2="314.2415" style="fill:none; stroke:#000001; stroke-miterlimit:10; stroke-width:.5px;"/><line x1="109.8928" y1="311.9288" x2="109.5439" y2="314.2415" style="fill:none; stroke:#000001; stroke-miterlimit:10; stroke-width:.5px;"/><line x1="104.9621" y1="311.9288" x2="104.192" y2="316.586" style="fill:none; stroke:#000001; stroke-miterlimit:10; stroke-width:.5px;"/><line x1="100.0314" y1="311.9288" x2="99.6154" y2="314.2415" style="fill:none; stroke:#000001; stroke-miterlimit:10; stroke-width:.5px;"/><line x1="95.1007" y1="311.9288" x2="94.6512" y2="314.2415" style="fill:none; stroke:#000001; stroke-miterlimit:10; stroke-width:.5px;"/><line x1="90.17" y1="311.9288" x2="89.687" y2="314.2415" style="fill:none; stroke:#000001; stroke-miterlimit:10; stroke-width:.5px;"/><line x1="85.2393" y1="311.9288" x2="84.7227" y2="314.2415" style="fill:none; stroke:#000001; stroke-miterlimit:10; stroke-width:.5px;"/><line x1="80.3087" y1="311.9288" x2="79.2008" y2="316.586" style="fill:none; stroke:#000001; stroke-miterlimit:10; stroke-width:.5px;"/><line x1="75.378" y1="311.9288" x2="74.7943" y2="314.2415" style="fill:none; stroke:#000001; stroke-miterlimit:10; stroke-width:.5px;"/><line x1="70.4473" y1="311.9288" x2="69.8301" y2="314.2415" style="fill:none; stroke:#000001; stroke-miterlimit:10; stroke-width:.5px;"/><line x1="65.5166" y1="311.9288" x2="64.8658" y2="314.2415" style="fill:none; stroke:#000001; stroke-miterlimit:10; stroke-width:.5px;"/><line x1="60.5859" y1="311.9288" x2="59.9016" y2="314.2415" style="fill:none; stroke:#000001; stroke-miterlimit:10; stroke-width:.5px;"/><path d="m172.3524,252.459c.1297,3.2301-4.8704,5.9043-11.1707,5.9043s-11.3004-2.6741-11.1707-5.9043" style="fill:none; stroke:#000001; stroke-miterlimit:10; stroke-width:.5px;"/><path d="m202.819,252.459c1.8608,12.4337-16.7109,23.3595-41.6373,23.3595s-43.4981-10.9258-41.6373-23.3595" style="fill:none; stroke:#000001; stroke-miterlimit:10; stroke-width:.5px;"/><path d="m288.4697,289.905l10.1542,25.3652c1.4577,3.6412-1.2238,7.603-5.146,7.603H29.0596c-3.9683,0-6.6511-4.0481-5.1049-7.7027l17.3177-40.9333" style="fill:none; stroke:#000001; stroke-miterlimit:10; stroke-width:.5px;"/><path d="m301.2571,356.3732c1.4865,3.7133-1.2481,7.7536-5.2479,7.7536H26.3546c-3.2437,0-5.6452-2.6522-5.6587-5.6242" style="fill:none; stroke:#000001; stroke-miterlimit:10; stroke-width:.5px;"/><path d="m301.564,325.4005c-.4938,2.5252-2.7026,4.5794-5.5547,4.5794H26.3546c-3.2437,0-5.6452-2.6522-5.6587-5.6242" style="fill:none; stroke:#000001; stroke-miterlimit:10; stroke-width:.5px;"/><rect x="38.8093" y="324.3558" width="4.6246" height="35.8942" rx=".072" ry=".072" style="fill:#fff; stroke:#000001; stroke-miterlimit:10; stroke-width:.5px;"/><rect x="50.0301" y="324.3558" width="4.6246" height="35.8942" rx=".072" ry=".072" style="fill:#fff; stroke:#000001; stroke-miterlimit:10; stroke-width:.5px;"/><rect x="61.251" y="324.3558" width="4.6246" height="35.8942" rx=".072" ry=".072" style="fill:#fff; stroke:#000001; stroke-miterlimit:10; stroke-width:.5px;"/><rect x="72.4718" y="324.3558" width="4.6246" height="35.8942" rx=".072" ry=".072" style="fill:#fff; stroke:#000001; stroke-miterlimit:10; stroke-width:.5px;"/><rect x="83.6927" y="324.3558" width="4.6246" height="35.8942" rx=".072" ry=".072" style="fill:#fff; stroke:#000001; stroke-miterlimit:10; stroke-width:.5px;"/><rect x="94.9135" y="324.3558" width="4.6246" height="35.8942" rx=".072" ry=".072" style="fill:#fff; stroke:#000001; stroke-miterlimit:10; stroke-width:.5px;"/><rect x="106.1344" y="324.3558" width="4.6246" height="35.8942" rx=".072" ry=".072" style="fill:#fff; stroke:#000001; stroke-miterlimit:10; stroke-width:.5px;"/><rect x="117.3553" y="324.3558" width="4.6246" height="35.8942" rx=".072" ry=".072" style="fill:#fff; stroke:#000001; stroke-miterlimit:10; stroke-width:.5px;"/><rect x="128.5761" y="324.3558" width="4.6246" height="35.8942" rx=".072" ry=".072" style="fill:#fff; stroke:#000001; stroke-miterlimit:10; stroke-width:.5px;"/><rect x="139.797" y="324.3558" width="4.6246" height="35.8942" rx=".072" ry=".072" style="fill:#fff; stroke:#000001; stroke-miterlimit:10; stroke-width:.5px;"/><rect x="151.0178" y="324.3558" width="4.6246" height="35.8942" rx=".072" ry=".072" style="fill:#fff; stroke:#000001; stroke-miterlimit:10; stroke-width:.5px;"/><rect x="162.2387" y="324.3558" width="4.6246" height="35.8942" rx=".072" ry=".072" style="fill:#fff; stroke:#000001; stroke-miterlimit:10; stroke-width:.5px;"/><rect x="173.4595" y="324.3558" width="4.6246" height="35.8942" rx=".072" ry=".072" style="fill:#fff; stroke:#000001; stroke-miterlimit:10; stroke-width:.5px;"/><rect x="184.6804" y="324.3558" width="4.6246" height="35.8942" rx=".072" ry=".072" style="fill:#fff; stroke:#000001; stroke-miterlimit:10; stroke-width:.5px;"/><rect x="195.9012" y="324.3558" width="4.6246" height="35.8942" rx=".072" ry=".072" style="fill:#fff; stroke:#000001; stroke-miterlimit:10; stroke-width:.5px;"/><rect x="207.1221" y="324.3558" width="4.6246" height="35.8942" rx=".072" ry=".072" style="fill:#fff; stroke:#000001; stroke-miterlimit:10; stroke-width:.5px;"/><rect x="218.3429" y="324.3558" width="4.6246" height="35.8942" rx=".072" ry=".072" style="fill:#fff; stroke:#000001; stroke-miterlimit:10; stroke-width:.5px;"/><rect x="229.5638" y="324.3558" width="4.6246" height="35.8942" rx=".072" ry=".072" style="fill:#fff; stroke:#000001; stroke-miterlimit:10; stroke-width:.5px;"/><rect x="240.7846" y="324.3558" width="4.6246" height="35.8942" rx=".072" ry=".072" style="fill:#fff; stroke:#000001; stroke-miterlimit:10; stroke-width:.5px;"/><rect x="252.0055" y="324.3558" width="4.6246" height="35.8942" rx=".072" ry=".072" style="fill:#fff; stroke:#000001; stroke-miterlimit:10; stroke-width:.5px;"/><rect x="263.2264" y="324.3558" width="4.6246" height="35.8942" rx=".072" ry=".072" style="fill:#fff; stroke:#000001; stroke-miterlimit:10; stroke-width:.5px;"/><rect x="274.4472" y="324.3558" width="4.6246" height="35.8942" rx=".072" ry=".072" style="fill:#fff; stroke:#000001; stroke-miterlimit:10; stroke-width:.5px;"/><rect x="285.6681" y="324.3558" width="4.6246" height="35.8942" rx=".072" ry=".072" style="fill:#fff; stroke:#000001; stroke-miterlimit:10; stroke-width:.5px;"/><rect x="240.7846" y="370.0782" width="4.6246" height="33.2121" rx=".0692" ry=".0692" style="fill:#fff; stroke:#000001; stroke-miterlimit:10; stroke-width:.5px;"/><rect x="252.0055" y="370.0782" width="4.6246" height="33.2121" rx=".0692" ry=".0692" style="fill:#fff; stroke:#000001; stroke-miterlimit:10; stroke-width:.5px;"/><rect x="263.2264" y="370.0782" width="4.6246" height="33.2121" rx=".0692" ry=".0692" style="fill:#fff; stroke:#000001; stroke-miterlimit:10; stroke-width:.5px;"/><rect x="274.4472" y="370.0782" width="4.6246" height="33.2121" rx=".0692" ry=".0692" style="fill:#fff; stroke:#000001; stroke-miterlimit:10; stroke-width:.5px;"/><rect x="285.6681" y="370.0782" width="4.6246" height="33.2121" rx=".0692" ry=".0692" style="fill:#fff; stroke:#000001; stroke-miterlimit:10; stroke-width:.5px;"/><path d="m161.2491,85.2505c35.0929,0,66.7134,8.3808,79.1139,20.6264,3.4257,3.3829,5.2313,8.0725,5.0476,12.8834l-4.9188,128.8247c-1.7694,25.7592-31.2039,45.0191-79.2427,45.0191s-78.3349-21.042-79.2427-45.0191l-4.9199-128.8519c-.1723-4.5137,1.3494-8.99,4.4642-12.2613,11.9668-12.5683,44.04-21.2214,79.6984-21.2214" style="fill:#fff; stroke:#000001; stroke-miterlimit:10; stroke-width:1.5px;"/><path d="m161.1817,91.9279c29.068-.0634,28.853,16.974,0,17.4482-28.8624-.4728-29.0625-17.5168.0002-17.4483-6.037.2512-12.3682,1.0408-17.6779,4.0806-2.528,1.3606-4.7075,4.4039-2.2299,6.8874,2.0375,2.1999,5.0192,3.2196,7.8633,4.0488,3.9128,1.0345,7.9883,1.4205,12.0444,1.4328,4.0562-.01,8.1318-.3978,12.0446-1.4321,2.8456-.8281,5.8241-1.8506,7.8648-4.0482,2.4695-2.4841.3083-5.5269-2.2311-6.8897-5.3104-3.0402-11.6407-3.8291-17.6783-4.0795h0Z" style="fill:#000001;"/><path d="m172.3524,107.3055v-7.2404c-.1267-2.412-5.1269-4.3276-11.1707-4.3276s-11.0439,1.9155-11.1707,4.3276v7.5751" style="fill:none; stroke:#000001; stroke-miterlimit:10;"/><path d="m168.0587,100.065c.0489,1.5126-3.0297,2.7548-6.8769,2.7548s-6.9259-1.2421-6.8769-2.7548c.0482-1.4914,3.1269-2.6852,6.8769-2.6852s6.8287,1.1938,6.8769,2.6852Z" style="fill:none; stroke:#000001; stroke-miterlimit:10; stroke-width:.5px;"/><path d="m172.3524,100.065c.1297,2.468-4.8704,4.5113-11.1707,4.5113s-11.3004-2.0432-11.1707-4.5113" style="fill:none; stroke:#000001; stroke-miterlimit:10; stroke-width:.5px;"/><path d="m240.9023,230.4704v.0132c-5.6271,22.6747-37.885,40.8408-79.6515,40.8408-41.801,0-74.0704-18.1925-79.663-40.8935v-.0132" style="fill:none; stroke:#000001; stroke-miterlimit:10; stroke-width:.5px;"/><path d="m92.9428,108.8768c3.1994-13.5439,33.6641-23.6263,68.3062-23.6263" style="fill:none; stroke:#000001; stroke-miterlimit:10; stroke-width:.5px;"/><path d="m229.5553,108.8768c3.53,14.9438-26.8973,28.2412-68.3062,28.2412s-71.8363-13.2975-68.3062-28.2412" style="fill:none; stroke:#000001; stroke-miterlimit:10; stroke-width:.5px;"/><path d="m161.2491,85.2505c34.6422,0,65.1069,10.0824,68.3062,23.6263" style="fill:none; stroke:#000001; stroke-miterlimit:10; stroke-width:.5px;"/><path d="m78.3723,152.4693c7.8549,14.2399,40.7674,25.3792,82.8785,25.3792s75.0235-11.1508,82.8785-25.3792" style="fill:none; stroke:#000001; stroke-miterlimit:10; stroke-width:.5px;"/><path d="m243.6329,114.1103c3.1077,16.2901-21.9951,25.0851-34.294,28.4796-34.7218,8.9741-86.8531,8.9094-118.5632-9.126-6.5959-4.009-13.8649-10.8904-11.8715-19.3537-1.8972,8.4531,5.391,15.2146,12,19.1446,31.2549,17.7543,84.0402,17.7524,118.3483,9.0156,12.2508-3.348,37.3517-12.0149,34.3804-28.1601h0Z" style="fill:#000001;"/><path d="m184.0941,66.6413c9.8069,2.7377,16.1626,7.1273,16.1626,12.0756,0,8.2983-17.875,15.0255-39.9249,15.0255s-39.9248-6.7271-39.9248-15.0255c0-3.7194,3.591-7.1232,9.5394-9.7471" style="fill:none; stroke:#f2a900; stroke-miterlimit:10; stroke-width:5px;"/><polygon points="130.357 75.0705 137.7676 66.3196 126.4839 64.2757 130.357 75.0705" style="fill:#f2a900;"/><g style="clip-path:url(#uuid-8a747c82-a3b7-40eb-a693-236f7961cfcd);"><ellipse cx="325.8567" cy="276.5504" rx="141.664" ry="187.7921" transform="translate(-99.3284 233.1878) rotate(-34.4977)" style="fill:none; stroke:#a7abae; stroke-miterlimit:10; stroke-width:.5px;"/><path d="m185.4904,373.013c-68.94-100.3171-63.4795-223.7993,12.1963-275.8053,75.6758-52.006,192.91-12.8421,261.85,87.475,68.94,100.3171,63.4795,223.7993-12.1963,275.8053-75.6758,52.006-192.91,12.8421-261.85-87.475" style="fill:none; stroke:#a7abae; stroke-miterlimit:10; stroke-width:.5px;"/><ellipse cx="330.3623" cy="273.454" rx="192.1855" ry="254.7643" transform="translate(-96.7824 235.1952) rotate(-34.4977)" style="fill:none; stroke:#a7abae; stroke-miterlimit:10; stroke-width:.5px;"/><path d="m51.9428,464.7897C-8.2441,377.2617-45.7614,272.4852-45.8103,165.6822-46.7355,59.8688-3.7925-50.9447,86.0951-111.639c137.4258-95.0889,323.685-44.1162,443.3673,56.8199,142.0439,117.8554,232.1569,311.2133,197.2485,496.4428-32.9339,172.1643-181.1477,274.0492-353.7215,242.9729-132.0342-23.3889-246.184-110.7752-321.0467-219.8068,74.9692,108.8767,189.2056,195.9666,321.1389,219.2774,172.176,30.9037,320.0722-70.7043,352.8512-242.5981,34.7582-184.9496-55.3883-377.8101-197.0501-495.5843-119.3551-100.765-305.2517-151.809-442.4135-56.9766C-3.288-50.5305-46.1682,60.0409-45.3229,165.6834c-.1163,106.7271,37.2427,211.535,97.2658,299.1062h0Z" style="fill:#a7abae;"/><ellipse cx="331.8771" cy="272.413" rx="424.1345" ry="544.6589" transform="translate(-95.9265 235.8701) rotate(-34.4977)" style="fill:none; stroke:#a7abae; stroke-miterlimit:10; stroke-width:.5px;"/><ellipse cx="364.3383" cy="250.105" rx="521.9046" ry="670.2118" transform="translate(-77.5835 250.3323) rotate(-34.4977)" style="fill:none; stroke:#a7abae; stroke-miterlimit:10; stroke-width:.5px;"/><path d="m-33.0185-359.0993C-290.7446-181.9845-315.2927,229.8938-87.848,560.8568c227.4446,330.963,620.7533,455.6816,878.4794,278.5669l173.9528-119.544c257.7261-177.1148,282.2742-588.9931,54.8295-919.9561-227.4446-330.963-620.7533-455.6816-878.4794-278.5669l-173.9528,119.544Z" style="fill:none; stroke:#a7abae; stroke-miterlimit:10;"/><ellipse cx="361.3243" cy="252.1763" rx="325.7997" ry="418.3806" transform="translate(-79.2866 248.9895) rotate(-34.4977)" style="fill:none; stroke:#a7abae; stroke-miterlimit:10; stroke-width:.5px;"/><path d="m-33.0185-359.0993c257.7261-177.1148,651.0348-52.3961,878.4794,278.5669,227.4446,330.963,202.8966,742.8414-54.8295,919.9561" style="fill:none; stroke:#a7abae; stroke-miterlimit:10; stroke-width:.5px;"/><path d="m322.5518,201.6991c-14.801-14.4787-20.7724-41.1963-4.7171-56.9768,7.6528-7.5537,19.0638-10.2464,29.508-8.5805,26.1761,3.8282,47.8388,32.1551,40.1878,58.4104-2.9685,10.274-11.5429,18.5707-21.9079,21.1851-15.5612,4.1778-32.2749-2.7486-43.0708-14.0381,10.953,11.0846,27.5258,17.6217,42.9177,13.4783,10.1483-2.6231,18.489-10.7634,21.3442-20.8439,7.3327-25.7606-14.0502-53.4154-39.5965-57.3709-10.2227-1.6829-21.3862.8801-28.9209,8.2353-15.8309,15.4811-10.1293,41.9661,4.2555,56.5013h0Z" style="fill:#a7abae;"/><path d="m272.9822,406.6383c-11.0342-9.0005-22.0006-24.5455-15.8769-39.2303,4.949-10.5546,18.3739-12.2515,28.5842-9.7507,16.7013,4.0215,31.8894,15.9915,38.3848,32.0724,5.4662,13.7.0516,27.5293-15.5245,29.4422-12.9786,1.4707-25.7686-4.4467-35.5676-12.5335,9.916,7.8686,22.6609,13.4481,35.4832,11.9078,14.9989-1.9949,20.0727-15.296,14.758-28.4924-6.4136-15.6849-21.414-27.5075-37.7342-31.5109-9.8747-2.4328-22.8553-.948-27.7546,9.1666-6.1325,14.1991,4.6177,29.9391,15.2476,38.9288h0Z" style="fill:#a7abae;"/><path d="m322.6345,390.1353c-4.3997,3.6291-8.8254,7.2247-13.2825,10.7804-5.542.8717-11.0909,1.6952-16.6439,2.4901-4.0205-3.295-11.8977-9.8368-15.866-13.1926,0,0-.175-.1467-.175-.1467l.0107-.2243c.1772-3.904.5635-11.6122.7963-15.5133,3.4693-3.1495,8.525-7.4752,12.1036-10.5958-3.3782,3.3059-8.1645,7.8128-11.5545,10.9989,0,0,.108-.2313.108-.2313l-.2405,7.6918-.3001,7.6892-.1642-.3708,7.8819,6.498,7.828,6.5628-.3568-.1013c5.4594-.7609,10.9226-1.494,16.3925-2.1806,3.7112-3.0093,9.1425-6.9036,13.4626-10.1542h0Z" style="fill:#a7abae;"/><path d="m309.2173,400.6096c.082-3.8404.3146-11.5485.4523-15.3849,0,0,.0763.1724.0763.1724-5.259-4.3267-10.5014-8.6733-15.7119-13.0583-4.5245.8342-11.0421,1.4487-16.2352,2.1474,5.4729-.8912,10.9523-1.7366,16.4372-2.5426,5.2876,4.3431,10.5429,8.7248,15.7816,13.1268l.082.0689-.0055.1038c-.1946,3.8268-.6285,11.5425-.8768,15.3666h0Z" style="fill:#a7abae;"/><path d="m184.7489,292.3543c-6.405-12.6583-10.1221-31.4322,1.4466-42.2965,8.813-7.6304,21.768-3.7218,30.0792,2.7145,13.6231,10.4651,22.6317,27.5766,22.0272,44.9091-.5768,14.739-11.1468,25.1718-26.1548,20.5859-12.4553-3.9337-21.7341-14.5405-27.3982-25.9129,5.8597,11.2207,15.2348,21.5004,27.5755,25.307,14.5141,4.2762,24.558-5.8124,25.0684-20.0298.5182-16.9376-8.3788-33.8381-21.661-44.1317-8.0323-6.2378-20.4951-10.1595-29.0839-2.9109-11.3642,10.4226-7.9543,29.2797-1.8989,41.7653h0Z" style="fill:#a7abae;"/><path d="m236.8216,297.4667c-5.4952,1.5266-11.0006,3.0119-16.5183,4.4481-5.4177-1.4571-10.8219-2.9611-16.2183-4.4927-2.3333-4.6451-6.8699-13.8247-9.1308-18.5041,0,0-.1003-.2052-.1003-.2052l.101-.2007c1.7494-3.4946,5.2366-10.3798,7.0355-13.8492,4.4502-1.4667,10.828-3.363,15.3662-4.7588-4.4305,1.6466-10.6359,3.818-15.0285,5.3504,0,0,.1927-.1674.1927-.1674l-3.3474,6.9294-3.4007,6.9028.0007-.4055,4.5587,9.1414,4.4832,9.1787-.2847-.2376c5.297,1.5247,10.5864,3.0764,15.8628,4.6732,4.6141-1.2403,11.1598-2.5896,16.4283-3.8028h0Z" style="fill:#a7abae;"/><path d="m220.3046,301.5803c1.6365-3.4752,4.9832-10.4227,6.669-13.8717,0,0-.0003.1885-.0003.1885-3.0453-6.0912-6.0674-12.1939-9.0446-18.3188-4.4729-1.0777-10.6771-3.1664-15.7057-4.6396,5.3624,1.4112,10.7121,2.8668,16.0509,4.3607,3.0649,6.1178,6.0844,12.258,9.0805,18.4097l.0469.0963-.0472.0925c-1.7338,3.4171-5.2675,10.2896-7.0493,13.6824h0Z" style="fill:#a7abae;"/><path d="m213.3764,180.5931c-3.1181-13.3542-2.5613-28.5477,5.1348-40.3389,9.2986-13.9524,25.1107-13.1795,35.9824-1.4572,15.2087,16.4394,19.4275,46.0233,7.0884,65.153-5.1838,8.0814-15.1836,12.6079-24.4694,9.0704-13.3464-5.0997-20.6923-19.2394-23.7364-32.4271,3.2646,13.0672,10.7571,26.878,23.9439,31.831,9.0312,3.3262,18.5239-1.1224,23.547-8.9615,12.0116-18.7392,7.7475-47.9246-7.031-64.0395-10.4633-11.3503-25.6831-12.2429-34.8052,1.1855-7.6904,11.6242-8.5252,26.6189-5.6546,39.9844h0Z" style="fill:#a7abae;"/><path d="m265.4881,191.5156c-5.9768,1.1374-11.96,2.2351-17.9518,3.2816-5.1952-2.1952-10.3784-4.4175-15.544-6.6799-1.2667-5.4401-3.7032-16.1576-4.9-21.612,0,0-.0451-.2019-.0451-.2019l.1179-.1662c2.5863-3.661,7.8277-11.0166,10.4587-14.6454,0,0,.0753-.1048.0753-.1048l.1174-.027c4.8593-1.1884,11.8531-2.6824,16.7985-3.7936-4.5863,1.1682-12.7112,3.6098-16.4469,4.3085,0-.0002-5.099,7.4142-5.099,7.4142l-5.1477,7.3801.0728-.3679,2.4514,10.688,2.3782,10.7046-.2594-.3145c5.0613,2.2292,10.1059,4.4968,15.1389,6.7906,4.9899-.9402,12.0868-1.8014,17.7849-2.6544h0Z" style="fill:#a7abae;"/><path d="m247.5742,194.4644c3.2606-4.6971,7.0651-10.6286,10.1411-14.6725-1.6519-7.1212-3.2567-14.2532-4.8349-21.3913l.1218.1477-7.5648-3.4059-7.5414-3.4592,7.6504,3.2111,7.6269,3.2645c.1131.0466.0963.0282.1221.148,1.6553,7.1539,3.2836,14.3139,4.8641,21.4847-3.4941,4.9151-7.0208,9.8072-10.5853,14.6729h0Z" style="fill:#a7abae;"/><path d="m78.0417,264.7364s8.3462,9.9442,11.2303,19.372c2.8841,9.4278,23.4829,71.556,56.0327,112.4596,0,0,5.2157,8.8543,3.4061,16.2993" style="fill:none; stroke:#a7abae; stroke-miterlimit:10;"/><path d="m582.8033,542.9002c-129.398,88.9167-326.8397,26.3164-441.0359-139.8415C27.5934,236.9151,39.9042,30.1367,169.3023-58.7797c125.3735-86.1849,314.7113-30.0261,430.1985,124.7776l.1431.2179c.6679.8705,1.3359,1.7411,1.9529,2.6417,2.9736,3.9912,5.8536,8.0792,8.7048,12.212.0606.1018.113.167.1734.269l.0222.0143c.6696.966,1.3247,1.9541,1.9799,2.9424,111.8513,165.5939,98.8522,370.2608-29.6738,458.605Z" style="fill:none; stroke:#a7abae; stroke-miterlimit:10;"/></g></svg>