<?xml version="1.0" encoding="UTF-8"?><svg id="uuid-e62ae49d-aa38-4c47-be4f-ee858932a2ee" xmlns="http://www.w3.org/2000/svg" width="325" height="147.8672" viewBox="0 0 325 147.8672"><path d="m162.9257,140.2935c-49.1817,0-79.6328-.8871-96.5164-1.6314-2.3841-.1102-4.7165-.7342-6.8379-1.827-2.1215-1.094-3.9823-2.6321-5.4555-4.5097-1.4733-1.8776-2.5244-4.051-3.0817-6.3716-.5572-2.3206-.6076-4.7334-.1476-7.0758l8.854-44.8173c.8753-4.4246,3.3017-8.3912,6.8422-11.1854l20.3569-16.0542c3.4153-2.6903,7.4511-4.4802,11.7381-5.2055l36.1473-6.0848c1.0018-.1679,2.0305.056,2.8715.6252l3.7373,2.5346c1.1558.7824,2.5185,1.2001,3.9138,1.1991h17.5778" style="fill:none; stroke:#a7abae; stroke-linecap:round; stroke-linejoin:round;"/><path d="m162.9279,140.2935c49.1805,0,79.632-.8871,96.5161-1.6314,2.3836-.1102,4.7166-.7342,6.8371-1.827,2.1216-1.094,3.9824-2.6321,5.4564-4.5097,1.4729-1.8776,2.5241-4.051,3.0818-6.3716.5565-2.3206.6071-4.7334.1473-7.0758l-8.8541-44.8173c-.8759-4.4246-3.3022-8.3912-6.8427-11.1854l-20.3572-16.0542c-3.4146-2.6903-7.4509-4.4801-11.738-5.2055l-36.1473-6.0848c-1.0018-.1679-2.0294.056-2.8715.6252l-3.7373,2.5346c-1.1547.7823-2.5185,1.2001-3.9138,1.1991h-17.5778" style="fill:none; stroke:#a7abae; stroke-linecap:round; stroke-linejoin:round;"/><path d="m47.7032,119.6036l-4.3828.2023" style="fill:none; stroke:#a7abae; stroke-linecap:round; stroke-linejoin:round; stroke-width:.5px;"/><path d="m278.9855,76.04c-.0015,1.3511.4045,2.6712,1.1647,3.7881.7603,1.1169,1.8395,1.9787,3.097,2.473v2.8075h4.9078v-2.8075c1.2567-.4954,2.3351-1.3575,3.0952-2.4742.76-1.1166,1.1665-2.4361,1.1665-3.7869,0-1.3508-.4064-2.6703-1.1665-3.787-.76-1.1167-1.8385-1.9788-3.0952-2.4742v-2.0196h-4.9083v2.0196c-1.2573.4944-2.3365,1.3563-3.0966,2.4732s-1.166,2.437-1.1646,3.788h0Z" style="fill:none; stroke:#a7abae; stroke-miterlimit:10; stroke-width:.5px;"/><path d="m162.9268,143.3236c49.2367,0,79.7354-.8882,96.651-1.6336,2.8198-.1293,5.5789-.8669,8.0873-2.1598,2.5095-1.293,4.711-3.111,6.4537-5.3327,1.7427-2.2206,2.9851-4.7908,3.644-7.5364.6589-2.7445.7185-5.5992.1743-8.369l-8.8541-44.8179c-1.0141-5.1338-3.8283-9.7363-7.9367-12.9773l-20.356-16.0537c-3.816-3.0051-8.3245-5.0037-13.1142-5.8128l-36.1473-6.0848c-.3845-.0652-.7747-.0982-1.1659-.0986-1.3919.0007-2.7524.4192-3.9048,1.2011l-3.7373,2.5345c-.6544.4428-1.4257.6791-2.2149.6785h-35.1579c-.7893.0006-1.5606-.2358-2.2149-.6785l-3.7373-2.5345c-1.1525-.782-2.5129-1.2004-3.9059-1.2011-.3901.0005-.7803.0334-1.1648.0986l-36.1484,6.0854c-4.7891.8091-9.2985,2.8078-13.1143,5.8128l-20.3549,16.0542c-4.108,3.2407-6.9228,7.8427-7.9369,12.976l-8.854,44.8173c-.5445,2.7704-.4853,5.625.1736,8.3695.6589,2.7445,1.902,5.3158,3.6445,7.5364,1.7426,2.2206,3.9436,4.0397,6.4529,5.3327,2.5094,1.293,5.2681,2.0294,8.0879,2.1598,16.9151.7443,47.4137,1.6325,96.6504,1.6325" style="fill:none; stroke:#a7abae; stroke-linecap:round; stroke-linejoin:round;"/><path d="m298.5977,48.563l3.201,147.4198c.1023,4.7076-1.2874,9.3275-3.9712,13.1963l-6.3873,9.2139c-.7432,1.0715-1.2548,2.2846-1.5043,3.563l-18.8877,96.9354" style="fill:none; stroke:#a7abae; stroke-linecap:round; stroke-linejoin:round; stroke-width:.5px;"/><path d="m79.9335,16.533c0,25.7255-6.3707,28.3368-9.7302,28.3368-6.0826,0-9.7305-13.9372-9.7306-22.734" style="fill:none; stroke:#a7abae; stroke-linecap:round; stroke-linejoin:round; stroke-width:.5px;"/><path d="m61.1773,64.0141l-33.922-15.451" style="fill:none; stroke:#a7abae; stroke-linecap:round; stroke-linejoin:round; stroke-width:.5px;"/><path d="m27.2555,48.563l-3.2009,147.4198c-.1023,4.7076,1.2876,9.3275,3.9705,13.1963l6.3882,9.2139c.7424,1.0715,1.2543,2.2846,1.5035,3.563l18.8883,96.9354" style="fill:none; stroke:#a7abae; stroke-linecap:round; stroke-linejoin:round; stroke-width:.5px;"/><path d="m34.2806,208.6215l6.0774-4.6469c.3114-.2383.5639-.5453.7377-.8972.1737-.3519.2641-.7387.2641-1.1299v-14.6568c0-.5059.1507-1.0018.433-1.4223.2823-.4205.6835-.7477,1.1523-.9399l4.2343-1.7315c.4647-.19.8629-.5138,1.1449-.9287.282-.416.4351-.9051.4404-1.4065l.3087-29.6351c.0062-.588-.1914-1.1614-.5591-1.6202l-3.5729-4.467c-.362-.4531-.5592-1.0153-.5592-1.5943v-22.725c0-.1372-.0279-.2732-.0819-.3991-.054-.127-.133-.2404-.2323-.3352-.0992-.0948-.2167-.1684-.3452-.2165s-.2655-.0696-.4025-.0633l-4.9021.2262c-1.3539.0625-2.6359.6283-3.5951,1.5851-.9593.9579-1.5267,2.2386-1.5914,3.5934l-3.5876,75.0267c-.0245.5138.1064,1.022.3756,1.4594l4.2608,6.9248Z" style="fill:none; stroke:#a7abae; stroke-linecap:round; stroke-linejoin:round; stroke-width:.5px;"/><path d="m162.9268,147.3611c-14.4724,0-53.7644.479-62.1981.5835-.47.0056-.9276.1574-1.3076.4329-.3811.2755-.6667.6622-.8196,1.1075l-5.6,16.4108c-.1205.353-.1525.7297-.093,1.0985.0596.3677.2087.7151.4342,1.013.2255.2968.5207.534.8592.6903.3384.1563.7106.226,1.0827.2046,7.4026-.4182,27.6574-1.293,67.6421-1.293" style="fill:none; stroke:#a7abae; stroke-linecap:round; stroke-linejoin:round; stroke-width:.5px;"/><path d="m245.9194,16.533c0,25.7255,6.3716,28.3368,9.7311,28.3368,6.0826,0,9.73-13.9372,9.73-22.734" style="fill:none; stroke:#a7abae; stroke-linecap:round; stroke-linejoin:round; stroke-width:.5px;"/><path d="m291.5718,208.6215l-6.077-4.6469c-.3114-.2383-.5644-.5453-.7376-.8972-.1743-.3519-.2642-.7387-.2642-1.1299v-14.6568c0-.5059-.1507-1.0018-.4329-1.4223-.2822-.4205-.6836-.7477-1.1524-.9399l-4.2342-1.7315c-.4644-.19-.8635-.5138-1.1446-.9287-.2822-.416-.4362-.9051-.4407-1.4065l-.3092-29.6351c-.0056-.588.1923-1.1614.5599-1.6202l3.5731-4.4681c.362-.452.5588-1.0141.5588-1.5932v-22.725c0-.1372.0281-.2732.0821-.3991.054-.127.1327-.2404.2327-.3352.099-.0948.2159-.1684.3452-.2165.1282-.0481.2653-.0696.4025-.0633" style="fill:none; stroke:#a7abae; stroke-linecap:round; stroke-linejoin:round; stroke-width:.5px;"/><path d="m162.9268,147.3611c14.4735,0,53.7656.479,62.198.5835.4711.0056.9276.1574,1.3087.4329.38.2755.6667.6622.8185,1.1075l5.6003,16.4108c.1203.353.1529.7297.0933,1.0985-.0596.3677-.2091.7162-.4351,1.013-.2249.2968-.5206.534-.859.6903-.3384.1563-.7106.226-1.0827.2046-7.4026-.4182-27.6574-1.293-67.6409-1.293" style="fill:none; stroke:#a7abae; stroke-linecap:round; stroke-linejoin:round; stroke-width:.5px;"/><path d="m164.7168,24.2717c.0022-.2363-.0427-.4706-.1316-.6894-.0888-.2189-.2204-.4179-.3868-.5857-.1664-.1677-.3654-.301-.5835-.3918-.2181-.0908-.452-.1376-.6881-.1376s-.47.0468-.6881.1376c-.2181.0908-.416.2241-.5824.3918-.1664.1678-.2979.3668-.3879.5857-.0888.2188-.1338.4531-.1316.6894v6.8211c-.0022.2363.0427.4706.1316.6896.0899.2188.2215.4179.3879.5857s.3643.3009.5824.3917c.2181.0908.452.1376.6881.1376s.47-.0468.6881-.1376c.2181-.0908.4171-.224.5835-.3917.1664-.1678.2979-.3669.3868-.5857.0888-.2189.1338-.4532.1316-.6896v-6.8211Z" style="fill:none; stroke:#a7abae; stroke-linecap:round; stroke-linejoin:round;"/><path d="m187.1078,30.428c-2.0598-5.2134-4.5963-10.2252-7.578-14.9716-.307-.4566-.7218-.8307-1.2064-1.0895-.4857-.2588-1.0276-.3943-1.5774-.3946h-27.6372c-.5509.0003-1.0917.1358-1.5774.3946-.4857.2588-.8995.633-1.2064,1.0895-2.9817,4.7463-5.5182,9.7582-7.578,14.9716" style="fill:none; stroke:#a7abae; stroke-linecap:round; stroke-linejoin:round; stroke-width:.5px;"/><path d="m5.7372,224.5847l3.9122-150.5256" style="fill:none; stroke:#a7abae; stroke-linecap:round; stroke-linejoin:round; stroke-width:.5px;"/><path d="m299.0171,67.1338l2.7816,128.849c.1023,4.7076-1.2874,9.3275-3.9712,13.1963l-1.9136,2.7614-4.341-3.319,4.2612-6.9248c.2687-.4374.4002-.9467.3755-1.4594l-3.5878-75.0278c-.0652-1.3537-.6319-2.6343-1.592-3.5922-.9591-.9579-2.2408-1.523-3.5945-1.5854l-4.9032-.2262-4.3826-.2024" style="fill:none; stroke:#a7abae; stroke-linecap:round; stroke-linejoin:round; stroke-width:.5px;"/><path d="m264.6755,64.0132l33.9211-15.4506.4047,18.6257" style="fill:none; stroke:#a7abae; stroke-linecap:round; stroke-linejoin:round; stroke-width:.5px;"/><path d="m162.9268,9.2721c-48.3744,0-78.6762,5.824-93.4968,9.7051-6.7331,1.7506-13.0842,4.7317-18.7326,8.7933-7.052,5.0707-13.3738,10.0811-18.0322,13.913-6.0338,4.9479-11.1815,10.8867-15.2223,17.5621-3.1667,5.2088-5.9765,10.6263-8.41,16.2153-1.9505,4.4461-3.0365,9.2229-3.2001,14.0752l-2.5278,96.5042c-.9802,37.3964,6.4824,48.036,6.6592,81.0846-2.5979,1.7854-5.7085,3.9408-8.8013,6.1681-.0706.0528-.1591.1057-.2474.1765-5.037,3.6226-9.9853,7.4408-12.4772,10.2337-5.2489,5.9027-5.461,8.7124-5.2489,14.5095.1944,5.7959,1.3604,7.0518,3.5876,6.6628,1.8557-.3182,16.5951-5.8499,23.152-8.4134v.4958s.0139,6.122.0364,15.4472l.0112,4.7413" style="fill:none; stroke:#a7abae; stroke-linecap:round; stroke-linejoin:round; stroke-width:1.5px;"/><path d="m162.9257,9.2721c48.3733,0,78.6752,5.824,93.4961,9.7051,6.7336,1.7506,13.0838,4.7317,18.7325,8.7933,7.0518,5.0707,13.3739,10.0811,18.032,13.913,6.0343,4.9479,11.1815,10.8867,15.2223,17.5621,3.1672,5.2088,5.977,10.6263,8.41,16.2153,1.9507,4.4461,3.0368,9.2229,3.1999,14.0752l2.5286,96.5042c.9804,37.3964-6.4829,48.036-6.6594,81.0846,2.5983,1.7854,5.7082,3.9408,8.8012,6.1681.0709.0528.1586.1057.2474.1765,5.037,3.6226,9.9852,7.4408,12.4767,10.2337,5.2495,5.9027,5.462,8.7124,5.2495,14.5095-.1945,5.7959-1.3605,7.0518-3.5878,6.6628-1.8551-.3182-16.5952-5.8499-23.1523-8.4134v.4958s-.0135,6.122-.036,15.4472l-.0113,4.7413" style="fill:none; stroke:#a7abae; stroke-linecap:round; stroke-linejoin:round; stroke-width:1.5px;"/><path d="m112.8532,86.2903l-.0275-2.3528c-.1363-.911.3271-1.9565,1.3318-2.0891,1.6617-.0423,3.1628-.0257,4.7522-.0159l2.3528.0203c.3653-.0365.9447.0748,1.2466.3055,1.7013.9569,3.4371,1.9185,5.0329,3.0551-1.8146-.7366-3.5596-1.683-5.2799-2.6052-.3622-.2219-.5537-.239-.9996-.2214-1.4873.0174-5.4716.0359-7.0095.0425-.7695.1356-.9182.8346-.8722,1.5083,0,0-.0276,2.3528-.0276,2.3528h-.5Z" style="fill:#a7abae; stroke-width:0px;"/><path d="m173.0422,74.311c-1.3098-.0172-2.6988.3845-3.1084,1.7525,0,0-1.0691,4.0263-1.0691,4.0263-.6679,2.3808-1.4663,5.7905-2.3917,8.0595.1709-1.4023.4935-2.7627.8171-4.1233l1.0159-4.0693c.3433-1.3711.6751-2.6772,1.0734-4.0908.4264-1.561,2.2166-2.1532,3.6629-2.0548,0-.0001,0,.4999,0,.4999h0Z" style="fill:#a7abae; stroke-width:0px;"/><path d="m166.6272,93.8307l3.2317,3.6039c.2277.2539.5526.399.8936.399h46.6269c.6629,0,1.2003.5374,1.2003,1.2003v10.7266c0,.6629.5374,1.2003,1.2003,1.2003h26.4327l5.4986-6.055-3.1247-19.1306c-.1366-.8363-.5691-1.5956-1.2188-2.1396l-23.5421-19.7126c-.636-.5325-1.439-.8243-2.2685-.8243h-30.3438c-.8968,0-1.76.341-2.4147.9538l-9.6735,9.0548c-.6547.6128-1.5179.9538-2.4147.9538h-13.4366" style="fill:none; stroke:#a7abae; stroke-miterlimit:10; stroke-width:.5px;"/><path d="m143.1912,38.3742c-12.783.3732-34.5674,2.3349-48.5769,6.4693-1.5182.4481-2.9327,1.17-4.2034,2.1139-4.2938,3.1894-15.0952,11.3533-23.18,18.6585-2.2441,2.0278-3.8046,4.6942-4.473,7.644-2.0539,9.0653-6.6655,30.2948-8.554,46.1104-.7498,6.2794,4.4659,8.1961,7.8652,8.372.2942.0152.5205.2677.5205.5624v1.7204s1.7666,2.5868,3.9879,4.8844c.9978,1.0321,2.3646,1.6269,3.8002,1.6269h24.7621c.5942,0,1.1825-.1005,1.7429-.2979,2.6535-.9346,10.9066-3.8685,15.8238-5.9174" style="fill:none; stroke:#a7abae; stroke-miterlimit:10; stroke-width:.5px;"/><path d="m163.274,48.0952l-7.9736.0273c-1.5041-.0644-4.6303.2219-6.0394-.2392-2.4925-.5861-5.1055-1.8922-7.6501-1.685,0,.0001-1.9899.0716-1.9899.0716-7.2836.3262-14.5927.7608-21.7818,2.0185-2.0448.1698-3.6457,1.228-5.0116,2.7031,0-.0002-2.9089,2.7266-2.9089,2.7266-1.9503,1.8062-3.9112,3.6011-5.8937,5.3735,1.8619-1.8987,3.7453-3.7749,5.6394-5.6399,1.0666-1.0266,3.258-3.2048,4.3146-4.1672,1.592-1.3807,3.7784-1.4479,5.742-1.8206,7.2348-1.1015,14.5642-1.5421,21.8713-1.8267,2.0173-.2339,4.0056.6404,5.9168,1.1353,1.0726.3048,2.6632.8693,3.8044.7812,2.5967.0086,9.2964.0323,11.9605.0413,0,0,0,.5,0,.5h0Z" style="fill:#a7abae; stroke-width:0px;"/><path d="m163.274,65.2612l-7.633.0164c-1.2181-.0681-2.7853.2558-3.8845-.4206-.9411-.6847-2.0175-1.8218-2.8601-2.6187-.7995-.7226-1.9069-1.9763-2.7517-2.5221-.8457-.533-2.6214-.272-3.6128-.3249,0,0-7.6329.0157-7.6329.0157-5.0973-.0034-17.9806-.0108-22.8989-.0137l-3.8165-.0024c-1.0723.0342-2.6755-.1062-3.6894.3065-1.2115.3655-2.1211,1.1836-3.0671,2.0134,0,0-2.897,2.4846-2.897,2.4846-3.707,3.1763-13.558,11.6296-17.382,14.9072-1.5206,1.4171-4.4388,3.2764-4.9651,5.4482-.3293,1.0464-.4868,2.6118-.7192,3.7056-.4494,2.4599-1.5423,8.7481-1.9988,11.268-.1033.9764-.6112,2.7461-.5636,3.7131.0466,1.2082.4862,2.4238,1.5269,3.209-1.5514-.6123-2.2827-2.5942-1.9842-4.1803.1129-.5385.3824-2.2445.4968-2.8204.4414-2.5715,1.561-8.8148,1.9871-11.2812,0,0,.3312-1.8804.3312-1.8804.2069-1.93,1.0472-3.9163,2.6319-5.1167,1.7846-1.515,12.4327-10.7019,14.4702-12.4397,0,0,5.788-4.9761,5.788-4.9761l2.894-2.488c.9537-.8473,1.9972-1.7545,3.2656-2.1303,1.0818-.4374,2.7256-.3223,3.8748-.3406,6.9037-.0294,19.6956.0066,26.7155-.0159-.0001,0,7.6328.0154,7.6328.0154,1.1042.0738,2.8604-.2347,3.8945.414.589.2678,1.0233.9027,1.4953,1.2951.6652.6672,2.0668,1.9942,2.7366,2.66.471.4265.8869.9438,1.3718,1.219.9654.5809,2.5267.2996,3.6109.3643,0,0,7.6329.0166,7.6329.0166v.5h0Z" style="fill:#a7abae; stroke-width:0px;"/><path d="m163.2741,55.0561h-9.9104c-.7664,0-1.5027.2031-2.0534.5665l-4.3995,2.9027c-.5507.3633-1.287.5665-2.0534.5665" style="fill:none; stroke:#a7abae; stroke-miterlimit:10; stroke-width:.5px;"/><path d="m163.274,74.311c-2.5303.0057-8.586.0156-11.0075.0208-1.1693-.0569-2.6139.1832-3.7391-.2263-1.08-.3691-2.1105-1.6027-2.9424-2.3289-1.6819-1.5601-6.299-5.8898-8.0391-7.5183-.8862-.8633-2.0255-.9194-3.2309-.8732-8.2937-.0129-21.0051-.0117-29.3514-.0216-1.2376-.0318-2.1211.7716-3.0208,1.5533,0,0-5.63,4.7067-5.63,4.7067l-11.2599,9.4141-5.6483,4.6851c-.4633.3633-.8212.8262-1.0438,1.3625-1.344,6.5014-2.2497,13.2873-3.5243,19.8205,1.0301-6.6189,1.8691-13.4045,3.1566-19.9705.2361-.5993.6464-1.1386,1.1407-1.5359l5.6046-4.7373,11.2458-9.4309,5.6229-4.7153c.91-.817,2.0157-1.7334,3.3521-1.6806,8.3659-.0011,21.0422-.021,29.3557-.0228,1.2193-.0718,2.688.0654,3.6247,1.023,1.7441,1.6364,6.3464,5.9303,8.0338,7.5258.7208.6267,1.8242,1.9296,2.7446,2.2229.985.3628,2.4942.1486,3.5483.2063,0,0,3.6692.0068,3.6692.0068l7.3384.0137v.5h0Z" style="fill:#a7abae; stroke-width:0px;"/><path d="m102.8216,64.8691c-2.8721,3.6801-5.2229,7.8589-8.634,11.0697-.0002-.0001-3.4054,3.2071-3.4054,3.2071l-6.7927,6.3901c-.4842.5645-.7078,1.2468-.7723,2.0286-.2242,1.5302-.7391,5.4623-1.0134,7.0217-2.0218,3.0251-4.0783,6.0276-6.1415,9.0256,1.8737-2.9617,4.0324-6.4818,5.8145-9.148,0,0,.5869-4.6411.5869-4.6411.2742-1.3961.1314-3.456,1.1649-4.5898,3.2727-3.1825,6.9384-6.4856,10.2696-9.6038,3.4509-3.1429,5.8935-7.2207,8.9234-10.7602h0Z" style="fill:#a7abae; stroke-width:0px;"/><path d="m78.9863,84.7341c1.379-.0119,2.688.3065,3.904.9582-1.3795.0148-2.6871-.3094-3.904-.9582h0Z" style="fill:#a7abae; stroke-width:0px;"/><path d="m96.7773,74.6431c3.519-.1891,7.0393-.2221,10.5612-.2446.9052.0067,1.9072-.1263,2.6938.4248.8336.4951,1.1004,1.4831,1.428,2.3179.6103,1.6518,1.2252,3.3017,1.773,4.9785-.7637-1.5901-1.4604-3.207-2.1617-4.8223l-.504-1.2048c-.3455-.7197-1.1143-1.2089-1.9124-1.2036-3.9573-.0081-7.9251-.0373-11.8778-.2459h0Z" style="fill:#a7abae; stroke-width:0px;"/><path d="m83.0714,94.8877c2.2884,1.6674,4.4643,3.4516,6.5703,5.3483,1.9801,2.0363,3.2588,4.8941,3.2378,7.7288-.3639-2.7077-1.6545-5.4537-3.58-7.3653-2.0522-1.9187-4.2127-3.7434-6.2281-5.7118h0Z" style="fill:#a7abae; stroke-width:0px;"/><path d="m113.6897,48.7402c-.6043-.7725-3.313-4.4992-3.9501-5.0977-1.0593-.8557-2.4504-.2938-3.6879-.2065-3.4144.4546-6.8145,1.095-10.1253,2.0154-1.6667.4721-3.0645,1.4432-4.3592,2.5794-2.5169,2.0751-9.3794,7.7327-11.9883,9.8837-2.5867,2.2477-9.7234,7.5459-11.8954,9.9127-2.3039,2.615-2.8797,6.1819-3.542,9.4982-.2169,1.5465-1.0851,3.6091.6069,4.6082.5874.3721,1.769.441,2.4586.6131,1.5933.302,5.9757,1.1412,7.63,1.4555-1.6667-.2822-6.0444-1.0024-7.6623-1.2752-.7369-.1732-1.8737-.1807-2.5512-.583-1.8151-1.0192-1.0163-3.2383-.7675-4.8707.6417-3.3731,1.21-7.0005,3.5417-9.688,1.1179-1.3682,2.577-2.3577,3.8799-3.4744l7.9901-6.5864c2.6482-2.1465,9.4988-7.704,12.063-9.783,1.304-1.1308,2.8053-2.1488,4.502-2.6081,3.3499-.9002,6.7562-1.5186,10.1885-1.9388,1.248-.0683,2.7387-.5927,3.8141.3298.6842.6033,3.2241,4.4505,3.8545,5.2156h0Z" style="fill:#a7abae; stroke-width:0px;"/><path d="m107.9684,43.8992c-13.7239,11.8318-29.0485,24.5727-43.1925,35.8995,13.7219-11.8341,29.0503-24.5707,43.1925-35.8995h0Z" style="fill:#a7abae; stroke-width:0px;"/><polygon points="89.442 63.0987 96.7773 57.1955 97.92 57.9004 90.5847 63.8036 89.442 63.0987" style="fill:none; stroke:#a7abae; stroke-miterlimit:10;"/><rect x="111.8035" y="85.2133" width="54.8236" height="27.5298" rx="3.6289" ry="3.6289" style="fill:none; stroke:#a7abae; stroke-miterlimit:10; stroke-width:.5px;"/><line x1="62.0692" y1="127.7423" x2="68.6414" y2="123.8968" style="fill:none; stroke:#a7abae; stroke-miterlimit:10; stroke-width:.5px;"/><polyline points="62.5897 130.0251 66.5619 130.0251 68.1734 128.8384 86.9494 128.8384" style="fill:none; stroke:#a7abae; stroke-miterlimit:10; stroke-width:.5px;"/><polyline points="65.3553 133.5697 66.6216 133.5697 73.4258 128.8384" style="fill:none; stroke:#a7abae; stroke-miterlimit:10; stroke-width:.5px;"/><polyline points="66.5619 130.0251 66.5619 128.1457 71.2352 125.2056" style="fill:none; stroke:#a7abae; stroke-miterlimit:10; stroke-width:.5px;"/><line x1="66.5619" y1="128.1457" x2="62.5897" y2="128.1457" style="fill:none; stroke:#a7abae; stroke-miterlimit:10; stroke-width:.5px;"/><path d="m67.4049,127.6154c.234-.1472,14.2021,0,14.2021,0" style="fill:none; stroke:#a7abae; stroke-miterlimit:10; stroke-width:.5px;"/><line x1="69.3905" y1="127.5499" x2="72.6379" y2="125.5336" style="fill:none; stroke:#a7abae; stroke-miterlimit:10; stroke-width:.5px;"/><line x1="66.6216" y1="133.5697" x2="66.6216" y2="130.0251" style="fill:none; stroke:#a7abae; stroke-miterlimit:10; stroke-width:.5px;"/><path d="m71.8175,104.9057c-.792,2.2099-1.9861,5.2728-2.6262,7.4921-.6705,2.444-1.5798,5.2517-.2928,7.6383-2.7484-3.9016,1.0514-11.3275,2.919-15.1304h0Z" style="fill:#a7abae; stroke-width:0px;"/><path d="m110.609,108.7806c-.0057.0076-17.1116.0388-16.8702.031.0002,0-10.2545,2.1025-10.2545,2.1025l-2.5637.5256c-.3115.1092-.9929.0172-.5947.5599.2376.3864.5752,1.0132.8165,1.3648.3795.322.984.7168,1.3947,1.0282,1.6523.1012,11.1985.0266,13.077.06,3.4398.03,7.1151.0492,10.4377.1478,0,0,1.9046-.5725,1.9046-.5725l.0508-.0153-.0015.0508-.0374,1.2565-.0374-1.2565.0491.0354-1.8672.6847c-.0067.0035-.0231.0058-.0307.005-6.0448.1639-14.7991.1486-20.936.1606-.4165-.0056-1.5559.0068-1.9627.0028-.2988-.0201-.6631.0762-.952-.1358-.3547-.2527-.8398-.6065-1.1947-.86-.2746-.1438-.5324-.5919-.6689-.8416-.0952-.1729-.4044-.674-.5001-.8445-.2992-.3479-.2583-1.0299.2651-1.2048.4534-.1121,2.7421-.578,3.2414-.684.0621-.0017,10.2526-2.1478,10.3068-2.1376,0,0,16.928.0368,16.928.0368v.5h0Z" style="fill:#a7abae; stroke-width:0px;"/><path d="m80.7244,111.4227c8.4513-.3076,16.9051-.2985,25.3578-.1278-.3178.1397,4.5922-2.7895,4.5268-2.7643,0,0-4.4578,2.9998-4.4578,2.9998-.0221.0196-.0419.0219-.069.0201-8.4527.1708-16.9065.1799-25.3578-.1278h0Z" style="fill:#a7abae; stroke-width:0px;"/><path d="m120.0055,81.5137c4.5595-5.9208,9.3019-11.8551,15.0727-16.6447-5.3115,5.2856-9.9855,11.1441-15.0727,16.6447h0Z" style="fill:#a7abae; stroke-width:0px;"/><path d="m133.6495,84.2405c3.9462-3.8882,8.2588-7.5794,13.2346-10.0777-4.6292,3.0794-8.8311,6.6884-13.2346,10.0777h0Z" style="fill:#a7abae; stroke-width:0px;"/><path d="m110.609,77.0471c.3271,12.1418.33,25.5027,0,37.6445-.33-12.1417-.3271-25.5026,0-37.6445h0Z" style="fill:#a7abae; stroke-width:0px;"/><path d="m183.3569,38.3742c12.783.3732,34.5674,2.3349,48.5769,6.4693,1.5182.4481,2.9327,1.17,4.2034,2.1139,4.2938,3.1894,15.0952,11.3533,23.18,18.6585,2.2441,2.0278,3.8046,4.6942,4.473,7.644,2.0539,9.0653,6.6655,30.2948,8.554,46.1104.7498,6.2794-4.4659,8.1961-7.8652,8.372-.2942.0152-.5205.2677-.5205.5624v1.7204s-1.7666,2.5868-3.9879,4.8844c-.9978,1.0321-2.3646,1.6269-3.8002,1.6269h-24.7621c-.5942,0-1.1825-.1005-1.7429-.2979-2.6535-.9346-10.9066-3.8685-15.8238-5.9174" style="fill:none; stroke:#a7abae; stroke-miterlimit:10; stroke-width:.5px;"/><path d="m163.274,47.5952l7.9736-.0276c1.3981-.0701,4.5837.1709,5.8748-.2441,2.5489-.5922,5.1748-1.907,7.8333-1.6862,0,.0001,1.9942.0773,1.9942.0773,7.3069.3472,14.6368.8045,21.8486,2.0866,2.0744.1641,3.8819,1.3268,5.2272,2.8706.0001-.0002,2.8579,2.7801,2.8579,2.7801,1.8941,1.865,3.7775,3.7412,5.6394,5.6399-1.9825-1.7725-3.9435-3.5674-5.8938-5.3735-1.0505-.9742-3.3388-3.1618-4.3613-4.0645-1.5333-1.291-3.6224-1.3361-5.5182-1.6948-7.214-1.078-14.5268-1.4967-21.8127-1.7605-2.5452-.2075-5.1595,1.0995-7.6502,1.6847-1.4205.4613-4.5615.175-6.0394.2395,0,0-7.9736-.0274-7.9736-.0274v-.5h0Z" style="fill:#a7abae; stroke-width:0px;"/><path d="m163.274,64.7612l7.633-.0125c1.0977-.0624,2.6787.216,3.6139-.363.7635-.5655,2.0045-1.8371,2.7426-2.5484.4557-.4912,1.6137-1.5315,2.0537-1.9939,1.1549-1.3539,3.1484-.9983,4.6989-1.039,0,0,7.6329-.0115,7.6329-.0115,5.0951.0038,17.9822.0143,22.8989.0178l3.8165.0029c1.1453.0302,2.7847-.0963,3.868.3402,1.2659.3768,2.3048,1.2794,3.2577,2.1269,0,0,2.8936,2.4885,2.8936,2.4885,3.7043,3.1828,13.5407,11.6474,17.3615,14.9312,1.6243,1.5018,4.5417,3.3711,5.1139,5.6899.3534,1.1459.4894,2.6221.732,3.7791.4472,2.4641,1.5309,8.7573,1.9849,11.281.1236,1.0517.6145,2.7197.5481,3.8155-.0716,1.3026-.7823,2.683-2.0044,3.1804,1.615-1.2069,1.7827-3.2421,1.328-5.0487,0,0-.3335-1.8782-.3335-1.8782-.4445-2.5698-1.5719-8.8039-2.001-11.2683-.4168-2.4389-.6349-5.105-2.7982-6.6855-7.2515-6.1662-17.3923-14.9922-24.6268-21.0738-1.5566-1.1632-3.408-1.1764-5.3239-1.1219,0,0-3.8165.0028-3.8165.0028l-7.633.0061-15.2659.0117-7.6329-.0115c-.9369.0669-2.7883-.2199-3.6175.3281-.4935.2607-.904.7732-1.3791,1.2004-.6684.6642-2.0741,1.9865-2.7468,2.6494-.8435.9443-2.0751,1.9114-3.4574,1.7193-1.5434-.0049-7.9345-.0106-9.5412-.0153,0,0,0-.5,0-.5h0Z" style="fill:#a7abae; stroke-width:0px;"/><path d="m163.2741,55.0561h9.9104c.7664,0,1.5027.2031,2.0534.5665l4.3995,2.9027c.5507.3633,1.287.5665,2.0534.5665" style="fill:none; stroke:#a7abae; stroke-miterlimit:10; stroke-width:.5px;"/><path d="m212.8584,48.7402c.6104-.8126,3.1968-4.574,3.8544-5.2157,1.0758-.9227,2.5687-.3957,3.8142-.3298,3.4323.4202,6.8386,1.0386,10.1885,1.9387,1.6971.4601,3.1975,1.4767,4.5019,2.6082,2.5327,2.0543,9.4377,7.6537,12.0631,9.7829l7.9901,6.5864c1.3029,1.1167,2.762,2.1062,3.8799,3.4744,2.3315,2.6877,2.8998,6.3144,3.5418,9.688.2495,1.6316,1.0501,3.8554-.7676,4.8706-.677.3963-1.801.4154-2.5511.5831-1.5988.264-6.0019,1.0002-7.6623,1.2751,1.6614-.3216,6.0177-1.1448,7.63-1.4556.6768-.1778,1.8694-.2347,2.4586-.613,1.6907-1.0016.8219-3.0621.6068-4.6082-.6618-3.3156-1.238-6.8835-3.5421-9.498-1.0882-1.3132-2.5287-2.2752-3.8512-3.3884l-8.0441-6.5244c-2.6314-2.1686-9.44-7.7837-11.9883-9.8838-1.2943-1.1357-2.6934-2.1082-4.3593-2.5793-3.3108-.9204-6.7109-1.5608-10.1253-2.0154-1.239-.0887-2.6284-.6488-3.6878.2065-.6689.5592-3.3226,4.3752-3.9502,5.0977h0Z" style="fill:#a7abae; stroke-width:0px;"/><path d="m218.5797,43.8992c14.142,11.3287,29.4704,24.0652,43.1925,35.8994-14.1439-11.3265-29.4685-24.0675-43.1925-35.8994h0Z" style="fill:#a7abae; stroke-width:0px;"/><polygon points="237.1061 63.0987 229.7708 57.1955 228.6281 57.9004 235.9634 63.8036 237.1061 63.0987" style="fill:none; stroke:#a7abae; stroke-miterlimit:10;"/><line x1="264.4789" y1="127.7423" x2="257.9067" y2="123.8968" style="fill:none; stroke:#a7abae; stroke-miterlimit:10; stroke-width:.5px;"/><polyline points="263.9584 130.0251 259.9862 130.0251 258.3747 128.8384 239.5987 128.8384" style="fill:none; stroke:#a7abae; stroke-miterlimit:10; stroke-width:.5px;"/><polyline points="261.1928 133.5697 259.9265 133.5697 253.1223 128.8384" style="fill:none; stroke:#a7abae; stroke-miterlimit:10; stroke-width:.5px;"/><polyline points="259.9862 130.0251 259.9862 128.1457 255.3129 125.2056" style="fill:none; stroke:#a7abae; stroke-miterlimit:10; stroke-width:.5px;"/><line x1="259.9862" y1="128.1457" x2="263.9584" y2="128.1457" style="fill:none; stroke:#a7abae; stroke-miterlimit:10; stroke-width:.5px;"/><path d="m259.1432,127.6154c-.234-.1472-14.2021,0-14.2021,0" style="fill:none; stroke:#a7abae; stroke-miterlimit:10; stroke-width:.5px;"/><line x1="257.1576" y1="127.5499" x2="253.9102" y2="125.5336" style="fill:none; stroke:#a7abae; stroke-miterlimit:10; stroke-width:.5px;"/><line x1="259.9265" y1="133.5697" x2="259.9265" y2="130.0251" style="fill:none; stroke:#a7abae; stroke-miterlimit:10; stroke-width:.5px;"/><path d="m254.7306,104.9057c1.8642,3.7967,5.6686,11.2266,2.9192,15.1304,1.2868-2.3868.3776-5.194-.2928-7.6383-.6364-2.2087-1.8397-5.2981-2.6263-7.4921h0Z" style="fill:#a7abae; stroke-width:0px;"/><path d="m246.358,110.7573c.1724.1146,1.3585.9188,1.4978,1.0116,0,0-.1704.2422-.1704.2422-.584.8303-1.1557,1.6696-1.7672,2.4803-1.2458.4681-2.4277,1.0804-3.7803,1.2947,1.0742-.809,2.3119-1.2329,3.4938-1.7882l-.1199.0966c.5464-.8206,1.1294-1.615,1.7004-2.4181l.0681.4031-1.213-.9153.2906-.4069h0Z" style="fill:#a7abae; stroke-width:0px;"/><rect x="172.4824" y="78.761" width="46.0973" height="17.0123" rx="1.7594" ry="1.7594" style="fill:none; stroke:#a7abae; stroke-miterlimit:10; stroke-width:.5px;"/><path d="m184.0617,74.2017c-.8654.8477-.2705,2.318.9409,2.3156,9.8619-.0193,38.9388-.0019,48.4489.0046.9995.0007,1.433-1.2597.6454-1.8751-3.3445-2.6135-9.2372-7.2207-11.415-8.9379-.5482-.4322-1.2214-.6637-1.9195-.6637h-26.0841c-.8131,0-1.5937.3187-2.1746.8876l-8.442,8.269Z" style="fill:none; stroke:#a7abae; stroke-miterlimit:10; stroke-width:.5px;"/><path d="m229.5822,76.5219s.964-.4957,0-1.4597-2.2214-1.7185-2.2214-1.7185c0,0-.964-.964-2.8921-.964h-23.0947c-.7964,0-1.8861.5126-3.3531,1.6814s-1.5927,2.0081-1.5927,2.4477" style="fill:none; stroke:#a7abae; stroke-miterlimit:10; stroke-width:.5px;"/><rect x="220.5803" y="78.761" width="19.9758" height="27.0845" rx="2.1528" ry="2.1528" style="fill:none; stroke:#a7abae; stroke-miterlimit:10; stroke-width:.5px;"/><rect x="221.588" y="81.1053" width="17.9605" height="23.3176" rx="2.3949" ry="2.3949" style="fill:none; stroke:#a7abae; stroke-miterlimit:10; stroke-width:.5px;"/><rect x="236.44" y="55.4404" width="8.2322" height="4.5457" rx="2.0421" ry="2.0421" transform="translate(83.645 -133.5378) rotate(37.1418)" style="fill:none; stroke:#a7abae; stroke-miterlimit:10; stroke-width:.5px;"/><rect x="237.9722" y="56.4622" width="5.1678" height="2.5019" rx="1.124" ry="1.124" transform="translate(83.645 -133.5378) rotate(37.1418)" style="fill:none; stroke:#a7abae; stroke-miterlimit:10; stroke-width:.5px;"/><path d="m231.5113,54.6472l6.128-2.1561s2.0989-.8007,3.2283.1245" style="fill:none; stroke:#a7abae; stroke-miterlimit:10; stroke-width:.5px;"/><path d="m245.6908,66.4325s.846-6.2622.9069-7.1458.1282-1.8732-.7527-2.5944" style="fill:none; stroke:#a7abae; stroke-miterlimit:10; stroke-width:.5px;"/><path d="m163.2741,115.3199h-76.9019s-8.2583,2.0992-13.7049,2.317c-1.1646.0466-2.2053.7422-2.7265,1.7847l-1.2061,2.4121c-.0614.1228-.0933.2582-.0933.3954v1.6676c0,.4105.2776.7658.6772.8596,3.4132.8012,18.819,4.4092,25.2462,5.7725h68.7092" style="fill:none; stroke:#000001; stroke-miterlimit:10;"/><path d="m68.6414,122.0205s18.6737,4.3938,25.9234,5.9316h68.7092" style="fill:none; stroke:#000001; stroke-miterlimit:10; stroke-width:.5px;"/><path d="m163.2741,115.3199h76.9019s8.2583,2.0992,13.7049,2.317c1.1646.0466,2.2053.7422,2.7265,1.7847l1.2061,2.4121c.0614.1228.0933.2582.0933.3954v1.6676c0,.4105-.2776.7658-.6772.8596-3.4132.8012-18.819,4.4092-25.2462,5.7725h-68.7092" style="fill:none; stroke:#000001; stroke-miterlimit:10;"/><path d="m257.9067,122.0205s-18.6737,4.3938-25.9234,5.9316h-68.7092" style="fill:none; stroke:#000001; stroke-miterlimit:10; stroke-width:.5px;"/><path d="m211.548,84.63c-.8059-.806-1.9156-1.3079-3.1575-1.3079h-3.2895c-1.5193,0-2.8535.766-3.6595,1.9288-.4756.7002-1.2286,1.136-2.0741,1.136h-6.9226c.0132.0529.0264.0926.0264.1455v2.4967c0,.0529-.0132.1058-.0264.1455v-2.7877c-.0528-.2245-.2642-.3961-.5152-.3961h-6.9358c-.251,0-.4624.1716-.5285.3961h-6.4205c-.3171,0-.5681.2513-.5681.5683v1.6778c0,.3038.251.5548.5681.5548h6.4205c.066.2245.2775.3964.5285.3964h6.9358c.251,0,.4491-.1719.5152-.3964h6.9226c.8323,0,1.5986.4361,2.0741,1.1231.8059,1.1756,2.1402,1.942,3.6595,1.942h3.2895c2.4705,0,4.4653-1.9949,4.4653-4.4655,0-1.2285-.502-2.3516-1.3079-3.1573Zm-2.7479,5.2844h-4.0954c-1.1758,0-2.127-.9512-2.127-2.1271s.9512-2.1268,2.127-2.1268h4.0954c1.1626,0,2.1138.9512,2.1138,2.1268s-.9512,2.1271-2.1138,2.1271Z" style="fill:#f2a900; stroke-width:0px;"/><rect x="202.5758" y="85.6631" width="8.3421" height="4.245" rx="1.6066" ry="1.6066" style="fill:none; stroke:#12171d; stroke-miterlimit:10;"/><rect x="184.4405" y="85.9904" width="8.0338" height="3.5905" rx=".4152" ry=".4152" style="fill:none; stroke:#12171d; stroke-miterlimit:10;"/><path d="m184.4666,89.1839h-6.4273c-.3052,0-.5566-.2513-.5566-.5566v-1.6786c0-.3142.2513-.5655.5566-.5655h6.4273" style="fill:none; stroke:#12171d; stroke-miterlimit:10;"/><path d="m208.394,83.3212h-3.2944c-1.523,0-2.8566.7679-3.6571,1.9346-.4738.6905-1.2343,1.1274-2.0718,1.1274h-6.9237v2.8007h6.9209c.8382,0,1.5991.4376,2.0728,1.1291.8003,1.1681,2.1346,1.9371,3.6589,1.9371h3.2945c2.4656,0,4.4644-1.9988,4.4644-4.4644h0c0-2.4657-1.9988-4.4645-4.4644-4.4645Z" style="fill:none; stroke:#12171d; stroke-miterlimit:10;"/><rect x="202.5758" y="85.6631" width="8.3421" height="4.245" rx="1.6066" ry="1.6066" style="fill:none; stroke:#141b21; stroke-miterlimit:10;"/><rect x="184.4405" y="85.9904" width="8.0338" height="3.5905" rx=".4152" ry=".4152" style="fill:none; stroke:#141b21; stroke-miterlimit:10;"/><path d="m184.4666,89.1839h-6.4273c-.3052,0-.5566-.2513-.5566-.5566v-1.6786c0-.3142.2513-.5655.5566-.5655h6.4273" style="fill:none; stroke:#141b21; stroke-miterlimit:10;"/><path d="m208.394,83.3212h-3.2944c-1.523,0-2.8566.7679-3.6571,1.9346-.4738.6905-1.2343,1.1274-2.0718,1.1274h-6.9237v2.8007h6.9209c.8382,0,1.5991.4376,2.0728,1.1291.8003,1.1681,2.1346,1.9371,3.6589,1.9371h3.2945c2.4656,0,4.4644-1.9988,4.4644-4.4644h0c0-2.4657-1.9988-4.4645-4.4644-4.4645Z" style="fill:none; stroke:#141b21; stroke-miterlimit:10;"/><polygon points="193.0577 34.5549 193.0577 58.8155 184.5964 58.8155 200.1352 75.5574 215.6741 58.8155 207.2128 58.8155 207.2128 34.5549 193.0577 34.5549" style="fill:#f2a900; stroke:#fff; stroke-miterlimit:10; stroke-width:1.5px;"/></svg>