<?xml version="1.0" encoding="UTF-8"?><svg xmlns="http://www.w3.org/2000/svg" width="218" height="180.6783" viewBox="0 0 218 180.6783"><g id="uuid-5fefbce8-8862-4351-81a9-21f01f2d8239"><path d="m-.6841,153.9127s19.2461-2.0486,23.3433-4.5069c4.0972-2.4583,7.5799-5.4288,7.5799-5.4288l13.6233-.717s6.7604.8194,13.4184,0c6.658-.8194,31.0365-4.0972,32.1632-4.7118,1.1267-.6146,11.5747-7.4774,12.9063-7.7847s91.0025-15.7317,115.6498-25.1081" style="fill:none; stroke:#a7abae; stroke-miterlimit:10; stroke-width:1.5px;"/><path d="m-.6841,112.6332c15.1489,6.4531,26.7236,11.3698,39.6298,11.1649,12.9063-.2049,13.9306-.3073,17.4132-.6146,3.4826-.3073,44.2293-3.8851,49.7813-4.9648,8.7066-1.6932,14.8524-7.6342,19.8715-8.4536,5.0191-.8194,63.2044-8.6142,91.9883-16.6931" style="fill:none; stroke:#a7abae; stroke-miterlimit:10;"/><path d="m-.6841,80.6748s16.6854,5.224,59.9111,5.4288h7.0677s3.4826,1.7413,10.5503,1.1267,108.4183-8.2336,142.6145-16.5986" style="fill:none; stroke:#a7abae; stroke-miterlimit:10;"/><path d="m-1.4119,87.3618c14.4427,3.3513,26.3247,5.8096,42.099,5.7072,15.7743-.1024,89.3399-3.1329,177.313-18.1167" style="fill:none; stroke:#a7abae; stroke-miterlimit:10; stroke-width:.5px;"/><path d="m-1.4119,115.8085c16.0304,6.4531,25.2491,9.7309,37.0286,10.1406s20.0764-.1024,27.9635-.717,73.7025-6.4037,154.4197-25.0004" style="fill:none; stroke:#a7abae; stroke-miterlimit:10; stroke-width:.5px;"/><path d="m43.8624,143.2599c7.5286-4.0972,13.2962-11.9646,12.9732-17.557l-.4767-2.5194" style="fill:none; stroke:#a7abae; stroke-miterlimit:10; stroke-width:.5px;"/><path d="m-.6841,120.0082c20.1168,6.8628,24.8286,8.6042,38.1446,8.809,13.316.2049,25.9149-.2177,47.5278-2.7208,21.6128-2.5031,90.1633-11.7082,133.0117-23.5014" style="fill:none; stroke:#a7abae; stroke-miterlimit:10; stroke-width:.5px;"/><path d="m54.9761,143.2599c6.9653-4.4045,9.5443-10.3167,11.6862-15.3502v-2.8951" style="fill:none; stroke:#a7abae; stroke-miterlimit:10; stroke-width:.5px;"/><path d="m17.3841,93.072c1.1933,8.3995,2.5067,16.7853,4.6094,25.0123-2.7535-8.0439-4.0829-16.5446-4.6094-25.0123h0Z" style="fill:#a7abae; stroke-width:0px;"/><path d="m-.6841,66.2799c14.6891,1.491,36.5057,2.3082,59.4501.9766,0,0,.5122-3.5851,4.8142-4.0972s88.9577-.8007,154.4197-10.5448" style="fill:none; stroke:#a7abae; stroke-miterlimit:10;"/><path d="m58.766,79.8554s-31.9152.8194-46.9132-1.2292l-14.998-2.0486" style="fill:none; stroke:#a7abae; stroke-miterlimit:10; stroke-width:.5px;"/><path d="m66.2947,86.1037s-7.0165-3.0729-7.5286-6.2483" style="fill:none; stroke:#a7abae; stroke-miterlimit:10;"/><path d="m-.6841,74.8363c18.273,2.0486,26.1645,2.3991,43.5265,2.8971,0,0,3.2222.3807,3.3247-2.8971s0-6.7951,0-6.7951" style="fill:none; stroke:#a7abae; stroke-miterlimit:10;"/><path d="m58.766,79.8554s-9.4752-1.3326-13.9578-2.5016" style="fill:none; stroke:#a7abae; stroke-miterlimit:10; stroke-width:.5px;"/><line x1="58.766" y1="67.2564" x2="58.766" y2="79.8554" style="fill:none; stroke:#a7abae; stroke-miterlimit:10;"/><line x1="58.766" y1="79.8554" x2="59.227" y2="86.1037" style="fill:none; stroke:#a7abae; stroke-miterlimit:10; stroke-width:.5px;"/><path d="m-1.4119,62.1335c20.3983,1.4988,41.7406,1.1938,62.2311.9059-20.7278.963-41.5672,1.2667-62.2311-.9059h0Z" style="fill:#a7abae; stroke-width:0px;"/><path d="m29.0036,0s.4802,15.3642,2.5712,32.2022c3.019,24.311,43.6271,23.9665,43.6193,1.4301-.0043-12.4386-2.2487-33.6322-2.2487-33.6322" style="fill:none; stroke:#a7abae; stroke-miterlimit:10;"/><path d="m2.3525,52.6145c46.1194,2.5836,92.3588,3.3407,138.5084,1.1425,21.3267-1.0494,47.7416-3.182,69.1171-4.8695,3.8911-.3959,9.9341-.7699,13.7734-1.4746-3.8437.7363-9.7904,1.1604-13.7625,1.5964-22.8856,2.052-46.1999,3.9117-69.1074,5.1641-46.1521,2.3254-92.4286,1.4216-138.529-1.5589h0Z" style="fill:#a7abae; stroke-width:0px;"/><path d="m87.2459,8.6711c.2206,3.8698,1.3736,22.1019,1.5464,25.5332-.4971,14.9841,18.4737,12.0761,28.5258,11.9558,34.068-1.4426,68.164-2.8608,102.1414-5.7962-37.3449,3.5469-74.8657,5.4394-112.3622,6.4441-8.7179.1508-19.0787-1.6558-18.5729-12.5862-.1932-3.3625-1.0915-21.8004-1.2786-25.5508h0Z" style="fill:#a7abae; stroke-width:0px;"/><path d="m73.429,4.9018c46.486,1.8199,127.1272.6723,144.571,0" style="fill:none; stroke:#a7abae; stroke-miterlimit:10; stroke-width:.5px;"/><path d="m107.0279,120.359c5.045-.6882,6.9845-1.2883,11.2244-4.6304s5.3752-5.6281,11.7747-6.5562" style="fill:none; stroke:#a7abae; stroke-miterlimit:10; stroke-width:.5px;"/><ellipse cx="27.1567" cy="105.2328" rx="3.2053" ry="3.5507" transform="translate(-77.6571 76.5012) rotate(-60.2004)" style="fill:none; stroke:#a7abae; stroke-miterlimit:10; stroke-width:.5px;"/><ellipse cx="27.1567" cy="105.2328" rx="1.6452" ry="1.8225" transform="translate(-77.6571 76.5012) rotate(-60.2004)" style="fill:none; stroke:#a7abae; stroke-miterlimit:10; stroke-width:.5px;"/><ellipse cx="129.5952" cy="97.2907" rx="3.5507" ry="3.2053" transform="translate(-27.5102 137.0185) rotate(-51.0877)" style="fill:none; stroke:#a7abae; stroke-miterlimit:10; stroke-width:.5px;"/><ellipse cx="91.1168" cy="104.6504" rx="6.6097" ry="5.9668" transform="translate(-46.4846 86.7667) rotate(-41.5496)" style="fill:#f2a900; stroke:#12171d; stroke-miterlimit:10; stroke-width:1.5px;"/><ellipse cx="129.5952" cy="97.2907" rx="1.8225" ry="1.6452" transform="translate(-27.5102 137.0185) rotate(-51.0877)" style="fill:none; stroke:#a7abae; stroke-miterlimit:10; stroke-width:.5px;"/><path d="m58.766,78.2974s3.948,3.3161,9.5038,3.2169,87.6947-4.7621,149.7301-15.1793" style="fill:none; stroke:#a7abae; stroke-miterlimit:10; stroke-width:.5px;"/><path d="m85.4465,75.4508l-10.3644.5776c-.9406.0488-1.8434-.6898-1.9636-1.6063h0c-.1514-1.1551.6493-2.0972,1.8348-2.1587l10.9176-.5148c.9004-.0462,1.6507.6818,1.6317,1.5832h0c-.0239,1.1361-.9212,2.0608-2.056,2.119Z" style="fill:none; stroke:#a7abae; stroke-miterlimit:10; stroke-width:.25px;"/><path d="m60.5283,72.8225l9.9921-.4712c.9004-.0462,1.6507.6818,1.6317,1.5832h0c-.0239,1.1361-.9212,2.0608-2.056,2.119l-9.405.5241" style="fill:none; stroke:#a7abae; stroke-miterlimit:10; stroke-width:.25px;"/><path d="m77.9042,80.2557l-10.1353.5648c-.9198.0477-1.8027-.6745-1.9201-1.5708h0c-.148-1.1296.635-2.0508,1.7942-2.111l10.6763-.5034c.8805-.0452,1.6142.6667,1.5956,1.5482h0c-.0234,1.111-.9008,2.0153-2.0106,2.0722Z" style="fill:none; stroke:#a7abae; stroke-miterlimit:10; stroke-width:.25px;"/><path d="m77.5673,70.9826l-10.0279.5453c-.9101.0459-1.794-.6857-1.9225-1.5912h0c-.1618-1.1412.601-2.0697,1.748-2.1276l10.5643-.482c.8712-.0434,1.6073.6774,1.6008,1.5676h0c-.0082,1.122-.8647,2.0331-1.9628,2.0879Z" style="fill:none; stroke:#a7abae; stroke-miterlimit:10; stroke-width:.25px;"/><path d="m86.6192,62.4874c.4.29.66.76.65,1.29-.01,1.12-.87,2.03-1.96,2.09l-10.03.54c-.91.05-1.79-.68-1.92-1.59-.02-.11-.02-.21-.02-.31,0-.79.46-1.44,1.17-1.69" style="fill:none; stroke:#a7abae; stroke-miterlimit:10; stroke-width:.25px;"/><path d="m71.3608,62.9336c.5743.2261.9871.7985.9822,1.4662h0c-.0082,1.122-.8647,2.0331-1.9628,2.0879l-10.0279.5453" style="fill:none; stroke:#a7abae; stroke-miterlimit:10; stroke-width:.25px;"/><path d="m100.476,74.341l-9.9512.5994c-.9031.0509-1.7708-.6716-1.887-1.5712h0c-.1465-1.1338.6213-2.0614,1.7595-2.1255l10.4824-.5395c.8645-.0481,1.5856.6643,1.5683,1.5495h0c-.0218,1.1157-.8824,2.0265-1.972,2.0872Z" style="fill:none; stroke:#a7abae; stroke-miterlimit:10; stroke-width:.25px;"/><path d="m93.2389,79.0828l-9.7313.5862c-.8831.0497-1.7316-.6567-1.8453-1.5364h0c-.1433-1.1088.6076-2.0158,1.7206-2.0785l10.2507-.5276c.8454-.0471,1.5506.6497,1.5336,1.5153h0c-.0214,1.091-.8629,1.9817-1.9284,2.0411Z" style="fill:none; stroke:#a7abae; stroke-miterlimit:10; stroke-width:.25px;"/><path d="m92.9059,69.978l-9.6281.5667c-.8738.0479-1.7233-.6678-1.8476-1.5565h0c-.1566-1.1201.575-2.0342,1.6763-2.0947l10.1433-.5062c.8365-.0454,1.544.6601,1.5387,1.5343h0c-.0067,1.1018-.8282,1.9992-1.8825,2.0563Z" style="fill:none; stroke:#a7abae; stroke-miterlimit:10; stroke-width:.25px;"/><path d="m101.9492,61.9974c.17.25.26.55.26.88,0,1.1-.82,2-1.88,2.05l-9.63.57c-.87.05-1.72-.67-1.84-1.56-.01-.1-.02-.21-.02-.3,0-.48.16-.9.46-1.22" style="fill:none; stroke:#a7abae; stroke-miterlimit:10; stroke-width:.25px;"/><path d="m115.0509,73.1744l-9.5381.6213c-.8656.0529-1.6981-.6534-1.8105-1.5361h0c-.1417-1.1125.5933-2.0256,1.6843-2.0923l10.0473-.5642c.8286-.0501,1.5206.6469,1.505,1.5159h0c-.0197,1.0953-.8436,1.9922-1.888,2.0554Z" style="fill:none; stroke:#a7abae; stroke-miterlimit:10; stroke-width:.25px;"/><path d="m108.119,77.853l-9.3272.6075c-.8465.0517-1.6605-.639-1.7705-1.5021h0c-.1386-1.0879.5802-1.9808,1.6471-2.046l9.8252-.5517c.8103-.049,1.487.6326,1.4717,1.4824h0c-.0193,1.071-.825,1.9482-1.8463,2.0099Z" style="fill:none; stroke:#a7abae; stroke-miterlimit:10; stroke-width:.25px;"/><path d="m107.7899,68.9164l-9.2284.5881c-.8375.0499-1.6526-.6498-1.7726-1.5218h0c-.1513-1.0991.5489-1.9988,1.6045-2.0617l9.7222-.5304c.8018-.0473,1.4807.6429,1.4765,1.5011h0c-.0052,1.0816-.7917,1.9652-1.8023,2.0248Z" style="fill:none; stroke:#a7abae; stroke-miterlimit:10; stroke-width:.25px;"/><path d="m116.6192,61.3974c.06.16.09.33.09.51-.01,1.09-.8,1.97-1.81,2.03l-9.23.59c-.83.05-1.65-.65-1.77-1.52-.01-.1-.02-.2-.02-.29,0-.29.06-.56.18-.8" style="fill:none; stroke:#a7abae; stroke-miterlimit:10; stroke-width:.25px;"/><path d="m129.1229,71.9652l-9.1249.6431c-.8281.055-1.6254-.6352-1.734-1.501h0c-.1368-1.0912.5653-1.9898,1.609-2.059l9.6122-.5889c.7927-.0521,1.4556.6295,1.4416,1.4823h0c-.0176,1.0748-.8049,1.9579-1.804,2.0236Z" style="fill:none; stroke:#a7abae; stroke-miterlimit:10; stroke-width:.25px;"/><path d="m122.496,76.5807l-8.9232.6289c-.8098.0537-1.5895-.6212-1.6956-1.4678h0c-.1338-1.0671.5528-1.9458,1.5735-2.0135l9.3997-.5759c.7752-.0509,1.4234.6156,1.4098,1.4495h0c-.0172,1.0511-.7871,1.9146-1.7641,1.9788Z" style="fill:none; stroke:#a7abae; stroke-miterlimit:10; stroke-width:.25px;"/><path d="m122.171,67.8124l-8.8286.6095c-.8013.0519-1.5819-.6319-1.6977-1.4872h0c-.146-1.078.5229-1.9633,1.5328-2.0288l9.3012-.5546c.767-.0492,1.4174.6257,1.4144,1.4678h0c-.0038,1.0614-.7552,1.9312-1.722,1.9932Z" style="fill:none; stroke:#a7abae; stroke-miterlimit:10; stroke-width:.25px;"/><path d="m130.6692,60.7174c.02.06.02.12.02.19,0,1.06-.75,1.93-1.72,1.99l-8.83.61c-.8.06-1.58-.63-1.7-1.48-.01-.1-.02-.19-.02-.28,0-.15.02-.29.05-.43" style="fill:none; stroke:#a7abae; stroke-miterlimit:10; stroke-width:.25px;"/><path d="m142.6435,70.7279l-8.7117.665c-.7906.057-1.5527-.617-1.6574-1.4659h0c-.132-1.0699.5373-1.954,1.5338-2.0258l9.177-.6136c.7568-.0541,1.3906.612,1.3783,1.4486h0c-.0155,1.0544-.7661,1.9236-1.72,1.9918Z" style="fill:none; stroke:#a7abae; stroke-miterlimit:10; stroke-width:.25px;"/><path d="m136.3218,75.2802l-8.5191.6503c-.7731.0557-1.5184-.6034-1.6208-1.4335h0c-.1291-1.0463.5255-1.9108,1.4999-1.981l8.9742-.6001c.7401-.0529,1.3599.5985,1.3478,1.4166h0c-.0152,1.0311-.7492,1.8811-1.682,1.9477Z" style="fill:none; stroke:#a7abae; stroke-miterlimit:10; stroke-width:.25px;"/><path d="m136.0007,66.6802l-8.4289.6308c-.765.0539-1.5112-.6139-1.6228-1.4525h0c-.1407-1.0569.4968-1.9279,1.461-1.9959l8.8801-.5788c.7323-.0511,1.3541.6085,1.3523,1.4346h0c-.0023,1.0412-.7187,1.8972-1.6417,1.9617Z" style="fill:none; stroke:#a7abae; stroke-miterlimit:10; stroke-width:.25px;"/><path d="m144.1292,59.9374c-.03,1.01-.74,1.84-1.64,1.9l-8.43.63c-.77.05-1.51-.61-1.62-1.45-.01-.1-.02-.21-.02-.3,0-.03,0-.06.01-.09" style="fill:none; stroke:#a7abae; stroke-miterlimit:10; stroke-width:.25px;"/><path d="m155.5644,69.4767l-8.2985.6868c-.7531.0591-1.48-.5989-1.5809-1.4309h0c-.1272-1.0486.5094-1.9182,1.4586-1.9926l8.7419-.6383c.721-.056,1.3256.5946,1.315,1.415h0c-.0134,1.034-.7273,1.8893-1.636,1.9599Z" style="fill:none; stroke:#a7abae; stroke-miterlimit:10; stroke-width:.25px;"/><path d="m149.5479,73.9658l-8.1151.6717c-.7365.0577-1.4473-.5856-1.546-1.3992h0c-.1243-1.0254.4981-1.8758,1.4263-1.9486l8.5486-.6242c.705-.0548,1.2963.5815,1.2859,1.3837h0c-.0131,1.0112-.7112,1.8476-1.5998,1.9166Z" style="fill:none; stroke:#a7abae; stroke-miterlimit:10; stroke-width:.25px;"/><path d="m149.2307,65.5341l-8.0291.6522c-.7287.056-1.4405-.596-1.5479-1.4178h0c-.1355-1.0358.4708-1.8924,1.3892-1.963l8.4591-.603c.6976-.0531,1.2908.5913,1.2902,1.4013h0c-.0008,1.021-.6822,1.8633-1.5615,1.9302Z" style="fill:none; stroke:#a7abae; stroke-miterlimit:10; stroke-width:.25px;"/><path d="m156.9492,59.0674c-.1.91-.74,1.63-1.55,1.69l-8.03.65c-.72.06-1.44-.59-1.54-1.41-.01-.06-.01-.12-.01-.17" style="fill:none; stroke:#a7abae; stroke-miterlimit:10; stroke-width:.25px;"/><path d="m167.8372,68.2259l-7.8853.7087c-.7156.0611-1.4074-.5807-1.5044-1.3958h0c-.1223-1.0273.4814-1.8824,1.3833-1.9594l8.3067-.6631c.6851-.058,1.2606.5772,1.2516,1.3814h0c-.0113,1.0136-.6885,1.855-1.552,1.9281Z" style="fill:none; stroke:#a7abae; stroke-miterlimit:10; stroke-width:.25px;"/><path d="m162.1258,72.6519l-7.711.693c-.6998.0597-1.3762-.5679-1.4711-1.3649h0c-.1196-1.0046.4707-1.8408,1.3527-1.9161l8.1231-.6484c.6699-.0567,1.2327.5644,1.224,1.3509h0c-.011.9912-.6733,1.814-1.5177,1.8855Z" style="fill:none; stroke:#a7abae; stroke-miterlimit:10; stroke-width:.25px;"/><path d="m161.8126,64.3884l-7.6294.6736c-.6924.058-1.3697-.578-1.473-1.3831h0c-.1302-1.0147.4448-1.857,1.3175-1.93l8.038-.6272c.6629-.055,1.2275.574,1.228,1.3681h0c.0006,1.0007-.6457,1.8293-1.4812,1.8986Z" style="fill:none; stroke:#a7abae; stroke-miterlimit:10; stroke-width:.25px;"/><path d="m169.1192,58.1174c-.12.84-.7,1.5-1.45,1.56l-7.63.68c-.69.06-1.37-.58-1.47-1.39v-.02" style="fill:none; stroke:#a7abae; stroke-miterlimit:10; stroke-width:.25px;"/><path d="m179.4136,66.9899l-7.4721.7306c-.6781.0631-1.3347-.5625-1.4279-1.3607h0c-.1175-1.006.4534-1.8466,1.3081-1.9262l7.8716-.6878c.6492-.06,1.1956.5597,1.1883,1.3478h0c-.0092.9932-.6498,1.8207-1.468,1.8963Z" style="fill:none; stroke:#a7abae; stroke-miterlimit:10; stroke-width:.25px;"/><path d="m174.0074,71.3527l-7.307.7144c-.6631.0618-1.3052-.5501-1.3963-1.3306h0c-.1149-.9838.4434-1.8058,1.2792-1.8836l7.6976-.6726c.6348-.0586,1.1691.5474,1.162,1.318h0c-.009.9712-.6354,1.7805-1.4355,1.8544Z" style="fill:none; stroke:#a7abae; stroke-miterlimit:10; stroke-width:.25px;"/><path d="m173.6981,63.2575l-7.2296.695c-.6562.06-1.299-.5601-1.3981-1.3484h0c-.1249-.9936.4187-1.8215,1.2457-1.8971l7.617-.6514c.6281-.0569,1.1642.5568,1.1659,1.3348h0c.0021.9805-.6092,1.7953-1.4009,1.8671Z" style="fill:none; stroke:#a7abae; stroke-miterlimit:10; stroke-width:.25px;"/><path d="m180.6192,57.0874c-.12.82-.67,1.47-1.38,1.53l-7.22.7c-.65.06-1.29-.55-1.39-1.33" style="fill:none; stroke:#a7abae; stroke-miterlimit:10; stroke-width:.25px;"/><path d="m190.2452,65.7829l-7.059.7524c-.6406.0652-1.262-.5443-1.3513-1.3256h0c-.1126-.9847.4254-1.8108,1.2328-1.893l7.4365-.7125c.6133-.0619,1.1305.5423,1.125,1.3141h0c-.007.9728-.611,1.7864-1.3839,1.8645Z" style="fill:none; stroke:#a7abae; stroke-miterlimit:10; stroke-width:.25px;"/><path d="m185.1441,70.0826l-6.9029.7358c-.6265.0638-1.2341-.5323-1.3215-1.2963h0c-.1101-.9629.416-1.7708,1.2056-1.8511l7.2721-.6967c.5997-.0606,1.1056.5303,1.1001,1.2851h0c-.0069.9513-.5975,1.747-1.3533,1.8233Z" style="fill:none; stroke:#a7abae; stroke-miterlimit:10; stroke-width:.25px;"/><path d="m184.8388,62.1557l-6.8299.7164c-.6199.062-1.2283-.5421-1.3232-1.3137h0c-.1196-.9726.3927-1.7861,1.174-1.8642l7.196-.6756c.5934-.0589,1.1009.5396,1.1038,1.3016h0c.0036.9603-.5727,1.7614-1.3206,1.8355Z" style="fill:none; stroke:#a7abae; stroke-miterlimit:10; stroke-width:.25px;"/><path d="m191.3692,55.9974c-.08.84-.62,1.52-1.3,1.59l-6.83.71c-.62.07-1.23-.54-1.32-1.31v-.03" style="fill:none; stroke:#a7abae; stroke-miterlimit:10; stroke-width:.25px;"/><path d="m200.2836,64.6193l-6.6458.7743c-.6031.0672-1.1893-.5262-1.2748-1.2905h0c-.1078-.9634.3974-1.775,1.1576-1.8597l7.0013-.7372c.5774-.0639,1.0655.5249,1.0616,1.2805h0c-.0049.9524-.5722,1.7522-1.2999,1.8327Z" style="fill:none; stroke:#a7abae; stroke-miterlimit:10; stroke-width:.25px;"/><path d="m195.4877,68.8558l-6.4989.7571c-.5898.0658-1.163-.5145-1.2466-1.262h0c-.1054-.9421.3886-1.7358,1.132-1.8186l6.8466-.7209c.5646-.0625,1.042.5133,1.0382,1.2522h0c-.0048.9313-.5596,1.7134-1.2712,1.7922Z" style="fill:none; stroke:#a7abae; stroke-miterlimit:10; stroke-width:.25px;"/><path d="m195.1863,61.0972l-6.4301.7378c-.5836.064-1.1576-.5241-1.2483-1.2791h0c-.1143-.9515.3666-1.7506,1.1022-1.8313l6.7749-.6998c.5587-.0608,1.0377.5224,1.0417,1.2683h0c.0051.9401-.5362,1.7274-1.2404,1.804Z" style="fill:none; stroke:#a7abae; stroke-miterlimit:10; stroke-width:.25px;"/><path d="m201.3492,54.8474c-.02.91-.56,1.67-1.24,1.75l-6.43.74c-.59.06-1.16-.53-1.25-1.28-.01-.06-.01-.12-.01-.17" style="fill:none; stroke:#a7abae; stroke-miterlimit:10; stroke-width:.25px;"/><path d="m209.4805,63.5134l-6.2326.7961c-.5657.0693-1.1166-.508-1.1983-1.2555h0c-.1029-.9421.3694-1.7392,1.0823-1.8265l6.5662-.7619c.5415-.0659,1.0005.5074.9983,1.2469h0c-.0028.932-.5334,1.7179-1.2159,1.8009Z" style="fill:none; stroke:#a7abae; stroke-miterlimit:10; stroke-width:.25px;"/><path d="m204.9898,67.6866l-6.0948.7785c-.5531.0678-1.0919-.4967-1.1718-1.2277h0c-.1006-.9213.3612-1.7007,1.0584-1.7862l6.421-.745c.5295-.0644.9784.4962.9762,1.2193h0c-.0028.9114-.5216,1.6799-1.189,1.7611Z" style="fill:none; stroke:#a7abae; stroke-miterlimit:10; stroke-width:.25px;"/><path d="m204.6923,60.0963l-6.0303.7592c-.5473.066-1.0869-.5062-1.1734-1.2444h0c-.1091-.9304.3406-1.7152,1.0304-1.7983l6.3539-.724c.524-.0627.9744.5052.9795,1.235h0c.0065.9199-.4997,1.6934-1.1601,1.7725Z" style="fill:none; stroke:#a7abae; stroke-miterlimit:10; stroke-width:.25px;"/><path d="m210.4392,53.6874c.01.06.02.13.02.2v.03c0,.9-.51,1.67-1.16,1.74l-6.03.76c-.55.07-1.09-.5-1.17-1.24-.01-.09-.02-.19-.02-.28,0-.05,0-.1.01-.14" style="fill:none; stroke:#a7abae; stroke-miterlimit:10; stroke-width:.25px;"/><path d="m217.7875,62.4793l-5.8194.818c-.5282.0713-1.044-.4898-1.1218-1.2204h0c-.0981-.9208.3414-1.7034,1.0071-1.7933l6.131-.7866c.5056-.0679.9355.49.9349,1.2132h0c-.0007.9115-.4947,1.6836-1.1319,1.7691Z" style="fill:none; stroke:#a7abae; stroke-miterlimit:10; stroke-width:.25px;"/><path d="m213.6019,66.5894l-5.6908.7999c-.5165.0698-1.0209-.479-1.097-1.1934h0c-.0959-.9004.3339-1.6657.9848-1.7537l5.9955-.7692c.4944-.0664.9148.4792.9143,1.1864h0c-.0007.8914-.4837,1.6463-1.1069,1.73Z" style="fill:none; stroke:#a7abae; stroke-miterlimit:10; stroke-width:.25px;"/><path d="m222.3066,65.3731l-5.6908.7999c-.5165.0698-1.0209-.479-1.097-1.1934h0c-.0959-.9004.3339-1.6657.9848-1.7537l5.9955-.7692c.4944-.0664.9148.4792.9143,1.1864h0c-.0007.8914-.4837,1.6463-1.1069,1.73Z" style="fill:none; stroke:#a7abae; stroke-miterlimit:10; stroke-width:.25px;"/><path d="m213.3084,59.1673l-5.6306.7806c-.511.068-1.0161-.4882-1.0985-1.2097h0c-.1038-.9093.3146-1.6797.9587-1.7654l5.9328-.7482c.4892-.0646.9111.4879.9174,1.2018h0c.008.8997-.4632,1.6594-1.0798,1.7409Z" style="fill:none; stroke:#a7abae; stroke-miterlimit:10; stroke-width:.25px;"/><path d="m222.292,57.9416l-5.6306.7806c-.511.068-1.0161-.4882-1.0985-1.2097h0c-.1038-.9093.3146-1.6797.9587-1.7654l5.9328-.7482c.4892-.0646.9111.4879.9174,1.2018h0c.008.8997-.4632,1.6594-1.0798,1.7409Z" style="fill:none; stroke:#a7abae; stroke-miterlimit:10; stroke-width:.25px;"/><path d="m217.6009,54.8013l-5.6306.7806c-.511.068-1.0161-.4882-1.0985-1.2097h0c-.0259-.2273-.0193-.446.0154-.6474" style="fill:none; stroke:#a7abae; stroke-miterlimit:10; stroke-width:.25px;"/></g><g id="uuid-5c0ac56d-9477-4b1f-b96f-b121c790d3b3"><polygon points="98.1943 157.2313 98.1943 132.9706 106.6556 132.9706 91.1168 116.2288 75.5779 132.9706 84.0392 132.9706 84.0392 157.2313 98.1943 157.2313" style="fill:#f2a900; stroke:#fff; stroke-miterlimit:10; stroke-width:1.5px;"/></g></svg>