<?xml version="1.0" encoding="UTF-8"?><svg xmlns="http://www.w3.org/2000/svg" width="161.7489" height="187.9002" xmlns:xlink="http://www.w3.org/1999/xlink" viewBox="0 0 161.7489 187.9002"><defs><clipPath id="uuid-6f3eb280-4af0-4f2d-afad-94d2ca4f2ca6"><rect x="5.6875" y="149.1675" width="67.7915" height="33.8157" style="fill:none;"/></clipPath></defs><g id="uuid-839ded00-ff41-4430-b829-d8cd7a47af18"><path d="m123.4594,38.7671c12.6199-2.5436,25.0088-4.8657,36.1505-6.8674" style="fill:none; stroke:#a7abae; stroke-linecap:round; stroke-linejoin:round;"/><path d="m10.2366,74.1256c-.7405-2.0355,3.6535-5.5808,19.5003-11.1999" style="fill:none; stroke:#a7abae; stroke-linecap:round; stroke-linejoin:round;"/><path d="m159.0958,142.3044c-13.5572-2.4163-51.8406-9.271-57.7751-10.6791-7.2333-1.7164-33.4693-10.666-48.0584-17.8993-14.5892-7.2333-33.2241-17.6541-35.5534-21.9451-2.3294-4.2909-8.0915-18.7575-9.3175-22.9258-1.226-4.1683-2.8198-7.2333-2.6972-10.1756s1.3486-8.2141,1.7164-9.5626,7.3559-9.8078,8.4593-10.9112c0,0-2.4536-18.0383-1.493-35.4163" style="fill:none; stroke:#a7abae; stroke-linecap:round; stroke-linejoin:round; stroke-width:1.5px;"/><path d="m53.2623,113.7259c23.3024,4.1623,69.6346,11.342,106.4443,16.9908" style="fill:none; stroke:#a7abae; stroke-linecap:round; stroke-linejoin:round; stroke-width:.5px;"/><path d="m8.7596,70.0158c3.4188-6.6891,20.4625-15.2109,70.6315-29.8722,25.0845-7.3306,54.7391-14.4551,78.7985-19.8729" style="fill:none; stroke:#a7abae; stroke-linecap:round; stroke-linejoin:round; stroke-width:.5px;"/><path d="m7.7902,66.9585c.2647-4.3649-2.2093-8.1218,16.4838-19.4843,0,0,1.5578-1.5578,4.3067.5498s4.3984,3.1155,6.5976,2.1076,31.1552-14.6612,79.9038-27.6731c0,0,5.2882-1.5578,7.0883-4.3984s5.5339-7.8804,6.5993-9.8963,4.3179-4.9482,8.3728-6.0478" style="fill:none; stroke:#a7abae; stroke-linecap:round; stroke-linejoin:round; stroke-width:.5px;"/><path d="m15.8698,38.2055C27.9306,27.3456,50.1375,13.9399,70.4279,3.1177" style="fill:none; stroke:#a7abae; stroke-linecap:round; stroke-linejoin:round; stroke-width:1.5px;"/><path d="m5.9617,61.2563c-1.0222-6.3599,13.5474-23.3119,64.8618-44.8457,12.7509-5.3508,24.6643-10.2377,35.5183-14.5903" style="fill:none; stroke:#a7abae; stroke-linecap:round; stroke-linejoin:round; stroke-width:.5px;"/><path d="m29.6967,62.817c9.8982-3.5098,24.3049-7.7198,44.6793-12.9851,15.1849-3.9242,32.3323-7.6884,49.0783-11.0637-1.1382,55.858,18.9824,65.6639,21.8394,68.1007s2.6889,3.7812-2.4265,3.5525c0,0-72.633-1.8966-77.7828-2.399-5.1498-.5024-25.3232-9.413-35.3877-45.2055,9.8982-3.5098,24.3049-7.7198,44.6793-12.9851,15.1849-3.9242,32.3323-7.6884,49.0783-11.0637" style="fill:#d3d5d6; stroke:#000001; stroke-linecap:round; stroke-linejoin:round;"/></g><g id="uuid-e383972d-533b-4335-8a6a-ab7dc56a6abe"><polygon points="66.1252 149.1675 66.1252 110.3609 53.0798 149.1675 5.6876 149.1675 5.6876 182.9832 73.4791 182.9832 73.4791 149.1675 66.1252 149.1675" style="fill:#fff; stroke:#12171d; stroke-linecap:round; stroke-linejoin:round; stroke-width:1.5px;"/><g style="clip-path:url(#uuid-6f3eb280-4af0-4f2d-afad-94d2ca4f2ca6);"><path d="m32.8359,162.5948c0,2.4843,3.0209,4.4983,6.7474,4.4983s6.7474-2.014,6.7474-4.4983v-.9518c0-2.4843-3.0209-4.4983-6.7474-4.4983s-6.7474,2.014-6.7474,4.4983v.9518Z" style="fill:#f2a900; stroke:#12171d; stroke-miterlimit:10; stroke-width:1.5px;"/><path d="m-21.1131,142.4505s11.4051,14.9237,14.4384,18.4423,11.2838,12.2544,27.9061,12.2544h76.8026" style="fill:none; stroke:#000001; stroke-miterlimit:10; stroke-width:1.5px;"/><path d="m-20.0165,141.13s11.3001,14.7864,14.3055,18.2726c3.0054,3.4862,11.1799,12.1416,27.6493,12.1416h76.0957" style="fill:none; stroke:#000001; stroke-miterlimit:10; stroke-width:.5px;"/><path d="m39.5833,168.9938c-13.321.1226-13.1268-12.9684.0001-13.2973,13.1326.3275,13.3186,13.4248-.0002,13.2974,12.0929-.7687,12.3047-11.9613,0-12.2987-12.31.3357-12.0906,11.5349.0001,12.2986h0Z" style="fill:#000001;"/><line x1="32.8359" y1="162.1189" x2="46.3307" y2="162.1189" style="fill:none; stroke:#12171d; stroke-miterlimit:10;"/><line x1="32.9385" y1="163.5258" x2="46.4334" y2="163.5258" style="fill:none; stroke:#12171d; stroke-miterlimit:10; stroke-width:.5px;"/><path d="m32.8359,162.5948c0-2.4843,3.0209-4.4983,6.7474-4.4983s6.7474,2.014,6.7474,4.4983" style="fill:none; stroke:#12171d; stroke-miterlimit:10; stroke-width:.5px;"/><line x1="47.9404" y1="163.0383" x2="63.2556" y2="163.0383" style="fill:none; stroke:#f2a900; stroke-miterlimit:10;"/><line x1="16.3163" y1="176.2252" x2="63.2556" y2="176.2252" style="fill:none; stroke:#f2a900; stroke-miterlimit:10;"/><line x1="16.3163" y1="163.0383" x2="31.6314" y2="163.0383" style="fill:none; stroke:#f2a900; stroke-miterlimit:10;"/></g><path d="m132.5074,105.6572c-.31-.51-.91-1.05-1.7-1.56-.14-.1-.3-.19-.46-.28-.48-.27-1.0099-.53-1.58-.75-.59-.23-1.17-.41-1.72-.53-.16-.04-.32-.07-.48-.1-.92-.17-1.73-.17-2.31-.01-.43.12-.73.33-.85.64-.3.77.6801,1.92,2.32,2.86l-.3.78c-1.06-.17-1.88-.01-2.07.46l-.19.48-.1.26c-.27.7.95,1.83,2.74,2.53,1.79.7,3.46.7,3.73,0l.02-.05.27-.69c.18-.45-.28-1.09-1.11-1.67l.3101-.8c1.86.43,3.37.26,3.67-.52.12-.31.04-.66-.19-1.05Z" style="fill:#f2a900;"/><path d="m129.0227,107.2279c1.86.4295,3.371.2553,3.6765-.5245.1184-.3028.0415-.6604-.1922-1.0424-.3116-.5094-.9063-1.0583-1.6967-1.5659-.1478-.0951-.3017-.1889-.4632-.281-.4772-.2717-1.0086-.5272-1.5794-.7505-.7626-.2995-1.5111-.5093-2.1977-.63-.924-.1633-1.7342-.1653-2.3104-.0041-.4313.1211-.7302.3325-.8485.6354-.3034.7746.6743,1.9216,2.3154,2.8668" style="fill:none; stroke:#12171d; stroke-linecap:round; stroke-linejoin:round;"/><path d="m129.5378,110.4399c-.2741.6999-1.9441.7002-3.7299.0007s-3.0114-1.8339-2.7373-2.5337l.2894-.7389c.2741-.6999,1.9441-.7002,3.7299-.0007s3.0073,1.8323,2.7372,2.5337l-.2894.7389Z" style="fill:none; stroke:#12171d; stroke-linecap:round; stroke-linejoin:round;"/><line x1="130.3441" y1="103.8195" x2="128.7156" y2="108.0224" style="fill:none; stroke:#12171d; stroke-linecap:round; stroke-linejoin:round;"/><line x1="127.0331" y1="102.5876" x2="125.4248" y2="106.7065" style="fill:none; stroke:#12171d; stroke-linecap:round; stroke-linejoin:round;"/><path d="m129.6726,105.5499c1.1417.2644,2.1524.3009,2.8344.1111" style="fill:none; stroke:#12171d; stroke-linecap:round; stroke-linejoin:round;"/><path d="m124.2596,102.4294c.3668.5968,1.1203,1.248,2.122,1.8262" style="fill:none; stroke:#12171d; stroke-linecap:round; stroke-linejoin:round;"/><path d="m123.2325,107.6765c.7141.6688,4.3167,2.3089,6.2551,2.6844" style="fill:none; stroke:#12171d; stroke-linecap:round; stroke-linejoin:round; stroke-width:.5px;"/><path d="m70.8249,103.6878c-.2604-.4284-.7644-.882-1.4279-1.3103-.1176-.084-.252-.1596-.3864-.2352-.4031-.2268-.8483-.4452-1.327-.6299-.4956-.1932-.9828-.3444-1.4447-.4452-.1344-.0336-.2688-.0588-.4032-.084-.7727-.1428-1.4531-.1428-1.9402-.0084-.3611.1008-.6131.2772-.7139.5376-.252.6467.5712,1.6127,1.9486,2.4022l-.0527.1369c.5137.2031,1.0617.3298,1.59.4766.4475.1243.8975.2794,1.3089.493,1.5272.3392,2.7603.1931,3.0081-.4514.1008-.2604.0336-.5543-.1595-.8819Z" style="fill:#d3d5d6;"/><path d="m67.8979,105.0071c1.5623.3608,2.8314.2144,3.088-.4406.0994-.2543.0349-.5547-.1614-.8756-.2617-.4279-.7612-.8889-1.4251-1.3153-.1241-.0799-.2534-.1586-.3891-.2361-.4008-.2282-.8471-.4429-1.3266-.6304-.6405-.2516-1.2692-.4278-1.8459-.5291-.7761-.1372-1.4566-.1389-1.9405-.0035-.3623.1017-.6133.2793-.7127.5337-.2548.6506.5664,1.614,1.9448,2.4079" style="fill:none; stroke:#12171d; stroke-linecap:round; stroke-linejoin:round;"/><path d="m69.1995,105.0551c-.2159.5512-1.531.5514-2.9374.0006s-2.3715-1.4442-2.1557-1.9954l.2279-.5819c.2159-.5512,1.531-.5514,2.9374-.0006s2.3683,1.443,2.1557,1.9954l-.2279.5819Z" style="fill:#f2a900; stroke:#12171d; stroke-linecap:round; stroke-linejoin:round;"/><path d="m64.429,103.9035c.7213.271,3.4247.3766,4.948.0647" style="fill:none; stroke:#12171d; stroke-linecap:round; stroke-linejoin:round; stroke-width:.5px;"/></g><g id="uuid-cbd374cb-afed-4aef-9998-64d7c35ebf19"><path d="m116.4686,153.6738c.5756.9614.7696,1.9591.4566,2.8684l-8.3659,23.5128c-1.0294,3.0047-4.9914,4.3723-8.8565,3.0617-3.8548-1.3203-6.1598-4.8159-5.1405-7.821l8.554-23.456c.3245-.9489,1.1401-1.6398,2.2553-2.0398,1.6021-.5824,3.8225-.5521,6.0764.2099,2.3132.7842,4.1238,2.1806,5.0208,3.664Z" style="fill:#fff;"/><path d="m116.7105,140.3539c2.8486,1.474,4.5028,3.8754,3.8316,5.8324l-1.4488,4.6406c-.436,1.2651-1.382,2.2415-2.6247,2.8469-.8969-1.4834-2.7076-2.8798-5.0208-3.664-2.2539-.762-4.4743-.7923-6.0764-.2099l-.0178-.0607c-.5373-1.1902-.6609-2.4755-.2474-3.6713l1.6269-4.5842c.7052-2.0658,3.7587-2.936,7.1229-2.1638.3972.0844.8033.1992,1.2087.3339.5831.2012,1.1351.4313,1.6458.7Z" style="fill:#fff;"/><path d="m122.5648,114.6288l1.7757-2.3373,1.5131.4951-.3639,2.5885-8.7792,24.9788c-.5106-.2686-1.0627-.4988-1.6458-.7-.4054-.1348-.8115-.2495-1.2087-.3339l.0004-.01,8.7084-24.6812Z" style="fill:#fff;"/><path d="m100.0537,182.0993c1.239.422,2.4505.1558,2.7061-.5945.2556-.7504-.5416-1.7008-1.7806-2.1227-1.239-.422-2.4505-.1558-2.7061.5946-.2556.7503.5416,1.7007,1.7806,2.1227Z" style="fill:none; stroke:#000001; stroke-linecap:round; stroke-linejoin:round; stroke-width:.5px;"/><path d="m108.7123,177.3815c-.0306-.0963-.0653-.1927-.104-.2889" style="fill:none; stroke:#000001; stroke-linecap:round; stroke-linejoin:round; stroke-width:.5px;"/><path d="m99.8713,172.0833c-.865-.0258-1.6745.0641-2.387.2605" style="fill:none; stroke:#000001; stroke-linecap:round; stroke-linejoin:round; stroke-width:.5px;"/><path d="m105.2731,173.6433c-.6339-.3649-1.3343-.6839-2.0872-.9403-.151-.0514-.3019-.0996-.4524-.1445" style="fill:none; stroke:#000001; stroke-linecap:round; stroke-linejoin:round; stroke-width:.5px;"/><path d="m108.6084,177.0925c-.2378-.5915-.6262-1.1797-1.1404-1.7346" style="fill:none; stroke:#000001; stroke-linecap:round; stroke-linejoin:round; stroke-width:.5px;"/><path d="m109.1582,149.4774s-.8338.0351-1.1074.8313-7.9442,21.8671-7.9442,21.8671c0,0-.1758,2.31.339,2.9958.8037-.5363,1.6445-2.0052,1.9335-2.8253.2891-.8201,7.9812-21.6392,7.9812-21.6392,0,0,.2183-.9629-.0547-1.0229" style="fill:none; stroke:#000001; stroke-linecap:round; stroke-linejoin:round; stroke-width:.5px;"/><path d="m114.3008,151.445s-.4307.0989-.5801.4354c-.1494.3365-8.302,22.2385-8.302,22.2385,0,0-.7792,3.0237-.4666,3.1277.3127.104,1.9281-1.0752,2.371-2.1449.4429-1.0697,7.894-21.6743,7.894-21.6743,0,0,.0682-.9287-.2531-1.4717" style="fill:none; stroke:#000001; stroke-linecap:round; stroke-linejoin:round; stroke-width:.5px;"/><path d="m108.7382,179.5444c-1.0391.8707-1.7902.9655-1.463.5858s.9913-1.4143,1.3874-2.4488c.3961-1.0346,8.0775-22.0466,8.0775-22.0466,0,0,.2297-1.0633-.0741-1.5956" style="fill:none; stroke:#000001; stroke-linecap:round; stroke-linejoin:round; stroke-width:.5px;"/><path d="m105.7528,149.6737s-.5001.4782-.6393.9178-8.2595,22.2959-8.2595,22.2959c0,0-.669,2.3329-.5376,2.7033-.1015-.1352-.9894-1.3011-.6576-2.2874.3319-.9862,8.13-22.1552,8.13-22.1552,0,0,.3929-.7776.777-.9778" style="fill:none; stroke:#000001; stroke-linecap:round; stroke-linejoin:round; stroke-width:.5px;"/><path d="m119.2482,148.1549c-.0306-.0963-.0653-.1927-.104-.2889" style="fill:none; stroke:#000001; stroke-linecap:round; stroke-linejoin:round; stroke-width:.5px;"/><path d="m110.4072,142.8567c-.865-.0258-1.6745.0641-2.387.2605" style="fill:none; stroke:#000001; stroke-linecap:round; stroke-linejoin:round; stroke-width:.5px;"/><path d="m115.8089,144.4166c-.6339-.3649-1.3343-.6839-2.0872-.9403-.151-.0514-.3019-.0996-.4525-.1445" style="fill:none; stroke:#000001; stroke-linecap:round; stroke-linejoin:round; stroke-width:.5px;"/><path d="m119.1442,147.8659c-.2378-.5915-.6262-1.1797-1.1404-1.7346" style="fill:none; stroke:#000001; stroke-linecap:round; stroke-linejoin:round; stroke-width:.5px;"/><path d="m112.7775,139.1178s-.8339.0352-1.1074.8313c-.2736.7961-1.0276,3.0001-1.0276,3.0001,0,0-.1758,2.31.339,2.9958.8037-.5363,1.6444-2.0051,1.9335-2.8253.2891-.8201,1.0646-2.7722,1.0646-2.7722,0,0,.2183-.9629-.0547-1.0229" style="fill:none; stroke:#000001; stroke-linecap:round; stroke-linejoin:round; stroke-width:.5px;"/><path d="m117.9201,141.0854s-.4307.0989-.5801.4355c-.1495.3366-1.3855,3.3714-1.3855,3.3714,0,0-.7792,3.0237-.4666,3.1277.3126.104,1.9281-1.0752,2.371-2.1449.4429-1.0697.9775-2.8073.9775-2.8073,0,0,.0681-.9287-.2531-1.4718" style="fill:none; stroke:#000001; stroke-linecap:round; stroke-linejoin:round; stroke-width:.5px;"/><path d="m119.2741,150.3178c-1.0391.8707-1.7902.9654-1.463.5858.3272-.3796.9913-1.4142,1.3874-2.4488.3961-1.0346,1.161-3.1796,1.161-3.1796,0,0,.2297-1.0633-.0741-1.5956" style="fill:none; stroke:#000001; stroke-linecap:round; stroke-linejoin:round; stroke-width:.5px;"/><path d="m109.3721,139.3142s-.5002.4782-.6393.9177c-.1392.4396-1.3429,3.4289-1.3429,3.4289,0,0-.669,2.3328-.5376,2.7033-.1015-.1353-.9894-1.3012-.6576-2.2874.3319-.9863,1.2134-3.2882,1.2134-3.2882,0,0,.3929-.7776.777-.9778" style="fill:none; stroke:#000001; stroke-linecap:round; stroke-linejoin:round; stroke-width:.5px;"/><path d="m116.9268,156.5446c.7866-2.3094-1.667-5.2344-5.4802-6.5333-3.8132-1.2988-7.5421-.4795-8.3287,1.8299l-8.5517,23.4502c-1.0238,3.0059,1.278,6.5092,5.1412,7.825,3.8632,1.3158,7.8249-.0542,8.8486-3.06l8.3709-23.5118Z" style="fill:none; stroke:#000001; stroke-miterlimit:10;"/><path d="m116.4684,153.6755c1.2433-.6074,2.193-1.582,2.6233-2.8457l1.4543-4.6448c.7866-2.3094-1.667-5.2345-5.4802-6.5333-3.8133-1.2988-7.5421-.4796-8.3288,1.8299l-1.6352,4.5832c-.4091,1.2013-.2871,2.4821.2535,3.6709" style="fill:none; stroke:#000001; stroke-miterlimit:10;"/><polyline points="116.7151 140.3572 125.4935 115.3722 125.4935 115.3722 125.8511 112.782 124.3385 112.2904 122.5611 114.6301 122.5611 114.6301 113.8574 139.3079" style="fill:none; stroke:#000001; stroke-miterlimit:10;"/><path d="m111.1641,122.7902c2.3043-1.7181,6.1369-2.2138,10.0303-1.0305,3.8914,1.1827,6.799,3.7252,7.759,6.4335" style="fill:none; stroke:#f2a900; stroke-miterlimit:10; stroke-width:1.5px;"/><polygon points="113.5245 123.8139 109.2013 125.4899 109.9108 120.9078 113.5245 123.8139" style="fill:#f2a900;"/><polygon points="126.424 127.7345 129.0835 131.5327 131.0437 127.3307 126.424 127.7345" style="fill:#f2a900;"/></g></svg>