<?xml version="1.0" encoding="UTF-8"?><svg id="uuid-af69f8b7-84e2-4566-aee2-def4e49387e0" xmlns="http://www.w3.org/2000/svg" width="39" height="39" viewBox="0 0 39 39"><circle cx="19.5" cy="19.5" r="18.4757" style="fill:#f2a900;"/><path d="m21.826,26.8105l-.0066,5.2647h-4.0373l.0421-4.9136,4.0018-.3511h0Zm-11.3514-6.0406c3.8151-.1677,7.6279-.4174,11.4421-.6235,1.2236-.0661,4.7865-.4904,5.6625-.0948.5464.2466,3.6425,1.7774,3.8683,1.9839l-4.4208,3.5886c-.4982.2575-15.758.9409-16.4367.9684l-.1154-5.8225h0Zm7.4321-3.2024h3.2192l.002,1.7766-3.225.2431.0037-2.0198h0Zm-10.3444-4.2195c.5998-.3883,1.2632-.8107,1.8898-1.1708.6375-.3662,1.2126-.7722,1.8359-1.121.6686-.3742,4.1019.1518,5.2015.2486,3.6479.3217,7.3183.695,10.9754.9604l-.0258,4.6727-14.7306.0037c-.7376.0074-.7116.1001-1.1925-.3029l-3.9537-3.2909h0Zm10.3895-2.9037c0-1.2459-.2065-2.8046.8861-3.1644,1.0762-.3542,2.2306.7269,2.8208,1.0915l-.0232,2.4412-3.6838-.3683h0ZM2.4092,21.1035c.8916,8.8961,8.6161,16.3064,18.5901,15.4823,8.9642-.7405,16.5052-8.6815,15.6338-18.6503-.7847-8.9787-8.7036-16.4575-18.7163-15.5795C9.0481,3.1336,1.411,11.1456,2.4092,21.1035h0Z" style="fill:#141b21; fill-rule:evenodd;"/><path d="m2.4092,21.1035C1.411,11.1456,9.0481,3.1336,17.9168,2.3561c10.0128-.878,17.9316,6.6008,18.7163,15.5795.8714,9.9688-6.6697,17.9097-15.6338,18.6503-9.9739.8241-17.6984-6.5862-18.5901-15.4823h0Zm-2.0884-1.7704c0,6.0066,2.563,10.6349,5.6356,13.7206.4478.4496.784.6949,1.2396,1.121.3592.3361.9099.7258,1.3385,1.0221,5.3781,3.7172,12.7936,4.6819,18.8551,1.763,2.4045-1.1578,3.9349-2.1874,5.7129-3.9651,1.5514-1.5516,3.0253-3.5543,3.9591-5.7191.5044-1.1701.8791-2.2796,1.1929-3.6462.1803-.786.2363-1.2862.3248-2.1535.1229-1.2038.0228-1.3547.0999-2.2606h0c0-4.645-1.6592-8.5328-4.2986-11.871-.3548-.4484-.7052-.8691-1.1005-1.2598C30.0956,2.9356,25.3689.3312,20.5033.3312c-2.4747,0-3.5809-.0706-6.0877.6397-2.5113.7119-5.6374,2.2199-7.5162,4.0503-.8506.8287-1.3869,1.2118-2.263,2.3398C1.9878,10.7707.3208,14.5794.3208,19.3331H.3208Z" style="fill:#f2a900; fill-rule:evenodd;"/><path d="m10.4746,20.7699l.1154,5.8225c.6787-.0274,15.9386-.7109,16.4367-.9684l4.4208-3.5886c-.2258-.2064-3.3219-1.7373-3.8683-1.9839-.876-.3956-4.4388.0288-5.6625.0948-3.8142.2061-7.627.4558-11.4421.6235h0Z" style="fill:#f2a900; fill-rule:evenodd;"/><path d="m7.5623,13.3481l3.9537,3.2909c.4809.403.4549.3103,1.1925.3029l14.7306-.0037.0258-4.6727c-3.6571-.2654-7.3276-.6388-10.9754-.9604-1.0996-.0968-4.5329-.6228-5.2015-.2486-.6233.3487-1.1984.7547-1.8359,1.121-.6266.3601-1.2901.7824-1.8898,1.1708h0Z" style="fill:#f2a900; fill-rule:evenodd;"/><polygon points="17.8242 27.1616 17.7821 32.0752 21.8193 32.0752 21.826 26.8105 17.8242 27.1616 17.8242 27.1616" style="fill:#f2a900; fill-rule:evenodd;"/><path d="m17.9517,10.4444l3.6838.3683.0232-2.4412c-.5902-.3646-1.7446-1.4458-2.8208-1.0915-1.0926.3598-.8861,1.9185-.8861,3.1644h0Z" style="fill:#f2a900; fill-rule:evenodd;"/><polygon points="17.903 19.5873 21.1279 19.3442 21.1259 17.5675 17.9067 17.5675 17.903 19.5873 17.903 19.5873" style="fill:#f2a900; fill-rule:evenodd;"/></svg>