<?xml version="1.0" encoding="UTF-8"?><svg id="uuid-46aff178-3772-429c-91b2-5df15deccc69" xmlns="http://www.w3.org/2000/svg" width="436" height="172.3961" viewBox="0 0 436 172.3961"><path d="m13.1446,199.2425C26.618,137.4823,51.8009,48.0907,94.8708,27.9443c22.9351-10.7281,50.8704-12.1269,50.8704-12.1269,17.9003-1.0299,49.7681-1.2954,73.4844-1.2954" style="fill:none; stroke:#a7abae; stroke-miterlimit:10;"/><path d="m94.4582,172.0927c4.1346-38.1053,8.8391-76.2693,17.3951-113.6719.4749-2.8409,2.7384-3.1985,5.2261-3.0264,1.6704.0402,9.3875-.1108,10.9027.0549,1.1841.2545,2.0853,1.3823,2.077,2.5919-.0948,1.1286-.4001,2.1472-.5532,3.2563,0,0-3.0484,17.0864-3.0484,17.0864-5.6507,34.0997-8.9436,69.0253-11.2929,103.5146,0,0-.8363,17.3442-.8363,17.3442l.7142-17.3511c2.0981-34.5245,5.4251-69.4496,10.9621-103.582,0,0,3.0121-17.1106,3.0121-17.1106.1497-1.0393.452-2.1336.5515-3.1553.009-.9862-.728-1.9163-1.6941-2.1235-1.3499-.1386-9.2643-.0299-10.7947-.0692-2.2387-.1211-4.3644-.0034-4.7966,2.6723-8.6555,37.3645-13.3618,75.5152-17.8246,113.5692h0Z" style="fill:#a7abae; stroke-width:0px;"/><path d="m143.0782,17.2128c-2.0999,2.375-3.3091,5.3623-4.4637,8.27-1.9889,4.9854-3.354,10.6428-4.797,15.8201-.2356,1.6601-1.8654,3.0185-3.5564,2.8678,0,0-2.3659.0106-2.3659.0106l-4.7319.021c-.7656-.0054-2.8043-.0095-3.5489-.0147-2.551.1191-3.6104-2.3528-2.4685-4.4551,2.5005-6.7392,8.4452-20.8441,16.1422-22.29-7.6355,1.5814-13.8056,16.699-16.1283,23.5289-.3984,1.4847.9332,2.9415,2.4546,2.7467,0,0,1.1829-.0053,1.1829-.0053,1.4924-.0164,5.5517.003,7.0979.0115,1.2877-.0694,3.4035.3349,4.4426-.6233,1.1097-.8048,1.2468-2.7157,1.7445-4.1714,1.238-4.422,2.5608-9.3044,4.3062-13.5364,1.2379-2.8845,2.5242-5.8647,4.6897-8.1804h0Z" style="fill:#a7abae; stroke-width:0px;"/><path d="m95.1047,173.1345c4.1611-38.2066,8.9057-76.4829,17.6252-113.9563.247-1.3879,1.5228-2.5068,2.932-2.5522,0,0,4.1229.0078,4.1229.0078,0,0,8.2409.0308,8.2409.0308,0,0-8.2409.0305-8.2409.0305,0,0-4.1177.0227-4.1177.0227-1.369.0574-2.5882,1.1414-2.8179,2.489-8.5981,37.4962-13.276,75.7577-17.7444,113.9277h0Z" style="fill:#a7abae; stroke-width:0px;"/><path d="m117.6518,41.7692c2.7779-7.8868,6.2562-16.5032,12.9212-21.8883,1.0031-.6947,2.1299-1.2994,3.3618-1.3966-7.6714,1.6594-13.6921,16.4786-16.2829,23.2849h0Z" style="fill:#a7abae; stroke-width:0px;"/><path d="m165.7282,199.2428c.3851-43.5829,2.8821-87.5326,5.9197-130.9878.0004,0,.7635-9.3376.7635-9.3376l.0957-1.1672c.0734-1.3114,1.2834-2.4154,2.5956-2.3715,0,0,4.6834-.0052,4.6834-.0052l4.6834.0042c.8064-.0643,1.7765.2715,2.2435,1.0037.5353.6927.4275,1.6156.3831,2.4116,0,0-.4282,9.3554-.4282,9.3554-1.5016,37.1559-2.1638,75.1805-2.5029,112.3633-.0133,6.2434-.1363,12.4907.0832,18.7312-.2603-6.2397-.1781-12.4878-.2056-18.7317.0847-37.1912.7833-75.2167,2.1667-112.3818,0,0,.4073-9.3594.4073-9.3594.0218-.7426.1685-1.492-.3003-2.1089-.4108-.5835-1.0856-.8601-1.8469-.793l-4.6834.0042s-4.6834-.0051-4.6834-.0051c-.7066-.0103-1.4005.3464-1.7806.9402-.3794.5014-.3756,1.5439-.4344,2.1517,0,0-.7836,9.3319-.7836,9.3319-2.8873,37.1946-4.6413,74.9131-6.0128,112.2253-.124,5.3131-.5181,13.4325-.363,18.7266h0Z" style="fill:#a7abae; stroke-width:0px;"/><path d="m191.6182,15.8129c-1.0251,1.0139-1.0912,2.6696-1.4322,4.0131-.7458,4.2736-1.1203,8.6022-1.4846,12.9232-.2228,2.884-.4447,5.7686-.6287,8.6558.007.7368-.2535,1.6011-.852,2.1106-.5604.5529-1.4422.7274-2.1745.6757,0,0-4.3414.0113-4.3414.0113l-4.3523-.0164c-1.8527-.1151-2.5269-1.8723-2.1198-3.4878.3419-2.8752.6948-5.7502,1.1309-8.6142.5641-2.8889,2.0515-15.708,4.8543-16.2714-2.6752.4876-3.9549,13.5236-4.4737,16.3255-.375,2.8678-.7414,5.7369-1.0595,8.6122-.3207,1.3598.0943,2.8574,1.6899,2.9585,0,0,4.3302-.0058,4.3302-.0058l4.3415.0115c.712.0374,1.3401-.0632,1.8608-.543.5023-.4536.7123-1.0693.7125-1.7971.2065-2.8879.4174-5.7764.7005-8.6587.4333-4.3205.8601-8.6565,1.7468-12.9133.3811-1.3414.4923-2.9988,1.5513-3.9895h0Z" style="fill:#a7abae; stroke-width:0px;"/><path d="m166.2654,200.2428c.0613-25.6526,1.5356-52.6456,2.6872-78.2378,1.1387-21.1653,2.4614-42.3478,4.3371-63.4638.1977-1.2779,1.4937-2.0914,2.7356-1.9359,0,0,1.2233.0019,1.2233.0019,0,0,4.8932.0078,4.8932.0078,0,0,2.4466.0039,2.4466.0039.8041-.0353,1.6926.0046,2.2663.6585-.579-.6434-1.4598-.6938-2.2663-.6506,0,0-2.4466.0038-2.4466.0038l-4.8932.0081c-.716.031-1.7485-.1006-2.4238.1413-.7658.2686-1.3573.969-1.4887,1.7693-1.8082,21.1197-3.0603,42.3027-4.1343,63.4688-1.2333,25.5808-2.794,52.5849-2.9364,78.2249h0Z" style="fill:#a7abae; stroke-width:0px;"/><path d="m174.8965,42.5915c.4013-4.4702.9853-8.9219,1.6589-13.3608.3745-2.2136.7907-4.4219,1.3195-6.6057.5186-1.8644.888-3.9207,2.143-5.4537.1884-.2028.4498-.3784.7376-.3584-.2881-.0088-.5365.1729-.7154.3794-2.1856,3.5733-2.4271,8.0376-3.2387,12.0783-.7607,4.42-1.2905,8.8758-1.9049,13.3209h0Z" style="fill:#a7abae; stroke-width:0px;"/><path d="m47.9221,155.2228c-12.4292,2.8455-24.4325,10.3704-29.5626,22.4271-.0001-.0001-.4576-.202-.4576-.202,5.3115-12.0704,17.4926-19.5348,30.0202-22.2251h0Z" style="fill:#a7abae; stroke-width:0px;"/><path d="m51.8926,132.9394c-11.6263,2.7256-22.2594,9.1326-27.2331,20.3784-.0002-.0002-.4532-.2116-.4532-.2116,5.1902-11.2804,15.9317-17.5812,27.6863-20.1667h0Z" style="fill:#a7abae; stroke-width:0px;"/><path d="m57.6127,110.9657c-11.0778,2.8717-21.6591,9.4441-26.6555,20.0622-.0002-.0002-.448-.2226-.448-.2226,5.1758-10.6157,15.931-17.1233,27.1035-19.8396h0Z" style="fill:#a7abae; stroke-width:0px;"/><path d="m64.4697,90.0973c-10.7114,3.1518-20.626,10.0069-25.7906,20.077,0-.0001-.4417-.2345-.4417-.2345,5.3579-10.0754,15.4189-16.8341,26.2324-19.8425h0Z" style="fill:#a7abae; stroke-width:0px;"/><path d="m71.8515,71.1303c-10.0023,3.0497-19.8054,8.6268-24.9161,18.0724-.0001-.0002-.4345-.2477-.4345-.2477,5.3073-9.4482,15.2434-14.9179,25.3505-17.8247h0Z" style="fill:#a7abae; stroke-width:0px;"/><path d="m79.1457,54.8608c-9.2601,2.9774-18.4518,7.835-23.4461,16.5195-.0002-.0002-.4258-.2627-.4258-.2627,5.2099-8.6942,14.4865-13.4095,23.8718-16.2568h0Z" style="fill:#a7abae; stroke-width:0px;"/><path d="m85.74,42.0844c-8.7097,3.053-16.9717,8.0949-21.9719,16.0368-.0001-.0002-.4152-.279-.4152-.279,5.1803-7.9095,13.5826-12.8511,22.3872-15.7578h0Z" style="fill:#a7abae; stroke-width:0px;"/><path d="m91.022,33.5973c-3.7794,1.5288-7.5748,3.1331-10.9031,5.4927-3.3449,2.333-6.1105,5.3831-8.4955,8.6687l-.4023-.2971c2.4729-3.2654,5.3356-6.2947,8.756-8.5774,3.4049-2.3098,7.236-3.8352,11.045-5.2869,0,0-3.809,1.4517,0,0Z" style="fill:#a7abae; stroke-width:0px;"/><path d="m425.3067,199.2425c-13.4734-61.7602-38.6564-151.1518-81.7263-171.2982-22.9351-10.7281-50.8704-12.1269-50.8704-12.1269-17.9003-1.0299-49.7681-1.2954-73.4844-1.2954" style="fill:none; stroke:#a7abae; stroke-miterlimit:10;"/><path d="m343.9931,172.0927c-4.4627-38.0538-9.1691-76.2049-17.8244-113.5694-.4173-2.6398-2.5577-2.8132-4.7969-2.6719-.5221-.0481-9.6379.0464-9.7678.0117-1.3693-.1887-2.7323.7444-2.7209,2.1809.1001,1.0238.402,2.1165.5513,3.1552,0,0,3.0121,17.1106,3.0121,17.1106,5.5365,34.1275,8.8646,69.0639,10.9622,103.582,0,0,.7142,17.3511.7142,17.3511,0,0-.8364-17.3442-.8364-17.3442-2.3499-34.4957-5.6416-69.41-11.2929-103.5147,0,0-3.0483-17.0864-3.0483-17.0864-.153-1.1089-.4576-2.1253-.5534-3.2563-.0075-1.2076.8924-2.3395,2.0771-2.5918,1.4596-.1645,9.275-.0121,10.9027-.0553,2.4623-.1603,4.7532.1631,5.2259,3.0268,8.5562,37.4027,13.2607,75.5662,17.3953,113.6717h0Z" style="fill:#a7abae; stroke-width:0px;"/><path d="m295.3731,17.2128c4.1077,4.8168,5.901,11.2002,7.7011,17.1595-.0002.0001,1.2948,4.5572,1.2948,4.5572.5006,1.4643.6321,3.3607,1.7444,4.1714,1.0343.9568,3.1576.5552,4.4427.6233,0,0,4.7319-.021,4.7319-.021,0,0,2.366.0095,2.366.0095.6274-.043,1.6926.1168,2.2661-.1318,1.6045-.6161,1.6854-2.3388.9927-3.7087-2.3584-6.6048-8.3277-20.8922-15.7495-22.4297,7.6837,1.4325,13.6461,15.5541,16.1425,22.2898,1.1365,2.0943.0904,4.5764-2.4689,4.4553-.7359.0021-2.7831.0125-3.5489.0146,0,0-4.7319-.021-4.7319-.021,0,0-2.366-.0105-2.366-.0105-1.6896.1486-3.3223-1.206-3.5562-2.868-1.4431-5.1813-2.8065-10.8302-4.7971-15.82-1.1547-2.9077-2.3638-5.895-4.4637-8.27h0Z" style="fill:#a7abae; stroke-width:0px;"/><path d="m343.3466,173.1345c-4.4684-38.1698-9.1464-76.4317-17.7442-113.9278-.2299-1.3476-1.4491-2.4316-2.8181-2.489l-4.1177-.0227s-8.2409-.0305-8.2409-.0305l8.2409-.0308,4.1229-.0078c1.4092.0454,2.685,1.1643,2.9317,2.5522,8.7197,37.4736,13.4643,75.7494,17.6254,113.9563h0Z" style="fill:#a7abae; stroke-width:0px;"/><path d="m320.7995,41.7692c-2.5857-6.7906-8.605-21.6224-16.2828-23.2851,1.2317.0974,2.3585.7021,3.3614,1.3969,6.665,5.3849,10.1434,14.0011,12.9214,21.8882h0Z" style="fill:#a7abae; stroke-width:0px;"/><path d="m272.7231,199.2428c.1484-5.2977-.2299-13.3178-.3629-18.7266-1.3727-37.3238-3.1249-75.0211-6.0129-112.2253,0,0-.7836-9.332-.7836-9.332,0,0-.0982-1.1665-.0982-1.1665-.0308-.355-.1425-.6924-.3362-.9851-.3801-.5938-1.074-.9504-1.7806-.9402,0,0-4.6834.0051-4.6834.0051l-4.6834-.0042c-.7613-.0671-1.436.2095-1.8469.793-.4679.6216-.3225,1.3638-.3002,2.1089,0,0,.4073,9.3594.4073,9.3594,1.3841,37.1639,2.0814,75.1934,2.1668,112.3818-.0275,6.2439.0547,12.4919-.2056,18.7317.2195-6.2405.0965-12.4878.0833-18.7312-.3385-37.1855-1.002-75.2062-2.503-112.3633,0,0-.4282-9.3555-.4282-9.3555-.0441-.794-.1532-1.7238.3831-2.4116.4682-.724,1.4354-1.0792,2.2435-1.0036,0,0,4.6834-.0042,4.6834-.0042,0,0,4.6834.0051,4.6834.0051,1.3116-.0367,2.5229,1.053,2.5956,2.3716,0,0,.0957,1.1672.0957,1.1672l.7631,9.3376c3.0379,43.4496,5.5355,87.4116,5.9201,130.9878h0Z" style="fill:#a7abae; stroke-width:0px;"/><path d="m246.8331,15.8129c1.0578.989,1.1716,2.6504,1.5514,3.9894.8866,4.2569,1.3134,8.5929,1.7467,12.9134.283,2.8823.494,5.7708.7005,8.6587.0002.7278.2101,1.3435.7125,1.7971.5216.4779,1.1483.5808,1.8608.5429,0,0,4.3415-.0114,4.3415-.0114l4.3303.0059c1.593-.1087,2.0128-1.5876,1.6897-2.9585-.3181-2.8752-.6844-5.7444-1.0596-8.612-.5255-2.8276-1.7863-15.802-4.4735-16.3256,2.7947.5391,4.2944,13.3986,4.8545,16.2713.4359,2.8641.7888,5.7391,1.1308,8.6144.4047,1.604-.2644,3.3801-2.12,3.4878.0001,0-4.3522.0164-4.3522.0164,0,0-4.3415-.0112-4.3415-.0112-.7317.0489-1.6145-.1208-2.1745-.6758-.5977-.511-.86-1.3718-.8519-2.1106-.1841-2.8872-.4059-5.7717-.6288-8.6557-.3643-4.3209-.7388-8.6496-1.4846-12.9231-.3424-1.3459-.4058-2.9976-1.4321-4.0132h0Z" style="fill:#a7abae; stroke-width:0px;"/><path d="m272.1858,200.2428c-.1429-25.6507-1.7031-52.6382-2.9361-78.2249-1.0742-21.1655-2.3263-42.3497-4.1345-63.4687-.1921-1.258-1.4614-2.0581-2.6893-1.9086,0,0-1.2233-.002-1.2233-.002,0,0-4.8932-.0081-4.8932-.0081,0,0-2.4466-.0039-2.4466-.0039-.8047-.0376-1.6901-.0012-2.2663.6507.5765-.6454,1.4603-.6993,2.2663-.6584,0,0,2.4466-.004,2.4466-.004l4.8932-.0078c.7243.0294,1.7487-.1077,2.437.1359.7796.2706,1.3851.9817,1.5218,1.7982,1.8757,21.1167,3.1984,42.298,4.3368,63.4639,1.152,25.5863,2.6267,52.596,2.6875,78.2378h0Z" style="fill:#a7abae; stroke-width:0px;"/><path d="m263.5548,42.5915c-.6144-4.4451-1.1441-8.9009-1.9051-13.3208-.8072-4.025-1.059-8.5252-3.2382-12.0785-.1791-.2064-.4275-.3881-.7157-.3793.2878-.02.5492.1555.7375.3584,1.2552,1.5329,1.6244,3.5891,2.1431,5.4536.5287,2.1839.9449,4.3921,1.3194,6.6057.6736,4.439,1.2576,8.8906,1.6589,13.3608h0Z" style="fill:#a7abae; stroke-width:0px;"/><path d="m420.0919,177.6498c-5.1311-12.0574-17.1326-19.5808-29.5628-22.4269,12.527,2.6895,24.7096,10.1553,30.0202,22.2251.0001-.0002-.4574.2018-.4574.2018h0Z" style="fill:#a7abae; stroke-width:0px;"/><path d="m386.5586,132.9394c11.7569,2.5862,22.4961,8.8872,27.6861,20.167.0002-.0002-.4529.2112-.4529.2112-4.974-11.2465-15.6088-17.6531-27.2333-20.3782h0Z" style="fill:#a7abae; stroke-width:0px;"/><path d="m380.8386,110.9657c11.172,2.7158,21.9284,9.2246,27.1033,19.8398.0002-.0002-.4477.2222-.4477.2222-4.9973-10.6186-15.5772-17.1897-26.6556-20.062h0Z" style="fill:#a7abae; stroke-width:0px;"/><path d="m373.9816,90.0973c10.8132,3.0082,20.8748,9.7675,26.2323,19.8426,0-.0001-.4416.2343-.4416.2343-5.1652-10.0705-15.0788-16.9247-25.7907-20.0769h0Z" style="fill:#a7abae; stroke-width:0px;"/><path d="m366.5998,71.1303c10.1064,2.9063,20.044,8.3772,25.3504,17.8249.0001-.0002-.4342.2474-.4342.2474-5.1117-9.4463-14.913-15.0219-24.9162-18.0723h0Z" style="fill:#a7abae; stroke-width:0px;"/><path d="m359.3056,54.8608c9.3848,2.8469,18.6628,7.5635,23.8717,16.2571.0002-.0002-.4255.2622-.4255.2622-4.9955-8.6851-14.1852-13.5412-23.4462-16.5193h0Z" style="fill:#a7abae; stroke-width:0px;"/><path d="m352.7113,42.0844c8.8043,2.9064,17.2074,7.8487,22.3871,15.758.0001-.0002-.415.2786-.415.2786-5.001-7.9422-13.2619-12.9832-21.9721-16.0366h0Z" style="fill:#a7abae; stroke-width:0px;"/><path d="m366.828,47.7587c-2.385-3.2856-5.1507-6.3357-8.4955-8.6687-3.3283-2.3596-7.1237-3.9639-10.9032-5.4927,3.809,1.4517,7.64,2.9771,11.045,5.2869,3.4204,2.2827,6.2832,5.312,8.756,8.5774l-.4023.2971h0Z" style="fill:#a7abae; stroke-width:0px;"/></svg>