<svg xmlns="http://www.w3.org/2000/svg" width="218" height="218" viewBox="0 0 218 218"><g id="eae7e7ca-3c4c-4e42-9ec2-8115f3449099" data-name="below"><path d="M3.6878,174.5963c4.1072-2.5563,7.306-4.5517,8.0437-5.0239,2.2538-1.4424,3.2636-.9126,5.695.114,2.011.8491,3.1771,1.2781,4.565.8017" style="fill:none;stroke:#a7abae;stroke-linecap:round;stroke-linejoin:round;stroke-width:0.5px"/><line x1="4.5775" y1="163.9819" x2="20.7469" y2="154.013" style="fill:none;stroke:#a7abae;stroke-linecap:round;stroke-linejoin:round"/><path d="M6.0142,183.2106c2.6208-1.669,4.5019-2.8612,4.8761-3.0843,1.5153-.9034,3.2545-1.1508,4.7032.6244a113.4257,113.4257,0,0,0,15.6739,15.6906c13.7247,11.5131,22.7638,16.3585,24.1665,17.082" style="fill:none;stroke:#a7abae;stroke-linecap:round;stroke-linejoin:round;stroke-width:0.5px"/><path d="M2.301,122.2884a59.4489,59.4489,0,0,0,10.1025-3.1118,124.9187,124.9187,0,0,0,14.1045-6.5177" style="fill:none;stroke:#a7abae;stroke-linecap:round;stroke-linejoin:round;stroke-width:0.5px"/><path d="M143.7854,9.9926c.6273-2.1119,1.2165-4.1154,1.762-5.9854" style="fill:none;stroke:#a7abae;stroke-linecap:round;stroke-linejoin:round;stroke-width:0.5px"/><path d="M22.6281,5.2792c5.1773,7.3576,10.8749,13.0227,19.2842,13.9956,1.9511,2.0026,9.1487,6.5671,23.26,15.2207,5.4084,3.3167,9.5847,5.8524,12.6788,7.7185" style="fill:none;stroke:#a7abae;stroke-linecap:round;stroke-linejoin:round;stroke-width:0.5px"/><path d="M41.9123,19.2748c-1.6994-1.3011-3.6649-4.8092-4.26-10.825" style="fill:none;stroke:#a7abae;stroke-linecap:round;stroke-linejoin:round;stroke-width:0.5px"/><path d="M102.6953,5.8182a211.0323,211.0323,0,0,0-5.6218,24.1569" style="fill:none;stroke:#a7abae;stroke-linecap:round;stroke-linejoin:round;stroke-width:0.5px"/><path d="M138.3056,3.5164c-.42,1.5061-.8668,3.0928-1.3293,4.706" style="fill:none;stroke:#a7abae;stroke-linecap:round;stroke-linejoin:round;stroke-width:0.5px"/><path d="M17.535,16.0472c8.3427.4338,16.5612.6691,16.5612.6691" style="fill:none;stroke:#a7abae;stroke-linecap:round;stroke-linejoin:round;stroke-width:0.5px"/><path d="M14.5991,30.5966c9.2812,1.0461,13.07,2.9479,20.1724,6.9419S54.823,49.424,61.1946,54.37a47.49,47.49,0,0,1,4.7065,4.1272" style="fill:none;stroke:#a7abae;stroke-linecap:round;stroke-linejoin:round;stroke-width:0.5px"/><path d="M3.7971,98.1272q.9255-.4139,1.9-.8694c6.741-3.1425,13.3877-6.3552,20.86-10.01" style="fill:none;stroke:#a7abae;stroke-linecap:round;stroke-linejoin:round;stroke-width:0.5px"/><path d="M5.5972,17.0153a92.2582,92.2582,0,0,1,14.6489,2.2562c17.0748,3.8551,19.1172,5.8237,29.12,11.6062,7.9029,4.5689,14.77,8.9477,23.8678,14.8879" style="fill:none;stroke:#a7abae;stroke-linecap:round;stroke-linejoin:round;stroke-width:0.5px"/><path d="M8.2826,101.3274q2.0791-.9816,4.4075-2.1747c4.15-2.1225,8.2584-4.2857,12.071-6.3268" style="fill:none;stroke:#a7abae;stroke-linecap:round;stroke-linejoin:round;stroke-width:0.5px"/><path d="M3.4237,147.3726a53.4508,53.4508,0,0,0,20.5914-2.22" style="fill:none;stroke:#a7abae;stroke-linecap:round;stroke-linejoin:round;stroke-width:0.5px"/></g><g id="ae409e05-9ec8-41cb-bdfe-41fb6d4ed153" data-name="illustration"><path d="M167.8721,95.3625c2.64-2.0009,4.4961-3.4267,5.2891-4.0719,3.4319-2.792,6.03-3.1567,8.2541-2.585" style="fill:none;stroke:#a7abae;stroke-linecap:round;stroke-linejoin:round;stroke-width:0.5px"/><path d="M30.7594,121.9429q.0349.0633.0718.1262c1.7771,3.03,10.0726,10.5876,18.4541,17.0065s18.546,12.6708,24.37,14.8817,11.8548,2.3066,19.3839-3.0425c5.3519-3.8022,40.5517-29.863,62.6134-46.3676" style="fill:none;stroke:#a7abae;stroke-linecap:round;stroke-linejoin:round;stroke-width:0.5px"/><path d="M184.571,56.9842c-17.07,12.278-81.8787,60.5941-90.8921,66.4246-9.8495,6.3713-16.9051,8.2732-24.15,5.7056s-18.3588-9.678-26.6054-15.68A106.94,106.94,0,0,1,26.6741,98.7793c-1.9414-2.3773-1.6906-5.4938-1.61-6.5139" style="fill:none;stroke:#a7abae;stroke-linecap:round;stroke-linejoin:round;stroke-width:0.5px"/><path d="M124.2873,90.1452c-16.5086,12.1494-31.68,23.2416-35.4668,25.6913-12.0523,7.7961-17.95,3.9552-24.0924.4792-3.0755-1.74-10.5212-6.1877-16.1737-10.3015A131.9629,131.9629,0,0,1,33.82,93.847c-3.061-3.3857-4.59-7.2671,4.4671-13.3779,8.2291-5.5523,27.2537-17.68,31.4411-20.3458" style="fill:none;stroke:#a7abae;stroke-linecap:round;stroke-linejoin:round;stroke-width:0.5px"/><path d="M24.4273,106.1608s.8238,2.9322,5.0106,6.8887a202.2114,202.2114,0,0,0,16.89,14.0583A154.46,154.46,0,0,0,68.9416,140.56c6.6484,3.0092,9.41,2.0343,10.3788,4.8353.5993,1.7331.7508,2.2209,1.1,3.309.8581,2.6765-3.2076,2.5361-9.0794.3489-6.5468-2.4386-15.3548-8.2417-25.0622-15.6116a118.9878,118.9878,0,0,1-15.3425-13.4083,23.2868,23.2868,0,0,1-3.7517-5.5965" style="fill:none;stroke:#a7abae;stroke-linecap:round;stroke-linejoin:round;stroke-width:0.5px"/><path d="M114.9293,89.6916l5.3725,3.3851c-14.9095,10.96-28.0017,20.5088-31.4813,22.76-12.0523,7.7961-17.95,3.9552-24.0924.4792-3.0755-1.74-10.5212-6.1877-16.1737-10.3015-4.6956-3.4175-9.0077-6.9391-11.8129-9.41-1.2889-3.2.3858-5.4547,7.0551-9.8469C50.9244,82.0629,72.94,67.46,75.88,65.5091" style="fill:none;stroke:#a7abae;stroke-linecap:round;stroke-linejoin:round;stroke-width:0.5px"/><path d="M77.645,118.43,40.9567,92.7286a.8178.8178,0,0,0-1.2946.1948c-2.0837,2.6779-.4058,4.995,12.4553,14.0331,17.3915,12.2217,22.3036,12.7493,25.45,12.16C78.0983,119.0173,77.9751,118.6611,77.645,118.43Z" style="fill:none;stroke:#a7abae;stroke-linecap:round;stroke-linejoin:round;stroke-width:0.5px"/><path d="M40.3233,92.5s.1127,2.14,2.2249,7.2579" style="fill:none;stroke:#a7abae;stroke-linecap:round;stroke-linejoin:round;stroke-width:0.5px"/><path d="M145.582,76.7364c-22.4465,16.5587-50.3814,37.1669-55.7668,40.6508-5.532,3.5782-9.9477,4.84-13.6671,4.84-4.75,0-8.3663-2.0563-11.7317-3.9694l-.59-.3351c-3.1712-1.7946-10.6692-6.2809-16.35-10.4149A133.3955,133.3955,0,0,1,32.46,95.0867c-1.496-1.6546-3.1671-3.9334-2.8085-6.8949.37-3.06,2.7891-6,7.6109-9.2537C45.0363,73.6934,62.6459,62.4476,69.0205,58.39" style="fill:none;stroke:#a7abae;stroke-linecap:round;stroke-linejoin:round;stroke-width:0.5px"/><path d="M74.2324,154.1688a2.06,2.06,0,0,1-1.2045-1.2573s-.4121-.9331-1.039-2.6568a2.7889,2.7889,0,0,1-.1458-1.0181" style="fill:none;stroke:#a7abae;stroke-linecap:round;stroke-linejoin:round;stroke-width:0.5px"/><path d="M69.5288,129.1144l-.3189.6913a3.0394,3.0394,0,0,0-.2413.7935l-.4659,2.92a5.5746,5.5746,0,0,0-.0173,1.6374c.1446,1.0368.4274,2.9356.8333,5.0783a1.0165,1.0165,0,0,0,.6016.7461l.2219.0939" style="fill:none;stroke:#a7abae;stroke-linecap:round;stroke-linejoin:round;stroke-width:0.5px"/><path d="M26.8326,98.9688c-.561.31-.9516.6307-1.2357,3.3766a12.4934,12.4934,0,0,0,.3906,4.9211c.5477,2.5833.7727,2.9235,1.34,3.5686" style="fill:none;stroke:#a7abae;stroke-linecap:round;stroke-linejoin:round;stroke-width:0.5px"/><path d="M23.2008,99.4193s-.1076,2.0566,2.3175,5.0446,7.81,7.6225,16.528,14.2136a154.206,154.206,0,0,0,26.3988,15.9617c6.6275,2.9363,15.3456,3.4513,29.91-7.4653,12.7226-9.536,64.3427-47.6772,83.3826-61.7366" style="fill:none;stroke:#a7abae;stroke-linecap:round;stroke-linejoin:round;stroke-width:0.5px"/><path d="M68.5586,56.8051a8.9029,8.9029,0,0,0,.2647.9527c.9386,2.7582,1.4951,3.8918,3.0833,5.0963a1.3944,1.3944,0,0,0,1.2216.2309l.0175-.0049A88.006,88.006,0,0,0,88.7715,74.8a1.0085,1.0085,0,0,0,1.06-.045l.67-.4553.4259,1.1966a3.4879,3.4879,0,0,0,1.5957,1.8825l17.6839,9.7883a1.5091,1.5091,0,0,0,1.2332.1029h0l.2714.5452a1.5082,1.5082,0,0,0,.5395.6c4.2863,2.7442,12.6022,3.7171,20.8058-2.3289,4.3677-3.2189,8.7256-6.4338,12.8943-9.5091,18.6973-13.7924,35.53-26.16,39.1443-28.5871,1.7567-1.1792,3.2576-2.0956,4.5837-2.812" style="fill:none;stroke:#a7abae;stroke-linecap:round;stroke-linejoin:round;stroke-width:0.5px"/><g id="bc85b1bc-861f-46db-b555-0fc570d1568d" data-name="Offset Group"><path d="M193.75,35.8775c-8.9984-5.9289-16.257-9.8954-26.8228-15.6449-10.1924-5.5463-17.0509-8.6124-23.021-11.2815q-.75-.3354-1.4822-.6632a12.05,12.05,0,0,0-5.2817-1.0712,17.1594,17.1594,0,0,0-7.2993,2.0545c-3.8517,1.9518-33.5543,19.5967-51.701,31.5449-5.66,3.7267-8.5225,6.8083-9.8509,9.2734a7.48,7.48,0,0,0-1.005,3.5437,17.0639,17.0639,0,0,0,.1661,2.6907c-3.5841,2.2808-23.1188,14.7276-31.6295,20.4679-5.5907,3.7707-8.65,7.2159-10.2364,10.146a11.6855,11.6855,0,0,0-1.514,5.0529,15.9891,15.9891,0,0,0-1.4519,11.172,75.6464,75.6464,0,0,0,7.0255,18.8517q-.0713.2019-.1321.4126c-.2394.8226-4.984,18.0652-8.36,30.4779l-4.4567,16.3866" style="fill:none;stroke:#a7abae;stroke-linecap:round;stroke-linejoin:round;stroke-width:0.5px"/><path d="M193.6122,36.0863c-8.9886-5.9225-16.2386-9.8845-26.8048-15.6341-10.1838-5.5416-17.0352-8.6046-23.0035-11.2729q-.75-.3353-1.4825-.6633a11.8006,11.8006,0,0,0-5.1734-1.0494,16.9116,16.9116,0,0,0-7.1923,2.0276c-3.8388,1.9453-33.532,19.5839-51.6765,31.5307-5.6441,3.7162-8.468,6.77-9.7683,9.1832a7.2311,7.2311,0,0,0-.9751,3.4251,16.3761,16.3761,0,0,0,.1892,2.8132C64.5427,58.4712,44.5869,71.1819,35.9622,76.999c-5.5688,3.756-8.5943,7.1736-10.1564,10.0579A11.3971,11.3971,0,0,0,24.3194,92.06a15.7335,15.7335,0,0,0-1.4562,11.0451A75.1813,75.1813,0,0,0,29.92,121.9912c-.0608.163-.1157.3314-.1664.5056-.2385.82-4.9824,18.06-8.3587,30.4737l-4.4567,16.3866" style="fill:none;stroke:#a7abae;stroke-linecap:round;stroke-linejoin:round;stroke-width:0.5px"/><path d="M193.4746,36.295c-8.9787-5.9159-16.22-9.8734-26.7867-15.6232-10.1751-5.5369-17.02-8.5968-22.9861-11.2642q-.75-.3354-1.4826-.6635a11.5523,11.5523,0,0,0-5.0653-1.0276,16.6667,16.6667,0,0,0-7.0852,2.0007c-3.8259,1.9387-33.51,19.5711-51.6521,31.5165-5.6281,3.7057-8.4133,6.732-9.6856,9.093a6.9842,6.9842,0,0,0-.9452,3.3065A15.71,15.71,0,0,0,68,56.5675c-2.6742,1.7012-23.1374,14.73-31.8984,20.6388-5.5469,3.7412-8.5391,7.1312-10.0764,9.97a11.1081,11.1081,0,0,0-1.4584,4.9526,15.476,15.476,0,0,0-1.4608,10.9183A74.7067,74.7067,0,0,0,30.1958,121.97c-.075.1894-.1415.3879-.2022.5966-.2378.8172-4.9809,18.054-8.3575,30.4694l-4.4567,16.3866" style="fill:none;stroke:#a7abae;stroke-linecap:round;stroke-linejoin:round;stroke-width:0.5px"/><path d="M193.3371,36.5038c-8.9689-5.9095-16.2018-9.8624-26.7687-15.6124-10.1665-5.5322-17.004-8.589-22.9686-11.2556q-.75-.3354-1.4829-.6636a11.3008,11.3008,0,0,0-4.957-1.0057A16.4175,16.4175,0,0,0,130.1817,9.94c-3.813,1.9322-33.4872,19.5583-51.6276,31.5023-5.6122,3.6953-8.3588,6.6938-9.6031,9.0028a6.7383,6.7383,0,0,0-.9152,3.1879,15.0506,15.0506,0,0,0,.2424,3.0539c-1.96,1.2466-23.0963,14.6966-32.0364,20.7265-5.525,3.7264-8.4839,7.0888-9.9964,9.8814a10.8165,10.8165,0,0,0-1.43,4.9021A15.2183,15.2183,0,0,0,23.35,102.9889a74.2184,74.2184,0,0,0,7.1239,18.9626,6.1846,6.1846,0,0,0-.24.685c-.237.8145-4.9793,18.0485-8.3563,30.4652l-4.4567,16.3866" style="fill:none;stroke:#a7abae;stroke-linecap:round;stroke-linejoin:round;stroke-width:0.5px"/></g><path d="M193.2,36.7125c-8.9589-5.9029-16.1833-9.8513-26.7506-15.6015-11.01-5.991-18.11-9.0759-24.4343-11.9106-3.9776-1.783-7.92-.9629-11.72.9628S96.83,29.7087,78.6916,41.6513c-8.6656,5.7057-10.4058,9.7-10.4058,11.9819a14.4061,14.4061,0,0,0,.2728,3.1719h0S45.7575,71.297,36.3815,77.6208s-11.27,11.554-11.3174,14.6446a14.9609,14.9609,0,0,0-1.4713,10.6656,73.7023,73.7023,0,0,0,7.1652,19.0127l-.011.0064a5.6888,5.6888,0,0,0-.2733.7562c-.2362.8119-4.9778,18.0429-8.3551,30.461l-4.4568,16.3866" style="fill:none;stroke:#a7abae;stroke-linecap:round;stroke-linejoin:round;stroke-width:0.5px"/><path d="M110.8242,51.7118a6.8816,6.8816,0,0,0,7.6678-.5272c1.3258-.9034,30.78-20.2551,42.63-27.47,4.0311-2.4544,6.9047-1.7447,8.2051-1.0362" style="fill:none;stroke:#a7abae;stroke-linecap:round;stroke-linejoin:round;stroke-width:0.5px"/><path d="M159.89,17.64c-1.3-.7084-4.174-1.4182-8.2051,1.0362-11.85,7.2153-41.3043,26.5662-42.63,27.47-2.6813,1.8292-2.1113,2.953.2816,4.6392a1.9983,1.9983,0,0,1,.75.9734" style="fill:none;stroke:#a7abae;stroke-linecap:round;stroke-linejoin:round;stroke-width:0.5px"/><path d="M165.946,20.838c-1.3-.7085-4.174-1.4183-8.205,1.0361-11.85,7.2153-41.3038,26.5671-42.63,27.47l-3.5182,2.3971a.6065.6065,0,0,1-.6311.0321l-.0075-.004a.9325.9325,0,0,0-.9233.02A78.4656,78.4656,0,0,0,89.8378,69.2907a2.95,2.95,0,0,0-.56,2.5065l.014.0594a1.4409,1.4409,0,0,0,.5734.8487l.2626.1846.3741,1.41" style="fill:none;stroke:#a7abae;stroke-linecap:round;stroke-linejoin:round;stroke-width:0.5px"/><path d="M90.1274,72.89c3.8269,2.4779,13.11,7.5463,16.1746,9.145,2.5264,1.3178,3.59,2.393,5.1382,5.2355" style="fill:none;stroke:#a7abae;stroke-linecap:round;stroke-linejoin:round;stroke-width:0.5px"/><path d="M87.4929,74.0527a1.5371,1.5371,0,0,1-.709-1.0393l-.2466-1.3728a2.1794,2.1794,0,0,0-.8981-1.4032c-2.1823-1.5213-8.7057-6.1132-12.7774-9.4537l.2219,1.795a1.3606,1.3606,0,0,0,.4352.84l.5558.5047" style="fill:none;stroke:#a7abae;stroke-linecap:round;stroke-linejoin:round;stroke-width:0.5px"/><path d="M68.2858,53.6332c0,1.4595,2.1664,3.2095,4.9365,5.4561A157.18,157.18,0,0,0,86.754,68.8832a1.9508,1.9508,0,0,0,2.523-.5356,78.0958,78.0958,0,0,1,19.2906-16.9523c.7757-.4806.3034-.9491-.0073-1.1919" style="fill:none;stroke:#a7abae;stroke-linecap:round;stroke-linejoin:round;stroke-width:0.5px"/><path d="M89.3991,70.0654a228.0077,228.0077,0,0,0,20.8691,11.119c7.1908,3.3218,11.3667,2.5492,17.4378-1.8187,15.9106-11.447,40.9765-29.7166,53.0592-37.7644,6.311-4.2035,10.1613-4.7971,12.3448-4.3967" style="fill:none;stroke:#a7abae;stroke-linecap:round;stroke-linejoin:round;stroke-width:0.5px"/><path d="M60.32,202.5046c1.9175-5.8236,8.04-24.5393,9.2088-28.9811,1.3259-5.04-1.4206-11.5064-6.44-14.5494a145.2847,145.2847,0,0,1-15.4371-10.6506c-5.1141-4.089-10.4177-8.4634-12.7854-10.5555s-4.3564-.38-5.6823,3.5185-6.5169,24.3886-7,26.314" style="fill:none;stroke:#a7abae;stroke-linecap:round;stroke-linejoin:round;stroke-width:0.5px"/><path d="M89.2676,185.0321c-3.7826,3.1494-6.1188,5.1015-6.6694,5.5609a45.1417,45.1417,0,0,1-6.6412,4.5764s-3.7646,3.6374-5.9665,5.5987l-.8056.6989c-5.4613,4.622-12.6356,11.0351-17.7475,15.6515" style="fill:none;stroke:#a7abae;stroke-linecap:round;stroke-linejoin:round;stroke-width:0.5px"/><line x1="75.8143" y1="195.3069" x2="89.8635" y2="152.9012" style="fill:none;stroke:#a7abae;stroke-linecap:round;stroke-linejoin:round;stroke-width:0.5px"/><line x1="60.4311" y1="213.3176" x2="88.6181" y2="188.6832" style="fill:none;stroke:#a7abae;stroke-linecap:round;stroke-linejoin:round;stroke-width:0.5px"/><g id="a5ba028f-2988-45aa-b2ea-134b48d50cc5" data-name="Offset Group"><path d="M159.8581,116.1767c-5.1741,1.96-11.525,4.6994-19.002,7.9249q-5.0746,2.1891-10.8509,4.6559c-12.4568,5.2927-27.4462,15.06-34.0561,29.7816-5.9682,13.2928-6.4941,20.6894-6.54,21.8271-1.419,5.0063-2.5212,10.1764-2.8325,22.6454a63.7322,63.7322,0,0,0,.5993,12.8188" style="fill:none;stroke:#a7abae;stroke-linecap:round;stroke-linejoin:round;stroke-width:0.5px"/><path d="M159.9467,116.4105c-5.1676,1.957-11.5127,4.6943-18.9915,7.9206q-5.0746,2.1891-10.8523,4.6565c-12.4345,5.2832-27.3541,15.017-33.9257,29.6539-6.03,13.4308-6.4858,20.78-6.52,21.7653-1.4162,4.9918-2.5195,10.1369-2.8309,22.611a63.5162,63.5162,0,0,0,.5951,12.7665" style="fill:none;stroke:#a7abae;stroke-linecap:round;stroke-linejoin:round;stroke-width:0.5px"/><path d="M160.0352,116.6443c-5.1611,1.9545-11.5,4.6893-18.981,7.9164q-5.0745,2.189-10.8535,4.657c-12.4123,5.2738-27.262,14.9744-33.7955,29.5262-6.105,13.5976-6.4768,20.8972-6.4994,21.7024-1.4136,4.9777-2.5181,10.0975-2.83,22.5778a63.2831,63.2831,0,0,0,.5909,12.714" style="fill:none;stroke:#a7abae;stroke-linecap:round;stroke-linejoin:round;stroke-width:0.5px"/><path d="M160.1237,116.8781c-5.1546,1.9521-11.4878,4.6842-18.9705,7.9121q-5.0744,2.1891-10.8547,4.6575c-12.39,5.2644-27.17,14.9319-33.6652,29.3986-6.47,14.4107-6.479,21.6748-6.4694,21.6064-1.4154,4.9742-2.5254,10.0633-2.8379,22.5776a63.06,63.06,0,0,0,.5867,12.6617" style="fill:none;stroke:#a7abae;stroke-linecap:round;stroke-linejoin:round;stroke-width:0.5px"/></g><path d="M160.2123,117.1119c-7.475,2.8308-17.4358,7.3057-29.8161,12.5659-12.3677,5.2549-27.0778,14.8893-33.5348,29.2709s-6.4571,21.5724-6.4571,21.5724c-1.4088,4.951-2.5163,10.0189-2.8284,22.5155a62.8417,62.8417,0,0,0,.5825,12.6092" style="fill:none;stroke:#a7abae;stroke-linecap:round;stroke-linejoin:round;stroke-width:0.5px"/><g id="adc6bdfe-035a-4b37-b33e-250d4c0afdf0" data-name="Offset Group"><path d="M207.4541,6.4329a446.2432,446.2432,0,0,0-26.07,59.2938c-4.0261,11.13-1.9168,19.2943,1.4995,27.8446l-5.3073,6.6463a8.5859,8.5859,0,0,0-1.874,5.4826l.0806,5.5264-1.6245,1.8q-.3336-.0681-.6863-.1044" style="fill:none;stroke:#a7abae;stroke-linecap:round;stroke-linejoin:round;stroke-width:0.5px"/><path d="M207.6743,6.5512a445.9978,445.9978,0,0,0-26.0555,59.2605c-4.0172,11.105-1.8874,19.2274,1.5506,27.8018l-5.3981,6.76a8.3367,8.3367,0,0,0-1.82,5.3229l.0821,5.6247-1.7873,1.98a6.705,6.705,0,0,0-.8009-.1307" style="fill:none;stroke:#a7abae;stroke-linecap:round;stroke-linejoin:round;stroke-width:0.5px"/><path d="M207.8945,6.67a445.7453,445.7453,0,0,0-26.0407,59.2272c-4.0079,11.08-1.8579,19.1591,1.6019,27.7588l-5.489,6.874a8.0865,8.0865,0,0,0-1.7649,5.1633l.0835,5.7229-1.9529,2.1637a6.303,6.303,0,0,0-.9126-.16" style="fill:none;stroke:#a7abae;stroke-linecap:round;stroke-linejoin:round;stroke-width:0.5px"/><path d="M208.1147,6.7879a445.5072,445.5072,0,0,0-26.0258,59.1939c-3.9985,11.0536-1.8286,19.09,1.6533,27.7157l-5.58,6.9881a7.836,7.836,0,0,0-1.71,5.0036l.0849,5.8212-2.1217,2.3508a5.8642,5.8642,0,0,0-1.0212-.1931" style="fill:none;stroke:#a7abae;stroke-linecap:round;stroke-linejoin:round;stroke-width:0.5px"/></g><path d="M208.3349,6.9062A445.2617,445.2617,0,0,0,182.324,66.0668c-3.9889,11.0269-1.7994,19.0189,1.7047,27.6725l-5.6713,7.1023a7.5858,7.5858,0,0,0-1.6556,4.844l.0863,5.9193-2.2943,2.5421a5.4312,5.4312,0,0,0-1.1259-.23" style="fill:none;stroke:#a7abae;stroke-linecap:round;stroke-linejoin:round;stroke-width:0.5px"/><path d="M174.4938,114.147c4.3309,1.8092,7.191,6.5991,14.72,6.1712s11.4358-2.2109,11.4358-2.2109" style="fill:none;stroke:#a7abae;stroke-linecap:round;stroke-linejoin:round;stroke-width:0.5px"/><path d="M184.0287,93.7393c2.273,5.1827,4.688,8.2495,7.174,10.1751s2.6281,2.14,3.1964,5.1351c.7668,4.0421,1.7757,6.0623,6.2506,9.0578a25.4062,25.4062,0,0,0,11.5779,4.0653" style="fill:none;stroke:#a7abae;stroke-linecap:round;stroke-linejoin:round;stroke-width:0.5px"/><path d="M90.4043,180.5211a38.4048,38.4048,0,0,0,10.79,28.5754" style="fill:none;stroke:#a7abae;stroke-linecap:round;stroke-linejoin:round;stroke-width:0.5px"/><path d="M88.5351,189.2641a28.0948,28.0948,0,0,0,7.9284,21.76q2.888,2.8977,5.1307,5.1343" style="fill:none;stroke:#a7abae;stroke-linecap:round;stroke-linejoin:round;stroke-width:0.5px"/><path d="M87.7506,198.2453c-.1138,2.9218-.4742,8.4822,4.77,15.7915" style="fill:none;stroke:#a7abae;stroke-linecap:round;stroke-linejoin:round;stroke-width:0.5px"/><path d="M213.49,150.7118c-1.9008-1.1632-3.45-2.0946-4.4586-2.6736-6.6294-3.8037-11.4291-4.6143-19.851-5.8979-12.0964-1.8436-15.8756-2.9431-52.0311,17.024-24.1611,13.3431-32.6811,24.5321-32.6811,24.5321" style="fill:none;stroke:#a7abae;stroke-linecap:round;stroke-linejoin:round;stroke-width:0.5px"/><path d="M213.6138,134.1335c-7.1019-3.1758-13.8172-4.9037-22.7617-7.3812-13.7325-3.8038-18.9944-5.5163-34.852.7607a210.5077,210.5077,0,0,0-28.2287,13.43c-5.8405,3.1206-13.0475,8.6078-18.0827,22.4208-6.8233,18.7184-6.6445,24.12-1.33,31.366,4.3707,5.9593,11.7588,13.153,18.2011,18.9753" style="fill:none;stroke:#a7abae;stroke-linecap:round;stroke-linejoin:round;stroke-width:0.5px"/><path d="M177.7692,116.0814l5.7089-6.8686c.7282-.8408,1.0123-1.4827-.1241-2.1246s-3.7646-2.0683-4.9721-2.7815a1.9049,1.9049,0,0,1-.4214-2.92" style="fill:none;stroke:#a7abae;stroke-linecap:round;stroke-linejoin:round;stroke-width:0.5px"/><line x1="176.7881" y1="111.6049" x2="176.8542" y2="115.4518" style="fill:none;stroke:#a7abae;stroke-linecap:round;stroke-linejoin:round;stroke-width:0.5px"/><path d="M185.6362,120.1022a109.8148,109.8148,0,0,0,8.726-11.2458" style="fill:none;stroke:#a7abae;stroke-linecap:round;stroke-linejoin:round;stroke-width:0.5px"/><g id="f8cda08b-5ac5-404b-bc56-e28a2ce74685" data-name="Offset Group"><path d="M160.108,117.0412a3.667,3.667,0,0,0,1.1567,1.1178l2.9257,1.7766a2.066,2.066,0,0,0,2.5174-.2891l8.0356-7.8519a2.0818,2.0818,0,0,0,.5928-1.8578l-1.9769-10.9639a2.1844,2.1844,0,0,0-1.0151-1.48l-4.7525-2.8858a2.7522,2.7522,0,0,0-3.3536.3851l-7.5624,7.39a3.7192,3.7192,0,0,0-1.0091,3.5479A36.19,36.19,0,0,0,160.108,117.0412Z" style="fill:none;stroke:#a7abae;stroke-linecap:round;stroke-linejoin:round;stroke-width:0.5px"/><path d="M160.2124,116.9725a3.54,3.54,0,0,0,1.1171,1.08l2.9258,1.7766a1.941,1.941,0,0,0,2.3652-.2716l8.0355-7.8519a1.9561,1.9561,0,0,0,.5572-1.7462l-1.9769-10.9639a2.06,2.06,0,0,0-.957-1.3952l-4.7525-2.8858a2.6274,2.6274,0,0,0-3.2014.3677l-7.5624,7.39a3.5949,3.5949,0,0,0-.975,3.4286A36.0721,36.0721,0,0,0,160.2124,116.9725Z" style="fill:none;stroke:#a7abae;stroke-linecap:round;stroke-linejoin:round;stroke-width:0.5px"/><path d="M160.3169,116.9038a3.4147,3.4147,0,0,0,1.0775,1.0415l2.9258,1.7766a1.816,1.816,0,0,0,2.2129-.2542l8.0356-7.8519a1.8317,1.8317,0,0,0,.5215-1.6346l-1.9769-10.9639a1.9343,1.9343,0,0,0-.8989-1.3105L167.462,94.821a2.5024,2.5024,0,0,0-3.0492.35l-7.5624,7.39a3.47,3.47,0,0,0-.941,3.3094A35.9465,35.9465,0,0,0,160.3169,116.9038Z" style="fill:none;stroke:#a7abae;stroke-linecap:round;stroke-linejoin:round;stroke-width:0.5px"/><path d="M160.4213,116.8352a3.29,3.29,0,0,0,1.038,1.0032l2.9258,1.7766a1.6911,1.6911,0,0,0,2.0607-.2367l8.0355-7.852a1.7061,1.7061,0,0,0,.4858-1.5229L172.99,99.0394a1.8093,1.8093,0,0,0-.8406-1.2258l-4.7525-2.8858a2.3771,2.3771,0,0,0-2.8969.3328l-7.5624,7.39a3.3445,3.3445,0,0,0-.907,3.19A35.83,35.83,0,0,0,160.4213,116.8352Z" style="fill:none;stroke:#a7abae;stroke-linecap:round;stroke-linejoin:round;stroke-width:0.5px"/></g><path d="M160.5257,116.7665a3.1671,3.1671,0,0,0,.9985.9651l2.9257,1.7766a1.5662,1.5662,0,0,0,1.9085-.2193l8.0355-7.852a1.5811,1.5811,0,0,0,.45-1.4114l-1.9769-10.9639a1.6839,1.6839,0,0,0-.7825-1.1411l-4.7525-2.8858a2.2521,2.2521,0,0,0-2.7447.3154l-7.5624,7.3895a3.22,3.22,0,0,0-.8729,3.0708A35.7107,35.7107,0,0,0,160.5257,116.7665Z" style="fill:none;stroke:#a7abae;stroke-linecap:round;stroke-linejoin:round;stroke-width:0.5px"/><path d="M167.0227,96.2027a1.4391,1.4391,0,0,0-1.7625.1925l-7.2771,7.0622c-.6091.5911-.8029,1.2609-.2351,1.7219l4.1554,3.3743a1.2364,1.2364,0,0,0,1.7-.1323l7.44-8.2316c.594-.6572.5153-1.1778-.01-1.5032Z" style="fill:none;stroke:#a7abae;stroke-linecap:round;stroke-linejoin:round;stroke-width:0.5px"/><path d="M158.4725,105.7677l1.018.8266a1.2384,1.2384,0,0,0,.8127.2769l3.4126-.422,4.62-5.1759.4933-3.23a1.2481,1.2481,0,0,0-.59-1.0867l-.7207-.4464" style="fill:none;stroke:#a7abae;stroke-linecap:round;stroke-linejoin:round;stroke-width:0.5px"/><line x1="162.514" y1="107.7955" x2="170.0404" y2="99.3641" style="fill:none;stroke:#a7abae;stroke-linecap:round;stroke-linejoin:round;stroke-width:0.5px"/><path d="M28.8373,150.5673a12.902,12.902,0,0,0,2.5028,3.3862c.4468.4427.904.896,1.3482,1.3688,2.9987,3.1947,7.8626,7.4724,12.8113,11.7593,5.884,5.0972,11.0849,8.9992,15.84,11.4121,1.74.8842,2.7474,1.3931,3.7337,1.3931a6.7732,6.7732,0,0,0,2.91-1.1557" style="fill:none;stroke:#a7abae;stroke-linecap:round;stroke-linejoin:round;stroke-width:0.5px"/><path d="M67.3068,180.8187c-2.2839,1.2771-3.6145.9915-6.3622-.4032-3.4989-1.7759-10.4966-6.6789-16.3793-11.775s-10.7293-9.4073-13.2413-12.084a46.6626,46.6626,0,0,1-3.38-3.6916c-.9552-1.2251-1.86-2.6466-.2257-3.5942" style="fill:none;stroke:#a7abae;stroke-linecap:round;stroke-linejoin:round;stroke-width:0.5px"/><line x1="38.811" y1="161.1008" x2="53.3983" y2="152.6443" style="fill:none;stroke:#a7abae;stroke-linecap:round;stroke-linejoin:round;stroke-width:0.5px"/><path d="M60.7861,201.087c-1.5087.4388-2.7823.0213-4.8887-1.0478-3.4989-1.7759-10.4966-6.6789-16.3793-11.775s-10.4927-9.27-13.0047-11.9468-5.4528-4.6518-4.4333-8.2949c.0339-.1212,3.4245-13.2762,4.4219-17.1458a2.6081,2.6081,0,0,1,1.2164-1.606l12.3122-7.1376" style="fill:none;stroke:#a7abae;stroke-linecap:round;stroke-linejoin:round;stroke-width:0.5px"/></g><g id="ff1dfd81-8337-4dcf-be56-bc0ec85979de" data-name="above"><path d="M116.1955,93.0256a.5711.5711,0,0,1,.0369,1.0179l-32.47,23.5821a1.4336,1.4336,0,0,1-1.6662.0143L43.0424,90.2814a.5806.5806,0,0,1,.013-1.0286L74.6938,68.2652a1.4336,1.4336,0,0,1,1.5491-.0237Z" style="fill:#f2a900;stroke:#000001;stroke-linecap:round;stroke-linejoin:round"/><path d="M70.5626,104.0607c-1.489-.9695-1.1063-2.1153-.3486-2.6448L92.808,85.6281a2.2574,2.2574,0,0,1,2.3642-.0346l9.4632,6.1619c.9986.65,1.537,1.8144.3485,2.6448L82.3831,110.1929a2.2817,2.2817,0,0,1-2.3655.0245Z" style="fill:none;stroke:#141b21;stroke-linejoin:round;stroke-width:2px"/><path d="M70.5626,104.0607c-1.489-.9695-1.1063-2.1153-.3486-2.6448L92.808,85.6281a2.2574,2.2574,0,0,1,2.3642-.0346l9.4632,6.1619c.9986.65,1.537,1.8144.3485,2.6448L82.3831,110.1929a2.2817,2.2817,0,0,1-2.3655.0245Z" style="fill:#d3d5d6"/><path d="M70.5626,104.0607c-1.489-.9695-1.1063-2.1153-.3486-2.6448L92.808,85.6281a2.2574,2.2574,0,0,1,2.3642-.0346l9.4632,6.1619c.9986.65,1.537,1.8144.3485,2.6448L82.3831,110.1929a2.2817,2.2817,0,0,1-2.3655.0245Z" style="fill:none;stroke:#141b21;stroke-linecap:round;stroke-linejoin:round;stroke-width:0.5px"/><path d="M104.4451,91.572a.8455.8455,0,0,1,.0378,1.5072L82.1087,108.7141a2.1541,2.1541,0,0,1-2.2338.0273l-9.2908-6.0529a.8455.8455,0,0,1-.0378-1.5073" style="fill:none;stroke:#141b21;stroke-linecap:round;stroke-linejoin:round;stroke-width:0.5px"/><path d="M72.6927,104.0623l.3122-.2181a.7887.7887,0,0,1,.813.0294l3.3838,2.2044c.2444.1592.2767.4042.072.5472l-.3121.2181" style="fill:none;stroke:#141b21;stroke-linecap:round;stroke-linejoin:round;stroke-width:0.5px"/><path d="M88.526,105.4548a.6885.6885,0,0,1-.2241.6055l-1.7227,1.2038c-.1537.1074-.3025.01-.3324-.2166a.6885.6885,0,0,1,.2241-.6055l1.7227-1.2038C88.3473,105.1308,88.4961,105.2278,88.526,105.4548Z" style="fill:none;stroke:#141b21;stroke-linecap:round;stroke-linejoin:round;stroke-width:0.5px"/><path d="M91.3677,103.469a.6885.6885,0,0,1-.2241.6055l-1.7227,1.2038c-.1537.1074-.3025.01-.3324-.2165a.6885.6885,0,0,1,.2241-.6055l1.7227-1.2038C91.189,103.1451,91.3378,103.2421,91.3677,103.469Z" style="fill:none;stroke:#141b21;stroke-linecap:round;stroke-linejoin:round;stroke-width:0.5px"/><path d="M80.8693,97.2125a.9754.9754,0,0,1,1.0054.0523l6.343,4.1323c.31.2022.3659.51.1233.6829l-2.8627,2.0465a.9756.9756,0,0,1-1.0054-.0523l-6.2519-4.073c-.3605-.2348-.4249-.5918-.1431-.7932l.4536-.3243L78.0952,98.6c-.31-.2022-.3658-.51-.1232-.683l.933-.667a.9758.9758,0,0,1,1.0055.0523l.4363.2842Z" style="fill:none;stroke:#141b21;stroke-linejoin:round;stroke-width:0.5px"/><polygon points="88.68 97.23 84.744 100.107 87.135 101.611 77.939 103.645 81.875 100.767 79.485 99.263 88.68 97.23" style="fill:#f2a900;stroke:#d3d5d6;stroke-miterlimit:10;stroke-width:0.5px"/></g></svg>
